<?xml version="1.0" standalone="no"?><svg xmlns="http://www.w3.org/2000/svg" width="600.000" height="450.000" viewBox="0.0 0.0 600.000 450.000" version="1.1">
<title>Acme Converter - Post-processed with EDS-Designer: 14.44 (info@symca.com)</title>
<desc>Acme Converter - Post-processed with EDS-Designer: 14.44 (info@symca.com)</desc>
<g id="EDS_STYLE_GROUP" fill="none" stroke="black" stroke-width="1.0">
<g id="0" display="visible">
<path d="M310.77 273.67L310.77 232.88"/>
<path d="M319.84 223.81L347.03 223.81"/>
<path d="M356.09 232.88L356.09 273.67"/>
<path d="M328.9 228.35L337.96 228.35"/>
<path d="M337.96 228.35L337.96 237.41"/>
<path d="M337.96 237.41L342.5 237.41"/>
<path d="M342.5 237.41L342.5 246.48"/>
<path d="M342.5 246.48L347.03 246.48"/>
<path d="M347.03 246.48L347.03 273.67"/>
<path d="M328.9 228.35L328.9 237.41"/>
<path d="M328.9 237.41L324.37 237.41"/>
<path d="M324.37 237.41L324.37 273.67"/>
<path d="M324.37 273.67L310.77 273.67"/>
<path d="M342.5 273.67L356.09 273.67"/>
<path d="M319.84 223.81L315.3 225.03M315.3 225.03L311.99 228.35M311.99 228.35L310.77 232.88"/>
<path d="M356.09 232.88L354.88 228.35M354.88 228.35L351.56 225.03M351.56 225.03L347.03 223.81"/>
<path d="M324.37 273.67L342.5 273.67"/>
<path d="M351.56 273.67L351.56 278.2"/>
<path d="M351.56 278.2L324.37 278.2"/>
<path d="M324.37 278.2L324.37 273.67"/>
<path d="M310.77 210.22L310.77 169.43"/>
<path d="M319.84 160.36L347.03 160.36"/>
<path d="M356.09 169.43L356.09 210.22"/>
<path d="M328.9 164.89L337.96 164.89"/>
<path d="M337.96 164.89L337.96 173.96"/>
<path d="M337.96 173.96L342.5 173.96"/>
<path d="M342.5 173.96L342.5 183.02"/>
<path d="M342.5 183.02L347.03 183.02"/>
<path d="M347.03 183.02L347.03 210.22"/>
<path d="M328.9 164.89L328.9 173.96"/>
<path d="M328.9 173.96L324.37 173.96"/>
<path d="M324.37 173.96L324.37 210.22"/>
<path d="M324.37 210.22L310.77 210.22"/>
<path d="M342.5 210.22L356.09 210.22"/>
<path d="M319.84 160.36L315.3 161.58M315.3 161.58L311.99 164.89M311.99 164.89L310.77 169.43"/>
<path d="M356.09 169.43L354.88 164.89M354.88 164.89L351.56 161.58M351.56 161.58L347.03 160.36"/>
<path d="M324.37 210.22L342.5 210.22"/>
<path d="M351.56 210.22L351.56 214.75"/>
<path d="M351.56 214.75L324.37 214.75"/>
<path d="M324.37 214.75L324.37 210.22"/>
<path d="M358.54 153.19L337.5 146.73M337.5 146.73L315.75 143.36M315.75 143.36L293.74 143.13M293.74 143.13L271.92 146.05M271.92 146.05L250.75 152.06"/>
<path d="M253.79 302.38L253.79 293.32"/>
<path d="M253.79 293.32L274.11 299.34M274.11 299.34L295.09 302.31M295.09 302.31L316.29 302.18M316.29 302.18L337.23 298.94M337.23 298.94L357.47 292.67"/>
<path d="M282.69 300.94L282.69 293.32"/>
<path d="M282.69 293.32L323.48 293.32"/>
<path d="M323.48 293.32L323.48 301.42"/>
<path d="M375.88 175.22L375.88 279.32"/>
<path d="M233.11 280.32L233.11 174.15"/>
<path d="M219.52 274.84L196.85 274.84"/>
<path d="M196.85 274.84L196.85 292.97"/>
<path d="M219.52 215.92L205.92 215.92"/>
<path d="M205.92 215.92L205.92 224.98"/>
<path d="M205.92 224.98L219.52 224.98"/>
<path d="M219.52 234.05L205.92 234.05"/>
<path d="M205.92 234.05L205.92 243.11"/>
<path d="M205.92 243.11L219.52 243.11"/>
<path d="M389.48 215.92L403.08 215.92"/>
<path d="M403.08 215.92L403.08 224.98"/>
<path d="M403.08 224.98L389.48 224.98"/>
<path d="M389.48 234.05L403.08 234.05"/>
<path d="M403.08 234.05L403.08 243.11"/>
<path d="M403.08 243.11L389.48 243.11"/>
<path d="M196.85 292.97L221.79 292.97"/>
<path d="M219.52 224.98L219.52 234.05"/>
<path d="M389.48 224.98L389.48 234.05"/>
<path d="M369.08 142.61L369.08 79.95"/>
<path d="M355.49 66.35L253.51 66.35"/>
<path d="M239.91 79.95L239.91 141.55"/>
<path d="M355.49 137.75L355.49 79.95"/>
<path d="M369.08 79.95L239.91 79.95"/>
<path d="M253.51 79.95L253.51 136.86"/>
<path d="M328.29 79.95L328.29 98.08"/>
<path d="M328.29 98.08L278.44 98.08"/>
<path d="M278.44 98.08L278.44 79.95"/>
<path d="M369.08 79.95L367.26 73.15M367.26 73.15L362.29 68.17M362.29 68.17L355.49 66.35"/>
<path d="M253.51 66.35L246.71 68.17M246.71 68.17L241.73 73.15M241.73 73.15L239.91 79.95"/>
<path d="M251.05 302.48L272.15 308.11M272.15 308.11L293.81 310.83M293.81 310.83L315.64 310.62M315.64 310.62L337.24 307.46M337.24 307.46L358.23 301.42"/>
<path d="M249.73 383.62L249.73 351.89M251.24 351.89L251.24 383.62M245.2 351.89L263.33 351.89M263.33 351.89L267.86 353.4M267.86 353.4L269.37 354.91M269.37 354.91L270.88 357.93M270.88 357.93L270.88 360.95M270.88 360.95L269.37 363.98M269.37 363.98L267.86 365.49M267.86 365.49L263.33 367M263.33 351.89L266.35 353.4M266.35 353.4L267.86 354.91M267.86 354.91L269.37 357.93M269.37 357.93L269.37 360.95M269.37 360.95L267.86 363.98M267.86 363.98L266.35 365.49M266.35 365.49L263.33 367M251.24 367L263.33 367M263.33 367L267.86 368.51M267.86 368.51L269.37 370.02M269.37 370.02L270.88 373.04M270.88 373.04L270.88 377.57M270.88 377.57L269.37 380.59M269.37 380.59L267.86 382.1M267.86 382.1L263.33 383.62M263.33 383.62L245.2 383.62M263.33 367L266.35 368.51M266.35 368.51L267.86 370.02M267.86 370.02L269.37 373.04M269.37 373.04L269.37 377.57M269.37 377.57L267.86 380.59M267.86 380.59L266.35 382.1M266.35 382.1L263.33 383.62M282.97 383.62L282.97 351.89M284.48 351.89L284.48 383.62M278.44 351.89L289.01 351.89M278.44 383.62L301.1 383.62M301.1 383.62L301.1 374.55M301.1 374.55L299.59 383.62M310.16 351.89L310.16 374.55M310.16 374.55L311.67 379.08M311.67 379.08L314.7 382.1M314.7 382.1L319.23 383.62M319.23 383.62L322.25 383.62M322.25 383.62L326.78 382.1M326.78 382.1L329.8 379.08M329.8 379.08L331.31 374.55M331.31 374.55L331.31 351.89M311.67 351.89L311.67 374.55M311.67 374.55L313.19 379.08M313.19 379.08L316.21 382.1M316.21 382.1L319.23 383.62M305.63 351.89L316.21 351.89M326.78 351.89L335.85 351.89M346.42 383.62L346.42 351.89M347.93 351.89L347.93 383.62M357 360.95L357 373.04M341.89 351.89L366.06 351.89M366.06 351.89L366.06 360.95M366.06 360.95L364.55 351.89M347.93 367L357 367M341.89 383.62L366.06 383.62M366.06 383.62L366.06 374.55M366.06 374.55L364.55 383.62"/>
<path d="M259.97 272.61L287.17 272.61"/>
<path d="M250.91 272.61L250.91 231.82"/>
<path d="M259.97 222.76L287.17 222.76"/>
<path d="M296.23 231.82L296.23 240.89"/>
<path d="M296.23 240.89L300.77 240.89"/>
<path d="M300.77 240.89L300.77 254.48"/>
<path d="M300.77 254.48L287.17 254.48"/>
<path d="M287.17 254.48L287.17 259.02"/>
<path d="M287.17 259.02L300.77 259.02"/>
<path d="M300.77 259.02L300.77 272.61"/>
<path d="M300.77 272.61L287.17 272.61"/>
<path d="M259.97 272.61L250.91 272.61"/>
<path d="M259.97 222.76L255.44 223.97M255.44 223.97L252.12 227.29M252.12 227.29L250.91 231.82"/>
<path d="M296.23 231.82L295.02 227.29M295.02 227.29L291.7 223.97M291.7 223.97L287.17 222.76"/>
<path d="M264.51 272.61L264.51 245.42"/>
<path d="M264.51 245.42L259.97 245.42"/>
<path d="M259.97 245.42L259.97 236.35"/>
<path d="M259.97 236.35L264.51 236.35"/>
<path d="M264.51 236.35L264.51 227.29"/>
<path d="M264.51 227.29L273.57 227.29"/>
<path d="M273.57 227.29L273.57 236.35"/>
<path d="M273.57 236.35L278.1 236.35"/>
<path d="M278.1 236.35L278.1 245.42"/>
<path d="M278.1 245.42L296.23 245.42"/>
<path d="M296.23 245.42L296.23 240.89"/>
<path d="M264.51 272.61L264.51 277.14"/>
<path d="M264.51 277.14L282.64 277.14"/>
<path d="M282.64 277.14L282.64 272.61"/>
<path d="M259.97 209.16L287.17 209.16"/>
<path d="M250.91 209.16L250.91 168.37"/>
<path d="M259.97 159.3L287.17 159.3"/>
<path d="M296.23 168.37L296.23 177.43"/>
<path d="M296.23 177.43L300.77 177.43"/>
<path d="M300.77 177.43L300.77 191.03"/>
<path d="M300.77 191.03L287.17 191.03"/>
<path d="M287.17 191.03L287.17 195.56"/>
<path d="M287.17 195.56L300.77 195.56"/>
<path d="M300.77 195.56L300.77 209.16"/>
<path d="M300.77 209.16L287.17 209.16"/>
<path d="M259.97 209.16L250.91 209.16"/>
<path d="M259.97 159.3L255.44 160.52M255.44 160.52L252.12 163.84M252.12 163.84L250.91 168.37"/>
<path d="M296.23 168.37L295.02 163.84M295.02 163.84L291.7 160.52M291.7 160.52L287.17 159.3"/>
<path d="M264.51 209.16L264.51 181.97"/>
<path d="M264.51 181.97L259.97 181.97"/>
<path d="M259.97 181.97L259.97 172.9"/>
<path d="M259.97 172.9L264.51 172.9"/>
<path d="M264.51 172.9L264.51 163.84"/>
<path d="M264.51 163.84L273.57 163.84"/>
<path d="M273.57 163.84L273.57 172.9"/>
<path d="M273.57 172.9L278.1 172.9"/>
<path d="M278.1 172.9L278.1 181.97"/>
<path d="M278.1 181.97L296.23 181.97"/>
<path d="M296.23 181.97L296.23 177.43"/>
<path d="M264.51 209.16L264.51 213.69"/>
<path d="M264.51 213.69L282.64 213.69"/>
<path d="M282.64 213.69L282.64 209.16"/>
<path d="M274.01 192.18L275.74 191.31M275.74 191.31L278.33 188.72M278.33 188.72L278.33 206.85"/>
<path d="M329.91 193.04L329.91 192.18M329.91 192.18L330.78 190.45M330.78 190.45L331.64 189.59M331.64 189.59L333.37 188.72M333.37 188.72L336.82 188.72M336.82 188.72L338.55 189.59M338.55 189.59L339.41 190.45M339.41 190.45L340.27 192.18M340.27 192.18L340.27 193.9M340.27 193.9L339.41 195.63M339.41 195.63L337.68 198.22M337.68 198.22L329.05 206.85M329.05 206.85L341.13 206.85"/>
<path d="M271.85 249.91L281.35 249.91M281.35 249.91L276.17 256.82M276.17 256.82L278.76 256.82M278.76 256.82L280.49 257.68M280.49 257.68L281.35 258.54M281.35 258.54L282.21 261.13M282.21 261.13L282.21 262.86M282.21 262.86L281.35 265.45M281.35 265.45L279.62 267.18M279.62 267.18L277.03 268.04M277.03 268.04L274.44 268.04M274.44 268.04L271.85 267.18M271.85 267.18L270.99 266.31M270.99 266.31L270.13 264.59"/>
<path d="M337.25 249.91L328.62 262M328.62 262L341.57 262M337.25 249.91L337.25 268.04"/>
<path d="M264.45 320.33L273.68 329.06M273.68 329.06L284.8 335.2M284.8 335.2L297.1 338.36M297.1 338.36L309.8 338.34M309.8 338.34L322.09 335.14M322.09 335.14L333.19 328.96M333.19 328.96L342.39 320.2"/>
<path d="M272.97 322.06L284.05 329.44M284.05 329.44L296.79 333.28M296.79 333.28L310.09 333.26M310.09 333.26L322.82 329.37M322.82 329.37L333.87 321.96"/>
<path d="M250.75 152.06L243.73 154.96M243.73 154.96L238.06 160.02M238.06 160.02L234.39 166.67M234.39 166.67L233.11 174.15"/>
<path d="M233.11 280.32L234.41 287.88M234.41 287.88L238.16 294.57M238.16 294.57L243.92 299.63M243.92 299.63L251.05 302.48"/>
<path d="M360.14 146.58L338.48 140.01M338.48 140.01L316.11 136.57M316.11 136.57L293.47 136.33M293.47 136.33L271.03 139.31M271.03 139.31L249.24 145.43"/>
<path d="M249.24 145.43L240.11 149.2M240.11 149.2L232.75 155.78M232.75 155.78L227.97 164.42M227.97 164.42L226.31 174.15"/>
<path d="M226.31 280.32L226.31 174.15"/>
<path d="M226.31 280.32L228 290.15M228 290.15L232.87 298.85M232.87 298.85L240.37 305.43M240.37 305.43L249.63 309.13"/>
<path d="M249.63 309.13L271.31 314.85M271.31 314.85L293.56 317.63M293.56 317.63L315.98 317.41M315.98 317.41L338.17 314.2M338.17 314.2L359.73 308.05"/>
<path d="M375.88 175.22L374.64 167.8M374.64 167.8L371.03 161.2M371.03 161.2L365.46 156.14M365.46 156.14L358.54 153.19"/>
<path d="M358.23 301.42L365.25 298.52M365.25 298.52L370.93 293.47M370.93 293.47L374.61 286.81M374.61 286.81L375.88 279.32"/>
<path d="M382.68 175.22L381.06 165.58M381.06 165.58L376.37 157M376.37 157L369.13 150.42M369.13 150.42L360.14 146.58"/>
<path d="M382.68 175.22L382.68 279.32"/>
<path d="M359.73 308.05L368.86 304.29M368.86 304.29L376.24 297.71M376.24 297.71L381.02 289.06M381.02 289.06L382.68 279.32"/>
<path d="M389.48 175.22L388.2 165.66M388.2 165.66L384.44 156.78M384.44 156.78L378.48 149.2M378.48 149.2L370.73 143.46M370.73 143.46L361.74 139.97"/>
<path d="M389.48 175.22L389.48 279.32"/>
<path d="M361.23 314.68L370.36 311.27M370.36 311.27L378.25 305.55M378.25 305.55L384.34 297.94M384.34 297.94L388.17 288.98M388.17 288.98L389.48 279.32"/>
<path d="M248.21 315.78L270.47 321.6M270.47 321.6L293.31 324.42M293.31 324.42L316.31 324.2M316.31 324.2L339.09 320.93M339.09 320.93L361.23 314.68"/>
<path d="M219.52 280.32L220.85 290.06M220.85 290.06L224.76 299.09M224.76 299.09L230.94 306.74M230.94 306.74L238.96 312.44M238.96 312.44L248.21 315.78"/>
<path d="M219.52 280.32L219.52 174.15"/>
<path d="M247.73 138.8L238.61 142.22M238.61 142.22L230.73 147.94M230.73 147.94L224.65 155.55M224.65 155.55L220.82 164.5M220.82 164.5L219.52 174.15"/>
<path d="M361.74 139.97L339.46 133.28M339.46 133.28L316.47 129.78M316.47 129.78L293.21 129.54M293.21 129.54L270.14 132.57M270.14 132.57L247.73 138.8"/>
<path d="M375.88 220.45L369.08 220.45"/>
<path d="M369.08 220.45L369.08 240.85"/>
<path d="M369.08 240.85L375.88 240.85"/>
<path d="M233.11 220.45L239.91 220.45"/>
<path d="M239.91 220.45L239.91 240.85"/>
<path d="M239.91 240.85L233.11 240.85"/>
<path d="M357.47 302.38L357.47 292.67"/>
</g>
</g>
</svg>
