<?xml version="1.0" standalone="no"?><svg xmlns="http://www.w3.org/2000/svg" width="600.000" height="450.000" viewBox="0.0 0.0 600.000 450.000" version="1.1">
<title>Acme Converter - Post-processed with EDS-Designer: 14.44 (info@symca.com)</title>
<desc>Acme Converter - Post-processed with EDS-Designer: 14.44 (info@symca.com)</desc>
<g id="EDS_STYLE_GROUP" fill="none" stroke="black" stroke-width="1.0">
<g id="0" display="visible">
<path d="M210.55 358.98L221.91 376.83M221.91 376.83L221.91 393.07M212.17 358.98L223.53 376.83M223.53 376.83L223.53 393.07M234.9 358.98L223.53 376.83M207.3 358.98L217.04 358.98M228.4 358.98L238.14 358.98M217.04 393.07L228.4 393.07M246.26 393.07L246.26 358.98M247.88 358.98L247.88 393.07M257.62 368.72L257.62 381.7M241.39 358.98L267.36 358.98M267.36 358.98L267.36 368.72M267.36 368.72L265.74 358.98M247.88 375.21L257.62 375.21M241.39 393.07L267.36 393.07M267.36 393.07L267.36 383.33M267.36 383.33L265.74 393.07M280.35 393.07L280.35 358.98M281.97 358.98L281.97 393.07M275.48 358.98L286.84 358.98M275.48 393.07L299.83 393.07M299.83 393.07L299.83 383.33M299.83 383.33L298.21 393.07M309.57 393.07L309.57 358.98M311.19 358.98L311.19 393.07M304.7 358.98L316.06 358.98M304.7 393.07L329.05 393.07M329.05 393.07L329.05 383.33M329.05 383.33L327.43 393.07M345.28 358.98L340.41 360.6M340.41 360.6L337.17 363.85M337.17 363.85L335.54 367.09M335.54 367.09L333.92 373.59M333.92 373.59L333.92 378.46M333.92 378.46L335.54 384.95M335.54 384.95L337.17 388.2M337.17 388.2L340.41 391.44M340.41 391.44L345.28 393.07M345.28 393.07L348.53 393.07M348.53 393.07L353.4 391.44M353.4 391.44L356.65 388.2M356.65 388.2L358.27 384.95M358.27 384.95L359.89 378.46M359.89 378.46L359.89 373.59M359.89 373.59L358.27 367.09M358.27 367.09L356.65 363.85M356.65 363.85L353.4 360.6M353.4 360.6L348.53 358.98M348.53 358.98L345.28 358.98M345.28 358.98L342.04 360.6M342.04 360.6L338.79 363.85M338.79 363.85L337.17 367.09M337.17 367.09L335.54 373.59M335.54 373.59L335.54 378.46M335.54 378.46L337.17 384.95M337.17 384.95L338.79 388.2M338.79 388.2L342.04 391.44M342.04 391.44L345.28 393.07M348.53 393.07L351.78 391.44M351.78 391.44L355.02 388.2M355.02 388.2L356.65 384.95M356.65 384.95L358.27 378.46M358.27 378.46L358.27 373.59M358.27 373.59L356.65 367.09M356.65 367.09L355.02 363.85M355.02 363.85L351.78 360.6M351.78 360.6L348.53 358.98M374.51 358.98L381 393.07M376.13 358.98L381 384.95M387.49 358.98L381 393.07M387.49 358.98L393.99 393.07M389.12 358.98L393.99 384.95M400.48 358.98L393.99 393.07M369.64 358.98L381 358.98M395.61 358.98L405.35 358.98"/>
<path d="M409.78 220.62L412.38 219.32M412.38 219.32L416.27 215.42M416.27 215.42L416.27 242.69"/>
<path d="M184.99 214.08L184.99 212.78M184.99 212.78L186.28 210.18M186.28 210.18L187.58 208.88M187.58 208.88L190.18 207.58M190.18 207.58L195.37 207.58M195.37 207.58L197.97 208.88M197.97 208.88L199.27 210.18M199.27 210.18L200.57 212.78M200.57 212.78L200.57 215.37M200.57 215.37L199.27 217.97M199.27 217.97L196.67 221.87M196.67 221.87L183.69 234.85M183.69 234.85L201.87 234.85"/>
<path d="M255.13 175.36L256.97 175.36M257.7 175.36L257.83 175.36M258.56 175.36L261.51 175.36M262.25 175.36L262.37 175.36M263.1 175.36L264.95 175.36"/>
<path d="M288.57 176.39L284.96 176.39M283.52 176.39L283.28 176.39M281.84 176.39L276.07 176.39M274.63 176.39L274.38 176.39M272.94 176.39L269.34 176.39"/>
<path d="M347.85 175.36L349.69 175.36M350.43 175.36L350.55 175.36M351.29 175.36L354.24 175.36M354.97 175.36L355.1 175.36M355.83 175.36L357.67 175.36"/>
<path d="M343.46 176.39L339.85 176.39M338.41 176.39L338.17 176.39M336.72 176.39L330.95 176.39M329.51 176.39L329.27 176.39M327.83 176.39L324.22 176.39"/>
<path d="M234.3 290.8L378.5 290.8"/>
<path d="M373.22 324.89L373.22 290.8"/>
<path d="M400.49 249.89L378.5 249.89"/>
<path d="M400.49 324.89L373.22 324.89"/>
<path d="M400.49 249.89L400.49 324.89"/>
<path d="M378.5 224.66L378.5 290.8"/>
<path d="M360.94 224.66L378.5 224.66"/>
<path d="M360.94 224.66L360.94 204.2"/>
<path d="M378.5 204.2L360.94 204.2"/>
<path d="M378.5 179.66L378.5 204.2"/>
<path d="M378.5 179.66L356.85 179.66"/>
<path d="M356.85 179.66L356.85 175.36"/>
<path d="M348.67 175.36L356.85 175.36"/>
<path d="M348.67 175.36L348.67 179.66"/>
<path d="M348.67 179.66L341.85 179.66"/>
<path d="M341.85 179.66L341.85 178.82"/>
<path d="M341.85 176.39L341.85 178.82"/>
<path d="M341.85 176.39L325.83 176.39"/>
<path d="M325.83 176.39L325.83 178.82"/>
<path d="M325.83 179.66L325.83 178.82"/>
<path d="M325.83 179.66L316.63 179.66"/>
<path d="M316.63 179.66L296.17 179.66"/>
<path d="M296.17 179.66L286.97 179.66"/>
<path d="M286.97 178.82L286.97 179.66"/>
<path d="M286.97 176.39L286.97 178.82"/>
<path d="M286.97 176.39L270.95 176.39"/>
<path d="M270.95 176.39L270.95 178.82"/>
<path d="M270.95 178.82L270.95 179.66"/>
<path d="M270.95 179.66L264.13 179.66"/>
<path d="M264.13 179.66L264.13 175.36"/>
<path d="M255.95 175.36L264.13 175.36"/>
<path d="M255.95 175.36L255.95 179.66"/>
<path d="M255.95 179.66L234.3 179.66"/>
<path d="M234.3 204.2L234.3 179.66"/>
<path d="M251.85 204.2L234.3 204.2"/>
<path d="M251.85 238.3L251.85 204.2"/>
<path d="M234.3 238.3L251.85 238.3"/>
<path d="M234.3 290.8L234.3 238.3"/>
<path d="M296.17 221.25L296.17 232.16"/>
<path d="M268.9 232.16L296.17 232.16"/>
<path d="M268.9 232.16L268.9 221.25"/>
<path d="M296.17 221.25L268.9 221.25"/>
<path d="M343.9 221.25L343.9 232.16"/>
<path d="M316.63 232.16L343.9 232.16"/>
<path d="M316.63 232.16L316.63 221.25"/>
<path d="M343.9 221.25L316.63 221.25"/>
<path d="M251.85 290.8L268.22 307.16"/>
<path d="M360.94 290.8L344.58 307.16"/>
<path d="M344.58 307.16L268.22 307.16"/>
<path d="M392.14 249.89L392.14 204.2"/>
<path d="M378.5 204.2L406.63 204.2"/>
<path d="M234.3 179.66L212.31 179.66"/>
<path d="M356.85 100.57L356.85 139.93"/>
<path d="M356.85 175.36L356.85 139.93"/>
<path d="M348.67 175.36L348.67 139.93"/>
<path d="M348.67 139.93L356.85 139.93"/>
<path d="M348.67 100.57L348.67 139.93"/>
<path d="M341.85 149.29L341.85 176.39"/>
<path d="M325.83 146.86L325.83 149.29"/>
<path d="M325.83 149.29L325.83 176.39"/>
<path d="M341.85 146.86L341.85 149.29"/>
<path d="M341.85 146.86L325.83 146.86"/>
<path d="M316.63 179.66L316.63 172.84"/>
<path d="M316.63 172.84L296.17 172.84"/>
<path d="M296.17 179.66L296.17 172.84"/>
<path d="M286.97 176.39L286.97 149.29"/>
<path d="M286.97 149.29L286.97 146.86"/>
<path d="M286.97 146.86L270.95 146.86"/>
<path d="M270.95 149.29L270.95 146.86"/>
<path d="M270.95 149.29L270.95 176.39"/>
<path d="M264.13 100.57L264.13 139.93"/>
<path d="M264.13 175.36L264.13 139.93"/>
<path d="M255.95 175.36L255.95 139.93"/>
<path d="M255.95 139.93L264.13 139.93"/>
<path d="M255.95 100.57L255.95 139.93"/>
<path d="M212.31 204.2L234.3 204.2"/>
<path d="M206.17 204.2L212.31 204.2"/>
<path d="M220.66 204.2L220.66 270.34"/>
<path d="M234.3 270.34L220.66 270.34"/>
<path d="M206.17 204.2L206.17 149.66"/>
<path d="M206.17 108.75L206.17 149.66"/>
<path d="M206.17 108.75L206.17 106.02"/>
<path d="M406.63 108.75L406.63 106.02"/>
<path d="M406.63 108.75L406.63 149.66"/>
<path d="M406.63 149.66L406.63 204.2"/>
<path d="M374.58 179.66L374.58 149.66"/>
<path d="M238.22 179.66L238.22 149.66"/>
<path d="M212.31 179.66L212.31 204.2"/>
<path d="M296.17 157.84L296.17 172.84"/>
<path d="M316.63 157.84L316.63 172.84"/>
<path d="M374.58 108.75L374.58 149.66"/>
<path d="M374.58 108.75L374.58 95.11"/>
<path d="M238.22 108.75L238.22 95.11"/>
<path d="M238.22 108.75L238.22 149.66"/>
<path d="M348.67 100.57L356.85 100.57"/>
<path d="M341.85 96.48L341.85 146.86"/>
<path d="M325.83 146.86L325.83 140.11"/>
<path d="M341.85 96.48L270.95 96.48"/>
<path d="M270.95 96.48L270.95 146.86"/>
<path d="M286.97 146.86L286.97 140.11"/>
<path d="M291.4 136.43L286.97 140.11"/>
<path d="M291.4 98.84L291.4 136.43"/>
<path d="M291.4 98.84L321.4 98.84"/>
<path d="M321.4 136.43L321.4 98.84"/>
<path d="M325.83 140.11L321.4 136.43"/>
<path d="M316.63 157.84L296.17 157.84"/>
<path d="M255.95 100.57L264.13 100.57"/>
<path d="M206.17 149.66L238.22 149.66"/>
<path d="M206.17 108.75L238.22 108.75"/>
<path d="M374.58 108.75L406.63 108.75"/>
<path d="M406.63 106.02L404.95 93.32M404.95 93.32L400.05 81.48M400.05 81.48L392.25 71.31M392.25 71.31L382.08 63.51M382.08 63.51L370.24 58.61M370.24 58.61L357.54 56.93"/>
<path d="M255.26 56.93L357.54 56.93"/>
<path d="M255.26 56.93L242.56 58.61M242.56 58.61L230.72 63.51M230.72 63.51L220.55 71.31M220.55 71.31L212.75 81.48M212.75 81.48L207.85 93.32M207.85 93.32L206.17 106.02"/>
<path d="M260.04 73.3L251.69 74.96M251.69 74.96L244.61 79.69M244.61 79.69L239.88 86.77M239.88 86.77L238.22 95.11"/>
<path d="M260.04 73.3L352.76 73.3"/>
<path d="M374.58 95.11L372.92 86.77M372.92 86.77L368.19 79.69M368.19 79.69L361.11 74.96M361.11 74.96L352.76 73.3"/>
<path d="M374.58 149.66L406.63 149.66"/>
<path d="M270.95 126.48L266.85 126.48"/>
<path d="M266.85 126.48L265.49 126.48"/>
<path d="M347.31 126.48L345.95 126.48"/>
<path d="M345.95 126.48L341.85 126.48"/>
<path d="M345.95 126.48L345.95 96.48"/>
<path d="M345.95 96.48L341.85 96.48"/>
<path d="M270.95 96.48L266.85 96.48"/>
<path d="M321.4 111.48L291.4 111.48"/>
<path d="M266.85 126.48L266.85 96.48"/>
<path d="M266.85 96.48L266.85 87.61"/>
<path d="M265.49 97.84L245.04 97.84"/>
<path d="M265.49 97.84L265.49 126.48"/>
<path d="M266.85 87.61L245.04 87.61"/>
<path d="M245.04 97.84L245.04 87.61"/>
<path d="M285.95 87.61L326.85 87.61"/>
<path d="M347.31 97.84L347.31 126.48"/>
<path d="M367.76 97.84L347.31 97.84"/>
<path d="M367.76 97.84L367.76 87.61"/>
<path d="M367.76 87.61L345.95 87.61"/>
<path d="M345.95 96.48L345.95 87.61"/>
<path d="M285.95 87.61L285.95 96.48"/>
<path d="M285.95 87.61L266.85 87.61"/>
<path d="M345.95 87.61L326.85 87.61"/>
<path d="M326.85 87.61L326.85 96.48"/>
<path d="M347.31 87.61L339.81 81.48"/>
<path d="M272.99 81.48L265.49 87.61"/>
<path d="M339.81 81.48L272.99 81.48"/>
</g>
</g>
</svg>
