<?xml version="1.0" standalone="no"?><svg xmlns="http://www.w3.org/2000/svg" width="600.000" height="450.000" viewBox="0.0 0.0 600.000 450.000" version="1.1">
<title>Acme Converter - Post-processed with EDS-Designer: 14.44 (info@symca.com)</title>
<desc>Acme Converter - Post-processed with EDS-Designer: 14.44 (info@symca.com)</desc>
<g id="EDS_STYLE_GROUP" fill="none" stroke="black" stroke-width="1.0">
<g id="0" display="visible">
<path d="M244.74 351.13L241.87 352.09M241.87 352.09L239.96 354.01M239.96 354.01L239 355.92M239 355.92L238.04 359.76M238.04 359.76L238.04 362.63M238.04 362.63L239 366.46M239 366.46L239.96 368.38M239.96 368.38L241.87 370.29M241.87 370.29L244.74 371.25M244.74 371.25L246.66 371.25M246.66 371.25L249.53 370.29M249.53 370.29L251.45 368.38M251.45 368.38L252.41 366.46M252.41 366.46L253.37 362.63M253.37 362.63L253.37 359.76M253.37 359.76L252.41 355.92M252.41 355.92L251.45 354.01M251.45 354.01L249.53 352.09M249.53 352.09L246.66 351.13M246.66 351.13L244.74 351.13M244.74 351.13L242.83 352.09M242.83 352.09L240.91 354.01M240.91 354.01L239.96 355.92M239.96 355.92L239 359.76M239 359.76L239 362.63M239 362.63L239.96 366.46M239.96 366.46L240.91 368.38M240.91 368.38L242.83 370.29M242.83 370.29L244.74 371.25M246.66 371.25L248.58 370.29M248.58 370.29L250.49 368.38M250.49 368.38L251.45 366.46M251.45 366.46L252.41 362.63M252.41 362.63L252.41 359.76M252.41 359.76L251.45 355.92M251.45 355.92L250.49 354.01M250.49 354.01L248.58 352.09M248.58 352.09L246.66 351.13M261.99 371.25L261.99 351.13M262.94 351.13L262.94 371.25M259.11 351.13L270.61 351.13M270.61 351.13L273.48 352.09M273.48 352.09L274.44 353.05M274.44 353.05L275.4 354.97M275.4 354.97L275.4 356.88M275.4 356.88L274.44 358.8M274.44 358.8L273.48 359.76M273.48 359.76L270.61 360.71M270.61 360.71L262.94 360.71M270.61 351.13L272.52 352.09M272.52 352.09L273.48 353.05M273.48 353.05L274.44 354.97M274.44 354.97L274.44 356.88M274.44 356.88L273.48 358.8M273.48 358.8L272.52 359.76M272.52 359.76L270.61 360.71M259.11 371.25L265.82 371.25M267.73 360.71L269.65 361.67M269.65 361.67L270.61 362.63M270.61 362.63L273.48 369.33M273.48 369.33L274.44 370.29M274.44 370.29L275.4 370.29M275.4 370.29L276.35 369.33M269.65 361.67L270.61 363.59M270.61 363.59L272.52 370.29M272.52 370.29L273.48 371.25M273.48 371.25L275.4 371.25M275.4 371.25L276.35 369.33M276.35 369.33L276.35 368.38M288.81 351.13L282.1 371.25M288.81 351.13L295.51 371.25M288.81 354.01L294.55 371.25M284.02 365.5L292.64 365.5M280.19 371.25L285.93 371.25M291.68 371.25L297.43 371.25M303.17 371.25L303.17 351.13M304.13 371.25L304.13 351.13M304.13 351.13L315.63 369.33M304.13 353.05L315.63 371.25M315.63 371.25L315.63 351.13M300.3 351.13L304.13 351.13M312.75 351.13L318.5 351.13M300.3 371.25L306.05 371.25M335.74 354.01L336.7 356.88M336.7 356.88L336.7 351.13M336.7 351.13L335.74 354.01M335.74 354.01L333.82 352.09M333.82 352.09L330.95 351.13M330.95 351.13L329.04 351.13M329.04 351.13L326.16 352.09M326.16 352.09L324.25 354.01M324.25 354.01L323.29 355.92M323.29 355.92L322.33 358.8M322.33 358.8L322.33 363.59M322.33 363.59L323.29 366.46M323.29 366.46L324.25 368.38M324.25 368.38L326.16 370.29M326.16 370.29L329.04 371.25M329.04 371.25L330.95 371.25M330.95 371.25L333.82 370.29M333.82 370.29L335.74 368.38M329.04 351.13L327.12 352.09M327.12 352.09L325.2 354.01M325.2 354.01L324.25 355.92M324.25 355.92L323.29 358.8M323.29 358.8L323.29 363.59M323.29 363.59L324.25 366.46M324.25 366.46L325.2 368.38M325.2 368.38L327.12 370.29M327.12 370.29L329.04 371.25M335.74 363.59L335.74 371.25M336.7 363.59L336.7 371.25M332.87 363.59L339.57 363.59M347.23 371.25L347.23 351.13M348.19 351.13L348.19 371.25M353.94 356.88L353.94 364.54M344.36 351.13L359.69 351.13M359.69 351.13L359.69 356.88M359.69 356.88L358.73 351.13M348.19 360.71L353.94 360.71M344.36 371.25L359.69 371.25M359.69 371.25L359.69 365.5M359.69 365.5L358.73 371.25"/>
<path d="M262.55 172.62L325.91 172.62"/>
<path d="M285.17 321.97L303.28 321.97"/>
<path d="M215.02 303.87L355.32 303.87"/>
<path d="M346.27 78.75L237.65 78.75"/>
<path d="M298.75 206.56L339.48 206.56"/>
<path d="M339.48 222.4L298.75 222.4"/>
<path d="M346.27 87.8L242.18 87.8"/>
<path d="M224.08 294.81L364.38 294.81"/>
<path d="M233.13 222.4L233.13 249.56"/>
<path d="M201.45 326.49L201.45 177.14"/>
<path d="M219.55 290.29L219.55 177.14"/>
<path d="M219.55 272.18L233.13 272.18"/>
<path d="M233.13 249.56L219.55 249.56"/>
<path d="M205.97 331.02L233.13 331.02"/>
<path d="M219.55 290.29L220.88 293.49M220.88 293.49L224.08 294.81"/>
<path d="M201.45 290.29L203.27 297.08M203.27 297.08L208.24 302.05M208.24 302.05L215.02 303.87"/>
<path d="M201.45 326.49L202.77 329.69M202.77 329.69L205.97 331.02"/>
<path d="M237.65 326.49L237.65 303.87"/>
<path d="M233.13 331.02L236.33 329.69M236.33 329.69L237.65 326.49"/>
<path d="M285.17 303.87L285.17 321.97"/>
<path d="M233.13 272.18L233.13 294.81"/>
<path d="M244.44 127.36L241.24 128.68M241.24 128.68L239.92 131.88"/>
<path d="M258.02 131.88L256.69 128.68M256.69 128.68L253.49 127.36"/>
<path d="M228.6 159.04L228.6 92.33"/>
<path d="M237.65 172.62L237.65 92.33"/>
<path d="M219.55 222.4L233.13 222.4"/>
<path d="M219.55 195.25L235.39 195.25"/>
<path d="M224.08 163.57L215.02 163.57"/>
<path d="M224.08 172.62L220.88 173.94M220.88 173.94L219.55 177.14"/>
<path d="M215.02 163.57L208.24 165.38M208.24 165.38L203.27 170.35M203.27 170.35L201.45 177.14"/>
<path d="M235.39 195.25L235.39 179.41"/>
<path d="M289.7 222.4L251.23 222.4"/>
<path d="M251.23 206.56L289.7 206.56"/>
<path d="M251.23 222.4L251.23 206.56"/>
<path d="M298.75 206.56L298.75 222.4"/>
<path d="M289.7 206.56L289.7 222.4"/>
<path d="M258.02 168.09L259.35 171.29M259.35 171.29L262.55 172.62"/>
<path d="M258.02 131.88L258.02 168.09"/>
<path d="M239.92 174.88L239.92 131.88"/>
<path d="M237.65 172.62L224.08 172.62"/>
<path d="M235.39 179.41L238.59 178.08M238.59 178.08L239.92 174.88"/>
<path d="M235.39 179.41L235.39 179.41"/>
<path d="M224.08 163.57L227.28 162.24M227.28 162.24L228.6 159.04"/>
<path d="M244.44 127.36L253.49 127.36"/>
<path d="M242.18 87.8L238.98 89.13M238.98 89.13L237.65 92.33"/>
<path d="M237.65 78.75L231.92 81.03M231.92 81.03L228.5 86.16M228.5 86.16L228.6 92.33"/>
<path d="M355.32 222.4L355.32 249.56"/>
<path d="M396.06 317.44L396.06 238.24"/>
<path d="M368.9 172.62L368.9 290.29"/>
<path d="M368.9 331.02L382.48 331.02"/>
<path d="M368.9 321.97L380.22 321.97"/>
<path d="M368.9 249.56L380.22 249.56"/>
<path d="M364.38 317.44L364.38 294.81"/>
<path d="M303.28 321.97L303.28 303.87"/>
<path d="M355.32 317.44L357.14 324.23M357.14 324.23L362.11 329.2M362.11 329.2L368.9 331.02"/>
<path d="M355.32 317.44L355.32 303.87"/>
<path d="M364.38 317.44L365.7 320.64M365.7 320.64L368.9 321.97"/>
<path d="M368.9 272.18L355.32 272.18"/>
<path d="M355.32 272.18L355.32 294.81"/>
<path d="M364.38 294.81L367.58 293.49M367.58 293.49L368.9 290.29"/>
<path d="M355.32 249.56L368.9 249.56"/>
<path d="M384.74 317.44L384.74 254.08"/>
<path d="M382.48 331.02L389.27 329.2M389.27 329.2L394.24 324.23M394.24 324.23L396.06 317.44"/>
<path d="M380.22 321.97L383.42 320.64M383.42 320.64L384.74 317.44"/>
<path d="M384.74 254.08L383.42 250.88M383.42 250.88L380.22 249.56"/>
<path d="M334.96 127.36L331.76 128.68M331.76 128.68L330.43 131.88"/>
<path d="M348.54 131.88L347.21 128.68M347.21 128.68L344.01 127.36"/>
<path d="M359.85 172.62L359.85 92.33"/>
<path d="M350.8 172.62L350.8 92.33"/>
<path d="M384.74 195.25L368.9 195.25"/>
<path d="M350.8 163.57L382.48 163.57"/>
<path d="M350.8 172.62L384.74 172.62"/>
<path d="M353.06 195.25L353.06 179.41"/>
<path d="M339.48 206.56L339.48 222.4"/>
<path d="M368.9 222.4L355.32 222.4"/>
<path d="M368.9 195.25L353.06 195.25"/>
<path d="M344.01 127.36L334.96 127.36"/>
<path d="M330.43 131.88L330.43 168.09"/>
<path d="M325.91 172.62L329.11 171.29M329.11 171.29L330.43 168.09"/>
<path d="M348.54 174.88L348.54 131.88"/>
<path d="M348.54 174.88L349.86 178.08M349.86 178.08L353.06 179.41"/>
<path d="M396.06 220.14L396.06 177.14"/>
<path d="M384.74 172.62L384.74 195.25"/>
<path d="M387.01 229.19L396.06 238.24"/>
<path d="M387.01 229.19L396.06 220.14"/>
<path d="M396.06 177.14L394.24 170.35M394.24 170.35L389.27 165.38M389.27 165.38L382.48 163.57"/>
<path d="M309.08 109.26L309.08 87.8"/>
<path d="M359.85 92.33L358.03 85.54M358.03 85.54L353.06 80.57M353.06 80.57L346.27 78.75"/>
<path d="M350.8 92.33L349.47 89.13M349.47 89.13L346.27 87.8"/>
<path d="M279.37 109.26L279.37 87.8"/>
<path d="M279.37 109.26L309.08 109.26"/>
<path d="M177.52 207.35L179.05 206.59M179.05 206.59L181.35 204.29M181.35 204.29L181.35 220.38"/>
<path d="M412.52 208.12L412.52 207.35M412.52 207.35L413.28 205.82M413.28 205.82L414.05 205.05M414.05 205.05L415.58 204.29M415.58 204.29L418.65 204.29M418.65 204.29L420.18 205.05M420.18 205.05L420.95 205.82M420.95 205.82L421.71 207.35M421.71 207.35L421.71 208.88M421.71 208.88L420.95 210.42M420.95 210.42L419.41 212.72M419.41 212.72L411.75 220.38M411.75 220.38L422.48 220.38"/>
</g>
</g>
</svg>
