<?xml version="1.0" standalone="no"?><svg xmlns="http://www.w3.org/2000/svg" width="600.000" height="450.000" viewBox="0.0 0.0 600.000 450.000" version="1.1">
<title>Acme Converter - Post-processed with EDS-Designer: 14.44 (info@symca.com)</title>
<desc>Acme Converter - Post-processed with EDS-Designer: 14.44 (info@symca.com)</desc>
<g id="EDS_STYLE_GROUP" fill="none" stroke="black" stroke-width="1.0">
<g id="0" display="visible">
<path d="M246.15 378.34L246.15 352.53M247.38 352.53L247.38 378.34M242.47 352.53L257.21 352.53M257.21 352.53L260.9 353.76M260.9 353.76L262.13 354.99M262.13 354.99L263.36 357.45M263.36 357.45L263.36 359.91M263.36 359.91L262.13 362.36M262.13 362.36L260.9 363.59M260.9 363.59L257.21 364.82M257.21 352.53L259.67 353.76M259.67 353.76L260.9 354.99M260.9 354.99L262.13 357.45M262.13 357.45L262.13 359.91M262.13 359.91L260.9 362.36M260.9 362.36L259.67 363.59M259.67 363.59L257.21 364.82M247.38 364.82L257.21 364.82M257.21 364.82L260.9 366.05M260.9 366.05L262.13 367.28M262.13 367.28L263.36 369.74M263.36 369.74L263.36 373.42M263.36 373.42L262.13 375.88M262.13 375.88L260.9 377.11M260.9 377.11L257.21 378.34M257.21 378.34L242.47 378.34M257.21 364.82L259.67 366.05M259.67 366.05L260.9 367.28M260.9 367.28L262.13 369.74M262.13 369.74L262.13 373.42M262.13 373.42L260.9 375.88M260.9 375.88L259.67 377.11M259.67 377.11L257.21 378.34M273.19 378.34L273.19 352.53M274.41 352.53L274.41 378.34M269.5 352.53L278.1 352.53M269.5 378.34L287.93 378.34M287.93 378.34L287.93 370.96M287.93 370.96L286.7 378.34M302.67 352.53L294.07 378.34M302.67 352.53L311.28 378.34M302.67 356.22L310.05 378.34M296.53 370.96L307.59 370.96M291.62 378.34L298.99 378.34M306.36 378.34L313.73 378.34M334.62 356.22L335.85 359.91M335.85 359.91L335.85 352.53M335.85 352.53L334.62 356.22M334.62 356.22L332.16 353.76M332.16 353.76L328.48 352.53M328.48 352.53L326.02 352.53M326.02 352.53L322.33 353.76M322.33 353.76L319.88 356.22M319.88 356.22L318.65 358.68M318.65 358.68L317.42 362.36M317.42 362.36L317.42 368.51M317.42 368.51L318.65 372.19M318.65 372.19L319.88 374.65M319.88 374.65L322.33 377.11M322.33 377.11L326.02 378.34M326.02 378.34L328.48 378.34M328.48 378.34L332.16 377.11M332.16 377.11L334.62 374.65M334.62 374.65L335.85 372.19M326.02 352.53L323.56 353.76M323.56 353.76L321.11 356.22M321.11 356.22L319.88 358.68M319.88 358.68L318.65 362.36M318.65 362.36L318.65 368.51M318.65 368.51L319.88 372.19M319.88 372.19L321.11 374.65M321.11 374.65L323.56 377.11M323.56 377.11L326.02 378.34M346.91 378.34L346.91 352.53M348.14 352.53L348.14 378.34M364.11 352.53L348.14 368.51M354.28 363.59L364.11 378.34M353.05 363.59L362.88 378.34M343.22 352.53L351.82 352.53M359.19 352.53L366.57 352.53M343.22 378.34L351.82 378.34M359.19 378.34L366.57 378.34"/>
<path d="M445.14 185.57L447.11 184.59M447.11 184.59L450.06 181.64M450.06 181.64L450.06 202.28"/>
<path d="M152.23 181.75L142.4 195.52M142.4 195.52L157.14 195.52M152.23 181.75L152.23 202.4"/>
<path d="M146.58 244.02L143.63 245M143.63 245L142.65 246.97M142.65 246.97L142.65 248.93M142.65 248.93L143.63 250.9M143.63 250.9L145.6 251.88M145.6 251.88L149.53 252.87M149.53 252.87L152.48 253.85M152.48 253.85L154.44 255.81M154.44 255.81L155.43 257.78M155.43 257.78L155.43 260.73M155.43 260.73L154.44 262.69M154.44 262.69L153.46 263.68M153.46 263.68L150.51 264.66M150.51 264.66L146.58 264.66M146.58 264.66L143.63 263.68M143.63 263.68L142.65 262.69M142.65 262.69L141.67 260.73M141.67 260.73L141.67 257.78M141.67 257.78L142.65 255.81M142.65 255.81L144.62 253.85M144.62 253.85L147.56 252.87M147.56 252.87L151.5 251.88M151.5 251.88L153.46 250.9M153.46 250.9L154.44 248.93M154.44 248.93L154.44 246.97M154.44 246.97L153.46 245M153.46 245L150.51 244.02M150.51 244.02L146.58 244.02"/>
<path d="M206.78 249.8L206.78 187.1"/>
<path d="M249.92 143.96L238.76 145.43M238.76 145.43L228.35 149.74M228.35 149.74L219.42 156.6M219.42 156.6L212.56 165.53M212.56 165.53L208.25 175.94M208.25 175.94L206.78 187.1"/>
<path d="M217.1 187.1L206.78 187.1"/>
<path d="M249.92 143.96L359.05 143.96"/>
<path d="M249.92 154.28L249.92 143.96"/>
<path d="M402.19 187.1L400.72 175.94M400.72 175.94L396.41 165.53M396.41 165.53L389.56 156.6M389.56 156.6L380.62 149.74M380.62 149.74L370.22 145.43M370.22 145.43L359.05 143.96"/>
<path d="M359.05 154.28L359.05 143.96"/>
<path d="M402.19 187.1L402.19 249.8"/>
<path d="M391.87 187.1L402.19 187.1"/>
<path d="M206.78 249.8L208.25 260.96M208.25 260.96L212.56 271.37M212.56 271.37L219.42 280.3M219.42 280.3L228.35 287.16M228.35 287.16L238.76 291.47M238.76 291.47L249.92 292.94"/>
<path d="M217.1 249.8L206.78 249.8"/>
<path d="M241.01 254.83L241.01 244"/>
<path d="M259.59 254.83L241.01 254.83"/>
<path d="M259.59 244L259.59 254.83"/>
<path d="M241.01 244L259.59 244"/>
<path d="M295.71 244L295.71 254.83"/>
<path d="M277.14 244L295.71 244"/>
<path d="M277.14 254.83L277.14 244"/>
<path d="M295.71 254.83L277.14 254.83"/>
<path d="M331.84 254.83L313.26 254.83"/>
<path d="M331.84 244L331.84 254.83"/>
<path d="M313.26 244L331.84 244"/>
<path d="M313.26 254.83L313.26 244"/>
<path d="M367.96 254.83L349.38 254.83"/>
<path d="M367.96 244L367.96 254.83"/>
<path d="M349.38 244L367.96 244"/>
<path d="M349.38 254.83L349.38 244"/>
<path d="M367.96 182.07L367.96 192.91"/>
<path d="M349.38 182.07L367.96 182.07"/>
<path d="M349.38 192.91L349.38 182.07"/>
<path d="M367.96 192.91L349.38 192.91"/>
<path d="M331.84 182.07L331.84 192.91"/>
<path d="M313.26 182.07L331.84 182.07"/>
<path d="M313.26 192.91L313.26 182.07"/>
<path d="M331.84 192.91L313.26 192.91"/>
<path d="M277.14 182.07L295.71 182.07"/>
<path d="M277.14 192.91L277.14 182.07"/>
<path d="M295.71 192.91L277.14 192.91"/>
<path d="M295.71 182.07L295.71 192.91"/>
<path d="M241.01 182.07L259.59 182.07"/>
<path d="M241.01 192.91L241.01 182.07"/>
<path d="M259.59 192.91L241.01 192.91"/>
<path d="M259.59 182.07L259.59 192.91"/>
<path d="M217.1 249.8L218.71 259.94M218.71 259.94L223.37 269.09M223.37 269.09L230.63 276.35M230.63 276.35L239.78 281.01M239.78 281.01L249.92 282.62"/>
<path d="M217.1 187.1L217.1 249.8"/>
<path d="M249.92 154.28L239.78 155.89M239.78 155.89L230.63 160.55M230.63 160.55L223.37 167.81M223.37 167.81L218.71 176.96M218.71 176.96L217.1 187.1"/>
<path d="M359.05 154.28L249.92 154.28"/>
<path d="M391.87 187.1L390.27 176.96M390.27 176.96L385.6 167.81M385.6 167.81L378.34 160.55M378.34 160.55L369.19 155.89M369.19 155.89L359.05 154.28"/>
<path d="M391.87 249.8L391.87 187.1"/>
<path d="M359.05 292.94L370.22 291.47M370.22 291.47L380.62 287.16M380.62 287.16L389.56 280.3M389.56 280.3L396.41 271.37M396.41 271.37L400.72 260.96M400.72 260.96L402.19 249.8"/>
<path d="M359.05 282.62L369.19 281.01M369.19 281.01L378.34 276.35M378.34 276.35L385.6 269.09M385.6 269.09L390.27 259.94M390.27 259.94L391.87 249.8"/>
<path d="M391.87 249.8L402.19 249.8"/>
<path d="M359.05 292.94L249.92 292.94"/>
<path d="M249.92 292.94L249.92 282.62"/>
<path d="M249.92 282.62L359.05 282.62"/>
<path d="M359.05 282.62L359.05 292.94"/>
<path d="M366.26 93.34L357.38 93.34"/>
<path d="M366.26 112.28L366.26 93.34"/>
<path d="M378.54 93.34L366.26 93.34"/>
<path d="M378.54 114.58L378.54 93.34"/>
<path d="M387.6 117.68L383.81 113.75M383.81 113.75L378.54 112.3"/>
<path d="M230.43 114.62L230.43 93.34"/>
<path d="M230.43 112.3L225.13 113.77M225.13 113.77L221.34 117.75"/>
<path d="M242.72 112.3L242.72 93.34"/>
<path d="M251.59 93.34L242.72 93.34"/>
<path d="M242.72 93.34L230.43 93.34"/>
<path d="M367.96 254.83L367.96 244"/>
<path d="M349.38 254.83L367.96 254.83"/>
<path d="M331.84 254.83L331.84 244"/>
<path d="M313.26 254.83L331.84 254.83"/>
<path d="M295.71 254.83L295.71 244"/>
<path d="M277.14 254.83L295.71 254.83"/>
<path d="M259.59 254.83L259.59 244"/>
<path d="M241.01 254.83L259.59 254.83"/>
<path d="M259.59 192.91L259.59 182.07"/>
<path d="M241.01 192.91L259.59 192.91"/>
<path d="M277.14 192.91L295.71 192.91"/>
<path d="M295.71 192.91L295.71 182.07"/>
<path d="M331.84 192.91L331.84 182.07"/>
<path d="M313.26 192.91L331.84 192.91"/>
<path d="M367.96 192.91L367.96 182.07"/>
<path d="M349.38 192.91L367.96 192.91"/>
<path d="M183.55 139.27L201.09 149.4"/>
<path d="M175.23 153.68L183.55 139.27"/>
<path d="M192.78 163.81L175.23 153.68"/>
<path d="M192.78 163.81L190.2 171.63M190.2 171.63L188.68 179.72"/>
<path d="M188.68 179.72L186.66 205.52M186.66 205.52L186.66 231.39M186.66 231.39L188.68 257.18"/>
<path d="M188.68 257.18L191.93 270.86M191.93 270.86L198.2 283.44M198.2 283.44L207.18 294.27M207.18 294.27L218.38 302.76M218.38 302.76L231.23 308.48M231.23 308.48L245.04 311.12"/>
<path d="M245.04 311.12L284.66 313.07M284.66 313.07L324.32 313.07M324.32 313.07L363.93 311.12"/>
<path d="M363.93 311.12L377.74 308.48M377.74 308.48L390.59 302.76M390.59 302.76L401.8 294.27M401.8 294.27L410.77 283.44M410.77 283.44L417.05 270.86M417.05 270.86L420.29 257.18"/>
<path d="M420.3 257.14L422.32 231.37M422.32 231.37L422.32 205.53M422.32 205.53L420.3 179.76"/>
<path d="M420.29 179.72L418.78 171.63M418.78 171.63L416.19 163.81"/>
<path d="M433.74 153.68L416.19 163.81"/>
<path d="M425.4 139.18L433.74 153.68"/>
<path d="M407.83 149.33L425.4 139.18"/>
<path d="M407.83 149.33L398.97 140.09M398.97 140.09L388.38 132.89M388.38 132.89L376.53 128.06M376.53 128.06L363.93 125.78"/>
<path d="M363.93 125.78L344.48 124.58"/>
<path d="M344.48 84.56L344.48 124.58"/>
<path d="M264.49 84.56L344.48 84.56"/>
<path d="M264.49 124.58L264.49 84.56"/>
<path d="M264.49 124.58L245.04 125.78"/>
<path d="M357.38 89.72L357.38 111.88"/>
<path d="M411.78 133.64L400.07 124.25M400.07 124.25L386.75 117.34M386.75 117.34L372.34 113.16M372.34 113.16L357.38 111.88"/>
<path d="M411.78 133.64L422.26 127.59"/>
<path d="M436.36 131.37L432.58 127.59M432.58 127.59L427.42 126.21M427.42 126.21L422.26 127.59"/>
<path d="M436.36 131.37L446.01 148.09"/>
<path d="M442.23 162.18L446.01 158.41M446.01 158.41L447.39 153.25M447.39 153.25L446.01 148.09"/>
<path d="M442.23 162.18L431.75 168.24"/>
<path d="M433.56 259.22L435.87 228.88M435.87 228.88L435.26 198.46M435.26 198.46L431.75 168.24"/>
<path d="M364.92 324.5L381.68 321.31M381.68 321.31L397.28 314.39M397.28 314.39L410.91 304.12M410.91 304.12L421.84 291.03M421.84 291.03L429.53 275.8M429.53 275.8L433.56 259.22"/>
<path d="M244.05 324.5L284.33 326.48M284.33 326.48L324.65 326.48M324.65 326.48L364.92 324.5"/>
<path d="M175.4 259.06L179.4 275.67M179.4 275.67L187.07 290.94M187.07 290.94L198.01 304.07M198.01 304.07L211.65 314.37M211.65 314.37L227.27 321.3M227.27 321.3L244.05 324.5"/>
<path d="M177.22 168.23L173.74 198.41M173.74 198.41L173.13 228.77M173.13 228.77L175.4 259.06"/>
<path d="M177.22 168.23L166.74 162.18"/>
<path d="M162.97 148.09L161.58 153.25M161.58 153.25L162.97 158.41M162.97 158.41L166.74 162.18"/>
<path d="M162.97 148.09L172.62 131.37"/>
<path d="M186.62 127.54L181.48 126.21M181.48 126.21L176.36 127.61M176.36 127.61L172.62 131.37"/>
<path d="M186.62 127.54L197.19 133.64"/>
<path d="M251.59 111.88L236.65 113.19M236.65 113.19L222.24 117.38M222.24 117.38L208.92 124.28M208.92 124.28L197.19 133.64"/>
<path d="M251.59 111.88L251.59 89.72"/>
<path d="M269.65 71.66L262.74 73.04M262.74 73.04L256.88 76.95M256.88 76.95L252.97 82.81M252.97 82.81L251.59 89.72"/>
<path d="M269.65 71.66L339.32 71.66"/>
<path d="M357.38 89.72L356.01 82.81M356.01 82.81L352.09 76.95M352.09 76.95L346.23 73.04M346.23 73.04L339.32 71.66"/>
<path d="M245.04 125.78L232.42 128.06M232.42 128.06L220.55 132.92M220.55 132.92L209.95 140.13M209.95 140.13L201.09 149.4"/>
<path d="M456.37 242.23L446.54 242.23M446.54 242.23L445.56 251.08M445.56 251.08L446.54 250.09M446.54 250.09L449.49 249.11M449.49 249.11L452.44 249.11M452.44 249.11L455.38 250.09M455.38 250.09L457.35 252.06M457.35 252.06L458.33 255.01M458.33 255.01L458.33 256.97M458.33 256.97L457.35 259.92M457.35 259.92L455.38 261.89M455.38 261.89L452.44 262.87M452.44 262.87L449.49 262.87M449.49 262.87L446.54 261.89M446.54 261.89L445.56 260.91M445.56 260.91L444.57 258.94"/>
</g>
</g>
</svg>
