<?xml version="1.0" standalone="no"?><svg xmlns="http://www.w3.org/2000/svg" width="600.000" height="450.000" viewBox="0.0 0.0 600.000 450.000" version="1.1">
<title>Acme Converter - Post-processed with EDS-Designer: 14.44 (info@symca.com)</title>
<desc>Acme Converter - Post-processed with EDS-Designer: 14.44 (info@symca.com)</desc>
<g id="EDS_STYLE_GROUP" fill="none" stroke="black" stroke-width="1.0">
<g id="0" display="visible">
<path d="M168.59 364.43L169.8 368.03M169.8 368.03L169.8 360.82M169.8 360.82L168.59 364.43M168.59 364.43L166.19 362.02M166.19 362.02L162.58 360.82M162.58 360.82L160.18 360.82M160.18 360.82L156.57 362.02M156.57 362.02L154.17 364.43M154.17 364.43L152.97 366.83M152.97 366.83L151.76 370.44M151.76 370.44L151.76 376.45M151.76 376.45L152.97 380.05M152.97 380.05L154.17 382.46M154.17 382.46L156.57 384.86M156.57 384.86L160.18 386.06M160.18 386.06L162.58 386.06M162.58 386.06L166.19 384.86M166.19 384.86L168.59 382.46M168.59 382.46L169.8 380.05M160.18 360.82L157.78 362.02M157.78 362.02L155.37 364.43M155.37 364.43L154.17 366.83M154.17 366.83L152.97 370.44M152.97 370.44L152.97 376.45M152.97 376.45L154.17 380.05M154.17 380.05L155.37 382.46M155.37 382.46L157.78 384.86M157.78 384.86L160.18 386.06M180.62 360.82L180.62 378.85M180.62 378.85L181.82 382.46M181.82 382.46L184.22 384.86M184.22 384.86L187.83 386.06M187.83 386.06L190.23 386.06M190.23 386.06L193.84 384.86M193.84 384.86L196.24 382.46M196.24 382.46L197.45 378.85M197.45 378.85L197.45 360.82M181.82 360.82L181.82 378.85M181.82 378.85L183.02 382.46M183.02 382.46L185.42 384.86M185.42 384.86L187.83 386.06M177.01 360.82L185.42 360.82M193.84 360.82L201.05 360.82M209.47 386.06L209.47 360.82M210.67 360.82L210.67 386.06M205.86 360.82L220.29 360.82M220.29 360.82L223.89 362.02M223.89 362.02L225.1 363.22M225.1 363.22L226.3 365.63M226.3 365.63L226.3 368.03M226.3 368.03L225.1 370.44M225.1 370.44L223.89 371.64M223.89 371.64L220.29 372.84M220.29 372.84L210.67 372.84M220.29 360.82L222.69 362.02M222.69 362.02L223.89 363.22M223.89 363.22L225.1 365.63M225.1 365.63L225.1 368.03M225.1 368.03L223.89 370.44M223.89 370.44L222.69 371.64M222.69 371.64L220.29 372.84M205.86 386.06L214.28 386.06M216.68 372.84L219.08 374.04M219.08 374.04L220.29 375.25M220.29 375.25L223.89 383.66M223.89 383.66L225.1 384.86M225.1 384.86L226.3 384.86M226.3 384.86L227.5 383.66M219.08 374.04L220.29 376.45M220.29 376.45L222.69 384.86M222.69 384.86L223.89 386.06M223.89 386.06L226.3 386.06M226.3 386.06L227.5 383.66M227.5 383.66L227.5 382.46M235.91 386.06L235.91 360.82M237.12 360.82L237.12 386.06M232.31 360.82L246.73 360.82M246.73 360.82L250.34 362.02M250.34 362.02L251.54 363.22M251.54 363.22L252.74 365.63M252.74 365.63L252.74 368.03M252.74 368.03L251.54 370.44M251.54 370.44L250.34 371.64M250.34 371.64L246.73 372.84M246.73 372.84L237.12 372.84M246.73 360.82L249.14 362.02M249.14 362.02L250.34 363.22M250.34 363.22L251.54 365.63M251.54 365.63L251.54 368.03M251.54 368.03L250.34 370.44M250.34 370.44L249.14 371.64M249.14 371.64L246.73 372.84M232.31 386.06L240.72 386.06M243.13 372.84L245.53 374.04M245.53 374.04L246.73 375.25M246.73 375.25L250.34 383.66M250.34 383.66L251.54 384.86M251.54 384.86L252.74 384.86M252.74 384.86L253.95 383.66M245.53 374.04L246.73 376.45M246.73 376.45L249.14 384.86M249.14 384.86L250.34 386.06M250.34 386.06L252.74 386.06M252.74 386.06L253.95 383.66M253.95 383.66L253.95 382.46M261.16 360.82L269.58 374.04M269.58 374.04L269.58 386.06M262.36 360.82L270.78 374.04M270.78 374.04L270.78 386.06M279.19 360.82L270.78 374.04M258.76 360.82L265.97 360.82M274.38 360.82L281.6 360.82M265.97 386.06L274.38 386.06M311.65 360.82L320.07 374.04M320.07 374.04L320.07 386.06M312.85 360.82L321.27 374.04M321.27 374.04L321.27 386.06M329.68 360.82L321.27 374.04M309.25 360.82L316.46 360.82M324.87 360.82L332.09 360.82M316.46 386.06L324.87 386.06M338.1 386.06L338.1 360.82M339.3 360.82L339.3 386.06M346.51 368.03L346.51 377.65M334.49 360.82L353.73 360.82M353.73 360.82L353.73 368.03M353.73 368.03L352.52 360.82M339.3 372.84L346.51 372.84M334.49 386.06L353.73 386.06M353.73 386.06L353.73 378.85M353.73 378.85L352.52 386.06M363.34 386.06L363.34 360.82M364.54 360.82L364.54 386.06M359.74 360.82L368.15 360.82M359.74 386.06L377.77 386.06M377.77 386.06L377.77 378.85M377.77 378.85L376.57 386.06M384.98 386.06L384.98 360.82M386.18 360.82L386.18 386.06M381.38 360.82L389.79 360.82M381.38 386.06L399.41 386.06M399.41 386.06L399.41 378.85M399.41 378.85L398.21 386.06M411.43 360.82L407.82 362.02M407.82 362.02L405.42 364.43M405.42 364.43L404.22 366.83M404.22 366.83L403.01 371.64M403.01 371.64L403.01 375.25M403.01 375.25L404.22 380.05M404.22 380.05L405.42 382.46M405.42 382.46L407.82 384.86M407.82 384.86L411.43 386.06M411.43 386.06L413.83 386.06M413.83 386.06L417.44 384.86M417.44 384.86L419.84 382.46M419.84 382.46L421.05 380.05M421.05 380.05L422.25 375.25M422.25 375.25L422.25 371.64M422.25 371.64L421.05 366.83M421.05 366.83L419.84 364.43M419.84 364.43L417.44 362.02M417.44 362.02L413.83 360.82M413.83 360.82L411.43 360.82M411.43 360.82L409.02 362.02M409.02 362.02L406.62 364.43M406.62 364.43L405.42 366.83M405.42 366.83L404.22 371.64M404.22 371.64L404.22 375.25M404.22 375.25L405.42 380.05M405.42 380.05L406.62 382.46M406.62 382.46L409.02 384.86M409.02 384.86L411.43 386.06M413.83 386.06L416.24 384.86M416.24 384.86L418.64 382.46M418.64 382.46L419.84 380.05M419.84 380.05L421.05 375.25M421.05 375.25L421.05 371.64M421.05 371.64L419.84 366.83M419.84 366.83L418.64 364.43M418.64 364.43L416.24 362.02M416.24 362.02L413.83 360.82M433.07 360.82L437.88 386.06M434.27 360.82L437.88 380.05M442.68 360.82L437.88 386.06M442.68 360.82L447.49 386.06M443.89 360.82L447.49 380.05M452.3 360.82L447.49 386.06M429.46 360.82L437.88 360.82M448.7 360.82L455.91 360.82"/>
<path d="M487.36 222.03L489.28 221.07M489.28 221.07L492.17 218.18M492.17 218.18L492.17 238.38"/>
<path d="M108.76 224.1L108.76 223.14M108.76 223.14L109.72 221.22M109.72 221.22L110.69 220.26M110.69 220.26L112.61 219.29M112.61 219.29L116.46 219.29M116.46 219.29L118.38 220.26M118.38 220.26L119.34 221.22M119.34 221.22L120.3 223.14M120.3 223.14L120.3 225.06M120.3 225.06L119.34 226.99M119.34 226.99L117.42 229.87M117.42 229.87L107.8 239.49M107.8 239.49L121.27 239.49"/>
<path d="M145.35 335.57L462.43 335.57"/>
<path d="M482.63 224.5L482.63 315.38"/>
<path d="M482.63 224.5L482.63 150.78"/>
<path d="M318.03 130.58L462.43 130.58"/>
<path d="M145.35 130.58L168.58 130.58"/>
<path d="M184.73 130.58L301.87 130.58"/>
<path d="M125.16 315.38L125.16 150.78"/>
<path d="M125.16 315.38L126.69 323.11M126.69 323.11L131.07 329.66M131.07 329.66L137.62 334.04M137.62 334.04L145.35 335.57"/>
<path d="M462.43 335.57L470.16 334.04M470.16 334.04L476.71 329.66M476.71 329.66L481.09 323.11M481.09 323.11L482.63 315.38"/>
<path d="M482.63 150.78L481.09 143.05M481.09 143.05L476.71 136.5M476.71 136.5L470.16 132.12M470.16 132.12L462.43 130.58"/>
<path d="M145.35 130.58L137.62 132.12M137.62 132.12L131.07 136.5M131.07 136.5L126.69 143.05M126.69 143.05L125.16 150.78"/>
<path d="M196.85 107.36L196.85 80.09"/>
<path d="M196.85 107.36L196.85 112.41"/>
<path d="M196.85 128.56L196.85 112.41"/>
<path d="M196.85 128.56L196.85 130.58"/>
<path d="M289.75 107.36L289.75 80.09"/>
<path d="M289.75 107.36L289.75 112.41"/>
<path d="M289.75 128.56L289.75 112.41"/>
<path d="M289.75 128.56L289.75 130.58"/>
<path d="M196.85 128.56L289.75 128.56"/>
<path d="M447.85 282.08L456.21 266.79M456.21 266.79L460.93 250.01M460.93 250.01L461.76 232.6M461.76 232.6L458.68 215.45M458.68 215.45L451.83 199.43M451.83 199.43L441.56 185.35M441.56 185.35L428.39 173.93M428.39 173.93L413 165.75M413 165.75L396.17 161.23M396.17 161.23L378.76 160.6M378.76 160.6L361.64 163.89"/>
<path d="M338.89 299.84L353.22 308.18M353.22 308.18L368.99 313.26M368.99 313.26L385.5 314.87M385.5 314.87L401.96 312.91M401.96 312.91L417.63 307.49M417.63 307.49L431.78 298.85"/>
<path d="M338.89 299.84L323.63 315.1"/>
<path d="M323.63 315.1L307.2 298.67"/>
<path d="M307.2 298.67L322.46 283.41"/>
<path d="M310.94 214.59L307.94 228.73M307.94 228.73L307.63 243.19M307.63 243.19L310.01 257.45M310.01 257.45L315.02 271.02M315.02 271.02L322.46 283.41"/>
<path d="M146.98 224.5L145.97 241.79M145.97 241.79L148.84 258.88M148.84 258.88L155.44 274.9M155.44 274.9L165.45 289.04M165.45 289.04L178.36 300.59M178.36 300.59L193.52 308.98M193.52 308.98L210.17 313.78M210.17 313.78L227.47 314.75M227.47 314.75L244.55 311.84M244.55 311.84L260.55 305.19M260.55 305.19L274.67 295.15M274.67 295.15L286.19 282.21M286.19 282.21L294.54 267.03M294.54 267.03L299.3 250.37M299.3 250.37L300.22 233.07M300.22 233.07L297.27 216M297.27 216L290.58 200.01M290.58 200.01L280.51 185.92M280.51 185.92L267.54 174.43"/>
<path d="M219.07 160.48L201.99 163.32M201.99 163.32L185.97 169.89M185.97 169.89L171.81 179.86M171.81 179.86L160.24 192.74M160.24 192.74L151.82 207.87M151.82 207.87L146.98 224.5"/>
<path d="M267.55 174.42L252.52 166.29M252.52 166.29L236.11 161.57M236.11 161.57L219.07 160.46"/>
<path d="M196.85 107.36L289.75 107.36"/>
<path d="M196.85 112.41L289.75 112.41"/>
<path d="M361.64 163.89L347.92 169.68M347.92 169.68L335.57 177.99M335.57 177.99L325.04 188.52M325.04 188.52L316.73 200.87M316.73 200.87L310.94 214.59"/>
<path d="M318.03 130.58L318.03 90.19"/>
<path d="M168.58 130.58L168.58 90.19"/>
<path d="M184.73 130.58L184.73 90.19"/>
<path d="M301.87 130.58L301.87 90.19"/>
<path d="M318.03 90.19L313.63 79.61M313.63 79.61L305.95 71.12M305.95 71.12L295.86 65.68M295.86 65.68L284.54 63.94"/>
<path d="M202.07 63.94L190.74 65.68M190.74 65.68L180.66 71.12M180.66 71.12L172.98 79.61M172.98 79.61L168.58 90.19"/>
<path d="M194.83 80.09L189.78 81.45M189.78 81.45L186.09 85.14M186.09 85.14L184.73 90.19"/>
<path d="M301.87 90.19L300.52 85.14M300.52 85.14L296.82 81.45M296.82 81.45L291.78 80.09"/>
<path d="M202.06 63.94L284.54 63.94"/>
<path d="M291.78 80.09L194.83 80.09"/>
<path d="M464.45 298.67L447.85 282.08"/>
<path d="M448.02 315.1L464.45 298.67"/>
<path d="M431.78 298.85L448.02 315.1"/>
</g>
</g>
</svg>
