<?xml version="1.0" standalone="no"?><svg xmlns="http://www.w3.org/2000/svg" width="600.000" height="450.000" viewBox="0.0 0.0 600.000 450.000" version="1.1">
<title>Acme Converter - Post-processed with EDS-Designer: 14.44 (info@symca.com)</title>
<desc>Acme Converter - Post-processed with EDS-Designer: 14.44 (info@symca.com)</desc>
<g id="EDS_STYLE_GROUP" fill="none" stroke="black" stroke-width="1.0">
<g id="0" display="visible">
<path d="M255.83 378.34L255.83 355.92M256.9 355.92L256.9 378.34M252.63 355.92L265.44 355.92M265.44 355.92L268.65 356.98M268.65 356.98L269.71 358.05M269.71 358.05L270.78 360.19M270.78 360.19L270.78 362.32M270.78 362.32L269.71 364.46M269.71 364.46L268.65 365.52M268.65 365.52L265.44 366.59M265.44 355.92L267.58 356.98M267.58 356.98L268.65 358.05M268.65 358.05L269.71 360.19M269.71 360.19L269.71 362.32M269.71 362.32L268.65 364.46M268.65 364.46L267.58 365.52M267.58 365.52L265.44 366.59M256.9 366.59L265.44 366.59M265.44 366.59L268.65 367.66M268.65 367.66L269.71 368.73M269.71 368.73L270.78 370.86M270.78 370.86L270.78 374.07M270.78 374.07L269.71 376.2M269.71 376.2L268.65 377.27M268.65 377.27L265.44 378.34M265.44 378.34L252.63 378.34M265.44 366.59L267.58 367.66M267.58 367.66L268.65 368.73M268.65 368.73L269.71 370.86M269.71 370.86L269.71 374.07M269.71 374.07L268.65 376.2M268.65 376.2L267.58 377.27M267.58 377.27L265.44 378.34M279.32 378.34L279.32 355.92M280.39 355.92L280.39 378.34M276.12 355.92L283.59 355.92M276.12 378.34L292.14 378.34M292.14 378.34L292.14 371.93M292.14 371.93L291.07 378.34M304.95 355.92L297.47 378.34M304.95 355.92L312.42 378.34M304.95 359.12L311.35 378.34M299.61 371.93L309.22 371.93M295.34 378.34L301.74 378.34M308.15 378.34L314.56 378.34M332.71 359.12L333.77 362.32M333.77 362.32L333.77 355.92M333.77 355.92L332.71 359.12M332.71 359.12L330.57 356.98M330.57 356.98L327.37 355.92M327.37 355.92L325.23 355.92M325.23 355.92L322.03 356.98M322.03 356.98L319.9 359.12M319.9 359.12L318.83 361.25M318.83 361.25L317.76 364.46M317.76 364.46L317.76 369.8M317.76 369.8L318.83 373M318.83 373L319.9 375.13M319.9 375.13L322.03 377.27M322.03 377.27L325.23 378.34M325.23 378.34L327.37 378.34M327.37 378.34L330.57 377.27M330.57 377.27L332.71 375.13M332.71 375.13L333.77 373M325.23 355.92L323.1 356.98M323.1 356.98L320.96 359.12M320.96 359.12L319.9 361.25M319.9 361.25L318.83 364.46M318.83 364.46L318.83 369.8M318.83 369.8L319.9 373M319.9 373L320.96 375.13M320.96 375.13L323.1 377.27M323.1 377.27L325.23 378.34M343.38 378.34L343.38 355.92M344.45 355.92L344.45 378.34M358.33 355.92L344.45 369.8M349.79 365.52L358.33 378.34M348.72 365.52L357.26 378.34M340.18 355.92L347.65 355.92M354.06 355.92L360.47 355.92M340.18 378.34L347.65 378.34M354.06 378.34L360.47 378.34"/>
<path d="M495.9 221.02L497.61 220.17M497.61 220.17L500.17 217.61M500.17 217.61L500.17 235.54"/>
<path d="M110.05 223.02L109.2 221.32M109.2 221.32L106.64 220.46M106.64 220.46L104.93 220.46M104.93 220.46L102.36 221.32M102.36 221.32L100.66 223.88M100.66 223.88L99.8 228.15M99.8 228.15L99.8 232.42M99.8 232.42L100.66 235.84M100.66 235.84L102.36 237.55M102.36 237.55L104.93 238.4M104.93 238.4L105.78 238.4M105.78 238.4L108.34 237.55M108.34 237.55L110.05 235.84M110.05 235.84L110.91 233.27M110.91 233.27L110.91 232.42M110.91 232.42L110.05 229.86M110.05 229.86L108.34 228.15M108.34 228.15L105.78 227.3M105.78 227.3L104.93 227.3M104.93 227.3L102.36 228.15M102.36 228.15L100.66 229.86M100.66 229.86L99.8 232.42"/>
</g>
<g id="P" display="visible">
<path d="M328.97 150.14L328.97 150.39M328.97 150.39L328.97 151.38M328.97 151.38L328.97 153.13M328.97 153.13L328.97 156.37M328.97 156.37L328.97 160.6"/>
<path d="M284.12 160.6L284.12 156.37M284.12 156.37L284.12 153.13M284.12 153.13L284.12 151.38M284.12 151.38L284.12 150.39M284.12 150.39L284.12 150.14"/>
<path d="M222.59 149.64L222.59 149.39"/>
<path d="M253.23 169.07L251.99 169.07M251.99 169.07L250.74 169.07M250.74 169.07L249.99 169.07M249.99 169.07L249.75 169.07"/>
<path d="M363.35 171.81L363.35 170.57M363.35 170.57L363.35 169.57M363.35 169.57L363.35 169.07"/>
<path d="M363.35 169.07L363.1 169.07M363.1 169.07L362.1 169.07M362.1 169.07L361.1 169.07M361.1 169.07L359.86 169.07"/>
<path d="M359.11 169.07L357.87 169.07M357.87 169.07L356.87 169.07M356.87 169.07L355.87 169.07M355.87 169.07L355.62 169.07"/>
<path d="M355.62 169.07L355.62 169.57M355.62 169.57L355.62 170.57M355.62 170.57L355.62 171.81"/>
<path d="M355.62 155.12L355.62 158.61M355.62 158.61L355.62 162.1M355.62 162.1L355.62 165.09M355.62 165.09L355.62 167.33M355.62 167.33L355.62 168.57M355.62 168.57L355.62 169.07"/>
<path d="M391.75 149.64L391.5 149.39M391.5 149.39L391.25 149.39M391.25 149.39L391 148.89M391 148.89L390.75 148.64"/>
<path d="M327.47 126.97L327.47 124.73M327.47 124.73L327.47 122.98M327.47 122.98L327.47 121.74M327.47 121.74L327.47 121.24"/>
<path d="M355.62 141.67L355.62 141.92M355.62 141.92L355.62 142.91M355.62 142.91L355.62 144.66M355.62 144.66L355.62 148.14M355.62 148.14L355.62 152.13"/>
<path d="M285.62 121.24L285.62 121.74M285.62 121.74L285.62 122.98M285.62 122.98L285.62 124.73M285.62 124.73L285.62 126.97"/>
<path d="M355.62 117.5L355.62 118M355.62 118L355.62 119.5M355.62 119.5L355.37 121.74M355.37 121.74L355.37 124.73M355.37 124.73L355.37 127.97M355.37 127.97L355.37 131.45"/>
<path d="M170.02 270.96L170.02 273.46M170.02 273.46L170.52 276.69M170.52 276.69L171.27 280.18M171.27 280.18L172.77 283.92M172.77 283.92L174.51 287.16M174.51 287.16L176.75 290.64M176.75 290.64L178.99 293.14M178.99 293.14L182.98 296.62M182.98 296.62L187.46 299.12M187.46 299.12L192.2 301.11M192.2 301.11L196.93 302.1M196.93 302.1L201.41 302.35"/>
<path d="M262.2 332.5L261.7 332.5M261.7 332.5L260.21 332.5M260.21 332.5L257.97 332.5M257.97 332.5L255.23 332.5M255.23 332.5L250.74 332.5M250.74 332.5L245.51 332.5M245.51 332.5L240.03 332.5"/>
<path d="M292.59 302.35L269.92 302.35M269.92 302.35L247 302.35M247 302.35L224.33 302.35M224.33 302.35L201.41 302.35"/>
<path d="M275.16 316.8L270.92 316.8M270.92 316.8L267.18 316.8M267.18 316.8L265.44 316.8M265.44 316.8L264.19 316.8M264.19 316.8L263.95 316.8"/>
<path d="M263.95 332.5L264.19 332.5M264.19 332.5L265.44 332.5M265.44 332.5L267.18 332.75M267.18 332.75L270.92 332.75M270.92 332.75L275.16 332.75"/>
<path d="M240.03 317.05L245.51 317.05M245.51 317.05L250.74 317.05M250.74 317.05L255.23 317.05M255.23 317.05L257.97 317.05M257.97 317.05L260.21 316.8M260.21 316.8L261.7 316.8M261.7 316.8L262.2 316.8"/>
<path d="M177 270.96L177 267.48M177 267.48L177 263.74M177 263.74L177 260M177 260L177 256.51"/>
<path d="M170.02 270.96L170.02 267.48M170.02 267.48L170.02 263.74M170.02 263.74L170.02 260M170.02 260L170.02 256.51"/>
<path d="M443.07 197.47L442.82 194.73M442.82 194.73L442.57 192.74M442.57 192.74L442.07 191.24M442.07 191.24L441.57 189.75M441.57 189.75L440.58 187.51M440.58 187.51L439.08 185.02M439.08 185.02L436.84 182.52M436.84 182.52L432.85 179.29M432.85 179.29L428.12 177.29M428.12 177.29L426.62 176.79M426.62 176.79L424.63 176.54M424.63 176.54L421.89 176.3"/>
<path d="M421.89 176.3L419.4 176.3M419.4 176.3L416.66 176.3"/>
<path d="M443.07 197.47L443.07 200.96M443.07 200.96L443.07 204.7M443.07 204.7L443.07 208.18M443.07 208.18L443.07 211.67"/>
<path d="M190.95 176.3L188.46 176.54M188.46 176.54L186.22 176.79M186.22 176.79L184.72 177.29M184.72 177.29L180.24 179.29M180.24 179.29L176 182.52M176 182.52L174.51 184.27M174.51 184.27L172.52 187.01M172.52 187.01L170.77 191.24M170.77 191.24L170.52 192.74M170.52 192.74L170.02 194.73M170.02 194.73L170.02 197.47"/>
<path d="M249.75 169.07L249.75 169.57M249.75 169.57L249.75 170.57M249.75 170.57L249.75 171.81"/>
<path d="M257.47 169.07L257.22 169.07M257.22 169.07L256.47 169.07M256.47 169.07L255.23 169.07M255.23 169.07L253.98 169.07"/>
<path d="M257.47 171.81L257.47 170.57M257.47 170.57L257.47 169.57M257.47 169.57L257.47 169.07"/>
<path d="M257.47 169.07L257.47 168.57M257.47 168.57L257.47 167.33M257.47 167.33L257.47 165.09M257.47 165.09L257.47 162.1M257.47 162.1L257.47 158.61M257.47 158.61L257.47 155.12"/>
<path d="M267.43 126.97L267.43 124.73M267.43 124.73L267.43 122.98M267.43 122.98L267.43 121.74M267.43 121.74L267.43 121.24"/>
<path d="M190.95 183.27L191.45 183.27M191.45 183.27L192.2 183.27"/>
<path d="M190.95 176.3L197.43 176.3M197.43 176.3L204.15 176.3"/>
<path d="M257.47 152.13L257.47 148.14M257.47 148.14L257.47 144.66M257.47 144.66L257.47 142.91M257.47 142.91L257.47 141.92M257.47 141.92L257.47 141.67"/>
<path d="M257.47 131.45L257.47 127.97M257.47 127.97L257.47 124.73M257.47 124.73L257.47 121.74M257.47 121.74L257.47 119.5M257.47 119.5L257.47 118M257.47 118L257.47 117.5"/>
<path d="M177.5 256.51L177.5 257.26M177.5 257.26L177.5 257.76M177.5 257.76L177.5 258.01M177.5 258.01L177.5 258.26"/>
<path d="M177.5 209.93L177.5 210.18M177.5 210.18L177.5 210.43M177.5 210.43L177.5 210.92M177.5 210.92L177.5 211.42M177.5 211.42L177.5 211.67"/>
<path d="M173.51 255.52L173.51 256.02M173.51 256.02L173.51 256.51"/>
<path d="M173.51 251.78L173.51 252.53M173.51 252.53L173.51 253.28M173.51 253.28L173.51 254.52"/>
<path d="M173.51 213.91L173.51 214.91M173.51 214.91L173.51 215.91M173.51 215.91L173.51 216.41M173.51 216.41L173.51 216.65"/>
<path d="M173.51 211.67L173.51 212.17M173.51 212.17L173.51 212.92"/>
<path d="M141.62 267.48L141.62 267.23M141.62 267.23L141.62 266.98M141.62 266.98L141.38 265.48M141.38 265.48L141.38 263.74M141.38 263.74L140.88 261.25M140.88 261.25L140.88 258.51M140.88 258.51L140.63 256.51M140.63 256.51L140.63 255.02"/>
<path d="M177 211.67L177 208.18M177 208.18L177 204.7M177 204.7L177 200.96M177 200.96L177 197.22"/>
<path d="M170.02 211.67L170.02 208.18M170.02 208.18L170.02 204.7M170.02 204.7L170.02 200.96M170.02 200.96L170.02 197.47"/>
<path d="M472.96 254.27L472.96 254.52M472.96 254.52L472.96 255.02"/>
<path d="M472.96 255.02L472.96 256.51M472.96 256.51L472.96 258.51M472.96 258.51L472.71 261.25M472.71 261.25L472.46 263.74M472.46 263.74L472.21 265.73M472.21 265.73L471.97 266.98M471.97 266.98L471.97 267.23M471.97 267.23L471.97 267.48"/>
<path d="M345.66 121.24L345.66 121.74M345.66 121.74L345.66 121.99M345.66 121.99L345.66 122.98M345.66 122.98L345.66 123.98M345.66 123.98L345.66 125.47M345.66 125.47L345.66 126.22M345.66 126.22L345.66 126.97"/>
<path d="M373.06 332.5L367.33 332.5M367.33 332.5L362.1 332.5M362.1 332.5L357.37 332.5M357.37 332.5L354.63 332.5M354.63 332.5L352.63 332.5M352.63 332.5L351.14 332.5M351.14 332.5L350.64 332.5"/>
<path d="M337.69 332.75L341.92 332.75M341.92 332.75L345.41 332.75M345.41 332.75L347.15 332.5M347.15 332.5L348.4 332.5M348.4 332.5L348.9 332.5"/>
<path d="M394.74 333.49L350.89 333.49M350.89 333.49L306.79 333.49M306.79 333.49L262.95 333.49M262.95 333.49L219.1 333.49"/>
<path d="M411.43 302.35L415.91 302.1M415.91 302.1L420.89 301.11M420.89 301.11L425.63 299.12M425.63 299.12L429.86 296.62M429.86 296.62L433.85 293.14M433.85 293.14L436.59 289.9M436.59 289.9L438.33 287.16M438.33 287.16L440.33 283.92M440.33 283.92L441.57 280.18M441.57 280.18L442.57 275.45M442.57 275.45L443.07 270.96"/>
<path d="M348.9 316.8L348.4 316.8M348.4 316.8L347.15 316.8M347.15 316.8L345.41 316.8M345.41 316.8L341.92 316.8M341.92 316.8L337.69 316.8"/>
<path d="M443.07 256.51L443.07 260M443.07 260L443.07 263.74M443.07 263.74L443.07 267.48M443.07 267.48L443.07 270.96"/>
<path d="M411.43 302.35L388.76 302.35M388.76 302.35L366.34 302.35M366.34 302.35L343.42 302.35M343.42 302.35L321 302.35"/>
<path d="M350.64 316.8L351.14 316.8M351.14 316.8L352.63 316.8M352.63 316.8L354.63 317.05M354.63 317.05L357.37 317.05M357.37 317.05L362.1 317.05M362.1 317.05L367.33 317.05M367.33 317.05L373.06 317.05"/>
<path d="M140.88 254.02L141.13 260.75M141.13 260.75L142.12 267.48M142.12 267.48L143.62 274.2M143.62 274.2L145.61 280.93M145.61 280.93L148.35 287.66M148.35 287.66L152.09 294.38M152.09 294.38L156.57 301.11M156.57 301.11L162.3 307.83M162.3 307.83L169.03 314.06M169.03 314.06L175.75 319.05M175.75 319.05L182.48 323.03M182.48 323.03L189.21 326.27M189.21 326.27L195.93 328.76M195.93 328.76L202.66 330.5M202.66 330.5L209.39 331.75M209.39 331.75L216.11 332.25M216.11 332.25L219.1 332.25"/>
<path d="M380.79 92.34L378.29 90.6M378.29 90.6L375.55 89.6M375.55 89.6L372.81 89.1M372.81 89.1L372.56 89.1"/>
<path d="M401.96 99.56L401.71 95.58M401.71 95.58L400.72 91.59M400.72 91.59L399.22 87.61M399.22 87.61L396.98 83.62M396.98 83.62L393.49 79.39M393.49 79.39L391 77.39"/>
<path d="M400.96 101.56L400.72 97.57M400.72 97.57L399.72 93.59M399.72 93.59L398.22 89.6M398.22 89.6L395.73 85.36M395.73 85.36L392.49 81.38M392.49 81.38L388.26 78.39M388.26 78.39L384.27 76.15M384.27 76.15L380.29 74.65M380.29 74.65L376.3 73.9M376.3 73.9L373.06 73.66"/>
<path d="M222.59 149.39L225.58 145.65M225.58 145.65L227.32 142.17M227.32 142.17L228.32 138.43M228.32 138.43L229.07 134.94M229.07 134.94L229.07 133.7"/>
<path d="M284.12 163.34L284.37 165.09M284.37 165.09L285.37 166.83M285.37 166.83L287.11 168.32M287.11 168.32L288.86 168.82M288.86 168.82L289.61 168.82"/>
<path d="M323.49 168.82L325.23 168.57M325.23 168.57L326.97 167.58M326.97 167.58L328.47 165.83M328.47 165.83L328.97 164.09M328.97 164.09L328.97 163.34"/>
<path d="M374.31 123.23L374.56 124.48M374.56 124.48L375.55 125.72M375.55 125.72L376.8 126.47M376.8 126.47L377.8 126.47"/>
<path d="M377.8 111.52L376.3 111.52M376.3 111.52L375.06 112.77M375.06 112.77L374.31 114.01M374.31 114.01L374.31 115.01"/>
<path d="M241.52 89.1L238.78 89.6M238.78 89.6L236.29 90.35M236.29 90.35L233.55 92.09M233.55 92.09L231.06 94.83M231.06 94.83L229.81 97.32M229.81 97.32L229.07 100.06M229.07 100.06L229.07 101.81"/>
<path d="M380.54 91.84L377.8 89.85M377.8 89.85L375.3 88.6M375.3 88.6L372.56 88.11M372.56 88.11L371.57 88.11"/>
<path d="M391 77.39L387.01 74.9M387.01 74.9L383.03 73.16M383.03 73.16L379.04 72.16M379.04 72.16L374.81 71.66M374.81 71.66L374.06 71.66"/>
<path d="M391 77.39L387.01 74.9M387.01 74.9L383.03 73.16M383.03 73.16L379.04 72.16M379.04 72.16L374.81 71.66M374.81 71.66L374.06 71.66"/>
<path d="M176.75 270.71L177.25 274.45M177.25 274.45L178 278.19M178 278.19L179.49 281.93M179.49 281.93L181.98 285.66M181.98 285.66L185.47 289.4M185.47 289.4L189.21 292.14M189.21 292.14L192.94 293.88M192.94 293.88L195.68 294.63"/>
<path d="M141.62 267.48L143.12 274.2M143.12 274.2L145.11 280.93M145.11 280.93L147.85 287.66M147.85 287.66L151.34 294.38M151.34 294.38L155.82 301.11M155.82 301.11L161.31 307.83M161.31 307.83L167.78 314.06M167.78 314.06L174.51 319.29M174.51 319.29L181.24 323.53M181.24 323.53L187.96 326.77M187.96 326.77L194.69 329.51M194.69 329.51L201.41 331.25M201.41 331.25L208.14 332.5M208.14 332.5L214.87 333.25M214.87 333.25L219.1 333.25"/>
<path d="M158.56 259.5L158.81 265.23M158.81 265.23L159.56 270.96M159.56 270.96L161.06 276.69M161.06 276.69L163.3 282.42M163.3 282.42L166.29 287.9M166.29 287.9L170.02 293.63M170.02 293.63L175.01 299.36M175.01 299.36L180.74 304.35M180.74 304.35L186.47 308.08M186.47 308.08L192.2 311.07M192.2 311.07L197.68 313.32M197.68 313.32L203.41 314.81M203.41 314.81L209.14 315.56M209.14 315.56L214.87 315.81"/>
<path d="M157.57 259.5L157.82 265.48M157.82 265.48L158.81 271.21M158.81 271.21L160.31 277.19M160.31 277.19L162.55 282.92M162.55 282.92L165.54 288.65M165.54 288.65L169.53 294.63M169.53 294.63L174.76 300.36M174.76 300.36L180.49 305.59M180.49 305.59L186.47 309.33M186.47 309.33L192.2 312.32M192.2 312.32L198.18 314.31M198.18 314.31L203.91 315.81M203.91 315.81L209.64 316.55M209.64 316.55L214.87 316.8"/>
<path d="M177.5 269.97L178 273.7M178 273.7L178.74 277.44M178.74 277.44L180.24 281.18M180.24 281.18L182.73 284.91M182.73 284.91L186.22 288.65M186.22 288.65L189.95 291.39M189.95 291.39L193.19 292.89"/>
<path d="M122.44 253.28L122.69 256.27M122.69 256.27L123.69 259.01M123.69 259.01L125.43 261.75M125.43 261.75L128.17 264.49M128.17 264.49L130.91 266.23M130.91 266.23L133.9 266.98M133.9 266.98L136.39 267.48"/>
<path d="M385.02 228.36L384.52 229.36"/>
<path d="M385.02 227.86L385.02 228.36"/>
<path d="M387.26 224.13L386.27 225.37"/>
<path d="M384.27 132.95L384.52 136.44M384.52 136.44L385.27 139.92M385.27 139.92L387.01 143.66M387.01 143.66L389.5 147.15M389.5 147.15L390.75 148.64"/>
<path d="M405.95 228.36L405.7 227.86"/>
<path d="M406.2 229.36L405.95 228.36"/>
<path d="M404.45 225.37L403.46 224.13"/>
<path d="M402.21 233.84L402.71 231.85M402.71 231.85L402.71 231.1"/>
<path d="M402.71 231.1L402.46 229.36M402.46 229.36L401.71 227.37M401.71 227.37L399.97 225.37M399.97 225.37L397.98 224.38M397.98 224.38L395.98 223.88M395.98 223.88L393.99 224.13M393.99 224.13L392 224.63M392 224.63L390.25 226.12M390.25 226.12L388.76 228.11M388.76 228.11L388.26 230.11M388.26 230.11L388.01 231.85M388.01 231.85L388.51 233.84"/>
<path d="M403.46 224.13L401.21 222.14M401.21 222.14L398.72 220.89M398.72 220.89L396.48 220.39M396.48 220.39L395.48 220.39"/>
<path d="M395.48 220.39L392.74 220.64M392.74 220.64L390.25 221.64M390.25 221.64L387.76 223.38M387.76 223.38L387.26 224.13"/>
<path d="M384.27 100.81L383.77 98.07M383.77 98.07L383.03 95.33M383.03 95.33L381.28 92.59M381.28 92.59L380.54 91.84"/>
<path d="M401.96 124.48L402.21 127.22M402.21 127.22L403.21 130.21M403.21 130.21L404.95 132.95M404.95 132.95L407.69 135.69M407.69 135.69L410.43 137.43M410.43 137.43L413.42 138.18M413.42 138.18L415.91 138.43"/>
<path d="M380.79 111.27L382.03 111.27M382.03 111.27L383.53 110.03M383.53 110.03L384.27 108.78M384.27 108.78L384.27 107.79"/>
<path d="M391.75 149.64L395.23 152.38M395.23 152.38L398.72 154.37M398.72 154.37L402.46 155.62M402.46 155.62L405.95 156.12M405.95 156.12L407.44 156.12"/>
<path d="M390.75 148.64L394.24 151.63M394.24 151.63L397.98 153.38M397.98 153.38L401.46 154.62M401.46 154.62L405.2 155.12M405.2 155.12L406.69 155.37"/>
<path d="M440.82 163.09L438.58 160.35M438.58 160.35L435.84 158.11M435.84 158.11L432.85 156.86M432.85 156.86L430.11 156.37M430.11 156.37L428.62 156.12"/>
<path d="M441.32 162.1L439.08 159.36M439.08 159.36L436.34 157.11M436.34 157.11L433.6 155.87M433.6 155.87L430.61 155.37M430.61 155.37L429.37 155.12"/>
<path d="M455.27 152.38L452.28 148.14M452.28 148.14L448.55 144.41M448.55 144.41L444.31 141.92M444.31 141.92L440.33 139.92M440.33 139.92L436.34 138.93M436.34 138.93L432.35 138.43M432.35 138.43L430.86 138.43"/>
<path d="M458.76 220.64L457.27 221.14M457.27 221.14L455.77 221.89M455.77 221.89L454.78 223.38M454.78 223.38L454.53 224.88"/>
<path d="M454.53 193.98L454.78 195.48M454.78 195.48L455.77 196.97M455.77 196.97L457.27 197.97M457.27 197.97L458.76 198.22"/>
<path d="M239.28 71.66L235.05 71.91M235.05 71.91L231.06 72.91M231.06 72.91L227.07 74.4M227.07 74.4L223.09 76.89M223.09 76.89L219.1 80.13M219.1 80.13L215.86 84.37M215.86 84.37L213.62 88.35M213.62 88.35L212.13 92.34M212.13 92.34L211.88 92.84"/>
<path d="M240.28 73.66L236.29 73.9M236.29 73.9L232.06 74.9M232.06 74.9L228.07 76.4M228.07 76.4L224.09 78.64M224.09 78.64L220.1 82.13M220.1 82.13L216.86 86.11M216.86 86.11L214.62 90.35M214.62 90.35L213.12 94.33M213.12 94.33L212.38 98.32M212.38 98.32L212.38 101.56"/>
<path d="M206.65 155.37L210.13 154.87M210.13 154.87L213.87 154.12M213.87 154.12L217.36 152.38M217.36 152.38L220.85 150.14M220.85 150.14L224.33 146.65M224.33 146.65L226.58 142.91M226.58 142.91L228.07 139.43M228.07 139.43L228.82 135.94M228.82 135.94L229.07 132.95"/>
<path d="M197.18 138.43L199.92 138.18M199.92 138.18L202.91 137.43M202.91 137.43L205.65 135.44M205.65 135.44L208.39 132.95M208.39 132.95L210.13 129.96M210.13 129.96L210.88 127.22M210.88 127.22L211.13 124.48"/>
<path d="M198.18 138.43L201.17 138.18M201.17 138.18L203.91 137.43M203.91 137.43L206.65 135.44M206.65 135.44L209.39 132.95M209.39 132.95L211.13 129.96M211.13 129.96L211.88 127.22M211.88 127.22L212.38 124.48"/>
<path d="M235.54 126.47L236.79 126.47M236.79 126.47L238.04 125.47M238.04 125.47L238.78 123.98M238.78 123.98L238.78 123.23"/>
<path d="M206.65 156.12L210.13 155.87M210.13 155.87L213.87 154.87M213.87 154.87L217.36 153.38M217.36 153.38L220.85 150.88M220.85 150.88L222.59 149.39"/>
<path d="M257.47 99.07L254.73 99.32M254.73 99.32L251.99 100.31M251.99 100.31L249 102.06M249 102.06L246.26 104.8M246.26 104.8L244.76 107.54M244.76 107.54L243.77 110.53M243.77 110.53L243.52 113.02"/>
<path d="M264.19 106.29L262.45 106.54M262.45 106.54L260.46 107.54M260.46 107.54L258.71 109.28M258.71 109.28L257.47 111.27M257.47 111.27L257.22 113.02M257.22 113.02L257.22 113.27"/>
<path d="M264.19 106.04L262.2 106.29M262.2 106.29L260.21 107.29M260.21 107.29L258.46 109.03M258.46 109.03L257.47 111.02M257.47 111.02L257.22 113.02"/>
<path d="M211.88 92.84L211.38 97.07M211.38 97.07L211.13 99.56"/>
<path d="M212.13 92.34L211.88 92.84"/>
<path d="M229.07 107.79L229.07 109.28M229.07 109.28L230.31 110.53M230.31 110.53L231.56 111.27M231.56 111.27L232.56 111.27"/>
<path d="M241.52 88.11L238.78 88.35M238.78 88.35L236.29 89.35M236.29 89.35L233.55 91.09M233.55 91.09L231.06 93.59M231.06 93.59L229.81 96.33M229.81 96.33L229.07 99.07M229.07 99.07L229.07 100.81"/>
<path d="M238.78 115.01L238.78 113.52M238.78 113.52L237.79 112.27M237.79 112.27L236.29 111.52M236.29 111.52L235.54 111.52"/>
<path d="M184.47 156.12L181.73 156.37M181.73 156.37L178.74 157.36M178.74 157.36L176 159.11M176 159.11L173.26 161.85M173.26 161.85L172.27 163.09"/>
<path d="M183.98 155.12L180.99 155.37M180.99 155.37L178.25 156.37M178.25 156.37L175.26 158.11M175.26 158.11L172.77 160.85M172.77 160.85L171.77 162.1"/>
<path d="M190.95 183.27L187.96 183.52M187.96 183.52L185.22 184.52M185.22 184.52L182.48 186.26M182.48 186.26L179.74 189M179.74 189L178 191.74M178 191.74L177.25 194.48M177.25 194.48L176.75 197.22"/>
<path d="M178.25 193.73L177.75 196.48M177.75 196.48L177.5 197.97"/>
<path d="M182.23 138.43L178.25 138.68M178.25 138.68L174.26 139.67M174.26 139.67L170.02 141.17M170.02 141.17L166.04 143.41M166.04 143.41L162.05 146.9M162.05 146.9L158.81 150.88M158.81 150.88L158.07 152.38"/>
<path d="M239.28 71.66L235.05 71.91M235.05 71.91L231.06 72.91M231.06 72.91L227.07 74.4M227.07 74.4L223.09 76.89M223.09 76.89L219.1 80.13M219.1 80.13L215.86 84.37M215.86 84.37L213.62 88.35M213.62 88.35L212.13 92.34"/>
<path d="M296.08 231.1L295.58 229.36M295.58 229.36L294.84 227.37M294.84 227.37L293.09 225.37M293.09 225.37L291.1 224.38M291.1 224.38L289.36 223.88M289.36 223.88L287.36 224.13M287.36 224.13L285.37 224.63M285.37 224.63L283.38 226.12M283.38 226.12L282.13 228.11M282.13 228.11L281.38 230.11M281.38 230.11L281.38 231.85M281.38 231.85L281.88 233.84"/>
<path d="M260.46 231.1L260.21 229.36M260.21 229.36L259.46 227.37M259.46 227.37L257.72 225.37M257.72 225.37L255.72 224.38M255.72 224.38L253.73 223.88M253.73 223.88L251.99 224.13M251.99 224.13L249.99 224.63M249.99 224.63L248 226.12M248 226.12L246.76 228.11M246.76 228.11L246.01 230.11M246.01 230.11L246.01 231.85M246.01 231.85L246.26 233.84"/>
<path d="M225.08 231.1L224.58 229.36M224.58 229.36L223.84 227.37M223.84 227.37L222.09 225.37M222.09 225.37L220.1 224.38M220.1 224.38L218.36 223.88M218.36 223.88L216.36 224.13M216.36 224.13L214.37 224.63M214.37 224.63L212.38 226.12M212.38 226.12L211.13 228.11M211.13 228.11L210.38 230.11M210.38 230.11L210.38 231.85M210.38 231.85L210.88 233.84"/>
<path d="M261.2 224.13L258.96 222.14M258.96 222.14L256.72 220.89M256.72 220.89L254.23 220.39M254.23 220.39L251.99 220.39M251.99 220.39L249.5 221.14M249.5 221.14L247 222.14M247 222.14L245.26 224.13"/>
<path d="M225.83 224.13L223.59 222.14M223.59 222.14L221.1 220.89M221.1 220.89L218.6 220.39M218.6 220.39L216.36 220.39M216.36 220.39L213.87 221.14M213.87 221.14L211.63 222.14M211.63 222.14L209.64 224.13"/>
<path d="M209.64 224.13L208.64 225.37"/>
<path d="M226.83 225.37L225.83 224.13"/>
<path d="M228.32 229.36L228.07 228.36"/>
<path d="M228.07 228.36L228.07 227.86"/>
<path d="M224.58 233.84L225.08 231.85M225.08 231.85L225.08 231.1"/>
<path d="M242.77 228.36L242.52 229.36"/>
<path d="M243.02 227.86L242.77 228.36"/>
<path d="M245.26 224.13L244.02 225.37"/>
<path d="M207.39 227.86L206.9 229.36"/>
<path d="M260.21 233.84L260.46 231.85M260.46 231.85L260.46 231.1"/>
<path d="M262.45 225.37L261.2 224.13"/>
<path d="M263.7 228.36L263.45 227.86"/>
<path d="M263.95 229.36L263.7 228.36"/>
<path d="M296.83 224.13L294.59 222.14M294.59 222.14L292.1 220.89M292.1 220.89L289.61 220.39M289.61 220.39L287.36 220.39M287.36 220.39L284.87 221.14M284.87 221.14L282.63 222.14M282.63 222.14L280.64 224.13"/>
<path d="M280.64 224.13L279.64 225.37"/>
<path d="M278.39 227.86L278.15 228.36"/>
<path d="M278.15 228.36L277.9 229.36"/>
<path d="M295.58 233.84L296.08 231.85M296.08 231.85L296.08 231.1"/>
<path d="M297.83 225.37L296.83 224.13"/>
<path d="M299.32 229.36L299.07 228.36"/>
<path d="M299.07 228.36L299.07 227.86"/>
<path d="M158.56 224.88L158.07 223.38M158.07 223.38L157.32 221.89M157.32 221.89L155.82 221.14M155.82 221.14L154.33 220.64"/>
<path d="M157.57 225.87L157.32 224.38M157.32 224.38L156.32 222.88M156.32 222.88L154.83 221.89M154.83 221.89L153.33 221.64"/>
<path d="M154.33 198.22L155.82 197.97M155.82 197.97L157.32 196.97M157.32 196.97L158.07 195.48M158.07 195.48L158.56 193.98"/>
<path d="M153.33 197.22L154.83 196.97M154.83 196.97L156.32 195.98M156.32 195.98L157.32 194.48M157.32 194.48L157.57 192.99"/>
<path d="M476.7 267.48L479.44 266.98M479.44 266.98L482.43 266.23M482.43 266.23L485.17 264.49M485.17 264.49L487.91 261.75M487.91 261.75L489.65 258.76M489.65 258.76L490.4 256.02M490.4 256.02L490.65 253.28"/>
<path d="M476.7 236.09L479.44 235.59M479.44 235.59L482.43 234.84M482.43 234.84L485.17 233.1M485.17 233.1L487.91 230.36M487.91 230.36L489.65 227.37M489.65 227.37L490.4 224.63M490.4 224.63L490.65 221.89"/>
<path d="M367.08 231.1L366.83 229.36M366.83 229.36L366.09 227.37M366.09 227.37L364.34 225.37M364.34 225.37L362.35 224.38M362.35 224.38L360.36 223.88M360.36 223.88L358.36 224.13M358.36 224.13L356.62 224.63M356.62 224.63L354.63 226.12M354.63 226.12L353.13 228.11M353.13 228.11L352.63 230.11M352.63 230.11L352.39 231.85M352.39 231.85L352.88 233.84"/>
<path d="M331.46 231.1L331.21 229.36M331.21 229.36L330.46 227.37M330.46 227.37L328.72 225.37M328.72 225.37L326.73 224.38M326.73 224.38L324.73 223.88M324.73 223.88L322.99 224.13M322.99 224.13L321 224.63M321 224.63L319 226.12M319 226.12L317.76 228.11M317.76 228.11L317.01 230.11M317.01 230.11L317.01 231.85M317.01 231.85L317.26 233.84"/>
<path d="M332.21 224.13L329.96 222.14M329.96 222.14L327.72 220.89M327.72 220.89L325.23 220.39M325.23 220.39L322.99 220.39M322.99 220.39L320.5 221.14M320.5 221.14L318.01 222.14M318.01 222.14L316.26 224.13"/>
<path d="M367.83 224.13L365.59 222.14M365.59 222.14L363.35 220.89M363.35 220.89L360.86 220.39M360.86 220.39L358.36 220.39M358.36 220.39L356.12 221.14M356.12 221.14L353.63 222.14M353.63 222.14L351.64 224.13"/>
<path d="M368.83 225.37L367.83 224.13"/>
<path d="M370.32 228.36L370.07 227.86"/>
<path d="M366.59 233.84L367.08 231.85M367.08 231.85L367.08 231.1"/>
<path d="M370.57 229.36L370.32 228.36"/>
<path d="M351.64 224.13L350.64 225.37"/>
<path d="M349.4 227.86L349.4 228.36"/>
<path d="M349.4 228.36L349.15 229.36"/>
<path d="M313.77 228.36L313.52 229.36"/>
<path d="M314.02 227.86L313.77 228.36"/>
<path d="M316.26 224.13L315.02 225.37"/>
<path d="M331.21 233.84L331.46 231.85M331.46 231.85L331.46 231.1"/>
<path d="M334.7 228.36L334.45 227.86"/>
<path d="M334.95 229.36L334.7 228.36"/>
<path d="M333.45 225.37L332.21 224.13"/>
<path d="M472.46 221.64L473.96 221.39M473.96 221.39L475.45 220.39M475.45 220.39L476.45 218.9M476.45 218.9L476.45 217.65"/>
<path d="M472.46 220.64L473.96 220.39M473.96 220.39L474.96 219.15M474.96 219.15L475.7 217.9M475.7 217.9L475.7 217.65"/>
<path d="M459.76 221.64L458.26 221.89M458.26 221.89L456.77 222.88M456.77 222.88L456.02 224.38M456.02 224.38L455.52 225.87"/>
<path d="M400.96 124.48L401.21 127.22M401.21 127.22L402.21 130.21M402.21 130.21L403.95 132.95M403.95 132.95L406.69 135.69M406.69 135.69L409.43 137.43M409.43 137.43L412.18 138.18M412.18 138.18L414.92 138.43"/>
<path d="M356.12 113.02L355.87 111.27M355.87 111.27L354.88 109.28M354.88 109.28L353.13 107.54M353.13 107.54L351.14 106.29M351.14 106.29L349.15 106.04"/>
<path d="M355.87 113.27L355.62 111.27M355.62 111.27L354.63 109.28M354.63 109.28L352.88 107.54M352.88 107.54L350.89 106.54M350.89 106.54L349.15 106.29M349.15 106.29L348.9 106.29"/>
<path d="M369.57 113.02L369.33 110.28M369.33 110.28L368.33 107.54M368.33 107.54L366.59 104.55M366.59 104.55L363.84 101.81M363.84 101.81L361.1 100.31M361.1 100.31L358.11 99.32M358.11 99.32L355.37 99.07"/>
<path d="M122.44 221.89L122.69 224.88M122.69 224.88L123.69 227.62M123.69 227.62L125.43 230.36M125.43 230.36L128.17 233.1M128.17 233.1L130.91 234.84M130.91 234.84L133.9 235.59M133.9 235.59L136.39 236.09"/>
<path d="M136.39 183.27L133.65 183.52M133.65 183.52L130.91 184.52M130.91 184.52L127.92 186.26M127.92 186.26L125.18 189M125.18 189L123.69 191.74M123.69 191.74L122.69 194.48M122.69 194.48L122.44 197.22"/>
<path d="M136.64 217.65L136.89 219.15M136.89 219.15L137.89 220.64M137.89 220.64L139.38 221.39M139.38 221.39L140.63 221.64"/>
<path d="M490.65 197.22L490.4 194.48M490.4 194.48L489.65 191.49M489.65 191.49L487.66 188.75M487.66 188.75L485.17 186.01M485.17 186.01L482.18 184.52M482.18 184.52L479.44 183.52M479.44 183.52L476.7 183.27"/>
<path d="M476.45 201.21L476.2 199.71M476.2 199.71L475.2 198.22M475.2 198.22L473.71 197.47M473.71 197.47L472.46 197.22"/>
<path d="M455.52 192.99L456.02 194.48M456.02 194.48L456.77 195.98M456.77 195.98L458.26 196.97M458.26 196.97L459.76 197.22"/>
<path d="M475.7 201.21L475.45 199.96M475.45 199.96L474.21 198.72M474.21 198.72L472.71 198.22M472.71 198.22L472.46 198.22"/>
<path d="M140.63 198.22L139.38 198.47M139.38 198.47L138.14 199.71M138.14 199.71L137.64 200.96M137.64 200.96L137.64 201.21"/>
<path d="M140.63 197.22L139.13 197.47M139.13 197.47L137.64 198.72M137.64 198.72L136.89 200.21M136.89 200.21L136.64 201.21"/>
<path d="M137.64 217.65L137.89 218.9M137.89 218.9L139.13 220.14M139.13 220.14L140.38 220.64M140.38 220.64L140.63 220.64"/>
<path d="M394.74 333.25L401.46 333M401.46 333L408.19 332M408.19 332L414.92 330.5M414.92 330.5L421.64 328.51M421.64 328.51L428.37 325.77M428.37 325.77L435.09 322.03M435.09 322.03L441.82 317.55M441.82 317.55L448.55 311.82M448.55 311.82L454.78 305.09M454.78 305.09L459.76 298.37M459.76 298.37L463.74 291.64M463.74 291.64L466.98 284.91M466.98 284.91L469.47 278.19M469.47 278.19L471.22 271.46M471.22 271.46L471.97 267.48"/>
<path d="M393.74 332.25L400.47 332M400.47 332L407.19 331M407.19 331L413.92 329.51M413.92 329.51L420.65 327.52M420.65 327.52L427.37 324.53M427.37 324.53L434.1 321.04M434.1 321.04L440.82 316.55M440.82 316.55L447.55 310.82M447.55 310.82L453.78 304.1M453.78 304.1L459.01 297.37M459.01 297.37L463 290.64M463 290.64L465.99 283.92M465.99 283.92L468.48 277.19M468.48 277.19L470.22 270.47M470.22 270.47L471.47 263.74M471.47 263.74L471.97 257.01M471.97 257.01L471.97 254.02"/>
<path d="M398.47 315.81L403.95 315.56M403.95 315.56L409.68 314.81M409.68 314.81L415.41 313.32M415.41 313.32L421.14 311.07M421.14 311.07L426.87 308.08M426.87 308.08L432.35 304.35M432.35 304.35L438.08 299.36M438.08 299.36L443.07 293.63M443.07 293.63L447.05 287.9M447.05 287.9L449.79 282.42M449.79 282.42L452.04 276.69M452.04 276.69L453.53 270.96M453.53 270.96L454.28 265.23M454.28 265.23L454.53 259.5"/>
<path d="M398.47 316.8L404.2 316.55M404.2 316.55L409.93 315.56M409.93 315.56L415.91 314.06M415.91 314.06L421.64 311.82M421.64 311.82L427.62 308.83M427.62 308.83L433.35 304.84M433.35 304.84L439.08 299.61M439.08 299.61L444.31 293.88M444.31 293.88L448.05 287.9M448.05 287.9L451.04 282.17M451.04 282.17L453.03 276.44M453.03 276.44L454.53 270.47M454.53 270.47L455.27 264.74M455.27 264.74L455.52 259.5"/>
<path d="M327.72 154.37L285.62 154.37"/>
<path d="M285.62 154.12L327.47 154.12"/>
<path d="M240.28 169.07L222.59 169.07M222.59 169.07L222.59 149.64"/>
<path d="M359.86 169.07L359.11 169.07"/>
<path d="M363.35 169.07L363.6 169.07"/>
<path d="M249.75 169.07L249.75 174.3"/>
<path d="M323.24 169.07L289.61 169.07"/>
<path d="M372.81 169.07L390.5 169.07"/>
<path d="M363.6 169.07L363.6 174.3"/>
<path d="M284.12 163.59L284.12 160.6"/>
<path d="M249.75 162.1L240.28 162.1"/>
<path d="M355.62 155.12L355.62 152.13"/>
<path d="M328.97 163.59L328.97 160.6"/>
<path d="M240.28 169.07L240.28 162.1"/>
<path d="M249.75 162.1L249.75 169.07"/>
<path d="M285.37 149.39L284.12 150.14"/>
<path d="M285.37 149.39L285.62 149.39"/>
<path d="M285.62 149.39L267.43 149.39"/>
<path d="M372.81 162.1L372.81 169.07"/>
<path d="M390.5 169.07L390.5 148.64"/>
<path d="M363.6 162.1L372.81 162.1"/>
<path d="M363.6 162.1L363.6 169.07"/>
<path d="M285.62 130.46L327.47 130.46"/>
<path d="M257.47 174.3L257.47 131.45"/>
<path d="M355.37 131.45L355.37 174.3"/>
<path d="M229.07 133.94L229.07 132.95"/>
<path d="M327.47 143.66L285.62 143.66"/>
<path d="M355.87 113.27L355.87 141.42M355.87 141.42L355.62 141.67"/>
<path d="M285.62 121.24L284.12 118"/>
<path d="M257.47 99.32L355.37 99.32"/>
<path d="M297.83 106.29L264.19 106.29"/>
<path d="M264.19 106.29L297.83 106.29"/>
<path d="M355.62 117.5L355.87 116.01"/>
<path d="M374.06 115.01L374.06 123.23"/>
<path d="M355.87 116.01L355.87 113.27"/>
<path d="M400.96 101.81L400.96 124.48"/>
<path d="M372.56 89.1L241.52 89.1"/>
<path d="M241.52 88.35L371.57 88.35"/>
<path d="M283.63 116.01L289.36 116.01"/>
<path d="M229.07 101.81L229.07 100.81"/>
<path d="M315.02 106.29L348.9 106.29"/>
<path d="M348.9 106.29L315.02 106.29"/>
<path d="M240.03 73.9L373.06 73.9"/>
<path d="M374.06 71.66L239.28 71.66"/>
<path d="M239.28 71.66L374.06 71.66"/>
<path d="M219.1 332.5L240.03 332.5"/>
<path d="M240.03 317.05L214.87 317.05"/>
<path d="M262.2 316.8L263.95 316.8"/>
<path d="M263.95 332.5L262.2 332.5"/>
<path d="M292.59 302.35L292.59 306.34"/>
<path d="M177.75 259.25L177.75 270.22"/>
<path d="M165.54 256.51L170.02 256.51"/>
<path d="M141.62 267.48L136.39 267.48"/>
<path d="M472.96 183.27L455.27 152.63"/>
<path d="M387.26 223.38L386.02 223.63"/>
<path d="M384.27 126.72L384.27 132.95"/>
<path d="M384.27 107.79L384.27 100.81"/>
<path d="M405.95 228.61L408.19 228.61M408.19 228.61L408.19 229.61"/>
<path d="M403.21 223.38L404.45 223.63"/>
<path d="M387.26 223.38L388.26 220.39"/>
<path d="M387.26 223.38L387.26 224.13"/>
<path d="M403.21 224.13L403.21 223.38M403.21 223.38L402.46 220.39"/>
<path d="M409.68 229.61L409.68 227.86"/>
<path d="M380.79 227.86L380.79 229.61"/>
<path d="M382.78 228.61L384.77 228.61"/>
<path d="M382.78 228.61L382.78 229.61"/>
<path d="M401.96 99.81L401.96 124.48"/>
<path d="M377.55 111.52L380.79 111.52"/>
<path d="M384.27 126.72L377.55 126.72"/>
<path d="M407.44 156.37L428.62 156.37"/>
<path d="M429.37 155.37L406.69 155.37"/>
<path d="M415.91 138.43L430.86 138.43"/>
<path d="M415.91 138.43L414.92 138.43"/>
<path d="M440.82 163.34L454.53 187.01"/>
<path d="M455.52 187.01L441.32 162.34"/>
<path d="M454.53 194.23L454.53 187.01"/>
<path d="M454.53 259.75L454.53 224.88"/>
<path d="M443.07 211.67L447.55 211.67M447.55 211.67L447.55 256.51"/>
<path d="M443.07 211.67L441.32 211.67"/>
<path d="M447.55 256.51L443.07 256.51"/>
<path d="M454.53 187.01L455.52 187.01"/>
<path d="M472.46 220.64L458.76 220.64"/>
<path d="M458.76 198.22L472.46 198.22"/>
<path d="M253.98 169.07L253.23 169.07"/>
<path d="M285.62 149.39L285.62 154.37"/>
<path d="M285.62 154.37L285.62 154.12"/>
<path d="M285.62 138.93L267.43 138.93"/>
<path d="M285.62 143.66L285.62 154.12"/>
<path d="M266.69 150.14L267.43 149.39M267.43 149.39L267.43 138.93"/>
<path d="M257.47 152.13L257.47 155.12"/>
<path d="M267.43 126.97L267.43 138.93"/>
<path d="M229.07 132.95L229.07 126.72M229.07 126.72L235.54 126.72"/>
<path d="M197.18 138.43L198.18 138.43"/>
<path d="M197.18 138.43L182.23 138.43"/>
<path d="M285.62 138.93L285.62 149.39"/>
<path d="M285.62 135.94L285.62 126.97"/>
<path d="M285.62 143.66L285.62 138.93"/>
<path d="M184.47 156.37L206.65 156.37"/>
<path d="M206.65 155.37L183.98 155.37"/>
<path d="M257.22 141.42L243.77 141.42"/>
<path d="M257.22 141.42L257.47 141.67"/>
<path d="M235.54 111.52L232.56 111.52"/>
<path d="M257.22 141.42L257.22 113.27"/>
<path d="M243.77 113.27L243.77 141.42"/>
<path d="M239.03 115.01L239.03 123.23"/>
<path d="M283.63 116.01L284.12 118"/>
<path d="M266.69 117.5L266.69 118"/>
<path d="M283.63 116.01L257.22 116.01"/>
<path d="M266.69 118L284.12 118"/>
<path d="M229.07 107.79L229.07 101.81"/>
<path d="M211.13 99.81L211.13 124.48"/>
<path d="M212.13 124.48L212.13 101.81"/>
<path d="M266.69 118L267.43 121.24"/>
<path d="M257.22 116.01L257.47 117.5"/>
<path d="M257.22 116.01L257.22 113.27"/>
<path d="M266.75 150.15L266.69 118"/>
<path d="M177.75 208.93L178 208.93"/>
<path d="M177.75 208.93L177.75 197.97"/>
<path d="M177.75 208.93L177.5 209.93"/>
<path d="M158.56 187.01L158.56 194.23"/>
<path d="M158.56 187.01L172.27 163.34"/>
<path d="M165.54 211.67L165.54 256.51"/>
<path d="M140.13 183.27L158.07 152.63"/>
<path d="M203.41 227.86L203.41 229.61"/>
<path d="M224.58 220.39L225.83 223.38"/>
<path d="M209.64 224.13L209.64 223.38M209.64 223.38L210.38 220.39"/>
<path d="M232.06 227.86L232.06 229.61"/>
<path d="M230.56 228.61L228.07 228.61"/>
<path d="M230.56 228.61L230.56 229.61"/>
<path d="M226.83 223.63L225.83 223.38M225.83 223.38L225.83 224.13"/>
<path d="M238.78 227.86L238.78 229.61"/>
<path d="M240.53 228.61L242.52 228.61"/>
<path d="M240.53 228.61L240.53 229.61"/>
<path d="M209.64 223.38L208.39 223.63"/>
<path d="M245.26 223.38L245.26 224.13"/>
<path d="M246.01 220.39L245.26 223.38M245.26 223.38L244.02 223.63"/>
<path d="M261.2 223.38L260.21 220.39"/>
<path d="M262.45 223.63L261.2 223.38M261.2 223.38L261.2 224.13"/>
<path d="M265.94 228.61L265.94 229.61"/>
<path d="M265.94 228.61L263.7 228.61"/>
<path d="M296.83 223.38L295.83 220.39"/>
<path d="M296.83 223.38L296.83 224.13"/>
<path d="M280.64 223.38L281.63 220.39"/>
<path d="M279.64 223.63L280.64 223.38M280.64 223.38L280.64 224.13"/>
<path d="M274.41 227.86L274.41 229.61"/>
<path d="M267.43 229.61L267.43 227.86"/>
<path d="M278.15 228.61L276.15 228.61M276.15 228.61L276.15 229.61"/>
<path d="M299.07 228.61L301.56 228.61M301.56 228.61L301.56 229.61"/>
<path d="M297.83 223.63L296.83 223.38"/>
<path d="M303.06 229.61L303.06 227.86"/>
<path d="M177.75 259.25L177.5 258.26"/>
<path d="M173.51 256.51L177 256.51"/>
<path d="M173.51 256.51L172.52 256.51"/>
<path d="M177 256.51L177.5 256.51"/>
<path d="M172.52 256.51L172.52 211.67"/>
<path d="M176 216.65L176 251.78"/>
<path d="M173.76 251.78L173.76 216.65"/>
<path d="M173.76 251.78L176 251.78"/>
<path d="M173.76 251.78L173.51 251.78"/>
<path d="M173.51 216.65L173.76 216.65M173.76 216.65L176 216.65"/>
<path d="M173.51 254.52L173.51 255.52"/>
<path d="M177 211.67L173.51 211.67M173.51 211.67L172.52 211.67"/>
<path d="M177 211.67L177.5 211.67"/>
<path d="M173.51 213.91L173.51 212.92"/>
<path d="M153.33 221.89L140.63 221.89"/>
<path d="M140.63 220.64L154.33 220.64"/>
<path d="M140.63 255.02L140.63 254.02M140.63 254.02L140.63 236.09"/>
<path d="M157.57 225.87L157.57 259.75"/>
<path d="M158.56 259.75L158.56 224.88"/>
<path d="M172.52 256.51L170.02 256.51"/>
<path d="M165.54 211.67L170.02 211.67M170.02 211.67L172.52 211.67"/>
<path d="M153.33 197.47L140.63 197.47"/>
<path d="M157.57 187.01L171.77 162.34"/>
<path d="M157.57 187.01L157.57 193.24"/>
<path d="M157.57 187.01L158.56 187.01"/>
<path d="M140.63 198.22L154.33 198.22"/>
<path d="M122.44 221.89L122.44 253.52"/>
<path d="M367.83 223.38L366.83 220.39"/>
<path d="M368.83 223.63L367.83 223.38M367.83 223.38L367.83 224.13"/>
<path d="M374.06 229.61L374.06 227.86"/>
<path d="M370.32 228.61L372.56 228.61M372.56 228.61L372.56 229.61"/>
<path d="M351.64 223.38L352.63 220.39"/>
<path d="M350.64 223.63L351.64 223.38M351.64 223.38L351.64 224.13"/>
<path d="M347.15 229.61L347.15 228.61"/>
<path d="M345.41 227.86L345.41 229.61"/>
<path d="M347.15 228.61L349.4 228.61"/>
<path d="M338.68 229.61L338.68 227.86"/>
<path d="M337.19 228.61L337.19 229.61"/>
<path d="M309.78 229.61L309.78 227.86"/>
<path d="M313.77 228.61L311.78 228.61M311.78 228.61L311.78 229.61"/>
<path d="M316.26 224.13L316.26 223.38M316.26 223.38L315.02 223.63"/>
<path d="M334.7 228.61L337.19 228.61"/>
<path d="M331.21 220.39L332.21 223.38M332.21 223.38L333.45 223.63"/>
<path d="M317.01 220.39L316.26 223.38"/>
<path d="M332.21 223.38L332.21 224.13"/>
<path d="M459.76 221.89L472.46 221.89"/>
<path d="M455.52 225.87L455.52 259.75"/>
<path d="M471.97 254.02L471.97 236.09"/>
<path d="M472.96 236.09L472.96 254.27"/>
<path d="M472.96 236.09L476.7 236.09"/>
<path d="M472.96 236.09L471.97 236.09"/>
<path d="M490.65 253.52L490.65 221.89"/>
<path d="M471.97 267.48L476.7 267.48"/>
<path d="M327.72 149.39L328.97 150.14"/>
<path d="M327.47 149.39L327.72 149.39"/>
<path d="M327.47 143.66L327.47 138.93"/>
<path d="M327.72 149.39L327.72 154.37M327.72 154.37L327.47 154.12"/>
<path d="M327.47 138.93L327.47 149.39"/>
<path d="M327.47 135.94L327.47 126.97"/>
<path d="M327.47 154.12L327.47 143.66"/>
<path d="M345.66 149.39L346.41 150.14"/>
<path d="M345.66 138.93L327.47 138.93"/>
<path d="M355.87 141.42L369.57 141.42"/>
<path d="M345.66 149.39L327.47 149.39"/>
<path d="M345.66 149.39L345.66 138.93"/>
<path d="M346.41 131.45L346.44 150.15"/>
<path d="M345.66 126.97L345.66 138.93"/>
<path d="M346.41 131.45L346.41 118"/>
<path d="M369.57 113.27L369.57 141.42"/>
<path d="M329.71 116.01L355.87 116.01"/>
<path d="M329.71 116.01L323.98 116.01"/>
<path d="M346.41 118L345.66 121.24"/>
<path d="M328.97 118L346.41 118M346.41 118L346.41 117.5"/>
<path d="M328.97 118L327.47 121.24"/>
<path d="M328.97 118L329.71 116.01"/>
<path d="M275.16 316.8L337.69 316.8"/>
<path d="M398.47 316.06L214.87 316.06"/>
<path d="M292.59 306.34L321 306.34"/>
<path d="M292.59 302.35L292.59 300.86"/>
<path d="M321 306.34L321 302.35"/>
<path d="M337.69 332.75L275.16 332.75"/>
<path d="M350.64 332.5L348.9 332.5"/>
<path d="M455.52 193.24L455.52 187.01"/>
<path d="M472.46 197.47L459.76 197.47"/>
<path d="M476.45 201.46L476.45 217.65"/>
<path d="M475.7 217.65L475.7 201.46"/>
<path d="M490.65 197.22L490.65 221.89"/>
<path d="M472.96 183.27L476.7 183.27"/>
<path d="M136.39 183.27L140.13 183.27"/>
<path d="M136.39 217.65L136.39 201.46"/>
<path d="M137.64 201.46L137.64 217.65"/>
<path d="M122.44 221.89L122.44 197.22"/>
<path d="M140.63 236.09L136.39 236.09"/>
<path d="M350.64 316.8L348.9 316.8"/>
<path d="M441.32 256.51L443.07 256.51"/>
<path d="M321 302.35L321 300.86"/>
<path d="M398.47 317.05L373.06 317.05"/>
<path d="M373.06 332.5L393.74 332.5"/>
<path d="M257.97 194.73L257.97 192.74M257.97 192.74L257.97 190.75M257.97 190.75L257.97 188.5M257.97 188.5L257.97 186.76M257.97 186.76L257.97 185.51M257.97 185.51L257.97 184.52M257.97 184.52L257.97 184.02M257.97 184.02L257.97 183.77"/>
<path d="M432.11 215.16L432.11 226.62M432.11 226.62L432.11 237.83M432.11 237.83L432.11 249.54M432.11 249.54L432.11 260.75"/>
<path d="M355.13 194.73L355.13 192.74M355.13 192.74L355.13 190.75M355.13 190.75L355.13 188.5M355.13 188.5L355.13 186.76M355.13 186.76L354.88 185.51M354.88 185.51L354.88 184.52M354.88 184.52L354.88 184.02M354.88 184.02L354.88 183.77"/>
<path d="M212.63 292.39L259.46 292.39M259.46 292.39L306.55 292.39M306.55 292.39L353.63 292.39M353.63 292.39L400.47 292.39"/>
<path d="M270.92 183.77L271.17 184.02M271.17 184.02L271.42 185.26M271.42 185.26L271.42 186.76M271.42 186.76L271.42 190.5M271.42 190.5L271.42 194.73"/>
<path d="M258.46 196.72L258.71 196.72M258.71 196.72L259.46 196.72M259.46 196.72L260.71 196.72M260.71 196.72L261.95 196.72"/>
<path d="M266.69 196.72L267.18 196.72M267.18 196.72L267.68 196.72M267.68 196.72L268.43 196.72M268.43 196.72L269.18 196.72M269.18 196.72L269.68 196.72M269.68 196.72L269.92 196.72M269.92 196.72L270.17 196.72"/>
<path d="M350.89 196.72L351.39 196.72M351.39 196.72L351.89 196.72M351.89 196.72L352.88 196.72M352.88 196.72L353.38 196.72M353.38 196.72L353.88 196.72M353.88 196.72L354.38 196.72"/>
<path d="M342.67 196.72L342.92 196.72M342.92 196.72L343.17 196.72M343.17 196.72L343.91 196.72M343.91 196.72L344.66 196.72M344.66 196.72L345.41 196.72M345.41 196.72L345.66 196.72M345.66 196.72L346.16 196.72"/>
<path d="M342.67 183.77L343.17 183.77M343.17 183.77L343.91 183.77M343.91 183.77L344.91 183.77M344.91 183.77L346.16 183.77"/>
<path d="M350.89 183.77L352.14 183.77M352.14 183.77L353.38 183.77M353.38 183.77L354.13 183.77M354.13 183.77L354.38 183.77"/>
<path d="M341.42 194.73L341.42 190.5M341.42 190.5L341.67 186.76M341.67 186.76L341.67 185.26M341.67 185.26L341.67 184.02M341.67 184.02L341.92 183.77"/>
<path d="M258.46 183.77L258.71 183.77M258.71 183.77L259.46 183.77M259.46 183.77L260.71 183.77M260.71 183.77L261.95 183.77"/>
<path d="M266.69 183.77L267.93 183.77M267.93 183.77L269.18 183.77M269.18 183.77L269.92 183.77M269.92 183.77L270.17 183.77"/>
<path d="M180.99 260.75L181.24 265.23M181.24 265.23L182.48 269.47M182.48 269.47L183.98 273.7M183.98 273.7L186.22 278.19M186.22 278.19L189.71 282.42M189.71 282.42L193.94 286.16M193.94 286.16L198.43 288.9M198.43 288.9L202.66 290.64M202.66 290.64L207.14 291.64M207.14 291.64L211.38 292.14M211.38 292.14L212.63 292.39"/>
<path d="M418.65 214.16L418.4 210.92M418.4 210.92L417.41 207.93M417.41 207.93L415.91 204.7M415.91 204.7L413.42 201.71M413.42 201.71L410.18 199.22M410.18 199.22L406.94 197.72M406.94 197.72L403.95 196.72M403.95 196.72L401.46 196.72"/>
<path d="M387.01 198.72L386.76 197.72M386.76 197.72L385.77 196.72M385.77 196.72L385.02 196.72"/>
<path d="M401.46 196.72L400.22 196.97M400.22 196.97L399.47 197.97M399.47 197.97L399.47 198.72"/>
<path d="M248.5 198.72L248.25 197.72M248.25 197.72L247.25 196.72M247.25 196.72L246.76 196.72"/>
<path d="M246.76 196.72L246.26 196.72"/>
<path d="M213.37 198.72L213.12 197.72M213.12 197.72L212.38 196.72M212.38 196.72L211.63 196.72"/>
<path d="M228.07 196.72L227.07 196.97M227.07 196.97L226.08 197.97M226.08 197.97L226.08 198.72"/>
<path d="M366.09 196.72L365.09 197.22M365.09 197.22L364.34 198.22M364.34 198.22L364.34 198.72"/>
<path d="M366.59 196.72L366.09 196.72"/>
<path d="M212.63 183.27L208.14 183.77M208.14 183.77L203.91 184.77M203.91 184.77L199.67 186.26M199.67 186.26L195.19 188.5M195.19 188.5L190.95 191.99M190.95 191.99L187.21 196.48M187.21 196.48L184.47 200.71M184.47 200.71L182.73 204.95M182.73 204.95L181.73 209.43M181.73 209.43L181.24 213.66M181.24 213.66L180.99 214.91"/>
<path d="M432.11 214.91L431.61 210.68M431.61 210.68L430.61 206.19M430.61 206.19L429.12 201.96M429.12 201.96L426.87 197.47M426.87 197.47L423.39 193.24M423.39 193.24L418.9 189.5M418.9 189.5L414.67 186.76M414.67 186.76L410.43 185.02M410.43 185.02L405.95 184.02M405.95 184.02L401.71 183.52M401.71 183.52L400.47 183.27"/>
<path d="M247.75 198.72L247.5 197.47M247.5 197.47L246.51 196.72"/>
<path d="M366.59 196.72L365.59 197.47M365.59 197.47L365.34 198.72"/>
<path d="M211.38 196.72L208.14 196.97M208.14 196.97L205.15 197.97M205.15 197.97L201.91 199.71M201.91 199.71L198.92 202.45M198.92 202.45L196.43 205.44M196.43 205.44L195.19 208.68M195.19 208.68L194.44 211.67M194.44 211.67L194.19 214.16"/>
<path d="M400.47 292.39L404.7 292.14M404.7 292.14L409.19 290.89M409.19 290.89L413.42 289.4M413.42 289.4L417.91 287.16M417.91 287.16L422.14 283.67M422.14 283.67L425.88 279.43M425.88 279.43L428.62 274.95M428.62 274.95L430.36 270.71M430.36 270.71L431.36 266.23M431.36 266.23L431.86 262M431.86 262L432.11 260.75"/>
<path d="M386.02 233.84L381.28 238.83"/>
<path d="M381.28 229.61L386.02 229.61"/>
<path d="M381.28 229.61L381.28 238.83"/>
<path d="M386.02 233.84L386.02 229.61"/>
<path d="M404.45 233.84L409.19 238.83"/>
<path d="M409.19 229.61L418.65 229.61M418.65 229.61L418.65 214.41"/>
<path d="M404.45 233.84L404.45 229.61M404.45 229.61L409.19 229.61M409.19 229.61L409.19 238.83"/>
<path d="M386.76 203.95L388.01 204.2"/>
<path d="M386.76 203.95L386.76 198.97"/>
<path d="M388.01 204.2L388.01 212.92"/>
<path d="M399.47 203.95L399.47 198.97"/>
<path d="M399.47 203.95L386.76 203.95"/>
<path d="M388.01 204.2L398.47 204.2"/>
<path d="M398.47 212.92L388.01 212.92"/>
<path d="M398.47 212.92L398.47 204.2"/>
<path d="M409.19 238.83L381.28 238.83"/>
<path d="M398.47 204.2L399.47 203.95"/>
<path d="M404.45 233.84L386.02 233.84"/>
<path d="M386.02 233.84L404.45 233.84"/>
<path d="M257.97 204.2L258.22 204.2"/>
<path d="M248.5 204.2L248.5 198.97"/>
<path d="M248.5 204.2L257.97 204.2"/>
<path d="M258.22 204.2L248 204.2"/>
<path d="M258.46 183.77L257.97 183.77"/>
<path d="M257.97 204.2L257.97 194.73"/>
<path d="M213.37 198.97L213.37 203.95M213.37 203.95L214.62 204.2"/>
<path d="M228.07 196.72L246.26 196.72"/>
<path d="M226.08 203.95L213.37 203.95"/>
<path d="M226.08 203.95L226.08 198.97"/>
<path d="M225.08 204.2L214.62 204.2"/>
<path d="M225.08 204.2L226.08 203.95"/>
<path d="M203.66 229.61L203.66 238.83"/>
<path d="M194.19 229.61L194.19 214.41"/>
<path d="M194.19 229.61L203.66 229.61"/>
<path d="M180.99 215.16L180.99 260.75"/>
<path d="M208.39 233.84L226.83 233.84"/>
<path d="M226.83 233.84L208.39 233.84"/>
<path d="M226.83 233.84L226.83 229.61M226.83 229.61L231.81 229.61M231.81 229.61L231.81 238.83M231.81 238.83L226.83 233.84"/>
<path d="M239.03 229.61L239.03 238.83M239.03 238.83L244.02 233.84"/>
<path d="M244.02 233.84L244.02 229.61"/>
<path d="M231.81 229.61L239.03 229.61M239.03 229.61L244.02 229.61"/>
<path d="M208.39 229.61L208.39 233.84"/>
<path d="M225.08 212.92L214.62 212.92"/>
<path d="M208.39 233.84L203.66 238.83M203.66 238.83L231.81 238.83"/>
<path d="M208.39 229.61L203.66 229.61"/>
<path d="M262.45 229.61L262.45 233.84"/>
<path d="M258.22 211.92L248 211.92"/>
<path d="M258.22 211.92L258.46 211.92"/>
<path d="M262.45 233.84L244.02 233.84"/>
<path d="M267.18 229.61L262.45 229.61"/>
<path d="M262.45 233.84L267.18 238.83"/>
<path d="M239.03 238.83L267.18 238.83M267.18 238.83L267.18 229.61"/>
<path d="M262.45 233.84L244.02 233.84"/>
<path d="M274.66 229.61L274.66 238.83"/>
<path d="M274.66 229.61L267.18 229.61"/>
<path d="M279.64 233.84L274.66 238.83"/>
<path d="M279.64 229.61L274.66 229.61"/>
<path d="M279.64 229.61L279.64 233.84M279.64 233.84L297.83 233.84"/>
<path d="M302.81 238.83L302.81 229.61"/>
<path d="M302.81 238.83L274.66 238.83"/>
<path d="M279.64 233.84L297.83 233.84"/>
<path d="M225.08 204.2L225.08 212.92"/>
<path d="M214.62 212.92L214.62 204.2"/>
<path d="M258.22 204.2L258.22 211.92"/>
<path d="M248 211.92L248 204.2"/>
<path d="M368.83 233.84L373.81 238.83"/>
<path d="M368.83 233.84L368.83 229.61"/>
<path d="M368.83 229.61L373.81 229.61"/>
<path d="M350.64 233.84L350.64 229.61"/>
<path d="M354.38 211.92L354.63 211.92"/>
<path d="M350.64 233.84L345.66 238.83"/>
<path d="M373.81 229.61L381.28 229.61"/>
<path d="M373.81 229.61L373.81 238.83"/>
<path d="M368.83 233.84L350.64 233.84"/>
<path d="M350.64 233.84L368.83 233.84"/>
<path d="M350.64 229.61L345.66 229.61"/>
<path d="M338.18 238.83L338.18 229.61M338.18 229.61L345.66 229.61M345.66 229.61L345.66 238.83M345.66 238.83L373.81 238.83"/>
<path d="M333.45 233.84L338.18 238.83"/>
<path d="M310.28 229.61L315.02 229.61M315.02 229.61L315.02 233.84M315.02 233.84L310.28 238.83"/>
<path d="M310.28 229.61L310.28 238.83"/>
<path d="M333.45 233.84L315.02 233.84"/>
<path d="M333.45 229.61L338.18 229.61"/>
<path d="M315.02 233.84L333.45 233.84"/>
<path d="M338.18 238.83L310.28 238.83"/>
<path d="M333.45 233.84L333.45 229.61"/>
<path d="M302.81 229.61L310.28 229.61"/>
<path d="M297.83 233.84L297.83 229.61M297.83 229.61L302.81 229.61"/>
<path d="M297.83 233.84L302.81 238.83"/>
<path d="M355.13 194.73L355.13 204.2"/>
<path d="M364.34 204.2L364.34 198.97"/>
<path d="M364.34 204.2L355.13 204.2M355.13 204.2L354.63 204.2"/>
<path d="M366.59 196.72L384.77 196.72"/>
<path d="M354.88 183.77L354.38 183.77"/>
<path d="M271.42 194.73L271.42 196.72M271.42 196.72L341.42 196.72M341.42 196.72L342.67 196.72"/>
<path d="M341.42 196.72L341.42 194.73"/>
<path d="M266.69 196.72L261.95 196.72"/>
<path d="M271.42 196.72L270.17 196.72"/>
<path d="M346.16 196.72L350.89 196.72"/>
<path d="M248.5 204.2L248 204.2"/>
<path d="M364.34 204.2L364.84 204.2"/>
<path d="M364.84 204.2L354.63 204.2"/>
<path d="M365.09 211.92L365.09 198.72"/>
<path d="M354.63 204.2L354.63 211.92"/>
<path d="M354.38 211.92L354.38 196.72"/>
<path d="M365.09 211.92L364.84 204.2"/>
<path d="M258.71 196.72L258.46 211.92"/>
<path d="M248 211.92L247.75 211.92M247.75 211.92L247.75 198.72"/>
<path d="M354.63 211.92L365.09 211.92"/>
<path d="M346.16 183.77L350.89 183.77"/>
<path d="M341.92 183.77L342.67 183.77"/>
<path d="M270.92 183.77L270.17 183.77"/>
<path d="M266.69 183.77L261.95 183.77"/>
<path d="M270.92 183.77L341.92 183.77"/>
<path d="M354.88 183.77L400.47 183.77"/>
<path d="M257.97 183.77L212.63 183.77"/>
<path d="M179.74 264.49L179.99 268.97M179.99 268.97L180.99 273.7M180.99 273.7L182.48 278.19M182.48 278.19L184.72 282.92M184.72 282.92L187.96 287.66M187.96 287.66L192.45 292.14M192.45 292.14L196.93 295.38M196.93 295.38L201.66 297.87M201.66 297.87L206.4 299.61M206.4 299.61L210.88 300.36M210.88 300.36L215.61 300.61M215.61 300.61L216.11 300.61"/>
<path d="M441.32 210.68L441.07 205.94M441.07 205.94L440.08 201.21M440.08 201.21L438.58 196.72M438.58 196.72L436.09 191.99M436.09 191.99L433.1 187.51M433.1 187.51L428.62 183.02M428.62 183.02L423.88 179.53M423.88 179.53L419.4 177.04M419.4 177.04L414.67 175.55M414.67 175.55L409.93 174.55M409.93 174.55L405.45 174.3M405.45 174.3L404.95 174.3"/>
<path d="M414.42 206.19L412.92 203.95M412.92 203.95L410.68 201.71M410.68 201.71L410.43 201.71"/>
<path d="M216.11 174.3L211.38 174.55M211.38 174.55L206.65 175.55M206.65 175.55L202.16 177.04M202.16 177.04L197.43 179.29M197.43 179.29L192.94 182.52M192.94 182.52L188.46 187.01M188.46 187.01L184.97 191.49M184.97 191.49L182.48 196.23M182.48 196.23L180.99 200.96M180.99 200.96L179.99 205.44M179.99 205.44L179.74 210.18M179.74 210.18L179.74 210.68"/>
<path d="M404.95 300.61L409.68 300.36M409.68 300.36L414.17 299.61M414.17 299.61L418.9 298.12M418.9 298.12L423.39 295.63M423.39 295.63L428.12 292.39M428.12 292.39L432.6 287.9M432.6 287.9L436.09 283.42M436.09 283.42L438.33 278.69M438.33 278.69L440.08 274.2M440.08 274.2L441.07 269.47M441.07 269.47L441.32 264.74M441.32 264.74L441.32 264.49"/>
<path d="M216.11 174.3L404.95 174.3"/>
<path d="M179.74 210.68L179.74 264.49"/>
<path d="M441.32 264.49L441.32 210.68"/>
<path d="M216.11 300.86L404.95 300.86"/>
<path d="M304.3 197.22L304.55 196.72"/>
<path d="M296.33 197.22L296.08 196.72"/>
<path d="M301.56 197.22L302.31 197.22M302.31 197.22L302.81 196.72"/>
<path d="M299.07 197.22L298.32 197.22"/>
<path d="M303.56 197.97L303.31 197.97"/>
<path d="M303.56 197.97L304.3 197.22"/>
<path d="M297.08 197.97L296.33 197.22"/>
<path d="M299.07 197.22L299.82 197.47M299.82 197.47L300.57 197.47M300.57 197.47L301.56 197.22"/>
<path d="M297.83 196.72L298.32 197.22"/>
<path d="M400.96 198.47L400.22 198.22M400.22 198.22L399.72 197.97"/>
<path d="M213.37 197.97L212.63 198.22M212.63 198.22L211.88 198.47"/>
<path d="M177.75 263.74L178 267.73M178 267.73L178.99 271.96M178.99 271.96L180.49 276.2M180.49 276.2L182.73 280.43M182.73 280.43L185.22 283.67"/>
<path d="M417.16 215.41L416.66 212.17M416.66 212.17L415.91 209.18M415.91 209.18L414.42 205.94M414.42 205.94L411.68 202.7M411.68 202.7L408.44 200.46M408.44 200.46L405.45 198.97M405.45 198.97L402.21 197.97M402.21 197.97L399.72 197.97"/>
<path d="M416.66 215.66L416.41 212.42M416.41 212.42L415.41 209.43M415.41 209.43L413.92 206.19M413.92 206.19L411.18 203.2M411.18 203.2L408.19 200.71M408.19 200.71L404.95 199.22M404.95 199.22L401.71 198.22M401.71 198.22L400.96 198.22"/>
<path d="M213.37 197.97L210.13 198.22M210.13 198.22L207.14 198.97M207.14 198.97L203.91 200.71M203.91 200.71L200.67 203.45M200.67 203.45L198.43 206.44M198.43 206.44L196.93 209.68M196.93 209.68L196.18 212.92M196.18 212.92L195.93 215.41"/>
<path d="M211.88 198.22L208.89 198.97M208.89 198.97L205.65 200.21M205.65 200.21L202.66 202.2M202.66 202.2L199.67 205.44M199.67 205.44L197.68 208.43M197.68 208.43L196.68 211.67M196.68 211.67L196.18 214.66M196.18 214.66L196.18 215.66"/>
<path d="M191.7 183.27L188.96 183.77M188.96 183.77L186.22 184.52M186.22 184.52L183.23 186.26M183.23 186.26L180.49 189M180.49 189L178.99 191.99M178.99 191.99L178 194.73M178 194.73L177.75 197.47"/>
<path d="M177.75 255.52L178.25 255.52M178.25 255.52L179.74 255.52"/>
<path d="M177.75 255.52L177.75 263.74"/>
<path d="M386.02 227.86L380.79 227.86"/>
<path d="M416.66 227.86L416.66 223.13"/>
<path d="M416.66 215.91L416.66 223.13"/>
<path d="M416.91 229.61L416.91 215.41"/>
<path d="M416.66 227.86L416.66 229.61"/>
<path d="M416.66 227.86L409.68 227.86"/>
<path d="M409.19 223.13L416.66 223.13"/>
<path d="M404.45 226.87L404.45 220.39M404.45 220.39L409.19 215.41"/>
<path d="M409.68 227.86L404.45 227.86"/>
<path d="M404.45 226.87L409.19 223.13"/>
<path d="M386.02 226.87L386.02 227.86"/>
<path d="M387.51 204.2L386.52 204.2"/>
<path d="M409.68 227.86L409.68 229.61"/>
<path d="M381.28 223.13L381.28 215.41"/>
<path d="M380.79 227.86L380.79 229.61"/>
<path d="M381.28 223.13L386.02 226.87"/>
<path d="M381.28 215.41L386.02 220.39"/>
<path d="M385.52 198.22L385.52 208.43"/>
<path d="M386.52 203.2L386.76 203.2"/>
<path d="M386.52 203.2L386.52 204.2"/>
<path d="M386.76 203.2L386.76 198.72"/>
<path d="M386.52 204.2L385.52 204.2M385.52 204.2L385.52 208.43"/>
<path d="M385.52 198.22L386.76 197.97"/>
<path d="M409.19 215.41L381.28 215.41"/>
<path d="M399.97 204.2L398.97 204.2"/>
<path d="M399.97 204.2L400.96 204.2"/>
<path d="M400.96 208.43L385.52 208.43"/>
<path d="M409.19 223.13L409.19 215.41"/>
<path d="M386.02 220.39L404.45 220.39"/>
<path d="M386.02 220.39L386.02 226.87"/>
<path d="M399.47 198.72L399.47 203.2M399.47 203.2L399.97 203.2"/>
<path d="M400.96 204.2L400.96 208.43M400.96 208.43L400.96 198.47"/>
<path d="M399.97 204.2L399.97 203.2"/>
<path d="M404.45 226.87L404.45 227.86"/>
<path d="M247.5 197.97L226.08 197.97"/>
<path d="M258.71 197.97L259.71 197.97M259.71 197.97L260.96 198.22"/>
<path d="M247.5 197.97L246.51 197.97"/>
<path d="M259.71 203.2L260.21 203.45"/>
<path d="M246.51 203.2L246.51 197.97"/>
<path d="M246.51 203.2L246.26 203.45"/>
<path d="M258.22 204.2L248 204.2"/>
<path d="M258.71 204.2L260.21 204.2M260.21 204.2L260.96 204.2"/>
<path d="M247.75 203.2L246.51 203.2"/>
<path d="M259.71 203.2L258.71 203.2"/>
<path d="M259.71 203.2L259.71 197.97"/>
<path d="M260.21 203.45L260.21 204.2"/>
<path d="M260.96 198.22L278.39 198.22"/>
<path d="M212.13 204.2L211.88 208.43"/>
<path d="M213.12 204.2L213.12 203.2"/>
<path d="M213.12 204.2L212.13 204.2"/>
<path d="M213.37 203.2L213.12 203.2"/>
<path d="M213.12 204.2L214.12 204.2"/>
<path d="M213.37 203.2L213.37 198.47"/>
<path d="M211.88 198.47L211.88 208.43"/>
<path d="M191.95 183.52L191.7 183.52"/>
<path d="M278.39 204.95L278.39 201.71M278.39 201.71L278.39 198.22"/>
<path d="M278.39 204.95L278.39 209.43"/>
<path d="M245.51 198.22L246.51 197.97"/>
<path d="M246.26 203.45L246.26 204.2"/>
<path d="M227.57 198.22L245.51 198.22"/>
<path d="M226.33 204.2L225.33 204.2"/>
<path d="M211.88 208.43L227.57 208.43"/>
<path d="M203.66 223.13L196.18 223.13"/>
<path d="M203.66 223.13L203.66 215.41"/>
<path d="M195.93 215.41L195.93 229.61"/>
<path d="M196.18 227.86L196.18 223.13M196.18 223.13L196.18 215.91"/>
<path d="M196.18 227.86L196.18 229.61"/>
<path d="M203.41 227.86L203.41 229.61"/>
<path d="M226.83 220.39L226.83 226.87"/>
<path d="M226.83 220.39L208.39 220.39"/>
<path d="M226.83 220.39L231.81 215.41"/>
<path d="M226.83 226.87L231.81 223.13"/>
<path d="M232.06 227.86L232.06 229.61"/>
<path d="M232.06 227.86L226.83 227.86M226.83 227.86L226.83 226.87"/>
<path d="M244.02 226.87L239.03 223.13"/>
<path d="M238.78 227.86L238.78 229.61"/>
<path d="M239.03 223.13L239.03 215.41"/>
<path d="M238.78 227.86L244.02 227.86"/>
<path d="M244.02 220.39L239.03 215.41"/>
<path d="M238.78 227.86L232.06 227.86"/>
<path d="M231.81 223.13L239.03 223.13"/>
<path d="M231.81 223.13L231.81 215.41"/>
<path d="M208.39 227.86L208.39 226.87M208.39 226.87L208.39 220.39"/>
<path d="M244.02 220.39L244.02 226.87M244.02 226.87L244.02 227.86"/>
<path d="M245.51 211.67L245.51 204.2"/>
<path d="M208.39 220.39L203.66 215.41"/>
<path d="M203.66 215.41L231.81 215.41"/>
<path d="M203.41 227.86L196.18 227.86"/>
<path d="M203.41 227.86L208.39 227.86"/>
<path d="M208.39 226.87L203.66 223.13"/>
<path d="M262.45 226.87L262.45 227.86"/>
<path d="M244.02 220.39L262.45 220.39"/>
<path d="M245.51 204.2L246.26 204.2"/>
<path d="M248 211.67L245.51 211.67"/>
<path d="M262.45 220.39L262.45 226.87"/>
<path d="M262.45 220.39L267.18 215.41"/>
<path d="M267.18 223.13L262.45 226.87"/>
<path d="M267.18 223.13L267.18 215.41"/>
<path d="M279.64 226.87L274.66 223.13"/>
<path d="M297.83 226.87L297.83 220.39"/>
<path d="M267.43 227.86L262.45 227.86"/>
<path d="M297.83 220.39L279.64 220.39M279.64 220.39L279.64 226.87"/>
<path d="M297.83 227.86L297.83 226.87"/>
<path d="M274.41 229.61L274.41 227.86"/>
<path d="M267.43 227.86L267.43 229.61"/>
<path d="M267.43 227.86L274.41 227.86"/>
<path d="M274.66 223.13L267.18 223.13"/>
<path d="M274.66 223.13L274.66 215.41"/>
<path d="M274.41 227.86L279.64 227.86"/>
<path d="M279.64 220.39L274.66 215.41"/>
<path d="M279.64 226.87L279.64 227.86"/>
<path d="M302.81 223.13L297.83 226.87"/>
<path d="M302.81 223.13L302.81 215.41"/>
<path d="M297.83 227.86L303.06 227.86M303.06 227.86L303.06 229.61"/>
<path d="M177.5 227.12L178.25 227.12"/>
<path d="M178.25 215.16L173.51 215.16"/>
<path d="M178.25 227.12L178.25 212.42"/>
<path d="M178.25 252.78L173.51 252.78"/>
<path d="M177.5 227.12L177.5 241.07"/>
<path d="M178.25 227.12L179.74 227.12"/>
<path d="M178.25 241.07L178.25 255.52"/>
<path d="M178.25 241.07L179.74 241.07"/>
<path d="M178.25 241.07L177.5 241.07"/>
<path d="M178 212.42L178.25 212.42M178.25 212.42L179.74 212.42"/>
<path d="M178 212.42L178 197.47"/>
<path d="M373.81 223.13L368.83 226.87"/>
<path d="M368.83 227.86L368.83 226.87M368.83 226.87L368.83 220.39"/>
<path d="M368.83 227.86L374.06 227.86M374.06 227.86L374.06 229.61"/>
<path d="M350.64 226.87L350.64 220.39"/>
<path d="M350.64 226.87L350.64 227.86"/>
<path d="M354.63 211.67L352.14 211.67"/>
<path d="M365.09 211.67L367.58 211.67"/>
<path d="M350.64 227.86L345.41 227.86M345.41 227.86L345.41 229.61"/>
<path d="M381.28 223.13L373.81 223.13"/>
<path d="M374.06 227.86L380.79 227.86"/>
<path d="M350.64 220.39L345.66 215.41"/>
<path d="M350.64 226.87L345.66 223.13"/>
<path d="M373.81 223.13L373.81 215.41"/>
<path d="M368.83 220.39L350.64 220.39"/>
<path d="M345.66 223.13L345.66 215.41M345.66 215.41L373.81 215.41"/>
<path d="M338.68 227.86L345.41 227.86"/>
<path d="M338.68 227.86L338.68 229.61"/>
<path d="M333.45 220.39L338.18 215.41M338.18 215.41L338.18 223.13M338.18 223.13L345.66 223.13"/>
<path d="M315.02 220.39L310.28 215.41"/>
<path d="M310.28 215.41L310.28 223.13"/>
<path d="M310.28 215.41L338.18 215.41"/>
<path d="M309.78 227.86L309.78 229.61"/>
<path d="M315.02 227.86L315.02 226.87"/>
<path d="M315.02 227.86L309.78 227.86"/>
<path d="M333.45 220.39L315.02 220.39M315.02 220.39L315.02 226.87"/>
<path d="M333.45 220.39L333.45 226.87"/>
<path d="M333.45 226.87L338.18 223.13"/>
<path d="M315.02 226.87L310.28 223.13"/>
<path d="M333.45 227.86L333.45 226.87"/>
<path d="M333.45 227.86L338.68 227.86"/>
<path d="M302.81 223.13L310.28 223.13"/>
<path d="M309.78 227.86L303.06 227.86"/>
<path d="M334.45 204.95L334.45 201.71M334.45 201.71L334.45 198.22"/>
<path d="M334.45 204.95L334.45 209.43"/>
<path d="M352.14 198.22L334.45 198.22"/>
<path d="M352.14 198.22L353.13 197.97"/>
<path d="M352.88 203.45L352.88 204.2"/>
<path d="M352.88 203.45L353.13 203.2"/>
<path d="M352.88 204.2L352.14 204.2"/>
<path d="M353.13 203.2L353.13 197.97"/>
<path d="M365.09 203.2L366.59 203.2"/>
<path d="M354.38 203.2L353.13 203.2"/>
<path d="M366.59 203.2L366.59 203.45"/>
<path d="M366.59 204.2L365.09 204.2"/>
<path d="M366.59 204.2L367.33 204.2"/>
<path d="M354.38 204.2L352.88 204.2"/>
<path d="M366.59 203.2L366.59 197.97"/>
<path d="M366.59 203.45L366.59 204.2"/>
<path d="M367.58 198.22L366.59 197.97"/>
<path d="M367.58 198.22L385.52 198.22"/>
<path d="M353.13 197.97L354.38 197.97"/>
<path d="M297.83 220.39L302.81 215.41"/>
<path d="M354.38 197.97L258.71 197.97"/>
<path d="M365.34 197.97L386.76 197.97"/>
<path d="M365.34 197.97L366.59 197.97"/>
<path d="M278.39 198.22L334.45 198.22"/>
<path d="M227.57 198.22L226.08 197.97"/>
<path d="M278.39 204.95L334.45 204.95"/>
<path d="M227.32 204.2L226.33 204.2"/>
<path d="M246.26 204.2L247.75 204.2"/>
<path d="M227.57 198.22L227.57 208.43M227.57 208.43L227.32 204.2"/>
<path d="M226.08 203.2L226.08 198.72"/>
<path d="M352.14 198.22L352.14 211.67M352.14 211.67L352.14 204.2"/>
<path d="M364.84 204.2L354.63 204.2"/>
<path d="M367.33 204.2L367.58 211.67M367.58 211.67L367.58 198.22"/>
<path d="M260.96 198.22L260.96 211.67M260.96 211.67L260.96 204.2"/>
<path d="M245.51 211.67L245.51 198.22"/>
<path d="M278.39 209.43L334.45 209.43"/>
<path d="M260.96 211.67L258.22 211.67"/>
<path d="M278.39 201.71L334.45 201.71"/>
<path d="M226.33 204.2L226.33 203.2M226.33 203.2L226.08 203.2"/>
<path d="M368.83 220.39L373.81 215.41"/>
<path d="M274.66 215.41L302.81 215.41"/>
<path d="M267.18 215.41L239.03 215.41"/>
<path d="M387.51 167.33L388.26 166.08M388.26 166.08L388.26 165.33"/>
<path d="M385.52 168.07L386.76 167.83M386.76 167.83L387.51 167.33"/>
<path d="M237.29 127.97L236.04 126.97M236.04 126.97L235.54 126.72"/>
<path d="M237.79 129.46L237.29 128.21M237.29 128.21L237.29 127.97"/>
<path d="M225.58 167.33L226.83 168.07M226.83 168.07L227.57 168.07"/>
<path d="M224.58 165.33L225.08 166.58M225.08 166.58L225.58 167.33"/>
<path d="M377.55 126.72L376.3 127.22M376.3 127.22L375.55 127.97"/>
<path d="M375.55 127.97L375.3 129.21M375.3 129.21L375.3 129.46"/>
<path d="M289.11 158.11L289.11 154.37"/>
<path d="M289.11 158.11L284.12 158.11"/>
<path d="M323.98 158.11L323.98 154.37"/>
<path d="M323.98 158.11L328.97 158.11"/>
<path d="M315.51 158.61L315.76 168.32"/>
<path d="M315.51 158.61L297.58 158.61"/>
<path d="M297.33 168.32L315.76 168.32"/>
<path d="M286.62 168.32L288.86 168.32M288.86 168.32L297.33 168.32M297.33 168.32L297.58 158.61"/>
<path d="M240.28 168.32L237.79 168.32"/>
<path d="M323.98 160.85L323.98 168.32M323.98 168.32L315.76 168.32"/>
<path d="M323.98 160.85L323.98 158.11"/>
<path d="M323.98 168.32L326.23 168.32"/>
<path d="M237.79 168.32L237.79 169.07"/>
<path d="M355.62 168.32L363.6 168.32"/>
<path d="M289.36 118.75L323.98 118.75M323.98 118.75L323.98 130.46"/>
<path d="M289.36 118.75L289.36 130.46"/>
<path d="M297.83 109.28L289.36 109.28"/>
<path d="M315.02 109.28L323.98 109.28"/>
<path d="M297.83 109.28L315.02 109.28"/>
<path d="M289.36 109.28L289.36 118.75"/>
<path d="M297.83 104.8L315.02 104.8"/>
<path d="M297.83 109.28L297.83 104.8"/>
<path d="M315.02 109.28L315.02 104.8"/>
<path d="M384.27 164.09L383.77 131.7"/>
<path d="M384.52 164.34L387.51 167.33"/>
<path d="M384.52 164.34L384.27 164.09"/>
<path d="M384.52 164.34L388.26 164.34"/>
<path d="M384.27 164.09L379.04 164.09M379.04 164.09L379.29 131.7"/>
<path d="M388.26 165.33L388.26 164.34"/>
<path d="M383.53 168.32L385.52 168.32"/>
<path d="M383.53 168.32L383.53 169.07"/>
<path d="M383.77 131.7L384.27 131.45"/>
<path d="M383.77 131.7L379.29 131.7"/>
<path d="M388.26 164.34L388.26 145.65"/>
<path d="M257.47 168.32L249.75 168.32"/>
<path d="M237.79 158.11L257.47 158.11"/>
<path d="M237.29 127.97L233.55 131.7"/>
<path d="M289.11 158.11L288.86 168.32"/>
<path d="M251.99 145.65L237.79 145.65"/>
<path d="M251.99 145.65L257.47 145.65"/>
<path d="M229.32 168.32L237.79 168.32"/>
<path d="M229.32 168.32L229.32 169.07"/>
<path d="M233.8 164.09L237.79 168.07"/>
<path d="M237.79 145.65L237.79 129.46"/>
<path d="M237.79 153.38L238.04 164.34M238.04 164.34L237.79 164.34M237.79 164.34L237.79 168.07"/>
<path d="M237.79 153.38L237.79 152.63M237.79 152.63L237.79 145.65"/>
<path d="M237.79 168.07L237.79 168.32"/>
<path d="M228.32 164.34L225.33 167.33"/>
<path d="M224.58 164.34L224.83 146.9"/>
<path d="M228.82 164.09L228.32 164.34"/>
<path d="M228.82 164.09L229.07 131.7"/>
<path d="M233.55 131.7L233.8 164.09"/>
<path d="M233.55 131.7L229.07 131.7"/>
<path d="M228.82 164.09L233.8 164.09"/>
<path d="M224.58 165.33L224.58 164.34M224.58 164.34L228.32 164.34"/>
<path d="M229.32 168.32L227.57 168.32"/>
<path d="M372.81 168.32L375.06 168.32"/>
<path d="M328.97 160.85L328.47 160.85M328.47 160.85L323.98 160.85"/>
<path d="M328.47 163.84L328.97 163.84"/>
<path d="M328.47 163.84L328.47 160.85"/>
<path d="M375.06 168.07L375.06 168.32"/>
<path d="M374.81 153.38L374.81 152.63"/>
<path d="M379.04 164.09L375.06 168.07"/>
<path d="M375.3 129.46L375.06 145.65"/>
<path d="M379.29 131.7L375.55 127.97"/>
<path d="M375.06 168.07L375.06 164.34"/>
<path d="M375.06 168.32L375.06 169.07"/>
<path d="M374.81 152.63L375.06 145.65"/>
<path d="M374.81 158.11L355.62 158.11"/>
<path d="M375.06 164.34L374.81 164.34M374.81 164.34L374.81 153.38"/>
<path d="M375.06 168.32L383.53 168.32"/>
<path d="M355.62 145.65L361.1 145.65M361.1 145.65L375.06 145.65"/>
<path d="M323.98 109.28L323.98 118.75"/>
</g>
</g>
</svg>
