<?xml version="1.0" standalone="no"?><svg xmlns="http://www.w3.org/2000/svg" width="600.000" height="450.000" viewBox="0.0 0.0 600.000 450.000" version="1.1">
<title>Acme Converter - Post-processed with EDS-Designer: 14.47 (info@symca.com)</title>
<desc>Acme Converter - Post-processed with EDS-Designer: 14.47 (info@symca.com)</desc>
<g id="EDS_STYLE_GROUP" fill="none" stroke="black" stroke-width="1.0">
<g id="0" display="visible">
<path d="M343.19 286.16L343.19 272.16"/>
<path d="M359.25 330.18L368.3 329.26M368.3 329.26L376.99 326.56"/>
<path d="M328.48 290.91L337.16 288.55M337.16 288.55L345.45 285.08"/>
<path d="M284.36 285.08L292.65 288.55M292.65 288.55L301.33 290.91"/>
<path d="M252.82 326.56L261.51 329.26M261.51 329.26L270.56 330.18"/>
<path d="M286.62 272.16L286.62 286.16"/>
<path d="M273.91 117.46L292.84 117.46"/>
<path d="M336.97 117.46L354.88 117.46"/>
<path d="M421.26 121.99L421.26 276.06"/>
<path d="M400.44 314.15L409.11 306.91M409.11 306.91L415.72 297.76M415.72 297.76L419.85 287.26M419.85 287.26L421.26 276.06"/>
<path d="M208.55 276.06L209.96 287.26M209.96 287.26L214.09 297.76M214.09 297.76L220.7 306.91M220.7 306.91L229.37 314.15"/>
<path d="M208.55 276.06L208.55 121.99"/>
<path d="M286.62 272.16L297.21 277.89M297.21 277.89L308.88 280.85M308.88 280.85L320.93 280.85M320.93 280.85L332.6 277.89M332.6 277.89L343.19 272.16"/>
<path d="M376.99 326.56L388.97 320.84M388.97 320.84L400.44 314.15"/>
<path d="M359.25 325.65L359.25 330.18"/>
<path d="M375.21 322.39L376.99 326.56"/>
<path d="M359.25 325.65L367.4 324.83M367.4 324.83L375.21 322.39"/>
<path d="M359.25 330.18L270.56 330.18"/>
<path d="M328.48 285.13L328.48 290.91"/>
<path d="M385.06 208.3L380.33 194.13M380.33 194.13L372.78 181.25M372.78 181.25L362.74 170.21M362.74 170.21L350.62 161.48M350.62 161.48L336.97 155.45"/>
<path d="M284.36 285.08L284.36 254.08"/>
<path d="M345.45 254.08L352.92 243.93M352.92 243.93L357.12 232.05M357.12 232.05L357.7 219.46M357.7 219.46L354.6 207.25M354.6 207.25L348.11 196.46M348.11 196.46L338.76 188.01M338.76 188.01L327.37 182.64M327.37 182.64L314.91 180.79M314.91 180.79L302.44 182.64M302.44 182.64L291.05 188.01M291.05 188.01L281.7 196.46M281.7 196.46L275.21 207.25M275.21 207.25L272.12 219.46M272.12 219.46L272.69 232.05M272.69 232.05L276.89 243.93M276.89 243.93L284.36 254.08"/>
<path d="M345.45 254.08L345.45 285.08"/>
<path d="M301.33 285.13L310.22 288.08M310.22 288.08L319.59 288.08M319.59 288.08L328.48 285.13"/>
<path d="M301.33 285.13L301.33 290.91"/>
<path d="M339.54 140.09L336.97 140.09"/>
<path d="M292.84 140.09L288.92 140.09"/>
<path d="M270.56 325.65L270.56 330.18"/>
<path d="M254.6 322.39L262.42 324.83M262.42 324.83L270.56 325.65"/>
<path d="M252.82 326.56L254.6 322.39"/>
<path d="M229.37 314.15L240.84 320.84M240.84 320.84L252.82 326.56"/>
<path d="M421.26 121.99L420.66 119.73M420.66 119.73L419 118.07M419 118.07L416.74 117.46"/>
<path d="M421.26 121.99L416.74 121.99"/>
<path d="M416.74 276.06L416.74 121.99"/>
<path d="M416.74 276.06L421.26 276.06"/>
<path d="M398 310.34L405.8 303.83M405.8 303.83L411.75 295.59M411.75 295.59L415.47 286.14M415.47 286.14L416.74 276.06"/>
<path d="M398 310.34L400.44 314.15"/>
<path d="M213.07 276.06L208.55 276.06"/>
<path d="M231.81 310.34L229.37 314.15"/>
<path d="M213.07 276.06L214.34 286.14M214.34 286.14L218.06 295.59M218.06 295.59L224.01 303.83M224.01 303.83L231.81 310.34"/>
<path d="M213.07 121.99L213.07 276.06"/>
<path d="M208.55 121.99L213.07 121.99"/>
<path d="M213.07 117.46L210.81 118.07M210.81 118.07L209.16 119.73M209.16 119.73L208.55 121.99"/>
<path d="M207.42 266.07L208.55 266.07"/>
<path d="M207.42 263.66L208.55 263.66"/>
<path d="M207.42 266.07L207.42 263.66"/>
<path d="M207.42 268.48L208.55 268.48"/>
<path d="M207.42 268.48L207.42 266.07"/>
<path d="M207.42 270.88L208.55 270.88"/>
<path d="M207.42 270.88L207.42 268.48"/>
<path d="M207.42 272.81L208.55 272.81"/>
<path d="M207.42 272.81L207.42 270.88"/>
<path d="M207.42 274.25L208.55 274.25"/>
<path d="M207.42 274.25L207.42 272.81"/>
<path d="M207.42 274.74L208.55 274.74"/>
<path d="M207.42 274.74L207.42 274.25"/>
<path d="M207.42 252.11L208.55 252.11"/>
<path d="M207.42 252.59L208.55 252.59"/>
<path d="M207.42 252.59L207.42 252.11"/>
<path d="M207.42 254.03L208.55 254.03"/>
<path d="M207.42 254.03L207.42 252.59"/>
<path d="M207.42 255.96L208.55 255.96"/>
<path d="M207.42 255.96L207.42 254.03"/>
<path d="M207.42 257.4L208.55 257.4"/>
<path d="M207.42 257.4L207.42 255.96"/>
<path d="M207.42 257.4L208.55 257.4"/>
<path d="M207.42 258.85L208.55 258.85"/>
<path d="M207.42 258.85L207.42 257.4"/>
<path d="M207.42 260.29L207.42 258.85"/>
<path d="M207.42 260.29L208.55 260.29"/>
<path d="M207.42 260.77L208.55 260.77"/>
<path d="M207.42 260.77L207.42 260.29"/>
<path d="M208.55 262.22L207.42 262.22"/>
<path d="M207.42 262.22L207.42 260.77"/>
<path d="M207.42 263.66L207.42 262.22"/>
<path d="M207.42 274.74L208.55 274.74"/>
<path d="M207.42 248.71L207.42 236.27"/>
<path d="M207.42 223.82L207.42 236.27"/>
<path d="M244.76 121.99L244.76 176.58"/>
<path d="M292.84 116.33L292.84 82.53"/>
<path d="M292.84 142.17L292.84 137.49"/>
<path d="M292.84 137.49L292.84 116.33"/>
<path d="M336.97 82.53L336.97 116.33"/>
<path d="M336.97 137.49L336.97 116.33"/>
<path d="M336.97 142.17L336.97 137.49"/>
<path d="M385.05 121.99L385.05 143.56"/>
<path d="M385.05 153.67L385.05 176.58"/>
<path d="M375.21 322.39L386.86 316.84M386.86 316.84L398 310.34"/>
<path d="M270.56 325.65L359.25 325.65"/>
<path d="M231.81 310.34L242.95 316.84M242.95 316.84L254.6 322.39"/>
<path d="M385.05 121.99L416.74 121.99"/>
<path d="M244.76 121.99L213.07 121.99"/>
<path d="M243.06 223.82L244.99 207.25M244.99 207.25L250.7 191.58M250.7 191.58L259.87 177.64M259.87 177.64L272 166.19M272 166.19L286.45 157.85M286.45 157.85L302.43 153.07M302.43 153.07L319.08 152.1M319.08 152.1L335.51 154.99M335.51 154.99L350.83 161.6M350.83 161.6L364.21 171.56M364.21 171.56L374.93 184.34M374.93 184.34L382.42 199.25M382.42 199.25L386.27 215.48M386.27 215.48L386.27 232.16M386.27 232.16L382.42 248.39M382.42 248.39L374.93 263.3M374.93 263.3L364.21 276.08M364.21 276.08L350.83 286.04M350.83 286.04L335.51 292.65M335.51 292.65L319.08 295.55M319.08 295.55L302.43 294.58M302.43 294.58L286.45 289.79M286.45 289.79L272 281.45M272 281.45L259.87 270M259.87 270L250.7 256.07M250.7 256.07L244.99 240.39M244.99 240.39L243.06 223.82"/>
<path d="M389.58 117.46L416.74 117.46"/>
<path d="M416.74 121.99L416.74 117.46"/>
<path d="M213.07 117.46L213.07 121.99"/>
<path d="M213.07 117.46L240.23 117.46"/>
<path d="M244.76 121.99L244.15 119.73M244.15 119.73L242.49 118.07M242.49 118.07L240.23 117.46"/>
<path d="M336.97 82.53L292.84 82.53"/>
<path d="M336.97 116.33L292.84 116.33"/>
<path d="M336.97 137.49L322.38 134.23M322.38 134.23L307.43 134.23M307.43 134.23L292.84 137.49"/>
<path d="M389.58 117.46L387.32 118.07M387.32 118.07L385.66 119.73M385.66 119.73L385.05 121.99"/>
<path d="M239.66 223.82L241.55 207.08M241.55 207.08L247.12 191.17M247.12 191.17L256.08 176.91M256.08 176.91L267.99 164.99M267.99 164.99L282.26 156.03M282.26 156.03L298.16 150.47M298.16 150.47L314.91 148.58M314.91 148.58L331.65 150.47M331.65 150.47L347.55 156.03M347.55 156.03L361.82 164.99M361.82 164.99L373.73 176.91M373.73 176.91L382.7 191.17M382.7 191.17L388.26 207.08M388.26 207.08L390.15 223.82M390.15 223.82L388.26 240.56M388.26 240.56L382.7 256.47M382.7 256.47L373.73 270.73M373.73 270.73L361.82 282.65M361.82 282.65L347.55 291.61M347.55 291.61L331.65 297.18M331.65 297.18L314.91 299.06M314.91 299.06L298.16 297.18M298.16 297.18L282.26 291.61M282.26 291.61L267.99 282.65M267.99 282.65L256.08 270.73M256.08 270.73L247.12 256.47M247.12 256.47L241.55 240.56M241.55 240.56L239.66 223.82"/>
<path d="M233.72 223.82L235.62 206.37M235.62 206.37L241.23 189.73M241.23 189.73L250.28 174.69M250.28 174.69L262.35 161.95M262.35 161.95L276.88 152.1M276.88 152.1L293.19 145.6M293.19 145.6L310.51 142.76M310.51 142.76L328.04 143.71M328.04 143.71L344.95 148.41M344.95 148.41L360.46 156.63M360.46 156.63L373.84 167.99M373.84 167.99L384.47 181.97M384.47 181.97L391.84 197.9M391.84 197.9L395.61 215.04M395.61 215.04L395.61 232.6M395.61 232.6L391.84 249.74M391.84 249.74L384.47 265.67M384.47 265.67L373.84 279.65M373.84 279.65L360.46 291.01M360.46 291.01L344.95 299.24M344.95 299.24L328.04 303.93M328.04 303.93L310.51 304.88M310.51 304.88L293.19 302.04M293.19 302.04L276.88 295.55M276.88 295.55L262.35 285.69M262.35 285.69L250.28 272.95M250.28 272.95L241.23 257.91M241.23 257.91L235.62 241.27M235.62 241.27L233.72 223.82"/>
<path d="M230.33 223.82L232.31 205.64M232.31 205.64L238.15 188.31M238.15 188.31L247.58 172.64M247.58 172.64L260.15 159.36M260.15 159.36L275.29 149.1M275.29 149.1L292.28 142.33M292.28 142.33L310.33 139.37M310.33 139.37L328.59 140.36M328.59 140.36L346.21 145.25M346.21 145.25L362.37 153.82M362.37 153.82L376.31 165.66M376.31 165.66L387.37 180.22M387.37 180.22L395.05 196.82M395.05 196.82L398.99 214.68M398.99 214.68L398.99 232.97M398.99 232.97L395.05 250.83M395.05 250.83L387.37 267.42M387.37 267.42L376.31 281.98M376.31 281.98L362.37 293.82M362.37 293.82L346.21 302.39M346.21 302.39L328.59 307.28M328.59 307.28L310.33 308.27M310.33 308.27L292.28 305.31M292.28 305.31L275.29 298.54M275.29 298.54L260.15 288.28M260.15 288.28L247.58 275M247.58 275L238.15 259.33M238.15 259.33L232.31 242M232.31 242L230.33 223.82"/>
<path d="M344.59 140.43L344.59 144.63"/>
<path d="M379.31 303.43L366.62 290.74"/>
<path d="M379.31 303.43L380.71 304.35M380.71 304.35L382.48 304.74M382.48 304.74L385.33 303.72M385.33 303.72L385.64 303.48M385.64 303.48L385.71 303.42"/>
<path d="M385.71 303.42L394.51 294.62"/>
<path d="M394.51 294.62L394.66 294.43M394.66 294.43L395.28 293.52M395.28 293.52L395.53 289.99M395.53 289.99L394.51 288.23"/>
<path d="M394.51 288.23L381.83 275.54"/>
<path d="M386.91 151.82L387.56 150.92M387.56 150.92L388.22 148.65M388.22 148.65L387.22 145.8M387.22 145.8L386.91 145.42"/>
<path d="M386.91 145.42L381.93 140.43"/>
<path d="M381.93 140.43L344.59 140.43"/>
<path d="M387.3 151.46L386.91 151.82"/>
<path d="M374.54 163.85L387.3 151.47"/>
<path d="M208.55 248.71L207.42 248.71"/>
<path d="M208.55 223.82L207.42 223.82"/>
<path d="M240.24 117.46L252.11 117.46"/>
<path d="M252.11 117.46L273.8 117.46"/>
<path d="M252.11 117.46L248.11 119.12M248.11 119.12L246.45 123.12"/>
<path d="M246.45 123.12L273.8 123.12"/>
<path d="M273.8 117.46L273.8 123.12"/>
<path d="M288.54 119.93L281.27 118.09M281.27 118.09L273.8 117.46"/>
<path d="M246.45 123.12L246.45 174.15"/>
<path d="M382.23 172.63L382.23 156.39"/>
<path d="M382.23 140.73L382.23 123.12"/>
<path d="M382.23 123.12L354.88 123.12"/>
<path d="M354.88 123.12L348.34 123.67M348.34 123.67L341.98 125.28"/>
<path d="M336.97 126.84L341.98 125.28"/>
<path d="M286.7 125.28L292.84 127.14"/>
<path d="M286.7 125.28L280.34 123.67M280.34 123.67L273.8 123.12"/>
<path d="M292.84 137.08L289.24 139.66M289.24 139.66L287.62 143.78"/>
<path d="M340.93 143.35L339.54 140.16M339.54 140.16L336.97 137.83"/>
<path d="M288.54 119.93L286.7 125.28"/>
<path d="M336.97 120.95L340.14 119.93"/>
<path d="M288.54 119.93L292.84 121.28"/>
<path d="M382.23 123.12L381.47 120.29M381.47 120.29L379.4 118.22M379.4 118.22L376.57 117.46"/>
<path d="M354.88 117.46L376.57 117.46"/>
<path d="M354.88 117.46L354.88 123.12"/>
<path d="M354.88 117.46L347.41 118.09M347.41 118.09L340.14 119.93"/>
<path d="M340.14 119.93L341.98 125.28"/>
<path d="M376.57 117.46L389.57 117.46"/>
<path d="M270.91 367.47L270.91 348.61M271.81 348.61L271.81 367.47M268.21 348.61L278.99 348.61M278.99 348.61L281.68 349.51M281.68 349.51L282.58 350.41M282.58 350.41L283.48 352.21M283.48 352.21L283.48 354M283.48 354L282.58 355.8M282.58 355.8L281.68 356.7M281.68 356.7L278.99 357.59M278.99 348.61L280.79 349.51M280.79 349.51L281.68 350.41M281.68 350.41L282.58 352.21M282.58 352.21L282.58 354M282.58 354L281.68 355.8M281.68 355.8L280.79 356.7M280.79 356.7L278.99 357.59M271.81 357.59L278.99 357.59M278.99 357.59L281.68 358.49M281.68 358.49L282.58 359.39M282.58 359.39L283.48 361.19M283.48 361.19L283.48 363.88M283.48 363.88L282.58 365.68M282.58 365.68L281.68 366.57M281.68 366.57L278.99 367.47M278.99 367.47L268.21 367.47M278.99 357.59L280.79 358.49M280.79 358.49L281.68 359.39M281.68 359.39L282.58 361.19M282.58 361.19L282.58 363.88M282.58 363.88L281.68 365.68M281.68 365.68L280.79 366.57M280.79 366.57L278.99 367.47M290.66 367.47L290.66 348.61M291.56 348.61L291.56 367.47M287.97 348.61L298.75 348.61M298.75 348.61L301.44 349.51M301.44 349.51L302.34 350.41M302.34 350.41L303.23 352.21M303.23 352.21L303.23 354M303.23 354L302.34 355.8M302.34 355.8L301.44 356.7M301.44 356.7L298.75 357.59M298.75 357.59L291.56 357.59M298.75 348.61L300.54 349.51M300.54 349.51L301.44 350.41M301.44 350.41L302.34 352.21M302.34 352.21L302.34 354M302.34 354L301.44 355.8M301.44 355.8L300.54 356.7M300.54 356.7L298.75 357.59M287.97 367.47L294.26 367.47M296.05 357.59L297.85 358.49M297.85 358.49L298.75 359.39M298.75 359.39L301.44 365.68M301.44 365.68L302.34 366.57M302.34 366.57L303.23 366.57M303.23 366.57L304.13 365.68M297.85 358.49L298.75 360.29M298.75 360.29L300.54 366.57M300.54 366.57L301.44 367.47M301.44 367.47L303.23 367.47M303.23 367.47L304.13 365.68M304.13 365.68L304.13 364.78M314.01 348.61L311.32 349.51M311.32 349.51L309.52 351.31M309.52 351.31L308.62 353.1M308.62 353.1L307.72 356.7M307.72 356.7L307.72 359.39M307.72 359.39L308.62 362.98M308.62 362.98L309.52 364.78M309.52 364.78L311.32 366.57M311.32 366.57L314.01 367.47M314.01 367.47L315.81 367.47M315.81 367.47L318.5 366.57M318.5 366.57L320.3 364.78M320.3 364.78L321.19 362.98M321.19 362.98L322.09 359.39M322.09 359.39L322.09 356.7M322.09 356.7L321.19 353.1M321.19 353.1L320.3 351.31M320.3 351.31L318.5 349.51M318.5 349.51L315.81 348.61M315.81 348.61L314.01 348.61M314.01 348.61L312.21 349.51M312.21 349.51L310.42 351.31M310.42 351.31L309.52 353.1M309.52 353.1L308.62 356.7M308.62 356.7L308.62 359.39M308.62 359.39L309.52 362.98M309.52 362.98L310.42 364.78M310.42 364.78L312.21 366.57M312.21 366.57L314.01 367.47M315.81 367.47L317.6 366.57M317.6 366.57L319.4 364.78M319.4 364.78L320.3 362.98M320.3 362.98L321.19 359.39M321.19 359.39L321.19 356.7M321.19 356.7L320.3 353.1M320.3 353.1L319.4 351.31M319.4 351.31L317.6 349.51M317.6 349.51L315.81 348.61M330.17 348.61L333.77 367.47M331.07 348.61L333.77 362.98M337.36 348.61L333.77 367.47M337.36 348.61L340.95 367.47M338.26 348.61L340.95 362.98M344.54 348.61L340.95 367.47M327.48 348.61L333.77 348.61M341.85 348.61L347.24 348.61M351.73 367.47L351.73 348.61M352.62 367.47L352.62 348.61M352.62 348.61L363.4 365.68M352.62 350.41L363.4 367.47M363.4 367.47L363.4 348.61M349.03 348.61L352.62 348.61M360.71 348.61L366.09 348.61M349.03 367.47L354.42 367.47"/>
<path d="M178.74 211.36L180.53 210.46M180.53 210.46L183.23 207.77M183.23 207.77L183.23 226.62M182.33 208.66L182.33 226.62M178.74 226.62L186.82 226.62"/>
</g>
</g>
</svg>
