<?xml version="1.0" standalone="no"?><svg xmlns="http://www.w3.org/2000/svg" width="600.000" height="450.000" viewBox="0.0 0.0 600.000 450.000" version="1.1">
<title>Acme Converter - Post-processed with EDS-Designer: 14.44 (info@symca.com)</title>
<desc>Acme Converter - Post-processed with EDS-Designer: 14.44 (info@symca.com)</desc>
<g id="EDS_STYLE_GROUP" fill="none" stroke="black" stroke-width="1.0">
<g id="0" display="visible">
<path d="M225.3 399.59L225.3 364.41M226.98 364.41L226.98 399.59M220.28 364.41L240.38 364.41M240.38 364.41L245.41 366.08M245.41 366.08L247.08 367.76M247.08 367.76L248.76 371.11M248.76 371.11L248.76 374.46M248.76 374.46L247.08 377.81M247.08 377.81L245.41 379.48M245.41 379.48L240.38 381.16M240.38 364.41L243.73 366.08M243.73 366.08L245.41 367.76M245.41 367.76L247.08 371.11M247.08 371.11L247.08 374.46M247.08 374.46L245.41 377.81M245.41 377.81L243.73 379.48M243.73 379.48L240.38 381.16M226.98 381.16L240.38 381.16M240.38 381.16L245.41 382.83M245.41 382.83L247.08 384.51M247.08 384.51L248.76 387.86M248.76 387.86L248.76 392.89M248.76 392.89L247.08 396.24M247.08 396.24L245.41 397.91M245.41 397.91L240.38 399.59M240.38 399.59L220.28 399.59M240.38 381.16L243.73 382.83M243.73 382.83L245.41 384.51M245.41 384.51L247.08 387.86M247.08 387.86L247.08 392.89M247.08 392.89L245.41 396.24M245.41 396.24L243.73 397.91M243.73 397.91L240.38 399.59M262.16 399.59L262.16 364.41M263.83 364.41L263.83 399.59M257.13 364.41L268.86 364.41M257.13 399.59L282.26 399.59M282.26 399.59L282.26 389.54M282.26 389.54L280.59 399.59M302.36 364.41L290.64 399.59M302.36 364.41L314.09 399.59M302.36 369.43L312.42 399.59M293.99 389.54L309.07 389.54M287.29 399.59L297.34 399.59M307.39 399.59L317.44 399.59M345.92 369.43L347.6 374.46M347.6 374.46L347.6 364.41M347.6 364.41L345.92 369.43M345.92 369.43L342.57 366.08M342.57 366.08L337.54 364.41M337.54 364.41L334.19 364.41M334.19 364.41L329.17 366.08M329.17 366.08L325.82 369.43M325.82 369.43L324.14 372.78M324.14 372.78L322.47 377.81M322.47 377.81L322.47 386.19M322.47 386.19L324.14 391.21M324.14 391.21L325.82 394.56M325.82 394.56L329.17 397.91M329.17 397.91L334.19 399.59M334.19 399.59L337.54 399.59M337.54 399.59L342.57 397.91M342.57 397.91L345.92 394.56M345.92 394.56L347.6 391.21M334.19 364.41L330.84 366.08M330.84 366.08L327.49 369.43M327.49 369.43L325.82 372.78M325.82 372.78L324.14 377.81M324.14 377.81L324.14 386.19M324.14 386.19L325.82 391.21M325.82 391.21L327.49 394.56M327.49 394.56L330.84 397.91M330.84 397.91L334.19 399.59M362.67 399.59L362.67 364.41M364.35 364.41L364.35 399.59M386.13 364.41L364.35 386.19M372.72 379.48L386.13 399.59M371.05 379.48L384.45 399.59M357.65 364.41L369.37 364.41M379.42 364.41L389.48 364.41M357.65 399.59L369.37 399.59M379.42 399.59L389.48 399.59"/>
<path d="M468.1 211.55L470.78 210.21M470.78 210.21L474.8 206.19M474.8 206.19L474.8 234.33"/>
<path d="M127.51 206.18L142.25 206.18M142.25 206.18L134.21 216.9M134.21 216.9L138.23 216.9M138.23 216.9L140.91 218.24M140.91 218.24L142.25 219.58M142.25 219.58L143.59 223.6M143.59 223.6L143.59 226.28M143.59 226.28L142.25 230.3M142.25 230.3L139.57 232.98M139.57 232.98L135.55 234.32M135.55 234.32L131.53 234.32M131.53 234.32L127.51 232.98M127.51 232.98L126.17 231.64M126.17 231.64L124.83 228.96"/>
<path d="M260.33 105.3L260.33 75.05"/>
<path d="M260.33 75.05L349.34 75.05"/>
<path d="M349.34 75.05L349.34 105.3"/>
<path d="M349.34 105.3L359.37 105.3"/>
<path d="M250.31 105.3L260.33 105.3"/>
<path d="M161.71 136.55L185.77 150.44"/>
<path d="M150.33 156.25L161.71 136.55"/>
<path d="M174.45 170.18L150.33 156.25"/>
<path d="M174.45 170.18L172.15 178.71"/>
<path d="M172.15 178.71L168.87 204.02M168.87 204.02L168.87 229.54M168.87 229.54L172.15 254.85"/>
<path d="M172.15 254.85L176.76 269.07M176.76 269.07L184.66 281.77M184.66 281.77L195.36 292.21M195.36 292.21L208.26 299.78M208.26 299.78L222.59 304.03"/>
<path d="M222.59 304.03L263.57 309.21M263.57 309.21L304.84 310.93M304.84 310.93L346.1 309.21M346.1 309.21L387.08 304.03"/>
<path d="M387.08 304.03L401.42 299.78M401.42 299.78L414.31 292.21M414.31 292.21L425.02 281.77M425.02 281.77L432.91 269.07M432.91 269.07L437.53 254.85"/>
<path d="M437.53 254.85L440.8 229.54M440.8 229.54L440.8 204.02M440.8 204.02L437.53 178.71"/>
<path d="M437.53 178.71L435.22 170.18"/>
<path d="M459.34 156.25L435.22 170.18"/>
<path d="M447.96 136.55L459.34 156.25"/>
<path d="M423.9 150.44L447.96 136.55"/>
<path d="M153.92 176.6L139.98 168.55"/>
<path d="M134.32 147.41L132.37 153.13M132.37 153.13L132.77 159.16M132.77 159.16L135.44 164.57M135.44 164.57L139.98 168.56"/>
<path d="M134.32 147.41L146.04 127.1"/>
<path d="M167.19 121.43L161.47 119.49M161.47 119.49L155.44 119.88M155.44 119.88L150.03 122.56M150.03 122.56L146.04 127.1"/>
<path d="M167.19 121.43L181.13 129.48"/>
<path d="M232.72 109.44L220 111.41"/>
<path d="M389.67 111.41L376.96 109.44"/>
<path d="M428.54 129.48L442.48 121.43"/>
<path d="M463.63 127.1L459.65 122.56M459.65 122.56L454.23 119.88M454.23 119.88L448.2 119.49M448.2 119.49L442.48 121.43"/>
<path d="M463.63 127.1L475.36 147.41"/>
<path d="M469.69 168.56L474.23 164.57M474.23 164.57L476.9 159.16M476.9 159.16L477.3 153.13M477.3 153.13L475.36 147.41"/>
<path d="M469.69 168.55L455.75 176.6"/>
<path d="M455.6 257.74L459.05 230.78M459.05 230.78L459.1 203.59M459.1 203.59L455.75 176.6"/>
<path d="M389.67 322.15L405.41 317.83M405.41 317.83L419.96 310.44M419.96 310.44L432.72 300.27M432.72 300.27L443.18 287.75M443.18 287.75L450.92 273.38M450.92 273.38L455.6 257.74"/>
<path d="M220 322.15L262.27 327.45M262.27 327.45L304.84 329.23M304.84 329.23L347.4 327.45M347.4 327.45L389.67 322.15"/>
<path d="M154.07 257.74L158.76 273.38M158.76 273.38L166.49 287.75M166.49 287.75L176.95 300.27M176.95 300.27L189.72 310.44M189.72 310.44L204.26 317.83M204.26 317.83L220 322.15"/>
<path d="M153.92 176.6L150.57 203.59M150.57 203.59L150.62 230.78M150.62 230.78L154.07 257.75"/>
<path d="M250.31 125.64L222.59 129.52"/>
<path d="M257.34 51.83L247.92 53.7M247.92 53.7L239.93 59.04M239.93 59.04L234.59 67.03M234.59 67.03L232.72 76.45"/>
<path d="M257.34 51.83L352.33 51.83"/>
<path d="M376.96 76.45L375.08 67.03M375.08 67.03L369.74 59.04M369.74 59.04L361.75 53.7M361.75 53.7L352.33 51.83"/>
<path d="M387.08 129.52L359.37 125.64"/>
<path d="M359.37 121.82L250.31 121.82"/>
<path d="M359.37 69.42L359.37 125.64"/>
<path d="M250.31 69.42L359.37 69.42"/>
<path d="M250.31 125.64L250.31 69.42"/>
<path d="M222.59 129.52L208.79 133.55M208.79 133.55L196.3 140.65M196.3 140.65L185.77 150.44"/>
<path d="M232.72 109.44L232.72 76.45"/>
<path d="M220 111.41L206.03 115.07M206.03 115.07L192.93 121.16M192.93 121.16L181.13 129.48"/>
<path d="M428.54 129.48L416.74 121.16M416.74 121.16L403.65 115.07M403.65 115.07L389.67 111.41"/>
<path d="M376.96 76.45L376.96 109.44"/>
<path d="M423.9 150.44L413.38 140.65M413.38 140.65L400.88 133.55M400.88 133.55L387.08 129.52"/>
<path d="M219.35 156.17L219.35 130.16"/>
<path d="M203.87 81.38L232.72 81.38"/>
<path d="M203.87 115.88L203.87 81.38"/>
<path d="M189.8 103.84L203.87 103.84"/>
<path d="M189.8 123.07L189.8 103.84"/>
<path d="M419.87 103.84L419.87 123.07"/>
<path d="M405.8 103.84L419.87 103.84"/>
<path d="M405.8 81.38L405.8 115.88"/>
<path d="M376.96 81.38L405.8 81.38"/>
<path d="M390.32 130.16L390.32 156.17"/>
<path d="M315.39 75.04L314.65 71.9M314.65 71.9L312.59 69.42"/>
<path d="M297.11 69.42L295.03 71.89M295.03 71.89L294.28 75.04"/>
<path d="M310.52 75.05L310.11 74.34"/>
<path d="M299.15 75.05L299.56 74.34"/>
<path d="M304.84 50.41L272.73 50.41"/>
<path d="M336.94 50.41L304.84 50.41"/>
<path d="M313.57 70.95L311.07 69.42"/>
<path d="M315.4 75.04L314.9 72.81M314.9 72.81L313.57 70.95"/>
<path d="M313.57 70.95L313.57 75.05"/>
<path d="M272.8 51.83L272.74 50.41"/>
<path d="M232.72 79.17L232.04 81.38"/>
<path d="M272.73 50.41L261.94 51.82"/>
<path d="M336.94 50.41L336.94 51.83"/>
<path d="M347.77 51.83L336.94 50.41"/>
<path d="M377.63 81.38L376.96 79.18"/>
<path d="M308.36 73.01L308.36 69.42"/>
<path d="M296.07 70.99L294.76 72.83M294.76 72.83L294.28 75.04"/>
<path d="M296.1 75.05L296.1 70.95"/>
<path d="M298.61 69.42L296.07 70.98"/>
<path d="M301.32 69.42L301.32 73.01"/>
<path d="M307.68 72.93L302 72.93"/>
<path d="M310.11 74.34L309.08 73.31M309.08 73.31L307.68 72.93"/>
<path d="M310.11 74.34L310.11 75.05"/>
<path d="M307.68 75.05L307.68 72.93"/>
<path d="M302 72.93L300.59 73.31M300.59 73.31L299.56 74.34"/>
<path d="M302 72.93L302 75.05"/>
<path d="M299.56 74.34L299.56 75.05"/>
<path d="M359.37 122.18L331.57 122.18"/>
<path d="M278.1 122.18L250.31 122.18"/>
<path d="M278.1 122.19L278.1 127.15"/>
<path d="M329.62 121.82L331.57 122.18"/>
<path d="M331.57 122.18L331.57 127.15"/>
<path d="M331.57 127.15L331.57 132.73"/>
<path d="M278.1 127.15L278.1 132.73"/>
<path d="M278.1 122.18L280.09 121.82"/>
<path d="M325.94 122.18L325.94 121.82"/>
<path d="M283.73 122.18L325.94 122.18"/>
<path d="M325.94 122.18L325.94 136.25"/>
<path d="M321.02 143.29L325.94 136.25"/>
<path d="M288.65 143.29L321.02 143.29"/>
<path d="M288.65 143.29L283.73 136.25"/>
<path d="M278.1 132.73L282.15 132.73"/>
<path d="M282.15 132.73L283.73 132.73"/>
<path d="M331.57 132.73L325.94 132.73"/>
<path d="M390.32 132.73L331.57 132.73"/>
<path d="M278.1 132.73L219.35 132.73"/>
<path d="M283.73 122.18L283.73 121.82"/>
<path d="M283.73 136.25L283.73 122.18"/>
<path d="M196.43 184.03L193.66 205.8M193.66 205.8L193.66 227.75M193.66 227.75L196.43 249.52"/>
<path d="M227.22 153.95L216.38 157.52M216.38 157.52L207.11 164.17M207.11 164.17L200.25 173.28M200.25 173.28L196.43 184.03"/>
<path d="M210.25 186.69L196.43 184.03"/>
<path d="M382.45 153.95L343.78 149.09M343.78 149.09L304.84 147.47M304.84 147.47L265.89 149.09M265.89 149.09L227.22 153.95"/>
<path d="M229.55 167.83L227.22 153.95"/>
<path d="M413.24 184.03L409.42 173.28M409.42 173.28L402.56 164.17M402.56 164.17L393.29 157.52M393.29 157.52L382.46 153.95"/>
<path d="M380.12 167.83L382.45 153.95"/>
<path d="M413.24 249.52L416.01 227.75M416.01 227.75L416.01 205.8M416.01 205.8L413.24 184.03"/>
<path d="M399.42 186.69L413.24 184.03"/>
<path d="M196.43 249.52L200.25 260.27M200.25 260.27L207.11 269.39M207.11 269.39L216.38 276.04M216.38 276.04L227.22 279.61"/>
<path d="M210.25 246.87L196.43 249.52"/>
<path d="M268.25 234.02L242.92 234.02"/>
<path d="M268.25 219.24L268.25 234.02"/>
<path d="M242.92 219.24L268.25 219.24"/>
<path d="M242.92 234.02L242.92 219.24"/>
<path d="M317.5 234.02L292.17 234.02"/>
<path d="M317.5 219.24L317.5 234.02"/>
<path d="M292.17 219.24L317.5 219.24"/>
<path d="M292.17 234.02L292.17 219.24"/>
<path d="M366.75 234.02L341.42 234.02"/>
<path d="M366.75 219.24L366.75 234.02"/>
<path d="M341.42 219.24L366.75 219.24"/>
<path d="M341.42 234.02L341.42 219.24"/>
<path d="M210.25 246.87L213.88 255.66M213.88 255.66L220.68 262.3M220.68 262.3L229.55 265.73"/>
<path d="M210.25 186.69L207.71 206.69M207.71 206.69L207.71 226.86M207.71 226.86L210.25 246.87"/>
<path d="M229.55 167.83L220.68 171.25M220.68 171.25L213.88 177.9M213.88 177.9L210.25 186.69"/>
<path d="M380.12 167.83L342.61 163.12M342.61 163.12L304.84 161.55M304.84 161.55L267.06 163.12M267.06 163.12L229.55 167.83"/>
<path d="M399.42 186.69L395.79 177.9M395.79 177.9L388.99 171.25M388.99 171.25L380.12 167.83"/>
<path d="M399.42 246.87L401.97 226.86M401.97 226.86L401.97 206.69M401.97 206.69L399.42 186.69"/>
<path d="M382.46 279.61L393.29 276.04M393.29 276.04L402.56 269.39M402.56 269.39L409.42 260.27M409.42 260.27L413.24 249.52"/>
<path d="M380.12 265.73L388.99 262.3M388.99 262.3L395.79 255.66M395.79 255.66L399.42 246.87"/>
<path d="M399.42 246.87L413.24 249.52"/>
<path d="M227.22 279.61L265.89 284.46M265.89 284.46L304.84 286.08M304.84 286.08L343.78 284.46M343.78 284.46L382.45 279.61"/>
<path d="M227.22 279.61L229.55 265.73"/>
<path d="M229.55 265.73L267.06 270.44M267.06 270.44L304.84 272.01M304.84 272.01L342.61 270.44M342.61 270.44L380.12 265.73"/>
<path d="M380.12 265.73L382.45 279.61"/>
</g>
</g>
</svg>
