<?xml version="1.0" standalone="no"?><svg xmlns="http://www.w3.org/2000/svg" width="600.000" height="450.000" viewBox="0.0 0.0 600.000 450.000" version="1.1">
<title>Acme Converter - Post-processed with EDS-Designer: 14.44 (info@symca.com)</title>
<desc>Acme Converter - Post-processed with EDS-Designer: 14.44 (info@symca.com)</desc>
<g id="EDS_STYLE_GROUP" fill="none" stroke="black" stroke-width="1.0">
<g id="0" display="visible">
<path d="M383.75 57.94L383.75 328.36"/>
<path d="M203.47 328.36L203.47 57.94"/>
<path d="M203.47 57.94L383.75 57.94"/>
<path d="M353.47 328.36L353.47 340.38"/>
<path d="M353.47 340.38L341.45 340.38"/>
<path d="M341.45 340.38L341.45 328.36"/>
<path d="M203.47 328.36L383.75 328.36"/>
<path d="M245.76 328.36L245.76 340.38"/>
<path d="M245.76 340.38L233.75 340.38"/>
<path d="M233.75 340.38L233.75 328.36"/>
<path d="M305.63 57.94L304.02 51.93M304.02 51.93L299.62 47.53M299.62 47.53L293.61 45.92M293.61 45.92L287.6 47.53M287.6 47.53L283.2 51.93M283.2 51.93L281.59 57.94"/>
<path d="M368.72 97L344.69 97"/>
<path d="M344.69 97L344.69 84.98"/>
<path d="M344.69 84.98L326.66 84.98"/>
<path d="M326.66 84.98L326.66 97"/>
<path d="M326.66 97L302.62 97"/>
<path d="M302.62 97L302.62 115.03"/>
<path d="M302.62 115.03L326.66 115.03"/>
<path d="M326.66 115.03L326.66 127.05"/>
<path d="M326.66 127.05L344.69 127.05"/>
<path d="M344.69 127.05L344.69 115.03"/>
<path d="M344.69 115.03L368.72 115.03"/>
<path d="M368.72 115.03L368.72 97"/>
<path d="M233.87 404.22L233.87 368.17M235.26 368.17L235.26 404.22M229.72 368.17L246.34 368.17M246.34 368.17L250.49 369.88M250.49 369.88L251.88 371.6M251.88 371.6L253.27 375.04M253.27 375.04L253.27 378.47M253.27 378.47L251.88 381.9M251.88 381.9L250.49 383.62M250.49 383.62L246.34 385.34M246.34 368.17L249.11 369.88M249.11 369.88L250.49 371.6M250.49 371.6L251.88 375.04M251.88 375.04L251.88 378.47M251.88 378.47L250.49 381.9M250.49 381.9L249.11 383.62M249.11 383.62L246.34 385.34M235.26 385.34L246.34 385.34M246.34 385.34L250.49 387.05M250.49 387.05L251.88 388.77M251.88 388.77L253.27 392.2M253.27 392.2L253.27 397.36M253.27 397.36L251.88 400.79M251.88 400.79L250.49 402.51M250.49 402.51L246.34 404.22M246.34 404.22L229.72 404.22M246.34 385.34L249.11 387.05M249.11 387.05L250.49 388.77M250.49 388.77L251.88 392.2M251.88 392.2L251.88 397.36M251.88 397.36L250.49 400.79M250.49 400.79L249.11 402.51M249.11 402.51L246.34 404.22M264.35 404.22L264.35 368.17M265.73 368.17L265.73 404.22M260.19 368.17L269.89 368.17M260.19 404.22L280.97 404.22M280.97 404.22L280.97 393.92M280.97 393.92L279.58 404.22M297.59 368.17L287.89 404.22M297.59 368.17L307.28 404.22M297.59 373.32L305.9 404.22M290.66 393.92L303.13 393.92M285.12 404.22L293.43 404.22M301.74 404.22L310.05 404.22M333.6 373.32L334.99 378.47M334.99 378.47L334.99 368.17M334.99 368.17L333.6 373.32M333.6 373.32L330.83 369.88M330.83 369.88L326.68 368.17M326.68 368.17L323.91 368.17M323.91 368.17L319.75 369.88M319.75 369.88L316.98 373.32M316.98 373.32L315.59 376.75M315.59 376.75L314.21 381.9M314.21 381.9L314.21 390.49M314.21 390.49L315.59 395.64M315.59 395.64L316.98 399.07M316.98 399.07L319.75 402.51M319.75 402.51L323.91 404.22M323.91 404.22L326.68 404.22M326.68 404.22L330.83 402.51M330.83 402.51L333.6 399.07M333.6 399.07L334.99 395.64M323.91 368.17L321.14 369.88M321.14 369.88L318.36 373.32M318.36 373.32L316.98 376.75M316.98 376.75L315.59 381.9M315.59 381.9L315.59 390.49M315.59 390.49L316.98 395.64M316.98 395.64L318.36 399.07M318.36 399.07L321.14 402.51M321.14 402.51L323.91 404.22M347.45 404.22L347.45 368.17M348.84 368.17L348.84 404.22M366.84 368.17L348.84 390.49M355.76 383.62L366.84 404.22M354.38 383.62L365.46 404.22M343.3 368.17L352.99 368.17M361.3 368.17L369.61 368.17M343.3 404.22L352.99 404.22M361.3 404.22L369.61 404.22"/>
<path d="M353.7 115.03L353.7 131.55"/>
<path d="M353.7 131.55L317.65 131.55"/>
<path d="M317.65 131.55L317.65 115.03"/>
<path d="M326.66 127.05L317.65 131.55"/>
<path d="M344.69 127.05L353.7 131.55"/>
<path d="M353.7 97L353.7 80.47"/>
<path d="M353.7 80.47L317.65 80.47"/>
<path d="M317.65 80.47L317.65 97"/>
<path d="M326.66 84.98L317.65 80.47"/>
<path d="M344.69 84.98L353.7 80.47"/>
<path d="M284.59 97L260.56 97"/>
<path d="M260.56 97L260.56 84.98"/>
<path d="M260.56 84.98L242.53 84.98"/>
<path d="M242.53 84.98L242.53 97"/>
<path d="M242.53 97L218.49 97"/>
<path d="M218.49 97L218.49 115.03"/>
<path d="M218.49 115.03L242.53 115.03"/>
<path d="M242.53 115.03L242.53 127.05"/>
<path d="M242.53 127.05L260.56 127.05"/>
<path d="M260.56 127.05L260.56 115.03"/>
<path d="M260.56 115.03L284.59 115.03"/>
<path d="M284.59 115.03L284.59 97"/>
<path d="M269.57 131.55L233.51 131.55"/>
<path d="M269.57 115.03L269.57 131.55"/>
<path d="M233.51 131.55L233.51 115.03"/>
<path d="M242.53 127.05L233.51 131.55"/>
<path d="M260.56 127.05L269.57 131.55"/>
<path d="M269.57 97L269.57 80.47"/>
<path d="M269.57 80.47L233.51 80.47"/>
<path d="M233.51 80.47L233.51 97"/>
<path d="M242.53 84.98L233.51 80.47"/>
<path d="M260.56 84.98L269.57 80.47"/>
<path d="M368.72 157.09L344.69 157.09"/>
<path d="M344.69 157.09L344.69 145.07"/>
<path d="M344.69 145.07L326.66 145.07"/>
<path d="M326.66 145.07L326.66 157.09"/>
<path d="M326.66 157.09L302.62 157.09"/>
<path d="M302.62 157.09L302.62 175.12"/>
<path d="M302.62 175.12L326.66 175.12"/>
<path d="M326.66 175.12L326.66 187.14"/>
<path d="M326.66 187.14L344.69 187.14"/>
<path d="M344.69 187.14L344.69 175.12"/>
<path d="M344.69 175.12L368.72 175.12"/>
<path d="M368.72 175.12L368.72 157.09"/>
<path d="M353.7 191.65L317.65 191.65"/>
<path d="M353.7 175.12L353.7 191.65"/>
<path d="M317.65 191.65L317.65 175.12"/>
<path d="M326.66 187.14L317.65 191.65"/>
<path d="M344.69 187.14L353.7 191.65"/>
<path d="M353.7 157.09L353.7 140.57"/>
<path d="M353.7 140.57L317.65 140.57"/>
<path d="M317.65 140.57L317.65 157.09"/>
<path d="M326.66 145.07L317.65 140.57"/>
<path d="M344.69 145.07L353.7 140.57"/>
<path d="M284.59 157.09L260.56 157.09"/>
<path d="M260.56 157.09L260.56 145.07"/>
<path d="M260.56 145.07L242.53 145.07"/>
<path d="M242.53 145.07L242.53 157.09"/>
<path d="M242.53 157.09L218.49 157.09"/>
<path d="M218.49 175.12L242.53 175.12"/>
<path d="M242.53 175.12L242.53 187.14"/>
<path d="M242.53 187.14L260.56 187.14"/>
<path d="M260.56 187.14L260.56 175.12"/>
<path d="M260.56 175.12L284.59 175.12"/>
<path d="M284.59 175.12L284.59 157.09"/>
<path d="M269.57 191.65L233.51 191.65"/>
<path d="M269.57 175.12L269.57 191.65"/>
<path d="M233.51 191.65L233.51 175.12"/>
<path d="M242.53 187.14L233.51 191.65"/>
<path d="M260.56 187.14L269.57 191.65"/>
<path d="M269.57 157.09L269.57 140.57"/>
<path d="M233.51 140.57L233.51 157.09"/>
<path d="M242.53 145.07L233.51 140.57"/>
<path d="M260.56 145.07L269.57 140.57"/>
<path d="M284.59 217.19L260.56 217.19"/>
<path d="M260.56 217.19L260.56 205.17"/>
<path d="M260.56 205.17L242.53 205.17"/>
<path d="M242.53 205.17L242.53 217.19"/>
<path d="M242.53 217.19L218.49 217.19"/>
<path d="M218.49 217.19L218.49 235.21"/>
<path d="M218.49 235.21L242.53 235.21"/>
<path d="M242.53 235.21L242.53 247.23"/>
<path d="M242.53 247.23L260.56 247.23"/>
<path d="M260.56 247.23L260.56 235.21"/>
<path d="M260.56 235.21L284.59 235.21"/>
<path d="M284.59 235.21L284.59 217.19"/>
<path d="M269.57 251.74L233.51 251.74"/>
<path d="M269.57 235.21L269.57 251.74"/>
<path d="M233.51 251.74L233.51 235.21"/>
<path d="M242.53 247.23L233.51 251.74"/>
<path d="M260.56 247.23L269.57 251.74"/>
<path d="M269.57 217.19L269.57 200.66"/>
<path d="M269.57 200.66L233.51 200.66"/>
<path d="M233.51 200.66L233.51 217.19"/>
<path d="M242.53 205.17L233.51 200.66"/>
<path d="M260.56 205.17L269.57 200.66"/>
<path d="M368.72 217.19L344.69 217.19"/>
<path d="M344.69 217.19L344.69 205.17"/>
<path d="M344.69 205.17L326.66 205.17"/>
<path d="M326.66 205.17L326.66 217.19"/>
<path d="M326.66 217.19L302.62 217.19"/>
<path d="M302.62 217.19L302.62 235.21"/>
<path d="M302.62 235.21L326.66 235.21"/>
<path d="M326.66 235.21L326.66 247.23"/>
<path d="M326.66 247.23L344.69 247.23"/>
<path d="M344.69 247.23L344.69 235.21"/>
<path d="M344.69 235.21L368.72 235.21"/>
<path d="M368.72 235.21L368.72 217.19"/>
<path d="M353.7 251.74L317.65 251.74"/>
<path d="M353.7 235.21L353.7 251.74"/>
<path d="M317.65 251.74L317.65 235.21"/>
<path d="M326.66 247.23L317.65 251.74"/>
<path d="M344.69 247.23L353.7 251.74"/>
<path d="M353.7 217.19L353.7 200.66"/>
<path d="M353.7 200.66L317.65 200.66"/>
<path d="M317.65 200.66L317.65 217.19"/>
<path d="M326.66 205.17L317.65 200.66"/>
<path d="M344.69 205.17L353.7 200.66"/>
<path d="M218.49 175.12L218.49 157.09"/>
<path d="M269.57 140.57L233.51 140.57"/>
<path d="M284.59 277.28L260.56 277.28"/>
<path d="M260.56 277.28L260.56 265.26"/>
<path d="M260.56 265.26L242.53 265.26"/>
<path d="M242.53 265.26L242.53 277.28"/>
<path d="M242.53 277.28L218.49 277.28"/>
<path d="M218.49 277.28L218.49 295.31"/>
<path d="M218.49 295.31L242.53 295.31"/>
<path d="M242.53 295.31L242.53 307.33"/>
<path d="M242.53 307.33L260.56 307.33"/>
<path d="M260.56 307.33L260.56 295.31"/>
<path d="M260.56 295.31L284.59 295.31"/>
<path d="M284.59 295.31L284.59 277.28"/>
<path d="M269.57 311.83L233.51 311.83"/>
<path d="M269.57 295.31L269.57 311.83"/>
<path d="M233.51 311.83L233.51 295.31"/>
<path d="M242.53 307.33L233.51 311.83"/>
<path d="M260.56 307.33L269.57 311.83"/>
<path d="M269.57 277.28L269.57 260.75"/>
<path d="M269.57 260.75L233.51 260.75"/>
<path d="M233.51 260.75L233.51 277.28"/>
<path d="M242.53 265.26L233.51 260.75"/>
<path d="M260.56 265.26L269.57 260.75"/>
<path d="M368.72 277.28L344.69 277.28"/>
<path d="M344.69 277.28L344.69 265.26"/>
<path d="M344.69 265.26L326.66 265.26"/>
<path d="M326.66 265.26L326.66 277.28"/>
<path d="M326.66 277.28L302.62 277.28"/>
<path d="M302.62 277.28L302.62 295.31"/>
<path d="M302.62 295.31L326.66 295.31"/>
<path d="M326.66 295.31L326.66 307.33"/>
<path d="M326.66 307.33L344.69 307.33"/>
<path d="M344.69 307.33L344.69 295.31"/>
<path d="M344.69 295.31L368.72 295.31"/>
<path d="M368.72 295.31L368.72 277.28"/>
<path d="M353.7 311.83L317.65 311.83"/>
<path d="M353.7 295.31L353.7 311.83"/>
<path d="M317.65 311.83L317.65 295.31"/>
<path d="M326.66 307.33L317.65 311.83"/>
<path d="M344.69 307.33L353.7 311.83"/>
<path d="M353.7 277.28L353.7 260.75"/>
<path d="M353.7 260.75L317.65 260.75"/>
<path d="M317.65 260.75L317.65 277.28"/>
<path d="M326.66 265.26L317.65 260.75"/>
<path d="M344.69 265.26L353.7 260.75"/>
<path d="M383.75 220.19L389.76 220.19"/>
<path d="M389.76 220.19L389.76 172.12"/>
<path d="M389.76 172.12L383.75 172.12"/>
<path d="M203.47 323.85L198.96 323.85"/>
<path d="M198.96 323.85L198.96 62.44"/>
<path d="M198.96 62.44L203.47 62.44"/>
<path d="M383.75 323.85L388.25 323.85"/>
<path d="M388.25 323.85L388.25 220.19"/>
<path d="M388.25 172.12L388.25 62.44"/>
<path d="M388.25 62.44L383.75 62.44"/>
<path d="M203.47 220.19L198.96 220.19"/>
<path d="M203.47 172.12L198.96 172.12"/>
<path d="M170.61 276.6L172.9 275.45M172.9 275.45L176.33 272.02M176.33 272.02L176.33 296.06"/>
<path d="M167.75 211.92L180.34 211.92M180.34 211.92L173.47 221.08M173.47 221.08L176.9 221.08M176.9 221.08L179.19 222.23M179.19 222.23L180.34 223.37M180.34 223.37L181.48 226.8M181.48 226.8L181.48 229.09M181.48 229.09L180.34 232.53M180.34 232.53L178.05 234.82M178.05 234.82L174.61 235.96M174.61 235.96L171.18 235.96M171.18 235.96L167.75 234.82M167.75 234.82L166.6 233.67M166.6 233.67L165.46 231.38"/>
<path d="M179.19 151.83L167.75 151.83M167.75 151.83L166.6 162.13M166.6 162.13L167.75 160.99M167.75 160.99L171.18 159.84M171.18 159.84L174.61 159.84M174.61 159.84L178.05 160.99M178.05 160.99L180.34 163.28M180.34 163.28L181.48 166.71M181.48 166.71L181.48 169M181.48 169L180.34 172.43M180.34 172.43L178.05 174.72M178.05 174.72L174.61 175.87M174.61 175.87L171.18 175.87M171.18 175.87L167.75 174.72M167.75 174.72L166.6 173.58M166.6 173.58L165.46 171.29"/>
<path d="M165.46 91.74L181.48 91.74M181.48 91.74L170.04 115.78"/>
<path d="M418.99 277.74L418.99 276.6M418.99 276.6L420.14 274.31M420.14 274.31L421.28 273.16M421.28 273.16L423.57 272.02M423.57 272.02L428.15 272.02M428.15 272.02L430.44 273.16M430.44 273.16L431.59 274.31M431.59 274.31L432.73 276.6M432.73 276.6L432.73 278.89M432.73 278.89L431.59 281.18M431.59 281.18L429.3 284.61M429.3 284.61L417.85 296.06M417.85 296.06L433.87 296.06"/>
<path d="M428.72 211.92L417.28 227.95M417.28 227.95L434.45 227.95M428.72 211.92L428.72 235.96"/>
<path d="M432.16 155.27L431.01 152.98M431.01 152.98L427.58 151.83M427.58 151.83L425.29 151.83M425.29 151.83L421.86 152.98M421.86 152.98L419.57 156.41M419.57 156.41L418.42 162.13M418.42 162.13L418.42 167.86M418.42 167.86L419.57 172.43M419.57 172.43L421.86 174.72M421.86 174.72L425.29 175.87M425.29 175.87L426.43 175.87M426.43 175.87L429.87 174.72M429.87 174.72L432.16 172.43M432.16 172.43L433.3 169M433.3 169L433.3 167.86M433.3 167.86L432.16 164.42M432.16 164.42L429.87 162.13M429.87 162.13L426.43 160.99M426.43 160.99L425.29 160.99M425.29 160.99L421.86 162.13M421.86 162.13L419.57 164.42M419.57 164.42L418.42 167.86"/>
<path d="M423.57 91.74L420.14 92.88M420.14 92.88L418.99 95.17M418.99 95.17L418.99 97.46M418.99 97.46L420.14 99.75M420.14 99.75L422.43 100.9M422.43 100.9L427.01 102.04M427.01 102.04L430.44 103.18M430.44 103.18L432.73 105.47M432.73 105.47L433.87 107.76M433.87 107.76L433.87 111.2M433.87 111.2L432.73 113.49M432.73 113.49L431.59 114.63M431.59 114.63L428.15 115.78M428.15 115.78L423.57 115.78M423.57 115.78L420.14 114.63M420.14 114.63L418.99 113.49M418.99 113.49L417.85 111.2M417.85 111.2L417.85 107.76M417.85 107.76L418.99 105.47M418.99 105.47L421.28 103.18M421.28 103.18L424.72 102.04M424.72 102.04L429.3 100.9M429.3 100.9L431.59 99.75M431.59 99.75L432.73 97.46M432.73 97.46L432.73 95.17M432.73 95.17L431.59 92.88M431.59 92.88L428.15 91.74M428.15 91.74L423.57 91.74"/>
</g>
</g>
</svg>
