<?xml version="1.0" standalone="no"?><svg xmlns="http://www.w3.org/2000/svg" width="600.000" height="450.000" viewBox="0.0 0.0 600.000 450.000" version="1.1">
<title>Acme Converter - Post-processed with EDS-Designer: 14.44 (info@symca.com)</title>
<desc>Acme Converter - Post-processed with EDS-Designer: 14.44 (info@symca.com)</desc>
<g id="EDS_STYLE_GROUP" fill="none" stroke="black" stroke-width="1.0">
<g id="0" display="visible">
<path d="M188.24 408.96L188.24 382.57M189.5 382.57L189.5 408.96M184.47 382.57L197.04 382.57M197.04 382.57L200.81 383.83M200.81 383.83L203.32 386.34M203.32 386.34L204.58 388.85M204.58 388.85L205.83 392.62M205.83 392.62L205.83 398.91M205.83 398.91L204.58 402.68M204.58 402.68L203.32 405.19M203.32 405.19L200.81 407.7M200.81 407.7L197.04 408.96M197.04 408.96L184.47 408.96M197.04 382.57L199.55 383.83M199.55 383.83L202.06 386.34M202.06 386.34L203.32 388.85M203.32 388.85L204.58 392.62M204.58 392.62L204.58 398.91M204.58 398.91L203.32 402.68M203.32 402.68L202.06 405.19M202.06 405.19L199.55 407.7M199.55 407.7L197.04 408.96M223.42 382.57L214.63 408.96M223.42 382.57L232.22 408.96M223.42 386.34L230.96 408.96M217.14 401.42L228.45 401.42M212.11 408.96L219.65 408.96M227.19 408.96L234.73 408.96M242.27 408.96L242.27 382.57M243.53 382.57L243.53 408.96M238.5 382.57L253.58 382.57M253.58 382.57L257.35 383.83M257.35 383.83L258.6 385.09M258.6 385.09L259.86 387.6M259.86 387.6L259.86 390.11M259.86 390.11L258.6 392.62M258.6 392.62L257.35 393.88M257.35 393.88L253.58 395.14M253.58 395.14L243.53 395.14M253.58 382.57L256.09 383.83M256.09 383.83L257.35 385.09M257.35 385.09L258.6 387.6M258.6 387.6L258.6 390.11M258.6 390.11L257.35 392.62M257.35 392.62L256.09 393.88M256.09 393.88L253.58 395.14M238.5 408.96L247.29 408.96M249.81 395.14L252.32 396.39M252.32 396.39L253.58 397.65M253.58 397.65L257.35 406.44M257.35 406.44L258.6 407.7M258.6 407.7L259.86 407.7M259.86 407.7L261.12 406.44M252.32 396.39L253.58 398.91M253.58 398.91L256.09 407.7M256.09 407.7L257.35 408.96M257.35 408.96L259.86 408.96M259.86 408.96L261.12 406.44M261.12 406.44L261.12 405.19M269.91 408.96L269.91 382.57M271.17 382.57L271.17 408.96M287.5 382.57L271.17 398.91M277.45 393.88L287.5 408.96M276.19 393.88L286.25 408.96M266.14 382.57L274.94 382.57M282.48 382.57L290.01 382.57M266.14 408.96L274.94 408.96M282.48 408.96L290.01 408.96M337.76 386.34L339.02 390.11M339.02 390.11L339.02 382.57M339.02 382.57L337.76 386.34M337.76 386.34L335.25 383.83M335.25 383.83L331.48 382.57M331.48 382.57L328.96 382.57M328.96 382.57L325.2 383.83M325.2 383.83L322.68 386.34M322.68 386.34L321.43 388.85M321.43 388.85L320.17 392.62M320.17 392.62L320.17 398.91M320.17 398.91L321.43 402.68M321.43 402.68L322.68 405.19M322.68 405.19L325.2 407.7M325.2 407.7L328.96 408.96M328.96 408.96L331.48 408.96M331.48 408.96L335.25 407.7M335.25 407.7L337.76 405.19M328.96 382.57L326.45 383.83M326.45 383.83L323.94 386.34M323.94 386.34L322.68 388.85M322.68 388.85L321.43 392.62M321.43 392.62L321.43 398.91M321.43 398.91L322.68 402.68M322.68 402.68L323.94 405.19M323.94 405.19L326.45 407.7M326.45 407.7L328.96 408.96M337.76 398.91L337.76 408.96M339.02 398.91L339.02 408.96M333.99 398.91L342.79 398.91M352.84 408.96L352.84 382.57M354.09 382.57L354.09 408.96M349.07 382.57L364.15 382.57M364.15 382.57L367.92 383.83M367.92 383.83L369.17 385.09M369.17 385.09L370.43 387.6M370.43 387.6L370.43 390.11M370.43 390.11L369.17 392.62M369.17 392.62L367.92 393.88M367.92 393.88L364.15 395.14M364.15 395.14L354.09 395.14M364.15 382.57L366.66 383.83M366.66 383.83L367.92 385.09M367.92 385.09L369.17 387.6M369.17 387.6L369.17 390.11M369.17 390.11L367.92 392.62M367.92 392.62L366.66 393.88M366.66 393.88L364.15 395.14M349.07 408.96L357.86 408.96M360.38 395.14L362.89 396.39M362.89 396.39L364.15 397.65M364.15 397.65L367.92 406.44M367.92 406.44L369.17 407.7M369.17 407.7L370.43 407.7M370.43 407.7L371.68 406.44M362.89 396.39L364.15 398.91M364.15 398.91L366.66 407.7M366.66 407.7L367.92 408.96M367.92 408.96L370.43 408.96M370.43 408.96L371.68 406.44M371.68 406.44L371.68 405.19M380.48 408.96L380.48 382.57M381.74 382.57L381.74 408.96M389.27 390.11L389.27 400.16M376.71 382.57L396.81 382.57M396.81 382.57L396.81 390.11M396.81 390.11L395.56 382.57M381.74 395.14L389.27 395.14M376.71 408.96L396.81 408.96M396.81 408.96L396.81 401.42M396.81 401.42L395.56 408.96M405.61 382.57L414.4 396.39M414.4 396.39L414.4 408.96M406.87 382.57L415.66 396.39M415.66 396.39L415.66 408.96M424.46 382.57L415.66 396.39M403.1 382.57L410.63 382.57M419.43 382.57L426.97 382.57M410.63 408.96L419.43 408.96"/>
<path d="M462.04 231.44L464.05 230.44M464.05 230.44L467.07 227.42M467.07 227.42L467.07 248.53"/>
<path d="M133.98 232.49L133.98 231.49M133.98 231.49L134.99 229.48M134.99 229.48L135.99 228.47M135.99 228.47L138 227.47M138 227.47L142.02 227.47M142.02 227.47L144.03 228.47M144.03 228.47L145.04 229.48M145.04 229.48L146.04 231.49M146.04 231.49L146.04 233.5M146.04 233.5L145.04 235.51M145.04 235.51L143.03 238.52M143.03 238.52L132.97 248.58M132.97 248.58L147.05 248.58"/>
<path d="M221.42 138.1L221.38 138.1"/>
<path d="M259.97 345.92L259.97 344.84M259.97 344.58L259.97 344.53M259.97 344.27L259.97 343.22M259.97 342.95L259.97 342.91M259.97 342.64L259.97 341.59M259.97 341.33L259.97 341.28M259.97 341.02L259.97 339.94"/>
<path d="M352.01 352.6L335.33 352.6M331.25 352.6L330.57 352.6M326.48 352.6L310.14 352.6M306.06 352.6L305.38 352.6M301.29 352.6L284.95 352.6M280.87 352.6L280.18 352.6M276.1 352.6L259.42 352.6"/>
<path d="M351.47 339.94L351.47 341.02M351.47 341.28L351.47 341.33M351.47 341.59L351.47 342.65M351.47 342.91L351.47 342.96M351.47 343.22L351.47 344.28M351.47 344.54L351.47 344.59M351.47 344.85L351.47 345.93"/>
<path d="M439.39 221.08L439.39 224.19M439.39 224.95L439.39 225.07M439.39 225.83L439.39 228.87M439.39 229.63L439.39 229.76M439.39 230.52L439.39 233.56M439.39 234.32L439.39 234.45M439.39 235.21L439.39 238.32"/>
<path d="M172.05 238.31L172.05 235.2M172.05 234.44L172.05 234.32M172.05 233.56L172.05 230.52M172.05 229.76L172.05 229.63M172.05 228.87L172.05 225.83M172.05 225.07L172.05 224.94M172.05 224.18L172.05 221.08"/>
<path d="M177.43 119.98L175.49 119.98M175.02 119.98L174.94 119.98M174.46 119.98L172.56 119.98M172.09 119.98L172.01 119.98M171.53 119.98L169.63 119.98M169.15 119.98L169.07 119.98M168.6 119.98L166.66 119.98"/>
<path d="M275.76 204.57L272.98 204.57M272.29 204.57L272.18 204.57M271.5 204.57L268.78 204.57M268.09 204.57L267.98 204.57M267.3 204.57L264.58 204.57M263.89 204.57L263.78 204.57M263.1 204.57L260.32 204.57"/>
<path d="M250.98 195.81L250.87 194.52M250.84 194.21L250.84 194.15M250.81 193.84L250.7 192.58M250.67 192.26L250.67 192.21M250.64 191.9L250.53 190.64M250.5 190.32L250.5 190.27M250.47 189.95L250.36 188.67"/>
<path d="M383.77 238.31L383.77 235.2M383.77 234.44L383.77 234.32M383.77 233.56L383.77 230.52M383.77 229.76L383.77 229.63M383.77 228.87L383.77 225.83M383.77 225.07L383.77 224.94M383.77 224.18L383.77 221.08"/>
<path d="M285.94 186.25L285.78 188.01M285.75 188.44L285.74 188.51M285.7 188.95L285.55 190.67M285.51 191.1L285.51 191.17M285.47 191.61L285.32 193.33M285.28 193.76L285.27 193.83M285.24 194.27L285.08 196.03"/>
<path d="M225.88 238.31L225.88 235.2M225.88 234.44L225.88 234.32M225.88 233.56L225.88 230.52M225.88 229.76L225.88 229.63M225.88 228.87L225.88 225.83M225.88 225.07L225.88 224.94M225.88 224.18L225.88 221.08"/>
<path d="M390.02 138.1L390.05 138.1"/>
<path d="M444.77 119.98L442.83 119.98M442.36 119.98L442.28 119.98M441.8 119.98L439.9 119.98M439.43 119.98L439.35 119.98M438.87 119.98L436.97 119.98M436.49 119.98L436.41 119.98M435.94 119.98L434 119.98"/>
<path d="M209.31 173.18L246.14 173.18"/>
<path d="M365.3 173.18L402.13 173.18"/>
<path d="M338.02 305.95L350.58 305.95"/>
<path d="M350.58 309.51L350.58 305.95"/>
<path d="M348.78 309.54L364.95 307.71M364.95 307.71L380.31 302.34M380.31 302.34L394.09 293.68M394.09 293.68L405.59 282.18M405.59 282.18L414.25 268.4M414.25 268.4L419.63 253.04M419.63 253.04L421.45 236.87"/>
<path d="M421.45 222.52L421.45 236.87"/>
<path d="M421.45 222.52L420.19 209.04M420.19 209.04L416.45 196.02M416.45 196.02L410.36 183.93M410.36 183.93L402.13 173.18"/>
<path d="M407.8 188.39L402.13 180.06"/>
<path d="M402.13 173.18L402.13 169.59"/>
<path d="M402.13 180.06L402.13 173.18"/>
<path d="M209.31 169.59L209.31 173.18"/>
<path d="M209.31 180.06L203.64 188.39"/>
<path d="M209.31 173.18L201.08 183.93M201.08 183.93L194.99 196.02M194.99 196.02L191.25 209.04M191.25 209.04L189.99 222.52"/>
<path d="M189.99 236.87L189.99 222.52"/>
<path d="M189.99 236.87L191.81 253.04M191.81 253.04L197.19 268.4M197.19 268.4L205.85 282.18M205.85 282.18L217.35 293.68M217.35 293.68L231.13 302.34M231.13 302.34L246.49 307.71M246.49 307.71L262.66 309.54"/>
<path d="M260.86 309.51L260.86 305.95"/>
<path d="M273.42 305.95L260.86 305.95"/>
<path d="M273.42 309.54L273.42 305.95"/>
<path d="M277.91 314.02L277.31 311.78M277.31 311.78L275.67 310.14M275.67 310.14L273.42 309.54"/>
<path d="M277.91 329.27L277.91 314.02"/>
<path d="M277.91 329.27L278.63 331.96M278.63 331.96L280.6 333.93M280.6 333.93L283.29 334.66"/>
<path d="M328.15 334.66L283.29 334.66"/>
<path d="M328.15 334.66L330.84 333.93M330.84 333.93L332.81 331.96M332.81 331.96L333.53 329.27"/>
<path d="M333.53 314.02L333.53 329.27"/>
<path d="M338.02 309.54L335.77 310.14M335.77 310.14L334.13 311.78M334.13 311.78L333.53 314.02"/>
<path d="M338.02 309.54L338.02 305.95"/>
<path d="M348.78 309.54L338.02 309.54"/>
<path d="M426.83 236.87L421.45 236.87"/>
<path d="M348.78 314.92L348.78 309.54"/>
<path d="M348.78 314.92L366.15 312.96M366.15 312.96L382.65 307.19M382.65 307.19L397.44 297.89M397.44 297.89L409.8 285.53M409.8 285.53L419.1 270.73M419.1 270.73L424.87 254.24M424.87 254.24L426.83 236.87"/>
<path d="M426.83 222.52L421.45 222.52"/>
<path d="M426.83 222.52L426.83 236.87"/>
<path d="M407.51 164.2L404.82 164.93M404.82 164.93L402.85 166.9M402.85 166.9L402.13 169.59"/>
<path d="M426.83 222.52L425.27 207M425.27 207L420.66 192.09M420.66 192.09L413.17 178.41M413.17 178.41L403.11 166.48"/>
<path d="M405.84 177.52L402.13 180.06"/>
<path d="M411.52 185.85L407.8 188.39"/>
<path d="M416.96 64.36L416.96 164.2"/>
<path d="M388.43 93.33L388.43 94.48"/>
<path d="M388.72 98.89L388.72 96.2"/>
<path d="M390.02 126.08L389.81 110.19M389.81 110.19L389.77 109.72M389.77 109.72L389.76 109.68M389.76 109.68L389.75 109.66"/>
<path d="M390.05 126.08L390.05 173.18"/>
<path d="M390.05 126.08L390.02 126.08"/>
<path d="M390.02 126.08L359.58 126.08"/>
<path d="M359.58 126.08L359.35 171.57"/>
<path d="M359.58 126.08L359.73 111.76M359.73 111.76L359.82 109.75"/>
<path d="M251.87 126.08L251.67 110.5M251.67 110.5L251.62 109.75"/>
<path d="M252.09 171.57L251.87 126.08"/>
<path d="M251.87 126.08L221.42 126.08"/>
<path d="M221.39 126.08L221.42 126.08"/>
<path d="M221.39 173.18L221.39 126.08"/>
<path d="M221.42 126.08L221.63 110.19M221.63 110.19L221.67 109.72M221.67 109.72L221.68 109.68M221.68 109.68L221.69 109.66"/>
<path d="M222.73 98.89L222.73 96.2"/>
<path d="M223.01 93.33L223.01 94.47"/>
<path d="M194.48 164.2L194.48 64.36"/>
<path d="M209.31 169.59L208.59 166.9M208.59 166.9L206.62 164.93M206.62 164.93L203.93 164.2"/>
<path d="M208.33 166.48L198.27 178.41M198.27 178.41L190.78 192.09M190.78 192.09L186.17 207M186.17 207L184.61 222.52"/>
<path d="M184.61 222.52L189.99 222.52"/>
<path d="M205.6 177.52L209.31 180.06"/>
<path d="M199.92 185.85L203.64 188.39"/>
<path d="M184.61 236.87L189.99 236.87"/>
<path d="M184.61 236.87L184.61 222.52"/>
<path d="M262.66 314.92L262.66 309.54"/>
<path d="M184.61 236.87L186.57 254.24M186.57 254.24L192.34 270.73M192.34 270.73L201.64 285.53M201.64 285.53L214 297.89M214 297.89L228.79 307.19M228.79 307.19L245.29 312.96M245.29 312.96L262.66 314.92"/>
<path d="M273.42 309.54L262.66 309.54"/>
<path d="M272.53 314.92L262.66 314.92"/>
<path d="M276.6 310.85L272.53 314.92"/>
<path d="M272.53 329.27L277.91 329.27"/>
<path d="M272.53 329.27L272.53 314.92"/>
<path d="M283.29 340.04L283.29 334.66"/>
<path d="M272.53 329.27L273.97 334.66M273.97 334.66L277.91 338.6M277.91 338.6L283.29 340.04"/>
<path d="M328.15 340.04L328.15 334.66"/>
<path d="M328.15 340.04L283.29 340.04"/>
<path d="M338.91 329.27L333.53 329.27"/>
<path d="M328.15 340.04L333.53 338.6M333.53 338.6L337.47 334.66M337.47 334.66L338.91 329.27"/>
<path d="M334.84 310.85L338.91 314.92"/>
<path d="M338.91 314.92L338.91 329.27"/>
<path d="M348.78 314.92L338.91 314.92"/>
<path d="M172.05 236.87L173.88 254.97M173.88 254.97L179.28 272.34M179.28 272.34L188.05 288.28M188.05 288.28L199.82 302.15M199.82 302.15L214.12 313.38M214.12 313.38L230.38 321.54M230.38 321.54L247.94 326.28"/>
<path d="M259.97 340.44L258.42 333.95M258.42 333.95L254.1 328.86M254.1 328.86L247.95 326.28"/>
<path d="M259.97 345.42L259.97 340.44"/>
<path d="M259.97 345.42L260.93 349.01M260.93 349.01L263.56 351.64M263.56 351.64L267.14 352.6"/>
<path d="M344.3 352.6L267.14 352.6"/>
<path d="M344.3 352.6L347.89 351.64M347.89 351.64L350.51 349.01M350.51 349.01L351.47 345.42"/>
<path d="M351.47 340.44L351.47 345.42"/>
<path d="M363.5 326.28L357.34 328.86M357.34 328.86L353.02 333.95M353.02 333.95L351.47 340.44"/>
<path d="M363.5 326.28L381.06 321.54M381.06 321.54L397.32 313.38M397.32 313.38L411.62 302.15M411.62 302.15L423.4 288.28M423.4 288.28L432.16 272.34M432.16 272.34L437.56 254.97M437.56 254.97L439.39 236.87"/>
<path d="M439.39 222.52L439.39 236.87"/>
<path d="M439.39 222.52L437.74 205.33M437.74 205.33L432.87 188.76"/>
<path d="M431.32 180.74L432.87 188.76"/>
<path d="M431.32 64.36L431.32 180.74"/>
<path d="M431.32 64.36L429.81 56.8M429.81 56.8L425.54 50.4M425.54 50.4L419.13 46.12M419.13 46.12L411.58 44.62"/>
<path d="M199.86 44.62L411.58 44.62"/>
<path d="M199.86 44.62L192.31 46.12M192.31 46.12L185.91 50.4M185.91 50.4L181.63 56.8M181.63 56.8L180.12 64.36"/>
<path d="M180.12 180.74L180.12 64.36"/>
<path d="M178.57 188.76L180.12 180.74"/>
<path d="M178.57 188.76L173.7 205.33M173.7 205.33L172.05 222.52"/>
<path d="M172.05 236.87L172.05 222.52"/>
<path d="M203.93 164.2L194.48 164.2"/>
<path d="M199.86 58.97L197.17 59.69M197.17 59.69L195.2 61.66M195.2 61.66L194.48 64.36"/>
<path d="M199.86 58.97L411.58 58.97"/>
<path d="M416.96 64.36L416.24 61.66M416.24 61.66L414.27 59.69M414.27 59.69L411.58 58.97"/>
<path d="M416.96 164.2L407.51 164.2"/>
<path d="M411.58 137.92L407.99 137.92"/>
<path d="M416.96 143.3L416.24 140.61M416.24 140.61L414.27 138.64M414.27 138.64L411.58 137.92"/>
<path d="M402.61 118.45L416.96 118.45"/>
<path d="M402.61 132.54L402.61 118.45"/>
<path d="M402.61 132.54L404.19 136.34M404.19 136.34L407.99 137.92"/>
<path d="M167.57 41.03L158.59 41.03"/>
<path d="M167.57 41.03L199.86 41.03"/>
<path d="M199.86 41.03L411.58 41.03"/>
<path d="M411.58 41.03L443.88 41.03"/>
<path d="M452.85 41.03L443.88 41.03"/>
<path d="M452.85 41.03L452.85 119.98"/>
<path d="M452.85 128.95L452.85 119.98"/>
<path d="M443.88 137.92L448.36 136.72M448.36 136.72L451.65 133.43M451.65 133.43L452.85 128.95"/>
<path d="M443.88 137.92L434.9 137.92"/>
<path d="M434.9 64.36L434.9 180.74"/>
<path d="M176.54 180.74L176.54 64.36"/>
<path d="M176.54 137.92L167.57 137.92"/>
<path d="M158.59 128.95L159.8 133.43M159.8 133.43L163.08 136.72M163.08 136.72L167.57 137.92"/>
<path d="M158.59 119.98L158.59 128.95"/>
<path d="M158.59 41.03L158.59 119.98"/>
<path d="M194.48 118.45L208.83 118.45"/>
<path d="M208.83 118.45L208.83 132.54"/>
<path d="M203.45 137.92L206.14 137.2M206.14 137.2L208.11 135.23M208.11 135.23L208.83 132.54"/>
<path d="M203.45 137.92L199.86 137.92"/>
<path d="M199.86 137.92L197.17 138.64M197.17 138.64L195.2 140.61M195.2 140.61L194.48 143.3"/>
<path d="M359.55 131.19L350.09 131.19"/>
<path d="M388.72 96.2L387.89 93.33"/>
<path d="M326.8 93.33L326.8 96.2"/>
<path d="M389.09 100.69L388.49 98.45M388.49 98.45L386.85 96.8M386.85 96.8L384.61 96.2"/>
<path d="M380.12 109.66L380.12 100.69"/>
<path d="M389.09 100.69L380.12 100.69"/>
<path d="M350.09 109.66L359.31 109.66"/>
<path d="M389.75 109.66L359.31 109.66"/>
<path d="M359.83 109.74L359.31 109.67"/>
<path d="M350.09 109.66L350.09 131.19"/>
<path d="M261.35 131.19L251.89 131.19"/>
<path d="M261.35 109.66L261.35 131.19"/>
<path d="M252.13 109.66L261.35 109.66"/>
<path d="M252.13 109.68L251.61 109.74"/>
<path d="M252.13 109.66L221.69 109.66"/>
<path d="M231.32 100.69L231.32 109.66"/>
<path d="M222.35 100.69L231.32 100.69"/>
<path d="M226.84 96.2L224.59 96.8M224.59 96.8L222.95 98.45M222.95 98.45L222.35 100.69"/>
<path d="M284.64 93.33L284.64 96.2"/>
<path d="M223.56 93.32L222.72 96.2"/>
<path d="M247.94 326.28L247.36 329.82"/>
<path d="M172.05 236.87L168.46 236.87"/>
<path d="M168.46 236.87L170.36 255.69M170.36 255.69L175.98 273.74M175.98 273.74L185.09 290.31M185.09 290.31L197.33 304.73M197.33 304.73L212.2 316.41M212.2 316.41L229.1 324.89M229.1 324.89L247.36 329.82"/>
<path d="M259.97 340.44L256.38 340.44"/>
<path d="M256.38 340.44L255.22 335.57M255.22 335.57L251.98 331.76M251.98 331.76L247.36 329.82"/>
<path d="M259.97 345.42L256.38 345.42"/>
<path d="M256.38 345.42L256.38 340.44"/>
<path d="M267.14 352.6L267.14 356.19"/>
<path d="M256.38 345.42L257.8 350.76M257.8 350.76L261.68 354.7M261.68 354.7L267 356.19"/>
<path d="M344.3 352.6L344.3 356.19"/>
<path d="M344.3 356.19L267.14 356.19"/>
<path d="M351.47 345.42L355.06 345.42"/>
<path d="M344.3 356.19L349.64 354.77M349.64 354.77L353.57 350.88M353.57 350.88L355.06 345.56"/>
<path d="M351.47 340.44L355.06 340.44"/>
<path d="M355.06 340.44L355.06 345.42"/>
<path d="M363.5 326.28L364.08 329.82"/>
<path d="M364.08 329.82L359.46 331.76M359.46 331.76L356.22 335.57M356.22 335.57L355.06 340.44"/>
<path d="M439.39 236.87L442.98 236.87"/>
<path d="M364.08 329.82L382.34 324.89M382.34 324.89L399.24 316.41M399.24 316.41L414.11 304.73M414.11 304.73L426.35 290.31M426.35 290.31L435.46 273.74M435.46 273.74L441.08 255.69M441.08 255.69L442.98 236.87"/>
<path d="M439.39 222.52L442.98 222.52"/>
<path d="M442.98 222.52L442.98 236.87"/>
<path d="M432.87 188.76L436.2 187.42"/>
<path d="M442.98 222.52L441.27 204.64M441.27 204.64L436.2 187.42"/>
<path d="M431.32 180.74L434.9 180.74"/>
<path d="M434.9 180.74L436.2 187.42"/>
<path d="M431.32 64.36L434.9 64.36"/>
<path d="M411.58 44.62L411.58 41.03"/>
<path d="M434.91 64.36L433.14 55.45M433.14 55.45L428.1 47.89M428.1 47.89L420.55 42.83M420.55 42.83L411.65 41.03"/>
<path d="M199.86 44.62L199.86 41.03"/>
<path d="M180.12 64.36L176.54 64.36"/>
<path d="M199.86 41.03L190.93 42.81M190.93 42.81L183.37 47.86M183.37 47.86L178.31 55.43M178.31 55.43L176.54 64.36"/>
<path d="M180.12 180.74L176.54 180.74"/>
<path d="M178.57 188.76L175.25 187.42"/>
<path d="M175.24 187.42L176.54 180.74"/>
<path d="M172.05 222.52L168.46 222.52"/>
<path d="M175.24 187.42L170.17 204.64M170.17 204.64L168.46 222.52"/>
<path d="M168.46 236.87L168.46 222.52"/>
<path d="M158.59 119.98L167.57 119.98"/>
<path d="M167.57 41.03L167.57 119.98"/>
<path d="M176.54 119.98L167.57 119.98"/>
<path d="M443.88 119.98L434.9 119.98"/>
<path d="M443.88 41.03L443.88 119.98"/>
<path d="M443.88 119.98L452.85 119.98"/>
<path d="M443.88 137.92L443.88 119.98"/>
<path d="M167.57 137.92L167.57 119.98"/>
<path d="M216.01 118.45L208.83 118.45"/>
<path d="M216.01 93.33L216.01 118.45"/>
<path d="M287.78 93.33L216.01 93.33"/>
<path d="M287.78 95.37L287.78 93.33"/>
<path d="M323.66 95.37L287.78 95.37"/>
<path d="M323.66 95.37L323.66 93.33"/>
<path d="M395.43 93.33L323.66 93.33"/>
<path d="M395.43 118.45L395.43 93.33"/>
<path d="M402.61 118.45L395.43 118.45"/>
<path d="M413.37 111.27L416.96 111.27"/>
<path d="M413.37 96.92L413.37 111.27"/>
<path d="M413.37 96.92L412.06 88.6M412.06 88.6L408.23 81.1M408.23 81.1L402.28 75.15M402.28 75.15L394.78 71.33M394.78 71.33L386.46 70.01"/>
<path d="M224.98 70.01L386.46 70.01"/>
<path d="M224.98 70.01L216.66 71.33M216.66 71.33L209.16 75.15M209.16 75.15L203.21 81.1M203.21 81.1L199.38 88.6M199.38 88.6L198.07 96.92"/>
<path d="M198.07 111.27L198.07 96.92"/>
<path d="M194.48 111.27L198.07 111.27"/>
<path d="M351.44 131.19L351.44 140.16"/>
<path d="M260 131.19L260 140.16"/>
<path d="M348.38 115.57L348.32 124.51"/>
<path d="M348.31 136.32L348.31 124.51"/>
<path d="M348.32 136.32L348.38 148.78"/>
<path d="M348.39 148.78L348.52 155.23"/>
<path d="M348.72 155.23L348.52 155.23"/>
<path d="M349.99 145.54L348.72 155.23"/>
<path d="M351.12 145.54L349.99 145.54"/>
<path d="M351.44 140.16L351.12 145.54"/>
<path d="M350.58 100.69L350.58 109.66"/>
<path d="M350.58 100.69L350.62 96.2"/>
<path d="M350.58 96.2L348.39 115.57"/>
<path d="M332.63 96.2L323.66 96.2"/>
<path d="M332.63 96.2L350.58 96.2"/>
<path d="M350.62 96.2L380.12 96.2"/>
<path d="M384.61 96.2L380.12 96.2"/>
<path d="M231.32 96.2L226.84 96.2"/>
<path d="M260.83 96.2L231.32 96.2"/>
<path d="M278.81 96.2L260.86 96.2"/>
<path d="M287.78 96.2L278.81 96.2"/>
<path d="M380.12 100.69L380.12 96.2"/>
<path d="M350.58 100.69L380.12 100.69"/>
<path d="M260 140.16L260.32 145.54"/>
<path d="M260.32 145.54L261.45 145.54"/>
<path d="M261.45 145.54L262.72 155.23"/>
<path d="M262.92 155.23L262.72 155.23"/>
<path d="M263.05 148.78L262.92 155.23"/>
<path d="M263.06 148.78L263.12 136.32"/>
<path d="M263.13 124.51L263.13 136.32"/>
<path d="M263.12 124.51L263.06 115.57"/>
<path d="M260.86 96.2L263.06 115.57"/>
<path d="M260.83 96.2L260.86 100.69"/>
<path d="M260.86 109.66L260.86 100.69"/>
<path d="M260.86 100.69L231.32 100.69"/>
<path d="M231.32 96.2L231.32 100.69"/>
<path d="M194.48 102.3L198.07 102.3"/>
<path d="M413.37 102.3L416.96 102.3"/>
<path d="M287.78 123.83L287.78 119.94"/>
<path d="M287.78 110.99L287.78 119.94"/>
<path d="M287.78 110.99L287.78 104.32"/>
<path d="M287.78 104.32L287.78 95.37"/>
<path d="M323.66 104.32L287.78 104.32"/>
<path d="M323.66 95.37L323.66 104.32"/>
<path d="M323.66 110.99L323.66 104.32"/>
<path d="M323.66 119.94L323.66 110.99"/>
<path d="M323.66 123.83L323.66 119.94"/>
<path d="M332.63 124.51L332.63 132.81"/>
<path d="M332.63 124.51L332.63 115.57"/>
<path d="M332.63 96.2L332.63 115.57"/>
<path d="M287.78 113.25L278.81 113.25"/>
<path d="M332.63 113.25L323.66 113.25"/>
<path d="M278.81 115.57L278.81 96.2"/>
<path d="M278.81 124.51L278.81 115.57"/>
<path d="M278.81 124.51L278.81 132.81"/>
<path d="M332.63 124.51L348.31 124.51"/>
<path d="M332.63 115.57L348.39 115.57"/>
<path d="M263.13 124.51L278.81 124.51"/>
<path d="M263.13 136.32L348.31 136.32"/>
<path d="M332.63 132.81L278.81 132.81"/>
<path d="M263.05 148.78L348.39 148.78"/>
<path d="M262.92 155.23L348.52 155.23"/>
<path d="M263.06 115.57L278.81 115.57"/>
<path d="M252.25 61.04L244.81 62.09M244.81 62.09L237.94 65.16M237.94 65.16L232.19 70.01"/>
<path d="M252.25 65.52L245.16 66.67M245.16 66.67L238.8 70.01"/>
<path d="M252.25 61.04L252.25 65.52"/>
<path d="M379.25 70.01L373.5 65.16M373.5 65.16L366.63 62.09M366.63 62.09L359.19 61.04"/>
<path d="M359.19 61.04L359.19 65.52"/>
<path d="M372.64 70.01L366.28 66.67M366.28 66.67L359.19 65.52"/>
<path d="M359.19 65.52L252.25 65.52"/>
<path d="M252.25 61.04L244.81 62.09M244.81 62.09L237.94 65.16M237.94 65.16L232.19 70.01"/>
<path d="M379.25 70.01L373.5 65.16M373.5 65.16L366.63 62.09M366.63 62.09L359.19 61.04"/>
<path d="M369.35 58.97L379.28 70.01"/>
<path d="M232.16 70.01L242.09 58.97"/>
<path d="M252.25 61.04L244.81 62.09M244.81 62.09L237.94 65.16M237.94 65.16L232.19 70.01"/>
<path d="M379.25 70.01L373.5 65.16M373.5 65.16L366.63 62.09M366.63 62.09L359.19 61.04"/>
<path d="M287.78 119.94L323.66 119.94"/>
<path d="M287.78 110.99L323.66 110.99"/>
<path d="M359.19 61.04L252.25 61.04"/>
<path d="M359.19 61.04L252.25 61.04"/>
<path d="M359.19 61.04L252.25 61.04"/>
<path d="M210.63 236.87L212.4 250.34M212.4 250.34L217.6 262.89M217.6 262.89L225.87 273.66M225.87 273.66L236.64 281.93M236.64 281.93L249.19 287.13M249.19 287.13L262.66 288.9"/>
<path d="M210.63 236.87L210.63 222.52"/>
<path d="M262.66 170.48L249.19 172.26M249.19 172.26L236.64 177.46M236.64 177.46L225.87 185.72M225.87 185.72L217.6 196.5M217.6 196.5L212.4 209.05M212.4 209.05L210.63 222.52"/>
<path d="M262.66 170.48L348.78 170.48"/>
<path d="M210.63 236.87L212.4 250.34M212.4 250.34L217.6 262.89M217.6 262.89L225.87 273.66M225.87 273.66L236.64 281.93M236.64 281.93L249.19 287.13M249.19 287.13L262.66 288.9"/>
<path d="M210.63 236.87L210.63 222.52"/>
<path d="M262.66 170.48L249.19 172.26M249.19 172.26L236.64 177.46M236.64 177.46L225.87 185.72M225.87 185.72L217.6 196.5M217.6 196.5L212.4 209.05M212.4 209.05L210.63 222.52"/>
<path d="M262.66 170.48L348.78 170.48"/>
<path d="M400.81 222.52L399.04 209.05M399.04 209.05L393.84 196.5M393.84 196.5L385.57 185.72M385.57 185.72L374.8 177.46M374.8 177.46L362.25 172.26M362.25 172.26L348.78 170.48"/>
<path d="M400.81 222.52L400.81 236.87"/>
<path d="M348.78 288.9L362.25 287.13M362.25 287.13L374.8 281.93M374.8 281.93L385.57 273.66M385.57 273.66L393.84 262.89M393.84 262.89L399.04 250.34M399.04 250.34L400.81 236.87"/>
<path d="M348.78 288.9L262.66 288.9"/>
<path d="M262.66 288.9L262.66 287.59"/>
<path d="M211.94 236.87L213.66 250M213.66 250L218.73 262.23M218.73 262.23L226.79 272.74M226.79 272.74L237.3 280.8M237.3 280.8L249.53 285.87M249.53 285.87L262.66 287.59"/>
<path d="M210.63 236.87L211.94 236.87"/>
<path d="M211.94 222.52L211.94 236.87"/>
<path d="M210.63 222.52L211.94 222.52"/>
<path d="M262.66 171.79L249.53 173.52M249.53 173.52L237.3 178.59M237.3 178.59L226.79 186.65M226.79 186.65L218.73 197.16M218.73 197.16L213.66 209.39M213.66 209.39L211.94 222.52"/>
<path d="M262.66 170.48L262.66 171.79"/>
<path d="M348.78 171.79L262.66 171.79"/>
<path d="M348.78 170.48L348.78 171.79"/>
<path d="M399.51 222.52L397.78 209.39M397.78 209.39L392.71 197.16M392.71 197.16L384.65 186.65M384.65 186.65L374.14 178.59M374.14 178.59L361.91 173.52M361.91 173.52L348.78 171.79"/>
<path d="M400.81 222.52L399.5 222.52"/>
<path d="M399.5 236.87L399.5 222.52"/>
<path d="M400.81 236.87L399.5 236.87"/>
<path d="M348.78 287.59L361.91 285.87M361.91 285.87L374.14 280.8M374.14 280.8L384.65 272.74M384.65 272.74L392.71 262.23M392.71 262.23L397.78 250M397.78 250L399.51 236.87"/>
<path d="M348.78 288.9L348.78 287.59"/>
<path d="M262.66 287.59L348.78 287.59"/>
<path d="M262.66 279.03L262.66 287.59"/>
<path d="M218.7 236.87L211.94 236.87"/>
<path d="M220.49 222.52L211.94 222.52"/>
<path d="M262.66 183.04L262.66 171.79"/>
<path d="M348.78 180.35L348.78 171.79"/>
<path d="M390.95 222.52L399.5 222.52"/>
<path d="M392.74 236.87L399.5 236.87"/>
<path d="M348.78 279.03L348.78 287.59"/>
<path d="M262.66 183.04L254.02 184"/>
<path d="M281.32 183.04L262.66 183.04"/>
<path d="M262.66 195.6L256.81 196.25"/>
<path d="M297.86 195.6L292.49 195.6"/>
<path d="M279.54 195.6L262.66 195.6"/>
<path d="M297.86 195.6L348.78 195.6"/>
<path d="M375.7 222.52L374.38 214.2M374.38 214.2L370.56 206.7M370.56 206.7L364.6 200.74M364.6 200.74L357.1 196.92M357.1 196.92L348.78 195.6"/>
<path d="M375.7 222.52L375.7 229.69"/>
<path d="M375.7 231.49L375.7 229.69"/>
<path d="M297.86 195.6L295.44 196.55M295.44 196.55L294.29 198.88"/>
<path d="M297.72 200.59L297.73 200.99"/>
<path d="M297.73 200.99L348.78 200.99"/>
<path d="M348.78 200.99L348.78 195.6"/>
<path d="M297.86 195.6L297.72 200.59"/>
<path d="M370.31 222.52L369.63 217.13M369.63 217.13L367.62 212.09"/>
<path d="M370.31 222.52L375.7 222.52"/>
<path d="M367.43 211.75L362.62 206.02M362.62 206.02L356.15 202.28M356.15 202.28L348.78 200.99"/>
<path d="M367.43 211.75L367.62 211.75"/>
<path d="M367.62 212.09L367.62 211.75"/>
<path d="M370.31 222.52L370.31 229.69"/>
<path d="M370.31 229.69L375.7 229.69"/>
<path d="M370.31 229.69L367.62 229.69"/>
<path d="M355.96 229.69L367.62 229.69"/>
<path d="M355.96 229.69L355.96 220.72"/>
<path d="M327.25 220.72L355.96 220.72"/>
<path d="M327.25 229.69L327.25 220.72"/>
<path d="M284.19 229.69L284.19 220.72"/>
<path d="M255.48 220.72L284.19 220.72"/>
<path d="M293.31 210.14L247.41 210.14"/>
<path d="M255.48 237.68L255.48 221.62"/>
<path d="M263.11 237.68L255.48 237.68"/>
<path d="M284.19 237.68L276.56 237.68"/>
<path d="M284.19 231.49L284.19 237.68"/>
<path d="M327.25 237.68L327.25 231.49"/>
<path d="M334.88 237.68L327.25 237.68"/>
<path d="M355.96 237.68L348.33 237.68"/>
<path d="M355.96 231.49L355.96 237.68"/>
<path d="M262.66 199.19L262.66 195.6"/>
<path d="M297.86 195.6L293.64 196.29M293.64 196.29L292.19 196.99"/>
<path d="M292.03 198.97L293.66 199M293.66 199L294.29 198.88"/>
<path d="M293.24 210.85L294.29 198.88"/>
<path d="M297.73 200.99L297.73 210.85"/>
<path d="M297.72 200.59L297.43 198.74M297.43 198.74L296.81 197.38M296.81 197.38L296.13 196.79M296.13 196.79L295.42 196.78M295.42 196.78L294.82 197.31M294.82 197.31L294.62 197.66"/>
<path d="M248.66 211.75L248.66 210.85"/>
<path d="M248.66 211.75L295.85 211.75"/>
<path d="M295.85 229.69L295.85 211.75"/>
<path d="M315.59 229.69L295.85 229.69"/>
<path d="M315.59 211.75L315.59 229.69"/>
<path d="M315.59 211.75L367.43 211.75"/>
<path d="M297.73 210.85L248.66 210.85"/>
<path d="M367.62 229.69L367.62 212.09"/>
<path d="M355.96 220.72L367.62 211.75"/>
<path d="M315.59 211.75L327.25 220.72"/>
<path d="M315.59 229.69L327.25 229.69"/>
<path d="M284.19 229.69L295.85 229.69"/>
<path d="M284.19 220.72L295.85 211.75"/>
<path d="M248.66 211.75L248.66 215.48"/>
<path d="M248.66 215.48L255.48 220.72"/>
<path d="M255.48 220.72L248.66 220.72"/>
<path d="M248.66 220.72L248.66 215.48"/>
<path d="M247.41 231.49L247.41 209.6"/>
<path d="M247.41 221.62L255.48 221.62"/>
<path d="M243.82 249.34L243.82 231.49"/>
<path d="M255.48 237.68L243.82 249.34"/>
<path d="M263.11 249.34L243.82 249.34"/>
<path d="M263.11 237.68L263.11 249.34"/>
<path d="M263.11 249.34L263.11 260.02"/>
<path d="M263.11 260.02L276.56 260.02"/>
<path d="M276.56 260.02L276.56 249.34"/>
<path d="M276.56 249.34L276.56 237.68"/>
<path d="M295.85 249.34L276.56 249.34"/>
<path d="M284.19 237.68L295.85 249.34"/>
<path d="M295.85 231.49L295.85 249.34"/>
<path d="M284.19 231.49L295.85 231.49"/>
<path d="M315.59 231.49L295.85 231.49"/>
<path d="M315.59 231.49L327.25 231.49"/>
<path d="M315.59 249.34L315.59 231.49"/>
<path d="M327.25 237.68L315.59 249.34"/>
<path d="M334.88 249.34L315.59 249.34"/>
<path d="M334.88 237.68L334.88 249.34"/>
<path d="M334.88 249.34L334.88 260.02"/>
<path d="M334.88 260.02L348.33 260.02"/>
<path d="M348.33 260.02L348.33 249.34"/>
<path d="M348.33 249.34L348.33 237.68"/>
<path d="M367.62 249.34L348.33 249.34"/>
<path d="M355.96 237.68L367.62 249.34"/>
<path d="M367.62 231.49L367.62 249.34"/>
<path d="M355.96 231.49L367.62 231.49"/>
<path d="M376.59 231.49L367.62 231.49"/>
<path d="M376.59 231.49L376.59 222.52"/>
<path d="M292 199.31L294.24 199.5"/>
<path d="M289.88 208.11L289.7 210.14"/>
<path d="M274.47 199.19L261.61 199.19"/>
<path d="M245.61 209.6L286.17 209.6"/>
<path d="M245.61 231.49L245.61 209.6"/>
<path d="M247.41 231.49L245.61 231.49"/>
<path d="M243.82 231.49L245.61 231.49"/>
<path d="M274.47 204.57L279.58 203.28M279.58 203.28L283.46 199.72M283.46 199.72L285.19 194.75"/>
<path d="M274.47 204.57L261.61 204.57"/>
<path d="M250.89 194.75L252.62 199.72M252.62 199.72L256.5 203.28M256.5 203.28L261.61 204.57"/>
<path d="M250.89 194.75L250.45 189.73"/>
<path d="M250.45 189.73L245.09 192.26M245.09 192.26L240.23 195.66"/>
<path d="M240.23 195.66L240.23 263.72"/>
<path d="M240.23 263.72L247 268.16M247 268.16L254.62 270.92M254.62 270.92L262.66 271.86"/>
<path d="M348.78 271.86L359.59 270.15M359.59 270.15L369.35 265.18M369.35 265.18L377.09 257.44M377.09 257.44L382.06 247.68M382.06 247.68L383.77 236.87"/>
<path d="M383.77 236.87L383.77 222.52"/>
<path d="M383.77 222.52L382.06 211.71M382.06 211.71L377.09 201.95M377.09 201.95L369.35 194.21M369.35 194.21L359.59 189.24M359.59 189.24L348.78 187.53"/>
<path d="M348.78 187.53L285.83 187.53"/>
<path d="M285.83 187.53L285.19 194.75"/>
<path d="M286.17 209.6L289.8 208.18M289.8 208.18L291.53 204.68"/>
<path d="M292.26 196.34L291.53 204.68"/>
<path d="M294.05 194.71L292.83 195.18M292.83 195.18L292.26 196.34"/>
<path d="M348.78 194.71L294.05 194.71"/>
<path d="M376.59 222.52L375.23 213.92M375.23 213.92L371.28 206.17M371.28 206.17L365.13 200.02M365.13 200.02L357.38 196.07M357.38 196.07L348.78 194.71"/>
<path d="M274.47 199.19L278.11 197.78M278.11 197.78L279.83 194.28"/>
<path d="M280.46 187.06L280.62 185.27"/>
<path d="M280.46 187.06L279.83 194.28"/>
<path d="M285.54 180.37L282.18 181.92M282.18 181.92L280.62 185.27"/>
<path d="M285.54 180.35L298.99 180.35"/>
<path d="M334.88 180.35L298.99 180.35"/>
<path d="M334.88 180.35L348.33 180.35"/>
<path d="M348.78 180.35L348.33 180.35"/>
<path d="M390.95 222.52L389.51 211.6M389.51 211.6L385.3 201.43M385.3 201.43L378.6 192.7M378.6 192.7L369.86 186M369.86 186L359.7 181.79M359.7 181.79L348.78 180.35"/>
<path d="M348.78 279.03L359.7 277.6M359.7 277.6L369.86 273.39M369.86 273.39L378.6 266.69M378.6 266.69L385.3 257.95M385.3 257.95L389.51 247.78M389.51 247.78L390.95 236.87"/>
<path d="M263.56 279.03L276.12 279.03"/>
<path d="M262.66 279.03L263.56 279.03"/>
<path d="M347.88 279.03L348.78 279.03"/>
<path d="M347.88 279.03L335.33 279.03"/>
<path d="M276.12 279.03L335.33 279.03"/>
<path d="M236.95 270.29L244.81 275.07M244.81 275.07L253.52 278.03M253.52 278.03L262.66 279.03"/>
<path d="M232.78 266.62L236.95 270.29"/>
<path d="M220.49 236.87L221.48 245.92M221.48 245.92L224.38 254.55M224.38 254.55L229.07 262.35"/>
<path d="M229.07 197.03L224.38 204.84M224.38 204.84L221.48 213.47M221.48 213.47L220.49 222.52"/>
<path d="M236.95 189.1L232.78 192.77"/>
<path d="M248.48 182.81L242.47 185.5M242.47 185.5L236.95 189.1"/>
<path d="M248.68 182.74L248.48 182.81"/>
<path d="M255.65 187.41L254.46 184.48M254.46 184.48L251.84 182.72M251.84 182.72L248.68 182.74"/>
<path d="M255.65 187.41L255.81 189.26"/>
<path d="M256.25 194.28L255.81 189.26"/>
<path d="M256.25 194.28L257.98 197.78M257.98 197.78L261.61 199.19"/>
<path d="M274.47 199.19L274.47 204.57"/>
<path d="M261.61 199.19L261.61 204.57"/>
<path d="M279.83 194.28L285.19 194.75"/>
<path d="M256.25 194.28L250.89 194.75"/>
<path d="M255.81 189.26L250.45 189.73"/>
<path d="M248.57 184.68L250.45 189.73"/>
<path d="M248.57 184.68L242.39 187.61M242.39 187.61L236.78 191.53"/>
<path d="M236.78 191.53L240.23 195.66"/>
<path d="M235.17 222.52L235.17 236.87"/>
<path d="M234.85 236.87L234.85 266.13"/>
<path d="M234.85 266.13L240.23 263.72"/>
<path d="M234.85 195.66L240.23 195.66"/>
<path d="M234.85 195.66L234.85 222.52"/>
<path d="M262.66 277.24L262.66 271.86"/>
<path d="M234.85 266.13L243.07 272.17M243.07 272.17L252.54 275.95M252.54 275.95L262.66 277.24"/>
<path d="M348.78 277.24L347.88 277.24"/>
<path d="M348.78 277.24L348.78 271.86"/>
<path d="M263.56 277.24L262.66 277.24"/>
<path d="M263.56 276.92L276.12 276.92"/>
<path d="M335.33 277.24L276.12 277.24"/>
<path d="M335.33 276.92L347.88 276.92"/>
<path d="M388.83 236.87L383.77 236.87"/>
<path d="M348.78 277.24L361.26 275.26M361.26 275.26L372.51 269.53M372.51 269.53L381.44 260.6M381.44 260.6L387.18 249.35M387.18 249.35L389.15 236.87"/>
<path d="M388.83 222.52L383.77 222.52"/>
<path d="M388.83 236.87L388.83 222.52"/>
<path d="M389.15 222.52L387.18 210.04M387.18 210.04L381.44 198.79M381.44 198.79L372.51 189.86M372.51 189.86L361.26 184.12M361.26 184.12L348.78 182.15"/>
<path d="M348.78 182.15L348.78 187.53"/>
<path d="M334.88 182.15L298.99 182.15"/>
<path d="M298.99 182.47L285.83 182.47"/>
<path d="M285.83 182.47L285.83 187.53"/>
<path d="M348.78 182.15L348.33 182.15"/>
<path d="M348.33 182.47L334.88 182.47"/>
<path d="M280.46 187.06L285.83 187.53"/>
<path d="M285.54 182.15L282.08 183.66M282.08 183.66L280.46 187.06"/>
<path d="M285.54 178.56L285.54 180.36"/>
<path d="M298.99 178.56L298.99 180.35"/>
<path d="M285.54 178.56L298.99 178.56"/>
<path d="M285.54 180.35L285.54 182.47"/>
<path d="M298.99 180.35L298.99 182.47"/>
<path d="M285.83 182.47L285.54 182.47"/>
<path d="M334.88 180.35L334.88 182.47"/>
<path d="M348.33 180.35L348.33 182.47"/>
<path d="M348.78 182.15L348.78 180.35"/>
<path d="M348.33 178.56L348.33 180.35"/>
<path d="M334.88 178.56L348.33 178.56"/>
<path d="M334.88 178.56L334.88 180.35"/>
<path d="M390.95 222.52L390.95 236.87"/>
<path d="M392.74 222.52L390.95 222.52"/>
<path d="M392.74 236.87L390.95 236.87"/>
<path d="M348.78 277.24L348.78 279.03"/>
<path d="M276.12 276.92L276.12 279.03"/>
<path d="M263.56 276.92L263.56 279.03"/>
<path d="M262.66 277.24L262.66 279.03"/>
<path d="M347.88 276.92L347.88 279.03"/>
<path d="M335.33 276.92L335.33 279.03"/>
<path d="M287.78 279.03L287.78 280.83"/>
<path d="M287.78 280.83L323.66 280.83"/>
<path d="M323.66 279.03L323.66 280.83"/>
<path d="M234.85 266.13L235.43 268.45M235.43 268.45L236.95 270.29"/>
<path d="M234.85 266.02L231.44 259.19M231.44 259.19L229.47 252.72"/>
<path d="M229.47 252.72L224.61 255.04"/>
<path d="M225.88 236.87L226.79 244.99M226.79 244.99L229.47 252.72"/>
<path d="M225.88 236.87L220.49 236.87"/>
<path d="M220.49 236.87L220.49 222.52"/>
<path d="M220.49 236.87L218.7 236.87"/>
<path d="M225.88 222.52L220.49 222.52"/>
<path d="M229.47 206.67L226.79 214.39M226.79 214.39L225.88 222.52"/>
<path d="M229.47 206.67L224.61 204.35"/>
<path d="M229.47 206.67L233.55 195.57M233.55 195.57L234.85 193.36"/>
<path d="M236.95 189.1L235.4 190.99M235.4 190.99L234.85 193.36"/>
<path d="M234.85 195.66L234.85 193.36"/>
<path d="M248.68 182.74L248.78 184.61"/>
<path d="M220.49 222.52L218.7 222.52"/>
<path d="M255.81 189.26L254.57 186.26M254.57 186.26L251.82 184.52M251.82 184.52L248.57 184.68"/>
<path d="M236.78 191.53L235.36 193.38M235.36 193.38L234.85 195.66"/>
<path d="M235.17 222.52L233.05 222.52"/>
<path d="M233.05 222.52L233.05 236.87"/>
<path d="M235.17 236.87L233.05 236.87"/>
<path d="M390.95 236.87L388.83 236.87"/>
<path d="M390.95 222.52L388.83 222.52"/>
<path d="M392.74 222.52L392.74 236.87"/>
<path d="M229.47 252.72L229.47 206.67"/>
<path d="M225.88 236.87L225.88 222.52"/>
<path d="M218.7 222.52L218.7 236.87"/>
<path d="M414.21 190.9L407.8 188.39"/>
<path d="M209.31 173.18L209.31 180.06"/>
<path d="M197.23 190.9L203.64 188.39"/>
<path d="M389.09 109.66L389.09 100.69"/>
<path d="M222.35 100.69L222.35 109.66"/>
<path d="M332.63 123.83L278.81 123.83"/>
<path d="M229.06 262.35L232.78 266.62"/>
<path d="M232.78 192.77L229.07 197.03"/>
<path d="M262.66 271.86L348.78 271.86"/>
</g>
</g>
</svg>
