<?xml version="1.0" standalone="no"?><svg xmlns="http://www.w3.org/2000/svg" width="600.000" height="450.000" viewBox="0.0 0.0 600.000 450.000" version="1.1">
<title>Acme Converter - Post-processed with EDS-Designer: 14.44 (info@symca.com)</title>
<desc>Acme Converter - Post-processed with EDS-Designer: 14.44 (info@symca.com)</desc>
<g id="EDS_STYLE_GROUP" fill="none" stroke="black" stroke-width="1.0">
<g id="0" display="visible">
<path d="M255.31 368.33L259.32 389.41M256.31 368.33L259.32 384.39M263.34 368.33L259.32 389.41M263.34 368.33L267.35 389.41M264.34 368.33L267.35 384.39M271.37 368.33L267.35 389.41M252.3 368.33L259.32 368.33M268.36 368.33L274.38 368.33M279.4 389.41L279.4 368.33M280.4 368.33L280.4 389.41M292.44 389.41L292.44 368.33M293.45 368.33L293.45 389.41M276.38 368.33L283.41 368.33M289.43 368.33L296.46 368.33M280.4 378.37L292.44 378.37M276.38 389.41L283.41 389.41M289.43 389.41L296.46 389.41M303.48 389.41L303.48 368.33M304.49 368.33L304.49 389.41M300.47 368.33L307.5 368.33M300.47 389.41L307.5 389.41M318.54 389.41L318.54 368.33M319.54 368.33L319.54 389.41M312.52 368.33L311.51 374.36M311.51 374.36L311.51 368.33M311.51 368.33L326.57 368.33M326.57 368.33L326.57 374.36M326.57 374.36L325.56 368.33M315.53 389.41L322.55 389.41M333.59 389.41L333.59 368.33M334.6 368.33L334.6 389.41M340.62 374.36L340.62 382.39M330.58 368.33L346.64 368.33M346.64 368.33L346.64 374.36M346.64 374.36L345.64 368.33M334.6 378.37L340.62 378.37M330.58 389.41L346.64 389.41M346.64 389.41L346.64 383.39M346.64 383.39L345.64 389.41"/>
<path d="M268.44 60.59L299.37 60.59"/>
<path d="M268.44 60.59L272.11 151.59"/>
<path d="M248.27 151.59L299.37 151.59"/>
<path d="M248.27 151.59L248.27 124.95"/>
<path d="M248.27 124.95L217.61 124.95"/>
<path d="M260.84 67.16L260.84 80.95"/>
<path d="M260.2 81.9L242.66 90.67M242.66 90.67L226.97 102.43M226.97 102.43L213.61 116.8"/>
<path d="M260.2 81.9L260.66 81.52M260.66 81.52L260.84 80.95"/>
<path d="M213.61 116.8L212.57 120.32M212.57 120.32L214.19 123.62M214.19 123.62L217.61 124.95"/>
<path d="M258.25 65.21L239.82 72.19M239.82 72.19L222.67 81.91M222.67 81.91L207.22 94.14M207.22 94.14L193.84 108.6M193.84 108.6L182.82 124.94"/>
<path d="M260.84 67.16L260.46 65.98M260.46 65.98L259.48 65.24M259.48 65.24L258.25 65.21"/>
<path d="M299.37 96.12L269.87 96.12"/>
<path d="M252.97 93.06L269.75 93.06"/>
<path d="M270.2 104.29L252.97 104.29"/>
<path d="M250.94 102.27L251.54 103.7M251.54 103.7L252.97 104.29"/>
<path d="M250.94 102.27L250.94 95.08"/>
<path d="M252.97 93.06L251.54 93.65M251.54 93.65L250.94 95.08"/>
<path d="M299.37 76.72L280.58 76.72"/>
<path d="M280.58 76.72L280.58 96.12"/>
<path d="M269.23 80.29L280.58 80.29"/>
<path d="M280.58 76.72L269.09 76.72"/>
<path d="M299.37 127.45L271.13 127.45"/>
<path d="M182.82 124.94L182.82 280.75"/>
<path d="M182.82 280.75L187.11 295.59M187.11 295.59L194.46 309.19M194.46 309.19L204.52 320.92M204.52 320.92L216.84 330.24M216.84 330.24L230.86 336.74M230.86 336.74L245.95 340.1"/>
<path d="M245.95 340.1L263.43 344.55M263.43 344.55L281.33 346.89M281.33 346.89L299.37 347.07"/>
<path d="M330.3 60.59L299.37 60.59"/>
<path d="M330.3 60.59L326.63 151.59"/>
<path d="M350.47 151.59L299.37 151.59"/>
<path d="M350.47 151.59L350.47 124.95"/>
<path d="M350.47 124.95L381.13 124.95"/>
<path d="M337.9 67.16L337.9 80.95"/>
<path d="M385.12 116.8L371.77 102.43M371.77 102.43L356.08 90.67M356.08 90.67L338.54 81.9"/>
<path d="M337.9 80.95L338.07 81.52M338.07 81.52L338.54 81.9"/>
<path d="M381.13 124.95L384.55 123.62M384.55 123.62L386.17 120.32M386.17 120.32L385.12 116.8"/>
<path d="M415.91 124.94L404.9 108.6M404.9 108.6L391.51 94.14M391.51 94.14L376.06 81.91M376.06 81.91L358.92 72.19M358.92 72.19L340.49 65.21"/>
<path d="M340.49 65.21L339.26 65.24M339.26 65.24L338.27 65.98M338.27 65.98L337.9 67.16"/>
<path d="M299.37 96.12L328.87 96.12"/>
<path d="M345.77 93.06L328.99 93.06"/>
<path d="M328.54 104.29L345.77 104.29"/>
<path d="M345.77 104.29L347.2 103.7M347.2 103.7L347.79 102.27"/>
<path d="M347.79 102.27L347.79 95.08"/>
<path d="M347.79 95.08L347.2 93.65M347.2 93.65L345.77 93.06"/>
<path d="M299.37 76.72L318.16 76.72"/>
<path d="M318.16 76.72L318.16 96.12"/>
<path d="M329.5 80.29L318.16 80.29"/>
<path d="M318.16 76.72L329.65 76.72"/>
<path d="M299.37 127.45L327.6 127.45"/>
<path d="M415.91 124.94L415.91 280.75"/>
<path d="M352.79 340.1L367.87 336.74M367.87 336.74L381.89 330.24M381.89 330.24L394.22 320.92M394.22 320.92L404.28 309.19M404.28 309.19L411.62 295.59M411.62 295.59L415.91 280.75"/>
<path d="M299.37 347.07L317.41 346.89M317.41 346.89L335.3 344.55M335.3 344.55L352.79 340.1"/>
<path d="M271.83 151.59L254.65 159.19M254.65 159.19L239.43 170.2M239.43 170.2L226.83 184.14M226.83 184.14L217.41 200.39M217.41 200.39L211.58 218.24M211.58 218.24L209.59 236.92M209.59 236.92L211.53 255.61M211.53 255.61L217.31 273.48M217.31 273.48L226.69 289.76M226.69 289.76L239.25 303.73M239.25 303.73L254.44 314.78M254.44 314.78L271.6 322.42M271.6 322.42L289.98 326.33M289.98 326.33L308.76 326.33M308.76 326.33L327.13 322.42M327.13 322.42L344.29 314.78M344.29 314.78L359.48 303.73M359.48 303.73L372.04 289.76M372.04 289.76L381.42 273.48M381.42 273.48L387.21 255.61M387.21 255.61L389.15 236.92M389.15 236.92L387.16 218.24M387.16 218.24L381.33 200.39M381.33 200.39L371.91 184.14M371.91 184.14L359.31 170.2M359.31 170.2L344.09 159.19M344.09 159.19L326.91 151.59"/>
<path d="M213.65 237.04L215.52 219.22M215.52 219.22L221.06 202.18M221.06 202.18L230.02 186.66M230.02 186.66L242.01 173.34M242.01 173.34L256.51 162.81M256.51 162.81L272.88 155.52M272.88 155.52L290.41 151.79M290.41 151.79L308.33 151.79M308.33 151.79L325.86 155.52M325.86 155.52L342.23 162.81M342.23 162.81L356.73 173.34M356.73 173.34L368.72 186.66M368.72 186.66L377.68 202.18M377.68 202.18L383.21 219.22M383.21 219.22L385.09 237.04M385.09 237.04L383.21 254.86M383.21 254.86L377.68 271.91M377.68 271.91L368.72 287.43M368.72 287.43L356.73 300.74M356.73 300.74L342.23 311.28M342.23 311.28L325.86 318.57M325.86 318.57L308.33 322.29M308.33 322.29L290.41 322.29M290.41 322.29L272.88 318.57M272.88 318.57L256.51 311.28M256.51 311.28L242.01 300.74M242.01 300.74L230.02 287.43M230.02 287.43L221.06 271.91M221.06 271.91L215.52 254.86M215.52 254.86L213.65 237.04"/>
<path d="M233.41 237.04L235.33 221.26M235.33 221.26L240.97 206.39M240.97 206.39L250 193.3M250 193.3L261.9 182.76M261.9 182.76L275.98 175.37M275.98 175.37L291.42 171.57M291.42 171.57L307.32 171.57M307.32 171.57L322.76 175.37M322.76 175.37L336.84 182.76M336.84 182.76L348.74 193.3M348.74 193.3L357.77 206.39M357.77 206.39L363.41 221.26M363.41 221.26L365.33 237.04M365.33 237.04L363.41 252.83M363.41 252.83L357.77 267.69M357.77 267.69L348.74 280.78M348.74 280.78L336.84 291.32M336.84 291.32L322.76 298.71M322.76 298.71L307.32 302.52M307.32 302.52L291.42 302.52M291.42 302.52L275.98 298.71M275.98 298.71L261.9 291.32M261.9 291.32L250 280.78M250 280.78L240.97 267.69M240.97 267.69L235.33 252.83M235.33 252.83L233.41 237.04"/>
<path d="M243 237.04L244.92 222.45M244.92 222.45L250.55 208.86M250.55 208.86L259.51 197.18M259.51 197.18L271.18 188.22M271.18 188.22L284.78 182.59M284.78 182.59L299.37 180.67M299.37 180.67L313.96 182.59M313.96 182.59L327.55 188.22M327.55 188.22L339.23 197.18M339.23 197.18L348.19 208.86M348.19 208.86L353.82 222.45M353.82 222.45L355.74 237.04M355.74 237.04L353.82 251.63M353.82 251.63L348.19 265.23M348.19 265.23L339.23 276.9M339.23 276.9L327.55 285.86M327.55 285.86L313.96 291.49M313.96 291.49L299.37 293.42M299.37 293.42L284.78 291.49M284.78 291.49L271.18 285.86M271.18 285.86L259.51 276.9M259.51 276.9L250.55 265.23M250.55 265.23L244.92 251.63M244.92 251.63L243 237.04"/>
<path d="M265.58 217.05L267.43 210.15M267.43 210.15L272.49 205.1M272.49 205.1L279.39 203.25M279.39 203.25L286.29 205.1M286.29 205.1L291.34 210.15M291.34 210.15L293.19 217.05M293.19 217.05L291.34 223.95M291.34 223.95L286.29 229M286.29 229L279.39 230.85M279.39 230.85L272.49 229M272.49 229L267.43 223.95M267.43 223.95L265.58 217.05"/>
<path d="M273.21 217.05L275.02 212.68M275.02 212.68L279.39 210.88M279.39 210.88L283.75 212.68M283.75 212.68L285.56 217.05M285.56 217.05L283.75 221.42M283.75 221.42L279.39 223.22M279.39 223.22L275.02 221.42M275.02 221.42L273.21 217.05"/>
<path d="M305.09 217.05L306.94 210.15M306.94 210.15L311.99 205.1M311.99 205.1L318.89 203.25M318.89 203.25L325.79 205.1M325.79 205.1L330.85 210.15M330.85 210.15L332.7 217.05M332.7 217.05L330.85 223.95M330.85 223.95L325.79 229M325.79 229L318.89 230.85M318.89 230.85L311.99 229M311.99 229L306.94 223.95M306.94 223.95L305.09 217.05"/>
<path d="M312.72 217.05L314.53 212.68M314.53 212.68L318.89 210.88M318.89 210.88L323.26 212.68M323.26 212.68L325.07 217.05M325.07 217.05L323.26 221.42M323.26 221.42L318.89 223.22M318.89 223.22L314.53 221.42M314.53 221.42L312.72 217.05"/>
<path d="M265.58 256.37L267.43 249.47M267.43 249.47L272.49 244.41M272.49 244.41L279.39 242.56M279.39 242.56L286.29 244.41M286.29 244.41L291.34 249.47M291.34 249.47L293.19 256.37M293.19 256.37L291.34 263.27M291.34 263.27L286.29 268.32M286.29 268.32L279.39 270.17M279.39 270.17L272.49 268.32M272.49 268.32L267.43 263.27M267.43 263.27L265.58 256.37"/>
<path d="M273.21 256.37L275.02 252M275.02 252L279.39 250.19M279.39 250.19L283.75 252M283.75 252L285.56 256.37M285.56 256.37L283.75 260.73M283.75 260.73L279.39 262.54M279.39 262.54L275.02 260.73M275.02 260.73L273.21 256.37"/>
<path d="M305.09 256.37L306.94 249.47M306.94 249.47L311.99 244.41M311.99 244.41L318.89 242.56M318.89 242.56L325.79 244.41M325.79 244.41L330.85 249.47M330.85 249.47L332.7 256.37M332.7 256.37L330.85 263.27M330.85 263.27L325.79 268.32M325.79 268.32L318.89 270.17M318.89 270.17L311.99 268.32M311.99 268.32L306.94 263.27M306.94 263.27L305.09 256.37"/>
<path d="M312.72 256.37L314.53 252M314.53 252L318.89 250.19M318.89 250.19L323.26 252M323.26 252L325.07 256.37M325.07 256.37L323.26 260.73M323.26 260.73L318.89 262.54M318.89 262.54L314.53 260.73M314.53 260.73L312.72 256.37"/>
<path d="M227.51 183.21L211.26 183.21M211.26 183.21L211.26 160.18M211.26 160.18L252.97 160.18"/>
<path d="M210.04 246.09L200.17 246.09M200.17 246.09L200.17 227.69M200.17 227.69L210.08 227.69"/>
<path d="M388.66 227.69L399.5 227.69M399.5 227.69L399.5 246.09M399.5 246.09L388.69 246.09"/>
<path d="M371.34 290.72L388.52 290.72M388.52 290.72L388.52 311.7M388.52 311.7L349.23 311.7"/>
<path d="M291.03 326.44L291.03 336.31M291.03 336.31L308.17 336.31M308.17 336.31L308.17 326.39"/>
<path d="M429.95 207.77L431.55 206.97M431.55 206.97L433.96 204.56M433.96 204.56L433.96 221.42"/>
<path d="M429.78 248.17L429.78 247.37M429.78 247.37L430.58 245.77M430.58 245.77L431.39 244.96M431.39 244.96L432.99 244.16M432.99 244.16L436.21 244.16M436.21 244.16L437.81 244.96M437.81 244.96L438.61 245.77M438.61 245.77L439.42 247.37M439.42 247.37L439.42 248.98M439.42 248.98L438.61 250.58M438.61 250.58L437.01 252.99M437.01 252.99L428.98 261.02M428.98 261.02L440.22 261.02"/>
<path d="M168.27 204.56L160.24 215.8M160.24 215.8L172.28 215.8M168.27 204.56L168.27 221.42"/>
<path d="M161.38 244.16L170.21 244.16M170.21 244.16L165.4 250.58M165.4 250.58L167.81 250.58M167.81 250.58L169.41 251.39M169.41 251.39L170.21 252.19M170.21 252.19L171.02 254.6M171.02 254.6L171.02 256.2M171.02 256.2L170.21 258.61M170.21 258.61L168.61 260.22M168.61 260.22L166.2 261.02M166.2 261.02L163.79 261.02M163.79 261.02L161.38 260.22M161.38 260.22L160.58 259.41M160.58 259.41L159.78 257.81"/>
</g>
</g>
</svg>
