<?xml version="1.0" standalone="no"?><svg xmlns="http://www.w3.org/2000/svg" width="600.000" height="450.000" viewBox="0.0 0.0 600.000 450.000" version="1.1">
<title>Acme Converter - Post-processed with EDS-Designer: 14.44 (info@symca.com)</title>
<desc>Acme Converter - Post-processed with EDS-Designer: 14.44 (info@symca.com)</desc>
<g id="EDS_STYLE_GROUP" fill="none" stroke="black" stroke-width="1.0">
<g id="0" display="visible">
<path d="M258.09 386.06L258.09 362.14M259.23 362.14L259.23 386.06M254.67 362.14L268.34 362.14M268.34 362.14L271.76 363.28M271.76 363.28L272.9 364.41M272.9 364.41L274.04 366.69M274.04 366.69L274.04 368.97M274.04 368.97L272.9 371.25M272.9 371.25L271.76 372.39M271.76 372.39L268.34 373.53M268.34 362.14L270.62 363.28M270.62 363.28L271.76 364.41M271.76 364.41L272.9 366.69M272.9 366.69L272.9 368.97M272.9 368.97L271.76 371.25M271.76 371.25L270.62 372.39M270.62 372.39L268.34 373.53M259.23 373.53L268.34 373.53M268.34 373.53L271.76 374.67M271.76 374.67L272.9 375.81M272.9 375.81L274.04 378.09M274.04 378.09L274.04 381.51M274.04 381.51L272.9 383.79M272.9 383.79L271.76 384.92M271.76 384.92L268.34 386.06M268.34 386.06L254.67 386.06M268.34 373.53L270.62 374.67M270.62 374.67L271.76 375.81M271.76 375.81L272.9 378.09M272.9 378.09L272.9 381.51M272.9 381.51L271.76 383.79M271.76 383.79L270.62 384.92M270.62 384.92L268.34 386.06M283.16 386.06L283.16 362.14M284.3 362.14L284.3 386.06M279.74 362.14L287.71 362.14M279.74 386.06L296.83 386.06M296.83 386.06L296.83 379.23M296.83 379.23L295.69 386.06M303.67 362.14L303.67 379.23M303.67 379.23L304.81 382.65M304.81 382.65L307.09 384.92M307.09 384.92L310.5 386.06M310.5 386.06L312.78 386.06M312.78 386.06L316.2 384.92M316.2 384.92L318.48 382.65M318.48 382.65L319.62 379.23M319.62 379.23L319.62 362.14M304.81 362.14L304.81 379.23M304.81 379.23L305.95 382.65M305.95 382.65L308.23 384.92M308.23 384.92L310.5 386.06M300.25 362.14L308.23 362.14M316.2 362.14L323.04 362.14M331.01 386.06L331.01 362.14M332.15 362.14L332.15 386.06M338.99 368.97L338.99 378.09M327.6 362.14L345.83 362.14M345.83 362.14L345.83 368.97M345.83 368.97L344.69 362.14M332.15 373.53L338.99 373.53M327.6 386.06L345.83 386.06M345.83 386.06L345.83 379.23M345.83 379.23L344.69 386.06"/>
<path d="M174.57 228.86L184.6 228.86M184.6 228.86L179.13 236.16M179.13 236.16L181.87 236.16M181.87 236.16L183.69 237.07M183.69 237.07L184.6 237.98M184.6 237.98L185.51 240.72M185.51 240.72L185.51 242.54M185.51 242.54L184.6 245.27M184.6 245.27L182.78 247.1M182.78 247.1L180.04 248.01M180.04 248.01L177.31 248.01M177.31 248.01L174.57 247.1M174.57 247.1L173.66 246.18M173.66 246.18L172.75 244.36"/>
<path d="M182.47 189.07L173.36 201.83M173.36 201.83L187.03 201.83M182.47 189.07L182.47 208.21"/>
<path d="M414.72 190.55L416.55 189.63M416.55 189.63L419.28 186.9M419.28 186.9L419.28 206.04"/>
<path d="M415.4 230.75L415.4 229.84M415.4 229.84L416.31 228.02M416.31 228.02L417.22 227.11M417.22 227.11L419.04 226.19M419.04 226.19L422.69 226.19M422.69 226.19L424.51 227.11M424.51 227.11L425.43 228.02M425.43 228.02L426.34 229.84M426.34 229.84L426.34 231.66M426.34 231.66L425.43 233.49M425.43 233.49L423.6 236.22M423.6 236.22L414.49 245.34M414.49 245.34L427.25 245.34"/>
<path d="M372.29 220.5L365.78 220.02"/>
<path d="M301.84 290.95L301.37 284.54"/>
<path d="M298.32 290.95L298.8 284.44"/>
<path d="M227.87 220.5L234.64 219.99"/>
<path d="M372.29 216.98L365.87 217.45"/>
<path d="M301.84 146.53L301.35 153.04"/>
<path d="M298.32 146.53L298.78 152.95"/>
<path d="M227.87 216.98L234.38 217.47"/>
<path d="M301.37 278.94L316.31 276.3M316.31 276.3L330.16 270.12M330.16 270.12L342.12 260.78M342.12 260.78L351.45 248.83M351.45 248.83L357.63 234.98M357.63 234.98L360.27 220.04"/>
<path d="M239.88 220.04L242.53 234.98M242.53 234.98L248.7 248.83M248.7 248.83L258.04 260.78M258.04 260.78L269.99 270.12M269.99 270.12L283.84 276.3M283.84 276.3L298.78 278.94"/>
<path d="M298.78 158.55L283.84 161.19M283.84 161.19L269.99 167.36M269.99 167.36L258.04 176.7M258.04 176.7L248.7 188.66M248.7 188.66L242.53 202.51M242.53 202.51L239.88 217.44"/>
<path d="M360.27 217.45L357.63 202.51M357.63 202.51L351.46 188.66M351.46 188.66L342.12 176.7M342.12 176.7L330.16 167.36M330.16 167.36L316.31 161.19M316.31 161.19L301.37 158.55"/>
<path d="M322.04 189.74L318.6 192.38M318.6 192.38L317.3 196.52M317.3 196.52L318.6 200.65M318.6 200.65L322.04 203.3"/>
<path d="M322.56 203.3L326 200.65M326 200.65L327.3 196.52M327.3 196.52L326 192.38M326 192.38L322.56 189.74"/>
<path d="M277.59 189.74L274.15 192.38M274.15 192.38L272.85 196.52M272.85 196.52L274.15 200.65M274.15 200.65L277.59 203.3"/>
<path d="M278.11 203.3L281.55 200.65M281.55 200.65L282.85 196.52M282.85 196.52L281.55 192.38M281.55 192.38L278.11 189.74"/>
<path d="M277.59 234.19L274.15 236.83M274.15 236.83L272.85 240.97M272.85 240.97L274.15 245.1M274.15 245.1L277.59 247.75"/>
<path d="M278.11 247.75L281.55 245.1M281.55 245.1L282.85 240.97M282.85 240.97L281.55 236.83M281.55 236.83L278.11 234.19"/>
<path d="M322.56 247.52L326 244.88M326 244.88L327.3 240.75M327.3 240.75L326 236.61M326 236.61L322.56 233.97"/>
<path d="M322.04 233.97L318.6 236.61M318.6 236.61L317.3 240.75M317.3 240.75L318.6 244.88M318.6 244.88L322.04 247.52"/>
<path d="M308.61 289.76L323.84 285.79M323.84 285.79L337.9 278.71M337.9 278.71L350.15 268.82M350.15 268.82L360.04 256.57M360.04 256.57L367.13 242.51M367.13 242.51L371.09 227.28"/>
<path d="M308.63 289.98L323.91 286.01M323.91 286.01L338.02 278.9M338.02 278.9L350.31 268.97M350.31 268.97L360.23 256.68M360.23 256.68L367.34 242.58M367.34 242.58L371.31 227.29"/>
<path d="M229.06 227.28L233.03 242.51M233.03 242.51L240.11 256.57M240.11 256.57L250 268.82M250 268.82L262.25 278.71M262.25 278.71L276.31 285.79M276.31 285.79L291.54 289.76"/>
<path d="M228.84 227.29L232.81 242.58M232.81 242.58L239.92 256.68M239.92 256.68L249.85 268.97M249.85 268.97L262.14 278.9M262.14 278.9L276.24 286.01M276.24 286.01L291.53 289.98"/>
<path d="M371.31 210.19L367.34 194.91M367.34 194.91L360.23 180.8M360.23 180.8L350.31 168.51M350.31 168.51L338.02 158.59M338.02 158.59L323.91 151.48M323.91 151.48L308.63 147.51"/>
<path d="M371.09 210.21L367.13 194.98M367.13 194.98L360.04 180.92M360.04 180.92L350.15 168.67M350.15 168.67L337.9 158.78M337.9 158.78L323.85 151.69M323.85 151.69L308.61 147.73"/>
<path d="M291.53 147.51L276.24 151.48M276.24 151.48L262.14 158.59M262.14 158.59L249.85 168.51M249.85 168.51L239.92 180.8M239.92 180.8L232.81 194.91M232.81 194.91L228.84 210.19"/>
<path d="M291.54 147.73L276.31 151.69M276.31 151.69L262.25 158.78M262.25 158.78L250 168.67M250 168.67L240.11 180.92M240.11 180.92L233.03 194.98M233.03 194.98L229.06 210.21"/>
<path d="M371.31 227.29L372.13 221.14M372.13 221.14L372.24 220.57M372.24 220.57L372.27 220.52M372.27 220.52L372.29 220.5"/>
<path d="M371.31 227.29L371.09 227.28"/>
<path d="M371.1 227.27L367.95 221.53"/>
<path d="M302.86 286.62L319.23 283.43M319.23 283.43L334.39 276.48M334.39 276.48L347.5 266.16M347.5 266.16L357.82 253.06M357.82 253.06L364.77 237.89M364.77 237.89L367.96 221.52"/>
<path d="M365.78 220.02L365.36 219.98"/>
<path d="M367.95 221.53L365.78 220.01"/>
<path d="M301.84 290.96L301.85 290.94M301.85 290.94L301.87 290.92M301.87 290.92L301.97 290.89M301.97 290.89L303.09 290.71M303.09 290.71L308.63 289.98"/>
<path d="M301.3 284.02L301.77 285.51M301.77 285.51L302.86 286.61"/>
<path d="M302.87 286.61L308.61 289.77"/>
<path d="M308.63 289.98L308.61 289.76"/>
<path d="M301.84 290.96L317.2 288.52M317.2 288.52L331.73 282.94M331.73 282.94L344.78 274.46M344.78 274.46L355.79 263.45M355.79 263.45L364.27 250.4M364.27 250.4L369.85 235.87M369.85 235.87L372.29 220.5"/>
<path d="M291.53 289.98L297.76 290.81M297.76 290.81L298.26 290.91M298.26 290.91L298.3 290.93M298.3 290.93L298.32 290.96"/>
<path d="M291.53 289.98L291.54 289.76"/>
<path d="M291.55 289.77L297.29 286.61"/>
<path d="M232.19 221.52L235.39 237.89M235.39 237.89L242.34 253.06M242.34 253.06L252.66 266.16M252.66 266.16L265.76 276.48M265.76 276.48L280.93 283.43M280.93 283.43L297.3 286.62"/>
<path d="M298.8 284.45L298.84 284.02"/>
<path d="M297.29 286.62L298.81 284.45"/>
<path d="M227.86 220.5L227.88 220.51M227.88 220.51L227.9 220.54M227.9 220.54L227.93 220.64M227.93 220.64L228.11 221.75M228.11 221.75L228.84 227.29"/>
<path d="M234.64 219.98L233.25 220.48M233.25 220.48L232.2 221.53"/>
<path d="M234.8 219.98L234.64 219.99"/>
<path d="M232.21 221.53L229.05 227.27"/>
<path d="M228.84 227.29L229.06 227.28"/>
<path d="M227.86 220.5L230.3 235.87M230.3 235.87L235.89 250.4M235.89 250.4L244.36 263.45M244.36 263.45L255.37 274.46M255.37 274.46L268.42 282.94M268.42 282.94L282.95 288.52M282.95 288.52L298.32 290.96"/>
<path d="M372.29 216.98L372.27 216.97M372.27 216.97L372.26 216.95M372.26 216.95L372.22 216.85M372.22 216.85L372.05 215.73M372.05 215.73L371.31 210.19"/>
<path d="M367.95 215.95L371.11 210.21"/>
<path d="M371.31 210.19L371.09 210.21"/>
<path d="M372.29 216.98L369.85 201.61M369.85 201.61L364.27 187.09M364.27 187.09L355.79 174.04M355.79 174.04L344.78 163.03M344.78 163.03L331.73 154.55M331.73 154.55L317.21 148.97M317.21 148.97L301.84 146.53"/>
<path d="M308.63 147.51L302.47 146.69M302.47 146.69L301.9 146.58M301.9 146.58L301.85 146.55M301.85 146.55L301.84 146.53"/>
<path d="M308.63 147.51L308.61 147.73"/>
<path d="M308.61 147.72L302.87 150.88"/>
<path d="M367.96 215.96L364.77 199.59M364.77 199.59L357.82 184.43M357.82 184.43L347.5 171.32M347.5 171.32L334.39 161M334.39 161L319.23 154.05M319.23 154.05L302.86 150.86"/>
<path d="M365.36 217.52L366.84 217.05M366.84 217.05L367.95 215.96"/>
<path d="M301.35 153.04L301.31 153.46"/>
<path d="M302.86 150.87L301.34 153.04"/>
<path d="M298.32 146.53L298.31 146.55M298.31 146.55L298.28 146.56M298.28 146.56L298.18 146.6M298.18 146.6L297.07 146.77M297.07 146.77L291.53 147.51"/>
<path d="M297.29 150.88L291.55 147.72"/>
<path d="M291.53 147.51L291.54 147.73"/>
<path d="M298.32 146.53L282.95 148.97M282.95 148.97L268.42 154.55M268.42 154.55L255.37 163.03M255.37 163.03L244.36 174.04M244.36 174.04L235.89 187.09M235.89 187.09L230.3 201.61M230.3 201.61L227.86 216.98"/>
<path d="M228.84 210.19L228.02 216.35M228.02 216.35L227.91 216.92M227.91 216.92L227.89 216.97M227.89 216.97L227.86 216.98"/>
<path d="M228.84 210.19L229.06 210.21"/>
<path d="M229.05 210.21L232.21 215.95"/>
<path d="M297.3 150.86L280.93 154.05M280.93 154.05L265.77 161M265.77 161L252.66 171.32M252.66 171.32L242.34 184.43M242.34 184.43L235.39 199.59M235.39 199.59L232.2 215.96"/>
<path d="M298.85 153.46L298.38 151.98M298.38 151.98L297.29 150.87"/>
<path d="M234.37 217.47L234.8 217.51"/>
<path d="M232.2 215.96L234.37 217.48"/>
<path d="M365.36 219.98L363.87 219.95"/>
<path d="M363.87 219.95L361.2 219.94M361.2 219.94L360.27 220.04"/>
<path d="M301.28 282.54L317.15 279.73M317.15 279.73L331.88 273.17M331.88 273.17L344.58 263.25M344.58 263.25L354.5 250.54M354.5 250.54L361.06 235.82M361.06 235.82L363.87 219.95"/>
<path d="M301.28 282.54L301.27 280.19M301.27 280.19L301.33 279.04M301.33 279.04L301.35 278.97M301.35 278.97L301.37 278.94"/>
<path d="M301.31 284.02L301.28 282.54"/>
<path d="M298.84 284.02L298.87 282.54"/>
<path d="M298.87 282.54L298.88 279.87M298.88 279.87L298.78 278.94"/>
<path d="M236.28 219.95L239.09 235.82M239.09 235.82L245.65 250.54M245.65 250.54L255.58 263.25M255.58 263.25L268.28 273.17M268.28 273.17L283 279.73M283 279.73L298.87 282.54"/>
<path d="M236.28 219.95L238.63 219.93M238.63 219.93L239.78 220M239.78 220L239.85 220.02M239.85 220.02L239.88 220.04"/>
<path d="M234.8 219.98L236.28 219.95"/>
<path d="M298.87 154.95L283 157.76M283 157.76L268.28 164.32M268.28 164.32L255.58 174.24M255.58 174.24L245.65 186.94M245.65 186.94L239.09 201.66M239.09 201.66L236.28 217.53"/>
<path d="M363.87 217.53L361.06 201.67M361.06 201.67L354.5 186.94M354.5 186.94L344.58 174.24M344.58 174.24L331.88 164.32M331.88 164.32L317.15 157.76M317.15 157.76L301.29 154.95"/>
<path d="M360.27 217.45L361.2 217.55M361.2 217.55L363.87 217.54"/>
<path d="M365.36 217.51L363.87 217.53"/>
<path d="M301.31 153.46L301.29 154.95"/>
<path d="M301.29 154.95L301.28 157.62M301.28 157.62L301.38 158.55"/>
<path d="M298.87 154.95L298.88 157.29M298.88 157.29L298.82 158.45M298.82 158.45L298.81 158.52M298.81 158.52L298.78 158.55"/>
<path d="M298.84 153.46L298.87 154.95"/>
<path d="M234.8 217.51L236.28 217.54"/>
<path d="M236.29 217.54L238.95 217.55M238.95 217.55L239.89 217.45"/>
<path d="M322.04 189.74L321.96 189.19"/>
<path d="M321.96 203.84L322.04 203.29"/>
<path d="M322.57 203.29L322.65 203.84"/>
<path d="M322.65 189.19L322.57 189.74"/>
<path d="M277.59 189.74L277.51 189.19"/>
<path d="M277.51 203.84L277.59 203.29"/>
<path d="M278.12 203.29L278.2 203.84"/>
<path d="M278.2 189.19L278.12 189.74"/>
<path d="M277.59 234.19L277.51 233.64"/>
<path d="M277.51 248.29L277.59 247.74"/>
<path d="M278.12 247.74L278.2 248.29"/>
<path d="M278.2 233.64L278.12 234.19"/>
<path d="M314.97 196.52L316.68 191.8M316.68 191.8L321.03 189.3M321.03 189.3L325.97 190.17M325.97 190.17L329.19 194.01M329.19 194.01L329.19 199.03M329.19 199.03L325.97 202.87M325.97 202.87L321.03 203.74M321.03 203.74L316.68 201.23M316.68 201.23L314.97 196.52"/>
<path d="M270.52 196.52L272.23 191.8M272.23 191.8L276.58 189.3M276.58 189.3L281.52 190.17M281.52 190.17L284.74 194.01M284.74 194.01L284.74 199.03M284.74 199.03L281.52 202.87M281.52 202.87L276.58 203.74M276.58 203.74L272.23 201.23M272.23 201.23L270.52 196.52"/>
<path d="M270.52 240.97L272.23 236.25M272.23 236.25L276.58 233.75M276.58 233.75L281.52 234.62M281.52 234.62L284.74 238.46M284.74 238.46L284.74 243.48M284.74 243.48L281.52 247.32M281.52 247.32L276.58 248.19M276.58 248.19L272.23 245.68M272.23 245.68L270.52 240.97"/>
<path d="M314.97 240.97L316.68 236.25M316.68 236.25L321.03 233.75M321.03 233.75L325.97 234.62M325.97 234.62L329.19 238.46M329.19 238.46L329.19 243.48M329.19 243.48L325.97 247.32M325.97 247.32L321.03 248.19M321.03 248.19L316.68 245.68M316.68 245.68L314.97 240.97"/>
<path d="M321.98 203.73L322.62 203.73"/>
<path d="M348.99 202.07L343.94 191.43M343.94 191.43L336.62 182.21M336.62 182.21L327.39 174.88M327.39 174.88L316.75 169.83"/>
<path d="M346.63 202.07L348.99 202.07"/>
<path d="M251.17 202.07L253.52 202.07"/>
<path d="M283.41 169.83L272.76 174.88M272.76 174.88L263.54 182.21M263.54 182.21L256.21 191.43M256.21 191.43L251.17 202.07"/>
<path d="M277.53 203.73L278.17 203.73"/>
<path d="M277.53 248.18L278.17 248.18"/>
<path d="M253.52 235.41L251.17 235.41"/>
<path d="M251.17 235.41L256.21 246.06M256.21 246.06L263.54 255.28M263.54 255.28L272.76 262.61M272.76 262.61L283.41 267.65"/>
<path d="M306.74 196.52L308.53 189.29M308.53 189.29L313.46 183.71M313.46 183.71L320.43 181.07M320.43 181.07L327.82 181.97M327.82 181.97L333.95 186.2M333.95 186.2L337.41 192.8M337.41 192.8L337.41 200.24M337.41 200.24L333.95 206.83M333.95 206.83L327.82 211.06M327.82 211.06L320.43 211.96M320.43 211.96L313.46 209.32M313.46 209.32L308.53 203.75M308.53 203.75L306.74 196.52"/>
<path d="M262.29 196.52L264.08 189.29M264.08 189.29L269.01 183.71M269.01 183.71L275.98 181.07M275.98 181.07L283.37 181.97M283.37 181.97L289.5 186.2M289.5 186.2L292.96 192.8M292.96 192.8L292.96 200.24M292.96 200.24L289.5 206.83M289.5 206.83L283.37 211.06M283.37 211.06L275.98 211.96M275.98 211.96L269.01 209.32M269.01 209.32L264.08 203.75M264.08 203.75L262.29 196.52"/>
<path d="M262.29 240.97L264.08 233.74M264.08 233.74L269.01 228.16M269.01 228.16L275.98 225.52M275.98 225.52L283.37 226.42M283.37 226.42L289.5 230.65M289.5 230.65L292.96 237.25M292.96 237.25L292.96 244.69M292.96 244.69L289.5 251.28M289.5 251.28L283.37 255.51M283.37 255.51L275.98 256.41M275.98 256.41L269.01 253.77M269.01 253.77L264.08 248.2M264.08 248.2L262.29 240.97"/>
<path d="M306.74 240.97L308.53 233.74M308.53 233.74L313.46 228.16M313.46 228.16L320.43 225.52M320.43 225.52L327.82 226.42M327.82 226.42L333.95 230.65M333.95 230.65L337.41 237.25M337.41 237.25L337.41 244.69M337.41 244.69L333.95 251.28M333.95 251.28L327.82 255.51M327.82 255.51L320.43 256.41M320.43 256.41L313.46 253.77M313.46 253.77L308.53 248.2M308.53 248.2L306.74 240.97"/>
<path d="M346.63 202.07L341.85 192.28M341.85 192.28L335.04 183.78M335.04 183.78L326.54 176.97M326.54 176.97L316.75 172.19"/>
<path d="M346.63 202.07L345.01 202.07"/>
<path d="M345.01 202.07L343.72 202.49M343.72 202.49L342.91 203.58"/>
<path d="M332.44 215.79L338.84 210.69M338.84 210.69L342.91 203.58"/>
<path d="M342.91 233.91L338.84 226.8M338.84 226.8L332.44 221.69"/>
<path d="M342.91 233.91L343.72 235M343.72 235L345.01 235.41"/>
<path d="M346.63 235.41L345.01 235.41"/>
<path d="M253.52 235.41L258.3 245.2M258.3 245.2L265.11 253.71M265.11 253.71L273.62 260.52M273.62 260.52L283.41 265.3"/>
<path d="M253.52 235.41L255.14 235.41"/>
<path d="M255.14 235.41L256.44 235M256.44 235L257.25 233.91"/>
<path d="M267.71 221.69L261.31 226.8M261.31 226.8L257.25 233.91"/>
<path d="M257.25 203.58L261.31 210.69M261.31 210.69L267.71 215.79"/>
<path d="M257.25 203.58L256.44 202.49M256.44 202.49L255.14 202.07"/>
<path d="M253.52 202.07L255.14 202.07"/>
<path d="M283.41 172.19L273.62 176.97M273.62 176.97L265.11 183.78M265.11 183.78L258.3 192.28M258.3 192.28L253.52 202.07"/>
<path d="M348.99 235.41L346.63 235.41"/>
<path d="M316.75 265.3L326.54 260.52M326.54 260.52L335.04 253.71M335.04 253.71L341.85 245.2M341.85 245.2L346.63 235.41"/>
<path d="M316.75 267.65L327.39 262.61M327.39 262.61L336.62 255.28M336.62 255.28L343.94 246.06M343.94 246.06L348.99 235.41"/>
<path d="M322.59 233.64L322.57 233.97"/>
<path d="M322.57 247.52L322.7 248.27"/>
<path d="M321.9 248.27L322.04 247.52"/>
<path d="M322.04 233.97L322.01 233.64"/>
<path d="M298.4 289.84L301.76 289.84"/>
<path d="M371.18 220.42L371.19 219.36"/>
<path d="M362.3 219.93L362.3 219.29"/>
<path d="M298.89 280.96L301.27 280.96"/>
<path d="M237.86 217.55L237.86 219.93"/>
<path d="M301.27 156.52L298.89 156.52"/>
<path d="M362.3 218.2L362.3 217.55"/>
<path d="M371.19 218.12L371.18 217.06"/>
<path d="M301.75 147.64L298.4 147.64"/>
<path d="M228.98 217.07L228.98 220.42"/>
<path d="M332.44 215.79L330.88 217.56M330.88 217.56L330.88 219.92M330.88 219.92L332.44 221.69"/>
<path d="M340.49 186.54L340.62 184.77M340.62 184.77L339.83 183.18"/>
<path d="M339.83 183.18L329.28 174.11M329.28 174.11L316.75 168.07"/>
<path d="M316.75 169.83L316.75 168.07"/>
<path d="M316.75 169.83L316.75 172.19"/>
<path d="M316.75 172.19L316.75 173.81"/>
<path d="M315.24 175.91L316.33 175.1M316.33 175.1L316.75 173.81"/>
<path d="M315.24 175.91L308.13 179.98M308.13 179.98L303.03 186.38"/>
<path d="M297.13 186.38L298.9 187.94M298.9 187.94L301.26 187.94M301.26 187.94L303.03 186.38"/>
<path d="M297.13 186.38L292.02 179.98M292.02 179.98L284.91 175.91"/>
<path d="M283.41 173.81L283.82 175.1M283.82 175.1L284.91 175.91"/>
<path d="M283.41 172.19L283.41 173.81"/>
<path d="M283.41 172.19L283.41 169.83"/>
<path d="M283.41 168.07L283.41 169.83"/>
<path d="M283.41 168.07L270.87 174.11M270.87 174.11L260.32 183.18"/>
<path d="M260.32 183.18L259.53 184.77M259.53 184.77L259.67 186.54"/>
<path d="M267.71 221.69L269.28 219.92M269.28 219.92L269.28 217.56M269.28 217.56L267.71 215.79"/>
<path d="M259.67 250.95L259.53 252.72M259.53 252.72L260.32 254.3"/>
<path d="M260.32 254.3L270.87 263.38M270.87 263.38L283.41 269.41"/>
<path d="M283.41 267.65L283.41 269.41"/>
<path d="M283.41 267.65L283.41 265.3"/>
<path d="M283.41 265.3L283.41 263.68"/>
<path d="M284.91 261.57L283.82 262.38M283.82 262.38L283.41 263.68"/>
<path d="M284.91 261.57L292.02 257.51M292.02 257.51L297.13 251.11"/>
<path d="M303.03 251.11L301.26 249.55M301.26 249.55L298.9 249.55M298.9 249.55L297.13 251.11"/>
<path d="M303.03 251.11L308.13 257.51M308.13 257.51L315.24 261.57"/>
<path d="M316.75 263.68L316.33 262.38M316.33 262.38L315.24 261.57"/>
<path d="M316.75 265.3L316.75 263.68"/>
<path d="M316.75 265.3L316.75 267.65"/>
<path d="M316.75 269.41L316.75 267.65"/>
<path d="M316.75 269.41L329.28 263.38M329.28 263.38L339.83 254.3"/>
<path d="M339.83 254.3L340.62 252.72M340.62 252.72L340.49 250.95"/>
<path d="M371.19 219.36L362.3 219.29"/>
<path d="M362.3 219.29L362.15 219.29"/>
<path d="M357.73 219.25L362.15 219.29"/>
<path d="M298.89 280.8L301.27 280.8"/>
<path d="M362.14 219.93L362.15 219.28"/>
<path d="M362.15 218.2L362.14 217.55"/>
<path d="M301.27 156.68L298.89 156.68"/>
<path d="M238.02 217.55L238.02 219.93"/>
<path d="M357.73 218.24L362.15 218.2"/>
<path d="M362.3 218.2L362.15 218.2"/>
<path d="M371.19 218.12L362.3 218.2"/>
<path d="M357.73 218.24L355.65 203.38M355.65 203.38L349.8 189.55M349.8 189.55L340.58 177.71M340.58 177.71L328.61 168.65M328.61 168.65L314.72 162.98M314.72 162.98L299.83 161.09M299.83 161.09L284.95 163.11M284.95 163.11L271.1 168.9M271.1 168.9L259.22 178.06M259.22 178.06L250.11 189.99M250.11 189.99L244.38 203.86M244.38 203.86L242.42 218.74M242.42 218.74L244.38 233.62M244.38 233.62L250.11 247.5M250.11 247.5L259.22 259.42M259.22 259.42L271.1 268.59M271.1 268.59L284.95 274.38M284.95 274.38L299.83 276.4M299.83 276.4L314.72 274.51M314.72 274.51L328.61 268.84M328.61 268.84L340.58 259.78M340.58 259.78L349.8 247.93M349.8 247.93L355.65 234.11M355.65 234.11L357.73 219.25"/>
<path d="M371.19 219.36L371.19 218.12"/>
<path d="M227.85 218.74L229.79 202.09M229.79 202.09L235.53 186.33M235.53 186.33L244.75 172.31M244.75 172.31L256.94 160.81M256.94 160.81L271.47 152.42M271.47 152.42L287.53 147.61M287.53 147.61L304.28 146.63M304.28 146.63L320.79 149.55M320.79 149.55L336.19 156.19M336.19 156.19L349.65 166.2M349.65 166.2L360.43 179.05M360.43 179.05L367.95 194.04M367.95 194.04L371.82 210.36M371.82 210.36L371.82 227.13M371.82 227.13L367.95 243.45M367.95 243.45L360.43 258.43M360.43 258.43L349.65 271.28M349.65 271.28L336.19 281.3M336.19 281.3L320.79 287.94M320.79 287.94L304.28 290.85M304.28 290.85L287.53 289.88M287.53 289.88L271.47 285.07M271.47 285.07L256.94 276.68M256.94 276.68L244.75 265.17M244.75 265.17L235.53 251.16M235.53 251.16L229.79 235.4M229.79 235.4L227.85 218.74"/>
<path d="M211.18 218.74L213.12 200.26M213.12 200.26L218.86 182.58M218.86 182.58L228.16 166.49M228.16 166.49L240.59 152.68M240.59 152.68L255.63 141.75M255.63 141.75L272.61 134.19M272.61 134.19L290.78 130.33M290.78 130.33L309.37 130.33M309.37 130.33L327.55 134.19M327.55 134.19L344.53 141.75M344.53 141.75L359.56 152.68M359.56 152.68L372 166.49M372 166.49L381.29 182.58M381.29 182.58L387.03 200.26M387.03 200.26L388.98 218.74M388.98 218.74L387.03 237.23M387.03 237.23L381.29 254.9M381.29 254.9L372 271M372 271L359.56 284.81M359.56 284.81L344.53 295.73M344.53 295.73L327.55 303.29M327.55 303.29L309.37 307.16M309.37 307.16L290.78 307.16M290.78 307.16L272.61 303.29M272.61 303.29L255.63 295.73M255.63 295.73L240.59 284.81M240.59 284.81L228.16 271M228.16 271L218.86 254.9M218.86 254.9L213.12 237.23M213.12 237.23L211.18 218.74"/>
<path d="M351.62 126.32L246.66 125.32"/>
<path d="M260.92 299.08L260.92 333.86"/>
<path d="M338.31 299.08L338.31 333.18"/>
</g>
<g id="PFV" display="visible">
<path d="M281.32 97.6L282.31 80.77"/>
<path d="M282.31 80.77L284.29 78.79"/>
<path d="M284.29 78.79L315.97 78.79"/>
<path d="M315.97 78.79L317.95 81.76"/>
<path d="M317.95 81.76L317.95 97.6"/>
<path d="M271.42 98.59L272.41 97.6"/>
<path d="M270.4 97.66L329.81 97.81"/>
<path d="M327.86 97.6L327.86 98.59"/>
<path d="M327.86 98.59L328.85 98.59"/>
<path d="M328.85 105.52L345.68 104.53"/>
<path d="M345.68 104.53L345.68 95.62"/>
<path d="M345.68 95.62L329.84 94.63"/>
<path d="M271.42 105.52L254.59 104.53"/>
<path d="M254.59 104.53L254.59 95.62"/>
<path d="M254.59 95.62L269.44 94.63"/>
<path d="M326.84 126.08L329.84 97.6"/>
<path d="M329.84 97.6L328.85 63.94"/>
<path d="M328.85 63.94L271.42 64.93"/>
<path d="M271.42 64.93L269.44 66.91"/>
<path d="M269.44 66.91L270.43 98.59"/>
<path d="M270.43 98.59L272.38 125.57"/>
<path d="M246.66 125.32L218.94 124.33"/>
<path d="M218.94 124.33L218.94 114.43"/>
<path d="M218.94 114.43L240.72 94.63"/>
<path d="M240.72 94.63L261.52 83.74"/>
<path d="M261.52 83.74L261.52 69.88"/>
<path d="M261.52 69.88L254.59 69.88"/>
<path d="M254.59 69.88L228.84 82.75"/>
<path d="M228.84 82.75L212.01 95.62"/>
<path d="M212.01 95.62L197.16 111.46"/>
<path d="M197.16 111.46L188.25 123.34"/>
<path d="M188.25 123.34L188.25 275.83"/>
<path d="M188.25 275.83L195.18 296.62"/>
<path d="M195.18 296.62L211.02 313.45"/>
<path d="M211.02 313.45L220.92 320.38"/>
<path d="M220.92 320.38L221.91 320.38"/>
<path d="M221.91 320.38L246.66 330.29"/>
<path d="M246.66 330.29L248.64 330.29"/>
<path d="M248.64 330.29L268.45 335.24"/>
<path d="M268.45 335.24L274.39 335.24"/>
<path d="M274.39 335.24L295.18 338.21"/>
<path d="M295.18 338.21L331.82 335.24"/>
<path d="M331.82 335.24L362.51 327.32"/>
<path d="M362.51 327.32L386.28 316.42"/>
<path d="M386.28 316.42L400.14 302.56"/>
<path d="M400.14 302.56L409.05 286.72"/>
<path d="M409.05 286.72L412.02 275.83"/>
<path d="M412.02 275.83L411.03 122.35"/>
<path d="M411.03 122.35L393.21 100.57"/>
<path d="M393.21 100.57L379.34 87.7"/>
<path d="M379.34 87.7L348.65 70.87"/>
<path d="M348.65 70.87L339.74 68.89"/>
<path d="M339.74 68.89L336.77 74.83"/>
<path d="M336.77 74.83L338.75 83.74"/>
<path d="M338.75 83.74L339.74 83.74"/>
<path d="M339.74 83.74L358.55 93.64"/>
<path d="M358.55 93.64L376.37 109.48"/>
<path d="M376.37 109.48L382.31 117.4"/>
<path d="M382.31 117.4L381.32 124.33"/>
<path d="M381.32 124.33L351.62 126.32"/>
</g>
</g>
</svg>
