<?xml version="1.0" standalone="no"?><svg xmlns="http://www.w3.org/2000/svg" width="600.000" height="450.000" viewBox="0.0 0.0 600.000 450.000" version="1.1">
<title>Acme Converter - Post-processed with EDS-Designer: 14.44 (info@symca.com)</title>
<desc>Acme Converter - Post-processed with EDS-Designer: 14.44 (info@symca.com)</desc>
<g id="EDS_STYLE_GROUP" fill="none" stroke="black" stroke-width="1.0">
<g id="0" display="visible">
<path d="M200.51 448.2L200.51 414.48M202.12 414.48L202.12 448.2M195.7 414.48L214.96 414.48M214.96 414.48L219.78 416.09M219.78 416.09L221.38 417.69M221.38 417.69L222.99 420.9M222.99 420.9L222.99 424.11M222.99 424.11L221.38 427.32M221.38 427.32L219.78 428.93M219.78 428.93L214.96 430.54M214.96 414.48L218.17 416.09M218.17 416.09L219.78 417.69M219.78 417.69L221.38 420.9M221.38 420.9L221.38 424.11M221.38 424.11L219.78 427.32M219.78 427.32L218.17 428.93M218.17 428.93L214.96 430.54M202.12 430.54L214.96 430.54M214.96 430.54L219.78 432.14M219.78 432.14L221.38 433.75M221.38 433.75L222.99 436.96M222.99 436.96L222.99 441.77M222.99 441.77L221.38 444.99M221.38 444.99L219.78 446.59M219.78 446.59L214.96 448.2M214.96 448.2L195.7 448.2M214.96 430.54L218.17 432.14M218.17 432.14L219.78 433.75M219.78 433.75L221.38 436.96M221.38 436.96L221.38 441.77M221.38 441.77L219.78 444.99M219.78 444.99L218.17 446.59M218.17 446.59L214.96 448.2M235.83 448.2L235.83 414.48M237.44 414.48L237.44 448.2M231.02 414.48L242.26 414.48M231.02 448.2L255.1 448.2M255.1 448.2L255.1 438.56M255.1 438.56L253.5 448.2M274.37 414.48L263.13 448.2M274.37 414.48L285.61 448.2M274.37 419.3L284 448.2M266.34 438.56L280.79 438.56M259.92 448.2L269.55 448.2M279.18 448.2L288.82 448.2M316.11 419.3L317.72 424.11M317.72 424.11L317.72 414.48M317.72 414.48L316.11 419.3M316.11 419.3L312.9 416.09M312.9 416.09L308.08 414.48M308.08 414.48L304.87 414.48M304.87 414.48L300.06 416.09M300.06 416.09L296.85 419.3M296.85 419.3L295.24 422.51M295.24 422.51L293.63 427.32M293.63 427.32L293.63 435.35M293.63 435.35L295.24 440.17M295.24 440.17L296.85 443.38M296.85 443.38L300.06 446.59M300.06 446.59L304.87 448.2M304.87 448.2L308.08 448.2M308.08 448.2L312.9 446.59M312.9 446.59L316.11 443.38M316.11 443.38L317.72 440.17M304.87 414.48L301.66 416.09M301.66 416.09L298.45 419.3M298.45 419.3L296.85 422.51M296.85 422.51L295.24 427.32M295.24 427.32L295.24 435.35M295.24 435.35L296.85 440.17M296.85 440.17L298.45 443.38M298.45 443.38L301.66 446.59M301.66 446.59L304.87 448.2M332.17 448.2L332.17 414.48M333.77 414.48L333.77 448.2M354.65 414.48L333.77 435.35M341.8 428.93L354.65 448.2M340.2 428.93L353.04 448.2M327.35 414.48L338.59 414.48M348.22 414.48L357.86 414.48M327.35 448.2L338.59 448.2M348.22 448.2L357.86 448.2"/>
<path d="M403.79 304.15L403.79 301.98M403.79 301.98L405.97 297.62M405.97 297.62L408.15 295.44M408.15 295.44L412.51 293.26M412.51 293.26L421.23 293.26M421.23 293.26L425.59 295.44M425.59 295.44L427.77 297.62M427.77 297.62L429.94 301.98M429.94 301.98L429.94 306.33M429.94 306.33L427.77 310.69M427.77 310.69L423.41 317.23M423.41 317.23L401.61 339.03M401.61 339.03L432.12 339.03"/>
<path d="M402.14 161.99L407.28 159.42M407.28 159.42L414.99 151.71M414.99 151.71L414.99 205.67"/>
<path d="M385.68 380.76L167.87 380.76"/>
<path d="M366.13 339.59L359.38 339.59"/>
<path d="M366.13 378.36L366.13 339.59"/>
<path d="M187.43 378.36L366.13 378.36"/>
<path d="M187.43 339.59L187.43 378.36"/>
<path d="M194.17 339.59L187.43 339.59"/>
<path d="M194.17 292.38L194.17 339.59"/>
<path d="M187.43 292.38L194.17 292.38"/>
<path d="M187.43 255.29L187.43 292.38"/>
<path d="M216.09 255.29L187.43 255.29"/>
<path d="M216.09 233.72L216.09 255.29"/>
<path d="M187.43 233.72L216.09 233.72"/>
<path d="M187.43 204.72L187.43 233.72"/>
<path d="M194.17 204.72L187.43 204.72"/>
<path d="M194.17 157.52L194.17 204.72"/>
<path d="M187.43 157.52L194.17 157.52"/>
<path d="M187.43 132.23L187.43 157.52"/>
<path d="M216.09 132.23L187.43 132.23"/>
<path d="M366.13 132.23L337.47 132.23"/>
<path d="M366.13 157.52L366.13 132.23"/>
<path d="M359.38 157.52L366.13 157.52"/>
<path d="M359.38 204.72L359.38 157.52"/>
<path d="M366.13 204.72L359.38 204.72"/>
<path d="M366.13 233.72L366.13 204.72"/>
<path d="M337.47 233.72L366.13 233.72"/>
<path d="M337.47 255.29L337.47 233.72"/>
<path d="M366.13 255.29L337.47 255.29"/>
<path d="M366.13 292.38L366.13 255.29"/>
<path d="M359.38 292.38L366.13 292.38"/>
<path d="M359.38 339.59L359.38 292.38"/>
<path d="M167.87 1.79L167.87 380.76"/>
<path d="M385.68 1.79L167.87 1.79"/>
<path d="M385.68 1.79L385.68 380.76"/>
<path d="M337.47 99.37L337.47 30.4"/>
<path d="M337.47 132.23L337.47 99.37"/>
<path d="M337.47 30.4L317.24 30.4"/>
<path d="M317.24 30.4L317.24 66.48"/>
<path d="M317.24 66.48L236.32 66.48"/>
<path d="M236.32 66.48L236.32 30.4"/>
<path d="M216.09 30.4L236.32 30.4"/>
<path d="M216.09 99.37L216.09 30.4"/>
<path d="M216.09 99.37L216.09 132.23"/>
<path d="M337.47 99.37L216.09 99.37"/>
<path d="M336.32 291.15L216.46 291.15"/>
<path d="M216.46 339.44L216.46 291.15"/>
<path d="M216.46 339.44L336.32 339.44"/>
<path d="M336.32 291.15L336.32 339.44"/>
<path d="M336.32 158.37L216.46 158.37"/>
<path d="M216.46 207.55L216.46 158.37"/>
<path d="M216.46 207.55L336.32 207.55"/>
<path d="M336.32 158.37L336.32 207.55"/>
</g>
</g>
</svg>
