<?xml version="1.0" standalone="no"?><svg xmlns="http://www.w3.org/2000/svg" width="600.000" height="450.000" viewBox="0.0 0.0 600.000 450.000" version="1.1">
<title>Acme Converter - Post-processed with EDS-Designer: 14.44 (info@symca.com)</title>
<desc>Acme Converter - Post-processed with EDS-Designer: 14.44 (info@symca.com)</desc>
<g id="EDS_STYLE_GROUP" fill="none" stroke="black" stroke-width="1.0">
<g id="0" display="visible">
<path d="M223.09 448.19L223.09 411.67M224.83 411.67L224.83 448.19M217.87 411.67L238.74 411.67M238.74 411.67L243.96 413.41M243.96 413.41L245.69 415.15M245.69 415.15L247.43 418.63M247.43 418.63L247.43 422.11M247.43 422.11L245.69 425.59M245.69 425.59L243.96 427.32M243.96 427.32L238.74 429.06M238.74 411.67L242.22 413.41M242.22 413.41L243.96 415.15M243.96 415.15L245.69 418.63M245.69 418.63L245.69 422.11M245.69 422.11L243.96 425.59M243.96 425.59L242.22 427.32M242.22 427.32L238.74 429.06M224.83 429.06L238.74 429.06M238.74 429.06L243.96 430.8M243.96 430.8L245.69 432.54M245.69 432.54L247.43 436.02M247.43 436.02L247.43 441.24M247.43 441.24L245.69 444.71M245.69 444.71L243.96 446.45M243.96 446.45L238.74 448.19M238.74 448.19L217.87 448.19M238.74 429.06L242.22 430.8M242.22 430.8L243.96 432.54M243.96 432.54L245.69 436.02M245.69 436.02L245.69 441.24M245.69 441.24L243.96 444.71M243.96 444.71L242.22 446.45M242.22 446.45L238.74 448.19M261.35 448.19L261.35 411.67M263.08 411.67L263.08 448.19M256.13 411.67L268.3 411.67M256.13 448.19L282.21 448.19M282.21 448.19L282.21 437.76M282.21 437.76L280.47 448.19M303.08 411.67L290.91 448.19M303.08 411.67L315.26 448.19M303.08 416.89L313.52 448.19M294.39 437.76L310.04 437.76M287.43 448.19L297.86 448.19M308.3 448.19L318.73 448.19M348.3 416.89L350.04 422.11M350.04 422.11L350.04 411.67M350.04 411.67L348.3 416.89M348.3 416.89L344.82 413.41M344.82 413.41L339.6 411.67M339.6 411.67L336.12 411.67M336.12 411.67L330.91 413.41M330.91 413.41L327.43 416.89M327.43 416.89L325.69 420.37M325.69 420.37L323.95 425.59M323.95 425.59L323.95 434.28M323.95 434.28L325.69 439.5M325.69 439.5L327.43 442.98M327.43 442.98L330.91 446.45M330.91 446.45L336.12 448.19M336.12 448.19L339.6 448.19M339.6 448.19L344.82 446.45M344.82 446.45L348.3 442.98M348.3 442.98L350.04 439.5M336.12 411.67L332.65 413.41M332.65 413.41L329.17 416.89M329.17 416.89L327.43 420.37M327.43 420.37L325.69 425.59M325.69 425.59L325.69 434.28M325.69 434.28L327.43 439.5M327.43 439.5L329.17 442.98M329.17 442.98L332.65 446.45M332.65 446.45L336.12 448.19M365.69 448.19L365.69 411.67M367.43 411.67L367.43 448.19M390.03 411.67L367.43 434.28M376.12 427.32L390.03 448.19M374.38 427.32L388.29 448.19M360.47 411.67L372.64 411.67M383.08 411.67L393.51 411.67M360.47 448.19L372.64 448.19M383.08 448.19L393.51 448.19"/>
<path d="M203.11 105.16L200.97 105.16M200.12 105.16L199.97 105.16M199.12 105.16L195.7 105.16M194.85 105.16L194.7 105.16M193.85 105.16L191.71 105.16"/>
<path d="M197.41 99.46L197.41 101.6M197.41 102.45L197.41 102.59M197.41 103.45L197.41 106.87M197.41 107.72L197.41 107.86M197.41 108.72L197.41 110.85"/>
<path d="M210.41 346.91L208.28 346.91M207.42 346.91L207.28 346.91M206.42 346.91L203.01 346.91M202.15 346.91L202.01 346.91M201.15 346.91L199.02 346.91"/>
<path d="M204.71 341.22L204.71 343.35M204.71 344.21L204.71 344.35M204.71 345.21L204.71 348.62M204.71 349.48L204.71 349.62M204.71 350.47L204.71 352.61"/>
<path d="M147.6 232.61L145.46 232.61M144.61 232.61L144.46 232.61M143.61 232.61L140.19 232.61M139.34 232.61L139.2 232.61M138.34 232.61L136.2 232.61"/>
<path d="M141.9 226.91L141.9 229.05M141.9 229.9L141.9 230.04M141.9 230.9L141.9 234.32M141.9 235.17L141.9 235.31M141.9 236.17L141.9 238.31"/>
<path d="M499.86 226.04L398.27 226.04M354.44 226.04L347.14 226.04M303.32 226.04L201.72 226.04"/>
<path d="M350.79 76.96L350.79 178.56M350.79 222.38L350.79 229.69M350.79 273.51L350.79 375.11"/>
<path d="M412.22 226.04L310.62 226.04M266.8 226.04L259.49 226.04M215.67 226.04L114.07 226.04"/>
<path d="M263.15 76.96L263.15 178.56M263.15 222.38L263.15 229.69M263.15 273.51L263.15 375.11"/>
<path d="M388.55 226.04L342.62 226.04M324.25 226.04L321.19 226.04M302.81 226.04L229.32 226.04M210.95 226.04L207.89 226.04M189.51 226.04L143.58 226.04"/>
<path d="M266.07 103.55L266.07 149.48M266.07 167.85L266.07 170.92M266.07 189.29L266.07 262.78M266.07 281.15L266.07 284.22M266.07 302.59L266.07 348.52"/>
<path d="M368.69 114.06L368.69 113.58M368.69 113.39L368.69 113.36M368.69 113.17L368.69 112.41M368.69 112.22L368.69 112.19M368.69 111.99L368.69 111.52"/>
<path d="M252.08 59.14L250.68 59.14M250.12 59.14L250.03 59.14M249.47 59.14L247.23 59.14M246.67 59.14L246.58 59.14M246.02 59.14L244.62 59.14"/>
<path d="M236.7 111.73L242.79 111.73M245.23 111.73L245.64 111.73M248.07 111.73L257.82 111.73M260.26 111.73L260.67 111.73M263.1 111.73L269.2 111.73"/>
<path d="M381.03 88.4L353.26 88.4M342.15 88.4L340.29 88.4M329.18 88.4L284.75 88.4M273.64 88.4L271.78 88.4M260.67 88.4L232.9 88.4"/>
<path d="M245.25 114.06L245.25 113.58M245.25 113.39L245.25 113.36M245.25 113.17L245.25 112.41M245.25 112.22L245.25 112.19M245.25 111.99L245.25 111.52"/>
<path d="M172.39 339.61L208.96 339.61M223.59 339.61L226.02 339.61M240.65 339.61L299.15 339.61M313.78 339.61L316.22 339.61M330.84 339.61L367.41 339.61"/>
<path d="M149.2 137.07L149.2 170.43M149.2 183.78L149.2 186M149.2 199.35L149.2 252.72M149.2 266.07L149.2 268.29M149.2 281.64L149.2 315"/>
<path d="M197.48 112.46L195.68 112.46M194.95 112.46L194.83 112.46M194.11 112.46L191.21 112.46M190.49 112.46L190.37 112.46M189.64 112.46L187.83 112.46"/>
<path d="M398.27 91.95L398.27 79.49M398.27 74.51L398.27 73.67M398.27 68.69L398.27 48.75M398.27 43.76L398.27 42.93M398.27 37.95L398.27 25.48"/>
<path d="M172.39 361.52L208.96 361.52M223.59 361.52L226.02 361.52M240.65 361.52L299.15 361.52M313.78 361.52L316.22 361.52M330.84 361.52L367.41 361.52"/>
<path d="M197.48 90.55L195.68 90.55M194.95 90.55L194.83 90.55M194.11 90.55L191.21 90.55M190.49 90.55L190.37 90.55M189.64 90.55L187.83 90.55"/>
<path d="M215.67 26.97L215.67 36.09M215.67 39.74L215.67 40.35M215.67 44L215.67 58.59M215.67 62.24L215.67 62.85M215.67 66.5L215.67 75.62"/>
<path d="M390.23 9.11L359.01 9.11M346.52 9.11L344.44 9.11M331.95 9.11L281.98 9.11M269.49 9.11L267.41 9.11M254.92 9.11L223.7 9.11"/>
<path d="M127.29 137.07L127.29 170.44M127.29 183.78L127.29 186M127.29 199.35L127.29 252.73M127.29 266.07L127.29 268.3M127.29 281.64L127.29 315"/>
<path d="M254.38 115.02L274.1 115.02M281.99 115.02L283.3 115.02M291.19 115.02L322.74 115.02M330.63 115.02L331.95 115.02M339.84 115.02L359.56 115.02"/>
<path d="M359.56 337.05L339.84 337.05M331.95 337.05L330.63 337.05M322.74 337.05L291.19 337.05M283.3 337.05L281.98 337.05M274.09 337.05L254.37 337.05"/>
<path d="M254.38 117.94L274.1 117.94M281.99 117.94L283.3 117.94M291.19 117.94L322.74 117.94M330.63 117.94L331.95 117.94M339.84 117.94L359.56 117.94"/>
<path d="M359.56 334.13L339.84 334.13M331.95 334.13L330.63 334.13M322.74 334.13L291.19 334.13M283.3 334.13L281.98 334.13M274.09 334.13L254.37 334.13"/>
<path d="M243.7 149.34L250.67 149.34M253.45 149.34L253.92 149.34M256.7 149.34L267.85 149.34M270.63 149.34L271.1 149.34M273.88 149.34L280.85 149.34"/>
<path d="M280.85 302.73L273.88 302.73M271.1 302.73L270.63 302.73M267.85 302.73L256.7 302.73M253.92 302.73L253.45 302.73M250.67 302.73L243.7 302.73"/>
<path d="M385.89 164.68L390.73 164.68M392.66 164.68L392.98 164.68M394.91 164.68L402.65 164.68M404.58 164.68L404.9 164.68M406.83 164.68L411.67 164.68"/>
<path d="M411.58 287.39L406.76 287.39M404.83 287.39L404.51 287.39M402.59 287.39L394.88 287.39M392.96 287.39L392.64 287.39M390.71 287.39L385.89 287.39"/>
<path d="M270.89 139.12L269.9 139.12M269.51 139.12L269.44 139.12M269.04 139.12L267.46 139.12M267.07 139.12L267 139.12M266.61 139.12L265.62 139.12"/>
<path d="M343.49 312.12L343.49 312.29M343.49 312.36L343.49 312.37M343.49 312.44L343.49 312.71M343.49 312.78L343.49 312.79M343.49 312.86L343.49 313.04"/>
<path d="M308.3 145.17L302.01 145.17M299.5 145.17L299.08 145.17M296.56 145.17L286.5 145.17M283.98 145.17L283.56 145.17M281.05 145.17L274.76 145.17"/>
<path d="M270.45 313.03L270.45 312.86M270.45 312.79L270.45 312.78M270.45 312.71L270.45 312.44M270.45 312.37L270.45 312.36M270.45 312.29L270.45 312.12"/>
<path d="M343.05 312.95L344.04 312.95M344.43 312.95L344.5 312.95M344.89 312.95L346.47 312.95M346.86 312.95L346.93 312.95M347.32 312.95L348.31 312.95"/>
<path d="M305.63 306.9L311.92 306.9M314.44 306.9L314.86 306.9M317.38 306.9L327.44 306.9M329.95 306.9L330.37 306.9M332.89 306.9L339.18 306.9"/>
<path d="M201.06 268.1L201.06 265.83M201.06 264.93L201.06 264.78M201.06 263.87L201.06 260.25M201.06 259.34L201.06 259.19M201.06 258.28L201.06 256.02"/>
<path d="M331.8 314.2L331.8 310.51M331.8 309.03L331.8 308.78M331.8 307.31L331.8 301.4M331.8 299.93L331.8 299.68M331.8 298.2L331.8 294.51"/>
<path d="M271.91 153L285.06 153M290.32 153L291.19 153M296.45 153L317.49 153M322.75 153L323.62 153M328.88 153L342.03 153"/>
<path d="M342.03 299.07L328.88 299.07M323.62 299.07L322.75 299.07M317.49 299.07L296.45 299.07M291.19 299.07L290.32 299.07M285.06 299.07L271.91 299.07"/>
<path d="M308.43 305.89L308.43 308.16M308.43 309.07L308.43 309.22M308.43 310.12L308.43 313.75M308.43 314.66L308.43 314.81M308.43 315.72L308.43 317.98"/>
<path d="M305.51 317.98L305.51 315.71M305.51 314.8L305.51 314.65M305.51 313.75L305.51 310.12M305.51 309.22L305.51 309.07M305.51 308.16L305.51 305.89"/>
<path d="M282.14 294.51L282.14 298.2M282.14 299.68L282.14 299.93M282.14 301.4L282.14 307.31M282.14 308.79L282.14 309.04M282.14 310.51L282.14 314.21"/>
<path d="M185.51 201.2L186 201.2M186.2 201.2L186.23 201.2M186.43 201.2L187.21 201.2M187.41 201.2L187.44 201.2M187.64 201.2L188.13 201.2"/>
<path d="M193.76 203.25L193.76 211.79M193.76 215.21L193.76 215.78M193.76 219.2L193.76 232.87M193.76 236.29L193.76 236.86M193.76 240.28L193.76 248.82"/>
<path d="M188.14 250.87L187.64 250.87M187.44 250.87L187.41 250.87M187.21 250.87L186.42 250.87M186.22 250.87L186.19 250.87M185.99 250.87L185.5 250.87"/>
<path d="M179.88 239.53L179.88 234.47M179.88 232.44L179.88 232.11M179.88 230.08L179.88 221.99M179.88 219.96L179.88 219.63M179.88 217.6L179.88 212.54"/>
<path d="M400.09 252.8L400.09 242.77M400.09 238.75L400.09 238.08M400.09 234.07L400.09 218M400.09 213.99L400.09 213.32M400.09 209.31L400.09 199.27"/>
<path d="M213.84 199.27L213.84 209.31M213.84 213.32L213.84 213.99M213.84 218.01L213.84 234.07M213.84 238.09L213.84 238.76M213.84 242.77L213.84 252.81"/>
<path d="M305.22 135.1L305.87 135.1M306.14 135.1L306.18 135.1M306.44 135.1L307.49 135.1M307.76 135.1L307.8 135.1M308.06 135.1L308.72 135.1"/>
<path d="M305.22 316.97L305.87 316.97M306.14 316.97L306.18 316.97M306.44 316.97L307.49 316.97M307.76 316.97L307.8 316.97M308.06 316.97L308.72 316.97"/>
<path d="M185.51 207.05L186 207.05M186.2 207.05L186.23 207.05M186.43 207.05L187.21 207.05M187.41 207.05L187.44 207.05M187.64 207.05L188.13 207.05"/>
<path d="M187.92 203.25L187.92 211.79M187.92 215.21L187.92 215.78M187.92 219.2L187.92 232.88M187.92 236.3L187.92 236.87M187.92 240.28L187.92 248.83"/>
<path d="M188.14 245.03L187.64 245.03M187.44 245.03L187.41 245.03M187.21 245.03L186.42 245.03M186.22 245.03L186.19 245.03M185.99 245.03L185.5 245.03"/>
<path d="M185.72 248.82L185.72 240.28M185.72 236.86L185.72 236.29M185.72 232.87L185.72 219.2M185.72 215.78L185.72 215.21M185.72 211.79L185.72 203.25"/>
<path d="M394.25 252.8L394.25 242.77M394.25 238.75L394.25 238.08M394.25 234.07L394.25 218M394.25 213.99L394.25 213.32M394.25 209.31L394.25 199.27"/>
<path d="M219.69 199.27L219.69 209.31M219.69 213.32L219.69 213.99M219.69 218.01L219.69 234.07M219.69 238.09L219.69 238.76M219.69 242.77L219.69 252.81"/>
<path d="M368.69 91.33L368.69 84.74M368.69 82.11L368.69 81.67M368.69 79.04L368.69 68.5M368.69 65.87L368.69 65.43M368.69 62.8L368.69 56.22"/>
<path d="M369.31 59.14L367.91 59.14M367.35 59.14L367.26 59.14M366.7 59.14L364.46 59.14M363.9 59.14L363.81 59.14M363.25 59.14L361.85 59.14"/>
<path d="M344.73 111.73L350.83 111.73M353.26 111.73L353.67 111.73M356.11 111.73L365.86 111.73M368.3 111.73L368.71 111.73M371.14 111.73L377.24 111.73"/>
<path d="M245.25 91.33L245.25 84.74M245.25 82.11L245.25 81.67M245.25 79.04L245.25 68.5M245.25 65.87L245.25 65.43M245.25 62.8L245.25 56.22"/>
<path d="M331.56 149.34L341.97 149.34M346.13 149.34L346.82 149.34M350.99 149.34L367.64 149.34M371.8 149.34L372.49 149.34M376.66 149.34L387.06 149.34"/>
<path d="M387.06 302.73L376.66 302.73M372.49 302.73L371.8 302.73M367.64 302.73L350.99 302.73M346.82 302.73L346.13 302.73M341.97 302.73L331.56 302.73"/>
<path d="M348.31 139.12L347.32 139.12M346.93 139.12L346.86 139.12M346.47 139.12L344.89 139.12M344.49 139.12L344.42 139.12M344.03 139.12L343.04 139.12"/>
<path d="M343.49 139.04L343.49 139.21M343.49 139.28L343.49 139.3M343.49 139.36L343.49 139.64M343.49 139.71L343.49 139.72M343.49 139.79L343.49 139.96"/>
<path d="M338.96 145.17L332.71 145.17M330.22 145.17L329.8 145.17M327.3 145.17L317.31 145.17M314.81 145.17L314.39 145.17M311.89 145.17L305.65 145.17"/>
<path d="M270.45 139.95L270.45 139.78M270.45 139.71L270.45 139.7M270.45 139.63L270.45 139.36M270.45 139.29L270.45 139.28M270.45 139.21L270.45 139.04"/>
<path d="M265.63 312.95L266.61 312.95M267.01 312.95L267.07 312.95M267.47 312.95L269.05 312.95M269.44 312.95L269.51 312.95M269.9 312.95L270.89 312.95"/>
<path d="M274.98 306.9L281.22 306.9M283.72 306.9L284.14 306.9M286.63 306.9L296.63 306.9M299.12 306.9L299.54 306.9M302.04 306.9L308.28 306.9"/>
<path d="M201.06 196.05L201.06 193.79M201.06 192.88L201.06 192.73M201.06 191.82L201.06 188.2M201.06 187.29L201.06 187.14M201.06 186.24L201.06 183.97"/>
<path d="M331.8 157.56L331.8 153.87M331.8 152.39L331.8 152.14M331.8 150.67L331.8 144.76M331.8 143.29L331.8 143.04M331.8 141.56L331.8 137.87"/>
<path d="M308.43 134.09L308.43 136.36M308.43 137.27L308.43 137.42M308.43 138.33L308.43 141.95M308.43 142.86L308.43 143.01M308.43 143.92L308.43 146.18"/>
<path d="M305.51 146.18L305.51 143.91M305.51 143.01L305.51 142.85M305.51 141.95L305.51 138.32M305.51 137.42L305.51 137.27M305.51 136.36L305.51 134.1"/>
<path d="M282.14 137.87L282.14 141.56M282.14 143.04L282.14 143.29M282.14 144.76L282.14 150.67M282.14 152.14L282.14 152.39M282.14 153.87L282.14 157.56"/>
<path d="M374.53 54.76L372.82 50.63M372.82 50.63L368.69 48.92"/>
<path d="M368.69 59.14L374.53 59.14"/>
<path d="M374.53 59.14L374.53 54.76"/>
<path d="M368.69 48.92L368.69 59.14"/>
<path d="M374.53 88.4L374.53 59.14"/>
<path d="M374.53 95.45L374.53 88.4"/>
<path d="M374.53 98.58L374.53 95.45"/>
<path d="M374.53 111.73L374.53 98.58"/>
<path d="M374.53 113.85L374.53 111.73"/>
<path d="M368.69 48.92L362.48 48.92"/>
<path d="M358.72 48.92L355.54 48.92"/>
<path d="M358.72 48.92L362.48 48.92"/>
<path d="M374.53 88.4L368.69 88.4"/>
<path d="M368.69 88.4L368.69 59.14"/>
<path d="M362.48 48.92L362.48 59.14"/>
<path d="M368.69 59.14L362.48 59.14"/>
<path d="M374.53 111.73L368.69 111.73"/>
<path d="M368.69 112.77L368.69 111.73"/>
<path d="M368.69 104.43L368.69 111.73"/>
<path d="M368.69 104.43L372.82 102.71M372.82 102.71L374.53 98.58"/>
<path d="M368.69 100.51L372.82 99.03M372.82 99.03L374.53 95.45"/>
<path d="M368.69 104.43L368.69 100.51"/>
<path d="M368.69 93.46L372.82 91.98M372.82 91.98L374.53 88.4"/>
<path d="M368.69 100.51L368.69 93.46"/>
<path d="M359.92 28.1L359.92 31.75"/>
<path d="M359.92 31.75L359.92 48.19"/>
<path d="M359.92 48.19L359.92 48.92"/>
<path d="M362.48 59.14L362.48 87.63"/>
<path d="M355.54 45.99L355.54 48.92"/>
<path d="M359.92 48.19L358.64 46.64M358.64 46.64L355.54 45.99"/>
<path d="M355.54 45.99L258.4 45.99"/>
<path d="M258.4 45.99L258.4 48.92"/>
<path d="M258.4 48.92L255.21 48.92"/>
<path d="M267.93 60.6L255.21 48.92"/>
<path d="M358.72 48.92L346.01 60.6"/>
<path d="M362.48 48.92L332.53 72.31"/>
<path d="M368.69 93.46L368.69 88.4"/>
<path d="M362.48 87.63L251.46 87.63"/>
<path d="M251.46 87.63L251.46 59.14"/>
<path d="M251.46 59.14L245.25 59.14"/>
<path d="M245.25 88.4L245.25 59.14"/>
<path d="M368.69 88.4L245.25 88.4"/>
<path d="M388.04 117.58L388.04 113.19"/>
<path d="M388.04 113.19L388.04 91.28"/>
<path d="M388.04 91.28L388.04 31.02"/>
<path d="M225.9 31.02L225.9 75.94"/>
<path d="M225.9 75.94L225.9 97.85"/>
<path d="M225.9 97.85L225.9 117.58"/>
<path d="M239.41 113.85L239.41 111.73"/>
<path d="M239.41 111.73L239.41 98.58"/>
<path d="M239.41 98.58L239.41 95.45"/>
<path d="M239.41 95.45L239.41 88.4"/>
<path d="M239.41 88.4L239.41 59.14"/>
<path d="M239.41 59.14L239.41 54.76"/>
<path d="M266.49 104.43L266.43 111.36"/>
<path d="M347.5 111.36L347.45 104.43"/>
<path d="M368.69 111.73L359.94 111.73"/>
<path d="M245.25 104.43L368.69 104.43"/>
<path d="M245.25 100.51L368.69 100.51"/>
<path d="M245.25 104.43L245.25 100.51"/>
<path d="M368.69 93.46L245.25 93.46"/>
<path d="M245.25 100.51L245.25 93.46"/>
<path d="M359.92 31.75L358.64 30.2M358.64 30.2L355.54 29.56"/>
<path d="M355.54 29.56L355.54 45.99"/>
<path d="M359.92 28.1L359.33 25.91M359.33 25.91L357.73 24.31M357.73 24.31L355.54 23.72"/>
<path d="M355.54 29.56L355.54 23.72"/>
<path d="M281.41 73.75L281.41 72.31"/>
<path d="M281.41 72.31L251.46 48.92"/>
<path d="M267.53 82.51L346.41 82.51"/>
<path d="M332.53 72.31L332.53 73.75"/>
<path d="M332.53 73.75L281.41 73.75"/>
<path d="M362.48 82.51L251.46 82.51"/>
<path d="M267.93 60.6L281.41 60.6"/>
<path d="M332.53 60.6L281.41 60.6"/>
<path d="M332.53 60.6L346.01 60.6"/>
<path d="M251.46 48.92L255.21 48.92"/>
<path d="M251.46 48.92L245.25 48.92"/>
<path d="M254.02 48.19L254.02 48.92"/>
<path d="M258.4 45.99L255.3 46.64M255.3 46.64L254.02 48.19"/>
<path d="M258.4 29.56L355.54 29.56"/>
<path d="M258.4 45.99L258.4 29.56"/>
<path d="M346.01 60.6L347.8 60.22"/>
<path d="M345.18 61.1L347.88 60.32"/>
<path d="M346.01 60.6L345.18 61.1"/>
<path d="M332.53 72.31L332.53 70.98"/>
<path d="M345.18 61.1L332.53 70.98"/>
<path d="M332.53 60.73L332.53 61.1"/>
<path d="M332.53 60.6L332.53 60.73"/>
<path d="M332.53 61.1L332.53 70.98"/>
<path d="M245.25 88.4L245.25 93.46"/>
<path d="M251.46 59.14L251.46 48.92"/>
<path d="M245.25 48.92L245.25 59.14"/>
<path d="M245.25 88.4L239.41 88.4"/>
<path d="M245.25 59.14L239.41 59.14"/>
<path d="M388.04 31.02L386.48 25.18M386.48 25.18L382.2 20.9M382.2 20.9L376.36 19.34"/>
<path d="M388.04 31.02L395.35 31.02"/>
<path d="M395.35 91.28L388.04 91.28"/>
<path d="M395.35 91.28L395.35 31.02"/>
<path d="M388.04 91.28L389.17 99.32M389.17 99.32L392.46 106.73M392.46 106.73L397.67 112.96M397.67 112.96L404.39 117.51"/>
<path d="M388.04 113.19L394.99 120.22"/>
<path d="M404.39 117.51L401.59 123.22"/>
<path d="M196.68 112.46L207.79 110.73M207.79 110.73L217.85 105.7M217.85 105.7L225.9 97.85"/>
<path d="M196.68 112.46L188.65 112.46"/>
<path d="M188.65 112.46L176.46 114.39M176.46 114.39L165.46 119.99M165.46 119.99L156.74 128.72M156.74 128.72L151.14 139.71M151.14 139.71L149.21 151.9"/>
<path d="M149.21 151.9L149.21 213.11"/>
<path d="M149.21 238.96L149.21 300.17"/>
<path d="M149.21 300.17L151.14 312.36M151.14 312.36L156.74 323.35M156.74 323.35L165.46 332.08M165.46 332.08L176.46 337.68M176.46 337.68L188.65 339.61"/>
<path d="M188.65 339.61L247.33 339.61"/>
<path d="M405.57 86.41L405.57 31.02"/>
<path d="M351.16 368.83L373.74 367.03M373.74 367.03L395.75 361.69M395.75 361.69L416.63 352.93M416.63 352.93L435.88 340.98M435.88 340.98L452.99 326.14M452.99 326.14L467.53 308.78M467.53 308.78L479.15 289.33M479.15 289.33L487.55 268.3M487.55 268.3L492.52 246.2M492.52 246.2L493.93 223.59M493.93 223.59L491.74 201.05M491.74 201.05L486.02 179.13M486.02 179.13L476.91 158.4M476.91 158.4L464.63 139.36M464.63 139.36L449.5 122.51M449.5 122.51L431.9 108.26M431.9 108.26L412.26 96.98"/>
<path d="M188.65 368.83L351.16 368.83"/>
<path d="M119.99 300.17L121.71 315.45M121.71 315.45L126.79 329.96M126.79 329.96L134.97 342.98M134.97 342.98L145.84 353.85M145.84 353.85L158.86 362.03M158.86 362.03L173.37 367.1M173.37 367.1L188.65 368.83"/>
<path d="M188.65 83.24L173.37 84.97M173.37 84.97L158.86 90.04M158.86 90.04L145.84 98.22M145.84 98.22L134.97 109.09M134.97 109.09L126.79 122.11M126.79 122.11L121.71 136.62M121.71 136.62L119.99 151.9"/>
<path d="M196.68 83.24L188.65 83.24"/>
<path d="M208.37 31.02L208.37 71.56"/>
<path d="M196.68 109.48L196.68 112.46"/>
<path d="M196.68 105.16L205.71 103.73M205.71 103.73L213.85 99.58M213.85 99.58L220.32 93.11M220.32 93.11L224.47 84.97M224.47 84.97L225.9 75.94"/>
<path d="M225.9 75.94L218.59 75.94"/>
<path d="M218.59 31.02L225.9 31.02"/>
<path d="M218.59 31.02L218.59 75.94"/>
<path d="M237.58 19.34L231.74 20.9M231.74 20.9L227.46 25.18M227.46 25.18L225.9 31.02"/>
<path d="M245.25 112.77L245.25 111.73"/>
<path d="M245.25 111.73L239.41 111.73"/>
<path d="M254 111.73L245.25 111.73"/>
<path d="M245.25 104.43L245.25 111.73"/>
<path d="M239.41 98.58L241.12 102.71M241.12 102.71L245.25 104.43"/>
<path d="M239.41 95.45L241.12 99.03M241.12 99.03L245.25 100.51"/>
<path d="M239.41 88.4L241.12 91.98M241.12 91.98L245.25 93.46"/>
<path d="M245.25 48.92L241.12 50.63M241.12 50.63L239.41 54.76"/>
<path d="M258.4 23.72L355.54 23.72"/>
<path d="M258.4 29.56L258.4 23.72"/>
<path d="M281.41 60.73L281.41 60.6"/>
<path d="M281.41 61.1L281.41 60.73"/>
<path d="M281.41 61.1L281.41 70.98"/>
<path d="M281.41 70.98L281.41 72.31"/>
<path d="M266.16 60.23L267.93 60.6"/>
<path d="M268.75 61.1L281.41 61.1"/>
<path d="M268.75 61.1L267.93 60.6"/>
<path d="M332.53 61.1L345.18 61.1"/>
<path d="M254.02 48.19L254.02 31.75"/>
<path d="M254.02 31.75L254.02 28.1"/>
<path d="M258.4 29.56L256.21 29.85M256.21 29.85L254.6 30.66M254.6 30.66L254.02 31.75"/>
<path d="M376.36 19.34L237.58 19.34"/>
<path d="M395.35 31.02L393.9 23.75M393.9 23.75L389.78 17.59M389.78 17.59L383.62 13.48M383.62 13.48L376.36 12.03"/>
<path d="M376.36 19.34L376.36 12.03"/>
<path d="M407.61 110.95L404.39 117.51"/>
<path d="M395.35 91.28L396.84 99.24M396.84 99.24L401.12 106.11M401.12 106.11L407.61 110.95"/>
<path d="M398.27 86.41L399.6 93.39M399.6 93.39L403.39 99.39M403.39 99.39L409.13 103.58"/>
<path d="M398.27 86.41L398.27 31.02"/>
<path d="M398.27 31.02L396.6 22.64M396.6 22.64L391.85 15.53M391.85 15.53L384.74 10.78M384.74 10.78L376.36 9.11"/>
<path d="M376.36 9.11L237.58 9.11"/>
<path d="M237.58 9.11L229.2 10.78M229.2 10.78L222.09 15.53M222.09 15.53L217.34 22.64M217.34 22.64L215.67 31.02"/>
<path d="M215.67 31.02L215.67 71.56"/>
<path d="M196.68 90.55L203.95 89.1M203.95 89.1L210.11 84.99M210.11 84.99L214.22 78.83M214.22 78.83L215.67 71.56"/>
<path d="M196.68 90.55L188.65 90.55"/>
<path d="M188.65 90.55L174.99 92.09M174.99 92.09L162.03 96.62M162.03 96.62L150.39 103.93M150.39 103.93L140.68 113.65M140.68 113.65L133.37 125.28M133.37 125.28L128.83 138.25M128.83 138.25L127.29 151.9"/>
<path d="M127.29 151.9L127.29 300.17"/>
<path d="M127.29 300.17L128.83 313.82M128.83 313.82L133.37 326.79M133.37 326.79L140.68 338.42M140.68 338.42L150.39 348.14M150.39 348.14L162.03 355.45M162.03 355.45L174.99 359.98M174.99 359.98L188.65 361.52"/>
<path d="M188.65 361.52L351.16 361.52"/>
<path d="M351.16 361.52L373.91 359.6M373.91 359.6L396.01 353.88M396.01 353.88L416.84 344.53M416.84 344.53L435.81 331.82M435.81 331.82L452.37 316.11M452.37 316.11L466.06 297.83M466.06 297.83L476.48 277.52M476.48 277.52L483.35 255.75M483.35 255.75L486.46 233.13M486.46 233.13L485.73 210.31M485.73 210.31L481.18 187.93M481.18 187.93L472.93 166.64M472.93 166.64L461.23 147.04M461.23 147.04L446.4 129.68M446.4 129.68L428.87 115.05M428.87 115.05L409.13 103.58"/>
<path d="M351.16 354.22L372.57 352.42M372.57 352.42L393.38 347.06M393.38 347.06L413.01 338.31M413.01 338.31L430.9 326.4M430.9 326.4L446.54 311.67M446.54 311.67L459.51 294.53M459.51 294.53L469.43 275.46M469.43 275.46L476.02 255.01M476.02 255.01L479.11 233.74M479.11 233.74L478.6 212.26M478.6 212.26L474.51 191.16M474.51 191.16L466.95 171.05M466.95 171.05L456.13 152.47M456.13 152.47L442.37 135.97M442.37 135.97L426.04 122M426.04 122L407.61 110.95"/>
<path d="M351.16 354.22L188.65 354.22"/>
<path d="M134.6 300.17L136.44 314.16M136.44 314.16L141.84 327.19M141.84 327.19L150.43 338.39M150.43 338.39L161.62 346.98M161.62 346.98L174.66 352.38M174.66 352.38L188.65 354.22"/>
<path d="M134.6 300.17L134.6 151.9"/>
<path d="M188.65 97.85L174.66 99.69M174.66 99.69L161.62 105.09M161.62 105.09L150.43 113.68M150.43 113.68L141.84 124.88M141.84 124.88L136.44 137.91M136.44 137.91L134.6 151.9"/>
<path d="M188.65 97.85L196.68 97.85"/>
<path d="M196.68 97.85L205.07 96.18M205.07 96.18L212.17 91.43M212.17 91.43L216.92 84.33M216.92 84.33L218.59 75.94"/>
<path d="M237.58 12.03L230.31 13.48M230.31 13.48L224.15 17.59M224.15 17.59L220.04 23.75M220.04 23.75L218.59 31.02"/>
<path d="M376.36 12.03L237.58 12.03"/>
<path d="M351.16 346.91L372.68 344.98M372.68 344.98L393.52 339.25M393.52 339.25L413.01 329.89M413.01 329.89L430.51 317.22M430.51 317.22L445.48 301.63M445.48 301.63L457.44 283.62M457.44 283.62L465.99 263.78M465.99 263.78L470.88 242.72M470.88 242.72L471.94 221.14M471.94 221.14L469.13 199.71M469.13 199.71L462.56 179.12M462.56 179.12L452.42 160.03M452.42 160.03L439.05 143.05M439.05 143.05L422.87 128.72M422.87 128.72L404.39 117.51"/>
<path d="M351.16 340.71L351.16 346.91"/>
<path d="M188.65 346.91L188.65 339.61"/>
<path d="M149.21 300.17L141.9 300.17"/>
<path d="M141.9 151.9L149.21 151.9"/>
<path d="M188.65 112.46L188.65 105.16"/>
<path d="M405.57 86.41L407.38 92.66M407.38 92.66L412.26 96.98"/>
<path d="M405.57 31.02L404.14 21.99M404.14 21.99L399.99 13.85M399.99 13.85L393.53 7.39M393.53 7.39L385.38 3.24M385.38 3.24L376.36 1.81"/>
<path d="M405.57 86.41L398.27 86.41"/>
<path d="M405.57 31.02L398.27 31.02"/>
<path d="M351.16 361.52L351.16 368.83"/>
<path d="M409.13 103.58L412.26 96.98"/>
<path d="M188.65 368.83L188.65 361.52"/>
<path d="M127.29 300.17L119.99 300.17"/>
<path d="M119.99 151.9L119.99 300.17"/>
<path d="M188.65 90.55L188.65 83.24"/>
<path d="M127.29 151.9L119.99 151.9"/>
<path d="M196.68 83.24L202.52 81.68M202.52 81.68L206.8 77.4M206.8 77.4L208.37 71.56"/>
<path d="M196.68 83.24L196.68 90.55"/>
<path d="M237.58 1.81L228.55 3.24M228.55 3.24L220.41 7.39M220.41 7.39L213.95 13.85M213.95 13.85L209.8 21.99M209.8 21.99L208.37 31.02"/>
<path d="M208.37 31.02L215.67 31.02"/>
<path d="M208.37 71.56L215.67 71.56"/>
<path d="M193.03 105.16L193.92 107.8M193.92 107.8L196.23 109.38M196.23 109.38L199.02 109.23M199.02 109.23L201.15 107.43M201.15 107.43L201.77 104.71"/>
<path d="M196.68 97.85L196.68 105.16"/>
<path d="M188.65 105.16L196.68 105.16"/>
<path d="M196.68 105.16L196.82 105.59M196.82 105.59L197.2 105.86M197.2 105.86L197.66 105.84M197.66 105.84L198.02 105.56M198.02 105.56L198.14 105.12"/>
<path d="M237.58 19.34L237.58 12.03"/>
<path d="M258.4 23.72L255.3 25M255.3 25L254.02 28.1"/>
<path d="M266.05 60.32L268.75 61.1"/>
<path d="M281.41 70.98L268.75 61.1"/>
<path d="M376.36 9.11L376.36 1.81"/>
<path d="M376.36 1.81L237.58 1.81"/>
<path d="M237.58 1.81L237.58 9.11"/>
<path d="M351.16 346.91L351.16 354.22"/>
<path d="M351.16 346.91L188.65 346.91"/>
<path d="M188.65 354.22L188.65 346.91"/>
<path d="M141.9 300.17L143.49 312.27M143.49 312.27L148.16 323.54M148.16 323.54L155.59 333.22M155.59 333.22L165.27 340.65M165.27 340.65L176.55 345.32M176.55 345.32L188.65 346.91"/>
<path d="M141.9 300.17L134.6 300.17"/>
<path d="M141.9 300.17L141.9 151.9"/>
<path d="M134.6 151.9L141.9 151.9"/>
<path d="M188.65 105.16L176.55 106.75M176.55 106.75L165.27 111.42M165.27 111.42L155.59 118.85M155.59 118.85L148.16 128.53M148.16 128.53L143.49 139.8M143.49 139.8L141.9 151.9"/>
<path d="M188.65 105.16L188.65 97.85"/>
<path d="M472.04 225.67L472.04 226.4"/>
<path d="M471.96 221.65L468.91 222.96M468.91 222.96L467.65 226.04M467.65 226.04L468.91 229.11M468.91 229.11L471.96 230.42"/>
<path d="M406.89 118.77L406.52 122.07M406.52 122.07L408.58 124.67M408.58 124.67L411.87 125.09M411.87 125.09L414.51 123.09"/>
<path d="M410.42 120.68L411.06 121.04"/>
<path d="M406.17 333.67L403.7 331.46M403.7 331.46L400.38 331.62M400.38 331.62L398.13 334.06M398.13 334.06L398.23 337.37"/>
<path d="M209.1 346.91L207.81 343.82M207.81 343.82L204.71 342.53M204.71 342.53L201.62 343.82M201.62 343.82L200.33 346.91"/>
<path d="M141.9 236.99L144.48 236.15M144.48 236.15L146.07 233.96M146.07 233.96L146.07 231.25M146.07 231.25L144.48 229.06M144.48 229.06L141.9 228.23"/>
<path d="M402.56 335.44L401.9 335.75"/>
<path d="M205.08 346.91L204.35 346.91"/>
<path d="M263.15 111.36L350.79 111.36"/>
<path d="M350.79 340.71L371.86 338.75M371.86 338.75L392.22 332.96M392.22 332.96L411.16 323.53M411.16 323.53L428.05 310.78M428.05 310.78L442.3 295.14M442.3 295.14L453.44 277.15M453.44 277.15L461.09 257.42M461.09 257.42L464.97 236.62M464.97 236.62L464.97 215.45M464.97 215.45L461.09 194.65M461.09 194.65L453.44 174.92M453.44 174.92L442.3 156.93M442.3 156.93L428.05 141.29M428.05 141.29L411.16 128.54M411.16 128.54L392.22 119.11M392.22 119.11L371.86 113.32M371.86 113.32L350.79 111.36"/>
<path d="M350.79 340.71L263.15 340.71"/>
<path d="M263.15 111.36L242.07 113.32M242.07 113.32L221.72 119.11M221.72 119.11L202.78 128.54M202.78 128.54L185.89 141.29M185.89 141.29L171.64 156.93M171.64 156.93L160.5 174.92M160.5 174.92L152.85 194.65M152.85 194.65L148.96 215.45M148.96 215.45L148.96 236.62M148.96 236.62L152.85 257.42M152.85 257.42L160.5 277.15M160.5 277.15L171.64 295.14M171.64 295.14L185.89 310.78M185.89 310.78L202.78 323.53M202.78 323.53L221.72 332.96M221.72 332.96L242.07 338.75M242.07 338.75L263.15 340.71"/>
<path d="M263.15 114.07L263.15 111.36"/>
<path d="M263.15 114.07L350.79 114.07"/>
<path d="M350.79 114.07L350.79 111.36"/>
<path d="M350.79 338L371.37 336.09M371.37 336.09L391.24 330.44M391.24 330.44L409.73 321.23M409.73 321.23L426.22 308.78M426.22 308.78L440.14 293.51M440.14 293.51L451.02 275.94M451.02 275.94L458.48 256.68M458.48 256.68L462.28 236.37M462.28 236.37L462.28 215.7M462.28 215.7L458.48 195.39M458.48 195.39L451.02 176.13M451.02 176.13L440.14 158.56M440.14 158.56L426.22 143.29M426.22 143.29L409.73 130.84M409.73 130.84L391.24 121.63M391.24 121.63L371.37 115.98M371.37 115.98L350.79 114.07"/>
<path d="M350.79 340.71L350.79 338"/>
<path d="M350.79 338L263.15 338"/>
<path d="M263.15 338L263.15 340.71"/>
<path d="M263.15 114.07L242.57 115.98M242.57 115.98L222.7 121.63M222.7 121.63L204.2 130.84M204.2 130.84L187.72 143.29M187.72 143.29L173.8 158.56M173.8 158.56L162.92 176.13M162.92 176.13L155.46 195.39M155.46 195.39L151.66 215.7M151.66 215.7L151.66 236.37M151.66 236.37L155.46 256.68M155.46 256.68L162.92 275.94M162.92 275.94L173.8 293.51M173.8 293.51L187.72 308.78M187.72 308.78L204.2 321.23M204.2 321.23L222.7 330.44M222.7 330.44L242.57 336.09M242.57 336.09L263.15 338"/>
<path d="M350.79 114.29L350.79 114.07"/>
<path d="M263.15 114.29L263.15 114.07"/>
<path d="M350.79 337.78L350.79 338"/>
<path d="M263.15 337.78L263.15 338"/>
<path d="M263.15 114.29L350.79 114.29"/>
<path d="M350.79 337.78L371.33 335.88M371.33 335.88L391.16 330.24M391.16 330.24L409.62 321.05M409.62 321.05L426.08 308.62M426.08 308.62L439.97 293.38M439.97 293.38L450.83 275.85M450.83 275.85L458.28 256.62M458.28 256.62L462.06 236.35M462.06 236.35L462.06 215.72M462.06 215.72L458.28 195.45M458.28 195.45L450.83 176.22M450.83 176.22L439.97 158.69M439.97 158.69L426.08 143.45M426.08 143.45L409.62 131.02M409.62 131.02L391.16 121.83M391.16 121.83L371.33 116.19M371.33 116.19L350.79 114.29"/>
<path d="M350.79 337.78L263.15 337.78"/>
<path d="M263.15 114.29L242.61 116.19M242.61 116.19L222.78 121.83M222.78 121.83L204.32 131.02M204.32 131.02L187.86 143.45M187.86 143.45L173.97 158.69M173.97 158.69L163.11 176.22M163.11 176.22L155.66 195.45M155.66 195.45L151.87 215.72M151.87 215.72L151.87 236.35M151.87 236.35L155.66 256.62M155.66 256.62L163.11 275.85M163.11 275.85L173.97 293.38M173.97 293.38L187.86 308.62M187.86 308.62L204.32 321.05M204.32 321.05L222.78 330.24M222.78 330.24L242.61 335.88M242.61 335.88L263.15 337.78"/>
<path d="M263.15 116.99L263.15 114.29"/>
<path d="M263.15 116.99L350.79 116.99"/>
<path d="M350.79 116.99L350.79 114.29"/>
<path d="M350.79 335.08L370.83 333.22M370.83 333.22L390.18 327.71M390.18 327.71L408.2 318.74M408.2 318.74L424.25 306.62M424.25 306.62L437.81 291.75M437.81 291.75L448.4 274.64M448.4 274.64L455.67 255.88M455.67 255.88L459.37 236.1M459.37 236.1L459.37 215.97M459.37 215.97L455.67 196.19M455.67 196.19L448.4 177.43M448.4 177.43L437.81 160.32M437.81 160.32L424.25 145.45M424.25 145.45L408.2 133.33M408.2 133.33L390.18 124.36M390.18 124.36L370.83 118.85M370.83 118.85L350.79 116.99"/>
<path d="M350.79 337.78L350.79 335.08"/>
<path d="M350.79 335.08L263.15 335.08"/>
<path d="M263.15 335.08L263.15 337.78"/>
<path d="M263.15 116.99L243.11 118.85M243.11 118.85L223.75 124.36M223.75 124.36L205.74 133.33M205.74 133.33L189.68 145.45M189.68 145.45L176.13 160.32M176.13 160.32L165.53 177.43M165.53 177.43L158.27 196.19M158.27 196.19L154.57 215.97M154.57 215.97L154.57 236.1M154.57 236.1L158.27 255.88M158.27 255.88L165.53 274.64M165.53 274.64L176.13 291.75M176.13 291.75L189.68 306.62M189.68 306.62L205.74 318.74M205.74 318.74L223.75 327.71M223.75 327.71L243.11 333.22M243.11 333.22L263.15 335.08"/>
<path d="M263.15 124.35L350.79 124.35"/>
<path d="M350.79 124.35L350.79 116.99"/>
<path d="M263.15 124.35L263.15 116.99"/>
<path d="M350.79 327.72L370.63 325.77M370.63 325.77L389.71 319.98M389.71 319.98L407.29 310.59M407.29 310.59L422.7 297.94M422.7 297.94L435.34 282.53M435.34 282.53L444.74 264.95M444.74 264.95L450.53 245.87M450.53 245.87L452.48 226.04M452.48 226.04L450.53 206.2M450.53 206.2L444.74 187.12M444.74 187.12L435.34 169.54M435.34 169.54L422.7 154.13M422.7 154.13L407.29 141.48M407.29 141.48L389.71 132.09M389.71 132.09L370.63 126.3M370.63 126.3L350.79 124.35"/>
<path d="M350.79 327.72L350.79 335.08"/>
<path d="M350.79 327.72L263.15 327.72"/>
<path d="M263.15 327.72L263.15 335.08"/>
<path d="M263.15 124.35L243.31 126.3M243.31 126.3L224.23 132.09M224.23 132.09L206.65 141.48M206.65 141.48L191.24 154.13M191.24 154.13L178.59 169.54M178.59 169.54L169.2 187.12M169.2 187.12L163.41 206.2M163.41 206.2L161.46 226.04M161.46 226.04L163.41 245.87M163.41 245.87L169.2 264.95M169.2 264.95L178.59 282.53M178.59 282.53L191.24 297.94M191.24 297.94L206.65 310.59M206.65 310.59L224.23 319.98M224.23 319.98L243.31 325.77M243.31 325.77L263.15 327.72"/>
<path d="M350.79 131.82L350.79 124.35"/>
<path d="M263.15 131.82L263.15 124.35"/>
<path d="M263.15 131.82L299.96 131.82"/>
<path d="M313.98 131.82L350.79 131.82"/>
<path d="M350.79 327.72L350.79 320.26"/>
<path d="M350.79 320.26L369.17 318.44M369.17 318.44L386.85 313.08M386.85 313.08L403.14 304.38M403.14 304.38L417.42 292.66M417.42 292.66L429.13 278.38M429.13 278.38L437.84 262.09M437.84 262.09L443.2 244.42M443.2 244.42L445.01 226.04M445.01 226.04L443.2 207.65M443.2 207.65L437.84 189.98M437.84 189.98L429.13 173.69M429.13 173.69L417.42 159.41M417.42 159.41L403.14 147.69M403.14 147.69L386.85 138.99M386.85 138.99L369.17 133.63M369.17 133.63L350.79 131.82"/>
<path d="M263.15 320.26L263.15 327.72"/>
<path d="M350.79 320.26L347.94 320.26"/>
<path d="M343.47 320.26L313.98 320.26"/>
<path d="M299.96 320.26L270.46 320.26"/>
<path d="M266 320.26L263.15 320.26"/>
<path d="M263.15 131.82L244.76 133.63M244.76 133.63L227.09 138.99M227.09 138.99L210.8 147.69M210.8 147.69L196.52 159.41M196.52 159.41L184.8 173.69M184.8 173.69L176.1 189.98M176.1 189.98L170.74 207.65M170.74 207.65L168.93 226.04M168.93 226.04L170.74 244.42M170.74 244.42L176.1 262.09M176.1 262.09L184.8 278.38M184.8 278.38L196.52 292.66M196.52 292.66L210.8 304.38M210.8 304.38L227.09 313.08M227.09 313.08L244.76 318.44M244.76 318.44L263.15 320.26"/>
<path d="M420.9 215.81L417.92 203.37M417.92 203.37L412.75 191.68M412.75 191.68L405.57 181.1M405.57 181.1L396.6 171.99"/>
<path d="M396.6 280.08L405.57 270.97M405.57 270.97L412.75 260.39M412.75 260.39L417.92 248.7M417.92 248.7L420.9 236.26"/>
<path d="M394.3 280.08L403.56 271.09M403.56 271.09L410.99 260.54M410.99 260.54L416.34 248.79M416.34 248.79L419.42 236.26"/>
<path d="M419.42 215.81L416.34 203.28M416.34 203.28L410.99 191.53M410.99 191.53L403.56 180.98M403.56 180.98L394.3 171.99"/>
<path d="M350.79 295.42L366.23 293.68M366.23 293.68L380.9 288.55M380.9 288.55L394.05 280.28M394.05 280.28L405.04 269.3M405.04 269.3L413.31 256.14M413.31 256.14L418.44 241.48M418.44 241.48L420.18 226.04M420.18 226.04L418.44 210.6M418.44 210.6L413.31 195.93M413.31 195.93L405.04 182.77M405.04 182.77L394.05 171.79M394.05 171.79L380.9 163.52M380.9 163.52L366.23 158.39M366.23 158.39L350.79 156.65"/>
<path d="M350.79 156.65L382.44 156.65"/>
<path d="M313.65 156.65L350.79 156.65"/>
<path d="M350.79 295.42L313.65 295.42"/>
<path d="M382.44 295.42L350.79 295.42"/>
<path d="M388.04 167.49L388.04 164.68"/>
<path d="M246.8 156.65L263.15 156.65"/>
<path d="M263.76 156.65L277.13 156.65"/>
<path d="M263.15 156.65L247.71 158.39M247.71 158.39L233.04 163.52M233.04 163.52L219.88 171.79M219.88 171.79L208.9 182.77M208.9 182.77L200.63 195.93M200.63 195.93L195.5 210.6M195.5 210.6L193.76 226.04M193.76 226.04L195.5 241.48M195.5 241.48L200.63 256.14M200.63 256.14L208.9 269.3M208.9 269.3L219.88 280.28M219.88 280.28L233.04 288.55M233.04 288.55L247.71 293.68M247.71 293.68L263.15 295.42"/>
<path d="M309.11 162.28L310.47 160.8"/>
<path d="M300.28 156.65L305.23 163.1"/>
<path d="M304.82 162.28L303.47 160.8"/>
<path d="M272.19 163.1L277.13 156.65"/>
<path d="M388.04 164.68L409.44 164.68"/>
<path d="M409.44 164.68L400.61 156.95M400.61 156.95L390.81 150.47"/>
<path d="M382.44 156.65L386.98 155.38M386.98 155.38L390.21 151.94M390.21 151.94L391.19 147.32M391.19 147.32L389.63 142.87M389.63 142.87L385.98 139.87"/>
<path d="M382.44 156.65L382.44 149.34"/>
<path d="M336.18 149.34L382.44 149.34"/>
<path d="M314.27 156.65L314.94 155.92"/>
<path d="M299.66 156.65L299 155.92"/>
<path d="M304.82 162.28L306.17 163.11M306.17 163.11L307.76 163.11M307.76 163.11L309.11 162.28"/>
<path d="M382.44 302.73L336.18 302.73"/>
<path d="M382.44 295.42L382.44 302.73"/>
<path d="M309.11 289.79L310.47 291.27"/>
<path d="M309.11 289.79L307.76 288.96M307.76 288.96L306.17 288.96M306.17 288.96L304.82 289.79"/>
<path d="M304.82 289.79L303.47 291.27"/>
<path d="M299.66 295.42L299 296.15"/>
<path d="M314.27 295.42L314.94 296.15"/>
<path d="M385.98 312.2L389.63 309.2M389.63 309.2L391.19 304.75M391.19 304.75L390.21 300.13M390.21 300.13L386.98 296.69M386.98 296.69L382.44 295.42"/>
<path d="M390.81 301.6L400.61 295.12M400.61 295.12L409.44 287.39"/>
<path d="M409.44 287.39L388.04 287.39"/>
<path d="M388.04 287.39L388.04 284.58"/>
<path d="M277.13 295.42L263.76 295.42"/>
<path d="M263.15 295.42L246.8 295.42"/>
<path d="M277.13 295.42L272.19 288.98"/>
<path d="M305.23 288.98L300.28 295.42"/>
<path d="M419.42 236.26L428.21 236.26"/>
<path d="M428.21 230.42L434.79 230.42"/>
<path d="M420.04 230.42L428.21 230.42"/>
<path d="M428.21 215.81L419.42 215.81"/>
<path d="M428.21 221.65L420.04 221.65"/>
<path d="M428.21 221.65L434.79 221.65"/>
<path d="M394.3 171.99L409.44 171.99"/>
<path d="M410.86 171.85L415.23 169.13M415.23 169.13L416.72 164.21M416.72 164.21L414.61 159.53"/>
<path d="M385.98 139.87L373.69 135.42M373.69 135.42L360.91 132.72M360.91 132.72L347.87 131.82"/>
<path d="M414.61 159.53L401.21 148.37M401.21 148.37L385.98 139.87"/>
<path d="M347.87 131.82L343.49 131.82"/>
<path d="M339.84 139.12L339.84 139.88"/>
<path d="M339.84 135.47L339.84 139.12"/>
<path d="M277.75 143.4L276.85 143.4"/>
<path d="M337.09 143.4L336.18 143.4"/>
<path d="M274.1 139.12L274.1 135.47"/>
<path d="M274.1 139.88L274.1 139.12"/>
<path d="M270.45 131.82L266.07 131.82"/>
<path d="M266.07 131.82L247.82 133.6M247.82 133.6L230.27 138.88M230.27 138.88L214.07 147.46M214.07 147.46L199.84 159.02M199.84 159.02L188.12 173.11M188.12 173.11L179.34 189.2M179.34 189.2L173.85 206.69M173.85 206.69L171.85 224.91M171.85 224.91L173.42 243.18M173.42 243.18L178.49 260.79M178.49 260.79L186.88 277.09M186.88 277.09L198.26 291.46M198.26 291.46L212.21 303.35M212.21 303.35L228.2 312.31M228.2 312.31L245.62 318.01M245.62 318.01L263.82 320.23"/>
<path d="M263.82 320.23L266.07 320.26"/>
<path d="M266.07 320.26L270.45 320.26"/>
<path d="M274.1 312.95L274.1 312.19"/>
<path d="M274.1 316.6L274.1 312.95"/>
<path d="M336.18 308.67L337.09 308.67"/>
<path d="M276.85 308.67L277.75 308.67"/>
<path d="M339.84 312.95L339.84 316.6"/>
<path d="M339.84 312.19L339.84 312.95"/>
<path d="M343.49 320.26L347.87 320.26"/>
<path d="M347.87 320.26L360.91 319.35M360.91 319.35L373.69 316.65M373.69 316.65L385.98 312.2"/>
<path d="M385.98 312.2L401.21 303.7M401.21 303.7L414.61 292.54"/>
<path d="M415.51 291.44L416.68 286.43M416.68 286.43L414.25 281.89M414.25 281.89L409.44 280.08"/>
<path d="M409.44 280.08L394.3 280.08"/>
<path d="M409.47 170.66L409.32 171.68M409.32 171.68L409.31 171.87M409.31 171.87L409.32 171.93M409.32 171.93L409.37 171.98M409.37 171.98L409.44 171.99"/>
<path d="M409.44 164.68L409.47 170.66"/>
<path d="M246.8 149.34L277.75 149.34"/>
<path d="M246.8 156.65L246.8 149.34"/>
<path d="M246.8 156.65L244.63 156.98"/>
<path d="M263.76 295.42L263.15 295.42"/>
<path d="M263.15 156.65L263.76 156.65"/>
<path d="M270.45 163.95L271.42 163.73M271.42 163.73L272.19 163.09"/>
<path d="M305.23 163.09L306 163.73M306 163.73L306.97 163.95"/>
<path d="M277.13 156.65L300.28 156.65"/>
<path d="M409.44 164.68L414.61 159.53"/>
<path d="M244.63 156.98L231.63 162.45M231.63 162.45L219.94 170.35M219.94 170.35L210.01 180.36"/>
<path d="M210.01 180.36L208.6 183.15"/>
<path d="M385.98 139.87L383.03 146.55"/>
<path d="M382.44 149.34L383.36 149.02M383.36 149.02L383.87 148.19M383.87 148.19L383.74 147.22M383.74 147.22L383.03 146.55"/>
<path d="M383.03 146.55L365.84 141M365.84 141L347.87 139.12"/>
<path d="M347.87 139.12L343.49 139.12"/>
<path d="M343.49 139.12L343.49 139.62"/>
<path d="M343.49 139.62L341.32 141.66M341.32 141.66L338.65 143.16M338.65 143.16L337.38 143.4"/>
<path d="M337.38 143.4L337.09 143.4"/>
<path d="M336.18 139.51L336.18 139.33"/>
<path d="M336.18 151.54L336.18 139.51"/>
<path d="M331.8 155.92L334.9 154.63M334.9 154.63L336.18 151.54"/>
<path d="M282.14 155.92L331.8 155.92"/>
<path d="M331.8 296.15L282.14 296.15"/>
<path d="M336.18 300.53L334.9 297.44M334.9 297.44L331.8 296.15"/>
<path d="M336.18 312.56L336.18 300.53"/>
<path d="M336.18 312.74L336.18 312.56"/>
<path d="M343.49 312.95L347.87 312.95"/>
<path d="M347.87 312.95L365.84 311.07M365.84 311.07L383.03 305.52"/>
<path d="M383.03 305.52L383.74 304.85M383.74 304.85L383.87 303.88M383.87 303.88L383.36 303.05M383.36 303.05L382.44 302.72"/>
<path d="M337.09 308.67L337.41 308.68"/>
<path d="M337.41 308.68L340.08 309.55M340.08 309.55L342.45 311.42M342.45 311.42L343.49 312.45"/>
<path d="M343.49 312.45L343.49 312.95"/>
<path d="M277.13 295.42L300.28 295.42"/>
<path d="M385.98 312.2L383.03 305.52"/>
<path d="M413.69 291.59L414.32 292.41M414.32 292.41L414.44 292.55M414.44 292.55L414.49 292.58M414.49 292.58L414.55 292.58M414.55 292.58L414.61 292.54"/>
<path d="M409.44 287.39L413.69 291.59"/>
<path d="M208.6 268.92L210.01 271.71"/>
<path d="M210.01 271.71L219.94 281.72M219.94 281.72L231.63 289.62M231.63 289.62L244.63 295.09"/>
<path d="M244.63 295.09L246.8 295.42"/>
<path d="M409.44 280.08L409.44 287.39"/>
<path d="M246.8 295.42L246.8 302.73"/>
<path d="M277.75 302.73L246.8 302.73"/>
<path d="M306.97 288.12L306 288.34M306 288.34L305.23 288.98"/>
<path d="M272.19 288.98L271.42 288.34M271.42 288.34L270.45 288.12"/>
<path d="M428.21 236.26L435.57 232.83"/>
<path d="M435.57 232.83L438.72 230.06M438.72 230.06L439.9 226.04M439.9 226.04L438.72 222.01M438.72 222.01L435.57 219.24"/>
<path d="M428.21 221.65L428.21 230.42"/>
<path d="M434.79 230.42L438.09 228.88"/>
<path d="M434.79 221.65L438.09 223.19"/>
<path d="M438.09 228.88L439.68 227.19M439.68 227.19L439.68 224.88M439.68 224.88L438.09 223.19"/>
<path d="M435.57 219.24L428.21 215.81"/>
<path d="M347.87 139.12L347.87 131.82"/>
<path d="M343.49 131.82L340.91 132.88M340.91 132.88L339.84 135.47"/>
<path d="M343.49 131.82L343.49 139.12"/>
<path d="M339.84 139.12L343.49 139.12"/>
<path d="M343.49 139.62L340.18 139.77M340.18 139.77L339.94 139.82M339.94 139.82L339.87 139.84M339.87 139.84L339.85 139.86M339.85 139.86L339.84 139.88"/>
<path d="M314.27 139.33L308.43 145.17"/>
<path d="M331.8 145.17L308.43 145.17"/>
<path d="M331.8 145.17L335.12 141.24M335.12 141.24L335.99 140.01M335.99 140.01L336.18 139.57M336.18 139.57L336.18 139.51"/>
<path d="M314.27 133.64L314.27 135.1"/>
<path d="M314.27 135.1L314.27 139.33"/>
<path d="M299.66 135.1L299.66 133.64"/>
<path d="M299.66 139.33L299.66 135.1"/>
<path d="M305.51 145.17L282.14 145.17"/>
<path d="M305.51 145.17L299.66 139.33"/>
<path d="M277.75 139.33L277.75 139.51"/>
<path d="M277.75 139.51L277.77 139.62M277.77 139.62L277.88 139.9M277.88 139.9L278.66 141.04M278.66 141.04L282.14 145.17"/>
<path d="M277.75 139.51L277.75 151.54"/>
<path d="M201.06 195.05L201.06 184.98"/>
<path d="M204.35 175.75L201.91 180.08M201.91 180.08L201.06 184.98"/>
<path d="M242.47 150L228.15 156.03M228.15 156.03L215.28 164.72M215.28 164.72L204.35 175.75"/>
<path d="M246.8 149.34L242.47 150"/>
<path d="M276.85 143.4L276.53 143.39"/>
<path d="M276.53 143.39L273.86 142.52M273.86 142.52L271.49 140.65M271.49 140.65L270.45 139.62"/>
<path d="M270.45 139.62L270.45 139.12"/>
<path d="M270.45 139.12L266.07 139.12"/>
<path d="M266.07 139.12L250.11 140.6M250.11 140.6L234.69 144.98M234.69 144.98L220.34 152.12M220.34 152.12L207.54 161.78M207.54 161.78L196.74 173.62M196.74 173.62L188.29 187.24M188.29 187.24L182.49 202.18"/>
<path d="M185.72 201.2L182.49 202.18"/>
<path d="M185.72 201.2L187.92 201.2"/>
<path d="M193.76 207.05L192.98 204.12M192.98 204.12L190.84 201.98M190.84 201.98L187.92 201.2"/>
<path d="M193.76 207.05L193.76 225.94"/>
<path d="M193.76 226.13L193.76 245.03"/>
<path d="M187.92 250.87L190.84 250.09M190.84 250.09L192.98 247.95M192.98 247.95L193.76 245.03"/>
<path d="M187.92 250.87L185.72 250.87"/>
<path d="M182.49 249.89L185.72 250.87"/>
<path d="M182.49 249.89L188.29 264.83M188.29 264.83L196.74 278.46M196.74 278.46L207.54 290.29M207.54 290.29L220.34 299.95M220.34 299.95L234.69 307.09M234.69 307.09L250.11 311.47M250.11 311.47L266.07 312.95"/>
<path d="M266.07 312.95L270.45 312.95"/>
<path d="M270.45 312.95L270.45 312.45"/>
<path d="M270.45 312.45L272.62 310.41M272.62 310.41L273.86 309.54M273.86 309.54L276.53 308.68"/>
<path d="M276.53 308.68L276.85 308.67"/>
<path d="M242.47 302.07L246.8 302.73"/>
<path d="M204.35 276.32L215.28 287.35M215.28 287.35L228.15 296.04M228.15 296.04L242.47 302.07"/>
<path d="M201.06 267.09L201.91 271.99M201.91 271.99L204.35 276.32"/>
<path d="M201.06 267.09L201.06 257.02"/>
<path d="M270.45 139.62L273.69 139.76M273.69 139.76L274.05 139.84M274.05 139.84L274.09 139.85M274.09 139.85L274.1 139.88"/>
<path d="M274.1 135.47L273.03 132.88M273.03 132.88L270.45 131.82"/>
<path d="M274.1 139.12L270.45 139.12"/>
<path d="M270.45 131.82L270.45 139.12"/>
<path d="M266.07 131.82L266.07 139.12"/>
<path d="M182.49 249.89L180.99 249.16M180.99 249.16L179.8 248.08M179.8 248.08L179.04 246.41M179.04 246.41L179.01 245.22"/>
<path d="M179.01 245.22L179.88 237.28"/>
<path d="M179.88 214.79L179.15 226.04M179.15 226.04L179.88 237.28"/>
<path d="M179.88 214.79L179.01 206.85"/>
<path d="M179.01 206.85L179.06 205.56M179.06 205.56L180.34 203.4M180.34 203.4L182.49 202.18"/>
<path d="M266.07 312.95L266.07 320.26"/>
<path d="M270.45 320.26L272.28 319.77M272.28 319.77L273.61 318.43M273.61 318.43L274.1 316.6"/>
<path d="M270.45 320.26L270.45 312.95"/>
<path d="M274.1 312.95L270.45 312.95"/>
<path d="M274.1 312.19L274.09 312.21M274.09 312.21L274.08 312.22M274.08 312.22L274.04 312.24M274.04 312.24L273.52 312.33M273.52 312.33L270.45 312.45"/>
<path d="M277.75 312.56L277.75 312.74"/>
<path d="M277.75 300.53L277.75 312.56"/>
<path d="M299.66 312.74L305.51 306.9"/>
<path d="M282.14 306.9L305.51 306.9"/>
<path d="M282.14 306.9L278.82 310.83M278.82 310.83L277.95 312.06M277.95 312.06L277.76 312.5M277.76 312.5L277.75 312.56"/>
<path d="M299.66 318.43L299.66 316.97"/>
<path d="M299.66 316.97L299.66 312.74"/>
<path d="M314.27 312.74L314.27 316.97"/>
<path d="M314.27 316.97L314.27 318.43"/>
<path d="M308.43 306.9L331.8 306.9"/>
<path d="M308.43 306.9L314.27 312.74"/>
<path d="M336.18 312.56L336.17 312.45M336.17 312.45L336.05 312.17M336.05 312.17L335.28 311.03M335.28 311.03L331.8 306.9"/>
<path d="M343.49 312.45L340.25 312.31M340.25 312.31L339.88 312.23M339.88 312.23L339.85 312.22M339.85 312.22L339.84 312.19"/>
<path d="M339.84 316.6L340.33 318.43M340.33 318.43L341.66 319.77M341.66 319.77L343.49 320.26"/>
<path d="M343.49 312.95L339.84 312.95"/>
<path d="M343.49 320.26L343.49 312.95"/>
<path d="M347.87 320.26L347.87 312.95"/>
<path d="M277.75 151.54L279.04 154.63M279.04 154.63L282.14 155.92"/>
<path d="M242.47 150L244.63 156.98"/>
<path d="M210.01 180.36L204.35 175.75"/>
<path d="M207.22 184.98L201.06 184.98"/>
<path d="M331.8 153L331.8 145.17"/>
<path d="M331.8 152.99L334.4 155.06"/>
<path d="M282.14 153L331.8 153"/>
<path d="M279.54 155.06L282.13 152.99"/>
<path d="M378.55 191.34L352.25 191.34"/>
<path d="M352.25 191.34L352.25 202.3"/>
<path d="M352.25 202.3L378.55 202.3"/>
<path d="M378.55 202.3L378.55 191.34"/>
<path d="M320.12 191.34L293.82 191.34"/>
<path d="M293.82 191.34L293.82 202.3"/>
<path d="M293.82 202.3L320.12 202.3"/>
<path d="M320.12 202.3L320.12 191.34"/>
<path d="M320.12 249.77L293.82 249.77"/>
<path d="M293.82 249.77L293.82 260.73"/>
<path d="M293.82 260.73L320.12 260.73"/>
<path d="M320.12 260.73L320.12 249.77"/>
<path d="M261.68 191.34L235.39 191.34"/>
<path d="M235.39 191.34L235.39 202.3"/>
<path d="M235.39 202.3L261.68 202.3"/>
<path d="M261.68 202.3L261.68 191.34"/>
<path d="M261.68 249.77L235.39 249.77"/>
<path d="M235.39 249.77L235.39 260.73"/>
<path d="M235.39 260.73L261.68 260.73"/>
<path d="M261.68 260.73L261.68 249.77"/>
<path d="M403.49 202.54L402.15 201.12M402.15 201.12L400.22 200.87M400.22 200.87L398.55 201.89M398.55 201.89L397.9 203.73"/>
<path d="M403.49 249.53L407.23 238.05M407.23 238.05L408.49 226.04M408.49 226.04L407.23 214.02M407.23 214.02L403.49 202.54"/>
<path d="M397.9 248.34L398.55 250.18M398.55 250.18L400.22 251.2M400.22 251.2L402.15 250.95M402.15 250.95L403.49 249.53"/>
<path d="M397.9 248.34L397.9 203.73"/>
<path d="M216.04 203.73L215.38 201.89M215.38 201.89L213.72 200.87M213.72 200.87L211.79 201.12M211.79 201.12L210.45 202.54"/>
<path d="M216.04 203.73L216.04 248.34"/>
<path d="M210.45 249.53L211.79 250.95M211.79 250.95L213.72 251.2M213.72 251.2L215.38 250.18M215.38 250.18L216.04 248.34"/>
<path d="M210.45 202.54L206.71 214.02M206.71 214.02L205.44 226.04M205.44 226.04L206.71 238.05M206.71 238.05L210.45 249.53"/>
<path d="M331.8 299.07L282.14 299.07"/>
<path d="M334.4 297.01L331.8 299.08"/>
<path d="M282.14 296.15L279.94 296.74M279.94 296.74L278.34 298.34M278.34 298.34L277.75 300.53"/>
<path d="M282.13 299.08L279.54 297.01"/>
<path d="M331.8 306.9L331.8 299.07"/>
<path d="M207.22 267.09L201.06 267.09"/>
<path d="M210.01 271.71L204.35 276.32"/>
<path d="M244.63 295.09L242.47 302.07"/>
<path d="M308.43 135.1L314.27 135.1"/>
<path d="M308.43 135.1L308.43 145.17"/>
<path d="M305.51 135.1L308.43 135.1"/>
<path d="M305.51 145.17L305.51 135.1"/>
<path d="M282.14 145.17L282.14 153"/>
<path d="M314.27 133.64L312.56 129.51M312.56 129.51L308.43 127.8"/>
<path d="M308.43 135.1L308.43 127.8"/>
<path d="M305.51 135.1L299.66 135.1"/>
<path d="M305.51 135.1L305.51 127.8"/>
<path d="M305.51 127.8L301.38 129.51M301.38 129.51L299.66 133.64"/>
<path d="M182.49 202.18L184.11 204.61"/>
<path d="M185.72 204.12L184.26 204.51M184.26 204.51L183.19 205.58M183.19 205.58L182.8 207.05"/>
<path d="M185.72 201.2L185.72 204.12"/>
<path d="M185.72 204.12L187.92 204.12"/>
<path d="M187.92 204.12L187.92 201.2"/>
<path d="M190.84 207.05L190.45 205.58M190.45 205.58L189.38 204.51M189.38 204.51L187.92 204.12"/>
<path d="M193.76 207.05L190.84 207.05"/>
<path d="M190.84 207.05L190.84 245.03"/>
<path d="M190.84 245.03L193.76 245.03"/>
<path d="M187.92 247.95L189.98 247.09M189.98 247.09L190.84 245.03"/>
<path d="M187.92 250.87L187.92 247.95"/>
<path d="M187.92 247.95L185.72 247.95"/>
<path d="M185.72 247.95L185.72 250.87"/>
<path d="M182.8 245.03L183.19 246.49M183.19 246.49L184.26 247.56M184.26 247.56L185.72 247.95"/>
<path d="M182.49 249.89L184.11 247.46"/>
<path d="M179.01 245.22L182.44 245.12M182.44 245.12L182.77 245.06M182.77 245.06L182.79 245.04M182.79 245.04L182.8 245.03"/>
<path d="M179.88 237.28L182.8 237.28"/>
<path d="M182.8 237.28L182.8 214.79"/>
<path d="M179.88 214.79L182.8 214.79"/>
<path d="M179.01 206.85L182.44 206.95M182.44 206.95L182.77 207.01M182.77 207.01L182.79 207.03M182.79 207.03L182.8 207.05"/>
<path d="M282.14 299.07L282.14 306.9"/>
<path d="M305.51 316.97L299.66 316.97"/>
<path d="M305.51 316.97L305.51 306.9"/>
<path d="M305.51 316.97L308.43 316.97"/>
<path d="M308.43 306.9L308.43 316.97"/>
<path d="M299.66 318.43L301.38 322.56M301.38 322.56L305.51 324.27"/>
<path d="M305.51 324.27L305.51 316.97"/>
<path d="M308.43 324.27L312.56 322.56M312.56 322.56L314.27 318.43"/>
<path d="M314.27 316.97L308.43 316.97"/>
<path d="M308.43 324.27L308.43 316.97"/>
<path d="M401.49 203.43L401.15 203.08M401.15 203.08L400.67 203.01M400.67 203.01L400.26 203.27M400.26 203.27L400.09 203.73"/>
<path d="M403.49 202.54L401.49 203.43"/>
<path d="M397.9 203.73L400.09 203.73"/>
<path d="M401.49 248.64L403.49 249.53"/>
<path d="M401.49 248.64L405.09 237.59M405.09 237.59L406.3 226.04M406.3 226.04L405.09 214.48M405.09 214.48L401.49 203.43"/>
<path d="M400.09 248.34L400.26 248.8M400.26 248.8L400.67 249.06M400.67 249.06L401.15 248.99M401.15 248.99L401.49 248.64"/>
<path d="M397.9 248.34L400.09 248.34"/>
<path d="M400.09 248.34L400.09 203.73"/>
<path d="M213.84 203.73L213.68 203.27M213.68 203.27L213.27 203.01M213.27 203.01L212.78 203.08M212.78 203.08L212.45 203.43"/>
<path d="M216.04 203.73L213.84 203.73"/>
<path d="M210.45 202.54L212.45 203.43"/>
<path d="M213.84 248.34L216.04 248.34"/>
<path d="M213.84 203.73L213.84 248.34"/>
<path d="M212.45 248.64L212.78 248.99M212.78 248.99L213.27 249.06M213.27 249.06L213.68 248.8M213.68 248.8L213.84 248.34"/>
<path d="M210.45 249.53L212.45 248.64"/>
<path d="M212.45 203.43L208.85 214.48M208.85 214.48L207.64 226.04M207.64 226.04L208.85 237.59M208.85 237.59L212.45 248.64"/>
<path d="M372.46 172.89L372.46 171.96"/>
<path d="M372.46 171.96L372.7 171.02"/>
<path d="M372.7 171.02L373.19 170.09"/>
<path d="M373.19 170.09L373.92 169.47"/>
<path d="M373.92 169.47L374.65 169.16"/>
<path d="M374.65 169.16L376.36 169.16"/>
<path d="M376.36 169.16L377.09 169.47"/>
<path d="M377.09 169.47L377.82 170.09"/>
<path d="M377.82 170.09L378.3 171.02"/>
<path d="M378.3 171.02L378.55 171.96"/>
<path d="M378.55 171.96L378.55 172.89"/>
<path d="M378.55 172.89L378.3 173.82"/>
<path d="M378.3 173.82L377.82 174.44"/>
<path d="M377.82 174.44L377.09 175.06"/>
<path d="M377.09 175.06L376.36 175.37"/>
<path d="M376.36 175.37L374.65 175.37"/>
<path d="M374.65 175.37L373.92 175.06"/>
<path d="M373.92 175.06L373.19 174.44"/>
<path d="M373.19 174.44L372.7 173.82"/>
<path d="M372.7 173.82L372.46 172.89"/>
<path d="M318.65 179.73L318.65 173.82"/>
<path d="M318.65 173.82L322.79 173.82"/>
<path d="M322.79 173.82L318.65 179.73"/>
<path d="M305.51 127.8L308.43 127.8"/>
<path d="M305.51 324.27L308.43 324.27"/>
<path d="M185.72 207.05L182.8 207.05"/>
<path d="M185.72 207.05L185.72 204.12"/>
<path d="M187.92 207.05L187.92 204.12"/>
<path d="M185.72 207.05L187.92 207.05"/>
<path d="M190.84 207.05L187.92 207.05"/>
<path d="M187.92 245.03L190.84 245.03"/>
<path d="M187.92 207.05L187.92 245.03"/>
<path d="M187.92 247.95L187.92 245.03"/>
<path d="M185.72 245.03L185.72 247.95"/>
<path d="M187.92 245.03L185.72 245.03"/>
<path d="M182.8 245.03L185.72 245.03"/>
<path d="M185.72 245.03L185.72 207.05"/>
<path d="M350.79 160.3L350.79 156.65"/>
<path d="M350.79 291.77L366.52 289.86M366.52 289.86L381.34 284.24M381.34 284.24L394.38 275.24M394.38 275.24L404.89 263.38M404.89 263.38L412.25 249.35M412.25 249.35L416.05 233.96M416.05 233.96L416.05 218.11M416.05 218.11L412.25 202.73M412.25 202.73L404.89 188.69M404.89 188.69L394.38 176.83M394.38 176.83L381.34 167.83M381.34 167.83L366.52 162.21M366.52 162.21L350.79 160.3"/>
<path d="M350.79 291.77L350.79 295.42"/>
<path d="M308.71 163.1L310.85 160.3"/>
<path d="M310.85 160.3L313.65 156.65"/>
<path d="M306.97 163.95L307.94 163.73M307.94 163.73L308.71 163.09"/>
<path d="M268.71 163.09L269.48 163.73M269.48 163.73L270.45 163.95"/>
<path d="M266.57 160.3L263.76 156.65"/>
<path d="M266.57 160.3L268.71 163.1"/>
<path d="M310.85 160.3L350.79 160.3"/>
<path d="M310.85 291.77L313.65 295.42"/>
<path d="M350.79 291.77L310.85 291.77"/>
<path d="M310.85 291.77L308.71 288.98"/>
<path d="M268.71 288.98L266.57 291.77"/>
<path d="M266.57 291.77L263.76 295.42"/>
<path d="M270.45 288.12L269.48 288.34M269.48 288.34L268.71 288.98"/>
<path d="M308.71 288.98L307.94 288.34M307.94 288.34L306.97 288.12"/>
<path d="M263.15 291.77L263.15 295.42"/>
<path d="M263.15 160.3L247.41 162.21M247.41 162.21L232.6 167.83M232.6 167.83L219.56 176.83M219.56 176.83L209.05 188.69M209.05 188.69L201.68 202.73M201.68 202.73L197.89 218.11M197.89 218.11L197.89 233.96M197.89 233.96L201.68 249.35M201.68 249.35L209.05 263.38M209.05 263.38L219.56 275.24M219.56 275.24L232.6 284.24M232.6 284.24L247.41 289.86M247.41 289.86L263.15 291.77"/>
<path d="M263.15 160.3L263.15 156.65"/>
<path d="M270.45 163.95L306.97 163.95"/>
<path d="M263.15 160.3L266.57 160.3"/>
<path d="M266.57 291.77L263.15 291.77"/>
<path d="M306.97 288.12L270.45 288.12"/>
<path d="M342.76 209.6L352.25 202.3"/>
<path d="M342.76 209.6L388.04 209.6"/>
<path d="M388.04 209.6L378.55 202.3"/>
<path d="M342.76 184.04L352.25 191.34"/>
<path d="M342.76 184.04L342.76 209.6"/>
<path d="M388.04 184.04L378.55 191.34"/>
<path d="M388.04 184.04L342.76 184.04"/>
<path d="M388.04 209.6L388.04 184.04"/>
<path d="M380.01 211.79L362.48 211.79"/>
<path d="M380.01 219.2L380.01 211.79"/>
<path d="M365.4 223.11L372.96 222.12M372.96 222.12L380.01 219.2"/>
<path d="M362.48 223.11L365.4 223.11"/>
<path d="M362.48 211.79L362.48 223.11"/>
<path d="M350.79 181.85L368.32 181.85"/>
<path d="M350.79 174.44L350.79 181.85"/>
<path d="M365.4 170.53L357.84 171.52M357.84 171.52L350.79 174.44"/>
<path d="M368.32 170.53L365.4 170.53"/>
<path d="M368.32 181.85L368.32 170.53"/>
<path d="M284.33 209.6L293.82 202.3"/>
<path d="M284.33 209.6L329.61 209.6"/>
<path d="M329.61 209.6L320.12 202.3"/>
<path d="M284.33 184.04L293.82 191.34"/>
<path d="M284.33 184.04L284.33 209.6"/>
<path d="M329.61 184.04L320.12 191.34"/>
<path d="M329.61 184.04L284.33 184.04"/>
<path d="M329.61 209.6L329.61 184.04"/>
<path d="M321.58 211.79L304.05 211.79"/>
<path d="M321.58 219.2L321.58 211.79"/>
<path d="M306.97 223.11L314.53 222.12M314.53 222.12L321.58 219.2"/>
<path d="M304.05 223.11L306.97 223.11"/>
<path d="M304.05 211.79L304.05 223.11"/>
<path d="M292.36 181.85L309.89 181.85"/>
<path d="M292.36 174.44L292.36 181.85"/>
<path d="M306.97 170.53L299.41 171.52M299.41 171.52L292.36 174.44"/>
<path d="M309.89 170.53L306.97 170.53"/>
<path d="M309.89 181.85L309.89 170.53"/>
<path d="M284.33 268.03L293.82 260.73"/>
<path d="M284.33 268.03L329.61 268.03"/>
<path d="M329.61 268.03L320.12 260.73"/>
<path d="M284.33 242.47L293.82 249.77"/>
<path d="M284.33 242.47L284.33 268.03"/>
<path d="M329.61 242.47L320.12 249.77"/>
<path d="M329.61 242.47L284.33 242.47"/>
<path d="M329.61 268.03L329.61 242.47"/>
<path d="M321.58 270.22L304.05 270.22"/>
<path d="M321.58 277.63L321.58 270.22"/>
<path d="M306.97 281.54L314.53 280.55M314.53 280.55L321.58 277.63"/>
<path d="M304.05 281.54L306.97 281.54"/>
<path d="M304.05 270.22L304.05 281.54"/>
<path d="M292.36 240.28L309.89 240.28"/>
<path d="M292.36 232.87L292.36 240.28"/>
<path d="M306.97 228.96L299.41 229.95M299.41 229.95L292.36 232.87"/>
<path d="M309.89 228.96L306.97 228.96"/>
<path d="M309.89 240.28L309.89 228.96"/>
<path d="M225.9 209.6L235.39 202.3"/>
<path d="M225.9 209.6L271.18 209.6"/>
<path d="M271.18 209.6L261.68 202.3"/>
<path d="M225.9 184.04L235.39 191.34"/>
<path d="M225.9 184.04L225.9 209.6"/>
<path d="M271.18 184.04L261.68 191.34"/>
<path d="M271.18 184.04L225.9 184.04"/>
<path d="M271.18 209.6L271.18 184.04"/>
<path d="M263.15 211.79L245.62 211.79"/>
<path d="M263.15 219.2L263.15 211.79"/>
<path d="M248.54 223.11L256.1 222.12M256.1 222.12L263.15 219.2"/>
<path d="M245.62 223.11L248.54 223.11"/>
<path d="M245.62 211.79L245.62 223.11"/>
<path d="M233.93 181.85L251.46 181.85"/>
<path d="M233.93 174.44L233.93 181.85"/>
<path d="M248.54 170.53L240.98 171.52M240.98 171.52L233.93 174.44"/>
<path d="M251.46 170.53L248.54 170.53"/>
<path d="M251.46 181.85L251.46 170.53"/>
<path d="M225.9 268.03L235.39 260.73"/>
<path d="M225.9 268.03L271.18 268.03"/>
<path d="M271.18 268.03L261.68 260.73"/>
<path d="M225.9 242.47L235.39 249.77"/>
<path d="M225.9 242.47L225.9 268.03"/>
<path d="M271.18 242.47L261.68 249.77"/>
<path d="M271.18 242.47L225.9 242.47"/>
<path d="M271.18 268.03L271.18 242.47"/>
<path d="M263.15 270.22L245.62 270.22"/>
<path d="M263.15 277.63L263.15 270.22"/>
<path d="M248.54 281.54L256.1 280.55M256.1 280.55L263.15 277.63"/>
<path d="M245.62 281.54L248.54 281.54"/>
<path d="M245.62 270.22L245.62 281.54"/>
<path d="M233.93 240.28L251.46 240.28"/>
<path d="M233.93 232.87L233.93 240.28"/>
<path d="M248.54 228.96L240.98 229.95M240.98 229.95L233.93 232.87"/>
<path d="M251.46 228.96L248.54 228.96"/>
<path d="M251.46 240.28L251.46 228.96"/>
<path d="M406.83 201.05L403.81 197.87M403.81 197.87L399.46 197.3M399.46 197.3L395.71 199.59M395.71 199.59L394.25 203.73"/>
<path d="M397.9 203.73L394.25 203.73"/>
<path d="M406.83 201.05L403.49 202.54"/>
<path d="M403.49 249.53L406.83 251.02"/>
<path d="M406.83 251.02L410.8 238.81M410.8 238.81L412.14 226.04M412.14 226.04L410.8 213.26M410.8 213.26L406.83 201.05"/>
<path d="M394.25 248.34L395.71 252.48M395.71 252.48L399.46 254.77M399.46 254.77L403.81 254.2M403.81 254.2L406.83 251.02"/>
<path d="M394.25 248.34L397.9 248.34"/>
<path d="M394.25 248.34L394.25 203.73"/>
<path d="M219.69 203.73L218.22 199.59M218.22 199.59L214.48 197.3M214.48 197.3L210.13 197.87M210.13 197.87L207.11 201.05"/>
<path d="M210.45 202.54L207.11 201.05"/>
<path d="M219.69 203.73L216.04 203.73"/>
<path d="M216.04 248.34L219.69 248.34"/>
<path d="M219.69 203.73L219.69 248.34"/>
<path d="M207.11 251.02L210.13 254.2M210.13 254.2L214.48 254.77M214.48 254.77L218.22 252.48M218.22 252.48L219.69 248.34"/>
<path d="M207.11 251.02L210.45 249.53"/>
<path d="M207.11 201.05L203.14 213.26M203.14 213.26L201.79 226.04M201.79 226.04L203.14 238.81M203.14 238.81L207.11 251.02"/>
<path d="M239.77 269.86L238.31 269.86"/>
<path d="M239.77 281.98L239.77 269.86"/>
<path d="M241.23 279.8L239.77 281.98"/>
<path d="M241.23 282.29L241.23 279.8"/>
<path d="M239.77 284.47L241.23 282.29"/>
<path d="M238.31 284.47L239.77 284.47"/>
<path d="M238.31 269.86L238.31 284.47"/>
<path d="M292.36 270.79L291.63 271.41"/>
<path d="M293.33 270.17L292.36 270.79"/>
<path d="M294.31 269.86L293.33 270.17"/>
<path d="M296.26 269.86L294.31 269.86"/>
<path d="M297.23 270.17L296.26 269.86"/>
<path d="M298.2 270.79L297.23 270.17"/>
<path d="M298.93 271.41L298.2 270.79"/>
<path d="M299.42 272.34L298.93 271.41"/>
<path d="M299.66 273.28L299.42 272.34"/>
<path d="M298.45 273.28L299.66 273.28"/>
<path d="M298.2 272.66L298.45 273.28"/>
<path d="M297.72 272.03L298.2 272.66"/>
<path d="M297.23 271.72L297.72 272.03"/>
<path d="M296.01 271.41L297.23 271.72"/>
<path d="M294.55 271.41L296.01 271.41"/>
<path d="M293.33 271.72L294.55 271.41"/>
<path d="M292.85 272.03L293.33 271.72"/>
<path d="M292.36 272.66L292.85 272.03"/>
<path d="M292.12 273.28L292.36 272.66"/>
<path d="M292.12 274.52L292.12 273.28"/>
<path d="M292.6 275.76L292.12 274.52"/>
<path d="M293.33 276.39L292.6 275.76"/>
<path d="M294.8 276.7L293.33 276.39"/>
<path d="M295.77 276.7L294.8 276.7"/>
<path d="M295.77 277.94L295.77 276.7"/>
<path d="M294.8 277.94L295.77 277.94"/>
<path d="M293.33 278.56L294.8 277.94"/>
<path d="M292.85 279.18L293.33 278.56"/>
<path d="M292.36 280.43L292.85 279.18"/>
<path d="M292.36 281.05L292.36 280.43"/>
<path d="M292.85 281.98L292.36 281.05"/>
<path d="M293.58 282.6L292.85 281.98"/>
<path d="M294.8 282.91L293.58 282.6"/>
<path d="M295.77 282.91L294.8 282.91"/>
<path d="M296.99 282.6L295.77 282.91"/>
<path d="M297.72 281.98L296.99 282.6"/>
<path d="M298.2 281.05L297.72 281.98"/>
<path d="M299.42 281.05L298.2 281.05"/>
<path d="M299.18 282.29L299.42 281.05"/>
<path d="M298.2 283.53L299.18 282.29"/>
<path d="M297.23 284.16L298.2 283.53"/>
<path d="M295.53 284.47L297.23 284.16"/>
<path d="M295.04 284.47L295.53 284.47"/>
<path d="M293.33 284.16L295.04 284.47"/>
<path d="M292.36 283.53L293.33 284.16"/>
<path d="M291.39 282.29L292.36 283.53"/>
<path d="M291.14 281.05L291.39 282.29"/>
<path d="M291.14 280.43L291.14 281.05"/>
<path d="M291.39 279.18L291.14 280.43"/>
<path d="M291.87 278.25L291.39 279.18"/>
<path d="M292.85 277.32L291.87 278.25"/>
<path d="M291.63 276.7L292.85 277.32"/>
<path d="M291.14 275.76L291.63 276.7"/>
<path d="M290.9 274.52L291.14 275.76"/>
<path d="M290.9 273.28L290.9 274.52"/>
<path d="M291.14 272.34L290.9 273.28"/>
<path d="M291.63 271.41L291.14 272.34"/>
<path d="M356.63 276.39L354.93 276.39"/>
<path d="M356.63 284.47L356.63 276.39"/>
<path d="M348.36 284.47L356.63 284.47"/>
<path d="M348.36 282.91L348.36 284.47"/>
<path d="M355.42 282.91L348.36 282.91"/>
<path d="M355.42 277.94L355.42 282.91"/>
<path d="M354.2 278.87L355.42 277.94"/>
<path d="M352.98 279.18L354.2 278.87"/>
<path d="M351.52 279.18L352.98 279.18"/>
<path d="M350.3 278.87L351.52 279.18"/>
<path d="M349.09 277.94L350.3 278.87"/>
<path d="M348.36 276.7L349.09 277.94"/>
<path d="M347.87 275.14L348.36 276.7"/>
<path d="M347.87 273.9L347.87 275.14"/>
<path d="M348.36 272.34L347.87 273.9"/>
<path d="M349.09 271.1L348.36 272.34"/>
<path d="M350.3 270.17L349.09 271.1"/>
<path d="M351.52 269.86L350.3 270.17"/>
<path d="M352.98 269.86L351.52 269.86"/>
<path d="M354.2 270.17L352.98 269.86"/>
<path d="M355.42 271.1L354.2 270.17"/>
<path d="M356.15 272.34L355.42 271.1"/>
<path d="M356.63 273.59L356.15 272.34"/>
<path d="M355.17 273.59L356.63 273.59"/>
<path d="M354.69 272.34L355.17 273.59"/>
<path d="M353.96 271.72L354.69 272.34"/>
<path d="M352.98 271.41L353.96 271.72"/>
<path d="M351.52 271.41L352.98 271.41"/>
<path d="M350.55 271.72L351.52 271.41"/>
<path d="M349.82 272.34L350.55 271.72"/>
<path d="M349.33 273.28L349.82 272.34"/>
<path d="M349.09 274.21L349.33 273.28"/>
<path d="M349.09 274.83L349.09 274.21"/>
<path d="M349.33 275.76L349.09 274.83"/>
<path d="M349.82 276.7L349.33 275.76"/>
<path d="M350.55 277.32L349.82 276.7"/>
<path d="M351.52 277.63L350.55 277.32"/>
<path d="M352.98 277.63L351.52 277.63"/>
<path d="M353.96 277.32L352.98 277.63"/>
<path d="M354.93 276.39L353.96 277.32"/>
<path d="M260.71 176.93L267.53 169.16"/>
<path d="M260.22 178.17L260.71 176.93"/>
<path d="M260.22 178.79L260.22 178.17"/>
<path d="M260.71 179.73L260.22 178.79"/>
<path d="M261.44 180.35L260.71 179.73"/>
<path d="M262.66 180.66L261.44 180.35"/>
<path d="M263.63 180.66L262.66 180.66"/>
<path d="M264.85 180.35L263.63 180.66"/>
<path d="M265.58 179.73L264.85 180.35"/>
<path d="M266.07 178.79L265.58 179.73"/>
<path d="M267.28 178.79L266.07 178.79"/>
<path d="M267.04 180.04L267.28 178.79"/>
<path d="M266.07 181.28L267.04 180.04"/>
<path d="M265.09 181.9L266.07 181.28"/>
<path d="M263.39 182.21L265.09 181.9"/>
<path d="M262.41 182.21L263.39 182.21"/>
<path d="M260.95 181.9L262.41 182.21"/>
<path d="M259.98 181.28L260.95 181.9"/>
<path d="M259.01 180.04L259.98 181.28"/>
<path d="M258.76 178.79L259.01 180.04"/>
<path d="M258.76 178.17L258.76 178.79"/>
<path d="M259.01 176.93L258.76 178.17"/>
<path d="M259.49 176L259.01 176.93"/>
<path d="M265.58 169.16L259.49 176"/>
<path d="M258.76 169.16L265.58 169.16"/>
<path d="M258.76 167.6L258.76 169.16"/>
<path d="M267.53 167.6L258.76 167.6"/>
<path d="M267.53 169.16L267.53 167.6"/>
<path d="M371.24 173.2L371.73 174.75"/>
<path d="M371.24 171.64L371.24 173.2"/>
<path d="M371.73 170.09L371.24 171.64"/>
<path d="M372.46 168.85L371.73 170.09"/>
<path d="M373.68 167.92L372.46 168.85"/>
<path d="M374.89 167.6L373.68 167.92"/>
<path d="M376.11 167.6L374.89 167.6"/>
<path d="M377.33 167.92L376.11 167.6"/>
<path d="M378.55 168.85L377.33 167.92"/>
<path d="M379.28 170.09L378.55 168.85"/>
<path d="M379.76 171.64L379.28 170.09"/>
<path d="M380.01 173.82L379.76 171.64"/>
<path d="M380.01 176L380.01 173.82"/>
<path d="M379.76 178.17L380.01 176"/>
<path d="M379.28 179.73L379.76 178.17"/>
<path d="M378.55 180.97L379.28 179.73"/>
<path d="M377.33 181.9L378.55 180.97"/>
<path d="M376.11 182.21L377.33 181.9"/>
<path d="M375.14 182.21L376.11 182.21"/>
<path d="M373.92 181.9L375.14 182.21"/>
<path d="M372.7 180.97L373.92 181.9"/>
<path d="M371.97 179.73L372.7 180.97"/>
<path d="M371.73 178.79L371.97 179.73"/>
<path d="M372.95 178.79L371.73 178.79"/>
<path d="M373.43 179.73L372.95 178.79"/>
<path d="M374.16 180.35L373.43 179.73"/>
<path d="M374.89 180.66L374.16 180.35"/>
<path d="M376.36 180.66L374.89 180.66"/>
<path d="M377.09 180.35L376.36 180.66"/>
<path d="M377.82 179.73L377.09 180.35"/>
<path d="M378.3 178.79L377.82 179.73"/>
<path d="M378.55 177.86L378.3 178.79"/>
<path d="M378.79 176L378.55 177.86"/>
<path d="M378.79 175.37L378.79 176"/>
<path d="M377.33 176.62L378.79 175.37"/>
<path d="M376.11 176.93L377.33 176.62"/>
<path d="M374.89 176.93L376.11 176.93"/>
<path d="M373.68 176.62L374.89 176.93"/>
<path d="M372.46 175.69L373.68 176.62"/>
<path d="M371.73 174.75L372.46 175.69"/>
<path d="M317.19 182.21L318.65 182.21"/>
<path d="M317.19 173.82L317.19 182.21"/>
<path d="M314.76 173.82L317.19 173.82"/>
<path d="M314.76 171.96L314.76 173.82"/>
<path d="M317.19 171.96L314.76 171.96"/>
<path d="M317.19 167.6L317.19 171.96"/>
<path d="M318.65 167.6L317.19 167.6"/>
<path d="M318.65 171.96L318.65 167.6"/>
<path d="M324.5 171.96L318.65 171.96"/>
<path d="M324.5 173.82L324.5 171.96"/>
<path d="M318.65 182.21L324.5 173.82"/>
<path d="M347.8 60.22L348.61 59.75"/>
<path d="M265.32 59.75L266.16 60.23"/>
<path d="M409.44 171.99L410.86 171.85"/>
<path d="M337.05 143.41L339.06 142.13M339.06 142.13L339.83 139.88"/>
<path d="M336.18 139.33L314.27 139.33"/>
<path d="M299.66 139.33L277.75 139.33"/>
<path d="M274.1 139.89L274.88 142.13M274.88 142.13L276.88 143.41"/>
<path d="M276.88 308.66L274.88 309.94M274.88 309.94L274.1 312.17"/>
<path d="M277.75 312.74L299.66 312.74"/>
<path d="M314.27 312.74L336.18 312.74"/>
<path d="M339.83 312.18L339.05 309.94M339.05 309.94L337.05 308.66"/>
<path d="M414.61 292.54L415.51 291.44"/>
<path d="M182.8 245.03L182.8 237.28"/>
<path d="M182.8 214.79L182.8 207.05"/>
<path d="M71.19 137.86L71.19 135.79M71.19 135.79L73.26 131.66M73.26 131.66L75.33 129.59M75.33 129.59L79.46 127.52M79.46 127.52L87.74 127.52M87.74 127.52L91.88 129.59M91.88 129.59L93.95 131.66M93.95 131.66L96.02 135.79M96.02 135.79L96.02 139.93M96.02 139.93L93.95 144.07M93.95 144.07L89.81 150.28M89.81 150.28L69.12 170.97M69.12 170.97L98.09 170.97"/>
<path d="M80.01 263.32L84.15 261.25M84.15 261.25L90.36 255.04M90.36 255.04L90.36 298.5"/>
<path d="M525.1 140.01L523.03 135.88M523.03 135.88L516.83 133.81M516.83 133.81L512.69 133.81M512.69 133.81L506.48 135.88M506.48 135.88L502.34 142.08M502.34 142.08L500.27 152.43M500.27 152.43L500.27 162.77M500.27 162.77L502.34 171.05M502.34 171.05L506.48 175.19M506.48 175.19L512.69 177.26M512.69 177.26L514.76 177.26M514.76 177.26L520.96 175.19M520.96 175.19L525.1 171.05M525.1 171.05L527.17 164.84M527.17 164.84L527.17 162.77M527.17 162.77L525.1 156.57M525.1 156.57L520.96 152.43M520.96 152.43L514.76 150.36M514.76 150.36L512.69 150.36M512.69 150.36L506.48 152.43M506.48 152.43L502.34 156.57M502.34 156.57L500.27 162.77"/>
<path d="M526.75 268.48L506.06 268.48M506.06 268.48L503.99 287.1M503.99 287.1L506.06 285.03M506.06 285.03L512.27 282.96M512.27 282.96L518.48 282.96M518.48 282.96L524.68 285.03M524.68 285.03L528.82 289.17M528.82 289.17L530.89 295.38M530.89 295.38L530.89 299.52M530.89 299.52L528.82 305.72M528.82 305.72L524.68 309.86M524.68 309.86L518.48 311.93M518.48 311.93L512.27 311.93M512.27 311.93L506.06 309.86M506.06 309.86L503.99 307.79M503.99 307.79L501.92 303.65"/>
</g>
</g>
</svg>
