<?xml version="1.0" standalone="no"?><svg xmlns="http://www.w3.org/2000/svg" width="600.000" height="450.000" viewBox="0.0 0.0 600.000 450.000" version="1.1">
<title>Acme Converter - Post-processed with EDS-Designer: 14.44 (info@symca.com)</title>
<desc>Acme Converter - Post-processed with EDS-Designer: 14.44 (info@symca.com)</desc>
<g id="EDS_STYLE_GROUP" fill="none" stroke="black" stroke-width="1.0">
<g id="0" display="visible">
<path d="M180.58 350.82L196.83 376.36M196.83 376.36L196.83 399.59M182.9 350.82L199.16 376.36M199.16 376.36L199.16 399.59M215.41 350.82L199.16 376.36M175.93 350.82L189.87 350.82M206.12 350.82L220.06 350.82M189.87 399.59L206.12 399.59M231.67 399.59L231.67 350.82M233.99 350.82L233.99 399.59M247.92 364.75L247.92 383.33M224.7 350.82L261.86 350.82M261.86 350.82L261.86 364.75M261.86 364.75L259.53 350.82M233.99 374.04L247.92 374.04M224.7 399.59L261.86 399.59M261.86 399.59L261.86 385.65M261.86 385.65L259.53 399.59M280.43 399.59L280.43 350.82M282.76 350.82L282.76 399.59M273.47 350.82L289.72 350.82M273.47 399.59L308.3 399.59M308.3 399.59L308.3 385.65M308.3 385.65L305.98 399.59M322.23 399.59L322.23 350.82M324.56 350.82L324.56 399.59M315.27 350.82L331.52 350.82M315.27 399.59L350.1 399.59M350.1 399.59L350.1 385.65M350.1 385.65L347.78 399.59M373.32 350.82L366.36 353.14M366.36 353.14L361.71 357.79M361.71 357.79L359.39 362.43M359.39 362.43L357.07 371.72M357.07 371.72L357.07 378.69M357.07 378.69L359.39 387.98M359.39 387.98L361.71 392.62M361.71 392.62L366.36 397.26M366.36 397.26L373.32 399.59M373.32 399.59L377.97 399.59M377.97 399.59L384.94 397.26M384.94 397.26L389.58 392.62M389.58 392.62L391.9 387.98M391.9 387.98L394.22 378.69M394.22 378.69L394.22 371.72M394.22 371.72L391.9 362.43M391.9 362.43L389.58 357.79M389.58 357.79L384.94 353.14M384.94 353.14L377.97 350.82M377.97 350.82L373.32 350.82M373.32 350.82L368.68 353.14M368.68 353.14L364.03 357.79M364.03 357.79L361.71 362.43M361.71 362.43L359.39 371.72M359.39 371.72L359.39 378.69M359.39 378.69L361.71 387.98M361.71 387.98L364.03 392.62M364.03 392.62L368.68 397.26M368.68 397.26L373.32 399.59M377.97 399.59L382.61 397.26M382.61 397.26L387.26 392.62M387.26 392.62L389.58 387.98M389.58 387.98L391.9 378.69M391.9 378.69L391.9 371.72M391.9 371.72L389.58 362.43M389.58 362.43L387.26 357.79M387.26 357.79L382.61 353.14M382.61 353.14L377.97 350.82M415.12 350.82L424.41 399.59M417.45 350.82L424.41 387.98M433.7 350.82L424.41 399.59M433.7 350.82L442.99 399.59M436.02 350.82L442.99 387.98M452.28 350.82L442.99 399.59M408.16 350.82L424.41 350.82M445.31 350.82L459.25 350.82"/>
<path d="M32.02 205.16L35.74 203.3M35.74 203.3L41.31 197.73M41.31 197.73L41.31 236.75"/>
<path d="M30.57 142.36L30.57 140.5M30.57 140.5L32.43 136.79M32.43 136.79L34.28 134.93M34.28 134.93L38 133.07M38 133.07L45.43 133.07M45.43 133.07L49.15 134.93M49.15 134.93L51.01 136.79M51.01 136.79L52.86 140.5M52.86 140.5L52.86 144.22M52.86 144.22L51.01 147.93M51.01 147.93L47.29 153.51M47.29 153.51L28.71 172.09M28.71 172.09L54.72 172.09"/>
<path d="M562.4 295.98L566.31 292.63"/>
<path d="M566.31 59.83L562.4 56.49"/>
<path d="M158.13 146L159.91 139.36M159.91 139.36L164.76 134.51M164.76 134.51L171.4 132.73M171.4 132.73L178.03 134.51M178.03 134.51L182.88 139.36M182.88 139.36L184.66 146M184.66 146L182.88 152.63M182.88 152.63L178.03 157.48M178.03 157.48L171.4 159.26M171.4 159.26L164.76 157.48M164.76 157.48L159.91 152.63M159.91 152.63L158.13 146"/>
<path d="M158.13 206.47L159.91 199.84M159.91 199.84L164.76 194.98M164.76 194.98L171.4 193.2M171.4 193.2L178.03 194.98M178.03 194.98L182.88 199.84M182.88 199.84L184.66 206.47M184.66 206.47L182.88 213.1M182.88 213.1L178.03 217.96M178.03 217.96L171.4 219.73M171.4 219.73L164.76 217.96M164.76 217.96L159.91 213.1M159.91 213.1L158.13 206.47"/>
<path d="M185.75 168.65L183.09 171.48M183.09 171.48L182.13 175.25"/>
<path d="M185.75 168.65L192.94 161.97M192.94 161.97L197.25 153.15M197.25 153.15L198.09 143.36M198.09 143.36L195.35 133.94M195.35 133.94L189.41 126.12M189.41 126.12L181.05 120.97M181.05 120.97L171.4 119.18M171.4 119.18L161.74 120.97M161.74 120.97L153.39 126.12M153.39 126.12L147.44 133.94M147.44 133.94L144.7 143.36M144.7 143.36L145.55 153.15M145.55 153.15L149.85 161.97M149.85 161.97L157.04 168.65"/>
<path d="M160.67 175.25L159.7 171.48M159.7 171.48L157.04 168.65"/>
<path d="M160.67 177.22L160.67 175.25"/>
<path d="M157.04 183.81L159.7 180.98M159.7 180.98L160.67 177.22"/>
<path d="M157.04 183.81L149.85 190.5M149.85 190.5L145.55 199.32M145.55 199.32L144.7 209.1M144.7 209.1L147.44 218.53M147.44 218.53L153.39 226.34M153.39 226.34L161.74 231.49M161.74 231.49L171.4 233.29M171.4 233.29L181.05 231.49M181.05 231.49L189.41 226.34M189.41 226.34L195.35 218.53M195.35 218.53L198.09 209.1M198.09 209.1L197.25 199.32M197.25 199.32L192.94 190.5M192.94 190.5L185.75 183.81"/>
<path d="M182.13 177.22L183.09 180.98M183.09 180.98L185.75 183.81"/>
<path d="M182.13 177.22L182.13 175.25"/>
<path d="M561.54 264.85L561.54 261.72"/>
<path d="M559.05 295.73L514.72 295.73"/>
<path d="M559.05 294.26L559.05 295.73"/>
<path d="M559.05 286.13L559.05 294.26"/>
<path d="M561.54 90.74L566.41 89.44M566.41 89.44L569.98 85.88M569.98 85.88L571.29 81.03"/>
<path d="M559.05 286.13L514.72 286.13"/>
<path d="M561.54 271.44L514.72 271.44"/>
<path d="M561.54 271.44L561.54 264.85"/>
<path d="M571.29 271.44L569.98 266.58M569.98 266.58L566.41 263.02M566.41 263.02L561.54 261.72"/>
<path d="M561.54 261.65L561.54 261.72"/>
<path d="M561.54 261.72L514.72 261.72"/>
<path d="M559.05 56.73L559.05 58.2"/>
<path d="M559.05 58.2L559.05 66.34"/>
<path d="M559.05 56.73L514.72 56.73"/>
<path d="M559.05 66.34L514.72 66.34"/>
<path d="M561.54 81.03L561.54 87.62"/>
<path d="M561.54 87.62L561.54 90.74"/>
<path d="M561.54 81.03L514.72 81.03"/>
<path d="M561.54 90.74L514.72 90.74"/>
<path d="M561.54 90.82L561.54 90.74"/>
<path d="M147.99 283.54L143.41 283.12M143.41 283.12L140.04 283.96M140.04 283.96L138.68 285.21M138.68 285.21L138.23 286.83"/>
<path d="M138.24 291.53L156.69 295.29M156.69 295.29L175.5 296.13M175.5 296.13L194.21 294.01M194.21 294.01L212.36 288.99"/>
<path d="M202.61 281.54L206.03 280.84M206.03 280.84L207.87 280.77M207.87 280.77L209.87 281.1M209.87 281.1L211 281.63M211 281.63L212.36 284.18"/>
<path d="M202.61 70.93L206.03 71.63M206.03 71.63L207.87 71.69M207.87 71.69L209.87 71.36M209.87 71.36L211 70.84M211 70.84L212.36 68.28"/>
<path d="M212.36 63.48L194.21 58.45M194.21 58.45L175.5 56.34M175.5 56.34L156.69 57.17M156.69 57.17L138.24 60.94"/>
<path d="M147.99 68.93L144.45 69.36M144.45 69.36L142.59 69.27M142.59 69.27L140.13 68.55M140.13 68.55L139.16 67.86M139.16 67.86L138.23 65.63"/>
<path d="M147.99 86.58L147.99 74.02"/>
<path d="M147.99 68.93L147.99 74.02"/>
<path d="M202.61 70.93L184.6 67.2M184.6 67.2L166.22 66.52M166.22 66.52L147.99 68.92"/>
<path d="M202.61 70.93L202.61 74.02"/>
<path d="M202.61 88.99L202.61 74.02"/>
<path d="M103.12 208.42L96.06 208.42"/>
<path d="M96.06 208.42L103.05 221.42M103.05 221.42L112.27 232.95M112.27 232.95L123.41 242.63M123.41 242.63L136.1 250.17M136.1 250.17L149.94 255.3"/>
<path d="M149.94 255.3L149.94 245.63"/>
<path d="M155.44 242.07L152.9 241.84M152.9 241.84L150.77 243.22M150.77 243.22L149.94 245.63"/>
<path d="M155.44 242.07L158.1 243.14"/>
<path d="M160.67 246.81L159.96 244.57M159.96 244.57L158.1 243.15"/>
<path d="M160.67 257.46L160.67 246.81"/>
<path d="M160.67 257.46L178.06 257.89M178.06 257.89L195.15 254.64M195.15 254.64L211.18 247.86M211.18 247.86L225.4 237.84M225.4 237.84L237.2 225.05M237.2 225.05L246.02 210.05M246.02 210.05L251.48 193.53M251.48 193.53L253.33 176.23M253.33 176.23L251.48 158.93M251.48 158.93L246.02 142.41M246.02 142.41L237.2 127.42M237.2 127.42L225.4 114.62M225.4 114.62L211.18 104.61M211.18 104.61L195.15 97.82M195.15 97.82L178.06 94.58M178.06 94.58L160.67 95.01"/>
<path d="M160.67 105.65L160.67 95.01"/>
<path d="M158.1 109.32L159.96 107.89M159.96 107.89L160.67 105.65"/>
<path d="M158.1 109.32L155.44 110.4"/>
<path d="M149.94 106.84L150.77 109.24M150.77 109.24L152.9 110.62M152.9 110.62L155.44 110.4"/>
<path d="M149.94 106.84L149.94 97.16"/>
<path d="M149.94 97.16L136.1 102.3M136.1 102.3L123.41 109.83M123.41 109.83L112.27 119.52M112.27 119.52L103.05 131.05M103.05 131.05L96.06 144.05"/>
<path d="M103.12 144.05L96.06 144.05"/>
<path d="M103.12 208.42L103.12 144.05"/>
<path d="M202.61 278.45L202.61 263.48"/>
<path d="M202.61 278.45L202.61 281.54"/>
<path d="M147.99 283.54L166.22 285.94M166.22 285.94L184.6 285.27M184.6 285.27L202.61 281.54"/>
<path d="M147.99 278.45L147.99 283.54"/>
<path d="M147.99 278.45L147.99 265.88"/>
<path d="M412.31 76.61L412.31 275.86"/>
<path d="M412.31 168.43L409.38 168.43"/>
<path d="M412.31 172.33L409.38 172.33"/>
<path d="M409.38 180.13L412.31 180.13"/>
<path d="M409.38 184.04L412.31 184.04"/>
<path d="M409.38 260.11L410.14 263.89M410.14 263.89L412.31 267.08"/>
<path d="M412.31 85.39L410.14 88.58M410.14 88.58L409.38 92.35"/>
<path d="M514.72 261.65L514.72 261.72"/>
<path d="M514.72 271.44L514.72 261.72"/>
<path d="M514.72 286.13L514.72 271.44"/>
<path d="M514.72 295.73L514.72 286.13"/>
<path d="M514.72 298.98L514.72 295.73"/>
<path d="M514.72 299.13L514.72 298.98"/>
<path d="M551.78 298.98L514.72 298.98"/>
<path d="M551.78 299.13L551.78 298.98"/>
<path d="M551.78 298.98L555.76 298.13M555.76 298.13L559.05 295.73"/>
<path d="M559.05 295.73L563.04 294.98M563.04 294.98L566.31 292.63"/>
<path d="M559.05 286.13L566.31 292.63"/>
<path d="M559.05 286.13L560.89 283.1M560.89 283.1L561.54 279.62"/>
<path d="M514.72 72.85L510.82 72.85"/>
<path d="M514.72 90.82L561.54 90.82"/>
<path d="M561.54 90.82L566.42 89.5M566.42 89.5L569.99 85.92M569.99 85.92L571.29 81.03"/>
<path d="M561.54 81.03L571.29 81.03"/>
<path d="M561.54 72.85L561.54 81.03"/>
<path d="M561.54 279.62L571.29 279.62"/>
<path d="M561.54 271.44L561.54 279.62"/>
<path d="M561.54 271.44L571.29 271.44"/>
<path d="M571.29 271.44L569.99 266.55M569.99 266.55L566.42 262.97M566.42 262.97L561.54 261.65"/>
<path d="M514.72 261.65L561.54 261.65"/>
<path d="M514.72 279.62L510.82 279.62"/>
<path d="M561.54 72.85L571.29 72.85"/>
<path d="M561.54 72.85L560.89 69.36M560.89 69.36L559.05 66.34"/>
<path d="M566.31 59.83L559.05 66.34"/>
<path d="M566.31 59.83L563.04 57.49M563.04 57.49L559.05 56.73"/>
<path d="M559.05 56.73L555.76 54.34M555.76 54.34L551.78 53.49"/>
<path d="M551.78 53.49L551.78 53.34"/>
<path d="M514.72 53.49L551.78 53.49"/>
<path d="M514.72 53.49L514.72 53.34"/>
<path d="M514.72 53.49L514.72 56.73"/>
<path d="M514.72 66.34L514.72 56.73"/>
<path d="M514.72 66.34L514.72 81.03"/>
<path d="M514.72 90.74L514.72 81.03"/>
<path d="M514.72 90.82L514.72 90.74"/>
<path d="M504.97 55.99L504.97 53.34"/>
<path d="M66.07 101.92L65.08 106.49"/>
<path d="M66.06 106.67L65.09 109.91"/>
<path d="M66.06 161.87L65.08 161.8"/>
<path d="M65.08 123.56L66.06 123.56"/>
<path d="M65.08 161.8L64.11 176.23M64.11 176.23L65.08 190.67"/>
<path d="M66.06 190.6L65.08 190.67"/>
<path d="M65.08 228.9L66.06 228.9"/>
<path d="M65.09 242.56L66.06 245.79"/>
<path d="M65.08 245.98L66.07 250.55"/>
<path d="M138.23 278.45L138.23 262.75"/>
<path d="M138.23 278.45L138.23 286.83"/>
<path d="M138.23 286.83L138.23 291.53"/>
<path d="M212.36 284.18L212.36 288.99"/>
<path d="M212.36 278.45L212.36 284.18"/>
<path d="M212.36 278.45L212.36 259.34"/>
<path d="M212.36 93.12L212.36 74.02"/>
<path d="M212.36 68.28L212.36 74.02"/>
<path d="M212.36 68.28L212.36 63.48"/>
<path d="M138.23 65.63L138.23 60.94"/>
<path d="M138.23 65.63L138.23 74.02"/>
<path d="M138.23 89.71L138.23 74.02"/>
<path d="M78.74 176.23L80.64 157.58M80.64 157.58L86.25 139.69M86.25 139.69L95.35 123.3M95.35 123.3L107.56 109.08M107.56 109.08L122.38 97.6M122.38 97.6L139.22 89.34M139.22 89.34L157.37 84.64M157.37 84.64L176.09 83.69M176.09 83.69L194.62 86.53M194.62 86.53L212.2 93.04M212.2 93.04L228.11 102.96M228.11 102.96L241.7 115.88M241.7 115.88L252.41 131.27M252.41 131.27L259.81 148.49M259.81 148.49L263.58 166.86M263.58 166.86L263.58 185.61M263.58 185.61L259.81 203.97M259.81 203.97L252.41 221.2M252.41 221.2L241.7 236.59M241.7 236.59L228.11 249.5M228.11 249.5L212.2 259.42M212.2 259.42L194.62 265.93M194.62 265.93L176.09 268.77M176.09 268.77L157.37 267.82M157.37 267.82L139.22 263.12M139.22 263.12L122.38 254.87M122.38 254.87L107.56 243.39M107.56 243.39L95.35 229.17M95.35 229.17L86.25 212.77M86.25 212.77L80.64 194.88M80.64 194.88L78.74 176.23"/>
<path d="M504.97 299.13L504.97 296.48"/>
<path d="M504.06 299.13L499.81 300.1"/>
<path d="M504.97 299.13L504.06 299.13"/>
<path d="M514.72 299.13L504.97 299.13"/>
<path d="M551.78 299.13L514.72 299.13"/>
<path d="M551.78 299.13L557.32 298.32M557.32 298.32L562.41 295.98"/>
<path d="M566.31 292.63L570 286.59M570 286.59L571.29 279.62"/>
<path d="M571.29 81.03L571.29 93.33"/>
<path d="M571.29 72.85L571.29 81.03"/>
<path d="M571.29 271.44L571.29 279.62"/>
<path d="M571.29 259.14L571.29 271.44"/>
<path d="M571.29 72.85L570 65.88M570 65.88L566.31 59.83"/>
<path d="M562.41 56.49L557.32 54.14M557.32 54.14L551.78 53.34"/>
<path d="M514.72 53.34L551.78 53.34"/>
<path d="M514.72 53.34L504.97 53.34"/>
<path d="M504.97 53.34L504.06 53.34"/>
<path d="M499.81 52.36L504.06 53.34"/>
<path d="M87.97 76.75L93.84 75.84M93.84 75.84L99.17 73.21"/>
<path d="M66.06 86.92L65.09 92.35"/>
<path d="M65.08 94.3L65.08 92.35"/>
<path d="M65.08 106.49L65.08 94.3"/>
<path d="M65.08 109.91L65.08 106.49"/>
<path d="M65.08 109.91L65.08 123.56"/>
<path d="M65.08 123.56L65.08 161.8"/>
<path d="M65.08 190.67L65.08 228.9"/>
<path d="M65.08 228.9L65.08 242.56"/>
<path d="M65.08 245.98L65.08 242.57"/>
<path d="M65.08 258.16L65.08 245.98"/>
<path d="M65.08 258.16L65.08 260.11"/>
<path d="M65.09 260.11L66.06 265.54"/>
<path d="M99.17 279.25L93.84 276.62M93.84 276.62L87.97 275.72"/>
<path d="M409.38 268.89L410.69 273.77M410.69 273.77L414.26 277.34M414.26 277.34L419.13 278.64"/>
<path d="M485.46 278.64L419.13 278.64"/>
<path d="M485.46 278.64L490.34 277.34M490.34 277.34L493.91 273.77M493.91 273.77L495.21 268.89"/>
<path d="M495.21 268.89L495.21 259.14"/>
<path d="M495.21 259.14L487.41 259.14"/>
<path d="M487.41 259.14L487.41 93.33"/>
<path d="M495.21 93.33L487.41 93.33"/>
<path d="M495.21 93.33L495.21 83.57"/>
<path d="M495.21 83.57L493.91 78.7M493.91 78.7L490.34 75.13M490.34 75.13L485.46 73.82"/>
<path d="M419.13 73.82L485.46 73.82"/>
<path d="M419.13 73.82L414.26 75.13M414.26 75.13L410.69 78.7M410.69 78.7L409.38 83.57"/>
<path d="M409.38 83.57L409.38 165.5"/>
<path d="M409.38 165.5L409.38 186.96"/>
<path d="M409.38 186.96L409.38 268.89"/>
<path d="M520.57 259.14L515.69 260.44M515.69 260.44L512.12 264.01M512.12 264.01L510.82 268.89"/>
<path d="M510.82 282.55L510.82 268.89"/>
<path d="M96.88 277.61L113.81 288.1M113.81 288.1L132.19 295.79M132.19 295.79L151.54 300.48M151.54 300.48L171.4 302.05"/>
<path d="M96.88 277.61L91.1 275.72"/>
<path d="M75.81 275.72L91.1 275.72"/>
<path d="M66.06 265.96L67.37 270.84M67.37 270.84L70.94 274.41M70.94 274.41L75.81 275.72"/>
<path d="M66.06 261.09L66.06 265.96"/>
<path d="M66.06 261.09L66.06 86.5"/>
<path d="M75.81 76.75L70.94 78.05M70.94 78.05L67.37 81.62M67.37 81.62L66.06 86.5"/>
<path d="M75.81 76.75L91.1 76.75"/>
<path d="M91.1 76.75L96.88 74.85"/>
<path d="M171.4 50.41L151.54 51.99M151.54 51.99L132.19 56.68M132.19 56.68L113.81 64.36M113.81 64.36L96.88 74.85"/>
<path d="M510.82 69.92L509.33 62.45M509.33 62.45L505.1 56.13M505.1 56.13L498.78 51.9M498.78 51.9L491.31 50.41"/>
<path d="M510.82 69.92L510.82 83.57"/>
<path d="M510.82 83.57L512.12 88.45M512.12 88.45L515.69 92.02M515.69 92.02L520.57 93.33"/>
<path d="M520.57 93.33L571.29 93.33"/>
<path d="M571.29 93.33L571.29 259.14"/>
<path d="M520.57 259.14L571.29 259.14"/>
<path d="M491.31 302.05L498.78 300.57M498.78 300.57L505.1 296.34M505.1 296.34L509.33 290.01M509.33 290.01L510.82 282.55"/>
<path d="M399.63 50.41L491.31 50.41"/>
<path d="M239.67 50.41L399.63 50.41"/>
<path d="M171.4 50.41L239.67 50.41"/>
<path d="M491.31 302.05L171.4 302.05"/>
<path d="M202.61 65.8L202.61 71.39M202.61 73.62L202.61 73.99M202.61 76.23L202.61 85.17M202.61 87.41L202.61 87.78M202.61 90.02L202.61 95.61"/>
<path d="M147.99 289.25L147.99 283.83M147.99 281.66L147.99 281.3M147.99 279.13L147.99 270.46M147.99 268.29L147.99 267.93M147.99 265.76L147.99 260.34"/>
<path d="M561.54 270.62L561.54 272.46M561.54 273.2L561.54 273.32M561.54 274.06L561.54 277.01M561.54 277.75L561.54 277.87M561.54 278.61L561.54 280.45"/>
<path d="M504.97 299.39L504.97 298.8M504.97 298.56L504.97 298.52M504.97 298.28L504.97 297.32M504.97 297.09L504.97 297.05M504.97 296.81L504.97 296.21"/>
<path d="M566.22 271.44L555.68 271.44M551.47 271.44L550.77 271.44M546.55 271.44L529.69 271.44M525.48 271.44L524.78 271.44M520.56 271.44L510.03 271.44"/>
<path d="M563.48 286.13L553.5 286.13M549.51 286.13L548.85 286.13M544.86 286.13L528.9 286.13M524.91 286.13L524.24 286.13M520.25 286.13L510.28 286.13"/>
<path d="M563.48 66.34L553.5 66.34M549.51 66.34L548.85 66.34M544.86 66.34L528.9 66.34M524.91 66.34L524.24 66.34M520.25 66.34L510.28 66.34"/>
<path d="M566.22 81.03L555.68 81.03M551.47 81.03L550.77 81.03M546.55 81.03L529.69 81.03M525.48 81.03L524.78 81.03M520.56 81.03L510.03 81.03"/>
<path d="M202.61 286.68L202.61 281.09M202.61 278.85L202.61 278.48M202.61 276.24L202.61 267.3M202.61 265.06L202.61 264.69M202.61 262.45L202.61 256.86"/>
<path d="M147.99 92.12L147.99 86.7M147.99 84.54L147.99 84.17M147.99 82.01L147.99 73.34M147.99 71.17L147.99 70.81M147.99 68.64L147.99 63.23"/>
<path d="M561.54 72.03L561.54 73.87M561.54 74.61L561.54 74.73M561.54 75.47L561.54 78.42M561.54 79.15L561.54 79.28M561.54 80.01L561.54 81.86"/>
<path d="M64.99 123.56L65.21 123.56M65.29 123.56L65.31 123.56M65.4 123.56L65.75 123.56M65.84 123.56L65.85 123.56M65.94 123.56L66.16 123.56"/>
<path d="M64.99 228.9L65.21 228.9M65.29 228.9L65.31 228.9M65.4 228.9L65.75 228.9M65.84 228.9L65.85 228.9M65.94 228.9L66.16 228.9"/>
<path d="M504.97 56.25L504.97 55.66M504.97 55.42L504.97 55.38M504.97 55.14L504.97 54.19M504.97 53.95L504.97 53.91M504.97 53.67L504.97 53.07"/>
</g>
</g>
</svg>
