<?xml version="1.0" standalone="no"?><svg xmlns="http://www.w3.org/2000/svg" width="600.000" height="450.000" viewBox="0.0 0.0 600.000 450.000" version="1.1">
<title>Acme Converter - Post-processed with EDS-Designer: 14.44 (info@symca.com)</title>
<desc>Acme Converter - Post-processed with EDS-Designer: 14.44 (info@symca.com)</desc>
<g id="EDS_STYLE_GROUP" fill="none" stroke="black" stroke-width="1.0">
<g id="0" display="visible">
<path d="M258.59 378.34L258.59 357.39M259.59 357.39L259.59 378.34M255.6 357.39L267.57 357.39M267.57 357.39L270.56 358.39M270.56 358.39L271.56 359.38M271.56 359.38L272.56 361.38M272.56 361.38L272.56 363.37M272.56 363.37L271.56 365.37M271.56 365.37L270.56 366.37M270.56 366.37L267.57 367.36M267.57 357.39L269.56 358.39M269.56 358.39L270.56 359.38M270.56 359.38L271.56 361.38M271.56 361.38L271.56 363.37M271.56 363.37L270.56 365.37M270.56 365.37L269.56 366.37M269.56 366.37L267.57 367.36M259.59 367.36L267.57 367.36M267.57 367.36L270.56 368.36M270.56 368.36L271.56 369.36M271.56 369.36L272.56 371.35M272.56 371.35L272.56 374.35M272.56 374.35L271.56 376.34M271.56 376.34L270.56 377.34M270.56 377.34L267.57 378.34M267.57 378.34L255.6 378.34M267.57 367.36L269.56 368.36M269.56 368.36L270.56 369.36M270.56 369.36L271.56 371.35M271.56 371.35L271.56 374.35M271.56 374.35L270.56 376.34M270.56 376.34L269.56 377.34M269.56 377.34L267.57 378.34M280.54 378.34L280.54 357.39M281.53 357.39L281.53 378.34M277.54 357.39L284.53 357.39M277.54 378.34L292.51 378.34M292.51 378.34L292.51 372.35M292.51 372.35L291.51 378.34M304.48 357.39L297.49 378.34M304.48 357.39L311.46 378.34M304.48 360.38L310.46 378.34M299.49 372.35L308.47 372.35M295.5 378.34L301.48 378.34M307.47 378.34L313.45 378.34M330.41 360.38L331.41 363.37M331.41 363.37L331.41 357.39M331.41 357.39L330.41 360.38M330.41 360.38L328.42 358.39M328.42 358.39L325.42 357.39M325.42 357.39L323.43 357.39M323.43 357.39L320.44 358.39M320.44 358.39L318.44 360.38M318.44 360.38L317.44 362.38M317.44 362.38L316.45 365.37M316.45 365.37L316.45 370.36M316.45 370.36L317.44 373.35M317.44 373.35L318.44 375.34M318.44 375.34L320.44 377.34M320.44 377.34L323.43 378.34M323.43 378.34L325.42 378.34M325.42 378.34L328.42 377.34M328.42 377.34L330.41 375.34M330.41 375.34L331.41 373.35M323.43 357.39L321.43 358.39M321.43 358.39L319.44 360.38M319.44 360.38L318.44 362.38M318.44 362.38L317.44 365.37M317.44 365.37L317.44 370.36M317.44 370.36L318.44 373.35M318.44 373.35L319.44 375.34M319.44 375.34L321.43 377.34M321.43 377.34L323.43 378.34M340.39 378.34L340.39 357.39M341.38 357.39L341.38 378.34M354.35 357.39L341.38 370.36M346.37 366.37L354.35 378.34M345.38 366.37L353.36 378.34M337.39 357.39L344.38 357.39M350.36 357.39L356.35 357.39M337.39 378.34L344.38 378.34M350.36 378.34L356.35 378.34"/>
<path d="M439.84 219.72L441.43 218.92M441.43 218.92L443.83 216.53M443.83 216.53L443.83 233.29"/>
<path d="M156.95 221.36L156.95 220.57M156.95 220.57L157.74 218.97M157.74 218.97L158.54 218.17M158.54 218.17L160.14 217.37M160.14 217.37L163.33 217.37M163.33 217.37L164.93 218.17M164.93 218.17L165.72 218.97M165.72 218.97L166.52 220.57M166.52 220.57L166.52 222.16M166.52 222.16L165.72 223.76M165.72 223.76L164.13 226.15M164.13 226.15L156.15 234.13M156.15 234.13L167.32 234.13"/>
<path d="M273.32 314.66L273.57 317.17M273.57 317.17L274.24 319.01M274.24 319.01L275.15 319.68"/>
<path d="M336.83 319.68L337.74 319.01M337.74 319.01L338.41 317.17M338.41 317.17L338.66 314.66"/>
<path d="M394.81 156.71L396.05 155.49M396.05 155.49L397.3 154.28M397.3 154.28L398.56 153.08M398.56 153.08L399.83 151.9"/>
<path d="M394.81 156.71L398.21 156.23M398.21 156.23L401.6 155.73"/>
<path d="M210.37 155.73L213.77 156.23M213.77 156.23L217.17 156.71"/>
<path d="M212.14 151.9L213.42 153.08M213.42 153.08L214.68 154.28M214.68 154.28L215.93 155.49M215.93 155.49L217.17 156.71"/>
<path d="M330.74 307.35L331.26 307.34M331.26 307.34L331.77 307.33M331.77 307.33L332.29 307.31M332.29 307.31L332.8 307.27"/>
<path d="M279.18 307.27L279.69 307.31M279.69 307.31L280.21 307.33M280.21 307.33L280.72 307.34M280.72 307.34L281.24 307.35"/>
<path d="M360.7 186.31L359.75 189.1M359.75 189.1L358.78 191.87"/>
<path d="M370.51 167.18L372.29 166.45M372.29 166.45L373.02 164.67"/>
<path d="M394.81 80.04L393.83 77.67M393.83 77.67L391.46 76.69"/>
<path d="M360.7 186.31L357.47 186.11M357.47 186.11L354.79 187.9M354.79 187.9L353.75 190.96"/>
<path d="M328.61 188.55L327.94 186.04M327.94 186.04L326.1 184.2M326.1 184.2L323.59 183.52"/>
<path d="M328.61 196.93L330.08 200.49M330.08 200.49L333.64 201.96"/>
<path d="M348.72 201.96L352.28 200.49M352.28 200.49L353.75 196.93"/>
<path d="M353 195.46L353.65 197.93"/>
<path d="M353.94 189.59L353 192.53"/>
<path d="M399.83 151.9L400.3 154.01M400.3 154.01L401.6 155.73"/>
<path d="M364.64 111.04L363.52 106.85M363.52 106.85L360.45 103.79M360.45 103.79L356.26 102.67"/>
<path d="M399.83 80.04L398.71 75.85M398.71 75.85L395.65 72.79M395.65 72.79L391.46 71.66"/>
<path d="M348.72 206.98L353.75 205.64M353.75 205.64L357.43 201.96M357.43 201.96L358.78 196.93"/>
<path d="M323.59 196.93L324.93 201.96M324.93 201.96L328.61 205.64M328.61 205.64L333.64 206.98"/>
<path d="M373.13 260.26L373.85 259.69"/>
<path d="M364.22 246.87L363 243.91M363 243.91L360.03 242.68"/>
<path d="M355.91 186.83L349.64 186.24"/>
<path d="M370.16 263.02L375.81 257.46M375.81 257.46L379.99 250.74M379.99 250.74L382.48 243.22"/>
<path d="M377.63 220.39L376.32 211.47M376.32 211.47L372.49 203.3M372.49 203.3L366.47 196.57M366.47 196.57L358.78 191.87"/>
<path d="M383.5 220.39L381.69 209M381.69 209L376.45 198.72M376.45 198.72L368.3 190.56M368.3 190.56L358.02 185.33M358.02 185.33L346.63 183.52"/>
<path d="M383.83 220.39L382.01 208.9M382.01 208.9L376.73 198.52M376.73 198.52L368.49 190.29M368.49 190.29L358.12 185.01M358.12 185.01L346.63 183.19"/>
<path d="M392.98 220.39L391.4 208.4M391.4 208.4L386.77 197.22M386.77 197.22L379.4 187.62M379.4 187.62L369.8 180.25M369.8 180.25L358.62 175.62M358.62 175.62L346.63 174.04"/>
<path d="M393.89 220.39L392.28 208.16M392.28 208.16L387.55 196.76M387.55 196.76L380.04 186.98M380.04 186.98L370.26 179.46M370.26 179.46L358.86 174.74M358.86 174.74L346.63 173.13"/>
<path d="M408.21 220.81L406.53 206.46M406.53 206.46L401.57 192.89M401.57 192.89L393.61 180.84M393.61 180.84L383.08 170.96"/>
<path d="M413.24 220.81L411.94 207.65M411.94 207.65L408.07 194.99M408.07 194.99L401.79 183.35M401.79 183.35L393.35 173.16M393.35 173.16L383.08 164.83"/>
<path d="M419.34 220.81L417.76 205.67M417.76 205.67L413.07 191.19M413.07 191.19L405.5 177.99M405.5 177.99L395.35 166.65M395.35 166.65L383.08 157.65"/>
<path d="M426.65 220.81L425.28 206.06M425.28 206.06L421.24 191.81M421.24 191.81L414.65 178.54M414.65 178.54L405.74 166.71M405.74 166.71L394.81 156.71"/>
<path d="M431.68 220.81L429.68 202.46M429.68 202.46L423.79 184.96M423.79 184.96L414.29 169.14M414.29 169.14L401.6 155.73"/>
<path d="M364.22 260.16L371.4 253.27M371.4 253.27L376.03 244.46M376.03 244.46L377.63 234.64"/>
<path d="M346.63 271.5L358.02 269.7M358.02 269.7L368.3 264.46M368.3 264.46L376.45 256.31M376.45 256.31L381.69 246.03M381.69 246.03L383.5 234.64"/>
<path d="M346.63 271.84L358.12 270.02M358.12 270.02L368.49 264.73M368.49 264.73L376.73 256.5M376.73 256.5L382.01 246.13M382.01 246.13L383.83 234.64"/>
<path d="M346.63 280.98L358.62 279.41M358.62 279.41L369.8 274.78M369.8 274.78L379.4 267.41M379.4 267.41L386.77 257.81M386.77 257.81L391.4 246.63M391.4 246.63L392.98 234.64"/>
<path d="M346.63 281.89L358.86 280.28M358.86 280.28L370.26 275.56M370.26 275.56L380.04 268.05M380.04 268.05L387.55 258.26M387.55 258.26L392.28 246.87M392.28 246.87L393.89 234.64"/>
<path d="M346.21 296.22L360.01 294.67M360.01 294.67L373.11 290.08M373.11 290.08L384.87 282.69M384.87 282.69L394.69 272.88M394.69 272.88L402.07 261.12M402.07 261.12L406.66 248.01M406.66 248.01L408.21 234.22"/>
<path d="M346.21 301.25L361.12 299.57M361.12 299.57L375.29 294.61M375.29 294.61L388 286.63M388 286.63L398.62 276.01M398.62 276.01L406.6 263.3M406.6 263.3L411.56 249.13M411.56 249.13L413.24 234.22"/>
<path d="M346.21 307.35L362.48 305.52M362.48 305.52L377.94 300.11M377.94 300.11L391.81 291.39M391.81 291.39L403.39 279.81M403.39 279.81L412.1 265.95M412.1 265.95L417.51 250.49M417.51 250.49L419.34 234.22"/>
<path d="M346.21 314.66L361.9 313.11M361.9 313.11L376.99 308.53M376.99 308.53L390.9 301.1M390.9 301.1L403.09 291.1M403.09 291.1L413.09 278.91M413.09 278.91L420.52 265M420.52 265L425.1 249.91M425.1 249.91L426.65 234.22"/>
<path d="M346.21 319.68L362.88 318.04M362.88 318.04L378.92 313.18M378.92 313.18L393.69 305.28M393.69 305.28L406.64 294.65M406.64 294.65L417.27 281.7M417.27 281.7L425.17 266.92M425.17 266.92L430.03 250.89M430.03 250.89L431.68 234.22"/>
<path d="M329.45 336.44L335.86 335.17M335.86 335.17L341.3 331.53M341.3 331.53L344.93 326.1M344.93 326.1L346.21 319.68"/>
<path d="M238.96 164.67L239.69 166.45M239.69 166.45L241.47 167.18"/>
<path d="M220.52 76.69L218.15 77.67M218.15 77.67L217.17 80.04"/>
<path d="M210.37 155.73L211.68 154.01M211.68 154.01L212.14 151.9"/>
<path d="M255.71 102.67L251.52 103.79M251.52 103.79L248.46 106.85M248.46 106.85L247.34 111.04"/>
<path d="M220.52 71.66L216.33 72.79M216.33 72.79L213.27 75.85M213.27 75.85L212.14 80.04"/>
<path d="M297.19 246.87L295.96 243.91M295.96 243.91L293 242.68"/>
<path d="M228.9 170.96L218.37 180.84M218.37 180.84L210.4 192.89M210.4 192.89L205.45 206.46M205.45 206.46L203.76 220.81"/>
<path d="M228.9 164.83L218.62 173.16M218.62 173.16L210.18 183.35M210.18 183.35L203.91 194.99M203.91 194.99L200.04 207.65M200.04 207.65L198.74 220.81"/>
<path d="M228.9 157.65L216.63 166.65M216.63 166.65L206.48 177.99M206.48 177.99L198.9 191.19M198.9 191.19L194.22 205.67M194.22 205.67L192.64 220.81"/>
<path d="M217.17 156.71L206.24 166.71M206.24 166.71L197.33 178.54M197.33 178.54L190.74 191.81M190.74 191.81L186.69 206.06M186.69 206.06L185.33 220.81"/>
<path d="M210.37 155.73L197.69 169.14M197.69 169.14L188.18 184.96M188.18 184.96L182.3 202.46M182.3 202.46L180.3 220.81"/>
<path d="M265.35 189.39L258.87 190.07M258.87 190.07L252.67 192.1"/>
<path d="M239.45 201.87L239.39 201.96"/>
<path d="M236.47 206.98L234.26 213.53M234.26 213.53L233.51 220.39"/>
<path d="M265.35 183.52L253.96 185.33M253.96 185.33L243.68 190.56M243.68 190.56L235.52 198.72M235.52 198.72L230.29 209M230.29 209L228.48 220.39"/>
<path d="M265.35 183.19L253.85 185.01M253.85 185.01L243.48 190.29M243.48 190.29L235.25 198.52M235.25 198.52L229.97 208.9M229.97 208.9L228.15 220.39"/>
<path d="M265.35 174.04L253.35 175.62M253.35 175.62L242.18 180.25M242.18 180.25L232.58 187.62M232.58 187.62L225.21 197.22M225.21 197.22L220.58 208.4M220.58 208.4L219 220.39"/>
<path d="M265.35 173.13L253.12 174.74M253.12 174.74L241.72 179.46M241.72 179.46L231.93 186.98M231.93 186.98L224.42 196.76M224.42 196.76L219.7 208.16M219.7 208.16L218.09 220.39"/>
<path d="M252.67 262.93L262.84 265.54"/>
<path d="M233.51 234.64L235.03 244.36M235.03 244.36L239.45 253.16"/>
<path d="M228.48 234.64L230.29 246.03M230.29 246.03L235.52 256.31M235.52 256.31L243.68 264.46M243.68 264.46L253.96 269.7M253.96 269.7L265.35 271.5"/>
<path d="M228.15 234.64L229.97 246.13M229.97 246.13L235.25 256.5M235.25 256.5L243.48 264.73M243.48 264.73L253.85 270.02M253.85 270.02L265.35 271.84"/>
<path d="M219 234.64L220.58 246.63M220.58 246.63L225.21 257.81M225.21 257.81L232.58 267.41M232.58 267.41L242.18 274.78M242.18 274.78L253.35 279.41M253.35 279.41L265.35 280.98"/>
<path d="M218.09 234.64L219.7 246.87M219.7 246.87L224.42 258.26M224.42 258.26L231.93 268.05M231.93 268.05L241.72 275.56M241.72 275.56L253.12 280.28M253.12 280.28L265.35 281.89"/>
<path d="M203.76 234.22L205.32 248.01M205.32 248.01L209.9 261.12M209.9 261.12L217.29 272.88M217.29 272.88L227.11 282.69M227.11 282.69L238.87 290.08M238.87 290.08L251.97 294.67M251.97 294.67L265.77 296.22"/>
<path d="M198.74 234.22L200.42 249.13M200.42 249.13L205.38 263.3M205.38 263.3L213.36 276.01M213.36 276.01L223.98 286.63M223.98 286.63L236.68 294.61M236.68 294.61L250.85 299.57M250.85 299.57L265.77 301.25"/>
<path d="M192.64 234.22L194.47 250.49M194.47 250.49L199.88 265.95M199.88 265.95L208.59 279.81M208.59 279.81L220.17 291.39M220.17 291.39L234.04 300.11M234.04 300.11L249.5 305.52M249.5 305.52L265.77 307.35"/>
<path d="M185.33 234.22L186.88 249.91M186.88 249.91L191.45 265M191.45 265L198.89 278.91M198.89 278.91L208.89 291.1M208.89 291.1L221.08 301.1M221.08 301.1L234.99 308.53M234.99 308.53L250.08 313.11M250.08 313.11L265.77 314.66"/>
<path d="M180.3 234.22L181.94 250.89M181.94 250.89L186.81 266.92M186.81 266.92L194.71 281.7M194.71 281.7L205.34 294.65M205.34 294.65L218.29 305.28M218.29 305.28L233.06 313.18M233.06 313.18L249.1 318.04M249.1 318.04L265.77 319.68"/>
<path d="M241.75 260.72L242.03 260.98"/>
<path d="M265.77 319.68L267.05 326.1M267.05 326.1L270.68 331.53M270.68 331.53L276.11 335.17M276.11 335.17L282.53 336.44"/>
<path d="M240.72 258.36L241 259.64M241 259.64L241.75 260.72"/>
<path d="M236.47 201.96L233.77 202.75M233.77 202.75L231.91 204.87"/>
<path d="M228.48 227.6L229.95 231.15M229.95 231.15L233.51 232.62"/>
<path d="M252.67 192.1L248.75 194.86M248.75 194.86L246.15 198.87M246.15 198.87L245.24 203.57"/>
<path d="M245.24 251.46L246.15 256.16M246.15 256.16L248.75 260.17M248.75 260.17L252.67 262.93"/>
<path d="M250.27 186.75L244.53 190.79M244.53 190.79L240.71 196.68M240.71 196.68L239.38 203.57"/>
<path d="M239.38 251.46L240.71 258.35M240.71 258.35L244.53 264.24M244.53 264.24L250.27 268.28"/>
<path d="M220.52 71.66L391.46 71.66"/>
<path d="M220.52 76.69L391.46 76.69"/>
<path d="M212.14 80.04L217.17 80.04"/>
<path d="M399.83 80.04L394.81 80.04"/>
<path d="M431.68 234.22L431.68 220.81"/>
<path d="M228.9 90.1L383.08 90.1"/>
<path d="M426.65 234.22L426.65 220.81"/>
<path d="M419.34 220.81L419.34 234.22"/>
<path d="M242.31 102.67L369.67 102.67"/>
<path d="M332.8 307.27L349.28 301.18"/>
<path d="M346.21 301.25L330.74 307.35"/>
<path d="M413.24 220.81L413.24 234.22"/>
<path d="M408.21 234.22L408.21 220.81"/>
<path d="M364.64 111.04L369.67 111.04"/>
<path d="M242.31 111.04L247.34 111.04"/>
<path d="M399.83 80.04L399.83 151.9"/>
<path d="M394.81 80.04L394.81 156.71"/>
<path d="M393.89 234.64L393.89 220.39"/>
<path d="M392.98 234.64L392.98 220.39"/>
<path d="M247.34 121.94L364.64 121.94"/>
<path d="M247.34 124.97L364.64 124.97"/>
<path d="M391.46 71.66L391.46 76.69"/>
<path d="M383.83 234.64L383.83 220.39"/>
<path d="M383.5 234.64L383.5 220.39"/>
<path d="M383.08 170.96L383.08 90.1"/>
<path d="M247.34 129.99L364.64 129.99"/>
<path d="M247.34 137.86L364.64 137.86"/>
<path d="M377.63 234.64L377.63 220.39"/>
<path d="M373.02 163.83L373.02 164.67"/>
<path d="M369.67 167.18L369.67 102.67"/>
<path d="M247.34 145.21L364.64 145.21"/>
<path d="M247.34 153.41L364.64 153.41"/>
<path d="M364.64 111.04L364.64 167.18"/>
<path d="M364.22 267.03L364.22 246.87"/>
<path d="M359.03 213.02L359.03 240"/>
<path d="M358.78 191.87L358.78 196.93"/>
<path d="M247.34 153.78L364.64 153.78"/>
<path d="M238.96 163.83L228.9 163.83"/>
<path d="M383.08 163.83L373.02 163.83"/>
<path d="M274.96 305.71L273.32 307.35"/>
<path d="M351.49 220.56L359.03 213.02"/>
<path d="M353.75 190.96L353.75 196.93"/>
<path d="M353 192.53L353 195.46"/>
<path d="M351.49 220.56L351.49 234.47"/>
<path d="M348.72 206.98L348.72 201.96"/>
<path d="M346.63 183.19L346.63 173.13"/>
<path d="M346.63 186.24L346.63 183.52"/>
<path d="M346.63 271.84L346.63 281.89"/>
<path d="M346.21 301.25L346.21 296.22"/>
<path d="M346.21 307.35L346.21 302.32"/>
<path d="M346.21 314.66L346.21 319.68"/>
<path d="M247.34 167.18L241.47 167.18"/>
<path d="M370.51 167.18L364.64 167.18"/>
<path d="M346.63 173.13L265.35 173.13"/>
<path d="M346.63 174.04L265.35 174.04"/>
<path d="M327.52 234.47L319.98 240"/>
<path d="M338.66 314.66L338.66 307.35"/>
<path d="M336.57 201.96L336.57 201.12"/>
<path d="M333.64 206.98L333.64 201.96"/>
<path d="M333.35 201.95L333.35 201.12"/>
<path d="M332.8 319.68L332.8 307.27"/>
<path d="M346.63 183.19L265.35 183.19"/>
<path d="M346.63 183.52L265.35 183.52"/>
<path d="M349.64 186.24L328.05 186.24"/>
<path d="M265.35 189.39L328.61 189.39"/>
<path d="M329.87 242.68L329.87 271.5"/>
<path d="M328.61 196.93L328.61 188.55"/>
<path d="M327.52 234.47L327.52 220.56"/>
<path d="M323.59 196.93L323.59 183.52"/>
<path d="M319.98 240L319.98 213.02"/>
<path d="M327.52 220.56L319.98 213.02"/>
<path d="M351.49 234.47L359.03 240"/>
<path d="M358.78 191.87L353.75 191.87"/>
<path d="M323.59 196.93L328.61 196.93"/>
<path d="M358.78 196.93L353.75 196.93"/>
<path d="M330.08 200.48L352.28 200.48"/>
<path d="M330.86 201.12L336.57 201.12"/>
<path d="M239.45 201.96L236.47 201.96"/>
<path d="M348.72 201.96L333.64 201.96"/>
<path d="M245.24 203.57L239.38 203.57"/>
<path d="M239.38 206.98L236.47 206.98"/>
<path d="M348.72 206.98L333.64 206.98"/>
<path d="M319.98 213.02L359.03 213.02"/>
<path d="M252.95 213.02L292 213.02"/>
<path d="M260.49 234.47L252.95 240"/>
<path d="M284.45 220.56L292 213.02"/>
<path d="M297.19 246.87L297.19 271.5"/>
<path d="M383.83 220.39L393.89 220.39"/>
<path d="M377.63 220.39L383.5 220.39"/>
<path d="M228.48 220.39L233.51 220.39"/>
<path d="M228.15 220.39L218.09 220.39"/>
<path d="M327.52 220.56L351.49 220.56"/>
<path d="M260.49 220.56L284.45 220.56"/>
<path d="M426.65 220.81L431.68 220.81"/>
<path d="M192.64 220.81L203.76 220.81"/>
<path d="M185.33 220.81L180.3 220.81"/>
<path d="M419.34 220.81L408.21 220.81"/>
<path d="M292 213.02L292 240"/>
<path d="M284.45 220.56L284.45 234.47"/>
<path d="M236.47 206.98L231.91 204.87"/>
<path d="M228.48 227.6L239.38 227.6"/>
<path d="M233.51 232.62L239.38 232.62"/>
<path d="M426.65 234.22L431.68 234.22"/>
<path d="M192.64 234.22L203.76 234.22"/>
<path d="M185.33 234.22L180.3 234.22"/>
<path d="M419.34 234.22L408.21 234.22"/>
<path d="M284.45 234.47L260.49 234.47"/>
<path d="M351.49 234.47L327.52 234.47"/>
<path d="M383.83 234.64L393.89 234.64"/>
<path d="M377.63 234.64L383.5 234.64"/>
<path d="M228.15 234.64L218.09 234.64"/>
<path d="M233.51 234.64L228.48 234.64"/>
<path d="M252.67 262.93L250.27 268.28"/>
<path d="M279.18 319.68L279.18 307.27"/>
<path d="M273.32 314.66L273.32 307.35"/>
<path d="M252.67 192.1L250.27 186.75"/>
<path d="M260.49 220.56L252.95 213.02"/>
<path d="M284.45 234.47L292 240"/>
<path d="M292 240L252.95 240"/>
<path d="M359.03 240L319.98 240"/>
<path d="M293 242.68L262.84 242.68"/>
<path d="M360.03 242.68L329.87 242.68"/>
<path d="M265.77 301.25L265.77 296.22"/>
<path d="M265.77 307.35L265.77 302.32"/>
<path d="M265.77 314.66L265.77 319.68"/>
<path d="M265.35 183.19L265.35 173.13"/>
<path d="M265.35 189.39L265.35 183.52"/>
<path d="M265.35 271.84L265.35 281.89"/>
<path d="M262.84 242.68L262.84 271.42"/>
<path d="M260.49 234.47L260.49 220.56"/>
<path d="M338.66 307.35L337.02 305.71"/>
<path d="M245.24 251.46L239.38 251.46"/>
<path d="M252.95 240L252.95 213.02"/>
<path d="M247.34 111.04L247.34 167.18"/>
<path d="M265.35 271.5L346.63 271.5"/>
<path d="M265.35 271.84L346.63 271.84"/>
<path d="M245.24 203.57L245.24 251.46"/>
<path d="M242.31 167.18L242.31 102.67"/>
<path d="M239.38 203.57L239.38 251.46"/>
<path d="M238.96 164.67L238.96 163.83"/>
<path d="M236.47 206.98L236.47 201.96"/>
<path d="M265.35 280.98L346.63 280.98"/>
<path d="M265.35 281.89L346.63 281.89"/>
<path d="M233.51 234.64L233.51 220.39"/>
<path d="M228.9 90.1L228.9 170.96"/>
<path d="M228.48 234.64L228.48 220.39"/>
<path d="M228.15 220.39L228.15 234.64"/>
<path d="M265.77 296.22L346.21 296.22"/>
<path d="M220.52 71.66L220.52 76.69"/>
<path d="M219 220.39L219 234.64"/>
<path d="M218.09 220.39L218.09 234.64"/>
<path d="M217.17 156.71L217.17 80.04"/>
<path d="M212.14 151.9L212.14 80.04"/>
<path d="M265.77 301.25L281.24 307.35"/>
<path d="M262.7 301.18L279.18 307.27"/>
<path d="M265.77 301.25L346.21 301.25"/>
<path d="M281.24 307.35L330.74 307.35"/>
<path d="M273.32 307.35L265.77 307.35"/>
<path d="M346.21 307.35L338.66 307.35"/>
<path d="M203.76 220.81L203.76 234.22"/>
<path d="M198.74 234.22L198.74 220.81"/>
<path d="M338.66 314.66L346.21 314.66"/>
<path d="M265.77 314.66L273.32 314.66"/>
<path d="M265.77 319.68L346.21 319.68"/>
<path d="M266.3 323.87L345.68 323.87"/>
<path d="M192.64 234.22L192.64 220.81"/>
<path d="M268.01 328.06L343.96 328.06"/>
<path d="M271.44 332.25L340.53 332.25"/>
<path d="M185.33 220.81L185.33 234.22"/>
<path d="M180.3 220.81L180.3 234.22"/>
<path d="M282.53 336.44L329.45 336.44"/>
</g>
</g>
</svg>
