<?xml version="1.0" standalone="no"?><svg xmlns="http://www.w3.org/2000/svg" width="600.000" height="450.000" viewBox="0.0 0.0 600.000 450.000" version="1.1">
<title>Acme Converter - Post-processed with EDS-Designer: 14.44 (info@symca.com)</title>
<desc>Acme Converter - Post-processed with EDS-Designer: 14.44 (info@symca.com)</desc>
<g id="EDS_STYLE_GROUP" fill="none" stroke="black" stroke-width="1.0">
<g id="0" display="visible">
<path d="M281.65 361.58L282.54 364.24M282.54 364.24L282.54 358.91M282.54 358.91L281.65 361.58M281.65 361.58L279.87 359.8M279.87 359.8L277.21 358.91M277.21 358.91L275.43 358.91M275.43 358.91L272.76 359.8M272.76 359.8L270.99 361.58M270.99 361.58L270.1 363.36M270.1 363.36L269.21 366.02M269.21 366.02L269.21 370.46M269.21 370.46L270.1 373.13M270.1 373.13L270.99 374.91M270.99 374.91L272.76 376.68M272.76 376.68L275.43 377.57M275.43 377.57L277.21 377.57M277.21 377.57L279.87 376.68M279.87 376.68L281.65 374.91M275.43 358.91L273.65 359.8M273.65 359.8L271.88 361.58M271.88 361.58L270.99 363.36M270.99 363.36L270.1 366.02M270.1 366.02L270.1 370.46M270.1 370.46L270.99 373.13M270.99 373.13L271.88 374.91M271.88 374.91L273.65 376.68M273.65 376.68L275.43 377.57M281.65 370.46L281.65 377.57M282.54 370.46L282.54 377.57M278.98 370.46L285.2 370.46M292.31 377.57L292.31 358.91M293.2 358.91L293.2 377.57M289.64 358.91L300.3 358.91M300.3 358.91L302.97 359.8M302.97 359.8L303.86 360.69M303.86 360.69L304.75 362.47M304.75 362.47L304.75 364.24M304.75 364.24L303.86 366.02M303.86 366.02L302.97 366.91M302.97 366.91L300.3 367.8M300.3 367.8L293.2 367.8M300.3 358.91L302.08 359.8M302.08 359.8L302.97 360.69M302.97 360.69L303.86 362.47M303.86 362.47L303.86 364.24M303.86 364.24L302.97 366.02M302.97 366.02L302.08 366.91M302.08 366.91L300.3 367.8M289.64 377.57L295.86 377.57M297.64 367.8L299.42 368.69M299.42 368.69L300.3 369.57M300.3 369.57L302.97 375.79M302.97 375.79L303.86 376.68M303.86 376.68L304.75 376.68M304.75 376.68L305.63 375.79M299.42 368.69L300.3 370.46M300.3 370.46L302.08 376.68M302.08 376.68L302.97 377.57M302.97 377.57L304.75 377.57M304.75 377.57L305.63 375.79M305.63 375.79L305.63 374.91M311.85 377.57L311.85 358.91M312.74 358.91L312.74 377.57M318.07 364.24L318.07 371.35M309.19 358.91L323.4 358.91M323.4 358.91L323.4 364.24M323.4 364.24L322.51 358.91M312.74 367.8L318.07 367.8M309.19 377.57L323.4 377.57M323.4 377.57L323.4 372.24M323.4 372.24L322.51 377.57M329.62 358.91L335.84 368.69M335.84 368.69L335.84 377.57M330.51 358.91L336.73 368.69M336.73 368.69L336.73 377.57M342.95 358.91L336.73 368.69M327.84 358.91L333.17 358.91M339.39 358.91L344.72 358.91M333.17 377.57L339.39 377.57"/>
<path d="M306.88 72.45L249.87 72.45"/>
<path d="M249.87 72.45L242.89 74.32M242.89 74.32L237.77 79.43M237.77 79.43L235.9 86.42"/>
<path d="M235.9 86.42L235.9 136.78"/>
<path d="M239.08 136.78L203.98 136.78"/>
<path d="M203.98 136.78L201.02 138.01M201.02 138.01L199.79 140.97"/>
<path d="M199.79 140.97L199.79 336.07"/>
<path d="M199.79 336.07L201.02 339.03M201.02 339.03L203.98 340.26"/>
<path d="M199.79 312.44L201.02 315.4M201.02 315.4L203.98 316.63"/>
<path d="M203.98 340.26L307.07 340.26"/>
<path d="M307.07 85.55L254 85.55"/>
<path d="M254 85.55L251.03 86.78M251.03 86.78L249.81 89.74"/>
<path d="M249.81 89.74L249.81 175.14"/>
<path d="M307.07 95.52L264.4 95.52"/>
<path d="M264.4 95.52L261.44 96.75M261.44 96.75L260.21 99.71"/>
<path d="M260.21 99.71L260.21 175.14"/>
<path d="M249.81 172.72L260.21 172.72"/>
<path d="M264.4 100.4L277.27 100.4"/>
<path d="M264.4 100.4L261.44 101.63M261.44 101.63L260.21 104.59"/>
<path d="M281.46 104.59L281.46 113.6"/>
<path d="M281.46 104.59L280.24 101.63M280.24 101.63L277.27 100.4"/>
<path d="M281.46 113.6L307.07 113.6"/>
<path d="M281.46 107.73L307.07 107.73"/>
<path d="M307.07 181.85L199.79 181.85"/>
<path d="M307.07 178.14L199.79 178.14"/>
<path d="M284.19 113.6L284.19 178.14"/>
<path d="M284.19 173.89L302.4 173.89"/>
<path d="M302.4 173.89L302.4 178.14"/>
<path d="M301.4 173.89L301.4 155.16"/>
<path d="M301.4 155.16L300.17 152.2M300.17 152.2L297.21 150.97"/>
<path d="M297.21 150.97L289.13 150.97"/>
<path d="M289.13 150.97L286.16 152.2M286.16 152.2L284.93 155.16"/>
<path d="M284.93 155.16L284.93 173.89"/>
<path d="M301.4 172.51L307.07 172.51"/>
<path d="M284.19 120.35L307.07 120.35"/>
<path d="M284.19 125.74L307.07 125.74"/>
<path d="M292.55 125.74L292.55 139.21"/>
<path d="M292.55 139.21L307.07 139.21"/>
<path d="M292.55 134.79L307.07 134.79"/>
<path d="M199.79 290.56L307.07 290.56"/>
<path d="M201.24 290.56L201.24 294.76"/>
<path d="M201.24 294.76L307.07 294.76"/>
<path d="M201.14 181.85L201.14 177.86"/>
<path d="M205.34 173.87L232.32 173.87"/>
<path d="M205.34 173.87L202.37 175.09M202.37 175.09L201.14 178.06"/>
<path d="M232.32 173.87L236.75 178.14"/>
<path d="M219.95 216.65L219.95 210.5M219.95 210.5L247.47 210.5M247.47 210.5L247.47 233.91M247.47 233.91L219.95 233.91M219.95 233.91L219.95 220.38"/>
<path d="M226.1 216.65L241.32 216.65M241.32 216.65L241.32 227.77M241.32 227.77L226.1 227.77M226.1 227.77L226.1 216.65"/>
<path d="M219.95 210.5L226.1 216.65"/>
<path d="M219.95 233.91L226.1 227.77"/>
<path d="M247.47 210.5L241.32 216.65"/>
<path d="M247.47 233.91L241.32 227.77"/>
<path d="M248.93 210.5L276.45 210.5M276.45 210.5L276.45 233.91M276.45 233.91L248.93 233.91M248.93 233.91L248.93 210.5"/>
<path d="M255.08 216.65L270.3 216.65M270.3 216.65L270.3 227.77M270.3 227.77L255.08 227.77M255.08 227.77L255.08 216.65"/>
<path d="M248.93 210.5L255.08 216.65"/>
<path d="M248.93 233.91L255.08 227.77"/>
<path d="M276.45 210.5L270.3 216.65"/>
<path d="M276.45 233.91L270.3 227.77"/>
<path d="M277.91 210.5L305.43 210.5M305.43 210.5L305.43 233.91M305.43 233.91L277.91 233.91M277.91 233.91L277.91 210.5"/>
<path d="M284.06 216.65L299.28 216.65M299.28 216.65L299.28 227.77M299.28 227.77L284.06 227.77M284.06 227.77L284.06 216.65"/>
<path d="M277.91 210.5L284.06 216.65"/>
<path d="M277.91 233.91L284.06 227.77"/>
<path d="M305.43 210.5L299.28 216.65"/>
<path d="M305.43 233.91L299.28 227.77"/>
<path d="M241.32 221.2L255.08 221.2"/>
<path d="M270.3 221.2L284.06 221.2"/>
<path d="M299.28 221.2L307.07 221.2"/>
<path d="M219.95 253.74L219.95 239.55M219.95 239.55L247.47 239.55M247.47 239.55L247.47 262.96M247.47 262.96L219.95 262.96M219.95 262.96L219.95 256.81"/>
<path d="M226.1 245.69L241.32 245.69M241.32 245.69L241.32 256.81M241.32 256.81L226.1 256.81M226.1 256.81L226.1 245.69"/>
<path d="M219.95 239.55L226.1 245.69"/>
<path d="M219.95 262.96L226.1 256.81"/>
<path d="M247.47 239.55L241.32 245.69"/>
<path d="M247.47 262.96L241.32 256.81"/>
<path d="M248.93 239.55L276.45 239.55M276.45 239.55L276.45 262.96M276.45 262.96L248.93 262.96M248.93 262.96L248.93 239.55"/>
<path d="M255.08 245.69L270.3 245.69M270.3 245.69L270.3 256.81M270.3 256.81L255.08 256.81M255.08 256.81L255.08 245.69"/>
<path d="M248.93 239.55L255.08 245.69"/>
<path d="M248.93 262.96L255.08 256.81"/>
<path d="M276.45 239.55L270.3 245.69"/>
<path d="M276.45 262.96L270.3 256.81"/>
<path d="M277.91 239.55L305.43 239.55M305.43 239.55L305.43 262.96M305.43 262.96L277.91 262.96M277.91 262.96L277.91 239.55"/>
<path d="M284.06 245.69L299.28 245.69M299.28 245.69L299.28 256.81M299.28 256.81L284.06 256.81M284.06 256.81L284.06 245.69"/>
<path d="M277.91 239.55L284.06 245.69"/>
<path d="M277.91 262.96L284.06 256.81"/>
<path d="M305.43 239.55L299.28 245.69"/>
<path d="M305.43 262.96L299.28 256.81"/>
<path d="M241.32 250.25L255.08 250.25"/>
<path d="M270.3 250.25L284.06 250.25"/>
<path d="M299.28 250.25L307.07 250.25"/>
<path d="M223.43 199.97L234.52 199.97M234.52 199.97L234.52 210.5M234.52 210.5L223.43 210.5M223.43 210.5L223.43 199.97"/>
<path d="M225.23 199.97L225.23 210.5"/>
<path d="M223.43 205.24L225.23 205.24"/>
<path d="M225.23 203.86L234.52 203.86"/>
<path d="M252.67 199.97L263.77 199.97M263.77 199.97L263.77 210.5M263.77 210.5L252.67 210.5M252.67 210.5L252.67 199.97"/>
<path d="M254.47 199.97L254.47 210.5"/>
<path d="M252.67 205.24L254.47 205.24"/>
<path d="M254.47 203.86L263.77 203.86"/>
<path d="M281.92 199.97L293.01 199.97M293.01 199.97L293.01 210.5M293.01 210.5L281.92 210.5M281.92 210.5L281.92 199.97"/>
<path d="M283.72 199.97L283.72 210.5"/>
<path d="M281.92 205.24L283.72 205.24"/>
<path d="M283.72 203.86L293.01 203.86"/>
<path d="M226.1 216.65L207.29 216.65"/>
<path d="M207.29 216.65L207.29 256.81"/>
<path d="M207.29 256.81L226.1 256.81"/>
<path d="M214.78 216.65L214.78 256.81"/>
<path d="M207.29 233.96L214.78 233.96"/>
<path d="M213.11 233.96L213.11 256.81"/>
<path d="M213.11 239.54L214.78 239.54"/>
<path d="M213.11 255.16L214.78 255.16"/>
<path d="M214.78 216.65L217.35 220.38"/>
<path d="M217.35 220.38L219.95 220.38"/>
<path d="M219.95 220.38L222.56 216.65"/>
<path d="M217.35 220.38L217.35 253.74"/>
<path d="M217.35 253.74L219.95 253.74"/>
<path d="M217.35 253.74L214.78 256.81"/>
<path d="M219.95 253.74L226.1 256.81"/>
<path d="M244.8 273.49L233.71 273.49M233.71 273.49L233.71 262.96M233.71 262.96L244.8 262.96M244.8 262.96L244.8 273.49"/>
<path d="M243 273.49L243 262.96"/>
<path d="M244.8 268.22L243 268.22"/>
<path d="M243 269.6L233.71 269.6"/>
<path d="M273.78 273.49L262.69 273.49M262.69 273.49L262.69 262.96M262.69 262.96L273.78 262.96M273.78 262.96L273.78 273.49"/>
<path d="M271.98 273.49L271.98 262.96"/>
<path d="M273.78 268.22L271.98 268.22"/>
<path d="M271.98 269.6L262.69 269.6"/>
<path d="M302.76 273.49L291.67 273.49M291.67 273.49L291.67 262.96M291.67 262.96L302.76 262.96M302.76 262.96L302.76 273.49"/>
<path d="M300.96 273.49L300.96 262.96"/>
<path d="M302.76 268.22L300.96 268.22"/>
<path d="M300.96 269.6L291.67 269.6"/>
<path d="M307.07 299.66L218.82 299.66"/>
<path d="M203.98 316.63L214.63 316.63"/>
<path d="M218.82 312.44L218.82 299.66"/>
<path d="M214.63 316.63L217.59 315.4M217.59 315.4L218.82 312.44"/>
<path d="M218.82 299.66L216 294.76"/>
<path d="M239.08 103.33L239.08 136.78"/>
<path d="M235.9 127.06L239.08 127.06"/>
<path d="M249.81 110.2L243.27 110.2"/>
<path d="M243.27 110.2L240.31 111.42M240.31 111.42L239.08 114.39"/>
<path d="M235.9 108.95L235.93 108.76M235.93 108.76L235.97 108.56M235.97 108.56L236.01 108.36M236.01 108.36L236.06 108.17M236.06 108.17L236.18 107.79M236.18 107.79L236.33 107.41M236.33 107.41L236.49 107.04M236.49 107.04L236.68 106.68M236.68 106.68L236.88 106.33M236.88 106.33L237.09 105.98M237.09 105.98L237.32 105.63M237.32 105.63L237.56 105.29M237.56 105.29L237.81 104.95M237.81 104.95L238.06 104.62M238.06 104.62L238.57 103.97M238.57 103.97L239.08 103.33"/>
<path d="M239.08 136.78L239.09 137.39M239.09 137.39L239.11 137.99M239.11 137.99L239.14 138.6M239.14 138.6L239.19 139.21M239.19 139.21L239.25 139.82M239.25 139.82L239.32 140.42M239.32 140.42L239.41 141.03M239.41 141.03L239.5 141.64M239.5 141.64L239.61 142.25M239.61 142.25L239.74 142.85M239.74 142.85L239.87 143.46M239.87 143.46L240.02 144.06M240.02 144.06L240.18 144.66M240.18 144.66L240.35 145.26M240.35 145.26L240.54 145.85M240.54 145.85L240.73 146.44M240.73 146.44L240.94 147.02M240.94 147.02L241.16 147.6M241.16 147.6L241.4 148.18M241.4 148.18L241.64 148.74M241.64 148.74L241.9 149.31M241.9 149.31L242.16 149.86M242.16 149.86L242.44 150.41M242.44 150.41L242.73 150.96M242.73 150.96L243.03 151.49M243.03 151.49L243.34 152.02M243.34 152.02L243.67 152.54M243.67 152.54L244 153.05M244 153.05L244.35 153.55M244.35 153.55L244.7 154.04M244.7 154.04L245.07 154.52M245.07 154.52L245.45 154.99"/>
<path d="M277.27 100.4L281.26 100.4"/>
<path d="M281.26 100.4L281.4 100.4M281.4 100.4L281.53 100.42M281.53 100.42L281.67 100.44M281.67 100.44L281.81 100.47M281.81 100.47L281.95 100.51M281.95 100.51L282.09 100.56M282.09 100.56L282.23 100.61M282.23 100.61L282.37 100.67M282.37 100.67L282.64 100.81M282.64 100.81L282.9 100.98M282.9 100.98L283.15 101.17M283.15 101.17L283.38 101.38M283.38 101.38L283.6 101.6M283.6 101.6L283.8 101.84M283.8 101.84L283.97 102.1M283.97 102.1L284.05 102.22M284.05 102.22L284.12 102.36M284.12 102.36L284.19 102.49M284.19 102.49L284.24 102.63M284.24 102.63L284.29 102.76M284.29 102.76L284.33 102.9M284.33 102.9L284.36 103.04M284.36 103.04L284.38 103.17M284.38 103.17L284.39 103.31M284.39 103.31L284.39 103.45"/>
<path d="M306.88 72.45L363.88 72.45"/>
<path d="M377.85 86.42L375.98 79.43M375.98 79.43L370.87 74.32M370.87 74.32L363.88 72.45"/>
<path d="M377.85 86.42L377.85 136.78"/>
<path d="M374.67 136.78L409.78 136.78"/>
<path d="M413.97 140.97L412.74 138.01M412.74 138.01L409.78 136.78"/>
<path d="M413.97 140.97L413.97 336.07"/>
<path d="M409.78 340.26L412.74 339.03M412.74 339.03L413.97 336.07"/>
<path d="M409.78 316.63L412.74 315.4M412.74 315.4L413.97 312.44"/>
<path d="M409.78 340.26L306.69 340.26"/>
<path d="M306.69 85.55L359.76 85.55"/>
<path d="M363.95 89.74L362.72 86.78M362.72 86.78L359.76 85.55"/>
<path d="M363.95 89.74L363.95 175.14"/>
<path d="M306.69 95.52L349.36 95.52"/>
<path d="M353.55 99.71L352.32 96.75M352.32 96.75L349.36 95.52"/>
<path d="M353.55 99.71L353.55 175.14"/>
<path d="M363.95 172.72L353.55 172.72"/>
<path d="M349.36 100.4L336.48 100.4"/>
<path d="M353.55 104.59L352.32 101.63M352.32 101.63L349.36 100.4"/>
<path d="M332.29 104.59L332.29 113.6"/>
<path d="M336.48 100.4L333.52 101.63M333.52 101.63L332.29 104.59"/>
<path d="M332.29 113.6L306.69 113.6"/>
<path d="M332.29 107.73L306.69 107.73"/>
<path d="M306.69 181.85L413.97 181.85"/>
<path d="M306.69 178.14L413.97 178.14"/>
<path d="M329.56 113.6L329.56 178.14"/>
<path d="M329.56 173.89L311.35 173.89"/>
<path d="M311.35 173.89L311.35 178.14"/>
<path d="M312.36 173.89L312.36 155.16"/>
<path d="M316.55 150.97L313.59 152.2M313.59 152.2L312.36 155.16"/>
<path d="M316.55 150.97L324.63 150.97"/>
<path d="M328.82 155.16L327.59 152.2M327.59 152.2L324.63 150.97"/>
<path d="M328.82 155.16L328.82 173.89"/>
<path d="M312.36 172.51L306.69 172.51"/>
<path d="M329.56 120.35L306.69 120.35"/>
<path d="M329.56 125.74L306.69 125.74"/>
<path d="M321.21 125.74L321.21 139.21"/>
<path d="M321.21 139.21L306.69 139.21"/>
<path d="M321.21 134.79L306.69 134.79"/>
<path d="M413.97 290.56L306.69 290.56"/>
<path d="M412.51 290.56L412.51 294.76"/>
<path d="M412.51 294.76L306.69 294.76"/>
<path d="M412.61 181.85L412.61 177.86"/>
<path d="M408.42 173.87L381.44 173.87"/>
<path d="M412.61 178.06L411.39 175.09M411.39 175.09L408.42 173.87"/>
<path d="M381.44 173.87L377.01 178.14"/>
<path d="M393.81 216.65L393.81 210.5M393.81 210.5L366.29 210.5M366.29 210.5L366.29 233.91M366.29 233.91L393.81 233.91M393.81 233.91L393.81 220.38"/>
<path d="M387.66 216.65L372.43 216.65M372.43 216.65L372.43 227.77M372.43 227.77L387.66 227.77M387.66 227.77L387.66 216.65"/>
<path d="M393.81 210.5L387.66 216.65"/>
<path d="M393.81 233.91L387.66 227.77"/>
<path d="M366.29 210.5L372.43 216.65"/>
<path d="M366.29 233.91L372.43 227.77"/>
<path d="M364.83 210.5L337.31 210.5M337.31 210.5L337.31 233.91M337.31 233.91L364.83 233.91M364.83 233.91L364.83 210.5"/>
<path d="M358.68 216.65L343.45 216.65M343.45 216.65L343.45 227.77M343.45 227.77L358.68 227.77M358.68 227.77L358.68 216.65"/>
<path d="M364.83 210.5L358.68 216.65"/>
<path d="M364.83 233.91L358.68 227.77"/>
<path d="M337.31 210.5L343.45 216.65"/>
<path d="M337.31 233.91L343.45 227.77"/>
<path d="M335.85 210.5L308.33 210.5M308.33 210.5L308.33 233.91M308.33 233.91L335.85 233.91M335.85 233.91L335.85 210.5"/>
<path d="M329.7 216.65L314.47 216.65M314.47 216.65L314.47 227.77M314.47 227.77L329.7 227.77M329.7 227.77L329.7 216.65"/>
<path d="M335.85 210.5L329.7 216.65"/>
<path d="M335.85 233.91L329.7 227.77"/>
<path d="M308.33 210.5L314.47 216.65"/>
<path d="M308.33 233.91L314.47 227.77"/>
<path d="M372.43 221.2L358.68 221.2"/>
<path d="M343.45 221.2L329.7 221.2"/>
<path d="M314.47 221.2L306.69 221.2"/>
<path d="M393.81 253.74L393.81 239.55M393.81 239.55L366.29 239.55M366.29 239.55L366.29 262.96M366.29 262.96L393.81 262.96M393.81 262.96L393.81 256.81"/>
<path d="M387.66 245.69L372.43 245.69M372.43 245.69L372.43 256.81M372.43 256.81L387.66 256.81M387.66 256.81L387.66 245.69"/>
<path d="M393.81 239.55L387.66 245.69"/>
<path d="M393.81 262.96L387.66 256.81"/>
<path d="M366.29 239.55L372.43 245.69"/>
<path d="M366.29 262.96L372.43 256.81"/>
<path d="M364.83 239.55L337.31 239.55M337.31 239.55L337.31 262.96M337.31 262.96L364.83 262.96M364.83 262.96L364.83 239.55"/>
<path d="M358.68 245.69L343.45 245.69M343.45 245.69L343.45 256.81M343.45 256.81L358.68 256.81M358.68 256.81L358.68 245.69"/>
<path d="M364.83 239.55L358.68 245.69"/>
<path d="M364.83 262.96L358.68 256.81"/>
<path d="M337.31 239.55L343.45 245.69"/>
<path d="M337.31 262.96L343.45 256.81"/>
<path d="M335.85 239.55L308.33 239.55M308.33 239.55L308.33 262.96M308.33 262.96L335.85 262.96M335.85 262.96L335.85 239.55"/>
<path d="M329.7 245.69L314.47 245.69M314.47 245.69L314.47 256.81M314.47 256.81L329.7 256.81M329.7 256.81L329.7 245.69"/>
<path d="M335.85 239.55L329.7 245.69"/>
<path d="M335.85 262.96L329.7 256.81"/>
<path d="M308.33 239.55L314.47 245.69"/>
<path d="M308.33 262.96L314.47 256.81"/>
<path d="M372.43 250.25L358.68 250.25"/>
<path d="M343.45 250.25L329.7 250.25"/>
<path d="M314.47 250.25L306.69 250.25"/>
<path d="M390.33 199.97L379.23 199.97M379.23 199.97L379.23 210.5M379.23 210.5L390.33 210.5M390.33 210.5L390.33 199.97"/>
<path d="M388.53 199.97L388.53 210.5"/>
<path d="M390.33 205.24L388.53 205.24"/>
<path d="M388.53 203.86L379.23 203.86"/>
<path d="M361.08 199.97L349.99 199.97M349.99 199.97L349.99 210.5M349.99 210.5L361.08 210.5M361.08 210.5L361.08 199.97"/>
<path d="M359.28 199.97L359.28 210.5"/>
<path d="M361.08 205.24L359.28 205.24"/>
<path d="M359.28 203.86L349.99 203.86"/>
<path d="M331.84 199.97L320.75 199.97M320.75 199.97L320.75 210.5M320.75 210.5L331.84 210.5M331.84 210.5L331.84 199.97"/>
<path d="M330.04 199.97L330.04 210.5"/>
<path d="M331.84 205.24L330.04 205.24"/>
<path d="M330.04 203.86L320.75 203.86"/>
<path d="M387.66 216.65L406.47 216.65"/>
<path d="M406.47 216.65L406.47 256.81"/>
<path d="M406.47 256.81L387.66 256.81"/>
<path d="M398.98 216.65L398.98 256.81"/>
<path d="M406.47 233.96L398.98 233.96"/>
<path d="M400.65 233.96L400.65 256.81"/>
<path d="M400.65 239.54L398.98 239.54"/>
<path d="M400.65 255.16L398.98 255.16"/>
<path d="M398.98 216.65L396.41 220.38"/>
<path d="M396.41 220.38L393.81 220.38"/>
<path d="M393.81 220.38L391.2 216.65"/>
<path d="M396.41 220.38L396.41 253.74"/>
<path d="M396.41 253.74L393.81 253.74"/>
<path d="M396.41 253.74L398.98 256.81"/>
<path d="M393.81 253.74L387.66 256.81"/>
<path d="M368.96 273.49L380.05 273.49M380.05 273.49L380.05 262.96M380.05 262.96L368.96 262.96M368.96 262.96L368.96 273.49"/>
<path d="M370.76 273.49L370.76 262.96"/>
<path d="M368.96 268.22L370.76 268.22"/>
<path d="M370.76 269.6L380.05 269.6"/>
<path d="M339.98 273.49L351.07 273.49M351.07 273.49L351.07 262.96M351.07 262.96L339.98 262.96M339.98 262.96L339.98 273.49"/>
<path d="M341.78 273.49L341.78 262.96"/>
<path d="M339.98 268.22L341.78 268.22"/>
<path d="M341.78 269.6L351.07 269.6"/>
<path d="M311 273.49L322.09 273.49M322.09 273.49L322.09 262.96M322.09 262.96L311 262.96M311 262.96L311 273.49"/>
<path d="M312.8 273.49L312.8 262.96"/>
<path d="M311 268.22L312.8 268.22"/>
<path d="M312.8 269.6L322.09 269.6"/>
<path d="M306.69 299.66L394.94 299.66"/>
<path d="M409.78 316.63L399.13 316.63"/>
<path d="M394.94 312.44L394.94 299.66"/>
<path d="M394.94 312.44L396.17 315.4M396.17 315.4L399.13 316.63"/>
<path d="M394.94 299.66L397.76 294.76"/>
<path d="M374.67 103.33L374.67 136.78"/>
<path d="M377.85 127.06L374.67 127.06"/>
<path d="M363.95 110.2L370.48 110.2"/>
<path d="M374.67 114.39L373.45 111.42M373.45 111.42L370.48 110.2"/>
<path d="M377.85 108.95L377.82 108.76M377.82 108.76L377.79 108.56M377.79 108.56L377.74 108.36M377.74 108.36L377.69 108.17M377.69 108.17L377.57 107.79M377.57 107.79L377.43 107.41M377.43 107.41L377.26 107.04M377.26 107.04L377.08 106.68M377.08 106.68L376.88 106.33M376.88 106.33L376.66 105.98M376.66 105.98L376.43 105.63M376.43 105.63L376.19 105.29M376.19 105.29L375.95 104.95M375.95 104.95L375.7 104.62M375.7 104.62L375.18 103.97M375.18 103.97L374.67 103.33"/>
<path d="M374.67 136.78L374.67 137.39M374.67 137.39L374.65 137.99M374.65 137.99L374.61 138.6M374.61 138.6L374.57 139.21M374.57 139.21L374.51 139.82M374.51 139.82L374.44 140.42M374.44 140.42L374.35 141.03M374.35 141.03L374.25 141.64M374.25 141.64L374.14 142.25M374.14 142.25L374.02 142.85M374.02 142.85L373.88 143.46M373.88 143.46L373.74 144.06M373.74 144.06L373.58 144.66M373.58 144.66L373.4 145.26M373.4 145.26L373.22 145.85M373.22 145.85L373.02 146.44M373.02 146.44L372.81 147.02M372.81 147.02L372.59 147.6M372.59 147.6L372.36 148.18M372.36 148.18L372.12 148.74M372.12 148.74L371.86 149.31M371.86 149.31L371.59 149.86M371.59 149.86L371.32 150.41M371.32 150.41L371.03 150.96M371.03 150.96L370.72 151.49M370.72 151.49L370.41 152.02M370.41 152.02L370.09 152.54M370.09 152.54L369.75 153.05M369.75 153.05L369.41 153.55M369.41 153.55L369.05 154.04M369.05 154.04L368.69 154.52M368.69 154.52L368.31 154.99"/>
<path d="M336.48 100.4L332.5 100.4"/>
<path d="M332.5 100.4L332.36 100.4M332.36 100.4L332.22 100.42M332.22 100.42L332.08 100.44M332.08 100.44L331.94 100.47M331.94 100.47L331.8 100.51M331.8 100.51L331.67 100.56M331.67 100.56L331.53 100.61M331.53 100.61L331.39 100.67M331.39 100.67L331.12 100.81M331.12 100.81L330.86 100.98M330.86 100.98L330.61 101.17M330.61 101.17L330.37 101.38M330.37 101.38L330.15 101.6M330.15 101.6L329.96 101.84M329.96 101.84L329.78 102.1M329.78 102.1L329.71 102.22M329.71 102.22L329.63 102.36M329.63 102.36L329.57 102.49M329.57 102.49L329.52 102.63M329.52 102.63L329.47 102.76M329.47 102.76L329.43 102.9M329.43 102.9L329.4 103.04M329.4 103.04L329.38 103.17M329.38 103.17L329.36 103.31M329.36 103.31L329.36 103.45"/>
<path d="M326.55 316.63L329.51 315.4M329.51 315.4L330.74 312.44"/>
<path d="M326.55 316.63L315.9 316.63"/>
<path d="M311.71 312.44L311.71 299.66"/>
<path d="M311.71 312.44L312.94 315.4M312.94 315.4L315.9 316.63"/>
<path d="M311.71 299.66L314.53 294.76"/>
<path d="M330.74 312.44L330.74 299.66"/>
<path d="M330.74 299.66L327.92 294.76"/>
<path d="M298.23 316.63L301.19 315.4M301.19 315.4L302.42 312.44"/>
<path d="M298.23 316.63L287.58 316.63"/>
<path d="M283.39 312.44L283.39 299.66"/>
<path d="M283.39 312.44L284.62 315.4M284.62 315.4L287.58 316.63"/>
<path d="M283.39 299.66L286.21 294.76"/>
<path d="M302.42 312.44L302.42 299.66"/>
<path d="M302.42 299.66L299.6 294.76"/>
<path d="M430.2 218.62L431.62 217.9M431.62 217.9L433.75 215.77M433.75 215.77L433.75 230.7"/>
<path d="M182.77 217.9L182.06 216.48M182.06 216.48L179.93 215.77M179.93 215.77L178.51 215.77M178.51 215.77L176.37 216.48M176.37 216.48L174.95 218.62M174.95 218.62L174.24 222.17M174.24 222.17L174.24 225.72M174.24 225.72L174.95 228.57M174.95 228.57L176.37 229.99M176.37 229.99L178.51 230.7M178.51 230.7L179.22 230.7M179.22 230.7L181.35 229.99M181.35 229.99L182.77 228.57M182.77 228.57L183.48 226.43M183.48 226.43L183.48 225.72M183.48 225.72L182.77 223.59M182.77 223.59L181.35 222.17M181.35 222.17L179.22 221.46M179.22 221.46L178.51 221.46M178.51 221.46L176.37 222.17M176.37 222.17L174.95 223.59M174.95 223.59L174.24 225.72"/>
<path d="M427 245.13L436.95 245.13M436.95 245.13L429.85 260.05"/>
<path d="M163.05 247.97L164.47 247.26M164.47 247.26L166.6 245.13M166.6 245.13L166.6 260.05M175.13 248.68L175.13 247.97M175.13 247.97L175.84 246.55M175.84 246.55L176.55 245.84M176.55 245.84L177.97 245.13M177.97 245.13L180.81 245.13M180.81 245.13L182.23 245.84M182.23 245.84L182.95 246.55M182.95 246.55L183.66 247.97M183.66 247.97L183.66 249.39M183.66 249.39L182.95 250.81M182.95 250.81L181.52 252.94M181.52 252.94L174.42 260.05M174.42 260.05L184.37 260.05"/>
</g>
</g>
</svg>
