<?xml version="1.0" standalone="no"?><svg xmlns="http://www.w3.org/2000/svg" width="600.000" height="450.000" viewBox="0.0 0.0 600.000 450.000" version="1.1">
<title>Acme Converter - Post-processed with EDS-Designer: 14.44 (info@symca.com)</title>
<desc>Acme Converter - Post-processed with EDS-Designer: 14.44 (info@symca.com)</desc>
<g id="EDS_STYLE_GROUP" fill="none" stroke="black" stroke-width="1.0">
<g id="0" display="visible">
<path d="M272.1 371.25L272.1 355.1M272.87 355.1L272.87 371.25M269.79 355.1L279.02 355.1M279.02 355.1L281.33 355.87M281.33 355.87L282.09 356.64M282.09 356.64L282.86 358.18M282.86 358.18L282.86 359.72M282.86 359.72L282.09 361.25M282.09 361.25L281.33 362.02M281.33 362.02L279.02 362.79M279.02 355.1L280.56 355.87M280.56 355.87L281.33 356.64M281.33 356.64L282.09 358.18M282.09 358.18L282.09 359.72M282.09 359.72L281.33 361.25M281.33 361.25L280.56 362.02M280.56 362.02L279.02 362.79M272.87 362.79L279.02 362.79M279.02 362.79L281.33 363.56M281.33 363.56L282.09 364.33M282.09 364.33L282.86 365.87M282.86 365.87L282.86 368.17M282.86 368.17L282.09 369.71M282.09 369.71L281.33 370.48M281.33 370.48L279.02 371.25M279.02 371.25L269.79 371.25M279.02 362.79L280.56 363.56M280.56 363.56L281.33 364.33M281.33 364.33L282.09 365.87M282.09 365.87L282.09 368.17M282.09 368.17L281.33 369.71M281.33 369.71L280.56 370.48M280.56 370.48L279.02 371.25M289.01 371.25L289.01 355.1M289.78 355.1L289.78 371.25M286.71 355.1L292.09 355.1M286.71 371.25L298.24 371.25M298.24 371.25L298.24 366.64M298.24 366.64L297.47 371.25M307.47 355.1L302.09 371.25M307.47 355.1L312.85 371.25M307.47 357.41L312.08 371.25M303.62 366.64L310.54 366.64M300.55 371.25L305.16 371.25M309.77 371.25L314.39 371.25M327.46 357.41L328.23 359.72M328.23 359.72L328.23 355.1M328.23 355.1L327.46 357.41M327.46 357.41L325.92 355.87M325.92 355.87L323.61 355.1M323.61 355.1L322.08 355.1M322.08 355.1L319.77 355.87M319.77 355.87L318.23 357.41M318.23 357.41L317.46 358.95M317.46 358.95L316.69 361.25M316.69 361.25L316.69 365.1M316.69 365.1L317.46 367.41M317.46 367.41L318.23 368.94M318.23 368.94L319.77 370.48M319.77 370.48L322.08 371.25M322.08 371.25L323.61 371.25M323.61 371.25L325.92 370.48M325.92 370.48L327.46 368.94M327.46 368.94L328.23 367.41M322.08 355.1L320.54 355.87M320.54 355.87L319 357.41M319 357.41L318.23 358.95M318.23 358.95L317.46 361.25M317.46 361.25L317.46 365.1M317.46 365.1L318.23 367.41M318.23 367.41L319 368.94M319 368.94L320.54 370.48M320.54 370.48L322.08 371.25M335.15 371.25L335.15 355.1M335.91 355.1L335.91 371.25M345.91 355.1L335.91 365.1M339.76 362.02L345.91 371.25M338.99 362.02L345.14 371.25M332.84 355.1L338.22 355.1M342.83 355.1L347.45 355.1M332.84 371.25L338.22 371.25M342.83 371.25L347.45 371.25"/>
<path d="M419.88 176.88L421.11 176.27M421.11 176.27L422.95 174.42M422.95 174.42L422.95 187.34"/>
<path d="M184.17 174.84L178.02 183.45M178.02 183.45L187.24 183.45M184.17 174.84L184.17 187.75"/>
<path d="M426.15 214.03L420 214.03M420 214.03L419.39 219.57M419.39 219.57L420 218.95M420 218.95L421.85 218.34M421.85 218.34L423.69 218.34M423.69 218.34L425.54 218.95M425.54 218.95L426.77 220.18M426.77 220.18L427.38 222.03M427.38 222.03L427.38 223.26M427.38 223.26L426.77 225.1M426.77 225.1L425.54 226.33M425.54 226.33L423.69 226.95M423.69 226.95L421.85 226.95M421.85 226.95L420 226.33M420 226.33L419.39 225.72M419.39 225.72L418.77 224.49"/>
<path d="M180.66 213.71L178.81 214.32M178.81 214.32L178.2 215.55M178.2 215.55L178.2 216.78M178.2 216.78L178.81 218.01M178.81 218.01L180.04 218.63M180.04 218.63L182.5 219.24M182.5 219.24L184.35 219.86M184.35 219.86L185.58 221.09M185.58 221.09L186.19 222.32M186.19 222.32L186.19 224.16M186.19 224.16L185.58 225.39M185.58 225.39L184.96 226.01M184.96 226.01L183.12 226.62M183.12 226.62L180.66 226.62M180.66 226.62L178.81 226.01M178.81 226.01L178.2 225.39M178.2 225.39L177.58 224.16M177.58 224.16L177.58 222.32M177.58 222.32L178.2 221.09M178.2 221.09L179.43 219.86M179.43 219.86L181.27 219.24M181.27 219.24L183.73 218.63M183.73 218.63L184.96 218.01M184.96 218.01L185.58 216.78M185.58 216.78L185.58 215.55M185.58 215.55L184.96 214.32M184.96 214.32L183.12 213.71M183.12 213.71L180.66 213.71"/>
<path d="M172.62 280.61L173.85 280M173.85 280L175.69 278.15M175.69 278.15L175.69 291.07M186.15 278.15L184.31 278.77M184.31 278.77L183.08 280.61M183.08 280.61L182.46 283.69M182.46 283.69L182.46 285.53M182.46 285.53L183.08 288.61M183.08 288.61L184.31 290.45M184.31 290.45L186.15 291.07M186.15 291.07L187.38 291.07M187.38 291.07L189.23 290.45M189.23 290.45L190.46 288.61M190.46 288.61L191.07 285.53M191.07 285.53L191.07 283.69M191.07 283.69L190.46 280.61M190.46 280.61L189.23 278.77M189.23 278.77L187.38 278.15M187.38 278.15L186.15 278.15"/>
<path d="M426.87 283.02L426.25 284.87M426.25 284.87L425.02 286.1M425.02 286.1L423.18 286.71M423.18 286.71L422.56 286.71M422.56 286.71L420.71 286.1M420.71 286.1L419.48 284.87M419.48 284.87L418.87 283.02M418.87 283.02L418.87 282.41M418.87 282.41L419.48 280.56M419.48 280.56L420.71 279.33M420.71 279.33L422.56 278.72M422.56 278.72L423.18 278.72M423.18 278.72L425.02 279.33M425.02 279.33L426.25 280.56M426.25 280.56L426.87 283.02M426.87 283.02L426.87 286.1M426.87 286.1L426.25 289.17M426.25 289.17L425.02 291.02M425.02 291.02L423.18 291.63M423.18 291.63L421.94 291.63M421.94 291.63L420.1 291.02M420.1 291.02L419.48 289.79"/>
<path d="M240.15 131.8L233.55 133.11M233.55 133.11L227.95 136.85M227.95 136.85L224.21 142.45M224.21 142.45L222.89 149.06"/>
<path d="M222.89 302.7L222.89 149.06"/>
<path d="M222.89 302.7L224.21 309.31M224.21 309.31L227.95 314.91M227.95 314.91L233.55 318.65M233.55 318.65L240.15 319.97"/>
<path d="M377.11 319.97L240.15 319.97"/>
<path d="M377.11 319.97L383.72 318.65M383.72 318.65L389.32 314.91M389.32 314.91L393.06 309.31M393.06 309.31L394.37 302.7"/>
<path d="M394.37 149.06L394.37 302.7"/>
<path d="M394.37 149.06L393.06 142.45M393.06 142.45L389.32 136.85M389.32 136.85L383.72 133.11M383.72 133.11L377.11 131.8"/>
<path d="M240.15 131.8L377.11 131.8"/>
<path d="M240.15 131.8L233.55 133.11M233.55 133.11L227.95 136.85M227.95 136.85L224.21 142.45M224.21 142.45L222.89 149.06"/>
<path d="M222.89 302.7L222.89 149.06"/>
<path d="M222.89 302.7L224.21 309.31M224.21 309.31L227.95 314.91M227.95 314.91L233.55 318.65M233.55 318.65L240.15 319.97"/>
<path d="M240.15 131.8L377.11 131.8"/>
<path d="M240.15 129.5L232.67 130.99M232.67 130.99L226.32 135.23M226.32 135.23L222.08 141.57M222.08 141.57L220.59 149.06"/>
<path d="M220.59 302.7L220.59 149.06"/>
<path d="M220.59 302.7L222.08 310.19M222.08 310.19L226.32 316.54M226.32 316.54L232.67 320.78M232.67 320.78L240.15 322.27"/>
<path d="M377.11 322.27L240.15 322.27"/>
<path d="M377.11 322.27L384.6 320.78M384.6 320.78L390.94 316.54M390.94 316.54L395.19 310.19M395.19 310.19L396.68 302.7"/>
<path d="M396.68 149.06L396.68 302.7"/>
<path d="M396.68 149.06L395.19 141.57M395.19 141.57L390.94 135.23M390.94 135.23L384.6 130.99M384.6 130.99L377.11 129.5"/>
<path d="M240.15 129.5L377.11 129.5"/>
<path d="M294.25 78.75L323.02 78.75"/>
<path d="M294.25 80.14L323.02 80.14"/>
<path d="M294.25 81.53L323.02 81.53"/>
<path d="M273.96 277.53L343.3 277.53"/>
<path d="M343.3 277.53L343.3 293.35"/>
<path d="M343.3 293.35L273.96 293.35"/>
<path d="M273.96 293.35L273.96 277.53"/>
<path d="M354.38 297.67L354.38 290.62"/>
<path d="M354.38 290.62L348.05 290.62"/>
<path d="M348.05 290.62L348.05 280.26"/>
<path d="M348.05 280.26L354.38 280.26"/>
<path d="M354.38 280.26L354.38 273.21"/>
<path d="M354.38 273.21L366.46 273.21"/>
<path d="M366.46 273.21L366.46 280.26"/>
<path d="M366.46 280.26L372.79 280.26"/>
<path d="M372.79 280.26L372.79 290.62"/>
<path d="M372.79 290.62L366.46 290.62"/>
<path d="M366.46 290.62L366.46 297.67"/>
<path d="M366.46 297.67L354.38 297.67"/>
<path d="M262.88 297.67L250.8 297.67"/>
<path d="M250.8 297.67L250.8 290.62"/>
<path d="M250.8 290.62L244.47 290.62"/>
<path d="M244.47 290.62L244.47 280.26"/>
<path d="M244.47 280.26L250.8 280.26"/>
<path d="M250.8 280.26L250.8 273.21"/>
<path d="M250.8 273.21L262.88 273.21"/>
<path d="M262.88 273.21L262.88 280.26"/>
<path d="M262.88 280.26L269.21 280.26"/>
<path d="M269.21 280.26L269.21 290.62"/>
<path d="M269.21 290.62L262.88 290.62"/>
<path d="M262.88 290.62L262.88 297.67"/>
<path d="M331.94 211.06L331.94 218.11"/>
<path d="M331.94 218.11L338.27 218.11"/>
<path d="M338.27 218.11L338.27 228.47"/>
<path d="M338.27 228.47L331.94 228.47"/>
<path d="M331.94 228.47L331.94 235.52"/>
<path d="M331.94 235.52L319.85 235.52"/>
<path d="M319.85 235.52L319.85 228.47"/>
<path d="M319.85 228.47L313.52 228.47"/>
<path d="M313.52 228.47L313.52 218.11"/>
<path d="M313.52 218.11L319.85 218.11"/>
<path d="M319.85 218.11L319.85 211.06"/>
<path d="M319.85 211.06L331.94 211.06"/>
<path d="M354.38 211.06L366.46 211.06"/>
<path d="M372.79 218.11L372.79 228.47"/>
<path d="M366.46 235.52L354.38 235.52"/>
<path d="M348.05 228.47L348.05 218.11"/>
<path d="M285.33 211.06L297.41 211.06"/>
<path d="M297.41 211.06L297.41 218.11"/>
<path d="M297.41 218.11L303.74 218.11"/>
<path d="M303.74 218.11L303.74 228.47"/>
<path d="M303.74 228.47L297.41 228.47"/>
<path d="M297.41 228.47L297.41 235.52"/>
<path d="M297.41 235.52L285.33 235.52"/>
<path d="M285.33 235.52L285.33 228.47"/>
<path d="M285.33 228.47L279 228.47"/>
<path d="M279 228.47L279 218.11"/>
<path d="M279 218.11L285.33 218.11"/>
<path d="M285.33 218.11L285.33 211.06"/>
<path d="M331.94 195.24L319.85 195.24"/>
<path d="M319.85 195.24L319.85 188.19"/>
<path d="M319.85 188.19L313.52 188.19"/>
<path d="M313.52 188.19L313.52 177.83"/>
<path d="M313.52 177.83L319.85 177.83"/>
<path d="M319.85 177.83L319.85 170.78"/>
<path d="M319.85 170.78L331.94 170.78"/>
<path d="M331.94 170.78L331.94 177.83"/>
<path d="M331.94 177.83L338.27 177.83"/>
<path d="M338.27 177.83L338.27 188.19"/>
<path d="M338.27 188.19L331.94 188.19"/>
<path d="M331.94 188.19L331.94 195.24"/>
<path d="M354.38 195.24L354.38 188.19"/>
<path d="M354.38 188.19L348.05 188.19"/>
<path d="M348.05 188.19L348.05 177.83"/>
<path d="M348.05 177.83L354.38 177.83"/>
<path d="M354.38 177.83L354.38 170.78"/>
<path d="M354.38 170.78L366.46 170.78"/>
<path d="M366.46 170.78L366.46 177.83"/>
<path d="M366.46 177.83L372.79 177.83"/>
<path d="M372.79 177.83L372.79 188.19"/>
<path d="M372.79 188.19L366.46 188.19"/>
<path d="M366.46 188.19L366.46 195.24"/>
<path d="M366.46 195.24L354.38 195.24"/>
<path d="M285.33 195.24L285.33 188.19"/>
<path d="M285.33 188.19L279 188.19"/>
<path d="M279 188.19L279 177.83"/>
<path d="M279 177.83L285.33 177.83"/>
<path d="M285.33 177.83L285.33 170.78"/>
<path d="M285.33 170.78L297.41 170.78"/>
<path d="M297.41 170.78L297.41 177.83"/>
<path d="M297.41 177.83L303.74 177.83"/>
<path d="M303.74 177.83L303.74 188.19"/>
<path d="M303.74 188.19L297.41 188.19"/>
<path d="M297.41 188.19L297.41 195.24"/>
<path d="M297.41 195.24L285.33 195.24"/>
<path d="M262.88 195.24L250.8 195.24"/>
<path d="M250.8 195.24L250.8 188.19"/>
<path d="M250.8 188.19L244.47 188.19"/>
<path d="M244.47 188.19L244.47 177.83"/>
<path d="M244.47 177.83L250.8 177.83"/>
<path d="M250.8 177.83L250.8 170.78"/>
<path d="M250.8 170.78L262.88 170.78"/>
<path d="M262.88 170.78L262.88 177.83"/>
<path d="M262.88 177.83L269.21 177.83"/>
<path d="M269.21 177.83L269.21 188.19"/>
<path d="M269.21 188.19L262.88 188.19"/>
<path d="M262.88 188.19L262.88 195.24"/>
<path d="M377.69 314.21L383.3 312.71M383.3 312.71L387.4 308.6M387.4 308.6L388.91 302.99"/>
<path d="M239.58 314.21L377.69 314.21"/>
<path d="M228.36 302.99L229.86 308.6M229.86 308.6L233.97 312.71M233.97 312.71L239.58 314.21"/>
<path d="M228.36 148.77L228.36 302.99"/>
<path d="M239.58 137.55L233.97 139.06M233.97 139.06L229.86 143.16M229.86 143.16L228.36 148.77"/>
<path d="M377.69 137.55L239.58 137.55"/>
<path d="M388.91 148.77L387.4 143.16M387.4 143.16L383.3 139.06M383.3 139.06L377.69 137.55"/>
<path d="M388.91 302.99L388.91 148.77"/>
<path d="M240.15 137.03L234.14 138.65M234.14 138.65L229.74 143.05M229.74 143.05L228.13 149.06"/>
<path d="M228.13 149.06L228.13 302.7"/>
<path d="M228.13 302.7L229.74 308.72M229.74 308.72L234.14 313.12M234.14 313.12L240.15 314.73"/>
<path d="M240.15 314.73L377.11 314.73"/>
<path d="M377.11 314.73L383.12 313.12M383.12 313.12L387.53 308.72M387.53 308.72L389.14 302.7"/>
<path d="M389.14 149.06L389.14 302.7"/>
<path d="M389.14 149.06L387.53 143.05M387.53 143.05L383.12 138.65M383.12 138.65L377.11 137.03"/>
<path d="M377.11 137.03L240.15 137.03"/>
<path d="M228.13 149.06L223.18 149.06"/>
<path d="M228.13 302.7L223.18 302.7"/>
<path d="M240.15 314.73L240.15 319.68"/>
<path d="M377.11 319.68L377.11 314.73"/>
<path d="M394.09 302.7L389.14 302.7"/>
<path d="M394.09 149.06L389.14 149.06"/>
<path d="M377.11 132.09L377.11 137.03"/>
<path d="M240.15 132.09L240.15 137.03"/>
<path d="M240.15 132.09L233.66 133.38M233.66 133.38L228.15 137.06M228.15 137.06L224.47 142.56M224.47 142.56L223.18 149.06"/>
<path d="M223.18 149.06L222.89 149.06"/>
<path d="M223.18 149.06L223.18 302.7"/>
<path d="M223.18 302.7L224.47 309.2M224.47 309.2L228.15 314.71M228.15 314.71L233.66 318.39M233.66 318.39L240.15 319.68"/>
<path d="M222.89 302.7L223.18 302.7"/>
<path d="M240.15 319.97L240.15 319.68"/>
<path d="M240.15 319.68L377.11 319.68"/>
<path d="M377.11 319.68L383.61 318.39M383.61 318.39L389.11 314.71M389.11 314.71L392.79 309.2M392.79 309.2L394.09 302.7"/>
<path d="M377.11 319.97L377.11 319.68"/>
<path d="M394.37 302.7L394.09 302.7"/>
<path d="M394.09 302.7L394.09 149.06"/>
<path d="M394.09 149.06L392.79 142.56M392.79 142.56L389.11 137.06M389.11 137.06L383.61 133.38M383.61 133.38L377.11 132.09"/>
<path d="M394.37 149.06L394.09 149.06"/>
<path d="M240.15 131.8L240.15 132.09"/>
<path d="M377.11 131.8L377.11 132.09"/>
<path d="M377.11 132.09L240.15 132.09"/>
<path d="M220.97 149.06L222.89 149.06"/>
<path d="M222.89 302.7L220.97 302.7"/>
<path d="M240.15 321.89L240.15 319.97"/>
<path d="M377.11 321.89L377.11 319.97"/>
<path d="M396.3 302.7L394.37 302.7"/>
<path d="M396.3 149.06L394.37 149.06"/>
<path d="M377.11 129.87L377.11 131.8"/>
<path d="M240.15 129.87L240.15 131.8"/>
<path d="M240.15 129.87L232.81 131.33M232.81 131.33L226.59 135.49M226.59 135.49L222.43 141.72M222.43 141.72L220.97 149.06"/>
<path d="M220.59 149.06L220.97 149.06"/>
<path d="M220.97 149.06L220.97 302.7"/>
<path d="M220.97 302.7L222.43 310.05M222.43 310.05L226.59 316.27M226.59 316.27L232.81 320.43M232.81 320.43L240.15 321.89"/>
<path d="M220.97 302.7L220.59 302.7"/>
<path d="M240.15 322.27L240.15 321.89"/>
<path d="M240.15 321.89L377.11 321.89"/>
<path d="M377.11 321.89L384.45 320.43M384.45 320.43L390.68 316.27M390.68 316.27L394.84 310.05M394.84 310.05L396.3 302.7"/>
<path d="M377.11 322.27L377.11 321.89"/>
<path d="M396.68 302.7L396.3 302.7"/>
<path d="M396.3 302.7L396.3 149.06"/>
<path d="M396.3 149.06L394.84 141.72M394.84 141.72L390.68 135.49M390.68 135.49L384.45 131.33M384.45 131.33L377.11 129.87"/>
<path d="M396.68 149.06L396.3 149.06"/>
<path d="M240.15 129.5L240.15 129.87"/>
<path d="M377.11 129.5L377.11 129.87"/>
<path d="M377.11 129.87L240.15 129.87"/>
<path d="M317.55 100.44L299.71 100.44"/>
<path d="M299.71 100.44L299.71 106.27"/>
<path d="M317.55 106.27L317.55 100.44"/>
<path d="M294.25 122.73L302.88 122.73"/>
<path d="M323.02 83.32L294.25 83.32"/>
<path d="M323.02 85.07L294.25 85.07"/>
<path d="M323.02 85.57L294.25 85.57"/>
<path d="M323.02 99.14L294.25 99.14"/>
<path d="M299.71 103.89L294.25 103.89"/>
<path d="M323.02 103.89L317.55 103.89"/>
<path d="M323.02 105.04L317.55 105.04"/>
<path d="M299.71 105.04L294.25 105.04"/>
<path d="M299.71 106.27L317.55 106.27"/>
<path d="M314.39 107.52L302.88 107.52"/>
<path d="M302.88 107.77L294.25 107.77"/>
<path d="M323.02 107.05L294.25 107.05"/>
<path d="M323.02 107.77L314.39 107.77"/>
<path d="M314.39 122.73L323.02 122.73"/>
<path d="M302.88 117.42L314.39 117.42"/>
<path d="M314.39 107.77L314.39 107.52"/>
<path d="M314.39 122.73L314.39 107.77"/>
<path d="M314.39 122.73L314.39 129.5"/>
<path d="M302.88 107.52L302.88 107.77"/>
<path d="M302.88 122.73L302.88 107.77"/>
<path d="M302.88 122.73L302.88 129.5"/>
<path d="M294.25 78.75L294.25 80.14"/>
<path d="M294.25 80.14L294.25 81.53"/>
<path d="M294.25 81.53L294.25 83.32"/>
<path d="M294.25 85.07L294.25 83.32"/>
<path d="M294.25 85.57L294.25 85.07"/>
<path d="M294.25 98.42L294.25 99.14"/>
<path d="M294.25 85.57L294.25 88.06"/>
<path d="M294.25 103.89L294.25 99.14"/>
<path d="M294.25 105.04L294.25 103.89"/>
<path d="M294.25 107.05L294.25 105.04"/>
<path d="M294.25 107.77L294.25 107.05"/>
<path d="M294.25 107.77L294.25 122.73"/>
<path d="M294.25 122.73L294.25 129.5"/>
<path d="M323.02 78.75L323.02 80.14"/>
<path d="M323.02 80.14L323.02 81.53"/>
<path d="M323.02 81.53L323.02 83.32"/>
<path d="M323.02 85.07L323.02 83.32"/>
<path d="M323.02 85.57L323.02 85.07"/>
<path d="M323.02 88.06L323.02 85.57"/>
<path d="M323.02 99.14L323.02 98.42"/>
<path d="M323.02 103.89L323.02 99.14"/>
<path d="M323.02 105.04L323.02 103.89"/>
<path d="M323.02 107.05L323.02 105.04"/>
<path d="M323.02 107.77L323.02 107.05"/>
<path d="M323.02 107.77L323.02 122.73"/>
<path d="M323.02 129.5L323.02 122.73"/>
<path d="M302.88 126.04L314.39 126.04"/>
<path d="M285.3 126.04L294.25 126.04"/>
<path d="M323.02 126.04L331.96 126.04"/>
<path d="M285.3 98.42L285.3 126.04"/>
<path d="M287.05 126.04L287.05 98.42"/>
<path d="M331.96 126.04L331.96 98.42"/>
<path d="M330.21 126.04L330.21 98.42"/>
<path d="M214.75 179.85L213.97 179.85"/>
<path d="M214.75 174.09L214.75 179.85"/>
<path d="M213.97 174.09L214.75 174.09"/>
<path d="M213.97 147.33L213.97 174.09"/>
<path d="M238.14 123.17L228.89 125.01M228.89 125.01L221.05 130.24M221.05 130.24L215.81 138.09M215.81 138.09L213.97 147.33"/>
<path d="M248.21 123.17L238.14 123.17"/>
<path d="M248.21 123.94L248.21 123.17"/>
<path d="M253.97 123.94L248.21 123.94"/>
<path d="M253.97 123.17L253.97 123.94"/>
<path d="M260.31 123.17L253.97 123.17"/>
<path d="M260.31 123.17L266.34 121.84M266.34 121.84L271.26 118.1M271.26 118.1L274.16 112.65"/>
<path d="M277.55 100.53L274.16 112.65"/>
<path d="M280.32 98.42L278.58 99.01M278.58 99.01L277.55 100.53"/>
<path d="M336.95 98.42L280.32 98.42"/>
<path d="M339.72 100.53L338.69 99.01M338.69 99.01L336.95 98.42"/>
<path d="M343.1 112.65L339.72 100.53"/>
<path d="M343.1 112.65L346 118.1M346 118.1L350.92 121.84M350.92 121.84L356.96 123.17"/>
<path d="M363.3 123.17L356.96 123.17"/>
<path d="M363.3 123.94L363.3 123.17"/>
<path d="M369.05 123.94L363.3 123.94"/>
<path d="M369.05 123.17L369.05 123.94"/>
<path d="M379.12 123.17L369.05 123.17"/>
<path d="M403.29 147.33L401.45 138.09M401.45 138.09L396.21 130.24M396.21 130.24L388.37 125.01M388.37 125.01L379.12 123.17"/>
<path d="M403.29 174.09L403.29 147.33"/>
<path d="M402.52 174.09L403.29 174.09"/>
<path d="M402.52 179.85L402.52 174.09"/>
<path d="M403.29 179.85L402.52 179.85"/>
<path d="M403.29 271.92L403.29 179.85"/>
<path d="M402.52 271.92L403.29 271.92"/>
<path d="M402.52 277.67L402.52 271.92"/>
<path d="M403.29 277.67L402.52 277.67"/>
<path d="M403.29 304.43L403.29 277.67"/>
<path d="M379.12 328.6L388.37 326.76M388.37 326.76L396.21 321.52M396.21 321.52L401.45 313.68M401.45 313.68L403.29 304.43"/>
<path d="M369.05 328.6L379.12 328.6"/>
<path d="M369.05 327.82L369.05 328.6"/>
<path d="M363.3 327.82L369.05 327.82"/>
<path d="M363.3 328.6L363.3 327.82"/>
<path d="M253.97 328.6L363.3 328.6"/>
<path d="M253.97 327.82L253.97 328.6"/>
<path d="M248.21 327.82L253.97 327.82"/>
<path d="M248.21 328.6L248.21 327.82"/>
<path d="M238.14 328.6L248.21 328.6"/>
<path d="M213.97 304.43L215.81 313.68M215.81 313.68L221.05 321.52M221.05 321.52L228.89 326.76M228.89 326.76L238.14 328.6"/>
<path d="M213.97 277.67L213.97 304.43"/>
<path d="M214.75 277.67L213.97 277.67"/>
<path d="M214.75 271.92L214.75 277.67"/>
<path d="M213.97 271.92L214.75 271.92"/>
<path d="M213.97 179.85L213.97 271.92"/>
<path d="M203.61 302.13L203.61 149.64"/>
<path d="M203.61 302.13L205.42 313.51M205.42 313.51L210.65 323.78M210.65 323.78L218.8 331.92M218.8 331.92L229.06 337.15M229.06 337.15L240.44 338.96"/>
<path d="M376.82 338.96L240.44 338.96"/>
<path d="M376.82 338.96L388.2 337.15M388.2 337.15L398.47 331.92M398.47 331.92L406.62 323.78M406.62 323.78L411.85 313.51M411.85 313.51L413.65 302.13"/>
<path d="M413.65 149.64L413.65 302.13"/>
<path d="M413.65 149.64L411.85 138.26M411.85 138.26L406.62 127.99M406.62 127.99L398.47 119.84M398.47 119.84L388.2 114.61M388.2 114.61L376.82 112.81"/>
<path d="M353.9 112.81L376.82 112.81"/>
<path d="M346.99 88.06L353.9 112.81"/>
<path d="M270.27 88.06L346.99 88.06"/>
<path d="M263.37 112.81L270.27 88.06"/>
<path d="M240.44 112.81L263.37 112.81"/>
<path d="M240.44 112.81L229.06 114.61M229.06 114.61L218.8 119.84M218.8 119.84L210.65 127.99M210.65 127.99L205.42 138.26M205.42 138.26L203.61 149.64"/>
<path d="M302.41 301.22L303.4 300.73M303.4 300.73L304.87 299.25M304.87 299.25L304.87 309.58M310.29 301.22L311.27 300.73M311.27 300.73L312.75 299.25M312.75 299.25L312.75 309.58"/>
<path d="M279.12 282.64L279.12 288.33M279.12 288.33L338.22 288.33M338.22 288.33L338.22 282.64M338.22 282.64L279.12 282.64"/>
<path d="M279.12 282.64L273.96 277.53"/>
<path d="M338.22 282.64L343.3 277.53"/>
<path d="M338.22 288.33L343.3 293.35"/>
<path d="M279.12 288.33L273.96 293.35"/>
<path d="M348.05 211.06L348.05 235.52M348.05 235.52L372.79 235.52M372.79 235.52L372.79 211.06M372.79 211.06L348.05 211.06"/>
<path d="M244.47 211.06L244.47 235.52M244.47 235.52L269.21 235.52M269.21 235.52L269.21 211.06M269.21 211.06L244.47 211.06"/>
<path d="M348.05 211.95L348.94 211.06M348.05 215.38L352.36 211.06M348.05 218.8L355.79 211.06M348.05 222.23L359.21 211.06M348.05 225.65L362.64 211.06M348.05 229.08L366.06 211.06M348.05 232.5L369.49 211.06M348.46 235.52L372.79 211.18M351.88 235.52L372.79 214.61M355.31 235.52L372.79 218.03M358.73 235.52L372.79 221.46M362.16 235.52L372.79 224.89M365.58 235.52L372.79 228.31M369.01 235.52L372.79 231.74M372.43 235.52L372.79 235.16"/>
<path d="M244.47 212.78L246.19 211.06M244.47 216.21L249.61 211.06M244.47 219.63L253.04 211.06M244.47 223.06L256.46 211.06M244.47 226.48L259.89 211.06M244.47 229.91L263.31 211.06M244.47 233.33L266.74 211.06M245.71 235.52L269.21 212.01M249.13 235.52L269.21 215.44M252.56 235.52L269.21 218.86M255.98 235.52L269.21 222.29M259.41 235.52L269.21 225.71M262.83 235.52L269.21 229.14M266.26 235.52L269.21 232.56"/>
</g>
</g>
</svg>
