<?xml version="1.0" standalone="no"?><svg xmlns="http://www.w3.org/2000/svg" width="600.000" height="450.000" viewBox="0.0 0.0 600.000 450.000" version="1.1">
<title>Acme Converter - Post-processed with EDS-Designer: 14.44 (info@symca.com)</title>
<desc>Acme Converter - Post-processed with EDS-Designer: 14.44 (info@symca.com)</desc>
<g id="EDS_STYLE_GROUP" fill="none" stroke="black" stroke-width="1.0">
<g id="0" display="visible">
<path d="M253.73 386.06L253.73 363.03M254.83 363.03L254.83 386.06M250.44 363.03L263.61 363.03M263.61 363.03L266.9 364.12M266.9 364.12L268 365.22M268 365.22L269.09 367.42M269.09 367.42L269.09 369.61M269.09 369.61L268 371.8M268 371.8L266.9 372.9M266.9 372.9L263.61 374M263.61 363.03L265.8 364.12M265.8 364.12L266.9 365.22M266.9 365.22L268 367.42M268 367.42L268 369.61M268 369.61L266.9 371.8M266.9 371.8L265.8 372.9M265.8 372.9L263.61 374M254.83 374L263.61 374M263.61 374L266.9 375.09M266.9 375.09L268 376.19M268 376.19L269.09 378.39M269.09 378.39L269.09 381.68M269.09 381.68L268 383.87M268 383.87L266.9 384.97M266.9 384.97L263.61 386.06M263.61 386.06L250.44 386.06M263.61 374L265.8 375.09M265.8 375.09L266.9 376.19M266.9 376.19L268 378.39M268 378.39L268 381.68M268 381.68L266.9 383.87M266.9 383.87L265.8 384.97M265.8 384.97L263.61 386.06M277.87 386.06L277.87 363.03M278.97 363.03L278.97 386.06M274.58 363.03L282.26 363.03M274.58 386.06L291.03 386.06M291.03 386.06L291.03 379.48M291.03 379.48L289.94 386.06M304.2 363.03L296.52 386.06M304.2 363.03L311.88 386.06M304.2 366.32L310.78 386.06M298.71 379.48L308.59 379.48M294.32 386.06L300.91 386.06M307.49 386.06L314.07 386.06M332.72 366.32L333.82 369.61M333.82 369.61L333.82 363.03M333.82 363.03L332.72 366.32M332.72 366.32L330.53 364.12M330.53 364.12L327.23 363.03M327.23 363.03L325.04 363.03M325.04 363.03L321.75 364.12M321.75 364.12L319.56 366.32M319.56 366.32L318.46 368.51M318.46 368.51L317.36 371.8M317.36 371.8L317.36 377.29M317.36 377.29L318.46 380.58M318.46 380.58L319.56 382.77M319.56 382.77L321.75 384.97M321.75 384.97L325.04 386.06M325.04 386.06L327.23 386.06M327.23 386.06L330.53 384.97M330.53 384.97L332.72 382.77M332.72 382.77L333.82 380.58M325.04 363.03L322.85 364.12M322.85 364.12L320.65 366.32M320.65 366.32L319.56 368.51M319.56 368.51L318.46 371.8M318.46 371.8L318.46 377.29M318.46 377.29L319.56 380.58M319.56 380.58L320.65 382.77M320.65 382.77L322.85 384.97M322.85 384.97L325.04 386.06M343.69 386.06L343.69 363.03M344.79 363.03L344.79 386.06M359.05 363.03L344.79 377.29M350.27 372.9L359.05 386.06M349.17 372.9L357.95 386.06M340.4 363.03L348.08 363.03M354.66 363.03L361.24 363.03M340.4 386.06L348.08 386.06M354.66 386.06L361.24 386.06"/>
<path d="M151.48 216.48L153.23 215.6M153.23 215.6L155.86 212.97M155.86 212.97L155.86 231.4"/>
<path d="M438.58 218.1L438.58 217.22M438.58 217.22L439.45 215.47M439.45 215.47L440.33 214.59M440.33 214.59L442.09 213.71M442.09 213.71L445.6 213.71M445.6 213.71L447.35 214.59M447.35 214.59L448.23 215.47M448.23 215.47L449.11 217.22M449.11 217.22L449.11 218.98M449.11 218.98L448.23 220.73M448.23 220.73L446.48 223.37M446.48 223.37L437.7 232.14M437.7 232.14L449.99 232.14"/>
</g>
<g id="P" display="visible">
<path d="M363.37 217.66L387.36 217.66M387.36 217.66L387.36 227.1"/>
<path d="M387.36 227.1L363.37 227.1"/>
<path d="M354.72 272.71L358.65 270.35M358.65 270.35L362.59 268.38"/>
<path d="M351.18 247.94L362.59 268.38"/>
<path d="M342.93 252.66L354.72 272.71"/>
<path d="M246.6 268.38L250.93 270.35M250.93 270.35L254.86 272.71"/>
<path d="M266.26 252.66L254.86 272.71"/>
<path d="M258.4 247.94L246.6 268.38"/>
<path d="M246.21 217.66L222.23 217.66M222.23 217.66L222.23 227.1"/>
<path d="M246.21 227.1L222.23 227.1"/>
<path d="M266.26 192.11L254.86 172.06M254.86 172.06L250.93 174.42M250.93 174.42L246.6 176.38"/>
<path d="M258.4 196.43L246.6 176.38"/>
<path d="M351.18 196.43L362.59 176.38M362.59 176.38L358.65 174.42M358.65 174.42L354.72 172.06"/>
<path d="M342.93 192.11L354.72 172.06"/>
<path d="M373.99 147.68L371.63 148.86"/>
<path d="M405.44 257.38L409.37 258.16"/>
<path d="M237.56 148.86L235.59 147.68"/>
<path d="M238.35 294.33L237.17 298.26"/>
<path d="M372.02 298.26L371.24 294.33"/>
<path d="M203.75 257.38L200.21 258.16"/>
<path d="M241.88 77.3L240.31 77.3M240.31 77.3L238.74 78.09M238.74 78.09L237.17 79.27M237.17 79.27L236.38 80.45M236.38 80.45L235.59 82.02M235.59 82.02L235.59 83.59"/>
<path d="M373.99 83.59L373.6 82.02M373.6 82.02L373.2 80.45M373.2 80.45L372.02 79.27M372.02 79.27L370.84 78.09M370.84 78.09L369.27 77.3M369.27 77.3L367.7 77.3"/>
<path d="M409.37 258.16L411.73 251.87M411.73 251.87L412.52 250.3M412.52 250.3L412.91 248.73M412.91 248.73L413.7 246.76M413.7 246.76L414.09 244.79M414.09 244.79L414.49 243.22M414.49 243.22L414.88 241.26M414.88 241.26L415.27 239.68M415.27 239.68L415.66 237.72M415.66 237.72L416.06 236.14M416.06 236.14L416.45 234.18M416.45 234.18L416.45 232.61M416.45 232.61L416.84 230.64M416.84 230.64L416.84 229.07M416.84 229.07L416.84 227.1M416.84 227.1L417.24 225.53M417.24 225.53L417.24 223.56M417.24 223.56L417.24 221.99M417.24 221.99L417.24 220.02M417.24 220.02L416.84 218.45M416.84 218.45L416.84 216.49M416.84 216.49L416.84 214.91M416.84 214.91L416.45 212.95M416.45 212.95L416.45 211.37M416.45 211.37L416.06 209.8M416.06 209.8L416.06 207.84M416.06 207.84L415.66 206.26M415.66 206.26L415.27 204.3M415.27 204.3L414.88 202.72M414.88 202.72L414.49 201.15M414.49 201.15L414.09 199.58M414.09 199.58L413.7 197.61M413.7 197.61L412.91 196.04M412.91 196.04L412.52 194.47M412.52 194.47L411.73 192.9M411.73 192.9L411.34 191.32M411.34 191.32L410.55 189.36M410.55 189.36L409.77 187.78M409.77 187.78L409.37 186.21M409.37 186.21L408.59 184.64M408.59 184.64L407.8 183.07M407.8 183.07L407.01 181.49M407.01 181.49L406.23 179.92M406.23 179.92L405.05 178.74M405.05 178.74L404.26 177.17M404.26 177.17L403.48 175.6M403.48 175.6L402.3 174.02M402.3 174.02L401.51 172.84M401.51 172.84L400.33 171.27M400.33 171.27L399.15 169.7M399.15 169.7L397.97 168.52M397.97 168.52L397.19 166.95M397.19 166.95L396.01 165.77M396.01 165.77L394.83 164.19M394.83 164.19L393.25 163.01M393.25 163.01L392.07 161.83M392.07 161.83L390.89 160.66M390.89 160.66L389.72 159.08M389.72 159.08L388.14 157.9M388.14 157.9L386.96 156.72M386.96 156.72L385.39 155.54M385.39 155.54L384.21 154.36M384.21 154.36L382.64 153.19M382.64 153.19L381.07 152.4M381.07 152.4L379.49 151.22M379.49 151.22L373.99 147.68"/>
<path d="M330.74 308.49L337.82 308.09M337.82 308.09L344.89 307.31M344.89 307.31L351.97 306.13M351.97 306.13L359.05 303.77M359.05 303.77L365.73 301.41M365.73 301.41L372.02 298.26"/>
<path d="M237.17 298.26L243.85 301.41M243.85 301.41L250.53 303.77M250.53 303.77L257.22 306.13M257.22 306.13L264.29 307.31M264.29 307.31L271.37 308.09M271.37 308.09L278.45 308.49"/>
<path d="M235.59 147.68L229.7 151.22M229.7 151.22L228.52 152.4M228.52 152.4L226.94 153.19M226.94 153.19L225.37 154.36M225.37 154.36L223.8 155.54M223.8 155.54L222.62 156.72M222.62 156.72L221.05 157.9M221.05 157.9L219.87 159.08M219.87 159.08L218.69 160.26M218.69 160.26L217.11 161.83M217.11 161.83L215.93 163.01M215.93 163.01L214.75 164.19M214.75 164.19L213.58 165.77M213.58 165.77L212.4 166.95M212.4 166.95L211.22 168.52M211.22 168.52L210.04 169.7M210.04 169.7L209.25 171.27M209.25 171.27L208.07 172.45M208.07 172.45L207.28 174.02M207.28 174.02L206.11 175.6M206.11 175.6L205.32 177.17M205.32 177.17L204.14 178.35M204.14 178.35L203.35 179.92M203.35 179.92L202.57 181.49M202.57 181.49L201.78 183.07M201.78 183.07L200.99 184.64M200.99 184.64L200.21 186.21M200.21 186.21L199.42 187.78M199.42 187.78L198.63 189.36M198.63 189.36L198.24 191.32M198.24 191.32L197.46 192.9M197.46 192.9L197.06 194.47M197.06 194.47L196.28 196.04M196.28 196.04L195.88 197.61M195.88 197.61L195.49 199.58M195.49 199.58L195.1 201.15M195.1 201.15L194.7 202.72M194.7 202.72L194.31 204.69M194.31 204.69L193.92 206.26M193.92 206.26L193.52 207.84M193.52 207.84L193.13 209.8M193.13 209.8L193.13 211.37M193.13 211.37L192.74 213.34M192.74 213.34L192.74 214.91M192.74 214.91L192.34 216.88M192.34 216.88L192.34 218.45M192.34 218.45L192.34 220.42M192.34 220.42L192.34 221.99M192.34 221.99L192.34 223.96M192.34 223.96L192.34 225.53M192.34 225.53L192.34 227.49M192.34 227.49L192.34 229.07M192.34 229.07L192.74 231.03M192.74 231.03L192.74 232.61M192.74 232.61L193.13 234.57M193.13 234.57L193.52 236.14M193.52 236.14L193.52 238.11M193.52 238.11L193.92 239.68M193.92 239.68L194.31 241.65M194.31 241.65L194.7 243.22M194.7 243.22L195.49 245.19M195.49 245.19L195.88 246.76M195.88 246.76L196.28 248.73M196.28 248.73L197.06 250.3M197.06 250.3L197.46 251.87M197.46 251.87L200.21 258.16"/>
<path d="M241.88 80.84L240.7 81.24M240.7 81.24L239.92 81.63M239.92 81.63L239.52 82.81M239.52 82.81L239.13 83.59"/>
<path d="M370.06 83.59L370.06 82.81M370.06 82.81L369.27 81.63M369.27 81.63L368.48 81.24M368.48 81.24L367.7 80.84"/>
<path d="M364.95 327.36L365.34 329.72M365.34 329.72L365.73 331.68M365.73 331.68L366.52 333.26M366.52 333.26L367.7 334.83M367.7 334.83L368.88 336.4M368.88 336.4L370.45 337.58M370.45 337.58L372.02 338.76M372.02 338.76L373.6 339.55M373.6 339.55L375.56 339.94M375.56 339.94L377.92 339.94"/>
<path d="M412.13 339.94L414.49 339.94M414.49 339.94L416.45 339.55M416.45 339.55L418.42 338.76M418.42 338.76L419.99 337.58M419.99 337.58L421.17 336.4M421.17 336.4L422.35 334.83M422.35 334.83L423.53 333.26M423.53 333.26L424.31 331.68M424.31 331.68L424.71 329.72M424.71 329.72L425.1 326.97"/>
<path d="M231.27 339.94L234.02 339.94M234.02 339.94L235.59 339.55M235.59 339.55L237.56 338.76M237.56 338.76L239.13 337.58M239.13 337.58L240.7 336.4M240.7 336.4L241.88 334.83M241.88 334.83L242.67 333.26M242.67 333.26L243.46 331.68M243.46 331.68L244.24 329.72M244.24 329.72L244.24 327.36"/>
<path d="M184.09 326.97L184.48 329.72M184.48 329.72L185.27 331.68M185.27 331.68L186.05 333.26M186.05 333.26L186.84 334.83M186.84 334.83L188.02 336.4M188.02 336.4L189.59 337.58M189.59 337.58L191.16 338.76M191.16 338.76L193.13 339.55M193.13 339.55L194.7 339.94M194.7 339.94L197.46 339.94"/>
<path d="M241.88 63.94L238.74 64.33M238.74 64.33L237.17 64.33M237.17 64.33L235.59 65.12M235.59 65.12L234.41 65.51M234.41 65.51L232.84 66.29M232.84 66.29L231.66 66.69M231.66 66.69L230.48 67.87M230.48 67.87L229.3 68.65M229.3 68.65L228.12 69.83M228.12 69.83L226.94 71.01M226.94 71.01L226.16 72.19M226.16 72.19L224.98 73.37M224.98 73.37L224.19 74.55M224.19 74.55L223.8 76.12M223.8 76.12L223.01 77.7M223.01 77.7L222.62 78.88M222.62 78.88L222.62 80.45M222.62 80.45L222.23 83.59"/>
<path d="M386.96 83.59L386.96 80.45M386.96 80.45L386.57 78.88M386.57 78.88L386.18 77.7M386.18 77.7L385.78 76.12M385.78 76.12L385 74.55M385 74.55L384.21 73.37M384.21 73.37L383.42 72.19M383.42 72.19L382.25 71.01M382.25 71.01L381.46 69.83M381.46 69.83L380.28 68.65M380.28 68.65L379.1 67.87M379.1 67.87L377.92 66.69M377.92 66.69L376.35 65.9M376.35 65.9L375.17 65.51M375.17 65.51L373.6 64.72M373.6 64.72L372.02 64.33M372.02 64.33L370.45 64.33M370.45 64.33L367.7 63.94"/>
<path d="M228.91 294.33L227.34 294.73M227.34 294.73L226.16 295.51M226.16 295.51L224.98 296.69M224.98 296.69L224.98 298.26"/>
<path d="M370.06 142.18L370.45 144.93M370.45 144.93L371.24 147.29M371.24 147.29L372.42 149.65M372.42 149.65L373.99 151.61M373.99 151.61L375.95 153.58"/>
<path d="M384.6 298.26L384.21 296.69M384.21 296.69L383.42 295.51M383.42 295.51L382.25 294.73M382.25 294.73L380.67 294.33"/>
<path d="M233.23 153.58L235.2 151.61M235.2 151.61L237.17 149.65M237.17 149.65L238.35 147.29M238.35 147.29L239.13 144.93M239.13 144.93L239.13 142.18"/>
<path d="M317.77 153.19L319.34 153.19M319.34 153.19L320.91 152.4M320.91 152.4L322.48 151.61M322.48 151.61L323.27 150.04M323.27 150.04L324.06 148.47M324.06 148.47L324.45 146.89"/>
<path d="M285.13 146.89L285.13 148.47M285.13 148.47L285.92 150.04M285.92 150.04L287.1 151.61M287.1 151.61L288.28 152.4M288.28 152.4L289.85 153.19M289.85 153.19L291.42 153.19"/>
<path d="M252.5 321.07L250.93 321.07M250.93 321.07L249.35 321.07M249.35 321.07L247.78 321.85M247.78 321.85L246.21 322.64M246.21 322.64L245.42 324.21M245.42 324.21L244.64 325.79M244.64 325.79L244.24 327.36"/>
<path d="M364.95 327.36L364.55 325.79M364.55 325.79L364.16 324.21M364.16 324.21L362.98 322.64M362.98 322.64L361.8 321.85M361.8 321.85L360.23 321.07M360.23 321.07L358.26 321.07M358.26 321.07L356.69 321.07"/>
<path d="M386.96 133.92L387.36 135.1M387.36 135.1L387.75 136.67M387.75 136.67L388.93 137.85M388.93 137.85L390.11 139.03"/>
<path d="M184.09 264.06L184.09 261.7M184.09 261.7L183.3 259.34"/>
<path d="M425.89 259.34L425.49 261.7M425.49 261.7L425.1 264.06"/>
<path d="M357.08 154.36L357.08 155.94M357.08 155.94L357.87 157.12M357.87 157.12L358.26 157.9M358.26 157.9L359.05 159.08M359.05 159.08L359.83 159.48M359.83 159.48L361.8 160.66M361.8 160.66L363.77 161.05M363.77 161.05L365.73 160.66M365.73 160.66L367.3 159.48M367.3 159.48L368.09 159.08M368.09 159.08L368.88 157.9M368.88 157.9L369.66 157.12M369.66 157.12L370.06 155.94M370.06 155.94L370.06 154.36"/>
<path d="M239.13 154.36L239.52 155.94M239.52 155.94L239.92 157.12M239.92 157.12L240.7 157.9M240.7 157.9L241.1 159.08M241.1 159.08L241.88 159.48M241.88 159.48L243.85 160.66M243.85 160.66L245.82 160.66M245.82 160.66L247.78 160.66M247.78 160.66L249.75 159.48M249.75 159.48L250.53 159.08M250.53 159.08L250.93 158.3M250.93 158.3L251.71 157.12M251.71 157.12L252.11 155.94M252.11 155.94L252.5 154.36"/>
<path d="M219.47 139.03L213.58 143.75M213.58 143.75L212 144.93M212 144.93L210.43 146.11M210.43 146.11L209.25 147.29M209.25 147.29L207.68 148.86M207.68 148.86L206.5 150.04M206.5 150.04L204.93 151.61M204.93 151.61L203.75 152.79M203.75 152.79L202.57 154.36M202.57 154.36L201.39 155.54M201.39 155.54L199.81 157.12M199.81 157.12L198.63 158.69M198.63 158.69L197.46 159.87M197.46 159.87L196.67 161.44M196.67 161.44L195.49 163.01M195.49 163.01L194.31 164.59M194.31 164.59L193.13 166.16M193.13 166.16L192.34 167.73M192.34 167.73L191.16 169.31M191.16 169.31L190.38 170.88M190.38 170.88L189.2 172.45M189.2 172.45L188.41 174.02M188.41 174.02L187.63 175.99M187.63 175.99L186.84 177.56M186.84 177.56L186.05 179.13M186.05 179.13L185.27 180.71M185.27 180.71L184.48 182.67M184.48 182.67L183.69 184.25M183.69 184.25L183.3 185.82M183.3 185.82L182.51 187.78M182.51 187.78L181.73 189.36M181.73 189.36L181.34 191.32M181.34 191.32L180.55 192.9M180.55 192.9L180.16 194.86M180.16 194.86L179.76 196.43M179.76 196.43L179.37 198.4M179.37 198.4L178.98 199.97M178.98 199.97L178.58 201.94M178.58 201.94L178.19 203.9M178.19 203.9L177.8 205.48M177.8 205.48L177.4 207.44M177.4 207.44L177.4 209.41M177.4 209.41L177.01 210.98M177.01 210.98L177.01 212.95M177.01 212.95L176.62 214.91M176.62 214.91L176.62 216.88M176.62 216.88L176.62 218.45M176.62 218.45L176.62 220.42M176.62 220.42L176.62 222.38M176.62 222.38L176.62 224.35M176.62 224.35L176.62 225.92M176.62 225.92L176.62 227.89M176.62 227.89L176.62 229.85M176.62 229.85L177.01 231.82M177.01 231.82L177.01 233.78M177.01 233.78L177.4 235.36M177.4 235.36L177.4 237.32M177.4 237.32L177.8 239.29M177.8 239.29L178.19 241.26M178.19 241.26L178.58 242.83M178.58 242.83L178.98 244.79M178.98 244.79L179.37 246.76M179.37 246.76L179.76 248.73M179.76 248.73L180.16 250.3M180.16 250.3L180.94 252.26M180.94 252.26L183.3 259.34"/>
<path d="M252.5 321.07L261.15 323.03M261.15 323.03L269.8 324.21M269.8 324.21L278.45 324.61"/>
<path d="M425.89 259.34L428.25 252.26M428.25 252.26L429.03 250.69M429.03 250.69L429.43 248.73M429.43 248.73L429.82 246.76M429.82 246.76L430.61 244.79M430.61 244.79L431 243.22M431 243.22L431.39 241.26M431.39 241.26L431.39 239.29M431.39 239.29L431.78 237.32M431.78 237.32L432.18 235.75M432.18 235.75L432.18 233.78M432.18 233.78L432.57 231.82M432.57 231.82L432.57 229.85M432.57 229.85L432.96 228.28M432.96 228.28L432.96 226.31M432.96 226.31L432.96 224.35M432.96 224.35L432.96 222.38M432.96 222.38L432.96 220.81M432.96 220.81L432.96 218.84M432.96 218.84L432.96 216.88M432.96 216.88L432.57 214.91M432.57 214.91L432.57 213.34M432.57 213.34L432.18 211.37M432.18 211.37L432.18 209.41M432.18 209.41L431.78 207.44M431.78 207.44L431.78 205.87M431.78 205.87L431.39 203.9M431.39 203.9L431 201.94M431 201.94L430.61 200.37M430.61 200.37L430.21 198.4M430.21 198.4L429.82 196.43M429.82 196.43L429.03 194.86M429.03 194.86L428.64 192.9M428.64 192.9L428.25 191.32M428.25 191.32L427.46 189.36M427.46 189.36L427.07 187.78M427.07 187.78L426.28 185.82M426.28 185.82L425.49 184.25M425.49 184.25L424.71 182.67M424.71 182.67L424.31 180.71M424.31 180.71L423.53 179.13M423.53 179.13L422.74 177.56M422.74 177.56L421.56 175.6M421.56 175.6L420.78 174.02M420.78 174.02L419.99 172.45M419.99 172.45L419.2 170.88M419.2 170.88L418.02 169.31M418.02 169.31L417.24 167.73M417.24 167.73L416.06 166.16M416.06 166.16L414.88 164.59M414.88 164.59L414.09 163.01M414.09 163.01L412.91 161.44M412.91 161.44L411.73 159.87M411.73 159.87L410.55 158.3M410.55 158.3L409.37 157.12M409.37 157.12L408.19 155.54M408.19 155.54L407.01 153.97M407.01 153.97L405.44 152.79M405.44 152.79L404.26 151.22M404.26 151.22L403.08 150.04M403.08 150.04L401.51 148.86M401.51 148.86L400.33 147.29M400.33 147.29L398.76 146.11M398.76 146.11L397.19 144.93M397.19 144.93L396.01 143.75M396.01 143.75L390.11 139.03"/>
<path d="M330.74 324.61L339.39 324.21M339.39 324.21L348.04 323.03M348.04 323.03L356.69 321.07"/>
<path d="M219.47 139.03L220.65 137.85M220.65 137.85L221.44 136.67M221.44 136.67L222.23 135.1M222.23 135.1L222.23 133.92"/>
<path d="M405.44 257.38L408.19 251.08M408.19 251.08L408.59 249.51M408.59 249.51L409.37 247.94M409.37 247.94L409.77 246.37M409.77 246.37L410.16 244.79M410.16 244.79L410.55 243.22M410.55 243.22L410.95 241.26M410.95 241.26L411.34 239.68M411.34 239.68L411.73 238.11M411.73 238.11L412.13 236.54M412.13 236.54L412.52 234.96M412.52 234.96L412.52 233.39M412.52 233.39L412.91 231.82M412.91 231.82L412.91 230.25M412.91 230.25L412.91 228.28M412.91 228.28L413.31 226.71M413.31 226.71L413.31 225.14M413.31 225.14L413.31 223.56M413.31 223.56L413.31 221.99M413.31 221.99L413.31 220.42M413.31 220.42L413.31 218.84M413.31 218.84L413.31 217.27M413.31 217.27L412.91 215.7M412.91 215.7L412.91 214.13M412.91 214.13L412.91 212.55M412.91 212.55L412.52 210.98M412.52 210.98L412.13 209.41M412.13 209.41L412.13 207.84M412.13 207.84L411.73 206.26M411.73 206.26L411.34 204.69M411.34 204.69L410.95 203.12M410.95 203.12L410.55 201.54M410.55 201.54L410.16 199.97M410.16 199.97L409.77 198.4M409.77 198.4L409.37 196.83M409.37 196.83L408.98 195.25M408.98 195.25L408.19 193.68M408.19 193.68L407.8 192.5M407.8 192.5L407.01 190.93M407.01 190.93L406.62 189.36M406.62 189.36L405.84 187.78M405.84 187.78L405.05 186.6M405.05 186.6L404.26 185.03M404.26 185.03L403.87 183.46M403.87 183.46L403.08 182.28M403.08 182.28L402.3 180.71M402.3 180.71L401.12 179.53M401.12 179.53L400.33 177.95M400.33 177.95L399.54 176.78M399.54 176.78L398.76 175.6M398.76 175.6L397.58 174.02M397.58 174.02L396.79 172.84M396.79 172.84L395.61 171.66M395.61 171.66L394.83 170.09M394.83 170.09L393.65 168.91M393.65 168.91L392.47 167.73M392.47 167.73L391.68 166.55M391.68 166.55L390.5 165.37M390.5 165.37L389.32 164.19M389.32 164.19L388.14 163.01M388.14 163.01L386.96 161.83M386.96 161.83L385.39 160.66M385.39 160.66L384.21 159.48M384.21 159.48L383.03 158.3M383.03 158.3L381.85 157.51M381.85 157.51L375.95 153.58"/>
<path d="M330.74 304.95L337.82 304.56M337.82 304.56L344.89 303.77M344.89 303.77L351.58 302.2M351.58 302.2L358.26 300.23M358.26 300.23L364.95 297.48M364.95 297.48L371.24 294.33"/>
<path d="M238.35 294.33L244.64 297.48M244.64 297.48L250.93 300.23M250.93 300.23L257.61 302.2M257.61 302.2L264.69 303.77M264.69 303.77L271.76 304.56M271.76 304.56L278.45 304.95"/>
<path d="M233.23 153.58L227.73 157.51M227.73 157.51L226.55 158.3M226.55 158.3L224.98 159.48M224.98 159.48L223.8 160.66M223.8 160.66L222.62 161.83M222.62 161.83L221.44 163.01M221.44 163.01L220.26 164.19M220.26 164.19L219.08 165.37M219.08 165.37L217.9 166.55M217.9 166.55L216.72 167.73M216.72 167.73L215.93 168.91M215.93 168.91L214.75 170.09M214.75 170.09L213.58 171.27M213.58 171.27L212.79 172.84M212.79 172.84L211.61 174.02M211.61 174.02L210.82 175.2M210.82 175.2L210.04 176.78M210.04 176.78L208.86 177.95M208.86 177.95L208.07 179.53M208.07 179.53L207.28 180.71M207.28 180.71L206.5 182.28M206.5 182.28L205.71 183.46M205.71 183.46L204.93 185.03M204.93 185.03L204.14 186.6M204.14 186.6L203.75 187.78M203.75 187.78L202.96 189.36M202.96 189.36L202.17 190.93M202.17 190.93L201.78 192.5M201.78 192.5L200.99 193.68M200.99 193.68L200.6 195.25M200.6 195.25L200.21 196.83M200.21 196.83L199.81 198.4M199.81 198.4L199.03 199.97M199.03 199.97L198.63 201.54M198.63 201.54L198.24 203.12M198.24 203.12L197.85 204.69M197.85 204.69L197.85 206.26M197.85 206.26L197.46 207.84M197.46 207.84L197.06 209.41M197.06 209.41L196.67 210.98M196.67 210.98L196.67 212.55M196.67 212.55L196.28 214.13M196.28 214.13L196.28 215.7M196.28 215.7L196.28 217.27M196.28 217.27L196.28 218.84M196.28 218.84L195.88 220.42M195.88 220.42L195.88 221.99M195.88 221.99L195.88 223.56M195.88 223.56L196.28 225.14M196.28 225.14L196.28 227.1M196.28 227.1L196.28 228.67M196.28 228.67L196.28 230.25M196.28 230.25L196.67 231.82M196.67 231.82L196.67 233.39M196.67 233.39L197.06 234.96M197.06 234.96L197.46 236.54M197.46 236.54L197.46 238.11M197.46 238.11L197.85 239.68M197.85 239.68L198.24 241.65M198.24 241.65L198.63 243.22M198.63 243.22L199.03 244.79M199.03 244.79L199.81 246.37M199.81 246.37L200.21 247.94M200.21 247.94L200.6 249.51M200.6 249.51L201.39 251.08M201.39 251.08L203.75 257.38"/>
<path d="M309.51 241.65L312.65 244.4M312.65 244.4L315.8 247.15M315.8 247.15L317.37 247.94M317.37 247.94L319.34 248.73M319.34 248.73L320.91 249.51M320.91 249.51L322.48 249.9M322.48 249.9L324.45 250.3M324.45 250.3L326.02 250.69M326.02 250.69L327.99 251.08M327.99 251.08L329.56 251.08M329.56 251.08L331.53 251.08M331.53 251.08L333.1 251.08M333.1 251.08L335.06 250.69M335.06 250.69L336.64 250.69M336.64 250.69L338.21 250.3M338.21 250.3L339.78 249.51M339.78 249.51L341.75 249.12M341.75 249.12L343.32 248.33M343.32 248.33L344.5 247.55M344.5 247.55L346.07 246.76M346.07 246.76L347.65 245.58M347.65 245.58L348.83 244.79M348.83 244.79L350.4 243.61M350.4 243.61L351.58 242.43M351.58 242.43L352.76 241.26M352.76 241.26L353.94 239.68M353.94 239.68L354.72 238.5M354.72 238.5L355.9 236.93M355.9 236.93L356.69 235.36M356.69 235.36L357.48 233.78M357.48 233.78L357.87 231.82M357.87 231.82L358.65 230.25M358.65 230.25L359.05 228.28M359.05 228.28L359.44 226.31M359.44 226.31L359.44 222.38M359.44 222.38L359.44 218.45M359.44 218.45L359.05 216.49M359.05 216.49L358.65 214.52M358.65 214.52L357.87 212.95M357.87 212.95L357.48 211.37M357.48 211.37L356.69 209.41M356.69 209.41L355.9 207.84M355.9 207.84L354.72 206.26M354.72 206.26L353.94 205.08M353.94 205.08L352.76 203.51M352.76 203.51L351.58 202.33M351.58 202.33L350.4 201.15M350.4 201.15L348.83 199.97M348.83 199.97L347.65 198.79M347.65 198.79L346.07 198.01M346.07 198.01L344.89 197.22M344.89 197.22L343.32 196.43M343.32 196.43L341.75 195.65M341.75 195.65L339.78 195.25M339.78 195.25L338.21 194.47M338.21 194.47L336.64 194.07M336.64 194.07L335.06 193.68M335.06 193.68L333.1 193.68M333.1 193.68L331.53 193.68M331.53 193.68L329.56 193.68M329.56 193.68L327.99 193.68M327.99 193.68L326.02 194.07M326.02 194.07L324.45 194.47M324.45 194.47L322.48 194.86M322.48 194.86L320.91 195.25M320.91 195.25L319.34 196.04M319.34 196.04L317.37 196.83M317.37 196.83L315.8 198.01M315.8 198.01L312.65 200.37M312.65 200.37L309.51 203.12"/>
<path d="M300.07 203.12L296.93 200.37M296.93 200.37L293.39 198.01M293.39 198.01L291.82 196.83M291.82 196.83L290.24 196.04M290.24 196.04L288.28 195.25M288.28 195.25L286.7 194.86M286.7 194.86L284.74 194.47M284.74 194.47L283.17 194.07M283.17 194.07L281.59 193.68M281.59 193.68L279.63 193.68M279.63 193.68L278.06 193.68M278.06 193.68L276.09 193.68M276.09 193.68L274.52 193.68M274.52 193.68L272.94 194.07M272.94 194.07L270.98 194.47M270.98 194.47L269.41 194.86M269.41 194.86L267.83 195.65M267.83 195.65L266.26 196.43M266.26 196.43L264.69 197.22M264.69 197.22L263.11 198.01M263.11 198.01L261.94 198.79M261.94 198.79L260.36 199.97M260.36 199.97L259.18 201.15M259.18 201.15L258 202.33M258 202.33L256.82 203.51M256.82 203.51L255.64 205.08M255.64 205.08L254.47 206.26M254.47 206.26L253.68 207.84M253.68 207.84L252.89 209.41M252.89 209.41L252.11 210.98M252.11 210.98L251.32 212.95M251.32 212.95L250.93 214.52M250.93 214.52L250.14 216.49M250.14 216.49L249.75 218.45M249.75 218.45L249.75 222.38M249.75 222.38L249.75 226.31M249.75 226.31L250.14 228.28M250.14 228.28L250.93 230.25M250.93 230.25L251.32 231.82M251.32 231.82L252.11 233.78M252.11 233.78L252.89 235.36M252.89 235.36L253.68 236.93M253.68 236.93L254.86 238.5M254.86 238.5L255.64 240.08M255.64 240.08L256.82 241.26M256.82 241.26L258 242.43M258 242.43L259.18 243.61M259.18 243.61L260.36 244.79M260.36 244.79L261.94 245.97M261.94 245.97L263.11 246.76M263.11 246.76L264.69 247.55M264.69 247.55L266.26 248.33M266.26 248.33L267.83 249.12M267.83 249.12L269.41 249.9M269.41 249.9L270.98 250.3M270.98 250.3L272.55 250.69M272.55 250.69L274.52 251.08M274.52 251.08L276.09 251.08M276.09 251.08L278.06 251.08M278.06 251.08L279.63 251.08M279.63 251.08L281.2 251.08M281.2 251.08L283.17 250.69M283.17 250.69L284.74 250.3M284.74 250.3L286.7 249.9M286.7 249.9L288.28 249.51M288.28 249.51L290.24 248.73M290.24 248.73L291.82 247.94M291.82 247.94L293.39 247.15M293.39 247.15L296.93 244.4M296.93 244.4L300.07 241.65"/>
<path d="M300.07 203.12L301.25 204.3M301.25 204.3L302.82 205.08M302.82 205.08L304.79 205.08M304.79 205.08L306.36 205.08M306.36 205.08L307.94 204.3M307.94 204.3L309.51 203.12"/>
<path d="M309.51 241.65L307.94 240.47M307.94 240.47L306.36 239.68M306.36 239.68L304.79 239.68M304.79 239.68L302.82 239.68M302.82 239.68L301.25 240.47M301.25 240.47L300.07 241.65"/>
<path d="M302.82 200.37L299.68 197.61M299.68 197.61L296.14 194.86M296.14 194.86L294.57 193.68M294.57 193.68L292.6 192.9M292.6 192.9L290.64 192.11M290.64 192.11L288.67 191.32M288.67 191.32L286.7 190.54M286.7 190.54L284.74 190.14M284.74 190.14L282.77 189.75M282.77 189.75L280.81 189.75M280.81 189.75L278.84 189.75M278.84 189.75L276.88 189.75M276.88 189.75L275.3 189.75M275.3 189.75L273.34 190.14M273.34 190.14L271.37 190.54M271.37 190.54L269.41 190.93M269.41 190.93L267.44 191.72M267.44 191.72L265.87 192.11M265.87 192.11L263.9 192.9M263.9 192.9L262.33 194.07M262.33 194.07L260.76 194.86M260.76 194.86L259.18 196.04M259.18 196.04L257.61 197.22M257.61 197.22L256.04 198.4M256.04 198.4L254.86 199.97M254.86 199.97L253.29 201.15M253.29 201.15L252.11 202.72M252.11 202.72L250.93 204.69M250.93 204.69L250.14 206.26M250.14 206.26L248.96 207.84M248.96 207.84L248.17 209.8M248.17 209.8L247.39 211.77M247.39 211.77L246.99 213.73M246.99 213.73L246.21 216.09M246.21 216.09L245.82 220.02M245.82 220.02L245.82 224.35M245.82 224.35L245.82 225.53M245.82 225.53L246.21 226.71M246.21 226.71L246.6 229.07M246.6 229.07L246.99 231.03M246.99 231.03L247.78 233.39M247.78 233.39L248.57 235.36M248.57 235.36L249.35 237.32M249.35 237.32L250.14 238.9M250.14 238.9L251.32 240.86M251.32 240.86L252.89 242.43M252.89 242.43L254.07 244.01M254.07 244.01L255.64 245.58M255.64 245.58L256.82 247.15M256.82 247.15L258.4 248.33M258.4 248.33L260.36 249.51M260.36 249.51L261.94 250.69M261.94 250.69L263.9 251.48M263.9 251.48L265.47 252.26M265.47 252.26L267.44 253.05M267.44 253.05L269.41 253.84M269.41 253.84L271.37 254.23M271.37 254.23L273.34 254.62M273.34 254.62L275.7 255.02M275.7 255.02L277.66 255.02M277.66 255.02L279.63 255.02M279.63 255.02L281.99 255.02M281.99 255.02L283.95 254.62M283.95 254.62L285.92 254.23M285.92 254.23L288.28 253.44M288.28 253.44L290.24 253.05M290.24 253.05L292.21 251.87M292.21 251.87L294.18 251.08M294.18 251.08L295.35 250.3M295.35 250.3L296.14 249.9M296.14 249.9L299.68 247.15M299.68 247.15L302.82 244.4"/>
<path d="M306.76 244.4L309.51 247.15M309.51 247.15L313.05 249.9M313.05 249.9L315.01 251.08M315.01 251.08L316.98 251.87M316.98 251.87L318.55 252.66M318.55 252.66L320.52 253.44M320.52 253.44L322.48 253.84M322.48 253.84L324.45 254.62M324.45 254.62L326.42 254.62M326.42 254.62L328.38 255.02M328.38 255.02L330.35 255.02M330.35 255.02L332.31 255.02M332.31 255.02L334.28 255.02M334.28 255.02L336.24 254.62M336.24 254.62L338.21 254.23M338.21 254.23L340.18 253.84M340.18 253.84L341.75 253.05M341.75 253.05L343.71 252.66M343.71 252.66L345.29 251.87M345.29 251.87L347.25 250.69M347.25 250.69L348.83 249.9M348.83 249.9L350.4 248.73M350.4 248.73L351.97 247.55M351.97 247.55L353.15 246.37M353.15 246.37L354.72 244.79M354.72 244.79L355.9 243.22M355.9 243.22L357.08 241.65M357.08 241.65L358.26 240.08M358.26 240.08L359.44 238.5M359.44 238.5L360.23 236.54M360.23 236.54L361.01 234.96M361.01 234.96L361.8 233M361.8 233L362.59 230.64M362.59 230.64L362.98 228.67M362.98 228.67L363.77 224.35M363.77 224.35L363.77 220.02M363.77 220.02L363.37 219.24M363.37 219.24L363.37 218.06M363.37 218.06L362.98 215.7M362.98 215.7L362.19 213.34M362.19 213.34L361.8 211.37M361.8 211.37L361.01 209.41M361.01 209.41L359.83 207.44M359.83 207.44L359.05 205.48M359.05 205.48L357.87 203.9M357.87 203.9L356.69 201.94M356.69 201.94L355.12 200.37M355.12 200.37L353.94 199.19M353.94 199.19L352.36 197.61M352.36 197.61L350.79 196.43M350.79 196.43L348.83 195.25M348.83 195.25L347.25 194.07M347.25 194.07L345.29 193.29M345.29 193.29L343.71 192.11M343.71 192.11L341.75 191.32M341.75 191.32L339.78 190.93M339.78 190.93L337.82 190.54M337.82 190.54L335.85 190.14M335.85 190.14L333.89 189.75M333.89 189.75L331.53 189.75M331.53 189.75L329.56 189.75M329.56 189.75L327.59 189.75M327.59 189.75L325.24 190.14M325.24 190.14L323.27 190.54M323.27 190.54L321.3 190.93M321.3 190.93L318.94 191.72M318.94 191.72L316.98 192.5M316.98 192.5L315.01 193.68M315.01 193.68L314.23 194.07M314.23 194.07L313.05 194.86M313.05 194.86L309.51 197.61M309.51 197.61L306.76 200.37"/>
<path d="M302.82 200.37L303.61 201.15M303.61 201.15L304.79 201.15M304.79 201.15L305.58 201.15M305.58 201.15L306.76 200.37"/>
<path d="M306.76 244.4L305.58 243.61M305.58 243.61L304.79 243.61M304.79 243.61L303.61 243.61M303.61 243.61L302.82 244.4"/>
<path d="M281.2 198.4L277.27 198.01M277.27 198.01L272.94 198.79M272.94 198.79L269.01 199.97M269.01 199.97L265.47 201.54"/>
<path d="M275.7 246.37L280.02 246.37M280.02 246.37L283.95 245.97M283.95 245.97L287.88 244.79M287.88 244.79L291.42 243.22"/>
<path d="M333.49 198.4L329.56 198.01M329.56 198.01L325.24 198.79M325.24 198.79L321.3 199.97M321.3 199.97L317.77 201.54"/>
<path d="M328.38 246.37L332.31 246.37M332.31 246.37L336.24 245.97M336.24 245.97L340.18 244.79M340.18 244.79L344.11 243.22"/>
<path d="M278.45 164.59L272.94 164.98M272.94 164.98L269.8 165.37M269.8 165.37L266.65 166.16M266.65 166.16L263.51 166.95M263.51 166.95L260.76 167.73M260.76 167.73L258 168.52M258 168.52L255.25 169.7M255.25 169.7L252.89 170.88M252.89 170.88L250.14 172.06M250.14 172.06L247.78 173.63M247.78 173.63L245.42 175.2M245.42 175.2L243.46 176.78M243.46 176.78L241.49 178.35M241.49 178.35L239.52 179.92M239.52 179.92L237.56 181.89M237.56 181.89L235.59 183.46M235.59 183.46L234.02 185.43M234.02 185.43L232.45 187.39M232.45 187.39L230.87 189.75M230.87 189.75L229.7 191.72M229.7 191.72L228.52 193.68M228.52 193.68L227.34 196.04M227.34 196.04L226.16 198.4M226.16 198.4L225.37 200.76M225.37 200.76L224.19 203.12M224.19 203.12L223.4 205.48M223.4 205.48L223.01 207.84M223.01 207.84L222.23 210.19M222.23 210.19L221.83 212.55M221.83 212.55L221.44 214.91M221.44 214.91L221.44 217.27M221.44 217.27L221.05 220.02M221.05 220.02L221.05 222.38M221.05 222.38L221.05 224.74M221.05 224.74L221.44 227.49M221.44 227.49L221.44 229.85M221.44 229.85L221.83 232.21M221.83 232.21L222.23 234.57M222.23 234.57L223.01 236.93M223.01 236.93L223.4 239.29M223.4 239.29L224.19 241.65M224.19 241.65L225.37 244.01M225.37 244.01L226.16 246.37M226.16 246.37L227.34 248.73M227.34 248.73L228.52 251.08M228.52 251.08L229.7 253.05M229.7 253.05L230.87 255.02M230.87 255.02L232.45 257.38M232.45 257.38L234.02 259.34M234.02 259.34L235.59 261.31M235.59 261.31L237.56 262.88M237.56 262.88L239.52 264.85M239.52 264.85L241.49 266.42M241.49 266.42L243.46 267.99M243.46 267.99L245.42 269.56M245.42 269.56L247.78 271.14M247.78 271.14L250.14 272.32M250.14 272.32L252.89 273.89M252.89 273.89L255.25 275.07M255.25 275.07L258 275.85M258 275.85L260.76 277.03M260.76 277.03L263.51 277.82M263.51 277.82L266.65 278.61M266.65 278.61L269.8 279M269.8 279L272.94 279.79M272.94 279.79L278.45 279.79"/>
<path d="M330.74 279.79L336.64 279.79M336.64 279.79L339.78 279M339.78 279L342.93 278.61M342.93 278.61L345.68 277.82M345.68 277.82L348.83 277.03M348.83 277.03L351.58 275.85M351.58 275.85L354.33 275.07M354.33 275.07L356.69 273.89M356.69 273.89L359.05 272.32M359.05 272.32L361.41 271.14M361.41 271.14L363.77 269.56M363.77 269.56L366.13 267.99M366.13 267.99L368.09 266.42M368.09 266.42L370.06 264.85M370.06 264.85L372.02 262.88M372.02 262.88L373.6 260.91M373.6 260.91L375.56 259.34M375.56 259.34L377.13 256.98M377.13 256.98L378.31 255.02M378.31 255.02L379.89 253.05M379.89 253.05L381.07 250.69M381.07 250.69L382.25 248.73M382.25 248.73L383.42 246.37M383.42 246.37L384.21 244.01M384.21 244.01L385 241.65M385 241.65L385.78 239.29M385.78 239.29L386.57 236.93M386.57 236.93L386.96 234.57M386.96 234.57L387.36 232.21M387.36 232.21L387.75 229.85M387.75 229.85L388.14 227.49M388.14 227.49L388.14 224.74M388.14 224.74L388.14 222.38M388.14 222.38L388.14 220.02M388.14 220.02L388.14 217.27M388.14 217.27L387.75 214.91M387.75 214.91L387.36 212.55M387.36 212.55L386.96 210.19M386.96 210.19L386.57 207.84M386.57 207.84L385.78 205.48M385.78 205.48L385 203.12M385 203.12L384.21 200.76M384.21 200.76L383.42 198.4M383.42 198.4L382.25 196.04M382.25 196.04L381.07 194.07M381.07 194.07L379.89 191.72M379.89 191.72L378.31 189.75M378.31 189.75L377.13 187.39M377.13 187.39L375.56 185.43M375.56 185.43L373.6 183.46M373.6 183.46L372.02 181.89M372.02 181.89L370.06 179.92M370.06 179.92L368.09 178.35M368.09 178.35L366.13 176.78M366.13 176.78L363.77 175.2M363.77 175.2L361.41 173.63M361.41 173.63L359.05 172.06M359.05 172.06L356.69 170.88M356.69 170.88L354.33 169.7M354.33 169.7L351.58 168.52M351.58 168.52L348.83 167.73M348.83 167.73L345.68 166.95M345.68 166.95L342.93 166.16M342.93 166.16L339.78 165.37M339.78 165.37L336.64 164.98M336.64 164.98L330.74 164.59"/>
<path d="M330.74 284.5L336.64 284.5M336.64 284.5L340.18 283.72M340.18 283.72L343.32 283.32M343.32 283.32L346.47 282.54M346.47 282.54L349.61 281.36M349.61 281.36L352.76 280.57M352.76 280.57L355.51 279.39M355.51 279.39L358.65 277.82M358.65 277.82L361.01 276.64M361.01 276.64L363.77 275.07M363.77 275.07L366.13 273.5M366.13 273.5L368.48 271.92M368.48 271.92L370.84 269.96M370.84 269.96L372.81 268.38M372.81 268.38L375.17 266.42M375.17 266.42L377.13 264.45M377.13 264.45L378.71 262.09M378.71 262.09L380.28 260.13M380.28 260.13L382.25 257.77M382.25 257.77L383.42 255.41M383.42 255.41L385 253.44M385 253.44L386.18 250.69M386.18 250.69L387.36 248.33M387.36 248.33L388.54 245.97M388.54 245.97L389.32 243.61M389.32 243.61L390.11 240.86M390.11 240.86L390.89 238.11M390.89 238.11L391.29 235.75M391.29 235.75L392.07 233M392.07 233L392.47 230.25M392.47 230.25L392.47 227.89M392.47 227.89L392.86 225.14M392.86 225.14L392.86 222.38M392.86 222.38L392.86 219.63M392.86 219.63L392.47 216.88M392.47 216.88L392.47 214.52M392.47 214.52L392.07 211.77M392.07 211.77L391.29 209.02M391.29 209.02L390.89 206.26M390.89 206.26L390.11 203.9M390.11 203.9L389.32 201.15M389.32 201.15L388.54 198.79M388.54 198.79L387.36 196.43M387.36 196.43L386.18 193.68M386.18 193.68L385 191.32M385 191.32L383.42 188.96M383.42 188.96L382.25 187M382.25 187L380.67 184.64M380.67 184.64L378.71 182.67M378.71 182.67L377.13 180.31M377.13 180.31L375.17 178.35M375.17 178.35L373.2 176.38M373.2 176.38L370.84 174.81M370.84 174.81L368.48 172.84M368.48 172.84L366.13 171.27M366.13 171.27L363.77 169.7M363.77 169.7L361.01 168.13M361.01 168.13L358.65 166.95M358.65 166.95L355.51 165.37M355.51 165.37L352.76 164.19M352.76 164.19L349.61 163.41M349.61 163.41L346.47 162.62M346.47 162.62L343.32 161.83M343.32 161.83L340.18 161.05M340.18 161.05L336.64 160.66M336.64 160.66L330.74 160.26"/>
<path d="M278.45 160.26L272.55 160.66M272.55 160.66L269.41 161.05M269.41 161.05L265.87 161.83M265.87 161.83L262.72 162.62M262.72 162.62L259.58 163.41M259.58 163.41L256.43 164.19M256.43 164.19L253.68 165.37M253.68 165.37L250.93 166.95M250.93 166.95L248.17 168.13M248.17 168.13L245.42 169.7M245.42 169.7L243.06 171.27M243.06 171.27L240.7 172.84M240.7 172.84L238.35 174.81M238.35 174.81L236.38 176.38M236.38 176.38L234.41 178.35M234.41 178.35L232.45 180.31M232.45 180.31L230.48 182.67M230.48 182.67L228.91 184.64M228.91 184.64L227.34 187M227.34 187L225.76 189.36M225.76 189.36L224.58 191.32M224.58 191.32L223.01 194.07M223.01 194.07L221.83 196.43M221.83 196.43L221.05 198.79M221.05 198.79L219.87 201.15M219.87 201.15L219.08 203.9M219.08 203.9L218.69 206.66M218.69 206.66L217.9 209.02M217.9 209.02L217.51 211.77M217.51 211.77L217.11 214.52M217.11 214.52L216.72 216.88M216.72 216.88L216.72 219.63M216.72 219.63L216.33 222.38M216.33 222.38L216.72 225.14M216.72 225.14L216.72 227.89M216.72 227.89L217.11 230.25M217.11 230.25L217.51 233M217.51 233L217.9 235.75M217.9 235.75L218.69 238.11M218.69 238.11L219.08 240.86M219.08 240.86L219.87 243.22M219.87 243.22L221.05 245.97M221.05 245.97L221.83 248.33M221.83 248.33L223.01 250.69M223.01 250.69L224.58 253.05M224.58 253.05L225.76 255.41M225.76 255.41L227.34 257.77M227.34 257.77L228.91 260.13M228.91 260.13L230.48 262.09M230.48 262.09L232.45 264.45M232.45 264.45L234.41 266.42M234.41 266.42L236.38 268.38M236.38 268.38L238.35 269.96M238.35 269.96L240.7 271.92M240.7 271.92L243.06 273.5M243.06 273.5L245.42 275.07M245.42 275.07L248.17 276.64M248.17 276.64L250.93 277.82M250.93 277.82L253.68 279.39M253.68 279.39L256.43 280.57M256.43 280.57L259.58 281.36M259.58 281.36L262.72 282.54M262.72 282.54L265.87 283.32M265.87 283.32L269.41 283.72M269.41 283.72L272.55 284.5M272.55 284.5L278.45 284.5"/>
<path d="M384.6 320.68L380.67 324.21"/>
<path d="M367.7 63.94L241.88 63.94"/>
<path d="M367.7 77.3L241.88 77.3"/>
<path d="M367.7 80.84L241.88 80.84"/>
<path d="M383.42 295.51L380.67 298.26"/>
<path d="M425.1 326.97L425.1 264.06"/>
<path d="M252.5 91.46L357.08 91.46"/>
<path d="M409.37 258.16L409.37 324.21"/>
<path d="M252.5 100.5L357.08 100.5"/>
<path d="M252.5 107.97L357.08 107.97"/>
<path d="M405.44 257.38L405.44 320.68"/>
<path d="M395.61 232.21L395.61 212.55"/>
<path d="M285.13 112.69L324.45 112.69"/>
<path d="M357.08 116.23L252.5 116.23"/>
<path d="M393.65 214.52L393.65 230.25"/>
<path d="M386.96 133.92L386.96 83.59"/>
<path d="M384.6 320.68L384.6 298.26"/>
<path d="M357.08 128.02L252.5 128.02"/>
<path d="M380.67 324.21L380.67 298.26"/>
<path d="M373.99 147.68L373.99 83.59"/>
<path d="M370.06 154.36L370.06 83.59"/>
<path d="M357.08 139.82L252.5 139.82"/>
<path d="M357.08 154.36L357.08 91.46"/>
<path d="M317.77 153.19L291.42 153.19"/>
<path d="M330.74 160.26L278.45 160.26"/>
<path d="M333.49 206.26L317.77 206.26"/>
<path d="M317.77 209.02L333.49 209.02"/>
<path d="M330.74 164.59L278.45 164.59"/>
<path d="M351.18 234.57L342.54 227.89"/>
<path d="M351.18 210.19L310.69 210.19M310.69 210.19L319.34 216.88"/>
<path d="M342.54 216.88L319.34 216.88"/>
<path d="M319.34 227.89L342.54 227.89"/>
<path d="M324.45 116.23L324.45 112.69"/>
<path d="M324.45 146.89L324.45 139.82"/>
<path d="M310.69 234.57L319.34 227.89"/>
<path d="M351.18 210.19L342.54 216.88"/>
<path d="M203.75 320.68L200.21 324.21"/>
<path d="M351.18 234.57L310.69 234.57"/>
<path d="M344.11 235.75L328.38 235.75"/>
<path d="M328.38 238.5L344.11 238.5"/>
<path d="M258.4 210.19L258.4 234.57"/>
<path d="M310.69 210.19L310.69 234.57"/>
<path d="M265.47 201.54L265.47 209.02"/>
<path d="M317.77 201.54L317.77 209.02"/>
<path d="M266.65 216.88L266.65 227.89"/>
<path d="M319.34 216.88L319.34 227.89"/>
<path d="M217.11 212.55L213.58 212.55"/>
<path d="M395.61 212.55L392.07 212.55"/>
<path d="M298.89 234.57L290.24 227.89"/>
<path d="M281.2 206.26L265.47 206.26"/>
<path d="M405.44 320.68L409.37 324.21"/>
<path d="M217.11 214.52L215.54 214.52"/>
<path d="M393.65 214.52L392.47 214.52"/>
<path d="M275.7 235.75L275.7 246.37"/>
<path d="M328.38 235.75L328.38 246.37"/>
<path d="M333.49 209.02L333.49 198.4"/>
<path d="M281.2 209.02L281.2 198.4"/>
<path d="M258.4 210.19L266.65 216.88"/>
<path d="M265.47 209.02L281.2 209.02"/>
<path d="M298.89 210.19L258.4 210.19"/>
<path d="M285.13 116.23L285.13 112.69"/>
<path d="M285.13 139.82L285.13 146.89"/>
<path d="M290.24 216.88L266.65 216.88"/>
<path d="M258.4 234.57L266.65 227.89"/>
<path d="M298.89 210.19L290.24 216.88"/>
<path d="M217.11 230.25L215.54 230.25"/>
<path d="M393.65 230.25L392.47 230.25"/>
<path d="M392.07 232.21L395.61 232.21"/>
<path d="M213.58 232.21L217.11 232.21"/>
<path d="M290.24 216.88L290.24 227.89"/>
<path d="M342.54 216.88L342.54 227.89"/>
<path d="M344.11 243.22L344.11 235.75"/>
<path d="M291.42 243.22L291.42 235.75"/>
<path d="M266.65 227.89L290.24 227.89"/>
<path d="M298.89 210.19L298.89 234.57"/>
<path d="M351.18 210.19L351.18 234.57"/>
<path d="M298.89 234.57L258.4 234.57"/>
<path d="M291.42 235.75L275.7 235.75"/>
<path d="M275.7 238.5L291.42 238.5"/>
<path d="M252.5 154.36L252.5 91.46"/>
<path d="M239.13 83.59L239.13 154.36"/>
<path d="M235.59 83.59L235.59 147.68"/>
<path d="M278.45 279.79L330.74 279.79"/>
<path d="M278.45 284.5L330.74 284.5"/>
<path d="M228.52 298.26L228.52 324.21"/>
<path d="M224.98 298.26L224.98 320.68"/>
<path d="M222.23 83.59L222.23 133.92"/>
<path d="M238.35 294.33L228.91 294.33"/>
<path d="M380.67 294.33L371.24 294.33"/>
<path d="M237.17 298.26L228.52 298.26"/>
<path d="M380.67 298.26L372.02 298.26"/>
<path d="M215.54 214.52L215.54 230.25"/>
<path d="M213.58 212.55L213.58 232.21"/>
<path d="M330.74 304.95L278.45 304.95"/>
<path d="M330.74 308.49L278.45 308.49"/>
<path d="M203.75 320.68L203.75 257.38"/>
<path d="M200.21 324.21L200.21 258.16"/>
<path d="M226.16 295.51L228.52 298.26"/>
<path d="M224.98 320.68L203.75 320.68"/>
<path d="M405.44 320.68L384.6 320.68"/>
<path d="M228.52 324.21L200.21 324.21"/>
<path d="M409.37 324.21L380.67 324.21"/>
<path d="M278.45 324.61L330.74 324.61"/>
<path d="M184.09 264.06L184.09 326.97"/>
<path d="M224.98 320.68L228.52 324.21"/>
<path d="M377.92 339.94L412.13 339.94"/>
<path d="M197.46 339.94L231.27 339.94"/>
</g>
</g>
</svg>
