<?xml version="1.0" standalone="no"?><svg xmlns="http://www.w3.org/2000/svg" width="600.000" height="450.000" viewBox="0.0 0.0 600.000 450.000" version="1.1">
<title>Acme Converter - Post-processed with EDS-Designer: 14.44 (info@symca.com)</title>
<desc>Acme Converter - Post-processed with EDS-Designer: 14.44 (info@symca.com)</desc>
<g id="EDS_STYLE_GROUP" fill="none" stroke="black" stroke-width="1.0">
<g id="0" display="visible">
<path d="M262.14 370.61L262.14 351.87M263.04 351.87L263.04 370.61M259.47 351.87L270.18 351.87M270.18 351.87L272.85 352.76M272.85 352.76L273.75 353.65M273.75 353.65L274.64 355.44M274.64 355.44L274.64 357.22M274.64 357.22L273.75 359.01M273.75 359.01L272.85 359.9M272.85 359.9L270.18 360.79M270.18 351.87L271.96 352.76M271.96 352.76L272.85 353.65M272.85 353.65L273.75 355.44M273.75 355.44L273.75 357.22M273.75 357.22L272.85 359.01M272.85 359.01L271.96 359.9M271.96 359.9L270.18 360.79M263.04 360.79L270.18 360.79M270.18 360.79L272.85 361.68M272.85 361.68L273.75 362.58M273.75 362.58L274.64 364.36M274.64 364.36L274.64 367.04M274.64 367.04L273.75 368.82M273.75 368.82L272.85 369.72M272.85 369.72L270.18 370.61M270.18 370.61L259.47 370.61M270.18 360.79L271.96 361.68M271.96 361.68L272.85 362.58M272.85 362.58L273.75 364.36M273.75 364.36L273.75 367.04M273.75 367.04L272.85 368.82M272.85 368.82L271.96 369.72M271.96 369.72L270.18 370.61M281.78 370.61L281.78 351.87M282.67 351.87L282.67 370.61M279.1 351.87L285.35 351.87M279.1 370.61L292.49 370.61M292.49 370.61L292.49 365.25M292.49 365.25L291.6 370.61M303.2 351.87L296.95 370.61M303.2 351.87L309.45 370.61M303.2 354.54L308.56 370.61M298.74 365.25L306.77 365.25M295.17 370.61L300.52 370.61M305.88 370.61L311.23 370.61M326.41 354.54L327.3 357.22M327.3 357.22L327.3 351.87M327.3 351.87L326.41 354.54M326.41 354.54L324.62 352.76M324.62 352.76L321.94 351.87M321.94 351.87L320.16 351.87M320.16 351.87L317.48 352.76M317.48 352.76L315.7 354.54M315.7 354.54L314.8 356.33M314.8 356.33L313.91 359.01M313.91 359.01L313.91 363.47M313.91 363.47L314.8 366.15M314.8 366.15L315.7 367.93M315.7 367.93L317.48 369.72M317.48 369.72L320.16 370.61M320.16 370.61L321.94 370.61M321.94 370.61L324.62 369.72M324.62 369.72L326.41 367.93M326.41 367.93L327.3 366.15M320.16 351.87L318.37 352.76M318.37 352.76L316.59 354.54M316.59 354.54L315.7 356.33M315.7 356.33L314.8 359.01M314.8 359.01L314.8 363.47M314.8 363.47L315.7 366.15M315.7 366.15L316.59 367.93M316.59 367.93L318.37 369.72M318.37 369.72L320.16 370.61M335.33 370.61L335.33 351.87M336.23 351.87L336.23 370.61M347.83 351.87L336.23 363.47M340.69 359.9L347.83 370.61M339.8 359.9L346.94 370.61M332.66 351.87L338.9 351.87M344.26 351.87L349.61 351.87M332.66 370.61L338.9 370.61M344.26 370.61L349.61 370.61"/>
<path d="M190.48 215.36L191.91 214.65M191.91 214.65L194.05 212.51M194.05 212.51L194.05 227.5"/>
<path d="M298.65 137.06L298.65 135.78M298.65 135.27L298.65 135.19M298.65 134.68L298.65 132.63M298.65 132.12L298.65 132.04M298.65 131.53L298.65 130.25"/>
<path d="M310.46 130.25L310.46 131.53M310.46 132.04L310.46 132.12M310.46 132.64L310.46 134.68M310.46 135.19L310.46 135.27M310.46 135.78L310.46 137.06"/>
<path d="M234.19 125.5L235.62 125.5M236.2 125.5L236.29 125.5M236.87 125.5L239.16 125.5M239.73 125.5L239.83 125.5M240.4 125.5L241.84 125.5"/>
<path d="M339.48 115.31L339.48 114.4M339.48 114.04L339.48 113.98M339.48 113.61L339.48 112.15M339.48 111.79L339.48 111.73M339.48 111.36L339.48 110.45"/>
<path d="M269.63 110.45L269.63 111.36M269.63 111.73L269.63 111.79M269.63 112.15L269.63 113.61M269.63 113.98L269.63 114.04M269.63 114.4L269.63 115.32"/>
<path d="M250.95 115.75L249.26 115.75M248.58 115.75L248.47 115.75M247.8 115.75L245.1 115.75M244.42 115.75L244.31 115.75M243.64 115.75L241.95 115.75"/>
<path d="M365.66 116.2L365.66 115.19M365.66 114.79L365.66 114.72M365.66 114.31L365.66 112.69M365.66 112.29L365.66 112.22M365.66 111.82L365.66 110.8"/>
<path d="M210.47 188.85L210.24 188.85M210.16 188.85L210.14 188.85M210.05 188.85L209.7 188.85M209.61 188.85L209.59 188.85M209.51 188.85L209.28 188.85"/>
<path d="M395.11 256.33L394.85 256.33M394.75 256.33L394.73 256.33M394.63 256.33L394.22 256.33M394.12 256.33L394.1 256.33M394 256.33L393.74 256.33"/>
<path d="M399.32 200.1L398.68 200.1"/>
<path d="M210.7 157.59L210.7 158.77M210.7 159.24L210.7 159.32M210.7 159.79L210.7 161.69M210.7 162.16L210.7 162.24M210.7 162.71L210.7 163.89"/>
<path d="M225.83 166.14L225.83 164.11M225.83 163.3L225.83 163.17M225.83 162.36L225.83 159.12M225.83 158.31L225.83 158.17M225.83 157.36L225.83 155.34"/>
<path d="M266.93 194.85L265.2 194.85M264.5 194.85L264.39 194.85M263.69 194.85L260.92 194.85M260.22 194.85L260.11 194.85M259.41 194.85L257.68 194.85"/>
<path d="M346.8 209.47L347.9 209.47M348.34 209.47L348.42 209.47M348.86 209.47L350.62 209.47M351.06 209.47L351.14 209.47M351.58 209.47L352.68 209.47"/>
<path d="M352.58 246.96L351.5 246.96M351.07 246.96L351 246.96M350.56 246.96L348.83 246.96M348.4 246.96L348.32 246.96M347.89 246.96L346.81 246.96"/>
<path d="M213.46 222.62L213.46 222.35"/>
<path d="M395.65 228.59L395.65 227.75M395.65 227.41L395.65 227.35M395.65 227.02L395.65 225.67M395.65 225.33L395.65 225.27M395.65 224.94L395.65 224.09"/>
<path d="M358.25 241.71L356.01 241.71M355.11 241.71L354.96 241.71M354.06 241.71L350.48 241.71M349.58 241.71L349.43 241.71M348.53 241.71L346.29 241.71"/>
<path d="M346.29 214.72L348.54 214.72M349.43 214.72L349.58 214.72M350.48 214.72L354.07 214.72M354.96 214.72L355.11 214.72M356.01 214.72L358.25 214.72"/>
<path d="M261.82 241.71L261.82 236.65M261.82 234.63L261.82 234.29M261.82 232.26L261.82 224.17M261.82 222.14L261.82 221.81M261.82 219.78L261.82 214.72"/>
<path d="M243.45 116.05L243.45 115.38M243.45 115.11L243.45 115.06M243.45 114.79L243.45 113.71M243.45 113.44L243.45 113.4M243.45 113.13L243.45 112.45"/>
<path d="M242.7 88.76L244.39 88.76M245.06 88.76L245.17 88.76M245.85 88.76L248.55 88.76M249.22 88.76L249.33 88.76M250.01 88.76L251.7 88.76"/>
<path d="M242.77 109.76L244.29 109.76M244.9 109.76L245 109.76M245.61 109.76L248.04 109.76M248.64 109.76L248.75 109.76M249.35 109.76L250.87 109.76"/>
<path d="M257.66 125.5L259.43 125.5M260.14 125.5L260.25 125.5M260.96 125.5L263.8 125.5M264.51 125.5L264.62 125.5M265.33 125.5L267.1 125.5"/>
<path d="M374.92 125.5L373.48 125.5M372.91 125.5L372.81 125.5M372.24 125.5L369.94 125.5M369.37 125.5L369.27 125.5M368.7 125.5L367.27 125.5"/>
<path d="M211.73 155.66L211.73 155.28M211.73 155.13L211.73 155.11M211.73 154.96L211.73 154.36M211.73 154.21L211.73 154.19M211.73 154.04L211.73 153.67"/>
<path d="M397.38 141.53L397.38 141.24M397.38 141.13L397.38 141.11M397.38 140.99L397.38 140.53M397.38 140.41L397.38 140.4M397.38 140.28L397.38 139.99"/>
<path d="M250.2 112.45L250.2 113.13M250.2 113.4L250.2 113.44M250.2 113.71L250.2 114.8M250.2 115.07L250.2 115.11M250.2 115.38L250.2 116.06"/>
<path d="M358.91 110.8L358.91 111.82M358.91 112.22L358.91 112.29M358.91 112.7L358.91 114.32M358.91 114.72L358.91 114.79M358.91 115.19L358.91 116.21"/>
<path d="M332.69 108.26L276.42 108.26"/>
<path d="M331.17 120.59L331.17 125.5"/>
<path d="M331.17 120.59L331.17 118.72"/>
<path d="M331.17 118.72L331.17 117.25"/>
<path d="M331.17 104.67L331.17 106.76"/>
<path d="M331.17 104.67L331.17 104.51"/>
<path d="M331.17 104.51L331.17 103.68"/>
<path d="M331.17 103.68L331.17 101.03"/>
<path d="M331.17 100.38L331.17 101.03"/>
<path d="M331.06 107.32L330.51 106.64M330.51 106.64L329.67 106.38"/>
<path d="M339.48 116.4L331.17 116.4"/>
<path d="M331.17 116.38L331.17 116.4"/>
<path d="M331.17 116.38L277.94 116.38"/>
<path d="M277.94 116.4L277.94 116.38"/>
<path d="M269.63 116.4L277.94 116.4"/>
<path d="M269.27 116.41L269.63 116.4"/>
<path d="M269.27 116.41L258.46 117.11"/>
<path d="M258.44 117.11L258.46 117.11"/>
<path d="M258.44 117.11L258.44 118.72"/>
<path d="M258.44 118.72L277.94 118.72"/>
<path d="M277.94 117.25L277.94 118.72"/>
<path d="M277.94 117.25L278.1 117.23"/>
<path d="M278.1 117.23L331.01 117.23"/>
<path d="M331.17 117.25L331.01 117.23"/>
<path d="M331.17 118.72L350.66 118.72"/>
<path d="M350.66 117.11L350.66 118.72"/>
<path d="M350.65 117.11L350.66 117.11"/>
<path d="M339.84 116.41L350.65 117.11"/>
<path d="M339.48 116.4L339.84 116.41"/>
<path d="M298.65 136.49L269.69 136.49"/>
<path d="M298.65 136.49L298.65 130.82"/>
<path d="M300.72 128.67L299.25 129.33M299.25 129.33L298.65 130.82"/>
<path d="M308.39 128.67L300.72 128.67"/>
<path d="M310.46 130.82L309.85 129.33M309.85 129.33L308.39 128.67"/>
<path d="M310.46 130.82L310.46 136.49"/>
<path d="M339.42 136.49L310.46 136.49"/>
<path d="M339.42 136.49L339.42 136.46"/>
<path d="M339.42 136.46L339.42 128.87"/>
<path d="M342.79 125.5L341.1 125.95M341.1 125.95L339.87 127.19M339.87 127.19L339.42 128.87"/>
<path d="M342.79 125.5L350.66 125.5"/>
<path d="M350.66 125.5L350.66 120.59"/>
<path d="M331.17 120.59L350.66 120.59"/>
<path d="M329.67 127L330.42 126.8M330.42 126.8L330.97 126.25M330.97 126.25L331.17 125.5"/>
<path d="M279.44 127L329.67 127"/>
<path d="M277.94 125.5L278.14 126.25M278.14 126.25L278.69 126.8M278.69 126.8L279.44 127"/>
<path d="M277.94 120.59L277.94 125.5"/>
<path d="M258.44 120.59L277.94 120.59"/>
<path d="M258.44 125.5L258.44 120.59"/>
<path d="M258.44 125.5L266.32 125.5"/>
<path d="M269.69 128.87L268.7 126.49M268.7 126.49L266.32 125.5"/>
<path d="M269.69 128.87L269.69 136.46"/>
<path d="M269.69 136.46L269.69 136.49"/>
<path d="M325.17 106.38L329.67 106.38"/>
<path d="M283.94 106.38L325.17 106.38"/>
<path d="M283.94 106.38L279.44 106.38"/>
<path d="M339.48 114.9L339.48 116.4"/>
<path d="M339.84 116.41L340.86 115.97M340.86 115.97L341.29 114.91"/>
<path d="M339.48 114.9L341.29 114.91"/>
<path d="M350.65 117.11L351.67 116.67M351.67 116.67L352.1 115.61"/>
<path d="M341.29 114.91L352.1 115.61"/>
<path d="M350.66 117.11L351.72 116.67M351.72 116.67L352.16 115.61"/>
<path d="M352.1 115.61L352.16 115.61"/>
<path d="M350.66 118.72L351.72 118.28M351.72 118.28L352.16 117.22"/>
<path d="M352.16 115.61L352.16 117.22"/>
<path d="M277.94 100.38L277.94 101.03"/>
<path d="M277.94 103.68L277.94 101.03"/>
<path d="M277.94 103.68L277.94 104.51"/>
<path d="M277.94 104.51L277.94 104.67"/>
<path d="M277.94 104.67L277.94 106.76"/>
<path d="M277.94 120.59L277.94 118.72"/>
<path d="M256.94 117.22L257.38 118.28M257.38 118.28L258.44 118.72"/>
<path d="M256.94 115.61L257.15 116.36M257.15 116.36L257.69 116.91M257.69 116.91L258.44 117.11"/>
<path d="M256.94 115.61L256.94 117.22"/>
<path d="M257.01 115.61L257.43 116.66M257.43 116.66L258.46 117.12"/>
<path d="M256.94 115.61L257.01 115.61"/>
<path d="M267.82 114.91L268.24 115.97M268.24 115.97L269.27 116.41"/>
<path d="M267.82 114.91L257.01 115.61"/>
<path d="M269.63 116.4L269.63 114.9"/>
<path d="M267.82 114.91L269.63 114.9"/>
<path d="M269.63 114.9L277.94 114.9"/>
<path d="M277.94 116.38L277.94 114.9"/>
<path d="M331.17 116.38L331.17 114.9"/>
<path d="M339.48 114.9L331.17 114.9"/>
<path d="M299.27 136.49L298.65 136.49"/>
<path d="M299.27 136.49L299.27 130.82"/>
<path d="M299.27 130.82L298.65 130.82"/>
<path d="M300.75 129.28L299.7 129.75M299.7 129.75L299.27 130.82"/>
<path d="M300.75 129.28L300.72 128.67"/>
<path d="M308.36 129.28L300.75 129.28"/>
<path d="M308.36 129.28L308.39 128.67"/>
<path d="M309.84 130.82L309.41 129.75M309.41 129.75L308.36 129.28"/>
<path d="M309.84 130.82L310.46 130.82"/>
<path d="M309.84 130.82L309.84 136.49"/>
<path d="M309.84 136.49L310.46 136.49"/>
<path d="M340.92 136.48L339.42 136.49"/>
<path d="M340.92 136.48L340.92 136.46"/>
<path d="M340.92 136.46L339.42 136.46"/>
<path d="M340.92 128.87L339.42 128.87"/>
<path d="M342.79 127L342.79 125.5"/>
<path d="M350.66 127L350.66 125.5"/>
<path d="M352.16 123.63L352.16 120.59"/>
<path d="M352.16 120.59L350.66 120.59"/>
<path d="M351.66 125.5L350.66 125.5"/>
<path d="M351.66 125.5L351.66 123.63"/>
<path d="M258.44 125.5L257.45 125.5"/>
<path d="M256.94 120.59L258.44 120.59"/>
<path d="M256.94 123.63L256.94 120.59"/>
<path d="M257.45 125.5L257.45 123.63"/>
<path d="M258.44 127L258.44 125.5"/>
<path d="M266.32 127L266.32 125.5"/>
<path d="M268.19 128.87L269.69 128.87"/>
<path d="M268.19 136.46L269.69 136.46"/>
<path d="M268.19 136.46L268.19 136.48"/>
<path d="M268.19 136.48L269.69 136.49"/>
<path d="M279.44 106.38L278.6 106.64M278.6 106.64L278.05 107.32"/>
<path d="M325.17 104.51L325.17 106.38"/>
<path d="M283.94 104.51L325.17 104.51"/>
<path d="M283.94 106.38L283.94 104.51"/>
<path d="M341.29 114.91L341.29 110.85"/>
<path d="M341.29 110.85L341.2 110.85"/>
<path d="M341.2 110.85L339.48 110.85"/>
<path d="M339.48 114.9L339.48 110.85"/>
<path d="M352.1 104.53L352.1 115.61"/>
<path d="M352.1 104.53L351.76 104.67"/>
<path d="M341.29 110.85L351.76 104.67"/>
<path d="M352.16 104.53L352.16 115.61"/>
<path d="M352.1 104.53L352.16 104.53"/>
<path d="M350.66 120.59L350.66 118.72"/>
<path d="M352.16 120.59L352.16 117.22"/>
<path d="M352.16 100.38L352.16 96.26"/>
<path d="M352.16 100.38L352.16 101.03"/>
<path d="M352.16 103.68L352.16 101.03"/>
<path d="M352.16 104.51L352.16 103.68"/>
<path d="M352.16 104.53L352.16 104.51"/>
<path d="M352.16 126.49L352.16 123.63"/>
<path d="M277.94 104.67L277.39 103.36M277.39 103.36L276.06 102.82"/>
<path d="M276.06 102.82L276.06 108.24"/>
<path d="M277.94 106.76L277.81 107.29M277.81 107.29L277.37 107.82M277.37 107.82L276.56 108.18M276.56 108.18L276.06 108.24"/>
<path d="M277.94 104.51L277.69 103.57M277.69 103.57L277 102.88M277 102.88L276.06 102.63"/>
<path d="M276.06 102.63L276.06 102.82"/>
<path d="M277.94 103.68L277.37 102.4M277.37 102.4L276.06 101.91"/>
<path d="M276.06 101.9L276.06 102.63"/>
<path d="M277.94 101.03L277.69 100.13M277.69 100.13L277 99.48M277 99.48L276.06 99.24"/>
<path d="M276.06 101.9L276.06 99.24"/>
<path d="M277.94 100.38L277.69 99.45M277.69 99.45L277 98.76M277 98.76L276.06 98.51"/>
<path d="M276.06 98.51L276.06 99.24"/>
<path d="M283.94 98.51L282.87 98.59M282.87 98.59L280.57 99.22M280.57 99.22L278.53 99.99M278.53 99.99L278.01 100.27M278.01 100.27L277.95 100.35M277.95 100.35L277.94 100.38"/>
<path d="M277.94 104.51L283.94 104.51"/>
<path d="M283.94 104.51L283.94 98.51"/>
<path d="M256.94 126.49L256.94 123.63"/>
<path d="M256.94 120.59L256.94 117.22"/>
<path d="M256.94 115.61L256.94 104.53"/>
<path d="M256.94 104.53L256.94 104.51"/>
<path d="M256.94 104.51L256.94 103.68"/>
<path d="M256.94 103.68L256.94 101.03"/>
<path d="M256.94 100.38L256.94 101.03"/>
<path d="M256.94 100.38L256.94 96.26"/>
<path d="M257.01 115.61L257.01 104.53"/>
<path d="M257.01 104.53L256.94 104.53"/>
<path d="M267.82 110.85L267.82 114.91"/>
<path d="M267.82 110.85L257.35 104.67"/>
<path d="M257.35 104.67L257.01 104.53"/>
<path d="M269.63 110.85L269.63 114.9"/>
<path d="M267.82 110.85L269.63 110.85"/>
<path d="M300.8 165.35L298.93 165.56"/>
<path d="M300.8 165.35L300.8 130.82"/>
<path d="M300.8 130.82L299.27 130.82"/>
<path d="M298.93 138.86L298.97 138.5M298.97 138.5L299.27 136.49"/>
<path d="M298.93 165.56L298.93 138.86"/>
<path d="M300.8 130.82L300.75 129.28"/>
<path d="M308.3 130.82L300.8 130.82"/>
<path d="M308.36 129.28L308.3 130.82"/>
<path d="M308.3 130.82L309.84 130.82"/>
<path d="M310.46 136.49L310.77 137.69M310.77 137.69L310.92 138.09M310.92 138.09L310.93 138.18"/>
<path d="M309.84 136.49L310.15 138.61M310.15 138.61L310.18 138.86"/>
<path d="M310.93 138.19L310.41 138.37M310.41 138.37L310.17 138.86"/>
<path d="M308.3 165.35L308.3 130.82"/>
<path d="M310.18 165.56L308.3 165.35"/>
<path d="M310.18 165.56L310.18 138.86"/>
<path d="M342.79 136.37L342.79 138.36"/>
<path d="M340.92 134.51L340.92 136.46"/>
<path d="M340.92 136.48L341.47 137.8M341.47 137.8L342.79 138.36"/>
<path d="M340.92 128.87L340.92 134.5"/>
<path d="M342.79 127L341.85 127.25M341.85 127.25L341.17 127.94M341.17 127.94L340.92 128.87"/>
<path d="M351.65 125.5L351.81 126.05M351.81 126.05L352.17 126.49"/>
<path d="M352.16 125.5L352.6 126.56M352.6 126.56L353.66 127"/>
<path d="M352.16 127L342.79 127"/>
<path d="M352.16 127L398.27 127"/>
<path d="M352.16 123.63L351.66 123.63"/>
<path d="M256.94 126.49L257.3 126.05M257.3 126.05L257.46 125.5"/>
<path d="M255.45 127L256.19 126.8M256.19 126.8L256.74 126.25M256.74 126.25L256.94 125.5"/>
<path d="M257.45 123.63L256.94 123.63"/>
<path d="M210.83 127L256.94 127"/>
<path d="M266.32 127L256.94 127"/>
<path d="M268.19 128.87L267.94 127.94M267.94 127.94L267.25 127.25M267.25 127.25L266.32 127"/>
<path d="M268.19 128.87L268.19 134.5"/>
<path d="M268.19 136.46L268.19 134.5"/>
<path d="M266.32 138.36L266.32 136.37"/>
<path d="M266.32 138.36L267.64 137.8M267.64 137.8L268.19 136.48"/>
<path d="M269.69 136.49L269.54 137.03M269.54 137.03L268.99 137.62M268.99 137.62L268 138.1M268 138.1L266.32 138.36"/>
<path d="M375.78 80.89L375.78 125.5"/>
<path d="M352.16 104.53L351.91 103.59M351.91 103.59L351.23 102.91M351.23 102.91L350.29 102.66"/>
<path d="M259.16 102.82L276.06 102.82"/>
<path d="M258.82 102.63L276.06 102.63"/>
<path d="M258.82 102.66L258.82 102.63"/>
<path d="M259.16 102.82L258.82 102.66"/>
<path d="M258.82 101.9L276.06 101.9"/>
<path d="M258.82 102.63L258.82 101.9"/>
<path d="M258.82 99.24L276.06 99.24"/>
<path d="M258.82 101.9L258.82 99.24"/>
<path d="M258.82 98.51L276.06 98.51"/>
<path d="M258.82 99.24L258.82 98.51"/>
<path d="M283.94 98.51L276.06 98.51"/>
<path d="M325.17 98.51L333.04 98.51"/>
<path d="M333.04 98.51L350.29 98.51"/>
<path d="M283.94 98.51L325.17 98.51"/>
<path d="M258.44 94.76L257.69 94.96M257.69 94.96L257.15 95.51M257.15 95.51L256.94 96.26"/>
<path d="M258.82 102.65L257.54 103.23M257.54 103.23L257.01 104.53"/>
<path d="M258.82 102.66L257.88 102.91M257.88 102.91L257.2 103.59M257.2 103.59L256.94 104.53"/>
<path d="M269.63 110.85L269.63 109.1"/>
<path d="M310.93 138.18L310.93 138.36"/>
<path d="M310.93 138.36L310.55 138.46M310.55 138.46L310.28 138.74M310.28 138.74L310.18 139.11"/>
<path d="M340.92 134.5L341.47 135.82M341.47 135.82L342.79 136.37"/>
<path d="M352.16 128.87L340.92 128.87"/>
<path d="M352.16 127L352.16 128.87"/>
<path d="M375.78 125.5L376.22 126.56M376.22 126.56L377.28 127"/>
<path d="M374.28 125.5L375.78 125.5"/>
<path d="M374.28 125.5L374.28 127"/>
<path d="M374.28 125.5L367.91 125.5"/>
<path d="M367.91 125.5L367.91 127"/>
<path d="M367.91 125.5L366.41 125.5"/>
<path d="M364.91 127L365.66 126.8M365.66 126.8L366.21 126.25M366.21 126.25L366.41 125.5"/>
<path d="M210.83 127L205.21 128.51M205.21 128.51L201.1 132.62M201.1 132.62L199.59 138.25"/>
<path d="M268.19 128.87L256.94 128.87"/>
<path d="M256.94 128.87L256.94 134.5"/>
<path d="M256.94 134.5L268.19 134.5"/>
<path d="M375.78 80.89L375.58 80.14M375.58 80.14L375.03 79.59M375.03 79.59L374.28 79.39"/>
<path d="M350.29 98.51L350.29 96.01"/>
<path d="M258.82 96.01L350.29 96.01"/>
<path d="M258.82 98.51L258.82 96.01"/>
<path d="M325.17 98.51L326.23 98.59M326.23 98.59L328.54 99.22M328.54 99.22L330.57 99.99M330.57 99.99L331.09 100.27M331.09 100.27L331.16 100.35M331.16 100.35L331.17 100.38"/>
<path d="M258.44 94.76L258.46 94.76"/>
<path d="M350.65 94.76L258.46 94.76"/>
<path d="M350.66 94.76L350.65 94.76"/>
<path d="M257.03 96.14L256.94 96.26"/>
<path d="M258.46 94.76L257.48 95.17M257.48 95.17L257.04 96.14"/>
<path d="M310.93 138.39L310.55 138.49M310.55 138.49L310.28 138.77M310.28 138.77L310.18 139.14"/>
<path d="M342.79 136.37L352.16 136.37"/>
<path d="M352.16 136.37L352.16 134.5"/>
<path d="M340.92 134.5L352.16 134.5"/>
<path d="M374.28 80.89L374.28 125.5"/>
<path d="M234.83 80.89L374.28 80.89"/>
<path d="M234.83 80.89L234.83 125.5"/>
<path d="M234.83 125.5L241.2 125.5"/>
<path d="M241.2 125.5L241.2 112"/>
<path d="M243.45 109.76L242.32 110.06M242.32 110.06L241.5 110.88M241.5 110.88L241.2 112"/>
<path d="M243.45 109.76L250.2 109.76"/>
<path d="M250.2 109.76L250.2 105.26"/>
<path d="M250.2 105.26L243.45 105.26"/>
<path d="M241.2 103.01L241.86 104.6M241.86 104.6L243.45 105.26"/>
<path d="M241.2 103.01L241.2 91.01"/>
<path d="M243.45 88.76L241.86 89.42M241.86 89.42L241.2 91.01"/>
<path d="M243.45 88.76L250.23 88.76"/>
<path d="M252.45 86.89L250.99 87.42M250.99 87.42L250.23 88.76"/>
<path d="M252.45 86.89L356.66 86.89"/>
<path d="M358.88 88.76L358.11 87.42M358.11 87.42L356.66 86.89"/>
<path d="M358.88 88.76L365.66 88.76"/>
<path d="M367.91 91.01L367.25 89.42M367.25 89.42L365.66 88.76"/>
<path d="M367.91 91.01L367.91 103.01"/>
<path d="M365.66 105.26L367.25 104.6M367.25 104.6L367.91 103.01"/>
<path d="M365.66 105.26L358.91 105.26"/>
<path d="M358.91 105.26L358.91 108.26"/>
<path d="M358.91 108.26L365.66 108.26"/>
<path d="M367.91 110.5L367.61 109.38M367.61 109.38L366.78 108.56M366.78 108.56L365.66 108.26"/>
<path d="M367.91 125.5L367.91 110.5"/>
<path d="M366.41 110.5L367.91 110.5"/>
<path d="M366.41 125.5L366.41 110.5"/>
<path d="M242.7 125.5L242.7 112"/>
<path d="M199.59 228.22L199.59 138.25"/>
<path d="M352.16 134.5L396.4 134.5"/>
<path d="M402.02 140.12L400.37 136.14M400.37 136.14L396.4 134.5"/>
<path d="M402.02 140.12L402.02 228.22"/>
<path d="M207.09 228.22L208.96 247.23M208.96 247.23L214.51 265.52M214.51 265.52L223.51 282.37M223.51 282.37L235.63 297.14M235.63 297.14L250.4 309.26M250.4 309.26L267.25 318.26M267.25 318.26L285.54 323.81M285.54 323.81L304.55 325.68M304.55 325.68L323.57 323.81M323.57 323.81L341.85 318.26M341.85 318.26L358.7 309.26M358.7 309.26L373.47 297.14M373.47 297.14L385.6 282.37M385.6 282.37L394.6 265.52M394.6 265.52L400.15 247.23M400.15 247.23L402.02 228.22"/>
<path d="M207.09 140.12L207.09 228.22"/>
<path d="M212.71 134.5L209.9 135.25M209.9 135.25L207.84 137.31M207.84 137.31L207.09 140.12"/>
<path d="M212.71 134.5L256.94 134.5"/>
<path d="M210.83 128.87L256.94 128.87"/>
<path d="M210.83 128.87L206.15 130.13M206.15 130.13L202.72 133.56M202.72 133.56L201.46 138.25"/>
<path d="M201.46 228.22L201.46 138.25"/>
<path d="M201.46 228.22L203.44 248.33M203.44 248.33L209.31 267.67M209.31 267.67L218.84 285.49M218.84 285.49L231.66 301.11M231.66 301.11L247.28 313.93M247.28 313.93L265.1 323.46M265.1 323.46L284.44 329.33M284.44 329.33L304.55 331.31M304.55 331.31L324.67 329.33M324.67 329.33L344 323.46M344 323.46L361.83 313.93M361.83 313.93L377.45 301.11M377.45 301.11L390.27 285.49M390.27 285.49L399.8 267.67M399.8 267.67L405.66 248.33M405.66 248.33L407.64 228.22"/>
<path d="M407.64 138.25L407.64 228.22"/>
<path d="M407.64 138.25L406.39 133.56M406.39 133.56L402.96 130.13M402.96 130.13L398.27 128.87"/>
<path d="M352.16 128.87L398.27 128.87"/>
<path d="M352.16 128.87L352.16 134.5"/>
<path d="M234.83 79.39L374.28 79.39"/>
<path d="M350.29 96.01L350.58 94.89M350.58 94.89L350.63 94.77M350.63 94.77L350.64 94.76M350.64 94.76L350.65 94.76"/>
<path d="M258.82 96.01L258.53 94.89M258.53 94.89L258.48 94.77M258.48 94.77L258.47 94.76M258.47 94.76L258.46 94.76"/>
<path d="M352.16 96.26L351.96 95.51M351.96 95.51L351.41 94.96M351.41 94.96L350.66 94.76"/>
<path d="M352.07 96.14L351.63 95.17M351.63 95.17L350.65 94.76"/>
<path d="M352.16 96.26L352.07 96.14"/>
<path d="M258.82 96.01L257.69 95.97M257.69 95.97L257.24 96.05M257.24 96.05L257.03 96.14"/>
<path d="M310.93 138.39L310.93 138.95"/>
<path d="M352.16 136.37L396.4 136.37"/>
<path d="M396.4 134.5L396.4 136.37"/>
<path d="M234.83 80.89L234.83 79.39"/>
<path d="M374.28 79.39L374.28 80.89"/>
<path d="M366.41 118L366.31 117.63M366.31 117.63L366.03 117.35M366.03 117.35L365.66 117.25"/>
<path d="M366.41 115.75L365.66 115.75"/>
<path d="M365.66 117.25L365.66 115.75"/>
<path d="M366.41 111.25L365.66 111.25"/>
<path d="M365.66 115.75L365.66 111.25"/>
<path d="M365.66 111.25L365.66 109.76"/>
<path d="M366.41 110.5L366.31 110.13M366.31 110.13L366.03 109.86M366.03 109.86L365.66 109.75"/>
<path d="M199.59 228.22L201.38 247.5M201.38 247.5L206.68 266.13M206.68 266.13L215.31 283.47M215.31 283.47L226.98 298.93M226.98 298.93L241.3 311.98M241.3 311.98L257.77 322.18M257.77 322.18L275.83 329.17M275.83 329.17L294.87 332.73M294.87 332.73L314.24 332.73M314.24 332.73L333.28 329.17M333.28 329.17L351.34 322.18M351.34 322.18L367.81 311.98M367.81 311.98L382.12 298.93M382.12 298.93L393.8 283.47M393.8 283.47L402.43 266.13M402.43 266.13L407.73 247.5M407.73 247.5L409.52 228.22"/>
<path d="M398.27 128.87L398.27 127"/>
<path d="M407.64 138.25L409.52 138.25"/>
<path d="M409.52 138.25L408.01 132.62M408.01 132.62L403.9 128.51M403.9 128.51L398.27 127"/>
<path d="M407.64 228.22L409.52 228.22"/>
<path d="M409.52 138.25L409.52 228.22"/>
<path d="M199.59 228.22L201.46 228.22"/>
<path d="M350.29 96.01L351.42 95.97M351.42 95.97L351.86 96.05M351.86 96.05L352.07 96.14"/>
<path d="M310.18 139.14L310.93 139.14"/>
<path d="M310.93 138.95L310.93 139.14"/>
<path d="M374.28 80.89L375.73 80.89"/>
<path d="M365.66 117.25L358.91 117.25"/>
<path d="M365.66 115.75L358.91 115.75"/>
<path d="M358.91 115.75L358.91 116.14"/>
<path d="M358.91 116.14L358.91 117.25"/>
<path d="M358.91 111.25L365.66 111.25"/>
<path d="M358.91 111.25L358.91 115.75"/>
<path d="M358.91 111.25L358.91 109.76"/>
<path d="M358.91 109.76L365.66 109.76"/>
<path d="M218.99 267.58L217.44 267.58"/>
<path d="M210.37 228.22L211.34 241.71M211.34 241.71L214.23 254.92M214.23 254.92L218.99 267.58"/>
<path d="M210.37 188.85L210.37 228.22"/>
<path d="M210.37 188.85L209.39 188.85"/>
<path d="M210.37 188.85L210.35 186.98"/>
<path d="M209.4 186.98L210.35 186.98"/>
<path d="M209.39 188.85L209.4 186.98"/>
<path d="M209.39 188.85L209.39 228.22"/>
<path d="M209.39 228.22L210.35 241.7M210.35 241.7L213.21 254.91M213.21 254.91L217.91 267.58"/>
<path d="M399.26 200.1L398.74 200.1"/>
<path d="M398.74 200.1L398.74 228.22"/>
<path d="M394.45 256.33L397.66 242.44M397.66 242.44L398.74 228.22"/>
<path d="M394.99 256.33L394.45 256.33"/>
<path d="M393.85 258.21L394.45 256.33"/>
<path d="M393.85 258.21L394.37 258.21"/>
<path d="M394.38 258.21L394.99 256.33"/>
<path d="M394.99 256.33L398.19 242.43M398.19 242.43L399.26 228.22"/>
<path d="M399.26 200.1L399.26 228.22"/>
<path d="M217.91 267.58L218.8 269.45"/>
<path d="M219.86 269.45L218.8 269.45"/>
<path d="M219.86 269.45L218.99 267.58"/>
<path d="M210.5 153.96L210.98 153.83"/>
<path d="M210.5 153.95L210.5 153.96"/>
<path d="M210.47 151.37L210.5 153.95"/>
<path d="M210.46 143.87L210.46 151.37"/>
<path d="M210.5 141.29L210.47 143.87"/>
<path d="M210.5 141.28L210.5 141.29"/>
<path d="M210.98 141.4L210.5 141.28"/>
<path d="M210.98 141.4L210.98 140.12"/>
<path d="M210.98 140.12L208.96 140.12"/>
<path d="M209.39 228.22L208.96 228.22"/>
<path d="M210.46 228.22L210.37 228.22"/>
<path d="M210.46 228.22L210.46 222.37"/>
<path d="M210.5 219.98L210.47 222.37"/>
<path d="M210.98 220.06L210.5 219.98"/>
<path d="M210.98 165.99L210.98 220.06"/>
<path d="M210.98 165.99L209.97 165.99"/>
<path d="M209.95 163.36L209.97 165.99"/>
<path d="M209.95 158.11L209.95 163.36"/>
<path d="M209.97 155.49L209.95 158.11"/>
<path d="M209.97 155.49L210.98 155.49"/>
<path d="M210.98 155.49L210.98 153.83"/>
<path d="M358.16 90.26L365.66 90.26"/>
<path d="M252.45 88.39L356.66 88.39"/>
<path d="M357.41 89.14L357.41 89.51"/>
<path d="M357.41 89.51L357.63 90.04M357.63 90.04L358.16 90.26"/>
<path d="M399.26 200.1L399.25 198.23"/>
<path d="M398.76 198.23L399.25 198.23"/>
<path d="M398.74 200.1L398.76 198.23"/>
<path d="M212.71 138.39L212.71 136.37"/>
<path d="M212.71 138.39L211.49 138.9M211.49 138.9L210.98 140.12"/>
<path d="M210.98 220.06L211.73 220.06"/>
<path d="M211.73 165.99L211.73 220.06"/>
<path d="M210.98 165.99L211.73 165.99"/>
<path d="M211.73 165.24L211.2 165.46M211.2 165.46L210.98 165.99"/>
<path d="M210.72 165.24L210.35 165.34M210.35 165.34L210.07 165.61M210.07 165.61L209.97 165.99"/>
<path d="M210.7 163.36L210.72 165.24"/>
<path d="M210.7 163.36L209.95 163.36"/>
<path d="M210.7 158.11L210.7 163.36"/>
<path d="M209.95 158.11L210.7 158.11"/>
<path d="M210.72 156.24L210.7 158.11"/>
<path d="M209.97 155.49L210.19 156.02M210.19 156.02L210.72 156.24"/>
<path d="M210.98 155.49L211.2 156.02M211.2 156.02L211.73 156.24"/>
<path d="M357.41 89.14L358.16 89.14"/>
<path d="M358.16 89.14L357.41 89.51"/>
<path d="M358.54 89.51L358.16 90.26"/>
<path d="M358.16 89.14L358.54 89.51"/>
<path d="M231.45 165.99L232.55 165.74M232.55 165.74L233.45 165.06"/>
<path d="M231.45 165.99L211.73 165.99"/>
<path d="M213.46 222.37L212.98 220.93M212.98 220.93L211.73 220.06"/>
<path d="M213.46 222.59L213.46 222.37"/>
<path d="M256.22 187.84L249.1 198.37M249.1 198.37L244.23 210.11M244.23 210.11L241.83 222.59"/>
<path d="M225.83 165.24L231.45 165.24"/>
<path d="M210.72 165.24L225.83 165.24"/>
<path d="M211.73 165.24L211.73 165.99"/>
<path d="M225.83 165.24L225.83 163.36"/>
<path d="M210.7 163.36L225.83 163.36"/>
<path d="M225.83 158.11L225.83 163.36"/>
<path d="M225.83 158.11L210.7 158.11"/>
<path d="M225.83 156.24L225.83 158.11"/>
<path d="M225.83 156.24L210.72 156.24"/>
<path d="M231.45 156.24L225.83 156.24"/>
<path d="M243.45 90.26L250.95 90.26"/>
<path d="M250.95 90.26L251.32 90.16M251.32 90.16L251.6 89.89M251.6 89.89L251.7 89.51"/>
<path d="M251.7 89.51L251.7 89.14"/>
<path d="M358.88 88.76L358.54 89.51"/>
<path d="M358.16 89.14L358.88 88.76"/>
<path d="M212.71 222.59L242.58 222.59"/>
<path d="M231.45 165.24L232.39 164.99M232.39 164.99L233.08 164.3M233.08 164.3L233.33 163.36"/>
<path d="M225.83 163.36L233.33 163.36"/>
<path d="M233.33 158.11L233.33 163.36"/>
<path d="M225.83 158.11L233.33 158.11"/>
<path d="M233.33 158.11L233.08 157.18M233.08 157.18L232.39 156.49M232.39 156.49L231.45 156.24"/>
<path d="M250.95 89.14L251.7 89.51"/>
<path d="M250.57 89.51L250.95 89.14"/>
<path d="M250.57 89.51L250.95 90.26"/>
<path d="M251.7 89.14L250.95 89.14"/>
<path d="M249.94 198.38L244.35 212.47M244.35 212.47L242.33 227.5M242.33 227.5L244 242.57M244 242.57L249.27 256.79M249.27 256.79L257.82 269.31M257.82 269.31L269.15 279.39M269.15 279.39L282.58 286.43M282.58 286.43L297.31 290.02M297.31 290.02L312.47 289.94M312.47 289.94L327.16 286.19M327.16 286.19L340.51 279M340.51 279L351.73 268.8M351.73 268.8L360.14 256.19M360.14 256.19L365.26 241.91M365.26 241.91L366.77 226.83M366.77 226.83L364.58 211.82M364.58 211.82L358.84 197.79M358.84 197.79L349.87 185.57M349.87 185.57L338.21 175.87"/>
<path d="M270.79 175.94L258.96 185.86M258.96 185.86L249.94 198.38"/>
<path d="M338.21 175.87L325.45 169.6M325.45 169.6L311.6 166.39M311.6 166.39L297.38 166.4M297.38 166.4L283.53 169.64M283.53 169.64L270.79 175.94"/>
<path d="M212.71 228.22L212.71 222.37"/>
<path d="M256.75 188.37L232.92 164.53"/>
<path d="M257.98 186.94L233.33 162.29"/>
<path d="M250.23 88.76L250.95 89.14"/>
<path d="M250.23 88.76L250.57 89.51"/>
<path d="M367.21 233.84L366.71 234.03M366.71 234.03L366.46 234.51"/>
<path d="M367.21 233.84L367.42 231.96"/>
<path d="M367.42 231.96L366.67 231.92"/>
<path d="M367.42 231.96L367.42 224.47"/>
<path d="M367.42 224.47L366.67 224.51"/>
<path d="M367.42 224.47L367.21 222.59"/>
<path d="M366.46 221.92L366.71 222.4M366.71 222.4L367.21 222.59"/>
<path d="M352.83 187.89L352.62 188.38M352.62 188.38L352.78 188.89"/>
<path d="M352.83 187.89L351.66 186.41"/>
<path d="M351.66 186.41L351.1 186.91"/>
<path d="M351.66 186.41L346.36 181.11"/>
<path d="M346.36 181.11L345.86 181.67"/>
<path d="M346.36 181.11L344.88 179.94"/>
<path d="M343.88 179.99L344.39 180.15M344.39 180.15L344.88 179.94"/>
<path d="M308.3 165.35L308.26 166.1"/>
<path d="M308.3 165.35L300.8 165.35"/>
<path d="M300.8 165.35L300.85 166.1"/>
<path d="M264.71 180.42L238.33 154.04"/>
<path d="M263.28 181.64L237.01 155.37"/>
<path d="M237.01 155.37L233.33 158.97"/>
<path d="M270.79 175.95L270.79 176.24"/>
<path d="M270.79 189.47L270.79 176.24"/>
<path d="M270.79 189.52L270.79 189.47"/>
<path d="M212.71 224.47L242.44 224.47"/>
<path d="M212.79 231.96L242.44 231.96"/>
<path d="M212.88 233.84L242.58 233.84"/>
<path d="M235.76 289.06L256.75 268.06"/>
<path d="M237.01 290.45L257.98 269.49"/>
<path d="M242.31 295.76L263.28 274.79"/>
<path d="M243.71 297.01L264.71 276.01"/>
<path d="M298.93 319.89L298.93 290.19"/>
<path d="M308.3 319.98L308.3 290.33"/>
<path d="M300.8 319.98L300.8 290.33"/>
<path d="M310.18 319.89L310.18 290.19"/>
<path d="M365.4 297.01L344.4 276.01"/>
<path d="M372.09 290.45L351.13 269.49"/>
<path d="M366.79 295.76L345.83 274.79"/>
<path d="M373.35 289.06L352.35 268.06"/>
<path d="M367.21 233.84L395.52 233.84"/>
<path d="M395.47 233.36L395.52 233.84"/>
<path d="M395.47 233.36L395.57 231.96"/>
<path d="M367.42 231.96L395.57 231.96"/>
<path d="M395.57 231.96L395.65 228.22"/>
<path d="M395.65 228.22L395.65 224.47"/>
<path d="M367.42 224.47L395.65 224.47"/>
<path d="M395.65 224.47L395.65 222.97"/>
<path d="M395.71 222.59L395.65 222.97"/>
<path d="M367.21 222.59L395.71 222.59"/>
<path d="M367.01 221.86L366.46 221.92"/>
<path d="M352.83 187.89L378.73 162"/>
<path d="M378.73 162L377.4 160.67"/>
<path d="M351.66 186.41L377.4 160.67"/>
<path d="M377.4 160.67L372.1 155.37"/>
<path d="M346.36 181.11L372.1 155.37"/>
<path d="M372.1 155.37L370.77 154.04"/>
<path d="M344.88 179.94L370.77 154.04"/>
<path d="M344.23 179.56L343.88 179.99"/>
<path d="M238.33 154.04L237.04 153.5M237.04 153.5L235.73 154"/>
<path d="M270.79 176.24L259.09 186.09M259.09 186.09L250.16 198.5"/>
<path d="M265.96 193.94L265.19 194.1"/>
<path d="M266.25 193.94L265.96 193.94"/>
<path d="M270.79 189.47L266.25 193.94"/>
<path d="M265.87 194.1L266.08 194.06M266.08 194.06L266.25 193.94"/>
<path d="M290.81 178.73L281.39 182.38M281.39 182.38L272.86 187.8M272.86 187.8L265.57 194.78"/>
<path d="M235.67 288.97L243.8 297.09"/>
<path d="M213.63 233.84L213.64 233.91"/>
<path d="M212.09 236.31L213.26 235.37M213.26 235.37L213.64 233.91"/>
<path d="M212.09 236.31L215.63 254.84M215.63 254.84L222.85 272.27M222.85 272.27L233.45 287.88"/>
<path d="M236.24 288.47L234.94 287.72M234.94 287.72L233.44 287.88"/>
<path d="M236.24 288.47L236.29 288.53"/>
<path d="M241.83 233.84L244.23 246.32M244.23 246.32L249.1 258.07M249.1 258.07L256.22 268.59"/>
<path d="M298.81 319.88L310.3 319.88"/>
<path d="M365.31 297.09L373.43 288.97"/>
<path d="M310.18 319.14L310.25 319.13"/>
<path d="M312.65 320.68L311.71 319.51M311.71 319.51L310.25 319.13"/>
<path d="M312.65 320.68L331.18 317.14M331.18 317.14L348.61 309.92M348.61 309.92L364.22 299.32"/>
<path d="M364.81 296.53L364.05 297.83M364.05 297.83L364.22 299.32"/>
<path d="M364.81 296.53L364.87 296.48"/>
<path d="M310.18 290.94L322.66 288.54M322.66 288.54L334.4 283.67M334.4 283.67L344.93 276.55"/>
<path d="M367.21 222.59L367.21 221.84"/>
<path d="M367.21 221.84L367.01 221.86"/>
<path d="M378.73 162L379.27 160.71M379.27 160.71L378.77 159.4"/>
<path d="M373.37 154L372.1 155.37"/>
<path d="M377.4 160.67L378.77 159.4"/>
<path d="M378.77 159.4L373.37 154"/>
<path d="M373.37 154L372.06 153.5M372.06 153.5L370.77 154.04"/>
<path d="M344.88 179.94L344.35 179.41"/>
<path d="M344.35 179.41L344.23 179.56"/>
<path d="M343.54 194.78L336.24 187.8M336.24 187.8L327.72 182.38M327.72 182.38L318.3 178.73"/>
<path d="M335.65 185.35L336.56 188.05"/>
<path d="M335.65 185.35L335.09 184.61M335.09 184.61L334.19 184.34"/>
<path d="M318.53 178.8L316.09 177.12"/>
<path d="M316.08 177.12L315.24 176.86M315.24 176.86L314.39 177.12"/>
<path d="M318.3 178.73L290.81 178.73"/>
<path d="M297.03 178.73L296.8 178.55"/>
<path d="M296.8 178.55L294.72 177.12"/>
<path d="M294.72 177.12L293.87 176.86M293.87 176.86L293.02 177.12"/>
<path d="M290.94 178.55L290.66 178.77"/>
<path d="M277.76 184.4L274.91 184.34"/>
<path d="M274.91 184.34L274.02 184.61M274.02 184.61L273.46 185.35"/>
<path d="M265.72 194.1L265.96 193.94"/>
<path d="M266.16 194.1L258.45 194.1"/>
<path d="M291.06 178.73L290.94 178.55"/>
<path d="M275.13 186.12L274.91 184.34"/>
<path d="M275.06 186.17L273.46 185.35"/>
<path d="M272.54 188.05L273.46 185.35"/>
<path d="M258.45 194.85L258.45 194.1"/>
<path d="M265.51 194.85L258.45 194.85"/>
<path d="M265.57 194.78L265.51 194.85"/>
<path d="M265.57 194.78L265.57 261.65"/>
<path d="M243.65 297.26L243.8 297.09"/>
<path d="M235.51 289.12L235.67 288.97"/>
<path d="M235.51 289.12L243.65 297.26"/>
<path d="M234.49 288.41L233.47 288.73"/>
<path d="M235.22 288.61L235.32 288.67"/>
<path d="M234.94 288.49L235.02 288.52"/>
<path d="M310.25 319.13L310.3 319.88"/>
<path d="M364.75 298.28L365.07 299.3"/>
<path d="M364.83 297.83L364.86 297.75"/>
<path d="M364.95 297.55L365.01 297.45"/>
<path d="M372.87 288.47L373.43 288.97"/>
<path d="M372.82 288.53L372.87 288.47"/>
<path d="M343.54 196.79L344.1 196.63M344.1 196.63L344.46 196.69M344.46 196.69L345.19 197.02M345.19 197.02L345.94 197.57M345.94 197.57L347.25 198.95M347.25 198.95L348.39 200.56"/>
<path d="M352.68 208.99L348.39 200.56"/>
<path d="M352.68 208.99L353.14 210.58M353.14 210.58L353.22 212.17M353.22 212.17L352.95 213.22"/>
<path d="M352.95 243.21L353.23 245.12M353.23 245.12L352.68 247.44"/>
<path d="M348.39 255.87L352.68 247.44"/>
<path d="M250.16 198.5L244.59 212.53M244.59 212.53L242.58 227.49M242.58 227.49L244.24 242.49M244.24 242.49L249.48 256.64M249.48 256.64L257.98 269.11M257.98 269.11L269.25 279.16M269.25 279.16L282.61 286.18M282.61 286.18L297.27 289.76M297.27 289.76L312.36 289.7M312.36 289.7L326.99 285.99M326.99 285.99L340.29 278.85M340.29 278.85L351.47 268.71M351.47 268.71L359.87 256.17M359.87 256.17L364.99 241.97M364.99 241.97L366.52 226.96M366.52 226.96L364.38 212.02M364.38 212.02L358.69 198.04M358.69 198.04L349.79 185.85M349.79 185.85L338.21 176.17"/>
<path d="M338.21 189.42L338.21 176.17"/>
<path d="M334.05 186.17L335.65 185.35"/>
<path d="M333.97 186.12L334.19 184.34"/>
<path d="M334.19 184.34L331.35 184.4"/>
<path d="M315.28 178.73L316.09 177.12"/>
<path d="M315.2 178.73L314.39 177.12"/>
<path d="M293.83 178.73L293.02 177.12"/>
<path d="M290.94 178.55L293.02 177.12"/>
<path d="M296.8 178.55L296.68 178.73"/>
<path d="M312.04 178.73L314.39 177.12"/>
<path d="M258.45 194.1L254.7 195.11M254.7 195.11L251.96 197.85"/>
<path d="M265.57 261.65L272.86 268.63M272.86 268.63L281.39 274.05M281.39 274.05L290.81 277.7"/>
<path d="M261.82 243.96L263.94 243.43M263.94 243.43L265.57 241.95"/>
<path d="M261.82 243.96L250.74 243.96"/>
<path d="M250.74 243.96L248.96 244.55M248.96 244.55L247.88 246.07M247.88 246.07L247.91 247.95"/>
<path d="M247.91 247.95L252.61 258.21"/>
<path d="M252.61 258.21L255.08 260.68M255.08 260.68L258.45 261.58"/>
<path d="M265.51 261.58L258.45 261.58"/>
<path d="M265.57 261.65L265.51 261.58"/>
<path d="M265.57 216.97L265.06 215.1M265.06 215.1L263.69 213.72M263.69 213.72L261.82 213.22"/>
<path d="M265.57 214.48L263.94 213.01M263.94 213.01L261.82 212.47"/>
<path d="M261.82 213.22L261.82 212.47"/>
<path d="M243.65 297.26L242.29 298.62"/>
<path d="M234.14 290.48L235.51 289.12"/>
<path d="M234.14 290.48L242.29 298.62"/>
<path d="M232.88 288.36L232.46 288.6"/>
<path d="M232.45 288.6L232.93 288.87M232.93 288.87L233.47 288.73"/>
<path d="M232.87 288.36L233.28 288.61M233.28 288.61L233.76 288.56"/>
<path d="M235.51 289.12L234.51 288.55M234.51 288.55L233.47 288.73"/>
<path d="M364.7 299.9L364.94 300.32"/>
<path d="M364.94 300.32L365.2 299.84M365.2 299.84L365.07 299.3"/>
<path d="M364.7 299.9L364.95 299.49M364.95 299.49L364.9 299.01"/>
<path d="M395.52 234.59L367.21 234.59"/>
<path d="M352.88 268.59L359.89 258.29M359.89 258.29L364.73 246.8M364.73 246.8L367.21 234.59"/>
<path d="M375.66 287.88L374.17 287.72M374.17 287.72L372.87 288.47"/>
<path d="M375.66 287.88L386.26 272.27M386.26 272.27L393.47 254.84M393.47 254.84L397.02 236.31"/>
<path d="M395.52 234.59L396.05 235.64M396.05 235.64L397.02 236.31"/>
<path d="M347.29 213.22L357.26 213.22"/>
<path d="M357.26 243.21L347.29 243.21"/>
<path d="M251.96 197.85L247.2 208.24"/>
<path d="M258.45 261.58L258.45 262.33"/>
<path d="M266.16 262.33L258.45 262.33"/>
<path d="M266.25 262.49L272.56 268.44"/>
<path d="M266.25 262.49L266.08 262.37M266.08 262.37L265.87 262.33"/>
<path d="M272.54 268.39L273.46 271.08"/>
<path d="M275.06 270.26L273.46 271.08"/>
<path d="M275.13 270.31L274.91 272.09"/>
<path d="M277.76 272.03L274.91 272.09"/>
<path d="M277.69 272.03L290.73 277.72"/>
<path d="M290.66 277.66L290.94 277.88"/>
<path d="M318.3 277.7L290.81 277.7"/>
<path d="M252.61 258.21L251.96 258.58"/>
<path d="M251.96 258.58L254.7 261.32M254.7 261.32L258.45 262.33"/>
<path d="M247.2 248.19L247.91 247.95"/>
<path d="M247.2 248.19L251.96 258.58"/>
<path d="M250.74 243.21L250.74 243.96"/>
<path d="M250.74 243.21L248.52 243.94M248.52 243.94L247.16 245.85M247.16 245.85L247.2 248.19"/>
<path d="M261.82 243.96L261.82 243.21"/>
<path d="M261.82 243.21L250.74 243.21"/>
<path d="M265.57 216.97L264.47 216.97"/>
<path d="M250.74 213.22L261.82 213.22"/>
<path d="M250.74 212.47L261.82 212.47"/>
<path d="M250.74 212.47L250.74 213.22"/>
<path d="M234.07 290.54L234.14 290.48"/>
<path d="M234.07 290.54L242.23 298.7"/>
<path d="M242.22 298.7L242.29 298.62"/>
<path d="M232.46 288.6L232.46 288.61"/>
<path d="M232.46 288.61L232.94 288.87M232.94 288.87L233.47 288.73"/>
<path d="M233.76 288.56L233.45 287.88"/>
<path d="M233.45 287.88L232.87 288.36"/>
<path d="M364.94 300.32L364.95 300.31"/>
<path d="M364.95 300.31L365.21 299.83M365.21 299.83L365.07 299.3"/>
<path d="M364.9 299.01L364.21 299.32"/>
<path d="M364.21 299.32L364.7 299.9"/>
<path d="M351.48 209.47L351.93 210.6M351.93 210.6L351.98 211.72M351.98 211.72L351.73 212.39M351.73 212.39L351.28 212.87M351.28 212.87L350.1 213.22"/>
<path d="M347.29 209.47L351.48 209.47"/>
<path d="M347.29 213.22L347.29 209.47"/>
<path d="M343.61 210.18L344.9 212.36M344.9 212.36L347.29 213.22"/>
<path d="M357.26 243.21L362.17 241.38M362.17 241.38L364.68 236.77"/>
<path d="M347.29 243.21L344.9 244.07M344.9 244.07L343.61 246.25"/>
<path d="M350.1 243.21L350.75 243.3M350.75 243.3L351.32 243.59M351.32 243.59L351.75 244.08M351.75 244.08L351.98 244.74M351.98 244.74L351.75 246.4M351.75 246.4L351.48 246.96"/>
<path d="M347.29 243.21L347.29 246.96"/>
<path d="M351.48 246.96L347.29 246.96"/>
<path d="M247.2 208.24L247.16 210.58M247.16 210.58L248.52 212.49M248.52 212.49L250.74 213.22"/>
<path d="M293.83 277.7L293.02 279.31"/>
<path d="M293.02 279.31L293.87 279.57M293.87 279.57L294.72 279.31"/>
<path d="M293.91 277.7L294.72 279.31"/>
<path d="M296.8 277.88L294.72 279.31"/>
<path d="M296.8 277.88L296.68 277.7"/>
<path d="M296.8 277.88L297.03 277.7"/>
<path d="M295.46 278.8L304.55 279.61M304.55 279.61L313.64 278.8"/>
<path d="M312.04 277.7L314.39 279.31"/>
<path d="M315.2 277.7L314.39 279.31"/>
<path d="M314.39 279.31L315.24 279.57M315.24 279.57L316.08 279.31"/>
<path d="M315.28 277.7L316.09 279.31"/>
<path d="M318.53 277.63L316.09 279.31"/>
<path d="M318.3 277.7L327.72 274.05M327.72 274.05L336.24 268.63M336.24 268.63L343.54 261.65"/>
<path d="M261.82 213.22L261.82 216.97"/>
<path d="M264.47 216.97L261.82 216.97"/>
<path d="M247.91 208.49L247.88 210.36M247.88 210.36L248.96 211.89M248.96 211.89L250.74 212.47"/>
<path d="M247.2 208.24L247.91 208.49"/>
<path d="M242.29 298.62L242.95 299.08M242.95 299.08L243.66 299.33M243.66 299.33L244.04 299.3"/>
<path d="M242.23 298.69L244.16 300.31"/>
<path d="M244.04 299.3L243.9 299.83M243.9 299.83L244.16 300.31"/>
<path d="M366.82 298.62L366.15 299.08M366.15 299.08L365.45 299.33M365.45 299.33L365.07 299.3"/>
<path d="M364.95 300.32L366.88 298.7"/>
<path d="M366.88 298.7L366.82 298.62"/>
<path d="M347.29 209.47L344.64 209.47"/>
<path d="M351.48 209.47L347.29 201.25"/>
<path d="M347.29 209.47L347.29 201.25"/>
<path d="M364.68 236.77L365.28 228.22M365.28 228.22L364.68 219.66"/>
<path d="M344.64 246.96L343.54 246.96"/>
<path d="M347.29 255.18L351.48 246.96"/>
<path d="M347.29 255.18L347.29 246.96"/>
<path d="M331.35 272.03L334.19 272.09"/>
<path d="M333.97 270.31L334.19 272.09"/>
<path d="M334.19 272.09L335.09 271.82M335.09 271.82L335.65 271.08"/>
<path d="M334.05 270.26L335.65 271.08"/>
<path d="M336.56 268.39L335.65 271.08"/>
<path d="M255.74 243.22L256.04 242.74"/>
<path d="M255.03 242.74L256.05 242.74"/>
<path d="M254.72 243.22L255.02 242.75"/>
<path d="M256.05 242.74L258.24 243.21"/>
<path d="M258.24 243.21L257.4 243.03M257.4 243.03L256.57 242.54M256.57 242.54L255.58 241.5M255.58 241.5L254.63 239.46"/>
<path d="M261.82 243.21L261.82 239.46"/>
<path d="M254.63 239.46L261.82 239.46"/>
<path d="M244.16 300.31L244.17 300.31"/>
<path d="M244.04 299.3L243.9 299.84M243.9 299.84L244.17 300.32"/>
<path d="M366.82 298.62L374.96 290.48"/>
<path d="M366.88 298.7L375.04 290.54"/>
<path d="M375.04 290.54L374.96 290.48"/>
<path d="M343.54 199.05L343.62 198.18M343.62 198.18L343.75 197.81M343.75 197.81L343.92 197.58M343.92 197.58L344.22 197.45M344.22 197.45L344.43 197.46M344.43 197.46L344.72 197.58M344.72 197.58L345.3 198.03M345.3 198.03L345.81 198.64M345.81 198.64L347.29 201.25"/>
<path d="M344.64 209.47L343.54 209.47"/>
<path d="M347.29 255.18L346.21 257.21M346.21 257.21L345.55 258.12M345.55 258.12L344.81 258.81M344.81 258.81L344.41 258.98M344.41 258.98L344.13 258.97M344.13 258.97L343.9 258.84M343.9 258.84L343.75 258.62M343.75 258.62L343.58 258.02M343.58 258.02L343.54 257.39"/>
<path d="M347.29 246.96L344.64 246.96"/>
<path d="M348.39 255.87L347.29 255.18"/>
<path d="M255.03 242.74L254.62 242.87M254.62 242.87L254.34 243.21"/>
<path d="M254.31 239.53L254.63 239.46"/>
<path d="M254.31 239.53L256.04 242.75"/>
<path d="M254.63 216.97L253.37 228.22M253.37 228.22L254.63 239.46"/>
<path d="M261.82 239.46L261.82 216.97"/>
<path d="M261.82 216.97L254.63 216.97"/>
<path d="M244.17 300.31L244.42 299.89"/>
<path d="M244.21 299.01L244.16 299.49M244.16 299.49L244.41 299.89"/>
<path d="M374.96 290.48L375.53 289.59M375.53 289.59L375.68 288.94M375.68 288.94L375.64 288.73"/>
<path d="M375.04 290.54L376.65 288.61"/>
<path d="M375.64 288.73L376.17 288.87M376.17 288.87L376.65 288.61"/>
<path d="M348.39 255.87L346.7 258.12M346.7 258.12L345.64 259.1M345.64 259.1L344.52 259.73M344.52 259.73L344 259.8M344 259.8L343.54 259.64"/>
<path d="M254.31 216.9L254.63 216.97"/>
<path d="M254.31 216.9L253.05 228.22M253.05 228.22L254.31 239.53"/>
<path d="M376.65 288.61L376.66 288.6"/>
<path d="M375.64 288.73L376.17 288.87M376.17 288.87L376.66 288.6"/>
<path d="M265.18 262.33L265.96 262.49"/>
<path d="M265.96 262.49L265.72 262.33"/>
<path d="M256.05 213.68L254.31 216.9"/>
<path d="M254.63 216.97L255.23 215.46M255.23 215.46L256.17 214.24M256.17 214.24L257 213.61M257 213.61L258.24 213.22"/>
<path d="M258.24 213.22L256.05 213.69"/>
<path d="M376.66 288.6L376.24 288.36"/>
<path d="M375.35 288.56L375.83 288.61M375.83 288.61L376.24 288.36"/>
<path d="M375.66 287.88L376.24 288.36"/>
<path d="M375.35 288.56L375.66 287.88"/>
<path d="M350.29 102.66L350.29 102.63"/>
<path d="M333.04 102.63L350.29 102.63"/>
<path d="M333.04 102.82L333.04 102.63"/>
<path d="M333.04 102.82L349.94 102.82"/>
<path d="M350.29 102.66L349.94 102.82"/>
<path d="M328.51 109L328.53 109"/>
<path d="M280.6 109L328.51 109"/>
<path d="M280.57 109L280.6 109"/>
<path d="M280.61 110.86L328.5 110.86"/>
<path d="M333.04 102.63L333.04 101.9"/>
<path d="M350.29 102.63L350.29 101.9"/>
<path d="M333.04 101.9L350.29 101.9"/>
<path d="M350.29 101.9L350.29 99.24"/>
<path d="M333.04 99.24L350.29 99.24"/>
<path d="M333.04 101.9L333.04 99.24"/>
<path d="M396.4 138.39L374.12 138.39"/>
<path d="M374.12 138.39L374.12 139.14"/>
<path d="M396.4 139.14L374.12 139.14"/>
<path d="M396.4 138.39L396.4 139.14"/>
<path d="M398.13 140.12L400.15 140.12"/>
<path d="M396.4 138.39L396.4 136.37"/>
<path d="M398.12 140.12L397.62 138.9M397.62 138.9L396.4 138.39"/>
<path d="M397.37 140.12L397.24 139.63M397.24 139.63L396.89 139.27M396.89 139.27L396.4 139.14"/>
<path d="M397.38 140.12L398.13 140.12"/>
<path d="M310.93 139.14L310.93 165.56"/>
<path d="M344.35 179.41L334.18 172.64M334.18 172.64L322.9 167.97M322.9 167.97L310.93 165.56"/>
<path d="M344.35 179.41L370.24 153.51"/>
<path d="M373.88 153.45L372.05 152.75M372.05 152.75L370.24 153.51"/>
<path d="M379.32 158.89L373.88 153.45"/>
<path d="M379.26 162.53L380.02 160.72M380.02 160.72L379.32 158.89"/>
<path d="M379.26 162.53L353.36 188.42"/>
<path d="M367.21 221.84L364.8 209.87M364.8 209.87L360.13 198.59M360.13 198.59L353.36 188.42"/>
<path d="M367.21 221.84L395.71 221.84"/>
<path d="M397.38 220.06L396.3 220.73M396.3 220.73L395.71 221.84"/>
<path d="M397.38 220.06L397.38 153.83"/>
<path d="M395.65 151.37L396.12 152.87M396.12 152.87L397.38 153.83"/>
<path d="M395.65 143.87L395.65 151.37"/>
<path d="M397.38 141.4L396.12 142.36M396.12 142.36L395.65 143.87"/>
<path d="M397.38 141.4L397.38 140.12"/>
<path d="M371.66 140.87L373.16 140.4M373.16 140.4L374.12 139.14"/>
<path d="M371.66 140.87L364.16 140.87"/>
<path d="M361.69 139.14L362.65 140.4M362.65 140.4L364.16 140.87"/>
<path d="M361.69 139.14L310.93 139.14"/>
<path d="M398.13 141.4L398.13 140.12"/>
<path d="M398.13 141.4L397.38 141.4"/>
<path d="M370.24 153.51L370.77 154.04"/>
<path d="M373.88 153.45L373.37 154"/>
<path d="M397.63 142.11L397.99 141.83M397.99 141.83L398.13 141.4"/>
<path d="M397.38 141.4L397.63 142.11"/>
<path d="M298.18 139.14L298.18 138.42"/>
<path d="M298.18 139.14L298.93 139.14"/>
<path d="M298.2 165.75L298.26 166.31"/>
<path d="M310.93 165.56L310.85 166.28"/>
<path d="M310.18 165.56L310.93 165.56"/>
<path d="M310.85 166.28L310.85 166.31"/>
<path d="M251.7 109.76L251.7 104.51"/>
<path d="M251.7 109.76L251.7 112.75"/>
<path d="M251.7 112.75L251.7 115.75"/>
<path d="M250.2 117.25L243.45 117.25"/>
<path d="M251.7 104.51L251.6 104.13M251.6 104.13L251.32 103.86M251.32 103.86L250.95 103.76"/>
<path d="M250.2 115.75L243.45 115.75"/>
<path d="M243.45 115.75L243.45 117.25"/>
<path d="M250.2 117.2L250.2 117.25"/>
<path d="M250.2 115.75L250.2 117.2"/>
<path d="M250.95 103.76L243.45 103.76"/>
<path d="M250.2 105.26L250.95 103.76"/>
<path d="M250.2 105.26L251.7 104.51"/>
<path d="M243.45 112.75L250.2 112.75"/>
<path d="M243.45 115.75L243.45 112.75"/>
<path d="M250.2 112.75L250.2 115.75"/>
<path d="M250.2 117.25L250.95 117.05M250.95 117.05L251.5 116.5M251.5 116.5L251.7 115.75"/>
<path d="M250.2 115.75L251.7 115.75"/>
<path d="M234.83 79.39L234.08 79.59M234.08 79.59L233.53 80.14M233.53 80.14L233.33 80.89"/>
<path d="M233.33 80.89L234.44 80.89"/>
<path d="M250.2 111.25L250.2 109.76"/>
<path d="M250.2 111.25L250.95 111.05M250.95 111.05L251.5 110.5M251.5 110.5L251.7 109.76"/>
<path d="M358.91 108.64L358.91 108.26"/>
<path d="M357.41 108.26L358.91 108.26"/>
<path d="M357.41 108.26L357.85 109.32M357.85 109.32L358.91 109.76"/>
<path d="M358.91 109.76L358.91 108.64"/>
<path d="M362.4 138.89L362.12 138.53M362.12 138.53L361.69 138.39"/>
<path d="M361.69 138.39L361.69 139.14"/>
<path d="M362.4 138.89L361.69 139.14"/>
<path d="M398.6 141.28L398.61 141.29"/>
<path d="M397.97 142.02L398.42 141.76M398.42 141.76L398.6 141.28"/>
<path d="M397.98 142.03L397.97 142.02"/>
<path d="M397.98 142.03L398.43 141.77M398.43 141.77L398.61 141.29"/>
<path d="M398.64 143.87L398.61 141.29"/>
<path d="M397.98 142.03L398.11 142.14M398.11 142.14L398.37 142.64M398.37 142.64L398.54 143.87"/>
<path d="M398.54 143.87L398.64 143.87"/>
<path d="M398.64 151.37L398.64 143.87"/>
<path d="M398.54 151.37L398.54 143.87"/>
<path d="M398.64 151.37L398.54 151.37"/>
<path d="M398.61 153.95L398.64 151.37"/>
<path d="M398.54 151.37L398.37 152.61M398.37 152.61L398.11 153.1M398.11 153.1L397.98 153.21"/>
<path d="M398.61 153.95L398.43 153.46M398.43 153.46L397.98 153.21"/>
<path d="M398.61 153.95L398.6 153.96"/>
<path d="M397.97 153.22L397.98 153.21"/>
<path d="M398.6 153.96L398.42 153.47M398.42 153.47L397.97 153.22"/>
<path d="M398.13 153.83L398.6 153.96"/>
<path d="M398.13 153.83L397.99 153.4M397.99 153.4L397.63 153.13"/>
<path d="M397.98 142.03L397.02 142.67M397.02 142.67L396.65 143.87"/>
<path d="M397.97 142.02L397.32 142.25"/>
<path d="M398.54 143.87L396.65 143.87"/>
<path d="M396.65 143.87L396.65 151.37"/>
<path d="M398.54 151.37L396.65 151.37"/>
<path d="M396.65 151.37L397.02 152.56M397.02 152.56L397.98 153.21"/>
<path d="M396.48 151.92L397.38 153.01"/>
<path d="M397.97 153.22L397.68 153.14"/>
<path d="M397.38 153.83L397.63 153.13"/>
<path d="M398.13 153.83L397.38 153.83"/>
<path d="M396.65 151.37L396.4 151.37"/>
<path d="M367.21 234.59L366.49 234.52"/>
<path d="M367.21 234.59L367.21 233.84"/>
<path d="M353.36 188.42L352.8 188.88"/>
<path d="M352.83 187.89L353.36 188.42"/>
<path d="M211.73 153.83L212.98 152.87M212.98 152.87L213.46 151.37"/>
<path d="M213.46 151.37L212.71 151.37"/>
<path d="M211.73 153.83L211.48 153.13"/>
<path d="M213.46 151.37L213.46 143.87"/>
<path d="M213.46 143.87L212.71 143.87"/>
<path d="M213.46 143.87L212.98 142.36M212.98 142.36L211.73 141.4"/>
<path d="M211.73 141.4L211.48 142.11"/>
<path d="M234.98 139.14L235.95 140.4M235.95 140.4L237.45 140.87"/>
<path d="M237.45 140.87L237.45 140.12"/>
<path d="M235.69 138.89L234.98 139.14"/>
<path d="M237.45 140.87L244.95 140.87"/>
<path d="M244.95 140.87L244.95 140.12"/>
<path d="M244.95 140.87L246.45 140.4M246.45 140.4L247.41 139.14"/>
<path d="M246.71 138.89L247.41 139.14"/>
<path d="M212.71 143.87L212.71 151.37"/>
<path d="M235.69 138.89L235.41 138.53M235.41 138.53L234.98 138.39"/>
<path d="M234.98 139.14L234.98 138.39"/>
<path d="M235.6 138.54L236.24 139.67M236.24 139.67L237.45 140.12"/>
<path d="M244.95 140.12L237.45 140.12"/>
<path d="M244.95 140.12L246.16 139.67M246.16 139.67L246.8 138.54"/>
<path d="M395.72 234.54L396.26 234.42"/>
<path d="M395.52 233.84L395.52 234.59"/>
<path d="M395.52 234.59L395.72 234.54"/>
<path d="M395.71 221.84L396.42 222"/>
<path d="M395.71 222.59L395.71 221.84"/>
<path d="M273.46 271.08L274.02 271.82M274.02 271.82L274.91 272.09"/>
<path d="M211.82 235.61L211.45 235.91M211.45 235.91L211.34 236.38"/>
<path d="M212.09 236.31L211.34 236.38"/>
<path d="M211.82 235.61L212.09 236.31"/>
<path d="M310.3 319.88L310.31 320.1"/>
<path d="M311.33 320.34L310.31 320.1"/>
<path d="M298.81 319.88L297.67 320.24M297.67 320.24L297.08 321.27"/>
<path d="M297.08 321.27L297.47 320.58M297.47 320.58L298.21 320.16M298.21 320.16L298.65 320.1"/>
<path d="M311.95 320.95L312.25 321.32M312.25 321.32L312.71 321.43"/>
<path d="M312.65 320.68L312.71 321.43"/>
<path d="M311.95 320.95L312.65 320.68"/>
<path d="M264.47 239.46L265.57 239.46"/>
<path d="M397.77 236.38L397.66 235.91M397.66 235.91L397.29 235.61"/>
<path d="M397.29 235.61L397.02 236.31"/>
<path d="M397.02 236.31L397.77 236.38"/>
<path d="M357.26 214.72L357.26 213.22"/>
<path d="M363.19 219.87L361.19 216.19M361.19 216.19L357.26 214.72"/>
<path d="M363.19 219.87L364.68 219.66"/>
<path d="M364.68 219.66L362.17 215.06M362.17 215.06L357.26 213.22"/>
<path d="M397.59 220.78L397.98 220.51M397.98 220.51L398.13 220.06"/>
<path d="M398.13 220.06L397.38 220.06"/>
<path d="M397.38 220.06L397.59 220.78"/>
<path d="M358.16 103.76L357.79 103.86M357.79 103.86L357.51 104.13M357.51 104.13L357.41 104.51"/>
<path d="M212.46 143.87L212.71 143.87"/>
<path d="M212.64 143.35L211.75 142.23"/>
<path d="M364.03 140.12L364.16 140.12"/>
<path d="M364.16 139.87L364.16 140.12"/>
<path d="M371.66 140.12L364.16 140.12"/>
<path d="M371.66 140.12L371.66 139.87"/>
<path d="M371.66 139.87L364.16 139.87"/>
<path d="M371.66 139.87L372.85 139.49M372.85 139.49L373.5 138.54"/>
<path d="M409.52 175.08L409.52 153.9"/>
<path d="M409.52 170.03L409.52 153.9"/>
<path d="M409.52 181.52L409.52 164.49"/>
<path d="M409.52 164.49L409.52 147.45"/>
<path d="M396.4 222.26L396.4 222.37"/>
<path d="M396.62 222.37L396.4 222.37"/>
<path d="M396.4 228.22L396.62 228.22"/>
<path d="M396.62 228.22L396.62 222.37"/>
<path d="M396.4 222.37L396.4 228.22"/>
<path d="M396.44 233.97L396.22 233.96"/>
<path d="M396.44 233.97L396.62 228.22"/>
<path d="M396.22 233.96L396.4 228.22"/>
<path d="M396.4 234.82L396.36 234.74"/>
<path d="M396.29 234.54L396.26 234.43"/>
<path d="M212.7 151.49L212.71 151.37"/>
<path d="M212.46 151.37L212.71 151.37"/>
<path d="M396.62 222.37L398.54 222.37"/>
<path d="M396.62 228.22L398.54 228.22"/>
<path d="M398.54 228.22L398.54 222.37"/>
<path d="M397.92 220.73L396.99 221.26M396.99 221.26L396.62 222.37"/>
<path d="M398.54 222.37L398.25 221.03M398.25 221.03L398.13 220.86M398.13 220.86L397.92 220.73"/>
<path d="M397.91 220.72L397.33 220.88"/>
<path d="M210.74 233.98L212.67 233.97"/>
<path d="M212.49 228.22L212.67 233.97"/>
<path d="M212.49 228.22L210.56 228.22"/>
<path d="M210.56 228.22L210.74 233.98"/>
<path d="M211.5 235.69L212.36 235.09M212.36 235.09L212.67 233.97"/>
<path d="M210.74 233.98L210.89 234.77M210.89 234.77L211.21 235.44M211.21 235.44L211.5 235.69"/>
<path d="M211.5 235.69L212.53 235.1M212.53 235.1L212.89 233.96"/>
<path d="M212.89 233.96L212.67 233.97"/>
<path d="M396.66 235.19L397.61 235.69"/>
<path d="M396.44 233.97L396.63 234.89M396.63 234.89L397.23 235.54M397.23 235.54L397.61 235.69"/>
<path d="M398.37 233.98L398.22 234.77M398.22 234.77L397.9 235.44M397.9 235.44L397.61 235.69"/>
<path d="M396.44 233.97L398.37 233.98"/>
<path d="M398.37 233.98L398.54 228.22"/>
<path d="M244.95 137.97L244.95 139.87"/>
<path d="M244.95 139.87L246.15 139.49M246.15 139.49L246.79 138.54"/>
<path d="M246.79 138.54L246.7 138.43M246.7 138.43L246.35 138.21M246.35 138.21L244.95 137.97"/>
<path d="M237.45 137.97L237.45 139.87"/>
<path d="M244.95 139.87L237.45 139.87"/>
<path d="M244.95 137.97L237.45 137.97"/>
<path d="M235.61 138.54L236.25 139.49M236.25 139.49L237.45 139.87"/>
<path d="M237.45 137.97L236.2 138.15M236.2 138.15L235.72 138.41M235.72 138.41L235.61 138.54"/>
<path d="M371.66 140.12L372.87 139.67M372.87 139.67L373.51 138.54"/>
<path d="M373.51 138.54L373.5 138.54"/>
<path d="M371.66 137.97L371.66 139.87"/>
<path d="M373.5 138.54L373.41 138.43M373.41 138.43L373.06 138.21M373.06 138.21L371.66 137.97"/>
<path d="M364.16 137.97L364.16 139.87"/>
<path d="M371.66 137.97L364.16 137.97"/>
<path d="M362.32 138.54L362.96 139.49M362.96 139.49L364.16 139.87"/>
<path d="M364.16 137.97L362.91 138.15M362.91 138.15L362.42 138.41M362.42 138.41L362.32 138.54"/>
<path d="M362.32 138.54L362.31 138.54"/>
<path d="M362.31 138.54L362.54 139.2"/>
<path d="M357.26 241.71L347.29 241.71"/>
<path d="M357.26 241.71L361.19 240.24M361.19 240.24L363.19 236.56"/>
<path d="M363.19 236.56L363.78 228.22M363.78 228.22L363.19 219.87"/>
<path d="M347.29 214.72L357.26 214.72"/>
<path d="M347.29 241.71L347.29 214.72"/>
<path d="M339.79 260.23L343.54 261.65"/>
<path d="M343.54 194.78L343.54 261.65"/>
<path d="M339.79 196.2L343.54 194.78"/>
<path d="M339.79 196.2L339.79 260.23"/>
<path d="M347.29 214.72L345.77 214.27M345.77 214.27L344.7 213.27M344.7 213.27L344.02 212.04M344.02 212.04L343.54 209.47"/>
<path d="M343.54 246.96L343.73 245.31M343.73 245.31L344.32 243.75M344.32 243.75L344.93 242.88M344.93 242.88L345.77 242.16M345.77 242.16L347.29 241.71"/>
<path d="M373.52 288.88L373.43 288.97"/>
<path d="M373.6 289.12L373.43 288.97"/>
<path d="M298.8 320.1L298.79 322.03"/>
<path d="M298.65 320.1L298.8 320.1"/>
<path d="M297.08 321.27L297.18 321.42M297.18 321.42L297.61 321.73M297.61 321.73L298.79 322.03"/>
<path d="M312.02 321.27L311.93 321.42M311.93 321.42L311.5 321.73M311.5 321.73L310.31 322.03"/>
<path d="M312.03 321.27L311.77 320.73M311.77 320.73L311.32 320.35"/>
<path d="M310.31 320.1L310.31 322.03"/>
<path d="M298.79 320.1L310.31 320.1"/>
<path d="M298.79 322.03L310.31 322.03"/>
<path d="M298.81 319.88L298.8 320.1"/>
<path d="M312.03 321.27L311.43 320.24M311.43 320.24L310.3 319.88"/>
<path d="M339.79 196.2L329.74 187.81M329.74 187.81L317.78 182.48"/>
<path d="M317.78 182.48L291.33 182.48"/>
<path d="M291.33 182.48L279.37 187.81M279.37 187.81L269.32 196.2"/>
<path d="M269.32 196.2L269.32 260.23"/>
<path d="M269.32 260.23L279.37 268.62M279.37 268.62L291.33 273.95"/>
<path d="M317.78 273.95L291.33 273.95"/>
<path d="M317.78 273.95L329.74 268.62M329.74 268.62L339.79 260.23"/>
<path d="M396.42 222L396.44 222.01"/>
<path d="M244.95 140.12L244.95 139.87"/>
<path d="M246.8 138.54L246.79 138.54"/>
<path d="M237.45 139.87L237.45 140.12"/>
<path d="M235.61 138.54L235.6 138.54"/>
<path d="M212.46 143.87L212.46 151.37"/>
<path d="M247.41 139.14L247.41 138.39"/>
<path d="M247.41 138.39L246.98 138.53M246.98 138.53L246.71 138.89"/>
<path d="M212.71 228.22L212.89 233.96"/>
<path d="M212.71 228.22L212.49 228.22"/>
<path d="M212.49 222.37L212.12 221.26M212.12 221.26L211.19 220.73"/>
<path d="M212.71 222.37L212.49 222.37"/>
<path d="M212.71 222.37L212.27 221.25M212.27 221.25L211.19 220.72"/>
<path d="M210.56 222.37L212.49 222.37"/>
<path d="M211.19 220.73L211.07 220.78M211.07 220.78L210.83 221.08M210.83 221.08L210.56 222.37"/>
<path d="M210.56 228.22L210.56 222.37"/>
<path d="M212.49 228.22L212.49 222.37"/>
<path d="M211.73 141.4L210.98 141.4"/>
<path d="M210.98 141.4L211.12 141.83M211.12 141.83L211.48 142.11"/>
<path d="M211.13 142.02L211.44 142.09"/>
<path d="M211.13 142.02L211.13 142.03"/>
<path d="M212.46 143.87L212.08 142.67M212.08 142.67L211.13 142.03"/>
<path d="M210.56 143.87L212.46 143.87"/>
<path d="M211.13 142.03L211.02 142.11M211.02 142.11L210.8 142.47M210.8 142.47L210.56 143.87"/>
<path d="M212.46 151.37L210.56 151.37"/>
<path d="M210.56 143.87L210.56 151.37"/>
<path d="M211.13 153.21L212.08 152.56M212.08 152.56L212.46 151.37"/>
<path d="M210.56 151.37L210.74 152.61M210.74 152.61L211 153.1M211 153.1L211.13 153.21"/>
<path d="M211.13 153.21L211.13 153.22"/>
<path d="M211.13 153.22L211.78 152.98"/>
<path d="M211.48 153.13L211.12 153.4M211.12 153.4L210.98 153.83"/>
<path d="M211.73 153.83L210.98 153.83"/>
<path d="M396.4 151.37L396.4 143.87"/>
<path d="M396.65 143.87L396.4 143.87"/>
<path d="M396.4 143.74L396.4 143.87"/>
<path d="M398.64 228.22L398.54 228.22"/>
<path d="M398.64 228.22L398.64 222.37"/>
<path d="M398.64 222.37L398.54 222.37"/>
<path d="M398.64 222.37L398.61 219.98"/>
<path d="M397.92 220.73L398.41 220.49M398.41 220.49L398.6 219.98"/>
<path d="M397.91 220.72L398.41 220.48M398.41 220.48L398.6 219.98"/>
<path d="M398.6 219.98L398.12 220.06"/>
<path d="M210.46 228.22L210.56 228.22"/>
<path d="M210.46 228.22L210.64 233.98"/>
<path d="M210.64 233.98L210.74 233.98"/>
<path d="M210.64 233.98L210.86 236.49"/>
<path d="M211.5 235.69L211.02 235.96M211.02 235.96L210.87 236.49"/>
<path d="M210.87 236.49L210.87 236.5"/>
<path d="M211.5 235.69L211.02 235.97M211.02 235.97L210.87 236.5"/>
<path d="M210.87 236.5L211.34 236.38"/>
<path d="M296.4 321.42L296.27 321.9"/>
<path d="M296.27 321.9L296.8 321.74M296.8 321.74L297.08 321.27"/>
<path d="M296.4 321.42L296.86 321.31M296.86 321.31L297.16 320.94"/>
<path d="M296.27 321.9L296.28 321.9"/>
<path d="M296.28 321.9L296.8 321.75M296.8 321.75L297.08 321.27"/>
<path d="M296.28 321.91L298.79 322.13"/>
<path d="M298.79 322.13L298.79 322.03"/>
<path d="M298.79 322.13L310.32 322.13"/>
<path d="M310.32 322.13L310.31 322.03"/>
<path d="M310.32 322.13L312.83 321.91"/>
<path d="M312.03 321.27L312.3 321.75M312.3 321.75L312.83 321.9"/>
<path d="M312.83 321.9L312.84 321.9"/>
<path d="M312.03 321.27L312.31 321.74M312.31 321.74L312.84 321.9"/>
<path d="M312.84 321.9L312.71 321.43"/>
<path d="M397.77 236.38L398.24 236.5"/>
<path d="M398.24 236.5L398.08 235.97M398.08 235.97L397.61 235.69"/>
<path d="M398.24 236.5L398.24 236.49"/>
<path d="M398.24 236.49L398.08 235.96M398.08 235.96L397.61 235.69"/>
<path d="M398.24 236.49L398.46 233.98"/>
<path d="M398.47 233.98L398.37 233.98"/>
<path d="M398.47 233.98L398.64 228.22"/>
<path d="M400.15 140.12L400.15 228.22"/>
<path d="M208.96 228.22L210.8 246.87M210.8 246.87L216.24 264.8M216.24 264.8L225.07 281.32M225.07 281.32L236.96 295.81M236.96 295.81L251.44 307.7M251.44 307.7L267.97 316.53M267.97 316.53L285.9 321.97M285.9 321.97L304.55 323.81M304.55 323.81L323.2 321.97M323.2 321.97L341.14 316.53M341.14 316.53L357.66 307.7M357.66 307.7L372.15 295.81M372.15 295.81L384.04 281.32M384.04 281.32L392.87 264.8M392.87 264.8L398.31 246.87M398.31 246.87L400.15 228.22"/>
<path d="M357.41 111.25L357.41 115.75"/>
<path d="M357.41 111.25L357.41 108.26"/>
<path d="M357.41 104.51L357.41 108.26"/>
<path d="M358.91 105.26L357.41 104.51"/>
<path d="M358.91 105.26L358.16 103.76"/>
<path d="M365.66 103.76L358.16 103.76"/>
<path d="M365.66 103.76L366.03 103.66M366.03 103.66L366.31 103.38M366.31 103.38L366.41 103.01"/>
<path d="M251.7 109.76L250.2 109.76"/>
<path d="M243.45 111.25L250.2 111.25"/>
<path d="M250.2 112.75L250.2 111.25"/>
<path d="M243.45 111.25L243.45 112.75"/>
<path d="M242.7 103.01L242.92 103.54M242.92 103.54L243.45 103.76"/>
<path d="M250.2 112.75L251.7 112.75"/>
<path d="M242.7 103.01L242.7 91.01"/>
<path d="M298.93 165.56L298.18 165.56"/>
<path d="M298.18 165.56L298.2 165.75"/>
<path d="M298.93 139.14L298.71 138.61M298.71 138.61L298.18 138.39"/>
<path d="M298.18 138.42L298.18 138.39"/>
<path d="M247.41 138.39L298.18 138.39"/>
<path d="M247.41 139.14L298.18 139.14"/>
<path d="M247.41 138.39L247.54 137.91"/>
<path d="M247.54 137.91L247.05 138.09M247.05 138.09L246.8 138.54"/>
<path d="M247.54 137.91L247.53 137.91"/>
<path d="M247.53 137.91L247.04 138.09M247.04 138.09L246.79 138.54"/>
<path d="M247.53 137.91L244.95 137.88"/>
<path d="M244.95 137.87L244.95 137.97"/>
<path d="M244.95 137.87L237.45 137.87"/>
<path d="M237.45 137.87L237.45 137.97"/>
<path d="M237.45 137.88L234.87 137.91"/>
<path d="M235.61 138.54L235.36 138.09M235.36 138.09L234.87 137.91"/>
<path d="M234.87 137.91L234.86 137.91"/>
<path d="M235.6 138.54L235.35 138.09M235.35 138.09L234.86 137.91"/>
<path d="M234.86 137.91L234.98 138.39"/>
<path d="M212.71 139.14L234.98 139.14"/>
<path d="M212.71 138.39L234.98 138.39"/>
<path d="M212.71 139.14L212.71 138.39"/>
<path d="M256.94 136.37L266.32 136.37"/>
<path d="M212.71 136.37L256.94 136.37"/>
<path d="M398.6 141.28L398.12 141.4"/>
<path d="M398.13 220.06L398.13 153.83"/>
<path d="M395.65 151.37L396.4 151.37"/>
<path d="M395.65 143.87L396.4 143.87"/>
<path d="M371.66 140.12L371.66 140.87"/>
<path d="M373.42 138.89L374.12 139.14"/>
<path d="M364.16 140.87L364.16 140.12"/>
<path d="M400.15 140.12L399.64 138.25M399.64 138.25L398.27 136.87M398.27 136.87L396.4 136.37"/>
<path d="M374.12 138.39L373.69 138.53M373.69 138.53L373.42 138.89"/>
<path d="M374.12 138.39L374.25 137.91"/>
<path d="M374.25 137.91L373.76 138.09M373.76 138.09L373.51 138.54"/>
<path d="M374.25 137.91L374.24 137.91"/>
<path d="M374.24 137.91L373.75 138.09M373.75 138.09L373.5 138.54"/>
<path d="M374.24 137.91L371.66 137.88"/>
<path d="M371.66 137.87L371.66 137.97"/>
<path d="M371.66 137.87L364.16 137.87"/>
<path d="M364.16 137.87L364.16 137.97"/>
<path d="M364.16 137.88L361.58 137.91"/>
<path d="M362.32 138.54L362.06 138.09M362.06 138.09L361.58 137.91"/>
<path d="M361.58 137.91L361.57 137.91"/>
<path d="M362.31 138.54L362.05 138.09M362.05 138.09L361.57 137.91"/>
<path d="M361.57 137.91L361.69 138.39"/>
<path d="M331.17 110.85L339.48 110.85"/>
<path d="M339.48 109L339.48 110.85"/>
<path d="M331.17 109L339.48 109"/>
<path d="M331.17 109L328.53 109"/>
<path d="M328.5 110.86L331.17 110.85"/>
<path d="M375.64 288.73L374.6 288.55M374.6 288.55L373.6 289.12"/>
<path d="M375.64 288.73L375.12 288.48"/>
<path d="M374.96 290.48L373.6 289.12"/>
<path d="M365.45 297.26L373.6 289.12"/>
<path d="M365.45 297.26L366.82 298.62"/>
<path d="M244.04 299.3L244.22 298.26M244.22 298.26L243.65 297.26"/>
<path d="M244.04 299.3L244.29 298.79"/>
<path d="M261.82 239.46L264.47 239.46"/>
<path d="M364.68 236.77L363.19 236.56"/>
<path d="M365.45 297.26L364.94 298.05M364.94 298.05L364.91 298.93M364.91 298.93L365.07 299.3"/>
<path d="M317.78 273.95L318.3 277.7"/>
<path d="M318.44 277.7L331.42 272.03"/>
<path d="M347.29 241.71L347.29 243.21"/>
<path d="M357.26 241.71L357.26 243.21"/>
<path d="M347.29 214.72L347.29 213.22"/>
<path d="M234.14 290.48L233.69 289.81M233.69 289.81L233.44 289.11M233.44 289.11L233.47 288.73"/>
<path d="M232.46 288.61L234.08 290.54"/>
<path d="M255.03 213.69L256.05 213.69"/>
<path d="M256.04 213.69L255.74 213.21"/>
<path d="M255.02 213.69L254.72 213.21"/>
<path d="M291.33 273.95L290.81 277.7"/>
<path d="M291.06 277.7L290.94 277.88"/>
<path d="M290.94 277.88L293.02 279.31"/>
<path d="M265.96 262.49L266.25 262.49"/>
<path d="M252.61 198.23L247.91 208.49"/>
<path d="M252.61 198.23L251.96 197.85"/>
<path d="M376.24 288.36L386.92 272.62M386.92 272.62L394.19 255.05M394.19 255.05L397.77 236.38"/>
<path d="M269.32 260.23L265.57 261.65"/>
<path d="M352.68 247.44L351.48 246.96"/>
<path d="M352.68 208.99L351.48 209.47"/>
<path d="M348.39 200.56L347.29 201.25"/>
<path d="M379.32 158.89L378.77 159.4"/>
<path d="M365.45 297.26L365.31 297.09"/>
<path d="M243.89 297.18L243.8 297.09"/>
<path d="M269.32 196.2L265.57 194.78"/>
<path d="M261.82 243.21L263.69 242.71M263.69 242.71L265.06 241.34M265.06 241.34L265.57 239.46"/>
<path d="M258.45 194.85L255.08 195.76M255.08 195.76L252.61 198.23"/>
<path d="M254.34 213.22L254.62 213.56M254.62 213.56L255.03 213.69"/>
<path d="M317.78 182.48L318.3 178.73"/>
<path d="M291.33 182.48L290.81 178.73"/>
<path d="M293.91 178.73L294.72 177.12"/>
<path d="M378.73 162L379.26 162.53"/>
<path d="M312.71 321.43L331.39 317.86M331.39 317.86L348.96 310.58M348.96 310.58L364.7 299.9"/>
<path d="M364.81 296.53L365.31 297.09"/>
<path d="M213.64 233.91L212.89 233.96"/>
<path d="M211.34 236.38L214.91 255.05M214.91 255.05L222.19 272.62M222.19 272.62L232.88 288.35"/>
<path d="M235.67 288.97L236.24 288.47"/>
<path d="M238.33 154.04L237.01 155.37"/>
<path d="M237.01 155.37L235.73 154"/>
<path d="M395.71 222.59L396.18 222.43M396.18 222.43L396.44 222.01"/>
<path d="M395.65 222.97L396.18 222.79M396.18 222.79L396.4 222.37"/>
<path d="M396.4 224.47L395.65 224.47"/>
<path d="M396.4 228.22L395.65 228.22"/>
<path d="M395.57 231.96L396.32 232"/>
<path d="M395.47 233.36L395.92 233.48M395.92 233.48L396.15 233.7M396.15 233.7L396.22 233.96"/>
<path d="M396.25 234.42L395.99 234M395.99 234L395.52 233.84"/>
<path d="M264.17 276.55L274.7 283.67M274.7 283.67L286.45 288.54M286.45 288.54L298.93 290.94"/>
<path d="M244.42 299.89L260.15 310.57M260.15 310.57L277.72 317.85M277.72 317.85L296.4 321.42"/>
<path d="M298.18 165.56L298.18 139.14"/>
<path d="M212.71 139.14L212.02 139.43M212.02 139.43L211.73 140.12"/>
<path d="M211.73 141.4L211.73 140.12"/>
<path d="M211.73 155.49L211.73 153.83"/>
<path d="M211.73 155.49L231.45 155.49"/>
<path d="M233.34 156.29L232.48 155.7M232.48 155.7L231.45 155.49"/>
<path d="M298.18 165.56L285.97 168.04M285.97 168.04L274.48 172.88M274.48 172.88L264.17 179.88"/>
<path d="M352.8 188.88L352.78 188.89"/>
<path d="M366.49 234.52L366.46 234.51"/>
<path d="M338.21 175.87L338.21 176.17"/>
<path d="M231.45 155.49L231.45 156.24"/>
<path d="M235.73 154L232.81 156.82"/>
<path d="M243.45 90.26L243.07 90.36M243.07 90.36L242.8 90.64M242.8 90.64L242.7 91.01"/>
<path d="M211.73 156.24L211.73 155.49"/>
<path d="M231.45 165.99L231.45 165.24"/>
<path d="M213.46 222.37L212.71 222.37"/>
<path d="M211.52 220.78L211.73 220.06"/>
<path d="M211.73 155.49L210.98 155.49"/>
<path d="M210.98 220.06L211.13 220.51M211.13 220.51L211.52 220.78"/>
<path d="M210.98 140.12L211.73 140.12"/>
<path d="M212.71 136.37L210.83 136.87M210.83 136.87L209.46 138.25M209.46 138.25L208.96 140.12"/>
<path d="M252.45 88.39L252.07 88.49M252.07 88.49L251.8 88.76M251.8 88.76L251.7 89.14"/>
<path d="M210.5 219.98L210.7 220.48M210.7 220.48L211.19 220.72"/>
<path d="M210.5 219.98L210.7 220.49M210.7 220.49L211.19 220.73"/>
<path d="M210.56 222.37L210.46 222.37"/>
<path d="M208.96 140.12L208.96 228.22"/>
<path d="M210.5 141.28L210.68 141.76M210.68 141.76L211.13 142.02"/>
<path d="M210.5 141.29L210.68 141.77M210.68 141.77L211.13 142.03"/>
<path d="M210.46 143.87L210.56 143.87"/>
<path d="M210.46 151.37L210.56 151.37"/>
<path d="M211.13 153.21L210.68 153.46M210.68 153.46L210.5 153.95"/>
<path d="M211.13 153.22L210.68 153.47M210.68 153.47L210.5 153.96"/>
<path d="M398.64 228.22L398.74 228.22"/>
<path d="M399.26 228.22L400.15 228.22"/>
<path d="M357.41 89.14L357.31 88.76M357.31 88.76L357.04 88.49M357.04 88.49L356.66 88.39"/>
<path d="M357.41 111.25L358.91 111.25"/>
<path d="M357.41 115.75L358.91 115.75"/>
<path d="M357.41 115.75L357.85 116.81M357.85 116.81L358.91 117.25"/>
<path d="M234.44 80.89L234.83 80.89"/>
<path d="M361.69 138.39L310.93 138.39"/>
<path d="M366.41 91.01L366.31 90.64M366.31 90.64L366.03 90.36M366.03 90.36L365.66 90.26"/>
<path d="M366.41 91.01L366.41 103.01"/>
<path d="M400.15 140.12L402.02 140.12"/>
<path d="M402.02 228.22L400.15 228.22"/>
<path d="M207.09 228.22L208.96 228.22"/>
<path d="M207.09 140.12L208.96 140.12"/>
<path d="M212.71 136.37L212.71 134.5"/>
<path d="M256.94 136.37L256.94 134.5"/>
<path d="M201.46 138.25L199.59 138.25"/>
<path d="M243.45 117.25L243.07 117.35M243.07 117.35L242.8 117.63M242.8 117.63L242.7 118"/>
<path d="M243.45 115.75L242.7 115.75"/>
<path d="M243.45 112.75L242.7 112.75"/>
<path d="M243.45 111.25L243.07 111.35M243.07 111.35L242.8 111.63M242.8 111.63L242.7 112"/>
<path d="M365.66 108.26L365.66 109.76"/>
<path d="M365.66 105.26L365.66 103.76"/>
<path d="M366.41 103.01L367.91 103.01"/>
<path d="M367.91 91.01L366.41 91.01"/>
<path d="M365.66 90.26L365.66 88.76"/>
<path d="M356.66 88.39L356.66 86.89"/>
<path d="M252.45 86.89L252.45 88.39"/>
<path d="M243.45 88.76L243.45 90.26"/>
<path d="M242.7 91.01L241.2 91.01"/>
<path d="M241.2 103.01L242.7 103.01"/>
<path d="M243.45 103.76L243.45 105.26"/>
<path d="M243.45 111.25L243.45 109.76"/>
<path d="M241.2 112L242.7 112"/>
<path d="M242.7 125.5L241.2 125.5"/>
<path d="M233.33 80.89L233.33 125.5"/>
<path d="M234.83 125.5L233.33 125.5"/>
<path d="M375.73 80.89L375.78 80.89"/>
<path d="M266.32 136.37L267.25 136.12M267.25 136.12L267.94 135.43M267.94 135.43L268.19 134.5"/>
<path d="M210.83 128.87L210.83 127"/>
<path d="M310.18 165.56L310.37 166.06M310.37 166.06L310.85 166.31"/>
<path d="M298.26 166.31L298.74 166.06M298.74 166.06L298.93 165.56"/>
<path d="M298.93 139.11L298.83 138.74M298.83 138.74L298.56 138.46M298.56 138.46L298.18 138.36"/>
<path d="M298.18 138.18L298.18 138.36"/>
<path d="M298.93 138.86L298.71 138.38M298.71 138.38L298.18 138.18"/>
<path d="M277.94 110.85L280.61 110.86"/>
<path d="M280.57 109L277.94 109"/>
<path d="M269.63 109L277.94 109"/>
<path d="M269.63 109.1L269.63 109"/>
<path d="M269.63 110.85L277.94 110.85"/>
<path d="M269.63 109L268.37 109.57M268.37 109.57L267.82 110.86"/>
<path d="M350.29 99.24L350.29 98.51"/>
<path d="M333.04 98.51L333.04 99.24"/>
<path d="M352.1 104.53L351.57 103.23M351.57 103.23L350.29 102.65"/>
<path d="M298.18 138.36L266.32 138.36"/>
<path d="M256.94 128.87L256.94 127"/>
<path d="M231.83 127L232.58 126.8M232.58 126.8L233.13 126.25M233.13 126.25L233.33 125.5"/>
<path d="M234.83 127L234.83 125.5"/>
<path d="M241.2 125.5L241.2 127"/>
<path d="M242.7 125.5L243.14 126.56M243.14 126.56L244.2 127"/>
<path d="M342.79 138.36L310.93 138.36"/>
<path d="M269.63 109L259.16 102.82"/>
<path d="M259.16 102.82L257.91 103.39M257.91 103.39L257.35 104.67"/>
<path d="M258.82 102.63L257.88 102.88M257.88 102.88L257.2 103.57M257.2 103.57L256.94 104.51"/>
<path d="M258.82 101.9L257.88 102.14M257.88 102.14L257.2 102.79M257.2 102.79L256.94 103.68"/>
<path d="M258.82 99.24L257.49 99.76M257.49 99.76L256.94 101.03"/>
<path d="M258.82 98.51L257.88 98.76M257.88 98.76L257.2 99.45M257.2 99.45L256.94 100.38"/>
<path d="M352.16 104.51L351.91 103.57M351.91 103.57L351.23 102.88M351.23 102.88L350.29 102.63"/>
<path d="M352.16 103.68L351.91 102.79M351.91 102.79L351.23 102.14M351.23 102.14L350.29 101.9"/>
<path d="M352.17 101.03L351.6 99.75M351.6 99.75L350.29 99.25"/>
<path d="M352.16 100.38L351.91 99.45M351.91 99.45L351.23 98.76M351.23 98.76L350.29 98.51"/>
<path d="M351.76 104.67L351.2 103.39M351.2 103.39L349.94 102.82"/>
<path d="M339.48 109L349.94 102.82"/>
<path d="M341.29 110.86L340.73 109.57M340.73 109.57L339.48 109"/>
<path d="M325.17 104.51L325.17 98.51"/>
<path d="M342.79 138.36L341.6 138.24M341.6 138.24L340.46 137.83M340.46 137.83L339.78 137.32M339.78 137.32L339.54 136.97M339.54 136.97L339.42 136.49"/>
<path d="M298.18 138.18L298.42 137.5M298.42 137.5L298.65 136.49"/>
<path d="M258.44 120.59L258.44 118.72"/>
<path d="M333.04 102.82L333.04 108.24"/>
<path d="M333.04 102.82L332.11 103.07M332.11 103.07L331.42 103.74M331.42 103.74L331.17 104.67"/>
<path d="M333.04 108.24L332.5 108.17M332.5 108.17L332.21 108.08M332.21 108.08L331.53 107.62M331.53 107.62L331.17 106.76"/>
<path d="M333.04 102.63L332.11 102.88M332.11 102.88L331.42 103.57M331.42 103.57L331.17 104.51"/>
<path d="M333.04 101.91L331.74 102.4M331.74 102.4L331.16 103.68"/>
<path d="M333.04 99.24L332.11 99.48M332.11 99.48L331.42 100.13M331.42 100.13L331.17 101.03"/>
<path d="M333.04 98.51L332.11 98.76M332.11 98.76L331.42 99.45M331.42 99.45L331.17 100.38"/>
<path d="M325.17 104.51L331.17 104.51"/>
<path d="M332.69 108.26L333.04 108.24"/>
<path d="M276.41 108.26L276.06 108.24"/>
<path d="M277.94 106.76L278.14 107.51M278.14 107.51L278.69 108.05M278.69 108.05L279.44 108.26"/>
<path d="M329.67 108.26L330.73 107.82M330.73 107.82L331.17 106.76"/>
<path d="M352.16 104.53L352.12 104.14"/>
<path d="M256.96 104.28L256.94 104.53"/>
<path d="M234.94 288.49L234.49 288.41"/>
<path d="M235.02 288.52L235.22 288.61"/>
<path d="M235.27 288.64L235.32 288.67"/>
<path d="M235.67 288.97L235.32 288.67"/>
<path d="M234.49 288.41L234.12 288.44"/>
<path d="M397.32 142.25L396.89 142.61"/>
<path d="M396.86 142.63L396.55 143.13"/>
<path d="M396.55 143.13L396.4 143.74"/>
<path d="M397.68 153.14L397.67 153.14"/>
<path d="M397.67 153.14L397.38 153.01"/>
<path d="M396.9 152.64L397.36 153"/>
<path d="M396.67 152.33L396.63 152.26"/>
<path d="M396.48 151.92L396.63 152.26"/>
<path d="M396.4 151.37L396.47 151.89"/>
<path d="M212.44 142.9L212.48 142.97"/>
<path d="M212.62 143.31L212.48 142.97"/>
<path d="M212.71 143.87L212.64 143.35"/>
<path d="M396.4 234.82L396.66 235.19"/>
<path d="M396.36 234.74L396.29 234.54"/>
<path d="M396.27 234.49L396.26 234.43"/>
<path d="M396.22 233.96L396.26 234.43"/>
<path d="M397.33 220.88L396.87 221.21"/>
<path d="M396.86 221.22L396.56 221.65"/>
<path d="M396.56 221.65L396.54 221.69"/>
<path d="M396.54 221.69L396.4 222.26"/>
<path d="M396.66 235.19L396.95 235.43"/>
<path d="M362.54 139.2L362.9 139.63"/>
<path d="M362.92 139.65L363.42 139.97"/>
<path d="M363.42 139.97L364.03 140.12"/>
<path d="M211.43 142.09L211.44 142.09"/>
<path d="M211.44 142.09L211.73 142.22"/>
<path d="M212.21 142.59L211.75 142.23"/>
<path d="M211.78 152.98L212.22 152.63"/>
<path d="M212.24 152.6L212.56 152.1"/>
<path d="M212.56 152.1L212.7 151.49"/>
<path d="M375.12 288.48L374.59 288.41"/>
<path d="M374.53 288.42L374.04 288.54"/>
<path d="M374.04 288.54L373.99 288.56"/>
<path d="M373.99 288.56L373.52 288.88"/>
<path d="M244.29 298.79L244.36 298.25"/>
<path d="M244.35 298.2L244.23 297.7"/>
<path d="M244.23 297.71L244.21 297.66"/>
<path d="M244.21 297.66L243.89 297.18"/>
<path d="M343.61 246.25L343.54 246.96"/>
<path d="M343.54 209.47L343.61 210.18"/>
<path d="M364.83 297.83L364.75 298.28"/>
<path d="M364.86 297.75L364.95 297.55"/>
<path d="M364.97 297.5L365.01 297.45"/>
<path d="M365.31 297.1L365.01 297.45"/>
<path d="M364.75 298.28L364.78 298.65"/>
<path d="M351.98 103.71L352.05 103.89"/>
<path d="M352.05 103.89L352.08 103.99"/>
</g>
</g>
</svg>
