<?xml version="1.0" standalone="no"?><svg xmlns="http://www.w3.org/2000/svg" width="600.000" height="450.000" viewBox="0.0 0.0 600.000 450.000" version="1.1">
<title>Acme Converter - Post-processed with EDS-Designer: 14.44 (info@symca.com)</title>
<desc>Acme Converter - Post-processed with EDS-Designer: 14.44 (info@symca.com)</desc>
<g id="EDS_STYLE_GROUP" fill="none" stroke="black" stroke-width="1.0">
<g id="0" display="visible">
<path d="M260.09 362.15L261.42 366.15M261.42 366.15L261.42 358.15M261.42 358.15L260.09 362.15M260.09 362.15L257.42 359.48M257.42 359.48L253.42 358.15M253.42 358.15L250.76 358.15M250.76 358.15L246.76 359.48M246.76 359.48L244.09 362.15M244.09 362.15L242.76 364.82M242.76 364.82L241.43 368.82M241.43 368.82L241.43 375.48M241.43 375.48L242.76 379.48M242.76 379.48L244.09 382.15M244.09 382.15L246.76 384.81M246.76 384.81L250.76 386.15M250.76 386.15L253.42 386.15M253.42 386.15L257.42 384.81M257.42 384.81L260.09 382.15M250.76 358.15L248.09 359.48M248.09 359.48L245.42 362.15M245.42 362.15L244.09 364.82M244.09 364.82L242.76 368.82M242.76 368.82L242.76 375.48M242.76 375.48L244.09 379.48M244.09 379.48L245.42 382.15M245.42 382.15L248.09 384.81M248.09 384.81L250.76 386.15M260.09 375.48L260.09 386.15M261.42 375.48L261.42 386.15M256.09 375.48L265.42 375.48M276.09 386.15L276.09 358.15M277.42 358.15L277.42 386.15M272.09 358.15L288.08 358.15M288.08 358.15L292.08 359.48M292.08 359.48L293.42 360.82M293.42 360.82L294.75 363.48M294.75 363.48L294.75 366.15M294.75 366.15L293.42 368.82M293.42 368.82L292.08 370.15M292.08 370.15L288.08 371.48M288.08 371.48L277.42 371.48M288.08 358.15L290.75 359.48M290.75 359.48L292.08 360.82M292.08 360.82L293.42 363.48M293.42 363.48L293.42 366.15M293.42 366.15L292.08 368.82M292.08 368.82L290.75 370.15M290.75 370.15L288.08 371.48M272.09 386.15L281.42 386.15M284.08 371.48L286.75 372.82M286.75 372.82L288.08 374.15M288.08 374.15L292.08 383.48M292.08 383.48L293.42 384.81M293.42 384.81L294.75 384.81M294.75 384.81L296.08 383.48M286.75 372.82L288.08 375.48M288.08 375.48L290.75 384.81M290.75 384.81L292.08 386.15M292.08 386.15L294.75 386.15M294.75 386.15L296.08 383.48M296.08 383.48L296.08 382.15M305.41 386.15L305.41 358.15M306.75 358.15L306.75 386.15M314.75 366.15L314.75 376.81M301.41 358.15L322.74 358.15M322.74 358.15L322.74 366.15M322.74 366.15L321.41 358.15M306.75 371.48L314.75 371.48M301.41 386.15L322.74 386.15M322.74 386.15L322.74 378.15M322.74 378.15L321.41 386.15M333.41 386.15L333.41 358.15M334.74 358.15L334.74 386.15M342.74 366.15L342.74 376.81M329.41 358.15L350.74 358.15M350.74 358.15L350.74 366.15M350.74 366.15L349.41 358.15M334.74 371.48L342.74 371.48M329.41 386.15L350.74 386.15M350.74 386.15L350.74 378.15M350.74 378.15L349.41 386.15M361.4 386.15L361.4 358.15M362.74 386.15L362.74 358.15M362.74 358.15L378.73 383.48M362.74 360.82L378.73 386.15M378.73 386.15L378.73 358.15M357.4 358.15L362.74 358.15M374.73 358.15L382.73 358.15M357.4 386.15L365.4 386.15"/>
<path d="M247.12 109.71L311.95 109.71"/>
<path d="M247.12 109.71L243.95 111.02M243.95 111.02L242.64 114.19"/>
<path d="M242.64 114.19L242.64 143.24"/>
<path d="M311.95 123.43L264.94 123.43"/>
<path d="M264.94 123.43L260.46 124.63M260.46 124.63L257.18 127.91M257.18 127.91L255.98 132.39"/>
<path d="M255.98 132.39L255.98 192.31"/>
<path d="M255.98 192.31L283.09 192.31"/>
<path d="M283.09 192.31L283.09 143.75"/>
<path d="M283.09 143.75L269.54 143.75"/>
<path d="M269.54 143.75L269.54 136.6"/>
<path d="M269.54 136.6L296.46 136.6"/>
<path d="M296.46 210.28L296.46 123.43"/>
<path d="M297.36 139.46L296.73 139.72M296.73 139.72L296.46 140.36"/>
<path d="M296.46 210.28L297.06 212.51M297.06 212.51L298.7 214.15M298.7 214.15L300.94 214.75"/>
<path d="M272.32 123.43L272.32 136.6"/>
<path d="M296.46 134.13L311.95 134.13"/>
<path d="M300.94 214.75L311.95 214.75"/>
<path d="M311.95 181.49L296.46 181.49"/>
<path d="M311.95 169.11L296.46 169.11"/>
<path d="M311.95 149.77L296.46 149.77"/>
<path d="M311.95 139.46L297.36 139.46"/>
<path d="M283.09 192.31L288.79 198.04"/>
<path d="M255.98 192.31L250.28 198.04"/>
<path d="M283.09 166.81L262.17 166.81M262.17 166.81L262.17 156.3M262.17 156.3L283.09 156.3"/>
<path d="M232.49 137.27L252.94 137.27"/>
<path d="M252.94 137.27L255.98 140.74"/>
<path d="M232.49 137.27L232.49 63.85"/>
<path d="M232.49 63.85L65.44 63.85"/>
<path d="M65.44 63.85L65.44 330.16"/>
<path d="M66.34 113.83L65.71 114.09M65.71 114.09L65.44 114.72"/>
<path d="M65.44 330.16L311.95 330.16"/>
<path d="M65.44 314.9L89.94 314.9"/>
<path d="M104.3 314.9L209.08 314.9"/>
<path d="M223.43 314.9L304.51 314.9"/>
<path d="M89.94 312.19L104.3 312.19M104.3 312.19L104.3 323.31M104.3 323.31L89.94 323.31M89.94 323.31L89.94 312.19"/>
<path d="M89.94 317.72L104.3 317.72"/>
<path d="M209.08 312.19L223.43 312.19M223.43 312.19L223.43 323.31M223.43 323.31L209.08 323.31M209.08 323.31L209.08 312.19"/>
<path d="M209.08 317.72L223.43 317.72"/>
<path d="M311.95 323.31L304.51 323.31M304.51 323.31L304.51 312.19M304.51 312.19L311.95 312.19"/>
<path d="M304.51 317.72L311.95 317.72"/>
<path d="M65.44 78.9L95.47 78.9"/>
<path d="M109.79 78.9L191 78.9"/>
<path d="M205.32 78.9L232.49 78.9"/>
<path d="M191 71.13L205.32 71.13M205.32 71.13L205.32 81.64M205.32 81.64L191 81.64M191 81.64L191 71.13"/>
<path d="M191 77.37L205.32 77.37"/>
<path d="M95.47 71.13L109.79 71.13M109.79 71.13L109.79 81.64M109.79 81.64L95.47 81.64M95.47 81.64L95.47 71.13"/>
<path d="M95.47 77.37L109.79 77.37"/>
<path d="M232.49 102.17L65.44 102.17"/>
<path d="M232.49 107.02L65.44 107.02"/>
<path d="M203.11 102.17L203.11 84.36M203.11 84.36L227.29 84.36M227.29 84.36L227.29 102.17"/>
<path d="M203.11 89.97L227.29 89.97"/>
<path d="M169.28 102.17L169.28 84.36M169.28 84.36L193.45 84.36M193.45 84.36L193.45 102.17"/>
<path d="M169.28 89.97L193.45 89.97"/>
<path d="M108.5 102.17L108.5 84.36M108.5 84.36L132.68 84.36M132.68 84.36L132.68 102.17"/>
<path d="M108.5 89.97L132.68 89.97"/>
<path d="M73.73 102.17L73.73 84.36M73.73 84.36L97.91 84.36M97.91 84.36L97.91 102.17"/>
<path d="M73.73 89.97L97.91 89.97"/>
<path d="M242.64 143.24L229.99 143.24"/>
<path d="M229.99 150.69L229.99 114.72"/>
<path d="M229.99 114.72L229.73 114.09M229.73 114.09L229.09 113.83"/>
<path d="M229.09 113.83L66.34 113.83"/>
<path d="M65.44 124.42L74.42 124.42M74.42 124.42L74.42 124.42M74.42 124.42L76.32 125.21M76.32 125.21L77.11 127.11M77.11 127.11L77.11 140.5M77.11 140.5L77.11 140.5M77.11 140.5L76.32 142.4M76.32 142.4L74.42 143.19M74.42 143.19L65.44 143.19"/>
<path d="M65.44 132.29L77.11 132.29"/>
<path d="M89.42 113.83L89.42 141.17"/>
<path d="M91.21 142.97L143.35 142.97"/>
<path d="M89.42 141.17L89.95 142.44M89.95 142.44L91.21 142.97"/>
<path d="M145.14 141.17L145.14 127.08"/>
<path d="M145.14 127.08L144.62 125.81M144.62 125.81L143.35 125.28"/>
<path d="M143.35 142.97L144.62 142.44M144.62 142.44L145.14 141.17"/>
<path d="M143.35 125.28L134.86 125.28"/>
<path d="M133.06 123.49L133.06 113.83"/>
<path d="M133.06 123.49L133.59 124.76M133.59 124.76L134.86 125.28"/>
<path d="M145.14 132.21L89.42 132.21"/>
<path d="M94.81 132.21L94.81 121.15M94.81 121.15L110.86 121.15M110.86 121.15L110.86 132.21"/>
<path d="M94.81 126.91L110.86 126.91"/>
<path d="M156.5 113.83L156.5 141.17"/>
<path d="M158.29 142.97L176.74 142.97"/>
<path d="M156.5 141.17L156.74 142.07M156.74 142.07L157.39 142.73M157.39 142.73L158.29 142.97"/>
<path d="M178.53 141.17L178.53 113.83"/>
<path d="M176.74 142.97L178.01 142.44M178.01 142.44L178.53 141.17"/>
<path d="M156.5 132.32L178.53 132.32"/>
<path d="M190 121.93L216.09 121.93M216.09 121.93L216.09 121.93M216.09 121.93L217.36 122.45M217.36 122.45L217.88 123.72M217.88 123.72L217.88 141.07M217.88 141.07L217.88 141.07M217.88 141.07L217.36 142.34M217.36 142.34L216.09 142.87M216.09 142.87L191.79 142.87M191.79 142.87L191.79 142.87M191.79 142.87L190.53 142.34M190.53 142.34L190 141.07M190 141.07L190 121.93"/>
<path d="M190 121.93L186.5 118.12"/>
<path d="M190 121.93L206.3 121.93M206.3 121.93L206.3 132.51M206.3 132.51L190 132.51M190 132.51L190 121.93"/>
<path d="M206.3 132.51L217.88 132.51"/>
<path d="M190 126.88L206.3 126.88"/>
<path d="M311.95 288.38L65.44 288.38"/>
<path d="M308.93 288.38L308.93 302.28M308.93 302.28L290.43 302.28M290.43 302.28L290.43 288.38"/>
<path d="M285.11 288.38L285.11 302.28M285.11 302.28L266.62 302.28M266.62 302.28L266.62 288.38"/>
<path d="M261.3 288.38L261.3 302.28M261.3 302.28L242.81 302.28M242.81 302.28L242.81 288.38"/>
<path d="M237.49 288.38L237.49 302.28M237.49 302.28L219 302.28M219 302.28L219 288.38"/>
<path d="M213.68 288.38L213.68 302.28M213.68 302.28L195.19 302.28M195.19 302.28L195.19 288.38"/>
<path d="M189.87 288.38L189.87 302.28M189.87 302.28L171.37 302.28M171.37 302.28L171.37 288.38"/>
<path d="M166.05 288.38L166.05 302.28M166.05 302.28L147.56 302.28M147.56 302.28L147.56 288.38"/>
<path d="M142.24 288.38L142.24 302.28M142.24 302.28L123.75 302.28M123.75 302.28L123.75 288.38"/>
<path d="M118.43 288.38L118.43 302.28M118.43 302.28L99.94 302.28M99.94 302.28L99.94 288.38"/>
<path d="M94.62 288.38L94.62 302.28M94.62 302.28L76.13 302.28M76.13 302.28L76.13 288.38"/>
<path d="M311.95 283.4L65.44 283.4"/>
<path d="M311.95 280.04L65.44 280.04"/>
<path d="M287.81 280.04L287.81 283.4"/>
<path d="M251.95 280.04L251.95 283.4"/>
<path d="M89.62 280.04L89.62 262.64M89.62 262.64L127.58 262.64M127.58 262.64L127.58 262.64M127.58 262.64L128.84 263.16M128.84 263.16L129.37 264.43M129.37 264.43L129.37 280.04"/>
<path d="M105.16 271.65L89.62 271.65M89.62 271.65L89.62 262.64M89.62 262.64L105.16 262.64M105.16 262.64L105.16 271.65"/>
<path d="M65.44 261.8L75.64 261.8"/>
<path d="M75.64 268.38L65.44 268.38"/>
<path d="M75.64 268.38L77.37 267.13M77.37 267.13L78.04 265.09M78.04 265.09L77.37 263.06M77.37 263.06L75.64 261.8"/>
<path d="M292.25 225.65L306.99 225.65M306.99 225.65L306.99 238.81M306.99 238.81L292.25 238.81M292.25 238.81L292.25 225.65"/>
<path d="M296.11 228.88L303.68 228.88M303.68 228.88L303.68 235.19M303.68 235.19L296.11 235.19M296.11 235.19L296.11 228.88"/>
<path d="M292.25 225.65L296.11 228.88"/>
<path d="M303.68 228.88L306.99 225.65"/>
<path d="M303.68 235.19L306.99 238.81"/>
<path d="M296.11 235.19L292.25 238.81"/>
<path d="M290.27 254.11L309.12 254.11M309.12 254.11L309.12 238.8M309.12 238.8L290.27 238.8M290.27 238.8L290.27 254.11"/>
<path d="M293.01 254.11L293.01 245.09M293.01 245.09L306.74 245.09M306.74 245.09L306.74 254.11"/>
<path d="M268.87 225.65L283.62 225.65M283.62 225.65L283.62 238.81M283.62 238.81L268.87 238.81M268.87 238.81L268.87 225.65"/>
<path d="M272.73 228.88L280.3 228.88M280.3 228.88L280.3 235.19M280.3 235.19L272.73 235.19M272.73 235.19L272.73 228.88"/>
<path d="M268.87 225.65L272.73 228.88"/>
<path d="M280.3 228.88L283.62 225.65"/>
<path d="M280.3 235.19L283.62 238.81"/>
<path d="M272.73 235.19L268.87 238.81"/>
<path d="M266.89 254.11L285.74 254.11M285.74 254.11L285.74 238.8M285.74 238.8L266.89 238.8M266.89 238.8L266.89 254.11"/>
<path d="M269.64 254.11L269.64 245.09M269.64 245.09L283.36 245.09M283.36 245.09L283.36 254.11"/>
<path d="M245.49 225.65L260.24 225.65M260.24 225.65L260.24 238.81M260.24 238.81L245.49 238.81M245.49 238.81L245.49 225.65"/>
<path d="M249.35 228.88L256.93 228.88M256.93 228.88L256.93 235.19M256.93 235.19L249.35 235.19M249.35 235.19L249.35 228.88"/>
<path d="M245.49 225.65L249.35 228.88"/>
<path d="M256.93 228.88L260.24 225.65"/>
<path d="M256.93 235.19L260.24 238.81"/>
<path d="M249.35 235.19L245.49 238.81"/>
<path d="M243.51 254.11L262.36 254.11M262.36 254.11L262.36 238.8M262.36 238.8L243.51 238.8M243.51 238.8L243.51 254.11"/>
<path d="M246.26 254.11L246.26 245.09M246.26 245.09L259.98 245.09M259.98 245.09L259.98 254.11"/>
<path d="M222.11 225.65L236.86 225.65M236.86 225.65L236.86 238.81M236.86 238.81L222.11 238.81M222.11 238.81L222.11 225.65"/>
<path d="M225.98 228.88L233.55 228.88M233.55 228.88L233.55 235.19M233.55 235.19L225.98 235.19M225.98 235.19L225.98 228.88"/>
<path d="M222.11 225.65L225.98 228.88"/>
<path d="M233.55 228.88L236.86 225.65"/>
<path d="M233.55 235.19L236.86 238.81"/>
<path d="M225.98 235.19L222.11 238.81"/>
<path d="M220.13 254.11L238.98 254.11M238.98 254.11L238.98 238.8M238.98 238.8L220.13 238.8M220.13 238.8L220.13 254.11"/>
<path d="M222.88 254.11L222.88 245.09M222.88 245.09L236.6 245.09M236.6 245.09L236.6 254.11"/>
<path d="M198.73 225.65L213.48 225.65M213.48 225.65L213.48 238.81M213.48 238.81L198.73 238.81M198.73 238.81L198.73 225.65"/>
<path d="M202.6 228.88L210.17 228.88M210.17 228.88L210.17 235.19M210.17 235.19L202.6 235.19M202.6 235.19L202.6 228.88"/>
<path d="M198.73 225.65L202.6 228.88"/>
<path d="M210.17 228.88L213.48 225.65"/>
<path d="M210.17 235.19L213.48 238.81"/>
<path d="M202.6 235.19L198.73 238.81"/>
<path d="M196.75 254.11L215.6 254.11M215.6 254.11L215.6 238.8M215.6 238.8L196.75 238.8M196.75 238.8L196.75 254.11"/>
<path d="M199.5 254.11L199.5 245.09M199.5 245.09L213.22 245.09M213.22 245.09L213.22 254.11"/>
<path d="M175.36 225.65L190.1 225.65M190.1 225.65L190.1 238.81M190.1 238.81L175.36 238.81M175.36 238.81L175.36 225.65"/>
<path d="M179.22 228.88L186.79 228.88M186.79 228.88L186.79 235.19M186.79 235.19L179.22 235.19M179.22 235.19L179.22 228.88"/>
<path d="M175.36 225.65L179.22 228.88"/>
<path d="M186.79 228.88L190.1 225.65"/>
<path d="M186.79 235.19L190.1 238.81"/>
<path d="M179.22 235.19L175.36 238.81"/>
<path d="M173.37 254.11L192.22 254.11M192.22 254.11L192.22 238.8M192.22 238.8L173.37 238.8M173.37 238.8L173.37 254.11"/>
<path d="M176.12 254.11L176.12 245.09M176.12 245.09L189.85 245.09M189.85 245.09L189.85 254.11"/>
<path d="M151.98 225.65L166.73 225.65M166.73 225.65L166.73 238.81M166.73 238.81L151.98 238.81M151.98 238.81L151.98 225.65"/>
<path d="M155.84 228.88L163.41 228.88M163.41 228.88L163.41 235.19M163.41 235.19L155.84 235.19M155.84 235.19L155.84 228.88"/>
<path d="M151.98 225.65L155.84 228.88"/>
<path d="M163.41 228.88L166.73 225.65"/>
<path d="M163.41 235.19L166.73 238.81"/>
<path d="M155.84 235.19L151.98 238.81"/>
<path d="M150 254.11L168.85 254.11M168.85 254.11L168.85 238.8M168.85 238.8L150 238.8M150 238.8L150 254.11"/>
<path d="M152.75 254.11L152.75 245.09M152.75 245.09L166.47 245.09M166.47 245.09L166.47 254.11"/>
<path d="M128.6 225.65L143.35 225.65M143.35 225.65L143.35 238.81M143.35 238.81L128.6 238.81M128.6 238.81L128.6 225.65"/>
<path d="M132.46 228.88L140.03 228.88M140.03 228.88L140.03 235.19M140.03 235.19L132.46 235.19M132.46 235.19L132.46 228.88"/>
<path d="M128.6 225.65L132.46 228.88"/>
<path d="M140.03 228.88L143.35 225.65"/>
<path d="M140.03 235.19L143.35 238.81"/>
<path d="M132.46 235.19L128.6 238.81"/>
<path d="M126.62 254.11L145.47 254.11M145.47 254.11L145.47 238.8M145.47 238.8L126.62 238.8M126.62 238.8L126.62 254.11"/>
<path d="M129.37 254.11L129.37 245.09M129.37 245.09L143.09 245.09M143.09 245.09L143.09 254.11"/>
<path d="M105.22 225.65L119.97 225.65M119.97 225.65L119.97 238.81M119.97 238.81L105.22 238.81M105.22 238.81L105.22 225.65"/>
<path d="M109.08 228.88L116.66 228.88M116.66 228.88L116.66 235.19M116.66 235.19L109.08 235.19M109.08 235.19L109.08 228.88"/>
<path d="M105.22 225.65L109.08 228.88"/>
<path d="M116.66 228.88L119.97 225.65"/>
<path d="M116.66 235.19L119.97 238.81"/>
<path d="M109.08 235.19L105.22 238.81"/>
<path d="M103.24 254.11L122.09 254.11M122.09 254.11L122.09 238.8M122.09 238.8L103.24 238.8M103.24 238.8L103.24 254.11"/>
<path d="M105.99 254.11L105.99 245.09M105.99 245.09L119.71 245.09M119.71 245.09L119.71 254.11"/>
<path d="M81.84 225.65L96.59 225.65M96.59 225.65L96.59 238.81M96.59 238.81L81.84 238.81M81.84 238.81L81.84 225.65"/>
<path d="M85.71 228.88L93.28 228.88M93.28 228.88L93.28 235.19M93.28 235.19L85.71 235.19M85.71 235.19L85.71 228.88"/>
<path d="M81.84 225.65L85.71 228.88"/>
<path d="M93.28 228.88L96.59 225.65"/>
<path d="M93.28 235.19L96.59 238.81"/>
<path d="M85.71 235.19L81.84 238.81"/>
<path d="M79.86 254.11L98.71 254.11M98.71 254.11L98.71 238.8M98.71 238.8L79.86 238.8M79.86 238.8L79.86 254.11"/>
<path d="M82.61 254.11L82.61 245.09M82.61 245.09L96.33 245.09M96.33 245.09L96.33 254.11"/>
<path d="M236.09 151.57L245.38 151.57M245.38 151.57L245.38 151.57M245.38 151.57L246.65 152.1M246.65 152.1L247.17 153.36M247.17 153.36L247.17 215.05M247.17 215.05L247.17 215.05M247.17 215.05L246.65 216.32M246.65 216.32L245.38 216.84M245.38 216.84L236.09 216.84M236.09 216.84L236.09 216.84M236.09 216.84L234.82 216.32M234.82 216.32L234.3 215.05M234.3 215.05L234.3 153.36M234.3 153.36L234.3 153.36M234.3 153.36L234.82 152.1M234.82 152.1L236.09 151.57"/>
<path d="M234.3 162.36L247.17 162.36"/>
<path d="M171.93 162.85L225.69 162.85M225.69 162.85L225.69 193.93M225.69 193.93L171.93 193.93M171.93 193.93L171.93 162.85"/>
<path d="M205.67 172.6L217.85 172.6M217.85 172.6L217.85 184.41M217.85 184.41L210.74 184.41"/>
<path d="M185.98 184.41L178.91 184.41M178.91 184.41L178.91 172.6M178.91 172.6L190.8 172.6"/>
<path d="M185.98 181.99L210.74 181.99M210.74 181.99L210.74 202.09M210.74 202.09L185.98 202.09M185.98 202.09L185.98 181.99"/>
<path d="M217.85 172.6L225.69 162.85"/>
<path d="M217.85 184.41L225.69 193.93"/>
<path d="M178.91 184.41L171.93 193.93"/>
<path d="M178.91 172.6L171.93 162.85"/>
<path d="M190.8 172.6L190.8 168.74M190.8 168.74L205.67 168.74M205.67 168.74L205.67 172.6"/>
<path d="M225.69 162.85L229.99 150.69"/>
<path d="M227.99 197.2L227.99 220.04"/>
<path d="M227.99 220.04L74.04 220.04"/>
<path d="M76.34 162.85L130.1 162.85M130.1 162.85L130.1 193.93M130.1 193.93L76.34 193.93M76.34 193.93L76.34 162.85"/>
<path d="M110.08 172.6L122.26 172.6M122.26 172.6L122.26 184.41M122.26 184.41L115.14 184.41"/>
<path d="M90.39 184.41L83.32 184.41M83.32 184.41L83.32 172.6M83.32 172.6L95.2 172.6"/>
<path d="M90.39 181.99L115.14 181.99M115.14 181.99L115.14 202.09M115.14 202.09L90.39 202.09M90.39 202.09L90.39 181.99"/>
<path d="M122.26 172.6L130.1 162.85"/>
<path d="M122.26 184.41L130.1 193.93"/>
<path d="M83.32 184.41L76.34 193.93"/>
<path d="M83.32 172.6L76.34 162.85"/>
<path d="M95.2 172.6L95.2 168.74M95.2 168.74L110.08 168.74M110.08 168.74L110.08 172.6"/>
<path d="M187.02 202.09L187.02 216.32"/>
<path d="M187.02 216.32L171.75 216.32"/>
<path d="M171.75 216.32L171.75 202.09"/>
<path d="M185.98 202.09L161.7 202.09"/>
<path d="M161.7 162.85L161.7 216.32"/>
<path d="M161.7 216.32L171.75 216.32"/>
<path d="M209.69 202.09L209.69 216.32"/>
<path d="M209.69 216.32L224.96 216.32"/>
<path d="M224.96 216.32L224.96 202.09"/>
<path d="M210.74 202.09L224.96 202.09"/>
<path d="M224.96 202.09L226.95 199.94M226.95 199.94L227.99 197.2"/>
<path d="M224.96 216.32L227.99 220.04"/>
<path d="M187.02 216.32L209.69 216.32"/>
<path d="M74.04 197.2L74.04 220.04"/>
<path d="M115.01 202.09L115.01 216.32"/>
<path d="M115.01 216.32L130.27 216.32"/>
<path d="M130.27 216.32L130.27 202.09"/>
<path d="M116.05 202.09L140.33 202.09"/>
<path d="M140.33 162.85L140.33 216.32"/>
<path d="M140.33 216.32L130.27 216.32"/>
<path d="M92.33 202.09L92.33 216.32"/>
<path d="M92.33 216.32L77.07 216.32"/>
<path d="M77.07 216.32L77.07 202.09"/>
<path d="M91.29 202.09L77.07 202.09"/>
<path d="M74.04 197.2L75.08 199.94M75.08 199.94L77.07 202.09"/>
<path d="M77.07 216.32L74.04 220.04"/>
<path d="M115.01 216.32L92.33 216.32"/>
<path d="M140.33 216.32L161.7 216.32"/>
<path d="M161.7 162.85L160.27 157.51M160.27 157.51L156.36 153.6M156.36 153.6L151.01 152.17M151.01 152.17L145.67 153.6M145.67 153.6L141.76 157.51M141.76 157.51L140.33 162.85"/>
<path d="M376.77 109.71L311.95 109.71"/>
<path d="M381.25 114.19L379.94 111.02M379.94 111.02L376.77 109.71"/>
<path d="M381.25 114.19L381.25 143.24"/>
<path d="M311.95 123.43L358.95 123.43"/>
<path d="M367.91 132.39L366.71 127.91M366.71 127.91L363.43 124.63M363.43 124.63L358.95 123.43"/>
<path d="M367.91 132.39L367.91 192.31"/>
<path d="M367.91 192.31L340.8 192.31"/>
<path d="M340.8 192.31L340.8 143.75"/>
<path d="M340.8 143.75L354.35 143.75"/>
<path d="M354.35 143.75L354.35 136.6"/>
<path d="M354.35 136.6L327.43 136.6"/>
<path d="M327.43 210.28L327.43 123.43"/>
<path d="M327.43 140.36L327.17 139.72M327.17 139.72L326.53 139.46"/>
<path d="M322.95 214.75L325.19 214.15M325.19 214.15L326.83 212.51M326.83 212.51L327.43 210.28"/>
<path d="M351.57 123.43L351.57 136.6"/>
<path d="M327.43 134.13L311.95 134.13"/>
<path d="M322.95 214.75L311.95 214.75"/>
<path d="M311.95 181.49L327.43 181.49"/>
<path d="M311.95 169.11L327.43 169.11"/>
<path d="M311.95 149.77L327.43 149.77"/>
<path d="M311.95 139.46L326.53 139.46"/>
<path d="M340.8 192.31L335.1 198.04"/>
<path d="M367.91 192.31L373.61 198.04"/>
<path d="M340.8 166.81L361.72 166.81M361.72 166.81L361.72 156.3M361.72 156.3L340.8 156.3"/>
<path d="M391.4 137.27L370.95 137.27"/>
<path d="M370.95 137.27L367.91 140.74"/>
<path d="M391.4 137.27L391.4 63.85"/>
<path d="M391.4 63.85L558.45 63.85"/>
<path d="M558.45 63.85L558.45 330.16"/>
<path d="M558.45 114.72L558.18 114.09M558.18 114.09L557.55 113.83"/>
<path d="M558.45 330.16L311.95 330.16"/>
<path d="M558.45 314.9L533.95 314.9"/>
<path d="M519.59 314.9L414.81 314.9"/>
<path d="M400.46 314.9L319.39 314.9"/>
<path d="M533.95 312.19L519.59 312.19M519.59 312.19L519.59 323.31M519.59 323.31L533.95 323.31M533.95 323.31L533.95 312.19"/>
<path d="M533.95 317.72L519.59 317.72"/>
<path d="M414.81 312.19L400.46 312.19M400.46 312.19L400.46 323.31M400.46 323.31L414.81 323.31M414.81 323.31L414.81 312.19"/>
<path d="M414.81 317.72L400.46 317.72"/>
<path d="M311.95 323.31L319.39 323.31M319.39 323.31L319.39 312.19M319.39 312.19L311.95 312.19"/>
<path d="M319.39 317.72L311.95 317.72"/>
<path d="M558.45 78.9L528.42 78.9"/>
<path d="M514.1 78.9L432.89 78.9"/>
<path d="M418.57 78.9L391.4 78.9"/>
<path d="M432.89 71.13L418.57 71.13M418.57 71.13L418.57 81.64M418.57 81.64L432.89 81.64M432.89 81.64L432.89 71.13"/>
<path d="M432.89 77.37L418.57 77.37"/>
<path d="M528.42 71.13L514.1 71.13M514.1 71.13L514.1 81.64M514.1 81.64L528.42 81.64M528.42 81.64L528.42 71.13"/>
<path d="M528.42 77.37L514.1 77.37"/>
<path d="M391.4 102.17L558.45 102.17"/>
<path d="M391.4 107.02L558.45 107.02"/>
<path d="M420.78 102.17L420.78 84.36M420.78 84.36L396.6 84.36M396.6 84.36L396.6 102.17"/>
<path d="M420.78 89.97L396.6 89.97"/>
<path d="M454.62 102.17L454.62 84.36M454.62 84.36L430.44 84.36M430.44 84.36L430.44 102.17"/>
<path d="M454.62 89.97L430.44 89.97"/>
<path d="M515.39 102.17L515.39 84.36M515.39 84.36L491.21 84.36M491.21 84.36L491.21 102.17"/>
<path d="M515.39 89.97L491.21 89.97"/>
<path d="M550.16 102.17L550.16 84.36M550.16 84.36L525.98 84.36M525.98 84.36L525.98 102.17"/>
<path d="M550.16 89.97L525.98 89.97"/>
<path d="M381.25 143.24L393.9 143.24"/>
<path d="M393.9 150.69L393.9 114.72"/>
<path d="M394.8 113.83L394.16 114.09M394.16 114.09L393.9 114.72"/>
<path d="M394.8 113.83L557.55 113.83"/>
<path d="M558.45 124.42L549.47 124.42M549.47 124.42L549.47 124.42M549.47 124.42L547.57 125.21M547.57 125.21L546.78 127.11M546.78 127.11L546.78 140.5M546.78 140.5L546.78 140.5M546.78 140.5L547.57 142.4M547.57 142.4L549.47 143.19M549.47 143.19L558.45 143.19"/>
<path d="M558.45 132.29L546.78 132.29"/>
<path d="M534.47 113.83L534.47 141.17"/>
<path d="M532.68 142.97L480.54 142.97"/>
<path d="M532.68 142.97L533.95 142.44M533.95 142.44L534.47 141.17"/>
<path d="M478.75 141.17L478.75 127.08"/>
<path d="M480.54 125.28L479.27 125.81M479.27 125.81L478.75 127.08"/>
<path d="M478.75 141.17L479.27 142.44M479.27 142.44L480.54 142.97"/>
<path d="M480.54 125.28L489.04 125.28"/>
<path d="M490.83 123.49L490.83 113.83"/>
<path d="M489.04 125.28L490.3 124.76M490.3 124.76L490.83 123.49"/>
<path d="M478.75 132.21L534.47 132.21"/>
<path d="M529.08 132.21L529.08 121.15M529.08 121.15L513.03 121.15M513.03 121.15L513.03 132.21"/>
<path d="M529.08 126.91L513.03 126.91"/>
<path d="M467.39 113.83L467.39 141.17"/>
<path d="M465.6 142.97L447.15 142.97"/>
<path d="M465.6 142.97L466.5 142.73M466.5 142.73L467.15 142.07M467.15 142.07L467.39 141.17"/>
<path d="M445.36 141.17L445.36 113.83"/>
<path d="M445.36 141.17L445.88 142.44M445.88 142.44L447.15 142.97"/>
<path d="M467.39 132.32L445.36 132.32"/>
<path d="M433.89 121.93L407.8 121.93M407.8 121.93L407.8 121.93M407.8 121.93L406.53 122.45M406.53 122.45L406.01 123.72M406.01 123.72L406.01 141.07M406.01 141.07L406.01 141.07M406.01 141.07L406.53 142.34M406.53 142.34L407.8 142.87M407.8 142.87L432.1 142.87M432.1 142.87L432.1 142.87M432.1 142.87L433.36 142.34M433.36 142.34L433.89 141.07M433.89 141.07L433.89 121.93"/>
<path d="M433.89 121.93L437.39 118.12"/>
<path d="M433.89 121.93L417.59 121.93M417.59 121.93L417.59 132.51M417.59 132.51L433.89 132.51M433.89 132.51L433.89 121.93"/>
<path d="M417.59 132.51L406.01 132.51"/>
<path d="M433.89 126.88L417.59 126.88"/>
<path d="M311.95 288.38L558.45 288.38"/>
<path d="M314.97 288.38L314.97 302.28M314.97 302.28L333.46 302.28M333.46 302.28L333.46 288.38"/>
<path d="M338.78 288.38L338.78 302.28M338.78 302.28L357.27 302.28M357.27 302.28L357.27 288.38"/>
<path d="M362.59 288.38L362.59 302.28M362.59 302.28L381.08 302.28M381.08 302.28L381.08 288.38"/>
<path d="M386.4 288.38L386.4 302.28M386.4 302.28L404.89 302.28M404.89 302.28L404.89 288.38"/>
<path d="M410.21 288.38L410.21 302.28M410.21 302.28L428.71 302.28M428.71 302.28L428.71 288.38"/>
<path d="M434.03 288.38L434.03 302.28M434.03 302.28L452.52 302.28M452.52 302.28L452.52 288.38"/>
<path d="M457.84 288.38L457.84 302.28M457.84 302.28L476.33 302.28M476.33 302.28L476.33 288.38"/>
<path d="M481.65 288.38L481.65 302.28M481.65 302.28L500.14 302.28M500.14 302.28L500.14 288.38"/>
<path d="M505.46 288.38L505.46 302.28M505.46 302.28L523.95 302.28M523.95 302.28L523.95 288.38"/>
<path d="M529.27 288.38L529.27 302.28M529.27 302.28L547.77 302.28M547.77 302.28L547.77 288.38"/>
<path d="M311.95 283.4L558.45 283.4"/>
<path d="M311.95 280.04L558.45 280.04"/>
<path d="M322.68 280.04L322.68 283.4"/>
<path d="M358.55 280.04L358.55 283.4"/>
<path d="M558.45 261.8L548.26 261.8"/>
<path d="M548.26 268.38L558.45 268.38"/>
<path d="M548.26 261.8L546.52 263.06M546.52 263.06L545.85 265.09M545.85 265.09L546.52 267.13M546.52 267.13L548.26 268.38"/>
<path d="M331.64 225.65L316.9 225.65M316.9 225.65L316.9 238.81M316.9 238.81L331.64 238.81M331.64 238.81L331.64 225.65"/>
<path d="M327.78 228.88L320.21 228.88M320.21 228.88L320.21 235.19M320.21 235.19L327.78 235.19M327.78 235.19L327.78 228.88"/>
<path d="M331.64 225.65L327.78 228.88"/>
<path d="M320.21 228.88L316.9 225.65"/>
<path d="M320.21 235.19L316.9 238.81"/>
<path d="M327.78 235.19L331.64 238.81"/>
<path d="M333.63 254.11L314.77 254.11M314.77 254.11L314.77 238.8M314.77 238.8L333.63 238.8M333.63 238.8L333.63 254.11"/>
<path d="M330.88 254.11L330.88 245.09M330.88 245.09L317.15 245.09M317.15 245.09L317.15 254.11"/>
<path d="M355.02 225.65L340.27 225.65M340.27 225.65L340.27 238.81M340.27 238.81L355.02 238.81M355.02 238.81L355.02 225.65"/>
<path d="M351.16 228.88L343.59 228.88M343.59 228.88L343.59 235.19M343.59 235.19L351.16 235.19M351.16 235.19L351.16 228.88"/>
<path d="M355.02 225.65L351.16 228.88"/>
<path d="M343.59 228.88L340.27 225.65"/>
<path d="M343.59 235.19L340.27 238.81"/>
<path d="M351.16 235.19L355.02 238.81"/>
<path d="M357 254.11L338.15 254.11M338.15 254.11L338.15 238.8M338.15 238.8L357 238.8M357 238.8L357 254.11"/>
<path d="M354.25 254.11L354.25 245.09M354.25 245.09L340.53 245.09M340.53 245.09L340.53 254.11"/>
<path d="M378.4 225.65L363.65 225.65M363.65 225.65L363.65 238.81M363.65 238.81L378.4 238.81M378.4 238.81L378.4 225.65"/>
<path d="M374.54 228.88L366.97 228.88M366.97 228.88L366.97 235.19M366.97 235.19L374.54 235.19M374.54 235.19L374.54 228.88"/>
<path d="M378.4 225.65L374.54 228.88"/>
<path d="M366.97 228.88L363.65 225.65"/>
<path d="M366.97 235.19L363.65 238.81"/>
<path d="M374.54 235.19L378.4 238.81"/>
<path d="M380.38 254.11L361.53 254.11M361.53 254.11L361.53 238.8M361.53 238.8L380.38 238.8M380.38 238.8L380.38 254.11"/>
<path d="M377.63 254.11L377.63 245.09M377.63 245.09L363.91 245.09M363.91 245.09L363.91 254.11"/>
<path d="M401.78 225.65L387.03 225.65M387.03 225.65L387.03 238.81M387.03 238.81L401.78 238.81M401.78 238.81L401.78 225.65"/>
<path d="M397.92 228.88L390.34 228.88M390.34 228.88L390.34 235.19M390.34 235.19L397.92 235.19M397.92 235.19L397.92 228.88"/>
<path d="M401.78 225.65L397.92 228.88"/>
<path d="M390.34 228.88L387.03 225.65"/>
<path d="M390.34 235.19L387.03 238.81"/>
<path d="M397.92 235.19L401.78 238.81"/>
<path d="M403.76 254.11L384.91 254.11M384.91 254.11L384.91 238.8M384.91 238.8L403.76 238.8M403.76 238.8L403.76 254.11"/>
<path d="M401.01 254.11L401.01 245.09M401.01 245.09L387.29 245.09M387.29 245.09L387.29 254.11"/>
<path d="M425.16 225.65L410.41 225.65M410.41 225.65L410.41 238.81M410.41 238.81L425.16 238.81M425.16 238.81L425.16 225.65"/>
<path d="M421.29 228.88L413.72 228.88M413.72 228.88L413.72 235.19M413.72 235.19L421.29 235.19M421.29 235.19L421.29 228.88"/>
<path d="M425.16 225.65L421.29 228.88"/>
<path d="M413.72 228.88L410.41 225.65"/>
<path d="M413.72 235.19L410.41 238.81"/>
<path d="M421.29 235.19L425.16 238.81"/>
<path d="M427.14 254.11L408.29 254.11M408.29 254.11L408.29 238.8M408.29 238.8L427.14 238.8M427.14 238.8L427.14 254.11"/>
<path d="M424.39 254.11L424.39 245.09M424.39 245.09L410.67 245.09M410.67 245.09L410.67 254.11"/>
<path d="M448.54 225.65L433.79 225.65M433.79 225.65L433.79 238.81M433.79 238.81L448.54 238.81M448.54 238.81L448.54 225.65"/>
<path d="M444.67 228.88L437.1 228.88M437.1 228.88L437.1 235.19M437.1 235.19L444.67 235.19M444.67 235.19L444.67 228.88"/>
<path d="M448.54 225.65L444.67 228.88"/>
<path d="M437.1 228.88L433.79 225.65"/>
<path d="M437.1 235.19L433.79 238.81"/>
<path d="M444.67 235.19L448.54 238.81"/>
<path d="M450.52 254.11L431.67 254.11M431.67 254.11L431.67 238.8M431.67 238.8L450.52 238.8M450.52 238.8L450.52 254.11"/>
<path d="M447.77 254.11L447.77 245.09M447.77 245.09L434.04 245.09M434.04 245.09L434.04 254.11"/>
<path d="M471.91 225.65L457.17 225.65M457.17 225.65L457.17 238.81M457.17 238.81L471.91 238.81M471.91 238.81L471.91 225.65"/>
<path d="M468.05 228.88L460.48 228.88M460.48 228.88L460.48 235.19M460.48 235.19L468.05 235.19M468.05 235.19L468.05 228.88"/>
<path d="M471.91 225.65L468.05 228.88"/>
<path d="M460.48 228.88L457.17 225.65"/>
<path d="M460.48 235.19L457.17 238.81"/>
<path d="M468.05 235.19L471.91 238.81"/>
<path d="M473.89 254.11L455.04 254.11M455.04 254.11L455.04 238.8M455.04 238.8L473.89 238.8M473.89 238.8L473.89 254.11"/>
<path d="M471.15 254.11L471.15 245.09M471.15 245.09L457.42 245.09M457.42 245.09L457.42 254.11"/>
<path d="M495.29 225.65L480.54 225.65M480.54 225.65L480.54 238.81M480.54 238.81L495.29 238.81M495.29 238.81L495.29 225.65"/>
<path d="M491.43 228.88L483.86 228.88M483.86 228.88L483.86 235.19M483.86 235.19L491.43 235.19M491.43 235.19L491.43 228.88"/>
<path d="M495.29 225.65L491.43 228.88"/>
<path d="M483.86 228.88L480.54 225.65"/>
<path d="M483.86 235.19L480.54 238.81"/>
<path d="M491.43 235.19L495.29 238.81"/>
<path d="M497.27 254.11L478.42 254.11M478.42 254.11L478.42 238.8M478.42 238.8L497.27 238.8M497.27 238.8L497.27 254.11"/>
<path d="M494.52 254.11L494.52 245.09M494.52 245.09L480.8 245.09M480.8 245.09L480.8 254.11"/>
<path d="M518.67 225.65L503.92 225.65M503.92 225.65L503.92 238.81M503.92 238.81L518.67 238.81M518.67 238.81L518.67 225.65"/>
<path d="M514.81 228.88L507.23 228.88M507.23 228.88L507.23 235.19M507.23 235.19L514.81 235.19M514.81 235.19L514.81 228.88"/>
<path d="M518.67 225.65L514.81 228.88"/>
<path d="M507.23 228.88L503.92 225.65"/>
<path d="M507.23 235.19L503.92 238.81"/>
<path d="M514.81 235.19L518.67 238.81"/>
<path d="M520.65 254.11L501.8 254.11M501.8 254.11L501.8 238.8M501.8 238.8L520.65 238.8M520.65 238.8L520.65 254.11"/>
<path d="M517.9 254.11L517.9 245.09M517.9 245.09L504.18 245.09M504.18 245.09L504.18 254.11"/>
<path d="M542.05 225.65L527.3 225.65M527.3 225.65L527.3 238.81M527.3 238.81L542.05 238.81M542.05 238.81L542.05 225.65"/>
<path d="M538.18 228.88L530.61 228.88M530.61 228.88L530.61 235.19M530.61 235.19L538.18 235.19M538.18 235.19L538.18 228.88"/>
<path d="M542.05 225.65L538.18 228.88"/>
<path d="M530.61 228.88L527.3 225.65"/>
<path d="M530.61 235.19L527.3 238.81"/>
<path d="M538.18 235.19L542.05 238.81"/>
<path d="M544.03 254.11L525.18 254.11M525.18 254.11L525.18 238.8M525.18 238.8L544.03 238.8M544.03 238.8L544.03 254.11"/>
<path d="M541.28 254.11L541.28 245.09M541.28 245.09L527.56 245.09M527.56 245.09L527.56 254.11"/>
<path d="M387.8 151.57L378.51 151.57M378.51 151.57L378.51 151.57M378.51 151.57L377.25 152.1M377.25 152.1L376.72 153.36M376.72 153.36L376.72 215.05M376.72 215.05L376.72 215.05M376.72 215.05L377.25 216.32M377.25 216.32L378.51 216.84M378.51 216.84L387.8 216.84M387.8 216.84L387.8 216.84M387.8 216.84L389.07 216.32M389.07 216.32L389.6 215.05M389.6 215.05L389.6 153.36M389.6 153.36L389.6 153.36M389.6 153.36L389.07 152.1M389.07 152.1L387.8 151.57"/>
<path d="M389.6 162.36L376.72 162.36"/>
<path d="M451.96 162.85L398.2 162.85M398.2 162.85L398.2 193.93M398.2 193.93L451.96 193.93M451.96 193.93L451.96 162.85"/>
<path d="M418.23 172.6L406.04 172.6M406.04 172.6L406.04 184.41M406.04 184.41L413.16 184.41"/>
<path d="M437.91 184.41L444.98 184.41M444.98 184.41L444.98 172.6M444.98 172.6L433.1 172.6"/>
<path d="M437.91 181.99L413.16 181.99M413.16 181.99L413.16 202.09M413.16 202.09L437.91 202.09M437.91 202.09L437.91 181.99"/>
<path d="M406.04 172.6L398.2 162.85"/>
<path d="M406.04 184.41L398.2 193.93"/>
<path d="M444.98 184.41L451.96 193.93"/>
<path d="M444.98 172.6L451.96 162.85"/>
<path d="M433.1 172.6L433.1 168.74M433.1 168.74L418.23 168.74M418.23 168.74L418.23 172.6"/>
<path d="M393.9 150.69L398.2 162.85"/>
<path d="M395.9 197.2L395.9 220.04"/>
<path d="M395.9 220.04L549.85 220.04"/>
<path d="M547.55 162.85L493.79 162.85M493.79 162.85L493.79 193.93M493.79 193.93L547.55 193.93M547.55 193.93L547.55 162.85"/>
<path d="M513.82 172.6L501.63 172.6M501.63 172.6L501.63 184.41M501.63 184.41L508.75 184.41"/>
<path d="M533.5 184.41L540.57 184.41M540.57 184.41L540.57 172.6M540.57 172.6L528.69 172.6"/>
<path d="M533.5 181.99L508.75 181.99M508.75 181.99L508.75 202.09M508.75 202.09L533.5 202.09M533.5 202.09L533.5 181.99"/>
<path d="M501.63 172.6L493.79 162.85"/>
<path d="M501.63 184.41L493.79 193.93"/>
<path d="M540.57 184.41L547.55 193.93"/>
<path d="M540.57 172.6L547.55 162.85"/>
<path d="M528.69 172.6L528.69 168.74M528.69 168.74L513.82 168.74M513.82 168.74L513.82 172.6"/>
<path d="M436.87 202.09L436.87 216.32"/>
<path d="M436.87 216.32L452.14 216.32"/>
<path d="M452.14 216.32L452.14 202.09"/>
<path d="M437.91 202.09L462.19 202.09"/>
<path d="M462.19 162.85L462.19 216.32"/>
<path d="M462.19 216.32L452.14 216.32"/>
<path d="M414.2 202.09L414.2 216.32"/>
<path d="M414.2 216.32L398.93 216.32"/>
<path d="M398.93 216.32L398.93 202.09"/>
<path d="M413.16 202.09L398.93 202.09"/>
<path d="M395.9 197.2L396.94 199.94M396.94 199.94L398.93 202.09"/>
<path d="M398.93 216.32L395.9 220.04"/>
<path d="M436.87 216.32L414.2 216.32"/>
<path d="M549.85 197.2L549.85 220.04"/>
<path d="M508.88 202.09L508.88 216.32"/>
<path d="M508.88 216.32L493.62 216.32"/>
<path d="M493.62 216.32L493.62 202.09"/>
<path d="M507.84 202.09L483.56 202.09"/>
<path d="M483.56 162.85L483.56 216.32"/>
<path d="M483.56 216.32L493.62 216.32"/>
<path d="M531.56 202.09L531.56 216.32"/>
<path d="M531.56 216.32L546.82 216.32"/>
<path d="M546.82 216.32L546.82 202.09"/>
<path d="M532.6 202.09L546.82 202.09"/>
<path d="M546.82 202.09L548.81 199.94M548.81 199.94L549.85 197.2"/>
<path d="M546.82 216.32L549.85 220.04"/>
<path d="M508.88 216.32L531.56 216.32"/>
<path d="M483.56 216.32L462.19 216.32"/>
<path d="M483.56 162.85L482.13 157.51M482.13 157.51L478.22 153.6M478.22 153.6L472.88 152.17M472.88 152.17L467.54 153.6M467.54 153.6L463.62 157.51M463.62 157.51L462.19 162.85"/>
<path d="M586.01 177.47L588.14 176.4M588.14 176.4L591.34 173.2M591.34 173.2L591.34 195.6"/>
<path d="M34.3 173.2L23.64 188.13M23.64 188.13L39.64 188.13M34.3 173.2L34.3 195.6"/>
<path d="M596.33 232.12L585.67 232.12M585.67 232.12L584.6 241.72M584.6 241.72L585.67 240.66M585.67 240.66L588.87 239.59M588.87 239.59L592.07 239.59M592.07 239.59L595.27 240.66M595.27 240.66L597.4 242.79M597.4 242.79L598.47 245.99M598.47 245.99L598.47 248.12M598.47 248.12L597.4 251.32M597.4 251.32L595.27 253.45M595.27 253.45L592.07 254.52M592.07 254.52L588.87 254.52M588.87 254.52L585.67 253.45M585.67 253.45L584.6 252.39M584.6 252.39L583.54 250.25"/>
<path d="M2.59 237.46L2.59 236.39M2.59 236.39L3.65 234.26M3.65 234.26L4.72 233.19M4.72 233.19L6.85 232.12M6.85 232.12L11.12 232.12M11.12 232.12L13.25 233.19M13.25 233.19L14.32 234.26M14.32 234.26L15.38 236.39M15.38 236.39L15.38 238.52M15.38 238.52L14.32 240.66M14.32 240.66L12.19 243.85M12.19 243.85L1.52 254.52M1.52 254.52L16.45 254.52M33.51 232.12L22.85 247.05M22.85 247.05L38.85 247.05M33.51 232.12L33.51 254.52"/>
<path d="M299.69 280.04L299.69 264.43"/>
<path d="M301.48 262.64L311.95 262.64"/>
<path d="M301.48 262.64L300.22 263.16M300.22 263.16L299.69 264.43"/>
<path d="M311.95 271.65L303.98 271.65M303.98 271.65L303.98 262.64"/>
<path d="M182.8 280.04L182.8 264.43M182.8 264.43L182.8 264.43M182.8 264.43L183.32 263.16M183.32 263.16L184.59 262.64M184.59 262.64L291.22 262.64M291.22 262.64L291.22 262.64M291.22 262.64L292.49 263.16M292.49 263.16L293.01 264.43M293.01 264.43L293.01 280.04"/>
<path d="M224.17 262.64L224.17 271.65M224.17 271.65L208.41 271.65M208.41 271.65L208.41 262.64"/>
<path d="M176.12 280.04L176.12 264.88M176.12 264.88L176.12 264.88M176.12 264.88L175.82 263.76M175.82 263.76L175 262.94M175 262.94L173.88 262.64M173.88 262.64L138.28 262.64M138.28 262.64L138.28 262.64M138.28 262.64L136.7 263.29M136.7 263.29L136.04 264.88M136.04 264.88L136.04 280.04"/>
<path d="M534.28 280.04L534.28 262.64M534.28 262.64L496.32 262.64M496.32 262.64L496.32 262.64M496.32 262.64L495.05 263.16M495.05 263.16L494.52 264.43M494.52 264.43L494.52 280.04"/>
<path d="M518.73 271.65L534.28 271.65M534.28 271.65L534.28 262.64M534.28 262.64L518.73 262.64M518.73 262.64L518.73 271.65"/>
<path d="M324.2 280.04L324.2 264.43"/>
<path d="M322.41 262.64L311.95 262.64"/>
<path d="M324.2 264.43L323.68 263.16M323.68 263.16L322.41 262.64"/>
<path d="M311.95 271.65L319.91 271.65M319.91 271.65L319.91 262.64"/>
<path d="M441.09 280.04L441.09 264.43M441.09 264.43L441.09 264.43M441.09 264.43L440.57 263.16M440.57 263.16L439.3 262.64M439.3 262.64L332.67 262.64M332.67 262.64L332.67 262.64M332.67 262.64L331.4 263.16M331.4 263.16L330.88 264.43M330.88 264.43L330.88 280.04"/>
<path d="M399.72 262.64L399.72 271.65M399.72 271.65L415.48 271.65M415.48 271.65L415.48 262.64"/>
<path d="M447.77 280.04L447.77 264.88M447.77 264.88L447.77 264.88M447.77 264.88L448.07 263.76M448.07 263.76L448.89 262.94M448.89 262.94L450.01 262.64M450.01 262.64L485.61 262.64M485.61 262.64L485.61 262.64M485.61 262.64L487.19 263.29M487.19 263.29L487.85 264.88M487.85 264.88L487.85 280.04"/>
</g>
</g>
</svg>
