<?xml version="1.0" standalone="no"?><svg xmlns="http://www.w3.org/2000/svg" width="600.000" height="450.000" viewBox="0.0 0.0 600.000 450.000" version="1.1">
<title>Acme Converter - Post-processed with EDS-Designer: 14.44 (info@symca.com)</title>
<desc>Acme Converter - Post-processed with EDS-Designer: 14.44 (info@symca.com)</desc>
<g id="EDS_STYLE_GROUP" fill="none" stroke="black" stroke-width="1.0">
<g id="0" display="visible">
<path d="M251.21 389.29L251.21 365.45M252.34 365.45L252.34 389.29M247.8 365.45L261.42 365.45M261.42 365.45L264.83 366.58M264.83 366.58L265.96 367.72M265.96 367.72L267.1 369.99M267.1 369.99L267.1 372.26M267.1 372.26L265.96 374.53M265.96 374.53L264.83 375.67M264.83 375.67L261.42 376.8M261.42 365.45L263.69 366.58M263.69 366.58L264.83 367.72M264.83 367.72L265.96 369.99M265.96 369.99L265.96 372.26M265.96 372.26L264.83 374.53M264.83 374.53L263.69 375.67M263.69 375.67L261.42 376.8M252.34 376.8L261.42 376.8M261.42 376.8L264.83 377.94M264.83 377.94L265.96 379.07M265.96 379.07L267.1 381.34M267.1 381.34L267.1 384.75M267.1 384.75L265.96 387.02M265.96 387.02L264.83 388.15M264.83 388.15L261.42 389.29M261.42 389.29L247.8 389.29M261.42 376.8L263.69 377.94M263.69 377.94L264.83 379.07M264.83 379.07L265.96 381.34M265.96 381.34L265.96 384.75M265.96 384.75L264.83 387.02M264.83 387.02L263.69 388.15M263.69 388.15L261.42 389.29M276.18 389.29L276.18 365.45M277.31 365.45L277.31 389.29M272.77 365.45L280.72 365.45M272.77 389.29L289.8 389.29M289.8 389.29L289.8 382.48M289.8 382.48L288.67 389.29M303.42 365.45L295.48 389.29M303.42 365.45L311.37 389.29M303.42 368.85L310.23 389.29M297.75 382.48L307.96 382.48M293.21 389.29L300.02 389.29M306.83 389.29L313.64 389.29M332.93 368.85L334.07 372.26M334.07 372.26L334.07 365.45M334.07 365.45L332.93 368.85M332.93 368.85L330.66 366.58M330.66 366.58L327.26 365.45M327.26 365.45L324.99 365.45M324.99 365.45L321.58 366.58M321.58 366.58L319.31 368.85M319.31 368.85L318.18 371.13M318.18 371.13L317.04 374.53M317.04 374.53L317.04 380.21M317.04 380.21L318.18 383.61M318.18 383.61L319.31 385.88M319.31 385.88L321.58 388.15M321.58 388.15L324.99 389.29M324.99 389.29L327.26 389.29M327.26 389.29L330.66 388.15M330.66 388.15L332.93 385.88M332.93 385.88L334.07 383.61M324.99 365.45L322.72 366.58M322.72 366.58L320.45 368.85M320.45 368.85L319.31 371.13M319.31 371.13L318.18 374.53M318.18 374.53L318.18 380.21M318.18 380.21L319.31 383.61M319.31 383.61L320.45 385.88M320.45 385.88L322.72 388.15M322.72 388.15L324.99 389.29M344.29 389.29L344.29 365.45M345.42 365.45L345.42 389.29M360.18 365.45L345.42 380.21M351.1 375.67L360.18 389.29M349.96 375.67L359.04 389.29M340.88 365.45L348.83 365.45M355.64 365.45L362.45 365.45M340.88 389.29L348.83 389.29M355.64 389.29L362.45 389.29"/>
<path d="M364.51 341.61L245.51 341.61"/>
<path d="M368.22 318.69L364.51 318.69"/>
<path d="M304.84 278.57L241.8 278.57"/>
<path d="M368.22 249.92L364.51 249.92"/>
<path d="M330.8 235.43L279.22 235.43"/>
<path d="M368.22 211.83L353.72 211.83"/>
<path d="M256.3 211.83L241.8 211.83"/>
<path d="M313.55 202.05L296.14 202.05"/>
<path d="M313.7 171.71L295.98 171.71"/>
<path d="M330.8 138L279.22 138"/>
<path d="M304.84 100.92L256.3 100.92"/>
<path d="M370.91 95.19L239.11 95.19"/>
<path d="M227.65 76.65L227.65 83.73"/>
<path d="M241.8 211.83L241.8 338.24"/>
<path d="M256.3 160.93L256.3 212.5"/>
<path d="M256.3 100.92L256.3 186.88"/>
<path d="M289.67 178.05L289.67 195.62"/>
<path d="M304.84 121.82L304.84 133.28"/>
<path d="M304.84 163.96L304.84 169.31"/>
<path d="M304.84 100.92L304.84 169.31"/>
<path d="M320.35 178.66L320.35 195.01"/>
<path d="M353.72 160.93L353.72 212.5"/>
<path d="M353.72 100.92L353.72 186.88"/>
<path d="M364.51 249.92L364.51 318.69"/>
<path d="M368.22 318.69L368.22 338.24"/>
<path d="M368.22 211.83L368.22 249.92"/>
<path d="M382.38 76.65L382.38 83.73"/>
<path d="M330.8 235.43L337.88 234.41M337.88 234.41L344.28 231.04M344.28 231.04L349.34 225.99M349.34 225.99L352.71 219.58M352.71 219.58L353.72 212.5"/>
<path d="M256.3 212.5L257.31 219.58M257.31 219.58L260.68 225.99M260.68 225.99L265.74 231.04M265.74 231.04L272.14 234.41M272.14 234.41L279.22 235.43"/>
<path d="M279.22 138L272.14 139.35M272.14 139.35L265.74 142.39M265.74 142.39L260.68 147.44M260.68 147.44L257.31 153.85M257.31 153.85L256.3 160.93"/>
<path d="M353.72 160.93L352.71 153.85M352.71 153.85L349.34 147.44M349.34 147.44L344.28 142.39M344.28 142.39L337.88 139.35M337.88 139.35L330.8 138"/>
<path d="M241.8 338.24L242.82 340.6M242.82 340.6L245.51 341.61"/>
<path d="M241.8 211.83L247.87 207.11M247.87 207.11L252.59 201.04M252.59 201.04L255.29 194.3M255.29 194.3L256.3 186.88"/>
<path d="M256.3 100.92L254.61 96.88M254.61 96.88L250.57 95.19"/>
<path d="M227.65 83.73L228.99 89.46M228.99 89.46L233.38 93.51M233.38 93.51L239.11 95.19"/>
<path d="M236.41 65.53L232.03 67.89M232.03 67.89L228.66 71.93M228.66 71.93L227.65 76.65"/>
<path d="M364.51 341.61L367.21 340.6M367.21 340.6L368.22 338.24"/>
<path d="M353.72 186.88L354.73 194.3M354.73 194.3L357.43 201.04M357.43 201.04L362.15 207.11M362.15 207.11L368.22 211.83"/>
<path d="M359.45 95.19L355.41 96.88M355.41 96.88L353.72 100.92"/>
<path d="M370.91 95.19L376.64 93.51M376.64 93.51L381.03 89.46M381.03 89.46L382.38 83.73"/>
<path d="M382.38 76.65L381.36 71.93M381.36 71.93L377.99 67.89M377.99 67.89L373.61 65.53"/>
<path d="M364.51 249.92L359.45 259.02M359.45 259.02L356.08 268.8M356.08 268.8L354.4 279.25M354.4 279.25L354.4 289.36M354.4 289.36L356.08 299.81M356.08 299.81L359.45 309.59M359.45 309.59L364.51 318.69"/>
<path d="M236.41 65.53L238.77 65.19M238.77 65.19L240.79 64.52M240.79 64.52L243.15 64.18M243.15 64.18L245.85 63.84M245.85 63.84L248.55 63.5M248.55 63.5L251.58 62.83"/>
<path d="M251.58 62.83L254.95 62.49M254.95 62.49L257.99 62.16M257.99 62.16L261.69 61.82M261.69 61.82L265.4 61.82M265.4 61.82L269.11 61.48M269.11 61.48L272.82 61.14M272.82 61.14L276.86 61.14M276.86 61.14L280.91 60.81M280.91 60.81L284.95 60.81M284.95 60.81L289 60.81M289 60.81L297.09 60.81M297.09 60.81L304.84 60.81"/>
<path d="M373.61 65.53L371.59 65.19M371.59 65.19L369.23 64.52M369.23 64.52L366.87 64.18M366.87 64.18L364.51 63.84M364.51 63.84L361.48 63.5M361.48 63.5L358.78 62.83M358.78 62.83L355.41 62.49M355.41 62.49L352.37 62.16M352.37 62.16L348.67 61.82M348.67 61.82L345.29 61.82M345.29 61.82L341.25 61.48M341.25 61.48L337.54 61.14M337.54 61.14L333.5 61.14M333.5 61.14L329.45 60.81M329.45 60.81L325.41 60.81M325.41 60.81L321.36 60.81M321.36 60.81L313.27 60.81M313.27 60.81L304.84 60.81"/>
<path d="M304.84 278.57L304.84 204.37"/>
<path d="M287.31 186.84L289.05 179.23M289.05 179.23L293.91 173.13M293.91 173.13L300.94 169.75M300.94 169.75L308.74 169.75M308.74 169.75L315.77 173.13M315.77 173.13L320.64 179.23M320.64 179.23L322.37 186.84M322.37 186.84L320.64 194.44M320.64 194.44L315.77 200.54M315.77 200.54L308.74 203.93M308.74 203.93L300.94 203.93M300.94 203.93L293.91 200.54M293.91 200.54L289.05 194.44M289.05 194.44L287.31 186.84"/>
<path d="M217.72 183.61L219.54 182.7M219.54 182.7L222.26 179.98M222.26 179.98L222.26 199.05"/>
</g>
</g>
</svg>
