<?xml version="1.0" standalone="no"?><svg xmlns="http://www.w3.org/2000/svg" width="600.000" height="450.000" viewBox="0.0 0.0 600.000 450.000" version="1.1">
<title>Acme Converter - Post-processed with EDS-Designer: 14.44 (info@symca.com)</title>
<desc>Acme Converter - Post-processed with EDS-Designer: 14.44 (info@symca.com)</desc>
<g id="EDS_STYLE_GROUP" fill="none" stroke="black" stroke-width="1.0">
<g id="0" display="visible">
<path d="M260.02 371.25L260.02 351.49M260.96 351.49L260.96 371.25M257.19 351.49L268.49 351.49M268.49 351.49L271.31 352.43M271.31 352.43L272.25 353.37M272.25 353.37L273.19 355.25M273.19 355.25L273.19 357.13M273.19 357.13L272.25 359.01M272.25 359.01L271.31 359.96M271.31 359.96L268.49 360.9M268.49 351.49L270.37 352.43M270.37 352.43L271.31 353.37M271.31 353.37L272.25 355.25M272.25 355.25L272.25 357.13M272.25 357.13L271.31 359.01M271.31 359.01L270.37 359.96M270.37 359.96L268.49 360.9M260.96 360.9L268.49 360.9M268.49 360.9L271.31 361.84M271.31 361.84L272.25 362.78M272.25 362.78L273.19 364.66M273.19 364.66L273.19 367.48M273.19 367.48L272.25 369.37M272.25 369.37L271.31 370.31M271.31 370.31L268.49 371.25M268.49 371.25L257.19 371.25M268.49 360.9L270.37 361.84M270.37 361.84L271.31 362.78M271.31 362.78L272.25 364.66M272.25 364.66L272.25 367.48M272.25 367.48L271.31 369.37M271.31 369.37L270.37 370.31M270.37 370.31L268.49 371.25M280.72 371.25L280.72 351.49M281.66 351.49L281.66 371.25M277.9 351.49L284.48 351.49M277.9 371.25L292.01 371.25M292.01 371.25L292.01 365.6M292.01 365.6L291.07 371.25M303.31 351.49L296.72 371.25M303.31 351.49L309.89 371.25M303.31 354.31L308.95 371.25M298.6 365.6L307.07 365.6M294.84 371.25L300.48 371.25M306.13 371.25L311.78 371.25M327.78 354.31L328.72 357.13M328.72 357.13L328.72 351.49M328.72 351.49L327.78 354.31M327.78 354.31L325.89 352.43M325.89 352.43L323.07 351.49M323.07 351.49L321.19 351.49M321.19 351.49L318.36 352.43M318.36 352.43L316.48 354.31M316.48 354.31L315.54 356.19M315.54 356.19L314.6 359.01M314.6 359.01L314.6 363.72M314.6 363.72L315.54 366.54M315.54 366.54L316.48 368.43M316.48 368.43L318.36 370.31M318.36 370.31L321.19 371.25M321.19 371.25L323.07 371.25M323.07 371.25L325.89 370.31M325.89 370.31L327.78 368.43M327.78 368.43L328.72 366.54M321.19 351.49L319.31 352.43M319.31 352.43L317.42 354.31M317.42 354.31L316.48 356.19M316.48 356.19L315.54 359.01M315.54 359.01L315.54 363.72M315.54 363.72L316.48 366.54M316.48 366.54L317.42 368.43M317.42 368.43L319.31 370.31M319.31 370.31L321.19 371.25M337.19 371.25L337.19 351.49M338.13 351.49L338.13 371.25M350.36 351.49L338.13 363.72M342.83 359.96L350.36 371.25M341.89 359.96L349.42 371.25M334.36 351.49L340.95 351.49M346.6 351.49L352.24 351.49M334.36 371.25L340.95 371.25M346.6 371.25L352.24 371.25"/>
<path d="M250.24 331.72L359.01 331.72"/>
<path d="M190.79 195.12L190.79 272.27"/>
<path d="M252.77 325.4L356.48 325.4"/>
<path d="M260.35 319.07L348.89 319.07"/>
<path d="M197.11 195.12L197.11 272.27"/>
<path d="M198.38 195.12L198.38 272.27"/>
<path d="M203.44 272.27L203.44 270.38"/>
<path d="M203.44 252.67L203.44 214.72"/>
<path d="M203.44 197.01L203.44 195.12"/>
<path d="M243.98 88.14L198.93 165.08"/>
<path d="M249.44 91.33L245.7 97.72"/>
<path d="M230.89 123.02L204.39 168.28"/>
<path d="M242.65 316.54L260.35 316.54"/>
<path d="M348.89 316.54L366.6 316.54"/>
<path d="M251.5 311.11L357.75 311.11"/>
<path d="M251.5 311.07L357.75 311.07"/>
<path d="M251.5 306.77L357.75 306.77"/>
<path d="M251.5 306.13L357.75 306.13"/>
<path d="M205.97 270.38L205.97 252.67"/>
<path d="M205.97 214.72L205.97 197.01"/>
<path d="M211.4 196.38L211.4 271.01"/>
<path d="M211.44 196.38L211.44 271.01"/>
<path d="M291.98 88.87L294.51 86.34"/>
<path d="M258.46 299.47L350.79 299.47"/>
<path d="M215.74 196.38L215.74 271.01"/>
<path d="M216.38 196.38L216.38 271.01"/>
<path d="M224.31 265.32L224.31 202.07"/>
<path d="M357.75 286.82L251.5 286.82"/>
<path d="M357.75 286.18L251.5 286.18"/>
<path d="M235.69 271.01L235.69 251.4"/>
<path d="M235.69 215.99L235.69 196.38"/>
<path d="M236.33 271.01L236.33 251.4"/>
<path d="M236.33 215.99L236.33 196.38"/>
<path d="M359.81 91.33L365.27 88.14"/>
<path d="M357.75 277.83L251.5 277.83"/>
<path d="M357.75 274.67L251.5 274.67"/>
<path d="M410.87 272.27L405.81 272.27"/>
<path d="M197.11 272.27L190.79 272.27"/>
<path d="M198.38 272.27L203.44 272.27"/>
<path d="M412.14 272.27L418.46 272.27"/>
<path d="M247.84 250.49L246.03 247.15"/>
<path d="M241.38 150.85L241.38 157.59"/>
<path d="M242.65 316.54L242.65 318.45"/>
<path d="M243.91 172.81L243.91 173.24"/>
<path d="M244.68 271.01L244.68 250.49"/>
<path d="M244.68 216.9L244.68 196.38"/>
<path d="M247.71 143.32L247.71 97.72"/>
<path d="M247.71 324.07L247.71 325.34"/>
<path d="M247.84 271.01L247.84 250.49"/>
<path d="M247.84 216.9L247.84 196.38"/>
<path d="M248.02 243.81L248.02 223.58"/>
<path d="M315.96 100.63L317.27 98.99"/>
<path d="M363.55 97.72L369.01 94.53"/>
<path d="M211.4 271.01L247.84 271.01"/>
<path d="M361.41 271.01L397.84 271.01"/>
<path d="M405.81 270.38L403.28 270.38"/>
<path d="M203.44 270.38L205.97 270.38"/>
<path d="M333.27 268.48L318.1 268.48"/>
<path d="M291.15 268.48L275.98 268.48"/>
<path d="M330.74 265.95L320.62 265.95"/>
<path d="M288.62 265.95L278.5 265.95"/>
<path d="M384.94 262.16L373.56 262.16"/>
<path d="M235.69 262.16L224.31 262.16"/>
<path d="M250.24 143.56L250.24 150.85"/>
<path d="M250.24 323.99L250.24 316.54"/>
<path d="M251.5 311.11L251.5 274.67"/>
<path d="M251.5 192.72L251.5 174.25"/>
<path d="M251.5 171.09L251.5 156.29"/>
<path d="M251.82 243.81L251.82 223.58"/>
<path d="M254.03 156.29L254.03 104.05"/>
<path d="M255.93 125.55L255.93 103.15"/>
<path d="M256.56 141.99L256.56 138.2"/>
<path d="M259.09 139.46L259.09 138.2"/>
<path d="M260.35 325.4L260.35 316.54"/>
<path d="M260.35 85.07L260.35 78.75"/>
<path d="M247.71 325.34L247.4 331.66"/>
<path d="M246.03 220.24L247.84 216.9"/>
<path d="M315.42 97.72L314.64 98.8"/>
<path d="M405.81 252.67L403.28 252.67"/>
<path d="M203.44 252.67L205.97 252.67"/>
<path d="M235.69 251.4L241.07 251.4"/>
<path d="M368.18 251.4L373.56 251.4"/>
<path d="M244.68 250.49L247.84 250.49"/>
<path d="M361.41 250.49L364.57 250.49"/>
<path d="M288.62 265.95L291.15 268.48"/>
<path d="M261.62 141.99L261.62 133.14"/>
<path d="M263.52 141.99L263.52 106.58"/>
<path d="M263.52 98.99L263.52 97.72"/>
<path d="M265.86 246.34L265.86 221.05"/>
<path d="M266.05 139.46L266.05 109.11"/>
<path d="M266.68 319.07L266.68 331.72"/>
<path d="M267.94 156.29L267.94 106.96"/>
<path d="M269.84 168.94L269.84 173.24"/>
<path d="M340.41 286.82L340.41 299.47"/>
<path d="M292.26 97.72L291.98 98.99"/>
<path d="M294.61 98.8L294.2 100.63"/>
<path d="M327.31 100.63L328.32 98.99"/>
<path d="M330.47 100.63L331.48 98.99"/>
<path d="M343.2 109.11L345.73 106.58"/>
<path d="M378.36 123.02L383.82 119.83"/>
<path d="M237.39 248.24L224.31 248.24"/>
<path d="M371.86 248.24L384.94 248.24"/>
<path d="M239.48 247.61L244.23 247.61"/>
<path d="M365.02 247.61L369.76 247.61"/>
<path d="M343.39 246.34L333.27 246.34"/>
<path d="M318.1 246.34L307.98 246.34"/>
<path d="M301.27 246.34L291.15 246.34"/>
<path d="M275.98 246.34L265.86 246.34"/>
<path d="M361.23 243.81L357.43 243.81"/>
<path d="M248.02 243.81L251.82 243.81"/>
<path d="M336.44 239.39L330.74 239.39"/>
<path d="M320.62 239.39L314.93 239.39"/>
<path d="M294.32 239.39L288.62 239.39"/>
<path d="M278.5 239.39L272.81 239.39"/>
<path d="M272.81 228L265.86 221.05"/>
<path d="M288.62 243.56L291.15 246.34"/>
<path d="M277.24 223.83L274.71 221.05"/>
<path d="M272.81 239.39L272.81 228"/>
<path d="M274.27 151.23L274.27 100.63"/>
<path d="M274.71 221.05L274.71 208.4"/>
<path d="M275.98 268.48L275.98 246.34"/>
<path d="M275.98 208.4L275.98 198.91"/>
<path d="M277.24 228L277.24 210.93"/>
<path d="M278.5 265.95L278.5 239.39"/>
<path d="M278.5 210.93L278.5 201.44"/>
<path d="M272.81 228L277.24 228"/>
<path d="M289.89 228L294.32 228"/>
<path d="M314.93 228L319.36 228"/>
<path d="M332.01 228L336.44 228"/>
<path d="M203.44 227.37L211.4 227.37"/>
<path d="M397.84 227.37L405.81 227.37"/>
<path d="M294.32 239.39L301.27 246.34"/>
<path d="M330.74 265.95L333.27 268.48"/>
<path d="M277.24 210.93L274.71 208.4"/>
<path d="M278.5 210.93L275.98 208.4"/>
<path d="M354.96 299.21L354.96 286.82"/>
<path d="M288.62 201.44L288.62 210.93"/>
<path d="M288.62 265.95L288.62 239.39"/>
<path d="M289.89 228L289.89 210.93"/>
<path d="M291.15 198.91L291.15 208.4"/>
<path d="M291.15 246.34L291.15 268.48"/>
<path d="M291.98 97.72L291.98 88.87"/>
<path d="M292.42 208.4L292.42 221.05"/>
<path d="M294.32 228L294.32 239.39"/>
<path d="M288.62 201.44L291.15 198.91"/>
<path d="M361.23 223.58L357.43 223.58"/>
<path d="M248.02 223.58L251.82 223.58"/>
<path d="M265.86 221.05L274.71 221.05"/>
<path d="M292.42 221.05L301.27 221.05"/>
<path d="M307.98 221.05L316.83 221.05"/>
<path d="M334.54 221.05L343.39 221.05"/>
<path d="M369.76 219.78L365.02 219.78"/>
<path d="M244.23 219.78L239.48 219.78"/>
<path d="M364.57 216.9L361.41 216.9"/>
<path d="M247.84 216.9L244.68 216.9"/>
<path d="M373.56 215.99L368.18 215.99"/>
<path d="M235.69 215.99L241.07 215.99"/>
<path d="M204.39 168.28L198.93 165.08"/>
<path d="M278.5 201.44L275.98 198.91"/>
<path d="M301.27 221.05L301.27 246.34"/>
<path d="M288.62 210.93L291.15 208.4"/>
<path d="M289.89 210.93L292.42 208.4"/>
<path d="M405.81 214.72L397.84 214.72"/>
<path d="M203.44 214.72L211.4 214.72"/>
<path d="M277.24 210.93L278.5 210.93"/>
<path d="M288.62 210.93L289.89 210.93"/>
<path d="M319.36 210.93L320.62 210.93"/>
<path d="M330.74 210.93L332.01 210.93"/>
<path d="M274.71 208.4L275.98 208.4"/>
<path d="M291.15 208.4L292.42 208.4"/>
<path d="M316.83 208.4L318.1 208.4"/>
<path d="M333.27 208.4L334.54 208.4"/>
<path d="M314.93 228L307.98 221.05"/>
<path d="M336.44 239.39L343.39 246.34"/>
<path d="M330.74 243.56L333.27 246.34"/>
<path d="M319.36 223.83L316.83 221.05"/>
<path d="M307.98 246.34L307.98 221.05"/>
<path d="M314.93 239.39L314.93 228"/>
<path d="M316.83 221.05L316.83 208.4"/>
<path d="M317.27 97.72L317.27 88.87"/>
<path d="M289.89 223.83L292.42 221.05"/>
<path d="M278.5 243.56L275.98 246.34"/>
<path d="M272.81 239.39L265.86 246.34"/>
<path d="M294.32 228L301.27 221.05"/>
<path d="M278.5 201.44L288.62 201.44"/>
<path d="M320.62 201.44L330.74 201.44"/>
<path d="M275.98 198.91L291.15 198.91"/>
<path d="M318.1 198.91L333.27 198.91"/>
<path d="M405.81 197.01L403.28 197.01"/>
<path d="M203.44 197.01L205.97 197.01"/>
<path d="M211.4 196.38L247.84 196.38"/>
<path d="M361.41 196.38L397.84 196.38"/>
<path d="M410.87 195.12L405.81 195.12"/>
<path d="M197.11 195.12L190.79 195.12"/>
<path d="M198.38 195.12L203.44 195.12"/>
<path d="M412.14 195.12L418.46 195.12"/>
<path d="M251.5 192.72L357.75 192.72"/>
<path d="M319.36 210.93L316.83 208.4"/>
<path d="M320.62 210.93L318.1 208.4"/>
<path d="M318.1 268.48L318.1 246.34"/>
<path d="M318.1 208.4L318.1 198.91"/>
<path d="M319.36 228L319.36 210.93"/>
<path d="M320.62 265.95L320.62 239.39"/>
<path d="M320.62 210.93L320.62 201.44"/>
<path d="M330.74 201.44L333.27 198.91"/>
<path d="M330.74 210.93L333.27 208.4"/>
<path d="M332.01 210.93L334.54 208.4"/>
<path d="M404.86 168.28L410.32 165.08"/>
<path d="M251.5 189.56L357.75 189.56"/>
<path d="M251.5 181.21L357.75 181.21"/>
<path d="M320.62 201.44L318.1 198.91"/>
<path d="M330.74 201.44L330.74 210.93"/>
<path d="M330.74 265.95L330.74 239.39"/>
<path d="M332.01 228L332.01 210.93"/>
<path d="M333.27 198.91L333.27 208.4"/>
<path d="M333.27 246.34L333.27 268.48"/>
<path d="M334.54 208.4L334.54 221.05"/>
<path d="M334.98 100.63L334.98 151.23"/>
<path d="M336.44 228L336.44 239.39"/>
<path d="M339.41 168.94L339.41 173.24"/>
<path d="M332.01 223.83L334.54 221.05"/>
<path d="M278.5 265.95L275.98 268.48"/>
<path d="M314.93 239.39L307.98 246.34"/>
<path d="M251.5 180.57L357.75 180.57"/>
<path d="M364.33 174.25L340.42 174.25"/>
<path d="M244.92 174.25L268.83 174.25"/>
<path d="M357.75 171.09L339.41 171.09"/>
<path d="M269.84 171.09L251.5 171.09"/>
<path d="M230.89 123.02L225.43 119.83"/>
<path d="M315.05 100.63L314.64 98.8"/>
<path d="M341.31 106.96L341.31 156.29"/>
<path d="M342.57 319.07L342.57 331.72"/>
<path d="M343.2 139.46L343.2 109.11"/>
<path d="M343.39 221.05L343.39 246.34"/>
<path d="M345.73 141.99L345.73 106.58"/>
<path d="M345.73 101.52L345.73 97.72"/>
<path d="M347.63 141.99L347.63 133.14"/>
<path d="M348.89 325.4L348.89 316.54"/>
<path d="M348.89 85.07L348.89 78.75"/>
<path d="M350.16 138.2L350.16 139.46"/>
<path d="M350.79 125.55L350.79 106.58"/>
<path d="M320.62 243.56L318.1 246.34"/>
<path d="M336.44 228L343.39 221.05"/>
<path d="M270.85 167.92L338.4 167.92"/>
<path d="M357.75 161.26L251.5 161.26"/>
<path d="M357.75 160.62L251.5 160.62"/>
<path d="M266.05 109.11L263.52 106.58"/>
<path d="M281.94 100.63L280.93 98.99"/>
<path d="M361.41 216.9L363.22 220.24"/>
<path d="M317.27 98.99L316.99 97.72"/>
<path d="M361.54 325.34L361.84 331.66"/>
<path d="M352.69 138.2L352.69 141.99"/>
<path d="M353.32 125.55L353.32 103.15"/>
<path d="M355.22 156.29L355.22 104.05"/>
<path d="M357.43 223.58L357.43 243.81"/>
<path d="M357.75 311.11L357.75 274.67"/>
<path d="M357.75 192.72L357.75 174.25"/>
<path d="M357.75 171.09L357.75 156.29"/>
<path d="M359.01 143.56L359.01 150.85"/>
<path d="M359.01 323.99L359.01 316.54"/>
<path d="M361.23 223.58L361.23 243.81"/>
<path d="M361.41 196.38L361.41 216.9"/>
<path d="M361.41 250.49L361.41 271.01"/>
<path d="M361.54 324.07L361.54 325.34"/>
<path d="M361.54 143.32L361.54 97.72"/>
<path d="M320.62 265.95L318.1 268.48"/>
<path d="M357.75 156.32L251.5 156.32"/>
<path d="M357.75 156.29L251.5 156.29"/>
<path d="M348.89 154.64L341.31 154.64"/>
<path d="M267.94 154.64L260.35 154.64"/>
<path d="M267.94 151.23L341.31 151.23"/>
<path d="M254.03 150.85L235.06 150.85"/>
<path d="M355.22 150.85L374.19 150.85"/>
<path d="M291.98 98.99L293.29 100.63"/>
<path d="M293.83 97.72L294.61 98.8"/>
<path d="M364.57 196.38L364.57 216.9"/>
<path d="M364.57 250.49L364.57 271.01"/>
<path d="M365.34 173.24L365.34 172.81"/>
<path d="M366.6 318.45L366.6 316.54"/>
<path d="M367.87 157.59L367.87 150.85"/>
<path d="M372.92 196.38L372.92 215.99"/>
<path d="M372.92 251.4L372.92 271.01"/>
<path d="M373.56 196.38L373.56 215.99"/>
<path d="M373.56 251.4L373.56 271.01"/>
<path d="M254.03 141.99L267.94 141.99"/>
<path d="M341.31 141.99L355.22 141.99"/>
<path d="M274.27 139.91L334.98 139.91"/>
<path d="M254.03 139.46L266.05 139.46"/>
<path d="M343.2 139.46L355.22 139.46"/>
<path d="M256.56 138.2L266.05 138.2"/>
<path d="M343.2 138.2L352.69 138.2"/>
<path d="M261.62 135.67L263.52 135.67"/>
<path d="M345.73 135.67L347.63 135.67"/>
<path d="M245.7 97.72L240.24 94.53"/>
<path d="M278.34 100.63L276.5 98.99"/>
<path d="M384.94 202.07L384.94 265.32"/>
<path d="M363.22 247.15L361.41 250.49"/>
<path d="M267.94 134.43L341.31 134.43"/>
<path d="M261.62 133.14L266.05 133.14"/>
<path d="M343.2 133.14L347.63 133.14"/>
<path d="M350.79 125.55L353.32 125.55"/>
<path d="M249.44 91.33L243.98 88.14"/>
<path d="M392.87 271.01L392.87 196.38"/>
<path d="M393.51 271.01L393.51 196.38"/>
<path d="M230.89 123.02L254.03 123.02"/>
<path d="M355.22 123.02L378.36 123.02"/>
<path d="M314.74 86.34L317.27 88.87"/>
<path d="M397.81 271.01L397.81 196.38"/>
<path d="M397.84 271.01L397.84 196.38"/>
<path d="M403.28 197.01L403.28 214.72"/>
<path d="M403.28 252.67L403.28 270.38"/>
<path d="M405.81 195.12L405.81 197.01"/>
<path d="M405.81 214.72L405.81 252.67"/>
<path d="M405.81 270.38L405.81 272.27"/>
<path d="M266.05 109.11L267.94 109.11"/>
<path d="M341.31 109.11L343.2 109.11"/>
<path d="M267.94 106.96L341.31 106.96"/>
<path d="M263.52 106.58L267.96 106.58"/>
<path d="M341.29 106.58L345.73 106.58"/>
<path d="M350.79 106.58L353.32 106.58"/>
<path d="M238.29 104.05L247.71 104.05"/>
<path d="M361.54 104.05L370.96 104.05"/>
<path d="M410.87 272.27L410.87 195.12"/>
<path d="M412.14 272.27L412.14 195.12"/>
<path d="M418.46 272.27L418.46 195.12"/>
<path d="M345.73 101.52L338.2 101.52"/>
<path d="M334.98 100.63L274.27 100.63"/>
<path d="M263.52 98.99L291.98 98.99"/>
<path d="M317.27 98.99L345.73 98.99"/>
<path d="M294.61 98.8L314.64 98.8"/>
<path d="M245.7 97.72L247.71 97.72"/>
<path d="M361.54 97.72L363.55 97.72"/>
<path d="M259.8 97.72L349.45 97.72"/>
<path d="M404.86 168.28L378.36 123.02"/>
<path d="M363.55 97.72L359.81 91.33"/>
<path d="M410.32 165.08L365.27 88.14"/>
<path d="M314.74 86.34L294.51 86.34"/>
<path d="M348.89 85.07L260.35 85.07"/>
<path d="M348.89 78.75L260.35 78.75"/>
<path d="M247.71 324.07L250.24 323.99"/>
<path d="M241.07 251.4L244.68 250.49"/>
<path d="M247.84 250.49L250.75 247.7M250.75 247.7L251.82 243.81"/>
<path d="M251.82 223.58L250.75 219.69M250.75 219.69L247.84 216.9"/>
<path d="M244.68 216.9L241.07 215.99"/>
<path d="M244.23 247.61L246.91 246.5M246.91 246.5L248.02 243.81"/>
<path d="M248.02 223.58L246.91 220.89M246.91 220.89L244.23 219.78"/>
<path d="M239.48 247.61L236.8 248.72M236.8 248.72L235.69 251.4"/>
<path d="M235.69 215.99L236.8 218.67M236.8 218.67L239.48 219.78"/>
<path d="M190.79 272.27L192.28 285.5M192.28 285.5L196.67 298.07M196.67 298.07L203.76 309.34M203.76 309.34L213.17 318.75M213.17 318.75L224.44 325.84M224.44 325.84L237.01 330.23M237.01 330.23L250.24 331.72"/>
<path d="M197.11 272.27L198.81 285.62M198.81 285.62L203.81 298.1M203.81 298.1L211.79 308.93M211.79 308.93L222.23 317.41M222.23 317.41L234.46 323M234.46 323L247.71 325.34"/>
<path d="M198.38 272.27L200.04 285.29M200.04 285.29L204.91 297.47M204.91 297.47L212.68 308.04M212.68 308.04L222.86 316.32M222.86 316.32L234.79 321.78M234.79 321.78L247.71 324.07"/>
<path d="M203.44 272.27L205.28 285.28M205.28 285.28L210.66 297.26M210.66 297.26L219.16 307.27M219.16 307.27L230.11 314.53M230.11 314.53L242.65 318.45"/>
<path d="M211.4 271.01L213.37 283.4M213.37 283.4L219.06 294.58M219.06 294.58L227.93 303.45M227.93 303.45L239.11 309.14M239.11 309.14L251.5 311.11"/>
<path d="M211.44 271.01L213.4 283.39M213.4 283.39L219.09 294.56M219.09 294.56L227.95 303.42M227.95 303.42L239.12 309.11M239.12 309.11L251.5 311.07"/>
<path d="M215.74 271.01L217.49 282.06M217.49 282.06L222.57 292.03M222.57 292.03L230.48 299.94M230.48 299.94L240.45 305.02M240.45 305.02L251.5 306.77"/>
<path d="M216.38 271.01L218.1 281.86M218.1 281.86L223.09 291.65M223.09 291.65L230.86 299.42M230.86 299.42L240.65 304.41M240.65 304.41L251.5 306.13"/>
<path d="M229.08 282.73L231.94 287.05M231.94 287.05L235.63 290.71"/>
<path d="M235.69 271.01L236.89 277.06M236.89 277.06L240.32 282.19M240.32 282.19L245.45 285.62M245.45 285.62L251.5 286.82"/>
<path d="M236.33 271.01L237.48 276.82M237.48 276.82L240.77 281.74M240.77 281.74L245.69 285.03M245.69 285.03L251.5 286.18"/>
<path d="M244.68 271.01L245.6 274.42M245.6 274.42L248.09 276.91M248.09 276.91L251.5 277.83"/>
<path d="M254.03 331.72L258.5 329.87M258.5 329.87L260.35 325.4"/>
<path d="M247.84 271.01L248.91 273.6M248.91 273.6L251.5 274.67"/>
<path d="M224.31 265.32L225.98 275.87M225.98 275.87L230.83 285.39M230.83 285.39L238.38 292.95M238.38 292.95L247.9 297.8M247.9 297.8L258.46 299.47"/>
<path d="M198.93 165.08L194.45 174.56M194.45 174.56L191.71 184.68M191.71 184.68L190.79 195.12"/>
<path d="M204.39 168.28L198.96 181.21M198.96 181.21L197.11 195.12"/>
<path d="M247.71 143.32L234.79 145.61M234.79 145.61L222.86 151.07M222.86 151.07L212.68 159.35M212.68 159.35L204.91 169.92M204.91 169.92L200.04 182.1M200.04 182.1L198.38 195.12"/>
<path d="M235.06 150.85L224.65 155.93M224.65 155.93L215.81 163.41M215.81 163.41L209.08 172.84M209.08 172.84L204.87 183.63M204.87 183.63L203.44 195.12"/>
<path d="M251.5 156.29L239.11 158.25M239.11 158.25L227.93 163.94M227.93 163.94L219.06 172.81M219.06 172.81L213.37 183.99M213.37 183.99L211.4 196.38"/>
<path d="M251.5 156.32L239.12 158.28M239.12 158.28L227.95 163.97M227.95 163.97L219.09 172.83M219.09 172.83L213.4 184M213.4 184L211.44 196.38"/>
<path d="M251.5 160.62L240.45 162.37M240.45 162.37L230.48 167.45M230.48 167.45L222.57 175.36M222.57 175.36L217.49 185.33M217.49 185.33L215.74 196.38"/>
<path d="M251.5 161.26L240.65 162.98M240.65 162.98L230.86 167.97M230.86 167.97L223.09 175.74M223.09 175.74L218.1 185.53M218.1 185.53L216.38 196.38"/>
<path d="M251.5 171.09L243.77 172.3"/>
<path d="M235.64 176.67L231.92 180.37M231.92 180.37L229.04 184.75"/>
<path d="M251.5 180.57L245.45 181.78M245.45 181.78L240.32 185.2M240.32 185.2L236.89 190.33M236.89 190.33L235.69 196.38"/>
<path d="M251.5 181.21L245.69 182.36M245.69 182.36L240.77 185.65M240.77 185.65L237.48 190.58M237.48 190.58L236.33 196.38"/>
<path d="M251.5 189.56L248.09 190.48M248.09 190.48L245.6 192.97M245.6 192.97L244.68 196.38"/>
<path d="M251.5 192.72L248.91 193.79M248.91 193.79L247.84 196.38"/>
<path d="M243.91 172.81L243.68 172.17M243.68 172.17L243.1 171.82M243.1 171.82L242.42 171.92"/>
<path d="M243.91 173.24L244.21 173.95M244.21 173.95L244.92 174.25"/>
<path d="M247.71 325.34L252.77 325.4"/>
<path d="M260.47 97.96L260.32 97.75"/>
<path d="M254.03 110.37L252.18 105.9M252.18 105.9L247.71 104.05"/>
<path d="M238.29 104.05L235.15 104.89M235.15 104.89L232.83 107.18"/>
<path d="M254.03 119.78L255.4 118.88M255.4 118.88L255.93 117.33"/>
<path d="M254.03 128L255.4 127.1M255.4 127.1L255.93 125.55"/>
<path d="M260.35 154.64L254.03 155.04"/>
<path d="M242.42 171.92L234.95 177.3M234.95 177.3L229.18 184.49M229.18 184.49L225.55 192.95M225.55 192.95L224.31 202.07"/>
<path d="M270.85 167.92L270.14 168.22M270.14 168.22L269.84 168.94"/>
<path d="M268.83 174.25L269.54 173.95M269.54 173.95L269.84 173.24"/>
<path d="M260.35 78.75L253.9 79.88M253.9 79.88L248.22 83.14M248.22 83.14L243.98 88.14"/>
<path d="M256.8 102.02L256.52 102.84"/>
<path d="M261.01 97.72L260.47 97.96"/>
<path d="M260.35 85.07L254.06 86.75M254.06 86.75L249.44 91.33"/>
<path d="M257.65 98.33L255.93 103.15"/>
<path d="M263.52 98.99L259.72 100.01M259.72 100.01L256.94 102.78M256.94 102.78L255.93 106.58"/>
<path d="M274.27 100.63L269.8 102.49M269.8 102.49L267.94 106.96"/>
<path d="M260.35 97.72L257.19 98.57M257.19 98.57L254.88 100.89M254.88 100.89L254.03 104.05"/>
<path d="M261.62 133.14L258.04 134.62M258.04 134.62L256.56 138.2"/>
<path d="M263.52 141.99L265.31 141.25M265.31 141.25L266.05 139.46"/>
<path d="M263.52 135.67L265.31 134.93M265.31 134.93L266.05 133.14"/>
<path d="M256.56 141.99L258.35 141.25M258.35 141.25L259.09 139.46"/>
<path d="M261.62 135.67L259.83 136.41M259.83 136.41L259.09 138.2"/>
<path d="M359.01 331.72L372.24 330.23M372.24 330.23L384.81 325.84M384.81 325.84L396.08 318.75M396.08 318.75L405.49 309.34M405.49 309.34L412.57 298.07M412.57 298.07L416.97 285.5M416.97 285.5L418.46 272.27"/>
<path d="M361.54 325.34L374.79 323M374.79 323L387.02 317.41M387.02 317.41L397.46 308.93M397.46 308.93L405.44 298.1M405.44 298.1L410.43 285.62M410.43 285.62L412.14 272.27"/>
<path d="M361.54 324.07L374.46 321.78M374.46 321.78L386.39 316.32M386.39 316.32L396.57 308.04M396.57 308.04L404.34 297.47M404.34 297.47L409.21 285.29M409.21 285.29L410.87 272.27"/>
<path d="M366.6 318.45L379.14 314.53M379.14 314.53L390.08 307.27M390.08 307.27L398.59 297.26M398.59 297.26L403.97 285.28M403.97 285.28L405.81 272.27"/>
<path d="M357.75 311.11L370.14 309.14M370.14 309.14L381.32 303.45M381.32 303.45L390.19 294.58M390.19 294.58L395.88 283.4M395.88 283.4L397.84 271.01"/>
<path d="M357.75 311.07L370.13 309.11M370.13 309.11L381.3 303.42M381.3 303.42L390.16 294.56M390.16 294.56L395.85 283.39M395.85 283.39L397.81 271.01"/>
<path d="M357.75 306.77L368.8 305.02M368.8 305.02L378.77 299.94M378.77 299.94L386.68 292.03M386.68 292.03L391.76 282.06M391.76 282.06L393.51 271.01"/>
<path d="M357.75 306.13L368.6 304.41M368.6 304.41L378.39 299.42M378.39 299.42L386.16 291.65M386.16 291.65L391.15 281.86M391.15 281.86L392.87 271.01"/>
<path d="M373.61 290.72L377.31 287.05M377.31 287.05L380.18 282.7"/>
<path d="M357.75 286.82L363.8 285.62M363.8 285.62L368.93 282.19M368.93 282.19L372.36 277.06M372.36 277.06L373.56 271.01"/>
<path d="M357.75 286.18L363.55 285.03M363.55 285.03L368.48 281.74M368.48 281.74L371.77 276.82M371.77 276.82L372.92 271.01"/>
<path d="M357.75 277.83L361.16 276.91M361.16 276.91L363.65 274.42M363.65 274.42L364.57 271.01"/>
<path d="M348.89 325.4L350.75 329.87M350.75 329.87L355.22 331.72"/>
<path d="M357.75 274.67L360.34 273.6M360.34 273.6L361.41 271.01"/>
<path d="M350.79 299.47L361.34 297.8M361.34 297.8L370.87 292.95M370.87 292.95L378.42 285.39M378.42 285.39L383.27 275.87M383.27 275.87L384.94 265.32"/>
<path d="M359.01 323.99L361.54 324.07"/>
<path d="M368.18 215.99L364.57 216.9"/>
<path d="M361.41 216.9L358.5 219.69M358.5 219.69L357.43 223.58"/>
<path d="M357.43 243.81L358.5 247.7M358.5 247.7L361.41 250.49"/>
<path d="M364.57 250.49L368.18 251.4"/>
<path d="M365.02 219.78L362.34 220.89M362.34 220.89L361.23 223.58"/>
<path d="M361.23 243.81L362.34 246.5M362.34 246.5L365.02 247.61"/>
<path d="M369.76 219.78L372.45 218.67M372.45 218.67L373.56 215.99"/>
<path d="M373.56 251.4L372.45 248.72M372.45 248.72L369.76 247.61"/>
<path d="M355.22 155.04L348.89 154.64"/>
<path d="M384.94 202.07L383.7 192.95M383.7 192.95L380.06 184.49M380.06 184.49L374.3 177.3M374.3 177.3L366.82 171.92"/>
<path d="M339.41 168.94L339.11 168.22M339.11 168.22L338.4 167.92"/>
<path d="M339.41 173.24L339.7 173.95M339.7 173.95L340.42 174.25"/>
<path d="M365.27 88.14L361.03 83.14M361.03 83.14L355.35 79.88M355.35 79.88L348.89 78.75"/>
<path d="M352.72 102.84L352.45 102.02"/>
<path d="M348.78 97.96L348.24 97.72"/>
<path d="M359.81 91.33L355.19 86.75M355.19 86.75L348.89 85.07"/>
<path d="M353.32 103.15L351.6 98.33"/>
<path d="M353.32 106.58L352.3 102.78M352.3 102.78L349.53 100.01M349.53 100.01L345.73 98.99"/>
<path d="M341.31 106.96L339.45 102.49M339.45 102.49L334.98 100.63"/>
<path d="M355.22 104.05L353.56 99.78M353.56 99.78L349.45 97.75"/>
<path d="M350.79 106.58L349.31 103M349.31 103L345.73 101.52"/>
<path d="M352.69 138.2L351.21 134.62M351.21 134.62L347.63 133.14"/>
<path d="M343.2 139.46L343.94 141.25M343.94 141.25L345.73 141.99"/>
<path d="M350.16 139.46L350.9 141.25M350.9 141.25L352.69 141.99"/>
<path d="M343.2 133.14L343.94 134.93M343.94 134.93L345.73 135.67"/>
<path d="M350.16 138.2L349.42 136.41M349.42 136.41L347.63 135.67"/>
<path d="M418.46 195.12L417.54 184.68M417.54 184.68L414.79 174.56M414.79 174.56L410.32 165.08"/>
<path d="M412.14 195.12L410.29 181.21M410.29 181.21L404.86 168.28"/>
<path d="M410.87 195.12L409.21 182.1M409.21 182.1L404.34 169.92M404.34 169.92L396.57 159.35M396.57 159.35L386.39 151.07M386.39 151.07L374.46 145.61M374.46 145.61L361.54 143.32"/>
<path d="M405.81 195.12L404.38 183.63M404.38 183.63L400.17 172.84M400.17 172.84L393.44 163.41M393.44 163.41L384.6 155.93M384.6 155.93L374.19 150.85"/>
<path d="M397.84 196.38L395.88 183.99M395.88 183.99L390.19 172.81M390.19 172.81L381.32 163.94M381.32 163.94L370.14 158.25M370.14 158.25L357.75 156.29"/>
<path d="M397.81 196.38L395.85 184M395.85 184L390.16 172.83M390.16 172.83L381.3 163.97M381.3 163.97L370.13 158.28M370.13 158.28L357.75 156.32"/>
<path d="M393.51 196.38L391.76 185.33M391.76 185.33L386.68 175.36M386.68 175.36L378.77 167.45M378.77 167.45L368.8 162.37M368.8 162.37L357.75 160.62"/>
<path d="M392.87 196.38L391.15 185.53M391.15 185.53L386.16 175.74M386.16 175.74L378.39 167.97M378.39 167.97L368.6 162.98M368.6 162.98L357.75 161.26"/>
<path d="M380.22 184.76L377.33 180.37M377.33 180.37L373.61 176.67"/>
<path d="M365.48 172.3L357.75 171.09"/>
<path d="M373.56 196.38L372.36 190.33M372.36 190.33L368.93 185.2M368.93 185.2L363.8 181.78M363.8 181.78L357.75 180.57"/>
<path d="M372.92 196.38L371.77 190.58M371.77 190.58L368.48 185.65M368.48 185.65L363.55 182.36M363.55 182.36L357.75 181.21"/>
<path d="M364.57 196.38L363.65 192.97M363.65 192.97L361.16 190.48M361.16 190.48L357.75 189.56"/>
<path d="M361.41 196.38L360.34 193.79M360.34 193.79L357.75 192.72"/>
<path d="M364.33 174.25L365.04 173.95M365.04 173.95L365.34 173.24"/>
<path d="M366.82 171.92L366.15 171.82M366.15 171.82L365.57 172.17M365.57 172.17L365.34 172.81"/>
<path d="M356.48 325.4L361.54 325.34"/>
<path d="M348.93 97.75L348.78 97.96"/>
<path d="M361.54 104.05L357.07 105.9M357.07 105.9L355.22 110.37"/>
<path d="M376.41 107.18L374.1 104.89M374.1 104.89L370.96 104.05"/>
<path d="M353.32 121.71L355.22 122.35"/>
<path d="M350.79 125.55L352.06 128.9M352.06 128.9L355.22 130.57"/>
<path d="M353.32 117.33L353.85 118.88M353.85 118.88L355.22 119.78"/>
<path d="M353.32 125.55L353.85 127.1M353.85 127.1L355.22 128"/>
<path d="M250.24 143.56L249.93 143.49M249.93 143.49L249.61 143.43M249.61 143.43L249.3 143.38M249.3 143.38L248.98 143.35M248.98 143.35L248.66 143.32M248.66 143.32L248.34 143.31M248.34 143.31L248.02 143.31M248.02 143.31L247.71 143.32"/>
<path d="M363.22 220.24L363.42 220.12M363.42 220.12L363.61 219.97M363.61 219.97L363.79 219.81M363.79 219.81L363.95 219.63M363.95 219.63L364.09 219.44M364.09 219.44L364.22 219.23M364.22 219.23L364.33 219.02M364.33 219.02L364.42 218.8M364.42 218.8L364.49 218.57M364.49 218.57L364.55 218.34M364.55 218.34L364.59 218.1M364.59 218.1L364.61 217.86M364.61 217.86L364.62 217.62M364.62 217.62L364.62 217.38M364.62 217.38L364.6 217.14M364.6 217.14L364.57 216.9"/>
<path d="M364.57 250.49L364.6 250.25M364.6 250.25L364.62 250.01M364.62 250.01L364.62 249.77M364.62 249.77L364.61 249.53M364.61 249.53L364.59 249.29M364.59 249.29L364.55 249.06M364.55 249.06L364.49 248.82M364.49 248.82L364.42 248.59M364.42 248.59L364.33 248.37M364.33 248.37L364.22 248.16M364.22 248.16L364.09 247.95M364.09 247.95L363.95 247.76M363.95 247.76L363.79 247.58M363.79 247.58L363.61 247.42M363.61 247.42L363.42 247.28M363.42 247.28L363.22 247.15"/>
<path d="M369.76 247.61L369.94 247.61M369.94 247.61L370.11 247.63M370.11 247.63L370.27 247.66M370.27 247.66L370.44 247.7M370.44 247.7L370.6 247.75M370.6 247.75L370.76 247.8M370.76 247.8L370.92 247.87M370.92 247.87L371.07 247.95M371.07 247.95L371.22 248.04M371.22 248.04L371.36 248.13M371.36 248.13L371.5 248.23M371.5 248.23L371.63 248.34M371.63 248.34L371.76 248.46M371.76 248.46L371.88 248.58M371.88 248.58L371.99 248.71M371.99 248.71L372.1 248.84M372.1 248.84L372.2 248.98M372.2 248.98L372.29 249.13M372.29 249.13L372.38 249.27M372.38 249.27L372.46 249.42M372.46 249.42L372.53 249.58M372.53 249.58L372.6 249.73M372.6 249.73L372.72 250.05M372.72 250.05L372.81 250.38M372.81 250.38L372.87 250.72M372.87 250.72L372.91 251.06M372.91 251.06L372.92 251.4"/>
<path d="M365.02 247.61L365.19 247.61M365.19 247.61L365.36 247.63M365.36 247.63L365.53 247.66M365.53 247.66L365.7 247.7M365.7 247.7L365.86 247.75M365.86 247.75L366.02 247.8M366.02 247.8L366.18 247.87M366.18 247.87L366.33 247.95M366.33 247.95L366.48 248.04M366.48 248.04L366.62 248.13M366.62 248.13L366.76 248.23M366.76 248.23L366.89 248.34M366.89 248.34L367.01 248.46M367.01 248.46L367.13 248.58M367.13 248.58L367.25 248.71M367.25 248.71L367.35 248.84M367.35 248.84L367.45 248.98M367.45 248.98L367.55 249.13M367.55 249.13L367.63 249.27M367.63 249.27L367.71 249.42M367.71 249.42L367.79 249.58M367.79 249.58L367.86 249.73M367.86 249.73L367.97 250.05M367.97 250.05L368.06 250.38M368.06 250.38L368.13 250.72M368.13 250.72L368.17 251.06M368.17 251.06L368.18 251.4"/>
<path d="M370.96 104.05L363.55 97.72"/>
<path d="M369.76 219.78L369.94 219.78M369.94 219.78L370.11 219.76M370.11 219.76L370.27 219.73M370.27 219.73L370.44 219.69M370.44 219.69L370.6 219.65M370.6 219.65L370.76 219.59M370.76 219.59L370.92 219.52M370.92 219.52L371.07 219.44M371.07 219.44L371.22 219.35M371.22 219.35L371.36 219.26M371.36 219.26L371.5 219.16M371.5 219.16L371.63 219.05M371.63 219.05L371.76 218.93M371.76 218.93L371.88 218.81M371.88 218.81L371.99 218.68M371.99 218.68L372.1 218.55M372.1 218.55L372.2 218.41M372.2 218.41L372.29 218.27M372.29 218.27L372.38 218.12M372.38 218.12L372.46 217.97M372.46 217.97L372.53 217.82M372.53 217.82L372.6 217.66M372.6 217.66L372.72 217.34M372.72 217.34L372.81 217.01M372.81 217.01L372.87 216.67M372.87 216.67L372.91 216.33M372.91 216.33L372.92 215.99"/>
<path d="M365.02 219.78L365.19 219.78M365.19 219.78L365.36 219.76M365.36 219.76L365.53 219.73M365.53 219.73L365.7 219.69M365.7 219.69L365.86 219.65M365.86 219.65L366.02 219.59M366.02 219.59L366.18 219.52M366.18 219.52L366.33 219.44M366.33 219.44L366.48 219.35M366.48 219.35L366.62 219.26M366.62 219.26L366.76 219.16M366.76 219.16L366.89 219.05M366.89 219.05L367.01 218.93M367.01 218.93L367.13 218.81M367.13 218.81L367.25 218.68M367.25 218.68L367.35 218.55M367.35 218.55L367.45 218.41M367.45 218.41L367.55 218.27M367.55 218.27L367.63 218.12M367.63 218.12L367.71 217.97M367.71 217.97L367.79 217.82M367.79 217.82L367.86 217.66M367.86 217.66L367.97 217.34M367.97 217.34L368.06 217.01M368.06 217.01L368.13 216.67M368.13 216.67L368.17 216.33M368.17 216.33L368.18 215.99"/>
<path d="M239.48 219.78L239.31 219.78M239.31 219.78L239.14 219.76M239.14 219.76L238.97 219.73M238.97 219.73L238.81 219.69M238.81 219.69L238.64 219.65M238.64 219.65L238.48 219.59M238.48 219.59L238.33 219.52M238.33 219.52L238.17 219.44M238.17 219.44L238.03 219.35M238.03 219.35L237.89 219.26M237.89 219.26L237.75 219.16M237.75 219.16L237.62 219.05M237.62 219.05L237.49 218.93M237.49 218.93L237.37 218.81M237.37 218.81L237.26 218.68M237.26 218.68L237.15 218.55M237.15 218.55L237.05 218.41M237.05 218.41L236.96 218.27M236.96 218.27L236.87 218.12M236.87 218.12L236.79 217.97M236.79 217.97L236.72 217.82M236.72 217.82L236.65 217.66M236.65 217.66L236.53 217.34M236.53 217.34L236.44 217.01M236.44 217.01L236.38 216.67M236.38 216.67L236.34 216.33M236.34 216.33L236.33 215.99"/>
<path d="M238.29 104.05L230.89 123.02"/>
<path d="M244.23 219.78L244.06 219.78M244.06 219.78L243.89 219.76M243.89 219.76L243.72 219.73M243.72 219.73L243.55 219.69M243.55 219.69L243.39 219.65M243.39 219.65L243.23 219.59M243.23 219.59L243.07 219.52M243.07 219.52L242.92 219.44M242.92 219.44L242.77 219.35M242.77 219.35L242.63 219.26M242.63 219.26L242.49 219.16M242.49 219.16L242.36 219.05M242.36 219.05L242.24 218.93M242.24 218.93L242.12 218.81M242.12 218.81L242 218.68M242 218.68L241.9 218.55M241.9 218.55L241.8 218.41M241.8 218.41L241.7 218.27M241.7 218.27L241.62 218.12M241.62 218.12L241.53 217.97M241.53 217.97L241.46 217.82M241.46 217.82L241.39 217.66M241.39 217.66L241.28 217.34M241.28 217.34L241.19 217.01M241.19 217.01L241.12 216.67M241.12 216.67L241.08 216.33M241.08 216.33L241.07 215.99"/>
<path d="M244.23 247.61L244.06 247.61M244.06 247.61L243.89 247.63M243.89 247.63L243.72 247.66M243.72 247.66L243.55 247.7M243.55 247.7L243.39 247.75M243.39 247.75L243.23 247.8M243.23 247.8L243.07 247.87M243.07 247.87L242.92 247.95M242.92 247.95L242.77 248.04M242.77 248.04L242.63 248.13M242.63 248.13L242.49 248.23M242.49 248.23L242.36 248.34M242.36 248.34L242.24 248.46M242.24 248.46L242.12 248.58M242.12 248.58L242 248.71M242 248.71L241.9 248.84M241.9 248.84L241.8 248.98M241.8 248.98L241.7 249.13M241.7 249.13L241.62 249.27M241.62 249.27L241.53 249.42M241.53 249.42L241.46 249.58M241.46 249.58L241.39 249.73M241.39 249.73L241.28 250.05M241.28 250.05L241.19 250.38M241.19 250.38L241.12 250.72M241.12 250.72L241.08 251.06M241.08 251.06L241.07 251.4"/>
<path d="M239.48 247.61L239.31 247.61M239.31 247.61L239.14 247.63M239.14 247.63L238.97 247.66M238.97 247.66L238.81 247.7M238.81 247.7L238.64 247.75M238.64 247.75L238.48 247.8M238.48 247.8L238.33 247.87M238.33 247.87L238.17 247.95M238.17 247.95L238.03 248.04M238.03 248.04L237.89 248.13M237.89 248.13L237.75 248.23M237.75 248.23L237.62 248.34M237.62 248.34L237.49 248.46M237.49 248.46L237.37 248.58M237.37 248.58L237.26 248.71M237.26 248.71L237.15 248.84M237.15 248.84L237.05 248.98M237.05 248.98L236.96 249.13M236.96 249.13L236.87 249.27M236.87 249.27L236.79 249.42M236.79 249.42L236.72 249.58M236.72 249.58L236.65 249.73M236.65 249.73L236.53 250.05M236.53 250.05L236.44 250.38M236.44 250.38L236.38 250.72M236.38 250.72L236.34 251.06M236.34 251.06L236.33 251.4"/>
<path d="M246.03 247.15L245.83 247.28M245.83 247.28L245.64 247.42M245.64 247.42L245.46 247.58M245.46 247.58L245.3 247.76M245.3 247.76L245.16 247.95M245.16 247.95L245.03 248.16M245.03 248.16L244.92 248.37M244.92 248.37L244.83 248.59M244.83 248.59L244.76 248.82M244.76 248.82L244.7 249.06M244.7 249.06L244.66 249.29M244.66 249.29L244.63 249.53M244.63 249.53L244.62 249.77M244.62 249.77L244.63 250.01M244.63 250.01L244.65 250.25M244.65 250.25L244.68 250.49"/>
<path d="M244.68 216.9L244.65 217.14M244.65 217.14L244.63 217.38M244.63 217.38L244.62 217.62M244.62 217.62L244.63 217.86M244.63 217.86L244.66 218.1M244.66 218.1L244.7 218.34M244.7 218.34L244.76 218.57M244.76 218.57L244.83 218.8M244.83 218.8L244.92 219.02M244.92 219.02L245.03 219.23M245.03 219.23L245.16 219.44M245.16 219.44L245.3 219.63M245.3 219.63L245.46 219.81M245.46 219.81L245.64 219.97M245.64 219.97L245.83 220.12M245.83 220.12L246.03 220.24"/>
<path d="M349.45 97.72L349.82 97.73M349.82 97.73L350.19 97.77M350.19 97.77L350.56 97.82M350.56 97.82L350.93 97.89M350.93 97.89L351.29 97.98M351.29 97.98L351.64 98.1M351.64 98.1L351.99 98.23M351.99 98.23L352.33 98.38M352.33 98.38L352.66 98.55M352.66 98.55L352.98 98.74M352.98 98.74L353.29 98.95M353.29 98.95L353.59 99.18M353.59 99.18L353.87 99.42M353.87 99.42L354.14 99.68M354.14 99.68L354.39 99.95M354.39 99.95L354.63 100.24M354.63 100.24L354.85 100.54M354.85 100.54L355.05 100.85M355.05 100.85L355.23 101.18M355.23 101.18L355.4 101.51M355.4 101.51L355.54 101.86M355.54 101.86L355.66 102.21M355.66 102.21L355.76 102.57M355.76 102.57L355.84 102.94M355.84 102.94L355.9 103.3M355.9 103.3L355.93 103.68M355.93 103.68L355.94 104.05M355.94 104.05L355.93 104.42M355.93 104.42L355.9 104.79M355.9 104.79L355.84 105.16M355.84 105.16L355.76 105.53M355.76 105.53L355.66 105.88"/>
<path d="M334.98 139.91L335.27 139.9M335.27 139.9L335.56 139.88M335.56 139.88L335.85 139.86M335.85 139.86L336.14 139.82M336.14 139.82L336.42 139.76M336.42 139.76L336.7 139.7M336.7 139.7L336.98 139.63M336.98 139.63L337.26 139.54M337.26 139.54L337.53 139.44M337.53 139.44L337.8 139.33M337.8 139.33L338.07 139.21M338.07 139.21L338.32 139.08M338.32 139.08L338.58 138.94M338.58 138.94L338.82 138.78M338.82 138.78L339.06 138.62M339.06 138.62L339.29 138.44M339.29 138.44L339.51 138.25M339.51 138.25L339.72 138.06M339.72 138.06L339.92 137.85M339.92 137.85L340.12 137.63M340.12 137.63L340.29 137.4M340.29 137.4L340.46 137.16M340.46 137.16L340.62 136.92M340.62 136.92L340.76 136.66M340.76 136.66L340.88 136.4M340.88 136.4L340.99 136.13M340.99 136.13L341.09 135.86M341.09 135.86L341.16 135.58M341.16 135.58L341.23 135.3M341.23 135.3L341.27 135.01M341.27 135.01L341.3 134.72M341.3 134.72L341.31 134.43"/>
<path d="M355.66 105.88L355.76 105.58M355.76 105.58L355.87 105.28M355.87 105.28L355.98 104.99M355.98 104.99L356.11 104.7M356.11 104.7L356.24 104.41M356.24 104.41L356.38 104.12M356.38 104.12L356.53 103.84M356.53 103.84L356.68 103.56M356.68 103.56L357 103.01M357 103.01L357.35 102.48M357.35 102.48L357.72 101.96M357.72 101.96L358.1 101.45M358.1 101.45L358.5 100.96M358.5 100.96L358.91 100.48M358.91 100.48L359.33 100M359.33 100L359.77 99.54M359.77 99.54L360.2 99.08M360.2 99.08L360.65 98.62M360.65 98.62L361.54 97.72"/>
<path d="M355.22 104.05L355.22 104.17M355.22 104.17L355.23 104.28M355.23 104.28L355.27 104.52M355.27 104.52L355.32 104.75M355.32 104.75L355.38 104.98M355.38 104.98L355.52 105.43M355.52 105.43L355.66 105.88"/>
<path d="M356.48 325.4L356.49 325.85M356.49 325.85L356.51 326.31M356.51 326.31L356.54 326.76M356.54 326.76L356.59 327.21M356.59 327.21L356.65 327.66M356.65 327.66L356.73 328.11M356.73 328.11L356.82 328.56M356.82 328.56L356.93 329M356.93 329L357.06 329.43M357.06 329.43L357.22 329.86M357.22 329.86L357.31 330.07M357.31 330.07L357.4 330.28M357.4 330.28L357.51 330.48M357.51 330.48L357.62 330.68M357.62 330.68L357.74 330.87M357.74 330.87L357.88 331.05M357.88 331.05L358.03 331.22M358.03 331.22L358.19 331.38M358.19 331.38L358.28 331.45M358.28 331.45L358.37 331.52M358.37 331.52L358.47 331.57M358.47 331.57L358.57 331.63M358.57 331.63L358.68 331.67M358.68 331.67L358.79 331.7M358.79 331.7L358.9 331.72M358.9 331.72L359.01 331.72"/>
<path d="M361.54 143.32L361.22 143.31M361.22 143.31L360.91 143.31M360.91 143.31L360.59 143.32M360.59 143.32L360.27 143.35M360.27 143.35L359.95 143.38M359.95 143.38L359.64 143.43M359.64 143.43L359.32 143.49M359.32 143.49L359.01 143.56"/>
<path d="M348.93 97.75L348.95 97.72"/>
<path d="M348.78 97.96L349.09 98.12M349.09 98.12L349.4 98.29M349.4 98.29L349.7 98.48M349.7 98.48L349.98 98.68M349.98 98.68L350.26 98.9M350.26 98.9L350.52 99.13M350.52 99.13L350.78 99.37M350.78 99.37L351.02 99.63M351.02 99.63L351.25 99.89M351.25 99.89L351.46 100.17M351.46 100.17L351.66 100.46M351.66 100.46L351.85 100.76M351.85 100.76L352.02 101.06M352.02 101.06L352.18 101.38M352.18 101.38L352.32 101.7M352.32 101.7L352.45 102.02"/>
<path d="M352.45 102.02L352.61 102.11M352.61 102.11L352.77 102.22M352.77 102.22L352.91 102.34M352.91 102.34L353.04 102.47M353.04 102.47L353.16 102.62M353.16 102.62L353.2 102.7M353.2 102.7L353.24 102.78M353.24 102.78L353.28 102.87M353.28 102.87L353.3 102.96M353.3 102.96L353.32 103.05M353.32 103.05L353.32 103.15"/>
<path d="M352.72 102.84L352.86 103.29M352.86 103.29L352.98 103.75M352.98 103.75L353.08 104.22M353.08 104.22L353.17 104.69M353.17 104.69L353.23 105.16M353.23 105.16L353.28 105.63M353.28 105.63L353.31 106.1M353.31 106.1L353.32 106.58"/>
<path d="M255.93 106.58L255.94 106.1M255.94 106.1L255.97 105.63M255.97 105.63L256.02 105.16M256.02 105.16L256.08 104.69M256.08 104.69L256.17 104.22M256.17 104.22L256.27 103.75M256.27 103.75L256.39 103.29M256.39 103.29L256.52 102.84"/>
<path d="M256.8 102.02L256.64 102.11M256.64 102.11L256.48 102.22M256.48 102.22L256.34 102.34M256.34 102.34L256.2 102.47M256.2 102.47L256.09 102.62M256.09 102.62L256.04 102.7M256.04 102.7L256 102.78M256 102.78L255.97 102.87M255.97 102.87L255.95 102.96M255.95 102.96L255.93 103.05M255.93 103.05L255.93 103.15"/>
<path d="M256.8 102.02L256.93 101.7M256.93 101.7L257.07 101.38M257.07 101.38L257.23 101.06M257.23 101.06L257.4 100.76M257.4 100.76L257.59 100.46M257.59 100.46L257.79 100.17M257.79 100.17L258 99.89M258 99.89L258.23 99.63M258.23 99.63L258.47 99.37M258.47 99.37L258.73 99.13M258.73 99.13L258.99 98.9M258.99 98.9L259.27 98.68M259.27 98.68L259.55 98.48M259.55 98.48L259.85 98.29M259.85 98.29L260.15 98.12M260.15 98.12L260.47 97.96"/>
<path d="M260.32 97.75L260.3 97.72"/>
<path d="M254.03 104.05L254.03 104.17M254.03 104.17L254.01 104.28M254.01 104.28L253.98 104.52M253.98 104.52L253.92 104.75M253.92 104.75L253.86 104.98M253.86 104.98L253.73 105.43M253.73 105.43L253.59 105.88"/>
<path d="M253.59 105.88L253.49 105.58M253.49 105.58L253.38 105.28M253.38 105.28L253.26 104.99M253.26 104.99L253.14 104.7M253.14 104.7L253.01 104.41M253.01 104.41L252.87 104.12M252.87 104.12L252.72 103.84M252.72 103.84L252.57 103.56M252.57 103.56L252.24 103.01M252.24 103.01L251.9 102.48M251.9 102.48L251.53 101.96M251.53 101.96L251.15 101.45M251.15 101.45L250.75 100.96M250.75 100.96L250.34 100.48M250.34 100.48L249.91 100M249.91 100L249.48 99.54M249.48 99.54L249.04 99.08M249.04 99.08L248.6 98.62M248.6 98.62L247.71 97.72"/>
<path d="M252.77 325.4L252.76 325.85M252.76 325.85L252.74 326.31M252.74 326.31L252.71 326.76M252.71 326.76L252.66 327.21M252.66 327.21L252.6 327.66M252.6 327.66L252.52 328.11M252.52 328.11L252.43 328.56M252.43 328.56L252.32 329M252.32 329L252.18 329.43M252.18 329.43L252.03 329.86M252.03 329.86L251.94 330.07M251.94 330.07L251.85 330.28M251.85 330.28L251.74 330.48M251.74 330.48L251.63 330.68M251.63 330.68L251.51 330.87M251.51 330.87L251.37 331.05M251.37 331.05L251.22 331.22M251.22 331.22L251.06 331.38M251.06 331.38L250.97 331.45M250.97 331.45L250.88 331.52M250.88 331.52L250.78 331.57M250.78 331.57L250.68 331.63M250.68 331.63L250.57 331.67M250.57 331.67L250.46 331.7M250.46 331.7L250.35 331.72M250.35 331.72L250.24 331.72"/>
<path d="M267.94 134.43L267.95 134.72M267.95 134.72L267.98 135.01M267.98 135.01L268.02 135.3M268.02 135.3L268.08 135.58M268.08 135.58L268.16 135.86M268.16 135.86L268.26 136.13M268.26 136.13L268.37 136.4M268.37 136.4L268.49 136.66M268.49 136.66L268.63 136.92M268.63 136.92L268.79 137.16M268.79 137.16L268.95 137.4M268.95 137.4L269.13 137.63M269.13 137.63L269.32 137.85M269.32 137.85L269.53 138.06M269.53 138.06L269.74 138.25M269.74 138.25L269.96 138.44M269.96 138.44L270.19 138.62M270.19 138.62L270.43 138.78M270.43 138.78L270.67 138.94M270.67 138.94L270.92 139.08M270.92 139.08L271.18 139.21M271.18 139.21L271.45 139.33M271.45 139.33L271.72 139.44M271.72 139.44L271.99 139.54M271.99 139.54L272.26 139.63M272.26 139.63L272.54 139.7M272.54 139.7L272.83 139.76M272.83 139.76L273.11 139.82M273.11 139.82L273.4 139.86M273.4 139.86L273.69 139.88M273.69 139.88L273.98 139.9M273.98 139.9L274.27 139.91"/>
<path d="M245.7 97.72L238.29 104.05"/>
<path d="M378.36 123.02L370.96 104.05"/>
<path d="M253.59 105.88L253.49 105.53M253.49 105.53L253.41 105.16M253.41 105.16L253.35 104.79M253.35 104.79L253.32 104.42M253.32 104.42L253.31 104.05M253.31 104.05L253.32 103.68M253.32 103.68L253.35 103.3M253.35 103.3L253.41 102.94M253.41 102.94L253.49 102.57M253.49 102.57L253.59 102.21M253.59 102.21L253.71 101.86M253.71 101.86L253.85 101.51M253.85 101.51L254.01 101.18M254.01 101.18L254.2 100.85M254.2 100.85L254.4 100.54M254.4 100.54L254.62 100.24M254.62 100.24L254.85 99.95M254.85 99.95L255.11 99.68M255.11 99.68L255.38 99.42M255.38 99.42L255.66 99.18M255.66 99.18L255.96 98.95M255.96 98.95L256.27 98.74M256.27 98.74L256.59 98.55M256.59 98.55L256.92 98.38M256.92 98.38L257.26 98.23M257.26 98.23L257.61 98.1M257.61 98.1L257.96 97.98M257.96 97.98L258.32 97.89M258.32 97.89L258.69 97.82M258.69 97.82L259.06 97.77M259.06 97.77L259.43 97.73M259.43 97.73L259.8 97.72"/>
<path d="M254.03 146.91L253 144.91M253 144.91L250.24 143.56"/>
<path d="M250.24 323.99L255.44 322.61M255.44 322.61L259.06 320.05M259.06 320.05L260.35 316.83"/>
<path d="M359.01 143.56L356.25 144.91M356.25 144.91L355.22 146.91"/>
<path d="M348.89 316.83L350.19 320.05M350.19 320.05L353.81 322.61M353.81 322.61L359.01 323.99"/>
<path d="M428.41 229.86L429.91 229.11M429.91 229.11L432.17 226.85M432.17 226.85L432.17 242.66"/>
<path d="M168.56 230.62L168.56 229.86M168.56 229.86L169.31 228.36M169.31 228.36L170.06 227.6M170.06 227.6L171.57 226.85M171.57 226.85L174.58 226.85M174.58 226.85L176.09 227.6M176.09 227.6L176.84 228.36M176.84 228.36L177.59 229.86M177.59 229.86L177.59 231.37M177.59 231.37L176.84 232.87M176.84 232.87L175.33 235.13M175.33 235.13L167.8 242.66M167.8 242.66L178.34 242.66"/>
</g>
</g>
</svg>
