<?xml version="1.0" standalone="no"?><svg xmlns="http://www.w3.org/2000/svg" width="600.000" height="450.000" viewBox="0.0 0.0 600.000 450.000" version="1.1">
<title>Acme Converter - Post-processed with EDS-Designer: 14.44 (info@symca.com)</title>
<desc>Acme Converter - Post-processed with EDS-Designer: 14.44 (info@symca.com)</desc>
<g id="EDS_STYLE_GROUP" fill="none" stroke="black" stroke-width="1.0">
<g id="0" display="visible">
<path d="M224.81 389.41L224.81 354.87M226.46 354.87L226.46 389.41M219.88 354.87L239.61 354.87M239.61 354.87L244.55 356.52M244.55 356.52L246.19 358.16M246.19 358.16L247.84 361.45M247.84 361.45L247.84 364.74M247.84 364.74L246.19 368.03M246.19 368.03L244.55 369.67M244.55 369.67L239.61 371.32M239.61 354.87L242.9 356.52M242.9 356.52L244.55 358.16M244.55 358.16L246.19 361.45M246.19 361.45L246.19 364.74M246.19 364.74L244.55 368.03M244.55 368.03L242.9 369.67M242.9 369.67L239.61 371.32M226.46 371.32L239.61 371.32M239.61 371.32L244.55 372.96M244.55 372.96L246.19 374.61M246.19 374.61L247.84 377.9M247.84 377.9L247.84 382.83M247.84 382.83L246.19 386.12M246.19 386.12L244.55 387.77M244.55 387.77L239.61 389.41M239.61 389.41L219.88 389.41M239.61 371.32L242.9 372.96M242.9 372.96L244.55 374.61M244.55 374.61L246.19 377.9M246.19 377.9L246.19 382.83M246.19 382.83L244.55 386.12M244.55 386.12L242.9 387.77M242.9 387.77L239.61 389.41M260.99 389.41L260.99 354.87M262.64 354.87L262.64 389.41M256.06 354.87L267.57 354.87M256.06 389.41L280.73 389.41M280.73 389.41L280.73 379.54M280.73 379.54L279.09 389.41M300.47 354.87L288.95 389.41M300.47 354.87L311.98 389.41M300.47 359.81L310.33 389.41M292.24 379.54L307.04 379.54M285.66 389.41L295.53 389.41M305.4 389.41L315.27 389.41M343.23 359.81L344.87 364.74M344.87 364.74L344.87 354.87M344.87 354.87L343.23 359.81M343.23 359.81L339.94 356.52M339.94 356.52L335 354.87M335 354.87L331.71 354.87M331.71 354.87L326.78 356.52M326.78 356.52L323.49 359.81M323.49 359.81L321.85 363.1M321.85 363.1L320.2 368.03M320.2 368.03L320.2 376.25M320.2 376.25L321.85 381.19M321.85 381.19L323.49 384.48M323.49 384.48L326.78 387.77M326.78 387.77L331.71 389.41M331.71 389.41L335 389.41M335 389.41L339.94 387.77M339.94 387.77L343.23 384.48M343.23 384.48L344.87 381.19M331.71 354.87L328.43 356.52M328.43 356.52L325.14 359.81M325.14 359.81L323.49 363.1M323.49 363.1L321.85 368.03M321.85 368.03L321.85 376.25M321.85 376.25L323.49 381.19M323.49 381.19L325.14 384.48M325.14 384.48L328.43 387.77M328.43 387.77L331.71 389.41M359.67 389.41L359.67 354.87M361.32 354.87L361.32 389.41M382.7 354.87L361.32 376.25M369.54 369.67L382.7 389.41M367.9 369.67L381.05 389.41M354.74 354.87L366.25 354.87M376.12 354.87L385.99 354.87M354.74 389.41L366.25 389.41M376.12 389.41L385.99 389.41"/>
<path d="M41.61 168.92L41.61 180.52"/>
<path d="M41.61 298.23L41.61 275.02"/>
<path d="M46.58 221.97L46.58 184.95"/>
<path d="M46.8 191.91L46.8 280.33"/>
<path d="M51.22 284.75L51.22 187.49"/>
<path d="M63.71 184.95L63.71 187.49"/>
<path d="M66.69 291.6L66.69 315.91"/>
<path d="M79.18 270.71L79.18 224.51"/>
<path d="M91.78 258.11L91.78 237.11"/>
<path d="M93.22 315.91L93.22 291.6"/>
<path d="M120.74 237.11L120.74 258.11"/>
<path d="M128.92 184.95L128.92 187.49"/>
<path d="M91.78 237.11L79.18 224.51"/>
<path d="M120.74 258.11L133.34 270.71"/>
<path d="M133.34 224.51L133.34 270.71"/>
<path d="M135.33 270.71L135.33 224.51"/>
<path d="M139.75 187.49L139.75 184.95"/>
<path d="M147.93 258.11L147.93 237.11"/>
<path d="M202.35 74.53L193.13 83.75"/>
<path d="M153.9 118.08L153.9 168.92"/>
<path d="M158.32 168.92L158.32 113.66"/>
<path d="M165.17 168.92L165.17 129.13"/>
<path d="M166.83 113.66L166.83 118.08"/>
<path d="M188.71 94.43L204.18 78.95"/>
<path d="M147.93 237.11L135.33 224.51"/>
<path d="M176.88 258.11L189.48 270.71"/>
<path d="M169.59 168.92L169.59 133.55"/>
<path d="M171.25 65.69L171.25 109.24"/>
<path d="M175.67 109.24L175.67 61.27"/>
<path d="M176.88 237.11L176.88 258.11"/>
<path d="M179.54 168.92L179.54 133.55"/>
<path d="M183.96 168.92L183.96 133.55"/>
<path d="M188.71 120.29L188.71 65.69"/>
<path d="M384.55 320.33L307.19 320.33"/>
<path d="M63.71 320.33L282.87 320.33"/>
<path d="M406.66 320.33L541.83 320.33"/>
<path d="M512.32 315.91L406.66 315.91"/>
<path d="M388.98 315.91L302.77 315.91"/>
<path d="M282.87 315.91L93.22 315.91"/>
<path d="M189.48 224.51L189.48 270.71"/>
<path d="M191.47 270.71L191.47 224.51"/>
<path d="M193.13 83.75L193.13 61.27"/>
<path d="M204.07 258.11L204.07 237.11"/>
<path d="M91.78 258.11L79.18 270.71"/>
<path d="M120.74 237.11L133.34 224.51"/>
<path d="M512.32 291.6L406.66 291.6"/>
<path d="M282.87 291.6L93.22 291.6"/>
<path d="M46.03 287.18L62.27 287.18"/>
<path d="M97.64 287.18L302.77 287.18"/>
<path d="M388.98 287.18L507.9 287.18"/>
<path d="M543.26 287.18L559.51 287.18"/>
<path d="M204.07 237.11L191.47 224.51"/>
<path d="M233.03 258.11L245.63 270.71"/>
<path d="M212.14 91.55L212.14 104.82"/>
<path d="M212.14 168.92L212.14 133.55"/>
<path d="M216.56 87.13L216.56 104.82"/>
<path d="M216.56 168.92L216.56 129.13"/>
<path d="M223.19 61.27L223.19 78.95"/>
<path d="M51.22 284.75L554.32 284.75"/>
<path d="M46.8 280.33L558.74 280.33"/>
<path d="M526.35 270.71L472.2 270.71"/>
<path d="M470.21 270.71L416.05 270.71"/>
<path d="M414.06 270.71L359.91 270.71"/>
<path d="M357.92 270.71L303.76 270.71"/>
<path d="M301.77 270.71L247.62 270.71"/>
<path d="M245.63 270.71L191.47 270.71"/>
<path d="M189.48 270.71L135.33 270.71"/>
<path d="M133.34 270.71L79.18 270.71"/>
<path d="M559.51 270.6L558.74 270.6"/>
<path d="M46.8 270.6L46.03 270.6"/>
<path d="M227.61 65.69L227.61 74.53"/>
<path d="M232.03 187.49L232.03 191.91"/>
<path d="M233.03 237.11L233.03 258.11"/>
<path d="M236.46 71.66L236.46 87.13"/>
<path d="M236.46 177.54L236.46 183.07"/>
<path d="M240.88 67.83L240.88 87.13"/>
<path d="M240.88 183.07L240.88 173.12"/>
<path d="M245.63 224.51L245.63 270.71"/>
<path d="M147.93 258.11L135.33 270.71"/>
<path d="M176.88 237.11L189.48 224.51"/>
<path d="M513.75 258.11L484.8 258.11"/>
<path d="M457.61 258.11L428.65 258.11"/>
<path d="M401.46 258.11L372.51 258.11"/>
<path d="M345.32 258.11L316.36 258.11"/>
<path d="M289.17 258.11L260.22 258.11"/>
<path d="M233.03 258.11L204.07 258.11"/>
<path d="M176.88 258.11L147.93 258.11"/>
<path d="M120.74 258.11L91.78 258.11"/>
<path d="M260.22 237.11L247.62 224.51"/>
<path d="M289.17 258.11L301.77 270.71"/>
<path d="M247.62 270.71L247.62 224.51"/>
<path d="M260.22 258.11L260.22 237.11"/>
<path d="M260.77 168.92L260.77 80.5"/>
<path d="M265.19 168.92L265.19 87.13"/>
<path d="M91.78 237.11L120.74 237.11"/>
<path d="M147.93 237.11L176.88 237.11"/>
<path d="M204.07 237.11L233.03 237.11"/>
<path d="M260.22 237.11L289.17 237.11"/>
<path d="M316.36 237.11L345.32 237.11"/>
<path d="M372.51 237.11L401.46 237.11"/>
<path d="M428.65 237.11L457.61 237.11"/>
<path d="M484.8 237.11L513.75 237.11"/>
<path d="M269.61 168.92L269.61 130.24"/>
<path d="M282.87 320.33L282.87 287.18"/>
<path d="M204.07 258.11L191.47 270.71"/>
<path d="M79.18 224.51L133.34 224.51"/>
<path d="M135.33 224.51L189.48 224.51"/>
<path d="M191.47 224.51L245.63 224.51"/>
<path d="M247.62 224.51L301.77 224.51"/>
<path d="M303.76 224.51L357.92 224.51"/>
<path d="M359.91 224.51L414.06 224.51"/>
<path d="M416.05 224.51L470.21 224.51"/>
<path d="M472.2 224.51L526.35 224.51"/>
<path d="M558.96 221.97L558.74 221.97"/>
<path d="M46.8 221.97L46.58 221.97"/>
<path d="M316.36 237.11L303.76 224.51"/>
<path d="M345.32 258.11L357.92 270.71"/>
<path d="M289.17 237.11L289.17 258.11"/>
<path d="M301.77 224.51L301.77 270.71"/>
<path d="M302.77 287.18L302.77 315.91"/>
<path d="M303.76 270.71L303.76 224.51"/>
<path d="M233.03 237.11L245.63 224.51"/>
<path d="M412.41 83.75L409.28 86.88"/>
<path d="M46.8 191.91L232.03 191.91"/>
<path d="M373.5 191.91L558.74 191.91"/>
<path d="M196.26 86.88L193.13 83.75"/>
<path d="M316.36 258.11L316.36 237.11"/>
<path d="M260.22 258.11L247.62 270.71"/>
<path d="M554.32 187.49L373.5 187.49"/>
<path d="M232.03 187.49L51.22 187.49"/>
<path d="M46.03 184.95L236.04 184.95"/>
<path d="M369.5 184.95L559.51 184.95"/>
<path d="M240.88 183.07L236.46 183.07"/>
<path d="M369.08 183.07L364.66 183.07"/>
<path d="M236.46 177.54L369.08 177.54"/>
<path d="M364.66 173.12L240.88 173.12"/>
<path d="M563.93 168.92L447.22 168.92"/>
<path d="M440.37 168.92L388.98 168.92"/>
<path d="M344.77 168.92L260.77 168.92"/>
<path d="M216.56 168.92L165.17 168.92"/>
<path d="M158.32 168.92L41.61 168.92"/>
<path d="M372.51 237.11L359.91 224.51"/>
<path d="M401.46 258.11L414.06 270.71"/>
<path d="M335.92 168.92L335.92 130.24"/>
<path d="M340.35 87.13L340.35 168.92"/>
<path d="M289.17 237.11L301.77 224.51"/>
<path d="M344.77 80.5L344.77 168.92"/>
<path d="M345.32 237.11L345.32 258.11"/>
<path d="M357.92 224.51L357.92 270.71"/>
<path d="M359.91 270.71L359.91 224.51"/>
<path d="M316.36 258.11L303.76 270.71"/>
<path d="M265.19 134.66L340.35 134.66"/>
<path d="M169.59 133.55L212.14 133.55"/>
<path d="M393.4 133.55L435.95 133.55"/>
<path d="M335.92 130.24L269.61 130.24"/>
<path d="M428.65 237.11L416.05 224.51"/>
<path d="M364.66 67.83L364.66 87.13"/>
<path d="M364.66 183.07L364.66 173.12"/>
<path d="M369.08 71.66L369.08 87.13"/>
<path d="M369.08 183.07L369.08 177.54"/>
<path d="M372.51 258.11L372.51 237.11"/>
<path d="M373.5 191.91L373.5 187.49"/>
<path d="M377.92 65.69L377.92 74.53"/>
<path d="M382.34 78.95L382.34 61.27"/>
<path d="M345.32 237.11L357.92 224.51"/>
<path d="M165.17 129.13L216.56 129.13"/>
<path d="M388.98 129.13L440.37 129.13"/>
<path d="M188.71 120.29L265.19 120.29"/>
<path d="M340.35 120.29L416.83 120.29"/>
<path d="M153.9 118.08L166.83 118.08"/>
<path d="M438.71 118.08L451.64 118.08"/>
<path d="M447.22 113.66L438.71 113.66"/>
<path d="M340.35 113.66L265.19 113.66"/>
<path d="M166.83 113.66L158.32 113.66"/>
<path d="M340.35 111.45L265.19 111.45"/>
<path d="M457.61 258.11L470.21 270.71"/>
<path d="M388.98 129.13L388.98 168.92"/>
<path d="M388.98 287.18L388.98 315.91"/>
<path d="M388.98 104.82L388.98 87.13"/>
<path d="M393.4 133.55L393.4 168.92"/>
<path d="M393.4 104.82L393.4 91.55"/>
<path d="M401.46 237.11L401.46 258.11"/>
<path d="M372.51 258.11L359.91 270.71"/>
<path d="M434.29 109.24L429.87 109.24"/>
<path d="M175.67 109.24L171.25 109.24"/>
<path d="M340.35 108.49L265.19 108.49"/>
<path d="M340.35 105.82L265.19 105.82"/>
<path d="M416.83 104.82L388.98 104.82"/>
<path d="M216.56 104.82L188.71 104.82"/>
<path d="M340.35 93.95L265.19 93.95"/>
<path d="M340.35 92.66L265.19 92.66"/>
<path d="M484.8 237.11L472.2 224.51"/>
<path d="M406.66 320.33L406.66 287.18"/>
<path d="M412.41 61.27L412.41 83.75"/>
<path d="M414.06 224.51L414.06 270.71"/>
<path d="M416.05 270.71L416.05 224.51"/>
<path d="M416.83 120.29L416.83 65.69"/>
<path d="M421.58 168.92L421.58 133.55"/>
<path d="M401.46 237.11L414.06 224.51"/>
<path d="M340.67 87.13L264.86 87.13"/>
<path d="M216.56 87.13L260.77 87.13"/>
<path d="M344.77 87.13L388.98 87.13"/>
<path d="M236.46 80.5L260.77 80.5"/>
<path d="M344.77 80.5L369.08 80.5"/>
<path d="M369.08 79.75L236.46 79.75"/>
<path d="M401.35 78.95L382.34 78.95"/>
<path d="M223.19 78.95L204.18 78.95"/>
<path d="M403.18 74.53L377.92 74.53"/>
<path d="M227.61 74.53L202.35 74.53"/>
<path d="M171.25 72.32L188.71 72.32"/>
<path d="M416.83 72.32L434.29 72.32"/>
<path d="M513.75 258.11L526.35 270.71"/>
<path d="M426 168.92L426 133.55"/>
<path d="M428.65 258.11L428.65 237.11"/>
<path d="M429.87 109.24L429.87 61.27"/>
<path d="M434.29 109.24L434.29 65.69"/>
<path d="M435.95 133.55L435.95 168.92"/>
<path d="M438.71 118.08L438.71 113.66"/>
<path d="M440.37 129.13L440.37 168.92"/>
<path d="M428.65 258.11L416.05 270.71"/>
<path d="M364.66 70.17L240.88 70.17"/>
<path d="M188.71 65.69L227.61 65.69"/>
<path d="M377.92 65.69L416.83 65.69"/>
<path d="M361.34 62.09L244.19 62.09"/>
<path d="M175.67 61.27L223.19 61.27"/>
<path d="M382.34 61.27L429.87 61.27"/>
<path d="M358.03 60.61L247.51 60.61"/>
<path d="M447.22 168.92L447.22 113.66"/>
<path d="M451.64 168.92L451.64 118.08"/>
<path d="M457.61 237.11L457.61 258.11"/>
<path d="M457.61 237.11L470.21 224.51"/>
<path d="M416.83 94.43L401.35 78.95"/>
<path d="M412.41 83.75L403.18 74.53"/>
<path d="M465.79 184.95L465.79 187.49"/>
<path d="M470.21 224.51L470.21 270.71"/>
<path d="M472.2 270.71L472.2 224.51"/>
<path d="M476.62 187.49L476.62 184.95"/>
<path d="M484.8 258.11L472.2 270.71"/>
<path d="M484.8 258.11L484.8 237.11"/>
<path d="M513.75 237.11L526.35 224.51"/>
<path d="M512.32 291.6L512.32 315.91"/>
<path d="M513.75 237.11L513.75 258.11"/>
<path d="M526.35 224.51L526.35 270.71"/>
<path d="M538.84 315.91L538.84 291.6"/>
<path d="M541.83 184.95L541.83 187.49"/>
<path d="M554.32 284.75L554.32 187.49"/>
<path d="M558.74 280.33L558.74 191.91"/>
<path d="M558.96 184.95L558.96 221.97"/>
<path d="M563.93 298.23L563.93 275.02"/>
<path d="M563.93 180.52L563.93 168.92"/>
<path d="M41.61 298.23L43.29 306.69M43.29 306.69L48.08 313.86M48.08 313.86L55.25 318.65M55.25 318.65L63.71 320.33"/>
<path d="M88.8 320.33L91.92 319.04M91.92 319.04L93.22 315.91"/>
<path d="M66.69 315.91L67.99 319.04M67.99 319.04L71.11 320.33"/>
<path d="M41.61 282.76L42.9 285.88M42.9 285.88L46.03 287.18"/>
<path d="M46.03 270.6L42.9 271.89M42.9 271.89L41.61 275.02"/>
<path d="M46.8 280.33L48.09 283.45M48.09 283.45L51.22 284.75"/>
<path d="M51.22 187.49L48.09 188.78M48.09 188.78L46.8 191.91"/>
<path d="M66.69 291.6L65.4 288.47M65.4 288.47L62.27 287.18"/>
<path d="M97.64 287.18L94.51 288.47M94.51 288.47L93.22 291.6"/>
<path d="M247.51 60.61L241.98 62.09M241.98 62.09L237.94 66.13M237.94 66.13L236.46 71.66"/>
<path d="M166.83 118.08L171.25 116.89M171.25 116.89L174.48 113.66M174.48 113.66L175.67 109.24"/>
<path d="M232.03 191.91L236.46 190.72M236.46 190.72L239.69 187.49M239.69 187.49L240.88 183.07"/>
<path d="M244.19 62.09L241.77 64.51M241.77 64.51L240.88 67.82"/>
<path d="M41.61 180.52L42.9 183.65M42.9 183.65L46.03 184.95"/>
<path d="M232.03 187.49L235.16 186.19M235.16 186.19L236.46 183.07"/>
<path d="M240.88 173.12L237.75 174.41M237.75 174.41L236.46 177.54"/>
<path d="M216.56 87.13L213.44 88.43M213.44 88.43L212.14 91.55"/>
<path d="M265.19 125.82L266.49 128.94M266.49 128.94L269.61 130.24"/>
<path d="M265.19 91.55L263.9 88.43M263.9 88.43L260.77 87.13"/>
<path d="M223.19 78.95L226.32 77.66M226.32 77.66L227.61 74.53"/>
<path d="M227.61 65.69L226.32 62.57M226.32 62.57L223.19 61.27"/>
<path d="M175.67 61.27L172.54 62.57M172.54 62.57L171.25 65.69"/>
<path d="M188.71 65.69L187.42 62.57M187.42 62.57L184.29 61.27"/>
<path d="M158.32 113.66L155.19 114.95M155.19 114.95L153.9 118.08"/>
<path d="M166.83 113.66L169.95 112.36M169.95 112.36L171.25 109.24"/>
<path d="M541.83 320.33L550.29 318.65M550.29 318.65L557.46 313.86M557.46 313.86L562.25 306.69M562.25 306.69L563.93 298.23"/>
<path d="M302.77 315.91L304.06 319.04M304.06 319.04L307.19 320.33"/>
<path d="M563.93 275.02L562.64 271.89M562.64 271.89L559.51 270.6"/>
<path d="M559.51 287.18L562.64 285.88M562.64 285.88L563.93 282.76"/>
<path d="M534.42 320.33L537.55 319.04M537.55 319.04L538.84 315.91"/>
<path d="M512.32 315.91L513.61 319.04M513.61 319.04L516.74 320.33"/>
<path d="M384.55 320.33L387.68 319.04M387.68 319.04L388.98 315.91"/>
<path d="M558.74 191.91L557.44 188.78M557.44 188.78L554.32 187.49"/>
<path d="M554.32 284.75L557.44 283.45M557.44 283.45L558.74 280.33"/>
<path d="M543.26 287.18L540.14 288.47M540.14 288.47L538.84 291.6"/>
<path d="M512.32 291.6L511.02 288.47M511.02 288.47L507.9 287.18"/>
<path d="M369.08 71.66L367.6 66.13M367.6 66.13L363.56 62.09M363.56 62.09L358.03 60.61"/>
<path d="M364.66 183.07L365.85 187.49M365.85 187.49L369.08 190.72M369.08 190.72L373.5 191.91"/>
<path d="M429.87 109.24L431.05 113.66M431.05 113.66L434.29 116.89M434.29 116.89L438.71 118.08"/>
<path d="M364.66 67.82L363.77 64.51M363.77 64.51L361.34 62.09"/>
<path d="M559.51 184.95L562.64 183.65M562.64 183.65L563.93 180.52"/>
<path d="M434.29 65.69L432.99 62.57M432.99 62.57L429.87 61.27"/>
<path d="M369.08 177.54L367.79 174.41M367.79 174.41L364.66 173.12"/>
<path d="M369.08 183.07L370.38 186.19M370.38 186.19L373.5 187.49"/>
<path d="M393.4 91.55L392.1 88.43M392.1 88.43L388.98 87.13"/>
<path d="M335.92 130.24L339.05 128.94M339.05 128.94L340.35 125.82"/>
<path d="M344.77 87.13L341.64 88.43M341.64 88.43L340.35 91.55"/>
<path d="M382.34 61.27L379.22 62.57M379.22 62.57L377.92 65.69"/>
<path d="M377.92 74.53L379.22 77.66M379.22 77.66L382.34 78.95"/>
<path d="M434.29 109.24L435.58 112.36M435.58 112.36L438.71 113.66"/>
<path d="M451.64 118.08L450.35 114.95M450.35 114.95L447.22 113.66"/>
<path d="M421.25 61.27L418.12 62.57M418.12 62.57L416.83 65.69"/>
<path d="M388.98 129.13L393.4 133.55"/>
<path d="M212.14 133.55L216.56 129.13"/>
<path d="M260.77 80.5L261.39 81.26M261.39 81.26L261.99 82.02M261.99 82.02L262.29 82.41M262.29 82.41L262.59 82.81M262.59 82.81L262.87 83.21M262.87 83.21L263.15 83.62M263.15 83.62L263.42 84.04M263.42 84.04L263.68 84.46M263.68 84.46L263.92 84.88M263.92 84.88L264.14 85.32M264.14 85.32L264.35 85.76M264.35 85.76L264.54 86.21M264.54 86.21L264.71 86.67M264.71 86.67L264.86 87.13"/>
<path d="M340.67 87.13L340.82 86.67M340.82 86.67L340.99 86.21M340.99 86.21L341.19 85.76M341.19 85.76L341.4 85.31M341.4 85.31L341.62 84.88M341.62 84.88L341.86 84.45M341.86 84.45L342.12 84.03M342.12 84.03L342.38 83.62M342.38 83.62L342.66 83.22M342.66 83.22L342.94 82.82M342.94 82.82L343.24 82.42M343.24 82.42L343.54 82.03M343.54 82.03L344.15 81.26M344.15 81.26L344.77 80.5"/>
<path d="M369.08 71.66L369.08 71.46M369.08 71.46L369.06 71.26M369.06 71.26L369.03 71.06M369.03 71.06L368.98 70.86M368.98 70.86L368.93 70.66M368.93 70.66L368.86 70.47M368.86 70.47L368.78 70.28M368.78 70.28L368.7 70.1M368.7 70.1L368.6 69.92M368.6 69.92L368.49 69.75M368.49 69.75L368.37 69.58M368.37 69.58L368.25 69.42M368.25 69.42L368.11 69.27M368.11 69.27L367.97 69.12M367.97 69.12L367.82 68.99M367.82 68.99L367.67 68.86M367.67 68.86L367.51 68.73M367.51 68.73L367.34 68.62M367.34 68.62L367.17 68.51M367.17 68.51L367 68.41M367 68.41L366.82 68.32M366.82 68.32L366.63 68.23M366.63 68.23L366.44 68.16M366.44 68.16L366.25 68.09M366.25 68.09L366.06 68.03M366.06 68.03L365.86 67.98M365.86 67.98L365.66 67.93M365.66 67.93L365.47 67.9M365.47 67.9L365.26 67.87M365.26 67.87L365.06 67.85M365.06 67.85L364.86 67.84M364.86 67.84L364.66 67.83"/>
<path d="M363.55 62.09L363.43 62.02M363.43 62.02L363.3 61.96M363.3 61.96L363.16 61.92M363.16 61.92L363.02 61.88M363.02 61.88L362.88 61.85M362.88 61.85L362.74 61.83M362.74 61.83L362.6 61.82M362.6 61.82L362.45 61.82M362.45 61.82L362.31 61.83M362.31 61.83L362.17 61.85M362.17 61.85L362.03 61.87M362.03 61.87L361.89 61.9M361.89 61.9L361.61 61.98M361.61 61.98L361.34 62.09"/>
<path d="M240.88 70.17L240.55 70.18M240.55 70.18L240.22 70.21M240.22 70.21L239.89 70.27M239.89 70.27L239.57 70.34M239.57 70.34L239.26 70.44M239.26 70.44L238.95 70.56M238.95 70.56L238.65 70.69M238.65 70.69L238.36 70.85M238.36 70.85L238.08 71.03M238.08 71.03L237.82 71.23M237.82 71.23L237.58 71.45M237.58 71.45L237.35 71.69M237.35 71.69L237.24 71.82M237.24 71.82L237.14 71.95M237.14 71.95L237.05 72.09M237.05 72.09L236.96 72.23M236.96 72.23L236.88 72.37M236.88 72.37L236.8 72.52M236.8 72.52L236.73 72.67M236.73 72.67L236.67 72.82"/>
<path d="M236.67 72.82L236.58 73.1M236.58 73.1L236.51 73.4M236.51 73.4L236.47 73.7M236.47 73.7L236.46 74"/>
<path d="M240.88 67.83L240.67 67.84M240.67 67.84L240.47 67.85M240.47 67.85L240.27 67.87M240.27 67.87L240.07 67.9M240.07 67.9L239.87 67.93M239.87 67.93L239.67 67.98M239.67 67.98L239.48 68.03M239.48 68.03L239.28 68.09M239.28 68.09L239.09 68.16M239.09 68.16L238.91 68.23M238.91 68.23L238.72 68.32M238.72 68.32L238.54 68.41M238.54 68.41L238.36 68.51M238.36 68.51L238.19 68.62M238.19 68.62L238.03 68.73M238.03 68.73L237.87 68.86M237.87 68.86L237.71 68.99M237.71 68.99L237.56 69.12M237.56 69.12L237.42 69.27M237.42 69.27L237.29 69.42M237.29 69.42L237.16 69.58M237.16 69.58L237.05 69.75M237.05 69.75L236.94 69.92M236.94 69.92L236.84 70.1M236.84 70.1L236.75 70.28M236.75 70.28L236.68 70.47M236.68 70.47L236.61 70.66M236.61 70.66L236.55 70.86M236.55 70.86L236.51 71.06M236.51 71.06L236.48 71.26M236.48 71.26L236.46 71.46M236.46 71.46L236.46 71.66"/>
<path d="M244.19 62.09L243.93 61.98M243.93 61.98L243.65 61.9M243.65 61.9L243.51 61.87M243.51 61.87L243.37 61.85M243.37 61.85L243.23 61.83M243.23 61.83L243.08 61.82M243.08 61.82L242.94 61.82M242.94 61.82L242.8 61.83M242.8 61.83L242.65 61.85M242.65 61.85L242.51 61.88M242.51 61.88L242.38 61.92M242.38 61.92L242.24 61.96M242.24 61.96L242.11 62.02M242.11 62.02L241.98 62.09"/>
<path d="M358.03 60.61L358.26 60.61M358.26 60.61L358.49 60.64M358.49 60.64L358.72 60.67M358.72 60.67L358.95 60.72M358.95 60.72L359.17 60.77M359.17 60.77L359.4 60.85M359.4 60.85L359.61 60.93M359.61 60.93L359.82 61.02M359.82 61.02L360.03 61.12M360.03 61.12L360.24 61.24M360.24 61.24L360.43 61.36M360.43 61.36L360.63 61.49M360.63 61.49L360.82 61.63M360.82 61.63L361 61.78M361 61.78L361.17 61.93M361.17 61.93L361.34 62.09"/>
<path d="M247.51 60.61L247.28 60.61M247.28 60.61L247.04 60.64M247.04 60.64L246.81 60.67M246.81 60.67L246.59 60.72M246.59 60.72L246.36 60.77M246.36 60.77L246.14 60.85M246.14 60.85L245.92 60.93M245.92 60.93L245.71 61.02M245.71 61.02L245.5 61.12M245.5 61.12L245.3 61.24M245.3 61.24L245.1 61.36M245.1 61.36L244.91 61.49M244.91 61.49L244.72 61.63M244.72 61.63L244.54 61.78M244.54 61.78L244.36 61.93M244.36 61.93L244.19 62.09"/>
<path d="M204.18 78.95L202.35 74.53"/>
<path d="M369.08 74L369.07 73.7M369.07 73.7L369.03 73.4M369.03 73.4L368.96 73.11M368.96 73.11L368.87 72.82"/>
<path d="M368.87 72.82L368.8 72.67M368.8 72.67L368.73 72.52M368.73 72.52L368.66 72.37M368.66 72.37L368.58 72.23M368.58 72.23L368.49 72.09M368.49 72.09L368.39 71.95M368.39 71.95L368.29 71.82M368.29 71.82L368.19 71.69M368.19 71.69L367.96 71.45M367.96 71.45L367.71 71.23M367.71 71.23L367.45 71.03M367.45 71.03L367.18 70.85M367.18 70.85L366.89 70.69M366.89 70.69L366.59 70.56M366.59 70.56L366.28 70.44M366.28 70.44L365.96 70.34M365.96 70.34L365.64 70.27M365.64 70.27L365.32 70.21M365.32 70.21L364.99 70.18M364.99 70.18L364.66 70.17"/>
<path d="M193.13 83.75L188.71 92.6"/>
<path d="M416.83 92.6L412.41 83.75"/>
<path d="M403.18 74.53L401.35 78.95"/>
<path d="M169.59 133.55L165.17 129.13"/>
<path d="M435.95 133.55L440.37 129.13"/>
<path d="M587.42 233.29L590.05 231.97M590.05 231.97L594 228.02M594 228.02L594 255.66"/>
<path d="M12.49 228.02L8.54 229.34M8.54 229.34L7.23 231.97M7.23 231.97L7.23 234.6M7.23 234.6L8.54 237.24M8.54 237.24L11.18 238.55M11.18 238.55L16.44 239.87M16.44 239.87L20.39 241.18M20.39 241.18L23.02 243.81M23.02 243.81L24.33 246.45M24.33 246.45L24.33 250.39M24.33 250.39L23.02 253.02M23.02 253.02L21.7 254.34M21.7 254.34L17.76 255.66M17.76 255.66L12.49 255.66M12.49 255.66L8.54 254.34M8.54 254.34L7.23 253.02M7.23 253.02L5.91 250.39M5.91 250.39L5.91 246.45M5.91 246.45L7.23 243.81M7.23 243.81L9.86 241.18M9.86 241.18L13.81 239.87M13.81 239.87L19.07 238.55M19.07 238.55L21.7 237.24M21.7 237.24L23.02 234.6M23.02 234.6L23.02 231.97M23.02 231.97L21.7 229.34M21.7 229.34L17.76 228.02M17.76 228.02L12.49 228.02"/>
</g>
</g>
</svg>
