<?xml version="1.0" standalone="no"?><svg xmlns="http://www.w3.org/2000/svg" width="600.000" height="450.000" viewBox="0.0 0.0 600.000 450.000" version="1.1">
<title>Acme Converter - Post-processed with EDS-Designer: 14.44 (info@symca.com)</title>
<desc>Acme Converter - Post-processed with EDS-Designer: 14.44 (info@symca.com)</desc>
<g id="EDS_STYLE_GROUP" fill="none" stroke="black" stroke-width="1.0">
<g id="0" display="visible">
<path d="M269.81 383.76L269.81 365.08M270.7 365.08L270.7 383.76M267.14 365.08L277.82 365.08M277.82 365.08L280.48 365.97M280.48 365.97L281.37 366.86M281.37 366.86L282.26 368.64M282.26 368.64L282.26 370.42M282.26 370.42L281.37 372.2M281.37 372.2L280.48 373.09M280.48 373.09L277.82 373.98M277.82 365.08L279.6 365.97M279.6 365.97L280.48 366.86M280.48 366.86L281.37 368.64M281.37 368.64L281.37 370.42M281.37 370.42L280.48 372.2M280.48 372.2L279.6 373.09M279.6 373.09L277.82 373.98M270.7 373.98L277.82 373.98M277.82 373.98L280.48 374.87M280.48 374.87L281.37 375.76M281.37 375.76L282.26 377.54M282.26 377.54L282.26 380.2M282.26 380.2L281.37 381.98M281.37 381.98L280.48 382.87M280.48 382.87L277.82 383.76M277.82 383.76L267.14 383.76M277.82 373.98L279.6 374.87M279.6 374.87L280.48 375.76M280.48 375.76L281.37 377.54M281.37 377.54L281.37 380.2M281.37 380.2L280.48 381.98M280.48 381.98L279.6 382.87M279.6 382.87L277.82 383.76M289.38 383.76L289.38 365.08M290.27 365.08L290.27 383.76M286.71 365.08L292.94 365.08M286.71 383.76L300.06 383.76M300.06 383.76L300.06 378.42M300.06 378.42L299.17 383.76M305.4 365.08L305.4 378.42M305.4 378.42L306.29 381.09M306.29 381.09L308.07 382.87M308.07 382.87L310.73 383.76M310.73 383.76L312.51 383.76M312.51 383.76L315.18 382.87M315.18 382.87L316.96 381.09M316.96 381.09L317.85 378.42M317.85 378.42L317.85 365.08M306.29 365.08L306.29 378.42M306.29 378.42L307.18 381.09M307.18 381.09L308.95 382.87M308.95 382.87L310.73 383.76M302.73 365.08L308.95 365.08M315.18 365.08L320.52 365.08M326.75 383.76L326.75 365.08M327.64 365.08L327.64 383.76M332.98 370.42L332.98 377.54M324.08 365.08L338.31 365.08M338.31 365.08L338.31 370.42M338.31 370.42L337.42 365.08M327.64 373.98L332.98 373.98M324.08 383.76L338.31 383.76M338.31 383.76L338.31 378.42M338.31 378.42L337.42 383.76"/>
<path d="M320.36 135.29L320.36 93.59"/>
<path d="M193.38 133.61L193.38 93.59"/>
<path d="M318.89 90.28L305.34 80.03M305.34 80.03L290.13 72.46M290.13 72.46L273.79 67.81M273.79 67.81L256.87 66.24M256.87 66.24L239.95 67.81M239.95 67.81L223.61 72.46M223.61 72.46L208.4 80.03M208.4 80.03L194.84 90.28"/>
<path d="M320.36 93.59L319.98 91.78M319.98 91.78L318.89 90.28"/>
<path d="M194.84 90.28L193.76 91.78M193.76 91.78L193.38 93.59"/>
<path d="M206.87 94.85L206.87 132.91"/>
<path d="M256.87 77.35L240.1 78.79M240.1 78.79L223.93 83.42M223.93 83.42L208.94 91.07"/>
<path d="M208.94 91.07L207.42 92.69M207.42 92.69L206.87 94.85"/>
<path d="M214.01 140.05L214.01 88.07"/>
<path d="M206.87 132.91L214.01 140.05"/>
<path d="M214.01 88.07L256.87 88.07"/>
<path d="M256.87 91.64L214.8 91.64"/>
<path d="M256.87 95.61L215.6 95.61"/>
<path d="M215.6 100.37L256.87 100.37"/>
<path d="M214.01 88.07L214.8 91.64"/>
<path d="M214.8 91.64L215.6 95.61"/>
<path d="M215.6 95.61L215.6 100.37"/>
<path d="M214.01 140.05L256.87 140.05"/>
<path d="M245.2 140.05L238.46 127.62"/>
<path d="M240.04 124.97L256.87 124.97"/>
<path d="M240.04 124.97L238.9 125.38M238.9 125.38L238.28 126.42M238.28 126.42L238.46 127.62"/>
<path d="M214.01 130.53L240.04 130.53"/>
<path d="M214.01 127.32L238.3 127.32"/>
<path d="M214.01 126.2L238.34 126.2"/>
<path d="M240.04 124.97L225.88 124.97"/>
<path d="M214.01 126.2L225.88 124.97"/>
<path d="M225.88 124.97L225.88 100.37"/>
<path d="M306.87 94.85L306.87 132.91"/>
<path d="M304.79 91.07L289.81 83.42M289.81 83.42L273.63 78.79M273.63 78.79L256.87 77.35"/>
<path d="M306.87 94.85L306.31 92.69M306.31 92.69L304.79 91.07"/>
<path d="M299.72 140.05L299.72 88.07"/>
<path d="M306.87 132.91L299.72 140.05"/>
<path d="M299.72 88.07L256.87 88.07"/>
<path d="M256.87 91.64L298.93 91.64"/>
<path d="M256.87 95.61L298.14 95.61"/>
<path d="M298.14 100.37L256.87 100.37"/>
<path d="M299.72 88.07L298.93 91.64"/>
<path d="M298.93 91.64L298.14 95.61"/>
<path d="M298.14 95.61L298.14 100.37"/>
<path d="M299.72 140.05L256.87 140.05"/>
<path d="M268.53 140.05L275.27 127.62"/>
<path d="M273.7 124.97L256.87 124.97"/>
<path d="M275.27 127.62L275.46 126.42M275.46 126.42L274.84 125.38M274.84 125.38L273.7 124.97"/>
<path d="M299.72 130.53L273.7 130.53"/>
<path d="M299.72 127.32L275.44 127.32"/>
<path d="M299.72 126.2L275.4 126.2"/>
<path d="M273.7 124.97L287.85 124.97"/>
<path d="M299.72 126.2L287.85 124.97"/>
<path d="M287.85 124.97L287.85 100.37"/>
<path d="M320.36 135.29L408.82 135.29"/>
<path d="M419.49 278.94L188.56 278.94"/>
<path d="M423.29 276.83L432.97 257.67M432.97 257.67L439.01 237.08M439.01 237.08L441.23 215.73M441.23 215.73L439.53 194.34M439.53 194.34L433.98 173.6M433.98 173.6L424.77 154.22M424.77 154.22L412.2 136.83"/>
<path d="M419.49 278.94L421.66 278.38M421.66 278.38L423.29 276.83"/>
<path d="M412.2 136.83L410.67 135.69M410.67 135.69L408.82 135.29"/>
<path d="M192.3 136.53L181.23 151.83M181.23 151.83L172.81 168.74M172.81 168.74L167.26 186.79M167.26 186.79L164.72 205.5M164.72 205.5L165.27 224.38M165.27 224.38L168.89 242.91M168.89 242.91L175.48 260.61M175.48 260.61L184.87 276.99"/>
<path d="M184.87 276.99L186.48 278.42M186.48 278.42L188.56 278.94"/>
<path d="M192.3 136.53L193.38 133.61"/>
<path d="M221.95 278.94L221.95 311.89"/>
<path d="M221.95 311.89L222.85 315.26M222.85 315.26L225.31 317.72M225.31 317.72L228.67 318.62"/>
<path d="M288.61 318.62L228.67 318.62"/>
<path d="M229.88 278.94L229.88 318.62"/>
<path d="M288.61 311.48L221.95 311.48"/>
<path d="M288.61 278.94L288.61 346.4"/>
<path d="M302.9 346.4L288.61 346.4"/>
<path d="M288.61 326.23L302.9 326.23"/>
<path d="M383.85 278.94L383.85 311.89"/>
<path d="M377.12 318.62L380.49 317.72M380.49 317.72L382.95 315.26M382.95 315.26L383.85 311.89"/>
<path d="M317.18 318.62L377.12 318.62"/>
<path d="M375.91 278.94L375.91 318.62"/>
<path d="M317.18 311.48L383.85 311.48"/>
<path d="M317.18 278.94L317.18 346.4"/>
<path d="M302.9 346.4L317.18 346.4"/>
<path d="M317.18 326.23L302.9 326.23"/>
<path d="M235.68 148.38L235.68 140.05"/>
<path d="M278.05 140.05L278.05 158.08"/>
<path d="M235.68 148.38L235.68 140.05"/>
<path d="M238.71 147.96L238.71 140.05"/>
<path d="M238.71 147.96L238.71 140.05"/>
<path d="M241.73 147.71L241.73 140.05"/>
<path d="M241.73 147.71L241.73 140.05"/>
<path d="M272 154.36L272 140.05"/>
<path d="M272 154.36L272 140.05"/>
<path d="M275.03 150.56L275.03 140.05"/>
<path d="M275.03 150.56L275.03 140.05"/>
<path d="M278.05 140.05L278.05 158.08"/>
<path d="M266.17 151.66L263.14 150.56"/>
<path d="M275.03 156.09L275.03 140.05"/>
<path d="M266.17 151.66L263.14 150.56"/>
<path d="M218.41 167.39L220.18 166.2"/>
<path d="M206.05 180.33L207.24 178.55"/>
<path d="M203.17 178.49L206.05 180.33"/>
<path d="M203.17 178.49L199.94 177.54M199.94 177.54L196.7 178.47M196.7 178.47L194.46 180.99"/>
<path d="M194.46 180.99L190.37 192.75M190.37 192.75L188.99 205.13M188.99 205.13L190.37 217.5M190.37 217.5L194.46 229.27"/>
<path d="M194.46 229.27L196.7 231.78M196.7 231.78L199.94 232.71M199.94 232.71L203.17 231.76"/>
<path d="M206.05 229.93L203.17 231.76"/>
<path d="M207.24 231.7L206.05 229.93"/>
<path d="M220.18 244.05L218.41 242.87"/>
<path d="M218.35 246.93L220.18 244.05"/>
<path d="M218.35 246.93L217.4 250.17M217.4 250.17L218.33 253.41M218.33 253.41L220.84 255.65"/>
<path d="M220.84 255.65L232.61 259.74M232.61 259.74L244.98 261.12M244.98 261.12L257.36 259.74M257.36 259.74L269.12 255.65"/>
<path d="M269.12 255.65L271.64 253.41M271.64 253.41L272.57 250.17M272.57 250.17L271.62 246.93"/>
<path d="M269.78 244.05L271.62 246.93"/>
<path d="M271.56 242.87L269.78 244.05"/>
<path d="M283.91 229.93L282.72 231.7"/>
<path d="M286.79 231.76L283.91 229.93"/>
<path d="M286.79 231.76L290.03 232.71M290.03 232.71L293.27 231.78M293.27 231.78L295.51 229.27"/>
<path d="M295.51 229.27L299.59 217.5M299.59 217.5L300.98 205.13M300.98 205.13L299.59 192.75M299.59 192.75L295.51 180.99"/>
<path d="M295.51 180.99L293.27 178.47M293.27 178.47L290.03 177.54M290.03 177.54L286.79 178.49"/>
<path d="M283.91 180.33L286.79 178.49"/>
<path d="M282.71 178.54L283.91 180.33"/>
<path d="M269.78 166.2L271.56 167.39"/>
<path d="M271.62 163.32L269.78 166.2"/>
<path d="M271.62 163.32L272.57 160.08M272.57 160.08L271.64 156.84M271.64 156.84L269.12 154.6"/>
<path d="M269.12 154.6L257.36 150.52M257.36 150.52L244.98 149.13M244.98 149.13L232.61 150.52M232.61 150.52L220.84 154.6"/>
<path d="M220.84 154.6L218.33 156.84M218.33 156.84L217.4 160.08M217.4 160.08L218.35 163.32"/>
<path d="M220.18 166.2L218.35 163.32"/>
<path d="M218.41 167.38L219.61 166.57"/>
<path d="M217.18 168.28L208.14 177.32"/>
<path d="M206.42 179.76L207.24 178.56"/>
<path d="M206.05 180.33L206.42 179.76"/>
<path d="M219.61 166.57L220.18 166.2"/>
<path d="M217.17 168.29L219.61 166.57"/>
<path d="M220.08 169.78L219.61 166.57"/>
<path d="M217.36 169.61L219.11 169.4M219.11 169.4L220.08 169.78"/>
<path d="M217.17 168.29L217.36 169.61"/>
<path d="M220.08 169.78L219.61 166.57"/>
<path d="M219.61 166.57L220.18 166.2"/>
<path d="M222.74 170.22L220.18 166.2"/>
<path d="M221.08 171.34L222.74 170.22"/>
<path d="M220.08 169.78L221.08 171.34"/>
<path d="M222.74 170.22L220.18 166.2"/>
<path d="M220.18 166.2L218.35 163.32"/>
<path d="M220.84 154.6L218.33 156.84M218.33 156.84L217.4 160.08M217.4 160.08L218.35 163.32"/>
<path d="M220.84 255.65L232.61 259.74M232.61 259.74L244.98 261.12M244.98 261.12L257.36 259.74M257.36 259.74L269.12 255.65"/>
<path d="M194.46 180.99L190.37 192.75M190.37 192.75L188.99 205.13M188.99 205.13L190.37 217.5M190.37 217.5L194.46 229.27"/>
<path d="M269.12 154.6L257.36 150.52M257.36 150.52L244.98 149.13M244.98 149.13L232.61 150.52M232.61 150.52L220.84 154.6"/>
<path d="M295.51 229.27L299.59 217.5M299.59 217.5L300.98 205.13M300.98 205.13L299.59 192.75M299.59 192.75L295.51 180.99"/>
<path d="M249.04 259.46L253.31 259.26"/>
<path d="M253.31 260.5L253.31 259.26"/>
<path d="M236.66 259.24L236.66 260.5"/>
<path d="M236.66 259.25L240.93 259.46"/>
<path d="M240.93 259.46L249.04 259.46"/>
<path d="M253.31 259.26L249.04 259.46"/>
<path d="M240.93 259.46L249.04 259.46"/>
<path d="M240.93 259.46L236.66 259.24"/>
<path d="M236.66 256.88L236.66 259.24"/>
<path d="M253.31 256.88L236.66 256.88"/>
<path d="M253.31 259.26L253.31 256.88"/>
<path d="M236.66 256.88L236.66 259.24"/>
<path d="M236.66 259.24L236.66 260.5"/>
<path d="M236.66 247.5L236.66 246.2"/>
<path d="M236.66 247.5L236.66 252.34"/>
<path d="M236.66 256.88L236.66 252.34"/>
<path d="M236.66 149.75L228.57 151.59M228.57 151.59L220.84 154.6"/>
<path d="M236.66 153.58L236.66 149.75"/>
<path d="M236.66 153.58L224.18 157.24"/>
<path d="M228.32 167.24L224.18 157.24"/>
<path d="M228.32 167.24L222.74 170.22"/>
<path d="M271.62 163.32L272.57 160.08M272.57 160.08L271.64 156.84M271.64 156.84L269.12 154.6"/>
<path d="M267.22 170.22L271.62 163.32"/>
<path d="M267.22 170.22L261.65 167.24"/>
<path d="M265.79 157.24L261.65 167.24"/>
<path d="M265.79 157.24L253.31 153.58"/>
<path d="M253.31 149.75L253.31 153.37"/>
<path d="M269.12 154.6L261.39 151.59M261.39 151.59L253.31 149.75"/>
<path d="M295.51 180.99L293.27 178.47M293.27 178.47L290.03 177.54M290.03 177.54L286.79 178.49"/>
<path d="M300.36 196.8L298.52 188.71M298.52 188.71L295.51 180.99"/>
<path d="M296.74 196.8L299.13 196.8"/>
<path d="M296.53 196.8L292.87 184.32"/>
<path d="M282.87 188.46L292.87 184.32"/>
<path d="M282.87 188.46L279.89 182.89"/>
<path d="M286.79 178.49L279.89 182.89"/>
<path d="M279.89 227.36L282.87 221.79"/>
<path d="M292.87 225.93L282.87 221.79"/>
<path d="M292.87 225.93L296.53 213.45"/>
<path d="M300.36 213.45L296.53 213.45"/>
<path d="M295.51 229.27L298.52 221.54M298.52 221.54L300.36 213.45"/>
<path d="M269.12 255.65L271.64 253.41M271.64 253.41L272.57 250.17M272.57 250.17L271.62 246.93"/>
<path d="M253.31 256.67L265.79 253.01"/>
<path d="M261.65 243.01L265.79 253.01"/>
<path d="M261.65 243.01L267.22 240.03"/>
<path d="M271.62 246.93L267.22 240.03"/>
<path d="M222.74 240.03L228.32 243.01"/>
<path d="M224.18 253.01L228.32 243.01"/>
<path d="M224.18 253.01L236.66 256.67"/>
<path d="M236.66 256.67L236.66 260.5"/>
<path d="M193.44 213.45L190.85 213.45"/>
<path d="M193.44 213.45L197.1 225.93"/>
<path d="M207.1 221.79L197.1 225.93"/>
<path d="M207.1 221.79L210.07 227.36"/>
<path d="M203.17 178.49L199.94 177.54M199.94 177.54L196.7 178.47M196.7 178.47L194.46 180.99"/>
<path d="M210.07 182.89L203.17 178.49"/>
<path d="M210.07 182.89L207.09 188.46"/>
<path d="M197.1 184.32L207.09 188.46"/>
<path d="M197.1 184.32L193.44 196.8"/>
<path d="M189.61 196.8L193.23 196.8"/>
<path d="M236.66 150.99L236.66 149.75"/>
<path d="M236.66 153.37L236.66 150.99"/>
<path d="M236.66 157.91L236.66 153.37"/>
<path d="M236.66 157.91L236.66 162.75"/>
<path d="M236.66 164.05L236.66 162.75"/>
<path d="M240.93 150.8L236.66 150.99"/>
<path d="M236.66 150.99L236.66 149.75"/>
<path d="M253.31 149.75L244.98 149.13M244.98 149.13L236.66 149.75"/>
<path d="M249.04 150.8L253.3 149.75"/>
<path d="M249.04 150.8L240.93 150.8"/>
<path d="M249.04 150.8L240.93 150.8"/>
<path d="M240.93 150.8L249.04 150.8"/>
<path d="M253.31 162.75L253.31 164.05"/>
<path d="M253.31 162.75L253.31 157.91"/>
<path d="M253.31 153.37L253.31 157.91"/>
<path d="M253.31 149.75L253.31 153.37"/>
<path d="M236.66 156.65L225.39 160.01"/>
<path d="M224.18 157.24L225.39 160.01"/>
<path d="M236.66 153.58L224.18 157.24"/>
<path d="M236.66 153.58L236.66 156.48"/>
<path d="M265.79 157.24L253.31 153.58"/>
<path d="M264.58 160.01L265.79 157.24"/>
<path d="M264.58 160.01L253.31 156.65"/>
<path d="M253.31 156.48L253.31 153.58"/>
<path d="M236.66 156.65L225.56 159.94"/>
<path d="M225.39 160.01L225.56 159.94"/>
<path d="M264.41 159.94L264.58 160.01"/>
<path d="M264.41 159.94L253.31 156.65"/>
<path d="M264.41 159.94L253.31 156.65"/>
<path d="M260.5 167.66L264.41 159.94"/>
<path d="M260.5 167.66L250.28 164.91M250.28 164.91L239.69 164.91M239.69 164.91L229.46 167.66"/>
<path d="M225.56 159.94L229.46 167.66"/>
<path d="M236.66 156.65L225.56 159.94"/>
<path d="M253.31 164.05L244.98 163.22M244.98 163.22L236.66 164.05"/>
<path d="M265.79 157.24L261.65 167.24"/>
<path d="M261.43 167.14L261.65 167.24"/>
<path d="M257.69 174.68L261.43 167.14"/>
<path d="M257.61 174.65L257.69 174.68"/>
<path d="M260.5 167.66L257.61 174.65"/>
<path d="M260.5 167.66L264.41 159.94"/>
<path d="M264.41 159.94L264.58 160.01"/>
<path d="M264.58 160.01L265.79 157.24"/>
<path d="M221.08 171.34L218.88 173"/>
<path d="M221.08 171.34L222.74 170.22"/>
<path d="M228.32 167.24L222.74 170.22"/>
<path d="M228.54 167.14L228.32 167.24"/>
<path d="M261.43 167.14L261.65 167.24"/>
<path d="M267.22 170.22L261.65 167.24"/>
<path d="M268.89 171.34L267.22 170.22"/>
<path d="M271.08 173L268.89 171.34"/>
<path d="M277.11 179.03L271.08 173"/>
<path d="M278.77 181.22L277.11 179.03"/>
<path d="M279.89 182.89L278.77 181.22"/>
<path d="M282.87 188.46L279.89 182.89"/>
<path d="M282.97 188.68L282.87 188.46"/>
<path d="M282.87 221.79L282.97 221.57"/>
<path d="M279.89 227.36L282.87 221.79"/>
<path d="M261.65 243.01L267.22 240.03"/>
<path d="M261.43 243.11L261.65 243.01"/>
<path d="M228.32 243.01L228.54 243.11"/>
<path d="M222.74 240.03L228.32 243.01"/>
<path d="M221.08 238.91L222.74 240.03"/>
<path d="M218.88 237.25L221.08 238.91"/>
<path d="M212.86 231.22L218.88 237.25"/>
<path d="M211.19 229.03L212.86 231.22"/>
<path d="M210.07 227.36L211.19 229.03"/>
<path d="M207.1 221.79L210.07 227.36"/>
<path d="M207 221.57L207.1 221.79"/>
<path d="M207.1 188.46L207 188.68"/>
<path d="M210.07 182.89L207.1 188.46"/>
<path d="M211.19 181.22L210.07 182.89"/>
<path d="M212.86 179.03L211.19 181.22"/>
<path d="M218.88 173L212.86 179.03"/>
<path d="M220.08 169.78L219.35 170.65M219.35 170.65L218.04 171.68"/>
<path d="M220.08 169.78L221.08 171.34"/>
<path d="M221.08 171.34L218.89 173"/>
<path d="M218.04 171.68L218.88 173"/>
<path d="M217.04 170.43L217.3 170.06M217.3 170.06L217.36 169.61"/>
<path d="M217.36 169.62L217.92 169.46M217.92 169.46L219.11 169.44M219.11 169.44L219.8 169.62M219.8 169.62L220.08 169.78"/>
<path d="M220.08 169.78L218.04 171.68"/>
<path d="M217.04 170.43L218.04 171.68"/>
<path d="M217.17 168.28L217.36 169.61"/>
<path d="M217.03 170.42L217.3 170.06M217.3 170.06L217.37 169.61"/>
<path d="M217.04 170.43L210.29 177.18"/>
<path d="M209.47 177.51L209.92 177.46M209.92 177.46L210.28 177.17"/>
<path d="M208.14 177.32L209.47 177.5"/>
<path d="M217.17 168.28L208.14 177.32"/>
<path d="M218.04 171.68L211.54 178.19"/>
<path d="M210.29 177.18L211.54 178.19"/>
<path d="M217.04 170.43L210.29 177.18"/>
<path d="M218.04 171.68L217.04 170.43"/>
<path d="M218.04 171.68L211.54 178.19"/>
<path d="M218.04 171.68L218.88 173"/>
<path d="M218.88 173L212.86 179.03"/>
<path d="M211.54 178.19L212.86 179.03"/>
<path d="M211.54 178.19L209.93 180.03M209.93 180.03L209.63 180.23"/>
<path d="M211.54 178.19L212.86 179.03"/>
<path d="M212.86 179.03L211.19 181.22"/>
<path d="M209.63 180.23L211.19 181.22"/>
<path d="M209.47 177.51L209.92 177.44M209.92 177.44L210.29 177.18"/>
<path d="M210.29 177.18L211.54 178.19"/>
<path d="M211.54 178.19L210.56 179.43M210.56 179.43L209.63 180.23"/>
<path d="M209.47 177.5L209.32 178.06M209.32 178.06L209.3 179.25M209.3 179.25L209.48 179.94M209.48 179.94L209.63 180.23"/>
<path d="M206.42 179.76L208.15 177.31"/>
<path d="M208.15 177.31L209.47 177.5"/>
<path d="M209.47 177.5L209.26 179.26M209.26 179.26L209.63 180.23"/>
<path d="M206.42 179.76L209.63 180.23"/>
<path d="M206.42 179.76L209.63 180.23"/>
<path d="M209.63 180.23L211.19 181.22"/>
<path d="M211.19 181.22L210.07 182.89"/>
<path d="M206.06 180.33L210.07 182.89"/>
<path d="M206.06 180.33L206.42 179.76"/>
<path d="M206.06 180.33L210.07 182.89"/>
<path d="M203.17 178.49L206.06 180.33"/>
<path d="M203.17 178.49L199.94 177.54M199.94 177.54L196.7 178.47M196.7 178.47L194.46 180.99"/>
<path d="M228.32 167.24L224.18 157.24"/>
<path d="M225.39 160.01L225.56 159.94"/>
<path d="M225.56 159.94L229.46 167.66"/>
<path d="M232.36 174.65L229.46 167.66"/>
<path d="M232.28 174.68L232.36 174.65"/>
<path d="M228.54 167.14L232.28 174.68"/>
<path d="M228.54 167.14L228.32 167.24"/>
<path d="M233.92 174.72L234.74 175.64M234.74 175.64L235.98 175.75"/>
<path d="M233.7 174.12L233.92 174.72"/>
<path d="M232.36 174.65L233.7 174.12"/>
<path d="M232.36 174.65L229.46 167.66"/>
<path d="M260.5 167.66L250.28 164.91M250.28 164.91L239.69 164.91M239.69 164.91L229.46 167.66"/>
<path d="M260.5 167.66L257.61 174.65"/>
<path d="M256.27 174.12L257.61 174.65"/>
<path d="M256.05 174.72L256.27 174.12"/>
<path d="M253.99 175.75L255.23 175.65M255.23 175.65L256.05 174.72"/>
<path d="M253.99 175.75L244.98 174.4M244.98 174.4L235.98 175.75"/>
<path d="M233.55 174.18L234.06 175.01"/>
<path d="M233.92 174.72L234.75 175.65M234.75 175.65L235.99 175.75"/>
<path d="M233.82 174.57L233.88 174.63"/>
<path d="M233.92 174.72L233.58 174.17"/>
<path d="M253.99 175.75L244.98 174.4M244.98 174.4L235.98 175.75"/>
<path d="M255.91 175.02L256.42 174.17"/>
<path d="M253.99 175.75L255.23 175.65M255.23 175.65L256.05 174.71"/>
<path d="M256.38 174.17L256.05 174.71"/>
<path d="M233.56 174.2L233.9 174.68"/>
<path d="M256.08 174.64L256.42 174.18"/>
<path d="M256.43 174.09L256.05 174.72"/>
<path d="M256.05 174.72L256.27 174.12"/>
<path d="M256.35 174.15L256.27 174.12"/>
<path d="M232.28 174.68L232.36 174.65"/>
<path d="M232.36 174.65L233.7 174.12"/>
<path d="M256.27 174.12L257.61 174.65"/>
<path d="M257.61 174.65L257.69 174.68"/>
<path d="M228.54 167.14L232.28 174.68"/>
<path d="M256.35 174.15L257.69 174.68"/>
<path d="M257.69 174.68L261.43 167.14"/>
<path d="M233.92 174.72L233.58 174.17"/>
<path d="M233.62 174.15L233.7 174.12"/>
<path d="M233.7 174.12L233.92 174.72"/>
<path d="M267.22 170.22L269.78 166.2"/>
<path d="M271.62 163.32L269.78 166.2"/>
<path d="M269.88 169.78L270.35 166.57"/>
<path d="M268.89 171.34L269.88 169.78"/>
<path d="M268.89 171.34L267.22 170.22"/>
<path d="M267.22 170.22L269.78 166.2"/>
<path d="M270.35 166.56L269.78 166.2"/>
<path d="M272.8 168.29L270.35 166.57"/>
<path d="M272.6 169.61L272.8 168.29"/>
<path d="M269.88 169.78L271.13 169.37M271.13 169.37L272.6 169.61"/>
<path d="M269.88 169.78L270.35 166.57"/>
<path d="M282.72 178.54L283.54 179.76"/>
<path d="M281.82 177.32L272.79 168.28"/>
<path d="M271.56 167.39L270.35 166.57"/>
<path d="M270.35 166.57L269.78 166.2"/>
<path d="M283.54 179.76L283.91 180.33"/>
<path d="M281.82 177.31L283.54 179.76"/>
<path d="M280.33 180.23L283.54 179.76"/>
<path d="M280.5 177.5L280.71 179.26M280.71 179.26L280.33 180.23"/>
<path d="M281.82 177.31L280.5 177.5"/>
<path d="M280.33 180.23L283.54 179.76"/>
<path d="M283.54 179.76L283.91 180.33"/>
<path d="M279.89 182.89L283.91 180.33"/>
<path d="M279.89 182.89L278.77 181.22"/>
<path d="M280.33 180.23L278.77 181.22"/>
<path d="M279.89 182.89L283.91 180.33"/>
<path d="M283.91 180.33L286.79 178.49"/>
<path d="M295.51 180.99L293.27 178.47M293.27 178.47L290.03 177.54M290.03 177.54L286.79 178.49"/>
<path d="M280.33 180.23L279.46 179.5M279.46 179.5L278.43 178.19"/>
<path d="M280.33 180.23L278.77 181.22"/>
<path d="M278.77 181.22L277.11 179.03"/>
<path d="M278.43 178.19L277.11 179.03"/>
<path d="M279.68 177.18L280.05 177.44M280.05 177.44L280.49 177.51"/>
<path d="M280.49 177.5L280.65 178.06M280.65 178.06L280.67 179.25M280.67 179.25L280.49 179.94M280.49 179.94L280.33 180.23"/>
<path d="M280.33 180.23L278.43 178.19"/>
<path d="M279.68 177.18L278.43 178.19"/>
<path d="M281.83 177.32L280.49 177.5"/>
<path d="M279.68 177.17L280.05 177.44M280.05 177.44L280.49 177.51"/>
<path d="M279.68 177.18L272.93 170.43"/>
<path d="M272.6 169.61L272.65 170.07M272.65 170.07L272.94 170.42"/>
<path d="M272.6 169.62L272.79 168.28"/>
<path d="M281.83 177.32L272.79 168.28"/>
<path d="M278.43 178.19L271.92 171.68"/>
<path d="M272.93 170.43L271.92 171.68"/>
<path d="M279.68 177.18L272.93 170.43"/>
<path d="M278.43 178.19L279.68 177.18"/>
<path d="M278.43 178.19L271.92 171.68"/>
<path d="M278.43 178.19L277.11 179.03"/>
<path d="M277.11 179.03L271.08 173"/>
<path d="M271.92 171.68L271.08 173"/>
<path d="M271.92 171.68L270.08 170.08M270.08 170.08L269.88 169.78"/>
<path d="M271.92 171.68L271.08 173"/>
<path d="M271.08 173L268.89 171.34"/>
<path d="M268.89 171.34L269.88 169.78"/>
<path d="M272.6 169.62L272.67 170.06M272.67 170.06L272.93 170.43"/>
<path d="M272.93 170.43L271.92 171.68"/>
<path d="M271.92 171.68L270.68 170.7M270.68 170.7L269.88 169.78"/>
<path d="M269.88 169.78L270.16 169.62M270.16 169.62L270.84 169.44M270.84 169.44L272.04 169.46M272.04 169.46L272.6 169.62"/>
<path d="M271.62 163.32L272.57 160.08M272.57 160.08L271.64 156.84M271.64 156.84L269.12 154.6"/>
<path d="M282.87 188.46L292.87 184.32"/>
<path d="M290.17 185.7L290.09 185.53"/>
<path d="M282.45 189.6L290.17 185.7"/>
<path d="M275.46 192.5L282.45 189.6"/>
<path d="M275.43 192.42L275.46 192.5"/>
<path d="M282.97 188.68L275.43 192.42"/>
<path d="M282.97 188.68L282.87 188.46"/>
<path d="M292.87 225.93L296.53 213.45"/>
<path d="M290.09 224.72L292.87 225.93"/>
<path d="M290.09 224.72L293.46 213.45"/>
<path d="M296.53 213.45L293.63 213.45"/>
<path d="M293.46 196.8L290.09 185.53"/>
<path d="M290.09 185.53L292.87 184.32"/>
<path d="M296.53 196.8L292.87 184.32"/>
<path d="M293.63 196.8L296.53 196.8"/>
<path d="M292.87 225.93L282.87 221.79"/>
<path d="M282.87 221.79L282.97 221.57"/>
<path d="M275.43 217.83L282.97 221.57"/>
<path d="M275.46 217.75L275.43 217.83"/>
<path d="M282.45 220.65L275.46 217.75"/>
<path d="M290.17 224.55L282.45 220.65"/>
<path d="M290.09 224.72L290.17 224.55"/>
<path d="M290.09 224.72L292.87 225.93"/>
<path d="M275.43 217.83L275.95 216.49"/>
<path d="M275.43 217.83L282.97 221.57"/>
<path d="M282.97 188.68L275.43 192.42"/>
<path d="M275.46 217.75L275.98 216.41"/>
<path d="M275.46 217.75L275.43 217.83"/>
<path d="M275.43 192.42L275.46 192.5"/>
<path d="M275.98 193.84L275.46 192.5"/>
<path d="M275.39 194.06L274.46 194.88M274.46 194.88L274.35 196.12"/>
<path d="M275.98 193.84L275.39 194.06"/>
<path d="M275.98 193.84L275.46 192.5"/>
<path d="M275.46 192.5L282.45 189.6"/>
<path d="M282.45 220.65L285.19 210.42M285.19 210.42L285.19 199.83M285.19 199.83L282.45 189.6"/>
<path d="M282.45 220.65L275.46 217.75"/>
<path d="M275.46 217.75L275.98 216.41"/>
<path d="M275.39 216.19L275.98 216.41"/>
<path d="M274.35 214.13L274.46 215.37M274.46 215.37L275.39 216.19"/>
<path d="M274.35 214.13L275.7 205.13M275.7 205.13L274.35 196.12"/>
<path d="M275.93 193.7L275.1 194.2"/>
<path d="M275.38 194.06L274.46 194.89M274.46 194.89L274.36 196.13"/>
<path d="M275.54 193.97L275.48 194.02"/>
<path d="M275.38 194.06L275.94 193.72"/>
<path d="M274.35 214.13L275.7 205.13M275.7 205.13L274.35 196.12"/>
<path d="M275.09 216.05L275.94 216.56"/>
<path d="M275.48 216.23L275.56 216.29"/>
<path d="M274.35 214.13L274.46 215.37M274.46 215.37L275.4 216.2"/>
<path d="M275.94 216.53L275.4 216.2"/>
<path d="M275.9 193.7L275.43 194.04"/>
<path d="M275.47 216.22L275.54 216.28"/>
<path d="M275.94 216.53L275.39 216.19"/>
<path d="M275.39 216.19L275.98 216.41"/>
<path d="M275.98 216.41L275.95 216.49"/>
<path d="M275.39 194.06L275.94 193.72"/>
<path d="M275.95 193.76L275.98 193.84"/>
<path d="M275.98 193.84L275.39 194.06"/>
<path d="M282.45 220.65L285.19 210.42M285.19 210.42L285.19 199.83M285.19 199.83L282.45 189.6"/>
<path d="M282.45 189.6L290.17 185.7"/>
<path d="M293.46 196.8L290.17 185.7"/>
<path d="M286.06 213.45L286.89 205.13M286.89 205.13L286.06 196.8"/>
<path d="M293.46 213.45L293.41 213.45"/>
<path d="M290.17 224.55L293.46 213.45"/>
<path d="M290.17 224.55L282.45 220.65"/>
<path d="M290.09 224.72L290.17 224.55"/>
<path d="M290.17 224.55L293.46 213.45"/>
<path d="M293.46 196.8L290.17 185.7"/>
<path d="M290.17 185.7L290.09 185.53"/>
<path d="M287.36 213.45L286.06 213.45"/>
<path d="M287.36 213.45L292.2 213.45"/>
<path d="M296.74 213.45L292.2 213.45"/>
<path d="M300.34 213.45L296.74 213.45"/>
<path d="M299.31 209.18L299.31 201.07"/>
<path d="M299.31 201.07L299.31 209.18"/>
<path d="M299.31 201.07L299.12 196.8"/>
<path d="M300.36 196.8L299.12 196.8"/>
<path d="M300.36 213.45L300.98 205.13M300.98 205.13L300.36 196.8"/>
<path d="M299.31 209.18L299.32 209.33M299.32 209.33L299.41 209.8M299.41 209.8L300.1 212.67M300.1 212.67L300.26 213.29M300.26 213.29L300.3 213.41M300.3 213.41L300.32 213.45M300.32 213.45L300.34 213.45"/>
<path d="M299.31 209.18L299.31 201.07"/>
<path d="M300.36 196.8L299.12 196.8"/>
<path d="M296.74 196.8L299.12 196.8"/>
<path d="M292.2 196.8L296.74 196.8"/>
<path d="M292.2 196.8L287.36 196.8"/>
<path d="M286.06 196.8L287.36 196.8"/>
<path d="M296.74 213.45L292.2 213.45"/>
<path d="M292.2 196.8L292.2 213.45"/>
<path d="M292.2 196.8L296.74 196.8"/>
<path d="M296.74 213.45L296.74 196.8"/>
<path d="M287.36 213.45L292.2 213.45"/>
<path d="M287.36 196.8L287.36 213.45"/>
<path d="M292.2 196.8L287.36 196.8"/>
<path d="M292.2 196.8L292.2 213.45"/>
<path d="M286.06 196.8L287.36 196.8"/>
<path d="M287.36 196.8L287.36 213.45"/>
<path d="M287.36 213.45L286.06 213.45"/>
<path d="M293.46 213.49L293.63 213.49"/>
<path d="M293.63 196.76L293.46 196.76"/>
<path d="M277.11 231.22L278.77 229.03"/>
<path d="M271.08 237.25L277.11 231.22"/>
<path d="M268.89 238.91L271.08 237.25"/>
<path d="M267.22 240.03L268.89 238.91"/>
<path d="M278.77 229.03L279.89 227.36"/>
<path d="M278.43 232.07L280.03 230.22M280.03 230.22L280.33 230.03"/>
<path d="M277.11 231.23L278.43 232.07"/>
<path d="M277.11 231.22L278.77 229.03"/>
<path d="M280.33 230.03L278.77 229.03"/>
<path d="M280.49 232.75L280.05 232.81M280.05 232.81L279.68 233.07"/>
<path d="M278.43 232.07L279.68 233.07"/>
<path d="M278.43 232.07L279.41 230.82M279.41 230.82L280.33 230.03"/>
<path d="M280.49 232.75L280.65 232.19M280.65 232.19L280.67 231M280.67 231L280.49 230.31M280.49 230.31L280.33 230.03"/>
<path d="M272.6 240.64L272.79 241.97"/>
<path d="M272.94 239.83L272.65 240.19M272.65 240.19L272.6 240.64"/>
<path d="M272.93 239.82L279.68 233.07"/>
<path d="M280.49 232.74L280.05 232.81M280.05 232.81L279.68 233.08"/>
<path d="M281.83 232.93L280.49 232.75"/>
<path d="M272.79 241.97L281.83 232.93"/>
<path d="M270.35 243.69L272.8 241.96"/>
<path d="M269.88 240.47L270.35 243.69"/>
<path d="M272.6 240.64L270.85 240.85M270.85 240.85L269.88 240.47"/>
<path d="M272.6 240.64L272.8 241.96"/>
<path d="M270.35 243.69L271.55 242.87"/>
<path d="M272.79 241.97L281.82 232.93"/>
<path d="M283.54 230.5L282.73 231.7"/>
<path d="M283.91 229.93L283.54 230.5"/>
<path d="M270.35 243.69L269.78 244.05"/>
<path d="M283.54 230.5L281.82 232.94"/>
<path d="M281.82 232.94L280.5 232.75"/>
<path d="M280.5 232.75L280.71 230.99M280.71 230.99L280.33 230.03"/>
<path d="M283.54 230.5L280.33 230.03"/>
<path d="M283.54 230.5L280.33 230.03"/>
<path d="M280.33 230.03L278.77 229.03"/>
<path d="M278.77 229.03L279.89 227.36"/>
<path d="M283.91 229.93L279.89 227.36"/>
<path d="M283.91 229.93L283.54 230.5"/>
<path d="M283.91 229.93L279.89 227.36"/>
<path d="M286.79 231.76L283.91 229.93"/>
<path d="M286.79 231.76L290.03 232.71M290.03 232.71L293.27 231.78M293.27 231.78L295.51 229.27"/>
<path d="M269.88 240.47L270.35 243.69"/>
<path d="M270.35 243.69L269.78 244.05"/>
<path d="M267.22 240.03L269.78 244.05"/>
<path d="M267.22 240.03L268.89 238.91"/>
<path d="M269.88 240.47L268.89 238.91"/>
<path d="M267.22 240.03L269.78 244.05"/>
<path d="M269.78 244.05L271.62 246.93"/>
<path d="M269.12 255.65L271.64 253.41M271.64 253.41L272.57 250.17M272.57 250.17L271.62 246.93"/>
<path d="M269.88 240.47L270.61 239.6M270.61 239.6L271.92 238.57"/>
<path d="M269.88 240.47L268.89 238.91"/>
<path d="M268.89 238.92L271.08 237.25"/>
<path d="M271.92 238.57L271.08 237.25"/>
<path d="M272.93 239.82L272.67 240.19M272.67 240.19L272.6 240.64"/>
<path d="M272.6 240.64L272.05 240.79M272.05 240.79L270.86 240.81M270.86 240.81L270.17 240.63M270.17 240.63L269.88 240.47"/>
<path d="M269.88 240.47L271.92 238.57"/>
<path d="M272.93 239.82L271.92 238.57"/>
<path d="M271.92 238.57L278.43 232.07"/>
<path d="M278.43 232.07L279.68 233.07"/>
<path d="M272.93 239.82L279.68 233.07"/>
<path d="M271.92 238.57L272.93 239.82"/>
<path d="M271.92 238.57L278.43 232.07"/>
<path d="M271.92 238.57L271.08 237.25"/>
<path d="M271.08 237.25L277.11 231.22"/>
<path d="M277.11 231.22L278.43 232.07"/>
<path d="M223 240.2L228.54 243.11"/>
<path d="M220.32 238.36L221.08 238.91"/>
<path d="M211.2 229.04L211.75 229.79"/>
<path d="M209.99 183.02L207 188.68"/>
<path d="M211.75 180.45L211.19 181.22"/>
<path d="M228.32 167.24L220.31 171.89"/>
<path d="M269.67 171.91L261.43 167.14"/>
<path d="M277.11 179.03L271.07 172.99"/>
<path d="M282.87 188.46L278.2 180.43"/>
<path d="M279.89 227.36L282.97 221.57"/>
<path d="M278.21 229.8L279.89 227.36"/>
<path d="M271.08 237.25L277.11 231.22"/>
<path d="M268.89 238.91L269.66 238.35"/>
<path d="M261.65 243.01L265.79 253.01"/>
<path d="M264.41 250.31L264.58 250.24"/>
<path d="M260.5 242.6L264.41 250.31"/>
<path d="M257.61 235.61L260.5 242.6"/>
<path d="M257.69 235.57L257.61 235.61"/>
<path d="M261.43 243.11L257.69 235.57"/>
<path d="M261.43 243.11L261.65 243.01"/>
<path d="M224.18 253.01L236.66 256.67"/>
<path d="M225.39 250.24L224.18 253.01"/>
<path d="M225.39 250.24L236.64 253.6"/>
<path d="M236.66 253.77L236.66 256.67"/>
<path d="M253.31 253.6L264.58 250.24"/>
<path d="M264.58 250.24L265.79 253.01"/>
<path d="M253.31 256.67L265.79 253.01"/>
<path d="M253.31 253.77L253.31 256.67"/>
<path d="M224.18 253.01L228.32 243.01"/>
<path d="M228.32 243.01L228.54 243.11"/>
<path d="M232.28 235.57L228.54 243.11"/>
<path d="M232.36 235.61L232.28 235.57"/>
<path d="M229.46 242.6L232.36 235.61"/>
<path d="M225.56 250.31L229.46 242.6"/>
<path d="M225.39 250.24L225.56 250.31"/>
<path d="M225.39 250.24L224.18 253.01"/>
<path d="M232.28 235.57L228.54 243.11"/>
<path d="M261.43 243.11L257.69 235.57"/>
<path d="M232.36 235.61L233.7 236.13"/>
<path d="M232.36 235.61L232.28 235.57"/>
<path d="M257.69 235.57L257.61 235.61"/>
<path d="M256.27 236.13L257.61 235.61"/>
<path d="M256.05 235.53L255.23 234.61M255.23 234.61L253.99 234.5"/>
<path d="M256.27 236.13L256.05 235.53"/>
<path d="M256.27 236.13L257.61 235.61"/>
<path d="M257.61 235.61L260.5 242.6"/>
<path d="M229.46 242.6L239.69 245.34M239.69 245.34L250.28 245.34M250.28 245.34L260.5 242.6"/>
<path d="M229.46 242.6L232.36 235.61"/>
<path d="M232.36 235.61L233.7 236.13"/>
<path d="M233.92 235.53L233.7 236.13"/>
<path d="M235.98 234.5L234.74 234.61M234.74 234.61L233.92 235.53"/>
<path d="M235.98 234.5L244.98 235.85M244.98 235.85L253.99 234.5"/>
<path d="M256.41 236.07L255.91 235.24"/>
<path d="M256.05 235.53L255.22 234.6M255.22 234.6L253.98 234.5"/>
<path d="M256.14 235.68L256.09 235.62"/>
<path d="M256.05 235.53L256.39 236.08"/>
<path d="M235.98 234.5L244.98 235.85M244.98 235.85L253.99 234.5"/>
<path d="M234.06 235.23L233.55 236.08"/>
<path d="M235.98 234.5L234.74 234.61M234.74 234.61L233.91 235.54"/>
<path d="M233.58 236.08L233.91 235.54"/>
<path d="M256.41 236.05L256.06 235.57"/>
<path d="M233.89 235.61L233.83 235.68"/>
<path d="M233.53 236.16L233.92 235.53"/>
<path d="M233.92 235.53L233.7 236.13"/>
<path d="M233.7 236.13L233.62 236.1"/>
<path d="M256.05 235.53L256.38 236.08"/>
<path d="M256.35 236.1L256.27 236.13"/>
<path d="M256.27 236.13L256.05 235.53"/>
<path d="M229.46 242.6L239.69 245.34M239.69 245.34L250.28 245.34M250.28 245.34L260.5 242.6"/>
<path d="M260.5 242.6L264.41 250.31"/>
<path d="M253.31 253.6L264.41 250.31"/>
<path d="M236.66 246.2L244.98 247.03M244.98 247.03L253.31 246.2"/>
<path d="M236.66 253.55L236.66 253.6"/>
<path d="M225.56 250.31L236.66 253.6"/>
<path d="M225.56 250.31L229.46 242.6"/>
<path d="M225.39 250.24L225.56 250.31"/>
<path d="M225.56 250.31L236.66 253.6"/>
<path d="M253.31 253.6L264.41 250.31"/>
<path d="M264.41 250.31L264.58 250.24"/>
<path d="M236.62 253.6L236.62 253.77"/>
<path d="M253.35 253.6L253.35 253.77"/>
<path d="M253.31 260.5L253.31 259.26"/>
<path d="M253.31 259.26L253.31 256.88"/>
<path d="M253.31 252.34L253.31 256.88"/>
<path d="M253.31 252.34L253.31 247.5"/>
<path d="M253.31 246.2L253.31 247.5"/>
<path d="M236.66 256.88L236.66 252.34"/>
<path d="M253.31 252.34L236.66 252.34"/>
<path d="M253.31 252.34L253.31 256.88"/>
<path d="M253.31 256.88L236.66 256.88"/>
<path d="M236.66 247.5L236.66 252.34"/>
<path d="M253.31 247.5L236.66 247.5"/>
<path d="M253.31 252.34L253.31 247.5"/>
<path d="M253.31 252.34L236.66 252.34"/>
<path d="M236.66 246.2L244.98 247.03M244.98 247.03L253.31 246.2"/>
<path d="M253.31 246.2L253.31 247.5"/>
<path d="M253.31 247.5L236.66 247.5"/>
<path d="M236.66 247.5L236.66 246.2"/>
<path d="M222.74 240.03L220.18 244.05"/>
<path d="M218.35 246.93L220.18 244.05"/>
<path d="M220.08 240.47L219.61 243.69"/>
<path d="M221.08 238.91L220.08 240.47"/>
<path d="M221.08 238.91L222.74 240.03"/>
<path d="M222.74 240.03L220.18 244.05"/>
<path d="M219.61 243.69L220.18 244.05"/>
<path d="M217.17 241.96L219.61 243.69"/>
<path d="M217.36 240.64L217.17 241.96"/>
<path d="M220.08 240.47L218.83 240.88M218.83 240.88L217.36 240.64"/>
<path d="M220.08 240.47L219.61 243.69"/>
<path d="M207.24 231.7L206.42 230.5"/>
<path d="M208.14 232.93L217.18 241.97"/>
<path d="M218.41 242.87L219.61 243.69"/>
<path d="M219.61 243.69L220.18 244.05"/>
<path d="M206.42 230.5L206.05 229.93"/>
<path d="M208.15 232.94L206.42 230.5"/>
<path d="M209.63 230.03L206.42 230.5"/>
<path d="M209.47 232.75L209.26 230.99M209.26 230.99L209.63 230.03"/>
<path d="M208.15 232.94L209.47 232.75"/>
<path d="M209.63 230.03L206.42 230.5"/>
<path d="M206.42 230.5L206.06 229.93"/>
<path d="M210.07 227.36L206.06 229.93"/>
<path d="M210.07 227.36L211.19 229.03"/>
<path d="M209.63 230.03L211.19 229.03"/>
<path d="M210.07 227.36L206.06 229.93"/>
<path d="M206.06 229.93L203.17 231.76"/>
<path d="M194.46 229.27L196.7 231.78M196.7 231.78L199.94 232.71M199.94 232.71L203.17 231.76"/>
<path d="M209.63 230.03L210.51 230.75M210.51 230.75L211.54 232.07"/>
<path d="M209.63 230.03L211.19 229.03"/>
<path d="M211.19 229.03L212.86 231.22"/>
<path d="M211.54 232.07L212.86 231.22"/>
<path d="M210.29 233.07L209.92 232.81M209.92 232.81L209.47 232.75"/>
<path d="M209.47 232.75L209.32 232.19M209.32 232.19L209.3 231M209.3 231L209.48 230.31M209.48 230.31L209.63 230.03"/>
<path d="M209.63 230.03L211.54 232.06"/>
<path d="M210.29 233.07L211.54 232.06"/>
<path d="M208.14 232.93L209.47 232.75"/>
<path d="M210.28 233.08L209.92 232.81M209.92 232.81L209.47 232.74"/>
<path d="M210.29 233.07L217.04 239.82"/>
<path d="M217.37 240.64L217.32 240.18M217.32 240.18L217.03 239.83"/>
<path d="M217.36 240.64L217.17 241.97"/>
<path d="M208.14 232.93L217.17 241.97"/>
<path d="M211.54 232.07L218.04 238.57"/>
<path d="M217.04 239.82L218.04 238.57"/>
<path d="M210.29 233.07L217.04 239.82"/>
<path d="M211.54 232.07L210.29 233.07"/>
<path d="M211.54 232.07L218.04 238.57"/>
<path d="M211.54 232.07L212.86 231.22"/>
<path d="M212.86 231.22L218.88 237.25"/>
<path d="M218.04 238.57L218.88 237.25"/>
<path d="M218.04 238.57L219.88 240.17M219.88 240.17L220.08 240.47"/>
<path d="M218.04 238.57L218.88 237.25"/>
<path d="M218.89 237.25L221.08 238.92"/>
<path d="M221.08 238.91L220.08 240.47"/>
<path d="M217.36 240.64L217.3 240.19M217.3 240.19L217.04 239.82"/>
<path d="M217.04 239.82L218.04 238.57"/>
<path d="M218.04 238.57L219.29 239.55M219.29 239.55L220.08 240.47"/>
<path d="M220.08 240.47L219.8 240.63M219.8 240.63L219.12 240.81M219.12 240.81L217.92 240.79M217.92 240.79L217.36 240.64"/>
<path d="M218.35 246.93L217.4 250.17M217.4 250.17L218.33 253.41M218.33 253.41L220.84 255.65"/>
<path d="M207.09 221.79L197.1 225.93"/>
<path d="M199.8 224.55L199.87 224.72"/>
<path d="M207.51 220.65L199.8 224.55"/>
<path d="M214.5 217.75L207.51 220.65"/>
<path d="M214.54 217.83L214.5 217.75"/>
<path d="M207 221.57L214.54 217.83"/>
<path d="M207 221.57L207.09 221.79"/>
<path d="M196.51 213.45L199.87 224.72"/>
<path d="M199.87 224.72L197.1 225.93"/>
<path d="M193.44 213.45L197.1 225.93"/>
<path d="M196.34 213.45L193.44 213.45"/>
<path d="M197.1 184.32L193.44 196.8"/>
<path d="M199.87 185.53L197.1 184.32"/>
<path d="M199.87 185.53L196.51 196.8"/>
<path d="M193.44 196.8L196.34 196.8"/>
<path d="M196.51 213.45L199.8 224.55"/>
<path d="M199.8 224.55L199.87 224.72"/>
<path d="M199.8 185.7L199.87 185.53"/>
<path d="M199.8 185.7L196.51 196.8"/>
<path d="M199.8 185.7L196.51 196.8"/>
<path d="M207.51 189.6L199.8 185.7"/>
<path d="M207.51 189.6L204.77 199.83M204.77 199.83L204.77 210.42M204.77 210.42L207.51 220.65"/>
<path d="M207.51 220.65L199.8 224.55"/>
<path d="M196.51 213.45L199.8 224.55"/>
<path d="M203.91 196.8L203.07 205.13M203.07 205.13L203.91 213.45"/>
<path d="M197.1 184.32L207.09 188.46"/>
<path d="M207.09 188.46L207 188.68"/>
<path d="M214.54 192.42L207 188.68"/>
<path d="M214.5 192.5L214.54 192.42"/>
<path d="M207.51 189.6L214.5 192.5"/>
<path d="M207.51 189.6L199.8 185.7"/>
<path d="M199.8 185.7L199.87 185.53"/>
<path d="M199.87 185.53L197.1 184.32"/>
<path d="M207 221.57L214.54 217.83"/>
<path d="M214.54 192.42L207 188.68"/>
<path d="M214.54 217.83L214.5 217.75"/>
<path d="M213.98 216.41L214.5 217.75"/>
<path d="M214.5 192.5L213.98 193.84"/>
<path d="M214.5 192.5L214.54 192.42"/>
<path d="M215.61 196.12L215.5 194.88M215.5 194.88L214.58 194.06"/>
<path d="M215.61 196.12L214.26 205.13M214.26 205.13L215.61 214.13"/>
<path d="M214.58 216.19L215.5 215.37M215.5 215.37L215.61 214.13"/>
<path d="M213.98 216.41L214.58 216.19"/>
<path d="M213.98 216.41L214.5 217.75"/>
<path d="M214.5 217.75L207.51 220.65"/>
<path d="M207.51 189.6L204.77 199.83M204.77 199.83L204.77 210.42M204.77 210.42L207.51 220.65"/>
<path d="M207.51 189.6L214.5 192.5"/>
<path d="M214.5 192.5L213.98 193.84"/>
<path d="M214.58 194.06L213.98 193.84"/>
<path d="M214.88 194.2L214.03 193.69"/>
<path d="M214.49 194.03L214.41 193.96"/>
<path d="M215.61 196.12L215.5 194.88M215.5 194.88L214.57 194.06"/>
<path d="M214.02 193.73L214.57 194.06"/>
<path d="M214.5 194.03L214.43 193.97"/>
<path d="M214.51 216.22L214.43 216.28"/>
<path d="M214.03 193.72L214.58 194.06"/>
<path d="M214.58 194.06L213.98 193.84"/>
<path d="M213.98 193.84L214.01 193.76"/>
<path d="M214.02 216.53L214.58 216.19"/>
<path d="M214.01 216.49L213.98 216.41"/>
<path d="M213.98 216.41L214.58 216.19"/>
<path d="M214.04 216.56L214.87 216.05"/>
<path d="M214.58 216.19L215.51 215.36M215.51 215.36L215.61 214.12"/>
<path d="M214.5 216.22L214.43 216.28"/>
<path d="M214.03 216.53L214.58 216.19"/>
<path d="M215.61 196.12L214.26 205.13M214.26 205.13L215.61 214.13"/>
<path d="M190.85 213.45L189.61 213.45"/>
<path d="M193.23 213.45L190.85 213.45"/>
<path d="M197.77 213.45L193.23 213.45"/>
<path d="M197.77 213.45L202.61 213.45"/>
<path d="M203.91 213.45L202.61 213.45"/>
<path d="M190.66 209.18L190.85 213.45"/>
<path d="M190.85 213.45L189.61 213.45"/>
<path d="M190.66 201.07L190 198.32M190 198.32L189.68 197.22M189.68 197.22L189.62 196.8"/>
<path d="M190.66 201.07L190.66 209.18"/>
<path d="M190.66 201.07L190.66 209.18"/>
<path d="M190.66 209.18L190.66 201.07"/>
<path d="M202.61 196.8L203.91 196.8"/>
<path d="M202.61 196.8L197.77 196.8"/>
<path d="M193.23 196.8L197.77 196.8"/>
<path d="M189.61 196.8L193.23 196.8"/>
<path d="M196.51 196.76L196.34 196.76"/>
<path d="M196.34 213.49L196.51 213.49"/>
<path d="M203.91 213.45L202.61 213.45"/>
<path d="M202.61 196.8L202.61 213.45"/>
<path d="M202.61 196.8L203.91 196.8"/>
<path d="M202.61 196.8L197.77 196.8"/>
<path d="M202.61 196.8L202.61 213.45"/>
<path d="M197.77 213.45L202.61 213.45"/>
<path d="M197.77 196.8L197.77 213.45"/>
<path d="M193.23 196.8L197.77 196.8"/>
<path d="M197.77 196.8L197.77 213.45"/>
<path d="M197.77 213.45L193.23 213.45"/>
<path d="M193.23 196.8L193.23 213.45"/>
<path d="M253.31 164.05L244.98 163.22M244.98 163.22L236.66 164.05"/>
<path d="M236.66 164.05L236.66 162.75"/>
<path d="M253.31 162.75L236.66 162.75"/>
<path d="M253.31 162.75L253.31 164.05"/>
<path d="M253.31 162.75L253.31 157.91"/>
<path d="M253.31 162.75L236.66 162.75"/>
<path d="M236.66 157.91L236.66 162.75"/>
<path d="M253.31 157.91L236.66 157.91"/>
<path d="M253.31 153.37L253.31 157.91"/>
<path d="M253.31 157.91L236.66 157.91"/>
<path d="M236.66 157.91L236.66 153.37"/>
<path d="M253.31 153.37L236.66 153.37"/>
<path d="M253.35 156.65L253.35 156.48"/>
<path d="M236.62 156.48L236.62 156.65"/>
<path d="M409.04 149.83L399.59 163.42"/>
<path d="M394.75 139.89L409.04 149.83"/>
<path d="M385.3 153.48L394.75 139.89"/>
<path d="M333.42 167.39L335.2 166.2"/>
<path d="M321.07 180.33L322.26 178.55"/>
<path d="M318.19 178.49L321.07 180.33"/>
<path d="M318.19 178.49L314.95 177.54M314.95 177.54L311.71 178.47M311.71 178.47L309.47 180.99"/>
<path d="M309.47 180.99L305.39 192.75M305.39 192.75L304 205.13M304 205.13L305.39 217.5M305.39 217.5L309.47 229.27"/>
<path d="M309.47 229.27L311.71 231.78M311.71 231.78L314.95 232.71M314.95 232.71L318.19 231.76"/>
<path d="M321.07 229.93L318.19 231.76"/>
<path d="M322.26 231.7L321.07 229.93"/>
<path d="M335.2 244.05L333.42 242.87"/>
<path d="M333.36 246.93L335.2 244.05"/>
<path d="M333.36 246.93L332.41 250.17M332.41 250.17L333.34 253.41M333.34 253.41L335.86 255.65"/>
<path d="M335.86 255.65L347.62 259.74M347.62 259.74L360 261.12M360 261.12L372.37 259.74M372.37 259.74L384.14 255.65"/>
<path d="M384.14 255.65L386.65 253.41M386.65 253.41L387.58 250.17M387.58 250.17L386.63 246.93"/>
<path d="M384.8 244.05L386.63 246.93"/>
<path d="M386.57 242.87L384.8 244.05"/>
<path d="M398.93 229.93L397.74 231.7"/>
<path d="M401.81 231.76L398.93 229.93"/>
<path d="M401.81 231.76L405.04 232.71M405.04 232.71L408.28 231.78M408.28 231.78L410.52 229.27"/>
<path d="M410.52 229.27L414.61 217.5M414.61 217.5L415.99 205.13M415.99 205.13L414.61 192.75M414.61 192.75L410.52 180.99"/>
<path d="M410.52 180.99L408.28 178.47M408.28 178.47L405.04 177.54M405.04 177.54L401.81 178.49"/>
<path d="M398.93 180.33L401.81 178.49"/>
<path d="M397.73 178.54L398.93 180.33"/>
<path d="M384.8 166.2L386.58 167.39"/>
<path d="M386.63 163.32L384.8 166.2"/>
<path d="M386.63 163.32L387.58 160.08M387.58 160.08L386.65 156.84M386.65 156.84L384.14 154.6"/>
<path d="M384.14 154.6L372.37 150.52M372.37 150.52L360 149.13M360 149.13L347.62 150.52M347.62 150.52L335.86 154.6"/>
<path d="M335.86 154.6L333.34 156.84M333.34 156.84L332.41 160.08M332.41 160.08L333.36 163.32"/>
<path d="M335.2 166.2L333.36 163.32"/>
<path d="M394.75 139.89L385.3 153.48"/>
<path d="M394.75 139.89L409.04 149.83"/>
<path d="M409.04 149.83L399.59 163.42"/>
<path d="M333.43 167.38L334.63 166.57"/>
<path d="M332.19 168.28L323.16 177.32"/>
<path d="M321.44 179.76L322.25 178.56"/>
<path d="M321.07 180.33L321.44 179.76"/>
<path d="M334.63 166.57L335.2 166.2"/>
<path d="M332.18 168.29L334.63 166.57"/>
<path d="M335.1 169.78L334.63 166.57"/>
<path d="M332.38 169.61L334.13 169.4M334.13 169.4L335.1 169.78"/>
<path d="M332.18 168.29L332.38 169.61"/>
<path d="M335.1 169.78L334.63 166.57"/>
<path d="M334.63 166.57L335.2 166.2"/>
<path d="M337.76 170.22L335.2 166.2"/>
<path d="M336.09 171.34L337.76 170.22"/>
<path d="M335.1 169.78L336.09 171.34"/>
<path d="M337.76 170.22L335.2 166.2"/>
<path d="M335.2 166.2L333.36 163.32"/>
<path d="M335.86 154.6L333.34 156.84M333.34 156.84L332.41 160.08M332.41 160.08L333.36 163.32"/>
<path d="M335.86 255.65L347.62 259.74M347.62 259.74L360 261.12M360 261.12L372.37 259.74M372.37 259.74L384.14 255.65"/>
<path d="M309.47 180.99L305.39 192.75M305.39 192.75L304 205.13M304 205.13L305.39 217.5M305.39 217.5L309.47 229.27"/>
<path d="M384.14 154.6L372.37 150.52M372.37 150.52L360 149.13M360 149.13L347.62 150.52M347.62 150.52L335.86 154.6"/>
<path d="M410.52 229.27L414.61 217.5M414.61 217.5L415.99 205.13M415.99 205.13L414.61 192.75M414.61 192.75L410.52 180.99"/>
<path d="M364.05 259.46L368.32 259.26"/>
<path d="M368.32 260.5L368.32 259.26"/>
<path d="M351.67 259.24L351.67 260.5"/>
<path d="M351.67 259.25L355.94 259.46"/>
<path d="M355.94 259.46L364.05 259.46"/>
<path d="M368.32 259.26L364.05 259.46"/>
<path d="M355.94 259.46L364.05 259.46"/>
<path d="M355.94 259.46L351.67 259.24"/>
<path d="M351.67 256.88L351.67 259.24"/>
<path d="M368.32 256.88L351.67 256.88"/>
<path d="M368.32 259.26L368.32 256.88"/>
<path d="M351.67 256.88L351.67 259.24"/>
<path d="M351.67 259.24L351.67 260.5"/>
<path d="M351.67 247.5L351.67 246.2"/>
<path d="M351.67 247.5L351.67 252.34"/>
<path d="M351.67 256.88L351.67 252.34"/>
<path d="M351.67 149.75L343.59 151.59M343.59 151.59L335.86 154.6"/>
<path d="M351.67 153.58L351.67 149.75"/>
<path d="M351.67 153.58L339.19 157.24"/>
<path d="M343.33 167.24L339.19 157.24"/>
<path d="M343.33 167.24L337.76 170.22"/>
<path d="M386.63 163.32L387.58 160.08M387.58 160.08L386.65 156.84M386.65 156.84L384.14 154.6"/>
<path d="M382.24 170.22L386.63 163.32"/>
<path d="M382.24 170.22L376.66 167.24"/>
<path d="M380.8 157.24L376.66 167.24"/>
<path d="M380.8 157.24L368.32 153.58"/>
<path d="M368.32 149.75L368.32 153.37"/>
<path d="M384.14 154.6L376.41 151.59M376.41 151.59L368.32 149.75"/>
<path d="M410.52 180.99L408.28 178.47M408.28 178.47L405.04 177.54M405.04 177.54L401.81 178.49"/>
<path d="M415.37 196.8L413.53 188.71M413.53 188.71L410.52 180.99"/>
<path d="M411.75 196.8L414.14 196.8"/>
<path d="M411.54 196.8L407.88 184.32"/>
<path d="M397.88 188.46L407.88 184.32"/>
<path d="M397.88 188.46L394.91 182.89"/>
<path d="M401.81 178.49L394.91 182.89"/>
<path d="M394.91 227.36L397.89 221.79"/>
<path d="M407.88 225.93L397.89 221.79"/>
<path d="M407.88 225.93L411.54 213.45"/>
<path d="M415.37 213.45L411.54 213.45"/>
<path d="M410.52 229.27L413.53 221.54M413.53 221.54L415.37 213.45"/>
<path d="M384.14 255.65L386.65 253.41M386.65 253.41L387.58 250.17M387.58 250.17L386.63 246.93"/>
<path d="M368.32 256.67L380.8 253.01"/>
<path d="M376.66 243.01L380.8 253.01"/>
<path d="M376.66 243.01L382.24 240.03"/>
<path d="M386.63 246.93L382.24 240.03"/>
<path d="M337.76 240.03L343.33 243.01"/>
<path d="M339.19 253.01L343.33 243.01"/>
<path d="M339.19 253.01L351.67 256.67"/>
<path d="M351.67 256.67L351.67 260.5"/>
<path d="M308.45 213.45L305.86 213.45"/>
<path d="M308.45 213.45L312.11 225.93"/>
<path d="M322.11 221.79L312.11 225.93"/>
<path d="M322.11 221.79L325.09 227.36"/>
<path d="M318.19 178.49L314.95 177.54M314.95 177.54L311.71 178.47M311.71 178.47L309.47 180.99"/>
<path d="M325.09 182.89L318.19 178.49"/>
<path d="M325.09 182.89L322.11 188.46"/>
<path d="M312.11 184.32L322.11 188.46"/>
<path d="M312.11 184.32L308.45 196.8"/>
<path d="M304.62 196.8L308.24 196.8"/>
<path d="M351.67 150.99L351.67 149.75"/>
<path d="M351.67 153.37L351.67 150.99"/>
<path d="M351.67 157.91L351.67 153.37"/>
<path d="M351.67 157.91L351.67 162.75"/>
<path d="M351.67 164.05L351.67 162.75"/>
<path d="M355.94 150.8L351.67 150.99"/>
<path d="M351.67 150.99L351.67 149.75"/>
<path d="M368.32 149.75L360 149.13M360 149.13L351.67 149.75"/>
<path d="M364.05 150.8L368.32 149.75"/>
<path d="M364.05 150.8L355.94 150.8"/>
<path d="M364.05 150.8L355.94 150.8"/>
<path d="M355.94 150.8L364.05 150.8"/>
<path d="M368.32 162.75L368.32 164.05"/>
<path d="M368.32 162.75L368.32 157.91"/>
<path d="M368.32 153.37L368.32 157.91"/>
<path d="M368.32 149.75L368.32 153.37"/>
<path d="M351.67 156.65L340.4 160.01"/>
<path d="M339.19 157.24L340.4 160.01"/>
<path d="M351.67 153.58L339.19 157.24"/>
<path d="M351.67 153.58L351.67 156.48"/>
<path d="M380.8 157.24L368.32 153.58"/>
<path d="M379.59 160.01L380.8 157.24"/>
<path d="M379.59 160.01L368.32 156.65"/>
<path d="M368.32 156.48L368.32 153.58"/>
<path d="M351.67 156.65L340.57 159.94"/>
<path d="M340.4 160.01L340.57 159.94"/>
<path d="M379.42 159.94L379.59 160.01"/>
<path d="M379.42 159.94L368.32 156.65"/>
<path d="M379.42 159.94L368.32 156.65"/>
<path d="M375.52 167.66L379.42 159.94"/>
<path d="M375.52 167.66L365.29 164.91M365.29 164.91L354.7 164.91M354.7 164.91L344.48 167.66"/>
<path d="M340.57 159.94L344.48 167.66"/>
<path d="M351.67 156.65L340.57 159.94"/>
<path d="M368.32 164.05L360 163.22M360 163.22L351.67 164.05"/>
<path d="M380.8 157.24L376.66 167.24"/>
<path d="M376.44 167.14L376.66 167.24"/>
<path d="M372.7 174.68L376.44 167.14"/>
<path d="M372.62 174.65L372.7 174.68"/>
<path d="M375.52 167.66L372.62 174.65"/>
<path d="M375.52 167.66L379.42 159.94"/>
<path d="M379.42 159.94L379.59 160.01"/>
<path d="M379.59 160.01L380.8 157.24"/>
<path d="M336.09 171.34L333.9 173"/>
<path d="M336.09 171.34L337.76 170.22"/>
<path d="M343.33 167.24L337.76 170.22"/>
<path d="M343.55 167.14L343.33 167.24"/>
<path d="M376.44 167.14L376.66 167.24"/>
<path d="M382.24 170.22L376.66 167.24"/>
<path d="M383.9 171.34L382.24 170.22"/>
<path d="M386.1 173L383.9 171.34"/>
<path d="M392.12 179.03L386.1 173"/>
<path d="M393.79 181.22L392.12 179.03"/>
<path d="M394.91 182.89L393.79 181.22"/>
<path d="M397.88 188.46L394.91 182.89"/>
<path d="M397.98 188.68L397.88 188.46"/>
<path d="M397.88 221.79L397.98 221.57"/>
<path d="M394.91 227.36L397.88 221.79"/>
<path d="M376.66 243.01L382.24 240.03"/>
<path d="M376.44 243.11L376.66 243.01"/>
<path d="M343.33 243.01L343.55 243.11"/>
<path d="M337.76 240.03L343.33 243.01"/>
<path d="M336.09 238.91L337.76 240.03"/>
<path d="M333.9 237.25L336.09 238.91"/>
<path d="M327.87 231.22L333.9 237.25"/>
<path d="M326.21 229.03L327.87 231.22"/>
<path d="M325.09 227.36L326.21 229.03"/>
<path d="M322.11 221.79L325.09 227.36"/>
<path d="M322.01 221.57L322.11 221.79"/>
<path d="M322.11 188.46L322.01 188.68"/>
<path d="M325.09 182.89L322.11 188.46"/>
<path d="M326.21 181.22L325.09 182.89"/>
<path d="M327.87 179.03L326.21 181.22"/>
<path d="M333.9 173L327.87 179.03"/>
<path d="M335.1 169.78L334.37 170.65M334.37 170.65L333.06 171.68"/>
<path d="M335.1 169.78L336.09 171.34"/>
<path d="M336.09 171.34L333.9 173"/>
<path d="M333.06 171.68L333.9 173"/>
<path d="M332.05 170.43L332.31 170.06M332.31 170.06L332.38 169.61"/>
<path d="M332.38 169.62L332.93 169.46M332.93 169.46L334.12 169.44M334.12 169.44L334.81 169.62M334.81 169.62L335.1 169.78"/>
<path d="M335.1 169.78L333.06 171.68"/>
<path d="M332.05 170.43L333.06 171.68"/>
<path d="M332.19 168.28L332.38 169.61"/>
<path d="M332.04 170.42L332.32 170.06M332.32 170.06L332.38 169.61"/>
<path d="M332.05 170.43L325.3 177.18"/>
<path d="M324.49 177.51L324.94 177.46M324.94 177.46L325.29 177.17"/>
<path d="M323.15 177.32L324.49 177.5"/>
<path d="M332.19 168.28L323.15 177.32"/>
<path d="M333.06 171.68L326.55 178.19"/>
<path d="M325.3 177.18L326.55 178.19"/>
<path d="M332.05 170.43L325.3 177.18"/>
<path d="M333.06 171.68L332.05 170.43"/>
<path d="M333.06 171.68L326.55 178.19"/>
<path d="M333.06 171.68L333.9 173"/>
<path d="M333.9 173L327.87 179.03"/>
<path d="M326.55 178.19L327.87 179.03"/>
<path d="M326.55 178.19L324.95 180.03M324.95 180.03L324.65 180.23"/>
<path d="M326.55 178.19L327.87 179.03"/>
<path d="M327.87 179.03L326.21 181.22"/>
<path d="M324.65 180.23L326.21 181.22"/>
<path d="M324.49 177.51L324.93 177.44M324.93 177.44L325.3 177.18"/>
<path d="M325.3 177.18L326.55 178.19"/>
<path d="M326.55 178.19L325.57 179.43M325.57 179.43L324.65 180.23"/>
<path d="M324.49 177.5L324.33 178.06M324.33 178.06L324.31 179.25M324.31 179.25L324.49 179.94M324.49 179.94L324.65 180.23"/>
<path d="M321.44 179.76L323.16 177.31"/>
<path d="M323.16 177.31L324.48 177.5"/>
<path d="M324.48 177.5L324.27 179.26M324.27 179.26L324.65 180.23"/>
<path d="M321.44 179.76L324.65 180.23"/>
<path d="M321.44 179.76L324.65 180.23"/>
<path d="M324.65 180.23L326.21 181.22"/>
<path d="M326.21 181.22L325.09 182.89"/>
<path d="M321.07 180.33L325.09 182.89"/>
<path d="M321.07 180.33L321.44 179.76"/>
<path d="M321.07 180.33L325.09 182.89"/>
<path d="M318.19 178.49L321.07 180.33"/>
<path d="M318.19 178.49L314.95 177.54M314.95 177.54L311.71 178.47M311.71 178.47L309.47 180.99"/>
<path d="M343.33 167.24L339.19 157.24"/>
<path d="M340.4 160.01L340.57 159.94"/>
<path d="M340.57 159.94L344.48 167.66"/>
<path d="M347.37 174.65L344.48 167.66"/>
<path d="M347.29 174.68L347.37 174.65"/>
<path d="M343.55 167.14L347.29 174.68"/>
<path d="M343.55 167.14L343.33 167.24"/>
<path d="M348.93 174.72L349.75 175.64M349.75 175.64L350.99 175.75"/>
<path d="M348.71 174.12L348.93 174.72"/>
<path d="M347.37 174.65L348.71 174.12"/>
<path d="M347.37 174.65L344.48 167.66"/>
<path d="M375.52 167.66L365.29 164.91M365.29 164.91L354.7 164.91M354.7 164.91L344.48 167.66"/>
<path d="M375.52 167.66L372.62 174.65"/>
<path d="M371.28 174.12L372.62 174.65"/>
<path d="M371.06 174.72L371.28 174.12"/>
<path d="M369 175.75L370.24 175.65M370.24 175.65L371.06 174.72"/>
<path d="M369 175.75L360 174.4M360 174.4L350.99 175.75"/>
<path d="M348.57 174.18L349.07 175.01"/>
<path d="M348.93 174.72L349.76 175.65M349.76 175.65L351 175.75"/>
<path d="M348.84 174.57L348.89 174.63"/>
<path d="M348.93 174.72L348.59 174.17"/>
<path d="M369 175.75L360 174.4M360 174.4L350.99 175.75"/>
<path d="M370.92 175.02L371.43 174.17"/>
<path d="M369 175.75L370.24 175.65M370.24 175.65L371.07 174.71"/>
<path d="M371.4 174.17L371.07 174.71"/>
<path d="M348.57 174.2L348.92 174.68"/>
<path d="M371.09 174.64L371.43 174.18"/>
<path d="M371.45 174.09L371.06 174.72"/>
<path d="M371.06 174.72L371.28 174.12"/>
<path d="M371.36 174.15L371.28 174.12"/>
<path d="M347.29 174.68L347.37 174.65"/>
<path d="M347.37 174.65L348.71 174.12"/>
<path d="M371.28 174.12L372.62 174.65"/>
<path d="M372.62 174.65L372.7 174.68"/>
<path d="M343.55 167.14L347.29 174.68"/>
<path d="M371.36 174.15L372.7 174.68"/>
<path d="M372.7 174.68L376.44 167.14"/>
<path d="M348.93 174.72L348.6 174.17"/>
<path d="M348.63 174.15L348.71 174.12"/>
<path d="M348.71 174.12L348.93 174.72"/>
<path d="M382.24 170.22L384.8 166.2"/>
<path d="M386.63 163.32L384.8 166.2"/>
<path d="M384.9 169.78L385.37 166.57"/>
<path d="M383.9 171.34L384.9 169.78"/>
<path d="M383.9 171.34L382.24 170.22"/>
<path d="M382.24 170.22L384.8 166.2"/>
<path d="M385.37 166.56L384.8 166.2"/>
<path d="M387.81 168.29L385.37 166.57"/>
<path d="M387.62 169.61L387.81 168.29"/>
<path d="M384.9 169.78L386.15 169.37M386.15 169.37L387.62 169.61"/>
<path d="M384.9 169.78L385.37 166.57"/>
<path d="M397.73 178.54L398.56 179.76"/>
<path d="M396.84 177.32L387.8 168.28"/>
<path d="M386.57 167.39L385.37 166.57"/>
<path d="M385.37 166.57L384.8 166.2"/>
<path d="M398.56 179.76L398.93 180.33"/>
<path d="M396.83 177.31L398.56 179.76"/>
<path d="M395.35 180.23L398.56 179.76"/>
<path d="M395.51 177.5L395.72 179.26M395.72 179.26L395.35 180.23"/>
<path d="M396.83 177.31L395.51 177.5"/>
<path d="M395.35 180.23L398.56 179.76"/>
<path d="M398.56 179.76L398.92 180.33"/>
<path d="M394.91 182.89L398.92 180.33"/>
<path d="M394.91 182.89L393.79 181.22"/>
<path d="M395.35 180.23L393.79 181.22"/>
<path d="M394.91 182.89L398.92 180.33"/>
<path d="M398.92 180.33L401.81 178.49"/>
<path d="M410.52 180.99L408.28 178.47M408.28 178.47L405.04 177.54M405.04 177.54L401.81 178.49"/>
<path d="M395.35 180.23L394.47 179.5M394.47 179.5L393.44 178.19"/>
<path d="M395.35 180.23L393.79 181.22"/>
<path d="M393.79 181.22L392.12 179.03"/>
<path d="M393.44 178.19L392.12 179.03"/>
<path d="M394.69 177.18L395.06 177.44M395.06 177.44L395.51 177.51"/>
<path d="M395.51 177.5L395.66 178.06M395.66 178.06L395.68 179.25M395.68 179.25L395.5 179.94M395.5 179.94L395.35 180.23"/>
<path d="M395.35 180.23L393.44 178.19"/>
<path d="M394.69 177.18L393.44 178.19"/>
<path d="M396.84 177.32L395.51 177.5"/>
<path d="M394.7 177.17L395.06 177.44M395.06 177.44L395.51 177.51"/>
<path d="M394.69 177.18L387.94 170.43"/>
<path d="M387.61 169.61L387.66 170.07M387.66 170.07L387.95 170.42"/>
<path d="M387.62 169.62L387.81 168.28"/>
<path d="M396.84 177.32L387.81 168.28"/>
<path d="M393.44 178.19L386.94 171.68"/>
<path d="M387.94 170.43L386.94 171.68"/>
<path d="M394.69 177.18L387.94 170.43"/>
<path d="M393.44 178.19L394.69 177.18"/>
<path d="M393.44 178.19L386.94 171.68"/>
<path d="M393.44 178.19L392.12 179.03"/>
<path d="M392.12 179.03L386.1 173"/>
<path d="M386.94 171.68L386.1 173"/>
<path d="M386.94 171.68L385.1 170.08M385.1 170.08L384.9 169.78"/>
<path d="M386.94 171.68L386.1 173"/>
<path d="M386.09 173L383.9 171.34"/>
<path d="M383.9 171.34L384.9 169.78"/>
<path d="M387.62 169.62L387.68 170.06M387.68 170.06L387.94 170.43"/>
<path d="M387.94 170.43L386.94 171.68"/>
<path d="M386.94 171.68L385.69 170.7M385.69 170.7L384.9 169.78"/>
<path d="M384.9 169.78L385.18 169.62M385.18 169.62L385.86 169.44M385.86 169.44L387.06 169.46M387.06 169.46L387.62 169.62"/>
<path d="M386.63 163.32L387.58 160.08M387.58 160.08L386.65 156.84M386.65 156.84L384.14 154.6"/>
<path d="M397.89 188.46L407.88 184.32"/>
<path d="M405.18 185.7L405.11 185.53"/>
<path d="M397.47 189.6L405.18 185.7"/>
<path d="M390.48 192.5L397.47 189.6"/>
<path d="M390.44 192.42L390.48 192.5"/>
<path d="M397.98 188.68L390.44 192.42"/>
<path d="M397.98 188.68L397.89 188.46"/>
<path d="M407.88 225.93L411.54 213.45"/>
<path d="M405.11 224.72L407.88 225.93"/>
<path d="M405.11 224.72L408.47 213.45"/>
<path d="M411.54 213.45L408.64 213.45"/>
<path d="M408.47 196.8L405.11 185.53"/>
<path d="M405.11 185.53L407.88 184.32"/>
<path d="M411.54 196.8L407.88 184.32"/>
<path d="M408.64 196.8L411.54 196.8"/>
<path d="M407.88 225.93L397.89 221.79"/>
<path d="M397.89 221.79L397.98 221.57"/>
<path d="M390.44 217.83L397.98 221.57"/>
<path d="M390.48 217.75L390.44 217.83"/>
<path d="M397.47 220.65L390.48 217.75"/>
<path d="M405.18 224.55L397.47 220.65"/>
<path d="M405.11 224.72L405.18 224.55"/>
<path d="M405.11 224.72L407.88 225.93"/>
<path d="M390.44 217.83L390.97 216.49"/>
<path d="M390.44 217.83L397.98 221.57"/>
<path d="M397.98 188.68L390.44 192.42"/>
<path d="M390.48 217.75L391 216.41"/>
<path d="M390.48 217.75L390.44 217.83"/>
<path d="M390.44 192.42L390.48 192.5"/>
<path d="M391 193.84L390.48 192.5"/>
<path d="M390.4 194.06L389.48 194.88M389.48 194.88L389.37 196.12"/>
<path d="M391 193.84L390.4 194.06"/>
<path d="M391 193.84L390.48 192.5"/>
<path d="M390.48 192.5L397.47 189.6"/>
<path d="M397.47 220.65L400.21 210.42M400.21 210.42L400.21 199.83M400.21 199.83L397.47 189.6"/>
<path d="M397.47 220.65L390.48 217.75"/>
<path d="M390.48 217.75L391 216.41"/>
<path d="M390.4 216.19L391 216.41"/>
<path d="M389.37 214.13L389.48 215.37M389.48 215.37L390.4 216.19"/>
<path d="M389.37 214.13L390.72 205.13M390.72 205.13L389.37 196.12"/>
<path d="M390.94 193.7L390.11 194.2"/>
<path d="M390.4 194.06L389.47 194.89M389.47 194.89L389.37 196.13"/>
<path d="M390.56 193.97L390.49 194.02"/>
<path d="M390.4 194.06L390.95 193.72"/>
<path d="M389.37 214.13L390.72 205.13M390.72 205.13L389.37 196.12"/>
<path d="M390.1 216.05L390.95 216.56"/>
<path d="M390.49 216.23L390.57 216.29"/>
<path d="M389.37 214.13L389.48 215.37M389.48 215.37L390.41 216.2"/>
<path d="M390.96 216.53L390.41 216.2"/>
<path d="M390.92 193.7L390.44 194.04"/>
<path d="M390.48 216.22L390.55 216.28"/>
<path d="M390.95 216.53L390.4 216.19"/>
<path d="M390.4 216.19L391 216.41"/>
<path d="M391 216.41L390.97 216.49"/>
<path d="M390.4 194.06L390.96 193.72"/>
<path d="M390.97 193.76L391 193.84"/>
<path d="M391 193.84L390.4 194.06"/>
<path d="M397.47 220.65L400.21 210.42M400.21 210.42L400.21 199.83M400.21 199.83L397.47 189.6"/>
<path d="M397.47 189.6L405.18 185.7"/>
<path d="M408.47 196.8L405.18 185.7"/>
<path d="M401.07 213.45L401.91 205.13M401.91 205.13L401.07 196.8"/>
<path d="M408.47 213.45L408.42 213.45"/>
<path d="M405.18 224.55L408.47 213.45"/>
<path d="M405.18 224.55L397.47 220.65"/>
<path d="M405.11 224.72L405.18 224.55"/>
<path d="M405.18 224.55L408.47 213.45"/>
<path d="M408.47 196.8L405.18 185.7"/>
<path d="M405.18 185.7L405.11 185.53"/>
<path d="M402.37 213.45L401.07 213.45"/>
<path d="M402.37 213.45L407.21 213.45"/>
<path d="M411.75 213.45L407.21 213.45"/>
<path d="M415.36 213.45L411.75 213.45"/>
<path d="M416.5 209.18L416.5 201.07"/>
<path d="M416.5 201.07L416.5 209.18"/>
<path d="M416.5 201.07L416.31 196.8"/>
<path d="M417.55 196.8L416.31 196.8"/>
<path d="M417.55 213.45L418.17 205.13M418.17 205.13L417.55 196.8"/>
<path d="M416.5 209.18L416.51 209.33M416.51 209.33L416.6 209.8M416.6 209.8L417.29 212.67M417.29 212.67L417.45 213.29M417.45 213.29L417.5 213.41M417.5 213.41L417.51 213.45M417.51 213.45L417.54 213.45"/>
<path d="M416.5 209.18L416.5 201.07"/>
<path d="M417.55 196.8L416.32 196.8"/>
<path d="M411.75 196.8L414.13 196.8"/>
<path d="M407.21 196.8L411.75 196.8"/>
<path d="M407.21 196.8L402.37 196.8"/>
<path d="M401.07 196.8L402.37 196.8"/>
<path d="M411.75 213.45L407.21 213.45"/>
<path d="M407.21 196.8L407.21 213.45"/>
<path d="M407.21 196.8L411.75 196.8"/>
<path d="M411.75 213.45L411.75 196.8"/>
<path d="M402.37 213.45L407.21 213.45"/>
<path d="M402.37 196.8L402.37 213.45"/>
<path d="M407.21 196.8L402.37 196.8"/>
<path d="M407.21 196.8L407.21 213.45"/>
<path d="M401.07 196.8L402.37 196.8"/>
<path d="M402.37 196.8L402.37 213.45"/>
<path d="M402.37 213.45L401.07 213.45"/>
<path d="M408.47 213.49L408.64 213.49"/>
<path d="M408.64 196.76L408.47 196.76"/>
<path d="M392.12 231.22L393.79 229.03"/>
<path d="M386.1 237.25L392.12 231.22"/>
<path d="M383.9 238.91L386.1 237.25"/>
<path d="M382.24 240.03L383.9 238.91"/>
<path d="M393.79 229.03L394.91 227.36"/>
<path d="M393.44 232.07L395.05 230.22M395.05 230.22L395.35 230.03"/>
<path d="M392.12 231.23L393.44 232.07"/>
<path d="M392.12 231.22L393.79 229.03"/>
<path d="M395.35 230.03L393.79 229.03"/>
<path d="M395.51 232.75L395.06 232.81M395.06 232.81L394.69 233.07"/>
<path d="M393.44 232.07L394.69 233.07"/>
<path d="M393.44 232.07L394.42 230.82M394.42 230.82L395.35 230.03"/>
<path d="M395.51 232.75L395.66 232.19M395.66 232.19L395.68 231M395.68 231L395.5 230.31M395.5 230.31L395.35 230.03"/>
<path d="M387.62 240.64L387.81 241.97"/>
<path d="M387.95 239.83L387.67 240.19M387.67 240.19L387.61 240.64"/>
<path d="M387.94 239.82L394.69 233.07"/>
<path d="M395.51 232.74L395.06 232.81M395.06 232.81L394.7 233.08"/>
<path d="M396.84 232.93L395.51 232.75"/>
<path d="M387.81 241.97L396.84 232.93"/>
<path d="M385.37 243.69L387.81 241.96"/>
<path d="M384.9 240.47L385.37 243.69"/>
<path d="M387.62 240.64L385.87 240.85M385.87 240.85L384.9 240.47"/>
<path d="M387.62 240.64L387.81 241.96"/>
<path d="M385.37 243.69L386.57 242.87"/>
<path d="M387.8 241.97L396.84 232.93"/>
<path d="M398.56 230.5L397.74 231.7"/>
<path d="M398.93 229.93L398.56 230.5"/>
<path d="M385.37 243.69L384.8 244.05"/>
<path d="M398.56 230.5L396.83 232.94"/>
<path d="M396.83 232.94L395.51 232.75"/>
<path d="M395.51 232.75L395.72 230.99M395.72 230.99L395.35 230.03"/>
<path d="M398.56 230.5L395.35 230.03"/>
<path d="M398.56 230.5L395.35 230.03"/>
<path d="M395.35 230.03L393.79 229.03"/>
<path d="M393.79 229.03L394.91 227.36"/>
<path d="M398.92 229.93L394.91 227.36"/>
<path d="M398.92 229.93L398.56 230.5"/>
<path d="M398.92 229.93L394.91 227.36"/>
<path d="M401.81 231.76L398.92 229.93"/>
<path d="M401.81 231.76L405.04 232.71M405.04 232.71L408.28 231.78M408.28 231.78L410.52 229.27"/>
<path d="M384.9 240.47L385.37 243.69"/>
<path d="M385.37 243.69L384.8 244.05"/>
<path d="M382.24 240.03L384.8 244.05"/>
<path d="M382.24 240.03L383.9 238.91"/>
<path d="M384.9 240.47L383.9 238.91"/>
<path d="M382.24 240.03L384.8 244.05"/>
<path d="M384.8 244.05L386.63 246.93"/>
<path d="M384.14 255.65L386.65 253.41M386.65 253.41L387.58 250.17M387.58 250.17L386.63 246.93"/>
<path d="M384.9 240.47L385.63 239.6M385.63 239.6L386.94 238.57"/>
<path d="M384.9 240.47L383.9 238.91"/>
<path d="M383.9 238.92L386.09 237.25"/>
<path d="M386.94 238.57L386.1 237.25"/>
<path d="M387.94 239.82L387.68 240.19M387.68 240.19L387.62 240.64"/>
<path d="M387.62 240.64L387.06 240.79M387.06 240.79L385.87 240.81M385.87 240.81L385.18 240.63M385.18 240.63L384.9 240.47"/>
<path d="M384.9 240.47L386.94 238.57"/>
<path d="M387.94 239.82L386.94 238.57"/>
<path d="M386.94 238.57L393.44 232.07"/>
<path d="M393.44 232.07L394.69 233.07"/>
<path d="M387.94 239.82L394.69 233.07"/>
<path d="M386.94 238.57L387.94 239.82"/>
<path d="M386.94 238.57L393.44 232.07"/>
<path d="M386.94 238.57L386.1 237.25"/>
<path d="M386.1 237.25L392.12 231.22"/>
<path d="M392.12 231.22L393.44 232.07"/>
<path d="M338.01 240.2L343.55 243.11"/>
<path d="M335.33 238.36L336.09 238.91"/>
<path d="M326.21 229.04L326.76 229.79"/>
<path d="M325.01 183.02L322.01 188.68"/>
<path d="M326.77 180.45L326.21 181.22"/>
<path d="M343.33 167.24L335.33 171.89"/>
<path d="M384.69 171.91L376.44 167.14"/>
<path d="M392.12 179.03L386.09 172.99"/>
<path d="M397.88 188.46L393.21 180.43"/>
<path d="M394.91 227.36L397.98 221.57"/>
<path d="M393.23 229.8L394.91 227.36"/>
<path d="M386.1 237.25L392.12 231.22"/>
<path d="M383.9 238.91L384.68 238.35"/>
<path d="M376.66 243.01L380.8 253.01"/>
<path d="M379.42 250.31L379.59 250.24"/>
<path d="M375.52 242.6L379.42 250.31"/>
<path d="M372.62 235.61L375.52 242.6"/>
<path d="M372.7 235.57L372.62 235.61"/>
<path d="M376.44 243.11L372.7 235.57"/>
<path d="M376.44 243.11L376.66 243.01"/>
<path d="M339.19 253.01L351.67 256.67"/>
<path d="M340.4 250.24L339.19 253.01"/>
<path d="M340.4 250.24L351.66 253.6"/>
<path d="M351.67 253.77L351.67 256.67"/>
<path d="M368.32 253.6L379.59 250.24"/>
<path d="M379.59 250.24L380.8 253.01"/>
<path d="M368.32 256.67L380.8 253.01"/>
<path d="M368.32 253.77L368.32 256.67"/>
<path d="M339.19 253.01L343.33 243.01"/>
<path d="M343.33 243.01L343.55 243.11"/>
<path d="M347.29 235.57L343.55 243.11"/>
<path d="M347.37 235.61L347.29 235.57"/>
<path d="M344.48 242.6L347.37 235.61"/>
<path d="M340.57 250.31L344.48 242.6"/>
<path d="M340.4 250.24L340.57 250.31"/>
<path d="M340.4 250.24L339.19 253.01"/>
<path d="M347.29 235.57L343.55 243.11"/>
<path d="M376.44 243.11L372.7 235.57"/>
<path d="M347.37 235.61L348.71 236.13"/>
<path d="M347.37 235.61L347.29 235.57"/>
<path d="M372.7 235.57L372.62 235.61"/>
<path d="M371.28 236.13L372.62 235.61"/>
<path d="M371.06 235.53L370.24 234.61M370.24 234.61L369 234.5"/>
<path d="M371.28 236.13L371.06 235.53"/>
<path d="M371.28 236.13L372.62 235.61"/>
<path d="M372.62 235.61L375.52 242.6"/>
<path d="M344.48 242.6L354.7 245.34M354.7 245.34L365.29 245.34M365.29 245.34L375.52 242.6"/>
<path d="M344.48 242.6L347.37 235.61"/>
<path d="M347.37 235.61L348.71 236.13"/>
<path d="M348.93 235.53L348.71 236.13"/>
<path d="M350.99 234.5L349.75 234.61M349.75 234.61L348.93 235.53"/>
<path d="M350.99 234.5L360 235.85M360 235.85L369 234.5"/>
<path d="M371.43 236.07L370.92 235.24"/>
<path d="M371.06 235.53L370.23 234.6M370.23 234.6L368.99 234.5"/>
<path d="M371.16 235.68L371.1 235.62"/>
<path d="M371.06 235.53L371.4 236.08"/>
<path d="M350.99 234.5L360 235.85M360 235.85L369 234.5"/>
<path d="M349.07 235.23L348.56 236.08"/>
<path d="M350.99 234.5L349.75 234.61M349.75 234.61L348.93 235.54"/>
<path d="M348.6 236.08L348.93 235.54"/>
<path d="M371.42 236.05L371.08 235.57"/>
<path d="M348.9 235.61L348.84 235.68"/>
<path d="M348.55 236.16L348.93 235.53"/>
<path d="M348.93 235.53L348.71 236.13"/>
<path d="M348.71 236.13L348.63 236.1"/>
<path d="M371.06 235.53L371.4 236.08"/>
<path d="M371.36 236.1L371.28 236.13"/>
<path d="M371.28 236.13L371.06 235.53"/>
<path d="M344.48 242.6L354.7 245.34M354.7 245.34L365.29 245.34M365.29 245.34L375.52 242.6"/>
<path d="M375.52 242.6L379.42 250.31"/>
<path d="M368.32 253.6L379.42 250.31"/>
<path d="M351.67 246.2L360 247.03M360 247.03L368.32 246.2"/>
<path d="M351.67 253.55L351.67 253.6"/>
<path d="M340.57 250.31L351.67 253.6"/>
<path d="M340.57 250.31L344.48 242.6"/>
<path d="M340.4 250.24L340.57 250.31"/>
<path d="M340.57 250.31L351.67 253.6"/>
<path d="M368.32 253.6L379.42 250.31"/>
<path d="M379.42 250.31L379.59 250.24"/>
<path d="M351.63 253.6L351.63 253.77"/>
<path d="M368.36 253.6L368.36 253.77"/>
<path d="M368.32 260.5L368.32 259.26"/>
<path d="M368.32 259.26L368.32 256.88"/>
<path d="M368.32 252.34L368.32 256.88"/>
<path d="M368.32 252.34L368.32 247.5"/>
<path d="M368.32 246.2L368.32 247.5"/>
<path d="M351.67 256.88L351.67 252.34"/>
<path d="M368.32 252.34L351.67 252.34"/>
<path d="M368.32 252.34L368.32 256.88"/>
<path d="M368.32 256.88L351.67 256.88"/>
<path d="M351.67 247.5L351.67 252.34"/>
<path d="M368.32 247.5L351.67 247.5"/>
<path d="M368.32 252.34L368.32 247.5"/>
<path d="M368.32 252.34L351.67 252.34"/>
<path d="M351.67 246.2L360 247.03M360 247.03L368.32 246.2"/>
<path d="M368.32 246.2L368.32 247.5"/>
<path d="M368.32 247.5L351.67 247.5"/>
<path d="M351.67 247.5L351.67 246.2"/>
<path d="M337.76 240.03L335.2 244.05"/>
<path d="M333.36 246.93L335.2 244.05"/>
<path d="M335.1 240.47L334.63 243.69"/>
<path d="M336.09 238.91L335.1 240.47"/>
<path d="M336.09 238.91L337.76 240.03"/>
<path d="M337.76 240.03L335.2 244.05"/>
<path d="M334.63 243.69L335.2 244.05"/>
<path d="M332.18 241.96L334.63 243.69"/>
<path d="M332.38 240.64L332.18 241.96"/>
<path d="M335.1 240.47L333.85 240.88M333.85 240.88L332.38 240.64"/>
<path d="M335.1 240.47L334.63 243.69"/>
<path d="M322.25 231.7L321.44 230.5"/>
<path d="M323.16 232.93L332.19 241.97"/>
<path d="M333.43 242.87L334.63 243.69"/>
<path d="M334.63 243.69L335.2 244.05"/>
<path d="M321.44 230.5L321.07 229.93"/>
<path d="M323.16 232.94L321.44 230.5"/>
<path d="M324.65 230.03L321.44 230.5"/>
<path d="M324.48 232.75L324.27 230.99M324.27 230.99L324.65 230.03"/>
<path d="M323.16 232.94L324.48 232.75"/>
<path d="M324.65 230.03L321.44 230.5"/>
<path d="M321.44 230.5L321.07 229.93"/>
<path d="M325.09 227.36L321.07 229.93"/>
<path d="M325.09 227.36L326.21 229.03"/>
<path d="M324.65 230.03L326.21 229.03"/>
<path d="M325.09 227.36L321.07 229.93"/>
<path d="M321.07 229.93L318.19 231.76"/>
<path d="M309.47 229.27L311.71 231.78M311.71 231.78L314.95 232.71M314.95 232.71L318.19 231.76"/>
<path d="M324.65 230.03L325.52 230.75M325.52 230.75L326.55 232.07"/>
<path d="M324.65 230.03L326.21 229.03"/>
<path d="M326.21 229.03L327.87 231.22"/>
<path d="M326.55 232.07L327.87 231.22"/>
<path d="M325.3 233.07L324.93 232.81M324.93 232.81L324.49 232.75"/>
<path d="M324.49 232.75L324.33 232.19M324.33 232.19L324.31 231M324.31 231L324.49 230.31M324.49 230.31L324.65 230.03"/>
<path d="M324.65 230.03L326.55 232.06"/>
<path d="M325.3 233.07L326.55 232.06"/>
<path d="M323.15 232.93L324.49 232.75"/>
<path d="M325.3 233.08L324.93 232.81M324.93 232.81L324.49 232.74"/>
<path d="M325.3 233.07L332.05 239.82"/>
<path d="M332.38 240.64L332.33 240.18M332.33 240.18L332.04 239.83"/>
<path d="M332.38 240.64L332.19 241.97"/>
<path d="M323.15 232.93L332.19 241.97"/>
<path d="M326.55 232.07L333.06 238.57"/>
<path d="M332.05 239.82L333.06 238.57"/>
<path d="M325.3 233.07L332.05 239.82"/>
<path d="M326.55 232.07L325.3 233.07"/>
<path d="M326.55 232.07L333.06 238.57"/>
<path d="M326.55 232.07L327.87 231.22"/>
<path d="M327.87 231.22L333.9 237.25"/>
<path d="M333.06 238.57L333.9 237.25"/>
<path d="M333.06 238.57L334.9 240.17M334.9 240.17L335.1 240.47"/>
<path d="M333.06 238.57L333.9 237.25"/>
<path d="M333.9 237.25L336.09 238.92"/>
<path d="M336.09 238.91L335.1 240.47"/>
<path d="M332.38 240.64L332.31 240.19M332.31 240.19L332.05 239.82"/>
<path d="M332.05 239.82L333.06 238.57"/>
<path d="M333.06 238.57L334.3 239.55M334.3 239.55L335.1 240.47"/>
<path d="M335.1 240.47L334.82 240.63M334.82 240.63L334.14 240.81M334.14 240.81L332.94 240.79M332.94 240.79L332.38 240.64"/>
<path d="M333.36 246.93L332.41 250.17M332.41 250.17L333.34 253.41M333.34 253.41L335.86 255.65"/>
<path d="M322.11 221.79L312.11 225.93"/>
<path d="M314.81 224.55L314.89 224.72"/>
<path d="M322.53 220.65L314.81 224.55"/>
<path d="M329.52 217.75L322.53 220.65"/>
<path d="M329.55 217.83L329.52 217.75"/>
<path d="M322.01 221.57L329.55 217.83"/>
<path d="M322.01 221.57L322.11 221.79"/>
<path d="M311.52 213.45L314.89 224.72"/>
<path d="M314.89 224.72L312.11 225.93"/>
<path d="M308.45 213.45L312.11 225.93"/>
<path d="M311.35 213.45L308.45 213.45"/>
<path d="M312.11 184.32L308.45 196.8"/>
<path d="M314.89 185.53L312.11 184.32"/>
<path d="M314.89 185.53L311.52 196.8"/>
<path d="M308.45 196.8L311.35 196.8"/>
<path d="M311.52 213.45L314.81 224.55"/>
<path d="M314.81 224.55L314.89 224.72"/>
<path d="M314.81 185.7L314.89 185.53"/>
<path d="M314.81 185.7L311.52 196.8"/>
<path d="M314.81 185.7L311.52 196.8"/>
<path d="M322.53 189.6L314.81 185.7"/>
<path d="M322.53 189.6L319.79 199.83M319.79 199.83L319.79 210.42M319.79 210.42L322.53 220.65"/>
<path d="M322.53 220.65L314.81 224.55"/>
<path d="M311.52 213.45L314.81 224.55"/>
<path d="M318.92 196.8L318.09 205.13M318.09 205.13L318.92 213.45"/>
<path d="M312.11 184.32L322.11 188.46"/>
<path d="M322.11 188.46L322.01 188.68"/>
<path d="M329.55 192.42L322.01 188.68"/>
<path d="M329.52 192.5L329.55 192.42"/>
<path d="M322.53 189.6L329.52 192.5"/>
<path d="M322.53 189.6L314.81 185.7"/>
<path d="M314.81 185.7L314.89 185.53"/>
<path d="M314.89 185.53L312.11 184.32"/>
<path d="M322.01 221.57L329.55 217.83"/>
<path d="M329.55 192.42L322.01 188.68"/>
<path d="M329.55 217.83L329.52 217.75"/>
<path d="M329 216.41L329.52 217.75"/>
<path d="M329.52 192.5L329 193.84"/>
<path d="M329.52 192.5L329.55 192.42"/>
<path d="M330.63 196.12L330.52 194.88M330.52 194.88L329.59 194.06"/>
<path d="M330.63 196.12L329.28 205.13M329.28 205.13L330.63 214.13"/>
<path d="M329.59 216.19L330.52 215.37M330.52 215.37L330.63 214.13"/>
<path d="M329 216.41L329.59 216.19"/>
<path d="M329 216.41L329.52 217.75"/>
<path d="M329.52 217.75L322.53 220.65"/>
<path d="M322.53 189.6L319.79 199.83M319.79 199.83L319.79 210.42M319.79 210.42L322.53 220.65"/>
<path d="M322.53 189.6L329.52 192.5"/>
<path d="M329.52 192.5L329 193.84"/>
<path d="M329.59 194.06L329 193.84"/>
<path d="M329.89 194.2L329.04 193.69"/>
<path d="M329.5 194.03L329.42 193.96"/>
<path d="M330.63 196.12L330.52 194.88M330.52 194.88L329.58 194.06"/>
<path d="M329.04 193.73L329.58 194.06"/>
<path d="M329.51 194.03L329.44 193.97"/>
<path d="M329.52 216.22L329.44 216.28"/>
<path d="M329.04 193.72L329.59 194.06"/>
<path d="M329.59 194.06L329 193.84"/>
<path d="M329 193.84L329.03 193.76"/>
<path d="M329.04 216.53L329.59 216.19"/>
<path d="M329.03 216.49L329 216.41"/>
<path d="M329 216.41L329.59 216.19"/>
<path d="M329.05 216.56L329.88 216.05"/>
<path d="M329.6 216.19L330.52 215.36M330.52 215.36L330.62 214.12"/>
<path d="M329.51 216.22L329.44 216.28"/>
<path d="M329.04 216.53L329.6 216.19"/>
<path d="M330.63 196.12L329.28 205.13M329.28 205.13L330.63 214.13"/>
<path d="M305.86 213.45L304.62 213.45"/>
<path d="M308.24 213.45L305.86 213.45"/>
<path d="M312.78 213.45L308.24 213.45"/>
<path d="M312.78 213.45L317.62 213.45"/>
<path d="M318.92 213.45L317.62 213.45"/>
<path d="M305.67 209.18L305.86 213.45"/>
<path d="M305.86 213.45L304.62 213.45"/>
<path d="M305.67 201.07L305.01 198.32M305.01 198.32L304.7 197.22M304.7 197.22L304.64 196.8"/>
<path d="M305.67 201.07L305.67 209.18"/>
<path d="M305.67 201.07L305.67 209.18"/>
<path d="M305.67 209.18L305.67 201.07"/>
<path d="M317.62 196.8L318.92 196.8"/>
<path d="M317.62 196.8L312.78 196.8"/>
<path d="M308.24 196.8L312.78 196.8"/>
<path d="M304.62 196.8L308.24 196.8"/>
<path d="M311.52 196.76L311.35 196.76"/>
<path d="M311.35 213.49L311.52 213.49"/>
<path d="M318.92 213.45L317.62 213.45"/>
<path d="M317.62 196.8L317.62 213.45"/>
<path d="M317.62 196.8L318.92 196.8"/>
<path d="M317.62 196.8L312.78 196.8"/>
<path d="M317.62 196.8L317.62 213.45"/>
<path d="M312.78 213.45L317.62 213.45"/>
<path d="M312.78 196.8L312.78 213.45"/>
<path d="M308.24 196.8L312.78 196.8"/>
<path d="M312.78 196.8L312.78 213.45"/>
<path d="M312.78 213.45L308.24 213.45"/>
<path d="M308.24 196.8L308.24 213.45"/>
<path d="M368.32 164.05L360 163.22M360 163.22L351.67 164.05"/>
<path d="M351.67 164.05L351.67 162.75"/>
<path d="M368.32 162.75L351.67 162.75"/>
<path d="M368.32 162.75L368.32 164.05"/>
<path d="M368.32 162.75L368.32 157.91"/>
<path d="M368.32 162.75L351.67 162.75"/>
<path d="M351.67 157.91L351.67 162.75"/>
<path d="M368.32 157.91L351.67 157.91"/>
<path d="M368.32 153.37L368.32 157.91"/>
<path d="M368.32 157.91L351.67 157.91"/>
<path d="M351.67 157.91L351.67 153.37"/>
<path d="M368.32 153.37L351.67 153.37"/>
<path d="M368.36 156.65L368.36 156.48"/>
<path d="M351.63 156.48L351.63 156.65"/>
<path d="M385.3 153.48L371.24 148.73M371.24 148.73L356.43 147.73M356.43 147.73L341.85 150.55M341.85 150.55L328.49 157.02M328.49 157.02L317.23 166.68M317.23 166.68L308.81 178.91M308.81 178.91L303.81 192.89M303.81 192.89L302.55 207.68M302.55 207.68L305.11 222.3M305.11 222.3L311.34 235.77M311.34 235.77L320.8 247.21"/>
<path d="M335.18 257.01L349.19 261.61M349.19 261.61L363.91 262.5M363.91 262.5L378.37 259.62M378.37 259.62L391.63 253.15M391.63 253.15L402.8 243.53M402.8 243.53L411.16 231.38M411.16 231.38L416.16 217.51M416.16 217.51L417.46 202.82M417.46 202.82L414.98 188.29M414.98 188.29L408.89 174.86M408.89 174.86L399.59 163.42"/>
<path d="M187.48 205.13L189.44 190.24M189.44 190.24L195.18 176.37M195.18 176.37L204.32 164.46M204.32 164.46L216.23 155.32M216.23 155.32L230.1 149.58M230.1 149.58L244.98 147.62M244.98 147.62L259.87 149.58M259.87 149.58L273.74 155.32M273.74 155.32L285.65 164.46M285.65 164.46L294.79 176.37M294.79 176.37L300.53 190.24M300.53 190.24L302.49 205.13M302.49 205.13L300.53 220.01M300.53 220.01L294.79 233.88M294.79 233.88L285.65 245.79M285.65 245.79L273.74 254.93M273.74 254.93L259.87 260.67M259.87 260.67L244.98 262.63M244.98 262.63L230.1 260.67M230.1 260.67L216.23 254.93M216.23 254.93L204.32 245.79M204.32 245.79L195.18 233.88M195.18 233.88L189.44 220.01M189.44 220.01L187.48 205.13"/>
<path d="M456 201.84L457.42 201.13M457.42 201.13L459.56 198.99M459.56 198.99L459.56 213.94"/>
<path d="M141.15 202.55L141.15 201.84M141.15 201.84L141.86 200.41M141.86 200.41L142.58 199.7M142.58 199.7L144 198.99M144 198.99L146.85 198.99M146.85 198.99L148.27 199.7M148.27 199.7L148.98 200.41M148.98 200.41L149.69 201.84M149.69 201.84L149.69 203.26M149.69 203.26L148.98 204.68M148.98 204.68L147.56 206.82M147.56 206.82L140.44 213.94M140.44 213.94L150.4 213.94"/>
<path d="M409.04 149.83L399.59 163.42"/>
<path d="M394.75 139.89L409.04 149.83"/>
<path d="M385.3 153.48L394.75 139.89"/>
<path d="M325.86 270.68L335.18 257.01"/>
<path d="M325.86 270.68L311.48 260.89"/>
<path d="M311.48 260.89L320.8 247.21"/>
</g>
</g>
</svg>
