<?xml version="1.0" standalone="no"?><svg xmlns="http://www.w3.org/2000/svg" width="600.000" height="450.000" viewBox="0.0 0.0 600.000 450.000" version="1.1">
<title>Acme Converter - Post-processed with EDS-Designer: 14.44 (info@symca.com)</title>
<desc>Acme Converter - Post-processed with EDS-Designer: 14.44 (info@symca.com)</desc>
<g id="EDS_STYLE_GROUP" fill="none" stroke="black" stroke-width="1.0">
<g id="0" display="visible">
<path d="M245.89 386.06L245.89 363.67M246.96 363.67L246.96 386.06M242.69 363.67L255.49 363.67M255.49 363.67L258.69 364.74M258.69 364.74L259.75 365.8M259.75 365.8L260.82 367.94M260.82 367.94L260.82 370.07M260.82 370.07L259.75 372.2M259.75 372.2L258.69 373.27M258.69 373.27L255.49 374.33M255.49 363.67L257.62 364.74M257.62 364.74L258.69 365.8M258.69 365.8L259.75 367.94M259.75 367.94L259.75 370.07M259.75 370.07L258.69 372.2M258.69 372.2L257.62 373.27M257.62 373.27L255.49 374.33M246.96 374.33L255.49 374.33M255.49 374.33L258.69 375.4M258.69 375.4L259.75 376.47M259.75 376.47L260.82 378.6M260.82 378.6L260.82 381.8M260.82 381.8L259.75 383.93M259.75 383.93L258.69 385M258.69 385L255.49 386.06M255.49 386.06L242.69 386.06M255.49 374.33L257.62 375.4M257.62 375.4L258.69 376.47M258.69 376.47L259.75 378.6M259.75 378.6L259.75 381.8M259.75 381.8L258.69 383.93M258.69 383.93L257.62 385M257.62 385L255.49 386.06M269.35 386.06L269.35 363.67M270.42 363.67L270.42 386.06M266.15 363.67L278.95 363.67M278.95 363.67L282.15 364.74M282.15 364.74L283.22 365.8M283.22 365.8L284.28 367.94M284.28 367.94L284.28 370.07M284.28 370.07L283.22 372.2M283.22 372.2L282.15 373.27M282.15 373.27L278.95 374.33M278.95 374.33L270.42 374.33M278.95 363.67L281.08 364.74M281.08 364.74L282.15 365.8M282.15 365.8L283.22 367.94M283.22 367.94L283.22 370.07M283.22 370.07L282.15 372.2M282.15 372.2L281.08 373.27M281.08 373.27L278.95 374.33M266.15 386.06L273.62 386.06M275.75 374.33L277.88 375.4M277.88 375.4L278.95 376.47M278.95 376.47L282.15 383.93M282.15 383.93L283.22 385M283.22 385L284.28 385M284.28 385L285.35 383.93M277.88 375.4L278.95 377.53M278.95 377.53L281.08 385M281.08 385L282.15 386.06M282.15 386.06L284.28 386.06M284.28 386.06L285.35 383.93M285.35 383.93L285.35 382.87M297.08 363.67L293.88 364.74M293.88 364.74L291.75 366.87M291.75 366.87L290.68 369M290.68 369L289.61 373.27M289.61 373.27L289.61 376.47M289.61 376.47L290.68 380.73M290.68 380.73L291.75 382.87M291.75 382.87L293.88 385M293.88 385L297.08 386.06M297.08 386.06L299.21 386.06M299.21 386.06L302.41 385M302.41 385L304.54 382.87M304.54 382.87L305.61 380.73M305.61 380.73L306.68 376.47M306.68 376.47L306.68 373.27M306.68 373.27L305.61 369M305.61 369L304.54 366.87M304.54 366.87L302.41 364.74M302.41 364.74L299.21 363.67M299.21 363.67L297.08 363.67M297.08 363.67L294.95 364.74M294.95 364.74L292.81 366.87M292.81 366.87L291.75 369M291.75 369L290.68 373.27M290.68 373.27L290.68 376.47M290.68 376.47L291.75 380.73M291.75 380.73L292.81 382.87M292.81 382.87L294.95 385M294.95 385L297.08 386.06M299.21 386.06L301.34 385M301.34 385L303.48 382.87M303.48 382.87L304.54 380.73M304.54 380.73L305.61 376.47M305.61 376.47L305.61 373.27M305.61 373.27L304.54 369M304.54 369L303.48 366.87M303.48 366.87L301.34 364.74M301.34 364.74L299.21 363.67M316.27 363.67L320.54 386.06M317.34 363.67L320.54 380.73M324.81 363.67L320.54 386.06M324.81 363.67L329.07 386.06M325.87 363.67L329.07 380.73M333.34 363.67L329.07 386.06M313.08 363.67L320.54 363.67M330.14 363.67L336.54 363.67M341.87 386.06L341.87 363.67M342.94 386.06L342.94 363.67M342.94 363.67L355.73 383.93M342.94 365.8L355.73 386.06M355.73 386.06L355.73 363.67M338.67 363.67L342.94 363.67M352.53 363.67L358.93 363.67M338.67 386.06L345.07 386.06"/>
<path d="M500.96 145.01L502.66 144.16M502.66 144.16L505.22 141.6M505.22 141.6L505.22 159.51"/>
<path d="M71.18 144.1L83.12 144.1M83.12 144.1L74.59 162.02"/>
<path d="M505.57 245.89L503.01 246.74M503.01 246.74L502.15 248.44M502.15 248.44L502.15 250.15M502.15 250.15L503.01 251.86M503.01 251.86L504.71 252.71M504.71 252.71L508.13 253.56M508.13 253.56L510.69 254.42M510.69 254.42L512.39 256.12M512.39 256.12L513.24 257.83M513.24 257.83L513.24 260.39M513.24 260.39L512.39 262.09M512.39 262.09L511.54 262.95M511.54 262.95L508.98 263.8M508.98 263.8L505.57 263.8M505.57 263.8L503.01 262.95M503.01 262.95L502.15 262.09M502.15 262.09L501.3 260.39M501.3 260.39L501.3 257.83M501.3 257.83L502.15 256.12M502.15 256.12L503.86 254.42M503.86 254.42L506.42 253.56M506.42 253.56L509.83 252.71M509.83 252.71L511.54 251.86M511.54 251.86L512.39 250.15M512.39 250.15L512.39 248.44M512.39 248.44L511.54 246.74M511.54 246.74L508.98 245.89M508.98 245.89L505.57 245.89"/>
<path d="M60.77 247.57L62.47 246.72M62.47 246.72L65.03 244.16M65.03 244.16L65.03 262.08M82.95 244.16L74.42 256.1M74.42 256.1L87.21 256.1M82.95 244.16L82.95 262.08"/>
</g>
<g id="P" display="visible">
<path d="M113.96 335.5L114.61 335.5M114.61 335.5L114.61 334.85M114.61 334.85L115.25 334.21M115.25 334.21L115.25 332.93"/>
<path d="M486.96 332.93L486.96 333.57M486.96 333.57L487.6 334.21M487.6 334.21L487.6 335.5M487.6 335.5L488.24 335.5"/>
<path d="M115.25 280.29L115.25 280.93M115.25 280.93L115.25 281.57"/>
<path d="M168.53 281.57L168.53 280.93M168.53 280.93L167.89 280.29M167.89 280.29L167.89 279.64M167.89 279.64L167.25 278.36M167.25 278.36L166.61 277.72M166.61 277.72L165.97 277.72M165.97 277.72L164.68 277.72"/>
<path d="M486.96 281.57L486.96 280.29"/>
<path d="M438.17 277.72L436.24 277.72M436.24 277.72L435.6 277.72M435.6 277.72L435.6 278.36M435.6 278.36L434.32 279M434.32 279L434.32 279.64M434.32 279.64L433.67 280.29M433.67 280.29L433.67 280.93M433.67 280.93L433.67 281.57"/>
<path d="M115.25 280.29L115.25 277.72"/>
<path d="M486.96 277.72L486.96 280.29"/>
<path d="M431.75 209.67L434.96 208.38M434.96 208.38L437.53 206.46M437.53 206.46L438.17 203.25"/>
<path d="M438.17 201.96L437.53 198.75M437.53 198.75L434.96 196.19M434.96 196.19L431.75 194.9"/>
<path d="M357.92 203.25L359.2 206.46M359.2 206.46L361.13 208.38M361.13 208.38L364.34 209.67"/>
<path d="M364.34 194.9L361.13 196.19M361.13 196.19L359.2 198.75M359.2 198.75L357.92 201.96"/>
<path d="M341.23 201.96L339.94 198.75M339.94 198.75L338.02 196.19M338.02 196.19L334.81 194.9"/>
<path d="M334.81 209.67L338.02 208.38M338.02 208.38L339.94 206.46M339.94 206.46L341.23 203.25"/>
<path d="M431.75 213.52L435.6 212.88M435.6 212.88L438.81 210.31M438.81 210.31L441.38 207.1M441.38 207.1L442.02 203.25"/>
<path d="M354.07 203.25L354.71 207.1M354.71 207.1L357.28 210.31M357.28 210.31L360.49 212.88M360.49 212.88L364.34 213.52"/>
<path d="M364.34 191.05L360.49 191.69M360.49 191.69L357.28 194.26M357.28 194.26L354.71 197.47M354.71 197.47L354.07 201.96"/>
<path d="M442.02 201.96L441.38 197.47M441.38 197.47L438.81 194.26M438.81 194.26L435.6 191.69M435.6 191.69L431.75 191.05"/>
<path d="M334.81 213.52L338.66 212.88M338.66 212.88L342.51 210.31M342.51 210.31L345.08 207.1M345.08 207.1L345.08 203.25"/>
<path d="M345.08 201.96L345.08 197.47M345.08 197.47L342.51 194.26M342.51 194.26L338.66 191.69M338.66 191.69L334.81 191.05"/>
<path d="M425.33 311.1L427.25 310.46M427.25 310.46L429.18 309.18M429.18 309.18L429.18 307.25"/>
<path d="M394.51 332.93L394.51 334.85M394.51 334.85L395.8 336.78M395.8 336.78L398.37 337.42"/>
<path d="M425.33 315.6L428.54 314.95M428.54 314.95L431.11 313.03M431.11 313.03L433.03 310.46M433.03 310.46L433.67 307.25"/>
<path d="M244.29 201.96L243 198.75M243 198.75L241.08 196.19M241.08 196.19L237.23 194.9"/>
<path d="M237.23 209.67L241.08 208.38M241.08 208.38L243 206.46M243 206.46L244.29 203.25"/>
<path d="M164.68 203.25L165.32 206.46M165.32 206.46L167.89 208.38M167.89 208.38L171.1 209.67"/>
<path d="M171.1 194.9L167.89 196.19M167.89 196.19L165.32 198.75M165.32 198.75L164.68 201.96"/>
<path d="M260.98 203.25L262.26 206.46M262.26 206.46L264.19 208.38M264.19 208.38L267.4 209.67"/>
<path d="M267.4 194.9L264.19 196.19M264.19 196.19L262.26 198.75M262.26 198.75L260.98 201.96"/>
<path d="M257.13 203.25L257.77 207.1M257.77 207.1L260.34 210.31M260.34 210.31L263.55 212.88M263.55 212.88L267.4 213.52"/>
<path d="M267.4 191.05L263.55 191.69M263.55 191.69L260.34 194.26M260.34 194.26L257.77 197.47M257.77 197.47L257.13 201.96"/>
<path d="M237.23 213.52L241.72 212.88M241.72 212.88L245.57 210.31M245.57 210.31L247.5 207.1M247.5 207.1L248.14 203.25"/>
<path d="M160.19 203.25L160.83 207.1M160.83 207.1L163.4 210.31M163.4 210.31L166.61 212.88M166.61 212.88L171.1 213.52"/>
<path d="M171.1 191.05L166.61 191.69M166.61 191.69L163.4 194.26M163.4 194.26L160.83 197.47M160.83 197.47L160.19 201.96"/>
<path d="M248.14 201.96L247.5 197.47M247.5 197.47L245.57 194.26M245.57 194.26L241.72 191.69M241.72 191.69L237.23 191.05"/>
<path d="M173.03 307.25L173.03 309.18M173.03 309.18L174.95 310.46M174.95 310.46L176.88 311.1"/>
<path d="M203.84 337.42L206.41 336.78M206.41 336.78L207.69 334.85M207.69 334.85L207.69 332.93"/>
<path d="M168.53 307.25L169.18 310.46M169.18 310.46L171.1 313.03M171.1 313.03L173.67 314.95M173.67 314.95L176.88 315.6"/>
<path d="M486.96 337.42L495.31 328.43"/>
<path d="M514.57 180.78L514.57 223.79"/>
<path d="M495.31 341.27L495.31 63.94"/>
<path d="M485.03 125.57L495.31 135.84"/>
<path d="M486.96 280.29L495.31 271.94"/>
<path d="M486.96 277.72L495.31 268.73"/>
<path d="M486.96 135.84L486.96 264.88M486.96 264.88L483.75 268.73"/>
<path d="M486.96 332.93L486.96 281.57"/>
<path d="M483.11 248.83L483.11 155.74"/>
<path d="M474.12 240.48L474.12 164.73"/>
<path d="M458.07 226.36L458.07 240.48"/>
<path d="M458.07 164.73L458.07 178.21"/>
<path d="M483.75 268.73L486.96 277.72"/>
<path d="M106.9 63.94L495.31 63.94"/>
<path d="M455.5 187.2L455.5 218.01"/>
<path d="M452.93 164.73L452.93 140.97"/>
<path d="M452.93 264.24L452.93 240.48"/>
<path d="M450.37 264.24L450.37 254.61"/>
<path d="M446.51 190.41L446.51 214.8"/>
<path d="M446.51 107.59L446.51 127.49"/>
<path d="M442.02 201.96L442.02 203.25"/>
<path d="M446.51 226.36L442.66 218.01"/>
<path d="M435.6 164.73L431.75 160.23"/>
<path d="M106.9 76.13L495.31 76.13"/>
<path d="M435.6 240.48L431.75 244.33"/>
<path d="M446.51 178.21L442.66 187.2"/>
<path d="M438.17 201.96L438.17 203.25"/>
<path d="M434.96 341.27L434.96 337.42"/>
<path d="M433.67 281.57L433.67 307.25"/>
<path d="M433.67 140.97L433.67 149.96"/>
<path d="M431.75 164.73L431.75 140.97"/>
<path d="M431.75 213.52L431.75 209.67"/>
<path d="M431.75 240.48L431.75 264.24"/>
<path d="M431.75 191.05L431.75 194.9"/>
<path d="M429.18 277.72L429.18 307.25"/>
<path d="M425.33 315.6L425.33 311.1"/>
<path d="M425.33 107.59L425.33 127.49"/>
<path d="M455.5 187.2L446.51 178.21"/>
<path d="M446.51 190.41L442.66 187.2"/>
<path d="M446.51 226.36L455.5 218.01"/>
<path d="M442.66 218.01L446.51 214.8"/>
<path d="M406.07 164.73L406.07 140.97"/>
<path d="M406.07 264.24L406.07 240.48"/>
<path d="M483.11 248.83L474.12 240.48"/>
<path d="M388.09 164.73L384.24 160.23"/>
<path d="M425.33 107.59L446.51 107.59"/>
<path d="M155.69 107.59L176.88 107.59"/>
<path d="M446.51 114.01L495.31 114.01"/>
<path d="M176.88 114.01L425.33 114.01"/>
<path d="M106.9 114.01L155.69 114.01"/>
<path d="M474.12 164.73L483.11 155.74"/>
<path d="M388.09 240.48L384.24 244.33"/>
<path d="M404.14 264.24L404.14 254.61"/>
<path d="M394.51 332.93L394.51 311.1"/>
<path d="M449.08 240.48L452.93 244.33"/>
<path d="M155.69 115.94L176.88 115.94"/>
<path d="M446.51 115.94L425.33 115.94"/>
<path d="M446.51 119.15L495.31 119.15"/>
<path d="M176.88 119.15L425.33 119.15"/>
<path d="M106.9 119.15L155.69 119.15"/>
<path d="M446.51 125.57L495.31 125.57"/>
<path d="M176.88 125.57L425.33 125.57"/>
<path d="M106.9 125.57L155.69 125.57"/>
<path d="M486.96 127.49L495.31 127.49"/>
<path d="M106.9 127.49L115.25 127.49"/>
<path d="M486.96 127.49L115.25 127.49"/>
<path d="M486.96 135.84L491.45 131.99"/>
<path d="M449.08 164.73L452.93 160.23"/>
<path d="M356.64 320.73L354.07 330.36"/>
<path d="M368.19 277.72L368.19 279"/>
<path d="M386.81 140.97L386.81 149.96"/>
<path d="M384.24 164.73L384.24 140.97"/>
<path d="M384.24 240.48L384.24 264.24"/>
<path d="M341.23 164.73L337.38 160.23"/>
<path d="M486.96 135.84L115.25 135.84"/>
<path d="M431.75 140.97L452.93 140.97"/>
<path d="M384.24 140.97L406.07 140.97"/>
<path d="M337.38 140.97L358.56 140.97"/>
<path d="M290.51 140.97L311.7 140.97"/>
<path d="M243.65 140.97L264.83 140.97"/>
<path d="M196.14 140.97L217.97 140.97"/>
<path d="M149.27 140.97L171.1 140.97"/>
<path d="M341.23 240.48L337.38 244.33"/>
<path d="M364.34 213.52L364.34 209.67"/>
<path d="M364.34 191.05L364.34 194.9"/>
<path d="M358.56 164.73L358.56 140.97"/>
<path d="M358.56 264.24L358.56 240.48"/>
<path d="M357.92 203.25L357.92 201.96"/>
<path d="M356.64 264.24L356.64 254.61"/>
<path d="M402.22 240.48L406.07 244.33"/>
<path d="M455.5 218.01L446.51 214.8"/>
<path d="M171.1 149.96L151.84 149.96"/>
<path d="M217.97 149.96L198.71 149.96"/>
<path d="M264.83 149.96L245.57 149.96"/>
<path d="M311.7 149.96L292.44 149.96"/>
<path d="M358.56 149.96L339.94 149.96"/>
<path d="M406.07 149.96L386.81 149.96"/>
<path d="M452.93 149.96L433.67 149.96"/>
<path d="M171.1 151.25L149.27 151.25"/>
<path d="M217.97 151.25L196.14 151.25"/>
<path d="M264.83 151.25L243.65 151.25"/>
<path d="M311.7 151.25L290.51 151.25"/>
<path d="M358.56 151.25L337.38 151.25"/>
<path d="M406.07 151.25L384.24 151.25"/>
<path d="M452.93 151.25L431.75 151.25"/>
<path d="M452.93 155.74L483.11 155.74"/>
<path d="M406.07 155.74L431.75 155.74"/>
<path d="M358.56 155.74L384.24 155.74"/>
<path d="M311.7 155.74L337.38 155.74"/>
<path d="M264.83 155.74L290.51 155.74"/>
<path d="M217.97 155.74L243.65 155.74"/>
<path d="M171.1 155.74L196.14 155.74"/>
<path d="M119.74 155.74L149.27 155.74"/>
<path d="M171.1 158.31L149.27 158.31"/>
<path d="M217.97 158.31L196.14 158.31"/>
<path d="M264.83 158.31L243.65 158.31"/>
<path d="M311.7 158.31L290.51 158.31"/>
<path d="M358.56 158.31L337.38 158.31"/>
<path d="M406.07 158.31L384.24 158.31"/>
<path d="M452.93 158.31L431.75 158.31"/>
<path d="M128.09 164.73L474.12 164.73"/>
<path d="M455.5 187.2L446.51 190.41"/>
<path d="M402.22 164.73L406.07 160.23"/>
<path d="M354.07 203.25L354.07 201.96"/>
<path d="M345.08 201.96L345.08 203.25"/>
<path d="M341.23 201.96L341.23 203.25"/>
<path d="M339.94 140.97L339.94 149.96"/>
<path d="M338.66 287.99L338.66 277.72"/>
<path d="M337.38 164.73L337.38 140.97"/>
<path d="M337.38 240.48L337.38 264.24"/>
<path d="M294.36 164.73L290.51 160.23"/>
<path d="M155.69 178.21L144.14 178.21"/>
<path d="M446.51 178.21L155.69 178.21"/>
<path d="M458.07 178.21L446.51 178.21"/>
<path d="M87 180.78L106.9 180.78"/>
<path d="M514.57 180.78L495.31 180.78"/>
<path d="M294.36 240.48L290.51 244.33"/>
<path d="M334.81 213.52L334.81 209.67"/>
<path d="M334.81 191.05L334.81 194.9"/>
<path d="M354.71 240.48L358.56 244.33"/>
<path d="M495.31 268.73L486.96 264.88"/>
<path d="M442.66 187.2L159.55 187.2"/>
<path d="M364.34 191.05L431.75 191.05"/>
<path d="M267.4 191.05L334.81 191.05"/>
<path d="M171.1 191.05L237.23 191.05"/>
<path d="M364.34 194.9L431.75 194.9"/>
<path d="M267.4 194.9L334.81 194.9"/>
<path d="M171.1 194.9L237.23 194.9"/>
<path d="M354.71 164.73L358.56 160.23"/>
<path d="M311.7 164.73L311.7 140.97"/>
<path d="M311.7 264.24L311.7 240.48"/>
<path d="M309.77 264.24L309.77 254.61"/>
<path d="M247.5 164.73L243.65 160.23"/>
<path d="M257.13 201.96L260.98 201.96"/>
<path d="M160.19 201.96L164.68 201.96"/>
<path d="M248.14 201.96L244.29 201.96"/>
<path d="M345.08 201.96L341.23 201.96"/>
<path d="M442.02 201.96L438.17 201.96"/>
<path d="M354.07 201.96L357.92 201.96"/>
<path d="M248.14 203.25L244.29 203.25"/>
<path d="M354.07 203.25L357.92 203.25"/>
<path d="M257.13 203.25L260.98 203.25"/>
<path d="M160.19 203.25L164.68 203.25"/>
<path d="M345.08 203.25L341.23 203.25"/>
<path d="M442.02 203.25L438.17 203.25"/>
<path d="M237.23 209.67L171.1 209.67"/>
<path d="M334.81 209.67L267.4 209.67"/>
<path d="M431.75 209.67L364.34 209.67"/>
<path d="M237.23 213.52L171.1 213.52"/>
<path d="M334.81 213.52L267.4 213.52"/>
<path d="M431.75 213.52L364.34 213.52"/>
<path d="M247.5 240.48L243.65 244.33"/>
<path d="M292.44 140.97L292.44 149.96"/>
<path d="M290.51 164.73L290.51 140.97"/>
<path d="M290.51 240.48L290.51 264.24"/>
<path d="M307.84 240.48L311.7 244.33"/>
<path d="M442.66 218.01L159.55 218.01"/>
<path d="M87 223.79L106.9 223.79"/>
<path d="M514.57 223.79L495.31 223.79"/>
<path d="M458.07 226.36L144.14 226.36"/>
<path d="M307.84 164.73L311.7 160.23"/>
<path d="M199.99 164.73L196.14 160.23"/>
<path d="M147.35 187.2L155.69 190.41"/>
<path d="M149.27 240.48L128.09 240.48"/>
<path d="M171.1 240.48L149.27 240.48"/>
<path d="M196.14 240.48L171.1 240.48"/>
<path d="M217.97 240.48L196.14 240.48"/>
<path d="M243.65 240.48L217.97 240.48"/>
<path d="M264.83 240.48L243.65 240.48"/>
<path d="M290.51 240.48L264.83 240.48"/>
<path d="M311.7 240.48L290.51 240.48"/>
<path d="M337.38 240.48L311.7 240.48"/>
<path d="M358.56 240.48L337.38 240.48"/>
<path d="M384.24 240.48L358.56 240.48"/>
<path d="M406.07 240.48L384.24 240.48"/>
<path d="M431.75 240.48L406.07 240.48"/>
<path d="M452.93 240.48L431.75 240.48"/>
<path d="M474.12 240.48L452.93 240.48"/>
<path d="M431.75 246.26L452.93 246.26"/>
<path d="M384.24 246.26L406.07 246.26"/>
<path d="M337.38 246.26L358.56 246.26"/>
<path d="M290.51 246.26L311.7 246.26"/>
<path d="M243.65 246.26L264.83 246.26"/>
<path d="M196.14 246.26L217.97 246.26"/>
<path d="M149.27 246.26L171.1 246.26"/>
<path d="M149.27 248.83L119.74 248.83"/>
<path d="M196.14 248.83L171.1 248.83"/>
<path d="M243.65 248.83L217.97 248.83"/>
<path d="M290.51 248.83L264.83 248.83"/>
<path d="M337.38 248.83L311.7 248.83"/>
<path d="M384.24 248.83L358.56 248.83"/>
<path d="M431.75 248.83L406.07 248.83"/>
<path d="M483.11 248.83L452.93 248.83"/>
<path d="M147.35 218.01L155.69 214.8"/>
<path d="M199.99 240.48L196.14 244.33"/>
<path d="M267.4 213.52L267.4 209.67"/>
<path d="M267.4 191.05L267.4 194.9"/>
<path d="M264.83 164.73L264.83 140.97"/>
<path d="M264.83 264.24L264.83 240.48"/>
<path d="M264.19 287.99L264.19 277.72"/>
<path d="M262.26 264.24L262.26 254.61"/>
<path d="M260.98 203.25L260.98 201.96"/>
<path d="M257.13 203.25L257.13 201.96"/>
<path d="M260.98 240.48L264.83 244.33"/>
<path d="M431.75 253.96L452.93 253.96"/>
<path d="M384.24 253.96L406.07 253.96"/>
<path d="M337.38 253.96L358.56 253.96"/>
<path d="M290.51 253.96L311.7 253.96"/>
<path d="M243.65 253.96L264.83 253.96"/>
<path d="M196.14 253.96L217.97 253.96"/>
<path d="M149.27 253.96L171.1 253.96"/>
<path d="M431.75 254.61L450.37 254.61"/>
<path d="M384.24 254.61L404.14 254.61"/>
<path d="M337.38 254.61L356.64 254.61"/>
<path d="M290.51 254.61L309.77 254.61"/>
<path d="M243.65 254.61L262.26 254.61"/>
<path d="M196.14 254.61L216.04 254.61"/>
<path d="M149.27 254.61L168.53 254.61"/>
<path d="M171.1 264.24L149.27 264.24"/>
<path d="M217.97 264.24L196.14 264.24"/>
<path d="M264.83 264.24L243.65 264.24"/>
<path d="M311.7 264.24L290.51 264.24"/>
<path d="M358.56 264.24L337.38 264.24"/>
<path d="M406.07 264.24L384.24 264.24"/>
<path d="M452.93 264.24L431.75 264.24"/>
<path d="M260.98 164.73L264.83 160.23"/>
<path d="M248.14 201.96L248.14 203.25"/>
<path d="M245.57 140.97L245.57 149.96"/>
<path d="M244.29 201.96L244.29 203.25"/>
<path d="M243.65 164.73L243.65 140.97"/>
<path d="M243.65 240.48L243.65 264.24"/>
<path d="M237.23 213.52L237.23 209.67"/>
<path d="M237.23 191.05L237.23 194.9"/>
<path d="M153.13 164.73L149.27 160.23"/>
<path d="M115.25 268.73L483.75 268.73"/>
<path d="M115.25 277.72L486.96 277.72"/>
<path d="M338.66 279L429.18 279"/>
<path d="M173.03 279L264.19 279"/>
<path d="M433.67 281.57L486.96 281.57"/>
<path d="M115.25 281.57L168.53 281.57"/>
<path d="M153.13 240.48L149.27 244.33"/>
<path d="M245.57 320.73L248.14 330.36"/>
<path d="M234.02 277.72L234.02 279"/>
<path d="M110.75 131.99L115.25 135.84"/>
<path d="M214.11 240.48L217.97 244.33"/>
<path d="M119.74 155.74L128.09 164.73"/>
<path d="M338.66 286.06L429.18 286.06"/>
<path d="M173.03 286.06L264.19 286.06"/>
<path d="M264.19 287.99L338.66 287.99"/>
<path d="M173.03 291.2L429.18 291.2"/>
<path d="M115.25 268.73L110.75 272.58"/>
<path d="M214.11 164.73L217.97 160.23"/>
<path d="M128.09 240.48L119.74 248.83"/>
<path d="M217.97 164.73L217.97 140.97"/>
<path d="M217.97 264.24L217.97 240.48"/>
<path d="M216.04 264.24L216.04 254.61"/>
<path d="M207.69 332.93L207.69 311.1"/>
<path d="M155.69 214.8L159.55 218.01"/>
<path d="M168.53 307.25L173.03 307.25"/>
<path d="M433.67 307.25L429.18 307.25"/>
<path d="M207.69 311.1L176.88 311.1"/>
<path d="M425.33 311.1L394.51 311.1"/>
<path d="M207.69 315.6L176.88 315.6"/>
<path d="M207.69 315.6L425.33 315.6"/>
<path d="M159.55 187.2L155.69 190.41"/>
<path d="M198.71 140.97L198.71 149.96"/>
<path d="M196.14 164.73L196.14 140.97"/>
<path d="M196.14 240.48L196.14 264.24"/>
<path d="M155.69 178.21L159.55 187.2"/>
<path d="M147.35 218.01L155.69 226.36"/>
<path d="M166.61 240.48L171.1 244.33"/>
<path d="M394.51 320.73L207.69 320.73"/>
<path d="M354.07 330.36L248.14 330.36"/>
<path d="M207.69 332.93L115.25 332.93"/>
<path d="M486.96 332.93L394.51 332.93"/>
<path d="M155.69 178.21L147.35 187.2"/>
<path d="M166.61 164.73L171.1 160.23"/>
<path d="M155.69 226.36L159.55 218.01"/>
<path d="M176.88 315.6L176.88 311.1"/>
<path d="M176.88 107.59L176.88 127.49"/>
<path d="M173.03 307.25L173.03 277.72"/>
<path d="M171.1 164.73L171.1 140.97"/>
<path d="M171.1 213.52L171.1 209.67"/>
<path d="M171.1 264.24L171.1 240.48"/>
<path d="M171.1 191.05L171.1 194.9"/>
<path d="M168.53 264.24L168.53 254.61"/>
<path d="M168.53 307.25L168.53 281.57"/>
<path d="M167.89 341.27L167.89 337.42"/>
<path d="M203.84 337.42L115.25 337.42"/>
<path d="M486.96 337.42L398.37 337.42"/>
<path d="M434.96 341.27L495.31 341.27"/>
<path d="M106.9 341.27L167.89 341.27"/>
<path d="M164.68 203.25L164.68 201.96"/>
<path d="M160.19 203.25L160.19 201.96"/>
<path d="M155.69 214.8L155.69 190.41"/>
<path d="M155.69 107.59L155.69 127.49"/>
<path d="M151.84 140.97L151.84 149.96"/>
<path d="M149.27 164.73L149.27 140.97"/>
<path d="M149.27 240.48L149.27 264.24"/>
<path d="M147.35 218.01L147.35 187.2"/>
<path d="M144.14 226.36L144.14 240.48"/>
<path d="M144.14 164.73L144.14 178.21"/>
<path d="M115.25 277.72L106.9 268.73"/>
<path d="M106.9 135.84L117.17 125.57"/>
<path d="M128.09 164.73L128.09 240.48"/>
<path d="M119.74 155.74L119.74 248.83"/>
<path d="M106.9 271.94L115.25 280.29"/>
<path d="M115.25 281.57L115.25 332.93"/>
<path d="M115.25 135.84L115.25 268.73"/>
<path d="M106.9 341.27L106.9 63.94"/>
<path d="M87 180.78L87 223.79"/>
<path d="M106.9 328.43L115.25 337.42"/>
</g>
</g>
</svg>
