<?xml version="1.0" standalone="no"?><svg xmlns="http://www.w3.org/2000/svg" width="600.000" height="450.000" viewBox="0.0 0.0 600.000 450.000" version="1.1">
<title>Acme Converter - Post-processed with EDS-Designer: 14.44 (info@symca.com)</title>
<desc>Acme Converter - Post-processed with EDS-Designer: 14.44 (info@symca.com)</desc>
<g id="EDS_STYLE_GROUP" fill="none" stroke="black" stroke-width="1.0">
<g id="0" display="visible">
<path d="M266.92 355.94L268.03 359.26M268.03 359.26L268.03 352.61M268.03 352.61L266.92 355.94M266.92 355.94L264.71 353.72M264.71 353.72L261.38 352.61M261.38 352.61L259.17 352.61M259.17 352.61L255.84 353.72M255.84 353.72L253.62 355.94M253.62 355.94L252.52 358.16M252.52 358.16L251.41 361.48M251.41 361.48L251.41 367.02M251.41 367.02L252.52 370.35M252.52 370.35L253.62 372.56M253.62 372.56L255.84 374.78M255.84 374.78L259.17 375.89M259.17 375.89L261.38 375.89M261.38 375.89L264.71 374.78M264.71 374.78L266.92 372.56M259.17 352.61L256.95 353.72M256.95 353.72L254.73 355.94M254.73 355.94L253.62 358.16M253.62 358.16L252.52 361.48M252.52 361.48L252.52 367.02M252.52 367.02L253.62 370.35M253.62 370.35L254.73 372.56M254.73 372.56L256.95 374.78M256.95 374.78L259.17 375.89M266.92 367.02L266.92 375.89M268.03 367.02L268.03 375.89M263.6 367.02L271.36 367.02M280.22 375.89L280.22 352.61M281.33 352.61L281.33 375.89M276.9 352.61L290.2 352.61M290.2 352.61L293.52 353.72M293.52 353.72L294.63 354.83M294.63 354.83L295.74 357.05M295.74 357.05L295.74 359.26M295.74 359.26L294.63 361.48M294.63 361.48L293.52 362.59M293.52 362.59L290.2 363.7M290.2 363.7L281.33 363.7M290.2 352.61L292.42 353.72M292.42 353.72L293.52 354.83M293.52 354.83L294.63 357.05M294.63 357.05L294.63 359.26M294.63 359.26L293.52 361.48M293.52 361.48L292.42 362.59M292.42 362.59L290.2 363.7M276.9 375.89L284.66 375.89M286.87 363.7L289.09 364.81M289.09 364.81L290.2 365.91M290.2 365.91L293.52 373.67M293.52 373.67L294.63 374.78M294.63 374.78L295.74 374.78M295.74 374.78L296.85 373.67M289.09 364.81L290.2 367.02M290.2 367.02L292.42 374.78M292.42 374.78L293.52 375.89M293.52 375.89L295.74 375.89M295.74 375.89L296.85 373.67M296.85 373.67L296.85 372.56M311.26 352.61L303.5 375.89M311.26 352.61L319.02 375.89M311.26 355.94L317.91 375.89M305.72 369.24L315.69 369.24M301.28 375.89L307.93 375.89M314.58 375.89L321.23 375.89M326.77 352.61L334.53 364.81M334.53 364.81L334.53 375.89M327.88 352.61L335.64 364.81M335.64 364.81L335.64 375.89M343.4 352.61L335.64 364.81M324.56 352.61L331.21 352.61M338.97 352.61L345.62 352.61M331.21 375.89L338.97 375.89"/>
<path d="M571.67 134.25L573.44 133.37M573.44 133.37L576.1 130.71M576.1 130.71L576.1 149.33"/>
<path d="M4.14 194.62L5.92 193.74M5.92 193.74L8.58 191.08M8.58 191.08L8.58 209.7M19.22 195.51L19.22 194.62M19.22 194.62L20.1 192.85M20.1 192.85L20.99 191.96M20.99 191.96L22.76 191.08M22.76 191.08L26.31 191.08M26.31 191.08L28.08 191.96M28.08 191.96L28.97 192.85M28.97 192.85L29.86 194.62M29.86 194.62L29.86 196.4M29.86 196.4L28.97 198.17M28.97 198.17L27.2 200.83M27.2 200.83L18.33 209.7M18.33 209.7L30.74 209.7"/>
<path d="M571.47 218.34L573.25 217.45M573.25 217.45L575.91 214.79M575.91 214.79L575.91 233.41M587.43 214.79L597.19 214.79M597.19 214.79L591.87 221.89M591.87 221.89L594.53 221.89M594.53 221.89L596.3 222.77M596.3 222.77L597.19 223.66M597.19 223.66L598.07 226.32M598.07 226.32L598.07 228.09M598.07 228.09L597.19 230.75M597.19 230.75L595.41 232.53M595.41 232.53L592.75 233.41M592.75 233.41L590.09 233.41M590.09 233.41L587.43 232.53M587.43 232.53L586.55 231.64M586.55 231.64L585.66 229.87"/>
<path d="M2.81 231.4L2.81 230.51M2.81 230.51L3.7 228.74M3.7 228.74L4.59 227.85M4.59 227.85L6.36 226.97M6.36 226.97L9.91 226.97M9.91 226.97L11.68 227.85M11.68 227.85L12.57 228.74M12.57 228.74L13.45 230.51M13.45 230.51L13.45 232.29M13.45 232.29L12.57 234.06M12.57 234.06L10.79 236.72M10.79 236.72L1.93 245.59M1.93 245.59L14.34 245.59M28.53 226.97L19.66 239.38M19.66 239.38L32.96 239.38M28.53 226.97L28.53 245.59"/>
<path d="M44.65 118.31L44.65 171.61"/>
<path d="M44.65 319.48L44.65 274.94"/>
<path d="M45.75 282.24L45.75 171.61"/>
<path d="M48.31 273.11L48.31 285.89"/>
<path d="M48.31 161.76L48.31 150.44"/>
<path d="M49.4 176.36L49.4 187.31"/>
<path d="M49.4 200.09L49.4 245.73"/>
<path d="M49.4 258.14L49.4 269.46"/>
<path d="M50.86 118.31L50.86 150.44"/>
<path d="M50.86 304.51L50.86 319.48"/>
<path d="M54.51 323.13L54.51 329.34"/>
<path d="M54.51 114.66L54.51 108.09"/>
<path d="M57.43 187.31L57.43 200.09"/>
<path d="M57.43 245.73L57.43 258.14"/>
<path d="M57.43 282.24L57.43 273.11"/>
<path d="M57.43 172.71L57.43 167.23"/>
<path d="M59.99 169.79L59.99 184.76"/>
<path d="M59.99 249.38L59.99 263.99"/>
<path d="M61.08 169.79L61.08 163.58"/>
<path d="M62.18 273.11L62.18 274.94"/>
<path d="M62.18 163.58L62.18 161.76"/>
<path d="M64.73 300.5L64.73 285.89"/>
<path d="M65.83 220.17L65.83 247.56"/>
<path d="M65.83 216.16L65.83 188.77"/>
<path d="M69.85 161.76L69.85 163.58"/>
<path d="M69.85 274.94L69.85 273.11"/>
<path d="M91.39 249.02L91.39 253.4"/>
<path d="M74.23 237.7L74.23 199"/>
<path d="M74.96 263.99L74.96 249.38"/>
<path d="M74.96 184.76L74.96 169.79"/>
<path d="M76.42 229.3L76.42 207.03"/>
<path d="M77.15 161.76L77.15 163.58"/>
<path d="M77.15 274.94L77.15 273.11"/>
<path d="M78.97 257.78L78.97 249.02"/>
<path d="M78.97 187.68L78.97 178.55"/>
<path d="M81.16 257.78L81.16 249.02"/>
<path d="M81.16 187.68L81.16 178.55"/>
<path d="M82.62 174.9L82.62 177.46"/>
<path d="M82.62 261.43L82.62 258.87"/>
<path d="M84.45 161.76L84.45 163.58"/>
<path d="M84.45 274.94L84.45 273.11"/>
<path d="M87.01 253.76L87.01 249.02"/>
<path d="M87.01 187.68L87.01 182.93"/>
<path d="M87.01 236.6L87.01 231.49"/>
<path d="M87.01 204.84L87.01 199.73"/>
<path d="M88.1 184.76L88.1 182.57"/>
<path d="M88.1 251.57L88.1 253.76"/>
<path d="M90.66 185.12L90.66 182.57"/>
<path d="M91.39 174.9L91.39 177.46"/>
<path d="M91.39 261.43L91.39 258.87"/>
<path d="M91.39 238.79L91.39 236.6"/>
<path d="M91.39 199.73L91.39 197.54"/>
<path d="M91.39 161.76L91.39 163.58"/>
<path d="M91.39 182.57L91.39 183.3"/>
<path d="M91.39 274.94L91.39 273.11"/>
<path d="M91.39 253.76L91.39 253.4"/>
<path d="M92.48 178.55L92.48 187.68"/>
<path d="M92.48 249.02L92.48 257.78"/>
<path d="M91.39 187.68L91.39 183.3"/>
<path d="M88.1 185.12L87.37 187.68"/>
<path d="M88.1 251.57L87.37 249.02"/>
<path d="M95.04 178.55L95.04 187.68"/>
<path d="M95.04 249.02L95.04 257.78"/>
<path d="M95.77 238.79L95.77 247.56"/>
<path d="M95.77 197.54L95.77 188.77"/>
<path d="M96.13 199.73L96.13 216.16"/>
<path d="M96.13 236.6L96.13 220.54"/>
<path d="M96.86 199.73L96.86 216.16"/>
<path d="M96.86 236.6L96.86 220.54"/>
<path d="M97.23 238.79L97.23 247.56"/>
<path d="M97.23 197.54L97.23 188.77"/>
<path d="M101.61 161.76L101.61 163.58"/>
<path d="M101.61 274.94L101.61 273.11"/>
<path d="M101.61 197.54L101.61 199.73"/>
<path d="M101.61 236.6L101.61 238.79"/>
<path d="M105.99 199.73L105.99 204.84"/>
<path d="M105.99 231.49L105.99 236.6"/>
<path d="M108.55 161.76L108.55 163.58"/>
<path d="M108.55 274.94L108.55 273.11"/>
<path d="M110.37 257.78L110.37 249.02"/>
<path d="M110.37 187.68L110.37 178.55"/>
<path d="M122.79 249.02L122.79 253.4"/>
<path d="M112.93 257.78L112.93 249.02"/>
<path d="M112.93 187.68L112.93 178.55"/>
<path d="M114.02 174.9L114.02 177.46"/>
<path d="M114.02 261.43L114.02 258.87"/>
<path d="M115.85 161.76L115.85 163.58"/>
<path d="M115.85 274.94L115.85 273.11"/>
<path d="M118.4 253.76L118.4 249.02"/>
<path d="M118.4 187.68L118.4 182.93"/>
<path d="M118.4 236.6L118.4 231.49"/>
<path d="M118.4 204.84L118.4 199.73"/>
<path d="M119.5 184.76L119.5 182.57"/>
<path d="M119.5 251.57L119.5 253.76"/>
<path d="M122.42 185.12L122.42 182.57"/>
<path d="M122.79 174.9L122.79 177.46"/>
<path d="M122.79 261.43L122.79 258.87"/>
<path d="M122.79 238.79L122.79 236.6"/>
<path d="M122.79 199.73L122.79 197.54"/>
<path d="M123.15 161.76L123.15 163.58"/>
<path d="M123.15 182.57L123.15 183.3"/>
<path d="M123.15 274.94L123.15 273.11"/>
<path d="M123.15 253.76L123.15 253.4"/>
<path d="M124.25 178.55L124.25 187.68"/>
<path d="M124.25 249.02L124.25 257.78"/>
<path d="M126.44 178.55L126.44 187.68"/>
<path d="M126.44 249.02L126.44 257.78"/>
<path d="M127.17 238.79L127.17 247.56"/>
<path d="M127.17 197.54L127.17 188.77"/>
<path d="M127.53 199.73L127.53 216.16"/>
<path d="M127.53 236.6L127.53 220.54"/>
<path d="M128.63 199.73L128.63 216.16"/>
<path d="M128.63 236.6L128.63 220.54"/>
<path d="M128.99 238.79L128.99 247.56"/>
<path d="M128.99 197.54L128.99 188.77"/>
<path d="M122.79 187.68L122.79 183.3"/>
<path d="M119.5 185.12L119.14 187.68"/>
<path d="M87.01 238.79L95.77 247.56"/>
<path d="M74.23 229.3L65.83 220.17"/>
<path d="M119.5 251.57L119.14 249.02"/>
<path d="M133.01 161.76L133.01 163.58"/>
<path d="M133.01 274.94L133.01 273.11"/>
<path d="M133.37 197.54L133.37 199.73"/>
<path d="M133.37 236.6L133.37 238.79"/>
<path d="M137.39 199.73L137.39 204.84"/>
<path d="M137.39 231.49L137.39 236.6"/>
<path d="M139.95 161.76L139.95 163.58"/>
<path d="M139.95 274.94L139.95 273.11"/>
<path d="M142.14 257.78L142.14 249.02"/>
<path d="M142.14 187.68L142.14 178.55"/>
<path d="M144.33 257.78L144.33 249.02"/>
<path d="M144.33 187.68L144.33 178.55"/>
<path d="M145.79 174.9L145.79 177.46"/>
<path d="M145.79 261.43L145.79 258.87"/>
<path d="M147.61 161.76L147.61 163.58"/>
<path d="M147.61 274.94L147.61 273.11"/>
<path d="M65.83 216.16L74.23 207.39"/>
<path d="M87.01 197.54L95.77 188.77"/>
<path d="M106.72 230.03L96.86 220.54"/>
<path d="M86.28 206.66L96.13 216.16"/>
<path d="M74.59 197.9L65.83 188.77"/>
<path d="M118.4 238.79L127.17 247.56"/>
<path d="M151.26 251.57L150.53 249.02"/>
<path d="M154.19 249.02L154.19 253.4"/>
<path d="M150.17 253.76L150.17 249.02"/>
<path d="M150.17 187.68L150.17 182.93"/>
<path d="M150.17 236.6L150.17 231.49"/>
<path d="M150.17 204.84L150.17 199.73"/>
<path d="M151.26 184.76L151.26 182.57"/>
<path d="M151.26 251.57L151.26 253.76"/>
<path d="M153.82 185.12L153.82 182.57"/>
<path d="M154.19 174.9L154.19 177.46"/>
<path d="M154.19 261.43L154.19 258.87"/>
<path d="M154.19 238.79L154.19 236.6"/>
<path d="M154.19 199.73L154.19 197.54"/>
<path d="M154.55 161.76L154.55 163.58"/>
<path d="M154.55 182.57L154.55 183.3"/>
<path d="M154.55 274.94L154.55 273.11"/>
<path d="M154.55 253.76L154.55 253.4"/>
<path d="M155.65 178.55L155.65 187.68"/>
<path d="M155.65 249.02L155.65 257.78"/>
<path d="M157.84 178.55L157.84 187.68"/>
<path d="M157.84 249.02L157.84 257.78"/>
<path d="M158.93 238.79L158.93 247.56"/>
<path d="M158.93 197.54L158.93 188.77"/>
<path d="M158.93 199.73L158.93 216.16"/>
<path d="M158.93 236.6L158.93 220.54"/>
<path d="M160.03 199.73L160.03 216.16"/>
<path d="M160.03 236.6L160.03 220.54"/>
<path d="M160.39 238.79L160.39 247.56"/>
<path d="M160.39 197.54L160.39 188.77"/>
<path d="M164.41 161.76L164.41 163.58"/>
<path d="M164.41 274.94L164.41 273.11"/>
<path d="M164.77 197.54L164.77 199.73"/>
<path d="M164.77 236.6L164.77 238.79"/>
<path d="M154.19 187.68L154.19 183.3"/>
<path d="M151.26 185.12L150.53 187.68"/>
<path d="M74.59 238.43L65.83 247.56"/>
<path d="M118.4 197.54L127.17 188.77"/>
<path d="M215.52 90.93L206.76 99.69"/>
<path d="M106.72 206.66L96.86 216.16"/>
<path d="M138.12 230.03L128.63 220.54"/>
<path d="M117.67 206.66L127.53 216.16"/>
<path d="M105.99 197.54L97.23 188.77"/>
<path d="M150.17 238.79L158.93 247.56"/>
<path d="M185.95 249.02L185.95 253.4"/>
<path d="M169.15 199.73L169.15 204.84"/>
<path d="M169.15 231.49L169.15 236.6"/>
<path d="M170.98 285.89L170.98 307.07"/>
<path d="M171.71 161.76L171.71 163.58"/>
<path d="M171.71 274.94L171.71 273.11"/>
<path d="M173.54 257.78L173.54 249.02"/>
<path d="M173.54 187.68L173.54 178.55"/>
<path d="M175.73 257.78L175.73 249.02"/>
<path d="M175.73 187.68L175.73 178.55"/>
<path d="M177.19 174.9L177.19 177.46"/>
<path d="M177.19 261.43L177.19 258.87"/>
<path d="M179.01 161.76L179.01 163.58"/>
<path d="M179.01 274.94L179.01 273.11"/>
<path d="M181.57 253.76L181.57 249.02"/>
<path d="M181.57 187.68L181.57 182.93"/>
<path d="M181.57 236.6L181.57 231.49"/>
<path d="M181.57 204.84L181.57 199.73"/>
<path d="M182.66 184.76L182.66 182.57"/>
<path d="M182.66 251.57L182.66 253.76"/>
<path d="M185.22 185.12L185.22 182.57"/>
<path d="M185.95 174.9L185.95 177.46"/>
<path d="M185.95 261.43L185.95 258.87"/>
<path d="M185.95 238.79L185.95 236.6"/>
<path d="M185.95 199.73L185.95 197.54"/>
<path d="M185.95 161.76L185.95 163.58"/>
<path d="M185.95 182.57L185.95 183.3"/>
<path d="M185.95 274.94L185.95 273.11"/>
<path d="M185.95 253.76L185.95 253.4"/>
<path d="M187.04 178.55L187.04 187.68"/>
<path d="M187.04 249.02L187.04 257.78"/>
<path d="M185.95 187.68L185.95 183.3"/>
<path d="M182.66 185.12L182.3 187.68"/>
<path d="M105.99 238.79L97.23 247.56"/>
<path d="M86.28 230.03L96.13 220.54"/>
<path d="M54.51 329.34L541.93 329.34"/>
<path d="M54.51 323.13L541.93 323.13"/>
<path d="M50.86 319.48L44.65 319.48"/>
<path d="M545.94 319.48L552.15 319.48"/>
<path d="M137.39 197.54L128.99 188.77"/>
<path d="M182.66 251.57L182.3 249.02"/>
<path d="M189.6 150.44L189.6 109.91"/>
<path d="M189.6 178.55L189.6 187.68"/>
<path d="M189.6 249.02L189.6 257.78"/>
<path d="M189.97 285.89L189.97 307.07"/>
<path d="M190.33 238.79L190.33 247.56"/>
<path d="M190.33 197.54L190.33 188.77"/>
<path d="M190.7 199.73L190.7 216.16"/>
<path d="M190.7 236.6L190.7 220.54"/>
<path d="M191.79 199.73L191.79 216.16"/>
<path d="M191.79 236.6L191.79 220.54"/>
<path d="M191.79 150.44L191.79 111.01"/>
<path d="M191.79 238.79L191.79 247.56"/>
<path d="M191.79 197.54L191.79 188.77"/>
<path d="M192.89 108.09L192.89 111.01"/>
<path d="M194.71 106.26L194.71 83.62"/>
<path d="M196.17 161.76L196.17 163.58"/>
<path d="M196.17 274.94L196.17 273.11"/>
<path d="M196.54 197.54L196.54 199.73"/>
<path d="M196.54 236.6L196.54 238.79"/>
<path d="M197.27 106.26L197.27 80.7"/>
<path d="M198.73 137.29L198.73 117.58"/>
<path d="M200.55 199.73L200.55 204.84"/>
<path d="M200.55 231.49L200.55 236.6"/>
<path d="M203.11 161.76L203.11 163.58"/>
<path d="M203.11 274.94L203.11 273.11"/>
<path d="M203.47 105.9L203.47 112.1"/>
<path d="M204.2 117.58L204.2 137.29"/>
<path d="M204.93 257.78L204.93 249.02"/>
<path d="M204.93 187.68L204.93 178.55"/>
<path d="M150.17 197.54L158.93 188.77"/>
<path d="M138.12 206.66L128.63 216.16"/>
<path d="M117.67 230.03L127.53 220.54"/>
<path d="M175 310.72L185.95 310.72"/>
<path d="M48.31 304.51L61.08 304.51"/>
<path d="M536.08 304.51L548.5 304.51"/>
<path d="M169.88 230.03L160.03 220.54"/>
<path d="M149.44 206.66L158.93 216.16"/>
<path d="M181.57 238.79L190.33 247.56"/>
<path d="M217.35 249.02L217.35 253.4"/>
<path d="M206.76 84.72L206.76 99.69"/>
<path d="M206.76 117.58L206.76 137.29"/>
<path d="M207.49 257.78L207.49 249.02"/>
<path d="M207.49 187.68L207.49 178.55"/>
<path d="M208.59 174.9L208.59 177.46"/>
<path d="M208.59 261.43L208.59 258.87"/>
<path d="M210.41 161.76L210.41 163.58"/>
<path d="M210.41 274.94L210.41 273.11"/>
<path d="M211.14 143.14L211.14 137.29"/>
<path d="M211.51 229.3L211.51 207.03"/>
<path d="M213.33 253.76L213.33 249.02"/>
<path d="M213.33 187.68L213.33 182.93"/>
<path d="M213.33 199L213.33 237.7"/>
<path d="M214.43 184.76L214.43 182.57"/>
<path d="M214.43 251.57L214.43 253.76"/>
<path d="M216.25 97.13L216.25 99.69"/>
<path d="M216.25 117.58L216.25 143.14"/>
<path d="M216.98 185.12L216.98 182.57"/>
<path d="M217.35 174.9L217.35 177.46"/>
<path d="M217.35 261.43L217.35 258.87"/>
<path d="M217.71 161.76L217.71 163.58"/>
<path d="M217.71 182.57L217.71 183.3"/>
<path d="M217.71 274.94L217.71 273.11"/>
<path d="M217.71 253.76L217.71 253.4"/>
<path d="M218.81 178.55L218.81 187.68"/>
<path d="M218.81 249.02L218.81 257.78"/>
<path d="M219.9 99.69L219.9 93.48"/>
<path d="M221 178.55L221 187.68"/>
<path d="M221 249.02L221 257.78"/>
<path d="M221.73 247.56L221.73 188.77"/>
<path d="M223.55 247.56L223.55 188.77"/>
<path d="M225.02 83.62L225.02 90.93"/>
<path d="M217.35 187.68L217.35 183.3"/>
<path d="M214.43 185.12L213.7 187.68"/>
<path d="M137.39 238.79L128.99 247.56"/>
<path d="M181.57 197.54L190.33 188.77"/>
<path d="M169.88 206.66L160.03 216.16"/>
<path d="M149.44 230.03L158.93 220.54"/>
<path d="M532.43 289.54L322.5 289.54"/>
<path d="M274.3 289.54L189.97 289.54"/>
<path d="M170.98 289.54L64.73 289.54"/>
<path d="M48.31 285.89L548.5 285.89"/>
<path d="M44.65 282.24L552.15 282.24"/>
<path d="M44.65 274.94L45.75 274.94"/>
<path d="M57.43 274.94L552.15 274.94"/>
<path d="M201.28 230.03L191.79 220.54"/>
<path d="M180.84 206.66L190.7 216.16"/>
<path d="M169.15 197.54L160.39 188.77"/>
<path d="M212.97 238.43L221.73 247.56"/>
<path d="M214.43 251.57L213.7 249.02"/>
<path d="M227.57 161.76L227.57 163.58"/>
<path d="M227.57 274.94L227.57 273.11"/>
<path d="M230.13 93.48L230.13 82.89"/>
<path d="M231.95 199L231.95 237.7"/>
<path d="M233.78 93.48L233.78 78.88"/>
<path d="M234.14 229.3L234.14 207.03"/>
<path d="M234.87 161.76L234.87 163.58"/>
<path d="M234.87 274.94L234.87 273.11"/>
<path d="M236.7 257.78L236.7 249.02"/>
<path d="M236.7 187.68L236.7 178.55"/>
<path d="M238.89 257.78L238.89 249.02"/>
<path d="M238.89 187.68L238.89 178.55"/>
<path d="M240.35 174.9L240.35 177.46"/>
<path d="M240.35 261.43L240.35 258.87"/>
<path d="M242.18 161.76L242.18 163.58"/>
<path d="M242.18 274.94L242.18 273.11"/>
<path d="M243.64 143.14L243.64 93.48"/>
<path d="M245.83 185.12L245.1 187.68"/>
<path d="M169.15 238.79L160.39 247.56"/>
<path d="M212.97 197.9L221.73 188.77"/>
<path d="M303.51 93.48L300.96 96.04"/>
<path d="M322.13 83.62L324.32 80.7"/>
<path d="M201.28 206.66L191.79 216.16"/>
<path d="M180.84 230.03L190.7 220.54"/>
<path d="M45.75 273.11L551.05 273.11"/>
<path d="M49.4 269.46L547.4 269.46"/>
<path d="M380.55 269.1L433.85 269.1"/>
<path d="M434.95 269.1L534.26 269.1"/>
<path d="M59.99 263.99L74.96 263.99"/>
<path d="M375.07 261.43L366.31 261.43"/>
<path d="M343.67 261.43L334.91 261.43"/>
<path d="M311.91 261.43L303.51 261.43"/>
<path d="M280.51 261.43L271.75 261.43"/>
<path d="M249.11 261.43L240.35 261.43"/>
<path d="M217.35 261.43L208.59 261.43"/>
<path d="M185.95 261.43L177.19 261.43"/>
<path d="M154.19 261.43L145.79 261.43"/>
<path d="M122.79 261.43L114.02 261.43"/>
<path d="M91.39 261.43L82.62 261.43"/>
<path d="M375.07 258.87L366.31 258.87"/>
<path d="M343.67 258.87L334.91 258.87"/>
<path d="M311.91 258.87L303.51 258.87"/>
<path d="M280.51 258.87L271.75 258.87"/>
<path d="M249.11 258.87L240.35 258.87"/>
<path d="M217.35 258.87L208.59 258.87"/>
<path d="M185.95 258.87L177.19 258.87"/>
<path d="M154.19 258.87L145.79 258.87"/>
<path d="M122.79 258.87L114.02 258.87"/>
<path d="M91.39 258.87L82.62 258.87"/>
<path d="M45.75 258.14L57.43 258.14"/>
<path d="M539.37 258.14L551.05 258.14"/>
<path d="M378.72 257.78L376.53 257.78"/>
<path d="M347.33 257.78L344.77 257.78"/>
<path d="M315.56 257.78L313.37 257.78"/>
<path d="M284.16 257.78L281.97 257.78"/>
<path d="M252.76 257.78L250.21 257.78"/>
<path d="M221 257.78L218.81 257.78"/>
<path d="M189.6 257.78L187.04 257.78"/>
<path d="M157.84 257.78L155.65 257.78"/>
<path d="M78.97 257.78L81.16 257.78"/>
<path d="M110.37 257.78L112.93 257.78"/>
<path d="M142.14 257.78L144.33 257.78"/>
<path d="M173.54 257.78L175.73 257.78"/>
<path d="M204.93 257.78L207.49 257.78"/>
<path d="M236.7 257.78L238.89 257.78"/>
<path d="M268.1 257.78L270.65 257.78"/>
<path d="M299.86 257.78L302.05 257.78"/>
<path d="M331.26 257.78L333.45 257.78"/>
<path d="M362.66 257.78L365.22 257.78"/>
<path d="M126.44 257.78L124.25 257.78"/>
<path d="M95.04 257.78L92.48 257.78"/>
<path d="M200.55 197.54L191.79 188.77"/>
<path d="M244.73 238.79L253.49 247.56"/>
<path d="M245.83 251.57L245.1 249.02"/>
<path d="M249.11 249.02L249.11 253.4"/>
<path d="M244.73 253.76L244.73 249.02"/>
<path d="M244.73 187.68L244.73 182.93"/>
<path d="M244.73 236.6L244.73 231.49"/>
<path d="M244.73 204.84L244.73 199.73"/>
<path d="M245.83 184.76L245.83 182.57"/>
<path d="M245.83 251.57L245.83 253.76"/>
<path d="M246.19 139.12L246.19 91.66"/>
<path d="M248.02 185.12L248.02 182.57"/>
<path d="M249.11 174.9L249.11 177.46"/>
<path d="M249.11 261.43L249.11 258.87"/>
<path d="M249.11 238.79L249.11 236.6"/>
<path d="M249.11 199.73L249.11 197.54"/>
<path d="M249.11 161.76L249.11 163.58"/>
<path d="M249.11 182.57L249.11 183.3"/>
<path d="M249.11 274.94L249.11 273.11"/>
<path d="M249.11 253.76L249.11 253.4"/>
<path d="M249.84 129.63L249.84 143.14"/>
<path d="M250.21 178.55L250.21 187.68"/>
<path d="M250.21 249.02L250.21 257.78"/>
<path d="M250.94 78.88L250.94 74.13"/>
<path d="M252.4 96.04L252.4 114.66"/>
<path d="M252.76 178.55L252.76 187.68"/>
<path d="M252.76 249.02L252.76 257.78"/>
<path d="M253.49 238.79L253.49 247.56"/>
<path d="M253.49 197.54L253.49 188.77"/>
<path d="M253.86 199.73L253.86 216.16"/>
<path d="M253.86 236.6L253.86 220.54"/>
<path d="M254.59 199.73L254.59 216.16"/>
<path d="M254.59 236.6L254.59 220.54"/>
<path d="M254.95 238.79L254.95 247.56"/>
<path d="M254.95 197.54L254.95 188.77"/>
<path d="M259.34 161.76L259.34 163.58"/>
<path d="M259.34 274.94L259.34 273.11"/>
<path d="M259.34 197.54L259.34 199.73"/>
<path d="M259.34 236.6L259.34 238.79"/>
<path d="M249.11 187.68L249.11 183.3"/>
<path d="M200.55 238.79L191.79 247.56"/>
<path d="M244.73 197.54L253.49 188.77"/>
<path d="M534.26 254.13L434.95 254.13"/>
<path d="M433.85 254.13L380.55 254.13"/>
<path d="M81.16 253.76L92.48 253.76"/>
<path d="M112.93 253.76L124.25 253.76"/>
<path d="M144.33 253.76L155.65 253.76"/>
<path d="M175.73 253.76L187.04 253.76"/>
<path d="M207.49 253.76L218.81 253.76"/>
<path d="M238.89 253.76L250.21 253.76"/>
<path d="M270.65 253.76L281.97 253.76"/>
<path d="M302.05 253.76L313.37 253.76"/>
<path d="M333.45 253.76L344.77 253.76"/>
<path d="M365.22 253.76L376.53 253.76"/>
<path d="M370.69 253.76L365.22 253.76"/>
<path d="M339.29 253.76L333.45 253.76"/>
<path d="M307.89 253.76L302.05 253.76"/>
<path d="M276.13 253.76L270.65 253.76"/>
<path d="M244.73 253.76L238.89 253.76"/>
<path d="M213.33 253.76L207.49 253.76"/>
<path d="M181.57 253.76L175.73 253.76"/>
<path d="M150.17 253.76L144.33 253.76"/>
<path d="M118.4 253.76L112.93 253.76"/>
<path d="M87.01 253.76L81.16 253.76"/>
<path d="M92.48 253.4L91.39 253.4"/>
<path d="M122.79 253.4L124.25 253.4"/>
<path d="M154.19 253.4L155.65 253.4"/>
<path d="M185.95 253.4L187.04 253.4"/>
<path d="M217.35 253.4L218.81 253.4"/>
<path d="M249.11 253.4L250.21 253.4"/>
<path d="M280.51 253.4L281.97 253.4"/>
<path d="M311.91 253.4L313.37 253.4"/>
<path d="M343.67 253.4L344.77 253.4"/>
<path d="M375.07 253.4L376.53 253.4"/>
<path d="M81.16 251.94L87.01 251.94"/>
<path d="M112.93 251.94L118.4 251.94"/>
<path d="M144.33 251.94L150.17 251.94"/>
<path d="M175.73 251.94L181.57 251.94"/>
<path d="M207.49 251.94L213.33 251.94"/>
<path d="M238.89 251.94L244.73 251.94"/>
<path d="M270.65 251.94L276.13 251.94"/>
<path d="M302.05 251.94L307.89 251.94"/>
<path d="M333.45 251.94L339.29 251.94"/>
<path d="M365.22 251.94L370.69 251.94"/>
<path d="M516.73 251.94L396.25 251.94"/>
<path d="M414.5 251.21L397.71 251.21"/>
<path d="M441.89 251.21L489.72 251.21"/>
<path d="M74.96 249.38L59.99 249.38"/>
<path d="M78.97 249.02L95.04 249.02"/>
<path d="M110.37 249.02L126.44 249.02"/>
<path d="M142.14 249.02L157.84 249.02"/>
<path d="M173.54 249.02L189.6 249.02"/>
<path d="M204.93 249.02L221 249.02"/>
<path d="M236.7 249.02L252.76 249.02"/>
<path d="M268.1 249.02L284.16 249.02"/>
<path d="M299.86 249.02L315.56 249.02"/>
<path d="M331.26 249.02L347.33 249.02"/>
<path d="M362.66 249.02L378.72 249.02"/>
<path d="M379.45 247.56L349.52 247.56"/>
<path d="M348.06 247.56L318.12 247.56"/>
<path d="M316.66 247.56L286.72 247.56"/>
<path d="M284.89 247.56L254.95 247.56"/>
<path d="M253.49 247.56L223.55 247.56"/>
<path d="M221.73 247.56L191.79 247.56"/>
<path d="M190.33 247.56L160.39 247.56"/>
<path d="M158.93 247.56L128.99 247.56"/>
<path d="M127.17 247.56L97.23 247.56"/>
<path d="M95.77 247.56L65.83 247.56"/>
<path d="M551.05 245.73L539.37 245.73"/>
<path d="M45.75 245.73L57.43 245.73"/>
<path d="M515.64 243.9L490.81 243.9"/>
<path d="M415.6 243.9L440.43 243.9"/>
<path d="M515.64 240.25L490.81 240.25"/>
<path d="M415.6 240.25L440.43 240.25"/>
<path d="M75.69 238.79L211.87 238.79"/>
<path d="M233.41 238.79L369.6 238.79"/>
<path d="M264.45 230.03L254.59 220.54"/>
<path d="M244 206.66L253.86 216.16"/>
<path d="M232.32 197.9L223.55 188.77"/>
<path d="M276.13 238.79L284.89 247.56"/>
<path d="M280.51 249.02L280.51 253.4"/>
<path d="M263.72 199.73L263.72 204.84"/>
<path d="M263.72 231.49L263.72 236.6"/>
<path d="M266.27 161.76L266.27 163.58"/>
<path d="M266.27 274.94L266.27 273.11"/>
<path d="M268.1 257.78L268.1 249.02"/>
<path d="M268.1 187.68L268.1 178.55"/>
<path d="M270.65 257.78L270.65 249.02"/>
<path d="M270.65 187.68L270.65 178.55"/>
<path d="M271.75 174.9L271.75 177.46"/>
<path d="M271.75 261.43L271.75 258.87"/>
<path d="M273.57 161.76L273.57 163.58"/>
<path d="M273.57 274.94L273.57 273.11"/>
<path d="M276.13 253.76L276.13 249.02"/>
<path d="M276.13 187.68L276.13 182.93"/>
<path d="M276.13 236.6L276.13 231.49"/>
<path d="M276.13 204.84L276.13 199.73"/>
<path d="M277.23 184.76L277.23 182.57"/>
<path d="M277.23 251.57L277.23 253.76"/>
<path d="M279.78 185.12L279.78 182.57"/>
<path d="M280.51 174.9L280.51 177.46"/>
<path d="M280.51 261.43L280.51 258.87"/>
<path d="M280.51 238.79L280.51 236.6"/>
<path d="M280.51 199.73L280.51 197.54"/>
<path d="M280.88 161.76L280.88 163.58"/>
<path d="M280.88 182.57L280.88 183.3"/>
<path d="M280.88 274.94L280.88 273.11"/>
<path d="M280.88 253.76L280.88 253.4"/>
<path d="M281.97 178.55L281.97 187.68"/>
<path d="M281.97 249.02L281.97 257.78"/>
<path d="M280.51 187.68L280.51 183.3"/>
<path d="M277.23 185.12L276.86 187.68"/>
<path d="M223.55 247.56L232.32 238.43"/>
<path d="M276.13 197.54L284.89 188.77"/>
<path d="M264.45 206.66L254.59 216.16"/>
<path d="M244 230.03L253.86 220.54"/>
<path d="M87.01 236.6L105.99 236.6"/>
<path d="M118.4 236.6L137.39 236.6"/>
<path d="M150.17 236.6L169.15 236.6"/>
<path d="M181.57 236.6L200.55 236.6"/>
<path d="M244.73 236.6L263.72 236.6"/>
<path d="M276.13 236.6L295.12 236.6"/>
<path d="M307.89 236.6L326.88 236.6"/>
<path d="M339.29 236.6L358.28 236.6"/>
<path d="M516.73 236.6L532.43 236.6"/>
<path d="M489.72 235.87L472.92 235.87"/>
<path d="M397.71 235.87L414.5 235.87"/>
<path d="M441.89 235.87L458.32 235.87"/>
<path d="M368.5 229.3L360.83 229.3"/>
<path d="M337.1 229.3L329.07 229.3"/>
<path d="M305.34 229.3L297.67 229.3"/>
<path d="M273.94 229.3L265.91 229.3"/>
<path d="M242.54 229.3L234.51 229.3"/>
<path d="M210.78 229.3L203.11 229.3"/>
<path d="M179.38 229.3L171.34 229.3"/>
<path d="M147.61 229.3L139.95 229.3"/>
<path d="M116.21 229.3L108.18 229.3"/>
<path d="M84.82 229.3L76.78 229.3"/>
<path d="M515.64 227.84L490.81 227.84"/>
<path d="M415.6 227.84L440.43 227.84"/>
<path d="M516.73 227.11L523.31 227.11"/>
<path d="M523.31 225.65L516.73 225.65"/>
<path d="M448.09 225.65L441.89 225.65"/>
<path d="M414.5 225.65L407.93 225.65"/>
<path d="M483.14 225.65L489.72 225.65"/>
<path d="M371.06 222.73L369.23 222.73"/>
<path d="M234.14 222.73L231.95 222.73"/>
<path d="M213.33 222.73L211.51 222.73"/>
<path d="M76.42 222.73L74.23 222.73"/>
<path d="M371.06 222.73L369.23 222.73"/>
<path d="M234.14 222.73L231.95 222.73"/>
<path d="M213.33 222.73L211.51 222.73"/>
<path d="M76.42 222.73L74.23 222.73"/>
<path d="M369.23 220.54L349.52 220.54"/>
<path d="M348.42 220.54L317.75 220.54"/>
<path d="M316.66 220.54L286.35 220.54"/>
<path d="M285.26 220.54L254.59 220.54"/>
<path d="M253.86 220.54L234.14 220.54"/>
<path d="M211.51 220.54L191.79 220.54"/>
<path d="M190.7 220.54L160.03 220.54"/>
<path d="M158.93 220.54L128.63 220.54"/>
<path d="M127.53 220.54L96.86 220.54"/>
<path d="M96.13 220.54L76.42 220.54"/>
<path d="M379.45 220.17L371.06 220.17"/>
<path d="M74.23 220.17L65.83 220.17"/>
<path d="M295.85 230.03L286.35 220.54"/>
<path d="M275.49 206.75L285.26 216.16"/>
<path d="M263.72 197.54L254.95 188.77"/>
<path d="M307.89 238.79L316.66 247.56"/>
<path d="M277.23 251.57L276.86 249.02"/>
<path d="M284.16 178.55L284.16 187.68"/>
<path d="M284.16 249.02L284.16 257.78"/>
<path d="M284.89 238.79L284.89 247.56"/>
<path d="M284.89 197.54L284.89 188.77"/>
<path d="M285.26 199.73L285.26 216.16"/>
<path d="M285.26 236.6L285.26 220.54"/>
<path d="M286.35 199.73L286.35 216.16"/>
<path d="M286.35 236.6L286.35 220.54"/>
<path d="M286.72 238.79L286.72 247.56"/>
<path d="M286.72 197.54L286.72 188.77"/>
<path d="M290.73 161.76L290.73 163.58"/>
<path d="M290.73 274.94L290.73 273.11"/>
<path d="M291.1 197.54L291.1 199.73"/>
<path d="M291.1 236.6L291.1 238.79"/>
<path d="M294.75 114.66L294.75 96.04"/>
<path d="M295.12 199.73L295.12 204.84"/>
<path d="M295.12 231.49L295.12 236.6"/>
<path d="M296.21 74.13L296.21 78.88"/>
<path d="M296.94 143.14L296.94 129.63"/>
<path d="M297.67 161.76L297.67 163.58"/>
<path d="M297.67 274.94L297.67 273.11"/>
<path d="M299.86 257.78L299.86 249.02"/>
<path d="M299.86 187.68L299.86 178.55"/>
<path d="M300.96 139.12L300.96 91.66"/>
<path d="M263.72 238.79L254.95 247.56"/>
<path d="M295.85 206.66L286.35 216.16"/>
<path d="M65.83 216.16L74.23 216.16"/>
<path d="M371.06 216.16L379.45 216.16"/>
<path d="M76.42 216.16L96.13 216.16"/>
<path d="M96.86 216.16L127.53 216.16"/>
<path d="M128.63 216.16L158.93 216.16"/>
<path d="M160.03 216.16L190.7 216.16"/>
<path d="M191.79 216.16L211.51 216.16"/>
<path d="M234.14 216.16L253.86 216.16"/>
<path d="M254.59 216.16L285.26 216.16"/>
<path d="M286.35 216.16L316.66 216.16"/>
<path d="M317.75 216.16L348.42 216.16"/>
<path d="M349.52 216.16L369.23 216.16"/>
<path d="M74.23 213.97L76.42 213.97"/>
<path d="M211.51 213.97L213.33 213.97"/>
<path d="M231.95 213.97L234.14 213.97"/>
<path d="M369.23 213.97L371.06 213.97"/>
<path d="M523.31 213.97L513.08 213.97"/>
<path d="M493.37 213.97L483.14 213.97"/>
<path d="M407.93 213.97L418.16 213.97"/>
<path d="M438.24 213.97L448.09 213.97"/>
<path d="M74.23 213.6L76.42 213.6"/>
<path d="M211.51 213.6L213.33 213.6"/>
<path d="M231.95 213.6L234.14 213.6"/>
<path d="M369.23 213.6L371.06 213.6"/>
<path d="M539.37 208.49L551.05 208.49"/>
<path d="M76.78 207.39L84.82 207.39"/>
<path d="M108.18 207.39L116.21 207.39"/>
<path d="M139.95 207.39L147.61 207.39"/>
<path d="M171.34 207.39L179.38 207.39"/>
<path d="M203.11 207.39L210.78 207.39"/>
<path d="M234.51 207.39L242.54 207.39"/>
<path d="M266.27 207.39L273.94 207.39"/>
<path d="M297.67 207.39L305.34 207.39"/>
<path d="M329.07 207.39L337.1 207.39"/>
<path d="M360.83 207.39L368.5 207.39"/>
<path d="M522.57 203.74L513.08 203.74"/>
<path d="M493.37 203.74L472.92 203.74"/>
<path d="M458.32 203.74L438.24 203.74"/>
<path d="M418.16 203.74L397.71 203.74"/>
<path d="M532.43 203.01L523.31 203.01"/>
<path d="M45.75 200.09L57.43 200.09"/>
<path d="M87.01 199.73L105.99 199.73"/>
<path d="M118.4 199.73L137.39 199.73"/>
<path d="M150.17 199.73L169.15 199.73"/>
<path d="M181.57 199.73L200.55 199.73"/>
<path d="M244.73 199.73L263.72 199.73"/>
<path d="M276.13 199.73L295.12 199.73"/>
<path d="M307.89 199.73L326.88 199.73"/>
<path d="M339.29 199.73L358.28 199.73"/>
<path d="M327.61 230.03L317.75 220.54"/>
<path d="M295.12 197.54L286.72 188.77"/>
<path d="M308.99 251.57L308.26 249.02"/>
<path d="M311.91 249.02L311.91 253.4"/>
<path d="M302.05 257.78L302.05 249.02"/>
<path d="M302.05 187.68L302.05 178.55"/>
<path d="M303.51 93.48L303.51 143.14"/>
<path d="M303.51 174.9L303.51 177.46"/>
<path d="M303.51 261.43L303.51 258.87"/>
<path d="M305.34 161.76L305.34 163.58"/>
<path d="M305.34 274.94L305.34 273.11"/>
<path d="M307.89 253.76L307.89 249.02"/>
<path d="M307.89 187.68L307.89 182.93"/>
<path d="M307.89 236.6L307.89 231.49"/>
<path d="M307.89 204.84L307.89 199.73"/>
<path d="M308.99 184.76L308.99 182.57"/>
<path d="M308.99 251.57L308.99 253.76"/>
<path d="M311.18 185.12L311.18 182.57"/>
<path d="M311.91 174.9L311.91 177.46"/>
<path d="M311.91 261.43L311.91 258.87"/>
<path d="M311.91 238.79L311.91 236.6"/>
<path d="M311.91 199.73L311.91 197.54"/>
<path d="M312.28 161.76L312.28 163.58"/>
<path d="M312.28 182.57L312.28 183.3"/>
<path d="M312.28 274.94L312.28 273.11"/>
<path d="M312.28 253.76L312.28 253.4"/>
<path d="M313.37 78.88L313.37 93.48"/>
<path d="M313.37 178.55L313.37 187.68"/>
<path d="M313.37 249.02L313.37 257.78"/>
<path d="M315.56 178.55L315.56 187.68"/>
<path d="M315.56 249.02L315.56 257.78"/>
<path d="M316.66 238.79L316.66 247.56"/>
<path d="M316.66 197.54L316.66 188.77"/>
<path d="M316.66 199.73L316.66 216.16"/>
<path d="M316.66 236.6L316.66 220.54"/>
<path d="M317.02 82.89L317.02 93.48"/>
<path d="M317.75 199.73L317.75 216.16"/>
<path d="M317.75 236.6L317.75 220.54"/>
<path d="M318.12 238.79L318.12 247.56"/>
<path d="M318.12 197.54L318.12 188.77"/>
<path d="M311.91 187.68L311.91 183.3"/>
<path d="M308.99 185.12L308.26 187.68"/>
<path d="M307.89 197.54L316.66 188.77"/>
<path d="M275.4 230.03L285.26 220.54"/>
<path d="M513.08 199L493.37 199"/>
<path d="M418.16 199L438.24 199"/>
<path d="M75.69 197.54L211.87 197.54"/>
<path d="M233.41 197.54L369.6 197.54"/>
<path d="M551.05 196.08L539.37 196.08"/>
<path d="M460.51 193.89L397.71 193.89"/>
<path d="M471.1 193.89L523.31 193.89"/>
<path d="M401.36 192.79L523.31 192.79"/>
<path d="M396.25 192.06L523.31 192.06"/>
<path d="M65.83 188.77L95.77 188.77"/>
<path d="M97.23 188.77L127.17 188.77"/>
<path d="M128.99 188.77L158.93 188.77"/>
<path d="M160.39 188.77L190.33 188.77"/>
<path d="M191.79 188.77L221.73 188.77"/>
<path d="M223.55 188.77L253.49 188.77"/>
<path d="M254.95 188.77L284.89 188.77"/>
<path d="M286.72 188.77L316.66 188.77"/>
<path d="M318.12 188.77L348.06 188.77"/>
<path d="M349.52 188.77L379.45 188.77"/>
<path d="M434.95 188.41L534.26 188.41"/>
<path d="M378.72 187.68L362.66 187.68"/>
<path d="M347.33 187.68L331.26 187.68"/>
<path d="M315.56 187.68L299.86 187.68"/>
<path d="M284.16 187.68L268.1 187.68"/>
<path d="M252.76 187.68L236.7 187.68"/>
<path d="M221 187.68L204.93 187.68"/>
<path d="M189.6 187.68L173.54 187.68"/>
<path d="M157.84 187.68L142.14 187.68"/>
<path d="M126.44 187.68L110.37 187.68"/>
<path d="M95.04 187.68L78.97 187.68"/>
<path d="M45.75 187.31L57.43 187.31"/>
<path d="M552.15 186.58L551.05 186.58"/>
<path d="M547.4 185.12L535.35 185.12"/>
<path d="M59.99 184.76L74.96 184.76"/>
<path d="M88.1 184.76L90.66 184.76"/>
<path d="M119.5 184.76L121.33 184.76"/>
<path d="M151.26 184.76L153.82 184.76"/>
<path d="M182.66 184.76L185.22 184.76"/>
<path d="M214.43 184.76L216.98 184.76"/>
<path d="M245.83 184.76L248.02 184.76"/>
<path d="M277.23 184.76L279.05 184.76"/>
<path d="M308.99 184.76L311.18 184.76"/>
<path d="M340.39 184.76L342.94 184.76"/>
<path d="M372.15 184.76L374.34 184.76"/>
<path d="M370.69 184.03L365.22 184.03"/>
<path d="M339.29 184.03L333.45 184.03"/>
<path d="M307.89 184.03L302.05 184.03"/>
<path d="M276.13 184.03L270.65 184.03"/>
<path d="M244.73 184.03L238.89 184.03"/>
<path d="M213.33 184.03L207.49 184.03"/>
<path d="M181.57 184.03L175.73 184.03"/>
<path d="M150.17 184.03L144.33 184.03"/>
<path d="M118.4 184.03L112.93 184.03"/>
<path d="M87.01 184.03L81.16 184.03"/>
<path d="M92.48 183.3L91.39 183.3"/>
<path d="M122.79 183.3L124.25 183.3"/>
<path d="M154.19 183.3L155.65 183.3"/>
<path d="M185.95 183.3L187.04 183.3"/>
<path d="M217.35 183.3L218.81 183.3"/>
<path d="M249.11 183.3L250.21 183.3"/>
<path d="M280.51 183.3L281.97 183.3"/>
<path d="M311.91 183.3L313.37 183.3"/>
<path d="M343.67 183.3L344.77 183.3"/>
<path d="M375.07 183.3L376.53 183.3"/>
<path d="M81.16 182.93L87.01 182.93"/>
<path d="M112.93 182.93L118.4 182.93"/>
<path d="M144.33 182.93L150.17 182.93"/>
<path d="M175.73 182.93L181.57 182.93"/>
<path d="M207.49 182.93L213.33 182.93"/>
<path d="M238.89 182.93L244.73 182.93"/>
<path d="M270.65 182.93L276.13 182.93"/>
<path d="M302.05 182.93L307.89 182.93"/>
<path d="M333.45 182.93L339.29 182.93"/>
<path d="M365.22 182.93L370.69 182.93"/>
<path d="M81.16 182.57L92.48 182.57"/>
<path d="M112.93 182.57L124.25 182.57"/>
<path d="M144.33 182.57L155.65 182.57"/>
<path d="M175.73 182.57L187.04 182.57"/>
<path d="M207.49 182.57L218.81 182.57"/>
<path d="M238.89 182.57L250.21 182.57"/>
<path d="M270.65 182.57L281.97 182.57"/>
<path d="M302.05 182.57L313.37 182.57"/>
<path d="M333.45 182.57L344.77 182.57"/>
<path d="M365.22 182.57L376.53 182.57"/>
<path d="M551.05 181.47L539.37 181.47"/>
<path d="M552.15 180.38L551.05 180.38"/>
<path d="M307.16 206.66L316.66 216.16"/>
<path d="M339.29 238.79L348.06 247.56"/>
<path d="M322.13 90.93L322.13 83.62"/>
<path d="M322.13 161.76L322.13 163.58"/>
<path d="M322.13 274.94L322.13 273.11"/>
<path d="M322.5 197.54L322.5 199.73"/>
<path d="M322.5 236.6L322.5 238.79"/>
<path d="M326.88 199.73L326.88 204.84"/>
<path d="M326.88 231.49L326.88 236.6"/>
<path d="M326.88 93.48L326.88 99.69"/>
<path d="M329.43 161.76L329.43 163.58"/>
<path d="M329.43 274.94L329.43 273.11"/>
<path d="M330.53 97.13L330.53 99.69"/>
<path d="M330.53 117.58L330.53 143.14"/>
<path d="M331.26 257.78L331.26 249.02"/>
<path d="M331.26 187.68L331.26 178.55"/>
<path d="M333.45 257.78L333.45 249.02"/>
<path d="M333.45 187.68L333.45 178.55"/>
<path d="M334.91 174.9L334.91 177.46"/>
<path d="M334.91 261.43L334.91 258.87"/>
<path d="M336.01 137.29L336.01 143.14"/>
<path d="M336.74 161.76L336.74 163.58"/>
<path d="M336.74 274.94L336.74 273.11"/>
<path d="M340.39 185.12L340.02 187.68"/>
<path d="M295.12 238.79L286.72 247.56"/>
<path d="M339.29 197.54L348.06 188.77"/>
<path d="M397.71 156.28L407.93 146.06"/>
<path d="M327.61 206.66L317.75 216.16"/>
<path d="M307.16 230.03L316.66 220.54"/>
<path d="M331.26 178.55L333.45 178.55"/>
<path d="M362.66 178.55L365.22 178.55"/>
<path d="M378.72 178.55L376.53 178.55"/>
<path d="M347.33 178.55L344.77 178.55"/>
<path d="M315.56 178.55L313.37 178.55"/>
<path d="M284.16 178.55L281.97 178.55"/>
<path d="M252.76 178.55L250.21 178.55"/>
<path d="M221 178.55L218.81 178.55"/>
<path d="M189.6 178.55L187.04 178.55"/>
<path d="M157.84 178.55L155.65 178.55"/>
<path d="M126.44 178.55L124.25 178.55"/>
<path d="M95.04 178.55L92.48 178.55"/>
<path d="M236.7 178.55L238.89 178.55"/>
<path d="M268.1 178.55L270.65 178.55"/>
<path d="M299.86 178.55L302.05 178.55"/>
<path d="M142.14 178.55L144.33 178.55"/>
<path d="M173.54 178.55L175.73 178.55"/>
<path d="M204.93 178.55L207.49 178.55"/>
<path d="M78.97 178.55L81.16 178.55"/>
<path d="M110.37 178.55L112.93 178.55"/>
<path d="M82.62 177.46L91.39 177.46"/>
<path d="M114.02 177.46L122.79 177.46"/>
<path d="M145.79 177.46L154.19 177.46"/>
<path d="M177.19 177.46L185.95 177.46"/>
<path d="M208.59 177.46L217.35 177.46"/>
<path d="M240.35 177.46L249.11 177.46"/>
<path d="M271.75 177.46L280.51 177.46"/>
<path d="M303.51 177.46L311.91 177.46"/>
<path d="M334.91 177.46L343.67 177.46"/>
<path d="M366.31 177.46L375.07 177.46"/>
<path d="M59.99 176.36L49.4 176.36"/>
<path d="M82.62 174.9L91.39 174.9"/>
<path d="M114.02 174.9L122.79 174.9"/>
<path d="M145.79 174.9L154.19 174.9"/>
<path d="M177.19 174.9L185.95 174.9"/>
<path d="M208.59 174.9L217.35 174.9"/>
<path d="M240.35 174.9L249.11 174.9"/>
<path d="M271.75 174.9L280.51 174.9"/>
<path d="M303.51 174.9L311.91 174.9"/>
<path d="M334.91 174.9L343.67 174.9"/>
<path d="M366.31 174.9L375.07 174.9"/>
<path d="M434.95 173.44L400.27 173.44"/>
<path d="M534.26 173.44L539.37 173.44"/>
<path d="M534.26 173.44L434.95 173.44"/>
<path d="M57.43 172.71L45.75 172.71"/>
<path d="M44.65 171.61L57.43 171.61"/>
<path d="M535.35 169.79L401 169.79"/>
<path d="M74.96 169.79L59.99 169.79"/>
<path d="M414.5 168.33L401.36 168.33"/>
<path d="M441.89 168.33L489.72 168.33"/>
<path d="M516.73 168.33L552.15 168.33"/>
<path d="M57.43 167.23L381.64 167.23"/>
<path d="M415.6 164.31L440.43 164.31"/>
<path d="M490.81 164.31L515.64 164.31"/>
<path d="M382.37 163.58L61.08 163.58"/>
<path d="M44.65 161.76L383.11 161.76"/>
<path d="M359.01 230.03L349.52 220.54"/>
<path d="M338.56 206.66L348.42 216.16"/>
<path d="M222.82 80.7L225.02 83.62"/>
<path d="M396.25 251.94L391.14 247.19"/>
<path d="M392.6 246.1L397.71 251.21"/>
<path d="M246.19 96.04L243.64 93.48"/>
<path d="M326.88 197.54L318.12 188.77"/>
<path d="M370.69 238.43L379.45 247.56"/>
<path d="M340.39 251.57L340.02 249.02"/>
<path d="M343.67 249.02L343.67 253.4"/>
<path d="M339.29 253.76L339.29 249.02"/>
<path d="M339.29 187.68L339.29 182.93"/>
<path d="M339.29 236.6L339.29 231.49"/>
<path d="M339.29 204.84L339.29 199.73"/>
<path d="M340.39 117.58L340.39 137.29"/>
<path d="M340.39 99.69L340.39 84.72"/>
<path d="M340.39 184.76L340.39 182.57"/>
<path d="M340.39 251.57L340.39 253.76"/>
<path d="M342.94 117.58L342.94 137.29"/>
<path d="M342.94 185.12L342.94 182.57"/>
<path d="M343.67 174.9L343.67 177.46"/>
<path d="M343.67 261.43L343.67 258.87"/>
<path d="M343.67 238.79L343.67 236.6"/>
<path d="M343.67 199.73L343.67 197.54"/>
<path d="M343.67 112.1L343.67 105.9"/>
<path d="M343.67 161.76L343.67 163.58"/>
<path d="M343.67 182.57L343.67 183.3"/>
<path d="M343.67 274.94L343.67 273.11"/>
<path d="M343.67 253.76L343.67 253.4"/>
<path d="M344.77 178.55L344.77 187.68"/>
<path d="M344.77 249.02L344.77 257.78"/>
<path d="M347.33 178.55L347.33 187.68"/>
<path d="M347.33 249.02L347.33 257.78"/>
<path d="M348.06 238.79L348.06 247.56"/>
<path d="M348.06 197.54L348.06 188.77"/>
<path d="M348.42 199.73L348.42 216.16"/>
<path d="M348.42 236.6L348.42 220.54"/>
<path d="M348.42 117.58L348.42 137.29"/>
<path d="M349.52 199.73L349.52 216.16"/>
<path d="M349.52 236.6L349.52 220.54"/>
<path d="M349.52 238.79L349.52 247.56"/>
<path d="M349.52 197.54L349.52 188.77"/>
<path d="M349.52 80.7L349.52 106.26"/>
<path d="M352.44 83.62L352.44 106.26"/>
<path d="M353.9 161.76L353.9 163.58"/>
<path d="M353.9 274.94L353.9 273.11"/>
<path d="M354.26 197.54L354.26 199.73"/>
<path d="M354.26 236.6L354.26 238.79"/>
<path d="M354.26 108.09L354.26 111.01"/>
<path d="M354.99 111.01L354.99 150.44"/>
<path d="M357.91 109.91L357.91 150.44"/>
<path d="M343.67 187.68L343.67 183.3"/>
<path d="M326.88 238.79L318.12 247.56"/>
<path d="M370.69 197.9L379.45 188.77"/>
<path d="M458.32 124.15L448.09 134.37"/>
<path d="M359.01 206.66L349.52 216.16"/>
<path d="M338.56 230.03L348.42 220.54"/>
<path d="M415.6 160.66L440.43 160.66"/>
<path d="M490.81 160.66L515.64 160.66"/>
<path d="M533.53 156.28L516.73 156.28"/>
<path d="M489.72 156.28L472.92 156.28"/>
<path d="M397.71 156.28L414.5 156.28"/>
<path d="M441.89 156.28L458.32 156.28"/>
<path d="M388.22 154.09L44.65 154.09"/>
<path d="M388.22 150.44L48.31 150.44"/>
<path d="M415.6 148.25L440.43 148.25"/>
<path d="M490.81 148.25L515.64 148.25"/>
<path d="M357.91 146.79L395.52 146.79"/>
<path d="M523.31 146.06L516.73 146.06"/>
<path d="M489.72 146.06L483.14 146.06"/>
<path d="M448.09 146.06L441.89 146.06"/>
<path d="M414.5 146.06L407.93 146.06"/>
<path d="M336.01 143.14L330.53 143.14"/>
<path d="M303.51 143.14L243.64 143.14"/>
<path d="M216.25 143.14L211.14 143.14"/>
<path d="M400.27 192.06L401.36 192.79"/>
<path d="M358.28 197.54L349.52 188.77"/>
<path d="M371.06 207.39L379.45 216.16"/>
<path d="M375.07 249.02L375.07 253.4"/>
<path d="M358.28 199.73L358.28 204.84"/>
<path d="M358.28 231.49L358.28 236.6"/>
<path d="M360.83 161.76L360.83 163.58"/>
<path d="M360.83 274.94L360.83 273.11"/>
<path d="M362.66 257.78L362.66 249.02"/>
<path d="M362.66 187.68L362.66 178.55"/>
<path d="M365.22 257.78L365.22 249.02"/>
<path d="M365.22 187.68L365.22 178.55"/>
<path d="M366.31 174.9L366.31 177.46"/>
<path d="M366.31 261.43L366.31 258.87"/>
<path d="M368.14 161.76L368.14 163.58"/>
<path d="M368.14 274.94L368.14 273.11"/>
<path d="M369.23 229.3L369.23 207.03"/>
<path d="M370.69 253.76L370.69 249.02"/>
<path d="M370.69 187.68L370.69 182.93"/>
<path d="M371.06 237.7L371.06 199"/>
<path d="M372.15 184.76L372.15 182.57"/>
<path d="M372.15 251.57L372.15 253.76"/>
<path d="M374.34 185.12L374.34 182.57"/>
<path d="M375.07 174.9L375.07 177.46"/>
<path d="M375.07 261.43L375.07 258.87"/>
<path d="M375.44 161.76L375.44 163.58"/>
<path d="M375.44 182.57L375.44 183.3"/>
<path d="M375.44 274.94L375.44 273.11"/>
<path d="M375.44 253.76L375.44 253.4"/>
<path d="M376.53 178.55L376.53 187.68"/>
<path d="M376.53 249.02L376.53 257.78"/>
<path d="M375.07 187.68L375.07 183.3"/>
<path d="M372.15 185.12L371.42 187.68"/>
<path d="M379.45 220.17L371.06 229.3"/>
<path d="M358.28 238.79L349.52 247.56"/>
<path d="M391.14 197.17L396.25 192.06"/>
<path d="M397.71 193.89L392.6 199"/>
<path d="M246.19 139.12L300.96 139.12"/>
<path d="M348.42 137.29L336.01 137.29"/>
<path d="M211.14 137.29L198.73 137.29"/>
<path d="M407.93 134.37L418.16 134.37"/>
<path d="M438.24 134.37L448.09 134.37"/>
<path d="M483.14 134.37L493.37 134.37"/>
<path d="M513.08 134.37L523.31 134.37"/>
<path d="M246.19 133.28L300.96 133.28"/>
<path d="M249.84 129.63L296.94 129.63"/>
<path d="M395.52 124.52L391.87 124.52"/>
<path d="M548.5 124.52L552.15 124.52"/>
<path d="M533.53 124.15L513.08 124.15"/>
<path d="M493.37 124.15L472.92 124.15"/>
<path d="M458.32 124.15L438.24 124.15"/>
<path d="M418.16 124.15L397.71 124.15"/>
<path d="M400.27 173.44L381.64 167.23"/>
<path d="M401 169.79L382.37 163.58"/>
<path d="M401.36 168.33L383.11 161.76"/>
<path d="M397.71 203.74L407.93 213.97"/>
<path d="M372.15 251.57L371.42 249.02"/>
<path d="M378.72 178.55L378.72 187.68"/>
<path d="M378.72 249.02L378.72 257.78"/>
<path d="M379.45 220.17L379.45 247.56"/>
<path d="M379.45 216.16L379.45 188.77"/>
<path d="M380.55 254.13L380.55 269.1"/>
<path d="M383.11 274.94L383.11 273.11"/>
<path d="M383.11 163.83L383.11 161.76"/>
<path d="M388.22 154.09L388.22 112.1"/>
<path d="M391.14 197.17L391.14 247.19"/>
<path d="M391.87 146.79L391.87 111.01"/>
<path d="M392.6 246.1L392.6 199"/>
<path d="M472.92 156.28L483.14 146.06"/>
<path d="M397.71 235.87L407.93 225.65"/>
<path d="M513.08 119.77L493.37 119.77"/>
<path d="M418.16 119.77L438.24 119.77"/>
<path d="M458.68 119.77L472.56 119.77"/>
<path d="M50.86 118.31L44.65 118.31"/>
<path d="M198.73 117.58L216.25 117.58"/>
<path d="M330.53 117.58L348.42 117.58"/>
<path d="M539.73 115.75L404.28 115.75"/>
<path d="M300.96 114.66L294.75 114.66"/>
<path d="M246.19 114.66L252.4 114.66"/>
<path d="M391.87 114.66L357.91 114.66"/>
<path d="M189.6 114.66L54.51 114.66"/>
<path d="M343.67 112.1L300.96 112.1"/>
<path d="M246.19 112.1L203.47 112.1"/>
<path d="M539.73 111.74L404.28 111.74"/>
<path d="M191.79 111.01L192.89 111.01"/>
<path d="M354.26 111.01L354.99 111.01"/>
<path d="M300.96 109.91L294.75 109.91"/>
<path d="M246.19 109.91L252.4 109.91"/>
<path d="M294.75 109.18L252.4 109.18"/>
<path d="M54.51 108.09L192.89 108.09"/>
<path d="M354.26 108.09L389.31 108.09"/>
<path d="M294.75 107.72L252.4 107.72"/>
<path d="M352.44 106.26L349.52 106.26"/>
<path d="M194.71 106.26L197.27 106.26"/>
<path d="M294.75 106.26L252.4 106.26"/>
<path d="M341.85 105.9L352.44 105.9"/>
<path d="M194.71 105.9L205.66 105.9"/>
<path d="M458.32 235.87L448.09 225.65"/>
<path d="M395.52 124.52L395.52 146.79"/>
<path d="M397.71 124.15L397.71 156.28"/>
<path d="M397.71 203.74L397.71 235.87"/>
<path d="M404.28 115.75L404.28 98.59"/>
<path d="M407.57 274.94L407.57 273.11"/>
<path d="M407.57 193.89L407.57 192.06"/>
<path d="M407.93 225.65L407.93 213.97"/>
<path d="M407.93 146.06L407.93 134.37"/>
<path d="M414.5 251.94L414.5 235.87"/>
<path d="M414.5 235.87L414.5 225.65"/>
<path d="M414.5 169.79L414.5 156.28"/>
<path d="M414.5 156.28L414.5 146.06"/>
<path d="M533.53 124.15L523.31 134.37"/>
<path d="M458.32 203.74L448.09 213.97"/>
<path d="M341.12 99.69L326.88 99.69"/>
<path d="M219.9 99.69L205.66 99.69"/>
<path d="M539.73 98.59L404.28 98.59"/>
<path d="M246.19 96.04L300.96 96.04"/>
<path d="M219.9 93.48L243.64 93.48"/>
<path d="M303.51 93.48L326.88 93.48"/>
<path d="M300.96 91.66L246.19 91.66"/>
<path d="M331.63 90.93L322.13 90.93"/>
<path d="M225.02 90.93L215.52 90.93"/>
<path d="M230.13 89.83L317.02 89.83"/>
<path d="M340.39 99.69L331.63 90.93"/>
<path d="M415.6 251.94L415.6 227.84"/>
<path d="M415.6 169.79L415.6 148.25"/>
<path d="M418.16 213.97L418.16 199"/>
<path d="M418.16 134.37L418.16 119.77"/>
<path d="M340.39 84.72L322.13 84.72"/>
<path d="M225.02 84.72L206.76 84.72"/>
<path d="M313.37 84.72L233.78 84.72"/>
<path d="M341.12 83.62L340.39 83.62"/>
<path d="M206.76 83.62L206.03 83.62"/>
<path d="M197.27 80.7L222.82 80.7"/>
<path d="M324.32 80.7L349.52 80.7"/>
<path d="M313.37 79.97L233.78 79.97"/>
<path d="M313.37 78.88L233.78 78.88"/>
<path d="M296.21 78.15L250.94 78.15"/>
<path d="M296.21 74.13L250.94 74.13"/>
<path d="M472.92 203.74L483.14 213.97"/>
<path d="M397.71 124.15L407.93 134.37"/>
<path d="M433.85 269.1L433.85 254.13"/>
<path d="M434.95 173.44L434.95 188.41"/>
<path d="M434.95 254.13L434.95 269.1"/>
<path d="M438.24 119.77L438.24 134.37"/>
<path d="M438.24 199L438.24 213.97"/>
<path d="M440.43 251.94L440.43 227.84"/>
<path d="M440.43 169.79L440.43 148.25"/>
<path d="M441.89 251.94L441.89 235.87"/>
<path d="M441.89 235.87L441.89 225.65"/>
<path d="M441.89 169.79L441.89 156.28"/>
<path d="M441.89 156.28L441.89 146.06"/>
<path d="M448.09 134.37L448.09 146.06"/>
<path d="M448.09 213.97L448.09 225.65"/>
<path d="M472.92 235.87L483.14 225.65"/>
<path d="M523.31 227.11L532.43 236.6"/>
<path d="M458.32 156.28L448.09 146.06"/>
<path d="M458.32 168.33L458.32 169.79"/>
<path d="M458.32 251.21L458.32 251.94"/>
<path d="M458.32 235.87L458.32 203.74"/>
<path d="M458.32 156.28L458.32 124.15"/>
<path d="M458.68 119.77L458.68 168.33"/>
<path d="M458.68 193.89L458.68 251.21"/>
<path d="M459.41 192.06L459.41 192.79"/>
<path d="M459.41 274.94L459.41 273.11"/>
<path d="M460.87 251.21L460.87 192.79"/>
<path d="M460.87 168.33L460.87 119.77"/>
<path d="M470.73 251.21L470.73 192.79"/>
<path d="M470.73 168.33L470.73 119.77"/>
<path d="M460.51 193.89L460.51 192.79"/>
<path d="M523.31 212.14L532.43 203.01"/>
<path d="M471.1 193.89L470.73 192.79"/>
<path d="M471.83 273.11L471.83 274.94"/>
<path d="M471.83 192.79L471.83 192.06"/>
<path d="M472.56 119.77L472.56 168.33"/>
<path d="M472.56 193.89L472.56 251.21"/>
<path d="M472.92 124.15L472.92 156.28"/>
<path d="M472.92 203.74L472.92 235.87"/>
<path d="M473.29 251.94L473.29 251.21"/>
<path d="M473.29 169.79L473.29 168.33"/>
<path d="M483.14 213.97L483.14 225.65"/>
<path d="M483.14 146.06L483.14 134.37"/>
<path d="M489.72 251.94L489.72 235.87"/>
<path d="M489.72 235.87L489.72 225.65"/>
<path d="M489.72 169.79L489.72 156.28"/>
<path d="M489.72 156.28L489.72 146.06"/>
<path d="M472.92 124.15L483.14 134.37"/>
<path d="M490.81 227.84L490.81 251.94"/>
<path d="M490.81 169.79L490.81 148.25"/>
<path d="M493.37 213.97L493.37 199"/>
<path d="M493.37 134.37L493.37 119.77"/>
<path d="M533.53 156.28L523.31 146.06"/>
<path d="M513.08 119.77L513.08 134.37"/>
<path d="M513.08 199L513.08 213.97"/>
<path d="M515.64 227.84L515.64 251.94"/>
<path d="M515.64 169.79L515.64 148.25"/>
<path d="M516.73 251.94L516.73 225.65"/>
<path d="M516.73 169.79L516.73 156.28"/>
<path d="M516.73 156.28L516.73 146.06"/>
<path d="M522.57 193.89L522.57 213.97"/>
<path d="M523.31 227.11L523.31 192.06"/>
<path d="M523.31 134.37L523.31 146.06"/>
<path d="M523.67 273.11L523.67 274.94"/>
<path d="M532.43 300.86L532.43 285.89"/>
<path d="M532.43 236.6L532.43 203.01"/>
<path d="M533.53 156.28L533.53 124.15"/>
<path d="M534.26 269.1L534.26 254.13"/>
<path d="M534.26 188.41L534.26 173.44"/>
<path d="M535.35 185.12L535.35 169.79"/>
<path d="M539.37 273.11L539.37 274.94"/>
<path d="M539.37 258.14L539.37 245.73"/>
<path d="M539.37 208.49L539.37 196.08"/>
<path d="M539.37 181.47L539.37 172.71"/>
<path d="M539.73 115.75L539.73 98.59"/>
<path d="M541.93 323.13L541.93 329.34"/>
<path d="M545.94 319.48L545.94 304.51"/>
<path d="M547.4 269.46L547.4 258.14"/>
<path d="M547.4 245.73L547.4 208.49"/>
<path d="M547.4 196.08L547.4 185.12"/>
<path d="M548.5 285.89L548.5 274.94"/>
<path d="M548.5 168.33L548.5 124.52"/>
<path d="M551.05 274.94L551.05 168.33"/>
<path d="M552.15 186.58L552.15 260.33"/>
<path d="M552.15 319.48L552.15 274.94"/>
<path d="M552.15 180.38L552.15 111.01"/>
<path d="M54.51 329.34L52.69 328.97M52.69 328.97L50.86 328.61M50.86 328.61L49.04 327.51M49.04 327.51L47.57 326.42M47.57 326.42L46.48 324.96M46.48 324.96L45.38 323.13M45.38 323.13L45.02 321.31M45.02 321.31L44.65 319.48"/>
<path d="M48.31 285.89L46.84 285.53M46.84 285.53L45.75 284.8M45.75 284.8L45.02 283.7M45.02 283.7L44.65 282.24"/>
<path d="M64.73 300.5L64.37 302.32M64.37 302.32L63.64 303.42M63.64 303.42L62.18 304.15M62.18 304.15L61.08 304.51"/>
<path d="M48.31 304.51L46.84 304.15M46.84 304.15L45.75 303.42M45.75 303.42L45.02 302.32M45.02 302.32L44.65 300.5"/>
<path d="M54.51 323.13L53.05 322.77M53.05 322.77L51.96 322.04M51.96 322.04L51.23 320.94M51.23 320.94L50.86 319.48"/>
<path d="M82.62 261.43L81.16 261.06M81.16 261.06L80.07 260.33M80.07 260.33L79.34 258.87M79.34 258.87L78.97 257.78"/>
<path d="M95.04 257.78L94.67 258.87M94.67 258.87L93.94 260.33M93.94 260.33L92.85 261.06M92.85 261.06L91.39 261.43"/>
<path d="M114.02 261.43L112.93 261.06M112.93 261.06L111.47 260.33M111.47 260.33L110.74 258.87M110.74 258.87L110.37 257.78"/>
<path d="M126.44 257.78L126.44 258.87M126.44 258.87L125.71 260.33M125.71 260.33L124.25 261.06M124.25 261.06L122.79 261.43"/>
<path d="M105.99 231.49L105.99 230.76M105.99 230.76L106.72 229.67M106.72 229.67L107.45 229.3M107.45 229.3L108.55 229.3"/>
<path d="M116.21 229.3L116.94 229.3M116.94 229.3L118.04 229.67M118.04 229.67L118.4 230.76M118.4 230.76L118.4 231.49"/>
<path d="M76.78 229.3L76.42 229.3"/>
<path d="M84.82 229.3L85.55 229.3M85.55 229.3L86.28 229.67M86.28 229.67L87.01 230.76M87.01 230.76L87.01 231.49"/>
<path d="M124.25 257.78L123.88 258.51M123.88 258.51L122.79 258.87"/>
<path d="M114.02 258.87L113.29 258.51M113.29 258.51L112.93 257.78"/>
<path d="M92.48 257.78L92.12 258.51M92.12 258.51L91.39 258.87"/>
<path d="M82.62 258.87L81.89 258.51M81.89 258.51L81.16 257.78"/>
<path d="M75.69 238.79L74.59 238.43M74.59 238.43L74.23 237.7"/>
<path d="M76.42 207.03L76.78 207.39"/>
<path d="M87.01 204.84L87.01 205.57M87.01 205.57L86.28 206.66M86.28 206.66L85.55 207.03M85.55 207.03L84.82 207.39"/>
<path d="M108.55 207.39L107.45 207.03M107.45 207.03L106.72 206.66M106.72 206.66L105.99 205.57M105.99 205.57L105.99 204.84"/>
<path d="M118.4 204.84L118.4 205.57M118.4 205.57L118.04 206.66M118.04 206.66L116.94 207.03M116.94 207.03L116.21 207.39"/>
<path d="M145.79 261.43L144.33 261.06M144.33 261.06L143.23 260.33M143.23 260.33L142.14 258.87M142.14 258.87L142.14 257.41"/>
<path d="M157.84 257.78L157.84 258.87M157.84 258.87L157.11 260.33M157.11 260.33L155.65 261.06M155.65 261.06L154.19 261.43"/>
<path d="M169.15 231.49L169.15 230.76M169.15 230.76L169.88 229.67M169.88 229.67L170.61 229.3M170.61 229.3L171.71 229.3"/>
<path d="M137.39 231.49L137.76 230.76M137.76 230.76L138.12 229.67M138.12 229.67L139.22 229.3M139.22 229.3L139.95 229.3"/>
<path d="M147.61 229.3L148.71 229.3M148.71 229.3L149.44 229.67M149.44 229.67L149.8 230.76M149.8 230.76L150.17 231.49"/>
<path d="M155.65 257.78L155.28 258.51M155.28 258.51L154.19 258.87"/>
<path d="M145.79 258.87L145.06 258.51M145.06 258.51L144.33 257.78"/>
<path d="M139.95 207.39L139.22 207.03M139.22 207.03L138.12 206.66M138.12 206.66L137.76 205.57M137.76 205.57L137.39 204.84"/>
<path d="M150.17 204.84L149.8 205.57M149.8 205.57L149.44 206.66M149.44 206.66L148.71 207.03M148.71 207.03L147.61 207.39"/>
<path d="M171.71 207.39L170.61 207.03M170.61 207.03L169.88 206.66M169.88 206.66L169.15 205.57M169.15 205.57L169.15 204.84"/>
<path d="M189.97 307.07L189.6 308.53M189.6 308.53L188.87 309.62M188.87 309.62L187.41 310.35M187.41 310.35L185.95 310.72"/>
<path d="M175 310.72L173.54 310.35M173.54 310.35L172.44 309.62M172.44 309.62L171.34 308.53M171.34 308.53L170.98 307.07"/>
<path d="M177.19 261.43L175.73 261.06M175.73 261.06L174.63 260.33M174.63 260.33L173.9 258.87M173.9 258.87L173.54 257.78"/>
<path d="M189.6 257.78L189.6 258.87M189.6 258.87L188.5 260.33M188.5 260.33L187.41 261.06M187.41 261.06L185.95 261.43"/>
<path d="M208.59 261.43L207.13 261.06M207.13 261.06L206.03 260.33M206.03 260.33L205.3 258.87M205.3 258.87L204.93 257.78"/>
<path d="M221 257.78L221 258.87M221 258.87L220.27 260.33M220.27 260.33L218.81 261.06M218.81 261.06L217.35 261.43"/>
<path d="M234.51 229.3L234.14 229.3"/>
<path d="M200.55 231.49L200.92 230.76M200.92 230.76L201.28 229.67M201.28 229.67L202.01 229.3M202.01 229.3L203.11 229.3"/>
<path d="M211.51 229.3L210.78 229.3"/>
<path d="M179.38 229.3L180.11 229.3M180.11 229.3L180.84 229.67M180.84 229.67L181.57 230.76M181.57 230.76L181.57 231.49"/>
<path d="M218.81 257.78L218.44 258.51M218.44 258.51L217.35 258.87"/>
<path d="M208.59 258.87L207.86 258.51M207.86 258.51L207.49 257.78"/>
<path d="M187.04 257.78L186.68 258.51M186.68 258.51L185.95 258.87"/>
<path d="M177.19 258.87L176.46 258.51M176.46 258.51L175.73 257.78"/>
<path d="M213.33 237.7L212.97 238.43M212.97 238.43L212.24 238.79"/>
<path d="M233.41 238.79L232.32 238.43M232.32 238.43L231.95 237.7"/>
<path d="M234.14 207.03L234.51 207.39"/>
<path d="M181.57 204.84L181.57 205.57M181.57 205.57L180.84 206.66M180.84 206.66L180.11 207.03M180.11 207.03L179.38 207.39"/>
<path d="M210.78 207.39L211.51 207.03"/>
<path d="M203.11 207.39L202.01 207.03M202.01 207.03L201.28 206.66M201.28 206.66L200.92 205.57M200.92 205.57L200.55 204.84"/>
<path d="M240.35 261.43L238.89 261.06M238.89 261.06L237.79 260.33M237.79 260.33L236.7 258.87M236.7 258.87L236.7 257.41"/>
<path d="M252.76 257.78L252.4 258.87M252.4 258.87L251.67 260.33M251.67 260.33L250.57 261.06M250.57 261.06L249.11 261.43"/>
<path d="M271.75 261.43L270.29 261.06M270.29 261.06L269.19 260.33M269.19 260.33L268.46 258.87M268.46 258.87L268.1 257.78"/>
<path d="M284.16 257.78L284.16 258.87M284.16 258.87L283.43 260.33M283.43 260.33L281.97 261.06M281.97 261.06L280.51 261.43"/>
<path d="M295.12 231.49L295.48 230.76M295.48 230.76L295.85 229.67M295.85 229.67L296.94 229.3M296.94 229.3L297.67 229.3"/>
<path d="M263.72 231.49L263.72 230.76M263.72 230.76L264.45 229.67M264.45 229.67L265.18 229.3M265.18 229.3L266.27 229.3"/>
<path d="M273.94 229.3L274.67 229.3M274.67 229.3L275.76 229.67M275.76 229.67L276.13 230.76M276.13 230.76L276.13 231.49"/>
<path d="M242.54 229.3L243.27 229.3M243.27 229.3L244 229.67M244 229.67L244.73 230.76M244.73 230.76L244.73 231.49"/>
<path d="M281.97 257.78L281.61 258.51M281.61 258.51L280.51 258.87"/>
<path d="M271.75 258.87L271.02 258.51M271.02 258.51L270.65 257.78"/>
<path d="M250.21 257.78L249.84 258.51M249.84 258.51L249.11 258.87"/>
<path d="M240.35 258.87L239.62 258.51M239.62 258.51L238.89 257.78"/>
<path d="M297.67 207.39L296.94 207.03M296.94 207.03L295.85 206.66M295.85 206.66L295.48 205.57M295.48 205.57L295.12 204.84"/>
<path d="M276.13 204.84L276.13 205.57M276.13 205.57L275.76 206.66M275.76 206.66L274.67 207.03M274.67 207.03L273.94 207.39"/>
<path d="M266.27 207.39L265.18 207.03M265.18 207.03L264.45 206.66M264.45 206.66L263.72 205.57M263.72 205.57L263.72 204.84"/>
<path d="M244.73 204.84L244.73 205.57M244.73 205.57L244 206.66M244 206.66L243.27 207.03M243.27 207.03L242.54 207.39"/>
<path d="M57.43 167.23L57.8 165.77M57.8 165.77L58.53 164.31M58.53 164.31L59.62 163.58M59.62 163.58L61.08 163.58"/>
<path d="M91.39 174.9L92.85 175.26M92.85 175.26L93.94 176M93.94 176L94.67 177.09M94.67 177.09L95.04 178.55"/>
<path d="M78.97 178.55L78.97 177.09M78.97 177.09L80.07 176M80.07 176L81.16 175.26M81.16 175.26L82.62 174.9"/>
<path d="M122.79 174.9L124.25 175.26M124.25 175.26L125.71 176M125.71 176L126.44 177.09M126.44 177.09L126.44 178.55"/>
<path d="M110.37 178.55L110.74 177.09M110.74 177.09L111.47 176M111.47 176L112.56 175.26M112.56 175.26L114.02 174.9"/>
<path d="M154.19 174.9L155.65 175.26M155.65 175.26L157.11 176M157.11 176L157.84 177.09M157.84 177.09L157.84 178.55"/>
<path d="M142.14 178.55L142.14 177.09M142.14 177.09L142.87 176M142.87 176L144.33 175.26M144.33 175.26L145.79 174.9"/>
<path d="M44.65 154.09L45.02 152.63M45.02 152.63L45.75 151.53M45.75 151.53L46.84 150.8M46.84 150.8L48.31 150.44"/>
<path d="M121.33 184.76L122.42 184.76"/>
<path d="M144.33 178.55L145.06 177.82M145.06 177.82L145.79 177.46"/>
<path d="M154.19 177.46L155.28 177.82M155.28 177.82L155.65 178.55"/>
<path d="M112.93 178.55L113.29 177.82M113.29 177.82L114.02 177.46"/>
<path d="M122.79 177.46L123.88 177.82M123.88 177.82L124.25 178.55"/>
<path d="M81.16 178.55L81.89 177.82M81.89 177.82L82.62 177.46"/>
<path d="M91.39 177.46L92.12 177.82M92.12 177.82L92.48 178.55"/>
<path d="M74.23 199L74.59 197.9M74.59 197.9L75.69 197.54"/>
<path d="M44.65 118.31L45.02 116.12M45.02 116.12L45.38 114.29M45.38 114.29L46.48 112.47M46.48 112.47L47.57 111.01M47.57 111.01L49.04 109.91M49.04 109.91L50.86 109.18M50.86 109.18L52.69 108.45M52.69 108.45L54.51 108.09"/>
<path d="M50.86 118.31L51.23 116.85M51.23 116.85L51.96 115.75M51.96 115.75L53.05 114.66M53.05 114.66L54.51 114.66"/>
<path d="M185.95 174.9L187.41 175.26M187.41 175.26L188.5 176M188.5 176L189.6 177.09M189.6 177.09L189.6 178.55"/>
<path d="M173.54 178.55L173.9 177.09M173.9 177.09L174.63 176M174.63 176L175.73 175.26M175.73 175.26L177.19 174.9"/>
<path d="M217.35 174.9L218.81 175.26M218.81 175.26L220.27 176M220.27 176L221 177.09M221 177.09L221 178.55"/>
<path d="M204.93 178.55L205.3 177.09M205.3 177.09L206.03 176M206.03 176L207.13 175.26M207.13 175.26L208.59 174.9"/>
<path d="M249.11 174.9L250.57 175.26M250.57 175.26L251.67 176M251.67 176L252.4 177.09M252.4 177.09L252.76 178.55"/>
<path d="M236.7 178.55L236.7 177.09M236.7 177.09L237.79 176M237.79 176L238.89 175.26M238.89 175.26L240.35 174.9"/>
<path d="M280.51 174.9L281.97 175.26M281.97 175.26L283.43 176M283.43 176L284.16 177.09M284.16 177.09L284.16 178.55"/>
<path d="M268.1 178.55L268.46 177.09M268.46 177.09L269.19 176M269.19 176L270.29 175.26M270.29 175.26L271.75 174.9"/>
<path d="M279.05 184.76L279.78 184.76"/>
<path d="M270.65 178.55L271.02 177.82M271.02 177.82L271.75 177.46"/>
<path d="M280.51 177.46L281.61 177.82M281.61 177.82L281.97 178.55"/>
<path d="M238.89 178.55L239.62 177.82M239.62 177.82L240.35 177.46"/>
<path d="M249.11 177.46L249.84 177.82M249.84 177.82L250.21 178.55"/>
<path d="M207.49 178.55L207.86 177.82M207.86 177.82L208.59 177.46"/>
<path d="M217.35 177.46L218.44 177.82M218.44 177.82L218.81 178.55"/>
<path d="M175.73 178.55L176.46 177.82M176.46 177.82L177.19 177.46"/>
<path d="M185.95 177.46L186.68 177.82M186.68 177.82L187.04 178.55"/>
<path d="M212.24 197.54L212.97 197.9M212.97 197.9L213.33 199"/>
<path d="M231.95 199L232.32 197.9M232.32 197.9L233.41 197.54"/>
<path d="M197.27 106.26L197.27 108.09M197.27 108.09L196.17 109.55M196.17 109.55L194.71 110.64M194.71 110.64L192.89 111.01"/>
<path d="M216.25 97.13L216.98 95.67M216.98 95.67L217.71 94.58M217.71 94.58L218.81 93.48M218.81 93.48L219.9 93.48"/>
<path d="M230.13 82.89L230.49 81.43M230.49 81.43L231.22 79.97M231.22 79.97L232.68 79.24M232.68 79.24L234.14 78.88"/>
<path d="M300.96 139.12L300.59 140.58M300.59 140.58L299.86 142.04M299.86 142.04L298.77 142.77M298.77 142.77L296.94 143.14"/>
<path d="M300.96 125.61L300.59 127.07M300.59 127.07L299.86 128.17M299.86 128.17L298.77 128.9M298.77 128.9L296.94 129.63"/>
<path d="M249.84 129.63L248.38 128.9M248.38 128.9L247.29 128.17M247.29 128.17L246.56 127.07M246.56 127.07L246.19 125.61"/>
<path d="M249.84 143.14L248.38 142.77M248.38 142.77L247.29 142.04M247.29 142.04L246.56 140.58M246.56 140.58L246.19 139.12"/>
<path d="M230.13 82.89L230.13 83.26"/>
<path d="M194.71 83.62L195.08 82.53M195.08 82.53L195.81 81.43M195.81 81.43L196.54 81.07M196.54 81.07L197.27 80.7"/>
<path d="M203.47 80.7L204.57 81.07M204.57 81.07L205.3 81.43M205.3 81.43L206.03 82.53M206.03 82.53L206.03 83.62"/>
<path d="M206.39 81.8L206.76 82.89M206.76 82.89L206.76 83.62"/>
<path d="M189.6 109.91L189.97 108.82M189.97 108.82L191.43 108.09"/>
<path d="M195.08 106.26L194.35 107.72M194.35 107.72L192.89 108.21"/>
<path d="M303.51 261.43L302.05 261.06M302.05 261.06L300.59 260.33M300.59 260.33L299.86 258.87M299.86 258.87L299.86 257.41"/>
<path d="M315.56 257.41L315.56 258.87M315.56 258.87L314.83 260.33M314.83 260.33L313.37 261.06M313.37 261.06L311.91 261.43"/>
<path d="M334.91 261.43L333.45 261.06M333.45 261.06L332.36 260.33M332.36 260.33L331.63 258.87M331.63 258.87L331.26 257.41"/>
<path d="M347.33 257.41L346.96 258.87M346.96 258.87L346.23 260.33M346.23 260.33L345.13 261.06M345.13 261.06L343.67 261.43"/>
<path d="M366.31 261.43L364.85 261.06M364.85 261.06L363.75 260.33M363.75 260.33L363.02 258.87M363.02 258.87L362.66 257.41"/>
<path d="M378.72 257.41L378.36 258.87M378.36 258.87L377.63 260.33M377.63 260.33L376.53 261.06M376.53 261.06L375.07 261.43"/>
<path d="M358.28 231.49L358.64 230.76M358.64 230.76L359.01 229.67M359.01 229.67L359.74 229.3M359.74 229.3L360.83 229.3"/>
<path d="M369.23 229.3L368.5 229.3"/>
<path d="M326.88 231.49L326.88 230.76M326.88 230.76L327.61 229.67M327.61 229.67L328.34 229.3M328.34 229.3L329.07 229.3"/>
<path d="M337.1 229.3L337.83 229.3M337.83 229.3L338.56 229.67M338.56 229.67L339.29 230.76M339.29 230.76L339.29 231.49"/>
<path d="M305.34 229.3L306.43 229.3M306.43 229.3L307.16 229.67M307.16 229.67L307.53 230.76M307.53 230.76L307.89 231.49"/>
<path d="M368.5 207.39L369.23 207.03"/>
<path d="M360.83 207.39L359.74 207.03M359.74 207.03L359.01 206.66M359.01 206.66L358.64 205.57M358.64 205.57L358.28 204.84"/>
<path d="M339.29 204.84L339.29 205.57M339.29 205.57L338.56 206.66M338.56 206.66L337.83 207.03M337.83 207.03L337.1 207.39"/>
<path d="M329.07 207.39L328.34 207.03M328.34 207.03L327.61 206.66M327.61 206.66L326.88 205.57M326.88 205.57L326.88 204.84"/>
<path d="M307.89 204.84L307.53 205.57M307.53 205.57L307.16 206.66M307.16 206.66L306.43 207.03M306.43 207.03L305.34 207.39"/>
<path d="M376.53 257.78L376.17 258.51M376.17 258.51L375.07 258.87"/>
<path d="M366.31 258.87L365.58 258.51M365.58 258.51L365.22 257.78"/>
<path d="M344.77 257.78L344.4 258.51M344.4 258.51L343.67 258.87"/>
<path d="M334.91 258.87L334.18 258.51M334.18 258.51L333.45 257.78"/>
<path d="M313.37 257.78L313.01 258.51M313.01 258.51L311.91 258.87"/>
<path d="M303.51 258.87L302.42 258.51M302.42 258.51L302.05 257.78"/>
<path d="M371.06 237.7L370.69 238.43M370.69 238.43L369.96 238.79"/>
<path d="M552.15 319.48L551.78 321.31M551.78 321.31L551.42 323.13M551.42 323.13L550.32 324.96M550.32 324.96L549.23 326.42M549.23 326.42L547.77 327.51M547.77 327.51L546.31 328.61M546.31 328.61L544.48 328.97M544.48 328.97L542.29 329.34"/>
<path d="M552.15 282.24L551.78 283.7M551.78 283.7L551.05 284.8M551.05 284.8L549.96 285.53M549.96 285.53L548.5 285.89"/>
<path d="M536.08 304.51L534.62 304.15M534.62 304.15L533.53 303.42M533.53 303.42L532.43 302.32M532.43 302.32L532.43 300.5"/>
<path d="M552.15 300.5L551.78 302.32M551.78 302.32L551.05 303.42M551.05 303.42L549.96 304.15M549.96 304.15L548.5 304.51"/>
<path d="M545.94 319.48L545.58 320.94M545.58 320.94L544.85 322.04M544.85 322.04L543.75 322.77M543.75 322.77L542.29 323.13"/>
<path d="M552.15 260.33L551.78 261.79M551.78 261.79L551.05 265.45"/>
<path d="M395.52 146.79L395.52 148.25M395.52 148.25L395.15 149.71M395.15 149.71L394.42 150.8M394.42 150.8L393.69 151.9M393.69 151.9L392.6 152.99M392.6 152.99L391.14 153.72M391.14 153.72L389.68 154.09M389.68 154.09L388.22 154.09"/>
<path d="M311.91 174.9L313.37 175.26M313.37 175.26L314.83 176M314.83 176L315.56 177.09M315.56 177.09L315.56 178.55"/>
<path d="M299.86 178.55L299.86 177.09M299.86 177.09L300.59 176M300.59 176L302.05 175.26M302.05 175.26L303.51 174.9"/>
<path d="M343.67 174.9L345.13 175.26M345.13 175.26L346.23 176M346.23 176L346.96 177.09M346.96 177.09L347.33 178.55"/>
<path d="M331.26 178.55L331.63 177.09M331.63 177.09L332.36 176M332.36 176L333.45 175.26M333.45 175.26L334.91 174.9"/>
<path d="M375.07 174.9L376.53 175.26M376.53 175.26L377.63 176M377.63 176L378.36 177.09M378.36 177.09L378.72 178.55"/>
<path d="M362.66 178.55L363.02 177.09M363.02 177.09L363.75 176M363.75 176L364.85 175.26M364.85 175.26L366.31 174.9"/>
<path d="M391.87 146.79L391.5 148.25M391.5 148.25L390.77 149.34M390.77 149.34L389.68 150.07M389.68 150.07L388.22 150.44"/>
<path d="M365.22 178.55L365.58 177.82M365.58 177.82L366.31 177.46"/>
<path d="M375.07 177.46L376.17 177.82M376.17 177.82L376.53 178.55"/>
<path d="M333.45 178.55L334.18 177.82M334.18 177.82L334.91 177.46"/>
<path d="M343.67 177.46L344.4 177.82M344.4 177.82L344.77 178.55"/>
<path d="M302.05 178.55L302.42 177.82M302.42 177.82L303.51 177.46"/>
<path d="M311.91 177.46L313.01 177.82M313.01 177.82L313.37 178.55"/>
<path d="M369.96 197.54L370.69 197.9M370.69 197.9L371.06 199"/>
<path d="M391.87 124.15L391.87 123.06M391.87 123.06L392.23 121.59M392.23 121.59L392.6 120.5M392.6 120.5L392.96 119.4M392.96 119.4L393.33 118.31M393.33 118.31L394.06 117.21M394.06 117.21L394.79 116.48M394.79 116.48L395.52 115.39M395.52 115.39L396.61 114.66M396.61 114.66L397.34 113.93M397.34 113.93L398.44 113.56M398.44 113.56L399.53 112.83M399.53 112.83L400.63 112.47M400.63 112.47L401.73 112.1M401.73 112.1L403.19 112.1M403.19 112.1L404.28 111.74"/>
<path d="M391.87 111.01L391.87 109.55M391.87 109.55L392.23 108.09M392.23 108.09L392.6 106.99M392.6 106.99L392.96 105.9M392.96 105.9L393.33 104.8M393.33 104.8L394.06 103.7M394.06 103.7L394.79 102.61M394.79 102.61L395.52 101.88M395.52 101.88L396.61 101.15M396.61 101.15L397.34 100.42M397.34 100.42L398.44 99.69M398.44 99.69L399.53 99.32M399.53 99.32L400.63 98.96M400.63 98.96L401.73 98.59M401.73 98.59L403.19 98.23M403.19 98.23L404.28 98.59"/>
<path d="M395.52 124.52L395.88 122.69M395.88 122.69L396.25 120.86M396.25 120.86L396.98 119.4M396.98 119.4L398.07 118.31M398.07 118.31L399.53 117.21M399.53 117.21L401 116.12M401 116.12L402.46 115.75M402.46 115.75L404.28 115.75"/>
<path d="M354.26 111.01L352.44 110.64M352.44 110.64L350.98 109.55M350.98 109.55L350.25 108.09M350.25 108.09L349.88 106.26"/>
<path d="M326.88 93.48L328.34 93.48M328.34 93.48L329.8 94.58M329.8 94.58L330.53 95.67M330.53 95.67L330.53 97.13"/>
<path d="M313.37 78.88L314.83 79.24M314.83 79.24L315.93 79.97M315.93 79.97L316.66 81.43M316.66 81.43L317.02 82.89"/>
<path d="M392.96 105.9L392.23 106.99M392.23 106.99L391.5 107.72M391.5 107.72L390.41 108.09M390.41 108.09L389.31 108.09"/>
<path d="M317.02 83.26L317.02 82.89"/>
<path d="M340.39 83.62L340.39 82.89M340.39 82.89L341.85 80.7"/>
<path d="M349.52 80.7L350.98 81.07M350.98 81.07L351.71 81.43M351.71 81.43L352.07 82.53M352.07 82.53L352.44 83.62"/>
<path d="M341.12 83.62L341.48 82.53M341.48 82.53L341.85 81.43M341.85 81.43L342.58 81.07M342.58 81.07L343.67 80.7"/>
<path d="M356.09 108.09L357.18 108.82M357.18 108.82L357.91 109.91"/>
<path d="M354.26 108.09L352.8 107.72M352.8 107.72L352.44 106.26"/>
<path d="M535.72 169.79L537.18 170.15M537.18 170.15L538.27 170.88M538.27 170.88L539 171.98M539 171.98L539.37 173.44"/>
<path d="M539.73 111.74L540.83 112.1M540.83 112.1L542.29 112.1M542.29 112.1L543.39 112.47M543.39 112.47L544.48 112.83M544.48 112.83L545.58 113.56M545.58 113.56L546.67 113.93M546.67 113.93L547.4 114.66M547.4 114.66L548.5 115.39M548.5 115.39L549.23 116.48M549.23 116.48L549.96 117.21M549.96 117.21L550.69 118.31M550.69 118.31L551.05 119.4M551.05 119.4L551.42 120.5M551.42 120.5L551.78 121.59M551.78 121.59L552.15 123.06M552.15 123.06L552.15 124.15"/>
<path d="M539.73 98.59L540.83 98.23M540.83 98.23L542.29 98.59M542.29 98.59L543.39 98.96M543.39 98.96L544.48 99.32M544.48 99.32L545.58 99.69M545.58 99.69L546.67 100.42M546.67 100.42L547.4 101.15M547.4 101.15L548.5 101.88M548.5 101.88L549.23 102.61M549.23 102.61L549.96 103.7M549.96 103.7L550.69 104.8M550.69 104.8L551.05 105.9M551.05 105.9L551.42 106.99M551.42 106.99L551.78 108.09M551.78 108.09L552.15 109.55M552.15 109.55L552.15 111.01"/>
<path d="M539.73 115.75L541.56 115.75M541.56 115.75L543.02 116.12M543.02 116.12L544.48 117.21M544.48 117.21L545.94 118.31M545.94 118.31L547.04 119.4M547.04 119.4L547.77 120.86M547.77 120.86L548.13 122.69M548.13 122.69L548.5 124.52"/>
<path d="M45.75 172.71L49.4 176.36"/>
<path d="M57.43 172.71L59.99 174.9"/>
<path d="M551.05 181.47L547.4 185.12"/>
<path d="M539.37 181.47L535.35 185.12"/>
<path d="M401 169.79L400.27 173.44"/>
<path d="M382.37 163.58L381.64 167.23"/>
<path d="M45.75 273.11L49.4 269.46"/>
<path d="M551.05 273.11L547.4 269.46"/>
<path d="M372.15 185.12L372.15 184.76"/>
<path d="M88.1 185.12L88.1 184.76"/>
<path d="M340.39 185.12L340.39 184.76"/>
<path d="M308.99 185.12L308.99 184.76"/>
<path d="M119.5 185.12L119.5 184.76"/>
<path d="M277.23 185.12L277.23 184.76"/>
<path d="M151.26 185.12L151.26 184.76"/>
<path d="M245.83 185.12L245.83 184.76"/>
<path d="M214.43 185.12L214.43 184.76"/>
<path d="M182.66 185.12L182.66 184.76"/>
<path d="M356.09 108.09L356.09 108.45M356.09 108.45L355.72 108.45M355.72 108.45L355.72 108.82M355.72 108.82L355.36 109.55M355.36 109.55L354.99 111.01"/>
<path d="M205.66 102.24L205.66 99.69"/>
<path d="M206.03 83.62L206.03 84.35M206.03 84.35L205.66 86.54M205.66 86.54L205.66 99.69"/>
<path d="M205.66 99.69L205.66 102.24"/>
<path d="M341.12 102.24L341.12 99.69"/>
<path d="M341.12 102.24L341.12 99.69"/>
<path d="M341.12 99.69L341.12 83.62"/>
<path d="M189.6 109.91L189.97 110.28M189.97 110.28L190.7 110.64M190.7 110.64L191.79 111.01"/>
<path d="M230.13 87.64L230.13 86.91M230.13 86.91L230.49 86.18M230.49 86.18L231.22 85.45M231.22 85.45L231.95 84.72M231.95 84.72L233.78 84.72"/>
<path d="M230.13 82.89L230.13 81.8M230.13 81.8L230.86 81.43"/>
<path d="M230.86 81.43L231.22 80.7M231.22 80.7L231.95 80.34M231.95 80.34L233.05 79.97M233.05 79.97L233.78 79.97"/>
<path d="M317.02 82.89L316.66 81.8M316.66 81.8L316.29 81.43"/>
<path d="M316.29 81.43L315.56 80.7M315.56 80.7L314.83 80.34M314.83 80.34L314.1 79.97M314.1 79.97L313.37 79.97"/>
<path d="M205.66 105.9L204.57 109.18M204.57 109.18L203.47 112.1"/>
<path d="M204.2 80.7L204.93 81.07M204.93 81.07L205.66 81.07M205.66 81.07L205.66 81.8M205.66 81.8L206.39 81.8"/>
<path d="M205.66 102.24L205.66 104.07M205.66 104.07L205.66 105.9"/>
<path d="M343.67 112.1L342.58 109.18M342.58 109.18L341.85 105.9"/>
<path d="M341.85 105.9L341.12 104.07M341.12 104.07L341.12 102.24"/>
<path d="M354.99 111.01L356.45 110.64M356.45 110.64L356.82 110.28M356.82 110.28L357.91 109.91"/>
<path d="M191.79 111.01L191.79 109.55M191.79 109.55L191.43 109.18M191.43 109.18L191.43 108.09"/>
<path d="M391.87 111.01L391.5 111.37M391.5 111.37L389.68 111.74M389.68 111.74L388.22 112.1"/>
<path d="M203.47 80.7L203.47 105.9"/>
<path d="M343.67 105.9L343.67 80.7"/>
<path d="M317.02 87.64L316.66 86.91M316.66 86.91L316.66 86.18M316.66 86.18L315.93 85.45M315.93 85.45L315.2 84.72M315.2 84.72L313.37 84.72"/>
<path d="M388.22 112.1L388.58 109.91M388.58 109.91L388.95 109.18M388.95 109.18L389.31 108.09"/>
<path d="M91.39 185.49L91.02 185.12M91.02 185.12L90.66 185.12"/>
<path d="M375.07 185.49L374.71 185.12M374.71 185.12L374.34 185.12"/>
<path d="M343.67 185.49L343.31 185.12M343.31 185.12L342.94 185.12"/>
<path d="M122.79 185.49L122.42 185.12"/>
<path d="M311.91 185.49L311.91 185.12M311.91 185.12L311.18 185.12"/>
<path d="M154.19 185.49L154.19 185.12M154.19 185.12L153.82 185.12"/>
<path d="M280.51 185.49L280.15 185.12M280.15 185.12L279.78 185.12"/>
<path d="M249.11 185.49L248.75 185.12M248.75 185.12L248.02 185.12"/>
<path d="M185.95 185.49L185.58 185.12M185.58 185.12L185.22 185.12"/>
<path d="M217.35 185.49L216.98 185.12"/>
<path d="M206.76 83.62L206.76 84.72"/>
<path d="M340.39 84.72L340.39 83.62"/>
<path d="M288.91 305.61L307.89 305.61"/>
<path d="M277.96 304.15L318.85 304.15"/>
<path d="M279.05 299.4L317.75 299.4"/>
<path d="M321.59 303.23L317.75 299.4"/>
<path d="M274.3 285.89L274.3 300.5"/>
<path d="M279.05 285.89L279.05 299.4"/>
<path d="M288.91 304.15L288.91 305.61"/>
<path d="M307.89 304.15L307.89 305.61"/>
<path d="M317.75 299.4L317.75 285.89"/>
<path d="M322.5 300.5L322.5 285.89"/>
<path d="M275.4 303.05L279.05 299.4"/>
<path d="M277.96 304.15L276.49 304.15M276.49 304.15L275.4 303.05M275.4 303.05L274.3 301.96M274.3 301.96L274.3 300.5"/>
<path d="M322.5 300.5L322.5 301.96M322.5 301.96L321.77 303.05M321.77 303.05L320.67 304.15M320.67 304.15L318.85 304.15"/>
</g>
</g>
</svg>
