<?xml version="1.0" standalone="no"?><svg xmlns="http://www.w3.org/2000/svg" width="600.000" height="450.000" viewBox="0.0 0.0 600.000 450.000" version="1.1">
<title>Acme Converter - Post-processed with EDS-Designer: 14.44 (info@symca.com)</title>
<desc>Acme Converter - Post-processed with EDS-Designer: 14.44 (info@symca.com)</desc>
<g id="EDS_STYLE_GROUP" fill="none" stroke="black" stroke-width="1.0">
<g id="0" display="visible">
<path d="M241.15 389.41L241.15 362.41M242.44 362.41L242.44 389.41M237.3 362.41L252.73 362.41M252.73 362.41L256.59 363.69M256.59 363.69L257.87 364.98M257.87 364.98L259.16 367.55M259.16 367.55L259.16 370.12M259.16 370.12L257.87 372.7M257.87 372.7L256.59 373.98M256.59 373.98L252.73 375.27M252.73 362.41L255.3 363.69M255.3 363.69L256.59 364.98M256.59 364.98L257.87 367.55M257.87 367.55L257.87 370.12M257.87 370.12L256.59 372.7M256.59 372.7L255.3 373.98M255.3 373.98L252.73 375.27M242.44 375.27L252.73 375.27M252.73 375.27L256.59 376.55M256.59 376.55L257.87 377.84M257.87 377.84L259.16 380.41M259.16 380.41L259.16 384.27M259.16 384.27L257.87 386.84M257.87 386.84L256.59 388.13M256.59 388.13L252.73 389.41M252.73 389.41L237.3 389.41M252.73 375.27L255.3 376.55M255.3 376.55L256.59 377.84M256.59 377.84L257.87 380.41M257.87 380.41L257.87 384.27M257.87 384.27L256.59 386.84M256.59 386.84L255.3 388.13M255.3 388.13L252.73 389.41M269.45 389.41L269.45 362.41M270.73 362.41L270.73 389.41M265.59 362.41L274.59 362.41M265.59 389.41L284.88 389.41M284.88 389.41L284.88 381.7M284.88 381.7L283.59 389.41M292.6 362.41L292.6 381.7M292.6 381.7L293.88 385.56M293.88 385.56L296.45 388.13M296.45 388.13L300.31 389.41M300.31 389.41L302.88 389.41M302.88 389.41L306.74 388.13M306.74 388.13L309.31 385.56M309.31 385.56L310.6 381.7M310.6 381.7L310.6 362.41M293.88 362.41L293.88 381.7M293.88 381.7L295.17 385.56M295.17 385.56L297.74 388.13M297.74 388.13L300.31 389.41M288.74 362.41L297.74 362.41M306.74 362.41L314.46 362.41M323.46 389.41L323.46 362.41M324.75 362.41L324.75 389.41M332.46 370.12L332.46 380.41M319.6 362.41L340.18 362.41M340.18 362.41L340.18 370.12M340.18 370.12L338.89 362.41M324.75 375.27L332.46 375.27M319.6 389.41L340.18 389.41M340.18 389.41L340.18 381.7M340.18 381.7L338.89 389.41"/>
<path d="M59.16 291.33L59.16 309.47"/>
<path d="M66.65 293.62L66.65 307.18"/>
<path d="M60.68 287.66L66.65 293.62"/>
<path d="M98.05 286.14L105.54 293.62"/>
<path d="M98.05 200.58L98.05 286.14"/>
<path d="M98.05 314.66L98.05 322.44"/>
<path d="M105.54 195.1L105.54 293.62"/>
<path d="M111.01 314.66L111.01 335.4"/>
<path d="M120.09 209.66L120.09 256.33"/>
<path d="M134.35 223.92L134.35 242.07"/>
<path d="M152.5 242.07L152.5 223.92"/>
<path d="M505.09 335.4L111.01 335.4"/>
<path d="M98.05 322.44L518.06 322.44"/>
<path d="M101.85 191.42L105.54 195.1"/>
<path d="M152.5 242.07L166.76 256.33"/>
<path d="M134.35 223.92L120.09 209.66"/>
<path d="M166.76 256.33L166.76 209.66"/>
<path d="M341.76 314.66L64.35 314.66"/>
<path d="M383.24 314.66L505.09 314.66"/>
<path d="M341.76 313.36L383.24 313.36"/>
<path d="M66.65 307.18L334.27 307.18"/>
<path d="M390.72 307.18L510.57 307.18"/>
<path d="M185.94 209.66L185.94 256.33"/>
<path d="M200.2 223.92L200.2 242.07"/>
<path d="M341.76 300.4L383.24 300.4"/>
<path d="M390.72 293.92L383.24 293.92"/>
<path d="M334.27 293.92L341.76 293.92"/>
<path d="M105.54 293.62L66.65 293.62"/>
<path d="M98.05 286.14L64.35 286.14"/>
<path d="M214.72 187.62L214.72 73.54"/>
<path d="M218.35 242.07L218.35 223.92"/>
<path d="M60.68 313.14L66.65 307.18"/>
<path d="M134.35 242.07L120.09 256.33"/>
<path d="M152.5 223.92L166.76 209.66"/>
<path d="M218.35 242.07L232.61 256.33"/>
<path d="M200.2 223.92L185.94 209.66"/>
<path d="M222.2 195.1L222.2 122.51"/>
<path d="M227.68 115.03L227.68 60.58"/>
<path d="M232.61 256.33L232.61 209.66"/>
<path d="M120.09 256.33L166.76 256.33"/>
<path d="M185.94 256.33L232.61 256.33"/>
<path d="M251.79 256.33L298.46 256.33"/>
<path d="M317.65 256.33L364.31 256.33"/>
<path d="M383.5 256.33L430.17 256.33"/>
<path d="M449.35 256.33L496.02 256.33"/>
<path d="M240.65 195.1L240.65 91.69"/>
<path d="M251.79 209.66L251.79 256.33"/>
<path d="M134.35 242.07L152.5 242.07"/>
<path d="M200.2 242.07L218.35 242.07"/>
<path d="M266.05 242.07L284.2 242.07"/>
<path d="M331.91 242.07L350.05 242.07"/>
<path d="M397.76 242.07L415.91 242.07"/>
<path d="M463.61 242.07L481.76 242.07"/>
<path d="M341.76 314.66L334.27 307.18"/>
<path d="M222.2 195.1L214.72 187.62"/>
<path d="M284.2 242.07L298.46 256.33"/>
<path d="M266.05 223.92L251.79 209.66"/>
<path d="M268.81 187.62L268.83 187.88"/>
<path d="M261.39 73.54L261.39 187.62"/>
<path d="M266.05 223.92L266.05 242.07"/>
<path d="M268.83 143.76L268.83 187.88"/>
<path d="M200.2 242.07L185.94 256.33"/>
<path d="M218.35 223.92L232.61 209.66"/>
<path d="M481.76 223.92L463.61 223.92"/>
<path d="M415.91 223.92L397.76 223.92"/>
<path d="M350.05 223.92L331.91 223.92"/>
<path d="M284.2 223.92L266.05 223.92"/>
<path d="M218.35 223.92L200.2 223.92"/>
<path d="M152.5 223.92L134.35 223.92"/>
<path d="M274.35 60.58L274.35 73.54"/>
<path d="M281.78 176.56L281.78 195.1"/>
<path d="M284.2 242.07L284.2 223.92"/>
<path d="M496.02 209.66L449.35 209.66"/>
<path d="M430.17 209.66L383.5 209.66"/>
<path d="M364.31 209.66L317.65 209.66"/>
<path d="M298.46 209.66L251.79 209.66"/>
<path d="M232.61 209.66L185.94 209.66"/>
<path d="M166.76 209.66L120.09 209.66"/>
<path d="M297.68 98.08L297.68 117.33"/>
<path d="M298.46 256.33L298.46 209.66"/>
<path d="M266.05 242.07L251.79 256.33"/>
<path d="M284.2 223.92L298.46 209.66"/>
<path d="M510.57 195.1L393.9 195.1"/>
<path d="M375.46 195.1L334.33 195.1"/>
<path d="M281.78 195.1L240.65 195.1"/>
<path d="M222.2 195.1L105.54 195.1"/>
<path d="M505.09 187.62L401.39 187.62"/>
<path d="M214.72 187.62L111.01 187.62"/>
<path d="M240.65 187.62L268.81 187.62"/>
<path d="M347.3 187.62L375.46 187.62"/>
<path d="M218.52 118.82L222.2 122.51"/>
<path d="M350.05 242.07L364.31 256.33"/>
<path d="M331.91 223.92L317.65 209.66"/>
<path d="M261.39 115.03L267.66 127.42"/>
<path d="M317.65 209.66L317.65 256.33"/>
<path d="M318.42 98.08L318.42 117.33"/>
<path d="M354.72 115.03L348.45 127.42"/>
<path d="M393.9 122.51L397.59 118.82"/>
<path d="M334.33 176.56L281.78 176.56"/>
<path d="M331.91 223.92L331.91 242.07"/>
<path d="M334.27 307.18L334.27 293.92"/>
<path d="M334.33 195.1L334.33 176.56"/>
<path d="M341.76 314.66L341.76 293.92"/>
<path d="M341.76 73.54L341.76 60.58"/>
<path d="M347.28 187.88L347.28 143.76"/>
<path d="M350.05 242.07L350.05 223.92"/>
<path d="M354.72 73.54L354.72 187.62"/>
<path d="M347.28 187.88L347.3 187.62"/>
<path d="M331.91 242.07L317.65 256.33"/>
<path d="M350.05 223.92L364.31 209.66"/>
<path d="M401.39 187.62L393.9 195.1"/>
<path d="M348.45 127.42L267.66 127.42"/>
<path d="M397.76 223.92L383.5 209.66"/>
<path d="M415.91 242.07L430.17 256.33"/>
<path d="M364.31 256.33L364.31 209.66"/>
<path d="M375.46 195.1L375.46 91.69"/>
<path d="M393.9 122.51L375.46 122.51"/>
<path d="M240.65 122.51L222.2 122.51"/>
<path d="M297.68 117.33L318.42 117.33"/>
<path d="M388.43 115.03L375.46 115.03"/>
<path d="M354.72 115.03L318.42 115.03"/>
<path d="M297.68 115.03L261.39 115.03"/>
<path d="M240.65 115.03L227.68 115.03"/>
<path d="M514.26 310.86L510.57 307.18"/>
<path d="M383.24 293.92L383.24 314.66"/>
<path d="M383.5 209.66L383.5 256.33"/>
<path d="M388.43 60.58L388.43 115.03"/>
<path d="M390.72 293.92L390.72 307.18"/>
<path d="M393.9 122.51L393.9 195.1"/>
<path d="M397.76 223.92L397.76 242.07"/>
<path d="M397.76 242.07L383.5 256.33"/>
<path d="M415.91 223.92L430.17 209.66"/>
<path d="M401.39 102.06L375.46 102.06"/>
<path d="M214.72 102.06L240.65 102.06"/>
<path d="M354.72 98.08L318.42 98.08"/>
<path d="M297.68 98.08L261.39 98.08"/>
<path d="M354.72 89.1L261.39 89.1"/>
<path d="M463.61 223.92L449.35 209.66"/>
<path d="M481.76 242.07L496.02 256.33"/>
<path d="M401.39 73.54L401.39 187.62"/>
<path d="M245.83 86.51L261.39 86.51"/>
<path d="M354.72 86.51L370.28 86.51"/>
<path d="M214.72 73.54L401.39 73.54"/>
<path d="M415.91 242.07L415.91 223.92"/>
<path d="M430.17 256.33L430.17 209.66"/>
<path d="M227.68 60.58L388.43 60.58"/>
<path d="M449.35 209.66L449.35 256.33"/>
<path d="M383.24 314.66L390.72 307.18"/>
<path d="M514.26 191.42L510.57 195.1"/>
<path d="M463.61 242.07L449.35 256.33"/>
<path d="M481.76 223.92L496.02 209.66"/>
<path d="M463.61 223.92L463.61 242.07"/>
<path d="M481.76 242.07L481.76 223.92"/>
<path d="M496.02 256.33L496.02 209.66"/>
<path d="M505.09 314.66L505.09 335.4"/>
<path d="M510.57 307.18L510.57 195.1"/>
<path d="M518.06 322.44L518.06 200.58"/>
<path d="M390.72 293.92L389.02 284.26M389.02 284.26L384.12 275.78M384.12 275.78L376.61 269.47M376.61 269.47L367.4 266.12M367.4 266.12L357.6 266.12M357.6 266.12L348.39 269.47M348.39 269.47L340.88 275.78M340.88 275.78L335.98 284.26M335.98 284.26L334.27 293.92"/>
<path d="M383.24 293.92L381.66 285.98M381.66 285.98L377.17 279.25M377.17 279.25L370.44 274.76M370.44 274.76L362.5 273.18M362.5 273.18L354.56 274.76M354.56 274.76L347.83 279.25M347.83 279.25L343.34 285.98M343.34 285.98L341.76 293.92"/>
<path d="M98.05 322.44L99.79 328.92M99.79 328.92L104.53 333.66M104.53 333.66L111.01 335.4"/>
<path d="M505.09 335.4L511.58 333.66M511.58 333.66L516.32 328.92M516.32 328.92L518.06 322.44"/>
<path d="M401.39 73.54L399.65 67.06M399.65 67.06L394.91 62.32M394.91 62.32L388.43 60.58"/>
<path d="M227.68 60.58L221.2 62.32M221.2 62.32L216.46 67.06M216.46 67.06L214.72 73.54"/>
<path d="M274.35 60.58L267.87 62.32M267.87 62.32L263.12 67.06M263.12 67.06L261.39 73.54"/>
<path d="M354.72 73.54L352.98 67.06M352.98 67.06L348.24 62.32M348.24 62.32L341.76 60.58"/>
<path d="M111.01 187.62L104.53 189.36M104.53 189.36L99.79 194.1M99.79 194.1L98.05 200.58"/>
<path d="M227.68 115.03L221.2 116.76M221.2 116.76L216.46 121.51M216.46 121.51L214.72 127.99"/>
<path d="M505.09 314.66L511.58 312.92M511.58 312.92L516.32 308.18M516.32 308.18L518.06 301.7"/>
<path d="M518.06 200.58L516.32 194.1M516.32 194.1L511.58 189.36M511.58 189.36L505.09 187.62"/>
<path d="M401.39 127.99L399.65 121.51M399.65 121.51L394.91 116.76M394.91 116.76L388.43 115.03"/>
<path d="M64.35 286.14L60.68 287.66M60.68 287.66L59.16 291.33"/>
<path d="M375.46 91.69L373.94 88.03M373.94 88.03L370.28 86.51"/>
<path d="M245.83 86.51L242.16 88.03M242.16 88.03L240.65 91.69"/>
<path d="M59.16 309.47L60.68 313.14M60.68 313.14L64.35 314.66"/>
<path d="M347.28 143.76L347.26 144.31M347.26 144.31L347.21 144.87M347.21 144.87L347.15 145.42M347.15 145.42L347.08 145.97M347.08 145.97L347 146.52M347 146.52L346.9 147.06M346.9 147.06L346.79 147.61M346.79 147.61L346.68 148.15M346.68 148.15L346.55 148.69M346.55 148.69L346.41 149.23M346.41 149.23L346.27 149.76M346.27 149.76L346.12 150.3M346.12 150.3L345.8 151.36M345.8 151.36L345.46 152.41M345.46 152.41L345.1 153.46M345.1 153.46L344.72 154.5M344.72 154.5L344.32 155.54M344.32 155.54L343.91 156.57M343.91 156.57L343.49 157.6M343.49 157.6L343.06 158.62M343.06 158.62L342.62 159.63M342.62 159.63L342.17 160.65M342.17 160.65L341.71 161.66M341.71 161.66L341.25 162.66M341.25 162.66L340.3 164.67M340.3 164.67L339.33 166.67M339.33 166.67L338.35 168.65M338.35 168.65L337.35 170.64M337.35 170.64L336.35 172.61M336.35 172.61L334.33 176.56"/>
<path d="M347.28 187.88L347.26 188.13M347.26 188.13L347.22 188.38M347.22 188.38L347.17 188.63M347.17 188.63L347.11 188.87M347.11 188.87L347.03 189.11M347.03 189.11L346.94 189.34M346.94 189.34L346.84 189.58M346.84 189.58L346.73 189.8M346.73 189.8L346.61 190.02M346.61 190.02L346.47 190.23M346.47 190.23L346.33 190.44M346.33 190.44L346.18 190.64M346.18 190.64L346.03 190.84M346.03 190.84L345.86 191.03M345.86 191.03L345.69 191.22M345.69 191.22L345.52 191.4M345.52 191.4L345.34 191.57M345.34 191.57L345.15 191.74M345.15 191.74L344.76 192.06M344.76 192.06L344.36 192.36M344.36 192.36L343.94 192.64M343.94 192.64L343.51 192.9M343.51 192.9L343.07 193.14M343.07 193.14L342.62 193.37M342.62 193.37L342.17 193.58M342.17 193.58L341.7 193.77M341.7 193.77L341.23 193.95M341.23 193.95L340.76 194.12M340.76 194.12L340.28 194.27M340.28 194.27L339.8 194.41M339.8 194.41L339.31 194.53M339.31 194.53L338.82 194.64M338.82 194.64L338.33 194.74M338.33 194.74L337.83 194.83M337.83 194.83L337.33 194.9M337.33 194.9L336.84 194.96M336.84 194.96L336.34 195.01M336.34 195.01L335.83 195.05M335.83 195.05L335.33 195.08M335.33 195.08L334.83 195.1M334.83 195.1L334.33 195.1"/>
<path d="M281.78 195.1L281.28 195.1M281.28 195.1L280.78 195.08M280.78 195.08L280.27 195.05M280.27 195.05L279.77 195.01M279.77 195.01L279.27 194.96M279.27 194.96L278.77 194.9M278.77 194.9L278.28 194.83M278.28 194.83L277.78 194.74M277.78 194.74L277.29 194.64M277.29 194.64L276.8 194.53M276.8 194.53L276.31 194.41M276.31 194.41L275.83 194.27M275.83 194.27L275.35 194.12M275.35 194.12L274.87 193.95M274.87 193.95L274.4 193.77M274.4 193.77L273.94 193.58M273.94 193.58L273.48 193.37M273.48 193.37L273.04 193.14M273.04 193.14L272.6 192.9M272.6 192.9L272.17 192.64M272.17 192.64L271.75 192.36M271.75 192.36L271.35 192.06M271.35 192.06L270.96 191.74M270.96 191.74L270.77 191.57M270.77 191.57L270.59 191.4M270.59 191.4L270.41 191.22M270.41 191.22L270.24 191.03M270.24 191.03L270.08 190.84M270.08 190.84L269.92 190.64M269.92 190.64L269.78 190.44M269.78 190.44L269.63 190.23M269.63 190.23L269.5 190.02M269.5 190.02L269.38 189.8M269.38 189.8L269.27 189.58M269.27 189.58L269.17 189.34M269.17 189.34L269.08 189.11M269.08 189.11L269 188.87M269 188.87L268.94 188.63M268.94 188.63L268.89 188.38M268.89 188.38L268.85 188.13M268.85 188.13L268.83 187.88"/>
<path d="M268.83 143.76L268.85 144.31M268.85 144.31L268.9 144.87M268.9 144.87L268.95 145.42M268.95 145.42L269.03 145.97M269.03 145.97L269.11 146.52M269.11 146.52L269.21 147.06M269.21 147.06L269.32 147.61M269.32 147.61L269.43 148.15M269.43 148.15L269.56 148.69M269.56 148.69L269.69 149.23M269.69 149.23L269.84 149.76M269.84 149.76L269.99 150.3M269.99 150.3L270.3 151.36M270.3 151.36L270.65 152.41M270.65 152.41L271.01 153.46M271.01 153.46L271.39 154.5M271.39 154.5L271.78 155.54M271.78 155.54L272.19 156.57M272.19 156.57L272.61 157.6M272.61 157.6L273.05 158.62M273.05 158.62L273.49 159.63M273.49 159.63L273.94 160.65M273.94 160.65L274.4 161.66M274.4 161.66L274.86 162.66M274.86 162.66L275.81 164.67M275.81 164.67L276.78 166.67M276.78 166.67L277.76 168.65M277.76 168.65L278.76 170.64M278.76 170.64L279.76 172.61M279.76 172.61L281.78 176.56"/>
<path d="M341.76 73.54L341.76 89.1"/>
<path d="M274.35 73.54L274.35 89.1"/>
<path d="M348.45 127.42L348.01 129.91M348.01 129.91L347.62 135.48M347.62 135.48L347.28 143.76"/>
<path d="M268.83 143.76L268.49 135.48M268.49 135.48L268.1 129.91M268.1 129.91L267.66 127.42"/>
<path d="M535.72 229.69L537.78 228.66M537.78 228.66L540.87 225.57M540.87 225.57L540.87 247.18"/>
<path d="M72.8 228.66L71.77 226.6M71.77 226.6L68.68 225.57M68.68 225.57L66.63 225.57M66.63 225.57L63.54 226.6M63.54 226.6L61.48 229.69M61.48 229.69L60.45 234.83M60.45 234.83L60.45 239.98M60.45 239.98L61.48 244.09M61.48 244.09L63.54 246.15M63.54 246.15L66.63 247.18M66.63 247.18L67.65 247.18M67.65 247.18L70.74 246.15M70.74 246.15L72.8 244.09M72.8 244.09L73.83 241.01M73.83 241.01L73.83 239.98M73.83 239.98L72.8 236.89M72.8 236.89L70.74 234.83M70.74 234.83L67.65 233.8M67.65 233.8L66.63 233.8M66.63 233.8L63.54 234.83M63.54 234.83L61.48 236.89M61.48 236.89L60.45 239.98"/>
</g>
</g>
</svg>
