<?xml version="1.0" standalone="no"?><svg xmlns="http://www.w3.org/2000/svg" width="600.000" height="450.000" viewBox="0.0 0.0 600.000 450.000" version="1.1">
<title>Acme Converter - Post-processed with EDS-Designer: 14.44 (info@symca.com)</title>
<desc>Acme Converter - Post-processed with EDS-Designer: 14.44 (info@symca.com)</desc>
<g id="EDS_STYLE_GROUP" fill="none" stroke="black" stroke-width="1.0">
<g id="0" display="visible">
<path d="M239.47 389.94L239.47 361.41M240.83 361.41L240.83 389.94M235.39 361.41L251.7 361.41M251.7 361.41L255.78 362.76M255.78 362.76L257.14 364.12M257.14 364.12L258.49 366.84M258.49 366.84L258.49 369.56M258.49 369.56L257.14 372.28M257.14 372.28L255.78 373.64M255.78 373.64L251.7 374.99M251.7 361.41L254.42 362.76M254.42 362.76L255.78 364.12M255.78 364.12L257.14 366.84M257.14 366.84L257.14 369.56M257.14 369.56L255.78 372.28M255.78 372.28L254.42 373.64M254.42 373.64L251.7 374.99M240.83 374.99L251.7 374.99M251.7 374.99L255.78 376.35M255.78 376.35L257.14 377.71M257.14 377.71L258.49 380.43M258.49 380.43L258.49 384.51M258.49 384.51L257.14 387.22M257.14 387.22L255.78 388.58M255.78 388.58L251.7 389.94M251.7 389.94L235.39 389.94M251.7 374.99L254.42 376.35M254.42 376.35L255.78 377.71M255.78 377.71L257.14 380.43M257.14 380.43L257.14 384.51M257.14 384.51L255.78 387.22M255.78 387.22L254.42 388.58M254.42 388.58L251.7 389.94M269.37 389.94L269.37 361.41M270.72 361.41L270.72 389.94M265.29 361.41L274.8 361.41M265.29 389.94L285.67 389.94M285.67 389.94L285.67 381.79M285.67 381.79L284.31 389.94M301.98 361.41L292.47 389.94M301.98 361.41L311.49 389.94M301.98 365.48L310.13 389.94M295.18 381.79L307.41 381.79M289.75 389.94L297.9 389.94M306.05 389.94L314.21 389.94M337.31 365.48L338.67 369.56M338.67 369.56L338.67 361.41M338.67 361.41L337.31 365.48M337.31 365.48L334.59 362.76M334.59 362.76L330.51 361.41M330.51 361.41L327.79 361.41M327.79 361.41L323.72 362.76M323.72 362.76L321 365.48M321 365.48L319.64 368.2M319.64 368.2L318.28 372.28M318.28 372.28L318.28 379.07M318.28 379.07L319.64 383.15M319.64 383.15L321 385.86M321 385.86L323.72 388.58M323.72 388.58L327.79 389.94M327.79 389.94L330.51 389.94M330.51 389.94L334.59 388.58M334.59 388.58L337.31 385.86M337.31 385.86L338.67 383.15M327.79 361.41L325.08 362.76M325.08 362.76L322.36 365.48M322.36 365.48L321 368.2M321 368.2L319.64 372.28M319.64 372.28L319.64 379.07M319.64 379.07L321 383.15M321 383.15L322.36 385.86M322.36 385.86L325.08 388.58M325.08 388.58L327.79 389.94M350.89 389.94L350.89 361.41M352.25 361.41L352.25 389.94M369.92 361.41L352.25 379.07M359.05 373.64L369.92 389.94M357.69 373.64L368.56 389.94M346.82 361.41L356.33 361.41M364.48 361.41L372.64 361.41M346.82 389.94L356.33 389.94M364.48 389.94L372.64 389.94"/>
<path d="M499.02 85.18L474.85 65.28"/>
<path d="M100.42 76.05L100.42 321.46"/>
<path d="M104.99 76.05L104.99 289.5"/>
<path d="M470.57 97.24L471.63 98.11"/>
<path d="M114.12 117.14L114.12 186.77"/>
<path d="M116.4 305.48L116.4 300.91"/>
<path d="M116.4 64.64L116.4 60.07"/>
<path d="M132.38 321.46L132.38 305.48"/>
<path d="M141.51 186.77L141.51 117.14"/>
<path d="M142.65 202.75L142.65 101.16"/>
<path d="M144.6 266.33L144.6 217.93"/>
<path d="M157.15 253.77L157.15 230.49"/>
<path d="M158.06 189.05L158.06 114.86"/>
<path d="M174.04 114.86L189.45 101.16"/>
<path d="M116.4 60.07L460.34 60.07"/>
<path d="M348.11 64.64L116.4 64.64"/>
<path d="M174.04 114.86L174.04 189.05"/>
<path d="M174.96 230.49L174.96 253.77"/>
<path d="M100.42 76.05L104.99 76.05"/>
<path d="M359.52 76.05L364.09 76.05"/>
<path d="M180.66 217.93L180.66 266.33"/>
<path d="M181.35 222.72L181.35 261.53"/>
<path d="M189.45 101.16L189.45 202.75"/>
<path d="M364.09 92.03L456.05 92.03"/>
<path d="M201.21 261.53L201.21 254.68"/>
<path d="M201.21 229.57L201.21 222.72"/>
<path d="M174.96 230.49L180.66 217.93"/>
<path d="M158.06 189.05L142.65 202.75"/>
<path d="M142.65 101.16L189.45 101.16"/>
<path d="M264.79 101.16L311.58 101.16"/>
<path d="M364.09 112.01L454.83 112.01"/>
<path d="M158.06 114.86L174.04 114.86"/>
<path d="M280.2 114.86L296.17 114.86"/>
<path d="M359.52 116.57L459.4 116.57"/>
<path d="M213.76 222.72L213.76 229.57"/>
<path d="M213.76 254.68L213.76 261.53"/>
<path d="M340.1 117.14L312.7 117.14"/>
<path d="M141.51 117.14L114.12 117.14"/>
<path d="M484.51 125.7L502.77 125.7"/>
<path d="M240.47 261.53L240.47 254.68"/>
<path d="M240.47 229.57L240.47 222.72"/>
<path d="M157.15 253.77L144.6 266.33"/>
<path d="M296.17 114.86L311.58 101.16"/>
<path d="M459.4 134.84L502.77 134.84"/>
<path d="M459.4 139.4L507.34 139.4"/>
<path d="M459.4 146.82L489.07 146.82"/>
<path d="M253.03 222.72L253.03 229.57"/>
<path d="M253.03 254.68L253.03 261.53"/>
<path d="M280.2 114.86L264.79 101.16"/>
<path d="M264.79 202.75L264.79 101.16"/>
<path d="M272.89 261.53L272.89 222.72"/>
<path d="M273.57 266.33L273.57 217.93"/>
<path d="M279.28 253.77L279.28 230.49"/>
<path d="M280.2 189.05L280.2 114.86"/>
<path d="M280.2 189.05L264.79 202.75"/>
<path d="M114.12 186.77L141.51 186.77"/>
<path d="M312.7 186.77L340.1 186.77"/>
<path d="M296.17 189.05L280.2 189.05"/>
<path d="M174.04 189.05L158.06 189.05"/>
<path d="M296.17 189.05L311.58 202.75"/>
<path d="M296.17 114.86L296.17 189.05"/>
<path d="M297.09 230.49L297.09 253.77"/>
<path d="M279.28 253.77L273.57 266.33"/>
<path d="M311.58 202.75L264.79 202.75"/>
<path d="M189.45 202.75L142.65 202.75"/>
<path d="M309.64 217.93L309.64 266.33"/>
<path d="M311.58 101.16L311.58 202.75"/>
<path d="M312.7 117.14L312.7 186.77"/>
<path d="M144.6 217.93L180.66 217.93"/>
<path d="M273.57 217.93L309.64 217.93"/>
<path d="M459.4 218.73L489.07 218.73"/>
<path d="M272.89 222.72L253.03 222.72"/>
<path d="M240.47 222.72L213.76 222.72"/>
<path d="M201.21 222.72L181.35 222.72"/>
<path d="M507.34 226.15L459.4 226.15"/>
<path d="M253.03 229.57L240.47 229.57"/>
<path d="M213.76 229.57L201.21 229.57"/>
<path d="M157.15 230.49L174.96 230.49"/>
<path d="M279.28 230.49L297.09 230.49"/>
<path d="M502.77 230.71L459.4 230.71"/>
<path d="M297.09 230.49L309.64 217.93"/>
<path d="M502.77 239.85L484.51 239.85"/>
<path d="M158.06 114.86L142.65 101.16"/>
<path d="M297.09 253.77L309.64 266.33"/>
<path d="M279.28 230.49L273.57 217.93"/>
<path d="M340.1 186.77L340.1 117.14"/>
<path d="M348.11 60.07L348.11 64.64"/>
<path d="M348.11 300.91L348.11 305.48"/>
<path d="M353.25 60.07L353.25 60.92"/>
<path d="M353.25 304.63L353.25 305.48"/>
<path d="M459.4 248.98L359.52 248.98"/>
<path d="M454.83 253.54L364.09 253.54"/>
<path d="M297.09 253.77L279.28 253.77"/>
<path d="M174.96 253.77L157.15 253.77"/>
<path d="M201.21 254.68L213.76 254.68"/>
<path d="M240.47 254.68L253.03 254.68"/>
<path d="M181.35 261.53L201.21 261.53"/>
<path d="M213.76 261.53L240.47 261.53"/>
<path d="M253.03 261.53L272.89 261.53"/>
<path d="M359.52 76.05L359.52 116.57"/>
<path d="M359.52 248.98L359.52 289.5"/>
<path d="M364.09 76.05L364.09 112.01"/>
<path d="M364.09 253.54L364.09 289.5"/>
<path d="M364.66 112.01L364.66 253.54"/>
<path d="M309.64 266.33L273.57 266.33"/>
<path d="M180.66 266.33L144.6 266.33"/>
<path d="M456.05 273.52L364.09 273.52"/>
<path d="M174.04 189.05L189.45 202.75"/>
<path d="M364.09 289.5L359.52 289.5"/>
<path d="M104.99 289.5L100.42 289.5"/>
<path d="M116.4 300.91L348.11 300.91"/>
<path d="M116.4 305.48L460.34 305.48"/>
<path d="M157.15 230.49L144.6 217.93"/>
<path d="M111.84 332.87L120.97 332.87"/>
<path d="M174.96 253.77L180.66 266.33"/>
<path d="M459.4 248.98L459.4 116.57"/>
<path d="M471.63 267.44L470.57 268.31"/>
<path d="M479.94 115.73L479.94 121.14"/>
<path d="M479.94 244.41L479.94 249.82"/>
<path d="M489.07 218.73L489.07 146.82"/>
<path d="M474.85 300.27L499.02 280.37"/>
<path d="M502.77 134.84L502.77 230.71"/>
<path d="M507.34 262.74L507.34 244.41"/>
<path d="M507.34 121.14L507.34 102.81"/>
<path d="M507.34 139.4L507.34 226.15"/>
<path d="M116.4 60.07L110.29 61.29M110.29 61.29L105.1 64.75M105.1 64.75L101.64 69.94M101.64 69.94L100.42 76.05"/>
<path d="M116.4 64.64L110.7 66.17M110.7 66.17L106.52 70.35M106.52 70.35L104.99 76.05"/>
<path d="M474.85 65.28L468.05 61.41M468.05 61.41L460.34 60.07"/>
<path d="M470.57 97.24L463.76 93.37M463.76 93.37L456.05 92.03"/>
<path d="M507.34 102.81L506.36 96.19M506.36 96.19L503.5 90.14M503.5 90.14L499.02 85.18"/>
<path d="M479.94 115.73L478.96 109.12M478.96 109.12L476.11 103.07M476.11 103.07L471.63 98.11"/>
<path d="M364.09 76.05L362.87 69.94M362.87 69.94L359.41 64.75M359.41 64.75L354.22 61.29M354.22 61.29L348.11 60.07"/>
<path d="M359.52 76.05L357.99 70.35M357.99 70.35L353.82 66.17M353.82 66.17L348.11 64.64"/>
<path d="M507.34 139.4L506 136.17M506 136.17L502.77 134.84"/>
<path d="M459.4 116.57L458.06 113.34M458.06 113.34L454.83 112.01"/>
<path d="M502.77 125.7L506 124.37M506 124.37L507.34 121.14"/>
<path d="M479.94 121.14L481.28 124.37M481.28 124.37L484.51 125.7"/>
<path d="M100.42 289.5L101.64 295.61M101.64 295.61L105.1 300.8M105.1 300.8L110.29 304.26M110.29 304.26L116.4 305.48"/>
<path d="M100.42 321.46L101.95 327.16M101.95 327.16L106.13 331.34M106.13 331.34L111.84 332.87"/>
<path d="M120.97 332.87L126.68 331.34M126.68 331.34L130.85 327.16M130.85 327.16L132.38 321.46"/>
<path d="M104.99 289.5L106.52 295.2M106.52 295.2L110.7 299.38M110.7 299.38L116.4 300.91"/>
<path d="M460.34 305.48L468.05 304.14M468.05 304.14L474.85 300.27"/>
<path d="M499.02 280.37L503.5 275.41M503.5 275.41L506.36 269.36M506.36 269.36L507.34 262.74"/>
<path d="M471.63 267.44L476.11 262.48M476.11 262.48L478.96 256.43M478.96 256.43L479.94 249.82"/>
<path d="M456.05 273.52L463.76 272.18M463.76 272.18L470.57 268.31"/>
<path d="M348.11 305.48L354.22 304.26M354.22 304.26L359.41 300.8M359.41 300.8L362.87 295.61M362.87 295.61L364.09 289.5"/>
<path d="M348.11 300.91L353.82 299.38M353.82 299.38L357.99 295.2M357.99 295.2L359.52 289.5"/>
<path d="M502.77 230.71L506 229.38M506 229.38L507.34 226.15"/>
<path d="M454.83 253.54L458.06 252.21M458.06 252.21L459.4 248.98"/>
<path d="M507.34 244.41L506 241.18M506 241.18L502.77 239.85"/>
<path d="M484.51 239.85L481.28 241.18M481.28 241.18L479.94 244.41"/>
<path d="M364.09 112.01L359.52 116.57"/>
<path d="M364.09 253.54L359.52 248.98"/>
<path d="M527.5 108.27L529.68 107.18M529.68 107.18L532.94 103.92M532.94 103.92L532.94 126.75"/>
<path d="M523.7 240.3L523.7 239.22M523.7 239.22L524.79 237.04M524.79 237.04L525.87 235.95M525.87 235.95L528.05 234.87M528.05 234.87L532.4 234.87M532.4 234.87L534.57 235.95M534.57 235.95L535.66 237.04M535.66 237.04L536.74 239.22M536.74 239.22L536.74 241.39M536.74 241.39L535.66 243.56M535.66 243.56L533.48 246.83M533.48 246.83L522.61 257.7M522.61 257.7L537.83 257.7"/>
<path d="M64.87 103.92L76.83 103.92M76.83 103.92L70.31 112.62M70.31 112.62L73.57 112.62M73.57 112.62L75.74 113.71M75.74 113.71L76.83 114.79M76.83 114.79L77.92 118.05M77.92 118.05L77.92 120.23M77.92 120.23L76.83 123.49M76.83 123.49L74.65 125.66M74.65 125.66L71.39 126.75M71.39 126.75L68.13 126.75M68.13 126.75L64.87 125.66M64.87 125.66L63.78 124.58M63.78 124.58L62.7 122.4"/>
<path d="M73.02 234.87L62.15 250.09M62.15 250.09L78.46 250.09M73.02 234.87L73.02 257.7"/>
</g>
</g>
</svg>
