<?xml version="1.0" standalone="no"?><svg xmlns="http://www.w3.org/2000/svg" width="600.000" height="450.000" viewBox="0.0 0.0 600.000 450.000" version="1.1">
<title>Acme Converter - Post-processed with EDS-Designer: 14.44 (info@symca.com)</title>
<desc>Acme Converter - Post-processed with EDS-Designer: 14.44 (info@symca.com)</desc>
<g id="EDS_STYLE_GROUP" fill="none" stroke="black" stroke-width="1.0">
<g id="0" display="visible">
<path d="M224.11 361.59L233.1 375.7M233.1 375.7L233.1 388.54M225.4 361.59L234.38 375.7M234.38 375.7L234.38 388.54M243.36 361.59L234.38 375.7M221.55 361.59L229.25 361.59M238.23 361.59L245.93 361.59M229.25 388.54L238.23 388.54M252.35 388.54L252.35 361.59M253.63 361.59L253.63 388.54M261.33 369.29L261.33 379.55M248.5 361.59L269.03 361.59M269.03 361.59L269.03 369.29M269.03 369.29L267.75 361.59M253.63 374.42L261.33 374.42M248.5 388.54L269.03 388.54M269.03 388.54L269.03 380.84M269.03 380.84L267.75 388.54M279.29 388.54L279.29 361.59M280.58 361.59L280.58 388.54M275.44 361.59L284.43 361.59M275.44 388.54L294.69 388.54M294.69 388.54L294.69 380.84M294.69 380.84L293.41 388.54M302.39 388.54L302.39 361.59M303.68 361.59L303.68 388.54M298.54 361.59L307.53 361.59M298.54 388.54L317.79 388.54M317.79 388.54L317.79 380.84M317.79 380.84L316.51 388.54M330.62 361.59L326.77 362.87M326.77 362.87L324.21 365.44M324.21 365.44L322.92 368.01M322.92 368.01L321.64 373.14M321.64 373.14L321.64 376.99M321.64 376.99L322.92 382.12M322.92 382.12L324.21 384.69M324.21 384.69L326.77 387.25M326.77 387.25L330.62 388.54M330.62 388.54L333.19 388.54M333.19 388.54L337.04 387.25M337.04 387.25L339.61 384.69M339.61 384.69L340.89 382.12M340.89 382.12L342.17 376.99M342.17 376.99L342.17 373.14M342.17 373.14L340.89 368.01M340.89 368.01L339.61 365.44M339.61 365.44L337.04 362.87M337.04 362.87L333.19 361.59M333.19 361.59L330.62 361.59M330.62 361.59L328.06 362.87M328.06 362.87L325.49 365.44M325.49 365.44L324.21 368.01M324.21 368.01L322.92 373.14M322.92 373.14L322.92 376.99M322.92 376.99L324.21 382.12M324.21 382.12L325.49 384.69M325.49 384.69L328.06 387.25M328.06 387.25L330.62 388.54M333.19 388.54L335.76 387.25M335.76 387.25L338.32 384.69M338.32 384.69L339.61 382.12M339.61 382.12L340.89 376.99M340.89 376.99L340.89 373.14M340.89 373.14L339.61 368.01M339.61 368.01L338.32 365.44M338.32 365.44L335.76 362.87M335.76 362.87L333.19 361.59M353.72 361.59L358.86 388.54M355.01 361.59L358.86 382.12M363.99 361.59L358.86 388.54M363.99 361.59L369.12 388.54M365.27 361.59L369.12 382.12M374.25 361.59L369.12 388.54M349.87 361.59L358.86 361.59M370.4 361.59L378.1 361.59"/>
<path d="M164.66 253.15L164.66 153.81"/>
<path d="M164.81 253.15L164.81 153.81"/>
<path d="M169.48 230.64L169.48 176.32"/>
<path d="M207.34 334.64L249.25 334.64"/>
<path d="M350.14 334.64L392.05 334.64"/>
<path d="M288.83 331.54L310.56 331.54"/>
<path d="M202.68 329.98L249.25 329.98"/>
<path d="M350.14 329.98L396.71 329.98"/>
<path d="M201.01 290.43L201.01 290.43"/>
<path d="M201.01 290.43L201.06 290.47"/>
<path d="M201.06 290.47L201.2 290.6M201.2 290.6L201.41 290.8M201.41 290.8L201.63 291.06M201.63 291.06L201.85 291.35M201.85 291.35L202.06 291.67M202.06 291.67L202.24 292.01"/>
<path d="M202.24 292.02L202.38 292.35M202.38 292.35L202.48 292.65"/>
<path d="M180.18 246.17L180.18 160.79"/>
<path d="M184.55 283.42L184.55 288.07"/>
<path d="M202.39 292.36L202.5 292.72M202.5 292.72L202.54 292.86"/>
<path d="M187.94 246.17L187.94 160.79"/>
<path d="M189.49 241.51L189.49 165.45"/>
<path d="M197.25 241.51L197.25 165.45"/>
<path d="M361.79 308.25L350.14 308.25"/>
<path d="M249.25 308.25L237.61 308.25"/>
<path d="M361.79 303.6L237.61 303.6"/>
<path d="M202.68 294L202.53 292.83"/>
<path d="M202.68 294L202.68 329.98"/>
<path d="M207.34 334.64L207.34 300.37"/>
<path d="M361.79 295.84L237.61 295.84"/>
<path d="M357.13 294.28L242.27 294.28"/>
<path d="M184.55 288.07L198.58 288.07"/>
<path d="M400.81 288.07L414.85 288.07"/>
<path d="M357.13 286.52L242.27 286.52"/>
<path d="M212.77 251.6L212.77 155.36"/>
<path d="M215.88 251.6L215.88 155.36"/>
<path d="M220.54 155.36L220.54 186.41"/>
<path d="M220.54 220.55L220.54 251.6"/>
<path d="M184.55 283.42L194.24 283.42"/>
<path d="M405.16 283.42L414.85 283.42"/>
<path d="M230.62 186.41L230.62 220.55"/>
<path d="M231.4 262.46L231.4 267.12"/>
<path d="M231.4 270.22L231.4 285.19"/>
<path d="M231.4 144.5L231.4 139.84"/>
<path d="M231.4 136.73L231.4 121.77"/>
<path d="M232.95 149.15L232.95 173.99"/>
<path d="M233.73 270.22L233.73 285.71"/>
<path d="M233.73 136.73L233.73 121.25"/>
<path d="M236.83 270.22L236.83 286.19"/>
<path d="M231.4 270.22L368 270.22"/>
<path d="M231.4 267.12L368 267.12"/>
<path d="M231.4 262.46L263.76 262.46"/>
<path d="M283.94 262.46L315.45 262.46"/>
<path d="M335.63 262.46L368 262.46"/>
<path d="M237.61 103.36L237.61 111.12"/>
<path d="M237.61 308.25L237.61 295.84"/>
<path d="M242.27 112.68L242.27 120.44"/>
<path d="M242.27 294.28L242.27 286.52"/>
<path d="M243.04 92.5L243.04 87.84"/>
<path d="M246.15 220.55L246.15 186.41"/>
<path d="M249.25 334.64L249.25 303.6"/>
<path d="M430.08 257.81L418.03 257.81"/>
<path d="M181.37 257.81L169.31 257.81"/>
<path d="M434.74 253.15L418.79 253.15"/>
<path d="M180.6 253.15L164.66 253.15"/>
<path d="M220.54 251.6L215.88 251.6"/>
<path d="M212.77 251.6L198.4 251.6"/>
<path d="M378.86 251.6L383.52 251.6"/>
<path d="M386.62 251.6L401 251.6"/>
<path d="M253.13 120.44L253.13 103.36"/>
<path d="M256.24 173.99L256.24 149.15"/>
<path d="M257.79 286.52L257.79 270.22"/>
<path d="M260.89 111.12L260.89 112.68"/>
<path d="M261.28 196.88L261.28 210.08"/>
<path d="M335.63 246.94L315.45 246.94"/>
<path d="M283.94 246.94L263.76 246.94"/>
<path d="M419.22 246.17L411.46 246.17"/>
<path d="M180.18 246.17L187.94 246.17"/>
<path d="M409.9 241.51L402.14 241.51"/>
<path d="M189.49 241.51L197.25 241.51"/>
<path d="M212.77 240.73L197.25 240.73"/>
<path d="M386.62 240.73L402.14 240.73"/>
<path d="M263.76 267.12L263.76 246.94"/>
<path d="M263.76 160.02L263.76 139.84"/>
<path d="M267.64 172.44L267.64 196.88"/>
<path d="M267.64 210.08L267.64 234.52"/>
<path d="M268.65 103.36L268.65 120.44"/>
<path d="M207.34 300.38L209.61 296.31"/>
<path d="M267.64 234.52L280.06 234.52"/>
<path d="M319.33 234.52L331.75 234.52"/>
<path d="M180.18 230.64L169.48 230.64"/>
<path d="M419.22 230.64L429.91 230.64"/>
<path d="M180.18 229.87L197.25 229.87"/>
<path d="M402.14 229.87L419.22 229.87"/>
<path d="M280.06 234.52L280.06 210.08"/>
<path d="M280.06 196.88L280.06 172.44"/>
<path d="M283.94 267.12L283.94 246.94"/>
<path d="M283.94 160.02L283.94 139.84"/>
<path d="M286.43 210.08L286.43 196.88"/>
<path d="M288.06 61.45L288.06 103.36"/>
<path d="M215.88 220.55L246.15 220.55"/>
<path d="M353.25 220.55L383.52 220.55"/>
<path d="M212.77 219L197.25 219"/>
<path d="M386.62 219L402.14 219"/>
<path d="M261.28 210.08L267.64 210.08"/>
<path d="M280.06 210.08L286.43 210.08"/>
<path d="M312.97 210.08L319.33 210.08"/>
<path d="M331.75 210.08L338.11 210.08"/>
<path d="M288.83 303.6L288.83 331.54"/>
<path d="M411.46 206.58L409.9 206.58"/>
<path d="M189.49 206.58L187.94 206.58"/>
<path d="M338.11 196.88L331.75 196.88"/>
<path d="M319.33 196.88L312.97 196.88"/>
<path d="M286.43 196.88L280.06 196.88"/>
<path d="M267.64 196.88L261.28 196.88"/>
<path d="M417.42 282.05L421.27 284.66"/>
<path d="M310.56 303.6L310.56 331.54"/>
<path d="M311.34 61.45L311.34 103.36"/>
<path d="M312.97 196.88L312.97 210.08"/>
<path d="M181.98 282.05L178.12 284.66"/>
<path d="M212.77 190.29L197.25 190.29"/>
<path d="M386.62 190.29L402.14 190.29"/>
<path d="M215.88 186.41L246.15 186.41"/>
<path d="M353.25 186.41L383.52 186.41"/>
<path d="M315.45 267.12L315.45 246.94"/>
<path d="M315.45 160.02L315.45 139.84"/>
<path d="M319.33 172.44L319.33 196.88"/>
<path d="M319.33 210.08L319.33 234.52"/>
<path d="M236.06 177.09L253.13 177.09"/>
<path d="M346.26 177.09L363.34 177.09"/>
<path d="M180.18 176.32L169.48 176.32"/>
<path d="M419.22 176.32L429.91 176.32"/>
<path d="M331.75 172.44L319.33 172.44"/>
<path d="M280.06 172.44L267.64 172.44"/>
<path d="M330.74 103.36L330.74 120.44"/>
<path d="M331.75 234.52L331.75 210.08"/>
<path d="M331.75 196.88L331.75 172.44"/>
<path d="M335.63 267.12L335.63 246.94"/>
<path d="M335.63 160.02L335.63 139.84"/>
<path d="M338.11 210.08L338.11 196.88"/>
<path d="M338.5 111.12L338.5 112.68"/>
<path d="M409.9 165.45L402.14 165.45"/>
<path d="M189.49 165.45L197.25 165.45"/>
<path d="M212.77 163.12L197.31 163.12"/>
<path d="M386.62 163.12L402.08 163.12"/>
<path d="M419.22 160.79L411.46 160.79"/>
<path d="M180.18 160.79L187.94 160.79"/>
<path d="M335.63 160.02L315.45 160.02"/>
<path d="M283.94 160.02L263.76 160.02"/>
<path d="M389.78 296.31L392.05 300.38"/>
<path d="M343.16 149.15L343.16 173.99"/>
<path d="M346.26 120.44L346.26 103.36"/>
<path d="M350.14 334.64L350.14 303.6"/>
<path d="M220.54 155.36L215.88 155.36"/>
<path d="M212.77 155.36L198.4 155.36"/>
<path d="M386.62 155.36L401 155.36"/>
<path d="M378.86 155.36L383.52 155.36"/>
<path d="M164.66 153.81L180.6 153.81"/>
<path d="M418.79 153.81L434.74 153.81"/>
<path d="M169.31 149.15L181.37 149.15"/>
<path d="M418.03 149.15L430.08 149.15"/>
<path d="M363.34 146.05L346.26 146.05"/>
<path d="M253.13 146.05L236.06 146.05"/>
<path d="M353.25 220.55L353.25 186.41"/>
<path d="M356.35 92.5L356.35 87.84"/>
<path d="M357.13 112.68L357.13 120.44"/>
<path d="M357.13 294.28L357.13 286.52"/>
<path d="M361.79 103.36L361.79 111.12"/>
<path d="M361.79 308.25L361.79 295.84"/>
<path d="M368 144.5L335.63 144.5"/>
<path d="M315.45 144.5L283.94 144.5"/>
<path d="M263.76 144.5L231.4 144.5"/>
<path d="M368 139.84L231.4 139.84"/>
<path d="M231.4 136.73L368 136.73"/>
<path d="M365.67 270.22L365.67 285.71"/>
<path d="M365.67 136.73L365.67 121.25"/>
<path d="M366.44 173.99L366.44 149.15"/>
<path d="M368 262.46L368 267.12"/>
<path d="M368 270.22L368 285.19"/>
<path d="M368 144.5L368 139.84"/>
<path d="M368 136.73L368 121.77"/>
<path d="M368.77 186.41L368.77 220.55"/>
<path d="M242.27 120.44L357.13 120.44"/>
<path d="M378.86 251.6L378.86 220.55"/>
<path d="M378.86 186.41L378.86 155.36"/>
<path d="M383.52 251.6L383.52 155.36"/>
<path d="M386.62 251.6L386.62 155.36"/>
<path d="M242.27 112.68L357.13 112.68"/>
<path d="M237.61 111.12L361.79 111.12"/>
<path d="M392.05 334.64L392.05 300.38"/>
<path d="M396.71 329.98L396.71 294"/>
<path d="M402.14 165.45L402.14 241.51"/>
<path d="M237.61 103.36L361.79 103.36"/>
<path d="M409.9 165.45L409.9 241.51"/>
<path d="M411.46 160.79L411.46 246.17"/>
<path d="M414.85 283.42L414.85 288.07"/>
<path d="M396.71 294L396.86 292.83"/>
<path d="M356.35 92.5L311.34 92.5"/>
<path d="M288.06 92.5L243.04 92.5"/>
<path d="M356.35 87.84L311.34 87.84"/>
<path d="M288.06 87.84L243.04 87.84"/>
<path d="M419.22 160.79L419.22 246.17"/>
<path d="M396.85 292.86L396.88 292.76M396.88 292.76L396.89 292.74"/>
<path d="M396.86 292.83L396.94 292.57M396.94 292.57L397.06 292.23M397.06 292.23L397.22 291.87M397.22 291.87L397.42 291.53M397.42 291.53L397.64 291.21M397.64 291.21L397.88 290.92M397.88 290.92L398.11 290.67M398.11 290.67L398.3 290.5M398.3 290.5L398.38 290.43M398.38 290.43L398.39 290.43"/>
<path d="M288.06 76.97L311.34 76.97"/>
<path d="M429.91 230.64L429.91 176.32"/>
<path d="M434.58 253.15L434.58 153.81"/>
<path d="M434.74 253.15L434.74 153.81"/>
<path d="M288.06 61.45L311.34 61.45"/>
<path d="M166.3 256.71L170.85 271.26M170.85 271.26L178.12 284.66"/>
<path d="M171.33 257.85L175.56 270.44M175.56 270.44L181.98 282.05"/>
<path d="M207.34 300.37L216.93 304.71M216.93 304.71L227.12 307.36M227.12 307.36L237.61 308.25"/>
<path d="M180.18 246.17L182.13 261.03M182.13 261.03L187.87 274.88M187.87 274.88L197 286.78M197 286.78L208.89 295.9M208.89 295.9L222.74 301.64M222.74 301.64L237.61 303.6"/>
<path d="M189.49 241.51L191.29 255.17M191.29 255.17L196.56 267.9M196.56 267.9L204.95 278.83M204.95 278.83L215.88 287.21M215.88 287.21L228.61 292.49M228.61 292.49L242.27 294.28"/>
<path d="M187.94 246.17L189.63 259.02M189.63 259.02L194.59 271M194.59 271L202.49 281.29M202.49 281.29L212.77 289.18M212.77 289.18L224.75 294.14M224.75 294.14L237.61 295.84"/>
<path d="M197.25 241.51L198.79 253.16M198.79 253.16L203.28 264.02M203.28 264.02L210.44 273.34M210.44 273.34L219.76 280.49M219.76 280.49L230.62 284.99M230.62 284.99L242.27 286.52"/>
<path d="M212.77 251.6L214.19 258.73M214.19 258.73L218.23 264.77M218.23 264.77L224.27 268.81M224.27 268.81L231.4 270.22"/>
<path d="M215.88 251.6L217.06 257.54M217.06 257.54L220.42 262.57M220.42 262.57L225.46 265.94M225.46 265.94L231.4 267.12"/>
<path d="M220.54 251.6L221.99 257.03M221.99 257.03L225.97 261.01M225.97 261.01L231.4 262.46"/>
<path d="M178.12 284.66L180.91 287.17M180.91 287.17L184.55 288.07"/>
<path d="M164.81 253.15L165.02 254.54"/>
<path d="M164.66 253.15L164.89 254.62"/>
<path d="M202.68 329.98L204.05 333.28M204.05 333.28L207.34 334.64"/>
<path d="M164.89 254.62L166.59 256.93M166.59 256.93L169.31 257.81"/>
<path d="M202.54 292.86L201 290.41"/>
<path d="M181.98 282.05L183.09 283.06M183.09 283.06L184.55 283.42"/>
<path d="M187.94 206.58L184.06 207.62M184.06 207.62L181.22 210.46M181.22 210.46L180.18 214.34"/>
<path d="M197.25 214.34L196.21 210.46M196.21 210.46L193.37 207.62M193.37 207.62L189.49 206.58"/>
<path d="M169.31 149.15L166.02 150.52M166.02 150.52L164.66 153.81"/>
<path d="M243.04 87.84L227.85 89.33M227.85 89.33L213.24 93.73M213.24 93.73L199.75 100.88M199.75 100.88L187.91 110.51M187.91 110.51L178.15 122.25M178.15 122.25L170.86 135.66M170.86 135.66L166.31 150.23"/>
<path d="M243.04 92.5L226.76 94.32M226.76 94.32L211.27 99.69M211.27 99.69L197.36 108.35M197.36 108.35L185.71 119.87M185.71 119.87L176.88 133.68M176.88 133.68L171.33 149.1"/>
<path d="M242.27 112.68L228.61 114.47M228.61 114.47L215.88 119.75M215.88 119.75L204.95 128.13M204.95 128.13L196.56 139.06M196.56 139.06L191.29 151.79M191.29 151.79L189.49 165.45"/>
<path d="M242.27 120.44L230.62 121.97M230.62 121.97L219.76 126.47M219.76 126.47L210.44 133.62M210.44 133.62L203.28 142.94M203.28 142.94L198.79 153.8M198.79 153.8L197.25 165.45"/>
<path d="M253.13 177.09L255.33 176.18M255.33 176.18L256.24 173.99"/>
<path d="M232.95 173.99L233.86 176.18M233.86 176.18L236.06 177.09"/>
<path d="M237.61 103.36L222.74 105.32M222.74 105.32L208.89 111.06M208.89 111.06L197 120.18M197 120.18L187.87 132.08M187.87 132.08L182.13 145.93M182.13 145.93L180.18 160.79"/>
<path d="M237.61 111.12L224.75 112.82M224.75 112.82L212.77 117.78M212.77 117.78L202.49 125.67M202.49 125.67L194.59 135.96M194.59 135.96L189.63 147.94M189.63 147.94L187.94 160.79"/>
<path d="M231.4 136.73L224.27 138.15M224.27 138.15L218.23 142.19M218.23 142.19L214.19 148.23M214.19 148.23L212.77 155.36"/>
<path d="M231.4 139.84L225.46 141.02M225.46 141.02L220.42 144.39M220.42 144.39L217.06 149.42M217.06 149.42L215.88 155.36"/>
<path d="M231.4 144.5L225.97 145.95M225.97 145.95L221.99 149.93M221.99 149.93L220.54 155.36"/>
<path d="M260.89 112.68L261.93 116.56M261.93 116.56L264.77 119.4M264.77 119.4L268.65 120.44"/>
<path d="M268.65 103.36L264.77 104.4M264.77 104.4L261.93 107.24M261.93 107.24L260.89 111.12"/>
<path d="M236.06 146.05L233.86 146.96M233.86 146.96L232.95 149.15"/>
<path d="M256.24 149.15L255.33 146.96M255.33 146.96L253.13 146.05"/>
<path d="M392.05 334.64L395.35 333.28M395.35 333.28L396.71 329.98"/>
<path d="M421.27 284.66L428.55 271.26M428.55 271.26L433.09 256.71"/>
<path d="M417.42 282.05L423.84 270.44M423.84 270.44L428.07 257.85"/>
<path d="M361.79 308.25L372.27 307.36M372.27 307.36L382.46 304.71M382.46 304.71L392.05 300.38"/>
<path d="M361.79 303.6L376.65 301.64M376.65 301.64L390.5 295.9M390.5 295.9L402.4 286.78M402.4 286.78L411.52 274.88M411.52 274.88L417.26 261.03M417.26 261.03L419.22 246.17"/>
<path d="M357.13 294.28L370.79 292.49M370.79 292.49L383.52 287.21M383.52 287.21L394.45 278.83M394.45 278.83L402.83 267.9M402.83 267.9L408.11 255.17M408.11 255.17L409.9 241.51"/>
<path d="M361.79 295.84L374.64 294.14M374.64 294.14L386.62 289.18M386.62 289.18L396.91 281.29M396.91 281.29L404.8 271M404.8 271L409.76 259.02M409.76 259.02L411.46 246.17"/>
<path d="M357.13 286.52L368.78 284.99M368.78 284.99L379.64 280.49M379.64 280.49L388.96 273.34M388.96 273.34L396.11 264.02M396.11 264.02L400.61 253.16M400.61 253.16L402.14 241.51"/>
<path d="M368 270.22L375.12 268.81M375.12 268.81L381.17 264.77M381.17 264.77L385.2 258.73M385.2 258.73L386.62 251.6"/>
<path d="M368 267.12L373.94 265.94M373.94 265.94L378.97 262.57M378.97 262.57L382.34 257.54M382.34 257.54L383.52 251.6"/>
<path d="M368 262.46L373.43 261.01M373.43 261.01L377.4 257.03M377.4 257.03L378.86 251.6"/>
<path d="M398.4 290.41L396.86 292.83"/>
<path d="M414.85 288.07L418.48 287.17M418.48 287.17L421.27 284.66"/>
<path d="M430.08 257.81L433.38 256.44M433.38 256.44L434.74 253.15"/>
<path d="M414.85 283.42L416.3 283.06M416.3 283.06L417.42 282.05"/>
<path d="M433.09 150.23L428.53 135.66M428.53 135.66L421.24 122.25M421.24 122.25L411.49 110.51M411.49 110.51L399.64 100.88M399.64 100.88L386.16 93.73M386.16 93.73L371.54 89.33M371.54 89.33L356.35 87.84"/>
<path d="M428.07 149.1L422.51 133.68M422.51 133.68L413.69 119.87M413.69 119.87L402.03 108.35M402.03 108.35L388.12 99.69M388.12 99.69L372.64 94.32M372.64 94.32L356.35 92.5"/>
<path d="M409.9 165.45L408.11 151.79M408.11 151.79L402.83 139.06M402.83 139.06L394.45 128.13M394.45 128.13L383.52 119.75M383.52 119.75L370.79 114.47M370.79 114.47L357.13 112.68"/>
<path d="M402.14 165.45L400.61 153.8M400.61 153.8L396.11 142.94M396.11 142.94L388.96 133.62M388.96 133.62L379.64 126.47M379.64 126.47L368.78 121.97M368.78 121.97L357.13 120.44"/>
<path d="M363.34 177.09L365.53 176.18M365.53 176.18L366.44 173.99"/>
<path d="M343.16 173.99L344.07 176.18M344.07 176.18L346.26 177.09"/>
<path d="M346.26 146.05L344.07 146.96M344.07 146.96L343.16 149.15"/>
<path d="M330.74 120.44L334.62 119.4M334.62 119.4L337.46 116.56M337.46 116.56L338.5 112.68"/>
<path d="M338.5 111.12L337.46 107.24M337.46 107.24L334.62 104.4M334.62 104.4L330.74 103.36"/>
<path d="M419.22 160.79L417.26 145.93M417.26 145.93L411.52 132.08M411.52 132.08L402.4 120.18M402.4 120.18L390.5 111.06M390.5 111.06L376.65 105.32M376.65 105.32L361.79 103.36"/>
<path d="M411.46 160.79L409.76 147.94M409.76 147.94L404.8 135.96M404.8 135.96L396.91 125.67M396.91 125.67L386.62 117.78M386.62 117.78L374.64 112.82M374.64 112.82L361.79 111.12"/>
<path d="M386.62 155.36L385.2 148.23M385.2 148.23L381.17 142.19M381.17 142.19L375.12 138.15M375.12 138.15L368 136.73"/>
<path d="M383.52 155.36L382.34 149.42M382.34 149.42L378.97 144.39M378.97 144.39L373.94 141.02M373.94 141.02L368 139.84"/>
<path d="M378.86 155.36L377.4 149.93M377.4 149.93L373.43 145.95M373.43 145.95L368 144.5"/>
<path d="M366.44 149.15L365.53 146.96M365.53 146.96L363.34 146.05"/>
<path d="M419.22 214.34L418.18 210.46M418.18 210.46L415.34 207.62M415.34 207.62L411.46 206.58"/>
<path d="M409.9 206.58L406.02 207.62M406.02 207.62L403.18 210.46M403.18 210.46L402.14 214.34"/>
<path d="M434.58 153.81L434.38 152.42"/>
<path d="M434.74 153.81L434.5 152.34"/>
<path d="M434.5 152.34L432.81 150.03M432.81 150.03L430.08 149.15"/>
<path d="M169.31 257.81L169.13 257.8M169.13 257.8L168.95 257.79M168.95 257.79L168.77 257.77M168.77 257.77L168.59 257.75M168.59 257.75L168.42 257.71M168.42 257.71L168.24 257.67M168.24 257.67L168.07 257.62M168.07 257.62L167.89 257.57M167.89 257.57L167.72 257.51M167.72 257.51L167.56 257.44M167.56 257.44L167.39 257.36M167.39 257.36L167.23 257.28M167.23 257.28L167.07 257.19M167.07 257.19L166.92 257.09M166.92 257.09L166.77 256.99M166.77 256.99L166.63 256.89M166.63 256.89L166.49 256.77M166.49 256.77L166.35 256.65M166.35 256.65L166.22 256.53M166.22 256.53L166.09 256.4M166.09 256.4L165.97 256.27M165.97 256.27L165.86 256.13M165.86 256.13L165.74 255.99M165.74 255.99L165.64 255.84M165.64 255.84L165.45 255.53M165.45 255.53L165.28 255.21M165.28 255.21L165.14 254.88M165.14 254.88L165.02 254.54"/>
<path d="M202.68 294L203.2 294.84M203.2 294.84L203.74 295.67M203.74 295.67L204.29 296.49M204.29 296.49L204.86 297.3M204.86 297.3L205.45 298.09M205.45 298.09L206.06 298.87M206.06 298.87L206.69 299.63M206.69 299.63L207.34 300.38"/>
<path d="M169.31 149.15L169.09 149.16M169.09 149.16L168.87 149.18M168.87 149.18L168.64 149.2M168.64 149.2L168.42 149.25M168.42 149.25L168.2 149.3M168.2 149.3L167.99 149.36M167.99 149.36L167.77 149.43M167.77 149.43L167.56 149.52M167.56 149.52L167.36 149.61M167.36 149.61L167.16 149.72M167.16 149.72L166.97 149.83M166.97 149.83L166.78 149.96M166.78 149.96L166.6 150.09M166.6 150.09L166.43 150.24M166.43 150.24L166.26 150.39M166.26 150.39L166.1 150.55M166.1 150.55L165.95 150.71M165.95 150.71L165.81 150.89M165.81 150.89L165.68 151.07M165.68 151.07L165.55 151.25M165.55 151.25L165.44 151.45M165.44 151.45L165.33 151.64M165.33 151.64L165.23 151.85M165.23 151.85L165.15 152.05M165.15 152.05L165.07 152.26M165.07 152.26L165 152.48M165 152.48L164.94 152.7M164.94 152.7L164.9 152.92M164.9 152.92L164.86 153.14M164.86 153.14L164.84 153.36M164.84 153.36L164.82 153.59M164.82 153.59L164.81 153.81"/>
<path d="M392.05 300.38L392.7 299.63M392.7 299.63L393.33 298.87M393.33 298.87L393.94 298.09M393.94 298.09L394.53 297.3M394.53 297.3L395.1 296.49M395.1 296.49L395.66 295.67M395.66 295.67L396.19 294.84M396.19 294.84L396.45 294.42M396.45 294.42L396.58 294.21M396.58 294.21L396.71 294"/>
<path d="M430.08 257.81L430.31 257.8M430.31 257.8L430.53 257.78M430.53 257.78L430.75 257.75M430.75 257.75L430.97 257.71M430.97 257.71L431.19 257.66M431.19 257.66L431.41 257.6M431.41 257.6L431.62 257.53M431.62 257.53L431.83 257.44M431.83 257.44L432.04 257.35M432.04 257.35L432.23 257.24M432.23 257.24L432.43 257.12M432.43 257.12L432.61 257M432.61 257L432.79 256.87M432.79 256.87L432.97 256.72M432.97 256.72L433.13 256.57M433.13 256.57L433.29 256.41M433.29 256.41L433.44 256.25M433.44 256.25L433.58 256.07M433.58 256.07L433.72 255.89M433.72 255.89L433.84 255.71M433.84 255.71L433.96 255.51M433.96 255.51L434.07 255.32M434.07 255.32L434.16 255.11M434.16 255.11L434.25 254.91M434.25 254.91L434.33 254.69M434.33 254.69L434.39 254.48M434.39 254.48L434.45 254.26M434.45 254.26L434.5 254.04M434.5 254.04L434.53 253.82M434.53 253.82L434.56 253.6M434.56 253.6L434.58 253.37M434.58 253.37L434.58 253.15"/>
<path d="M430.08 149.15L430.26 149.16M430.26 149.16L430.44 149.17M430.44 149.17L430.62 149.19M430.62 149.19L430.8 149.21M430.8 149.21L430.98 149.25M430.98 149.25L431.16 149.29M431.16 149.29L431.33 149.33M431.33 149.33L431.5 149.39M431.5 149.39L431.67 149.45M431.67 149.45L431.84 149.52M431.84 149.52L432 149.6M432 149.6L432.16 149.68M432.16 149.68L432.32 149.77M432.32 149.77L432.47 149.86M432.47 149.86L432.62 149.97M432.62 149.97L432.77 150.07M432.77 150.07L432.91 150.19M432.91 150.19L433.05 150.3M433.05 150.3L433.18 150.43M433.18 150.43L433.3 150.56M433.3 150.56L433.42 150.69M433.42 150.69L433.54 150.83M433.54 150.83L433.65 150.97M433.65 150.97L433.76 151.12M433.76 151.12L433.95 151.43M433.95 151.43L434.12 151.75M434.12 151.75L434.26 152.08M434.26 152.08L434.38 152.42"/>
<path d="M135.34 190.73L137.39 189.7M137.39 189.7L140.47 186.62M140.47 186.62L140.47 208.18"/>
<path d="M451.32 191.76L451.32 190.73M451.32 190.73L452.35 188.68M452.35 188.68L453.37 187.65M453.37 187.65L455.43 186.62M455.43 186.62L459.53 186.62M459.53 186.62L461.59 187.65M461.59 187.65L462.61 188.68M462.61 188.68L463.64 190.73M463.64 190.73L463.64 192.78M463.64 192.78L462.61 194.84M462.61 194.84L460.56 197.92M460.56 197.92L450.29 208.18M450.29 208.18L464.67 208.18"/>
</g>
</g>
</svg>
