<?xml version="1.0" standalone="no"?><svg xmlns="http://www.w3.org/2000/svg" width="450.000" height="600.000" viewBox="0.0 0.0 450.000 600.000" version="1.1">
<title>Acme Converter - Post-processed with EDS-Designer: 16.23 (info@symca.com)</title>
<desc>Acme Converter - Post-processed with EDS-Designer: 16.23 (info@symca.com)</desc>
<g id="EDS_STYLE_GROUP" fill="none" stroke="black" stroke-width="1.0">
<g id="0" display="visible">
<path d="M159.31 532.09L159.31 501.04M160.79 501.04L160.79 532.09M154.88 501.04L172.62 501.04M172.62 501.04L177.06 502.51M177.06 502.51L178.54 503.99M178.54 503.99L180.02 506.95M180.02 506.95L180.02 509.91M180.02 509.91L178.54 512.87M178.54 512.87L177.06 514.35M177.06 514.35L172.62 515.83M172.62 501.04L175.58 502.51M175.58 502.51L177.06 503.99M177.06 503.99L178.54 506.95M178.54 506.95L178.54 509.91M178.54 509.91L177.06 512.87M177.06 512.87L175.58 514.35M175.58 514.35L172.62 515.83M160.79 515.83L172.62 515.83M172.62 515.83L177.06 517.3M177.06 517.3L178.54 518.78M178.54 518.78L180.02 521.74M180.02 521.74L180.02 526.18M180.02 526.18L178.54 529.14M178.54 529.14L177.06 530.62M177.06 530.62L172.62 532.09M172.62 532.09L154.88 532.09M172.62 515.83L175.58 517.3M175.58 517.3L177.06 518.78M177.06 518.78L178.54 521.74M178.54 521.74L178.54 526.18M178.54 526.18L177.06 529.14M177.06 529.14L175.58 530.62M175.58 530.62L172.62 532.09M191.85 532.09L191.85 501.04M193.33 501.04L193.33 532.09M187.41 501.04L197.77 501.04M187.41 532.09L209.6 532.09M209.6 532.09L209.6 523.22M209.6 523.22L208.12 532.09M227.35 501.04L216.99 532.09M227.35 501.04L237.7 532.09M227.35 505.47L236.22 532.09M219.95 523.22L233.26 523.22M214.04 532.09L222.91 532.09M231.78 532.09L240.66 532.09M265.8 505.47L267.28 509.91M267.28 509.91L267.28 501.04M267.28 501.04L265.8 505.47M265.8 505.47L262.84 502.51M262.84 502.51L258.41 501.04M258.41 501.04L255.45 501.04M255.45 501.04L251.01 502.51M251.01 502.51L248.05 505.47M248.05 505.47L246.57 508.43M246.57 508.43L245.1 512.87M245.1 512.87L245.1 520.26M245.1 520.26L246.57 524.7M246.57 524.7L248.05 527.66M248.05 527.66L251.01 530.62M251.01 530.62L255.45 532.09M255.45 532.09L258.41 532.09M258.41 532.09L262.84 530.62M262.84 530.62L265.8 527.66M265.8 527.66L267.28 524.7M255.45 501.04L252.49 502.51M252.49 502.51L249.53 505.47M249.53 505.47L248.05 508.43M248.05 508.43L246.57 512.87M246.57 512.87L246.57 520.26M246.57 520.26L248.05 524.7M248.05 524.7L249.53 527.66M249.53 527.66L252.49 530.62M252.49 530.62L255.45 532.09M280.59 532.09L280.59 501.04M282.07 501.04L282.07 532.09M301.3 501.04L282.07 520.26M289.46 514.35L301.3 532.09M287.99 514.35L299.82 532.09M276.15 501.04L286.51 501.04M295.38 501.04L304.25 501.04M276.15 532.09L286.51 532.09M295.38 532.09L304.25 532.09"/>
<path d="M441.02 284.55L429.19 301.11M429.19 301.11L446.93 301.11M441.02 284.55L441.02 309.39"/>
<path d="M435.14 242.47L437.5 241.28M437.5 241.28L441.05 237.73M441.05 237.73L441.05 262.58"/>
<path d="M17.91 288.1L16.73 285.73M16.73 285.73L13.18 284.55M13.18 284.55L10.81 284.55M10.81 284.55L7.26 285.73M7.26 285.73L4.9 289.28M4.9 289.28L3.71 295.2M3.71 295.2L3.71 301.11M3.71 301.11L4.9 305.84M4.9 305.84L7.26 308.21M7.26 308.21L10.81 309.39M10.81 309.39L12 309.39M12 309.39L15.55 308.21M15.55 308.21L17.91 305.84M17.91 305.84L19.1 302.3M19.1 302.3L19.1 301.11M19.1 301.11L17.91 297.56M17.91 297.56L15.55 295.2M15.55 295.2L12 294.01M12 294.01L10.81 294.01M10.81 294.01L7.26 295.2M7.26 295.2L4.9 297.56M4.9 297.56L3.71 301.11"/>
<path d="M5.43 237.73L18.45 237.73M18.45 237.73L11.35 247.2M11.35 247.2L14.9 247.2M14.9 247.2L17.26 248.38M17.26 248.38L18.45 249.57M18.45 249.57L19.63 253.12M19.63 253.12L19.63 255.48M19.63 255.48L18.45 259.03M18.45 259.03L16.08 261.4M16.08 261.4L12.53 262.58M12.53 262.58L8.98 262.58M8.98 262.58L5.43 261.4M5.43 261.4L4.25 260.21M4.25 260.21L3.07 257.85"/>
<path d="M318.97 399.48L319.39 400.09"/>
<path d="M386.77 348.62L386.4 345.72"/>
<path d="M74.27 344.07L73.54 344.42"/>
<path d="M134.79 401.05L138.24 400.74"/>
<path d="M89.73 376.11L90.06 378.41"/>
<path d="M140.2 138.4L139.78 137.79"/>
<path d="M72.4 189.26L72.78 192.16"/>
<path d="M111.86 155.39L108.2 152.73"/>
<path d="M384.91 193.81L385.63 193.46"/>
<path d="M324.39 136.83L320.94 137.15"/>
<path d="M369.45 161.8L369.13 159.5"/>
<path d="M362.02 401.05L371.49 399.47M371.49 399.47L379.52 394.96M379.52 394.96L384.89 388.21M384.89 388.21L386.77 380.25"/>
<path d="M72.4 380.25L74.29 388.21M74.29 388.21L79.65 394.96M79.65 394.96L87.69 399.47M87.69 399.47L97.16 401.05"/>
<path d="M97.16 136.83L87.69 138.41M87.69 138.41L79.65 142.92M79.65 142.92L74.29 149.67M74.29 149.67L72.4 157.64"/>
<path d="M386.77 157.64L384.89 149.67M384.89 149.67L379.52 142.92M379.52 142.92L371.49 138.41M371.49 138.41L362.02 136.83"/>
<path d="M386.77 189.26L386.77 234.61"/>
<path d="M386.77 234.61L386.77 303.27"/>
<path d="M386.77 303.27L386.77 348.62"/>
<path d="M386.77 380.25L386.77 348.62"/>
<path d="M386.77 189.26L386.77 157.64"/>
<path d="M318.98 399.48L333.64 391.57M333.64 391.57L347.32 382.49"/>
<path d="M319.39 400.09L319.81 400.37"/>
<path d="M319.81 400.37L320.99 400.78"/>
<path d="M320.99 400.78L324.39 401.05"/>
<path d="M324.39 401.05L362.02 401.05"/>
<path d="M386.4 345.72L386.19 345.24"/>
<path d="M386.19 345.24L385.63 344.47"/>
<path d="M385.63 344.47L384.91 344.07"/>
<path d="M364.69 367.89L375.49 356.39M375.49 356.39L384.91 344.07"/>
<path d="M369.45 376.09L367.79 370.88M367.79 370.88L363.26 367.08M363.26 367.08L357.07 365.68M357.07 365.68L350.88 367.08M350.88 367.08L346.35 370.88M346.35 370.88L344.69 376.09M344.69 376.09L346.35 381.29M346.35 381.29L350.88 385.09M350.88 385.09L357.07 386.49M357.07 386.49L363.26 385.09M363.26 385.09L367.79 381.29M367.79 381.29L369.45 376.09"/>
<path d="M324.39 401.05L134.79 401.05"/>
<path d="M97.16 401.05L134.79 401.05"/>
<path d="M74.27 344.07L83.69 356.39M83.69 356.39L94.48 367.89"/>
<path d="M73.54 344.42L73.21 344.77"/>
<path d="M73.21 344.77L72.73 345.76"/>
<path d="M72.73 345.76L72.4 348.62"/>
<path d="M72.4 348.62L72.4 380.25"/>
<path d="M138.24 400.74L138.8 400.56"/>
<path d="M138.8 400.56L139.73 400.09"/>
<path d="M139.73 400.09L140.2 399.48"/>
<path d="M111.86 382.49L125.54 391.57M125.54 391.57L140.2 399.48"/>
<path d="M90.06 378.41L91.99 382.08"/>
<path d="M91.99 382.08L94.33 384.11"/>
<path d="M94.33 384.11L97.37 385.62"/>
<path d="M97.37 385.62L101.51 386.51"/>
<path d="M101.51 386.51L106 385.98"/>
<path d="M106 385.98L109.21 384.6"/>
<path d="M109.21 384.6L111.86 382.49"/>
<path d="M114.48 376.07L112.81 370.87M112.81 370.87L108.27 367.07M108.27 367.07L102.08 365.68M102.08 365.68L95.89 367.09M95.89 367.09L91.37 370.91M91.37 370.91L89.73 376.11"/>
<path d="M72.4 348.62L72.4 303.27"/>
<path d="M72.4 303.27L72.4 234.61"/>
<path d="M72.4 234.61L72.4 189.26"/>
<path d="M72.4 157.64L72.4 189.26"/>
<path d="M140.2 138.4L125.54 146.31M125.54 146.31L111.86 155.39"/>
<path d="M139.78 137.79L139.37 137.51"/>
<path d="M139.37 137.51L138.19 137.11"/>
<path d="M138.19 137.11L134.79 136.83"/>
<path d="M72.78 192.16L72.98 192.64"/>
<path d="M72.98 192.64L73.55 193.42"/>
<path d="M73.55 193.42L74.27 193.81"/>
<path d="M94.48 169.99L83.69 181.49M83.69 181.49L74.27 193.81"/>
<path d="M89.73 161.77L91.38 166.98M91.38 166.98L95.9 170.8M95.9 170.8L102.09 172.2M102.09 172.2L108.29 170.81M108.29 170.81L112.82 167M112.82 167L114.48 161.8"/>
<path d="M108.2 152.73L105.18 151.67"/>
<path d="M105.18 151.67L102.88 151.35"/>
<path d="M102.88 151.35L99.23 151.7"/>
<path d="M99.23 151.7L95.89 152.89"/>
<path d="M95.89 152.89L93.16 154.63"/>
<path d="M93.16 154.63L91.14 156.98"/>
<path d="M91.14 156.98L89.94 159.95"/>
<path d="M89.94 159.95L89.73 161.77"/>
<path d="M97.55 136.83L324.39 136.83"/>
<path d="M362.02 136.83L324.39 136.83"/>
<path d="M384.91 193.81L375.49 181.49M375.49 181.49L364.69 169.99"/>
<path d="M385.63 193.46L385.97 193.11"/>
<path d="M385.97 193.11L386.45 192.12"/>
<path d="M386.45 192.12L386.77 189.26"/>
<path d="M320.94 137.15L320.37 137.32"/>
<path d="M320.37 137.32L319.45 137.79"/>
<path d="M319.45 137.79L318.97 138.4"/>
<path d="M347.32 155.39L333.64 146.31M333.64 146.31L318.98 138.4"/>
<path d="M369.13 159.5L367.2 155.82"/>
<path d="M367.2 155.82L364.86 153.78"/>
<path d="M364.86 153.78L361.82 152.27"/>
<path d="M361.82 152.27L357.67 151.37"/>
<path d="M357.67 151.37L353.18 151.9"/>
<path d="M353.18 151.9L349.97 153.28"/>
<path d="M349.97 153.28L347.32 155.39"/>
<path d="M347.32 155.39L344.78 160.55M344.78 160.55L345.79 166.07M345.79 166.07L350.04 170.36M350.04 170.36L356.33 172.18M356.33 172.18L362.82 171.01M362.82 171.01L367.66 167.18M367.66 167.18L369.45 161.8"/>
<path d="M379.35 195.07L370.05 183.13M370.05 183.13L359.4 172.01"/>
<path d="M384.91 193.81L379.35 195.07"/>
<path d="M379.35 342.81L379.35 303.27"/>
<path d="M379.35 342.81L384.91 344.07"/>
<path d="M379.35 234.61L379.35 195.07"/>
<path d="M379.35 303.27L379.35 234.61"/>
<path d="M359.4 365.87L370.05 354.75M370.05 354.75L379.35 342.81"/>
<path d="M317.48 394.81L331.68 386.99M331.68 386.99L344.91 378.05"/>
<path d="M317.48 394.81L318.97 399.48"/>
<path d="M141.7 394.81L317.48 394.81"/>
<path d="M141.7 394.81L140.2 399.48"/>
<path d="M111.86 382.49L113.81 379.47M113.81 379.47L114.48 376.09"/>
<path d="M114.26 378.05L127.49 386.99M127.49 386.99L141.7 394.81"/>
<path d="M79.83 342.81L89.13 354.75M89.13 354.75L99.77 365.87"/>
<path d="M79.83 342.81L74.27 344.07"/>
<path d="M79.83 195.07L79.83 234.61"/>
<path d="M74.27 193.81L79.83 195.07"/>
<path d="M79.83 303.27L79.83 342.81"/>
<path d="M79.83 234.61L79.83 303.27"/>
<path d="M99.77 172.01L89.13 183.13M89.13 183.13L79.83 195.07"/>
<path d="M114.48 161.8L113.81 158.41M113.81 158.41L111.86 155.39"/>
<path d="M141.7 143.07L127.49 150.89M127.49 150.89L114.26 159.84"/>
<path d="M140.2 138.4L141.7 143.07"/>
<path d="M317.48 143.07L141.7 143.07"/>
<path d="M318.97 138.4L317.48 143.07"/>
<path d="M344.91 159.84L331.68 150.89M331.68 150.89L317.48 143.07"/>
<path d="M178.84 151.06L161.38 152.5M161.38 152.5L144.59 156.78M144.59 156.78L129.11 163.74M129.11 163.74L115.55 173.09M115.55 173.09L104.42 184.49M104.42 184.49L96.14 197.5M96.14 197.5L91.05 211.61M91.05 211.61L89.33 226.29"/>
<path d="M178.84 151.06L280.33 151.06"/>
<path d="M369.85 226.29L368.13 211.61M368.13 211.61L363.03 197.5M363.03 197.5L354.76 184.49M354.76 184.49L343.63 173.09M343.63 173.09L330.06 163.74M330.06 163.74L314.59 156.78M314.59 156.78L297.8 152.5M297.8 152.5L280.33 151.06"/>
<path d="M369.85 226.29L369.85 311.59"/>
<path d="M280.33 386.83L297.8 385.38M297.8 385.38L314.59 381.1M314.59 381.1L330.06 374.15M330.06 374.15L343.63 364.79M343.63 364.79L354.76 353.39M354.76 353.39L363.03 340.38M363.03 340.38L368.13 326.27M368.13 326.27L369.85 311.59"/>
<path d="M280.33 386.83L178.84 386.83"/>
<path d="M89.33 311.59L91.05 326.27M91.05 326.27L96.14 340.38M96.14 340.38L104.42 353.39M104.42 353.39L115.55 364.79M115.55 364.79L129.11 374.15M129.11 374.15L144.59 381.1M144.59 381.1L161.38 385.38M161.38 385.38L178.84 386.83"/>
<path d="M89.33 311.59L89.33 226.29"/>
<path d="M96.37 226.29L89.33 226.29"/>
<path d="M178.84 156.98L162.76 158.31M162.76 158.31L147.28 162.25M147.28 162.25L133.03 168.66M133.03 168.66L120.53 177.28M120.53 177.28L110.27 187.78M110.27 187.78L102.65 199.77M102.65 199.77L97.96 212.77M97.96 212.77L96.38 226.29"/>
<path d="M178.84 156.98L178.84 151.06"/>
<path d="M280.33 156.98L178.84 156.98"/>
<path d="M280.33 151.06L280.33 156.98"/>
<path d="M369.85 226.29L362.8 226.29"/>
<path d="M362.8 226.29L361.22 212.77M361.22 212.77L356.53 199.77M356.53 199.77L348.9 187.78M348.9 187.78L338.65 177.28M338.65 177.28L326.15 168.66M326.15 168.66L311.89 162.25M311.89 162.25L296.42 158.31M296.42 158.31L280.33 156.98"/>
<path d="M369.85 311.59L362.8 311.59"/>
<path d="M362.8 311.59L362.8 226.29"/>
<path d="M280.33 386.83L280.33 380.9"/>
<path d="M280.33 380.9L296.42 379.57M296.42 379.57L311.89 375.63M311.89 375.63L326.15 369.22M326.15 369.22L338.65 360.6M338.65 360.6L348.9 350.1M348.9 350.1L356.53 338.12M356.53 338.12L361.22 325.11M361.22 325.11L362.8 311.59"/>
<path d="M178.84 380.9L280.33 380.9"/>
<path d="M178.84 380.9L178.84 386.83"/>
<path d="M96.38 311.59L97.96 325.11M97.96 325.11L102.65 338.12M102.65 338.12L110.27 350.1M110.27 350.1L120.53 360.6M120.53 360.6L133.03 369.22M133.03 369.22L147.28 375.63M147.28 375.63L162.76 379.57M162.76 379.57L178.84 380.9"/>
<path d="M89.33 311.59L96.37 311.59"/>
<path d="M96.37 226.29L96.37 311.59"/>
<path d="M178.84 161.48L178.84 156.98"/>
<path d="M178.84 161.48L161.68 163.1M161.68 163.1L145.38 167.9M145.38 167.9L130.76 175.62M130.76 175.62L118.55 185.88M118.55 185.88L109.36 198.17M109.36 198.17L103.66 211.87M103.66 211.87L101.73 226.29"/>
<path d="M101.73 226.29L96.37 226.29"/>
<path d="M178.84 161.48L280.33 161.48"/>
<path d="M280.33 161.48L280.33 156.98"/>
<path d="M357.45 226.29L362.8 226.29"/>
<path d="M357.45 226.29L355.52 211.87M355.52 211.87L349.81 198.17M349.81 198.17L340.63 185.88M340.63 185.88L328.41 175.62M328.41 175.62L313.79 167.9M313.79 167.9L297.49 163.1M297.49 163.1L280.33 161.48"/>
<path d="M357.45 226.29L357.45 311.59"/>
<path d="M362.8 311.59L357.45 311.59"/>
<path d="M280.33 380.9L280.33 376.41"/>
<path d="M280.33 376.41L297.49 374.78M297.49 374.78L313.79 369.99M313.79 369.99L328.41 362.26M328.41 362.26L340.63 352M340.63 352L349.81 339.71M349.81 339.71L355.52 326.01M355.52 326.01L357.45 311.59"/>
<path d="M280.33 376.41L178.84 376.41"/>
<path d="M178.84 380.9L178.84 376.41"/>
<path d="M96.37 311.59L101.73 311.59"/>
<path d="M101.73 311.59L103.66 326.01M103.66 326.01L109.36 339.71M109.36 339.71L118.55 352M118.55 352L130.76 362.26M130.76 362.26L145.38 369.99M145.38 369.99L161.68 374.78M161.68 374.78L178.84 376.41"/>
<path d="M101.73 311.59L101.73 226.29"/>
<path d="M220.31 246.58L220.31 253.86"/>
<path d="M220.31 253.86L238.87 253.86"/>
<path d="M238.87 253.86L238.87 246.58"/>
<path d="M238.87 246.58L220.31 246.58"/>
<path d="M238.87 291.31L238.87 284.02"/>
<path d="M238.87 284.02L220.31 284.02"/>
<path d="M220.31 284.02L220.31 291.31"/>
<path d="M220.31 291.31L238.87 291.31"/>
<path d="M293.33 253.86L293.33 246.58"/>
<path d="M293.33 246.58L274.76 246.58"/>
<path d="M274.76 246.58L274.76 253.86"/>
<path d="M274.76 253.86L293.33 253.86"/>
<path d="M293.33 291.31L293.33 284.02"/>
<path d="M293.33 284.02L274.76 284.02"/>
<path d="M274.76 284.02L274.76 291.31"/>
<path d="M274.76 291.31L293.33 291.31"/>
<path d="M165.85 246.58L165.85 253.86"/>
<path d="M165.85 253.86L184.41 253.86"/>
<path d="M184.41 253.86L184.41 246.58"/>
<path d="M184.41 246.58L165.85 246.58"/>
<path d="M165.85 284.02L165.85 291.31"/>
<path d="M165.85 291.31L184.41 291.31"/>
<path d="M184.41 291.31L184.41 284.02"/>
<path d="M184.41 284.02L165.85 284.02"/>
<path d="M148.52 297.86L148.52 240.02"/>
<path d="M310.66 240.02L310.66 297.86"/>
<path d="M102.11 226.29L101.73 226.29"/>
<path d="M178.84 161.8L161.77 163.41M161.77 163.41L145.55 168.18M145.55 168.18L131 175.87M131 175.87L118.85 186.08M118.85 186.08L109.71 198.31M109.71 198.31L104.03 211.94M104.03 211.94L102.11 226.29"/>
<path d="M178.84 161.8L178.84 161.48"/>
<path d="M280.33 161.8L178.84 161.8"/>
<path d="M280.33 161.8L280.33 161.48"/>
<path d="M357.07 226.29L355.15 211.94M355.15 211.94L349.47 198.31M349.47 198.31L340.33 186.08M340.33 186.08L328.18 175.87M328.18 175.87L313.63 168.18M313.63 168.18L297.41 163.41M297.41 163.41L280.33 161.8"/>
<path d="M357.07 226.29L357.45 226.29"/>
<path d="M357.07 311.59L357.45 311.59"/>
<path d="M357.07 311.59L357.07 226.29"/>
<path d="M280.33 376.41L280.33 376.09"/>
<path d="M280.33 376.09L297.41 374.47M297.41 374.47L313.63 369.7M313.63 369.7L328.18 362.01M328.18 362.01L340.33 351.8M340.33 351.8L349.47 339.57M349.47 339.57L355.15 325.94M355.15 325.94L357.07 311.59"/>
<path d="M178.84 376.41L178.84 376.09"/>
<path d="M178.84 376.09L280.33 376.09"/>
<path d="M101.73 311.59L102.11 311.59"/>
<path d="M102.11 311.59L104.03 325.94M104.03 325.94L109.71 339.57M109.71 339.57L118.85 351.8M118.85 351.8L131 362.01M131 362.01L145.55 369.7M145.55 369.7L161.77 374.47M161.77 374.47L178.84 376.09"/>
<path d="M102.11 226.29L102.11 311.59"/>
<path d="M145.43 297.86L145.43 240.02"/>
<path d="M244.44 244.29L238.87 246.58"/>
<path d="M214.74 244.29L244.44 244.29"/>
<path d="M220.31 246.58L214.74 244.29"/>
<path d="M214.74 256.15L214.74 244.29"/>
<path d="M214.74 256.15L220.31 253.86"/>
<path d="M244.44 256.15L214.74 256.15"/>
<path d="M238.87 253.86L244.44 256.15"/>
<path d="M244.44 244.29L244.44 256.15"/>
<path d="M214.74 293.59L220.31 291.31"/>
<path d="M244.44 293.59L214.74 293.59"/>
<path d="M238.87 291.31L244.44 293.59"/>
<path d="M244.44 281.74L244.44 293.59"/>
<path d="M244.44 281.74L238.87 284.02"/>
<path d="M214.74 281.74L244.44 281.74"/>
<path d="M220.31 284.02L214.74 281.74"/>
<path d="M214.74 293.59L214.74 281.74"/>
<path d="M269.19 256.15L274.76 253.86"/>
<path d="M298.9 256.15L269.19 256.15"/>
<path d="M293.33 253.86L298.9 256.15"/>
<path d="M298.9 244.29L298.9 256.15"/>
<path d="M298.9 244.29L293.33 246.58"/>
<path d="M269.19 244.29L298.9 244.29"/>
<path d="M274.76 246.58L269.19 244.29"/>
<path d="M269.19 256.15L269.19 244.29"/>
<path d="M269.19 293.59L274.76 291.31"/>
<path d="M298.9 293.59L269.19 293.59"/>
<path d="M293.33 291.31L298.9 293.59"/>
<path d="M298.9 281.74L298.9 293.59"/>
<path d="M298.9 281.74L293.33 284.02"/>
<path d="M269.19 281.74L298.9 281.74"/>
<path d="M274.76 284.02L269.19 281.74"/>
<path d="M269.19 293.59L269.19 281.74"/>
<path d="M189.98 244.29L184.41 246.58"/>
<path d="M160.28 244.29L189.98 244.29"/>
<path d="M165.85 246.58L160.28 244.29"/>
<path d="M160.28 256.15L160.28 244.29"/>
<path d="M160.28 256.15L165.85 253.86"/>
<path d="M189.98 256.15L160.28 256.15"/>
<path d="M184.41 253.86L189.98 256.15"/>
<path d="M189.98 244.29L189.98 256.15"/>
<path d="M189.98 281.74L184.41 284.02"/>
<path d="M160.28 281.74L189.98 281.74"/>
<path d="M165.85 284.02L160.28 281.74"/>
<path d="M160.28 293.59L160.28 281.74"/>
<path d="M160.28 293.59L165.85 291.31"/>
<path d="M189.98 293.59L160.28 293.59"/>
<path d="M184.41 291.31L189.98 293.59"/>
<path d="M189.98 281.74L189.98 293.59"/>
<path d="M303.23 297.86L303.23 240.02"/>
<path d="M145.43 297.86L151.61 297.86"/>
<path d="M151.61 297.86L155.95 297.86"/>
<path d="M155.95 240.02L155.95 297.86"/>
<path d="M151.61 240.02L155.95 240.02"/>
<path d="M145.43 240.02L151.61 240.02"/>
<path d="M303.23 297.86L307.56 297.86"/>
<path d="M307.56 297.86L313.75 297.86"/>
<path d="M313.75 240.02L313.75 297.86"/>
<path d="M307.56 240.02L313.75 240.02"/>
<path d="M303.23 240.02L307.56 240.02"/>
<path d="M133.05 257.5L131.33 257.5"/>
<path d="M131.33 257.5L131.33 280.38"/>
<path d="M131.33 280.38L133.05 280.38"/>
<path d="M202.36 353.24L202.36 352.29"/>
<path d="M182.56 352.29L182.56 353.24"/>
<path d="M202.36 353.24L182.56 353.24"/>
<path d="M275.38 182.6L258.06 182.6"/>
<path d="M201.12 182.6L183.8 182.6"/>
<path d="M104.58 299.11L104.58 241.9"/>
<path d="M327.85 257.5L327.85 280.38"/>
<path d="M327.85 257.5L326.13 257.5"/>
<path d="M326.13 280.38L327.85 280.38"/>
<path d="M354.59 299.11L354.59 241.9"/>
<path d="M270.43 193L270.43 203.41"/>
<path d="M307.56 234.61L305.75 224.97M305.75 224.97L300.47 216.27M300.47 216.27L292.26 209.37M292.26 209.37L281.91 204.93M281.91 204.93L270.43 203.41"/>
<path d="M319.94 234.61L307.56 234.61"/>
<path d="M319.94 234.61L318.25 223.84M318.25 223.84L313.31 213.81M313.31 213.81L305.44 205.19M305.44 205.19L295.19 198.58M295.19 198.58L283.25 194.42M283.25 194.42L270.43 193"/>
<path d="M211.02 193L211.02 195.08"/>
<path d="M188.74 193L211.02 193"/>
<path d="M188.74 193L188.74 203.41"/>
<path d="M270.43 203.41L188.74 203.41"/>
<path d="M248.15 193L270.43 193"/>
<path d="M248.15 195.08L248.15 193"/>
<path d="M248.15 195.08L211.02 195.08"/>
<path d="M139.24 234.61L151.61 234.61"/>
<path d="M188.74 203.41L177.27 204.93M177.27 204.93L166.92 209.37M166.92 209.37L158.71 216.27M158.71 216.27L153.43 224.97M153.43 224.97L151.61 234.61"/>
<path d="M188.74 193L175.93 194.42M175.93 194.42L163.99 198.58M163.99 198.58L153.74 205.19M153.74 205.19L145.87 213.81M145.87 213.81L140.92 223.84M140.92 223.84L139.24 234.61"/>
<path d="M151.61 297.86L151.61 303.27"/>
<path d="M151.61 234.61L151.61 240.02"/>
<path d="M139.24 303.27L139.24 234.61"/>
<path d="M139.24 303.27L151.61 303.27"/>
<path d="M188.74 344.88L188.74 334.48"/>
<path d="M151.61 303.27L153.43 312.91M153.43 312.91L158.71 321.61M158.71 321.61L166.92 328.52M166.92 328.52L177.27 332.95M177.27 332.95L188.74 334.48"/>
<path d="M139.24 303.27L140.92 314.04M140.92 314.04L145.87 324.07M145.87 324.07L153.74 332.69M153.74 332.69L163.99 339.3M163.99 339.3L175.93 343.46M175.93 343.46L188.74 344.88"/>
<path d="M190.73 344.88L188.74 344.88"/>
<path d="M190.73 344.88L190.73 334.48"/>
<path d="M188.74 334.48L190.73 334.48"/>
<path d="M190.73 334.48L190.73 308.99"/>
<path d="M268.45 308.99L268.45 334.48"/>
<path d="M268.45 334.48L270.43 334.48"/>
<path d="M270.43 334.48L281.91 332.95M281.91 332.95L292.26 328.52M292.26 328.52L300.47 321.61M300.47 321.61L305.75 312.91M305.75 312.91L307.56 303.27"/>
<path d="M307.56 303.27L307.56 297.86"/>
<path d="M307.56 240.02L307.56 234.61"/>
<path d="M268.45 334.48L268.45 344.88"/>
<path d="M270.43 344.88L268.45 344.88"/>
<path d="M270.43 344.88L270.43 334.48"/>
<path d="M319.94 303.27L307.56 303.27"/>
<path d="M270.43 344.88L283.25 343.46M283.25 343.46L295.19 339.3M295.19 339.3L305.44 332.69M305.44 332.69L313.31 324.07M313.31 324.07L318.25 314.04M318.25 314.04L319.94 303.27"/>
<path d="M319.94 234.61L319.94 303.27"/>
<path d="M125.62 311.59L127.44 323.17M127.44 323.17L132.75 333.96M132.75 333.96L141.21 343.22M141.21 343.22L152.23 350.33M152.23 350.33L165.07 354.8M165.07 354.8L178.84 356.32"/>
<path d="M178.84 356.32L178.84 360.48"/>
<path d="M120.67 311.59L122.66 324.24M122.66 324.24L128.47 336.04M128.47 336.04L137.71 346.16M137.71 346.16L149.76 353.93M149.76 353.93L163.79 358.82M163.79 358.82L178.84 360.48"/>
<path d="M125.62 311.59L120.67 311.59"/>
<path d="M131.33 257.5L125.62 257.5"/>
<path d="M131.33 280.38L125.62 280.38"/>
<path d="M120.67 299.11L125.62 299.11"/>
<path d="M120.67 311.59L120.67 299.11"/>
<path d="M125.62 299.11L125.62 311.59"/>
<path d="M120.67 299.11L104.58 299.11"/>
<path d="M125.62 241.9L125.62 299.11"/>
<path d="M125.62 241.9L120.67 241.9"/>
<path d="M104.58 241.9L120.67 241.9"/>
<path d="M125.62 226.29L125.62 241.9"/>
<path d="M125.62 226.29L120.67 226.29"/>
<path d="M120.67 241.9L120.67 226.29"/>
<path d="M178.84 181.56L165.07 183.09M165.07 183.09L152.23 187.55M152.23 187.55L141.21 194.66M141.21 194.66L132.75 203.93M132.75 203.93L127.44 214.71M127.44 214.71L125.62 226.29"/>
<path d="M178.84 177.4L163.79 179.07M163.79 179.07L149.76 183.95M149.76 183.95L137.71 191.72M137.71 191.72L128.47 201.85M128.47 201.85L122.66 213.64M122.66 213.64L120.67 226.29"/>
<path d="M178.84 181.56L178.84 177.4"/>
<path d="M280.33 360.48L295.39 358.82M295.39 358.82L309.42 353.93M309.42 353.93L321.47 346.16M321.47 346.16L330.71 336.04M330.71 336.04L336.52 324.24M336.52 324.24L338.5 311.59"/>
<path d="M280.33 360.48L280.33 356.32"/>
<path d="M280.33 356.32L294.11 354.8M294.11 354.8L306.94 350.33M306.94 350.33L317.97 343.22M317.97 343.22L326.42 333.96M326.42 333.96L331.74 323.17M331.74 323.17L333.55 311.59"/>
<path d="M338.5 311.59L333.55 311.59"/>
<path d="M276.62 353.24L276.62 352.16"/>
<path d="M256.82 353.24L256.82 352.16"/>
<path d="M256.82 353.24L276.62 353.24"/>
<path d="M202.36 352.29L202.36 352.16"/>
<path d="M182.56 352.16L182.56 352.29"/>
<path d="M276.62 353.24L276.62 356.32"/>
<path d="M256.82 353.24L256.82 356.32"/>
<path d="M280.33 360.48L178.84 360.48"/>
<path d="M178.84 356.32L280.33 356.32"/>
<path d="M182.56 353.24L182.56 356.32"/>
<path d="M202.36 353.24L202.36 356.32"/>
<path d="M256.82 181.56L257.18 182.3M257.18 182.3L258.06 182.6"/>
<path d="M275.38 182.6L276 182.46M276 182.46L276.45 182.08M276.45 182.08L276.62 181.56"/>
<path d="M275.38 182.6L275.38 181.56"/>
<path d="M258.06 181.56L258.06 182.6"/>
<path d="M182.56 181.56L182.92 182.3M182.92 182.3L183.8 182.6"/>
<path d="M201.12 182.6L201.74 182.46M201.74 182.46L202.19 182.08M202.19 182.08L202.36 181.56"/>
<path d="M201.12 182.6L201.12 181.56"/>
<path d="M183.8 181.56L183.8 182.6"/>
<path d="M178.84 177.4L280.33 177.4"/>
<path d="M338.5 226.29L336.52 213.64M336.52 213.64L330.71 201.85M330.71 201.85L321.47 191.72M321.47 191.72L309.42 183.95M309.42 183.95L295.39 179.07M295.39 179.07L280.33 177.4"/>
<path d="M338.5 226.29L338.5 241.9"/>
<path d="M354.59 241.9L338.5 241.9"/>
<path d="M338.5 299.11L354.59 299.11"/>
<path d="M338.5 299.11L338.5 311.59"/>
<path d="M280.33 177.4L280.33 181.56"/>
<path d="M280.33 181.56L178.84 181.56"/>
<path d="M327.85 280.38L333.55 280.38"/>
<path d="M327.85 257.5L333.55 257.5"/>
<path d="M333.55 241.9L333.55 226.29"/>
<path d="M333.55 241.9L338.5 241.9"/>
<path d="M338.5 226.29L333.55 226.29"/>
<path d="M333.55 299.11L333.55 241.9"/>
<path d="M338.5 299.11L333.55 299.11"/>
<path d="M333.55 311.59L333.55 299.11"/>
<path d="M333.55 226.29L331.74 214.71M331.74 214.71L326.42 203.93M326.42 203.93L317.97 194.66M317.97 194.66L306.94 187.55M306.94 187.55L294.11 183.09M294.11 183.09L280.33 181.56"/>
<path d="M133.05 257.5L133.05 280.38"/>
<path d="M326.13 280.38L326.13 257.5"/>
<path d="M276.62 352.16L256.82 352.16"/>
<path d="M182.56 352.16L202.36 352.16"/>
<path d="M211.65 308.99L211.65 318.66"/>
<path d="M211.65 318.66L193.88 318.66"/>
<path d="M265.3 342.8L265.3 308.99"/>
<path d="M211.65 318.66L265.3 318.66"/>
<path d="M247.53 308.99L247.53 318.66"/>
<path d="M197.72 318.66L207.32 325.46M207.32 325.46L218.29 329.72M218.29 329.72L229.96 331.17M229.96 331.17L241.64 329.72M241.64 329.72L252.61 325.46M252.61 325.46L262.2 318.66"/>
<path d="M190.73 308.99L211.65 308.99"/>
<path d="M247.53 308.99L268.45 308.99"/>
<path d="M265.3 342.8L266.65 344.18M266.65 344.18L268.45 344.88"/>
<path d="M265.3 332.4L266.65 333.77M266.65 333.77L268.45 334.48"/>
<path d="M193.88 342.8L193.88 308.99"/>
<path d="M190.73 344.88L192.53 344.18M192.53 344.18L193.88 342.8"/>
<path d="M190.73 334.48L192.53 333.77M192.53 333.77L193.88 332.4"/>
<path d="M72.4 157.64L72.4 72.82"/>
<path d="M77.32 67.91L184.42 67.91"/>
<path d="M97.55 67.91L97.55 136.83"/>
<path d="M77.32 67.91L73.84 69.35M73.84 69.35L72.4 72.82"/>
<path d="M163.11 136.83L163.11 107.06"/>
<path d="M168.03 102.14L229.59 102.14"/>
<path d="M199.55 102.14L199.55 76.71"/>
<path d="M204.46 71.79L229.59 71.79"/>
<path d="M189.33 102.14L189.33 72.82"/>
<path d="M181.59 102.14L181.59 67.91"/>
<path d="M72.4 74.9L189.33 74.9"/>
<path d="M199.55 76.84L229.59 76.84"/>
<path d="M199.55 87.32L229.59 87.32"/>
<path d="M229.59 111.98L167.13 111.98"/>
<path d="M167.13 111.98L163.11 108.64"/>
<path d="M170.46 111.98L170.46 136.83"/>
<path d="M168.03 102.14L164.55 103.58M164.55 103.58L163.11 107.06"/>
<path d="M189.33 72.82L187.89 69.35M187.89 69.35L184.42 67.91"/>
<path d="M204.46 71.79L200.99 73.23M200.99 73.23L199.55 76.71"/>
<path d="M386.77 72.82L385.33 69.35M385.33 69.35L381.86 67.91"/>
<path d="M361.62 67.91L361.62 136.83"/>
<path d="M386.77 157.64L386.77 72.82"/>
<path d="M277.59 102.14L277.59 67.91"/>
<path d="M386.77 74.9L269.84 74.9"/>
<path d="M259.63 87.32L229.59 87.32"/>
<path d="M259.63 76.84L229.59 76.84"/>
<path d="M229.59 111.98L292.04 111.98"/>
<path d="M292.04 111.98L296.07 108.64"/>
<path d="M296.07 107.06L294.63 103.58M294.63 103.58L291.15 102.14"/>
<path d="M288.72 111.98L288.72 136.83"/>
<path d="M274.76 67.91L271.28 69.35M271.28 69.35L269.84 72.82"/>
<path d="M296.07 136.83L296.07 107.06"/>
<path d="M259.63 76.71L258.19 73.23M258.19 73.23L254.71 71.79"/>
<path d="M291.15 102.14L229.59 102.14"/>
<path d="M269.84 102.14L269.84 72.82"/>
<path d="M381.86 67.91L274.76 67.91"/>
<path d="M254.71 71.79L229.59 71.79"/>
<path d="M259.63 102.14L259.63 76.71"/>
<path d="M72.4 380.25L72.4 465.06"/>
<path d="M77.32 469.98L184.42 469.98"/>
<path d="M97.55 469.98L97.55 401.05"/>
<path d="M72.4 465.06L73.84 468.54M73.84 468.54L77.32 469.98"/>
<path d="M163.11 401.05L163.11 430.82"/>
<path d="M168.03 435.74L229.59 435.74"/>
<path d="M199.55 435.74L199.55 461.18"/>
<path d="M204.46 466.09L229.59 466.09"/>
<path d="M189.33 435.74L189.33 465.06"/>
<path d="M181.59 435.74L181.59 469.98"/>
<path d="M72.4 462.98L189.33 462.98"/>
<path d="M199.55 461.04L229.59 461.04"/>
<path d="M199.55 450.56L229.59 450.56"/>
<path d="M229.59 425.91L167.13 425.91"/>
<path d="M167.13 425.91L163.11 429.25"/>
<path d="M170.46 425.91L170.46 401.05"/>
<path d="M163.11 430.82L164.55 434.3M164.55 434.3L168.03 435.74"/>
<path d="M184.42 469.98L187.89 468.54M187.89 468.54L189.33 465.06"/>
<path d="M199.55 461.18L200.99 464.65M200.99 464.65L204.46 466.09"/>
<path d="M381.86 469.98L385.33 468.54M385.33 468.54L386.77 465.06"/>
<path d="M361.62 469.98L361.62 401.05"/>
<path d="M386.77 380.25L386.77 465.06"/>
<path d="M277.59 435.74L277.59 469.98"/>
<path d="M386.77 462.98L269.84 462.98"/>
<path d="M259.63 450.56L229.59 450.56"/>
<path d="M259.63 461.04L229.59 461.04"/>
<path d="M229.59 425.91L292.04 425.91"/>
<path d="M292.04 425.91L296.07 429.25"/>
<path d="M291.15 435.74L294.63 434.3M294.63 434.3L296.07 430.82"/>
<path d="M288.72 425.91L288.72 401.05"/>
<path d="M269.84 465.06L271.28 468.54M271.28 468.54L274.76 469.98"/>
<path d="M296.07 401.05L296.07 430.82"/>
<path d="M254.71 466.09L258.19 464.65M258.19 464.65L259.63 461.18"/>
<path d="M291.15 435.74L229.59 435.74"/>
<path d="M269.84 435.74L269.84 465.06"/>
<path d="M381.86 469.98L274.76 469.98"/>
<path d="M254.71 466.09L229.59 466.09"/>
<path d="M259.63 435.74L259.63 461.18"/>
<path d="M43.24 181.4L43.24 268.94"/>
<path d="M64.48 268.94L64.48 239.14"/>
<path d="M64.48 239.14L52.25 239.14"/>
<path d="M52.25 239.14L52.25 228.7"/>
<path d="M52.25 228.7L72.4 228.7"/>
<path d="M72.4 223.59L47.74 223.59"/>
<path d="M64.48 245.91L47.74 245.91"/>
<path d="M43.24 240.22L45.25 244.53M45.25 244.53L48.01 245.9M48.01 245.9L50.69 243.9M50.69 243.9L52.48 239.14"/>
<path d="M52.25 229.33L50.36 225.14M50.36 225.14L47.75 223.59M47.75 223.59L45.13 225.11M45.13 225.11L43.24 229.28"/>
<path d="M53.28 268.94L53.28 245.91"/>
<path d="M49.55 175.58L49.55 196.86"/>
<path d="M49.55 196.86L72.4 196.86"/>
<path d="M49.55 175.58L72.4 175.58"/>
<path d="M49.55 175.58L45.21 177.21M45.21 177.21L43.24 181.4"/>
<path d="M43.24 191.05L45.21 195.24M45.21 195.24L49.55 196.86"/>
<path d="M43.24 181.4L72.4 181.4"/>
<path d="M43.24 189.61L72.4 189.61"/>
<path d="M53.63 223.59L53.63 196.86"/>
<path d="M72.4 140.28L62.82 145.07M62.82 145.07L54.69 152.05M54.69 152.05L48.49 160.79M48.49 160.79L44.59 170.77M44.59 170.77L43.24 181.4"/>
<path d="M72.4 152.06L63.66 157.55M63.66 157.55L57.35 165.73M57.35 165.73L54.26 175.58"/>
<path d="M43.24 356.48L43.24 268.94"/>
<path d="M64.48 268.94L64.48 298.74"/>
<path d="M64.48 298.74L52.25 298.74"/>
<path d="M52.25 298.74L52.25 309.19"/>
<path d="M52.25 309.19L72.4 309.19"/>
<path d="M72.4 314.29L47.74 314.29"/>
<path d="M64.48 291.97L47.74 291.97"/>
<path d="M52.25 308.55L50.36 312.74M50.36 312.74L47.75 314.29M47.75 314.29L45.13 312.77M45.13 312.77L43.24 308.6"/>
<path d="M43.24 297.66L45.25 293.35M45.25 293.35L48.01 291.99M48.01 291.99L50.69 293.98M50.69 293.98L52.48 298.74"/>
<path d="M49.55 362.3L49.55 341.02"/>
<path d="M53.28 268.94L53.28 291.97"/>
<path d="M49.55 362.3L72.4 362.3"/>
<path d="M49.55 341.02L72.4 341.02"/>
<path d="M43.24 356.48L45.21 360.67M45.21 360.67L49.55 362.3"/>
<path d="M49.55 341.02L45.21 342.65M45.21 342.65L43.24 346.84"/>
<path d="M43.24 356.48L72.4 356.48"/>
<path d="M43.24 348.28L72.4 348.28"/>
<path d="M53.63 314.29L53.63 341.02"/>
<path d="M43.24 356.48L44.59 367.11M44.59 367.11L48.49 377.09M48.49 377.09L54.69 385.83M54.69 385.83L62.82 392.81M62.82 392.81L72.4 397.61"/>
<path d="M54.26 362.3L57.35 372.15M57.35 372.15L63.66 380.33M63.66 380.33L72.4 385.83"/>
<path d="M415.94 181.4L415.94 268.94"/>
<path d="M394.7 268.94L394.7 239.14"/>
<path d="M394.7 239.14L406.93 239.14"/>
<path d="M406.93 239.14L406.93 228.7"/>
<path d="M406.93 228.7L386.77 228.7"/>
<path d="M386.77 223.59L411.44 223.59"/>
<path d="M394.7 245.91L411.44 245.91"/>
<path d="M415.94 240.22L413.93 244.53M413.93 244.53L411.16 245.9M411.16 245.9L408.49 243.9M408.49 243.9L406.7 239.14"/>
<path d="M406.93 229.33L408.82 225.14M408.82 225.14L411.43 223.59M411.43 223.59L414.04 225.11M414.04 225.11L415.94 229.28"/>
<path d="M405.9 268.94L405.9 245.91"/>
<path d="M409.62 175.58L409.62 196.86"/>
<path d="M409.62 196.86L386.77 196.86"/>
<path d="M409.62 175.58L386.77 175.58"/>
<path d="M415.94 181.4L413.96 177.21M413.96 177.21L409.62 175.58"/>
<path d="M409.62 196.86L413.96 195.24M413.96 195.24L415.94 191.05"/>
<path d="M415.94 181.4L386.77 181.4"/>
<path d="M415.94 189.61L386.77 189.61"/>
<path d="M405.55 223.59L405.55 196.86"/>
<path d="M415.94 181.4L414.58 170.77M414.58 170.77L410.69 160.79M410.69 160.79L404.49 152.05M404.49 152.05L396.36 145.07M396.36 145.07L386.77 140.28"/>
<path d="M404.92 175.58L401.83 165.73M401.83 165.73L395.52 157.55M395.52 157.55L386.77 152.06"/>
<path d="M415.94 356.48L415.94 268.94"/>
<path d="M394.7 268.94L394.7 298.74"/>
<path d="M394.7 298.74L406.93 298.74"/>
<path d="M406.93 298.74L406.93 309.19"/>
<path d="M406.93 309.19L386.77 309.19"/>
<path d="M386.77 314.29L411.44 314.29"/>
<path d="M394.7 291.97L411.44 291.97"/>
<path d="M406.93 308.55L408.82 312.74M408.82 312.74L411.43 314.29M411.43 314.29L414.04 312.77M414.04 312.77L415.94 308.6"/>
<path d="M415.94 297.66L413.93 293.35M413.93 293.35L411.16 291.99M411.16 291.99L408.49 293.98M408.49 293.98L406.7 298.74"/>
<path d="M409.62 362.3L409.62 341.02"/>
<path d="M405.9 268.94L405.9 291.97"/>
<path d="M409.62 362.3L386.77 362.3"/>
<path d="M409.62 341.02L386.77 341.02"/>
<path d="M409.62 362.3L413.96 360.67M413.96 360.67L415.94 356.48"/>
<path d="M415.94 346.84L413.96 342.65M413.96 342.65L409.62 341.02"/>
<path d="M415.94 356.48L386.77 356.48"/>
<path d="M415.94 348.28L386.77 348.28"/>
<path d="M405.55 314.29L405.55 341.02"/>
<path d="M386.77 397.61L396.36 392.81M396.36 392.81L404.49 385.83M404.49 385.83L410.69 377.09M410.69 377.09L414.58 367.11M414.58 367.11L415.94 356.48"/>
<path d="M386.77 385.83L395.52 380.33M395.52 380.33L401.83 372.15M401.83 372.15L404.92 362.3"/>
</g>
</g>
</svg>
