<?xml version="1.0" standalone="no"?><svg xmlns="http://www.w3.org/2000/svg" width="600.000" height="450.000" viewBox="0.0 0.0 600.000 450.000" version="1.1">
<title>Acme Converter - Post-processed with EDS-Designer: 14.44 (info@symca.com)</title>
<desc>Acme Converter - Post-processed with EDS-Designer: 14.44 (info@symca.com)</desc>
<g id="EDS_STYLE_GROUP" fill="none" stroke="black" stroke-width="1.0">
<g id="0" display="visible">
<path d="M248.77 386.1L248.77 358.11M250.1 358.11L250.1 386.1M244.77 358.11L260.77 358.11M260.77 358.11L264.76 359.45M264.76 359.45L266.1 360.78M266.1 360.78L267.43 363.45M267.43 363.45L267.43 366.11M267.43 366.11L266.1 368.78M266.1 368.78L264.76 370.11M264.76 370.11L260.77 371.44M260.77 358.11L263.43 359.45M263.43 359.45L264.76 360.78M264.76 360.78L266.1 363.45M266.1 363.45L266.1 366.11M266.1 366.11L264.76 368.78M264.76 368.78L263.43 370.11M263.43 370.11L260.77 371.44M250.1 371.44L260.77 371.44M260.77 371.44L264.76 372.77M264.76 372.77L266.1 374.11M266.1 374.11L267.43 376.77M267.43 376.77L267.43 380.77M267.43 380.77L266.1 383.44M266.1 383.44L264.76 384.77M264.76 384.77L260.77 386.1M260.77 386.1L244.77 386.1M260.77 371.44L263.43 372.77M263.43 372.77L264.76 374.11M264.76 374.11L266.1 376.77M266.1 376.77L266.1 380.77M266.1 380.77L264.76 383.44M264.76 383.44L263.43 384.77M263.43 384.77L260.77 386.1M278.09 386.1L278.09 358.11M279.42 358.11L279.42 386.1M274.09 358.11L283.42 358.11M274.09 386.1L294.08 386.1M294.08 386.1L294.08 378.11M294.08 378.11L292.75 386.1M310.08 358.11L300.75 386.1M310.08 358.11L319.41 386.1M310.08 362.11L318.07 386.1M303.41 378.11L315.41 378.11M298.08 386.1L306.08 386.1M314.07 386.1L322.07 386.1M344.73 362.11L346.06 366.11M346.06 366.11L346.06 358.11M346.06 358.11L344.73 362.11M344.73 362.11L342.06 359.45M342.06 359.45L338.06 358.11M338.06 358.11L335.4 358.11M335.4 358.11L331.4 359.45M331.4 359.45L328.73 362.11M328.73 362.11L327.4 364.78M327.4 364.78L326.07 368.78M326.07 368.78L326.07 375.44M326.07 375.44L327.4 379.44M327.4 379.44L328.73 382.1M328.73 382.1L331.4 384.77M331.4 384.77L335.4 386.1M335.4 386.1L338.06 386.1M338.06 386.1L342.06 384.77M342.06 384.77L344.73 382.1M344.73 382.1L346.06 379.44M335.4 358.11L332.73 359.45M332.73 359.45L330.07 362.11M330.07 362.11L328.73 364.78M328.73 364.78L327.4 368.78M327.4 368.78L327.4 375.44M327.4 375.44L328.73 379.44M328.73 379.44L330.07 382.1M330.07 382.1L332.73 384.77M332.73 384.77L335.4 386.1M358.05 386.1L358.05 358.11M359.39 358.11L359.39 386.1M376.71 358.11L359.39 375.44M366.05 370.11L376.71 386.1M364.72 370.11L375.38 386.1M354.06 358.11L363.39 358.11M371.38 358.11L379.38 358.11M354.06 386.1L363.39 386.1M371.38 386.1L379.38 386.1"/>
<path d="M247.14 109.74L311.94 109.74"/>
<path d="M247.14 109.74L243.97 111.05M243.97 111.05L242.66 114.22"/>
<path d="M242.66 114.22L242.66 143.26"/>
<path d="M311.94 123.46L264.95 123.46"/>
<path d="M264.95 123.46L260.47 124.66M260.47 124.66L257.19 127.93M257.19 127.93L255.99 132.41"/>
<path d="M255.99 132.41L255.99 192.32"/>
<path d="M255.99 192.32L283.1 192.32"/>
<path d="M283.1 192.32L283.1 143.78"/>
<path d="M283.1 143.78L269.55 143.78"/>
<path d="M269.55 143.78L269.55 136.63"/>
<path d="M269.55 136.63L296.46 136.63"/>
<path d="M296.46 210.28L296.46 123.46"/>
<path d="M297.36 139.48L296.73 139.75M296.73 139.75L296.46 140.38"/>
<path d="M296.46 210.28L297.06 212.52M297.06 212.52L298.7 214.16M298.7 214.16L300.94 214.76"/>
<path d="M272.33 123.46L272.33 136.63"/>
<path d="M296.46 134.15L311.94 134.15"/>
<path d="M300.94 214.76L311.94 214.76"/>
<path d="M311.94 181.5L296.46 181.5"/>
<path d="M311.94 169.13L296.46 169.13"/>
<path d="M311.94 149.79L296.46 149.79"/>
<path d="M311.94 139.48L297.36 139.48"/>
<path d="M283.1 192.32L288.8 198.04"/>
<path d="M255.99 192.32L250.29 198.04"/>
<path d="M283.1 166.83L262.18 166.83M262.18 166.83L262.18 156.32M262.18 156.32L283.1 156.32"/>
<path d="M232.51 137.29L252.95 137.29"/>
<path d="M252.95 137.29L255.99 140.76"/>
<path d="M232.51 137.29L232.51 63.9"/>
<path d="M232.51 63.9L65.51 63.9"/>
<path d="M65.51 63.9L65.51 330.13"/>
<path d="M66.4 113.86L65.77 114.12M65.77 114.12L65.51 114.75"/>
<path d="M65.51 330.13L311.94 330.13"/>
<path d="M65.51 314.87L90 314.87"/>
<path d="M104.35 314.87L209.1 314.87"/>
<path d="M223.46 314.87L304.5 314.87"/>
<path d="M90 312.16L104.35 312.16M104.35 312.16L104.35 323.29M104.35 323.29L90 323.29M90 323.29L90 312.16"/>
<path d="M90 317.7L104.35 317.7"/>
<path d="M209.1 312.16L223.46 312.16M223.46 312.16L223.46 323.29M223.46 323.29L209.1 323.29M209.1 323.29L209.1 312.16"/>
<path d="M209.1 317.7L223.46 317.7"/>
<path d="M311.94 323.29L304.5 323.29M304.5 323.29L304.5 312.16M304.5 312.16L311.94 312.16"/>
<path d="M304.5 317.7L311.94 317.7"/>
<path d="M65.51 78.94L95.53 78.94"/>
<path d="M109.84 78.94L191.03 78.94"/>
<path d="M205.34 78.94L232.51 78.94"/>
<path d="M191.03 71.18L205.34 71.18M205.34 71.18L205.34 81.68M205.34 81.68L191.03 81.68M191.03 81.68L191.03 71.18"/>
<path d="M191.03 77.42L205.34 77.42"/>
<path d="M95.53 71.18L109.84 71.18M109.84 71.18L109.84 81.68M109.84 81.68L95.53 81.68M95.53 81.68L95.53 71.18"/>
<path d="M95.53 77.42L109.84 77.42"/>
<path d="M232.51 102.21L65.51 102.21"/>
<path d="M232.51 107.05L65.51 107.05"/>
<path d="M203.14 102.21L203.14 84.4M203.14 84.4L227.31 84.4M227.31 84.4L227.31 102.21"/>
<path d="M203.14 90.01L227.31 90.01"/>
<path d="M169.31 102.21L169.31 84.4M169.31 84.4L193.48 84.4M193.48 84.4L193.48 102.21"/>
<path d="M169.31 90.01L193.48 90.01"/>
<path d="M108.55 102.21L108.55 84.4M108.55 84.4L132.73 84.4M132.73 84.4L132.73 102.21"/>
<path d="M108.55 90.01L132.73 90.01"/>
<path d="M73.8 102.21L73.8 84.4M73.8 84.4L97.97 84.4M97.97 84.4L97.97 102.21"/>
<path d="M73.8 90.01L97.97 90.01"/>
<path d="M242.66 143.26L230.01 143.26"/>
<path d="M230.01 150.71L230.01 114.75"/>
<path d="M230.01 114.75L229.75 114.12M229.75 114.12L229.11 113.86"/>
<path d="M229.11 113.86L66.4 113.86"/>
<path d="M65.51 124.45L74.48 124.45M74.48 124.45L74.48 124.45M74.48 124.45L76.38 125.23M76.38 125.23L77.17 127.13M77.17 127.13L77.17 140.52M77.17 140.52L77.17 140.52M77.17 140.52L76.38 142.42M76.38 142.42L74.48 143.21M74.48 143.21L65.51 143.21"/>
<path d="M65.51 132.31L77.17 132.31"/>
<path d="M89.48 113.86L89.48 141.2"/>
<path d="M91.27 142.99L143.4 142.99"/>
<path d="M89.48 141.2L90 142.46M90 142.46L91.27 142.99"/>
<path d="M145.19 141.2L145.19 127.1"/>
<path d="M145.19 127.1L144.66 125.84M144.66 125.84L143.4 125.31"/>
<path d="M143.4 142.99L144.66 142.46M144.66 142.46L145.19 141.2"/>
<path d="M143.4 125.31L134.9 125.31"/>
<path d="M133.11 123.52L133.11 113.86"/>
<path d="M133.11 123.52L133.63 124.79M133.63 124.79L134.9 125.31"/>
<path d="M145.19 132.23L89.48 132.23"/>
<path d="M94.86 132.23L94.86 121.18M94.86 121.18L110.91 121.18M110.91 121.18L110.91 132.23"/>
<path d="M94.86 126.94L110.91 126.94"/>
<path d="M156.54 113.86L156.54 141.2"/>
<path d="M158.33 142.99L176.77 142.99"/>
<path d="M156.54 141.2L156.78 142.09M156.78 142.09L157.43 142.75M157.43 142.75L158.33 142.99"/>
<path d="M178.57 141.2L178.57 113.86"/>
<path d="M176.77 142.99L178.04 142.46M178.04 142.46L178.57 141.2"/>
<path d="M156.54 132.35L178.57 132.35"/>
<path d="M190.03 121.96L216.11 121.96M216.11 121.96L216.11 121.96M216.11 121.96L217.38 122.48M217.38 122.48L217.9 123.75M217.9 123.75L217.9 141.1M217.9 141.1L217.9 141.1M217.9 141.1L217.38 142.36M217.38 142.36L216.11 142.89M216.11 142.89L191.82 142.89M191.82 142.89L191.82 142.89M191.82 142.89L190.56 142.36M190.56 142.36L190.03 141.1M190.03 141.1L190.03 121.96"/>
<path d="M190.03 121.96L186.53 118.15"/>
<path d="M190.03 121.96L206.33 121.96M206.33 121.96L206.33 132.54M206.33 132.54L190.03 132.54M190.03 132.54L190.03 121.96"/>
<path d="M206.33 132.54L217.9 132.54"/>
<path d="M190.03 126.9L206.33 126.9"/>
<path d="M311.94 288.36L65.51 288.36"/>
<path d="M308.92 288.36L308.92 302.26M308.92 302.26L290.44 302.26M290.44 302.26L290.44 288.36"/>
<path d="M285.12 288.36L285.12 302.26M285.12 302.26L266.63 302.26M266.63 302.26L266.63 288.36"/>
<path d="M261.31 288.36L261.31 302.26M261.31 302.26L242.83 302.26M242.83 302.26L242.83 288.36"/>
<path d="M237.51 288.36L237.51 302.26M237.51 302.26L219.02 302.26M219.02 302.26L219.02 288.36"/>
<path d="M213.7 288.36L213.7 302.26M213.7 302.26L195.21 302.26M195.21 302.26L195.21 288.36"/>
<path d="M189.9 288.36L189.9 302.26M189.9 302.26L171.41 302.26M171.41 302.26L171.41 288.36"/>
<path d="M166.09 288.36L166.09 302.26M166.09 302.26L147.6 302.26M147.6 302.26L147.6 288.36"/>
<path d="M142.28 288.36L142.28 302.26M142.28 302.26L123.8 302.26M123.8 302.26L123.8 288.36"/>
<path d="M118.48 288.36L118.48 302.26M118.48 302.26L99.99 302.26M99.99 302.26L99.99 288.36"/>
<path d="M94.67 288.36L94.67 302.26M94.67 302.26L76.19 302.26M76.19 302.26L76.19 288.36"/>
<path d="M311.94 283.39L65.51 283.39"/>
<path d="M311.94 280.02L65.51 280.02"/>
<path d="M287.82 280.02L287.82 283.39"/>
<path d="M251.96 280.02L251.96 283.39"/>
<path d="M269.97 280.02L269.97 264.42"/>
<path d="M271.76 262.63L311.94 262.63"/>
<path d="M271.76 262.63L270.5 263.15M270.5 263.15L269.97 264.42"/>
<path d="M311.94 271.63L303.98 271.63M303.98 271.63L303.98 262.63"/>
<path d="M151.22 280.02L151.22 264.42M151.22 264.42L151.22 264.42M151.22 264.42L151.74 263.15M151.74 263.15L153.01 262.63M153.01 262.63L256.22 262.63M256.22 262.63L256.22 262.63M256.22 262.63L257.49 263.15M257.49 263.15L258.01 264.42M258.01 264.42L258.01 280.02"/>
<path d="M224.19 262.63L224.19 271.63M224.19 271.63L208.43 271.63M208.43 271.63L208.43 262.63"/>
<path d="M89.67 280.02L89.67 262.63M89.67 262.63L137.32 262.63M137.32 262.63L137.32 262.63M137.32 262.63L138.59 263.15M138.59 263.15L139.12 264.42M139.12 264.42L139.12 280.02"/>
<path d="M105.22 271.63L89.67 271.63M89.67 271.63L89.67 262.63M89.67 262.63L105.22 262.63M105.22 262.63L105.22 271.63"/>
<path d="M65.51 261.79L75.7 261.79"/>
<path d="M75.7 268.37L65.51 268.37"/>
<path d="M75.7 268.37L77.43 267.12M77.43 267.12L78.1 265.08M78.1 265.08L77.43 263.04M77.43 263.04L75.7 261.79"/>
<path d="M292.25 225.65L306.99 225.65M306.99 225.65L306.99 238.81M306.99 238.81L292.25 238.81M292.25 238.81L292.25 225.65"/>
<path d="M296.11 228.88L303.68 228.88M303.68 228.88L303.68 235.18M303.68 235.18L296.11 235.18M296.11 235.18L296.11 228.88"/>
<path d="M292.25 225.65L296.11 228.88"/>
<path d="M303.68 228.88L306.99 225.65"/>
<path d="M303.68 235.18L306.99 238.81"/>
<path d="M296.11 235.18L292.25 238.81"/>
<path d="M290.27 254.1L309.11 254.1M309.11 254.1L309.11 238.8M309.11 238.8L290.27 238.8M290.27 238.8L290.27 254.1"/>
<path d="M293.02 254.1L293.02 245.09M293.02 245.09L306.74 245.09M306.74 245.09L306.74 254.1"/>
<path d="M268.88 225.65L283.62 225.65M283.62 225.65L283.62 238.81M283.62 238.81L268.88 238.81M268.88 238.81L268.88 225.65"/>
<path d="M272.74 228.88L280.31 228.88M280.31 228.88L280.31 235.18M280.31 235.18L272.74 235.18M272.74 235.18L272.74 228.88"/>
<path d="M268.88 225.65L272.74 228.88"/>
<path d="M280.31 228.88L283.62 225.65"/>
<path d="M280.31 235.18L283.62 238.81"/>
<path d="M272.74 235.18L268.88 238.81"/>
<path d="M266.9 254.1L285.74 254.1M285.74 254.1L285.74 238.8M285.74 238.8L266.9 238.8M266.9 238.8L266.9 254.1"/>
<path d="M269.64 254.1L269.64 245.09M269.64 245.09L283.36 245.09M283.36 245.09L283.36 254.1"/>
<path d="M245.5 225.65L260.25 225.65M260.25 225.65L260.25 238.81M260.25 238.81L245.5 238.81M245.5 238.81L245.5 225.65"/>
<path d="M249.37 228.88L256.94 228.88M256.94 228.88L256.94 235.18M256.94 235.18L249.37 235.18M249.37 235.18L249.37 228.88"/>
<path d="M245.5 225.65L249.37 228.88"/>
<path d="M256.94 228.88L260.25 225.65"/>
<path d="M256.94 235.18L260.25 238.81"/>
<path d="M249.37 235.18L245.5 238.81"/>
<path d="M243.52 254.1L262.37 254.1M262.37 254.1L262.37 238.8M262.37 238.8L243.52 238.8M243.52 238.8L243.52 254.1"/>
<path d="M246.27 254.1L246.27 245.09M246.27 245.09L259.99 245.09M259.99 245.09L259.99 254.1"/>
<path d="M222.13 225.65L236.88 225.65M236.88 225.65L236.88 238.81M236.88 238.81L222.13 238.81M222.13 238.81L222.13 225.65"/>
<path d="M226 228.88L233.57 228.88M233.57 228.88L233.57 235.18M233.57 235.18L226 235.18M226 235.18L226 228.88"/>
<path d="M222.13 225.65L226 228.88"/>
<path d="M233.57 228.88L236.88 225.65"/>
<path d="M233.57 235.18L236.88 238.81"/>
<path d="M226 235.18L222.13 238.81"/>
<path d="M220.15 254.1L239 254.1M239 254.1L239 238.8M239 238.8L220.15 238.8M220.15 238.8L220.15 254.1"/>
<path d="M222.9 254.1L222.9 245.09M222.9 245.09L236.62 245.09M236.62 245.09L236.62 254.1"/>
<path d="M198.76 225.65L213.51 225.65M213.51 225.65L213.51 238.81M213.51 238.81L198.76 238.81M198.76 238.81L198.76 225.65"/>
<path d="M202.62 228.88L210.19 228.88M210.19 228.88L210.19 235.18M210.19 235.18L202.62 235.18M202.62 235.18L202.62 228.88"/>
<path d="M198.76 225.65L202.62 228.88"/>
<path d="M210.19 228.88L213.51 225.65"/>
<path d="M210.19 235.18L213.51 238.81"/>
<path d="M202.62 235.18L198.76 238.81"/>
<path d="M196.78 254.1L215.63 254.1M215.63 254.1L215.63 238.8M215.63 238.8L196.78 238.8M196.78 238.8L196.78 254.1"/>
<path d="M199.53 254.1L199.53 245.09M199.53 245.09L213.25 245.09M213.25 245.09L213.25 254.1"/>
<path d="M175.39 225.65L190.13 225.65M190.13 225.65L190.13 238.81M190.13 238.81L175.39 238.81M175.39 238.81L175.39 225.65"/>
<path d="M179.25 228.88L186.82 228.88M186.82 228.88L186.82 235.18M186.82 235.18L179.25 235.18M179.25 235.18L179.25 228.88"/>
<path d="M175.39 225.65L179.25 228.88"/>
<path d="M186.82 228.88L190.13 225.65"/>
<path d="M186.82 235.18L190.13 238.81"/>
<path d="M179.25 235.18L175.39 238.81"/>
<path d="M173.41 254.1L192.25 254.1M192.25 254.1L192.25 238.8M192.25 238.8L173.41 238.8M173.41 238.8L173.41 254.1"/>
<path d="M176.16 254.1L176.16 245.09M176.16 245.09L189.88 245.09M189.88 245.09L189.88 254.1"/>
<path d="M152.02 225.65L166.76 225.65M166.76 225.65L166.76 238.81M166.76 238.81L152.02 238.81M152.02 238.81L152.02 225.65"/>
<path d="M155.88 228.88L163.45 228.88M163.45 228.88L163.45 235.18M163.45 235.18L155.88 235.18M155.88 235.18L155.88 228.88"/>
<path d="M152.02 225.65L155.88 228.88"/>
<path d="M163.45 228.88L166.76 225.65"/>
<path d="M163.45 235.18L166.76 238.81"/>
<path d="M155.88 235.18L152.02 238.81"/>
<path d="M150.04 254.1L168.88 254.1M168.88 254.1L168.88 238.8M168.88 238.8L150.04 238.8M150.04 238.8L150.04 254.1"/>
<path d="M152.79 254.1L152.79 245.09M152.79 245.09L166.5 245.09M166.5 245.09L166.5 254.1"/>
<path d="M128.65 225.65L143.39 225.65M143.39 225.65L143.39 238.81M143.39 238.81L128.65 238.81M128.65 238.81L128.65 225.65"/>
<path d="M132.51 228.88L140.08 228.88M140.08 228.88L140.08 235.18M140.08 235.18L132.51 235.18M132.51 235.18L132.51 228.88"/>
<path d="M128.65 225.65L132.51 228.88"/>
<path d="M140.08 228.88L143.39 225.65"/>
<path d="M140.08 235.18L143.39 238.81"/>
<path d="M132.51 235.18L128.65 238.81"/>
<path d="M126.67 254.1L145.51 254.1M145.51 254.1L145.51 238.8M145.51 238.8L126.67 238.8M126.67 238.8L126.67 254.1"/>
<path d="M129.41 254.1L129.41 245.09M129.41 245.09L143.13 245.09M143.13 245.09L143.13 254.1"/>
<path d="M105.27 225.65L120.02 225.65M120.02 225.65L120.02 238.81M120.02 238.81L105.27 238.81M105.27 238.81L105.27 225.65"/>
<path d="M109.14 228.88L116.71 228.88M116.71 228.88L116.71 235.18M116.71 235.18L109.14 235.18M109.14 235.18L109.14 228.88"/>
<path d="M105.27 225.65L109.14 228.88"/>
<path d="M116.71 228.88L120.02 225.65"/>
<path d="M116.71 235.18L120.02 238.81"/>
<path d="M109.14 235.18L105.27 238.81"/>
<path d="M103.29 254.1L122.14 254.1M122.14 254.1L122.14 238.8M122.14 238.8L103.29 238.8M103.29 238.8L103.29 254.1"/>
<path d="M106.04 254.1L106.04 245.09M106.04 245.09L119.76 245.09M119.76 245.09L119.76 254.1"/>
<path d="M81.9 225.65L96.65 225.65M96.65 225.65L96.65 238.81M96.65 238.81L81.9 238.81M81.9 238.81L81.9 225.65"/>
<path d="M85.77 228.88L93.33 228.88M93.33 228.88L93.33 235.18M93.33 235.18L85.77 235.18M85.77 235.18L85.77 228.88"/>
<path d="M81.9 225.65L85.77 228.88"/>
<path d="M93.33 228.88L96.65 225.65"/>
<path d="M93.33 235.18L96.65 238.81"/>
<path d="M85.77 235.18L81.9 238.81"/>
<path d="M79.92 254.1L98.77 254.1M98.77 254.1L98.77 238.8M98.77 238.8L79.92 238.8M79.92 238.8L79.92 254.1"/>
<path d="M82.67 254.1L82.67 245.09M82.67 245.09L96.39 245.09M96.39 245.09L96.39 254.1"/>
<path d="M236.1 151.59L245.39 151.59M245.39 151.59L245.39 151.59M245.39 151.59L246.66 152.12M246.66 152.12L247.18 153.38M247.18 153.38L247.18 215.05M247.18 215.05L247.18 215.05M247.18 215.05L246.66 216.32M246.66 216.32L245.39 216.84M245.39 216.84L236.1 216.84M236.1 216.84L236.1 216.84M236.1 216.84L234.84 216.32M234.84 216.32L234.31 215.05M234.31 215.05L234.31 153.38M234.31 153.38L234.31 153.38M234.31 153.38L234.84 152.12M234.84 152.12L236.1 151.59"/>
<path d="M234.31 162.37L247.18 162.37"/>
<path d="M171.96 162.87L225.71 162.87M225.71 162.87L225.71 193.94M225.71 193.94L171.96 193.94M171.96 193.94L171.96 162.87"/>
<path d="M205.69 172.61L217.87 172.61M217.87 172.61L217.87 184.42M217.87 184.42L210.76 184.42"/>
<path d="M186.01 184.42L178.95 184.42M178.95 184.42L178.95 172.61M178.95 172.61L190.83 172.61"/>
<path d="M186.01 182.01L210.76 182.01M210.76 182.01L210.76 202.1M210.76 202.1L186.01 202.1M186.01 202.1L186.01 182.01"/>
<path d="M217.87 172.61L225.71 162.87"/>
<path d="M217.87 184.42L225.71 193.94"/>
<path d="M178.95 184.42L171.96 193.94"/>
<path d="M178.95 172.61L171.96 162.87"/>
<path d="M190.83 172.61L190.83 168.75M190.83 168.75L205.69 168.75M205.69 168.75L205.69 172.61"/>
<path d="M225.71 162.87L230.01 150.71"/>
<path d="M228.01 197.21L228.01 220.05"/>
<path d="M228.01 220.05L74.1 220.05"/>
<path d="M76.4 162.87L130.15 162.87M130.15 162.87L130.15 193.94M130.15 193.94L76.4 193.94M76.4 193.94L76.4 162.87"/>
<path d="M110.13 172.61L122.31 172.61M122.31 172.61L122.31 184.42M122.31 184.42L115.2 184.42"/>
<path d="M90.45 184.42L83.38 184.42M83.38 184.42L83.38 172.61M83.38 172.61L95.26 172.61"/>
<path d="M90.45 182.01L115.2 182.01M115.2 182.01L115.2 202.1M115.2 202.1L90.45 202.1M90.45 202.1L90.45 182.01"/>
<path d="M122.31 172.61L130.15 162.87"/>
<path d="M122.31 184.42L130.15 193.94"/>
<path d="M83.38 184.42L76.4 193.94"/>
<path d="M83.38 172.61L76.4 162.87"/>
<path d="M95.26 172.61L95.26 168.75M95.26 168.75L110.13 168.75M110.13 168.75L110.13 172.61"/>
<path d="M187.05 202.1L187.05 216.33"/>
<path d="M187.05 216.33L171.79 216.33"/>
<path d="M171.79 216.33L171.79 202.1"/>
<path d="M186.01 202.1L161.74 202.1"/>
<path d="M161.74 162.87L161.74 216.33"/>
<path d="M161.74 216.33L171.79 216.33"/>
<path d="M209.72 202.1L209.72 216.33"/>
<path d="M209.72 216.33L224.98 216.33"/>
<path d="M224.98 216.33L224.98 202.1"/>
<path d="M210.76 202.1L224.98 202.1"/>
<path d="M224.98 202.1L226.97 199.95M226.97 199.95L228.01 197.21"/>
<path d="M224.98 216.33L228.01 220.05"/>
<path d="M187.05 216.33L209.72 216.33"/>
<path d="M74.1 197.21L74.1 220.05"/>
<path d="M115.06 202.1L115.06 216.33"/>
<path d="M115.06 216.33L130.32 216.33"/>
<path d="M130.32 216.33L130.32 202.1"/>
<path d="M116.1 202.1L140.37 202.1"/>
<path d="M140.37 162.87L140.37 216.33"/>
<path d="M140.37 216.33L130.32 216.33"/>
<path d="M92.39 202.1L92.39 216.33"/>
<path d="M92.39 216.33L77.13 216.33"/>
<path d="M77.13 216.33L77.13 202.1"/>
<path d="M91.35 202.1L77.13 202.1"/>
<path d="M74.1 197.21L75.14 199.95M75.14 199.95L77.13 202.1"/>
<path d="M77.13 216.33L74.1 220.05"/>
<path d="M115.06 216.33L92.39 216.33"/>
<path d="M140.37 216.33L161.74 216.33"/>
<path d="M161.74 162.87L160.3 157.53M160.3 157.53L156.4 153.62M156.4 153.62L151.05 152.19M151.05 152.19L145.71 153.62M145.71 153.62L141.81 157.53M141.81 157.53L140.37 162.87"/>
<path d="M376.75 109.74L311.94 109.74"/>
<path d="M381.23 114.22L379.92 111.05M379.92 111.05L376.75 109.74"/>
<path d="M381.23 114.22L381.23 143.26"/>
<path d="M311.94 123.46L358.94 123.46"/>
<path d="M367.89 132.41L366.69 127.93M366.69 127.93L363.41 124.66M363.41 124.66L358.94 123.46"/>
<path d="M367.89 132.41L367.89 192.32"/>
<path d="M367.89 192.32L340.78 192.32"/>
<path d="M340.78 192.32L340.78 143.78"/>
<path d="M340.78 143.78L354.34 143.78"/>
<path d="M354.34 143.78L354.34 136.63"/>
<path d="M354.34 136.63L327.42 136.63"/>
<path d="M327.42 210.28L327.42 123.46"/>
<path d="M327.42 140.38L327.16 139.75M327.16 139.75L326.52 139.48"/>
<path d="M322.94 214.76L325.18 214.16M325.18 214.16L326.82 212.52M326.82 212.52L327.42 210.28"/>
<path d="M351.55 123.46L351.55 136.63"/>
<path d="M327.42 134.15L311.94 134.15"/>
<path d="M322.94 214.76L311.94 214.76"/>
<path d="M311.94 181.5L327.42 181.5"/>
<path d="M311.94 169.13L327.42 169.13"/>
<path d="M311.94 149.79L327.42 149.79"/>
<path d="M311.94 139.48L326.52 139.48"/>
<path d="M340.78 192.32L335.09 198.04"/>
<path d="M367.89 192.32L373.59 198.04"/>
<path d="M340.78 166.83L361.71 166.83M361.71 166.83L361.71 156.32M361.71 156.32L340.78 156.32"/>
<path d="M391.38 137.29L370.93 137.29"/>
<path d="M370.93 137.29L367.89 140.76"/>
<path d="M391.38 137.29L391.38 63.9"/>
<path d="M391.38 63.9L558.38 63.9"/>
<path d="M558.38 63.9L558.38 330.13"/>
<path d="M558.38 114.75L558.11 114.12M558.11 114.12L557.48 113.86"/>
<path d="M558.38 330.13L311.94 330.13"/>
<path d="M558.38 314.87L533.88 314.87"/>
<path d="M519.53 314.87L414.78 314.87"/>
<path d="M400.43 314.87L319.38 314.87"/>
<path d="M533.88 312.16L519.53 312.16M519.53 312.16L519.53 323.29M519.53 323.29L533.88 323.29M533.88 323.29L533.88 312.16"/>
<path d="M533.88 317.7L519.53 317.7"/>
<path d="M414.78 312.16L400.43 312.16M400.43 312.16L400.43 323.29M400.43 323.29L414.78 323.29M414.78 323.29L414.78 312.16"/>
<path d="M414.78 317.7L400.43 317.7"/>
<path d="M311.94 323.29L319.38 323.29M319.38 323.29L319.38 312.16M319.38 312.16L311.94 312.16"/>
<path d="M319.38 317.7L311.94 317.7"/>
<path d="M558.38 78.94L528.35 78.94"/>
<path d="M514.04 78.94L432.85 78.94"/>
<path d="M418.54 78.94L391.38 78.94"/>
<path d="M432.85 71.18L418.54 71.18M418.54 71.18L418.54 81.68M418.54 81.68L432.85 81.68M432.85 81.68L432.85 71.18"/>
<path d="M432.85 77.42L418.54 77.42"/>
<path d="M528.35 71.18L514.04 71.18M514.04 71.18L514.04 81.68M514.04 81.68L528.35 81.68M528.35 81.68L528.35 71.18"/>
<path d="M528.35 77.42L514.04 77.42"/>
<path d="M391.38 102.21L558.38 102.21"/>
<path d="M391.38 107.05L558.38 107.05"/>
<path d="M420.75 102.21L420.75 84.4M420.75 84.4L396.58 84.4M396.58 84.4L396.58 102.21"/>
<path d="M420.75 90.01L396.58 90.01"/>
<path d="M454.57 102.21L454.57 84.4M454.57 84.4L430.4 84.4M430.4 84.4L430.4 102.21"/>
<path d="M454.57 90.01L430.4 90.01"/>
<path d="M515.33 102.21L515.33 84.4M515.33 84.4L491.16 84.4M491.16 84.4L491.16 102.21"/>
<path d="M515.33 90.01L491.16 90.01"/>
<path d="M550.09 102.21L550.09 84.4M550.09 84.4L525.92 84.4M525.92 84.4L525.92 102.21"/>
<path d="M550.09 90.01L525.92 90.01"/>
<path d="M381.23 143.26L393.88 143.26"/>
<path d="M393.88 150.71L393.88 114.75"/>
<path d="M394.77 113.86L394.14 114.12M394.14 114.12L393.88 114.75"/>
<path d="M394.77 113.86L557.48 113.86"/>
<path d="M558.38 124.45L549.4 124.45M549.4 124.45L549.4 124.45M549.4 124.45L547.5 125.23M547.5 125.23L546.71 127.13M546.71 127.13L546.71 140.52M546.71 140.52L546.71 140.52M546.71 140.52L547.5 142.42M547.5 142.42L549.4 143.21M549.4 143.21L558.38 143.21"/>
<path d="M558.38 132.31L546.71 132.31"/>
<path d="M534.41 113.86L534.41 141.2"/>
<path d="M532.61 142.99L480.49 142.99"/>
<path d="M532.61 142.99L533.88 142.46M533.88 142.46L534.41 141.2"/>
<path d="M478.7 141.2L478.7 127.1"/>
<path d="M480.49 125.31L479.22 125.84M479.22 125.84L478.7 127.1"/>
<path d="M478.7 141.2L479.22 142.46M479.22 142.46L480.49 142.99"/>
<path d="M480.49 125.31L488.98 125.31"/>
<path d="M490.77 123.52L490.77 113.86"/>
<path d="M488.98 125.31L490.25 124.79M490.25 124.79L490.77 123.52"/>
<path d="M478.7 132.23L534.41 132.23"/>
<path d="M529.02 132.23L529.02 121.18M529.02 121.18L512.97 121.18M512.97 121.18L512.97 132.23"/>
<path d="M529.02 126.94L512.97 126.94"/>
<path d="M467.35 113.86L467.35 141.2"/>
<path d="M465.56 142.99L447.11 142.99"/>
<path d="M465.56 142.99L466.45 142.75M466.45 142.75L467.11 142.09M467.11 142.09L467.35 141.2"/>
<path d="M445.32 141.2L445.32 113.86"/>
<path d="M445.32 141.2L445.84 142.46M445.84 142.46L447.11 142.99"/>
<path d="M467.35 132.35L445.32 132.35"/>
<path d="M433.85 121.96L407.77 121.96M407.77 121.96L407.77 121.96M407.77 121.96L406.5 122.48M406.5 122.48L405.98 123.75M405.98 123.75L405.98 141.1M405.98 141.1L405.98 141.1M405.98 141.1L406.5 142.36M406.5 142.36L407.77 142.89M407.77 142.89L432.06 142.89M432.06 142.89L432.06 142.89M432.06 142.89L433.33 142.36M433.33 142.36L433.85 141.1M433.85 141.1L433.85 121.96"/>
<path d="M433.85 121.96L437.35 118.15"/>
<path d="M433.85 121.96L417.56 121.96M417.56 121.96L417.56 132.54M417.56 132.54L433.85 132.54M433.85 132.54L433.85 121.96"/>
<path d="M417.56 132.54L405.98 132.54"/>
<path d="M433.85 126.9L417.56 126.9"/>
<path d="M311.94 288.36L558.38 288.36"/>
<path d="M314.96 288.36L314.96 302.26M314.96 302.26L333.45 302.26M333.45 302.26L333.45 288.36"/>
<path d="M338.77 288.36L338.77 302.26M338.77 302.26L357.25 302.26M357.25 302.26L357.25 288.36"/>
<path d="M362.57 288.36L362.57 302.26M362.57 302.26L381.06 302.26M381.06 302.26L381.06 288.36"/>
<path d="M386.38 288.36L386.38 302.26M386.38 302.26L404.86 302.26M404.86 302.26L404.86 288.36"/>
<path d="M410.18 288.36L410.18 302.26M410.18 302.26L428.67 302.26M428.67 302.26L428.67 288.36"/>
<path d="M433.99 288.36L433.99 302.26M433.99 302.26L452.48 302.26M452.48 302.26L452.48 288.36"/>
<path d="M457.79 288.36L457.79 302.26M457.79 302.26L476.28 302.26M476.28 302.26L476.28 288.36"/>
<path d="M481.6 288.36L481.6 302.26M481.6 302.26L500.09 302.26M500.09 302.26L500.09 288.36"/>
<path d="M505.41 288.36L505.41 302.26M505.41 302.26L523.89 302.26M523.89 302.26L523.89 288.36"/>
<path d="M529.21 288.36L529.21 302.26M529.21 302.26L547.7 302.26M547.7 302.26L547.7 288.36"/>
<path d="M311.94 283.39L558.38 283.39"/>
<path d="M311.94 280.02L558.38 280.02"/>
<path d="M336.07 280.02L336.07 283.39"/>
<path d="M371.93 280.02L371.93 283.39"/>
<path d="M353.91 280.02L353.91 264.42"/>
<path d="M352.12 262.63L311.94 262.63"/>
<path d="M353.91 264.42L353.39 263.15M353.39 263.15L352.12 262.63"/>
<path d="M311.94 271.63L319.9 271.63M319.9 271.63L319.9 262.63"/>
<path d="M472.67 280.02L472.67 264.42M472.67 264.42L472.67 264.42M472.67 264.42L472.14 263.15M472.14 263.15L470.88 262.63M470.88 262.63L367.66 262.63M367.66 262.63L367.66 262.63M367.66 262.63L366.39 263.15M366.39 263.15L365.87 264.42M365.87 264.42L365.87 280.02"/>
<path d="M399.69 262.63L399.69 271.63M399.69 271.63L415.45 271.63M415.45 271.63L415.45 262.63"/>
<path d="M534.21 280.02L534.21 262.63M534.21 262.63L486.56 262.63M486.56 262.63L486.56 262.63M486.56 262.63L485.29 263.15M485.29 263.15L484.77 264.42M484.77 264.42L484.77 280.02"/>
<path d="M518.67 271.63L534.21 271.63M534.21 271.63L534.21 262.63M534.21 262.63L518.67 262.63M518.67 262.63L518.67 271.63"/>
<path d="M558.38 261.79L548.19 261.79"/>
<path d="M548.19 268.37L558.38 268.37"/>
<path d="M548.19 261.79L546.45 263.04M546.45 263.04L545.79 265.08M545.79 265.08L546.45 267.12M546.45 267.12L548.19 268.37"/>
<path d="M331.64 225.65L316.89 225.65M316.89 225.65L316.89 238.81M316.89 238.81L331.64 238.81M331.64 238.81L331.64 225.65"/>
<path d="M327.77 228.88L320.2 228.88M320.2 228.88L320.2 235.18M320.2 235.18L327.77 235.18M327.77 235.18L327.77 228.88"/>
<path d="M331.64 225.65L327.77 228.88"/>
<path d="M320.2 228.88L316.89 225.65"/>
<path d="M320.2 235.18L316.89 238.81"/>
<path d="M327.77 235.18L331.64 238.81"/>
<path d="M333.62 254.1L314.77 254.1M314.77 254.1L314.77 238.8M314.77 238.8L333.62 238.8M333.62 238.8L333.62 254.1"/>
<path d="M330.87 254.1L330.87 245.09M330.87 245.09L317.15 245.09M317.15 245.09L317.15 254.1"/>
<path d="M355.01 225.65L340.26 225.65M340.26 225.65L340.26 238.81M340.26 238.81L355.01 238.81M355.01 238.81L355.01 225.65"/>
<path d="M351.14 228.88L343.58 228.88M343.58 228.88L343.58 235.18M343.58 235.18L351.14 235.18M351.14 235.18L351.14 228.88"/>
<path d="M355.01 225.65L351.14 228.88"/>
<path d="M343.58 228.88L340.26 225.65"/>
<path d="M343.58 235.18L340.26 238.81"/>
<path d="M351.14 235.18L355.01 238.81"/>
<path d="M356.99 254.1L338.14 254.1M338.14 254.1L338.14 238.8M338.14 238.8L356.99 238.8M356.99 238.8L356.99 254.1"/>
<path d="M354.24 254.1L354.24 245.09M354.24 245.09L340.52 245.09M340.52 245.09L340.52 254.1"/>
<path d="M378.38 225.65L363.64 225.65M363.64 225.65L363.64 238.81M363.64 238.81L378.38 238.81M378.38 238.81L378.38 225.65"/>
<path d="M374.52 228.88L366.95 228.88M366.95 228.88L366.95 235.18M366.95 235.18L374.52 235.18M374.52 235.18L374.52 228.88"/>
<path d="M378.38 225.65L374.52 228.88"/>
<path d="M366.95 228.88L363.64 225.65"/>
<path d="M366.95 235.18L363.64 238.81"/>
<path d="M374.52 235.18L378.38 238.81"/>
<path d="M380.36 254.1L361.51 254.1M361.51 254.1L361.51 238.8M361.51 238.8L380.36 238.8M380.36 238.8L380.36 254.1"/>
<path d="M377.61 254.1L377.61 245.09M377.61 245.09L363.89 245.09M363.89 245.09L363.89 254.1"/>
<path d="M401.75 225.65L387.01 225.65M387.01 225.65L387.01 238.81M387.01 238.81L401.75 238.81M401.75 238.81L401.75 225.65"/>
<path d="M397.89 228.88L390.32 228.88M390.32 228.88L390.32 235.18M390.32 235.18L397.89 235.18M397.89 235.18L397.89 228.88"/>
<path d="M401.75 225.65L397.89 228.88"/>
<path d="M390.32 228.88L387.01 225.65"/>
<path d="M390.32 235.18L387.01 238.81"/>
<path d="M397.89 235.18L401.75 238.81"/>
<path d="M403.73 254.1L384.89 254.1M384.89 254.1L384.89 238.8M384.89 238.8L403.73 238.8M403.73 238.8L403.73 254.1"/>
<path d="M400.98 254.1L400.98 245.09M400.98 245.09L387.26 245.09M387.26 245.09L387.26 254.1"/>
<path d="M425.12 225.65L410.38 225.65M410.38 225.65L410.38 238.81M410.38 238.81L425.12 238.81M425.12 238.81L425.12 225.65"/>
<path d="M421.26 228.88L413.69 228.88M413.69 228.88L413.69 235.18M413.69 235.18L421.26 235.18M421.26 235.18L421.26 228.88"/>
<path d="M425.12 225.65L421.26 228.88"/>
<path d="M413.69 228.88L410.38 225.65"/>
<path d="M413.69 235.18L410.38 238.81"/>
<path d="M421.26 235.18L425.12 238.81"/>
<path d="M427.1 254.1L408.26 254.1M408.26 254.1L408.26 238.8M408.26 238.8L427.1 238.8M427.1 238.8L427.1 254.1"/>
<path d="M424.35 254.1L424.35 245.09M424.35 245.09L410.64 245.09M410.64 245.09L410.64 254.1"/>
<path d="M448.5 225.65L433.75 225.65M433.75 225.65L433.75 238.81M433.75 238.81L448.5 238.81M448.5 238.81L448.5 225.65"/>
<path d="M444.63 228.88L437.06 228.88M437.06 228.88L437.06 235.18M437.06 235.18L444.63 235.18M444.63 235.18L444.63 228.88"/>
<path d="M448.5 225.65L444.63 228.88"/>
<path d="M437.06 228.88L433.75 225.65"/>
<path d="M437.06 235.18L433.75 238.81"/>
<path d="M444.63 235.18L448.5 238.81"/>
<path d="M450.48 254.1L431.63 254.1M431.63 254.1L431.63 238.8M431.63 238.8L450.48 238.8M450.48 238.8L450.48 254.1"/>
<path d="M447.73 254.1L447.73 245.09M447.73 245.09L434.01 245.09M434.01 245.09L434.01 254.1"/>
<path d="M471.87 225.65L457.12 225.65M457.12 225.65L457.12 238.81M457.12 238.81L471.87 238.81M471.87 238.81L471.87 225.65"/>
<path d="M468 228.88L460.43 228.88M460.43 228.88L460.43 235.18M460.43 235.18L468 235.18M468 235.18L468 228.88"/>
<path d="M471.87 225.65L468 228.88"/>
<path d="M460.43 228.88L457.12 225.65"/>
<path d="M460.43 235.18L457.12 238.81"/>
<path d="M468 235.18L471.87 238.81"/>
<path d="M473.85 254.1L455 254.1M455 254.1L455 238.8M455 238.8L473.85 238.8M473.85 238.8L473.85 254.1"/>
<path d="M471.1 254.1L471.1 245.09M471.1 245.09L457.38 245.09M457.38 245.09L457.38 254.1"/>
<path d="M495.24 225.65L480.49 225.65M480.49 225.65L480.49 238.81M480.49 238.81L495.24 238.81M495.24 238.81L495.24 225.65"/>
<path d="M491.38 228.88L483.81 228.88M483.81 228.88L483.81 235.18M483.81 235.18L491.38 235.18M491.38 235.18L491.38 228.88"/>
<path d="M495.24 225.65L491.38 228.88"/>
<path d="M483.81 228.88L480.49 225.65"/>
<path d="M483.81 235.18L480.49 238.81"/>
<path d="M491.38 235.18L495.24 238.81"/>
<path d="M497.22 254.1L478.37 254.1M478.37 254.1L478.37 238.8M478.37 238.8L497.22 238.8M497.22 238.8L497.22 254.1"/>
<path d="M494.47 254.1L494.47 245.09M494.47 245.09L480.75 245.09M480.75 245.09L480.75 254.1"/>
<path d="M518.61 225.65L503.87 225.65M503.87 225.65L503.87 238.81M503.87 238.81L518.61 238.81M518.61 238.81L518.61 225.65"/>
<path d="M514.75 228.88L507.18 228.88M507.18 228.88L507.18 235.18M507.18 235.18L514.75 235.18M514.75 235.18L514.75 228.88"/>
<path d="M518.61 225.65L514.75 228.88"/>
<path d="M507.18 228.88L503.87 225.65"/>
<path d="M507.18 235.18L503.87 238.81"/>
<path d="M514.75 235.18L518.61 238.81"/>
<path d="M520.59 254.1L501.75 254.1M501.75 254.1L501.75 238.8M501.75 238.8L520.59 238.8M520.59 238.8L520.59 254.1"/>
<path d="M517.84 254.1L517.84 245.09M517.84 245.09L504.12 245.09M504.12 245.09L504.12 254.1"/>
<path d="M541.98 225.65L527.24 225.65M527.24 225.65L527.24 238.81M527.24 238.81L541.98 238.81M541.98 238.81L541.98 225.65"/>
<path d="M538.12 228.88L530.55 228.88M530.55 228.88L530.55 235.18M530.55 235.18L538.12 235.18M538.12 235.18L538.12 228.88"/>
<path d="M541.98 225.65L538.12 228.88"/>
<path d="M530.55 228.88L527.24 225.65"/>
<path d="M530.55 235.18L527.24 238.81"/>
<path d="M538.12 235.18L541.98 238.81"/>
<path d="M543.96 254.1L525.12 254.1M525.12 254.1L525.12 238.8M525.12 238.8L543.96 238.8M543.96 238.8L543.96 254.1"/>
<path d="M541.21 254.1L541.21 245.09M541.21 245.09L527.49 245.09M527.49 245.09L527.49 254.1"/>
<path d="M387.78 151.59L378.49 151.59M378.49 151.59L378.49 151.59M378.49 151.59L377.22 152.12M377.22 152.12L376.7 153.38M376.7 153.38L376.7 215.05M376.7 215.05L376.7 215.05M376.7 215.05L377.22 216.32M377.22 216.32L378.49 216.84M378.49 216.84L387.78 216.84M387.78 216.84L387.78 216.84M387.78 216.84L389.05 216.32M389.05 216.32L389.57 215.05M389.57 215.05L389.57 153.38M389.57 153.38L389.57 153.38M389.57 153.38L389.05 152.12M389.05 152.12L387.78 151.59"/>
<path d="M389.57 162.37L376.7 162.37"/>
<path d="M451.92 162.87L398.17 162.87M398.17 162.87L398.17 193.94M398.17 193.94L451.92 193.94M451.92 193.94L451.92 162.87"/>
<path d="M418.19 172.61L406.01 172.61M406.01 172.61L406.01 184.42M406.01 184.42L413.12 184.42"/>
<path d="M437.87 184.42L444.94 184.42M444.94 184.42L444.94 172.61M444.94 172.61L433.06 172.61"/>
<path d="M437.87 182.01L413.12 182.01M413.12 182.01L413.12 202.1M413.12 202.1L437.87 202.1M437.87 202.1L437.87 182.01"/>
<path d="M406.01 172.61L398.17 162.87"/>
<path d="M406.01 184.42L398.17 193.94"/>
<path d="M444.94 184.42L451.92 193.94"/>
<path d="M444.94 172.61L451.92 162.87"/>
<path d="M433.06 172.61L433.06 168.75M433.06 168.75L418.19 168.75M418.19 168.75L418.19 172.61"/>
<path d="M393.88 150.71L398.17 162.87"/>
<path d="M395.88 197.21L395.88 220.05"/>
<path d="M395.88 220.05L549.78 220.05"/>
<path d="M547.49 162.87L493.74 162.87M493.74 162.87L493.74 193.94M493.74 193.94L547.49 193.94M547.49 193.94L547.49 162.87"/>
<path d="M513.76 172.61L501.58 172.61M501.58 172.61L501.58 184.42M501.58 184.42L508.69 184.42"/>
<path d="M533.44 184.42L540.5 184.42M540.5 184.42L540.5 172.61M540.5 172.61L528.62 172.61"/>
<path d="M533.44 182.01L508.69 182.01M508.69 182.01L508.69 202.1M508.69 202.1L533.44 202.1M533.44 202.1L533.44 182.01"/>
<path d="M501.58 172.61L493.74 162.87"/>
<path d="M501.58 184.42L493.74 193.94"/>
<path d="M540.5 184.42L547.49 193.94"/>
<path d="M540.5 172.61L547.49 162.87"/>
<path d="M528.62 172.61L528.62 168.75M528.62 168.75L513.76 168.75M513.76 168.75L513.76 172.61"/>
<path d="M436.83 202.1L436.83 216.33"/>
<path d="M436.83 216.33L452.1 216.33"/>
<path d="M452.1 216.33L452.1 202.1"/>
<path d="M437.87 202.1L462.15 202.1"/>
<path d="M462.15 162.87L462.15 216.33"/>
<path d="M462.15 216.33L452.1 216.33"/>
<path d="M414.17 202.1L414.17 216.33"/>
<path d="M414.17 216.33L398.9 216.33"/>
<path d="M398.9 216.33L398.9 202.1"/>
<path d="M413.12 202.1L398.9 202.1"/>
<path d="M395.88 197.21L396.91 199.95M396.91 199.95L398.9 202.1"/>
<path d="M398.9 216.33L395.88 220.05"/>
<path d="M436.83 216.33L414.17 216.33"/>
<path d="M549.78 197.21L549.78 220.05"/>
<path d="M508.83 202.1L508.83 216.33"/>
<path d="M508.83 216.33L493.56 216.33"/>
<path d="M493.56 216.33L493.56 202.1"/>
<path d="M507.79 202.1L483.51 202.1"/>
<path d="M483.51 162.87L483.51 216.33"/>
<path d="M483.51 216.33L493.56 216.33"/>
<path d="M531.49 202.1L531.49 216.33"/>
<path d="M531.49 216.33L546.76 216.33"/>
<path d="M546.76 216.33L546.76 202.1"/>
<path d="M532.53 202.1L546.76 202.1"/>
<path d="M546.76 202.1L548.75 199.95M548.75 199.95L549.78 197.21"/>
<path d="M546.76 216.33L549.78 220.05"/>
<path d="M508.83 216.33L531.49 216.33"/>
<path d="M483.51 216.33L462.15 216.33"/>
<path d="M483.51 162.87L482.08 157.53M482.08 157.53L478.17 153.62M478.17 153.62L472.83 152.19M472.83 152.19L467.49 153.62M467.49 153.62L463.58 157.53M463.58 157.53L462.15 162.87"/>
<path d="M585.93 177.48L588.06 176.42M588.06 176.42L591.26 173.22M591.26 173.22L591.26 195.61"/>
<path d="M34.38 173.22L23.71 188.14M23.71 188.14L39.71 188.14M34.38 173.22L34.38 195.61"/>
<path d="M596.25 232.12L585.59 232.12M585.59 232.12L584.53 241.72M584.53 241.72L585.59 240.65M585.59 240.65L588.79 239.58M588.79 239.58L591.99 239.58M591.99 239.58L595.19 240.65M595.19 240.65L597.32 242.78M597.32 242.78L598.39 245.98M598.39 245.98L598.39 248.11M598.39 248.11L597.32 251.31M597.32 251.31L595.19 253.45M595.19 253.45L591.99 254.51M591.99 254.51L588.79 254.51M588.79 254.51L585.59 253.45M585.59 253.45L584.53 252.38M584.53 252.38L583.46 250.25"/>
<path d="M2.67 237.45L2.67 236.39M2.67 236.39L3.74 234.25M3.74 234.25L4.8 233.19M4.8 233.19L6.93 232.12M6.93 232.12L11.2 232.12M11.2 232.12L13.33 233.19M13.33 233.19L14.4 234.25M14.4 234.25L15.46 236.39M15.46 236.39L15.46 238.52M15.46 238.52L14.4 240.65M14.4 240.65L12.26 243.85M12.26 243.85L1.6 254.51M1.6 254.51L16.53 254.51M33.59 232.12L22.93 247.05M22.93 247.05L38.92 247.05M33.59 232.12L33.59 254.51"/>
</g>
</g>
</svg>
