<?xml version="1.0" standalone="no"?><svg xmlns="http://www.w3.org/2000/svg" width="600.000" height="450.000" viewBox="0.0 0.0 600.000 450.000" version="1.1">
<title>Acme Converter - Post-processed with EDS-Designer: 14.44 (info@symca.com)</title>
<desc>Acme Converter - Post-processed with EDS-Designer: 14.44 (info@symca.com)</desc>
<g id="EDS_STYLE_GROUP" fill="none" stroke="black" stroke-width="1.0">
<g id="0" display="visible">
<path d="M187.43 386.16L187.43 358.16M188.76 358.16L188.76 386.16M183.43 358.16L196.76 358.16M196.76 358.16L200.76 359.49M200.76 359.49L203.43 362.16M203.43 362.16L204.76 364.83M204.76 364.83L206.09 368.82M206.09 368.82L206.09 375.49M206.09 375.49L204.76 379.49M204.76 379.49L203.43 382.16M203.43 382.16L200.76 384.82M200.76 384.82L196.76 386.16M196.76 386.16L183.43 386.16M196.76 358.16L199.43 359.49M199.43 359.49L202.09 362.16M202.09 362.16L203.43 364.83M203.43 364.83L204.76 368.82M204.76 368.82L204.76 375.49M204.76 375.49L203.43 379.49M203.43 379.49L202.09 382.16M202.09 382.16L199.43 384.82M199.43 384.82L196.76 386.16M224.76 358.16L215.42 386.16M224.76 358.16L234.09 386.16M224.76 362.16L232.76 386.16M218.09 378.16L230.09 378.16M212.76 386.16L220.76 386.16M228.76 386.16L236.76 386.16M244.75 386.16L244.75 358.16M246.09 358.16L246.09 386.16M240.76 358.16L256.75 358.16M256.75 358.16L260.75 359.49M260.75 359.49L262.09 360.83M262.09 360.83L263.42 363.49M263.42 363.49L263.42 366.16M263.42 366.16L262.09 368.82M262.09 368.82L260.75 370.16M260.75 370.16L256.75 371.49M256.75 371.49L246.09 371.49M256.75 358.16L259.42 359.49M259.42 359.49L260.75 360.83M260.75 360.83L262.09 363.49M262.09 363.49L262.09 366.16M262.09 366.16L260.75 368.82M260.75 368.82L259.42 370.16M259.42 370.16L256.75 371.49M240.76 386.16L250.09 386.16M252.75 371.49L255.42 372.82M255.42 372.82L256.75 374.16M256.75 374.16L260.75 383.49M260.75 383.49L262.09 384.82M262.09 384.82L263.42 384.82M263.42 384.82L264.75 383.49M255.42 372.82L256.75 375.49M256.75 375.49L259.42 384.82M259.42 384.82L260.75 386.16M260.75 386.16L263.42 386.16M263.42 386.16L264.75 383.49M264.75 383.49L264.75 382.16M274.08 386.16L274.08 358.16M275.42 358.16L275.42 386.16M292.75 358.16L275.42 375.49M282.08 370.16L292.75 386.16M280.75 370.16L291.42 386.16M270.08 358.16L279.42 358.16M287.42 358.16L295.42 358.16M270.08 386.16L279.42 386.16M287.42 386.16L295.42 386.16M346.08 362.16L347.41 366.16M347.41 366.16L347.41 358.16M347.41 358.16L346.08 362.16M346.08 362.16L343.41 359.49M343.41 359.49L339.41 358.16M339.41 358.16L336.74 358.16M336.74 358.16L332.74 359.49M332.74 359.49L330.08 362.16M330.08 362.16L328.74 364.83M328.74 364.83L327.41 368.82M327.41 368.82L327.41 375.49M327.41 375.49L328.74 379.49M328.74 379.49L330.08 382.16M330.08 382.16L332.74 384.82M332.74 384.82L336.74 386.16M336.74 386.16L339.41 386.16M339.41 386.16L343.41 384.82M343.41 384.82L346.08 382.16M336.74 358.16L334.08 359.49M334.08 359.49L331.41 362.16M331.41 362.16L330.08 364.83M330.08 364.83L328.74 368.82M328.74 368.82L328.74 375.49M328.74 375.49L330.08 379.49M330.08 379.49L331.41 382.16M331.41 382.16L334.08 384.82M334.08 384.82L336.74 386.16M346.08 375.49L346.08 386.16M347.41 375.49L347.41 386.16M342.08 375.49L351.41 375.49M362.07 386.16L362.07 358.16M363.41 358.16L363.41 386.16M358.07 358.16L374.07 358.16M374.07 358.16L378.07 359.49M378.07 359.49L379.4 360.83M379.4 360.83L380.74 363.49M380.74 363.49L380.74 366.16M380.74 366.16L379.4 368.82M379.4 368.82L378.07 370.16M378.07 370.16L374.07 371.49M374.07 371.49L363.41 371.49M374.07 358.16L376.74 359.49M376.74 359.49L378.07 360.83M378.07 360.83L379.4 363.49M379.4 363.49L379.4 366.16M379.4 366.16L378.07 368.82M378.07 368.82L376.74 370.16M376.74 370.16L374.07 371.49M358.07 386.16L367.41 386.16M370.07 371.49L372.74 372.82M372.74 372.82L374.07 374.16M374.07 374.16L378.07 383.49M378.07 383.49L379.4 384.82M379.4 384.82L380.74 384.82M380.74 384.82L382.07 383.49M372.74 372.82L374.07 375.49M374.07 375.49L376.74 384.82M376.74 384.82L378.07 386.16M378.07 386.16L380.74 386.16M380.74 386.16L382.07 383.49M382.07 383.49L382.07 382.16M391.4 386.16L391.4 358.16M392.74 358.16L392.74 386.16M400.74 366.16L400.74 376.82M387.4 358.16L408.73 358.16M408.73 358.16L408.73 366.16M408.73 366.16L407.4 358.16M392.74 371.49L400.74 371.49M387.4 386.16L408.73 386.16M408.73 386.16L408.73 378.16M408.73 378.16L407.4 386.16M418.07 358.16L427.4 372.82M427.4 372.82L427.4 386.16M419.4 358.16L428.73 372.82M428.73 372.82L428.73 386.16M438.06 358.16L428.73 372.82M415.4 358.16L423.4 358.16M432.73 358.16L440.73 358.16M423.4 386.16L432.73 386.16"/>
<path d="M247.12 109.7L311.95 109.7"/>
<path d="M247.12 109.7L243.95 111.01M243.95 111.01L242.64 114.18"/>
<path d="M242.64 114.18L242.64 143.24"/>
<path d="M311.95 123.42L264.94 123.42"/>
<path d="M264.94 123.42L260.46 124.62M260.46 124.62L257.18 127.9M257.18 127.9L255.98 132.38"/>
<path d="M255.98 132.38L255.98 192.31"/>
<path d="M255.98 192.31L283.09 192.31"/>
<path d="M283.09 192.31L283.09 143.75"/>
<path d="M283.09 143.75L269.54 143.75"/>
<path d="M269.54 143.75L269.54 136.6"/>
<path d="M269.54 136.6L296.46 136.6"/>
<path d="M296.46 210.27L296.46 123.42"/>
<path d="M297.36 139.45L296.73 139.72M296.73 139.72L296.46 140.35"/>
<path d="M296.46 210.27L297.06 212.51M297.06 212.51L298.7 214.15M298.7 214.15L300.94 214.75"/>
<path d="M272.32 123.42L272.32 136.6"/>
<path d="M296.46 134.12L311.95 134.12"/>
<path d="M300.94 214.75L311.95 214.75"/>
<path d="M311.95 181.49L296.46 181.49"/>
<path d="M311.95 169.11L296.46 169.11"/>
<path d="M311.95 149.77L296.46 149.77"/>
<path d="M311.95 139.45L297.36 139.45"/>
<path d="M283.09 192.31L288.79 198.03"/>
<path d="M255.98 192.31L250.28 198.03"/>
<path d="M283.09 166.81L262.17 166.81M262.17 166.81L262.17 156.3M262.17 156.3L283.09 156.3"/>
<path d="M232.48 137.26L252.94 137.26"/>
<path d="M252.94 137.26L255.98 140.73"/>
<path d="M232.48 137.26L232.48 63.84"/>
<path d="M232.48 63.84L65.43 63.84"/>
<path d="M65.43 63.84L65.43 330.16"/>
<path d="M66.33 113.82L65.69 114.08M65.69 114.08L65.43 114.72"/>
<path d="M65.43 330.16L311.95 330.16"/>
<path d="M65.43 314.9L89.93 314.9"/>
<path d="M104.29 314.9L209.07 314.9"/>
<path d="M223.43 314.9L304.51 314.9"/>
<path d="M89.93 312.19L104.29 312.19M104.29 312.19L104.29 323.32M104.29 323.32L89.93 323.32M89.93 323.32L89.93 312.19"/>
<path d="M89.93 317.73L104.29 317.73"/>
<path d="M209.07 312.19L223.43 312.19M223.43 312.19L223.43 323.32M223.43 323.32L209.07 323.32M209.07 323.32L209.07 312.19"/>
<path d="M209.07 317.73L223.43 317.73"/>
<path d="M311.95 323.32L304.51 323.32M304.51 323.32L304.51 312.19M304.51 312.19L311.95 312.19"/>
<path d="M304.51 317.73L311.95 317.73"/>
<path d="M65.43 78.89L95.46 78.89"/>
<path d="M109.78 78.89L190.99 78.89"/>
<path d="M205.31 78.89L232.48 78.89"/>
<path d="M190.99 71.12L205.31 71.12M205.31 71.12L205.31 81.63M205.31 81.63L190.99 81.63M190.99 81.63L190.99 71.12"/>
<path d="M190.99 77.37L205.31 77.37"/>
<path d="M95.46 71.12L109.78 71.12M109.78 71.12L109.78 81.63M109.78 81.63L95.46 81.63M95.46 81.63L95.46 71.12"/>
<path d="M95.46 77.37L109.78 77.37"/>
<path d="M232.48 102.16L65.43 102.16"/>
<path d="M232.48 107.01L65.43 107.01"/>
<path d="M203.1 102.16L203.1 84.35M203.1 84.35L227.28 84.35M227.28 84.35L227.28 102.16"/>
<path d="M203.1 89.96L227.28 89.96"/>
<path d="M169.27 102.16L169.27 84.35M169.27 84.35L193.45 84.35M193.45 84.35L193.45 102.16"/>
<path d="M169.27 89.96L193.45 89.96"/>
<path d="M108.49 102.16L108.49 84.35M108.49 84.35L132.67 84.35M132.67 84.35L132.67 102.16"/>
<path d="M108.49 89.96L132.67 89.96"/>
<path d="M73.72 102.16L73.72 84.35M73.72 84.35L97.9 84.35M97.9 84.35L97.9 102.16"/>
<path d="M73.72 89.96L97.9 89.96"/>
<path d="M242.64 143.24L229.98 143.24"/>
<path d="M229.98 150.69L229.98 114.72"/>
<path d="M229.98 114.72L229.72 114.08M229.72 114.08L229.09 113.82"/>
<path d="M229.09 113.82L66.33 113.82"/>
<path d="M65.43 124.41L74.41 124.41M74.41 124.41L74.41 124.41M74.41 124.41L76.31 125.2M76.31 125.2L77.1 127.1M77.1 127.1L77.1 140.49M77.1 140.49L77.1 140.49M77.1 140.49L76.31 142.39M76.31 142.39L74.41 143.18M74.41 143.18L65.43 143.18"/>
<path d="M65.43 132.28L77.1 132.28"/>
<path d="M89.41 113.82L89.41 141.17"/>
<path d="M91.2 142.96L143.34 142.96"/>
<path d="M89.41 141.17L89.93 142.44M89.93 142.44L91.2 142.96"/>
<path d="M145.13 141.17L145.13 127.07"/>
<path d="M145.13 127.07L144.61 125.8M144.61 125.8L143.34 125.28"/>
<path d="M143.34 142.96L144.61 142.44M144.61 142.44L145.13 141.17"/>
<path d="M143.34 125.28L134.85 125.28"/>
<path d="M133.05 123.49L133.05 113.82"/>
<path d="M133.05 123.49L133.58 124.75M133.58 124.75L134.85 125.28"/>
<path d="M145.13 132.2L89.41 132.2"/>
<path d="M94.79 132.2L94.79 121.14M94.79 121.14L110.85 121.14M110.85 121.14L110.85 132.2"/>
<path d="M94.79 126.91L110.85 126.91"/>
<path d="M156.49 113.82L156.49 141.17"/>
<path d="M158.28 142.96L176.73 142.96"/>
<path d="M156.49 141.17L156.73 142.06M156.73 142.06L157.39 142.72M157.39 142.72L158.28 142.96"/>
<path d="M178.53 141.17L178.53 113.82"/>
<path d="M176.73 142.96L178 142.44M178 142.44L178.53 141.17"/>
<path d="M156.49 132.32L178.53 132.32"/>
<path d="M190 121.92L216.08 121.92M216.08 121.92L216.08 121.92M216.08 121.92L217.35 122.45M217.35 122.45L217.88 123.71M217.88 123.71L217.88 141.07M217.88 141.07L217.88 141.07M217.88 141.07L217.35 142.34M217.35 142.34L216.08 142.86M216.08 142.86L191.79 142.86M191.79 142.86L191.79 142.86M191.79 142.86L190.52 142.34M190.52 142.34L190 141.07M190 141.07L190 121.92"/>
<path d="M190 121.92L186.49 118.12"/>
<path d="M190 121.92L206.3 121.92M206.3 121.92L206.3 132.51M206.3 132.51L190 132.51M190 132.51L190 121.92"/>
<path d="M206.3 132.51L217.88 132.51"/>
<path d="M190 126.87L206.3 126.87"/>
<path d="M311.95 288.39L65.43 288.39"/>
<path d="M308.93 288.39L308.93 302.29M308.93 302.29L290.43 302.29M290.43 302.29L290.43 288.39"/>
<path d="M285.11 288.39L285.11 302.29M285.11 302.29L266.62 302.29M266.62 302.29L266.62 288.39"/>
<path d="M261.3 288.39L261.3 302.29M261.3 302.29L242.81 302.29M242.81 302.29L242.81 288.39"/>
<path d="M237.49 288.39L237.49 302.29M237.49 302.29L218.99 302.29M218.99 302.29L218.99 288.39"/>
<path d="M213.67 288.39L213.67 302.29M213.67 302.29L195.18 302.29M195.18 302.29L195.18 288.39"/>
<path d="M189.86 288.39L189.86 302.29M189.86 302.29L171.37 302.29M171.37 302.29L171.37 288.39"/>
<path d="M166.05 288.39L166.05 302.29M166.05 302.29L147.55 302.29M147.55 302.29L147.55 288.39"/>
<path d="M142.23 288.39L142.23 302.29M142.23 302.29L123.74 302.29M123.74 302.29L123.74 288.39"/>
<path d="M118.42 288.39L118.42 302.29M118.42 302.29L99.93 302.29M99.93 302.29L99.93 288.39"/>
<path d="M94.61 288.39L94.61 302.29M94.61 302.29L76.11 302.29M76.11 302.29L76.11 288.39"/>
<path d="M311.95 283.41L65.43 283.41"/>
<path d="M311.95 280.04L65.43 280.04"/>
<path d="M287.81 280.04L287.81 283.41"/>
<path d="M251.94 280.04L251.94 283.41"/>
<path d="M89.6 280.04L89.6 262.64M89.6 262.64L157.62 262.64M157.62 262.64L157.62 262.64M157.62 262.64L158.89 263.16M158.89 263.16L159.41 264.43M159.41 264.43L159.41 280.04"/>
<path d="M105.15 271.65L89.6 271.65M89.6 271.65L89.6 262.64M89.6 262.64L105.15 262.64M105.15 262.64L105.15 271.65"/>
<path d="M65.43 261.8L75.62 261.8"/>
<path d="M75.62 268.38L65.43 268.38"/>
<path d="M75.62 268.38L77.36 267.13M77.36 267.13L78.02 265.09M78.02 265.09L77.36 263.06M77.36 263.06L75.62 261.8"/>
<path d="M292.25 225.65L306.99 225.65M306.99 225.65L306.99 238.81M306.99 238.81L292.25 238.81M292.25 238.81L292.25 225.65"/>
<path d="M296.11 228.88L303.68 228.88M303.68 228.88L303.68 235.19M303.68 235.19L296.11 235.19M296.11 235.19L296.11 228.88"/>
<path d="M292.25 225.65L296.11 228.88"/>
<path d="M303.68 228.88L306.99 225.65"/>
<path d="M303.68 235.19L306.99 238.81"/>
<path d="M296.11 235.19L292.25 238.81"/>
<path d="M290.27 254.11L309.12 254.11M309.12 254.11L309.12 238.8M309.12 238.8L290.27 238.8M290.27 238.8L290.27 254.11"/>
<path d="M293.01 254.11L293.01 245.1M293.01 245.1L306.74 245.1M306.74 245.1L306.74 254.11"/>
<path d="M268.87 225.65L283.62 225.65M283.62 225.65L283.62 238.81M283.62 238.81L268.87 238.81M268.87 238.81L268.87 225.65"/>
<path d="M272.73 228.88L280.3 228.88M280.3 228.88L280.3 235.19M280.3 235.19L272.73 235.19M272.73 235.19L272.73 228.88"/>
<path d="M268.87 225.65L272.73 228.88"/>
<path d="M280.3 228.88L283.62 225.65"/>
<path d="M280.3 235.19L283.62 238.81"/>
<path d="M272.73 235.19L268.87 238.81"/>
<path d="M266.89 254.11L285.74 254.11M285.74 254.11L285.74 238.8M285.74 238.8L266.89 238.8M266.89 238.8L266.89 254.11"/>
<path d="M269.63 254.11L269.63 245.1M269.63 245.1L283.36 245.1M283.36 245.1L283.36 254.11"/>
<path d="M245.49 225.65L260.24 225.65M260.24 225.65L260.24 238.81M260.24 238.81L245.49 238.81M245.49 238.81L245.49 225.65"/>
<path d="M249.35 228.88L256.92 228.88M256.92 228.88L256.92 235.19M256.92 235.19L249.35 235.19M249.35 235.19L249.35 228.88"/>
<path d="M245.49 225.65L249.35 228.88"/>
<path d="M256.92 228.88L260.24 225.65"/>
<path d="M256.92 235.19L260.24 238.81"/>
<path d="M249.35 235.19L245.49 238.81"/>
<path d="M243.51 254.11L262.36 254.11M262.36 254.11L262.36 238.8M262.36 238.8L243.51 238.8M243.51 238.8L243.51 254.11"/>
<path d="M246.26 254.11L246.26 245.1M246.26 245.1L259.98 245.1M259.98 245.1L259.98 254.11"/>
<path d="M222.11 225.65L236.86 225.65M236.86 225.65L236.86 238.81M236.86 238.81L222.11 238.81M222.11 238.81L222.11 225.65"/>
<path d="M225.97 228.88L233.54 228.88M233.54 228.88L233.54 235.19M233.54 235.19L225.97 235.19M225.97 235.19L225.97 228.88"/>
<path d="M222.11 225.65L225.97 228.88"/>
<path d="M233.54 228.88L236.86 225.65"/>
<path d="M233.54 235.19L236.86 238.81"/>
<path d="M225.97 235.19L222.11 238.81"/>
<path d="M220.13 254.11L238.98 254.11M238.98 254.11L238.98 238.8M238.98 238.8L220.13 238.8M220.13 238.8L220.13 254.11"/>
<path d="M222.88 254.11L222.88 245.1M222.88 245.1L236.6 245.1M236.6 245.1L236.6 254.11"/>
<path d="M198.73 225.65L213.48 225.65M213.48 225.65L213.48 238.81M213.48 238.81L198.73 238.81M198.73 238.81L198.73 225.65"/>
<path d="M202.59 228.88L210.16 228.88M210.16 228.88L210.16 235.19M210.16 235.19L202.59 235.19M202.59 235.19L202.59 228.88"/>
<path d="M198.73 225.65L202.59 228.88"/>
<path d="M210.16 228.88L213.48 225.65"/>
<path d="M210.16 235.19L213.48 238.81"/>
<path d="M202.59 235.19L198.73 238.81"/>
<path d="M196.75 254.11L215.6 254.11M215.6 254.11L215.6 238.8M215.6 238.8L196.75 238.8M196.75 238.8L196.75 254.11"/>
<path d="M199.5 254.11L199.5 245.1M199.5 245.1L213.22 245.1M213.22 245.1L213.22 254.11"/>
<path d="M175.35 225.65L190.1 225.65M190.1 225.65L190.1 238.81M190.1 238.81L175.35 238.81M175.35 238.81L175.35 225.65"/>
<path d="M179.21 228.88L186.78 228.88M186.78 228.88L186.78 235.19M186.78 235.19L179.21 235.19M179.21 235.19L179.21 228.88"/>
<path d="M175.35 225.65L179.21 228.88"/>
<path d="M186.78 228.88L190.1 225.65"/>
<path d="M186.78 235.19L190.1 238.81"/>
<path d="M179.21 235.19L175.35 238.81"/>
<path d="M173.37 254.11L192.22 254.11M192.22 254.11L192.22 238.8M192.22 238.8L173.37 238.8M173.37 238.8L173.37 254.11"/>
<path d="M176.12 254.11L176.12 245.1M176.12 245.1L189.84 245.1M189.84 245.1L189.84 254.11"/>
<path d="M151.97 225.65L166.72 225.65M166.72 225.65L166.72 238.81M166.72 238.81L151.97 238.81M151.97 238.81L151.97 225.65"/>
<path d="M155.83 228.88L163.4 228.88M163.4 228.88L163.4 235.19M163.4 235.19L155.83 235.19M155.83 235.19L155.83 228.88"/>
<path d="M151.97 225.65L155.83 228.88"/>
<path d="M163.4 228.88L166.72 225.65"/>
<path d="M163.4 235.19L166.72 238.81"/>
<path d="M155.83 235.19L151.97 238.81"/>
<path d="M149.99 254.11L168.84 254.11M168.84 254.11L168.84 238.8M168.84 238.8L149.99 238.8M149.99 238.8L149.99 254.11"/>
<path d="M152.74 254.11L152.74 245.1M152.74 245.1L166.46 245.1M166.46 245.1L166.46 254.11"/>
<path d="M128.59 225.65L143.34 225.65M143.34 225.65L143.34 238.81M143.34 238.81L128.59 238.81M128.59 238.81L128.59 225.65"/>
<path d="M132.45 228.88L140.02 228.88M140.02 228.88L140.02 235.19M140.02 235.19L132.45 235.19M132.45 235.19L132.45 228.88"/>
<path d="M128.59 225.65L132.45 228.88"/>
<path d="M140.02 228.88L143.34 225.65"/>
<path d="M140.02 235.19L143.34 238.81"/>
<path d="M132.45 235.19L128.59 238.81"/>
<path d="M126.61 254.11L145.46 254.11M145.46 254.11L145.46 238.8M145.46 238.8L126.61 238.8M126.61 238.8L126.61 254.11"/>
<path d="M129.36 254.11L129.36 245.1M129.36 245.1L143.08 245.1M143.08 245.1L143.08 254.11"/>
<path d="M105.21 225.65L119.96 225.65M119.96 225.65L119.96 238.81M119.96 238.81L105.21 238.81M105.21 238.81L105.21 225.65"/>
<path d="M109.07 228.88L116.65 228.88M116.65 228.88L116.65 235.19M116.65 235.19L109.07 235.19M109.07 235.19L109.07 228.88"/>
<path d="M105.21 225.65L109.07 228.88"/>
<path d="M116.65 228.88L119.96 225.65"/>
<path d="M116.65 235.19L119.96 238.81"/>
<path d="M109.07 235.19L105.21 238.81"/>
<path d="M103.23 254.11L122.08 254.11M122.08 254.11L122.08 238.8M122.08 238.8L103.23 238.8M103.23 238.8L103.23 254.11"/>
<path d="M105.98 254.11L105.98 245.1M105.98 245.1L119.7 245.1M119.7 245.1L119.7 254.11"/>
<path d="M81.83 225.65L96.58 225.65M96.58 225.65L96.58 238.81M96.58 238.81L81.83 238.81M81.83 238.81L81.83 225.65"/>
<path d="M85.69 228.88L93.27 228.88M93.27 228.88L93.27 235.19M93.27 235.19L85.69 235.19M85.69 235.19L85.69 228.88"/>
<path d="M81.83 225.65L85.69 228.88"/>
<path d="M93.27 228.88L96.58 225.65"/>
<path d="M93.27 235.19L96.58 238.81"/>
<path d="M85.69 235.19L81.83 238.81"/>
<path d="M79.85 254.11L98.7 254.11M98.7 254.11L98.7 238.8M98.7 238.8L79.85 238.8M79.85 238.8L79.85 254.11"/>
<path d="M82.6 254.11L82.6 245.1M82.6 245.1L96.32 245.1M96.32 245.1L96.32 254.11"/>
<path d="M236.08 151.57L245.38 151.57M245.38 151.57L245.38 151.57M245.38 151.57L246.64 152.09M246.64 152.09L247.17 153.36M247.17 153.36L247.17 215.05M247.17 215.05L247.17 215.05M247.17 215.05L246.64 216.32M246.64 216.32L245.38 216.84M245.38 216.84L236.08 216.84M236.08 216.84L236.08 216.84M236.08 216.84L234.82 216.32M234.82 216.32L234.29 215.05M234.29 215.05L234.29 153.36M234.29 153.36L234.29 153.36M234.29 153.36L234.82 152.09M234.82 152.09L236.08 151.57"/>
<path d="M234.29 162.35L247.17 162.35"/>
<path d="M171.92 162.85L225.69 162.85M225.69 162.85L225.69 193.93M225.69 193.93L171.92 193.93M171.92 193.93L171.92 162.85"/>
<path d="M205.66 172.6L217.84 172.6M217.84 172.6L217.84 184.4M217.84 184.4L210.73 184.4"/>
<path d="M185.97 184.4L178.91 184.4M178.91 184.4L178.91 172.6M178.91 172.6L190.79 172.6"/>
<path d="M185.97 181.99L210.73 181.99M210.73 181.99L210.73 202.09M210.73 202.09L185.97 202.09M185.97 202.09L185.97 181.99"/>
<path d="M217.84 172.6L225.69 162.85"/>
<path d="M217.84 184.4L225.69 193.93"/>
<path d="M178.91 184.4L171.92 193.93"/>
<path d="M178.91 172.6L171.92 162.85"/>
<path d="M190.79 172.6L190.79 168.73M190.79 168.73L205.66 168.73M205.66 168.73L205.66 172.6"/>
<path d="M225.69 162.85L229.98 150.69"/>
<path d="M227.98 197.2L227.98 220.04"/>
<path d="M227.98 220.04L74.03 220.04"/>
<path d="M76.32 162.85L130.09 162.85M130.09 162.85L130.09 193.93M130.09 193.93L76.32 193.93M76.32 193.93L76.32 162.85"/>
<path d="M110.06 172.6L122.25 172.6M122.25 172.6L122.25 184.4M122.25 184.4L115.13 184.4"/>
<path d="M90.38 184.4L83.31 184.4M83.31 184.4L83.31 172.6M83.31 172.6L95.19 172.6"/>
<path d="M90.38 181.99L115.13 181.99M115.13 181.99L115.13 202.09M115.13 202.09L90.38 202.09M90.38 202.09L90.38 181.99"/>
<path d="M122.25 172.6L130.09 162.85"/>
<path d="M122.25 184.4L130.09 193.93"/>
<path d="M83.31 184.4L76.32 193.93"/>
<path d="M83.31 172.6L76.32 162.85"/>
<path d="M95.19 172.6L95.19 168.73M95.19 168.73L110.06 168.73M110.06 168.73L110.06 172.6"/>
<path d="M187.01 202.09L187.01 216.32"/>
<path d="M187.01 216.32L171.75 216.32"/>
<path d="M171.75 216.32L171.75 202.09"/>
<path d="M185.97 202.09L161.69 202.09"/>
<path d="M161.69 162.85L161.69 216.32"/>
<path d="M161.69 216.32L171.75 216.32"/>
<path d="M209.69 202.09L209.69 216.32"/>
<path d="M209.69 216.32L224.96 216.32"/>
<path d="M224.96 216.32L224.96 202.09"/>
<path d="M210.73 202.09L224.96 202.09"/>
<path d="M224.96 202.09L226.95 199.94M226.95 199.94L227.98 197.2"/>
<path d="M224.96 216.32L227.98 220.04"/>
<path d="M187.01 216.32L209.69 216.32"/>
<path d="M74.03 197.2L74.03 220.04"/>
<path d="M115 202.09L115 216.32"/>
<path d="M115 216.32L130.26 216.32"/>
<path d="M130.26 216.32L130.26 202.09"/>
<path d="M116.04 202.09L140.32 202.09"/>
<path d="M140.32 162.85L140.32 216.32"/>
<path d="M140.32 216.32L130.26 216.32"/>
<path d="M92.32 202.09L92.32 216.32"/>
<path d="M92.32 216.32L77.05 216.32"/>
<path d="M77.05 216.32L77.05 202.09"/>
<path d="M91.28 202.09L77.05 202.09"/>
<path d="M74.03 197.2L75.06 199.94M75.06 199.94L77.05 202.09"/>
<path d="M77.05 216.32L74.03 220.04"/>
<path d="M115 216.32L92.32 216.32"/>
<path d="M140.32 216.32L161.69 216.32"/>
<path d="M161.69 162.85L160.26 157.5M160.26 157.5L156.35 153.59M156.35 153.59L151 152.16M151 152.16L145.66 153.59M145.66 153.59L141.75 157.5M141.75 157.5L140.32 162.85"/>
<path d="M376.77 109.7L311.95 109.7"/>
<path d="M381.25 114.18L379.94 111.01M379.94 111.01L376.77 109.7"/>
<path d="M381.25 114.18L381.25 143.24"/>
<path d="M311.95 123.42L358.96 123.42"/>
<path d="M367.91 132.38L366.71 127.9M366.71 127.9L363.43 124.62M363.43 124.62L358.96 123.42"/>
<path d="M367.91 132.38L367.91 192.31"/>
<path d="M367.91 192.31L340.8 192.31"/>
<path d="M340.8 192.31L340.8 143.75"/>
<path d="M340.8 143.75L354.36 143.75"/>
<path d="M354.36 143.75L354.36 136.6"/>
<path d="M354.36 136.6L327.43 136.6"/>
<path d="M327.43 210.27L327.43 123.42"/>
<path d="M327.43 140.35L327.17 139.72M327.17 139.72L326.53 139.45"/>
<path d="M322.95 214.75L325.19 214.15M325.19 214.15L326.83 212.51M326.83 212.51L327.43 210.27"/>
<path d="M351.57 123.42L351.57 136.6"/>
<path d="M327.43 134.12L311.95 134.12"/>
<path d="M322.95 214.75L311.95 214.75"/>
<path d="M311.95 181.49L327.43 181.49"/>
<path d="M311.95 169.11L327.43 169.11"/>
<path d="M311.95 149.77L327.43 149.77"/>
<path d="M311.95 139.45L326.53 139.45"/>
<path d="M340.8 192.31L335.1 198.03"/>
<path d="M367.91 192.31L373.61 198.03"/>
<path d="M340.8 166.81L361.73 166.81M361.73 166.81L361.73 156.3M361.73 156.3L340.8 156.3"/>
<path d="M391.41 137.26L370.95 137.26"/>
<path d="M370.95 137.26L367.91 140.73"/>
<path d="M391.41 137.26L391.41 63.84"/>
<path d="M391.41 63.84L558.46 63.84"/>
<path d="M558.46 63.84L558.46 330.16"/>
<path d="M558.46 114.72L558.2 114.08M558.2 114.08L557.57 113.82"/>
<path d="M558.46 330.16L311.95 330.16"/>
<path d="M558.46 314.9L533.96 314.9"/>
<path d="M519.61 314.9L414.82 314.9"/>
<path d="M400.46 314.9L319.39 314.9"/>
<path d="M533.96 312.19L519.61 312.19M519.61 312.19L519.61 323.32M519.61 323.32L533.96 323.32M533.96 323.32L533.96 312.19"/>
<path d="M533.96 317.73L519.61 317.73"/>
<path d="M414.82 312.19L400.46 312.19M400.46 312.19L400.46 323.32M400.46 323.32L414.82 323.32M414.82 323.32L414.82 312.19"/>
<path d="M414.82 317.73L400.46 317.73"/>
<path d="M311.95 323.32L319.39 323.32M319.39 323.32L319.39 312.19M319.39 312.19L311.95 312.19"/>
<path d="M319.39 317.73L311.95 317.73"/>
<path d="M558.46 78.89L528.43 78.89"/>
<path d="M514.11 78.89L432.9 78.89"/>
<path d="M418.58 78.89L391.41 78.89"/>
<path d="M432.9 71.12L418.58 71.12M418.58 71.12L418.58 81.63M418.58 81.63L432.9 81.63M432.9 81.63L432.9 71.12"/>
<path d="M432.9 77.37L418.58 77.37"/>
<path d="M528.43 71.12L514.11 71.12M514.11 71.12L514.11 81.63M514.11 81.63L528.43 81.63M528.43 81.63L528.43 71.12"/>
<path d="M528.43 77.37L514.11 77.37"/>
<path d="M391.41 102.16L558.46 102.16"/>
<path d="M391.41 107.01L558.46 107.01"/>
<path d="M420.79 102.16L420.79 84.35M420.79 84.35L396.61 84.35M396.61 84.35L396.61 102.16"/>
<path d="M420.79 89.96L396.61 89.96"/>
<path d="M454.62 102.16L454.62 84.35M454.62 84.35L430.44 84.35M430.44 84.35L430.44 102.16"/>
<path d="M454.62 89.96L430.44 89.96"/>
<path d="M515.4 102.16L515.4 84.35M515.4 84.35L491.22 84.35M491.22 84.35L491.22 102.16"/>
<path d="M515.4 89.96L491.22 89.96"/>
<path d="M550.17 102.16L550.17 84.35M550.17 84.35L525.99 84.35M525.99 84.35L525.99 102.16"/>
<path d="M550.17 89.96L525.99 89.96"/>
<path d="M381.25 143.24L393.91 143.24"/>
<path d="M393.91 150.69L393.91 114.72"/>
<path d="M394.8 113.82L394.17 114.08M394.17 114.08L393.91 114.72"/>
<path d="M394.8 113.82L557.57 113.82"/>
<path d="M558.46 124.41L549.48 124.41M549.48 124.41L549.48 124.41M549.48 124.41L547.58 125.2M547.58 125.2L546.8 127.1M546.8 127.1L546.8 140.49M546.8 140.49L546.8 140.49M546.8 140.49L547.58 142.39M547.58 142.39L549.48 143.18M549.48 143.18L558.46 143.18"/>
<path d="M558.46 132.28L546.8 132.28"/>
<path d="M534.48 113.82L534.48 141.17"/>
<path d="M532.69 142.96L480.55 142.96"/>
<path d="M532.69 142.96L533.96 142.44M533.96 142.44L534.48 141.17"/>
<path d="M478.76 141.17L478.76 127.07"/>
<path d="M480.55 125.28L479.28 125.8M479.28 125.8L478.76 127.07"/>
<path d="M478.76 141.17L479.28 142.44M479.28 142.44L480.55 142.96"/>
<path d="M480.55 125.28L489.05 125.28"/>
<path d="M490.84 123.49L490.84 113.82"/>
<path d="M489.05 125.28L490.31 124.75M490.31 124.75L490.84 123.49"/>
<path d="M478.76 132.2L534.48 132.2"/>
<path d="M529.1 132.2L529.1 121.14M529.1 121.14L513.04 121.14M513.04 121.14L513.04 132.2"/>
<path d="M529.1 126.91L513.04 126.91"/>
<path d="M467.4 113.82L467.4 141.17"/>
<path d="M465.61 142.96L447.16 142.96"/>
<path d="M465.61 142.96L466.51 142.72M466.51 142.72L467.16 142.06M467.16 142.06L467.4 141.17"/>
<path d="M445.37 141.17L445.37 113.82"/>
<path d="M445.37 141.17L445.89 142.44M445.89 142.44L447.16 142.96"/>
<path d="M467.4 132.32L445.37 132.32"/>
<path d="M433.9 121.92L407.81 121.92M407.81 121.92L407.81 121.92M407.81 121.92L406.54 122.45M406.54 122.45L406.02 123.71M406.02 123.71L406.02 141.07M406.02 141.07L406.02 141.07M406.02 141.07L406.54 142.34M406.54 142.34L407.81 142.86M407.81 142.86L432.1 142.86M432.1 142.86L432.1 142.86M432.1 142.86L433.37 142.34M433.37 142.34L433.9 141.07M433.9 141.07L433.9 121.92"/>
<path d="M433.9 121.92L437.4 118.12"/>
<path d="M433.9 121.92L417.59 121.92M417.59 121.92L417.59 132.51M417.59 132.51L433.9 132.51M433.9 132.51L433.9 121.92"/>
<path d="M417.59 132.51L406.02 132.51"/>
<path d="M433.9 126.87L417.59 126.87"/>
<path d="M311.95 288.39L558.46 288.39"/>
<path d="M314.97 288.39L314.97 302.29M314.97 302.29L333.46 302.29M333.46 302.29L333.46 288.39"/>
<path d="M338.78 288.39L338.78 302.29M338.78 302.29L357.27 302.29M357.27 302.29L357.27 288.39"/>
<path d="M362.59 288.39L362.59 302.29M362.59 302.29L381.09 302.29M381.09 302.29L381.09 288.39"/>
<path d="M386.41 288.39L386.41 302.29M386.41 302.29L404.9 302.29M404.9 302.29L404.9 288.39"/>
<path d="M410.22 288.39L410.22 302.29M410.22 302.29L428.71 302.29M428.71 302.29L428.71 288.39"/>
<path d="M434.03 288.39L434.03 302.29M434.03 302.29L452.53 302.29M452.53 302.29L452.53 288.39"/>
<path d="M457.85 288.39L457.85 302.29M457.85 302.29L476.34 302.29M476.34 302.29L476.34 288.39"/>
<path d="M481.66 288.39L481.66 302.29M481.66 302.29L500.15 302.29M500.15 302.29L500.15 288.39"/>
<path d="M505.47 288.39L505.47 302.29M505.47 302.29L523.97 302.29M523.97 302.29L523.97 288.39"/>
<path d="M529.29 288.39L529.29 302.29M529.29 302.29L547.78 302.29M547.78 302.29L547.78 288.39"/>
<path d="M311.95 283.41L558.46 283.41"/>
<path d="M311.95 280.04L558.46 280.04"/>
<path d="M322.68 280.04L322.68 283.41"/>
<path d="M358.55 280.04L358.55 283.41"/>
<path d="M340.53 280.04L340.53 264.43"/>
<path d="M338.74 262.64L311.95 262.64"/>
<path d="M340.53 264.43L340.01 263.16M340.01 263.16L338.74 262.64"/>
<path d="M311.95 271.65L319.91 271.65M319.91 271.65L319.91 262.64"/>
<path d="M558.46 261.8L548.27 261.8"/>
<path d="M548.27 268.38L558.46 268.38"/>
<path d="M548.27 261.8L546.53 263.06M546.53 263.06L545.87 265.09M545.87 265.09L546.53 267.13M546.53 267.13L548.27 268.38"/>
<path d="M331.65 225.65L316.9 225.65M316.9 225.65L316.9 238.81M316.9 238.81L331.65 238.81M331.65 238.81L331.65 225.65"/>
<path d="M327.78 228.88L320.21 228.88M320.21 228.88L320.21 235.19M320.21 235.19L327.78 235.19M327.78 235.19L327.78 228.88"/>
<path d="M331.65 225.65L327.78 228.88"/>
<path d="M320.21 228.88L316.9 225.65"/>
<path d="M320.21 235.19L316.9 238.81"/>
<path d="M327.78 235.19L331.65 238.81"/>
<path d="M333.63 254.11L314.78 254.11M314.78 254.11L314.78 238.8M314.78 238.8L333.63 238.8M333.63 238.8L333.63 254.11"/>
<path d="M330.88 254.11L330.88 245.1M330.88 245.1L317.15 245.1M317.15 245.1L317.15 254.11"/>
<path d="M355.03 225.65L340.28 225.65M340.28 225.65L340.28 238.81M340.28 238.81L355.03 238.81M355.03 238.81L355.03 225.65"/>
<path d="M351.16 228.88L343.59 228.88M343.59 228.88L343.59 235.19M343.59 235.19L351.16 235.19M351.16 235.19L351.16 228.88"/>
<path d="M355.03 225.65L351.16 228.88"/>
<path d="M343.59 228.88L340.28 225.65"/>
<path d="M343.59 235.19L340.28 238.81"/>
<path d="M351.16 235.19L355.03 238.81"/>
<path d="M357.01 254.11L338.16 254.11M338.16 254.11L338.16 238.8M338.16 238.8L357.01 238.8M357.01 238.8L357.01 254.11"/>
<path d="M354.26 254.11L354.26 245.1M354.26 245.1L340.53 245.1M340.53 245.1L340.53 254.11"/>
<path d="M378.41 225.65L363.66 225.65M363.66 225.65L363.66 238.81M363.66 238.81L378.41 238.81M378.41 238.81L378.41 225.65"/>
<path d="M374.54 228.88L366.97 228.88M366.97 228.88L366.97 235.19M366.97 235.19L374.54 235.19M374.54 235.19L374.54 228.88"/>
<path d="M378.41 225.65L374.54 228.88"/>
<path d="M366.97 228.88L363.66 225.65"/>
<path d="M366.97 235.19L363.66 238.81"/>
<path d="M374.54 235.19L378.41 238.81"/>
<path d="M380.39 254.11L361.54 254.11M361.54 254.11L361.54 238.8M361.54 238.8L380.39 238.8M380.39 238.8L380.39 254.11"/>
<path d="M377.64 254.11L377.64 245.1M377.64 245.1L363.91 245.1M363.91 245.1L363.91 254.11"/>
<path d="M401.79 225.65L387.04 225.65M387.04 225.65L387.04 238.81M387.04 238.81L401.79 238.81M401.79 238.81L401.79 225.65"/>
<path d="M397.92 228.88L390.35 228.88M390.35 228.88L390.35 235.19M390.35 235.19L397.92 235.19M397.92 235.19L397.92 228.88"/>
<path d="M401.79 225.65L397.92 228.88"/>
<path d="M390.35 228.88L387.04 225.65"/>
<path d="M390.35 235.19L387.04 238.81"/>
<path d="M397.92 235.19L401.79 238.81"/>
<path d="M403.77 254.11L384.91 254.11M384.91 254.11L384.91 238.8M384.91 238.8L403.77 238.8M403.77 238.8L403.77 254.11"/>
<path d="M401.02 254.11L401.02 245.1M401.02 245.1L387.29 245.1M387.29 245.1L387.29 254.11"/>
<path d="M425.17 225.65L410.42 225.65M410.42 225.65L410.42 238.81M410.42 238.81L425.17 238.81M425.17 238.81L425.17 225.65"/>
<path d="M421.3 228.88L413.73 228.88M413.73 228.88L413.73 235.19M413.73 235.19L421.3 235.19M421.3 235.19L421.3 228.88"/>
<path d="M425.17 225.65L421.3 228.88"/>
<path d="M413.73 228.88L410.42 225.65"/>
<path d="M413.73 235.19L410.42 238.81"/>
<path d="M421.3 235.19L425.17 238.81"/>
<path d="M427.15 254.11L408.29 254.11M408.29 254.11L408.29 238.8M408.29 238.8L427.15 238.8M427.15 238.8L427.15 254.11"/>
<path d="M424.4 254.11L424.4 245.1M424.4 245.1L410.67 245.1M410.67 245.1L410.67 254.11"/>
<path d="M448.55 225.65L433.8 225.65M433.8 225.65L433.8 238.81M433.8 238.81L448.55 238.81M448.55 238.81L448.55 225.65"/>
<path d="M444.68 228.88L437.11 228.88M437.11 228.88L437.11 235.19M437.11 235.19L444.68 235.19M444.68 235.19L444.68 228.88"/>
<path d="M448.55 225.65L444.68 228.88"/>
<path d="M437.11 228.88L433.8 225.65"/>
<path d="M437.11 235.19L433.8 238.81"/>
<path d="M444.68 235.19L448.55 238.81"/>
<path d="M450.53 254.11L431.67 254.11M431.67 254.11L431.67 238.8M431.67 238.8L450.53 238.8M450.53 238.8L450.53 254.11"/>
<path d="M447.78 254.11L447.78 245.1M447.78 245.1L434.05 245.1M434.05 245.1L434.05 254.11"/>
<path d="M471.92 225.65L457.18 225.65M457.18 225.65L457.18 238.81M457.18 238.81L471.92 238.81M471.92 238.81L471.92 225.65"/>
<path d="M468.06 228.88L460.49 228.88M460.49 228.88L460.49 235.19M460.49 235.19L468.06 235.19M468.06 235.19L468.06 228.88"/>
<path d="M471.92 225.65L468.06 228.88"/>
<path d="M460.49 228.88L457.18 225.65"/>
<path d="M460.49 235.19L457.18 238.81"/>
<path d="M468.06 235.19L471.92 238.81"/>
<path d="M473.91 254.11L455.05 254.11M455.05 254.11L455.05 238.8M455.05 238.8L473.91 238.8M473.91 238.8L473.91 254.11"/>
<path d="M471.16 254.11L471.16 245.1M471.16 245.1L457.43 245.1M457.43 245.1L457.43 254.11"/>
<path d="M495.3 225.65L480.56 225.65M480.56 225.65L480.56 238.81M480.56 238.81L495.3 238.81M495.3 238.81L495.3 225.65"/>
<path d="M491.44 228.88L483.87 228.88M483.87 228.88L483.87 235.19M483.87 235.19L491.44 235.19M491.44 235.19L491.44 228.88"/>
<path d="M495.3 225.65L491.44 228.88"/>
<path d="M483.87 228.88L480.56 225.65"/>
<path d="M483.87 235.19L480.56 238.81"/>
<path d="M491.44 235.19L495.3 238.81"/>
<path d="M497.29 254.11L478.43 254.11M478.43 254.11L478.43 238.8M478.43 238.8L497.29 238.8M497.29 238.8L497.29 254.11"/>
<path d="M494.54 254.11L494.54 245.1M494.54 245.1L480.81 245.1M480.81 245.1L480.81 254.11"/>
<path d="M518.68 225.65L503.93 225.65M503.93 225.65L503.93 238.81M503.93 238.81L518.68 238.81M518.68 238.81L518.68 225.65"/>
<path d="M514.82 228.88L507.25 228.88M507.25 228.88L507.25 235.19M507.25 235.19L514.82 235.19M514.82 235.19L514.82 228.88"/>
<path d="M518.68 225.65L514.82 228.88"/>
<path d="M507.25 228.88L503.93 225.65"/>
<path d="M507.25 235.19L503.93 238.81"/>
<path d="M514.82 235.19L518.68 238.81"/>
<path d="M520.66 254.11L501.81 254.11M501.81 254.11L501.81 238.8M501.81 238.8L520.66 238.8M520.66 238.8L520.66 254.11"/>
<path d="M517.92 254.11L517.92 245.1M517.92 245.1L504.19 245.1M504.19 245.1L504.19 254.11"/>
<path d="M542.06 225.65L527.31 225.65M527.31 225.65L527.31 238.81M527.31 238.81L542.06 238.81M542.06 238.81L542.06 225.65"/>
<path d="M538.2 228.88L530.63 228.88M530.63 228.88L530.63 235.19M530.63 235.19L538.2 235.19M538.2 235.19L538.2 228.88"/>
<path d="M542.06 225.65L538.2 228.88"/>
<path d="M530.63 228.88L527.31 225.65"/>
<path d="M530.63 235.19L527.31 238.81"/>
<path d="M538.2 235.19L542.06 238.81"/>
<path d="M544.04 254.11L525.19 254.11M525.19 254.11L525.19 238.8M525.19 238.8L544.04 238.8M544.04 238.8L544.04 254.11"/>
<path d="M541.29 254.11L541.29 245.1M541.29 245.1L527.57 245.1M527.57 245.1L527.57 254.11"/>
<path d="M387.81 151.57L378.52 151.57M378.52 151.57L378.52 151.57M378.52 151.57L377.25 152.09M377.25 152.09L376.73 153.36M376.73 153.36L376.73 215.05M376.73 215.05L376.73 215.05M376.73 215.05L377.25 216.32M377.25 216.32L378.52 216.84M378.52 216.84L387.81 216.84M387.81 216.84L387.81 216.84M387.81 216.84L389.08 216.32M389.08 216.32L389.6 215.05M389.6 215.05L389.6 153.36M389.6 153.36L389.6 153.36M389.6 153.36L389.08 152.09M389.08 152.09L387.81 151.57"/>
<path d="M389.6 162.35L376.73 162.35"/>
<path d="M451.97 162.85L398.21 162.85M398.21 162.85L398.21 193.93M398.21 193.93L451.97 193.93M451.97 193.93L451.97 162.85"/>
<path d="M418.23 172.6L406.05 172.6M406.05 172.6L406.05 184.4M406.05 184.4L413.16 184.4"/>
<path d="M437.92 184.4L444.99 184.4M444.99 184.4L444.99 172.6M444.99 172.6L433.1 172.6"/>
<path d="M437.92 181.99L413.16 181.99M413.16 181.99L413.16 202.09M413.16 202.09L437.92 202.09M437.92 202.09L437.92 181.99"/>
<path d="M406.05 172.6L398.21 162.85"/>
<path d="M406.05 184.4L398.21 193.93"/>
<path d="M444.99 184.4L451.97 193.93"/>
<path d="M444.99 172.6L451.97 162.85"/>
<path d="M433.1 172.6L433.1 168.73M433.1 168.73L418.23 168.73M418.23 168.73L418.23 172.6"/>
<path d="M393.91 150.69L398.21 162.85"/>
<path d="M395.91 197.2L395.91 220.04"/>
<path d="M395.91 220.04L549.87 220.04"/>
<path d="M547.57 162.85L493.8 162.85M493.8 162.85L493.8 193.93M493.8 193.93L547.57 193.93M547.57 193.93L547.57 162.85"/>
<path d="M513.83 172.6L501.65 172.6M501.65 172.6L501.65 184.4M501.65 184.4L508.76 184.4"/>
<path d="M533.52 184.4L540.58 184.4M540.58 184.4L540.58 172.6M540.58 172.6L528.7 172.6"/>
<path d="M533.52 181.99L508.76 181.99M508.76 181.99L508.76 202.09M508.76 202.09L533.52 202.09M533.52 202.09L533.52 181.99"/>
<path d="M501.65 172.6L493.8 162.85"/>
<path d="M501.65 184.4L493.8 193.93"/>
<path d="M540.58 184.4L547.57 193.93"/>
<path d="M540.58 172.6L547.57 162.85"/>
<path d="M528.7 172.6L528.7 168.73M528.7 168.73L513.83 168.73M513.83 168.73L513.83 172.6"/>
<path d="M436.88 202.09L436.88 216.32"/>
<path d="M436.88 216.32L452.15 216.32"/>
<path d="M452.15 216.32L452.15 202.09"/>
<path d="M437.92 202.09L462.2 202.09"/>
<path d="M462.2 162.85L462.2 216.32"/>
<path d="M462.2 216.32L452.15 216.32"/>
<path d="M414.2 202.09L414.2 216.32"/>
<path d="M414.2 216.32L398.94 216.32"/>
<path d="M398.94 216.32L398.94 202.09"/>
<path d="M413.16 202.09L398.94 202.09"/>
<path d="M395.91 197.2L396.95 199.94M396.95 199.94L398.94 202.09"/>
<path d="M398.94 216.32L395.91 220.04"/>
<path d="M436.88 216.32L414.2 216.32"/>
<path d="M549.87 197.2L549.87 220.04"/>
<path d="M508.9 202.09L508.9 216.32"/>
<path d="M508.9 216.32L493.63 216.32"/>
<path d="M493.63 216.32L493.63 202.09"/>
<path d="M507.86 202.09L483.57 202.09"/>
<path d="M483.57 162.85L483.57 216.32"/>
<path d="M483.57 216.32L493.63 216.32"/>
<path d="M531.57 202.09L531.57 216.32"/>
<path d="M531.57 216.32L546.84 216.32"/>
<path d="M546.84 216.32L546.84 202.09"/>
<path d="M532.61 202.09L546.84 202.09"/>
<path d="M546.84 202.09L548.83 199.94M548.83 199.94L549.87 197.2"/>
<path d="M546.84 216.32L549.87 220.04"/>
<path d="M508.9 216.32L531.57 216.32"/>
<path d="M483.57 216.32L462.2 216.32"/>
<path d="M483.57 162.85L482.14 157.5M482.14 157.5L478.23 153.59M478.23 153.59L472.89 152.16M472.89 152.16L467.55 153.59M467.55 153.59L463.63 157.5M463.63 157.5L462.2 162.85"/>
<path d="M586.02 177.47L588.16 176.4M588.16 176.4L591.36 173.2M591.36 173.2L591.36 195.6"/>
<path d="M34.29 173.2L23.62 188.13M23.62 188.13L39.62 188.13M34.29 173.2L34.29 195.6"/>
<path d="M596.35 232.12L585.69 232.12M585.69 232.12L584.62 241.72M584.62 241.72L585.69 240.66M585.69 240.66L588.89 239.59M588.89 239.59L592.09 239.59M592.09 239.59L595.29 240.66M595.29 240.66L597.42 242.79M597.42 242.79L598.49 245.99M598.49 245.99L598.49 248.12M598.49 248.12L597.42 251.32M597.42 251.32L595.29 253.45M595.29 253.45L592.09 254.52M592.09 254.52L588.89 254.52M588.89 254.52L585.69 253.45M585.69 253.45L584.62 252.39M584.62 252.39L583.55 250.26"/>
<path d="M2.57 237.46L2.57 236.39M2.57 236.39L3.64 234.26M3.64 234.26L4.7 233.19M4.7 233.19L6.84 232.12M6.84 232.12L11.1 232.12M11.1 232.12L13.23 233.19M13.23 233.19L14.3 234.26M14.3 234.26L15.37 236.39M15.37 236.39L15.37 238.52M15.37 238.52L14.3 240.66M14.3 240.66L12.17 243.86M12.17 243.86L1.5 254.52M1.5 254.52L16.43 254.52M33.5 232.12L22.83 247.06M22.83 247.06L38.83 247.06M33.5 232.12L33.5 254.52"/>
<path d="M283.36 280.04L283.36 264.43"/>
<path d="M285.15 262.64L311.95 262.64"/>
<path d="M285.15 262.64L283.88 263.16M283.88 263.16L283.36 264.43"/>
<path d="M311.95 271.65L303.99 271.65M303.99 271.65L303.99 262.64"/>
<path d="M166.46 280.04L166.46 264.43M166.46 264.43L166.46 264.43M166.46 264.43L166.98 263.16M166.98 263.16L168.25 262.64M168.25 262.64L274.52 262.64M274.52 262.64L274.52 262.64M274.52 262.64L275.79 263.16M275.79 263.16L276.31 264.43M276.31 264.43L276.31 280.04"/>
<path d="M224.17 262.64L224.17 271.65M224.17 271.65L208.4 271.65M208.4 271.65L208.4 262.64"/>
<path d="M534.29 280.04L534.29 262.64M534.29 262.64L466.27 262.64M466.27 262.64L466.27 262.64M466.27 262.64L465 263.16M465 263.16L464.48 264.43M464.48 264.43L464.48 280.04"/>
<path d="M518.74 271.65L534.29 271.65M534.29 271.65L534.29 262.64M534.29 262.64L518.74 262.64M518.74 262.64L518.74 271.65"/>
<path d="M457.43 280.04L457.43 264.43M457.43 264.43L457.43 264.43M457.43 264.43L456.91 263.16M456.91 263.16L455.64 262.64M455.64 262.64L349.37 262.64M349.37 262.64L349.37 262.64M349.37 262.64L348.11 263.16M348.11 263.16L347.58 264.43M347.58 264.43L347.58 280.04"/>
<path d="M399.72 262.64L399.72 271.65M399.72 271.65L415.49 271.65M415.49 271.65L415.49 262.64"/>
</g>
</g>
</svg>
