<?xml version="1.0" standalone="no"?><svg xmlns="http://www.w3.org/2000/svg" width="600.000" height="450.000" viewBox="0.0 0.0 600.000 450.000" version="1.1">
<title>Acme Converter - Post-processed with EDS-Designer: 14.44 (info@symca.com)</title>
<desc>Acme Converter - Post-processed with EDS-Designer: 14.44 (info@symca.com)</desc>
<g id="EDS_STYLE_GROUP" fill="none" stroke="black" stroke-width="1.0">
<g id="0" display="visible">
<path d="M218.94 389.4L218.94 362.4M220.23 362.4L220.23 389.4M215.09 362.4L230.52 362.4M230.52 362.4L234.38 363.68M234.38 363.68L235.66 364.97M235.66 364.97L236.95 367.54M236.95 367.54L236.95 370.11M236.95 370.11L235.66 372.69M235.66 372.69L234.38 373.97M234.38 373.97L230.52 375.26M230.52 362.4L233.09 363.68M233.09 363.68L234.38 364.97M234.38 364.97L235.66 367.54M235.66 367.54L235.66 370.11M235.66 370.11L234.38 372.69M234.38 372.69L233.09 373.97M233.09 373.97L230.52 375.26M220.23 375.26L230.52 375.26M230.52 375.26L234.38 376.54M234.38 376.54L235.66 377.83M235.66 377.83L236.95 380.4M236.95 380.4L236.95 384.26M236.95 384.26L235.66 386.83M235.66 386.83L234.38 388.12M234.38 388.12L230.52 389.4M230.52 389.4L215.09 389.4M230.52 375.26L233.09 376.54M233.09 376.54L234.38 377.83M234.38 377.83L235.66 380.4M235.66 380.4L235.66 384.26M235.66 384.26L234.38 386.83M234.38 386.83L233.09 388.12M233.09 388.12L230.52 389.4M247.23 389.4L247.23 362.4M248.52 362.4L248.52 389.4M243.38 362.4L252.38 362.4M243.38 389.4L262.67 389.4M262.67 389.4L262.67 381.69M262.67 381.69L261.38 389.4M278.1 362.4L269.1 389.4M278.1 362.4L287.1 389.4M278.1 366.26L285.81 389.4M271.67 381.69L283.24 381.69M266.52 389.4L274.24 389.4M281.96 389.4L289.67 389.4M311.53 366.26L312.82 370.11M312.82 370.11L312.82 362.4M312.82 362.4L311.53 366.26M311.53 366.26L308.96 363.68M308.96 363.68L305.1 362.4M305.1 362.4L302.53 362.4M302.53 362.4L298.67 363.68M298.67 363.68L296.1 366.26M296.1 366.26L294.81 368.83M294.81 368.83L293.53 372.69M293.53 372.69L293.53 379.12M293.53 379.12L294.81 382.97M294.81 382.97L296.1 385.55M296.1 385.55L298.67 388.12M298.67 388.12L302.53 389.4M302.53 389.4L305.1 389.4M305.1 389.4L308.96 388.12M308.96 388.12L311.53 385.55M311.53 385.55L312.82 382.97M302.53 362.4L299.96 363.68M299.96 363.68L297.39 366.26M297.39 366.26L296.1 368.83M296.1 368.83L294.81 372.69M294.81 372.69L294.81 379.12M294.81 379.12L296.1 382.97M296.1 382.97L297.39 385.55M297.39 385.55L299.96 388.12M299.96 388.12L302.53 389.4M324.39 389.4L324.39 362.4M325.68 362.4L325.68 389.4M342.39 362.4L325.68 379.12M332.11 373.97L342.39 389.4M330.82 373.97L341.11 389.4M320.53 362.4L329.54 362.4M337.25 362.4L344.97 362.4M320.53 389.4L329.54 389.4M337.25 389.4L344.97 389.4"/>
<path d="M89.35 200.59L89.35 314.65"/>
<path d="M89.35 314.65L89.35 322.43"/>
<path d="M96.83 195.11L96.83 307.17"/>
<path d="M102.31 314.65L102.31 335.39"/>
<path d="M111.39 209.66L111.39 256.32"/>
<path d="M125.65 223.92L125.65 242.06"/>
<path d="M143.79 242.06L143.79 223.92"/>
<path d="M496.37 335.39L102.31 335.39"/>
<path d="M89.35 322.43L509.33 322.43"/>
<path d="M93.15 191.42L96.83 195.11"/>
<path d="M143.79 242.06L158.05 256.32"/>
<path d="M125.65 223.92L111.39 209.66"/>
<path d="M158.05 256.32L158.05 209.66"/>
<path d="M333.04 314.65L102.31 314.65"/>
<path d="M374.52 314.65L496.37 314.65"/>
<path d="M333.04 313.36L374.52 313.36"/>
<path d="M96.83 307.17L325.56 307.17"/>
<path d="M382.01 307.17L501.85 307.17"/>
<path d="M177.24 209.66L177.24 256.32"/>
<path d="M191.49 223.92L191.49 242.06"/>
<path d="M333.04 300.4L374.52 300.4"/>
<path d="M382.01 293.91L374.52 293.91"/>
<path d="M325.56 293.91L333.04 293.91"/>
<path d="M206.01 187.62L206.01 73.55"/>
<path d="M209.64 242.06L209.64 223.92"/>
<path d="M125.65 242.06L111.39 256.32"/>
<path d="M143.79 223.92L158.05 209.66"/>
<path d="M209.64 242.06L223.9 256.32"/>
<path d="M191.49 223.92L177.24 209.66"/>
<path d="M213.5 195.11L213.5 122.52"/>
<path d="M218.97 115.03L218.97 60.59"/>
<path d="M223.9 256.32L223.9 209.66"/>
<path d="M111.39 256.32L158.05 256.32"/>
<path d="M177.24 256.32L223.9 256.32"/>
<path d="M243.08 256.32L289.75 256.32"/>
<path d="M308.93 256.32L355.6 256.32"/>
<path d="M374.78 256.32L421.45 256.32"/>
<path d="M440.63 256.32L487.3 256.32"/>
<path d="M231.94 195.11L231.94 91.7"/>
<path d="M243.08 209.66L243.08 256.32"/>
<path d="M125.65 242.06L143.79 242.06"/>
<path d="M191.49 242.06L209.64 242.06"/>
<path d="M257.34 242.06L275.49 242.06"/>
<path d="M323.19 242.06L341.34 242.06"/>
<path d="M389.04 242.06L407.19 242.06"/>
<path d="M454.89 242.06L473.04 242.06"/>
<path d="M333.04 314.65L325.56 307.17"/>
<path d="M213.5 195.11L206.01 187.62"/>
<path d="M275.49 242.06L289.75 256.32"/>
<path d="M257.34 223.92L243.08 209.66"/>
<path d="M260.1 187.62L260.12 187.88"/>
<path d="M252.68 73.55L252.68 187.62"/>
<path d="M257.34 223.92L257.34 242.06"/>
<path d="M260.12 143.76L260.12 187.88"/>
<path d="M191.49 242.06L177.24 256.32"/>
<path d="M209.64 223.92L223.9 209.66"/>
<path d="M473.04 223.92L454.89 223.92"/>
<path d="M407.19 223.92L389.04 223.92"/>
<path d="M341.34 223.92L323.19 223.92"/>
<path d="M275.49 223.92L257.34 223.92"/>
<path d="M209.64 223.92L191.49 223.92"/>
<path d="M143.79 223.92L125.65 223.92"/>
<path d="M265.64 60.59L265.64 73.55"/>
<path d="M273.07 176.57L273.07 195.11"/>
<path d="M275.49 242.06L275.49 223.92"/>
<path d="M487.3 209.66L440.63 209.66"/>
<path d="M421.45 209.66L374.78 209.66"/>
<path d="M355.6 209.66L308.93 209.66"/>
<path d="M289.75 209.66L243.08 209.66"/>
<path d="M223.9 209.66L177.24 209.66"/>
<path d="M158.05 209.66L111.39 209.66"/>
<path d="M288.97 98.09L288.97 117.33"/>
<path d="M289.75 256.32L289.75 209.66"/>
<path d="M257.34 242.06L243.08 256.32"/>
<path d="M275.49 223.92L289.75 209.66"/>
<path d="M540.74 195.11L385.19 195.11"/>
<path d="M366.75 195.11L325.61 195.11"/>
<path d="M273.07 195.11L231.94 195.11"/>
<path d="M213.5 195.11L96.83 195.11"/>
<path d="M543.03 187.62L392.67 187.62"/>
<path d="M206.01 187.62L102.31 187.62"/>
<path d="M231.94 187.62L260.1 187.62"/>
<path d="M338.58 187.62L366.75 187.62"/>
<path d="M209.81 118.83L213.5 122.52"/>
<path d="M341.34 242.06L355.6 256.32"/>
<path d="M323.19 223.92L308.93 209.66"/>
<path d="M252.68 115.03L258.95 127.43"/>
<path d="M308.93 209.66L308.93 256.32"/>
<path d="M309.71 98.09L309.71 117.33"/>
<path d="M346.01 115.03L339.73 127.43"/>
<path d="M385.19 122.52L388.87 118.83"/>
<path d="M325.61 176.57L273.07 176.57"/>
<path d="M323.19 223.92L323.19 242.06"/>
<path d="M325.56 307.17L325.56 293.91"/>
<path d="M325.61 195.11L325.61 176.57"/>
<path d="M333.04 314.65L333.04 293.91"/>
<path d="M333.04 73.55L333.04 60.59"/>
<path d="M338.57 187.88L338.57 143.76"/>
<path d="M341.34 242.06L341.34 223.92"/>
<path d="M346.01 73.55L346.01 187.62"/>
<path d="M338.57 187.88L338.58 187.62"/>
<path d="M323.19 242.06L308.93 256.32"/>
<path d="M341.34 223.92L355.6 209.66"/>
<path d="M392.67 187.62L385.19 195.11"/>
<path d="M339.73 127.43L258.95 127.43"/>
<path d="M389.04 223.92L374.78 209.66"/>
<path d="M407.19 242.06L421.45 256.32"/>
<path d="M355.6 256.32L355.6 209.66"/>
<path d="M366.75 195.11L366.75 91.7"/>
<path d="M385.19 122.52L366.75 122.52"/>
<path d="M231.94 122.52L213.5 122.52"/>
<path d="M288.97 117.33L309.71 117.33"/>
<path d="M379.71 115.03L366.75 115.03"/>
<path d="M346.01 115.03L309.71 115.03"/>
<path d="M288.97 115.03L252.68 115.03"/>
<path d="M231.94 115.03L218.97 115.03"/>
<path d="M505.54 310.86L501.85 307.17"/>
<path d="M374.52 293.91L374.52 314.65"/>
<path d="M374.78 209.66L374.78 256.32"/>
<path d="M379.71 60.59L379.71 115.03"/>
<path d="M382.01 293.91L382.01 307.17"/>
<path d="M385.19 122.52L385.19 195.11"/>
<path d="M389.04 223.92L389.04 242.06"/>
<path d="M389.04 242.06L374.78 256.32"/>
<path d="M407.19 223.92L421.45 209.66"/>
<path d="M392.67 102.07L366.75 102.07"/>
<path d="M206.01 102.07L231.94 102.07"/>
<path d="M346.01 98.09L309.71 98.09"/>
<path d="M288.97 98.09L252.68 98.09"/>
<path d="M346.01 89.11L252.68 89.11"/>
<path d="M454.89 223.92L440.63 209.66"/>
<path d="M473.04 242.06L487.3 256.32"/>
<path d="M392.67 73.55L392.67 187.62"/>
<path d="M237.12 86.52L252.68 86.52"/>
<path d="M346.01 86.52L361.56 86.52"/>
<path d="M206.01 73.55L392.67 73.55"/>
<path d="M407.19 242.06L407.19 223.92"/>
<path d="M421.45 256.32L421.45 209.66"/>
<path d="M218.97 60.59L379.71 60.59"/>
<path d="M440.63 209.66L440.63 256.32"/>
<path d="M374.52 314.65L382.01 307.17"/>
<path d="M454.89 242.06L440.63 256.32"/>
<path d="M473.04 223.92L487.3 209.66"/>
<path d="M454.89 223.92L454.89 242.06"/>
<path d="M473.04 242.06L473.04 223.92"/>
<path d="M487.3 256.32L487.3 209.66"/>
<path d="M496.37 314.65L496.37 335.39"/>
<path d="M501.85 307.17L501.85 208.66"/>
<path d="M509.33 322.43L509.33 216.14"/>
<path d="M382.01 293.91L380.3 284.26M380.3 284.26L375.4 275.77M375.4 275.77L367.9 269.47M367.9 269.47L358.68 266.12M358.68 266.12L348.88 266.12M348.88 266.12L339.67 269.47M339.67 269.47L332.16 275.77M332.16 275.77L327.26 284.26M327.26 284.26L325.56 293.91"/>
<path d="M374.52 293.91L372.94 285.98M372.94 285.98L368.45 279.25M368.45 279.25L361.72 274.75M361.72 274.75L353.78 273.17M353.78 273.17L345.85 274.75M345.85 274.75L339.12 279.25M339.12 279.25L334.62 285.98M334.62 285.98L333.04 293.91"/>
<path d="M89.35 322.43L91.09 328.91M91.09 328.91L95.83 333.66M95.83 333.66L102.31 335.39"/>
<path d="M496.37 335.39L502.85 333.66M502.85 333.66L507.6 328.91M507.6 328.91L509.33 322.43"/>
<path d="M392.67 73.55L390.93 67.07M390.93 67.07L386.19 62.33M386.19 62.33L379.71 60.59"/>
<path d="M218.97 60.59L212.49 62.33M212.49 62.33L207.75 67.07M207.75 67.07L206.01 73.55"/>
<path d="M265.64 60.59L259.16 62.33M259.16 62.33L254.41 67.07M254.41 67.07L252.68 73.55"/>
<path d="M346.01 73.55L344.27 67.07M344.27 67.07L339.52 62.33M339.52 62.33L333.04 60.59"/>
<path d="M102.31 187.62L95.83 189.36M95.83 189.36L91.09 194.1M91.09 194.1L89.35 200.59"/>
<path d="M218.97 115.03L212.49 116.77M212.49 116.77L207.75 121.51M207.75 121.51L206.01 128"/>
<path d="M496.37 314.65L502.85 312.92M502.85 312.92L507.6 308.17M507.6 308.17L509.33 301.69"/>
<path d="M392.67 128L390.93 121.51M390.93 121.51L386.19 116.77M386.19 116.77L379.71 115.03"/>
<path d="M366.75 91.7L365.23 88.04M365.23 88.04L361.56 86.52"/>
<path d="M237.12 86.52L233.46 88.04M233.46 88.04L231.94 91.7"/>
<path d="M338.57 143.76L338.54 144.32M338.54 144.32L338.5 144.87M338.5 144.87L338.44 145.42M338.44 145.42L338.37 145.97M338.37 145.97L338.28 146.52M338.28 146.52L338.19 147.07M338.19 147.07L338.08 147.61M338.08 147.61L337.96 148.15M337.96 148.15L337.83 148.69M337.83 148.69L337.7 149.23M337.7 149.23L337.56 149.77M337.56 149.77L337.41 150.3M337.41 150.3L337.09 151.36M337.09 151.36L336.75 152.42M336.75 152.42L336.38 153.47M336.38 153.47L336 154.51M336 154.51L335.61 155.54M335.61 155.54L335.2 156.57M335.2 156.57L334.78 157.6M334.78 157.6L334.35 158.62M334.35 158.62L333.9 159.64M333.9 159.64L333.45 160.65M333.45 160.65L333 161.66M333 161.66L332.53 162.67M332.53 162.67L331.58 164.67M331.58 164.67L330.62 166.67M330.62 166.67L329.63 168.66M329.63 168.66L328.64 170.64M328.64 170.64L327.63 172.62M327.63 172.62L325.61 176.57"/>
<path d="M338.57 187.88L338.54 188.13M338.54 188.13L338.51 188.38M338.51 188.38L338.46 188.63M338.46 188.63L338.39 188.87M338.39 188.87L338.32 189.11M338.32 189.11L338.23 189.35M338.23 189.35L338.12 189.58M338.12 189.58L338.01 189.8M338.01 189.8L337.89 190.02M337.89 190.02L337.76 190.24M337.76 190.24L337.62 190.44M337.62 190.44L337.47 190.65M337.47 190.65L337.31 190.84M337.31 190.84L337.15 191.03M337.15 191.03L336.98 191.22M336.98 191.22L336.8 191.4M336.8 191.4L336.62 191.57M336.62 191.57L336.43 191.74M336.43 191.74L336.05 192.06M336.05 192.06L335.64 192.36M335.64 192.36L335.23 192.64M335.23 192.64L334.8 192.9M334.8 192.9L334.36 193.15M334.36 193.15L333.91 193.37M333.91 193.37L333.45 193.58M333.45 193.58L332.99 193.78M332.99 193.78L332.52 193.96M332.52 193.96L332.04 194.12M332.04 194.12L331.56 194.27M331.56 194.27L331.08 194.41M331.08 194.41L330.59 194.53M330.59 194.53L330.1 194.64M330.1 194.64L329.61 194.74M329.61 194.74L329.12 194.83M329.12 194.83L328.62 194.9M328.62 194.9L328.12 194.97M328.12 194.97L327.62 195.02M327.62 195.02L327.12 195.06M327.12 195.06L326.62 195.08M326.62 195.08L326.11 195.1M326.11 195.1L325.61 195.11"/>
<path d="M273.07 195.11L272.57 195.1M272.57 195.1L272.07 195.08M272.07 195.08L271.56 195.06M271.56 195.06L271.06 195.02M271.06 195.02L270.56 194.97M270.56 194.97L270.06 194.9M270.06 194.9L269.57 194.83M269.57 194.83L269.07 194.74M269.07 194.74L268.58 194.64M268.58 194.64L268.09 194.53M268.09 194.53L267.6 194.41M267.6 194.41L267.12 194.27M267.12 194.27L266.64 194.12M266.64 194.12L266.16 193.96M266.16 193.96L265.69 193.78M265.69 193.78L265.23 193.58M265.23 193.58L264.77 193.37M264.77 193.37L264.32 193.15M264.32 193.15L263.88 192.9M263.88 192.9L263.46 192.64M263.46 192.64L263.04 192.36M263.04 192.36L262.63 192.06M262.63 192.06L262.25 191.74M262.25 191.74L262.06 191.57M262.06 191.57L261.88 191.4M261.88 191.4L261.7 191.22M261.7 191.22L261.53 191.03M261.53 191.03L261.37 190.84M261.37 190.84L261.21 190.65M261.21 190.65L261.06 190.44M261.06 190.44L260.92 190.24M260.92 190.24L260.79 190.02M260.79 190.02L260.67 189.8M260.67 189.8L260.56 189.58M260.56 189.58L260.46 189.35M260.46 189.35L260.37 189.11M260.37 189.11L260.29 188.87M260.29 188.87L260.23 188.63M260.23 188.63L260.18 188.38M260.18 188.38L260.14 188.13M260.14 188.13L260.12 187.88"/>
<path d="M260.12 143.76L260.14 144.32M260.14 144.32L260.19 144.87M260.19 144.87L260.24 145.42M260.24 145.42L260.32 145.97M260.32 145.97L260.4 146.52M260.4 146.52L260.5 147.07M260.5 147.07L260.6 147.61M260.6 147.61L260.72 148.15M260.72 148.15L260.85 148.69M260.85 148.69L260.98 149.23M260.98 149.23L261.13 149.77M261.13 149.77L261.28 150.3M261.28 150.3L261.59 151.36M261.59 151.36L261.94 152.42M261.94 152.42L262.3 153.47M262.3 153.47L262.68 154.51M262.68 154.51L263.07 155.54M263.07 155.54L263.48 156.57M263.48 156.57L263.9 157.6M263.9 157.6L264.34 158.62M264.34 158.62L264.78 159.64M264.78 159.64L265.23 160.65M265.23 160.65L265.69 161.66M265.69 161.66L266.15 162.67M266.15 162.67L267.1 164.67M267.1 164.67L268.07 166.67M268.07 166.67L269.05 168.66M269.05 168.66L270.05 170.64M270.05 170.64L271.05 172.62M271.05 172.62L273.07 176.57"/>
<path d="M333.04 73.55L333.04 89.11"/>
<path d="M265.64 73.55L265.64 89.11"/>
<path d="M339.73 127.43L339.3 129.91M339.3 129.91L338.9 135.48M338.9 135.48L338.57 143.76"/>
<path d="M260.12 143.76L259.78 135.48M259.78 135.48L259.38 129.91M259.38 129.91L258.95 127.43"/>
<path d="M527 229.69L529.06 228.66M529.06 228.66L532.14 225.57M532.14 225.57L532.14 247.18"/>
<path d="M64.1 228.66L63.07 226.6M63.07 226.6L59.99 225.57M59.99 225.57L57.93 225.57M57.93 225.57L54.84 226.6M54.84 226.6L52.78 229.69M52.78 229.69L51.76 234.83M51.76 234.83L51.76 239.98M51.76 239.98L52.78 244.09M52.78 244.09L54.84 246.15M54.84 246.15L57.93 247.18M57.93 247.18L58.96 247.18M58.96 247.18L62.04 246.15M62.04 246.15L64.1 244.09M64.1 244.09L65.13 241M65.13 241L65.13 239.98M65.13 239.98L64.1 236.89M64.1 236.89L62.04 234.83M62.04 234.83L58.96 233.8M58.96 233.8L57.93 233.8M57.93 233.8L54.84 234.83M54.84 234.83L52.78 236.89M52.78 236.89L51.76 239.98"/>
<path d="M548.22 210.96L548.22 192.81"/>
<path d="M540.74 208.66L540.74 195.11"/>
<path d="M546.7 214.62L540.74 208.66"/>
<path d="M509.33 216.14L501.85 208.66"/>
<path d="M501.85 208.66L540.74 208.66"/>
<path d="M509.33 216.14L543.03 216.14"/>
<path d="M546.7 189.14L540.74 195.11"/>
<path d="M543.03 216.14L546.7 214.62M546.7 214.62L548.22 210.96"/>
<path d="M548.22 192.81L547.52 190.22M547.52 190.22L545.63 188.32M545.63 188.32L543.03 187.62"/>
<path d="M93.15 310.86L96.83 307.17"/>
<path d="M89.35 301.69L91.09 308.17M91.09 308.17L95.83 312.92M95.83 312.92L102.31 314.65"/>
</g>
</g>
</svg>
