<?xml version="1.0" standalone="no"?><svg xmlns="http://www.w3.org/2000/svg" width="600.000" height="450.000" viewBox="0.0 0.0 600.000 450.000" version="1.1">
<title>Acme Converter - Post-processed with EDS-Designer: 14.44 (info@symca.com)</title>
<desc>Acme Converter - Post-processed with EDS-Designer: 14.44 (info@symca.com)</desc>
<g id="EDS_STYLE_GROUP" fill="none" stroke="black" stroke-width="1.0">
<g id="0" display="visible">
<path d="M249.94 389.41L249.94 365.65M251.07 365.65L251.07 389.41M246.55 365.65L260.12 365.65M260.12 365.65L263.52 366.78M263.52 366.78L264.65 367.91M264.65 367.91L265.78 370.18M265.78 370.18L265.78 372.44M265.78 372.44L264.65 374.7M264.65 374.7L263.52 375.83M263.52 375.83L260.12 376.97M260.12 365.65L262.39 366.78M262.39 366.78L263.52 367.91M263.52 367.91L264.65 370.18M264.65 370.18L264.65 372.44M264.65 372.44L263.52 374.7M263.52 374.7L262.39 375.83M262.39 375.83L260.12 376.97M251.07 376.97L260.12 376.97M260.12 376.97L263.52 378.1M263.52 378.1L264.65 379.23M264.65 379.23L265.78 381.49M265.78 381.49L265.78 384.89M265.78 384.89L264.65 387.15M264.65 387.15L263.52 388.28M263.52 388.28L260.12 389.41M260.12 389.41L246.55 389.41M260.12 376.97L262.39 378.1M262.39 378.1L263.52 379.23M263.52 379.23L264.65 381.49M264.65 381.49L264.65 384.89M264.65 384.89L263.52 387.15M263.52 387.15L262.39 388.28M262.39 388.28L260.12 389.41M274.83 389.41L274.83 365.65M275.96 365.65L275.96 389.41M271.44 365.65L279.36 365.65M271.44 389.41L288.41 389.41M288.41 389.41L288.41 382.62M288.41 382.62L287.28 389.41M301.99 365.65L294.07 389.41M301.99 365.65L309.91 389.41M301.99 369.05L308.77 389.41M296.33 382.62L306.51 382.62M291.8 389.41L298.59 389.41M305.38 389.41L312.17 389.41M331.4 369.05L332.53 372.44M332.53 372.44L332.53 365.65M332.53 365.65L331.4 369.05M331.4 369.05L329.14 366.78M329.14 366.78L325.75 365.65M325.75 365.65L323.48 365.65M323.48 365.65L320.09 366.78M320.09 366.78L317.83 369.05M317.83 369.05L316.69 371.31M316.69 371.31L315.56 374.7M315.56 374.7L315.56 380.36M315.56 380.36L316.69 383.75M316.69 383.75L317.83 386.02M317.83 386.02L320.09 388.28M320.09 388.28L323.48 389.41M323.48 389.41L325.75 389.41M325.75 389.41L329.14 388.28M329.14 388.28L331.4 386.02M331.4 386.02L332.53 383.75M323.48 365.65L321.22 366.78M321.22 366.78L318.96 369.05M318.96 369.05L317.83 371.31M317.83 371.31L316.69 374.7M316.69 374.7L316.69 380.36M316.69 380.36L317.83 383.75M317.83 383.75L318.96 386.02M318.96 386.02L321.22 388.28M321.22 388.28L323.48 389.41M342.72 389.41L342.72 365.65M343.85 365.65L343.85 389.41M358.56 365.65L343.85 380.36M349.51 375.83L358.56 389.41M348.37 375.83L357.43 389.41M339.32 365.65L347.24 365.65M354.03 365.65L360.82 365.65M339.32 389.41L347.24 389.41M354.03 389.41L360.82 389.41"/>
<path d="M161.01 229.75L161.01 244.95"/>
<path d="M166.72 229.75L166.72 244.95"/>
<path d="M257.95 341.89L349.19 341.89"/>
<path d="M257.95 336.19L349.19 336.19"/>
<path d="M181.92 244.95L181.92 229.75"/>
<path d="M276.45 330.73L330.69 330.73"/>
<path d="M257.95 320.98L349.19 320.98"/>
<path d="M252.9 320.82L273.16 330.54"/>
<path d="M252.49 320.79L271.44 330.51"/>
<path d="M257.95 320.98L276.45 330.73"/>
<path d="M199.03 152.77L199.03 66.28"/>
<path d="M202.45 244.95L202.45 229.75"/>
<path d="M204.73 155.64L204.73 60.58"/>
<path d="M349.19 300.46L257.95 300.46"/>
<path d="M216.14 244.95L216.14 229.75"/>
<path d="M219.94 81.49L219.94 167.98"/>
<path d="M221.84 114.72L221.84 81.49"/>
<path d="M257.95 286.77L349.19 286.77"/>
<path d="M257.95 282.97L349.19 282.97"/>
<path d="M225.64 118.52L225.64 81.49"/>
<path d="M227.54 273.65L227.54 209.99"/>
<path d="M229.44 273.65L229.44 272.99"/>
<path d="M231.34 209.99L231.34 264.71"/>
<path d="M237.04 98.6L237.04 165.12"/>
<path d="M257.71 270.14L273.4 270.14"/>
<path d="M333.74 270.14L349.43 270.14"/>
<path d="M242.51 254.69L242.51 220.01"/>
<path d="M251.3 90.99L251.3 81.49"/>
<path d="M231.34 264.71L227.54 264.71"/>
<path d="M364.63 254.69L349.43 254.69"/>
<path d="M333.74 254.69L318.54 254.69"/>
<path d="M288.6 254.69L273.4 254.69"/>
<path d="M257.71 254.69L242.51 254.69"/>
<path d="M252.01 229.51L242.51 220.01"/>
<path d="M238.94 196.83L237.04 193.53"/>
<path d="M252.01 245.19L252.01 229.51"/>
<path d="M257.71 245.19L257.71 270.14"/>
<path d="M257.95 282.97L257.95 286.77"/>
<path d="M257.95 336.19L257.95 341.89"/>
<path d="M257.95 191.73L257.95 187.93"/>
<path d="M260.8 90.99L260.8 81.49"/>
<path d="M355.13 245.19L349.43 245.19"/>
<path d="M333.74 245.19L328.04 245.19"/>
<path d="M279.1 245.19L273.4 245.19"/>
<path d="M257.71 245.19L252.01 245.19"/>
<path d="M166.72 244.95L161.01 244.95"/>
<path d="M387.2 244.95L391.01 244.95"/>
<path d="M440.42 244.95L446.13 244.95"/>
<path d="M279.1 245.19L288.6 254.69"/>
<path d="M265.56 90.99L265.56 81.49"/>
<path d="M267.46 109.05L267.46 113.8"/>
<path d="M268.35 336.19L268.35 330.23"/>
<path d="M271.28 109.05L271.28 113.8"/>
<path d="M271.44 336.19L271.44 330.51"/>
<path d="M273.14 109.05L273.14 113.8"/>
<path d="M273.16 330.54L273.16 336.19"/>
<path d="M273.4 270.14L273.4 245.19"/>
<path d="M275.06 90.99L275.06 81.49"/>
<path d="M276.96 109.05L276.96 124.77"/>
<path d="M166.72 229.75L161.01 229.75"/>
<path d="M387.2 229.75L391.01 229.75"/>
<path d="M440.42 229.75L446.13 229.75"/>
<path d="M252.01 229.51L279.1 229.51"/>
<path d="M328.04 229.51L355.13 229.51"/>
<path d="M279.1 229.51L279.1 245.19"/>
<path d="M284.56 92.89L284.56 90.99"/>
<path d="M286.46 210.74L286.46 187.93"/>
<path d="M288.6 220.01L288.6 254.69"/>
<path d="M290.27 206.94L290.27 191.73"/>
<path d="M238.94 277.88L237.04 281.17"/>
<path d="M242.51 220.01L288.6 220.01"/>
<path d="M318.54 220.01L364.63 220.01"/>
<path d="M292.17 206.94L292.17 187.93"/>
<path d="M301.67 341.89L301.67 320.98"/>
<path d="M301.67 92.89L301.67 90.99"/>
<path d="M252.01 245.19L242.51 254.69"/>
<path d="M320.68 210.74L286.46 210.74"/>
<path d="M231.34 209.99L227.54 209.99"/>
<path d="M316.88 206.94L290.27 206.94"/>
<path d="M328.04 229.51L318.54 220.01"/>
<path d="M305.47 341.89L305.47 320.98"/>
<path d="M305.47 92.89L305.47 90.99"/>
<path d="M314.97 206.94L314.97 187.93"/>
<path d="M316.88 191.73L316.88 206.94"/>
<path d="M318.54 254.69L318.54 220.01"/>
<path d="M279.1 229.51L288.6 220.01"/>
<path d="M349.19 191.73L316.88 191.73"/>
<path d="M257.95 191.73L290.27 191.73"/>
<path d="M257.95 187.93L349.19 187.93"/>
<path d="M355.13 245.19L364.63 254.69"/>
<path d="M320.68 187.93L320.68 210.74"/>
<path d="M322.58 92.89L322.58 90.99"/>
<path d="M328.04 245.19L328.04 229.51"/>
<path d="M330.18 109.05L330.18 124.77"/>
<path d="M257.95 174.25L349.19 174.25"/>
<path d="M332.08 90.99L332.08 81.49"/>
<path d="M333.74 245.19L333.74 270.14"/>
<path d="M333.98 336.19L333.98 330.54"/>
<path d="M334 109.05L334 113.8"/>
<path d="M335.7 336.19L335.7 330.51"/>
<path d="M335.86 109.05L335.86 113.8"/>
<path d="M338.79 336.19L338.79 330.23"/>
<path d="M339.68 109.05L339.68 113.8"/>
<path d="M341.59 90.99L341.59 81.49"/>
<path d="M235.14 165.12L372 165.12"/>
<path d="M346.34 90.99L346.34 81.49"/>
<path d="M349.19 282.97L349.19 286.77"/>
<path d="M349.19 336.19L349.19 341.89"/>
<path d="M349.19 191.73L349.19 187.93"/>
<path d="M349.43 270.14L349.43 245.19"/>
<path d="M355.13 229.51L355.13 245.19"/>
<path d="M355.84 90.99L355.84 81.49"/>
<path d="M328.04 245.19L318.54 254.69"/>
<path d="M237.04 154.67L370.1 154.67"/>
<path d="M364.63 220.01L364.63 254.69"/>
<path d="M370.1 98.6L370.1 165.12"/>
<path d="M355.13 229.51L364.63 220.01"/>
<path d="M237.04 143.34L370.1 143.34"/>
<path d="M381.5 118.52L381.5 81.49"/>
<path d="M385.3 114.72L385.3 81.49"/>
<path d="M237.04 126.16L370.1 126.16"/>
<path d="M276.96 124.77L330.18 124.77"/>
<path d="M276.96 124.41L330.18 124.41"/>
<path d="M276.96 121.12L330.18 121.12"/>
<path d="M387.2 244.95L387.2 229.75"/>
<path d="M387.2 167.98L387.2 81.49"/>
<path d="M391.01 244.95L391.01 229.14"/>
<path d="M225.64 118.52L237.04 118.52"/>
<path d="M370.1 118.52L381.5 118.52"/>
<path d="M221.84 114.72L237.04 114.72"/>
<path d="M370.1 114.72L385.3 114.72"/>
<path d="M276.96 114.14L330.18 114.14"/>
<path d="M237.04 113.8L276.96 113.8"/>
<path d="M330.18 113.8L370.1 113.8"/>
<path d="M267.46 109.05L339.68 109.05"/>
<path d="M402.41 155.64L402.41 60.58"/>
<path d="M404.69 229.75L404.69 244.95"/>
<path d="M408.11 66.28L408.11 152.77"/>
<path d="M242.75 92.89L364.39 92.89"/>
<path d="M425.22 229.75L425.22 244.95"/>
<path d="M251.3 90.99L355.84 90.99"/>
<path d="M387.2 81.49L219.94 81.49"/>
<path d="M349.19 320.98L330.69 330.73"/>
<path d="M354.65 320.79L335.7 330.51"/>
<path d="M354.24 320.82L333.98 330.54"/>
<path d="M199.03 66.28L408.11 66.28"/>
<path d="M440.42 244.95L440.42 229.75"/>
<path d="M446.13 244.95L446.13 229.75"/>
<path d="M204.73 60.58L402.41 60.58"/>
<path d="M204.73 155.64L199.03 152.77"/>
<path d="M267.46 341.89L271.49 340.22M271.49 340.22L273.16 336.19"/>
<path d="M199.03 150.78L187.64 159.38M187.64 159.38L178.06 169.95M178.06 169.95L170.63 182.12M170.63 182.12L165.6 195.47M165.6 195.47L163.15 209.52"/>
<path d="M163.15 265.19L166.42 282.02M166.42 282.02L173.37 297.68M173.37 297.68L183.65 311.39M183.65 311.39L196.74 322.45M196.74 322.45L211.98 330.3"/>
<path d="M235.14 165.12L227.41 165.84M227.41 165.84L219.94 167.98"/>
<path d="M204.73 60.58L200.7 62.25M200.7 62.25L199.03 66.28"/>
<path d="M242.75 92.89L238.71 94.56M238.71 94.56L237.04 98.6"/>
<path d="M221.84 114.72L222.95 117.41M222.95 117.41L225.64 118.52"/>
<path d="M161.01 244.95L162.88 263.87M162.88 263.87L168.39 282.05M168.39 282.05L177.35 298.81M177.35 298.81L189.41 313.5M189.41 313.5L204.1 325.56M204.1 325.56L220.86 334.51M220.86 334.51L239.04 340.03M239.04 340.03L257.95 341.89"/>
<path d="M199.03 152.77L185.97 164.82M185.97 164.82L175.33 179.04M175.33 179.04L167.47 194.97M167.47 194.97L162.64 212.06M162.64 212.06L161.01 229.75"/>
<path d="M204.73 155.64L191.72 167M191.72 167L181.08 180.61M181.08 180.61L173.2 195.97M173.2 195.97L168.35 212.55M168.35 212.55L166.72 229.75"/>
<path d="M166.72 244.95L168.47 262.75M168.47 262.75L173.66 279.87M173.66 279.87L182.09 295.64M182.09 295.64L193.44 309.47M193.44 309.47L207.26 320.81M207.26 320.81L223.04 329.24M223.04 329.24L240.15 334.44M240.15 334.44L257.95 336.19"/>
<path d="M268.35 330.23L271.44 330.51"/>
<path d="M181.92 244.95L183.83 261.87M183.83 261.87L189.45 277.94M189.45 277.94L198.51 292.36M198.51 292.36L210.55 304.4M210.55 304.4L224.96 313.45M224.96 313.45L241.03 319.08M241.03 319.08L257.95 320.98"/>
<path d="M219.94 163.9L207.08 173.25M207.08 173.25L196.44 185.06M196.44 185.06L188.5 198.82M188.5 198.82L183.58 213.94M183.58 213.94L181.92 229.75"/>
<path d="M257.95 174.25L243.59 176.14M243.59 176.14L230.2 181.68M230.2 181.68L218.71 190.5M218.71 190.5L209.89 202M209.89 202L204.34 215.38M204.34 215.38L202.45 229.75"/>
<path d="M202.45 244.95L204.34 259.32M204.34 259.32L209.89 272.7M209.89 272.7L218.71 284.2M218.71 284.2L230.2 293.02M230.2 293.02L243.59 298.56M243.59 298.56L257.95 300.46"/>
<path d="M257.95 187.93L247.13 189.36M247.13 189.36L237.04 193.53M237.04 193.53L228.38 200.18M228.38 200.18L221.74 208.84M221.74 208.84L217.56 218.92M217.56 218.92L216.14 229.75"/>
<path d="M229.44 273.65L230.25 274.49"/>
<path d="M216.14 244.95L217.56 255.78M217.56 255.78L221.74 265.86M221.74 265.86L228.38 274.52M228.38 274.52L237.04 281.17M237.04 281.17L247.13 285.35M247.13 285.35L257.95 286.77"/>
<path d="M238.94 277.88L248.11 281.67M248.11 281.67L257.95 282.97"/>
<path d="M257.95 191.73L248.11 193.03M248.11 193.03L238.94 196.83"/>
<path d="M237.04 193.53L231.99 197.78M231.99 197.78L228.69 203.49M228.69 203.49L227.54 209.99"/>
<path d="M227.54 264.71L228.69 271.21M228.69 271.21L231.99 276.92M231.99 276.92L237.04 281.17"/>
<path d="M231.34 264.71L232.26 269.91M232.26 269.91L234.9 274.48M234.9 274.48L238.94 277.88"/>
<path d="M238.94 196.83L234.9 200.22M234.9 200.22L232.26 204.79M232.26 204.79L231.34 209.99"/>
<path d="M290.27 191.73L289.15 189.04M289.15 189.04L286.46 187.93"/>
<path d="M338.79 330.23L359.7 320.25"/>
<path d="M333.98 336.19L335.65 340.22M335.65 340.22L339.68 341.89"/>
<path d="M446.13 229.75L444.5 212.06M444.5 212.06L439.67 194.97M439.67 194.97L431.81 179.04M431.81 179.04L421.17 164.82M421.17 164.82L408.11 152.77"/>
<path d="M349.19 341.89L368.1 340.03M368.1 340.03L386.29 334.51M386.29 334.51L403.04 325.56M403.04 325.56L417.73 313.5M417.73 313.5L429.79 298.81M429.79 298.81L438.75 282.05M438.75 282.05L444.26 263.87M444.26 263.87L446.13 244.95"/>
<path d="M440.42 229.75L438.79 212.55M438.79 212.55L433.94 195.97M433.94 195.97L426.06 180.61M426.06 180.61L415.42 167M415.42 167L402.41 155.64"/>
<path d="M349.19 336.19L366.99 334.44M366.99 334.44L384.1 329.24M384.1 329.24L399.88 320.81M399.88 320.81L413.7 309.47M413.7 309.47L425.05 295.64M425.05 295.64L433.48 279.87M433.48 279.87L438.67 262.75M438.67 262.75L440.42 244.95"/>
<path d="M335.7 330.51L338.79 330.23"/>
<path d="M425.22 229.75L423.56 213.94M423.56 213.94L418.65 198.82M418.65 198.82L410.7 185.06M410.7 185.06L400.06 173.25M400.06 173.25L387.2 163.9"/>
<path d="M349.19 320.98L366.11 319.08M366.11 319.08L382.18 313.45M382.18 313.45L396.59 304.4M396.59 304.4L408.63 292.36M408.63 292.36L417.69 277.94M417.69 277.94L423.31 261.87M423.31 261.87L425.22 244.95"/>
<path d="M349.19 300.46L363.55 298.56M363.55 298.56L376.94 293.02M376.94 293.02L388.43 284.2M388.43 284.2L397.25 272.7M397.25 272.7L402.8 259.32M402.8 259.32L404.69 244.95"/>
<path d="M404.69 229.75L402.8 215.38M402.8 215.38L397.25 202M397.25 202L388.43 190.5M388.43 190.5L376.94 181.68M376.94 181.68L363.55 176.14M363.55 176.14L349.19 174.25"/>
<path d="M391.01 229.75L389.58 218.92M389.58 218.92L385.4 208.84M385.4 208.84L378.76 200.18M378.76 200.18L370.1 193.53M370.1 193.53L360.01 189.36M360.01 189.36L349.19 187.93"/>
<path d="M391.01 229.14L389.54 218.19M389.54 218.19L385.26 208M385.26 208L378.46 199.28"/>
<path d="M349.19 286.77L360.01 285.35M360.01 285.35L370.1 281.17M370.1 281.17L378.76 274.52M378.76 274.52L385.4 265.86M385.4 265.86L389.58 255.78M389.58 255.78L391.01 244.95"/>
<path d="M387.2 229.75L385.34 218M385.34 218L379.94 207.4M379.94 207.4L371.53 198.99M371.53 198.99L360.94 193.59M360.94 193.59L349.19 191.73"/>
<path d="M349.19 282.97L360.94 281.11M360.94 281.11L371.53 275.71M371.53 275.71L379.94 267.3M379.94 267.3L385.34 256.7M385.34 256.7L387.2 244.95"/>
<path d="M320.68 187.93L317.99 189.04M317.99 189.04L316.88 191.73"/>
<path d="M395.16 330.3L410.4 322.45M410.4 322.45L423.49 311.39M423.49 311.39L433.77 297.68M433.77 297.68L440.72 282.02M440.72 282.02L443.99 265.19"/>
<path d="M443.99 209.52L441.54 195.47M441.54 195.47L436.51 182.12M436.51 182.12L429.08 169.95M429.08 169.95L419.5 159.38M419.5 159.38L408.12 150.78"/>
<path d="M387.2 167.98L379.73 165.84M379.73 165.84L372 165.12"/>
<path d="M378.46 199.28L376.78 198.32"/>
<path d="M408.11 66.28L406.44 62.25M406.44 62.25L402.41 60.58"/>
<path d="M370.1 98.6L368.43 94.56M368.43 94.56L364.39 92.89"/>
<path d="M381.5 118.52L384.19 117.41M384.19 117.41L385.3 114.72"/>
<path d="M408.11 152.77L402.41 155.64"/>
<path d="M247.44 320.25L268.35 330.23"/>
<path d="M333.98 330.54L335.7 330.51"/>
<path d="M271.44 330.51L273.16 330.54"/>
<path d="M330.69 330.73L331.52 330.72M331.52 330.72L332.34 330.69M332.34 330.69L333.16 330.63M333.16 330.63L333.98 330.54"/>
<path d="M290.27 206.94L286.46 210.74"/>
<path d="M316.88 206.94L320.68 210.74"/>
<path d="M273.16 330.54L273.98 330.63M273.98 330.63L274.8 330.69M274.8 330.69L275.62 330.72M275.62 330.72L276.45 330.73"/>
<path d="M266.08 341.89L266.35 341.88M266.35 341.88L266.62 341.86M266.62 341.86L266.89 341.83M266.89 341.83L267.16 341.78M267.16 341.78L267.42 341.71M267.42 341.71L267.68 341.63M267.68 341.63L267.94 341.54M267.94 341.54L268.19 341.43M268.19 341.43L268.43 341.31M268.43 341.31L268.67 341.18M268.67 341.18L268.9 341.04M268.9 341.04L269.12 340.88M269.12 340.88L269.34 340.72M269.34 340.72L269.54 340.54M269.54 340.54L269.74 340.35M269.74 340.35L269.93 340.16M269.93 340.16L270.11 339.95M270.11 339.95L270.27 339.74M270.27 339.74L270.43 339.52M270.43 339.52L270.58 339.29M270.58 339.29L270.71 339.05M270.71 339.05L270.84 338.81M270.84 338.81L270.95 338.57M270.95 338.57L271.05 338.31M271.05 338.31L271.14 338.06M271.14 338.06L271.22 337.8M271.22 337.8L271.29 337.54M271.29 337.54L271.34 337.27M271.34 337.27L271.38 337M271.38 337L271.41 336.73M271.41 336.73L271.43 336.46M271.43 336.46L271.44 336.19"/>
<path d="M342.79 341.89L342.55 341.88M342.55 341.88L342.31 341.85M342.31 341.85L342.08 341.8M342.08 341.8L341.85 341.73M341.85 341.73L341.62 341.64M341.62 341.64L341.41 341.54M341.41 341.54L341.2 341.42M341.2 341.42L341 341.29M341 341.29L340.81 341.14M340.81 341.14L340.63 340.99M340.63 340.99L340.46 340.82M340.46 340.82L340.29 340.64M340.29 340.64L340.14 340.46M340.14 340.46L339.99 340.27M339.99 340.27L339.86 340.07M339.86 340.07L339.73 339.86M339.73 339.86L339.62 339.66M339.62 339.66L339.51 339.44M339.51 339.44L339.41 339.22M339.41 339.22L339.31 339M339.31 339L339.23 338.78M339.23 338.78L339.15 338.55M339.15 338.55L339.08 338.32M339.08 338.32L339.02 338.09M339.02 338.09L338.97 337.86M338.97 337.86L338.92 337.62M338.92 337.62L338.88 337.38M338.88 337.38L338.85 337.15M338.85 337.15L338.83 336.91M338.83 336.91L338.81 336.67M338.81 336.67L338.8 336.43M338.8 336.43L338.79 336.19"/>
<path d="M341.06 341.89L340.79 341.88M340.79 341.88L340.52 341.86M340.52 341.86L340.25 341.83M340.25 341.83L339.98 341.78M339.98 341.78L339.72 341.71M339.72 341.71L339.46 341.63M339.46 341.63L339.2 341.54M339.2 341.54L338.95 341.43M338.95 341.43L338.71 341.31M338.71 341.31L338.47 341.18M338.47 341.18L338.24 341.04M338.24 341.04L338.02 340.88M338.02 340.88L337.8 340.72M337.8 340.72L337.6 340.54M337.6 340.54L337.4 340.35M337.4 340.35L337.21 340.16M337.21 340.16L337.03 339.95M337.03 339.95L336.87 339.74M336.87 339.74L336.71 339.52M336.71 339.52L336.56 339.29M336.56 339.29L336.43 339.05M336.43 339.05L336.3 338.81M336.3 338.81L336.19 338.57M336.19 338.57L336.09 338.31M336.09 338.31L336 338.06M336 338.06L335.92 337.8M335.92 337.8L335.85 337.54M335.85 337.54L335.8 337.27M335.8 337.27L335.76 337M335.76 337L335.73 336.73M335.73 336.73L335.71 336.46M335.71 336.46L335.7 336.19"/>
<path d="M268.35 336.19L268.34 336.43M268.34 336.43L268.33 336.67M268.33 336.67L268.31 336.91M268.31 336.91L268.29 337.15M268.29 337.15L268.26 337.38M268.26 337.38L268.22 337.62M268.22 337.62L268.17 337.86M268.17 337.86L268.12 338.09M268.12 338.09L268.06 338.32M268.06 338.32L267.99 338.55M267.99 338.55L267.91 338.78M267.91 338.78L267.83 339M267.83 339L267.73 339.22M267.73 339.22L267.63 339.44M267.63 339.44L267.52 339.66M267.52 339.66L267.41 339.86M267.41 339.86L267.28 340.07M267.28 340.07L267.15 340.27M267.15 340.27L267 340.46M267 340.46L266.85 340.64M266.85 340.64L266.69 340.82M266.69 340.82L266.51 340.99M266.51 340.99L266.33 341.14M266.33 341.14L266.14 341.29M266.14 341.29L265.94 341.42M265.94 341.42L265.73 341.54M265.73 341.54L265.52 341.64M265.52 341.64L265.29 341.73M265.29 341.73L265.07 341.8M265.07 341.8L264.83 341.85M264.83 341.85L264.59 341.88M264.59 341.88L264.35 341.89"/>
<path d="M464.1 233.19L465.91 232.29M465.91 232.29L468.62 229.57M468.62 229.57L468.62 248.58"/>
<path d="M132.28 234.1L132.28 233.19M132.28 233.19L133.19 231.38M133.19 231.38L134.09 230.48M134.09 230.48L135.9 229.57M135.9 229.57L139.52 229.57M139.52 229.57L141.33 230.48M141.33 230.48L142.24 231.38M142.24 231.38L143.14 233.19M143.14 233.19L143.14 235M143.14 235L142.24 236.81M142.24 236.81L140.43 239.53M140.43 239.53L131.38 248.58M131.38 248.58L144.05 248.58"/>
</g>
</g>
</svg>
