<?xml version="1.0" standalone="no"?><svg xmlns="http://www.w3.org/2000/svg" width="600.000" height="450.000" viewBox="0.0 0.0 600.000 450.000" version="1.1">
<title>Acme Converter - Post-processed with EDS-Designer: 14.44 (info@symca.com)</title>
<desc>Acme Converter - Post-processed with EDS-Designer: 14.44 (info@symca.com)</desc>
<g id="EDS_STYLE_GROUP" fill="none" stroke="black" stroke-width="1.0">
<g id="0" display="visible">
<path d="M241.64 378.39L241.64 354.42M242.78 354.42L242.78 378.39M238.22 354.42L251.91 354.42M251.91 354.42L255.33 355.56M255.33 355.56L256.48 356.7M256.48 356.7L257.62 358.98M257.62 358.98L257.62 361.27M257.62 361.27L256.48 363.55M256.48 363.55L255.33 364.69M255.33 364.69L251.91 365.83M251.91 354.42L254.19 355.56M254.19 355.56L255.33 356.7M255.33 356.7L256.48 358.98M256.48 358.98L256.48 361.27M256.48 361.27L255.33 363.55M255.33 363.55L254.19 364.69M254.19 364.69L251.91 365.83M242.78 365.83L251.91 365.83M251.91 365.83L255.33 366.97M255.33 366.97L256.48 368.11M256.48 368.11L257.62 370.4M257.62 370.4L257.62 373.82M257.62 373.82L256.48 376.1M256.48 376.1L255.33 377.24M255.33 377.24L251.91 378.39M251.91 378.39L238.22 378.39M251.91 365.83L254.19 366.97M254.19 366.97L255.33 368.11M255.33 368.11L256.48 370.4M256.48 370.4L256.48 373.82M256.48 373.82L255.33 376.1M255.33 376.1L254.19 377.24M254.19 377.24L251.91 378.39M266.75 378.39L266.75 354.42M267.89 354.42L267.89 378.39M263.32 354.42L271.31 354.42M263.32 378.39L280.44 378.39M280.44 378.39L280.44 371.54M280.44 371.54L279.3 378.39M294.14 354.42L286.15 378.39M294.14 354.42L302.13 378.39M294.14 357.84L300.98 378.39M288.43 371.54L298.7 371.54M283.87 378.39L290.71 378.39M297.56 378.39L304.41 378.39M323.81 357.84L324.95 361.27M324.95 361.27L324.95 354.42M324.95 354.42L323.81 357.84M323.81 357.84L321.53 355.56M321.53 355.56L318.1 354.42M318.1 354.42L315.82 354.42M315.82 354.42L312.4 355.56M312.4 355.56L310.11 357.84M310.11 357.84L308.97 360.13M308.97 360.13L307.83 363.55M307.83 363.55L307.83 369.26M307.83 369.26L308.97 372.68M308.97 372.68L310.11 374.96M310.11 374.96L312.4 377.24M312.4 377.24L315.82 378.39M315.82 378.39L318.1 378.39M318.1 378.39L321.53 377.24M321.53 377.24L323.81 374.96M323.81 374.96L324.95 372.68M315.82 354.42L313.54 355.56M313.54 355.56L311.26 357.84M311.26 357.84L310.11 360.13M310.11 360.13L308.97 363.55M308.97 363.55L308.97 369.26M308.97 369.26L310.11 372.68M310.11 372.68L311.26 374.96M311.26 374.96L313.54 377.24M313.54 377.24L315.82 378.39M335.22 378.39L335.22 354.42M336.36 354.42L336.36 378.39M351.2 354.42L336.36 369.26M342.07 364.69L351.2 378.39M340.93 364.69L350.06 378.39M331.8 354.42L339.79 354.42M346.64 354.42L353.48 354.42M331.8 378.39L339.79 378.39M346.64 378.39L353.48 378.39"/>
<path d="M43.61 119.55L43.61 282.52"/>
<path d="M45.52 119.55L45.52 282.52"/>
<path d="M71.41 232.67L71.41 169.4"/>
<path d="M76.2 232.67L76.2 169.4"/>
<path d="M78.12 232.67L78.12 169.4"/>
<path d="M82.91 232.67L82.91 169.4"/>
<path d="M85.79 232.67L85.79 169.4"/>
<path d="M91.54 328.54L91.54 330.45"/>
<path d="M91.54 73.53L91.54 71.61"/>
<path d="M100.17 255.68L100.17 242.26"/>
<path d="M100.17 159.81L100.17 146.39"/>
<path d="M125.86 168.73L125.86 175.82"/>
<path d="M125.86 226.25L125.86 233.34"/>
<path d="M126.05 114.75L126.05 119.55"/>
<path d="M126.05 121.46L126.05 129.13"/>
<path d="M126.05 287.31L126.05 282.52"/>
<path d="M126.05 280.6L126.05 272.93"/>
<path d="M129.65 156.46L129.65 161.01"/>
<path d="M129.65 183.54L129.65 188.09"/>
<path d="M129.65 213.98L129.65 218.53"/>
<path d="M129.65 241.06L129.65 245.61"/>
<path d="M139.71 245.61L139.71 241.06"/>
<path d="M139.71 218.53L139.71 213.98"/>
<path d="M139.71 188.09L139.71 183.54"/>
<path d="M139.71 161.01L139.71 156.46"/>
<path d="M143.5 233.34L143.5 226.25"/>
<path d="M143.5 175.82L143.5 168.73"/>
<path d="M164.21 168.73L164.21 175.82"/>
<path d="M164.21 226.25L164.21 233.34"/>
<path d="M167.99 156.46L167.99 161.01"/>
<path d="M167.99 183.54L167.99 188.09"/>
<path d="M167.99 213.98L167.99 218.53"/>
<path d="M167.99 241.06L167.99 245.61"/>
<path d="M178.06 245.61L178.06 241.06"/>
<path d="M178.06 218.53L178.06 213.98"/>
<path d="M178.06 188.09L178.06 183.54"/>
<path d="M178.06 161.01L178.06 156.46"/>
<path d="M181.85 233.34L181.85 226.25"/>
<path d="M181.85 175.82L181.85 168.73"/>
<path d="M91.54 330.45L499.93 330.45"/>
<path d="M91.54 328.54L499.93 328.54"/>
<path d="M202.55 168.73L202.55 175.82"/>
<path d="M202.55 226.25L202.55 233.34"/>
<path d="M419.4 305.05L389.68 305.05"/>
<path d="M248.76 305.05L219.04 305.05"/>
<path d="M421.32 303.13L387.77 303.13"/>
<path d="M250.68 303.13L217.12 303.13"/>
<path d="M206.34 156.46L206.34 161.01"/>
<path d="M206.34 183.54L206.34 188.09"/>
<path d="M206.34 213.98L206.34 218.53"/>
<path d="M206.34 241.06L206.34 245.61"/>
<path d="M216.41 245.61L216.41 241.06"/>
<path d="M216.41 218.53L216.41 213.98"/>
<path d="M216.41 188.09L216.41 183.54"/>
<path d="M216.41 161.01L216.41 156.46"/>
<path d="M217.12 98.94L217.12 112.84"/>
<path d="M217.12 289.23L217.12 303.13"/>
<path d="M220.19 233.34L220.19 226.25"/>
<path d="M220.19 175.82L220.19 168.73"/>
<path d="M547.24 290.19L547.86 290.19"/>
<path d="M533.01 289.23L478.84 289.23"/>
<path d="M421.32 289.23L387.77 289.23"/>
<path d="M250.68 289.23L217.12 289.23"/>
<path d="M126.05 287.31L533.26 287.31"/>
<path d="M504.72 285.4L522.94 285.4"/>
<path d="M547.82 284.44L547.86 284.44"/>
<path d="M547.86 282.52L540.19 282.52"/>
<path d="M45.52 282.52L43.61 282.52"/>
<path d="M126.05 282.52L504.72 282.52"/>
<path d="M450.08 280.6L126.05 280.6"/>
<path d="M502.81 277.73L488.81 277.73"/>
<path d="M530.61 277.73L532.52 277.73"/>
<path d="M504.72 275.81L488.81 275.81"/>
<path d="M450.08 275.81L126.05 275.81"/>
<path d="M231.5 305.05L231.5 287.31"/>
<path d="M231.5 114.75L231.5 97.02"/>
<path d="M240.9 168.73L240.9 175.82"/>
<path d="M240.9 226.25L240.9 233.34"/>
<path d="M450.08 272.93L126.05 272.93"/>
<path d="M533.23 270.06L532.52 270.06"/>
<path d="M533.48 268.14L532.52 268.14"/>
<path d="M257.39 258.55L242.05 258.55"/>
<path d="M93.01 255.68L100.17 255.68"/>
<path d="M242.05 258.55L242.05 272.93"/>
<path d="M244.69 156.46L244.69 161.01"/>
<path d="M244.69 183.54L244.69 188.09"/>
<path d="M244.69 213.98L244.69 218.53"/>
<path d="M244.69 241.06L244.69 245.61"/>
<path d="M245.88 305.05L245.88 287.31"/>
<path d="M245.88 114.75L245.88 97.02"/>
<path d="M250.68 98.94L250.68 112.84"/>
<path d="M250.68 289.23L250.68 303.13"/>
<path d="M254.75 245.61L254.75 241.06"/>
<path d="M254.75 218.53L254.75 213.98"/>
<path d="M254.75 188.09L254.75 183.54"/>
<path d="M254.75 161.01L254.75 156.46"/>
<path d="M257.39 272.93L257.39 258.55"/>
<path d="M258.54 233.34L258.54 226.25"/>
<path d="M258.54 175.82L258.54 168.73"/>
<path d="M364.52 251.36L384.17 251.36"/>
<path d="M422.04 251.36L441.69 251.36"/>
<path d="M129.65 245.61L139.71 245.61"/>
<path d="M167.99 245.61L178.06 245.61"/>
<path d="M206.34 245.61L216.41 245.61"/>
<path d="M244.69 245.61L254.75 245.61"/>
<path d="M283.03 245.61L293.1 245.61"/>
<path d="M321.38 245.61L331.44 245.61"/>
<path d="M441.69 242.26L422.04 242.26"/>
<path d="M384.17 242.26L364.52 242.26"/>
<path d="M100.17 242.26L86.95 242.26"/>
<path d="M331.44 241.06L321.38 241.06"/>
<path d="M293.1 241.06L283.03 241.06"/>
<path d="M254.75 241.06L244.69 241.06"/>
<path d="M216.41 241.06L206.34 241.06"/>
<path d="M178.06 241.06L167.99 241.06"/>
<path d="M139.71 241.06L129.65 241.06"/>
<path d="M279.25 168.73L279.25 175.82"/>
<path d="M279.25 226.25L279.25 233.34"/>
<path d="M360.16 234.06L388.53 234.06"/>
<path d="M417.68 234.06L446.05 234.06"/>
<path d="M125.86 233.34L143.5 233.34"/>
<path d="M164.21 233.34L181.85 233.34"/>
<path d="M202.55 233.34L220.19 233.34"/>
<path d="M240.9 233.34L258.54 233.34"/>
<path d="M279.25 233.34L296.89 233.34"/>
<path d="M317.59 233.34L335.23 233.34"/>
<path d="M498.01 232.67L490.34 232.67"/>
<path d="M71.41 232.67L76.2 232.67"/>
<path d="M78.12 232.67L85.79 232.67"/>
<path d="M502.81 232.67L504.72 232.67"/>
<path d="M335.23 226.25L317.59 226.25"/>
<path d="M296.89 226.25L279.25 226.25"/>
<path d="M258.54 226.25L240.9 226.25"/>
<path d="M220.19 226.25L202.55 226.25"/>
<path d="M181.85 226.25L164.21 226.25"/>
<path d="M143.5 226.25L125.86 226.25"/>
<path d="M446.05 225.53L417.68 225.53"/>
<path d="M388.53 225.53L360.16 225.53"/>
<path d="M129.65 218.53L139.71 218.53"/>
<path d="M167.99 218.53L178.06 218.53"/>
<path d="M206.34 218.53L216.41 218.53"/>
<path d="M244.69 218.53L254.75 218.53"/>
<path d="M283.03 218.53L293.1 218.53"/>
<path d="M321.38 218.53L331.44 218.53"/>
<path d="M533.01 289.23L546.72 292.9"/>
<path d="M539.66 289.03L533.26 287.31"/>
<path d="M283.03 156.46L283.03 161.01"/>
<path d="M283.03 183.54L283.03 188.09"/>
<path d="M283.03 213.98L283.03 218.53"/>
<path d="M283.03 241.06L283.03 245.61"/>
<path d="M293.1 245.61L293.1 241.06"/>
<path d="M293.1 218.53L293.1 213.98"/>
<path d="M293.1 188.09L293.1 183.54"/>
<path d="M293.1 161.01L293.1 156.46"/>
<path d="M296.89 233.34L296.89 226.25"/>
<path d="M296.89 175.82L296.89 168.73"/>
<path d="M364.52 217.33L384.17 217.33"/>
<path d="M422.04 217.33L441.69 217.33"/>
<path d="M331.44 213.98L321.38 213.98"/>
<path d="M293.1 213.98L283.03 213.98"/>
<path d="M254.75 213.98L244.69 213.98"/>
<path d="M216.41 213.98L206.34 213.98"/>
<path d="M178.06 213.98L167.99 213.98"/>
<path d="M139.71 213.98L129.65 213.98"/>
<path d="M441.69 208.22L422.04 208.22"/>
<path d="M384.17 208.22L364.52 208.22"/>
<path d="M540.19 271.92L533.23 270.06"/>
<path d="M540.2 271.84L547.86 273.89"/>
<path d="M533.48 268.14L547.83 271.99"/>
<path d="M533.48 133.93L547.83 130.08"/>
<path d="M547.86 128.18L540.2 130.23"/>
<path d="M533.23 132.01L540.19 130.14"/>
<path d="M364.52 193.84L384.17 193.84"/>
<path d="M422.04 193.84L441.69 193.84"/>
<path d="M129.65 188.09L139.71 188.09"/>
<path d="M167.99 188.09L178.06 188.09"/>
<path d="M206.34 188.09L216.41 188.09"/>
<path d="M244.69 188.09L254.75 188.09"/>
<path d="M283.03 188.09L293.1 188.09"/>
<path d="M321.38 188.09L331.44 188.09"/>
<path d="M441.69 184.74L422.04 184.74"/>
<path d="M384.17 184.74L364.52 184.74"/>
<path d="M331.44 183.54L321.38 183.54"/>
<path d="M293.1 183.54L283.03 183.54"/>
<path d="M254.75 183.54L244.69 183.54"/>
<path d="M216.41 183.54L206.34 183.54"/>
<path d="M178.06 183.54L167.99 183.54"/>
<path d="M139.71 183.54L129.65 183.54"/>
<path d="M317.59 168.73L317.59 175.82"/>
<path d="M317.59 226.25L317.59 233.34"/>
<path d="M321.38 156.46L321.38 161.01"/>
<path d="M321.38 183.54L321.38 188.09"/>
<path d="M321.38 213.98L321.38 218.53"/>
<path d="M321.38 241.06L321.38 245.61"/>
<path d="M331.44 245.61L331.44 241.06"/>
<path d="M331.44 218.53L331.44 213.98"/>
<path d="M331.44 188.09L331.44 183.54"/>
<path d="M331.44 161.01L331.44 156.46"/>
<path d="M335.23 233.34L335.23 226.25"/>
<path d="M335.23 175.82L335.23 168.73"/>
<path d="M533.26 114.75L539.66 113.04"/>
<path d="M546.72 109.16L533.01 112.84"/>
<path d="M360.16 176.54L388.53 176.54"/>
<path d="M417.68 176.54L446.05 176.54"/>
<path d="M125.86 175.82L143.5 175.82"/>
<path d="M164.21 175.82L181.85 175.82"/>
<path d="M202.55 175.82L220.19 175.82"/>
<path d="M240.9 175.82L258.54 175.82"/>
<path d="M279.25 175.82L296.89 175.82"/>
<path d="M317.59 175.82L335.23 175.82"/>
<path d="M498.01 169.4L490.34 169.4"/>
<path d="M71.41 169.4L76.2 169.4"/>
<path d="M78.12 169.4L85.79 169.4"/>
<path d="M502.81 169.4L504.72 169.4"/>
<path d="M335.23 168.73L317.59 168.73"/>
<path d="M296.89 168.73L279.25 168.73"/>
<path d="M258.54 168.73L240.9 168.73"/>
<path d="M220.19 168.73L202.55 168.73"/>
<path d="M181.85 168.73L164.21 168.73"/>
<path d="M143.5 168.73L125.86 168.73"/>
<path d="M446.05 168.01L417.68 168.01"/>
<path d="M388.53 168.01L360.16 168.01"/>
<path d="M129.65 161.01L139.71 161.01"/>
<path d="M167.99 161.01L178.06 161.01"/>
<path d="M206.34 161.01L216.41 161.01"/>
<path d="M244.69 161.01L254.75 161.01"/>
<path d="M283.03 161.01L293.1 161.01"/>
<path d="M321.38 161.01L331.44 161.01"/>
<path d="M86.95 159.81L100.17 159.81"/>
<path d="M364.52 159.81L384.17 159.81"/>
<path d="M422.04 159.81L441.69 159.81"/>
<path d="M331.44 156.46L321.38 156.46"/>
<path d="M293.1 156.46L283.03 156.46"/>
<path d="M254.75 156.46L244.69 156.46"/>
<path d="M216.41 156.46L206.34 156.46"/>
<path d="M178.06 156.46L167.99 156.46"/>
<path d="M139.71 156.46L129.65 156.46"/>
<path d="M441.69 150.7L422.04 150.7"/>
<path d="M384.17 150.7L364.52 150.7"/>
<path d="M100.17 146.39L93.01 146.39"/>
<path d="M360.16 168.01L360.16 176.54"/>
<path d="M360.16 225.53L360.16 234.06"/>
<path d="M364.52 150.7L364.52 159.81"/>
<path d="M364.52 184.74L364.52 193.84"/>
<path d="M364.52 208.22L364.52 217.33"/>
<path d="M364.52 242.26L364.52 251.36"/>
<path d="M532.52 133.93L533.48 133.93"/>
<path d="M532.52 132.01L533.23 132.01"/>
<path d="M126.05 129.13L450.08 129.13"/>
<path d="M126.05 126.26L450.08 126.26"/>
<path d="M488.81 126.26L502.81 126.26"/>
<path d="M488.81 124.34L504.72 124.34"/>
<path d="M530.61 124.34L532.52 124.34"/>
<path d="M384.17 251.36L384.17 242.26"/>
<path d="M384.17 217.33L384.17 208.22"/>
<path d="M384.17 193.84L384.17 184.74"/>
<path d="M384.17 159.81L384.17 150.7"/>
<path d="M387.77 98.94L387.77 112.84"/>
<path d="M387.77 289.23L387.77 303.13"/>
<path d="M388.53 234.06L388.53 225.53"/>
<path d="M388.53 176.54L388.53 168.01"/>
<path d="M486.18 130.97L487.49 129.57"/>
<path d="M126.05 121.46L450.08 121.46"/>
<path d="M547.86 119.55L540.19 119.55"/>
<path d="M45.52 119.55L43.61 119.55"/>
<path d="M126.05 119.55L504.72 119.55"/>
<path d="M547.86 117.63L547.82 117.63"/>
<path d="M522.94 116.67L504.72 116.67"/>
<path d="M126.05 114.75L533.26 114.75"/>
<path d="M533.01 112.84L478.84 112.84"/>
<path d="M217.12 112.84L250.68 112.84"/>
<path d="M387.77 112.84L421.32 112.84"/>
<path d="M547.24 111.88L547.86 111.88"/>
<path d="M486.18 271.1L487.49 272.49"/>
<path d="M402.15 305.05L402.15 287.31"/>
<path d="M402.15 114.75L402.15 97.02"/>
<path d="M217.12 98.94L250.68 98.94"/>
<path d="M387.77 98.94L421.32 98.94"/>
<path d="M219.04 97.02L248.76 97.02"/>
<path d="M389.68 97.02L419.4 97.02"/>
<path d="M416.53 305.05L416.53 287.31"/>
<path d="M416.53 114.75L416.53 97.02"/>
<path d="M417.68 168.01L417.68 176.54"/>
<path d="M417.68 225.53L417.68 234.06"/>
<path d="M421.32 98.94L421.32 112.84"/>
<path d="M421.32 289.23L421.32 303.13"/>
<path d="M422.04 150.7L422.04 159.81"/>
<path d="M422.04 184.74L422.04 193.84"/>
<path d="M422.04 208.22L422.04 217.33"/>
<path d="M422.04 242.26L422.04 251.36"/>
<path d="M499.93 73.53L91.54 73.53"/>
<path d="M499.93 71.61L91.54 71.61"/>
<path d="M441.69 251.36L441.69 242.26"/>
<path d="M441.69 217.33L441.69 208.22"/>
<path d="M441.69 193.84L441.69 184.74"/>
<path d="M441.69 159.81L441.69 150.7"/>
<path d="M446.05 234.06L446.05 225.53"/>
<path d="M446.05 176.54L446.05 168.01"/>
<path d="M450.08 121.46L450.08 129.13"/>
<path d="M450.08 280.6L450.08 272.93"/>
<path d="M478.84 112.84L478.84 114.75"/>
<path d="M478.84 287.31L478.84 289.23"/>
<path d="M488.81 124.34L488.81 126.26"/>
<path d="M488.81 277.73L488.81 275.81"/>
<path d="M490.34 169.4L490.34 232.67"/>
<path d="M493.22 169.4L493.22 232.67"/>
<path d="M498.01 169.4L498.01 232.67"/>
<path d="M499.93 328.54L499.93 330.45"/>
<path d="M499.93 73.53L499.93 71.61"/>
<path d="M502.81 287.31L502.81 277.73"/>
<path d="M502.81 232.67L502.81 169.4"/>
<path d="M502.81 126.26L502.81 114.75"/>
<path d="M504.72 285.4L504.72 116.67"/>
<path d="M506.64 282.36L504.72 284.27"/>
<path d="M506.64 119.71L504.72 117.79"/>
<path d="M506.64 119.71L506.64 282.36"/>
<path d="M522.94 285.4L522.94 287.31"/>
<path d="M522.94 116.67L522.94 114.75"/>
<path d="M530.61 277.73L530.61 124.34"/>
<path d="M532.52 277.73L532.52 124.34"/>
<path d="M540.19 119.55L540.19 130.14"/>
<path d="M540.19 271.92L540.19 282.52"/>
<path d="M547.86 290.19L547.86 271.51"/>
<path d="M547.86 130.56L547.86 111.88"/>
<path d="M43.61 282.52L45.24 294.93M45.24 294.93L50.03 306.49M50.03 306.49L57.65 316.41M57.65 316.41L67.57 324.03M67.57 324.03L79.13 328.82M79.13 328.82L91.54 330.45"/>
<path d="M45.52 282.52L47.09 294.43M47.09 294.43L51.69 305.53M51.69 305.53L59 315.06M59 315.06L68.53 322.37M68.53 322.37L79.63 326.97M79.63 326.97L91.54 328.54"/>
<path d="M217.12 303.13L217.69 304.49M217.69 304.49L219.04 305.05"/>
<path d="M217.12 289.23L216.56 287.87M216.56 287.87L215.21 287.31"/>
<path d="M71.41 232.67L73.27 246.81M73.27 246.81L78.73 259.99M78.73 259.99L87.41 271.31M87.41 271.31L98.73 279.99M98.73 279.99L111.91 285.45M111.91 285.45L126.05 287.31"/>
<path d="M76.2 232.67L77.9 245.57M77.9 245.57L82.88 257.59M82.88 257.59L90.8 267.92M90.8 267.92L101.13 275.84M101.13 275.84L113.15 280.82M113.15 280.82L126.05 282.52"/>
<path d="M78.12 232.67L79.75 245.08M79.75 245.08L84.54 256.64M84.54 256.64L92.16 266.56M92.16 266.56L102.09 274.18M102.09 274.18L113.65 278.97M113.65 278.97L126.05 280.6"/>
<path d="M82.91 232.67L84.38 243.83M84.38 243.83L88.69 254.24M88.69 254.24L95.55 263.17M95.55 263.17L104.48 270.03M104.48 270.03L114.89 274.34M114.89 274.34L126.05 275.81"/>
<path d="M85.79 232.67L87.76 245.11M87.76 245.11L93.48 256.34M93.48 256.34L102.39 265.24M102.39 265.24L113.61 270.96M113.61 270.96L126.05 272.93"/>
<path d="M387.77 303.13L388.33 304.49M388.33 304.49L389.68 305.05"/>
<path d="M248.76 305.05L250.12 304.49M250.12 304.49L250.68 303.13"/>
<path d="M252.6 287.31L251.24 287.87M251.24 287.87L250.68 289.23"/>
<path d="M387.77 289.23L387.2 287.87M387.2 287.87L385.85 287.31"/>
<path d="M126.05 114.75L111.91 116.62M111.91 116.62L98.73 122.08M98.73 122.08L87.41 130.76M87.41 130.76L78.73 142.08M78.73 142.08L73.27 155.25M73.27 155.25L71.41 169.4"/>
<path d="M126.05 119.55L113.15 121.25M113.15 121.25L101.13 126.23M101.13 126.23L90.8 134.15M90.8 134.15L82.88 144.47M82.88 144.47L77.9 156.5M77.9 156.5L76.2 169.4"/>
<path d="M91.54 71.61L79.13 73.25M79.13 73.25L67.57 78.04M67.57 78.04L57.65 85.65M57.65 85.65L50.03 95.58M50.03 95.58L45.24 107.14M45.24 107.14L43.61 119.55"/>
<path d="M126.05 121.46L113.65 123.1M113.65 123.1L102.09 127.89M102.09 127.89L92.16 135.5M92.16 135.5L84.54 145.43M84.54 145.43L79.75 156.99M79.75 156.99L78.12 169.4"/>
<path d="M91.54 73.53L79.63 75.1M79.63 75.1L68.53 79.7M68.53 79.7L59 87.01M59 87.01L51.69 96.54M51.69 96.54L47.09 107.64M47.09 107.64L45.52 119.55"/>
<path d="M126.05 126.26L114.89 127.73M114.89 127.73L104.48 132.04M104.48 132.04L95.55 138.89M95.55 138.89L88.69 147.83M88.69 147.83L84.38 158.23M84.38 158.23L82.91 169.4"/>
<path d="M126.05 129.13L113.61 131.1M113.61 131.1L102.39 136.82M102.39 136.82L93.48 145.73M93.48 145.73L87.76 156.96M87.76 156.96L85.79 169.4"/>
<path d="M385.85 114.75L387.2 114.19M387.2 114.19L387.77 112.84"/>
<path d="M250.68 98.94L250.12 97.58M250.12 97.58L248.76 97.02"/>
<path d="M219.04 97.02L217.69 97.58M217.69 97.58L217.12 98.94"/>
<path d="M389.68 97.02L388.33 97.58M388.33 97.58L387.77 98.94"/>
<path d="M215.21 114.75L216.56 114.19M216.56 114.19L217.12 112.84"/>
<path d="M250.68 112.84L251.24 114.19M251.24 114.19L252.6 114.75"/>
<path d="M423.24 287.31L421.88 287.87M421.88 287.87L421.32 289.23"/>
<path d="M419.4 305.05L420.76 304.49M420.76 304.49L421.32 303.13"/>
<path d="M487.49 272.49L494.79 264.08M494.79 264.08L500.23 254.37M500.23 254.37L503.59 243.75M503.59 243.75L504.72 232.67"/>
<path d="M486.18 271.1L495.18 259.98M495.18 259.98L500.86 246.84M500.86 246.84L502.81 232.67"/>
<path d="M450.08 280.6L462.49 278.97M462.49 278.97L474.05 274.18M474.05 274.18L483.97 266.56M483.97 266.56L491.59 256.64M491.59 256.64L496.38 245.08M496.38 245.08L498.01 232.67"/>
<path d="M450.08 275.81L461.24 274.34M461.24 274.34L471.65 270.03M471.65 270.03L480.58 263.17M480.58 263.17L487.44 254.24M487.44 254.24L491.75 243.83M491.75 243.83L493.22 232.67"/>
<path d="M450.08 272.93L462.52 270.96M462.52 270.96L473.75 265.24M473.75 265.24L482.65 256.34M482.65 256.34L488.37 245.11M488.37 245.11L490.34 232.67"/>
<path d="M499.93 330.45L512.34 328.82M512.34 328.82L523.9 324.03M523.9 324.03L533.82 316.41M533.82 316.41L541.44 306.49M541.44 306.49L546.23 294.93M546.23 294.93L547.86 282.52"/>
<path d="M499.93 328.54L512.24 326.86M512.24 326.86L523.65 321.95M523.65 321.95L533.34 314.16M533.34 314.16L540.59 304.07M540.59 304.07L544.87 292.41"/>
<path d="M539.66 289.03L540.19 282.52"/>
<path d="M502.81 287.31L504.16 286.75M504.16 286.75L504.72 285.4"/>
<path d="M486.18 271.1L485.06 273.06M485.06 273.06L485.24 275.3M485.24 275.3L486.65 277.06M486.65 277.06L488.81 277.73"/>
<path d="M487.49 272.49L486.94 273.47M486.94 273.47L487.02 274.6M487.02 274.6L487.73 275.48M487.73 275.48L488.81 275.81"/>
<path d="M546.95 291.82L547.62 291.12M547.62 291.12L547.86 290.19"/>
<path d="M547.86 284.44L547.84 284.12"/>
<path d="M539.66 289.06L539.66 289.03"/>
<path d="M522.94 287.31L527.73 286.03M527.73 286.03L531.24 282.52M531.24 282.52L532.52 277.73"/>
<path d="M522.94 285.4L526.77 284.37M526.77 284.37L529.58 281.56M529.58 281.56L530.61 277.73"/>
<path d="M545.77 130.63L538.45 153.49M538.45 153.49L534.01 177.08M534.01 177.08L532.52 201.03M532.52 201.03L534.01 224.99M534.01 224.99L538.45 248.58M538.45 248.58L545.77 271.43"/>
<path d="M547.86 130.56L540.45 153.43M540.45 153.43L535.95 177.04M535.95 177.04L534.44 201.03M534.44 201.03L535.95 225.03M535.95 225.03L540.45 248.64M540.45 248.64L547.86 271.51"/>
<path d="M504.72 169.4L503.59 158.32M503.59 158.32L500.23 147.7M500.23 147.7L494.79 137.98M494.79 137.98L487.49 129.57"/>
<path d="M502.81 169.4L500.86 155.22M500.86 155.22L495.18 142.09M495.18 142.09L486.18 130.97"/>
<path d="M547.86 119.55L546.23 107.14M546.23 107.14L541.44 95.58M541.44 95.58L533.82 85.65M533.82 85.65L523.9 78.04M523.9 78.04L512.34 73.25M512.34 73.25L499.93 71.61"/>
<path d="M498.01 169.4L496.38 156.99M496.38 156.99L491.59 145.43M491.59 145.43L483.97 135.5M483.97 135.5L474.05 127.89M474.05 127.89L462.49 123.1M462.49 123.1L450.08 121.46"/>
<path d="M544.87 109.66L540.59 98M540.59 98L533.34 87.9M533.34 87.9L523.65 80.12M523.65 80.12L512.24 75.21M512.24 75.21L499.93 73.53"/>
<path d="M493.22 169.4L491.75 158.23M491.75 158.23L487.44 147.83M487.44 147.83L480.58 138.89M480.58 138.89L471.65 132.04M471.65 132.04L461.24 127.73M461.24 127.73L450.08 126.26"/>
<path d="M490.34 169.4L488.37 156.96M488.37 156.96L482.65 145.73M482.65 145.73L473.75 136.82M473.75 136.82L462.52 131.1M462.52 131.1L450.08 129.13"/>
<path d="M540.19 119.55L539.66 113.04"/>
<path d="M532.52 124.34L531.24 119.55M531.24 119.55L527.73 116.04M527.73 116.04L522.94 114.75"/>
<path d="M530.61 124.34L529.58 120.51M529.58 120.51L526.77 117.7M526.77 117.7L522.94 116.67"/>
<path d="M488.81 124.34L486.65 125M486.65 125L485.24 126.76M485.24 126.76L485.06 129.01M485.06 129.01L486.18 130.97"/>
<path d="M421.32 112.84L421.88 114.19M421.88 114.19L423.24 114.75"/>
<path d="M547.86 111.88L547.62 110.94M547.62 110.94L546.95 110.25"/>
<path d="M547.84 117.95L547.86 117.63"/>
<path d="M502.81 126.26L504.16 125.7M504.16 125.7L504.72 124.34"/>
<path d="M504.72 116.67L504.16 115.32M504.16 115.32L502.81 114.75"/>
<path d="M421.32 98.94L420.76 97.58M420.76 97.58L419.4 97.02"/>
<path d="M488.81 126.26L487.73 126.59M487.73 126.59L487.02 127.47M487.02 127.47L486.94 128.59M486.94 128.59L487.49 129.57"/>
<path d="M539.66 113.04L539.66 113.01"/>
<path d="M547.83 130.08L547.86 130.07M547.86 130.07L547.86 130.04"/>
<path d="M547.83 271.99L547.86 272M547.86 272L547.86 272.02"/>
<path d="M540.2 130.23L540.32 130.68M540.32 130.68L540.42 131.13M540.42 131.13L540.51 131.59M540.51 131.59L540.54 131.82M540.54 131.82L540.55 131.93M540.55 131.93L540.54 131.99M540.54 131.99L540.54 132.02M540.54 132.02L540.52 132.04"/>
<path d="M533.48 268.14L533.23 270.06"/>
<path d="M540.52 270.03L540.54 270.05M540.54 270.05L540.54 270.08M540.54 270.08L540.55 270.13M540.55 270.13L540.54 270.25M540.54 270.25L540.51 270.48M540.51 270.48L540.42 270.94M540.42 270.94L540.32 271.39M540.32 271.39L540.2 271.84"/>
<path d="M504.72 281.56L506.64 282.36"/>
<path d="M546.8 271.71L547.86 271.51"/>
<path d="M546.8 130.36L547.86 130.56"/>
<path d="M506.64 119.71L504.72 120.51"/>
<path d="M504.72 275.81L502.81 277.73"/>
<path d="M539.33 111.14L539.31 111.17M539.31 111.17L539.31 111.2M539.31 111.2L539.3 111.26M539.3 111.26L539.31 111.37M539.31 111.37L539.34 111.61M539.34 111.61L539.43 112.08M539.43 112.08L539.54 112.54M539.54 112.54L539.66 113.01"/>
<path d="M539.66 289.06L539.54 289.52M539.54 289.52L539.43 289.99M539.43 289.99L539.34 290.46M539.34 290.46L539.31 290.69M539.31 290.69L539.3 290.81M539.3 290.81L539.31 290.87M539.31 290.87L539.31 290.9M539.31 290.9L539.33 290.92"/>
<path d="M539.66 113.01L547.1 111.02"/>
<path d="M547.1 291.05L539.66 289.06"/>
<path d="M533.01 112.84L533.26 114.75"/>
<path d="M533.01 289.23L533.26 287.31"/>
<path d="M533.48 133.93L533.23 132.01"/>
<path d="M540.19 130.14L540.2 130.23"/>
<path d="M540.2 271.84L540.19 271.92"/>
<path d="M21.51 163.37L23.33 162.45M23.33 162.45L26.07 159.72M26.07 159.72L26.07 178.89"/>
<path d="M29.73 231.04L28.81 233.78M28.81 233.78L26.99 235.61M26.99 235.61L24.25 236.52M24.25 236.52L23.33 236.52M23.33 236.52L20.6 235.61M20.6 235.61L18.77 233.78M18.77 233.78L17.86 231.04M17.86 231.04L17.86 230.13M17.86 230.13L18.77 227.39M18.77 227.39L20.6 225.57M20.6 225.57L23.33 224.65M23.33 224.65L24.25 224.65M24.25 224.65L26.99 225.57M26.99 225.57L28.81 227.39M28.81 227.39L29.73 231.04M29.73 231.04L29.73 235.61M29.73 235.61L28.81 240.17M28.81 240.17L26.99 242.91M26.99 242.91L24.25 243.83M24.25 243.83L22.42 243.83M22.42 243.83L19.68 242.91M19.68 242.91L18.77 241.09"/>
<path d="M557.99 159.72L555.25 160.63M555.25 160.63L554.34 162.45M554.34 162.45L554.34 164.28M554.34 164.28L555.25 166.11M555.25 166.11L557.08 167.02M557.08 167.02L560.73 167.93M560.73 167.93L563.47 168.85M563.47 168.85L565.3 170.67M565.3 170.67L566.21 172.5M566.21 172.5L566.21 175.24M566.21 175.24L565.3 177.06M565.3 177.06L564.38 177.98M564.38 177.98L561.65 178.89M561.65 178.89L557.99 178.89M557.99 178.89L555.25 177.98M555.25 177.98L554.34 177.06M554.34 177.06L553.43 175.24M553.43 175.24L553.43 172.5M553.43 172.5L554.34 170.67M554.34 170.67L556.17 168.85M556.17 168.85L558.91 167.93M558.91 167.93L562.56 167.02M562.56 167.02L564.38 166.11M564.38 166.11L565.3 164.28M565.3 164.28L565.3 162.45M565.3 162.45L564.38 160.63M564.38 160.63L561.65 159.72M561.65 159.72L557.99 159.72"/>
<path d="M555.67 228.31L557.49 227.39M557.49 227.39L560.23 224.65M560.23 224.65L560.23 243.83M581.23 227.39L580.32 225.57M580.32 225.57L577.58 224.65M577.58 224.65L575.75 224.65M575.75 224.65L573.01 225.57M573.01 225.57L571.19 228.31M571.19 228.31L570.27 232.87M570.27 232.87L570.27 237.44M570.27 237.44L571.19 241.09M571.19 241.09L573.01 242.91M573.01 242.91L575.75 243.83M575.75 243.83L576.67 243.83M576.67 243.83L579.4 242.91M579.4 242.91L581.23 241.09M581.23 241.09L582.14 238.35M582.14 238.35L582.14 237.44M582.14 237.44L581.23 234.7M581.23 234.7L579.4 232.87M579.4 232.87L576.67 231.96M576.67 231.96L575.75 231.96M575.75 231.96L573.01 232.87M573.01 232.87L571.19 234.7M571.19 234.7L570.27 237.44"/>
</g>
</g>
</svg>
