<?xml version="1.0" standalone="no"?><svg xmlns="http://www.w3.org/2000/svg" width="600.000" height="450.000" viewBox="0.0 0.0 600.000 450.000" version="1.1">
<title>Acme Converter - Post-processed with EDS-Designer: 14.44 (info@symca.com)</title>
<desc>Acme Converter - Post-processed with EDS-Designer: 14.44 (info@symca.com)</desc>
<g id="EDS_STYLE_GROUP" fill="none" stroke="black" stroke-width="1.0">
<g id="0" display="visible">
<path d="M102 198.27L102 175.2M102 175.2L109.69 190.58M109.69 190.58L117.38 175.2M117.38 175.2L117.38 198.27M128.91 198.27L125.07 194.42M125.07 194.42L125.07 190.58M125.07 190.58L128.91 186.73M128.91 186.73L136.6 186.73M136.6 186.73L140.45 182.89M140.45 182.89L140.45 179.04M140.45 179.04L136.6 175.2M136.6 175.2L128.91 175.2M128.91 175.2L125.07 179.04M125.07 179.04L125.07 182.89M125.07 182.89L128.91 186.73M136.6 186.73L140.45 190.58M140.45 190.58L140.45 194.42M140.45 194.42L136.6 198.27M136.6 198.27L128.91 198.27"/>
<path d="M72.2 192.5L74.19 178.69M74.19 178.69L79.98 166M79.98 166L89.12 155.45M89.12 155.45L100.86 147.91M100.86 147.91L114.25 143.98M114.25 143.98L128.2 143.98M128.2 143.98L141.59 147.91M141.59 147.91L153.32 155.45M153.32 155.45L162.46 166M162.46 166L168.26 178.69M168.26 178.69L170.24 192.5M170.24 192.5L168.26 206.31M168.26 206.31L162.46 219M162.46 219L153.32 229.55M153.32 229.55L141.59 237.09M141.59 237.09L128.2 241.02M128.2 241.02L114.25 241.02M114.25 241.02L100.86 237.09M100.86 237.09L89.12 229.55M89.12 229.55L79.98 219M79.98 219L74.19 206.31M74.19 206.31L72.2 192.5"/>
<path d="M60.46 94.46L230.46 94.46"/>
<path d="M60.46 290.54L230.46 290.54"/>
<path d="M60.46 94.46L43.49 107.29M43.49 107.29L29.16 123.02M29.16 123.02L17.96 141.11M17.96 141.11L10.28 160.95M10.28 160.95L6.37 181.86M6.37 181.86L6.37 203.14M6.37 203.14L10.28 224.05M10.28 224.05L17.96 243.89M17.96 243.89L29.16 261.99M29.16 261.99L43.49 277.71M43.49 277.71L60.46 290.54"/>
<path d="M357.67 123.3L547.98 123.3"/>
<path d="M357.67 261.71L547.98 261.71"/>
<path d="M262.51 100.23L246.81 95.59M246.81 95.59L230.46 94.46"/>
<path d="M262.51 100.23L285.23 109.81M285.23 109.81L308.85 116.9M308.85 116.9L333.09 121.41M333.09 121.41L357.67 123.3"/>
<path d="M547.98 261.71L558.62 259.84M558.62 259.84L568.69 254.34M568.69 254.34L577.64 245.51M577.64 245.51L584.99 233.83M584.99 233.83L590.35 219.91M590.35 219.91L593.42 204.52M593.42 204.52L594.04 188.48M594.04 188.48L592.18 172.65M592.18 172.65L587.94 157.9M587.94 157.9L581.54 145.01M581.54 145.01L573.33 134.68M573.33 134.68L563.76 127.47M563.76 127.47L553.34 123.76M553.34 123.76L542.63 123.76M542.63 123.76L532.2 127.47M532.2 127.47L522.63 134.68M522.63 134.68L514.42 145.01M514.42 145.01L508.03 157.9M508.03 157.9L503.78 172.65M503.78 172.65L501.92 188.48M501.92 188.48L502.55 204.52M502.55 204.52L505.62 219.91M505.62 219.91L510.98 233.83M510.98 233.83L518.33 245.51M518.33 245.51L527.28 254.34M527.28 254.34L537.34 259.84M537.34 259.84L547.98 261.71"/>
<path d="M547.98 241.52L555.29 239.54M555.29 239.54L562.01 233.74M562.01 233.74L567.6 224.6M567.6 224.6L571.59 212.86M571.59 212.86L573.67 199.48M573.67 199.48L573.67 185.52M573.67 185.52L571.59 172.14M571.59 172.14L567.6 160.4M567.6 160.4L562.01 151.26M562.01 151.26L555.29 145.47M555.29 145.47L547.98 143.48M547.98 143.48L540.67 145.47M540.67 145.47L533.95 151.26M533.95 151.26L528.37 160.4M528.37 160.4L524.38 172.14M524.38 172.14L522.3 185.52M522.3 185.52L522.3 199.48M522.3 199.48L524.38 212.86M524.38 212.86L528.37 224.6M528.37 224.6L533.95 233.74M533.95 233.74L540.67 239.54M540.67 239.54L547.98 241.52"/>
<path d="M357.67 261.71L333.09 263.59M333.09 263.59L308.85 268.1M308.85 268.1L285.23 275.19M285.23 275.19L262.51 284.77"/>
<path d="M230.46 290.54L246.81 289.41M246.81 289.41L262.51 284.77"/>
<path d="M357.66 123.44L340 124.02M340 124.02L322.91 127.87M322.91 127.87L307.19 134.8M307.19 134.8L293.62 144.49M293.62 144.49L282.83 156.47M282.83 156.47L275.33 170.17M275.33 170.17L271.49 184.94M271.49 184.94L271.49 200.07M271.49 200.07L275.33 214.83M275.33 214.83L282.83 228.53M282.83 228.53L293.62 240.51M293.62 240.51L307.19 250.2M307.19 250.2L322.91 257.14M322.91 257.14L340 260.98M340 260.98L357.66 261.56"/>
<path d="M184.72 355.59L184.72 327.91M186.04 327.91L186.04 355.59M176.81 327.91L175.49 335.82M175.49 335.82L175.49 327.91M175.49 327.91L195.26 327.91M195.26 327.91L195.26 335.82M195.26 335.82L193.94 327.91M180.76 355.59L189.99 355.59M204.49 355.59L204.49 327.91M205.81 327.91L205.81 355.59M200.54 327.91L209.76 327.91M200.54 355.59L209.76 355.59M218.99 355.59L218.99 327.91M220.31 355.59L220.31 327.91M220.31 327.91L236.13 352.96M220.31 330.55L236.13 355.59M236.13 355.59L236.13 327.91M215.04 327.91L220.31 327.91M232.17 327.91L240.08 327.91M215.04 355.59L222.94 355.59M276.99 355.59L276.99 327.91M278.31 327.91L278.31 355.59M273.04 327.91L288.85 327.91M288.85 327.91L292.81 329.23M292.81 329.23L294.13 330.55M294.13 330.55L295.44 333.18M295.44 333.18L295.44 337.14M295.44 337.14L294.13 339.77M294.13 339.77L292.81 341.09M292.81 341.09L288.85 342.41M288.85 342.41L278.31 342.41M288.85 327.91L291.49 329.23M291.49 329.23L292.81 330.55M292.81 330.55L294.13 333.18M294.13 333.18L294.13 337.14M294.13 337.14L292.81 339.77M292.81 339.77L291.49 341.09M291.49 341.09L288.85 342.41M273.04 355.59L282.26 355.59M305.99 355.59L305.99 327.91M307.31 327.91L307.31 355.59M302.04 327.91L311.26 327.91M302.04 355.59L321.81 355.59M321.81 355.59L321.81 347.68M321.81 347.68L320.49 355.59M337.63 327.91L328.4 355.59M337.63 327.91L346.85 355.59M337.63 331.87L345.54 355.59M331.04 347.68L342.9 347.68M325.76 355.59L333.67 355.59M341.58 355.59L349.49 355.59M362.67 355.59L362.67 327.91M363.99 327.91L363.99 355.59M354.76 327.91L353.44 335.82M353.44 335.82L353.44 327.91M353.44 327.91L373.22 327.91M373.22 327.91L373.22 335.82M373.22 335.82L371.9 327.91M358.72 355.59L367.94 355.59M382.44 355.59L382.44 327.91M383.76 327.91L383.76 355.59M391.67 335.82L391.67 346.37M378.49 327.91L399.58 327.91M399.58 327.91L399.58 335.82M399.58 335.82L398.26 327.91M383.76 341.09L391.67 341.09M378.49 355.59L399.58 355.59M399.58 355.59L399.58 347.68M399.58 347.68L398.26 355.59M410.13 355.59L410.13 327.91M411.44 327.91L411.44 355.59M406.17 327.91L419.35 327.91M419.35 327.91L423.31 329.23M423.31 329.23L425.94 331.87M425.94 331.87L427.26 334.5M427.26 334.5L428.58 338.46M428.58 338.46L428.58 345.05M428.58 345.05L427.26 349M427.26 349L425.94 351.64M425.94 351.64L423.31 354.27M423.31 354.27L419.35 355.59M419.35 355.59L406.17 355.59M419.35 327.91L421.99 329.23M421.99 329.23L424.63 331.87M424.63 331.87L425.94 334.5M425.94 334.5L427.26 338.46M427.26 338.46L427.26 345.05M427.26 345.05L425.94 349M425.94 349L424.63 351.64M424.63 351.64L421.99 354.27M421.99 354.27L419.35 355.59"/>
</g>
</g>
</svg>
