<?xml version="1.0" standalone="no"?><svg xmlns="http://www.w3.org/2000/svg" width="600.000" height="450.000" viewBox="0.0 0.0 600.000 450.000" version="1.1">
<title>Acme Converter - Post-processed with EDS-Designer: 14.44 (info@symca.com)</title>
<desc>Acme Converter - Post-processed with EDS-Designer: 14.44 (info@symca.com)</desc>
<g id="EDS_STYLE_GROUP" fill="none" stroke="black" stroke-width="1.0">
<g id="0" display="visible">
<path d="M243.73 389.51L243.73 362.67M245.01 362.67L245.01 389.51M239.89 362.67L255.23 362.67M255.23 362.67L259.07 363.94M259.07 363.94L260.35 365.22M260.35 365.22L261.62 367.78M261.62 367.78L261.62 370.34M261.62 370.34L260.35 372.89M260.35 372.89L259.07 374.17M259.07 374.17L255.23 375.45M255.23 362.67L257.79 363.94M257.79 363.94L259.07 365.22M259.07 365.22L260.35 367.78M260.35 367.78L260.35 370.34M260.35 370.34L259.07 372.89M259.07 372.89L257.79 374.17M257.79 374.17L255.23 375.45M245.01 375.45L255.23 375.45M255.23 375.45L259.07 376.73M259.07 376.73L260.35 378.01M260.35 378.01L261.62 380.56M261.62 380.56L261.62 384.4M261.62 384.4L260.35 386.95M260.35 386.95L259.07 388.23M259.07 388.23L255.23 389.51M255.23 389.51L239.89 389.51M255.23 375.45L257.79 376.73M257.79 376.73L259.07 378.01M259.07 378.01L260.35 380.56M260.35 380.56L260.35 384.4M260.35 384.4L259.07 386.95M259.07 386.95L257.79 388.23M257.79 388.23L255.23 389.51M271.85 389.51L271.85 362.67M273.13 362.67L273.13 389.51M280.8 370.34L280.8 380.56M268.02 362.67L288.47 362.67M288.47 362.67L288.47 370.34M288.47 370.34L287.19 362.67M273.13 375.45L280.8 375.45M268.02 389.51L288.47 389.51M288.47 389.51L288.47 381.84M288.47 381.84L287.19 389.51M298.7 389.51L298.7 362.67M299.97 362.67L299.97 389.51M294.86 362.67L303.81 362.67M294.86 389.51L303.81 389.51M326.82 366.5L328.1 370.34M328.1 370.34L328.1 362.67M328.1 362.67L326.82 366.5M326.82 366.5L324.26 363.94M324.26 363.94L320.43 362.67M320.43 362.67L317.87 362.67M317.87 362.67L314.04 363.94M314.04 363.94L311.48 366.5M311.48 366.5L310.2 369.06M310.2 369.06L308.92 372.89M308.92 372.89L308.92 379.28M308.92 379.28L310.2 383.12M310.2 383.12L311.48 385.68M311.48 385.68L314.04 388.23M314.04 388.23L317.87 389.51M317.87 389.51L320.43 389.51M320.43 389.51L324.26 388.23M324.26 388.23L326.82 385.68M317.87 362.67L315.31 363.94M315.31 363.94L312.76 366.5M312.76 366.5L311.48 369.06M311.48 369.06L310.2 372.89M310.2 372.89L310.2 379.28M310.2 379.28L311.48 383.12M311.48 383.12L312.76 385.68M312.76 385.68L315.31 388.23M315.31 388.23L317.87 389.51M326.82 379.28L326.82 389.51M328.1 379.28L328.1 389.51M322.98 379.28L331.93 379.28M342.16 389.51L342.16 362.67M343.44 362.67L343.44 389.51M351.11 370.34L351.11 380.56M338.32 362.67L358.78 362.67M358.78 362.67L358.78 370.34M358.78 370.34L357.5 362.67M343.44 375.45L351.11 375.45M338.32 389.51L358.78 389.51M358.78 389.51L358.78 381.84M358.78 381.84L357.5 389.51"/>
<path d="M361.28 133.84L361.4 133.84"/>
<path d="M336.41 142.35L337.11 142.35M337.35 142.35L337.39 142.35M337.63 142.35L338.6 142.35M338.84 142.35L338.88 142.35M339.12 142.35L340.09 142.35M340.33 142.35L340.37 142.35M340.61 142.35L341.58 142.35M341.82 142.35L341.86 142.35M342.1 142.35L342.79 142.35"/>
<path d="M247.95 89.53L247.56 89.53M247.42 89.53L247.4 89.53M247.27 89.53L246.72 89.53M246.59 89.53L246.57 89.53M246.43 89.53L245.89 89.53M245.75 89.53L245.73 89.53M245.6 89.53L245.05 89.53M244.92 89.53L244.9 89.53M244.76 89.53L244.37 89.53"/>
<path d="M354.03 89.53L353.64 89.53M353.51 89.53L353.49 89.53M353.35 89.53L352.81 89.53M352.67 89.53L352.65 89.53M352.51 89.53L351.97 89.53M351.84 89.53L351.81 89.53M351.68 89.53L351.14 89.53M351 89.53L350.98 89.53M350.84 89.53L350.46 89.53"/>
<path d="M393.82 306.05L398.07 306.05"/>
<path d="M398.07 306.05L398.07 140.82"/>
<path d="M398.07 140.82L393.82 140.82"/>
<path d="M393.82 306.05L393.82 140.82"/>
<path d="M393.82 306.05L396.77 309.11"/>
<path d="M396.77 309.11L397.73 307.71M397.73 307.71L398.07 306.05"/>
<path d="M398.07 311.37L398.07 306.06"/>
<path d="M398.07 311.37L398.07 320.37"/>
<path d="M398.07 140.82L396.76 135.71"/>
<path d="M396.76 135.71L393.03 137.75"/>
<path d="M393.82 140.82L393.03 137.75"/>
<path d="M356.73 331.57L358.53 335.42"/>
<path d="M358.53 335.42L378.75 323.86M378.75 323.86L396.77 309.11"/>
<path d="M356.73 331.57L376.34 320.35M376.34 320.35L393.82 306.05"/>
<path d="M396.56 323.62L397.67 322.16M397.67 322.16L398.07 320.37"/>
<path d="M395.95 313.69L397.5 312.71M397.5 312.71L398.07 311.37"/>
<path d="M395.95 313.68L396.77 309.11"/>
<path d="M395.95 313.68L395.85 322.77"/>
<path d="M395.85 322.78L397.47 321.77M397.47 321.77L398.07 320.37"/>
<path d="M396.76 135.71L364.63 77.06"/>
<path d="M364.63 77.06L360.9 79.1"/>
<path d="M393.03 137.75L360.9 79.1"/>
<path d="M356.73 331.57L356.73 335.82"/>
<path d="M241.68 331.57L356.73 331.57"/>
<path d="M241.68 331.57L241.68 335.82"/>
<path d="M241.68 335.82L356.73 335.82"/>
<path d="M241.68 331.57L239.89 335.42"/>
<path d="M204.6 306.05L222.08 320.35M222.08 320.35L241.68 331.57"/>
<path d="M201.64 309.11L204.6 306.05"/>
<path d="M201.64 309.11L219.67 323.86M219.67 323.86L239.89 335.42"/>
<path d="M204.6 306.05L200.34 306.05"/>
<path d="M204.6 140.82L204.6 306.05"/>
<path d="M200.34 140.82L204.6 140.82"/>
<path d="M200.34 140.82L200.34 306.05"/>
<path d="M201.65 135.71L205.38 137.75"/>
<path d="M201.65 135.71L200.34 140.82"/>
<path d="M205.38 137.75L204.6 140.82"/>
<path d="M233.79 77.06L237.52 79.1"/>
<path d="M233.79 77.06L201.65 135.71"/>
<path d="M237.52 79.1L205.38 137.75"/>
<path d="M261.76 60.49L261.76 64.75"/>
<path d="M261.76 60.49L253.33 61.63M253.33 61.63L245.5 64.95M245.5 64.95L238.83 70.22M238.83 70.22L233.79 77.06"/>
<path d="M261.76 64.75L252.11 66.48M252.11 66.48L243.68 71.48M243.68 71.48L237.52 79.1"/>
<path d="M336.66 60.49L336.66 64.75"/>
<path d="M336.66 60.49L261.76 60.49"/>
<path d="M336.66 64.75L261.76 64.75"/>
<path d="M364.63 77.06L359.58 70.22M359.58 70.22L352.91 64.95M352.91 64.95L345.08 61.63M345.08 61.63L336.66 60.49"/>
<path d="M360.9 79.1L354.74 71.48M354.74 71.48L346.3 66.48M346.3 66.48L336.66 64.75"/>
<path d="M322.59 158.56L322.59 146.6"/>
<path d="M353.42 140.22L353.42 146.6"/>
<path d="M353.42 138.1L353.42 140.22"/>
<path d="M369.58 140.22L353.42 140.22"/>
<path d="M369.58 138.1L369.58 140.22"/>
<path d="M369.58 138.1L353.42 138.1"/>
<path d="M375.17 128.65L377.04 127.63"/>
<path d="M369.58 138.1L373.64 136.63M373.64 136.63L375.84 132.92M375.84 132.92L375.17 128.65"/>
<path d="M369.58 140.22L373.79 139.11M373.79 139.11L376.9 136.05M376.9 136.05L378.08 131.86M378.08 131.86L377.04 127.63"/>
<path d="M349.01 80.9L350.87 79.88"/>
<path d="M349.01 80.9L375.17 128.65"/>
<path d="M350.87 79.88L377.04 127.63"/>
<path d="M339.68 75.38L339.68 73.25"/>
<path d="M349.01 80.9L345.1 76.86M345.1 76.86L339.68 75.38"/>
<path d="M350.87 79.88L346.18 75.03M346.18 75.03L339.68 73.25"/>
<path d="M258.73 75.38L258.73 73.25"/>
<path d="M258.73 75.38L339.68 75.38"/>
<path d="M258.73 73.25L339.68 73.25"/>
<path d="M249.41 80.9L247.54 79.88"/>
<path d="M258.73 75.38L253.31 76.86M253.31 76.86L249.41 80.9"/>
<path d="M258.73 73.25L252.23 75.03M252.23 75.03L247.54 79.88"/>
<path d="M223.24 128.65L221.38 127.63"/>
<path d="M223.24 128.65L249.41 80.9"/>
<path d="M221.38 127.63L247.54 79.88"/>
<path d="M228.83 138.1L228.83 140.22"/>
<path d="M223.24 128.65L222.57 132.92M222.57 132.92L224.77 136.63M224.77 136.63L228.83 138.1"/>
<path d="M221.38 127.63L220.33 131.86M220.33 131.86L221.52 136.05M221.52 136.05L224.62 139.11M224.62 139.11L228.83 140.22"/>
<path d="M244.99 140.22L244.99 138.1"/>
<path d="M244.99 138.1L228.83 138.1"/>
<path d="M244.99 140.22L228.83 140.22"/>
<path d="M244.99 140.22L244.99 146.6"/>
<path d="M356.73 335.82L358.53 335.42"/>
<path d="M395.85 322.77L396.56 323.62"/>
<path d="M380.98 335.14L396.56 323.62"/>
<path d="M336.95 138.1L342.26 138.1"/>
<path d="M366.85 334.34L382.05 324.92M382.05 324.92L395.95 313.68"/>
<path d="M358.53 335.42L366.85 334.34"/>
<path d="M380.38 334.21L395.85 322.78"/>
<path d="M380.38 334.21L366.85 334.34"/>
<path d="M239.89 335.42L241.68 335.82"/>
<path d="M378.67 335.82L365.37 335.82"/>
<path d="M356.73 335.82L365.37 335.82"/>
<path d="M200.34 306.05L200.68 307.71M200.68 307.71L201.64 309.11"/>
<path d="M275.82 146.6L322.59 146.6"/>
<path d="M361.29 138.1L361.29 133.84"/>
<path d="M336.95 142.35L342.26 142.35"/>
<path d="M336.95 142.35L336.95 146.6"/>
<path d="M361.29 133.84L361.39 133.84"/>
<path d="M361.39 133.84L361.39 112.58"/>
<path d="M361.39 112.58L366.37 112.58"/>
<path d="M353.73 89.53L350.76 89.53"/>
<path d="M350.76 89.53L350.76 133.84"/>
<path d="M342.26 142.35L346.51 141.21M346.51 141.21L349.62 138.1M349.62 138.1L350.76 133.84"/>
<path d="M336.95 138.1L336.95 142.35"/>
<path d="M261.47 138.1L261.47 146.6"/>
<path d="M261.47 138.1L255.01 138.1"/>
<path d="M255.01 138.1L252.23 137.45M252.23 137.45L249.2 135.35M249.2 135.35L247.65 133.84"/>
<path d="M247.65 133.84L247.65 89.53"/>
<path d="M247.65 89.53L244.68 89.53"/>
<path d="M232.05 112.58L237.02 112.58"/>
<path d="M237.02 112.58L237.02 133.84"/>
<path d="M232.76 137.29L237.02 133.84"/>
<path d="M231.53 137.8L232.76 137.29"/>
<path d="M234.71 138.09L233.15 137.63M233.15 137.63L231.53 137.8"/>
<path d="M262 129.59L262 146.6"/>
<path d="M336.41 129.59L336.41 146.6"/>
<path d="M262 84.94L262 107.27"/>
<path d="M262 84.94L262 80.69"/>
<path d="M336.41 80.69L336.41 84.94"/>
<path d="M336.41 107.27L336.41 84.94"/>
<path d="M380.38 334.21L380.98 335.14"/>
<path d="M378.67 335.82L380.98 335.14"/>
<path d="M342.26 138.1L344.39 137.53M344.39 137.53L345.94 135.97M345.94 135.97L346.51 133.84"/>
<path d="M365.65 133.84L366.89 136.85M366.89 136.85L369.9 138.1"/>
<path d="M365.65 133.84L364.41 133.84"/>
<path d="M364.41 133.84L361.39 133.84"/>
<path d="M361.39 133.84L361.39 138.1"/>
<path d="M342.26 142.35L342.26 138.1"/>
<path d="M365.37 335.82L366.18 335.43M366.18 335.43L366.85 334.34"/>
<path d="M378.67 335.82L379.62 335.4M379.62 335.4L380.38 334.21"/>
<path d="M365.65 133.84L365.65 116.84"/>
<path d="M365.65 116.84L361.39 112.58"/>
<path d="M365.65 116.84L368.7 116.84"/>
<path d="M350.76 89.53L350.76 85.84"/>
<path d="M351.72 85.84L350.76 85.84"/>
<path d="M346.51 89.53L350.76 89.53"/>
<path d="M346.51 89.53L346.51 112.3"/>
<path d="M346.51 129.59L346.51 133.84"/>
<path d="M346.51 133.84L347.03 133.84M347.03 133.84L350.76 133.84"/>
<path d="M251.9 133.84L253.15 136.85M253.15 136.85L256.15 138.1"/>
<path d="M247.65 133.84L251.9 133.84"/>
<path d="M247.65 89.53L251.9 89.53"/>
<path d="M251.9 133.84L251.9 129.59"/>
<path d="M251.9 112.3L251.9 89.53"/>
<path d="M247.65 85.84L247.65 89.53"/>
<path d="M247.65 85.84L246.7 85.84"/>
<path d="M229.72 116.84L232.77 116.84"/>
<path d="M232.77 116.84L237.02 112.58"/>
<path d="M232.77 116.84L232.77 133.84"/>
<path d="M232.77 133.84L234.01 133.84"/>
<path d="M234.01 133.84L237.02 133.84"/>
<path d="M228.51 138.1L230.64 137.53M230.64 137.53L232.2 135.97M232.2 135.97L232.77 133.84"/>
<path d="M231.88 137.91L231.53 137.8"/>
<path d="M231.89 137.9L232.77 138.1"/>
<path d="M345.98 129.59L348.11 129.59"/>
<path d="M345.98 129.59L252.43 129.59"/>
<path d="M250.31 129.59L252.43 129.59"/>
<path d="M266.25 76.44L264.13 77.01M264.13 77.01L262.57 78.57M262.57 78.57L262 80.69"/>
<path d="M266.25 76.44L332.16 76.44"/>
<path d="M336.41 80.69L335.84 78.57M335.84 78.57L334.29 77.01M334.29 77.01L332.16 76.44"/>
<path d="M266.25 80.69L264.13 81.26M264.13 81.26L262.57 82.82M262.57 82.82L262 84.94"/>
<path d="M266.25 106.82L264.25 107.27"/>
<path d="M266.25 81.14L266.25 106.82"/>
<path d="M266.25 81.14L263.25 82.25M263.25 82.25L262 84.94"/>
<path d="M266.25 106.82L266.25 107.27"/>
<path d="M334.17 107.27L332.16 106.82"/>
<path d="M332.16 107.27L332.16 106.82"/>
<path d="M336.41 84.94L335.84 83.04M335.84 83.04L334.29 81.65M334.29 81.65L332.16 81.14"/>
<path d="M332.16 106.82L332.16 81.14"/>
<path d="M336.41 84.94L335.84 82.82M335.84 82.82L334.29 81.26M334.29 81.26L332.16 80.69"/>
<path d="M346.51 89.53L346.51 82.82"/>
<path d="M350.76 85.84L347.76 86.92M347.76 86.92L346.51 89.53"/>
<path d="M350.76 85.84L350.76 84.11"/>
<path d="M251.9 89.53L250.66 86.92M250.66 86.92L247.65 85.84"/>
<path d="M251.9 82.82L251.9 89.53"/>
<path d="M247.65 84.11L247.65 85.84"/>
<path d="M348.11 117.9L348.11 121.67"/>
<path d="M348.11 121.67L348.11 129.59"/>
<path d="M337.48 116.2L339.49 116.42"/>
<path d="M337.48 116.2L337.48 125.34"/>
<path d="M337.48 125.34L344.1 129.13M344.1 129.13L345.98 129.59"/>
<path d="M339.49 116.42L342.82 117.05M342.82 117.05L345.64 118.25M345.64 118.25L347.72 120.24M347.72 120.24L348.11 121.67"/>
<path d="M337.48 125.34L260.94 125.34"/>
<path d="M252.43 129.59L253.46 129.43M253.46 129.43L255.99 128.32M255.99 128.32L260.94 125.34"/>
<path d="M250.31 121.67L250.49 120.67M250.49 120.67L251.89 118.87M251.89 118.87L254.98 117.24M254.98 117.24L258.92 116.42"/>
<path d="M250.31 129.59L250.31 121.67"/>
<path d="M260.94 125.34L260.94 116.2"/>
<path d="M258.92 116.42L260.94 116.2"/>
<path d="M250.31 121.67L250.31 117.9"/>
<path d="M266.25 81.14L266.25 80.69"/>
<path d="M332.16 80.69L266.25 80.69"/>
<path d="M332.16 81.14L266.25 81.14"/>
<path d="M266.25 106.82L291.77 106.82"/>
<path d="M306.65 106.82L332.16 106.82"/>
<path d="M299.21 107.27L260.94 107.27"/>
<path d="M337.48 107.27L299.21 107.27"/>
<path d="M332.16 80.69L332.16 81.14"/>
<path d="M348.1 79.51L346.93 80.98M346.93 80.98L346.51 82.82"/>
<path d="M200.34 236.01L200.34 217.82"/>
<path d="M200.34 214.63L200.34 208.04"/>
<path d="M200.34 203.62L200.34 194.23"/>
<path d="M200.34 193.26L200.34 194.23"/>
<path d="M200.34 212.77L200.34 212.66"/>
<path d="M200.34 213.55L200.34 212.77"/>
<path d="M200.34 214.63L200.34 213.55"/>
<path d="M200.34 219.09L200.34 217.74"/>
<path d="M200.34 220.02L200.34 219.09"/>
<path d="M200.34 221.45L200.34 220.02"/>
<path d="M200.34 223.72L200.34 221.45"/>
<path d="M200.34 224.62L200.34 223.72"/>
<path d="M200.34 212.66L200.34 208.04"/>
<path d="M200.34 203.75L200.34 203.62"/>
<path d="M200.34 203.97L200.34 203.75"/>
<path d="M200.34 204.46L200.34 203.97"/>
<path d="M200.34 204.76L200.34 204.46"/>
<path d="M200.34 205.27L200.34 204.76"/>
<path d="M200.34 205.67L200.34 205.27"/>
<path d="M200.34 206.16L200.34 205.67"/>
<path d="M200.34 206.41L200.34 206.16"/>
<path d="M200.34 206.5L200.34 206.41"/>
<path d="M200.34 206.61L200.34 206.5"/>
<path d="M200.34 207.82L200.34 206.41"/>
<path d="M200.34 208.04L200.34 207.82"/>
<path d="M200.34 228.42L200.34 227.96"/>
<path d="M200.34 224.89L200.34 224.62"/>
<path d="M200.34 227.96L200.34 224.89"/>
<path d="M200.34 234.52L200.34 232.48"/>
<path d="M200.34 236.03L200.34 234.52"/>
<path d="M200.34 231.55L200.34 231.37"/>
<path d="M200.34 231.78L200.34 231.55"/>
<path d="M200.34 232.04L200.34 231.78"/>
<path d="M200.34 232.16L200.34 232.04"/>
<path d="M200.34 232.42L200.34 232.16"/>
<path d="M200.34 236.42L200.34 236.03"/>
<path d="M200.34 236.87L200.34 236.42"/>
<path d="M200.34 237.23L200.34 236.87"/>
<path d="M200.34 237.51L200.34 237.23"/>
<path d="M200.34 237.6L200.34 237.51"/>
<path d="M200.34 199.51L200.34 199.48"/>
<path d="M200.34 199.57L200.34 199.51"/>
<path d="M200.34 199.72L200.34 199.57"/>
<path d="M200.34 200.12L200.34 199.72"/>
<path d="M200.34 200.43L200.34 200.12"/>
<path d="M200.34 200.64L200.34 200.43"/>
<path d="M200.34 200.97L200.34 200.64"/>
<path d="M200.34 201.34L200.34 200.97"/>
<path d="M200.34 201.86L200.34 201.34"/>
<path d="M200.34 202.36L200.34 201.86"/>
<path d="M200.34 202.78L200.34 202.36"/>
<path d="M200.34 203.03L200.34 202.78"/>
<path d="M200.34 203.12L200.34 203.03"/>
<path d="M200.34 198.17L200.34 197.9"/>
<path d="M200.34 197.9L200.34 195.93"/>
<path d="M200.34 197.28L200.34 197.01"/>
<path d="M200.34 197.01L200.34 195.93"/>
<path d="M200.34 191.76L200.34 191.67"/>
<path d="M200.34 191.94L200.34 191.76"/>
<path d="M200.34 192.31L200.34 191.94"/>
<path d="M200.34 192.67L200.34 192.31"/>
<path d="M200.34 192.85L200.34 192.67"/>
<path d="M200.34 193.21L200.34 192.85"/>
<path d="M200.34 193.48L200.34 193.21"/>
<path d="M200.34 195.47L200.34 193.48"/>
<path d="M200.34 195.93L200.34 195.47"/>
<path d="M200.34 214.81L200.34 214.72"/>
<path d="M200.34 215.17L200.34 214.81"/>
<path d="M200.34 215.52L200.34 215.17"/>
<path d="M200.34 216.14L200.34 215.52"/>
<path d="M200.34 216.32L200.34 216.14"/>
<path d="M200.34 216.94L200.34 216.32"/>
<path d="M200.34 217.29L200.34 216.94"/>
<path d="M200.34 217.65L200.34 217.29"/>
<path d="M200.34 217.74L200.34 217.65"/>
<path d="M200.34 217.82L200.34 217.74"/>
<path d="M200.34 272.45L200.34 269.79"/>
<path d="M200.34 279.63L200.34 272.45"/>
<path d="M200.34 282.67L200.34 279.63"/>
<path d="M200.34 262.85L200.34 261.24"/>
<path d="M200.34 266.76L200.34 262.85"/>
<path d="M200.34 269.79L200.34 266.76"/>
<path d="M251.9 82.82L251.49 80.98M251.49 80.98L250.32 79.51"/>
<path d="M348.11 117.9L346.68 112.58M346.68 112.58L342.79 108.69M342.79 108.69L337.48 107.27"/>
<path d="M339.49 107.46L339.49 112.3"/>
<path d="M339.49 112.3L344.92 114.86M344.92 114.86L347.77 119.3M347.77 119.3L348.11 121.67"/>
<path d="M338.26 112.09L337.48 116.2"/>
<path d="M339.49 116.42L339.72 113.77M339.72 113.77L339.49 112.31"/>
<path d="M338.26 112.09L339.49 112.3"/>
<path d="M337.48 116.2L312.03 113.01M312.03 113.01L286.38 113.01M286.38 113.01L260.94 116.2"/>
<path d="M258.92 112.3L258.69 113.77M258.69 113.77L258.92 116.42"/>
<path d="M250.31 121.67L251.75 116.87M251.75 116.87L255.96 113.24M255.96 113.24L258.92 112.3"/>
<path d="M260.16 112.09L260.94 116.2"/>
<path d="M258.92 112.3L260.16 112.09"/>
<path d="M260.94 107.27L255.62 108.69M255.62 108.69L251.73 112.58M251.73 112.58L250.31 117.9"/>
<path d="M258.92 112.3L258.92 107.46"/>
<path d="M338.27 112.09L312.3 108.83M312.3 108.83L286.13 108.83M286.13 108.83L260.17 112.09"/>
<path d="M306.65 95.57L306.65 107.27"/>
<path d="M291.77 95.57L306.65 95.57"/>
<path d="M291.77 95.57L291.77 107.27"/>
<path d="M275.82 158.56L275.82 146.6"/>
<path d="M244.99 146.6L275.82 146.6"/>
<path d="M322.59 146.6L353.42 146.6"/>
<path d="M218.95 323.36L219.33 323.63"/>
<path d="M218.95 323.36L219.33 323.63"/>
<path d="M229.31 159.96L234.94 154.34"/>
<path d="M234.94 154.34L251.38 170.78"/>
<path d="M275.82 158.56L263.08 163.63M263.08 163.63L251.38 170.78"/>
<path d="M322.59 158.56L307.1 155.49M307.1 155.49L291.31 155.49M291.31 155.49L275.82 158.56"/>
<path d="M364.32 283.72L372.94 268.93M372.94 268.93L378.24 252.65M378.24 252.65L380 235.62M380 235.62L378.13 218.61M378.13 218.61L372.71 202.37M372.71 202.37L364 187.63M364 187.63L352.37 175.06M352.37 175.06L338.36 165.23M338.36 165.23L322.59 158.56"/>
<path d="M364.32 283.72L380.76 300.16"/>
<path d="M380.76 300.16L363.48 317.45"/>
<path d="M274.57 312.84L289.46 316.1M289.46 316.1L304.7 316.5M304.7 316.5L319.75 314.03M319.75 314.03L334.06 308.78M334.06 308.78L347.13 300.94"/>
<path d="M240.21 235.9L242.06 221.22M242.06 221.22L247.51 207.47M247.51 207.47L256.2 195.51M256.2 195.51L267.59 186.08M267.59 186.08L280.98 179.78M280.98 179.78L295.5 177.01M295.5 177.01L310.26 177.94M310.26 177.94L324.33 182.51M324.33 182.51L336.81 190.44M336.81 190.44L346.94 201.22M346.94 201.22L354.06 214.18M354.06 214.18L357.74 228.5M357.74 228.5L357.74 243.29M357.74 243.29L354.06 257.61M354.06 257.61L346.94 270.57M346.94 270.57L336.81 281.35M336.81 281.35L324.33 289.28M324.33 289.28L310.26 293.85M310.26 293.85L295.5 294.78M295.5 294.78L280.98 292.01M280.98 292.01L267.59 285.71M267.59 285.71L256.2 276.28M256.2 276.28L247.51 264.32M247.51 264.32L242.06 250.57M242.06 250.57L240.21 235.9"/>
<path d="M347.13 300.94L362.71 316.68"/>
<path d="M234.67 187.29L227.22 202.15M227.22 202.15L222.76 218.17M222.76 218.17L221.45 234.75M221.45 234.75L223.35 251.27M223.35 251.27L228.39 267.12M228.39 267.12L236.37 281.71M236.37 281.71L247.01 294.49M247.01 294.49L259.9 305M259.9 305L274.57 312.84"/>
<path d="M231.17 183.75L234.67 187.29"/>
<path d="M229.31 159.96L231.17 183.75"/>
<path d="M173.54 224.13L175.58 223.11M175.58 223.11L178.65 220.04M178.65 220.04L178.65 241.52"/>
</g>
</g>
</svg>
