<?xml version="1.0" standalone="no"?><svg xmlns="http://www.w3.org/2000/svg" width="600.000" height="450.000" viewBox="0.0 0.0 600.000 450.000" version="1.1">
<title>Acme Converter - Post-processed with EDS-Designer: 14.44 (info@symca.com)</title>
<desc>Acme Converter - Post-processed with EDS-Designer: 14.44 (info@symca.com)</desc>
<g id="EDS_STYLE_GROUP" fill="none" stroke="black" stroke-width="1.0">
<g id="0" display="visible">
<path d="M261.91 366.8L263.37 371.18M263.37 371.18L263.37 362.43M263.37 362.43L261.91 366.8M261.91 366.8L259 363.89M259 363.89L254.62 362.43M254.62 362.43L251.7 362.43M251.7 362.43L247.32 363.89M247.32 363.89L244.4 366.8M244.4 366.8L242.95 369.72M242.95 369.72L241.49 374.1M241.49 374.1L241.49 381.39M241.49 381.39L242.95 385.77M242.95 385.77L244.4 388.69M244.4 388.69L247.32 391.61M247.32 391.61L251.7 393.07M251.7 393.07L254.62 393.07M254.62 393.07L259 391.61M259 391.61L261.91 388.69M251.7 362.43L248.78 363.89M248.78 363.89L245.86 366.8M245.86 366.8L244.4 369.72M244.4 369.72L242.95 374.1M242.95 374.1L242.95 381.39M242.95 381.39L244.4 385.77M244.4 385.77L245.86 388.69M245.86 388.69L248.78 391.61M248.78 391.61L251.7 393.07M261.91 381.39L261.91 393.07M263.37 381.39L263.37 393.07M257.54 381.39L267.75 381.39M279.42 393.07L279.42 362.43M280.88 362.43L280.88 393.07M275.05 362.43L292.56 362.43M292.56 362.43L296.93 363.89M296.93 363.89L298.39 365.34M298.39 365.34L299.85 368.26M299.85 368.26L299.85 371.18M299.85 371.18L298.39 374.1M298.39 374.1L296.93 375.56M296.93 375.56L292.56 377.02M292.56 377.02L280.88 377.02M292.56 362.43L295.47 363.89M295.47 363.89L296.93 365.34M296.93 365.34L298.39 368.26M298.39 368.26L298.39 371.18M298.39 371.18L296.93 374.1M296.93 374.1L295.47 375.56M295.47 375.56L292.56 377.02M275.05 393.07L285.26 393.07M288.18 377.02L291.1 378.48M291.1 378.48L292.56 379.94M292.56 379.94L296.93 390.15M296.93 390.15L298.39 391.61M298.39 391.61L299.85 391.61M299.85 391.61L301.31 390.15M291.1 378.48L292.56 381.39M292.56 381.39L295.47 391.61M295.47 391.61L296.93 393.07M296.93 393.07L299.85 393.07M299.85 393.07L301.31 390.15M301.31 390.15L301.31 388.69M311.52 393.07L311.52 362.43M312.98 362.43L312.98 393.07M321.74 371.18L321.74 382.85M307.15 362.43L330.49 362.43M330.49 362.43L330.49 371.18M330.49 371.18L329.03 362.43M312.98 377.02L321.74 377.02M307.15 393.07L330.49 393.07M330.49 393.07L330.49 384.31M330.49 384.31L329.03 393.07M340.71 362.43L350.92 378.48M350.92 378.48L350.92 393.07M342.16 362.43L352.38 378.48M352.38 378.48L352.38 393.07M362.59 362.43L352.38 378.48M337.79 362.43L346.54 362.43M356.76 362.43L365.51 362.43M346.54 393.07L356.76 393.07"/>
<path d="M446.51 216.12L448.84 214.95M448.84 214.95L452.34 211.45M452.34 211.45L452.34 235.96"/>
<path d="M148.79 219.04L148.79 217.87M148.79 217.87L149.95 215.54M149.95 215.54L151.12 214.37M151.12 214.37L153.46 213.2M153.46 213.2L158.13 213.2M158.13 213.2L160.46 214.37M160.46 214.37L161.63 215.54M161.63 215.54L162.79 217.87M162.79 217.87L162.79 220.2M162.79 220.2L161.63 222.54M161.63 222.54L159.29 226.04M159.29 226.04L147.62 237.71M147.62 237.71L163.96 237.71"/>
<path d="M167.47 200.33L167.47 251.81"/>
<path d="M172.99 200.33L172.99 251.81"/>
<path d="M279.62 331.78L327.42 331.78"/>
<path d="M277.78 329.95L296.17 329.95"/>
<path d="M310.88 329.95L329.26 329.95"/>
<path d="M241.01 325.35L277.78 325.35"/>
<path d="M329.26 325.35L366.03 325.35"/>
<path d="M178.5 62.45L178.5 137.83"/>
<path d="M184.02 56.93L184.02 135.54"/>
<path d="M187.7 221.48L187.7 230.67"/>
<path d="M241.01 319.83L277.78 319.83"/>
<path d="M329.26 319.83L366.03 319.83"/>
<path d="M196.89 221.48L196.89 230.67"/>
<path d="M199.43 230.67L199.43 221.48"/>
<path d="M262.16 305.13L344.89 305.13"/>
<path d="M262.16 295.93L344.89 295.93"/>
<path d="M207.92 230.67L207.92 221.48"/>
<path d="M213.1 230.67L213.1 221.48"/>
<path d="M213.77 230.67L213.77 221.48"/>
<path d="M214.18 238.77L214.18 213.37"/>
<path d="M344.89 293.4L262.16 293.4"/>
<path d="M344.89 284.9L262.16 284.9"/>
<path d="M344.89 279.73L262.16 279.73"/>
<path d="M292.52 279.35L314.52 279.35"/>
<path d="M344.89 279.06L314.49 279.06"/>
<path d="M292.55 279.06L262.16 279.06"/>
<path d="M344.89 277.55L314.36 277.55"/>
<path d="M292.68 277.55L262.16 277.55"/>
<path d="M229.06 266.33L229.06 185.81"/>
<path d="M229.25 199.41L229.25 204.93"/>
<path d="M232.92 201.25L232.92 208.61"/>
<path d="M235.5 192.09L235.5 181.09"/>
<path d="M236.6 182.17L236.6 184.71"/>
<path d="M239.17 62.45L239.17 91.86"/>
<path d="M239.17 119.44L239.17 102.89"/>
<path d="M307.67 258.83L299.37 258.83"/>
<path d="M241.01 319.83L241.01 325.35"/>
<path d="M246.72 184.71L246.72 192.06"/>
<path d="M248.37 192.09L248.37 199.41"/>
<path d="M248.37 208.61L248.37 210.26"/>
<path d="M248.37 213.2L248.37 238.94"/>
<path d="M253.15 192.06L253.15 184.71"/>
<path d="M172.99 251.81L167.47 251.81"/>
<path d="M434.05 251.81L439.57 251.81"/>
<path d="M248.37 213.2L255.26 220.1"/>
<path d="M254.34 197.6L254.34 199.41"/>
<path d="M254.34 208.61L254.34 210.26"/>
<path d="M255.26 220.1L255.26 232.05"/>
<path d="M262.16 295.93L262.16 305.13"/>
<path d="M262.16 293.4L262.16 277.55"/>
<path d="M262.16 178.27L262.16 174.6"/>
<path d="M262.16 173.09L262.16 158.75"/>
<path d="M262.16 156.21L262.16 147.02"/>
<path d="M265.1 182.87L265.1 201.25"/>
<path d="M265.1 182.87L264.7 184.71"/>
<path d="M248.37 238.94L285.14 238.94"/>
<path d="M321.91 238.94L358.68 238.94"/>
<path d="M255.26 232.05L278.24 232.05"/>
<path d="M328.8 232.05L351.78 232.05"/>
<path d="M178.5 137.83L209.51 168.83"/>
<path d="M285.14 238.94L278.24 232.05"/>
<path d="M184.02 135.54L213.55 165.07"/>
<path d="M277.78 329.95L277.78 305.13"/>
<path d="M277.78 147.02L277.78 122.2"/>
<path d="M278.24 220.1L278.24 232.05"/>
<path d="M251.78 175.76L246.72 177.21"/>
<path d="M252.7 179.32L240.32 182.87"/>
<path d="M196.89 230.67L187.7 230.67"/>
<path d="M199.43 230.67L214.18 230.67"/>
<path d="M391.77 230.67L407.61 230.67"/>
<path d="M410.15 230.67L419.35 230.67"/>
<path d="M391.77 229.75L364.19 229.75"/>
<path d="M316.39 229.75L290.65 229.75"/>
<path d="M391.77 226.07L367.87 226.07"/>
<path d="M312.71 226.07L294.33 226.07"/>
<path d="M196.89 221.48L187.7 221.48"/>
<path d="M199.43 221.48L214.18 221.48"/>
<path d="M391.77 221.48L407.61 221.48"/>
<path d="M410.15 221.48L419.35 221.48"/>
<path d="M255.26 220.1L278.24 220.1"/>
<path d="M328.8 220.1L351.78 220.1"/>
<path d="M279.62 331.78L279.62 305.13"/>
<path d="M279.62 147.02L279.62 120.36"/>
<path d="M280.72 192.06L280.72 174.6"/>
<path d="M284.4 192.06L284.4 178.27"/>
<path d="M285.14 238.94L285.14 213.2"/>
<path d="M285.14 91.86L285.14 75.32"/>
<path d="M290.16 201.25L290.16 192.06"/>
<path d="M290.65 229.75L290.65 210.26"/>
<path d="M290.65 97.38L290.65 69.8"/>
<path d="M291.97 199.72L291.97 192.06"/>
<path d="M358.68 213.2L321.91 213.2"/>
<path d="M285.14 213.2L248.37 213.2"/>
<path d="M229.06 210.26L294.33 210.26"/>
<path d="M312.71 210.26L367.87 210.26"/>
<path d="M232.92 208.61L346.91 208.61"/>
<path d="M312.71 226.07L316.39 229.75"/>
<path d="M292.49 113.07L292.49 120.36"/>
<path d="M294.33 226.07L294.33 208.63"/>
<path d="M296.17 120.36L296.17 147.02"/>
<path d="M296.17 305.13L296.17 331.78"/>
<path d="M297.87 192.06L297.87 184.71"/>
<path d="M300.95 199.41L300.95 177.35"/>
<path d="M293.88 263.87L292.52 279.35"/>
<path d="M291.97 199.72L292.03 199.41"/>
<path d="M248.37 238.94L255.26 232.05"/>
<path d="M285.14 213.2L278.24 220.1"/>
<path d="M291.97 199.72L290.16 201.25"/>
<path d="M229.25 204.93L350.59 204.93"/>
<path d="M330.12 201.25L290.16 201.25"/>
<path d="M265.1 201.25L232.92 201.25"/>
<path d="M172.99 200.33L167.47 200.33"/>
<path d="M434.05 200.33L439.57 200.33"/>
<path d="M328.25 199.41L292.03 199.41"/>
<path d="M229.25 199.41L265.1 199.41"/>
<path d="M248.37 197.6L254.34 197.6"/>
<path d="M350.59 193.44L346.91 193.44"/>
<path d="M321.91 213.2L328.8 220.1"/>
<path d="M314.52 279.35L313.16 263.87"/>
<path d="M310.88 120.36L310.88 147.02"/>
<path d="M310.88 305.13L310.88 331.78"/>
<path d="M312.71 208.61L312.71 226.07"/>
<path d="M312.79 177.35L312.79 174.6"/>
<path d="M314.55 120.36L314.55 113.07"/>
<path d="M316.39 210.26L316.39 229.75"/>
<path d="M316.39 97.38L316.39 69.8"/>
<path d="M319.33 193.49L315.91 199.41"/>
<path d="M235.5 192.09L265.1 192.09"/>
<path d="M350.59 192.06L350.32 192.06"/>
<path d="M319.33 192.06L300.95 192.06"/>
<path d="M246.72 192.06L265.1 192.06"/>
<path d="M280.72 192.06L297.87 192.06"/>
<path d="M322.41 192.06L334.04 192.06"/>
<path d="M264.7 184.71L236.6 184.71"/>
<path d="M297.87 184.71L300.95 184.71"/>
<path d="M319.33 184.71L322.41 184.71"/>
<path d="M334.04 183.48L330.36 183.48"/>
<path d="M265.1 182.87L240.32 182.87"/>
<path d="M328.3 199.72L330.12 201.25"/>
<path d="M358.68 238.94L351.78 232.05"/>
<path d="M319.33 199.41L319.33 177.35"/>
<path d="M321.91 75.32L321.91 91.86"/>
<path d="M321.91 213.2L321.91 238.94"/>
<path d="M321.91 210.26L321.91 208.61"/>
<path d="M322.41 192.06L322.41 184.71"/>
<path d="M327.42 331.78L327.42 305.13"/>
<path d="M327.42 147.02L327.42 120.36"/>
<path d="M327.88 208.61L327.88 210.26"/>
<path d="M328.3 192.06L328.3 199.72"/>
<path d="M328.8 220.1L328.8 232.05"/>
<path d="M329.26 122.2L329.26 147.02"/>
<path d="M329.26 305.13L329.26 329.95"/>
<path d="M330.12 192.06L330.12 201.25"/>
<path d="M330.36 183.48L330.36 192.06"/>
<path d="M335.74 180.22L334.04 183.48"/>
<path d="M294.33 226.07L290.65 229.75"/>
<path d="M300.95 178.27L262.16 178.27"/>
<path d="M319.33 177.35L300.95 177.35"/>
<path d="M312.79 174.6L262.16 174.6"/>
<path d="M262.16 173.09L344.89 173.09"/>
<path d="M262.16 172.42L344.89 172.42"/>
<path d="M262.16 167.24L344.89 167.24"/>
<path d="M328.25 199.41L328.3 199.72"/>
<path d="M334.04 183.48L334.04 192.06"/>
<path d="M346.91 193.44L349.64 190.98"/>
<path d="M262.16 158.75L344.89 158.75"/>
<path d="M344.89 156.21L262.16 156.21"/>
<path d="M344.89 295.93L344.89 305.13"/>
<path d="M344.89 293.4L344.89 277.55"/>
<path d="M344.89 173.09L344.89 158.75"/>
<path d="M344.89 156.21L344.89 147.02"/>
<path d="M346.91 208.61L346.91 193.44"/>
<path d="M350.59 173.43L350.59 174.94"/>
<path d="M350.59 204.93L350.59 193.44"/>
<path d="M351.78 220.1L351.78 232.05"/>
<path d="M393.49 165.07L423.02 135.54"/>
<path d="M321.91 238.94L328.8 232.05"/>
<path d="M397.54 168.83L428.54 137.83"/>
<path d="M358.68 213.2L351.78 220.1"/>
<path d="M344.89 147.02L262.16 147.02"/>
<path d="M358.68 238.94L358.68 213.2"/>
<path d="M364.19 229.75L364.19 210.26"/>
<path d="M366.03 319.83L366.03 325.35"/>
<path d="M367.87 102.89L367.87 119.44"/>
<path d="M367.87 226.07L367.87 208.63"/>
<path d="M367.87 91.86L367.87 62.45"/>
<path d="M367.87 226.07L364.19 229.75"/>
<path d="M277.78 122.2L296.17 122.2"/>
<path d="M310.88 122.2L329.26 122.2"/>
<path d="M279.62 120.36L327.42 120.36"/>
<path d="M428.54 119.44L314.55 119.44"/>
<path d="M292.49 119.44L178.5 119.44"/>
<path d="M391.77 221.48L391.77 230.67"/>
<path d="M393.27 221.48L393.27 230.67"/>
<path d="M393.95 221.48L393.95 230.67"/>
<path d="M367.87 113.07L314.55 113.07"/>
<path d="M292.49 113.07L239.17 113.07"/>
<path d="M239.17 102.89L367.87 102.89"/>
<path d="M399.12 221.48L399.12 230.67"/>
<path d="M407.61 221.48L407.61 230.67"/>
<path d="M244.69 97.38L362.35 97.38"/>
<path d="M290.65 91.38L316.39 91.38"/>
<path d="M410.15 230.67L410.15 221.48"/>
<path d="M419.35 230.67L419.35 221.48"/>
<path d="M423.02 135.54L423.02 56.93"/>
<path d="M428.54 137.83L428.54 62.45"/>
<path d="M434.05 251.81L434.05 200.33"/>
<path d="M316.39 75.8L290.65 75.8"/>
<path d="M316.39 69.8L290.65 69.8"/>
<path d="M439.57 251.81L439.57 200.33"/>
<path d="M428.54 62.45L367.87 62.45"/>
<path d="M239.17 62.45L178.5 62.45"/>
<path d="M423.02 56.93L373.38 56.93"/>
<path d="M233.66 56.93L184.02 56.93"/>
<path d="M167.47 251.81L169.32 268.18M169.32 268.18L174.76 283.72M174.76 283.72L183.52 297.66M183.52 297.66L195.16 309.31M195.16 309.31L209.11 318.07M209.11 318.07L224.65 323.51M224.65 323.51L241.01 325.35"/>
<path d="M172.99 251.81L174.7 266.95M174.7 266.95L179.73 281.33M179.73 281.33L187.83 294.22M187.83 294.22L198.6 304.99M198.6 304.99L211.5 313.1M211.5 313.1L225.88 318.13M225.88 318.13L241.01 319.83"/>
<path d="M189.01 148.33L179.87 159.48M179.87 159.48L173.07 172.19M173.07 172.19L168.89 185.99M168.89 185.99L167.47 200.33"/>
<path d="M192.91 152.23L184.45 162.54M184.45 162.54L178.17 174.3M178.17 174.3L174.3 187.06M174.3 187.06L172.99 200.33"/>
<path d="M229.25 204.93L230.32 207.53M230.32 207.53L232.92 208.61"/>
<path d="M187.7 230.67L189.56 247.24M189.56 247.24L195.07 262.97M195.07 262.97L203.94 277.09M203.94 277.09L215.73 288.88M215.73 288.88L229.85 297.75M229.85 297.75L245.59 303.26M245.59 303.26L262.16 305.13"/>
<path d="M196.89 230.67L198.53 245.19M198.53 245.19L203.35 258.99M203.35 258.99L211.13 271.36M211.13 271.36L221.46 281.7M221.46 281.7L233.84 289.47M233.84 289.47L247.63 294.3M247.63 294.3L262.16 295.93"/>
<path d="M199.43 230.67L201 244.63M201 244.63L205.64 257.88M205.64 257.88L213.11 269.78M213.11 269.78L223.05 279.71M223.05 279.71L234.94 287.18M234.94 287.18L248.2 291.82M248.2 291.82L262.16 293.4"/>
<path d="M207.92 230.67L209.77 244.71M209.77 244.71L215.19 257.79M215.19 257.79L223.81 269.02M223.81 269.02L235.04 277.64M235.04 277.64L248.12 283.06M248.12 283.06L262.16 284.9"/>
<path d="M213.1 230.67L214.77 243.37M214.77 243.37L219.67 255.2M219.67 255.2L227.47 265.36M227.47 265.36L237.63 273.16M237.63 273.16L249.46 278.06M249.46 278.06L262.16 279.73"/>
<path d="M214.18 238.77L217.08 248.98M217.08 248.98L222.12 258.31M222.12 258.31L229.06 266.33"/>
<path d="M229.06 265.97L238.87 273.08M238.87 273.08L250.14 277.54M250.14 277.54L262.16 279.06"/>
<path d="M213.77 230.67L214.18 237"/>
<path d="M229.06 263.88L238.76 271.3M238.76 271.3L250.05 275.96M250.05 275.96L262.16 277.55"/>
<path d="M262.16 147.02L245.59 148.88M245.59 148.88L229.85 154.39M229.85 154.39L215.73 163.26M215.73 163.26L203.94 175.05M203.94 175.05L195.07 189.17M195.07 189.17L189.56 204.91M189.56 204.91L187.7 221.48"/>
<path d="M262.16 156.21L247.63 157.85M247.63 157.85L233.84 162.67M233.84 162.67L221.46 170.45M221.46 170.45L211.13 180.78M211.13 180.78L203.35 193.16M203.35 193.16L198.53 206.95M198.53 206.95L196.89 221.48"/>
<path d="M262.16 158.75L248.2 160.32M248.2 160.32L234.94 164.96M234.94 164.96L223.05 172.43M223.05 172.43L213.11 182.37M213.11 182.37L205.64 194.26M205.64 194.26L201 207.52M201 207.52L199.43 221.48"/>
<path d="M262.16 167.24L248.12 169.09M248.12 169.09L235.04 174.51M235.04 174.51L223.81 183.13M223.81 183.13L215.19 194.36M215.19 194.36L209.77 207.44M209.77 207.44L207.92 221.48"/>
<path d="M262.16 172.42L249.46 174.09M249.46 174.09L237.63 178.99M237.63 178.99L227.47 186.79M227.47 186.79L219.67 196.95M219.67 196.95L214.77 208.78M214.77 208.78L213.1 221.48"/>
<path d="M229.06 185.81L222.12 193.83M222.12 193.83L217.08 203.17M217.08 203.17L214.18 213.37"/>
<path d="M262.16 173.09L250.14 174.61M250.14 174.61L238.87 179.06M238.87 179.06L229.06 186.17"/>
<path d="M214.18 215.15L213.77 221.48"/>
<path d="M262.16 174.6L251.78 175.76"/>
<path d="M246.72 177.21L236.6 182.17"/>
<path d="M235.5 182.91L229.06 188.27"/>
<path d="M262.16 178.27L252.7 179.32"/>
<path d="M277.78 329.95L278.32 331.25M278.32 331.25L279.62 331.78"/>
<path d="M299.37 258.83L295.65 260.28M295.65 260.28L293.88 263.87"/>
<path d="M184.02 56.93L180.12 58.55M180.12 58.55L178.5 62.45"/>
<path d="M290.65 69.8L286.75 71.42M286.75 71.42L285.14 75.32"/>
<path d="M279.62 97.38L283.52 95.76M283.52 95.76L285.14 91.86"/>
<path d="M239.17 62.45L237.56 58.55M237.56 58.55L233.66 56.93"/>
<path d="M244.69 97.38L240.79 98.99M240.79 98.99L239.17 102.89"/>
<path d="M239.17 91.86L240.79 95.76M240.79 95.76L244.69 97.38"/>
<path d="M284.4 178.27L283.32 175.67M283.32 175.67L280.72 174.6"/>
<path d="M240.26 182.87L238.43 183.37M238.43 183.37L237.09 184.71"/>
<path d="M279.62 120.36L278.32 120.9M278.32 120.9L277.78 122.2"/>
<path d="M327.42 331.78L328.72 331.25M328.72 331.25L329.26 329.95"/>
<path d="M350.59 192.06L342.8 184.69M342.8 184.69L333.61 179.17M333.61 179.17L323.44 175.75M323.44 175.75L312.79 174.6"/>
<path d="M346.91 193.44L340.92 187.89M340.92 187.89L334.04 183.48"/>
<path d="M330.71 181.91L319.33 178.74"/>
<path d="M313.16 263.87L311.4 260.28M311.4 260.28L307.67 258.83"/>
<path d="M344.89 305.13L361.46 303.26M361.46 303.26L377.19 297.75M377.19 297.75L391.31 288.88M391.31 288.88L403.1 277.09M403.1 277.09L411.97 262.97M411.97 262.97L417.48 247.24M417.48 247.24L419.35 230.67"/>
<path d="M344.89 295.93L359.41 294.3M359.41 294.3L373.2 289.47M373.2 289.47L385.58 281.7M385.58 281.7L395.91 271.36M395.91 271.36L403.69 258.99M403.69 258.99L408.52 245.19M408.52 245.19L410.15 230.67"/>
<path d="M344.89 293.4L358.84 291.82M358.84 291.82L372.1 287.18M372.1 287.18L384 279.71M384 279.71L393.93 269.78M393.93 269.78L401.4 257.88M401.4 257.88L406.04 244.63M406.04 244.63L407.61 230.67"/>
<path d="M344.89 284.9L358.92 283.06M358.92 283.06L372 277.64M372 277.64L383.24 269.02M383.24 269.02L391.86 257.79M391.86 257.79L397.27 244.71M397.27 244.71L399.12 230.67"/>
<path d="M344.89 279.73L357.58 278.06M357.58 278.06L369.42 273.16M369.42 273.16L379.58 265.36M379.58 265.36L387.37 255.2M387.37 255.2L392.27 243.37M392.27 243.37L393.95 230.67"/>
<path d="M344.89 279.06L357.41 277.41M357.41 277.41L369.08 272.57M369.08 272.57L379.1 264.88M379.1 264.88L386.79 254.86M386.79 254.86L391.63 243.19M391.63 243.19L393.27 230.67"/>
<path d="M344.89 277.55L357.02 275.95M357.02 275.95L368.33 271.27M368.33 271.27L378.04 263.82M378.04 263.82L385.49 254.11M385.49 254.11L390.17 242.8M390.17 242.8L391.77 230.67"/>
<path d="M419.35 221.48L417.48 204.91M417.48 204.91L411.97 189.17M411.97 189.17L403.1 175.05M403.1 175.05L391.31 163.26M391.31 163.26L377.19 154.39M377.19 154.39L361.46 148.88M361.46 148.88L344.89 147.02"/>
<path d="M410.15 221.48L408.52 206.95M408.52 206.95L403.69 193.16M403.69 193.16L395.91 180.78M395.91 180.78L385.58 170.45M385.58 170.45L373.2 162.67M373.2 162.67L359.41 157.85M359.41 157.85L344.89 156.21"/>
<path d="M407.61 221.48L406.04 207.52M406.04 207.52L401.4 194.26M401.4 194.26L393.93 182.37M393.93 182.37L384 172.43M384 172.43L372.1 164.96M372.1 164.96L358.84 160.32M358.84 160.32L344.89 158.75"/>
<path d="M399.12 221.48L397.27 207.44M397.27 207.44L391.86 194.36M391.86 194.36L383.24 183.13M383.24 183.13L372 174.51M372 174.51L358.92 169.09M358.92 169.09L344.89 167.24"/>
<path d="M393.95 221.48L392.27 208.78M392.27 208.78L387.37 196.95M387.37 196.95L379.58 186.79M379.58 186.79L369.42 178.99M369.42 178.99L357.58 174.09M357.58 174.09L344.89 172.42"/>
<path d="M393.27 221.48L391.63 208.95M391.63 208.95L386.79 197.28M386.79 197.28L379.1 187.26M379.1 187.26L369.08 179.57M369.08 179.57L357.41 174.74M357.41 174.74L344.89 173.09"/>
<path d="M391.77 221.48L389.81 208.08M389.81 208.08L384.11 195.8M384.11 195.8L375.14 185.66M375.14 185.66L363.65 178.51M363.65 178.51L350.59 174.94"/>
<path d="M367.87 208.63L360.4 200.37M360.4 200.37L350.59 195.11"/>
<path d="M346.91 208.61L349.51 207.53M349.51 207.53L350.59 204.93"/>
<path d="M366.03 325.35L382.39 323.51M382.39 323.51L397.94 318.07M397.94 318.07L411.88 309.31M411.88 309.31L423.52 297.66M423.52 297.66L432.29 283.72M432.29 283.72L437.72 268.18M437.72 268.18L439.57 251.81"/>
<path d="M366.03 319.83L381.17 318.13M381.17 318.13L395.54 313.1M395.54 313.1L408.44 304.99M408.44 304.99L419.21 294.22M419.21 294.22L427.32 281.33M427.32 281.33L432.35 266.95M432.35 266.95L434.05 251.81"/>
<path d="M439.57 200.33L438.16 185.99M438.16 185.99L433.97 172.19M433.97 172.19L427.17 159.48M427.17 159.48L418.03 148.33"/>
<path d="M434.05 200.33L432.75 187.06M432.75 187.06L428.87 174.3M428.87 174.3L422.59 162.54M422.59 162.54L414.13 152.23"/>
<path d="M373.38 56.93L369.48 58.55M369.48 58.55L367.87 62.45"/>
<path d="M321.91 75.32L320.29 71.42M320.29 71.42L316.39 69.8"/>
<path d="M428.54 62.45L426.92 58.55M426.92 58.55L423.02 56.93"/>
<path d="M362.35 97.38L366.25 95.76M366.25 95.76L367.87 91.86"/>
<path d="M367.87 102.89L366.25 98.99M366.25 98.99L362.35 97.38"/>
<path d="M321.91 91.86L322.64 94.62M322.64 94.62L324.66 96.64M324.66 96.64L327.42 97.38"/>
<path d="M350.59 193.44L349.64 190.98"/>
<path d="M335.74 180.22L333.3 179.88M333.3 179.88L331.19 181.16M331.19 181.16L330.36 183.48"/>
<path d="M329.26 122.2L328.72 120.9M328.72 120.9L327.42 120.36"/>
<path d="M251.78 175.76L252.7 179.32"/>
<path d="M240.32 182.87L240.26 182.87"/>
<path d="M285.14 91.86L285.14 91.84M285.14 91.84L285.16 91.82M285.16 91.82L285.19 91.8M285.19 91.8L285.27 91.76M285.27 91.76L285.44 91.71M285.44 91.71L285.61 91.67M285.61 91.67L285.78 91.64M285.78 91.64L286.12 91.59M286.12 91.59L286.47 91.55M286.47 91.55L287.16 91.49M287.16 91.49L287.86 91.45M287.86 91.45L288.56 91.42M288.56 91.42L289.26 91.4M289.26 91.4L289.95 91.39M289.95 91.39L290.65 91.38"/>
<path d="M321.91 75.32L321.9 75.34M321.9 75.34L321.89 75.36M321.89 75.36L321.85 75.38M321.85 75.38L321.77 75.42M321.77 75.42L321.61 75.47M321.61 75.47L321.44 75.51M321.44 75.51L321.27 75.54M321.27 75.54L320.92 75.59M320.92 75.59L320.57 75.63M320.57 75.63L319.88 75.69M319.88 75.69L319.18 75.73M319.18 75.73L318.48 75.76M318.48 75.76L317.79 75.78M317.79 75.78L317.09 75.79M317.09 75.79L316.39 75.8"/>
<path d="M290.65 75.8L289.95 75.79M289.95 75.79L289.26 75.78M289.26 75.78L288.56 75.76M288.56 75.76L287.86 75.73M287.86 75.73L287.16 75.69M287.16 75.69L286.47 75.63M286.47 75.63L286.12 75.59M286.12 75.59L285.78 75.54M285.78 75.54L285.61 75.51M285.61 75.51L285.44 75.47M285.44 75.47L285.27 75.42M285.27 75.42L285.19 75.38M285.19 75.38L285.16 75.36M285.16 75.36L285.14 75.34M285.14 75.34L285.14 75.32"/>
<path d="M316.39 91.38L317.09 91.39M317.09 91.39L317.79 91.4M317.79 91.4L318.48 91.42M318.48 91.42L319.18 91.45M319.18 91.45L319.88 91.49M319.88 91.49L320.57 91.55M320.57 91.55L320.92 91.59M320.92 91.59L321.27 91.64M321.27 91.64L321.44 91.67M321.44 91.67L321.61 91.71M321.61 91.71L321.77 91.76M321.77 91.76L321.85 91.8M321.85 91.8L321.89 91.82M321.89 91.82L321.9 91.84M321.9 91.84L321.91 91.86"/>
<path d="M428.54 137.83L423.02 135.54"/>
<path d="M178.5 137.83L184.02 135.54"/>
<path d="M240.26 182.87L238.1 181.24"/>
<path d="M229.74 199.41L231.09 200.76M231.09 200.76L232.92 201.25"/>
</g>
</g>
</svg>
