<?xml version="1.0" standalone="no"?><svg xmlns="http://www.w3.org/2000/svg" width="600.000" height="450.000" viewBox="0.0 0.0 600.000 450.000" version="1.1">
<title>Acme Converter - Post-processed with EDS-Designer: 14.44 (info@symca.com)</title>
<desc>Acme Converter - Post-processed with EDS-Designer: 14.44 (info@symca.com)</desc>
<g id="EDS_STYLE_GROUP" fill="none" stroke="black" stroke-width="1.0">
<g id="0" display="visible">
<path d="M267.36 358.3L268.48 361.64M268.48 361.64L268.48 354.96M268.48 354.96L267.36 358.3M267.36 358.3L265.14 356.08M265.14 356.08L261.8 354.96M261.8 354.96L259.57 354.96M259.57 354.96L256.23 356.08M256.23 356.08L254.01 358.3M254.01 358.3L252.89 360.53M252.89 360.53L251.78 363.87M251.78 363.87L251.78 369.43M251.78 369.43L252.89 372.77M252.89 372.77L254.01 375M254.01 375L256.23 377.22M256.23 377.22L259.57 378.34M259.57 378.34L261.8 378.34M261.8 378.34L265.14 377.22M265.14 377.22L267.36 375M259.57 354.96L257.35 356.08M257.35 356.08L255.12 358.3M255.12 358.3L254.01 360.53M254.01 360.53L252.89 363.87M252.89 363.87L252.89 369.43M252.89 369.43L254.01 372.77M254.01 372.77L255.12 375M255.12 375L257.35 377.22M257.35 377.22L259.57 378.34M267.36 369.43L267.36 378.34M268.48 369.43L268.48 378.34M264.02 369.43L271.81 369.43M280.72 378.34L280.72 354.96M281.83 354.96L281.83 378.34M277.38 354.96L290.74 354.96M290.74 354.96L294.08 356.08M294.08 356.08L295.19 357.19M295.19 357.19L296.3 359.42M296.3 359.42L296.3 361.64M296.3 361.64L295.19 363.87M295.19 363.87L294.08 364.98M294.08 364.98L290.74 366.09M290.74 366.09L281.83 366.09M290.74 354.96L292.96 356.08M292.96 356.08L294.08 357.19M294.08 357.19L295.19 359.42M295.19 359.42L295.19 361.64M295.19 361.64L294.08 363.87M294.08 363.87L292.96 364.98M292.96 364.98L290.74 366.09M277.38 378.34L285.17 378.34M287.4 366.09L289.62 367.21M289.62 367.21L290.74 368.32M290.74 368.32L294.08 376.11M294.08 376.11L295.19 377.22M295.19 377.22L296.3 377.22M296.3 377.22L297.42 376.11M289.62 367.21L290.74 369.43M290.74 369.43L292.96 377.22M292.96 377.22L294.08 378.34M294.08 378.34L296.3 378.34M296.3 378.34L297.42 376.11M297.42 376.11L297.42 375M305.21 378.34L305.21 354.96M306.32 354.96L306.32 378.34M313 361.64L313 370.55M301.87 354.96L319.68 354.96M319.68 354.96L319.68 361.64M319.68 361.64L318.56 354.96M306.32 366.09L313 366.09M301.87 378.34L319.68 378.34M319.68 378.34L319.68 371.66M319.68 371.66L318.56 378.34M327.47 354.96L335.26 367.21M335.26 367.21L335.26 378.34M328.58 354.96L336.37 367.21M336.37 367.21L336.37 378.34M344.16 354.96L336.37 367.21M325.24 354.96L331.92 354.96M339.71 354.96L346.39 354.96M331.92 378.34L339.71 378.34"/>
<path d="M490.13 176.91L491.91 176.02M491.91 176.02L494.58 173.35M494.58 173.35L494.58 192.05"/>
<path d="M101.98 177.12L101.09 175.34M101.09 175.34L98.42 174.45M98.42 174.45L96.64 174.45M96.64 174.45L93.97 175.34M93.97 175.34L92.19 178.01M92.19 178.01L91.3 182.46M91.3 182.46L91.3 186.91M91.3 186.91L92.19 190.48M92.19 190.48L93.97 192.26M93.97 192.26L96.64 193.15M96.64 193.15L97.53 193.15M97.53 193.15L100.2 192.26M100.2 192.26L101.98 190.48M101.98 190.48L102.87 187.81M102.87 187.81L102.87 186.91M102.87 186.91L101.98 184.24M101.98 184.24L100.2 182.46M100.2 182.46L97.53 181.57M97.53 181.57L96.64 181.57M96.64 181.57L93.97 182.46M93.97 182.46L92.19 184.24M92.19 184.24L91.3 186.91"/>
<path d="M482.79 213.73L484.57 212.84M484.57 212.84L487.25 210.17M487.25 210.17L487.25 228.87M502.38 210.17L499.71 211.06M499.71 211.06L497.93 213.73M497.93 213.73L497.04 218.18M497.04 218.18L497.04 220.85M497.04 220.85L497.93 225.31M497.93 225.31L499.71 227.98M499.71 227.98L502.38 228.87M502.38 228.87L504.16 228.87M504.16 228.87L506.84 227.98M506.84 227.98L508.62 225.31M508.62 225.31L509.51 220.85M509.51 220.85L509.51 218.18M509.51 218.18L508.62 213.73M508.62 213.73L506.84 211.06M506.84 211.06L504.16 210.17M504.16 210.17L502.38 210.17"/>
<path d="M90.49 209.46L102.96 209.46M102.96 209.46L94.06 228.16"/>
<path d="M185.04 186.67L185.04 222.2"/>
<path d="M192.52 179.19L188.78 180.19M188.78 180.19L186.04 182.93M186.04 182.93L185.04 186.67"/>
<path d="M405.69 179.19L192.52 179.19"/>
<path d="M413.17 186.67L412.17 182.93M412.17 182.93L409.43 180.19M409.43 180.19L405.69 179.19"/>
<path d="M413.17 222.2L413.17 186.67"/>
<path d="M405.69 229.68L409.43 228.67M409.43 228.67L412.17 225.94M412.17 225.94L413.17 222.2"/>
<path d="M192.52 229.68L405.69 229.68"/>
<path d="M185.04 222.2L186.04 225.94M186.04 225.94L188.78 228.67M188.78 228.67L192.52 229.68"/>
<path d="M192.52 222.2L192.52 186.67"/>
<path d="M185.04 222.2L192.52 222.2"/>
<path d="M185.04 186.67L185.04 222.2"/>
<path d="M192.52 186.67L185.04 186.67"/>
<path d="M185.04 186.67L192.52 186.67"/>
<path d="M192.52 179.19L188.78 180.19M188.78 180.19L186.04 182.93M186.04 182.93L185.04 186.67"/>
<path d="M192.52 186.67L192.52 179.19"/>
<path d="M192.52 186.67L405.69 186.67"/>
<path d="M192.52 179.19L192.52 186.67"/>
<path d="M405.69 179.19L192.52 179.19"/>
<path d="M405.69 186.67L405.69 179.19"/>
<path d="M405.69 179.19L405.69 186.67"/>
<path d="M413.17 186.67L412.17 182.93M412.17 182.93L409.43 180.19M409.43 180.19L405.69 179.19"/>
<path d="M405.69 186.67L413.17 186.67"/>
<path d="M405.69 186.67L405.69 222.2"/>
<path d="M413.17 186.67L405.69 186.67"/>
<path d="M413.17 222.2L413.17 186.67"/>
<path d="M405.69 222.2L413.17 222.2"/>
<path d="M405.69 222.2L405.69 229.68"/>
<path d="M413.17 222.2L405.69 222.2"/>
<path d="M405.69 229.68L409.43 228.67M409.43 228.67L412.17 225.94M412.17 225.94L413.17 222.2"/>
<path d="M192.52 229.68L405.69 229.68"/>
<path d="M192.52 222.2L192.52 229.68"/>
<path d="M405.69 222.2L192.52 222.2"/>
<path d="M405.69 229.68L405.69 222.2"/>
<path d="M192.52 222.2L185.04 222.2"/>
<path d="M192.52 229.68L192.52 222.2"/>
<path d="M185.04 222.2L186.04 225.94M186.04 225.94L188.78 228.67M188.78 228.67L192.52 229.68"/>
<path d="M405.69 186.67L192.52 186.67"/>
<path d="M405.69 222.2L405.69 186.67"/>
<path d="M192.52 222.2L405.69 222.2"/>
<path d="M192.52 186.67L192.52 222.2"/>
<path d="M324.17 304.47L323.41 304.47"/>
<path d="M324.61 305.45L324.18 304.47"/>
<path d="M324.65 306.44L324.61 305.45"/>
<path d="M324.53 306.89L324.65 306.44"/>
<path d="M324.3 307.27L324.53 306.89"/>
<path d="M323.41 307.7L323.9 307.59M323.9 307.59L324.3 307.27"/>
<path d="M323.41 304.47L323.41 307.7"/>
<path d="M274.79 307.7L274.79 304.47"/>
<path d="M273.91 307.27L274.3 307.59M274.3 307.59L274.79 307.7"/>
<path d="M273.68 306.89L273.91 307.27"/>
<path d="M273.56 306.44L273.68 306.89"/>
<path d="M273.59 305.45L273.56 306.44"/>
<path d="M274.03 304.47L273.59 305.45"/>
<path d="M274.79 304.47L274.03 304.47"/>
<path d="M274.03 304.47L274.79 304.47"/>
<path d="M274.79 303.54L274.03 304.47"/>
<path d="M274.79 304.47L274.79 303.54"/>
<path d="M323.41 304.47L274.79 304.47"/>
<path d="M323.41 307.7L323.41 304.47"/>
<path d="M274.79 307.7L323.41 307.7"/>
<path d="M274.79 304.47L274.79 307.7"/>
<path d="M323.41 303.54L323.41 304.47"/>
<path d="M324.17 304.47L323.41 303.54"/>
<path d="M323.41 304.47L324.17 304.47"/>
<path d="M163.53 253.97L163.53 252.11"/>
<path d="M167.27 255.85L165.41 255.85"/>
<path d="M163.53 252.11L164.63 254.76M164.63 254.76L167.27 255.85"/>
<path d="M163.53 252.11L164.63 254.76M164.63 254.76L167.27 255.85"/>
<path d="M434.67 252.11L434.67 255.85"/>
<path d="M430.93 255.85L432.8 255.35M432.8 255.35L434.17 253.98M434.17 253.98L434.67 252.11"/>
<path d="M432.8 255.85L430.93 255.85"/>
<path d="M430.93 255.85L432.8 255.35M432.8 255.35L434.17 253.98M434.17 253.98L434.67 252.11"/>
<path d="M434.67 255.85L163.53 255.85"/>
<path d="M370.16 331.59L362.68 331.59"/>
<path d="M426.26 331.59L370.16 331.59"/>
<path d="M433.74 331.59L426.26 331.59"/>
<path d="M235.52 331.59L228.04 331.59"/>
<path d="M228.04 331.59L171.95 331.59"/>
<path d="M171.95 331.59L164.47 331.59"/>
<path d="M121.46 271.75L121.46 127.76"/>
<path d="M158.86 90.36L147.3 92.19M147.3 92.19L136.87 97.51M136.87 97.51L128.6 105.78M128.6 105.78L123.29 116.21M123.29 116.21L121.46 127.76"/>
<path d="M158.86 90.36L147.3 92.19M147.3 92.19L136.87 97.51M136.87 97.51L128.6 105.78M128.6 105.78L123.29 116.21M123.29 116.21L121.46 127.76"/>
<path d="M158.86 95.97L158.86 90.36"/>
<path d="M158.86 95.97L149.03 97.53M149.03 97.53L140.17 102.05M140.17 102.05L133.14 109.08M133.14 109.08L128.62 117.94M128.62 117.94L127.07 127.76"/>
<path d="M121.46 127.76L127.07 127.76"/>
<path d="M158.86 90.36L147.3 92.19M147.3 92.19L136.87 97.51M136.87 97.51L128.6 105.78M128.6 105.78L123.29 116.21M123.29 116.21L121.46 127.76"/>
<path d="M476.75 127.76L474.92 116.21M474.92 116.21L469.61 105.78M469.61 105.78L461.33 97.51M461.33 97.51L450.91 92.19M450.91 92.19L439.35 90.36"/>
<path d="M471.14 127.76L476.75 127.76"/>
<path d="M471.14 127.76L469.58 117.94M469.58 117.94L465.07 109.08M465.07 109.08L458.03 102.05M458.03 102.05L449.17 97.53M449.17 97.53L439.35 95.97"/>
<path d="M439.35 90.36L439.35 95.97"/>
<path d="M476.75 127.76L474.92 116.21M474.92 116.21L469.61 105.78M469.61 105.78L461.33 97.51M461.33 97.51L450.91 92.19M450.91 92.19L439.35 90.36"/>
<path d="M207.47 71.66L202.8 72.92M202.8 72.92L199.38 76.34M199.38 76.34L198.13 81.01"/>
<path d="M207.47 71.66L202.8 72.92M202.8 72.92L199.38 76.34M199.38 76.34L198.13 81.01"/>
<path d="M207.47 71.66L202.8 72.92M202.8 72.92L199.38 76.34M199.38 76.34L198.13 81.01"/>
<path d="M207.47 81.01L207.47 71.66"/>
<path d="M198.13 81.01L207.47 81.01"/>
<path d="M229.44 74.68L229.38 75.05"/>
<path d="M229.62 73.56L229.57 73.87"/>
<path d="M198.13 90.36L198.13 81.01"/>
<path d="M198.13 81.01L198.13 110"/>
<path d="M207.47 81.01L198.13 81.01"/>
<path d="M207.47 115.61L207.47 81.01"/>
<path d="M205.03 113.73L207.47 115.61"/>
<path d="M202.68 111.99L205.03 113.73"/>
<path d="M202.68 111.99L200.55 110.6"/>
<path d="M200.54 110.62L198.91 109.99"/>
<path d="M207.47 81.01L211.21 81.01"/>
<path d="M207.47 71.66L207.47 81.01"/>
<path d="M211.21 71.66L207.47 71.66"/>
<path d="M211.21 81.01L211.21 71.66"/>
<path d="M233.72 73.15L229.91 71.66"/>
<path d="M229.8 72.38L229.91 71.66"/>
<path d="M229.49 74.4L229.77 72.58"/>
<path d="M228.76 79.07L229.01 77.43"/>
<path d="M230.14 78.5L229.48 79.48"/>
<path d="M232.66 74.74L232.56 74.89"/>
<path d="M211.21 71.66L211.21 81.01"/>
<path d="M220.56 81.01L219.31 76.34M219.31 76.34L215.89 72.92M215.89 72.92L211.21 71.66"/>
<path d="M211.21 81.01L220.56 81.01"/>
<path d="M233.4 73.63L233.59 73.35"/>
<path d="M232.77 74.58L233.26 73.85"/>
<path d="M229.48 79.48L230.29 78.27"/>
<path d="M211.21 81.01L211.21 132.44"/>
<path d="M220.56 81.01L211.21 81.01"/>
<path d="M220.56 132.44L220.56 81.01"/>
<path d="M220.56 81.01L219.31 76.34M219.31 76.34L215.89 72.92M215.89 72.92L211.21 71.66"/>
<path d="M220.56 81.01L228.45 81.01"/>
<path d="M217.83 74.4L214.79 72.38"/>
<path d="M229.91 71.66L211.21 71.66"/>
<path d="M229.8 72.38L229.91 71.66"/>
<path d="M229.49 74.4L229.8 72.38"/>
<path d="M229.01 77.44L229.49 74.4"/>
<path d="M228.74 79.19L229.01 77.44"/>
<path d="M228.45 81.01L228.74 79.19"/>
<path d="M233.72 73.15L229.91 71.66"/>
<path d="M229.91 71.66L228.45 81.01"/>
<path d="M233.72 73.15L229.91 71.66"/>
<path d="M228.45 81.01L233.72 73.15"/>
<path d="M228.45 81.01L238.57 90.36"/>
<path d="M230.47 78L228.45 81.01"/>
<path d="M232.18 75.46L230.47 78"/>
<path d="M233.32 73.75L232.18 75.46"/>
<path d="M233.72 73.15L233.32 73.75"/>
<path d="M241.93 80.74L233.72 73.15"/>
<path d="M238.57 90.36L239.27 90.36"/>
<path d="M400.08 81.01L398.83 76.34M398.83 76.34L395.41 72.92M395.41 72.92L390.73 71.66"/>
<path d="M400.08 81.01L398.83 76.34M398.83 76.34L395.41 72.92M395.41 72.92L390.73 71.66"/>
<path d="M390.73 81.01L400.08 81.01"/>
<path d="M390.73 71.66L390.73 81.01"/>
<path d="M368.38 72.22L368.32 71.88"/>
<path d="M368.56 73.38L368.43 72.58"/>
<path d="M369.47 79.19L369.24 77.75"/>
<path d="M390.73 71.66L386.99 71.66"/>
<path d="M390.73 81.01L390.73 71.66"/>
<path d="M386.99 81.01L390.73 81.01"/>
<path d="M386.99 71.66L386.99 81.01"/>
<path d="M390.73 81.01L390.73 110"/>
<path d="M400.08 81.01L390.73 81.01"/>
<path d="M400.08 110L400.08 81.01"/>
<path d="M364.89 73.75L364.48 73.15"/>
<path d="M366.03 75.46L365 73.93"/>
<path d="M368.66 79.38L367.73 78"/>
<path d="M386.99 81.01L386.99 71.66"/>
<path d="M377.64 81.01L386.99 81.01"/>
<path d="M386.99 71.66L382.32 72.92M382.32 72.92L378.89 76.34M378.89 76.34L377.64 81.01"/>
<path d="M366.18 75.68L366.39 75.99"/>
<path d="M365.56 74.75L365.73 75.01"/>
<path d="M386.99 71.66L382.32 72.92M382.32 72.92L378.89 76.34M378.89 76.34L377.64 81.01"/>
<path d="M377.71 113.01L377.86 112.48"/>
<path d="M377.64 113.74L377.71 113.01"/>
<path d="M377.64 81.01L377.64 113.74"/>
<path d="M386.99 81.01L377.64 81.01"/>
<path d="M386.99 110L386.99 81.01"/>
<path d="M386.99 71.66L368.29 71.66"/>
<path d="M386.99 71.67L384.91 71.9"/>
<path d="M381.8 73.24L382.63 72.74"/>
<path d="M381.27 73.62L381.8 73.24"/>
<path d="M369.75 81.01L377.64 81.01"/>
<path d="M369.2 77.43L369.75 81.01"/>
<path d="M368.72 74.4L369.2 77.43"/>
<path d="M368.4 72.38L368.72 74.4"/>
<path d="M368.29 71.66L368.4 72.38"/>
<path d="M368.29 71.66L364.48 73.15"/>
<path d="M369.75 81.01L368.29 71.66"/>
<path d="M364.48 73.15L369.75 81.01"/>
<path d="M368.29 71.66L364.48 73.15"/>
<path d="M364.48 73.15L356.27 80.74"/>
<path d="M364.89 73.75L364.48 73.15"/>
<path d="M366.03 75.46L364.89 73.75"/>
<path d="M367.74 78.01L366.03 75.46"/>
<path d="M368.73 79.48L367.74 78.01"/>
<path d="M369.75 81.01L368.73 79.48"/>
<path d="M359.63 90.36L369.75 81.01"/>
<path d="M358.94 90.37L359.63 90.36"/>
<path d="M476.75 217.05L461.79 217.05"/>
<path d="M476.32 219.2L476.75 217.05"/>
<path d="M475.11 221.02L476.32 219.2"/>
<path d="M473.29 222.24L475.11 221.02"/>
<path d="M471.14 222.66L473.28 222.24"/>
<path d="M456.18 222.66L471.14 222.66"/>
<path d="M461.79 217.05L456.18 222.66"/>
<path d="M461.79 217.05L461.79 194.61"/>
<path d="M456.18 222.66L461.79 217.05"/>
<path d="M456.18 189L456.18 222.66"/>
<path d="M461.79 194.61L456.18 189"/>
<path d="M461.79 194.61L476.75 194.61"/>
<path d="M456.18 189L461.79 194.61"/>
<path d="M471.14 189L456.18 189"/>
<path d="M473.28 189.43L471.14 189"/>
<path d="M475.11 190.65L473.29 189.43"/>
<path d="M476.32 192.47L475.11 190.65"/>
<path d="M476.75 194.61L476.32 192.47"/>
<path d="M121.46 194.61L136.42 194.61"/>
<path d="M121.88 192.47L121.46 194.61"/>
<path d="M123.1 190.65L121.88 192.47"/>
<path d="M124.92 189.43L123.1 190.65"/>
<path d="M127.07 189L124.92 189.43"/>
<path d="M142.03 189L127.07 189"/>
<path d="M136.42 194.61L142.03 189"/>
<path d="M136.42 194.61L136.42 217.05"/>
<path d="M142.03 189L136.42 194.61"/>
<path d="M142.03 222.66L142.03 189"/>
<path d="M136.42 217.05L142.03 222.66"/>
<path d="M136.42 217.05L121.46 217.05"/>
<path d="M142.03 222.66L136.42 217.05"/>
<path d="M127.07 222.66L142.03 222.66"/>
<path d="M124.92 222.24L127.07 222.66"/>
<path d="M123.1 221.02L124.92 222.24"/>
<path d="M121.88 219.2L123.1 221.02"/>
<path d="M121.46 217.05L121.88 219.2"/>
<path d="M198.13 95.97L198.13 90.36"/>
<path d="M158.86 95.97L198.13 95.97"/>
<path d="M158.86 90.36L158.86 95.97"/>
<path d="M198.13 90.36L158.86 90.36"/>
<path d="M121.79 144.27L121.46 147.4"/>
<path d="M121.46 127.76L121.46 147.4"/>
<path d="M127.07 127.76L121.46 127.76"/>
<path d="M127.07 135.72L127.07 127.76"/>
<path d="M471.14 127.76L471.14 135.72"/>
<path d="M476.75 127.76L471.14 127.76"/>
<path d="M476.75 147.4L476.75 127.76"/>
<path d="M439.35 90.36L400.08 90.36"/>
<path d="M439.35 95.97L439.35 90.36"/>
<path d="M400.08 95.97L439.35 95.97"/>
<path d="M257.96 138.05L257.96 119.35"/>
<path d="M255.81 135.9L257.96 138.05"/>
<path d="M254 134.08L255.81 135.9"/>
<path d="M252.78 132.87L254 134.08"/>
<path d="M252.35 132.44L252.78 132.87"/>
<path d="M252.35 113.74L252.35 132.44"/>
<path d="M252.78 114.17L252.35 113.74"/>
<path d="M254 115.38L252.78 114.17"/>
<path d="M255.82 117.2L254 115.38"/>
<path d="M256.87 118.25L255.82 117.2"/>
<path d="M257.96 119.35L256.87 118.25"/>
<path d="M252.35 132.44L181.3 132.44"/>
<path d="M252.78 132.86L252.35 132.44"/>
<path d="M254 134.08L252.78 132.86"/>
<path d="M255.82 135.9L254 134.08"/>
<path d="M256.87 136.95L255.82 135.9"/>
<path d="M257.96 138.05L256.87 136.95"/>
<path d="M177.56 138.05L257.96 138.05"/>
<path d="M178.8 136.51L177.56 138.05"/>
<path d="M179.96 135.03L178.8 136.51"/>
<path d="M180.89 133.71L179.96 135.03"/>
<path d="M180.88 133.71L181.3 132.76"/>
<path d="M257.96 119.35L340.24 119.35"/>
<path d="M255.82 117.2L257.96 119.35"/>
<path d="M254 115.38L255.82 117.2"/>
<path d="M252.78 114.17L254 115.38"/>
<path d="M252.35 113.74L252.78 114.17"/>
<path d="M345.85 113.74L252.35 113.74"/>
<path d="M345.42 114.17L345.85 113.74"/>
<path d="M344.21 115.38L345.42 114.17"/>
<path d="M342.39 117.2L344.21 115.38"/>
<path d="M341.34 118.25L342.39 117.2"/>
<path d="M340.24 119.35L341.34 118.25"/>
<path d="M340.24 119.35L340.24 138.05"/>
<path d="M342.39 117.2L340.24 119.35"/>
<path d="M344.21 115.38L342.39 117.2"/>
<path d="M345.42 114.17L344.21 115.38"/>
<path d="M345.85 113.74L345.42 114.17"/>
<path d="M345.85 132.44L345.85 113.74"/>
<path d="M345.42 132.86L345.85 132.44"/>
<path d="M344.21 134.08L345.42 132.86"/>
<path d="M342.39 135.9L344.21 134.08"/>
<path d="M341.34 136.95L342.39 135.9"/>
<path d="M340.24 138.05L341.34 136.95"/>
<path d="M377.63 132.76L378.05 133.71"/>
<path d="M378.97 135.03L378.05 133.71"/>
<path d="M380.13 136.51L378.97 135.03"/>
<path d="M381.38 138.05L380.13 136.51"/>
<path d="M340.24 138.05L381.38 138.05"/>
<path d="M342.39 135.9L340.24 138.05"/>
<path d="M344.21 134.08L342.39 135.9"/>
<path d="M345.42 132.86L344.21 134.08"/>
<path d="M345.85 132.44L345.42 132.86"/>
<path d="M377.64 132.44L345.85 132.44"/>
<path d="M377.64 132.76L377.64 132.44"/>
<path d="M476.75 147.4L471.14 147.4"/>
<path d="M476.75 194.61L476.75 147.4"/>
<path d="M476.75 194.61L476.32 192.47"/>
<path d="M476.32 192.47L475.11 190.65"/>
<path d="M475.11 190.65L473.28 189.43"/>
<path d="M473.28 189.43L471.14 189"/>
<path d="M471.14 147.4L471.14 189"/>
<path d="M476.75 147.4L475.61 141.67M475.61 141.67L472.37 136.82M472.37 136.82L467.51 133.58M467.51 133.58L461.79 132.44"/>
<path d="M471.14 147.4L476.75 147.4"/>
<path d="M471.14 147.4L469.89 142.72M469.89 142.72L466.46 139.3M466.46 139.3L461.79 138.05"/>
<path d="M461.79 132.44L461.79 138.05"/>
<path d="M461.79 132.44L407.56 132.44"/>
<path d="M461.79 138.05L461.79 132.44"/>
<path d="M403.82 138.05L461.79 138.05"/>
<path d="M405.07 136.51L403.82 138.05"/>
<path d="M406.23 135.03L405.07 136.51"/>
<path d="M407.16 133.71L406.23 135.03"/>
<path d="M407.15 133.71L407.57 132.76"/>
<path d="M136.42 138.05L131.74 139.3M131.74 139.3L128.32 142.72M128.32 142.72L127.07 147.4"/>
<path d="M121.46 147.4L127.07 147.4"/>
<path d="M136.42 132.44L130.69 133.58M130.69 133.58L125.84 136.82M125.84 136.82L122.6 141.67M122.6 141.67L121.46 147.4"/>
<path d="M136.42 138.05L136.42 132.44"/>
<path d="M127.07 147.4L121.46 147.4"/>
<path d="M127.07 189L127.07 147.4"/>
<path d="M127.07 189L124.92 189.43"/>
<path d="M124.92 189.43L123.1 190.65"/>
<path d="M123.1 190.65L121.88 192.47"/>
<path d="M121.88 192.47L121.56 193.52"/>
<path d="M121.57 193.52L121.46 194.61"/>
<path d="M121.46 147.4L121.46 194.61"/>
<path d="M151.37 132.76L151.79 133.71"/>
<path d="M152.71 135.03L151.78 133.71"/>
<path d="M153.87 136.51L152.71 135.03"/>
<path d="M155.12 138.05L153.87 136.51"/>
<path d="M136.42 138.05L155.12 138.05"/>
<path d="M136.42 132.44L136.42 138.05"/>
<path d="M151.38 132.44L136.42 132.44"/>
<path d="M151.38 132.76L151.38 132.44"/>
<path d="M121.46 324.11L121.46 271.75"/>
<path d="M121.46 325.98L121.46 324.11"/>
<path d="M121.46 325.98L122.21 328.78M122.21 328.78L124.26 330.84M124.26 330.84L127.07 331.59"/>
<path d="M121.46 325.98L122.21 328.78M122.21 328.78L124.26 330.84M124.26 330.84L127.07 331.59"/>
<path d="M121.46 325.98L122.21 328.78M122.21 328.78L124.26 330.84M124.26 330.84L127.07 331.59"/>
<path d="M121.46 325.98L121.57 326.68"/>
<path d="M121.56 326.68L121.88 327.36"/>
<path d="M121.88 327.36L123.1 328.53"/>
<path d="M123.1 328.53L124.92 329.31"/>
<path d="M124.92 329.31L127.07 329.58"/>
<path d="M127.07 331.59L127.07 329.58"/>
<path d="M121.46 308.88L121.46 325.98"/>
<path d="M121.46 308.88L123.1 311.43M123.1 311.43L127.07 312.49"/>
<path d="M127.07 329.58L127.07 312.49"/>
<path d="M121.46 325.98L122.21 327.78M122.21 327.78L124.26 329.1M124.26 329.1L127.07 329.58"/>
<path d="M127.07 312.49L127.07 309.15"/>
<path d="M121.46 308.88L123.1 311.43M123.1 311.43L127.07 312.49"/>
<path d="M121.46 303.54L121.46 308.88"/>
<path d="M121.46 303.54L122.21 306.34M122.21 306.34L124.26 308.4M124.26 308.4L127.07 309.15"/>
<path d="M121.46 303.54L122.21 306.34M122.21 306.34L124.26 308.4M124.26 308.4L127.07 309.15"/>
<path d="M121.46 303.54L122.21 306.34M122.21 306.34L124.26 308.4M124.26 308.4L127.07 309.15"/>
<path d="M127.07 303.54L121.46 303.54"/>
<path d="M127.07 309.15L127.07 303.54"/>
<path d="M127.07 303.54L127.07 254.92"/>
<path d="M121.46 303.54L127.07 303.54"/>
<path d="M121.46 249.31L121.46 303.54"/>
<path d="M121.46 249.31L121.63 250.71"/>
<path d="M123.1 253.28L122.74 252.88"/>
<path d="M123.54 253.67L123.1 253.28"/>
<path d="M121.46 249.31L122.21 252.11M122.21 252.11L124.26 254.17M124.26 254.17L127.07 254.92"/>
<path d="M121.46 249.31L122.21 252.11M122.21 252.11L124.26 254.17M124.26 254.17L127.07 254.92"/>
<path d="M127.07 249.31L121.46 249.31"/>
<path d="M127.07 254.92L127.07 249.31"/>
<path d="M127.07 254.92L139.22 254.92"/>
<path d="M127.07 249.31L127.07 254.92"/>
<path d="M144.83 249.31L127.07 249.31"/>
<path d="M142.69 251.46L144.83 249.31"/>
<path d="M140.86 253.28L142.69 251.46"/>
<path d="M139.65 254.49L140.86 253.28"/>
<path d="M139.22 254.92L139.65 254.49"/>
<path d="M121.46 249.31L127.07 249.31"/>
<path d="M121.46 217.05L121.46 249.31"/>
<path d="M121.46 217.05L121.89 219.2"/>
<path d="M121.89 219.2L123.1 221.02"/>
<path d="M123.1 221.02L124.92 222.24"/>
<path d="M124.92 222.24L127.07 222.66"/>
<path d="M127.07 249.31L127.07 222.66"/>
<path d="M139.22 254.92L139.22 273.62"/>
<path d="M139.65 254.49L139.22 254.92"/>
<path d="M140.86 253.28L139.65 254.49"/>
<path d="M142.69 251.46L140.86 253.28"/>
<path d="M143.74 250.4L142.69 251.46"/>
<path d="M144.83 249.31L143.74 250.4"/>
<path d="M144.83 273.62L144.83 249.31"/>
<path d="M139.22 273.62L144.83 273.62"/>
<path d="M144.83 273.62L139.22 273.62"/>
<path d="M144.83 279.23L144.83 273.62"/>
<path d="M139.22 273.62L139.97 276.42M139.97 276.42L142.03 278.48M142.03 278.48L144.83 279.23"/>
<path d="M139.22 273.62L139.97 276.42M139.97 276.42L142.03 278.48M142.03 278.48L144.83 279.23"/>
<path d="M144.83 279.23L453.37 279.23"/>
<path d="M144.83 273.62L144.83 279.23"/>
<path d="M453.37 273.62L144.83 273.62"/>
<path d="M453.37 279.23L453.37 273.62"/>
<path d="M453.37 273.62L453.37 279.23"/>
<path d="M458.98 273.62L453.37 273.62"/>
<path d="M453.37 279.23L456.18 278.48M456.18 278.48L458.23 276.42M458.23 276.42L458.98 273.62"/>
<path d="M453.37 279.23L456.18 278.48M456.18 278.48L458.23 276.42M458.23 276.42L458.98 273.62"/>
<path d="M458.98 273.62L458.98 254.92"/>
<path d="M453.37 273.62L458.98 273.62"/>
<path d="M453.37 249.31L453.37 273.62"/>
<path d="M455.53 251.45L453.37 249.31"/>
<path d="M457.34 253.28L455.53 251.45"/>
<path d="M458.56 254.49L457.34 253.28"/>
<path d="M458.98 254.92L458.56 254.49"/>
<path d="M458.98 254.92L471.14 254.92"/>
<path d="M458.56 254.49L458.98 254.92"/>
<path d="M457.34 253.28L458.56 254.49"/>
<path d="M455.52 251.46L457.34 253.28"/>
<path d="M454.47 250.4L455.52 251.46"/>
<path d="M453.37 249.31L454.47 250.4"/>
<path d="M471.14 249.31L453.37 249.31"/>
<path d="M471.14 254.92L471.14 249.31"/>
<path d="M471.14 249.31L471.14 254.92"/>
<path d="M476.75 249.31L471.14 249.31"/>
<path d="M471.14 254.92L473.94 254.17M473.94 254.17L476 252.11M476 252.11L476.75 249.31"/>
<path d="M471.14 254.92L473.94 254.17M473.94 254.17L476 252.11M476 252.11L476.75 249.31"/>
<path d="M471.14 249.31L476.75 249.31"/>
<path d="M471.14 222.66L471.14 249.31"/>
<path d="M471.14 222.66L473.29 222.24"/>
<path d="M473.29 222.24L475.11 221.02"/>
<path d="M475.1 221.02L476.32 219.2"/>
<path d="M476.32 219.2L476.64 218.15"/>
<path d="M476.64 218.15L476.75 217.05"/>
<path d="M476.75 249.31L476.75 217.05"/>
<path d="M471.14 254.92L471.14 303.54"/>
<path d="M475.1 253.28L476.32 251.46"/>
<path d="M476.75 303.54L476.75 249.31"/>
<path d="M471.14 303.54L476.75 303.54"/>
<path d="M476.75 303.54L471.14 303.54"/>
<path d="M471.14 309.15L473.94 308.4M473.94 308.4L476 306.34M476 306.34L476.75 303.54"/>
<path d="M471.14 303.54L471.14 309.15"/>
<path d="M471.14 303.54L323.41 303.54"/>
<path d="M471.14 309.15L471.14 303.54"/>
<path d="M127.07 309.15L471.14 309.15"/>
<path d="M127.07 303.54L127.07 309.15"/>
<path d="M274.79 303.54L127.07 303.54"/>
<path d="M274.03 304.47L274.79 303.54"/>
<path d="M274.03 304.47L273.59 305.45"/>
<path d="M273.59 305.45L273.55 306.44"/>
<path d="M273.56 306.44L273.91 307.28"/>
<path d="M273.91 307.28L274.31 307.59M274.31 307.59L274.79 307.7"/>
<path d="M323.41 307.7L274.79 307.7"/>
<path d="M323.41 307.7L323.9 307.59M323.9 307.59L324.29 307.28"/>
<path d="M324.29 307.28L324.65 306.44"/>
<path d="M324.65 306.44L324.61 305.45"/>
<path d="M324.61 305.45L324.18 304.47"/>
<path d="M323.41 303.54L324.17 304.47"/>
<path d="M471.14 309.15L473.94 308.4M473.94 308.4L476 306.34M476 306.34L476.75 303.54"/>
<path d="M471.14 309.15L471.14 312.49"/>
<path d="M476.75 308.88L476.75 303.55"/>
<path d="M471.14 312.49L475.11 311.43M475.11 311.43L476.75 308.88"/>
<path d="M471.14 312.49L471.14 329.58"/>
<path d="M471.14 312.49L475.11 311.43M475.11 311.43L476.75 308.88"/>
<path d="M476.75 325.98L476.75 308.88"/>
<path d="M471.14 329.58L473.94 329.1M473.94 329.1L476 327.78M476 327.78L476.75 325.98"/>
<path d="M471.14 329.58L473.28 329.31"/>
<path d="M473.28 329.31L475.11 328.53"/>
<path d="M475.1 328.53L476.32 327.36"/>
<path d="M476.32 327.36L476.64 326.68"/>
<path d="M476.64 326.68L476.75 325.98"/>
<path d="M471.14 331.59L473.94 330.84M473.94 330.84L476 328.78M476 328.78L476.75 325.98"/>
<path d="M471.14 329.58L471.14 331.59"/>
<path d="M471.14 331.59L473.94 330.84M473.94 330.84L476 328.78M476 328.78L476.75 325.98"/>
<path d="M178.8 110.21L177.56 110"/>
<path d="M198.91 110L177.56 110"/>
<path d="M200.54 110.62L198.91 109.99"/>
<path d="M202.68 111.99L200.55 110.6"/>
<path d="M205.04 113.73L202.68 111.99"/>
<path d="M207.47 115.61L205.04 113.73"/>
<path d="M181.3 115.61L207.47 115.61"/>
<path d="M446.83 115.61L446.08 112.8M446.08 112.8L444.02 110.75M444.02 110.75L441.22 110"/>
<path d="M446.83 115.61L446.08 112.8M446.08 112.8L444.02 110.75M444.02 110.75L441.22 110"/>
<path d="M441.22 115.61L446.83 115.61"/>
<path d="M441.22 110L441.22 115.61"/>
<path d="M441.22 110L403.82 110"/>
<path d="M441.22 115.61L441.22 110"/>
<path d="M407.56 115.61L441.22 115.61"/>
<path d="M441.22 115.61L441.22 132.44"/>
<path d="M446.83 115.61L441.22 115.61"/>
<path d="M446.83 132.44L446.83 115.61"/>
<path d="M381.38 110L378.74 111.09M378.74 111.09L377.64 113.74"/>
<path d="M381.38 110L378.74 111.09M378.74 111.09L377.64 113.74"/>
<path d="M381.38 113.74L381.38 110"/>
<path d="M377.64 113.74L381.38 113.74"/>
<path d="M381.38 113.74L377.64 113.74"/>
<path d="M381.38 138.05L381.38 113.74"/>
<path d="M380.13 136.51L381.38 138.05"/>
<path d="M378.97 135.03L380.13 136.51"/>
<path d="M378.05 133.71L378.97 135.03"/>
<path d="M377.63 132.76L378.05 133.71"/>
<path d="M377.64 113.74L377.64 132.76"/>
<path d="M381.38 113.74L403.82 113.74"/>
<path d="M381.38 110L381.38 113.74"/>
<path d="M403.82 110L381.38 110"/>
<path d="M403.82 113.74L403.82 110"/>
<path d="M403.82 110L403.82 113.74"/>
<path d="M407.56 113.74L407.06 111.87M407.06 111.87L405.69 110.5M405.69 110.5L403.82 110"/>
<path d="M403.82 113.74L407.56 113.74"/>
<path d="M407.56 113.74L403.82 113.74"/>
<path d="M407.56 132.76L407.56 113.74"/>
<path d="M407.15 133.71L407.57 132.76"/>
<path d="M406.23 135.03L407.16 133.71"/>
<path d="M405.07 136.51L406.23 135.03"/>
<path d="M403.82 138.05L405.07 136.51"/>
<path d="M403.82 113.74L403.82 138.05"/>
<path d="M407.56 113.74L407.06 111.87M407.06 111.87L405.69 110.5M405.69 110.5L403.82 110"/>
<path d="M181.3 113.74L180.79 111.87M180.79 111.87L179.43 110.5M179.43 110.5L177.56 110"/>
<path d="M181.3 113.74L180.79 111.87M180.79 111.87L179.43 110.5M179.43 110.5L177.56 110"/>
<path d="M177.56 113.74L181.3 113.74"/>
<path d="M177.56 110L177.56 113.74"/>
<path d="M177.56 110L155.12 110"/>
<path d="M177.56 113.74L177.56 110"/>
<path d="M155.12 113.74L177.56 113.74"/>
<path d="M155.12 110L155.12 113.74"/>
<path d="M181.3 113.74L177.56 113.74"/>
<path d="M181.3 132.76L181.3 113.74"/>
<path d="M180.88 133.71L181.3 132.76"/>
<path d="M179.96 135.03L180.89 133.71"/>
<path d="M178.8 136.51L179.96 135.03"/>
<path d="M177.56 138.05L178.8 136.51"/>
<path d="M177.56 113.74L177.56 138.05"/>
<path d="M155.12 113.74L155.12 110"/>
<path d="M151.38 113.74L155.12 113.74"/>
<path d="M155.12 110L152.47 111.09M152.47 111.09L151.38 113.74"/>
<path d="M155.12 110L152.47 111.09M152.47 111.09L151.38 113.74"/>
<path d="M155.12 113.74L151.38 113.74"/>
<path d="M155.12 138.05L155.12 113.74"/>
<path d="M153.87 136.51L155.12 138.05"/>
<path d="M152.71 135.03L153.87 136.51"/>
<path d="M151.78 133.71L152.71 135.03"/>
<path d="M151.37 132.76L151.79 133.71"/>
<path d="M151.38 113.74L151.38 132.76"/>
<path d="M476.75 147.4L475.61 141.67M475.61 141.67L472.37 136.82M472.37 136.82L467.51 133.58M467.51 133.58L461.79 132.44"/>
<path d="M136.42 132.44L130.69 133.58M130.69 133.58L125.84 136.82M125.84 136.82L122.6 141.67M122.6 141.67L121.46 147.4"/>
<path d="M157.92 148.33L157.92 261.46"/>
<path d="M163.53 153.94L157.92 148.33"/>
<path d="M163.53 255.85L163.53 153.94"/>
<path d="M157.92 261.46L163.53 255.85"/>
<path d="M440.28 261.46L440.28 148.33"/>
<path d="M434.67 255.85L440.28 261.46"/>
<path d="M434.67 153.94L434.67 255.85"/>
<path d="M440.28 148.33L434.67 153.94"/>
<path d="M440.28 261.46L434.67 255.85"/>
<path d="M157.92 261.46L440.28 261.46"/>
<path d="M163.53 255.85L157.92 261.46"/>
<path d="M434.67 255.85L163.53 255.85"/>
<path d="M157.92 148.33L163.53 153.94"/>
<path d="M440.28 148.33L157.92 148.33"/>
<path d="M434.67 153.94L440.28 148.33"/>
<path d="M163.53 153.94L434.67 153.94"/>
<path d="M329.02 309.15L269.18 309.15"/>
<path d="M329.02 324.11L329.02 309.15"/>
<path d="M329.21 325.78L330.49 328.56"/>
<path d="M332.07 330.13L334.74 331.38"/>
<path d="M329.02 324.11L329.59 326.97"/>
<path d="M329.59 326.97L331.21 329.4"/>
<path d="M331.21 329.4L333.64 331.02M333.64 331.02L336.5 331.59"/>
<path d="M329.34 326.25L330.85 329.01"/>
<path d="M329.02 324.26L329.02 324.11"/>
<path d="M329.02 324.11L330.03 327.85M330.03 327.85L332.76 330.59M332.76 330.59L336.5 331.59"/>
<path d="M336.5 329.58L332.08 328.52M332.08 328.52L330.44 327.31M330.44 327.31L329.36 325.73M329.36 325.73L329.02 324.11"/>
<path d="M336.5 331.59L336.5 329.58"/>
<path d="M329.38 309.15L332.09 311.56M332.09 311.56L336.5 312.49"/>
<path d="M336.5 329.58L336.5 312.49"/>
<path d="M329.59 326.21L331.71 328.31M331.71 328.31L334.04 329.27M334.04 329.27L336.5 329.58"/>
<path d="M329.02 324.11L329.59 326.21"/>
<path d="M329.02 309.15L329.02 324.11"/>
<path d="M329.38 309.15L332.09 311.56M332.09 311.56L336.5 312.49"/>
<path d="M332.25 309.15L329.38 309.15"/>
<path d="M336.5 312.49L336.5 309.15"/>
<path d="M263.36 331.4L266.1 330.16"/>
<path d="M267.71 328.56L268.99 325.82"/>
<path d="M261.7 331.59L265.86 330.33M265.86 330.33L268.61 326.97"/>
<path d="M268.61 326.97L269.18 324.11"/>
<path d="M267.36 329.01L268.87 326.25"/>
<path d="M269.18 324.26L269.18 324.11"/>
<path d="M261.7 331.59L265.44 330.59M265.44 330.59L268.18 327.85M268.18 327.85L269.18 324.11"/>
<path d="M261.7 329.58L261.7 331.59"/>
<path d="M269.18 324.11L268.36 326.6M268.36 326.6L265.12 328.98M265.12 328.98L261.7 329.58"/>
<path d="M269.18 324.11L269.18 309.15"/>
<path d="M268.61 326.2L269.18 324.11"/>
<path d="M266.99 327.98L268.62 326.2"/>
<path d="M261.7 329.58L267 327.99"/>
<path d="M261.7 312.49L261.7 329.58"/>
<path d="M261.7 312.49L266.11 311.56M266.11 311.56L268.83 309.15"/>
<path d="M261.7 312.49L266.11 311.56M266.11 311.56L268.83 309.15"/>
<path d="M261.7 309.15L261.7 312.49"/>
<path d="M329.02 309.15L329.02 324.11"/>
<path d="M269.18 324.11L269.18 309.15"/>
<path d="M471.14 331.59L433.74 331.59"/>
<path d="M336.5 331.59L471.14 331.59"/>
<path d="M336.5 329.58L336.5 331.59"/>
<path d="M471.14 329.58L336.5 329.58"/>
<path d="M471.14 331.59L471.14 329.58"/>
<path d="M336.5 331.59L471.14 331.59"/>
<path d="M471.14 329.58L336.5 329.58"/>
<path d="M471.14 312.49L471.14 329.58"/>
<path d="M336.5 312.49L471.14 312.49"/>
<path d="M336.5 329.58L336.5 312.49"/>
<path d="M471.14 312.49L336.5 312.49"/>
<path d="M471.14 309.15L471.14 312.49"/>
<path d="M336.5 309.15L471.14 309.15"/>
<path d="M336.5 312.49L336.5 309.15"/>
<path d="M136.42 217.05L121.46 217.05"/>
<path d="M121.46 194.61L136.42 194.61"/>
<path d="M136.42 194.61L136.42 217.05"/>
<path d="M136.42 194.61L136.42 217.05"/>
<path d="M121.46 194.61L136.42 194.61"/>
<path d="M121.46 217.05L121.46 194.61"/>
<path d="M476.75 217.05L461.79 217.05"/>
<path d="M461.79 217.05L461.79 194.61"/>
<path d="M461.79 194.61L476.75 194.61"/>
<path d="M476.75 194.61L476.75 217.05"/>
<path d="M461.79 194.61L476.75 194.61"/>
<path d="M127.07 254.92L139.22 254.92"/>
<path d="M139.22 254.92L139.22 273.62"/>
<path d="M458.98 273.62L458.98 254.92"/>
<path d="M458.98 254.92L471.14 254.92"/>
<path d="M181.3 113.74L181.3 132.76"/>
<path d="M407.56 113.74L407.56 132.76"/>
<path d="M241.93 80.74L233.72 73.15"/>
<path d="M233.72 73.15L229.91 71.66"/>
<path d="M364.48 73.15L356.27 80.74"/>
<path d="M368.29 71.66L364.48 73.15"/>
<path d="M211.21 81.01L207.47 81.01"/>
<path d="M211.21 132.44L211.21 81.01"/>
<path d="M207.47 115.61L181.3 115.61"/>
<path d="M207.47 81.01L207.47 115.61"/>
<path d="M198.13 81.01L198.13 110"/>
<path d="M229.91 71.66L211.21 71.66"/>
<path d="M211.21 71.66L207.47 71.66"/>
<path d="M220.56 132.44L220.56 81.01"/>
<path d="M151.38 113.74L151.38 132.76"/>
<path d="M198.91 110L177.56 110"/>
<path d="M177.56 110L155.12 110"/>
<path d="M441.22 115.61L441.22 132.44"/>
<path d="M407.56 115.61L441.22 115.61"/>
<path d="M400.08 110L400.08 81.01"/>
<path d="M441.22 110L403.82 110"/>
<path d="M403.82 110L381.38 110"/>
<path d="M446.83 132.44L446.83 115.61"/>
<path d="M377.64 81.01L377.64 113.74"/>
<path d="M377.64 113.74L377.64 132.76"/>
<path d="M386.99 71.66L368.29 71.66"/>
<path d="M390.73 71.66L386.99 71.66"/>
<path d="M257.96 71.66L250.81 73.09M250.81 73.09L244.74 77.14M244.74 77.14L240.69 83.21M240.69 83.21L239.26 90.36"/>
<path d="M257.96 76.58L257.96 71.66"/>
<path d="M257.96 76.58L251.42 78.33M251.42 78.33L246.63 83.12M246.63 83.12L244.87 89.67"/>
<path d="M244.87 89.67L240.91 89.87M240.91 89.87L239.26 90.36"/>
<path d="M257.96 71.66L250.81 73.09"/>
<path d="M250.81 73.09L244.74 77.14"/>
<path d="M244.74 77.14L240.69 83.21"/>
<path d="M240.69 83.21L239.62 86.72"/>
<path d="M239.62 86.72L239.26 90.36"/>
<path d="M353.33 89.67L351.58 83.12M351.58 83.12L346.79 78.33M346.79 78.33L340.24 76.58"/>
<path d="M340.24 71.66L340.24 76.58"/>
<path d="M358.94 90.36L357.52 83.21M357.52 83.21L353.46 77.14M353.46 77.14L347.4 73.09M347.4 73.09L340.24 71.66"/>
<path d="M358.94 90.36L358.19 90.02M358.19 90.02L356.14 89.76M356.14 89.76L353.33 89.67"/>
<path d="M358.94 90.36L358.58 86.72"/>
<path d="M358.58 86.72L357.52 83.21"/>
<path d="M357.52 83.21L353.46 77.14"/>
<path d="M353.46 77.14L347.4 73.09"/>
<path d="M347.4 73.09L340.24 71.66"/>
<path d="M252.35 109.06L252.35 105.32"/>
<path d="M254.09 72.07L250.3 73.31"/>
<path d="M347.91 73.31L344.12 72.07"/>
<path d="M244.47 77.42L244.61 77.27"/>
<path d="M353.6 77.27L353.74 77.42"/>
<path d="M240.64 83.32L240.83 82.88"/>
<path d="M240.2 84.54L240.64 83.32"/>
<path d="M239.94 85.38L240.2 84.54"/>
<path d="M239.7 86.34L239.94 85.38"/>
<path d="M239.64 86.65L239.7 86.34"/>
<path d="M358.01 84.53L358.33 85.62"/>
<path d="M357.6 83.4L358.01 84.53"/>
<path d="M357.38 82.88L357.52 83.2"/>
<path d="M257.96 71.66L257.96 76.58"/>
<path d="M340.24 71.66L257.96 71.66"/>
<path d="M340.24 76.58L340.24 71.66"/>
<path d="M257.96 76.58L340.24 76.58"/>
<path d="M242.82 104.74L243.61 102.74M243.61 102.74L244.07 102.05M244.07 102.05L244.6 101.63M244.6 101.63L244.87 101.58"/>
<path d="M242.8 104.73L241.06 113.74"/>
<path d="M239.26 113.74L241.05 113.74"/>
<path d="M239.26 90.36L239.26 113.74"/>
<path d="M244.87 89.67L242.07 89.76M242.07 89.76L240.02 90.02M240.02 90.02L239.26 90.36"/>
<path d="M244.87 101.58L244.87 89.67"/>
<path d="M358.48 113.74L358.94 113.74"/>
<path d="M357.16 113.74L358.48 113.74"/>
<path d="M357.15 113.74L355.4 104.73"/>
<path d="M353.33 101.58L353.61 101.64M353.61 101.64L354.16 102.08M354.16 102.08L355.17 104.08M355.17 104.08L355.39 104.74"/>
<path d="M353.33 89.67L353.33 101.58"/>
<path d="M358.94 90.36L358.19 90.02M358.19 90.02L356.14 89.76M356.14 89.76L353.33 89.67"/>
<path d="M358.94 113.74L358.94 90.36"/>
<path d="M345.85 113.74L351.46 113.74"/>
<path d="M246.74 113.74L252.35 113.74"/>
<path d="M250.3 73.31L246.87 75.31"/>
<path d="M351.34 75.31L347.91 73.31"/>
<path d="M242.78 79.44L240.83 82.88"/>
<path d="M357.38 82.88L355.43 79.45"/>
<path d="M239.73 113.74L239.26 113.74"/>
<path d="M241.05 113.74L239.73 113.74"/>
<path d="M252.35 113.74L241.05 113.74"/>
<path d="M357.16 113.74L345.85 113.74"/>
<path d="M358.48 113.74L357.16 113.74"/>
<path d="M358.94 113.74L358.48 113.74"/>
<path d="M345.85 113.74L252.35 113.74"/>
<path d="M252.35 113.74L252.35 110.93"/>
<path d="M345.85 110.93L345.85 113.74"/>
<path d="M252.35 110.93L345.85 110.93"/>
<path d="M252.35 110.93L252.35 96.91"/>
<path d="M345.85 110.93L252.35 110.93"/>
<path d="M345.85 96.91L345.85 110.93"/>
<path d="M252.35 96.91L345.85 96.91"/>
<path d="M345.85 96.91L252.35 96.91"/>
<path d="M252.35 96.91L252.35 109.06"/>
<path d="M163.53 255.85L163.53 153.94"/>
<path d="M163.53 153.94L434.67 153.94"/>
<path d="M434.67 153.94L434.67 255.85"/>
<path d="M144.83 279.23L453.37 279.23"/>
<path d="M274.79 303.54L127.07 303.54"/>
<path d="M274.79 304.47L274.79 303.54"/>
<path d="M323.41 304.47L274.79 304.47"/>
<path d="M323.41 303.54L323.41 304.47"/>
<path d="M471.14 303.54L323.41 303.54"/>
<path d="M471.14 254.92L471.14 303.54"/>
<path d="M458.98 254.92L471.14 254.92"/>
<path d="M458.56 275.77L458.98 273.62"/>
<path d="M457.34 277.59L458.56 275.77"/>
<path d="M455.52 278.8L457.34 277.59"/>
<path d="M453.37 279.23L455.52 278.8"/>
<path d="M144.83 279.23L453.37 279.23"/>
<path d="M142.69 278.8L144.83 279.23"/>
<path d="M140.87 277.59L142.69 278.8"/>
<path d="M139.65 275.77L140.87 277.59"/>
<path d="M139.22 273.62L139.65 275.77"/>
<path d="M139.22 254.92L139.22 273.62"/>
<path d="M127.07 254.92L139.22 254.92"/>
<path d="M127.07 303.54L127.07 254.92"/>
<path d="M157.92 261.46L157.92 148.33"/>
<path d="M440.28 261.46L157.92 261.46"/>
<path d="M440.28 148.33L440.28 261.46"/>
<path d="M157.92 148.33L440.28 148.33"/>
<path d="M127.78 143.82L127.07 147.4"/>
<path d="M129.81 140.79L127.78 143.82"/>
<path d="M132.84 138.76L129.81 140.79"/>
<path d="M136.42 138.05L132.84 138.76"/>
<path d="M155.12 138.05L136.42 138.05"/>
<path d="M155.12 113.74L155.12 138.05"/>
<path d="M177.56 113.74L155.12 113.74"/>
<path d="M177.56 138.05L177.56 113.74"/>
<path d="M257.96 138.05L177.56 138.05"/>
<path d="M257.96 119.35L257.96 138.05"/>
<path d="M340.24 119.35L257.96 119.35"/>
<path d="M340.24 138.05L340.24 119.35"/>
<path d="M381.38 138.05L340.24 138.05"/>
<path d="M381.38 113.74L381.38 138.05"/>
<path d="M403.82 113.74L381.38 113.74"/>
<path d="M403.82 138.05L403.82 113.74"/>
<path d="M461.79 138.05L403.82 138.05"/>
<path d="M465.37 138.76L461.79 138.05"/>
<path d="M468.4 140.79L465.37 138.76"/>
<path d="M470.43 143.82L468.4 140.79"/>
<path d="M471.14 147.4L470.43 143.82"/>
<path d="M471.14 189L471.14 147.4"/>
<path d="M456.18 189L471.14 189"/>
<path d="M456.18 222.66L456.18 189"/>
<path d="M471.14 222.66L456.18 222.66"/>
<path d="M471.14 249.31L471.14 222.66"/>
<path d="M453.37 249.31L471.14 249.31"/>
<path d="M453.37 273.62L453.37 249.31"/>
<path d="M144.83 273.62L453.37 273.62"/>
<path d="M144.83 249.31L144.83 273.62"/>
<path d="M127.07 249.31L144.83 249.31"/>
<path d="M127.07 222.66L127.07 249.31"/>
<path d="M142.03 222.66L127.07 222.66"/>
<path d="M142.03 189L142.03 222.66"/>
<path d="M127.07 189L142.03 189"/>
<path d="M127.07 147.4L127.07 189"/>
<path d="M476.75 308.88L476.75 325.98"/>
<path d="M476.75 304.94L476.75 308.88"/>
<path d="M476.75 303.54L476.75 304.94"/>
<path d="M476.75 249.31L476.75 303.54"/>
<path d="M476.75 217.05L476.75 249.31"/>
<path d="M476.75 194.61L476.75 217.05"/>
<path d="M476.75 147.4L476.75 194.61"/>
<path d="M476.75 127.76L476.75 147.4"/>
<path d="M121.46 147.4L121.46 127.76"/>
<path d="M121.46 194.61L121.46 147.4"/>
<path d="M121.46 217.05L121.46 194.61"/>
<path d="M121.46 249.31L121.46 217.05"/>
<path d="M121.46 303.54L121.46 249.31"/>
<path d="M121.46 304.94L121.46 303.54"/>
<path d="M121.46 308.88L121.46 304.94"/>
<path d="M121.46 325.98L121.46 308.88"/>
<path d="M351.46 113.74L358.51 113.74"/>
<path d="M239.73 113.74L246.74 113.74"/>
<path d="M239.26 90.36L239.26 113.74"/>
<path d="M252.35 105.32L252.35 113.74"/>
<path d="M357.16 113.74L345.85 113.74"/>
<path d="M357.14 113.74L355.4 104.73"/>
<path d="M353.33 101.58L353.57 101.63M353.57 101.63L354.03 101.94M354.03 101.94L354.49 102.56M354.49 102.56L355.39 104.73"/>
<path d="M345.85 101.58L353.33 101.58"/>
<path d="M244.87 101.58L252.35 101.58"/>
<path d="M242.82 104.73L243.71 102.56M243.71 102.56L244.17 101.94M244.17 101.94L244.64 101.63M244.64 101.63L244.87 101.58"/>
<path d="M242.81 104.73L241.06 113.74"/>
<path d="M252.35 113.74L241.05 113.74"/>
<path d="M239.26 113.74L239.26 90.36"/>
<path d="M358.94 90.36L358.94 113.74"/>
<path d="M340.24 71.66L257.96 71.66"/>
<path d="M353.33 101.58L353.33 89.67"/>
<path d="M345.85 101.58L353.33 101.58"/>
<path d="M244.87 101.58L252.35 101.58"/>
<path d="M244.87 89.67L244.87 101.58"/>
<path d="M245.87 84.66L244.87 89.67"/>
<path d="M248.71 80.41L245.87 84.66"/>
<path d="M252.96 77.58L248.71 80.41"/>
<path d="M257.96 76.58L252.95 77.58"/>
<path d="M340.24 76.58L257.96 76.58"/>
<path d="M345.25 77.58L340.24 76.58"/>
<path d="M349.5 80.41L345.25 77.58"/>
<path d="M352.33 84.66L349.5 80.41"/>
<path d="M353.33 89.67L352.33 84.66"/>
<path d="M461.79 132.44L407.56 132.44"/>
<path d="M151.38 132.44L136.42 132.44"/>
<path d="M400.08 90.36L439.35 90.36"/>
<path d="M358.94 90.36L359.63 90.36"/>
<path d="M238.57 90.36L239.26 90.36"/>
<path d="M158.86 90.36L198.13 90.36"/>
<path d="M390.73 81.01L390.73 110"/>
<path d="M386.99 81.01L390.73 81.01"/>
<path d="M386.99 110L386.99 81.01"/>
<path d="M377.64 132.44L345.85 132.44"/>
<path d="M252.35 132.44L181.3 132.44"/>
<path d="M261.7 331.59L235.52 331.59"/>
<path d="M127.07 331.59L261.7 331.59"/>
<path d="M261.7 331.59L261.7 329.58"/>
<path d="M127.07 331.59L261.7 331.59"/>
<path d="M127.07 329.58L127.07 331.59"/>
<path d="M261.7 329.58L127.07 329.58"/>
<path d="M127.07 312.49L261.7 312.49"/>
<path d="M127.07 329.58L127.07 312.49"/>
<path d="M261.7 329.58L127.07 329.58"/>
<path d="M261.7 312.49L261.7 329.58"/>
<path d="M127.07 309.15L261.7 309.15"/>
<path d="M127.07 312.49L127.07 309.15"/>
<path d="M261.7 312.49L127.07 312.49"/>
<path d="M261.7 309.15L261.7 312.49"/>
<path d="M362.68 331.59L336.5 331.59"/>
<path d="M164.47 331.59L127.07 331.59"/>
<path d="M471.14 309.15L127.07 309.15"/>
<path d="M446.4 113.46L445.19 111.64"/>
<path d="M445.19 111.64L443.37 110.43"/>
<path d="M439.35 95.97L400.08 95.97"/>
<path d="M445.55 96.58L439.35 95.97"/>
<path d="M451.51 98.39L445.55 96.58"/>
<path d="M457.01 101.33L451.51 98.39"/>
<path d="M461.83 105.29L457.01 101.33"/>
<path d="M465.78 110.1L461.83 105.29"/>
<path d="M468.72 115.6L465.78 110.1"/>
<path d="M470.53 121.56L468.72 115.6"/>
<path d="M471.14 127.76L470.53 121.56"/>
<path d="M471.14 135.72L471.14 127.76"/>
<path d="M470.91 135.54L466.99 133.37"/>
<path d="M154.45 110.06L153.45 110.39"/>
<path d="M151.83 111.96L151.38 113.74"/>
<path d="M151.38 132.44L151.38 113.74"/>
<path d="M136.22 132.44L131.46 133.28"/>
<path d="M131.46 133.28L127.07 135.72"/>
<path d="M127.07 127.76L127.07 135.72"/>
<path d="M127.68 121.56L127.07 127.76"/>
<path d="M129.49 115.6L127.68 121.56"/>
<path d="M132.42 110.1L129.49 115.6"/>
<path d="M136.38 105.29L132.42 110.1"/>
<path d="M141.2 101.33L136.38 105.29"/>
<path d="M146.69 98.39L141.2 101.33"/>
<path d="M152.65 96.58L146.69 98.39"/>
<path d="M158.86 95.97L152.66 96.58"/>
<path d="M198.13 95.97L158.86 95.97"/>
<path d="M198.13 110L198.13 95.97"/>
<path d="M252.35 124.02L252.35 113.74"/>
<path d="M228.45 81.01L220.56 81.01"/>
<path d="M238.57 90.36L228.45 81.01"/>
<path d="M239.26 90.36L238.57 90.36"/>
<path d="M359.63 90.36L358.94 90.36"/>
<path d="M369.75 81.01L359.63 90.36"/>
<path d="M377.64 81.01L369.75 81.01"/>
<path d="M377.64 132.44L377.64 81.01"/>
<path d="M252.35 124.02L252.35 132.44"/>
<path d="M252.35 110.93L252.35 96.91"/>
<path d="M252.35 113.74L252.35 110.93"/>
<path d="M252.35 132.44L252.35 113.74"/>
<path d="M345.85 110.93L345.85 96.91"/>
<path d="M345.85 113.74L345.85 110.93"/>
<path d="M345.85 132.44L345.85 113.74"/>
<path d="M405.69 229.68L192.52 229.68"/>
<path d="M405.69 229.68L408.55 229.11"/>
<path d="M408.55 229.11L410.98 227.48"/>
<path d="M410.98 227.48L412.6 225.06"/>
<path d="M412.6 225.06L413.17 222.2"/>
<path d="M413.17 186.67L412.6 183.8"/>
<path d="M412.6 183.8L410.98 181.38"/>
<path d="M410.98 181.38L408.55 179.76"/>
<path d="M408.55 179.76L405.69 179.19"/>
<path d="M192.52 179.19L189.65 179.76"/>
<path d="M189.65 179.76L187.23 181.38"/>
<path d="M187.23 181.38L185.61 183.8"/>
<path d="M185.61 183.8L185.04 186.67"/>
<path d="M185.04 222.2L185.04 186.67"/>
<path d="M185.04 222.2L185.61 225.06"/>
<path d="M185.61 225.06L187.23 227.48"/>
<path d="M187.23 227.48L189.65 229.11"/>
<path d="M189.65 229.11L192.52 229.68"/>
<path d="M434.67 252.11L434.67 153.94"/>
<path d="M434.61 252.8L434.67 252.11"/>
<path d="M433.57 254.75L434.28 253.79"/>
<path d="M432.71 255.41L433.57 254.75"/>
<path d="M164.64 254.75L165.58 255.45"/>
<path d="M163.98 253.89L164.64 254.75"/>
<path d="M434.67 153.94L163.53 153.94"/>
</g>
</g>
</svg>
