<?xml version="1.0" standalone="no"?><svg xmlns="http://www.w3.org/2000/svg" width="600.000" height="450.000" viewBox="0.0 0.0 600.000 450.000" version="1.1">
<title>Acme Converter - Post-processed with EDS-Designer: 14.44 (info@symca.com)</title>
<desc>Acme Converter - Post-processed with EDS-Designer: 14.44 (info@symca.com)</desc>
<g id="EDS_STYLE_GROUP" fill="none" stroke="black" stroke-width="1.0">
<g id="0" display="visible">
<path d="M250.19 372.52L251.03 375.04M251.03 375.04L251.03 369.99M251.03 369.99L250.19 372.52M250.19 372.52L248.51 370.83M248.51 370.83L245.98 369.99M245.98 369.99L244.3 369.99M244.3 369.99L241.78 370.83M241.78 370.83L240.09 372.52M240.09 372.52L239.25 374.2M239.25 374.2L238.41 376.72M238.41 376.72L238.41 380.93M238.41 380.93L239.25 383.45M239.25 383.45L240.09 385.14M240.09 385.14L241.78 386.82M241.78 386.82L244.3 387.66M244.3 387.66L245.98 387.66M245.98 387.66L248.51 386.82M248.51 386.82L250.19 385.14M244.3 369.99L242.62 370.83M242.62 370.83L240.94 372.52M240.94 372.52L240.09 374.2M240.09 374.2L239.25 376.72M239.25 376.72L239.25 380.93M239.25 380.93L240.09 383.45M240.09 383.45L240.94 385.14M240.94 385.14L242.62 386.82M242.62 386.82L244.3 387.66M250.19 380.93L250.19 387.66M251.03 380.93L251.03 387.66M247.67 380.93L253.56 380.93M260.29 387.66L260.29 369.99M261.13 369.99L261.13 387.66M257.76 369.99L267.86 369.99M267.86 369.99L270.39 370.83M270.39 370.83L271.23 371.67M271.23 371.67L272.07 373.36M272.07 373.36L272.07 375.04M272.07 375.04L271.23 376.72M271.23 376.72L270.39 377.56M270.39 377.56L267.86 378.41M267.86 378.41L261.13 378.41M267.86 369.99L269.55 370.83M269.55 370.83L270.39 371.67M270.39 371.67L271.23 373.36M271.23 373.36L271.23 375.04M271.23 375.04L270.39 376.72M270.39 376.72L269.55 377.56M269.55 377.56L267.86 378.41M257.76 387.66L263.66 387.66M265.34 378.41L267.02 379.25M267.02 379.25L267.86 380.09M267.86 380.09L270.39 385.98M270.39 385.98L271.23 386.82M271.23 386.82L272.07 386.82M272.07 386.82L272.91 385.98M267.02 379.25L267.86 380.93M267.86 380.93L269.55 386.82M269.55 386.82L270.39 387.66M270.39 387.66L272.07 387.66M272.07 387.66L272.91 385.98M272.91 385.98L272.91 385.14M278.8 387.66L278.8 369.99M279.64 369.99L279.64 387.66M284.69 375.04L284.69 381.77M276.28 369.99L289.74 369.99M289.74 369.99L289.74 375.04M289.74 375.04L288.9 369.99M279.64 378.41L284.69 378.41M276.28 387.66L289.74 387.66M289.74 387.66L289.74 382.61M289.74 382.61L288.9 387.66M296.47 387.66L296.47 369.99M297.31 369.99L297.31 387.66M302.36 375.04L302.36 381.77M293.95 369.99L307.41 369.99M307.41 369.99L307.41 375.04M307.41 375.04L306.57 369.99M297.31 378.41L302.36 378.41M293.95 387.66L307.41 387.66M307.41 387.66L307.41 382.61M307.41 382.61L306.57 387.66M314.14 387.66L314.14 369.99M314.98 387.66L314.98 369.99M314.98 369.99L325.08 385.98M314.98 371.67L325.08 387.66M325.08 387.66L325.08 369.99M311.62 369.99L314.98 369.99M322.56 369.99L327.61 369.99M311.62 387.66L316.67 387.66"/>
<path d="M208.91 144.07L211.86 142.64M211.86 142.64L213.05 139.59"/>
<path d="M325.46 116.91L325.46 111.8"/>
<path d="M353.01 139.59L354.2 142.64M354.2 142.64L357.15 144.07"/>
<path d="M198.5 339.19L198.91 339.48"/>
<path d="M198.5 339.19L198.91 339.48"/>
<path d="M307.66 165.63L307.66 153.03"/>
<path d="M307.66 153.03L340.13 153.03"/>
<path d="M225.93 153.03L258.4 153.03"/>
<path d="M225.93 146.31L225.93 153.03"/>
<path d="M258.4 153.03L258.4 161.98"/>
<path d="M258.4 161.98L214.53 161.98"/>
<path d="M197.94 178.58L197.94 221.12"/>
<path d="M197.94 221.12L201.99 221.12"/>
<path d="M258.4 153.03L307.66 153.03"/>
<path d="M345.51 351.9L354.28 350.76"/>
<path d="M384.92 329L385.79 324.18"/>
<path d="M348.53 139.59L348.53 144.07"/>
<path d="M348.42 144.07L348.42 139.59"/>
<path d="M243.28 144.07L243.28 153.03"/>
<path d="M348.42 139.59L348.53 139.59"/>
<path d="M328.38 144.07L330.62 143.47M330.62 143.47L332.25 141.83M332.25 141.83L332.85 139.59"/>
<path d="M328.38 148.55L332.85 147.35M332.85 147.35L336.13 144.07M336.13 144.07L337.33 139.59"/>
<path d="M212.3 117.2L217.53 117.2"/>
<path d="M209.84 121.68L213.05 121.68"/>
<path d="M228.73 92.91L225.6 92.91"/>
<path d="M248.32 111.13L246.21 111.6"/>
<path d="M319.85 111.6L317.74 111.13"/>
<path d="M325.46 121.24L325.7 118.45M325.7 118.45L325.46 116.91"/>
<path d="M240.6 116.91L240.36 118.45M240.36 118.45L240.6 121.24"/>
<path d="M324.16 116.68L323.34 121.01"/>
<path d="M241.9 116.68L242.73 121.01"/>
<path d="M240.6 116.91L241.9 116.68"/>
<path d="M283.03 111.6L242.73 111.6"/>
<path d="M353.01 139.59L351.7 139.59"/>
<path d="M351.7 139.59L348.53 139.59"/>
<path d="M348.53 139.59L348.53 117.2"/>
<path d="M353.01 139.59L353.01 121.68"/>
<path d="M332.85 92.91L332.85 85.85"/>
<path d="M334.52 82.36L333.29 83.92M333.29 83.92L332.85 85.85"/>
<path d="M317.74 83.61L248.32 83.61"/>
<path d="M317.74 111.13L317.74 84.08"/>
<path d="M248.32 84.08L248.32 111.13"/>
<path d="M317.74 84.08L248.32 84.08"/>
<path d="M248.32 111.13L248.32 111.6"/>
<path d="M290.87 111.13L317.74 111.13"/>
<path d="M248.32 111.13L275.19 111.13"/>
<path d="M317.74 111.6L317.74 111.13"/>
<path d="M322.22 88.09L321.62 85.85M321.62 85.85L319.98 84.21M319.98 84.21L317.74 83.61"/>
<path d="M322.22 88.09L321.62 86.09M321.62 86.09L319.98 84.62M319.98 84.62L317.74 84.08"/>
<path d="M317.74 83.61L317.74 84.08"/>
<path d="M323.34 111.6L283.03 111.6"/>
<path d="M324.16 116.68L325.46 116.91"/>
<path d="M324.16 116.68L296.81 113.24M296.81 113.24L269.25 113.24M269.25 113.24L241.9 116.68"/>
<path d="M275.19 99.29L275.19 111.6"/>
<path d="M178.91 202.17L178.91 203.2"/>
<path d="M178.91 213.09L178.91 203.2"/>
<path d="M178.91 224.68L178.91 217.74"/>
<path d="M178.91 247.2L178.91 228.04"/>
<path d="M178.91 222.72L178.91 222.6"/>
<path d="M178.91 223.54L178.91 222.72"/>
<path d="M178.91 224.68L178.91 223.54"/>
<path d="M178.91 229.37L178.91 227.95"/>
<path d="M178.91 230.35L178.91 229.37"/>
<path d="M178.91 231.86L178.91 230.35"/>
<path d="M178.91 234.25L178.91 231.86"/>
<path d="M178.91 235.2L178.91 234.25"/>
<path d="M178.91 222.6L178.91 217.74"/>
<path d="M178.91 213.22L178.91 213.09"/>
<path d="M178.91 213.45L178.91 213.22"/>
<path d="M178.91 213.96L178.91 213.45"/>
<path d="M178.91 214.29L178.91 213.96"/>
<path d="M178.91 214.82L178.91 214.29"/>
<path d="M178.91 215.24L178.91 214.82"/>
<path d="M178.91 215.75L178.91 215.24"/>
<path d="M178.91 216.02L178.91 215.75"/>
<path d="M178.91 216.12L178.91 216.02"/>
<path d="M178.91 216.23L178.91 216.12"/>
<path d="M178.91 217.5L178.91 216.02"/>
<path d="M178.91 217.74L178.91 217.5"/>
<path d="M178.91 238.71L178.91 235.49"/>
<path d="M178.91 239.2L178.91 238.71"/>
<path d="M178.91 235.49L178.91 235.2"/>
<path d="M178.91 245.63L178.91 243.48"/>
<path d="M178.91 247.21L178.91 245.63"/>
<path d="M178.91 242.5L178.91 242.31"/>
<path d="M178.91 242.74L178.91 242.5"/>
<path d="M178.91 243.02L178.91 242.74"/>
<path d="M178.91 243.14L178.91 243.02"/>
<path d="M178.91 243.41L178.91 243.14"/>
<path d="M178.91 247.63L178.91 247.21"/>
<path d="M178.91 248.1L178.91 247.63"/>
<path d="M178.91 248.49L178.91 248.1"/>
<path d="M178.91 248.77L178.91 248.49"/>
<path d="M178.91 248.87L178.91 248.77"/>
<path d="M178.91 208.75L178.91 208.72"/>
<path d="M178.91 208.81L178.91 208.75"/>
<path d="M178.91 208.97L178.91 208.81"/>
<path d="M178.91 209.4L178.91 208.97"/>
<path d="M178.91 209.72L178.91 209.4"/>
<path d="M178.91 209.94L178.91 209.72"/>
<path d="M178.91 210.3L178.91 209.94"/>
<path d="M178.91 210.68L178.91 210.3"/>
<path d="M178.91 211.23L178.91 210.68"/>
<path d="M178.91 211.76L178.91 211.23"/>
<path d="M178.91 212.2L178.91 211.76"/>
<path d="M178.91 212.46L178.91 212.2"/>
<path d="M178.91 212.56L178.91 212.46"/>
<path d="M178.91 207.06L178.91 204.98"/>
<path d="M178.91 207.34L178.91 207.06"/>
<path d="M178.91 206.13L178.91 204.98"/>
<path d="M178.91 206.4L178.91 206.13"/>
<path d="M178.91 200.59L178.91 200.5"/>
<path d="M178.91 200.79L178.91 200.59"/>
<path d="M178.91 201.17L178.91 200.79"/>
<path d="M178.91 201.55L178.91 201.17"/>
<path d="M178.91 201.74L178.91 201.55"/>
<path d="M178.91 202.12L178.91 201.74"/>
<path d="M178.91 202.4L178.91 202.12"/>
<path d="M178.91 204.5L178.91 202.4"/>
<path d="M178.91 204.98L178.91 204.5"/>
<path d="M178.91 224.87L178.91 224.78"/>
<path d="M178.91 225.24L178.91 224.87"/>
<path d="M178.91 225.62L178.91 225.24"/>
<path d="M178.91 226.27L178.91 225.62"/>
<path d="M178.91 226.46L178.91 226.27"/>
<path d="M178.91 227.11L178.91 226.46"/>
<path d="M178.91 227.48L178.91 227.11"/>
<path d="M178.91 227.86L178.91 227.48"/>
<path d="M178.91 227.95L178.91 227.86"/>
<path d="M178.91 228.04L178.91 227.95"/>
<path d="M178.91 279.58L178.91 275.46"/>
<path d="M178.91 282.77L178.91 279.58"/>
<path d="M178.91 285.57L178.91 282.77"/>
<path d="M178.91 293.14L178.91 285.57"/>
<path d="M178.91 296.34L178.91 293.14"/>
<path d="M178.91 275.46L178.91 273.77"/>
<path d="M275.19 99.29L290.87 99.29"/>
<path d="M290.87 99.29L290.87 111.6"/>
<path d="M325.46 116.91L331.17 119.6M331.17 119.6L334.18 124.27M334.18 124.27L334.53 126.77"/>
<path d="M334.53 122.8L334.53 126.77"/>
<path d="M334.53 122.8L333.03 117.2M333.03 117.2L328.94 113.1M328.94 113.1L323.34 111.6"/>
<path d="M248.32 83.61L246.08 84.21M246.08 84.21L244.44 85.85M244.44 85.85L243.84 88.09"/>
<path d="M248.32 84.08L248.32 83.61"/>
<path d="M248.32 84.08L245.16 85.26M245.16 85.26L243.84 88.09"/>
<path d="M337.33 89.04L337.33 87.21"/>
<path d="M337.33 89.04L334.17 90.17M334.17 90.17L332.85 92.91"/>
<path d="M332.85 139.59L333.4 139.59M333.4 139.59L337.33 139.59"/>
<path d="M332.85 135.11L332.85 139.59"/>
<path d="M332.85 92.91L332.85 116.9"/>
<path d="M332.85 92.91L337.33 92.91"/>
<path d="M337.33 92.91L337.33 139.59"/>
<path d="M338.33 89.04L337.33 89.04"/>
<path d="M340.46 92.91L337.33 92.91"/>
<path d="M337.33 92.91L337.33 89.04"/>
<path d="M353.01 121.68L356.22 121.68"/>
<path d="M353.01 121.68L348.53 117.2"/>
<path d="M348.53 117.2L353.77 117.2"/>
<path d="M231.53 126.77L233.05 121.72M233.05 121.72L237.48 117.89M237.48 117.89L240.6 116.91"/>
<path d="M240.6 116.91L240.6 111.8"/>
<path d="M242.73 111.6L237.13 113.1M237.13 113.1L233.03 117.2M233.03 117.2L231.53 122.8"/>
<path d="M323.34 121.01L296.54 117.64M296.54 117.64L269.53 117.64M269.53 117.64L242.72 121.01"/>
<path d="M231.53 126.77L231.53 122.8"/>
<path d="M240.6 121.24L242.73 121.01"/>
<path d="M242.73 130.63L242.73 121.01"/>
<path d="M231.53 135.11L231.53 126.77"/>
<path d="M231.53 126.77L231.72 125.72M231.72 125.72L233.19 123.82M233.19 123.82L236.45 122.1M236.45 122.1L240.6 121.24"/>
<path d="M233.77 135.11L234.85 134.94M234.85 134.94L237.51 133.78M237.51 133.78L242.73 130.63"/>
<path d="M323.34 130.63L242.73 130.63"/>
<path d="M325.46 121.24L328.97 121.9M328.97 121.9L331.94 123.16M331.94 123.16L334.12 125.26M334.12 125.26L334.53 126.77"/>
<path d="M334.53 126.77L334.53 135.11"/>
<path d="M323.34 130.63L330.31 134.62M330.31 134.62L332.29 135.11"/>
<path d="M323.34 121.01L323.34 130.63"/>
<path d="M323.34 121.01L325.46 121.24"/>
<path d="M322.22 83.61L321.62 81.37M321.62 81.37L319.98 79.73M319.98 79.73L317.74 79.13"/>
<path d="M248.32 79.13L246.08 79.73M246.08 79.73L244.44 81.37M244.44 81.37L243.84 83.61"/>
<path d="M248.32 79.13L317.74 79.13"/>
<path d="M231.53 135.11L233.77 135.11"/>
<path d="M332.29 135.11L233.77 135.11"/>
<path d="M332.29 135.11L334.53 135.11"/>
<path d="M322.22 135.11L322.22 153.03"/>
<path d="M322.22 111.6L322.22 88.09"/>
<path d="M322.22 83.61L322.22 88.09"/>
<path d="M243.84 135.11L243.84 153.03"/>
<path d="M243.84 88.09L243.84 83.61"/>
<path d="M243.84 88.09L243.84 111.6"/>
<path d="M220.89 247.08L222.84 231.62M222.84 231.62L228.58 217.14M228.58 217.14L237.73 204.54M237.73 204.54L249.74 194.61M249.74 194.61L263.83 187.98M263.83 187.98L279.13 185.06M279.13 185.06L294.67 186.04M294.67 186.04L309.49 190.85M309.49 190.85L322.64 199.2M322.64 199.2L333.3 210.55M333.3 210.55L340.81 224.2M340.81 224.2L344.68 239.29M344.68 239.29L344.68 254.86M344.68 254.86L340.81 269.95M340.81 269.95L333.3 283.6M333.3 283.6L322.64 294.95M322.64 294.95L309.49 303.3M309.49 303.3L294.67 308.11M294.67 308.11L279.13 309.09M279.13 309.09L263.83 306.17M263.83 306.17L249.74 299.54M249.74 299.54L237.73 289.61M237.73 289.61L228.58 277.01M228.58 277.01L222.84 262.53M222.84 262.53L220.89 247.08"/>
<path d="M228.73 89.04L227.73 89.04"/>
<path d="M228.73 89.04L228.73 92.91"/>
<path d="M228.73 87.21L228.73 89.04"/>
<path d="M233.21 85.85L232.77 83.92M232.77 83.92L231.54 82.36"/>
<path d="M233.21 92.91L231.9 90.17M231.9 90.17L228.73 89.04"/>
<path d="M228.73 139.59L228.73 92.91"/>
<path d="M228.73 92.91L233.21 92.91"/>
<path d="M233.21 116.9L233.21 92.91"/>
<path d="M233.21 139.59L233.21 135.11"/>
<path d="M233.21 85.85L233.21 92.91"/>
<path d="M217.53 117.2L217.53 139.59"/>
<path d="M213.05 121.68L213.05 139.59"/>
<path d="M213.05 121.68L217.53 117.2"/>
<path d="M214.36 139.59L217.53 139.59"/>
<path d="M213.05 143.23L217.53 139.59"/>
<path d="M215.1 144.07L213.46 143.58M213.46 143.58L211.75 143.76"/>
<path d="M384.82 338.58L385.57 339.47"/>
<path d="M354.28 350.76L370.28 340.84M370.28 340.84L384.92 329"/>
<path d="M368.52 350.63L384.81 338.58"/>
<path d="M368.52 350.63L369.15 351.61"/>
<path d="M369.15 351.61L385.57 339.47"/>
<path d="M236.49 144.07L233.55 143.39M233.55 143.39L230.36 141.18M230.36 141.18L228.73 139.59"/>
<path d="M228.73 139.59L233.21 139.59"/>
<path d="M233.21 139.59L234.52 142.76M234.52 142.76L237.69 144.07"/>
<path d="M211.75 143.76L213.05 143.23"/>
<path d="M212.12 143.87L211.75 143.76"/>
<path d="M213.05 139.59L214.36 139.59"/>
<path d="M212.13 143.87L213.06 144.07"/>
<path d="M328.38 148.55L328.38 144.07"/>
<path d="M322.78 148.55L328.38 148.55"/>
<path d="M322.78 144.07L322.78 148.55"/>
<path d="M322.78 148.55L322.78 153.03"/>
<path d="M384.81 338.58L386.53 337.52M386.53 337.52L387.16 336.05"/>
<path d="M384.92 329L384.82 338.58"/>
<path d="M384.92 329.01L386.56 327.97M386.56 327.97L387.16 326.57"/>
<path d="M385.57 339.47L386.74 337.93M386.74 337.93L387.16 336.05"/>
<path d="M366.73 352.32L367.72 351.87M367.72 351.87L368.52 350.63"/>
<path d="M352.71 352.32L353.57 351.91M353.57 351.91L354.28 350.76"/>
<path d="M368.52 350.63L354.28 350.76"/>
<path d="M366.73 352.32L369.15 351.61"/>
<path d="M243.28 144.07L236.49 144.07"/>
<path d="M322.78 144.07L328.38 144.07"/>
<path d="M387.16 326.56L387.16 336.05"/>
<path d="M387.16 326.56L387.16 320.97"/>
<path d="M385.79 324.18L386.8 322.71M386.8 322.71L387.16 320.96"/>
<path d="M178.91 320.96L179.26 322.71M179.26 322.71L180.27 324.18"/>
<path d="M343.62 352.32L352.71 352.32"/>
<path d="M366.73 352.32L352.71 352.32"/>
<path d="M220.55 351.9L222.45 352.32"/>
<path d="M343.62 352.32L345.51 351.9"/>
<path d="M258.4 165.63L258.4 161.98"/>
<path d="M201.99 221.12L198.49 237.43M198.49 237.43L198.23 254.11M198.23 254.11L201.23 270.52M201.23 270.52L207.38 286.03M207.38 286.03L216.43 300.04M216.43 300.04L228.04 312.01M228.04 312.01L241.77 321.49M241.77 321.49L257.08 328.11"/>
<path d="M197.94 178.58L214.53 161.98"/>
<path d="M225.93 146.31L208.91 146.31"/>
<path d="M225.93 144.07L208.91 144.07"/>
<path d="M225.93 146.31L225.93 144.07"/>
<path d="M201.06 133.05L199.96 137.5M199.96 137.5L201.21 141.92M201.21 141.92L204.48 145.13M204.48 145.13L208.91 146.31"/>
<path d="M203.02 134.12L202.31 138.62M202.31 138.62L204.63 142.53M204.63 142.53L208.91 144.07"/>
<path d="M208.91 144.07L208.91 146.31"/>
<path d="M201.06 133.05L228.62 82.75"/>
<path d="M203.02 134.12L230.58 83.83"/>
<path d="M203.02 134.12L201.06 133.05"/>
<path d="M240.4 75.77L233.55 77.65M233.55 77.65L228.62 82.75"/>
<path d="M240.4 78.01L234.69 79.58M234.69 79.58L230.58 83.83"/>
<path d="M230.58 83.83L228.62 82.75"/>
<path d="M240.4 75.77L325.66 75.77"/>
<path d="M240.4 78.01L325.66 78.01"/>
<path d="M240.4 78.01L240.4 75.77"/>
<path d="M337.44 82.75L332.51 77.65M332.51 77.65L325.66 75.77"/>
<path d="M335.48 83.83L331.37 79.58M331.37 79.58L325.66 78.01"/>
<path d="M325.66 78.01L325.66 75.77"/>
<path d="M337.44 82.75L365 133.05"/>
<path d="M335.48 83.83L363.04 134.12"/>
<path d="M335.48 83.83L337.44 82.75"/>
<path d="M357.15 146.31L361.58 145.13M361.58 145.13L364.86 141.92M364.86 141.92L366.11 137.5M366.11 137.5L365 133.05"/>
<path d="M357.15 144.07L361.43 142.53M361.43 142.53L363.75 138.62M363.75 138.62L363.04 134.12"/>
<path d="M363.04 134.12L365 133.05"/>
<path d="M357.15 144.07L340.13 144.07"/>
<path d="M357.15 144.07L357.15 146.31"/>
<path d="M357.15 146.31L340.13 146.31"/>
<path d="M340.13 144.07L340.13 146.31"/>
<path d="M340.13 146.31L340.13 153.03"/>
<path d="M343.61 347.84L364.27 336.03M364.27 336.03L382.68 320.96"/>
<path d="M382.68 320.96L385.79 324.18"/>
<path d="M345.51 351.9L359.93 344.17M359.93 344.17L373.42 334.89M373.42 334.89L385.79 324.18"/>
<path d="M343.62 347.84L345.51 351.9"/>
<path d="M382.68 320.96L382.68 146.94"/>
<path d="M387.16 320.96L387.16 146.94"/>
<path d="M382.68 320.96L387.16 320.96"/>
<path d="M382.68 146.94L381.85 143.71"/>
<path d="M387.16 146.94L385.78 141.56"/>
<path d="M387.16 146.94L382.68 146.94"/>
<path d="M381.85 143.71L348 81.94"/>
<path d="M385.78 141.56L351.93 79.79"/>
<path d="M385.78 141.56L381.85 143.71"/>
<path d="M348 81.94L341.52 73.91M341.52 73.91L332.63 68.65M332.63 68.65L322.47 66.82"/>
<path d="M351.93 79.79L346.62 72.58M346.62 72.58L339.59 67.03M339.59 67.03L331.35 63.53M331.35 63.53L322.47 62.34"/>
<path d="M351.93 79.79L348 81.94"/>
<path d="M322.47 66.82L243.59 66.82"/>
<path d="M322.47 62.34L243.59 62.34"/>
<path d="M322.47 62.34L322.47 66.82"/>
<path d="M243.59 66.82L233.43 68.65M233.43 68.65L224.55 73.91M224.55 73.91L218.06 81.94"/>
<path d="M243.59 62.34L234.71 63.53M234.71 63.53L226.47 67.03M226.47 67.03L219.44 72.58M219.44 72.58L214.13 79.79"/>
<path d="M243.59 62.34L243.59 66.82"/>
<path d="M218.06 81.94L184.21 143.71"/>
<path d="M214.13 79.79L180.28 141.56"/>
<path d="M214.13 79.79L218.06 81.94"/>
<path d="M184.21 143.71L183.38 146.94"/>
<path d="M180.28 141.56L178.91 146.94"/>
<path d="M180.28 141.56L184.21 143.71"/>
<path d="M178.91 146.94L178.91 320.96"/>
<path d="M178.91 146.94L183.38 146.94"/>
<path d="M183.38 146.94L183.39 320.97"/>
<path d="M183.38 320.96L178.91 320.96"/>
<path d="M180.27 324.18L192.65 334.89M192.65 334.89L206.13 344.17M206.13 344.17L220.55 351.9"/>
<path d="M180.27 324.18L183.38 320.96"/>
<path d="M183.39 320.97L201.8 336.03M201.8 336.03L222.45 347.84"/>
<path d="M222.45 347.84L220.55 351.9"/>
<path d="M222.45 352.32L343.62 352.32"/>
<path d="M222.45 347.84L222.45 352.32"/>
<path d="M222.45 347.84L343.61 347.84"/>
<path d="M343.62 347.84L343.62 352.32"/>
<path d="M307.66 165.63L291.35 162.39M291.35 162.39L274.71 162.39M274.71 162.39L258.4 165.63"/>
<path d="M257.08 328.11L274.46 331.73M274.46 331.73L292.2 331.67M292.2 331.67L309.55 327.93M309.55 327.93L325.75 320.67M325.75 320.67L340.09 310.2M340.09 310.2L351.94 296.99M351.94 296.99L360.8 281.61M360.8 281.61L366.27 264.73M366.27 264.73L368.12 247.08"/>
<path d="M368.12 247.08L366.2 229.1M366.2 229.1L360.53 211.94M360.53 211.94L351.36 196.36M351.36 196.36L339.1 183.07M339.1 183.07L324.31 172.67M324.31 172.67L307.66 165.63"/>
<path d="M348.41 139.59L348.54 139.59"/>
<path d="M158.01 232.57L159.36 231.9M159.36 231.9L161.38 229.88M161.38 229.88L161.38 244.02"/>
</g>
</g>
</svg>
