<?xml version="1.0" standalone="no"?><svg xmlns="http://www.w3.org/2000/svg" width="600.000" height="450.000" viewBox="0.0 0.0 600.000 450.000" version="1.1">
<title>Acme Converter - Post-processed with EDS-Designer: 14.44 (info@symca.com)</title>
<desc>Acme Converter - Post-processed with EDS-Designer: 14.44 (info@symca.com)</desc>
<g id="EDS_STYLE_GROUP" fill="none" stroke="black" stroke-width="1.0">
<g id="0" display="visible">
<path d="M249.78 365.45L251.06 369.3M251.06 369.3L251.06 361.6M251.06 361.6L249.78 365.45M249.78 365.45L247.21 362.89M247.21 362.89L243.36 361.6M243.36 361.6L240.8 361.6M240.8 361.6L236.95 362.89M236.95 362.89L234.38 365.45M234.38 365.45L233.1 368.02M233.1 368.02L231.81 371.87M231.81 371.87L231.81 378.29M231.81 378.29L233.1 382.14M233.1 382.14L234.38 384.7M234.38 384.7L236.95 387.27M236.95 387.27L240.8 388.55M240.8 388.55L243.36 388.55M243.36 388.55L247.21 387.27M247.21 387.27L249.78 384.7M240.8 361.6L238.23 362.89M238.23 362.89L235.66 365.45M235.66 365.45L234.38 368.02M234.38 368.02L233.1 371.87M233.1 371.87L233.1 378.29M233.1 378.29L234.38 382.14M234.38 382.14L235.66 384.7M235.66 384.7L238.23 387.27M238.23 387.27L240.8 388.55M249.78 378.29L249.78 388.55M251.06 378.29L251.06 388.55M245.93 378.29L254.91 378.29M265.18 388.55L265.18 361.6M266.46 361.6L266.46 388.55M261.33 361.6L276.73 361.6M276.73 361.6L280.58 362.89M280.58 362.89L281.86 364.17M281.86 364.17L283.14 366.74M283.14 366.74L283.14 369.3M283.14 369.3L281.86 371.87M281.86 371.87L280.58 373.15M280.58 373.15L276.73 374.44M276.73 374.44L266.46 374.44M276.73 361.6L279.29 362.89M279.29 362.89L280.58 364.17M280.58 364.17L281.86 366.74M281.86 366.74L281.86 369.3M281.86 369.3L280.58 371.87M280.58 371.87L279.29 373.15M279.29 373.15L276.73 374.44M261.33 388.55L270.31 388.55M272.88 374.44L275.44 375.72M275.44 375.72L276.73 377M276.73 377L280.58 385.99M280.58 385.99L281.86 387.27M281.86 387.27L283.14 387.27M283.14 387.27L284.43 385.99M275.44 375.72L276.73 378.29M276.73 378.29L279.29 387.27M279.29 387.27L280.58 388.55M280.58 388.55L283.14 388.55M283.14 388.55L284.43 385.99M284.43 385.99L284.43 384.7M293.41 388.55L293.41 361.6M294.69 361.6L294.69 388.55M302.39 369.3L302.39 379.57M289.56 361.6L310.09 361.6M310.09 361.6L310.09 369.3M310.09 369.3L308.81 361.6M294.69 374.44L302.39 374.44M289.56 388.55L310.09 388.55M310.09 388.55L310.09 380.85M310.09 380.85L308.81 388.55M320.36 388.55L320.36 361.6M321.64 361.6L321.64 388.55M329.34 369.3L329.34 379.57M316.51 361.6L337.04 361.6M337.04 361.6L337.04 369.3M337.04 369.3L335.76 361.6M321.64 374.44L329.34 374.44M316.51 388.55L337.04 388.55M337.04 388.55L337.04 380.85M337.04 380.85L335.76 388.55M347.31 388.55L347.31 361.6M348.59 388.55L348.59 361.6M348.59 361.6L363.99 385.99M348.59 364.17L363.99 388.55M363.99 388.55L363.99 361.6M343.46 361.6L348.59 361.6M360.14 361.6L367.84 361.6M343.46 388.55L351.16 388.55"/>
<path d="M164.65 253.16L164.65 153.82"/>
<path d="M164.81 253.16L164.81 153.82"/>
<path d="M169.48 230.66L169.48 176.33"/>
<path d="M207.34 334.66L249.25 334.66"/>
<path d="M350.15 334.66L392.06 334.66"/>
<path d="M288.83 331.55L310.56 331.55"/>
<path d="M202.68 330L249.25 330"/>
<path d="M350.15 330L396.71 330"/>
<path d="M201.01 290.44L201.01 290.44"/>
<path d="M201.01 290.44L201.06 290.48"/>
<path d="M201.06 290.48L201.2 290.61M201.2 290.61L201.41 290.82M201.41 290.82L201.63 291.07M201.63 291.07L201.85 291.36M201.85 291.36L202.06 291.68M202.06 291.68L202.24 292.02"/>
<path d="M202.24 292.03L202.38 292.37M202.38 292.37L202.48 292.67"/>
<path d="M180.18 246.18L180.18 160.81"/>
<path d="M184.55 283.43L184.55 288.09"/>
<path d="M202.39 292.38L202.5 292.73M202.5 292.73L202.54 292.88"/>
<path d="M187.94 246.18L187.94 160.81"/>
<path d="M189.49 241.52L189.49 165.46"/>
<path d="M197.25 241.52L197.25 165.46"/>
<path d="M361.79 308.27L350.15 308.27"/>
<path d="M249.25 308.27L237.61 308.27"/>
<path d="M361.79 303.61L237.61 303.61"/>
<path d="M202.68 294.02L202.53 292.84"/>
<path d="M202.68 294.01L202.68 330"/>
<path d="M207.34 334.66L207.34 300.38"/>
<path d="M361.79 295.85L237.61 295.85"/>
<path d="M357.13 294.3L242.27 294.3"/>
<path d="M184.55 288.09L198.58 288.09"/>
<path d="M400.81 288.09L414.85 288.09"/>
<path d="M357.13 286.54L242.27 286.54"/>
<path d="M212.77 251.61L212.77 155.37"/>
<path d="M215.88 251.61L215.88 155.37"/>
<path d="M220.53 155.37L220.53 186.42"/>
<path d="M220.53 220.57L220.53 251.61"/>
<path d="M184.55 283.43L194.24 283.43"/>
<path d="M405.16 283.43L414.85 283.43"/>
<path d="M230.62 186.42L230.62 220.57"/>
<path d="M231.4 262.48L231.4 267.13"/>
<path d="M231.4 270.24L231.4 285.21"/>
<path d="M231.4 144.51L231.4 139.85"/>
<path d="M231.4 136.75L231.4 121.78"/>
<path d="M232.95 149.16L232.95 174"/>
<path d="M233.73 270.24L233.73 285.72"/>
<path d="M233.73 136.75L233.73 121.26"/>
<path d="M236.83 270.24L236.83 286.21"/>
<path d="M231.4 270.24L368 270.24"/>
<path d="M231.4 267.13L368 267.13"/>
<path d="M231.4 262.48L263.76 262.48"/>
<path d="M283.94 262.48L315.45 262.48"/>
<path d="M335.63 262.48L368 262.48"/>
<path d="M237.61 103.37L237.61 111.13"/>
<path d="M237.61 308.27L237.61 295.85"/>
<path d="M242.27 112.69L242.27 120.45"/>
<path d="M242.27 294.3L242.27 286.54"/>
<path d="M243.04 92.51L243.04 87.85"/>
<path d="M246.15 220.57L246.15 186.42"/>
<path d="M249.25 334.66L249.25 303.61"/>
<path d="M430.09 257.82L418.03 257.82"/>
<path d="M181.37 257.82L169.31 257.82"/>
<path d="M434.74 253.16L418.79 253.16"/>
<path d="M180.6 253.16L164.65 253.16"/>
<path d="M220.53 251.61L215.88 251.61"/>
<path d="M212.77 251.61L198.4 251.61"/>
<path d="M378.86 251.61L383.52 251.61"/>
<path d="M386.62 251.61L401 251.61"/>
<path d="M253.13 120.45L253.13 103.37"/>
<path d="M256.24 174L256.24 149.16"/>
<path d="M257.79 286.54L257.79 270.24"/>
<path d="M260.89 111.13L260.89 112.69"/>
<path d="M261.28 196.89L261.28 210.09"/>
<path d="M335.63 246.95L315.45 246.95"/>
<path d="M283.94 246.95L263.76 246.95"/>
<path d="M419.22 246.18L411.46 246.18"/>
<path d="M180.18 246.18L187.94 246.18"/>
<path d="M409.91 241.52L402.15 241.52"/>
<path d="M189.49 241.52L197.25 241.52"/>
<path d="M212.77 240.75L197.25 240.75"/>
<path d="M386.62 240.75L402.15 240.75"/>
<path d="M263.76 267.13L263.76 246.95"/>
<path d="M263.76 160.03L263.76 139.85"/>
<path d="M267.64 172.45L267.64 196.89"/>
<path d="M267.64 210.09L267.64 234.54"/>
<path d="M268.65 103.37L268.65 120.45"/>
<path d="M207.34 300.39L209.61 296.32"/>
<path d="M267.64 234.54L280.06 234.54"/>
<path d="M319.33 234.54L331.75 234.54"/>
<path d="M180.18 230.66L169.48 230.66"/>
<path d="M419.22 230.66L429.92 230.66"/>
<path d="M180.18 229.88L197.25 229.88"/>
<path d="M402.15 229.88L419.22 229.88"/>
<path d="M280.06 234.54L280.06 210.09"/>
<path d="M280.06 196.89L280.06 172.45"/>
<path d="M283.94 267.13L283.94 246.95"/>
<path d="M283.94 160.03L283.94 139.85"/>
<path d="M286.43 210.09L286.43 196.89"/>
<path d="M288.06 61.46L288.06 103.37"/>
<path d="M215.88 220.57L246.15 220.57"/>
<path d="M353.25 220.57L383.52 220.57"/>
<path d="M212.77 219.01L197.25 219.01"/>
<path d="M386.62 219.01L402.15 219.01"/>
<path d="M261.28 210.09L267.64 210.09"/>
<path d="M280.06 210.09L286.43 210.09"/>
<path d="M312.97 210.09L319.33 210.09"/>
<path d="M331.75 210.09L338.12 210.09"/>
<path d="M288.83 303.61L288.83 331.55"/>
<path d="M411.46 206.6L409.91 206.6"/>
<path d="M189.49 206.6L187.94 206.6"/>
<path d="M338.12 196.89L331.75 196.89"/>
<path d="M319.33 196.89L312.97 196.89"/>
<path d="M286.43 196.89L280.06 196.89"/>
<path d="M267.64 196.89L261.28 196.89"/>
<path d="M417.42 282.07L421.27 284.68"/>
<path d="M310.56 303.61L310.56 331.55"/>
<path d="M311.34 61.46L311.34 103.37"/>
<path d="M312.97 196.89L312.97 210.09"/>
<path d="M181.98 282.07L178.12 284.68"/>
<path d="M212.77 190.3L197.25 190.3"/>
<path d="M386.62 190.3L402.15 190.3"/>
<path d="M215.88 186.42L246.15 186.42"/>
<path d="M353.25 186.42L383.52 186.42"/>
<path d="M315.45 267.13L315.45 246.95"/>
<path d="M315.45 160.03L315.45 139.85"/>
<path d="M319.33 172.45L319.33 196.89"/>
<path d="M319.33 210.09L319.33 234.54"/>
<path d="M236.06 177.1L253.13 177.1"/>
<path d="M346.26 177.1L363.34 177.1"/>
<path d="M180.18 176.33L169.48 176.33"/>
<path d="M419.22 176.33L429.92 176.33"/>
<path d="M331.75 172.45L319.33 172.45"/>
<path d="M280.06 172.45L267.64 172.45"/>
<path d="M330.74 103.37L330.74 120.45"/>
<path d="M331.75 234.54L331.75 210.09"/>
<path d="M331.75 196.89L331.75 172.45"/>
<path d="M335.63 267.13L335.63 246.95"/>
<path d="M335.63 160.03L335.63 139.85"/>
<path d="M338.12 210.09L338.12 196.89"/>
<path d="M338.5 111.13L338.5 112.69"/>
<path d="M409.91 165.46L402.15 165.46"/>
<path d="M189.49 165.46L197.25 165.46"/>
<path d="M212.77 163.13L197.31 163.13"/>
<path d="M386.62 163.13L402.08 163.13"/>
<path d="M419.22 160.81L411.46 160.81"/>
<path d="M180.18 160.81L187.94 160.81"/>
<path d="M335.63 160.03L315.45 160.03"/>
<path d="M283.94 160.03L263.76 160.03"/>
<path d="M389.79 296.32L392.06 300.39"/>
<path d="M343.16 149.16L343.16 174"/>
<path d="M346.26 120.45L346.26 103.37"/>
<path d="M350.15 334.66L350.15 303.61"/>
<path d="M220.53 155.37L215.88 155.37"/>
<path d="M212.77 155.37L198.4 155.37"/>
<path d="M386.62 155.37L401 155.37"/>
<path d="M378.86 155.37L383.52 155.37"/>
<path d="M164.65 153.82L180.6 153.82"/>
<path d="M418.79 153.82L434.74 153.82"/>
<path d="M169.31 149.16L181.37 149.16"/>
<path d="M418.03 149.16L430.09 149.16"/>
<path d="M363.34 146.06L346.26 146.06"/>
<path d="M253.13 146.06L236.06 146.06"/>
<path d="M353.25 220.57L353.25 186.42"/>
<path d="M356.35 92.51L356.35 87.85"/>
<path d="M357.13 112.69L357.13 120.45"/>
<path d="M357.13 294.3L357.13 286.54"/>
<path d="M361.79 103.37L361.79 111.13"/>
<path d="M361.79 308.27L361.79 295.85"/>
<path d="M368 144.51L335.63 144.51"/>
<path d="M315.45 144.51L283.94 144.51"/>
<path d="M263.76 144.51L231.4 144.51"/>
<path d="M368 139.85L231.4 139.85"/>
<path d="M231.4 136.75L368 136.75"/>
<path d="M365.67 270.24L365.67 285.72"/>
<path d="M365.67 136.75L365.67 121.26"/>
<path d="M366.44 174L366.44 149.16"/>
<path d="M368 262.48L368 267.13"/>
<path d="M368 270.24L368 285.21"/>
<path d="M368 144.51L368 139.85"/>
<path d="M368 136.75L368 121.78"/>
<path d="M368.77 186.42L368.77 220.57"/>
<path d="M242.27 120.45L357.13 120.45"/>
<path d="M378.86 251.61L378.86 220.57"/>
<path d="M378.86 186.42L378.86 155.37"/>
<path d="M383.52 251.61L383.52 155.37"/>
<path d="M386.62 251.61L386.62 155.37"/>
<path d="M242.27 112.69L357.13 112.69"/>
<path d="M237.61 111.13L361.79 111.13"/>
<path d="M392.06 334.66L392.06 300.39"/>
<path d="M396.71 330L396.71 294.01"/>
<path d="M402.15 165.46L402.15 241.52"/>
<path d="M237.61 103.37L361.79 103.37"/>
<path d="M409.91 165.46L409.91 241.52"/>
<path d="M411.46 160.81L411.46 246.18"/>
<path d="M414.85 283.43L414.85 288.09"/>
<path d="M396.71 294.01L396.86 292.84"/>
<path d="M356.35 92.51L311.34 92.51"/>
<path d="M288.06 92.51L243.04 92.51"/>
<path d="M356.35 87.85L311.34 87.85"/>
<path d="M288.06 87.85L243.04 87.85"/>
<path d="M419.22 160.81L419.22 246.18"/>
<path d="M396.85 292.88L396.88 292.77M396.88 292.77L396.89 292.75"/>
<path d="M396.86 292.84L396.94 292.58M396.94 292.58L397.06 292.24M397.06 292.24L397.23 291.89M397.23 291.89L397.42 291.54M397.42 291.54L397.64 291.22M397.64 291.22L397.88 290.93M397.88 290.93L398.11 290.69M398.11 290.69L398.3 290.51M398.3 290.51L398.38 290.44M398.38 290.44L398.39 290.44"/>
<path d="M288.06 76.98L311.34 76.98"/>
<path d="M429.92 230.66L429.92 176.33"/>
<path d="M434.58 253.16L434.58 153.82"/>
<path d="M434.74 253.16L434.74 153.82"/>
<path d="M288.06 61.46L311.34 61.46"/>
<path d="M166.3 256.72L170.84 271.28M170.84 271.28L178.12 284.68"/>
<path d="M171.33 257.87L175.56 270.45M175.56 270.45L181.98 282.07"/>
<path d="M207.34 300.39L216.93 304.72M216.93 304.72L227.12 307.37M227.12 307.37L237.61 308.27"/>
<path d="M180.18 246.18L182.13 261.04M182.13 261.04L187.87 274.89M187.87 274.89L197 286.79M197 286.79L208.89 295.92M208.89 295.92L222.74 301.65M222.74 301.65L237.61 303.61"/>
<path d="M189.49 241.52L191.29 255.18M191.29 255.18L196.56 267.91M196.56 267.91L204.95 278.84M204.95 278.84L215.88 287.23M215.88 287.23L228.61 292.5M228.61 292.5L242.27 294.3"/>
<path d="M187.94 246.18L189.63 259.03M189.63 259.03L194.59 271.01M194.59 271.01L202.49 281.3M202.49 281.3L212.77 289.19M212.77 289.19L224.75 294.16M224.75 294.16L237.61 295.85"/>
<path d="M197.25 241.52L198.78 253.17M198.78 253.17L203.28 264.03M203.28 264.03L210.43 273.35M210.43 273.35L219.76 280.51M219.76 280.51L230.61 285M230.61 285L242.27 286.54"/>
<path d="M212.77 251.61L214.19 258.74M214.19 258.74L218.23 264.78M218.23 264.78L224.27 268.82M224.27 268.82L231.4 270.24"/>
<path d="M215.88 251.61L217.06 257.55M217.06 257.55L220.42 262.59M220.42 262.59L225.46 265.95M225.46 265.95L231.4 267.13"/>
<path d="M220.53 251.61L221.99 257.04M221.99 257.04L225.97 261.02M225.97 261.02L231.4 262.48"/>
<path d="M178.12 284.68L180.91 287.18M180.91 287.18L184.55 288.09"/>
<path d="M164.81 253.16L165.02 254.55"/>
<path d="M164.65 253.16L164.89 254.63"/>
<path d="M202.68 330L204.05 333.29M204.05 333.29L207.34 334.66"/>
<path d="M164.89 254.63L166.58 256.94M166.58 256.94L169.31 257.82"/>
<path d="M202.54 292.88L201 290.43"/>
<path d="M181.98 282.07L183.09 283.07M183.09 283.07L184.55 283.43"/>
<path d="M187.94 206.6L184.06 207.64M184.06 207.64L181.22 210.48M181.22 210.48L180.18 214.36"/>
<path d="M197.25 214.36L196.21 210.48M196.21 210.48L193.37 207.64M193.37 207.64L189.49 206.6"/>
<path d="M169.31 149.16L166.02 150.53M166.02 150.53L164.65 153.82"/>
<path d="M243.04 87.85L227.85 89.34M227.85 89.34L213.23 93.74M213.23 93.74L199.75 100.89M199.75 100.89L187.91 110.52M187.91 110.52L178.15 122.26M178.15 122.26L170.86 135.67M170.86 135.67L166.3 150.24"/>
<path d="M243.04 92.51L226.75 94.33M226.75 94.33L211.27 99.7M211.27 99.7L197.36 108.36M197.36 108.36L185.7 119.88M185.7 119.88L176.88 133.69M176.88 133.69L171.33 149.11"/>
<path d="M242.27 112.69L228.61 114.48M228.61 114.48L215.88 119.76M215.88 119.76L204.95 128.14M204.95 128.14L196.56 139.07M196.56 139.07L191.29 151.8M191.29 151.8L189.49 165.46"/>
<path d="M242.27 120.45L230.61 121.98M230.61 121.98L219.76 126.48M219.76 126.48L210.43 133.63M210.43 133.63L203.28 142.95M203.28 142.95L198.78 153.81M198.78 153.81L197.25 165.46"/>
<path d="M253.13 177.1L255.33 176.19M255.33 176.19L256.24 174"/>
<path d="M232.95 174L233.86 176.19M233.86 176.19L236.06 177.1"/>
<path d="M237.61 103.37L222.74 105.33M222.74 105.33L208.89 111.07M208.89 111.07L197 120.19M197 120.19L187.87 132.09M187.87 132.09L182.13 145.94M182.13 145.94L180.18 160.81"/>
<path d="M237.61 111.13L224.75 112.83M224.75 112.83L212.77 117.79M212.77 117.79L202.49 125.68M202.49 125.68L194.59 135.97M194.59 135.97L189.63 147.95M189.63 147.95L187.94 160.81"/>
<path d="M231.4 136.75L224.27 138.16M224.27 138.16L218.23 142.2M218.23 142.2L214.19 148.24M214.19 148.24L212.77 155.37"/>
<path d="M231.4 139.85L225.46 141.03M225.46 141.03L220.42 144.4M220.42 144.4L217.06 149.43M217.06 149.43L215.88 155.37"/>
<path d="M231.4 144.51L225.97 145.96M225.97 145.96L221.99 149.94M221.99 149.94L220.53 155.37"/>
<path d="M260.89 112.69L261.93 116.57M261.93 116.57L264.77 119.41M264.77 119.41L268.65 120.45"/>
<path d="M268.65 103.37L264.77 104.41M264.77 104.41L261.93 107.25M261.93 107.25L260.89 111.13"/>
<path d="M236.06 146.06L233.86 146.97M233.86 146.97L232.95 149.16"/>
<path d="M256.24 149.16L255.33 146.97M255.33 146.97L253.13 146.06"/>
<path d="M392.06 334.66L395.35 333.29M395.35 333.29L396.71 330"/>
<path d="M421.27 284.68L428.55 271.28M428.55 271.28L433.1 256.72"/>
<path d="M417.42 282.07L423.84 270.45M423.84 270.45L428.07 257.87"/>
<path d="M361.79 308.27L372.28 307.38M372.28 307.38L382.46 304.72M382.46 304.72L392.05 300.39"/>
<path d="M361.79 303.61L376.65 301.65M376.65 301.65L390.5 295.92M390.5 295.92L402.4 286.79M402.4 286.79L411.53 274.89M411.53 274.89L417.26 261.04M417.26 261.04L419.22 246.18"/>
<path d="M357.13 294.3L370.79 292.5M370.79 292.5L383.52 287.23M383.52 287.23L394.45 278.84M394.45 278.84L402.84 267.91M402.84 267.91L408.11 255.18M408.11 255.18L409.91 241.52"/>
<path d="M361.79 295.85L374.64 294.16M374.64 294.16L386.62 289.19M386.62 289.19L396.91 281.3M396.91 281.3L404.8 271.01M404.8 271.01L409.77 259.03M409.77 259.03L411.46 246.18"/>
<path d="M357.13 286.54L368.78 285M368.78 285L379.64 280.51M379.64 280.51L388.96 273.35M388.96 273.35L396.11 264.03M396.11 264.03L400.61 253.17M400.61 253.17L402.15 241.52"/>
<path d="M368 270.24L375.12 268.82M375.12 268.82L381.17 264.78M381.17 264.78L385.2 258.74M385.2 258.74L386.62 251.61"/>
<path d="M368 267.13L373.94 265.95M373.94 265.95L378.97 262.59M378.97 262.59L382.34 257.55M382.34 257.55L383.52 251.61"/>
<path d="M368 262.48L373.43 261.02M373.43 261.02L377.41 257.04M377.41 257.04L378.86 251.61"/>
<path d="M398.4 290.43L396.86 292.84"/>
<path d="M414.85 288.09L418.49 287.18M418.49 287.18L421.27 284.68"/>
<path d="M430.09 257.82L433.38 256.46M433.38 256.46L434.74 253.16"/>
<path d="M414.85 283.43L416.3 283.07M416.3 283.07L417.42 282.07"/>
<path d="M433.09 150.24L428.54 135.67M428.54 135.67L421.24 122.26M421.24 122.26L411.49 110.52M411.49 110.52L399.65 100.89M399.65 100.89L386.16 93.74M386.16 93.74L371.55 89.34M371.55 89.34L356.35 87.85"/>
<path d="M428.07 149.11L422.51 133.69M422.51 133.69L413.69 119.88M413.69 119.88L402.04 108.36M402.04 108.36L388.12 99.7M388.12 99.7L372.64 94.33M372.64 94.33L356.35 92.51"/>
<path d="M409.91 165.46L408.11 151.8M408.11 151.8L402.84 139.07M402.84 139.07L394.45 128.14M394.45 128.14L383.52 119.76M383.52 119.76L370.79 114.48M370.79 114.48L357.13 112.69"/>
<path d="M402.15 165.46L400.61 153.81M400.61 153.81L396.11 142.95M396.11 142.95L388.96 133.63M388.96 133.63L379.64 126.48M379.64 126.48L368.78 121.98M368.78 121.98L357.13 120.45"/>
<path d="M363.34 177.1L365.53 176.19M365.53 176.19L366.44 174"/>
<path d="M343.16 174L344.07 176.19M344.07 176.19L346.26 177.1"/>
<path d="M346.26 146.06L344.07 146.97M344.07 146.97L343.16 149.16"/>
<path d="M330.74 120.45L334.62 119.41M334.62 119.41L337.46 116.57M337.46 116.57L338.5 112.69"/>
<path d="M338.5 111.13L337.46 107.25M337.46 107.25L334.62 104.41M334.62 104.41L330.74 103.37"/>
<path d="M419.22 160.81L417.26 145.94M417.26 145.94L411.53 132.09M411.53 132.09L402.4 120.19M402.4 120.19L390.5 111.07M390.5 111.07L376.65 105.33M376.65 105.33L361.79 103.37"/>
<path d="M411.46 160.81L409.77 147.95M409.77 147.95L404.8 135.97M404.8 135.97L396.91 125.68M396.91 125.68L386.62 117.79M386.62 117.79L374.64 112.83M374.64 112.83L361.79 111.13"/>
<path d="M386.62 155.37L385.2 148.24M385.2 148.24L381.17 142.2M381.17 142.2L375.12 138.16M375.12 138.16L368 136.75"/>
<path d="M383.52 155.37L382.34 149.43M382.34 149.43L378.97 144.4M378.97 144.4L373.94 141.03M373.94 141.03L368 139.85"/>
<path d="M378.86 155.37L377.41 149.94M377.41 149.94L373.43 145.96M373.43 145.96L368 144.51"/>
<path d="M366.44 149.16L365.53 146.97M365.53 146.97L363.34 146.06"/>
<path d="M419.22 214.36L418.18 210.48M418.18 210.48L415.34 207.64M415.34 207.64L411.46 206.6"/>
<path d="M409.91 206.6L406.03 207.64M406.03 207.64L403.19 210.48M403.19 210.48L402.15 214.36"/>
<path d="M434.58 153.82L434.38 152.43"/>
<path d="M434.74 153.82L434.51 152.35"/>
<path d="M434.51 152.35L432.81 150.04M432.81 150.04L430.09 149.16"/>
<path d="M169.31 257.82L169.13 257.82M169.13 257.82L168.95 257.8M168.95 257.8L168.77 257.79M168.77 257.79L168.59 257.76M168.59 257.76L168.41 257.73M168.41 257.73L168.24 257.69M168.24 257.69L168.06 257.64M168.06 257.64L167.89 257.58M167.89 257.58L167.72 257.52M167.72 257.52L167.55 257.45M167.55 257.45L167.39 257.37M167.39 257.37L167.23 257.29M167.23 257.29L167.07 257.2M167.07 257.2L166.92 257.11M166.92 257.11L166.77 257.01M166.77 257.01L166.62 256.9M166.62 256.9L166.48 256.79M166.48 256.79L166.35 256.67M166.35 256.67L166.22 256.54M166.22 256.54L166.09 256.41M166.09 256.41L165.97 256.28M165.97 256.28L165.85 256.14M165.85 256.14L165.74 256M165.74 256L165.64 255.85M165.64 255.85L165.45 255.55M165.45 255.55L165.28 255.23M165.28 255.23L165.13 254.89M165.13 254.89L165.02 254.55"/>
<path d="M202.68 294.01L203.2 294.86M203.2 294.86L203.74 295.69M203.74 295.69L204.29 296.5M204.29 296.5L204.86 297.31M204.86 297.31L205.45 298.1M205.45 298.1L206.06 298.88M206.06 298.88L206.69 299.64M206.69 299.64L207.34 300.39"/>
<path d="M169.31 149.16L169.09 149.17M169.09 149.17L168.86 149.19M168.86 149.19L168.64 149.22M168.64 149.22L168.42 149.26M168.42 149.26L168.2 149.31M168.2 149.31L167.98 149.37M167.98 149.37L167.77 149.44M167.77 149.44L167.56 149.53M167.56 149.53L167.36 149.62M167.36 149.62L167.16 149.73M167.16 149.73L166.97 149.85M166.97 149.85L166.78 149.97M166.78 149.97L166.6 150.1M166.6 150.1L166.43 150.25M166.43 150.25L166.26 150.4M166.26 150.4L166.1 150.56M166.1 150.56L165.95 150.72M165.95 150.72L165.81 150.9M165.81 150.9L165.68 151.08M165.68 151.08L165.55 151.26M165.55 151.26L165.43 151.46M165.43 151.46L165.33 151.65M165.33 151.65L165.23 151.86M165.23 151.86L165.14 152.06M165.14 152.06L165.07 152.28M165.07 152.28L165 152.49M165 152.49L164.94 152.71M164.94 152.71L164.9 152.93M164.9 152.93L164.86 153.15M164.86 153.15L164.83 153.37M164.83 153.37L164.82 153.6M164.82 153.6L164.81 153.82"/>
<path d="M392.06 300.39L392.7 299.64M392.7 299.64L393.33 298.88M393.33 298.88L393.94 298.1M393.94 298.1L394.53 297.31M394.53 297.31L395.1 296.5M395.1 296.5L395.66 295.69M395.66 295.69L396.19 294.86M396.19 294.86L396.46 294.44M396.46 294.44L396.58 294.22M396.58 294.22L396.71 294.01"/>
<path d="M430.09 257.82L430.31 257.81M430.31 257.81L430.53 257.8M430.53 257.8L430.76 257.77M430.76 257.77L430.98 257.73M430.98 257.73L431.2 257.68M431.2 257.68L431.41 257.61M431.41 257.61L431.62 257.54M431.62 257.54L431.83 257.45M431.83 257.45L432.04 257.36M432.04 257.36L432.24 257.25M432.24 257.25L432.43 257.14M432.43 257.14L432.62 257.01M432.62 257.01L432.8 256.88M432.8 256.88L432.97 256.74M432.97 256.74L433.14 256.59M433.14 256.59L433.29 256.43M433.29 256.43L433.44 256.26M433.44 256.26L433.59 256.09M433.59 256.09L433.72 255.91M433.72 255.91L433.85 255.72M433.85 255.72L433.96 255.53M433.96 255.53L434.07 255.33M434.07 255.33L434.16 255.13M434.16 255.13L434.25 254.92M434.25 254.92L434.33 254.71M434.33 254.71L434.4 254.49M434.4 254.49L434.45 254.27M434.45 254.27L434.5 254.05M434.5 254.05L434.54 253.83M434.54 253.83L434.56 253.61M434.56 253.61L434.58 253.39M434.58 253.39L434.58 253.16"/>
<path d="M430.09 149.16L430.27 149.17M430.27 149.17L430.45 149.18M430.45 149.18L430.62 149.2M430.62 149.2L430.8 149.22M430.8 149.22L430.98 149.26M430.98 149.26L431.16 149.3M431.16 149.3L431.33 149.35M431.33 149.35L431.5 149.4M431.5 149.4L431.67 149.46M431.67 149.46L431.84 149.53M431.84 149.53L432 149.61M432 149.61L432.17 149.69M432.17 149.69L432.32 149.78M432.32 149.78L432.48 149.88M432.48 149.88L432.63 149.98M432.63 149.98L432.77 150.08M432.77 150.08L432.91 150.2M432.91 150.2L433.05 150.32M433.05 150.32L433.18 150.44M433.18 150.44L433.31 150.57M433.31 150.57L433.43 150.7M433.43 150.7L433.54 150.84M433.54 150.84L433.65 150.98M433.65 150.98L433.76 151.13M433.76 151.13L433.95 151.44M433.95 151.44L434.12 151.76M434.12 151.76L434.26 152.09M434.26 152.09L434.38 152.43"/>
<path d="M135.33 190.74L137.39 189.71M137.39 189.71L140.47 186.63M140.47 186.63L140.47 208.19"/>
<path d="M451.32 191.77L451.32 190.74M451.32 190.74L452.35 188.69M452.35 188.69L453.38 187.66M453.38 187.66L455.43 186.63M455.43 186.63L459.54 186.63M459.54 186.63L461.59 187.66M461.59 187.66L462.62 188.69M462.62 188.69L463.64 190.74M463.64 190.74L463.64 192.79M463.64 192.79L462.62 194.85M462.62 194.85L460.56 197.93M460.56 197.93L450.3 208.19M450.3 208.19L464.67 208.19"/>
</g>
</g>
</svg>
