<?xml version="1.0" standalone="no"?><svg xmlns="http://www.w3.org/2000/svg" width="600.000" height="450.000" viewBox="0.0 0.0 600.000 450.000" version="1.1">
<title>Acme Converter - Post-processed with EDS-Designer: 14.44 (info@symca.com)</title>
<desc>Acme Converter - Post-processed with EDS-Designer: 14.44 (info@symca.com)</desc>
<g id="EDS_STYLE_GROUP" fill="none" stroke="black" stroke-width="1.0">
<g id="0" display="visible">
<path d="M245.79 376.1L245.79 352.8M246.9 352.8L246.9 376.1M242.46 352.8L255.78 352.8M255.78 352.8L259.11 353.91M259.11 353.91L260.22 355.02M260.22 355.02L261.33 357.24M261.33 357.24L261.33 359.46M261.33 359.46L260.22 361.68M260.22 361.68L259.11 362.79M259.11 362.79L255.78 363.9M255.78 352.8L258 353.91M258 353.91L259.11 355.02M259.11 355.02L260.22 357.24M260.22 357.24L260.22 359.46M260.22 359.46L259.11 361.68M259.11 361.68L258 362.79M258 362.79L255.78 363.9M246.9 363.9L255.78 363.9M255.78 363.9L259.11 365.01M259.11 365.01L260.22 366.12M260.22 366.12L261.33 368.34M261.33 368.34L261.33 371.67M261.33 371.67L260.22 373.88M260.22 373.88L259.11 374.99M259.11 374.99L255.78 376.1M255.78 376.1L242.46 376.1M255.78 363.9L258 365.01M258 365.01L259.11 366.12M259.11 366.12L260.22 368.34M260.22 368.34L260.22 371.67M260.22 371.67L259.11 373.88M259.11 373.88L258 374.99M258 374.99L255.78 376.1M270.21 376.1L270.21 352.8M271.32 352.8L271.32 376.1M266.88 352.8L274.65 352.8M266.88 376.1L283.53 376.1M283.53 376.1L283.53 369.45M283.53 369.45L282.42 376.1M296.84 352.8L289.08 376.1M296.84 352.8L304.61 376.1M296.84 356.13L303.5 376.1M291.3 369.45L301.28 369.45M286.86 376.1L293.52 376.1M300.17 376.1L306.83 376.1M325.7 356.13L326.81 359.46M326.81 359.46L326.81 352.8M326.81 352.8L325.7 356.13M325.7 356.13L323.48 353.91M323.48 353.91L320.15 352.8M320.15 352.8L317.93 352.8M317.93 352.8L314.6 353.91M314.6 353.91L312.38 356.13M312.38 356.13L311.27 358.35M311.27 358.35L310.16 361.68M310.16 361.68L310.16 367.23M310.16 367.23L311.27 370.56M311.27 370.56L312.38 372.77M312.38 372.77L314.6 374.99M314.6 374.99L317.93 376.1M317.93 376.1L320.15 376.1M320.15 376.1L323.48 374.99M323.48 374.99L325.7 372.77M325.7 372.77L326.81 370.56M317.93 352.8L315.71 353.91M315.71 353.91L313.49 356.13M313.49 356.13L312.38 358.35M312.38 358.35L311.27 361.68M311.27 361.68L311.27 367.23M311.27 367.23L312.38 370.56M312.38 370.56L313.49 372.77M313.49 372.77L315.71 374.99M315.71 374.99L317.93 376.1M336.8 376.1L336.8 352.8M337.91 352.8L337.91 376.1M352.34 352.8L337.91 367.23M343.46 362.79L352.34 376.1M342.35 362.79L351.23 376.1M333.47 352.8L341.24 352.8M347.9 352.8L354.56 352.8M333.47 376.1L341.24 376.1M347.9 376.1L354.56 376.1"/>
<path d="M572.06 134.12L573.83 133.24M573.83 133.24L576.5 130.57M576.5 130.57L576.5 149.22"/>
<path d="M3.72 194.58L5.5 193.69M5.5 193.69L8.16 191.03M8.16 191.03L8.16 209.67M18.82 195.47L18.82 194.58M18.82 194.58L19.7 192.8M19.7 192.8L20.59 191.92M20.59 191.92L22.37 191.03M22.37 191.03L25.92 191.03M25.92 191.03L27.7 191.92M27.7 191.92L28.58 192.8M28.58 192.8L29.47 194.58M29.47 194.58L29.47 196.35M29.47 196.35L28.58 198.13M28.58 198.13L26.81 200.79M26.81 200.79L17.93 209.67M17.93 209.67L30.36 209.67"/>
<path d="M571.86 218.33L573.64 217.44M573.64 217.44L576.3 214.78M576.3 214.78L576.3 233.43M587.84 214.78L597.61 214.78M597.61 214.78L592.28 221.88M592.28 221.88L594.95 221.88M594.95 221.88L596.72 222.77M596.72 222.77L597.61 223.66M597.61 223.66L598.5 226.32M598.5 226.32L598.5 228.1M598.5 228.1L597.61 230.76M597.61 230.76L595.84 232.54M595.84 232.54L593.17 233.43M593.17 233.43L590.51 233.43M590.51 233.43L587.84 232.54M587.84 232.54L586.96 231.65M586.96 231.65L586.07 229.87"/>
<path d="M2.39 231.41L2.39 230.52M2.39 230.52L3.28 228.75M3.28 228.75L4.16 227.86M4.16 227.86L5.94 226.97M5.94 226.97L9.49 226.97M9.49 226.97L11.27 227.86M11.27 227.86L12.16 228.75M12.16 228.75L13.04 230.52M13.04 230.52L13.04 232.3M13.04 232.3L12.16 234.07M12.16 234.07L10.38 236.74M10.38 236.74L1.5 245.62M1.5 245.62L13.93 245.62M28.14 226.97L19.26 239.4M19.26 239.4L32.58 239.4M28.14 226.97L28.14 245.62"/>
<path d="M44.29 118.16L44.29 171.54"/>
<path d="M44.29 319.62L44.29 275.01"/>
<path d="M45.39 282.32L45.39 171.54"/>
<path d="M47.95 273.18L47.95 285.98"/>
<path d="M47.95 161.67L47.95 150.33"/>
<path d="M49.04 176.29L49.04 187.26"/>
<path d="M49.04 200.06L49.04 245.76"/>
<path d="M49.04 258.19L49.04 269.53"/>
<path d="M50.51 118.16L50.51 150.33"/>
<path d="M50.51 304.63L50.51 319.62"/>
<path d="M54.16 323.27L54.16 329.49"/>
<path d="M54.16 114.5L54.16 107.92"/>
<path d="M57.09 187.26L57.09 200.06"/>
<path d="M57.09 245.76L57.09 258.19"/>
<path d="M57.09 282.32L57.09 273.18"/>
<path d="M57.09 172.63L57.09 167.15"/>
<path d="M59.65 169.71L59.65 184.7"/>
<path d="M59.65 249.42L59.65 264.04"/>
<path d="M60.74 169.71L60.74 163.49"/>
<path d="M61.84 273.18L61.84 275.01"/>
<path d="M61.84 163.49L61.84 161.67"/>
<path d="M64.4 300.6L64.4 285.98"/>
<path d="M65.5 220.17L65.5 247.59"/>
<path d="M65.5 216.14L65.5 188.72"/>
<path d="M69.52 161.67L69.52 163.49"/>
<path d="M69.52 275.01L69.52 273.18"/>
<path d="M91.09 249.05L91.09 253.44"/>
<path d="M73.91 237.72L73.91 198.96"/>
<path d="M74.64 264.04L74.64 249.42"/>
<path d="M74.64 184.7L74.64 169.71"/>
<path d="M76.1 229.31L76.1 207"/>
<path d="M76.83 161.67L76.83 163.49"/>
<path d="M76.83 275.01L76.83 273.18"/>
<path d="M78.66 257.83L78.66 249.05"/>
<path d="M78.66 187.63L78.66 178.48"/>
<path d="M80.85 257.83L80.85 249.05"/>
<path d="M80.85 187.63L80.85 178.48"/>
<path d="M82.31 174.83L82.31 177.39"/>
<path d="M82.31 261.48L82.31 258.92"/>
<path d="M84.14 161.67L84.14 163.49"/>
<path d="M84.14 275.01L84.14 273.18"/>
<path d="M86.7 253.8L86.7 249.05"/>
<path d="M86.7 187.63L86.7 182.87"/>
<path d="M86.7 236.62L86.7 231.5"/>
<path d="M86.7 204.81L86.7 199.69"/>
<path d="M87.8 184.7L87.8 182.51"/>
<path d="M87.8 251.61L87.8 253.8"/>
<path d="M90.36 185.07L90.36 182.51"/>
<path d="M91.09 174.83L91.09 177.39"/>
<path d="M91.09 261.48L91.09 258.92"/>
<path d="M91.09 238.81L91.09 236.62"/>
<path d="M91.09 199.69L91.09 197.5"/>
<path d="M91.09 161.67L91.09 163.49"/>
<path d="M91.09 182.51L91.09 183.24"/>
<path d="M91.09 275.01L91.09 273.18"/>
<path d="M91.09 253.8L91.09 253.44"/>
<path d="M92.19 178.48L92.19 187.63"/>
<path d="M92.19 249.05L92.19 257.83"/>
<path d="M91.09 187.63L91.09 183.24"/>
<path d="M87.8 185.07L87.07 187.63"/>
<path d="M87.8 251.61L87.07 249.05"/>
<path d="M94.75 178.48L94.75 187.63"/>
<path d="M94.75 249.05L94.75 257.83"/>
<path d="M95.48 238.81L95.48 247.59"/>
<path d="M95.48 197.5L95.48 188.72"/>
<path d="M95.84 199.69L95.84 216.14"/>
<path d="M95.84 236.62L95.84 220.53"/>
<path d="M96.57 199.69L96.57 216.14"/>
<path d="M96.57 236.62L96.57 220.53"/>
<path d="M96.94 238.81L96.94 247.59"/>
<path d="M96.94 197.5L96.94 188.72"/>
<path d="M101.33 161.67L101.33 163.49"/>
<path d="M101.33 275.01L101.33 273.18"/>
<path d="M101.33 197.5L101.33 199.69"/>
<path d="M101.33 236.62L101.33 238.81"/>
<path d="M105.71 199.69L105.71 204.81"/>
<path d="M105.71 231.5L105.71 236.62"/>
<path d="M108.27 161.67L108.27 163.49"/>
<path d="M108.27 275.01L108.27 273.18"/>
<path d="M110.1 257.83L110.1 249.05"/>
<path d="M110.1 187.63L110.1 178.48"/>
<path d="M122.53 249.05L122.53 253.44"/>
<path d="M112.66 257.83L112.66 249.05"/>
<path d="M112.66 187.63L112.66 178.48"/>
<path d="M113.76 174.83L113.76 177.39"/>
<path d="M113.76 261.48L113.76 258.92"/>
<path d="M115.59 161.67L115.59 163.49"/>
<path d="M115.59 275.01L115.59 273.18"/>
<path d="M118.15 253.8L118.15 249.05"/>
<path d="M118.15 187.63L118.15 182.87"/>
<path d="M118.15 236.62L118.15 231.5"/>
<path d="M118.15 204.81L118.15 199.69"/>
<path d="M119.24 184.7L119.24 182.51"/>
<path d="M119.24 251.61L119.24 253.8"/>
<path d="M122.17 185.07L122.17 182.51"/>
<path d="M122.53 174.83L122.53 177.39"/>
<path d="M122.53 261.48L122.53 258.92"/>
<path d="M122.53 238.81L122.53 236.62"/>
<path d="M122.53 199.69L122.53 197.5"/>
<path d="M122.9 161.67L122.9 163.49"/>
<path d="M122.9 182.51L122.9 183.24"/>
<path d="M122.9 275.01L122.9 273.18"/>
<path d="M122.9 253.8L122.9 253.44"/>
<path d="M124 178.48L124 187.63"/>
<path d="M124 249.05L124 257.83"/>
<path d="M126.19 178.48L126.19 187.63"/>
<path d="M126.19 249.05L126.19 257.83"/>
<path d="M126.92 238.81L126.92 247.59"/>
<path d="M126.92 197.5L126.92 188.72"/>
<path d="M127.29 199.69L127.29 216.14"/>
<path d="M127.29 236.62L127.29 220.53"/>
<path d="M128.38 199.69L128.38 216.14"/>
<path d="M128.38 236.62L128.38 220.53"/>
<path d="M128.75 238.81L128.75 247.59"/>
<path d="M128.75 197.5L128.75 188.72"/>
<path d="M122.53 187.63L122.53 183.24"/>
<path d="M119.24 185.07L118.88 187.63"/>
<path d="M86.7 238.81L95.48 247.59"/>
<path d="M73.91 229.31L65.5 220.17"/>
<path d="M119.24 251.61L118.88 249.05"/>
<path d="M132.77 161.67L132.77 163.49"/>
<path d="M132.77 275.01L132.77 273.18"/>
<path d="M133.14 197.5L133.14 199.69"/>
<path d="M133.14 236.62L133.14 238.81"/>
<path d="M137.16 199.69L137.16 204.81"/>
<path d="M137.16 231.5L137.16 236.62"/>
<path d="M139.72 161.67L139.72 163.49"/>
<path d="M139.72 275.01L139.72 273.18"/>
<path d="M141.91 257.83L141.91 249.05"/>
<path d="M141.91 187.63L141.91 178.48"/>
<path d="M144.11 257.83L144.11 249.05"/>
<path d="M144.11 187.63L144.11 178.48"/>
<path d="M145.57 174.83L145.57 177.39"/>
<path d="M145.57 261.48L145.57 258.92"/>
<path d="M147.4 161.67L147.4 163.49"/>
<path d="M147.4 275.01L147.4 273.18"/>
<path d="M65.5 216.14L73.91 207.37"/>
<path d="M86.7 197.5L95.48 188.72"/>
<path d="M106.45 230.04L96.57 220.53"/>
<path d="M85.97 206.64L95.84 216.14"/>
<path d="M74.27 197.86L65.5 188.72"/>
<path d="M118.15 238.81L126.92 247.59"/>
<path d="M151.05 251.61L150.32 249.05"/>
<path d="M153.98 249.05L153.98 253.44"/>
<path d="M149.96 253.8L149.96 249.05"/>
<path d="M149.96 187.63L149.96 182.87"/>
<path d="M149.96 236.62L149.96 231.5"/>
<path d="M149.96 204.81L149.96 199.69"/>
<path d="M151.05 184.7L151.05 182.51"/>
<path d="M151.05 251.61L151.05 253.8"/>
<path d="M153.61 185.07L153.61 182.51"/>
<path d="M153.98 174.83L153.98 177.39"/>
<path d="M153.98 261.48L153.98 258.92"/>
<path d="M153.98 238.81L153.98 236.62"/>
<path d="M153.98 199.69L153.98 197.5"/>
<path d="M154.34 161.67L154.34 163.49"/>
<path d="M154.34 182.51L154.34 183.24"/>
<path d="M154.34 275.01L154.34 273.18"/>
<path d="M154.34 253.8L154.34 253.44"/>
<path d="M155.44 178.48L155.44 187.63"/>
<path d="M155.44 249.05L155.44 257.83"/>
<path d="M157.63 178.48L157.63 187.63"/>
<path d="M157.63 249.05L157.63 257.83"/>
<path d="M158.73 238.81L158.73 247.59"/>
<path d="M158.73 197.5L158.73 188.72"/>
<path d="M158.73 199.69L158.73 216.14"/>
<path d="M158.73 236.62L158.73 220.53"/>
<path d="M159.83 199.69L159.83 216.14"/>
<path d="M159.83 236.62L159.83 220.53"/>
<path d="M160.19 238.81L160.19 247.59"/>
<path d="M160.19 197.5L160.19 188.72"/>
<path d="M164.21 161.67L164.21 163.49"/>
<path d="M164.21 275.01L164.21 273.18"/>
<path d="M164.58 197.5L164.58 199.69"/>
<path d="M164.58 236.62L164.58 238.81"/>
<path d="M153.98 187.63L153.98 183.24"/>
<path d="M151.05 185.07L150.32 187.63"/>
<path d="M74.27 238.45L65.5 247.59"/>
<path d="M118.15 197.5L126.92 188.72"/>
<path d="M215.4 90.73L206.63 99.51"/>
<path d="M106.45 206.64L96.57 216.14"/>
<path d="M137.89 230.04L128.38 220.53"/>
<path d="M117.41 206.64L127.29 216.14"/>
<path d="M105.71 197.5L96.94 188.72"/>
<path d="M149.96 238.81L158.73 247.59"/>
<path d="M185.79 249.05L185.79 253.44"/>
<path d="M168.97 199.69L168.97 204.81"/>
<path d="M168.97 231.5L168.97 236.62"/>
<path d="M170.8 285.98L170.8 307.18"/>
<path d="M171.53 161.67L171.53 163.49"/>
<path d="M171.53 275.01L171.53 273.18"/>
<path d="M173.36 257.83L173.36 249.05"/>
<path d="M173.36 187.63L173.36 178.48"/>
<path d="M175.55 257.83L175.55 249.05"/>
<path d="M175.55 187.63L175.55 178.48"/>
<path d="M177.01 174.83L177.01 177.39"/>
<path d="M177.01 261.48L177.01 258.92"/>
<path d="M178.84 161.67L178.84 163.49"/>
<path d="M178.84 275.01L178.84 273.18"/>
<path d="M181.4 253.8L181.4 249.05"/>
<path d="M181.4 187.63L181.4 182.87"/>
<path d="M181.4 236.62L181.4 231.5"/>
<path d="M181.4 204.81L181.4 199.69"/>
<path d="M182.5 184.7L182.5 182.51"/>
<path d="M182.5 251.61L182.5 253.8"/>
<path d="M185.06 185.07L185.06 182.51"/>
<path d="M185.79 174.83L185.79 177.39"/>
<path d="M185.79 261.48L185.79 258.92"/>
<path d="M185.79 238.81L185.79 236.62"/>
<path d="M185.79 199.69L185.79 197.5"/>
<path d="M185.79 161.67L185.79 163.49"/>
<path d="M185.79 182.51L185.79 183.24"/>
<path d="M185.79 275.01L185.79 273.18"/>
<path d="M185.79 253.8L185.79 253.44"/>
<path d="M186.88 178.48L186.88 187.63"/>
<path d="M186.88 249.05L186.88 257.83"/>
<path d="M185.79 187.63L185.79 183.24"/>
<path d="M182.5 185.07L182.13 187.63"/>
<path d="M105.71 238.81L96.94 247.59"/>
<path d="M85.97 230.04L95.84 220.53"/>
<path d="M54.16 329.49L542.27 329.49"/>
<path d="M54.16 323.27L542.27 323.27"/>
<path d="M50.51 319.62L44.29 319.62"/>
<path d="M546.29 319.62L552.51 319.62"/>
<path d="M137.16 197.5L128.75 188.72"/>
<path d="M182.5 251.61L182.13 249.05"/>
<path d="M189.44 150.33L189.44 109.75"/>
<path d="M189.44 178.48L189.44 187.63"/>
<path d="M189.44 249.05L189.44 257.83"/>
<path d="M189.81 285.98L189.81 307.18"/>
<path d="M190.17 238.81L190.17 247.59"/>
<path d="M190.17 197.5L190.17 188.72"/>
<path d="M190.54 199.69L190.54 216.14"/>
<path d="M190.54 236.62L190.54 220.53"/>
<path d="M191.64 199.69L191.64 216.14"/>
<path d="M191.64 236.62L191.64 220.53"/>
<path d="M191.64 150.33L191.64 110.84"/>
<path d="M191.64 238.81L191.64 247.59"/>
<path d="M191.64 197.5L191.64 188.72"/>
<path d="M192.73 107.92L192.73 110.84"/>
<path d="M194.56 106.09L194.56 83.42"/>
<path d="M196.02 161.67L196.02 163.49"/>
<path d="M196.02 275.01L196.02 273.18"/>
<path d="M196.39 197.5L196.39 199.69"/>
<path d="M196.39 236.62L196.39 238.81"/>
<path d="M197.12 106.09L197.12 80.5"/>
<path d="M198.58 137.17L198.58 117.43"/>
<path d="M200.41 199.69L200.41 204.81"/>
<path d="M200.41 231.5L200.41 236.62"/>
<path d="M202.97 161.67L202.97 163.49"/>
<path d="M202.97 275.01L202.97 273.18"/>
<path d="M203.34 105.73L203.34 111.94"/>
<path d="M204.07 117.43L204.07 137.17"/>
<path d="M204.8 257.83L204.8 249.05"/>
<path d="M204.8 187.63L204.8 178.48"/>
<path d="M149.96 197.5L158.73 188.72"/>
<path d="M137.89 206.64L128.38 216.14"/>
<path d="M117.41 230.04L127.29 220.53"/>
<path d="M174.82 310.84L185.79 310.84"/>
<path d="M47.95 304.63L60.74 304.63"/>
<path d="M536.42 304.63L548.85 304.63"/>
<path d="M169.7 230.04L159.83 220.53"/>
<path d="M149.22 206.64L158.73 216.14"/>
<path d="M181.4 238.81L190.17 247.59"/>
<path d="M217.23 249.05L217.23 253.44"/>
<path d="M206.63 84.52L206.63 99.51"/>
<path d="M206.63 117.43L206.63 137.17"/>
<path d="M207.36 257.83L207.36 249.05"/>
<path d="M207.36 187.63L207.36 178.48"/>
<path d="M208.46 174.83L208.46 177.39"/>
<path d="M208.46 261.48L208.46 258.92"/>
<path d="M210.28 161.67L210.28 163.49"/>
<path d="M210.28 275.01L210.28 273.18"/>
<path d="M211.01 143.02L211.01 137.17"/>
<path d="M211.38 229.31L211.38 207"/>
<path d="M213.21 253.8L213.21 249.05"/>
<path d="M213.21 187.63L213.21 182.87"/>
<path d="M213.21 198.96L213.21 237.72"/>
<path d="M214.31 184.7L214.31 182.51"/>
<path d="M214.31 251.61L214.31 253.8"/>
<path d="M216.13 96.95L216.13 99.51"/>
<path d="M216.13 117.43L216.13 143.02"/>
<path d="M216.86 185.07L216.86 182.51"/>
<path d="M217.23 174.83L217.23 177.39"/>
<path d="M217.23 261.48L217.23 258.92"/>
<path d="M217.6 161.67L217.6 163.49"/>
<path d="M217.6 182.51L217.6 183.24"/>
<path d="M217.6 275.01L217.6 273.18"/>
<path d="M217.6 253.8L217.6 253.44"/>
<path d="M218.69 178.48L218.69 187.63"/>
<path d="M218.69 249.05L218.69 257.83"/>
<path d="M219.79 99.51L219.79 93.29"/>
<path d="M220.89 178.48L220.89 187.63"/>
<path d="M220.89 249.05L220.89 257.83"/>
<path d="M221.62 247.59L221.62 188.72"/>
<path d="M223.45 247.59L223.45 188.72"/>
<path d="M224.91 83.42L224.91 90.73"/>
<path d="M217.23 187.63L217.23 183.24"/>
<path d="M214.31 185.07L213.57 187.63"/>
<path d="M137.16 238.81L128.75 247.59"/>
<path d="M181.4 197.5L190.17 188.72"/>
<path d="M169.7 206.64L159.83 216.14"/>
<path d="M149.22 230.04L158.73 220.53"/>
<path d="M532.76 289.63L348.49 289.63"/>
<path d="M272.44 289.63L189.81 289.63"/>
<path d="M170.8 289.63L64.4 289.63"/>
<path d="M47.95 285.98L548.85 285.98"/>
<path d="M44.29 282.32L552.51 282.32"/>
<path d="M44.29 275.01L45.39 275.01"/>
<path d="M57.09 275.01L552.51 275.01"/>
<path d="M201.14 230.04L191.64 220.53"/>
<path d="M180.67 206.64L190.54 216.14"/>
<path d="M168.97 197.5L160.19 188.72"/>
<path d="M212.84 238.45L221.62 247.59"/>
<path d="M214.31 251.61L213.57 249.05"/>
<path d="M227.47 161.67L227.47 163.49"/>
<path d="M227.47 275.01L227.47 273.18"/>
<path d="M230.03 93.29L230.03 82.69"/>
<path d="M231.86 198.96L231.86 237.72"/>
<path d="M233.68 93.29L233.68 78.67"/>
<path d="M234.05 229.31L234.05 207"/>
<path d="M234.78 161.67L234.78 163.49"/>
<path d="M234.78 275.01L234.78 273.18"/>
<path d="M236.61 257.83L236.61 249.05"/>
<path d="M236.61 187.63L236.61 178.48"/>
<path d="M238.8 257.83L238.8 249.05"/>
<path d="M238.8 187.63L238.8 178.48"/>
<path d="M240.26 174.83L240.26 177.39"/>
<path d="M240.26 261.48L240.26 258.92"/>
<path d="M242.09 161.67L242.09 163.49"/>
<path d="M242.09 275.01L242.09 273.18"/>
<path d="M243.56 143.02L243.56 93.29"/>
<path d="M245.75 185.07L245.02 187.63"/>
<path d="M168.97 238.81L160.19 247.59"/>
<path d="M212.84 197.86L221.62 188.72"/>
<path d="M303.52 93.29L300.96 95.85"/>
<path d="M322.16 83.42L324.36 80.5"/>
<path d="M201.14 206.64L191.64 216.14"/>
<path d="M180.67 230.04L190.54 220.53"/>
<path d="M45.39 273.18L551.41 273.18"/>
<path d="M49.04 269.53L547.75 269.53"/>
<path d="M380.66 269.16L434.05 269.16"/>
<path d="M435.14 269.16L534.59 269.16"/>
<path d="M59.65 264.04L74.64 264.04"/>
<path d="M375.18 261.48L366.41 261.48"/>
<path d="M343.74 261.48L334.96 261.48"/>
<path d="M311.93 261.48L303.52 261.48"/>
<path d="M280.48 261.48L271.71 261.48"/>
<path d="M249.04 261.48L240.26 261.48"/>
<path d="M217.23 261.48L208.46 261.48"/>
<path d="M185.79 261.48L177.01 261.48"/>
<path d="M153.98 261.48L145.57 261.48"/>
<path d="M122.53 261.48L113.76 261.48"/>
<path d="M91.09 261.48L82.31 261.48"/>
<path d="M375.18 258.92L366.41 258.92"/>
<path d="M343.74 258.92L334.96 258.92"/>
<path d="M311.93 258.92L303.52 258.92"/>
<path d="M280.48 258.92L271.71 258.92"/>
<path d="M249.04 258.92L240.26 258.92"/>
<path d="M217.23 258.92L208.46 258.92"/>
<path d="M185.79 258.92L177.01 258.92"/>
<path d="M153.98 258.92L145.57 258.92"/>
<path d="M122.53 258.92L113.76 258.92"/>
<path d="M91.09 258.92L82.31 258.92"/>
<path d="M45.39 258.19L57.09 258.19"/>
<path d="M539.71 258.19L551.41 258.19"/>
<path d="M378.84 257.83L376.64 257.83"/>
<path d="M347.39 257.83L344.83 257.83"/>
<path d="M315.58 257.83L313.39 257.83"/>
<path d="M284.14 257.83L281.95 257.83"/>
<path d="M252.7 257.83L250.14 257.83"/>
<path d="M220.89 257.83L218.69 257.83"/>
<path d="M189.44 257.83L186.88 257.83"/>
<path d="M157.63 257.83L155.44 257.83"/>
<path d="M78.66 257.83L80.85 257.83"/>
<path d="M110.1 257.83L112.66 257.83"/>
<path d="M141.91 257.83L144.11 257.83"/>
<path d="M173.36 257.83L175.55 257.83"/>
<path d="M204.8 257.83L207.36 257.83"/>
<path d="M236.61 257.83L238.8 257.83"/>
<path d="M268.05 257.83L270.61 257.83"/>
<path d="M299.86 257.83L302.06 257.83"/>
<path d="M331.31 257.83L333.5 257.83"/>
<path d="M362.75 257.83L365.31 257.83"/>
<path d="M126.19 257.83L124 257.83"/>
<path d="M94.75 257.83L92.19 257.83"/>
<path d="M200.41 197.5L191.64 188.72"/>
<path d="M244.65 238.81L253.43 247.59"/>
<path d="M245.75 251.61L245.02 249.05"/>
<path d="M249.04 249.05L249.04 253.44"/>
<path d="M244.65 253.8L244.65 249.05"/>
<path d="M244.65 187.63L244.65 182.87"/>
<path d="M244.65 236.62L244.65 231.5"/>
<path d="M244.65 204.81L244.65 199.69"/>
<path d="M245.75 184.7L245.75 182.51"/>
<path d="M245.75 251.61L245.75 253.8"/>
<path d="M246.11 139L246.11 91.47"/>
<path d="M247.94 185.07L247.94 182.51"/>
<path d="M249.04 174.83L249.04 177.39"/>
<path d="M249.04 261.48L249.04 258.92"/>
<path d="M249.04 238.81L249.04 236.62"/>
<path d="M249.04 199.69L249.04 197.5"/>
<path d="M249.04 161.67L249.04 163.49"/>
<path d="M249.04 182.51L249.04 183.24"/>
<path d="M249.04 275.01L249.04 273.18"/>
<path d="M249.04 253.8L249.04 253.44"/>
<path d="M249.77 129.49L249.77 143.02"/>
<path d="M250.14 178.48L250.14 187.63"/>
<path d="M250.14 249.05L250.14 257.83"/>
<path d="M250.87 78.67L250.87 73.92"/>
<path d="M252.33 95.85L252.33 114.5"/>
<path d="M252.7 178.48L252.7 187.63"/>
<path d="M252.7 249.05L252.7 257.83"/>
<path d="M253.43 238.81L253.43 247.59"/>
<path d="M253.43 197.5L253.43 188.72"/>
<path d="M253.79 199.69L253.79 216.14"/>
<path d="M253.79 236.62L253.79 220.53"/>
<path d="M254.52 199.69L254.52 216.14"/>
<path d="M254.52 236.62L254.52 220.53"/>
<path d="M254.89 238.81L254.89 247.59"/>
<path d="M254.89 197.5L254.89 188.72"/>
<path d="M259.28 161.67L259.28 163.49"/>
<path d="M259.28 275.01L259.28 273.18"/>
<path d="M259.28 197.5L259.28 199.69"/>
<path d="M259.28 236.62L259.28 238.81"/>
<path d="M249.04 187.63L249.04 183.24"/>
<path d="M200.41 238.81L191.64 247.59"/>
<path d="M244.65 197.5L253.43 188.72"/>
<path d="M534.59 254.17L435.14 254.17"/>
<path d="M434.05 254.17L380.66 254.17"/>
<path d="M80.85 253.8L92.19 253.8"/>
<path d="M112.66 253.8L124 253.8"/>
<path d="M144.11 253.8L155.44 253.8"/>
<path d="M175.55 253.8L186.88 253.8"/>
<path d="M207.36 253.8L218.69 253.8"/>
<path d="M238.8 253.8L250.14 253.8"/>
<path d="M270.61 253.8L281.95 253.8"/>
<path d="M302.06 253.8L313.39 253.8"/>
<path d="M333.5 253.8L344.83 253.8"/>
<path d="M365.31 253.8L376.64 253.8"/>
<path d="M370.79 253.8L365.31 253.8"/>
<path d="M339.35 253.8L333.5 253.8"/>
<path d="M307.91 253.8L302.06 253.8"/>
<path d="M276.1 253.8L270.61 253.8"/>
<path d="M244.65 253.8L238.8 253.8"/>
<path d="M213.21 253.8L207.36 253.8"/>
<path d="M181.4 253.8L175.55 253.8"/>
<path d="M149.96 253.8L144.11 253.8"/>
<path d="M118.15 253.8L112.66 253.8"/>
<path d="M86.7 253.8L80.85 253.8"/>
<path d="M92.19 253.44L91.09 253.44"/>
<path d="M122.53 253.44L124 253.44"/>
<path d="M153.98 253.44L155.44 253.44"/>
<path d="M185.79 253.44L186.88 253.44"/>
<path d="M217.23 253.44L218.69 253.44"/>
<path d="M249.04 253.44L250.14 253.44"/>
<path d="M280.48 253.44L281.95 253.44"/>
<path d="M311.93 253.44L313.39 253.44"/>
<path d="M343.74 253.44L344.83 253.44"/>
<path d="M375.18 253.44L376.64 253.44"/>
<path d="M80.85 251.98L86.7 251.98"/>
<path d="M112.66 251.98L118.15 251.98"/>
<path d="M144.11 251.98L149.96 251.98"/>
<path d="M175.55 251.98L181.4 251.98"/>
<path d="M207.36 251.98L213.21 251.98"/>
<path d="M238.8 251.98L244.65 251.98"/>
<path d="M270.61 251.98L276.1 251.98"/>
<path d="M302.06 251.98L307.91 251.98"/>
<path d="M333.5 251.98L339.35 251.98"/>
<path d="M365.31 251.98L370.79 251.98"/>
<path d="M517.04 251.98L396.39 251.98"/>
<path d="M414.67 251.24L397.85 251.24"/>
<path d="M442.09 251.24L489.99 251.24"/>
<path d="M74.64 249.42L59.65 249.42"/>
<path d="M78.66 249.05L94.75 249.05"/>
<path d="M110.1 249.05L126.19 249.05"/>
<path d="M141.91 249.05L157.63 249.05"/>
<path d="M173.36 249.05L189.44 249.05"/>
<path d="M204.8 249.05L220.89 249.05"/>
<path d="M236.61 249.05L252.7 249.05"/>
<path d="M268.05 249.05L284.14 249.05"/>
<path d="M299.86 249.05L315.58 249.05"/>
<path d="M331.31 249.05L347.39 249.05"/>
<path d="M362.75 249.05L378.84 249.05"/>
<path d="M379.57 247.59L349.59 247.59"/>
<path d="M348.12 247.59L318.14 247.59"/>
<path d="M316.68 247.59L286.7 247.59"/>
<path d="M284.87 247.59L254.89 247.59"/>
<path d="M253.43 247.59L223.45 247.59"/>
<path d="M221.62 247.59L191.64 247.59"/>
<path d="M190.17 247.59L160.19 247.59"/>
<path d="M158.73 247.59L128.75 247.59"/>
<path d="M126.92 247.59L96.94 247.59"/>
<path d="M95.48 247.59L65.5 247.59"/>
<path d="M551.41 245.76L539.71 245.76"/>
<path d="M45.39 245.76L57.09 245.76"/>
<path d="M515.95 243.93L491.08 243.93"/>
<path d="M415.76 243.93L440.63 243.93"/>
<path d="M515.95 240.28L491.08 240.28"/>
<path d="M415.76 240.28L440.63 240.28"/>
<path d="M75.37 238.81L211.75 238.81"/>
<path d="M233.32 238.81L369.7 238.81"/>
<path d="M264.4 230.04L254.52 220.53"/>
<path d="M243.92 206.64L253.79 216.14"/>
<path d="M232.22 197.86L223.45 188.72"/>
<path d="M276.1 238.81L284.87 247.59"/>
<path d="M280.48 249.05L280.48 253.44"/>
<path d="M263.66 199.69L263.66 204.81"/>
<path d="M263.66 231.5L263.66 236.62"/>
<path d="M266.22 161.67L266.22 163.49"/>
<path d="M266.22 275.01L266.22 273.18"/>
<path d="M268.05 257.83L268.05 249.05"/>
<path d="M268.05 187.63L268.05 178.48"/>
<path d="M270.61 257.83L270.61 249.05"/>
<path d="M270.61 187.63L270.61 178.48"/>
<path d="M271.71 174.83L271.71 177.39"/>
<path d="M271.71 261.48L271.71 258.92"/>
<path d="M273.54 161.67L273.54 163.49"/>
<path d="M273.54 275.01L273.54 273.18"/>
<path d="M276.1 253.8L276.1 249.05"/>
<path d="M276.1 187.63L276.1 182.87"/>
<path d="M276.1 236.62L276.1 231.5"/>
<path d="M276.1 204.81L276.1 199.69"/>
<path d="M277.19 184.7L277.19 182.51"/>
<path d="M277.19 251.61L277.19 253.8"/>
<path d="M279.75 185.07L279.75 182.51"/>
<path d="M280.48 174.83L280.48 177.39"/>
<path d="M280.48 261.48L280.48 258.92"/>
<path d="M280.48 238.81L280.48 236.62"/>
<path d="M280.48 199.69L280.48 197.5"/>
<path d="M280.85 161.67L280.85 163.49"/>
<path d="M280.85 182.51L280.85 183.24"/>
<path d="M280.85 275.01L280.85 273.18"/>
<path d="M280.85 253.8L280.85 253.44"/>
<path d="M281.95 178.48L281.95 187.63"/>
<path d="M281.95 249.05L281.95 257.83"/>
<path d="M280.48 187.63L280.48 183.24"/>
<path d="M277.19 185.07L276.83 187.63"/>
<path d="M223.45 247.59L232.22 238.45"/>
<path d="M276.1 197.5L284.87 188.72"/>
<path d="M264.4 206.64L254.52 216.14"/>
<path d="M243.92 230.04L253.79 220.53"/>
<path d="M86.7 236.62L105.71 236.62"/>
<path d="M118.15 236.62L137.16 236.62"/>
<path d="M149.96 236.62L168.97 236.62"/>
<path d="M181.4 236.62L200.41 236.62"/>
<path d="M244.65 236.62L263.66 236.62"/>
<path d="M276.1 236.62L295.11 236.62"/>
<path d="M307.91 236.62L326.92 236.62"/>
<path d="M339.35 236.62L358.36 236.62"/>
<path d="M517.04 236.62L532.76 236.62"/>
<path d="M489.99 235.89L473.17 235.89"/>
<path d="M397.85 235.89L414.67 235.89"/>
<path d="M442.09 235.89L458.54 235.89"/>
<path d="M368.6 229.31L360.92 229.31"/>
<path d="M337.16 229.31L329.11 229.31"/>
<path d="M305.35 229.31L297.67 229.31"/>
<path d="M273.9 229.31L265.86 229.31"/>
<path d="M242.46 229.31L234.41 229.31"/>
<path d="M210.65 229.31L202.97 229.31"/>
<path d="M179.21 229.31L171.16 229.31"/>
<path d="M147.4 229.31L139.72 229.31"/>
<path d="M115.95 229.31L107.91 229.31"/>
<path d="M84.51 229.31L76.46 229.31"/>
<path d="M515.95 227.84L491.08 227.84"/>
<path d="M415.76 227.84L440.63 227.84"/>
<path d="M517.04 227.11L523.62 227.11"/>
<path d="M523.62 225.65L517.04 225.65"/>
<path d="M448.3 225.65L442.09 225.65"/>
<path d="M414.67 225.65L408.09 225.65"/>
<path d="M483.4 225.65L489.99 225.65"/>
<path d="M371.16 222.73L369.33 222.73"/>
<path d="M234.05 222.73L231.86 222.73"/>
<path d="M213.21 222.73L211.38 222.73"/>
<path d="M76.1 222.73L73.91 222.73"/>
<path d="M371.16 222.73L369.33 222.73"/>
<path d="M234.05 222.73L231.86 222.73"/>
<path d="M213.21 222.73L211.38 222.73"/>
<path d="M76.1 222.73L73.91 222.73"/>
<path d="M369.33 220.53L349.59 220.53"/>
<path d="M348.49 220.53L317.78 220.53"/>
<path d="M316.68 220.53L286.33 220.53"/>
<path d="M285.24 220.53L254.52 220.53"/>
<path d="M253.79 220.53L234.05 220.53"/>
<path d="M211.38 220.53L191.64 220.53"/>
<path d="M190.54 220.53L159.83 220.53"/>
<path d="M158.73 220.53L128.38 220.53"/>
<path d="M127.29 220.53L96.57 220.53"/>
<path d="M95.84 220.53L76.1 220.53"/>
<path d="M379.57 220.17L371.16 220.17"/>
<path d="M73.91 220.17L65.5 220.17"/>
<path d="M295.84 230.04L286.33 220.53"/>
<path d="M275.46 206.73L285.24 216.14"/>
<path d="M263.66 197.5L254.89 188.72"/>
<path d="M307.91 238.81L316.68 247.59"/>
<path d="M277.19 251.61L276.83 249.05"/>
<path d="M284.14 178.48L284.14 187.63"/>
<path d="M284.14 249.05L284.14 257.83"/>
<path d="M284.87 238.81L284.87 247.59"/>
<path d="M284.87 197.5L284.87 188.72"/>
<path d="M285.24 199.69L285.24 216.14"/>
<path d="M285.24 236.62L285.24 220.53"/>
<path d="M286.33 199.69L286.33 216.14"/>
<path d="M286.33 236.62L286.33 220.53"/>
<path d="M286.7 238.81L286.7 247.59"/>
<path d="M286.7 197.5L286.7 188.72"/>
<path d="M290.72 161.67L290.72 163.49"/>
<path d="M290.72 275.01L290.72 273.18"/>
<path d="M291.09 197.5L291.09 199.69"/>
<path d="M291.09 236.62L291.09 238.81"/>
<path d="M294.74 114.5L294.74 95.85"/>
<path d="M295.11 199.69L295.11 204.81"/>
<path d="M295.11 231.5L295.11 236.62"/>
<path d="M296.21 73.92L296.21 78.67"/>
<path d="M296.94 143.02L296.94 129.49"/>
<path d="M297.67 161.67L297.67 163.49"/>
<path d="M297.67 275.01L297.67 273.18"/>
<path d="M299.86 257.83L299.86 249.05"/>
<path d="M299.86 187.63L299.86 178.48"/>
<path d="M300.96 139L300.96 91.47"/>
<path d="M263.66 238.81L254.89 247.59"/>
<path d="M295.84 206.64L286.33 216.14"/>
<path d="M65.5 216.14L73.91 216.14"/>
<path d="M371.16 216.14L379.57 216.14"/>
<path d="M76.1 216.14L95.84 216.14"/>
<path d="M96.57 216.14L127.29 216.14"/>
<path d="M128.38 216.14L158.73 216.14"/>
<path d="M159.83 216.14L190.54 216.14"/>
<path d="M191.64 216.14L211.38 216.14"/>
<path d="M234.05 216.14L253.79 216.14"/>
<path d="M254.52 216.14L285.24 216.14"/>
<path d="M286.33 216.14L316.68 216.14"/>
<path d="M317.78 216.14L348.49 216.14"/>
<path d="M349.59 216.14L369.33 216.14"/>
<path d="M73.91 213.95L76.1 213.95"/>
<path d="M211.38 213.95L213.21 213.95"/>
<path d="M231.86 213.95L234.05 213.95"/>
<path d="M369.33 213.95L371.16 213.95"/>
<path d="M523.62 213.95L513.39 213.95"/>
<path d="M493.64 213.95L483.4 213.95"/>
<path d="M408.09 213.95L418.32 213.95"/>
<path d="M438.43 213.95L448.3 213.95"/>
<path d="M73.91 213.58L76.1 213.58"/>
<path d="M211.38 213.58L213.21 213.58"/>
<path d="M231.86 213.58L234.05 213.58"/>
<path d="M369.33 213.58L371.16 213.58"/>
<path d="M539.71 208.47L551.41 208.47"/>
<path d="M76.46 207.37L84.51 207.37"/>
<path d="M107.91 207.37L115.95 207.37"/>
<path d="M139.72 207.37L147.4 207.37"/>
<path d="M171.16 207.37L179.21 207.37"/>
<path d="M202.97 207.37L210.65 207.37"/>
<path d="M234.41 207.37L242.46 207.37"/>
<path d="M266.22 207.37L273.9 207.37"/>
<path d="M297.67 207.37L305.35 207.37"/>
<path d="M329.11 207.37L337.16 207.37"/>
<path d="M360.92 207.37L368.6 207.37"/>
<path d="M522.89 203.71L513.39 203.71"/>
<path d="M493.64 203.71L473.17 203.71"/>
<path d="M458.54 203.71L438.43 203.71"/>
<path d="M418.32 203.71L397.85 203.71"/>
<path d="M532.76 202.98L523.62 202.98"/>
<path d="M45.39 200.06L57.09 200.06"/>
<path d="M86.7 199.69L105.71 199.69"/>
<path d="M118.15 199.69L137.16 199.69"/>
<path d="M149.96 199.69L168.97 199.69"/>
<path d="M181.4 199.69L200.41 199.69"/>
<path d="M244.65 199.69L263.66 199.69"/>
<path d="M276.1 199.69L295.11 199.69"/>
<path d="M307.91 199.69L326.92 199.69"/>
<path d="M339.35 199.69L358.36 199.69"/>
<path d="M327.65 230.04L317.78 220.53"/>
<path d="M295.11 197.5L286.7 188.72"/>
<path d="M309 251.61L308.27 249.05"/>
<path d="M311.93 249.05L311.93 253.44"/>
<path d="M302.06 257.83L302.06 249.05"/>
<path d="M302.06 187.63L302.06 178.48"/>
<path d="M303.52 93.29L303.52 143.02"/>
<path d="M303.52 174.83L303.52 177.39"/>
<path d="M303.52 261.48L303.52 258.92"/>
<path d="M305.35 161.67L305.35 163.49"/>
<path d="M305.35 275.01L305.35 273.18"/>
<path d="M307.91 253.8L307.91 249.05"/>
<path d="M307.91 187.63L307.91 182.87"/>
<path d="M307.91 236.62L307.91 231.5"/>
<path d="M307.91 204.81L307.91 199.69"/>
<path d="M309 184.7L309 182.51"/>
<path d="M309 251.61L309 253.8"/>
<path d="M311.2 185.07L311.2 182.51"/>
<path d="M311.93 174.83L311.93 177.39"/>
<path d="M311.93 261.48L311.93 258.92"/>
<path d="M311.93 238.81L311.93 236.62"/>
<path d="M311.93 199.69L311.93 197.5"/>
<path d="M312.29 161.67L312.29 163.49"/>
<path d="M312.29 182.51L312.29 183.24"/>
<path d="M312.29 275.01L312.29 273.18"/>
<path d="M312.29 253.8L312.29 253.44"/>
<path d="M313.39 78.67L313.39 93.29"/>
<path d="M313.39 178.48L313.39 187.63"/>
<path d="M313.39 249.05L313.39 257.83"/>
<path d="M315.58 178.48L315.58 187.63"/>
<path d="M315.58 249.05L315.58 257.83"/>
<path d="M316.68 238.81L316.68 247.59"/>
<path d="M316.68 197.5L316.68 188.72"/>
<path d="M316.68 199.69L316.68 216.14"/>
<path d="M316.68 236.62L316.68 220.53"/>
<path d="M317.05 82.69L317.05 93.29"/>
<path d="M317.78 199.69L317.78 216.14"/>
<path d="M317.78 236.62L317.78 220.53"/>
<path d="M318.14 238.81L318.14 247.59"/>
<path d="M318.14 197.5L318.14 188.72"/>
<path d="M311.93 187.63L311.93 183.24"/>
<path d="M309 185.07L308.27 187.63"/>
<path d="M307.91 197.5L316.68 188.72"/>
<path d="M275.36 230.04L285.24 220.53"/>
<path d="M513.39 198.96L493.64 198.96"/>
<path d="M418.32 198.96L438.43 198.96"/>
<path d="M75.37 197.5L211.75 197.5"/>
<path d="M233.32 197.5L369.7 197.5"/>
<path d="M551.41 196.03L539.71 196.03"/>
<path d="M460.74 193.84L397.85 193.84"/>
<path d="M471.34 193.84L523.62 193.84"/>
<path d="M401.5 192.74L523.62 192.74"/>
<path d="M396.39 192.01L523.62 192.01"/>
<path d="M65.5 188.72L95.48 188.72"/>
<path d="M96.94 188.72L126.92 188.72"/>
<path d="M128.75 188.72L158.73 188.72"/>
<path d="M160.19 188.72L190.17 188.72"/>
<path d="M191.64 188.72L221.62 188.72"/>
<path d="M223.45 188.72L253.43 188.72"/>
<path d="M254.89 188.72L284.87 188.72"/>
<path d="M286.7 188.72L316.68 188.72"/>
<path d="M318.14 188.72L348.12 188.72"/>
<path d="M349.59 188.72L379.57 188.72"/>
<path d="M435.14 188.36L534.59 188.36"/>
<path d="M378.84 187.63L362.75 187.63"/>
<path d="M347.39 187.63L331.31 187.63"/>
<path d="M315.58 187.63L299.86 187.63"/>
<path d="M284.14 187.63L268.05 187.63"/>
<path d="M252.7 187.63L236.61 187.63"/>
<path d="M220.89 187.63L204.8 187.63"/>
<path d="M189.44 187.63L173.36 187.63"/>
<path d="M157.63 187.63L141.91 187.63"/>
<path d="M126.19 187.63L110.1 187.63"/>
<path d="M94.75 187.63L78.66 187.63"/>
<path d="M45.39 187.26L57.09 187.26"/>
<path d="M552.51 186.53L551.41 186.53"/>
<path d="M547.75 185.07L535.69 185.07"/>
<path d="M59.65 184.7L74.64 184.7"/>
<path d="M87.8 184.7L90.36 184.7"/>
<path d="M119.24 184.7L121.07 184.7"/>
<path d="M151.05 184.7L153.61 184.7"/>
<path d="M182.5 184.7L185.06 184.7"/>
<path d="M214.31 184.7L216.86 184.7"/>
<path d="M245.75 184.7L247.94 184.7"/>
<path d="M277.19 184.7L279.02 184.7"/>
<path d="M309 184.7L311.2 184.7"/>
<path d="M340.45 184.7L343.01 184.7"/>
<path d="M372.26 184.7L374.45 184.7"/>
<path d="M370.79 183.97L365.31 183.97"/>
<path d="M339.35 183.97L333.5 183.97"/>
<path d="M307.91 183.97L302.06 183.97"/>
<path d="M276.1 183.97L270.61 183.97"/>
<path d="M244.65 183.97L238.8 183.97"/>
<path d="M213.21 183.97L207.36 183.97"/>
<path d="M181.4 183.97L175.55 183.97"/>
<path d="M149.96 183.97L144.11 183.97"/>
<path d="M118.15 183.97L112.66 183.97"/>
<path d="M86.7 183.97L80.85 183.97"/>
<path d="M92.19 183.24L91.09 183.24"/>
<path d="M122.53 183.24L124 183.24"/>
<path d="M153.98 183.24L155.44 183.24"/>
<path d="M185.79 183.24L186.88 183.24"/>
<path d="M217.23 183.24L218.69 183.24"/>
<path d="M249.04 183.24L250.14 183.24"/>
<path d="M280.48 183.24L281.95 183.24"/>
<path d="M311.93 183.24L313.39 183.24"/>
<path d="M343.74 183.24L344.83 183.24"/>
<path d="M375.18 183.24L376.64 183.24"/>
<path d="M80.85 182.87L86.7 182.87"/>
<path d="M112.66 182.87L118.15 182.87"/>
<path d="M144.11 182.87L149.96 182.87"/>
<path d="M175.55 182.87L181.4 182.87"/>
<path d="M207.36 182.87L213.21 182.87"/>
<path d="M238.8 182.87L244.65 182.87"/>
<path d="M270.61 182.87L276.1 182.87"/>
<path d="M302.06 182.87L307.91 182.87"/>
<path d="M333.5 182.87L339.35 182.87"/>
<path d="M365.31 182.87L370.79 182.87"/>
<path d="M80.85 182.51L92.19 182.51"/>
<path d="M112.66 182.51L124 182.51"/>
<path d="M144.11 182.51L155.44 182.51"/>
<path d="M175.55 182.51L186.88 182.51"/>
<path d="M207.36 182.51L218.69 182.51"/>
<path d="M238.8 182.51L250.14 182.51"/>
<path d="M270.61 182.51L281.95 182.51"/>
<path d="M302.06 182.51L313.39 182.51"/>
<path d="M333.5 182.51L344.83 182.51"/>
<path d="M365.31 182.51L376.64 182.51"/>
<path d="M551.41 181.41L539.71 181.41"/>
<path d="M552.51 180.31L551.41 180.31"/>
<path d="M307.17 206.64L316.68 216.14"/>
<path d="M339.35 238.81L348.12 247.59"/>
<path d="M322.16 90.73L322.16 83.42"/>
<path d="M322.16 161.67L322.16 163.49"/>
<path d="M322.16 275.01L322.16 273.18"/>
<path d="M322.53 197.5L322.53 199.69"/>
<path d="M322.53 236.62L322.53 238.81"/>
<path d="M326.92 199.69L326.92 204.81"/>
<path d="M326.92 231.5L326.92 236.62"/>
<path d="M326.92 93.29L326.92 99.51"/>
<path d="M329.48 161.67L329.48 163.49"/>
<path d="M329.48 275.01L329.48 273.18"/>
<path d="M330.57 96.95L330.57 99.51"/>
<path d="M330.57 117.43L330.57 143.02"/>
<path d="M331.31 257.83L331.31 249.05"/>
<path d="M331.31 187.63L331.31 178.48"/>
<path d="M333.5 257.83L333.5 249.05"/>
<path d="M333.5 187.63L333.5 178.48"/>
<path d="M334.96 174.83L334.96 177.39"/>
<path d="M334.96 261.48L334.96 258.92"/>
<path d="M336.06 137.17L336.06 143.02"/>
<path d="M336.79 161.67L336.79 163.49"/>
<path d="M336.79 275.01L336.79 273.18"/>
<path d="M340.45 185.07L340.08 187.63"/>
<path d="M295.11 238.81L286.7 247.59"/>
<path d="M339.35 197.5L348.12 188.72"/>
<path d="M397.85 156.18L408.09 145.94"/>
<path d="M327.65 206.64L317.78 216.14"/>
<path d="M307.17 230.04L316.68 220.53"/>
<path d="M331.31 178.48L333.5 178.48"/>
<path d="M362.75 178.48L365.31 178.48"/>
<path d="M378.84 178.48L376.64 178.48"/>
<path d="M347.39 178.48L344.83 178.48"/>
<path d="M315.58 178.48L313.39 178.48"/>
<path d="M284.14 178.48L281.95 178.48"/>
<path d="M252.7 178.48L250.14 178.48"/>
<path d="M220.89 178.48L218.69 178.48"/>
<path d="M189.44 178.48L186.88 178.48"/>
<path d="M157.63 178.48L155.44 178.48"/>
<path d="M126.19 178.48L124 178.48"/>
<path d="M94.75 178.48L92.19 178.48"/>
<path d="M236.61 178.48L238.8 178.48"/>
<path d="M268.05 178.48L270.61 178.48"/>
<path d="M299.86 178.48L302.06 178.48"/>
<path d="M141.91 178.48L144.11 178.48"/>
<path d="M173.36 178.48L175.55 178.48"/>
<path d="M204.8 178.48L207.36 178.48"/>
<path d="M78.66 178.48L80.85 178.48"/>
<path d="M110.1 178.48L112.66 178.48"/>
<path d="M82.31 177.39L91.09 177.39"/>
<path d="M113.76 177.39L122.53 177.39"/>
<path d="M145.57 177.39L153.98 177.39"/>
<path d="M177.01 177.39L185.79 177.39"/>
<path d="M208.46 177.39L217.23 177.39"/>
<path d="M240.26 177.39L249.04 177.39"/>
<path d="M271.71 177.39L280.48 177.39"/>
<path d="M303.52 177.39L311.93 177.39"/>
<path d="M334.96 177.39L343.74 177.39"/>
<path d="M366.41 177.39L375.18 177.39"/>
<path d="M59.65 176.29L49.04 176.29"/>
<path d="M82.31 174.83L91.09 174.83"/>
<path d="M113.76 174.83L122.53 174.83"/>
<path d="M145.57 174.83L153.98 174.83"/>
<path d="M177.01 174.83L185.79 174.83"/>
<path d="M208.46 174.83L217.23 174.83"/>
<path d="M240.26 174.83L249.04 174.83"/>
<path d="M271.71 174.83L280.48 174.83"/>
<path d="M303.52 174.83L311.93 174.83"/>
<path d="M334.96 174.83L343.74 174.83"/>
<path d="M366.41 174.83L375.18 174.83"/>
<path d="M435.14 173.37L400.41 173.37"/>
<path d="M534.59 173.37L539.71 173.37"/>
<path d="M534.59 173.37L435.14 173.37"/>
<path d="M57.09 172.63L45.39 172.63"/>
<path d="M44.29 171.54L57.09 171.54"/>
<path d="M535.69 169.71L401.14 169.71"/>
<path d="M74.64 169.71L59.65 169.71"/>
<path d="M414.67 168.25L401.5 168.25"/>
<path d="M442.09 168.25L489.99 168.25"/>
<path d="M517.04 168.25L552.51 168.25"/>
<path d="M57.09 167.15L381.76 167.15"/>
<path d="M415.76 164.23L440.63 164.23"/>
<path d="M491.08 164.23L515.95 164.23"/>
<path d="M382.49 163.49L60.74 163.49"/>
<path d="M44.29 161.67L383.22 161.67"/>
<path d="M359.09 230.04L349.59 220.53"/>
<path d="M338.62 206.64L348.49 216.14"/>
<path d="M222.71 80.5L224.91 83.42"/>
<path d="M396.39 251.98L391.27 247.22"/>
<path d="M392.73 246.13L397.85 251.24"/>
<path d="M246.11 95.85L243.56 93.29"/>
<path d="M326.92 197.5L318.14 188.72"/>
<path d="M370.79 238.45L379.57 247.59"/>
<path d="M340.45 251.61L340.08 249.05"/>
<path d="M343.74 249.05L343.74 253.44"/>
<path d="M339.35 253.8L339.35 249.05"/>
<path d="M339.35 187.63L339.35 182.87"/>
<path d="M339.35 236.62L339.35 231.5"/>
<path d="M339.35 204.81L339.35 199.69"/>
<path d="M340.45 117.43L340.45 137.17"/>
<path d="M340.45 99.51L340.45 84.52"/>
<path d="M340.45 184.7L340.45 182.51"/>
<path d="M340.45 251.61L340.45 253.8"/>
<path d="M343.01 117.43L343.01 137.17"/>
<path d="M343.01 185.07L343.01 182.51"/>
<path d="M343.74 174.83L343.74 177.39"/>
<path d="M343.74 261.48L343.74 258.92"/>
<path d="M343.74 238.81L343.74 236.62"/>
<path d="M343.74 199.69L343.74 197.5"/>
<path d="M343.74 111.94L343.74 105.73"/>
<path d="M343.74 161.67L343.74 163.49"/>
<path d="M343.74 182.51L343.74 183.24"/>
<path d="M343.74 275.01L343.74 273.18"/>
<path d="M343.74 253.8L343.74 253.44"/>
<path d="M344.83 178.48L344.83 187.63"/>
<path d="M344.83 249.05L344.83 257.83"/>
<path d="M347.39 178.48L347.39 187.63"/>
<path d="M347.39 249.05L347.39 257.83"/>
<path d="M348.12 238.81L348.12 247.59"/>
<path d="M348.12 197.5L348.12 188.72"/>
<path d="M348.49 199.69L348.49 216.14"/>
<path d="M348.49 236.62L348.49 220.53"/>
<path d="M348.49 117.43L348.49 137.17"/>
<path d="M349.59 199.69L349.59 216.14"/>
<path d="M349.59 236.62L349.59 220.53"/>
<path d="M349.59 238.81L349.59 247.59"/>
<path d="M349.59 197.5L349.59 188.72"/>
<path d="M349.59 80.5L349.59 106.09"/>
<path d="M352.51 83.42L352.51 106.09"/>
<path d="M353.97 161.67L353.97 163.49"/>
<path d="M353.97 275.01L353.97 273.18"/>
<path d="M354.34 197.5L354.34 199.69"/>
<path d="M354.34 236.62L354.34 238.81"/>
<path d="M354.34 107.92L354.34 110.84"/>
<path d="M355.07 110.84L355.07 150.33"/>
<path d="M358 109.75L358 150.33"/>
<path d="M343.74 187.63L343.74 183.24"/>
<path d="M326.92 238.81L318.14 247.59"/>
<path d="M370.79 197.86L379.57 188.72"/>
<path d="M458.54 124.01L448.3 134.24"/>
<path d="M359.09 206.64L349.59 216.14"/>
<path d="M338.62 230.04L348.49 220.53"/>
<path d="M415.76 160.57L440.63 160.57"/>
<path d="M491.08 160.57L515.95 160.57"/>
<path d="M533.86 156.18L517.04 156.18"/>
<path d="M489.99 156.18L473.17 156.18"/>
<path d="M397.85 156.18L414.67 156.18"/>
<path d="M442.09 156.18L458.54 156.18"/>
<path d="M388.34 153.99L44.29 153.99"/>
<path d="M388.34 150.33L47.95 150.33"/>
<path d="M415.76 148.14L440.63 148.14"/>
<path d="M491.08 148.14L515.95 148.14"/>
<path d="M358 146.68L395.65 146.68"/>
<path d="M523.62 145.94L517.04 145.94"/>
<path d="M489.99 145.94L483.4 145.94"/>
<path d="M448.3 145.94L442.09 145.94"/>
<path d="M414.67 145.94L408.09 145.94"/>
<path d="M336.06 143.02L330.57 143.02"/>
<path d="M303.52 143.02L243.56 143.02"/>
<path d="M216.13 143.02L211.01 143.02"/>
<path d="M400.41 192.01L401.5 192.74"/>
<path d="M358.36 197.5L349.59 188.72"/>
<path d="M371.16 207.37L379.57 216.14"/>
<path d="M375.18 249.05L375.18 253.44"/>
<path d="M358.36 199.69L358.36 204.81"/>
<path d="M358.36 231.5L358.36 236.62"/>
<path d="M360.92 161.67L360.92 163.49"/>
<path d="M360.92 275.01L360.92 273.18"/>
<path d="M362.75 257.83L362.75 249.05"/>
<path d="M362.75 187.63L362.75 178.48"/>
<path d="M365.31 257.83L365.31 249.05"/>
<path d="M365.31 187.63L365.31 178.48"/>
<path d="M366.41 174.83L366.41 177.39"/>
<path d="M366.41 261.48L366.41 258.92"/>
<path d="M368.23 161.67L368.23 163.49"/>
<path d="M368.23 275.01L368.23 273.18"/>
<path d="M369.33 229.31L369.33 207"/>
<path d="M370.79 253.8L370.79 249.05"/>
<path d="M370.79 187.63L370.79 182.87"/>
<path d="M371.16 237.72L371.16 198.96"/>
<path d="M372.26 184.7L372.26 182.51"/>
<path d="M372.26 251.61L372.26 253.8"/>
<path d="M374.45 185.07L374.45 182.51"/>
<path d="M375.18 174.83L375.18 177.39"/>
<path d="M375.18 261.48L375.18 258.92"/>
<path d="M375.55 161.67L375.55 163.49"/>
<path d="M375.55 182.51L375.55 183.24"/>
<path d="M375.55 275.01L375.55 273.18"/>
<path d="M375.55 253.8L375.55 253.44"/>
<path d="M376.64 178.48L376.64 187.63"/>
<path d="M376.64 249.05L376.64 257.83"/>
<path d="M375.18 187.63L375.18 183.24"/>
<path d="M372.26 185.07L371.52 187.63"/>
<path d="M379.57 220.17L371.16 229.31"/>
<path d="M358.36 238.81L349.59 247.59"/>
<path d="M391.27 197.13L396.39 192.01"/>
<path d="M397.85 193.84L392.73 198.96"/>
<path d="M246.11 139L300.96 139"/>
<path d="M348.49 137.17L336.06 137.17"/>
<path d="M211.01 137.17L198.58 137.17"/>
<path d="M408.09 134.24L418.32 134.24"/>
<path d="M438.43 134.24L448.3 134.24"/>
<path d="M483.4 134.24L493.64 134.24"/>
<path d="M513.39 134.24L523.62 134.24"/>
<path d="M246.11 133.15L300.96 133.15"/>
<path d="M249.77 129.49L296.94 129.49"/>
<path d="M395.65 124.37L392 124.37"/>
<path d="M548.85 124.37L552.51 124.37"/>
<path d="M533.86 124.01L513.39 124.01"/>
<path d="M493.64 124.01L473.17 124.01"/>
<path d="M458.54 124.01L438.43 124.01"/>
<path d="M418.32 124.01L397.85 124.01"/>
<path d="M400.41 173.37L381.76 167.15"/>
<path d="M401.14 169.71L382.49 163.49"/>
<path d="M401.5 168.25L383.22 161.67"/>
<path d="M397.85 203.71L408.09 213.95"/>
<path d="M372.26 251.61L371.52 249.05"/>
<path d="M378.84 178.48L378.84 187.63"/>
<path d="M378.84 249.05L378.84 257.83"/>
<path d="M379.57 220.17L379.57 247.59"/>
<path d="M379.57 216.14L379.57 188.72"/>
<path d="M380.66 254.17L380.66 269.16"/>
<path d="M383.22 275.01L383.22 273.18"/>
<path d="M383.22 163.74L383.22 161.67"/>
<path d="M388.34 153.99L388.34 111.94"/>
<path d="M391.27 197.13L391.27 247.22"/>
<path d="M392 146.68L392 110.84"/>
<path d="M392.73 246.13L392.73 198.96"/>
<path d="M473.17 156.18L483.4 145.94"/>
<path d="M397.85 235.89L408.09 225.65"/>
<path d="M513.39 119.62L493.64 119.62"/>
<path d="M418.32 119.62L438.43 119.62"/>
<path d="M458.91 119.62L472.8 119.62"/>
<path d="M50.51 118.16L44.29 118.16"/>
<path d="M198.58 117.43L216.13 117.43"/>
<path d="M330.57 117.43L348.49 117.43"/>
<path d="M540.08 115.6L404.43 115.6"/>
<path d="M300.96 114.5L294.74 114.5"/>
<path d="M246.11 114.5L252.33 114.5"/>
<path d="M392 114.5L358 114.5"/>
<path d="M189.44 114.5L54.16 114.5"/>
<path d="M343.74 111.94L300.96 111.94"/>
<path d="M246.11 111.94L203.34 111.94"/>
<path d="M540.08 111.58L404.43 111.58"/>
<path d="M191.64 110.84L192.73 110.84"/>
<path d="M354.34 110.84L355.07 110.84"/>
<path d="M300.96 109.75L294.74 109.75"/>
<path d="M246.11 109.75L252.33 109.75"/>
<path d="M294.74 109.02L252.33 109.02"/>
<path d="M54.16 107.92L192.73 107.92"/>
<path d="M354.34 107.92L389.44 107.92"/>
<path d="M294.74 107.55L252.33 107.55"/>
<path d="M352.51 106.09L349.59 106.09"/>
<path d="M194.56 106.09L197.12 106.09"/>
<path d="M294.74 106.09L252.33 106.09"/>
<path d="M341.91 105.73L352.51 105.73"/>
<path d="M194.56 105.73L205.53 105.73"/>
<path d="M458.54 235.89L448.3 225.65"/>
<path d="M395.65 124.37L395.65 146.68"/>
<path d="M397.85 124.01L397.85 156.18"/>
<path d="M397.85 203.71L397.85 235.89"/>
<path d="M404.43 115.6L404.43 98.41"/>
<path d="M407.72 275.01L407.72 273.18"/>
<path d="M407.72 193.84L407.72 192.01"/>
<path d="M408.09 225.65L408.09 213.95"/>
<path d="M408.09 145.94L408.09 134.24"/>
<path d="M414.67 251.98L414.67 235.89"/>
<path d="M414.67 235.89L414.67 225.65"/>
<path d="M414.67 169.71L414.67 156.18"/>
<path d="M414.67 156.18L414.67 145.94"/>
<path d="M533.86 124.01L523.62 134.24"/>
<path d="M458.54 203.71L448.3 213.95"/>
<path d="M341.18 99.51L326.92 99.51"/>
<path d="M219.79 99.51L205.53 99.51"/>
<path d="M540.08 98.41L404.43 98.41"/>
<path d="M246.11 95.85L300.96 95.85"/>
<path d="M219.79 93.29L243.56 93.29"/>
<path d="M303.52 93.29L326.92 93.29"/>
<path d="M300.96 91.47L246.11 91.47"/>
<path d="M331.67 90.73L322.16 90.73"/>
<path d="M224.91 90.73L215.4 90.73"/>
<path d="M230.03 89.64L317.05 89.64"/>
<path d="M340.45 99.51L331.67 90.73"/>
<path d="M415.76 251.98L415.76 227.84"/>
<path d="M415.76 169.71L415.76 148.14"/>
<path d="M418.32 213.95L418.32 198.96"/>
<path d="M418.32 134.24L418.32 119.62"/>
<path d="M340.45 84.52L322.16 84.52"/>
<path d="M224.91 84.52L206.63 84.52"/>
<path d="M313.39 84.52L233.68 84.52"/>
<path d="M341.18 83.42L340.45 83.42"/>
<path d="M206.63 83.42L205.9 83.42"/>
<path d="M197.12 80.5L222.71 80.5"/>
<path d="M324.36 80.5L349.59 80.5"/>
<path d="M313.39 79.77L233.68 79.77"/>
<path d="M313.39 78.67L233.68 78.67"/>
<path d="M296.21 77.94L250.87 77.94"/>
<path d="M296.21 73.92L250.87 73.92"/>
<path d="M473.17 203.71L483.4 213.95"/>
<path d="M397.85 124.01L408.09 134.24"/>
<path d="M434.05 269.16L434.05 254.17"/>
<path d="M435.14 173.37L435.14 188.36"/>
<path d="M435.14 254.17L435.14 269.16"/>
<path d="M438.43 119.62L438.43 134.24"/>
<path d="M438.43 198.96L438.43 213.95"/>
<path d="M440.63 251.98L440.63 227.84"/>
<path d="M440.63 169.71L440.63 148.14"/>
<path d="M442.09 251.98L442.09 235.89"/>
<path d="M442.09 235.89L442.09 225.65"/>
<path d="M442.09 169.71L442.09 156.18"/>
<path d="M442.09 156.18L442.09 145.94"/>
<path d="M448.3 134.24L448.3 145.94"/>
<path d="M448.3 213.95L448.3 225.65"/>
<path d="M473.17 235.89L483.4 225.65"/>
<path d="M523.62 227.11L532.76 236.62"/>
<path d="M458.54 156.18L448.3 145.94"/>
<path d="M458.54 168.25L458.54 169.71"/>
<path d="M458.54 251.24L458.54 251.98"/>
<path d="M458.54 235.89L458.54 203.71"/>
<path d="M458.54 156.18L458.54 124.01"/>
<path d="M458.91 119.62L458.91 168.25"/>
<path d="M458.91 193.84L458.91 251.24"/>
<path d="M459.64 192.01L459.64 192.74"/>
<path d="M459.64 275.01L459.64 273.18"/>
<path d="M461.1 251.24L461.1 192.74"/>
<path d="M461.1 168.25L461.1 119.62"/>
<path d="M470.97 251.24L470.97 192.74"/>
<path d="M470.97 168.25L470.97 119.62"/>
<path d="M460.74 193.84L460.74 192.74"/>
<path d="M523.62 212.12L532.76 202.98"/>
<path d="M471.34 193.84L470.97 192.74"/>
<path d="M472.07 273.18L472.07 275.01"/>
<path d="M472.07 192.74L472.07 192.01"/>
<path d="M472.8 119.62L472.8 168.25"/>
<path d="M472.8 193.84L472.8 251.24"/>
<path d="M473.17 124.01L473.17 156.18"/>
<path d="M473.17 203.71L473.17 235.89"/>
<path d="M473.53 251.98L473.53 251.24"/>
<path d="M473.53 169.71L473.53 168.25"/>
<path d="M483.4 213.95L483.4 225.65"/>
<path d="M483.4 145.94L483.4 134.24"/>
<path d="M489.99 251.98L489.99 235.89"/>
<path d="M489.99 235.89L489.99 225.65"/>
<path d="M489.99 169.71L489.99 156.18"/>
<path d="M489.99 156.18L489.99 145.94"/>
<path d="M473.17 124.01L483.4 134.24"/>
<path d="M491.08 227.84L491.08 251.98"/>
<path d="M491.08 169.71L491.08 148.14"/>
<path d="M493.64 213.95L493.64 198.96"/>
<path d="M493.64 134.24L493.64 119.62"/>
<path d="M533.86 156.18L523.62 145.94"/>
<path d="M513.39 119.62L513.39 134.24"/>
<path d="M513.39 198.96L513.39 213.95"/>
<path d="M515.95 227.84L515.95 251.98"/>
<path d="M515.95 169.71L515.95 148.14"/>
<path d="M517.04 251.98L517.04 225.65"/>
<path d="M517.04 169.71L517.04 156.18"/>
<path d="M517.04 156.18L517.04 145.94"/>
<path d="M522.89 193.84L522.89 213.95"/>
<path d="M523.62 227.11L523.62 192.01"/>
<path d="M523.62 134.24L523.62 145.94"/>
<path d="M523.99 273.18L523.99 275.01"/>
<path d="M532.76 300.97L532.76 285.98"/>
<path d="M532.76 236.62L532.76 202.98"/>
<path d="M533.86 156.18L533.86 124.01"/>
<path d="M534.59 269.16L534.59 254.17"/>
<path d="M534.59 188.36L534.59 173.37"/>
<path d="M535.69 185.07L535.69 169.71"/>
<path d="M539.71 273.18L539.71 275.01"/>
<path d="M539.71 258.19L539.71 245.76"/>
<path d="M539.71 208.47L539.71 196.03"/>
<path d="M539.71 181.41L539.71 172.63"/>
<path d="M540.08 115.6L540.08 98.41"/>
<path d="M542.27 323.27L542.27 329.49"/>
<path d="M546.29 319.62L546.29 304.63"/>
<path d="M547.75 269.53L547.75 258.19"/>
<path d="M547.75 245.76L547.75 208.47"/>
<path d="M547.75 196.03L547.75 185.07"/>
<path d="M548.85 285.98L548.85 275.01"/>
<path d="M548.85 168.25L548.85 124.37"/>
<path d="M551.41 275.01L551.41 168.25"/>
<path d="M552.51 186.53L552.51 260.38"/>
<path d="M552.51 319.62L552.51 275.01"/>
<path d="M552.51 180.31L552.51 110.84"/>
<path d="M54.16 329.49L52.33 329.12M52.33 329.12L50.51 328.76M50.51 328.76L48.68 327.66M48.68 327.66L47.21 326.56M47.21 326.56L46.12 325.1M46.12 325.1L45.02 323.27M45.02 323.27L44.66 321.44M44.66 321.44L44.29 319.62"/>
<path d="M47.95 285.98L46.48 285.61M46.48 285.61L45.39 284.88M45.39 284.88L44.66 283.78M44.66 283.78L44.29 282.32"/>
<path d="M64.4 300.6L64.03 302.43M64.03 302.43L63.3 303.53M63.3 303.53L61.84 304.26M61.84 304.26L60.74 304.63"/>
<path d="M47.95 304.63L46.48 304.26M46.48 304.26L45.39 303.53M45.39 303.53L44.66 302.43M44.66 302.43L44.29 300.6"/>
<path d="M54.16 323.27L52.7 322.91M52.7 322.91L51.6 322.18M51.6 322.18L50.87 321.08M50.87 321.08L50.51 319.62"/>
<path d="M82.31 261.48L80.85 261.12M80.85 261.12L79.76 260.38M79.76 260.38L79.02 258.92M79.02 258.92L78.66 257.83"/>
<path d="M94.75 257.83L94.38 258.92M94.38 258.92L93.65 260.38M93.65 260.38L92.55 261.12M92.55 261.12L91.09 261.48"/>
<path d="M113.76 261.48L112.66 261.12M112.66 261.12L111.2 260.38M111.2 260.38L110.47 258.92M110.47 258.92L110.1 257.83"/>
<path d="M126.19 257.83L126.19 258.92M126.19 258.92L125.46 260.38M125.46 260.38L124 261.12M124 261.12L122.53 261.48"/>
<path d="M105.71 231.5L105.71 230.77M105.71 230.77L106.45 229.67M106.45 229.67L107.18 229.31M107.18 229.31L108.27 229.31"/>
<path d="M115.95 229.31L116.68 229.31M116.68 229.31L117.78 229.67M117.78 229.67L118.15 230.77M118.15 230.77L118.15 231.5"/>
<path d="M76.46 229.31L76.1 229.31"/>
<path d="M84.51 229.31L85.24 229.31M85.24 229.31L85.97 229.67M85.97 229.67L86.7 230.77M86.7 230.77L86.7 231.5"/>
<path d="M124 257.83L123.63 258.56M123.63 258.56L122.53 258.92"/>
<path d="M113.76 258.92L113.03 258.56M113.03 258.56L112.66 257.83"/>
<path d="M92.19 257.83L91.82 258.56M91.82 258.56L91.09 258.92"/>
<path d="M82.31 258.92L81.58 258.56M81.58 258.56L80.85 257.83"/>
<path d="M75.37 238.81L74.27 238.45M74.27 238.45L73.91 237.72"/>
<path d="M76.1 207L76.46 207.37"/>
<path d="M86.7 204.81L86.7 205.54M86.7 205.54L85.97 206.64M85.97 206.64L85.24 207M85.24 207L84.51 207.37"/>
<path d="M108.27 207.37L107.18 207M107.18 207L106.45 206.64M106.45 206.64L105.71 205.54M105.71 205.54L105.71 204.81"/>
<path d="M118.15 204.81L118.15 205.54M118.15 205.54L117.78 206.64M117.78 206.64L116.68 207M116.68 207L115.95 207.37"/>
<path d="M145.57 261.48L144.11 261.12M144.11 261.12L143.01 260.38M143.01 260.38L141.91 258.92M141.91 258.92L141.91 257.46"/>
<path d="M157.63 257.83L157.63 258.92M157.63 258.92L156.9 260.38M156.9 260.38L155.44 261.12M155.44 261.12L153.98 261.48"/>
<path d="M168.97 231.5L168.97 230.77M168.97 230.77L169.7 229.67M169.7 229.67L170.43 229.31M170.43 229.31L171.53 229.31"/>
<path d="M137.16 231.5L137.52 230.77M137.52 230.77L137.89 229.67M137.89 229.67L138.99 229.31M138.99 229.31L139.72 229.31"/>
<path d="M147.4 229.31L148.49 229.31M148.49 229.31L149.22 229.67M149.22 229.67L149.59 230.77M149.59 230.77L149.96 231.5"/>
<path d="M155.44 257.83L155.07 258.56M155.07 258.56L153.98 258.92"/>
<path d="M145.57 258.92L144.84 258.56M144.84 258.56L144.11 257.83"/>
<path d="M139.72 207.37L138.99 207M138.99 207L137.89 206.64M137.89 206.64L137.52 205.54M137.52 205.54L137.16 204.81"/>
<path d="M149.96 204.81L149.59 205.54M149.59 205.54L149.22 206.64M149.22 206.64L148.49 207M148.49 207L147.4 207.37"/>
<path d="M171.53 207.37L170.43 207M170.43 207L169.7 206.64M169.7 206.64L168.97 205.54M168.97 205.54L168.97 204.81"/>
<path d="M189.81 307.18L189.44 308.65M189.44 308.65L188.71 309.74M188.71 309.74L187.25 310.48M187.25 310.48L185.79 310.84"/>
<path d="M174.82 310.84L173.36 310.48M173.36 310.48L172.26 309.74M172.26 309.74L171.16 308.65M171.16 308.65L170.8 307.18"/>
<path d="M177.01 261.48L175.55 261.12M175.55 261.12L174.45 260.38M174.45 260.38L173.72 258.92M173.72 258.92L173.36 257.83"/>
<path d="M189.44 257.83L189.44 258.92M189.44 258.92L188.35 260.38M188.35 260.38L187.25 261.12M187.25 261.12L185.79 261.48"/>
<path d="M208.46 261.48L206.99 261.12M206.99 261.12L205.9 260.38M205.9 260.38L205.16 258.92M205.16 258.92L204.8 257.83"/>
<path d="M220.89 257.83L220.89 258.92M220.89 258.92L220.16 260.38M220.16 260.38L218.69 261.12M218.69 261.12L217.23 261.48"/>
<path d="M234.41 229.31L234.05 229.31"/>
<path d="M200.41 231.5L200.78 230.77M200.78 230.77L201.14 229.67M201.14 229.67L201.87 229.31M201.87 229.31L202.97 229.31"/>
<path d="M211.38 229.31L210.65 229.31"/>
<path d="M179.21 229.31L179.94 229.31M179.94 229.31L180.67 229.67M180.67 229.67L181.4 230.77M181.4 230.77L181.4 231.5"/>
<path d="M218.69 257.83L218.33 258.56M218.33 258.56L217.23 258.92"/>
<path d="M208.46 258.92L207.72 258.56M207.72 258.56L207.36 257.83"/>
<path d="M186.88 257.83L186.52 258.56M186.52 258.56L185.79 258.92"/>
<path d="M177.01 258.92L176.28 258.56M176.28 258.56L175.55 257.83"/>
<path d="M213.21 237.72L212.84 238.45M212.84 238.45L212.11 238.81"/>
<path d="M233.32 238.81L232.22 238.45M232.22 238.45L231.86 237.72"/>
<path d="M234.05 207L234.41 207.37"/>
<path d="M181.4 204.81L181.4 205.54M181.4 205.54L180.67 206.64M180.67 206.64L179.94 207M179.94 207L179.21 207.37"/>
<path d="M210.65 207.37L211.38 207"/>
<path d="M202.97 207.37L201.87 207M201.87 207L201.14 206.64M201.14 206.64L200.78 205.54M200.78 205.54L200.41 204.81"/>
<path d="M240.26 261.48L238.8 261.12M238.8 261.12L237.71 260.38M237.71 260.38L236.61 258.92M236.61 258.92L236.61 257.46"/>
<path d="M252.7 257.83L252.33 258.92M252.33 258.92L251.6 260.38M251.6 260.38L250.5 261.12M250.5 261.12L249.04 261.48"/>
<path d="M271.71 261.48L270.25 261.12M270.25 261.12L269.15 260.38M269.15 260.38L268.42 258.92M268.42 258.92L268.05 257.83"/>
<path d="M284.14 257.83L284.14 258.92M284.14 258.92L283.41 260.38M283.41 260.38L281.95 261.12M281.95 261.12L280.48 261.48"/>
<path d="M295.11 231.5L295.47 230.77M295.47 230.77L295.84 229.67M295.84 229.67L296.94 229.31M296.94 229.31L297.67 229.31"/>
<path d="M263.66 231.5L263.66 230.77M263.66 230.77L264.4 229.67M264.4 229.67L265.13 229.31M265.13 229.31L266.22 229.31"/>
<path d="M273.9 229.31L274.63 229.31M274.63 229.31L275.73 229.67M275.73 229.67L276.1 230.77M276.1 230.77L276.1 231.5"/>
<path d="M242.46 229.31L243.19 229.31M243.19 229.31L243.92 229.67M243.92 229.67L244.65 230.77M244.65 230.77L244.65 231.5"/>
<path d="M281.95 257.83L281.58 258.56M281.58 258.56L280.48 258.92"/>
<path d="M271.71 258.92L270.98 258.56M270.98 258.56L270.61 257.83"/>
<path d="M250.14 257.83L249.77 258.56M249.77 258.56L249.04 258.92"/>
<path d="M240.26 258.92L239.53 258.56M239.53 258.56L238.8 257.83"/>
<path d="M297.67 207.37L296.94 207M296.94 207L295.84 206.64M295.84 206.64L295.47 205.54M295.47 205.54L295.11 204.81"/>
<path d="M276.1 204.81L276.1 205.54M276.1 205.54L275.73 206.64M275.73 206.64L274.63 207M274.63 207L273.9 207.37"/>
<path d="M266.22 207.37L265.13 207M265.13 207L264.4 206.64M264.4 206.64L263.66 205.54M263.66 205.54L263.66 204.81"/>
<path d="M244.65 204.81L244.65 205.54M244.65 205.54L243.92 206.64M243.92 206.64L243.19 207M243.19 207L242.46 207.37"/>
<path d="M57.09 167.15L57.45 165.69M57.45 165.69L58.18 164.23M58.18 164.23L59.28 163.49M59.28 163.49L60.74 163.49"/>
<path d="M91.09 174.83L92.55 175.19M92.55 175.19L93.65 175.93M93.65 175.93L94.38 177.02M94.38 177.02L94.75 178.48"/>
<path d="M78.66 178.48L78.66 177.02M78.66 177.02L79.76 175.93M79.76 175.93L80.85 175.19M80.85 175.19L82.31 174.83"/>
<path d="M122.53 174.83L124 175.19M124 175.19L125.46 175.93M125.46 175.93L126.19 177.02M126.19 177.02L126.19 178.48"/>
<path d="M110.1 178.48L110.47 177.02M110.47 177.02L111.2 175.93M111.2 175.93L112.3 175.19M112.3 175.19L113.76 174.83"/>
<path d="M153.98 174.83L155.44 175.19M155.44 175.19L156.9 175.93M156.9 175.93L157.63 177.02M157.63 177.02L157.63 178.48"/>
<path d="M141.91 178.48L141.91 177.02M141.91 177.02L142.64 175.93M142.64 175.93L144.11 175.19M144.11 175.19L145.57 174.83"/>
<path d="M44.29 153.99L44.66 152.53M44.66 152.53L45.39 151.43M45.39 151.43L46.48 150.7M46.48 150.7L47.95 150.33"/>
<path d="M121.07 184.7L122.17 184.7"/>
<path d="M144.11 178.48L144.84 177.75M144.84 177.75L145.57 177.39"/>
<path d="M153.98 177.39L155.07 177.75M155.07 177.75L155.44 178.48"/>
<path d="M112.66 178.48L113.03 177.75M113.03 177.75L113.76 177.39"/>
<path d="M122.53 177.39L123.63 177.75M123.63 177.75L124 178.48"/>
<path d="M80.85 178.48L81.58 177.75M81.58 177.75L82.31 177.39"/>
<path d="M91.09 177.39L91.82 177.75M91.82 177.75L92.19 178.48"/>
<path d="M73.91 198.96L74.27 197.86M74.27 197.86L75.37 197.5"/>
<path d="M44.29 118.16L44.66 115.96M44.66 115.96L45.02 114.13M45.02 114.13L46.12 112.31M46.12 112.31L47.21 110.84M47.21 110.84L48.68 109.75M48.68 109.75L50.51 109.02M50.51 109.02L52.33 108.28M52.33 108.28L54.16 107.92"/>
<path d="M50.51 118.16L50.87 116.69M50.87 116.69L51.6 115.6M51.6 115.6L52.7 114.5M52.7 114.5L54.16 114.5"/>
<path d="M185.79 174.83L187.25 175.19M187.25 175.19L188.35 175.93M188.35 175.93L189.44 177.02M189.44 177.02L189.44 178.48"/>
<path d="M173.36 178.48L173.72 177.02M173.72 177.02L174.45 175.93M174.45 175.93L175.55 175.19M175.55 175.19L177.01 174.83"/>
<path d="M217.23 174.83L218.69 175.19M218.69 175.19L220.16 175.93M220.16 175.93L220.89 177.02M220.89 177.02L220.89 178.48"/>
<path d="M204.8 178.48L205.16 177.02M205.16 177.02L205.9 175.93M205.9 175.93L206.99 175.19M206.99 175.19L208.46 174.83"/>
<path d="M249.04 174.83L250.5 175.19M250.5 175.19L251.6 175.93M251.6 175.93L252.33 177.02M252.33 177.02L252.7 178.48"/>
<path d="M236.61 178.48L236.61 177.02M236.61 177.02L237.71 175.93M237.71 175.93L238.8 175.19M238.8 175.19L240.26 174.83"/>
<path d="M280.48 174.83L281.95 175.19M281.95 175.19L283.41 175.93M283.41 175.93L284.14 177.02M284.14 177.02L284.14 178.48"/>
<path d="M268.05 178.48L268.42 177.02M268.42 177.02L269.15 175.93M269.15 175.93L270.25 175.19M270.25 175.19L271.71 174.83"/>
<path d="M279.02 184.7L279.75 184.7"/>
<path d="M270.61 178.48L270.98 177.75M270.98 177.75L271.71 177.39"/>
<path d="M280.48 177.39L281.58 177.75M281.58 177.75L281.95 178.48"/>
<path d="M238.8 178.48L239.53 177.75M239.53 177.75L240.26 177.39"/>
<path d="M249.04 177.39L249.77 177.75M249.77 177.75L250.14 178.48"/>
<path d="M207.36 178.48L207.72 177.75M207.72 177.75L208.46 177.39"/>
<path d="M217.23 177.39L218.33 177.75M218.33 177.75L218.69 178.48"/>
<path d="M175.55 178.48L176.28 177.75M176.28 177.75L177.01 177.39"/>
<path d="M185.79 177.39L186.52 177.75M186.52 177.75L186.88 178.48"/>
<path d="M212.11 197.5L212.84 197.86M212.84 197.86L213.21 198.96"/>
<path d="M231.86 198.96L232.22 197.86M232.22 197.86L233.32 197.5"/>
<path d="M197.12 106.09L197.12 107.92M197.12 107.92L196.02 109.38M196.02 109.38L194.56 110.48M194.56 110.48L192.73 110.84"/>
<path d="M216.13 96.95L216.86 95.49M216.86 95.49L217.6 94.39M217.6 94.39L218.69 93.29M218.69 93.29L219.79 93.29"/>
<path d="M230.03 82.69L230.39 81.23M230.39 81.23L231.12 79.77M231.12 79.77L232.59 79.03M232.59 79.03L234.05 78.67"/>
<path d="M300.96 139L300.59 140.46M300.59 140.46L299.86 141.92M299.86 141.92L298.76 142.65M298.76 142.65L296.94 143.02"/>
<path d="M300.96 125.47L300.59 126.93M300.59 126.93L299.86 128.03M299.86 128.03L298.76 128.76M298.76 128.76L296.94 129.49"/>
<path d="M249.77 129.49L248.31 128.76M248.31 128.76L247.21 128.03M247.21 128.03L246.48 126.93M246.48 126.93L246.11 125.47"/>
<path d="M249.77 143.02L248.31 142.65M248.31 142.65L247.21 141.92M247.21 141.92L246.48 140.46M246.48 140.46L246.11 139"/>
<path d="M230.03 82.69L230.03 83.06"/>
<path d="M194.56 83.42L194.93 82.33M194.93 82.33L195.66 81.23M195.66 81.23L196.39 80.86M196.39 80.86L197.12 80.5"/>
<path d="M203.34 80.5L204.43 80.86M204.43 80.86L205.16 81.23M205.16 81.23L205.9 82.33M205.9 82.33L205.9 83.42"/>
<path d="M206.26 81.59L206.63 82.69M206.63 82.69L206.63 83.42"/>
<path d="M189.44 109.75L189.81 108.65M189.81 108.65L191.27 107.92"/>
<path d="M194.93 106.09L194.2 107.55M194.2 107.55L192.73 108.04"/>
<path d="M303.52 261.48L302.06 261.12M302.06 261.12L300.59 260.38M300.59 260.38L299.86 258.92M299.86 258.92L299.86 257.46"/>
<path d="M315.58 257.46L315.58 258.92M315.58 258.92L314.85 260.38M314.85 260.38L313.39 261.12M313.39 261.12L311.93 261.48"/>
<path d="M334.96 261.48L333.5 261.12M333.5 261.12L332.4 260.38M332.4 260.38L331.67 258.92M331.67 258.92L331.31 257.46"/>
<path d="M347.39 257.46L347.03 258.92M347.03 258.92L346.3 260.38M346.3 260.38L345.2 261.12M345.2 261.12L343.74 261.48"/>
<path d="M366.41 261.48L364.94 261.12M364.94 261.12L363.85 260.38M363.85 260.38L363.11 258.92M363.11 258.92L362.75 257.46"/>
<path d="M378.84 257.46L378.47 258.92M378.47 258.92L377.74 260.38M377.74 260.38L376.64 261.12M376.64 261.12L375.18 261.48"/>
<path d="M358.36 231.5L358.73 230.77M358.73 230.77L359.09 229.67M359.09 229.67L359.82 229.31M359.82 229.31L360.92 229.31"/>
<path d="M369.33 229.31L368.6 229.31"/>
<path d="M326.92 231.5L326.92 230.77M326.92 230.77L327.65 229.67M327.65 229.67L328.38 229.31M328.38 229.31L329.11 229.31"/>
<path d="M337.16 229.31L337.89 229.31M337.89 229.31L338.62 229.67M338.62 229.67L339.35 230.77M339.35 230.77L339.35 231.5"/>
<path d="M305.35 229.31L306.44 229.31M306.44 229.31L307.17 229.67M307.17 229.67L307.54 230.77M307.54 230.77L307.91 231.5"/>
<path d="M368.6 207.37L369.33 207"/>
<path d="M360.92 207.37L359.82 207M359.82 207L359.09 206.64M359.09 206.64L358.73 205.54M358.73 205.54L358.36 204.81"/>
<path d="M339.35 204.81L339.35 205.54M339.35 205.54L338.62 206.64M338.62 206.64L337.89 207M337.89 207L337.16 207.37"/>
<path d="M329.11 207.37L328.38 207M328.38 207L327.65 206.64M327.65 206.64L326.92 205.54M326.92 205.54L326.92 204.81"/>
<path d="M307.91 204.81L307.54 205.54M307.54 205.54L307.17 206.64M307.17 206.64L306.44 207M306.44 207L305.35 207.37"/>
<path d="M376.64 257.83L376.28 258.56M376.28 258.56L375.18 258.92"/>
<path d="M366.41 258.92L365.67 258.56M365.67 258.56L365.31 257.83"/>
<path d="M344.83 257.83L344.47 258.56M344.47 258.56L343.74 258.92"/>
<path d="M334.96 258.92L334.23 258.56M334.23 258.56L333.5 257.83"/>
<path d="M313.39 257.83L313.02 258.56M313.02 258.56L311.93 258.92"/>
<path d="M303.52 258.92L302.42 258.56M302.42 258.56L302.06 257.83"/>
<path d="M371.16 237.72L370.79 238.45M370.79 238.45L370.06 238.81"/>
<path d="M552.51 319.62L552.14 321.44M552.14 321.44L551.78 323.27M551.78 323.27L550.68 325.1M550.68 325.1L549.58 326.56M549.58 326.56L548.12 327.66M548.12 327.66L546.66 328.76M546.66 328.76L544.83 329.12M544.83 329.12L542.64 329.49"/>
<path d="M552.51 282.32L552.14 283.78M552.14 283.78L551.41 284.88M551.41 284.88L550.31 285.61M550.31 285.61L548.85 285.98"/>
<path d="M536.42 304.63L534.96 304.26M534.96 304.26L533.86 303.53M533.86 303.53L532.76 302.43M532.76 302.43L532.76 300.6"/>
<path d="M552.51 300.6L552.14 302.43M552.14 302.43L551.41 303.53M551.41 303.53L550.31 304.26M550.31 304.26L548.85 304.63"/>
<path d="M546.29 319.62L545.93 321.08M545.93 321.08L545.2 322.18M545.2 322.18L544.1 322.91M544.1 322.91L542.64 323.27"/>
<path d="M552.51 260.38L552.14 261.85M552.14 261.85L551.41 265.5"/>
<path d="M395.65 146.68L395.65 148.14M395.65 148.14L395.29 149.6M395.29 149.6L394.56 150.7M394.56 150.7L393.83 151.79M393.83 151.79L392.73 152.89M392.73 152.89L391.27 153.62M391.27 153.62L389.8 153.99M389.8 153.99L388.34 153.99"/>
<path d="M311.93 174.83L313.39 175.19M313.39 175.19L314.85 175.93M314.85 175.93L315.58 177.02M315.58 177.02L315.58 178.48"/>
<path d="M299.86 178.48L299.86 177.02M299.86 177.02L300.59 175.93M300.59 175.93L302.06 175.19M302.06 175.19L303.52 174.83"/>
<path d="M343.74 174.83L345.2 175.19M345.2 175.19L346.3 175.93M346.3 175.93L347.03 177.02M347.03 177.02L347.39 178.48"/>
<path d="M331.31 178.48L331.67 177.02M331.67 177.02L332.4 175.93M332.4 175.93L333.5 175.19M333.5 175.19L334.96 174.83"/>
<path d="M375.18 174.83L376.64 175.19M376.64 175.19L377.74 175.93M377.74 175.93L378.47 177.02M378.47 177.02L378.84 178.48"/>
<path d="M362.75 178.48L363.11 177.02M363.11 177.02L363.85 175.93M363.85 175.93L364.94 175.19M364.94 175.19L366.41 174.83"/>
<path d="M392 146.68L391.63 148.14M391.63 148.14L390.9 149.23M390.9 149.23L389.8 149.97M389.8 149.97L388.34 150.33"/>
<path d="M365.31 178.48L365.67 177.75M365.67 177.75L366.41 177.39"/>
<path d="M375.18 177.39L376.28 177.75M376.28 177.75L376.64 178.48"/>
<path d="M333.5 178.48L334.23 177.75M334.23 177.75L334.96 177.39"/>
<path d="M343.74 177.39L344.47 177.75M344.47 177.75L344.83 178.48"/>
<path d="M302.06 178.48L302.42 177.75M302.42 177.75L303.52 177.39"/>
<path d="M311.93 177.39L313.02 177.75M313.02 177.75L313.39 178.48"/>
<path d="M370.06 197.5L370.79 197.86M370.79 197.86L371.16 198.96"/>
<path d="M392 124.01L392 122.91M392 122.91L392.36 121.45M392.36 121.45L392.73 120.35M392.73 120.35L393.1 119.25M393.1 119.25L393.46 118.16M393.46 118.16L394.19 117.06M394.19 117.06L394.92 116.33M394.92 116.33L395.65 115.23M395.65 115.23L396.75 114.5M396.75 114.5L397.48 113.77M397.48 113.77L398.58 113.4M398.58 113.4L399.68 112.67M399.68 112.67L400.77 112.31M400.77 112.31L401.87 111.94M401.87 111.94L403.33 111.94M403.33 111.94L404.43 111.58"/>
<path d="M392 110.84L392 109.38M392 109.38L392.36 107.92M392.36 107.92L392.73 106.82M392.73 106.82L393.1 105.73M393.1 105.73L393.46 104.63M393.46 104.63L394.19 103.53M394.19 103.53L394.92 102.43M394.92 102.43L395.65 101.7M395.65 101.7L396.75 100.97M396.75 100.97L397.48 100.24M397.48 100.24L398.58 99.51M398.58 99.51L399.68 99.14M399.68 99.14L400.77 98.78M400.77 98.78L401.87 98.41M401.87 98.41L403.33 98.05M403.33 98.05L404.43 98.41"/>
<path d="M395.65 124.37L396.02 122.54M396.02 122.54L396.39 120.72M396.39 120.72L397.12 119.25M397.12 119.25L398.21 118.16M398.21 118.16L399.68 117.06M399.68 117.06L401.14 115.96M401.14 115.96L402.6 115.6M402.6 115.6L404.43 115.6"/>
<path d="M354.34 110.84L352.51 110.48M352.51 110.48L351.05 109.38M351.05 109.38L350.32 107.92M350.32 107.92L349.95 106.09"/>
<path d="M326.92 93.29L328.38 93.29M328.38 93.29L329.84 94.39M329.84 94.39L330.57 95.49M330.57 95.49L330.57 96.95"/>
<path d="M313.39 78.67L314.85 79.03M314.85 79.03L315.95 79.77M315.95 79.77L316.68 81.23M316.68 81.23L317.05 82.69"/>
<path d="M393.1 105.73L392.36 106.82M392.36 106.82L391.63 107.55M391.63 107.55L390.54 107.92M390.54 107.92L389.44 107.92"/>
<path d="M317.05 83.06L317.05 82.69"/>
<path d="M340.45 83.42L340.45 82.69M340.45 82.69L341.91 80.5"/>
<path d="M349.59 80.5L351.05 80.86M351.05 80.86L351.78 81.23M351.78 81.23L352.15 82.33M352.15 82.33L352.51 83.42"/>
<path d="M341.18 83.42L341.54 82.33M341.54 82.33L341.91 81.23M341.91 81.23L342.64 80.86M342.64 80.86L343.74 80.5"/>
<path d="M356.17 107.92L357.26 108.65M357.26 108.65L358 109.75"/>
<path d="M354.34 107.92L352.88 107.55M352.88 107.55L352.51 106.09"/>
<path d="M536.05 169.71L537.52 170.08M537.52 170.08L538.61 170.81M538.61 170.81L539.35 171.9M539.35 171.9L539.71 173.37"/>
<path d="M540.08 111.58L541.17 111.94M541.17 111.94L542.64 111.94M542.64 111.94L543.73 112.31M543.73 112.31L544.83 112.67M544.83 112.67L545.93 113.4M545.93 113.4L547.02 113.77M547.02 113.77L547.75 114.5M547.75 114.5L548.85 115.23M548.85 115.23L549.58 116.33M549.58 116.33L550.31 117.06M550.31 117.06L551.05 118.16M551.05 118.16L551.41 119.25M551.41 119.25L551.78 120.35M551.78 120.35L552.14 121.45M552.14 121.45L552.51 122.91M552.51 122.91L552.51 124.01"/>
<path d="M540.08 98.41L541.17 98.05M541.17 98.05L542.64 98.41M542.64 98.41L543.73 98.78M543.73 98.78L544.83 99.14M544.83 99.14L545.93 99.51M545.93 99.51L547.02 100.24M547.02 100.24L547.75 100.97M547.75 100.97L548.85 101.7M548.85 101.7L549.58 102.43M549.58 102.43L550.31 103.53M550.31 103.53L551.05 104.63M551.05 104.63L551.41 105.73M551.41 105.73L551.78 106.82M551.78 106.82L552.14 107.92M552.14 107.92L552.51 109.38M552.51 109.38L552.51 110.84"/>
<path d="M540.08 115.6L541.9 115.6M541.9 115.6L543.37 115.96M543.37 115.96L544.83 117.06M544.83 117.06L546.29 118.16M546.29 118.16L547.39 119.25M547.39 119.25L548.12 120.72M548.12 120.72L548.49 122.54M548.49 122.54L548.85 124.37"/>
<path d="M45.39 172.63L49.04 176.29"/>
<path d="M57.09 172.63L59.65 174.83"/>
<path d="M551.41 181.41L547.75 185.07"/>
<path d="M539.71 181.41L535.69 185.07"/>
<path d="M401.14 169.71L400.41 173.37"/>
<path d="M382.49 163.49L381.76 167.15"/>
<path d="M45.39 273.18L49.04 269.53"/>
<path d="M551.41 273.18L547.75 269.53"/>
<path d="M372.26 185.07L372.26 184.7"/>
<path d="M87.8 185.07L87.8 184.7"/>
<path d="M340.45 185.07L340.45 184.7"/>
<path d="M309 185.07L309 184.7"/>
<path d="M119.24 185.07L119.24 184.7"/>
<path d="M277.19 185.07L277.19 184.7"/>
<path d="M151.05 185.07L151.05 184.7"/>
<path d="M245.75 185.07L245.75 184.7"/>
<path d="M214.31 185.07L214.31 184.7"/>
<path d="M182.5 185.07L182.5 184.7"/>
<path d="M356.17 107.92L356.17 108.28M356.17 108.28L355.8 108.28M355.8 108.28L355.8 108.65M355.8 108.65L355.44 109.38M355.44 109.38L355.07 110.84"/>
<path d="M205.53 102.07L205.53 99.51"/>
<path d="M205.9 83.42L205.9 84.15M205.9 84.15L205.53 86.35M205.53 86.35L205.53 99.51"/>
<path d="M205.53 99.51L205.53 102.07"/>
<path d="M341.18 102.07L341.18 99.51"/>
<path d="M341.18 102.07L341.18 99.51"/>
<path d="M341.18 99.51L341.18 83.42"/>
<path d="M189.44 109.75L189.81 110.11M189.81 110.11L190.54 110.48M190.54 110.48L191.64 110.84"/>
<path d="M230.03 87.44L230.03 86.71M230.03 86.71L230.39 85.98M230.39 85.98L231.12 85.25M231.12 85.25L231.86 84.52M231.86 84.52L233.68 84.52"/>
<path d="M230.03 82.69L230.03 81.59M230.03 81.59L230.76 81.23"/>
<path d="M230.76 81.23L231.12 80.5M231.12 80.5L231.86 80.13M231.86 80.13L232.95 79.77M232.95 79.77L233.68 79.77"/>
<path d="M317.05 82.69L316.68 81.59M316.68 81.59L316.31 81.23"/>
<path d="M316.31 81.23L315.58 80.5M315.58 80.5L314.85 80.13M314.85 80.13L314.12 79.77M314.12 79.77L313.39 79.77"/>
<path d="M205.53 105.73L204.43 109.02M204.43 109.02L203.34 111.94"/>
<path d="M204.07 80.5L204.8 80.86M204.8 80.86L205.53 80.86M205.53 80.86L205.53 81.59M205.53 81.59L206.26 81.59"/>
<path d="M205.53 102.07L205.53 103.9M205.53 103.9L205.53 105.73"/>
<path d="M343.74 111.94L342.64 109.02M342.64 109.02L341.91 105.73"/>
<path d="M341.91 105.73L341.18 103.9M341.18 103.9L341.18 102.07"/>
<path d="M355.07 110.84L356.53 110.48M356.53 110.48L356.9 110.11M356.9 110.11L358 109.75"/>
<path d="M191.64 110.84L191.64 109.38M191.64 109.38L191.27 109.02M191.27 109.02L191.27 107.92"/>
<path d="M392 110.84L391.63 111.21M391.63 111.21L389.8 111.58M389.8 111.58L388.34 111.94"/>
<path d="M203.34 80.5L203.34 105.73"/>
<path d="M343.74 105.73L343.74 80.5"/>
<path d="M317.05 87.44L316.68 86.71M316.68 86.71L316.68 85.98M316.68 85.98L315.95 85.25M315.95 85.25L315.22 84.52M315.22 84.52L313.39 84.52"/>
<path d="M388.34 111.94L388.71 109.75M388.71 109.75L389.07 109.02M389.07 109.02L389.44 107.92"/>
<path d="M91.09 185.43L90.72 185.07M90.72 185.07L90.36 185.07"/>
<path d="M375.18 185.43L374.81 185.07M374.81 185.07L374.45 185.07"/>
<path d="M343.74 185.43L343.37 185.07M343.37 185.07L343.01 185.07"/>
<path d="M122.53 185.43L122.17 185.07"/>
<path d="M311.93 185.43L311.93 185.07M311.93 185.07L311.2 185.07"/>
<path d="M153.98 185.43L153.98 185.07M153.98 185.07L153.61 185.07"/>
<path d="M280.48 185.43L280.12 185.07M280.12 185.07L279.75 185.07"/>
<path d="M249.04 185.43L248.67 185.07M248.67 185.07L247.94 185.07"/>
<path d="M185.79 185.43L185.42 185.07M185.42 185.07L185.06 185.07"/>
<path d="M217.23 185.43L216.86 185.07"/>
<path d="M206.63 83.42L206.63 84.52"/>
<path d="M340.45 84.52L340.45 83.42"/>
<path d="M276.1 304.26L295.47 304.26"/>
<path d="M325.46 304.26L344.83 304.26"/>
<path d="M277.56 299.14L294.38 299.14"/>
<path d="M326.92 299.14L343.74 299.14"/>
<path d="M321.8 289.27L299.13 289.27"/>
<path d="M298.03 303.16L294.38 299.14"/>
<path d="M347.39 303.16L343.74 299.14"/>
<path d="M272.44 285.98L272.44 300.6"/>
<path d="M277.56 285.98L277.56 299.14"/>
<path d="M294.38 299.14L294.38 285.98"/>
<path d="M299.13 300.6L299.13 285.98"/>
<path d="M321.8 285.98L321.8 300.6"/>
<path d="M326.92 285.98L326.92 299.14"/>
<path d="M343.74 299.14L343.74 285.98"/>
<path d="M348.49 300.6L348.49 285.98"/>
<path d="M273.54 303.16L277.56 299.14"/>
<path d="M322.9 303.16L326.92 299.14"/>
<path d="M299.13 300.6L299.13 302.07M299.13 302.07L298.4 303.16M298.4 303.16L296.94 303.89M296.94 303.89L295.47 304.26"/>
<path d="M276.1 304.26L274.63 303.89M274.63 303.89L273.54 303.16M273.54 303.16L272.81 302.07M272.81 302.07L272.44 300.6"/>
<path d="M348.49 300.6L348.49 302.07M348.49 302.07L347.39 303.16M347.39 303.16L346.3 303.89M346.3 303.89L344.83 304.26"/>
<path d="M325.46 304.26L323.99 303.89M323.99 303.89L322.9 303.16M322.9 303.16L322.16 302.07M322.16 302.07L321.8 300.6"/>
</g>
</g>
</svg>
