<?xml version="1.0" standalone="no"?><svg xmlns="http://www.w3.org/2000/svg" width="600.000" height="450.000" viewBox="0.0 0.0 600.000 450.000" version="1.1">
<title>Acme Converter - Post-processed with EDS-Designer: 14.44 (info@symca.com)</title>
<desc>Acme Converter - Post-processed with EDS-Designer: 14.44 (info@symca.com)</desc>
<g id="EDS_STYLE_GROUP" fill="none" stroke="black" stroke-width="1.0">
<g id="0" display="visible">
<path d="M252.46 389.41L252.46 366.95M253.53 366.95L253.53 389.41M249.26 366.95L262.09 366.95M262.09 366.95L265.3 368.02M265.3 368.02L266.37 369.09M266.37 369.09L267.44 371.23M267.44 371.23L267.44 373.37M267.44 373.37L266.37 375.51M266.37 375.51L265.3 376.58M265.3 376.58L262.09 377.65M262.09 366.95L264.23 368.02M264.23 368.02L265.3 369.09M265.3 369.09L266.37 371.23M266.37 371.23L266.37 373.37M266.37 373.37L265.3 375.51M265.3 375.51L264.23 376.58M264.23 376.58L262.09 377.65M253.53 377.65L262.09 377.65M262.09 377.65L265.3 378.72M265.3 378.72L266.37 379.79M266.37 379.79L267.44 381.92M267.44 381.92L267.44 385.13M267.44 385.13L266.37 387.27M266.37 387.27L265.3 388.34M265.3 388.34L262.09 389.41M262.09 389.41L249.26 389.41M262.09 377.65L264.23 378.72M264.23 378.72L265.3 379.79M265.3 379.79L266.37 381.92M266.37 381.92L266.37 385.13M266.37 385.13L265.3 387.27M265.3 387.27L264.23 388.34M264.23 388.34L262.09 389.41M276 389.41L276 366.95M277.07 366.95L277.07 389.41M272.79 366.95L280.27 366.95M272.79 389.41L288.83 389.41M288.83 389.41L288.83 382.99M288.83 382.99L287.76 389.41M301.67 366.95L294.18 389.41M301.67 366.95L309.15 389.41M301.67 370.16L308.08 389.41M296.32 382.99L305.94 382.99M292.04 389.41L298.46 389.41M304.87 389.41L311.29 389.41M329.47 370.16L330.54 373.37M330.54 373.37L330.54 366.95M330.54 366.95L329.47 370.16M329.47 370.16L327.34 368.02M327.34 368.02L324.13 366.95M324.13 366.95L321.99 366.95M321.99 366.95L318.78 368.02M318.78 368.02L316.64 370.16M316.64 370.16L315.57 372.3M315.57 372.3L314.5 375.51M314.5 375.51L314.5 380.85M314.5 380.85L315.57 384.06M315.57 384.06L316.64 386.2M316.64 386.2L318.78 388.34M318.78 388.34L321.99 389.41M321.99 389.41L324.13 389.41M324.13 389.41L327.34 388.34M327.34 388.34L329.47 386.2M329.47 386.2L330.54 384.06M321.99 366.95L319.85 368.02M319.85 368.02L317.71 370.16M317.71 370.16L316.64 372.3M316.64 372.3L315.57 375.51M315.57 375.51L315.57 380.85M315.57 380.85L316.64 384.06M316.64 384.06L317.71 386.2M317.71 386.2L319.85 388.34M319.85 388.34L321.99 389.41M340.17 389.41L340.17 366.95M341.24 366.95L341.24 389.41M355.15 366.95L341.24 380.85M346.59 376.58L355.15 389.41M345.52 376.58L354.08 389.41M336.96 366.95L344.45 366.95M350.87 366.95L357.28 366.95M336.96 389.41L344.45 389.41M350.87 389.41L357.28 389.41"/>
<path d="M278.01 344.49L328.32 344.49"/>
<path d="M168.39 220.5L168.39 234.88"/>
<path d="M266.12 340L340.21 340"/>
<path d="M262.44 335.5L343.88 335.5"/>
<path d="M181.62 234.88L181.62 220.5"/>
<path d="M260.61 331.01L345.72 331.01"/>
<path d="M260.04 326.52L346.29 326.52"/>
<path d="M188.16 234.88L188.16 220.5"/>
<path d="M346.29 313.29L338.19 313.29"/>
<path d="M268.13 313.29L260.04 313.29"/>
<path d="M276.62 313.29L329.7 313.29"/>
<path d="M260.04 306.75L346.29 306.75"/>
<path d="M256.74 306.68L274.41 313.21"/>
<path d="M260.04 306.75L276.62 313.29"/>
<path d="M202.54 149.14L202.54 69.56"/>
<path d="M208.92 214.3L208.92 241.08"/>
<path d="M209.87 214.3L209.87 241.08"/>
<path d="M219.7 214.3L219.7 241.08"/>
<path d="M220.06 220.05L220.06 235.33"/>
<path d="M220.51 80.34L220.51 160.47"/>
<path d="M253.84 286L352.49 286"/>
<path d="M253.84 285.04L352.49 285.04"/>
<path d="M231.29 160.31L231.29 159.41"/>
<path d="M231.74 202.02L231.74 253.36"/>
<path d="M234.88 148.63L234.88 93.82"/>
<path d="M238.03 202.02L238.03 253.36"/>
<path d="M253.84 275.22L352.49 275.22"/>
<path d="M259.59 274.86L346.74 274.86"/>
<path d="M293.73 268.57L328.77 268.57"/>
<path d="M240.27 93.82L240.27 163"/>
<path d="M246.29 241.08L246.29 212.15"/>
<path d="M238.03 253.36L231.74 253.36"/>
<path d="M338.19 313.29L336.44 311.54"/>
<path d="M253.75 91.12L253.75 80.34"/>
<path d="M253.84 274.44L253.84 286"/>
<path d="M253.84 180.94L253.84 169.38"/>
<path d="M254.38 235.15L254.38 220.23"/>
<path d="M256.89 274.77L256.89 243.95"/>
<path d="M259.59 186.81L259.59 180.52"/>
<path d="M260.04 313.29L260.04 307.9"/>
<path d="M262.73 91.12L262.73 80.34"/>
<path d="M361.11 243.95L328.77 243.95"/>
<path d="M289.24 243.95L256.89 243.95"/>
<path d="M360.04 241.08L318.17 241.08"/>
<path d="M288.16 241.08L246.29 241.08"/>
<path d="M220.48 241.08L208.92 241.08"/>
<path d="M385.85 241.08L397.41 241.08"/>
<path d="M280.07 235.15L288.16 241.08"/>
<path d="M254.38 220.23L246.29 212.15"/>
<path d="M245.99 189.72L243.42 183.98"/>
<path d="M267.22 87.53L267.22 80.34"/>
<path d="M267.67 109.09L267.67 121.67"/>
<path d="M268.13 326.52L268.13 313.29"/>
<path d="M269.02 108.19L269.02 121.67"/>
<path d="M274.41 326.52L274.41 313.21"/>
<path d="M275.31 148.63L275.31 163"/>
<path d="M275.31 148.36L275.31 121.67"/>
<path d="M276.21 82.14L276.21 87.53"/>
<path d="M278.01 142.34L278.01 108.19"/>
<path d="M245.99 265.66L243.42 271.4"/>
<path d="M231.74 238.56L220.19 238.56"/>
<path d="M379.98 235.33L386.27 235.33"/>
<path d="M351.95 235.15L326.25 235.15"/>
<path d="M280.07 235.15L254.38 235.15"/>
<path d="M424.71 234.88L418.17 234.88"/>
<path d="M181.62 234.88L188.16 234.88"/>
<path d="M231.74 233.17L220.06 233.17"/>
<path d="M280.07 220.23L280.07 235.15"/>
<path d="M285.19 101.01L285.19 108.19"/>
<path d="M286.09 148.63L286.09 154.02"/>
<path d="M288.16 212.15L288.16 241.08"/>
<path d="M289.69 153.12L289.69 163"/>
<path d="M424.71 220.5L418.17 220.5"/>
<path d="M181.62 220.5L188.16 220.5"/>
<path d="M254.38 220.23L280.07 220.23"/>
<path d="M326.25 220.23L351.95 220.23"/>
<path d="M379.98 220.05L386.27 220.05"/>
<path d="M220.48 214.3L208.92 214.3"/>
<path d="M385.85 214.3L397.41 214.3"/>
<path d="M293.73 274.86L293.73 248.44"/>
<path d="M301.37 91.12L301.37 93.82"/>
<path d="M280.07 220.23L288.16 212.15"/>
<path d="M246.29 241.08L254.38 235.15"/>
<path d="M246.29 212.15L288.16 212.15"/>
<path d="M318.17 212.15L360.04 212.15"/>
<path d="M348.98 205.68L332.81 205.68"/>
<path d="M238.03 202.02L231.74 202.02"/>
<path d="M304.96 91.12L304.96 93.82"/>
<path d="M316.64 153.12L316.64 163"/>
<path d="M348.98 200.29L332.81 200.29"/>
<path d="M231.81 200.29L225.35 200.29"/>
<path d="M329.84 199.39L333.71 199.39"/>
<path d="M328.1 197.5L328.32 197.5"/>
<path d="M342.7 197.5L353.7 197.5"/>
<path d="M359.77 194.9L354.38 194.9"/>
<path d="M229.09 194.9L233.07 194.9"/>
<path d="M322.03 194.9L327.42 194.9"/>
<path d="M359.77 189.47L354.38 189.47"/>
<path d="M351.95 235.15L360.04 241.08"/>
<path d="M326.25 220.23L318.17 212.15"/>
<path d="M318.17 241.08L318.17 212.15"/>
<path d="M320.23 148.63L320.23 150.42"/>
<path d="M321.13 101.01L321.13 108.19"/>
<path d="M322.03 194.9L322.03 180.52"/>
<path d="M326.25 235.15L326.25 220.23"/>
<path d="M327.42 194.9L327.42 185.91"/>
<path d="M328.32 108.19L328.32 142.34"/>
<path d="M328.77 274.86L328.77 243.95"/>
<path d="M330.12 80.34L330.12 87.53"/>
<path d="M330.25 199.64L330.25 199.39"/>
<path d="M339.91 200.29L342.7 197.5"/>
<path d="M259.59 186.81L327.42 186.81"/>
<path d="M349.88 185.82L327.42 185.82"/>
<path d="M349.88 182.23L325.96 182.23"/>
<path d="M346.74 180.52L259.59 180.52"/>
<path d="M352.49 180.16L253.84 180.16"/>
<path d="M328.32 197.5L329.03 198.73"/>
<path d="M331.02 148.63L331.02 163"/>
<path d="M331.02 148.36L331.02 121.67"/>
<path d="M331.91 326.52L331.91 313.21"/>
<path d="M332.81 205.68L332.81 200.29"/>
<path d="M333.71 200.29L333.71 199.39"/>
<path d="M337.3 108.19L337.3 121.67"/>
<path d="M338.19 326.52L338.19 313.29"/>
<path d="M338.65 109.09L338.65 121.67"/>
<path d="M339.1 87.53L339.1 80.34"/>
<path d="M343.59 80.34L343.59 91.12"/>
<path d="M348.98 200.29L351.77 197.5"/>
<path d="M326.25 235.15L318.17 241.08"/>
<path d="M352.49 170.33L253.84 170.33"/>
<path d="M352.49 169.38L253.84 169.38"/>
<path d="M372.34 163L233.98 163"/>
<path d="M346.29 313.29L346.29 307.9"/>
<path d="M348.98 205.68L348.98 200.29"/>
<path d="M349.88 185.82L349.88 182.23"/>
<path d="M351.95 220.23L351.95 235.15"/>
<path d="M352.49 274.44L352.49 286"/>
<path d="M352.49 180.94L352.49 169.38"/>
<path d="M352.58 91.12L352.58 80.34"/>
<path d="M353.48 186.63L353.48 193.91"/>
<path d="M354.38 188.49L354.38 194.9"/>
<path d="M351.95 220.23L360.04 212.15"/>
<path d="M269.89 311.54L268.13 313.29"/>
<path d="M385.82 159.41L375.04 159.41"/>
<path d="M231.29 159.41L220.51 159.41"/>
<path d="M286.09 154.02L289.69 154.02"/>
<path d="M289.69 153.12L316.64 153.12"/>
<path d="M234.88 148.63L371.45 148.63"/>
<path d="M359.77 189.47L359.77 194.9"/>
<path d="M360.04 212.15L360.04 241.08"/>
<path d="M365.61 270.07L365.61 248.44"/>
<path d="M366.05 93.82L366.05 163"/>
<path d="M275.31 148.36L331.02 148.36"/>
<path d="M240.27 148.23L275.31 148.23"/>
<path d="M331.02 148.23L366.05 148.23"/>
<path d="M275.31 146.6L331.02 146.6"/>
<path d="M275.31 145.03L331.02 145.03"/>
<path d="M275.31 143.23L331.02 143.23"/>
<path d="M278.01 142.34L328.32 142.34"/>
<path d="M240.27 139.44L275.31 139.44"/>
<path d="M331.02 139.44L366.05 139.44"/>
<path d="M371.45 93.82L371.45 148.63"/>
<path d="M375.04 159.41L375.04 160.31"/>
<path d="M379.98 235.33L379.98 220.05"/>
<path d="M275.31 134.93L278.01 134.93"/>
<path d="M328.32 134.93L331.02 134.93"/>
<path d="M240.27 131.56L275.31 131.56"/>
<path d="M331.02 131.56L366.05 131.56"/>
<path d="M275.31 126.3L278.01 126.3"/>
<path d="M328.32 126.3L331.02 126.3"/>
<path d="M275.31 125.27L278.01 125.27"/>
<path d="M328.32 125.27L331.02 125.27"/>
<path d="M240.27 123.11L275.31 123.11"/>
<path d="M331.02 123.11L366.05 123.11"/>
<path d="M275.31 122.57L278.01 122.57"/>
<path d="M328.32 122.57L331.02 122.57"/>
<path d="M385.82 160.47L385.82 80.34"/>
<path d="M386.27 235.33L386.27 220.05"/>
<path d="M386.63 241.08L386.63 231.26"/>
<path d="M386.63 224.12L386.63 214.3"/>
<path d="M267.67 121.67L275.31 121.67"/>
<path d="M331.02 121.67L338.65 121.67"/>
<path d="M278.01 120.64L328.32 120.64"/>
<path d="M240.27 117.74L267.67 117.74"/>
<path d="M338.65 117.74L366.05 117.74"/>
<path d="M240.27 114.48L267.67 114.48"/>
<path d="M338.65 114.48L366.05 114.48"/>
<path d="M278.01 113.01L328.32 113.01"/>
<path d="M396.46 241.08L396.46 214.3"/>
<path d="M397.41 241.08L397.41 214.3"/>
<path d="M403.79 149.14L403.79 69.56"/>
<path d="M267.67 109.09L269.02 109.09"/>
<path d="M337.3 109.09L338.65 109.09"/>
<path d="M269.02 108.19L337.3 108.19"/>
<path d="M285.19 106.03L321.13 106.03"/>
<path d="M285.19 101.55L321.13 101.55"/>
<path d="M285.19 101.01L321.13 101.01"/>
<path d="M418.17 220.5L418.17 234.88"/>
<path d="M346.29 306.75L329.7 313.29"/>
<path d="M331.91 313.21L349.58 306.68"/>
<path d="M234.88 93.82L371.45 93.82"/>
<path d="M253.75 91.12L352.58 91.12"/>
<path d="M339.1 87.53L322.42 87.53"/>
<path d="M283.91 87.53L267.22 87.53"/>
<path d="M424.71 220.5L424.71 234.88"/>
<path d="M292.53 82.14L253.75 82.14"/>
<path d="M220.51 80.34L385.82 80.34"/>
<path d="M437.93 234.88L437.93 220.5"/>
<path d="M394.81 60.58L211.52 60.58"/>
<path d="M208.91 224.6L207.65 226.53M207.65 226.53L207.65 228.85M207.65 228.85L208.91 230.78"/>
<path d="M260.04 326.52L261.41 333.4M261.41 333.4L265.3 339.23M265.3 339.23L271.13 343.12M271.13 343.12L278.01 344.49"/>
<path d="M264.13 286L266.07 287.27M266.07 287.27L268.38 287.27M268.38 287.27L270.32 286"/>
<path d="M231.74 253.36L233.17 260.75M233.17 260.75L237.26 267.07M237.26 267.07L243.42 271.4"/>
<path d="M238.03 253.36L239 258.4M239 258.4L241.79 262.71M241.79 262.71L245.99 265.66"/>
<path d="M208.92 241.08L210.45 252.7M210.45 252.7L214.93 263.54M214.93 263.54L222.07 272.84M222.07 272.84L231.38 279.98M231.38 279.98L242.21 284.47M242.21 284.47L253.84 286"/>
<path d="M209.87 241.08L211.37 252.46M211.37 252.46L215.76 263.06M215.76 263.06L222.75 272.17M222.75 272.17L231.85 279.15M231.85 279.15L242.46 283.55M242.46 283.55L253.84 285.04"/>
<path d="M219.7 241.08L221.37 251.63M221.37 251.63L226.22 261.14M226.22 261.14L233.77 268.7M233.77 268.7L243.29 273.55M243.29 273.55L253.84 275.22"/>
<path d="M220.06 235.33L221.99 247.54M221.99 247.54L227.61 258.56M227.61 258.56L236.35 267.31M236.35 267.31L247.37 272.92M247.37 272.92L259.59 274.86"/>
<path d="M245.99 265.66L256.89 268.46"/>
<path d="M168.39 234.88L170.16 252.76M170.16 252.76L175.37 269.95M175.37 269.95L183.84 285.79M183.84 285.79L195.24 299.68M195.24 299.68L209.12 311.08M209.12 311.08L224.97 319.54M224.97 319.54L242.16 324.76M242.16 324.76L260.04 326.52"/>
<path d="M181.62 234.88L183.59 252.33M183.59 252.33L189.39 268.9M189.39 268.9L198.73 283.77M198.73 283.77L211.15 296.19M211.15 296.19L226.01 305.53M226.01 305.53L242.59 311.33M242.59 311.33L260.04 313.29"/>
<path d="M188.16 234.88L189.96 250.87M189.96 250.87L195.28 266.06M195.28 266.06L203.84 279.69M203.84 279.69L215.22 291.07M215.22 291.07L228.85 299.64M228.85 299.64L244.04 304.95M244.04 304.95L260.04 306.75"/>
<path d="M202.54 149.14L190.78 160.49M190.78 160.49L181.22 173.74M181.22 173.74L174.17 188.48M174.17 188.48L169.85 204.23M169.85 204.23L168.39 220.5"/>
<path d="M220.51 152.78L207.34 162.43M207.34 162.43L196.47 174.59M196.47 174.59L188.34 188.74M188.34 188.74L183.32 204.27M183.32 204.27L181.62 220.5"/>
<path d="M220.51 160.47L209.49 169.41M209.49 169.41L200.43 180.33M200.43 180.33L193.71 192.82M193.71 192.82L189.56 206.39M189.56 206.39L188.16 220.5"/>
<path d="M253.84 169.38L242.21 170.91M242.21 170.91L231.38 175.4M231.38 175.4L222.07 182.54M222.07 182.54L214.93 191.84M214.93 191.84L210.45 202.68M210.45 202.68L208.92 214.3"/>
<path d="M253.84 170.33L242.46 171.83M242.46 171.83L231.85 176.22M231.85 176.22L222.75 183.21M222.75 183.21L215.76 192.32M215.76 192.32L211.37 202.92M211.37 202.92L209.87 214.3"/>
<path d="M259.59 180.52L247.37 182.46M247.37 182.46L236.35 188.07M236.35 188.07L227.61 196.82M227.61 196.82L221.99 207.84M221.99 207.84L220.06 220.05"/>
<path d="M253.84 180.16L243.29 181.83M243.29 181.83L233.77 186.68M233.77 186.68L226.22 194.24M226.22 194.24L221.37 203.75M221.37 203.75L219.7 214.3"/>
<path d="M259.59 186.81L252.63 187.55M252.63 187.55L245.99 189.72"/>
<path d="M243.42 183.98L237.26 188.31M237.26 188.31L233.17 194.63M233.17 194.63L231.74 202.02"/>
<path d="M245.99 189.72L241.79 192.67M241.79 192.67L239 196.98M239 196.98L238.03 202.02"/>
<path d="M293.73 248.44L292.41 245.27M292.41 245.27L289.24 243.95"/>
<path d="M267.22 87.53L267.75 91.12"/>
<path d="M276.39 80.34L276.21 82.14"/>
<path d="M253.93 80.34L253.75 82.14"/>
<path d="M211.52 60.58L207.03 61.78M207.03 61.78L203.74 65.07M203.74 65.07L202.54 69.56"/>
<path d="M270.32 169.38L268.38 168.11M268.38 168.11L266.07 168.11M266.07 168.11L264.13 169.38"/>
<path d="M276.21 87.53L277.26 90.07M277.26 90.07L279.8 91.12"/>
<path d="M277.89 125.26L276.95 123.62M276.95 123.62L275.31 122.68"/>
<path d="M285.08 93.82L283.8 91.88M283.8 91.88L281.6 91.12"/>
<path d="M231.29 160.31L232.08 162.21M232.08 162.21L233.98 163"/>
<path d="M328.32 344.49L335.2 343.12M335.2 343.12L341.03 339.23M341.03 339.23L344.92 333.4M344.92 333.4L346.29 326.52"/>
<path d="M336.01 286L337.94 287.27M337.94 287.27L340.26 287.27M340.26 287.27L342.19 286"/>
<path d="M346.29 326.52L364.17 324.76M364.17 324.76L381.36 319.54M381.36 319.54L397.2 311.08M397.2 311.08L411.09 299.68M411.09 299.68L422.49 285.79M422.49 285.79L430.96 269.95M430.96 269.95L436.17 252.76M436.17 252.76L437.93 234.88"/>
<path d="M346.29 313.29L363.74 311.33M363.74 311.33L380.31 305.53M380.31 305.53L395.18 296.19M395.18 296.19L407.6 283.77M407.6 283.77L416.94 268.9M416.94 268.9L422.74 252.33M422.74 252.33L424.71 234.88"/>
<path d="M346.29 306.75L362.28 304.95M362.28 304.95L377.47 299.64M377.47 299.64L391.1 291.07M391.1 291.07L402.48 279.69M402.48 279.69L411.05 266.06M411.05 266.06L416.36 250.87M416.36 250.87L418.17 234.88"/>
<path d="M352.49 286L364.12 284.47M364.12 284.47L374.95 279.98M374.95 279.98L384.25 272.84M384.25 272.84L391.39 263.54M391.39 263.54L395.88 252.7M395.88 252.7L397.41 241.08"/>
<path d="M352.49 285.04L363.87 283.55M363.87 283.55L374.47 279.15M374.47 279.15L383.58 272.17M383.58 272.17L390.57 263.06M390.57 263.06L394.96 252.46M394.96 252.46L396.46 241.08"/>
<path d="M346.74 274.86L358.95 272.92M358.95 272.92L369.97 267.31M369.97 267.31L378.72 258.56M378.72 258.56L384.34 247.54M384.34 247.54L386.27 235.33"/>
<path d="M352.49 275.22L363.04 273.55M363.04 273.55L372.56 268.7M372.56 268.7L380.11 261.14M380.11 261.14L384.96 251.63M384.96 251.63L386.63 241.08"/>
<path d="M365.61 262.7L373.31 255.31M373.31 255.31L378.27 245.86M378.27 245.86L379.98 235.33"/>
<path d="M437.93 220.5L436.48 204.23M436.48 204.23L432.15 188.48M432.15 188.48L425.1 173.74M425.1 173.74L415.55 160.49M415.55 160.49L403.79 149.14"/>
<path d="M424.71 220.5L423.01 204.27M423.01 204.27L417.99 188.74M417.99 188.74L409.86 174.59M409.86 174.59L398.98 162.43M398.98 162.43L385.82 152.78"/>
<path d="M418.17 220.5L416.77 206.39M416.77 206.39L412.62 192.82M412.62 192.82L405.89 180.33M405.89 180.33L396.84 169.41M396.84 169.41L385.82 160.47"/>
<path d="M397.41 214.3L395.88 202.68M395.88 202.68L391.39 191.84M391.39 191.84L384.25 182.54M384.25 182.54L374.95 175.4M374.95 175.4L364.12 170.91M364.12 170.91L352.49 169.38"/>
<path d="M396.46 214.3L394.96 202.92M394.96 202.92L390.57 192.32M390.57 192.32L383.58 183.21M383.58 183.21L374.47 176.22M374.47 176.22L363.87 171.83M363.87 171.83L352.49 170.33"/>
<path d="M386.27 220.05L384.34 207.84M384.34 207.84L378.72 196.82M378.72 196.82L369.97 188.07M369.97 188.07L358.95 182.46M358.95 182.46L346.74 180.52"/>
<path d="M383.92 206.63L380.85 199.93M380.85 199.93L376.48 194"/>
<path d="M358.44 183.26L349.88 182.23"/>
<path d="M386.63 214.3L384.96 203.75M384.96 203.75L380.11 194.24M380.11 194.24L372.56 186.68M372.56 186.68L363.04 181.83M363.04 181.83L352.49 180.16"/>
<path d="M379.98 220.05L378.57 210.48M378.57 210.48L374.47 201.72M374.47 201.72L368.02 194.51M368.02 194.51L359.77 189.47"/>
<path d="M353.53 186.03L349.88 185.82"/>
<path d="M365.61 248.44L364.29 245.27M364.29 245.27L361.11 243.95"/>
<path d="M397.41 230.78L398.68 228.85M398.68 228.85L398.68 226.53M398.68 226.53L397.41 224.6"/>
<path d="M386.27 231.28L388.81 230.23M388.81 230.23L389.86 227.69M389.86 227.69L388.81 225.15M388.81 225.15L386.27 224.1"/>
<path d="M386.27 227.78L386.27 227.6"/>
<path d="M338.58 91.12L339.1 87.53"/>
<path d="M292.38 80.34L292.53 82.14"/>
<path d="M322.03 194.9L323.48 200.29M323.48 200.29L327.42 204.23M327.42 204.23L332.81 205.68"/>
<path d="M348.98 205.68L354.38 204.23M354.38 204.23L358.32 200.29M358.32 200.29L359.77 194.9"/>
<path d="M352.58 82.14L352.4 80.34"/>
<path d="M403.79 69.56L402.59 65.07M402.59 65.07L399.3 61.78M399.3 61.78L394.81 60.58"/>
<path d="M361.82 183.51L358.37 183.29M358.37 183.29L355.49 185.21M355.49 185.21L354.38 188.49"/>
<path d="M327.42 185.91L326.7 183.22M326.7 183.22L324.73 181.24M324.73 181.24L322.03 180.52"/>
<path d="M327.42 194.9L329 198.71M329 198.71L332.81 200.29"/>
<path d="M348.98 200.29L352.8 198.71M352.8 198.71L354.38 194.9"/>
<path d="M342.19 169.38L340.26 168.11M340.26 168.11L337.94 168.11M337.94 168.11L336.01 169.38"/>
<path d="M326.52 91.12L329.06 90.07M329.06 90.07L330.12 87.53"/>
<path d="M331.01 122.68L329.37 123.62M329.37 123.62L328.43 125.26"/>
<path d="M324.73 91.12L322.53 91.88M322.53 91.88L321.25 93.82"/>
<path d="M316.64 154.02L319.18 152.96M319.18 152.96L320.23 150.42"/>
<path d="M357.87 183.13L355.76 183.29M355.76 183.29L354.1 184.61M354.1 184.61L353.48 186.63"/>
<path d="M353.48 193.91L354.23 196.11"/>
<path d="M372.34 163L374.25 162.21M374.25 162.21L375.04 160.31"/>
<path d="M283.91 87.53L283.51 87.68M283.51 87.68L283.12 87.84M283.12 87.84L282.73 88.01M282.73 88.01L282.35 88.2M282.35 88.2L281.98 88.39M281.98 88.39L281.61 88.6M281.61 88.6L281.26 88.83M281.26 88.83L281.08 88.96M281.08 88.96L280.92 89.09M280.92 89.09L280.76 89.22M280.76 89.22L280.6 89.37M280.6 89.37L280.46 89.53M280.46 89.53L280.33 89.69M280.33 89.69L280.22 89.88M280.22 89.88L280.18 89.97M280.18 89.97L280.15 90.07M280.15 90.07L280.12 90.17M280.12 90.17L280.11 90.28M280.11 90.28L280.12 90.39M280.12 90.39L280.14 90.49M280.14 90.49L280.18 90.59M280.18 90.59L280.24 90.68M280.24 90.68L280.31 90.75M280.31 90.75L280.39 90.82M280.39 90.82L280.48 90.88M280.48 90.88L280.57 90.93M280.57 90.93L280.67 90.98M280.67 90.98L280.76 91.01M280.76 91.01L280.97 91.07M280.97 91.07L281.18 91.1M281.18 91.1L281.39 91.12M281.39 91.12L281.6 91.12"/>
<path d="M361.82 183.51L361.32 185M361.32 185L360.81 186.5M360.81 186.5L360.29 187.98M360.29 187.98L359.77 189.47"/>
<path d="M324.73 91.12L324.94 91.12M324.94 91.12L325.15 91.1M325.15 91.1L325.36 91.07M325.36 91.07L325.56 91.01M325.56 91.01L325.66 90.98M325.66 90.98L325.76 90.93M325.76 90.93L325.85 90.88M325.85 90.88L325.94 90.82M325.94 90.82L326.02 90.75M326.02 90.75L326.09 90.68M326.09 90.68L326.14 90.59M326.14 90.59L326.19 90.49M326.19 90.49L326.21 90.39M326.21 90.39L326.21 90.28M326.21 90.28L326.2 90.17M326.2 90.17L326.18 90.07M326.18 90.07L326.15 89.97M326.15 89.97L326.1 89.88M326.1 89.88L325.99 89.69M325.99 89.69L325.86 89.53M325.86 89.53L325.72 89.37M325.72 89.37L325.57 89.22M325.57 89.22L325.41 89.09M325.41 89.09L325.24 88.96M325.24 88.96L325.07 88.83M325.07 88.83L324.72 88.6M324.72 88.6L324.35 88.39M324.35 88.39L323.97 88.2M323.97 88.2L323.59 88.01M323.59 88.01L323.21 87.84M323.21 87.84L322.82 87.68M322.82 87.68L322.42 87.53"/>
<path d="M329.7 313.29L330.26 313.29M330.26 313.29L330.81 313.27M330.81 313.27L331.36 313.25M331.36 313.25L331.91 313.21"/>
<path d="M274.41 313.21L274.96 313.25M274.96 313.25L275.52 313.27M275.52 313.27L276.07 313.29M276.07 313.29L276.62 313.29"/>
<path d="M322.42 87.53L315.55 85.68M315.55 85.68L307.44 84.71M307.44 84.71L298.89 84.71M298.89 84.71L290.78 85.68M290.78 85.68L283.91 87.53"/>
<path d="M453 218.82L454.71 217.97M454.71 217.97L457.28 215.4M457.28 215.4L457.28 233.37"/>
<path d="M143.57 219.68L143.57 218.82M143.57 218.82L144.42 217.11M144.42 217.11L145.28 216.25M145.28 216.25L146.99 215.4M146.99 215.4L150.41 215.4M150.41 215.4L152.13 216.25M152.13 216.25L152.98 217.11M152.98 217.11L153.84 218.82M153.84 218.82L153.84 220.53M153.84 220.53L152.98 222.24M152.98 222.24L151.27 224.81M151.27 224.81L142.71 233.37M142.71 233.37L154.69 233.37"/>
</g>
</g>
</svg>
