<?xml version="1.0" standalone="no"?><svg xmlns="http://www.w3.org/2000/svg" width="600.000" height="450.000" viewBox="0.0 0.0 600.000 450.000" version="1.1">
<title>Acme Converter - Post-processed with EDS-Designer: 14.44 (info@symca.com)</title>
<desc>Acme Converter - Post-processed with EDS-Designer: 14.44 (info@symca.com)</desc>
<g id="EDS_STYLE_GROUP" fill="none" stroke="black" stroke-width="1.0">
<g id="0" display="visible">
<path d="M170.21 364.5L170.21 342.64M171.26 342.64L171.26 364.5M163.97 342.64L162.93 348.89M162.93 348.89L162.93 342.64M162.93 342.64L178.54 342.64M178.54 342.64L178.54 348.89M178.54 348.89L177.5 342.64M167.09 364.5L174.38 364.5M185.83 364.5L185.83 342.64M186.87 342.64L186.87 364.5M182.71 342.64L195.2 342.64M195.2 342.64L198.33 343.68M198.33 343.68L199.37 344.72M199.37 344.72L200.41 346.8M200.41 346.8L200.41 348.89M200.41 348.89L199.37 350.97M199.37 350.97L198.33 352.01M198.33 352.01L195.2 353.05M195.2 353.05L186.87 353.05M195.2 342.64L197.29 343.68M197.29 343.68L198.33 344.72M198.33 344.72L199.37 346.8M199.37 346.8L199.37 348.89M199.37 348.89L198.33 350.97M198.33 350.97L197.29 352.01M197.29 352.01L195.2 353.05M182.71 364.5L190 364.5M192.08 353.05L194.16 354.09M194.16 354.09L195.2 355.13M195.2 355.13L198.33 362.42M198.33 362.42L199.37 363.46M199.37 363.46L200.41 363.46M200.41 363.46L201.45 362.42M194.16 354.09L195.2 356.17M195.2 356.17L197.29 363.46M197.29 363.46L198.33 364.5M198.33 364.5L200.41 364.5M200.41 364.5L201.45 362.42M201.45 362.42L201.45 361.38M214.99 342.64L207.7 364.5M214.99 342.64L222.28 364.5M214.99 345.76L221.23 364.5M209.78 358.26L219.15 358.26M205.62 364.5L211.86 364.5M218.11 364.5L224.36 364.5M230.61 364.5L230.61 342.64M231.65 342.64L231.65 364.5M237.89 348.89L237.89 357.21M227.48 342.64L244.14 342.64M244.14 342.64L244.14 348.89M244.14 348.89L243.1 342.64M231.65 353.05L237.89 353.05M227.48 364.5L234.77 364.5M251.43 364.5L251.43 342.64M252.47 342.64L252.47 364.5M258.72 348.89L258.72 357.21M248.31 342.64L264.97 342.64M264.97 342.64L264.97 348.89M264.97 348.89L263.92 342.64M252.47 353.05L258.72 353.05M248.31 364.5L255.59 364.5M272.25 364.5L272.25 342.64M273.3 342.64L273.3 364.5M269.13 342.64L276.42 342.64M269.13 364.5L276.42 364.5M295.16 345.76L296.2 348.89M296.2 348.89L296.2 342.64M296.2 342.64L295.16 345.76M295.16 345.76L293.08 343.68M293.08 343.68L289.96 342.64M289.96 342.64L287.87 342.64M287.87 342.64L284.75 343.68M284.75 343.68L282.67 345.76M282.67 345.76L281.63 347.84M281.63 347.84L280.58 350.97M280.58 350.97L280.58 356.17M280.58 356.17L281.63 359.3M281.63 359.3L282.67 361.38M282.67 361.38L284.75 363.46M284.75 363.46L287.87 364.5M287.87 364.5L289.96 364.5M289.96 364.5L293.08 363.46M293.08 363.46L295.16 361.38M295.16 361.38L296.2 359.3M287.87 342.64L285.79 343.68M285.79 343.68L283.71 345.76M283.71 345.76L282.67 347.84M282.67 347.84L281.63 350.97M281.63 350.97L281.63 356.17M281.63 356.17L282.67 359.3M282.67 359.3L283.71 361.38M283.71 361.38L285.79 363.46M285.79 363.46L287.87 364.5M327.44 364.5L327.44 342.64M328.48 342.64L328.48 364.5M324.32 342.64L336.81 342.64M336.81 342.64L339.93 343.68M339.93 343.68L340.98 344.72M340.98 344.72L342.02 346.8M342.02 346.8L342.02 349.93M342.02 349.93L340.98 352.01M340.98 352.01L339.93 353.05M339.93 353.05L336.81 354.09M336.81 354.09L328.48 354.09M336.81 342.64L338.89 343.68M338.89 343.68L339.93 344.72M339.93 344.72L340.98 346.8M340.98 346.8L340.98 349.93M340.98 349.93L339.93 352.01M339.93 352.01L338.89 353.05M338.89 353.05L336.81 354.09M324.32 364.5L331.6 364.5M350.35 342.64L350.35 358.26M350.35 358.26L351.39 361.38M351.39 361.38L353.47 363.46M353.47 363.46L356.59 364.5M356.59 364.5L358.68 364.5M358.68 364.5L361.8 363.46M361.8 363.46L363.88 361.38M363.88 361.38L364.92 358.26M364.92 358.26L364.92 342.64M351.39 342.64L351.39 358.26M351.39 358.26L352.43 361.38M352.43 361.38L354.51 363.46M354.51 363.46L356.59 364.5M347.22 342.64L354.51 342.64M361.8 342.64L368.05 342.64M375.34 364.5L375.34 342.64M376.38 342.64L376.38 364.5M372.21 342.64L384.71 342.64M384.71 342.64L387.83 343.68M387.83 343.68L388.87 344.72M388.87 344.72L389.91 346.8M389.91 346.8L389.91 348.89M389.91 348.89L388.87 350.97M388.87 350.97L387.83 352.01M387.83 352.01L384.71 353.05M384.71 353.05L376.38 353.05M384.71 342.64L386.79 343.68M386.79 343.68L387.83 344.72M387.83 344.72L388.87 346.8M388.87 346.8L388.87 348.89M388.87 348.89L387.83 350.97M387.83 350.97L386.79 352.01M386.79 352.01L384.71 353.05M372.21 364.5L379.5 364.5M381.58 353.05L383.67 354.09M383.67 354.09L384.71 355.13M384.71 355.13L387.83 362.42M387.83 362.42L388.87 363.46M388.87 363.46L389.91 363.46M389.91 363.46L390.95 362.42M383.67 354.09L384.71 356.17M384.71 356.17L386.79 363.46M386.79 363.46L387.83 364.5M387.83 364.5L389.91 364.5M389.91 364.5L390.95 362.42M390.95 362.42L390.95 361.38M398.24 364.5L398.24 342.64M399.28 342.64L399.28 364.5M395.12 342.64L407.61 342.64M407.61 342.64L410.74 343.68M410.74 343.68L411.78 344.72M411.78 344.72L412.82 346.8M412.82 346.8L412.82 349.93M412.82 349.93L411.78 352.01M411.78 352.01L410.74 353.05M410.74 353.05L407.61 354.09M407.61 354.09L399.28 354.09M407.61 342.64L409.7 343.68M409.7 343.68L410.74 344.72M410.74 344.72L411.78 346.8M411.78 346.8L411.78 349.93M411.78 349.93L410.74 352.01M410.74 352.01L409.7 353.05M409.7 353.05L407.61 354.09M395.12 364.5L402.41 364.5M421.15 364.5L421.15 342.64M422.19 342.64L422.19 364.5M418.03 342.64L425.31 342.64M418.03 364.5L433.64 364.5M433.64 364.5L433.64 358.26M433.64 358.26L432.6 364.5M439.89 364.5L439.89 342.64M440.93 342.64L440.93 364.5M447.18 348.89L447.18 357.21M436.77 342.64L453.43 342.64M453.43 342.64L453.43 348.89M453.43 348.89L452.39 342.64M440.93 353.05L447.18 353.05M436.77 364.5L453.43 364.5M453.43 364.5L453.43 358.26M453.43 358.26L452.39 364.5"/>
<path d="M359.33 122.23L357.36 122.23M356.57 122.23L356.44 122.23M355.65 122.23L352.5 122.23M351.71 122.23L351.58 122.23M350.79 122.23L348.83 122.23"/>
<path d="M262.24 113.92L262.24 109M262.24 107.03L262.24 106.71M262.24 104.74L262.24 96.87M262.24 94.9L262.24 94.57M262.24 92.6L262.24 87.68"/>
<path d="M278.42 149.43L278.42 147.27M278.42 146.4L278.42 146.26M278.42 145.39L278.42 141.93M278.42 141.06L278.42 140.92M278.42 140.05L278.42 137.89"/>
<path d="M337.9 149.43L337.9 147.27M337.9 146.4L337.9 146.26M337.9 145.39L337.9 141.93M337.9 141.06L337.9 140.92M337.9 140.05L337.9 137.89"/>
<path d="M354.08 87.68L354.08 92.6M354.08 94.57L354.08 94.9M354.08 96.87L354.08 104.74M354.08 106.71L354.08 107.04M354.08 109.01L354.08 113.93"/>
<path d="M253.06 89.87L273.72 89.87M281.99 89.87L283.36 89.87M291.63 89.87L324.69 89.87M332.96 89.87L334.33 89.87M342.6 89.87L363.26 89.87"/>
<path d="M267.49 122.23L265.52 122.23M264.73 122.23L264.6 122.23M263.82 122.23L260.67 122.23M259.88 122.23L259.75 122.23M258.96 122.23L256.99 122.23"/>
<path d="M185.71 307.65L193.58 307.65"/>
<path d="M422.74 307.65L430.61 307.65"/>
<path d="M422.74 307.65L193.58 307.65"/>
<path d="M193.58 192.42L193.58 307.65"/>
<path d="M185.71 307.65L185.71 192.42"/>
<path d="M266.62 111.74L266.62 113.48"/>
<path d="M266.62 111.74L183.09 111.74"/>
<path d="M183.09 111.74L183.09 128.35"/>
<path d="M172.59 138.85L177.84 137.44M177.84 137.44L181.68 133.6M181.68 133.6L183.09 128.35"/>
<path d="M172.59 314.65L172.59 138.85"/>
<path d="M193.58 314.65L172.59 314.65"/>
<path d="M193.58 314.65L193.58 307.65"/>
<path d="M202.05 320.77L299.41 320.77"/>
<path d="M299.41 320.77L299.41 307.65"/>
<path d="M207.84 307.65L209.1 309.84"/>
<path d="M206.83 313.77L208.52 313.16M208.52 313.16L209.41 311.61M209.41 311.61L209.1 309.84"/>
<path d="M205.72 313.77L206.83 313.77"/>
<path d="M201.94 311.6L203.54 313.19M203.54 313.19L205.72 313.77"/>
<path d="M199.64 307.65L201.94 311.6"/>
<path d="M194.2 315.89L193.59 314.64"/>
<path d="M194.2 315.89L197.43 319.45M197.43 319.45L202.05 320.77"/>
<path d="M316.91 320.77L316.91 307.65"/>
<path d="M422.74 314.64L422.12 315.89"/>
<path d="M414.38 311.6L416.68 307.65"/>
<path d="M410.6 313.77L412.78 313.19M412.78 313.19L414.38 311.6"/>
<path d="M409.49 313.77L410.6 313.77"/>
<path d="M407.22 309.84L406.91 311.61M406.91 311.61L407.8 313.16M407.8 313.16L409.49 313.77"/>
<path d="M407.22 309.84L408.48 307.65"/>
<path d="M316.91 320.77L414.27 320.77"/>
<path d="M414.27 320.77L418.9 319.45M418.9 319.45L422.12 315.89"/>
<path d="M422.74 314.65L422.74 307.65"/>
<path d="M443.73 314.65L422.74 314.65"/>
<path d="M443.73 138.85L443.73 314.65"/>
<path d="M433.23 128.35L434.64 133.6M434.64 133.6L438.48 137.44M438.48 137.44L443.73 138.85"/>
<path d="M433.23 128.35L433.23 111.74"/>
<path d="M433.23 111.74L349.71 111.74"/>
<path d="M349.71 111.74L349.71 113.48"/>
<path d="M430.61 288.63L430.61 307.65"/>
<path d="M422.74 288.63L422.74 307.65"/>
<path d="M418.36 303.28L422.74 307.65"/>
<path d="M418.36 303.28L197.96 303.28"/>
<path d="M197.96 303.28L193.58 307.65"/>
<path d="M181.34 192.42L193.58 192.42"/>
<path d="M197.96 188.05L197.96 303.28"/>
<path d="M197.96 188.05L193.58 192.42"/>
<path d="M188.63 182.56L181.34 183.39"/>
<path d="M176.97 183.89L181.34 183.39"/>
<path d="M185.71 182.9L185.71 177.02"/>
<path d="M181.34 176.52L188.63 177.35"/>
<path d="M181.34 176.52L176.97 176.02"/>
<path d="M176.97 176.02L176.97 171.87"/>
<path d="M181.34 167.49L179.15 168.08M179.15 168.08L177.55 169.68M177.55 169.68L176.97 171.87"/>
<path d="M181.34 167.49L193.58 167.49"/>
<path d="M185.71 167.49L185.71 139.72"/>
<path d="M185.71 139.72L258.74 139.72"/>
<path d="M258.74 130.98L258.74 152.84"/>
<path d="M257.87 130.98L258.74 130.98"/>
<path d="M257.87 122.23L257.87 130.98"/>
<path d="M257.87 117.86L257.87 122.23"/>
<path d="M262.24 113.48L260.06 114.07M260.06 114.07L258.46 115.67M258.46 115.67L257.87 117.86"/>
<path d="M266.62 113.48L262.24 113.48"/>
<path d="M266.62 111.74L266.62 96.87"/>
<path d="M266.62 122.23L266.62 113.48"/>
<path d="M266.62 122.23L266.62 148.47"/>
<path d="M183.09 111.74L183.09 109.11"/>
<path d="M172.59 122.23L172.59 138.85"/>
<path d="M176.97 188.05L178.25 191.14M178.25 191.14L181.34 192.42"/>
<path d="M176.97 183.89L176.97 188.05"/>
<path d="M183.09 109.11L235.44 109.11"/>
<path d="M278.42 148.47L266.62 148.47"/>
<path d="M300.29 148.47L316.03 148.47"/>
<path d="M349.71 148.47L337.9 148.47"/>
<path d="M349.71 122.23L349.71 148.47"/>
<path d="M349.71 113.48L349.71 122.23"/>
<path d="M349.71 111.74L349.71 96.87"/>
<path d="M380.89 109.11L433.23 109.11"/>
<path d="M433.23 111.74L433.23 109.11"/>
<path d="M443.73 122.23L443.73 138.85"/>
<path d="M427.69 273.56L434.98 272.73"/>
<path d="M439.36 272.23L434.98 272.73"/>
<path d="M430.61 273.23L430.61 279.11"/>
<path d="M434.98 279.6L427.69 278.77"/>
<path d="M434.98 279.6L439.36 280.1"/>
<path d="M439.36 280.1L439.36 284.26"/>
<path d="M434.98 288.63L437.17 288.04M437.17 288.04L438.77 286.44M438.77 286.44L439.36 284.26"/>
<path d="M434.98 288.63L422.74 288.63"/>
<path d="M354.08 113.48L349.71 113.48"/>
<path d="M358.45 117.86L357.87 115.67M357.87 115.67L356.27 114.07M356.27 114.07L354.08 113.48"/>
<path d="M358.45 122.23L358.45 117.86"/>
<path d="M358.45 130.98L358.45 122.23"/>
<path d="M357.58 130.98L358.45 130.98"/>
<path d="M357.58 152.84L357.58 130.98"/>
<path d="M357.58 139.72L430.61 139.72"/>
<path d="M430.61 139.72L430.61 263.7"/>
<path d="M434.98 263.7L422.74 263.7"/>
<path d="M439.36 268.08L438.77 265.89M438.77 265.89L437.17 264.29M437.17 264.29L434.98 263.7"/>
<path d="M439.36 272.23L439.36 268.08"/>
<path d="M422.74 288.63L418.36 284.26"/>
<path d="M418.36 303.28L418.36 284.26"/>
<path d="M434.98 284.26L418.36 284.26"/>
<path d="M434.98 279.6L434.98 284.26"/>
<path d="M427.69 273.56L426.03 274.42M426.03 274.42L425.36 276.17M425.36 276.17L426.03 277.91M426.03 277.91L427.69 278.77"/>
<path d="M434.98 272.73L434.98 268.08"/>
<path d="M434.98 268.08L418.36 268.08"/>
<path d="M418.36 268.08L418.36 152.84"/>
<path d="M357.58 152.84L418.36 152.84"/>
<path d="M358.45 122.23L349.71 122.23"/>
<path d="M337.9 148.47L337.9 138.85"/>
<path d="M316.03 138.85L337.9 138.85"/>
<path d="M316.03 138.85L316.03 148.47"/>
<path d="M300.29 138.85L300.29 148.47"/>
<path d="M278.42 138.85L300.29 138.85"/>
<path d="M278.42 148.47L278.42 138.85"/>
<path d="M266.62 122.23L257.87 122.23"/>
<path d="M197.96 152.84L258.74 152.84"/>
<path d="M197.96 152.84L197.96 171.87"/>
<path d="M181.34 171.87L197.96 171.87"/>
<path d="M181.34 176.52L181.34 171.87"/>
<path d="M188.63 182.56L190.29 181.7M190.29 181.7L190.96 179.96M190.96 179.96L190.29 178.21M190.29 178.21L188.63 177.35"/>
<path d="M181.34 183.39L181.34 188.05"/>
<path d="M181.34 188.05L197.96 188.05"/>
<path d="M375.94 191.11L388.63 191.11"/>
<path d="M375.94 168.8L375.94 191.11"/>
<path d="M388.63 168.8L375.94 168.8"/>
<path d="M388.63 158.97L388.63 168.8"/>
<path d="M402.62 158.97L388.63 158.97"/>
<path d="M402.62 168.8L402.62 158.97"/>
<path d="M415.3 168.8L402.62 168.8"/>
<path d="M415.3 191.11L415.3 168.8"/>
<path d="M402.62 191.11L415.3 191.11"/>
<path d="M402.62 200.95L402.62 191.11"/>
<path d="M388.63 200.95L402.62 200.95"/>
<path d="M388.63 191.11L388.63 200.95"/>
<path d="M332.21 191.11L344.9 191.11"/>
<path d="M332.21 168.8L332.21 191.11"/>
<path d="M344.9 168.8L332.21 168.8"/>
<path d="M344.9 158.97L344.9 168.8"/>
<path d="M358.89 158.97L344.9 158.97"/>
<path d="M358.89 168.8L358.89 158.97"/>
<path d="M371.57 168.8L358.89 168.8"/>
<path d="M371.57 191.11L371.57 168.8"/>
<path d="M358.89 191.11L371.57 191.11"/>
<path d="M358.89 200.95L358.89 191.11"/>
<path d="M344.9 200.95L358.89 200.95"/>
<path d="M344.9 191.11L344.9 200.95"/>
<path d="M288.48 191.11L301.16 191.11"/>
<path d="M288.48 168.8L288.48 191.11"/>
<path d="M301.16 168.8L288.48 168.8"/>
<path d="M301.16 158.97L301.16 168.8"/>
<path d="M315.16 158.97L301.16 158.97"/>
<path d="M315.16 168.8L315.16 158.97"/>
<path d="M327.84 168.8L315.16 168.8"/>
<path d="M327.84 191.11L327.84 168.8"/>
<path d="M315.16 191.11L327.84 191.11"/>
<path d="M315.16 200.95L315.16 191.11"/>
<path d="M301.16 200.95L315.16 200.95"/>
<path d="M301.16 191.11L301.16 200.95"/>
<path d="M244.75 191.11L257.43 191.11"/>
<path d="M244.75 168.8L244.75 191.11"/>
<path d="M257.43 168.8L244.75 168.8"/>
<path d="M257.43 158.97L257.43 168.8"/>
<path d="M271.43 158.97L257.43 158.97"/>
<path d="M271.43 168.8L271.43 158.97"/>
<path d="M284.11 168.8L271.43 168.8"/>
<path d="M284.11 191.11L284.11 168.8"/>
<path d="M271.43 191.11L284.11 191.11"/>
<path d="M271.43 200.95L271.43 191.11"/>
<path d="M257.43 200.95L271.43 200.95"/>
<path d="M257.43 191.11L257.43 200.95"/>
<path d="M201.02 191.11L213.7 191.11"/>
<path d="M201.02 168.8L201.02 191.11"/>
<path d="M213.7 168.8L201.02 168.8"/>
<path d="M213.7 158.97L213.7 168.8"/>
<path d="M227.69 158.97L213.7 158.97"/>
<path d="M227.69 168.8L227.69 158.97"/>
<path d="M240.38 168.8L227.69 168.8"/>
<path d="M240.38 191.11L240.38 168.8"/>
<path d="M227.69 191.11L240.38 191.11"/>
<path d="M227.69 200.95L227.69 191.11"/>
<path d="M213.7 200.95L227.69 200.95"/>
<path d="M213.7 191.11L213.7 200.95"/>
<path d="M375.94 239.21L388.63 239.21"/>
<path d="M375.94 216.91L375.94 239.21"/>
<path d="M388.63 216.91L375.94 216.91"/>
<path d="M388.63 207.07L388.63 216.91"/>
<path d="M402.62 207.07L388.63 207.07"/>
<path d="M402.62 216.91L402.62 207.07"/>
<path d="M415.3 216.91L402.62 216.91"/>
<path d="M415.3 239.21L415.3 216.91"/>
<path d="M402.62 239.21L415.3 239.21"/>
<path d="M402.62 249.05L402.62 239.21"/>
<path d="M388.63 249.05L402.62 249.05"/>
<path d="M388.63 239.21L388.63 249.05"/>
<path d="M332.21 239.21L344.9 239.21"/>
<path d="M332.21 216.91L332.21 239.21"/>
<path d="M344.9 216.91L332.21 216.91"/>
<path d="M344.9 207.07L344.9 216.91"/>
<path d="M358.89 207.07L344.9 207.07"/>
<path d="M358.89 216.91L358.89 207.07"/>
<path d="M371.57 216.91L358.89 216.91"/>
<path d="M371.57 239.21L371.57 216.91"/>
<path d="M358.89 239.21L371.57 239.21"/>
<path d="M358.89 249.05L358.89 239.21"/>
<path d="M344.9 249.05L358.89 249.05"/>
<path d="M344.9 239.21L344.9 249.05"/>
<path d="M288.48 239.21L301.16 239.21"/>
<path d="M288.48 216.91L288.48 239.21"/>
<path d="M301.16 216.91L288.48 216.91"/>
<path d="M301.16 207.07L301.16 216.91"/>
<path d="M315.16 207.07L301.16 207.07"/>
<path d="M315.16 216.91L315.16 207.07"/>
<path d="M327.84 216.91L315.16 216.91"/>
<path d="M327.84 239.21L327.84 216.91"/>
<path d="M315.16 239.21L327.84 239.21"/>
<path d="M315.16 249.05L315.16 239.21"/>
<path d="M301.16 249.05L315.16 249.05"/>
<path d="M301.16 239.21L301.16 249.05"/>
<path d="M244.75 239.21L257.43 239.21"/>
<path d="M244.75 216.91L244.75 239.21"/>
<path d="M257.43 216.91L244.75 216.91"/>
<path d="M257.43 207.07L257.43 216.91"/>
<path d="M271.43 207.07L257.43 207.07"/>
<path d="M271.43 216.91L271.43 207.07"/>
<path d="M284.11 216.91L271.43 216.91"/>
<path d="M284.11 239.21L284.11 216.91"/>
<path d="M271.43 239.21L284.11 239.21"/>
<path d="M271.43 249.05L271.43 239.21"/>
<path d="M257.43 249.05L271.43 249.05"/>
<path d="M257.43 239.21L257.43 249.05"/>
<path d="M201.02 239.21L213.7 239.21"/>
<path d="M201.02 216.91L201.02 239.21"/>
<path d="M213.7 216.91L201.02 216.91"/>
<path d="M213.7 207.07L213.7 216.91"/>
<path d="M227.69 207.07L213.7 207.07"/>
<path d="M227.69 216.91L227.69 207.07"/>
<path d="M240.38 216.91L227.69 216.91"/>
<path d="M240.38 239.21L240.38 216.91"/>
<path d="M227.69 239.21L240.38 239.21"/>
<path d="M227.69 249.05L227.69 239.21"/>
<path d="M213.7 249.05L227.69 249.05"/>
<path d="M213.7 239.21L213.7 249.05"/>
<path d="M375.94 287.32L388.63 287.32"/>
<path d="M375.94 265.01L375.94 287.32"/>
<path d="M388.63 265.01L375.94 265.01"/>
<path d="M388.63 255.17L388.63 265.01"/>
<path d="M402.62 255.17L388.63 255.17"/>
<path d="M402.62 265.01L402.62 255.17"/>
<path d="M415.3 265.01L402.62 265.01"/>
<path d="M415.3 287.32L415.3 265.01"/>
<path d="M402.62 287.32L415.3 287.32"/>
<path d="M402.62 297.16L402.62 287.32"/>
<path d="M388.63 297.16L402.62 297.16"/>
<path d="M388.63 287.32L388.63 297.16"/>
<path d="M332.21 287.32L344.9 287.32"/>
<path d="M332.21 265.01L332.21 287.32"/>
<path d="M344.9 265.01L332.21 265.01"/>
<path d="M344.9 255.17L344.9 265.01"/>
<path d="M358.89 255.17L344.9 255.17"/>
<path d="M358.89 265.01L358.89 255.17"/>
<path d="M371.57 265.01L358.89 265.01"/>
<path d="M371.57 287.32L371.57 265.01"/>
<path d="M358.89 287.32L371.57 287.32"/>
<path d="M358.89 297.16L358.89 287.32"/>
<path d="M344.9 297.16L358.89 297.16"/>
<path d="M344.9 287.32L344.9 297.16"/>
<path d="M288.48 287.32L301.16 287.32"/>
<path d="M288.48 265.01L288.48 287.32"/>
<path d="M301.16 265.01L288.48 265.01"/>
<path d="M301.16 255.17L301.16 265.01"/>
<path d="M315.16 255.17L301.16 255.17"/>
<path d="M315.16 265.01L315.16 255.17"/>
<path d="M327.84 265.01L315.16 265.01"/>
<path d="M327.84 287.32L327.84 265.01"/>
<path d="M315.16 287.32L327.84 287.32"/>
<path d="M315.16 297.16L315.16 287.32"/>
<path d="M301.16 297.16L315.16 297.16"/>
<path d="M301.16 287.32L301.16 297.16"/>
<path d="M244.75 287.32L257.43 287.32"/>
<path d="M244.75 265.01L244.75 287.32"/>
<path d="M257.43 265.01L244.75 265.01"/>
<path d="M257.43 255.17L257.43 265.01"/>
<path d="M271.43 255.17L257.43 255.17"/>
<path d="M271.43 265.01L271.43 255.17"/>
<path d="M284.11 265.01L271.43 265.01"/>
<path d="M284.11 287.32L284.11 265.01"/>
<path d="M271.43 287.32L284.11 287.32"/>
<path d="M271.43 297.16L271.43 287.32"/>
<path d="M257.43 297.16L271.43 297.16"/>
<path d="M257.43 287.32L257.43 297.16"/>
<path d="M201.02 287.32L213.7 287.32"/>
<path d="M201.02 265.01L201.02 287.32"/>
<path d="M213.7 265.01L201.02 265.01"/>
<path d="M213.7 255.17L213.7 265.01"/>
<path d="M227.69 255.17L213.7 255.17"/>
<path d="M227.69 265.01L227.69 255.17"/>
<path d="M240.38 265.01L227.69 265.01"/>
<path d="M240.38 287.32L240.38 265.01"/>
<path d="M227.69 287.32L240.38 287.32"/>
<path d="M227.69 297.16L227.69 287.32"/>
<path d="M213.7 297.16L227.69 297.16"/>
<path d="M213.7 287.32L213.7 297.16"/>
<path d="M181.34 188.05L181.34 192.42"/>
<path d="M181.34 188.05L176.97 188.05"/>
<path d="M176.97 171.87L181.34 171.87"/>
<path d="M181.34 167.49L181.34 171.87"/>
<path d="M193.58 148.47L193.58 147.6"/>
<path d="M193.58 148.47L193.58 167.49"/>
<path d="M185.71 139.72L193.58 147.6"/>
<path d="M193.58 167.49L197.96 171.87"/>
<path d="M193.58 148.47L258.74 148.47"/>
<path d="M197.96 152.84L193.58 148.47"/>
<path d="M269.24 94.24L267.93 94.59M267.93 94.59L266.97 95.55M266.97 95.55L266.62 96.87"/>
<path d="M262.24 89.87L354.08 89.87"/>
<path d="M262.24 111.74L262.24 89.87"/>
<path d="M347.08 94.24L269.24 94.24"/>
<path d="M349.71 96.87L349.35 95.55M349.35 95.55L348.39 94.59M348.39 94.59L347.08 94.24"/>
<path d="M354.08 89.87L354.08 111.74"/>
<path d="M262.24 85.5L259.75 85.5"/>
<path d="M262.24 85.5L354.08 85.5"/>
<path d="M356.57 85.5L354.08 85.5"/>
<path d="M259.75 85.5L258.02 85.85M258.02 85.85L256.58 86.86"/>
<path d="M256.58 86.86L232.94 111.74"/>
<path d="M262.24 89.87L257.87 89.87"/>
<path d="M257.87 111.74L257.87 89.87"/>
<path d="M183.09 117.86L176.97 117.86"/>
<path d="M176.97 117.86L173.87 119.14M173.87 119.14L172.59 122.23"/>
<path d="M278.42 138.85L274.05 138.85"/>
<path d="M274.05 148.47L274.05 138.85"/>
<path d="M274.05 119.63L274.05 138.85"/>
<path d="M274.05 119.63L274.05 116.01"/>
<path d="M274.05 116.01L274.05 107.86"/>
<path d="M300.29 115.26L300.29 114.29"/>
<path d="M300.29 138.85L300.29 115.26"/>
<path d="M316.03 138.85L316.03 115.26"/>
<path d="M316.03 115.26L316.03 114.29"/>
<path d="M342.27 107.86L342.27 116.01"/>
<path d="M342.27 119.63L342.27 116.01"/>
<path d="M342.27 119.63L342.27 138.85"/>
<path d="M342.27 148.47L342.27 138.85"/>
<path d="M342.27 138.85L337.9 138.85"/>
<path d="M439.36 117.86L433.23 117.86"/>
<path d="M443.73 122.23L443.14 120.04M443.14 120.04L441.54 118.44M441.54 118.44L439.36 117.86"/>
<path d="M434.98 268.08L439.36 268.08"/>
<path d="M439.36 284.26L434.98 284.26"/>
<path d="M434.98 288.63L434.98 284.26"/>
<path d="M383.38 111.74L359.75 86.86"/>
<path d="M359.74 86.86L358.3 85.85M358.3 85.85L356.57 85.5"/>
<path d="M358.45 89.87L358.45 111.74"/>
<path d="M354.08 89.87L358.45 89.87"/>
<path d="M422.74 148.47L422.74 147.6"/>
<path d="M430.61 139.72L422.74 147.6"/>
<path d="M422.74 148.47L418.36 152.84"/>
<path d="M357.58 148.47L422.74 148.47"/>
<path d="M422.74 148.47L422.74 263.7"/>
<path d="M418.36 268.08L422.74 263.7"/>
<path d="M434.98 268.08L434.98 263.7"/>
<path d="M316.03 115.26L337.9 115.26"/>
<path d="M337.9 115.26L337.9 138.85"/>
<path d="M278.42 115.26L300.29 115.26"/>
<path d="M278.42 115.26L278.42 138.85"/>
<path d="M388.63 184.11L388.63 191.11"/>
<path d="M381.41 184.11L388.63 184.11"/>
<path d="M381.41 184.11L375.94 191.11"/>
<path d="M381.41 175.8L381.41 184.11"/>
<path d="M381.41 175.8L375.94 168.8"/>
<path d="M388.63 175.8L381.41 175.8"/>
<path d="M388.63 175.8L388.63 168.8"/>
<path d="M402.62 175.8L402.62 168.8"/>
<path d="M409.84 175.8L402.62 175.8"/>
<path d="M409.84 175.8L415.3 168.8"/>
<path d="M409.84 184.11L409.84 175.8"/>
<path d="M409.84 184.11L415.3 191.11"/>
<path d="M402.62 184.11L409.84 184.11"/>
<path d="M402.62 184.11L402.62 191.11"/>
<path d="M344.9 184.11L344.9 191.11"/>
<path d="M337.68 184.11L344.9 184.11"/>
<path d="M337.68 184.11L332.21 191.11"/>
<path d="M337.68 175.8L337.68 184.11"/>
<path d="M337.68 175.8L332.21 168.8"/>
<path d="M344.9 175.8L337.68 175.8"/>
<path d="M344.9 175.8L344.9 168.8"/>
<path d="M358.89 175.8L358.89 168.8"/>
<path d="M366.1 175.8L358.89 175.8"/>
<path d="M366.1 175.8L371.57 168.8"/>
<path d="M366.1 184.11L366.1 175.8"/>
<path d="M366.1 184.11L371.57 191.11"/>
<path d="M358.89 184.11L366.1 184.11"/>
<path d="M358.89 184.11L358.89 191.11"/>
<path d="M301.16 184.11L301.16 191.11"/>
<path d="M293.95 184.11L301.16 184.11"/>
<path d="M293.95 184.11L288.48 191.11"/>
<path d="M293.95 175.8L293.95 184.11"/>
<path d="M293.95 175.8L288.48 168.8"/>
<path d="M301.16 175.8L293.95 175.8"/>
<path d="M301.16 175.8L301.16 168.8"/>
<path d="M315.16 175.8L315.16 168.8"/>
<path d="M322.37 175.8L315.16 175.8"/>
<path d="M322.37 175.8L327.84 168.8"/>
<path d="M322.37 184.11L322.37 175.8"/>
<path d="M322.37 184.11L327.84 191.11"/>
<path d="M315.16 184.11L322.37 184.11"/>
<path d="M315.16 184.11L315.16 191.11"/>
<path d="M257.43 184.11L257.43 191.11"/>
<path d="M250.22 184.11L257.43 184.11"/>
<path d="M250.22 184.11L244.75 191.11"/>
<path d="M250.22 175.8L250.22 184.11"/>
<path d="M250.22 175.8L244.75 168.8"/>
<path d="M257.43 175.8L250.22 175.8"/>
<path d="M257.43 175.8L257.43 168.8"/>
<path d="M271.43 175.8L271.43 168.8"/>
<path d="M278.64 175.8L271.43 175.8"/>
<path d="M278.64 175.8L284.11 168.8"/>
<path d="M278.64 184.11L278.64 175.8"/>
<path d="M278.64 184.11L284.11 191.11"/>
<path d="M271.43 184.11L278.64 184.11"/>
<path d="M271.43 184.11L271.43 191.11"/>
<path d="M213.7 184.11L213.7 191.11"/>
<path d="M206.48 184.11L213.7 184.11"/>
<path d="M206.48 184.11L201.02 191.11"/>
<path d="M206.48 175.8L206.48 184.11"/>
<path d="M206.48 175.8L201.02 168.8"/>
<path d="M213.7 175.8L206.48 175.8"/>
<path d="M213.7 175.8L213.7 168.8"/>
<path d="M227.69 175.8L227.69 168.8"/>
<path d="M234.91 175.8L227.69 175.8"/>
<path d="M234.91 175.8L240.38 168.8"/>
<path d="M234.91 184.11L234.91 175.8"/>
<path d="M234.91 184.11L240.38 191.11"/>
<path d="M227.69 184.11L234.91 184.11"/>
<path d="M227.69 184.11L227.69 191.11"/>
<path d="M388.63 232.22L388.63 239.21"/>
<path d="M381.41 232.22L388.63 232.22"/>
<path d="M381.41 232.22L375.94 239.21"/>
<path d="M381.41 223.91L381.41 232.22"/>
<path d="M381.41 223.91L375.94 216.91"/>
<path d="M388.63 223.91L381.41 223.91"/>
<path d="M388.63 223.91L388.63 216.91"/>
<path d="M402.62 223.91L402.62 216.91"/>
<path d="M409.84 223.91L402.62 223.91"/>
<path d="M409.84 223.91L415.3 216.91"/>
<path d="M409.84 232.22L409.84 223.91"/>
<path d="M409.84 232.22L415.3 239.21"/>
<path d="M402.62 232.22L409.84 232.22"/>
<path d="M402.62 232.22L402.62 239.21"/>
<path d="M344.9 232.22L344.9 239.21"/>
<path d="M337.68 232.22L344.9 232.22"/>
<path d="M337.68 232.22L332.21 239.21"/>
<path d="M337.68 223.91L337.68 232.22"/>
<path d="M337.68 223.91L332.21 216.91"/>
<path d="M344.9 223.91L337.68 223.91"/>
<path d="M344.9 223.91L344.9 216.91"/>
<path d="M358.89 223.91L358.89 216.91"/>
<path d="M366.1 223.91L358.89 223.91"/>
<path d="M366.1 223.91L371.57 216.91"/>
<path d="M366.1 232.22L366.1 223.91"/>
<path d="M366.1 232.22L371.57 239.21"/>
<path d="M358.89 232.22L366.1 232.22"/>
<path d="M358.89 232.22L358.89 239.21"/>
<path d="M301.16 232.22L301.16 239.21"/>
<path d="M293.95 232.22L301.16 232.22"/>
<path d="M293.95 232.22L288.48 239.21"/>
<path d="M293.95 223.91L293.95 232.22"/>
<path d="M293.95 223.91L288.48 216.91"/>
<path d="M301.16 223.91L293.95 223.91"/>
<path d="M301.16 223.91L301.16 216.91"/>
<path d="M315.16 223.91L315.16 216.91"/>
<path d="M322.37 223.91L315.16 223.91"/>
<path d="M322.37 223.91L327.84 216.91"/>
<path d="M322.37 232.22L322.37 223.91"/>
<path d="M322.37 232.22L327.84 239.21"/>
<path d="M315.16 232.22L322.37 232.22"/>
<path d="M315.16 232.22L315.16 239.21"/>
<path d="M257.43 232.22L257.43 239.21"/>
<path d="M250.22 232.22L257.43 232.22"/>
<path d="M250.22 232.22L244.75 239.21"/>
<path d="M250.22 223.91L250.22 232.22"/>
<path d="M250.22 223.91L244.75 216.91"/>
<path d="M257.43 223.91L250.22 223.91"/>
<path d="M257.43 223.91L257.43 216.91"/>
<path d="M271.43 223.91L271.43 216.91"/>
<path d="M278.64 223.91L271.43 223.91"/>
<path d="M278.64 223.91L284.11 216.91"/>
<path d="M278.64 232.22L278.64 223.91"/>
<path d="M278.64 232.22L284.11 239.21"/>
<path d="M271.43 232.22L278.64 232.22"/>
<path d="M271.43 232.22L271.43 239.21"/>
<path d="M213.7 232.22L213.7 239.21"/>
<path d="M206.48 232.22L213.7 232.22"/>
<path d="M206.48 232.22L201.02 239.21"/>
<path d="M206.48 223.91L206.48 232.22"/>
<path d="M206.48 223.91L201.02 216.91"/>
<path d="M213.7 223.91L206.48 223.91"/>
<path d="M213.7 223.91L213.7 216.91"/>
<path d="M227.69 223.91L227.69 216.91"/>
<path d="M234.91 223.91L227.69 223.91"/>
<path d="M234.91 223.91L240.38 216.91"/>
<path d="M234.91 232.22L234.91 223.91"/>
<path d="M234.91 232.22L240.38 239.21"/>
<path d="M227.69 232.22L234.91 232.22"/>
<path d="M227.69 232.22L227.69 239.21"/>
<path d="M388.63 280.32L388.63 287.32"/>
<path d="M381.41 280.32L388.63 280.32"/>
<path d="M381.41 280.32L375.94 287.32"/>
<path d="M381.41 272.01L381.41 280.32"/>
<path d="M381.41 272.01L375.94 265.01"/>
<path d="M388.63 272.01L381.41 272.01"/>
<path d="M388.63 272.01L388.63 265.01"/>
<path d="M402.62 272.01L402.62 265.01"/>
<path d="M409.84 272.01L402.62 272.01"/>
<path d="M409.84 272.01L415.3 265.01"/>
<path d="M409.84 280.32L409.84 272.01"/>
<path d="M409.84 280.32L415.3 287.32"/>
<path d="M402.62 280.32L409.84 280.32"/>
<path d="M402.62 280.32L402.62 287.32"/>
<path d="M344.9 280.32L344.9 287.32"/>
<path d="M337.68 280.32L344.9 280.32"/>
<path d="M337.68 280.32L332.21 287.32"/>
<path d="M337.68 272.01L337.68 280.32"/>
<path d="M337.68 272.01L332.21 265.01"/>
<path d="M344.9 272.01L337.68 272.01"/>
<path d="M344.9 272.01L344.9 265.01"/>
<path d="M358.89 272.01L358.89 265.01"/>
<path d="M366.1 272.01L358.89 272.01"/>
<path d="M366.1 272.01L371.57 265.01"/>
<path d="M366.1 280.32L366.1 272.01"/>
<path d="M366.1 280.32L371.57 287.32"/>
<path d="M358.89 280.32L366.1 280.32"/>
<path d="M358.89 280.32L358.89 287.32"/>
<path d="M301.16 280.32L301.16 287.32"/>
<path d="M293.95 280.32L301.16 280.32"/>
<path d="M293.95 280.32L288.48 287.32"/>
<path d="M293.95 272.01L293.95 280.32"/>
<path d="M293.95 272.01L288.48 265.01"/>
<path d="M301.16 272.01L293.95 272.01"/>
<path d="M301.16 272.01L301.16 265.01"/>
<path d="M315.16 272.01L315.16 265.01"/>
<path d="M322.37 272.01L315.16 272.01"/>
<path d="M322.37 272.01L327.84 265.01"/>
<path d="M322.37 280.32L322.37 272.01"/>
<path d="M322.37 280.32L327.84 287.32"/>
<path d="M315.16 280.32L322.37 280.32"/>
<path d="M315.16 280.32L315.16 287.32"/>
<path d="M257.43 280.32L257.43 287.32"/>
<path d="M250.22 280.32L257.43 280.32"/>
<path d="M250.22 280.32L244.75 287.32"/>
<path d="M250.22 272.01L250.22 280.32"/>
<path d="M250.22 272.01L244.75 265.01"/>
<path d="M257.43 272.01L250.22 272.01"/>
<path d="M257.43 272.01L257.43 265.01"/>
<path d="M271.43 272.01L271.43 265.01"/>
<path d="M278.64 272.01L271.43 272.01"/>
<path d="M278.64 272.01L284.11 265.01"/>
<path d="M278.64 280.32L278.64 272.01"/>
<path d="M278.64 280.32L284.11 287.32"/>
<path d="M271.43 280.32L278.64 280.32"/>
<path d="M271.43 280.32L271.43 287.32"/>
<path d="M213.7 280.32L213.7 287.32"/>
<path d="M206.48 280.32L213.7 280.32"/>
<path d="M206.48 280.32L201.02 287.32"/>
<path d="M206.48 272.01L206.48 280.32"/>
<path d="M206.48 272.01L201.02 265.01"/>
<path d="M213.7 272.01L206.48 272.01"/>
<path d="M213.7 272.01L213.7 265.01"/>
<path d="M227.69 272.01L227.69 265.01"/>
<path d="M234.91 272.01L227.69 272.01"/>
<path d="M234.91 272.01L240.38 265.01"/>
<path d="M234.91 280.32L234.91 272.01"/>
<path d="M234.91 280.32L240.38 287.32"/>
<path d="M227.69 280.32L234.91 280.32"/>
<path d="M227.69 280.32L227.69 287.32"/>
<path d="M262.24 89.87L262.24 85.5"/>
<path d="M354.08 89.87L354.08 85.5"/>
<path d="M262.24 85.5L260.06 86.08M260.06 86.08L258.46 87.68M258.46 87.68L257.87 89.87"/>
<path d="M358.45 89.87L357.87 87.68M357.87 87.68L356.27 86.08M356.27 86.08L354.08 85.5"/>
<path d="M278.42 115.26L276.24 115.84M276.24 115.84L274.64 117.44M274.64 117.44L274.05 119.63"/>
<path d="M278.42 111.66L275.33 112.93M275.33 112.93L274.05 116.01"/>
<path d="M278.42 115.26L278.42 111.66"/>
<path d="M278.42 103.47L275.33 104.76M275.33 104.76L274.05 107.86"/>
<path d="M278.42 111.66L278.42 103.47"/>
<path d="M316.03 127.43L314.56 127.23M314.56 127.23L310.69 127.1M310.69 127.1L305.88 127.1M305.88 127.1L301.92 127.22M301.92 127.22L300.29 127.42"/>
<path d="M316.03 114.29L314.53 114.09M314.53 114.09L310.59 113.97M310.59 113.97L305.73 113.97M305.73 113.97L301.79 114.09M301.79 114.09L300.29 114.29"/>
<path d="M337.9 115.26L337.9 111.66"/>
<path d="M278.42 111.66L291.54 111.66"/>
<path d="M324.78 111.66L337.9 111.66"/>
<path d="M291.54 113.6L324.78 113.6"/>
<path d="M342.27 107.86L340.99 104.76M340.99 104.76L337.9 103.47"/>
<path d="M337.9 103.47L337.9 111.66"/>
<path d="M342.27 116.01L340.99 112.93M340.99 112.93L337.9 111.66"/>
<path d="M342.27 119.63L340.99 116.54M340.99 116.54L337.9 115.26"/>
<path d="M278.42 103.47L291.54 103.47"/>
<path d="M324.78 103.47L337.9 103.47"/>
<path d="M291.54 102.11L291.54 113.6"/>
<path d="M324.78 102.11L324.78 113.6"/>
<path d="M291.54 102.11L324.78 102.11"/>
<path d="M299.41 320.77L316.91 320.77"/>
<path d="M316.91 320.77L316.91 320.77"/>
<path d="M125.48 162.57L127.76 161.43M127.76 161.43L131.18 158M131.18 158L131.18 181.97M146.02 158L158.57 158M158.57 158L151.72 167.13M151.72 167.13L155.15 167.13M155.15 167.13L157.43 168.27M157.43 168.27L158.57 169.42M158.57 169.42L159.71 172.84M159.71 172.84L159.71 175.12M159.71 175.12L158.57 178.54M158.57 178.54L156.29 180.83M156.29 180.83L152.86 181.97M152.86 181.97L149.44 181.97M149.44 181.97L146.02 180.83M146.02 180.83L144.88 179.69M144.88 179.69L143.73 177.4"/>
<path d="M455.91 158.16L458.2 157.02M458.2 157.02L461.62 153.6M461.62 153.6L461.62 177.55"/>
<path d="M461.28 272.17L473.82 272.17M473.82 272.17L466.98 281.3M466.98 281.3L470.4 281.3M470.4 281.3L472.68 282.44M472.68 282.44L473.82 283.58M473.82 283.58L474.96 287M474.96 287L474.96 289.28M474.96 289.28L473.82 292.7M473.82 292.7L471.54 294.98M471.54 294.98L468.12 296.12M468.12 296.12L464.7 296.12M464.7 296.12L461.28 294.98M461.28 294.98L460.14 293.84M460.14 293.84L458.99 291.56"/>
<path d="M125.04 272.33L127.32 271.19M127.32 271.19L130.74 267.77M130.74 267.77L130.74 291.73M156.99 267.77L145.58 267.77M145.58 267.77L144.44 278.04M144.44 278.04L145.58 276.9M145.58 276.9L149 275.76M149 275.76L152.43 275.76M152.43 275.76L155.85 276.9M155.85 276.9L158.13 279.18M158.13 279.18L159.27 282.6M159.27 282.6L159.27 284.89M159.27 284.89L158.13 288.31M158.13 288.31L155.85 290.59M155.85 290.59L152.43 291.73M152.43 291.73L149 291.73M149 291.73L145.58 290.59M145.58 290.59L144.44 289.45M144.44 289.45L143.3 287.17"/>
</g>
</g>
</svg>
