<?xml version="1.0" standalone="no"?><svg xmlns="http://www.w3.org/2000/svg" width="600.000" height="450.000" viewBox="0.0 0.0 600.000 450.000" version="1.1">
<title>Acme Converter - Post-processed with EDS-Designer: 14.44 (info@symca.com)</title>
<desc>Acme Converter - Post-processed with EDS-Designer: 14.44 (info@symca.com)</desc>
<g id="EDS_STYLE_GROUP" fill="none" stroke="black" stroke-width="1.0">
<g id="0" display="visible">
<path d="M266.92 355.93L268.03 359.26M268.03 359.26L268.03 352.61M268.03 352.61L266.92 355.93M266.92 355.93L264.71 353.71M264.71 353.71L261.38 352.61M261.38 352.61L259.16 352.61M259.16 352.61L255.84 353.71M255.84 353.71L253.62 355.93M253.62 355.93L252.51 358.15M252.51 358.15L251.41 361.47M251.41 361.47L251.41 367.01M251.41 367.01L252.51 370.34M252.51 370.34L253.62 372.56M253.62 372.56L255.84 374.77M255.84 374.77L259.16 375.88M259.16 375.88L261.38 375.88M261.38 375.88L264.71 374.77M264.71 374.77L266.92 372.56M259.16 352.61L256.95 353.71M256.95 353.71L254.73 355.93M254.73 355.93L253.62 358.15M253.62 358.15L252.51 361.47M252.51 361.47L252.51 367.01M252.51 367.01L253.62 370.34M253.62 370.34L254.73 372.56M254.73 372.56L256.95 374.77M256.95 374.77L259.16 375.88M266.92 367.01L266.92 375.88M268.03 367.01L268.03 375.88M263.6 367.01L271.36 367.01M280.22 375.88L280.22 352.61M281.33 352.61L281.33 375.88M276.9 352.61L290.2 352.61M290.2 352.61L293.52 353.71M293.52 353.71L294.63 354.82M294.63 354.82L295.74 357.04M295.74 357.04L295.74 359.26M295.74 359.26L294.63 361.47M294.63 361.47L293.52 362.58M293.52 362.58L290.2 363.69M290.2 363.69L281.33 363.69M290.2 352.61L292.42 353.71M292.42 353.71L293.52 354.82M293.52 354.82L294.63 357.04M294.63 357.04L294.63 359.26M294.63 359.26L293.52 361.47M293.52 361.47L292.42 362.58M292.42 362.58L290.2 363.69M276.9 375.88L284.66 375.88M286.87 363.69L289.09 364.8M289.09 364.8L290.2 365.91M290.2 365.91L293.52 373.66M293.52 373.66L294.63 374.77M294.63 374.77L295.74 374.77M295.74 374.77L296.85 373.66M289.09 364.8L290.2 367.01M290.2 367.01L292.42 374.77M292.42 374.77L293.52 375.88M293.52 375.88L295.74 375.88M295.74 375.88L296.85 373.66M296.85 373.66L296.85 372.56M311.26 352.61L303.5 375.88M311.26 352.61L319.02 375.88M311.26 355.93L317.91 375.88M305.72 369.23L315.69 369.23M301.28 375.88L307.93 375.88M314.58 375.88L321.23 375.88M326.78 352.61L334.53 364.8M334.53 364.8L334.53 375.88M327.88 352.61L335.64 364.8M335.64 364.8L335.64 375.88M343.4 352.61L335.64 364.8M324.56 352.61L331.21 352.61M338.97 352.61L345.62 352.61M331.21 375.88L338.97 375.88"/>
<path d="M571.68 134.24L573.45 133.35M573.45 133.35L576.11 130.69M576.11 130.69L576.11 149.31"/>
<path d="M4.14 194.61L5.91 193.72M5.91 193.72L8.57 191.06M8.57 191.06L8.57 209.68M19.21 195.5L19.21 194.61M19.21 194.61L20.1 192.84M20.1 192.84L20.98 191.95M20.98 191.95L22.76 191.06M22.76 191.06L26.3 191.06M26.3 191.06L28.08 191.95M28.08 191.95L28.96 192.84M28.96 192.84L29.85 194.61M29.85 194.61L29.85 196.38M29.85 196.38L28.96 198.16M28.96 198.16L27.19 200.82M27.19 200.82L18.32 209.68M18.32 209.68L30.74 209.68"/>
<path d="M571.48 218.33L573.25 217.44M573.25 217.44L575.91 214.78M575.91 214.78L575.91 233.4M587.44 214.78L597.19 214.78M597.19 214.78L591.87 221.88M591.87 221.88L594.53 221.88M594.53 221.88L596.31 222.76M596.31 222.76L597.19 223.65M597.19 223.65L598.08 226.31M598.08 226.31L598.08 228.08M598.08 228.08L597.19 230.74M597.19 230.74L595.42 232.52M595.42 232.52L592.76 233.4M592.76 233.4L590.1 233.4M590.1 233.4L587.44 232.52M587.44 232.52L586.55 231.63M586.55 231.63L585.67 229.86"/>
<path d="M2.81 231.39L2.81 230.5M2.81 230.5L3.69 228.73M3.69 228.73L4.58 227.84M4.58 227.84L6.35 226.96M6.35 226.96L9.9 226.96M9.9 226.96L11.67 227.84M11.67 227.84L12.56 228.73M12.56 228.73L13.45 230.5M13.45 230.5L13.45 232.28M13.45 232.28L12.56 234.05M12.56 234.05L10.79 236.71M10.79 236.71L1.92 245.58M1.92 245.58L14.33 245.58M28.52 226.96L19.65 239.37M19.65 239.37L32.95 239.37M28.52 226.96L28.52 245.58"/>
<path d="M44.65 118.3L44.65 171.6"/>
<path d="M44.65 319.47L44.65 274.93"/>
<path d="M45.74 282.23L45.74 171.6"/>
<path d="M48.3 273.1L48.3 285.88"/>
<path d="M48.3 161.74L48.3 150.42"/>
<path d="M49.4 176.35L49.4 187.3"/>
<path d="M49.4 200.08L49.4 245.72"/>
<path d="M49.4 258.13L49.4 269.45"/>
<path d="M50.86 118.3L50.86 150.42"/>
<path d="M50.86 304.5L50.86 319.47"/>
<path d="M54.51 323.12L54.51 329.33"/>
<path d="M54.51 114.64L54.51 108.07"/>
<path d="M57.43 187.3L57.43 200.08"/>
<path d="M57.43 245.72L57.43 258.13"/>
<path d="M57.43 282.23L57.43 273.1"/>
<path d="M57.43 172.7L57.43 167.22"/>
<path d="M59.98 169.78L59.98 184.75"/>
<path d="M59.98 249.37L59.98 263.97"/>
<path d="M61.08 169.78L61.08 163.57"/>
<path d="M62.17 273.1L62.17 274.93"/>
<path d="M62.17 163.57L62.17 161.74"/>
<path d="M64.73 300.49L64.73 285.88"/>
<path d="M65.83 220.16L65.83 247.54"/>
<path d="M65.83 216.14L65.83 188.76"/>
<path d="M69.84 161.74L69.84 163.57"/>
<path d="M69.84 274.93L69.84 273.1"/>
<path d="M91.38 249L91.38 253.39"/>
<path d="M74.22 237.69L74.22 198.98"/>
<path d="M74.95 263.97L74.95 249.37"/>
<path d="M74.95 184.75L74.95 169.78"/>
<path d="M76.41 229.29L76.41 207.02"/>
<path d="M77.14 161.74L77.14 163.57"/>
<path d="M77.14 274.93L77.14 273.1"/>
<path d="M78.97 257.77L78.97 249"/>
<path d="M78.97 187.67L78.97 178.54"/>
<path d="M81.16 257.77L81.16 249"/>
<path d="M81.16 187.67L81.16 178.54"/>
<path d="M82.62 174.89L82.62 177.44"/>
<path d="M82.62 261.42L82.62 258.86"/>
<path d="M84.45 161.74L84.45 163.57"/>
<path d="M84.45 274.93L84.45 273.1"/>
<path d="M87 253.75L87 249"/>
<path d="M87 187.67L87 182.92"/>
<path d="M87 236.59L87 231.48"/>
<path d="M87 204.83L87 199.71"/>
<path d="M88.1 184.75L88.1 182.55"/>
<path d="M88.1 251.56L88.1 253.75"/>
<path d="M90.65 185.11L90.65 182.55"/>
<path d="M91.38 174.89L91.38 177.44"/>
<path d="M91.38 261.42L91.38 258.86"/>
<path d="M91.38 238.78L91.38 236.59"/>
<path d="M91.38 199.71L91.38 197.52"/>
<path d="M91.38 161.74L91.38 163.57"/>
<path d="M91.38 182.55L91.38 183.28"/>
<path d="M91.38 274.93L91.38 273.1"/>
<path d="M91.38 253.75L91.38 253.39"/>
<path d="M92.48 178.54L92.48 187.67"/>
<path d="M92.48 249L92.48 257.77"/>
<path d="M91.38 187.67L91.38 183.28"/>
<path d="M88.1 185.11L87.37 187.67"/>
<path d="M88.1 251.56L87.37 249"/>
<path d="M95.03 178.54L95.03 187.67"/>
<path d="M95.03 249L95.03 257.77"/>
<path d="M95.76 238.78L95.76 247.54"/>
<path d="M95.76 197.52L95.76 188.76"/>
<path d="M96.13 199.71L96.13 216.14"/>
<path d="M96.13 236.59L96.13 220.53"/>
<path d="M96.86 199.71L96.86 216.14"/>
<path d="M96.86 236.59L96.86 220.53"/>
<path d="M97.22 238.78L97.22 247.54"/>
<path d="M97.22 197.52L97.22 188.76"/>
<path d="M101.61 161.74L101.61 163.57"/>
<path d="M101.61 274.93L101.61 273.1"/>
<path d="M101.61 197.52L101.61 199.71"/>
<path d="M101.61 236.59L101.61 238.78"/>
<path d="M105.99 199.71L105.99 204.83"/>
<path d="M105.99 231.48L105.99 236.59"/>
<path d="M108.54 161.74L108.54 163.57"/>
<path d="M108.54 274.93L108.54 273.1"/>
<path d="M110.37 257.77L110.37 249"/>
<path d="M110.37 187.67L110.37 178.54"/>
<path d="M122.78 249L122.78 253.39"/>
<path d="M112.92 257.77L112.92 249"/>
<path d="M112.92 187.67L112.92 178.54"/>
<path d="M114.02 174.89L114.02 177.44"/>
<path d="M114.02 261.42L114.02 258.86"/>
<path d="M115.85 161.74L115.85 163.57"/>
<path d="M115.85 274.93L115.85 273.1"/>
<path d="M118.4 253.75L118.4 249"/>
<path d="M118.4 187.67L118.4 182.92"/>
<path d="M118.4 236.59L118.4 231.48"/>
<path d="M118.4 204.83L118.4 199.71"/>
<path d="M119.5 184.75L119.5 182.55"/>
<path d="M119.5 251.56L119.5 253.75"/>
<path d="M122.42 185.11L122.42 182.55"/>
<path d="M122.78 174.89L122.78 177.44"/>
<path d="M122.78 261.42L122.78 258.86"/>
<path d="M122.78 238.78L122.78 236.59"/>
<path d="M122.78 199.71L122.78 197.52"/>
<path d="M123.15 161.74L123.15 163.57"/>
<path d="M123.15 182.55L123.15 183.28"/>
<path d="M123.15 274.93L123.15 273.1"/>
<path d="M123.15 253.75L123.15 253.39"/>
<path d="M124.24 178.54L124.24 187.67"/>
<path d="M124.24 249L124.24 257.77"/>
<path d="M126.43 178.54L126.43 187.67"/>
<path d="M126.43 249L126.43 257.77"/>
<path d="M127.16 238.78L127.16 247.54"/>
<path d="M127.16 197.52L127.16 188.76"/>
<path d="M127.53 199.71L127.53 216.14"/>
<path d="M127.53 236.59L127.53 220.53"/>
<path d="M128.62 199.71L128.62 216.14"/>
<path d="M128.62 236.59L128.62 220.53"/>
<path d="M128.99 238.78L128.99 247.54"/>
<path d="M128.99 197.52L128.99 188.76"/>
<path d="M122.78 187.67L122.78 183.28"/>
<path d="M119.5 185.11L119.13 187.67"/>
<path d="M87 238.78L95.76 247.54"/>
<path d="M74.22 229.29L65.83 220.16"/>
<path d="M119.5 251.56L119.13 249"/>
<path d="M133.01 161.74L133.01 163.57"/>
<path d="M133.01 274.93L133.01 273.1"/>
<path d="M133.37 197.52L133.37 199.71"/>
<path d="M133.37 236.59L133.37 238.78"/>
<path d="M137.39 199.71L137.39 204.83"/>
<path d="M137.39 231.48L137.39 236.59"/>
<path d="M139.94 161.74L139.94 163.57"/>
<path d="M139.94 274.93L139.94 273.1"/>
<path d="M142.13 257.77L142.13 249"/>
<path d="M142.13 187.67L142.13 178.54"/>
<path d="M144.32 257.77L144.32 249"/>
<path d="M144.32 187.67L144.32 178.54"/>
<path d="M145.78 174.89L145.78 177.44"/>
<path d="M145.78 261.42L145.78 258.86"/>
<path d="M147.61 161.74L147.61 163.57"/>
<path d="M147.61 274.93L147.61 273.1"/>
<path d="M65.83 216.14L74.22 207.38"/>
<path d="M87 197.52L95.76 188.76"/>
<path d="M106.72 230.02L96.86 220.53"/>
<path d="M86.27 206.65L96.13 216.14"/>
<path d="M74.59 197.89L65.83 188.76"/>
<path d="M118.4 238.78L127.16 247.54"/>
<path d="M151.26 251.56L150.53 249"/>
<path d="M154.18 249L154.18 253.39"/>
<path d="M150.17 253.75L150.17 249"/>
<path d="M150.17 187.67L150.17 182.92"/>
<path d="M150.17 236.59L150.17 231.48"/>
<path d="M150.17 204.83L150.17 199.71"/>
<path d="M151.26 184.75L151.26 182.55"/>
<path d="M151.26 251.56L151.26 253.75"/>
<path d="M153.82 185.11L153.82 182.55"/>
<path d="M154.18 174.89L154.18 177.44"/>
<path d="M154.18 261.42L154.18 258.86"/>
<path d="M154.18 238.78L154.18 236.59"/>
<path d="M154.18 199.71L154.18 197.52"/>
<path d="M154.55 161.74L154.55 163.57"/>
<path d="M154.55 182.55L154.55 183.28"/>
<path d="M154.55 274.93L154.55 273.1"/>
<path d="M154.55 253.75L154.55 253.39"/>
<path d="M155.64 178.54L155.64 187.67"/>
<path d="M155.64 249L155.64 257.77"/>
<path d="M157.83 178.54L157.83 187.67"/>
<path d="M157.83 249L157.83 257.77"/>
<path d="M158.93 238.78L158.93 247.54"/>
<path d="M158.93 197.52L158.93 188.76"/>
<path d="M158.93 199.71L158.93 216.14"/>
<path d="M158.93 236.59L158.93 220.53"/>
<path d="M160.02 199.71L160.02 216.14"/>
<path d="M160.02 236.59L160.02 220.53"/>
<path d="M160.39 238.78L160.39 247.54"/>
<path d="M160.39 197.52L160.39 188.76"/>
<path d="M164.41 161.74L164.41 163.57"/>
<path d="M164.41 274.93L164.41 273.1"/>
<path d="M164.77 197.52L164.77 199.71"/>
<path d="M164.77 236.59L164.77 238.78"/>
<path d="M154.18 187.67L154.18 183.28"/>
<path d="M151.26 185.11L150.53 187.67"/>
<path d="M74.59 238.42L65.83 247.54"/>
<path d="M118.4 197.52L127.16 188.76"/>
<path d="M215.52 90.91L206.76 99.67"/>
<path d="M106.72 206.65L96.86 216.14"/>
<path d="M138.12 230.02L128.62 220.53"/>
<path d="M117.67 206.65L127.53 216.14"/>
<path d="M105.99 197.52L97.22 188.76"/>
<path d="M150.17 238.78L158.93 247.54"/>
<path d="M185.95 249L185.95 253.39"/>
<path d="M169.15 199.71L169.15 204.83"/>
<path d="M169.15 231.48L169.15 236.59"/>
<path d="M170.98 285.88L170.98 307.06"/>
<path d="M171.71 161.74L171.71 163.57"/>
<path d="M171.71 274.93L171.71 273.1"/>
<path d="M173.53 257.77L173.53 249"/>
<path d="M173.53 187.67L173.53 178.54"/>
<path d="M175.72 257.77L175.72 249"/>
<path d="M175.72 187.67L175.72 178.54"/>
<path d="M177.18 174.89L177.18 177.44"/>
<path d="M177.18 261.42L177.18 258.86"/>
<path d="M179.01 161.74L179.01 163.57"/>
<path d="M179.01 274.93L179.01 273.1"/>
<path d="M181.57 253.75L181.57 249"/>
<path d="M181.57 187.67L181.57 182.92"/>
<path d="M181.57 236.59L181.57 231.48"/>
<path d="M181.57 204.83L181.57 199.71"/>
<path d="M182.66 184.75L182.66 182.55"/>
<path d="M182.66 251.56L182.66 253.75"/>
<path d="M185.22 185.11L185.22 182.55"/>
<path d="M185.95 174.89L185.95 177.44"/>
<path d="M185.95 261.42L185.95 258.86"/>
<path d="M185.95 238.78L185.95 236.59"/>
<path d="M185.95 199.71L185.95 197.52"/>
<path d="M185.95 161.74L185.95 163.57"/>
<path d="M185.95 182.55L185.95 183.28"/>
<path d="M185.95 274.93L185.95 273.1"/>
<path d="M185.95 253.75L185.95 253.39"/>
<path d="M187.04 178.54L187.04 187.67"/>
<path d="M187.04 249L187.04 257.77"/>
<path d="M185.95 187.67L185.95 183.28"/>
<path d="M182.66 185.11L182.3 187.67"/>
<path d="M105.99 238.78L97.22 247.54"/>
<path d="M86.27 230.02L96.13 220.53"/>
<path d="M54.51 329.33L541.93 329.33"/>
<path d="M54.51 323.12L541.93 323.12"/>
<path d="M50.86 319.47L44.65 319.47"/>
<path d="M545.95 319.47L552.15 319.47"/>
<path d="M137.39 197.52L128.99 188.76"/>
<path d="M182.66 251.56L182.3 249"/>
<path d="M189.6 150.42L189.6 109.9"/>
<path d="M189.6 178.54L189.6 187.67"/>
<path d="M189.6 249L189.6 257.77"/>
<path d="M189.96 285.88L189.96 307.06"/>
<path d="M190.33 238.78L190.33 247.54"/>
<path d="M190.33 197.52L190.33 188.76"/>
<path d="M190.69 199.71L190.69 216.14"/>
<path d="M190.69 236.59L190.69 220.53"/>
<path d="M191.79 199.71L191.79 216.14"/>
<path d="M191.79 236.59L191.79 220.53"/>
<path d="M191.79 150.42L191.79 110.99"/>
<path d="M191.79 238.78L191.79 247.54"/>
<path d="M191.79 197.52L191.79 188.76"/>
<path d="M192.88 108.07L192.88 110.99"/>
<path d="M194.71 106.25L194.71 83.61"/>
<path d="M196.17 161.74L196.17 163.57"/>
<path d="M196.17 274.93L196.17 273.1"/>
<path d="M196.54 197.52L196.54 199.71"/>
<path d="M196.54 236.59L196.54 238.78"/>
<path d="M197.27 106.25L197.27 80.69"/>
<path d="M198.73 137.28L198.73 117.56"/>
<path d="M200.55 199.71L200.55 204.83"/>
<path d="M200.55 231.48L200.55 236.59"/>
<path d="M203.11 161.74L203.11 163.57"/>
<path d="M203.11 274.93L203.11 273.1"/>
<path d="M203.47 105.88L203.47 112.09"/>
<path d="M204.2 117.56L204.2 137.28"/>
<path d="M204.93 257.77L204.93 249"/>
<path d="M204.93 187.67L204.93 178.54"/>
<path d="M150.17 197.52L158.93 188.76"/>
<path d="M138.12 206.65L128.62 216.14"/>
<path d="M117.67 230.02L127.53 220.53"/>
<path d="M174.99 310.71L185.95 310.71"/>
<path d="M48.3 304.5L61.08 304.5"/>
<path d="M536.09 304.5L548.5 304.5"/>
<path d="M169.88 230.02L160.02 220.53"/>
<path d="M149.44 206.65L158.93 216.14"/>
<path d="M181.57 238.78L190.33 247.54"/>
<path d="M217.35 249L217.35 253.39"/>
<path d="M206.76 84.7L206.76 99.67"/>
<path d="M206.76 117.56L206.76 137.28"/>
<path d="M207.49 257.77L207.49 249"/>
<path d="M207.49 187.67L207.49 178.54"/>
<path d="M208.58 174.89L208.58 177.44"/>
<path d="M208.58 261.42L208.58 258.86"/>
<path d="M210.41 161.74L210.41 163.57"/>
<path d="M210.41 274.93L210.41 273.1"/>
<path d="M211.14 143.12L211.14 137.28"/>
<path d="M211.5 229.29L211.5 207.02"/>
<path d="M213.33 253.75L213.33 249"/>
<path d="M213.33 187.67L213.33 182.92"/>
<path d="M213.33 198.98L213.33 237.69"/>
<path d="M214.43 184.75L214.43 182.55"/>
<path d="M214.43 251.56L214.43 253.75"/>
<path d="M216.25 97.12L216.25 99.67"/>
<path d="M216.25 117.56L216.25 143.12"/>
<path d="M216.98 185.11L216.98 182.55"/>
<path d="M217.35 174.89L217.35 177.44"/>
<path d="M217.35 261.42L217.35 258.86"/>
<path d="M217.71 161.74L217.71 163.57"/>
<path d="M217.71 182.55L217.71 183.28"/>
<path d="M217.71 274.93L217.71 273.1"/>
<path d="M217.71 253.75L217.71 253.39"/>
<path d="M218.81 178.54L218.81 187.67"/>
<path d="M218.81 249L218.81 257.77"/>
<path d="M219.9 99.67L219.9 93.47"/>
<path d="M221 178.54L221 187.67"/>
<path d="M221 249L221 257.77"/>
<path d="M221.73 247.54L221.73 188.76"/>
<path d="M223.55 247.54L223.55 188.76"/>
<path d="M225.01 83.61L225.01 90.91"/>
<path d="M217.35 187.67L217.35 183.28"/>
<path d="M214.43 185.11L213.7 187.67"/>
<path d="M137.39 238.78L128.99 247.54"/>
<path d="M181.57 197.52L190.33 188.76"/>
<path d="M169.88 206.65L160.02 216.14"/>
<path d="M149.44 230.02L158.93 220.53"/>
<path d="M532.44 289.53L348.42 289.53"/>
<path d="M272.48 289.53L189.96 289.53"/>
<path d="M170.98 289.53L64.73 289.53"/>
<path d="M48.3 285.88L548.5 285.88"/>
<path d="M44.65 282.23L552.15 282.23"/>
<path d="M44.65 274.93L45.74 274.93"/>
<path d="M57.43 274.93L552.15 274.93"/>
<path d="M201.28 230.02L191.79 220.53"/>
<path d="M180.84 206.65L190.69 216.14"/>
<path d="M169.15 197.52L160.39 188.76"/>
<path d="M212.97 238.42L221.73 247.54"/>
<path d="M214.43 251.56L213.7 249"/>
<path d="M227.57 161.74L227.57 163.57"/>
<path d="M227.57 274.93L227.57 273.1"/>
<path d="M230.13 93.47L230.13 82.88"/>
<path d="M231.95 198.98L231.95 237.69"/>
<path d="M233.78 93.47L233.78 78.86"/>
<path d="M234.14 229.29L234.14 207.02"/>
<path d="M234.87 161.74L234.87 163.57"/>
<path d="M234.87 274.93L234.87 273.1"/>
<path d="M236.7 257.77L236.7 249"/>
<path d="M236.7 187.67L236.7 178.54"/>
<path d="M238.89 257.77L238.89 249"/>
<path d="M238.89 187.67L238.89 178.54"/>
<path d="M240.35 174.89L240.35 177.44"/>
<path d="M240.35 261.42L240.35 258.86"/>
<path d="M242.17 161.74L242.17 163.57"/>
<path d="M242.17 274.93L242.17 273.1"/>
<path d="M243.63 143.12L243.63 93.47"/>
<path d="M245.83 185.11L245.09 187.67"/>
<path d="M169.15 238.78L160.39 247.54"/>
<path d="M212.97 197.89L221.73 188.76"/>
<path d="M303.51 93.47L300.96 96.02"/>
<path d="M322.13 83.61L324.32 80.69"/>
<path d="M201.28 206.65L191.79 216.14"/>
<path d="M180.84 230.02L190.69 220.53"/>
<path d="M45.74 273.1L551.06 273.1"/>
<path d="M49.4 269.45L547.41 269.45"/>
<path d="M380.55 269.09L433.86 269.09"/>
<path d="M434.95 269.09L534.26 269.09"/>
<path d="M59.98 263.97L74.95 263.97"/>
<path d="M375.07 261.42L366.31 261.42"/>
<path d="M343.67 261.42L334.91 261.42"/>
<path d="M311.91 261.42L303.51 261.42"/>
<path d="M280.51 261.42L271.75 261.42"/>
<path d="M249.11 261.42L240.35 261.42"/>
<path d="M217.35 261.42L208.58 261.42"/>
<path d="M185.95 261.42L177.18 261.42"/>
<path d="M154.18 261.42L145.78 261.42"/>
<path d="M122.78 261.42L114.02 261.42"/>
<path d="M91.38 261.42L82.62 261.42"/>
<path d="M375.07 258.86L366.31 258.86"/>
<path d="M343.67 258.86L334.91 258.86"/>
<path d="M311.91 258.86L303.51 258.86"/>
<path d="M280.51 258.86L271.75 258.86"/>
<path d="M249.11 258.86L240.35 258.86"/>
<path d="M217.35 258.86L208.58 258.86"/>
<path d="M185.95 258.86L177.18 258.86"/>
<path d="M154.18 258.86L145.78 258.86"/>
<path d="M122.78 258.86L114.02 258.86"/>
<path d="M91.38 258.86L82.62 258.86"/>
<path d="M45.74 258.13L57.43 258.13"/>
<path d="M539.37 258.13L551.06 258.13"/>
<path d="M378.73 257.77L376.53 257.77"/>
<path d="M347.33 257.77L344.77 257.77"/>
<path d="M315.56 257.77L313.37 257.77"/>
<path d="M284.16 257.77L281.97 257.77"/>
<path d="M252.76 257.77L250.21 257.77"/>
<path d="M221 257.77L218.81 257.77"/>
<path d="M189.6 257.77L187.04 257.77"/>
<path d="M157.83 257.77L155.64 257.77"/>
<path d="M78.97 257.77L81.16 257.77"/>
<path d="M110.37 257.77L112.92 257.77"/>
<path d="M142.13 257.77L144.32 257.77"/>
<path d="M173.53 257.77L175.72 257.77"/>
<path d="M204.93 257.77L207.49 257.77"/>
<path d="M236.7 257.77L238.89 257.77"/>
<path d="M268.1 257.77L270.65 257.77"/>
<path d="M299.86 257.77L302.05 257.77"/>
<path d="M331.26 257.77L333.45 257.77"/>
<path d="M362.66 257.77L365.22 257.77"/>
<path d="M126.43 257.77L124.24 257.77"/>
<path d="M95.03 257.77L92.48 257.77"/>
<path d="M200.55 197.52L191.79 188.76"/>
<path d="M244.73 238.78L253.49 247.54"/>
<path d="M245.83 251.56L245.09 249"/>
<path d="M249.11 249L249.11 253.39"/>
<path d="M244.73 253.75L244.73 249"/>
<path d="M244.73 187.67L244.73 182.92"/>
<path d="M244.73 236.59L244.73 231.48"/>
<path d="M244.73 204.83L244.73 199.71"/>
<path d="M245.83 184.75L245.83 182.55"/>
<path d="M245.83 251.56L245.83 253.75"/>
<path d="M246.19 139.11L246.19 91.64"/>
<path d="M248.02 185.11L248.02 182.55"/>
<path d="M249.11 174.89L249.11 177.44"/>
<path d="M249.11 261.42L249.11 258.86"/>
<path d="M249.11 238.78L249.11 236.59"/>
<path d="M249.11 199.71L249.11 197.52"/>
<path d="M249.11 161.74L249.11 163.57"/>
<path d="M249.11 182.55L249.11 183.28"/>
<path d="M249.11 274.93L249.11 273.1"/>
<path d="M249.11 253.75L249.11 253.39"/>
<path d="M249.84 129.61L249.84 143.12"/>
<path d="M250.21 178.54L250.21 187.67"/>
<path d="M250.21 249L250.21 257.77"/>
<path d="M250.94 78.86L250.94 74.12"/>
<path d="M252.4 96.02L252.4 114.64"/>
<path d="M252.76 178.54L252.76 187.67"/>
<path d="M252.76 249L252.76 257.77"/>
<path d="M253.49 238.78L253.49 247.54"/>
<path d="M253.49 197.52L253.49 188.76"/>
<path d="M253.86 199.71L253.86 216.14"/>
<path d="M253.86 236.59L253.86 220.53"/>
<path d="M254.59 199.71L254.59 216.14"/>
<path d="M254.59 236.59L254.59 220.53"/>
<path d="M254.95 238.78L254.95 247.54"/>
<path d="M254.95 197.52L254.95 188.76"/>
<path d="M259.33 161.74L259.33 163.57"/>
<path d="M259.33 274.93L259.33 273.1"/>
<path d="M259.33 197.52L259.33 199.71"/>
<path d="M259.33 236.59L259.33 238.78"/>
<path d="M249.11 187.67L249.11 183.28"/>
<path d="M200.55 238.78L191.79 247.54"/>
<path d="M244.73 197.52L253.49 188.76"/>
<path d="M534.26 254.12L434.95 254.12"/>
<path d="M433.86 254.12L380.55 254.12"/>
<path d="M81.16 253.75L92.48 253.75"/>
<path d="M112.92 253.75L124.24 253.75"/>
<path d="M144.32 253.75L155.64 253.75"/>
<path d="M175.72 253.75L187.04 253.75"/>
<path d="M207.49 253.75L218.81 253.75"/>
<path d="M238.89 253.75L250.21 253.75"/>
<path d="M270.65 253.75L281.97 253.75"/>
<path d="M302.05 253.75L313.37 253.75"/>
<path d="M333.45 253.75L344.77 253.75"/>
<path d="M365.22 253.75L376.53 253.75"/>
<path d="M370.69 253.75L365.22 253.75"/>
<path d="M339.29 253.75L333.45 253.75"/>
<path d="M307.89 253.75L302.05 253.75"/>
<path d="M276.13 253.75L270.65 253.75"/>
<path d="M244.73 253.75L238.89 253.75"/>
<path d="M213.33 253.75L207.49 253.75"/>
<path d="M181.57 253.75L175.72 253.75"/>
<path d="M150.17 253.75L144.32 253.75"/>
<path d="M118.4 253.75L112.92 253.75"/>
<path d="M87 253.75L81.16 253.75"/>
<path d="M92.48 253.39L91.38 253.39"/>
<path d="M122.78 253.39L124.24 253.39"/>
<path d="M154.18 253.39L155.64 253.39"/>
<path d="M185.95 253.39L187.04 253.39"/>
<path d="M217.35 253.39L218.81 253.39"/>
<path d="M249.11 253.39L250.21 253.39"/>
<path d="M280.51 253.39L281.97 253.39"/>
<path d="M311.91 253.39L313.37 253.39"/>
<path d="M343.67 253.39L344.77 253.39"/>
<path d="M375.07 253.39L376.53 253.39"/>
<path d="M81.16 251.93L87 251.93"/>
<path d="M112.92 251.93L118.4 251.93"/>
<path d="M144.32 251.93L150.17 251.93"/>
<path d="M175.72 251.93L181.57 251.93"/>
<path d="M207.49 251.93L213.33 251.93"/>
<path d="M238.89 251.93L244.73 251.93"/>
<path d="M270.65 251.93L276.13 251.93"/>
<path d="M302.05 251.93L307.89 251.93"/>
<path d="M333.45 251.93L339.29 251.93"/>
<path d="M365.22 251.93L370.69 251.93"/>
<path d="M516.74 251.93L396.25 251.93"/>
<path d="M414.51 251.2L397.71 251.2"/>
<path d="M441.89 251.2L489.72 251.2"/>
<path d="M74.95 249.37L59.98 249.37"/>
<path d="M78.97 249L95.03 249"/>
<path d="M110.37 249L126.43 249"/>
<path d="M142.13 249L157.83 249"/>
<path d="M173.53 249L189.6 249"/>
<path d="M204.93 249L221 249"/>
<path d="M236.7 249L252.76 249"/>
<path d="M268.1 249L284.16 249"/>
<path d="M299.86 249L315.56 249"/>
<path d="M331.26 249L347.33 249"/>
<path d="M362.66 249L378.73 249"/>
<path d="M379.46 247.54L349.52 247.54"/>
<path d="M348.06 247.54L318.12 247.54"/>
<path d="M316.66 247.54L286.72 247.54"/>
<path d="M284.89 247.54L254.95 247.54"/>
<path d="M253.49 247.54L223.55 247.54"/>
<path d="M221.73 247.54L191.79 247.54"/>
<path d="M190.33 247.54L160.39 247.54"/>
<path d="M158.93 247.54L128.99 247.54"/>
<path d="M127.16 247.54L97.22 247.54"/>
<path d="M95.76 247.54L65.83 247.54"/>
<path d="M551.06 245.72L539.37 245.72"/>
<path d="M45.74 245.72L57.43 245.72"/>
<path d="M515.64 243.89L490.81 243.89"/>
<path d="M415.6 243.89L440.43 243.89"/>
<path d="M515.64 240.24L490.81 240.24"/>
<path d="M415.6 240.24L440.43 240.24"/>
<path d="M75.68 238.78L211.87 238.78"/>
<path d="M233.41 238.78L369.6 238.78"/>
<path d="M264.45 230.02L254.59 220.53"/>
<path d="M244 206.65L253.86 216.14"/>
<path d="M232.32 197.89L223.55 188.76"/>
<path d="M276.13 238.78L284.89 247.54"/>
<path d="M280.51 249L280.51 253.39"/>
<path d="M263.72 199.71L263.72 204.83"/>
<path d="M263.72 231.48L263.72 236.59"/>
<path d="M266.27 161.74L266.27 163.57"/>
<path d="M266.27 274.93L266.27 273.1"/>
<path d="M268.1 257.77L268.1 249"/>
<path d="M268.1 187.67L268.1 178.54"/>
<path d="M270.65 257.77L270.65 249"/>
<path d="M270.65 187.67L270.65 178.54"/>
<path d="M271.75 174.89L271.75 177.44"/>
<path d="M271.75 261.42L271.75 258.86"/>
<path d="M273.57 161.74L273.57 163.57"/>
<path d="M273.57 274.93L273.57 273.1"/>
<path d="M276.13 253.75L276.13 249"/>
<path d="M276.13 187.67L276.13 182.92"/>
<path d="M276.13 236.59L276.13 231.48"/>
<path d="M276.13 204.83L276.13 199.71"/>
<path d="M277.22 184.75L277.22 182.55"/>
<path d="M277.22 251.56L277.22 253.75"/>
<path d="M279.78 185.11L279.78 182.55"/>
<path d="M280.51 174.89L280.51 177.44"/>
<path d="M280.51 261.42L280.51 258.86"/>
<path d="M280.51 238.78L280.51 236.59"/>
<path d="M280.51 199.71L280.51 197.52"/>
<path d="M280.88 161.74L280.88 163.57"/>
<path d="M280.88 182.55L280.88 183.28"/>
<path d="M280.88 274.93L280.88 273.1"/>
<path d="M280.88 253.75L280.88 253.39"/>
<path d="M281.97 178.54L281.97 187.67"/>
<path d="M281.97 249L281.97 257.77"/>
<path d="M280.51 187.67L280.51 183.28"/>
<path d="M277.22 185.11L276.86 187.67"/>
<path d="M223.55 247.54L232.32 238.42"/>
<path d="M276.13 197.52L284.89 188.76"/>
<path d="M264.45 206.65L254.59 216.14"/>
<path d="M244 230.02L253.86 220.53"/>
<path d="M87 236.59L105.99 236.59"/>
<path d="M118.4 236.59L137.39 236.59"/>
<path d="M150.17 236.59L169.15 236.59"/>
<path d="M181.57 236.59L200.55 236.59"/>
<path d="M244.73 236.59L263.72 236.59"/>
<path d="M276.13 236.59L295.12 236.59"/>
<path d="M307.89 236.59L326.88 236.59"/>
<path d="M339.29 236.59L358.28 236.59"/>
<path d="M516.74 236.59L532.44 236.59"/>
<path d="M489.72 235.86L472.92 235.86"/>
<path d="M397.71 235.86L414.51 235.86"/>
<path d="M441.89 235.86L458.32 235.86"/>
<path d="M368.5 229.29L360.84 229.29"/>
<path d="M337.1 229.29L329.07 229.29"/>
<path d="M305.34 229.29L297.67 229.29"/>
<path d="M273.94 229.29L265.91 229.29"/>
<path d="M242.54 229.29L234.51 229.29"/>
<path d="M210.77 229.29L203.11 229.29"/>
<path d="M179.37 229.29L171.34 229.29"/>
<path d="M147.61 229.29L139.94 229.29"/>
<path d="M116.21 229.29L108.18 229.29"/>
<path d="M84.81 229.29L76.78 229.29"/>
<path d="M515.64 227.83L490.81 227.83"/>
<path d="M415.6 227.83L440.43 227.83"/>
<path d="M516.74 227.1L523.31 227.1"/>
<path d="M523.31 225.64L516.74 225.64"/>
<path d="M448.1 225.64L441.89 225.64"/>
<path d="M414.51 225.64L407.93 225.64"/>
<path d="M483.15 225.64L489.72 225.64"/>
<path d="M371.06 222.72L369.23 222.72"/>
<path d="M234.14 222.72L231.95 222.72"/>
<path d="M213.33 222.72L211.5 222.72"/>
<path d="M76.41 222.72L74.22 222.72"/>
<path d="M371.06 222.72L369.23 222.72"/>
<path d="M234.14 222.72L231.95 222.72"/>
<path d="M213.33 222.72L211.5 222.72"/>
<path d="M76.41 222.72L74.22 222.72"/>
<path d="M369.23 220.53L349.52 220.53"/>
<path d="M348.42 220.53L317.75 220.53"/>
<path d="M316.66 220.53L286.35 220.53"/>
<path d="M285.26 220.53L254.59 220.53"/>
<path d="M253.86 220.53L234.14 220.53"/>
<path d="M211.5 220.53L191.79 220.53"/>
<path d="M190.69 220.53L160.02 220.53"/>
<path d="M158.93 220.53L128.62 220.53"/>
<path d="M127.53 220.53L96.86 220.53"/>
<path d="M96.13 220.53L76.41 220.53"/>
<path d="M379.46 220.16L371.06 220.16"/>
<path d="M74.22 220.16L65.83 220.16"/>
<path d="M295.85 230.02L286.35 220.53"/>
<path d="M275.49 206.74L285.26 216.14"/>
<path d="M263.72 197.52L254.95 188.76"/>
<path d="M307.89 238.78L316.66 247.54"/>
<path d="M277.22 251.56L276.86 249"/>
<path d="M284.16 178.54L284.16 187.67"/>
<path d="M284.16 249L284.16 257.77"/>
<path d="M284.89 238.78L284.89 247.54"/>
<path d="M284.89 197.52L284.89 188.76"/>
<path d="M285.26 199.71L285.26 216.14"/>
<path d="M285.26 236.59L285.26 220.53"/>
<path d="M286.35 199.71L286.35 216.14"/>
<path d="M286.35 236.59L286.35 220.53"/>
<path d="M286.72 238.78L286.72 247.54"/>
<path d="M286.72 197.52L286.72 188.76"/>
<path d="M290.73 161.74L290.73 163.57"/>
<path d="M290.73 274.93L290.73 273.1"/>
<path d="M291.1 197.52L291.1 199.71"/>
<path d="M291.1 236.59L291.1 238.78"/>
<path d="M294.75 114.64L294.75 96.02"/>
<path d="M295.12 199.71L295.12 204.83"/>
<path d="M295.12 231.48L295.12 236.59"/>
<path d="M296.21 74.12L296.21 78.86"/>
<path d="M296.94 143.12L296.94 129.61"/>
<path d="M297.67 161.74L297.67 163.57"/>
<path d="M297.67 274.93L297.67 273.1"/>
<path d="M299.86 257.77L299.86 249"/>
<path d="M299.86 187.67L299.86 178.54"/>
<path d="M300.96 139.11L300.96 91.64"/>
<path d="M263.72 238.78L254.95 247.54"/>
<path d="M295.85 206.65L286.35 216.14"/>
<path d="M65.83 216.14L74.22 216.14"/>
<path d="M371.06 216.14L379.46 216.14"/>
<path d="M76.41 216.14L96.13 216.14"/>
<path d="M96.86 216.14L127.53 216.14"/>
<path d="M128.62 216.14L158.93 216.14"/>
<path d="M160.02 216.14L190.69 216.14"/>
<path d="M191.79 216.14L211.5 216.14"/>
<path d="M234.14 216.14L253.86 216.14"/>
<path d="M254.59 216.14L285.26 216.14"/>
<path d="M286.35 216.14L316.66 216.14"/>
<path d="M317.75 216.14L348.42 216.14"/>
<path d="M349.52 216.14L369.23 216.14"/>
<path d="M74.22 213.95L76.41 213.95"/>
<path d="M211.5 213.95L213.33 213.95"/>
<path d="M231.95 213.95L234.14 213.95"/>
<path d="M369.23 213.95L371.06 213.95"/>
<path d="M523.31 213.95L513.09 213.95"/>
<path d="M493.37 213.95L483.15 213.95"/>
<path d="M407.93 213.95L418.16 213.95"/>
<path d="M438.24 213.95L448.1 213.95"/>
<path d="M74.22 213.59L76.41 213.59"/>
<path d="M211.5 213.59L213.33 213.59"/>
<path d="M231.95 213.59L234.14 213.59"/>
<path d="M369.23 213.59L371.06 213.59"/>
<path d="M539.37 208.48L551.06 208.48"/>
<path d="M76.78 207.38L84.81 207.38"/>
<path d="M108.18 207.38L116.21 207.38"/>
<path d="M139.94 207.38L147.61 207.38"/>
<path d="M171.34 207.38L179.37 207.38"/>
<path d="M203.11 207.38L210.77 207.38"/>
<path d="M234.51 207.38L242.54 207.38"/>
<path d="M266.27 207.38L273.94 207.38"/>
<path d="M297.67 207.38L305.34 207.38"/>
<path d="M329.07 207.38L337.1 207.38"/>
<path d="M360.84 207.38L368.5 207.38"/>
<path d="M522.58 203.73L513.09 203.73"/>
<path d="M493.37 203.73L472.92 203.73"/>
<path d="M458.32 203.73L438.24 203.73"/>
<path d="M418.16 203.73L397.71 203.73"/>
<path d="M532.44 203L523.31 203"/>
<path d="M45.74 200.08L57.43 200.08"/>
<path d="M87 199.71L105.99 199.71"/>
<path d="M118.4 199.71L137.39 199.71"/>
<path d="M150.17 199.71L169.15 199.71"/>
<path d="M181.57 199.71L200.55 199.71"/>
<path d="M244.73 199.71L263.72 199.71"/>
<path d="M276.13 199.71L295.12 199.71"/>
<path d="M307.89 199.71L326.88 199.71"/>
<path d="M339.29 199.71L358.28 199.71"/>
<path d="M327.61 230.02L317.75 220.53"/>
<path d="M295.12 197.52L286.72 188.76"/>
<path d="M308.99 251.56L308.26 249"/>
<path d="M311.91 249L311.91 253.39"/>
<path d="M302.05 257.77L302.05 249"/>
<path d="M302.05 187.67L302.05 178.54"/>
<path d="M303.51 93.47L303.51 143.12"/>
<path d="M303.51 174.89L303.51 177.44"/>
<path d="M303.51 261.42L303.51 258.86"/>
<path d="M305.34 161.74L305.34 163.57"/>
<path d="M305.34 274.93L305.34 273.1"/>
<path d="M307.89 253.75L307.89 249"/>
<path d="M307.89 187.67L307.89 182.92"/>
<path d="M307.89 236.59L307.89 231.48"/>
<path d="M307.89 204.83L307.89 199.71"/>
<path d="M308.99 184.75L308.99 182.55"/>
<path d="M308.99 251.56L308.99 253.75"/>
<path d="M311.18 185.11L311.18 182.55"/>
<path d="M311.91 174.89L311.91 177.44"/>
<path d="M311.91 261.42L311.91 258.86"/>
<path d="M311.91 238.78L311.91 236.59"/>
<path d="M311.91 199.71L311.91 197.52"/>
<path d="M312.28 161.74L312.28 163.57"/>
<path d="M312.28 182.55L312.28 183.28"/>
<path d="M312.28 274.93L312.28 273.1"/>
<path d="M312.28 253.75L312.28 253.39"/>
<path d="M313.37 78.86L313.37 93.47"/>
<path d="M313.37 178.54L313.37 187.67"/>
<path d="M313.37 249L313.37 257.77"/>
<path d="M315.56 178.54L315.56 187.67"/>
<path d="M315.56 249L315.56 257.77"/>
<path d="M316.66 238.78L316.66 247.54"/>
<path d="M316.66 197.52L316.66 188.76"/>
<path d="M316.66 199.71L316.66 216.14"/>
<path d="M316.66 236.59L316.66 220.53"/>
<path d="M317.02 82.88L317.02 93.47"/>
<path d="M317.75 199.71L317.75 216.14"/>
<path d="M317.75 236.59L317.75 220.53"/>
<path d="M318.12 238.78L318.12 247.54"/>
<path d="M318.12 197.52L318.12 188.76"/>
<path d="M311.91 187.67L311.91 183.28"/>
<path d="M308.99 185.11L308.26 187.67"/>
<path d="M307.89 197.52L316.66 188.76"/>
<path d="M275.4 230.02L285.26 220.53"/>
<path d="M513.09 198.98L493.37 198.98"/>
<path d="M418.16 198.98L438.24 198.98"/>
<path d="M75.68 197.52L211.87 197.52"/>
<path d="M233.41 197.52L369.6 197.52"/>
<path d="M551.06 196.06L539.37 196.06"/>
<path d="M460.51 193.87L397.71 193.87"/>
<path d="M471.1 193.87L523.31 193.87"/>
<path d="M401.36 192.78L523.31 192.78"/>
<path d="M396.25 192.05L523.31 192.05"/>
<path d="M65.83 188.76L95.76 188.76"/>
<path d="M97.22 188.76L127.16 188.76"/>
<path d="M128.99 188.76L158.93 188.76"/>
<path d="M160.39 188.76L190.33 188.76"/>
<path d="M191.79 188.76L221.73 188.76"/>
<path d="M223.55 188.76L253.49 188.76"/>
<path d="M254.95 188.76L284.89 188.76"/>
<path d="M286.72 188.76L316.66 188.76"/>
<path d="M318.12 188.76L348.06 188.76"/>
<path d="M349.52 188.76L379.46 188.76"/>
<path d="M434.95 188.4L534.26 188.4"/>
<path d="M378.73 187.67L362.66 187.67"/>
<path d="M347.33 187.67L331.26 187.67"/>
<path d="M315.56 187.67L299.86 187.67"/>
<path d="M284.16 187.67L268.1 187.67"/>
<path d="M252.76 187.67L236.7 187.67"/>
<path d="M221 187.67L204.93 187.67"/>
<path d="M189.6 187.67L173.53 187.67"/>
<path d="M157.83 187.67L142.13 187.67"/>
<path d="M126.43 187.67L110.37 187.67"/>
<path d="M95.03 187.67L78.97 187.67"/>
<path d="M45.74 187.3L57.43 187.3"/>
<path d="M552.15 186.57L551.06 186.57"/>
<path d="M547.41 185.11L535.36 185.11"/>
<path d="M59.98 184.75L74.95 184.75"/>
<path d="M88.1 184.75L90.65 184.75"/>
<path d="M119.5 184.75L121.32 184.75"/>
<path d="M151.26 184.75L153.82 184.75"/>
<path d="M182.66 184.75L185.22 184.75"/>
<path d="M214.43 184.75L216.98 184.75"/>
<path d="M245.83 184.75L248.02 184.75"/>
<path d="M277.22 184.75L279.05 184.75"/>
<path d="M308.99 184.75L311.18 184.75"/>
<path d="M340.39 184.75L342.94 184.75"/>
<path d="M372.15 184.75L374.34 184.75"/>
<path d="M370.69 184.02L365.22 184.02"/>
<path d="M339.29 184.02L333.45 184.02"/>
<path d="M307.89 184.02L302.05 184.02"/>
<path d="M276.13 184.02L270.65 184.02"/>
<path d="M244.73 184.02L238.89 184.02"/>
<path d="M213.33 184.02L207.49 184.02"/>
<path d="M181.57 184.02L175.72 184.02"/>
<path d="M150.17 184.02L144.32 184.02"/>
<path d="M118.4 184.02L112.92 184.02"/>
<path d="M87 184.02L81.16 184.02"/>
<path d="M92.48 183.28L91.38 183.28"/>
<path d="M122.78 183.28L124.24 183.28"/>
<path d="M154.18 183.28L155.64 183.28"/>
<path d="M185.95 183.28L187.04 183.28"/>
<path d="M217.35 183.28L218.81 183.28"/>
<path d="M249.11 183.28L250.21 183.28"/>
<path d="M280.51 183.28L281.97 183.28"/>
<path d="M311.91 183.28L313.37 183.28"/>
<path d="M343.67 183.28L344.77 183.28"/>
<path d="M375.07 183.28L376.53 183.28"/>
<path d="M81.16 182.92L87 182.92"/>
<path d="M112.92 182.92L118.4 182.92"/>
<path d="M144.32 182.92L150.17 182.92"/>
<path d="M175.72 182.92L181.57 182.92"/>
<path d="M207.49 182.92L213.33 182.92"/>
<path d="M238.89 182.92L244.73 182.92"/>
<path d="M270.65 182.92L276.13 182.92"/>
<path d="M302.05 182.92L307.89 182.92"/>
<path d="M333.45 182.92L339.29 182.92"/>
<path d="M365.22 182.92L370.69 182.92"/>
<path d="M81.16 182.55L92.48 182.55"/>
<path d="M112.92 182.55L124.24 182.55"/>
<path d="M144.32 182.55L155.64 182.55"/>
<path d="M175.72 182.55L187.04 182.55"/>
<path d="M207.49 182.55L218.81 182.55"/>
<path d="M238.89 182.55L250.21 182.55"/>
<path d="M270.65 182.55L281.97 182.55"/>
<path d="M302.05 182.55L313.37 182.55"/>
<path d="M333.45 182.55L344.77 182.55"/>
<path d="M365.22 182.55L376.53 182.55"/>
<path d="M551.06 181.46L539.37 181.46"/>
<path d="M552.15 180.36L551.06 180.36"/>
<path d="M307.16 206.65L316.66 216.14"/>
<path d="M339.29 238.78L348.06 247.54"/>
<path d="M322.13 90.91L322.13 83.61"/>
<path d="M322.13 161.74L322.13 163.57"/>
<path d="M322.13 274.93L322.13 273.1"/>
<path d="M322.5 197.52L322.5 199.71"/>
<path d="M322.5 236.59L322.5 238.78"/>
<path d="M326.88 199.71L326.88 204.83"/>
<path d="M326.88 231.48L326.88 236.59"/>
<path d="M326.88 93.47L326.88 99.67"/>
<path d="M329.44 161.74L329.44 163.57"/>
<path d="M329.44 274.93L329.44 273.1"/>
<path d="M330.53 97.12L330.53 99.67"/>
<path d="M330.53 117.56L330.53 143.12"/>
<path d="M331.26 257.77L331.26 249"/>
<path d="M331.26 187.67L331.26 178.54"/>
<path d="M333.45 257.77L333.45 249"/>
<path d="M333.45 187.67L333.45 178.54"/>
<path d="M334.91 174.89L334.91 177.44"/>
<path d="M334.91 261.42L334.91 258.86"/>
<path d="M336.01 137.28L336.01 143.12"/>
<path d="M336.74 161.74L336.74 163.57"/>
<path d="M336.74 274.93L336.74 273.1"/>
<path d="M340.39 185.11L340.02 187.67"/>
<path d="M295.12 238.78L286.72 247.54"/>
<path d="M339.29 197.52L348.06 188.76"/>
<path d="M397.71 156.27L407.93 146.04"/>
<path d="M327.61 206.65L317.75 216.14"/>
<path d="M307.16 230.02L316.66 220.53"/>
<path d="M331.26 178.54L333.45 178.54"/>
<path d="M362.66 178.54L365.22 178.54"/>
<path d="M378.73 178.54L376.53 178.54"/>
<path d="M347.33 178.54L344.77 178.54"/>
<path d="M315.56 178.54L313.37 178.54"/>
<path d="M284.16 178.54L281.97 178.54"/>
<path d="M252.76 178.54L250.21 178.54"/>
<path d="M221 178.54L218.81 178.54"/>
<path d="M189.6 178.54L187.04 178.54"/>
<path d="M157.83 178.54L155.64 178.54"/>
<path d="M126.43 178.54L124.24 178.54"/>
<path d="M95.03 178.54L92.48 178.54"/>
<path d="M236.7 178.54L238.89 178.54"/>
<path d="M268.1 178.54L270.65 178.54"/>
<path d="M299.86 178.54L302.05 178.54"/>
<path d="M142.13 178.54L144.32 178.54"/>
<path d="M173.53 178.54L175.72 178.54"/>
<path d="M204.93 178.54L207.49 178.54"/>
<path d="M78.97 178.54L81.16 178.54"/>
<path d="M110.37 178.54L112.92 178.54"/>
<path d="M82.62 177.44L91.38 177.44"/>
<path d="M114.02 177.44L122.78 177.44"/>
<path d="M145.78 177.44L154.18 177.44"/>
<path d="M177.18 177.44L185.95 177.44"/>
<path d="M208.58 177.44L217.35 177.44"/>
<path d="M240.35 177.44L249.11 177.44"/>
<path d="M271.75 177.44L280.51 177.44"/>
<path d="M303.51 177.44L311.91 177.44"/>
<path d="M334.91 177.44L343.67 177.44"/>
<path d="M366.31 177.44L375.07 177.44"/>
<path d="M59.98 176.35L49.4 176.35"/>
<path d="M82.62 174.89L91.38 174.89"/>
<path d="M114.02 174.89L122.78 174.89"/>
<path d="M145.78 174.89L154.18 174.89"/>
<path d="M177.18 174.89L185.95 174.89"/>
<path d="M208.58 174.89L217.35 174.89"/>
<path d="M240.35 174.89L249.11 174.89"/>
<path d="M271.75 174.89L280.51 174.89"/>
<path d="M303.51 174.89L311.91 174.89"/>
<path d="M334.91 174.89L343.67 174.89"/>
<path d="M366.31 174.89L375.07 174.89"/>
<path d="M434.95 173.43L400.27 173.43"/>
<path d="M534.26 173.43L539.37 173.43"/>
<path d="M534.26 173.43L434.95 173.43"/>
<path d="M57.43 172.7L45.74 172.7"/>
<path d="M44.65 171.6L57.43 171.6"/>
<path d="M535.36 169.78L401 169.78"/>
<path d="M74.95 169.78L59.98 169.78"/>
<path d="M414.51 168.32L401.36 168.32"/>
<path d="M441.89 168.32L489.72 168.32"/>
<path d="M516.74 168.32L552.15 168.32"/>
<path d="M57.43 167.22L381.65 167.22"/>
<path d="M415.6 164.3L440.43 164.3"/>
<path d="M490.81 164.3L515.64 164.3"/>
<path d="M382.38 163.57L61.08 163.57"/>
<path d="M44.65 161.74L383.11 161.74"/>
<path d="M359.01 230.02L349.52 220.53"/>
<path d="M338.56 206.65L348.42 216.14"/>
<path d="M222.82 80.69L225.01 83.61"/>
<path d="M396.25 251.93L391.14 247.18"/>
<path d="M392.6 246.08L397.71 251.2"/>
<path d="M246.19 96.02L243.63 93.47"/>
<path d="M326.88 197.52L318.12 188.76"/>
<path d="M370.69 238.42L379.46 247.54"/>
<path d="M340.39 251.56L340.02 249"/>
<path d="M343.67 249L343.67 253.39"/>
<path d="M339.29 253.75L339.29 249"/>
<path d="M339.29 187.67L339.29 182.92"/>
<path d="M339.29 236.59L339.29 231.48"/>
<path d="M339.29 204.83L339.29 199.71"/>
<path d="M340.39 117.56L340.39 137.28"/>
<path d="M340.39 99.67L340.39 84.7"/>
<path d="M340.39 184.75L340.39 182.55"/>
<path d="M340.39 251.56L340.39 253.75"/>
<path d="M342.94 117.56L342.94 137.28"/>
<path d="M342.94 185.11L342.94 182.55"/>
<path d="M343.67 174.89L343.67 177.44"/>
<path d="M343.67 261.42L343.67 258.86"/>
<path d="M343.67 238.78L343.67 236.59"/>
<path d="M343.67 199.71L343.67 197.52"/>
<path d="M343.67 112.09L343.67 105.88"/>
<path d="M343.67 161.74L343.67 163.57"/>
<path d="M343.67 182.55L343.67 183.28"/>
<path d="M343.67 274.93L343.67 273.1"/>
<path d="M343.67 253.75L343.67 253.39"/>
<path d="M344.77 178.54L344.77 187.67"/>
<path d="M344.77 249L344.77 257.77"/>
<path d="M347.33 178.54L347.33 187.67"/>
<path d="M347.33 249L347.33 257.77"/>
<path d="M348.06 238.78L348.06 247.54"/>
<path d="M348.06 197.52L348.06 188.76"/>
<path d="M348.42 199.71L348.42 216.14"/>
<path d="M348.42 236.59L348.42 220.53"/>
<path d="M348.42 117.56L348.42 137.28"/>
<path d="M349.52 199.71L349.52 216.14"/>
<path d="M349.52 236.59L349.52 220.53"/>
<path d="M349.52 238.78L349.52 247.54"/>
<path d="M349.52 197.52L349.52 188.76"/>
<path d="M349.52 80.69L349.52 106.25"/>
<path d="M352.44 83.61L352.44 106.25"/>
<path d="M353.9 161.74L353.9 163.57"/>
<path d="M353.9 274.93L353.9 273.1"/>
<path d="M354.26 197.52L354.26 199.71"/>
<path d="M354.26 236.59L354.26 238.78"/>
<path d="M354.26 108.07L354.26 110.99"/>
<path d="M354.99 110.99L354.99 150.42"/>
<path d="M357.91 109.9L357.91 150.42"/>
<path d="M343.67 187.67L343.67 183.28"/>
<path d="M326.88 238.78L318.12 247.54"/>
<path d="M370.69 197.89L379.46 188.76"/>
<path d="M458.32 124.14L448.1 134.36"/>
<path d="M359.01 206.65L349.52 216.14"/>
<path d="M338.56 230.02L348.42 220.53"/>
<path d="M415.6 160.65L440.43 160.65"/>
<path d="M490.81 160.65L515.64 160.65"/>
<path d="M533.53 156.27L516.74 156.27"/>
<path d="M489.72 156.27L472.92 156.27"/>
<path d="M397.71 156.27L414.51 156.27"/>
<path d="M441.89 156.27L458.32 156.27"/>
<path d="M388.22 154.08L44.65 154.08"/>
<path d="M388.22 150.42L48.3 150.42"/>
<path d="M415.6 148.23L440.43 148.23"/>
<path d="M490.81 148.23L515.64 148.23"/>
<path d="M357.91 146.77L395.52 146.77"/>
<path d="M523.31 146.04L516.74 146.04"/>
<path d="M489.72 146.04L483.15 146.04"/>
<path d="M448.1 146.04L441.89 146.04"/>
<path d="M414.51 146.04L407.93 146.04"/>
<path d="M336.01 143.12L330.53 143.12"/>
<path d="M303.51 143.12L243.63 143.12"/>
<path d="M216.25 143.12L211.14 143.12"/>
<path d="M400.27 192.05L401.36 192.78"/>
<path d="M358.28 197.52L349.52 188.76"/>
<path d="M371.06 207.38L379.46 216.14"/>
<path d="M375.07 249L375.07 253.39"/>
<path d="M358.28 199.71L358.28 204.83"/>
<path d="M358.28 231.48L358.28 236.59"/>
<path d="M360.84 161.74L360.84 163.57"/>
<path d="M360.84 274.93L360.84 273.1"/>
<path d="M362.66 257.77L362.66 249"/>
<path d="M362.66 187.67L362.66 178.54"/>
<path d="M365.22 257.77L365.22 249"/>
<path d="M365.22 187.67L365.22 178.54"/>
<path d="M366.31 174.89L366.31 177.44"/>
<path d="M366.31 261.42L366.31 258.86"/>
<path d="M368.14 161.74L368.14 163.57"/>
<path d="M368.14 274.93L368.14 273.1"/>
<path d="M369.23 229.29L369.23 207.02"/>
<path d="M370.69 253.75L370.69 249"/>
<path d="M370.69 187.67L370.69 182.92"/>
<path d="M371.06 237.69L371.06 198.98"/>
<path d="M372.15 184.75L372.15 182.55"/>
<path d="M372.15 251.56L372.15 253.75"/>
<path d="M374.34 185.11L374.34 182.55"/>
<path d="M375.07 174.89L375.07 177.44"/>
<path d="M375.07 261.42L375.07 258.86"/>
<path d="M375.44 161.74L375.44 163.57"/>
<path d="M375.44 182.55L375.44 183.28"/>
<path d="M375.44 274.93L375.44 273.1"/>
<path d="M375.44 253.75L375.44 253.39"/>
<path d="M376.53 178.54L376.53 187.67"/>
<path d="M376.53 249L376.53 257.77"/>
<path d="M375.07 187.67L375.07 183.28"/>
<path d="M372.15 185.11L371.42 187.67"/>
<path d="M379.46 220.16L371.06 229.29"/>
<path d="M358.28 238.78L349.52 247.54"/>
<path d="M391.14 197.16L396.25 192.05"/>
<path d="M397.71 193.87L392.6 198.98"/>
<path d="M246.19 139.11L300.96 139.11"/>
<path d="M348.42 137.28L336.01 137.28"/>
<path d="M211.14 137.28L198.73 137.28"/>
<path d="M407.93 134.36L418.16 134.36"/>
<path d="M438.24 134.36L448.1 134.36"/>
<path d="M483.15 134.36L493.37 134.36"/>
<path d="M513.09 134.36L523.31 134.36"/>
<path d="M246.19 133.26L300.96 133.26"/>
<path d="M249.84 129.61L296.94 129.61"/>
<path d="M395.52 124.5L391.87 124.5"/>
<path d="M548.5 124.5L552.15 124.5"/>
<path d="M533.53 124.14L513.09 124.14"/>
<path d="M493.37 124.14L472.92 124.14"/>
<path d="M458.32 124.14L438.24 124.14"/>
<path d="M418.16 124.14L397.71 124.14"/>
<path d="M400.27 173.43L381.65 167.22"/>
<path d="M401 169.78L382.38 163.57"/>
<path d="M401.36 168.32L383.11 161.74"/>
<path d="M397.71 203.73L407.93 213.95"/>
<path d="M372.15 251.56L371.42 249"/>
<path d="M378.73 178.54L378.73 187.67"/>
<path d="M378.73 249L378.73 257.77"/>
<path d="M379.46 220.16L379.46 247.54"/>
<path d="M379.46 216.14L379.46 188.76"/>
<path d="M380.55 254.12L380.55 269.09"/>
<path d="M383.11 274.93L383.11 273.1"/>
<path d="M383.11 163.81L383.11 161.74"/>
<path d="M388.22 154.08L388.22 112.09"/>
<path d="M391.14 197.16L391.14 247.18"/>
<path d="M391.87 146.77L391.87 110.99"/>
<path d="M392.6 246.08L392.6 198.98"/>
<path d="M472.92 156.27L483.15 146.04"/>
<path d="M397.71 235.86L407.93 225.64"/>
<path d="M513.09 119.76L493.37 119.76"/>
<path d="M418.16 119.76L438.24 119.76"/>
<path d="M458.68 119.76L472.56 119.76"/>
<path d="M50.86 118.3L44.65 118.3"/>
<path d="M198.73 117.56L216.25 117.56"/>
<path d="M330.53 117.56L348.42 117.56"/>
<path d="M539.74 115.74L404.28 115.74"/>
<path d="M300.96 114.64L294.75 114.64"/>
<path d="M246.19 114.64L252.4 114.64"/>
<path d="M391.87 114.64L357.91 114.64"/>
<path d="M189.6 114.64L54.51 114.64"/>
<path d="M343.67 112.09L300.96 112.09"/>
<path d="M246.19 112.09L203.47 112.09"/>
<path d="M539.74 111.72L404.28 111.72"/>
<path d="M191.79 110.99L192.88 110.99"/>
<path d="M354.26 110.99L354.99 110.99"/>
<path d="M300.96 109.9L294.75 109.9"/>
<path d="M246.19 109.9L252.4 109.9"/>
<path d="M294.75 109.17L252.4 109.17"/>
<path d="M54.51 108.07L192.88 108.07"/>
<path d="M354.26 108.07L389.31 108.07"/>
<path d="M294.75 107.71L252.4 107.71"/>
<path d="M352.44 106.25L349.52 106.25"/>
<path d="M194.71 106.25L197.27 106.25"/>
<path d="M294.75 106.25L252.4 106.25"/>
<path d="M341.85 105.88L352.44 105.88"/>
<path d="M194.71 105.88L205.66 105.88"/>
<path d="M458.32 235.86L448.1 225.64"/>
<path d="M395.52 124.5L395.52 146.77"/>
<path d="M397.71 124.14L397.71 156.27"/>
<path d="M397.71 203.73L397.71 235.86"/>
<path d="M404.28 115.74L404.28 98.58"/>
<path d="M407.57 274.93L407.57 273.1"/>
<path d="M407.57 193.87L407.57 192.05"/>
<path d="M407.93 225.64L407.93 213.95"/>
<path d="M407.93 146.04L407.93 134.36"/>
<path d="M414.51 251.93L414.51 235.86"/>
<path d="M414.51 235.86L414.51 225.64"/>
<path d="M414.51 169.78L414.51 156.27"/>
<path d="M414.51 156.27L414.51 146.04"/>
<path d="M533.53 124.14L523.31 134.36"/>
<path d="M458.32 203.73L448.1 213.95"/>
<path d="M341.12 99.67L326.88 99.67"/>
<path d="M219.9 99.67L205.66 99.67"/>
<path d="M539.74 98.58L404.28 98.58"/>
<path d="M246.19 96.02L300.96 96.02"/>
<path d="M219.9 93.47L243.63 93.47"/>
<path d="M303.51 93.47L326.88 93.47"/>
<path d="M300.96 91.64L246.19 91.64"/>
<path d="M331.63 90.91L322.13 90.91"/>
<path d="M225.01 90.91L215.52 90.91"/>
<path d="M230.13 89.82L317.02 89.82"/>
<path d="M340.39 99.67L331.63 90.91"/>
<path d="M415.6 251.93L415.6 227.83"/>
<path d="M415.6 169.78L415.6 148.23"/>
<path d="M418.16 213.95L418.16 198.98"/>
<path d="M418.16 134.36L418.16 119.76"/>
<path d="M340.39 84.7L322.13 84.7"/>
<path d="M225.01 84.7L206.76 84.7"/>
<path d="M313.37 84.7L233.78 84.7"/>
<path d="M341.12 83.61L340.39 83.61"/>
<path d="M206.76 83.61L206.03 83.61"/>
<path d="M197.27 80.69L222.82 80.69"/>
<path d="M324.32 80.69L349.52 80.69"/>
<path d="M313.37 79.96L233.78 79.96"/>
<path d="M313.37 78.86L233.78 78.86"/>
<path d="M296.21 78.13L250.94 78.13"/>
<path d="M296.21 74.12L250.94 74.12"/>
<path d="M472.92 203.73L483.15 213.95"/>
<path d="M397.71 124.14L407.93 134.36"/>
<path d="M433.86 269.09L433.86 254.12"/>
<path d="M434.95 173.43L434.95 188.4"/>
<path d="M434.95 254.12L434.95 269.09"/>
<path d="M438.24 119.76L438.24 134.36"/>
<path d="M438.24 198.98L438.24 213.95"/>
<path d="M440.43 251.93L440.43 227.83"/>
<path d="M440.43 169.78L440.43 148.23"/>
<path d="M441.89 251.93L441.89 235.86"/>
<path d="M441.89 235.86L441.89 225.64"/>
<path d="M441.89 169.78L441.89 156.27"/>
<path d="M441.89 156.27L441.89 146.04"/>
<path d="M448.1 134.36L448.1 146.04"/>
<path d="M448.1 213.95L448.1 225.64"/>
<path d="M472.92 235.86L483.15 225.64"/>
<path d="M523.31 227.1L532.44 236.59"/>
<path d="M458.32 156.27L448.1 146.04"/>
<path d="M458.32 168.32L458.32 169.78"/>
<path d="M458.32 251.2L458.32 251.93"/>
<path d="M458.32 235.86L458.32 203.73"/>
<path d="M458.32 156.27L458.32 124.14"/>
<path d="M458.68 119.76L458.68 168.32"/>
<path d="M458.68 193.87L458.68 251.2"/>
<path d="M459.42 192.05L459.42 192.78"/>
<path d="M459.42 274.93L459.42 273.1"/>
<path d="M460.88 251.2L460.88 192.78"/>
<path d="M460.88 168.32L460.88 119.76"/>
<path d="M470.73 251.2L470.73 192.78"/>
<path d="M470.73 168.32L470.73 119.76"/>
<path d="M460.51 193.87L460.51 192.78"/>
<path d="M523.31 212.13L532.44 203"/>
<path d="M471.1 193.87L470.73 192.78"/>
<path d="M471.83 273.1L471.83 274.93"/>
<path d="M471.83 192.78L471.83 192.05"/>
<path d="M472.56 119.76L472.56 168.32"/>
<path d="M472.56 193.87L472.56 251.2"/>
<path d="M472.92 124.14L472.92 156.27"/>
<path d="M472.92 203.73L472.92 235.86"/>
<path d="M473.29 251.93L473.29 251.2"/>
<path d="M473.29 169.78L473.29 168.32"/>
<path d="M483.15 213.95L483.15 225.64"/>
<path d="M483.15 146.04L483.15 134.36"/>
<path d="M489.72 251.93L489.72 235.86"/>
<path d="M489.72 235.86L489.72 225.64"/>
<path d="M489.72 169.78L489.72 156.27"/>
<path d="M489.72 156.27L489.72 146.04"/>
<path d="M472.92 124.14L483.15 134.36"/>
<path d="M490.81 227.83L490.81 251.93"/>
<path d="M490.81 169.78L490.81 148.23"/>
<path d="M493.37 213.95L493.37 198.98"/>
<path d="M493.37 134.36L493.37 119.76"/>
<path d="M533.53 156.27L523.31 146.04"/>
<path d="M513.09 119.76L513.09 134.36"/>
<path d="M513.09 198.98L513.09 213.95"/>
<path d="M515.64 227.83L515.64 251.93"/>
<path d="M515.64 169.78L515.64 148.23"/>
<path d="M516.74 251.93L516.74 225.64"/>
<path d="M516.74 169.78L516.74 156.27"/>
<path d="M516.74 156.27L516.74 146.04"/>
<path d="M522.58 193.87L522.58 213.95"/>
<path d="M523.31 227.1L523.31 192.05"/>
<path d="M523.31 134.36L523.31 146.04"/>
<path d="M523.67 273.1L523.67 274.93"/>
<path d="M532.44 300.85L532.44 285.88"/>
<path d="M532.44 236.59L532.44 203"/>
<path d="M533.53 156.27L533.53 124.14"/>
<path d="M534.26 269.09L534.26 254.12"/>
<path d="M534.26 188.4L534.26 173.43"/>
<path d="M535.36 185.11L535.36 169.78"/>
<path d="M539.37 273.1L539.37 274.93"/>
<path d="M539.37 258.13L539.37 245.72"/>
<path d="M539.37 208.48L539.37 196.06"/>
<path d="M539.37 181.46L539.37 172.7"/>
<path d="M539.74 115.74L539.74 98.58"/>
<path d="M541.93 323.12L541.93 329.33"/>
<path d="M545.95 319.47L545.95 304.5"/>
<path d="M547.41 269.45L547.41 258.13"/>
<path d="M547.41 245.72L547.41 208.48"/>
<path d="M547.41 196.06L547.41 185.11"/>
<path d="M548.5 285.88L548.5 274.93"/>
<path d="M548.5 168.32L548.5 124.5"/>
<path d="M551.06 274.93L551.06 168.32"/>
<path d="M552.15 186.57L552.15 260.32"/>
<path d="M552.15 319.47L552.15 274.93"/>
<path d="M552.15 180.36L552.15 110.99"/>
<path d="M54.51 329.33L52.68 328.96M52.68 328.96L50.86 328.6M50.86 328.6L49.03 327.5M49.03 327.5L47.57 326.41M47.57 326.41L46.47 324.95M46.47 324.95L45.38 323.12M45.38 323.12L45.01 321.3M45.01 321.3L44.65 319.47"/>
<path d="M48.3 285.88L46.84 285.52M46.84 285.52L45.74 284.79M45.74 284.79L45.01 283.69M45.01 283.69L44.65 282.23"/>
<path d="M64.73 300.49L64.36 302.31M64.36 302.31L63.63 303.41M63.63 303.41L62.17 304.14M62.17 304.14L61.08 304.5"/>
<path d="M48.3 304.5L46.84 304.14M46.84 304.14L45.74 303.41M45.74 303.41L45.01 302.31M45.01 302.31L44.65 300.49"/>
<path d="M54.51 323.12L53.05 322.76M53.05 322.76L51.95 322.03M51.95 322.03L51.22 320.93M51.22 320.93L50.86 319.47"/>
<path d="M82.62 261.42L81.16 261.05M81.16 261.05L80.06 260.32M80.06 260.32L79.33 258.86M79.33 258.86L78.97 257.77"/>
<path d="M95.03 257.77L94.67 258.86M94.67 258.86L93.94 260.32M93.94 260.32L92.84 261.05M92.84 261.05L91.38 261.42"/>
<path d="M114.02 261.42L112.92 261.05M112.92 261.05L111.46 260.32M111.46 260.32L110.73 258.86M110.73 258.86L110.37 257.77"/>
<path d="M126.43 257.77L126.43 258.86M126.43 258.86L125.7 260.32M125.7 260.32L124.24 261.05M124.24 261.05L122.78 261.42"/>
<path d="M105.99 231.48L105.99 230.75M105.99 230.75L106.72 229.65M106.72 229.65L107.45 229.29M107.45 229.29L108.54 229.29"/>
<path d="M116.21 229.29L116.94 229.29M116.94 229.29L118.04 229.65M118.04 229.65L118.4 230.75M118.4 230.75L118.4 231.48"/>
<path d="M76.78 229.29L76.41 229.29"/>
<path d="M84.81 229.29L85.54 229.29M85.54 229.29L86.27 229.65M86.27 229.65L87 230.75M87 230.75L87 231.48"/>
<path d="M124.24 257.77L123.88 258.5M123.88 258.5L122.78 258.86"/>
<path d="M114.02 258.86L113.29 258.5M113.29 258.5L112.92 257.77"/>
<path d="M92.48 257.77L92.11 258.5M92.11 258.5L91.38 258.86"/>
<path d="M82.62 258.86L81.89 258.5M81.89 258.5L81.16 257.77"/>
<path d="M75.68 238.78L74.59 238.42M74.59 238.42L74.22 237.69"/>
<path d="M76.41 207.02L76.78 207.38"/>
<path d="M87 204.83L87 205.56M87 205.56L86.27 206.65M86.27 206.65L85.54 207.02M85.54 207.02L84.81 207.38"/>
<path d="M108.54 207.38L107.45 207.02M107.45 207.02L106.72 206.65M106.72 206.65L105.99 205.56M105.99 205.56L105.99 204.83"/>
<path d="M118.4 204.83L118.4 205.56M118.4 205.56L118.04 206.65M118.04 206.65L116.94 207.02M116.94 207.02L116.21 207.38"/>
<path d="M145.78 261.42L144.32 261.05M144.32 261.05L143.23 260.32M143.23 260.32L142.13 258.86M142.13 258.86L142.13 257.4"/>
<path d="M157.83 257.77L157.83 258.86M157.83 258.86L157.1 260.32M157.1 260.32L155.64 261.05M155.64 261.05L154.18 261.42"/>
<path d="M169.15 231.48L169.15 230.75M169.15 230.75L169.88 229.65M169.88 229.65L170.61 229.29M170.61 229.29L171.71 229.29"/>
<path d="M137.39 231.48L137.75 230.75M137.75 230.75L138.12 229.65M138.12 229.65L139.21 229.29M139.21 229.29L139.94 229.29"/>
<path d="M147.61 229.29L148.71 229.29M148.71 229.29L149.44 229.65M149.44 229.65L149.8 230.75M149.8 230.75L150.17 231.48"/>
<path d="M155.64 257.77L155.28 258.5M155.28 258.5L154.18 258.86"/>
<path d="M145.78 258.86L145.05 258.5M145.05 258.5L144.32 257.77"/>
<path d="M139.94 207.38L139.21 207.02M139.21 207.02L138.12 206.65M138.12 206.65L137.75 205.56M137.75 205.56L137.39 204.83"/>
<path d="M150.17 204.83L149.8 205.56M149.8 205.56L149.44 206.65M149.44 206.65L148.71 207.02M148.71 207.02L147.61 207.38"/>
<path d="M171.71 207.38L170.61 207.02M170.61 207.02L169.88 206.65M169.88 206.65L169.15 205.56M169.15 205.56L169.15 204.83"/>
<path d="M189.96 307.06L189.6 308.52M189.6 308.52L188.87 309.61M188.87 309.61L187.41 310.34M187.41 310.34L185.95 310.71"/>
<path d="M174.99 310.71L173.53 310.34M173.53 310.34L172.44 309.61M172.44 309.61L171.34 308.52M171.34 308.52L170.98 307.06"/>
<path d="M177.18 261.42L175.72 261.05M175.72 261.05L174.63 260.32M174.63 260.32L173.9 258.86M173.9 258.86L173.53 257.77"/>
<path d="M189.6 257.77L189.6 258.86M189.6 258.86L188.5 260.32M188.5 260.32L187.41 261.05M187.41 261.05L185.95 261.42"/>
<path d="M208.58 261.42L207.12 261.05M207.12 261.05L206.03 260.32M206.03 260.32L205.3 258.86M205.3 258.86L204.93 257.77"/>
<path d="M221 257.77L221 258.86M221 258.86L220.27 260.32M220.27 260.32L218.81 261.05M218.81 261.05L217.35 261.42"/>
<path d="M234.51 229.29L234.14 229.29"/>
<path d="M200.55 231.48L200.92 230.75M200.92 230.75L201.28 229.65M201.28 229.65L202.01 229.29M202.01 229.29L203.11 229.29"/>
<path d="M211.5 229.29L210.77 229.29"/>
<path d="M179.37 229.29L180.11 229.29M180.11 229.29L180.84 229.65M180.84 229.65L181.57 230.75M181.57 230.75L181.57 231.48"/>
<path d="M218.81 257.77L218.44 258.5M218.44 258.5L217.35 258.86"/>
<path d="M208.58 258.86L207.85 258.5M207.85 258.5L207.49 257.77"/>
<path d="M187.04 257.77L186.68 258.5M186.68 258.5L185.95 258.86"/>
<path d="M177.18 258.86L176.45 258.5M176.45 258.5L175.72 257.77"/>
<path d="M213.33 237.69L212.97 238.42M212.97 238.42L212.23 238.78"/>
<path d="M233.41 238.78L232.32 238.42M232.32 238.42L231.95 237.69"/>
<path d="M234.14 207.02L234.51 207.38"/>
<path d="M181.57 204.83L181.57 205.56M181.57 205.56L180.84 206.65M180.84 206.65L180.11 207.02M180.11 207.02L179.37 207.38"/>
<path d="M210.77 207.38L211.5 207.02"/>
<path d="M203.11 207.38L202.01 207.02M202.01 207.02L201.28 206.65M201.28 206.65L200.92 205.56M200.92 205.56L200.55 204.83"/>
<path d="M240.35 261.42L238.89 261.05M238.89 261.05L237.79 260.32M237.79 260.32L236.7 258.86M236.7 258.86L236.7 257.4"/>
<path d="M252.76 257.77L252.4 258.86M252.4 258.86L251.67 260.32M251.67 260.32L250.57 261.05M250.57 261.05L249.11 261.42"/>
<path d="M271.75 261.42L270.29 261.05M270.29 261.05L269.19 260.32M269.19 260.32L268.46 258.86M268.46 258.86L268.1 257.77"/>
<path d="M284.16 257.77L284.16 258.86M284.16 258.86L283.43 260.32M283.43 260.32L281.97 261.05M281.97 261.05L280.51 261.42"/>
<path d="M295.12 231.48L295.48 230.75M295.48 230.75L295.85 229.65M295.85 229.65L296.94 229.29M296.94 229.29L297.67 229.29"/>
<path d="M263.72 231.48L263.72 230.75M263.72 230.75L264.45 229.65M264.45 229.65L265.18 229.29M265.18 229.29L266.27 229.29"/>
<path d="M273.94 229.29L274.67 229.29M274.67 229.29L275.76 229.65M275.76 229.65L276.13 230.75M276.13 230.75L276.13 231.48"/>
<path d="M242.54 229.29L243.27 229.29M243.27 229.29L244 229.65M244 229.65L244.73 230.75M244.73 230.75L244.73 231.48"/>
<path d="M281.97 257.77L281.61 258.5M281.61 258.5L280.51 258.86"/>
<path d="M271.75 258.86L271.02 258.5M271.02 258.5L270.65 257.77"/>
<path d="M250.21 257.77L249.84 258.5M249.84 258.5L249.11 258.86"/>
<path d="M240.35 258.86L239.62 258.5M239.62 258.5L238.89 257.77"/>
<path d="M297.67 207.38L296.94 207.02M296.94 207.02L295.85 206.65M295.85 206.65L295.48 205.56M295.48 205.56L295.12 204.83"/>
<path d="M276.13 204.83L276.13 205.56M276.13 205.56L275.76 206.65M275.76 206.65L274.67 207.02M274.67 207.02L273.94 207.38"/>
<path d="M266.27 207.38L265.18 207.02M265.18 207.02L264.45 206.65M264.45 206.65L263.72 205.56M263.72 205.56L263.72 204.83"/>
<path d="M244.73 204.83L244.73 205.56M244.73 205.56L244 206.65M244 206.65L243.27 207.02M243.27 207.02L242.54 207.38"/>
<path d="M57.43 167.22L57.79 165.76M57.79 165.76L58.52 164.3M58.52 164.3L59.62 163.57M59.62 163.57L61.08 163.57"/>
<path d="M91.38 174.89L92.84 175.25M92.84 175.25L93.94 175.98M93.94 175.98L94.67 177.08M94.67 177.08L95.03 178.54"/>
<path d="M78.97 178.54L78.97 177.08M78.97 177.08L80.06 175.98M80.06 175.98L81.16 175.25M81.16 175.25L82.62 174.89"/>
<path d="M122.78 174.89L124.24 175.25M124.24 175.25L125.7 175.98M125.7 175.98L126.43 177.08M126.43 177.08L126.43 178.54"/>
<path d="M110.37 178.54L110.73 177.08M110.73 177.08L111.46 175.98M111.46 175.98L112.56 175.25M112.56 175.25L114.02 174.89"/>
<path d="M154.18 174.89L155.64 175.25M155.64 175.25L157.1 175.98M157.1 175.98L157.83 177.08M157.83 177.08L157.83 178.54"/>
<path d="M142.13 178.54L142.13 177.08M142.13 177.08L142.86 175.98M142.86 175.98L144.32 175.25M144.32 175.25L145.78 174.89"/>
<path d="M44.65 154.08L45.01 152.62M45.01 152.62L45.74 151.52M45.74 151.52L46.84 150.79M46.84 150.79L48.3 150.42"/>
<path d="M121.32 184.75L122.42 184.75"/>
<path d="M144.32 178.54L145.05 177.81M145.05 177.81L145.78 177.44"/>
<path d="M154.18 177.44L155.28 177.81M155.28 177.81L155.64 178.54"/>
<path d="M112.92 178.54L113.29 177.81M113.29 177.81L114.02 177.44"/>
<path d="M122.78 177.44L123.88 177.81M123.88 177.81L124.24 178.54"/>
<path d="M81.16 178.54L81.89 177.81M81.89 177.81L82.62 177.44"/>
<path d="M91.38 177.44L92.11 177.81M92.11 177.81L92.48 178.54"/>
<path d="M74.22 198.98L74.59 197.89M74.59 197.89L75.68 197.52"/>
<path d="M44.65 118.3L45.01 116.1M45.01 116.1L45.38 114.28M45.38 114.28L46.47 112.45M46.47 112.45L47.57 110.99M47.57 110.99L49.03 109.9M49.03 109.9L50.86 109.17M50.86 109.17L52.68 108.44M52.68 108.44L54.51 108.07"/>
<path d="M50.86 118.3L51.22 116.83M51.22 116.83L51.95 115.74M51.95 115.74L53.05 114.64M53.05 114.64L54.51 114.64"/>
<path d="M185.95 174.89L187.41 175.25M187.41 175.25L188.5 175.98M188.5 175.98L189.6 177.08M189.6 177.08L189.6 178.54"/>
<path d="M173.53 178.54L173.9 177.08M173.9 177.08L174.63 175.98M174.63 175.98L175.72 175.25M175.72 175.25L177.18 174.89"/>
<path d="M217.35 174.89L218.81 175.25M218.81 175.25L220.27 175.98M220.27 175.98L221 177.08M221 177.08L221 178.54"/>
<path d="M204.93 178.54L205.3 177.08M205.3 177.08L206.03 175.98M206.03 175.98L207.12 175.25M207.12 175.25L208.58 174.89"/>
<path d="M249.11 174.89L250.57 175.25M250.57 175.25L251.67 175.98M251.67 175.98L252.4 177.08M252.4 177.08L252.76 178.54"/>
<path d="M236.7 178.54L236.7 177.08M236.7 177.08L237.79 175.98M237.79 175.98L238.89 175.25M238.89 175.25L240.35 174.89"/>
<path d="M280.51 174.89L281.97 175.25M281.97 175.25L283.43 175.98M283.43 175.98L284.16 177.08M284.16 177.08L284.16 178.54"/>
<path d="M268.1 178.54L268.46 177.08M268.46 177.08L269.19 175.98M269.19 175.98L270.29 175.25M270.29 175.25L271.75 174.89"/>
<path d="M279.05 184.75L279.78 184.75"/>
<path d="M270.65 178.54L271.02 177.81M271.02 177.81L271.75 177.44"/>
<path d="M280.51 177.44L281.61 177.81M281.61 177.81L281.97 178.54"/>
<path d="M238.89 178.54L239.62 177.81M239.62 177.81L240.35 177.44"/>
<path d="M249.11 177.44L249.84 177.81M249.84 177.81L250.21 178.54"/>
<path d="M207.49 178.54L207.85 177.81M207.85 177.81L208.58 177.44"/>
<path d="M217.35 177.44L218.44 177.81M218.44 177.81L218.81 178.54"/>
<path d="M175.72 178.54L176.45 177.81M176.45 177.81L177.18 177.44"/>
<path d="M185.95 177.44L186.68 177.81M186.68 177.81L187.04 178.54"/>
<path d="M212.23 197.52L212.97 197.89M212.97 197.89L213.33 198.98"/>
<path d="M231.95 198.98L232.32 197.89M232.32 197.89L233.41 197.52"/>
<path d="M197.27 106.25L197.27 108.07M197.27 108.07L196.17 109.53M196.17 109.53L194.71 110.63M194.71 110.63L192.88 110.99"/>
<path d="M216.25 97.12L216.98 95.66M216.98 95.66L217.71 94.56M217.71 94.56L218.81 93.47M218.81 93.47L219.9 93.47"/>
<path d="M230.13 82.88L230.49 81.42M230.49 81.42L231.22 79.96M231.22 79.96L232.68 79.23M232.68 79.23L234.14 78.86"/>
<path d="M300.96 139.11L300.59 140.57M300.59 140.57L299.86 142.03M299.86 142.03L298.77 142.76M298.77 142.76L296.94 143.12"/>
<path d="M300.96 125.6L300.59 127.06M300.59 127.06L299.86 128.15M299.86 128.15L298.77 128.88M298.77 128.88L296.94 129.61"/>
<path d="M249.84 129.61L248.38 128.88M248.38 128.88L247.29 128.15M247.29 128.15L246.56 127.06M246.56 127.06L246.19 125.6"/>
<path d="M249.84 143.12L248.38 142.76M248.38 142.76L247.29 142.03M247.29 142.03L246.56 140.57M246.56 140.57L246.19 139.11"/>
<path d="M230.13 82.88L230.13 83.24"/>
<path d="M194.71 83.61L195.07 82.51M195.07 82.51L195.8 81.42M195.8 81.42L196.54 81.05M196.54 81.05L197.27 80.69"/>
<path d="M203.47 80.69L204.57 81.05M204.57 81.05L205.3 81.42M205.3 81.42L206.03 82.51M206.03 82.51L206.03 83.61"/>
<path d="M206.39 81.78L206.76 82.88M206.76 82.88L206.76 83.61"/>
<path d="M189.6 109.9L189.96 108.8M189.96 108.8L191.42 108.07"/>
<path d="M195.07 106.25L194.34 107.71M194.34 107.71L192.88 108.19"/>
<path d="M303.51 261.42L302.05 261.05M302.05 261.05L300.59 260.32M300.59 260.32L299.86 258.86M299.86 258.86L299.86 257.4"/>
<path d="M315.56 257.4L315.56 258.86M315.56 258.86L314.83 260.32M314.83 260.32L313.37 261.05M313.37 261.05L311.91 261.42"/>
<path d="M334.91 261.42L333.45 261.05M333.45 261.05L332.36 260.32M332.36 260.32L331.63 258.86M331.63 258.86L331.26 257.4"/>
<path d="M347.33 257.4L346.96 258.86M346.96 258.86L346.23 260.32M346.23 260.32L345.14 261.05M345.14 261.05L343.67 261.42"/>
<path d="M366.31 261.42L364.85 261.05M364.85 261.05L363.76 260.32M363.76 260.32L363.03 258.86M363.03 258.86L362.66 257.4"/>
<path d="M378.73 257.4L378.36 258.86M378.36 258.86L377.63 260.32M377.63 260.32L376.53 261.05M376.53 261.05L375.07 261.42"/>
<path d="M358.28 231.48L358.64 230.75M358.64 230.75L359.01 229.65M359.01 229.65L359.74 229.29M359.74 229.29L360.84 229.29"/>
<path d="M369.23 229.29L368.5 229.29"/>
<path d="M326.88 231.48L326.88 230.75M326.88 230.75L327.61 229.65M327.61 229.65L328.34 229.29M328.34 229.29L329.07 229.29"/>
<path d="M337.1 229.29L337.83 229.29M337.83 229.29L338.56 229.65M338.56 229.65L339.29 230.75M339.29 230.75L339.29 231.48"/>
<path d="M305.34 229.29L306.43 229.29M306.43 229.29L307.16 229.65M307.16 229.65L307.53 230.75M307.53 230.75L307.89 231.48"/>
<path d="M368.5 207.38L369.23 207.02"/>
<path d="M360.84 207.38L359.74 207.02M359.74 207.02L359.01 206.65M359.01 206.65L358.64 205.56M358.64 205.56L358.28 204.83"/>
<path d="M339.29 204.83L339.29 205.56M339.29 205.56L338.56 206.65M338.56 206.65L337.83 207.02M337.83 207.02L337.1 207.38"/>
<path d="M329.07 207.38L328.34 207.02M328.34 207.02L327.61 206.65M327.61 206.65L326.88 205.56M326.88 205.56L326.88 204.83"/>
<path d="M307.89 204.83L307.53 205.56M307.53 205.56L307.16 206.65M307.16 206.65L306.43 207.02M306.43 207.02L305.34 207.38"/>
<path d="M376.53 257.77L376.17 258.5M376.17 258.5L375.07 258.86"/>
<path d="M366.31 258.86L365.58 258.5M365.58 258.5L365.22 257.77"/>
<path d="M344.77 257.77L344.41 258.5M344.41 258.5L343.67 258.86"/>
<path d="M334.91 258.86L334.18 258.5M334.18 258.5L333.45 257.77"/>
<path d="M313.37 257.77L313.01 258.5M313.01 258.5L311.91 258.86"/>
<path d="M303.51 258.86L302.42 258.5M302.42 258.5L302.05 257.77"/>
<path d="M371.06 237.69L370.69 238.42M370.69 238.42L369.96 238.78"/>
<path d="M552.15 319.47L551.79 321.3M551.79 321.3L551.42 323.12M551.42 323.12L550.33 324.95M550.33 324.95L549.23 326.41M549.23 326.41L547.77 327.5M547.77 327.5L546.31 328.6M546.31 328.6L544.49 328.96M544.49 328.96L542.3 329.33"/>
<path d="M552.15 282.23L551.79 283.69M551.79 283.69L551.06 284.79M551.06 284.79L549.96 285.52M549.96 285.52L548.5 285.88"/>
<path d="M536.09 304.5L534.63 304.14M534.63 304.14L533.53 303.41M533.53 303.41L532.44 302.31M532.44 302.31L532.44 300.49"/>
<path d="M552.15 300.49L551.79 302.31M551.79 302.31L551.06 303.41M551.06 303.41L549.96 304.14M549.96 304.14L548.5 304.5"/>
<path d="M545.95 319.47L545.58 320.93M545.58 320.93L544.85 322.03M544.85 322.03L543.76 322.76M543.76 322.76L542.3 323.12"/>
<path d="M552.15 260.32L551.79 261.78M551.79 261.78L551.06 265.43"/>
<path d="M395.52 146.77L395.52 148.23M395.52 148.23L395.16 149.69M395.16 149.69L394.43 150.79M394.43 150.79L393.7 151.89M393.7 151.89L392.6 152.98M392.6 152.98L391.14 153.71M391.14 153.71L389.68 154.08M389.68 154.08L388.22 154.08"/>
<path d="M311.91 174.89L313.37 175.25M313.37 175.25L314.83 175.98M314.83 175.98L315.56 177.08M315.56 177.08L315.56 178.54"/>
<path d="M299.86 178.54L299.86 177.08M299.86 177.08L300.59 175.98M300.59 175.98L302.05 175.25M302.05 175.25L303.51 174.89"/>
<path d="M343.67 174.89L345.14 175.25M345.14 175.25L346.23 175.98M346.23 175.98L346.96 177.08M346.96 177.08L347.33 178.54"/>
<path d="M331.26 178.54L331.63 177.08M331.63 177.08L332.36 175.98M332.36 175.98L333.45 175.25M333.45 175.25L334.91 174.89"/>
<path d="M375.07 174.89L376.53 175.25M376.53 175.25L377.63 175.98M377.63 175.98L378.36 177.08M378.36 177.08L378.73 178.54"/>
<path d="M362.66 178.54L363.03 177.08M363.03 177.08L363.76 175.98M363.76 175.98L364.85 175.25M364.85 175.25L366.31 174.89"/>
<path d="M391.87 146.77L391.5 148.23M391.5 148.23L390.77 149.33M390.77 149.33L389.68 150.06M389.68 150.06L388.22 150.42"/>
<path d="M365.22 178.54L365.58 177.81M365.58 177.81L366.31 177.44"/>
<path d="M375.07 177.44L376.17 177.81M376.17 177.81L376.53 178.54"/>
<path d="M333.45 178.54L334.18 177.81M334.18 177.81L334.91 177.44"/>
<path d="M343.67 177.44L344.41 177.81M344.41 177.81L344.77 178.54"/>
<path d="M302.05 178.54L302.42 177.81M302.42 177.81L303.51 177.44"/>
<path d="M311.91 177.44L313.01 177.81M313.01 177.81L313.37 178.54"/>
<path d="M369.96 197.52L370.69 197.89M370.69 197.89L371.06 198.98"/>
<path d="M391.87 124.14L391.87 123.04M391.87 123.04L392.23 121.58M392.23 121.58L392.6 120.49M392.6 120.49L392.96 119.39M392.96 119.39L393.33 118.3M393.33 118.3L394.06 117.2M394.06 117.2L394.79 116.47M394.79 116.47L395.52 115.37M395.52 115.37L396.62 114.64M396.62 114.64L397.35 113.91M397.35 113.91L398.44 113.55M398.44 113.55L399.54 112.82M399.54 112.82L400.63 112.45M400.63 112.45L401.73 112.09M401.73 112.09L403.19 112.09M403.19 112.09L404.28 111.72"/>
<path d="M391.87 110.99L391.87 109.53M391.87 109.53L392.23 108.07M392.23 108.07L392.6 106.98M392.6 106.98L392.96 105.88M392.96 105.88L393.33 104.79M393.33 104.79L394.06 103.69M394.06 103.69L394.79 102.6M394.79 102.6L395.52 101.87M395.52 101.87L396.62 101.13M396.62 101.13L397.35 100.4M397.35 100.4L398.44 99.67M398.44 99.67L399.54 99.31M399.54 99.31L400.63 98.94M400.63 98.94L401.73 98.58M401.73 98.58L403.19 98.21M403.19 98.21L404.28 98.58"/>
<path d="M395.52 124.5L395.89 122.68M395.89 122.68L396.25 120.85M396.25 120.85L396.98 119.39M396.98 119.39L398.08 118.3M398.08 118.3L399.54 117.2M399.54 117.2L401 116.1M401 116.1L402.46 115.74M402.46 115.74L404.28 115.74"/>
<path d="M354.26 110.99L352.44 110.63M352.44 110.63L350.98 109.53M350.98 109.53L350.25 108.07M350.25 108.07L349.88 106.25"/>
<path d="M326.88 93.47L328.34 93.47M328.34 93.47L329.8 94.56M329.8 94.56L330.53 95.66M330.53 95.66L330.53 97.12"/>
<path d="M313.37 78.86L314.83 79.23M314.83 79.23L315.93 79.96M315.93 79.96L316.66 81.42M316.66 81.42L317.02 82.88"/>
<path d="M392.96 105.88L392.23 106.98M392.23 106.98L391.5 107.71M391.5 107.71L390.41 108.07M390.41 108.07L389.31 108.07"/>
<path d="M317.02 83.24L317.02 82.88"/>
<path d="M340.39 83.61L340.39 82.88M340.39 82.88L341.85 80.69"/>
<path d="M349.52 80.69L350.98 81.05M350.98 81.05L351.71 81.42M351.71 81.42L352.07 82.51M352.07 82.51L352.44 83.61"/>
<path d="M341.12 83.61L341.48 82.51M341.48 82.51L341.85 81.42M341.85 81.42L342.58 81.05M342.58 81.05L343.67 80.69"/>
<path d="M356.09 108.07L357.18 108.8M357.18 108.8L357.91 109.9"/>
<path d="M354.26 108.07L352.8 107.71M352.8 107.71L352.44 106.25"/>
<path d="M535.72 169.78L537.18 170.14M537.18 170.14L538.28 170.87M538.28 170.87L539.01 171.97M539.01 171.97L539.37 173.43"/>
<path d="M539.74 111.72L540.83 112.09M540.83 112.09L542.3 112.09M542.3 112.09L543.39 112.45M543.39 112.45L544.49 112.82M544.49 112.82L545.58 113.55M545.58 113.55L546.68 113.91M546.68 113.91L547.41 114.64M547.41 114.64L548.5 115.37M548.5 115.37L549.23 116.47M549.23 116.47L549.96 117.2M549.96 117.2L550.69 118.3M550.69 118.3L551.06 119.39M551.06 119.39L551.42 120.49M551.42 120.49L551.79 121.58M551.79 121.58L552.15 123.04M552.15 123.04L552.15 124.14"/>
<path d="M539.74 98.58L540.83 98.21M540.83 98.21L542.3 98.58M542.3 98.58L543.39 98.94M543.39 98.94L544.49 99.31M544.49 99.31L545.58 99.67M545.58 99.67L546.68 100.4M546.68 100.4L547.41 101.13M547.41 101.13L548.5 101.87M548.5 101.87L549.23 102.6M549.23 102.6L549.96 103.69M549.96 103.69L550.69 104.79M550.69 104.79L551.06 105.88M551.06 105.88L551.42 106.98M551.42 106.98L551.79 108.07M551.79 108.07L552.15 109.53M552.15 109.53L552.15 110.99"/>
<path d="M539.74 115.74L541.57 115.74M541.57 115.74L543.03 116.1M543.03 116.1L544.49 117.2M544.49 117.2L545.95 118.3M545.95 118.3L547.04 119.39M547.04 119.39L547.77 120.85M547.77 120.85L548.14 122.68M548.14 122.68L548.5 124.5"/>
<path d="M45.74 172.7L49.4 176.35"/>
<path d="M57.43 172.7L59.98 174.89"/>
<path d="M551.06 181.46L547.41 185.11"/>
<path d="M539.37 181.46L535.36 185.11"/>
<path d="M401 169.78L400.27 173.43"/>
<path d="M382.38 163.57L381.65 167.22"/>
<path d="M45.74 273.1L49.4 269.45"/>
<path d="M551.06 273.1L547.41 269.45"/>
<path d="M372.15 185.11L372.15 184.75"/>
<path d="M88.1 185.11L88.1 184.75"/>
<path d="M340.39 185.11L340.39 184.75"/>
<path d="M308.99 185.11L308.99 184.75"/>
<path d="M119.5 185.11L119.5 184.75"/>
<path d="M277.22 185.11L277.22 184.75"/>
<path d="M151.26 185.11L151.26 184.75"/>
<path d="M245.83 185.11L245.83 184.75"/>
<path d="M214.43 185.11L214.43 184.75"/>
<path d="M182.66 185.11L182.66 184.75"/>
<path d="M356.09 108.07L356.09 108.44M356.09 108.44L355.72 108.44M355.72 108.44L355.72 108.8M355.72 108.8L355.36 109.53M355.36 109.53L354.99 110.99"/>
<path d="M205.66 102.23L205.66 99.67"/>
<path d="M206.03 83.61L206.03 84.34M206.03 84.34L205.66 86.53M205.66 86.53L205.66 99.67"/>
<path d="M205.66 99.67L205.66 102.23"/>
<path d="M341.12 102.23L341.12 99.67"/>
<path d="M341.12 102.23L341.12 99.67"/>
<path d="M341.12 99.67L341.12 83.61"/>
<path d="M189.6 109.9L189.96 110.26M189.96 110.26L190.69 110.63M190.69 110.63L191.79 110.99"/>
<path d="M230.13 87.63L230.13 86.9M230.13 86.9L230.49 86.17M230.49 86.17L231.22 85.44M231.22 85.44L231.95 84.7M231.95 84.7L233.78 84.7"/>
<path d="M230.13 82.88L230.13 81.78M230.13 81.78L230.86 81.42"/>
<path d="M230.86 81.42L231.22 80.69M231.22 80.69L231.95 80.32M231.95 80.32L233.05 79.96M233.05 79.96L233.78 79.96"/>
<path d="M317.02 82.88L316.66 81.78M316.66 81.78L316.29 81.42"/>
<path d="M316.29 81.42L315.56 80.69M315.56 80.69L314.83 80.32M314.83 80.32L314.1 79.96M314.1 79.96L313.37 79.96"/>
<path d="M205.66 105.88L204.57 109.17M204.57 109.17L203.47 112.09"/>
<path d="M204.2 80.69L204.93 81.05M204.93 81.05L205.66 81.05M205.66 81.05L205.66 81.78M205.66 81.78L206.39 81.78"/>
<path d="M205.66 102.23L205.66 104.06M205.66 104.06L205.66 105.88"/>
<path d="M343.67 112.09L342.58 109.17M342.58 109.17L341.85 105.88"/>
<path d="M341.85 105.88L341.12 104.06M341.12 104.06L341.12 102.23"/>
<path d="M354.99 110.99L356.45 110.63M356.45 110.63L356.82 110.26M356.82 110.26L357.91 109.9"/>
<path d="M191.79 110.99L191.79 109.53M191.79 109.53L191.42 109.17M191.42 109.17L191.42 108.07"/>
<path d="M391.87 110.99L391.5 111.36M391.5 111.36L389.68 111.72M389.68 111.72L388.22 112.09"/>
<path d="M203.47 80.69L203.47 105.88"/>
<path d="M343.67 105.88L343.67 80.69"/>
<path d="M317.02 87.63L316.66 86.9M316.66 86.9L316.66 86.17M316.66 86.17L315.93 85.44M315.93 85.44L315.2 84.7M315.2 84.7L313.37 84.7"/>
<path d="M388.22 112.09L388.58 109.9M388.58 109.9L388.95 109.17M388.95 109.17L389.31 108.07"/>
<path d="M91.38 185.48L91.02 185.11M91.02 185.11L90.65 185.11"/>
<path d="M375.07 185.48L374.71 185.11M374.71 185.11L374.34 185.11"/>
<path d="M343.67 185.48L343.31 185.11M343.31 185.11L342.94 185.11"/>
<path d="M122.78 185.48L122.42 185.11"/>
<path d="M311.91 185.48L311.91 185.11M311.91 185.11L311.18 185.11"/>
<path d="M154.18 185.48L154.18 185.11M154.18 185.11L153.82 185.11"/>
<path d="M280.51 185.48L280.15 185.11M280.15 185.11L279.78 185.11"/>
<path d="M249.11 185.48L248.75 185.11M248.75 185.11L248.02 185.11"/>
<path d="M185.95 185.48L185.58 185.11M185.58 185.11L185.22 185.11"/>
<path d="M217.35 185.48L216.98 185.11"/>
<path d="M206.76 83.61L206.76 84.7"/>
<path d="M340.39 84.7L340.39 83.61"/>
<path d="M276.13 304.14L295.48 304.14"/>
<path d="M325.42 304.14L344.77 304.14"/>
<path d="M277.59 299.03L294.38 299.03"/>
<path d="M326.88 299.03L343.67 299.03"/>
<path d="M321.77 289.17L299.13 289.17"/>
<path d="M298.04 303.04L294.38 299.03"/>
<path d="M347.33 303.04L343.67 299.03"/>
<path d="M272.48 285.88L272.48 300.49"/>
<path d="M277.59 285.88L277.59 299.03"/>
<path d="M294.38 299.03L294.38 285.88"/>
<path d="M299.13 300.49L299.13 285.88"/>
<path d="M321.77 285.88L321.77 300.49"/>
<path d="M326.88 285.88L326.88 299.03"/>
<path d="M343.67 299.03L343.67 285.88"/>
<path d="M348.42 300.49L348.42 285.88"/>
<path d="M273.57 303.04L277.59 299.03"/>
<path d="M322.86 303.04L326.88 299.03"/>
<path d="M299.13 300.49L299.13 301.95M299.13 301.95L298.4 303.04M298.4 303.04L296.94 303.77M296.94 303.77L295.48 304.14"/>
<path d="M276.13 304.14L274.67 303.77M274.67 303.77L273.57 303.04M273.57 303.04L272.84 301.95M272.84 301.95L272.48 300.49"/>
<path d="M348.42 300.49L348.42 301.95M348.42 301.95L347.33 303.04M347.33 303.04L346.23 303.77M346.23 303.77L344.77 304.14"/>
<path d="M325.42 304.14L323.96 303.77M323.96 303.77L322.86 303.04M322.86 303.04L322.13 301.95M322.13 301.95L321.77 300.49"/>
</g>
</g>
</svg>
