<?xml version="1.0" standalone="no"?><svg xmlns="http://www.w3.org/2000/svg" width="600.000" height="450.000" viewBox="0.0 0.0 600.000 450.000" version="1.1">
<title>Acme Converter - Post-processed with EDS-Designer: 14.44 (info@symca.com)</title>
<desc>Acme Converter - Post-processed with EDS-Designer: 14.44 (info@symca.com)</desc>
<g id="EDS_STYLE_GROUP" fill="none" stroke="black" stroke-width="1.0">
<g id="0" display="visible">
<path d="M238.84 388.55L238.84 361.6M240.12 361.6L240.12 388.55M234.99 361.6L250.38 361.6M250.38 361.6L254.23 362.88M254.23 362.88L255.52 364.17M255.52 364.17L256.8 366.73M256.8 366.73L256.8 369.3M256.8 369.3L255.52 371.87M255.52 371.87L254.23 373.15M254.23 373.15L250.38 374.43M250.38 361.6L252.95 362.88M252.95 362.88L254.23 364.17M254.23 364.17L255.52 366.73M255.52 366.73L255.52 369.3M255.52 369.3L254.23 371.87M254.23 371.87L252.95 373.15M252.95 373.15L250.38 374.43M240.12 374.43L250.38 374.43M250.38 374.43L254.23 375.72M254.23 375.72L255.52 377M255.52 377L256.8 379.56M256.8 379.56L256.8 383.41M256.8 383.41L255.52 385.98M255.52 385.98L254.23 387.26M254.23 387.26L250.38 388.55M250.38 388.55L234.99 388.55M250.38 374.43L252.95 375.72M252.95 375.72L254.23 377M254.23 377L255.52 379.56M255.52 379.56L255.52 383.41M255.52 383.41L254.23 385.98M254.23 385.98L252.95 387.26M252.95 387.26L250.38 388.55M267.07 388.55L267.07 361.6M268.35 361.6L268.35 388.55M263.22 361.6L272.2 361.6M263.22 388.55L282.46 388.55M282.46 388.55L282.46 380.85M282.46 380.85L281.18 388.55M297.86 361.6L288.88 388.55M297.86 361.6L306.85 388.55M297.86 365.45L305.56 388.55M291.45 380.85L303 380.85M286.31 388.55L294.01 388.55M301.71 388.55L309.41 388.55M331.23 365.45L332.51 369.3M332.51 369.3L332.51 361.6M332.51 361.6L331.23 365.45M331.23 365.45L328.66 362.88M328.66 362.88L324.81 361.6M324.81 361.6L322.24 361.6M322.24 361.6L318.4 362.88M318.4 362.88L315.83 365.45M315.83 365.45L314.55 368.02M314.55 368.02L313.26 371.87M313.26 371.87L313.26 378.28M313.26 378.28L314.55 382.13M314.55 382.13L315.83 384.7M315.83 384.7L318.4 387.26M318.4 387.26L322.24 388.55M322.24 388.55L324.81 388.55M324.81 388.55L328.66 387.26M328.66 387.26L331.23 384.7M331.23 384.7L332.51 382.13M322.24 361.6L319.68 362.88M319.68 362.88L317.11 365.45M317.11 365.45L315.83 368.02M315.83 368.02L314.55 371.87M314.55 371.87L314.55 378.28M314.55 378.28L315.83 382.13M315.83 382.13L317.11 384.7M317.11 384.7L319.68 387.26M319.68 387.26L322.24 388.55M344.06 388.55L344.06 361.6M345.34 361.6L345.34 388.55M362.02 361.6L345.34 378.28M351.76 373.15L362.02 388.55M350.48 373.15L360.74 388.55M340.21 361.6L349.19 361.6M356.89 361.6L364.59 361.6M340.21 388.55L349.19 388.55M356.89 388.55L364.59 388.55"/>
<path d="M164.62 253.16L164.62 153.82"/>
<path d="M164.78 253.16L164.78 153.82"/>
<path d="M169.45 230.66L169.45 176.33"/>
<path d="M207.3 334.65L249.21 334.65"/>
<path d="M350.11 334.65L392.02 334.65"/>
<path d="M288.79 331.55L310.53 331.55"/>
<path d="M202.65 330L249.21 330"/>
<path d="M350.11 330L396.67 330"/>
<path d="M200.98 290.44L200.98 290.44"/>
<path d="M200.97 290.44L201.02 290.48"/>
<path d="M201.02 290.48L201.17 290.61M201.17 290.61L201.38 290.81M201.38 290.81L201.6 291.07M201.6 291.07L201.82 291.36M201.82 291.36L202.02 291.68M202.02 291.68L202.2 292.02"/>
<path d="M202.21 292.03L202.35 292.36M202.35 292.36L202.45 292.66"/>
<path d="M180.14 246.18L180.14 160.81"/>
<path d="M184.51 283.43L184.51 288.09"/>
<path d="M202.35 292.37L202.47 292.73M202.47 292.73L202.51 292.88"/>
<path d="M187.9 246.18L187.9 160.81"/>
<path d="M189.45 241.52L189.45 165.46"/>
<path d="M197.22 241.52L197.22 165.46"/>
<path d="M361.75 308.26L350.11 308.26"/>
<path d="M249.21 308.26L237.57 308.26"/>
<path d="M361.75 303.61L237.57 303.61"/>
<path d="M202.65 294.01L202.5 292.84"/>
<path d="M202.65 294.01L202.65 330"/>
<path d="M207.3 334.65L207.3 300.38"/>
<path d="M361.75 295.85L237.57 295.85"/>
<path d="M357.09 294.3L242.23 294.3"/>
<path d="M184.51 288.09L198.55 288.09"/>
<path d="M400.77 288.09L414.81 288.09"/>
<path d="M357.09 286.53L242.23 286.53"/>
<path d="M212.74 251.61L212.74 155.37"/>
<path d="M215.84 251.61L215.84 155.37"/>
<path d="M220.5 155.37L220.5 186.42"/>
<path d="M220.5 220.57L220.5 251.61"/>
<path d="M184.51 283.43L194.21 283.43"/>
<path d="M405.12 283.43L414.81 283.43"/>
<path d="M230.59 186.42L230.59 220.57"/>
<path d="M231.36 262.48L231.36 267.13"/>
<path d="M231.36 270.24L231.36 285.2"/>
<path d="M231.36 144.51L231.36 139.85"/>
<path d="M231.36 136.75L231.36 121.78"/>
<path d="M232.92 149.17L232.92 174"/>
<path d="M233.69 270.24L233.69 285.72"/>
<path d="M233.69 136.75L233.69 121.27"/>
<path d="M236.8 270.24L236.8 286.21"/>
<path d="M231.36 270.24L367.96 270.24"/>
<path d="M231.36 267.13L367.96 267.13"/>
<path d="M231.36 262.48L263.73 262.48"/>
<path d="M283.91 262.48L315.41 262.48"/>
<path d="M335.59 262.48L367.96 262.48"/>
<path d="M237.57 103.38L237.57 111.14"/>
<path d="M237.57 308.26L237.57 295.85"/>
<path d="M242.23 112.69L242.23 120.45"/>
<path d="M242.23 294.3L242.23 286.53"/>
<path d="M243.01 92.51L243.01 87.85"/>
<path d="M246.11 220.57L246.11 186.42"/>
<path d="M249.21 334.65L249.21 303.61"/>
<path d="M430.04 257.82L417.99 257.82"/>
<path d="M181.33 257.82L169.28 257.82"/>
<path d="M434.7 253.16L418.75 253.16"/>
<path d="M180.57 253.16L164.62 253.16"/>
<path d="M220.5 251.61L215.84 251.61"/>
<path d="M212.74 251.61L198.36 251.61"/>
<path d="M378.82 251.61L383.48 251.61"/>
<path d="M386.58 251.61L400.96 251.61"/>
<path d="M253.09 120.45L253.09 103.38"/>
<path d="M256.2 174L256.2 149.17"/>
<path d="M257.75 286.53L257.75 270.24"/>
<path d="M260.86 111.14L260.86 112.69"/>
<path d="M261.24 196.9L261.24 210.09"/>
<path d="M335.59 246.95L315.41 246.95"/>
<path d="M283.91 246.95L263.73 246.95"/>
<path d="M419.18 246.18L411.42 246.18"/>
<path d="M180.14 246.18L187.9 246.18"/>
<path d="M409.87 241.52L402.1 241.52"/>
<path d="M189.45 241.52L197.22 241.52"/>
<path d="M212.74 240.74L197.22 240.74"/>
<path d="M386.58 240.74L402.1 240.74"/>
<path d="M263.73 267.13L263.73 246.95"/>
<path d="M263.73 160.03L263.73 139.85"/>
<path d="M267.61 172.45L267.61 196.9"/>
<path d="M267.61 210.09L267.61 234.54"/>
<path d="M268.62 103.38L268.62 120.45"/>
<path d="M207.3 300.39L209.58 296.32"/>
<path d="M267.61 234.54L280.02 234.54"/>
<path d="M319.3 234.54L331.71 234.54"/>
<path d="M180.14 230.66L169.45 230.66"/>
<path d="M419.18 230.66L429.87 230.66"/>
<path d="M180.14 229.88L197.22 229.88"/>
<path d="M402.1 229.88L419.18 229.88"/>
<path d="M280.02 234.54L280.02 210.09"/>
<path d="M280.02 196.9L280.02 172.45"/>
<path d="M283.91 267.13L283.91 246.95"/>
<path d="M283.91 160.03L283.91 139.85"/>
<path d="M286.39 210.09L286.39 196.9"/>
<path d="M288.02 61.47L288.02 103.38"/>
<path d="M215.84 220.57L246.11 220.57"/>
<path d="M353.21 220.57L383.48 220.57"/>
<path d="M212.74 219.01L197.22 219.01"/>
<path d="M386.58 219.01L402.1 219.01"/>
<path d="M261.24 210.09L267.61 210.09"/>
<path d="M280.02 210.09L286.39 210.09"/>
<path d="M312.93 210.09L319.3 210.09"/>
<path d="M331.71 210.09L338.08 210.09"/>
<path d="M288.79 303.61L288.79 331.55"/>
<path d="M411.42 206.6L409.87 206.6"/>
<path d="M189.45 206.6L187.9 206.6"/>
<path d="M338.08 196.9L331.71 196.9"/>
<path d="M319.3 196.9L312.93 196.9"/>
<path d="M286.39 196.9L280.02 196.9"/>
<path d="M267.61 196.9L261.24 196.9"/>
<path d="M417.38 282.07L421.23 284.67"/>
<path d="M310.53 303.61L310.53 331.55"/>
<path d="M311.3 61.47L311.3 103.38"/>
<path d="M312.93 196.9L312.93 210.09"/>
<path d="M181.94 282.07L178.09 284.67"/>
<path d="M212.74 190.3L197.22 190.3"/>
<path d="M386.58 190.3L402.1 190.3"/>
<path d="M215.84 186.42L246.11 186.42"/>
<path d="M353.21 186.42L383.48 186.42"/>
<path d="M315.41 267.13L315.41 246.95"/>
<path d="M315.41 160.03L315.41 139.85"/>
<path d="M319.3 172.45L319.3 196.9"/>
<path d="M319.3 210.09L319.3 234.54"/>
<path d="M236.02 177.11L253.09 177.11"/>
<path d="M346.23 177.11L363.3 177.11"/>
<path d="M180.14 176.33L169.45 176.33"/>
<path d="M419.18 176.33L429.87 176.33"/>
<path d="M331.71 172.45L319.3 172.45"/>
<path d="M280.02 172.45L267.61 172.45"/>
<path d="M330.7 103.38L330.7 120.45"/>
<path d="M331.71 234.54L331.71 210.09"/>
<path d="M331.71 196.9L331.71 172.45"/>
<path d="M335.59 267.13L335.59 246.95"/>
<path d="M335.59 160.03L335.59 139.85"/>
<path d="M338.08 210.09L338.08 196.9"/>
<path d="M338.46 111.14L338.46 112.69"/>
<path d="M409.87 165.46L402.1 165.46"/>
<path d="M189.45 165.46L197.22 165.46"/>
<path d="M212.74 163.14L197.28 163.14"/>
<path d="M386.58 163.14L402.04 163.14"/>
<path d="M419.18 160.81L411.42 160.81"/>
<path d="M180.14 160.81L187.9 160.81"/>
<path d="M335.59 160.03L315.41 160.03"/>
<path d="M283.91 160.03L263.73 160.03"/>
<path d="M389.75 296.32L392.02 300.39"/>
<path d="M343.12 149.17L343.12 174"/>
<path d="M346.23 120.45L346.23 103.38"/>
<path d="M350.11 334.65L350.11 303.61"/>
<path d="M220.5 155.37L215.84 155.37"/>
<path d="M212.74 155.37L198.36 155.37"/>
<path d="M386.58 155.37L400.96 155.37"/>
<path d="M378.82 155.37L383.48 155.37"/>
<path d="M164.62 153.82L180.57 153.82"/>
<path d="M418.75 153.82L434.7 153.82"/>
<path d="M169.28 149.17L181.33 149.17"/>
<path d="M417.99 149.17L430.04 149.17"/>
<path d="M363.3 146.06L346.23 146.06"/>
<path d="M253.09 146.06L236.02 146.06"/>
<path d="M353.21 220.57L353.21 186.42"/>
<path d="M356.31 92.51L356.31 87.85"/>
<path d="M357.09 112.69L357.09 120.45"/>
<path d="M357.09 294.3L357.09 286.53"/>
<path d="M361.75 103.38L361.75 111.14"/>
<path d="M361.75 308.26L361.75 295.85"/>
<path d="M367.96 144.51L335.59 144.51"/>
<path d="M315.41 144.51L283.91 144.51"/>
<path d="M263.73 144.51L231.36 144.51"/>
<path d="M367.96 139.85L231.36 139.85"/>
<path d="M231.36 136.75L367.96 136.75"/>
<path d="M365.63 270.24L365.63 285.72"/>
<path d="M365.63 136.75L365.63 121.27"/>
<path d="M366.4 174L366.4 149.17"/>
<path d="M367.96 262.48L367.96 267.13"/>
<path d="M367.96 270.24L367.96 285.2"/>
<path d="M367.96 144.51L367.96 139.85"/>
<path d="M367.96 136.75L367.96 121.78"/>
<path d="M368.73 186.42L368.73 220.57"/>
<path d="M242.23 120.45L357.09 120.45"/>
<path d="M378.82 251.61L378.82 220.57"/>
<path d="M378.82 186.42L378.82 155.37"/>
<path d="M383.48 251.61L383.48 155.37"/>
<path d="M386.58 251.61L386.58 155.37"/>
<path d="M242.23 112.69L357.09 112.69"/>
<path d="M237.57 111.14L361.75 111.14"/>
<path d="M392.02 334.65L392.02 300.39"/>
<path d="M396.67 330L396.67 294.01"/>
<path d="M402.1 165.46L402.1 241.52"/>
<path d="M237.57 103.38L361.75 103.38"/>
<path d="M409.87 165.46L409.87 241.52"/>
<path d="M411.42 160.81L411.42 246.18"/>
<path d="M414.81 283.43L414.81 288.09"/>
<path d="M396.67 294.01L396.82 292.84"/>
<path d="M356.31 92.51L311.3 92.51"/>
<path d="M288.02 92.51L243.01 92.51"/>
<path d="M356.31 87.85L311.3 87.85"/>
<path d="M288.02 87.85L243.01 87.85"/>
<path d="M419.18 160.81L419.18 246.18"/>
<path d="M396.81 292.88L396.84 292.77M396.84 292.77L396.85 292.75"/>
<path d="M396.82 292.84L396.9 292.58M396.9 292.58L397.02 292.24M397.02 292.24L397.19 291.89M397.19 291.89L397.38 291.54M397.38 291.54L397.6 291.22M397.6 291.22L397.84 290.93M397.84 290.93L398.07 290.69M398.07 290.69L398.26 290.51M398.26 290.51L398.34 290.44M398.34 290.44L398.35 290.44"/>
<path d="M288.02 76.99L311.3 76.99"/>
<path d="M429.87 230.66L429.87 176.33"/>
<path d="M434.54 253.16L434.54 153.82"/>
<path d="M434.7 253.16L434.7 153.82"/>
<path d="M288.02 61.47L311.3 61.47"/>
<path d="M166.27 256.72L170.81 271.28M170.81 271.28L178.09 284.67"/>
<path d="M171.29 257.87L175.52 270.45M175.52 270.45L181.94 282.07"/>
<path d="M207.3 300.39L216.9 304.72M216.9 304.72L227.08 307.37M227.08 307.37L237.57 308.26"/>
<path d="M180.14 246.18L182.1 261.04M182.1 261.04L187.84 274.89M187.84 274.89L196.96 286.79M196.96 286.79L208.86 295.91M208.86 295.91L222.71 301.65M222.71 301.65L237.57 303.61"/>
<path d="M189.45 241.52L191.25 255.18M191.25 255.18L196.53 267.91M196.53 267.91L204.91 278.84M204.91 278.84L215.84 287.22M215.84 287.22L228.57 292.5M228.57 292.5L242.23 294.3"/>
<path d="M187.9 246.18L189.6 259.03M189.6 259.03L194.56 271.01M194.56 271.01L202.45 281.3M202.45 281.3L212.74 289.19M212.74 289.19L224.72 294.15M224.72 294.15L237.57 295.85"/>
<path d="M197.22 241.52L198.75 253.17M198.75 253.17L203.25 264.03M203.25 264.03L210.4 273.35M210.4 273.35L219.72 280.5M219.72 280.5L230.58 285M230.58 285L242.23 286.53"/>
<path d="M212.74 251.61L214.16 258.74M214.16 258.74L218.19 264.78M218.19 264.78L224.24 268.82M224.24 268.82L231.36 270.24"/>
<path d="M215.84 251.61L217.02 257.55M217.02 257.55L220.39 262.59M220.39 262.59L225.42 265.95M225.42 265.95L231.36 267.13"/>
<path d="M220.5 251.61L221.95 257.04M221.95 257.04L225.93 261.02M225.93 261.02L231.36 262.48"/>
<path d="M178.09 284.67L180.88 287.18M180.88 287.18L184.51 288.09"/>
<path d="M164.78 253.16L164.98 254.55"/>
<path d="M164.62 253.16L164.86 254.63"/>
<path d="M202.65 330L204.01 333.29M204.01 333.29L207.3 334.65"/>
<path d="M164.86 254.63L166.55 256.94M166.55 256.94L169.28 257.82"/>
<path d="M202.51 292.88L200.96 290.43"/>
<path d="M181.94 282.07L183.06 283.07M183.06 283.07L184.51 283.43"/>
<path d="M187.9 206.6L184.02 207.64M184.02 207.64L181.18 210.48M181.18 210.48L180.14 214.36"/>
<path d="M197.22 214.36L196.18 210.48M196.18 210.48L193.34 207.64M193.34 207.64L189.45 206.6"/>
<path d="M169.28 149.17L165.98 150.53M165.98 150.53L164.62 153.82"/>
<path d="M243.01 87.85L227.81 89.34M227.81 89.34L213.2 93.74M213.2 93.74L199.71 100.89M199.71 100.89L187.87 110.52M187.87 110.52L178.12 122.26M178.12 122.26L170.83 135.67M170.83 135.67L166.27 150.24"/>
<path d="M243.01 92.51L226.72 94.33M226.72 94.33L211.24 99.71M211.24 99.71L197.33 108.37M197.33 108.37L185.67 119.89M185.67 119.89L176.85 133.7M176.85 133.7L171.29 149.11"/>
<path d="M242.23 112.69L228.57 114.49M228.57 114.49L215.84 119.76M215.84 119.76L204.91 128.15M204.91 128.15L196.53 139.08M196.53 139.08L191.25 151.8M191.25 151.8L189.45 165.46"/>
<path d="M242.23 120.45L230.58 121.98M230.58 121.98L219.72 126.48M219.72 126.48L210.4 133.63M210.4 133.63L203.25 142.96M203.25 142.96L198.75 153.81M198.75 153.81L197.22 165.46"/>
<path d="M253.09 177.11L255.29 176.2M255.29 176.2L256.2 174"/>
<path d="M232.92 174L233.83 176.2M233.83 176.2L236.02 177.11"/>
<path d="M237.57 103.38L222.71 105.33M222.71 105.33L208.86 111.07M208.86 111.07L196.96 120.2M196.96 120.2L187.84 132.09M187.84 132.09L182.1 145.94M182.1 145.94L180.14 160.81"/>
<path d="M237.57 111.14L224.72 112.83M224.72 112.83L212.74 117.79M212.74 117.79L202.45 125.69M202.45 125.69L194.56 135.97M194.56 135.97L189.6 147.95M189.6 147.95L187.9 160.81"/>
<path d="M231.36 136.75L224.24 138.17M224.24 138.17L218.19 142.2M218.19 142.2L214.16 148.25M214.16 148.25L212.74 155.37"/>
<path d="M231.36 139.85L225.42 141.03M225.42 141.03L220.39 144.4M220.39 144.4L217.02 149.43M217.02 149.43L215.84 155.37"/>
<path d="M231.36 144.51L225.93 145.96M225.93 145.96L221.95 149.94M221.95 149.94L220.5 155.37"/>
<path d="M260.86 112.69L261.9 116.57M261.9 116.57L264.74 119.41M264.74 119.41L268.62 120.45"/>
<path d="M268.62 103.38L264.74 104.42M264.74 104.42L261.9 107.26M261.9 107.26L260.86 111.14"/>
<path d="M236.02 146.06L233.83 146.97M233.83 146.97L232.92 149.17"/>
<path d="M256.2 149.17L255.29 146.97M255.29 146.97L253.09 146.06"/>
<path d="M392.02 334.65L395.31 333.29M395.31 333.29L396.67 330"/>
<path d="M421.23 284.67L428.51 271.28M428.51 271.28L433.05 256.72"/>
<path d="M417.38 282.07L423.8 270.45M423.8 270.45L428.03 257.87"/>
<path d="M361.75 308.26L372.24 307.37M372.24 307.37L382.42 304.72M382.42 304.72L392.01 300.39"/>
<path d="M361.75 303.61L376.61 301.65M376.61 301.65L390.46 295.91M390.46 295.91L402.36 286.79M402.36 286.79L411.48 274.89M411.48 274.89L417.22 261.04M417.22 261.04L419.18 246.18"/>
<path d="M357.09 294.3L370.75 292.5M370.75 292.5L383.48 287.22M383.48 287.22L394.41 278.84M394.41 278.84L402.79 267.91M402.79 267.91L408.07 255.18M408.07 255.18L409.87 241.52"/>
<path d="M361.75 295.85L374.6 294.15M374.6 294.15L386.58 289.19M386.58 289.19L396.87 281.3M396.87 281.3L404.76 271.01M404.76 271.01L409.73 259.03M409.73 259.03L411.42 246.18"/>
<path d="M357.09 286.53L368.74 285M368.74 285L379.6 280.5M379.6 280.5L388.92 273.35M388.92 273.35L396.07 264.03M396.07 264.03L400.57 253.17M400.57 253.17L402.1 241.52"/>
<path d="M367.96 270.24L375.08 268.82M375.08 268.82L381.13 264.78M381.13 264.78L385.16 258.74M385.16 258.74L386.58 251.61"/>
<path d="M367.96 267.13L373.9 265.95M373.9 265.95L378.93 262.59M378.93 262.59L382.3 257.55M382.3 257.55L383.48 251.61"/>
<path d="M367.96 262.48L373.39 261.02M373.39 261.02L377.37 257.04M377.37 257.04L378.82 251.61"/>
<path d="M398.36 290.43L396.82 292.84"/>
<path d="M414.81 288.09L418.44 287.18M418.44 287.18L421.23 284.67"/>
<path d="M430.04 257.82L433.34 256.45M433.34 256.45L434.7 253.16"/>
<path d="M414.81 283.43L416.26 283.07M416.26 283.07L417.38 282.07"/>
<path d="M433.05 150.24L428.49 135.67M428.49 135.67L421.2 122.26M421.2 122.26L411.45 110.52M411.45 110.52L399.61 100.89M399.61 100.89L386.12 93.74M386.12 93.74L371.51 89.34M371.51 89.34L356.31 87.85"/>
<path d="M428.03 149.11L422.47 133.7M422.47 133.7L413.65 119.89M413.65 119.89L401.99 108.37M401.99 108.37L388.08 99.71M388.08 99.71L372.6 94.33M372.6 94.33L356.31 92.51"/>
<path d="M409.87 165.46L408.07 151.8M408.07 151.8L402.79 139.08M402.79 139.08L394.41 128.15M394.41 128.15L383.48 119.76M383.48 119.76L370.75 114.49M370.75 114.49L357.09 112.69"/>
<path d="M402.1 165.46L400.57 153.81M400.57 153.81L396.07 142.96M396.07 142.96L388.92 133.63M388.92 133.63L379.6 126.48M379.6 126.48L368.74 121.98M368.74 121.98L357.09 120.45"/>
<path d="M363.3 177.11L365.49 176.2M365.49 176.2L366.4 174"/>
<path d="M343.12 174L344.03 176.2M344.03 176.2L346.23 177.11"/>
<path d="M346.23 146.06L344.03 146.97M344.03 146.97L343.12 149.17"/>
<path d="M330.7 120.45L334.58 119.41M334.58 119.41L337.42 116.57M337.42 116.57L338.46 112.69"/>
<path d="M338.46 111.14L337.42 107.26M337.42 107.26L334.58 104.42M334.58 104.42L330.7 103.38"/>
<path d="M419.18 160.81L417.22 145.94M417.22 145.94L411.48 132.09M411.48 132.09L402.36 120.2M402.36 120.2L390.46 111.07M390.46 111.07L376.61 105.33M376.61 105.33L361.75 103.38"/>
<path d="M411.42 160.81L409.73 147.95M409.73 147.95L404.76 135.97M404.76 135.97L396.87 125.69M396.87 125.69L386.58 117.79M386.58 117.79L374.6 112.83M374.6 112.83L361.75 111.14"/>
<path d="M386.58 155.37L385.16 148.25M385.16 148.25L381.13 142.2M381.13 142.2L375.08 138.17M375.08 138.17L367.96 136.75"/>
<path d="M383.48 155.37L382.3 149.43M382.3 149.43L378.93 144.4M378.93 144.4L373.9 141.03M373.9 141.03L367.96 139.85"/>
<path d="M378.82 155.37L377.37 149.94M377.37 149.94L373.39 145.96M373.39 145.96L367.96 144.51"/>
<path d="M366.4 149.17L365.49 146.97M365.49 146.97L363.3 146.06"/>
<path d="M419.18 214.36L418.14 210.48M418.14 210.48L415.3 207.64M415.3 207.64L411.42 206.6"/>
<path d="M409.87 206.6L405.98 207.64M405.98 207.64L403.14 210.48M403.14 210.48L402.1 214.36"/>
<path d="M434.54 153.82L434.34 152.43"/>
<path d="M434.7 153.82L434.46 152.36"/>
<path d="M434.46 152.36L432.77 150.05M432.77 150.05L430.04 149.17"/>
<path d="M169.28 257.82L169.1 257.81M169.1 257.81L168.92 257.8M168.92 257.8L168.74 257.78M168.74 257.78L168.56 257.76M168.56 257.76L168.38 257.73M168.38 257.73L168.2 257.68M168.2 257.68L168.03 257.64M168.03 257.64L167.86 257.58M167.86 257.58L167.69 257.52M167.69 257.52L167.52 257.45M167.52 257.45L167.36 257.37M167.36 257.37L167.2 257.29M167.2 257.29L167.04 257.2M167.04 257.2L166.89 257.11M166.89 257.11L166.74 257.01M166.74 257.01L166.59 256.9M166.59 256.9L166.45 256.78M166.45 256.78L166.31 256.67M166.31 256.67L166.18 256.54M166.18 256.54L166.06 256.41M166.06 256.41L165.94 256.28M165.94 256.28L165.82 256.14M165.82 256.14L165.71 256M165.71 256L165.6 255.85M165.6 255.85L165.41 255.54M165.41 255.54L165.24 255.22M165.24 255.22L165.1 254.89M165.1 254.89L164.98 254.55"/>
<path d="M202.65 294.01L203.17 294.85M203.17 294.85L203.7 295.68M203.7 295.68L204.26 296.5M204.26 296.5L204.83 297.31M204.83 297.31L205.42 298.1M205.42 298.1L206.03 298.88M206.03 298.88L206.66 299.64M206.66 299.64L207.3 300.39"/>
<path d="M169.28 149.17L169.05 149.17M169.05 149.17L168.83 149.19M168.83 149.19L168.61 149.22M168.61 149.22L168.39 149.26M168.39 149.26L168.17 149.31M168.17 149.31L167.95 149.37M167.95 149.37L167.74 149.45M167.74 149.45L167.53 149.53M167.53 149.53L167.32 149.63M167.32 149.63L167.13 149.73M167.13 149.73L166.93 149.85M166.93 149.85L166.75 149.97M166.75 149.97L166.57 150.11M166.57 150.11L166.39 150.25M166.39 150.25L166.23 150.4M166.23 150.4L166.07 150.56M166.07 150.56L165.92 150.73M165.92 150.73L165.78 150.9M165.78 150.9L165.64 151.08M165.64 151.08L165.52 151.27M165.52 151.27L165.4 151.46M165.4 151.46L165.29 151.66M165.29 151.66L165.2 151.86M165.2 151.86L165.11 152.07M165.11 152.07L165.03 152.28M165.03 152.28L164.97 152.49M164.97 152.49L164.91 152.71M164.91 152.71L164.86 152.93M164.86 152.93L164.83 153.15M164.83 153.15L164.8 153.38M164.8 153.38L164.78 153.6M164.78 153.6L164.78 153.82"/>
<path d="M392.02 300.39L392.66 299.64M392.66 299.64L393.29 298.88M393.29 298.88L393.9 298.1M393.9 298.1L394.49 297.31M394.49 297.31L395.06 296.5M395.06 296.5L395.62 295.68M395.62 295.68L396.15 294.85M396.15 294.85L396.42 294.43M396.42 294.43L396.54 294.22M396.54 294.22L396.67 294.01"/>
<path d="M430.04 257.82L430.27 257.81M430.27 257.81L430.49 257.8M430.49 257.8L430.71 257.77M430.71 257.77L430.93 257.73M430.93 257.73L431.15 257.67M431.15 257.67L431.37 257.61M431.37 257.61L431.58 257.54M431.58 257.54L431.79 257.45M431.79 257.45L432 257.36M432 257.36L432.19 257.25M432.19 257.25L432.39 257.14M432.39 257.14L432.57 257.01M432.57 257.01L432.75 256.88M432.75 256.88L432.93 256.74M432.93 256.74L433.09 256.58M433.09 256.58L433.25 256.43M433.25 256.43L433.4 256.26M433.4 256.26L433.54 256.09M433.54 256.09L433.68 255.9M433.68 255.9L433.8 255.72M433.8 255.72L433.92 255.53M433.92 255.53L434.03 255.33M434.03 255.33L434.12 255.12M434.12 255.12L434.21 254.92M434.21 254.92L434.29 254.71M434.29 254.71L434.35 254.49M434.35 254.49L434.41 254.27M434.41 254.27L434.46 254.05M434.46 254.05L434.49 253.83M434.49 253.83L434.52 253.61M434.52 253.61L434.54 253.39M434.54 253.39L434.54 253.16"/>
<path d="M430.04 149.17L430.22 149.17M430.22 149.17L430.4 149.18M430.4 149.18L430.58 149.2M430.58 149.2L430.76 149.23M430.76 149.23L430.94 149.26M430.94 149.26L431.12 149.3M431.12 149.3L431.29 149.35M431.29 149.35L431.46 149.4M431.46 149.4L431.63 149.47M431.63 149.47L431.8 149.53M431.8 149.53L431.96 149.61M431.96 149.61L432.12 149.69M432.12 149.69L432.28 149.78M432.28 149.78L432.43 149.88M432.43 149.88L432.58 149.98M432.58 149.98L432.73 150.09M432.73 150.09L432.87 150.2M432.87 150.2L433.01 150.32M433.01 150.32L433.14 150.44M433.14 150.44L433.26 150.57M433.26 150.57L433.38 150.7M433.38 150.7L433.5 150.84M433.5 150.84L433.61 150.99M433.61 150.99L433.72 151.13M433.72 151.13L433.91 151.44M433.91 151.44L434.08 151.76M434.08 151.76L434.22 152.09M434.22 152.09L434.34 152.43"/>
<path d="M135.3 190.74L137.36 189.72M137.36 189.72L140.43 186.64M140.43 186.64L140.43 208.19"/>
<path d="M451.28 191.77L451.28 190.74M451.28 190.74L452.31 188.69M452.31 188.69L453.33 187.66M453.33 187.66L455.39 186.64M455.39 186.64L459.49 186.64M459.49 186.64L461.55 187.66M461.55 187.66L462.57 188.69M462.57 188.69L463.6 190.74M463.6 190.74L463.6 192.8M463.6 192.8L462.57 194.85M462.57 194.85L460.52 197.93M460.52 197.93L450.25 208.19M450.25 208.19L464.63 208.19"/>
</g>
</g>
</svg>
