<?xml version="1.0" standalone="no"?><svg xmlns="http://www.w3.org/2000/svg" width="600.000" height="450.000" viewBox="0.0 0.0 600.000 450.000" version="1.1">
<title>Acme Converter - Post-processed with EDS-Designer: 14.44 (info@symca.com)</title>
<desc>Acme Converter - Post-processed with EDS-Designer: 14.44 (info@symca.com)</desc>
<g id="EDS_STYLE_GROUP" fill="none" stroke="black" stroke-width="1.0">
<g id="0" display="visible">
<path d="M114.24 368.34L114.24 324.46M116.33 324.46L116.33 368.34M101.7 324.46L99.61 337M99.61 337L99.61 324.46M99.61 324.46L130.95 324.46M130.95 324.46L130.95 337M130.95 337L128.86 324.46M107.97 368.34L122.6 368.34M145.58 368.34L145.58 324.46M147.67 324.46L147.67 368.34M139.31 324.46L153.94 324.46M139.31 368.34L153.94 368.34M168.57 368.34L168.57 324.46M170.66 368.34L170.66 324.46M170.66 324.46L195.73 364.16M170.66 328.64L195.73 368.34M195.73 368.34L195.73 324.46M162.3 324.46L170.66 324.46M189.46 324.46L202 324.46M162.3 368.34L174.84 368.34M260.51 368.34L260.51 324.46M262.6 324.46L262.6 368.34M254.24 324.46L279.32 324.46M279.32 324.46L285.59 326.55M285.59 326.55L287.68 328.64M287.68 328.64L289.77 332.82M289.77 332.82L289.77 339.09M289.77 339.09L287.68 343.27M287.68 343.27L285.59 345.36M285.59 345.36L279.32 347.45M279.32 347.45L262.6 347.45M279.32 324.46L283.5 326.55M283.5 326.55L285.59 328.64M285.59 328.64L287.68 332.82M287.68 332.82L287.68 339.09M287.68 339.09L285.59 343.27M285.59 343.27L283.5 345.36M283.5 345.36L279.32 347.45M254.24 368.34L268.87 368.34M306.48 368.34L306.48 324.46M308.57 324.46L308.57 368.34M300.21 324.46L314.84 324.46M300.21 368.34L331.56 368.34M331.56 368.34L331.56 355.81M331.56 355.81L329.47 368.34M356.63 324.46L342.01 368.34M356.63 324.46L371.26 368.34M356.63 330.73L369.17 368.34M346.19 355.81L364.99 355.81M337.83 368.34L350.37 368.34M362.9 368.34L375.44 368.34M396.34 368.34L396.34 324.46M398.43 324.46L398.43 368.34M383.8 324.46L381.71 337M381.71 337L381.71 324.46M381.71 324.46L413.06 324.46M413.06 324.46L413.06 337M413.06 337L410.97 324.46M390.07 368.34L404.7 368.34M427.68 368.34L427.68 324.46M429.77 324.46L429.77 368.34M442.31 337L442.31 353.72M421.41 324.46L454.85 324.46M454.85 324.46L454.85 337M454.85 337L452.76 324.46M429.77 345.36L442.31 345.36M421.41 368.34L454.85 368.34M454.85 368.34L454.85 355.81M454.85 355.81L452.76 368.34M471.57 368.34L471.57 324.46M473.65 324.46L473.65 368.34M465.3 324.46L486.19 324.46M486.19 324.46L492.46 326.55M492.46 326.55L496.64 330.73M496.64 330.73L498.73 334.91M498.73 334.91L500.82 341.18M500.82 341.18L500.82 351.63M500.82 351.63L498.73 357.9M498.73 357.9L496.64 362.07M496.64 362.07L492.46 366.25M492.46 366.25L486.19 368.34M486.19 368.34L465.3 368.34M486.19 324.46L490.37 326.55M490.37 326.55L494.55 330.73M494.55 330.73L496.64 334.91M496.64 334.91L498.73 341.18M498.73 341.18L498.73 351.63M498.73 351.63L496.64 357.9M496.64 357.9L494.55 362.07M494.55 362.07L490.37 366.25M490.37 366.25L486.19 368.34"/>
<path d="M317.01 280.21L322.5 279.85M322.5 279.85L327.98 278.38M327.98 278.38L333.47 276.92M333.47 276.92L339.32 274.73M339.32 274.73L344.8 271.8M344.8 271.8L350.29 268.88M350.29 268.88L355.77 265.95M355.77 265.95L365.65 259.73"/>
<path d="M317.01 280.21L312.62 280.58"/>
<path d="M28.12 280.58L312.62 280.58"/>
<path d="M22.63 269.97L312.62 269.97"/>
<path d="M412.09 241.82L408.07 241.82M408.07 241.82L403.68 242.18M403.68 242.18L398.92 243.28M398.92 243.28L394.17 244.38M394.17 244.38L389.42 246.2M389.42 246.2L384.66 248.03M384.66 248.03L379.54 250.59M379.54 250.59L375.15 253.15M375.15 253.15L370.77 255.71M370.77 255.71L366.74 258.27M366.74 258.27L358.33 263.76"/>
<path d="M412.09 194.28L407.34 194.64M407.34 194.64L402.95 195.37M402.95 195.37L398.56 196.47M398.56 196.47L394.54 197.93M394.54 197.93L390.88 199.76M390.88 199.76L387.59 201.96M387.59 201.96L383.93 204.52M383.93 204.52L380.64 207.44M380.64 207.44L377.35 211.1M377.35 211.1L374.42 214.75M374.42 214.75L371.5 218.41M371.5 218.41L368.94 222.07M368.94 222.07L366.38 226.09M366.38 226.09L363.82 230.11M363.82 230.11L360.89 234.14M360.89 234.14L358.33 238.52M358.33 238.52L355.77 242.55M355.77 242.55L352.85 246.2M352.85 246.2L349.92 250.23M349.92 250.23L346.63 254.25M346.63 254.25L342.97 257.91M342.97 257.91L338.95 261.2M338.95 261.2L334.93 264.12M334.93 264.12L330.91 266.32M330.91 266.32L326.52 268.15M326.52 268.15L321.76 269.24M321.76 269.24L317.38 269.97M317.38 269.97L312.62 269.97"/>
<path d="M312.62 280.58L312.62 81.65"/>
<path d="M412.09 167.58L407.34 167.22M407.34 167.22L402.95 166.48M402.95 166.48L398.56 165.39M398.56 165.39L394.54 163.92M394.54 163.92L390.88 162.1M390.88 162.1L387.59 159.9M387.59 159.9L383.93 157.34M383.93 157.34L380.64 154.42M380.64 154.42L377.35 150.76M377.35 150.76L374.42 147.1M374.42 147.1L371.5 143.81M371.5 143.81L368.94 140.15M368.94 140.15L366.38 136.13M366.38 136.13L363.82 132.11M363.82 132.11L360.89 127.72M360.89 127.72L358.33 123.7M358.33 123.7L355.77 119.68M355.77 119.68L352.85 115.65M352.85 115.65L349.92 111.63M349.92 111.63L346.63 107.61M346.63 107.61L342.97 103.95M342.97 103.95L338.95 100.66M338.95 100.66L334.93 98.1M334.93 98.1L330.91 95.91M330.91 95.91L326.52 94.08M326.52 94.08L321.76 92.62M321.76 92.62L317.38 92.25M317.38 92.25L312.62 91.88"/>
<path d="M412.09 118.95L408.43 118.58M408.43 118.58L402.95 118.21M402.95 118.21L397.83 117.12M397.83 117.12L393.07 115.65M393.07 115.65L388.32 114.19M388.32 114.19L383.57 112M383.57 112L379.18 109.8M379.18 109.8L374.79 107.61M374.79 107.61L370.04 105.05M370.04 105.05L365.65 102.12M365.65 102.12L360.53 99.2M360.53 99.2L355.41 95.91M355.41 95.91L349.92 92.98M349.92 92.98L344.44 90.06M344.44 90.06L338.95 87.13M338.95 87.13L333.1 84.94M333.1 84.94L327.62 83.47M327.62 83.47L322.13 82.38M322.13 82.38L317.01 81.65"/>
<path d="M412.09 120.41L408.07 120.04M408.07 120.04L403.68 119.68M403.68 119.68L398.92 118.95M398.92 118.95L394.17 117.48M394.17 117.48L389.42 116.02M389.42 116.02L384.66 113.83M384.66 113.83L379.54 111.63M379.54 111.63L375.15 109.07M375.15 109.07L370.77 106.51M370.77 106.51L366.74 103.59"/>
<path d="M358.33 263.76L353.94 266.32M353.94 266.32L349.92 268.88M349.92 268.88L345.17 271.44M345.17 271.44L340.41 274M340.41 274L335.66 275.82M335.66 275.82L330.54 277.65M330.54 277.65L325.79 279.12M325.79 279.12L321.03 279.85M321.03 279.85L317.01 280.21"/>
<path d="M365.65 259.73L370.4 256.81M370.4 256.81L374.79 254.25M374.79 254.25L379.18 252.06M379.18 252.06L383.93 249.86M383.93 249.86L388.32 248.03M388.32 248.03L393.07 246.2M393.07 246.2L397.83 244.74M397.83 244.74L402.95 244.01M402.95 244.01L408.43 243.28M408.43 243.28L412.09 243.28"/>
<path d="M312.62 91.88L22.63 91.88"/>
<path d="M312.62 81.65L28.12 81.65"/>
<path d="M317.01 81.65L312.62 81.65"/>
<path d="M366.74 103.59L358.33 98.47M358.33 98.47L353.94 95.54M353.94 95.54L349.92 92.98M349.92 92.98L345.17 90.42M345.17 90.42L340.41 88.23M340.41 88.23L335.66 86.03M335.66 86.03L330.54 84.2M330.54 84.2L325.79 83.11M325.79 83.11L321.03 82.01M321.03 82.01L317.01 81.65"/>
<path d="M412.09 186.6L412.09 186.23M412.09 186.23L412.09 185.87"/>
<path d="M412.09 187.69L412.09 186.96M412.09 186.96L412.09 186.6"/>
<path d="M412.09 185.87L412.09 118.95"/>
<path d="M412.09 243.28L412.09 187.69"/>
<path d="M28.12 81.65L26.66 84.2M26.66 84.2L24.83 87.13M24.83 87.13L23.36 90.06M23.36 90.06L21.9 93.35M21.9 93.35L20.44 96.27M20.44 96.27L18.98 99.2M18.98 99.2L17.88 102.12M17.88 102.12L16.42 105.05M16.42 105.05L15.32 108.34M15.32 108.34L14.22 111.27M14.22 111.27L13.12 114.19M13.12 114.19L12.03 117.48M12.03 117.48L10.93 120.41M10.93 120.41L9.83 123.7M9.83 123.7L9.1 126.62M9.1 126.62L8.37 129.92M8.37 129.92L7.27 133.21M7.27 133.21L6.54 136.13M6.54 136.13L5.81 139.42M5.81 139.42L5.45 142.35M5.45 142.35L4.71 145.64M4.71 145.64L3.98 148.93M3.98 148.93L3.62 152.22M3.62 152.22L3.25 155.15M3.25 155.15L2.89 158.44M2.89 158.44L2.52 161.73M2.52 161.73L2.15 165.02M2.15 165.02L1.79 167.95M1.79 167.95L1.79 171.24M1.79 171.24L1.79 174.53M1.79 174.53L1.42 177.82M1.42 177.82L1.42 181.11M1.42 181.11L1.42 184.04M1.42 184.04L1.79 187.33M1.79 187.33L1.79 190.62M1.79 190.62L1.79 193.91M1.79 193.91L2.15 197.2M2.15 197.2L2.52 200.13M2.52 200.13L2.89 203.42M2.89 203.42L3.25 206.71M3.25 206.71L3.62 210M3.62 210L3.98 212.93M3.98 212.93L4.71 216.22M4.71 216.22L5.45 219.51M5.45 219.51L5.81 222.8M5.81 222.8L6.54 225.73M6.54 225.73L7.27 229.02M7.27 229.02L8.37 231.94M8.37 231.94L9.1 235.23M9.1 235.23L9.83 238.52M9.83 238.52L10.93 241.45M10.93 241.45L12.03 244.38M12.03 244.38L13.12 247.67M13.12 247.67L14.22 250.59M14.22 250.59L15.32 253.88M15.32 253.88L16.42 256.81M16.42 256.81L17.88 259.73M17.88 259.73L18.98 262.66M18.98 262.66L20.44 265.95M20.44 265.95L21.9 268.88M21.9 268.88L23.36 271.8M23.36 271.8L24.83 274.73M24.83 274.73L26.66 277.65M26.66 277.65L28.12 280.58"/>
<path d="M165.62 181.11L165.62 179.65M165.62 179.65L165.62 178.19M165.62 178.19L165.62 177.09M165.62 177.09L165.62 175.63M165.62 175.63L165.25 174.16M165.25 174.16L165.25 173.07M165.25 173.07L164.88 171.6M164.88 171.6L164.52 170.51M164.52 170.51L164.52 169.04M164.52 169.04L164.15 167.95M164.15 167.95L163.79 166.85M163.79 166.85L163.42 165.39M163.42 165.39L163.06 164.29M163.06 164.29L162.69 163.19M162.69 163.19L161.96 161.73M161.96 161.73L161.59 160.63M161.59 160.63L161.23 159.54M161.23 159.54L160.5 158.44M160.5 158.44L160.13 157.34M160.13 157.34L159.4 156.25M159.4 156.25L158.67 155.15M158.67 155.15L158.3 154.05M158.3 154.05L157.57 152.95M157.57 152.95L156.84 151.86M156.84 151.86L156.11 150.76M156.11 150.76L155.38 149.66M155.38 149.66L154.65 148.57M154.65 148.57L153.91 147.83M153.91 147.83L152.82 146.74M152.82 146.74L152.09 146.01M152.09 146.01L151.35 144.91M151.35 144.91L150.26 144.18M150.26 144.18L149.53 143.08M149.53 143.08L148.43 142.35M148.43 142.35L147.7 141.62M147.7 141.62L146.6 140.52M146.6 140.52L145.87 139.79M145.87 139.79L144.77 139.06M144.77 139.06L143.68 138.33M143.68 138.33L142.58 137.6M142.58 137.6L141.48 136.86M141.48 136.86L140.75 136.5M140.75 136.5L139.65 135.77M139.65 135.77L138.56 135.04M138.56 135.04L137.09 134.3M137.09 134.3L136 133.94M136 133.94L134.9 133.21M134.9 133.21L133.8 132.84M133.8 132.84L132.7 132.48M132.7 132.48L131.61 131.74M131.61 131.74L130.14 131.38M130.14 131.38L129.05 131.01M129.05 131.01L127.95 130.65M127.95 130.65L126.49 130.28M126.49 130.28L125.39 129.92M125.39 129.92L123.93 129.92M123.93 129.92L122.83 129.55M122.83 129.55L121.37 129.18M121.37 129.18L120.27 129.18M120.27 129.18L118.81 129.18M118.81 129.18L117.35 128.82M117.35 128.82L116.25 128.82M116.25 128.82L114.79 128.82M114.79 128.82L113.32 128.82M113.32 128.82L112.23 128.82M112.23 128.82L110.76 128.82M110.76 128.82L109.3 128.82M109.3 128.82L108.2 129.18M108.2 129.18L106.74 129.18M106.74 129.18L105.64 129.18M105.64 129.18L104.18 129.55M104.18 129.55L103.08 129.92M103.08 129.92L101.62 129.92M101.62 129.92L100.52 130.28M100.52 130.28L99.06 130.65M99.06 130.65L97.96 131.01M97.96 131.01L96.87 131.38M96.87 131.38L95.4 131.74M95.4 131.74L94.31 132.48M94.31 132.48L93.21 132.84M93.21 132.84L92.11 133.21M92.11 133.21L90.65 133.94M90.65 133.94L89.55 134.3M89.55 134.3L88.46 135.04M88.46 135.04L87.36 135.77M87.36 135.77L86.26 136.5M86.26 136.5L85.17 136.86M85.17 136.86L84.43 137.6M84.43 137.6L83.34 138.33M83.34 138.33L82.24 139.06M82.24 139.06L81.14 139.79M81.14 139.79L80.41 140.52M80.41 140.52L79.31 141.62M79.31 141.62L78.22 142.35M78.22 142.35L77.49 143.08M77.49 143.08L76.39 144.18M76.39 144.18L75.66 144.91M75.66 144.91L74.93 146.01M74.93 146.01L73.83 146.74M73.83 146.74L73.1 147.83M73.1 147.83L72.37 148.57M72.37 148.57L71.63 149.66M71.63 149.66L70.9 150.76M70.9 150.76L70.17 151.86M70.17 151.86L69.44 152.95M69.44 152.95L68.71 154.05M68.71 154.05L67.98 155.15M67.98 155.15L67.61 156.25M67.61 156.25L66.88 157.34M66.88 157.34L66.52 158.44M66.52 158.44L65.78 159.54M65.78 159.54L65.42 160.63M65.42 160.63L64.69 161.73M64.69 161.73L64.32 163.19M64.32 163.19L63.96 164.29M63.96 164.29L63.59 165.39M63.59 165.39L63.22 166.85M63.22 166.85L62.86 167.95M62.86 167.95L62.49 169.04M62.49 169.04L62.13 170.51M62.13 170.51L62.13 171.6M62.13 171.6L61.76 173.07M61.76 173.07L61.76 174.16M61.76 174.16L61.4 175.63M61.4 175.63L61.4 177.09M61.4 177.09L61.4 178.19M61.4 178.19L61.4 179.65M61.4 179.65L61.4 181.11M61.4 181.11L61.4 182.21M61.4 182.21L61.4 183.67M61.4 183.67L61.4 185.13M61.4 185.13L61.4 186.23M61.4 186.23L61.76 187.69M61.76 187.69L61.76 188.79M61.76 188.79L62.13 190.25M62.13 190.25L62.13 191.35M62.13 191.35L62.49 192.81M62.49 192.81L62.86 193.91M62.86 193.91L63.22 195.37M63.22 195.37L63.59 196.47M63.59 196.47L63.96 197.93M63.96 197.93L64.32 199.03M64.32 199.03L64.69 200.13M64.69 200.13L65.42 201.22M65.42 201.22L65.78 202.32M65.78 202.32L66.52 203.78M66.52 203.78L66.88 204.88M66.88 204.88L67.61 205.98M67.61 205.98L67.98 207.08M67.98 207.08L68.71 208.17M68.71 208.17L69.44 209.27M69.44 209.27L70.17 210.37M70.17 210.37L70.9 211.1M70.9 211.1L71.63 212.2M71.63 212.2L72.37 213.29M72.37 213.29L73.1 214.39M73.1 214.39L73.83 215.12M73.83 215.12L74.93 216.22M74.93 216.22L75.66 216.95M75.66 216.95L76.39 218.05M76.39 218.05L77.49 218.78M77.49 218.78L78.22 219.51M78.22 219.51L79.31 220.61M79.31 220.61L80.41 221.34M80.41 221.34L81.14 222.07M81.14 222.07L82.24 222.8M82.24 222.8L83.34 223.53M83.34 223.53L84.43 224.26M84.43 224.26L85.17 224.99M85.17 224.99L86.26 225.73M86.26 225.73L87.36 226.46M87.36 226.46L88.46 226.82M88.46 226.82L89.55 227.55M89.55 227.55L90.65 227.92M90.65 227.92L92.11 228.65M92.11 228.65L93.21 229.02M93.21 229.02L94.31 229.75M94.31 229.75L95.4 230.11M95.4 230.11L96.87 230.48M96.87 230.48L97.96 230.85M97.96 230.85L99.06 231.21M99.06 231.21L100.52 231.58M100.52 231.58L101.62 231.94M101.62 231.94L103.08 232.31M103.08 232.31L104.18 232.31M104.18 232.31L105.64 232.67M105.64 232.67L106.74 232.67M106.74 232.67L108.2 233.04M108.2 233.04L109.3 233.04M109.3 233.04L110.76 233.04M110.76 233.04L112.23 233.4M112.23 233.4L113.32 233.4M113.32 233.4L114.79 233.4M114.79 233.4L116.25 233.04M116.25 233.04L117.35 233.04M117.35 233.04L118.81 233.04M118.81 233.04L120.27 232.67M120.27 232.67L121.37 232.67M121.37 232.67L122.83 232.31M122.83 232.31L123.93 232.31M123.93 232.31L125.39 231.94M125.39 231.94L126.49 231.58M126.49 231.58L127.95 231.21M127.95 231.21L129.05 230.85M129.05 230.85L130.14 230.48M130.14 230.48L131.61 230.11M131.61 230.11L132.7 229.75M132.7 229.75L133.8 229.02M133.8 229.02L134.9 228.65M134.9 228.65L136 227.92M136 227.92L137.09 227.55M137.09 227.55L138.56 226.82M138.56 226.82L139.65 226.46M139.65 226.46L140.75 225.73M140.75 225.73L141.48 224.99M141.48 224.99L142.58 224.26M142.58 224.26L143.68 223.53M143.68 223.53L144.77 222.8M144.77 222.8L145.87 222.07M145.87 222.07L146.6 221.34M146.6 221.34L147.7 220.61M147.7 220.61L148.43 219.51M148.43 219.51L149.53 218.78M149.53 218.78L150.26 218.05M150.26 218.05L151.35 216.95M151.35 216.95L152.09 216.22M152.09 216.22L152.82 215.12M152.82 215.12L153.91 214.39M153.91 214.39L154.65 213.29M154.65 213.29L155.38 212.2M155.38 212.2L156.11 211.1M156.11 211.1L156.84 210.37M156.84 210.37L157.57 209.27M157.57 209.27L158.3 208.17M158.3 208.17L158.67 207.08M158.67 207.08L159.4 205.98M159.4 205.98L160.13 204.88M160.13 204.88L160.5 203.78M160.5 203.78L161.23 202.32M161.23 202.32L161.59 201.22M161.59 201.22L161.96 200.13M161.96 200.13L162.69 199.03M162.69 199.03L163.06 197.93M163.06 197.93L163.42 196.47M163.42 196.47L163.79 195.37M163.79 195.37L164.15 193.91M164.15 193.91L164.52 192.81M164.52 192.81L164.52 191.35M164.52 191.35L164.88 190.25M164.88 190.25L165.25 188.79M165.25 188.79L165.25 187.69M165.25 187.69L165.62 186.23M165.62 186.23L165.62 185.13M165.62 185.13L165.62 183.67M165.62 183.67L165.62 182.21M165.62 182.21L165.62 181.11"/>
<path d="M45.67 269.97L181.34 269.97"/>
<path d="M181.34 91.88L45.67 91.88"/>
<path d="M165.62 181.11L165.62 179.65M165.62 179.65L165.62 178.19M165.62 178.19L165.62 177.09M165.62 177.09L165.62 175.63M165.62 175.63L165.25 174.16M165.25 174.16L165.25 173.07M165.25 173.07L164.88 171.6M164.88 171.6L164.52 170.51M164.52 170.51L164.52 169.04M164.52 169.04L164.15 167.95M164.15 167.95L163.79 166.85M163.79 166.85L163.42 165.39M163.42 165.39L163.06 164.29M163.06 164.29L162.69 163.19M162.69 163.19L161.96 161.73M161.96 161.73L161.59 160.63M161.59 160.63L161.23 159.54M161.23 159.54L160.5 158.44M160.5 158.44L160.13 157.34M160.13 157.34L159.4 156.25M159.4 156.25L158.67 155.15M158.67 155.15L158.3 154.05M158.3 154.05L157.57 152.95M157.57 152.95L156.84 151.86M156.84 151.86L156.11 150.76M156.11 150.76L155.38 149.66M155.38 149.66L154.65 148.57M154.65 148.57L153.91 147.83M153.91 147.83L152.82 146.74M152.82 146.74L152.09 146.01M152.09 146.01L151.35 144.91M151.35 144.91L150.26 144.18M150.26 144.18L149.53 143.08M149.53 143.08L148.43 142.35M148.43 142.35L147.7 141.62M147.7 141.62L146.6 140.52M146.6 140.52L145.87 139.79M145.87 139.79L144.77 139.06M144.77 139.06L143.68 138.33M143.68 138.33L142.58 137.6M142.58 137.6L141.48 136.86M141.48 136.86L140.75 136.5M140.75 136.5L139.65 135.77M139.65 135.77L138.56 135.04M138.56 135.04L137.09 134.3M137.09 134.3L136 133.94M136 133.94L134.9 133.21M134.9 133.21L133.8 132.84M133.8 132.84L132.7 132.48M132.7 132.48L131.61 131.74M131.61 131.74L130.14 131.38M130.14 131.38L129.05 131.01M129.05 131.01L127.95 130.65M127.95 130.65L126.49 130.28M126.49 130.28L125.39 129.92M125.39 129.92L123.93 129.92M123.93 129.92L122.83 129.55M122.83 129.55L121.37 129.18M121.37 129.18L120.27 129.18M120.27 129.18L118.81 129.18M118.81 129.18L117.35 128.82M117.35 128.82L116.25 128.82M116.25 128.82L114.79 128.82M114.79 128.82L113.32 128.82M113.32 128.82L112.23 128.82M112.23 128.82L110.76 128.82M110.76 128.82L109.3 128.82M109.3 128.82L108.2 129.18M108.2 129.18L106.74 129.18M106.74 129.18L105.64 129.18M105.64 129.18L104.18 129.55M104.18 129.55L103.08 129.92M103.08 129.92L101.62 129.92M101.62 129.92L100.52 130.28M100.52 130.28L99.06 130.65M99.06 130.65L97.96 131.01M97.96 131.01L96.87 131.38M96.87 131.38L95.4 131.74M95.4 131.74L94.31 132.48M94.31 132.48L93.21 132.84M93.21 132.84L92.11 133.21M92.11 133.21L90.65 133.94M90.65 133.94L89.55 134.3M89.55 134.3L88.46 135.04M88.46 135.04L87.36 135.77M87.36 135.77L86.26 136.5M86.26 136.5L85.17 136.86M85.17 136.86L84.43 137.6M84.43 137.6L83.34 138.33M83.34 138.33L82.24 139.06M82.24 139.06L81.14 139.79M81.14 139.79L80.41 140.52M80.41 140.52L79.31 141.62M79.31 141.62L78.22 142.35M78.22 142.35L77.49 143.08M77.49 143.08L76.39 144.18M76.39 144.18L75.66 144.91M75.66 144.91L74.93 146.01M74.93 146.01L73.83 146.74M73.83 146.74L73.1 147.83M73.1 147.83L72.37 148.57M72.37 148.57L71.63 149.66M71.63 149.66L70.9 150.76M70.9 150.76L70.17 151.86M70.17 151.86L69.44 152.95M69.44 152.95L68.71 154.05M68.71 154.05L67.98 155.15M67.98 155.15L67.61 156.25M67.61 156.25L66.88 157.34M66.88 157.34L66.52 158.44M66.52 158.44L65.78 159.54M65.78 159.54L65.42 160.63M65.42 160.63L64.69 161.73M64.69 161.73L64.32 163.19M64.32 163.19L63.96 164.29M63.96 164.29L63.59 165.39M63.59 165.39L63.22 166.85M63.22 166.85L62.86 167.95M62.86 167.95L62.49 169.04M62.49 169.04L62.13 170.51M62.13 170.51L62.13 171.6M62.13 171.6L61.76 173.07M61.76 173.07L61.76 174.16M61.76 174.16L61.4 175.63M61.4 175.63L61.4 177.09M61.4 177.09L61.4 178.19M61.4 178.19L61.4 179.65M61.4 179.65L61.4 181.11M61.4 181.11L61.4 182.21M61.4 182.21L61.4 183.67M61.4 183.67L61.4 185.13M61.4 185.13L61.4 186.23M61.4 186.23L61.76 187.69M61.76 187.69L61.76 188.79M61.76 188.79L62.13 190.25M62.13 190.25L62.13 191.35M62.13 191.35L62.49 192.81M62.49 192.81L62.86 193.91M62.86 193.91L63.22 195.37M63.22 195.37L63.59 196.47M63.59 196.47L63.96 197.93M63.96 197.93L64.32 199.03M64.32 199.03L64.69 200.13M64.69 200.13L65.42 201.22M65.42 201.22L65.78 202.32M65.78 202.32L66.52 203.78M66.52 203.78L66.88 204.88M66.88 204.88L67.61 205.98M67.61 205.98L67.98 207.08M67.98 207.08L68.71 208.17M68.71 208.17L69.44 209.27M69.44 209.27L70.17 210.37M70.17 210.37L70.9 211.1M70.9 211.1L71.63 212.2M71.63 212.2L72.37 213.29M72.37 213.29L73.1 214.39M73.1 214.39L73.83 215.12M73.83 215.12L74.93 216.22M74.93 216.22L75.66 216.95M75.66 216.95L76.39 218.05M76.39 218.05L77.49 218.78M77.49 218.78L78.22 219.51M78.22 219.51L79.31 220.61M79.31 220.61L80.41 221.34M80.41 221.34L81.14 222.07M81.14 222.07L82.24 222.8M82.24 222.8L83.34 223.53M83.34 223.53L84.43 224.26M84.43 224.26L85.17 224.99M85.17 224.99L86.26 225.73M86.26 225.73L87.36 226.46M87.36 226.46L88.46 226.82M88.46 226.82L89.55 227.55M89.55 227.55L90.65 227.92M90.65 227.92L92.11 228.65M92.11 228.65L93.21 229.02M93.21 229.02L94.31 229.75M94.31 229.75L95.4 230.11M95.4 230.11L96.87 230.48M96.87 230.48L97.96 230.85M97.96 230.85L99.06 231.21M99.06 231.21L100.52 231.58M100.52 231.58L101.62 231.94M101.62 231.94L103.08 232.31M103.08 232.31L104.18 232.31M104.18 232.31L105.64 232.67M105.64 232.67L106.74 232.67M106.74 232.67L108.2 233.04M108.2 233.04L109.3 233.04M109.3 233.04L110.76 233.04M110.76 233.04L112.23 233.4M112.23 233.4L113.32 233.4M113.32 233.4L114.79 233.4M114.79 233.4L116.25 233.04M116.25 233.04L117.35 233.04M117.35 233.04L118.81 233.04M118.81 233.04L120.27 232.67M120.27 232.67L121.37 232.67M121.37 232.67L122.83 232.31M122.83 232.31L123.93 232.31M123.93 232.31L125.39 231.94M125.39 231.94L126.49 231.58M126.49 231.58L127.95 231.21M127.95 231.21L129.05 230.85M129.05 230.85L130.14 230.48M130.14 230.48L131.61 230.11M131.61 230.11L132.7 229.75M132.7 229.75L133.8 229.02M133.8 229.02L134.9 228.65M134.9 228.65L136 227.92M136 227.92L137.09 227.55M137.09 227.55L138.56 226.82M138.56 226.82L139.65 226.46M139.65 226.46L140.75 225.73M140.75 225.73L141.48 224.99M141.48 224.99L142.58 224.26M142.58 224.26L143.68 223.53M143.68 223.53L144.77 222.8M144.77 222.8L145.87 222.07M145.87 222.07L146.6 221.34M146.6 221.34L147.7 220.61M147.7 220.61L148.43 219.51M148.43 219.51L149.53 218.78M149.53 218.78L150.26 218.05M150.26 218.05L151.35 216.95M151.35 216.95L152.09 216.22M152.09 216.22L152.82 215.12M152.82 215.12L153.91 214.39M153.91 214.39L154.65 213.29M154.65 213.29L155.38 212.2M155.38 212.2L156.11 211.1M156.11 211.1L156.84 210.37M156.84 210.37L157.57 209.27M157.57 209.27L158.3 208.17M158.3 208.17L158.67 207.08M158.67 207.08L159.4 205.98M159.4 205.98L160.13 204.88M160.13 204.88L160.5 203.78M160.5 203.78L161.23 202.32M161.23 202.32L161.59 201.22M161.59 201.22L161.96 200.13M161.96 200.13L162.69 199.03M162.69 199.03L163.06 197.93M163.06 197.93L163.42 196.47M163.42 196.47L163.79 195.37M163.79 195.37L164.15 193.91M164.15 193.91L164.52 192.81M164.52 192.81L164.52 191.35M164.52 191.35L164.88 190.25M164.88 190.25L165.25 188.79M165.25 188.79L165.25 187.69M165.25 187.69L165.62 186.23M165.62 186.23L165.62 185.13M165.62 185.13L165.62 183.67M165.62 183.67L165.62 182.21M165.62 182.21L165.62 181.11"/>
<path d="M412.09 243.28L598.59 243.28"/>
<path d="M412.09 118.95L598.59 118.95"/>
<path d="M598.59 243.28L598.59 118.95"/>
</g>
</g>
</svg>
