<?xml version="1.0" standalone="no"?><svg xmlns="http://www.w3.org/2000/svg" width="600.000" height="450.000" viewBox="0.0 0.0 600.000 450.000" version="1.1">
<title>Acme Converter - Post-processed with EDS-Designer: 14.44 (info@symca.com)</title>
<desc>Acme Converter - Post-processed with EDS-Designer: 14.44 (info@symca.com)</desc>
<g id="EDS_STYLE_GROUP" fill="none" stroke="black" stroke-width="1.0">
<g id="0" display="visible">
<path d="M253.26 366.24L253.26 344.27M254.3 344.27L254.3 366.24M250.12 344.27L262.67 344.27M262.67 344.27L265.81 345.32M265.81 345.32L266.86 346.37M266.86 346.37L267.9 348.46M267.9 348.46L267.9 350.55M267.9 350.55L266.86 352.64M266.86 352.64L265.81 353.69M265.81 353.69L262.67 354.74M262.67 344.27L264.76 345.32M264.76 345.32L265.81 346.37M265.81 346.37L266.86 348.46M266.86 348.46L266.86 350.55M266.86 350.55L265.81 352.64M265.81 352.64L264.76 353.69M264.76 353.69L262.67 354.74M254.3 354.74L262.67 354.74M262.67 354.74L265.81 355.78M265.81 355.78L266.86 356.83M266.86 356.83L267.9 358.92M267.9 358.92L267.9 362.06M267.9 362.06L266.86 364.15M266.86 364.15L265.81 365.2M265.81 365.2L262.67 366.24M262.67 366.24L250.12 366.24M262.67 354.74L264.76 355.78M264.76 355.78L265.81 356.83M265.81 356.83L266.86 358.92M266.86 358.92L266.86 362.06M266.86 362.06L265.81 364.15M265.81 364.15L264.76 365.2M264.76 365.2L262.67 366.24M276.27 366.24L276.27 344.27M277.32 344.27L277.32 366.24M273.13 344.27L280.46 344.27M273.13 366.24L288.83 366.24M288.83 366.24L288.83 359.97M288.83 359.97L287.78 366.24M301.38 344.27L294.06 366.24M301.38 344.27L308.71 366.24M301.38 347.41L307.66 366.24M296.15 359.97L305.57 359.97M291.97 366.24L298.24 366.24M304.52 366.24L310.8 366.24M328.59 347.41L329.63 350.55M329.63 350.55L329.63 344.27M329.63 344.27L328.59 347.41M328.59 347.41L326.49 345.32M326.49 345.32L323.35 344.27M323.35 344.27L321.26 344.27M321.26 344.27L318.12 345.32M318.12 345.32L316.03 347.41M316.03 347.41L314.98 349.5M314.98 349.5L313.94 352.64M313.94 352.64L313.94 357.87M313.94 357.87L314.98 361.01M314.98 361.01L316.03 363.11M316.03 363.11L318.12 365.2M318.12 365.2L321.26 366.24M321.26 366.24L323.35 366.24M323.35 366.24L326.49 365.2M326.49 365.2L328.59 363.11M328.59 363.11L329.63 361.01M321.26 344.27L319.17 345.32M319.17 345.32L317.08 347.41M317.08 347.41L316.03 349.5M316.03 349.5L314.98 352.64M314.98 352.64L314.98 357.87M314.98 357.87L316.03 361.01M316.03 361.01L317.08 363.11M317.08 363.11L319.17 365.2M319.17 365.2L321.26 366.24M339.05 366.24L339.05 344.27M340.09 344.27L340.09 366.24M353.69 344.27L340.09 357.87M345.32 353.69L353.69 366.24M344.28 353.69L352.65 366.24M335.91 344.27L343.23 344.27M349.51 344.27L355.79 344.27M335.91 366.24L343.23 366.24M349.51 366.24L355.79 366.24"/>
<path d="M171.95 138.22L169.12 138.22M168.21 138.22L168.05 138.22M167.14 138.22L164.31 138.22"/>
<path d="M441.52 138.22L438.68 138.22M437.77 138.22L437.62 138.22M436.71 138.22L433.87 138.22"/>
<path d="M382 302.2L388.04 301M388.04 301L393.16 297.58M393.16 297.58L396.58 292.46M396.58 292.46L397.78 286.42"/>
<path d="M382 302.2L382 297.77"/>
<path d="M397.78 286.42L393.35 286.42"/>
<path d="M382 297.77L387.68 296.25M387.68 296.25L391.83 292.1M391.83 292.1L393.35 286.42"/>
<path d="M223.9 302.2L382 302.2"/>
<path d="M397.78 286.42L397.78 174.11"/>
<path d="M382 297.77L223.9 297.77"/>
<path d="M223.9 302.2L223.9 297.77"/>
<path d="M393.35 174.11L393.35 286.42"/>
<path d="M393.35 174.11L397.78 174.11"/>
<path d="M393.35 174.11L391.83 168.43M391.83 168.43L387.68 164.28M387.68 164.28L382 162.76"/>
<path d="M382 162.76L223.9 162.76"/>
<path d="M223.9 162.76L218.23 164.28M218.23 164.28L214.07 168.43M214.07 168.43L212.55 174.11"/>
<path d="M212.55 174.11L212.55 286.42"/>
<path d="M212.55 286.42L214.07 292.1M214.07 292.1L218.23 296.25M218.23 296.25L223.9 297.77"/>
<path d="M383.12 276.54L383.12 272.22"/>
<path d="M383.12 227.04L383.12 222.72"/>
<path d="M222.78 188.23L228.43 188.23"/>
<path d="M222.78 183.91L222.78 188.23"/>
<path d="M208.12 286.42L209.32 292.46M209.32 292.46L212.75 297.58M212.75 297.58L217.86 301M217.86 301L223.9 302.2"/>
<path d="M208.12 286.42L208.12 174.11"/>
<path d="M223.9 158.33L217.86 159.53M217.86 159.53L212.75 162.95M212.75 162.95L209.32 168.07M209.32 168.07L208.12 174.11"/>
<path d="M223.9 158.33L382 158.33"/>
<path d="M397.78 174.11L396.58 168.07M396.58 168.07L393.16 162.95M393.16 162.95L388.04 159.53M388.04 159.53L382 158.33"/>
<path d="M208.12 286.42L212.55 286.42"/>
<path d="M382 162.76L382 158.33"/>
<path d="M223.9 158.33L223.9 162.76"/>
<path d="M212.55 174.11L208.12 174.11"/>
<path d="M410.54 291.81L410.54 295.71"/>
<path d="M410.54 192.1L410.54 173.53"/>
<path d="M416.08 173.53L410.54 173.53"/>
<path d="M416.08 173.53L418.04 172.71M418.04 172.71L418.85 170.76"/>
<path d="M418.85 170.76L418.85 167.43"/>
<path d="M418.85 167.43L418.04 165.48M418.04 165.48L416.08 164.67"/>
<path d="M416.08 164.67L408.92 164.67"/>
<path d="M408.92 164.67L405.66 158.28M405.66 158.28L400.86 152.95M400.86 152.95L394.85 149.04"/>
<path d="M394.85 149.04L394.85 153.8"/>
<path d="M394.85 153.8L366.34 153.8"/>
<path d="M366.34 153.8L366.34 146.31"/>
<path d="M366.34 146.31L239.56 146.31"/>
<path d="M239.56 146.31L239.56 153.8"/>
<path d="M239.56 153.8L211.06 153.8"/>
<path d="M211.06 153.8L211.06 149.04"/>
<path d="M211.06 149.04L205.05 152.95M205.05 152.95L200.25 158.28M200.25 158.28L196.98 164.67"/>
<path d="M196.98 164.67L189.82 164.67"/>
<path d="M189.82 164.67L187.86 165.48M187.86 165.48L187.05 167.43"/>
<path d="M187.05 167.43L187.05 170.76"/>
<path d="M187.05 170.76L187.42 172.14M187.42 172.14L188.44 173.15M188.44 173.15L189.82 173.53"/>
<path d="M189.82 173.53L195.37 173.53"/>
<path d="M195.37 173.53L195.37 192.1"/>
<path d="M195.37 291.81L195.37 295.71"/>
<path d="M195.37 295.71L182.73 295.71"/>
<path d="M182.73 295.71L181.35 296.08M181.35 296.08L180.33 297.1M180.33 297.1L179.96 298.48"/>
<path d="M179.96 298.48L179.96 302.91"/>
<path d="M179.96 302.91L180.77 304.87M180.77 304.87L182.73 305.68"/>
<path d="M182.73 305.68L195.37 305.68"/>
<path d="M195.37 305.68L195.37 314.58"/>
<path d="M195.37 314.58L210.9 314.58"/>
<path d="M210.9 308.71L210.9 314.58"/>
<path d="M210.9 308.71L239.56 308.71"/>
<path d="M239.56 308.71L239.56 314.58"/>
<path d="M239.56 314.58L366.34 314.58"/>
<path d="M366.34 314.58L366.34 308.71"/>
<path d="M366.34 308.71L395.01 308.71"/>
<path d="M395.01 308.71L395.01 314.58"/>
<path d="M395.01 314.58L410.54 314.58"/>
<path d="M410.54 314.58L410.54 305.68"/>
<path d="M410.54 305.68L423.17 305.68"/>
<path d="M423.17 305.68L425.13 304.87M425.13 304.87L425.94 302.91"/>
<path d="M425.94 302.91L425.94 298.48"/>
<path d="M425.94 298.48L425.13 296.52M425.13 296.52L423.17 295.71"/>
<path d="M423.17 295.71L410.54 295.71"/>
<path d="M411.01 295.24L411.01 291.81"/>
<path d="M411.01 291.81L410.54 291.81"/>
<path d="M410.54 295.71L411.01 295.24"/>
<path d="M411.01 291.81L414.91 291.81"/>
<path d="M414.91 291.81L421.76 291.81"/>
<path d="M421.76 291.81L421.76 192.1"/>
<path d="M421.76 192.1L414.91 192.1"/>
<path d="M414.91 192.1L411.01 192.1"/>
<path d="M411.01 192.1L410.54 192.1"/>
<path d="M411.01 192.1L411.01 173.99"/>
<path d="M410.54 173.53L411.01 173.99"/>
<path d="M411.01 173.99L416.55 173.99"/>
<path d="M416.55 173.99L416.08 173.53"/>
<path d="M416.55 173.99L418.51 173.18M418.51 173.18L419.32 171.22"/>
<path d="M419.32 171.22L418.85 170.76"/>
<path d="M419.32 166.97L418.85 167.43"/>
<path d="M419.32 166.97L419.32 171.22"/>
<path d="M419.32 166.97L418.51 165.01M418.51 165.01L416.55 164.2"/>
<path d="M416.08 164.67L416.55 164.2"/>
<path d="M408.92 164.67L409.25 164.2"/>
<path d="M416.55 164.2L409.25 164.2"/>
<path d="M409.25 164.2L405.18 156.84M405.18 156.84L399.13 151.01M399.13 151.01L391.62 147.24M391.62 147.24L383.33 145.84"/>
<path d="M383.33 145.84L382.86 146.3"/>
<path d="M394.85 149.04L389.01 147M389.01 147L382.86 146.31"/>
<path d="M234.58 145.84L371.32 145.84"/>
<path d="M234.58 145.84L234.12 146.31"/>
<path d="M223.91 146.31L234.12 146.31"/>
<path d="M239.59 146.34L223.91 146.32"/>
<path d="M382 146.32L366.31 146.34"/>
<path d="M371.79 146.31L382 146.31"/>
<path d="M371.32 145.84L371.79 146.31"/>
<path d="M222.58 145.84L214.29 147.24M214.29 147.24L206.78 151.01M206.78 151.01L200.72 156.84M200.72 156.84L196.65 164.2"/>
<path d="M196.98 164.67L196.65 164.2"/>
<path d="M223.04 146.31L216.9 147M216.9 147L211.06 149.04"/>
<path d="M222.58 145.84L223.04 146.3"/>
<path d="M196.65 164.2L189.35 164.2"/>
<path d="M189.82 164.67L189.35 164.2"/>
<path d="M189.35 164.2L187.4 165.01M187.4 165.01L186.59 166.97"/>
<path d="M186.59 166.97L187.05 167.43"/>
<path d="M187.05 170.76L186.59 171.22"/>
<path d="M186.59 171.22L186.59 166.97"/>
<path d="M186.59 171.22L187.4 173.18M187.4 173.18L189.35 173.99"/>
<path d="M189.35 173.99L189.82 173.53"/>
<path d="M194.9 173.99L195.37 173.53"/>
<path d="M194.9 173.99L189.35 173.99"/>
<path d="M194.9 192.1L194.9 173.99"/>
<path d="M195.37 192.1L194.9 192.1"/>
<path d="M191 192.1L194.9 192.1"/>
<path d="M191 192.1L184.15 192.1"/>
<path d="M184.15 192.1L184.15 291.81"/>
<path d="M191 291.81L184.15 291.81"/>
<path d="M194.9 291.81L191 291.81"/>
<path d="M195.37 291.81L194.9 291.81"/>
<path d="M194.9 295.24L194.9 291.81"/>
<path d="M195.37 295.71L194.9 295.24"/>
<path d="M191 295.22L182.24 295.22"/>
<path d="M182.24 295.22L182.73 295.71"/>
<path d="M194.9 295.24L191 295.22"/>
<path d="M179.47 297.99L179.96 298.48"/>
<path d="M182.24 295.22L180.28 296.03M180.28 296.03L179.47 297.99"/>
<path d="M179.96 302.91L179.47 303.4"/>
<path d="M179.47 303.4L179.47 297.99"/>
<path d="M179.47 303.4L180.28 305.36M180.28 305.36L182.24 306.17"/>
<path d="M182.24 306.17L182.73 305.68"/>
<path d="M182.24 306.17L194.88 306.17"/>
<path d="M195.37 305.68L194.88 306.17"/>
<path d="M194.9 315.05L195.37 314.58"/>
<path d="M194.88 306.17L194.88 318.95"/>
<path d="M194.9 315.05L194.88 318.95"/>
<path d="M411.01 315.05L194.9 315.05"/>
<path d="M410.54 314.58L411.01 315.05"/>
<path d="M366.31 314.56L395.04 314.56"/>
<path d="M210.87 314.56L239.59 314.56"/>
<path d="M411.03 318.95L411.03 306.17"/>
<path d="M411.03 306.17L410.54 305.68"/>
<path d="M411.03 318.95L411.01 315.05"/>
<path d="M423.17 305.68L423.66 306.17"/>
<path d="M411.03 306.17L423.66 306.17"/>
<path d="M423.67 306.17L425.62 305.36M425.62 305.36L426.43 303.4"/>
<path d="M426.43 303.4L425.94 302.91"/>
<path d="M426.43 297.99L426.43 303.4"/>
<path d="M425.94 298.48L426.43 297.99"/>
<path d="M423.17 295.71L423.66 295.22"/>
<path d="M426.43 297.99L425.62 296.03M425.62 296.03L423.66 295.22"/>
<path d="M414.91 295.22L423.66 295.22"/>
<path d="M414.91 295.22L411.01 295.24"/>
<path d="M414.91 291.81L414.91 295.22"/>
<path d="M352.78 138.59L253.12 138.59"/>
<path d="M250.35 135.82L251.16 137.78M251.16 137.78L253.12 138.59"/>
<path d="M250.35 135.82L250.35 110.27"/>
<path d="M250.35 110.27L240.15 110.27"/>
<path d="M219.31 129.44L240.15 110.27"/>
<path d="M219.31 129.44L217.99 131.29M217.99 131.29L217.52 133.52"/>
<path d="M217.52 136.73L217.52 133.52"/>
<path d="M215.35 139.43L216.91 138.46M216.91 138.46L217.52 136.73"/>
<path d="M215.35 139.43L205.28 143.37M205.28 143.37L196.87 150.16M196.87 150.16L190.9 159.17"/>
<path d="M189.31 159.17L190.9 159.17"/>
<path d="M189.31 159.17L185.16 160.29M185.16 160.29L182.12 163.32M182.12 163.32L181 167.48"/>
<path d="M181 174.59L181 167.48"/>
<path d="M181 174.59L182.3 177.72M182.3 177.72L185.43 179.02"/>
<path d="M187.65 179.02L185.43 179.02"/>
<path d="M187.65 185.46L187.65 179.02"/>
<path d="M187.65 185.46L178.33 185.46"/>
<path d="M178.33 185.46L175.2 186.76M175.2 186.76L173.9 189.89"/>
<path d="M173.9 306.89L173.9 189.89"/>
<path d="M173.9 306.89L174.75 309.58M174.75 309.58L176.98 311.3"/>
<path d="M178.79 313.9L178.29 312.31M178.29 312.31L176.98 311.3"/>
<path d="M178.79 314L178.79 313.9"/>
<path d="M178.79 314L179.9 318.15M179.9 318.15L182.94 321.19M182.94 321.19L187.09 322.3"/>
<path d="M418.81 322.3L187.09 322.3"/>
<path d="M418.81 322.3L422.96 321.19M422.96 321.19L426 318.15M426 318.15L427.11 314"/>
<path d="M427.11 314L427.11 313.9"/>
<path d="M428.92 311.3L427.61 312.32M427.61 312.32L427.11 313.9"/>
<path d="M428.92 311.3L431.16 309.58M431.16 309.58L432 306.89"/>
<path d="M432 189.89L432 306.89"/>
<path d="M432 189.89L431.41 187.67M431.41 187.67L429.79 186.05M429.79 186.05L427.57 185.46"/>
<path d="M418.26 185.46L427.57 185.46"/>
<path d="M418.26 179.02L418.26 185.46"/>
<path d="M418.26 179.02L420.47 179.02"/>
<path d="M420.47 179.02L423.6 177.72M423.6 177.72L424.9 174.59"/>
<path d="M424.9 174.59L424.9 167.48"/>
<path d="M424.9 167.48L423.79 163.32M423.79 163.32L420.75 160.29M420.75 160.29L416.6 159.17"/>
<path d="M415.01 159.17L416.6 159.17"/>
<path d="M415.01 159.17L409.04 150.16M409.04 150.16L400.62 143.37M400.62 143.37L390.55 139.43"/>
<path d="M388.39 136.73L388.99 138.46M388.99 138.46L390.55 139.43"/>
<path d="M388.38 136.73L388.38 133.52"/>
<path d="M388.38 133.52L387.92 131.29M387.92 131.29L386.6 129.44"/>
<path d="M365.76 110.27L386.6 129.44"/>
<path d="M365.76 110.27L355.55 110.27"/>
<path d="M355.55 135.82L355.55 110.27"/>
<path d="M352.78 138.59L354.74 137.78M354.74 137.78L355.55 135.82"/>
<path d="M194.88 318.95L411.03 318.95"/>
<path d="M191 291.81L191 295.22"/>
<path d="M191 177.89L191 192.1"/>
<path d="M189.37 177.89L191 177.89"/>
<path d="M189.37 177.89L187.66 177.67M187.66 177.67L186.04 177.01M186.04 177.01L184.63 175.95M184.63 175.95L183.57 174.54M183.57 174.54L182.91 172.92M182.91 172.92L182.69 171.21"/>
<path d="M182.69 166.99L182.69 171.21"/>
<path d="M189.37 160.3L187.66 160.52M187.66 160.52L186.04 161.18M186.04 161.18L184.63 162.25M184.63 162.25L183.57 163.65M183.57 163.65L182.91 165.28M182.91 165.28L182.69 166.99"/>
<path d="M189.37 160.3L194.07 160.3"/>
<path d="M222.55 141.94L213.76 143.31M213.76 143.31L205.68 147.05M205.68 147.05L198.95 152.86M198.95 152.86L194.07 160.3"/>
<path d="M222.55 141.94L222.55 138.89"/>
<path d="M225.32 136.12L223.36 136.93M223.36 136.93L222.55 138.89"/>
<path d="M225.32 136.12L231.84 136.12"/>
<path d="M234.61 138.89L234.24 137.51M234.24 137.51L233.22 136.49M233.22 136.49L231.84 136.12"/>
<path d="M234.61 138.89L234.61 141.94"/>
<path d="M371.3 141.94L234.61 141.94"/>
<path d="M371.3 138.89L371.3 141.94"/>
<path d="M374.06 136.12L372.11 136.93M372.11 136.93L371.3 138.89"/>
<path d="M380.58 136.12L374.06 136.12"/>
<path d="M383.35 138.89L382.54 136.93M382.54 136.93L380.58 136.12"/>
<path d="M383.35 141.94L383.35 138.89"/>
<path d="M411.84 160.3L406.96 152.86M406.96 152.86L400.22 147.05M400.22 147.05L392.14 143.31M392.14 143.31L383.35 141.94"/>
<path d="M411.84 160.3L416.53 160.3"/>
<path d="M416.53 160.3L418.24 160.52M418.24 160.52L419.87 161.18M419.87 161.18L421.27 162.25M421.27 162.25L422.34 163.65M422.34 163.65L423 165.28M423 165.28L423.22 166.99"/>
<path d="M423.22 171.21L423.22 166.99"/>
<path d="M423.22 171.21L423 172.92M423 172.92L422.34 174.54M422.34 174.54L421.27 175.95M421.27 175.95L419.87 177.01M419.87 177.01L418.24 177.67M418.24 177.67L416.53 177.89"/>
<path d="M416.53 177.89L414.91 177.89"/>
<path d="M414.91 177.89L414.91 192.1"/>
<path d="M414.91 177.89L411.01 173.99"/>
<path d="M416.55 173.99L416.53 177.89"/>
<path d="M419.32 171.22L423.22 171.21"/>
<path d="M423.22 166.99L419.32 166.97"/>
<path d="M416.53 160.3L416.55 164.2"/>
<path d="M409.25 164.2L411.84 160.3"/>
<path d="M383.33 145.84L383.35 141.94"/>
<path d="M383.35 138.89L382.86 139.38"/>
<path d="M382.86 146.31L382.86 139.38"/>
<path d="M234.61 141.94L234.58 145.84"/>
<path d="M371.3 141.94L371.32 145.84"/>
<path d="M234.12 139.38L234.61 138.89"/>
<path d="M234.12 146.31L234.12 139.38"/>
<path d="M234.12 139.38L233.31 137.42M233.31 137.42L231.35 136.61"/>
<path d="M225.81 136.61L231.35 136.61"/>
<path d="M225.81 136.61L223.85 137.42M223.85 137.42L223.04 139.38"/>
<path d="M223.04 146.31L223.04 139.38"/>
<path d="M223.91 146.31L223.04 146.31"/>
<path d="M382 146.31L382.86 146.31"/>
<path d="M382.86 139.38L382.05 137.42M382.05 137.42L380.09 136.61"/>
<path d="M374.56 136.61L380.09 136.61"/>
<path d="M374.56 136.61L372.6 137.42M372.6 137.42L371.79 139.38"/>
<path d="M371.79 146.31L371.79 139.38"/>
<path d="M371.79 139.38L371.3 138.89"/>
<path d="M222.58 145.84L222.55 141.94"/>
<path d="M194.07 160.3L196.65 164.2"/>
<path d="M223.04 139.38L222.55 138.89"/>
<path d="M189.35 164.2L189.37 160.3"/>
<path d="M182.69 166.99L186.59 166.97"/>
<path d="M182.69 171.21L186.59 171.22"/>
<path d="M189.35 173.99L189.37 177.89"/>
<path d="M194.9 173.99L191 177.89"/>
<path d="M250.35 107.5L250.35 110.27"/>
<path d="M243.17 107.5L250.35 107.5"/>
<path d="M240.15 110.27L243.17 107.5"/>
<path d="M362.73 107.5L365.76 110.27"/>
<path d="M362.73 107.5L355.55 107.5"/>
<path d="M355.55 107.5L355.55 110.27"/>
<path d="M225.32 136.12L225.81 136.61"/>
<path d="M231.84 136.12L231.35 136.61"/>
<path d="M374.06 136.12L374.56 136.61"/>
<path d="M380.09 136.61L380.58 136.12"/>
<path d="M384.13 147.3L384.13 153.8"/>
<path d="M377.21 147.3L384.13 147.3"/>
<path d="M377.21 153.8L377.21 147.3"/>
<path d="M255.89 130.72L255.89 137.69"/>
<path d="M255.89 130.72L255.89 125.78"/>
<path d="M255.89 137.69L255.89 138.59"/>
<path d="M280.81 125.78L280.81 130.72"/>
<path d="M280.81 137.69L280.81 130.72"/>
<path d="M280.81 138.59L280.81 137.69"/>
<path d="M255.89 137.69L280.81 137.69"/>
<path d="M325.1 137.69L325.1 130.72"/>
<path d="M325.1 130.72L325.1 125.78"/>
<path d="M325.1 137.69L325.1 138.59"/>
<path d="M350.13 125.78L350.13 130.72"/>
<path d="M350.13 137.69L350.13 130.72"/>
<path d="M350.13 138.59L350.13 137.69"/>
<path d="M350.13 137.69L325.1 137.69"/>
<path d="M228.69 147.3L228.69 153.8"/>
<path d="M221.77 147.3L228.69 147.3"/>
<path d="M221.77 153.8L221.77 147.3"/>
<path d="M228.69 313.59L228.69 308.71"/>
<path d="M221.77 308.71L221.77 313.59"/>
<path d="M221.77 313.59L228.69 313.59"/>
<path d="M377.21 313.59L384.13 313.59"/>
<path d="M384.13 308.71L384.13 313.59"/>
<path d="M377.21 308.71L377.21 313.59"/>
<path d="M440.31 223.84L432 209.08"/>
<path d="M432 238.42L440.31 238.42"/>
<path d="M440.31 238.42L440.31 223.84"/>
<path d="M173.9 209.08L165.6 223.84"/>
<path d="M165.6 223.84L165.6 238.42"/>
<path d="M173.9 238.42L165.6 238.42"/>
<path d="M250.35 115.81L253.12 115.81"/>
<path d="M253.12 115.81L258.24 115.81"/>
<path d="M261.01 115.81L258.24 115.81"/>
<path d="M258.24 121.9L261.01 121.9"/>
<path d="M258.24 121.9L253.12 121.9"/>
<path d="M250.35 121.9L253.12 121.9"/>
<path d="M253.12 121.9L253.12 115.81"/>
<path d="M344.89 115.81L347.66 115.81"/>
<path d="M352.78 115.81L347.66 115.81"/>
<path d="M355.55 115.81L352.78 115.81"/>
<path d="M352.78 115.81L352.78 121.9"/>
<path d="M352.78 121.9L355.55 121.9"/>
<path d="M352.78 121.9L347.66 121.9"/>
<path d="M347.66 121.9L344.89 121.9"/>
<path d="M255.89 130.72L280.81 130.72"/>
<path d="M280.81 125.78L255.89 125.78"/>
<path d="M284.96 125.78L280.81 125.78"/>
<path d="M291.88 125.78L284.96 125.78"/>
<path d="M325.1 132.7L320.95 132.7"/>
<path d="M320.95 132.7L284.96 132.7"/>
<path d="M284.96 132.7L280.81 132.7"/>
<path d="M284.96 132.7L284.96 125.78"/>
<path d="M325.1 130.72L350.13 130.72"/>
<path d="M350.13 125.78L325.1 125.78"/>
<path d="M320.95 125.78L314.03 125.78"/>
<path d="M325.1 125.78L320.95 125.78"/>
<path d="M320.95 132.7L320.95 125.78"/>
<path d="M258.24 115.81L258.24 121.9"/>
<path d="M261.01 121.9L261.01 115.81"/>
<path d="M344.89 121.9L344.89 115.81"/>
<path d="M347.66 121.9L347.66 115.81"/>
<path d="M314.03 125.78L314.03 122.45"/>
<path d="M269.73 124.11L291.88 124.11"/>
<path d="M269.73 124.11L269.73 125.78"/>
<path d="M264.2 125.78L264.2 124.11"/>
<path d="M269.73 124.11L264.2 124.11"/>
<path d="M264.2 122.45L264.2 124.11"/>
<path d="M264.2 122.45L264.2 120.79"/>
<path d="M341.71 125.78L341.71 124.11"/>
<path d="M341.71 122.45L341.71 120.79"/>
<path d="M341.71 124.11L341.71 122.45"/>
<path d="M336.17 124.11L341.71 124.11"/>
<path d="M336.17 124.11L336.17 125.78"/>
<path d="M314.03 124.11L336.17 124.11"/>
<path d="M291.88 122.45L264.2 122.45"/>
<path d="M341.71 122.45L314.03 122.45"/>
<path d="M264.2 120.79L291.84 120.79"/>
<path d="M313.99 120.79L341.71 120.79"/>
<path d="M432.85 136.28L432.08 132.77M432.08 132.77L429.89 129.92"/>
<path d="M432.85 296.65L432.85 291.67"/>
<path d="M432.85 291.67L432.85 282.57"/>
<path d="M432.85 282.57L432.85 243.89"/>
<path d="M432.85 150.12L432.85 210.59"/>
<path d="M432.85 238.42L432.85 243.89"/>
<path d="M432.85 138.22L432.85 150.12"/>
<path d="M432.85 121.91L432.85 138.22"/>
<path d="M411.24 114.26L409.46 113.61"/>
<path d="M429.89 129.92L411.24 114.26"/>
<path d="M432.85 296.65L433.34 297.83M433.34 297.83L434.51 298.31"/>
<path d="M434.51 298.32L434.51 290.84"/>
<path d="M434.51 290.84L433.68 290.95M433.68 290.95L433.08 291.26M433.08 291.26L432.85 291.67"/>
<path d="M434.51 281.74L434.51 290.84"/>
<path d="M434.51 281.74L433.68 281.86M433.68 281.86L433.08 282.16M433.08 282.16L432.85 282.57"/>
<path d="M434.51 244.64L434.51 281.74"/>
<path d="M432.85 243.89L433.34 244.42M433.34 244.42L434.51 244.64"/>
<path d="M434.51 244.64L434.51 238.42"/>
<path d="M434.51 213.55L434.51 150.88"/>
<path d="M432.85 150.12L433.34 150.66M433.34 150.66L434.51 150.88"/>
<path d="M434.51 138.22L434.51 150.88"/>
<path d="M432.85 138.22L434.51 138.22"/>
<path d="M434.51 121.91L434.51 138.22"/>
<path d="M434.51 121.91L432.85 121.91"/>
<path d="M432.85 121.91L431.74 117.76M431.74 117.76L428.7 114.72M428.7 114.72L424.55 113.61"/>
<path d="M432.85 209.41L432.18 209.41"/>
<path d="M432 251.99L432.85 251.99"/>
<path d="M424.55 113.61L369.38 113.61"/>
<path d="M353.34 113.61L355.55 113.61"/>
<path d="M252.57 113.61L353.34 113.61"/>
<path d="M250.35 113.61L252.57 113.61"/>
<path d="M181.28 113.61L236.52 113.61"/>
<path d="M442.54 100.38L442.54 120.86"/>
<path d="M442.54 120.86L442.54 138.22"/>
<path d="M442.54 150.12L442.54 138.22"/>
<path d="M442.54 150.12L442.54 243.89"/>
<path d="M442.54 243.89L442.54 282.57"/>
<path d="M442.54 282.57L442.54 291.67"/>
<path d="M442.54 296.65L442.54 291.67"/>
<path d="M175.9 129.9L194.24 114.27"/>
<path d="M175.9 129.9L173.74 132.74M173.74 132.74L172.98 136.22"/>
<path d="M172.98 282.57L172.98 291.67"/>
<path d="M172.98 291.67L172.98 296.65"/>
<path d="M172.98 138.22L172.98 121.91"/>
<path d="M172.98 150.12L172.98 138.22"/>
<path d="M172.98 243.89L172.98 238.42"/>
<path d="M172.98 210.73L172.98 150.12"/>
<path d="M172.98 282.57L172.98 243.89"/>
<path d="M163.29 291.67L163.29 296.65"/>
<path d="M163.29 291.67L163.29 282.57"/>
<path d="M163.29 282.57L163.29 243.89"/>
<path d="M163.29 243.89L163.29 150.12"/>
<path d="M163.29 138.22L163.29 150.12"/>
<path d="M163.29 138.22L163.29 120.86"/>
<path d="M163.29 120.86L163.29 100.38"/>
<path d="M179.9 83.77L173.54 85.03M173.54 85.03L168.15 88.63M168.15 88.63L164.55 94.02M164.55 94.02L163.29 100.38"/>
<path d="M179.9 83.77L425.93 83.77"/>
<path d="M442.54 100.38L441.28 94.02M441.28 94.02L437.68 88.63M437.68 88.63L432.29 85.03M432.29 85.03L425.93 83.77"/>
<path d="M434.51 298.32L440.88 298.32"/>
<path d="M440.88 290.84L440.88 298.32"/>
<path d="M434.51 290.84L440.88 290.84"/>
<path d="M440.88 290.84L440.88 281.74"/>
<path d="M440.88 281.74L434.51 281.74"/>
<path d="M440.88 281.74L440.88 244.64"/>
<path d="M434.51 244.64L440.88 244.64"/>
<path d="M440.88 244.64L440.88 150.88"/>
<path d="M440.88 150.88L434.51 150.88"/>
<path d="M440.88 150.88L440.88 138.22"/>
<path d="M434.51 138.22L440.88 138.22"/>
<path d="M440.88 120.86L440.59 118M440.59 118L439.74 115.19M439.74 115.19L438.36 112.58M438.36 112.58L436.5 110.3M436.5 110.3L434.21 108.44M434.21 108.44L431.6 107.06M431.6 107.06L428.8 106.21M428.8 106.21L425.93 105.91"/>
<path d="M425.93 105.91L364.93 105.91"/>
<path d="M364.93 105.91L364.93 109.51"/>
<path d="M367.58 111.95L424.55 111.95"/>
<path d="M434.51 121.91L433.18 116.93M433.18 116.93L429.53 113.28M429.53 113.28L424.55 111.95"/>
<path d="M440.88 138.22L440.88 120.86"/>
<path d="M424.55 113.61L424.55 111.95"/>
<path d="M364.93 104.25L364.93 105.91"/>
<path d="M353.34 104.25L364.93 104.25"/>
<path d="M353.34 111.95L353.34 113.61"/>
<path d="M353.34 105.91L353.34 104.25"/>
<path d="M353.34 111.95L353.34 105.91"/>
<path d="M252.57 111.95L353.34 111.95"/>
<path d="M252.57 113.61L252.57 111.95"/>
<path d="M252.57 105.91L252.57 111.95"/>
<path d="M252.57 104.25L252.57 105.91"/>
<path d="M240.9 104.25L252.57 104.25"/>
<path d="M240.9 105.91L240.9 104.25"/>
<path d="M240.9 109.58L240.9 105.91"/>
<path d="M238.33 111.95L181.28 111.95"/>
<path d="M181.28 113.61L181.28 111.95"/>
<path d="M181.28 113.61L177.13 114.72M177.13 114.72L174.09 117.76M174.09 117.76L172.98 121.91"/>
<path d="M196.04 113.61L194.24 114.27"/>
<path d="M316.76 113.61L315.37 113.98M315.37 113.98L314.36 114.99M314.36 114.99L313.99 116.38"/>
<path d="M291.3 114.73L290.32 113.9M290.32 113.9L289.07 113.61"/>
<path d="M291.84 116.38L291.3 114.73"/>
<path d="M440.88 113.62L440.88 100.09"/>
<path d="M442.54 100.38L442.06 100.17M442.06 100.17L440.88 100.09"/>
<path d="M442.54 120.86L441.28 114.51M441.28 114.51L437.68 109.12M437.68 109.12L432.29 105.52M432.29 105.52L425.93 104.25"/>
<path d="M442.54 120.86L440.88 120.86"/>
<path d="M440.88 138.22L442.54 138.22"/>
<path d="M440.88 150.88L441.71 150.78M441.71 150.78L442.32 150.5M442.32 150.5L442.54 150.12"/>
<path d="M440.88 244.64L442.06 244.42M442.06 244.42L442.54 243.89"/>
<path d="M442.54 282.57L442.32 282.16M442.32 282.16L441.71 281.86M441.71 281.86L440.88 281.74"/>
<path d="M442.54 291.67L442.32 291.26M442.32 291.26L441.71 290.95M441.71 290.95L440.88 290.84"/>
<path d="M440.88 298.31L441.71 298.09M441.71 298.09L442.32 297.48M442.32 297.48L442.54 296.65"/>
<path d="M172.98 282.57L172.75 282.16M172.75 282.16L172.15 281.86M172.15 281.86L171.32 281.74"/>
<path d="M171.32 290.84L171.32 281.74"/>
<path d="M172.98 291.67L172.75 291.26M172.75 291.26L172.15 290.95M172.15 290.95L171.32 290.84"/>
<path d="M171.32 296.3L171.32 290.84"/>
<path d="M171.32 298.32L171.32 296.3"/>
<path d="M171.32 298.31L172.15 298.09M172.15 298.09L172.75 297.48M172.75 297.48L172.98 296.65"/>
<path d="M171.32 138.22L171.32 121.91"/>
<path d="M171.32 138.22L172.98 138.22"/>
<path d="M172.98 121.91L171.32 121.91"/>
<path d="M171.32 150.88L171.32 138.22"/>
<path d="M171.32 150.88L172.49 150.66M172.49 150.66L172.98 150.12"/>
<path d="M171.32 244.64L171.32 238.42"/>
<path d="M171.32 213.68L171.32 150.88"/>
<path d="M171.32 244.64L172.15 244.54M172.15 244.54L172.75 244.26M172.75 244.26L172.98 243.89"/>
<path d="M171.32 281.74L171.32 244.64"/>
<path d="M173.9 251.99L172.98 251.99"/>
<path d="M172.98 209.41L173.72 209.41"/>
<path d="M163.29 296.65L163.51 297.48M163.51 297.48L164.12 298.09M164.12 298.09L164.95 298.31"/>
<path d="M164.95 298.32L164.95 296.3"/>
<path d="M164.95 290.84L164.95 296.3"/>
<path d="M164.95 290.84L164.12 290.95M164.12 290.95L163.51 291.26M163.51 291.26L163.29 291.67"/>
<path d="M164.95 281.74L164.95 290.84"/>
<path d="M164.95 281.74L164.12 281.86M164.12 281.86L163.51 282.16M163.51 282.16L163.29 282.57"/>
<path d="M163.29 243.89L163.77 244.42M163.77 244.42L164.95 244.64"/>
<path d="M164.95 244.64L164.95 281.74"/>
<path d="M164.95 150.88L164.95 244.64"/>
<path d="M163.29 150.12L163.77 150.66M163.77 150.66L164.95 150.88"/>
<path d="M164.95 138.22L164.95 150.88"/>
<path d="M164.95 138.22L163.29 138.22"/>
<path d="M164.95 120.86L164.95 138.22"/>
<path d="M164.95 120.86L163.29 120.86"/>
<path d="M179.9 104.25L173.54 105.52M173.54 105.52L168.15 109.12M168.15 109.12L164.55 114.51M164.55 114.51L163.29 120.86"/>
<path d="M164.95 100.09L164.95 113.62"/>
<path d="M164.95 100.09L163.77 100.17M163.77 100.17L163.29 100.38"/>
<path d="M179.9 85.14L174.18 86.29M174.18 86.29L169.33 89.53M169.33 89.53L166.09 94.37M166.09 94.37L164.94 100.09"/>
<path d="M179.9 83.77L179.9 85.14"/>
<path d="M425.93 85.14L179.9 85.14"/>
<path d="M425.93 85.14L425.93 83.77"/>
<path d="M440.88 100.09L439.74 94.37M439.74 94.37L436.5 89.52M436.5 89.52L431.65 86.28M431.65 86.28L425.93 85.14"/>
<path d="M425.93 105.91L425.93 104.25"/>
<path d="M364.93 104.25L425.93 104.25"/>
<path d="M179.9 104.25L240.9 104.25"/>
<path d="M252.57 104.25L353.34 104.25"/>
<path d="M353.34 105.91L252.57 105.91"/>
<path d="M179.9 105.91L179.9 104.25"/>
<path d="M240.9 105.91L179.9 105.91"/>
<path d="M171.32 138.22L164.95 138.22"/>
<path d="M181.28 111.95L176.3 113.28M176.3 113.28L172.65 116.93M172.65 116.93L171.32 121.91"/>
<path d="M179.9 105.91L177.03 106.21M177.03 106.21L174.22 107.06M174.22 107.06L171.61 108.44M171.61 108.44L169.32 110.3M169.32 110.3L167.47 112.58M167.47 112.58L166.09 115.19M166.09 115.19L165.24 118M165.24 118L164.95 120.86"/>
<path d="M314.17 115.4L291.66 115.4"/>
<path d="M313.99 116.38L313.99 125.01"/>
<path d="M313.99 128.59L313.99 125.01"/>
<path d="M291.84 125.01L291.84 116.38"/>
<path d="M313.99 125.01L291.84 125.01"/>
<path d="M291.84 128.59L291.84 125.01"/>
<path d="M164.95 290.84L171.32 290.84"/>
<path d="M171.32 281.74L164.95 281.74"/>
<path d="M171.32 298.32L164.95 298.32"/>
<path d="M164.95 150.88L171.32 150.88"/>
<path d="M171.32 244.64L164.95 244.64"/>
<path d="M291.84 128.59L313.99 128.59"/>
<path d="M383.12 227.04L383.12 222.72"/>
<path d="M454.4 175.58L456.08 174.74M456.08 174.74L458.59 172.23M458.59 172.23L458.59 189.81"/>
<path d="M127.45 175.49L129.12 174.65M129.12 174.65L131.63 172.14M131.63 172.14L131.63 189.72M141.67 176.33L141.67 175.49M141.67 175.49L142.51 173.82M142.51 173.82L143.35 172.98M143.35 172.98L145.02 172.14M145.02 172.14L148.37 172.14M148.37 172.14L150.04 172.98M150.04 172.98L150.88 173.82M150.88 173.82L151.72 175.49M151.72 175.49L151.72 177.16M151.72 177.16L150.88 178.84M150.88 178.84L149.21 181.35M149.21 181.35L140.84 189.72M140.84 189.72L152.56 189.72"/>
<path d="M125.7 196.49L125.7 195.65M125.7 195.65L126.53 193.98M126.53 193.98L127.37 193.14M127.37 193.14L129.04 192.3M129.04 192.3L132.39 192.3M132.39 192.3L134.07 193.14M134.07 193.14L134.9 193.98M134.9 193.98L135.74 195.65M135.74 195.65L135.74 197.33M135.74 197.33L134.9 199M134.9 199L133.23 201.51M133.23 201.51L124.86 209.88M124.86 209.88L136.58 209.88M149.97 192.3L141.6 204.02M141.6 204.02L154.15 204.02M149.97 192.3L149.97 209.88"/>
<path d="M124.38 214.3L133.58 214.3M133.58 214.3L128.56 220.99M128.56 220.99L131.07 220.99M131.07 220.99L132.75 221.83M132.75 221.83L133.58 222.67M133.58 222.67L134.42 225.18M134.42 225.18L134.42 226.85M134.42 226.85L133.58 229.36M133.58 229.36L131.91 231.04M131.91 231.04L129.4 231.87M129.4 231.87L126.89 231.87M126.89 231.87L124.38 231.04M124.38 231.04L123.54 230.2M123.54 230.2L122.7 228.53M149.49 216.81L148.65 215.13M148.65 215.13L146.14 214.3M146.14 214.3L144.47 214.3M144.47 214.3L141.95 215.13M141.95 215.13L140.28 217.65M140.28 217.65L139.44 221.83M139.44 221.83L139.44 226.02M139.44 226.02L140.28 229.36M140.28 229.36L141.95 231.04M141.95 231.04L144.47 231.87M144.47 231.87L145.3 231.87M145.3 231.87L147.81 231.04M147.81 231.04L149.49 229.36M149.49 229.36L150.32 226.85M150.32 226.85L150.32 226.02M150.32 226.02L149.49 223.5M149.49 223.5L147.81 221.83M147.81 221.83L145.3 220.99M145.3 220.99L144.47 220.99M144.47 220.99L141.95 221.83M141.95 221.83L140.28 223.5M140.28 223.5L139.44 226.02"/>
<path d="M131.19 248.9L122.82 260.62M122.82 260.62L135.37 260.62M131.19 248.9L131.19 266.47M143.74 248.9L141.23 249.74M141.23 249.74L140.4 251.41M140.4 251.41L140.4 253.08M140.4 253.08L141.23 254.76M141.23 254.76L142.91 255.59M142.91 255.59L146.25 256.43M146.25 256.43L148.77 257.27M148.77 257.27L150.44 258.94M150.44 258.94L151.28 260.62M151.28 260.62L151.28 263.13M151.28 263.13L150.44 264.8M150.44 264.8L149.6 265.64M149.6 265.64L147.09 266.47M147.09 266.47L143.74 266.47M143.74 266.47L141.23 265.64M141.23 265.64L140.4 264.8M140.4 264.8L139.56 263.13M139.56 263.13L139.56 260.62M139.56 260.62L140.4 258.94M140.4 258.94L142.07 257.27M142.07 257.27L144.58 256.43M144.58 256.43L147.93 255.59M147.93 255.59L149.6 254.76M149.6 254.76L150.44 253.08M150.44 253.08L150.44 251.41M150.44 251.41L149.6 249.74M149.6 249.74L147.09 248.9M147.09 248.9L143.74 248.9"/>
<path d="M134.16 271.58L133.32 269.91M133.32 269.91L130.81 269.07M130.81 269.07L129.14 269.07M129.14 269.07L126.63 269.91M126.63 269.91L124.95 272.42M124.95 272.42L124.12 276.61M124.12 276.61L124.12 280.79M124.12 280.79L124.95 284.14M124.95 284.14L126.63 285.81M126.63 285.81L129.14 286.65M129.14 286.65L129.98 286.65M129.98 286.65L132.49 285.81M132.49 285.81L134.16 284.14M134.16 284.14L135 281.63M135 281.63L135 280.79M135 280.79L134.16 278.28M134.16 278.28L132.49 276.61M132.49 276.61L129.98 275.77M129.98 275.77L129.14 275.77M129.14 275.77L126.63 276.61M126.63 276.61L124.95 278.28M124.95 278.28L124.12 280.79M145.88 269.07L143.37 269.91M143.37 269.91L141.69 272.42M141.69 272.42L140.86 276.61M140.86 276.61L140.86 279.12M140.86 279.12L141.69 283.3M141.69 283.3L143.37 285.81M143.37 285.81L145.88 286.65M145.88 286.65L147.55 286.65M147.55 286.65L150.06 285.81M150.06 285.81L151.74 283.3M151.74 283.3L152.58 279.12M152.58 279.12L152.58 276.61M152.58 276.61L151.74 272.42M151.74 272.42L150.06 269.91M150.06 269.91L147.55 269.07M147.55 269.07L145.88 269.07"/>
<path d="M448.69 219.38L448.69 218.54M448.69 218.54L449.53 216.87M449.53 216.87L450.37 216.03M450.37 216.03L452.04 215.2M452.04 215.2L455.39 215.2M455.39 215.2L457.06 216.03M457.06 216.03L457.9 216.87M457.9 216.87L458.74 218.54M458.74 218.54L458.74 220.22M458.74 220.22L457.9 221.89M457.9 221.89L456.23 224.4M456.23 224.4L447.86 232.77M447.86 232.77L459.58 232.77M474.64 215.2L466.27 215.2M466.27 215.2L465.43 222.73M465.43 222.73L466.27 221.89M466.27 221.89L468.78 221.05M468.78 221.05L471.29 221.05M471.29 221.05L473.8 221.89M473.8 221.89L475.48 223.57M475.48 223.57L476.32 226.08M476.32 226.08L476.32 227.75M476.32 227.75L475.48 230.26M475.48 230.26L473.8 231.94M473.8 231.94L471.29 232.77M471.29 232.77L468.78 232.77M468.78 232.77L466.27 231.94M466.27 231.94L465.43 231.1M465.43 231.1L464.6 229.42"/>
<path d="M446.56 196.03L448.24 195.19M448.24 195.19L450.75 192.68M450.75 192.68L450.75 210.25M461.63 192.68L470.83 192.68M470.83 192.68L465.81 199.37M465.81 199.37L468.32 199.37M468.32 199.37L470 200.21M470 200.21L470.83 201.05M470.83 201.05L471.67 203.56M471.67 203.56L471.67 205.23M471.67 205.23L470.83 207.74M470.83 207.74L469.16 209.42M469.16 209.42L466.65 210.25M466.65 210.25L464.14 210.25M464.14 210.25L461.63 209.42M461.63 209.42L460.79 208.58M460.79 208.58L459.95 206.91"/>
<path d="M450.42 249.5L459.62 249.5M459.62 249.5L454.6 256.2M454.6 256.2L457.11 256.2M457.11 256.2L458.79 257.04M458.79 257.04L459.62 257.87M459.62 257.87L460.46 260.38M460.46 260.38L460.46 262.06M460.46 262.06L459.62 264.57M459.62 264.57L457.95 266.24M457.95 266.24L455.44 267.08M455.44 267.08L452.93 267.08M452.93 267.08L450.42 266.24M450.42 266.24L449.58 265.41M449.58 265.41L448.74 263.73M465.48 249.5L477.2 249.5M477.2 249.5L468.83 267.08"/>
<path d="M458.03 270.16L449.66 281.88M449.66 281.88L462.22 281.88M458.03 270.16L458.03 287.74M477.29 276.02L476.45 278.53M476.45 278.53L474.77 280.21M474.77 280.21L472.26 281.05M472.26 281.05L471.43 281.05M471.43 281.05L468.92 280.21M468.92 280.21L467.24 278.53M467.24 278.53L466.4 276.02M466.4 276.02L466.4 275.19M466.4 275.19L467.24 272.68M467.24 272.68L468.92 271M468.92 271L471.43 270.16M471.43 270.16L472.26 270.16M472.26 270.16L474.77 271M474.77 271L476.45 272.68M476.45 272.68L477.29 276.02M477.29 276.02L477.29 280.21M477.29 280.21L476.45 284.39M476.45 284.39L474.77 286.9M474.77 286.9L472.26 287.74M472.26 287.74L470.59 287.74M470.59 287.74L468.08 286.9M468.08 286.9L467.24 285.23"/>
<path d="M383 184.15L377.37 184.15"/>
<path d="M377.37 184.15L377.37 186.24"/>
<path d="M383 186.24L383 184.15"/>
<path d="M385.57 181.42L383 184.15"/>
<path d="M385.57 190.9L383 188.33M383 188.33L383 187.36"/>
<path d="M383 187.36L383 186.24"/>
<path d="M385.57 190.9L385.57 181.42"/>
<path d="M385.57 181.42L374.79 181.42"/>
<path d="M383 188.33L377.37 188.33"/>
<path d="M377.37 187.36L377.37 188.33"/>
<path d="M374.79 190.9L374.79 181.42"/>
<path d="M377.37 186.24L377.37 187.36"/>
<path d="M377.37 188.33L374.79 190.9"/>
<path d="M374.79 181.42L377.37 184.15"/>
<path d="M383 184.15L377.37 184.15"/>
<path d="M377.37 184.15L377.37 186.24"/>
<path d="M383 186.24L383 184.15"/>
<path d="M383 187.36L383 186.24"/>
<path d="M377.37 187.36L377.37 186.24"/>
<path d="M374.79 190.9L385.57 190.9"/>
<path d="M368.9 184.02L363.28 184.02"/>
<path d="M363.28 184.02L363.28 186.11"/>
<path d="M368.9 186.11L368.9 184.02"/>
<path d="M371.48 181.29L368.9 184.02"/>
<path d="M371.48 190.77L368.9 188.2M368.9 188.2L368.9 187.24"/>
<path d="M368.9 187.24L368.9 186.11"/>
<path d="M371.48 190.77L371.48 181.29"/>
<path d="M371.48 181.29L360.7 181.29"/>
<path d="M368.9 188.2L363.28 188.2"/>
<path d="M363.28 187.24L363.28 188.2"/>
<path d="M360.7 190.77L360.7 181.29"/>
<path d="M363.28 186.11L363.28 187.24"/>
<path d="M363.28 188.2L360.7 190.77"/>
<path d="M360.7 181.29L363.28 184.02"/>
<path d="M368.9 184.02L363.28 184.02"/>
<path d="M363.28 184.02L363.28 186.11"/>
<path d="M368.9 186.11L368.9 184.02"/>
<path d="M368.9 187.24L368.9 186.11"/>
<path d="M363.28 187.24L363.28 186.11"/>
<path d="M360.7 190.77L371.48 190.77"/>
<path d="M354.94 184.15L349.32 184.15"/>
<path d="M349.32 184.15L349.32 186.24"/>
<path d="M354.94 186.24L354.94 184.15"/>
<path d="M357.52 181.42L354.94 184.15"/>
<path d="M357.52 190.9L354.94 188.33M354.94 188.33L354.94 187.36"/>
<path d="M354.94 187.36L354.94 186.24"/>
<path d="M357.52 190.9L357.52 181.42"/>
<path d="M357.52 181.42L346.74 181.42"/>
<path d="M354.94 188.33L349.32 188.33"/>
<path d="M349.32 187.36L349.32 188.33"/>
<path d="M346.74 190.9L346.74 181.42"/>
<path d="M349.32 186.24L349.32 187.36"/>
<path d="M349.32 188.33L346.74 190.9"/>
<path d="M346.74 181.42L349.32 184.15"/>
<path d="M354.94 184.15L349.32 184.15"/>
<path d="M349.32 184.15L349.32 186.24"/>
<path d="M354.94 186.24L354.94 184.15"/>
<path d="M354.94 187.36L354.94 186.24"/>
<path d="M349.32 187.36L349.32 186.24"/>
<path d="M346.74 190.9L357.52 190.9"/>
<path d="M340.91 183.94L335.29 183.94"/>
<path d="M335.29 183.94L335.29 186.03"/>
<path d="M340.91 186.03L340.91 183.94"/>
<path d="M343.49 181.2L340.91 183.94"/>
<path d="M343.49 190.69L340.91 188.12M340.91 188.12L340.91 187.15"/>
<path d="M340.91 187.15L340.91 186.03"/>
<path d="M343.49 190.69L343.49 181.2"/>
<path d="M343.49 181.2L332.71 181.2"/>
<path d="M340.91 188.12L335.29 188.12"/>
<path d="M335.29 187.15L335.29 188.12"/>
<path d="M332.71 190.69L332.71 181.2"/>
<path d="M335.29 186.03L335.29 187.15"/>
<path d="M335.29 188.12L332.71 190.69"/>
<path d="M332.71 181.2L335.29 183.94"/>
<path d="M340.91 183.94L335.29 183.94"/>
<path d="M335.29 183.94L335.29 186.03"/>
<path d="M340.91 186.03L340.91 183.94"/>
<path d="M340.91 187.15L340.91 186.03"/>
<path d="M335.29 187.15L335.29 186.03"/>
<path d="M332.71 190.69L343.49 190.69"/>
<path d="M326.9 184.13L321.27 184.13"/>
<path d="M321.27 184.13L321.27 186.22"/>
<path d="M326.9 186.22L326.9 184.13"/>
<path d="M329.47 181.39L326.9 184.13"/>
<path d="M329.47 190.88L326.9 188.31M326.9 188.31L326.9 187.34"/>
<path d="M326.9 187.34L326.9 186.22"/>
<path d="M329.47 190.88L329.47 181.39"/>
<path d="M329.47 181.39L318.7 181.39"/>
<path d="M326.9 188.31L321.27 188.31"/>
<path d="M321.27 187.34L321.27 188.31"/>
<path d="M318.7 190.88L318.7 181.39"/>
<path d="M321.27 186.22L321.27 187.34"/>
<path d="M321.27 188.31L318.7 190.88"/>
<path d="M318.7 181.39L321.27 184.13"/>
<path d="M326.9 184.13L321.27 184.13"/>
<path d="M321.27 184.13L321.27 186.22"/>
<path d="M326.9 186.22L326.9 184.13"/>
<path d="M326.9 187.34L326.9 186.22"/>
<path d="M321.27 187.34L321.27 186.22"/>
<path d="M318.7 190.88L329.47 190.88"/>
<path d="M312.8 184L307.17 184"/>
<path d="M307.17 184L307.17 186.09"/>
<path d="M312.8 186.09L312.8 184"/>
<path d="M315.37 181.27L312.8 184"/>
<path d="M315.37 190.75L312.8 188.18M312.8 188.18L312.8 187.22"/>
<path d="M312.8 187.22L312.8 186.09"/>
<path d="M315.37 190.75L315.37 181.27"/>
<path d="M315.37 181.27L304.6 181.27"/>
<path d="M312.8 188.18L307.17 188.18"/>
<path d="M307.17 187.22L307.17 188.18"/>
<path d="M304.6 190.75L304.6 181.27"/>
<path d="M307.17 186.09L307.17 187.22"/>
<path d="M307.17 188.18L304.6 190.75"/>
<path d="M304.6 181.27L307.17 184"/>
<path d="M312.8 184L307.17 184"/>
<path d="M307.17 184L307.17 186.09"/>
<path d="M312.8 186.09L312.8 184"/>
<path d="M312.8 187.22L312.8 186.09"/>
<path d="M307.17 187.22L307.17 186.09"/>
<path d="M304.6 190.75L315.37 190.75"/>
<path d="M298.69 184L293.07 184"/>
<path d="M293.07 184L293.07 186.09"/>
<path d="M298.69 186.09L298.69 184"/>
<path d="M301.27 181.27L298.69 184"/>
<path d="M301.27 190.75L298.69 188.18M298.69 188.18L298.69 187.22"/>
<path d="M298.69 187.22L298.69 186.09"/>
<path d="M301.27 190.75L301.27 181.27"/>
<path d="M301.27 181.27L290.49 181.27"/>
<path d="M298.69 188.18L293.07 188.18"/>
<path d="M293.07 187.22L293.07 188.18"/>
<path d="M290.49 190.75L290.49 181.27"/>
<path d="M293.07 186.09L293.07 187.22"/>
<path d="M293.07 188.18L290.49 190.75"/>
<path d="M290.49 181.27L293.07 184"/>
<path d="M298.69 184L293.07 184"/>
<path d="M293.07 184L293.07 186.09"/>
<path d="M298.69 186.09L298.69 184"/>
<path d="M298.69 187.22L298.69 186.09"/>
<path d="M293.07 187.22L293.07 186.09"/>
<path d="M290.49 190.75L301.27 190.75"/>
<path d="M284.59 183.87L278.96 183.87"/>
<path d="M278.96 183.87L278.96 185.96"/>
<path d="M284.59 185.96L284.59 183.87"/>
<path d="M287.16 181.14L284.59 183.87"/>
<path d="M287.16 190.63L284.59 188.05M284.59 188.05L284.59 187.09"/>
<path d="M284.59 187.09L284.59 185.96"/>
<path d="M287.16 190.63L287.16 181.14"/>
<path d="M287.16 181.14L276.39 181.14"/>
<path d="M284.59 188.05L278.96 188.05"/>
<path d="M278.96 187.09L278.96 188.05"/>
<path d="M276.39 190.63L276.39 181.14"/>
<path d="M278.96 185.96L278.96 187.09"/>
<path d="M278.96 188.05L276.39 190.63"/>
<path d="M276.39 181.14L278.96 183.87"/>
<path d="M284.59 183.87L278.96 183.87"/>
<path d="M278.96 183.87L278.96 185.96"/>
<path d="M284.59 185.96L284.59 183.87"/>
<path d="M284.59 187.09L284.59 185.96"/>
<path d="M278.96 187.09L278.96 185.96"/>
<path d="M276.39 190.63L287.16 190.63"/>
<path d="M270.49 183.75L264.86 183.75"/>
<path d="M264.86 183.75L264.86 185.84"/>
<path d="M270.49 185.84L270.49 183.75"/>
<path d="M273.06 181.01L270.49 183.75"/>
<path d="M273.06 190.5L270.49 187.93M270.49 187.93L270.49 186.96"/>
<path d="M270.49 186.96L270.49 185.84"/>
<path d="M273.06 190.5L273.06 181.01"/>
<path d="M273.06 181.01L262.29 181.01"/>
<path d="M270.49 187.93L264.86 187.93"/>
<path d="M264.86 186.96L264.86 187.93"/>
<path d="M262.29 190.5L262.29 181.01"/>
<path d="M264.86 185.84L264.86 186.96"/>
<path d="M264.86 187.93L262.29 190.5"/>
<path d="M262.29 181.01L264.86 183.75"/>
<path d="M270.49 183.75L264.86 183.75"/>
<path d="M264.86 183.75L264.86 185.84"/>
<path d="M270.49 185.84L270.49 183.75"/>
<path d="M270.49 186.96L270.49 185.84"/>
<path d="M264.86 186.96L264.86 185.84"/>
<path d="M262.29 190.5L273.06 190.5"/>
<path d="M256.38 184.13L250.75 184.13"/>
<path d="M250.75 184.13L250.75 186.22"/>
<path d="M256.38 186.22L256.38 184.13"/>
<path d="M258.96 181.39L256.38 184.13"/>
<path d="M258.96 190.88L256.38 188.31M256.38 188.31L256.38 187.34"/>
<path d="M256.38 187.34L256.38 186.22"/>
<path d="M258.96 190.88L258.96 181.39"/>
<path d="M258.96 181.39L248.18 181.39"/>
<path d="M256.38 188.31L250.75 188.31"/>
<path d="M250.75 187.34L250.75 188.31"/>
<path d="M248.18 190.88L248.18 181.39"/>
<path d="M250.75 186.22L250.75 187.34"/>
<path d="M250.75 188.31L248.18 190.88"/>
<path d="M248.18 181.39L250.75 184.13"/>
<path d="M256.38 184.13L250.75 184.13"/>
<path d="M250.75 184.13L250.75 186.22"/>
<path d="M256.38 186.22L256.38 184.13"/>
<path d="M256.38 187.34L256.38 186.22"/>
<path d="M250.75 187.34L250.75 186.22"/>
<path d="M248.18 190.88L258.96 190.88"/>
<path d="M242.41 183.75L236.78 183.75"/>
<path d="M236.78 183.75L236.78 185.84"/>
<path d="M242.41 185.84L242.41 183.75"/>
<path d="M244.98 181.01L242.41 183.75"/>
<path d="M244.98 190.5L242.41 187.93M242.41 187.93L242.41 186.96"/>
<path d="M242.41 186.96L242.41 185.84"/>
<path d="M244.98 190.5L244.98 181.01"/>
<path d="M244.98 181.01L234.2 181.01"/>
<path d="M242.41 187.93L236.78 187.93"/>
<path d="M236.78 186.96L236.78 187.93"/>
<path d="M234.2 190.5L234.2 181.01"/>
<path d="M236.78 185.84L236.78 186.96"/>
<path d="M236.78 187.93L234.2 190.5"/>
<path d="M234.2 181.01L236.78 183.75"/>
<path d="M242.41 183.75L236.78 183.75"/>
<path d="M236.78 183.75L236.78 185.84"/>
<path d="M242.41 185.84L242.41 183.75"/>
<path d="M242.41 186.96L242.41 185.84"/>
<path d="M236.78 186.96L236.78 185.84"/>
<path d="M234.2 190.5L244.98 190.5"/>
<path d="M228.44 184.01L222.81 184.01"/>
<path d="M222.81 184.01L222.81 186.1"/>
<path d="M228.44 186.1L228.44 184.01"/>
<path d="M231.01 181.28L228.44 184.01"/>
<path d="M231.01 190.77L228.44 188.19M228.44 188.19L228.44 187.23"/>
<path d="M228.44 187.23L228.44 186.1"/>
<path d="M231.01 190.77L231.01 181.28"/>
<path d="M231.01 181.28L220.24 181.28"/>
<path d="M228.44 188.19L222.81 188.19"/>
<path d="M222.81 187.23L222.81 188.19"/>
<path d="M220.24 190.77L220.24 181.28"/>
<path d="M222.81 186.1L222.81 187.23"/>
<path d="M222.81 188.19L220.24 190.77"/>
<path d="M220.24 181.28L222.81 184.01"/>
<path d="M228.44 184.01L222.81 184.01"/>
<path d="M222.81 184.01L222.81 186.1"/>
<path d="M228.44 186.1L228.44 184.01"/>
<path d="M228.44 187.23L228.44 186.1"/>
<path d="M222.81 187.23L222.81 186.1"/>
<path d="M220.24 190.77L231.01 190.77"/>
<path d="M222.83 202.11L228.48 202.11"/>
<path d="M222.83 197.79L222.83 202.11"/>
<path d="M383.05 198.03L377.42 198.03"/>
<path d="M377.42 198.03L377.42 200.12"/>
<path d="M383.05 200.12L383.05 198.03"/>
<path d="M385.62 195.29L383.05 198.03"/>
<path d="M385.62 204.78L383.05 202.21M383.05 202.21L383.05 201.24"/>
<path d="M383.05 201.24L383.05 200.12"/>
<path d="M385.62 204.78L385.62 195.29"/>
<path d="M385.62 195.29L374.85 195.29"/>
<path d="M383.05 202.21L377.42 202.21"/>
<path d="M377.42 201.24L377.42 202.21"/>
<path d="M374.85 204.78L374.85 195.29"/>
<path d="M377.42 200.12L377.42 201.24"/>
<path d="M377.42 202.21L374.85 204.78"/>
<path d="M374.85 195.29L377.42 198.03"/>
<path d="M383.05 198.03L377.42 198.03"/>
<path d="M377.42 198.03L377.42 200.12"/>
<path d="M383.05 200.12L383.05 198.03"/>
<path d="M383.05 201.24L383.05 200.12"/>
<path d="M377.42 201.24L377.42 200.12"/>
<path d="M374.85 204.78L385.62 204.78"/>
<path d="M368.96 197.9L363.33 197.9"/>
<path d="M363.33 197.9L363.33 199.99"/>
<path d="M368.96 199.99L368.96 197.9"/>
<path d="M371.53 195.17L368.96 197.9"/>
<path d="M371.53 204.65L368.96 202.08M368.96 202.08L368.96 201.12"/>
<path d="M368.96 201.12L368.96 199.99"/>
<path d="M371.53 204.65L371.53 195.17"/>
<path d="M371.53 195.17L360.76 195.17"/>
<path d="M368.96 202.08L363.33 202.08"/>
<path d="M363.33 201.12L363.33 202.08"/>
<path d="M360.76 204.65L360.76 195.17"/>
<path d="M363.33 199.99L363.33 201.12"/>
<path d="M363.33 202.08L360.76 204.65"/>
<path d="M360.76 195.17L363.33 197.9"/>
<path d="M368.96 197.9L363.33 197.9"/>
<path d="M363.33 197.9L363.33 199.99"/>
<path d="M368.96 199.99L368.96 197.9"/>
<path d="M368.96 201.12L368.96 199.99"/>
<path d="M363.33 201.12L363.33 199.99"/>
<path d="M360.76 204.65L371.53 204.65"/>
<path d="M355 198.03L349.37 198.03"/>
<path d="M349.37 198.03L349.37 200.12"/>
<path d="M355 200.12L355 198.03"/>
<path d="M357.57 195.29L355 198.03"/>
<path d="M357.57 204.78L355 202.21M355 202.21L355 201.24"/>
<path d="M355 201.24L355 200.12"/>
<path d="M357.57 204.78L357.57 195.29"/>
<path d="M357.57 195.29L346.8 195.29"/>
<path d="M355 202.21L349.37 202.21"/>
<path d="M349.37 201.24L349.37 202.21"/>
<path d="M346.8 204.78L346.8 195.29"/>
<path d="M349.37 200.12L349.37 201.24"/>
<path d="M349.37 202.21L346.8 204.78"/>
<path d="M346.8 195.29L349.37 198.03"/>
<path d="M355 198.03L349.37 198.03"/>
<path d="M349.37 198.03L349.37 200.12"/>
<path d="M355 200.12L355 198.03"/>
<path d="M355 201.24L355 200.12"/>
<path d="M349.37 201.24L349.37 200.12"/>
<path d="M346.8 204.78L357.57 204.78"/>
<path d="M340.97 197.82L335.34 197.82"/>
<path d="M335.34 197.82L335.34 199.91"/>
<path d="M340.97 199.91L340.97 197.82"/>
<path d="M343.54 195.08L340.97 197.82"/>
<path d="M343.54 204.57L340.97 202M340.97 202L340.97 201.03"/>
<path d="M340.97 201.03L340.97 199.91"/>
<path d="M343.54 204.57L343.54 195.08"/>
<path d="M343.54 195.08L332.77 195.08"/>
<path d="M340.97 202L335.34 202"/>
<path d="M335.34 201.03L335.34 202"/>
<path d="M332.77 204.57L332.77 195.08"/>
<path d="M335.34 199.91L335.34 201.03"/>
<path d="M335.34 202L332.77 204.57"/>
<path d="M332.77 195.08L335.34 197.82"/>
<path d="M340.97 197.82L335.34 197.82"/>
<path d="M335.34 197.82L335.34 199.91"/>
<path d="M340.97 199.91L340.97 197.82"/>
<path d="M340.97 201.03L340.97 199.91"/>
<path d="M335.34 201.03L335.34 199.91"/>
<path d="M332.77 204.57L343.54 204.57"/>
<path d="M326.95 198L321.33 198"/>
<path d="M321.33 198L321.33 200.1"/>
<path d="M326.95 200.1L326.95 198"/>
<path d="M329.53 195.27L326.95 198"/>
<path d="M329.53 204.76L326.95 202.19M326.95 202.19L326.95 201.22"/>
<path d="M326.95 201.22L326.95 200.1"/>
<path d="M329.53 204.76L329.53 195.27"/>
<path d="M329.53 195.27L318.75 195.27"/>
<path d="M326.95 202.19L321.33 202.19"/>
<path d="M321.33 201.22L321.33 202.19"/>
<path d="M318.75 204.76L318.75 195.27"/>
<path d="M321.33 200.1L321.33 201.22"/>
<path d="M321.33 202.19L318.75 204.76"/>
<path d="M318.75 195.27L321.33 198"/>
<path d="M326.95 198L321.33 198"/>
<path d="M321.33 198L321.33 200.1"/>
<path d="M326.95 200.1L326.95 198"/>
<path d="M326.95 201.22L326.95 200.1"/>
<path d="M321.33 201.22L321.33 200.1"/>
<path d="M318.75 204.76L329.53 204.76"/>
<path d="M312.85 197.88L307.22 197.88"/>
<path d="M307.22 197.88L307.22 199.97"/>
<path d="M312.85 199.97L312.85 197.88"/>
<path d="M315.42 195.15L312.85 197.88"/>
<path d="M315.42 204.63L312.85 202.06M312.85 202.06L312.85 201.1"/>
<path d="M312.85 201.1L312.85 199.97"/>
<path d="M315.42 204.63L315.42 195.15"/>
<path d="M315.42 195.15L304.65 195.15"/>
<path d="M312.85 202.06L307.22 202.06"/>
<path d="M307.22 201.1L307.22 202.06"/>
<path d="M304.65 204.63L304.65 195.15"/>
<path d="M307.22 199.97L307.22 201.1"/>
<path d="M307.22 202.06L304.65 204.63"/>
<path d="M304.65 195.15L307.22 197.88"/>
<path d="M312.85 197.88L307.22 197.88"/>
<path d="M307.22 197.88L307.22 199.97"/>
<path d="M312.85 199.97L312.85 197.88"/>
<path d="M312.85 201.1L312.85 199.97"/>
<path d="M307.22 201.1L307.22 199.97"/>
<path d="M304.65 204.63L315.42 204.63"/>
<path d="M298.75 197.88L293.12 197.88"/>
<path d="M293.12 197.88L293.12 199.97"/>
<path d="M298.75 199.97L298.75 197.88"/>
<path d="M301.32 195.15L298.75 197.88"/>
<path d="M301.32 204.63L298.75 202.06M298.75 202.06L298.75 201.1"/>
<path d="M298.75 201.1L298.75 199.97"/>
<path d="M301.32 204.63L301.32 195.15"/>
<path d="M301.32 195.15L290.55 195.15"/>
<path d="M298.75 202.06L293.12 202.06"/>
<path d="M293.12 201.1L293.12 202.06"/>
<path d="M290.55 204.63L290.55 195.15"/>
<path d="M293.12 199.97L293.12 201.1"/>
<path d="M293.12 202.06L290.55 204.63"/>
<path d="M290.55 195.15L293.12 197.88"/>
<path d="M298.75 197.88L293.12 197.88"/>
<path d="M293.12 197.88L293.12 199.97"/>
<path d="M298.75 199.97L298.75 197.88"/>
<path d="M298.75 201.1L298.75 199.97"/>
<path d="M293.12 201.1L293.12 199.97"/>
<path d="M290.55 204.63L301.32 204.63"/>
<path d="M284.64 197.75L279.02 197.75"/>
<path d="M279.02 197.75L279.02 199.84"/>
<path d="M284.64 199.84L284.64 197.75"/>
<path d="M287.22 195.02L284.64 197.75"/>
<path d="M287.22 204.51L284.64 201.93M284.64 201.93L284.64 200.97"/>
<path d="M284.64 200.97L284.64 199.84"/>
<path d="M287.22 204.51L287.22 195.02"/>
<path d="M287.22 195.02L276.44 195.02"/>
<path d="M284.64 201.93L279.02 201.93"/>
<path d="M279.02 200.97L279.02 201.93"/>
<path d="M276.44 204.51L276.44 195.02"/>
<path d="M279.02 199.84L279.02 200.97"/>
<path d="M279.02 201.93L276.44 204.51"/>
<path d="M276.44 195.02L279.02 197.75"/>
<path d="M284.64 197.75L279.02 197.75"/>
<path d="M279.02 197.75L279.02 199.84"/>
<path d="M284.64 199.84L284.64 197.75"/>
<path d="M284.64 200.97L284.64 199.84"/>
<path d="M279.02 200.97L279.02 199.84"/>
<path d="M276.44 204.51L287.22 204.51"/>
<path d="M270.54 197.63L264.91 197.63"/>
<path d="M264.91 197.63L264.91 199.72"/>
<path d="M270.54 199.72L270.54 197.63"/>
<path d="M273.11 194.89L270.54 197.63"/>
<path d="M273.11 204.38L270.54 201.81M270.54 201.81L270.54 200.84"/>
<path d="M270.54 200.84L270.54 199.72"/>
<path d="M273.11 204.38L273.11 194.89"/>
<path d="M273.11 194.89L262.34 194.89"/>
<path d="M270.54 201.81L264.91 201.81"/>
<path d="M264.91 200.84L264.91 201.81"/>
<path d="M262.34 204.38L262.34 194.89"/>
<path d="M264.91 199.72L264.91 200.84"/>
<path d="M264.91 201.81L262.34 204.38"/>
<path d="M262.34 194.89L264.91 197.63"/>
<path d="M270.54 197.63L264.91 197.63"/>
<path d="M264.91 197.63L264.91 199.72"/>
<path d="M270.54 199.72L270.54 197.63"/>
<path d="M270.54 200.84L270.54 199.72"/>
<path d="M264.91 200.84L264.91 199.72"/>
<path d="M262.34 204.38L273.11 204.38"/>
<path d="M256.44 198L250.81 198"/>
<path d="M250.81 198L250.81 200.1"/>
<path d="M256.44 200.1L256.44 198"/>
<path d="M259.01 195.27L256.44 198"/>
<path d="M259.01 204.76L256.44 202.19M256.44 202.19L256.44 201.22"/>
<path d="M256.44 201.22L256.44 200.1"/>
<path d="M259.01 204.76L259.01 195.27"/>
<path d="M259.01 195.27L248.24 195.27"/>
<path d="M256.44 202.19L250.81 202.19"/>
<path d="M250.81 201.22L250.81 202.19"/>
<path d="M248.24 204.76L248.24 195.27"/>
<path d="M250.81 200.1L250.81 201.22"/>
<path d="M250.81 202.19L248.24 204.76"/>
<path d="M248.24 195.27L250.81 198"/>
<path d="M256.44 198L250.81 198"/>
<path d="M250.81 198L250.81 200.1"/>
<path d="M256.44 200.1L256.44 198"/>
<path d="M256.44 201.22L256.44 200.1"/>
<path d="M250.81 201.22L250.81 200.1"/>
<path d="M248.24 204.76L259.01 204.76"/>
<path d="M242.46 197.63L236.83 197.63"/>
<path d="M236.83 197.63L236.83 199.72"/>
<path d="M242.46 199.72L242.46 197.63"/>
<path d="M245.03 194.89L242.46 197.63"/>
<path d="M245.03 204.38L242.46 201.81M242.46 201.81L242.46 200.84"/>
<path d="M242.46 200.84L242.46 199.72"/>
<path d="M245.03 204.38L245.03 194.89"/>
<path d="M245.03 194.89L234.26 194.89"/>
<path d="M242.46 201.81L236.83 201.81"/>
<path d="M236.83 200.84L236.83 201.81"/>
<path d="M234.26 204.38L234.26 194.89"/>
<path d="M236.83 199.72L236.83 200.84"/>
<path d="M236.83 201.81L234.26 204.38"/>
<path d="M234.26 194.89L236.83 197.63"/>
<path d="M242.46 197.63L236.83 197.63"/>
<path d="M236.83 197.63L236.83 199.72"/>
<path d="M242.46 199.72L242.46 197.63"/>
<path d="M242.46 200.84L242.46 199.72"/>
<path d="M236.83 200.84L236.83 199.72"/>
<path d="M234.26 204.38L245.03 204.38"/>
<path d="M228.49 197.89L222.86 197.89"/>
<path d="M222.86 197.89L222.86 199.98"/>
<path d="M228.49 199.98L228.49 197.89"/>
<path d="M231.07 195.16L228.49 197.89"/>
<path d="M231.07 204.65L228.49 202.07M228.49 202.07L228.49 201.11"/>
<path d="M228.49 201.11L228.49 199.98"/>
<path d="M231.07 204.65L231.07 195.16"/>
<path d="M231.07 195.16L220.29 195.16"/>
<path d="M228.49 202.07L222.86 202.07"/>
<path d="M222.86 201.11L222.86 202.07"/>
<path d="M220.29 204.65L220.29 195.16"/>
<path d="M222.86 199.98L222.86 201.11"/>
<path d="M222.86 202.07L220.29 204.65"/>
<path d="M220.29 195.16L222.86 197.89"/>
<path d="M228.49 197.89L222.86 197.89"/>
<path d="M222.86 197.89L222.86 199.98"/>
<path d="M228.49 199.98L228.49 197.89"/>
<path d="M228.49 201.11L228.49 199.98"/>
<path d="M222.86 201.11L222.86 199.98"/>
<path d="M220.29 204.65L231.07 204.65"/>
<path d="M383.12 227.04L383.12 222.72"/>
<path d="M222.69 227.1L228.34 227.1"/>
<path d="M222.69 222.78L222.69 227.1"/>
<path d="M382.9 223.02L377.28 223.02"/>
<path d="M377.28 223.02L377.28 225.11"/>
<path d="M382.9 225.11L382.9 223.02"/>
<path d="M385.48 220.28L382.9 223.02"/>
<path d="M385.48 229.77L382.9 227.2M382.9 227.2L382.9 226.23"/>
<path d="M382.9 226.23L382.9 225.11"/>
<path d="M385.48 229.77L385.48 220.28"/>
<path d="M385.48 220.28L374.7 220.28"/>
<path d="M382.9 227.2L377.28 227.2"/>
<path d="M377.28 226.23L377.28 227.2"/>
<path d="M374.7 229.77L374.7 220.28"/>
<path d="M377.28 225.11L377.28 226.23"/>
<path d="M377.28 227.2L374.7 229.77"/>
<path d="M374.7 220.28L377.28 223.02"/>
<path d="M382.9 223.02L377.28 223.02"/>
<path d="M377.28 223.02L377.28 225.11"/>
<path d="M382.9 225.11L382.9 223.02"/>
<path d="M382.9 226.23L382.9 225.11"/>
<path d="M377.28 226.23L377.28 225.11"/>
<path d="M374.7 229.77L385.48 229.77"/>
<path d="M368.81 222.89L363.19 222.89"/>
<path d="M363.19 222.89L363.19 224.98"/>
<path d="M368.81 224.98L368.81 222.89"/>
<path d="M371.39 220.15L368.81 222.89"/>
<path d="M371.39 229.64L368.81 227.07M368.81 227.07L368.81 226.1"/>
<path d="M368.81 226.1L368.81 224.98"/>
<path d="M371.39 229.64L371.39 220.15"/>
<path d="M371.39 220.15L360.61 220.15"/>
<path d="M368.81 227.07L363.19 227.07"/>
<path d="M363.19 226.1L363.19 227.07"/>
<path d="M360.61 229.64L360.61 220.15"/>
<path d="M363.19 224.98L363.19 226.1"/>
<path d="M363.19 227.07L360.61 229.64"/>
<path d="M360.61 220.15L363.19 222.89"/>
<path d="M368.81 222.89L363.19 222.89"/>
<path d="M363.19 222.89L363.19 224.98"/>
<path d="M368.81 224.98L368.81 222.89"/>
<path d="M368.81 226.1L368.81 224.98"/>
<path d="M363.19 226.1L363.19 224.98"/>
<path d="M360.61 229.64L371.39 229.64"/>
<path d="M354.85 223.02L349.22 223.02"/>
<path d="M349.22 223.02L349.22 225.11"/>
<path d="M354.85 225.11L354.85 223.02"/>
<path d="M357.42 220.28L354.85 223.02"/>
<path d="M357.42 229.77L354.85 227.2M354.85 227.2L354.85 226.23"/>
<path d="M354.85 226.23L354.85 225.11"/>
<path d="M357.42 229.77L357.42 220.28"/>
<path d="M357.42 220.28L346.65 220.28"/>
<path d="M354.85 227.2L349.22 227.2"/>
<path d="M349.22 226.23L349.22 227.2"/>
<path d="M346.65 229.77L346.65 220.28"/>
<path d="M349.22 225.11L349.22 226.23"/>
<path d="M349.22 227.2L346.65 229.77"/>
<path d="M346.65 220.28L349.22 223.02"/>
<path d="M354.85 223.02L349.22 223.02"/>
<path d="M349.22 223.02L349.22 225.11"/>
<path d="M354.85 225.11L354.85 223.02"/>
<path d="M354.85 226.23L354.85 225.11"/>
<path d="M349.22 226.23L349.22 225.11"/>
<path d="M346.65 229.77L357.42 229.77"/>
<path d="M340.82 222.8L335.19 222.8"/>
<path d="M335.19 222.8L335.19 224.89"/>
<path d="M340.82 224.89L340.82 222.8"/>
<path d="M343.39 220.07L340.82 222.8"/>
<path d="M343.39 229.56L340.82 226.98M340.82 226.98L340.82 226.02"/>
<path d="M340.82 226.02L340.82 224.89"/>
<path d="M343.39 229.56L343.39 220.07"/>
<path d="M343.39 220.07L332.62 220.07"/>
<path d="M340.82 226.98L335.19 226.98"/>
<path d="M335.19 226.02L335.19 226.98"/>
<path d="M332.62 229.56L332.62 220.07"/>
<path d="M335.19 224.89L335.19 226.02"/>
<path d="M335.19 226.98L332.62 229.56"/>
<path d="M332.62 220.07L335.19 222.8"/>
<path d="M340.82 222.8L335.19 222.8"/>
<path d="M335.19 222.8L335.19 224.89"/>
<path d="M340.82 224.89L340.82 222.8"/>
<path d="M340.82 226.02L340.82 224.89"/>
<path d="M335.19 226.02L335.19 224.89"/>
<path d="M332.62 229.56L343.39 229.56"/>
<path d="M326.81 222.99L321.18 222.99"/>
<path d="M321.18 222.99L321.18 225.08"/>
<path d="M326.81 225.08L326.81 222.99"/>
<path d="M329.38 220.26L326.81 222.99"/>
<path d="M329.38 229.75L326.81 227.17M326.81 227.17L326.81 226.21"/>
<path d="M326.81 226.21L326.81 225.08"/>
<path d="M329.38 229.75L329.38 220.26"/>
<path d="M329.38 220.26L318.61 220.26"/>
<path d="M326.81 227.17L321.18 227.17"/>
<path d="M321.18 226.21L321.18 227.17"/>
<path d="M318.61 229.75L318.61 220.26"/>
<path d="M321.18 225.08L321.18 226.21"/>
<path d="M321.18 227.17L318.61 229.75"/>
<path d="M318.61 220.26L321.18 222.99"/>
<path d="M326.81 222.99L321.18 222.99"/>
<path d="M321.18 222.99L321.18 225.08"/>
<path d="M326.81 225.08L326.81 222.99"/>
<path d="M326.81 226.21L326.81 225.08"/>
<path d="M321.18 226.21L321.18 225.08"/>
<path d="M318.61 229.75L329.38 229.75"/>
<path d="M312.71 222.87L307.08 222.87"/>
<path d="M307.08 222.87L307.08 224.96"/>
<path d="M312.71 224.96L312.71 222.87"/>
<path d="M315.28 220.13L312.71 222.87"/>
<path d="M315.28 229.62L312.71 227.05M312.71 227.05L312.71 226.08"/>
<path d="M312.71 226.08L312.71 224.96"/>
<path d="M315.28 229.62L315.28 220.13"/>
<path d="M315.28 220.13L304.51 220.13"/>
<path d="M312.71 227.05L307.08 227.05"/>
<path d="M307.08 226.08L307.08 227.05"/>
<path d="M304.51 229.62L304.51 220.13"/>
<path d="M307.08 224.96L307.08 226.08"/>
<path d="M307.08 227.05L304.51 229.62"/>
<path d="M304.51 220.13L307.08 222.87"/>
<path d="M312.71 222.87L307.08 222.87"/>
<path d="M307.08 222.87L307.08 224.96"/>
<path d="M312.71 224.96L312.71 222.87"/>
<path d="M312.71 226.08L312.71 224.96"/>
<path d="M307.08 226.08L307.08 224.96"/>
<path d="M304.51 229.62L315.28 229.62"/>
<path d="M298.6 222.87L292.97 222.87"/>
<path d="M292.97 222.87L292.97 224.96"/>
<path d="M298.6 224.96L298.6 222.87"/>
<path d="M301.18 220.13L298.6 222.87"/>
<path d="M301.18 229.62L298.6 227.05M298.6 227.05L298.6 226.08"/>
<path d="M298.6 226.08L298.6 224.96"/>
<path d="M301.18 229.62L301.18 220.13"/>
<path d="M301.18 220.13L290.4 220.13"/>
<path d="M298.6 227.05L292.97 227.05"/>
<path d="M292.97 226.08L292.97 227.05"/>
<path d="M290.4 229.62L290.4 220.13"/>
<path d="M292.97 224.96L292.97 226.08"/>
<path d="M292.97 227.05L290.4 229.62"/>
<path d="M290.4 220.13L292.97 222.87"/>
<path d="M298.6 222.87L292.97 222.87"/>
<path d="M292.97 222.87L292.97 224.96"/>
<path d="M298.6 224.96L298.6 222.87"/>
<path d="M298.6 226.08L298.6 224.96"/>
<path d="M292.97 226.08L292.97 224.96"/>
<path d="M290.4 229.62L301.18 229.62"/>
<path d="M284.5 222.74L278.87 222.74"/>
<path d="M278.87 222.74L278.87 224.83"/>
<path d="M284.5 224.83L284.5 222.74"/>
<path d="M287.07 220.01L284.5 222.74"/>
<path d="M287.07 229.49L284.5 226.92M284.5 226.92L284.5 225.96"/>
<path d="M284.5 225.96L284.5 224.83"/>
<path d="M287.07 229.49L287.07 220.01"/>
<path d="M287.07 220.01L276.3 220.01"/>
<path d="M284.5 226.92L278.87 226.92"/>
<path d="M278.87 225.96L278.87 226.92"/>
<path d="M276.3 229.49L276.3 220.01"/>
<path d="M278.87 224.83L278.87 225.96"/>
<path d="M278.87 226.92L276.3 229.49"/>
<path d="M276.3 220.01L278.87 222.74"/>
<path d="M284.5 222.74L278.87 222.74"/>
<path d="M278.87 222.74L278.87 224.83"/>
<path d="M284.5 224.83L284.5 222.74"/>
<path d="M284.5 225.96L284.5 224.83"/>
<path d="M278.87 225.96L278.87 224.83"/>
<path d="M276.3 229.49L287.07 229.49"/>
<path d="M270.39 222.61L264.77 222.61"/>
<path d="M264.77 222.61L264.77 224.7"/>
<path d="M270.39 224.7L270.39 222.61"/>
<path d="M272.97 219.88L270.39 222.61"/>
<path d="M272.97 229.37L270.39 226.8M270.39 226.8L270.39 225.83"/>
<path d="M270.39 225.83L270.39 224.7"/>
<path d="M272.97 229.37L272.97 219.88"/>
<path d="M272.97 219.88L262.19 219.88"/>
<path d="M270.39 226.8L264.77 226.8"/>
<path d="M264.77 225.83L264.77 226.8"/>
<path d="M262.19 229.37L262.19 219.88"/>
<path d="M264.77 224.7L264.77 225.83"/>
<path d="M264.77 226.8L262.19 229.37"/>
<path d="M262.19 219.88L264.77 222.61"/>
<path d="M270.39 222.61L264.77 222.61"/>
<path d="M264.77 222.61L264.77 224.7"/>
<path d="M270.39 224.7L270.39 222.61"/>
<path d="M270.39 225.83L270.39 224.7"/>
<path d="M264.77 225.83L264.77 224.7"/>
<path d="M262.19 229.37L272.97 229.37"/>
<path d="M256.29 222.99L250.66 222.99"/>
<path d="M250.66 222.99L250.66 225.08"/>
<path d="M256.29 225.08L256.29 222.99"/>
<path d="M258.86 220.26L256.29 222.99"/>
<path d="M258.86 229.75L256.29 227.17M256.29 227.17L256.29 226.21"/>
<path d="M256.29 226.21L256.29 225.08"/>
<path d="M258.86 229.75L258.86 220.26"/>
<path d="M258.86 220.26L248.09 220.26"/>
<path d="M256.29 227.17L250.66 227.17"/>
<path d="M250.66 226.21L250.66 227.17"/>
<path d="M248.09 229.75L248.09 220.26"/>
<path d="M250.66 225.08L250.66 226.21"/>
<path d="M250.66 227.17L248.09 229.75"/>
<path d="M248.09 220.26L250.66 222.99"/>
<path d="M256.29 222.99L250.66 222.99"/>
<path d="M250.66 222.99L250.66 225.08"/>
<path d="M256.29 225.08L256.29 222.99"/>
<path d="M256.29 226.21L256.29 225.08"/>
<path d="M250.66 226.21L250.66 225.08"/>
<path d="M248.09 229.75L258.86 229.75"/>
<path d="M242.31 222.61L236.69 222.61"/>
<path d="M236.69 222.61L236.69 224.7"/>
<path d="M242.31 224.7L242.31 222.61"/>
<path d="M244.89 219.88L242.31 222.61"/>
<path d="M244.89 229.37L242.31 226.8M242.31 226.8L242.31 225.83"/>
<path d="M242.31 225.83L242.31 224.7"/>
<path d="M244.89 229.37L244.89 219.88"/>
<path d="M244.89 219.88L234.11 219.88"/>
<path d="M242.31 226.8L236.69 226.8"/>
<path d="M236.69 225.83L236.69 226.8"/>
<path d="M234.11 229.37L234.11 219.88"/>
<path d="M236.69 224.7L236.69 225.83"/>
<path d="M236.69 226.8L234.11 229.37"/>
<path d="M234.11 219.88L236.69 222.61"/>
<path d="M242.31 222.61L236.69 222.61"/>
<path d="M236.69 222.61L236.69 224.7"/>
<path d="M242.31 224.7L242.31 222.61"/>
<path d="M242.31 225.83L242.31 224.7"/>
<path d="M236.69 225.83L236.69 224.7"/>
<path d="M234.11 229.37L244.89 229.37"/>
<path d="M228.35 222.88L222.72 222.88"/>
<path d="M222.72 222.88L222.72 224.97"/>
<path d="M228.35 224.97L228.35 222.88"/>
<path d="M230.92 220.15L228.35 222.88"/>
<path d="M230.92 229.63L228.35 227.06M228.35 227.06L228.35 226.09"/>
<path d="M228.35 226.09L228.35 224.97"/>
<path d="M230.92 229.63L230.92 220.15"/>
<path d="M230.92 220.15L220.15 220.15"/>
<path d="M228.35 227.06L222.72 227.06"/>
<path d="M222.72 226.09L222.72 227.06"/>
<path d="M220.15 229.63L220.15 220.15"/>
<path d="M222.72 224.97L222.72 226.09"/>
<path d="M222.72 227.06L220.15 229.63"/>
<path d="M220.15 220.15L222.72 222.88"/>
<path d="M228.35 222.88L222.72 222.88"/>
<path d="M222.72 222.88L222.72 224.97"/>
<path d="M228.35 224.97L228.35 222.88"/>
<path d="M228.35 226.09L228.35 224.97"/>
<path d="M222.72 226.09L222.72 224.97"/>
<path d="M220.15 229.63L230.92 229.63"/>
<path d="M383.12 276.54L383.12 272.22"/>
<path d="M222.69 262.65L228.34 262.65"/>
<path d="M222.69 258.33L222.69 262.65"/>
<path d="M382.9 258.56L377.28 258.56"/>
<path d="M377.28 258.56L377.28 260.65"/>
<path d="M382.9 260.65L382.9 258.56"/>
<path d="M385.48 255.83L382.9 258.56"/>
<path d="M385.48 265.32L382.9 262.74M382.9 262.74L382.9 261.78"/>
<path d="M382.9 261.78L382.9 260.65"/>
<path d="M385.48 265.32L385.48 255.83"/>
<path d="M385.48 255.83L374.7 255.83"/>
<path d="M382.9 262.74L377.28 262.74"/>
<path d="M377.28 261.78L377.28 262.74"/>
<path d="M374.7 265.32L374.7 255.83"/>
<path d="M377.28 260.65L377.28 261.78"/>
<path d="M377.28 262.74L374.7 265.32"/>
<path d="M374.7 255.83L377.28 258.56"/>
<path d="M382.9 258.56L377.28 258.56"/>
<path d="M377.28 258.56L377.28 260.65"/>
<path d="M382.9 260.65L382.9 258.56"/>
<path d="M382.9 261.78L382.9 260.65"/>
<path d="M377.28 261.78L377.28 260.65"/>
<path d="M374.7 265.32L385.48 265.32"/>
<path d="M368.81 258.43L363.19 258.43"/>
<path d="M363.19 258.43L363.19 260.52"/>
<path d="M368.81 260.52L368.81 258.43"/>
<path d="M371.39 255.7L368.81 258.43"/>
<path d="M371.39 265.19L368.81 262.62M368.81 262.62L368.81 261.65"/>
<path d="M368.81 261.65L368.81 260.52"/>
<path d="M371.39 265.19L371.39 255.7"/>
<path d="M371.39 255.7L360.61 255.7"/>
<path d="M368.81 262.62L363.19 262.62"/>
<path d="M363.19 261.65L363.19 262.62"/>
<path d="M360.61 265.19L360.61 255.7"/>
<path d="M363.19 260.52L363.19 261.65"/>
<path d="M363.19 262.62L360.61 265.19"/>
<path d="M360.61 255.7L363.19 258.43"/>
<path d="M368.81 258.43L363.19 258.43"/>
<path d="M363.19 258.43L363.19 260.52"/>
<path d="M368.81 260.52L368.81 258.43"/>
<path d="M368.81 261.65L368.81 260.52"/>
<path d="M363.19 261.65L363.19 260.52"/>
<path d="M360.61 265.19L371.39 265.19"/>
<path d="M354.85 258.56L349.22 258.56"/>
<path d="M349.22 258.56L349.22 260.65"/>
<path d="M354.85 260.65L354.85 258.56"/>
<path d="M357.42 255.83L354.85 258.56"/>
<path d="M357.42 265.32L354.85 262.74M354.85 262.74L354.85 261.78"/>
<path d="M354.85 261.78L354.85 260.65"/>
<path d="M357.42 265.32L357.42 255.83"/>
<path d="M357.42 255.83L346.65 255.83"/>
<path d="M354.85 262.74L349.22 262.74"/>
<path d="M349.22 261.78L349.22 262.74"/>
<path d="M346.65 265.32L346.65 255.83"/>
<path d="M349.22 260.65L349.22 261.78"/>
<path d="M349.22 262.74L346.65 265.32"/>
<path d="M346.65 255.83L349.22 258.56"/>
<path d="M354.85 258.56L349.22 258.56"/>
<path d="M349.22 258.56L349.22 260.65"/>
<path d="M354.85 260.65L354.85 258.56"/>
<path d="M354.85 261.78L354.85 260.65"/>
<path d="M349.22 261.78L349.22 260.65"/>
<path d="M346.65 265.32L357.42 265.32"/>
<path d="M340.82 258.35L335.19 258.35"/>
<path d="M335.19 258.35L335.19 260.44"/>
<path d="M340.82 260.44L340.82 258.35"/>
<path d="M343.39 255.62L340.82 258.35"/>
<path d="M343.39 265.11L340.82 262.53M340.82 262.53L340.82 261.57"/>
<path d="M340.82 261.57L340.82 260.44"/>
<path d="M343.39 265.11L343.39 255.62"/>
<path d="M343.39 255.62L332.62 255.62"/>
<path d="M340.82 262.53L335.19 262.53"/>
<path d="M335.19 261.57L335.19 262.53"/>
<path d="M332.62 265.11L332.62 255.62"/>
<path d="M335.19 260.44L335.19 261.57"/>
<path d="M335.19 262.53L332.62 265.11"/>
<path d="M332.62 255.62L335.19 258.35"/>
<path d="M340.82 258.35L335.19 258.35"/>
<path d="M335.19 258.35L335.19 260.44"/>
<path d="M340.82 260.44L340.82 258.35"/>
<path d="M340.82 261.57L340.82 260.44"/>
<path d="M335.19 261.57L335.19 260.44"/>
<path d="M332.62 265.11L343.39 265.11"/>
<path d="M326.81 258.54L321.18 258.54"/>
<path d="M321.18 258.54L321.18 260.63"/>
<path d="M326.81 260.63L326.81 258.54"/>
<path d="M329.38 255.81L326.81 258.54"/>
<path d="M329.38 265.29L326.81 262.72M326.81 262.72L326.81 261.76"/>
<path d="M326.81 261.76L326.81 260.63"/>
<path d="M329.38 265.29L329.38 255.81"/>
<path d="M329.38 255.81L318.61 255.81"/>
<path d="M326.81 262.72L321.18 262.72"/>
<path d="M321.18 261.76L321.18 262.72"/>
<path d="M318.61 265.29L318.61 255.81"/>
<path d="M321.18 260.63L321.18 261.76"/>
<path d="M321.18 262.72L318.61 265.29"/>
<path d="M318.61 255.81L321.18 258.54"/>
<path d="M326.81 258.54L321.18 258.54"/>
<path d="M321.18 258.54L321.18 260.63"/>
<path d="M326.81 260.63L326.81 258.54"/>
<path d="M326.81 261.76L326.81 260.63"/>
<path d="M321.18 261.76L321.18 260.63"/>
<path d="M318.61 265.29L329.38 265.29"/>
<path d="M312.71 258.41L307.08 258.41"/>
<path d="M307.08 258.41L307.08 260.5"/>
<path d="M312.71 260.5L312.71 258.41"/>
<path d="M315.28 255.68L312.71 258.41"/>
<path d="M315.28 265.17L312.71 262.59M312.71 262.59L312.71 261.63"/>
<path d="M312.71 261.63L312.71 260.5"/>
<path d="M315.28 265.17L315.28 255.68"/>
<path d="M315.28 255.68L304.51 255.68"/>
<path d="M312.71 262.59L307.08 262.59"/>
<path d="M307.08 261.63L307.08 262.59"/>
<path d="M304.51 265.17L304.51 255.68"/>
<path d="M307.08 260.5L307.08 261.63"/>
<path d="M307.08 262.59L304.51 265.17"/>
<path d="M304.51 255.68L307.08 258.41"/>
<path d="M312.71 258.41L307.08 258.41"/>
<path d="M307.08 258.41L307.08 260.5"/>
<path d="M312.71 260.5L312.71 258.41"/>
<path d="M312.71 261.63L312.71 260.5"/>
<path d="M307.08 261.63L307.08 260.5"/>
<path d="M304.51 265.17L315.28 265.17"/>
<path d="M298.6 258.41L292.97 258.41"/>
<path d="M292.97 258.41L292.97 260.5"/>
<path d="M298.6 260.5L298.6 258.41"/>
<path d="M301.18 255.68L298.6 258.41"/>
<path d="M301.18 265.17L298.6 262.59M298.6 262.59L298.6 261.63"/>
<path d="M298.6 261.63L298.6 260.5"/>
<path d="M301.18 265.17L301.18 255.68"/>
<path d="M301.18 255.68L290.4 255.68"/>
<path d="M298.6 262.59L292.97 262.59"/>
<path d="M292.97 261.63L292.97 262.59"/>
<path d="M290.4 265.17L290.4 255.68"/>
<path d="M292.97 260.5L292.97 261.63"/>
<path d="M292.97 262.59L290.4 265.17"/>
<path d="M290.4 255.68L292.97 258.41"/>
<path d="M298.6 258.41L292.97 258.41"/>
<path d="M292.97 258.41L292.97 260.5"/>
<path d="M298.6 260.5L298.6 258.41"/>
<path d="M298.6 261.63L298.6 260.5"/>
<path d="M292.97 261.63L292.97 260.5"/>
<path d="M290.4 265.17L301.18 265.17"/>
<path d="M284.5 258.29L278.87 258.29"/>
<path d="M278.87 258.29L278.87 260.38"/>
<path d="M284.5 260.38L284.5 258.29"/>
<path d="M287.07 255.55L284.5 258.29"/>
<path d="M287.07 265.04L284.5 262.47M284.5 262.47L284.5 261.5"/>
<path d="M284.5 261.5L284.5 260.38"/>
<path d="M287.07 265.04L287.07 255.55"/>
<path d="M287.07 255.55L276.3 255.55"/>
<path d="M284.5 262.47L278.87 262.47"/>
<path d="M278.87 261.5L278.87 262.47"/>
<path d="M276.3 265.04L276.3 255.55"/>
<path d="M278.87 260.38L278.87 261.5"/>
<path d="M278.87 262.47L276.3 265.04"/>
<path d="M276.3 255.55L278.87 258.29"/>
<path d="M284.5 258.29L278.87 258.29"/>
<path d="M278.87 258.29L278.87 260.38"/>
<path d="M284.5 260.38L284.5 258.29"/>
<path d="M284.5 261.5L284.5 260.38"/>
<path d="M278.87 261.5L278.87 260.38"/>
<path d="M276.3 265.04L287.07 265.04"/>
<path d="M270.39 258.16L264.77 258.16"/>
<path d="M264.77 258.16L264.77 260.25"/>
<path d="M270.39 260.25L270.39 258.16"/>
<path d="M272.97 255.43L270.39 258.16"/>
<path d="M272.97 264.92L270.39 262.34M270.39 262.34L270.39 261.38"/>
<path d="M270.39 261.38L270.39 260.25"/>
<path d="M272.97 264.92L272.97 255.43"/>
<path d="M272.97 255.43L262.19 255.43"/>
<path d="M270.39 262.34L264.77 262.34"/>
<path d="M264.77 261.38L264.77 262.34"/>
<path d="M262.19 264.92L262.19 255.43"/>
<path d="M264.77 260.25L264.77 261.38"/>
<path d="M264.77 262.34L262.19 264.92"/>
<path d="M262.19 255.43L264.77 258.16"/>
<path d="M270.39 258.16L264.77 258.16"/>
<path d="M264.77 258.16L264.77 260.25"/>
<path d="M270.39 260.25L270.39 258.16"/>
<path d="M270.39 261.38L270.39 260.25"/>
<path d="M264.77 261.38L264.77 260.25"/>
<path d="M262.19 264.92L272.97 264.92"/>
<path d="M256.29 258.54L250.66 258.54"/>
<path d="M250.66 258.54L250.66 260.63"/>
<path d="M256.29 260.63L256.29 258.54"/>
<path d="M258.86 255.81L256.29 258.54"/>
<path d="M258.86 265.29L256.29 262.72M256.29 262.72L256.29 261.76"/>
<path d="M256.29 261.76L256.29 260.63"/>
<path d="M258.86 265.29L258.86 255.81"/>
<path d="M258.86 255.81L248.09 255.81"/>
<path d="M256.29 262.72L250.66 262.72"/>
<path d="M250.66 261.76L250.66 262.72"/>
<path d="M248.09 265.29L248.09 255.81"/>
<path d="M250.66 260.63L250.66 261.76"/>
<path d="M250.66 262.72L248.09 265.29"/>
<path d="M248.09 255.81L250.66 258.54"/>
<path d="M256.29 258.54L250.66 258.54"/>
<path d="M250.66 258.54L250.66 260.63"/>
<path d="M256.29 260.63L256.29 258.54"/>
<path d="M256.29 261.76L256.29 260.63"/>
<path d="M250.66 261.76L250.66 260.63"/>
<path d="M248.09 265.29L258.86 265.29"/>
<path d="M242.31 258.16L236.69 258.16"/>
<path d="M236.69 258.16L236.69 260.25"/>
<path d="M242.31 260.25L242.31 258.16"/>
<path d="M244.89 255.43L242.31 258.16"/>
<path d="M244.89 264.92L242.31 262.34M242.31 262.34L242.31 261.38"/>
<path d="M242.31 261.38L242.31 260.25"/>
<path d="M244.89 264.92L244.89 255.43"/>
<path d="M244.89 255.43L234.11 255.43"/>
<path d="M242.31 262.34L236.69 262.34"/>
<path d="M236.69 261.38L236.69 262.34"/>
<path d="M234.11 264.92L234.11 255.43"/>
<path d="M236.69 260.25L236.69 261.38"/>
<path d="M236.69 262.34L234.11 264.92"/>
<path d="M234.11 255.43L236.69 258.16"/>
<path d="M242.31 258.16L236.69 258.16"/>
<path d="M236.69 258.16L236.69 260.25"/>
<path d="M242.31 260.25L242.31 258.16"/>
<path d="M242.31 261.38L242.31 260.25"/>
<path d="M236.69 261.38L236.69 260.25"/>
<path d="M234.11 264.92L244.89 264.92"/>
<path d="M228.35 258.43L222.72 258.43"/>
<path d="M222.72 258.43L222.72 260.52"/>
<path d="M228.35 260.52L228.35 258.43"/>
<path d="M230.92 255.69L228.35 258.43"/>
<path d="M230.92 265.18L228.35 262.61M228.35 262.61L228.35 261.64"/>
<path d="M228.35 261.64L228.35 260.52"/>
<path d="M230.92 265.18L230.92 255.69"/>
<path d="M230.92 255.69L220.15 255.69"/>
<path d="M228.35 262.61L222.72 262.61"/>
<path d="M222.72 261.64L222.72 262.61"/>
<path d="M220.15 265.18L220.15 255.69"/>
<path d="M222.72 260.52L222.72 261.64"/>
<path d="M222.72 262.61L220.15 265.18"/>
<path d="M220.15 255.69L222.72 258.43"/>
<path d="M228.35 258.43L222.72 258.43"/>
<path d="M222.72 258.43L222.72 260.52"/>
<path d="M228.35 260.52L228.35 258.43"/>
<path d="M228.35 261.64L228.35 260.52"/>
<path d="M222.72 261.64L222.72 260.52"/>
<path d="M220.15 265.18L230.92 265.18"/>
<path d="M222.74 276.53L228.39 276.53"/>
<path d="M222.74 272.21L222.74 276.53"/>
<path d="M382.96 272.44L377.33 272.44"/>
<path d="M377.33 272.44L377.33 274.53"/>
<path d="M382.96 274.53L382.96 272.44"/>
<path d="M385.53 269.71L382.96 272.44"/>
<path d="M385.53 279.2L382.96 276.62M382.96 276.62L382.96 275.66"/>
<path d="M382.96 275.66L382.96 274.53"/>
<path d="M385.53 279.2L385.53 269.71"/>
<path d="M385.53 269.71L374.76 269.71"/>
<path d="M382.96 276.62L377.33 276.62"/>
<path d="M377.33 275.66L377.33 276.62"/>
<path d="M374.76 279.2L374.76 269.71"/>
<path d="M377.33 274.53L377.33 275.66"/>
<path d="M377.33 276.62L374.76 279.2"/>
<path d="M374.76 269.71L377.33 272.44"/>
<path d="M382.96 272.44L377.33 272.44"/>
<path d="M377.33 272.44L377.33 274.53"/>
<path d="M382.96 274.53L382.96 272.44"/>
<path d="M382.96 275.66L382.96 274.53"/>
<path d="M377.33 275.66L377.33 274.53"/>
<path d="M374.76 279.2L385.53 279.2"/>
<path d="M368.87 272.31L363.24 272.31"/>
<path d="M363.24 272.31L363.24 274.4"/>
<path d="M368.87 274.4L368.87 272.31"/>
<path d="M371.44 269.58L368.87 272.31"/>
<path d="M371.44 279.07L368.87 276.49M368.87 276.49L368.87 275.53"/>
<path d="M368.87 275.53L368.87 274.4"/>
<path d="M371.44 279.07L371.44 269.58"/>
<path d="M371.44 269.58L360.67 269.58"/>
<path d="M368.87 276.49L363.24 276.49"/>
<path d="M363.24 275.53L363.24 276.49"/>
<path d="M360.67 279.07L360.67 269.58"/>
<path d="M363.24 274.4L363.24 275.53"/>
<path d="M363.24 276.49L360.67 279.07"/>
<path d="M360.67 269.58L363.24 272.31"/>
<path d="M368.87 272.31L363.24 272.31"/>
<path d="M363.24 272.31L363.24 274.4"/>
<path d="M368.87 274.4L368.87 272.31"/>
<path d="M368.87 275.53L368.87 274.4"/>
<path d="M363.24 275.53L363.24 274.4"/>
<path d="M360.67 279.07L371.44 279.07"/>
<path d="M354.91 272.44L349.28 272.44"/>
<path d="M349.28 272.44L349.28 274.53"/>
<path d="M354.91 274.53L354.91 272.44"/>
<path d="M357.48 269.71L354.91 272.44"/>
<path d="M357.48 279.2L354.91 276.62M354.91 276.62L354.91 275.66"/>
<path d="M354.91 275.66L354.91 274.53"/>
<path d="M357.48 279.2L357.48 269.71"/>
<path d="M357.48 269.71L346.7 269.71"/>
<path d="M354.91 276.62L349.28 276.62"/>
<path d="M349.28 275.66L349.28 276.62"/>
<path d="M346.7 279.2L346.7 269.71"/>
<path d="M349.28 274.53L349.28 275.66"/>
<path d="M349.28 276.62L346.7 279.2"/>
<path d="M346.7 269.71L349.28 272.44"/>
<path d="M354.91 272.44L349.28 272.44"/>
<path d="M349.28 272.44L349.28 274.53"/>
<path d="M354.91 274.53L354.91 272.44"/>
<path d="M354.91 275.66L354.91 274.53"/>
<path d="M349.28 275.66L349.28 274.53"/>
<path d="M346.7 279.2L357.48 279.2"/>
<path d="M340.87 272.23L335.25 272.23"/>
<path d="M335.25 272.23L335.25 274.32"/>
<path d="M340.87 274.32L340.87 272.23"/>
<path d="M343.45 269.5L340.87 272.23"/>
<path d="M343.45 278.99L340.87 276.41M340.87 276.41L340.87 275.45"/>
<path d="M340.87 275.45L340.87 274.32"/>
<path d="M343.45 278.99L343.45 269.5"/>
<path d="M343.45 269.5L332.67 269.5"/>
<path d="M340.87 276.41L335.25 276.41"/>
<path d="M335.25 275.45L335.25 276.41"/>
<path d="M332.67 278.99L332.67 269.5"/>
<path d="M335.25 274.32L335.25 275.45"/>
<path d="M335.25 276.41L332.67 278.99"/>
<path d="M332.67 269.5L335.25 272.23"/>
<path d="M340.87 272.23L335.25 272.23"/>
<path d="M335.25 272.23L335.25 274.32"/>
<path d="M340.87 274.32L340.87 272.23"/>
<path d="M340.87 275.45L340.87 274.32"/>
<path d="M335.25 275.45L335.25 274.32"/>
<path d="M332.67 278.99L343.45 278.99"/>
<path d="M326.86 272.42L321.24 272.42"/>
<path d="M321.24 272.42L321.24 274.51"/>
<path d="M326.86 274.51L326.86 272.42"/>
<path d="M329.44 269.69L326.86 272.42"/>
<path d="M329.44 279.17L326.86 276.6M326.86 276.6L326.86 275.64"/>
<path d="M326.86 275.64L326.86 274.51"/>
<path d="M329.44 279.17L329.44 269.69"/>
<path d="M329.44 269.69L318.66 269.69"/>
<path d="M326.86 276.6L321.24 276.6"/>
<path d="M321.24 275.64L321.24 276.6"/>
<path d="M318.66 279.17L318.66 269.69"/>
<path d="M321.24 274.51L321.24 275.64"/>
<path d="M321.24 276.6L318.66 279.17"/>
<path d="M318.66 269.69L321.24 272.42"/>
<path d="M326.86 272.42L321.24 272.42"/>
<path d="M321.24 272.42L321.24 274.51"/>
<path d="M326.86 274.51L326.86 272.42"/>
<path d="M326.86 275.64L326.86 274.51"/>
<path d="M321.24 275.64L321.24 274.51"/>
<path d="M318.66 279.17L329.44 279.17"/>
<path d="M312.76 272.29L307.13 272.29"/>
<path d="M307.13 272.29L307.13 274.38"/>
<path d="M312.76 274.38L312.76 272.29"/>
<path d="M315.33 269.56L312.76 272.29"/>
<path d="M315.33 279.05L312.76 276.47M312.76 276.47L312.76 275.51"/>
<path d="M312.76 275.51L312.76 274.38"/>
<path d="M315.33 279.05L315.33 269.56"/>
<path d="M315.33 269.56L304.56 269.56"/>
<path d="M312.76 276.47L307.13 276.47"/>
<path d="M307.13 275.51L307.13 276.47"/>
<path d="M304.56 279.05L304.56 269.56"/>
<path d="M307.13 274.38L307.13 275.51"/>
<path d="M307.13 276.47L304.56 279.05"/>
<path d="M304.56 269.56L307.13 272.29"/>
<path d="M312.76 272.29L307.13 272.29"/>
<path d="M307.13 272.29L307.13 274.38"/>
<path d="M312.76 274.38L312.76 272.29"/>
<path d="M312.76 275.51L312.76 274.38"/>
<path d="M307.13 275.51L307.13 274.38"/>
<path d="M304.56 279.05L315.33 279.05"/>
<path d="M298.66 272.29L293.03 272.29"/>
<path d="M293.03 272.29L293.03 274.38"/>
<path d="M298.66 274.38L298.66 272.29"/>
<path d="M301.23 269.56L298.66 272.29"/>
<path d="M301.23 279.05L298.66 276.47M298.66 276.47L298.66 275.51"/>
<path d="M298.66 275.51L298.66 274.38"/>
<path d="M301.23 279.05L301.23 269.56"/>
<path d="M301.23 269.56L290.46 269.56"/>
<path d="M298.66 276.47L293.03 276.47"/>
<path d="M293.03 275.51L293.03 276.47"/>
<path d="M290.46 279.05L290.46 269.56"/>
<path d="M293.03 274.38L293.03 275.51"/>
<path d="M293.03 276.47L290.46 279.05"/>
<path d="M290.46 269.56L293.03 272.29"/>
<path d="M298.66 272.29L293.03 272.29"/>
<path d="M293.03 272.29L293.03 274.38"/>
<path d="M298.66 274.38L298.66 272.29"/>
<path d="M298.66 275.51L298.66 274.38"/>
<path d="M293.03 275.51L293.03 274.38"/>
<path d="M290.46 279.05L301.23 279.05"/>
<path d="M284.55 272.17L278.92 272.17"/>
<path d="M278.92 272.17L278.92 274.26"/>
<path d="M284.55 274.26L284.55 272.17"/>
<path d="M287.12 269.43L284.55 272.17"/>
<path d="M287.12 278.92L284.55 276.35M284.55 276.35L284.55 275.38"/>
<path d="M284.55 275.38L284.55 274.26"/>
<path d="M287.12 278.92L287.12 269.43"/>
<path d="M287.12 269.43L276.35 269.43"/>
<path d="M284.55 276.35L278.92 276.35"/>
<path d="M278.92 275.38L278.92 276.35"/>
<path d="M276.35 278.92L276.35 269.43"/>
<path d="M278.92 274.26L278.92 275.38"/>
<path d="M278.92 276.35L276.35 278.92"/>
<path d="M276.35 269.43L278.92 272.17"/>
<path d="M284.55 272.17L278.92 272.17"/>
<path d="M278.92 272.17L278.92 274.26"/>
<path d="M284.55 274.26L284.55 272.17"/>
<path d="M284.55 275.38L284.55 274.26"/>
<path d="M278.92 275.38L278.92 274.26"/>
<path d="M276.35 278.92L287.12 278.92"/>
<path d="M270.45 272.04L264.82 272.04"/>
<path d="M264.82 272.04L264.82 274.13"/>
<path d="M270.45 274.13L270.45 272.04"/>
<path d="M273.02 269.31L270.45 272.04"/>
<path d="M273.02 278.8L270.45 276.22M270.45 276.22L270.45 275.26"/>
<path d="M270.45 275.26L270.45 274.13"/>
<path d="M273.02 278.8L273.02 269.31"/>
<path d="M273.02 269.31L262.25 269.31"/>
<path d="M270.45 276.22L264.82 276.22"/>
<path d="M264.82 275.26L264.82 276.22"/>
<path d="M262.25 278.8L262.25 269.31"/>
<path d="M264.82 274.13L264.82 275.26"/>
<path d="M264.82 276.22L262.25 278.8"/>
<path d="M262.25 269.31L264.82 272.04"/>
<path d="M270.45 272.04L264.82 272.04"/>
<path d="M264.82 272.04L264.82 274.13"/>
<path d="M270.45 274.13L270.45 272.04"/>
<path d="M270.45 275.26L270.45 274.13"/>
<path d="M264.82 275.26L264.82 274.13"/>
<path d="M262.25 278.8L273.02 278.8"/>
<path d="M256.34 272.42L250.72 272.42"/>
<path d="M250.72 272.42L250.72 274.51"/>
<path d="M256.34 274.51L256.34 272.42"/>
<path d="M258.92 269.69L256.34 272.42"/>
<path d="M258.92 279.17L256.34 276.6M256.34 276.6L256.34 275.64"/>
<path d="M256.34 275.64L256.34 274.51"/>
<path d="M258.92 279.17L258.92 269.69"/>
<path d="M258.92 269.69L248.14 269.69"/>
<path d="M256.34 276.6L250.72 276.6"/>
<path d="M250.72 275.64L250.72 276.6"/>
<path d="M248.14 279.17L248.14 269.69"/>
<path d="M250.72 274.51L250.72 275.64"/>
<path d="M250.72 276.6L248.14 279.17"/>
<path d="M248.14 269.69L250.72 272.42"/>
<path d="M256.34 272.42L250.72 272.42"/>
<path d="M250.72 272.42L250.72 274.51"/>
<path d="M256.34 274.51L256.34 272.42"/>
<path d="M256.34 275.64L256.34 274.51"/>
<path d="M250.72 275.64L250.72 274.51"/>
<path d="M248.14 279.17L258.92 279.17"/>
<path d="M242.37 272.04L236.74 272.04"/>
<path d="M236.74 272.04L236.74 274.13"/>
<path d="M242.37 274.13L242.37 272.04"/>
<path d="M244.94 269.31L242.37 272.04"/>
<path d="M244.94 278.8L242.37 276.22M242.37 276.22L242.37 275.26"/>
<path d="M242.37 275.26L242.37 274.13"/>
<path d="M244.94 278.8L244.94 269.31"/>
<path d="M244.94 269.31L234.17 269.31"/>
<path d="M242.37 276.22L236.74 276.22"/>
<path d="M236.74 275.26L236.74 276.22"/>
<path d="M234.17 278.8L234.17 269.31"/>
<path d="M236.74 274.13L236.74 275.26"/>
<path d="M236.74 276.22L234.17 278.8"/>
<path d="M234.17 269.31L236.74 272.04"/>
<path d="M242.37 272.04L236.74 272.04"/>
<path d="M236.74 272.04L236.74 274.13"/>
<path d="M242.37 274.13L242.37 272.04"/>
<path d="M242.37 275.26L242.37 274.13"/>
<path d="M236.74 275.26L236.74 274.13"/>
<path d="M234.17 278.8L244.94 278.8"/>
<path d="M228.4 272.31L222.77 272.31"/>
<path d="M222.77 272.31L222.77 274.4"/>
<path d="M228.4 274.4L228.4 272.31"/>
<path d="M230.97 269.57L228.4 272.31"/>
<path d="M230.97 279.06L228.4 276.49M228.4 276.49L228.4 275.52"/>
<path d="M228.4 275.52L228.4 274.4"/>
<path d="M230.97 279.06L230.97 269.57"/>
<path d="M230.97 269.57L220.2 269.57"/>
<path d="M228.4 276.49L222.77 276.49"/>
<path d="M222.77 275.52L222.77 276.49"/>
<path d="M220.2 279.06L220.2 269.57"/>
<path d="M222.77 274.4L222.77 275.52"/>
<path d="M222.77 276.49L220.2 279.06"/>
<path d="M220.2 269.57L222.77 272.31"/>
<path d="M228.4 272.31L222.77 272.31"/>
<path d="M222.77 272.31L222.77 274.4"/>
<path d="M228.4 274.4L228.4 272.31"/>
<path d="M228.4 275.52L228.4 274.4"/>
<path d="M222.77 275.52L222.77 274.4"/>
<path d="M220.2 279.06L230.97 279.06"/>
</g>
</g>
</svg>
