<?xml version="1.0" standalone="no"?><svg xmlns="http://www.w3.org/2000/svg" width="600.000" height="450.000" viewBox="0.0 0.0 600.000 450.000" version="1.1">
<title>Acme Converter - Post-processed with EDS-Designer: 14.44 (info@symca.com)</title>
<desc>Acme Converter - Post-processed with EDS-Designer: 14.44 (info@symca.com)</desc>
<g id="EDS_STYLE_GROUP" fill="none" stroke="black" stroke-width="1.0">
<g id="0" display="visible">
<path d="M231.18 378.34L231.18 342.17M232.9 342.17L232.9 378.34M226.01 342.17L246.68 342.17M246.68 342.17L251.84 343.89M251.84 343.89L253.56 345.62M253.56 345.62L255.29 349.06M255.29 349.06L255.29 352.51M255.29 352.51L253.56 355.95M253.56 355.95L251.84 357.67M251.84 357.67L246.68 359.39M246.68 342.17L250.12 343.89M250.12 343.89L251.84 345.62M251.84 345.62L253.56 349.06M253.56 349.06L253.56 352.51M253.56 352.51L251.84 355.95M251.84 355.95L250.12 357.67M250.12 357.67L246.68 359.39M232.9 359.39L246.68 359.39M246.68 359.39L251.84 361.12M251.84 361.12L253.56 362.84M253.56 362.84L255.29 366.28M255.29 366.28L255.29 371.45M255.29 371.45L253.56 374.89M253.56 374.89L251.84 376.62M251.84 376.62L246.68 378.34M246.68 378.34L226.01 378.34M246.68 359.39L250.12 361.12M250.12 361.12L251.84 362.84M251.84 362.84L253.56 366.28M253.56 366.28L253.56 371.45M253.56 371.45L251.84 374.89M251.84 374.89L250.12 376.62M250.12 376.62L246.68 378.34M269.06 378.34L269.06 342.17M270.79 342.17L270.79 378.34M263.9 342.17L275.95 342.17M263.9 378.34L289.73 378.34M289.73 378.34L289.73 368M289.73 368L288.01 378.34M310.39 342.17L298.34 378.34M310.39 342.17L322.45 378.34M310.39 347.34L320.73 378.34M301.78 368L317.28 368M294.9 378.34L305.23 378.34M315.56 378.34L325.89 378.34M355.17 347.34L356.89 352.51M356.89 352.51L356.89 342.17M356.89 342.17L355.17 347.34M355.17 347.34L351.73 343.89M351.73 343.89L346.56 342.17M346.56 342.17L343.11 342.17M343.11 342.17L337.95 343.89M337.95 343.89L334.5 347.34M334.5 347.34L332.78 350.78M332.78 350.78L331.06 355.95M331.06 355.95L331.06 364.56M331.06 364.56L332.78 369.73M332.78 369.73L334.5 373.17M334.5 373.17L337.95 376.62M337.95 376.62L343.11 378.34M343.11 378.34L346.56 378.34M346.56 378.34L351.73 376.62M351.73 376.62L355.17 373.17M355.17 373.17L356.89 369.73M343.11 342.17L339.67 343.89M339.67 343.89L336.23 347.34M336.23 347.34L334.5 350.78M334.5 350.78L332.78 355.95M332.78 355.95L332.78 364.56M332.78 364.56L334.5 369.73M334.5 369.73L336.23 373.17M336.23 373.17L339.67 376.62M339.67 376.62L343.11 378.34M372.39 378.34L372.39 342.17M374.11 342.17L374.11 378.34M396.5 342.17L374.11 364.56M382.72 357.67L396.5 378.34M381 357.67L394.78 378.34M367.22 342.17L379.28 342.17M389.61 342.17L399.94 342.17M367.22 378.34L379.28 378.34M389.61 378.34L399.94 378.34"/>
<path d="M500.05 207.38L502.8 206M502.8 206L506.93 201.87M506.93 201.87L506.93 230.8"/>
<path d="M106.8 199.61L93.02 218.89M93.02 218.89L113.69 218.89M106.8 199.61L106.8 228.54"/>
<path d="M371.74 145.44L254.56 145.44"/>
<path d="M487.84 176.04L484.98 163.34M484.98 163.34L479.35 151.6M479.35 151.6L471.24 141.41M471.24 141.41L461.05 133.3M461.05 133.3L449.31 127.67M449.31 127.67L436.61 124.81"/>
<path d="M436.6 300.6L449.31 297.74M449.31 297.74L461.05 292.11M461.05 292.11L471.24 284M471.24 284L479.35 273.81M479.35 273.81L484.98 262.07M484.98 262.07L487.84 249.36"/>
<path d="M138.46 249.36L141.32 262.07M141.32 262.07L146.95 273.81M146.95 273.81L155.06 284M155.06 284L165.25 292.11M165.25 292.11L176.99 297.74M176.99 297.74L189.7 300.6"/>
<path d="M189.69 124.81L176.99 127.67M176.99 127.67L165.24 133.3M165.24 133.3L155.06 141.41M155.06 141.41L146.95 151.6M146.95 151.6L141.32 163.34M141.32 163.34L138.46 176.04"/>
<path d="M240.1 97.7L240.1 119.4"/>
<path d="M240.1 86.13L240.1 97.7"/>
<path d="M240.1 71.66L240.1 86.13"/>
<path d="M254.56 86.13L254.56 97.7"/>
<path d="M254.56 97.7L254.56 133.87"/>
<path d="M254.56 133.87L254.56 136.76"/>
<path d="M254.56 145.44L254.56 136.76"/>
<path d="M371.74 136.76L371.74 145.44"/>
<path d="M371.74 133.87L371.74 136.76"/>
<path d="M371.74 97.7L371.74 133.87"/>
<path d="M371.74 86.13L371.74 97.7"/>
<path d="M386.2 71.66L386.2 86.13"/>
<path d="M386.2 86.13L386.2 97.7"/>
<path d="M386.2 97.7L386.2 119.4"/>
<path d="M360.16 97.7L360.16 104.66"/>
<path d="M360.16 130.97L360.16 104.66"/>
<path d="M360.16 145.44L360.16 130.97"/>
<path d="M266.14 145.44L266.14 130.97"/>
<path d="M266.14 130.97L266.14 104.66"/>
<path d="M266.14 97.7L266.14 104.66"/>
<path d="M240.1 119.4L219.84 119.4"/>
<path d="M240.1 71.66L386.2 71.66"/>
<path d="M219.84 119.4L202.91 121.07M202.91 121.07L186.63 126M186.63 126L171.63 134.02M171.63 134.02L158.47 144.82M158.47 144.82L147.68 157.97M147.68 157.97L139.66 172.98M139.66 172.98L134.72 189.26M134.72 189.26L133.05 206.19"/>
<path d="M133.05 219.21L133.05 206.19"/>
<path d="M133.05 219.21L134.72 236.15M134.72 236.15L139.66 252.43M139.66 252.43L147.68 267.43M147.68 267.43L158.47 280.59M158.47 280.59L171.63 291.38M171.63 291.38L186.63 299.4M186.63 299.4L202.91 304.34M202.91 304.34L219.85 306.01"/>
<path d="M228.99 306.01L219.85 306.01"/>
<path d="M228.99 306.01L228.99 288.65"/>
<path d="M219.84 288.65L228.99 288.65"/>
<path d="M150.41 219.21L152.15 234.66M152.15 234.66L157.29 249.34M157.29 249.34L165.56 262.51M165.56 262.51L176.55 273.5M176.55 273.5L189.72 281.77M189.72 281.77L204.39 286.91M204.39 286.91L219.84 288.65"/>
<path d="M150.41 219.21L150.41 206.19"/>
<path d="M219.84 136.76L204.39 138.5M204.39 138.5L189.72 143.63M189.72 143.63L176.55 151.9M176.55 151.9L165.56 162.9M165.56 162.9L157.29 176.06M157.29 176.06L152.15 190.74M152.15 190.74L150.41 206.19"/>
<path d="M254.56 136.76L219.84 136.76"/>
<path d="M254.56 86.13L371.74 86.13"/>
<path d="M406.45 136.76L371.74 136.76"/>
<path d="M475.89 206.19L474.15 190.74M474.15 190.74L469.01 176.06M469.01 176.06L460.74 162.9M460.74 162.9L449.75 151.9M449.75 151.9L436.58 143.63M436.58 143.63L421.9 138.5M421.9 138.5L406.45 136.76"/>
<path d="M475.89 219.21L475.89 206.19"/>
<path d="M406.45 288.65L421.9 286.91M421.9 286.91L436.58 281.77M436.58 281.77L449.75 273.5M449.75 273.5L460.74 262.51M460.74 262.51L469.01 249.34M469.01 249.34L474.15 234.66M474.15 234.66L475.89 219.21"/>
<path d="M397.31 288.65L406.45 288.65"/>
<path d="M397.31 288.65L397.31 306.01"/>
<path d="M406.45 306.01L397.31 306.01"/>
<path d="M406.45 306.01L423.39 304.34M423.39 304.34L439.67 299.4M439.67 299.4L454.67 291.38M454.67 291.38L467.83 280.59M467.83 280.59L478.62 267.43M478.62 267.43L486.64 252.43M486.64 252.43L491.58 236.15M491.58 236.15L493.25 219.21"/>
<path d="M493.25 219.21L493.25 206.19"/>
<path d="M493.25 206.19L491.58 189.26M491.58 189.26L486.64 172.98M486.64 172.98L478.62 157.97M478.62 157.97L467.83 144.82M467.83 144.82L454.67 134.02M454.67 134.02L439.67 126M439.67 126L423.39 121.07M423.39 121.07L406.45 119.4"/>
<path d="M406.45 119.4L386.2 119.4"/>
<path d="M255.31 288.65L228.99 288.65"/>
<path d="M255.31 288.65L370.99 288.65"/>
<path d="M397.31 288.65L370.99 288.65"/>
<path d="M228.99 306.01L255.31 306.01"/>
<path d="M370.99 306.01L397.31 306.01"/>
<path d="M370.99 306.01L255.31 306.01"/>
<path d="M279.16 110.72L347.14 110.72"/>
<path d="M347.14 97.7L360.16 97.7"/>
<path d="M347.14 104.66L347.14 97.7"/>
<path d="M347.14 104.66L360.16 104.66"/>
<path d="M347.14 110.72L347.14 104.66"/>
<path d="M279.16 110.72L279.16 104.66"/>
<path d="M266.14 104.66L279.16 104.66"/>
<path d="M266.14 130.97L360.16 130.97"/>
<path d="M279.16 104.66L279.16 97.7"/>
<path d="M266.14 97.7L279.16 97.7"/>
<path d="M255.31 288.65L255.31 306.01"/>
<path d="M370.99 306.01L370.99 288.65"/>
<path d="M406.45 162.8L392.71 162.8"/>
<path d="M372.46 162.8L346.42 162.8"/>
<path d="M326.17 162.8L300.13 162.8"/>
<path d="M279.88 162.8L219.84 162.8"/>
<path d="M418.75 164.57L406.45 162.8"/>
<path d="M449.18 198.6L445.21 186.67"/>
<path d="M449.85 206.19L449.18 198.6"/>
<path d="M445.21 186.67L438.86 177.33M438.86 177.33L430.32 169.95"/>
<path d="M449.85 206.19L449.85 219.21"/>
<path d="M430.32 255.46L439.15 247.75M439.15 247.75L445.59 237.96M445.59 237.96L449.18 226.81"/>
<path d="M449.18 226.81L449.85 219.21"/>
<path d="M406.45 262.61L418.91 260.78M418.91 260.78L430.32 255.46"/>
<path d="M386.05 262.61L406.45 262.61"/>
<path d="M313.15 262.61L386.05 262.61"/>
<path d="M240.25 262.61L313.15 262.61"/>
<path d="M240.25 262.61L219.85 262.61"/>
<path d="M176.45 219.21L177.77 229.83M177.77 229.83L181.64 239.8M181.64 239.8L187.84 248.52M187.84 248.52L195.98 255.46"/>
<path d="M195.98 255.46L207.39 260.78M207.39 260.78L219.85 262.61"/>
<path d="M176.45 206.19L176.45 219.21"/>
<path d="M213.18 163.31L207.55 164.57"/>
<path d="M195.98 169.95L187.44 177.33M187.44 177.33L181.09 186.67"/>
<path d="M181.09 186.67L177.62 196.16M177.62 196.16L176.45 206.19"/>
<path d="M219.84 162.8L213.18 163.31"/>
<path d="M195.98 186.67L181.09 186.67"/>
<path d="M207.55 186.67L233.59 186.67"/>
<path d="M233.59 186.67L262.52 186.67"/>
<path d="M262.52 186.67L279.88 186.67"/>
<path d="M300.13 186.67L326.17 186.67"/>
<path d="M346.42 186.67L372.46 186.67"/>
<path d="M392.71 186.67L418.75 186.67"/>
<path d="M430.32 186.67L445.21 186.67"/>
<path d="M430.32 198.6L449.18 198.6"/>
<path d="M207.55 186.67L207.55 164.57"/>
<path d="M207.55 164.57L195.98 169.95"/>
<path d="M195.98 255.46L195.98 169.95"/>
<path d="M430.32 226.81L430.32 255.46"/>
<path d="M430.32 226.81L449.18 226.81"/>
<path d="M430.32 198.6L430.32 169.95"/>
<path d="M430.32 169.95L418.75 164.57"/>
<path d="M418.75 186.67L418.75 164.57"/>
<path d="M392.71 186.67L392.71 162.8"/>
<path d="M392.71 162.8L372.46 162.8"/>
<path d="M372.46 186.67L372.46 162.8"/>
<path d="M346.42 186.67L346.42 162.8"/>
<path d="M346.42 162.8L326.17 162.8"/>
<path d="M326.17 186.67L326.17 162.8"/>
<path d="M300.13 186.67L300.13 162.8"/>
<path d="M279.88 162.8L300.13 162.8"/>
<path d="M279.88 186.67L279.88 162.8"/>
<path d="M236.48 206.92L216.23 206.92"/>
<path d="M236.48 218.49L216.23 218.49"/>
<path d="M294.34 206.92L274.09 206.92"/>
<path d="M294.34 218.49L274.09 218.49"/>
<path d="M352.21 206.92L331.95 206.92"/>
<path d="M352.21 218.49L331.95 218.49"/>
<path d="M236.48 206.92L236.48 218.49"/>
<path d="M216.23 206.92L216.23 218.49"/>
<path d="M294.34 206.92L294.34 218.49"/>
<path d="M274.09 206.92L274.09 218.49"/>
<path d="M352.21 206.92L352.21 218.49"/>
<path d="M331.95 206.92L331.95 218.49"/>
<path d="M389.82 206.92L389.82 218.49"/>
<path d="M410.07 206.92L410.07 218.49"/>
<path d="M410.07 206.92L389.82 206.92"/>
<path d="M410.07 218.49L389.82 218.49"/>
</g>
</g>
</svg>
