<?xml version="1.0" standalone="no"?><svg xmlns="http://www.w3.org/2000/svg" width="600.000" height="450.000" viewBox="0.0 0.0 600.000 450.000" version="1.1">
<title>Acme Converter - Post-processed with EDS-Designer: 14.44 (info@symca.com)</title>
<desc>Acme Converter - Post-processed with EDS-Designer: 14.44 (info@symca.com)</desc>
<g id="EDS_STYLE_GROUP" fill="none" stroke="black" stroke-width="1.0">
<g id="0" display="visible">
<path d="M250.78 362.6L252.12 366.62M252.12 366.62L252.12 358.57M252.12 358.57L250.78 362.6M250.78 362.6L248.1 359.91M248.1 359.91L244.08 358.57M244.08 358.57L241.39 358.57M241.39 358.57L237.37 359.91M237.37 359.91L234.69 362.6M234.69 362.6L233.35 365.28M233.35 365.28L232 369.3M232 369.3L232 376.01M232 376.01L233.35 380.03M233.35 380.03L234.69 382.72M234.69 382.72L237.37 385.4M237.37 385.4L241.39 386.74M241.39 386.74L244.08 386.74M244.08 386.74L248.1 385.4M248.1 385.4L250.78 382.72M241.39 358.57L238.71 359.91M238.71 359.91L236.03 362.6M236.03 362.6L234.69 365.28M234.69 365.28L233.35 369.3M233.35 369.3L233.35 376.01M233.35 376.01L234.69 380.03M234.69 380.03L236.03 382.72M236.03 382.72L238.71 385.4M238.71 385.4L241.39 386.74M250.78 376.01L250.78 386.74M252.12 376.01L252.12 386.74M246.76 376.01L256.15 376.01M266.88 386.74L266.88 358.57M268.22 358.57L268.22 386.74M262.86 358.57L278.95 358.57M278.95 358.57L282.98 359.91M282.98 359.91L284.32 361.26M284.32 361.26L285.66 363.94M285.66 363.94L285.66 366.62M285.66 366.62L284.32 369.3M284.32 369.3L282.98 370.65M282.98 370.65L278.95 371.99M278.95 371.99L268.22 371.99M278.95 358.57L281.64 359.91M281.64 359.91L282.98 361.26M282.98 361.26L284.32 363.94M284.32 363.94L284.32 366.62M284.32 366.62L282.98 369.3M282.98 369.3L281.64 370.65M281.64 370.65L278.95 371.99M262.86 386.74L272.25 386.74M274.93 371.99L277.61 373.33M277.61 373.33L278.95 374.67M278.95 374.67L282.98 384.06M282.98 384.06L284.32 385.4M284.32 385.4L285.66 385.4M285.66 385.4L287 384.06M277.61 373.33L278.95 376.01M278.95 376.01L281.64 385.4M281.64 385.4L282.98 386.74M282.98 386.74L285.66 386.74M285.66 386.74L287 384.06M287 384.06L287 382.72M296.39 386.74L296.39 358.57M297.73 358.57L297.73 386.74M305.78 366.62L305.78 377.35M292.37 358.57L313.83 358.57M313.83 358.57L313.83 366.62M313.83 366.62L312.49 358.57M297.73 371.99L305.78 371.99M292.37 386.74L313.83 386.74M313.83 386.74L313.83 378.69M313.83 378.69L312.49 386.74M324.56 386.74L324.56 358.57M325.9 358.57L325.9 386.74M333.95 366.62L333.95 377.35M320.54 358.57L342 358.57M342 358.57L342 366.62M342 366.62L340.66 358.57M325.9 371.99L333.95 371.99M320.54 386.74L342 386.74M342 386.74L342 378.69M342 378.69L340.66 386.74M352.73 386.74L352.73 358.57M354.07 386.74L354.07 358.57M354.07 358.57L370.17 384.06M354.07 361.26L370.17 386.74M370.17 386.74L370.17 358.57M348.7 358.57L354.07 358.57M366.14 358.57L374.19 358.57M348.7 386.74L356.75 386.74"/>
<path d="M565.54 184.41L567.69 183.34M567.69 183.34L570.91 180.12M570.91 180.12L570.91 202.65"/>
<path d="M566.28 246.04L568.43 244.97M568.43 244.97L571.65 241.75M571.65 241.75L571.65 264.28M584.52 247.11L584.52 246.04M584.52 246.04L585.6 243.89M585.6 243.89L586.67 242.82M586.67 242.82L588.82 241.75M588.82 241.75L593.11 241.75M593.11 241.75L595.25 242.82M595.25 242.82L596.33 243.89M596.33 243.89L597.4 246.04M597.4 246.04L597.4 248.19M597.4 248.19L596.33 250.33M596.33 250.33L594.18 253.55M594.18 253.55L583.45 264.28M583.45 264.28L598.47 264.28"/>
<path d="M6.71 184.41L8.86 183.34M8.86 183.34L12.08 180.12M12.08 180.12L12.08 202.65M23.88 184.41L26.03 183.34M26.03 183.34L29.25 180.12M29.25 180.12L29.25 202.65"/>
<path d="M2.61 247.11L2.61 246.04M2.61 246.04L3.69 243.89M3.69 243.89L4.76 242.82M4.76 242.82L6.91 241.75M6.91 241.75L11.2 241.75M11.2 241.75L13.34 242.82M13.34 242.82L14.42 243.89M14.42 243.89L15.49 246.04M15.49 246.04L15.49 248.19M15.49 248.19L14.42 250.33M14.42 250.33L12.27 253.55M12.27 253.55L1.54 264.28M1.54 264.28L16.56 264.28M24.08 247.11L24.08 246.04M24.08 246.04L25.15 243.89M25.15 243.89L26.22 242.82M26.22 242.82L28.37 241.75M28.37 241.75L32.66 241.75M32.66 241.75L34.81 242.82M34.81 242.82L35.88 243.89M35.88 243.89L36.95 246.04M36.95 246.04L36.95 248.19M36.95 248.19L35.88 250.33M35.88 250.33L33.73 253.55M33.73 253.55L23 264.28M23 264.28L38.03 264.28"/>
<path d="M54.84 314.44L54.84 290.5"/>
<path d="M54.84 154.82L54.84 136.97"/>
<path d="M56.72 281.11L56.72 164.2"/>
<path d="M57.19 282.99L57.19 287.21"/>
<path d="M57.19 162.33L57.19 157.63"/>
<path d="M57.66 298.95L57.66 290.03"/>
<path d="M57.66 152.94L57.66 145.89"/>
<path d="M60.47 159.51L60.47 157.63"/>
<path d="M61.41 285.8L61.41 159.04"/>
<path d="M67.98 251.53L67.98 193.31"/>
<path d="M69.39 251.53L69.39 224.77"/>
<path d="M69.39 220.07L69.39 217.73"/>
<path d="M69.39 197.54L69.39 193.31"/>
<path d="M69.39 159.04L69.39 157.63"/>
<path d="M74.09 217.73L74.09 197.54"/>
<path d="M76.44 193.31L76.44 251.53"/>
<path d="M76.91 157.63L76.91 152.94"/>
<path d="M77.37 298.95L77.37 327.12"/>
<path d="M80.66 296.13L80.66 330.4"/>
<path d="M81.13 198.48L81.13 246.37"/>
<path d="M83.01 187.21L83.01 193.31"/>
<path d="M83.01 198.48L83.01 217.26"/>
<path d="M83.01 251.53L83.01 257.63"/>
<path d="M83.01 246.37L83.01 227.59"/>
<path d="M83.95 157.63L83.95 159.04"/>
<path d="M83.95 193.31L83.95 195.19"/>
<path d="M83.95 287.21L83.95 285.8"/>
<path d="M83.95 251.53L83.95 249.65"/>
<path d="M89.58 330.4L89.58 296.13"/>
<path d="M92.4 327.12L92.4 298.95"/>
<path d="M116.34 157.63L116.34 159.04"/>
<path d="M116.34 193.31L116.34 195.19"/>
<path d="M116.34 249.65L116.34 251.53"/>
<path d="M116.34 287.21L116.34 285.8"/>
<path d="M117.28 198.48L117.28 217.26"/>
<path d="M117.28 257.63L117.28 251.53"/>
<path d="M117.28 246.37L117.28 227.59"/>
<path d="M117.28 193.31L117.28 187.21"/>
<path d="M118.22 149.18L118.22 145.89"/>
<path d="M121.51 109.74L121.51 142.61"/>
<path d="M123.85 187.21L123.85 193.31"/>
<path d="M123.85 198.48L123.85 217.26"/>
<path d="M123.85 251.53L123.85 257.63"/>
<path d="M123.85 246.37L123.85 227.59"/>
<path d="M124.32 142.61L124.32 106.93"/>
<path d="M124.79 157.63L124.79 159.04"/>
<path d="M124.79 287.21L124.79 285.8"/>
<path d="M124.79 251.53L124.79 249.65"/>
<path d="M124.79 195.19L124.79 193.31"/>
<path d="M133.24 142.61L133.24 106.93"/>
<path d="M108.36 248.71L117.28 257.63"/>
<path d="M136.53 142.61L136.53 109.74"/>
<path d="M139.82 149.18L139.82 145.89"/>
<path d="M92.4 196.13L83.01 187.21"/>
<path d="M156.72 157.63L156.72 159.04"/>
<path d="M156.72 193.31L156.72 195.19"/>
<path d="M156.72 249.65L156.72 251.53"/>
<path d="M156.72 285.8L156.72 287.21"/>
<path d="M157.66 198.48L157.66 217.26"/>
<path d="M157.66 257.63L157.66 251.53"/>
<path d="M157.66 246.37L157.66 227.59"/>
<path d="M157.66 193.31L157.66 187.21"/>
<path d="M164.23 187.21L164.23 193.31"/>
<path d="M164.23 198.48L164.23 217.26"/>
<path d="M164.23 251.53L164.23 257.63"/>
<path d="M164.23 246.37L164.23 227.59"/>
<path d="M165.17 287.21L165.17 285.8"/>
<path d="M165.17 251.53L165.17 249.65"/>
<path d="M165.17 195.19L165.17 193.31"/>
<path d="M165.17 159.04L165.17 157.63"/>
<path d="M117.28 187.21L108.36 196.13"/>
<path d="M220.1 94.72L231.84 82.98"/>
<path d="M243.57 72.65L245.92 70.31"/>
<path d="M70.8 330.4L535.12 330.4"/>
<path d="M77.37 327.12L92.4 327.12"/>
<path d="M513.53 327.12L528.55 327.12"/>
<path d="M148.74 248.71L157.66 257.63"/>
<path d="M183.95 227.59L183.95 217.26"/>
<path d="M187.23 236.51L187.23 208.34"/>
<path d="M189.58 196.13L189.58 248.71"/>
<path d="M250.62 75L248.27 77.35"/>
<path d="M83.01 257.63L92.4 248.71"/>
<path d="M132.77 196.13L123.85 187.21"/>
<path d="M189.58 248.71L198.03 257.63"/>
<path d="M186.77 236.51L183.95 227.59"/>
<path d="M196.15 109.74L196.15 145.89"/>
<path d="M197.09 157.63L197.09 159.04"/>
<path d="M197.09 287.21L197.09 285.8"/>
<path d="M198.03 187.21L198.03 217.73"/>
<path d="M198.03 227.12L198.03 257.63"/>
<path d="M199.44 145.89L199.44 106.93"/>
<path d="M200.85 157.63L200.85 159.04"/>
<path d="M200.85 285.8L200.85 287.21"/>
<path d="M205.08 257.63L205.08 227.12"/>
<path d="M205.08 217.73L205.08 187.21"/>
<path d="M206.01 287.21L206.01 285.8"/>
<path d="M206.01 159.04L206.01 157.63"/>
<path d="M207.42 120.07L207.42 145.89"/>
<path d="M208.36 72.65L208.36 106.93"/>
<path d="M183.95 217.26L186.77 208.34"/>
<path d="M157.66 187.21L148.74 196.13"/>
<path d="M548.27 298.95L528.55 298.95"/>
<path d="M77.37 298.95L57.66 298.95"/>
<path d="M92.4 298.95L513.53 298.95"/>
<path d="M285.36 298.01L320.57 298.01"/>
<path d="M551.09 296.13L525.27 296.13"/>
<path d="M80.66 296.13L54.84 296.13"/>
<path d="M89.58 296.13L281.6 296.13"/>
<path d="M324.32 296.13L516.35 296.13"/>
<path d="M280.66 293.31L325.26 293.31"/>
<path d="M548.27 291.91L529.02 291.91"/>
<path d="M57.66 290.03L272.21 290.03"/>
<path d="M333.71 290.03L529.02 290.03"/>
<path d="M205.08 227.12L213.53 236.51"/>
<path d="M211.65 69.37L211.65 109.74"/>
<path d="M213.53 248.71L213.53 196.13"/>
<path d="M214 145.89L214 120.07"/>
<path d="M215.87 208.34L215.87 236.51"/>
<path d="M217.28 69.37L217.28 111.62"/>
<path d="M217.28 145.89L217.28 120.07"/>
<path d="M219.16 217.26L219.16 227.59"/>
<path d="M220.1 72.65L220.1 102.23"/>
<path d="M198.03 187.21L189.58 196.13"/>
<path d="M123.85 257.63L132.77 248.71"/>
<path d="M280.66 287.21L285.36 287.21"/>
<path d="M320.57 287.21L325.26 287.21"/>
<path d="M57.19 287.21L280.66 287.21"/>
<path d="M325.26 287.21L548.27 287.21"/>
<path d="M544.51 285.8L327.14 285.8"/>
<path d="M278.78 285.8L61.41 285.8"/>
<path d="M549.21 281.11L327.14 281.11"/>
<path d="M278.78 281.11L56.72 281.11"/>
<path d="M173.15 196.13L164.23 187.21"/>
<path d="M229.96 248.71L238.88 257.63"/>
<path d="M189.58 208.34L198.03 217.73"/>
<path d="M216.81 208.34L219.16 217.26"/>
<path d="M237.94 157.63L237.94 159.04"/>
<path d="M237.94 193.31L237.94 195.19"/>
<path d="M237.94 249.65L237.94 251.53"/>
<path d="M237.94 285.8L237.94 287.21"/>
<path d="M237.94 90.96L237.94 100.35"/>
<path d="M237.94 145.89L237.94 120.07"/>
<path d="M238.88 198.48L238.88 217.26"/>
<path d="M238.88 257.63L238.88 251.53"/>
<path d="M238.88 246.37L238.88 227.59"/>
<path d="M238.88 193.31L238.88 187.21"/>
<path d="M241.23 87.68L241.23 102.23"/>
<path d="M243.57 69.37L243.57 72.65"/>
<path d="M245.45 187.21L245.45 193.31"/>
<path d="M245.45 198.48L245.45 217.26"/>
<path d="M245.45 251.53L245.45 257.63"/>
<path d="M245.45 246.37L245.45 227.59"/>
<path d="M246.39 287.21L246.39 285.8"/>
<path d="M246.39 251.53L246.39 249.65"/>
<path d="M246.39 195.19L246.39 193.31"/>
<path d="M246.39 159.04L246.39 157.63"/>
<path d="M248.27 77.35L248.27 82.98"/>
<path d="M219.16 227.59L216.81 236.51"/>
<path d="M213.53 208.34L205.08 217.73"/>
<path d="M198.03 227.12L189.58 236.51"/>
<path d="M164.23 257.63L173.15 248.71"/>
<path d="M522.92 257.63L488.65 257.63"/>
<path d="M482.07 257.63L448.27 257.63"/>
<path d="M441.7 257.63L407.89 257.63"/>
<path d="M400.85 257.63L367.05 257.63"/>
<path d="M360.48 257.63L326.67 257.63"/>
<path d="M320.1 257.63L285.83 257.63"/>
<path d="M279.25 257.63L245.45 257.63"/>
<path d="M238.88 257.63L205.08 257.63"/>
<path d="M198.03 257.63L164.23 257.63"/>
<path d="M157.66 257.63L123.85 257.63"/>
<path d="M117.28 257.63L83.01 257.63"/>
<path d="M89.43 251.53L67.98 251.53"/>
<path d="M111.18 251.53L129.96 251.53"/>
<path d="M151.55 251.53L170.33 251.53"/>
<path d="M232.77 251.53L251.55 251.53"/>
<path d="M273.15 251.53L292.4 251.53"/>
<path d="M313.53 251.53L332.78 251.53"/>
<path d="M354.37 251.53L373.15 251.53"/>
<path d="M435.59 251.53L454.37 251.53"/>
<path d="M475.97 251.53L495.07 251.53"/>
<path d="M516.81 251.53L537.94 251.53"/>
<path d="M270.33 248.71L279.25 257.63"/>
<path d="M213.53 196.13L205.08 187.21"/>
<path d="M251.55 77.35L251.55 82.98"/>
<path d="M255.31 87.68L255.31 68.43"/>
<path d="M238.88 187.21L229.96 196.13"/>
<path d="M359.07 70.31L354.84 75"/>
<path d="M361.41 72.65L356.72 77.35"/>
<path d="M76.44 249.65L88.17 249.65"/>
<path d="M112.12 249.65L128.55 249.65"/>
<path d="M152.49 249.65L169.39 249.65"/>
<path d="M233.71 249.65L250.62 249.65"/>
<path d="M274.56 249.65L290.99 249.65"/>
<path d="M314.94 249.65L331.37 249.65"/>
<path d="M355.31 249.65L372.21 249.65"/>
<path d="M436.53 249.65L453.43 249.65"/>
<path d="M477.38 249.65L493.81 249.65"/>
<path d="M517.75 249.65L529.49 249.65"/>
<path d="M514 248.71L498.04 248.71"/>
<path d="M473.15 248.71L457.19 248.71"/>
<path d="M432.78 248.71L416.34 248.71"/>
<path d="M392.4 248.71L375.97 248.71"/>
<path d="M351.56 248.71L335.59 248.71"/>
<path d="M311.18 248.71L295.22 248.71"/>
<path d="M270.33 248.71L254.37 248.71"/>
<path d="M148.74 248.71L132.77 248.71"/>
<path d="M108.36 248.71L92.4 248.71"/>
<path d="M173.15 248.71L189.58 248.71"/>
<path d="M213.53 248.71L229.96 248.71"/>
<path d="M67.98 247.77L69.39 247.77"/>
<path d="M536.53 247.77L537.94 247.77"/>
<path d="M488.65 246.37L482.07 246.37"/>
<path d="M448.27 246.37L441.7 246.37"/>
<path d="M367.05 246.37L360.48 246.37"/>
<path d="M326.67 246.37L320.1 246.37"/>
<path d="M285.83 246.37L279.25 246.37"/>
<path d="M245.45 246.37L238.88 246.37"/>
<path d="M164.23 246.37L157.66 246.37"/>
<path d="M123.85 246.37L117.28 246.37"/>
<path d="M81.13 246.37L83.01 246.37"/>
<path d="M522.92 246.37L524.8 246.37"/>
<path d="M174.56 236.51L187.7 236.51"/>
<path d="M215.4 236.51L228.55 236.51"/>
<path d="M377.38 236.51L390.52 236.51"/>
<path d="M418.22 236.51L431.37 236.51"/>
<path d="M272.21 298.95L272.21 287.21"/>
<path d="M272.21 157.63L272.21 145.89"/>
<path d="M274.09 68.43L274.09 63.27"/>
<path d="M275.5 296.13L275.5 290.5"/>
<path d="M275.5 154.82L275.5 87.68"/>
<path d="M278.32 157.63L278.32 159.04"/>
<path d="M278.32 193.31L278.32 195.19"/>
<path d="M278.32 249.65L278.32 251.53"/>
<path d="M278.32 287.21L278.32 285.8"/>
<path d="M278.78 159.04L278.78 164.2"/>
<path d="M278.78 281.11L278.78 285.8"/>
<path d="M279.25 198.48L279.25 217.26"/>
<path d="M279.25 257.63L279.25 251.53"/>
<path d="M279.25 246.37L279.25 227.59"/>
<path d="M279.25 193.31L279.25 187.21"/>
<path d="M280.66 152L280.66 157.63"/>
<path d="M280.66 287.21L280.66 293.31"/>
<path d="M285.36 298.01L285.36 287.21"/>
<path d="M285.36 157.63L285.36 146.83"/>
<path d="M285.83 187.21L285.83 193.31"/>
<path d="M285.83 198.48L285.83 217.26"/>
<path d="M285.83 251.53L285.83 257.63"/>
<path d="M285.83 246.37L285.83 227.59"/>
<path d="M205.08 257.63L213.53 248.71"/>
<path d="M279.25 187.21L270.33 196.13"/>
<path d="M441.7 227.59L421.98 227.59"/>
<path d="M386.77 227.59L367.05 227.59"/>
<path d="M238.88 227.59L219.16 227.59"/>
<path d="M183.95 227.59L164.23 227.59"/>
<path d="M213.53 227.12L205.08 227.12"/>
<path d="M198.03 227.12L189.58 227.12"/>
<path d="M67.98 227.12L69.39 227.12"/>
<path d="M392.4 227.12L400.85 227.12"/>
<path d="M407.89 227.12L416.34 227.12"/>
<path d="M536.53 227.12L537.94 227.12"/>
<path d="M536.53 224.77L529.49 224.77"/>
<path d="M76.44 224.77L69.39 224.77"/>
<path d="M536.53 220.07L529.49 220.07"/>
<path d="M76.44 220.07L69.39 220.07"/>
<path d="M213.53 217.73L205.08 217.73"/>
<path d="M198.03 217.73L189.58 217.73"/>
<path d="M67.98 217.73L74.09 217.73"/>
<path d="M392.4 217.73L400.85 217.73"/>
<path d="M407.89 217.73L416.34 217.73"/>
<path d="M531.84 217.73L537.94 217.73"/>
<path d="M164.23 217.26L183.95 217.26"/>
<path d="M219.16 217.26L238.88 217.26"/>
<path d="M367.05 217.26L386.77 217.26"/>
<path d="M421.98 217.26L441.7 217.26"/>
<path d="M254.37 196.13L245.45 187.21"/>
<path d="M311.18 248.71L320.1 257.63"/>
<path d="M286.77 251.53L286.77 249.65"/>
<path d="M286.77 195.19L286.77 193.31"/>
<path d="M245.45 257.63L254.37 248.71"/>
<path d="M174.56 208.34L187.7 208.34"/>
<path d="M215.4 208.34L228.55 208.34"/>
<path d="M377.38 208.34L390.52 208.34"/>
<path d="M418.22 208.34L431.37 208.34"/>
<path d="M524.8 198.48L522.92 198.48"/>
<path d="M83.01 198.48L81.13 198.48"/>
<path d="M117.28 198.48L123.85 198.48"/>
<path d="M157.66 198.48L164.23 198.48"/>
<path d="M238.88 198.48L245.45 198.48"/>
<path d="M279.25 198.48L285.83 198.48"/>
<path d="M320.1 198.48L326.67 198.48"/>
<path d="M360.48 198.48L367.05 198.48"/>
<path d="M441.7 198.48L448.27 198.48"/>
<path d="M482.07 198.48L488.65 198.48"/>
<path d="M67.98 197.54L74.09 197.54"/>
<path d="M531.84 197.54L537.94 197.54"/>
<path d="M92.4 196.13L108.36 196.13"/>
<path d="M132.77 196.13L148.74 196.13"/>
<path d="M173.15 196.13L189.58 196.13"/>
<path d="M213.53 196.13L229.96 196.13"/>
<path d="M254.37 196.13L270.33 196.13"/>
<path d="M295.22 196.13L311.18 196.13"/>
<path d="M335.59 196.13L351.56 196.13"/>
<path d="M375.97 196.13L392.4 196.13"/>
<path d="M416.34 196.13L432.78 196.13"/>
<path d="M457.19 196.13L473.15 196.13"/>
<path d="M498.04 196.13L514 196.13"/>
<path d="M76.44 195.19L88.17 195.19"/>
<path d="M112.12 195.19L128.55 195.19"/>
<path d="M152.49 195.19L169.39 195.19"/>
<path d="M233.71 195.19L250.62 195.19"/>
<path d="M274.56 195.19L290.99 195.19"/>
<path d="M314.94 195.19L331.37 195.19"/>
<path d="M355.31 195.19L372.21 195.19"/>
<path d="M436.53 195.19L453.43 195.19"/>
<path d="M477.38 195.19L493.81 195.19"/>
<path d="M517.75 195.19L529.49 195.19"/>
<path d="M295.22 196.13L285.83 187.21"/>
<path d="M351.56 248.71L360.48 257.63"/>
<path d="M319.16 193.31L319.16 195.19"/>
<path d="M319.16 249.65L319.16 251.53"/>
<path d="M320.1 198.48L320.1 217.26"/>
<path d="M320.1 257.63L320.1 251.53"/>
<path d="M320.1 246.37L320.1 227.59"/>
<path d="M320.1 193.31L320.1 187.21"/>
<path d="M320.57 298.01L320.57 287.21"/>
<path d="M320.57 157.63L320.57 146.83"/>
<path d="M320.1 187.21L311.18 196.13"/>
<path d="M67.98 193.31L89.43 193.31"/>
<path d="M111.18 193.31L129.96 193.31"/>
<path d="M151.55 193.31L170.33 193.31"/>
<path d="M232.77 193.31L251.55 193.31"/>
<path d="M273.15 193.31L292.4 193.31"/>
<path d="M313.53 193.31L332.78 193.31"/>
<path d="M354.37 193.31L373.15 193.31"/>
<path d="M435.59 193.31L454.37 193.31"/>
<path d="M475.97 193.31L495.07 193.31"/>
<path d="M516.81 193.31L537.94 193.31"/>
<path d="M83.01 187.21L117.28 187.21"/>
<path d="M123.85 187.21L157.66 187.21"/>
<path d="M164.23 187.21L198.03 187.21"/>
<path d="M205.08 187.21L238.88 187.21"/>
<path d="M245.45 187.21L279.25 187.21"/>
<path d="M285.83 187.21L320.1 187.21"/>
<path d="M326.67 187.21L360.48 187.21"/>
<path d="M367.05 187.21L400.85 187.21"/>
<path d="M407.89 187.21L441.7 187.21"/>
<path d="M448.27 187.21L482.07 187.21"/>
<path d="M488.65 187.21L522.92 187.21"/>
<path d="M325.26 293.31L325.26 287.21"/>
<path d="M325.26 157.63L325.26 152"/>
<path d="M326.67 187.21L326.67 193.31"/>
<path d="M326.67 198.48L326.67 217.26"/>
<path d="M326.67 251.53L326.67 257.63"/>
<path d="M326.67 246.37L326.67 227.59"/>
<path d="M327.14 285.8L327.14 281.11"/>
<path d="M327.14 164.2L327.14 159.04"/>
<path d="M327.61 157.63L327.61 159.04"/>
<path d="M327.61 287.21L327.61 285.8"/>
<path d="M327.61 251.53L327.61 249.65"/>
<path d="M327.61 195.19L327.61 193.31"/>
<path d="M330.43 296.13L330.43 290.5"/>
<path d="M330.43 154.82L330.43 87.68"/>
<path d="M331.84 63.27L331.84 68.43"/>
<path d="M333.71 298.95L333.71 287.21"/>
<path d="M333.71 157.63L333.71 145.89"/>
<path d="M285.83 257.63L295.22 248.71"/>
<path d="M360.48 187.21L351.56 196.13"/>
<path d="M56.72 164.2L278.78 164.2"/>
<path d="M327.14 164.2L549.21 164.2"/>
<path d="M61.41 159.04L278.78 159.04"/>
<path d="M327.14 159.04L544.51 159.04"/>
<path d="M548.74 157.63L325.26 157.63"/>
<path d="M57.66 157.63L280.66 157.63"/>
<path d="M325.26 157.63L320.57 157.63"/>
<path d="M285.36 157.63L280.66 157.63"/>
<path d="M335.59 196.13L326.67 187.21"/>
<path d="M392.4 248.71L400.85 257.63"/>
<path d="M350.62 68.43L350.62 87.68"/>
<path d="M353.9 77.35L353.9 82.98"/>
<path d="M356.72 77.35L356.72 82.98"/>
<path d="M359.54 157.63L359.54 159.04"/>
<path d="M359.54 193.31L359.54 195.19"/>
<path d="M359.54 249.65L359.54 251.53"/>
<path d="M359.54 285.8L359.54 287.21"/>
<path d="M360.48 198.48L360.48 217.26"/>
<path d="M360.48 257.63L360.48 251.53"/>
<path d="M360.48 246.37L360.48 227.59"/>
<path d="M360.48 193.31L360.48 187.21"/>
<path d="M361.41 72.65L361.41 69.37"/>
<path d="M548.27 155.28L333.71 155.28"/>
<path d="M272.21 155.28L76.91 155.28"/>
<path d="M57.66 152.94L76.91 152.94"/>
<path d="M280.66 152L325.26 152"/>
<path d="M275.5 149.18L139.82 149.18"/>
<path d="M118.22 149.18L54.84 149.18"/>
<path d="M330.43 149.18L466.11 149.18"/>
<path d="M487.71 149.18L551.09 149.18"/>
<path d="M320.57 146.83L285.36 146.83"/>
<path d="M272.21 145.89L139.82 145.89"/>
<path d="M118.22 145.89L57.66 145.89"/>
<path d="M333.71 145.89L466.11 145.89"/>
<path d="M487.71 145.89L548.27 145.89"/>
<path d="M484.42 142.61L481.6 142.61"/>
<path d="M124.32 142.61L121.51 142.61"/>
<path d="M133.24 142.61L136.53 142.61"/>
<path d="M469.4 142.61L472.68 142.61"/>
<path d="M248.27 77.35L243.57 72.65"/>
<path d="M250.62 75L245.92 70.31"/>
<path d="M375.97 196.13L367.05 187.21"/>
<path d="M432.78 248.71L441.7 257.63"/>
<path d="M407.89 227.12L416.34 236.51"/>
<path d="M392.4 208.34L400.85 217.73"/>
<path d="M364.7 102.23L364.7 87.68"/>
<path d="M367.05 187.21L367.05 193.31"/>
<path d="M367.05 198.48L367.05 217.26"/>
<path d="M367.05 251.53L367.05 257.63"/>
<path d="M367.05 246.37L367.05 227.59"/>
<path d="M367.99 145.89L367.99 120.07"/>
<path d="M367.99 100.35L367.99 90.96"/>
<path d="M367.99 287.21L367.99 285.8"/>
<path d="M367.99 251.53L367.99 249.65"/>
<path d="M367.99 195.19L367.99 193.31"/>
<path d="M367.99 159.04L367.99 157.63"/>
<path d="M400.85 187.21L392.4 196.13"/>
<path d="M326.67 257.63L335.59 248.71"/>
<path d="M196.15 124.3L136.53 124.3"/>
<path d="M121.51 124.3L67.52 124.3"/>
<path d="M409.77 124.3L469.4 124.3"/>
<path d="M484.42 124.3L538.41 124.3"/>
<path d="M275.5 122.42L330.43 122.42"/>
<path d="M207.42 120.07L237.94 120.07"/>
<path d="M367.99 120.07L398.5 120.07"/>
<path d="M389.58 236.51L386.77 227.59"/>
<path d="M385.83 102.23L385.83 72.65"/>
<path d="M386.77 227.59L386.77 217.26"/>
<path d="M388.64 145.89L388.64 120.07"/>
<path d="M388.64 111.62L388.64 69.37"/>
<path d="M390.05 236.51L390.05 208.34"/>
<path d="M391.93 145.89L391.93 120.07"/>
<path d="M392.4 196.13L392.4 248.71"/>
<path d="M394.28 69.37L394.28 109.74"/>
<path d="M397.56 72.65L397.56 106.93"/>
<path d="M398.5 145.89L398.5 120.07"/>
<path d="M386.77 217.26L389.58 208.34"/>
<path d="M416.34 208.34L407.89 217.73"/>
<path d="M400.85 227.12L392.4 236.51"/>
<path d="M367.05 257.63L375.97 248.71"/>
<path d="M441.7 187.21L432.78 196.13"/>
<path d="M388.64 111.62L330.43 111.62"/>
<path d="M275.5 111.62L217.28 111.62"/>
<path d="M121.51 109.74L136.53 109.74"/>
<path d="M196.15 109.74L211.65 109.74"/>
<path d="M394.28 109.74L409.77 109.74"/>
<path d="M469.4 109.74L484.42 109.74"/>
<path d="M406.49 106.93L397.56 106.93"/>
<path d="M330.43 106.93L275.5 106.93"/>
<path d="M208.36 106.93L199.44 106.93"/>
<path d="M133.24 106.93L124.32 106.93"/>
<path d="M472.68 106.93L481.6 106.93"/>
<path d="M275.5 102.7L330.43 102.7"/>
<path d="M220.1 102.23L241.23 102.23"/>
<path d="M364.7 102.23L385.83 102.23"/>
<path d="M275.5 100.82L330.43 100.82"/>
<path d="M385.83 100.35L367.52 100.35"/>
<path d="M238.41 100.35L220.1 100.35"/>
<path d="M473.15 248.71L482.07 257.63"/>
<path d="M416.34 196.13L407.89 187.21"/>
<path d="M399.91 157.63L399.91 159.04"/>
<path d="M399.91 285.8L399.91 287.21"/>
<path d="M400.85 187.21L400.85 217.73"/>
<path d="M400.85 227.12L400.85 257.63"/>
<path d="M405.08 287.21L405.08 285.8"/>
<path d="M405.08 159.04L405.08 157.63"/>
<path d="M406.49 145.89L406.49 106.93"/>
<path d="M407.89 257.63L407.89 227.12"/>
<path d="M407.89 217.73L407.89 187.21"/>
<path d="M408.83 157.63L408.83 159.04"/>
<path d="M408.83 287.21L408.83 285.8"/>
<path d="M409.77 145.89L409.77 109.74"/>
<path d="M416.34 248.71L416.34 196.13"/>
<path d="M275.5 91.43L330.43 91.43"/>
<path d="M241.23 87.68L364.7 87.68"/>
<path d="M231.84 82.98L251.55 82.98"/>
<path d="M353.9 82.98L374.09 82.98"/>
<path d="M350.62 82.04L255.31 82.04"/>
<path d="M457.19 196.13L448.27 187.21"/>
<path d="M514 248.71L522.92 257.63"/>
<path d="M419.63 208.34L421.98 217.26"/>
<path d="M418.69 208.34L418.69 236.51"/>
<path d="M421.98 217.26L421.98 227.59"/>
<path d="M421.98 227.59L419.63 236.51"/>
<path d="M407.89 257.63L416.34 248.71"/>
<path d="M482.07 187.21L473.15 196.13"/>
<path d="M220.1 77.82L208.36 77.82"/>
<path d="M385.83 77.82L397.56 77.82"/>
<path d="M248.27 77.35L251.55 77.35"/>
<path d="M353.9 77.35L356.72 77.35"/>
<path d="M350.62 75.47L255.31 75.47"/>
<path d="M220.1 72.65L243.57 72.65"/>
<path d="M361.41 72.65L385.83 72.65"/>
<path d="M211.65 69.37L243.57 69.37"/>
<path d="M361.41 69.37L394.28 69.37"/>
<path d="M350.62 69.37L255.31 69.37"/>
<path d="M350.62 68.43L255.31 68.43"/>
<path d="M331.84 66.55L274.09 66.55"/>
<path d="M331.84 63.27L274.09 63.27"/>
<path d="M356.72 77.35L354.84 75"/>
<path d="M359.07 70.31L361.41 72.65"/>
<path d="M374.09 82.98L385.83 94.72"/>
<path d="M440.76 157.63L440.76 159.04"/>
<path d="M440.76 193.31L440.76 195.19"/>
<path d="M440.76 249.65L440.76 251.53"/>
<path d="M440.76 285.8L440.76 287.21"/>
<path d="M441.7 198.48L441.7 217.26"/>
<path d="M441.7 257.63L441.7 251.53"/>
<path d="M441.7 246.37L441.7 227.59"/>
<path d="M441.7 193.31L441.7 187.21"/>
<path d="M448.27 187.21L448.27 193.31"/>
<path d="M448.27 198.48L448.27 217.26"/>
<path d="M448.27 251.53L448.27 257.63"/>
<path d="M448.27 246.37L448.27 227.59"/>
<path d="M449.21 287.21L449.21 285.8"/>
<path d="M449.21 251.53L449.21 249.65"/>
<path d="M449.21 195.19L449.21 193.31"/>
<path d="M449.21 159.04L449.21 157.63"/>
<path d="M448.27 257.63L457.19 248.71"/>
<path d="M522.92 187.21L514 196.13"/>
<path d="M498.04 196.13L488.65 187.21"/>
<path d="M466.11 145.89L466.11 149.18"/>
<path d="M469.4 142.61L469.4 109.74"/>
<path d="M472.68 142.61L472.68 106.93"/>
<path d="M481.13 157.63L481.13 159.04"/>
<path d="M481.13 193.31L481.13 195.19"/>
<path d="M481.13 249.65L481.13 251.53"/>
<path d="M481.13 287.21L481.13 285.8"/>
<path d="M481.6 106.93L481.6 142.61"/>
<path d="M482.07 198.48L482.07 217.26"/>
<path d="M482.07 257.63L482.07 251.53"/>
<path d="M482.07 246.37L482.07 227.59"/>
<path d="M482.07 193.31L482.07 187.21"/>
<path d="M484.42 109.74L484.42 142.61"/>
<path d="M487.71 145.89L487.71 149.18"/>
<path d="M488.65 187.21L488.65 193.31"/>
<path d="M488.65 198.48L488.65 217.26"/>
<path d="M488.65 251.53L488.65 257.63"/>
<path d="M488.65 246.37L488.65 227.59"/>
<path d="M489.58 157.63L489.58 159.04"/>
<path d="M489.58 287.21L489.58 285.8"/>
<path d="M489.58 251.53L489.58 249.65"/>
<path d="M489.58 195.19L489.58 193.31"/>
<path d="M488.65 257.63L498.04 248.71"/>
<path d="M513.53 298.95L513.53 327.12"/>
<path d="M516.35 296.13L516.35 330.4"/>
<path d="M521.98 157.63L521.98 159.04"/>
<path d="M521.98 193.31L521.98 195.19"/>
<path d="M521.98 287.21L521.98 285.8"/>
<path d="M521.98 251.53L521.98 249.65"/>
<path d="M522.92 198.48L522.92 217.26"/>
<path d="M522.92 257.63L522.92 251.53"/>
<path d="M522.92 246.37L522.92 227.59"/>
<path d="M522.92 193.31L522.92 187.21"/>
<path d="M524.8 246.37L524.8 198.48"/>
<path d="M525.27 330.4L525.27 296.13"/>
<path d="M528.55 327.12L528.55 298.95"/>
<path d="M529.02 291.91L529.02 287.21"/>
<path d="M529.49 251.53L529.49 193.31"/>
<path d="M531.84 217.73L531.84 197.54"/>
<path d="M536.53 287.21L536.53 285.8"/>
<path d="M536.53 251.53L536.53 224.77"/>
<path d="M536.53 220.07L536.53 217.73"/>
<path d="M536.53 197.54L536.53 193.31"/>
<path d="M537.94 193.31L537.94 251.53"/>
<path d="M544.51 285.8L544.51 159.04"/>
<path d="M545.45 285.33L545.45 287.21"/>
<path d="M548.27 298.95L548.27 291.91"/>
<path d="M548.27 155.28L548.27 145.89"/>
<path d="M548.74 157.63L548.74 162.33"/>
<path d="M548.74 282.99L548.74 287.21"/>
<path d="M549.21 164.2L549.21 281.11"/>
<path d="M551.09 314.44L551.09 290.5"/>
<path d="M551.09 154.82L551.09 136.97"/>
<path d="M54.84 314.44L54.84 315.85M54.84 315.85L54.84 317.73M54.84 317.73L55.31 319.14M55.31 319.14L55.78 320.54M55.78 320.54L56.72 321.95M56.72 321.95L57.19 323.36M57.19 323.36L58.13 324.3M58.13 324.3L59.53 325.71M59.53 325.71L60.47 326.65M60.47 326.65L61.88 327.59M61.88 327.59L62.82 328.53M62.82 328.53L64.23 328.99M64.23 328.99L65.64 329.46M65.64 329.46L67.52 329.93M67.52 329.93L68.92 330.4M68.92 330.4L70.8 330.4"/>
<path d="M56.72 281.11L57.19 282.99M57.19 282.99L58.13 284.39M58.13 284.39L59.53 285.33M59.53 285.33L61.41 285.8"/>
<path d="M89.58 330.4L90.52 329.93M90.52 329.93L91.46 329.46M91.46 329.46L92.4 328.53M92.4 328.53L92.4 327.12"/>
<path d="M77.37 327.12L77.84 328.53M77.84 328.53L78.31 329.46M78.31 329.46L79.25 329.93M79.25 329.93L80.66 330.4"/>
<path d="M54.84 296.13L54.84 297.07M54.84 297.07L55.78 298.01M55.78 298.01L56.72 298.95M56.72 298.95L57.66 298.95"/>
<path d="M57.19 287.21L55.31 288.15M55.31 288.15L54.84 290.5"/>
<path d="M156.72 248.71L155.78 249.65M155.78 249.65L154.37 249.65"/>
<path d="M157.66 246.37L157.19 247.77M157.19 247.77L156.72 248.71"/>
<path d="M116.34 248.71L114.93 249.65M114.93 249.65L113.99 249.65"/>
<path d="M117.28 246.37L116.81 247.77M116.81 247.77L116.34 248.71"/>
<path d="M123.85 246.37L123.85 247.77M123.85 247.77L124.79 248.71"/>
<path d="M124.79 248.71L125.73 249.65M125.73 249.65L127.14 249.65"/>
<path d="M164.23 246.37L164.7 247.77M164.7 247.77L165.17 248.71"/>
<path d="M165.17 248.71L166.11 249.65M166.11 249.65L167.52 249.65"/>
<path d="M83.01 246.37L83.48 247.77M83.48 247.77L83.95 248.71"/>
<path d="M83.95 248.71L85.36 249.65M85.36 249.65L86.29 249.65"/>
<path d="M285.36 287.21L285.36 286.27M285.36 286.27L284.89 284.86M284.89 284.86L283.48 282.99M283.48 282.99L281.6 281.58M281.6 281.58L280.19 281.11M280.19 281.11L278.78 281.11"/>
<path d="M280.66 293.31L281.13 295.19M281.13 295.19L282.07 296.6M282.07 296.6L283.48 297.54M283.48 297.54L285.36 298.01"/>
<path d="M275.5 290.5L275.03 289.09M275.03 289.09L274.56 288.15M274.56 288.15L273.62 287.21M273.62 287.21L272.21 287.21"/>
<path d="M272.21 298.95L273.62 298.95M273.62 298.95L274.56 298.01M274.56 298.01L275.03 297.07M275.03 297.07L275.5 296.13"/>
<path d="M280.66 287.21L280.19 286.27M280.19 286.27L278.78 285.8"/>
<path d="M278.32 248.71L277.38 249.65M277.38 249.65L275.97 249.65"/>
<path d="M279.25 246.37L279.25 247.77M279.25 247.77L278.32 248.71"/>
<path d="M237.94 248.71L237 249.65M237 249.65L235.59 249.65"/>
<path d="M238.88 246.37L238.41 247.77M238.41 247.77L237.94 248.71"/>
<path d="M285.83 246.37L286.3 247.77M286.3 247.77L286.77 248.71"/>
<path d="M286.77 248.71L288.17 249.65M288.17 249.65L289.11 249.65"/>
<path d="M245.45 246.37L245.92 247.77M245.92 247.77L246.39 248.71"/>
<path d="M246.39 248.71L247.33 249.65M247.33 249.65L248.74 249.65"/>
<path d="M187.7 208.34L189.11 207.87M189.11 207.87L189.58 206.93"/>
<path d="M213.53 206.93L214 207.87M214 207.87L215.4 208.34"/>
<path d="M189.58 238.38L189.11 236.98M189.11 236.98L187.7 236.51"/>
<path d="M215.4 236.51L214 236.98M214 236.98L213.53 238.38"/>
<path d="M67.52 124.3L64.7 124.77M64.7 124.77L62.35 125.24M62.35 125.24L60.47 126.65M60.47 126.65L58.6 128.05M58.6 128.05L56.72 129.93M56.72 129.93L55.78 132.28M55.78 132.28L54.84 134.63M54.84 134.63L54.84 136.97"/>
<path d="M118.22 149.18L119.63 148.71M119.63 148.71L120.57 148.71M120.57 148.71L122.45 147.3M122.45 147.3L123.85 144.96M123.85 144.96L124.32 144.02M124.32 144.02L124.32 142.61"/>
<path d="M133.24 142.61L133.24 144.02M133.24 144.02L133.71 144.96M133.71 144.96L135.12 147.3M135.12 147.3L137 148.71M137 148.71L138.41 148.71M138.41 148.71L139.82 149.18"/>
<path d="M61.41 159.04L59.53 159.51M59.53 159.51L58.13 160.45M58.13 160.45L57.19 162.33M57.19 162.33L56.72 164.2"/>
<path d="M57.66 145.89L56.72 145.89M56.72 145.89L55.78 146.83M55.78 146.83L54.84 147.77M54.84 147.77L54.84 149.18"/>
<path d="M136.53 142.61L136.53 144.02M136.53 144.02L137.47 144.96M137.47 144.96L138.41 145.43M138.41 145.43L139.82 145.89"/>
<path d="M118.22 145.89L119.16 145.43M119.16 145.43L120.57 144.96M120.57 144.96L121.04 144.02M121.04 144.02L121.51 142.61"/>
<path d="M54.84 154.82L54.84 155.75M54.84 155.75L55.78 156.69M55.78 156.69L56.72 157.63M56.72 157.63L57.66 157.63"/>
<path d="M86.29 195.19L85.36 195.66M85.36 195.66L83.95 196.13"/>
<path d="M83.95 196.13L83.48 197.54M83.48 197.54L83.01 198.48"/>
<path d="M127.14 195.19L125.73 195.66M125.73 195.66L124.79 196.13"/>
<path d="M124.79 196.13L123.85 197.54M123.85 197.54L123.85 198.48"/>
<path d="M167.52 195.19L166.11 195.66M166.11 195.66L165.17 196.13"/>
<path d="M165.17 196.13L164.7 197.54M164.7 197.54L164.23 198.48"/>
<path d="M156.72 196.13L157.19 197.54M157.19 197.54L157.66 198.48"/>
<path d="M154.37 195.19L155.78 195.66M155.78 195.66L156.72 196.13"/>
<path d="M116.34 196.13L116.81 197.54M116.81 197.54L117.28 198.48"/>
<path d="M113.99 195.19L114.93 195.66M114.93 195.66L116.34 196.13"/>
<path d="M136.53 109.74L136.06 108.81M136.06 108.81L135.59 107.87M135.59 107.87L134.65 106.93M134.65 106.93L133.24 106.93"/>
<path d="M124.32 106.93L123.38 106.93M123.38 106.93L122.45 107.87M122.45 107.87L121.51 108.81M121.51 108.81L121.51 109.74"/>
<path d="M278.78 164.2L280.19 163.74M280.19 163.74L281.6 163.74M281.6 163.74L283.48 162.33M283.48 162.33L284.89 159.98M284.89 159.98L285.36 159.04M285.36 159.04L285.36 157.63"/>
<path d="M285.36 146.83L283.48 147.3M283.48 147.3L282.07 148.24M282.07 148.24L281.13 150.12M281.13 150.12L280.66 152"/>
<path d="M275.5 149.18L275.03 147.77M275.03 147.77L274.56 146.83M274.56 146.83L273.62 145.89M273.62 145.89L272.21 145.89"/>
<path d="M272.21 157.63L273.62 157.63M273.62 157.63L274.56 156.69M274.56 156.69L275.03 155.75M275.03 155.75L275.5 154.82"/>
<path d="M248.74 195.19L247.33 195.66M247.33 195.66L246.39 196.13"/>
<path d="M246.39 196.13L245.92 197.54M245.92 197.54L245.45 198.48"/>
<path d="M289.11 195.19L288.17 195.66M288.17 195.66L286.77 196.13"/>
<path d="M286.77 196.13L286.3 197.54M286.3 197.54L285.83 198.48"/>
<path d="M237.94 196.13L238.41 197.54M238.41 197.54L238.88 198.48"/>
<path d="M235.59 195.19L237 195.66M237 195.66L237.94 196.13"/>
<path d="M278.32 196.13L279.25 197.54M279.25 197.54L279.25 198.48"/>
<path d="M275.97 195.19L277.38 195.66M277.38 195.66L278.32 196.13"/>
<path d="M278.78 159.04L280.19 158.57M280.19 158.57L280.66 157.63"/>
<path d="M220.1 72.65L220.1 71.72M220.1 71.72L219.16 70.31M219.16 70.31L218.22 69.84M218.22 69.84L217.28 69.37"/>
<path d="M241.23 87.68L239.82 87.68M239.82 87.68L238.88 88.62M238.88 88.62L237.94 89.56M237.94 89.56L237.94 90.96"/>
<path d="M251.55 77.35L251.08 75.94M251.08 75.94L250.62 75"/>
<path d="M245.92 70.31L244.98 69.84M244.98 69.84L243.57 69.37"/>
<path d="M199.44 106.93L198.5 106.93M198.5 106.93L197.09 107.87M197.09 107.87L196.62 108.81M196.62 108.81L196.15 109.74"/>
<path d="M211.65 69.37L210.24 69.84M210.24 69.84L209.3 70.31M209.3 70.31L208.83 71.72M208.83 71.72L208.36 72.65"/>
<path d="M327.14 281.11L325.73 281.11M325.73 281.11L324.32 281.58M324.32 281.58L322.45 282.99M322.45 282.99L321.04 284.86M321.04 284.86L320.57 286.27M320.57 286.27L320.57 287.21"/>
<path d="M320.57 298.01L322.45 297.54M322.45 297.54L323.86 296.6M323.86 296.6L324.79 295.19M324.79 295.19L325.26 293.31"/>
<path d="M330.43 296.13L330.9 297.07M330.9 297.07L331.37 298.01M331.37 298.01L332.31 298.95M332.31 298.95L333.71 298.95"/>
<path d="M333.71 287.21L332.31 287.21M332.31 287.21L331.37 288.15M331.37 288.15L330.9 289.09M330.9 289.09L330.43 290.5"/>
<path d="M327.14 285.8L325.73 286.27M325.73 286.27L325.26 287.21"/>
<path d="M359.54 248.71L358.6 249.65M358.6 249.65L357.19 249.65"/>
<path d="M360.48 246.37L360.01 247.77M360.01 247.77L359.54 248.71"/>
<path d="M319.16 248.71L317.75 249.65M317.75 249.65L316.81 249.65"/>
<path d="M320.1 246.37L319.63 247.77M319.63 247.77L319.16 248.71"/>
<path d="M326.67 246.37L326.67 247.77M326.67 247.77L327.61 248.71"/>
<path d="M327.61 248.71L328.55 249.65M328.55 249.65L329.96 249.65"/>
<path d="M367.05 246.37L367.52 247.77M367.52 247.77L367.99 248.71"/>
<path d="M367.99 248.71L368.93 249.65M368.93 249.65L370.33 249.65"/>
<path d="M390.52 208.34L391.93 207.87M391.93 207.87L392.4 206.93"/>
<path d="M416.34 206.93L416.81 207.87M416.81 207.87L418.22 208.34"/>
<path d="M418.22 236.51L416.81 236.98M416.81 236.98L416.34 238.38"/>
<path d="M392.4 238.38L391.93 236.98M391.93 236.98L390.52 236.51"/>
<path d="M535.12 330.4L537 330.4M537 330.4L538.41 329.93M538.41 329.93L540.29 329.46M540.29 329.46L541.7 328.99M541.7 328.99L543.11 328.53M543.11 328.53L544.04 327.59M544.04 327.59L545.45 326.65M545.45 326.65L546.39 325.71M546.39 325.71L547.8 324.3M547.8 324.3L548.74 323.36M548.74 323.36L549.21 321.95M549.21 321.95L550.15 320.54M550.15 320.54L550.62 319.14M550.62 319.14L551.09 317.73M551.09 317.73L551.09 315.85M551.09 315.85L551.09 314.44"/>
<path d="M544.51 285.8L546.39 285.33M546.39 285.33L547.8 284.39M547.8 284.39L548.74 282.99M548.74 282.99L549.21 281.11"/>
<path d="M548.27 298.95L549.21 298.95M549.21 298.95L550.15 298.01M550.15 298.01L551.09 297.07M551.09 297.07L551.09 296.13"/>
<path d="M525.27 330.4L526.67 329.93M526.67 329.93L527.61 329.46M527.61 329.46L528.08 328.53M528.08 328.53L528.55 327.12"/>
<path d="M513.53 327.12L513.53 328.53M513.53 328.53L514.47 329.46M514.47 329.46L515.41 329.93M515.41 329.93L516.35 330.4"/>
<path d="M551.09 290.5L551.09 289.09M551.09 289.09L550.15 288.15M550.15 288.15L549.21 287.21M549.21 287.21L548.27 287.21"/>
<path d="M521.98 248.71L520.57 249.65M520.57 249.65L519.63 249.65"/>
<path d="M522.92 246.37L522.45 247.77M522.45 247.77L521.98 248.71"/>
<path d="M481.13 248.71L480.19 249.65M480.19 249.65L478.79 249.65"/>
<path d="M482.07 246.37L482.07 247.77M482.07 247.77L481.13 248.71"/>
<path d="M440.76 248.71L439.82 249.65M439.82 249.65L438.41 249.65"/>
<path d="M441.7 246.37L441.23 247.77M441.23 247.77L440.76 248.71"/>
<path d="M488.65 246.37L489.11 247.77M489.11 247.77L489.58 248.71"/>
<path d="M489.58 248.71L490.99 249.65M490.99 249.65L491.93 249.65"/>
<path d="M448.27 246.37L448.74 247.77M448.74 247.77L449.21 248.71"/>
<path d="M449.21 248.71L450.15 249.65M450.15 249.65L451.56 249.65"/>
<path d="M320.57 157.63L320.57 159.04M320.57 159.04L321.04 159.98M321.04 159.98L322.45 162.33M322.45 162.33L324.32 163.74M324.32 163.74L325.73 163.74M325.73 163.74L327.14 164.2"/>
<path d="M325.26 152L324.79 150.12M324.79 150.12L323.86 148.24M323.86 148.24L322.45 147.3M322.45 147.3L320.57 146.83"/>
<path d="M330.43 154.82L330.9 155.75M330.9 155.75L331.37 156.69M331.37 156.69L332.31 157.63M332.31 157.63L333.71 157.63"/>
<path d="M333.71 145.89L332.31 145.89M332.31 145.89L331.37 146.83M331.37 146.83L330.9 147.77M330.9 147.77L330.43 149.18"/>
<path d="M329.96 195.19L328.55 195.66M328.55 195.66L327.61 196.13"/>
<path d="M327.61 196.13L326.67 197.54M326.67 197.54L326.67 198.48"/>
<path d="M370.33 195.19L368.93 195.66M368.93 195.66L367.99 196.13"/>
<path d="M367.99 196.13L367.52 197.54M367.52 197.54L367.05 198.48"/>
<path d="M359.54 196.13L360.01 197.54M360.01 197.54L360.48 198.48"/>
<path d="M357.19 195.19L358.6 195.66M358.6 195.66L359.54 196.13"/>
<path d="M319.16 196.13L319.63 197.54M319.63 197.54L320.1 198.48"/>
<path d="M316.81 195.19L317.75 195.66M317.75 195.66L319.16 196.13"/>
<path d="M325.26 157.63L325.73 158.57M325.73 158.57L327.14 159.04"/>
<path d="M388.64 69.37L387.71 69.84M387.71 69.84L386.77 70.31M386.77 70.31L385.83 71.72M385.83 71.72L385.83 72.65"/>
<path d="M367.99 90.96L367.99 89.56M367.99 89.56L367.05 88.62M367.05 88.62L366.11 87.68M366.11 87.68L364.7 87.68"/>
<path d="M354.84 75L353.9 75.94M353.9 75.94L353.9 77.35"/>
<path d="M361.41 69.37L360.01 69.84M360.01 69.84L359.07 70.31"/>
<path d="M409.77 109.74L409.3 108.81M409.3 108.81L408.83 107.87M408.83 107.87L407.42 106.93M407.42 106.93L406.49 106.93"/>
<path d="M397.56 72.65L397.56 71.72M397.56 71.72L396.63 70.31M396.63 70.31L395.69 69.84M395.69 69.84L394.28 69.37"/>
<path d="M551.09 136.97L551.09 134.63M551.09 134.63L550.15 132.28M550.15 132.28L549.21 129.93M549.21 129.93L547.33 128.05M547.33 128.05L545.45 126.65M545.45 126.65L543.58 125.24M543.58 125.24L541.23 124.77M541.23 124.77L538.41 124.3"/>
<path d="M466.11 149.18L467.52 148.71M467.52 148.71L468.93 148.71M468.93 148.71L470.8 147.3M470.8 147.3L472.21 144.96M472.21 144.96L472.68 144.02M472.68 144.02L472.68 142.61"/>
<path d="M481.6 142.61L481.6 144.02M481.6 144.02L482.07 144.96M482.07 144.96L483.48 147.3M483.48 147.3L485.36 148.71M485.36 148.71L486.77 148.71M486.77 148.71L487.71 149.18"/>
<path d="M549.21 164.2L548.74 162.33M548.74 162.33L547.8 160.45M547.8 160.45L546.39 159.51M546.39 159.51L544.51 159.04"/>
<path d="M551.09 149.18L551.09 147.77M551.09 147.77L550.15 146.83M550.15 146.83L549.21 145.89M549.21 145.89L548.27 145.89"/>
<path d="M484.42 142.61L484.89 144.02M484.89 144.02L485.36 144.96M485.36 144.96L486.77 145.43M486.77 145.43L487.71 145.89"/>
<path d="M466.11 145.89L467.52 145.43M467.52 145.43L468.46 144.96M468.46 144.96L469.4 144.02M469.4 144.02L469.4 142.61"/>
<path d="M548.74 157.63L550.62 156.69M550.62 156.69L551.09 154.82"/>
<path d="M451.56 195.19L450.15 195.66M450.15 195.66L449.21 196.13"/>
<path d="M449.21 196.13L448.74 197.54M448.74 197.54L448.27 198.48"/>
<path d="M491.93 195.19L490.99 195.66M490.99 195.66L489.58 196.13"/>
<path d="M489.58 196.13L489.11 197.54M489.11 197.54L488.65 198.48"/>
<path d="M440.76 196.13L441.23 197.54M441.23 197.54L441.7 198.48"/>
<path d="M438.41 195.19L439.82 195.66M439.82 195.66L440.76 196.13"/>
<path d="M481.13 196.13L482.07 197.54M482.07 197.54L482.07 198.48"/>
<path d="M478.79 195.19L480.19 195.66M480.19 195.66L481.13 196.13"/>
<path d="M521.98 196.13L522.45 197.54M522.45 197.54L522.92 198.48"/>
<path d="M519.63 195.19L520.57 195.66M520.57 195.66L521.98 196.13"/>
<path d="M484.42 109.74L484.42 108.81M484.42 108.81L483.48 107.87M483.48 107.87L482.54 106.93M482.54 106.93L481.6 106.93"/>
<path d="M472.68 106.93L471.27 106.93M471.27 106.93L470.34 107.87M470.34 107.87L469.87 108.81M469.87 108.81L469.4 109.74"/>
<path d="M551.09 156.22L550.62 155.75M550.62 155.75L550.15 155.28M550.15 155.28L549.68 155.28M549.68 155.28L549.21 155.28M549.21 155.28L548.74 155.28M548.74 155.28L548.27 155.28"/>
<path d="M397.56 106.93L397.1 106.93M397.1 106.93L397.1 107.4M397.1 107.4L396.63 107.87M396.63 107.87L396.16 107.87M396.16 107.87L396.16 108.34M396.16 108.34L395.69 108.81M395.69 108.81L395.22 108.81M395.22 108.81L395.22 109.27M395.22 109.27L394.75 109.74M394.75 109.74L394.28 109.74"/>
<path d="M367.52 100.35L367.05 100.35M367.05 100.35L366.58 100.82M366.58 100.82L366.11 101.29M366.11 101.29L365.64 101.76M365.64 101.76L365.17 101.76M365.17 101.76L365.17 102.23M365.17 102.23L364.7 102.23"/>
<path d="M238.41 100.35L238.88 100.35M238.88 100.35L239.35 100.82M239.35 100.82L239.82 101.29M239.82 101.29L240.29 101.76M240.29 101.76L240.76 101.76M240.76 101.76L240.76 102.23M240.76 102.23L241.23 102.23"/>
<path d="M208.36 106.93L208.83 106.93M208.83 106.93L208.83 107.4M208.83 107.4L209.3 107.87M209.3 107.87L209.77 107.87M209.77 107.87L209.77 108.34M209.77 108.34L210.24 108.81M210.24 108.81L210.71 108.81M210.71 108.81L210.71 109.27M210.71 109.27L211.18 109.74M211.18 109.74L211.65 109.74"/>
<path d="M388.64 111.62L388.64 110.68M388.64 110.68L388.18 109.74M388.18 109.74L387.71 108.81M387.71 108.81L387.71 107.87M387.71 107.87L387.24 106.93M387.24 106.93L386.77 105.99M386.77 105.99L386.77 105.05M386.77 105.05L386.3 104.11M386.3 104.11L386.3 103.17M386.3 103.17L385.83 102.7M385.83 102.7L385.83 101.76M385.83 101.76L385.83 101.29M385.83 101.29L385.83 100.35"/>
<path d="M220.1 100.35L220.1 101.29M220.1 101.29L220.1 101.76M220.1 101.76L220.1 102.7M220.1 102.7L220.1 103.17M220.1 103.17L219.63 104.11M219.63 104.11L219.63 104.58M219.63 104.58L219.16 105.99M219.16 105.99L218.69 106.46M218.69 106.46L218.69 107.4M218.69 107.4L218.22 108.81M218.22 108.81L217.75 109.27M217.75 109.27L217.75 110.21M217.75 110.21L217.28 111.62"/>
<path d="M526.2 249.65L525.73 249.65M525.73 249.65L525.27 249.18M525.27 249.18L525.27 248.71M525.27 248.71L524.8 248.24M524.8 248.24L524.8 247.77M524.8 247.77L524.8 247.3M524.8 247.3L524.8 246.83M524.8 246.83L524.8 246.37"/>
<path d="M81.13 246.37L81.13 246.83M81.13 246.83L81.13 247.3M81.13 247.3L81.13 247.77M81.13 247.77L81.13 248.24M81.13 248.24L80.66 248.71M80.66 248.71L80.66 249.18M80.66 249.18L80.19 249.65M80.19 249.65L79.72 249.65"/>
<path d="M79.72 195.19L80.19 195.19M80.19 195.19L80.19 195.66M80.19 195.66L80.66 195.66M80.66 195.66L80.66 196.13M80.66 196.13L80.66 196.6M80.66 196.6L81.13 196.6M81.13 196.6L81.13 197.07M81.13 197.07L81.13 197.54M81.13 197.54L81.13 198.01M81.13 198.01L81.13 198.48"/>
<path d="M275.5 153.41L275.5 153.88M275.5 153.88L275.03 153.88M275.03 153.88L275.03 154.35M275.03 154.35L274.56 154.35M274.56 154.35L274.09 154.82M274.09 154.82L273.62 154.82M273.62 154.82L273.15 154.82M273.15 154.82L272.68 155.28M272.68 155.28L272.21 155.28"/>
<path d="M524.8 198.48L524.8 198.01M524.8 198.01L524.8 197.54M524.8 197.54L524.8 197.07M524.8 197.07L524.8 196.6M524.8 196.6L525.27 196.6M525.27 196.6L525.27 196.13M525.27 196.13L525.27 195.66M525.27 195.66L525.73 195.66M525.73 195.66L525.73 195.19M525.73 195.19L526.2 195.19"/>
<path d="M57.66 152.94L57.19 152.94M57.19 152.94L56.72 152.94M56.72 152.94L56.25 153.41M56.25 153.41L55.78 153.41M55.78 153.41L55.31 153.41M55.31 153.41L54.84 153.88M54.84 153.88L54.84 154.35"/>
<path d="M92.4 298.95L91.93 298.48M91.93 298.48L91.46 298.01M91.46 298.01L90.99 297.54M90.99 297.54L90.52 297.07M90.52 297.07L90.05 296.6M90.05 296.6L89.58 296.13"/>
<path d="M333.71 155.28L333.25 154.82M333.25 154.82L332.78 154.82M332.78 154.82L332.31 154.82M332.31 154.82L331.84 154.82M331.84 154.82L331.37 154.35M331.37 154.35L330.9 154.35M330.9 154.35L330.9 153.88M330.9 153.88L330.43 153.88M330.43 153.88L330.43 153.41"/>
<path d="M513.53 298.95L514 298.48M514 298.48L514.47 298.01M514.47 298.01L514.94 297.54M514.94 297.54L515.41 297.07M515.41 297.07L515.88 296.6M515.88 296.6L516.35 296.13"/>
<path d="M272.21 290.03L272.68 290.03M272.68 290.03L273.15 290.03M273.15 290.03L273.62 290.03M273.62 290.03L274.09 290.03M274.09 290.03L274.09 290.5M274.09 290.5L274.56 290.5M274.56 290.5L275.03 290.97M275.03 290.97L275.5 291.44M275.5 291.44L275.5 291.91"/>
<path d="M528.55 298.95L528.08 298.95M528.08 298.95L528.08 298.48M528.08 298.48L527.61 298.01M527.61 298.01L527.14 298.01M527.14 298.01L527.14 297.54M527.14 297.54L526.67 297.07M526.67 297.07L526.2 297.07M526.2 297.07L526.2 296.6M526.2 296.6L525.73 296.13M525.73 296.13L525.27 296.13"/>
<path d="M330.43 291.91L330.43 291.44M330.43 291.44L330.9 290.97M330.9 290.97L331.37 290.5M331.37 290.5L331.84 290.5M331.84 290.5L331.84 290.03M331.84 290.03L332.31 290.03M332.31 290.03L332.78 290.03M332.78 290.03L333.25 290.03M333.25 290.03L333.71 290.03"/>
<path d="M80.66 296.13L80.19 296.13M80.19 296.13L79.72 296.6M79.72 296.6L79.72 297.07M79.72 297.07L79.25 297.07M79.25 297.07L78.78 297.54M78.78 297.54L78.78 298.01M78.78 298.01L78.31 298.01M78.31 298.01L77.84 298.48M77.84 298.48L77.84 298.95M77.84 298.95L77.37 298.95"/>
<path d="M548.27 291.91L548.74 291.91M548.74 291.91L549.21 291.91M549.21 291.91L549.68 291.91M549.68 291.91L550.15 291.91M550.15 291.91L550.62 291.44M550.62 291.44L551.09 291.44M551.09 291.44L551.09 290.97"/>
<path d="M54.84 289.09L55.31 289.09M55.31 289.09L55.31 289.56M55.31 289.56L55.78 289.56M55.78 289.56L56.25 289.56M56.25 289.56L56.72 290.03M56.72 290.03L57.19 290.03M57.19 290.03L57.66 290.03"/>
<path d="M91.93 199.42L91.93 206.93"/>
<path d="M91.93 238.38L91.93 245.9"/>
<path d="M108.36 245.9L108.36 238.38"/>
<path d="M108.36 206.93L108.36 199.42"/>
<path d="M132.77 199.42L132.77 206.93"/>
<path d="M132.77 238.38L132.77 245.9"/>
<path d="M92.4 236.98L83.01 227.59"/>
<path d="M112.12 249.65L108.36 245.9"/>
<path d="M148.74 245.9L148.74 238.38"/>
<path d="M148.74 206.93L148.74 199.42"/>
<path d="M88.17 195.19L91.93 199.42"/>
<path d="M133.24 236.98L123.85 227.59"/>
<path d="M173.15 199.42L173.15 206.93"/>
<path d="M173.15 238.38L173.15 245.9"/>
<path d="M92.4 207.87L83.01 217.26"/>
<path d="M108.36 199.42L112.12 195.19"/>
<path d="M107.89 207.87L117.28 217.26"/>
<path d="M152.49 249.65L148.74 245.9"/>
<path d="M91.93 245.9L88.17 249.65"/>
<path d="M133.24 207.87L123.85 217.26"/>
<path d="M128.55 195.19L132.77 199.42"/>
<path d="M173.62 236.98L164.23 227.59"/>
<path d="M148.27 207.87L157.66 217.26"/>
<path d="M107.89 236.98L117.28 227.59"/>
<path d="M148.74 199.42L152.49 195.19"/>
<path d="M169.39 195.19L173.15 199.42"/>
<path d="M229.96 245.9L229.96 238.38"/>
<path d="M229.96 206.93L229.96 199.42"/>
<path d="M132.77 245.9L128.55 249.65"/>
<path d="M173.62 207.87L164.23 217.26"/>
<path d="M148.27 236.98L157.66 227.59"/>
<path d="M233.71 249.65L229.96 245.9"/>
<path d="M173.15 245.9L169.39 249.65"/>
<path d="M254.84 236.98L245.45 227.59"/>
<path d="M229.49 207.87L238.88 217.26"/>
<path d="M274.56 249.65L270.33 245.9"/>
<path d="M254.37 199.42L254.37 206.93"/>
<path d="M254.37 238.38L254.37 245.9"/>
<path d="M229.96 199.42L233.71 195.19"/>
<path d="M512.12 236.51L499.44 236.51"/>
<path d="M471.74 236.51L458.6 236.51"/>
<path d="M350.15 236.51L337 236.51"/>
<path d="M309.3 236.51L296.63 236.51"/>
<path d="M268.93 236.51L255.78 236.51"/>
<path d="M147.33 236.51L134.18 236.51"/>
<path d="M106.48 236.51L93.81 236.51"/>
<path d="M250.62 195.19L254.37 199.42"/>
<path d="M270.33 245.9L270.33 238.38"/>
<path d="M270.33 206.93L270.33 199.42"/>
<path d="M254.84 207.87L245.45 217.26"/>
<path d="M229.49 236.98L238.88 227.59"/>
<path d="M270.33 199.42L274.56 195.19"/>
<path d="M522.92 227.59L488.65 227.59"/>
<path d="M482.07 227.59L448.27 227.59"/>
<path d="M360.48 227.59L326.67 227.59"/>
<path d="M320.1 227.59L285.83 227.59"/>
<path d="M279.25 227.59L245.45 227.59"/>
<path d="M157.66 227.59L123.85 227.59"/>
<path d="M117.28 227.59L83.01 227.59"/>
<path d="M83.01 217.26L117.28 217.26"/>
<path d="M123.85 217.26L157.66 217.26"/>
<path d="M245.45 217.26L279.25 217.26"/>
<path d="M285.83 217.26L320.1 217.26"/>
<path d="M326.67 217.26L360.48 217.26"/>
<path d="M448.27 217.26L482.07 217.26"/>
<path d="M488.65 217.26L522.92 217.26"/>
<path d="M295.22 236.98L285.83 227.59"/>
<path d="M269.86 207.87L279.25 217.26"/>
<path d="M314.94 249.65L311.18 245.9"/>
<path d="M294.75 199.42L294.75 206.93"/>
<path d="M294.75 238.38L294.75 245.9"/>
<path d="M254.37 245.9L250.62 249.65"/>
<path d="M295.22 207.87L285.83 217.26"/>
<path d="M93.81 208.34L106.48 208.34"/>
<path d="M134.18 208.34L147.33 208.34"/>
<path d="M255.78 208.34L268.93 208.34"/>
<path d="M296.63 208.34L309.3 208.34"/>
<path d="M337 208.34L350.15 208.34"/>
<path d="M458.6 208.34L471.74 208.34"/>
<path d="M499.44 208.34L512.12 208.34"/>
<path d="M290.99 195.19L294.75 199.42"/>
<path d="M336.06 236.98L326.67 227.59"/>
<path d="M310.71 207.87L320.1 217.26"/>
<path d="M355.31 249.65L351.56 245.9"/>
<path d="M311.18 245.9L311.18 238.38"/>
<path d="M311.18 206.93L311.18 199.42"/>
<path d="M269.86 236.98L279.25 227.59"/>
<path d="M311.18 199.42L314.94 195.19"/>
<path d="M331.37 195.19L335.59 199.42"/>
<path d="M335.59 199.42L335.59 206.93"/>
<path d="M335.59 238.38L335.59 245.9"/>
<path d="M294.75 245.9L290.99 249.65"/>
<path d="M336.06 207.87L326.67 217.26"/>
<path d="M310.71 236.98L320.1 227.59"/>
<path d="M351.56 199.42L355.31 195.19"/>
<path d="M376.44 236.98L367.05 227.59"/>
<path d="M351.09 207.87L360.48 217.26"/>
<path d="M351.56 245.9L351.56 238.38"/>
<path d="M351.56 206.93L351.56 199.42"/>
<path d="M335.59 245.9L331.37 249.65"/>
<path d="M372.21 195.19L375.97 199.42"/>
<path d="M436.53 249.65L432.78 245.9"/>
<path d="M375.97 199.42L375.97 206.93"/>
<path d="M375.97 238.38L375.97 245.9"/>
<path d="M376.44 207.87L367.05 217.26"/>
<path d="M351.09 236.98L360.48 227.59"/>
<path d="M375.97 245.9L372.21 249.65"/>
<path d="M432.78 199.42L436.53 195.19"/>
<path d="M457.66 236.98L448.27 227.59"/>
<path d="M432.31 207.87L441.7 217.26"/>
<path d="M477.38 249.65L473.15 245.9"/>
<path d="M453.43 195.19L457.19 199.42"/>
<path d="M498.04 236.98L488.65 227.59"/>
<path d="M472.68 207.87L482.07 217.26"/>
<path d="M517.75 249.65L514 245.9"/>
<path d="M432.78 245.9L432.78 238.38"/>
<path d="M432.78 206.93L432.78 199.42"/>
<path d="M457.66 207.87L448.27 217.26"/>
<path d="M432.31 236.98L441.7 227.59"/>
<path d="M473.15 199.42L477.38 195.19"/>
<path d="M457.19 245.9L453.43 249.65"/>
<path d="M498.04 207.87L488.65 217.26"/>
<path d="M472.68 236.98L482.07 227.59"/>
<path d="M514 199.42L517.75 195.19"/>
<path d="M493.81 195.19L497.57 199.42"/>
<path d="M513.53 207.87L522.92 217.26"/>
<path d="M457.19 199.42L457.19 206.93"/>
<path d="M457.19 238.38L457.19 245.9"/>
<path d="M473.15 245.9L473.15 238.38"/>
<path d="M473.15 206.93L473.15 199.42"/>
<path d="M497.57 245.9L493.81 249.65"/>
<path d="M513.53 236.98L522.92 227.59"/>
<path d="M497.57 199.42L497.57 206.93"/>
<path d="M497.57 238.38L497.57 245.9"/>
<path d="M514 245.9L514 238.38"/>
<path d="M514 206.93L514 199.42"/>
<path d="M106.48 208.34L107.89 207.87M107.89 207.87L108.36 206.93"/>
<path d="M91.93 206.93L92.4 207.87M92.4 207.87L93.81 208.34"/>
<path d="M147.33 208.34L148.27 207.87M148.27 207.87L148.74 206.93"/>
<path d="M132.77 206.93L133.24 207.87M133.24 207.87L134.18 208.34"/>
<path d="M173.15 206.93L173.62 207.87M173.62 207.87L174.56 208.34"/>
<path d="M93.81 236.51L92.4 236.98M92.4 236.98L91.93 238.38"/>
<path d="M108.36 238.38L107.89 236.98M107.89 236.98L106.48 236.51"/>
<path d="M134.18 236.51L133.24 236.98M133.24 236.98L132.77 238.38"/>
<path d="M148.74 238.38L148.27 236.98M148.27 236.98L147.33 236.51"/>
<path d="M174.56 236.51L173.62 236.98M173.62 236.98L173.15 238.38"/>
<path d="M228.55 208.34L229.49 207.87M229.49 207.87L229.96 206.93"/>
<path d="M268.93 208.34L269.86 207.87M269.86 207.87L270.33 206.93"/>
<path d="M254.37 206.93L254.84 207.87M254.84 207.87L255.78 208.34"/>
<path d="M294.75 206.93L295.22 207.87M295.22 207.87L296.63 208.34"/>
<path d="M296.63 236.51L295.22 236.98M295.22 236.98L294.75 238.38"/>
<path d="M270.33 238.38L269.86 236.98M269.86 236.98L268.93 236.51"/>
<path d="M255.78 236.51L254.84 236.98M254.84 236.98L254.37 238.38"/>
<path d="M229.96 238.38L229.49 236.98M229.49 236.98L228.55 236.51"/>
<path d="M335.59 206.93L336.06 207.87M336.06 207.87L337 208.34"/>
<path d="M350.15 208.34L351.09 207.87M351.09 207.87L351.56 206.93"/>
<path d="M351.56 238.38L351.09 236.98M351.09 236.98L350.15 236.51"/>
<path d="M337 236.51L336.06 236.98M336.06 236.98L335.59 238.38"/>
<path d="M309.3 208.34L310.71 207.87M310.71 207.87L311.18 206.93"/>
<path d="M375.97 206.93L376.44 207.87M376.44 207.87L377.38 208.34"/>
<path d="M377.38 236.51L376.44 236.98M376.44 236.98L375.97 238.38"/>
<path d="M311.18 238.38L310.71 236.98M310.71 236.98L309.3 236.51"/>
<path d="M514 238.38L513.53 236.98M513.53 236.98L512.12 236.51"/>
<path d="M499.44 236.51L498.04 236.98M498.04 236.98L497.57 238.38"/>
<path d="M473.15 238.38L472.68 236.98M472.68 236.98L471.74 236.51"/>
<path d="M458.6 236.51L457.66 236.98M457.66 236.98L457.19 238.38"/>
<path d="M431.37 208.34L432.31 207.87M432.31 207.87L432.78 206.93"/>
<path d="M432.78 238.38L432.31 236.98M432.31 236.98L431.37 236.51"/>
<path d="M471.74 208.34L472.68 207.87M472.68 207.87L473.15 206.93"/>
<path d="M457.19 206.93L457.66 207.87M457.66 207.87L458.6 208.34"/>
<path d="M512.12 208.34L513.53 207.87M513.53 207.87L514 206.93"/>
<path d="M497.57 206.93L498.04 207.87M498.04 207.87L499.44 208.34"/>
</g>
</g>
</svg>
