<?xml version="1.0" standalone="no"?><svg xmlns="http://www.w3.org/2000/svg" width="600.000" height="450.000" viewBox="0.0 0.0 600.000 450.000" version="1.1">
<title>Acme Converter - Post-processed with EDS-Designer: 14.44 (info@symca.com)</title>
<desc>Acme Converter - Post-processed with EDS-Designer: 14.44 (info@symca.com)</desc>
<g id="EDS_STYLE_GROUP" fill="none" stroke="black" stroke-width="1.0">
<g id="0" display="visible">
<path d="M255.24 408.97L255.24 383.03M256.47 383.03L256.47 408.97M251.53 383.03L266.35 383.03M266.35 383.03L270.05 384.27M270.05 384.27L271.29 385.5M271.29 385.5L272.52 387.97M272.52 387.97L272.52 390.44M272.52 390.44L271.29 392.91M271.29 392.91L270.05 394.15M270.05 394.15L266.35 395.38M266.35 383.03L268.82 384.27M268.82 384.27L270.05 385.5M270.05 385.5L271.29 387.97M271.29 387.97L271.29 390.44M271.29 390.44L270.05 392.91M270.05 392.91L268.82 394.15M268.82 394.15L266.35 395.38M256.47 395.38L266.35 395.38M266.35 395.38L270.05 396.62M270.05 396.62L271.29 397.85M271.29 397.85L272.52 400.32M272.52 400.32L272.52 404.03M272.52 404.03L271.29 406.5M271.29 406.5L270.05 407.73M270.05 407.73L266.35 408.97M266.35 408.97L251.53 408.97M266.35 395.38L268.82 396.62M268.82 396.62L270.05 397.85M270.05 397.85L271.29 400.32M271.29 400.32L271.29 404.03M271.29 404.03L270.05 406.5M270.05 406.5L268.82 407.73M268.82 407.73L266.35 408.97M282.4 408.97L282.4 383.03M283.64 383.03L283.64 408.97M278.7 383.03L287.34 383.03M278.7 408.97L297.22 408.97M297.22 408.97L297.22 401.56M297.22 401.56L295.99 408.97M304.63 383.03L304.63 401.56M304.63 401.56L305.87 405.26M305.87 405.26L308.34 407.73M308.34 407.73L312.04 408.97M312.04 408.97L314.51 408.97M314.51 408.97L318.22 407.73M318.22 407.73L320.69 405.26M320.69 405.26L321.92 401.56M321.92 401.56L321.92 383.03M305.87 383.03L305.87 401.56M305.87 401.56L307.1 405.26M307.1 405.26L309.57 407.73M309.57 407.73L312.04 408.97M300.93 383.03L309.57 383.03M318.22 383.03L325.62 383.03M334.27 408.97L334.27 383.03M335.5 383.03L335.5 408.97M342.91 390.44L342.91 400.32M330.56 383.03L350.32 383.03M350.32 383.03L350.32 390.44M350.32 390.44L349.09 383.03M335.5 395.38L342.91 395.38M330.56 408.97L350.32 408.97M350.32 408.97L350.32 401.56M350.32 401.56L349.09 408.97"/>
<path d="M268.96 289.78L267.98 289.78"/>
<path d="M267.98 289.78L268.96 290.29"/>
<path d="M268.96 289.78L268.96 290.29"/>
<path d="M194.99 289.78L194.99 314.88"/>
<path d="M242.77 314.88L194.99 314.88"/>
<path d="M216.62 289.78L194.99 289.78"/>
<path d="M406.83 141.44L406.83 166.55"/>
<path d="M406.83 166.55L385.19 166.55"/>
<path d="M406.83 141.44L359.05 141.44"/>
<path d="M266.66 129.53L248.32 137.97M248.32 137.97L231.95 149.77M231.95 149.77L218.16 164.5M218.16 164.5L207.45 181.61M207.45 181.61L200.24 200.46M200.24 200.46L196.79 220.35M196.79 220.35L197.24 240.53M197.24 240.53L201.55 260.24M201.55 260.24L209.58 278.76M209.58 278.76L221.02 295.39M221.02 295.39L235.45 309.5M235.45 309.5L252.32 320.57M252.32 320.57L271.01 328.2M271.01 328.2L290.82 332.08M290.82 332.08L311 332.08M311 332.08L330.8 328.2M330.8 328.2L349.49 320.57M349.49 320.57L366.37 309.5M366.37 309.5L380.79 295.39M380.79 295.39L392.23 278.76M392.23 278.76L400.26 260.24M400.26 260.24L404.58 240.53M404.58 240.53L405.02 220.35M405.02 220.35L401.57 200.46M401.57 200.46L394.36 181.61M394.36 181.61L383.66 164.5M383.66 164.5L369.87 149.77M369.87 149.77L353.49 137.97M353.49 137.97L335.16 129.53"/>
<path d="M406.83 238.66L405.31 239.23M405.31 239.23L404.56 240.67"/>
<path d="M414.44 238.66L406.83 238.66"/>
<path d="M414.44 238.66L415.87 238.28M415.87 238.28L416.91 237.23M416.91 237.23L417.29 235.81"/>
<path d="M417.29 220.52L417.29 235.81"/>
<path d="M417.29 220.52L416.91 219.09M416.91 219.09L415.87 218.05M415.87 218.05L414.44 217.66"/>
<path d="M406.83 217.66L414.44 217.66"/>
<path d="M404.56 215.66L405.31 217.09M405.31 217.09L406.83 217.66"/>
<path d="M394.88 336.86L409.21 328.28M409.21 328.28L421.23 316.67M421.23 316.67L430.29 302.63M430.29 302.63L435.92 286.9M435.92 286.9L437.83 270.31"/>
<path d="M437.83 125.47L437.83 270.31"/>
<path d="M437.83 125.47L386.49 125.47"/>
<path d="M386.49 125.47L386.49 76.52"/>
<path d="M386.49 76.52L384.96 68.31M384.96 68.31L380.59 61.21M380.59 61.21L373.95 56.15"/>
<path d="M373.95 56.15L360.57 50.13M360.57 50.13L346.7 45.35"/>
<path d="M346.7 45.35L343.92 45.42M343.92 45.42L341.69 47.08M341.69 47.08L340.84 49.73"/>
<path d="M340.84 49.73L340.84 53.58"/>
<path d="M340.84 53.58L342.18 56.81M342.18 56.81L345.41 58.15"/>
<path d="M345.41 58.15L347.69 58.15"/>
<path d="M363.66 74.12L362.45 68.01M362.45 68.01L358.99 62.83M358.99 62.83L353.8 59.36M353.8 59.36L347.69 58.15"/>
<path d="M363.67 74.12L363.67 125.47"/>
<path d="M363.67 125.47L337.44 125.47"/>
<path d="M337.44 125.47L337.44 128.01"/>
<path d="M337.44 128.01L338.03 129.93M338.03 129.93L339.59 131.19"/>
<path d="M379.64 298.15L379.64 296.73"/>
<path d="M379.64 298.15L378.38 298.15"/>
<path d="M262.22 131.19L263.79 129.93M263.79 129.93L264.38 128.01"/>
<path d="M264.38 125.47L264.38 128.01"/>
<path d="M264.38 125.47L238.15 125.47"/>
<path d="M238.15 125.47L238.15 74.12"/>
<path d="M254.13 58.15L248.01 59.36M248.01 59.36L242.83 62.83M242.83 62.83L239.37 68.01M239.37 68.01L238.15 74.12"/>
<path d="M254.13 58.15L256.41 58.15"/>
<path d="M256.41 58.15L258.69 57.54M258.69 57.54L260.36 55.86M260.36 55.86L260.97 53.58"/>
<path d="M260.97 53.58L260.97 49.73"/>
<path d="M260.97 49.73L260.12 47.08M260.12 47.08L257.9 45.42M257.9 45.42L255.12 45.35"/>
<path d="M255.12 45.35L241.24 50.13M241.24 50.13L227.86 56.15"/>
<path d="M227.86 56.15L221.23 61.21M221.23 61.21L216.85 68.31M216.85 68.31L215.33 76.52"/>
<path d="M215.33 76.52L215.33 125.47"/>
<path d="M215.33 125.47L163.98 125.47"/>
<path d="M163.98 270.31L163.98 125.47"/>
<path d="M163.98 270.31L165.89 286.9M165.89 286.9L171.53 302.63M171.53 302.63L180.59 316.67M180.59 316.67L192.6 328.28M192.6 328.28L206.94 336.86"/>
<path d="M206.94 336.86L232.78 346.7M232.78 346.7L259.63 353.34M259.63 353.34L287.08 356.68M287.08 356.68L314.73 356.68M314.73 356.68L342.19 353.34M342.19 353.34L369.03 346.7M369.03 346.7L394.88 336.86"/>
<path d="M337.44 128.01L332.86 126.3"/>
<path d="M332.86 126.3L333.49 128.28M333.49 128.28L335.16 129.53"/>
<path d="M335.16 129.53L319.73 125.47"/>
<path d="M319.74 125.47L319.32 130.03"/>
<path d="M282.5 130.03L263.64 135.54M263.64 135.54L246.23 144.63M246.23 144.63L230.93 156.95M230.93 156.95L218.34 172.03M218.34 172.03L208.95 189.28M208.95 189.28L203.11 208.04M203.11 208.04L201.07 227.58M201.07 227.58L202.89 247.14M202.89 247.14L208.5 265.97M208.5 265.97L217.69 283.33M217.69 283.33L230.1 298.56M230.1 298.56L245.26 311.06M245.26 311.06L262.57 320.35M262.57 320.35L281.36 326.07M281.36 326.07L300.91 328M300.91 328L320.46 326.07M320.46 326.07L339.25 320.35M339.25 320.35L356.56 311.06M356.56 311.06L371.71 298.56M371.71 298.56L384.12 283.33M384.12 283.33L393.32 265.97M393.32 265.97L398.93 247.14M398.93 247.14L400.75 227.58M400.75 227.58L398.7 208.04M398.7 208.04L392.87 189.28M392.87 189.28L383.48 172.03M383.48 172.03L370.89 156.95M370.89 156.95L355.59 144.63M355.59 144.63L338.17 135.54M338.17 135.54L319.32 130.03"/>
<path d="M194.99 217.66L196.5 217.09M196.5 217.09L197.25 215.66"/>
<path d="M187.37 217.66L194.99 217.66"/>
<path d="M187.37 217.66L185.36 218.5M185.36 218.5L184.52 220.52"/>
<path d="M184.52 235.81L184.52 220.52"/>
<path d="M184.52 235.81L185.36 237.82M185.36 237.82L187.37 238.66"/>
<path d="M194.99 238.66L187.37 238.66"/>
<path d="M197.25 240.67L196.5 239.23M196.5 239.23L194.99 238.66"/>
<path d="M290.64 334.11L290.06 332.59M290.06 332.59L288.63 331.84"/>
<path d="M290.64 341.7L290.64 334.11"/>
<path d="M290.64 341.7L291.02 343.12M291.02 343.12L292.06 344.17M292.06 344.17L293.49 344.55"/>
<path d="M308.32 344.55L293.49 344.55"/>
<path d="M308.32 344.55L309.75 344.17M309.75 344.17L310.8 343.12M310.8 343.12L311.18 341.7"/>
<path d="M311.18 334.11L311.18 341.7"/>
<path d="M313.19 331.84L311.75 332.59M311.75 332.59L311.18 334.11"/>
<path d="M267.61 125.47L264.38 125.47"/>
<path d="M337.44 125.47L334.2 125.47"/>
<path d="M266.86 91.24L264.38 91.24"/>
<path d="M266.95 92.31L266.86 91.24"/>
<path d="M267.7 108.07L266.96 92.31"/>
<path d="M267.81 116.34L267.7 108.07"/>
<path d="M267.61 125.47L267.63 125.44M267.63 125.44L267.64 125.38M267.64 125.38L267.71 124.23M267.71 124.23L267.81 116.34"/>
<path d="M268.96 126.3L264.38 128.01"/>
<path d="M268.96 126.3L268.96 112.2"/>
<path d="M268.95 112.2L268.82 101.86"/>
<path d="M267.09 64.92L268.81 101.86"/>
<path d="M267.08 64.92L266.99 63.85"/>
<path d="M264.38 63.85L266.98 63.85"/>
<path d="M264.38 63.85L264.38 69.56"/>
<path d="M264.38 69.56L264.38 91.24"/>
<path d="M266.66 129.53L268.32 128.28M268.32 128.28L268.96 126.3"/>
<path d="M337.44 63.85L337.44 69.56"/>
<path d="M334.83 63.85L337.44 63.85"/>
<path d="M334.83 63.85L334.74 64.92"/>
<path d="M334.73 64.92L333 101.86"/>
<path d="M332.99 101.86L332.86 112.2"/>
<path d="M332.86 126.3L332.86 112.2"/>
<path d="M334.2 125.47L334.19 125.44M334.19 125.44L334.17 125.38M334.17 125.38L334.1 124.23M334.1 124.23L334 116.34"/>
<path d="M334.11 108.07L334.01 116.34"/>
<path d="M334.12 108.07L334.85 92.31"/>
<path d="M334.95 91.24L334.86 92.31"/>
<path d="M334.96 91.24L337.44 91.24"/>
<path d="M337.44 69.56L337.44 91.24"/>
<path d="M282.08 125.47L266.66 129.53"/>
<path d="M282.08 125.47L319.74 125.47"/>
<path d="M332.86 112.2L268.96 112.2"/>
<path d="M282.5 130.03L319.32 130.03"/>
<path d="M282.08 125.47L282.5 130.03"/>
<path d="M268.96 297.62L284.55 302.84M284.55 302.84L300.91 304.61M300.91 304.61L317.26 302.84M317.26 302.84L332.86 297.62"/>
<path d="M268.96 158.71L254.09 167.72M254.09 167.72L241.64 179.87M241.64 179.87L232.26 194.51M232.26 194.51L226.43 210.89M226.43 210.89L224.46 228.16M224.46 228.16L226.43 245.44M226.43 245.44L232.26 261.82M232.26 261.82L241.64 276.46M241.64 276.46L254.09 288.6M254.09 288.6L268.96 297.62"/>
<path d="M332.86 158.71L317.26 153.48M317.26 153.48L300.91 151.71M300.91 151.71L284.55 153.48M284.55 153.48L268.96 158.71"/>
<path d="M332.86 297.62L347.72 288.6M347.72 288.6L360.17 276.46M360.17 276.46L369.55 261.82M369.55 261.82L375.38 245.44M375.38 245.44L377.36 228.16M377.36 228.16L375.38 210.89M375.38 210.89L369.55 194.51M369.55 194.51L360.17 179.87M360.17 179.87L347.72 167.72M347.72 167.72L332.86 158.71"/>
<path d="M249.56 74.12L249.56 91.24"/>
<path d="M249.56 91.24L264.38 91.24"/>
<path d="M254.13 69.56L264.38 69.56"/>
<path d="M254.13 69.56L251.84 70.17M251.84 70.17L250.17 71.84M250.17 71.84L249.56 74.12"/>
<path d="M334.83 63.85L266.98 63.85"/>
<path d="M334.73 64.92L267.09 64.92"/>
<path d="M333 101.86L268.81 101.86"/>
<path d="M337.44 91.24L352.25 91.24"/>
<path d="M337.44 69.56L347.69 69.56"/>
<path d="M352.25 74.12L352.25 91.24"/>
<path d="M352.25 74.12L351.64 71.84M351.64 71.84L349.97 70.17M349.97 70.17L347.69 69.56"/>
<path d="M332.86 283.5L344.76 274.64M344.76 274.64L354.29 263.28M354.29 263.28L360.95 250.02M360.95 250.02L364.37 235.58M364.37 235.58L364.37 220.74M364.37 220.74L360.95 206.31M360.95 206.31L354.29 193.05M354.29 193.05L344.76 181.68M344.76 181.68L332.86 172.82"/>
<path d="M332.86 297.62L332.86 283.5"/>
<path d="M332.86 172.82L332.86 158.71"/>
<path d="M268.96 172.82L257.06 181.68M257.06 181.68L247.52 193.05M247.52 193.05L240.86 206.31M240.86 206.31L237.44 220.74M237.44 220.74L237.44 235.58M237.44 235.58L240.86 250.02M240.86 250.02L247.52 263.28M247.52 263.28L257.06 274.64M257.06 274.64L268.96 283.5"/>
<path d="M268.96 158.71L268.96 172.82"/>
<path d="M268.96 283.5L268.96 289.78"/>
<path d="M268.96 290.29L268.96 297.62"/>
<path d="M272.38 63.85L272.38 61.57"/>
<path d="M272.38 59.29L272.38 61.57"/>
<path d="M272.38 57.01L272.38 59.29"/>
<path d="M272.38 57.01L272.38 45.6"/>
<path d="M329.43 59.29L329.43 57.01"/>
<path d="M329.43 59.29L329.43 61.57"/>
<path d="M329.43 61.57L329.43 63.85"/>
<path d="M329.43 57.01L329.43 45.6"/>
<path d="M272.38 61.57L278.66 61.57"/>
<path d="M323.16 61.57L329.43 61.57"/>
<path d="M323.16 43.25L323.16 63.85"/>
<path d="M323.16 43.25L323.16 41.03"/>
<path d="M278.66 43.25L278.66 63.85"/>
<path d="M323.16 43.25L278.66 43.25"/>
<path d="M278.66 41.03L278.66 43.25"/>
<path d="M329.43 57.01L323.16 57.01"/>
<path d="M278.66 57.01L272.38 57.01"/>
<path d="M329.43 59.29L323.16 59.29"/>
<path d="M278.66 59.29L272.38 59.29"/>
<path d="M323.16 41.03L278.66 41.03"/>
<path d="M272.38 45.6L278.66 45.6"/>
<path d="M323.16 45.6L329.43 45.6"/>
<path d="M459.07 180.76L461.29 179.65M461.29 179.65L464.62 176.32M464.62 176.32L464.62 199.62"/>
<path d="M141.02 179.08L129.92 194.61M129.92 194.61L146.56 194.61M141.02 179.08L141.02 202.37"/>
<path d="M456.35 252.7L456.35 251.59M456.35 251.59L457.46 249.37M457.46 249.37L458.57 248.26M458.57 248.26L460.79 247.15M460.79 247.15L465.23 247.15M465.23 247.15L467.45 248.26M467.45 248.26L468.56 249.37M468.56 249.37L469.66 251.59M469.66 251.59L469.66 253.81M469.66 253.81L468.56 256.03M468.56 256.03L466.34 259.36M466.34 259.36L455.24 270.45M455.24 270.45L470.77 270.45"/>
<path d="M131.42 253.75L143.62 253.75M143.62 253.75L136.97 262.63M136.97 262.63L140.3 262.63M140.3 262.63L142.51 263.73M142.51 263.73L143.62 264.84M143.62 264.84L144.73 268.17M144.73 268.17L144.73 270.39M144.73 270.39L143.62 273.72M143.62 273.72L141.4 275.94M141.4 275.94L138.08 277.05M138.08 277.05L134.75 277.05M134.75 277.05L131.42 275.94M131.42 275.94L130.31 274.83M130.31 274.83L129.2 272.61"/>
<path d="M263.19 190.44L258.81 197.4M258.81 197.4L257.89 205.58M257.89 205.58L260.61 213.34M260.61 213.34L266.43 219.16M266.43 219.16L274.19 221.87M274.19 221.87L282.37 220.95M282.37 220.95L289.33 216.58M289.33 216.58L293.71 209.61M293.71 209.61L294.63 201.44M294.63 201.44L291.91 193.67M291.91 193.67L286.1 187.85M286.1 187.85L278.33 185.14M278.33 185.14L270.16 186.06M270.16 186.06L263.19 190.44"/>
<path d="M289.33 265.87L293.71 258.9M293.71 258.9L294.63 250.73M294.63 250.73L291.91 242.96M291.91 242.96L286.1 237.15M286.1 237.15L278.33 234.43M278.33 234.43L270.16 235.35M270.16 235.35L263.19 239.73M263.19 239.73L258.81 246.69M258.81 246.69L257.89 254.87M257.89 254.87L260.61 262.63M260.61 262.63L266.43 268.45M266.43 268.45L274.19 271.17M274.19 271.17L282.37 270.25M282.37 270.25L289.33 265.87"/>
<path d="M338.63 265.87L343 258.9M343 258.9L343.92 250.73M343.92 250.73L341.21 242.96M341.21 242.96L335.39 237.15M335.39 237.15L327.62 234.43M327.62 234.43L319.45 235.35M319.45 235.35L312.48 239.73M312.48 239.73L308.11 246.69M308.11 246.69L307.19 254.87M307.19 254.87L309.9 262.63M309.9 262.63L315.72 268.45M315.72 268.45L323.48 271.17M323.48 271.17L331.66 270.25M331.66 270.25L338.63 265.87"/>
<path d="M338.63 216.58L343 209.61M343 209.61L343.92 201.44M343.92 201.44L341.21 193.67M341.21 193.67L335.39 187.85M335.39 187.85L327.62 185.14M327.62 185.14L319.45 186.06M319.45 186.06L312.48 190.44M312.48 190.44L308.11 197.4M308.11 197.4L307.19 205.58M307.19 205.58L309.9 213.34M309.9 213.34L315.72 219.16M315.72 219.16L323.48 221.87M323.48 221.87L331.66 220.95M331.66 220.95L338.63 216.58"/>
<path d="M333.69 203.53L332.32 199.01M332.32 199.01L328.67 196.01M328.67 196.01L323.97 195.55M323.97 195.55L319.8 197.77"/>
<path d="M284.4 203.53L283.02 199.01M283.02 199.01L279.37 196.01M279.37 196.01L274.67 195.55M274.67 195.55L270.51 197.77"/>
<path d="M284.4 252.82L283.02 248.3M283.02 248.3L279.37 245.3M279.37 245.3L274.67 244.84M274.67 244.84L270.51 247.07"/>
<path d="M270.51 197.77L268.2 202.46M268.2 202.46L269.22 207.59M269.22 207.59L273.15 211.04M273.15 211.04L278.37 211.38M278.37 211.38L282.71 208.47M282.71 208.47L284.4 203.52"/>
<path d="M284.4 203.52L283.02 199M283.02 199L279.37 196.01M279.37 196.01L274.67 195.54M274.67 195.54L270.51 197.77"/>
<path d="M284.4 252.81L283.02 248.3M283.02 248.3L279.37 245.3M279.37 245.3L274.67 244.84M274.67 244.84L270.51 247.06"/>
<path d="M282.01 258.57L283.78 255.93M283.78 255.93L284.4 252.81"/>
<path d="M270.51 247.06L268.23 251.54M268.23 251.54L269.01 256.51M269.01 256.51L272.57 260.06M272.57 260.06L277.53 260.85M277.53 260.85L282.01 258.57"/>
<path d="M333.69 203.52L332.32 199M332.32 199L328.67 196.01M328.67 196.01L323.97 195.54M323.97 195.54L319.8 197.77"/>
<path d="M331.31 209.27L333.07 206.63M333.07 206.63L333.69 203.52"/>
<path d="M319.8 197.77L317.52 202.25M317.52 202.25L318.31 207.21M318.31 207.21L321.86 210.77M321.86 210.77L326.83 211.56M326.83 211.56L331.31 209.27"/>
<path d="M333.69 252.8L332.32 248.28M332.32 248.28L328.67 245.29M328.67 245.29L323.97 244.83M323.97 244.83L319.8 247.05"/>
<path d="M333.69 252.8L332.32 248.28M332.32 248.28L328.67 245.28M328.67 245.28L323.97 244.82M323.97 244.82L319.8 247.05"/>
<path d="M331.31 258.55L333.07 255.91M333.07 255.91L333.69 252.8"/>
<path d="M319.8 247.05L317.52 251.53M317.52 251.53L318.31 256.49M318.31 256.49L321.86 260.05M321.86 260.05L326.83 260.83M326.83 260.83L331.31 258.55"/>
</g>
</g>
</svg>
