<?xml version="1.0" standalone="no"?><svg xmlns="http://www.w3.org/2000/svg" width="600.000" height="450.000" viewBox="0.0 0.0 600.000 450.000" version="1.1">
<title>Acme Converter - Post-processed with EDS-Designer: 14.44 (info@symca.com)</title>
<desc>Acme Converter - Post-processed with EDS-Designer: 14.44 (info@symca.com)</desc>
<g id="EDS_STYLE_GROUP" fill="none" stroke="black" stroke-width="1.0">
<g id="0" display="visible">
<path d="M240.58 385.6L245.03 408.96M241.69 385.6L245.03 403.4M249.48 385.6L245.03 408.96M249.48 385.6L253.92 408.96M250.59 385.6L253.92 403.4M258.37 385.6L253.92 408.96M237.24 385.6L245.03 385.6M255.04 385.6L261.71 385.6M267.27 408.96L267.27 385.6M268.39 385.6L268.39 408.96M281.73 408.96L281.73 385.6M282.85 385.6L282.85 408.96M263.94 385.6L271.72 385.6M278.4 385.6L286.18 385.6M268.39 396.72L281.73 396.72M263.94 408.96L271.72 408.96M278.4 408.96L286.18 408.96M293.97 408.96L293.97 385.6M295.08 385.6L295.08 408.96M290.63 385.6L298.42 385.6M290.63 408.96L298.42 408.96M310.65 408.96L310.65 385.6M311.77 385.6L311.77 408.96M303.98 385.6L302.87 392.27M302.87 392.27L302.87 385.6M302.87 385.6L319.55 385.6M319.55 385.6L319.55 392.27M319.55 392.27L318.44 385.6M307.32 408.96L315.1 408.96M327.34 408.96L327.34 385.6M328.45 385.6L328.45 408.96M335.13 392.27L335.13 401.17M324 385.6L341.8 385.6M341.8 385.6L341.8 392.27M341.8 392.27L340.69 385.6M328.45 396.72L335.13 396.72M324 408.96L341.8 408.96M341.8 408.96L341.8 402.29M341.8 402.29L340.69 408.96"/>
<path d="M251.42 308.57L251.93 301.72"/>
<path d="M255.12 308.57L254.63 301.82"/>
<path d="M255.18 156.78L254.67 163.61"/>
<path d="M251.48 156.78L251.97 163.52"/>
<path d="M190.03 234.02L192.8 249.72M192.8 249.72L199.28 264.28M199.28 264.28L209.09 276.85M209.09 276.85L221.65 286.67M221.65 286.67L236.21 293.16M236.21 293.16L251.91 295.95"/>
<path d="M254.64 295.95L270.33 293.18M270.33 293.18L284.9 286.69M284.9 286.69L297.46 276.88M297.46 276.88L307.29 264.33M307.29 264.33L313.78 249.77M313.78 249.77L316.56 234.07"/>
<path d="M316.56 231.34L313.8 215.64M313.8 215.64L307.31 201.08M307.31 201.08L297.5 188.51M297.5 188.51L284.94 178.69M284.94 178.69L270.39 172.2M270.39 172.2L254.69 169.42"/>
<path d="M251.96 169.41L236.26 172.18M236.26 172.18L221.7 178.67M221.7 178.67L209.13 188.48M209.13 188.48L199.31 201.03M199.31 201.03L192.82 215.59M192.82 215.59L190.03 231.29"/>
<path d="M307.61 232.67L307.61 232.72"/>
<path d="M461.11 159.12L459.74 155.82"/>
<path d="M461.11 159.12L461.11 160.77"/>
<path d="M459.75 309.39L460.76 307.87M460.76 307.87L461.11 306.08"/>
<path d="M276.07 45.73L282.49 45.73"/>
<path d="M224.09 45.73L230.52 45.73"/>
<path d="M461.11 306.08L461.11 304.43"/>
<path d="M355.46 323.19L311.67 323.18"/>
<path d="M355.46 323.19L357.52 322.34M357.52 322.34L358.38 320.28"/>
<path d="M358.39 300.42L358.38 320.28"/>
<path d="M358.39 300.42L357.53 298.36M357.53 298.36L355.47 297.5"/>
<path d="M343.24 297.49L355.47 297.5"/>
<path d="M341.31 293.83L340.92 295.44M340.92 295.44L341.69 296.91M341.69 296.91L343.24 297.49"/>
<path d="M310.42 323.54L322.02 315.05M322.02 315.05L332.38 305.09M332.38 305.09L341.31 293.83"/>
<path d="M311.67 323.18L310.42 323.54"/>
<path d="M165.28 172.6L165.68 171M165.68 171L164.91 169.53M164.91 169.53L163.36 168.94"/>
<path d="M196.17 142.9L184.57 151.38M184.57 151.38L174.21 161.35M174.21 161.35L165.28 172.6"/>
<path d="M194.92 143.26L196.17 142.9"/>
<path d="M151.14 143.24L194.92 143.26"/>
<path d="M151.14 143.24L149.07 144.1M149.07 144.1L148.22 146.16"/>
<path d="M148.21 166.02L148.22 146.16"/>
<path d="M148.21 166.02L149.06 168.08M149.06 168.08L151.13 168.94"/>
<path d="M163.36 168.94L151.13 168.94"/>
<path d="M220.6 299.74L232.14 304.47M232.14 304.47L244.3 307.3"/>
<path d="M220.6 300L232.14 304.71M232.14 304.71L244.28 307.53"/>
<path d="M262.24 307.31L274.42 304.48M274.42 304.48L286 299.73"/>
<path d="M262.25 307.54L274.43 304.72M274.43 304.72L286 300"/>
<path d="M286 165.59L274.45 160.86M274.45 160.86L262.3 158.03"/>
<path d="M286 165.33L274.46 160.62M274.46 160.62L262.32 157.79"/>
<path d="M244.36 158.02L232.17 160.85M232.17 160.85L220.59 165.59"/>
<path d="M244.34 157.79L232.17 160.61M232.17 160.61L220.59 165.33"/>
<path d="M220.6 295.28L235.01 301.22M235.01 301.22L250.35 304.01"/>
<path d="M244.28 307.53L251 308.44M251 308.44L251.36 308.53M251.36 308.53L251.4 308.55M251.4 308.55L251.42 308.57"/>
<path d="M244.28 307.53L244.3 307.3"/>
<path d="M244.3 307.31L250.34 303.99"/>
<path d="M251.93 301.72L251.97 301.28"/>
<path d="M250.34 304L251.94 301.73"/>
<path d="M220.6 300.43L235.59 306.09M235.59 306.09L251.42 308.57"/>
<path d="M255.12 308.57L255.13 308.55M255.13 308.55L255.15 308.54M255.15 308.54L255.25 308.5M255.25 308.5L256.44 308.31M256.44 308.31L262.25 307.54"/>
<path d="M256.2 304L262.23 307.32"/>
<path d="M262.25 307.54L262.24 307.31"/>
<path d="M256.19 304.01L271.56 301.23M271.56 301.23L286 295.28"/>
<path d="M254.56 301.28L255.05 302.84M255.05 302.84L256.2 304"/>
<path d="M255.12 308.58L270.98 306.09M270.98 306.09L286 300.43"/>
<path d="M286 170.04L271.58 164.11M271.58 164.11L256.25 161.32"/>
<path d="M262.32 157.79L255.6 156.9M255.6 156.9L255.24 156.82M255.24 156.82L255.19 156.8M255.19 156.8L255.18 156.77"/>
<path d="M262.32 157.79L262.3 158.03"/>
<path d="M262.29 158.01L256.26 161.33"/>
<path d="M254.67 163.61L254.63 164.06"/>
<path d="M256.25 161.33L254.66 163.61"/>
<path d="M286 164.92L271.01 159.26M271.01 159.26L255.18 156.78"/>
<path d="M251.48 156.77L251.44 156.81M251.44 156.81L251.34 156.84M251.34 156.84L250.16 157.02M250.16 157.02L244.34 157.79"/>
<path d="M250.4 161.33L244.36 158.01"/>
<path d="M244.34 157.79L244.36 158.02"/>
<path d="M250.41 161.32L235.04 164.1M235.04 164.1L220.59 170.04"/>
<path d="M252.04 164.05L251.54 162.5M251.54 162.5L250.4 161.33"/>
<path d="M251.48 156.77L235.62 159.25M235.62 159.25L220.59 164.92"/>
<path d="M271.22 203.88L269.05 208.13M269.05 208.13L269.8 212.83M269.8 212.83L273.16 216.2M273.16 216.2L277.87 216.95M277.87 216.95L282.12 214.79"/>
<path d="M282.12 214.79L283.79 212.29M283.79 212.29L284.38 209.34"/>
<path d="M284.38 209.34L283.08 205.06M283.08 205.06L279.62 202.21M279.62 202.21L275.17 201.77M275.17 201.77L271.22 203.88"/>
<path d="M271.2 250.6L269.03 254.84M269.03 254.84L269.78 259.55M269.78 259.55L273.14 262.92M273.14 262.92L277.85 263.67M277.85 263.67L282.1 261.51"/>
<path d="M282.1 261.51L283.77 259.01M283.77 259.01L284.36 256.06"/>
<path d="M284.36 256.06L283.06 251.77M283.06 251.77L279.6 248.93M279.6 248.93L275.15 248.49M275.15 248.49L271.2 250.6"/>
<path d="M224.48 250.58L222.32 254.83M222.32 254.83L223.06 259.53M223.06 259.53L226.43 262.9M226.43 262.9L231.13 263.65M231.13 263.65L235.38 261.49"/>
<path d="M235.38 261.49L237.05 258.99M237.05 258.99L237.64 256.04"/>
<path d="M237.64 256.04L236.34 251.75M236.34 251.75L232.88 248.91M232.88 248.91L228.43 248.47M228.43 248.47L224.48 250.58"/>
<path d="M224.5 203.86L222.34 208.11M222.34 208.11L223.08 212.81M223.08 212.81L226.45 216.18M226.45 216.18L231.15 216.93M231.15 216.93L235.4 214.77"/>
<path d="M235.4 214.77L237.07 212.27M237.07 212.27L237.66 209.32"/>
<path d="M237.66 209.32L236.36 205.04M236.36 205.04L232.9 202.2M232.9 202.2L228.45 201.75M228.45 201.75L224.5 203.86"/>
<path d="M220.6 290.3L235.74 296.89M235.74 296.89L252 299.72"/>
<path d="M190.03 234.02L189.49 233.93M189.49 233.93L187.9 233.89"/>
<path d="M251.97 301.28L252 299.72"/>
<path d="M252 299.72L252.01 296.92M252.01 296.92L251.91 295.95"/>
<path d="M254.54 299.72L270.83 296.89M270.83 296.89L286 290.3"/>
<path d="M254.63 295.95L254.53 296.92M254.53 296.92L254.54 299.72"/>
<path d="M254.57 301.28L254.54 299.72"/>
<path d="M318.7 233.95L317.11 233.98M317.11 233.98L316.56 234.07"/>
<path d="M286 175.03L270.86 168.45M270.86 168.45L254.6 165.62"/>
<path d="M316.56 231.34L317.11 231.43M317.11 231.43L318.7 231.45"/>
<path d="M254.63 164.06L254.6 165.62"/>
<path d="M254.6 165.62L254.58 168.43M254.58 168.43L254.69 169.42"/>
<path d="M252.06 165.62L235.76 168.45M235.76 168.45L220.59 175.04"/>
<path d="M251.96 169.42L252.06 168.43M252.06 168.43L252.06 165.62"/>
<path d="M252.03 164.05L252.06 165.62"/>
<path d="M187.9 231.39L189.49 231.37M189.49 231.37L190.03 231.29"/>
<path d="M266.02 181.08L265.9 183.45"/>
<path d="M284.38 209.34L283.08 205.06M283.08 205.06L279.62 202.22M279.62 202.22L275.17 201.78M275.17 201.78L271.22 203.89"/>
<path d="M284.36 256.06L283.06 251.78M283.06 251.78L279.6 248.94M279.6 248.94L275.15 248.5M275.15 248.5L271.2 250.6"/>
<path d="M298.69 255.49L300.75 256.61"/>
<path d="M300.75 256.6L301.91 256.89"/>
<path d="M301.09 209.44L299.02 210.52"/>
<path d="M203.68 254.75L205.08 255.03"/>
<path d="M205.08 255.02L207.47 254.6"/>
<path d="M229.7 279.31L229.74 280.31"/>
<path d="M289.05 221.71L293.2 215.11M293.2 215.11L294.08 207.37M294.08 207.37L291.51 200.01M291.51 200.01L285.99 194.49M285.99 194.49L278.64 191.91M278.64 191.91L270.89 192.78M270.89 192.78L264.28 196.93M264.28 196.93L260.13 203.53M260.13 203.53L259.26 211.27M259.26 211.27L261.83 218.64M261.83 218.64L267.34 224.15M267.34 224.15L274.7 226.73M274.7 226.73L282.45 225.86M282.45 225.86L289.05 221.71"/>
<path d="M289.03 268.43L293.18 261.83M293.18 261.83L294.06 254.08M294.06 254.08L291.49 246.72M291.49 246.72L285.97 241.21M285.97 241.21L278.62 238.63M278.62 238.63L270.87 239.5M270.87 239.5L264.26 243.65M264.26 243.65L260.11 250.25M260.11 250.25L259.24 257.99M259.24 257.99L261.81 265.35M261.81 265.35L267.32 270.87M267.32 270.87L274.68 273.45M274.68 273.45L282.43 272.58M282.43 272.58L289.03 268.43"/>
<path d="M242.31 268.41L246.46 261.81M246.46 261.81L247.34 254.07M247.34 254.07L244.77 246.71M244.77 246.71L239.26 241.19M239.26 241.19L231.9 238.61M231.9 238.61L224.15 239.48M224.15 239.48L217.55 243.63M217.55 243.63L213.39 250.23M213.39 250.23L212.52 257.97M212.52 257.97L215.09 265.33M215.09 265.33L220.6 270.85M220.6 270.85L227.96 273.43M227.96 273.43L235.71 272.56M235.71 272.56L242.31 268.41"/>
<path d="M217.57 196.91L213.41 203.51M213.41 203.51L212.54 211.26M212.54 211.26L215.11 218.62M215.11 218.62L220.62 224.13M220.62 224.13L227.98 226.71M227.98 226.71L235.73 225.84M235.73 225.84L242.33 221.69M242.33 221.69L246.48 215.09M246.48 215.09L247.36 207.35M247.36 207.35L244.79 199.99M244.79 199.99L239.28 194.47M239.28 194.47L231.92 191.89M231.92 191.89L224.17 192.76M224.17 192.76L217.57 196.91"/>
<path d="M207.47 254.6L213.24 263.92M213.24 263.92L220.87 271.78M220.87 271.78L230.01 277.82"/>
<path d="M203.68 254.74L207.47 254.61"/>
<path d="M207.98 209.7L205.11 207.63"/>
<path d="M241.78 183.18L241.95 179.56"/>
<path d="M265.89 183.45L266.04 180.99M266.04 180.99L266.41 179.97"/>
<path d="M299.02 210.52L293.17 201.18M293.17 201.18L285.45 193.33M285.45 193.33L276.21 187.32M276.21 187.32L265.89 183.45"/>
<path d="M302.16 208.97L299.02 210.52"/>
<path d="M298.69 255.49L301.91 256.89"/>
<path d="M275.88 278.18L285.06 272.32M285.06 272.32L292.78 264.64M292.78 264.64L298.69 255.49"/>
<path d="M230.01 277.82L229.7 279.89M229.7 279.89L230.04 281.75"/>
<path d="M276.48 280.49L275.88 278.18"/>
<path d="M276.34 281.85L275.88 278.18"/>
<path d="M237.64 256.04L236.34 251.76M236.34 251.76L232.88 248.92M232.88 248.92L228.43 248.48M228.43 248.48L224.48 250.58"/>
<path d="M237.66 209.32L236.36 205.04M236.36 205.04L232.9 202.2M232.9 202.2L228.45 201.76M228.45 201.76L224.5 203.87"/>
<path d="M241.79 183.18L242.02 180.74"/>
<path d="M241.79 183.18L231.35 186.85M231.35 186.85L221.95 192.69M221.95 192.69L214.03 200.43M214.03 200.43L207.98 209.7"/>
<path d="M266.41 179.97L254.2 178.37M254.2 178.37L241.94 179.56"/>
<path d="M291.72 194.29L280.04 185.4M280.04 185.4L266.41 179.97"/>
<path d="M284.35 277.25L293 269.75M293 269.75L299.88 260.61M299.88 260.61L304.7 250.23"/>
<path d="M270.8 284.09L281.99 278.79M281.99 278.79L291.69 271.09M291.69 271.09L299.39 261.4M299.39 261.4L304.7 250.21"/>
<path d="M301.91 256.89L304.7 250.21"/>
<path d="M307.61 232.67L306.23 220.51M306.23 220.51L302.16 208.96"/>
<path d="M301.91 256.89L306.17 245.11M306.17 245.11L307.61 232.67"/>
<path d="M302.16 208.96L297.55 201.19M297.55 201.19L291.72 194.29"/>
<path d="M214.91 194.25L209.49 200.57M209.49 200.57L205.11 207.63"/>
<path d="M198.99 232.67L200.17 243.95M200.17 243.95L203.68 254.75"/>
<path d="M205.1 207.63L200.54 219.78M200.54 219.78L198.99 232.67"/>
<path d="M201.88 250.17L203.68 254.75"/>
<path d="M201.88 250.17L207.18 261.36M207.18 261.36L214.88 271.06M214.88 271.06L224.57 278.77M224.57 278.77L235.76 284.07"/>
<path d="M230.04 281.75L235.76 284.07"/>
<path d="M230.04 281.75L241.32 285.64M241.32 285.64L253.18 286.98M253.18 286.98L265.04 285.69M265.04 285.69L276.34 281.85"/>
<path d="M270.8 284.09L276.34 281.85"/>
<path d="M201.88 250.19L206.69 260.57M206.69 260.57L213.57 269.72M213.57 269.72L222.21 277.22"/>
<path d="M241.94 179.56L232.04 182.7M232.04 182.7L222.92 187.65M222.92 187.65L214.91 194.25"/>
<path d="M198.99 232.67L199.71 241.55M199.71 241.55L201.88 250.19"/>
<path d="M222.21 277.23L233.87 283.41M233.87 283.41L246.68 286.6M246.68 286.6L259.87 286.6M259.87 286.6L272.68 283.43M272.68 283.43L284.35 277.25"/>
<path d="M304.7 250.23L306.87 241.59M306.87 241.59L307.61 232.72"/>
<path d="M461.06 159.12L460.74 157.33M460.74 157.33L459.74 155.82"/>
<path d="M461.06 159.12L461.11 159.12"/>
<path d="M459.75 309.39L460.74 307.87M460.74 307.87L461.06 306.08"/>
<path d="M448.35 293.34L448.35 302.1"/>
<path d="M459.74 155.82L451.65 147.72"/>
<path d="M276.07 41.06L230.52 41.06"/>
<path d="M230.52 57.41L224.09 57.41"/>
<path d="M282.49 57.41L276.07 57.41"/>
<path d="M230.52 59.75L224.09 59.75"/>
<path d="M282.49 59.75L276.07 59.75"/>
<path d="M220.6 289.25L220.6 303.7"/>
<path d="M220.59 161.51L220.59 175.96"/>
<path d="M220.59 175.96L208.41 185.03M208.41 185.03L198.65 196.67M198.65 196.67L191.84 210.24M191.84 210.24L188.33 225.01M188.33 225.01L188.33 240.2M188.33 240.2L191.84 254.98M191.84 254.98L198.65 268.55M198.65 268.55L208.41 280.18M208.41 280.18L220.6 289.25"/>
<path d="M286 175.96L286 161.51"/>
<path d="M286 303.7L286 289.25"/>
<path d="M286 289.25L298.18 280.18M298.18 280.18L307.95 268.55M307.95 268.55L314.76 254.98M314.76 254.98L318.26 240.2M318.26 240.2L318.26 225.01M318.26 225.01L314.76 210.23M314.76 210.23L307.94 196.66M307.94 196.66L298.18 185.03M298.18 185.03L286 175.96"/>
<path d="M432 206.49L432 199.38"/>
<path d="M432 265.82L432 258.72"/>
<path d="M451.65 147.72L443.67 139.75"/>
<path d="M451.65 147.72L448.35 151.03"/>
<path d="M461.06 159.12L448.35 151.03"/>
<path d="M461.06 159.12L461.06 160.77"/>
<path d="M461.06 160.77L461.19 160.77"/>
<path d="M407.47 161.94L398.12 161.94"/>
<path d="M448.35 163.11L461.2 163.11"/>
<path d="M407.47 303.26L398.13 303.27"/>
<path d="M407.47 326.62L407.47 303.26"/>
<path d="M448.35 302.1L444.85 302.1"/>
<path d="M443.68 318.85L448.35 314.18"/>
<path d="M451.65 317.48L448.35 314.18"/>
<path d="M451.65 317.48L459.75 309.39"/>
<path d="M443.68 325.46L451.65 317.48"/>
<path d="M461.2 163.11L461.19 160.77"/>
<path d="M461.2 289.74L461.2 302.1"/>
<path d="M461.2 163.11L461.2 175.46"/>
<path d="M448.35 314.18L461.07 306.08"/>
<path d="M448.35 314.18L448.35 302.1"/>
<path d="M448.35 302.1L461.2 302.1"/>
<path d="M461.2 302.1L461.2 304.43"/>
<path d="M461.07 306.08L461.11 306.08"/>
<path d="M461.07 306.08L461.07 304.43"/>
<path d="M451.85 293.34L451.85 283.99"/>
<path d="M410.39 262.27L412.15 256.27M412.15 256.27L416.88 252.18M416.88 252.18L423.06 251.29M423.06 251.29L428.75 253.88M428.75 253.88L432.13 259.14M432.13 259.14L432.13 265.39M432.13 265.39L428.75 270.65M428.75 270.65L423.06 273.25M423.06 273.25L416.88 272.36M416.88 272.36L412.15 268.27M412.15 268.27L410.39 262.27"/>
<path d="M465.87 279.32L456.53 279.32"/>
<path d="M410.39 202.94L412.15 196.94M412.15 196.94L416.87 192.84M416.87 192.84L423.06 191.95M423.06 191.95L428.75 194.55M428.75 194.55L432.13 199.81M432.13 199.81L432.13 206.06M432.13 206.06L428.75 211.32M428.75 211.32L423.06 213.92M423.06 213.92L416.87 213.03M416.87 213.03L412.15 208.93M412.15 208.93L410.39 202.94"/>
<path d="M444.85 302.1L444.85 293.34"/>
<path d="M444.85 302.1L443.85 298.81M443.85 298.81L443.68 297.28"/>
<path d="M407.47 138.58L398.12 138.58"/>
<path d="M230.52 41.06L230.52 43.33"/>
<path d="M276.07 43.33L230.52 43.33"/>
<path d="M230.52 43.33L230.52 64.42"/>
<path d="M276.07 43.33L276.07 41.06"/>
<path d="M276.07 43.33L276.07 64.42"/>
<path d="M276.07 62.08L282.49 62.08"/>
<path d="M224.09 62.08L230.52 62.08"/>
<path d="M224.09 45.73L224.09 57.41"/>
<path d="M224.09 57.41L224.09 59.75"/>
<path d="M224.09 59.75L224.09 62.08"/>
<path d="M224.09 64.42L224.09 62.08"/>
<path d="M282.49 57.41L282.49 45.73"/>
<path d="M282.49 62.08L282.49 64.42"/>
<path d="M282.49 59.75L282.49 62.08"/>
<path d="M282.49 59.75L282.49 57.41"/>
<path d="M286 303.7L299.93 295.45M299.93 295.45L311.86 284.51M311.86 284.51L321.29 271.35M321.29 271.35L327.8 256.54M327.8 256.54L331.13 240.7M331.13 240.7L331.13 224.51M331.13 224.51L327.8 208.67M327.8 208.67L321.28 193.86M321.28 193.86L311.86 180.7M311.86 180.7L299.93 169.76M299.93 169.76L286 161.51"/>
<path d="M286 161.51L270.04 156.16M270.04 156.16L253.3 154.35M253.3 154.35L236.56 156.16M236.56 156.16L220.59 161.51"/>
<path d="M220.59 161.51L206.67 169.76M206.67 169.76L194.74 180.7M194.74 180.7L185.31 193.86M185.31 193.86L178.79 208.68M178.79 208.68L175.46 224.52M175.46 224.52L175.46 240.7M175.46 240.7L178.79 256.54M178.79 256.54L185.31 271.36M185.31 271.36L194.74 284.51M194.74 284.51L206.67 295.45M206.67 295.45L220.6 303.7"/>
<path d="M220.6 303.7L236.56 309.05M236.56 309.05L253.3 310.86M253.3 310.86L270.04 309.05M270.04 309.05L286 303.7"/>
<path d="M234.02 127.49L234.45 132.16"/>
<path d="M234.45 132.16L272.14 132.16"/>
<path d="M405.14 293.34L405.14 283.99"/>
<path d="M405.14 293.34L451.85 293.34"/>
<path d="M405.72 262.27L407.52 254.94M407.52 254.94L412.53 249.29M412.53 249.29L419.59 246.62M419.59 246.62L427.08 247.53M427.08 247.53L433.29 251.81M433.29 251.81L436.79 258.5M436.79 258.5L436.79 266.04M436.79 266.04L433.29 272.72M433.29 272.72L427.08 277.01M427.08 277.01L419.59 277.92M419.59 277.92L412.53 275.25M412.53 275.25L407.52 269.6M407.52 269.6L405.72 262.27"/>
<path d="M405.72 202.94L407.52 195.61M407.52 195.61L412.53 189.96M412.53 189.96L419.58 187.28M419.58 187.28L427.08 188.19M427.08 188.19L433.29 192.48M433.29 192.48L436.79 199.16M436.79 199.16L436.79 206.71M436.79 206.71L433.29 213.39M433.29 213.39L427.08 217.68M427.08 217.68L419.58 218.59M419.58 218.59L412.53 215.91M412.53 215.91L407.52 210.26M407.52 210.26L405.72 202.94"/>
<path d="M456.53 279.32L456.52 185.88"/>
<path d="M451.85 283.99L454.19 283.37M454.19 283.37L455.9 281.66M455.9 281.66L456.53 279.32"/>
<path d="M405.14 283.99L451.85 283.99"/>
<path d="M400.46 279.32L401.83 282.62M401.83 282.62L405.14 283.99"/>
<path d="M456.52 185.88L455.9 183.55M455.9 183.55L454.19 181.84M454.19 181.84L451.85 181.21"/>
<path d="M465.87 185.88L456.52 185.88"/>
<path d="M448.35 151.03L443.67 146.36"/>
<path d="M448.35 151.03L448.35 163.11"/>
<path d="M407.47 161.94L407.47 138.58"/>
<path d="M421.48 138.58L433.16 138.58"/>
<path d="M407.47 138.58L409.8 138.58"/>
<path d="M448.35 163.11L448.35 171.87"/>
<path d="M444.84 163.11L448.35 163.11"/>
<path d="M407.47 326.62L398.13 326.62"/>
<path d="M409.81 326.62L407.47 326.62"/>
<path d="M433.17 326.62L421.49 326.62"/>
<path d="M461.07 304.43L461.2 304.43"/>
<path d="M265.87 338.73L264.4 339.5M264.4 339.5L263.81 341.05"/>
<path d="M263.81 341.05L263.81 348.82"/>
<path d="M260.89 351.74L262.35 351.35M262.35 351.35L263.42 350.28M263.42 350.28L263.81 348.82"/>
<path d="M260.89 351.74L245.71 351.74"/>
<path d="M242.79 348.82L243.18 350.28M243.18 350.28L244.25 351.35M244.25 351.35L245.71 351.74"/>
<path d="M242.79 348.82L242.79 341.05"/>
<path d="M242.79 341.05L242.2 339.5M242.2 339.5L240.73 338.73"/>
<path d="M451.85 293.34L458.86 291.46M458.86 291.46L463.99 286.33M463.99 286.33L465.87 279.32"/>
<path d="M465.87 279.32L465.87 185.88"/>
<path d="M147.2 245.41L146.43 243.94M146.43 243.94L144.88 243.35"/>
<path d="M144.88 243.35L137.09 243.35"/>
<path d="M134.17 240.43L134.56 241.89M134.56 241.89L135.63 242.96M135.63 242.96L137.09 243.35"/>
<path d="M134.17 240.43L134.16 224.78"/>
<path d="M137.09 221.86L135.02 222.72M135.02 222.72L134.17 224.78"/>
<path d="M137.08 221.86L144.88 221.86"/>
<path d="M144.88 221.86L146.43 221.28M146.43 221.28L147.2 219.81"/>
<path d="M218.24 131.65L206.09 136.73M206.09 136.73L194.66 143.26"/>
<path d="M205.41 70.26L202.1 71.63M202.1 71.63L200.74 74.93"/>
<path d="M205.41 70.26L215.9 70.26"/>
<path d="M200.74 74.93L200.74 92.45"/>
<path d="M305.85 74.93L305.23 72.59M305.23 72.59L303.52 70.88M303.52 70.88L301.18 70.26"/>
<path d="M305.85 74.93L305.85 92.45"/>
<path d="M290.69 70.26L301.18 70.26"/>
<path d="M290.69 92.45L305.85 92.45"/>
<path d="M200.74 92.45L215.9 92.45"/>
<path d="M286.15 103.32L220.44 103.32"/>
<path d="M287.91 65.51L218.68 65.51"/>
<path d="M288.02 64.42L218.57 64.42"/>
<path d="M286 113.91L220.59 113.91"/>
<path d="M234.02 127.49L272.57 127.49"/>
<path d="M234.02 127.49L218.24 131.65"/>
<path d="M218.24 131.65L219.94 130.37M219.94 130.37L220.59 128.34"/>
<path d="M234.45 132.16L215.15 137.8M215.15 137.8L197.33 147.1M197.33 147.1L181.67 159.72M181.67 159.72L168.78 175.15M168.78 175.15L159.17 192.81M159.17 192.81L153.2 212.01M153.2 212.01L151.1 232.01M151.1 232.01L152.96 252.04M152.96 252.04L158.71 271.3M158.71 271.3L168.12 289.08M168.12 289.08L180.83 304.66M180.83 304.66L196.34 317.46M196.34 317.46L214.05 326.97M214.05 326.97L233.29 332.83M233.29 332.83L253.3 334.8M253.3 334.8L273.31 332.82M273.31 332.82L292.55 326.97M292.55 326.97L310.26 317.45M310.26 317.45L325.77 304.66M325.77 304.66L338.48 289.07M338.48 289.07L347.89 271.3M347.89 271.3L353.63 252.03M353.63 252.03L355.49 232.01M355.49 232.01L353.4 212.01M353.4 212.01L347.43 192.81M347.43 192.81L337.81 175.15M337.81 175.15L324.93 159.71M324.93 159.71L309.27 147.1M309.27 147.1L291.44 137.79M291.44 137.79L272.14 132.16"/>
<path d="M272.57 127.49L272.14 132.16"/>
<path d="M288.35 131.65L272.57 127.49"/>
<path d="M372.43 224.78L371.57 222.71M371.57 222.71L369.51 221.86"/>
<path d="M372.43 224.78L372.43 240.43"/>
<path d="M369.51 243.35L370.97 242.96M370.97 242.96L372.04 241.89M372.04 241.89L372.43 240.43"/>
<path d="M361.72 243.35L360.17 243.94M360.17 243.94L359.4 245.4"/>
<path d="M369.51 243.35L361.72 243.35"/>
<path d="M369.51 243.35L391.12 243.35"/>
<path d="M372.43 238.68L391.12 238.68"/>
<path d="M391.12 226.53L372.43 226.53"/>
<path d="M400.46 185.88L400.46 279.32"/>
<path d="M391.12 279.32L400.46 279.32"/>
<path d="M391.12 279.32L393 286.33M393 286.33L398.13 291.46M398.13 291.46L405.14 293.34"/>
<path d="M409.81 302.68L398.13 302.68"/>
<path d="M398.13 302.68L398.13 328.38"/>
<path d="M409.81 328.38L409.81 302.68"/>
<path d="M421.49 302.68L421.49 328.38"/>
<path d="M433.17 328.38L433.17 302.68"/>
<path d="M433.17 302.68L421.49 302.68"/>
<path d="M432 344.73L437.84 343.16M437.84 343.16L442.11 338.89M442.11 338.89L443.68 333.05"/>
<path d="M370.1 344.73L366.82 340.56M366.82 340.56L361.81 338.85M361.81 338.85L356.67 340.14"/>
<path d="M349.49 343.86L356.67 340.14"/>
<path d="M333.89 350.24L349.49 343.86"/>
<path d="M333.89 350.24L333.89 323.19"/>
<path d="M443.68 293.34L443.68 333.05"/>
<path d="M405.13 181.21L401.83 182.58M401.83 182.58L400.46 185.88"/>
<path d="M391.12 185.88L400.46 185.88"/>
<path d="M465.87 185.88L463.99 178.87M463.99 178.87L458.86 173.74M458.86 173.74L451.85 171.87"/>
<path d="M451.85 181.21L405.13 181.21"/>
<path d="M405.13 171.87L405.13 181.21"/>
<path d="M451.85 171.87L451.85 181.21"/>
<path d="M443.68 167.92L443.86 166.32M443.86 166.32L444.84 163.11"/>
<path d="M444.84 171.87L444.84 163.11"/>
<path d="M432 344.73L370.1 344.73"/>
<path d="M421.49 328.38L433.17 328.38"/>
<path d="M398.13 328.38L409.81 328.38"/>
<path d="M172.71 315.53L175.05 315.53"/>
<path d="M175.05 348.75L175.05 305.39"/>
<path d="M331.55 323.18L331.55 348.75"/>
<path d="M206.58 357.53L206.58 359.87"/>
<path d="M172.71 350.25L189.46 355.7M189.46 355.7L206.58 359.87"/>
<path d="M159.86 125.16L165.7 125.16"/>
<path d="M159.86 127.49L159.86 125.16"/>
<path d="M178.52 56.54L171.73 61.71M171.73 61.71L167.26 68.99M167.26 68.99L165.7 77.39"/>
<path d="M206.42 45.49L192.22 50.38M192.22 50.38L178.53 56.54"/>
<path d="M212.41 49.97L211.55 47.26M211.55 47.26L209.27 45.55M209.27 45.55L206.42 45.49"/>
<path d="M212.42 53.91L212.42 49.97"/>
<path d="M207.74 58.58L210.08 57.95M210.08 57.95L211.79 56.24M211.79 56.24L212.41 53.91"/>
<path d="M205.41 58.58L207.74 58.58"/>
<path d="M205.41 58.58L199.15 59.83M199.15 59.83L193.84 63.37M193.84 63.37L190.3 68.68M190.3 68.68L189.06 74.93"/>
<path d="M213.7 133.35L215.3 132.06M215.3 132.06L215.9 130.09"/>
<path d="M172.71 302.8L172.71 350.25"/>
<path d="M157.11 343.87L172.71 350.25"/>
<path d="M113.14 275.75L115.1 292.74M115.1 292.74L120.87 308.84M120.87 308.84L130.14 323.21M130.14 323.21L142.44 335.09M142.44 335.09L157.12 343.87"/>
<path d="M113.14 275.75L113.14 127.49"/>
<path d="M165.7 77.39L165.7 127.49"/>
<path d="M215.9 70.26L215.9 92.45"/>
<path d="M215.9 64.42L215.9 70.26"/>
<path d="M215.9 64.42L218.57 64.42"/>
<path d="M218.66 65.51L218.58 64.42"/>
<path d="M218.68 65.51L220.44 103.32"/>
<path d="M220.59 113.91L220.45 103.32"/>
<path d="M220.59 128.34L220.59 113.91"/>
<path d="M220.59 128.34L215.9 130.09"/>
<path d="M215.9 127.49L215.9 130.09"/>
<path d="M219.42 118.15L219.31 109.68"/>
<path d="M219.3 109.68L218.55 93.55"/>
<path d="M218.54 93.54L218.45 92.45"/>
<path d="M218.44 92.45L215.9 92.45"/>
<path d="M219.22 127.49L219.23 127.46M219.23 127.46L219.24 127.4M219.24 127.4L219.32 126.23M219.32 126.23L219.42 118.15"/>
<path d="M290.69 70.26L290.69 92.45"/>
<path d="M288.15 92.45L290.69 92.45"/>
<path d="M288.14 92.45L288.05 93.54"/>
<path d="M287.29 109.68L288.04 93.54"/>
<path d="M287.28 109.68L287.18 118.14"/>
<path d="M287.37 127.49L287.36 127.46M287.36 127.46L287.35 127.4M287.35 127.4L287.27 126.23M287.27 126.23L287.17 118.14"/>
<path d="M286 128.34L286 113.91"/>
<path d="M286.14 103.32L286 113.91"/>
<path d="M287.91 65.51L286.15 103.32"/>
<path d="M288.01 64.42L287.92 65.51"/>
<path d="M288.02 64.42L290.69 64.42"/>
<path d="M290.69 64.42L290.69 70.26"/>
<path d="M286 128.34L286.65 130.37M286.65 130.37L288.35 131.65"/>
<path d="M290.69 130.09L286 128.34"/>
<path d="M165.69 171.4L155.63 189.23M155.63 189.23L149.15 208.65M149.15 208.65L146.49 228.95M146.49 228.95L147.75 249.38M147.75 249.38L152.89 269.19M152.89 269.19L161.71 287.67M161.71 287.67L173.89 304.12M173.89 304.12L188.98 317.95M188.98 317.95L206.43 328.65M206.43 328.65L225.6 335.82M225.6 335.82L245.79 339.21M245.79 339.21L266.26 338.69M266.26 338.69L286.25 334.27M286.25 334.27L305.02 326.12M305.02 326.12L321.91 314.54M321.91 314.54L336.27 299.96M336.27 299.96L347.59 282.9M347.59 282.9L355.45 264M355.45 264L359.56 243.95M359.56 243.95L359.78 223.48M359.78 223.48L356.08 203.34M356.08 203.34L348.62 184.28M348.62 184.28L337.66 166.99M337.66 166.99L323.6 152.11M323.6 152.11L306.96 140.19M306.96 140.19L288.35 131.65"/>
<path d="M359.4 219.8L360.17 221.27M360.17 221.27L361.72 221.86"/>
<path d="M361.72 221.86L369.51 221.86"/>
<path d="M391.12 221.86L369.51 221.86"/>
<path d="M391.12 185.88L391.12 279.32"/>
<path d="M405.13 171.87L398.12 173.75M398.12 173.75L392.99 178.88M392.99 178.88L391.12 185.88"/>
<path d="M451.85 171.87L405.13 171.87"/>
<path d="M172.71 347.91L175.05 348.76"/>
<path d="M175.05 348.76L200.56 356.22M200.56 356.22L226.76 360.74M226.76 360.74L253.3 362.25M253.3 362.25L279.84 360.74M279.84 360.74L306.04 356.22M306.04 356.22L331.55 348.75"/>
<path d="M331.55 348.75L333.89 347.91"/>
<path d="M189.06 127.49L189.06 74.93"/>
<path d="M165.7 127.49L113.14 127.49"/>
<path d="M290.69 127.49L287.37 127.49"/>
<path d="M219.22 127.49L215.9 127.49"/>
<path d="M215.9 127.49L189.06 127.49"/>
<path d="M409.8 162.52L409.8 136.83"/>
<path d="M409.8 136.83L398.12 136.83"/>
<path d="M398.12 136.83L398.12 162.52"/>
<path d="M398.12 162.52L409.8 162.52"/>
<path d="M433.16 162.52L433.16 136.83"/>
<path d="M433.16 136.83L421.48 136.83"/>
<path d="M421.48 136.83L421.48 162.52"/>
<path d="M421.48 162.52L433.16 162.52"/>
<path d="M443.67 132.16L442.11 126.32M442.11 126.32L437.83 122.04M437.83 122.04L431.99 120.48"/>
<path d="M443.67 132.16L443.68 171.87"/>
<path d="M290.69 130.09L291.29 132.05M291.29 132.05L292.89 133.34"/>
<path d="M290.69 127.49L290.69 130.09"/>
<path d="M317.53 127.49L290.69 127.49"/>
<path d="M317.53 74.93L316.29 68.67M316.29 68.67L312.74 63.37M312.74 63.37L307.44 59.82M307.44 59.82L301.18 58.58"/>
<path d="M298.84 58.58L301.18 58.58"/>
<path d="M294.17 53.91L295.54 57.21M295.54 57.21L298.84 58.58"/>
<path d="M294.17 49.97L294.17 53.91"/>
<path d="M300.17 45.48L297.32 45.55M297.32 45.55L295.04 47.25M295.04 47.25L294.17 49.97"/>
<path d="M328.06 56.53L314.36 50.38M314.36 50.38L300.17 45.48"/>
<path d="M340.89 120.48L431.99 120.48"/>
<path d="M340.89 77.38L339.33 68.99M339.33 68.99L334.85 61.71M334.85 61.71L328.06 56.53"/>
<path d="M300.02 359.87L317.14 355.69M317.14 355.69L333.89 350.24"/>
<path d="M300.02 357.53L300.02 359.87"/>
<path d="M317.53 74.93L317.53 127.49"/>
<path d="M340.89 120.48L340.89 77.38"/>
<path d="M330.63 191.24L332.41 190.35M332.41 190.35L335.08 187.68M335.08 187.68L335.08 206.37"/>
<path d="M329.44 262.6L329.44 261.71M329.44 261.71L330.33 259.93M330.33 259.93L331.22 259.04M331.22 259.04L333 258.15M333 258.15L336.56 258.15M336.56 258.15L338.34 259.04M338.34 259.04L339.23 259.93M339.23 259.93L340.12 261.71M340.12 261.71L340.12 263.49M340.12 263.49L339.23 265.27M339.23 265.27L337.45 267.94M337.45 267.94L328.55 276.84M328.55 276.84L341.01 276.84"/>
<path d="M165.98 258.15L175.77 258.15M175.77 258.15L170.43 265.27M170.43 265.27L173.1 265.27M173.1 265.27L174.88 266.16M174.88 266.16L175.77 267.05M175.77 267.05L176.66 269.72M176.66 269.72L176.66 271.5M176.66 271.5L175.77 274.17M175.77 274.17L173.99 275.95M173.99 275.95L171.32 276.84M171.32 276.84L168.65 276.84M168.65 276.84L165.98 275.95M165.98 275.95L165.09 275.06M165.09 275.06L164.2 273.28"/>
<path d="M170.74 187.7L161.84 200.16M161.84 200.16L175.19 200.16M170.74 187.7L170.74 206.39"/>
<path d="M485.98 260.82L485.09 259.04M485.09 259.04L482.43 258.15M482.43 258.15L480.65 258.15M480.65 258.15L477.98 259.04M477.98 259.04L476.2 261.71M476.2 261.71L475.31 266.16M475.31 266.16L475.31 270.61M475.31 270.61L476.2 274.17M476.2 274.17L477.98 275.95M477.98 275.95L480.65 276.84M480.65 276.84L481.54 276.84M481.54 276.84L484.21 275.95M484.21 275.95L485.98 274.17M485.98 274.17L486.87 271.5M486.87 271.5L486.87 270.61M486.87 270.61L485.98 267.94M485.98 267.94L484.21 266.16M484.21 266.16L481.54 265.27M481.54 265.27L480.65 265.27M480.65 265.27L477.98 266.16M477.98 266.16L476.2 267.94M476.2 267.94L475.31 270.61"/>
<path d="M483.63 187.7L474.73 187.7M474.73 187.7L473.84 195.71M473.84 195.71L474.73 194.82M474.73 194.82L477.4 193.93M477.4 193.93L480.07 193.93M480.07 193.93L482.74 194.82M482.74 194.82L484.52 196.6M484.52 196.6L485.41 199.27M485.41 199.27L485.41 201.05M485.41 201.05L484.52 203.72M484.52 203.72L482.74 205.5M482.74 205.5L480.07 206.39M480.07 206.39L477.4 206.39M477.4 206.39L474.73 205.5M474.73 205.5L473.84 204.61M473.84 204.61L472.95 202.83"/>
</g>
</g>
</svg>
