<?xml version="1.0" standalone="no"?><svg xmlns="http://www.w3.org/2000/svg" width="600.000" height="450.000" viewBox="0.0 0.0 600.000 450.000" version="1.1">
<title>Acme Converter - Post-processed with EDS-Designer: 14.44 (info@symca.com)</title>
<desc>Acme Converter - Post-processed with EDS-Designer: 14.44 (info@symca.com)</desc>
<g id="EDS_STYLE_GROUP" fill="none" stroke="black" stroke-width="1.0">
<g id="0" display="visible">
<path d="M246.66 378.39L246.66 355.17M247.76 355.17L247.76 378.39M243.34 355.17L256.6 355.17M256.6 355.17L259.92 356.28M259.92 356.28L261.02 357.39M261.02 357.39L262.13 359.6M262.13 359.6L262.13 361.81M262.13 361.81L261.02 364.02M261.02 364.02L259.92 365.12M259.92 365.12L256.6 366.23M256.6 355.17L258.81 356.28M258.81 356.28L259.92 357.39M259.92 357.39L261.02 359.6M261.02 359.6L261.02 361.81M261.02 361.81L259.92 364.02M259.92 364.02L258.81 365.12M258.81 365.12L256.6 366.23M247.76 366.23L256.6 366.23M256.6 366.23L259.92 367.33M259.92 367.33L261.02 368.44M261.02 368.44L262.13 370.65M262.13 370.65L262.13 373.96M262.13 373.96L261.02 376.17M261.02 376.17L259.92 377.28M259.92 377.28L256.6 378.39M256.6 378.39L243.34 378.39M256.6 366.23L258.81 367.33M258.81 367.33L259.92 368.44M259.92 368.44L261.02 370.65M261.02 370.65L261.02 373.96M261.02 373.96L259.92 376.17M259.92 376.17L258.81 377.28M258.81 377.28L256.6 378.39M270.97 378.39L270.97 355.17M272.08 355.17L272.08 378.39M267.66 355.17L275.39 355.17M267.66 378.39L284.24 378.39M284.24 378.39L284.24 371.75M284.24 371.75L283.13 378.39M297.5 355.17L289.76 378.39M297.5 355.17L305.24 378.39M297.5 358.49L304.13 378.39M291.97 371.75L301.92 371.75M287.55 378.39L294.18 378.39M300.81 378.39L307.45 378.39M326.24 358.49L327.34 361.81M327.34 361.81L327.34 355.17M327.34 355.17L326.24 358.49M326.24 358.49L324.03 356.28M324.03 356.28L320.71 355.17M320.71 355.17L318.5 355.17M318.5 355.17L315.18 356.28M315.18 356.28L312.97 358.49M312.97 358.49L311.87 360.7M311.87 360.7L310.76 364.02M310.76 364.02L310.76 369.54M310.76 369.54L311.87 372.86M311.87 372.86L312.97 375.07M312.97 375.07L315.18 377.28M315.18 377.28L318.5 378.39M318.5 378.39L320.71 378.39M320.71 378.39L324.03 377.28M324.03 377.28L326.24 375.07M326.24 375.07L327.34 372.86M318.5 355.17L316.29 356.28M316.29 356.28L314.08 358.49M314.08 358.49L312.97 360.7M312.97 360.7L311.87 364.02M311.87 364.02L311.87 369.54M311.87 369.54L312.97 372.86M312.97 372.86L314.08 375.07M314.08 375.07L316.29 377.28M316.29 377.28L318.5 378.39M337.29 378.39L337.29 355.17M338.39 355.17L338.39 378.39M352.76 355.17L338.39 369.54M343.92 365.12L352.76 378.39M342.82 365.12L351.66 378.39M333.97 355.17L341.71 355.17M348.34 355.17L354.97 355.17M333.97 378.39L341.71 378.39M348.34 378.39L354.97 378.39"/>
<path d="M76.8 137.38L76.8 295.21"/>
<path d="M79.51 137.38L79.51 295.21"/>
<path d="M80.67 296.76L80.67 299.08"/>
<path d="M80.67 136.22L80.67 133.51"/>
<path d="M82.99 167.94L82.99 198.89"/>
<path d="M82.99 236.41L82.99 267.36"/>
<path d="M85.7 171.03L85.7 195.79"/>
<path d="M85.7 239.51L85.7 264.27"/>
<path d="M87.25 180.71L87.25 186.12"/>
<path d="M87.25 249.18L87.25 254.59"/>
<path d="M87.63 104.5L87.63 133.51"/>
<path d="M89.95 257.3L89.95 246.47"/>
<path d="M89.95 188.83L89.95 178"/>
<path d="M90.34 104.5L90.34 136.22"/>
<path d="M90.73 284.38L90.73 259.24"/>
<path d="M90.73 244.15L90.73 191.15"/>
<path d="M90.73 175.68L90.73 145.5"/>
<path d="M91.89 103.34L91.89 100.63"/>
<path d="M93.05 282.06L93.05 259.24"/>
<path d="M93.05 244.15L93.05 191.15"/>
<path d="M93.05 175.68L93.05 147.82"/>
<path d="M94.6 197.73L94.6 216.3"/>
<path d="M94.6 220.94L94.6 219"/>
<path d="M96.14 145.5L96.14 108.75"/>
<path d="M97.69 281.29L97.69 259.24"/>
<path d="M97.69 175.68L97.69 153.63"/>
<path d="M98.46 147.82L98.46 111.07"/>
<path d="M98.85 299.08L98.85 320.36"/>
<path d="M99.63 188.83L99.63 246.47"/>
<path d="M100.4 155.17L100.4 178"/>
<path d="M100.4 257.3L100.4 280.13"/>
<path d="M101.56 323.07L101.56 296.76"/>
<path d="M102.33 186.12L102.33 249.18"/>
<path d="M103.11 157.88L103.11 180.71"/>
<path d="M103.11 254.59L103.11 277.42"/>
<path d="M107.36 314.56L107.36 284.38"/>
<path d="M108.52 196.18L108.52 239.12"/>
<path d="M109.3 312.23L109.3 282.06"/>
<path d="M110.07 239.12L110.07 196.18"/>
<path d="M118.19 111.07L120.13 108.75"/>
<path d="M129.41 312.23L131.35 314.56"/>
<path d="M82.99 236.41L85.7 239.51"/>
<path d="M90.73 267.36L93.05 270.07"/>
<path d="M113.94 239.12L113.94 237.96"/>
<path d="M113.94 197.34L113.94 196.18"/>
<path d="M116.65 197.34L116.65 237.96"/>
<path d="M118.19 111.07L118.19 147.82"/>
<path d="M118.58 153.63L118.58 155.17"/>
<path d="M118.58 280.13L118.58 281.29"/>
<path d="M119.74 190.38L119.74 196.18"/>
<path d="M119.74 244.92L119.74 239.12"/>
<path d="M120.13 108.75L120.13 145.5"/>
<path d="M120.52 239.12L120.52 237.96"/>
<path d="M120.52 197.34L120.52 196.18"/>
<path d="M124.77 103.34L124.77 100.63"/>
<path d="M125.54 237.96L125.54 229.45"/>
<path d="M125.54 205.85L125.54 197.34"/>
<path d="M125.93 136.22L125.93 104.5"/>
<path d="M128.64 133.51L128.64 104.5"/>
<path d="M129.41 284.77L129.41 312.23"/>
<path d="M93.05 165.23L90.73 167.94"/>
<path d="M129.41 284.77L131.35 287.09"/>
<path d="M131.35 287.09L131.35 314.56"/>
<path d="M137.15 323.07L137.15 296.76"/>
<path d="M137.92 197.34L137.92 205.85"/>
<path d="M137.92 229.45L137.92 237.96"/>
<path d="M139.86 320.36L139.86 299.08"/>
<path d="M142.95 196.18L142.95 197.34"/>
<path d="M142.95 237.96L142.95 239.12"/>
<path d="M144.11 239.12L144.11 244.92"/>
<path d="M144.11 196.18L144.11 190.38"/>
<path d="M144.89 153.63L144.89 155.17"/>
<path d="M144.89 281.29L144.89 280.13"/>
<path d="M85.7 195.79L82.99 198.89"/>
<path d="M118.19 147.82L120.13 145.5"/>
<path d="M90.73 198.89L93.05 201.6"/>
<path d="M152.24 153.63L152.24 155.17"/>
<path d="M152.24 281.29L152.24 280.13"/>
<path d="M153.01 190.38L153.01 196.18"/>
<path d="M153.01 244.92L153.01 239.12"/>
<path d="M154.17 239.12L154.17 237.96"/>
<path d="M154.17 197.34L154.17 196.18"/>
<path d="M159.2 237.96L159.2 229.45"/>
<path d="M159.2 205.85L159.2 197.34"/>
<path d="M93.05 233.7L90.73 236.41"/>
<path d="M144.11 244.92L139.08 240.28"/>
<path d="M82.99 167.94L85.7 171.03"/>
<path d="M171.58 197.34L171.58 205.85"/>
<path d="M171.58 229.45L171.58 237.96"/>
<path d="M176.61 196.18L176.61 197.34"/>
<path d="M176.61 237.96L176.61 239.12"/>
<path d="M177.38 239.12L177.38 244.92"/>
<path d="M177.38 196.18L177.38 190.38"/>
<path d="M178.54 153.63L178.54 155.17"/>
<path d="M178.54 280.13L178.54 281.29"/>
<path d="M85.7 264.27L82.99 267.36"/>
<path d="M226.9 90.18L230.77 87.86"/>
<path d="M253.98 331.96L254.36 331.96M254.36 331.96L254.75 331.96M254.75 331.96L255.14 331.96M255.14 331.96L255.14 331.58M255.14 331.58L255.53 331.58M255.53 331.58L255.91 331.19M255.91 331.19L255.91 330.8M255.91 330.8L256.3 330.8M256.3 330.8L256.3 330.42M256.3 330.42L256.3 330.03M256.3 330.03L256.3 329.64M256.3 329.64L256.3 329.26"/>
<path d="M229.22 331.96L253.98 331.96"/>
<path d="M344.11 331.96L368.87 331.96"/>
<path d="M312.01 325L285.7 325"/>
<path d="M101.56 323.07L216.84 323.07"/>
<path d="M381.25 323.07L496.53 323.07"/>
<path d="M378.93 321.52L341.41 321.52"/>
<path d="M219.16 321.52L256.69 321.52"/>
<path d="M98.85 320.36L216.07 320.36"/>
<path d="M381.64 320.36L498.85 320.36"/>
<path d="M124.38 195.02L119.74 190.38"/>
<path d="M185.51 281.29L185.51 280.13"/>
<path d="M185.51 155.17L185.51 153.63"/>
<path d="M186.67 190.38L186.67 196.18"/>
<path d="M186.67 244.92L186.67 239.12"/>
<path d="M187.44 239.12L187.44 237.96"/>
<path d="M187.44 197.34L187.44 196.18"/>
<path d="M190.92 93.28L190.92 133.51"/>
<path d="M192.47 237.96L192.47 229.45"/>
<path d="M192.47 205.85L192.47 197.34"/>
<path d="M193.63 93.28L193.63 136.22"/>
<path d="M139.08 195.02L144.11 190.38"/>
<path d="M216.07 318.81L218.77 318.81"/>
<path d="M379.32 318.81L382.03 318.81"/>
<path d="M490.73 314.56L466.36 314.56"/>
<path d="M131.35 314.56L107.36 314.56"/>
<path d="M488.41 312.23L468.68 312.23"/>
<path d="M129.41 312.23L109.3 312.23"/>
<path d="M372.35 305.27L225.74 305.27"/>
<path d="M177.38 244.92L172.74 240.28"/>
<path d="M93.05 147.82L90.73 145.5"/>
<path d="M98.46 147.82L96.14 145.5"/>
<path d="M204.46 145.5L204.46 92.89"/>
<path d="M204.85 197.34L204.85 205.85"/>
<path d="M204.85 229.45L204.85 237.96"/>
<path d="M206.78 147.82L206.78 92.89"/>
<path d="M209.49 87.86L209.49 90.18"/>
<path d="M209.88 196.18L209.88 197.34"/>
<path d="M209.88 237.96L209.88 239.12"/>
<path d="M211.04 239.12L211.04 244.92"/>
<path d="M211.04 196.18L211.04 190.38"/>
<path d="M211.81 153.63L211.81 155.17"/>
<path d="M211.81 281.29L211.81 280.13"/>
<path d="M119.74 244.92L124.38 240.28"/>
<path d="M172.74 195.02L177.38 190.38"/>
<path d="M93.05 282.06L90.73 284.38"/>
<path d="M216.45 322.29L219.16 321.52"/>
<path d="M80.67 299.08L98.85 299.08"/>
<path d="M139.86 299.08L458.23 299.08"/>
<path d="M498.85 299.08L517.42 299.08"/>
<path d="M80.67 296.76L101.56 296.76"/>
<path d="M137.15 296.76L460.94 296.76"/>
<path d="M496.53 296.76L517.42 296.76"/>
<path d="M79.51 295.21L76.8 295.21"/>
<path d="M518.58 295.21L521.29 295.21"/>
<path d="M466.36 287.09L131.35 287.09"/>
<path d="M378.93 321.52L381.64 322.29"/>
<path d="M158.04 195.02L153.01 190.38"/>
<path d="M211.04 244.92L206.01 240.28"/>
<path d="M216.07 318.81L216.07 299.08"/>
<path d="M218.77 318.81L218.77 299.08"/>
<path d="M219.16 153.63L219.16 155.17"/>
<path d="M219.16 281.29L219.16 280.13"/>
<path d="M219.94 190.38L219.94 196.18"/>
<path d="M219.94 244.92L219.94 239.12"/>
<path d="M221.1 239.12L221.1 237.96"/>
<path d="M221.1 197.34L221.1 196.18"/>
<path d="M225.74 299.08L225.74 305.27"/>
<path d="M225.74 237.96L225.74 229.45"/>
<path d="M225.74 205.85L225.74 197.34"/>
<path d="M228.06 87.86L228.06 82.06"/>
<path d="M230.77 87.86L230.77 82.06"/>
<path d="M109.3 282.06L107.36 284.38"/>
<path d="M153.01 244.92L158.04 240.28"/>
<path d="M206.01 195.02L211.04 190.38"/>
<path d="M468.68 284.77L129.41 284.77"/>
<path d="M507.36 284.38L490.73 284.38"/>
<path d="M107.36 284.38L90.73 284.38"/>
<path d="M505.04 282.06L488.41 282.06"/>
<path d="M109.3 282.06L93.05 282.06"/>
<path d="M505.04 281.29L93.05 281.29"/>
<path d="M100.4 280.13L497.69 280.13"/>
<path d="M103.11 277.42L494.98 277.42"/>
<path d="M98.46 111.07L96.14 108.75"/>
<path d="M191.31 195.02L186.67 190.38"/>
<path d="M244.31 244.92L239.66 240.28"/>
<path d="M234.64 133.51L234.64 90.18"/>
<path d="M236.96 101.4L236.96 87.86"/>
<path d="M238.5 197.34L238.5 205.85"/>
<path d="M238.5 229.45L238.5 237.96"/>
<path d="M243.15 196.18L243.15 197.34"/>
<path d="M243.15 237.96L243.15 239.12"/>
<path d="M244.31 239.12L244.31 244.92"/>
<path d="M244.31 196.18L244.31 190.38"/>
<path d="M245.47 153.63L245.47 155.17"/>
<path d="M245.47 280.13L245.47 281.29"/>
<path d="M248.95 101.4L248.95 112.23"/>
<path d="M248.95 85.93L248.95 76.64"/>
<path d="M109.3 312.23L107.36 314.56"/>
<path d="M515.1 267.36L507.36 267.36"/>
<path d="M90.73 267.36L82.99 267.36"/>
<path d="M85.7 259.24L100.4 259.24"/>
<path d="M497.69 259.24L512.39 259.24"/>
<path d="M85.7 257.3L100.4 257.3"/>
<path d="M497.69 257.3L512.39 257.3"/>
<path d="M85.7 254.59L103.11 254.59"/>
<path d="M494.98 254.59L512.39 254.59"/>
<path d="M252.43 281.29L252.43 280.13"/>
<path d="M252.43 155.17L252.43 153.63"/>
<path d="M253.2 190.38L253.2 196.18"/>
<path d="M253.2 244.92L253.2 239.12"/>
<path d="M253.98 321.52L253.98 305.27"/>
<path d="M254.36 239.12L254.36 237.96"/>
<path d="M254.36 197.34L254.36 196.18"/>
<path d="M259.39 237.96L259.39 229.45"/>
<path d="M259.39 205.85L259.39 197.34"/>
<path d="M260.94 98.69L260.94 85.93"/>
<path d="M256.69 325.77L256.69 305.27"/>
<path d="M256.69 328.1L256.69 325.77"/>
<path d="M256.3 328.87L256.69 328.1"/>
<path d="M256.3 329.26L256.3 328.87"/>
<path d="M186.67 244.92L191.31 240.28"/>
<path d="M239.66 195.02L244.31 190.38"/>
<path d="M366.94 82.06L375.06 74.32"/>
<path d="M377 74.32L368.87 82.06"/>
<path d="M512.39 249.18L495.76 249.18"/>
<path d="M85.7 249.18L102.33 249.18"/>
<path d="M512.39 246.47L498.08 246.47"/>
<path d="M99.63 246.47L85.7 246.47"/>
<path d="M478.35 244.92L453.98 244.92"/>
<path d="M444.69 244.92L420.32 244.92"/>
<path d="M411.43 244.92L387.05 244.92"/>
<path d="M378.16 244.92L353.79 244.92"/>
<path d="M344.5 244.92L320.13 244.92"/>
<path d="M311.23 244.92L286.86 244.92"/>
<path d="M277.58 244.92L253.2 244.92"/>
<path d="M244.31 244.92L219.94 244.92"/>
<path d="M211.04 244.92L186.67 244.92"/>
<path d="M177.38 244.92L153.01 244.92"/>
<path d="M144.11 244.92L119.74 244.92"/>
<path d="M85.7 244.15L93.05 244.15"/>
<path d="M505.04 244.15L512.39 244.15"/>
<path d="M124.38 240.28L139.08 240.28"/>
<path d="M158.04 240.28L172.74 240.28"/>
<path d="M191.31 240.28L206.01 240.28"/>
<path d="M224.58 240.28L239.66 240.28"/>
<path d="M258.23 240.28L272.93 240.28"/>
<path d="M291.5 240.28L306.2 240.28"/>
<path d="M325.16 240.28L339.86 240.28"/>
<path d="M358.43 240.28L373.13 240.28"/>
<path d="M391.7 240.28L406.78 240.28"/>
<path d="M425.35 240.28L440.05 240.28"/>
<path d="M458.62 240.28L473.32 240.28"/>
<path d="M505.04 239.89L498.08 239.89"/>
<path d="M99.63 239.89L93.05 239.89"/>
<path d="M108.52 239.12L489.57 239.12"/>
<path d="M459.78 237.96L438.89 237.96"/>
<path d="M426.51 237.96L405.62 237.96"/>
<path d="M392.86 237.96L371.97 237.96"/>
<path d="M359.59 237.96L338.7 237.96"/>
<path d="M326.32 237.96L305.04 237.96"/>
<path d="M292.66 237.96L271.77 237.96"/>
<path d="M259.39 237.96L238.5 237.96"/>
<path d="M225.74 237.96L204.85 237.96"/>
<path d="M192.47 237.96L171.58 237.96"/>
<path d="M159.2 237.96L137.92 237.96"/>
<path d="M110.07 237.96L125.54 237.96"/>
<path d="M472.16 237.96L488.02 237.96"/>
<path d="M82.99 236.41L90.73 236.41"/>
<path d="M507.36 236.41L515.1 236.41"/>
<path d="M224.58 195.02L219.94 190.38"/>
<path d="M277.58 244.92L272.93 240.28"/>
<path d="M267.9 112.23L267.9 133.12"/>
<path d="M271.77 197.34L271.77 205.85"/>
<path d="M271.77 229.45L271.77 237.96"/>
<path d="M272.55 85.93L272.55 71.61"/>
<path d="M274.09 101.4L274.09 85.93"/>
<path d="M276.8 196.18L276.8 197.34"/>
<path d="M276.8 237.96L276.8 239.12"/>
<path d="M277.58 239.12L277.58 244.92"/>
<path d="M277.58 196.18L277.58 190.38"/>
<path d="M278.74 153.63L278.74 155.17"/>
<path d="M278.74 281.29L278.74 280.13"/>
<path d="M280.28 123.07L280.28 98.69"/>
<path d="M219.94 244.92L224.58 240.28"/>
<path d="M272.93 195.02L277.58 190.38"/>
<path d="M505.04 220.94L498.08 220.94"/>
<path d="M99.63 220.94L93.05 220.94"/>
<path d="M99.63 219L94.6 219"/>
<path d="M498.08 219L503.5 219"/>
<path d="M206.78 147.82L204.46 145.5"/>
<path d="M258.23 195.02L253.2 190.38"/>
<path d="M311.23 244.92L306.2 240.28"/>
<path d="M285.7 153.63L285.7 155.17"/>
<path d="M285.7 325L285.7 305.27"/>
<path d="M285.7 281.29L285.7 280.13"/>
<path d="M286.86 190.38L286.86 196.18"/>
<path d="M286.86 244.92L286.86 239.12"/>
<path d="M287.63 239.12L287.63 237.96"/>
<path d="M287.63 197.34L287.63 196.18"/>
<path d="M292.66 237.96L292.66 229.45"/>
<path d="M292.66 205.85L292.66 197.34"/>
<path d="M253.2 244.92L258.23 240.28"/>
<path d="M306.2 195.02L311.23 190.38"/>
<path d="M503.5 216.3L498.08 216.3"/>
<path d="M99.63 216.3L94.6 216.3"/>
<path d="M505.04 214.36L503.5 214.36"/>
<path d="M94.6 214.36L93.05 214.36"/>
<path d="M291.5 195.02L286.86 190.38"/>
<path d="M344.5 244.92L339.86 240.28"/>
<path d="M305.04 197.34L305.04 205.85"/>
<path d="M305.04 229.45L305.04 237.96"/>
<path d="M310.07 196.18L310.07 197.34"/>
<path d="M310.07 237.96L310.07 239.12"/>
<path d="M311.23 239.12L311.23 244.92"/>
<path d="M311.23 196.18L311.23 190.38"/>
<path d="M312.01 153.63L312.01 155.17"/>
<path d="M312.01 325L312.01 305.27"/>
<path d="M312.01 281.29L312.01 280.13"/>
<path d="M317.81 123.07L317.81 98.69"/>
<path d="M515.1 198.89L507.36 198.89"/>
<path d="M90.73 198.89L82.99 198.89"/>
<path d="M503.5 197.73L498.08 197.73"/>
<path d="M99.63 197.73L94.6 197.73"/>
<path d="M110.07 197.34L125.54 197.34"/>
<path d="M137.92 197.34L159.2 197.34"/>
<path d="M171.58 197.34L192.47 197.34"/>
<path d="M204.85 197.34L225.74 197.34"/>
<path d="M238.5 197.34L259.39 197.34"/>
<path d="M271.77 197.34L292.66 197.34"/>
<path d="M305.04 197.34L326.32 197.34"/>
<path d="M338.7 197.34L359.59 197.34"/>
<path d="M371.97 197.34L392.86 197.34"/>
<path d="M405.62 197.34L426.51 197.34"/>
<path d="M438.89 197.34L459.78 197.34"/>
<path d="M472.16 197.34L488.02 197.34"/>
<path d="M108.52 196.18L489.57 196.18"/>
<path d="M505.04 195.41L498.08 195.41"/>
<path d="M99.63 195.41L93.05 195.41"/>
<path d="M124.38 195.02L139.08 195.02"/>
<path d="M158.04 195.02L172.74 195.02"/>
<path d="M191.31 195.02L206.01 195.02"/>
<path d="M224.58 195.02L239.66 195.02"/>
<path d="M258.23 195.02L272.93 195.02"/>
<path d="M291.5 195.02L306.2 195.02"/>
<path d="M325.16 195.02L339.86 195.02"/>
<path d="M358.43 195.02L373.13 195.02"/>
<path d="M391.7 195.02L406.78 195.02"/>
<path d="M425.35 195.02L440.05 195.02"/>
<path d="M458.62 195.02L473.32 195.02"/>
<path d="M85.7 191.15L93.05 191.15"/>
<path d="M505.04 191.15L512.39 191.15"/>
<path d="M478.35 190.38L453.98 190.38"/>
<path d="M444.69 190.38L420.32 190.38"/>
<path d="M411.43 190.38L387.05 190.38"/>
<path d="M378.16 190.38L353.79 190.38"/>
<path d="M344.5 190.38L320.13 190.38"/>
<path d="M311.23 190.38L286.86 190.38"/>
<path d="M277.58 190.38L253.2 190.38"/>
<path d="M244.31 190.38L219.94 190.38"/>
<path d="M211.04 190.38L186.67 190.38"/>
<path d="M177.38 190.38L153.01 190.38"/>
<path d="M144.11 190.38L119.74 190.38"/>
<path d="M85.7 188.83L99.63 188.83"/>
<path d="M498.08 188.83L512.39 188.83"/>
<path d="M85.7 186.12L102.33 186.12"/>
<path d="M495.76 186.12L512.39 186.12"/>
<path d="M319.36 153.63L319.36 155.17"/>
<path d="M319.36 281.29L319.36 280.13"/>
<path d="M320.13 190.38L320.13 196.18"/>
<path d="M320.13 244.92L320.13 239.12"/>
<path d="M321.29 239.12L321.29 237.96"/>
<path d="M321.29 197.34L321.29 196.18"/>
<path d="M324 101.4L324 85.93"/>
<path d="M325.16 85.93L325.16 71.61"/>
<path d="M326.32 237.96L326.32 229.45"/>
<path d="M326.32 205.85L326.32 197.34"/>
<path d="M329.8 133.12L329.8 112.23"/>
<path d="M286.86 244.92L291.5 240.28"/>
<path d="M339.86 195.02L344.5 190.38"/>
<path d="M390.92 147.82L393.24 145.5"/>
<path d="M85.7 180.71L103.11 180.71"/>
<path d="M494.98 180.71L512.39 180.71"/>
<path d="M512.39 178L497.69 178"/>
<path d="M100.4 178L85.7 178"/>
<path d="M85.7 175.68L100.4 175.68"/>
<path d="M497.69 175.68L512.39 175.68"/>
<path d="M82.99 167.94L90.73 167.94"/>
<path d="M507.36 167.94L515.1 167.94"/>
<path d="M325.16 195.02L320.13 190.38"/>
<path d="M378.16 244.92L373.13 240.28"/>
<path d="M228.83 82.06L221.1 74.32"/>
<path d="M223.03 74.32L230.77 82.06"/>
<path d="M341.41 329.26L341.41 329.64M341.41 329.64L341.41 330.03M341.41 330.03L341.79 330.42M341.79 330.42L341.79 330.8M341.79 330.8L342.18 331.19M342.18 331.19L342.57 331.58M342.57 331.58L342.95 331.96M342.95 331.96L343.34 331.96M343.34 331.96L343.73 331.96M343.73 331.96L344.11 331.96"/>
<path d="M341.41 328.87L341.41 329.26"/>
<path d="M341.41 328.1L341.41 328.87"/>
<path d="M341.41 326.55L341.41 328.1"/>
<path d="M341.41 323.07L341.41 326.55"/>
<path d="M337.15 98.69L337.15 85.93"/>
<path d="M338.7 197.34L338.7 205.85"/>
<path d="M338.7 229.45L338.7 237.96"/>
<path d="M341.41 305.27L341.41 323.07"/>
<path d="M343.73 196.18L343.73 197.34"/>
<path d="M343.73 237.96L343.73 239.12"/>
<path d="M344.11 305.27L344.11 321.52"/>
<path d="M344.5 239.12L344.5 244.92"/>
<path d="M344.5 196.18L344.5 190.38"/>
<path d="M345.66 153.63L345.66 155.17"/>
<path d="M345.66 280.13L345.66 281.29"/>
<path d="M349.14 76.64L349.14 85.93"/>
<path d="M349.14 101.4L349.14 112.23"/>
<path d="M352.62 281.29L352.62 280.13"/>
<path d="M352.62 155.17L352.62 153.63"/>
<path d="M320.13 244.92L325.16 240.28"/>
<path d="M373.13 195.02L378.16 190.38"/>
<path d="M494.98 157.88L103.11 157.88"/>
<path d="M497.69 155.17L100.4 155.17"/>
<path d="M93.05 153.63L505.04 153.63"/>
<path d="M358.43 195.02L353.79 190.38"/>
<path d="M411.43 244.92L406.78 240.28"/>
<path d="M353.79 190.38L353.79 196.18"/>
<path d="M353.79 244.92L353.79 239.12"/>
<path d="M354.56 239.12L354.56 237.96"/>
<path d="M354.56 197.34L354.56 196.18"/>
<path d="M359.59 237.96L359.59 229.45"/>
<path d="M359.59 205.85L359.59 197.34"/>
<path d="M360.75 101.4L360.75 87.86"/>
<path d="M363.46 90.18L363.46 133.51"/>
<path d="M366.94 82.06L366.94 87.86"/>
<path d="M369.65 82.06L369.65 87.86"/>
<path d="M353.79 244.92L358.43 240.28"/>
<path d="M93.05 147.82L98.46 147.82"/>
<path d="M118.19 147.82L206.78 147.82"/>
<path d="M390.92 147.82L479.9 147.82"/>
<path d="M499.63 147.82L505.04 147.82"/>
<path d="M90.73 145.5L96.14 145.5"/>
<path d="M120.13 145.5L204.46 145.5"/>
<path d="M393.24 145.5L477.58 145.5"/>
<path d="M501.95 145.5L507.36 145.5"/>
<path d="M79.51 137.38L76.8 137.38"/>
<path d="M518.58 137.38L521.29 137.38"/>
<path d="M517.42 136.22L507.36 136.22"/>
<path d="M472.16 136.22L404.08 136.22"/>
<path d="M193.63 136.22L125.93 136.22"/>
<path d="M90.34 136.22L80.67 136.22"/>
<path d="M517.42 133.51L510.07 133.51"/>
<path d="M469.45 133.51L406.78 133.51"/>
<path d="M190.92 133.51L128.64 133.51"/>
<path d="M87.63 133.51L80.67 133.51"/>
<path d="M206.78 133.51L234.64 133.51"/>
<path d="M363.46 133.51L390.92 133.51"/>
<path d="M267.9 133.12L329.8 133.12"/>
<path d="M488.41 312.23L490.73 314.56"/>
<path d="M391.7 195.02L387.05 190.38"/>
<path d="M371.97 197.34L371.97 205.85"/>
<path d="M371.97 229.45L371.97 237.96"/>
<path d="M372.35 299.08L372.35 305.27"/>
<path d="M377 196.18L377 197.34"/>
<path d="M377 237.96L377 239.12"/>
<path d="M378.16 239.12L378.16 244.92"/>
<path d="M378.16 196.18L378.16 190.38"/>
<path d="M378.93 153.63L378.93 155.17"/>
<path d="M378.93 281.29L378.93 280.13"/>
<path d="M379.32 318.81L379.32 299.08"/>
<path d="M382.03 318.81L382.03 299.08"/>
<path d="M386.28 153.63L386.28 155.17"/>
<path d="M386.28 281.29L386.28 280.13"/>
<path d="M387.05 190.38L387.05 196.18"/>
<path d="M387.05 244.92L387.05 239.12"/>
<path d="M406.78 195.02L411.43 190.38"/>
<path d="M499.63 111.07L501.95 108.75"/>
<path d="M317.81 123.07L280.28 123.07"/>
<path d="M444.69 244.92L440.05 240.28"/>
<path d="M488.41 282.06L490.73 284.38"/>
<path d="M388.21 239.12L388.21 237.96"/>
<path d="M388.21 197.34L388.21 196.18"/>
<path d="M388.6 87.86L388.6 90.18"/>
<path d="M390.92 92.89L390.92 147.82"/>
<path d="M392.86 237.96L392.86 229.45"/>
<path d="M392.86 205.85L392.86 197.34"/>
<path d="M393.24 92.89L393.24 145.5"/>
<path d="M404.08 136.22L404.08 93.28"/>
<path d="M387.05 244.92L391.7 240.28"/>
<path d="M440.05 195.02L444.69 190.38"/>
<path d="M499.63 147.82L501.95 145.5"/>
<path d="M280.28 113.39L317.81 113.39"/>
<path d="M349.14 112.23L329.8 112.23"/>
<path d="M267.9 112.23L248.95 112.23"/>
<path d="M280.28 111.07L317.81 111.07"/>
<path d="M98.46 111.07L118.19 111.07"/>
<path d="M479.9 111.07L499.63 111.07"/>
<path d="M128.64 109.91L190.92 109.91"/>
<path d="M406.78 109.91L469.45 109.91"/>
<path d="M96.14 108.75L120.13 108.75"/>
<path d="M477.58 108.75L501.95 108.75"/>
<path d="M472.16 104.5L469.45 104.5"/>
<path d="M90.34 104.5L87.63 104.5"/>
<path d="M125.93 104.5L128.64 104.5"/>
<path d="M507.36 104.5L510.07 104.5"/>
<path d="M506.2 103.34L473.32 103.34"/>
<path d="M124.77 103.34L91.89 103.34"/>
<path d="M360.75 101.4L317.81 101.4"/>
<path d="M280.28 101.4L236.96 101.4"/>
<path d="M506.2 100.63L473.32 100.63"/>
<path d="M124.77 100.63L91.89 100.63"/>
<path d="M234.64 98.69L280.28 98.69"/>
<path d="M317.81 98.69L363.46 98.69"/>
<path d="M505.04 282.06L507.36 284.38"/>
<path d="M425.35 195.02L420.32 190.38"/>
<path d="M478.35 244.92L473.32 240.28"/>
<path d="M405.62 197.34L405.62 205.85"/>
<path d="M405.62 229.45L405.62 237.96"/>
<path d="M406.78 133.51L406.78 93.28"/>
<path d="M410.26 196.18L410.26 197.34"/>
<path d="M410.26 237.96L410.26 239.12"/>
<path d="M411.43 239.12L411.43 244.92"/>
<path d="M411.43 196.18L411.43 190.38"/>
<path d="M412.59 153.63L412.59 155.17"/>
<path d="M412.59 280.13L412.59 281.29"/>
<path d="M419.55 281.29L419.55 280.13"/>
<path d="M419.55 155.17L419.55 153.63"/>
<path d="M420.32 190.38L420.32 196.18"/>
<path d="M420.32 244.92L420.32 239.12"/>
<path d="M421.48 239.12L421.48 237.96"/>
<path d="M421.48 197.34L421.48 196.18"/>
<path d="M505.04 147.82L507.36 145.5"/>
<path d="M420.32 244.92L425.35 240.28"/>
<path d="M473.32 195.02L478.35 190.38"/>
<path d="M193.63 93.28L190.92 93.28"/>
<path d="M404.08 93.28L406.78 93.28"/>
<path d="M393.24 92.89L390.92 92.89"/>
<path d="M204.46 92.89L206.78 92.89"/>
<path d="M209.49 90.18L234.64 90.18"/>
<path d="M363.46 90.18L388.6 90.18"/>
<path d="M209.49 87.86L228.06 87.86"/>
<path d="M369.65 87.86L388.6 87.86"/>
<path d="M366.94 87.86L360.75 87.86"/>
<path d="M236.96 87.86L230.77 87.86"/>
<path d="M248.95 85.93L349.14 85.93"/>
<path d="M399.82 82.06L369.65 82.06"/>
<path d="M228.06 82.06L198.27 82.06"/>
<path d="M458.62 195.02L453.98 190.38"/>
<path d="M426.51 237.96L426.51 229.45"/>
<path d="M426.51 205.85L426.51 197.34"/>
<path d="M210.26 74.32L246.24 74.32"/>
<path d="M351.46 74.32L387.83 74.32"/>
<path d="M325.16 71.61L272.55 71.61"/>
<path d="M366.94 87.86L371.19 90.18"/>
<path d="M515.1 267.36L512.39 264.27"/>
<path d="M507.36 236.41L505.04 233.7"/>
<path d="M438.89 197.34L438.89 205.85"/>
<path d="M438.89 229.45L438.89 237.96"/>
<path d="M443.92 196.18L443.92 197.34"/>
<path d="M443.92 237.96L443.92 239.12"/>
<path d="M444.69 239.12L444.69 244.92"/>
<path d="M444.69 196.18L444.69 190.38"/>
<path d="M445.86 153.63L445.86 155.17"/>
<path d="M445.86 281.29L445.86 280.13"/>
<path d="M452.82 153.63L452.82 155.17"/>
<path d="M452.82 281.29L452.82 280.13"/>
<path d="M453.98 190.38L453.98 196.18"/>
<path d="M453.98 244.92L453.98 239.12"/>
<path d="M454.75 239.12L454.75 237.96"/>
<path d="M454.75 197.34L454.75 196.18"/>
<path d="M512.39 171.03L515.1 167.94"/>
<path d="M453.98 244.92L458.62 240.28"/>
<path d="M458.23 299.08L458.23 320.36"/>
<path d="M459.78 237.96L459.78 229.45"/>
<path d="M459.78 205.85L459.78 197.34"/>
<path d="M460.94 323.07L460.94 296.76"/>
<path d="M466.36 314.56L466.36 287.09"/>
<path d="M468.68 312.23L468.68 284.77"/>
<path d="M469.45 104.5L469.45 133.51"/>
<path d="M472.16 104.5L472.16 136.22"/>
<path d="M472.16 197.34L472.16 205.85"/>
<path d="M472.16 229.45L472.16 237.96"/>
<path d="M505.04 201.6L507.36 198.89"/>
<path d="M479.9 147.82L477.58 145.5"/>
<path d="M515.1 198.89L512.39 195.79"/>
<path d="M473.32 103.34L473.32 100.63"/>
<path d="M477.19 196.18L477.19 197.34"/>
<path d="M477.19 237.96L477.19 239.12"/>
<path d="M477.58 145.5L477.58 108.75"/>
<path d="M478.35 239.12L478.35 244.92"/>
<path d="M478.35 196.18L478.35 190.38"/>
<path d="M479.12 281.29L479.12 280.13"/>
<path d="M479.12 155.17L479.12 153.63"/>
<path d="M479.9 147.82L479.9 111.07"/>
<path d="M481.45 237.96L481.45 197.34"/>
<path d="M484.15 196.18L484.15 197.34"/>
<path d="M484.15 237.96L484.15 239.12"/>
<path d="M488.02 239.12L488.02 196.18"/>
<path d="M488.41 282.06L488.41 312.23"/>
<path d="M489.57 239.12L489.57 196.18"/>
<path d="M512.39 239.51L515.1 236.41"/>
<path d="M468.68 284.77L466.36 287.09"/>
<path d="M507.36 167.94L505.04 165.23"/>
<path d="M490.73 284.38L490.73 314.56"/>
<path d="M494.98 277.42L494.98 254.59"/>
<path d="M494.98 180.71L494.98 157.88"/>
<path d="M495.76 249.18L495.76 186.12"/>
<path d="M496.53 323.07L496.53 296.76"/>
<path d="M497.69 280.13L497.69 257.3"/>
<path d="M497.69 178L497.69 155.17"/>
<path d="M498.08 246.47L498.08 188.83"/>
<path d="M498.85 320.36L498.85 299.08"/>
<path d="M499.63 111.07L499.63 147.82"/>
<path d="M500.4 153.63L500.4 175.68"/>
<path d="M500.4 259.24L500.4 281.29"/>
<path d="M501.95 108.75L501.95 145.5"/>
<path d="M503.5 220.94L503.5 219"/>
<path d="M503.5 216.3L503.5 197.73"/>
<path d="M505.04 282.06L505.04 259.24"/>
<path d="M505.04 244.15L505.04 191.15"/>
<path d="M505.04 175.68L505.04 147.82"/>
<path d="M506.2 103.34L506.2 100.63"/>
<path d="M507.36 284.38L507.36 259.24"/>
<path d="M507.36 244.15L507.36 191.15"/>
<path d="M507.36 175.68L507.36 145.5"/>
<path d="M505.04 270.07L507.36 267.36"/>
<path d="M468.68 312.23L466.36 314.56"/>
<path d="M479.9 111.07L477.58 108.75"/>
<path d="M507.36 136.22L507.36 104.5"/>
<path d="M508.14 257.3L508.14 246.47"/>
<path d="M508.14 188.83L508.14 178"/>
<path d="M510.07 133.51L510.07 104.5"/>
<path d="M510.85 254.59L510.85 249.18"/>
<path d="M510.85 186.12L510.85 180.71"/>
<path d="M512.39 264.27L512.39 239.51"/>
<path d="M512.39 195.79L512.39 171.03"/>
<path d="M515.1 267.36L515.1 236.41"/>
<path d="M515.1 198.89L515.1 167.94"/>
<path d="M517.42 296.76L517.42 299.08"/>
<path d="M517.42 136.22L517.42 133.51"/>
<path d="M518.58 295.21L518.58 137.38"/>
<path d="M521.29 295.21L521.29 137.38"/>
<path d="M216.07 318.81L216.07 320.36M216.07 320.36L216.45 321.52M216.45 321.52L216.84 323.07M216.84 323.07L217.23 324.23M217.23 324.23L217.61 325.39M217.61 325.39L218.39 326.16M218.39 326.16L219.16 327.32M219.16 327.32L219.94 328.1M219.94 328.1L220.71 329.26M220.71 329.26L221.87 330.03M221.87 330.03L223.03 330.42M223.03 330.42L224.19 331.19M224.19 331.19L225.35 331.58M225.35 331.58L226.51 331.96M226.51 331.96L228.06 331.96M228.06 331.96L229.22 331.96"/>
<path d="M218.77 318.81L218.77 320.36M218.77 320.36L219.16 321.52"/>
<path d="M76.8 295.21L77.19 296.76M77.19 296.76L77.96 297.92M77.96 297.92L79.12 299.08M79.12 299.08L80.67 299.08"/>
<path d="M89.95 246.47L88.79 246.86M88.79 246.86L88.02 247.24M88.02 247.24L87.63 248.02M87.63 248.02L87.25 249.18"/>
<path d="M87.25 254.59L87.63 255.37M87.63 255.37L88.02 256.53M88.02 256.53L88.79 256.92M88.79 256.92L89.95 257.3"/>
<path d="M137.15 323.07L138.31 322.68M138.31 322.68L139.08 322.29M139.08 322.29L139.47 321.13M139.47 321.13L139.86 320.36"/>
<path d="M98.85 320.36L99.24 321.13M99.24 321.13L99.63 322.29M99.63 322.29L100.4 322.68M100.4 322.68L101.56 323.07"/>
<path d="M79.51 295.21L79.9 296.37M79.9 296.37L80.67 296.76"/>
<path d="M291.89 239.51L291.5 240.28"/>
<path d="M291.12 239.12L291.89 239.51"/>
<path d="M258.23 239.51L258.23 240.28"/>
<path d="M257.85 239.12L258.23 239.51"/>
<path d="M224.96 239.51L224.58 240.28"/>
<path d="M224.19 239.12L224.96 239.51"/>
<path d="M191.31 239.51L191.31 240.28"/>
<path d="M190.92 239.12L191.31 239.51"/>
<path d="M158.04 239.51L158.04 240.28"/>
<path d="M157.27 239.12L158.04 239.51"/>
<path d="M124.77 239.51L124.38 240.28"/>
<path d="M124 239.12L124.77 239.51"/>
<path d="M273.32 239.12L272.93 239.51"/>
<path d="M272.93 239.51L272.93 240.28"/>
<path d="M240.05 239.12L239.28 239.51"/>
<path d="M239.28 239.51L239.66 240.28"/>
<path d="M206.4 239.12L206.01 239.51"/>
<path d="M206.01 239.51L206.01 240.28"/>
<path d="M173.13 239.12L172.35 239.51"/>
<path d="M172.35 239.51L172.74 240.28"/>
<path d="M139.86 239.12L139.08 239.51"/>
<path d="M139.08 239.51L139.08 240.28"/>
<path d="M80.67 133.51L79.12 133.9M79.12 133.9L77.96 134.67M77.96 134.67L77.19 135.83M77.19 135.83L76.8 137.38"/>
<path d="M87.25 186.12L87.63 186.9M87.63 186.9L88.02 188.06M88.02 188.06L88.79 188.44M88.79 188.44L89.95 188.83"/>
<path d="M89.95 178L88.79 178.38M88.79 178.38L88.02 178.77M88.02 178.77L87.63 179.93M87.63 179.93L87.25 180.71"/>
<path d="M80.67 136.22L79.9 136.61M79.9 136.61L79.51 137.38"/>
<path d="M124.77 195.79L124 196.18"/>
<path d="M124.38 195.02L124.77 195.79"/>
<path d="M158.04 195.79L157.27 196.18"/>
<path d="M158.04 195.02L158.04 195.79"/>
<path d="M172.74 195.02L172.35 195.79"/>
<path d="M172.35 195.79L173.13 196.18"/>
<path d="M139.08 195.02L139.08 195.79"/>
<path d="M139.08 195.79L139.86 196.18"/>
<path d="M128.64 104.5L128.25 102.95M128.25 102.95L127.48 101.79M127.48 101.79L126.32 101.01M126.32 101.01L124.77 100.63"/>
<path d="M91.89 100.63L90.34 101.01M90.34 101.01L88.79 101.79M88.79 101.79L88.02 102.95M88.02 102.95L87.63 104.5"/>
<path d="M91.89 103.34L90.73 103.72M90.73 103.72L90.34 104.5"/>
<path d="M125.93 104.5L125.54 103.72M125.54 103.72L124.77 103.34"/>
<path d="M191.31 195.79L190.92 196.18"/>
<path d="M191.31 195.02L191.31 195.79"/>
<path d="M224.96 195.79L224.19 196.18"/>
<path d="M224.58 195.02L224.96 195.79"/>
<path d="M258.23 195.79L257.85 196.18"/>
<path d="M258.23 195.02L258.23 195.79"/>
<path d="M291.89 195.79L291.12 196.18"/>
<path d="M291.5 195.02L291.89 195.79"/>
<path d="M272.93 195.02L272.93 195.79"/>
<path d="M272.93 195.79L273.32 196.18"/>
<path d="M239.66 195.02L239.28 195.79"/>
<path d="M239.28 195.79L240.05 196.18"/>
<path d="M206.01 195.02L206.01 195.79"/>
<path d="M206.01 195.79L206.4 196.18"/>
<path d="M210.26 74.32L208.33 74.32M208.33 74.32L206.4 74.71M206.4 74.71L204.46 75.1M204.46 75.1L202.91 75.87M202.91 75.87L200.98 76.64M200.98 76.64L199.43 77.42M199.43 77.42L197.89 78.58M197.89 78.58L196.72 79.74M196.72 79.74L195.56 81.29M195.56 81.29L194.4 82.45M194.4 82.45L193.24 84.38M193.24 84.38L192.47 85.93M192.47 85.93L192.08 87.48M192.08 87.48L191.31 89.41M191.31 89.41L191.31 91.34M191.31 91.34L190.92 93.28"/>
<path d="M198.27 82.06L197.11 83.22M197.11 83.22L196.34 84.38M196.34 84.38L195.56 85.93M195.56 85.93L194.79 87.09M194.79 87.09L194.4 88.64M194.4 88.64L194.02 90.18M194.02 90.18L193.63 91.73M193.63 91.73L193.63 93.28"/>
<path d="M209.49 87.86L207.56 88.25M207.56 88.25L206.01 89.41M206.01 89.41L204.85 90.96M204.85 90.96L204.46 92.89"/>
<path d="M228.06 82.06L228.83 82.06"/>
<path d="M209.49 90.18L208.33 90.57M208.33 90.57L207.56 90.96M207.56 90.96L207.17 92.12M207.17 92.12L206.78 92.89"/>
<path d="M234.64 98.69L234.64 99.85M234.64 99.85L235.41 100.63M235.41 100.63L236.18 101.4M236.18 101.4L236.96 101.4"/>
<path d="M260.94 98.69L260.94 99.85M260.94 99.85L261.72 100.63M261.72 100.63L262.49 101.4M262.49 101.4L263.26 101.4"/>
<path d="M248.95 76.64L248.95 75.87M248.95 75.87L248.18 75.1M248.18 75.1L247.4 74.32M247.4 74.32L246.24 74.32"/>
<path d="M368.87 331.96L370.03 331.96M370.03 331.96L371.19 331.96M371.19 331.96L372.74 331.58M372.74 331.58L373.9 331.19M373.9 331.19L375.06 330.42M375.06 330.42L376.22 330.03M376.22 330.03L377 329.26M377 329.26L378.16 328.1M378.16 328.1L378.93 327.32M378.93 327.32L379.7 326.16M379.7 326.16L380.48 325.39M380.48 325.39L380.86 324.23M380.86 324.23L381.25 323.07M381.25 323.07L381.64 321.52M381.64 321.52L381.64 320.36M381.64 320.36L382.03 318.81"/>
<path d="M378.93 321.52L379.32 320.36M379.32 320.36L379.32 318.81"/>
<path d="M517.42 299.08L518.97 299.08M518.97 299.08L520.13 297.92M520.13 297.92L520.9 296.76M520.9 296.76L521.29 295.21"/>
<path d="M510.85 249.18L510.46 248.02M510.46 248.02L510.07 247.24M510.07 247.24L508.91 246.86M508.91 246.86L508.14 246.47"/>
<path d="M508.14 257.3L508.91 256.92M508.91 256.92L510.07 256.53M510.07 256.53L510.46 255.37M510.46 255.37L510.85 254.59"/>
<path d="M458.23 320.36L458.23 321.13M458.23 321.13L459.01 322.29M459.01 322.29L459.78 322.68M459.78 322.68L460.94 323.07"/>
<path d="M496.53 323.07L497.31 322.68M497.31 322.68L498.08 322.29M498.08 322.29L498.85 321.13M498.85 321.13L498.85 320.36"/>
<path d="M517.42 296.76L518.2 296.37M518.2 296.37L518.58 295.21"/>
<path d="M459.01 239.51L458.62 240.28"/>
<path d="M458.23 239.12L459.01 239.51"/>
<path d="M425.35 239.51L425.35 240.28"/>
<path d="M424.97 239.12L425.35 239.51"/>
<path d="M392.08 239.51L391.7 240.28"/>
<path d="M391.31 239.12L392.08 239.51"/>
<path d="M358.43 239.51L358.43 240.28"/>
<path d="M358.04 239.12L358.43 239.51"/>
<path d="M325.16 239.51L325.16 240.28"/>
<path d="M324.38 239.12L325.16 239.51"/>
<path d="M474.1 239.12L473.32 239.51"/>
<path d="M473.32 239.51L473.32 240.28"/>
<path d="M440.44 239.12L440.05 239.51"/>
<path d="M440.05 239.51L440.05 240.28"/>
<path d="M407.17 239.12L406.4 239.51"/>
<path d="M406.4 239.51L406.78 240.28"/>
<path d="M373.51 239.12L373.13 239.51"/>
<path d="M373.13 239.51L373.13 240.28"/>
<path d="M340.25 239.12L339.47 239.51"/>
<path d="M339.47 239.51L339.86 240.28"/>
<path d="M306.98 239.12L306.2 239.51"/>
<path d="M306.2 239.51L306.2 240.28"/>
<path d="M406.78 93.28L406.78 91.34M406.78 91.34L406.4 89.41M406.4 89.41L406.01 87.48M406.01 87.48L405.24 85.93M405.24 85.93L404.46 84.38M404.46 84.38L403.69 82.45M403.69 82.45L402.53 81.29M402.53 81.29L401.37 79.74M401.37 79.74L399.82 78.58M399.82 78.58L398.66 77.42M398.66 77.42L396.73 76.64M396.73 76.64L395.18 75.87M395.18 75.87L393.63 75.1M393.63 75.1L391.7 74.71M391.7 74.71L389.76 74.32M389.76 74.32L387.83 74.32"/>
<path d="M404.08 93.28L404.08 91.73M404.08 91.73L404.08 90.18M404.08 90.18L403.69 88.64M403.69 88.64L403.3 87.09M403.3 87.09L402.53 85.93M402.53 85.93L401.75 84.38M401.75 84.38L400.98 83.22M400.98 83.22L399.82 82.06"/>
<path d="M393.24 92.89L392.86 90.96M392.86 90.96L392.08 89.41M392.08 89.41L390.54 88.25M390.54 88.25L388.6 87.86"/>
<path d="M521.29 137.38L520.9 135.83M520.9 135.83L520.13 134.67M520.13 134.67L518.97 133.9M518.97 133.9L517.42 133.51"/>
<path d="M473.32 100.63L471.77 101.01M471.77 101.01L470.61 101.79M470.61 101.79L469.84 102.95M469.84 102.95L469.45 104.5"/>
<path d="M510.07 104.5L509.69 102.95M509.69 102.95L508.91 101.79M508.91 101.79L507.75 101.01M507.75 101.01L506.2 100.63"/>
<path d="M368.87 82.06L369.65 82.06"/>
<path d="M508.14 188.83L508.91 188.44M508.91 188.44L510.07 188.06M510.07 188.06L510.46 186.9M510.46 186.9L510.85 186.12"/>
<path d="M510.85 180.71L510.46 179.93M510.46 179.93L510.07 178.77M510.07 178.77L508.91 178.38M508.91 178.38L508.14 178"/>
<path d="M390.92 92.89L390.92 92.12M390.92 92.12L390.15 90.96M390.15 90.96L389.38 90.57M389.38 90.57L388.6 90.18"/>
<path d="M360.75 101.4L361.91 101.4M361.91 101.4L362.68 100.63M362.68 100.63L363.07 99.85M363.07 99.85L363.46 98.69"/>
<path d="M334.44 101.4L335.6 101.4M335.6 101.4L336.38 100.63M336.38 100.63L336.76 99.85M336.76 99.85L337.15 98.69"/>
<path d="M351.46 74.32L350.69 74.32M350.69 74.32L349.92 75.1M349.92 75.1L349.14 75.87M349.14 75.87L349.14 76.64"/>
<path d="M473.32 103.34L472.55 103.72M472.55 103.72L472.16 104.5"/>
<path d="M507.36 104.5L506.98 103.72M506.98 103.72L506.2 103.34"/>
<path d="M518.58 137.38L518.2 136.61M518.2 136.61L517.42 136.22"/>
<path d="M325.16 195.79L324.38 196.18"/>
<path d="M325.16 195.02L325.16 195.79"/>
<path d="M358.43 195.79L358.04 196.18"/>
<path d="M358.43 195.02L358.43 195.79"/>
<path d="M392.08 195.79L391.31 196.18"/>
<path d="M391.7 195.02L392.08 195.79"/>
<path d="M425.35 195.79L424.97 196.18"/>
<path d="M425.35 195.02L425.35 195.79"/>
<path d="M459.01 195.79L458.23 196.18"/>
<path d="M458.62 195.02L459.01 195.79"/>
<path d="M473.32 195.02L473.32 195.79"/>
<path d="M473.32 195.79L474.1 196.18"/>
<path d="M440.05 195.02L440.05 195.79"/>
<path d="M440.05 195.79L440.44 196.18"/>
<path d="M406.78 195.02L406.4 195.79"/>
<path d="M406.4 195.79L407.17 196.18"/>
<path d="M373.13 195.02L373.13 195.79"/>
<path d="M373.13 195.79L373.51 196.18"/>
<path d="M339.86 195.02L339.47 195.79"/>
<path d="M339.47 195.79L340.25 196.18"/>
<path d="M306.2 195.02L306.2 195.79"/>
<path d="M306.2 195.79L306.98 196.18"/>
<path d="M100.4 178L100.79 178.38M100.79 178.38L100.79 178.77M100.79 178.77L101.17 178.77M101.17 178.77L101.56 179.16M101.56 179.16L101.56 179.55M101.56 179.55L101.95 179.93M101.95 179.93L102.33 179.93M102.33 179.93L102.33 180.32M102.33 180.32L102.72 180.71M102.72 180.71L103.11 180.71"/>
<path d="M100.4 155.17L100.79 155.56M100.79 155.56L101.17 155.95M101.17 155.95L101.56 156.33M101.56 156.33L101.95 156.72M101.95 156.72L102.33 157.11M102.33 157.11L102.72 157.49M102.72 157.49L103.11 157.88"/>
<path d="M497.69 155.17L497.31 155.56M497.31 155.56L496.92 155.56M496.92 155.56L496.92 155.95M496.92 155.95L496.53 156.33M496.53 156.33L496.15 156.33M496.15 156.33L496.15 156.72M496.15 156.72L495.76 157.11M495.76 157.11L495.37 157.11M495.37 157.11L494.98 157.49M494.98 157.49L494.98 157.88"/>
<path d="M497.69 178L497.31 178.38M497.31 178.38L496.92 178.77M496.92 178.77L496.53 179.16M496.53 179.16L496.15 179.55M496.15 179.55L496.15 179.93M496.15 179.93L495.76 179.93M495.76 179.93L495.37 180.32M495.37 180.32L494.98 180.71"/>
<path d="M498.08 188.83L498.08 188.44M498.08 188.44L497.69 188.06M497.69 188.06L497.31 188.06M497.31 188.06L497.31 187.67M497.31 187.67L496.92 187.28M496.92 187.28L496.53 187.28M496.53 187.28L496.53 186.9M496.53 186.9L496.15 186.51M496.15 186.51L495.76 186.51M495.76 186.51L495.76 186.12"/>
<path d="M498.08 246.47L498.08 246.86M498.08 246.86L497.69 247.24M497.69 247.24L497.31 247.24M497.31 247.24L497.31 247.63M497.31 247.63L496.92 248.02M496.92 248.02L496.53 248.02M496.53 248.02L496.53 248.4M496.53 248.4L496.15 248.79M496.15 248.79L495.76 248.79M495.76 248.79L495.76 249.18"/>
<path d="M497.69 257.3L497.31 256.92M497.31 256.92L496.92 256.53M496.92 256.53L496.92 256.14M496.92 256.14L496.53 256.14M496.53 256.14L496.15 255.75M496.15 255.75L496.15 255.37M496.15 255.37L495.76 255.37M495.76 255.37L495.37 254.98M495.37 254.98L494.98 254.59"/>
<path d="M497.69 280.13L497.31 279.74M497.31 279.74L496.92 279.74M496.92 279.74L496.92 279.35M496.92 279.35L496.53 278.97M496.53 278.97L496.15 278.97M496.15 278.97L496.15 278.58M496.15 278.58L495.76 278.19M495.76 278.19L495.37 278.19M495.37 278.19L494.98 277.8M494.98 277.8L494.98 277.42"/>
<path d="M103.11 277.42L102.72 277.8M102.72 277.8L102.33 278.19M102.33 278.19L101.95 278.58M101.95 278.58L101.56 278.97M101.56 278.97L101.17 279.35M101.17 279.35L100.79 279.74M100.79 279.74L100.4 280.13"/>
<path d="M100.4 257.3L100.79 256.92M100.79 256.92L100.79 256.53M100.79 256.53L101.17 256.14M101.17 256.14L101.56 256.14M101.56 256.14L101.56 255.75M101.56 255.75L101.95 255.37M101.95 255.37L102.33 255.37M102.33 255.37L102.33 254.98M102.33 254.98L102.72 254.59M102.72 254.59L103.11 254.59"/>
<path d="M99.63 246.47L100.01 246.86M100.01 246.86L100.4 247.24M100.4 247.24L100.79 247.63M100.79 247.63L101.17 248.02M101.17 248.02L101.56 248.4M101.56 248.4L101.95 248.79M101.95 248.79L102.33 249.18"/>
<path d="M99.63 188.83L100.01 188.44M100.01 188.44L100.4 188.06M100.4 188.06L100.79 187.67M100.79 187.67L101.17 187.28M101.17 187.28L101.56 186.9M101.56 186.9L101.95 186.51M101.95 186.51L102.33 186.12"/>
<path d="M253.98 331.96L253.98 331.58M253.98 331.58L253.98 331.19M253.98 331.19L253.98 330.8M253.98 330.8L253.98 330.42M253.98 330.42L253.98 329.64M253.98 329.64L253.98 328.87M253.98 328.87L253.98 328.1M253.98 328.1L253.98 327.32M253.98 327.32L253.98 326.55M253.98 326.55L253.98 325.77M253.98 325.77L253.98 324.61M253.98 324.61L253.98 323.84M253.98 323.84L253.98 322.68M253.98 322.68L253.98 321.52"/>
<path d="M139.86 299.08L139.47 299.08M139.47 299.08L139.08 298.69M139.08 298.69L139.08 298.31M139.08 298.31L138.7 298.31M138.7 298.31L138.31 297.92M138.31 297.92L138.31 297.53M138.31 297.53L137.92 297.53M137.92 297.53L137.54 297.15M137.54 297.15L137.54 296.76M137.54 296.76L137.15 296.76"/>
<path d="M406.78 133.51L406.4 133.9M406.4 133.9L406.01 134.28M406.01 134.28L405.62 134.67M405.62 134.67L405.24 135.06M405.24 135.06L404.85 135.44M404.85 135.44L404.46 135.83M404.46 135.83L404.08 136.22"/>
<path d="M228.83 82.06L229.22 82.06M229.22 82.06L229.61 82.06M229.61 82.06L229.61 81.67M229.61 81.67L229.99 81.67M229.99 81.67L230.38 81.67M230.38 81.67L230.38 82.06M230.38 82.06L230.77 82.06"/>
<path d="M228.06 87.86L228.45 87.86M228.45 87.86L228.83 88.25M228.83 88.25L229.22 88.25M229.22 88.25L229.61 88.25M229.61 88.25L229.99 88.25M229.99 88.25L229.99 88.64"/>
<path d="M367.71 88.64L368.1 88.25M368.1 88.25L368.49 88.25M368.49 88.25L368.87 88.25M368.87 88.25L369.26 88.25M369.26 88.25L369.65 87.86"/>
<path d="M367.32 82.06L367.71 81.67M367.71 81.67L368.1 81.67M368.1 81.67L368.49 82.06M368.49 82.06L368.87 82.06"/>
<path d="M236.96 87.86L236.57 88.25M236.57 88.25L236.18 88.64M236.18 88.64L235.8 89.02M235.8 89.02L235.41 89.41M235.41 89.41L235.02 89.8M235.02 89.8L234.64 90.18"/>
<path d="M360.75 87.86L361.14 87.86M361.14 87.86L361.52 88.25M361.52 88.25L361.52 88.64M361.52 88.64L361.91 88.64M361.91 88.64L362.3 89.02M362.3 89.02L362.3 89.41M362.3 89.41L362.68 89.41M362.68 89.41L363.07 89.8M363.07 89.8L363.07 90.18M363.07 90.18L363.46 90.18"/>
<path d="M399.82 82.06L400.21 82.06M400.21 82.06L400.59 82.06M400.59 82.06L400.98 82.06M400.98 82.06L401.37 81.67M401.37 81.67L401.75 81.29M401.75 81.29L401.75 80.9M401.75 80.9L401.75 80.51M401.75 80.51L401.75 80.13M401.75 80.13L401.37 80.13M401.37 80.13L401.37 79.74M401.37 79.74L400.98 79.74M400.98 79.74L400.98 79.35"/>
<path d="M197.11 79.35L196.72 79.74M196.72 79.74L196.34 80.13M196.34 80.13L196.34 80.51M196.34 80.51L196.34 80.9M196.34 80.9L196.34 81.29M196.34 81.29L196.34 81.67M196.34 81.67L196.72 81.67M196.72 81.67L196.72 82.06M196.72 82.06L197.11 82.06M197.11 82.06L197.5 82.06M197.5 82.06L197.89 82.06M197.89 82.06L198.27 82.06"/>
<path d="M344.11 321.52L344.11 322.68M344.11 322.68L344.11 323.84M344.11 323.84L344.11 324.61M344.11 324.61L344.11 325.77M344.11 325.77L344.11 326.55M344.11 326.55L344.11 327.32M344.11 327.32L344.11 328.1M344.11 328.1L344.11 328.87M344.11 328.87L344.11 329.64M344.11 329.64L344.11 330.42M344.11 330.42L344.11 330.8M344.11 330.8L344.11 331.19M344.11 331.19L344.11 331.58M344.11 331.58L344.11 331.96"/>
<path d="M368.87 331.96L369.26 331.96M369.26 331.96L369.65 331.96M369.65 331.96L370.42 331.96M370.42 331.96L370.81 331.96M370.81 331.96L371.19 331.58M371.19 331.58L371.97 331.58M371.97 331.58L372.35 331.19M372.35 331.19L372.74 330.8M372.74 330.8L373.51 330.8M373.51 330.8L373.9 330.42M373.9 330.42L374.29 330.03M374.29 330.03L374.67 329.64M374.67 329.64L375.06 329.64M375.06 329.64L375.45 328.87M375.45 328.87L375.84 328.48M375.84 328.48L376.22 328.1M376.22 328.1L376.61 327.32M376.61 327.32L377 326.93M377 326.93L377.38 326.16M377.38 326.16L377.77 325.39M377.77 325.39L378.16 324.61M378.16 324.61L378.16 324.23M378.16 324.23L378.54 323.45M378.54 323.45L378.54 322.68M378.54 322.68L378.93 321.91M378.93 321.91L378.93 321.52"/>
<path d="M229.22 331.96L228.83 331.96M228.83 331.96L228.06 331.96M228.06 331.96L227.67 331.96M227.67 331.96L227.29 331.96M227.29 331.96L226.51 331.58M226.51 331.58L226.12 331.58M226.12 331.58L225.74 331.19M225.74 331.19L224.96 330.8M224.96 330.8L224.58 330.8M224.58 330.8L224.19 330.42M224.19 330.42L223.42 330.03M223.42 330.03L223.03 329.64M223.03 329.64L222.64 328.87M222.64 328.87L222.26 328.48M222.26 328.48L221.87 328.1M221.87 328.1L221.48 327.32M221.48 327.32L221.1 326.93M221.1 326.93L220.71 326.16M220.71 326.16L220.32 325.39M220.32 325.39L219.94 324.61M219.94 324.61L219.55 324.23M219.55 324.23L219.55 323.45M219.55 323.45L219.16 322.68M219.16 322.68L219.16 321.91M219.16 321.91L219.16 321.52"/>
<path d="M190.92 133.51L191.31 133.51M191.31 133.51L191.7 133.9M191.7 133.9L191.7 134.28M191.7 134.28L192.08 134.28M192.08 134.28L192.47 134.67M192.47 134.67L192.47 135.06M192.47 135.06L192.86 135.44M192.86 135.44L193.24 135.44M193.24 135.44L193.63 135.83M193.63 135.83L193.63 136.22"/>
<path d="M128.64 133.51L128.25 133.51M128.25 133.51L127.87 133.9M127.87 133.9L127.87 134.28M127.87 134.28L127.48 134.28M127.48 134.28L127.09 134.67M127.09 134.67L127.09 135.06M127.09 135.06L126.7 135.44M126.7 135.44L126.32 135.44M126.32 135.44L126.32 135.83M126.32 135.83L125.93 136.22"/>
<path d="M87.63 133.51L88.02 133.51M88.02 133.51L88.41 133.9M88.41 133.9L88.41 134.28M88.41 134.28L88.79 134.28M88.79 134.28L89.18 134.67M89.18 134.67L89.18 135.06M89.18 135.06L89.57 135.44M89.57 135.44L89.95 135.44M89.95 135.44L89.95 135.83M89.95 135.83L90.34 136.22"/>
<path d="M98.85 299.08L99.24 299.08M99.24 299.08L99.63 298.69M99.63 298.69L99.63 298.31M99.63 298.31L100.01 298.31M100.01 298.31L100.4 297.92M100.4 297.92L100.4 297.53M100.4 297.53L100.79 297.53M100.79 297.53L101.17 297.15M101.17 297.15L101.17 296.76M101.17 296.76L101.56 296.76"/>
<path d="M460.94 296.76L460.56 296.76M460.56 296.76L460.17 297.15M460.17 297.15L460.17 297.53M460.17 297.53L459.78 297.53M459.78 297.53L459.39 297.92M459.39 297.92L459.39 298.31M459.39 298.31L459.01 298.31M459.01 298.31L458.62 298.69M458.62 298.69L458.62 299.08M458.62 299.08L458.23 299.08"/>
<path d="M496.53 296.76L496.92 297.15M496.92 297.15L497.31 297.53M497.31 297.53L497.69 297.92M497.69 297.92L498.08 298.31M498.08 298.31L498.47 298.69M498.47 298.69L498.85 299.08"/>
<path d="M510.07 133.51L509.69 133.9M509.69 133.9L509.3 134.28M509.3 134.28L508.91 134.67M508.91 134.67L508.52 135.06M508.52 135.06L508.52 135.44M508.52 135.44L508.14 135.44M508.14 135.44L507.75 135.83M507.75 135.83L507.36 136.22"/>
<path d="M469.45 133.51L469.84 133.51M469.84 133.51L469.84 133.9M469.84 133.9L470.23 134.28M470.23 134.28L470.61 134.28M470.61 134.28L470.61 134.67M470.61 134.67L471 135.06M471 135.06L471.39 135.44M471.39 135.44L471.77 135.83M471.77 135.83L472.16 136.22"/>
<path d="M129.03 153.63L129.03 155.17"/>
<path d="M129.03 281.29L129.03 280.13"/>
<path d="M134.83 153.63L134.83 155.17"/>
<path d="M134.83 281.29L134.83 280.13"/>
<path d="M162.29 153.63L162.29 155.17"/>
<path d="M162.29 281.29L162.29 280.13"/>
<path d="M168.1 153.63L168.1 155.17"/>
<path d="M168.1 281.29L168.1 280.13"/>
<path d="M195.56 153.63L195.56 155.17"/>
<path d="M195.56 281.29L195.56 280.13"/>
<path d="M201.75 153.63L201.75 155.17"/>
<path d="M201.75 281.29L201.75 280.13"/>
<path d="M229.22 153.63L229.22 155.17"/>
<path d="M229.22 281.29L229.22 280.13"/>
<path d="M235.02 153.63L235.02 155.17"/>
<path d="M235.02 281.29L235.02 280.13"/>
<path d="M262.49 153.63L262.49 155.17"/>
<path d="M262.49 281.29L262.49 280.13"/>
<path d="M268.68 153.63L268.68 155.17"/>
<path d="M268.68 281.29L268.68 280.13"/>
<path d="M125.54 229.45L137.92 229.45"/>
<path d="M159.2 229.45L171.58 229.45"/>
<path d="M192.47 229.45L204.85 229.45"/>
<path d="M225.74 229.45L238.5 229.45"/>
<path d="M259.39 229.45L271.77 229.45"/>
<path d="M292.66 229.45L305.04 229.45"/>
<path d="M326.32 229.45L338.7 229.45"/>
<path d="M359.59 229.45L371.97 229.45"/>
<path d="M392.86 229.45L405.62 229.45"/>
<path d="M426.51 229.45L438.89 229.45"/>
<path d="M459.78 229.45L472.16 229.45"/>
<path d="M296.14 153.63L296.14 155.17"/>
<path d="M296.14 281.29L296.14 280.13"/>
<path d="M472.16 205.85L459.78 205.85"/>
<path d="M438.89 205.85L426.51 205.85"/>
<path d="M405.62 205.85L392.86 205.85"/>
<path d="M371.97 205.85L359.59 205.85"/>
<path d="M338.7 205.85L326.32 205.85"/>
<path d="M305.04 205.85L292.66 205.85"/>
<path d="M271.77 205.85L259.39 205.85"/>
<path d="M238.5 205.85L225.74 205.85"/>
<path d="M204.85 205.85L192.47 205.85"/>
<path d="M171.58 205.85L159.2 205.85"/>
<path d="M137.92 205.85L125.54 205.85"/>
<path d="M301.95 153.63L301.95 155.17"/>
<path d="M301.95 281.29L301.95 280.13"/>
<path d="M329.41 153.63L329.41 155.17"/>
<path d="M329.41 281.29L329.41 280.13"/>
<path d="M335.22 153.63L335.22 155.17"/>
<path d="M335.22 281.29L335.22 280.13"/>
<path d="M362.68 153.63L362.68 155.17"/>
<path d="M362.68 281.29L362.68 280.13"/>
<path d="M368.87 153.63L368.87 155.17"/>
<path d="M368.87 281.29L368.87 280.13"/>
<path d="M396.34 153.63L396.34 155.17"/>
<path d="M396.34 281.29L396.34 280.13"/>
<path d="M402.14 153.63L402.14 155.17"/>
<path d="M402.14 281.29L402.14 280.13"/>
<path d="M429.61 153.63L429.61 155.17"/>
<path d="M429.61 281.29L429.61 280.13"/>
<path d="M435.8 153.63L435.8 155.17"/>
<path d="M435.8 281.29L435.8 280.13"/>
<path d="M463.26 153.63L463.26 155.17"/>
<path d="M463.26 281.29L463.26 280.13"/>
<path d="M469.07 153.63L469.07 155.17"/>
<path d="M469.07 281.29L469.07 280.13"/>
<path d="M48.7 187.28L50.46 186.39M50.46 186.39L53.12 183.74M53.12 183.74L53.12 202.31"/>
<path d="M33.51 238.06L35.28 237.17M35.28 237.17L37.93 234.52M37.93 234.52L37.93 253.09M48.54 238.94L48.54 238.06M48.54 238.06L49.42 236.29M49.42 236.29L50.31 235.41M50.31 235.41L52.08 234.52M52.08 234.52L55.61 234.52M55.61 234.52L57.38 235.41M57.38 235.41L58.27 236.29M58.27 236.29L59.15 238.06M59.15 238.06L59.15 239.83M59.15 239.83L58.27 241.6M58.27 241.6L56.5 244.25M56.5 244.25L47.65 253.09M47.65 253.09L60.03 253.09"/>
<path d="M538.16 187.28L539.93 186.39M539.93 186.39L542.59 183.74M542.59 183.74L542.59 202.31M552.31 187.28L554.08 186.39M554.08 186.39L556.73 183.74M556.73 183.74L556.73 202.31"/>
<path d="M537.31 238.94L537.31 238.06M537.31 238.06L538.2 236.29M538.2 236.29L539.08 235.41M539.08 235.41L540.85 234.52M540.85 234.52L544.39 234.52M544.39 234.52L546.16 235.41M546.16 235.41L547.04 236.29M547.04 236.29L547.92 238.06M547.92 238.06L547.92 239.83M547.92 239.83L547.04 241.6M547.04 241.6L545.27 244.25M545.27 244.25L536.43 253.09M536.43 253.09L548.81 253.09M555 238.94L555 238.06M555 238.06L555.88 236.29M555.88 236.29L556.77 235.41M556.77 235.41L558.54 234.52M558.54 234.52L562.07 234.52M562.07 234.52L563.84 235.41M563.84 235.41L564.72 236.29M564.72 236.29L565.61 238.06M565.61 238.06L565.61 239.83M565.61 239.83L564.72 241.6M564.72 241.6L562.96 244.25M562.96 244.25L554.11 253.09M554.11 253.09L566.49 253.09"/>
</g>
</g>
</svg>
