<?xml version="1.0" standalone="no"?><svg xmlns="http://www.w3.org/2000/svg" width="600.000" height="450.000" viewBox="0.0 0.0 600.000 450.000" version="1.1">
<title>Acme Converter - Post-processed with EDS-Designer: 14.44 (info@symca.com)</title>
<desc>Acme Converter - Post-processed with EDS-Designer: 14.44 (info@symca.com)</desc>
<g id="EDS_STYLE_GROUP" fill="none" stroke="black" stroke-width="1.0">
<g id="0" display="visible">
<path d="M252.55 386.74L253.79 390.44M253.79 390.44L253.79 383.03M253.79 383.03L252.55 386.74M252.55 386.74L250.08 384.27M250.08 384.27L246.38 383.03M246.38 383.03L243.91 383.03M243.91 383.03L240.2 384.27M240.2 384.27L237.73 386.74M237.73 386.74L236.5 389.21M236.5 389.21L235.26 392.91M235.26 392.91L235.26 399.09M235.26 399.09L236.5 402.79M236.5 402.79L237.73 405.26M237.73 405.26L240.2 407.73M240.2 407.73L243.91 408.97M243.91 408.97L246.38 408.97M246.38 408.97L250.08 407.73M250.08 407.73L252.55 405.26M243.91 383.03L241.44 384.27M241.44 384.27L238.97 386.74M238.97 386.74L237.73 389.21M237.73 389.21L236.5 392.91M236.5 392.91L236.5 399.09M236.5 399.09L237.73 402.79M237.73 402.79L238.97 405.26M238.97 405.26L241.44 407.73M241.44 407.73L243.91 408.97M252.55 399.09L252.55 408.97M253.79 399.09L253.79 408.97M248.85 399.09L257.49 399.09M267.37 408.97L267.37 383.03M268.61 383.03L268.61 408.97M263.67 383.03L278.48 383.03M278.48 383.03L282.19 384.27M282.19 384.27L283.42 385.5M283.42 385.5L284.66 387.97M284.66 387.97L284.66 390.44M284.66 390.44L283.42 392.91M283.42 392.91L282.19 394.15M282.19 394.15L278.48 395.38M278.48 395.38L268.61 395.38M278.48 383.03L280.95 384.27M280.95 384.27L282.19 385.5M282.19 385.5L283.42 387.97M283.42 387.97L283.42 390.44M283.42 390.44L282.19 392.91M282.19 392.91L280.95 394.15M280.95 394.15L278.48 395.38M263.67 408.97L272.31 408.97M274.78 395.38L277.25 396.62M277.25 396.62L278.48 397.85M278.48 397.85L282.19 406.5M282.19 406.5L283.42 407.73M283.42 407.73L284.66 407.73M284.66 407.73L285.89 406.5M277.25 396.62L278.48 399.09M278.48 399.09L280.95 407.73M280.95 407.73L282.19 408.97M282.19 408.97L284.66 408.97M284.66 408.97L285.89 406.5M285.89 406.5L285.89 405.26M294.54 408.97L294.54 383.03M295.77 383.03L295.77 408.97M303.18 390.44L303.18 400.32M290.83 383.03L310.59 383.03M310.59 383.03L310.59 390.44M310.59 390.44L309.36 383.03M295.77 395.38L303.18 395.38M290.83 408.97L310.59 408.97M310.59 408.97L310.59 401.56M310.59 401.56L309.36 408.97M320.47 408.97L320.47 383.03M321.71 383.03L321.71 408.97M329.12 390.44L329.12 400.32M316.77 383.03L336.52 383.03M336.52 383.03L336.52 390.44M336.52 390.44L335.29 383.03M321.71 395.38L329.12 395.38M316.77 408.97L336.52 408.97M336.52 408.97L336.52 401.56M336.52 401.56L335.29 408.97M346.4 408.97L346.4 383.03M347.64 408.97L347.64 383.03M347.64 383.03L362.46 406.5M347.64 385.5L362.46 408.97M362.46 408.97L362.46 383.03M342.7 383.03L347.64 383.03M358.75 383.03L366.16 383.03M342.7 408.97L350.11 408.97"/>
<path d="M332.68 290.29L333.66 289.78"/>
<path d="M333.66 289.78L332.68 289.78"/>
<path d="M332.68 289.78L332.68 290.29"/>
<path d="M406.65 289.78L406.65 314.88"/>
<path d="M406.65 314.88L358.87 314.88"/>
<path d="M406.65 289.78L385.02 289.78"/>
<path d="M406.65 141.44L406.65 166.55"/>
<path d="M406.65 166.55L385.02 166.55"/>
<path d="M406.65 141.44L358.87 141.44"/>
<path d="M333.66 166.55L332.68 166.55"/>
<path d="M333.66 166.55L332.68 166.03"/>
<path d="M332.68 166.03L332.68 166.55"/>
<path d="M437.66 125.47L386.31 125.47"/>
<path d="M215.15 125.47L163.81 125.47"/>
<path d="M264.2 125.47L237.97 125.47"/>
<path d="M267.44 125.47L264.2 125.47"/>
<path d="M337.26 125.47L334.03 125.47"/>
<path d="M363.49 125.47L337.26 125.47"/>
<path d="M363.49 74.12L363.49 125.47"/>
<path d="M394.7 336.86L409.04 328.28M409.04 328.28L421.05 316.67M421.05 316.67L430.11 302.63M430.11 302.63L435.75 286.9M435.75 286.9L437.66 270.31"/>
<path d="M437.66 125.47L437.66 270.31"/>
<path d="M386.31 125.47L386.31 76.52"/>
<path d="M386.31 76.52L384.79 68.31M384.79 68.31L380.41 61.21M380.41 61.21L373.78 56.15"/>
<path d="M373.78 56.15L360.39 50.13M360.39 50.13L346.52 45.35"/>
<path d="M346.52 45.35L343.74 45.42M343.74 45.42L341.52 47.08M341.52 47.08L340.67 49.73"/>
<path d="M340.67 49.73L340.67 53.58"/>
<path d="M340.67 53.58L342.01 56.81M342.01 56.81L345.23 58.15"/>
<path d="M345.23 58.15L347.51 58.15"/>
<path d="M363.49 74.12L362.27 68.01M362.27 68.01L358.81 62.83M358.81 62.83L353.63 59.36M353.63 59.36L347.51 58.15"/>
<path d="M337.26 125.47L337.26 128.01"/>
<path d="M337.26 128.01L337.85 129.93M337.85 129.93L339.42 131.19"/>
<path d="M223.26 298.15L222 298.15"/>
<path d="M222 296.73L222 298.15"/>
<path d="M262.05 131.19L263.61 129.93M263.61 129.93L264.2 128.01"/>
<path d="M264.2 125.47L264.2 128.01"/>
<path d="M237.97 125.47L237.97 74.12"/>
<path d="M253.95 58.15L247.84 59.36M247.84 59.36L242.65 62.83M242.65 62.83L239.19 68.01M239.19 68.01L237.97 74.12"/>
<path d="M253.95 58.15L256.23 58.15"/>
<path d="M256.23 58.15L258.51 57.54M258.51 57.54L260.18 55.86M260.18 55.86L260.8 53.58"/>
<path d="M260.8 53.58L260.8 49.73"/>
<path d="M260.8 49.73L259.95 47.08M259.95 47.08L257.72 45.42M257.72 45.42L254.94 45.35"/>
<path d="M254.94 45.35L241.07 50.13M241.07 50.13L227.69 56.15"/>
<path d="M227.69 56.15L221.05 61.21M221.05 61.21L216.68 68.31M216.68 68.31L215.15 76.52"/>
<path d="M215.15 76.52L215.15 125.47"/>
<path d="M163.81 270.31L163.81 125.47"/>
<path d="M163.81 270.31L165.72 286.9M165.72 286.9L171.35 302.63M171.35 302.63L180.41 316.67M180.41 316.67L192.43 328.28M192.43 328.28L206.76 336.86"/>
<path d="M206.76 336.86L232.61 346.7M232.61 346.7L259.45 353.34M259.45 353.34L286.9 356.68M286.9 356.68L314.56 356.68M314.56 356.68L342.01 353.34M342.01 353.34L368.86 346.7M368.86 346.7L394.7 336.86"/>
<path d="M337.26 63.85L337.26 69.56"/>
<path d="M334.66 63.85L337.26 63.85"/>
<path d="M334.65 63.85L334.56 64.92"/>
<path d="M334.55 64.92L332.83 101.86"/>
<path d="M332.82 101.86L332.69 112.2"/>
<path d="M332.68 126.3L332.68 112.2"/>
<path d="M337.26 128.01L332.68 126.3"/>
<path d="M334.03 125.47L334.01 125.44M334.01 125.44L334 125.38M334 125.38L333.93 124.23M333.93 124.23L333.83 116.34"/>
<path d="M333.94 108.07L333.83 116.34"/>
<path d="M333.94 108.07L334.68 92.31"/>
<path d="M334.78 91.24L334.69 92.31"/>
<path d="M334.78 91.24L337.26 91.24"/>
<path d="M337.26 69.56L337.26 91.24"/>
<path d="M267.44 125.47L267.45 125.44M267.45 125.44L267.47 125.38M267.47 125.38L267.54 124.23M267.54 124.23L267.64 116.34"/>
<path d="M266.68 91.24L264.2 91.24"/>
<path d="M266.78 92.31L266.69 91.24"/>
<path d="M267.52 108.07L266.78 92.31"/>
<path d="M267.63 116.34L267.53 108.07"/>
<path d="M268.78 126.3L264.2 128.01"/>
<path d="M268.78 126.3L268.78 112.2"/>
<path d="M268.78 112.2L268.65 101.86"/>
<path d="M266.91 64.92L268.64 101.86"/>
<path d="M266.9 64.92L266.81 63.85"/>
<path d="M264.2 63.85L266.81 63.85"/>
<path d="M264.2 63.85L264.2 69.56"/>
<path d="M264.2 69.56L264.2 91.24"/>
<path d="M266.48 129.53L268.15 128.28M268.15 128.28L268.78 126.3"/>
<path d="M266.48 129.53L248.15 137.97M248.15 137.97L231.77 149.77M231.77 149.77L217.98 164.5M217.98 164.5L207.28 181.61M207.28 181.61L200.07 200.46M200.07 200.46L196.62 220.35M196.62 220.35L197.06 240.53M197.06 240.53L201.38 260.24M201.38 260.24L209.41 278.76M209.41 278.76L220.85 295.39M220.85 295.39L235.27 309.5M235.27 309.5L252.15 320.57M252.15 320.57L270.84 328.2M270.84 328.2L290.64 332.08M290.64 332.08L310.82 332.08M310.82 332.08L330.63 328.2M330.63 328.2L349.32 320.57M349.32 320.57L366.19 309.5M366.19 309.5L380.62 295.39M380.62 295.39L392.06 278.76M392.06 278.76L400.09 260.24M400.09 260.24L404.4 240.53M404.4 240.53L404.85 220.35M404.85 220.35L401.4 200.46M401.4 200.46L394.19 181.61M394.19 181.61L383.48 164.5M383.48 164.5L369.69 149.77M369.69 149.77L353.32 137.97M353.32 137.97L334.98 129.53"/>
<path d="M332.68 126.3L333.32 128.28M333.32 128.28L334.98 129.53"/>
<path d="M334.66 63.85L266.81 63.85"/>
<path d="M334.55 64.92L266.91 64.92"/>
<path d="M332.83 101.86L268.64 101.86"/>
<path d="M332.68 112.2L268.78 112.2"/>
<path d="M281.9 125.47L266.48 129.53"/>
<path d="M281.9 125.47L319.56 125.47"/>
<path d="M334.98 129.53L319.56 125.47"/>
<path d="M249.39 91.24L264.2 91.24"/>
<path d="M337.26 91.24L352.08 91.24"/>
<path d="M337.26 69.56L347.51 69.56"/>
<path d="M352.08 74.12L352.08 91.24"/>
<path d="M352.08 74.12L351.47 71.84M351.47 71.84L349.8 70.17M349.8 70.17L347.51 69.56"/>
<path d="M249.39 74.12L249.39 91.24"/>
<path d="M253.95 69.56L264.2 69.56"/>
<path d="M253.95 69.56L251.67 70.17M251.67 70.17L250 71.84M250 71.84L249.39 74.12"/>
<path d="M194.81 217.66L196.33 217.09M196.33 217.09L197.08 215.66"/>
<path d="M187.2 217.66L194.81 217.66"/>
<path d="M187.2 217.66L185.18 218.5M185.18 218.5L184.35 220.52"/>
<path d="M184.35 235.81L184.35 220.52"/>
<path d="M184.35 235.81L185.18 237.82M185.18 237.82L187.2 238.66"/>
<path d="M194.81 238.66L187.2 238.66"/>
<path d="M197.08 240.67L196.33 239.23M196.33 239.23L194.81 238.66"/>
<path d="M282.32 130.03L263.47 135.54M263.47 135.54L246.05 144.63M246.05 144.63L230.75 156.95M230.75 156.95L218.16 172.03M218.16 172.03L208.77 189.28M208.77 189.28L202.94 208.04M202.94 208.04L200.89 227.58M200.89 227.58L202.71 247.14M202.71 247.14L208.32 265.97M208.32 265.97L217.52 283.33M217.52 283.33L229.93 298.56M229.93 298.56L245.08 311.06M245.08 311.06L262.39 320.35M262.39 320.35L281.18 326.07M281.18 326.07L300.73 328M300.73 328L320.28 326.07M320.28 326.07L339.07 320.35M339.07 320.35L356.38 311.06M356.38 311.06L371.54 298.56M371.54 298.56L383.95 283.33M383.95 283.33L393.14 265.97M393.14 265.97L398.75 247.14M398.75 247.14L400.57 227.58M400.57 227.58L398.53 208.04M398.53 208.04L392.69 189.28M392.69 189.28L383.3 172.03M383.3 172.03L370.71 156.95M370.71 156.95L355.41 144.63M355.41 144.63L338 135.54M338 135.54L319.14 130.03"/>
<path d="M281.9 125.47L282.32 130.03"/>
<path d="M406.65 238.66L405.14 239.23M405.14 239.23L404.39 240.67"/>
<path d="M414.27 238.66L406.65 238.66"/>
<path d="M414.27 238.66L415.69 238.28M415.69 238.28L416.74 237.23M416.74 237.23L417.12 235.81"/>
<path d="M417.12 220.52L417.12 235.81"/>
<path d="M417.12 220.52L416.74 219.09M416.74 219.09L415.69 218.05M415.69 218.05L414.27 217.66"/>
<path d="M406.65 217.66L414.27 217.66"/>
<path d="M404.39 215.66L405.14 217.09M405.14 217.09L406.65 217.66"/>
<path d="M290.46 334.11L289.89 332.59M289.89 332.59L288.45 331.84"/>
<path d="M290.46 341.7L290.46 334.11"/>
<path d="M290.46 341.7L290.84 343.12M290.84 343.12L291.89 344.17M291.89 344.17L293.31 344.55"/>
<path d="M308.15 344.55L293.31 344.55"/>
<path d="M308.15 344.55L309.58 344.17M309.58 344.17L310.62 343.12M310.62 343.12L311 341.7"/>
<path d="M311 334.11L311 341.7"/>
<path d="M313.01 331.84L311.58 332.59M311.58 332.59L311 334.11"/>
<path d="M319.56 125.47L319.14 130.03"/>
<path d="M329.26 59.29L329.26 57.01"/>
<path d="M329.26 59.29L329.26 61.57"/>
<path d="M329.26 61.57L329.26 63.85"/>
<path d="M329.26 57.01L329.26 45.6"/>
<path d="M272.21 63.85L272.21 61.57"/>
<path d="M272.21 59.29L272.21 61.57"/>
<path d="M272.21 57.01L272.21 59.29"/>
<path d="M272.21 57.01L272.21 45.6"/>
<path d="M272.21 61.57L278.48 61.57"/>
<path d="M322.98 61.57L329.26 61.57"/>
<path d="M322.98 43.25L322.98 63.85"/>
<path d="M322.98 43.25L322.98 41.03"/>
<path d="M278.48 43.25L278.48 63.85"/>
<path d="M322.98 43.25L278.48 43.25"/>
<path d="M278.48 41.03L278.48 43.25"/>
<path d="M282.32 130.03L319.14 130.03"/>
<path d="M329.26 59.29L322.98 59.29"/>
<path d="M278.48 59.29L272.21 59.29"/>
<path d="M329.26 57.01L322.98 57.01"/>
<path d="M278.48 57.01L272.21 57.01"/>
<path d="M322.98 41.03L278.48 41.03"/>
<path d="M332.68 297.62L332.68 290.29"/>
<path d="M332.68 297.62L347.55 288.6M347.55 288.6L359.99 276.46M359.99 276.46L369.38 261.82M369.38 261.82L375.2 245.44M375.2 245.44L377.18 228.16M377.18 228.16L375.2 210.89M375.2 210.89L369.38 194.51M369.38 194.51L359.99 179.87M359.99 179.87L347.55 167.72M347.55 167.72L332.68 158.71"/>
<path d="M332.68 283.5L344.58 274.64M344.58 274.64L354.12 263.28M354.12 263.28L360.78 250.02M360.78 250.02L364.2 235.58M364.2 235.58L364.2 220.74M364.2 220.74L360.78 206.31M360.78 206.31L354.12 193.05M354.12 193.05L344.58 181.68M344.58 181.68L332.68 172.82"/>
<path d="M332.68 289.78L332.68 283.5"/>
<path d="M332.68 172.82L332.68 166.55"/>
<path d="M332.68 166.03L332.68 158.71"/>
<path d="M332.68 158.71L317.09 153.48M317.09 153.48L300.73 151.71M300.73 151.71L284.38 153.48M284.38 153.48L268.78 158.71"/>
<path d="M268.78 172.82L256.88 181.68M256.88 181.68L247.35 193.05M247.35 193.05L240.69 206.31M240.69 206.31L237.27 220.74M237.27 220.74L237.27 235.58M237.27 235.58L240.69 250.02M240.69 250.02L247.35 263.28M247.35 263.28L256.88 274.64M256.88 274.64L268.78 283.5"/>
<path d="M268.78 158.71L268.78 172.82"/>
<path d="M268.78 158.71L253.92 167.72M253.92 167.72L241.47 179.87M241.47 179.87L232.09 194.51M232.09 194.51L226.26 210.89M226.26 210.89L224.28 228.16M224.28 228.16L226.26 245.44M226.26 245.44L232.09 261.82M232.09 261.82L241.47 276.46M241.47 276.46L253.92 288.6M253.92 288.6L268.78 297.62"/>
<path d="M268.78 283.5L268.78 297.62"/>
<path d="M268.78 297.62L284.38 302.84M284.38 302.84L300.73 304.61M300.73 304.61L317.09 302.84M317.09 302.84L332.68 297.62"/>
<path d="M272.21 45.6L278.48 45.6"/>
<path d="M322.98 45.6L329.26 45.6"/>
<path d="M459.25 180.76L461.47 179.65M461.47 179.65L464.8 176.32M464.8 176.32L464.8 199.62"/>
<path d="M140.84 179.08L129.75 194.61M129.75 194.61L146.39 194.61M140.84 179.08L140.84 202.37"/>
<path d="M456.53 252.7L456.53 251.59M456.53 251.59L457.64 249.37M457.64 249.37L458.75 248.26M458.75 248.26L460.97 247.15M460.97 247.15L465.41 247.15M465.41 247.15L467.63 248.26M467.63 248.26L468.74 249.37M468.74 249.37L469.85 251.59M469.85 251.59L469.85 253.81M469.85 253.81L468.74 256.03M468.74 256.03L466.52 259.36M466.52 259.36L455.42 270.45M455.42 270.45L470.96 270.45"/>
<path d="M131.25 253.75L143.45 253.75M143.45 253.75L136.79 262.63M136.79 262.63L140.12 262.63M140.12 262.63L142.34 263.73M142.34 263.73L143.45 264.84M143.45 264.84L144.56 268.17M144.56 268.17L144.56 270.39M144.56 270.39L143.45 273.72M143.45 273.72L141.23 275.94M141.23 275.94L137.9 277.05M137.9 277.05L134.57 277.05M134.57 277.05L131.25 275.94M131.25 275.94L130.14 274.83M130.14 274.83L129.03 272.61"/>
<path d="M263.02 190.44L258.64 197.4M258.64 197.4L257.72 205.58M257.72 205.58L260.43 213.34M260.43 213.34L266.25 219.16M266.25 219.16L274.02 221.87M274.02 221.87L282.19 220.95M282.19 220.95L289.16 216.58M289.16 216.58L293.53 209.61M293.53 209.61L294.45 201.44M294.45 201.44L291.74 193.67M291.74 193.67L285.92 187.85M285.92 187.85L278.16 185.14M278.16 185.14L269.98 186.06M269.98 186.06L263.02 190.44"/>
<path d="M289.16 265.87L293.53 258.9M293.53 258.9L294.45 250.73M294.45 250.73L291.74 242.96M291.74 242.96L285.92 237.15M285.92 237.15L278.16 234.43M278.16 234.43L269.98 235.35M269.98 235.35L263.02 239.73M263.02 239.73L258.64 246.69M258.64 246.69L257.72 254.87M257.72 254.87L260.43 262.63M260.43 262.63L266.25 268.45M266.25 268.45L274.02 271.17M274.02 271.17L282.19 270.25M282.19 270.25L289.16 265.87"/>
<path d="M338.45 265.87L342.83 258.9M342.83 258.9L343.75 250.73M343.75 250.73L341.03 242.96M341.03 242.96L335.21 237.15M335.21 237.15L327.45 234.43M327.45 234.43L319.27 235.35M319.27 235.35L312.31 239.73M312.31 239.73L307.93 246.69M307.93 246.69L307.01 254.87M307.01 254.87L309.73 262.63M309.73 262.63L315.54 268.45M315.54 268.45L323.31 271.17M323.31 271.17L331.48 270.25M331.48 270.25L338.45 265.87"/>
<path d="M338.45 216.58L342.83 209.61M342.83 209.61L343.75 201.44M343.75 201.44L341.03 193.67M341.03 193.67L335.21 187.85M335.21 187.85L327.45 185.14M327.45 185.14L319.27 186.06M319.27 186.06L312.31 190.44M312.31 190.44L307.93 197.4M307.93 197.4L307.01 205.58M307.01 205.58L309.73 213.34M309.73 213.34L315.54 219.16M315.54 219.16L323.31 221.87M323.31 221.87L331.48 220.95M331.48 220.95L338.45 216.58"/>
<path d="M333.51 203.53L332.14 199.01M332.14 199.01L328.49 196.01M328.49 196.01L323.79 195.55M323.79 195.55L319.63 197.77"/>
<path d="M284.22 203.53L282.85 199.01M282.85 199.01L279.2 196.01M279.2 196.01L274.5 195.55M274.5 195.55L270.33 197.77"/>
<path d="M284.22 252.82L282.85 248.3M282.85 248.3L279.2 245.3M279.2 245.3L274.5 244.84M274.5 244.84L270.33 247.07"/>
<path d="M270.33 197.77L268.02 202.46M268.02 202.46L269.04 207.59M269.04 207.59L272.97 211.04M272.97 211.04L278.19 211.38M278.19 211.38L282.54 208.47M282.54 208.47L284.22 203.52"/>
<path d="M284.22 203.52L282.85 199M282.85 199L279.2 196.01M279.2 196.01L274.5 195.54M274.5 195.54L270.33 197.77"/>
<path d="M284.22 252.81L282.85 248.3M282.85 248.3L279.2 245.3M279.2 245.3L274.5 244.84M274.5 244.84L270.33 247.06"/>
<path d="M281.84 258.57L283.6 255.93M283.6 255.93L284.22 252.81"/>
<path d="M270.33 247.06L268.05 251.54M268.05 251.54L268.84 256.51M268.84 256.51L272.39 260.06M272.39 260.06L277.36 260.85M277.36 260.85L281.84 258.57"/>
<path d="M333.51 203.52L332.14 199M332.14 199L328.49 196.01M328.49 196.01L323.79 195.54M323.79 195.54L319.63 197.77"/>
<path d="M331.13 209.27L332.89 206.63M332.89 206.63L333.51 203.52"/>
<path d="M319.63 197.77L317.35 202.25M317.35 202.25L318.13 207.21M318.13 207.21L321.69 210.77M321.69 210.77L326.65 211.56M326.65 211.56L331.13 209.27"/>
<path d="M333.51 252.8L332.14 248.28M332.14 248.28L328.49 245.29M328.49 245.29L323.79 244.83M323.79 244.83L319.63 247.05"/>
<path d="M333.51 252.8L332.14 248.28M332.14 248.28L328.49 245.28M328.49 245.28L323.79 244.82M323.79 244.82L319.63 247.05"/>
<path d="M331.13 258.55L332.89 255.91M332.89 255.91L333.51 252.8"/>
<path d="M319.63 247.05L317.35 251.53M317.35 251.53L318.13 256.49M318.13 256.49L321.69 260.05M321.69 260.05L326.65 260.83M326.65 260.83L331.13 258.55"/>
</g>
</g>
</svg>
