<?xml version="1.0" standalone="no"?><svg xmlns="http://www.w3.org/2000/svg" width="600.000" height="450.000" viewBox="0.0 0.0 600.000 450.000" version="1.1">
<title>Acme Converter - Post-processed with EDS-Designer: 14.44 (info@symca.com)</title>
<desc>Acme Converter - Post-processed with EDS-Designer: 14.44 (info@symca.com)</desc>
<g id="EDS_STYLE_GROUP" fill="none" stroke="black" stroke-width="1.0">
<g id="0" display="visible">
<path d="M242.43 378.38L242.43 351.63M243.71 351.63L243.71 378.38M238.61 351.63L253.9 351.63M253.9 351.63L257.72 352.9M257.72 352.9L258.99 354.18M258.99 354.18L260.27 356.72M260.27 356.72L260.27 359.27M260.27 359.27L258.99 361.82M258.99 361.82L257.72 363.09M257.72 363.09L253.9 364.37M253.9 351.63L256.44 352.9M256.44 352.9L257.72 354.18M257.72 354.18L258.99 356.72M258.99 356.72L258.99 359.27M258.99 359.27L257.72 361.82M257.72 361.82L256.44 363.09M256.44 363.09L253.9 364.37M243.71 364.37L253.9 364.37M253.9 364.37L257.72 365.64M257.72 365.64L258.99 366.92M258.99 366.92L260.27 369.46M260.27 369.46L260.27 373.28M260.27 373.28L258.99 375.83M258.99 375.83L257.72 377.11M257.72 377.11L253.9 378.38M253.9 378.38L238.61 378.38M253.9 364.37L256.44 365.64M256.44 365.64L257.72 366.92M257.72 366.92L258.99 369.46M258.99 369.46L258.99 373.28M258.99 373.28L257.72 375.83M257.72 375.83L256.44 377.11M256.44 377.11L253.9 378.38M270.46 378.38L270.46 351.63M271.73 351.63L271.73 378.38M266.64 351.63L275.55 351.63M266.64 378.38L285.74 378.38M285.74 378.38L285.74 370.74M285.74 370.74L284.47 378.38M301.03 351.63L292.11 378.38M301.03 351.63L309.95 378.38M301.03 355.45L308.67 378.38M294.66 370.74L306.13 370.74M289.57 378.38L297.21 378.38M304.85 378.38L312.5 378.38M334.15 355.45L335.43 359.27M335.43 359.27L335.43 351.63M335.43 351.63L334.15 355.45M334.15 355.45L331.6 352.9M331.6 352.9L327.78 351.63M327.78 351.63L325.23 351.63M325.23 351.63L321.41 352.9M321.41 352.9L318.87 355.45M318.87 355.45L317.59 358M317.59 358L316.32 361.82M316.32 361.82L316.32 368.19M316.32 368.19L317.59 372.01M317.59 372.01L318.87 374.56M318.87 374.56L321.41 377.11M321.41 377.11L325.23 378.38M325.23 378.38L327.78 378.38M327.78 378.38L331.6 377.11M331.6 377.11L334.15 374.56M334.15 374.56L335.43 372.01M325.23 351.63L322.69 352.9M322.69 352.9L320.14 355.45M320.14 355.45L318.87 358M318.87 358L317.59 361.82M317.59 361.82L317.59 368.19M317.59 368.19L318.87 372.01M318.87 372.01L320.14 374.56M320.14 374.56L322.69 377.11M322.69 377.11L325.23 378.38M346.89 378.38L346.89 351.63M348.16 351.63L348.16 378.38M364.73 351.63L348.16 368.19M354.53 363.09L364.73 378.38M353.26 363.09L363.45 378.38M343.07 351.63L351.99 351.63M359.63 351.63L367.27 351.63M343.07 378.38L351.99 378.38M359.63 378.38L367.27 378.38"/>
<path d="M552.18 186.23L554.22 185.21M554.22 185.21L557.28 182.15M557.28 182.15L557.28 203.56"/>
<path d="M552.88 244.76L554.92 243.74M554.92 243.74L557.98 240.68M557.98 240.68L557.98 262.08M570.21 245.78L570.21 244.76M570.21 244.76L571.22 242.72M571.22 242.72L572.24 241.7M572.24 241.7L574.28 240.68M574.28 240.68L578.36 240.68M578.36 240.68L580.4 241.7M580.4 241.7L581.42 242.72M581.42 242.72L582.43 244.76M582.43 244.76L582.43 246.8M582.43 246.8L581.42 248.84M581.42 248.84L579.38 251.89M579.38 251.89L569.19 262.08M569.19 262.08L583.45 262.08"/>
<path d="M21.47 186.23L23.51 185.21M23.51 185.21L26.56 182.15M26.56 182.15L26.56 203.56M37.77 186.23L39.81 185.21M39.81 185.21L42.87 182.15M42.87 182.15L42.87 203.56"/>
<path d="M17.58 245.78L17.58 244.76M17.58 244.76L18.6 242.72M18.6 242.72L19.62 241.7M19.62 241.7L21.65 240.68M21.65 240.68L25.73 240.68M25.73 240.68L27.77 241.7M27.77 241.7L28.79 242.72M28.79 242.72L29.81 244.76M29.81 244.76L29.81 246.8M29.81 246.8L28.79 248.84M28.79 248.84L26.75 251.89M26.75 251.89L16.56 262.08M16.56 262.08L30.83 262.08M37.96 245.78L37.96 244.76M37.96 244.76L38.98 242.72M38.98 242.72L40 241.7M40 241.7L42.04 240.68M42.04 240.68L46.11 240.68M46.11 240.68L48.15 241.7M48.15 241.7L49.17 242.72M49.17 242.72L50.19 244.76M50.19 244.76L50.19 246.8M50.19 246.8L49.17 248.84M49.17 248.84L47.13 251.89M47.13 251.89L36.94 262.08M36.94 262.08L51.21 262.08"/>
<path d="M67.18 309.72L67.18 286.98"/>
<path d="M67.18 158.12L67.18 141.63"/>
<path d="M68.96 278.06L68.96 167.04"/>
<path d="M69.41 279.84L69.41 284.3"/>
<path d="M69.41 165.7L69.41 161.25"/>
<path d="M69.85 295.45L69.85 286.98"/>
<path d="M69.85 156.79L69.85 150.1"/>
<path d="M72.53 163.03L72.53 161.25"/>
<path d="M72.53 152.77L72.53 150.1"/>
<path d="M73.42 282.97L73.42 162.58"/>
<path d="M75.65 115.77L75.65 146.98"/>
<path d="M78.77 146.98L78.77 112.65"/>
<path d="M79.66 250.42L79.66 195.13"/>
<path d="M81 250.42L81 225"/>
<path d="M81 220.55L81 218.32"/>
<path d="M81 198.7L81 195.13"/>
<path d="M81 162.58L81 161.25"/>
<path d="M85.46 218.32L85.46 198.7"/>
<path d="M87.24 146.98L87.24 112.65"/>
<path d="M87.69 195.13L87.69 250.42"/>
<path d="M88.13 161.25L88.13 156.79"/>
<path d="M88.58 295.45L88.58 322.2"/>
<path d="M89.92 146.98L89.92 115.77"/>
<path d="M91.7 292.33L91.7 324.88"/>
<path d="M92.14 200.04L92.14 245.51"/>
<path d="M93.04 152.77L93.04 150.1"/>
<path d="M93.93 189.34L93.93 195.13"/>
<path d="M93.93 200.04L93.93 217.87"/>
<path d="M93.93 250.42L93.93 256.21"/>
<path d="M93.93 245.51L93.93 227.68"/>
<path d="M94.82 161.25L94.82 162.58"/>
<path d="M94.82 195.13L94.82 196.91"/>
<path d="M94.82 284.3L94.82 282.97"/>
<path d="M94.82 250.42L94.82 248.63"/>
<path d="M100.17 324.88L100.17 292.33"/>
<path d="M102.85 322.2L102.85 295.45"/>
<path d="M125.58 161.25L125.58 162.58"/>
<path d="M125.58 195.13L125.58 196.91"/>
<path d="M125.58 248.63L125.58 250.42"/>
<path d="M125.58 284.3L125.58 282.97"/>
<path d="M126.48 200.04L126.48 217.87"/>
<path d="M126.48 256.21L126.48 250.42"/>
<path d="M126.48 245.51L126.48 227.68"/>
<path d="M126.48 195.13L126.48 189.34"/>
<path d="M132.72 189.34L132.72 195.13"/>
<path d="M132.72 200.04L132.72 217.87"/>
<path d="M132.72 250.42L132.72 256.21"/>
<path d="M132.72 245.51L132.72 227.68"/>
<path d="M133.61 161.25L133.61 162.58"/>
<path d="M133.61 284.3L133.61 282.97"/>
<path d="M133.61 250.42L133.61 248.63"/>
<path d="M133.61 196.91L133.61 195.13"/>
<path d="M118 247.74L126.48 256.21"/>
<path d="M102.85 197.81L93.93 189.34"/>
<path d="M163.93 161.25L163.93 162.58"/>
<path d="M163.93 195.13L163.93 196.91"/>
<path d="M163.93 248.63L163.93 250.42"/>
<path d="M163.93 282.97L163.93 284.3"/>
<path d="M164.82 200.04L164.82 217.87"/>
<path d="M164.82 256.21L164.82 250.42"/>
<path d="M164.82 245.51L164.82 227.68"/>
<path d="M164.82 195.13L164.82 189.34"/>
<path d="M171.06 189.34L171.06 195.13"/>
<path d="M171.06 200.04L171.06 217.87"/>
<path d="M171.06 250.42L171.06 256.21"/>
<path d="M171.06 245.51L171.06 227.68"/>
<path d="M171.95 284.3L171.95 282.97"/>
<path d="M171.95 250.42L171.95 248.63"/>
<path d="M171.95 196.91L171.95 195.13"/>
<path d="M171.95 162.58L171.95 161.25"/>
<path d="M126.48 189.34L118 197.81"/>
<path d="M224.12 101.5L235.27 90.35"/>
<path d="M246.41 80.55L248.64 78.32"/>
<path d="M82.34 324.88L523.29 324.88"/>
<path d="M88.58 322.2L102.85 322.2"/>
<path d="M502.78 322.2L517.05 322.2"/>
<path d="M156.35 247.74L164.82 256.21"/>
<path d="M189.79 227.68L189.79 217.87"/>
<path d="M192.91 236.15L192.91 209.4"/>
<path d="M195.14 197.81L195.14 247.74"/>
<path d="M253.1 82.77L250.87 85"/>
<path d="M93.93 256.21L102.85 247.74"/>
<path d="M141.19 197.81L132.72 189.34"/>
<path d="M195.14 247.74L203.16 256.21"/>
<path d="M192.46 236.15L189.79 227.68"/>
<path d="M201.38 115.77L201.38 150.1"/>
<path d="M202.27 161.25L202.27 162.58"/>
<path d="M202.27 284.3L202.27 282.97"/>
<path d="M203.16 189.34L203.16 218.32"/>
<path d="M203.16 227.23L203.16 256.21"/>
<path d="M204.5 150.1L204.5 112.65"/>
<path d="M205.84 161.25L205.84 162.58"/>
<path d="M205.84 282.97L205.84 284.3"/>
<path d="M209.85 256.21L209.85 227.23"/>
<path d="M209.85 218.32L209.85 189.34"/>
<path d="M210.74 284.3L210.74 282.97"/>
<path d="M210.74 162.58L210.74 161.25"/>
<path d="M212.08 125.13L212.08 150.1"/>
<path d="M212.97 80.55L212.97 112.65"/>
<path d="M189.79 217.87L192.46 209.4"/>
<path d="M164.82 189.34L156.35 197.81"/>
<path d="M535.78 295.45L517.05 295.45"/>
<path d="M88.58 295.45L69.85 295.45"/>
<path d="M102.85 295.45L502.78 295.45"/>
<path d="M286.09 294.56L319.53 294.56"/>
<path d="M538.45 292.33L513.93 292.33"/>
<path d="M91.7 292.33L67.18 292.33"/>
<path d="M100.17 292.33L282.53 292.33"/>
<path d="M323.1 292.33L505.46 292.33"/>
<path d="M281.64 289.65L323.99 289.65"/>
<path d="M535.78 288.76L517.5 288.76"/>
<path d="M69.85 286.98L273.61 286.98"/>
<path d="M332.02 286.98L517.5 286.98"/>
<path d="M209.85 227.23L217.88 236.15"/>
<path d="M216.09 77.42L216.09 115.77"/>
<path d="M217.88 247.74L217.88 197.81"/>
<path d="M218.32 150.1L218.32 125.13"/>
<path d="M220.11 209.4L220.11 236.15"/>
<path d="M221.44 77.42L221.44 117.11"/>
<path d="M221.44 150.1L221.44 125.13"/>
<path d="M223.23 217.87L223.23 227.68"/>
<path d="M224.12 80.55L224.12 108.63"/>
<path d="M203.16 189.34L195.14 197.81"/>
<path d="M132.72 256.21L141.19 247.74"/>
<path d="M281.64 284.3L286.09 284.3"/>
<path d="M319.53 284.3L323.99 284.3"/>
<path d="M69.41 284.3L281.64 284.3"/>
<path d="M323.99 284.3L535.78 284.3"/>
<path d="M532.21 282.97L325.78 282.97"/>
<path d="M279.85 282.97L73.42 282.97"/>
<path d="M536.67 278.06L325.78 278.06"/>
<path d="M279.85 278.06L68.96 278.06"/>
<path d="M179.53 197.81L171.06 189.34"/>
<path d="M233.48 247.74L241.95 256.21"/>
<path d="M195.14 209.4L203.16 218.32"/>
<path d="M221 209.4L223.23 217.87"/>
<path d="M241.06 161.25L241.06 162.58"/>
<path d="M241.06 195.13L241.06 196.91"/>
<path d="M241.06 248.63L241.06 250.42"/>
<path d="M241.06 282.97L241.06 284.3"/>
<path d="M241.06 97.49L241.06 106.85"/>
<path d="M241.06 150.1L241.06 125.13"/>
<path d="M241.95 200.04L241.95 217.87"/>
<path d="M241.95 256.21L241.95 250.42"/>
<path d="M241.95 245.51L241.95 227.68"/>
<path d="M241.95 195.13L241.95 189.34"/>
<path d="M244.18 94.37L244.18 108.63"/>
<path d="M246.41 77.42L246.41 80.55"/>
<path d="M248.2 189.34L248.2 195.13"/>
<path d="M248.2 200.04L248.2 217.87"/>
<path d="M248.2 250.42L248.2 256.21"/>
<path d="M248.2 245.51L248.2 227.68"/>
<path d="M249.09 284.3L249.09 282.97"/>
<path d="M249.09 250.42L249.09 248.63"/>
<path d="M249.09 196.91L249.09 195.13"/>
<path d="M249.09 162.58L249.09 161.25"/>
<path d="M250.87 85L250.87 90.35"/>
<path d="M223.23 227.68L221 236.15"/>
<path d="M217.88 209.4L209.85 218.32"/>
<path d="M203.16 227.23L195.14 236.15"/>
<path d="M171.06 256.21L179.53 247.74"/>
<path d="M511.7 256.21L479.15 256.21"/>
<path d="M472.91 256.21L440.81 256.21"/>
<path d="M434.57 256.21L402.46 256.21"/>
<path d="M395.78 256.21L363.67 256.21"/>
<path d="M357.43 256.21L325.33 256.21"/>
<path d="M319.09 256.21L286.54 256.21"/>
<path d="M280.3 256.21L248.2 256.21"/>
<path d="M241.95 256.21L209.85 256.21"/>
<path d="M203.16 256.21L171.06 256.21"/>
<path d="M164.82 256.21L132.72 256.21"/>
<path d="M126.48 256.21L93.93 256.21"/>
<path d="M100.03 250.42L79.66 250.42"/>
<path d="M120.68 250.42L138.51 250.42"/>
<path d="M159.02 250.42L176.86 250.42"/>
<path d="M236.16 250.42L253.99 250.42"/>
<path d="M274.5 250.42L292.64 250.42"/>
<path d="M313.29 250.42L331.13 250.42"/>
<path d="M351.64 250.42L369.47 250.42"/>
<path d="M428.77 250.42L446.6 250.42"/>
<path d="M467.11 250.42L485.25 250.42"/>
<path d="M505.9 250.42L525.97 250.42"/>
<path d="M271.83 247.74L280.3 256.21"/>
<path d="M217.88 197.81L209.85 189.34"/>
<path d="M253.99 85L253.99 90.35"/>
<path d="M257.56 84.11L257.56 94.37"/>
<path d="M265.14 76.53L265.14 94.37"/>
<path d="M241.95 189.34L233.48 197.81"/>
<path d="M356.09 78.32L352.08 82.77"/>
<path d="M358.32 80.55L353.87 85"/>
<path d="M87.69 248.63L98.83 248.63"/>
<path d="M121.57 248.63L137.18 248.63"/>
<path d="M159.92 248.63L175.97 248.63"/>
<path d="M237.05 248.63L253.1 248.63"/>
<path d="M275.84 248.63L291.44 248.63"/>
<path d="M314.18 248.63L329.79 248.63"/>
<path d="M352.53 248.63L368.58 248.63"/>
<path d="M429.66 248.63L445.71 248.63"/>
<path d="M468.45 248.63L484.06 248.63"/>
<path d="M506.8 248.63L517.94 248.63"/>
<path d="M503.23 247.74L488.07 247.74"/>
<path d="M464.44 247.74L449.28 247.74"/>
<path d="M426.09 247.74L410.49 247.74"/>
<path d="M387.75 247.74L372.15 247.74"/>
<path d="M348.96 247.74L333.8 247.74"/>
<path d="M310.62 247.74L295.46 247.74"/>
<path d="M271.83 247.74L256.67 247.74"/>
<path d="M156.35 247.74L141.19 247.74"/>
<path d="M118 247.74L102.85 247.74"/>
<path d="M179.53 247.74L195.14 247.74"/>
<path d="M217.88 247.74L233.48 247.74"/>
<path d="M79.66 246.41L81 246.41"/>
<path d="M524.63 246.41L525.97 246.41"/>
<path d="M479.15 245.51L472.91 245.51"/>
<path d="M440.81 245.51L434.57 245.51"/>
<path d="M363.67 245.51L357.43 245.51"/>
<path d="M325.33 245.51L319.09 245.51"/>
<path d="M286.54 245.51L280.3 245.51"/>
<path d="M248.2 245.51L241.95 245.51"/>
<path d="M171.06 245.51L164.82 245.51"/>
<path d="M132.72 245.51L126.48 245.51"/>
<path d="M92.14 245.51L93.93 245.51"/>
<path d="M511.7 245.51L513.48 245.51"/>
<path d="M180.87 236.15L193.36 236.15"/>
<path d="M219.66 236.15L232.15 236.15"/>
<path d="M373.48 236.15L385.97 236.15"/>
<path d="M412.27 236.15L424.76 236.15"/>
<path d="M273.61 295.45L273.61 284.3"/>
<path d="M273.61 161.25L273.61 150.1"/>
<path d="M275.39 76.53L275.39 74.3"/>
<path d="M276.73 292.33L276.73 286.98"/>
<path d="M276.73 158.12L276.73 94.37"/>
<path d="M278.51 76.53L278.51 71.63"/>
<path d="M279.41 161.25L279.41 162.58"/>
<path d="M279.41 195.13L279.41 196.91"/>
<path d="M279.41 248.63L279.41 250.42"/>
<path d="M279.41 284.3L279.41 282.97"/>
<path d="M279.85 162.58L279.85 167.04"/>
<path d="M279.85 278.06L279.85 282.97"/>
<path d="M280.3 200.04L280.3 217.87"/>
<path d="M280.3 256.21L280.3 250.42"/>
<path d="M280.3 245.51L280.3 227.68"/>
<path d="M280.3 195.13L280.3 189.34"/>
<path d="M281.64 155.45L281.64 161.25"/>
<path d="M281.64 284.3L281.64 289.65"/>
<path d="M286.09 294.56L286.09 284.3"/>
<path d="M286.09 161.25L286.09 150.99"/>
<path d="M286.54 189.34L286.54 195.13"/>
<path d="M286.54 200.04L286.54 217.87"/>
<path d="M286.54 250.42L286.54 256.21"/>
<path d="M286.54 245.51L286.54 227.68"/>
<path d="M209.85 256.21L217.88 247.74"/>
<path d="M280.3 189.34L271.83 197.81"/>
<path d="M434.57 227.68L415.84 227.68"/>
<path d="M382.4 227.68L363.67 227.68"/>
<path d="M241.95 227.68L223.23 227.68"/>
<path d="M189.79 227.68L171.06 227.68"/>
<path d="M217.88 227.23L209.85 227.23"/>
<path d="M203.16 227.23L195.14 227.23"/>
<path d="M79.66 227.23L81 227.23"/>
<path d="M387.75 227.23L395.78 227.23"/>
<path d="M402.46 227.23L410.49 227.23"/>
<path d="M524.63 227.23L525.97 227.23"/>
<path d="M524.63 225L517.94 225"/>
<path d="M87.69 225L81 225"/>
<path d="M524.63 220.55L517.94 220.55"/>
<path d="M87.69 220.55L81 220.55"/>
<path d="M217.88 218.32L209.85 218.32"/>
<path d="M203.16 218.32L195.14 218.32"/>
<path d="M79.66 218.32L85.46 218.32"/>
<path d="M387.75 218.32L395.78 218.32"/>
<path d="M402.46 218.32L410.49 218.32"/>
<path d="M520.17 218.32L525.97 218.32"/>
<path d="M171.06 217.87L189.79 217.87"/>
<path d="M223.23 217.87L241.95 217.87"/>
<path d="M363.67 217.87L382.4 217.87"/>
<path d="M415.84 217.87L434.57 217.87"/>
<path d="M256.67 197.81L248.2 189.34"/>
<path d="M310.62 247.74L319.09 256.21"/>
<path d="M287.43 250.42L287.43 248.63"/>
<path d="M287.43 196.91L287.43 195.13"/>
<path d="M248.2 256.21L256.67 247.74"/>
<path d="M180.87 209.4L193.36 209.4"/>
<path d="M219.66 209.4L232.15 209.4"/>
<path d="M373.48 209.4L385.97 209.4"/>
<path d="M412.27 209.4L424.76 209.4"/>
<path d="M513.48 200.04L511.7 200.04"/>
<path d="M93.93 200.04L92.14 200.04"/>
<path d="M126.48 200.04L132.72 200.04"/>
<path d="M164.82 200.04L171.06 200.04"/>
<path d="M241.95 200.04L248.2 200.04"/>
<path d="M280.3 200.04L286.54 200.04"/>
<path d="M319.09 200.04L325.33 200.04"/>
<path d="M357.43 200.04L363.67 200.04"/>
<path d="M434.57 200.04L440.81 200.04"/>
<path d="M472.91 200.04L479.15 200.04"/>
<path d="M79.66 198.7L85.46 198.7"/>
<path d="M520.17 198.7L525.97 198.7"/>
<path d="M102.85 197.81L118 197.81"/>
<path d="M141.19 197.81L156.35 197.81"/>
<path d="M179.53 197.81L195.14 197.81"/>
<path d="M217.88 197.81L233.48 197.81"/>
<path d="M256.67 197.81L271.83 197.81"/>
<path d="M295.46 197.81L310.62 197.81"/>
<path d="M333.8 197.81L348.96 197.81"/>
<path d="M372.15 197.81L387.75 197.81"/>
<path d="M410.49 197.81L426.09 197.81"/>
<path d="M449.28 197.81L464.44 197.81"/>
<path d="M488.07 197.81L503.23 197.81"/>
<path d="M87.69 196.91L98.83 196.91"/>
<path d="M121.57 196.91L137.18 196.91"/>
<path d="M159.92 196.91L175.97 196.91"/>
<path d="M237.05 196.91L253.1 196.91"/>
<path d="M275.84 196.91L291.44 196.91"/>
<path d="M314.18 196.91L329.79 196.91"/>
<path d="M352.53 196.91L368.58 196.91"/>
<path d="M429.66 196.91L445.71 196.91"/>
<path d="M468.45 196.91L484.06 196.91"/>
<path d="M506.8 196.91L517.94 196.91"/>
<path d="M295.46 197.81L286.54 189.34"/>
<path d="M348.96 247.74L357.43 256.21"/>
<path d="M318.2 195.13L318.2 196.91"/>
<path d="M318.2 248.63L318.2 250.42"/>
<path d="M319.09 200.04L319.09 217.87"/>
<path d="M319.09 256.21L319.09 250.42"/>
<path d="M319.09 245.51L319.09 227.68"/>
<path d="M319.09 195.13L319.09 189.34"/>
<path d="M319.53 294.56L319.53 284.3"/>
<path d="M319.53 161.25L319.53 150.99"/>
<path d="M319.09 189.34L310.62 197.81"/>
<path d="M79.66 195.13L100.03 195.13"/>
<path d="M120.68 195.13L138.51 195.13"/>
<path d="M159.02 195.13L176.86 195.13"/>
<path d="M236.16 195.13L253.99 195.13"/>
<path d="M274.5 195.13L292.78 195.13"/>
<path d="M312.85 195.13L331.13 195.13"/>
<path d="M351.64 195.13L369.47 195.13"/>
<path d="M428.77 195.13L446.6 195.13"/>
<path d="M467.11 195.13L485.25 195.13"/>
<path d="M505.9 195.13L525.97 195.13"/>
<path d="M93.93 189.34L126.48 189.34"/>
<path d="M132.72 189.34L164.82 189.34"/>
<path d="M171.06 189.34L203.16 189.34"/>
<path d="M209.85 189.34L241.95 189.34"/>
<path d="M248.2 189.34L280.3 189.34"/>
<path d="M286.54 189.34L319.09 189.34"/>
<path d="M325.33 189.34L357.43 189.34"/>
<path d="M363.67 189.34L395.78 189.34"/>
<path d="M402.46 189.34L434.57 189.34"/>
<path d="M440.81 189.34L472.91 189.34"/>
<path d="M479.15 189.34L511.7 189.34"/>
<path d="M323.99 289.65L323.99 284.3"/>
<path d="M323.99 161.25L323.99 155.45"/>
<path d="M325.33 189.34L325.33 195.13"/>
<path d="M325.33 200.04L325.33 217.87"/>
<path d="M325.33 250.42L325.33 256.21"/>
<path d="M325.33 245.51L325.33 227.68"/>
<path d="M325.78 282.97L325.78 278.06"/>
<path d="M325.78 167.04L325.78 162.58"/>
<path d="M326.22 161.25L326.22 162.58"/>
<path d="M326.22 284.3L326.22 282.97"/>
<path d="M326.22 250.42L326.22 248.63"/>
<path d="M326.22 196.91L326.22 195.13"/>
<path d="M327.11 71.63L327.11 76.53"/>
<path d="M328.9 292.33L328.9 286.98"/>
<path d="M328.9 158.12L328.9 94.37"/>
<path d="M330.23 74.3L330.23 76.53"/>
<path d="M332.02 295.45L332.02 284.3"/>
<path d="M332.02 161.25L332.02 150.1"/>
<path d="M340.49 94.37L340.49 76.53"/>
<path d="M286.54 256.21L295.46 247.74"/>
<path d="M357.43 189.34L348.96 197.81"/>
<path d="M68.96 167.04L279.85 167.04"/>
<path d="M325.78 167.04L536.67 167.04"/>
<path d="M73.42 162.58L279.85 162.58"/>
<path d="M325.78 162.58L532.21 162.58"/>
<path d="M536.22 161.25L323.99 161.25"/>
<path d="M69.85 161.25L281.64 161.25"/>
<path d="M323.99 161.25L319.53 161.25"/>
<path d="M286.09 161.25L281.64 161.25"/>
<path d="M333.8 197.81L325.33 189.34"/>
<path d="M387.75 247.74L395.78 256.21"/>
<path d="M348.07 94.37L348.07 84.11"/>
<path d="M351.19 85L351.19 90.35"/>
<path d="M353.87 85L353.87 90.35"/>
<path d="M356.54 161.25L356.54 162.58"/>
<path d="M356.54 195.13L356.54 196.91"/>
<path d="M356.54 248.63L356.54 250.42"/>
<path d="M356.54 282.97L356.54 284.3"/>
<path d="M357.43 200.04L357.43 217.87"/>
<path d="M357.43 256.21L357.43 250.42"/>
<path d="M357.43 245.51L357.43 227.68"/>
<path d="M357.43 195.13L357.43 189.34"/>
<path d="M358.32 80.55L358.32 77.42"/>
<path d="M535.78 158.57L332.02 158.57"/>
<path d="M273.61 158.57L88.13 158.57"/>
<path d="M69.85 156.79L88.13 156.79"/>
<path d="M281.64 155.45L323.99 155.45"/>
<path d="M276.73 152.77L93.04 152.77"/>
<path d="M72.53 152.77L67.18 152.77"/>
<path d="M328.9 152.77L512.59 152.77"/>
<path d="M533.1 152.77L538.45 152.77"/>
<path d="M319.53 150.99L286.09 150.99"/>
<path d="M273.61 150.1L93.04 150.1"/>
<path d="M72.53 150.1L69.85 150.1"/>
<path d="M332.02 150.1L512.59 150.1"/>
<path d="M533.1 150.1L535.78 150.1"/>
<path d="M529.98 146.98L526.86 146.98"/>
<path d="M78.77 146.98L75.65 146.98"/>
<path d="M87.24 146.98L89.92 146.98"/>
<path d="M515.71 146.98L518.39 146.98"/>
<path d="M250.87 85L246.41 80.55"/>
<path d="M253.1 82.77L248.64 78.32"/>
<path d="M372.15 197.81L363.67 189.34"/>
<path d="M426.09 247.74L434.57 256.21"/>
<path d="M402.46 227.23L410.49 236.15"/>
<path d="M387.75 209.4L395.78 218.32"/>
<path d="M361.44 108.63L361.44 94.37"/>
<path d="M363.67 189.34L363.67 195.13"/>
<path d="M363.67 200.04L363.67 217.87"/>
<path d="M363.67 250.42L363.67 256.21"/>
<path d="M363.67 245.51L363.67 227.68"/>
<path d="M364.57 150.1L364.57 125.13"/>
<path d="M364.57 106.85L364.57 97.49"/>
<path d="M364.57 284.3L364.57 282.97"/>
<path d="M364.57 250.42L364.57 248.63"/>
<path d="M364.57 196.91L364.57 195.13"/>
<path d="M364.57 162.58L364.57 161.25"/>
<path d="M395.78 189.34L387.75 197.81"/>
<path d="M325.33 256.21L333.8 247.74"/>
<path d="M201.38 129.59L89.92 129.59"/>
<path d="M404.25 129.59L515.71 129.59"/>
<path d="M276.73 127.36L328.9 127.36"/>
<path d="M212.08 125.13L241.06 125.13"/>
<path d="M364.57 125.13L393.55 125.13"/>
<path d="M385.08 236.15L382.4 227.68"/>
<path d="M381.51 108.63L381.51 80.55"/>
<path d="M382.4 227.68L382.4 217.87"/>
<path d="M384.18 150.1L384.18 125.13"/>
<path d="M384.18 117.11L384.18 77.42"/>
<path d="M385.52 236.15L385.52 209.4"/>
<path d="M387.3 150.1L387.3 125.13"/>
<path d="M387.75 197.81L387.75 247.74"/>
<path d="M389.53 77.42L389.53 115.77"/>
<path d="M392.66 80.55L392.66 112.65"/>
<path d="M393.55 150.1L393.55 125.13"/>
<path d="M382.4 217.87L385.08 209.4"/>
<path d="M410.49 209.4L402.46 218.32"/>
<path d="M395.78 227.23L387.75 236.15"/>
<path d="M363.67 256.21L372.15 247.74"/>
<path d="M434.57 189.34L426.09 197.81"/>
<path d="M384.18 117.11L328.9 117.11"/>
<path d="M276.73 117.11L221.44 117.11"/>
<path d="M75.65 115.77L89.92 115.77"/>
<path d="M201.38 115.77L216.09 115.77"/>
<path d="M389.53 115.77L404.25 115.77"/>
<path d="M515.71 115.77L529.98 115.77"/>
<path d="M401.13 112.65L392.66 112.65"/>
<path d="M328.9 112.65L276.73 112.65"/>
<path d="M212.97 112.65L204.5 112.65"/>
<path d="M87.24 112.65L78.77 112.65"/>
<path d="M518.39 112.65L526.86 112.65"/>
<path d="M276.73 108.63L328.9 108.63"/>
<path d="M224.12 108.63L244.18 108.63"/>
<path d="M361.44 108.63L381.51 108.63"/>
<path d="M276.73 106.85L328.9 106.85"/>
<path d="M381.51 106.85L364.12 106.85"/>
<path d="M241.51 106.85L224.12 106.85"/>
<path d="M464.44 247.74L472.91 256.21"/>
<path d="M410.49 197.81L402.46 189.34"/>
<path d="M394.88 161.25L394.88 162.58"/>
<path d="M394.88 282.97L394.88 284.3"/>
<path d="M395.78 189.34L395.78 218.32"/>
<path d="M395.78 227.23L395.78 256.21"/>
<path d="M399.79 284.3L399.79 282.97"/>
<path d="M399.79 162.58L399.79 161.25"/>
<path d="M401.13 150.1L401.13 112.65"/>
<path d="M402.46 256.21L402.46 227.23"/>
<path d="M402.46 218.32L402.46 189.34"/>
<path d="M403.36 161.25L403.36 162.58"/>
<path d="M403.36 284.3L403.36 282.97"/>
<path d="M404.25 150.1L404.25 115.77"/>
<path d="M410.49 247.74L410.49 197.81"/>
<path d="M276.73 98.38L328.9 98.38"/>
<path d="M244.18 94.37L361.44 94.37"/>
<path d="M235.27 90.35L253.99 90.35"/>
<path d="M351.19 90.35L370.36 90.35"/>
<path d="M257.56 89.46L348.07 89.46"/>
<path d="M449.28 197.81L440.81 189.34"/>
<path d="M503.23 247.74L511.7 256.21"/>
<path d="M413.61 209.4L415.84 217.87"/>
<path d="M412.72 209.4L412.72 236.15"/>
<path d="M415.84 217.87L415.84 227.68"/>
<path d="M415.84 227.68L413.61 236.15"/>
<path d="M402.46 256.21L410.49 247.74"/>
<path d="M472.91 189.34L464.44 197.81"/>
<path d="M224.12 85L212.97 85"/>
<path d="M381.51 85L392.66 85"/>
<path d="M250.87 85L253.99 85"/>
<path d="M351.19 85L353.87 85"/>
<path d="M340.49 82.77L265.14 82.77"/>
<path d="M224.12 80.55L246.41 80.55"/>
<path d="M358.32 80.55L381.51 80.55"/>
<path d="M216.09 77.42L246.41 77.42"/>
<path d="M358.32 77.42L389.53 77.42"/>
<path d="M340.49 77.42L265.14 77.42"/>
<path d="M340.49 76.53L265.14 76.53"/>
<path d="M275.39 74.3L330.23 74.3"/>
<path d="M327.11 71.63L278.51 71.63"/>
<path d="M353.87 85L352.08 82.77"/>
<path d="M356.09 78.32L358.32 80.55"/>
<path d="M370.36 90.35L381.51 101.5"/>
<path d="M433.67 161.25L433.67 162.58"/>
<path d="M433.67 195.13L433.67 196.91"/>
<path d="M433.67 248.63L433.67 250.42"/>
<path d="M433.67 282.97L433.67 284.3"/>
<path d="M434.57 200.04L434.57 217.87"/>
<path d="M434.57 256.21L434.57 250.42"/>
<path d="M434.57 245.51L434.57 227.68"/>
<path d="M434.57 195.13L434.57 189.34"/>
<path d="M440.81 189.34L440.81 195.13"/>
<path d="M440.81 200.04L440.81 217.87"/>
<path d="M440.81 250.42L440.81 256.21"/>
<path d="M440.81 245.51L440.81 227.68"/>
<path d="M441.7 284.3L441.7 282.97"/>
<path d="M441.7 250.42L441.7 248.63"/>
<path d="M441.7 196.91L441.7 195.13"/>
<path d="M441.7 162.58L441.7 161.25"/>
<path d="M440.81 256.21L449.28 247.74"/>
<path d="M511.7 189.34L503.23 197.81"/>
<path d="M488.07 197.81L479.15 189.34"/>
<path d="M472.02 161.25L472.02 162.58"/>
<path d="M472.02 195.13L472.02 196.91"/>
<path d="M472.02 248.63L472.02 250.42"/>
<path d="M472.02 284.3L472.02 282.97"/>
<path d="M472.91 200.04L472.91 217.87"/>
<path d="M472.91 256.21L472.91 250.42"/>
<path d="M472.91 245.51L472.91 227.68"/>
<path d="M472.91 195.13L472.91 189.34"/>
<path d="M479.15 189.34L479.15 195.13"/>
<path d="M479.15 200.04L479.15 217.87"/>
<path d="M479.15 250.42L479.15 256.21"/>
<path d="M479.15 245.51L479.15 227.68"/>
<path d="M480.04 161.25L480.04 162.58"/>
<path d="M480.04 284.3L480.04 282.97"/>
<path d="M480.04 250.42L480.04 248.63"/>
<path d="M480.04 196.91L480.04 195.13"/>
<path d="M479.15 256.21L488.07 247.74"/>
<path d="M502.78 295.45L502.78 322.2"/>
<path d="M505.46 292.33L505.46 324.88"/>
<path d="M510.81 161.25L510.81 162.58"/>
<path d="M510.81 195.13L510.81 196.91"/>
<path d="M510.81 284.3L510.81 282.97"/>
<path d="M510.81 250.42L510.81 248.63"/>
<path d="M511.7 200.04L511.7 217.87"/>
<path d="M511.7 256.21L511.7 250.42"/>
<path d="M511.7 245.51L511.7 227.68"/>
<path d="M511.7 195.13L511.7 189.34"/>
<path d="M512.59 150.1L512.59 152.77"/>
<path d="M513.48 245.51L513.48 200.04"/>
<path d="M513.93 324.88L513.93 292.33"/>
<path d="M515.71 146.98L515.71 115.77"/>
<path d="M517.05 322.2L517.05 295.45"/>
<path d="M517.5 288.76L517.5 284.3"/>
<path d="M517.94 250.42L517.94 195.13"/>
<path d="M518.39 146.98L518.39 112.65"/>
<path d="M520.17 218.32L520.17 198.7"/>
<path d="M524.63 284.3L524.63 282.97"/>
<path d="M524.63 250.42L524.63 225"/>
<path d="M524.63 220.55L524.63 218.32"/>
<path d="M524.63 198.7L524.63 195.13"/>
<path d="M525.97 195.13L525.97 250.42"/>
<path d="M526.86 112.65L526.86 146.98"/>
<path d="M529.98 115.77L529.98 146.98"/>
<path d="M532.21 282.97L532.21 162.58"/>
<path d="M533.1 150.1L533.1 152.77"/>
<path d="M533.1 282.52L533.1 284.3"/>
<path d="M535.78 295.45L535.78 288.76"/>
<path d="M535.78 158.57L535.78 150.1"/>
<path d="M536.22 161.25L536.22 165.7"/>
<path d="M536.22 279.84L536.22 284.3"/>
<path d="M536.67 167.04L536.67 278.06"/>
<path d="M538.45 309.72L538.45 286.98"/>
<path d="M538.45 158.12L538.45 141.63"/>
<path d="M67.18 309.72L67.18 311.5M67.18 311.5L67.18 312.84M67.18 312.84L67.62 314.62M67.62 314.62L68.07 315.96M68.07 315.96L68.96 317.3M68.96 317.3L69.41 318.19M69.41 318.19L70.3 319.53M70.3 319.53L71.64 320.86M71.64 320.86L72.53 321.76M72.53 321.76L73.86 322.65M73.86 322.65L74.76 323.09M74.76 323.09L76.09 323.99M76.09 323.99L77.43 324.43M77.43 324.43L79.21 324.88M79.21 324.88L80.55 324.88M80.55 324.88L82.34 324.88"/>
<path d="M68.96 278.06L69.41 279.84M69.41 279.84L70.3 281.63M70.3 281.63L71.64 282.52M71.64 282.52L73.42 282.97"/>
<path d="M100.17 324.88L101.06 324.88M101.06 324.88L101.95 324.43M101.95 324.43L102.85 323.09M102.85 323.09L102.85 322.2"/>
<path d="M88.58 322.2L89.02 323.09M89.02 323.09L89.47 324.43M89.47 324.43L90.36 324.88M90.36 324.88L91.7 324.88"/>
<path d="M67.18 292.33L67.18 293.67M67.18 293.67L68.07 294.56M68.07 294.56L68.96 295.45M68.96 295.45L69.85 295.45"/>
<path d="M69.41 284.3L67.62 285.2M67.62 285.2L67.18 286.98"/>
<path d="M97.05 196.91L96.16 197.36M96.16 197.36L94.82 197.81"/>
<path d="M94.82 197.81L94.37 198.7M94.37 198.7L93.93 200.04"/>
<path d="M163.93 247.74L163.04 248.19M163.04 248.19L161.7 248.63"/>
<path d="M164.82 245.51L164.37 246.85M164.37 246.85L163.93 247.74"/>
<path d="M125.58 247.74L124.25 248.19M124.25 248.19L123.36 248.63"/>
<path d="M126.48 245.51L126.03 246.85M126.03 246.85L125.58 247.74"/>
<path d="M135.84 196.91L134.5 197.36M134.5 197.36L133.61 197.81"/>
<path d="M133.61 197.81L132.72 198.7M132.72 198.7L132.72 200.04"/>
<path d="M174.18 196.91L172.85 197.36M172.85 197.36L171.95 197.81"/>
<path d="M171.95 197.81L171.51 198.7M171.51 198.7L171.06 200.04"/>
<path d="M125.58 197.81L126.03 198.7M126.03 198.7L126.48 200.04"/>
<path d="M123.36 196.91L124.25 197.36M124.25 197.36L125.58 197.81"/>
<path d="M163.93 197.81L164.37 198.7M164.37 198.7L164.82 200.04"/>
<path d="M161.7 196.91L163.04 197.36M163.04 197.36L163.93 197.81"/>
<path d="M132.72 245.51L132.72 246.85M132.72 246.85L133.61 247.74"/>
<path d="M133.61 247.74L134.5 248.19M134.5 248.19L135.84 248.63"/>
<path d="M171.06 245.51L171.51 246.85M171.51 246.85L171.95 247.74"/>
<path d="M171.95 247.74L172.85 248.19M172.85 248.19L174.18 248.63"/>
<path d="M93.93 245.51L94.37 246.85M94.37 246.85L94.82 247.74"/>
<path d="M94.82 247.74L96.16 248.19M96.16 248.19L97.05 248.63"/>
<path d="M286.09 284.3L286.09 282.97M286.09 282.97L285.65 282.07M285.65 282.07L284.31 279.84M284.31 279.84L282.53 278.51M282.53 278.51L281.19 278.51M281.19 278.51L279.85 278.06"/>
<path d="M281.64 289.65L282.08 291.44M282.08 291.44L282.97 293.22M282.97 293.22L284.31 294.11M284.31 294.11L286.09 294.56"/>
<path d="M276.73 286.98L276.29 286.09M276.29 286.09L275.84 285.2M275.84 285.2L274.95 284.3M274.95 284.3L273.61 284.3"/>
<path d="M273.61 295.45L274.95 295.45M274.95 295.45L275.84 294.56M275.84 294.56L276.29 293.67M276.29 293.67L276.73 292.33"/>
<path d="M281.64 284.3L281.19 283.41M281.19 283.41L279.85 282.97"/>
<path d="M279.41 247.74L278.51 248.19M278.51 248.19L277.18 248.63"/>
<path d="M280.3 245.51L280.3 246.85M280.3 246.85L279.41 247.74"/>
<path d="M241.06 247.74L240.17 248.19M240.17 248.19L238.83 248.63"/>
<path d="M241.95 245.51L241.51 246.85M241.51 246.85L241.06 247.74"/>
<path d="M251.32 196.91L249.98 197.36M249.98 197.36L249.09 197.81"/>
<path d="M249.09 197.81L248.64 198.7M248.64 198.7L248.2 200.04"/>
<path d="M289.66 196.91L288.77 197.36M288.77 197.36L287.43 197.81"/>
<path d="M287.43 197.81L286.99 198.7M286.99 198.7L286.54 200.04"/>
<path d="M286.54 245.51L286.99 246.85M286.99 246.85L287.43 247.74"/>
<path d="M287.43 247.74L288.77 248.19M288.77 248.19L289.66 248.63"/>
<path d="M241.06 197.81L241.51 198.7M241.51 198.7L241.95 200.04"/>
<path d="M238.83 196.91L240.17 197.36M240.17 197.36L241.06 197.81"/>
<path d="M248.2 245.51L248.64 246.85M248.64 246.85L249.09 247.74"/>
<path d="M249.09 247.74L249.98 248.19M249.98 248.19L251.32 248.63"/>
<path d="M279.41 197.81L280.3 198.7M280.3 198.7L280.3 200.04"/>
<path d="M277.18 196.91L278.51 197.36M278.51 197.36L279.41 197.81"/>
<path d="M193.36 209.4L194.69 208.95M194.69 208.95L195.14 208.06"/>
<path d="M217.88 208.06L218.32 208.95M218.32 208.95L219.66 209.4"/>
<path d="M195.14 237.49L194.69 236.6M194.69 236.6L193.36 236.15"/>
<path d="M219.66 236.15L218.32 236.6M218.32 236.6L217.88 237.49"/>
<path d="M75.65 130.04L73.86 130.48M73.86 130.48L72.08 131.82M72.08 131.82L70.74 132.71M70.74 132.71L69.41 134.49M69.41 134.49L68.51 135.83M68.51 135.83L67.62 137.62M67.62 137.62L67.18 139.4M67.18 139.4L67.18 141.63"/>
<path d="M72.53 152.77L73.86 152.77M73.86 152.77L75.2 152.33M75.2 152.33L76.99 150.99M76.99 150.99L78.32 149.21M78.32 149.21L78.77 148.32M78.77 148.32L78.77 146.98"/>
<path d="M87.24 146.98L87.24 148.32M87.24 148.32L87.69 149.21M87.69 149.21L89.02 150.99M89.02 150.99L90.81 152.33M90.81 152.33L92.14 152.77M92.14 152.77L93.04 152.77"/>
<path d="M73.42 162.58L71.64 163.03M71.64 163.03L70.3 163.92M70.3 163.92L69.41 165.26M69.41 165.26L68.96 167.04"/>
<path d="M69.85 150.1L68.96 150.1M68.96 150.1L68.07 150.99M68.07 150.99L67.18 151.88M67.18 151.88L67.18 152.77"/>
<path d="M72.53 150.1L73.86 149.65M73.86 149.65L74.76 149.21M74.76 149.21L75.65 147.87M75.65 147.87L75.65 146.98"/>
<path d="M89.92 146.98L90.36 147.87M90.36 147.87L90.81 149.21M90.81 149.21L92.14 149.65M92.14 149.65L93.04 150.1"/>
<path d="M67.18 158.12L67.18 159.46M67.18 159.46L68.07 160.35M68.07 160.35L68.96 161.25M68.96 161.25L69.85 161.25"/>
<path d="M78.77 112.65L77.43 113.09M77.43 113.09L76.54 113.54M76.54 113.54L76.09 114.43M76.09 114.43L75.65 115.77"/>
<path d="M89.92 115.77L89.92 114.43M89.92 114.43L89.02 113.54M89.02 113.54L88.13 113.09M88.13 113.09L87.24 112.65"/>
<path d="M279.85 167.04L281.19 167.04M281.19 167.04L282.53 166.6M282.53 166.6L284.31 165.26M284.31 165.26L285.65 163.48M285.65 163.48L286.09 162.58M286.09 162.58L286.09 161.25"/>
<path d="M286.09 150.99L284.31 151.44M284.31 151.44L282.97 152.33M282.97 152.33L282.08 153.67M282.08 153.67L281.64 155.45"/>
<path d="M276.73 152.77L276.29 151.88M276.29 151.88L275.84 150.99M275.84 150.99L274.95 150.1M274.95 150.1L273.61 150.1"/>
<path d="M273.61 161.25L274.95 161.25M274.95 161.25L275.84 160.35M275.84 160.35L276.29 159.46M276.29 159.46L276.73 158.12"/>
<path d="M279.85 162.58L281.19 162.14M281.19 162.14L281.64 161.25"/>
<path d="M265.14 76.53L263.8 76.53M263.8 76.53L262.46 76.98M262.46 76.98L261.13 77.87M261.13 77.87L259.79 78.76M259.79 78.76L258.9 79.65M258.9 79.65L258.45 80.99M258.45 80.99L258.01 82.33M258.01 82.33L257.56 84.11"/>
<path d="M224.12 80.55L224.12 79.21M224.12 79.21L223.23 78.32M223.23 78.32L222.34 77.87M222.34 77.87L221.44 77.42"/>
<path d="M244.18 94.37L242.85 94.81M242.85 94.81L241.95 95.26M241.95 95.26L241.06 96.6M241.06 96.6L241.06 97.49"/>
<path d="M278.51 71.63L277.18 71.63M277.18 71.63L276.29 72.52M276.29 72.52L275.84 73.41M275.84 73.41L275.39 74.3"/>
<path d="M253.99 85L253.55 83.67M253.55 83.67L253.1 82.77"/>
<path d="M248.64 78.32L247.75 77.87M247.75 77.87L246.41 77.42"/>
<path d="M204.5 112.65L203.61 113.09M203.61 113.09L202.27 113.54M202.27 113.54L201.83 114.43M201.83 114.43L201.38 115.77"/>
<path d="M216.09 77.42L214.76 77.87M214.76 77.87L213.86 78.32M213.86 78.32L213.42 79.21M213.42 79.21L212.97 80.55"/>
<path d="M325.78 278.06L324.44 278.51M324.44 278.51L323.1 278.51M323.1 278.51L321.32 279.84M321.32 279.84L319.98 282.07M319.98 282.07L319.53 282.97M319.53 282.97L319.53 284.3"/>
<path d="M319.53 294.56L321.32 294.11M321.32 294.11L322.65 293.22M322.65 293.22L323.55 291.44M323.55 291.44L323.99 289.65"/>
<path d="M328.9 292.33L329.34 293.67M329.34 293.67L329.79 294.56M329.79 294.56L330.68 295.45M330.68 295.45L332.02 295.45"/>
<path d="M332.02 284.3L330.68 284.3M330.68 284.3L329.79 285.2M329.79 285.2L329.34 286.09M329.34 286.09L328.9 286.98"/>
<path d="M325.78 282.97L324.44 283.41M324.44 283.41L323.99 284.3"/>
<path d="M356.54 247.74L355.65 248.19M355.65 248.19L354.31 248.63"/>
<path d="M357.43 245.51L356.99 246.85M356.99 246.85L356.54 247.74"/>
<path d="M318.2 247.74L316.86 248.19M316.86 248.19L315.97 248.63"/>
<path d="M319.09 245.51L318.64 246.85M318.64 246.85L318.2 247.74"/>
<path d="M328.45 196.91L327.11 197.36M327.11 197.36L326.22 197.81"/>
<path d="M326.22 197.81L325.33 198.7M325.33 198.7L325.33 200.04"/>
<path d="M366.8 196.91L365.46 197.36M365.46 197.36L364.57 197.81"/>
<path d="M364.57 197.81L364.12 198.7M364.12 198.7L363.67 200.04"/>
<path d="M325.33 245.51L325.33 246.85M325.33 246.85L326.22 247.74"/>
<path d="M326.22 247.74L327.11 248.19M327.11 248.19L328.45 248.63"/>
<path d="M356.54 197.81L356.99 198.7M356.99 198.7L357.43 200.04"/>
<path d="M354.31 196.91L355.65 197.36M355.65 197.36L356.54 197.81"/>
<path d="M318.2 197.81L318.64 198.7M318.64 198.7L319.09 200.04"/>
<path d="M315.97 196.91L316.86 197.36M316.86 197.36L318.2 197.81"/>
<path d="M363.67 245.51L364.12 246.85M364.12 246.85L364.57 247.74"/>
<path d="M364.57 247.74L365.46 248.19M365.46 248.19L366.8 248.63"/>
<path d="M385.97 209.4L387.3 208.95M387.3 208.95L387.75 208.06"/>
<path d="M410.49 208.06L410.94 208.95M410.94 208.95L412.27 209.4"/>
<path d="M412.27 236.15L410.94 236.6M410.94 236.6L410.49 237.49"/>
<path d="M387.75 237.49L387.3 236.6M387.3 236.6L385.97 236.15"/>
<path d="M523.29 324.88L525.08 324.88M525.08 324.88L526.41 324.88M526.41 324.88L528.2 324.43M528.2 324.43L529.53 323.99M529.53 323.99L530.87 323.09M530.87 323.09L531.76 322.65M531.76 322.65L533.1 321.76M533.1 321.76L533.99 320.86M533.99 320.86L535.33 319.53M535.33 319.53L536.22 318.19M536.22 318.19L536.67 317.3M536.67 317.3L537.56 315.96M537.56 315.96L538.01 314.62M538.01 314.62L538.45 312.84M538.45 312.84L538.45 311.5M538.45 311.5L538.45 309.72"/>
<path d="M532.21 282.97L533.99 282.52M533.99 282.52L535.33 281.63M535.33 281.63L536.22 279.84M536.22 279.84L536.67 278.06"/>
<path d="M535.78 295.45L536.67 295.45M536.67 295.45L537.56 294.56M537.56 294.56L538.45 293.67M538.45 293.67L538.45 292.33"/>
<path d="M513.93 324.88L515.27 324.88M515.27 324.88L516.16 324.43M516.16 324.43L516.6 323.09M516.6 323.09L517.05 322.2"/>
<path d="M502.78 322.2L502.78 323.09M502.78 323.09L503.67 324.43M503.67 324.43L504.57 324.88M504.57 324.88L505.46 324.88"/>
<path d="M538.45 286.98L538.45 286.09M538.45 286.09L537.56 285.2M537.56 285.2L536.67 284.3M536.67 284.3L535.78 284.3"/>
<path d="M510.81 247.74L509.47 248.19M509.47 248.19L508.58 248.63"/>
<path d="M511.7 245.51L511.25 246.85M511.25 246.85L510.81 247.74"/>
<path d="M472.02 247.74L471.13 248.19M471.13 248.19L469.79 248.63"/>
<path d="M472.91 245.51L472.91 246.85M472.91 246.85L472.02 247.74"/>
<path d="M433.67 247.74L432.78 248.19M432.78 248.19L431.44 248.63"/>
<path d="M434.57 245.51L434.12 246.85M434.12 246.85L433.67 247.74"/>
<path d="M443.93 196.91L442.59 197.36M442.59 197.36L441.7 197.81"/>
<path d="M441.7 197.81L441.25 198.7M441.25 198.7L440.81 200.04"/>
<path d="M482.27 196.91L481.38 197.36M481.38 197.36L480.04 197.81"/>
<path d="M480.04 197.81L479.6 198.7M479.6 198.7L479.15 200.04"/>
<path d="M433.67 197.81L434.12 198.7M434.12 198.7L434.57 200.04"/>
<path d="M431.44 196.91L432.78 197.36M432.78 197.36L433.67 197.81"/>
<path d="M472.02 197.81L472.91 198.7M472.91 198.7L472.91 200.04"/>
<path d="M469.79 196.91L471.13 197.36M471.13 197.36L472.02 197.81"/>
<path d="M479.15 245.51L479.6 246.85M479.6 246.85L480.04 247.74"/>
<path d="M480.04 247.74L481.38 248.19M481.38 248.19L482.27 248.63"/>
<path d="M440.81 245.51L441.25 246.85M441.25 246.85L441.7 247.74"/>
<path d="M441.7 247.74L442.59 248.19M442.59 248.19L443.93 248.63"/>
<path d="M510.81 197.81L511.25 198.7M511.25 198.7L511.7 200.04"/>
<path d="M508.58 196.91L509.47 197.36M509.47 197.36L510.81 197.81"/>
<path d="M319.53 161.25L319.53 162.58M319.53 162.58L319.98 163.48M319.98 163.48L321.32 165.26M321.32 165.26L323.1 166.6M323.1 166.6L324.44 167.04M324.44 167.04L325.78 167.04"/>
<path d="M323.99 155.45L323.55 153.67M323.55 153.67L322.65 152.33M322.65 152.33L321.32 151.44M321.32 151.44L319.53 150.99"/>
<path d="M328.9 158.12L329.34 159.46M329.34 159.46L329.79 160.35M329.79 160.35L330.68 161.25M330.68 161.25L332.02 161.25"/>
<path d="M332.02 150.1L330.68 150.1M330.68 150.1L329.79 150.99M329.79 150.99L329.34 151.88M329.34 151.88L328.9 152.77"/>
<path d="M323.99 161.25L324.44 162.14M324.44 162.14L325.78 162.58"/>
<path d="M348.07 84.11L347.62 82.33M347.62 82.33L347.18 80.99M347.18 80.99L346.73 79.65M346.73 79.65L345.84 78.76M345.84 78.76L344.5 77.87M344.5 77.87L343.16 76.98M343.16 76.98L341.83 76.53M341.83 76.53L340.49 76.53"/>
<path d="M384.18 77.42L383.29 77.87M383.29 77.87L382.4 78.32M382.4 78.32L381.51 79.21M381.51 79.21L381.51 80.55"/>
<path d="M364.57 97.49L364.57 96.6M364.57 96.6L363.67 95.26M363.67 95.26L362.78 94.81M362.78 94.81L361.44 94.37"/>
<path d="M330.23 74.3L329.79 73.41M329.79 73.41L329.34 72.52M329.34 72.52L328.45 71.63M328.45 71.63L327.11 71.63"/>
<path d="M352.08 82.77L351.19 83.67M351.19 83.67L351.19 85"/>
<path d="M358.32 77.42L356.99 77.87M356.99 77.87L356.09 78.32"/>
<path d="M404.25 115.77L403.8 114.43M403.8 114.43L403.36 113.54M403.36 113.54L402.02 113.09M402.02 113.09L401.13 112.65"/>
<path d="M392.66 80.55L392.66 79.21M392.66 79.21L391.76 78.32M391.76 78.32L390.87 77.87M390.87 77.87L389.53 77.42"/>
<path d="M538.45 141.63L538.45 139.4M538.45 139.4L538.01 137.62M538.01 137.62L537.11 135.83M537.11 135.83L536.22 134.49M536.22 134.49L534.88 132.71M534.88 132.71L533.55 131.82M533.55 131.82L531.76 130.48M531.76 130.48L529.98 130.04"/>
<path d="M512.59 152.77L513.93 152.77M513.93 152.77L514.82 152.33M514.82 152.33L516.6 150.99M516.6 150.99L517.94 149.21M517.94 149.21L518.39 148.32M518.39 148.32L518.39 146.98"/>
<path d="M526.86 146.98L526.86 148.32M526.86 148.32L527.31 149.21M527.31 149.21L528.64 150.99M528.64 150.99L530.43 152.33M530.43 152.33L531.76 152.77M531.76 152.77L533.1 152.77"/>
<path d="M536.67 167.04L536.22 165.26M536.22 165.26L535.33 163.92M535.33 163.92L533.99 163.03M533.99 163.03L532.21 162.58"/>
<path d="M538.45 152.77L538.45 151.88M538.45 151.88L537.56 150.99M537.56 150.99L536.67 150.1M536.67 150.1L535.78 150.1"/>
<path d="M512.59 150.1L513.48 149.65M513.48 149.65L514.82 149.21M514.82 149.21L515.27 147.87M515.27 147.87L515.71 146.98"/>
<path d="M529.98 146.98L529.98 147.87M529.98 147.87L530.87 149.21M530.87 149.21L531.76 149.65M531.76 149.65L533.1 150.1"/>
<path d="M536.22 161.25L538.01 160.35M538.01 160.35L538.45 158.12"/>
<path d="M518.39 112.65L517.5 113.09M517.5 113.09L516.6 113.54M516.6 113.54L515.71 114.43M515.71 114.43L515.71 115.77"/>
<path d="M529.98 115.77L529.53 114.43M529.53 114.43L529.09 113.54M529.09 113.54L528.2 113.09M528.2 113.09L526.86 112.65"/>
<path d="M273.61 286.98L274.06 286.98M274.06 286.98L274.5 286.98M274.5 286.98L274.95 286.98M274.95 286.98L275.39 286.98M275.39 286.98L275.84 287.42M275.84 287.42L276.29 287.42M276.29 287.42L276.29 287.87M276.29 287.87L276.73 287.87M276.73 287.87L276.73 288.32"/>
<path d="M69.85 156.79L69.41 156.79M69.41 156.79L68.96 156.79M68.96 156.79L68.51 156.79M68.51 156.79L68.07 156.79M68.07 156.79L67.62 157.23M67.62 157.23L67.18 157.23M67.18 157.23L67.18 157.68"/>
<path d="M328.9 288.32L328.9 287.87M328.9 287.87L329.34 287.87M329.34 287.87L329.34 287.42M329.34 287.42L329.79 287.42M329.79 287.42L330.23 286.98M330.23 286.98L330.68 286.98M330.68 286.98L331.13 286.98M331.13 286.98L331.57 286.98M331.57 286.98L332.02 286.98"/>
<path d="M91.7 292.33L91.25 292.77M91.25 292.77L90.81 293.22M90.81 293.22L90.36 293.67M90.36 293.67L89.92 294.11M89.92 294.11L89.47 294.56M89.47 294.56L89.02 295M89.02 295L88.58 295.45"/>
<path d="M212.97 112.65L213.42 113.09M213.42 113.09L213.42 113.54M213.42 113.54L213.86 113.54M213.86 113.54L214.31 113.98M214.31 113.98L214.31 114.43M214.31 114.43L214.76 114.43M214.76 114.43L215.2 114.88M215.2 114.88L215.2 115.32M215.2 115.32L215.65 115.32M215.65 115.32L216.09 115.77"/>
<path d="M364.12 106.85L363.67 106.85M363.67 106.85L363.23 106.85M363.23 106.85L363.23 107.3M363.23 107.3L362.78 107.3M362.78 107.3L362.78 107.74M362.78 107.74L362.34 107.74M362.34 107.74L361.89 108.19M361.89 108.19L361.44 108.63"/>
<path d="M392.66 112.65L392.21 113.09M392.21 113.09L392.21 113.54M392.21 113.54L391.76 113.54M391.76 113.54L391.32 113.98M391.32 113.98L391.32 114.43M391.32 114.43L390.87 114.43M390.87 114.43L390.43 114.88M390.43 114.88L390.43 115.32M390.43 115.32L389.98 115.32M389.98 115.32L389.53 115.77"/>
<path d="M241.51 106.85L241.95 106.85M241.95 106.85L242.4 106.85M242.4 106.85L242.4 107.3M242.4 107.3L242.85 107.3M242.85 107.3L242.85 107.74M242.85 107.74L243.29 107.74M243.29 107.74L243.74 108.19M243.74 108.19L244.18 108.63"/>
<path d="M535.78 288.76L536.22 288.76M536.22 288.76L536.67 288.76M536.67 288.76L537.11 288.76M537.11 288.76L537.56 288.32M537.56 288.32L538.01 288.32M538.01 288.32L538.45 288.32M538.45 288.32L538.45 287.87M538.45 287.87L538.45 287.42"/>
<path d="M67.18 285.64L67.62 286.09M67.62 286.09L68.07 286.53M68.07 286.53L68.51 286.53M68.51 286.53L68.96 286.53M68.96 286.53L69.41 286.53M69.41 286.53L69.85 286.98"/>
<path d="M538.45 159.46L538.01 159.46M538.01 159.46L538.01 159.02M538.01 159.02L537.56 159.02M537.56 159.02L537.11 159.02M537.11 159.02L536.67 159.02M536.67 159.02L536.67 158.57M536.67 158.57L536.22 158.57M536.22 158.57L535.78 158.57"/>
<path d="M384.18 117.11L384.18 116.66M384.18 116.66L383.74 115.77M383.74 115.77L383.29 114.43M383.29 114.43L383.29 113.98M383.29 113.98L382.85 113.09M382.85 113.09L382.4 111.76M382.4 111.76L382.4 111.31M382.4 111.31L381.95 110.42M381.95 110.42L381.95 109.08M381.95 109.08L381.51 108.63M381.51 108.63L381.51 108.19M381.51 108.19L381.51 107.3M381.51 107.3L381.51 106.85"/>
<path d="M224.12 106.85L224.12 107.3M224.12 107.3L224.12 108.19M224.12 108.19L224.12 108.63M224.12 108.63L224.12 109.08M224.12 109.08L223.67 110.42M223.67 110.42L223.67 110.86M223.67 110.86L223.23 111.76M223.23 111.76L222.78 112.65M222.78 112.65L222.78 113.54M222.78 113.54L222.34 114.43M222.34 114.43L221.89 115.32M221.89 115.32L221.89 116.21M221.89 116.21L221.44 117.11"/>
<path d="M265.14 82.77L264.69 82.77M264.69 82.77L264.25 83.22M264.25 83.22L263.36 83.22M263.36 83.22L262.91 83.22M262.91 83.22L262.46 83.22M262.46 83.22L262.02 83.67M262.02 83.67L261.57 83.67M261.57 83.67L261.13 84.11M261.13 84.11L260.68 84.11M260.68 84.11L260.23 84.56M260.23 84.56L259.79 85M259.79 85L259.34 85.45M259.34 85.45L258.9 85.9M258.9 85.9L258.9 86.34M258.9 86.34L258.45 86.34M258.45 86.34L258.45 86.79M258.45 86.79L258.01 87.23M258.01 87.23L258.01 87.68M258.01 87.68L258.01 88.12M258.01 88.12L257.56 88.57M257.56 88.57L257.56 89.02M257.56 89.02L257.56 89.46"/>
<path d="M265.14 77.42L264.69 77.42M264.69 77.42L264.25 77.42M264.25 77.42L263.36 77.42M263.36 77.42L262.91 77.87M262.91 77.87L262.46 77.87M262.46 77.87L262.02 77.87M262.02 77.87L261.57 78.32M261.57 78.32L261.13 78.32M261.13 78.32L260.68 78.76M260.68 78.76L260.23 78.76M260.23 78.76L259.79 79.21M259.79 79.21L259.79 79.65M259.79 79.65L259.34 80.1M259.34 80.1L258.9 80.1M258.9 80.1L258.9 80.55M258.9 80.55L258.45 80.99M258.45 80.99L258.45 81.44M258.45 81.44L258.01 81.88M258.01 81.88L258.01 82.33M258.01 82.33L258.01 82.77M258.01 82.77L257.56 83.22M257.56 83.22L257.56 83.67M257.56 83.67L257.56 84.11"/>
<path d="M340.49 82.77L340.94 82.77M340.94 82.77L341.38 83.22M341.38 83.22L342.27 83.22M342.27 83.22L342.72 83.22M342.72 83.22L343.16 83.22M343.16 83.22L343.61 83.67M343.61 83.67L344.06 83.67M344.06 83.67L344.5 84.11M344.5 84.11L344.95 84.11M344.95 84.11L345.39 84.56M345.39 84.56L345.84 85M345.84 85L346.29 85.45M346.29 85.45L346.73 85.9M346.73 85.9L346.73 86.34M346.73 86.34L347.18 86.34M347.18 86.34L347.18 86.79M347.18 86.79L347.62 87.23M347.62 87.23L347.62 87.68M347.62 87.68L347.62 88.12M347.62 88.12L348.07 88.57M348.07 88.57L348.07 89.02M348.07 89.02L348.07 89.46"/>
<path d="M340.49 77.42L340.94 77.42M340.94 77.42L341.38 77.42M341.38 77.42L342.27 77.42M342.27 77.42L342.72 77.87M342.72 77.87L343.16 77.87M343.16 77.87L343.61 77.87M343.61 77.87L344.06 78.32M344.06 78.32L344.5 78.32M344.5 78.32L344.95 78.76M344.95 78.76L345.39 78.76M345.39 78.76L345.84 79.21M345.84 79.21L345.84 79.65M345.84 79.65L346.29 80.1M346.29 80.1L346.73 80.1M346.73 80.1L346.73 80.55M346.73 80.55L347.18 80.99M347.18 80.99L347.18 81.44M347.18 81.44L347.62 81.88M347.62 81.88L347.62 82.33M347.62 82.33L347.62 82.77M347.62 82.77L348.07 83.22M348.07 83.22L348.07 83.67M348.07 83.67L348.07 84.11"/>
<path d="M276.73 156.79L276.73 157.23M276.73 157.23L276.29 157.68M276.29 157.68L275.84 158.12M275.84 158.12L275.39 158.12M275.39 158.12L275.39 158.57M275.39 158.57L274.95 158.57M274.95 158.57L274.5 158.57M274.5 158.57L274.06 158.57M274.06 158.57L273.61 158.57"/>
<path d="M102.85 295.45L102.85 295M102.85 295L102.4 295M102.4 295L101.95 294.56M101.95 294.56L101.95 294.11M101.95 294.11L101.51 294.11M101.51 294.11L101.06 293.67M101.06 293.67L101.06 293.22M101.06 293.22L100.62 293.22M100.62 293.22L100.17 292.77M100.17 292.77L100.17 292.33"/>
<path d="M502.78 295.45L502.78 295M502.78 295L503.23 295M503.23 295L503.67 294.56M503.67 294.56L503.67 294.11M503.67 294.11L504.12 294.11M504.12 294.11L504.57 293.67M504.57 293.67L504.57 293.22M504.57 293.22L505.01 293.22M505.01 293.22L505.46 292.77M505.46 292.77L505.46 292.33"/>
<path d="M517.05 295.45L516.6 295M516.6 295L516.16 294.56M516.16 294.56L515.71 294.11M515.71 294.11L515.27 293.67M515.27 293.67L514.82 293.22M514.82 293.22L514.38 292.77M514.38 292.77L513.93 292.33"/>
<path d="M514.82 248.63L514.38 248.63M514.38 248.63L514.38 248.19M514.38 248.19L513.93 248.19M513.93 248.19L513.93 247.74M513.93 247.74L513.48 247.3M513.48 247.3L513.48 246.85M513.48 246.85L513.48 246.41M513.48 246.41L513.48 245.96M513.48 245.96L513.48 245.51"/>
<path d="M92.14 245.51L92.14 245.96M92.14 245.96L92.14 246.41M92.14 246.41L92.14 246.85M92.14 246.85L92.14 247.3M92.14 247.3L91.7 247.74M91.7 247.74L91.7 248.19M91.7 248.19L91.25 248.19M91.25 248.19L91.25 248.63M91.25 248.63L90.81 248.63"/>
<path d="M90.81 196.91L91.25 196.91M91.25 196.91L91.25 197.36M91.25 197.36L91.7 197.36M91.7 197.36L91.7 197.81M91.7 197.81L92.14 198.25M92.14 198.25L92.14 198.7M92.14 198.7L92.14 199.14M92.14 199.14L92.14 199.59M92.14 199.59L92.14 200.04"/>
<path d="M513.48 200.04L513.48 199.59M513.48 199.59L513.48 199.14M513.48 199.14L513.48 198.7M513.48 198.7L513.48 198.25M513.48 198.25L513.93 198.25M513.93 198.25L513.93 197.81M513.93 197.81L513.93 197.36M513.93 197.36L514.38 197.36M514.38 197.36L514.38 196.91M514.38 196.91L514.82 196.91"/>
<path d="M332.02 158.57L331.57 158.57M331.57 158.57L331.13 158.57M331.13 158.57L330.68 158.57M330.68 158.57L330.23 158.57M330.23 158.57L330.23 158.12M330.23 158.12L329.79 158.12M329.79 158.12L329.34 157.68M329.34 157.68L328.9 157.23M328.9 157.23L328.9 156.79"/>
<path d="M102.4 200.48L102.4 208.06"/>
<path d="M102.4 237.49L102.4 245.07"/>
<path d="M118 245.07L118 237.49"/>
<path d="M118 208.06L118 200.48"/>
<path d="M141.19 200.48L141.19 208.06"/>
<path d="M141.19 237.49L141.19 245.07"/>
<path d="M102.85 236.6L93.93 227.68"/>
<path d="M121.57 248.63L118 245.07"/>
<path d="M156.35 245.07L156.35 237.49"/>
<path d="M156.35 208.06L156.35 200.48"/>
<path d="M98.83 196.91L102.4 200.48"/>
<path d="M141.64 236.6L132.72 227.68"/>
<path d="M179.53 200.48L179.53 208.06"/>
<path d="M179.53 237.49L179.53 245.07"/>
<path d="M102.85 208.95L93.93 217.87"/>
<path d="M118 200.48L121.57 196.91"/>
<path d="M117.56 208.95L126.48 217.87"/>
<path d="M159.92 248.63L156.35 245.07"/>
<path d="M102.4 245.07L98.83 248.63"/>
<path d="M141.64 208.95L132.72 217.87"/>
<path d="M137.18 196.91L141.19 200.48"/>
<path d="M179.98 236.6L171.06 227.68"/>
<path d="M155.9 208.95L164.82 217.87"/>
<path d="M117.56 236.6L126.48 227.68"/>
<path d="M156.35 200.48L159.92 196.91"/>
<path d="M175.97 196.91L179.53 200.48"/>
<path d="M233.48 245.07L233.48 237.49"/>
<path d="M233.48 208.06L233.48 200.48"/>
<path d="M141.19 245.07L137.18 248.63"/>
<path d="M179.98 208.95L171.06 217.87"/>
<path d="M155.9 236.6L164.82 227.68"/>
<path d="M237.05 248.63L233.48 245.07"/>
<path d="M179.53 245.07L175.97 248.63"/>
<path d="M257.11 236.6L248.2 227.68"/>
<path d="M233.04 208.95L241.95 217.87"/>
<path d="M275.84 248.63L271.83 245.07"/>
<path d="M256.67 200.48L256.67 208.06"/>
<path d="M256.67 237.49L256.67 245.07"/>
<path d="M233.48 200.48L237.05 196.91"/>
<path d="M501.45 236.15L489.41 236.15"/>
<path d="M463.1 236.15L450.62 236.15"/>
<path d="M347.62 236.15L335.14 236.15"/>
<path d="M308.83 236.15L296.79 236.15"/>
<path d="M270.49 236.15L258.01 236.15"/>
<path d="M155.01 236.15L142.53 236.15"/>
<path d="M116.22 236.15L104.18 236.15"/>
<path d="M253.1 196.91L256.67 200.48"/>
<path d="M271.83 245.07L271.83 237.49"/>
<path d="M271.83 208.06L271.83 200.48"/>
<path d="M257.11 208.95L248.2 217.87"/>
<path d="M233.04 236.6L241.95 227.68"/>
<path d="M271.83 200.48L275.84 196.91"/>
<path d="M511.7 227.68L479.15 227.68"/>
<path d="M472.91 227.68L440.81 227.68"/>
<path d="M357.43 227.68L325.33 227.68"/>
<path d="M319.09 227.68L286.54 227.68"/>
<path d="M280.3 227.68L248.2 227.68"/>
<path d="M164.82 227.68L132.72 227.68"/>
<path d="M126.48 227.68L93.93 227.68"/>
<path d="M93.93 217.87L126.48 217.87"/>
<path d="M132.72 217.87L164.82 217.87"/>
<path d="M248.2 217.87L280.3 217.87"/>
<path d="M286.54 217.87L319.09 217.87"/>
<path d="M325.33 217.87L357.43 217.87"/>
<path d="M440.81 217.87L472.91 217.87"/>
<path d="M479.15 217.87L511.7 217.87"/>
<path d="M295.46 236.6L286.54 227.68"/>
<path d="M271.38 208.95L280.3 217.87"/>
<path d="M314.18 248.63L310.62 245.07"/>
<path d="M295.01 200.48L295.01 208.06"/>
<path d="M295.01 237.49L295.01 245.07"/>
<path d="M256.67 245.07L253.1 248.63"/>
<path d="M295.46 208.95L286.54 217.87"/>
<path d="M104.18 209.4L116.22 209.4"/>
<path d="M142.53 209.4L155.01 209.4"/>
<path d="M258.01 209.4L270.49 209.4"/>
<path d="M296.79 209.4L308.83 209.4"/>
<path d="M335.14 209.4L347.62 209.4"/>
<path d="M450.62 209.4L463.1 209.4"/>
<path d="M489.41 209.4L501.45 209.4"/>
<path d="M291.44 196.91L295.01 200.48"/>
<path d="M334.25 236.6L325.33 227.68"/>
<path d="M310.17 208.95L319.09 217.87"/>
<path d="M352.53 248.63L348.96 245.07"/>
<path d="M310.62 245.07L310.62 237.49"/>
<path d="M310.62 208.06L310.62 200.48"/>
<path d="M271.38 236.6L280.3 227.68"/>
<path d="M310.62 200.48L314.18 196.91"/>
<path d="M329.79 196.91L333.8 200.48"/>
<path d="M333.8 200.48L333.8 208.06"/>
<path d="M333.8 237.49L333.8 245.07"/>
<path d="M295.01 245.07L291.44 248.63"/>
<path d="M334.25 208.95L325.33 217.87"/>
<path d="M310.17 236.6L319.09 227.68"/>
<path d="M348.96 200.48L352.53 196.91"/>
<path d="M372.59 236.6L363.67 227.68"/>
<path d="M348.51 208.95L357.43 217.87"/>
<path d="M348.96 245.07L348.96 237.49"/>
<path d="M348.96 208.06L348.96 200.48"/>
<path d="M333.8 245.07L329.79 248.63"/>
<path d="M368.58 196.91L372.15 200.48"/>
<path d="M429.66 248.63L426.09 245.07"/>
<path d="M372.15 200.48L372.15 208.06"/>
<path d="M372.15 237.49L372.15 245.07"/>
<path d="M372.59 208.95L363.67 217.87"/>
<path d="M348.51 236.6L357.43 227.68"/>
<path d="M372.15 245.07L368.58 248.63"/>
<path d="M426.09 200.48L429.66 196.91"/>
<path d="M449.73 236.6L440.81 227.68"/>
<path d="M425.65 208.95L434.57 217.87"/>
<path d="M468.45 248.63L464.44 245.07"/>
<path d="M445.71 196.91L449.28 200.48"/>
<path d="M488.07 236.6L479.15 227.68"/>
<path d="M463.99 208.95L472.91 217.87"/>
<path d="M506.8 248.63L503.23 245.07"/>
<path d="M426.09 245.07L426.09 237.49"/>
<path d="M426.09 208.06L426.09 200.48"/>
<path d="M449.73 208.95L440.81 217.87"/>
<path d="M425.65 236.6L434.57 227.68"/>
<path d="M464.44 200.48L468.45 196.91"/>
<path d="M449.28 245.07L445.71 248.63"/>
<path d="M488.07 208.95L479.15 217.87"/>
<path d="M463.99 236.6L472.91 227.68"/>
<path d="M503.23 200.48L506.8 196.91"/>
<path d="M484.06 196.91L487.62 200.48"/>
<path d="M502.78 208.95L511.7 217.87"/>
<path d="M449.28 200.48L449.28 208.06"/>
<path d="M449.28 237.49L449.28 245.07"/>
<path d="M464.44 245.07L464.44 237.49"/>
<path d="M464.44 208.06L464.44 200.48"/>
<path d="M487.62 245.07L484.06 248.63"/>
<path d="M502.78 236.6L511.7 227.68"/>
<path d="M487.62 200.48L487.62 208.06"/>
<path d="M487.62 237.49L487.62 245.07"/>
<path d="M503.23 245.07L503.23 237.49"/>
<path d="M503.23 208.06L503.23 200.48"/>
<path d="M116.22 209.4L117.56 208.95M117.56 208.95L118 208.06"/>
<path d="M102.4 208.06L102.85 208.95M102.85 208.95L104.18 209.4"/>
<path d="M155.01 209.4L155.9 208.95M155.9 208.95L156.35 208.06"/>
<path d="M141.19 208.06L141.64 208.95M141.64 208.95L142.53 209.4"/>
<path d="M179.53 208.06L179.98 208.95M179.98 208.95L180.87 209.4"/>
<path d="M104.18 236.15L102.85 236.6M102.85 236.6L102.4 237.49"/>
<path d="M118 237.49L117.56 236.6M117.56 236.6L116.22 236.15"/>
<path d="M142.53 236.15L141.64 236.6M141.64 236.6L141.19 237.49"/>
<path d="M156.35 237.49L155.9 236.6M155.9 236.6L155.01 236.15"/>
<path d="M180.87 236.15L179.98 236.6M179.98 236.6L179.53 237.49"/>
<path d="M232.15 209.4L233.04 208.95M233.04 208.95L233.48 208.06"/>
<path d="M270.49 209.4L271.38 208.95M271.38 208.95L271.83 208.06"/>
<path d="M256.67 208.06L257.11 208.95M257.11 208.95L258.01 209.4"/>
<path d="M295.01 208.06L295.46 208.95M295.46 208.95L296.79 209.4"/>
<path d="M296.79 236.15L295.46 236.6M295.46 236.6L295.01 237.49"/>
<path d="M271.83 237.49L271.38 236.6M271.38 236.6L270.49 236.15"/>
<path d="M258.01 236.15L257.11 236.6M257.11 236.6L256.67 237.49"/>
<path d="M233.48 237.49L233.04 236.6M233.04 236.6L232.15 236.15"/>
<path d="M333.8 208.06L334.25 208.95M334.25 208.95L335.14 209.4"/>
<path d="M347.62 209.4L348.51 208.95M348.51 208.95L348.96 208.06"/>
<path d="M348.96 237.49L348.51 236.6M348.51 236.6L347.62 236.15"/>
<path d="M335.14 236.15L334.25 236.6M334.25 236.6L333.8 237.49"/>
<path d="M308.83 209.4L310.17 208.95M310.17 208.95L310.62 208.06"/>
<path d="M372.15 208.06L372.59 208.95M372.59 208.95L373.48 209.4"/>
<path d="M373.48 236.15L372.59 236.6M372.59 236.6L372.15 237.49"/>
<path d="M310.62 237.49L310.17 236.6M310.17 236.6L308.83 236.15"/>
<path d="M503.23 237.49L502.78 236.6M502.78 236.6L501.45 236.15"/>
<path d="M489.41 236.15L488.07 236.6M488.07 236.6L487.62 237.49"/>
<path d="M464.44 237.49L463.99 236.6M463.99 236.6L463.1 236.15"/>
<path d="M450.62 236.15L449.73 236.6M449.73 236.6L449.28 237.49"/>
<path d="M424.76 209.4L425.65 208.95M425.65 208.95L426.09 208.06"/>
<path d="M426.09 237.49L425.65 236.6M425.65 236.6L424.76 236.15"/>
<path d="M463.1 209.4L463.99 208.95M463.99 208.95L464.44 208.06"/>
<path d="M449.28 208.06L449.73 208.95M449.73 208.95L450.62 209.4"/>
<path d="M501.45 209.4L502.78 208.95M502.78 208.95L503.23 208.06"/>
<path d="M487.62 208.06L488.07 208.95M488.07 208.95L489.41 209.4"/>
</g>
</g>
</svg>
