<?xml version="1.0" standalone="no"?><svg xmlns="http://www.w3.org/2000/svg" width="600.000" height="450.000" viewBox="0.0 0.0 600.000 450.000" version="1.1">
<title>Acme Converter - Post-processed with EDS-Designer: 14.44 (info@symca.com)</title>
<desc>Acme Converter - Post-processed with EDS-Designer: 14.44 (info@symca.com)</desc>
<g id="EDS_STYLE_GROUP" fill="none" stroke="black" stroke-width="1.0">
<g id="0" display="visible">
<path d="M270.55 374.6L271.58 377.68M271.58 377.68L271.58 371.52M271.58 371.52L270.55 374.6M270.55 374.6L268.5 372.55M268.5 372.55L265.42 371.52M265.42 371.52L263.37 371.52M263.37 371.52L260.29 372.55M260.29 372.55L258.24 374.6M258.24 374.6L257.21 376.65M257.21 376.65L256.19 379.73M256.19 379.73L256.19 384.86M256.19 384.86L257.21 387.94M257.21 387.94L258.24 389.99M258.24 389.99L260.29 392.04M260.29 392.04L263.37 393.07M263.37 393.07L265.42 393.07M265.42 393.07L268.5 392.04M268.5 392.04L270.55 389.99M263.37 371.52L261.32 372.55M261.32 372.55L259.27 374.6M259.27 374.6L258.24 376.65M258.24 376.65L257.21 379.73M257.21 379.73L257.21 384.86M257.21 384.86L258.24 387.94M258.24 387.94L259.27 389.99M259.27 389.99L261.32 392.04M261.32 392.04L263.37 393.07M270.55 384.86L270.55 393.07M271.58 384.86L271.58 393.07M267.47 384.86L274.66 384.86M282.87 393.07L282.87 371.52M283.89 371.52L283.89 393.07M279.79 371.52L292.1 371.52M292.1 371.52L295.18 372.55M295.18 372.55L296.2 373.57M296.2 373.57L297.23 375.62M297.23 375.62L297.23 377.68M297.23 377.68L296.2 379.73M296.2 379.73L295.18 380.75M295.18 380.75L292.1 381.78M292.1 381.78L283.89 381.78M292.1 371.52L294.15 372.55M294.15 372.55L295.18 373.57M295.18 373.57L296.2 375.62M296.2 375.62L296.2 377.68M296.2 377.68L295.18 379.73M295.18 379.73L294.15 380.75M294.15 380.75L292.1 381.78M279.79 393.07L286.97 393.07M289.02 381.78L291.07 382.81M291.07 382.81L292.1 383.83M292.1 383.83L295.18 391.02M295.18 391.02L296.2 392.04M296.2 392.04L297.23 392.04M297.23 392.04L298.26 391.02M291.07 382.81L292.1 384.86M292.1 384.86L294.15 392.04M294.15 392.04L295.18 393.07M295.18 393.07L297.23 393.07M297.23 393.07L298.26 391.02M298.26 391.02L298.26 389.99M305.44 393.07L305.44 371.52M306.46 371.52L306.46 393.07M312.62 377.68L312.62 385.88M302.36 371.52L318.78 371.52M318.78 371.52L318.78 377.68M318.78 377.68L317.75 371.52M306.46 381.78L312.62 381.78M302.36 393.07L318.78 393.07M318.78 393.07L318.78 386.91M318.78 386.91L317.75 393.07M325.96 371.52L333.14 382.81M333.14 382.81L333.14 393.07M326.99 371.52L334.17 382.81M334.17 382.81L334.17 393.07M341.35 371.52L334.17 382.81M323.91 371.52L330.06 371.52M337.25 371.52L343.4 371.52M330.06 393.07L337.25 393.07"/>
<path d="M443.55 171.26L435.34 182.75M435.34 182.75L447.65 182.75M443.55 171.26L443.55 188.5"/>
<path d="M155.8 176.69L157.44 175.87M157.44 175.87L159.9 173.4M159.9 173.4L159.9 190.64"/>
<path d="M436.98 222.05L446.01 222.05M446.01 222.05L441.09 228.62M441.09 228.62L443.55 228.62M443.55 228.62L445.19 229.44M445.19 229.44L446.01 230.26M446.01 230.26L446.83 232.72M446.83 232.72L446.83 234.36M446.83 234.36L446.01 236.82M446.01 236.82L444.37 238.47M444.37 238.47L441.91 239.29M441.91 239.29L439.45 239.29M439.45 239.29L436.98 238.47M436.98 238.47L436.16 237.65M436.16 237.65L435.34 236"/>
<path d="M153.09 224.51L153.09 223.69M153.09 223.69L153.91 222.05M153.91 222.05L154.73 221.23M154.73 221.23L156.37 220.4M156.37 220.4L159.66 220.4M159.66 220.4L161.3 221.23M161.3 221.23L162.12 222.05M162.12 222.05L162.94 223.69M162.94 223.69L162.94 225.33M162.94 225.33L162.12 226.97M162.12 226.97L160.48 229.43M160.48 229.43L152.27 237.64M152.27 237.64L163.76 237.64"/>
<path d="M377.38 331.87L377.38 333.04M377.38 333.43L377.38 333.49M377.38 333.88L377.38 335.43M377.38 335.82L377.38 335.88M377.38 336.27L377.38 337.83M377.38 338.21L377.38 338.28M377.38 338.67L377.38 340.22M377.38 340.61L377.38 340.67M377.38 341.06L377.38 342.23"/>
<path d="M222.24 331.87L222.24 333.04M222.24 333.43L222.24 333.49M222.24 333.88L222.24 335.43M222.24 335.82L222.24 335.88M222.24 336.27L222.24 337.83M222.24 338.21L222.24 338.28M222.24 338.67L222.24 340.22M222.24 340.61L222.24 340.67M222.24 341.06L222.24 342.23"/>
<path d="M420.3 122.44L420.54 122.44M420.61 122.44L420.63 122.44M420.7 122.44L421.01 122.44M421.09 122.44L421.1 122.44M421.18 122.44L421.49 122.44M421.57 122.44L421.58 122.44M421.66 122.44L421.97 122.44M422.05 122.44L422.06 122.44M422.14 122.44L422.37 122.44"/>
<path d="M404.96 332.74L414.86 330.77M414.86 330.77L423.24 325.16M423.24 325.16L428.85 316.77M428.85 316.77L430.82 306.88"/>
<path d="M404.96 332.74L368.94 332.74"/>
<path d="M368.76 332.74L230.86 332.74"/>
<path d="M230.68 332.74L194.66 332.74"/>
<path d="M168.8 306.88L170.77 316.77M170.77 316.77L176.38 325.16M176.38 325.16L184.77 330.77M184.77 330.77L194.66 332.74"/>
<path d="M168.8 306.88L168.8 65.55"/>
<path d="M420.47 113.82L422.2 113.82"/>
<path d="M430.82 122.44L430.82 306.88"/>
<path d="M404.96 332.74L404.96 324.12"/>
<path d="M422.2 306.88L430.82 306.88"/>
<path d="M404.96 324.12L411.56 322.8M411.56 322.8L417.15 319.07M417.15 319.07L420.89 313.48M420.89 313.48L422.2 306.88"/>
<path d="M397.35 324.12L404.96 324.12"/>
<path d="M368.76 332.74L382.15 330.97M382.15 330.97L394.62 325.81M394.62 325.81L405.33 317.59M405.33 317.59L413.55 306.88M413.55 306.88L418.71 294.41M418.71 294.41L420.47 281.02"/>
<path d="M368.76 325.84L368.76 332.74"/>
<path d="M230.86 325.84L368.76 325.84"/>
<path d="M230.86 332.74L230.86 325.84"/>
<path d="M179.15 281.02L180.91 294.41M180.91 294.41L186.08 306.88M186.08 306.88L194.29 317.59M194.29 317.59L205 325.81M205 325.81L217.48 330.97M217.48 330.97L230.86 332.74"/>
<path d="M194.66 324.12L202.28 324.12"/>
<path d="M194.66 324.12L194.66 332.74"/>
<path d="M222.24 332.74L222.24 341.35"/>
<path d="M222.24 341.35L377.38 341.35"/>
<path d="M377.38 341.35L377.38 332.74"/>
<path d="M377.38 341.35L386 341.35"/>
<path d="M386 332.74L386 341.35"/>
<path d="M213.62 341.35L213.62 332.74"/>
<path d="M222.24 341.35L213.62 341.35"/>
<path d="M177.42 306.88L178.74 313.48M178.74 313.48L182.47 319.07M182.47 319.07L188.06 322.8M188.06 322.8L194.66 324.12"/>
<path d="M177.42 306.88L168.8 306.88"/>
<path d="M177.42 65.55L177.42 306.88"/>
<path d="M177.42 65.55L168.8 65.55"/>
<path d="M177.42 56.93L173.11 58.09M173.11 58.09L169.96 61.24M169.96 61.24L168.8 65.55"/>
<path d="M430.82 122.44L429.66 118.13M429.66 118.13L426.51 114.97M426.51 114.97L422.2 113.82"/>
<path d="M237.76 65.55L237.76 79.34"/>
<path d="M263.61 70.72L263.61 74.17"/>
<path d="M263.61 56.93L263.61 70.72"/>
<path d="M336.01 56.93L336.01 70.72"/>
<path d="M336.01 70.72L336.01 74.17"/>
<path d="M422.2 122.44L420.47 122.44"/>
<path d="M422.2 113.82L422.2 122.44"/>
<path d="M430.82 122.44L422.2 122.44"/>
<path d="M422.2 306.88L422.2 122.44"/>
<path d="M420.47 79.34L420.47 281.02"/>
<path d="M413.58 281.02L420.47 281.02"/>
<path d="M368.76 325.84L380.36 324.31M380.36 324.31L391.17 319.84M391.17 319.84L400.45 312.71M400.45 312.71L407.58 303.43M407.58 303.43L412.05 292.62M412.05 292.62L413.58 281.02"/>
<path d="M413.58 281.02L413.58 81.07"/>
<path d="M413.58 81.07L401.51 81.07"/>
<path d="M401.51 81.07L401.51 101.75"/>
<path d="M401.51 101.75L354.97 101.75"/>
<path d="M354.97 101.75L354.97 81.07"/>
<path d="M354.97 81.07L342.91 81.07"/>
<path d="M342.91 81.07L342.91 101.75"/>
<path d="M342.91 101.75L256.72 101.75"/>
<path d="M256.72 101.75L256.72 81.07"/>
<path d="M256.72 81.07L244.65 81.07"/>
<path d="M244.65 81.07L244.65 101.75"/>
<path d="M244.65 101.75L198.11 101.75"/>
<path d="M198.11 101.75L198.11 81.07"/>
<path d="M198.11 81.07L186.04 81.07"/>
<path d="M186.04 81.07L186.04 281.02"/>
<path d="M186.04 281.02L187.57 292.62M187.57 292.62L192.05 303.43M192.05 303.43L199.17 312.71M199.17 312.71L208.45 319.84M208.45 319.84L219.26 324.31M219.26 324.31L230.86 325.84"/>
<path d="M358.42 322.39L371.36 320.69M371.36 320.69L383.41 315.7M383.41 315.7L393.77 307.75M393.77 307.75L401.71 297.4M401.71 297.4L406.71 285.34M406.71 285.34L408.41 272.4"/>
<path d="M358.42 322.39L241.2 322.39"/>
<path d="M191.21 272.4L192.92 285.34M192.92 285.34L197.91 297.4M197.91 297.4L205.86 307.75M205.86 307.75L216.21 315.7M216.21 315.7L228.27 320.69M228.27 320.69L241.2 322.39"/>
<path d="M191.21 272.4L191.21 155.19"/>
<path d="M241.2 105.2L228.27 106.9M228.27 106.9L216.21 111.9M216.21 111.9L205.86 119.84M205.86 119.84L197.91 130.19M197.91 130.19L192.92 142.25M192.92 142.25L191.21 155.19"/>
<path d="M241.2 105.2L358.42 105.2"/>
<path d="M408.41 155.19L406.71 142.25M406.71 142.25L401.71 130.19M401.71 130.19L393.77 119.84M393.77 119.84L383.41 111.9M383.41 111.9L371.36 106.9M371.36 106.9L358.42 105.2"/>
<path d="M408.41 155.19L408.41 272.4"/>
<path d="M186.04 281.02L179.15 281.02"/>
<path d="M237.76 65.55L177.42 65.55"/>
<path d="M179.15 281.02L179.15 79.34"/>
<path d="M377.38 341.35L377.38 349.97"/>
<path d="M222.24 341.35L222.24 349.97"/>
<path d="M377.38 349.97L222.24 349.97"/>
<path d="M377.38 349.97L381.69 348.82M381.69 348.82L384.84 345.66M384.84 345.66L386 341.35"/>
<path d="M213.62 341.35L214.78 345.66M214.78 345.66L217.93 348.82M217.93 348.82L222.24 349.97"/>
<path d="M177.42 65.55L177.42 56.93"/>
<path d="M177.42 56.93L229.14 56.93"/>
<path d="M237.76 65.55L236.6 61.24M236.6 61.24L233.45 58.09M233.45 58.09L229.14 56.93"/>
<path d="M205 94.86L237.76 94.86"/>
<path d="M237.76 94.86L237.76 79.34"/>
<path d="M242.93 74.17L240.34 74.86M240.34 74.86L238.45 76.76M238.45 76.76L237.76 79.34"/>
<path d="M341.18 74.17L356.7 74.17"/>
<path d="M242.93 74.17L258.44 74.17"/>
<path d="M258.44 74.17L341.18 74.17"/>
<path d="M336.01 70.72L263.61 70.72"/>
<path d="M336.01 56.93L263.61 56.93"/>
<path d="M361.27 76.93L379.1 74.79"/>
<path d="M379.1 74.79L379.1 62.1"/>
<path d="M379.1 62.1L336.01 62.1"/>
<path d="M399.79 74.17L415.3 74.17"/>
<path d="M420.48 79.34L419.78 76.76M419.78 76.76L417.89 74.86M417.89 74.86L415.3 74.17"/>
<path d="M361.87 79.34L361.17 76.76M361.17 76.76L359.28 74.86M359.28 74.86L356.7 74.17"/>
<path d="M361.87 79.34L361.87 94.86"/>
<path d="M361.87 94.86L394.62 94.86"/>
<path d="M394.62 94.86L394.62 79.34"/>
<path d="M399.79 74.17L397.2 74.86M397.2 74.86L395.31 76.76M395.31 76.76L394.62 79.34"/>
<path d="M420.47 79.34L413.58 81.07"/>
<path d="M399.79 74.17L401.51 81.07"/>
<path d="M415.3 74.17L413.58 81.07"/>
<path d="M394.62 94.86L401.51 101.75"/>
<path d="M394.62 79.34L401.51 81.07"/>
<path d="M354.97 101.75L361.87 94.86"/>
<path d="M354.97 81.07L361.87 79.34"/>
<path d="M354.97 81.07L356.7 74.17"/>
<path d="M342.91 81.07L341.18 74.17"/>
<path d="M336.01 94.86L336.01 79.34"/>
<path d="M336.01 94.86L342.91 101.75"/>
<path d="M342.91 81.07L336.01 79.34"/>
<path d="M256.72 101.75L263.61 94.86"/>
<path d="M263.61 94.86L336.01 94.86"/>
<path d="M263.61 79.34L256.72 81.07"/>
<path d="M263.61 79.34L263.61 94.86"/>
<path d="M242.93 74.17L244.65 81.07"/>
<path d="M258.44 74.17L256.72 81.07"/>
<path d="M237.76 94.86L244.65 101.75"/>
<path d="M237.76 79.34L244.65 81.07"/>
<path d="M198.11 101.75L205 94.86"/>
<path d="M205 79.34L198.11 81.07"/>
<path d="M205 79.34L205 94.86"/>
<path d="M184.32 74.17L186.04 81.07"/>
<path d="M199.83 74.17L198.11 81.07"/>
<path d="M184.32 74.17L199.83 74.17"/>
<path d="M179.15 79.34L186.04 81.07"/>
<path d="M358.42 322.39L358.42 315.5"/>
<path d="M358.42 315.5L369.57 314.03M369.57 314.03L379.97 309.72M379.97 309.72L388.89 302.88M388.89 302.88L395.74 293.95M395.74 293.95L400.05 283.56M400.05 283.56L401.51 272.4"/>
<path d="M408.41 272.4L401.51 272.4"/>
<path d="M241.2 315.5L241.2 322.39"/>
<path d="M241.2 315.5L358.42 315.5"/>
<path d="M198.11 272.4L199.58 283.56M199.58 283.56L203.88 293.95M203.88 293.95L210.73 302.88M210.73 302.88L219.66 309.72M219.66 309.72L230.05 314.03M230.05 314.03L241.2 315.5"/>
<path d="M198.11 272.4L191.21 272.4"/>
<path d="M198.11 155.19L191.21 155.19"/>
<path d="M198.11 155.19L198.11 272.4"/>
<path d="M241.2 112.09L230.05 113.56M230.05 113.56L219.66 117.87M219.66 117.87L210.73 124.72M210.73 124.72L203.88 133.64M203.88 133.64L199.58 144.03M199.58 144.03L198.11 155.19"/>
<path d="M241.2 112.09L241.2 105.2"/>
<path d="M358.42 105.2L358.42 112.09"/>
<path d="M358.42 112.09L241.2 112.09"/>
<path d="M408.41 155.19L401.51 155.19"/>
<path d="M401.51 155.19L400.05 144.03M400.05 144.03L395.74 133.64M395.74 133.64L388.89 124.72M388.89 124.72L379.97 117.87M379.97 117.87L369.57 113.56M369.57 113.56L358.42 112.09"/>
<path d="M401.51 272.4L401.51 155.19"/>
<path d="M184.32 74.17L181.73 74.86M181.73 74.86L179.84 76.76M179.84 76.76L179.15 79.34"/>
<path d="M205 79.34L204.31 76.76M204.31 76.76L202.42 74.86M202.42 74.86L199.83 74.17"/>
<path d="M341.18 74.17L338.6 74.86M338.6 74.86L336.7 76.76M336.7 76.76L336.01 79.34"/>
<path d="M263.61 79.34L262.92 76.76M262.92 76.76L261.03 74.86M261.03 74.86L258.44 74.17"/>
<path d="M384.28 74.17L379.1 74.79"/>
<path d="M384.28 62.1L384.28 74.17"/>
<path d="M384.28 62.1L379.1 62.1"/>
<path d="M379.1 56.93L379.1 62.1"/>
<path d="M336.01 56.93L379.1 56.93"/>
<path d="M384.28 62.1L383.58 59.52M383.58 59.52L381.69 57.63M381.69 57.63L379.1 56.93"/>
<path d="M358.42 308.6L358.42 315.5"/>
<path d="M401.51 272.4L394.62 272.4"/>
<path d="M358.42 308.6L369.61 306.83M369.61 306.83L379.7 301.69M379.7 301.69L387.71 293.68M387.71 293.68L392.85 283.59M392.85 283.59L394.62 272.4"/>
<path d="M241.2 308.6L358.42 308.6"/>
<path d="M241.2 308.6L241.2 315.5"/>
<path d="M205 272.4L198.11 272.4"/>
<path d="M205 272.4L206.78 283.59M206.78 283.59L211.92 293.68M211.92 293.68L219.93 301.69M219.93 301.69L230.02 306.83M230.02 306.83L241.2 308.6"/>
<path d="M205 155.19L205 272.4"/>
<path d="M205 155.19L198.11 155.19"/>
<path d="M241.2 112.09L241.2 118.99"/>
<path d="M241.2 118.99L230.02 120.76M230.02 120.76L219.93 125.9M219.93 125.9L211.92 133.91M211.92 133.91L206.78 144M206.78 144L205 155.19"/>
<path d="M358.42 112.09L358.42 118.99"/>
<path d="M358.42 118.99L241.2 118.99"/>
<path d="M394.62 155.19L392.85 144M392.85 144L387.71 133.91M387.71 133.91L379.7 125.9M379.7 125.9L369.61 120.76M369.61 120.76L358.42 118.99"/>
<path d="M401.51 155.19L394.62 155.19"/>
<path d="M394.62 272.4L394.62 155.19"/>
<path d="M346.35 167.25L346.35 239.65"/>
<path d="M337.73 248.27L342.04 247.12M342.04 247.12L345.2 243.96M345.2 243.96L346.35 239.65"/>
<path d="M337.73 248.27L261.89 248.27"/>
<path d="M253.27 239.65L254.42 243.96M254.42 243.96L257.58 247.12M257.58 247.12L261.89 248.27"/>
<path d="M253.27 239.65L253.27 167.25"/>
<path d="M261.89 158.63L257.58 159.79M257.58 159.79L254.42 162.94M254.42 162.94L253.27 167.25"/>
<path d="M261.89 158.63L337.73 158.63"/>
<path d="M346.35 167.25L345.2 162.94M345.2 162.94L342.04 159.79M342.04 159.79L337.73 158.63"/>
<path d="M341.18 167.25L346.35 167.25"/>
<path d="M341.18 239.65L341.18 167.25"/>
<path d="M346.35 239.65L341.18 239.65"/>
<path d="M344.28 204.14L342.95 206.37"/>
<path d="M344.28 204.14L344.28 232.07"/>
<path d="M342.95 229.84L344.28 232.07"/>
<path d="M342.95 229.84L342.95 206.37"/>
<path d="M346.35 196.56L346.98 195.93M346.98 195.93L347.21 195.07"/>
<path d="M346.35 193.97L347.21 193.97"/>
<path d="M347.21 193.97L347.21 195.07"/>
<path d="M346.35 190.52L347.21 190.52"/>
<path d="M347.21 190.52L347.21 193.97"/>
<path d="M347.21 189.43L346.98 188.57M346.98 188.57L346.35 187.94"/>
<path d="M347.21 189.43L347.21 190.52"/>
<path d="M337.73 243.1L339.46 242.64M339.46 242.64L340.72 241.38M340.72 241.38L341.18 239.65"/>
<path d="M337.73 248.27L337.73 243.1"/>
<path d="M261.89 243.1L261.89 248.27"/>
<path d="M261.89 243.1L337.73 243.1"/>
<path d="M330.15 246.2L327.92 244.86"/>
<path d="M330.15 246.2L269.47 246.2"/>
<path d="M271.7 244.86L269.47 246.2"/>
<path d="M271.7 244.86L327.92 244.86"/>
<path d="M292.92 248.27L293.55 248.9M293.55 248.9L294.41 249.13"/>
<path d="M295.5 248.27L295.5 249.13"/>
<path d="M295.5 249.13L294.41 249.13"/>
<path d="M304.12 248.27L304.12 249.13"/>
<path d="M304.12 249.13L295.5 249.13"/>
<path d="M305.21 249.13L306.08 248.9M306.08 248.9L306.71 248.27"/>
<path d="M305.21 249.13L304.12 249.13"/>
<path d="M258.44 239.65L253.27 239.65"/>
<path d="M258.44 239.65L259.45 242.09M259.45 242.09L261.89 243.1"/>
<path d="M258.44 167.25L258.44 239.65"/>
<path d="M253.27 167.25L258.44 167.25"/>
<path d="M255.34 232.07L256.68 229.84"/>
<path d="M255.34 232.07L255.34 204.14"/>
<path d="M256.68 206.37L255.34 204.14"/>
<path d="M256.68 206.37L256.68 229.84"/>
<path d="M253.27 187.94L252.64 188.57M252.64 188.57L252.41 189.43"/>
<path d="M253.27 190.52L252.41 190.52"/>
<path d="M252.41 190.52L252.41 189.43"/>
<path d="M253.27 193.97L252.41 193.97"/>
<path d="M252.41 193.97L252.41 190.52"/>
<path d="M252.41 195.07L252.64 195.93M252.64 195.93L253.27 196.56"/>
<path d="M252.41 195.07L252.41 193.97"/>
<path d="M261.89 163.81L260.16 164.27M260.16 164.27L258.9 165.53M258.9 165.53L258.44 167.25"/>
<path d="M261.89 158.63L261.89 163.81"/>
<path d="M337.73 163.81L337.73 158.63"/>
<path d="M337.73 163.81L261.89 163.81"/>
<path d="M315.15 160.7L317.38 162.04"/>
<path d="M315.15 160.7L330.15 160.7"/>
<path d="M327.92 162.04L330.15 160.7"/>
<path d="M327.92 162.04L317.38 162.04"/>
<path d="M269.47 160.7L271.7 162.04"/>
<path d="M269.47 160.7L284.47 160.7"/>
<path d="M282.24 162.04L284.47 160.7"/>
<path d="M282.24 162.04L271.7 162.04"/>
<path d="M341.18 167.25L340.72 165.53M340.72 165.53L339.46 164.27M339.46 164.27L337.73 163.81"/>
<path d="M342.94 206.36L344.19 204.36"/>
<path d="M344.19 204.36L344.28 204.14"/>
<path d="M344.19 204.36L344.19 231.85"/>
<path d="M344.28 232.07L344.19 231.85"/>
<path d="M344.19 231.85L342.94 229.85"/>
<path d="M327.93 244.86L329.93 246.11"/>
<path d="M329.93 246.1L330.15 246.2"/>
<path d="M329.93 246.1L269.69 246.1"/>
<path d="M269.47 246.2L269.69 246.1"/>
<path d="M269.69 246.11L271.69 244.86"/>
<path d="M256.68 229.85L255.43 231.85"/>
<path d="M255.44 231.85L255.34 232.07"/>
<path d="M255.44 231.85L255.44 204.36"/>
<path d="M255.34 204.14L255.44 204.36"/>
<path d="M255.43 204.36L256.68 206.36"/>
<path d="M317.37 162.05L315.37 160.79"/>
<path d="M315.37 160.8L315.15 160.7"/>
<path d="M315.37 160.8L329.93 160.8"/>
<path d="M330.15 160.7L329.93 160.8"/>
<path d="M329.93 160.79L327.93 162.05"/>
<path d="M271.69 162.05L269.69 160.79"/>
<path d="M269.69 160.8L269.47 160.7"/>
<path d="M269.69 160.8L284.25 160.8"/>
<path d="M284.47 160.7L284.25 160.8"/>
<path d="M284.25 160.79L282.25 162.05"/>
</g>
</g>
</svg>
