<?xml version="1.0" standalone="no"?><svg xmlns="http://www.w3.org/2000/svg" width="600.000" height="450.000" viewBox="0.0 0.0 600.000 450.000" version="1.1">
<title>Acme Converter - Post-processed with EDS-Designer: 14.44 (info@symca.com)</title>
<desc>Acme Converter - Post-processed with EDS-Designer: 14.44 (info@symca.com)</desc>
<g id="EDS_STYLE_GROUP" fill="none" stroke="black" stroke-width="1.0">
<g id="0" display="visible">
<path d="M340.5 297.99L340.5 292.38"/>
<path d="M346.11 303.6L340.5 297.99"/>
<path d="M358.17 292.38L367.84 282.71"/>
<path d="M340.5 292.38L358.17 292.38"/>
<path d="M346.11 303.6L367.84 303.6"/>
<path d="M379.05 303.6L367.84 303.6"/>
<path d="M367.84 296.59L367.84 303.6"/>
<path d="M367.84 265.75L367.84 296.59"/>
<path d="M367.84 257.34L367.84 257.06"/>
<path d="M379.05 269.95L379.05 296.59"/>
<path d="M379.05 296.59L379.05 303.6"/>
<path d="M379.05 296.59L367.84 296.59"/>
<path d="M231.16 234.91L232.57 234.91"/>
<path d="M238.17 257.34L238.17 239.68"/>
<path d="M211.19 257.34L238.17 257.34"/>
<path d="M211.19 234.91L211.19 257.34"/>
<path d="M201.73 269.95L201.73 234.91"/>
<path d="M212.24 269.95L201.73 269.95"/>
<path d="M212.24 296.59L212.24 269.95"/>
<path d="M223.45 296.59L212.24 296.59"/>
<path d="M223.45 265.75L223.45 296.59"/>
<path d="M238.17 265.75L223.45 265.75"/>
<path d="M271.82 265.75L238.17 265.75"/>
<path d="M271.82 239.68L271.82 265.75"/>
<path d="M319.48 265.75L319.48 239.68"/>
<path d="M353.12 265.75L319.48 265.75"/>
<path d="M367.84 265.75L353.12 265.75"/>
<path d="M389.57 269.95L379.05 269.95"/>
<path d="M389.57 269.95L389.57 234.91"/>
<path d="M380.1 257.34L380.1 234.91"/>
<path d="M380.1 257.34L353.12 257.34"/>
<path d="M353.12 257.34L353.12 239.68"/>
<path d="M358.73 234.91L360.13 234.91"/>
<path d="M353.12 275.56L367.84 275.56"/>
<path d="M367.84 257.06L370.99 257.06"/>
<path d="M220.3 257.06L223.45 257.06"/>
<path d="M358.73 229.44L360.13 229.44"/>
<path d="M232.57 229.44L231.16 229.44"/>
<path d="M231.16 234.91L231.16 223.98"/>
<path d="M231.16 234.91L102.2 234.91"/>
<path d="M88.18 234.91L59.09 234.91"/>
<path d="M482.08 234.91L532.2 234.91"/>
<path d="M360.13 234.91L468.07 234.91"/>
<path d="M212.24 303.6L212.24 296.59"/>
<path d="M223.45 303.6L212.24 303.6"/>
<path d="M223.45 303.6L223.45 296.59"/>
<path d="M223.45 257.06L223.45 257.34"/>
<path d="M238.17 275.56L223.45 275.56"/>
<path d="M238.17 286.78L238.17 275.56"/>
<path d="M271.82 286.78L238.17 286.78"/>
<path d="M271.82 286.78L271.82 265.75"/>
<path d="M271.82 289.58L271.82 286.78"/>
<path d="M319.48 286.78L319.48 289.58"/>
<path d="M319.48 286.78L319.48 265.75"/>
<path d="M353.12 286.78L353.12 275.56"/>
<path d="M353.12 286.78L319.48 286.78"/>
<path d="M360.13 223.98L360.13 234.91"/>
<path d="M319.48 269.95L271.82 269.95"/>
<path d="M373.8 257.34L373.8 234.91"/>
<path d="M370.99 257.34L370.99 234.91"/>
<path d="M59.09 234.91L59.09 223.98"/>
<path d="M231.16 223.98L59.09 223.98"/>
<path d="M62.25 222.85L62.25 223.98"/>
<path d="M78.93 142.46L78.93 143.93"/>
<path d="M78.93 189.91L78.93 191.38"/>
<path d="M78.93 188.29L78.93 189.91"/>
<path d="M78.93 145.55L78.93 188.29"/>
<path d="M78.93 143.93L78.93 145.55"/>
<path d="M59.09 109.87L62.25 109.87"/>
<path d="M59.09 98.94L59.09 109.87"/>
<path d="M59.09 98.94L59.09 84.92"/>
<path d="M73.11 70.9L66.1 72.78M66.1 72.78L60.97 77.91M60.97 77.91L59.09 84.92"/>
<path d="M73.11 70.9L518.18 70.9"/>
<path d="M532.2 84.92L530.32 77.91M530.32 77.91L525.19 72.78M525.19 72.78L518.18 70.9"/>
<path d="M532.2 98.94L532.2 84.92"/>
<path d="M532.2 109.87L532.2 98.94"/>
<path d="M529.04 109.87L532.2 109.87"/>
<path d="M529.04 109.87L529.04 128.65"/>
<path d="M529.04 138.89L529.04 128.65"/>
<path d="M512.36 191.38L512.36 189.91"/>
<path d="M512.36 143.93L512.36 142.46"/>
<path d="M512.36 145.55L512.36 143.93"/>
<path d="M512.36 188.29L512.36 145.55"/>
<path d="M512.36 189.91L512.36 188.29"/>
<path d="M529.04 223.98L529.04 222.85"/>
<path d="M532.2 223.98L360.13 223.98"/>
<path d="M532.2 223.98L532.2 234.91"/>
<path d="M509 222.85L509 223.98"/>
<path d="M96.66 223.98L96.66 222.85"/>
<path d="M88.18 269.95L88.18 234.91"/>
<path d="M102.2 269.95L88.18 269.95"/>
<path d="M102.2 234.91L102.2 269.95"/>
<path d="M217.5 257.34L217.5 234.91"/>
<path d="M220.3 257.34L220.3 234.91"/>
<path d="M468.07 269.95L468.07 234.91"/>
<path d="M482.08 269.95L468.07 269.95"/>
<path d="M482.08 234.91L482.08 269.95"/>
<path d="M223.45 303.6L245.18 303.6"/>
<path d="M245.18 303.6L250.79 297.99"/>
<path d="M250.79 297.99L250.79 292.38"/>
<path d="M233.13 292.38L250.79 292.38"/>
<path d="M223.45 282.71L233.13 292.38"/>
<path d="M319.48 289.58L271.82 289.58"/>
<path d="M253.59 295.5L253.59 286.78"/>
<path d="M337.7 295.5L253.59 295.5"/>
<path d="M337.7 286.78L337.7 295.5"/>
<path d="M271.82 283.27L319.48 283.27"/>
<path d="M271.82 274.16L319.48 274.16"/>
<path d="M319.48 259.44L271.82 259.44"/>
<path d="M85.45 223.98L85.45 222.85"/>
<path d="M72.62 222.85L72.62 223.98"/>
<path d="M72.62 168.32L72.62 191.38"/>
<path d="M197.45 142.46L215.81 142.46"/>
<path d="M189.39 142.46L197.45 142.46"/>
<path d="M189.39 142.46L188.27 142.46"/>
<path d="M180.21 142.46L188.27 142.46"/>
<path d="M161.85 142.46L180.21 142.46"/>
<path d="M153.78 142.46L161.85 142.46"/>
<path d="M153.78 142.46L152.66 142.46"/>
<path d="M144.6 142.46L152.66 142.46"/>
<path d="M126.24 142.46L144.6 142.46"/>
<path d="M118.18 142.46L126.24 142.46"/>
<path d="M118.18 142.46L117.06 142.46"/>
<path d="M109 142.46L117.06 142.46"/>
<path d="M90.63 142.46L109 142.46"/>
<path d="M82.57 142.46L90.63 142.46"/>
<path d="M82.57 142.46L71.71 142.46"/>
<path d="M72.62 142.46L72.62 165.52"/>
<path d="M78.93 165.52L72.62 165.52"/>
<path d="M72.62 168.32L78.93 168.32"/>
<path d="M71.71 191.38L82.57 191.38"/>
<path d="M90.63 191.38L82.57 191.38"/>
<path d="M109 191.38L90.63 191.38"/>
<path d="M117.06 191.38L109 191.38"/>
<path d="M117.06 191.38L118.18 191.38"/>
<path d="M126.24 191.38L118.18 191.38"/>
<path d="M144.6 191.38L126.24 191.38"/>
<path d="M152.66 191.38L144.6 191.38"/>
<path d="M152.66 191.38L153.78 191.38"/>
<path d="M161.85 191.38L153.78 191.38"/>
<path d="M180.21 191.38L161.85 191.38"/>
<path d="M188.27 191.38L180.21 191.38"/>
<path d="M188.27 191.38L189.39 191.38"/>
<path d="M197.45 191.38L189.39 191.38"/>
<path d="M215.81 191.38L197.45 191.38"/>
<path d="M85.8 189.91L90 189.91"/>
<path d="M78.93 189.91L85.8 189.91"/>
<path d="M85.8 189.91L82.99 188.29"/>
<path d="M82.99 188.29L78.93 188.29"/>
<path d="M189.81 162.72L211.28 162.72"/>
<path d="M189.81 145.55L189.81 162.72"/>
<path d="M187.85 145.55L189.81 145.55"/>
<path d="M187.85 162.72L187.85 145.55"/>
<path d="M154.21 162.72L187.85 162.72"/>
<path d="M154.21 145.55L154.21 162.72"/>
<path d="M152.24 145.55L154.21 145.55"/>
<path d="M152.24 162.72L152.24 145.55"/>
<path d="M118.6 162.72L152.24 162.72"/>
<path d="M118.6 145.55L118.6 162.72"/>
<path d="M116.64 145.55L118.6 145.55"/>
<path d="M116.64 162.72L116.64 145.55"/>
<path d="M82.99 162.72L116.64 162.72"/>
<path d="M82.99 145.55L82.99 162.72"/>
<path d="M78.93 145.55L82.99 145.55"/>
<path d="M82.99 188.29L82.99 171.13"/>
<path d="M82.99 171.13L116.64 171.13"/>
<path d="M116.64 171.13L116.64 188.29"/>
<path d="M116.64 188.29L118.6 188.29"/>
<path d="M118.6 171.13L118.6 188.29"/>
<path d="M152.24 171.13L118.6 171.13"/>
<path d="M152.24 188.29L152.24 171.13"/>
<path d="M154.21 188.29L152.24 188.29"/>
<path d="M154.21 171.13L154.21 188.29"/>
<path d="M187.85 171.13L154.21 171.13"/>
<path d="M187.85 188.29L187.85 171.13"/>
<path d="M189.81 188.29L187.85 188.29"/>
<path d="M189.81 171.13L189.81 188.29"/>
<path d="M211.28 171.13L189.81 171.13"/>
<path d="M211.28 162.72L211.28 171.13"/>
<path d="M82.99 145.55L85.8 143.93"/>
<path d="M85.8 143.93L78.93 143.93"/>
<path d="M90 143.93L85.8 143.93"/>
<path d="M59.09 98.94L62.25 98.94"/>
<path d="M532.2 98.94L529.04 98.94"/>
<path d="M518.67 165.52L518.67 142.46"/>
<path d="M393.84 191.38L375.48 191.38"/>
<path d="M401.9 191.38L393.84 191.38"/>
<path d="M403.02 191.38L401.9 191.38"/>
<path d="M411.08 191.38L403.02 191.38"/>
<path d="M429.45 191.38L411.08 191.38"/>
<path d="M437.51 191.38L429.45 191.38"/>
<path d="M438.63 191.38L437.51 191.38"/>
<path d="M446.69 191.38L438.63 191.38"/>
<path d="M465.05 191.38L446.69 191.38"/>
<path d="M473.11 191.38L465.05 191.38"/>
<path d="M474.23 191.38L473.11 191.38"/>
<path d="M482.29 191.38L474.23 191.38"/>
<path d="M500.66 191.38L482.29 191.38"/>
<path d="M508.72 191.38L500.66 191.38"/>
<path d="M519.58 191.38L508.72 191.38"/>
<path d="M518.67 168.32L512.36 168.32"/>
<path d="M518.67 191.38L518.67 168.32"/>
<path d="M518.67 165.52L512.36 165.52"/>
<path d="M508.72 142.46L519.58 142.46"/>
<path d="M500.66 142.46L508.72 142.46"/>
<path d="M482.29 142.46L500.66 142.46"/>
<path d="M474.23 142.46L482.29 142.46"/>
<path d="M473.11 142.46L474.23 142.46"/>
<path d="M465.05 142.46L473.11 142.46"/>
<path d="M446.69 142.46L465.05 142.46"/>
<path d="M438.63 142.46L446.69 142.46"/>
<path d="M437.51 142.46L438.63 142.46"/>
<path d="M429.45 142.46L437.51 142.46"/>
<path d="M411.08 142.46L429.45 142.46"/>
<path d="M403.02 142.46L411.08 142.46"/>
<path d="M401.9 142.46L403.02 142.46"/>
<path d="M393.84 142.46L401.9 142.46"/>
<path d="M375.48 142.46L393.84 142.46"/>
<path d="M505.49 143.93L501.29 143.93"/>
<path d="M512.36 143.93L505.49 143.93"/>
<path d="M505.49 143.93L508.3 145.55"/>
<path d="M508.3 145.55L512.36 145.55"/>
<path d="M380.02 171.13L401.48 171.13"/>
<path d="M401.48 171.13L401.48 188.29"/>
<path d="M401.48 188.29L403.44 188.29"/>
<path d="M403.44 171.13L403.44 188.29"/>
<path d="M437.09 171.13L403.44 171.13"/>
<path d="M437.09 188.29L437.09 171.13"/>
<path d="M439.05 188.29L437.09 188.29"/>
<path d="M439.05 171.13L439.05 188.29"/>
<path d="M472.69 171.13L439.05 171.13"/>
<path d="M472.69 188.29L472.69 171.13"/>
<path d="M474.66 188.29L472.69 188.29"/>
<path d="M474.66 171.13L474.66 188.29"/>
<path d="M508.3 171.13L474.66 171.13"/>
<path d="M508.3 188.29L508.3 171.13"/>
<path d="M512.36 188.29L508.3 188.29"/>
<path d="M508.3 145.55L508.3 162.72"/>
<path d="M508.3 162.72L474.66 162.72"/>
<path d="M474.66 162.72L474.66 145.55"/>
<path d="M474.66 145.55L472.69 145.55"/>
<path d="M472.69 145.55L472.69 162.72"/>
<path d="M472.69 162.72L439.05 162.72"/>
<path d="M439.05 162.72L439.05 145.55"/>
<path d="M439.05 145.55L437.09 145.55"/>
<path d="M437.09 145.55L437.09 162.72"/>
<path d="M437.09 162.72L403.44 162.72"/>
<path d="M403.44 162.72L403.44 145.55"/>
<path d="M403.44 145.55L401.48 145.55"/>
<path d="M401.48 145.55L401.48 162.72"/>
<path d="M401.48 162.72L380.02 162.72"/>
<path d="M380.02 162.72L380.02 171.13"/>
<path d="M508.3 188.29L505.49 189.91"/>
<path d="M505.49 189.91L512.36 189.91"/>
<path d="M501.29 189.91L505.49 189.91"/>
<path d="M518.67 222.85L518.67 223.98"/>
<path d="M529.04 222.85L358.73 222.85"/>
<path d="M358.73 222.85L358.73 239.68"/>
<path d="M358.73 239.68L232.57 239.68"/>
<path d="M232.57 239.68L232.57 222.85"/>
<path d="M232.57 222.85L62.25 222.85"/>
<path d="M253.59 295.5L253.59 303.6"/>
<path d="M253.59 303.6L337.7 303.6"/>
<path d="M337.7 303.6L337.7 295.5"/>
<path d="M90 155.71L90 143.93"/>
<path d="M109.63 155.71L90 155.71"/>
<path d="M109.63 143.93L109.63 155.71"/>
<path d="M113.83 143.93L109.63 143.93"/>
<path d="M121.4 143.93L113.83 143.93"/>
<path d="M125.61 143.93L121.4 143.93"/>
<path d="M125.61 155.71L125.61 143.93"/>
<path d="M145.23 155.71L125.61 155.71"/>
<path d="M145.23 143.93L145.23 155.71"/>
<path d="M149.44 143.93L145.23 143.93"/>
<path d="M157.01 143.93L149.44 143.93"/>
<path d="M161.21 143.93L157.01 143.93"/>
<path d="M161.21 155.71L161.21 143.93"/>
<path d="M180.84 155.71L161.21 155.71"/>
<path d="M180.84 143.93L180.84 155.71"/>
<path d="M185.04 143.93L180.84 143.93"/>
<path d="M192.61 143.93L185.04 143.93"/>
<path d="M196.82 143.93L192.61 143.93"/>
<path d="M196.82 155.71L196.82 143.93"/>
<path d="M215.32 155.71L196.82 155.71"/>
<path d="M215.32 178.14L215.32 155.71"/>
<path d="M196.82 178.14L215.32 178.14"/>
<path d="M196.82 189.91L196.82 178.14"/>
<path d="M192.61 189.91L196.82 189.91"/>
<path d="M185.04 189.91L192.61 189.91"/>
<path d="M180.84 189.91L185.04 189.91"/>
<path d="M180.84 178.14L180.84 189.91"/>
<path d="M161.21 178.14L180.84 178.14"/>
<path d="M161.21 189.91L161.21 178.14"/>
<path d="M157.01 189.91L161.21 189.91"/>
<path d="M149.44 189.91L157.01 189.91"/>
<path d="M145.23 189.91L149.44 189.91"/>
<path d="M145.23 178.14L145.23 189.91"/>
<path d="M125.61 178.14L145.23 178.14"/>
<path d="M125.61 189.91L125.61 178.14"/>
<path d="M121.4 189.91L125.61 189.91"/>
<path d="M113.83 189.91L121.4 189.91"/>
<path d="M109.63 189.91L113.83 189.91"/>
<path d="M109.63 178.14L109.63 189.91"/>
<path d="M90 178.14L109.63 178.14"/>
<path d="M90 189.91L90 178.14"/>
<path d="M215.81 178.07L215.81 191.38"/>
<path d="M215.81 170.01L215.81 178.07"/>
<path d="M215.81 170.01L215.81 163.84"/>
<path d="M215.81 155.78L215.81 163.84"/>
<path d="M215.81 142.46L215.81 155.78"/>
<path d="M223.87 134.4L189.39 134.4"/>
<path d="M197.45 142.46L189.39 134.4"/>
<path d="M223.87 134.4L215.81 142.46"/>
<path d="M189.39 134.4L189.39 142.46"/>
<path d="M62.25 98.8L529.04 98.8"/>
<path d="M62.25 222.85L62.25 98.8"/>
<path d="M529.04 98.8L529.04 222.85"/>
<path d="M508.72 199.44L508.72 191.38"/>
<path d="M474.23 199.44L508.72 199.44"/>
<path d="M474.23 191.38L474.23 199.44"/>
<path d="M473.11 199.44L473.11 191.38"/>
<path d="M438.63 199.44L473.11 199.44"/>
<path d="M438.63 191.38L438.63 199.44"/>
<path d="M437.51 199.44L437.51 191.38"/>
<path d="M403.02 199.44L437.51 199.44"/>
<path d="M403.02 191.38L403.02 199.44"/>
<path d="M401.9 199.44L401.9 191.38"/>
<path d="M401.9 199.44L367.42 199.44"/>
<path d="M367.42 170.01L367.42 199.44"/>
<path d="M375.48 170.01L367.42 170.01"/>
<path d="M375.48 170.01L375.48 163.84"/>
<path d="M367.42 163.84L375.48 163.84"/>
<path d="M367.42 134.4L367.42 163.84"/>
<path d="M401.9 134.4L367.42 134.4"/>
<path d="M401.9 142.46L401.9 134.4"/>
<path d="M403.02 134.4L403.02 142.46"/>
<path d="M437.51 134.4L403.02 134.4"/>
<path d="M437.51 142.46L437.51 134.4"/>
<path d="M438.63 134.4L438.63 142.46"/>
<path d="M473.11 134.4L438.63 134.4"/>
<path d="M473.11 142.46L473.11 134.4"/>
<path d="M474.23 134.4L474.23 142.46"/>
<path d="M508.72 134.4L474.23 134.4"/>
<path d="M508.72 142.46L508.72 134.4"/>
<path d="M519.58 191.38L519.58 142.46"/>
<path d="M223.87 163.84L223.87 134.4"/>
<path d="M215.81 163.84L223.87 163.84"/>
<path d="M223.87 170.01L215.81 170.01"/>
<path d="M223.87 199.44L223.87 170.01"/>
<path d="M189.39 199.44L223.87 199.44"/>
<path d="M189.39 191.38L189.39 199.44"/>
<path d="M188.27 199.44L188.27 191.38"/>
<path d="M153.78 199.44L188.27 199.44"/>
<path d="M153.78 191.38L153.78 199.44"/>
<path d="M152.66 199.44L152.66 191.38"/>
<path d="M118.18 199.44L152.66 199.44"/>
<path d="M118.18 191.38L118.18 199.44"/>
<path d="M117.06 199.44L117.06 191.38"/>
<path d="M82.57 199.44L117.06 199.44"/>
<path d="M82.57 191.38L82.57 199.44"/>
<path d="M71.71 142.46L71.71 191.38"/>
<path d="M82.57 134.4L82.57 142.46"/>
<path d="M117.06 134.4L82.57 134.4"/>
<path d="M117.06 142.46L117.06 134.4"/>
<path d="M118.18 134.4L118.18 142.46"/>
<path d="M152.66 134.4L118.18 134.4"/>
<path d="M152.66 142.46L152.66 134.4"/>
<path d="M153.78 134.4L153.78 142.46"/>
<path d="M188.27 134.4L153.78 134.4"/>
<path d="M188.27 142.46L188.27 134.4"/>
<path d="M330.69 199.44L330.69 191.38"/>
<path d="M296.21 199.44L330.69 199.44"/>
<path d="M296.21 191.38L296.21 199.44"/>
<path d="M295.09 191.38L296.21 191.38"/>
<path d="M295.09 199.44L295.09 191.38"/>
<path d="M260.6 199.44L295.09 199.44"/>
<path d="M260.6 191.38L260.6 199.44"/>
<path d="M259.48 191.38L260.6 191.38"/>
<path d="M259.48 199.44L259.48 191.38"/>
<path d="M225 199.44L259.48 199.44"/>
<path d="M225 170.01L225 199.44"/>
<path d="M233.06 170.01L225 170.01"/>
<path d="M233.06 163.84L233.06 170.01"/>
<path d="M225 163.84L233.06 163.84"/>
<path d="M225 134.4L225 163.84"/>
<path d="M259.48 134.4L225 134.4"/>
<path d="M259.48 142.46L259.48 134.4"/>
<path d="M260.6 142.46L259.48 142.46"/>
<path d="M260.6 134.4L260.6 142.46"/>
<path d="M295.09 134.4L260.6 134.4"/>
<path d="M295.09 142.46L295.09 134.4"/>
<path d="M296.21 142.46L295.09 142.46"/>
<path d="M296.21 134.4L296.21 142.46"/>
<path d="M330.69 134.4L296.21 134.4"/>
<path d="M330.69 142.46L330.69 134.4"/>
<path d="M331.81 142.46L330.69 142.46"/>
<path d="M331.81 134.4L331.81 142.46"/>
<path d="M366.3 134.4L331.81 134.4"/>
<path d="M366.3 163.84L366.3 134.4"/>
<path d="M358.24 163.84L366.3 163.84"/>
<path d="M358.24 170.01L358.24 163.84"/>
<path d="M366.3 170.01L358.24 170.01"/>
<path d="M366.3 199.44L366.3 170.01"/>
<path d="M331.81 199.44L366.3 199.44"/>
<path d="M331.81 191.38L331.81 199.44"/>
<path d="M330.69 191.38L331.81 191.38"/>
<path d="M180.21 142.46L188.27 134.4"/>
<path d="M161.85 142.46L153.78 134.4"/>
<path d="M144.6 142.46L152.66 134.4"/>
<path d="M126.24 142.46L118.18 134.4"/>
<path d="M109 142.46L117.06 134.4"/>
<path d="M90.63 142.46L82.57 134.4"/>
<path d="M90.63 191.38L82.57 199.44"/>
<path d="M109 191.38L117.06 199.44"/>
<path d="M126.24 191.38L118.18 199.44"/>
<path d="M144.6 191.38L152.66 199.44"/>
<path d="M161.85 191.38L153.78 199.44"/>
<path d="M180.21 191.38L188.27 199.44"/>
<path d="M189.39 199.44L197.45 191.38"/>
<path d="M223.87 199.44L215.81 191.38"/>
<path d="M82.99 171.13L90 178.14"/>
<path d="M189.81 162.72L196.82 155.71"/>
<path d="M215.32 155.71L211.28 162.72"/>
<path d="M189.81 145.55L192.61 143.93"/>
<path d="M187.85 145.55L185.04 143.93"/>
<path d="M187.85 162.72L180.84 155.71"/>
<path d="M154.21 162.72L161.21 155.71"/>
<path d="M154.21 145.55L157.01 143.93"/>
<path d="M152.24 145.55L149.44 143.93"/>
<path d="M152.24 162.72L145.23 155.71"/>
<path d="M118.6 162.72L125.61 155.71"/>
<path d="M118.6 145.55L121.4 143.93"/>
<path d="M116.64 145.55L113.83 143.93"/>
<path d="M116.64 162.72L109.63 155.71"/>
<path d="M82.99 162.72L90 155.71"/>
<path d="M116.64 171.13L109.63 178.14"/>
<path d="M116.64 188.29L113.83 189.91"/>
<path d="M118.6 188.29L121.4 189.91"/>
<path d="M125.61 178.14L118.6 171.13"/>
<path d="M145.23 178.14L152.24 171.13"/>
<path d="M149.44 189.91L152.24 188.29"/>
<path d="M157.01 189.91L154.21 188.29"/>
<path d="M161.21 178.14L154.21 171.13"/>
<path d="M180.84 178.14L187.85 171.13"/>
<path d="M185.04 189.91L187.85 188.29"/>
<path d="M192.61 189.91L189.81 188.29"/>
<path d="M196.82 178.14L189.81 171.13"/>
<path d="M215.32 178.14L211.28 171.13"/>
<path d="M501.29 178.14L501.29 189.91"/>
<path d="M481.66 178.14L501.29 178.14"/>
<path d="M481.66 189.91L481.66 178.14"/>
<path d="M477.46 189.91L481.66 189.91"/>
<path d="M469.89 189.91L477.46 189.91"/>
<path d="M465.68 189.91L469.89 189.91"/>
<path d="M465.68 178.14L465.68 189.91"/>
<path d="M446.06 178.14L465.68 178.14"/>
<path d="M446.06 189.91L446.06 178.14"/>
<path d="M441.85 189.91L446.06 189.91"/>
<path d="M434.28 189.91L441.85 189.91"/>
<path d="M430.08 189.91L434.28 189.91"/>
<path d="M430.08 178.14L430.08 189.91"/>
<path d="M410.45 178.14L430.08 178.14"/>
<path d="M410.45 189.91L410.45 178.14"/>
<path d="M406.25 189.91L410.45 189.91"/>
<path d="M398.68 189.91L406.25 189.91"/>
<path d="M394.47 189.91L398.68 189.91"/>
<path d="M394.47 178.14L394.47 189.91"/>
<path d="M375.97 178.14L394.47 178.14"/>
<path d="M375.97 155.71L375.97 178.14"/>
<path d="M394.47 155.71L375.97 155.71"/>
<path d="M394.47 143.93L394.47 155.71"/>
<path d="M398.68 143.93L394.47 143.93"/>
<path d="M406.25 143.93L398.68 143.93"/>
<path d="M410.45 143.93L406.25 143.93"/>
<path d="M410.45 155.71L410.45 143.93"/>
<path d="M430.08 155.71L410.45 155.71"/>
<path d="M430.08 143.93L430.08 155.71"/>
<path d="M434.28 143.93L430.08 143.93"/>
<path d="M441.85 143.93L434.28 143.93"/>
<path d="M446.06 143.93L441.85 143.93"/>
<path d="M446.06 155.71L446.06 143.93"/>
<path d="M465.68 155.71L446.06 155.71"/>
<path d="M465.68 143.93L465.68 155.71"/>
<path d="M469.89 143.93L465.68 143.93"/>
<path d="M477.46 143.93L469.89 143.93"/>
<path d="M481.66 143.93L477.46 143.93"/>
<path d="M481.66 155.71L481.66 143.93"/>
<path d="M501.29 155.71L481.66 155.71"/>
<path d="M501.29 143.93L501.29 155.71"/>
<path d="M375.48 155.78L375.48 142.46"/>
<path d="M375.48 163.84L375.48 155.78"/>
<path d="M375.48 178.07L375.48 170.01"/>
<path d="M375.48 191.38L375.48 178.07"/>
<path d="M393.84 191.38L401.9 199.44"/>
<path d="M367.42 199.44L375.48 191.38"/>
<path d="M403.02 199.44L411.08 191.38"/>
<path d="M437.51 199.44L429.45 191.38"/>
<path d="M438.63 199.44L446.69 191.38"/>
<path d="M473.11 199.44L465.05 191.38"/>
<path d="M474.23 199.44L482.29 191.38"/>
<path d="M508.72 199.44L500.66 191.38"/>
<path d="M508.72 134.4L500.66 142.46"/>
<path d="M474.23 134.4L482.29 142.46"/>
<path d="M473.11 134.4L465.05 142.46"/>
<path d="M438.63 134.4L446.69 142.46"/>
<path d="M437.51 134.4L429.45 142.46"/>
<path d="M403.02 134.4L411.08 142.46"/>
<path d="M401.9 134.4L393.84 142.46"/>
<path d="M367.42 134.4L375.48 142.46"/>
<path d="M508.3 162.72L501.29 155.71"/>
<path d="M401.48 171.13L394.47 178.14"/>
<path d="M380.02 171.13L375.97 178.14"/>
<path d="M401.48 188.29L398.68 189.91"/>
<path d="M403.44 188.29L406.25 189.91"/>
<path d="M403.44 171.13L410.45 178.14"/>
<path d="M437.09 171.13L430.08 178.14"/>
<path d="M437.09 188.29L434.28 189.91"/>
<path d="M439.05 188.29L441.85 189.91"/>
<path d="M439.05 171.13L446.06 178.14"/>
<path d="M472.69 171.13L465.68 178.14"/>
<path d="M472.69 188.29L469.89 189.91"/>
<path d="M474.66 188.29L477.46 189.91"/>
<path d="M474.66 171.13L481.66 178.14"/>
<path d="M508.3 171.13L501.29 178.14"/>
<path d="M474.66 162.72L481.66 155.71"/>
<path d="M474.66 145.55L477.46 143.93"/>
<path d="M472.69 145.55L469.89 143.93"/>
<path d="M472.69 162.72L465.68 155.71"/>
<path d="M439.05 162.72L446.06 155.71"/>
<path d="M439.05 145.55L441.85 143.93"/>
<path d="M437.09 145.55L434.28 143.93"/>
<path d="M437.09 162.72L430.08 155.71"/>
<path d="M403.44 162.72L410.45 155.71"/>
<path d="M403.44 145.55L406.25 143.93"/>
<path d="M401.48 145.55L398.68 143.93"/>
<path d="M401.48 162.72L394.47 155.71"/>
<path d="M380.02 162.72L375.97 155.71"/>
<path d="M215.81 178.07L223.87 170.01"/>
<path d="M223.87 163.84L215.81 155.78"/>
<path d="M367.42 170.01L375.48 178.07"/>
<path d="M367.42 163.84L375.48 155.78"/>
<path d="M330.69 199.44L322.63 191.38"/>
<path d="M322.63 191.38L330.69 191.38"/>
<path d="M304.27 191.38L322.63 191.38"/>
<path d="M296.21 199.44L304.27 191.38"/>
<path d="M304.27 191.38L296.21 191.38"/>
<path d="M251.42 191.38L233.06 191.38"/>
<path d="M259.48 191.38L251.42 191.38"/>
<path d="M268.66 191.38L260.6 191.38"/>
<path d="M287.03 191.38L268.66 191.38"/>
<path d="M295.09 191.38L287.03 191.38"/>
<path d="M339.87 191.38L331.81 191.38"/>
<path d="M358.24 191.38L339.87 191.38"/>
<path d="M287.03 191.38L295.09 199.44"/>
<path d="M268.66 191.38L260.6 199.44"/>
<path d="M251.42 191.38L259.48 199.44"/>
<path d="M233.06 191.38L225 199.44"/>
<path d="M233.06 191.38L233.06 178.07"/>
<path d="M233.06 178.07L225 170.01"/>
<path d="M233.06 178.07L233.06 170.01"/>
<path d="M233.06 155.78L233.06 142.46"/>
<path d="M233.06 163.84L233.06 155.78"/>
<path d="M233.06 155.78L225 163.84"/>
<path d="M225 134.4L233.06 142.46"/>
<path d="M233.06 142.46L251.42 142.46"/>
<path d="M259.48 134.4L251.42 142.46"/>
<path d="M251.42 142.46L259.48 142.46"/>
<path d="M339.87 142.46L358.24 142.46"/>
<path d="M331.81 142.46L339.87 142.46"/>
<path d="M322.63 142.46L330.69 142.46"/>
<path d="M304.27 142.46L322.63 142.46"/>
<path d="M296.21 142.46L304.27 142.46"/>
<path d="M287.03 142.46L295.09 142.46"/>
<path d="M268.66 142.46L287.03 142.46"/>
<path d="M260.6 142.46L268.66 142.46"/>
<path d="M268.66 142.46L260.6 134.4"/>
<path d="M287.03 142.46L295.09 134.4"/>
<path d="M304.27 142.46L296.21 134.4"/>
<path d="M322.63 142.46L330.69 134.4"/>
<path d="M339.87 142.46L331.81 134.4"/>
<path d="M366.3 134.4L358.24 142.46"/>
<path d="M358.24 142.46L358.24 155.78"/>
<path d="M366.3 163.84L358.24 155.78"/>
<path d="M358.24 155.78L358.24 163.84"/>
<path d="M358.24 178.07L358.24 191.38"/>
<path d="M358.24 170.01L358.24 178.07"/>
<path d="M358.24 178.07L366.3 170.01"/>
<path d="M366.3 199.44L358.24 191.38"/>
<path d="M331.81 199.44L339.87 191.38"/>
<path d="M270.06 309.2L270.06 303.6"/>
<path d="M270.06 309.2L321.23 309.2"/>
<path d="M321.23 303.6L321.23 309.2"/>
<path d="M339.24 189.91L339.24 178.14"/>
<path d="M335.04 189.91L339.24 189.91"/>
<path d="M327.47 189.91L335.04 189.91"/>
<path d="M323.26 189.91L327.47 189.91"/>
<path d="M323.26 178.14L323.26 189.91"/>
<path d="M303.64 178.14L323.26 178.14"/>
<path d="M303.64 189.91L303.64 178.14"/>
<path d="M299.43 189.91L303.64 189.91"/>
<path d="M291.86 189.91L299.43 189.91"/>
<path d="M287.66 189.91L291.86 189.91"/>
<path d="M287.66 178.14L287.66 189.91"/>
<path d="M268.03 178.14L287.66 178.14"/>
<path d="M268.03 189.91L268.03 178.14"/>
<path d="M263.83 189.91L268.03 189.91"/>
<path d="M256.26 189.91L263.83 189.91"/>
<path d="M252.05 189.91L256.26 189.91"/>
<path d="M252.05 178.14L252.05 189.91"/>
<path d="M233.55 178.14L252.05 178.14"/>
<path d="M233.55 155.71L233.55 178.14"/>
<path d="M252.05 155.71L233.55 155.71"/>
<path d="M252.05 143.93L252.05 155.71"/>
<path d="M256.26 143.93L252.05 143.93"/>
<path d="M263.83 143.93L256.26 143.93"/>
<path d="M268.03 143.93L263.83 143.93"/>
<path d="M268.03 155.71L268.03 143.93"/>
<path d="M287.66 155.71L268.03 155.71"/>
<path d="M287.66 143.93L287.66 155.71"/>
<path d="M291.86 143.93L287.66 143.93"/>
<path d="M299.43 143.93L291.86 143.93"/>
<path d="M303.64 143.93L299.43 143.93"/>
<path d="M303.64 155.71L303.64 143.93"/>
<path d="M323.26 155.71L303.64 155.71"/>
<path d="M323.26 143.93L323.26 155.71"/>
<path d="M327.47 143.93L323.26 143.93"/>
<path d="M335.04 143.93L327.47 143.93"/>
<path d="M339.24 143.93L335.04 143.93"/>
<path d="M339.24 155.71L339.24 143.93"/>
<path d="M357.75 155.71L339.24 155.71"/>
<path d="M357.75 178.14L357.75 155.71"/>
<path d="M339.24 178.14L357.75 178.14"/>
<path d="M339.24 178.14L332.23 171.13"/>
<path d="M332.23 188.29L332.23 171.13"/>
<path d="M335.04 189.91L332.23 188.29"/>
<path d="M332.23 188.29L330.27 188.29"/>
<path d="M330.27 188.29L327.47 189.91"/>
<path d="M330.27 188.29L330.27 171.13"/>
<path d="M330.27 171.13L323.26 178.14"/>
<path d="M330.27 171.13L296.63 171.13"/>
<path d="M296.63 171.13L303.64 178.14"/>
<path d="M296.63 171.13L296.63 188.29"/>
<path d="M296.63 188.29L299.43 189.91"/>
<path d="M296.63 188.29L294.66 188.29"/>
<path d="M294.66 188.29L291.86 189.91"/>
<path d="M294.66 188.29L294.66 171.13"/>
<path d="M294.66 171.13L287.66 178.14"/>
<path d="M294.66 171.13L261.02 171.13"/>
<path d="M261.02 171.13L268.03 178.14"/>
<path d="M261.02 171.13L261.02 188.29"/>
<path d="M261.02 188.29L263.83 189.91"/>
<path d="M261.02 188.29L259.06 188.29"/>
<path d="M259.06 188.29L256.26 189.91"/>
<path d="M259.06 188.29L259.06 171.13"/>
<path d="M259.06 171.13L252.05 178.14"/>
<path d="M259.06 171.13L237.59 171.13"/>
<path d="M237.59 171.13L233.55 178.14"/>
<path d="M237.59 171.13L237.59 162.72"/>
<path d="M237.59 162.72L233.55 155.71"/>
<path d="M259.06 162.72L252.05 155.71"/>
<path d="M237.59 162.72L259.06 162.72"/>
<path d="M259.06 162.72L259.06 145.55"/>
<path d="M259.06 145.55L256.26 143.93"/>
<path d="M261.02 145.55L263.83 143.93"/>
<path d="M259.06 145.55L261.02 145.55"/>
<path d="M261.02 145.55L261.02 162.72"/>
<path d="M261.02 162.72L268.03 155.71"/>
<path d="M261.02 162.72L294.66 162.72"/>
<path d="M294.66 162.72L287.66 155.71"/>
<path d="M294.66 162.72L294.66 145.55"/>
<path d="M294.66 145.55L291.86 143.93"/>
<path d="M296.63 145.55L299.43 143.93"/>
<path d="M294.66 145.55L296.63 145.55"/>
<path d="M296.63 145.55L296.63 162.72"/>
<path d="M296.63 162.72L303.64 155.71"/>
<path d="M296.63 162.72L330.27 162.72"/>
<path d="M330.27 162.72L323.26 155.71"/>
<path d="M330.27 162.72L330.27 145.55"/>
<path d="M330.27 145.55L327.47 143.93"/>
<path d="M332.23 145.55L335.04 143.93"/>
<path d="M330.27 145.55L332.23 145.55"/>
<path d="M332.23 145.55L332.23 162.72"/>
<path d="M332.23 162.72L339.24 155.71"/>
<path d="M332.23 162.72L353.7 162.72"/>
<path d="M353.7 162.72L357.75 155.71"/>
<path d="M357.75 178.14L353.7 171.13"/>
<path d="M353.7 171.13L353.7 162.72"/>
<path d="M332.23 171.13L353.7 171.13"/>
<path d="M218.38 379.22L218.38 344.17M220.05 344.17L220.05 379.22M213.37 344.17L233.4 344.17M233.4 344.17L238.4 345.84M238.4 345.84L240.07 347.51M240.07 347.51L241.74 350.85M241.74 350.85L241.74 354.18M241.74 354.18L240.07 357.52M240.07 357.52L238.4 359.19M238.4 359.19L233.4 360.86M233.4 344.17L236.73 345.84M236.73 345.84L238.4 347.51M238.4 347.51L240.07 350.85M240.07 350.85L240.07 354.18M240.07 354.18L238.4 357.52M238.4 357.52L236.73 359.19M236.73 359.19L233.4 360.86M220.05 360.86L233.4 360.86M233.4 360.86L238.4 362.53M238.4 362.53L240.07 364.2M240.07 364.2L241.74 367.53M241.74 367.53L241.74 372.54M241.74 372.54L240.07 375.88M240.07 375.88L238.4 377.55M238.4 377.55L233.4 379.22M233.4 379.22L213.37 379.22M233.4 360.86L236.73 362.53M236.73 362.53L238.4 364.2M238.4 364.2L240.07 367.53M240.07 367.53L240.07 372.54M240.07 372.54L238.4 375.88M238.4 375.88L236.73 377.55M236.73 377.55L233.4 379.22M255.09 379.22L255.09 344.17M256.76 344.17L256.76 379.22M250.08 344.17L261.77 344.17M250.08 379.22L275.12 379.22M275.12 379.22L275.12 369.2M275.12 369.2L273.45 379.22M295.14 344.17L283.46 379.22M295.14 344.17L306.82 379.22M295.14 349.18L305.15 379.22M286.8 369.2L301.82 369.2M280.12 379.22L290.13 379.22M300.15 379.22L310.16 379.22M338.53 349.18L340.2 354.18M340.2 354.18L340.2 344.17M340.2 344.17L338.53 349.18M338.53 349.18L335.19 345.84M335.19 345.84L330.19 344.17M330.19 344.17L326.85 344.17M326.85 344.17L321.84 345.84M321.84 345.84L318.5 349.18M318.5 349.18L316.84 352.51M316.84 352.51L315.17 357.52M315.17 357.52L315.17 365.87M315.17 365.87L316.84 370.87M316.84 370.87L318.5 374.21M318.5 374.21L321.84 377.55M321.84 377.55L326.85 379.22M326.85 379.22L330.19 379.22M330.19 379.22L335.19 377.55M335.19 377.55L338.53 374.21M338.53 374.21L340.2 370.87M326.85 344.17L323.51 345.84M323.51 345.84L320.17 349.18M320.17 349.18L318.5 352.51M318.5 352.51L316.84 357.52M316.84 357.52L316.84 365.87M316.84 365.87L318.5 370.87M318.5 370.87L320.17 374.21M320.17 374.21L323.51 377.55M323.51 377.55L326.85 379.22M355.22 379.22L355.22 344.17M356.89 344.17L356.89 379.22M378.58 344.17L356.89 365.87M365.23 359.19L378.58 379.22M363.56 359.19L376.91 379.22M350.21 344.17L361.89 344.17M371.91 344.17L381.92 344.17M350.21 379.22L361.89 379.22M371.91 379.22L381.92 379.22"/>
<path d="M547.7 184.48L550.37 183.14M550.37 183.14L554.38 179.14M554.38 179.14L554.38 207.17M570.4 185.81L570.4 184.48M570.4 184.48L571.74 181.81M571.74 181.81L573.07 180.47M573.07 180.47L575.74 179.14M575.74 179.14L581.08 179.14M581.08 179.14L583.75 180.47M583.75 180.47L585.09 181.81M585.09 181.81L586.42 184.48M586.42 184.48L586.42 187.15M586.42 187.15L585.09 189.82M585.09 189.82L582.42 193.82M582.42 193.82L569.07 207.17M569.07 207.17L587.76 207.17"/>
<path d="M548.4 142.12L548.4 140.79M548.4 140.79L549.74 138.12M549.74 138.12L551.07 136.78M551.07 136.78L553.74 135.45M553.74 135.45L559.08 135.45M559.08 135.45L561.75 136.78M561.75 136.78L563.09 138.12M563.09 138.12L564.42 140.79M564.42 140.79L564.42 143.46M564.42 143.46L563.09 146.13M563.09 146.13L560.42 150.13M560.42 150.13L547.07 163.48M547.07 163.48L565.76 163.48M587.12 135.45L573.77 154.14M573.77 154.14L593.79 154.14M587.12 135.45L587.12 163.48"/>
<path d="M23.53 183.75L26.2 182.42M26.2 182.42L30.21 178.41M30.21 178.41L30.21 206.45"/>
<path d="M6.16 138.88L8.83 137.55M8.83 137.55L12.83 133.54M12.83 133.54L12.83 161.58M30.19 133.54L44.87 133.54M44.87 133.54L36.86 144.22M36.86 144.22L40.87 144.22M40.87 144.22L43.54 145.56M43.54 145.56L44.87 146.89M44.87 146.89L46.21 150.9M46.21 150.9L46.21 153.57M46.21 153.57L44.87 157.57M44.87 157.57L42.2 160.24M42.2 160.24L38.2 161.58M38.2 161.58L34.19 161.58M34.19 161.58L30.19 160.24M30.19 160.24L28.85 158.91M28.85 158.91L27.52 156.24"/>
</g>
</g>
</svg>
