<?xml version="1.0" standalone="no"?><svg xmlns="http://www.w3.org/2000/svg" width="600.000" height="450.000" viewBox="0.0 0.0 600.000 450.000" version="1.1">
<title>Acme Converter - Post-processed with EDS-Designer: 14.44 (info@symca.com)</title>
<desc>Acme Converter - Post-processed with EDS-Designer: 14.44 (info@symca.com)</desc>
<g id="EDS_STYLE_GROUP" fill="none" stroke="black" stroke-width="1.0">
<g id="0" display="visible">
<path d="M188.5 137.9L184.31 143.77M184.31 143.77L190.6 143.77M188.5 137.9L188.5 146.7M193.12 139.99L193.12 139.57M193.12 139.57L193.54 138.73M193.54 138.73L193.95 138.31M193.95 138.31L194.79 137.9M194.79 137.9L196.47 137.9M196.47 137.9L197.31 138.31M197.31 138.31L197.73 138.73M197.73 138.73L198.15 139.57M198.15 139.57L198.15 140.41M198.15 140.41L197.73 141.25M197.73 141.25L196.89 142.51M196.89 142.51L192.7 146.7M192.7 146.7L198.57 146.7"/>
<path d="M419.38 140.89L418.97 142.15M418.97 142.15L418.13 142.99M418.13 142.99L416.87 143.41M416.87 143.41L416.45 143.41M416.45 143.41L415.19 142.99M415.19 142.99L414.35 142.15M414.35 142.15L413.93 140.89M413.93 140.89L413.93 140.47M413.93 140.47L414.35 139.21M414.35 139.21L415.19 138.37M415.19 138.37L416.45 137.95M416.45 137.95L416.87 137.95M416.87 137.95L418.13 138.37M418.13 138.37L418.97 139.21M418.97 139.21L419.38 140.89M419.38 140.89L419.38 142.99M419.38 142.99L418.97 145.09M418.97 145.09L418.13 146.34M418.13 146.34L416.87 146.76M416.87 146.76L416.03 146.76M416.03 146.76L414.77 146.34M414.77 146.34L414.35 145.51"/>
<path d="M181.49 311.83L186.11 311.83M186.11 311.83L183.59 315.19M183.59 315.19L184.85 315.19M184.85 315.19L185.69 315.61M185.69 315.61L186.11 316.03M186.11 316.03L186.53 317.28M186.53 317.28L186.53 318.12M186.53 318.12L186.11 319.38M186.11 319.38L185.27 320.22M185.27 320.22L184.01 320.64M184.01 320.64L182.75 320.64M182.75 320.64L181.49 320.22M181.49 320.22L181.07 319.8M181.07 319.8L180.65 318.96M193.24 311.83L189.04 317.7M189.04 317.7L195.34 317.7M193.24 311.83L193.24 320.64"/>
<path d="M416.83 312.75L417.67 312.33M417.67 312.33L418.93 311.07M418.93 311.07L418.93 319.88"/>
<path d="M392.55 141.86L390.18 131.49M390.18 131.49L384.19 122.7M384.19 122.7L375.4 116.7M375.4 116.7L365.02 114.33"/>
<path d="M400.81 141.86L398.69 131.74M398.69 131.74L394.1 122.48M394.1 122.48L387.32 114.67M387.32 114.67L378.79 108.83"/>
<path d="M373.28 115.71L373.28 96.44"/>
<path d="M378.79 118.46L378.79 71.66"/>
<path d="M286.57 114.33L286.57 82.67"/>
<path d="M330.61 82.67L330.61 114.33"/>
<path d="M356.77 114.33L356.77 71.66"/>
<path d="M351.26 71.66L351.26 114.33"/>
<path d="M252.15 114.33L241.78 116.7M241.78 116.7L232.99 122.7M232.99 122.7L227 131.49M227 131.49L224.63 141.86"/>
<path d="M238.39 108.83L229.86 114.67M229.86 114.67L223.08 122.48M223.08 122.48L218.48 131.74M218.48 131.74L216.37 141.86"/>
<path d="M238.39 118.46L238.39 71.66"/>
<path d="M243.9 115.88L243.9 96.44"/>
<path d="M259.04 114.33L259.04 71.66"/>
<path d="M264.54 71.66L264.54 114.33"/>
<path d="M409.07 320.8L409.07 334.57"/>
<path d="M365.02 342.82L375.4 340.45M375.4 340.45L384.19 334.46M384.19 334.46L390.18 325.67M390.18 325.67L392.55 315.3"/>
<path d="M365.02 351.08L375.88 348.94M375.88 348.94L385.64 343.74M385.64 343.74L393.47 335.91M393.47 335.91L398.67 326.15M398.67 326.15L400.81 315.3"/>
<path d="M208.11 320.8L208.11 334.57"/>
<path d="M224.63 315.3L227 325.67M227 325.67L232.99 334.46M232.99 334.46L241.78 340.45M241.78 340.45L252.15 342.82"/>
<path d="M216.37 315.3L218.51 326.15M218.51 326.15L223.71 335.91M223.71 335.91L231.54 343.74M231.54 343.74L241.3 348.94M241.3 348.94L252.15 351.08"/>
<path d="M314.1 360.72L303.08 360.72"/>
<path d="M365.02 342.82L252.15 342.82"/>
<path d="M303.08 351.08L252.15 351.08"/>
<path d="M208.11 334.57L210.86 337.32"/>
<path d="M224.63 337.32L210.86 337.32"/>
<path d="M303.08 360.72L303.08 351.08"/>
<path d="M365.02 351.08L314.1 351.08"/>
<path d="M314.1 351.08L314.1 360.72"/>
<path d="M406.32 337.32L409.07 334.57"/>
<path d="M392.37 337.32L406.32 337.32"/>
<path d="M409.07 195.54L409.07 261.61"/>
<path d="M400.81 315.3L400.81 141.86"/>
<path d="M392.55 315.3L392.55 141.86"/>
<path d="M216.37 223.07L216.37 141.86"/>
<path d="M224.63 315.3L224.63 141.86"/>
<path d="M210.86 272.63L209.34 273.03M209.34 273.03L208.11 274"/>
<path d="M216.37 315.3L216.37 234.08"/>
<path d="M212.24 301.53L212.24 307.04"/>
<path d="M212.24 307.04L216.37 307.04"/>
<path d="M216.37 301.53L212.24 301.53"/>
<path d="M216.37 320.8L208.11 320.8"/>
<path d="M216.37 287.77L208.11 287.77"/>
<path d="M208.11 287.77L208.11 274"/>
<path d="M210.86 272.63L216.37 272.63"/>
<path d="M205.36 223.07L216.37 223.07"/>
<path d="M216.37 234.08L205.36 234.08"/>
<path d="M205.36 234.08L205.36 223.07"/>
<path d="M409.07 274L406.32 272.63"/>
<path d="M404.94 301.53L404.94 307.04"/>
<path d="M404.94 307.04L400.81 307.04"/>
<path d="M400.81 301.53L404.94 301.53"/>
<path d="M400.14 320.8L409.07 320.8"/>
<path d="M409.07 287.77L409.07 274"/>
<path d="M400.81 287.77L409.07 287.77"/>
<path d="M400.81 269.87L404.81 268.58M404.81 268.58L407.78 265.61M407.78 265.61L409.07 261.61"/>
<path d="M406.32 272.63L400.81 272.63"/>
<path d="M264.54 114.33L351.26 114.33"/>
<path d="M208.11 169.39L208.11 183.16"/>
<path d="M208.11 183.16L210.86 184.53"/>
<path d="M210.86 184.53L216.37 184.53"/>
<path d="M216.37 169.39L208.11 169.39"/>
<path d="M252.15 114.33L259.04 114.33"/>
<path d="M216.37 150.12L212.24 150.12"/>
<path d="M212.24 155.63L216.37 155.63"/>
<path d="M212.24 150.12L212.24 155.63"/>
<path d="M208.11 136.36L208.11 122.59"/>
<path d="M217.18 136.36L208.11 136.36"/>
<path d="M210.86 119.84L208.11 122.59"/>
<path d="M225 119.84L210.86 119.84"/>
<path d="M259.04 114.33L259.84 116.28M259.84 116.28L261.79 117.09M261.79 117.09L263.74 116.28M263.74 116.28L264.54 114.33"/>
<path d="M409.07 195.54L407.78 191.55M407.78 191.55L404.81 188.58M404.81 188.58L400.81 187.29"/>
<path d="M406.32 184.53L407.86 184.17M407.86 184.17L409.07 183.16"/>
<path d="M409.07 169.39L409.07 183.16"/>
<path d="M406.32 184.53L400.81 184.53"/>
<path d="M400.81 169.39L409.07 169.39"/>
<path d="M356.77 114.33L365.02 114.33"/>
<path d="M351.26 114.33L352.07 116.28M352.07 116.28L354.01 117.09M354.01 117.09L355.96 116.28M355.96 116.28L356.77 114.33"/>
<path d="M404.94 155.63L404.94 150.12"/>
<path d="M404.94 150.12L400.81 150.12"/>
<path d="M400.81 155.63L404.94 155.63"/>
<path d="M409.07 136.36L409.07 122.59"/>
<path d="M409.07 122.59L406.32 119.84"/>
<path d="M399.99 136.36L409.07 136.36"/>
<path d="M392.18 119.84L406.32 119.84"/>
<path d="M330.61 100.57L286.57 100.57"/>
<path d="M286.57 92.31L330.61 92.31"/>
<path d="M330.61 90.93L286.57 90.93"/>
<path d="M286.57 82.67L330.61 82.67"/>
<path d="M238.39 71.66L264.54 71.66"/>
<path d="M246.65 79.92L264.54 79.92"/>
<path d="M264.54 90.93L246.65 90.93"/>
<path d="M243.9 96.44L259.04 96.44"/>
<path d="M246.65 90.93L246.65 79.92"/>
<path d="M264.54 106.07L286.57 106.07"/>
<path d="M378.79 71.66L351.26 71.66"/>
<path d="M370.53 79.92L351.26 79.92"/>
<path d="M351.26 90.93L370.53 90.93"/>
<path d="M373.28 96.44L356.77 96.44"/>
<path d="M330.61 106.07L351.26 106.07"/>
<path d="M370.53 90.93L370.53 79.92"/>
<path d="M316.15 322.73L317.76 318.84M317.76 318.84L321.65 317.23M321.65 317.23L325.55 318.84M325.55 318.84L327.16 322.73M327.16 322.73L325.55 326.63M325.55 326.63L321.65 328.24M321.65 328.24L317.76 326.63M317.76 326.63L316.15 322.73"/>
<path d="M320.13 325.37L321.95 325.76M321.95 325.76L323.65 325.03M323.65 325.03L324.61 323.44"/>
<path d="M324.7 322.73L324.11 320.93M324.11 320.93L322.57 319.83M322.57 319.83L320.68 319.85"/>
<path d="M324.7 322.73L327.16 322.73"/>
<path d="M320.13 325.37L318.9 327.5"/>
<path d="M320.13 320.09L318.9 317.96"/>
<path d="M320.13 320.09L318.88 321.47M318.88 321.47L318.66 323.31M318.66 323.31L319.55 324.93"/>
<path d="M294.18 322.73L295.79 318.83M295.79 318.83L299.68 317.22M299.68 317.22L303.58 318.83M303.58 318.83L305.19 322.73M305.19 322.73L303.58 326.62M303.58 326.62L299.68 328.23M299.68 328.23L295.79 326.62M295.79 326.62L294.18 322.73"/>
<path d="M298.16 325.36L299.98 325.76M299.98 325.76L301.68 325.02M301.68 325.02L302.65 323.43"/>
<path d="M302.73 322.73L302.14 320.93M302.14 320.93L300.6 319.82M300.6 319.82L298.71 319.84"/>
<path d="M302.73 322.73L305.19 322.73"/>
<path d="M298.16 325.36L296.93 327.5"/>
<path d="M298.16 320.09L296.93 317.96"/>
<path d="M298.16 320.09L296.91 321.46M296.91 321.46L296.69 323.3M296.69 323.3L297.58 324.93"/>
<path d="M271.96 311.7L273.57 307.8M273.57 307.8L277.46 306.19M277.46 306.19L281.36 307.8M281.36 307.8L282.97 311.7M282.97 311.7L281.36 315.59M281.36 315.59L277.46 317.2M277.46 317.2L273.57 315.59M273.57 315.59L271.96 311.7"/>
<path d="M275.94 314.33L277.76 314.73M277.76 314.73L279.46 313.99M279.46 313.99L280.42 312.4"/>
<path d="M280.51 311.7L279.92 309.9M279.92 309.9L278.38 308.79M278.38 308.79L276.49 308.81"/>
<path d="M280.51 311.7L282.97 311.7"/>
<path d="M275.94 314.33L274.71 316.47"/>
<path d="M275.94 309.06L274.71 306.93"/>
<path d="M275.94 309.06L274.69 310.43M274.69 310.43L274.47 312.27M274.47 312.27L275.36 313.9"/>
<path d="M248.57 314.39L250.19 310.5M250.19 310.5L254.08 308.88M254.08 308.88L257.97 310.5M257.97 310.5L259.58 314.39M259.58 314.39L257.97 318.28M257.97 318.28L254.08 319.89M254.08 319.89L250.19 318.28M250.19 318.28L248.57 314.39"/>
<path d="M252.56 317.03L254.37 317.42M254.37 317.42L256.08 316.69M256.08 316.69L257.04 315.1"/>
<path d="M257.12 314.39L256.54 312.59M256.54 312.59L255 311.49M255 311.49L253.11 311.5"/>
<path d="M257.12 314.39L259.58 314.39"/>
<path d="M252.56 317.03L251.33 319.16"/>
<path d="M252.56 311.75L251.33 309.62"/>
<path d="M252.56 311.75L251.31 313.12M251.31 313.12L251.09 314.96M251.09 314.96L251.98 316.59"/>
<path d="M251.42 292.47L253.03 288.58M253.03 288.58L256.92 286.97M256.92 286.97L260.82 288.58M260.82 288.58L262.43 292.47M262.43 292.47L260.82 296.37M260.82 296.37L256.92 297.98M256.92 297.98L253.03 296.37M253.03 296.37L251.42 292.47"/>
<path d="M255.4 295.11L257.22 295.5M257.22 295.5L258.92 294.77M258.92 294.77L259.88 293.18"/>
<path d="M259.97 292.47L259.38 290.67M259.38 290.67L257.84 289.57M257.84 289.57L255.95 289.59"/>
<path d="M259.97 292.47L262.43 292.47"/>
<path d="M255.4 295.11L254.17 297.24"/>
<path d="M255.4 289.83L254.17 287.7"/>
<path d="M255.4 289.83L254.15 291.21M254.15 291.21L253.93 293.05M253.93 293.05L254.82 294.67"/>
<path d="M272.01 289.72L273.62 285.82M273.62 285.82L277.52 284.21M277.52 284.21L281.41 285.82M281.41 285.82L283.02 289.72M283.02 289.72L281.41 293.61M281.41 293.61L277.52 295.22M277.52 295.22L273.62 293.61M273.62 293.61L272.01 289.72"/>
<path d="M275.99 292.35L277.81 292.75M277.81 292.75L279.52 292.01M279.52 292.01L280.48 290.42"/>
<path d="M280.56 289.72L279.98 287.92M279.98 287.92L278.44 286.81M278.44 286.81L276.55 286.83"/>
<path d="M280.56 289.72L283.02 289.72"/>
<path d="M275.99 292.35L274.76 294.48"/>
<path d="M275.99 287.08L274.76 284.95"/>
<path d="M275.99 287.08L274.75 288.45M274.75 288.45L274.53 290.29M274.53 290.29L275.41 291.92"/>
<path d="M294.1 300.6L295.72 296.71M295.72 296.71L299.61 295.1M299.61 295.1L303.5 296.71M303.5 296.71L305.11 300.6M305.11 300.6L303.5 304.5M303.5 304.5L299.61 306.11M299.61 306.11L295.72 304.5M295.72 304.5L294.1 300.6"/>
<path d="M298.09 303.24L299.9 303.64M299.9 303.64L301.61 302.9M301.61 302.9L302.57 301.31"/>
<path d="M302.65 300.6L302.07 298.81M302.07 298.81L300.53 297.7M300.53 297.7L298.64 297.72"/>
<path d="M302.65 300.6L305.11 300.6"/>
<path d="M298.09 303.24L296.86 305.37"/>
<path d="M298.09 297.97L296.86 295.84"/>
<path d="M298.09 297.97L296.84 299.34M296.84 299.34L296.62 301.18M296.62 301.18L297.51 302.81"/>
<path d="M316.28 300.59L317.89 296.7M317.89 296.7L321.78 295.08M321.78 295.08L325.68 296.7M325.68 296.7L327.29 300.59M327.29 300.59L325.68 304.48M325.68 304.48L321.78 306.09M321.78 306.09L317.89 304.48M317.89 304.48L316.28 300.59"/>
<path d="M320.26 303.23L322.08 303.62M322.08 303.62L323.78 302.89M323.78 302.89L324.75 301.3"/>
<path d="M324.83 300.59L324.24 298.79M324.24 298.79L322.71 297.69M322.71 297.69L320.81 297.7"/>
<path d="M324.83 300.59L327.29 300.59"/>
<path d="M320.26 303.23L319.03 305.36"/>
<path d="M320.26 297.95L319.03 295.82"/>
<path d="M320.26 297.95L319.01 299.32M319.01 299.32L318.79 301.16M318.79 301.16L319.68 302.79"/>
<path d="M338.34 311.69L339.95 307.8M339.95 307.8L343.85 306.19M343.85 306.19L347.74 307.8M347.74 307.8L349.35 311.69M349.35 311.69L347.74 315.58M347.74 315.58L343.85 317.2M343.85 317.2L339.95 315.58M339.95 315.58L338.34 311.69"/>
<path d="M342.32 314.33L344.14 314.72M344.14 314.72L345.85 313.99M345.85 313.99L346.81 312.4"/>
<path d="M346.89 311.69L346.3 309.89M346.3 309.89L344.77 308.79M344.77 308.79L342.87 308.81"/>
<path d="M346.89 311.69L349.35 311.69"/>
<path d="M342.32 314.33L341.09 316.46"/>
<path d="M342.32 309.05L341.09 306.92"/>
<path d="M342.32 309.05L341.08 310.43M341.08 310.43L340.86 312.27M340.86 312.27L341.74 313.89"/>
<path d="M361.44 314.45L363.05 310.56M363.05 310.56L366.95 308.95M366.95 308.95L370.84 310.56M370.84 310.56L372.45 314.45M372.45 314.45L370.84 318.35M370.84 318.35L366.95 319.96M366.95 319.96L363.05 318.35M363.05 318.35L361.44 314.45"/>
<path d="M365.42 317.09L367.24 317.49M367.24 317.49L368.95 316.75M368.95 316.75L369.91 315.16"/>
<path d="M369.99 314.45L369.4 312.66M369.4 312.66L367.87 311.55M367.87 311.55L365.97 311.57"/>
<path d="M369.99 314.45L372.45 314.45"/>
<path d="M365.42 317.09L364.19 319.22"/>
<path d="M365.42 311.82L364.19 309.69"/>
<path d="M365.42 311.82L364.18 313.19M364.18 313.19L363.96 315.03M363.96 315.03L364.84 316.66"/>
<path d="M358.72 292.32L360.33 288.43M360.33 288.43L364.22 286.82M364.22 286.82L368.12 288.43M368.12 288.43L369.73 292.32M369.73 292.32L368.12 296.22M368.12 296.22L364.22 297.83M364.22 297.83L360.33 296.22M360.33 296.22L358.72 292.32"/>
<path d="M362.7 294.96L364.52 295.35M364.52 295.35L366.22 294.62M366.22 294.62L367.19 293.03"/>
<path d="M367.27 292.32L366.68 290.52M366.68 290.52L365.14 289.42M365.14 289.42L363.25 289.44"/>
<path d="M367.27 292.32L369.73 292.32"/>
<path d="M362.7 294.96L361.47 297.09"/>
<path d="M362.7 289.69L361.47 287.55"/>
<path d="M362.7 289.69L361.45 291.06M361.45 291.06L361.23 292.9M361.23 292.9L362.12 294.53"/>
<path d="M337.87 289.57L339.48 285.67M339.48 285.67L343.37 284.06M343.37 284.06L347.26 285.67M347.26 285.67L348.88 289.57M348.88 289.57L347.26 293.46M347.26 293.46L343.37 295.07M343.37 295.07L339.48 293.46M339.48 293.46L337.87 289.57"/>
<path d="M341.85 292.2L343.66 292.6M343.66 292.6L345.37 291.86M345.37 291.86L346.33 290.27"/>
<path d="M346.42 289.57L345.83 287.77M345.83 287.77L344.29 286.66M344.29 286.66L342.4 286.68"/>
<path d="M346.42 289.57L348.88 289.57"/>
<path d="M341.85 292.2L340.62 294.33"/>
<path d="M341.85 286.93L340.62 284.8"/>
<path d="M341.85 286.93L340.6 288.3M340.6 288.3L340.38 290.14M340.38 290.14L341.27 291.77"/>
<path d="M316.26 278.7L317.87 274.81M317.87 274.81L321.77 273.2M321.77 273.2L325.66 274.81M325.66 274.81L327.27 278.7M327.27 278.7L325.66 282.6M325.66 282.6L321.77 284.21M321.77 284.21L317.87 282.6M317.87 282.6L316.26 278.7"/>
<path d="M320.24 281.34L322.06 281.74M322.06 281.74L323.77 281M323.77 281L324.73 279.41"/>
<path d="M324.81 278.7L324.23 276.91M324.23 276.91L322.69 275.8M322.69 275.8L320.8 275.82"/>
<path d="M324.81 278.7L327.27 278.7"/>
<path d="M320.24 281.34L319.01 283.47"/>
<path d="M320.24 276.07L319.01 273.94"/>
<path d="M320.24 276.07L319 277.44M319 277.44L318.78 279.28M318.78 279.28L319.66 280.91"/>
<path d="M293.99 278.78L295.6 274.88M295.6 274.88L299.49 273.27M299.49 273.27L303.39 274.88M303.39 274.88L305 278.78M305 278.78L303.39 282.67M303.39 282.67L299.49 284.28M299.49 284.28L295.6 282.67M295.6 282.67L293.99 278.78"/>
<path d="M297.97 281.42L299.79 281.81M299.79 281.81L301.49 281.07M301.49 281.07L302.46 279.48"/>
<path d="M302.54 278.78L301.95 276.98M301.95 276.98L300.42 275.87M300.42 275.87L298.52 275.89"/>
<path d="M302.54 278.78L305 278.78"/>
<path d="M297.97 281.42L296.74 283.55"/>
<path d="M297.97 276.14L296.74 274.01"/>
<path d="M297.97 276.14L296.72 277.51M296.72 277.51L296.5 279.35M296.5 279.35L297.39 280.98"/>
<path d="M271.32 268.45L272.93 264.56M272.93 264.56L276.82 262.95M276.82 262.95L280.72 264.56M280.72 264.56L282.33 268.45M282.33 268.45L280.72 272.35M280.72 272.35L276.82 273.96M276.82 273.96L272.93 272.35M272.93 272.35L271.32 268.45"/>
<path d="M275.3 271.09L277.12 271.49M277.12 271.49L278.82 270.75M278.82 270.75L279.78 269.16"/>
<path d="M279.87 268.45L279.28 266.66M279.28 266.66L277.74 265.55M277.74 265.55L275.85 265.57"/>
<path d="M279.87 268.45L282.33 268.45"/>
<path d="M275.3 271.09L274.07 273.22"/>
<path d="M275.3 265.82L274.07 263.69"/>
<path d="M275.3 265.82L274.05 267.19M274.05 267.19L273.83 269.03M273.83 269.03L274.72 270.66"/>
<path d="M251.42 271.85L253.03 267.96M253.03 267.96L256.93 266.35M256.93 266.35L260.82 267.96M260.82 267.96L262.43 271.85M262.43 271.85L260.82 275.75M260.82 275.75L256.93 277.36M256.93 277.36L253.03 275.75M253.03 275.75L251.42 271.85"/>
<path d="M255.4 274.49L257.22 274.88M257.22 274.88L258.93 274.15M258.93 274.15L259.89 272.56"/>
<path d="M259.97 271.85L259.38 270.05M259.38 270.05L257.85 268.95M257.85 268.95L255.95 268.97"/>
<path d="M259.97 271.85L262.43 271.85"/>
<path d="M255.4 274.49L254.17 276.62"/>
<path d="M255.4 269.22L254.17 267.08"/>
<path d="M255.4 269.22L254.16 270.59M254.16 270.59L253.93 272.43M253.93 272.43L254.82 274.06"/>
<path d="M251.45 249.88L253.06 245.99M253.06 245.99L256.95 244.38M256.95 244.38L260.84 245.99M260.84 245.99L262.46 249.88M262.46 249.88L260.84 253.78M260.84 253.78L256.95 255.39M256.95 255.39L253.06 253.78M253.06 253.78L251.45 249.88"/>
<path d="M255.43 252.52L257.24 252.91M257.24 252.91L258.95 252.18M258.95 252.18L259.91 250.59"/>
<path d="M260 249.88L259.41 248.08M259.41 248.08L257.87 246.98M257.87 246.98L255.98 247"/>
<path d="M260 249.88L262.46 249.88"/>
<path d="M255.43 252.52L254.2 254.65"/>
<path d="M255.43 247.24L254.2 245.11"/>
<path d="M255.43 247.24L254.18 248.62M254.18 248.62L253.96 250.46M253.96 250.46L254.85 252.09"/>
<path d="M251.4 227.94L253.01 224.04M253.01 224.04L256.91 222.43M256.91 222.43L260.8 224.04M260.8 224.04L262.41 227.94M262.41 227.94L260.8 231.83M260.8 231.83L256.91 233.44M256.91 233.44L253.01 231.83M253.01 231.83L251.4 227.94"/>
<path d="M255.38 230.57L257.2 230.97M257.2 230.97L258.91 230.23M258.91 230.23L259.87 228.64"/>
<path d="M259.95 227.94L259.37 226.14M259.37 226.14L257.83 225.03M257.83 225.03L255.94 225.05"/>
<path d="M259.95 227.94L262.41 227.94"/>
<path d="M255.38 230.57L254.15 232.7"/>
<path d="M255.38 225.3L254.15 223.17"/>
<path d="M255.38 225.3L254.14 226.67M254.14 226.67L253.92 228.51M253.92 228.51L254.8 230.14"/>
<path d="M251.36 205.76L252.98 201.87M252.98 201.87L256.87 200.26M256.87 200.26L260.76 201.87M260.76 201.87L262.37 205.76M262.37 205.76L260.76 209.65M260.76 209.65L256.87 211.27M256.87 211.27L252.98 209.65M252.98 209.65L251.36 205.76"/>
<path d="M255.35 208.4L257.16 208.79M257.16 208.79L258.87 208.06M258.87 208.06L259.83 206.47"/>
<path d="M259.91 205.76L259.33 203.96M259.33 203.96L257.79 202.86M257.79 202.86L255.9 202.87"/>
<path d="M259.91 205.76L262.37 205.76"/>
<path d="M255.35 208.4L254.12 210.53"/>
<path d="M255.35 203.12L254.12 200.99"/>
<path d="M255.35 203.12L254.1 204.5M254.1 204.5L253.88 206.34M253.88 206.34L254.77 207.96"/>
<path d="M272.19 186.53L273.8 182.64M273.8 182.64L277.69 181.03M277.69 181.03L281.59 182.64M281.59 182.64L283.2 186.53M283.2 186.53L281.59 190.43M281.59 190.43L277.69 192.04M277.69 192.04L273.8 190.43M273.8 190.43L272.19 186.53"/>
<path d="M276.17 189.17L277.99 189.57M277.99 189.57L279.69 188.83M279.69 188.83L280.66 187.24"/>
<path d="M280.74 186.53L280.15 184.74M280.15 184.74L278.62 183.63M278.62 183.63L276.72 183.65"/>
<path d="M280.74 186.53L283.2 186.53"/>
<path d="M276.17 189.17L274.94 191.3"/>
<path d="M276.17 183.9L274.94 181.77"/>
<path d="M276.17 183.9L274.92 185.27M274.92 185.27L274.7 187.11M274.7 187.11L275.59 188.74"/>
<path d="M251.24 183.81L252.86 179.92M252.86 179.92L256.75 178.31M256.75 178.31L260.64 179.92M260.64 179.92L262.26 183.81M262.26 183.81L260.64 187.71M260.64 187.71L256.75 189.32M256.75 189.32L252.86 187.71M252.86 187.71L251.24 183.81"/>
<path d="M255.23 186.45L257.04 186.84M257.04 186.84L258.75 186.11M258.75 186.11L259.71 184.52"/>
<path d="M259.8 183.81L259.21 182.01M259.21 182.01L257.67 180.91M257.67 180.91L255.78 180.93"/>
<path d="M259.8 183.81L262.26 183.81"/>
<path d="M255.23 186.45L254 188.58"/>
<path d="M255.23 181.18L254 179.04"/>
<path d="M255.23 181.18L253.98 182.55M253.98 182.55L253.76 184.39M253.76 184.39L254.65 186.02"/>
<path d="M337.8 268.79L339.42 264.9M339.42 264.9L343.31 263.29M343.31 263.29L347.2 264.9M347.2 264.9L348.82 268.79M348.82 268.79L347.2 272.68M347.2 272.68L343.31 274.3M343.31 274.3L339.42 272.68M339.42 272.68L337.8 268.79"/>
<path d="M341.79 271.43L343.6 271.82M343.6 271.82L345.31 271.09M345.31 271.09L346.27 269.5"/>
<path d="M346.36 268.79L345.77 266.99M345.77 266.99L344.23 265.89M344.23 265.89L342.34 265.91"/>
<path d="M346.36 268.79L348.82 268.79"/>
<path d="M341.79 271.43L340.56 273.56"/>
<path d="M341.79 266.15L340.56 264.02"/>
<path d="M341.79 266.15L340.54 267.53M340.54 267.53L340.32 269.37M340.32 269.37L341.21 270.99"/>
<path d="M358.69 271.65L360.3 267.75M360.3 267.75L364.2 266.14M364.2 266.14L368.09 267.75M368.09 267.75L369.7 271.65M369.7 271.65L368.09 275.54M368.09 275.54L364.2 277.15M364.2 277.15L360.3 275.54M360.3 275.54L358.69 271.65"/>
<path d="M362.67 274.29L364.49 274.68M364.49 274.68L366.2 273.94M366.2 273.94L367.16 272.36"/>
<path d="M367.24 271.65L366.65 269.85M366.65 269.85L365.12 268.74M365.12 268.74L363.23 268.76"/>
<path d="M367.24 271.65L369.7 271.65"/>
<path d="M362.67 274.29L361.44 276.42"/>
<path d="M362.67 269.01L361.44 266.88"/>
<path d="M362.67 269.01L361.43 270.38M361.43 270.38L361.21 272.22M361.21 272.22L362.09 273.85"/>
<path d="M358.49 249.7L360.11 245.81M360.11 245.81L364 244.19M364 244.19L367.89 245.81M367.89 245.81L369.51 249.7M369.51 249.7L367.89 253.59M367.89 253.59L364 255.21M364 255.21L360.11 253.59M360.11 253.59L358.49 249.7"/>
<path d="M362.48 252.34L364.29 252.73M364.29 252.73L366 252M366 252L366.96 250.41"/>
<path d="M367.05 249.7L366.46 247.9M366.46 247.9L364.92 246.8M364.92 246.8L363.03 246.81"/>
<path d="M367.05 249.7L369.51 249.7"/>
<path d="M362.48 252.34L361.25 254.47"/>
<path d="M362.48 247.06L361.25 244.93"/>
<path d="M362.48 247.06L361.23 248.43M361.23 248.43L361.01 250.28M361.01 250.28L361.9 251.9"/>
<path d="M358.69 228.09L360.31 224.19M360.31 224.19L364.2 222.58M364.2 222.58L368.09 224.19M368.09 224.19L369.7 228.09M369.7 228.09L368.09 231.98M368.09 231.98L364.2 233.59M364.2 233.59L360.31 231.98M360.31 231.98L358.69 228.09"/>
<path d="M362.68 230.72L364.49 231.12M364.49 231.12L366.2 230.38M366.2 230.38L367.16 228.79"/>
<path d="M367.24 228.09L366.66 226.29M366.66 226.29L365.12 225.18M365.12 225.18L363.23 225.2"/>
<path d="M367.24 228.09L369.7 228.09"/>
<path d="M362.68 230.72L361.45 232.86"/>
<path d="M362.68 225.45L361.45 223.32"/>
<path d="M362.68 225.45L361.43 226.82M361.43 226.82L361.21 228.66M361.21 228.66L362.1 230.29"/>
<path d="M358.93 205.63L360.54 201.73M360.54 201.73L364.44 200.12M364.44 200.12L368.33 201.73M368.33 201.73L369.94 205.63M369.94 205.63L368.33 209.52M368.33 209.52L364.44 211.13M364.44 211.13L360.54 209.52M360.54 209.52L358.93 205.63"/>
<path d="M362.91 208.27L364.73 208.66M364.73 208.66L366.44 207.92M366.44 207.92L367.4 206.33"/>
<path d="M367.48 205.63L366.89 203.83M366.89 203.83L365.36 202.72M365.36 202.72L363.47 202.74"/>
<path d="M367.48 205.63L369.94 205.63"/>
<path d="M362.91 208.27L361.68 210.4"/>
<path d="M362.91 202.99L361.68 200.86"/>
<path d="M362.91 202.99L361.67 204.36M361.67 204.36L361.45 206.2M361.45 206.2L362.33 207.83"/>
<path d="M358.5 183.45L360.11 179.56M360.11 179.56L364 177.95M364 177.95L367.9 179.56M367.9 179.56L369.51 183.45M369.51 183.45L367.9 187.35M367.9 187.35L364 188.96M364 188.96L360.11 187.35M360.11 187.35L358.5 183.45"/>
<path d="M362.48 186.09L364.3 186.49M364.3 186.49L366 185.75M366 185.75L366.97 184.16"/>
<path d="M367.05 183.45L366.46 181.66M366.46 181.66L364.92 180.55M364.92 180.55L363.03 180.57"/>
<path d="M367.05 183.45L369.51 183.45"/>
<path d="M362.48 186.09L361.25 188.22"/>
<path d="M362.48 180.82L361.25 178.69"/>
<path d="M362.48 180.82L361.23 182.19M361.23 182.19L361.01 184.03M361.01 184.03L361.9 185.66"/>
<path d="M337.98 186.34L339.59 182.44M339.59 182.44L343.48 180.83M343.48 180.83L347.38 182.44M347.38 182.44L348.99 186.34M348.99 186.34L347.38 190.23M347.38 190.23L343.48 191.84M343.48 191.84L339.59 190.23M339.59 190.23L337.98 186.34"/>
<path d="M341.96 188.97L343.78 189.37M343.78 189.37L345.48 188.63M345.48 188.63L346.44 187.04"/>
<path d="M346.53 186.34L345.94 184.54M345.94 184.54L344.4 183.43M344.4 183.43L342.51 183.45"/>
<path d="M346.53 186.34L348.99 186.34"/>
<path d="M341.96 188.97L340.73 191.11"/>
<path d="M341.96 183.7L340.73 181.57"/>
<path d="M341.96 183.7L340.71 185.07M340.71 185.07L340.49 186.91M340.49 186.91L341.38 188.54"/>
<path d="M316.12 176.79L317.73 172.89M317.73 172.89L321.62 171.28M321.62 171.28L325.52 172.89M325.52 172.89L327.13 176.79M327.13 176.79L325.52 180.68M325.52 180.68L321.62 182.29M321.62 182.29L317.73 180.68M317.73 180.68L316.12 176.79"/>
<path d="M320.1 179.42L321.92 179.82M321.92 179.82L323.62 179.08M323.62 179.08L324.59 177.49"/>
<path d="M324.67 176.79L324.08 174.99M324.08 174.99L322.54 173.88M322.54 173.88L320.65 173.9"/>
<path d="M324.67 176.79L327.13 176.79"/>
<path d="M320.1 179.42L318.87 181.56"/>
<path d="M320.1 174.15L318.87 172.02"/>
<path d="M320.1 174.15L318.85 175.52M318.85 175.52L318.63 177.36M318.63 177.36L319.52 178.99"/>
<path d="M294.1 176.72L295.72 172.82M295.72 172.82L299.61 171.21M299.61 171.21L303.5 172.82M303.5 172.82L305.12 176.72M305.12 176.72L303.5 180.61M303.5 180.61L299.61 182.22M299.61 182.22L295.72 180.61M295.72 180.61L294.1 176.72"/>
<path d="M298.09 179.35L299.9 179.75M299.9 179.75L301.61 179.01M301.61 179.01L302.57 177.42"/>
<path d="M302.66 176.72L302.07 174.92M302.07 174.92L300.53 173.81M300.53 173.81L298.64 173.83"/>
<path d="M302.66 176.72L305.12 176.72"/>
<path d="M298.09 179.35L296.86 181.48"/>
<path d="M298.09 174.08L296.86 171.95"/>
<path d="M298.09 174.08L296.84 175.45M296.84 175.45L296.62 177.29M296.62 177.29L297.51 178.92"/>
<path d="M271.93 165.96L273.55 162.07M273.55 162.07L277.44 160.45M277.44 160.45L281.33 162.07M281.33 162.07L282.94 165.96M282.94 165.96L281.33 169.85M281.33 169.85L277.44 171.46M277.44 171.46L273.55 169.85M273.55 169.85L271.93 165.96"/>
<path d="M275.92 168.6L277.73 168.99M277.73 168.99L279.44 168.26M279.44 168.26L280.4 166.67"/>
<path d="M280.48 165.96L279.9 164.16M279.9 164.16L278.36 163.06M278.36 163.06L276.47 163.07"/>
<path d="M280.48 165.96L282.94 165.96"/>
<path d="M275.92 168.6L274.69 170.73"/>
<path d="M275.92 163.32L274.69 161.19"/>
<path d="M275.92 163.32L274.67 164.69M274.67 164.69L274.45 166.53M274.45 166.53L275.34 168.16"/>
<path d="M251.29 163.13L252.9 159.23M252.9 159.23L256.79 157.62M256.79 157.62L260.69 159.23M260.69 159.23L262.3 163.13M262.3 163.13L260.69 167.02M260.69 167.02L256.79 168.63M256.79 168.63L252.9 167.02M252.9 167.02L251.29 163.13"/>
<path d="M255.27 165.76L257.09 166.16M257.09 166.16L258.79 165.42M258.79 165.42L259.75 163.83"/>
<path d="M259.84 163.13L259.25 161.33M259.25 161.33L257.71 160.22M257.71 160.22L255.82 160.24"/>
<path d="M259.84 163.13L262.3 163.13"/>
<path d="M255.27 165.76L254.04 167.89"/>
<path d="M255.27 160.49L254.04 158.36"/>
<path d="M255.27 160.49L254.02 161.86M254.02 161.86L253.8 163.7M253.8 163.7L254.69 165.33"/>
<path d="M293.84 155.13L295.45 151.23M295.45 151.23L299.34 149.62M299.34 149.62L303.24 151.23M303.24 151.23L304.85 155.13M304.85 155.13L303.24 159.02M303.24 159.02L299.34 160.63M299.34 160.63L295.45 159.02M295.45 159.02L293.84 155.13"/>
<path d="M297.82 157.76L299.63 158.16M299.63 158.16L301.34 157.42M301.34 157.42L302.3 155.83"/>
<path d="M302.39 155.13L301.8 153.33M301.8 153.33L300.26 152.22M300.26 152.22L298.37 152.24"/>
<path d="M302.39 155.13L304.85 155.13"/>
<path d="M297.82 157.76L296.59 159.89"/>
<path d="M297.82 152.49L296.59 150.36"/>
<path d="M297.82 152.49L296.57 153.86M296.57 153.86L296.35 155.7M296.35 155.7L297.24 157.33"/>
<path d="M315.82 154.89L317.43 151M317.43 151L321.32 149.38M321.32 149.38L325.22 151M325.22 151L326.83 154.89M326.83 154.89L325.22 158.78M325.22 158.78L321.32 160.39M321.32 160.39L317.43 158.78M317.43 158.78L315.82 154.89"/>
<path d="M319.8 157.53L321.62 157.92M321.62 157.92L323.32 157.19M323.32 157.19L324.28 155.6"/>
<path d="M324.37 154.89L323.78 153.09M323.78 153.09L322.24 151.99M322.24 151.99L320.35 152"/>
<path d="M324.37 154.89L326.83 154.89"/>
<path d="M319.8 157.53L318.57 159.66"/>
<path d="M319.8 152.25L318.57 150.12"/>
<path d="M319.8 152.25L318.55 153.62M318.55 153.62L318.33 155.46M318.33 155.46L319.22 157.09"/>
<path d="M337.98 165.81L339.59 161.92M339.59 161.92L343.49 160.31M343.49 160.31L347.38 161.92M347.38 161.92L348.99 165.81M348.99 165.81L347.38 169.71M347.38 169.71L343.49 171.32M343.49 171.32L339.59 169.71M339.59 169.71L337.98 165.81"/>
<path d="M341.97 168.45L343.78 168.84M343.78 168.84L345.49 168.11M345.49 168.11L346.45 166.52"/>
<path d="M346.53 165.81L345.95 164.01M345.95 164.01L344.41 162.91M344.41 162.91L342.52 162.93"/>
<path d="M346.53 165.81L348.99 165.81"/>
<path d="M341.97 168.45L340.74 170.58"/>
<path d="M341.97 163.18L340.74 161.04"/>
<path d="M341.97 163.18L340.72 164.55M340.72 164.55L340.5 166.39M340.5 166.39L341.39 168.02"/>
<path d="M358.9 163L360.51 159.11M360.51 159.11L364.4 157.5M364.4 157.5L368.3 159.11M368.3 159.11L369.91 163M369.91 163L368.3 166.9M368.3 166.9L364.4 168.51M364.4 168.51L360.51 166.9M360.51 166.9L358.9 163"/>
<path d="M362.88 165.64L364.7 166.03M364.7 166.03L366.4 165.3M366.4 165.3L367.37 163.71"/>
<path d="M367.45 163L366.86 161.2M366.86 161.2L365.33 160.1M365.33 160.1L363.43 160.12"/>
<path d="M367.45 163L369.91 163"/>
<path d="M362.88 165.64L361.65 167.77"/>
<path d="M362.88 160.37L361.65 158.24"/>
<path d="M362.88 160.37L361.63 161.74M361.63 161.74L361.41 163.58M361.41 163.58L362.3 165.21"/>
<path d="M360.25 141.05L361.86 137.16M361.86 137.16L365.76 135.55M365.76 135.55L369.65 137.16M369.65 137.16L371.26 141.05M371.26 141.05L369.65 144.95M369.65 144.95L365.76 146.56M365.76 146.56L361.86 144.95M361.86 144.95L360.25 141.05"/>
<path d="M364.24 143.69L366.05 144.08M366.05 144.08L367.76 143.35M367.76 143.35L368.72 141.76"/>
<path d="M368.8 141.05L368.22 139.25M368.22 139.25L366.68 138.15M366.68 138.15L364.79 138.17"/>
<path d="M368.8 141.05L371.26 141.05"/>
<path d="M364.24 143.69L363 145.82"/>
<path d="M364.24 138.41L363 136.28"/>
<path d="M364.24 138.41L362.99 139.79M362.99 139.79L362.77 141.63M362.77 141.63L363.65 143.26"/>
<path d="M338.15 143.8L339.76 139.91M339.76 139.91L343.66 138.3M343.66 138.3L347.55 139.91M347.55 139.91L349.16 143.8M349.16 143.8L347.55 147.7M347.55 147.7L343.66 149.31M343.66 149.31L339.76 147.7M339.76 147.7L338.15 143.8"/>
<path d="M342.13 146.44L343.95 146.83M343.95 146.83L345.65 146.1M345.65 146.1L346.62 144.51"/>
<path d="M346.7 143.8L346.11 142M346.11 142L344.58 140.9M344.58 140.9L342.68 140.92"/>
<path d="M346.7 143.8L349.16 143.8"/>
<path d="M342.13 141.16L340.9 139.03"/>
<path d="M341.55 146L339.85 147.78"/>
<path d="M342.13 141.16L340.89 142.54M340.89 142.54L340.66 144.38M340.66 144.38L341.55 146"/>
<path d="M314.75 132.68L316.37 128.79M316.37 128.79L320.26 127.18M320.26 127.18L324.15 128.79M324.15 128.79L325.77 132.68M325.77 132.68L324.15 136.58M324.15 136.58L320.26 138.19M320.26 138.19L316.37 136.58M316.37 136.58L314.75 132.68"/>
<path d="M318.74 135.32L320.55 135.71M320.55 135.71L322.26 134.98M322.26 134.98L323.22 133.39"/>
<path d="M323.31 132.68L322.72 130.88M322.72 130.88L321.18 129.78M321.18 129.78L319.29 129.8"/>
<path d="M323.31 132.68L325.77 132.68"/>
<path d="M318.74 135.32L317.51 137.45"/>
<path d="M318.74 130.05L317.51 127.91"/>
<path d="M318.74 130.05L317.49 131.42M317.49 131.42L317.27 133.26M317.27 133.26L318.16 134.89"/>
<path d="M293.96 132.67L295.57 128.78M295.57 128.78L299.46 127.16M299.46 127.16L303.35 128.78M303.35 128.78L304.97 132.67M304.97 132.67L303.35 136.56M303.35 136.56L299.46 138.18M299.46 138.18L295.57 136.56M295.57 136.56L293.96 132.67"/>
<path d="M297.94 135.31L299.75 135.7M299.75 135.7L301.46 134.97M301.46 134.97L302.42 133.38"/>
<path d="M302.51 132.67L301.92 130.87M301.92 130.87L300.38 129.77M300.38 129.77L298.49 129.78"/>
<path d="M302.51 132.67L304.97 132.67"/>
<path d="M297.94 135.31L296.71 137.44"/>
<path d="M297.94 130.03L296.71 127.9"/>
<path d="M297.94 130.03L296.69 131.4M296.69 131.4L296.47 133.25M296.47 133.25L297.36 134.87"/>
<path d="M270.63 143.69L272.24 139.8M272.24 139.8L276.13 138.18M276.13 138.18L280.03 139.8M280.03 139.8L281.64 143.69M281.64 143.69L280.03 147.58M280.03 147.58L276.13 149.2M276.13 149.2L272.24 147.58M272.24 147.58L270.63 143.69"/>
<path d="M274.61 146.33L276.43 146.72M276.43 146.72L278.13 145.99M278.13 145.99L279.09 144.4"/>
<path d="M279.18 143.69L278.59 141.89M278.59 141.89L277.05 140.79M277.05 140.79L275.16 140.8"/>
<path d="M279.18 143.69L281.64 143.69"/>
<path d="M274.61 146.33L273.38 148.46"/>
<path d="M274.61 141.05L273.38 138.92"/>
<path d="M274.61 141.05L273.36 142.42M273.36 142.42L273.14 144.27M273.14 144.27L274.03 145.89"/>
<path d="M301.69 227.68L303.63 222.37M303.63 222.37L308.52 219.55M308.52 219.55L314.08 220.53M314.08 220.53L317.71 224.86M317.71 224.86L317.71 230.51M317.71 230.51L314.08 234.83M314.08 234.83L308.52 235.81M308.52 235.81L303.63 232.99M303.63 232.99L301.69 227.68"/>
<path d="M300.32 227.68L302.16 222.02M302.16 222.02L306.97 218.52M306.97 218.52L312.93 218.52M312.93 218.52L317.75 222.02M317.75 222.02L319.59 227.68M319.59 227.68L317.75 233.35M317.75 233.35L312.93 236.85M312.93 236.85L306.97 236.85M306.97 236.85L302.16 233.35M302.16 233.35L300.32 227.68"/>
<path d="M287.93 227.68L289.83 218.72M289.83 218.72L295.22 211.32M295.22 211.32L303.15 206.74M303.15 206.74L312.25 205.78M312.25 205.78L320.96 208.61M320.96 208.61L327.77 214.74M327.77 214.74L331.49 223.1M331.49 223.1L331.49 232.26M331.49 232.26L327.77 240.63M327.77 240.63L320.96 246.75M320.96 246.75L312.25 249.58M312.25 249.58L303.15 248.63M303.15 248.63L295.22 244.05M295.22 244.05L289.83 236.64M289.83 236.64L287.93 227.68"/>
<path d="M286.55 227.68L288.33 218.73M288.33 218.73L293.41 211.14M293.41 211.14L301 206.06M301 206.06L309.95 204.28M309.95 204.28L318.91 206.06M318.91 206.06L326.5 211.14M326.5 211.14L331.57 218.73M331.57 218.73L333.35 227.68M333.35 227.68L331.57 236.64M331.57 236.64L326.5 244.23M326.5 244.23L318.91 249.3M318.91 249.3L309.95 251.08M309.95 251.08L301 249.3M301 249.3L293.41 244.23M293.41 244.23L288.33 236.64M288.33 236.64L286.55 227.68"/>
<path d="M253.14 139.68L251.9 141.05M251.9 141.05L251.67 142.89M251.67 142.89L252.56 144.52"/>
<path d="M253.14 139.68L251.91 137.55"/>
<path d="M253.14 144.95L251.91 147.09"/>
<path d="M257.71 142.32L260.17 142.32"/>
<path d="M257.71 142.32L257.12 140.52M257.12 140.52L255.59 139.41M255.59 139.41L253.69 139.43"/>
<path d="M253.14 144.95L254.96 145.35M254.96 145.35L256.66 144.61M256.66 144.61L257.63 143.02"/>
<path d="M249.16 142.32L250.77 138.42M250.77 138.42L254.66 136.81M254.66 136.81L258.56 138.42M258.56 138.42L260.17 142.32M260.17 142.32L258.56 146.21M258.56 146.21L254.66 147.82M254.66 147.82L250.77 146.21M250.77 146.21L249.16 142.32"/>
<path d="M341.03 120.4L341.45 120.19M341.45 120.19L342.08 119.56M342.08 119.56L342.08 123.97M346.91 119.56L344.81 119.56M344.81 119.56L344.6 121.45M344.6 121.45L344.81 121.24M344.81 121.24L345.44 121.03M345.44 121.03L346.07 121.03M346.07 121.03L346.7 121.24M346.7 121.24L347.12 121.66M347.12 121.66L347.33 122.29M347.33 122.29L347.33 122.71M347.33 122.71L347.12 123.34M347.12 123.34L346.7 123.76M346.7 123.76L346.07 123.97M346.07 123.97L345.44 123.97M345.44 123.97L344.81 123.76M344.81 123.76L344.6 123.55M344.6 123.55L344.39 123.13"/>
<path d="M316.79 120.56L316.79 120.35M316.79 120.35L317 119.93M317 119.93L317.21 119.72M317.21 119.72L317.63 119.51M317.63 119.51L318.47 119.51M318.47 119.51L318.89 119.72M318.89 119.72L319.1 119.93M319.1 119.93L319.3 120.35M319.3 120.35L319.3 120.77M319.3 120.77L319.1 121.19M319.1 121.19L318.68 121.82M318.68 121.82L316.58 123.91M316.58 123.91L319.51 123.91M320.77 120.35L321.19 120.14M321.19 120.14L321.82 119.51M321.82 119.51L321.82 123.91"/>
<path d="M295.93 120.61L295.93 120.4M295.93 120.4L296.14 119.98M296.14 119.98L296.35 119.77M296.35 119.77L296.76 119.56M296.76 119.56L297.6 119.56M297.6 119.56L298.02 119.77M298.02 119.77L298.23 119.98M298.23 119.98L298.44 120.4M298.44 120.4L298.44 120.82M298.44 120.82L298.23 121.24M298.23 121.24L297.81 121.87M297.81 121.87L295.72 123.97M295.72 123.97L298.65 123.97M299.91 119.56L302.85 119.56M302.85 119.56L300.75 123.97"/>
<path d="M271.36 119.56L273.67 119.56M273.67 119.56L272.41 121.24M272.41 121.24L273.04 121.24M273.04 121.24L273.46 121.45M273.46 121.45L273.67 121.66M273.67 121.66L273.88 122.29M273.88 122.29L273.88 122.71M273.88 122.71L273.67 123.34M273.67 123.34L273.25 123.76M273.25 123.76L272.62 123.97M272.62 123.97L271.99 123.97M271.99 123.97L271.36 123.76M271.36 123.76L271.15 123.55M271.15 123.55L270.94 123.13M275.55 119.56L277.86 119.56M277.86 119.56L276.6 121.24M276.6 121.24L277.23 121.24M277.23 121.24L277.65 121.45M277.65 121.45L277.86 121.66M277.86 121.66L278.07 122.29M278.07 122.29L278.07 122.71M278.07 122.71L277.86 123.34M277.86 123.34L277.44 123.76M277.44 123.76L276.81 123.97M276.81 123.97L276.18 123.97M276.18 123.97L275.55 123.76M275.55 123.76L275.34 123.55M275.34 123.55L275.13 123.13"/>
<path d="M342.41 335.13L342.83 334.92M342.83 334.92L343.46 334.29M343.46 334.29L343.46 338.7M347.03 334.29L346.4 334.5M346.4 334.5L345.98 335.13M345.98 335.13L345.77 336.18M345.77 336.18L345.77 336.81M345.77 336.81L345.98 337.86M345.98 337.86L346.4 338.49M346.4 338.49L347.03 338.7M347.03 338.7L347.44 338.7M347.44 338.7L348.07 338.49M348.07 338.49L348.49 337.86M348.49 337.86L348.7 336.81M348.7 336.81L348.7 336.18M348.7 336.18L348.49 335.13M348.49 335.13L348.07 334.5M348.07 334.5L347.44 334.29M347.44 334.29L347.03 334.29"/>
<path d="M318.98 335.13L319.4 334.92M319.4 334.92L320.03 334.29M320.03 334.29L320.03 338.7M324.86 334.92L324.65 334.5M324.65 334.5L324.02 334.29M324.02 334.29L323.6 334.29M323.6 334.29L322.97 334.5M322.97 334.5L322.55 335.13M322.55 335.13L322.34 336.18M322.34 336.18L322.34 337.23M322.34 337.23L322.55 338.07M322.55 338.07L322.97 338.49M322.97 338.49L323.6 338.7M323.6 338.7L323.81 338.7M323.81 338.7L324.44 338.49M324.44 338.49L324.86 338.07M324.86 338.07L325.07 337.44M325.07 337.44L325.07 337.23M325.07 337.23L324.86 336.6M324.86 336.6L324.44 336.18M324.44 336.18L323.81 335.97M323.81 335.97L323.6 335.97M323.6 335.97L322.97 336.18M322.97 336.18L322.55 336.6M322.55 336.6L322.34 337.23"/>
<path d="M295.93 335.34L295.93 335.13M295.93 335.13L296.14 334.71M296.14 334.71L296.35 334.5M296.35 334.5L296.76 334.29M296.76 334.29L297.6 334.29M297.6 334.29L298.02 334.5M298.02 334.5L298.23 334.71M298.23 334.71L298.44 335.13M298.44 335.13L298.44 335.55M298.44 335.55L298.23 335.97M298.23 335.97L297.81 336.6M297.81 336.6L295.72 338.7M295.72 338.7L298.65 338.7M300.12 335.34L300.12 335.13M300.12 335.13L300.33 334.71M300.33 334.71L300.54 334.5M300.54 334.5L300.96 334.29M300.96 334.29L301.8 334.29M301.8 334.29L302.22 334.5M302.22 334.5L302.43 334.71M302.43 334.71L302.64 335.13M302.64 335.13L302.64 335.55M302.64 335.55L302.43 335.97M302.43 335.97L302.01 336.6M302.01 336.6L299.91 338.7M299.91 338.7L302.85 338.7"/>
<path d="M272.53 335.34L272.53 335.13M272.53 335.13L272.74 334.71M272.74 334.71L272.95 334.5M272.95 334.5L273.37 334.29M273.37 334.29L274.2 334.29M274.2 334.29L274.62 334.5M274.62 334.5L274.83 334.71M274.83 334.71L275.04 335.13M275.04 335.13L275.04 335.55M275.04 335.55L274.83 335.97M274.83 335.97L274.41 336.6M274.41 336.6L272.32 338.7M272.32 338.7L275.25 338.7M277.56 334.29L276.93 334.5M276.93 334.5L276.72 334.92M276.72 334.92L276.72 335.34M276.72 335.34L276.93 335.76M276.93 335.76L277.35 335.97M277.35 335.97L278.19 336.18M278.19 336.18L278.82 336.39M278.82 336.39L279.24 336.81M279.24 336.81L279.45 337.23M279.45 337.23L279.45 337.86M279.45 337.86L279.24 338.28M279.24 338.28L279.03 338.49M279.03 338.49L278.4 338.7M278.4 338.7L277.56 338.7M277.56 338.7L276.93 338.49M276.93 338.49L276.72 338.28M276.72 338.28L276.51 337.86M276.51 337.86L276.51 337.23M276.51 337.23L276.72 336.81M276.72 336.81L277.14 336.39M277.14 336.39L277.77 336.18M277.77 336.18L278.61 335.97M278.61 335.97L279.03 335.76M279.03 335.76L279.24 335.34M279.24 335.34L279.24 334.92M279.24 334.92L279.03 334.5M279.03 334.5L278.4 334.29M278.4 334.29L277.56 334.29"/>
<path d="M286.05 378.34L286.05 367.77M286.56 367.77L286.56 378.34M284.54 367.77L290.59 367.77M290.59 367.77L292.1 368.27M292.1 368.27L292.6 368.77M292.6 368.77L293.1 369.78M293.1 369.78L293.1 370.79M293.1 370.79L292.6 371.79M292.6 371.79L292.1 372.3M292.1 372.3L290.59 372.8M290.59 367.77L291.59 368.27M291.59 368.27L292.1 368.77M292.1 368.77L292.6 369.78M292.6 369.78L292.6 370.79M292.6 370.79L292.1 371.79M292.1 371.79L291.59 372.3M291.59 372.3L290.59 372.8M286.56 372.8L290.59 372.8M290.59 372.8L292.1 373.3M292.1 373.3L292.6 373.81M292.6 373.81L293.1 374.81M293.1 374.81L293.1 376.32M293.1 376.32L292.6 377.33M292.6 377.33L292.1 377.83M292.1 377.83L290.59 378.34M290.59 378.34L284.54 378.34M290.59 372.8L291.59 373.3M291.59 373.3L292.1 373.81M292.1 373.81L292.6 374.81M292.6 374.81L292.6 376.32M292.6 376.32L292.1 377.33M292.1 377.33L291.59 377.83M291.59 377.83L290.59 378.34M297.13 378.34L297.13 367.77M297.63 367.77L297.63 378.34M295.62 367.77L299.14 367.77M295.62 378.34L303.17 378.34M303.17 378.34L303.17 375.32M303.17 375.32L302.67 378.34M309.21 367.77L305.69 378.34M309.21 367.77L312.73 378.34M309.21 369.28L312.23 378.34M306.69 375.32L311.22 375.32M304.68 378.34L307.7 378.34M310.72 378.34L313.74 378.34M322.3 369.28L322.8 370.79M322.8 370.79L322.8 367.77M322.8 367.77L322.3 369.28M322.3 369.28L321.29 368.27M321.29 368.27L319.78 367.77M319.78 367.77L318.78 367.77M318.78 367.77L317.26 368.27M317.26 368.27L316.26 369.28M316.26 369.28L315.75 370.28M315.75 370.28L315.25 371.79M315.25 371.79L315.25 374.31M315.25 374.31L315.75 375.82M315.75 375.82L316.26 376.83M316.26 376.83L317.26 377.83M317.26 377.83L318.78 378.34M318.78 378.34L319.78 378.34M319.78 378.34L321.29 377.83M321.29 377.83L322.3 376.83M322.3 376.83L322.8 375.82M318.78 367.77L317.77 368.27M317.77 368.27L316.76 369.28M316.76 369.28L316.26 370.28M316.26 370.28L315.75 371.79M315.75 371.79L315.75 374.31M315.75 374.31L316.26 375.82M316.26 375.82L316.76 376.83M316.76 376.83L317.77 377.83M317.77 377.83L318.78 378.34M327.33 378.34L327.33 367.77M327.84 367.77L327.84 378.34M334.38 367.77L327.84 374.31M330.35 372.3L334.38 378.34M329.85 372.3L333.88 378.34M325.82 367.77L329.35 367.77M332.37 367.77L335.39 367.77M325.82 378.34L329.35 378.34M332.37 378.34L335.39 378.34"/>
</g>
</g>
</svg>
