<?xml version="1.0" standalone="no"?><svg xmlns="http://www.w3.org/2000/svg" width="600.000" height="450.000" viewBox="0.0 0.0 600.000 450.000" version="1.1">
<title>Acme Converter - Post-processed with EDS-Designer: 14.44 (info@symca.com)</title>
<desc>Acme Converter - Post-processed with EDS-Designer: 14.44 (info@symca.com)</desc>
<g id="EDS_STYLE_GROUP" fill="none" stroke="black" stroke-width="1.0">
<g id="0" display="visible">
<path d="M197.96 345.33L197.96 321.26M199.11 321.26L199.11 345.33M191.08 321.26L189.94 328.14M189.94 328.14L189.94 321.26M189.94 321.26L207.13 321.26M207.13 321.26L207.13 328.14M207.13 328.14L205.98 321.26M194.52 345.33L202.54 345.33M215.15 345.33L215.15 321.26M216.3 321.26L216.3 345.33M211.71 321.26L219.74 321.26M211.71 345.33L219.74 345.33M227.76 345.33L227.76 321.26M228.9 345.33L228.9 321.26M228.9 321.26L242.66 343.04M228.9 323.56L242.66 345.33M242.66 345.33L242.66 321.26M224.32 321.26L228.9 321.26M239.22 321.26L246.1 321.26M224.32 345.33L231.2 345.33M278.19 345.33L278.19 321.26M279.33 321.26L279.33 345.33M274.75 321.26L288.5 321.26M288.5 321.26L291.94 322.41M291.94 322.41L293.09 323.56M293.09 323.56L294.23 325.85M294.23 325.85L294.23 329.29M294.23 329.29L293.09 331.58M293.09 331.58L291.94 332.73M291.94 332.73L288.5 333.87M288.5 333.87L279.33 333.87M288.5 321.26L290.8 322.41M290.8 322.41L291.94 323.56M291.94 323.56L293.09 325.85M293.09 325.85L293.09 329.29M293.09 329.29L291.94 331.58M291.94 331.58L290.8 332.73M290.8 332.73L288.5 333.87M274.75 345.33L282.77 345.33M303.4 345.33L303.4 321.26M304.55 321.26L304.55 345.33M299.96 321.26L307.99 321.26M299.96 345.33L317.16 345.33M317.16 345.33L317.16 338.46M317.16 338.46L316.01 345.33M330.91 321.26L322.89 345.33M330.91 321.26L338.93 345.33M330.91 324.7L337.79 345.33M325.18 338.46L335.49 338.46M320.59 345.33L327.47 345.33M334.35 345.33L341.22 345.33M352.69 345.33L352.69 321.26M353.83 321.26L353.83 345.33M345.81 321.26L344.66 328.14M344.66 328.14L344.66 321.26M344.66 321.26L361.85 321.26M361.85 321.26L361.85 328.14M361.85 328.14L360.71 321.26M349.25 345.33L357.27 345.33M369.88 345.33L369.88 321.26M371.02 321.26L371.02 345.33M377.9 328.14L377.9 337.31M366.44 321.26L384.78 321.26M384.78 321.26L384.78 328.14M384.78 328.14L383.63 321.26M371.02 332.73L377.9 332.73M366.44 345.33L384.78 345.33M384.78 345.33L384.78 338.46M384.78 338.46L383.63 345.33M393.95 345.33L393.95 321.26M395.09 321.26L395.09 345.33M390.51 321.26L401.97 321.26M401.97 321.26L405.41 322.41M405.41 322.41L407.7 324.7M407.7 324.7L408.85 326.99M408.85 326.99L409.99 330.43M409.99 330.43L409.99 336.16M409.99 336.16L408.85 339.6M408.85 339.6L407.7 341.89M407.7 341.89L405.41 344.19M405.41 344.19L401.97 345.33M401.97 345.33L390.51 345.33M401.97 321.26L404.26 322.41M404.26 322.41L406.55 324.7M406.55 324.7L407.7 326.99M407.7 326.99L408.85 330.43M408.85 330.43L408.85 336.16M408.85 336.16L407.7 339.6M407.7 339.6L406.55 341.89M406.55 341.89L404.26 344.19M404.26 344.19L401.97 345.33"/>
<path d="M272.56 276.99L276.8 276.73"/>
<path d="M468.96 274.12L324.55 274.12"/>
<path d="M559.92 201.78L559.98 201.6"/>
<path d="M594.12 283.43L525.01 283.43"/>
<path d="M517.1 118.44L591.42 118.44"/>
<path d="M324.55 127.75L468.96 127.75"/>
<path d="M319.74 265.86L316.81 265.07M316.81 265.07L313.89 264.82M313.89 264.82L310.72 265.13M310.72 265.13L307.59 265.97M307.59 265.97L303.54 267.63M303.54 267.63L295.17 271.76M295.17 271.76L289.63 274.09M289.63 274.09L283.65 275.83M283.65 275.83L278.45 276.68M278.45 276.68L272.56 276.99"/>
<path d="M319.74 136.01L316.81 136.79M316.81 136.79L313.89 137.05M313.89 137.05L310.72 136.74M310.72 136.74L307.59 135.9M307.59 135.9L303.54 134.23M303.54 134.23L295.17 130.1M295.17 130.1L289.63 127.77M289.63 127.77L283.65 126.03M283.65 126.03L278.45 125.18M278.45 125.18L272.56 124.88"/>
<path d="M319.74 265.86L319.74 247.31"/>
<path d="M323.32 249.13L319.73 247.32"/>
<path d="M324.55 247.31L319.74 247.31"/>
<path d="M468.96 200.57L467.86 200.93"/>
<path d="M473.77 265.86L476.07 265.48M476.07 265.48L478.59 265.81M478.59 265.81L481.03 266.62M481.03 266.62L483.54 267.79M483.54 267.79L486.96 269.71M486.96 269.71L493.86 274.09M493.86 274.09L501.34 278.51M501.34 278.51L505.18 280.29M505.18 280.29L508.06 281.28M508.06 281.28L512.28 282.02"/>
<path d="M324.55 251.18L324.55 254.33"/>
<path d="M473.77 247.31L473.77 265.86"/>
<path d="M594.12 138.92L594.12 154.17"/>
<path d="M512.28 119.84L515.14 119.18"/>
<path d="M591.42 137.69L588.06 138.28M588.06 138.28L584.44 140.2M584.44 140.2L581.3 142.93M581.3 142.93L578.23 146.5M578.23 146.5L575.33 150.63M575.33 150.63L571.26 157.59M571.26 157.59L567.47 165.14M567.47 165.14L560.9 180.07M560.9 180.07L552.88 200.12"/>
<path d="M591.88 137.7L591.42 137.69"/>
<path d="M512.28 282.02L512.28 262.94"/>
<path d="M519.3 263.6L512.28 262.94"/>
<path d="M519.3 282.68L512.28 282.02"/>
<path d="M525.09 264.17L528.12 263.57M528.12 263.57L531.4 261.62M531.4 261.62L534.28 258.83M534.28 258.83L537.11 255.17M537.11 255.17L539.77 250.92M539.77 250.92L543.52 243.78M543.52 243.78L546.98 236.11M546.98 236.11L552.87 221.27M552.87 221.27L559.9 201.83"/>
<path d="M519.3 282.68L519.3 263.6"/>
<path d="M525.01 264.17L523.52 264.09M523.52 264.09L519.3 263.6"/>
<path d="M525.09 264.17L525.01 264.17"/>
<path d="M525.09 264.17L525.09 283.43"/>
<path d="M575.33 151.43L568.63 170.59"/>
<path d="M578.83 146.97L575.33 151.43"/>
<path d="M584.49 145.26L578.82 146.97"/>
<path d="M594.12 154.17L592.83 149.72M592.83 149.72L589.3 146.46M589.3 146.46L584.49 145.26"/>
<path d="M525.01 283.43L523.56 283.33M523.56 283.33L519.3 282.68"/>
<path d="M525.09 283.43L525.01 283.43"/>
<path d="M568.63 170.59L559.99 201.6"/>
<path d="M525.09 283.43L527.25 283.02M527.25 283.02L529.41 281.84M529.41 281.84L532.26 279.13M532.26 279.13L535.07 275.22M535.07 275.22L537.82 270.26M537.82 270.26L541.74 261.41M541.74 261.41L545.54 251.03M545.54 251.03L550.48 235.49M550.48 235.49L553.69 224.44M553.69 224.44L559.98 201.6"/>
<path d="M594.12 170.59L568.63 170.59"/>
<path d="M594.12 154.17L594.12 170.59"/>
<path d="M594.12 283.43L594.12 170.59"/>
<path d="M591.88 137.7L593.35 137.97M593.35 137.97L593.8 138.26"/>
<path d="M591.88 137.7L591.88 118.45"/>
<path d="M535.79 250.69L543.28 231.27"/>
<path d="M526.73 256.6L532.27 254.97M532.27 254.97L535.79 250.69"/>
<path d="M525.08 256.47L526.73 256.6"/>
<path d="M517.1 247.69L518.13 251.7M518.13 251.7L520.99 254.85M520.99 254.85L525.08 256.47"/>
<path d="M517.1 231.27L517.1 247.69"/>
<path d="M594.12 119.84L593.8 119.18"/>
<path d="M594.12 119.84L594.12 138.92"/>
<path d="M593.8 138.26L593.8 119.18"/>
<path d="M591.88 118.45L593.35 118.81M593.35 118.81L593.8 119.18"/>
<path d="M543.29 231.27L552.81 200.28"/>
<path d="M591.42 118.44L589.67 118.64M589.67 118.64L587.93 119.26M587.93 119.26L584.5 121.66M584.5 121.66L581.2 125.42M581.2 125.42L577.89 130.53M577.89 130.53L574.73 136.6M574.73 136.6L571.74 143.32M571.74 143.32L566.09 158.2M566.09 158.2L561.55 171.82M561.55 171.82L552.82 200.28"/>
<path d="M591.88 118.45L591.42 118.44"/>
<path d="M543.28 231.27L517.1 231.27"/>
<path d="M517.1 231.27L517.1 118.44"/>
<path d="M515.14 138.26L517.1 138.26"/>
<path d="M594.12 138.92L593.8 138.26"/>
<path d="M517.1 138.92L512.28 138.92"/>
<path d="M512.28 138.92L515.14 138.26"/>
<path d="M517.1 118.44L515.14 119.18"/>
<path d="M517.1 137.69L515.14 138.26"/>
<path d="M515.14 138.26L515.14 119.18"/>
<path d="M468.96 150.69L470.2 152.73"/>
<path d="M470.19 152.73L473.78 154.55"/>
<path d="M468.96 154.56L473.77 154.56"/>
<path d="M324.55 201.29L325.65 200.93"/>
<path d="M468.96 210.02L324.55 210.02"/>
<path d="M324.55 201.29L324.55 210.02"/>
<path d="M468.96 201.29L324.55 201.29"/>
<path d="M324.55 210.02L324.55 274.12"/>
<path d="M468.96 201.29L468.96 210.02"/>
<path d="M468.96 247.31L473.77 247.31"/>
<path d="M473.78 247.32L470.19 249.13"/>
<path d="M470.2 249.14L468.96 251.18"/>
<path d="M468.96 210.02L468.96 274.12"/>
<path d="M470.2 267.69L468.96 269.73"/>
<path d="M473.78 265.87L470.19 267.68"/>
<path d="M323.32 267.68L319.73 265.87"/>
<path d="M324.55 251.18L323.31 249.14"/>
<path d="M324.55 269.73L323.31 267.69"/>
<path d="M512.28 262.94L509.58 262.57M509.58 262.57L506.84 261.84M506.84 261.84L503.17 260.38M503.17 260.38L495.95 256.49M495.95 256.49L488.58 251.96M488.58 251.96L484.93 249.88M484.93 249.88L481.37 248.17M481.37 248.17L479.63 247.54M479.63 247.54L476.55 246.94M476.55 246.94L473.77 247.31"/>
<path d="M473.77 247.31L473.77 200.93"/>
<path d="M512.28 200.93L512.28 262.94"/>
<path d="M512.28 200.93L473.77 200.93"/>
<path d="M473.77 200.93L473.77 154.56"/>
<path d="M512.28 138.92L512.28 200.93"/>
<path d="M512.28 138.92L509.32 139.8M509.32 139.8L507.1 140.74M507.1 140.74L502.33 143.18M502.33 143.18L490.43 149.85M490.43 149.85L484.43 152.79M484.43 152.79L479.29 154.56M479.29 154.56L476.9 154.93M476.9 154.93L473.77 154.56"/>
<path d="M473.77 154.56L473.77 136.01"/>
<path d="M512.28 119.84L512.28 138.92"/>
<path d="M512.28 119.84L509.29 120.74M509.29 120.74L507.06 121.71M507.06 121.71L502.3 124.22M502.3 124.22L490.44 131.1M490.44 131.1L484.46 134.15M484.46 134.15L479.32 135.99M479.32 135.99L476.93 136.38M476.93 136.38L473.77 136.01"/>
<path d="M324.55 191.84L324.55 200.57"/>
<path d="M468.96 200.57L468.96 191.84"/>
<path d="M468.96 200.57L324.55 200.57"/>
<path d="M324.55 191.84L324.55 127.75"/>
<path d="M468.96 191.84L468.96 127.75"/>
<path d="M324.55 191.84L468.96 191.84"/>
<path d="M470.19 134.18L473.78 136"/>
<path d="M468.96 132.14L470.2 134.18"/>
<path d="M319.74 136.01L319.74 154.56"/>
<path d="M319.73 136L323.32 134.18"/>
<path d="M323.31 134.18L324.55 132.14"/>
<path d="M324.55 154.56L319.74 154.56"/>
<path d="M319.73 154.55L323.32 152.73"/>
<path d="M323.31 152.73L324.55 150.69"/>
<path d="M324.55 150.69L324.55 147.53"/>
<path d="M272.56 124.88L272.56 125.07"/>
<path d="M319.74 154.56L317.45 155.05M317.45 155.05L315.16 154.88M315.16 154.88L312.81 154.07M312.81 154.07L310.5 152.71M310.5 152.71L306.26 149.04M306.26 149.04L303.47 146.07M303.47 146.07L297.8 139.62M297.8 139.62L291.74 133.38M291.74 133.38L288.47 130.64M288.47 130.64L283.59 127.55M283.59 127.55L278.27 125.56M278.27 125.56L272.56 124.88"/>
<path d="M319.74 200.93L319.74 154.56"/>
<path d="M272.56 276.99L275.66 276.79M275.66 276.79L278.67 276.21M278.67 276.21L281.83 275.13M281.83 275.13L284.84 273.64M284.84 273.64L290.2 269.84M290.2 269.84L293.5 266.82M293.5 266.82L299.58 260.22M299.58 260.22L305.16 253.97M305.16 253.97L307.96 251.2M307.96 251.2L310.09 249.45M310.09 249.45L312.25 248.07M312.25 248.07L314.1 247.27M314.1 247.27L315.98 246.85M315.98 246.85L317.86 246.86M317.86 246.86L319.74 247.31"/>
<path d="M319.74 200.93L272.56 200.93"/>
<path d="M319.74 247.31L319.74 200.93"/>
<path d="M5.88 176.86L5.88 225"/>
<path d="M44.39 225L5.88 225"/>
<path d="M44.39 176.86L5.88 176.86"/>
<path d="M272.56 200.93L272.56 125.07"/>
<path d="M272.56 276.99L272.56 200.93"/>
<path d="M272.56 276.99L271.6 276.99"/>
<path d="M271.6 276.99L265.13 278.27"/>
<path d="M265.13 278.27L163.81 295.8"/>
<path d="M54.19 225L60.25 241.84M60.25 241.84L69.33 257.26M69.33 257.26L81.11 270.74M81.11 270.74L95.18 281.81M95.18 281.81L111.05 290.08M111.05 290.08L128.18 295.27M128.18 295.27L145.97 297.2M145.97 297.2L163.81 295.8"/>
<path d="M44.39 225L54.19 225"/>
<path d="M44.39 176.86L44.39 225"/>
<path d="M54.19 176.86L44.39 176.86"/>
<path d="M163.97 106.1L146.11 104.67M146.11 104.67L128.3 106.57M128.3 106.57L111.14 111.75M111.14 111.75L95.24 120.01M95.24 120.01L81.15 131.08M81.15 131.08L69.36 144.57M69.36 144.57L60.26 160.01M60.26 160.01L54.19 176.86"/>
<path d="M272.56 125.07L163.98 106.1"/>
<path d="M106.97 200.93L108.95 188.44M108.95 188.44L114.69 177.17M114.69 177.17L123.64 168.22M123.64 168.22L134.91 162.48M134.91 162.48L147.4 160.5M147.4 160.5L159.9 162.48M159.9 162.48L171.17 168.22M171.17 168.22L180.12 177.17M180.12 177.17L185.86 188.44M185.86 188.44L187.84 200.93M187.84 200.93L185.86 213.43M185.86 213.43L180.12 224.7M180.12 224.7L171.17 233.65M171.17 233.65L159.9 239.39M159.9 239.39L147.4 241.37M147.4 241.37L134.91 239.39M134.91 239.39L123.64 233.65M123.64 233.65L114.69 224.7M114.69 224.7L108.95 213.43M108.95 213.43L106.97 200.93"/>
</g>
</g>
</svg>
