<?xml version="1.0" standalone="no"?><svg xmlns="http://www.w3.org/2000/svg" width="600.000" height="450.000" viewBox="0.0 0.0 600.000 450.000" version="1.1">
<title>Acme Converter - Post-processed with EDS-Designer: 14.44 (info@symca.com)</title>
<desc>Acme Converter - Post-processed with EDS-Designer: 14.44 (info@symca.com)</desc>
<g id="EDS_STYLE_GROUP" fill="none" stroke="black" stroke-width="1.0">
<g id="0" display="visible">
<path d="M280.84 371.25L280.84 355.67M281.59 355.67L281.59 371.25M278.62 355.67L287.52 355.67M287.52 355.67L289.75 356.41M289.75 356.41L290.49 357.15M290.49 357.15L291.23 358.63M291.23 358.63L291.23 360.12M291.23 360.12L290.49 361.6M290.49 361.6L289.75 362.34M289.75 362.34L287.52 363.09M287.52 355.67L289.01 356.41M289.01 356.41L289.75 357.15M289.75 357.15L290.49 358.63M290.49 358.63L290.49 360.12M290.49 360.12L289.75 361.6M289.75 361.6L289.01 362.34M289.01 362.34L287.52 363.09M281.59 363.09L287.52 363.09M287.52 363.09L289.75 363.83M289.75 363.83L290.49 364.57M290.49 364.57L291.23 366.05M291.23 366.05L291.23 368.28M291.23 368.28L290.49 369.77M290.49 369.77L289.75 370.51M289.75 370.51L287.52 371.25M287.52 371.25L278.62 371.25M287.52 363.09L289.01 363.83M289.01 363.83L289.75 364.57M289.75 364.57L290.49 366.05M290.49 366.05L290.49 368.28M290.49 368.28L289.75 369.77M289.75 369.77L289.01 370.51M289.01 370.51L287.52 371.25M297.17 371.25L297.17 355.67M297.91 355.67L297.91 371.25M294.94 355.67L300.14 355.67M294.94 371.25L306.07 371.25M306.07 371.25L306.07 366.8M306.07 366.8L305.33 371.25M314.98 355.67L309.78 371.25M314.98 355.67L320.17 371.25M314.98 357.89L319.43 371.25M311.27 366.8L317.95 366.8M308.3 371.25L312.75 371.25M317.2 371.25L321.66 371.25M334.27 357.89L335.01 360.12M335.01 360.12L335.01 355.67M335.01 355.67L334.27 357.89M334.27 357.89L332.79 356.41M332.79 356.41L330.56 355.67M330.56 355.67L329.08 355.67M329.08 355.67L326.85 356.41M326.85 356.41L325.37 357.89M325.37 357.89L324.62 359.38M324.62 359.38L323.88 361.6M323.88 361.6L323.88 365.31M323.88 365.31L324.62 367.54M324.62 367.54L325.37 369.02M325.37 369.02L326.85 370.51M326.85 370.51L329.08 371.25M329.08 371.25L330.56 371.25M330.56 371.25L332.79 370.51M332.79 370.51L334.27 369.02M334.27 369.02L335.01 367.54M329.08 355.67L327.59 356.41M327.59 356.41L326.11 357.89M326.11 357.89L325.37 359.38M325.37 359.38L324.62 361.6M324.62 361.6L324.62 365.31M324.62 365.31L325.37 367.54M325.37 367.54L326.11 369.02M326.11 369.02L327.59 370.51M327.59 370.51L329.08 371.25M341.69 371.25L341.69 355.67M342.43 355.67L342.43 371.25M352.08 355.67L342.43 365.31M346.14 362.34L352.08 371.25M345.4 362.34L351.34 371.25M339.47 355.67L344.66 355.67M349.11 355.67L353.56 355.67M339.47 371.25L344.66 371.25M349.11 371.25L353.56 371.25"/>
<path d="M499.02 205.92L499.02 205.33M499.02 205.33L499.61 204.14M499.61 204.14L500.21 203.54M500.21 203.54L501.39 202.95M501.39 202.95L503.77 202.95M503.77 202.95L504.96 203.54M504.96 203.54L505.55 204.14M505.55 204.14L506.14 205.33M506.14 205.33L506.14 206.51M506.14 206.51L505.55 207.7M505.55 207.7L504.36 209.48M504.36 209.48L498.43 215.42M498.43 215.42L506.74 215.42"/>
<path d="M499.98 157.02L501.17 156.42M501.17 156.42L502.95 154.64M502.95 154.64L502.95 167.11"/>
<path d="M219.99 78.75L438.98 78.82"/>
<path d="M488.48 123.62L485.9 111.69M485.9 111.69L480.47 100.77M480.47 100.77L472.51 91.52M472.51 91.52L462.51 84.52M462.51 84.52L451.11 80.2M451.11 80.2L438.98 78.82"/>
<path d="M488.48 123.62L488.48 251.41"/>
<path d="M446.5 297.07L459.43 293.46M459.43 293.46L470.87 286.45M470.87 286.45L479.95 276.58M479.95 276.58L485.97 264.59M485.97 264.59L488.48 251.41"/>
<path d="M446.5 297.07L377.17 297.07"/>
<path d="M370.73 311.43L375.36 308.03M375.36 308.03L377.71 302.79M377.71 302.79L377.17 297.07"/>
<path d="M370.73 311.43L370.73 322.16"/>
<path d="M357.64 332.51L363.13 330.67M363.13 330.67L367.68 327.08M367.68 327.08L370.73 322.16"/>
<path d="M357.64 332.51L240.54 332.51"/>
<path d="M227.97 320.57L230.32 326.23M230.32 326.23L234.76 330.45M234.76 330.45L240.54 332.51"/>
<path d="M227.97 320.57L227.97 311.92"/>
<path d="M221.56 303.74L223.67 308.69M223.67 308.69L227.97 311.92"/>
<path d="M221.56 303.74L221.56 297.07"/>
<path d="M221.56 297.07L210.06 297.07"/>
<path d="M219.99 78.75L199.21 80.67M199.21 80.67L179.18 86.51M179.18 86.51L160.62 96.04M160.62 96.04L144.2 108.92M144.2 108.92L130.53 124.69M130.53 124.69L120.11 142.77M120.11 142.77L113.31 162.49M113.31 162.49L110.38 183.15M110.38 183.15L111.42 203.99M111.42 203.99L116.4 224.26M116.4 224.26L125.15 243.2M125.15 243.2L137.33 260.14M137.33 260.14L152.5 274.46M152.5 274.46L170.12 285.64M170.12 285.64L189.55 293.27M189.55 293.27L210.06 297.07"/>
<path d="M238.03 340.22L361.19 340.02"/>
<path d="M234.47 336.35L235.5 338.98M235.5 338.98L238.03 340.22"/>
<path d="M234.47 336.35L234.47 330.27"/>
<path d="M361.19 340.02L363.05 338.82M363.05 338.82L363.95 336.79"/>
<path d="M363.95 336.79L363.95 330.2"/>
<path d="M219.4 94.41L200.51 96.39M200.51 96.39L182.4 102.14M182.4 102.14L165.84 111.43M165.84 111.43L151.49 123.87M151.49 123.87L139.95 138.95M139.95 138.95L131.69 156.06M131.69 156.06L127.06 174.48M127.06 174.48L126.25 193.45M126.25 193.45L129.28 212.2M129.28 212.2L136.04 229.95M136.04 229.95L146.25 245.97M146.25 245.97L159.48 259.6M159.48 259.6L175.19 270.27M175.19 270.27L192.73 277.55M192.73 277.55L211.38 281.14"/>
<path d="M219.34 99.22L201.44 101.09M201.44 101.09L184.29 106.53M184.29 106.53L168.59 115.33M168.59 115.33L154.99 127.11M154.99 127.11L144.05 141.4M144.05 141.4L136.22 157.61M136.22 157.61L131.82 175.06M131.82 175.06L131.04 193.04M131.04 193.04L133.91 210.81M133.91 210.81L140.3 227.63M140.3 227.63L149.96 242.81M149.96 242.81L162.49 255.74M162.49 255.74L177.37 265.86M177.37 265.86L193.98 272.77M193.98 272.77L211.65 276.19"/>
<path d="M174.6 116.2L161.01 126.7M161.01 126.7L149.82 139.74M149.82 139.74L141.51 154.77M141.51 154.77L136.41 171.18M136.41 171.18L134.75 188.27M134.75 188.27L136.58 205.35M136.58 205.35L141.84 221.7M141.84 221.7L150.3 236.65M150.3 236.65L161.61 249.58M161.61 249.58L175.31 259.94"/>
<path d="M219.8 109.32L202.84 111.17M202.84 111.17L186.67 116.65M186.67 116.65L172.07 125.48M172.07 125.48L159.71 137.25M159.71 137.25L150.18 151.42M150.18 151.42L143.94 167.3M143.94 167.3L141.26 184.16M141.26 184.16L142.29 201.19M142.29 201.19L146.97 217.61M146.97 217.61L155.07 232.63M155.07 232.63L166.23 245.54M166.23 245.54L179.91 255.75M179.91 255.75L195.47 262.77M195.47 262.77L212.17 266.26"/>
<path d="M219.73 116.12L203.06 118.06M203.06 118.06L187.29 123.82M187.29 123.82L173.3 133.1M173.3 133.1L161.85 145.37M161.85 145.37L153.57 159.98M153.57 159.98L148.92 176.1M148.92 176.1L148.14 192.87M148.14 192.87L151.29 209.36M151.29 209.36L158.19 224.67M158.19 224.67L168.46 237.95M168.46 237.95L181.54 248.47M181.54 248.47L196.7 255.66M196.7 255.66L213.13 259.13"/>
<path d="M219.4 94.41L441.78 94.64"/>
<path d="M472.17 122.01L468.88 111.42M468.88 111.42L462.09 102.65M462.09 102.65L452.65 96.81M452.65 96.81L441.78 94.64"/>
<path d="M472.17 122.01L472.17 252.38"/>
<path d="M444.62 280.82L454.88 277.84M454.88 277.84L463.52 271.57M463.52 271.57L469.52 262.73M469.52 262.73L472.17 252.38"/>
<path d="M444.62 280.82L359.84 280.82"/>
<path d="M359.45 273.18L238.78 273.26"/>
<path d="M238.78 273.26L238.78 290.72"/>
<path d="M238.78 290.72L251.63 290.72"/>
<path d="M251.63 290.72L251.63 276.55"/>
<path d="M251.63 276.55L238.78 276.55"/>
<path d="M238.78 276.55L359.42 276.55"/>
<path d="M359.42 276.55L359.45 273.18"/>
<path d="M359.45 273.18L359.45 295.33"/>
<path d="M359.45 295.33L359.45 290.88"/>
<path d="M359.45 290.88L346.4 290.88"/>
<path d="M346.4 290.88L346.4 276.55"/>
<path d="M346.4 276.55L346.4 317.56"/>
<path d="M346.4 317.56L353.32 317.56"/>
<path d="M353.32 317.56L353.32 299.78"/>
<path d="M353.32 299.78L353.32 317.56"/>
<path d="M353.32 317.56L245.21 317.56"/>
<path d="M245.21 317.56L245.21 300.6"/>
<path d="M245.21 300.6L245.21 317.56"/>
<path d="M245.21 317.56L251.8 317.56"/>
<path d="M251.8 317.56L251.63 290.72"/>
<path d="M251.63 290.72L282.12 290.72"/>
<path d="M282.12 290.72L277.34 290.72"/>
<path d="M277.34 290.72L277.34 297.96"/>
<path d="M277.34 297.96L265.64 297.96"/>
<path d="M265.64 297.96L265.64 290.72"/>
<path d="M265.64 290.72L265.64 317.56"/>
<path d="M265.64 317.56L265.64 297.96"/>
<path d="M265.64 297.96L251.68 297.96"/>
<path d="M251.68 297.96L277.34 297.96"/>
<path d="M277.34 297.96L277.34 290.72"/>
<path d="M277.34 290.72L282.12 290.72"/>
<path d="M282.12 290.72L282.12 287.26"/>
<path d="M282.12 287.26L315.91 287.26"/>
<path d="M315.91 287.26L315.91 290.88"/>
<path d="M315.91 290.88L346.4 290.88"/>
<path d="M346.4 290.88L346.4 297.96"/>
<path d="M346.4 297.96L321.51 297.96"/>
<path d="M321.51 297.96L321.51 290.88"/>
<path d="M321.51 290.88L332.72 290.88"/>
<path d="M332.72 290.88L332.72 317.56"/>
<path d="M238.78 290.72L238.78 294.83"/>
<path d="M245.21 300.6L242.67 296.96M242.67 296.96L238.78 294.83"/>
<path d="M359.45 295.33L355.76 296.69M355.76 296.69L353.32 299.78"/>
<path d="M281.76 279.15L318.16 279.14"/>
<path d="M318.16 279.14L321.62 283.6"/>
<path d="M321.62 283.6L321.51 290.88"/>
<path d="M321.51 290.88L315.91 290.88"/>
<path d="M315.91 290.88L315.91 287.26"/>
<path d="M315.91 287.26L318.16 279.14"/>
<path d="M318.16 279.14L281.76 279.15"/>
<path d="M281.76 279.15L280.4 279.15"/>
<path d="M280.4 279.15L277.51 284.24"/>
<path d="M277.51 284.24L277.34 290.72"/>
<path d="M277.34 290.72L282.12 290.72"/>
<path d="M282.12 290.72L282.12 287.26"/>
<path d="M282.12 287.26L280.4 279.15"/>
<path d="M211.38 281.14L238.78 281.14"/>
<path d="M238.78 281.14L238.78 276.55"/>
<path d="M238.78 276.55L211.65 276.19"/>
<path d="M211.65 276.19L359.42 276.55"/>
<path d="M359.42 276.55L444.11 276.76"/>
<path d="M444.11 276.76L452.45 274.09M452.45 274.09L459.59 269.02M459.59 269.02L464.85 262.02M464.85 262.02L467.74 253.76"/>
<path d="M467.74 253.76L467.74 245.33"/>
<path d="M467.74 253.76L467.74 266.1"/>
<path d="M467.74 266.1L467.74 245.33"/>
<path d="M467.74 245.33L471.02 242.26"/>
<path d="M471.02 242.26L471.5 241.81"/>
<path d="M471.5 241.81L472.17 241.19"/>
<path d="M175.31 259.94L177.09 259.96M177.09 259.96L178.42 258.75"/>
<path d="M178.42 258.75L179.7 256.6"/>
<path d="M179.7 256.6L180.13 255.88"/>
<path d="M177.92 116.35L176.91 115.61M176.91 115.61L175.66 115.55M175.66 115.55L174.6 116.2"/>
<path d="M177.92 116.35L179.95 119.16"/>
<path d="M179.95 119.16L180.47 119.87"/>
<path d="M212.17 266.26L385.52 266.26"/>
<path d="M213.13 259.13L385.69 259.13"/>
<path d="M385.52 266.26L402.23 263.27M402.23 263.27L417.81 256.51"/>
<path d="M231.32 256.15L417.81 256.51"/>
<path d="M417.81 256.51L431.68 253.52M431.68 253.52L444.69 247.85M444.69 247.85L456.32 239.71M456.32 239.71L466.1 229.43"/>
<path d="M466.1 229.43L470.93 222.4"/>
<path d="M470.93 222.4L472.17 219.76"/>
<path d="M385.69 259.13L395.52 257.43"/>
<path d="M395.52 257.43L397.73 256.47"/>
<path d="M231.32 256.15L198.2 256.15"/>
<path d="M219.34 99.22L440.98 99.22"/>
<path d="M467.66 120.56L464.06 112.16M464.06 112.16L457.94 105.36M457.94 105.36L449.97 100.89M449.97 100.89L440.98 99.22"/>
<path d="M467.66 120.56L467.66 138.86"/>
<path d="M467.66 138.86L471.11 142.23"/>
<path d="M471.11 142.23L472.17 143.27"/>
<path d="M467.66 120.56L467.66 112"/>
<path d="M467.66 112L467.66 109.29"/>
<path d="M219.8 109.32L378.25 109.32"/>
<path d="M418.32 119.25L405.61 113.62M405.61 113.62L392.12 110.28M392.12 110.28L378.25 109.32"/>
<path d="M469.01 150.6L459.42 138.55M459.42 138.55L447.33 129M447.33 129L433.39 122.45M433.39 122.45L418.32 119.25"/>
<path d="M469.01 150.6L472.17 156.27"/>
<path d="M219.73 116.12L381.24 116.12"/>
<path d="M398.76 119.35L390.17 116.8M390.17 116.8L381.24 116.12"/>
<path d="M398.76 119.35L418.32 119.25"/>
<path d="M202.42 130.12L188.48 136.56M188.48 136.56L176.6 146.31M176.6 146.31L167.57 158.73M167.57 158.73L161.96 173.03M161.96 173.03L160.12 188.28M160.12 188.28L162.19 203.5M162.19 203.5L168.02 217.71M168.02 217.71L177.24 229.99M177.24 229.99L189.26 239.55M189.26 239.55L203.3 245.78"/>
<path d="M203.3 245.78L216.63 252.8M216.63 252.8L231.32 256.15"/>
<path d="M234.02 119.14L222.89 120.92M222.89 120.92L212.25 124.62M212.25 124.62L202.42 130.12"/>
<path d="M234.02 119.14L199 119.14"/>
<path d="M199 119.14L234.02 119.14"/>
<path d="M234.02 119.14L398.26 119.14"/>
<path d="M212.82 247.28L198.4 244.08"/>
<path d="M212.82 247.28L389.07 247.28"/>
<path d="M389.07 247.28L402.79 243.11M402.79 243.11L415.15 235.83M415.15 235.83L425.45 225.84M425.45 225.84L433.11 213.71M433.11 213.71L437.7 200.12M437.7 200.12L438.97 185.83M438.97 185.83L436.83 171.64M436.83 171.64L431.42 158.35M431.42 158.35L423.03 146.72M423.03 146.72L412.14 137.38M412.14 137.38L399.36 130.86M399.36 130.86L385.4 127.54"/>
<path d="M389.07 247.28L445.69 247.28"/>
<path d="M415.42 241.1L448.82 241.34"/>
<path d="M448.82 241.34L454.35 241.34"/>
<path d="M415.42 241.1L406.93 241.1"/>
<path d="M407 236.3L441.68 236.26"/>
<path d="M441.68 236.26L451.87 226.59M451.87 226.59L459.56 214.84M459.56 214.84L464.34 201.64M464.34 201.64L465.96 187.69M465.96 187.69L464.32 173.74M464.32 173.74L459.52 160.54M459.52 160.54L451.81 148.8M451.81 148.8L441.61 139.15"/>
<path d="M441.61 139.15L414.65 139.15"/>
<path d="M414.65 139.15L404.45 139.15"/>
<path d="M381.93 242.81L395.56 240.45M395.56 240.45L408.17 234.76M408.17 234.76L418.96 226.11M418.96 226.11L427.25 215.04M427.25 215.04L432.51 202.24M432.51 202.24L434.41 188.54M434.41 188.54L432.84 174.8M432.84 174.8L427.88 161.89M427.88 161.89L419.85 150.62M419.85 150.62L409.27 141.71M409.27 141.71L396.79 135.73M396.79 135.73L383.22 133.05"/>
<path d="M381.93 240.05L396.11 237.39M396.11 237.39L409.02 230.95M409.02 230.95L419.69 221.24M419.69 221.24L427.3 208.99M427.3 208.99L431.29 195.12M431.29 195.12L431.34 180.69M431.34 180.69L427.45 166.8M427.45 166.8L419.93 154.49M419.93 154.49L409.33 144.71M409.33 144.71L396.46 138.18M396.46 138.18L382.3 135.41"/>
<path d="M381.93 242.81L213.67 242.81"/>
<path d="M381.93 240.05L213.67 240.05"/>
<path d="M382.3 135.41L214.48 135.41"/>
<path d="M383.22 133.05L214.48 133.05"/>
<path d="M214.48 135.41L200.93 138.66M200.93 138.66L188.7 145.35M188.7 145.35L178.66 155.02M178.66 155.02L171.51 166.98M171.51 166.98L167.75 180.4M167.75 180.4L167.64 194.34M167.64 194.34L171.19 207.82M171.19 207.82L178.16 219.89M178.16 219.89L188.05 229.71M188.05 229.71L200.17 236.59M200.17 236.59L213.67 240.05"/>
<path d="M214.48 133.05L200.08 136.28M200.08 136.28L187.05 143.21M187.05 143.21L176.32 153.35M176.32 153.35L168.67 165.98M168.67 165.98L164.65 180.18M164.65 180.18L164.54 194.94M164.54 194.94L168.35 209.21M168.35 209.21L175.81 221.94M175.81 221.94L186.39 232.25M186.39 232.25L199.31 239.37M199.31 239.37L213.67 242.81"/>
<path d="M213.98 127.79L434.72 127.56"/>
<path d="M434.72 127.56L444.88 127.55"/>
<path d="M213.98 127.79L202.42 130.12"/>
<path d="M421.31 134.13L451 134.28"/>
<path d="M451 134.28L454.7 134.28"/>
<path d="M421.31 134.13L406.7 134.13"/>
<path d="M344.45 246.19L346.85 243.44"/>
<path d="M346.85 243.44L347.4 242.81"/>
<path d="M347.4 242.81L343.5 247.28"/>
<path d="M343.5 247.28L347.4 242.81"/>
<path d="M347.4 242.81L349.53 242.81"/>
<path d="M349.53 242.81L352.01 246.57"/>
<path d="M352.01 246.57L352.47 247.28"/>
<path d="M352.47 247.28L348.45 247.28"/>
<path d="M348.45 247.28L348.45 242.81"/>
<path d="M348.45 242.81L381.93 242.81"/>
<path d="M370.58 246.46L373.75 243.53"/>
<path d="M373.75 243.53L374.54 242.81"/>
<path d="M374.54 242.81L369.68 247.28"/>
<path d="M369.68 247.28L374.54 242.81"/>
<path d="M374.54 242.81L376.55 242.81"/>
<path d="M376.55 242.81L378.3 246.15"/>
<path d="M378.3 246.15L378.89 247.28"/>
<path d="M343.37 128.59L346.73 132.17"/>
<path d="M346.73 132.17L347.56 133.05"/>
<path d="M347.56 133.05L349.05 133.05"/>
<path d="M349.05 133.05L352.52 128.97"/>
<path d="M352.52 128.97L353.65 127.65"/>
<path d="M353.65 127.65L349.05 133.05"/>
<path d="M349.05 133.05L347.56 133.05"/>
<path d="M347.56 133.05L343.37 128.59"/>
<path d="M343.37 128.59L342.5 127.66"/>
<path d="M348.27 128.37L348.27 132"/>
<path d="M348.27 132L348.27 133.05"/>
<path d="M348.27 133.05L348.27 127.65"/>
<path d="M368.95 127.63L373.64 132.38"/>
<path d="M373.64 132.38L374.3 133.05"/>
<path d="M374.3 133.05L383.22 133.05"/>
<path d="M379.92 127.62L376.11 133.05"/>
<path d="M376.11 133.05L375.09 133.05"/>
<path d="M375.09 133.05L375.09 128.33"/>
<path d="M375.09 128.33L375.09 127.62"/>
<path d="M192.91 154.9L192.91 222.53"/>
<path d="M192.96 152.65L184.34 160.54M184.34 160.54L178.2 170.49M178.2 170.49L175 181.73M175 181.73L174.99 193.42M174.99 193.42L178.17 204.67M178.17 204.67L184.3 214.62M184.3 214.62L192.91 222.53"/>
<path d="M192.91 154.9L192.91 152.69"/>
<path d="M405.52 153.68L405.68 223.03"/>
<path d="M405.68 223.03L414.31 214.68M414.31 214.68L420.42 204.33M420.42 204.33L423.56 192.73M423.56 192.73L423.5 180.71M423.5 180.71L420.26 169.14M420.26 169.14L414.07 158.84M414.07 158.84L405.37 150.56"/>
<path d="M405.52 153.68L405.37 150.56"/>
<path d="M198.34 149.66L240.75 149.66M240.75 149.66L240.75 172.6M240.75 172.6L198.34 172.6M198.34 172.6L198.34 149.66"/>
<path d="M250.83 149.14L294.11 149.14M294.11 149.14L294.11 172.61M294.11 172.61L250.83 172.61M250.83 172.61L250.83 149.14"/>
<path d="M204.7 156.39L233.6 156.39M233.6 156.39L233.6 165.97M233.6 165.97L204.7 165.97M204.7 165.97L204.7 156.39"/>
<path d="M204.7 156.39L198.34 149.66"/>
<path d="M198.34 149.66L240.75 149.66"/>
<path d="M240.75 149.66L233.6 156.39"/>
<path d="M233.6 156.39L233.6 165.97"/>
<path d="M233.6 165.97L240.75 172.6"/>
<path d="M240.75 172.6L198.34 172.6"/>
<path d="M198.34 172.6L204.7 165.97"/>
<path d="M257.83 156.63L286.98 156.63M286.98 156.63L286.98 165.72M286.98 165.72L257.83 165.72M257.83 165.72L257.83 156.63"/>
<path d="M286.98 156.63L294.11 149.14"/>
<path d="M294.11 149.14L294.11 172.61"/>
<path d="M294.11 172.61L286.98 165.72"/>
<path d="M286.98 165.72L257.83 165.72"/>
<path d="M257.83 165.72L250.83 172.61"/>
<path d="M250.83 172.61L250.83 149.14"/>
<path d="M250.83 149.14L257.83 156.63"/>
<path d="M304.43 149.15L347.55 149.15M347.55 149.15L347.55 172.25M347.55 172.25L304.43 172.25M304.43 172.25L304.43 149.15"/>
<path d="M311.41 156.44L340.42 156.44M340.42 156.44L340.42 165.89M340.42 165.89L311.41 165.89M311.41 165.89L311.41 156.44"/>
<path d="M340.42 156.44L347.55 149.15"/>
<path d="M347.55 149.15L304.43 149.15"/>
<path d="M304.43 149.15L311.41 156.44"/>
<path d="M311.41 156.44L311.41 165.89"/>
<path d="M311.41 165.89L304.43 172.25"/>
<path d="M304.43 172.25L347.55 172.25"/>
<path d="M347.55 172.25L340.42 165.89"/>
<path d="M357.94 149.31L400.6 149.31M400.6 149.31L400.6 172.72M400.6 172.72L357.94 172.72M357.94 172.72L357.94 149.31"/>
<path d="M364.77 156.59L393.93 156.59M393.93 156.59L393.93 165.74M393.93 165.74L364.77 165.74M364.77 165.74L364.77 156.59"/>
<path d="M393.93 156.59L400.6 149.31"/>
<path d="M400.6 149.31L357.94 149.31"/>
<path d="M357.94 149.31L364.77 156.59"/>
<path d="M364.77 156.59L364.77 165.74"/>
<path d="M364.77 165.74L357.94 172.72"/>
<path d="M357.94 172.72L400.6 172.72"/>
<path d="M400.6 172.72L393.93 165.74"/>
<path d="M198.16 202.8L240.66 202.8M240.66 202.8L240.66 225.9M240.66 225.9L198.16 225.9M198.16 225.9L198.16 202.8"/>
<path d="M204.99 209.78L233.53 209.78M233.53 209.78L233.53 219.08M233.53 219.08L204.99 219.08M204.99 219.08L204.99 209.78"/>
<path d="M233.53 209.78L240.66 202.8"/>
<path d="M240.66 202.8L198.16 202.8"/>
<path d="M198.16 202.8L204.99 209.78"/>
<path d="M204.99 209.78L204.99 219.08"/>
<path d="M204.99 219.08L198.16 225.9"/>
<path d="M198.16 225.9L240.66 225.9"/>
<path d="M240.66 225.9L233.53 219.08"/>
<path d="M251.21 202.34L294.33 202.34M294.33 202.34L294.33 226.06M294.33 226.06L251.21 226.06M251.21 226.06L251.21 202.34"/>
<path d="M257.88 209.93L286.89 209.93M286.89 209.93L286.89 219.24M286.89 219.24L257.88 219.24M257.88 219.24L257.88 209.93"/>
<path d="M286.89 209.93L294.33 202.34"/>
<path d="M294.33 202.34L294.33 226.06"/>
<path d="M294.33 226.06L286.89 219.24"/>
<path d="M286.89 219.24L257.88 219.24"/>
<path d="M257.88 219.24L251.21 226.06"/>
<path d="M251.21 226.06L251.21 202.34"/>
<path d="M251.21 202.34L257.88 209.93"/>
<path d="M304.26 202.96L347.54 202.96M347.54 202.96L347.54 225.59M347.54 225.59L304.26 225.59M304.26 225.59L304.26 202.96"/>
<path d="M311.55 209.78L340.4 209.78M340.4 209.78L340.4 218.93M340.4 218.93L311.55 218.93M311.55 218.93L311.55 209.78"/>
<path d="M340.4 209.78L347.54 202.96"/>
<path d="M347.54 202.96L347.54 225.59"/>
<path d="M347.54 225.59L340.4 218.93"/>
<path d="M340.4 218.93L311.55 218.93"/>
<path d="M311.55 218.93L304.26 225.59"/>
<path d="M304.26 225.59L304.26 202.96"/>
<path d="M304.26 202.96L311.55 209.78"/>
<path d="M357.93 202.8L400.59 202.8M400.59 202.8L400.59 225.59M400.59 225.59L357.93 225.59M357.93 225.59L357.93 202.8"/>
<path d="M364.6 209.62L394.08 209.62M394.08 209.62L394.08 219.08M394.08 219.08L364.6 219.08M364.6 219.08L364.6 209.62"/>
<path d="M400.59 202.8L394.08 209.62"/>
<path d="M394.08 209.62L394.08 219.08"/>
<path d="M394.08 219.08L400.59 225.59"/>
<path d="M400.59 225.59L357.93 225.59"/>
<path d="M357.93 225.59L364.6 219.08"/>
<path d="M364.6 219.08L364.6 209.62"/>
<path d="M364.6 209.62L357.93 202.8"/>
<path d="M211.62 138.8L211.62 149.12"/>
<path d="M211.62 149.12L211.62 149.66"/>
<path d="M211.62 149.66L211.62 138.8"/>
<path d="M211.62 138.8L226.6 138.8"/>
<path d="M226.6 138.8L226.6 149.66"/>
<path d="M211.59 172.6L211.59 182.41"/>
<path d="M211.59 182.41L226.87 182.41"/>
<path d="M226.87 182.41L226.87 172.6"/>
<path d="M265.39 149.14L265.39 138.65"/>
<path d="M265.39 138.65L280.32 138.65"/>
<path d="M280.32 138.65L280.32 149.14"/>
<path d="M265.26 172.61L265.26 182.54"/>
<path d="M265.26 182.54L280.25 182.54"/>
<path d="M280.25 182.54L280.25 172.61"/>
<path d="M318.34 172.25L318.34 182.92"/>
<path d="M318.34 182.92L333.92 182.92"/>
<path d="M333.92 182.92L333.92 172.25"/>
<path d="M318.09 149.15L318.08 138.73"/>
<path d="M318.08 138.73L333.73 138.73"/>
<path d="M333.73 138.73L333.73 149.15"/>
<path d="M371.61 149.31L371.6 138.68"/>
<path d="M371.6 138.68L386.82 138.68"/>
<path d="M386.82 138.68L386.82 149.31"/>
<path d="M371.43 172.72L371.44 182.63"/>
<path d="M371.44 182.63L386.98 182.63"/>
<path d="M386.98 182.63L386.98 172.72"/>
<path d="M371.62 202.8L371.62 192.5"/>
<path d="M371.62 192.5L371.62 192.5"/>
<path d="M371.62 192.5L386.65 192.5"/>
<path d="M386.65 192.5L386.65 202.8"/>
<path d="M211.57 202.8L211.57 192.21"/>
<path d="M211.57 192.21L226.67 192.21"/>
<path d="M226.67 192.21L226.67 202.8"/>
<path d="M211.53 225.9L211.53 235.89"/>
<path d="M211.53 235.89L211.53 236.87"/>
<path d="M211.53 236.87L226.67 236.87"/>
<path d="M226.67 236.87L226.67 225.9"/>
<path d="M265.1 236.94L280.25 236.94"/>
<path d="M280.25 236.94L280.25 226.06"/>
<path d="M265.1 226.06L265.1 236.94"/>
<path d="M371.41 236.58L386.56 236.58"/>
<path d="M386.56 236.58L386.56 225.59"/>
<path d="M371.41 225.59L371.41 236.58"/>
<path d="M318.36 236.74L333.51 236.74"/>
<path d="M333.51 236.74L333.51 225.59"/>
<path d="M318.36 225.59L318.36 236.74"/>
<path d="M280.31 191.76L265.16 191.76"/>
<path d="M265.16 191.76L265.16 202.34"/>
<path d="M280.31 202.34L280.31 191.76"/>
<path d="M333.58 192.24L318.44 192.24"/>
<path d="M318.44 192.24L318.44 202.96"/>
<path d="M333.58 202.96L333.58 192.24"/>
<path d="M212.28 149.66L212.28 153.37"/>
<path d="M212.28 153.37L225.96 153.37"/>
<path d="M225.96 153.37L225.96 149.66"/>
<path d="M279.77 152.89L279.77 149.19"/>
<path d="M266.1 152.89L279.77 152.89"/>
<path d="M266.1 149.19L266.1 152.89"/>
<path d="M332.78 152.93L332.78 149.23"/>
<path d="M319.11 152.93L332.78 152.93"/>
<path d="M319.11 149.23L319.11 152.93"/>
<path d="M386.43 153.04L386.43 149.34"/>
<path d="M372.76 153.04L386.43 153.04"/>
<path d="M372.76 149.34L372.76 153.04"/>
<path d="M225.99 206.51L225.99 202.8"/>
<path d="M212.32 206.51L225.99 206.51"/>
<path d="M212.32 202.8L212.32 206.51"/>
<path d="M279.53 206.08L279.53 202.38"/>
<path d="M265.86 206.08L279.53 206.08"/>
<path d="M265.86 202.38L265.86 206.08"/>
<path d="M332.86 206.72L332.86 203.01"/>
<path d="M319.18 206.72L332.86 206.72"/>
<path d="M319.18 203.01L319.18 206.72"/>
<path d="M386.02 206.53L386.02 202.82"/>
<path d="M372.35 206.53L386.02 206.53"/>
<path d="M372.35 202.82L372.35 206.53"/>
<path d="M212.51 168.9L212.51 172.6"/>
<path d="M226.18 168.9L212.51 168.9"/>
<path d="M226.18 172.6L226.18 168.9"/>
<path d="M265.93 168.9L265.93 172.61"/>
<path d="M279.61 168.9L265.93 168.9"/>
<path d="M279.61 172.61L279.61 168.9"/>
<path d="M319.25 168.55L319.25 172.25"/>
<path d="M332.92 168.55L319.25 168.55"/>
<path d="M332.92 172.25L332.92 168.55"/>
<path d="M372.41 169.01L372.41 172.72"/>
<path d="M386.08 169.01L372.41 169.01"/>
<path d="M386.08 172.72L386.08 169.01"/>
<path d="M372.14 221.89L372.14 225.59"/>
<path d="M385.81 221.89L372.14 221.89"/>
<path d="M385.81 225.59L385.81 221.89"/>
<path d="M319.15 221.89L319.15 225.59"/>
<path d="M332.82 221.89L319.15 221.89"/>
<path d="M332.82 225.59L332.82 221.89"/>
<path d="M266.02 222.35L266.02 226.06"/>
<path d="M279.69 222.35L266.02 222.35"/>
<path d="M279.69 226.06L279.69 222.35"/>
<path d="M212.31 222.2L212.31 225.9"/>
<path d="M225.99 222.2L212.31 222.2"/>
<path d="M225.99 225.9L225.99 222.2"/>
<path d="M199.65 143.19L194.43 143.19"/>
<path d="M194.43 143.19L191.89 143.19"/>
<path d="M191.89 143.19L205.89 143.19"/>
<path d="M205.89 143.19L205.89 146.73"/>
<path d="M205.89 146.73L232.38 146.73"/>
<path d="M232.38 146.73L232.38 143.49"/>
<path d="M232.38 143.49L259.51 143.49"/>
<path d="M259.51 143.49L259.51 146.86"/>
<path d="M259.51 146.86L285.95 146.86"/>
<path d="M285.95 146.86L285.95 143.24"/>
<path d="M285.95 143.24L312.76 143.24"/>
<path d="M312.76 143.24L312.76 146.94"/>
<path d="M312.76 146.94L339.04 146.94"/>
<path d="M339.04 146.94L339.04 143.2"/>
<path d="M339.04 143.2L365.83 143.2"/>
<path d="M365.83 143.2L365.83 146.65"/>
<path d="M365.83 146.65L386.82 146.65"/>
<path d="M384.96 200.05L382.16 200.04"/>
<path d="M382.16 200.04L386.65 200.04"/>
<path d="M386.65 200.04L371.62 200.04"/>
<path d="M371.62 200.04L365.98 200.04"/>
<path d="M365.98 200.04L365.98 196.79"/>
<path d="M365.98 196.79L339.02 196.79"/>
<path d="M339.02 196.79L339.02 199.88"/>
<path d="M339.02 199.88L312.85 199.88"/>
<path d="M312.85 199.88L312.85 196.8"/>
<path d="M312.85 196.8L285.93 196.8"/>
<path d="M285.93 196.8L285.93 199.94"/>
<path d="M285.93 199.94L259.63 199.94"/>
<path d="M259.63 199.94L259.63 196.7"/>
<path d="M259.63 196.7L232.21 196.7"/>
<path d="M232.21 196.7L232.21 199.85"/>
<path d="M232.21 199.85L205.96 199.85"/>
<path d="M205.96 199.85L205.96 196.77"/>
<path d="M205.96 196.77L179.17 196.77"/>
<path d="M179.17 196.77L179.17 192.69"/>
<path d="M179.09 183.04L179.09 179.04"/>
<path d="M179.09 179.04L205.99 179.04"/>
<path d="M205.99 179.04L205.99 175.76"/>
<path d="M205.99 175.76L232.76 175.76"/>
<path d="M232.76 175.76L232.76 179.14"/>
<path d="M232.76 179.14L259.15 179.14"/>
<path d="M259.15 179.14L259.15 175.65"/>
<path d="M259.15 175.65L286.03 175.65"/>
<path d="M286.03 175.65L286.03 179.34"/>
<path d="M286.03 179.34L312.78 179.34"/>
<path d="M312.78 179.34L312.78 175.7"/>
<path d="M312.78 175.7L339.09 175.7"/>
<path d="M339.09 175.7L339.09 179.34"/>
<path d="M339.09 179.34L365.89 179.34"/>
<path d="M365.89 179.34L365.89 175.9"/>
<path d="M365.89 175.9L386.98 175.9"/>
<path d="M195.75 232.45L197.77 232.45"/>
<path d="M197.77 232.45L192.02 232.45"/>
<path d="M192.02 232.45L205.91 232.45"/>
<path d="M205.91 232.45L205.91 228.77"/>
<path d="M205.91 228.77L232.86 228.77"/>
<path d="M232.86 228.77L232.86 232.53"/>
<path d="M232.86 232.53L259.13 232.53"/>
<path d="M259.13 232.53L259.13 228.86"/>
<path d="M259.13 228.86L285.94 228.86"/>
<path d="M285.94 228.86L285.94 232.44"/>
<path d="M285.94 232.44L291.05 232.44"/>
<path d="M291.05 232.44L312.83 232.44"/>
<path d="M312.83 232.44L312.83 228.77"/>
<path d="M312.83 228.77L339.08 228.77"/>
<path d="M339.08 228.77L339.08 232.41"/>
<path d="M339.08 232.41L365.89 232.41"/>
<path d="M365.89 232.41L365.89 228.74"/>
<path d="M365.89 228.74L386.56 228.74"/>
<path d="M94.82 154.64L103.13 154.64M103.13 154.64L97.2 167.11"/>
<path d="M96.23 202.95L94.45 203.54M94.45 203.54L93.86 204.73M93.86 204.73L93.86 205.92M93.86 205.92L94.45 207.11M94.45 207.11L95.64 207.7M95.64 207.7L98.01 208.29M98.01 208.29L99.79 208.89M99.79 208.89L100.98 210.07M100.98 210.07L101.57 211.26M101.57 211.26L101.57 213.04M101.57 213.04L100.98 214.23M100.98 214.23L100.39 214.82M100.39 214.82L98.61 215.42M98.61 215.42L96.23 215.42M96.23 215.42L94.45 214.82M94.45 214.82L93.86 214.23M93.86 214.23L93.26 213.04M93.26 213.04L93.26 211.26M93.26 211.26L93.86 210.07M93.86 210.07L95.04 208.89M95.04 208.89L96.82 208.29M96.82 208.29L99.2 207.7M99.2 207.7L100.39 207.11M100.39 207.11L100.98 205.92M100.98 205.92L100.98 204.73M100.98 204.73L100.39 203.54M100.39 203.54L98.61 202.95M98.61 202.95L96.23 202.95"/>
</g>
</g>
</svg>
