<?xml version="1.0" standalone="no"?><svg xmlns="http://www.w3.org/2000/svg" width="600.000" height="450.000" viewBox="0.0 0.0 600.000 450.000" version="1.1">
<title>Acme Converter - Post-processed with EDS-Designer: 14.44 (info@symca.com)</title>
<desc>Acme Converter - Post-processed with EDS-Designer: 14.44 (info@symca.com)</desc>
<g id="EDS_STYLE_GROUP" fill="none" stroke="black" stroke-width="1.0">
<g id="0" display="visible">
<path d="M216.69 408.96L216.69 370.15M218.53 370.15L218.53 408.96M211.14 370.15L233.32 370.15M233.32 370.15L238.86 372M238.86 372L240.71 373.85M240.71 373.85L242.56 377.54M242.56 377.54L242.56 381.24M242.56 381.24L240.71 384.94M240.71 384.94L238.86 386.79M238.86 386.79L233.32 388.63M233.32 370.15L237.02 372M237.02 372L238.86 373.85M238.86 373.85L240.71 377.54M240.71 377.54L240.71 381.24M240.71 381.24L238.86 384.94M238.86 384.94L237.02 386.79M237.02 386.79L233.32 388.63M218.53 388.63L233.32 388.63M233.32 388.63L238.86 390.48M238.86 390.48L240.71 392.33M240.71 392.33L242.56 396.03M242.56 396.03L242.56 401.57M242.56 401.57L240.71 405.27M240.71 405.27L238.86 407.11M238.86 407.11L233.32 408.96M233.32 408.96L211.14 408.96M233.32 388.63L237.02 390.48M237.02 390.48L238.86 392.33M238.86 392.33L240.71 396.03M240.71 396.03L240.71 401.57M240.71 401.57L238.86 405.27M238.86 405.27L237.02 407.11M237.02 407.11L233.32 408.96M257.34 408.96L257.34 370.15M259.19 370.15L259.19 408.96M251.8 370.15L264.74 370.15M251.8 408.96L279.52 408.96M279.52 408.96L279.52 397.87M279.52 397.87L277.67 408.96M301.7 370.15L288.76 408.96M301.7 370.15L314.63 408.96M301.7 375.7L312.79 408.96M292.46 397.87L309.09 397.87M285.07 408.96L296.15 408.96M307.24 408.96L318.33 408.96M349.75 375.7L351.6 381.24M351.6 381.24L351.6 370.15M351.6 370.15L349.75 375.7M349.75 375.7L346.05 372M346.05 372L340.51 370.15M340.51 370.15L336.81 370.15M336.81 370.15L331.27 372M331.27 372L327.57 375.7M327.57 375.7L325.72 379.39M325.72 379.39L323.87 384.94M323.87 384.94L323.87 394.18M323.87 394.18L325.72 399.72M325.72 399.72L327.57 403.42M327.57 403.42L331.27 407.11M331.27 407.11L336.81 408.96M336.81 408.96L340.51 408.96M340.51 408.96L346.05 407.11M346.05 407.11L349.75 403.42M349.75 403.42L351.6 399.72M336.81 370.15L333.11 372M333.11 372L329.42 375.7M329.42 375.7L327.57 379.39M327.57 379.39L325.72 384.94M325.72 384.94L325.72 394.18M325.72 394.18L327.57 399.72M327.57 399.72L329.42 403.42M329.42 403.42L333.11 407.11M333.11 407.11L336.81 408.96M368.23 408.96L368.23 370.15M370.08 370.15L370.08 408.96M394.1 370.15L370.08 394.18M379.32 386.79L394.1 408.96M377.47 386.79L392.25 408.96M362.68 370.15L375.62 370.15M386.71 370.15L397.8 370.15M362.68 408.96L375.62 408.96M386.71 408.96L397.8 408.96"/>
<path d="M459.79 191.05L462.74 189.58M462.74 189.58L467.18 185.14M467.18 185.14L467.18 216.19"/>
<path d="M134.27 191.26L134.27 189.78M134.27 189.78L135.75 186.82M135.75 186.82L137.23 185.35M137.23 185.35L140.19 183.87M140.19 183.87L146.1 183.87M146.1 183.87L149.06 185.35M149.06 185.35L150.54 186.82M150.54 186.82L152.02 189.78M152.02 189.78L152.02 192.74M152.02 192.74L150.54 195.69M150.54 195.69L147.58 200.13M147.58 200.13L132.8 214.91M132.8 214.91L153.49 214.91"/>
<path d="M318.05 217.81L330.47 217.81"/>
<path d="M318.05 205.39L318.05 217.81"/>
<path d="M365.01 201.51L365.01 244.98"/>
<path d="M365.01 201.51L363.59 190.66M363.59 190.66L359.4 180.56M359.4 180.56L352.74 171.88M352.74 171.88L344.06 165.21M344.06 165.21L333.95 161.03M333.95 161.03L323.1 159.6"/>
<path d="M286.46 159.6L323.1 159.6"/>
<path d="M286.46 159.6L275.62 161.03M275.62 161.03L265.51 165.21M265.51 165.21L256.83 171.88M256.83 171.88L250.16 180.56M250.16 180.56L245.98 190.66M245.98 190.66L244.55 201.51"/>
<path d="M244.55 201.51L244.55 244.98"/>
<path d="M244.55 244.98L245.98 255.83M245.98 255.83L250.16 265.94M250.16 265.94L256.83 274.62M256.83 274.62L265.51 281.28M265.51 281.28L275.62 285.47M275.62 285.47L286.46 286.89"/>
<path d="M323.1 286.89L286.46 286.89"/>
<path d="M323.1 286.89L333.95 285.47M333.95 285.47L344.06 281.28M344.06 281.28L352.74 274.62M352.74 274.62L359.4 265.94M359.4 265.94L363.59 255.83M363.59 255.83L365.01 244.98"/>
<path d="M278.62 217.81L291.04 217.81"/>
<path d="M278.62 205.39L278.62 217.81"/>
<path d="M278.62 205.39L291.04 205.39"/>
<path d="M291.04 217.81L291.04 205.39"/>
<path d="M330.47 205.39L318.05 205.39"/>
<path d="M330.47 217.81L330.47 205.39"/>
<path d="M224.03 149.04L218.31 158.94"/>
<path d="M218.31 158.94L218.31 182.39"/>
<path d="M213.66 187.05L215.98 186.43M215.98 186.43L217.69 184.72M217.69 184.72L218.31 182.39"/>
<path d="M213.66 187.05L207.39 187.05"/>
<path d="M207.39 187.05L204.13 187.93M204.13 187.93L201.75 190.31"/>
<path d="M201.75 190.31L194.91 202.15"/>
<path d="M194.91 202.15L194.13 206.54M194.13 206.54L196.36 210.41M196.36 210.41L200.56 211.93"/>
<path d="M200.56 211.93L214.41 211.93"/>
<path d="M219.07 216.59L217.7 213.3M217.7 213.3L214.41 211.93"/>
<path d="M219.07 216.59L219.07 249.66"/>
<path d="M219.07 249.66L220.63 263.54M220.63 263.54L225.25 276.73M225.25 276.73L232.68 288.57M232.68 288.57L242.56 298.45M242.56 298.45L254.4 305.88M254.4 305.88L267.59 310.5M267.59 310.5L281.47 312.06"/>
<path d="M281.47 312.06L327.47 312.06"/>
<path d="M327.47 312.06L341.35 310.5M341.35 310.5L354.54 305.88M354.54 305.88L366.38 298.45M366.38 298.45L376.26 288.57M376.26 288.57L383.69 276.73M383.69 276.73L388.31 263.54M388.31 263.54L389.87 249.66"/>
<path d="M389.87 249.66L389.87 216.59"/>
<path d="M394.53 211.93L391.24 213.3M391.24 213.3L389.87 216.59"/>
<path d="M394.53 211.93L408.38 211.93"/>
<path d="M408.38 211.93L412.58 210.41M412.58 210.41L414.81 206.54M414.81 206.54L414.03 202.15"/>
<path d="M414.03 202.15L407.19 190.31"/>
<path d="M407.19 190.31L404.81 187.93M404.81 187.93L401.55 187.05"/>
<path d="M401.55 187.05L395.28 187.05"/>
<path d="M390.63 182.39L391.99 185.69M391.99 185.69L395.28 187.05"/>
<path d="M390.63 182.39L390.63 158.94"/>
<path d="M390.63 158.94L384.91 149.04"/>
<path d="M384.91 149.04L377.91 149.04"/>
<path d="M377.91 149.04L377.91 141.28"/>
<path d="M377.91 141.28L367.64 141.28"/>
<path d="M367.64 141.28L367.64 149.04"/>
<path d="M367.64 149.04L358.8 149.04"/>
<path d="M358.8 149.04L358.8 107.39"/>
<path d="M358.8 107.39L348.72 107.39"/>
<path d="M348.72 107.39L348.72 127.94"/>
<path d="M348.72 127.94L329.37 127.94"/>
<path d="M329.37 127.94L329.37 149.04"/>
<path d="M329.37 149.04L279.57 149.04"/>
<path d="M279.57 149.04L279.57 127.94"/>
<path d="M279.57 127.94L260.22 127.94"/>
<path d="M260.22 127.94L260.22 107.4"/>
<path d="M260.22 107.4L250.14 107.4"/>
<path d="M250.14 107.4L250.14 149.04"/>
<path d="M250.14 149.04L241.3 149.04"/>
<path d="M241.3 149.04L241.3 141.28"/>
<path d="M241.3 141.28L231.03 141.28"/>
<path d="M231.03 141.28L231.03 149.04"/>
<path d="M231.03 149.04L224.03 149.04"/>
<path d="M224.12 149.08L231.58 136.15"/>
<path d="M217.22 158.65L230.21 136.15"/>
<path d="M217.22 158.65L218.31 158.94"/>
<path d="M218.31 182.39L217.22 181.3"/>
<path d="M217.22 181.3L217.22 158.65"/>
<path d="M213.66 187.05L212.56 185.96"/>
<path d="M212.56 185.96L215.86 184.59M215.86 184.59L217.22 181.3"/>
<path d="M207.39 185.96L212.56 185.96"/>
<path d="M207.39 187.05L207.39 185.96"/>
<path d="M207.39 185.96L203.59 186.98M203.59 186.98L200.8 189.77"/>
<path d="M201.75 190.31L200.8 189.77"/>
<path d="M193.96 201.61L200.8 189.77"/>
<path d="M194.91 202.15L193.96 201.61"/>
<path d="M193.96 201.61L193.06 206.73M193.06 206.73L195.66 211.24M195.66 211.24L200.56 213.03"/>
<path d="M200.56 211.93L200.56 213.03"/>
<path d="M214.41 211.93L213.32 213.03"/>
<path d="M213.32 213.03L200.56 213.03"/>
<path d="M217.97 217.68L216.61 214.39M216.61 214.39L213.32 213.03"/>
<path d="M217.97 217.68L219.07 216.59"/>
<path d="M217.97 249.66L217.97 217.68"/>
<path d="M217.97 249.66L219.07 249.66"/>
<path d="M217.97 249.66L219.6 263.94M219.6 263.94L224.4 277.49M224.4 277.49L232.12 289.61M232.12 289.61L242.37 299.69"/>
<path d="M257.9 308.54L257.85 308.51M257.85 308.51L257.08 308.2M257.08 308.2L251.04 305.34M251.04 305.34L242.37 299.69"/>
<path d="M257.9 308.51L269.47 311.91M269.47 311.91L281.47 313.05"/>
<path d="M281.47 312.06L281.47 313.05"/>
<path d="M327.47 313.05L281.47 313.05"/>
<path d="M327.47 312.06L327.47 313.05"/>
<path d="M366.57 299.69L376.82 289.61M376.82 289.61L384.54 277.49M384.54 277.49L389.34 263.94M389.34 263.94L390.97 249.66"/>
<path d="M389.87 249.66L390.97 249.66"/>
<path d="M327.47 313.05L339.47 311.91M339.47 311.91L351.04 308.51"/>
<path d="M366.57 299.69L362.36 302.68M362.36 302.68L354.33 307.17M354.33 307.17L351.75 308.24M351.75 308.24L351.13 308.49M351.13 308.49L351.04 308.54"/>
<path d="M390.97 217.68L389.87 216.59"/>
<path d="M390.97 217.68L390.97 249.66"/>
<path d="M395.62 213.03L392.33 214.39M392.33 214.39L390.97 217.68"/>
<path d="M395.62 213.03L394.53 211.93"/>
<path d="M408.38 213.03L395.62 213.03"/>
<path d="M408.38 213.03L408.38 211.93"/>
<path d="M408.38 213.03L413.28 211.24M413.28 211.24L415.88 206.73M415.88 206.73L414.98 201.61"/>
<path d="M414.03 202.15L414.98 201.61"/>
<path d="M408.14 189.77L414.98 201.61"/>
<path d="M407.19 190.31L408.14 189.77"/>
<path d="M408.14 189.77L405.35 186.98M405.35 186.98L401.55 185.96"/>
<path d="M401.55 185.96L401.55 187.05"/>
<path d="M396.38 185.96L395.28 187.05"/>
<path d="M396.38 185.96L401.55 185.96"/>
<path d="M391.72 181.3L393.09 184.6M393.09 184.6L396.38 185.96"/>
<path d="M391.72 181.3L390.63 182.39"/>
<path d="M391.72 158.65L391.72 181.3"/>
<path d="M390.63 158.94L391.72 158.65"/>
<path d="M378.73 136.15L391.72 158.65"/>
<path d="M377.36 136.15L384.82 149.08"/>
<path d="M359.28 118.27L358.9 118.64"/>
<path d="M359.28 87.04L359.28 118.27"/>
<path d="M359.14 87.18L359.28 87.04"/>
<path d="M359.14 90.28L359.14 87.18"/>
<path d="M358.87 91.87L359.14 90.28"/>
<path d="M358.8 107.39L358.87 91.87"/>
<path d="M348.72 91.87L358.87 91.87"/>
<path d="M347.89 115.46L347.89 102.26"/>
<path d="M347.89 115.46L347.94 127.15"/>
<path d="M347.94 127.15L348.72 127.94"/>
<path d="M348.72 107.39L348.72 92.26"/>
<path d="M347.92 96.05L348.72 92.26"/>
<path d="M347.89 102.26L347.92 96.05"/>
<path d="M327.76 127.15L347.94 127.15"/>
<path d="M327.84 127.24L327.76 127.15"/>
<path d="M329.37 127.94L327.98 127.24"/>
<path d="M327.71 102.26L327.71 112.38"/>
<path d="M327.76 96.05L327.71 102.26"/>
<path d="M327.76 96.05L329.38 92.26"/>
<path d="M329.38 92.26L330.05 90.28"/>
<path d="M278.89 90.29L279.56 92.26"/>
<path d="M279.56 92.26L281.18 96.05"/>
<path d="M281.23 102.26L281.19 96.05"/>
<path d="M281.23 112.38L281.23 102.26"/>
<path d="M279.57 127.94L281.03 127.24"/>
<path d="M260.22 127.94L261 127.15"/>
<path d="M281.03 127.24L281.18 127.15"/>
<path d="M261 127.15L281.18 127.15"/>
<path d="M261.05 115.46L261.05 102.26"/>
<path d="M261.05 102.26L261.03 96.06"/>
<path d="M261.03 96.06L260.22 92.27"/>
<path d="M260.22 107.4L260.22 92.27"/>
<path d="M261 127.15L261.05 115.46"/>
<path d="M260.22 91.88L250.07 91.88"/>
<path d="M250.13 107.4L250.08 91.88"/>
<path d="M250.07 91.88L249.8 90.29"/>
<path d="M249.8 90.29L249.8 87.18"/>
<path d="M249.8 87.18L249.66 87.04"/>
<path d="M249.66 87.04L249.66 118.27"/>
<path d="M250.04 118.64L249.66 118.27"/>
<path d="M410.32 154.96L410.32 72.09"/>
<path d="M198.62 151.81L198.62 154.96"/>
<path d="M198.62 72.09L198.62 151.81"/>
<path d="M230.21 136.15L239.76 136.15"/>
<path d="M199.73 74.32L199.73 166.02"/>
<path d="M199.73 166.02L191.53 171.15M191.53 171.15L185.4 178.64"/>
<path d="M185.4 178.64L178.57 190.48"/>
<path d="M178.57 190.48L175.16 199.45M175.16 199.45L174.78 209.04M174.78 209.04L177.47 218.26M177.47 218.26L182.93 226.15M182.93 226.15L190.62 231.9M190.62 231.9L199.73 234.91"/>
<path d="M199.73 234.91L199.73 243.3"/>
<path d="M199.73 243.3L201.59 261.19M201.59 261.19L207.09 278.32M207.09 278.32L216 293.94M216 293.94L227.93 307.4M227.93 307.4L242.37 318.11"/>
<path d="M242.37 318.11L242.37 299.69"/>
<path d="M239.76 136.15L239.76 124.51"/>
<path d="M239.76 124.51L226.12 124.51"/>
<path d="M218.36 116.75L219.4 120.63M219.4 120.63L222.24 123.47M222.24 123.47L226.12 124.51"/>
<path d="M218.36 116.75L218.36 102.07"/>
<path d="M218.36 102.07L225.58 102.07"/>
<path d="M225.58 102.07L227.52 101.55M227.52 101.55L228.94 100.13M228.94 100.13L229.46 98.19"/>
<path d="M229.46 98.19L229.46 88.99"/>
<path d="M229.46 88.99L228.33 86.25M228.33 86.25L225.58 85.11"/>
<path d="M225.58 85.11L222.24 85.11"/>
<path d="M218.36 81.23L219.49 83.97M219.49 83.97L222.24 85.11"/>
<path d="M218.36 81.23L218.36 73.39"/>
<path d="M232.33 59.42L225.34 61.29M225.34 61.29L220.23 66.4M220.23 66.4L218.36 73.39"/>
<path d="M376.62 59.42L232.33 59.42"/>
<path d="M386.51 63.52L381.97 60.49M381.97 60.49L376.62 59.42"/>
<path d="M390.59 73.39L389.53 68.05M389.53 68.05L386.51 63.52"/>
<path d="M390.59 73.39L390.59 81.23"/>
<path d="M386.71 85.11L389.46 83.97M389.46 83.97L390.59 81.23"/>
<path d="M386.71 85.11L383.36 85.11"/>
<path d="M383.36 85.11L380.61 86.25M380.61 86.25L379.48 88.99"/>
<path d="M379.48 88.99L379.48 98.19"/>
<path d="M379.48 98.18L380 100.13M380 100.13L381.42 101.55M381.42 101.55L383.36 102.07"/>
<path d="M383.36 102.07L390.59 102.07"/>
<path d="M390.59 102.07L390.59 116.75"/>
<path d="M382.83 124.51L386.71 123.47M386.71 123.47L389.55 120.63M389.55 120.63L390.59 116.75"/>
<path d="M382.83 124.51L369.18 124.51"/>
<path d="M369.18 124.51L369.18 136.15"/>
<path d="M369.18 136.15L378.73 136.15"/>
<path d="M366.57 299.69L366.57 318.11"/>
<path d="M366.57 318.11L381.01 307.4M381.01 307.4L392.94 293.94M392.94 293.94L401.85 278.32M401.85 278.32L407.35 261.19M407.35 261.19L409.21 243.3"/>
<path d="M409.21 243.3L409.21 234.91"/>
<path d="M409.21 234.91L418.32 231.9M418.32 231.9L426.01 226.15M426.01 226.15L431.47 218.26M431.47 218.26L434.16 209.04M434.16 209.04L433.78 199.45M433.78 199.45L430.37 190.48"/>
<path d="M430.37 190.48L423.54 178.64"/>
<path d="M423.54 178.64L417.41 171.15M417.41 171.15L409.21 166.02"/>
<path d="M409.21 166.02L409.21 74.32"/>
<path d="M409.21 74.32L407.69 64.73M407.69 64.73L403.28 56.08M403.28 56.08L396.41 49.21M396.41 49.21L387.76 44.8M387.76 44.8L378.17 43.28"/>
<path d="M378.17 43.28L230.77 43.28"/>
<path d="M230.77 43.28L221.18 44.8M221.18 44.8L212.53 49.21M212.53 49.21L205.66 56.08M205.66 56.08L201.25 64.73M201.25 64.73L199.73 74.32"/>
<path d="M242.37 318.11L257.9 325.42"/>
<path d="M257.9 325.43L257.9 308.54"/>
<path d="M257.9 325.48L272.02 329.11M272.02 329.11L286.56 330.34"/>
<path d="M322.38 330.34L286.56 330.34"/>
<path d="M322.38 330.34L336.92 329.11M336.92 329.11L351.04 325.48"/>
<path d="M351.04 308.54L351.04 325.43"/>
<path d="M351.04 325.42L366.57 318.11"/>
<path d="M359.28 118.27L374.33 118.27"/>
<path d="M358.8 71.52L250.14 71.52"/>
<path d="M250.14 71.52L244.2 72.7M244.2 72.7L239.16 76.07M239.16 76.07L235.8 81.1M235.8 81.1L234.61 87.04"/>
<path d="M234.61 87.04L234.61 118.27"/>
<path d="M249.66 118.27L234.61 118.27"/>
<path d="M257.42 79.28L253.54 80.32M253.54 80.32L250.7 83.16M250.7 83.16L249.66 87.04"/>
<path d="M351.52 79.28L257.42 79.28"/>
<path d="M359.28 87.04L358.24 83.16M358.24 83.16L355.4 80.32M355.4 80.32L351.52 79.28"/>
<path d="M374.33 118.27L374.33 87.04"/>
<path d="M374.33 87.04L373.15 81.1M373.15 81.1L369.78 76.07M369.78 76.07L364.74 72.7M364.74 72.7L358.8 71.52"/>
<path d="M351.38 79.42L351.52 79.28"/>
<path d="M359.14 87.18L358.1 83.3M358.1 83.3L355.26 80.46M355.26 80.46L351.38 79.42"/>
<path d="M351.38 79.42L257.56 79.42"/>
<path d="M257.56 79.42L253.68 80.46M253.68 80.46L250.84 83.3M250.84 83.3L249.8 87.18"/>
<path d="M249.8 90.29L278.89 90.29"/>
<path d="M278.89 90.29L330.05 90.28"/>
<path d="M330.05 90.28L359.14 90.28"/>
<path d="M348.72 92.26L348.72 91.87"/>
<path d="M327.71 112.38L281.23 112.38"/>
<path d="M281.23 102.26L261.05 102.26"/>
<path d="M261.05 115.46L281.23 115.46"/>
<path d="M281.23 115.46L281.23 120.89"/>
<path d="M281.23 120.89L327.71 120.89"/>
<path d="M327.71 120.89L327.71 115.46"/>
<path d="M327.71 115.46L347.89 115.46"/>
<path d="M347.89 102.26L327.71 102.26"/>
<path d="M327.71 115.46L327.76 127.15"/>
<path d="M347.92 96.05L327.76 96.05"/>
<path d="M327.91 127.24L327.85 132.68"/>
<path d="M327.71 120.89L327.76 132.59"/>
<path d="M327.85 132.68L281.09 132.68"/>
<path d="M281.09 132.68L281.03 127.24"/>
<path d="M327.76 106.17L281.18 106.17"/>
<path d="M260.22 92.26L260.22 91.88"/>
<path d="M281.18 96.05L261.03 96.06"/>
<path d="M281.23 120.89L281.18 132.59"/>
<path d="M281.18 127.15L281.23 115.46"/>
<path d="M257.56 79.42L257.42 79.28"/>
<path d="M410.32 72.09L408.79 62.5M408.79 62.5L404.38 53.85M404.38 53.85L397.51 46.99M397.51 46.99L388.86 42.58M388.86 42.58L379.27 41.06"/>
<path d="M409.21 74.32L410.32 72.09"/>
<path d="M409.21 166.02L410.25 165.34"/>
<path d="M410.25 165.34L410.25 163.79"/>
<path d="M410.28 154.93L410.25 163.79"/>
<path d="M410.28 154.93L423.6 165.41"/>
<path d="M435.48 189.84L434.11 180.69M434.11 180.69L430.09 172.35M430.09 172.35L423.8 165.57"/>
<path d="M423.8 165.57L423.63 165.44"/>
<path d="M421.59 255.32L429.02 248.42M429.02 248.42L433.82 239.48M433.82 239.48L435.48 229.47"/>
<path d="M421.59 255.32L414.33 261.25M414.33 261.25L408.41 268.51M408.41 268.51L404.06 276.81"/>
<path d="M323.39 331.34L340.5 329.64M340.5 329.64L356.94 324.61M356.94 324.61L372.07 316.43M372.07 316.43L385.3 305.44M385.3 305.44L396.1 292.06M396.1 292.06L404.05 276.81"/>
<path d="M285.55 331.34L323.39 331.34"/>
<path d="M204.89 276.81L212.84 292.06M212.84 292.06L223.64 305.44M223.64 305.44L236.87 316.43M236.87 316.43L252 324.61M252 324.61L268.44 329.64M268.44 329.64L285.55 331.34"/>
<path d="M204.89 276.81L200.53 268.51M200.53 268.51L194.61 261.25M194.61 261.25L187.35 255.32"/>
<path d="M173.46 229.47L175.13 239.48M175.13 239.48L179.93 248.41M179.93 248.41L187.35 255.32"/>
<path d="M173.46 229.47L173.46 189.84"/>
<path d="M185.31 165.44L178.93 172.24M178.93 172.24L174.86 180.62M174.86 180.62L173.46 189.84"/>
<path d="M435.48 189.84L435.48 229.47"/>
<path d="M198.66 154.93L185.34 165.41"/>
<path d="M198.62 72.09L199.73 74.32"/>
<path d="M198.69 163.79L198.66 154.93"/>
<path d="M198.69 165.34L198.69 163.79"/>
<path d="M198.69 165.34L199.73 166.02"/>
<path d="M229.67 41.06L220.07 42.58M220.07 42.58L211.42 46.99M211.42 46.99L204.55 53.86M204.55 53.86L200.14 62.52M200.14 62.52L198.62 72.11"/>
<path d="M198.69 165.34L190.58 170.6M190.58 170.6L184.5 178.12"/>
<path d="M185.4 178.64L184.5 178.12"/>
<path d="M177.67 189.96L184.5 178.12"/>
<path d="M177.67 189.96L178.57 190.48"/>
<path d="M177.39 190.45L177.67 189.96"/>
<path d="M177.39 190.45L174.5 197.69M174.5 197.69L173.5 205.41"/>
<path d="M173.48 205.41L174.58 213.51M174.58 213.51L177.76 221.05M177.76 221.05L182.8 227.49"/>
<path d="M182.8 227.49L190.13 232.81M190.13 232.81L198.69 235.79"/>
<path d="M198.69 235.79L199.73 234.91"/>
<path d="M198.69 235.79L198.69 244.34"/>
<path d="M198.69 244.34L199.73 243.3"/>
<path d="M286.56 330.34L285.55 331.34"/>
<path d="M198.69 244.34L199.08 252.61"/>
<path d="M199.08 252.61L201.14 264.91M201.14 264.91L204.91 276.79"/>
<path d="M204.91 276.79L204.89 276.81"/>
<path d="M232.33 60.48L232.33 59.42"/>
<path d="M232.33 60.48L225.34 62.35M225.34 62.35L220.23 67.46M220.23 67.46L218.36 74.45"/>
<path d="M377.68 60.48L376.62 59.42"/>
<path d="M232.33 60.48L377.68 60.48"/>
<path d="M386.99 64.03L382.66 61.4M382.66 61.4L377.68 60.48"/>
<path d="M323.39 331.34L322.38 330.34"/>
<path d="M404.05 276.81L404.02 276.79"/>
<path d="M404.03 276.79L407.8 264.91M407.8 264.91L409.86 252.61"/>
<path d="M409.86 252.61L410.25 244.34"/>
<path d="M410.25 244.34L409.21 243.3"/>
<path d="M410.25 235.79L410.25 244.34"/>
<path d="M410.25 235.79L409.21 234.91"/>
<path d="M410.25 235.79L418.81 232.81M418.81 232.81L426.14 227.49"/>
<path d="M426.14 227.49L431.17 221.04M431.17 221.04L434.35 213.51M434.35 213.51L435.46 205.41"/>
<path d="M435.44 205.41L434.42 197.69M434.42 197.69L431.56 190.45"/>
<path d="M431.27 189.96L431.55 190.45"/>
<path d="M430.37 190.48L431.27 189.96"/>
<path d="M431.27 189.96L424.44 178.12"/>
<path d="M424.44 178.12L423.54 178.64"/>
<path d="M424.44 178.12L418.36 170.6M418.36 170.6L410.25 165.34"/>
<path d="M379.27 41.06L378.17 43.28"/>
<path d="M379.27 41.06L229.67 41.06"/>
<path d="M230.77 43.28L229.67 41.06"/>
<path d="M281.18 132.59L327.76 132.59"/>
<path d="M431.55 189.8L430.86 185.3M430.86 185.3L428.98 181.15M428.98 181.15L426.23 177.38M426.23 177.38L424.05 175.06M424.05 175.06L419.28 170.9"/>
<path d="M410.25 163.79L419.28 170.9"/>
<path d="M431.55 190.45L431.55 189.8"/>
<path d="M423.6 165.41L419.28 170.9"/>
<path d="M435.43 189.8L434.04 180.58M434.04 180.58L429.97 172.2M429.97 172.2L423.6 165.41"/>
<path d="M421.59 255.32L421.57 255.3"/>
<path d="M421.57 255.3L429 248.4M429 248.4L433.8 239.47M433.8 239.47L435.46 229.47"/>
<path d="M421.57 255.3L414.3 261.23M414.3 261.23L408.38 268.49M408.38 268.49L404.02 276.79"/>
<path d="M204.92 276.79L200.56 268.49M200.56 268.49L194.64 261.23M194.64 261.23L187.37 255.3"/>
<path d="M187.35 255.32L187.37 255.3"/>
<path d="M173.48 229.47L175.14 239.47M175.14 239.47L179.94 248.4M179.94 248.4L187.37 255.3"/>
<path d="M173.48 229.47L173.48 205.41"/>
<path d="M173.51 205.41L173.51 189.8"/>
<path d="M185.34 165.41L178.97 172.2M178.97 172.2L174.9 180.58M174.9 180.58L173.51 189.8"/>
<path d="M435.43 189.8L435.43 205.41"/>
<path d="M435.46 205.41L435.46 229.47"/>
<path d="M198.69 163.79L189.66 170.9"/>
<path d="M189.66 170.9L185.34 165.41"/>
<path d="M177.39 189.8L177.39 190.45"/>
<path d="M189.66 170.9L184.89 175.06M184.89 175.06L182.71 177.38M182.71 177.38L179.96 181.15M179.96 181.15L178.08 185.3M178.08 185.3L177.39 189.8"/>
<path d="M173.51 189.8L177.39 189.8"/>
<path d="M182.8 227.49L182.8 229.47"/>
<path d="M182.8 229.47L173.48 229.47"/>
<path d="M182.81 229.47L183.97 236.46M183.97 236.46L187.33 242.7M187.33 242.7L192.51 247.53"/>
<path d="M199.08 252.61L192.51 247.53"/>
<path d="M187.37 255.3L192.51 247.53"/>
<path d="M421.57 255.3L416.43 247.53"/>
<path d="M416.43 247.53L409.86 252.61"/>
<path d="M416.43 247.53L421.62 242.71M421.62 242.71L424.98 236.47M424.98 236.47L426.14 229.47"/>
<path d="M426.14 227.49L426.14 229.47"/>
<path d="M435.46 229.47L426.14 229.47"/>
<path d="M431.55 189.8L435.43 189.8"/>
<path d="M435.48 189.84L434.1 180.69M434.1 180.69L430.09 172.35M430.09 172.35L423.8 165.57"/>
<path d="M421.59 255.32L429.01 248.41M429.01 248.41L433.81 239.48M433.81 239.48L435.48 229.47"/>
<path d="M421.59 255.32L414.33 261.25M414.33 261.25L408.41 268.51M408.41 268.51L404.05 276.81"/>
<path d="M323.39 331.34L340.5 329.64M340.5 329.64L356.94 324.6M356.94 324.6L372.07 316.43M372.07 316.43L385.3 305.44M385.3 305.44L396.1 292.05M396.1 292.05L404.05 276.81"/>
<path d="M285.55 331.34L323.39 331.34"/>
<path d="M204.89 276.81L212.84 292.06M212.84 292.06L223.65 305.44M223.65 305.44L236.87 316.43M236.87 316.43L252 324.6M252 324.6L268.44 329.64M268.44 329.64L285.55 331.33"/>
<path d="M204.89 276.81L200.53 268.51M200.53 268.51L194.61 261.25M194.61 261.25L187.35 255.32"/>
<path d="M173.46 229.47L175.13 239.48M175.13 239.48L179.93 248.41M179.93 248.41L187.35 255.32"/>
<path d="M173.46 189.84L173.46 229.47"/>
<path d="M185.31 165.44L178.93 172.24M178.93 172.24L174.86 180.62M174.86 180.62L173.46 189.84"/>
<path d="M435.48 229.47L435.48 189.84"/>
</g>
</g>
</svg>
