<?xml version="1.0" standalone="no"?><svg xmlns="http://www.w3.org/2000/svg" width="600.000" height="450.000" viewBox="0.0 0.0 600.000 450.000" version="1.1">
<title>Acme Converter - Post-processed with EDS-Designer: 14.44 (info@symca.com)</title>
<desc>Acme Converter - Post-processed with EDS-Designer: 14.44 (info@symca.com)</desc>
<g id="EDS_STYLE_GROUP" fill="none" stroke="black" stroke-width="1.0">
<g id="0" display="visible">
<path d="M250.6 350.02L254.64 371.25M251.61 350.02L254.64 366.19M258.69 350.02L254.64 371.25M258.69 350.02L262.73 371.25M259.7 350.02L262.73 366.19M266.78 350.02L262.73 371.25M247.56 350.02L254.64 350.02M263.74 350.02L269.81 350.02M274.86 371.25L274.86 350.02M275.87 350.02L275.87 371.25M288.01 371.25L288.01 350.02M289.02 350.02L289.02 371.25M271.83 350.02L278.91 350.02M284.97 350.02L292.05 350.02M275.87 360.13L288.01 360.13M271.83 371.25L278.91 371.25M284.97 371.25L292.05 371.25M299.13 371.25L299.13 350.02M300.14 350.02L300.14 371.25M296.1 350.02L303.17 350.02M296.1 371.25L303.17 371.25M314.3 371.25L314.3 350.02M315.31 350.02L315.31 371.25M308.23 350.02L307.22 356.08M307.22 356.08L307.22 350.02M307.22 350.02L322.38 350.02M322.38 350.02L322.38 356.08M322.38 356.08L321.37 350.02M311.26 371.25L318.34 371.25M329.46 371.25L329.46 350.02M330.47 350.02L330.47 371.25M336.54 356.08L336.54 364.17M326.43 350.02L342.61 350.02M342.61 350.02L342.61 356.08M342.61 356.08L341.59 350.02M330.47 360.13L336.54 360.13M326.43 371.25L342.61 371.25M342.61 371.25L342.61 365.18M342.61 365.18L341.59 371.25"/>
<path d="M430.86 300.25L431.37 300.24M431.37 300.24L431.88 300.23M431.88 300.23L432.4 300.2M432.4 300.2L432.91 300.17M432.91 300.17L433.42 300.13M433.42 300.13L433.93 300.07M433.93 300.07L434.44 300.01M434.44 300.01L434.95 299.93M434.95 299.93L435.46 299.85M435.46 299.85L435.96 299.75M435.96 299.75L436.47 299.64M436.47 299.64L436.97 299.52M436.97 299.52L437.46 299.39M437.46 299.39L437.96 299.25M437.96 299.25L438.45 299.09M438.45 299.09L438.93 298.92M438.93 298.92L439.41 298.73M439.41 298.73L439.89 298.53M439.89 298.53L440.35 298.31M440.35 298.31L440.81 298.08M440.81 298.08L441.26 297.83M441.26 297.83L441.69 297.55M441.69 297.55L442.11 297.26M442.11 297.26L442.32 297.1M442.32 297.1L442.52 296.94M442.52 296.94L442.71 296.77M442.71 296.77L442.9 296.6M442.9 296.6L443.08 296.42M443.08 296.42L443.26 296.23M443.26 296.23L443.43 296.03M443.43 296.03L443.59 295.83M443.59 295.83L443.73 295.62M443.73 295.62L443.87 295.4M443.87 295.4L444 295.18M444 295.18L444.11 294.95M444.11 294.95L444.21 294.71M444.21 294.71L444.29 294.47M444.29 294.47L444.36 294.22M444.36 294.22L444.41 293.97M444.41 293.97L444.44 293.71M444.44 293.71L444.44 293.45"/>
<path d="M145.49 293.45L145.5 293.71M145.5 293.71L145.53 293.97M145.53 293.97L145.58 294.22M145.58 294.22L145.64 294.47M145.64 294.47L145.73 294.71M145.73 294.71L145.82 294.95M145.82 294.95L145.94 295.18M145.94 295.18L146.06 295.4M146.06 295.4L146.2 295.62M146.2 295.62L146.35 295.83M146.35 295.83L146.51 296.03M146.51 296.03L146.68 296.23M146.68 296.23L146.85 296.42M146.85 296.42L147.03 296.6M147.03 296.6L147.22 296.77M147.22 296.77L147.42 296.94M147.42 296.94L147.62 297.1M147.62 297.1L147.82 297.26M147.82 297.26L148.24 297.55M148.24 297.55L148.68 297.83M148.68 297.83L149.13 298.08M149.13 298.08L149.58 298.31M149.58 298.31L150.05 298.53M150.05 298.53L150.52 298.73M150.52 298.73L151 298.92M151 298.92L151.49 299.09M151.49 299.09L151.98 299.25M151.98 299.25L152.47 299.39M152.47 299.39L152.97 299.52M152.97 299.52L153.47 299.64M153.47 299.64L153.97 299.75M153.97 299.75L154.48 299.85M154.48 299.85L154.98 299.93M154.98 299.93L155.49 300.01M155.49 300.01L156 300.07M156 300.07L156.51 300.13M156.51 300.13L157.03 300.17M157.03 300.17L157.54 300.2M157.54 300.2L158.05 300.23M158.05 300.23L158.57 300.24M158.57 300.24L159.08 300.25"/>
<path d="M195.09 328.78L195.78 321.99"/>
<path d="M394.85 328.78L394.16 321.99"/>
<path d="M161.8 316.44L163.33 320.74M163.33 320.74L167.23 323.1"/>
<path d="M422.7 323.1L426.61 320.74M426.61 320.74L428.14 316.44"/>
<path d="M152.29 93.7L148.89 94.61M148.89 94.61L146.4 97.1M146.4 97.1L145.49 100.49"/>
<path d="M220.23 100.49L218.93 96.5M218.93 96.5L215.54 94.03M215.54 94.03L211.34 94.03M211.34 94.03L207.94 96.5M207.94 96.5L206.64 100.49"/>
<path d="M444.44 100.49L443.53 97.1M443.53 97.1L441.05 94.61M441.05 94.61L437.65 93.7"/>
<path d="M383.3 100.49L382 96.5M382 96.5L378.6 94.03M378.6 94.03L374.4 94.03M374.4 94.03L371 96.5M371 96.5L369.71 100.49"/>
<path d="M357.48 93.7L356.2 88.94M356.2 88.94L352.72 85.46M352.72 85.46L347.96 84.19"/>
<path d="M241.97 84.19L237.22 85.46M237.22 85.46L233.73 88.94M233.73 88.94L232.46 93.7"/>
<path d="M357.48 89.62L356.02 84.19M356.02 84.19L352.04 80.21M352.04 80.21L346.61 78.75"/>
<path d="M243.33 78.75L237.9 80.21M237.9 80.21L233.92 84.19M233.92 84.19L232.46 89.62"/>
<path d="M145.49 293.45L147.31 300.25M147.31 300.25L152.29 305.22M152.29 305.22L159.08 307.04"/>
<path d="M430.86 307.04L437.65 305.22M437.65 305.22L442.62 300.25M442.62 300.25L444.44 293.45"/>
<path d="M417.27 93.7L424.06 100.49"/>
<path d="M437.65 294.81L444.44 288.02"/>
<path d="M437.65 137.18L444.44 143.98"/>
<path d="M421.34 288.02L437.65 271.71"/>
<path d="M444.44 293.45L444.44 100.49"/>
<path d="M430.86 137.18L424.06 130.39"/>
<path d="M384.65 302.97L380.58 307.04"/>
<path d="M427.46 252.01L432.89 245.21"/>
<path d="M437.65 137.18L437.65 93.7"/>
<path d="M437.65 226.19L437.65 271.71"/>
<path d="M437.65 143.98L437.65 213.96"/>
<path d="M436.29 213.96L436.29 226.19"/>
<path d="M432.89 199.01L432.89 174.55"/>
<path d="M432.89 269.67L432.89 245.21"/>
<path d="M430.86 137.18L430.86 100.49"/>
<path d="M430.86 307.04L430.86 294.81"/>
<path d="M428.14 316.44L428.14 307.04"/>
<path d="M427.46 154.85L427.46 142.62"/>
<path d="M427.46 192.22L427.46 181.35"/>
<path d="M427.46 225.51L427.46 213.28"/>
<path d="M427.46 262.88L427.46 252.01"/>
<path d="M396.88 130.39L400.28 133.79"/>
<path d="M243.33 78.75L346.61 78.75"/>
<path d="M347.96 84.19L241.97 84.19"/>
<path d="M370.39 305L372.42 302.97"/>
<path d="M400.28 262.88L394.85 269.67"/>
<path d="M424.06 171.15L424.06 154.85"/>
<path d="M424.06 241.82L424.06 225.51"/>
<path d="M424.06 100.49L424.06 130.39"/>
<path d="M421.34 316.44L421.34 307.04"/>
<path d="M421.34 288.02L421.34 294.81"/>
<path d="M417.27 93.7L417.27 137.18"/>
<path d="M427.46 192.22L432.89 199.01"/>
<path d="M350.68 95.06L357.48 101.85"/>
<path d="M376.5 93.7L437.65 93.7"/>
<path d="M152.29 93.7L213.44 93.7"/>
<path d="M357.48 93.7L232.46 93.7"/>
<path d="M312.63 95.06L350.68 95.06"/>
<path d="M239.25 95.06L277.3 95.06"/>
<path d="M372.42 288.02L368.35 292.09"/>
<path d="M410.47 137.18L410.47 93.7"/>
<path d="M403.68 130.39L403.68 100.49"/>
<path d="M403.68 225.51L403.68 241.82"/>
<path d="M403.68 154.85L403.68 171.15"/>
<path d="M421.34 316.44L422.7 323.1"/>
<path d="M400.28 181.35L394.85 174.55"/>
<path d="M333.02 95.06L339.81 101.85"/>
<path d="M364.27 137.18L357.48 130.39"/>
<path d="M424.06 100.49L444.44 100.49"/>
<path d="M369.71 100.49L403.68 100.49"/>
<path d="M186.26 100.49L220.23 100.49"/>
<path d="M145.49 100.49L165.87 100.49"/>
<path d="M250.13 101.85L239.25 101.85"/>
<path d="M350.68 101.85L339.81 101.85"/>
<path d="M379.9 252.01L385.33 245.21"/>
<path d="M400.28 154.85L400.28 142.62"/>
<path d="M400.28 252.01L400.28 262.88"/>
<path d="M400.28 213.28L400.28 225.51"/>
<path d="M400.28 181.35L400.28 192.22"/>
<path d="M396.88 130.39L396.88 100.49"/>
<path d="M394.85 245.21L394.85 269.67"/>
<path d="M394.85 174.55L394.85 199.01"/>
<path d="M333.02 111.36L339.81 118.16"/>
<path d="M277.3 111.36L256.92 111.36"/>
<path d="M333.02 111.36L312.63 111.36"/>
<path d="M270.51 118.16L250.13 118.16"/>
<path d="M339.81 118.16L319.43 118.16"/>
<path d="M277.3 119.52L312.63 119.52"/>
<path d="M427.46 181.35L432.89 174.55"/>
<path d="M352.72 262.88L347.28 269.67"/>
<path d="M385.33 199.01L385.33 174.55"/>
<path d="M385.33 269.67L385.33 245.21"/>
<path d="M384.65 292.09L384.65 302.97"/>
<path d="M383.3 137.18L383.3 100.49"/>
<path d="M380.58 302.97L380.58 288.02"/>
<path d="M379.9 154.85L379.9 142.62"/>
<path d="M379.9 192.22L379.9 181.35"/>
<path d="M379.9 225.51L379.9 213.28"/>
<path d="M379.9 262.88L379.9 252.01"/>
<path d="M376.5 171.15L376.5 154.85"/>
<path d="M376.5 241.82L376.5 225.51"/>
<path d="M379.9 192.22L385.33 199.01"/>
<path d="M312.63 111.36L319.43 118.16"/>
<path d="M383.3 130.39L396.88 130.39"/>
<path d="M193.05 130.39L206.64 130.39"/>
<path d="M400.28 192.22L394.85 199.01"/>
<path d="M372.42 288.02L372.42 302.97"/>
<path d="M369.71 137.18L369.71 100.49"/>
<path d="M368.35 302.97L368.35 292.09"/>
<path d="M427.46 262.88L432.89 269.67"/>
<path d="M352.72 181.35L347.28 174.55"/>
<path d="M312.63 137.18L318.07 142.62"/>
<path d="M172.67 137.18L152.29 137.18"/>
<path d="M225.67 137.18L179.46 137.18"/>
<path d="M312.63 137.18L277.3 137.18"/>
<path d="M410.47 137.18L364.27 137.18"/>
<path d="M437.65 137.18L417.27 137.18"/>
<path d="M352.72 142.62L379.9 142.62"/>
<path d="M305.16 142.62L332.34 142.62"/>
<path d="M257.6 142.62L284.78 142.62"/>
<path d="M210.04 142.62L237.22 142.62"/>
<path d="M189.66 142.62L162.48 142.62"/>
<path d="M427.46 142.62L400.28 142.62"/>
<path d="M162.48 143.98L152.29 143.98"/>
<path d="M210.04 143.98L189.66 143.98"/>
<path d="M239.25 143.98L237.22 143.98"/>
<path d="M305.16 143.98L284.78 143.98"/>
<path d="M352.72 143.98L350.68 143.98"/>
<path d="M400.28 143.98L379.9 143.98"/>
<path d="M437.65 143.98L427.46 143.98"/>
<path d="M437.65 143.98L441.05 140.58"/>
<path d="M332.34 252.01L337.77 245.21"/>
<path d="M357.48 130.39L357.48 89.62"/>
<path d="M356.12 225.51L356.12 241.82"/>
<path d="M356.12 154.85L356.12 171.15"/>
<path d="M352.72 154.85L352.72 142.62"/>
<path d="M352.72 252.01L352.72 262.88"/>
<path d="M352.72 213.28L352.72 225.51"/>
<path d="M352.72 181.35L352.72 192.22"/>
<path d="M350.68 101.85L350.68 143.98"/>
<path d="M400.28 252.01L394.85 245.21"/>
<path d="M424.06 154.85L427.46 154.85"/>
<path d="M400.28 154.85L403.68 154.85"/>
<path d="M376.5 154.85L379.9 154.85"/>
<path d="M352.72 154.85L356.12 154.85"/>
<path d="M328.94 154.85L332.34 154.85"/>
<path d="M305.16 154.85L308.56 154.85"/>
<path d="M281.38 154.85L284.78 154.85"/>
<path d="M257.6 154.85L261 154.85"/>
<path d="M233.82 154.85L237.22 154.85"/>
<path d="M210.04 154.85L213.44 154.85"/>
<path d="M186.26 154.85L189.66 154.85"/>
<path d="M162.48 154.85L165.87 154.85"/>
<path d="M379.9 181.35L385.33 174.55"/>
<path d="M305.16 262.88L299.72 269.67"/>
<path d="M347.96 95.06L347.96 84.19"/>
<path d="M347.28 245.21L347.28 269.67"/>
<path d="M347.28 174.55L347.28 199.01"/>
<path d="M346.61 78.75L346.61 84.19"/>
<path d="M339.81 101.85L339.81 118.16"/>
<path d="M337.77 199.01L337.77 174.55"/>
<path d="M337.77 269.67L337.77 245.21"/>
<path d="M332.34 192.22L337.77 199.01"/>
<path d="M379.9 262.88L385.33 269.67"/>
<path d="M235.86 98.45L239.25 101.85"/>
<path d="M237.22 142.96L239.25 143.98"/>
<path d="M225.67 137.18L236.54 142.62"/>
<path d="M403.68 171.15L424.06 171.15"/>
<path d="M356.12 171.15L376.5 171.15"/>
<path d="M308.56 171.15L328.94 171.15"/>
<path d="M261 171.15L281.38 171.15"/>
<path d="M213.44 171.15L233.82 171.15"/>
<path d="M165.87 171.15L186.26 171.15"/>
<path d="M195.09 174.55L157.04 174.55"/>
<path d="M242.65 174.55L204.6 174.55"/>
<path d="M290.21 174.55L252.16 174.55"/>
<path d="M337.77 174.55L299.72 174.55"/>
<path d="M385.33 174.55L347.28 174.55"/>
<path d="M432.89 174.55L394.85 174.55"/>
<path d="M352.72 192.22L347.28 199.01"/>
<path d="M333.02 95.06L333.02 111.36"/>
<path d="M332.34 154.85L332.34 142.62"/>
<path d="M332.34 192.22L332.34 181.35"/>
<path d="M332.34 225.51L332.34 213.28"/>
<path d="M332.34 262.88L332.34 252.01"/>
<path d="M328.94 171.15L328.94 154.85"/>
<path d="M328.94 241.82L328.94 225.51"/>
<path d="M305.16 181.35L299.72 174.55"/>
<path d="M352.72 252.01L347.28 245.21"/>
<path d="M189.66 181.35L162.48 181.35"/>
<path d="M237.22 181.35L210.04 181.35"/>
<path d="M284.78 181.35L257.6 181.35"/>
<path d="M332.34 181.35L305.16 181.35"/>
<path d="M379.9 181.35L352.72 181.35"/>
<path d="M427.46 181.35L400.28 181.35"/>
<path d="M403.68 130.39L396.88 137.18"/>
<path d="M221.59 302.97L217.51 307.04"/>
<path d="M284.78 252.01L290.21 245.21"/>
<path d="M332.34 181.35L337.77 174.55"/>
<path d="M350.68 143.98L357.48 130.39"/>
<path d="M319.43 118.16L319.43 142.62"/>
<path d="M312.63 137.18L312.63 95.06"/>
<path d="M400.28 192.22L427.46 192.22"/>
<path d="M352.72 192.22L379.9 192.22"/>
<path d="M305.16 192.22L332.34 192.22"/>
<path d="M257.6 192.22L284.78 192.22"/>
<path d="M210.04 192.22L237.22 192.22"/>
<path d="M162.48 192.22L189.66 192.22"/>
<path d="M394.85 199.01L432.89 199.01"/>
<path d="M347.28 199.01L385.33 199.01"/>
<path d="M299.72 199.01L337.77 199.01"/>
<path d="M252.16 199.01L290.21 199.01"/>
<path d="M204.6 199.01L242.65 199.01"/>
<path d="M157.04 199.01L195.09 199.01"/>
<path d="M207.32 305L209.36 302.97"/>
<path d="M410.47 93.7L403.68 100.49"/>
<path d="M257.6 262.88L252.16 269.67"/>
<path d="M308.56 225.51L308.56 241.82"/>
<path d="M308.56 154.85L308.56 171.15"/>
<path d="M305.16 154.85L305.16 142.62"/>
<path d="M305.16 252.01L305.16 262.88"/>
<path d="M305.16 213.28L305.16 225.51"/>
<path d="M305.16 181.35L305.16 192.22"/>
<path d="M299.72 245.21L299.72 269.67"/>
<path d="M299.72 174.55L299.72 199.01"/>
<path d="M284.78 192.22L290.21 199.01"/>
<path d="M332.34 262.88L337.77 269.67"/>
<path d="M384.65 292.09L380.58 288.02"/>
<path d="M186.26 100.49L179.46 93.7"/>
<path d="M380.58 302.97L382.62 305"/>
<path d="M189.66 213.28L162.48 213.28"/>
<path d="M237.22 213.28L210.04 213.28"/>
<path d="M284.78 213.28L257.6 213.28"/>
<path d="M332.34 213.28L305.16 213.28"/>
<path d="M379.9 213.28L352.72 213.28"/>
<path d="M427.46 213.28L400.28 213.28"/>
<path d="M436.29 213.96L444.44 213.96"/>
<path d="M145.49 213.96L153.64 213.96"/>
<path d="M209.36 288.02L205.28 292.09"/>
<path d="M305.16 192.22L299.72 199.01"/>
<path d="M290.21 199.01L290.21 174.55"/>
<path d="M290.21 269.67L290.21 245.21"/>
<path d="M284.78 154.85L284.78 142.62"/>
<path d="M284.78 192.22L284.78 181.35"/>
<path d="M284.78 225.51L284.78 213.28"/>
<path d="M284.78 262.88L284.78 252.01"/>
<path d="M232.46 130.39L239.25 143.98"/>
<path d="M257.6 181.35L252.16 174.55"/>
<path d="M305.16 252.01L299.72 245.21"/>
<path d="M368.35 302.97L372.42 307.04"/>
<path d="M424.06 225.51L427.46 225.51"/>
<path d="M400.28 225.51L403.68 225.51"/>
<path d="M376.5 225.51L379.9 225.51"/>
<path d="M352.72 225.51L356.12 225.51"/>
<path d="M328.94 225.51L332.34 225.51"/>
<path d="M305.16 225.51L308.56 225.51"/>
<path d="M281.38 225.51L284.78 225.51"/>
<path d="M257.6 225.51L261 225.51"/>
<path d="M233.82 225.51L237.22 225.51"/>
<path d="M210.04 225.51L213.44 225.51"/>
<path d="M186.26 225.51L189.66 225.51"/>
<path d="M162.48 225.51L165.87 225.51"/>
<path d="M436.29 226.19L444.44 226.19"/>
<path d="M145.49 226.19L153.64 226.19"/>
<path d="M237.22 252.01L242.65 245.21"/>
<path d="M284.78 181.35L290.21 174.55"/>
<path d="M281.38 171.15L281.38 154.85"/>
<path d="M281.38 241.82L281.38 225.51"/>
<path d="M277.3 137.18L277.3 95.06"/>
<path d="M193.05 137.18L186.26 130.39"/>
<path d="M352.72 142.96L350.68 143.98"/>
<path d="M364.27 137.18L353.4 142.62"/>
<path d="M350.68 101.85L354.08 98.45"/>
<path d="M210.04 262.88L204.6 269.67"/>
<path d="M257.6 192.22L252.16 199.01"/>
<path d="M270.51 142.62L270.51 118.16"/>
<path d="M261 225.51L261 241.82"/>
<path d="M261 154.85L261 171.15"/>
<path d="M237.22 192.22L242.65 199.01"/>
<path d="M284.78 262.88L290.21 269.67"/>
<path d="M403.68 241.82L424.06 241.82"/>
<path d="M356.12 241.82L376.5 241.82"/>
<path d="M308.56 241.82L328.94 241.82"/>
<path d="M261 241.82L281.38 241.82"/>
<path d="M213.44 241.82L233.82 241.82"/>
<path d="M165.87 241.82L186.26 241.82"/>
<path d="M195.09 245.21L157.04 245.21"/>
<path d="M242.65 245.21L204.6 245.21"/>
<path d="M290.21 245.21L252.16 245.21"/>
<path d="M337.77 245.21L299.72 245.21"/>
<path d="M385.33 245.21L347.28 245.21"/>
<path d="M432.89 245.21L394.85 245.21"/>
<path d="M189.66 252.01L162.48 252.01"/>
<path d="M237.22 252.01L210.04 252.01"/>
<path d="M284.78 252.01L257.6 252.01"/>
<path d="M332.34 252.01L305.16 252.01"/>
<path d="M379.9 252.01L352.72 252.01"/>
<path d="M427.46 252.01L400.28 252.01"/>
<path d="M257.6 252.01L257.6 262.88"/>
<path d="M257.6 213.28L257.6 225.51"/>
<path d="M257.6 181.35L257.6 192.22"/>
<path d="M257.6 142.62L257.6 154.85"/>
<path d="M256.92 111.36L256.92 95.06"/>
<path d="M252.16 245.21L252.16 269.67"/>
<path d="M252.16 174.55L252.16 199.01"/>
<path d="M250.13 118.16L250.13 101.85"/>
<path d="M210.04 181.35L204.6 174.55"/>
<path d="M257.6 252.01L252.16 245.21"/>
<path d="M148.89 140.58L152.29 143.98"/>
<path d="M400.28 262.88L427.46 262.88"/>
<path d="M352.72 262.88L379.9 262.88"/>
<path d="M305.16 262.88L332.34 262.88"/>
<path d="M257.6 262.88L284.78 262.88"/>
<path d="M210.04 262.88L237.22 262.88"/>
<path d="M162.48 262.88L189.66 262.88"/>
<path d="M277.3 137.18L271.87 142.62"/>
<path d="M189.66 252.01L195.09 245.21"/>
<path d="M237.22 181.35L242.65 174.55"/>
<path d="M243.33 84.19L243.33 78.75"/>
<path d="M242.65 199.01L242.65 174.55"/>
<path d="M242.65 269.67L242.65 245.21"/>
<path d="M241.97 95.06L241.97 84.19"/>
<path d="M239.25 143.98L239.25 101.85"/>
<path d="M237.22 154.85L237.22 142.62"/>
<path d="M237.22 192.22L237.22 181.35"/>
<path d="M237.22 225.51L237.22 213.28"/>
<path d="M237.22 262.88L237.22 252.01"/>
<path d="M233.82 171.15L233.82 154.85"/>
<path d="M233.82 241.82L233.82 225.51"/>
<path d="M232.46 130.39L232.46 89.62"/>
<path d="M189.66 192.22L195.09 199.01"/>
<path d="M394.85 269.67L432.89 269.67"/>
<path d="M347.28 269.67L385.33 269.67"/>
<path d="M299.72 269.67L337.77 269.67"/>
<path d="M252.16 269.67L290.21 269.67"/>
<path d="M204.6 269.67L242.65 269.67"/>
<path d="M157.04 269.67L195.09 269.67"/>
<path d="M152.29 271.71L145.49 271.71"/>
<path d="M444.44 271.71L437.65 271.71"/>
<path d="M162.48 262.88L157.04 269.67"/>
<path d="M210.04 192.22L204.6 199.01"/>
<path d="M221.59 292.09L221.59 302.97"/>
<path d="M220.23 137.18L220.23 100.49"/>
<path d="M237.22 262.88L242.65 269.67"/>
<path d="M209.36 288.02L168.59 288.02"/>
<path d="M372.42 288.02L217.51 288.02"/>
<path d="M421.34 288.02L380.58 288.02"/>
<path d="M277.3 111.36L270.51 118.16"/>
<path d="M217.51 302.97L217.51 288.02"/>
<path d="M213.44 225.51L213.44 241.82"/>
<path d="M213.44 154.85L213.44 171.15"/>
<path d="M210.04 154.85L210.04 142.62"/>
<path d="M210.04 252.01L210.04 262.88"/>
<path d="M210.04 213.28L210.04 225.51"/>
<path d="M210.04 181.35L210.04 192.22"/>
<path d="M209.36 288.02L209.36 302.97"/>
<path d="M206.64 137.18L206.64 100.49"/>
<path d="M162.48 181.35L157.04 174.55"/>
<path d="M210.04 252.01L204.6 245.21"/>
<path d="M384.65 294.81L437.65 294.81"/>
<path d="M205.28 294.81L152.29 294.81"/>
<path d="M368.35 294.81L221.59 294.81"/>
<path d="M384.65 300.25L430.86 300.25"/>
<path d="M221.59 300.25L368.35 300.25"/>
<path d="M159.08 300.25L205.28 300.25"/>
<path d="M217.51 302.97L209.36 302.97"/>
<path d="M380.58 302.97L372.42 302.97"/>
<path d="M256.92 111.36L250.13 118.16"/>
<path d="M232.46 130.39L225.67 137.18"/>
<path d="M189.66 181.35L195.09 174.55"/>
<path d="M168.59 316.44L167.23 323.1"/>
<path d="M205.28 302.97L205.28 292.09"/>
<path d="M204.6 245.21L204.6 269.67"/>
<path d="M204.6 174.55L204.6 199.01"/>
<path d="M195.09 199.01L195.09 174.55"/>
<path d="M195.09 269.67L195.09 245.21"/>
<path d="M193.05 130.39L193.05 100.49"/>
<path d="M221.59 292.09L217.51 288.02"/>
<path d="M159.08 307.04L430.86 307.04"/>
<path d="M421.34 316.44L428.14 316.44"/>
<path d="M168.59 316.44L161.8 316.44"/>
<path d="M256.92 95.06L250.13 101.85"/>
<path d="M162.48 192.22L157.04 199.01"/>
<path d="M189.66 154.85L189.66 142.62"/>
<path d="M189.66 192.22L189.66 181.35"/>
<path d="M189.66 225.51L189.66 213.28"/>
<path d="M189.66 262.88L189.66 252.01"/>
<path d="M186.26 171.15L186.26 154.85"/>
<path d="M186.26 241.82L186.26 225.51"/>
<path d="M186.26 100.49L186.26 130.39"/>
<path d="M189.66 262.88L195.09 269.67"/>
<path d="M217.51 302.97L219.55 305"/>
<path d="M195.78 321.99L394.16 321.99"/>
<path d="M195.09 328.78L394.85 328.78"/>
<path d="M232.46 101.85L239.25 95.06"/>
<path d="M193.05 130.39L189.66 133.79"/>
<path d="M179.46 93.7L179.46 137.18"/>
<path d="M172.67 137.18L172.67 93.7"/>
<path d="M168.59 294.81L168.59 288.02"/>
<path d="M168.59 307.04L168.59 316.44"/>
<path d="M162.48 252.01L157.04 245.21"/>
<path d="M209.36 307.04L205.28 302.97"/>
<path d="M168.59 316.44L195.78 321.99"/>
<path d="M394.16 321.99L421.34 316.44"/>
<path d="M165.87 130.39L165.87 100.49"/>
<path d="M165.87 225.51L165.87 241.82"/>
<path d="M165.87 154.85L165.87 171.15"/>
<path d="M162.48 154.85L162.48 142.62"/>
<path d="M162.48 252.01L162.48 262.88"/>
<path d="M162.48 213.28L162.48 225.51"/>
<path d="M162.48 181.35L162.48 192.22"/>
<path d="M161.8 307.04L161.8 316.44"/>
<path d="M159.08 137.18L159.08 100.49"/>
<path d="M159.08 307.04L159.08 294.81"/>
<path d="M157.04 245.21L157.04 269.67"/>
<path d="M157.04 174.55L157.04 199.01"/>
<path d="M168.59 288.02L152.29 271.71"/>
<path d="M167.23 323.1L195.09 328.78"/>
<path d="M394.85 328.78L422.7 323.1"/>
<path d="M165.87 130.39L159.08 137.18"/>
<path d="M152.29 137.18L145.49 143.98"/>
<path d="M153.64 226.19L153.64 213.96"/>
<path d="M152.29 137.18L152.29 93.7"/>
<path d="M152.29 213.96L152.29 143.98"/>
<path d="M152.29 271.71L152.29 226.19"/>
<path d="M145.49 293.45L145.49 100.49"/>
<path d="M145.49 288.02L152.29 294.81"/>
<path d="M172.67 93.7L165.87 100.49"/>
<path d="M114.21 175.25L115.82 174.44M115.82 174.44L118.25 172.02M118.25 172.02L118.25 189"/>
<path d="M473.08 174.44L472.27 172.83M472.27 172.83L469.84 172.02M469.84 172.02L468.22 172.02M468.22 172.02L465.8 172.83M465.8 172.83L464.18 175.25M464.18 175.25L463.37 179.3M463.37 179.3L463.37 183.34M463.37 183.34L464.18 186.58M464.18 186.58L465.8 188.2M465.8 188.2L468.22 189M468.22 189L469.03 189M469.03 189L471.46 188.2M471.46 188.2L473.08 186.58M473.08 186.58L473.88 184.15M473.88 184.15L473.88 183.34M473.88 183.34L473.08 180.92M473.08 180.92L471.46 179.3M471.46 179.3L469.03 178.49M469.03 178.49L468.22 178.49M468.22 178.49L465.8 179.3M465.8 179.3L464.18 180.92M464.18 180.92L463.37 183.34"/>
<path d="M465.15 250.55L466.77 249.74M466.77 249.74L469.2 247.31M469.2 247.31L469.2 264.3M478.91 251.36L478.91 250.55M478.91 250.55L479.71 248.93M479.71 248.93L480.52 248.12M480.52 248.12L482.14 247.31M482.14 247.31L485.38 247.31M485.38 247.31L486.99 248.12M486.99 248.12L487.8 248.93M487.8 248.93L488.61 250.55M488.61 250.55L488.61 252.17M488.61 252.17L487.8 253.79M487.8 253.79L486.18 256.21M486.18 256.21L478.1 264.3M478.1 264.3L489.42 264.3"/>
<path d="M110.58 247.31L121.9 247.31M121.9 247.31L113.82 264.3"/>
</g>
</g>
</svg>
