<?xml version="1.0" standalone="no"?><svg xmlns="http://www.w3.org/2000/svg" width="600.000" height="450.000" viewBox="0.0 0.0 600.000 450.000" version="1.1">
<title>Acme Converter - Post-processed with EDS-Designer: 14.44 (info@symca.com)</title>
<desc>Acme Converter - Post-processed with EDS-Designer: 14.44 (info@symca.com)</desc>
<g id="EDS_STYLE_GROUP" fill="none" stroke="black" stroke-width="1.0">
<g id="0" display="visible">
<path d="M137.23 360.01L137.23 321.55M139.06 321.55L139.06 360.01M126.24 321.55L124.4 332.54M124.4 332.54L124.4 321.55M124.4 321.55L151.88 321.55M151.88 321.55L151.88 332.54M151.88 332.54L150.05 321.55M131.73 360.01L144.55 360.01M164.7 360.01L164.7 321.55M166.53 321.55L166.53 360.01M159.21 321.55L172.03 321.55M159.21 360.01L172.03 360.01M184.85 360.01L184.85 321.55M186.68 360.01L186.68 321.55M186.68 321.55L208.66 356.35M186.68 325.21L208.66 360.01M208.66 360.01L208.66 321.55M179.36 321.55L186.68 321.55M203.17 321.55L214.16 321.55M179.36 360.01L190.35 360.01M265.45 360.01L265.45 321.55M267.28 321.55L267.28 360.01M259.95 321.55L281.93 321.55M281.93 321.55L287.43 323.38M287.43 323.38L289.26 325.21M289.26 325.21L291.09 328.87M291.09 328.87L291.09 334.37M291.09 334.37L289.26 338.03M289.26 338.03L287.43 339.87M287.43 339.87L281.93 341.7M281.93 341.7L267.28 341.7M281.93 321.55L285.59 323.38M285.59 323.38L287.43 325.21M287.43 325.21L289.26 328.87M289.26 328.87L289.26 334.37M289.26 334.37L287.43 338.03M287.43 338.03L285.59 339.87M285.59 339.87L281.93 341.7M259.95 360.01L272.77 360.01M305.74 360.01L305.74 321.55M307.58 321.55L307.58 360.01M300.25 321.55L313.07 321.55M300.25 360.01L327.72 360.01M327.72 360.01L327.72 349.02M327.72 349.02L325.89 360.01M349.7 321.55L336.88 360.01M349.7 321.55L362.53 360.01M349.7 327.04L360.69 360.01M340.55 349.02L357.03 349.02M333.22 360.01L344.21 360.01M355.2 360.01L366.19 360.01M384.51 360.01L384.51 321.55M386.34 321.55L386.34 360.01M373.52 321.55L371.68 332.54M371.68 332.54L371.68 321.55M371.68 321.55L399.16 321.55M399.16 321.55L399.16 332.54M399.16 332.54L397.33 321.55M379.01 360.01L391.83 360.01M411.98 360.01L411.98 321.55M413.81 321.55L413.81 360.01M424.8 332.54L424.8 347.19M406.49 321.55L435.79 321.55M435.79 321.55L435.79 332.54M435.79 332.54L433.96 321.55M413.81 339.87L424.8 339.87M406.49 360.01L435.79 360.01M435.79 360.01L435.79 349.02M435.79 349.02L433.96 360.01M450.45 360.01L450.45 321.55M452.28 321.55L452.28 360.01M444.95 321.55L463.27 321.55M463.27 321.55L468.76 323.38M468.76 323.38L472.43 327.04M472.43 327.04L474.26 330.71M474.26 330.71L476.09 336.2M476.09 336.2L476.09 345.36M476.09 345.36L474.26 350.86M474.26 350.86L472.43 354.52M472.43 354.52L468.76 358.18M468.76 358.18L463.27 360.01M463.27 360.01L444.95 360.01M463.27 321.55L466.93 323.38M466.93 323.38L470.6 327.04M470.6 327.04L472.43 330.71M472.43 330.71L474.26 336.2M474.26 336.2L474.26 345.36M474.26 345.36L472.43 350.86M472.43 350.86L470.6 354.52M470.6 354.52L466.93 358.18M466.93 358.18L463.27 360.01"/>
<path d="M158.9 271.12L544.26 271.12"/>
<path d="M544.26 271.12L551.59 269.71M551.59 269.71L557.86 265.67"/>
<path d="M557.86 265.67L592.33 232.74"/>
<path d="M592.33 232.74L596.84 226.24M596.84 226.24L598.42 218.5"/>
<path d="M598.42 218.5L598.42 151.38"/>
<path d="M598.42 151.38L596.84 143.64M596.84 143.64L592.33 137.14"/>
<path d="M592.33 137.14L557.86 104.21"/>
<path d="M544.26 98.76L158.9 98.76"/>
<path d="M557.86 104.21L551.59 100.17M551.59 100.17L544.26 98.76"/>
<path d="M158.9 98.76L158.9 271.12"/>
<path d="M189.45 98.76L189.45 271.12"/>
<path d="M259.15 98.76L259.15 271.12"/>
<path d="M273.85 98.76L273.85 271.12"/>
<path d="M313.67 98.76L313.67 271.12"/>
<path d="M353.97 98.76L353.97 271.12"/>
<path d="M448.65 184.97L450.54 171.85M450.54 171.85L456.05 159.79M456.05 159.79L464.73 149.77M464.73 149.77L475.88 142.6M475.88 142.6L488.6 138.87M488.6 138.87L501.85 138.87M501.85 138.87L514.57 142.6M514.57 142.6L525.73 149.77M525.73 149.77L534.41 159.79M534.41 159.79L539.91 171.85M539.91 171.85L541.8 184.97M541.8 184.97L539.91 198.09M539.91 198.09L534.41 210.15M534.41 210.15L525.73 220.16M525.73 220.16L514.57 227.33M514.57 227.33L501.85 231.07M501.85 231.07L488.6 231.07M488.6 231.07L475.88 227.33M475.88 227.33L464.73 220.16M464.73 220.16L456.05 210.15M456.05 210.15L450.54 198.09M450.54 198.09L448.65 184.97"/>
<path d="M27.52 90L25.73 112.02"/>
<path d="M25.73 112.02L126.82 125.51"/>
<path d="M27.52 90L158.9 107.53"/>
<path d="M100.88 99.79L99.43 121.85"/>
<path d="M112.62 101.36L111.17 123.42"/>
<path d="M128.27 103.45L126.82 125.51"/>
<path d="M158.9 138.82L80.68 128.1"/>
<path d="M80.68 128.1L81.9 119.51"/>
<path d="M80.68 128.1L67.4 121.96"/>
<path d="M67.4 121.96L67.78 117.63"/>
<path d="M126.82 125.51L136.59 125.08M136.59 125.08L145.75 121.68M145.75 121.68L153.44 115.64M153.44 115.64L158.9 107.53"/>
<path d="M158.9 138.82L148.96 132.7M148.96 132.7L138.18 128.22M138.18 128.22L126.82 125.51"/>
<path d="M3.5 283.08L1.71 261.07"/>
<path d="M1.71 261.07L126.82 244.37"/>
<path d="M3.5 283.08L158.9 262.35"/>
<path d="M100.88 270.09L99.43 248.03"/>
<path d="M112.62 268.52L111.17 246.46"/>
<path d="M128.27 266.44L126.82 244.37"/>
<path d="M158.9 231.06L80.68 241.78"/>
<path d="M80.68 241.78L81.9 250.37"/>
<path d="M80.68 241.78L67.4 247.92"/>
<path d="M67.4 247.92L67.78 252.25"/>
<path d="M158.9 262.35L153.44 254.24M153.44 254.24L145.75 248.2M145.75 248.2L136.59 244.8M136.59 244.8L126.82 244.37"/>
<path d="M126.82 244.37L138.18 241.66M138.18 241.66L148.96 237.18M148.96 237.18L158.9 231.06"/>
<path d="M8.02 282.48L6.23 260.46"/>
</g>
</g>
</svg>
