<?xml version="1.0" standalone="no"?><svg xmlns="http://www.w3.org/2000/svg" width="600.000" height="450.000" viewBox="0.0 0.0 600.000 450.000" version="1.1">
<title>Acme Converter - Post-processed with EDS-Designer: 14.44 (info@symca.com)</title>
<desc>Acme Converter - Post-processed with EDS-Designer: 14.44 (info@symca.com)</desc>
<g id="EDS_STYLE_GROUP" fill="none" stroke="black" stroke-width="1.0">
<g id="0" display="visible">
<path d="M235.88 349.94L235.88 322.76M237.18 322.76L237.18 349.94M232 322.76L247.53 322.76M247.53 322.76L251.41 324.05M251.41 324.05L252.71 325.35M252.71 325.35L254 327.94M254 327.94L254 330.52M254 330.52L252.71 333.11M252.71 333.11L251.41 334.41M251.41 334.41L247.53 335.7M247.53 322.76L250.12 324.05M250.12 324.05L251.41 325.35M251.41 325.35L252.71 327.94M252.71 327.94L252.71 330.52M252.71 330.52L251.41 333.11M251.41 333.11L250.12 334.41M250.12 334.41L247.53 335.7M237.18 335.7L247.53 335.7M247.53 335.7L251.41 336.99M251.41 336.99L252.71 338.29M252.71 338.29L254 340.88M254 340.88L254 344.76M254 344.76L252.71 347.35M252.71 347.35L251.41 348.64M251.41 348.64L247.53 349.94M247.53 349.94L232 349.94M247.53 335.7L250.12 336.99M250.12 336.99L251.41 338.29M251.41 338.29L252.71 340.88M252.71 340.88L252.71 344.76M252.71 344.76L251.41 347.35M251.41 347.35L250.12 348.64M250.12 348.64L247.53 349.94M264.35 349.94L264.35 322.76M265.65 322.76L265.65 349.94M260.47 322.76L276 322.76M276 322.76L279.88 324.05M279.88 324.05L281.18 325.35M281.18 325.35L282.47 327.94M282.47 327.94L282.47 330.52M282.47 330.52L281.18 333.11M281.18 333.11L279.88 334.41M279.88 334.41L276 335.7M276 335.7L265.65 335.7M276 322.76L278.59 324.05M278.59 324.05L279.88 325.35M279.88 325.35L281.18 327.94M281.18 327.94L281.18 330.52M281.18 330.52L279.88 333.11M279.88 333.11L278.59 334.41M278.59 334.41L276 335.7M260.47 349.94L269.53 349.94M272.12 335.7L274.71 336.99M274.71 336.99L276 338.29M276 338.29L279.88 347.35M279.88 347.35L281.18 348.64M281.18 348.64L282.47 348.64M282.47 348.64L283.77 347.35M274.71 336.99L276 339.58M276 339.58L278.59 348.64M278.59 348.64L279.88 349.94M279.88 349.94L282.47 349.94M282.47 349.94L283.77 347.35M283.77 347.35L283.77 346.05M298 322.76L294.12 324.05M294.12 324.05L291.53 326.64M291.53 326.64L290.24 329.23M290.24 329.23L288.94 334.41M288.94 334.41L288.94 338.29M288.94 338.29L290.24 343.47M290.24 343.47L291.53 346.05M291.53 346.05L294.12 348.64M294.12 348.64L298 349.94M298 349.94L300.59 349.94M300.59 349.94L304.47 348.64M304.47 348.64L307.06 346.05M307.06 346.05L308.36 343.47M308.36 343.47L309.65 338.29M309.65 338.29L309.65 334.41M309.65 334.41L308.36 329.23M308.36 329.23L307.06 326.64M307.06 326.64L304.47 324.05M304.47 324.05L300.59 322.76M300.59 322.76L298 322.76M298 322.76L295.41 324.05M295.41 324.05L292.83 326.64M292.83 326.64L291.53 329.23M291.53 329.23L290.24 334.41M290.24 334.41L290.24 338.29M290.24 338.29L291.53 343.47M291.53 343.47L292.83 346.05M292.83 346.05L295.41 348.64M295.41 348.64L298 349.94M300.59 349.94L303.18 348.64M303.18 348.64L305.77 346.05M305.77 346.05L307.06 343.47M307.06 343.47L308.36 338.29M308.36 338.29L308.36 334.41M308.36 334.41L307.06 329.23M307.06 329.23L305.77 326.64M305.77 326.64L303.18 324.05M303.18 324.05L300.59 322.76M321.3 322.76L326.47 349.94M322.59 322.76L326.47 343.47M331.65 322.76L326.47 349.94M331.65 322.76L336.83 349.94M332.95 322.76L336.83 343.47M342 322.76L336.83 349.94M317.42 322.76L326.47 322.76M338.12 322.76L345.89 322.76M352.36 349.94L352.36 322.76M353.65 349.94L353.65 322.76M353.65 322.76L369.18 347.35M353.65 325.35L369.18 349.94M369.18 349.94L369.18 322.76M348.48 322.76L353.65 322.76M365.3 322.76L373.06 322.76M348.48 349.94L356.24 349.94"/>
<path d="M60.32 197.82L60.32 104.13"/>
<path d="M64.39 100.05L61.51 101.25M61.51 101.25L60.32 104.13"/>
<path d="M64.39 100.05L81.95 100.05"/>
<path d="M86.02 104.13L86.02 135.94"/>
<path d="M86.02 104.13L84.83 101.25M84.83 101.25L81.95 100.05"/>
<path d="M86.02 135.94L83.46 138.29"/>
<path d="M83.46 138.29L83.46 102.72"/>
<path d="M83.46 102.72L62.83 102.72"/>
<path d="M62.83 102.72L62.83 197.82"/>
<path d="M83.46 138.29L104.67 138.29"/>
<path d="M118.38 138.29L343.21 138.29"/>
<path d="M356.92 138.29L378.54 138.29"/>
<path d="M378.54 138.29L378.54 102.72"/>
<path d="M106.43 100.05L117.1 100.05"/>
<path d="M106.43 100.05L103.54 101.25M103.54 101.25L102.35 104.13"/>
<path d="M181.62 100.05L270.15 100.05"/>
<path d="M181.62 100.05L179.58 100.6M179.58 100.6L178.09 102.09M178.09 102.09L177.55 104.13"/>
<path d="M344.97 100.05L355.64 100.05"/>
<path d="M344.97 100.05L342.08 101.25M342.08 101.25L340.89 104.13"/>
<path d="M380.24 100.05L377.35 101.25M377.35 101.25L376.16 104.13"/>
<path d="M401.54 125.68L401.54 197.82"/>
<path d="M104.67 102.72L118.38 102.72"/>
<path d="M343.21 102.72L356.92 102.72"/>
<path d="M399.07 123.12L399.07 197.82"/>
<path d="M376.16 104.13L376.16 135.82"/>
<path d="M376.16 135.82L378.54 138.29"/>
<path d="M359.72 104.13L359.72 135.82"/>
<path d="M359.72 104.13L358.52 101.25M358.52 101.25L355.64 100.05"/>
<path d="M359.72 135.82L356.92 138.29"/>
<path d="M356.92 138.29L356.92 102.72"/>
<path d="M340.89 104.13L340.89 135.82"/>
<path d="M340.89 135.82L343.21 138.29"/>
<path d="M343.21 138.29L343.21 102.72"/>
<path d="M121.18 104.13L121.18 135.82"/>
<path d="M121.18 104.13L119.98 101.25M119.98 101.25L117.1 100.05"/>
<path d="M121.18 135.82L118.38 138.29"/>
<path d="M118.38 138.29L118.38 102.72"/>
<path d="M102.35 104.13L102.35 135.82"/>
<path d="M102.35 135.82L104.67 138.29"/>
<path d="M104.67 138.29L104.67 102.72"/>
<path d="M86.02 133.65L102.35 133.65"/>
<path d="M121.18 133.65L340.89 133.65"/>
<path d="M359.72 133.65L376.16 133.65"/>
<path d="M401.54 133.65L459.78 133.65"/>
<path d="M467.94 141.81L467.94 197.82"/>
<path d="M467.94 141.81L466.84 137.73M466.84 137.73L463.86 134.74M463.86 134.74L459.78 133.65"/>
<path d="M177.55 133.65L177.55 104.13"/>
<path d="M248.86 115.72L340.89 115.72"/>
<path d="M359.72 115.72L376.16 115.72"/>
<path d="M422.11 115.72L501.2 115.72"/>
<path d="M486.9 148.33L485.3 138.26M485.3 138.26L480.67 129.16M480.67 129.16L473.45 121.95M473.45 121.95L464.36 117.32M464.36 117.32L454.28 115.72"/>
<path d="M544.49 156.77L544.49 197.82"/>
<path d="M274.23 104.13L274.23 115.72"/>
<path d="M274.23 104.13L273.03 101.25M273.03 101.25L270.15 100.05"/>
<path d="M531.39 134.9L526 127.29M526 127.29L518.84 121.31M518.84 121.31L510.38 117.37M510.38 117.37L501.2 115.72"/>
<path d="M531.39 134.9L535.41 140.81M535.41 140.81L541.01 145.25"/>
<path d="M544.49 156.77L543.36 150.82M543.36 150.82L541.01 145.25"/>
<path d="M494.64 191.76L486.9 191.76"/>
<path d="M486.9 191.76L486.9 148.33"/>
<path d="M66.7 197.82L66.7 145.16"/>
<path d="M68.74 143.12L67.3 143.72M67.3 143.72L66.7 145.16"/>
<path d="M68.74 143.12L182.2 143.12"/>
<path d="M196.2 143.12L393.18 143.12"/>
<path d="M395.22 145.16L395.22 197.82"/>
<path d="M395.22 145.16L394.62 143.72M394.62 143.72L393.18 143.12"/>
<path d="M382.15 197.82L382.15 165.5M382.15 165.5L386.26 165.5M386.26 165.5L386.26 197.82"/>
<path d="M382.15 170.59L386.26 170.59"/>
<path d="M382.15 186.16L386.26 186.16"/>
<path d="M75.89 197.82L75.89 165.5M75.89 165.5L80 165.5M80 165.5L80 197.82"/>
<path d="M75.89 170.59L80 170.59"/>
<path d="M75.89 186.16L80 186.16"/>
<path d="M69.46 197.82L69.46 151.79"/>
<path d="M71.49 149.76L70.05 150.35M70.05 150.35L69.46 151.79"/>
<path d="M71.49 149.76L182.2 149.76"/>
<path d="M196.2 149.76L389.84 149.76"/>
<path d="M391.87 151.79L391.87 197.82"/>
<path d="M391.87 151.79L391.28 150.35M391.28 150.35L389.84 149.76"/>
<path d="M182.2 149.76L182.2 143.12"/>
<path d="M196.2 149.76L196.2 143.12"/>
<path d="M186.45 138.29L183.71 140.17M183.71 140.17L182.2 143.12"/>
<path d="M196.2 143.12L194.69 140.17M194.69 140.17L191.96 138.29"/>
<path d="M60.32 197.82L60.32 291.5"/>
<path d="M60.32 291.5L61.51 294.39M61.51 294.39L64.39 295.58"/>
<path d="M64.39 295.58L81.95 295.58"/>
<path d="M86.02 291.5L86.02 259.69"/>
<path d="M81.95 295.58L84.83 294.39M84.83 294.39L86.02 291.5"/>
<path d="M86.02 259.69L83.46 257.34"/>
<path d="M83.46 257.34L83.46 292.91"/>
<path d="M83.46 292.91L62.83 292.91"/>
<path d="M62.83 292.91L62.83 197.82"/>
<path d="M83.46 257.34L104.67 257.34"/>
<path d="M118.38 257.34L343.21 257.34"/>
<path d="M356.92 257.34L378.54 257.34"/>
<path d="M378.54 257.34L378.54 292.91"/>
<path d="M106.43 295.58L117.1 295.58"/>
<path d="M102.35 291.5L103.54 294.39M103.54 294.39L106.43 295.58"/>
<path d="M181.62 295.58L270.15 295.58"/>
<path d="M177.55 291.5L178.74 294.39M178.74 294.39L181.62 295.58"/>
<path d="M344.97 295.58L355.64 295.58"/>
<path d="M340.89 291.5L342.08 294.39M342.08 294.39L344.97 295.58"/>
<path d="M380.24 295.58L397.47 295.58"/>
<path d="M397.47 295.58L399.5 295.04M399.5 295.04L401 293.54M401 293.54L401.54 291.5"/>
<path d="M376.16 291.5L377.35 294.39M377.35 294.39L380.24 295.58"/>
<path d="M401.54 291.5L401.54 197.82"/>
<path d="M104.67 292.91L118.38 292.91"/>
<path d="M343.21 292.91L356.92 292.91"/>
<path d="M378.54 292.91L397.03 292.91"/>
<path d="M397.03 292.91L398.05 292.64M398.05 292.64L398.8 291.89M398.8 291.89L399.07 290.87"/>
<path d="M399.07 290.87L399.07 197.82"/>
<path d="M376.16 291.5L376.16 259.81"/>
<path d="M376.16 259.81L378.54 257.34"/>
<path d="M359.72 291.5L359.72 259.81"/>
<path d="M355.64 295.58L358.52 294.39M358.52 294.39L359.72 291.5"/>
<path d="M359.72 259.81L356.92 257.34"/>
<path d="M356.92 257.34L356.92 292.91"/>
<path d="M340.89 291.5L340.89 259.81"/>
<path d="M340.89 259.81L343.21 257.34"/>
<path d="M343.21 257.34L343.21 292.91"/>
<path d="M121.18 291.5L121.18 259.81"/>
<path d="M117.1 295.58L119.98 294.39M119.98 294.39L121.18 291.5"/>
<path d="M121.18 259.81L118.38 257.34"/>
<path d="M118.38 257.34L118.38 292.91"/>
<path d="M102.35 291.5L102.35 259.81"/>
<path d="M102.35 259.81L104.67 257.34"/>
<path d="M104.67 257.34L104.67 292.91"/>
<path d="M86.02 261.98L102.35 261.98"/>
<path d="M121.18 261.98L340.89 261.98"/>
<path d="M359.72 261.98L376.16 261.98"/>
<path d="M401.54 261.98L459.78 261.98"/>
<path d="M467.94 253.83L467.94 197.82"/>
<path d="M459.78 261.98L463.86 260.89M463.86 260.89L466.84 257.91M466.84 257.91L467.94 253.83"/>
<path d="M177.55 261.98L177.55 291.5"/>
<path d="M248.86 279.91L340.89 279.91"/>
<path d="M359.72 279.91L376.16 279.91"/>
<path d="M401.54 279.91L501.2 279.91"/>
<path d="M454.28 279.91L464.36 278.32M464.36 278.32L473.45 273.69M473.45 273.69L480.67 266.47M480.67 266.47L485.3 257.38M485.3 257.38L486.9 247.3"/>
<path d="M544.49 238.87L544.49 197.82"/>
<path d="M274.23 291.5L274.23 279.91"/>
<path d="M270.15 295.58L273.03 294.39M273.03 294.39L274.23 291.5"/>
<path d="M501.2 279.91L510.38 278.26M510.38 278.26L518.84 274.32M518.84 274.32L526 268.34M526 268.34L531.39 260.74"/>
<path d="M541.01 250.38L535.41 254.82M535.41 254.82L531.39 260.74"/>
<path d="M541.01 250.38L543.36 244.81M543.36 244.81L544.49 238.87"/>
<path d="M494.64 203.88L486.9 203.88"/>
<path d="M486.9 203.88L486.9 247.3"/>
<path d="M66.7 197.82L66.7 250.47"/>
<path d="M66.7 250.47L67.3 251.92M67.3 251.92L68.74 252.51"/>
<path d="M68.74 252.51L182.2 252.51"/>
<path d="M196.2 252.51L393.18 252.51"/>
<path d="M395.22 250.47L395.22 197.82"/>
<path d="M393.18 252.51L394.62 251.92M394.62 251.92L395.22 250.47"/>
<path d="M382.15 197.82L382.15 230.14M382.15 230.14L386.26 230.14M386.26 230.14L386.26 197.82"/>
<path d="M382.15 225.05L386.26 225.05"/>
<path d="M382.15 209.47L386.26 209.47"/>
<path d="M75.89 197.82L75.89 230.14M75.89 230.14L80 230.14M80 230.14L80 197.82"/>
<path d="M75.89 225.05L80 225.05"/>
<path d="M75.89 209.47L80 209.47"/>
<path d="M69.46 197.82L69.46 243.84"/>
<path d="M69.46 243.84L70.05 245.28M70.05 245.28L71.49 245.88"/>
<path d="M71.49 245.88L182.2 245.88"/>
<path d="M196.2 245.88L389.84 245.88"/>
<path d="M391.87 243.84L391.87 197.82"/>
<path d="M389.84 245.88L391.28 245.28M391.28 245.28L391.87 243.84"/>
<path d="M182.2 245.88L182.2 252.51"/>
<path d="M196.2 245.88L196.2 252.51"/>
<path d="M182.2 252.51L183.71 255.47M183.71 255.47L186.45 257.34"/>
<path d="M191.96 257.34L194.69 255.47M194.69 255.47L196.2 252.51"/>
<path d="M193.19 214.04L215.37 214.04M215.37 214.04L215.37 231.35M215.37 231.35L193.19 231.35M193.19 231.35L193.19 214.04"/>
<path d="M207.18 219.32L212.13 219.32M212.13 219.32L212.13 226.01M212.13 226.01L196.22 226.01M196.22 226.01L196.22 219.32M196.22 219.32L201.15 219.32"/>
<path d="M196.22 219.32L193.19 214.04"/>
<path d="M196.22 226.01L193.19 231.35"/>
<path d="M212.13 226.01L215.37 231.35"/>
<path d="M212.13 219.32L215.37 214.04"/>
<path d="M207.18 219.32L207.18 217.2M207.18 217.2L201.15 217.2M201.15 217.2L201.15 219.32"/>
<path d="M196.22 226.01L204.24 226.01M204.24 226.01L204.24 238.94M204.24 238.94L196.22 238.94M196.22 238.94L196.22 226.01"/>
<path d="M196.22 233.17L204.24 233.17"/>
<path d="M166.41 214.04L188.59 214.04M188.59 214.04L188.59 231.35M188.59 231.35L166.41 231.35M166.41 231.35L166.41 214.04"/>
<path d="M180.4 219.32L185.35 219.32M185.35 219.32L185.35 226.01M185.35 226.01L169.44 226.01M169.44 226.01L169.44 219.32M169.44 219.32L174.37 219.32"/>
<path d="M169.44 219.32L166.41 214.04"/>
<path d="M169.44 226.01L166.41 231.35"/>
<path d="M185.35 226.01L188.59 231.35"/>
<path d="M185.35 219.32L188.59 214.04"/>
<path d="M180.4 219.32L180.4 217.2M180.4 217.2L174.37 217.2M174.37 217.2L174.37 219.32"/>
<path d="M169.44 226.01L177.46 226.01M177.46 226.01L177.46 238.94M177.46 238.94L169.44 238.94M169.44 238.94L169.44 226.01"/>
<path d="M169.44 233.17L177.46 233.17"/>
<path d="M219.98 214.04L242.15 214.04M242.15 214.04L242.15 231.35M242.15 231.35L219.98 231.35M219.98 231.35L219.98 214.04"/>
<path d="M233.96 219.32L238.91 219.32M238.91 219.32L238.91 226.01M238.91 226.01L223 226.01M223 226.01L223 219.32M223 219.32L227.94 219.32"/>
<path d="M223 219.32L219.98 214.04"/>
<path d="M223 226.01L219.98 231.35"/>
<path d="M238.91 226.01L242.15 231.35"/>
<path d="M238.91 219.32L242.15 214.04"/>
<path d="M233.96 219.32L233.96 217.2M233.96 217.2L227.94 217.2M227.94 217.2L227.94 219.32"/>
<path d="M223 226.01L231.02 226.01M231.02 226.01L231.02 238.94M231.02 238.94L223 238.94M223 238.94L223 226.01"/>
<path d="M223 233.17L231.02 233.17"/>
<path d="M246.76 214.04L268.93 214.04M268.93 214.04L268.93 231.35M268.93 231.35L246.76 231.35M246.76 231.35L246.76 214.04"/>
<path d="M260.74 219.32L265.69 219.32M265.69 219.32L265.69 226.01M265.69 226.01L249.79 226.01M249.79 226.01L249.79 219.32M249.79 219.32L254.72 219.32"/>
<path d="M249.79 219.32L246.76 214.04"/>
<path d="M249.79 226.01L246.76 231.35"/>
<path d="M265.69 226.01L268.93 231.35"/>
<path d="M265.69 219.32L268.93 214.04"/>
<path d="M260.74 219.32L260.74 217.2M260.74 217.2L254.72 217.2M254.72 217.2L254.72 219.32"/>
<path d="M249.79 226.01L257.8 226.01M257.8 226.01L257.8 238.94M257.8 238.94L249.79 238.94M249.79 238.94L249.79 226.01"/>
<path d="M249.79 233.17L257.8 233.17"/>
<path d="M273.54 214.04L295.72 214.04M295.72 214.04L295.72 231.35M295.72 231.35L273.54 231.35M273.54 231.35L273.54 214.04"/>
<path d="M287.53 219.32L292.48 219.32M292.48 219.32L292.48 226.01M292.48 226.01L276.57 226.01M276.57 226.01L276.57 219.32M276.57 219.32L281.5 219.32"/>
<path d="M276.57 219.32L273.54 214.04"/>
<path d="M276.57 226.01L273.54 231.35"/>
<path d="M292.48 226.01L295.72 231.35"/>
<path d="M292.48 219.32L295.72 214.04"/>
<path d="M287.53 219.32L287.53 217.2M287.53 217.2L281.5 217.2M281.5 217.2L281.5 219.32"/>
<path d="M276.57 226.01L284.59 226.01M284.59 226.01L284.59 238.94M284.59 238.94L276.57 238.94M276.57 238.94L276.57 226.01"/>
<path d="M276.57 233.17L284.59 233.17"/>
<path d="M108.73 181.22L86.56 181.22M86.56 181.22L86.56 163.91M86.56 163.91L108.73 163.91M108.73 163.91L108.73 181.22"/>
<path d="M94.75 175.94L89.79 175.94M89.79 175.94L89.79 169.26M89.79 169.26L105.7 169.26M105.7 169.26L105.7 175.94M105.7 175.94L100.77 175.94"/>
<path d="M105.7 175.94L108.73 181.22"/>
<path d="M105.7 169.26L108.73 163.91"/>
<path d="M89.79 169.26L86.56 163.91"/>
<path d="M89.79 175.94L86.56 181.22"/>
<path d="M94.75 175.94L94.75 178.06M94.75 178.06L100.77 178.06M100.77 178.06L100.77 175.94"/>
<path d="M105.7 169.26L97.69 169.26M97.69 169.26L97.69 156.32M97.69 156.32L105.7 156.32M105.7 156.32L105.7 169.26"/>
<path d="M105.7 162.1L97.69 162.1"/>
<path d="M135.38 181.22L113.2 181.22M113.2 181.22L113.2 163.91M113.2 163.91L135.38 163.91M135.38 163.91L135.38 181.22"/>
<path d="M121.39 175.94L116.44 175.94M116.44 175.94L116.44 169.26M116.44 169.26L132.35 169.26M132.35 169.26L132.35 175.94M132.35 175.94L127.42 175.94"/>
<path d="M132.35 175.94L135.38 181.22"/>
<path d="M132.35 169.26L135.38 163.91"/>
<path d="M116.44 169.26L113.2 163.91"/>
<path d="M116.44 175.94L113.2 181.22"/>
<path d="M121.39 175.94L121.39 178.06M121.39 178.06L127.42 178.06M127.42 178.06L127.42 175.94"/>
<path d="M132.35 169.26L124.33 169.26M124.33 169.26L124.33 156.32M124.33 156.32L132.35 156.32M132.35 156.32L132.35 169.26"/>
<path d="M132.35 162.1L124.33 162.1"/>
<path d="M162.02 181.22L139.85 181.22M139.85 181.22L139.85 163.91M139.85 163.91L162.02 163.91M162.02 163.91L162.02 181.22"/>
<path d="M148.04 175.94L143.09 175.94M143.09 175.94L143.09 169.26M143.09 169.26L159 169.26M159 169.26L159 175.94M159 175.94L154.06 175.94"/>
<path d="M159 175.94L162.02 181.22"/>
<path d="M159 169.26L162.02 163.91"/>
<path d="M143.09 169.26L139.85 163.91"/>
<path d="M143.09 175.94L139.85 181.22"/>
<path d="M148.04 175.94L148.04 178.06M148.04 178.06L154.06 178.06M154.06 178.06L154.06 175.94"/>
<path d="M159 169.26L150.98 169.26M150.98 169.26L150.98 156.32M150.98 156.32L159 156.32M159 156.32L159 169.26"/>
<path d="M159 162.1L150.98 162.1"/>
<path d="M188.67 181.22L166.5 181.22M166.5 181.22L166.5 163.91M166.5 163.91L188.67 163.91M188.67 163.91L188.67 181.22"/>
<path d="M174.69 175.94L169.73 175.94M169.73 175.94L169.73 169.26M169.73 169.26L185.64 169.26M185.64 169.26L185.64 175.94M185.64 175.94L180.71 175.94"/>
<path d="M185.64 175.94L188.67 181.22"/>
<path d="M185.64 169.26L188.67 163.91"/>
<path d="M169.73 169.26L166.5 163.91"/>
<path d="M169.73 175.94L166.5 181.22"/>
<path d="M174.69 175.94L174.69 178.06M174.69 178.06L180.71 178.06M180.71 178.06L180.71 175.94"/>
<path d="M185.64 169.26L177.63 169.26M177.63 169.26L177.63 156.32M177.63 156.32L185.64 156.32M185.64 156.32L185.64 169.26"/>
<path d="M185.64 162.1L177.63 162.1"/>
<path d="M215.32 181.22L193.14 181.22M193.14 181.22L193.14 163.91M193.14 163.91L215.32 163.91M215.32 163.91L215.32 181.22"/>
<path d="M201.33 175.94L196.38 175.94M196.38 175.94L196.38 169.26M196.38 169.26L212.29 169.26M212.29 169.26L212.29 175.94M212.29 175.94L207.36 175.94"/>
<path d="M212.29 175.94L215.32 181.22"/>
<path d="M212.29 169.26L215.32 163.91"/>
<path d="M196.38 169.26L193.14 163.91"/>
<path d="M196.38 175.94L193.14 181.22"/>
<path d="M201.33 175.94L201.33 178.06M201.33 178.06L207.36 178.06M207.36 178.06L207.36 175.94"/>
<path d="M212.29 169.26L204.27 169.26M204.27 169.26L204.27 156.32M204.27 156.32L212.29 156.32M212.29 156.32L212.29 169.26"/>
<path d="M212.29 162.1L204.27 162.1"/>
<path d="M241.96 181.22L219.79 181.22M219.79 181.22L219.79 163.91M219.79 163.91L241.96 163.91M241.96 163.91L241.96 181.22"/>
<path d="M227.98 175.94L223.03 175.94M223.03 175.94L223.03 169.26M223.03 169.26L238.94 169.26M238.94 169.26L238.94 175.94M238.94 175.94L234 175.94"/>
<path d="M238.94 175.94L241.96 181.22"/>
<path d="M238.94 169.26L241.96 163.91"/>
<path d="M223.03 169.26L219.79 163.91"/>
<path d="M223.03 175.94L219.79 181.22"/>
<path d="M227.98 175.94L227.98 178.06M227.98 178.06L234 178.06M234 178.06L234 175.94"/>
<path d="M238.94 169.26L230.92 169.26M230.92 169.26L230.92 156.32M230.92 156.32L238.94 156.32M238.94 156.32L238.94 169.26"/>
<path d="M238.94 162.1L230.92 162.1"/>
<path d="M268.61 181.22L246.43 181.22M246.43 181.22L246.43 163.91M246.43 163.91L268.61 163.91M268.61 163.91L268.61 181.22"/>
<path d="M254.62 175.94L249.67 175.94M249.67 175.94L249.67 169.26M249.67 169.26L265.58 169.26M265.58 169.26L265.58 175.94M265.58 175.94L260.65 175.94"/>
<path d="M265.58 175.94L268.61 181.22"/>
<path d="M265.58 169.26L268.61 163.91"/>
<path d="M249.67 169.26L246.43 163.91"/>
<path d="M249.67 175.94L246.43 181.22"/>
<path d="M254.62 175.94L254.62 178.06M254.62 178.06L260.65 178.06M260.65 178.06L260.65 175.94"/>
<path d="M265.58 169.26L257.56 169.26M257.56 169.26L257.56 156.32M257.56 156.32L265.58 156.32M265.58 156.32L265.58 169.26"/>
<path d="M265.58 162.1L257.56 162.1"/>
<path d="M295.26 181.22L273.08 181.22M273.08 181.22L273.08 163.91M273.08 163.91L295.26 163.91M295.26 163.91L295.26 181.22"/>
<path d="M281.27 175.94L276.32 175.94M276.32 175.94L276.32 169.26M276.32 169.26L292.23 169.26M292.23 169.26L292.23 175.94M292.23 175.94L287.3 175.94"/>
<path d="M292.23 175.94L295.26 181.22"/>
<path d="M292.23 169.26L295.26 163.91"/>
<path d="M276.32 169.26L273.08 163.91"/>
<path d="M276.32 175.94L273.08 181.22"/>
<path d="M281.27 175.94L281.27 178.06M281.27 178.06L287.3 178.06M287.3 178.06L287.3 175.94"/>
<path d="M292.23 169.26L284.21 169.26M284.21 169.26L284.21 156.32M284.21 156.32L292.23 156.32M292.23 156.32L292.23 169.26"/>
<path d="M292.23 162.1L284.21 162.1"/>
<path d="M321.9 181.22L299.73 181.22M299.73 181.22L299.73 163.91M299.73 163.91L321.9 163.91M321.9 163.91L321.9 181.22"/>
<path d="M307.92 175.94L302.97 175.94M302.97 175.94L302.97 169.26M302.97 169.26L318.87 169.26M318.87 169.26L318.87 175.94M318.87 175.94L313.94 175.94"/>
<path d="M318.87 175.94L321.9 181.22"/>
<path d="M318.87 169.26L321.9 163.91"/>
<path d="M302.97 169.26L299.73 163.91"/>
<path d="M302.97 175.94L299.73 181.22"/>
<path d="M307.92 175.94L307.92 178.06M307.92 178.06L313.94 178.06M313.94 178.06L313.94 175.94"/>
<path d="M318.87 169.26L310.86 169.26M310.86 169.26L310.86 156.32M310.86 156.32L318.87 156.32M318.87 156.32L318.87 169.26"/>
<path d="M318.87 162.1L310.86 162.1"/>
<path d="M348.55 181.22L326.37 181.22M326.37 181.22L326.37 163.91M326.37 163.91L348.55 163.91M348.55 163.91L348.55 181.22"/>
<path d="M334.56 175.94L329.61 175.94M329.61 175.94L329.61 169.26M329.61 169.26L345.52 169.26M345.52 169.26L345.52 175.94M345.52 175.94L340.59 175.94"/>
<path d="M345.52 175.94L348.55 181.22"/>
<path d="M345.52 169.26L348.55 163.91"/>
<path d="M329.61 169.26L326.37 163.91"/>
<path d="M329.61 175.94L326.37 181.22"/>
<path d="M334.56 175.94L334.56 178.06M334.56 178.06L340.59 178.06M340.59 178.06L340.59 175.94"/>
<path d="M345.52 169.26L337.5 169.26M337.5 169.26L337.5 156.32M337.5 156.32L345.52 156.32M345.52 156.32L345.52 169.26"/>
<path d="M345.52 162.1L337.5 162.1"/>
<path d="M375.19 181.22L353.02 181.22M353.02 181.22L353.02 163.91M353.02 163.91L375.19 163.91M375.19 163.91L375.19 181.22"/>
<path d="M361.21 175.94L356.26 175.94M356.26 175.94L356.26 169.26M356.26 169.26L372.17 169.26M372.17 169.26L372.17 175.94M372.17 175.94L367.23 175.94"/>
<path d="M372.17 175.94L375.19 181.22"/>
<path d="M372.17 169.26L375.19 163.91"/>
<path d="M356.26 169.26L353.02 163.91"/>
<path d="M356.26 175.94L353.02 181.22"/>
<path d="M361.21 175.94L361.21 178.06M361.21 178.06L367.23 178.06M367.23 178.06L367.23 175.94"/>
<path d="M372.17 169.26L364.15 169.26M364.15 169.26L364.15 156.32M364.15 156.32L372.17 156.32M372.17 156.32L372.17 169.26"/>
<path d="M372.17 162.1L364.15 162.1"/>
<path d="M344.47 232.11L335.94 232.11M335.94 232.11L335.94 213.25M335.94 213.25L370.14 213.25M370.14 213.25L370.14 232.11M370.14 232.11L352.98 232.11"/>
<path d="M357.55 219.09L365.62 219.09M365.62 219.09L365.62 226.05M365.62 226.05L340.67 226.05M340.67 226.05L340.67 219.09M340.67 219.09L348.72 219.09"/>
<path d="M348.72 219.09L348.72 217.16M348.72 217.16L357.55 217.16M357.55 217.16L357.55 219.09"/>
<path d="M340.67 219.09L335.94 213.25"/>
<path d="M365.62 219.09L370.14 213.25"/>
<path d="M365.62 226.05L370.14 232.11"/>
<path d="M340.67 226.05L335.94 232.11"/>
<path d="M344.47 226.05L352.98 226.05M352.98 226.05L352.98 239.73M352.98 239.73L344.47 239.73M344.47 239.73L344.47 226.05"/>
<path d="M344.47 234.02L352.98 234.02"/>
<path d="M344.47 230.54L352.98 230.54"/>
<path d="M306.06 232.11L297.53 232.11M297.53 232.11L297.53 213.25M297.53 213.25L331.73 213.25M331.73 213.25L331.73 232.11M331.73 232.11L314.57 232.11"/>
<path d="M319.14 219.09L327.21 219.09M327.21 219.09L327.21 226.05M327.21 226.05L302.27 226.05M302.27 226.05L302.27 219.09M302.27 219.09L310.31 219.09"/>
<path d="M310.31 219.09L310.31 217.16M310.31 217.16L319.14 217.16M319.14 217.16L319.14 219.09"/>
<path d="M302.27 219.09L297.53 213.25"/>
<path d="M327.21 219.09L331.73 213.25"/>
<path d="M327.21 226.05L331.73 232.11"/>
<path d="M302.27 226.05L297.53 232.11"/>
<path d="M306.06 226.05L314.57 226.05M314.57 226.05L314.57 239.73M314.57 239.73L306.06 239.73M306.06 239.73L306.06 226.05"/>
<path d="M306.06 234.02L314.57 234.02"/>
<path d="M306.06 230.54L314.57 230.54"/>
<path d="M138.36 232.11L129.83 232.11M129.83 232.11L129.83 213.25M129.83 213.25L164.03 213.25M164.03 213.25L164.03 232.11M164.03 232.11L146.88 232.11"/>
<path d="M151.44 219.09L159.52 219.09M159.52 219.09L159.52 226.05M159.52 226.05L134.57 226.05M134.57 226.05L134.57 219.09M134.57 219.09L142.62 219.09"/>
<path d="M142.62 219.09L142.62 217.16M142.62 217.16L151.44 217.16M151.44 217.16L151.44 219.09"/>
<path d="M134.57 219.09L129.83 213.25"/>
<path d="M159.52 219.09L164.03 213.25"/>
<path d="M159.52 226.05L164.03 232.11"/>
<path d="M134.57 226.05L129.83 232.11"/>
<path d="M138.36 226.05L146.88 226.05M146.88 226.05L146.88 239.73M146.88 239.73L138.36 239.73M138.36 239.73L138.36 226.05"/>
<path d="M138.36 234.02L146.88 234.02"/>
<path d="M138.36 230.54L146.88 230.54"/>
<path d="M100.07 232.11L91.54 232.11M91.54 232.11L91.54 213.25M91.54 213.25L125.74 213.25M125.74 213.25L125.74 232.11M125.74 232.11L108.58 232.11"/>
<path d="M113.15 219.09L121.23 219.09M121.23 219.09L121.23 226.05M121.23 226.05L96.28 226.05M96.28 226.05L96.28 219.09M96.28 219.09L104.33 219.09"/>
<path d="M104.33 219.09L104.33 217.16M104.33 217.16L113.15 217.16M113.15 217.16L113.15 219.09"/>
<path d="M96.28 219.09L91.54 213.25"/>
<path d="M121.23 219.09L125.74 213.25"/>
<path d="M121.23 226.05L125.74 232.11"/>
<path d="M96.28 226.05L91.54 232.11"/>
<path d="M100.07 226.05L108.58 226.05M108.58 226.05L108.58 239.73M108.58 239.73L100.07 239.73M100.07 239.73L100.07 226.05"/>
<path d="M100.07 234.02L108.58 234.02"/>
<path d="M100.07 230.54L108.58 230.54"/>
<path d="M21.36 221L23.43 219.97M23.43 219.97L26.54 216.86M26.54 216.86L26.54 238.6"/>
<path d="M1.53 163.49L3.6 162.46M3.6 162.46L6.71 159.35M6.71 159.35L6.71 181.1M24.31 159.35L21.21 160.39M21.21 160.39L19.13 163.49M19.13 163.49L18.1 168.67M18.1 168.67L18.1 171.78M18.1 171.78L19.13 176.95M19.13 176.95L21.21 180.06M21.21 180.06L24.31 181.1M24.31 181.1L26.38 181.1M26.38 181.1L29.49 180.06M29.49 180.06L31.56 176.95M31.56 176.95L32.59 171.78M32.59 171.78L32.59 168.67M32.59 168.67L31.56 163.49M31.56 163.49L29.49 160.39M29.49 160.39L26.38 159.35M26.38 159.35L24.31 159.35"/>
<path d="M577.91 224.11L576.88 227.22M576.88 227.22L574.8 229.29M574.8 229.29L571.7 230.32M571.7 230.32L570.66 230.32M570.66 230.32L567.56 229.29M567.56 229.29L565.49 227.22M565.49 227.22L564.45 224.11M564.45 224.11L564.45 223.07M564.45 223.07L565.49 219.97M565.49 219.97L567.56 217.9M567.56 217.9L570.66 216.86M570.66 216.86L571.7 216.86M571.7 216.86L574.8 217.9M574.8 217.9L576.88 219.97M576.88 219.97L577.91 224.11M577.91 224.11L577.91 229.29M577.91 229.29L576.88 234.46M576.88 234.46L574.8 237.57M574.8 237.57L571.7 238.6M571.7 238.6L569.63 238.6M569.63 238.6L566.52 237.57M566.52 237.57L565.49 235.5"/>
<path d="M564.31 164.53L564.31 163.49M564.31 163.49L565.35 161.42M565.35 161.42L566.38 160.39M566.38 160.39L568.45 159.35M568.45 159.35L572.59 159.35M572.59 159.35L574.67 160.39M574.67 160.39L575.7 161.42M575.7 161.42L576.74 163.49M576.74 163.49L576.74 165.57M576.74 165.57L575.7 167.64M575.7 167.64L573.63 170.74M573.63 170.74L563.28 181.1M563.28 181.1L577.77 181.1M590.2 159.35L587.09 160.39M587.09 160.39L585.02 163.49M585.02 163.49L583.98 168.67M583.98 168.67L583.98 171.78M583.98 171.78L585.02 176.95M585.02 176.95L587.09 180.06M587.09 180.06L590.2 181.1M590.2 181.1L592.27 181.1M592.27 181.1L595.37 180.06M595.37 180.06L597.44 176.95M597.44 176.95L598.48 171.78M598.48 171.78L598.48 168.67M598.48 168.67L597.44 163.49M597.44 163.49L595.37 160.39M595.37 160.39L592.27 159.35M592.27 159.35L590.2 159.35"/>
<path d="M380.24 100.05L418.04 100.05"/>
<path d="M422.11 104.13L421.57 102.09M421.57 102.09L420.08 100.6M420.08 100.6L418.04 100.05"/>
<path d="M380.24 100.05L377.35 101.25M377.35 101.25L376.16 104.13"/>
<path d="M378.54 102.72L417.3 102.72"/>
<path d="M419.34 104.76L419.07 103.74M419.07 103.74L418.32 103M418.32 103L417.3 102.72"/>
<path d="M401.54 125.68L418.04 125.68"/>
<path d="M422.11 121.61L422.11 104.13"/>
<path d="M418.04 125.68L420.92 124.49M420.92 124.49L422.11 121.61"/>
<path d="M399.07 123.12L417.3 123.12"/>
<path d="M419.34 121.09L419.34 104.76"/>
<path d="M417.3 123.12L418.74 122.53M418.74 122.53L419.34 121.09"/>
<path d="M399.07 123.12L401.54 125.68"/>
</g>
</g>
</svg>
