<?xml version="1.0" standalone="no"?><svg xmlns="http://www.w3.org/2000/svg" width="600.000" height="450.000" viewBox="0.0 0.0 600.000 450.000" version="1.1">
<title>Acme Converter - Post-processed with EDS-Designer: 14.44 (info@symca.com)</title>
<desc>Acme Converter - Post-processed with EDS-Designer: 14.44 (info@symca.com)</desc>
<g id="EDS_STYLE_GROUP" fill="none" stroke="black" stroke-width="1.0">
<g id="0" display="visible">
<path d="M245.48 371.25L245.48 346.99M246.64 346.99L246.64 371.25M242.02 346.99L255.88 346.99M255.88 346.99L259.35 348.14M259.35 348.14L260.5 349.3M260.5 349.3L261.66 351.61M261.66 351.61L261.66 353.92M261.66 353.92L260.5 356.23M260.5 356.23L259.35 357.38M259.35 357.38L255.88 358.54M255.88 346.99L258.19 348.14M258.19 348.14L259.35 349.3M259.35 349.3L260.5 351.61M260.5 351.61L260.5 353.92M260.5 353.92L259.35 356.23M259.35 356.23L258.19 357.38M258.19 357.38L255.88 358.54M246.64 358.54L255.88 358.54M255.88 358.54L259.35 359.7M259.35 359.7L260.5 360.85M260.5 360.85L261.66 363.16M261.66 363.16L261.66 366.63M261.66 366.63L260.5 368.94M260.5 368.94L259.35 370.09M259.35 370.09L255.88 371.25M255.88 371.25L242.02 371.25M255.88 358.54L258.19 359.7M258.19 359.7L259.35 360.85M259.35 360.85L260.5 363.16M260.5 363.16L260.5 366.63M260.5 366.63L259.35 368.94M259.35 368.94L258.19 370.09M258.19 370.09L255.88 371.25M270.9 371.25L270.9 346.99M272.06 346.99L272.06 371.25M267.44 346.99L275.52 346.99M267.44 371.25L284.77 371.25M284.77 371.25L284.77 364.32M284.77 364.32L283.61 371.25M298.63 346.99L290.54 371.25M298.63 346.99L306.72 371.25M298.63 350.45L305.56 371.25M292.85 364.32L303.25 364.32M288.23 371.25L295.17 371.25M302.1 371.25L309.03 371.25M328.67 350.45L329.83 353.92M329.83 353.92L329.83 346.99M329.83 346.99L328.67 350.45M328.67 350.45L326.36 348.14M326.36 348.14L322.89 346.99M322.89 346.99L320.58 346.99M320.58 346.99L317.12 348.14M317.12 348.14L314.81 350.45M314.81 350.45L313.65 352.76M313.65 352.76L312.5 356.23M312.5 356.23L312.5 362.01M312.5 362.01L313.65 365.47M313.65 365.47L314.81 367.78M314.81 367.78L317.12 370.09M317.12 370.09L320.58 371.25M320.58 371.25L322.89 371.25M322.89 371.25L326.36 370.09M326.36 370.09L328.67 367.78M328.67 367.78L329.83 365.47M320.58 346.99L318.27 348.14M318.27 348.14L315.96 350.45M315.96 350.45L314.81 352.76M314.81 352.76L313.65 356.23M313.65 356.23L313.65 362.01M313.65 362.01L314.81 365.47M314.81 365.47L315.96 367.78M315.96 367.78L318.27 370.09M318.27 370.09L320.58 371.25M340.23 371.25L340.23 346.99M341.38 346.99L341.38 371.25M356.4 346.99L341.38 362.01M347.16 357.38L356.4 371.25M346 357.38L355.25 371.25M336.76 346.99L344.85 346.99M351.78 346.99L358.71 346.99M336.76 371.25L344.85 371.25M351.78 371.25L358.71 371.25"/>
<path d="M241.66 78.75L300.25 78.75"/>
<path d="M300.25 94.28L234.16 94.28"/>
<path d="M229.31 99.13L229.31 138.23"/>
<path d="M224.45 143.09L181.55 143.09"/>
<path d="M181.55 143.09L181.55 145.82"/>
<path d="M181.55 145.82L227.45 145.82"/>
<path d="M232.3 140.97L232.3 111.23"/>
<path d="M246.86 96.67L300.25 96.67"/>
<path d="M246.86 96.67L239.58 98.62M239.58 98.62L234.25 103.95M234.25 103.95L232.3 111.23"/>
<path d="M248.72 94.28L241.29 95.75M241.29 95.75L234.99 99.96M234.99 99.96L230.78 106.26M230.78 106.26L229.31 113.69"/>
<path d="M234.16 94.28L230.73 95.7M230.73 95.7L229.31 99.13"/>
<path d="M236.81 83.6L236.81 94.28"/>
<path d="M241.66 78.75L238.23 80.17M238.23 80.17L236.81 83.6"/>
<path d="M254.83 78.75L254.83 94.28"/>
<path d="M273.26 78.75L273.26 94.28"/>
<path d="M289.27 78.75L289.27 94.28"/>
<path d="M236.81 86.46L254.83 86.46"/>
<path d="M273.26 86.46L289.27 86.46"/>
<path d="M224.45 143.09L227.89 141.66M227.89 141.66L229.31 138.23"/>
<path d="M227.45 145.82L230.88 144.4M230.88 144.4L232.3 140.97"/>
<path d="M229.31 110.55L219.49 110.55"/>
<path d="M214.64 115.4L214.64 143.09"/>
<path d="M219.49 110.55L216.06 111.97M216.06 111.97L214.64 115.4"/>
<path d="M300.25 104.34L264.95 104.34"/>
<path d="M260.1 109.2L260.1 110.6"/>
<path d="M250.93 110.6L300.25 110.6"/>
<path d="M264.95 104.34L261.52 105.77M261.52 105.77L260.1 109.2"/>
<path d="M300.25 132.94L246.08 132.94"/>
<path d="M246.08 132.94L246.08 115.45"/>
<path d="M250.93 110.6L247.5 112.02M247.5 112.02L246.08 115.45"/>
<path d="M300.25 167.87L250.93 167.87"/>
<path d="M246.08 163.02L246.08 144.75"/>
<path d="M246.08 144.75L254.25 144.75"/>
<path d="M254.25 144.75L254.25 132.94"/>
<path d="M246.08 132.94L242.6 136.29"/>
<path d="M246.08 144.75L242.6 141.41"/>
<path d="M246.08 163.02L247.5 166.45M247.5 166.45L250.93 167.87"/>
<path d="M246.08 157.26L261.82 157.26"/>
<path d="M261.82 157.26L261.82 132.94"/>
<path d="M300.25 151.73L280.46 151.73"/>
<path d="M278.51 149.79L278.51 137.95"/>
<path d="M280.68 137.95L274.15 137.95"/>
<path d="M271.28 132.94L272.06 135.82M272.06 135.82L274.15 137.95"/>
<path d="M278.51 140.01L300.25 140.01"/>
<path d="M278.51 149.79L279.08 151.16M279.08 151.16L280.46 151.73"/>
<path d="M280.68 132.94L280.68 140.01"/>
<path d="M300.25 162.12L284.86 162.12"/>
<path d="M282.92 159.64L263.66 159.64"/>
<path d="M261.82 157.26L263.66 159.64"/>
<path d="M284.86 162.12L284.32 160.55M284.32 160.55L282.92 159.64"/>
<path d="M261.82 141.66L278.51 141.66"/>
<path d="M181.55 155.56L181.55 159.2"/>
<path d="M181.55 159.2L246.08 159.2"/>
<path d="M181.55 155.56L246.08 155.56"/>
<path d="M130.89 226.11L130.89 239.7M130.89 239.7L139.14 239.7M139.14 239.7L139.14 226.11M139.14 226.11L130.89 226.11"/>
<path d="M101.3 226.11L97.17 226.11M97.17 226.11L97.17 239.7M97.17 239.7L101.3 239.7"/>
<path d="M101.3 226.11L101.3 239.7"/>
<path d="M181.55 143.09L165.12 144.35M165.12 144.35L149.28 148.86M149.28 148.86L134.64 156.42M134.64 156.42L121.8 166.75M121.8 166.75L111.27 179.42M111.27 179.42L103.47 193.93M103.47 193.93L98.7 209.71M98.7 209.71L97.17 226.11"/>
<path d="M181.55 145.82L165.77 147.06M165.77 147.06L150.55 151.45M150.55 151.45L136.53 158.79M136.53 158.79L124.26 168.81M124.26 168.81L114.25 181.08M114.25 181.08L106.91 195.11M106.91 195.11L102.53 210.33M102.53 210.33L101.3 226.11"/>
<path d="M181.55 159.2L166.88 161.12M166.88 161.12L152.98 166.22M152.98 166.22L140.55 174.25M140.55 174.25L130.19 184.82M130.19 184.82L122.41 197.41M122.41 197.41L117.59 211.4M117.59 211.4L115.97 226.11"/>
<path d="M181.55 155.56L166.81 156.8M166.81 156.8L152.69 161.2M152.69 161.2L139.85 168.54M139.85 168.54L128.9 178.49M128.9 178.49L120.36 190.56M120.36 190.56L114.63 204.2"/>
<path d="M300.25 175.02L181.36 175.02"/>
<path d="M181.36 175.02L181.36 183.22"/>
<path d="M181.36 183.22L300.25 183.22"/>
<path d="M181.36 175.02L168.2 176.77M168.2 176.77L155.95 181.89M155.95 181.89L145.46 190.02M145.46 190.02L137.45 200.62M137.45 200.62L132.48 212.93M132.48 212.93L130.89 226.11"/>
<path d="M181.36 183.22L170.05 184.07M170.05 184.07L159.43 188.1M159.43 188.1L150.4 194.96M150.4 194.96L143.67 204.11M143.67 204.11L139.82 214.78M139.82 214.78L139.14 226.11"/>
<path d="M147.81 149.46L135.22 152.71M135.22 152.71L123.89 159.09M123.89 159.09L114.58 168.17M114.58 168.17L107.92 179.34M107.92 179.34L104.37 191.85"/>
<path d="M97.17 239.7L98.7 256.1M98.7 256.1L103.47 271.87M103.47 271.87L111.27 286.39M111.27 286.39L121.8 299.06M121.8 299.06L134.64 309.38M134.64 309.38L149.28 316.95M149.28 316.95L165.12 321.46M165.12 321.46L181.55 322.72"/>
<path d="M101.3 239.7L102.53 255.48M102.53 255.48L106.91 270.7M106.91 270.7L114.25 284.73M114.25 284.73L124.26 297M124.26 297L136.53 307.01M136.53 307.01L150.55 314.36M150.55 314.36L165.77 318.75M165.77 318.75L181.55 319.99"/>
<path d="M115.97 239.7L117.59 254.41M117.59 254.41L122.41 268.4M122.41 268.4L130.19 280.99M130.19 280.99L140.55 291.56M140.55 291.56L152.98 299.59M152.98 299.59L166.88 304.69M166.88 304.69L181.55 306.61"/>
<path d="M111.85 239.7L113.11 255.48M113.11 255.48L117.99 270.55M117.99 270.55L126.21 284.08M126.21 284.08L137.34 295.35M137.34 295.35L150.77 303.74M150.77 303.74L165.78 308.79M165.78 308.79L181.55 310.25"/>
<path d="M130.89 239.7L132.48 252.88M132.48 252.88L137.45 265.19M137.45 265.19L145.46 275.78M145.46 275.78L155.95 283.92M155.95 283.92L168.2 289.04M168.2 289.04L181.36 290.79"/>
<path d="M139.14 239.7L139.82 251.03M139.82 251.03L143.67 261.7M143.67 261.7L150.4 270.84M150.4 270.84L159.43 277.71M159.43 277.71L170.05 281.73M170.05 281.73L181.36 282.59"/>
<path d="M104.37 273.96L107.92 286.47M107.92 286.47L114.58 297.64M114.58 297.64L123.89 306.72M123.89 306.72L135.22 313.1M135.22 313.1L147.81 316.35"/>
<path d="M300.25 322.72L181.55 322.72"/>
<path d="M181.55 322.72L181.55 319.99"/>
<path d="M181.55 319.99L300.25 319.99"/>
<path d="M181.55 310.25L181.55 306.61"/>
<path d="M181.55 306.61L300.25 306.61"/>
<path d="M181.55 310.25L300.25 310.25"/>
<path d="M300.25 290.79L181.36 290.79"/>
<path d="M181.36 290.79L181.36 282.59"/>
<path d="M181.36 282.59L300.25 282.59"/>
<path d="M278.03 306.61L278.03 322.72"/>
<path d="M358.84 78.75L300.25 78.75"/>
<path d="M300.25 94.28L366.34 94.28"/>
<path d="M371.19 99.13L371.19 138.23"/>
<path d="M376.04 143.09L418.95 143.09"/>
<path d="M418.95 143.09L418.95 145.82"/>
<path d="M418.95 145.82L373.05 145.82"/>
<path d="M368.2 140.97L368.2 111.23"/>
<path d="M353.64 96.67L300.25 96.67"/>
<path d="M368.2 111.23L366.25 103.95M366.25 103.95L360.92 98.62M360.92 98.62L353.64 96.67"/>
<path d="M371.19 113.69L369.71 106.26M369.71 106.26L365.51 99.96M365.51 99.96L359.21 95.75M359.21 95.75L351.78 94.28"/>
<path d="M371.19 99.13L369.77 95.7M369.77 95.7L366.34 94.28"/>
<path d="M363.69 83.6L363.69 94.28"/>
<path d="M363.69 83.6L362.27 80.17M362.27 80.17L358.84 78.75"/>
<path d="M345.67 78.75L345.67 94.28"/>
<path d="M327.24 78.75L327.24 94.28"/>
<path d="M311.22 78.75L311.22 94.28"/>
<path d="M363.69 86.46L345.67 86.46"/>
<path d="M327.24 86.46L311.22 86.46"/>
<path d="M371.19 138.23L372.61 141.66M372.61 141.66L376.04 143.09"/>
<path d="M368.2 140.97L369.62 144.4M369.62 144.4L373.05 145.82"/>
<path d="M371.19 110.55L381.01 110.55"/>
<path d="M385.86 115.4L385.86 143.09"/>
<path d="M385.86 115.4L384.44 111.97M384.44 111.97L381.01 110.55"/>
<path d="M300.25 104.34L335.54 104.34"/>
<path d="M340.4 109.2L340.4 110.6"/>
<path d="M349.57 110.6L300.25 110.6"/>
<path d="M340.4 109.2L338.98 105.77M338.98 105.77L335.54 104.34"/>
<path d="M300.25 132.94L354.42 132.94"/>
<path d="M354.42 132.94L354.42 115.45"/>
<path d="M354.42 115.45L353 112.02M353 112.02L349.57 110.6"/>
<path d="M300.25 167.87L349.57 167.87"/>
<path d="M354.42 163.02L354.42 144.75"/>
<path d="M354.42 144.75L346.25 144.75"/>
<path d="M346.25 144.75L346.25 132.94"/>
<path d="M354.42 132.94L357.89 136.29"/>
<path d="M354.42 144.75L357.89 141.41"/>
<path d="M349.57 167.87L353 166.45M353 166.45L354.42 163.02"/>
<path d="M354.42 157.26L338.67 157.26"/>
<path d="M338.67 157.26L338.67 132.94"/>
<path d="M300.25 151.73L320.04 151.73"/>
<path d="M321.98 149.79L321.98 137.95"/>
<path d="M319.82 137.95L326.35 137.95"/>
<path d="M326.35 137.95L328.44 135.82M328.44 135.82L329.22 132.94"/>
<path d="M321.98 140.01L300.25 140.01"/>
<path d="M320.04 151.73L321.42 151.16M321.42 151.16L321.98 149.79"/>
<path d="M319.82 132.94L319.82 140.01"/>
<path d="M300.25 162.12L315.64 162.12"/>
<path d="M317.58 159.64L336.83 159.64"/>
<path d="M336.83 159.64L338.67 157.26"/>
<path d="M317.58 159.64L316.18 160.55M316.18 160.55L315.64 162.12"/>
<path d="M338.67 141.66L321.98 141.66"/>
<path d="M418.95 155.56L418.95 159.2"/>
<path d="M418.95 159.2L354.42 159.2"/>
<path d="M418.95 155.56L354.42 155.56"/>
<path d="M461.36 239.7L461.36 226.11M461.36 226.11L469.61 226.11M469.61 226.11L469.61 232.9"/>
<path d="M499.2 226.11L503.33 226.11M503.33 226.11L503.33 239.7M503.33 239.7L499.2 239.7"/>
<path d="M499.2 226.11L499.2 239.7"/>
<path d="M503.33 226.11L501.79 209.71M501.79 209.71L497.03 193.93M497.03 193.93L489.23 179.42M489.23 179.42L478.7 166.75M478.7 166.75L465.86 156.42M465.86 156.42L451.22 148.86M451.22 148.86L435.37 144.35M435.37 144.35L418.95 143.09"/>
<path d="M499.2 226.11L497.97 210.33M497.97 210.33L493.59 195.11M493.59 195.11L486.25 181.08M486.25 181.08L476.24 168.81M476.24 168.81L463.97 158.79M463.97 158.79L449.95 151.45M449.95 151.45L434.73 147.06M434.73 147.06L418.95 145.82"/>
<path d="M484.53 226.11L482.9 211.4M482.9 211.4L478.08 197.41M478.08 197.41L470.3 184.82M470.3 184.82L459.95 174.25M459.95 174.25L447.51 166.22M447.51 166.22L433.62 161.12M433.62 161.12L418.95 159.2"/>
<path d="M488.65 226.11L487.39 210.33M487.39 210.33L482.51 195.26M482.51 195.26L474.29 181.73M474.29 181.73L463.16 170.46M463.16 170.46L449.72 162.07M449.72 162.07L434.72 157.01M434.72 157.01L418.95 155.56"/>
<path d="M300.25 175.02L419.13 175.02"/>
<path d="M419.13 175.02L419.13 183.22"/>
<path d="M419.13 183.22L300.25 183.22"/>
<path d="M469.61 226.11L468.02 212.93M468.02 212.93L463.05 200.62M463.05 200.62L455.04 190.02M455.04 190.02L444.55 181.89M444.55 181.89L432.3 176.77M432.3 176.77L419.13 175.02"/>
<path d="M461.36 226.11L460.68 214.78M460.68 214.78L456.83 204.11M456.83 204.11L450.1 194.96M450.1 194.96L441.06 188.1M441.06 188.1L430.45 184.07M430.45 184.07L419.13 183.22"/>
<path d="M496.13 191.85L492.57 179.34M492.57 179.34L485.92 168.17M485.92 168.17L476.61 159.09M476.61 159.09L465.28 152.71M465.28 152.71L452.69 149.46"/>
<path d="M419.13 282.59L300.25 282.59"/>
<path d="M419.13 290.79L419.13 282.59"/>
<path d="M300.25 290.79L419.13 290.79"/>
<path d="M418.95 310.25L300.25 310.25"/>
<path d="M418.95 306.61L300.25 306.61"/>
<path d="M418.95 310.25L418.95 306.61"/>
<path d="M418.95 319.99L300.25 319.99"/>
<path d="M418.95 322.72L418.95 319.99"/>
<path d="M300.25 322.72L418.95 322.72"/>
<path d="M452.69 316.35L465.28 313.1M465.28 313.1L476.61 306.72M476.61 306.72L485.92 297.64M485.92 297.64L492.57 286.47M492.57 286.47L496.13 273.96"/>
<path d="M419.13 282.59L426.41 282.42M426.41 282.42L433.54 280.92"/>
<path d="M419.13 290.79L430.65 289.46M430.65 289.46L441.55 285.53M441.55 285.53L451.28 279.23M451.28 279.23L459.31 270.87"/>
<path d="M418.95 310.25L433.8 308.98M433.8 308.98L448.03 304.51M448.03 304.51L460.94 297.05M460.94 297.05L471.91 286.95M471.91 286.95L480.43 274.71M480.43 274.71L486.07 260.91"/>
<path d="M418.95 306.61L433.62 304.69M433.62 304.69L447.51 299.59M447.51 299.59L459.95 291.56M459.95 291.56L470.3 280.99M470.3 280.99L478.08 268.4M478.08 268.4L482.9 254.41M482.9 254.41L484.53 239.7"/>
<path d="M418.95 319.99L434.73 318.75M434.73 318.75L449.95 314.36M449.95 314.36L463.97 307.01M463.97 307.01L476.24 297M476.24 297L486.25 284.73M486.25 284.73L493.59 270.7M493.59 270.7L497.97 255.48M497.97 255.48L499.2 239.7"/>
<path d="M418.95 322.72L435.37 321.46M435.37 321.46L451.22 316.95M451.22 316.95L465.86 309.38M465.86 309.38L478.7 299.06M478.7 299.06L489.23 286.39M489.23 286.39L497.03 271.87M497.03 271.87L501.79 256.1M501.79 256.1L503.33 239.7"/>
<path d="M322.47 306.61L322.47 322.72"/>
<path d="M115.97 239.7L109.38 239.7"/>
<path d="M119.64 204.2L112.65 204.2"/>
<path d="M112.65 204.2L108.8 215.67M108.8 215.67L107.69 227.72M107.69 227.72L109.38 239.7"/>
<path d="M115.97 239.7L115.97 226.04"/>
<path d="M481.09 260.91L490.57 260.91"/>
<path d="M484.53 226.11L491.17 226.11"/>
<path d="M490.57 260.91L492.79 249.41M492.79 249.41L492.99 237.69M492.99 237.69L491.17 226.11"/>
<path d="M484.53 226.11L484.53 239.77"/>
<path d="M300.25 191.66L194.91 191.66"/>
<path d="M178.61 191.66L178.61 183.13"/>
<path d="M194.91 183.22L194.91 191.66"/>
<path d="M178.61 274.15L178.61 282.68"/>
<path d="M194.91 282.59L194.91 274.15"/>
<path d="M300.25 274.15L194.91 274.15"/>
<path d="M178.61 191.66L169.15 194.18M169.15 194.18L160.69 199.11M160.69 199.11L153.84 206.11M153.84 206.11L149.09 214.67"/>
<path d="M146.62 239.7L148.56 249.68M148.56 249.68L153.16 258.75M153.16 258.75L160.09 266.21M160.09 266.21L168.79 271.48M168.79 271.48L178.61 274.15"/>
<path d="M146.62 231.4L146.62 239.7"/>
<path d="M300.25 191.66L405.59 191.66"/>
<path d="M421.89 191.66L421.89 183.13"/>
<path d="M405.59 183.22L405.59 191.66"/>
<path d="M451.91 216.04L447.3 207M447.3 207L440.38 199.57M440.38 199.57L431.69 194.32M431.69 194.32L421.89 191.66"/>
<path d="M421.89 274.15L432.25 271.33M432.25 271.33L441.25 265.48M441.25 265.48L448.02 257.16M448.02 257.16L451.91 247.15"/>
<path d="M421.89 274.15L421.89 282.68"/>
<path d="M405.59 282.59L405.59 274.15"/>
<path d="M300.25 274.15L405.59 274.15"/>
<path d="M451.91 216.04L460.92 216.04"/>
<path d="M451.91 247.15L461.28 247.15"/>
<path d="M139.84 214.67L164.76 214.67"/>
<path d="M164.76 218.99L164.76 210.46"/>
<path d="M164.76 218.99L162.92 218.99"/>
<path d="M158.06 223.85L158.06 242.18"/>
<path d="M162.92 247.03L164.76 247.03"/>
<path d="M164.76 247.03L164.76 254.93"/>
<path d="M164.76 254.93L168.9 254.93"/>
<path d="M178.61 274.15L178.61 264.64"/>
<path d="M178.61 264.64L177.31 259.79M177.31 259.79L173.75 256.23M173.75 256.23L168.9 254.93"/>
<path d="M166.35 270.32L166.35 264.72"/>
<path d="M166.35 264.72L178.61 264.72"/>
<path d="M139.14 231.4L158.06 231.4"/>
<path d="M162.92 218.99L159.48 220.42M159.48 220.42L158.06 223.85"/>
<path d="M158.06 242.18L159.48 245.61M159.48 245.61L162.92 247.03"/>
<path d="M164.76 247.03L167.47 244.42"/>
<path d="M164.76 218.99L167.52 221.7"/>
<path d="M159.3 200.25L159.3 205.6"/>
<path d="M164.16 210.46L164.76 210.46"/>
<path d="M164.76 210.46L167.78 206.73"/>
<path d="M159.3 205.6L160.72 209.03M160.72 209.03L164.16 210.46"/>
<path d="M469.61 232.9L464.57 235.2M464.57 235.2L461.36 239.7"/>
<path d="M469.61 232.9L479.68 232.9"/>
<path d="M430.8 271.85L454.41 271.85"/>
<path d="M433.54 271.85L433.54 280.92"/>
<path d="M433.54 280.92L449.11 280.92"/>
<path d="M454.41 271.85L464.76 268.69M464.76 268.69L473.32 262.06M473.32 262.06L478.95 252.82"/>
<path d="M478.95 252.82L481.37 245.87M481.37 245.87L482.17 238.56"/>
<path d="M482.17 238.56L481.82 235.34M481.82 235.34L479.68 232.9"/>
<path d="M440.38 266.24L468.72 266.24"/>
<path d="M448.72 256.61L461.36 256.61"/>
<path d="M461.36 239.7L461.36 256.61"/>
<path d="M171.78 218.55L171.78 246.69M171.78 246.69L205.5 246.69M205.5 246.69L205.5 218.55M205.5 218.55L171.78 218.55"/>
<path d="M194.22 239.77L198.34 239.77M198.34 239.77L198.34 225.58M198.34 225.58L178.09 225.58M178.09 225.58L178.09 239.77M178.09 239.77L182.58 239.77"/>
<path d="M182.58 239.77L182.58 256.63M182.58 256.63L194.22 256.63M194.22 256.63L194.22 239.77"/>
<path d="M178.09 225.58L171.78 218.55"/>
<path d="M198.34 225.58L205.5 218.55"/>
<path d="M198.34 239.77L205.5 246.69"/>
<path d="M178.09 239.77L171.78 246.69"/>
<path d="M226.56 218.55L226.56 246.69M226.56 246.69L260.28 246.69M260.28 246.69L260.28 218.55M260.28 218.55L226.56 218.55"/>
<path d="M232.87 225.58L226.56 218.55"/>
<path d="M253.13 225.58L260.28 218.55"/>
<path d="M253.13 239.77L260.28 246.69"/>
<path d="M232.87 239.77L226.56 246.69"/>
<path d="M237.36 239.77L237.36 256.63M237.36 256.63L249 256.63M249 256.63L249 239.77"/>
<path d="M249 239.77L253.13 239.77M253.13 239.77L253.13 225.58M253.13 225.58L232.87 225.58M232.87 225.58L232.87 239.77M232.87 239.77L237.36 239.77"/>
<path d="M303.78 239.77L307.91 239.77M307.91 239.77L307.91 225.58M307.91 225.58L287.65 225.58M287.65 225.58L287.65 239.77M287.65 239.77L292.14 239.77"/>
<path d="M292.14 239.77L292.14 256.63M292.14 256.63L303.78 256.63M303.78 256.63L303.78 239.77"/>
<path d="M287.65 239.77L281.35 246.69"/>
<path d="M307.91 239.77L315.06 246.69"/>
<path d="M307.91 225.58L315.06 218.55"/>
<path d="M287.65 225.58L281.35 218.55"/>
<path d="M281.35 218.55L281.35 246.69M281.35 246.69L315.06 246.69M315.06 246.69L315.06 218.55M315.06 218.55L281.35 218.55"/>
<path d="M358.57 239.77L362.69 239.77M362.69 239.77L362.69 225.58M362.69 225.58L342.43 225.58M342.43 225.58L342.43 239.77M342.43 239.77L346.92 239.77"/>
<path d="M346.92 239.77L346.92 256.63M346.92 256.63L358.57 256.63M358.57 256.63L358.57 239.77"/>
<path d="M342.43 239.77L336.13 246.69"/>
<path d="M362.69 239.77L369.85 246.69"/>
<path d="M362.69 225.58L369.85 218.55"/>
<path d="M342.43 225.58L336.13 218.55"/>
<path d="M336.13 218.55L336.13 246.69M336.13 246.69L369.85 246.69M369.85 246.69L369.85 218.55M369.85 218.55L336.13 218.55"/>
<path d="M413.35 239.77L417.47 239.77M417.47 239.77L417.47 225.58M417.47 225.58L397.22 225.58M397.22 225.58L397.22 239.77M397.22 239.77L401.7 239.77"/>
<path d="M401.7 239.77L401.7 256.63M401.7 256.63L413.35 256.63M413.35 256.63L413.35 239.77"/>
<path d="M397.22 239.77L390.91 246.69"/>
<path d="M417.47 239.77L424.63 246.69"/>
<path d="M417.47 225.58L424.63 218.55"/>
<path d="M397.22 225.58L390.91 218.55"/>
<path d="M390.91 218.55L390.91 246.69M390.91 246.69L424.63 246.69M424.63 246.69L424.63 218.55M424.63 218.55L390.91 218.55"/>
<path d="M373.16 256.79L370.62 257.51M370.62 257.51L368.83 259.46"/>
<path d="M398.2 259.46L396.41 257.51M396.41 257.51L393.87 256.79"/>
<path d="M361.44 274.15L368.83 259.46"/>
<path d="M405.59 274.15L398.2 259.46"/>
<path d="M373.16 256.79L393.87 256.79"/>
<path d="M68.04 222.78L69.89 221.85M69.89 221.85L72.66 219.08M72.66 219.08L72.66 238.49"/>
<path d="M530.11 219.08L520.87 219.08M520.87 219.08L519.94 227.4M519.94 227.4L520.87 226.48M520.87 226.48L523.64 225.55M523.64 225.55L526.41 225.55M526.41 225.55L529.18 226.48M529.18 226.48L531.03 228.33M531.03 228.33L531.96 231.1M531.96 231.1L531.96 232.95M531.96 232.95L531.03 235.72M531.03 235.72L529.18 237.57M529.18 237.57L526.41 238.49M526.41 238.49L523.64 238.49M523.64 238.49L520.87 237.57M520.87 237.57L519.94 236.64M519.94 236.64L519.02 234.8"/>
</g>
</g>
</svg>
