<?xml version="1.0" standalone="no"?><svg xmlns="http://www.w3.org/2000/svg" width="600.000" height="450.000" viewBox="0.0 0.0 600.000 450.000" version="1.1">
<title>Acme Converter - Post-processed with EDS-Designer: 14.44 (info@symca.com)</title>
<desc>Acme Converter - Post-processed with EDS-Designer: 14.44 (info@symca.com)</desc>
<g id="EDS_STYLE_GROUP" fill="none" stroke="black" stroke-width="1.0">
<g id="0" display="visible">
<path d="M227.07 448.22L227.07 410.1M228.89 410.1L228.89 448.22M221.63 410.1L243.41 410.1M243.41 410.1L248.86 411.92M248.86 411.92L250.67 413.73M250.67 413.73L252.49 417.36M252.49 417.36L252.49 420.99M252.49 420.99L250.67 424.62M250.67 424.62L248.86 426.44M248.86 426.44L243.41 428.25M243.41 410.1L247.04 411.92M247.04 411.92L248.86 413.73M248.86 413.73L250.67 417.36M250.67 417.36L250.67 420.99M250.67 420.99L248.86 424.62M248.86 424.62L247.04 426.44M247.04 426.44L243.41 428.25M228.89 428.25L243.41 428.25M243.41 428.25L248.86 430.07M248.86 430.07L250.67 431.88M250.67 431.88L252.49 435.51M252.49 435.51L252.49 440.96M252.49 440.96L250.67 444.59M250.67 444.59L248.86 446.4M248.86 446.4L243.41 448.22M243.41 448.22L221.63 448.22M243.41 428.25L247.04 430.07M247.04 430.07L248.86 431.88M248.86 431.88L250.67 435.51M250.67 435.51L250.67 440.96M250.67 440.96L248.86 444.59M248.86 444.59L247.04 446.4M247.04 446.4L243.41 448.22M267.01 448.22L267.01 410.1M268.82 410.1L268.82 448.22M261.56 410.1L274.27 410.1M261.56 448.22L288.79 448.22M288.79 448.22L288.79 437.33M288.79 437.33L286.97 448.22M310.57 410.1L297.86 448.22M310.57 410.1L323.27 448.22M310.57 415.55L321.46 448.22M301.49 437.33L317.83 437.33M294.23 448.22L305.12 448.22M316.01 448.22L326.9 448.22M357.76 415.55L359.57 420.99M359.57 420.99L359.57 410.1M359.57 410.1L357.76 415.55M357.76 415.55L354.13 411.92M354.13 411.92L348.68 410.1M348.68 410.1L345.05 410.1M345.05 410.1L339.61 411.92M339.61 411.92L335.98 415.55M335.98 415.55L334.16 419.18M334.16 419.18L332.35 424.62M332.35 424.62L332.35 433.7M332.35 433.7L334.16 439.14M334.16 439.14L335.98 442.77M335.98 442.77L339.61 446.4M339.61 446.4L345.05 448.22M345.05 448.22L348.68 448.22M348.68 448.22L354.13 446.4M354.13 446.4L357.76 442.77M357.76 442.77L359.57 439.14M345.05 410.1L341.42 411.92M341.42 411.92L337.79 415.55M337.79 415.55L335.98 419.18M335.98 419.18L334.16 424.62M334.16 424.62L334.16 433.7M334.16 433.7L335.98 439.14M335.98 439.14L337.79 442.77M337.79 442.77L341.42 446.4M341.42 446.4L345.05 448.22M375.91 448.22L375.91 410.1M377.72 410.1L377.72 448.22M401.32 410.1L377.72 433.7M386.8 426.44L401.32 448.22M384.98 426.44L399.51 448.22M370.46 410.1L383.17 410.1M394.06 410.1L404.95 410.1M370.46 448.22L383.17 448.22M394.06 448.22L404.95 448.22"/>
<path d="M86.74 257.73L72.22 278.06M72.22 278.06L94 278.06M86.74 257.73L86.74 288.22"/>
<path d="M520.49 263.13L523.39 261.68M523.39 261.68L527.75 257.32M527.75 257.32L527.75 287.82"/>
<path d="M223.87 39.83L223.87 41.09"/>
<path d="M394.63 39.83L394.63 41.09"/>
<path d="M251.31 165.23L251.31 95.86"/>
<path d="M251.31 95.86L145.8 95.86"/>
<path d="M145.8 29.69L145.8 95.86"/>
<path d="M109.98 29.69L145.8 29.69"/>
<path d="M109.98 29.69L109.98 178.95"/>
<path d="M217.77 178.95L109.98 178.95"/>
<path d="M251.31 95.86L257.41 95.86"/>
<path d="M257.41 165.23L257.41 95.86"/>
<path d="M251.31 50.12L251.31 95.86"/>
<path d="M190.32 50.12L251.31 50.12"/>
<path d="M190.32 74.51L190.32 50.12"/>
<path d="M190.32 74.51L151.85 74.51"/>
<path d="M151.85 74.51L151.23 78.76M151.23 78.76L148.85 87.26M148.85 87.26L145.8 95.86"/>
<path d="M151.9 29.69L151.9 74.51"/>
<path d="M151.9 29.69L145.8 29.69"/>
<path d="M109.98 14.45L109.98 29.69"/>
<path d="M145.8 29.69L145.8 29.36"/>
<path d="M145.8 29.36L145.8 14.44"/>
<path d="M109.98 14.44L145.8 14.44"/>
<path d="M103.88 178.95L109.98 178.95"/>
<path d="M109.98 29.69L103.88 29.69"/>
<path d="M103.88 178.95L103.88 29.69"/>
<path d="M109.98 178.95L109.98 185.05"/>
<path d="M111.04 185.05L109.98 185.05"/>
<path d="M217.77 171.33L217.77 178.95"/>
<path d="M223.87 165.23L220.82 166.05M220.82 166.05L218.58 168.28M218.58 168.28L217.77 171.33"/>
<path d="M394.63 165.23L223.87 165.23"/>
<path d="M257.41 56.22L257.41 95.86"/>
<path d="M257.41 56.22L257.41 44.02"/>
<path d="M190.32 50.12L187.27 50.94M187.27 50.94L185.04 53.17M185.04 53.17L184.22 56.22"/>
<path d="M184.23 74.51L184.23 56.22"/>
<path d="M151.9 20.54L151.9 29.69"/>
<path d="M151.9 20.54L151.09 17.49M151.09 17.49L148.85 15.26M148.85 15.26L145.8 14.44"/>
<path d="M109.98 14.44L106.93 15.26M106.93 15.26L104.69 17.49M104.69 17.49L103.88 20.54"/>
<path d="M103.88 29.69L103.88 20.54"/>
<path d="M145.8 14.44L158 14.44"/>
<path d="M158 14.44L196.94 14.44"/>
<path d="M103.88 178.95L105.66 183.26M105.66 183.26L109.98 185.05"/>
<path d="M211.67 185.05L111.04 185.05"/>
<path d="M507.45 185.05L406.82 185.05"/>
<path d="M211.67 185.05L214.72 184.23M214.72 184.23L216.95 182M216.95 182L217.77 178.95"/>
<path d="M217.77 178.95L223.87 178.95"/>
<path d="M223.87 171.33L223.87 178.95"/>
<path d="M223.87 171.33L217.77 171.33"/>
<path d="M223.87 165.23L223.87 171.33"/>
<path d="M394.63 171.33L394.63 165.23"/>
<path d="M394.63 171.33L223.87 171.33"/>
<path d="M400.72 171.33L399.91 168.28M399.91 168.28L397.68 166.05M397.68 166.05L394.63 165.23"/>
<path d="M508.52 178.95L400.73 178.95"/>
<path d="M508.52 92.81L508.52 178.95"/>
<path d="M508.52 92.81L496.78 92.81"/>
<path d="M484.58 80.61L486.22 86.71M486.22 86.71L490.68 91.18M490.68 91.18L496.78 92.81"/>
<path d="M484.58 80.61L484.58 29.69"/>
<path d="M484.58 29.69L472.69 29.69"/>
<path d="M472.69 95.86L472.69 29.69"/>
<path d="M472.69 95.86L367.18 95.86"/>
<path d="M367.18 95.86L367.18 165.23"/>
<path d="M367.18 95.86L361.08 95.86"/>
<path d="M361.08 95.86L361.08 165.23"/>
<path d="M508.52 185.05L507.45 185.05"/>
<path d="M508.52 185.05L508.52 178.95"/>
<path d="M400.73 178.95L401.54 182M401.54 182L403.77 184.23M403.77 184.23L406.82 185.05"/>
<path d="M263.51 115.68L263.51 165.23"/>
<path d="M257.41 115.68L263.51 115.68"/>
<path d="M263.51 109.58L263.51 115.68"/>
<path d="M257.41 103.48L259.19 107.79M259.19 107.79L263.51 109.58"/>
<path d="M361.08 86.71L257.41 86.71"/>
<path d="M361.08 83.66L257.41 83.66"/>
<path d="M257.41 81.62L361.08 81.62"/>
<path d="M257.41 74.25L361.08 74.25"/>
<path d="M257.41 59.53L361.08 59.53"/>
<path d="M257.41 57.74L361.08 57.74"/>
<path d="M251.8 44.02L366.69 44.02"/>
<path d="M251.31 40.97L251.81 44.02"/>
<path d="M251.31 50.12L251.31 40.97"/>
<path d="M223.87 40.97L251.31 40.97"/>
<path d="M223.87 40.97L223.87 48.96"/>
<path d="M223.68 50.12L223.86 48.96"/>
<path d="M162.31 49.77L173.25 38.84"/>
<path d="M158 45.46L162.31 49.77"/>
<path d="M151.9 55.98L158 45.46"/>
<path d="M158 20.54L158 45.46"/>
<path d="M151.9 20.54L158 20.54"/>
<path d="M158 20.54L158 14.44"/>
<path d="M158 20.54L196.94 20.54"/>
<path d="M196.94 20.54L196.94 14.44"/>
<path d="M201.26 16.23L199.28 14.91M199.28 14.91L196.94 14.44"/>
<path d="M111.04 185.05L111.04 313.12"/>
<path d="M110.74 236.13L110.74 185.05"/>
<path d="M111.04 236.13L110.74 236.13"/>
<path d="M507.45 313.12L507.45 185.05"/>
<path d="M361.08 95.86L361.08 56.22"/>
<path d="M361.08 44.02L361.08 56.22"/>
<path d="M354.99 115.68L361.08 115.68"/>
<path d="M354.99 165.23L354.99 115.68"/>
<path d="M263.51 115.68L354.99 115.68"/>
<path d="M111.04 185.05L117.14 191.15"/>
<path d="M211.67 191.15L117.14 191.15"/>
<path d="M211.67 191.15L211.67 185.05"/>
<path d="M406.82 185.05L406.82 191.15"/>
<path d="M501.35 191.15L406.82 191.15"/>
<path d="M501.35 191.15L507.45 185.05"/>
<path d="M211.67 191.15L217.77 189.52M217.77 189.52L222.23 185.05M222.23 185.05L223.87 178.95"/>
<path d="M394.63 178.95L396.26 185.05M396.26 185.05L400.73 189.52M400.73 189.52L406.82 191.15"/>
<path d="M394.63 178.95L394.63 171.33"/>
<path d="M117.14 191.15L117.14 313.12"/>
<path d="M117.14 313.12L501.35 313.12"/>
<path d="M501.35 313.12L501.35 191.15"/>
<path d="M462.78 235.97L388.07 235.97"/>
<path d="M462.78 300.01L462.78 235.97"/>
<path d="M388.07 300.01L462.78 300.01"/>
<path d="M388.07 235.97L388.07 300.01"/>
<path d="M385.33 235.97L310.62 235.97"/>
<path d="M385.33 300.01L385.33 235.97"/>
<path d="M310.62 300.01L385.33 300.01"/>
<path d="M310.62 235.97L310.62 300.01"/>
<path d="M307.87 235.97L233.17 235.97"/>
<path d="M307.87 300.01L307.87 235.97"/>
<path d="M233.17 300.01L307.87 300.01"/>
<path d="M233.17 235.97L233.17 300.01"/>
<path d="M230.42 235.97L155.72 235.97"/>
<path d="M230.42 300.01L230.42 235.97"/>
<path d="M155.72 300.01L230.42 300.01"/>
<path d="M155.72 235.97L155.72 300.01"/>
<path d="M400.73 171.33L394.63 171.33"/>
<path d="M400.73 178.95L400.73 171.33"/>
<path d="M508.52 178.95L514.62 178.95"/>
<path d="M514.62 92.81L514.62 178.95"/>
<path d="M508.52 92.81L514.62 92.81"/>
<path d="M508.52 86.71L508.52 92.81"/>
<path d="M508.52 86.71L496.78 86.71"/>
<path d="M496.78 86.71L496.78 92.81"/>
<path d="M484.58 80.61L490.68 80.61"/>
<path d="M490.68 80.61L491.5 83.66M491.5 83.66L493.73 85.89M493.73 85.89L496.78 86.71"/>
<path d="M490.68 29.69L484.58 29.69"/>
<path d="M490.68 80.61L490.68 29.69"/>
<path d="M484.58 29.4L484.58 14.44"/>
<path d="M484.58 14.44L472.69 14.44"/>
<path d="M472.69 14.45L472.69 29.69"/>
<path d="M472.69 95.86L468.24 82.72M468.24 82.72L466.65 74.51"/>
<path d="M472.69 29.69L466.59 29.69"/>
<path d="M466.59 74.51L466.59 29.69"/>
<path d="M428.17 63.48L428.17 74.51"/>
<path d="M428.17 50.12L428.17 63.48"/>
<path d="M367.18 50.12L428.17 50.12"/>
<path d="M367.18 95.86L367.18 50.12"/>
<path d="M466.65 74.51L428.17 74.51"/>
<path d="M508.52 185.05L511.57 184.23M511.57 184.23L513.8 182M513.8 182L514.62 178.95"/>
<path d="M394.63 178.95L400.73 178.95"/>
<path d="M354.99 115.68L354.99 109.58"/>
<path d="M263.51 109.58L354.99 109.58"/>
<path d="M354.99 109.58L358.04 108.76M358.04 108.76L360.27 106.53M360.27 106.53L361.08 103.48"/>
<path d="M217.77 39.94L217.77 40.97"/>
<path d="M217.77 39.94L217.77 32.01"/>
<path d="M217.77 28.77L217.77 32.01"/>
<path d="M217.77 40.97L217.77 50.12"/>
<path d="M366.69 44.02L367.18 40.97"/>
<path d="M367.18 40.97L367.18 50.12"/>
<path d="M394.63 39.94L223.87 39.94"/>
<path d="M223.87 39.94L223.87 40.97"/>
<path d="M367.18 40.97L394.63 40.97"/>
<path d="M394.63 39.94L394.63 40.97"/>
<path d="M217.77 40.97L223.87 40.97"/>
<path d="M223.87 48.96L220.06 50.12"/>
<path d="M466.59 29.69L466.59 20.54"/>
<path d="M173.25 38.84L205.57 38.84"/>
<path d="M173.25 38.84L170.72 32.74"/>
<path d="M158 45.46L170.72 32.74"/>
<path d="M170.72 32.74L199.47 32.74"/>
<path d="M199.47 32.74L199.47 23.07"/>
<path d="M199.47 23.07L196.94 20.54"/>
<path d="M201.26 16.23L196.94 20.54"/>
<path d="M205.57 20.54L201.26 16.23"/>
<path d="M111.04 303.21L109.98 303.21"/>
<path d="M109.98 303.21L106.93 304.03M106.93 304.03L104.69 306.26M104.69 306.26L103.88 309.31"/>
<path d="M103.88 309.31L103.88 319.98"/>
<path d="M103.88 319.98L105.66 324.29M105.66 324.29L109.98 326.08"/>
<path d="M109.98 326.08L508.52 326.08"/>
<path d="M508.52 326.08L511.57 325.26M511.57 325.26L513.8 323.03M513.8 323.03L514.62 319.98"/>
<path d="M514.62 319.98L514.62 309.31"/>
<path d="M514.62 309.31L513.8 306.26M513.8 306.26L511.57 304.03M511.57 304.03L508.52 303.21"/>
<path d="M508.52 303.21L507.45 303.21"/>
<path d="M111.04 313.12L112.83 317.43M112.83 317.43L117.14 319.22"/>
<path d="M111.04 313.12L117.14 313.12"/>
<path d="M501.35 313.12L507.45 313.12"/>
<path d="M501.35 319.22L504.4 318.4M504.4 318.4L506.63 316.17M506.63 316.17L507.45 313.12"/>
<path d="M501.35 319.22L501.35 313.12"/>
<path d="M117.14 313.12L117.14 319.22"/>
<path d="M117.14 319.22L501.35 319.22"/>
<path d="M405.45 253.51L388.07 235.97"/>
<path d="M445.4 253.51L405.45 253.51"/>
<path d="M445.4 253.51L462.78 235.97"/>
<path d="M445.4 282.48L445.4 253.51"/>
<path d="M445.4 282.48L462.78 300.01"/>
<path d="M405.45 282.48L445.4 282.48"/>
<path d="M405.45 282.48L388.07 300.01"/>
<path d="M405.45 253.51L405.45 282.48"/>
<path d="M328 253.51L310.62 235.97"/>
<path d="M367.94 253.51L328 253.51"/>
<path d="M367.94 253.51L385.33 235.97"/>
<path d="M367.94 282.48L367.94 253.51"/>
<path d="M367.94 282.48L385.33 300.01"/>
<path d="M328 282.48L367.94 282.48"/>
<path d="M328 282.48L310.62 300.01"/>
<path d="M328 253.51L328 282.48"/>
<path d="M250.55 253.51L233.17 235.97"/>
<path d="M290.49 253.51L250.55 253.51"/>
<path d="M290.49 253.51L307.87 235.97"/>
<path d="M290.49 282.48L290.49 253.51"/>
<path d="M290.49 282.48L307.87 300.01"/>
<path d="M250.55 282.48L290.49 282.48"/>
<path d="M250.55 282.48L233.17 300.01"/>
<path d="M250.55 253.51L250.55 282.48"/>
<path d="M173.09 253.51L155.72 235.97"/>
<path d="M213.04 253.51L173.09 253.51"/>
<path d="M213.04 253.51L230.42 235.97"/>
<path d="M213.04 282.48L213.04 253.51"/>
<path d="M213.04 282.48L230.42 300.01"/>
<path d="M173.09 282.48L213.04 282.48"/>
<path d="M173.09 282.48L155.72 300.01"/>
<path d="M173.09 253.51L173.09 282.48"/>
<path d="M514.62 92.81L513.8 89.76M513.8 89.76L511.57 87.53M511.57 87.53L508.52 86.71"/>
<path d="M490.68 20.54L489.86 17.49M489.86 17.49L487.63 15.26M487.63 15.26L484.58 14.44"/>
<path d="M490.68 20.54L490.68 29.69"/>
<path d="M421.55 14.44L460.49 14.44"/>
<path d="M460.49 14.44L472.69 14.44"/>
<path d="M472.69 14.44L468.38 16.23M468.38 16.23L466.59 20.54"/>
<path d="M434.27 67.8L434.27 74.51"/>
<path d="M434.27 56.22L434.27 67.8"/>
<path d="M434.27 56.22L433.45 53.17M433.45 53.17L431.22 50.94M431.22 50.94L428.17 50.12"/>
<path d="M217.77 39.94L223.87 39.94"/>
<path d="M223.87 26.73L220.82 27.44M220.82 27.44L218.58 29.37M218.58 29.37L217.77 32.01"/>
<path d="M223.87 39.94L223.87 26.73"/>
<path d="M223.87 23.49L219.55 25.04M219.55 25.04L217.77 28.77"/>
<path d="M223.87 23.49L223.87 26.73"/>
<path d="M233.01 13.53L227.18 14.69M227.18 14.69L222.23 17.99M222.23 17.99L218.93 22.94M218.93 22.94L217.77 28.77"/>
<path d="M394.63 40.97L394.63 48.96"/>
<path d="M394.63 48.96L394.81 50.12"/>
<path d="M394.63 26.73L223.87 26.73"/>
<path d="M394.63 39.94L394.63 26.73"/>
<path d="M394.63 39.94L400.73 39.94"/>
<path d="M394.63 40.97L400.73 40.97"/>
<path d="M400.73 39.94L400.73 40.97"/>
<path d="M484.12 371.82L493.55 370.33M493.55 370.33L502.05 366M502.05 366L508.79 359.25M508.79 359.25L513.12 350.75M513.12 350.75L514.62 341.33"/>
<path d="M449.51 371.82L168.98 371.82"/>
<path d="M134.37 371.82L168.98 371.82"/>
<path d="M449.51 371.82L484.12 371.82"/>
<path d="M103.88 341.33L105.37 350.75M105.37 350.75L109.7 359.25M109.7 359.25L116.45 366M116.45 366L124.95 370.33M124.95 370.33L134.37 371.82"/>
<path d="M103.88 319.98L103.88 341.33"/>
<path d="M460.49 45.46L460.49 20.54"/>
<path d="M460.49 45.46L466.59 57.66"/>
<path d="M460.49 20.54L466.59 20.54"/>
<path d="M460.49 45.46L456.18 49.77"/>
<path d="M456.18 49.77L466.59 60.18"/>
<path d="M445.25 38.84L456.18 49.77"/>
<path d="M514.62 341.33L514.62 319.98"/>
<path d="M205.57 38.84L205.57 20.54"/>
<path d="M205.57 38.84L199.47 32.74"/>
<path d="M205.57 20.54L199.47 23.07"/>
<path d="M400.73 28.77L400.73 32.01"/>
<path d="M400.73 39.94L400.73 32.01"/>
<path d="M400.73 40.97L400.73 50.12"/>
<path d="M421.55 14.44L417.24 16.23"/>
<path d="M421.55 20.54L421.55 14.44"/>
<path d="M421.55 20.54L460.49 20.54"/>
<path d="M460.49 20.54L460.49 14.44"/>
<path d="M228.44 15.57L225.09 18.92M225.09 18.92L223.87 23.49"/>
<path d="M394.63 23.49L393.4 18.92M393.4 18.92L390.05 15.57"/>
<path d="M390.05 15.57L228.44 15.57"/>
<path d="M394.63 23.49L394.63 26.73"/>
<path d="M233.01 13.52L228.45 15.58"/>
<path d="M385.48 13.53L233.01 13.53"/>
<path d="M253.75 1.94L253.75 13.53"/>
<path d="M364.74 1.94L364.74 13.53"/>
<path d="M398.44 50.12L394.63 48.96"/>
<path d="M400.73 32.01L399.91 29.37M399.91 29.37L397.68 27.44M397.68 27.44L394.63 26.73"/>
<path d="M484.12 371.82L484.12 365.72"/>
<path d="M514.62 341.33L508.52 341.33"/>
<path d="M484.12 365.72L493.46 363.87M493.46 363.87L501.37 358.58M501.37 358.58L506.66 350.66M506.66 350.66L508.52 341.33"/>
<path d="M443.41 365.72L445.2 370.03M445.2 370.03L449.51 371.82"/>
<path d="M168.98 371.82L172.03 371M172.03 371L174.26 368.77M174.26 368.77L175.08 365.72"/>
<path d="M134.37 371.82L134.37 365.72"/>
<path d="M168.98 371.82L168.98 365.72"/>
<path d="M134.37 365.72L168.98 365.72"/>
<path d="M449.51 365.72L484.12 365.72"/>
<path d="M449.51 365.72L449.51 371.82"/>
<path d="M103.88 341.33L109.98 341.33"/>
<path d="M109.98 341.33L111.83 350.66M111.83 350.66L117.12 358.58M117.12 358.58L125.03 363.87M125.03 363.87L134.37 365.72"/>
<path d="M109.98 326.08L109.98 341.33"/>
<path d="M421.55 20.54L419.02 23.07"/>
<path d="M419.02 23.07L419.02 32.74"/>
<path d="M419.02 32.74L447.77 32.74"/>
<path d="M447.77 32.74L460.49 45.46"/>
<path d="M445.25 38.84L447.77 32.74"/>
<path d="M412.92 38.84L445.25 38.84"/>
<path d="M508.52 341.33L508.52 326.08"/>
<path d="M443.42 326.08L443.42 365.72"/>
<path d="M443.42 365.72L449.51 365.72"/>
<path d="M449.51 326.08L449.51 365.72"/>
<path d="M168.98 365.72L168.98 326.08"/>
<path d="M168.98 365.72L175.08 365.72"/>
<path d="M175.08 365.72L175.08 326.08"/>
<path d="M400.73 28.77L399.56 22.94M399.56 22.94L396.26 17.99M396.26 17.99L391.31 14.69M391.31 14.69L385.48 13.53"/>
<path d="M400.73 28.77L399.58 25.69M399.58 25.69L396.46 23.74M396.46 23.74L394.63 23.49"/>
<path d="M417.24 16.23L412.92 20.54"/>
<path d="M421.55 20.54L417.24 16.23"/>
<path d="M390.04 15.58L385.48 13.51"/>
<path d="M253.75 1.94L364.74 1.94"/>
<path d="M412.92 20.54L419.02 23.07"/>
<path d="M412.92 38.84L419.02 32.74"/>
<path d="M412.92 20.54L412.92 38.84"/>
<path d="M257.41 56.22L251.31 50.12"/>
<path d="M361.08 56.22L367.18 50.12"/>
<path d="M367.18 50.12L361.08 56.22"/>
<path d="M162.32 49.62L151.93 57.37"/>
</g>
</g>
</svg>
