<?xml version="1.0" standalone="no"?><svg xmlns="http://www.w3.org/2000/svg" width="600.000" height="450.000" viewBox="0.0 0.0 600.000 450.000" version="1.1">
<title>Acme Converter - Post-processed with EDS-Designer: 14.44 (info@symca.com)</title>
<desc>Acme Converter - Post-processed with EDS-Designer: 14.44 (info@symca.com)</desc>
<g id="EDS_STYLE_GROUP" fill="none" stroke="black" stroke-width="1.0">
<g id="0" display="visible">
<path d="M206.8 393.07L206.8 353.63M208.68 353.63L208.68 393.07M201.17 353.63L223.7 353.63M223.7 353.63L229.33 355.51M229.33 355.51L231.21 357.39M231.21 357.39L233.09 361.15M233.09 361.15L233.09 364.9M233.09 364.9L231.21 368.66M231.21 368.66L229.33 370.53M229.33 370.53L223.7 372.41M223.7 353.63L227.46 355.51M227.46 355.51L229.33 357.39M229.33 357.39L231.21 361.15M231.21 361.15L231.21 364.9M231.21 364.9L229.33 368.66M229.33 368.66L227.46 370.53M227.46 370.53L223.7 372.41M208.68 372.41L223.7 372.41M223.7 372.41L229.33 374.29M229.33 374.29L231.21 376.17M231.21 376.17L233.09 379.92M233.09 379.92L233.09 385.56M233.09 385.56L231.21 389.31M231.21 389.31L229.33 391.19M229.33 391.19L223.7 393.07M223.7 393.07L201.17 393.07M223.7 372.41L227.46 374.29M227.46 374.29L229.33 376.17M229.33 376.17L231.21 379.92M231.21 379.92L231.21 385.56M231.21 385.56L229.33 389.31M229.33 389.31L227.46 391.19M227.46 391.19L223.7 393.07M248.11 393.07L248.11 353.63M249.99 353.63L249.99 393.07M242.48 353.63L255.62 353.63M242.48 393.07L270.64 393.07M270.64 393.07L270.64 381.8M270.64 381.8L268.77 393.07M293.18 353.63L280.03 393.07M293.18 353.63L306.32 393.07M293.18 359.27L304.44 393.07M283.79 381.8L300.69 381.8M276.28 393.07L287.54 393.07M298.81 393.07L310.08 393.07M342 359.27L343.88 364.9M343.88 364.9L343.88 353.63M343.88 353.63L342 359.27M342 359.27L338.24 355.51M338.24 355.51L332.61 353.63M332.61 353.63L328.85 353.63M328.85 353.63L323.22 355.51M323.22 355.51L319.47 359.27M319.47 359.27L317.59 363.02M317.59 363.02L315.71 368.66M315.71 368.66L315.71 378.05M315.71 378.05L317.59 383.68M317.59 383.68L319.47 387.43M319.47 387.43L323.22 391.19M323.22 391.19L328.85 393.07M328.85 393.07L332.61 393.07M332.61 393.07L338.24 391.19M338.24 391.19L342 387.43M342 387.43L343.88 383.68M328.85 353.63L325.1 355.51M325.1 355.51L321.34 359.27M321.34 359.27L319.47 363.02M319.47 363.02L317.59 368.66M317.59 368.66L317.59 378.05M317.59 378.05L319.47 383.68M319.47 383.68L321.34 387.43M321.34 387.43L325.1 391.19M325.1 391.19L328.85 393.07M360.78 393.07L360.78 353.63M362.65 353.63L362.65 393.07M387.06 353.63L362.65 378.05M372.04 370.53L387.06 393.07M370.17 370.53L385.19 393.07M355.14 353.63L368.29 353.63M379.55 353.63L390.82 353.63M355.14 393.07L368.29 393.07M379.55 393.07L390.82 393.07"/>
<path d="M541.14 146.48L526.12 146.48M526.12 146.48L524.62 160M524.62 160L526.12 158.5M526.12 158.5L530.63 157M530.63 157L535.13 157M535.13 157L539.64 158.5M539.64 158.5L542.64 161.5M542.64 161.5L544.15 166.01M544.15 166.01L544.15 169.01M544.15 169.01L542.64 173.52M542.64 173.52L539.64 176.52M539.64 176.52L535.13 178.03M535.13 178.03L530.63 178.03M530.63 178.03L526.12 176.52M526.12 176.52L524.62 175.02M524.62 175.02L523.11 172.02"/>
<path d="M55.85 157.42L58.86 155.92M58.86 155.92L63.37 151.42M63.37 151.42L63.37 182.96"/>
<path d="M492.4 166.4L492.4 163.2M492.4 161.93L492.4 161.71M492.4 160.44L492.4 155.33M492.4 154.05L492.4 153.84M492.4 152.56L492.4 149.36"/>
<path d="M99.65 149.36L99.65 152.56M99.65 153.84L99.65 154.05M99.65 155.33L99.65 160.44M99.65 161.72L99.65 161.93M99.65 163.21L99.65 166.41"/>
<path d="M513.69 197.63L513.69 182.72M513.69 176.76L513.69 175.77M513.69 169.81L513.69 145.96M513.69 139.99L513.69 139M513.69 133.04L513.69 118.13"/>
<path d="M78.35 118.13L78.35 133.04M78.35 139L78.35 140M78.35 145.96L78.35 169.81M78.35 175.77L78.35 176.77M78.35 182.73L78.35 197.64"/>
<path d="M280.88 299.84L286.56 299.84M288.83 299.84L289.21 299.84M291.48 299.84L300.57 299.84M302.84 299.84L303.22 299.84M305.49 299.84L311.17 299.84"/>
<path d="M150.12 175.84L150.12 178.01M150.12 178.88L150.12 179.03M150.12 179.89L150.12 183.36M150.12 184.23L150.12 184.38M150.12 185.24L150.12 187.41"/>
<path d="M278.34 178.23L278.34 180.36M278.34 181.21L278.34 181.35M278.34 182.21L278.34 185.62M278.34 186.47L278.34 186.61M278.34 187.46L278.34 189.59"/>
<path d="M305.82 189.58L305.82 187.46M305.82 186.6L305.82 186.46M305.82 185.61L305.82 182.2M305.82 181.35L305.82 181.21M305.82 180.36L305.82 178.23"/>
<path d="M275.59 188.64L281.78 188.64M284.25 188.64L284.66 188.64M287.13 188.64L297.03 188.64M299.5 188.64L299.91 188.64M302.38 188.64L308.57 188.64"/>
<path d="M99.65 164.98L101.23 179.02M101.23 179.02L105.9 192.35M105.9 192.35L113.41 204.32M113.41 204.32L123.4 214.31M123.4 214.31L135.37 221.82M135.37 221.82L148.7 226.49M148.7 226.49L162.74 228.07"/>
<path d="M162.74 228.07L429.31 228.07"/>
<path d="M429.31 228.07L443.35 226.49M443.35 226.49L456.68 221.82M456.68 221.82L468.64 214.31M468.64 214.31L478.63 204.32M478.63 204.32L486.15 192.35M486.15 192.35L490.82 179.02M490.82 179.02L492.4 164.98"/>
<path d="M492.4 164.98L492.4 150.78"/>
<path d="M492.4 150.78L490.82 136.74M490.82 136.74L486.15 123.41M486.15 123.41L478.63 111.45M478.63 111.45L468.64 101.46M468.64 101.46L456.68 93.94M456.68 93.94L443.35 89.27M443.35 89.27L429.31 87.69"/>
<path d="M429.31 87.69L162.74 87.69"/>
<path d="M162.74 87.69L148.7 89.27M148.7 89.27L135.37 93.94M135.37 93.94L123.4 101.46M123.4 101.46L113.41 111.45M113.41 111.45L105.9 123.41M105.9 123.41L101.23 136.74M101.23 136.74L99.65 150.78"/>
<path d="M99.65 150.78L99.65 164.98"/>
<path d="M490.22 150.78L490.22 164.98"/>
<path d="M429.31 225.89L442.86 224.37M442.86 224.37L455.74 219.86M455.74 219.86L467.29 212.6M467.29 212.6L476.93 202.96M476.93 202.96L484.19 191.41M484.19 191.41L488.69 178.53M488.69 178.53L490.22 164.98"/>
<path d="M429.31 225.89L162.74 225.89"/>
<path d="M101.83 164.98L103.35 178.53M103.35 178.53L107.86 191.41M107.86 191.41L115.12 202.96M115.12 202.96L124.76 212.6M124.76 212.6L136.31 219.86M136.31 219.86L149.19 224.37M149.19 224.37L162.74 225.89"/>
<path d="M101.83 164.98L101.83 150.78"/>
<path d="M162.74 89.87L149.19 91.4M149.19 91.4L136.31 95.9M136.31 95.9L124.76 103.16M124.76 103.16L115.12 112.8M115.12 112.8L107.86 124.35M107.86 124.35L103.35 137.23M103.35 137.23L101.83 150.78"/>
<path d="M162.74 89.87L429.31 89.87"/>
<path d="M490.22 150.78L488.69 137.23M488.69 137.23L484.19 124.35M484.19 124.35L476.93 112.8M476.93 112.8L467.29 103.16M467.29 103.16L455.74 95.9M455.74 95.9L442.86 91.4M442.86 91.4L429.31 89.87"/>
<path d="M91.76 164.98L99.65 164.98"/>
<path d="M91.76 164.98L93.54 180.77M93.54 180.77L98.79 195.78M98.79 195.78L107.25 209.23M107.25 209.23L118.49 220.47M118.49 220.47L131.94 228.93M131.94 228.93L146.95 234.18M146.95 234.18L162.74 235.96"/>
<path d="M162.74 235.96L162.74 228.07"/>
<path d="M162.74 235.96L429.31 235.96"/>
<path d="M429.31 235.96L429.31 228.07"/>
<path d="M429.31 235.96L445.1 234.18M445.1 234.18L460.1 228.93M460.1 228.93L473.56 220.47M473.56 220.47L484.8 209.23M484.8 209.23L493.26 195.78M493.26 195.78L498.51 180.77M498.51 180.77L500.29 164.98"/>
<path d="M500.29 164.98L492.4 164.98"/>
<path d="M500.29 164.98L500.29 150.78"/>
<path d="M500.29 150.78L492.4 150.78"/>
<path d="M500.29 150.78L498.51 134.99M498.51 134.99L493.26 119.99M493.26 119.99L484.8 106.53M484.8 106.53L473.56 95.29M473.56 95.29L460.1 86.83M460.1 86.83L445.1 81.58M445.1 81.58L429.31 79.8"/>
<path d="M429.31 79.8L429.31 87.69"/>
<path d="M429.31 79.8L162.74 79.8"/>
<path d="M162.74 79.8L162.74 87.69"/>
<path d="M162.74 79.8L146.95 81.58M146.95 81.58L131.94 86.83M131.94 86.83L118.49 95.29M118.49 95.29L107.25 106.53M107.25 106.53L98.79 119.99M98.79 119.99L93.54 134.99M93.54 134.99L91.76 150.78"/>
<path d="M91.76 150.78L99.65 150.78"/>
<path d="M91.76 150.78L91.76 164.98"/>
<path d="M490.22 150.78L482.94 150.78"/>
<path d="M482.94 150.78L482.94 164.98"/>
<path d="M490.22 164.98L482.94 164.98"/>
<path d="M429.31 218.61L443.19 216.78M443.19 216.78L456.12 211.42M456.12 211.42L467.23 202.9M467.23 202.9L475.75 191.79M475.75 191.79L481.11 178.86M481.11 178.86L482.93 164.98"/>
<path d="M429.31 225.89L429.31 218.61"/>
<path d="M429.31 218.61L162.74 218.61"/>
<path d="M162.74 225.89L162.74 218.61"/>
<path d="M109.11 164.98L110.94 178.86M110.94 178.86L116.3 191.79M116.3 191.79L124.82 202.9M124.82 202.9L135.93 211.42M135.93 211.42L148.86 216.78M148.86 216.78L162.74 218.61"/>
<path d="M101.83 164.98L109.11 164.98"/>
<path d="M109.11 164.98L109.11 150.78"/>
<path d="M101.83 150.78L109.11 150.78"/>
<path d="M162.74 97.15L148.86 98.98M148.86 98.98L135.93 104.34M135.93 104.34L124.82 112.86M124.82 112.86L116.3 123.97M116.3 123.97L110.94 136.9M110.94 136.9L109.11 150.78"/>
<path d="M162.74 89.87L162.74 97.15"/>
<path d="M162.74 97.15L429.31 97.15"/>
<path d="M429.31 89.87L429.31 97.15"/>
<path d="M482.93 150.78L481.11 136.9M481.11 136.9L475.75 123.97M475.75 123.97L467.23 112.86M467.23 112.86L456.12 104.34M456.12 104.34L443.19 98.98M443.19 98.98L429.31 97.15"/>
<path d="M188.77 309.3L188.77 260.41"/>
<path d="M188.77 260.41L188.77 235.96"/>
<path d="M286.56 258.83L286.56 265.87"/>
<path d="M244.76 274.6L347.29 274.6"/>
<path d="M347.29 265.87L347.29 274.6"/>
<path d="M347.29 265.87L305.49 265.87"/>
<path d="M305.49 265.87L305.49 258.83"/>
<path d="M286.56 265.87L244.76 265.87"/>
<path d="M244.76 274.6L244.76 265.87"/>
<path d="M403.28 260.41L403.28 235.96"/>
<path d="M403.28 260.41L403.28 309.3"/>
<path d="M273.94 235.96L273.94 257.25"/>
<path d="M275.52 258.83L289.71 258.83"/>
<path d="M273.94 257.25L274.15 258.04M274.15 258.04L274.73 258.62M274.73 258.62L275.52 258.83"/>
<path d="M289.71 235.96L289.71 258.83"/>
<path d="M302.33 235.96L302.33 258.83"/>
<path d="M289.71 258.83L302.33 258.83"/>
<path d="M318.11 235.96L318.11 257.25"/>
<path d="M302.33 258.83L316.53 258.83"/>
<path d="M316.53 258.83L317.32 258.62M317.32 258.62L317.89 258.04M317.89 258.04L318.11 257.25"/>
<path d="M403.28 249.37L455.33 249.37"/>
<path d="M455.33 249.37L470.44 247.38M470.44 247.38L484.51 241.55M484.51 241.55L496.6 232.27M496.6 232.27L505.87 220.18M505.87 220.18L511.7 206.11M511.7 206.11L513.69 191"/>
<path d="M513.69 191L513.69 124.76"/>
<path d="M513.69 124.76L511.7 109.65M511.7 109.65L505.87 95.58M505.87 95.58L496.6 83.49M496.6 83.49L484.51 74.22M484.51 74.22L470.44 68.39M470.44 68.39L455.33 66.4"/>
<path d="M455.33 66.4L318.11 66.4"/>
<path d="M273.94 66.4L136.71 66.4"/>
<path d="M136.71 66.4L121.61 68.39M121.61 68.39L107.53 74.22M107.53 74.22L95.45 83.49M95.45 83.49L86.17 95.58M86.17 95.58L80.34 109.65M80.34 109.65L78.35 124.76"/>
<path d="M78.35 124.76L78.35 191"/>
<path d="M78.35 191L80.34 206.11M80.34 206.11L86.17 220.18M86.17 220.18L95.45 232.27M95.45 232.27L107.53 241.55M107.53 241.55L121.61 247.38M121.61 247.38L136.71 249.37"/>
<path d="M136.71 249.37L188.77 249.37"/>
<path d="M302.33 56.93L316.53 56.93"/>
<path d="M318.11 58.51L318.11 79.8"/>
<path d="M318.11 58.51L317.89 57.72M317.89 57.72L317.32 57.14M317.32 57.14L316.53 56.93"/>
<path d="M302.33 56.93L302.33 79.8"/>
<path d="M289.71 56.93L289.71 79.8"/>
<path d="M289.71 56.93L302.33 56.93"/>
<path d="M273.94 58.51L273.94 79.8"/>
<path d="M275.52 56.93L289.71 56.93"/>
<path d="M275.52 56.93L274.73 57.14M274.73 57.14L274.15 57.72M274.15 57.72L273.94 58.51"/>
<path d="M478.83 150.78L482.94 150.78"/>
<path d="M478.83 164.98L478.83 150.78"/>
<path d="M478.83 164.98L482.94 164.98"/>
<path d="M429.31 214.51L442.12 212.82M442.12 212.82L454.07 207.87M454.07 207.87L464.33 200M464.33 200L472.2 189.74M472.2 189.74L477.15 177.8M477.15 177.8L478.83 164.98"/>
<path d="M429.31 214.51L429.31 218.61"/>
<path d="M162.74 214.51L429.31 214.51"/>
<path d="M162.74 214.51L162.74 218.61"/>
<path d="M113.21 164.98L114.9 177.8M114.9 177.8L119.85 189.74M119.85 189.74L127.72 200M127.72 200L137.98 207.87M137.98 207.87L149.92 212.82M149.92 212.82L162.74 214.51"/>
<path d="M113.21 164.98L109.11 164.98"/>
<path d="M113.21 157.88L113.21 164.98"/>
<path d="M113.21 150.78L113.21 157.88"/>
<path d="M113.21 150.78L109.11 150.78"/>
<path d="M162.74 101.26L149.92 102.94M149.92 102.94L137.98 107.89M137.98 107.89L127.72 115.76M127.72 115.76L119.85 126.02M119.85 126.02L114.9 137.96M114.9 137.96L113.21 150.78"/>
<path d="M162.74 101.26L162.74 97.15"/>
<path d="M429.31 101.26L162.74 101.26"/>
<path d="M429.31 101.26L429.31 97.15"/>
<path d="M478.83 150.78L477.15 137.96M477.15 137.96L472.2 126.02M472.2 126.02L464.33 115.76M464.33 115.76L454.07 107.89M454.07 107.89L442.12 102.94M442.12 102.94L429.31 101.26"/>
<path d="M188.77 309.3L190.15 312.65M190.15 312.65L193.5 314.04"/>
<path d="M188.77 309.3L193.5 309.3"/>
<path d="M193.5 309.3L193.5 260.41"/>
<path d="M193.5 260.41L188.77 260.41"/>
<path d="M193.5 260.41L240.03 260.41"/>
<path d="M286.56 260.41L240.03 260.41"/>
<path d="M240.03 263.14L240.03 260.41"/>
<path d="M240.03 263.14L240.66 264.5M240.66 264.5L242.39 265.5M242.39 265.5L244.76 265.87"/>
<path d="M244.76 274.6L244.76 279.33"/>
<path d="M244.76 279.33L347.29 279.33"/>
<path d="M347.29 279.33L347.29 274.6"/>
<path d="M347.29 265.87L350.63 265.07M350.63 265.07L352.02 263.14"/>
<path d="M347.29 274.6L352.02 274.6"/>
<path d="M352.02 263.14L352.02 274.6"/>
<path d="M352.02 260.41L352.02 263.14"/>
<path d="M352.02 260.41L305.49 260.41"/>
<path d="M240.03 274.6L240.03 263.14"/>
<path d="M240.03 274.6L244.76 274.6"/>
<path d="M398.55 260.41L352.02 260.41"/>
<path d="M403.28 260.41L398.55 260.41"/>
<path d="M398.55 260.41L398.55 309.3"/>
<path d="M398.55 309.3L403.28 309.3"/>
<path d="M398.55 314.04L400.91 313.4M400.91 313.4L402.65 311.67M402.65 311.67L403.28 309.3"/>
<path d="M403.28 254.1L455.33 254.1"/>
<path d="M455.33 254.1L455.33 249.37"/>
<path d="M455.33 254.1L469.37 252.52M469.37 252.52L482.71 247.85M482.71 247.85L494.67 240.33M494.67 240.33L504.66 230.34M504.66 230.34L512.18 218.38M512.18 218.38L516.84 205.04M516.84 205.04L518.42 191"/>
<path d="M518.42 191L513.69 191"/>
<path d="M518.42 191L518.42 124.76"/>
<path d="M518.42 124.76L513.69 124.76"/>
<path d="M518.42 124.76L516.84 110.72M516.84 110.72L512.18 97.38M512.18 97.38L504.66 85.42M504.66 85.42L494.67 75.43M494.67 75.43L482.71 67.91M482.71 67.91L469.37 63.25M469.37 63.25L455.33 61.66"/>
<path d="M455.33 61.66L455.33 66.4"/>
<path d="M455.33 61.66L318.11 61.66"/>
<path d="M273.94 61.66L136.71 61.66"/>
<path d="M136.71 61.66L136.71 66.4"/>
<path d="M136.71 61.66L122.67 63.25M122.67 63.25L109.34 67.91M109.34 67.91L97.38 75.43M97.38 75.43L87.39 85.42M87.39 85.42L79.87 97.38M79.87 97.38L75.2 110.72M75.2 110.72L73.62 124.76"/>
<path d="M73.62 124.76L78.35 124.76"/>
<path d="M73.62 124.76L73.62 191"/>
<path d="M73.62 191L78.35 191"/>
<path d="M73.62 191L75.2 205.04M75.2 205.04L79.87 218.38M79.87 218.38L87.39 230.34M87.39 230.34L97.38 240.33M97.38 240.33L109.34 247.85M109.34 247.85L122.67 252.52M122.67 252.52L136.71 254.1"/>
<path d="M136.71 254.1L136.71 249.37"/>
<path d="M136.71 254.1L188.77 254.1"/>
<path d="M193.5 309.3L193.5 314.03"/>
<path d="M193.5 314.03L240.82 314.03"/>
<path d="M193.5 309.3L240.82 309.3"/>
<path d="M240.82 309.3L240.82 279.33"/>
<path d="M244.76 279.33L240.82 279.33"/>
<path d="M240.03 274.6L241.41 277.95M241.41 277.95L244.76 279.33"/>
<path d="M347.29 279.33L351.23 279.33"/>
<path d="M347.29 279.33L349.65 278.7M349.65 278.7L351.38 276.97M351.38 276.97L352.02 274.6"/>
<path d="M351.23 309.3L398.55 309.3"/>
<path d="M351.23 309.3L351.23 279.33"/>
<path d="M398.55 314.03L398.55 309.3"/>
<path d="M351.23 314.03L398.55 314.03"/>
<path d="M461.64 113.27L461.64 202.49"/>
<path d="M450.6 207.24L456.91 203.41"/>
<path d="M450.6 209.7L450.6 207.24"/>
<path d="M456.91 109.66L456.91 206.1"/>
<path d="M115.42 164.98L116.5 175.02"/>
<path d="M115.42 164.98L113.21 164.98"/>
<path d="M116.19 177.96L116.04 181.48"/>
<path d="M116.19 177.96L116.5 175.02"/>
<path d="M115.42 150.78L113.21 150.78"/>
<path d="M115.42 164.98L115.42 150.78"/>
<path d="M162.74 103.46L150.49 105.08M150.49 105.08L139.08 109.8M139.08 109.8L129.28 117.32M129.28 117.32L121.76 127.12M121.76 127.12L117.03 138.54M117.03 138.54L115.42 150.78"/>
<path d="M162.74 103.46L162.74 101.26"/>
<path d="M406.04 124.01L414.32 101.26"/>
<path d="M429.31 103.46L429.31 101.26"/>
<path d="M429.31 103.46L413.52 103.46"/>
<path d="M367.81 103.46L162.74 103.46"/>
<path d="M367 101.26L375.28 124.01"/>
<path d="M375.28 124.01L377.02 126.27M377.02 126.27L379.73 127.12"/>
<path d="M379.73 127.12L401.59 127.12"/>
<path d="M401.59 127.12L404.31 126.27M404.31 126.27L406.04 124.01"/>
<path d="M456.91 112.35L448.39 107.48M448.39 107.48L439.06 104.48M439.06 104.48L429.31 103.46"/>
<path d="M240.82 314.03L240.82 309.3"/>
<path d="M351.23 309.3L351.23 314.03"/>
<path d="M280.25 299.84L280.25 279.33"/>
<path d="M283.4 299.56L281.17 299.64M281.17 299.64L280.25 299.84"/>
<path d="M283.4 299.56L283.4 279.33"/>
<path d="M283.4 299.56L308.64 299.56"/>
<path d="M308.64 279.33L308.64 299.56"/>
<path d="M311.8 299.84L310.87 299.64M310.87 299.64L308.64 299.56"/>
<path d="M311.8 279.33L311.8 299.84"/>
<path d="M449.66 207.7L450.6 207.24"/>
<path d="M449.66 207.7L448.23 206.7"/>
<path d="M437.18 210.72L448.23 206.7"/>
<path d="M437.6 213.09L437.18 210.72"/>
<path d="M437.6 213.09L450.6 208.35"/>
<path d="M357.54 213.09L437.6 213.09"/>
<path d="M357.54 213.09L226.62 213.09"/>
<path d="M191.91 213.09L226.62 213.09"/>
<path d="M148.07 187.61L156.08 198.16M156.08 198.16L166.56 206.26M166.56 206.26L178.78 211.35M178.78 211.35L191.91 213.09"/>
<path d="M147.76 186.44L148.07 187.61"/>
<path d="M147.76 176.81L147.76 186.44"/>
<path d="M150.12 174.44L148.94 174.76M148.94 174.76L148.07 175.63M148.07 175.63L147.76 176.81"/>
<path d="M150.12 174.44L456.91 174.44"/>
<path d="M456.91 173.65L455.33 173.65"/>
<path d="M455.33 173.65L401.7 173.65"/>
<path d="M401.7 173.65L398.55 173.65"/>
<path d="M398.55 157.88L398.55 173.65"/>
<path d="M382.78 157.88L398.55 157.88"/>
<path d="M382.78 173.65L382.78 157.88"/>
<path d="M379.62 173.65L338.61 173.65"/>
<path d="M338.61 173.65L335.46 173.65"/>
<path d="M382.78 173.65L379.62 173.65"/>
<path d="M335.46 157.88L335.46 173.65"/>
<path d="M319.68 157.88L335.46 157.88"/>
<path d="M319.68 173.65L319.68 157.88"/>
<path d="M316.53 173.65L275.52 173.65"/>
<path d="M275.52 173.65L272.36 173.65"/>
<path d="M319.68 173.65L316.53 173.65"/>
<path d="M272.36 157.88L272.36 173.65"/>
<path d="M256.59 157.88L272.36 157.88"/>
<path d="M256.59 173.65L256.59 157.88"/>
<path d="M253.44 173.65L212.43 173.65"/>
<path d="M212.43 173.65L209.27 173.65"/>
<path d="M256.59 173.65L253.44 173.65"/>
<path d="M209.27 157.88L209.27 173.65"/>
<path d="M193.5 157.88L209.27 157.88"/>
<path d="M193.5 173.65L193.5 157.88"/>
<path d="M190.34 173.65L149.33 173.65"/>
<path d="M149.33 173.65L146.18 173.65"/>
<path d="M193.5 173.65L190.34 173.65"/>
<path d="M146.18 157.88L146.18 173.65"/>
<path d="M115.42 157.88L146.18 157.88"/>
<path d="M115.42 154.73L149.33 154.73"/>
<path d="M149.33 154.73L149.33 173.65"/>
<path d="M190.34 173.65L190.34 154.73"/>
<path d="M190.34 154.73L212.43 154.73"/>
<path d="M212.43 154.73L212.43 173.65"/>
<path d="M253.44 173.65L253.44 154.73"/>
<path d="M253.44 154.73L275.52 154.73"/>
<path d="M275.52 154.73L275.52 173.65"/>
<path d="M316.53 173.65L316.53 154.73"/>
<path d="M316.53 154.73L338.61 154.73"/>
<path d="M338.61 154.73L338.61 173.65"/>
<path d="M379.62 173.65L379.62 154.73"/>
<path d="M379.62 154.73L401.7 154.73"/>
<path d="M401.7 154.73L401.7 173.65"/>
<path d="M154.06 146.84L154.06 168.92"/>
<path d="M154.06 146.84L185.61 146.84"/>
<path d="M185.61 146.84L185.61 168.92"/>
<path d="M154.06 168.92L185.61 168.92"/>
<path d="M217.16 146.84L217.16 168.92"/>
<path d="M217.16 146.84L248.7 146.84"/>
<path d="M248.7 146.84L248.7 168.92"/>
<path d="M217.16 168.92L248.7 168.92"/>
<path d="M280.25 146.84L280.25 168.92"/>
<path d="M280.25 146.84L311.8 146.84"/>
<path d="M311.8 146.84L311.8 168.92"/>
<path d="M280.25 168.92L311.8 168.92"/>
<path d="M343.34 146.84L343.34 168.92"/>
<path d="M343.34 146.84L374.89 146.84"/>
<path d="M374.89 146.84L374.89 168.92"/>
<path d="M343.34 168.92L374.89 168.92"/>
<path d="M406.44 146.84L406.44 168.92"/>
<path d="M406.44 146.84L437.98 146.84"/>
<path d="M437.98 146.84L437.98 168.92"/>
<path d="M406.44 168.92L437.98 168.92"/>
<path d="M456.91 142.11L455.33 142.11"/>
<path d="M455.33 142.11L455.33 173.65"/>
<path d="M150.12 174.44L150.12 176.81"/>
<path d="M150.12 176.81L456.91 176.81"/>
<path d="M150.12 176.81L150.12 186.45"/>
<path d="M150.12 186.45L157.76 196.49M157.76 196.49L167.75 204.21M167.75 204.21L179.4 209.07M179.4 209.07L191.91 210.72"/>
<path d="M191.91 210.72L226.62 210.72"/>
<path d="M226.62 210.72L226.62 188.64"/>
<path d="M226.62 188.64L242.73 188.64"/>
<path d="M242.73 188.64L242.73 179.17"/>
<path d="M242.73 179.17L278.34 179.17"/>
<path d="M278.34 179.17L278.34 188.64"/>
<path d="M278.34 188.64L305.82 188.64"/>
<path d="M305.82 188.64L305.82 179.17"/>
<path d="M305.82 179.17L341.43 179.17"/>
<path d="M341.43 179.17L341.43 188.64"/>
<path d="M341.43 188.64L357.54 188.64"/>
<path d="M357.54 188.64L357.54 210.72"/>
<path d="M357.54 210.72L437.18 210.72"/>
<path d="M448.23 206.7L448.23 205.99"/>
<path d="M448.23 205.99L432 205.99"/>
<path d="M432 205.99L432 179.17"/>
<path d="M456.91 179.17L432 179.17"/>
<path d="M179.63 179.17L215.25 179.17"/>
<path d="M215.25 179.17L215.25 205.99"/>
<path d="M215.25 205.99L179.63 205.99"/>
<path d="M179.63 205.99L179.63 179.17"/>
<path d="M368.91 179.17L404.53 179.17"/>
<path d="M404.53 179.17L404.53 205.99"/>
<path d="M404.53 205.99L368.91 205.99"/>
<path d="M368.91 205.99L368.91 179.17"/>
<path d="M434.34 181.51L432 179.17"/>
<path d="M434.4 181.54L434.34 181.51"/>
<path d="M456.91 181.54L434.4 181.54"/>
<path d="M283.4 299.56L283.4 302.98"/>
<path d="M280.25 299.84L281.17 302.07M281.17 302.07L283.4 302.99"/>
<path d="M283.4 302.99L308.64 302.99"/>
<path d="M308.64 302.99L308.64 299.56"/>
<path d="M308.64 302.99L310.22 302.57M310.22 302.57L311.37 301.42M311.37 301.42L311.8 299.84"/>
<path d="M450.6 181.54L450.6 205.99"/>
<path d="M450.6 207.24L450.6 205.99"/>
<path d="M450.6 205.99L448.23 205.99"/>
<path d="M357.54 210.72L357.54 213.09"/>
<path d="M355.17 210.72L355.87 212.39M355.87 212.39L357.54 213.09"/>
<path d="M355.17 210.72L228.99 210.72"/>
<path d="M226.62 213.09L227.8 212.77M227.8 212.77L228.67 211.9M228.67 211.9L228.99 210.72"/>
<path d="M226.62 213.09L226.62 210.72"/>
<path d="M191.91 213.09L191.91 210.72"/>
<path d="M150.12 186.44L148.07 187.61"/>
<path d="M150.12 186.45L147.76 186.45"/>
<path d="M150.12 176.81L147.76 176.81"/>
<path d="M398.55 157.88L401.7 154.73"/>
<path d="M382.78 157.88L379.62 154.73"/>
<path d="M335.46 157.88L338.61 154.73"/>
<path d="M319.68 157.88L316.53 154.73"/>
<path d="M272.36 157.88L275.52 154.73"/>
<path d="M256.59 157.88L253.44 154.73"/>
<path d="M209.27 157.88L212.43 154.73"/>
<path d="M193.5 157.88L190.34 154.73"/>
<path d="M146.18 157.88L149.33 154.73"/>
<path d="M154.06 146.84L159.98 152.75"/>
<path d="M159.98 163.01L154.06 168.92"/>
<path d="M159.98 152.75L159.98 163.01"/>
<path d="M185.61 146.84L179.7 152.75"/>
<path d="M179.7 152.75L159.98 152.75"/>
<path d="M179.7 163.01L185.61 168.92"/>
<path d="M179.7 152.75L179.7 163.01"/>
<path d="M159.98 163.01L179.7 163.01"/>
<path d="M217.16 146.84L223.07 152.75"/>
<path d="M223.07 163.01L217.16 168.92"/>
<path d="M223.07 152.75L223.07 163.01"/>
<path d="M248.7 146.84L242.79 152.75"/>
<path d="M223.07 152.75L242.79 152.75"/>
<path d="M242.79 163.01L248.7 168.92"/>
<path d="M242.79 152.75L242.79 163.01"/>
<path d="M223.07 163.01L242.79 163.01"/>
<path d="M280.25 146.84L286.17 152.75"/>
<path d="M286.17 163.01L280.25 168.92"/>
<path d="M286.17 152.75L286.17 163.01"/>
<path d="M311.8 146.84L305.88 152.75"/>
<path d="M286.17 152.75L305.88 152.75"/>
<path d="M305.88 163.01L311.8 168.92"/>
<path d="M305.88 152.75L305.88 163.01"/>
<path d="M286.17 163.01L305.88 163.01"/>
<path d="M343.34 146.84L349.26 152.75"/>
<path d="M349.26 163.01L343.34 168.92"/>
<path d="M349.26 152.75L349.26 163.01"/>
<path d="M374.89 146.84L368.97 152.75"/>
<path d="M349.26 152.75L368.97 152.75"/>
<path d="M368.97 163.01L374.89 168.92"/>
<path d="M368.97 152.75L368.97 163.01"/>
<path d="M349.26 163.01L368.97 163.01"/>
<path d="M406.44 146.84L412.35 152.75"/>
<path d="M412.35 163.01L406.44 168.92"/>
<path d="M412.35 152.75L412.35 163.01"/>
<path d="M437.98 146.84L432.07 152.75"/>
<path d="M412.35 152.75L432.07 152.75"/>
<path d="M432.07 163.01L437.98 168.92"/>
<path d="M432.07 152.75L432.07 163.01"/>
<path d="M412.35 163.01L432.07 163.01"/>
<path d="M228.99 191L226.62 188.64"/>
<path d="M226.62 210.72L228.99 210.72"/>
<path d="M228.99 210.72L228.99 191"/>
<path d="M242.73 191L242.73 188.64"/>
<path d="M228.99 191L242.73 191"/>
<path d="M242.73 188.64L245.06 188.64"/>
<path d="M245.06 188.64L245.06 181.51"/>
<path d="M245.06 181.51L242.73 179.17"/>
<path d="M276.01 181.51L278.34 179.17"/>
<path d="M245.12 181.54L245.06 181.51"/>
<path d="M245.12 181.54L275.94 181.54"/>
<path d="M276.01 181.51L275.94 181.54"/>
<path d="M276.01 188.64L278.34 188.64"/>
<path d="M276.01 181.51L276.01 188.64"/>
<path d="M305.82 191L305.82 188.64"/>
<path d="M278.34 188.64L278.34 191"/>
<path d="M278.34 191L305.82 191"/>
<path d="M305.82 188.64L308.15 188.64"/>
<path d="M308.15 188.64L308.15 181.51"/>
<path d="M308.15 181.51L305.82 179.17"/>
<path d="M339.1 181.51L341.43 179.17"/>
<path d="M308.22 181.54L308.15 181.51"/>
<path d="M308.22 181.54L339.04 181.54"/>
<path d="M339.1 181.51L339.04 181.54"/>
<path d="M339.1 188.64L341.43 188.64"/>
<path d="M339.1 181.51L339.1 188.64"/>
<path d="M341.43 188.64L341.43 191"/>
<path d="M341.43 191L355.17 191"/>
<path d="M355.17 191L357.54 188.64"/>
<path d="M355.17 191L355.17 210.72"/>
<path d="M355.17 210.72L357.54 210.72"/>
<path d="M434.34 203.66L432 205.99"/>
<path d="M448.23 205.99L448.23 203.62"/>
<path d="M448.23 203.62L434.4 203.62"/>
<path d="M434.34 203.66L434.4 203.62"/>
<path d="M434.34 203.66L434.34 181.51"/>
<path d="M212.92 181.51L215.25 179.17"/>
<path d="M181.97 181.51L179.63 179.17"/>
<path d="M182.03 181.54L181.97 181.51"/>
<path d="M182.03 181.54L212.85 181.54"/>
<path d="M212.92 181.51L212.85 181.54"/>
<path d="M212.92 203.66L215.25 205.99"/>
<path d="M212.92 181.51L212.92 203.66"/>
<path d="M181.97 203.66L179.63 205.99"/>
<path d="M212.85 203.62L212.92 203.66"/>
<path d="M212.85 203.62L182.03 203.62"/>
<path d="M181.97 203.66L182.03 203.62"/>
<path d="M181.97 203.66L181.97 181.51"/>
<path d="M402.19 181.51L404.53 179.17"/>
<path d="M371.24 181.51L368.91 179.17"/>
<path d="M371.31 181.54L371.24 181.51"/>
<path d="M371.31 181.54L402.13 181.54"/>
<path d="M402.19 181.51L402.13 181.54"/>
<path d="M402.19 203.66L404.53 205.99"/>
<path d="M402.19 181.51L402.19 203.66"/>
<path d="M371.24 203.66L368.91 205.99"/>
<path d="M402.13 203.62L402.19 203.66"/>
<path d="M402.13 203.62L371.31 203.62"/>
<path d="M371.24 203.66L371.31 203.62"/>
<path d="M371.24 203.66L371.24 181.51"/>
<path d="M441.92 181.54L441.92 203.62"/>
<path d="M450.6 205.99L450.28 204.81M450.28 204.81L449.42 203.94M449.42 203.94L448.23 203.62"/>
<path d="M331.51 190.75L332.59 191"/>
<path d="M314.66 191L315.74 190.75"/>
<path d="M268.42 190.75L269.5 191"/>
<path d="M251.57 191L252.65 190.75"/>
<path d="M242.73 191L244.38 190.31M244.38 190.31L245.06 188.64"/>
<path d="M251.57 191L242.73 191"/>
<path d="M252.65 181.54L252.65 188.64"/>
<path d="M252.65 188.64L245.06 188.64"/>
<path d="M268.42 181.54L268.42 188.64"/>
<path d="M276.01 188.64L268.42 188.64"/>
<path d="M276.01 188.64L276.69 190.31M276.69 190.31L278.34 191"/>
<path d="M305.82 191L307.47 190.31M307.47 190.31L308.15 188.64"/>
<path d="M314.66 191L305.82 191"/>
<path d="M278.34 191L269.5 191"/>
<path d="M315.74 181.54L315.74 188.64"/>
<path d="M315.74 188.64L308.15 188.64"/>
<path d="M331.51 181.54L331.51 188.64"/>
<path d="M339.1 188.64L331.51 188.64"/>
<path d="M339.1 188.64L339.78 190.31M339.78 190.31L341.43 191"/>
<path d="M341.43 191L332.59 191"/>
<path d="M189.55 181.54L189.55 203.62"/>
<path d="M205.33 181.54L205.33 203.62"/>
<path d="M378.83 181.54L378.83 203.62"/>
<path d="M394.61 181.54L394.61 203.62"/>
<path d="M331.51 190.75L331.51 188.64"/>
<path d="M315.74 188.64L315.74 190.75"/>
<path d="M268.42 190.75L268.42 188.64"/>
<path d="M252.65 188.64L252.65 190.75"/>
</g>
</g>
</svg>
