<?xml version="1.0" standalone="no"?><svg xmlns="http://www.w3.org/2000/svg" width="600.000" height="450.000" viewBox="0.0 0.0 600.000 450.000" version="1.1">
<title>Acme Converter - Post-processed with EDS-Designer: 14.44 (info@symca.com)</title>
<desc>Acme Converter - Post-processed with EDS-Designer: 14.44 (info@symca.com)</desc>
<g id="EDS_STYLE_GROUP" fill="none" stroke="black" stroke-width="1.0">
<g id="0" display="visible">
<path d="M218.26 393.07L218.26 354.18M220.12 354.18L220.12 393.07M212.71 354.18L234.93 354.18M234.93 354.18L240.49 356.03M240.49 356.03L242.34 357.88M242.34 357.88L244.19 361.59M244.19 361.59L244.19 365.29M244.19 365.29L242.34 368.99M242.34 368.99L240.49 370.85M240.49 370.85L234.93 372.7M234.93 354.18L238.63 356.03M238.63 356.03L240.49 357.88M240.49 357.88L242.34 361.59M242.34 361.59L242.34 365.29M242.34 365.29L240.49 368.99M240.49 368.99L238.63 370.85M238.63 370.85L234.93 372.7M220.12 372.7L234.93 372.7M234.93 372.7L240.49 374.55M240.49 374.55L242.34 376.4M242.34 376.4L244.19 380.11M244.19 380.11L244.19 385.66M244.19 385.66L242.34 389.36M242.34 389.36L240.49 391.22M240.49 391.22L234.93 393.07M234.93 393.07L212.71 393.07M234.93 372.7L238.63 374.55M238.63 374.55L240.49 376.4M240.49 376.4L242.34 380.11M242.34 380.11L242.34 385.66M242.34 385.66L240.49 389.36M240.49 389.36L238.63 391.22M238.63 391.22L234.93 393.07M259 393.07L259 354.18M260.85 354.18L260.85 393.07M253.45 354.18L266.41 354.18M253.45 393.07L281.22 393.07M281.22 393.07L281.22 381.96M281.22 381.96L279.37 393.07M303.44 354.18L290.48 393.07M303.44 354.18L316.41 393.07M303.44 359.74L314.56 393.07M294.19 381.96L310.85 381.96M286.78 393.07L297.89 393.07M309 393.07L320.11 393.07M351.59 359.74L353.44 365.29M353.44 365.29L353.44 354.18M353.44 354.18L351.59 359.74M351.59 359.74L347.89 356.03M347.89 356.03L342.33 354.18M342.33 354.18L338.63 354.18M338.63 354.18L333.07 356.03M333.07 356.03L329.37 359.74M329.37 359.74L327.52 363.44M327.52 363.44L325.67 368.99M325.67 368.99L325.67 378.25M325.67 378.25L327.52 383.81M327.52 383.81L329.37 387.51M329.37 387.51L333.07 391.22M333.07 391.22L338.63 393.07M338.63 393.07L342.33 393.07M342.33 393.07L347.89 391.22M347.89 391.22L351.59 387.51M351.59 387.51L353.44 383.81M338.63 354.18L334.92 356.03M334.92 356.03L331.22 359.74M331.22 359.74L329.37 363.44M329.37 363.44L327.52 368.99M327.52 368.99L327.52 378.25M327.52 378.25L329.37 383.81M329.37 383.81L331.22 387.51M331.22 387.51L334.92 391.22M334.92 391.22L338.63 393.07M370.11 393.07L370.11 354.18M371.96 354.18L371.96 393.07M396.03 354.18L371.96 378.25M381.22 370.85L396.03 393.07M379.37 370.85L394.18 393.07M364.55 354.18L377.51 354.18M388.62 354.18L399.73 354.18M364.55 393.07L377.51 393.07M388.62 393.07L399.73 393.07"/>
<path d="M535.33 203.75L538.3 202.27M538.3 202.27L542.74 197.82M542.74 197.82L542.74 228.93"/>
<path d="M74.99 198.42L60.18 198.42M60.18 198.42L58.7 211.75M58.7 211.75L60.18 210.27M60.18 210.27L64.62 208.79M64.62 208.79L69.07 208.79M69.07 208.79L73.51 210.27M73.51 210.27L76.47 213.23M76.47 213.23L77.95 217.68M77.95 217.68L77.95 220.64M77.95 220.64L76.47 225.08M76.47 225.08L73.51 228.05M73.51 228.05L69.07 229.53M69.07 229.53L64.62 229.53M64.62 229.53L60.18 228.05M60.18 228.05L58.7 226.57M58.7 226.57L57.21 223.6"/>
<path d="M152.26 210.77L152.26 212.28M152.26 212.89L152.26 212.99M152.26 213.6L152.26 216.02M152.26 216.63L152.26 216.73M152.26 217.34L152.26 218.86"/>
<path d="M481.24 210.77L481.24 212.28M481.24 212.89L481.24 212.99M481.24 213.6L481.24 216.02M481.24 216.63L481.24 216.73M481.24 217.34L481.24 218.86"/>
<path d="M388.07 265.36L386.55 265.36M385.95 265.36L385.84 265.36M385.24 265.36L382.81 265.36M382.2 265.36L382.1 265.36M381.5 265.36L379.98 265.36"/>
<path d="M232.52 265.36L231.01 265.36M230.4 265.36L230.3 265.36M229.69 265.36L227.27 265.36M226.66 265.36L226.56 265.36M225.95 265.36L224.43 265.36"/>
<path d="M271.41 164.26L269.89 164.26M269.29 164.26L269.18 164.26M268.58 164.26L266.15 164.26M265.54 164.26L265.44 164.26M264.84 164.26L263.32 164.26"/>
<path d="M388.07 164.26L386.55 164.26M385.95 164.26L385.84 164.26M385.24 164.26L382.81 164.26M382.2 164.26L382.1 164.26M381.5 164.26L379.98 164.26"/>
<path d="M87.71 206.41L87.71 209.56M87.71 210.82L87.71 211.03M87.71 212.29L87.71 217.34M87.71 218.6L87.71 218.81M87.71 220.07L87.71 223.22"/>
<path d="M308.12 308.92L307.42 308.92M307.14 308.92L307.09 308.92M306.81 308.92L305.69 308.92M305.41 308.92L305.36 308.92M305.08 308.92L304.38 308.92"/>
<path d="M95.49 223.21L95.49 220.06M95.49 218.8L95.49 218.59M95.49 217.33L95.49 212.29M95.49 211.03L95.49 210.82M95.49 209.56L95.49 206.41"/>
<path d="M517.02 206.41L517.02 209.56M517.02 210.82L517.02 211.03M517.02 212.29L517.02 217.34M517.02 218.6L517.02 218.81M517.02 220.07L517.02 223.22"/>
<path d="M524.79 223.21L524.79 220.06M524.79 218.8L524.79 218.59M524.79 217.33L524.79 212.29M524.79 211.03L524.79 210.82M524.79 209.56L524.79 206.41"/>
<path d="M241.54 100.17L243.64 100.17M244.48 100.17L244.62 100.17M245.46 100.17L248.82 100.17M249.66 100.17L249.8 100.17M250.64 100.17L252.74 100.17"/>
<path d="M275.53 77.93L274.66 77.93M274.3 77.93L274.25 77.93M273.9 77.93L272.49 77.93M272.14 77.93L272.08 77.93M271.73 77.93L270.86 77.93"/>
<path d="M134.37 223.21L134.37 220.06M134.37 218.8L134.37 218.59M134.37 217.33L134.37 212.29M134.37 211.03L134.37 210.82M134.37 209.56L134.37 206.41"/>
<path d="M407.89 265.24L407.89 265.52M407.89 265.63L407.89 265.65M407.89 265.76L407.89 266.22M407.89 266.33L407.89 266.35M407.89 266.46L407.89 266.74"/>
<path d="M400.29 265.24L400.29 265.52M400.29 265.63L400.29 265.65M400.29 265.76L400.29 266.22M400.29 266.33L400.29 266.35M400.29 266.46L400.29 266.74"/>
<path d="M397.94 265.24L397.94 265.52M397.94 265.63L397.94 265.65M397.94 265.76L397.94 266.22M397.94 266.33L397.94 266.35M397.94 266.46L397.94 266.74"/>
<path d="M478.13 223.21L478.13 220.06M478.13 218.8L478.13 218.59M478.13 217.33L478.13 212.29M478.13 211.03L478.13 210.82M478.13 209.56L478.13 206.41"/>
<path d="M359.76 100.17L361.86 100.17M362.7 100.17L362.84 100.17M363.68 100.17L367.04 100.17M367.88 100.17L368.02 100.17M368.86 100.17L370.96 100.17"/>
<path d="M336.97 77.93L337.85 77.93M338.2 77.93L338.25 77.93M338.6 77.93L340 77.93M340.35 77.93L340.41 77.93M340.76 77.93L341.64 77.93"/>
<path d="M185.94 167.37L183.66 167.37M182.75 167.37L182.6 167.37M181.69 167.37L178.05 167.37M177.13 167.37L176.98 167.37M176.07 167.37L173.8 167.37"/>
<path d="M225.37 61.6L387.13 61.6"/>
<path d="M225.37 120.71L225.37 61.6"/>
<path d="M225.37 120.71L174.82 120.71"/>
<path d="M174.82 120.71L157.82 122.38M157.82 122.38L141.48 127.34M141.48 127.34L126.42 135.39M126.42 135.39L113.22 146.22M113.22 146.22L102.39 159.42M102.39 159.42L94.34 174.48M94.34 174.48L89.38 190.82M89.38 190.82L87.71 207.81"/>
<path d="M87.71 207.81L87.71 221.81"/>
<path d="M87.71 221.81L89.38 238.8M89.38 238.8L94.34 255.15M94.34 255.15L102.39 270.2M102.39 270.2L113.22 283.4M113.22 283.4L126.42 294.24M126.42 294.24L141.48 302.29M141.48 302.29L157.82 307.24M157.82 307.24L174.82 308.92"/>
<path d="M174.82 308.92L275.14 308.92"/>
<path d="M275.14 308.92L275.14 304.45"/>
<path d="M275.14 304.45L267.58 301.14"/>
<path d="M267.58 301.14L174.82 301.14"/>
<path d="M95.49 221.81L97.48 239.46M97.48 239.46L103.34 256.23M103.34 256.23L112.79 271.27M112.79 271.27L125.35 283.83M125.35 283.83L140.4 293.28M140.4 293.28L157.16 299.15M157.16 299.15L174.82 301.14"/>
<path d="M95.49 221.81L95.49 207.81"/>
<path d="M174.82 128.48L157.16 130.47M157.16 130.47L140.4 136.34M140.4 136.34L125.35 145.79M125.35 145.79L112.79 158.35M112.79 158.35L103.34 173.39M103.34 173.39L97.48 190.16M97.48 190.16L95.49 207.81"/>
<path d="M174.82 128.48L237.81 128.48"/>
<path d="M237.81 74.04L237.81 128.48"/>
<path d="M374.69 74.04L237.81 74.04"/>
<path d="M374.69 128.48L374.69 74.04"/>
<path d="M374.69 128.48L437.69 128.48"/>
<path d="M517.02 207.81L515.03 190.16M515.03 190.16L509.16 173.39M509.16 173.39L499.71 158.35M499.71 158.35L487.15 145.79M487.15 145.79L472.11 136.34M472.11 136.34L455.34 130.47M455.34 130.47L437.69 128.48"/>
<path d="M517.02 207.81L517.02 221.81"/>
<path d="M437.69 301.14L455.34 299.15M455.34 299.15L472.11 293.28M472.11 293.28L487.15 283.83M487.15 283.83L499.71 271.27M499.71 271.27L509.16 256.23M509.16 256.23L515.03 239.46M515.03 239.46L517.02 221.81"/>
<path d="M437.69 301.14L344.93 301.14"/>
<path d="M344.93 301.14L337.37 304.45"/>
<path d="M337.37 308.92L337.37 304.45"/>
<path d="M337.37 308.92L437.69 308.92"/>
<path d="M437.69 308.92L454.68 307.24M454.68 307.24L471.02 302.29M471.02 302.29L486.08 294.24M486.08 294.24L499.28 283.4M499.28 283.4L510.11 270.2M510.11 270.2L518.16 255.15M518.16 255.15L523.12 238.8M523.12 238.8L524.79 221.81"/>
<path d="M524.79 221.81L524.79 207.81"/>
<path d="M524.79 207.81L523.12 190.82M523.12 190.82L518.16 174.48M518.16 174.48L510.11 159.42M510.11 159.42L499.28 146.22M499.28 146.22L486.08 135.39M486.08 135.39L471.02 127.34M471.02 127.34L454.68 122.38M454.68 122.38L437.69 120.71"/>
<path d="M437.69 120.71L387.13 120.71"/>
<path d="M387.13 61.6L387.13 120.71"/>
<path d="M225.37 61.6L225.37 56.93"/>
<path d="M387.13 61.6L387.13 56.93"/>
<path d="M225.37 56.93L387.13 56.93"/>
<path d="M225.37 61.6L220.7 61.6"/>
<path d="M220.7 116.04L220.7 61.6"/>
<path d="M225.37 120.71L220.7 116.04"/>
<path d="M174.82 116.04L174.82 120.71"/>
<path d="M220.7 116.04L174.82 116.04"/>
<path d="M174.82 116.04L156.91 117.8M156.91 117.8L139.7 123.03M139.7 123.03L123.83 131.51M123.83 131.51L109.92 142.92M109.92 142.92L98.51 156.83M98.51 156.83L90.03 172.69M90.03 172.69L84.81 189.91M84.81 189.91L83.04 207.81"/>
<path d="M83.04 207.81L87.71 207.81"/>
<path d="M83.04 207.81L83.04 221.81"/>
<path d="M83.04 221.81L87.71 221.81"/>
<path d="M83.04 221.81L84.81 239.72M84.81 239.72L90.03 256.93M90.03 256.93L98.51 272.8M98.51 272.8L109.92 286.7M109.92 286.7L123.83 298.12M123.83 298.12L139.7 306.6M139.7 306.6L156.91 311.82M156.91 311.82L174.82 313.58"/>
<path d="M174.82 313.58L174.82 308.92"/>
<path d="M174.82 313.58L271.87 313.58"/>
<path d="M275.14 308.92L274.84 310.87M274.84 310.87L274.03 312.42M274.03 312.42L272.74 313.41M272.74 313.41L271.87 313.58"/>
<path d="M279.96 308.92L275.14 308.92"/>
<path d="M279.96 308.92L279.96 304.45"/>
<path d="M275.14 304.45L279.96 304.45"/>
<path d="M263.88 296.47L279.96 304.45"/>
<path d="M258.63 296.47L263.88 296.47"/>
<path d="M258.63 296.47L259.2 297.1M259.2 297.1L262.48 298.81M262.48 298.81L267.58 301.14"/>
<path d="M258.63 296.47L174.82 296.47"/>
<path d="M174.82 296.47L174.82 301.14"/>
<path d="M100.15 221.81L102.03 238.43M102.03 238.43L107.55 254.21M107.55 254.21L116.44 268.36M116.44 268.36L128.26 280.18M128.26 280.18L142.42 289.08M142.42 289.08L158.2 294.6M158.2 294.6L174.82 296.47"/>
<path d="M100.15 221.81L95.49 221.81"/>
<path d="M100.15 221.81L100.15 207.81"/>
<path d="M100.15 207.81L95.49 207.81"/>
<path d="M174.82 133.15L158.2 135.02M158.2 135.02L142.42 140.54M142.42 140.54L128.26 149.44M128.26 149.44L116.44 161.26M116.44 161.26L107.55 175.42M107.55 175.42L102.03 191.2M102.03 191.2L100.15 207.81"/>
<path d="M174.82 133.15L174.82 128.48"/>
<path d="M174.82 133.15L237.81 133.15"/>
<path d="M237.81 133.15L237.81 128.48"/>
<path d="M237.81 133.15L237.81 142.48"/>
<path d="M374.69 133.15L374.69 142.48"/>
<path d="M374.69 128.48L374.69 133.15"/>
<path d="M437.69 133.15L437.69 128.48"/>
<path d="M374.69 133.15L437.69 133.15"/>
<path d="M512.35 207.81L510.48 191.2M510.48 191.2L504.96 175.42M504.96 175.42L496.06 161.26M496.06 161.26L484.24 149.44M484.24 149.44L470.08 140.54M470.08 140.54L454.3 135.02M454.3 135.02L437.69 133.15"/>
<path d="M512.35 207.81L517.02 207.81"/>
<path d="M512.35 207.81L512.35 221.81"/>
<path d="M512.35 221.81L517.02 221.81"/>
<path d="M437.69 296.47L454.3 294.6M454.3 294.6L470.08 289.08M470.08 289.08L484.24 280.18M484.24 280.18L496.06 268.36M496.06 268.36L504.96 254.21M504.96 254.21L510.48 238.43M510.48 238.43L512.35 221.81"/>
<path d="M437.69 296.47L437.69 301.14"/>
<path d="M437.69 296.47L353.88 296.47"/>
<path d="M344.93 301.14L350.02 298.81M350.02 298.81L353.3 297.1M353.3 297.1L353.88 296.47"/>
<path d="M348.62 296.47L353.88 296.47"/>
<path d="M348.62 296.47L332.55 304.45"/>
<path d="M332.55 304.45L337.37 304.45"/>
<path d="M332.55 308.92L332.55 304.45"/>
<path d="M337.37 308.92L332.55 308.92"/>
<path d="M437.69 313.58L437.69 308.92"/>
<path d="M340.63 313.58L339.48 313.28M339.48 313.28L338.45 312.38M338.45 312.38L337.66 310.85M337.66 310.85L337.37 308.92"/>
<path d="M340.63 313.58L437.69 313.58"/>
<path d="M437.69 313.58L455.59 311.82M455.59 311.82L472.81 306.6M472.81 306.6L488.67 298.12M488.67 298.12L502.58 286.7M502.58 286.7L513.99 272.8M513.99 272.8L522.47 256.93M522.47 256.93L527.7 239.72M527.7 239.72L529.46 221.81"/>
<path d="M529.46 221.81L524.79 221.81"/>
<path d="M529.46 221.81L529.46 207.81"/>
<path d="M529.46 207.81L524.79 207.81"/>
<path d="M529.46 207.81L527.7 189.91M527.7 189.91L522.47 172.69M522.47 172.69L513.99 156.83M513.99 156.83L502.58 142.92M502.58 142.92L488.67 131.51M488.67 131.51L472.81 123.03M472.81 123.03L455.59 117.8M455.59 117.8L437.69 116.04"/>
<path d="M437.69 116.04L437.69 120.71"/>
<path d="M437.69 116.04L391.8 116.04"/>
<path d="M391.8 116.04L387.13 120.71"/>
<path d="M391.8 61.6L391.8 116.04"/>
<path d="M387.13 61.6L391.8 61.6"/>
<path d="M225.37 56.93L223.03 57.56M223.03 57.56L221.33 59.27M221.33 59.27L220.7 61.6"/>
<path d="M391.8 61.6L391.18 59.27M391.18 59.27L389.47 57.56M389.47 57.56L387.13 56.93"/>
<path d="M340.63 313.58L336.93 313.58"/>
<path d="M335.8 313.58L336.93 313.58"/>
<path d="M335.8 313.58L307.81 313.58"/>
<path d="M307.81 313.58L304.7 313.58"/>
<path d="M304.7 313.58L276.7 313.58"/>
<path d="M275.57 313.58L276.7 313.58"/>
<path d="M275.57 313.58L271.87 313.58"/>
<path d="M275.57 313.58L278.67 312.22M278.67 312.22L279.96 308.92"/>
<path d="M281.36 308.92L281.36 304.45"/>
<path d="M281.36 304.45L279.96 304.45"/>
<path d="M279.96 308.92L281.36 308.92"/>
<path d="M264.25 296.47L263.88 296.47"/>
<path d="M264.25 296.47L304.7 296.47"/>
<path d="M304.7 296.47L307.81 296.47"/>
<path d="M307.81 296.47L348.25 296.47"/>
<path d="M348.62 296.47L348.25 296.47"/>
<path d="M251.81 130.04L251.81 142.48"/>
<path d="M237.81 142.48L251.81 142.48"/>
<path d="M360.69 142.48L374.69 142.48"/>
<path d="M360.69 130.04L360.69 142.48"/>
<path d="M332.55 304.45L331.14 304.45"/>
<path d="M331.14 308.92L331.14 304.45"/>
<path d="M331.14 308.92L332.55 308.92"/>
<path d="M332.55 308.92L333.83 312.22M333.83 312.22L336.93 313.58"/>
<path d="M331.14 308.92L332.51 312.22M332.51 312.22L335.8 313.58"/>
<path d="M331.14 308.92L307.81 308.92"/>
<path d="M307.81 308.92L307.81 313.58"/>
<path d="M307.81 308.92L304.7 308.92"/>
<path d="M304.7 308.92L304.7 313.58"/>
<path d="M304.7 308.92L281.36 308.92"/>
<path d="M276.7 313.58L279.03 312.96M279.03 312.96L280.74 311.25M280.74 311.25L281.36 308.92"/>
<path d="M281.36 304.45L304.7 304.45"/>
<path d="M304.7 296.47L304.7 304.45"/>
<path d="M304.7 304.45L307.81 304.45"/>
<path d="M307.81 296.47L307.81 304.45"/>
<path d="M307.81 304.45L331.14 304.45"/>
<path d="M272.03 133.93L262.7 133.93"/>
<path d="M262.7 130.04L262.7 133.93"/>
<path d="M251.81 130.04L262.7 130.04"/>
<path d="M251.81 124.66L251.81 130.04"/>
<path d="M251.81 110.6L251.81 124.66"/>
<path d="M251.81 100.49L251.81 110.6"/>
<path d="M251.81 88.04L251.81 100.49"/>
<path d="M360.69 88.04L360.69 100.49"/>
<path d="M360.69 100.49L360.69 110.6"/>
<path d="M360.69 110.6L360.69 124.66"/>
<path d="M360.69 124.66L360.69 130.04"/>
<path d="M349.8 130.04L360.69 130.04"/>
<path d="M349.8 130.04L349.8 133.93"/>
<path d="M340.47 133.93L349.8 133.93"/>
<path d="M340.47 130.04L340.47 133.93"/>
<path d="M272.03 130.04L340.47 130.04"/>
<path d="M272.03 130.04L272.03 133.93"/>
<path d="M129.28 128.13L118.14 133.66M118.14 133.66L108.45 141.45M108.45 141.45L100.66 151.14M100.66 151.14L95.14 162.28"/>
<path d="M95.14 267.35L100.66 278.48M100.66 278.48L108.45 288.17M108.45 288.17L118.14 295.96M118.14 295.96L129.28 301.49"/>
<path d="M483.22 301.49L494.36 295.96M494.36 295.96L504.05 288.17M504.05 288.17L511.84 278.48M511.84 278.48L517.36 267.35"/>
<path d="M517.36 162.27L511.84 151.14M511.84 151.14L504.05 141.45M504.05 141.45L494.36 133.66M494.36 133.66L483.23 128.14"/>
<path d="M307.81 308.92L307.81 304.45"/>
<path d="M304.7 308.92L304.7 304.45"/>
<path d="M251.81 124.66L360.69 124.66"/>
<path d="M251.81 110.6L360.69 110.6"/>
<path d="M251.81 100.49L284.47 100.5"/>
<path d="M328.03 100.5L360.69 100.49"/>
<path d="M284.47 105.63L328.03 105.63"/>
<path d="M276.7 95.9L290.7 95.9"/>
<path d="M321.81 95.9L335.8 95.9"/>
<path d="M360.69 88.04L360.07 85.71M360.07 85.71L358.36 84M358.36 84L356.03 83.38"/>
<path d="M256.48 83.38L298.47 83.38"/>
<path d="M314.03 83.38L356.03 83.38"/>
<path d="M256.48 83.38L254.14 84M254.14 84L252.44 85.71M252.44 85.71L251.81 88.04"/>
<path d="M148.37 119.93L134.76 121.62M134.76 121.62L121.85 126.24M121.85 126.24L110.27 133.57M110.27 133.57L100.58 143.27M100.58 143.27L93.24 154.85M93.24 154.85L88.62 167.76M88.62 167.76L86.94 181.36"/>
<path d="M86.94 248.26L88.62 261.87M88.62 261.87L93.24 274.77M93.24 274.77L100.58 286.36M100.58 286.36L110.27 296.05M110.27 296.05L121.85 303.39M121.85 303.39L134.76 308.01M134.76 308.01L148.37 309.69"/>
<path d="M464.13 309.69L477.74 308.01M477.74 308.01L490.65 303.39M490.65 303.39L502.23 296.05M502.23 296.05L511.93 286.36M511.93 286.36L519.26 274.77M519.26 274.77L523.88 261.87M523.88 261.87L525.57 248.26"/>
<path d="M525.57 181.36L523.88 167.76M523.88 167.76L519.26 154.85M519.26 154.85L511.93 143.27M511.93 143.27L502.23 133.57M502.23 133.57L490.65 126.24M490.65 126.24L477.74 121.62M477.74 121.62L464.14 119.93"/>
<path d="M321.81 83.38L321.81 81.04"/>
<path d="M290.7 83.38L290.7 81.04"/>
<path d="M328.03 104.96L328.03 105.63"/>
<path d="M328.03 104.96L328.03 100.43"/>
<path d="M284.47 104.96L328.03 104.96"/>
<path d="M284.47 104.96L284.47 105.63"/>
<path d="M284.47 104.96L284.47 100.43"/>
<path d="M284.47 100.43L284.47 100.25"/>
<path d="M284.47 99.92L284.47 100.25"/>
<path d="M276.7 99.92L284.47 99.92"/>
<path d="M276.7 99.92L276.7 100.49"/>
<path d="M276.7 95.9L276.7 99.92"/>
<path d="M284.47 100.25L328.03 100.25"/>
<path d="M328.03 99.92L328.03 100.25"/>
<path d="M328.03 99.92L335.8 99.92"/>
<path d="M335.8 95.9L335.8 99.92"/>
<path d="M290.7 98.1L321.81 98.1"/>
<path d="M335.8 99.92L335.8 100.49"/>
<path d="M328.03 100.43L328.03 100.25"/>
<path d="M360.69 100.17L370.03 100.17"/>
<path d="M370.03 100.17L370.03 103.29"/>
<path d="M242.48 100.17L251.81 100.17"/>
<path d="M242.48 100.17L242.48 103.29"/>
<path d="M370.03 100.17L370.03 74.04"/>
<path d="M345.92 81.04L341.25 81.04"/>
<path d="M337.36 81.04L341.25 81.04"/>
<path d="M326.47 81.04L337.36 81.04"/>
<path d="M326.47 81.04L324.92 81.04"/>
<path d="M314.03 81.04L324.92 81.04"/>
<path d="M287.59 81.04L298.47 81.04"/>
<path d="M286.03 81.04L287.59 81.04"/>
<path d="M286.03 81.04L275.14 81.04"/>
<path d="M275.14 81.04L271.25 81.04"/>
<path d="M266.59 81.04L271.25 81.04"/>
<path d="M242.48 100.17L242.48 74.04"/>
<path d="M321.81 90.93L321.81 91.03"/>
<path d="M321.81 91.6L321.81 91.03"/>
<path d="M321.81 91.6L321.81 95.85"/>
<path d="M321.81 95.85L321.81 98.1"/>
<path d="M290.7 95.85L321.81 95.85"/>
<path d="M290.7 95.85L290.7 98.1"/>
<path d="M290.7 91.6L290.7 95.85"/>
<path d="M290.7 91.6L290.7 91.03"/>
<path d="M290.7 90.93L290.7 91.03"/>
<path d="M373.14 100.17L373.14 74.04"/>
<path d="M373.14 100.17L370.03 100.17"/>
<path d="M242.48 100.17L239.37 100.17"/>
<path d="M239.37 100.17L239.37 74.04"/>
<path d="M345.92 81.04L347.47 80.63M347.47 80.63L348.61 79.49M348.61 79.49L349.03 77.93"/>
<path d="M349.03 74.04L349.03 77.93"/>
<path d="M341.25 81.04L341.25 77.93"/>
<path d="M349.03 77.93L341.25 77.93"/>
<path d="M337.36 81.04L337.36 77.93"/>
<path d="M337.36 77.93L341.25 77.93"/>
<path d="M329.58 77.93L337.36 77.93"/>
<path d="M326.47 81.04L328.03 80.63M328.03 80.63L329.17 79.49M329.17 79.49L329.58 77.93"/>
<path d="M329.58 77.93L328.04 77.93"/>
<path d="M325.3 81.03L327.22 79.96M327.22 79.96L328.03 77.93"/>
<path d="M324.92 81.04L325.3 81.02"/>
<path d="M298.47 81.04L298.47 83.38"/>
<path d="M298.47 83.38L314.03 83.38"/>
<path d="M314.03 81.04L314.03 83.38"/>
<path d="M306.25 76.13L316.34 77.11M316.34 77.11L321.26 78.55M321.26 78.55L325.3 81.02"/>
<path d="M287.2 81.02L289.06 79.61M289.06 79.61L294.92 77.39M294.92 77.39L302.69 76.24M302.69 76.24L306.25 76.13"/>
<path d="M287.2 81.02L287.59 81.04"/>
<path d="M284.47 77.93L285.29 79.96M285.29 79.96L287.2 81.03"/>
<path d="M282.92 77.93L284.46 77.93"/>
<path d="M282.92 77.93L283.83 80.13M283.83 80.13L286.03 81.04"/>
<path d="M282.92 77.93L275.14 77.93"/>
<path d="M275.14 77.93L275.14 81.04"/>
<path d="M275.14 77.93L271.25 77.93"/>
<path d="M271.25 77.93L271.25 81.04"/>
<path d="M263.48 77.93L271.25 77.93"/>
<path d="M263.48 77.93L264.39 80.13M264.39 80.13L266.59 81.04"/>
<path d="M263.48 74.04L263.48 77.93"/>
<path d="M290.7 90.93L321.81 90.93"/>
<path d="M290.7 91.03L321.81 91.03"/>
<path d="M290.7 91.6L321.81 91.6"/>
<path d="M173.26 152.62L439.24 152.62"/>
<path d="M492.88 206.26L491.05 192.38M491.05 192.38L485.69 179.44M485.69 179.44L477.17 168.33M477.17 168.33L466.06 159.81M466.06 159.81L453.12 154.45M453.12 154.45L439.24 152.62"/>
<path d="M492.88 206.26L492.88 223.37"/>
<path d="M439.24 277L453.12 275.17M453.12 275.17L466.06 269.82M466.06 269.82L477.17 261.29M477.17 261.29L485.69 250.18M485.69 250.18L491.05 237.25M491.05 237.25L492.88 223.37"/>
<path d="M439.24 277L173.26 277"/>
<path d="M119.63 223.37L121.45 237.25M121.45 237.25L126.81 250.18M126.81 250.18L135.33 261.29M135.33 261.29L146.44 269.82M146.44 269.82L159.38 275.17M159.38 275.17L173.26 277"/>
<path d="M119.63 223.37L119.63 206.26"/>
<path d="M173.26 152.62L159.38 154.45M159.38 154.45L146.44 159.81M146.44 159.81L135.33 168.33M135.33 168.33L126.81 179.44M126.81 179.44L121.45 192.38M121.45 192.38L119.63 206.26"/>
<path d="M341.25 74.04L341.25 77.93"/>
<path d="M337.36 74.04L337.36 77.93"/>
<path d="M329.58 74.04L329.58 77.93"/>
<path d="M317.14 74.05L321.57 75.01M321.57 75.01L325.31 76.32M325.31 76.32L328.04 77.93"/>
<path d="M284.46 77.93L287.18 76.32M287.18 76.32L290.89 75.02M290.89 75.02L295.36 74.05"/>
<path d="M282.92 74.04L282.92 77.93"/>
<path d="M275.14 74.04L275.14 77.93"/>
<path d="M271.25 74.04L271.25 77.93"/>
<path d="M173.26 154.15L439.24 154.15"/>
<path d="M439.24 152.62L439.24 154.15"/>
<path d="M173.26 152.62L173.26 154.15"/>
<path d="M491.35 206.26L489.58 192.77M489.58 192.77L484.37 180.2M484.37 180.2L476.09 169.41M476.09 169.41L465.3 161.13M465.3 161.13L452.73 155.92M452.73 155.92L439.24 154.15"/>
<path d="M492.88 206.26L491.35 206.26"/>
<path d="M491.35 206.26L491.35 223.37"/>
<path d="M492.88 223.37L491.35 223.37"/>
<path d="M439.24 275.47L452.73 273.7M452.73 273.7L465.3 268.49M465.3 268.49L476.09 260.21M476.09 260.21L484.37 249.42M484.37 249.42L489.58 236.85M489.58 236.85L491.35 223.37"/>
<path d="M439.24 277L439.24 275.47"/>
<path d="M439.24 275.47L173.26 275.47"/>
<path d="M173.26 277L173.26 275.47"/>
<path d="M121.15 223.37L122.93 236.85M122.93 236.85L128.13 249.42M128.13 249.42L136.41 260.21M136.41 260.21L147.21 268.49M147.21 268.49L159.77 273.7M159.77 273.7L173.26 275.47"/>
<path d="M119.63 223.37L121.15 223.37"/>
<path d="M121.15 223.37L121.15 206.26"/>
<path d="M119.63 206.26L121.15 206.26"/>
<path d="M173.26 154.15L159.77 155.92M159.77 155.92L147.21 161.13M147.21 161.13L136.41 169.41M136.41 169.41L128.13 180.2M128.13 180.2L122.93 192.77M122.93 192.77L121.15 206.26"/>
<path d="M184.95 164.26L240.92 164.26"/>
<path d="M481.24 221.88L481.24 232.39"/>
<path d="M152.26 259.07L161.81 263.38M161.81 263.38L172.11 265.28"/>
<path d="M131.26 221.81L132.69 232.87M132.69 232.87L136.87 243.2M136.87 243.2L143.54 252.12M143.54 252.12L152.26 259.07"/>
<path d="M131.26 221.81L131.26 207.81"/>
<path d="M163.87 165.66L153.27 169.96M153.27 169.96L144.16 176.87M144.16 176.87L137.17 185.92M137.17 185.92L132.76 196.47M132.76 196.47L131.26 207.81"/>
<path d="M188.04 167.37L237.81 167.37"/>
<path d="M465.69 261.07L474 253.44M474 253.44L479.38 243.52M479.38 243.52L481.24 232.39"/>
<path d="M447.02 266.61L456.76 265.19M456.76 265.19L465.69 261.07"/>
<path d="M465.69 255.17L465.69 261.07"/>
<path d="M152.26 255.38L152.26 259.07"/>
<path d="M134.37 221.81L135.58 231.61M135.58 231.61L139.12 240.83M139.12 240.83L144.8 248.91M144.8 248.91L152.26 255.38"/>
<path d="M134.37 221.81L131.26 221.81"/>
<path d="M134.37 221.81L134.37 207.81"/>
<path d="M134.37 207.81L131.26 207.81"/>
<path d="M154.34 172.94L146.06 179.37M146.06 179.37L139.72 187.72M139.72 187.72L135.73 197.42M135.73 197.42L134.37 207.81"/>
<path d="M407.89 266.61L447.02 266.61"/>
<path d="M407.89 266.61L405.34 266.61"/>
<path d="M405.34 266.61L402.84 266.61"/>
<path d="M400.29 266.61L402.84 266.61"/>
<path d="M400.29 266.61L397.94 266.61"/>
<path d="M396.62 266.61L397.94 266.61"/>
<path d="M396.62 266.61L386.88 266.61"/>
<path d="M181.44 266.61L225.63 266.61"/>
<path d="M231.33 266.61L381.17 266.61"/>
<path d="M407.89 265.36L407.89 266.61"/>
<path d="M172.11 265.28L181.44 266.61"/>
<path d="M163.93 165.64L157.89 168.73M157.89 168.73L153.74 174.09M153.74 174.09L152.26 180.7"/>
<path d="M237.81 186.81L188.04 186.81"/>
<path d="M405.34 265.36L405.34 266.61"/>
<path d="M402.84 265.36L402.84 266.61"/>
<path d="M400.29 265.36L400.29 266.61"/>
<path d="M397.94 266.61L397.94 265.36"/>
<path d="M396.62 266.61L396.62 265.36"/>
<path d="M152.26 180.7L152.26 248.92"/>
<path d="M163.93 165.64L164.7 168.65"/>
<path d="M152.26 180.7L155.37 180.7"/>
<path d="M164.7 168.65L159.88 171.12M159.88 171.12L156.55 175.41M156.55 175.41L155.37 180.7"/>
<path d="M174.82 164.26L163.93 165.64"/>
<path d="M188.04 186.81L188.04 167.37"/>
<path d="M188.04 186.81L184.93 189.92"/>
<path d="M240.92 189.92L184.93 189.92"/>
<path d="M237.81 186.81L240.92 189.92"/>
<path d="M237.81 167.37L237.81 186.81"/>
<path d="M437.69 265.36L448.96 263.88M448.96 263.88L459.46 259.53M459.46 259.53L468.48 252.61M468.48 252.61L475.41 243.59M475.41 243.59L479.76 233.08M479.76 233.08L481.24 221.81"/>
<path d="M152.26 248.92L153.74 255.54M153.74 255.54L157.89 260.9M157.89 260.9L163.93 263.98"/>
<path d="M152.26 248.92L155.37 248.92"/>
<path d="M155.37 180.7L155.37 248.92"/>
<path d="M152.26 211.7L150.06 212.61M150.06 212.61L149.15 214.81M149.15 214.81L150.06 217.01M150.06 217.01L152.26 217.92"/>
<path d="M174.82 164.26L174.82 167.37"/>
<path d="M174.82 167.37L164.7 168.65"/>
<path d="M184.93 167.37L174.82 167.37"/>
<path d="M155.37 248.92L156.55 254.21M156.55 254.21L159.88 258.5M159.88 258.5L164.7 260.97"/>
<path d="M164.7 260.97L174.82 262.25"/>
<path d="M174.82 262.25L437.69 262.25"/>
<path d="M437.69 262.25L450.18 260.27M450.18 260.27L461.46 254.53M461.46 254.53L470.41 245.58M470.41 245.58L476.15 234.31M476.15 234.31L478.13 221.81"/>
<path d="M478.13 221.81L478.13 207.81"/>
<path d="M478.13 207.81L476.15 195.32M476.15 195.32L470.41 184.04M470.41 184.04L461.46 175.09M461.46 175.09L450.18 169.35M450.18 169.35L437.69 167.37"/>
<path d="M437.69 167.37L240.92 167.37"/>
<path d="M240.92 167.37L240.92 189.92"/>
<path d="M184.93 189.92L184.93 167.37"/>
<path d="M237.62 229.01L225.17 229.01"/>
<path d="M225.17 229.01L225.17 200.62"/>
<path d="M225.17 200.62L262.89 200.62"/>
<path d="M262.89 200.62L262.89 229.01"/>
<path d="M262.89 229.01L250.45 229.01"/>
<path d="M250.45 241.64L250.45 229.01"/>
<path d="M237.62 241.64L250.45 241.64"/>
<path d="M237.62 229.01L237.62 241.64"/>
<path d="M175.4 229.01L162.95 229.01"/>
<path d="M162.95 229.01L162.95 200.62"/>
<path d="M162.95 200.62L200.67 200.62"/>
<path d="M200.67 200.62L200.67 229.01"/>
<path d="M200.67 229.01L188.23 229.01"/>
<path d="M188.23 241.64L188.23 229.01"/>
<path d="M175.4 241.64L188.23 241.64"/>
<path d="M175.4 229.01L175.4 241.64"/>
<path d="M437.1 241.64L437.1 229.01"/>
<path d="M424.27 241.64L437.1 241.64"/>
<path d="M424.27 229.01L424.27 241.64"/>
<path d="M424.27 229.01L411.83 229.01"/>
<path d="M411.83 229.01L411.83 200.62"/>
<path d="M411.83 200.62L449.55 200.62"/>
<path d="M449.55 200.62L449.55 229.01"/>
<path d="M449.55 229.01L437.1 229.01"/>
<path d="M374.89 241.64L374.89 229.01"/>
<path d="M362.05 241.64L374.89 241.64"/>
<path d="M362.05 229.01L362.05 241.64"/>
<path d="M362.05 229.01L349.61 229.01"/>
<path d="M349.61 229.01L349.61 200.62"/>
<path d="M349.61 200.62L387.33 200.62"/>
<path d="M387.33 200.62L387.33 229.01"/>
<path d="M387.33 229.01L374.89 229.01"/>
<path d="M312.67 241.64L312.67 229.01"/>
<path d="M299.83 241.64L312.67 241.64"/>
<path d="M299.83 229.01L299.83 241.64"/>
<path d="M299.83 229.01L287.39 229.01"/>
<path d="M287.39 229.01L287.39 200.62"/>
<path d="M287.39 200.62L325.11 200.62"/>
<path d="M325.11 200.62L325.11 229.01"/>
<path d="M325.11 229.01L312.67 229.01"/>
<path d="M184.93 164.26L174.82 164.26"/>
<path d="M188.04 167.37L187.62 165.81M187.62 165.81L186.48 164.68M186.48 164.68L184.93 164.26"/>
<path d="M188.04 167.37L184.93 167.37"/>
<path d="M237.81 167.37L240.92 167.37"/>
<path d="M240.92 164.26L239.37 164.68M239.37 164.68L238.23 165.81M238.23 165.81L237.81 167.37"/>
<path d="M481.24 221.81L481.24 207.81"/>
<path d="M437.69 265.36L437.69 262.25"/>
<path d="M481.24 221.81L478.13 221.81"/>
<path d="M174.82 265.36L437.69 265.36"/>
<path d="M163.93 263.98L174.82 265.36"/>
<path d="M481.24 207.81L479.76 196.54M479.76 196.54L475.41 186.04M475.41 186.04L468.48 177.02M468.48 177.02L459.46 170.09M459.46 170.09L448.96 165.74M448.96 165.74L437.69 164.26"/>
<path d="M163.93 263.98L164.7 260.97"/>
<path d="M184.93 164.26L184.93 167.37"/>
<path d="M174.82 265.36L174.82 262.25"/>
<path d="M481.24 207.81L478.13 207.81"/>
<path d="M437.69 164.26L437.69 167.37"/>
<path d="M437.69 164.26L240.92 164.26"/>
<path d="M240.92 167.37L240.92 164.26"/>
<path d="M237.62 221.23L232.95 221.23"/>
<path d="M232.95 221.23L225.17 229.01"/>
<path d="M237.62 221.23L237.62 229.01"/>
<path d="M232.95 221.23L232.95 208.4"/>
<path d="M232.95 208.4L225.17 200.62"/>
<path d="M255.12 208.4L262.89 200.62"/>
<path d="M232.95 208.4L255.12 208.4"/>
<path d="M255.12 221.23L262.89 229.01"/>
<path d="M255.12 208.4L255.12 221.23"/>
<path d="M255.12 221.23L250.45 221.23"/>
<path d="M250.45 221.23L250.45 229.01"/>
<path d="M175.4 221.23L170.73 221.23"/>
<path d="M170.73 221.23L162.95 229.01"/>
<path d="M175.4 221.23L175.4 229.01"/>
<path d="M162.95 200.62L170.73 208.4"/>
<path d="M170.73 221.23L170.73 208.4"/>
<path d="M192.9 208.4L200.67 200.62"/>
<path d="M170.73 208.4L192.9 208.4"/>
<path d="M192.9 208.4L192.9 221.23"/>
<path d="M192.9 221.23L200.67 229.01"/>
<path d="M192.9 221.23L188.23 221.23"/>
<path d="M188.23 221.23L188.23 229.01"/>
<path d="M437.1 221.23L437.1 229.01"/>
<path d="M424.27 221.23L424.27 229.01"/>
<path d="M424.27 221.23L419.61 221.23"/>
<path d="M419.61 221.23L411.83 229.01"/>
<path d="M419.61 221.23L419.61 208.4"/>
<path d="M419.61 208.4L411.83 200.62"/>
<path d="M441.77 208.4L449.55 200.62"/>
<path d="M419.61 208.4L441.77 208.4"/>
<path d="M441.77 221.23L449.55 229.01"/>
<path d="M441.77 208.4L441.77 221.23"/>
<path d="M441.77 221.23L437.1 221.23"/>
<path d="M374.89 221.23L374.89 229.01"/>
<path d="M362.05 221.23L362.05 229.01"/>
<path d="M362.05 221.23L357.39 221.23"/>
<path d="M357.39 221.23L349.61 229.01"/>
<path d="M349.61 200.62L357.39 208.4"/>
<path d="M357.39 221.23L357.39 208.4"/>
<path d="M379.55 208.4L387.33 200.62"/>
<path d="M357.39 208.4L379.55 208.4"/>
<path d="M379.55 208.4L379.55 221.23"/>
<path d="M379.55 221.23L387.33 229.01"/>
<path d="M379.55 221.23L374.89 221.23"/>
<path d="M312.67 221.23L312.67 229.01"/>
<path d="M299.83 221.23L299.83 229.01"/>
<path d="M295.17 221.23L287.39 229.01"/>
<path d="M299.83 221.23L295.17 221.23"/>
<path d="M295.17 208.4L287.39 200.62"/>
<path d="M295.17 221.23L295.17 208.4"/>
<path d="M295.17 208.4L317.33 208.4"/>
<path d="M317.33 208.4L325.11 200.62"/>
<path d="M317.33 208.4L317.33 221.23"/>
<path d="M317.33 221.23L325.11 229.01"/>
<path d="M317.33 221.23L312.67 221.23"/>
<path d="M481.24 217.92L483.07 217.33M483.07 217.33L484.2 215.77M484.2 215.77L484.2 213.85M484.2 213.85L483.07 212.29M483.07 212.29L481.24 211.7"/>
<path d="M380.91 265.36L381.82 267.56M381.82 267.56L384.02 268.48M384.02 268.48L386.22 267.56M386.22 267.56L387.14 265.36"/>
<path d="M225.37 265.36L226.28 267.56M226.28 267.56L228.48 268.48M228.48 268.48L230.68 267.56M230.68 267.56L231.59 265.36"/>
<path d="M270.48 164.26L269.88 162.43M269.88 162.43L268.33 161.3M268.33 161.3L266.4 161.3M266.4 161.3L264.85 162.43M264.85 162.43L264.25 164.26"/>
<path d="M387.14 164.26L386.54 162.43M386.54 162.43L384.99 161.3M384.99 161.3L383.06 161.3M383.06 161.3L381.51 162.43M381.51 162.43L380.91 164.26"/>
<path d="M264.25 296.47L281.36 304.45"/>
<path d="M348.25 296.47L331.14 304.45"/>
<path d="M339.64 300.49L348.25 296.47"/>
<path d="M360.69 103.29L370.03 103.29"/>
<path d="M242.48 103.29L251.81 103.29"/>
<path d="M370.03 103.29L371.58 102.87M371.58 102.87L372.72 101.73M372.72 101.73L373.14 100.17"/>
<path d="M239.37 100.17L239.78 101.73M239.78 101.73L240.92 102.87M240.92 102.87L242.48 103.29"/>
<path d="M290.7 90.93L321.81 90.93"/>
</g>
</g>
</svg>
