<?xml version="1.0" standalone="no"?><svg xmlns="http://www.w3.org/2000/svg" width="600.000" height="450.000" viewBox="0.0 0.0 600.000 450.000" version="1.1">
<title>Acme Converter - Post-processed with EDS-Designer: 14.44 (info@symca.com)</title>
<desc>Acme Converter - Post-processed with EDS-Designer: 14.44 (info@symca.com)</desc>
<g id="EDS_STYLE_GROUP" fill="none" stroke="black" stroke-width="1.0">
<g id="0" display="visible">
<path d="M254.17 360.67L254.17 339.19M255.2 339.19L255.2 360.67M251.1 339.19L263.38 339.19M263.38 339.19L266.45 340.21M266.45 340.21L267.47 341.23M267.47 341.23L268.49 343.28M268.49 343.28L268.49 345.32M268.49 345.32L267.47 347.37M267.47 347.37L266.45 348.39M266.45 348.39L263.38 349.42M263.38 339.19L265.42 340.21M265.42 340.21L266.45 341.23M266.45 341.23L267.47 343.28M267.47 343.28L267.47 345.32M267.47 345.32L266.45 347.37M266.45 347.37L265.42 348.39M265.42 348.39L263.38 349.42M255.2 349.42L263.38 349.42M263.38 349.42L266.45 350.44M266.45 350.44L267.47 351.46M267.47 351.46L268.49 353.51M268.49 353.51L268.49 356.58M268.49 356.58L267.47 358.62M267.47 358.62L266.45 359.64M266.45 359.64L263.38 360.67M263.38 360.67L251.1 360.67M263.38 349.42L265.42 350.44M265.42 350.44L266.45 351.46M266.45 351.46L267.47 353.51M267.47 353.51L267.47 356.58M267.47 356.58L266.45 358.62M266.45 358.62L265.42 359.64M265.42 359.64L263.38 360.67M276.67 360.67L276.67 339.19M277.7 339.19L277.7 360.67M273.6 339.19L280.76 339.19M273.6 360.67L288.95 360.67M288.95 360.67L288.95 354.53M288.95 354.53L287.92 360.67M301.22 339.19L294.06 360.67M301.22 339.19L308.38 360.67M301.22 342.26L307.36 360.67M296.11 354.53L305.31 354.53M292.01 360.67L298.15 360.67M304.29 360.67L310.42 360.67M327.81 342.26L328.83 345.32M328.83 345.32L328.83 339.19M328.83 339.19L327.81 342.26M327.81 342.26L325.76 340.21M325.76 340.21L322.7 339.19M322.7 339.19L320.65 339.19M320.65 339.19L317.58 340.21M317.58 340.21L315.54 342.26M315.54 342.26L314.51 344.3M314.51 344.3L313.49 347.37M313.49 347.37L313.49 352.48M313.49 352.48L314.51 355.55M314.51 355.55L315.54 357.6M315.54 357.6L317.58 359.64M317.58 359.64L320.65 360.67M320.65 360.67L322.7 360.67M322.7 360.67L325.76 359.64M325.76 359.64L327.81 357.6M327.81 357.6L328.83 355.55M320.65 339.19L318.61 340.21M318.61 340.21L316.56 342.26M316.56 342.26L315.54 344.3M315.54 344.3L314.51 347.37M314.51 347.37L314.51 352.48M314.51 352.48L315.54 355.55M315.54 355.55L316.56 357.6M316.56 357.6L318.61 359.64M318.61 359.64L320.65 360.67M338.04 360.67L338.04 339.19M339.06 339.19L339.06 360.67M352.36 339.19L339.06 352.48M344.17 348.39L352.36 360.67M343.15 348.39L351.33 360.67M334.97 339.19L342.13 339.19M348.27 339.19L354.4 339.19M334.97 360.67L342.13 360.67M348.27 360.67L354.4 360.67"/>
<path d="M498.79 235.65L500.43 234.83M500.43 234.83L502.89 232.37M502.89 232.37L502.89 249.56"/>
<path d="M106.7 232.22L98.52 232.22M98.52 232.22L97.7 239.58M97.7 239.58L98.52 238.76M98.52 238.76L100.97 237.95M100.97 237.95L103.42 237.95M103.42 237.95L105.88 238.76M105.88 238.76L107.52 240.4M107.52 240.4L108.33 242.86M108.33 242.86L108.33 244.49M108.33 244.49L107.52 246.95M107.52 246.95L105.88 248.58M105.88 248.58L103.42 249.4M103.42 249.4L100.97 249.4M100.97 249.4L98.52 248.58M98.52 248.58L97.7 247.76M97.7 247.76L96.88 246.13"/>
<path d="M375.34 279.44L411.3 279.44"/>
<path d="M375.34 279.44L194.24 279.44"/>
<path d="M411.3 279.44L423.28 277.54M423.28 277.54L434.1 272.03M434.1 272.03L442.68 263.45M442.68 263.45L448.19 252.64M448.19 252.64L450.09 240.65"/>
<path d="M450.09 229.09L450.09 240.65"/>
<path d="M450.09 229.09L448.19 217.1M448.19 217.1L442.68 206.29M442.68 206.29L434.1 197.71M434.1 197.71L423.28 192.2M423.28 192.2L411.3 190.3"/>
<path d="M375.34 190.3L194.24 190.3"/>
<path d="M375.34 190.3L411.3 190.3"/>
<path d="M194.24 190.3L182.25 192.2M182.25 192.2L171.44 197.71M171.44 197.71L162.86 206.29M162.86 206.29L157.35 217.1M157.35 217.1L155.45 229.09"/>
<path d="M155.45 229.09L155.45 240.65"/>
<path d="M155.45 240.65L157.35 252.64M157.35 252.64L162.86 263.45M162.86 263.45L171.44 272.03M171.44 272.03L182.25 277.54M182.25 277.54L194.24 279.44"/>
<path d="M362.49 167.44L362.49 175.14"/>
<path d="M362.49 175.14L243.05 175.14"/>
<path d="M243.05 175.14L243.05 167.44"/>
<path d="M362.49 105.79L362.49 167.44"/>
<path d="M243.05 105.79L243.05 167.44"/>
<path d="M243.05 167.44L194.24 167.44"/>
<path d="M194.24 167.44L180.52 168.98M180.52 168.98L167.49 173.54M167.49 173.54L155.8 180.89M155.8 180.89L146.04 190.65M146.04 190.65L138.7 202.34M138.7 202.34L134.14 215.37M134.14 215.37L132.59 229.09"/>
<path d="M132.59 229.09L132.59 240.65"/>
<path d="M132.59 240.65L134.14 254.37M134.14 254.37L138.7 267.4M138.7 267.4L146.04 279.09M146.04 279.09L155.8 288.85M155.8 288.85L167.49 296.19M167.49 296.19L180.52 300.75M180.52 300.75L194.24 302.3"/>
<path d="M405.52 302.3L401.02 302.3"/>
<path d="M405.52 302.3L411.3 302.3"/>
<path d="M194.24 302.3L200.02 302.3"/>
<path d="M204.52 302.3L200.02 302.3"/>
<path d="M230.2 302.3L204.52 302.3"/>
<path d="M249.08 302.3L230.2 302.3"/>
<path d="M249.08 302.3L356.46 302.3"/>
<path d="M375.34 302.3L356.46 302.3"/>
<path d="M375.34 302.3L401.02 302.3"/>
<path d="M411.3 302.3L425.02 300.75M425.02 300.75L438.05 296.19M438.05 296.19L449.74 288.85M449.74 288.85L459.5 279.09M459.5 279.09L466.84 267.4M466.84 267.4L471.4 254.37M471.4 254.37L472.95 240.65"/>
<path d="M472.95 229.09L472.95 240.65"/>
<path d="M472.95 229.09L471.4 215.37M471.4 215.37L466.84 202.34M466.84 202.34L459.5 190.65M459.5 190.65L449.73 180.89M449.73 180.89L438.05 173.54M438.05 173.54L425.02 168.98M425.02 168.98L411.3 167.44"/>
<path d="M411.3 167.44L362.49 167.44"/>
<path d="M388.82 190.56L411.3 190.56"/>
<path d="M268.09 190.56L194.24 190.56"/>
<path d="M319.47 190.56L286.07 190.56"/>
<path d="M370.84 190.56L337.45 190.56"/>
<path d="M422.22 192.13L411.3 190.56"/>
<path d="M449.23 222.34L445.71 211.75"/>
<path d="M449.83 229.08L449.23 222.34"/>
<path d="M445.71 211.75L440.07 203.46M440.07 203.46L432.49 196.91"/>
<path d="M449.83 240.65L449.83 229.08"/>
<path d="M432.49 272.83L440.33 265.98M440.33 265.98L446.05 257.29M446.05 257.29L449.23 247.39"/>
<path d="M449.23 247.39L449.83 240.65"/>
<path d="M411.3 279.18L422.36 277.56M422.36 277.56L432.49 272.83"/>
<path d="M375.34 279.18L194.24 279.18"/>
<path d="M375.34 279.18L411.3 279.18"/>
<path d="M155.71 240.65L156.88 250.07M156.88 250.07L160.32 258.92M160.32 258.92L165.82 266.67M165.82 266.67L173.05 272.83"/>
<path d="M173.05 272.83L183.18 277.56M183.18 277.56L194.24 279.18"/>
<path d="M155.71 229.08L155.71 240.65"/>
<path d="M159.83 211.75L156.75 220.18M156.75 220.18L155.71 229.08"/>
<path d="M188.32 191.01L183.32 192.13"/>
<path d="M173.05 196.91L165.47 203.46M165.47 203.46L159.83 211.75"/>
<path d="M194.24 190.56L188.32 191.01"/>
<path d="M375.34 90.38L375.34 152.03"/>
<path d="M230.2 90.38L375.34 90.38"/>
<path d="M230.2 90.38L230.2 152.03"/>
<path d="M230.2 152.03L194.24 152.03"/>
<path d="M194.24 152.03L177.09 153.96M177.09 153.96L160.81 159.66M160.81 159.66L146.19 168.84M146.19 168.84L133.99 181.04M133.99 181.04L124.81 195.65M124.81 195.65L119.11 211.94M119.11 211.94L117.18 229.09"/>
<path d="M117.18 240.65L117.18 229.09"/>
<path d="M117.18 240.65L119.11 257.8M119.11 257.8L124.81 274.08M124.81 274.08L133.99 288.7M133.99 288.7L146.19 300.9M146.19 300.9L160.8 310.08M160.8 310.08L177.09 315.78M177.09 315.78L194.24 317.71"/>
<path d="M200.02 317.71L194.24 317.71"/>
<path d="M200.02 317.71L200.02 302.3"/>
<path d="M243.05 105.79L283.5 105.79"/>
<path d="M283.5 105.79L283.5 119.92"/>
<path d="M283.5 119.92L322.03 119.92"/>
<path d="M322.03 105.79L322.03 119.92"/>
<path d="M322.03 105.79L362.49 105.79"/>
<path d="M405.52 302.3L405.52 317.71"/>
<path d="M411.3 317.71L405.52 317.71"/>
<path d="M411.3 317.71L428.45 315.78M428.45 315.78L444.73 310.08M444.73 310.08L459.35 300.9M459.35 300.9L471.55 288.7M471.55 288.7L480.73 274.08M480.73 274.08L486.43 257.8M486.43 257.8L488.36 240.65"/>
<path d="M488.36 240.65L488.36 229.08"/>
<path d="M488.36 229.08L486.43 211.94M486.43 211.94L480.73 195.65M480.73 195.65L471.55 181.04M471.55 181.04L459.34 168.84M459.34 168.84L444.73 159.66M444.73 159.66L428.45 153.96M428.45 153.96L411.3 152.03"/>
<path d="M375.34 152.03L411.3 152.03"/>
<path d="M349.65 105.79L362.49 105.79"/>
<path d="M325.25 128.91L325.25 107.07"/>
<path d="M362.49 128.91L325.25 128.91"/>
<path d="M280.29 128.91L243.05 128.91"/>
<path d="M280.29 128.91L280.29 107.07"/>
<path d="M280.29 107.07L280.29 105.79"/>
<path d="M325.25 107.07L325.25 105.79"/>
<path d="M167.47 156.83L154.02 160.18M154.02 160.18L141.95 167M141.95 167L132.15 176.8M132.15 176.8L125.33 188.87M125.33 188.87L121.98 202.32"/>
<path d="M121.98 267.42L125.33 280.87M125.33 280.87L132.15 292.94M132.15 292.94L141.95 302.74M141.95 302.74L154.02 309.56M154.02 309.56L167.47 312.91"/>
<path d="M438.07 312.91L451.52 309.56M451.52 309.56L463.58 302.74M463.58 302.74L473.39 292.94M473.39 292.94L480.21 280.87M480.21 280.87L483.56 267.42"/>
<path d="M483.56 202.32L480.21 188.87M480.21 188.87L473.39 176.8M473.39 176.8L463.59 167M463.59 167L451.52 160.18M451.52 160.18L438.07 156.83"/>
<path d="M344.51 175.14L344.51 162.3"/>
<path d="M261.03 175.14L261.03 162.3"/>
<path d="M261.03 162.3L261.03 154.59"/>
<path d="M344.51 162.3L344.51 154.59"/>
<path d="M243.05 105.79L255.89 105.79"/>
<path d="M401.02 302.3L401.02 317.71"/>
<path d="M401.02 317.71L405.52 317.71"/>
<path d="M204.52 317.71L204.52 302.3"/>
<path d="M200.02 317.71L204.52 317.71"/>
<path d="M230.2 317.71L204.52 317.71"/>
<path d="M230.2 317.71L230.2 302.3"/>
<path d="M230.2 317.71L249.08 317.71"/>
<path d="M249.08 302.3L249.08 317.71"/>
<path d="M356.46 317.71L249.08 317.71"/>
<path d="M356.46 317.71L356.46 302.3"/>
<path d="M375.34 302.3L375.34 317.71"/>
<path d="M356.46 317.71L375.34 317.71"/>
<path d="M375.34 317.71L401.02 317.71"/>
<path d="M432.49 211.75L445.71 211.75"/>
<path d="M432.49 222.34L446.22 222.34"/>
<path d="M449.23 222.34L446.22 222.34"/>
<path d="M446.86 229.09L446.22 222.34"/>
<path d="M446.86 229.09L449.83 229.09"/>
<path d="M189.75 211.75L261.67 211.75"/>
<path d="M292.49 211.75L313.04 211.75"/>
<path d="M343.87 211.75L364.42 211.75"/>
<path d="M395.24 211.75L415.79 211.75"/>
<path d="M173.05 211.75L159.83 211.75"/>
<path d="M446.86 240.65L446.86 229.09"/>
<path d="M449.83 240.65L446.86 240.65"/>
<path d="M449.23 247.39L446.22 247.39"/>
<path d="M446.22 247.39L446.86 240.65"/>
<path d="M432.49 247.39L446.22 247.39"/>
<path d="M432.49 247.39L432.49 269.21"/>
<path d="M432.49 269.21L432.49 272.83"/>
<path d="M411.3 276.21L422.46 274.42M422.46 274.42L432.49 269.21"/>
<path d="M411.3 276.21L411.3 279.18"/>
<path d="M401.02 276.21L411.3 276.21"/>
<path d="M375.34 276.21L401.02 276.21"/>
<path d="M230.2 276.21L375.34 276.21"/>
<path d="M230.2 276.21L204.52 276.21"/>
<path d="M194.24 276.21L204.52 276.21"/>
<path d="M194.24 279.18L194.24 276.21"/>
<path d="M173.05 272.83L176.01 271.19"/>
<path d="M176.01 271.19L184.79 274.93M184.79 274.93L194.24 276.21"/>
<path d="M173.05 196.91L173.05 272.83"/>
<path d="M261.03 162.3L344.51 162.3"/>
<path d="M259.42 154.92L261.03 154.92"/>
<path d="M261.03 132.44L261.03 129.87"/>
<path d="M244.97 129.87L261.03 129.87"/>
<path d="M244.97 132.44L244.97 129.87"/>
<path d="M244.97 132.44L244.97 163.26"/>
<path d="M244.97 163.26L261.03 163.26"/>
<path d="M254.28 149.78L255.79 153.41M255.79 153.41L259.42 154.92"/>
<path d="M254.28 149.14L254.28 149.78"/>
<path d="M259.42 144L255.79 145.5M255.79 145.5L254.28 149.14"/>
<path d="M259.42 144L261.03 144"/>
<path d="M261.03 144L261.03 132.44"/>
<path d="M344.51 154.59L345.8 154.59"/>
<path d="M345.8 154.59L348.81 153.61M348.81 153.61L350.68 151.04M350.68 151.04L350.68 147.87M350.68 147.87L348.81 145.3M348.81 145.3L345.8 144.32"/>
<path d="M342.58 144.32L345.8 144.32"/>
<path d="M342.58 144.32L342.58 138.94"/>
<path d="M331.03 138.94L342.58 138.94"/>
<path d="M331.03 144.32L331.03 138.94"/>
<path d="M274.51 144.32L331.03 144.32"/>
<path d="M274.51 144.32L274.51 138.94"/>
<path d="M262.95 138.94L274.51 138.94"/>
<path d="M262.95 144.32L262.95 138.94"/>
<path d="M259.74 144.32L262.95 144.32"/>
<path d="M259.74 144.32L256.11 145.82M256.11 145.82L254.61 149.46M254.61 149.46L256.11 153.09M256.11 153.09L259.74 154.59"/>
<path d="M259.74 154.59L261.03 154.59"/>
<path d="M344.51 163.26L360.57 163.26"/>
<path d="M360.57 132.44L360.57 129.87"/>
<path d="M360.57 129.87L344.51 129.87"/>
<path d="M344.51 132.44L344.51 129.87"/>
<path d="M344.51 132.44L344.51 144"/>
<path d="M344.51 144L346.12 144"/>
<path d="M351.25 149.14L350.57 146.57M350.57 146.57L348.69 144.69M348.69 144.69L346.12 144"/>
<path d="M351.25 149.14L351.25 149.78"/>
<path d="M346.12 154.92L348.69 154.23M348.69 154.23L350.57 152.35M350.57 152.35L351.25 149.78"/>
<path d="M344.51 154.92L346.12 154.92"/>
<path d="M360.57 132.44L360.57 163.26"/>
<path d="M432.49 200.52L432.49 196.91"/>
<path d="M432.49 222.34L432.49 200.52"/>
<path d="M370.84 190.56L388.82 190.56"/>
<path d="M370.84 205.33L370.84 190.56"/>
<path d="M364.42 211.75L367.63 210.89M367.63 210.89L369.98 208.54M369.98 208.54L370.84 205.33"/>
<path d="M337.45 205.33L338.31 208.54M338.31 208.54L340.66 210.89M340.66 210.89L343.87 211.75"/>
<path d="M337.45 190.56L337.45 205.33"/>
<path d="M319.47 190.56L337.45 190.56"/>
<path d="M319.47 205.33L319.47 190.56"/>
<path d="M313.04 211.75L316.25 210.89M316.25 210.89L318.61 208.54M318.61 208.54L319.47 205.33"/>
<path d="M286.07 205.33L286.93 208.54M286.93 208.54L289.28 210.89M289.28 210.89L292.49 211.75"/>
<path d="M286.07 190.56L286.07 205.33"/>
<path d="M268.09 190.56L286.07 190.56"/>
<path d="M268.09 205.33L268.09 190.56"/>
<path d="M261.67 211.75L264.88 210.89M264.88 210.89L267.23 208.54M267.23 208.54L268.09 205.33"/>
<path d="M183.32 205.33L184.18 208.54M184.18 208.54L186.53 210.89M186.53 210.89L189.75 211.75"/>
<path d="M183.32 195.24L183.32 205.33"/>
<path d="M183.32 195.24L176.02 198.55"/>
<path d="M176.01 198.55L176.01 271.19"/>
<path d="M432.49 200.52L422.21 195.24"/>
<path d="M422.21 205.33L422.21 195.24"/>
<path d="M415.79 211.75L419 210.89M419 210.89L421.35 208.54M421.35 208.54L422.21 205.33"/>
<path d="M388.82 205.33L389.68 208.54M389.68 208.54L392.03 210.89M392.03 210.89L395.24 211.75"/>
<path d="M388.82 190.56L388.82 205.33"/>
<path d="M173.05 196.91L176.01 198.55"/>
<path d="M183.32 192.13L173.05 196.91"/>
<path d="M244.97 129.87L244.97 128.91"/>
<path d="M244.97 90.38L244.97 90.06"/>
<path d="M276.44 144L283.5 144"/>
<path d="M261.03 144L262.95 144"/>
<path d="M274.51 144L276.44 144"/>
<path d="M344.51 144L342.58 144"/>
<path d="M331.03 144L329.1 144"/>
<path d="M322.03 144L329.1 144"/>
<path d="M342.58 132.76L342.58 138.94"/>
<path d="M331.03 132.76L342.58 132.76"/>
<path d="M331.03 138.94L331.03 132.76"/>
<path d="M274.51 138.94L274.51 132.76"/>
<path d="M262.95 138.94L262.95 132.76"/>
<path d="M262.95 132.76L274.51 132.76"/>
<path d="M360.57 90.38L360.57 90.06"/>
<path d="M360.57 129.87L360.57 128.91"/>
<path d="M432.49 196.91L422.22 192.13"/>
<path d="M422.21 195.24L422.21 192.13"/>
<path d="M183.32 195.24L183.32 192.13"/>
<path d="M315.61 119.92L315.61 128.59"/>
<path d="M289.93 119.92L289.93 128.59"/>
<path d="M322.03 168L283.5 168"/>
<path d="M322.03 162.3L322.03 168"/>
<path d="M322.03 128.59L322.03 128.64"/>
<path d="M322.03 128.64L322.03 136.94"/>
<path d="M322.03 139.29L322.03 136.94"/>
<path d="M322.03 139.29L322.03 141.17"/>
<path d="M322.03 141.17L322.03 144.32"/>
<path d="M283.5 141.17L283.5 144.32"/>
<path d="M283.5 140.07L283.5 141.17"/>
<path d="M283.5 140.07L283.5 137.72"/>
<path d="M283.5 137.72L283.5 136.94"/>
<path d="M283.5 128.64L283.5 136.94"/>
<path d="M283.5 128.59L283.5 128.64"/>
<path d="M283.5 162.3L283.5 168"/>
<path d="M261.03 132.44L276.44 132.44"/>
<path d="M276.44 132.44L283.5 132.44"/>
<path d="M322.03 132.44L329.1 132.44"/>
<path d="M344.51 132.44L329.1 132.44"/>
<path d="M360.57 90.06L244.97 90.06"/>
<path d="M276.44 144L276.44 132.44"/>
<path d="M329.1 132.44L329.1 144"/>
<path d="M322.03 141.17L283.5 141.17"/>
<path d="M322.03 128.59L283.5 128.59"/>
<path d="M322.03 128.64L283.5 128.64"/>
<path d="M205.77 222.5L215.65 222.5M215.65 222.5L215.65 245.57M215.65 245.57L205.77 245.57"/>
<path d="M195.11 245.57L185.12 245.57M185.12 245.57L185.12 222.5M185.12 222.5L195.11 222.5"/>
<path d="M195.11 228.93L195.11 218.51M195.11 218.51L205.77 218.51M205.77 218.51L205.77 228.93"/>
<path d="M205.77 239.47L205.77 257.66M205.77 257.66L195.11 257.66M195.11 257.66L195.11 239.47"/>
<path d="M205.77 228.93L208.98 228.93M208.98 228.93L208.98 239.47M208.98 239.47L205.77 239.47"/>
<path d="M195.11 239.47L191.44 239.47M191.44 239.47L191.44 228.93M191.44 228.93L195.11 228.93"/>
<path d="M208.98 228.93L215.65 222.5"/>
<path d="M208.98 239.47L215.65 245.57"/>
<path d="M185.12 245.57L191.44 239.47"/>
<path d="M185.12 222.5L191.44 228.93"/>
<path d="M195.11 255.66L205.77 255.66"/>
<path d="M256.83 222.5L266.71 222.5M266.71 222.5L266.71 245.57M266.71 245.57L256.83 245.57"/>
<path d="M246.17 245.57L236.18 245.57M236.18 245.57L236.18 222.5M236.18 222.5L246.17 222.5"/>
<path d="M246.17 228.93L246.17 218.51M246.17 218.51L256.83 218.51M256.83 218.51L256.83 228.93"/>
<path d="M256.83 239.47L256.83 257.66M256.83 257.66L246.17 257.66M246.17 257.66L246.17 239.47"/>
<path d="M256.83 228.93L260.05 228.93M260.05 228.93L260.05 239.47M260.05 239.47L256.83 239.47"/>
<path d="M246.17 239.47L242.51 239.47M242.51 239.47L242.51 228.93M242.51 228.93L246.17 228.93"/>
<path d="M260.05 228.93L266.71 222.5"/>
<path d="M260.05 239.47L266.71 245.57"/>
<path d="M236.18 245.57L242.51 239.47"/>
<path d="M236.18 222.5L242.51 228.93"/>
<path d="M246.17 255.66L256.83 255.66"/>
<path d="M307.89 222.5L317.77 222.5M317.77 222.5L317.77 245.57M317.77 245.57L307.89 245.57"/>
<path d="M297.23 245.57L287.24 245.57M287.24 245.57L287.24 222.5M287.24 222.5L297.23 222.5"/>
<path d="M297.23 228.93L297.23 218.51M297.23 218.51L307.89 218.51M307.89 218.51L307.89 228.93"/>
<path d="M307.89 239.47L307.89 257.66M307.89 257.66L297.23 257.66M297.23 257.66L297.23 239.47"/>
<path d="M307.89 228.93L311.11 228.93M311.11 228.93L311.11 239.47M311.11 239.47L307.89 239.47"/>
<path d="M297.23 239.47L293.57 239.47M293.57 239.47L293.57 228.93M293.57 228.93L297.23 228.93"/>
<path d="M311.11 228.93L317.77 222.5"/>
<path d="M311.11 239.47L317.77 245.57"/>
<path d="M287.24 245.57L293.57 239.47"/>
<path d="M287.24 222.5L293.57 228.93"/>
<path d="M297.23 255.66L307.89 255.66"/>
<path d="M358.95 222.5L368.83 222.5M368.83 222.5L368.83 245.57M368.83 245.57L358.95 245.57"/>
<path d="M348.29 245.57L338.3 245.57M338.3 245.57L338.3 222.5M338.3 222.5L348.29 222.5"/>
<path d="M348.29 228.93L348.29 218.51M348.29 218.51L358.95 218.51M358.95 218.51L358.95 228.93"/>
<path d="M358.95 239.47L358.95 257.66M358.95 257.66L348.29 257.66M348.29 257.66L348.29 239.47"/>
<path d="M358.95 228.93L362.17 228.93M362.17 228.93L362.17 239.47M362.17 239.47L358.95 239.47"/>
<path d="M348.29 239.47L344.63 239.47M344.63 239.47L344.63 228.93M344.63 228.93L348.29 228.93"/>
<path d="M362.17 228.93L368.83 222.5"/>
<path d="M362.17 239.47L368.83 245.57"/>
<path d="M338.3 245.57L344.63 239.47"/>
<path d="M338.3 222.5L344.63 228.93"/>
<path d="M348.29 255.66L358.95 255.66"/>
<path d="M410.01 222.5L419.89 222.5M419.89 222.5L419.89 245.57M419.89 245.57L410.01 245.57"/>
<path d="M399.35 245.57L389.36 245.57M389.36 245.57L389.36 222.5M389.36 222.5L399.35 222.5"/>
<path d="M399.35 228.93L399.35 218.51M399.35 218.51L410.01 218.51M410.01 218.51L410.01 228.93"/>
<path d="M410.01 239.47L410.01 257.66M410.01 257.66L399.35 257.66M399.35 257.66L399.35 239.47"/>
<path d="M410.01 228.93L413.23 228.93M413.23 228.93L413.23 239.47M413.23 239.47L410.01 239.47"/>
<path d="M399.35 239.47L395.69 239.47M395.69 239.47L395.69 228.93M395.69 228.93L399.35 228.93"/>
<path d="M413.23 228.93L419.89 222.5"/>
<path d="M413.23 239.47L419.89 245.57"/>
<path d="M389.36 245.57L395.69 239.47"/>
<path d="M389.36 222.5L395.69 228.93"/>
<path d="M399.35 255.66L410.01 255.66"/>
</g>
</g>
</svg>
