<?xml version="1.0" standalone="no"?><svg xmlns="http://www.w3.org/2000/svg" width="600.000" height="450.000" viewBox="0.0 0.0 600.000 450.000" version="1.1">
<title>Acme Converter - Post-processed with EDS-Designer: 14.44 (info@symca.com)</title>
<desc>Acme Converter - Post-processed with EDS-Designer: 14.44 (info@symca.com)</desc>
<g id="EDS_STYLE_GROUP" fill="none" stroke="black" stroke-width="1.0">
<g id="0" display="visible">
<path d="M238.15 399.59L238.15 368.63M239.63 368.63L239.63 399.59M233.73 368.63L251.42 368.63M251.42 368.63L255.84 370.11M255.84 370.11L257.31 371.58M257.31 371.58L258.79 374.53M258.79 374.53L258.79 377.48M258.79 377.48L257.31 380.42M257.31 380.42L255.84 381.9M255.84 381.9L251.42 383.37M251.42 368.63L254.37 370.11M254.37 370.11L255.84 371.58M255.84 371.58L257.31 374.53M257.31 374.53L257.31 377.48M257.31 377.48L255.84 380.42M255.84 380.42L254.37 381.9M254.37 381.9L251.42 383.37M239.63 383.37L251.42 383.37M251.42 383.37L255.84 384.85M255.84 384.85L257.31 386.32M257.31 386.32L258.79 389.27M258.79 389.27L258.79 393.69M258.79 393.69L257.31 396.64M257.31 396.64L255.84 398.11M255.84 398.11L251.42 399.59M251.42 399.59L233.73 399.59M251.42 383.37L254.37 384.85M254.37 384.85L255.84 386.32M255.84 386.32L257.31 389.27M257.31 389.27L257.31 393.69M257.31 393.69L255.84 396.64M255.84 396.64L254.37 398.11M254.37 398.11L251.42 399.59M270.58 399.59L270.58 368.63M272.06 368.63L272.06 399.59M266.16 368.63L276.48 368.63M266.16 399.59L288.27 399.59M288.27 399.59L288.27 390.74M288.27 390.74L286.8 399.59M305.96 368.63L295.64 399.59M305.96 368.63L316.28 399.59M305.96 373.05L314.8 399.59M298.59 390.74L311.86 390.74M292.69 399.59L301.54 399.59M310.38 399.59L319.23 399.59M344.28 373.05L345.76 377.48M345.76 377.48L345.76 368.63M345.76 368.63L344.28 373.05M344.28 373.05L341.34 370.11M341.34 370.11L336.91 368.63M336.91 368.63L333.97 368.63M333.97 368.63L329.54 370.11M329.54 370.11L326.6 373.05M326.6 373.05L325.12 376M325.12 376L323.65 380.42M323.65 380.42L323.65 387.79M323.65 387.79L325.12 392.22M325.12 392.22L326.6 395.16M326.6 395.16L329.54 398.11M329.54 398.11L333.97 399.59M333.97 399.59L336.91 399.59M336.91 399.59L341.34 398.11M341.34 398.11L344.28 395.16M344.28 395.16L345.76 392.22M333.97 368.63L331.02 370.11M331.02 370.11L328.07 373.05M328.07 373.05L326.6 376M326.6 376L325.12 380.42M325.12 380.42L325.12 387.79M325.12 387.79L326.6 392.22M326.6 392.22L328.07 395.16M328.07 395.16L331.02 398.11M331.02 398.11L333.97 399.59M359.03 399.59L359.03 368.63M360.5 368.63L360.5 399.59M379.66 368.63L360.5 387.79M367.87 381.9L379.66 399.59M366.4 381.9L378.19 399.59M354.6 368.63L364.92 368.63M373.77 368.63L382.61 368.63M354.6 399.59L364.92 399.59M373.77 399.59L382.61 399.59"/>
<path d="M159.98 150.42L162.34 149.25M162.34 149.25L165.88 145.71M165.88 145.71L165.88 170.47"/>
<path d="M153.14 224.49L153.14 223.31M153.14 223.31L154.32 220.95M154.32 220.95L155.5 219.77M155.5 219.77L157.85 218.59M157.85 218.59L162.57 218.59M162.57 218.59L164.93 219.77M164.93 219.77L166.11 220.95M166.11 220.95L167.29 223.31M167.29 223.31L167.29 225.67M167.29 225.67L166.11 228.03M166.11 228.03L163.75 231.57M163.75 231.57L151.96 243.36M151.96 243.36L168.47 243.36"/>
<path d="M252.41 143.34L252.56 144.04"/>
<path d="M252.41 244.74L252.45 244.43"/>
<path d="M252.56 244.04L252.41 244.74"/>
<path d="M252.89 266.06L253.03 266.21"/>
<path d="M340.01 308.27L343.1 308.27"/>
<path d="M264.48 232.74L266.37 249.54M266.37 249.54L271.96 265.51M271.96 265.51L280.95 279.83M280.95 279.83L292.91 291.79M292.91 291.79L307.24 300.79M307.24 300.79L323.2 306.37M323.2 306.37L340.01 308.27"/>
<path d="M343.1 79.82L340.01 79.82"/>
<path d="M343.1 308.27L359.91 306.37M359.91 306.37L375.88 300.79M375.88 300.79L390.2 291.79M390.2 291.79L402.16 279.83M402.16 279.83L411.15 265.51M411.15 265.51L416.74 249.54M416.74 249.54L418.63 232.74"/>
<path d="M264.48 155.35L264.48 232.74"/>
<path d="M340.01 79.82L323.2 81.71M323.2 81.71L307.24 87.3M307.24 87.3L292.91 96.3M292.91 96.3L280.95 108.26M280.95 108.26L271.96 122.58M271.96 122.58L266.37 138.54M266.37 138.54L264.48 155.35"/>
<path d="M418.63 155.35L416.74 138.54M416.74 138.54L411.15 122.58M411.15 122.58L402.16 108.26M402.16 108.26L390.2 96.3M390.2 96.3L375.88 87.3M375.88 87.3L359.91 81.71M359.91 81.71L343.1 79.82"/>
<path d="M418.63 232.74L418.63 155.35"/>
<path d="M243.74 179.8L245.76 179.8"/>
<path d="M243.74 208.28L245.76 208.28"/>
<path d="M245.76 187.85L243.74 187.85"/>
<path d="M245.76 179.8L245.76 187.85"/>
<path d="M245.76 179.8L246.37 179.8"/>
<path d="M245.76 208.28L246.37 208.28"/>
<path d="M245.76 200.23L245.76 208.28"/>
<path d="M245.76 200.23L243.74 200.23"/>
<path d="M243.74 161.85L246.15 161.85"/>
<path d="M246.38 179.8L250.36 179.8"/>
<path d="M246.37 161.85L246.37 179.8"/>
<path d="M246.15 161.85L246.37 161.85"/>
<path d="M246.15 152.56L246.15 161.85"/>
<path d="M250.36 152.56L250.36 179.8"/>
<path d="M255.04 179.8L250.36 179.8"/>
<path d="M255.04 152.56L255.04 179.8"/>
<path d="M255.13 208.28L258.59 208.28"/>
<path d="M255.13 208.28L255.13 179.8"/>
<path d="M255.13 179.8L258.59 179.8"/>
<path d="M243.74 152.56L246.15 152.56"/>
<path d="M246.15 152.56L250.36 152.56"/>
<path d="M255.04 152.56L250.36 152.56"/>
<path d="M255.04 152.56L258.59 152.56"/>
<path d="M246.15 226.24L243.74 226.24"/>
<path d="M246.38 208.28L250.36 208.28"/>
<path d="M246.15 235.52L246.15 226.24"/>
<path d="M246.37 226.24L246.15 226.24"/>
<path d="M246.37 208.28L246.37 226.24"/>
<path d="M250.36 235.52L250.36 208.28"/>
<path d="M255.04 208.28L250.36 208.28"/>
<path d="M255.04 235.52L255.04 208.28"/>
<path d="M258.59 235.52L258.59 208.28"/>
<path d="M258.59 208.28L258.59 179.8"/>
<path d="M258.59 152.56L258.59 179.8"/>
<path d="M250.73 144.51L250.73 152.56"/>
<path d="M251.45 143.28L250.94 143.64M250.94 143.64L250.73 144.51"/>
<path d="M243.74 144.51L250.73 144.51"/>
<path d="M252.65 144.51L252.65 152.56"/>
<path d="M243.74 235.52L246.15 235.52"/>
<path d="M246.15 235.52L250.36 235.52"/>
<path d="M255.04 235.52L250.36 235.52"/>
<path d="M255.04 235.52L258.59 235.52"/>
<path d="M252.65 144.51L252.3 143.65M252.3 143.65L251.45 143.28"/>
<path d="M243.74 143.28L251.45 143.28"/>
<path d="M179.8 291.1L179.89 291.15"/>
<path d="M250.73 243.57L243.74 243.57"/>
<path d="M250.73 235.52L250.73 243.57"/>
<path d="M250.73 243.57L250.83 244.19M250.83 244.19L251.09 244.64M251.09 244.64L251.45 244.81"/>
<path d="M252.65 235.52L252.65 243.57"/>
<path d="M252.23 142.83L252.49 143.9"/>
<path d="M249.71 141.11L249.94 142.19M249.94 142.19L250.56 142.99M250.56 142.99L251.41 143.28"/>
<path d="M307.65 59.84L182.03 100.06"/>
<path d="M180.9 96.52L177.78 98.76M177.78 98.76L176.59 102.41"/>
<path d="M182.03 100.06L180.9 96.52"/>
<path d="M182.03 100.06L180.78 100.95M180.78 100.95L180.31 102.41"/>
<path d="M176.59 102.41L176.59 285.67"/>
<path d="M180.31 102.41L176.59 102.41"/>
<path d="M180.31 102.41L180.31 285.67"/>
<path d="M176.59 285.67L177.45 288.82M177.45 288.82L179.8 291.1"/>
<path d="M180.31 285.67L176.59 285.67"/>
<path d="M180.31 285.67L180.65 286.93M180.65 286.93L181.59 287.84"/>
<path d="M308.94 55.53L180.9 96.52"/>
<path d="M251.45 244.81L243.74 244.81"/>
<path d="M251.45 244.81L252.3 244.43M252.3 244.43L252.65 243.57"/>
<path d="M179.8 291.1L255.5 332.72"/>
<path d="M181.59 287.84L179.8 291.1"/>
<path d="M257.26 329.45L181.59 287.84"/>
<path d="M257.39 329.52L265.76 332.83M265.76 332.83L274.69 333.96"/>
<path d="M257.39 329.52L255.6 332.77"/>
<path d="M274.69 333.96L274.69 337.68"/>
<path d="M274.69 333.96L408.42 333.96"/>
<path d="M408.42 333.96L408.42 337.68"/>
<path d="M408.42 333.96L419.52 332.2M419.52 332.2L429.53 327.1M429.53 327.1L437.47 319.16M437.47 319.16L442.57 309.15M442.57 309.15L444.33 298.05"/>
<path d="M444.33 298.05L448.04 298.05"/>
<path d="M444.33 298.05L444.33 156.9"/>
<path d="M444.33 156.9L448.04 156.9"/>
<path d="M444.33 156.9L442.35 136.85M442.35 136.85L436.5 117.57M436.5 117.57L427.01 99.8M427.01 99.8L414.23 84.22M414.23 84.22L398.65 71.44M398.65 71.44L380.88 61.95M380.88 61.95L361.61 56.1M361.61 56.1L341.56 54.12"/>
<path d="M307.68 59.83L309.48 58.88M309.48 58.88L309.07 56.25M309.07 56.25L308.91 55.78M308.91 55.78L308.89 55.62M308.89 55.62L308.9 55.56M308.9 55.56L308.91 55.54M308.91 55.54L308.94 55.53"/>
<path d="M341.56 54.12L324.37 55.57M324.37 55.57L307.66 59.87"/>
<path d="M252.4 143.25L252.23 142.83"/>
<path d="M252.22 142.83L251.22 141.6M251.22 141.6L249.71 141.1"/>
<path d="M243.74 141.11L249.71 141.11"/>
<path d="M252.4 125.63L252.4 143.25"/>
<path d="M255.6 332.77L255.49 332.71"/>
<path d="M255.6 332.77L264.84 336.43M264.84 336.43L274.69 337.68"/>
<path d="M274.69 337.68L408.42 337.68"/>
<path d="M408.42 337.68L420.66 335.74M420.66 335.74L431.71 330.11M431.71 330.11L440.48 321.34M440.48 321.34L446.1 310.3M446.1 310.3L448.04 298.05"/>
<path d="M448.04 298.05L448.04 156.9"/>
<path d="M448.04 156.9L446.16 136.99M446.16 136.99L440.6 117.78M440.6 117.78L431.54 99.95M431.54 99.95L419.3 84.13M419.3 84.13L404.33 70.88M404.33 70.88L387.14 60.66M387.14 60.66L368.34 53.83M368.34 53.83L348.6 50.64M348.6 50.64L328.61 51.2M328.61 51.2L309.08 55.48"/>
<path d="M251.41 244.81L250.21 245.45M250.21 245.45L249.71 246.98"/>
<path d="M252.49 244.18L252.24 245.25"/>
<path d="M248.43 262.45L248.63 263.54M248.63 263.54L249.17 264.33M249.17 264.33L249.9 264.62"/>
<path d="M246.21 264.62L243.74 264.62"/>
<path d="M243.74 298.05L245.25 307.62M245.25 307.62L249.65 316.25M249.65 316.25L256.5 323.1M256.5 323.1L265.13 327.49M265.13 327.49L274.69 329.01"/>
<path d="M408.42 329.01L417.99 327.49M417.99 327.49L426.61 323.1M426.61 323.1L433.46 316.25M433.46 316.25L437.86 307.62M437.86 307.62L439.38 298.05"/>
<path d="M252.4 125.63L243.74 125.63"/>
<path d="M254.57 123.46L253.04 124.1M253.04 124.1L252.4 125.63"/>
<path d="M245.26 120.99L250.57 120.99"/>
<path d="M243.74 120.99L245.22 120.99"/>
<path d="M251.97 264.18L252.08 265M252.08 265L252.53 265.71"/>
<path d="M243.74 246.98L249.71 246.98"/>
<path d="M249.71 246.99L251.22 246.48M251.22 246.48L252.23 245.25"/>
<path d="M252.4 244.84L252.23 245.25"/>
<path d="M252.4 244.84L252.4 262.45"/>
<path d="M251.97 264.18L252.4 264.68"/>
<path d="M251.97 264.18L250.39 262.92M250.39 262.92L248.43 262.45"/>
<path d="M248.43 262.45L243.74 262.45"/>
<path d="M252.53 265.71L251.32 264.9M251.32 264.9L249.9 264.62"/>
<path d="M253.38 266.56L252.53 265.71"/>
<path d="M249.93 298.05L243.74 298.05"/>
<path d="M243.74 267.1L243.74 298.05"/>
<path d="M246.21 264.62L244.46 265.35M244.46 265.35L243.74 267.1"/>
<path d="M246.21 264.62L249.9 264.62"/>
<path d="M253.38 282.56L249.93 286.01"/>
<path d="M249.93 298.05L249.93 286.01"/>
<path d="M249.93 298.05L251.81 307.53M251.81 307.53L257.18 315.56M257.18 315.56L265.21 320.93M265.21 320.93L274.69 322.82"/>
<path d="M274.69 322.82L274.69 329.01"/>
<path d="M329.48 322.82L274.69 322.82"/>
<path d="M408.42 322.82L408.42 329.01"/>
<path d="M274.69 329.01L408.42 329.01"/>
<path d="M408.42 322.82L353.63 322.82"/>
<path d="M408.42 322.82L417.9 320.93M417.9 320.93L425.93 315.56M425.93 315.56L431.3 307.53M431.3 307.53L433.18 298.05"/>
<path d="M433.18 298.05L439.37 298.05"/>
<path d="M433.18 283.54L433.18 298.05"/>
<path d="M429.73 280.09L433.18 283.54"/>
<path d="M429.73 264.08L433.18 260.63"/>
<path d="M433.18 236.45L433.18 260.63"/>
<path d="M429.73 233L433.18 236.45"/>
<path d="M439.37 298.05L439.37 156.9"/>
<path d="M429.73 216.99L433.18 213.54"/>
<path d="M433.18 156.9L433.18 213.54"/>
<path d="M266.05 104.99L267.52 109.59"/>
<path d="M331.04 65.87L315.73 68.98M315.73 68.98L301.17 74.65M301.17 74.65L287.78 82.7M287.78 82.7L275.96 92.92M275.96 92.92L266.05 104.99"/>
<path d="M331.04 65.87L331.85 67.56"/>
<path d="M331.85 67.56L332.57 68.58"/>
<path d="M332.57 68.58L333.4 69.42"/>
<path d="M353.1 66L349.7 69.41"/>
<path d="M417.06 104.99L407.29 93.06M407.29 93.06L395.66 82.95M395.66 82.95L382.5 74.92M382.5 74.92L368.18 69.22M368.18 69.22L353.1 66"/>
<path d="M417.06 104.99L415.59 109.59"/>
<path d="M427.65 125.53L423.06 124.07"/>
<path d="M433.18 156.9L431.79 140.97M431.79 140.97L427.65 125.53"/>
<path d="M433.18 156.9L439.37 156.9"/>
<path d="M439.37 156.9L437.47 137.7M437.47 137.7L431.84 119.24M431.84 119.24L422.69 102.26M422.69 102.26L410.39 87.4M410.39 87.4L395.41 75.24M395.41 75.24L378.34 66.25M378.34 66.25L359.83 60.8M359.83 60.8L340.61 59.08M340.61 59.08L321.44 61.17M321.44 61.17L303.04 66.98M303.04 66.98L286.14 76.29M286.14 76.29L271.4 88.73M271.4 88.73L259.38 103.83M259.38 103.83L250.57 120.99"/>
<path d="M252.27 123.46L251.27 123.25M251.27 123.25L250.85 122.96M250.85 122.96L250.45 122.25M250.45 122.25L250.57 120.99"/>
<path d="M243.74 123.46L245.22 123.46"/>
<path d="M252.27 123.46L255.5 123.46"/>
<path d="M245.26 123.46L252.27 123.46"/>
<path d="M252.4 264.68L252.4 262.45"/>
<path d="M252.89 266.06L253.04 266.22"/>
<path d="M252.4 264.68L252.89 266.06"/>
<path d="M252.4 262.45L252.69 263.54M252.69 263.54L253.49 264.33M253.49 264.33L254.57 264.62"/>
<path d="M252.4 262.45L252.83 263.74"/>
<path d="M255.19 270.93L254.72 268.56M254.72 268.56L253.38 266.56"/>
<path d="M255.19 278.19L255.19 270.93"/>
<path d="M253.38 282.57L254.72 280.56M254.72 280.56L255.19 278.19"/>
<path d="M249.93 298.05L253.64 298.05"/>
<path d="M274.69 322.82L274.69 319.1"/>
<path d="M333.55 318.75L329.48 322.82"/>
<path d="M337.93 316.94L333.55 318.75"/>
<path d="M337.93 316.94L345.18 316.94"/>
<path d="M349.56 318.75L347.55 317.41M347.55 317.41L345.18 316.94"/>
<path d="M349.56 318.75L353.63 322.82"/>
<path d="M408.42 322.82L408.42 319.1"/>
<path d="M433.18 298.05L429.47 298.05"/>
<path d="M427.92 275.71L428.39 278.08M428.39 278.08L429.73 280.09"/>
<path d="M427.92 275.71L427.92 268.46"/>
<path d="M429.73 264.08L428.39 266.09M428.39 266.09L427.92 268.46"/>
<path d="M427.92 228.62L428.39 230.99M428.39 230.99L429.73 233"/>
<path d="M427.92 228.62L427.92 221.37"/>
<path d="M429.73 216.99L428.39 219M428.39 219L427.92 221.37"/>
<path d="M433.18 156.9L429.47 156.9"/>
<path d="M419.33 120.79L420.85 122.82M420.85 122.82L423.06 124.07"/>
<path d="M419.33 120.79L416.1 114.53"/>
<path d="M415.59 109.59L415.33 112.11M415.33 112.11L416.1 114.52"/>
<path d="M345.07 71.22L347.58 70.8M347.58 70.8L349.7 69.41"/>
<path d="M345.07 71.22L338.03 71.22"/>
<path d="M333.4 69.42L335.53 70.8M335.53 70.8L338.03 71.22"/>
<path d="M267.01 114.53L267.78 112.11M267.78 112.11L267.52 109.59"/>
<path d="M267.01 114.53L263.78 120.79"/>
<path d="M262.94 122.12L263.78 120.79"/>
<path d="M260.08 123.46L261.66 123.11M261.66 123.11L262.94 122.12"/>
<path d="M256.24 123.46L260.08 123.46"/>
<path d="M255.5 123.46L256.23 123.51"/>
<path d="M254.88 264.62L254.57 264.62"/>
<path d="M254.88 264.62L255.5 264.62"/>
<path d="M254.88 264.62L254.88 269"/>
<path d="M253.64 298.05L253.64 282.28"/>
<path d="M253.64 298.05L255.24 306.11M255.24 306.11L259.81 312.94M259.81 312.94L266.64 317.5M266.64 317.5L274.69 319.1"/>
<path d="M333.2 319.1L274.69 319.1"/>
<path d="M408.42 319.1L349.91 319.1"/>
<path d="M408.42 319.1L416.47 317.5M416.47 317.5L423.3 312.94M423.3 312.94L427.87 306.11M427.87 306.11L429.47 298.05"/>
<path d="M429.47 279.81L429.47 298.05"/>
<path d="M429.47 232.72L429.47 264.36"/>
<path d="M429.47 156.9L429.47 217.28"/>
<path d="M429.47 156.9L427.87 140.19M427.87 140.19L423.12 124.09"/>
<path d="M415.61 109.52L405.83 96.92M405.83 96.92L393.94 86.29M393.94 86.29L380.32 77.99M380.32 77.99L365.42 72.28M365.42 72.28L349.74 69.36"/>
<path d="M333.35 69.37L317.68 72.29M317.68 72.29L302.78 77.99M302.78 77.99L289.17 86.3M289.17 86.3L277.27 96.92M277.27 96.92L267.5 109.52"/>
<path d="M261.07 129.02L259.68 125.36M259.68 125.36L256.23 123.51"/>
<path d="M261.07 259.05L261.07 129.02"/>
<path d="M255.5 264.62L258.28 263.87M258.28 263.87L260.32 261.84M260.32 261.84L261.07 259.05"/>
<path d="M340.01 308.27L340.01 305.79"/>
<path d="M343.1 308.27L343.1 305.79"/>
<path d="M264.48 232.74L266.95 232.74"/>
<path d="M264.48 155.35L266.95 155.35"/>
<path d="M340.01 79.82L340.01 82.29"/>
<path d="M343.1 79.82L343.1 82.29"/>
<path d="M418.63 155.35L416.16 155.35"/>
<path d="M418.63 232.74L416.16 232.74"/>
<path d="M340.01 82.29L343.1 82.29"/>
<path d="M266.95 232.74L268.78 248.99M268.78 248.99L274.19 264.43M274.19 264.43L282.89 278.29M282.89 278.29L294.46 289.85M294.46 289.85L308.31 298.56M308.31 298.56L323.75 303.96M323.75 303.96L340.01 305.79"/>
<path d="M340.01 305.79L343.1 305.79"/>
<path d="M343.1 305.79L359.36 303.96M359.36 303.96L374.8 298.56M374.8 298.56L388.65 289.85M388.65 289.85L400.22 278.29M400.22 278.29L408.92 264.43M408.92 264.43L414.33 248.99M414.33 248.99L416.16 232.74"/>
<path d="M280.79 223.76L284.01 223.76"/>
<path d="M280.8 226.24L284.01 226.24"/>
<path d="M402.32 223.76L399.1 223.76"/>
<path d="M402.31 226.24L399.1 226.24"/>
<path d="M280.79 164.33L284.01 164.33"/>
<path d="M280.8 161.85L284.01 161.85"/>
<path d="M280.8 226.24L281.23 228.09M281.23 228.09L282.4 229.45M282.4 229.45L284.01 229.95"/>
<path d="M274.72 226.24L280.79 226.24"/>
<path d="M280.79 223.76L280.79 226.24"/>
<path d="M284.01 220.05L281.74 221.13M281.74 221.13L280.8 223.76"/>
<path d="M280.79 223.76L274.72 223.76"/>
<path d="M266.95 232.74L266.95 155.35"/>
<path d="M340.01 82.29L323.75 84.12M323.75 84.12L308.31 89.53M308.31 89.53L294.46 98.23M294.46 98.23L282.89 109.8M282.89 109.8L274.19 123.65M274.19 123.65L268.78 139.09M268.78 139.09L266.95 155.35"/>
<path d="M416.16 155.35L414.33 139.09M414.33 139.09L408.92 123.65M408.92 123.65L400.22 109.8M400.22 109.8L388.65 98.23M388.65 98.23L374.8 89.53M374.8 89.53L359.36 84.12M359.36 84.12L343.1 82.29"/>
<path d="M416.16 232.74L416.16 155.35"/>
<path d="M402.32 223.76L401.37 221.13M401.37 221.13L399.1 220.05"/>
<path d="M402.32 223.76L402.32 226.24"/>
<path d="M402.32 223.76L408.39 223.76"/>
<path d="M399.1 229.95L400.71 229.45M400.71 229.45L401.88 228.09M401.88 228.09L402.32 226.24"/>
<path d="M408.39 226.24L402.32 226.24"/>
<path d="M284.01 158.13L284.01 161.85"/>
<path d="M299.46 161.85L284.01 161.85"/>
<path d="M284.01 161.85L284.01 164.33"/>
<path d="M284.01 168.04L284.01 164.33"/>
<path d="M299.46 164.33L284.01 164.33"/>
<path d="M284.01 220.05L279.01 220.05"/>
<path d="M284.01 220.05L284.01 223.76"/>
<path d="M299.46 220.05L284.01 220.05"/>
<path d="M299.46 223.76L284.01 223.76"/>
<path d="M284.01 223.76L284.01 226.24"/>
<path d="M284.01 229.95L284.01 226.24"/>
<path d="M299.46 226.24L284.01 226.24"/>
<path d="M279.01 229.95L284.01 229.95"/>
<path d="M299.46 229.95L284.01 229.95"/>
<path d="M401.28 264.25L404.35 260.16M404.35 260.16L405.51 255.18"/>
<path d="M277.6 255.18L278.76 260.16M278.76 260.16L281.83 264.25"/>
<path d="M336.55 299.11L341.56 300.16M341.56 300.16L346.56 299.11"/>
<path d="M399.1 220.05L404.1 220.05"/>
<path d="M399.1 220.05L389.85 220.05"/>
<path d="M399.1 220.05L399.1 223.76"/>
<path d="M399.1 223.76L399.1 226.24"/>
<path d="M399.1 223.76L389.85 223.76"/>
<path d="M399.1 226.24L389.85 226.24"/>
<path d="M399.1 229.95L399.1 226.24"/>
<path d="M399.1 229.95L389.85 229.95"/>
<path d="M404.1 229.95L399.1 229.95"/>
<path d="M404.1 168.04L399.1 168.04"/>
<path d="M399.1 168.04L400.71 167.54M400.71 167.54L401.88 166.18"/>
<path d="M399.1 168.04L399.1 166.18"/>
<path d="M399.1 168.04L389.92 168.04"/>
<path d="M299.46 168.04L284.01 168.04"/>
<path d="M280.8 164.33L281.23 166.18M281.23 166.18L282.4 167.54M282.4 167.54L284.01 168.04"/>
<path d="M279.01 168.04L284.01 168.04"/>
<path d="M274.72 164.33L280.79 164.33"/>
<path d="M280.79 161.85L280.79 164.33"/>
<path d="M284.01 158.13L281.74 159.22M281.74 159.22L280.8 161.85"/>
<path d="M280.79 161.85L274.72 161.85"/>
<path d="M299.46 158.13L284.01 158.13"/>
<path d="M284.01 158.13L279.01 158.13"/>
<path d="M295.74 220.05L295.74 216.33"/>
<path d="M296.01 229.95L296.57 233.67"/>
<path d="M274.72 226.24L275.29 228.09M275.29 228.09L276.86 229.45M276.86 229.45L279.01 229.95"/>
<path d="M274.72 226.24L274.72 223.76"/>
<path d="M279.01 220.04L276.86 220.54M276.86 220.54L275.29 221.9M275.29 221.9L274.72 223.76"/>
<path d="M408.39 223.76L407.82 221.9M407.82 221.9L406.25 220.54M406.25 220.54L404.1 220.04"/>
<path d="M408.39 226.24L408.39 223.76"/>
<path d="M404.1 229.95L406.25 229.45M406.25 229.45L407.82 228.09M407.82 228.09L408.39 226.24"/>
<path d="M404.1 168.03L406.19 167.57M406.19 167.57L407.83 166.19"/>
<path d="M273.14 230.88L273.2 233.67"/>
<path d="M408.12 246.67L409.97 230.88"/>
<path d="M281.83 123.84L278.76 127.92M278.76 127.92L277.6 132.91"/>
<path d="M295.74 171.75L295.74 168.04"/>
<path d="M274.72 164.33L275.29 166.18M275.29 166.18L276.86 167.54M276.86 167.54L279.01 168.04"/>
<path d="M274.72 164.33L274.72 161.85"/>
<path d="M279.01 158.13L276.86 158.63M276.86 158.63L275.29 159.99M275.29 159.99L274.72 161.85"/>
<path d="M296.57 154.42L296.01 158.13"/>
<path d="M273.14 230.88L273.14 216.33"/>
<path d="M273.14 197.14L273.14 157.21"/>
<path d="M346.56 88.98L341.56 87.92M341.56 87.92L336.55 88.98"/>
<path d="M409.97 230.88L409.97 215.71"/>
<path d="M409.97 197.14L409.97 166.18"/>
<path d="M299.46 156.9L299.12 155.66M299.12 155.66L298.22 154.75M298.22 154.75L296.98 154.42"/>
<path d="M299.46 156.9L299.46 169.28"/>
<path d="M296.98 171.75L298.22 171.42M298.22 171.42L299.12 170.52M299.12 170.52L299.46 169.28"/>
<path d="M293.26 171.75L296.98 171.75"/>
<path d="M293.26 194.66L293.26 171.75"/>
<path d="M290.79 197.14L292.03 196.81M292.03 196.81L292.93 195.9M292.93 195.9L293.27 194.66"/>
<path d="M290.79 197.14L273.14 197.14"/>
<path d="M273.14 216.33L273.14 197.14"/>
<path d="M296.98 216.33L273.14 216.33"/>
<path d="M299.46 218.81L299.12 217.57M299.12 217.57L298.22 216.66M298.22 216.66L296.98 216.33"/>
<path d="M299.46 218.81L299.46 231.19"/>
<path d="M296.98 233.67L298.22 233.33M298.22 233.33L299.12 232.43M299.12 232.43L299.46 231.19"/>
<path d="M273.2 233.67L296.98 233.67"/>
<path d="M273.2 233.67L275.8 249.77M275.8 249.77L282.14 264.8M282.14 264.8L291.86 277.9M291.86 277.9L304.4 288.32M304.4 288.32L319.06 295.49M319.06 295.49L334.99 298.98M334.99 298.98L351.3 298.59M351.3 298.59L367.05 294.36M367.05 294.36L381.36 286.52M381.36 286.52L393.4 275.52M393.4 275.52L402.49 261.98M402.49 261.98L408.12 246.67"/>
<path d="M408.12 246.67L392.32 246.67"/>
<path d="M389.85 244.19L390.57 245.94M390.57 245.94L392.32 246.67"/>
<path d="M389.85 218.19L389.85 244.19"/>
<path d="M392.32 215.71L391.08 216.04M391.08 216.04L390.18 216.95M390.18 216.95L389.85 218.19"/>
<path d="M392.32 215.71L409.97 215.71"/>
<path d="M409.97 215.71L409.97 197.14"/>
<path d="M409.97 197.14L392.32 197.14"/>
<path d="M389.85 194.66L390.57 196.41M390.57 196.41L392.32 197.14"/>
<path d="M389.85 168.66L389.85 194.66"/>
<path d="M392.32 166.18L390.57 166.91M390.57 166.91L389.85 168.66"/>
<path d="M392.32 166.18L409.97 166.18"/>
<path d="M409.97 166.18L409.97 157.21"/>
<path d="M296.98 154.42L273.2 154.42"/>
<path d="M409.97 157.21L408.03 141.04M408.03 141.04L402.33 125.79M402.33 125.79L393.19 112.32M393.19 112.32L381.12 101.4M381.12 101.4L366.81 93.63M366.81 93.63L351.08 89.46M351.08 89.46L334.8 89.13M334.8 89.13L318.91 92.65M318.91 92.65L304.3 99.83M304.3 99.83L291.8 110.26M291.8 110.26L282.11 123.34M282.11 123.34L275.79 138.35M275.79 138.35L273.2 154.42"/>
<path d="M273.2 154.42L273.14 157.21"/>
<path d="M405.51 132.91L404.35 127.92M404.35 127.92L401.28 123.84"/>
<path d="M243.74 120.99L243.74 267.1"/>
<path d="M284.01 161.6L284.01 162.16M284.01 162.38L284.01 162.42M284.01 162.64L284.01 163.54M284.01 163.76L284.01 163.8M284.01 164.02L284.01 164.58"/>
<path d="M399.1 226.48L399.1 225.93M399.1 225.7L399.1 225.67M399.1 225.44L399.1 224.55M399.1 224.33L399.1 224.29M399.1 224.07L399.1 223.51"/>
<path d="M284.01 223.51L284.01 224.07M284.01 224.29L284.01 224.33M284.01 224.55L284.01 225.45M284.01 225.67L284.01 225.71M284.01 225.93L284.01 226.49"/>
</g>
</g>
</svg>
