<?xml version="1.0" standalone="no"?><svg xmlns="http://www.w3.org/2000/svg" width="600.000" height="450.000" viewBox="0.0 0.0 600.000 450.000" version="1.1">
<title>Acme Converter - Post-processed with EDS-Designer: 14.44 (info@symca.com)</title>
<desc>Acme Converter - Post-processed with EDS-Designer: 14.44 (info@symca.com)</desc>
<g id="EDS_STYLE_GROUP" fill="none" stroke="black" stroke-width="1.0">
<g id="0" display="visible">
<path d="M241.6 373.66L241.6 347.77M242.84 347.77L242.84 373.66M237.9 347.77L252.7 347.77M252.7 347.77L256.4 349M256.4 349L257.63 350.24M257.63 350.24L258.86 352.7M258.86 352.7L258.86 355.17M258.86 355.17L257.63 357.63M257.63 357.63L256.4 358.87M256.4 358.87L252.7 360.1M252.7 347.77L255.17 349M255.17 349L256.4 350.24M256.4 350.24L257.63 352.7M257.63 352.7L257.63 355.17M257.63 355.17L256.4 357.63M256.4 357.63L255.17 358.87M255.17 358.87L252.7 360.1M242.84 360.1L252.7 360.1M252.7 360.1L256.4 361.33M256.4 361.33L257.63 362.56M257.63 362.56L258.86 365.03M258.86 365.03L258.86 368.73M258.86 368.73L257.63 371.19M257.63 371.19L256.4 372.43M256.4 372.43L252.7 373.66M252.7 373.66L237.9 373.66M252.7 360.1L255.17 361.33M255.17 361.33L256.4 362.56M256.4 362.56L257.63 365.03M257.63 365.03L257.63 368.73M257.63 368.73L256.4 371.19M256.4 371.19L255.17 372.43M255.17 372.43L252.7 373.66M268.73 373.66L268.73 347.77M269.96 347.77L269.96 373.66M265.03 347.77L273.66 347.77M265.03 373.66L283.52 373.66M283.52 373.66L283.52 366.26M283.52 366.26L282.29 373.66M298.32 347.77L289.69 373.66M298.32 347.77L306.95 373.66M298.32 351.47L305.71 373.66M292.15 366.26L303.25 366.26M287.22 373.66L294.62 373.66M302.02 373.66L309.41 373.66M330.37 351.47L331.6 355.17M331.6 355.17L331.6 347.77M331.6 347.77L330.37 351.47M330.37 351.47L327.91 349M327.91 349L324.21 347.77M324.21 347.77L321.74 347.77M321.74 347.77L318.04 349M318.04 349L315.58 351.47M315.58 351.47L314.34 353.93M314.34 353.93L313.11 357.63M313.11 357.63L313.11 363.8M313.11 363.8L314.34 367.5M314.34 367.5L315.58 369.96M315.58 369.96L318.04 372.43M318.04 372.43L321.74 373.66M321.74 373.66L324.21 373.66M324.21 373.66L327.91 372.43M327.91 372.43L330.37 369.96M330.37 369.96L331.6 367.5M321.74 347.77L319.28 349M319.28 349L316.81 351.47M316.81 351.47L315.58 353.93M315.58 353.93L314.34 357.63M314.34 357.63L314.34 363.8M314.34 363.8L315.58 367.5M315.58 367.5L316.81 369.96M316.81 369.96L319.28 372.43M319.28 372.43L321.74 373.66M342.7 373.66L342.7 347.77M343.93 347.77L343.93 373.66M359.96 347.77L343.93 363.8M350.1 358.87L359.96 373.66M348.87 358.87L358.73 373.66M339 347.77L347.63 347.77M355.03 347.77L362.43 347.77M339 373.66L347.63 373.66M355.03 373.66L362.43 373.66"/>
<path d="M570.02 199.63L572 198.64M572 198.64L574.96 195.68M574.96 195.68L574.96 216.4"/>
<path d="M25.72 197.12L15.86 210.92M15.86 210.92L30.65 210.92M25.72 197.12L25.72 217.83"/>
<path d="M547.31 294.5L561.21 289.88M561.21 289.88L573.54 281.96M573.54 281.96L583.52 271.23M583.52 271.23L590.52 258.36M590.52 258.36L594.12 244.15"/>
<path d="M594.12 167.31L589.02 154.48M589.02 154.48L581.43 142.95M581.43 142.95L571.67 133.19M571.67 133.19L560.13 125.6M560.13 125.6L547.31 120.5"/>
<path d="M5.88 244.15L9.84 257.13M9.84 257.13L16.26 269.09M16.26 269.09L24.89 279.56M24.89 279.56L35.41 288.14M35.41 288.14L47.39 294.5"/>
<path d="M47.39 120.5L33.69 128.83M33.69 128.83L21.9 139.71M21.9 139.71L12.51 152.71M12.51 152.71L5.88 167.31"/>
<path d="M461.63 206.18L463.56 192.74M463.56 192.74L469.2 180.39M469.2 180.39L478.09 170.13M478.09 170.13L489.51 162.79M489.51 162.79L502.54 158.97M502.54 158.97L516.11 158.97M516.11 158.97L529.14 162.79M529.14 162.79L540.56 170.13M540.56 170.13L549.45 180.39M549.45 180.39L555.09 192.74M555.09 192.74L557.02 206.18M557.02 206.18L555.09 219.61M555.09 219.61L549.45 231.96M549.45 231.96L540.56 242.22M540.56 242.22L529.14 249.56M529.14 249.56L516.11 253.38M516.11 253.38L502.54 253.38M502.54 253.38L489.51 249.56M489.51 249.56L478.09 242.22M478.09 242.22L469.2 231.96M469.2 231.96L463.56 219.61M463.56 219.61L461.63 206.18"/>
<path d="M324.73 206.18L326.66 192.74M326.66 192.74L332.3 180.39M332.3 180.39L341.19 170.13M341.19 170.13L352.61 162.79M352.61 162.79L365.64 158.97M365.64 158.97L379.21 158.97M379.21 158.97L392.24 162.79M392.24 162.79L403.66 170.13M403.66 170.13L412.55 180.39M412.55 180.39L418.19 192.74M418.19 192.74L420.12 206.18M420.12 206.18L418.19 219.61M418.19 219.61L412.55 231.96M412.55 231.96L403.66 242.22M403.66 242.22L392.24 249.56M392.24 249.56L379.21 253.38M379.21 253.38L365.64 253.38M365.64 253.38L352.61 249.56M352.61 249.56L341.19 242.22M341.19 242.22L332.3 231.96M332.3 231.96L326.66 219.61M326.66 219.61L324.73 206.18"/>
<path d="M183.41 206.18L185.34 192.74M185.34 192.74L190.98 180.39M190.98 180.39L199.87 170.13M199.87 170.13L211.29 162.79M211.29 162.79L224.32 158.97M224.32 158.97L237.9 158.97M237.9 158.97L250.92 162.79M250.92 162.79L262.34 170.13M262.34 170.13L271.23 180.39M271.23 180.39L276.87 192.74M276.87 192.74L278.8 206.18M278.8 206.18L276.87 219.61M276.87 219.61L271.23 231.96M271.23 231.96L262.34 242.22M262.34 242.22L250.92 249.56M250.92 249.56L237.9 253.38M237.9 253.38L224.32 253.38M224.32 253.38L211.29 249.56M211.29 249.56L199.87 242.22M199.87 242.22L190.98 231.96M190.98 231.96L185.34 219.61M185.34 219.61L183.41 206.18"/>
<path d="M43.86 206.18L45.79 192.74M45.79 192.74L51.43 180.39M51.43 180.39L60.32 170.13M60.32 170.13L71.74 162.79M71.74 162.79L84.77 158.97M84.77 158.97L98.34 158.97M98.34 158.97L111.37 162.79M111.37 162.79L122.79 170.13M122.79 170.13L131.68 180.39M131.68 180.39L137.32 192.74M137.32 192.74L139.25 206.18M139.25 206.18L137.32 219.61M137.32 219.61L131.68 231.96M131.68 231.96L122.79 242.22M122.79 242.22L111.37 249.56M111.37 249.56L98.34 253.38M98.34 253.38L84.77 253.38M84.77 253.38L71.74 249.56M71.74 249.56L60.32 242.22M60.32 242.22L51.43 231.96M51.43 231.96L45.79 219.61M45.79 219.61L43.86 206.18"/>
<path d="M337.98 130.22L337.98 112.55"/>
<path d="M337.98 112.55L352.99 112.55"/>
<path d="M352.99 112.55L352.99 89.59"/>
<path d="M352.99 89.59L382.14 89.59"/>
<path d="M382.14 89.59L382.14 113.44"/>
<path d="M382.14 113.44L402.46 113.44"/>
<path d="M402.46 113.44L402.46 130.22"/>
<path d="M267.32 113.44L267.32 130.22"/>
<path d="M247.01 113.44L267.32 113.44"/>
<path d="M247.01 89.59L247.01 113.44"/>
<path d="M217.86 89.59L247.01 89.59"/>
<path d="M217.86 112.55L217.86 89.59"/>
<path d="M202.84 112.55L217.86 112.55"/>
<path d="M202.84 130.22L202.84 112.55"/>
<path d="M439.55 77.22L439.55 120.5"/>
<path d="M465.17 77.22L439.55 77.22"/>
<path d="M465.17 120.5L465.17 77.22"/>
<path d="M431.6 76.34L431.6 130.22"/>
<path d="M170.16 76.34L431.6 76.34"/>
<path d="M170.16 130.22L170.16 76.34"/>
<path d="M162.22 78.99L162.22 120.5"/>
<path d="M136.6 78.99L162.22 78.99"/>
<path d="M136.6 120.5L136.6 78.99"/>
<path d="M449.27 294.5L449.27 321.88"/>
<path d="M431.6 294.5L431.6 321.88"/>
<path d="M310.6 294.5L310.6 321.88"/>
<path d="M289.4 294.5L289.4 321.88"/>
<path d="M171.05 294.5L171.05 321.88"/>
<path d="M149.85 294.5L149.85 321.88"/>
<path d="M506.68 321.88L506.68 294.5"/>
<path d="M94.21 321.88L506.68 321.88"/>
<path d="M94.21 294.5L94.21 321.88"/>
<path d="M594.12 167.31L594.12 244.15"/>
<path d="M5.88 244.15L5.88 167.31"/>
<path d="M547.31 294.5L47.39 294.5"/>
<path d="M439.55 120.5L547.31 120.5"/>
<path d="M439.55 130.22L439.55 120.5"/>
<path d="M162.22 130.22L439.55 130.22"/>
<path d="M162.22 120.5L162.22 130.22"/>
<path d="M47.39 120.5L162.22 120.5"/>
</g>
</g>
</svg>
