<?xml version="1.0" standalone="no"?><svg xmlns="http://www.w3.org/2000/svg" width="600.000" height="450.000" viewBox="0.0 0.0 600.000 450.000" version="1.1">
<title>Acme Converter - Post-processed with EDS-Designer: 14.44 (info@symca.com)</title>
<desc>Acme Converter - Post-processed with EDS-Designer: 14.44 (info@symca.com)</desc>
<g id="EDS_STYLE_GROUP" fill="none" stroke="black" stroke-width="1.0">
<g id="0" display="visible">
<path d="M238.46 364.32L239.75 368.21M239.75 368.21L239.75 360.43M239.75 360.43L238.46 364.32M238.46 364.32L235.86 361.72M235.86 361.72L231.97 360.43M231.97 360.43L229.38 360.43M229.38 360.43L225.49 361.72M225.49 361.72L222.89 364.32M222.89 364.32L221.6 366.91M221.6 366.91L220.3 370.8M220.3 370.8L220.3 377.29M220.3 377.29L221.6 381.18M221.6 381.18L222.89 383.77M222.89 383.77L225.49 386.36M225.49 386.36L229.38 387.66M229.38 387.66L231.97 387.66M231.97 387.66L235.86 386.36M235.86 386.36L238.46 383.77M238.46 383.77L239.75 381.18M229.38 360.43L226.79 361.72M226.79 361.72L224.19 364.32M224.19 364.32L222.89 366.91M222.89 366.91L221.6 370.8M221.6 370.8L221.6 377.29M221.6 377.29L222.89 381.18M222.89 381.18L224.19 383.77M224.19 383.77L226.79 386.36M226.79 386.36L229.38 387.66M251.43 360.43L251.43 379.88M251.43 379.88L252.72 383.77M252.72 383.77L255.32 386.36M255.32 386.36L259.21 387.66M259.21 387.66L261.8 387.66M261.8 387.66L265.69 386.36M265.69 386.36L268.28 383.77M268.28 383.77L269.58 379.88M269.58 379.88L269.58 360.43M252.72 360.43L252.72 379.88M252.72 379.88L254.02 383.77M254.02 383.77L256.61 386.36M256.61 386.36L259.21 387.66M247.53 360.43L256.61 360.43M265.69 360.43L273.47 360.43M282.55 387.66L282.55 360.43M283.85 360.43L283.85 387.66M278.66 360.43L294.22 360.43M294.22 360.43L298.11 361.72M298.11 361.72L299.41 363.02M299.41 363.02L300.71 365.62M300.71 365.62L300.71 368.21M300.71 368.21L299.41 370.8M299.41 370.8L298.11 372.1M298.11 372.1L294.22 373.4M294.22 373.4L283.85 373.4M294.22 360.43L296.81 361.72M296.81 361.72L298.11 363.02M298.11 363.02L299.41 365.62M299.41 365.62L299.41 368.21M299.41 368.21L298.11 370.8M298.11 370.8L296.81 372.1M296.81 372.1L294.22 373.4M278.66 387.66L287.74 387.66M290.33 373.4L292.92 374.69M292.92 374.69L294.22 375.99M294.22 375.99L298.11 385.07M298.11 385.07L299.41 386.36M299.41 386.36L300.71 386.36M300.71 386.36L302 385.07M292.92 374.69L294.22 377.29M294.22 377.29L296.81 386.36M296.81 386.36L298.11 387.66M298.11 387.66L300.71 387.66M300.71 387.66L302 385.07M302 385.07L302 383.77M311.08 387.66L311.08 360.43M312.38 360.43L312.38 387.66M307.19 360.43L322.75 360.43M322.75 360.43L326.64 361.72M326.64 361.72L327.94 363.02M327.94 363.02L329.24 365.62M329.24 365.62L329.24 368.21M329.24 368.21L327.94 370.8M327.94 370.8L326.64 372.1M326.64 372.1L322.75 373.4M322.75 373.4L312.38 373.4M322.75 360.43L325.35 361.72M325.35 361.72L326.64 363.02M326.64 363.02L327.94 365.62M327.94 365.62L327.94 368.21M327.94 368.21L326.64 370.8M326.64 370.8L325.35 372.1M325.35 372.1L322.75 373.4M307.19 387.66L316.27 387.66M318.86 373.4L321.45 374.69M321.45 374.69L322.75 375.99M322.75 375.99L326.64 385.07M326.64 385.07L327.94 386.36M327.94 386.36L329.24 386.36M329.24 386.36L330.53 385.07M321.45 374.69L322.75 377.29M322.75 377.29L325.35 386.36M325.35 386.36L326.64 387.66M326.64 387.66L329.24 387.66M329.24 387.66L330.53 385.07M330.53 385.07L330.53 383.77M338.31 360.43L347.39 374.69M347.39 374.69L347.39 387.66M339.61 360.43L348.69 374.69M348.69 374.69L348.69 387.66M357.77 360.43L348.69 374.69M335.72 360.43L343.5 360.43M352.58 360.43L360.36 360.43M343.5 387.66L352.58 387.66"/>
<path d="M351.41 134.5L351.54 134.5"/>
<path d="M326.95 142.86L327.56 142.86M327.8 142.86L327.84 142.86M328.09 142.86L329.07 142.86M329.31 142.86L329.35 142.86M329.6 142.86L330.58 142.86M330.83 142.86L330.87 142.86M331.11 142.86L332.09 142.86M332.34 142.86L332.38 142.86M332.62 142.86L333.23 142.86"/>
<path d="M344.29 90.9L343.95 90.9M343.81 90.9L343.79 90.9M343.65 90.9L343.1 90.9M342.96 90.9L342.94 90.9M342.8 90.9L342.25 90.9M342.11 90.9L342.09 90.9M341.95 90.9L341.4 90.9M341.27 90.9L341.24 90.9M341.11 90.9L340.77 90.9"/>
<path d="M383.43 303.9L387.61 303.91"/>
<path d="M387.61 303.91L387.61 141.36"/>
<path d="M387.61 141.36L383.43 141.36"/>
<path d="M383.43 303.9L383.43 141.36"/>
<path d="M383.43 303.91L386.33 306.91"/>
<path d="M386.33 306.91L387.28 305.54M387.28 305.54L387.61 303.91"/>
<path d="M387.61 309.14L387.61 303.91"/>
<path d="M387.61 309.14L387.61 317.99"/>
<path d="M387.61 141.36L386.32 136.33"/>
<path d="M386.32 136.33L382.65 138.34"/>
<path d="M383.43 141.36L382.65 138.34"/>
<path d="M346.94 329.01L348.71 332.8"/>
<path d="M348.71 332.8L368.6 321.42M368.6 321.42L386.33 306.91"/>
<path d="M346.94 329.01L366.23 317.98M366.23 317.98L383.43 303.9"/>
<path d="M386.12 321.19L387.22 319.76M387.22 319.76L387.61 317.99"/>
<path d="M385.52 311.42L387.05 310.45M387.05 310.45L387.61 309.14"/>
<path d="M385.52 311.42L386.33 306.91"/>
<path d="M385.52 311.42L385.42 320.36"/>
<path d="M385.42 320.36L387.02 319.37M387.02 319.37L387.61 317.99"/>
<path d="M386.32 136.33L354.71 78.64"/>
<path d="M354.71 78.64L351.04 80.65"/>
<path d="M382.65 138.34L351.04 80.65"/>
<path d="M346.94 329.01L346.94 333.19"/>
<path d="M233.76 329.01L346.94 329.01"/>
<path d="M233.76 329.01L233.76 333.19"/>
<path d="M233.76 333.19L346.94 333.19"/>
<path d="M233.76 329.01L231.99 332.8"/>
<path d="M197.28 303.91L214.48 317.98M214.48 317.98L233.76 329.01"/>
<path d="M194.37 306.91L197.28 303.91"/>
<path d="M194.37 306.91L212.1 321.42M212.1 321.42L231.99 332.8"/>
<path d="M197.28 303.91L193.09 303.91"/>
<path d="M197.28 141.36L197.28 303.91"/>
<path d="M193.09 141.36L197.28 141.36"/>
<path d="M193.09 141.36L193.09 303.91"/>
<path d="M194.38 136.33L198.05 138.34"/>
<path d="M194.38 136.33L193.09 141.36"/>
<path d="M198.05 138.34L197.28 141.36"/>
<path d="M225.99 78.64L229.66 80.65"/>
<path d="M225.99 78.64L194.38 136.33"/>
<path d="M229.66 80.65L198.05 138.34"/>
<path d="M253.51 62.34L253.51 66.52"/>
<path d="M253.51 62.34L242.56 64.31M242.56 64.31L232.99 69.98M232.99 69.98L226 78.64"/>
<path d="M253.51 66.52L244.02 68.23M244.02 68.23L235.72 73.15M235.72 73.15L229.66 80.65"/>
<path d="M327.19 62.34L327.19 66.52"/>
<path d="M327.19 62.34L253.51 62.34"/>
<path d="M327.19 66.52L253.51 66.52"/>
<path d="M354.71 78.64L347.71 69.98M347.71 69.98L338.14 64.31M338.14 64.31L327.19 62.34"/>
<path d="M351.04 80.65L344.98 73.15M344.98 73.15L336.68 68.23M336.68 68.23L327.19 66.52"/>
<path d="M337.4 170.83L325.89 163.8M325.89 163.8L313.36 158.82"/>
<path d="M313.36 158.82L298.12 155.79M298.12 155.79L282.58 155.79M282.58 155.79L267.34 158.82"/>
<path d="M313.36 158.82L313.36 147.05"/>
<path d="M343.69 140.77L343.69 147.05"/>
<path d="M343.69 138.68L343.69 140.77"/>
<path d="M359.58 140.77L343.69 140.77"/>
<path d="M359.58 138.68L359.58 140.77"/>
<path d="M359.58 138.68L343.69 138.68"/>
<path d="M365.08 129.39L366.92 128.38"/>
<path d="M359.58 138.68L363.58 137.24M363.58 137.24L365.74 133.59M365.74 133.59L365.08 129.39"/>
<path d="M359.58 140.77L364.91 138.85M364.91 138.85L367.8 133.98M367.8 133.98L366.92 128.39"/>
<path d="M339.34 82.41L341.18 81.41"/>
<path d="M339.34 82.41L365.08 129.39"/>
<path d="M341.18 81.41L366.92 128.38"/>
<path d="M330.17 76.98L330.17 74.89"/>
<path d="M339.34 82.41L335.5 78.44M335.5 78.44L330.17 76.98"/>
<path d="M341.18 81.41L336.57 76.64M336.57 76.64L330.17 74.89"/>
<path d="M250.53 76.98L250.53 74.89"/>
<path d="M250.53 76.98L330.17 76.98"/>
<path d="M250.53 74.89L330.17 74.89"/>
<path d="M241.36 82.41L239.53 81.41"/>
<path d="M250.53 76.98L245.2 78.44M245.2 78.44L241.36 82.41"/>
<path d="M250.53 74.89L244.14 76.64M244.14 76.64L239.53 81.41"/>
<path d="M215.62 129.39L213.78 128.38"/>
<path d="M215.62 129.39L241.36 82.41"/>
<path d="M213.78 128.38L239.53 81.41"/>
<path d="M221.12 138.68L221.12 140.77"/>
<path d="M215.62 129.39L214.96 133.59M214.96 133.59L217.12 137.24M217.12 137.24L221.12 138.68"/>
<path d="M213.78 128.39L212.9 133.98M212.9 133.98L215.79 138.85M215.79 138.85L221.12 140.77"/>
<path d="M237.02 140.77L237.02 138.68"/>
<path d="M237.02 138.68L221.12 138.68"/>
<path d="M237.02 140.77L221.12 140.77"/>
<path d="M237.02 140.77L237.02 147.05"/>
<path d="M267.34 158.82L251.83 165.37M251.83 165.37L238.05 175.05M238.05 175.05L226.61 187.41M226.61 187.41L218.04 201.91M218.04 201.91L212.71 217.88M212.71 217.88L210.87 234.62M210.87 234.62L212.6 251.38M212.6 251.38L217.82 267.39M217.82 267.39L226.29 281.94"/>
<path d="M226.29 281.94L210.12 298.12"/>
<path d="M243.3 298.95L257.79 307.39M257.79 307.39L273.73 312.61M273.73 312.61L290.41 314.37M290.41 314.37L307.09 312.59M307.09 312.59L323.02 307.35M323.02 307.35L337.49 298.88"/>
<path d="M352.82 314.37L353.58 315.12"/>
<path d="M353.58 315.12L370.58 298.12"/>
<path d="M370.58 298.12L369.83 297.36"/>
<path d="M354.34 282.03L362.06 269.17M362.06 269.17L367.22 255.09M367.22 255.09L369.65 240.29M369.65 240.29L369.25 225.3M369.25 225.3L366.04 210.65"/>
<path d="M366.04 210.65L366.17 210.65"/>
<path d="M346.94 333.19L348.71 332.8"/>
<path d="M232.31 234.89L234.29 219.87M234.29 219.87L240.09 205.87M240.09 205.87L249.31 193.85M249.31 193.85L261.33 184.63M261.33 184.63L275.33 178.83M275.33 178.83L290.35 176.85M290.35 176.85L305.37 178.83M305.37 178.83L319.37 184.63M319.37 184.63L331.39 193.85M331.39 193.85L340.62 205.87M340.62 205.87L346.41 219.87M346.41 219.87L348.39 234.89M348.39 234.89L346.41 249.91M346.41 249.91L340.62 263.91M340.62 263.91L331.39 275.93M331.39 275.93L319.37 285.16M319.37 285.16L305.37 290.95M305.37 290.95L290.35 292.93M290.35 292.93L275.33 290.95M275.33 290.95L261.33 285.16M261.33 285.16L249.31 275.93M249.31 275.93L240.09 263.91M240.09 263.91L234.29 249.91M234.29 249.91L232.31 234.89"/>
<path d="M385.42 320.36L386.12 321.19"/>
<path d="M370.79 332.53L386.12 321.19"/>
<path d="M327.48 138.68L332.71 138.68"/>
<path d="M356.9 331.74L371.84 322.47M371.84 322.47L385.52 311.42"/>
<path d="M348.71 332.8L356.9 331.74"/>
<path d="M370.2 331.61L385.42 320.36"/>
<path d="M370.2 331.61L356.9 331.74"/>
<path d="M231.99 332.8L233.76 333.19"/>
<path d="M368.53 333.19L355.44 333.19"/>
<path d="M346.94 333.19L355.44 333.19"/>
<path d="M193.09 303.91L193.43 305.54M193.43 305.54L194.37 306.91"/>
<path d="M267.34 147.05L313.36 147.05"/>
<path d="M369.83 298.87L369.83 297.36"/>
<path d="M351.42 138.68L351.42 134.5"/>
<path d="M327.48 142.86L332.71 142.86"/>
<path d="M327.48 142.86L327.48 147.05"/>
<path d="M351.42 134.5L351.53 134.5"/>
<path d="M351.53 134.5L351.53 113.58"/>
<path d="M351.53 113.58L356.42 113.58"/>
<path d="M343.99 90.9L341.07 90.9"/>
<path d="M341.07 90.9L341.07 134.5"/>
<path d="M332.7 142.86L336.89 141.74M336.89 141.74L339.95 138.68M339.95 138.68L341.07 134.5"/>
<path d="M327.48 138.68L327.48 142.86"/>
<path d="M253.23 138.68L253.23 147.05"/>
<path d="M253.23 138.68L246.88 138.68"/>
<path d="M246.88 138.68L244.13 138.04M244.13 138.04L241.16 135.98M241.16 135.98L239.63 134.5"/>
<path d="M239.63 134.5L239.63 90.9"/>
<path d="M239.63 90.9L236.71 90.9"/>
<path d="M224.28 113.58L229.17 113.58"/>
<path d="M229.17 113.58L229.17 134.5"/>
<path d="M224.98 137.89L229.17 134.5"/>
<path d="M223.78 138.39L224.98 137.89"/>
<path d="M226.9 138.68L225.37 138.22M225.37 138.22L223.77 138.39"/>
<path d="M253.75 130.31L253.75 147.05"/>
<path d="M326.95 130.31L326.95 147.05"/>
<path d="M253.75 86.39L253.75 108.35"/>
<path d="M253.75 86.39L253.75 82.21"/>
<path d="M326.95 82.21L326.95 86.39"/>
<path d="M326.95 108.35L326.95 86.39"/>
<path d="M370.2 331.61L370.79 332.53"/>
<path d="M368.53 333.19L370.79 332.53"/>
<path d="M332.71 138.68L334.8 138.12M334.8 138.12L336.33 136.59M336.33 136.59L336.89 134.5"/>
<path d="M355.71 134.5L356.94 137.45M356.94 137.45L359.9 138.68"/>
<path d="M355.71 134.5L354.49 134.5"/>
<path d="M354.49 134.5L351.53 134.5"/>
<path d="M351.53 134.5L351.53 138.68"/>
<path d="M332.71 142.86L332.71 138.68"/>
<path d="M355.44 333.19L356.24 332.81M356.24 332.81L356.9 331.74"/>
<path d="M368.53 333.19L369.46 332.78M369.46 332.78L370.2 331.61"/>
<path d="M355.71 134.5L355.71 117.76"/>
<path d="M355.71 117.76L351.53 113.58"/>
<path d="M355.71 117.76L358.71 117.76"/>
<path d="M341.07 90.9L341.07 87.28"/>
<path d="M342.01 87.28L341.07 87.28"/>
<path d="M336.89 90.9L341.07 90.9"/>
<path d="M336.89 90.9L336.89 113.3"/>
<path d="M336.89 130.31L336.89 134.5"/>
<path d="M336.89 134.5L337.4 134.5M337.4 134.5L341.07 134.5"/>
<path d="M243.81 134.5L245.04 137.45M245.04 137.45L248 138.68"/>
<path d="M239.63 134.5L243.81 134.5"/>
<path d="M239.63 90.9L243.81 90.9"/>
<path d="M243.81 134.5L243.81 130.31"/>
<path d="M243.81 113.3L243.81 90.9"/>
<path d="M239.63 87.28L239.63 90.9"/>
<path d="M239.63 87.28L238.7 87.28"/>
<path d="M221.99 117.76L224.99 117.76"/>
<path d="M224.99 117.76L229.17 113.58"/>
<path d="M224.99 117.76L224.99 134.5"/>
<path d="M224.99 134.5L226.21 134.5"/>
<path d="M226.21 134.5L229.17 134.5"/>
<path d="M220.81 138.68L222.9 138.12M222.9 138.12L224.43 136.59M224.43 136.59L224.99 134.5"/>
<path d="M224.12 138.5L223.77 138.39"/>
<path d="M224.12 138.49L224.99 138.68"/>
<path d="M336.37 130.31L338.46 130.31"/>
<path d="M336.37 130.31L244.34 130.31"/>
<path d="M242.25 130.31L244.34 130.31"/>
<path d="M257.93 78.03L255.84 78.59M255.84 78.59L254.31 80.12M254.31 80.12L253.75 82.21"/>
<path d="M257.93 78.03L322.77 78.03"/>
<path d="M326.95 82.21L326.39 80.12M326.39 80.12L324.86 78.59M324.86 78.59L322.77 78.03"/>
<path d="M257.93 82.21L255.84 82.77M255.84 82.77L254.31 84.3M254.31 84.3L253.75 86.39"/>
<path d="M257.93 107.91L255.96 108.35"/>
<path d="M257.93 82.65L257.93 107.91"/>
<path d="M257.93 82.65L254.97 83.75M254.97 83.75L253.75 86.39"/>
<path d="M257.93 107.91L257.93 108.35"/>
<path d="M324.74 108.35L322.77 107.91"/>
<path d="M322.77 108.35L322.77 107.91"/>
<path d="M326.95 86.39L326.39 84.52M326.39 84.52L324.86 83.15M324.86 83.15L322.77 82.65"/>
<path d="M322.77 107.91L322.77 82.65"/>
<path d="M326.95 86.39L326.39 84.3M326.39 84.3L324.86 82.77M324.86 82.77L322.77 82.21"/>
<path d="M336.89 90.9L336.89 84.3"/>
<path d="M341.07 87.28L338.11 88.34M338.11 88.34L336.89 90.9"/>
<path d="M341.07 87.28L341.07 85.57"/>
<path d="M243.81 90.9L242.59 88.34M242.59 88.34L239.63 87.28"/>
<path d="M243.81 84.3L243.81 90.9"/>
<path d="M239.63 85.57L239.63 87.28"/>
<path d="M338.46 118.81L338.46 122.52"/>
<path d="M338.46 122.52L338.46 130.31"/>
<path d="M328 117.14L329.98 117.35"/>
<path d="M328 117.14L328 126.13"/>
<path d="M328 126.13L334.51 129.85M334.51 129.85L336.37 130.31"/>
<path d="M329.98 117.35L333.26 117.97M333.26 117.97L336.03 119.15M336.03 119.15L338.07 121.11M338.07 121.11L338.46 122.52"/>
<path d="M328 126.13L252.7 126.13"/>
<path d="M244.34 130.31L245.34 130.15M245.34 130.15L247.83 129.07M247.83 129.07L252.7 126.13"/>
<path d="M242.25 122.52L242.43 121.54M242.43 121.54L243.8 119.76M243.8 119.76L246.84 118.16M246.84 118.16L250.72 117.35"/>
<path d="M242.25 130.31L242.25 122.52"/>
<path d="M252.7 126.13L252.7 117.14"/>
<path d="M250.72 117.35L252.7 117.14"/>
<path d="M242.25 122.52L242.25 118.81"/>
<path d="M257.93 82.65L257.93 82.21"/>
<path d="M322.77 82.21L257.93 82.21"/>
<path d="M322.77 82.65L257.93 82.65"/>
<path d="M257.93 107.91L283.03 107.91"/>
<path d="M297.67 107.91L322.77 107.91"/>
<path d="M290.35 108.35L252.7 108.35"/>
<path d="M328 108.35L290.35 108.35"/>
<path d="M322.77 82.21L322.77 82.65"/>
<path d="M338.45 81.04L337.3 82.49M337.3 82.49L336.89 84.3"/>
<path d="M193.09 235L193.09 217.11"/>
<path d="M193.09 213.98L193.09 207.49"/>
<path d="M193.09 203.14L193.09 193.91"/>
<path d="M193.09 192.95L193.09 193.91"/>
<path d="M193.09 212.14L193.09 212.03"/>
<path d="M193.09 212.91L193.09 212.14"/>
<path d="M193.09 213.98L193.09 212.91"/>
<path d="M193.09 218.36L193.09 217.03"/>
<path d="M193.09 219.27L193.09 218.36"/>
<path d="M193.09 220.68L193.09 219.27"/>
<path d="M193.09 222.91L193.09 220.68"/>
<path d="M193.09 223.8L193.09 222.91"/>
<path d="M193.09 212.03L193.09 207.49"/>
<path d="M193.09 203.27L193.09 203.14"/>
<path d="M193.09 203.48L193.09 203.27"/>
<path d="M193.09 203.96L193.09 203.48"/>
<path d="M193.09 204.27L193.09 203.96"/>
<path d="M193.09 204.76L193.09 204.27"/>
<path d="M193.09 205.15L193.09 204.76"/>
<path d="M193.09 205.63L193.09 205.15"/>
<path d="M193.09 205.89L193.09 205.63"/>
<path d="M193.09 205.98L193.09 205.89"/>
<path d="M193.09 206.08L193.09 205.98"/>
<path d="M193.09 207.27L193.09 205.89"/>
<path d="M193.09 207.49L193.09 207.27"/>
<path d="M193.09 227.53L193.09 227.08"/>
<path d="M193.09 224.07L193.09 223.8"/>
<path d="M193.09 227.08L193.09 224.07"/>
<path d="M193.09 233.54L193.09 231.53"/>
<path d="M193.09 235.02L193.09 233.54"/>
<path d="M193.09 230.62L193.09 230.44"/>
<path d="M193.09 230.84L193.09 230.62"/>
<path d="M193.09 231.1L193.09 230.84"/>
<path d="M193.09 231.22L193.09 231.1"/>
<path d="M193.09 231.47L193.09 231.22"/>
<path d="M193.09 235.41L193.09 235.02"/>
<path d="M193.09 235.85L193.09 235.41"/>
<path d="M193.09 236.21L193.09 235.85"/>
<path d="M193.09 236.48L193.09 236.21"/>
<path d="M193.09 236.56L193.09 236.48"/>
<path d="M193.09 199.1L193.09 199.07"/>
<path d="M193.09 199.15L193.09 199.1"/>
<path d="M193.09 199.3L193.09 199.15"/>
<path d="M193.09 199.7L193.09 199.3"/>
<path d="M193.09 200L193.09 199.7"/>
<path d="M193.09 200.21L193.09 200"/>
<path d="M193.09 200.54L193.09 200.21"/>
<path d="M193.09 200.9L193.09 200.54"/>
<path d="M193.09 201.41L193.09 200.9"/>
<path d="M193.09 201.9L193.09 201.41"/>
<path d="M193.09 202.31L193.09 201.9"/>
<path d="M193.09 202.56L193.09 202.31"/>
<path d="M193.09 202.65L193.09 202.56"/>
<path d="M193.09 197.77L193.09 197.51"/>
<path d="M193.09 197.51L193.09 195.57"/>
<path d="M193.09 196.9L193.09 196.64"/>
<path d="M193.09 196.64L193.09 195.57"/>
<path d="M193.09 191.48L193.09 191.39"/>
<path d="M193.09 191.65L193.09 191.48"/>
<path d="M193.09 192.01L193.09 191.65"/>
<path d="M193.09 192.37L193.09 192.01"/>
<path d="M193.09 192.54L193.09 192.37"/>
<path d="M193.09 192.9L193.09 192.54"/>
<path d="M193.09 193.17L193.09 192.9"/>
<path d="M193.09 195.13L193.09 193.17"/>
<path d="M193.09 195.57L193.09 195.13"/>
<path d="M193.09 214.15L193.09 214.06"/>
<path d="M193.09 214.5L193.09 214.15"/>
<path d="M193.09 214.85L193.09 214.5"/>
<path d="M193.09 215.46L193.09 214.85"/>
<path d="M193.09 215.63L193.09 215.46"/>
<path d="M193.09 216.24L193.09 215.63"/>
<path d="M193.09 216.59L193.09 216.24"/>
<path d="M193.09 216.94L193.09 216.59"/>
<path d="M193.09 217.03L193.09 216.94"/>
<path d="M193.09 217.11L193.09 217.03"/>
<path d="M193.09 270.85L193.09 268.23"/>
<path d="M193.09 277.92L193.09 270.85"/>
<path d="M193.09 280.91L193.09 277.92"/>
<path d="M193.09 261.41L193.09 259.82"/>
<path d="M193.09 265.25L193.09 261.41"/>
<path d="M193.09 268.23L193.09 265.25"/>
<path d="M243.81 84.3L243.4 82.49M243.4 82.49L242.26 81.04"/>
<path d="M338.46 118.81L337.06 113.58M337.06 113.58L333.23 109.75M333.23 109.75L328 108.35"/>
<path d="M329.98 108.54L329.98 113.31"/>
<path d="M329.98 113.31L335.32 115.82M335.32 115.82L338.13 120.19M338.13 120.19L338.46 122.52"/>
<path d="M328.77 113.09L328 117.14"/>
<path d="M329.98 117.35L330.21 114.75M330.21 114.75L329.98 113.31"/>
<path d="M328.77 113.09L329.98 113.31"/>
<path d="M328 117.14L302.97 114M302.97 114L277.74 114M277.74 114L252.7 117.14"/>
<path d="M250.72 113.31L250.49 114.74M250.49 114.74L250.72 117.35"/>
<path d="M242.25 122.52L243.67 117.8M243.67 117.8L247.81 114.23M247.81 114.23L250.72 113.31"/>
<path d="M251.93 113.09L252.7 117.14"/>
<path d="M250.72 113.31L251.93 113.09"/>
<path d="M252.7 108.35L247.47 109.75M247.47 109.75L243.65 113.58M243.65 113.58L242.25 118.81"/>
<path d="M250.72 113.31L250.72 108.54"/>
<path d="M328.78 113.09L303.23 109.89M303.23 109.89L277.49 109.88M277.49 109.88L251.94 113.09"/>
<path d="M297.67 96.85L297.67 108.35"/>
<path d="M283.03 96.85L297.67 96.85"/>
<path d="M283.03 96.85L283.03 108.35"/>
<path d="M369.83 297.36L354.34 282.03"/>
<path d="M352.82 314.37L337.49 298.88"/>
<path d="M366.17 210.65L359.45 195.45M359.45 195.45L349.72 181.98M349.72 181.98L337.4 170.83"/>
<path d="M227.13 315.12L243.3 298.95"/>
<path d="M210.12 298.12L227.13 315.12"/>
<path d="M267.34 158.82L267.34 147.05"/>
<path d="M237.02 147.05L267.34 147.05"/>
<path d="M313.36 147.05L343.69 147.05"/>
<path d="M211.39 320.93L211.77 321.2"/>
<path d="M211.39 320.93L211.77 321.2"/>
<path d="M165.03 215.87L167.1 214.83M167.1 214.83L170.21 211.72M170.21 211.72L170.21 233.51"/>
</g>
</g>
</svg>
