<?xml version="1.0" standalone="no"?><svg xmlns="http://www.w3.org/2000/svg" width="600.000" height="450.000" viewBox="0.0 0.0 600.000 450.000" version="1.1">
<title>Acme Converter - Post-processed with EDS-Designer: 14.44 (info@symca.com)</title>
<desc>Acme Converter - Post-processed with EDS-Designer: 14.44 (info@symca.com)</desc>
<g id="EDS_STYLE_GROUP" fill="none" stroke="black" stroke-width="1.0">
<g id="0" display="visible">
<path d="M252.08 351.47L253.32 355.17M253.32 355.17L253.32 347.77M253.32 347.77L252.08 351.47M252.08 351.47L249.62 349M249.62 349L245.92 347.77M245.92 347.77L243.45 347.77M243.45 347.77L239.75 349M239.75 349L237.29 351.47M237.29 351.47L236.06 353.93M236.06 353.93L234.82 357.63M234.82 357.63L234.82 363.8M234.82 363.8L236.06 367.5M236.06 367.5L237.29 369.96M237.29 369.96L239.75 372.43M239.75 372.43L243.45 373.66M243.45 373.66L245.92 373.66M245.92 373.66L249.62 372.43M249.62 372.43L252.08 369.96M243.45 347.77L240.99 349M240.99 349L238.52 351.47M238.52 351.47L237.29 353.93M237.29 353.93L236.06 357.63M236.06 357.63L236.06 363.8M236.06 363.8L237.29 367.5M237.29 367.5L238.52 369.96M238.52 369.96L240.99 372.43M240.99 372.43L243.45 373.66M252.08 363.8L252.08 373.66M253.32 363.8L253.32 373.66M248.38 363.8L257.01 363.8M266.88 373.66L266.88 347.77M268.11 347.77L268.11 373.66M263.18 347.77L277.97 347.77M277.97 347.77L281.67 349M281.67 349L282.91 350.24M282.91 350.24L284.14 352.7M284.14 352.7L284.14 355.17M284.14 355.17L282.91 357.63M282.91 357.63L281.67 358.87M281.67 358.87L277.97 360.1M277.97 360.1L268.11 360.1M277.97 347.77L280.44 349M280.44 349L281.67 350.24M281.67 350.24L282.91 352.7M282.91 352.7L282.91 355.17M282.91 355.17L281.67 357.63M281.67 357.63L280.44 358.87M280.44 358.87L277.97 360.1M263.18 373.66L271.81 373.66M274.28 360.1L276.74 361.33M276.74 361.33L277.97 362.56M277.97 362.56L281.67 371.19M281.67 371.19L282.91 372.43M282.91 372.43L284.14 372.43M284.14 372.43L285.37 371.19M276.74 361.33L277.97 363.8M277.97 363.8L280.44 372.43M280.44 372.43L281.67 373.66M281.67 373.66L284.14 373.66M284.14 373.66L285.37 371.19M285.37 371.19L285.37 369.96M294 373.66L294 347.77M295.23 347.77L295.23 373.66M302.63 355.17L302.63 365.03M290.3 347.77L310.03 347.77M310.03 347.77L310.03 355.17M310.03 355.17L308.8 347.77M295.23 360.1L302.63 360.1M290.3 373.66L310.03 373.66M310.03 373.66L310.03 366.26M310.03 366.26L308.8 373.66M319.89 373.66L319.89 347.77M321.13 347.77L321.13 373.66M328.52 355.17L328.52 365.03M316.19 347.77L335.92 347.77M335.92 347.77L335.92 355.17M335.92 355.17L334.69 347.77M321.13 360.1L328.52 360.1M316.19 373.66L335.92 373.66M335.92 373.66L335.92 366.26M335.92 366.26L334.69 373.66M345.78 373.66L345.78 347.77M347.02 373.66L347.02 347.77M347.02 347.77L361.81 371.19M347.02 350.24L361.81 373.66M361.81 373.66L361.81 347.77M342.08 347.77L347.02 347.77M358.11 347.77L365.51 347.77M342.08 373.66L349.48 373.66"/>
<path d="M571.09 199.46L573.06 198.47M573.06 198.47L576.02 195.51M576.02 195.51L576.02 216.22"/>
<path d="M27.42 196.61L17.55 210.42M17.55 210.42L32.35 210.42M27.42 196.61L27.42 217.32"/>
<path d="M547.31 294.5L561.21 289.88M561.21 289.88L573.54 281.96M573.54 281.96L583.52 271.23M583.52 271.23L590.52 258.36M590.52 258.36L594.12 244.15"/>
<path d="M594.12 167.31L589.02 154.48M589.02 154.48L581.43 142.95M581.43 142.95L571.67 133.19M571.67 133.19L560.13 125.6M560.13 125.6L547.31 120.5"/>
<path d="M5.88 244.15L9.84 257.13M9.84 257.13L16.26 269.09M16.26 269.09L24.89 279.56M24.89 279.56L35.41 288.14M35.41 288.14L47.39 294.5"/>
<path d="M47.39 120.5L33.69 128.83M33.69 128.83L21.9 139.71M21.9 139.71L12.51 152.71M12.51 152.71L5.88 167.31"/>
<path d="M461.63 206.18L463.56 192.74M463.56 192.74L469.2 180.39M469.2 180.39L478.09 170.13M478.09 170.13L489.51 162.79M489.51 162.79L502.54 158.97M502.54 158.97L516.11 158.97M516.11 158.97L529.14 162.79M529.14 162.79L540.56 170.13M540.56 170.13L549.45 180.39M549.45 180.39L555.09 192.74M555.09 192.74L557.02 206.18M557.02 206.18L555.09 219.61M555.09 219.61L549.45 231.96M549.45 231.96L540.56 242.22M540.56 242.22L529.14 249.56M529.14 249.56L516.11 253.38M516.11 253.38L502.54 253.38M502.54 253.38L489.51 249.56M489.51 249.56L478.09 242.22M478.09 242.22L469.2 231.96M469.2 231.96L463.56 219.61M463.56 219.61L461.63 206.18"/>
<path d="M324.73 206.18L326.66 192.74M326.66 192.74L332.3 180.39M332.3 180.39L341.19 170.13M341.19 170.13L352.61 162.79M352.61 162.79L365.64 158.97M365.64 158.97L379.21 158.97M379.21 158.97L392.24 162.79M392.24 162.79L403.66 170.13M403.66 170.13L412.55 180.39M412.55 180.39L418.19 192.74M418.19 192.74L420.12 206.18M420.12 206.18L418.19 219.61M418.19 219.61L412.55 231.96M412.55 231.96L403.66 242.22M403.66 242.22L392.24 249.56M392.24 249.56L379.21 253.38M379.21 253.38L365.64 253.38M365.64 253.38L352.61 249.56M352.61 249.56L341.19 242.22M341.19 242.22L332.3 231.96M332.3 231.96L326.66 219.61M326.66 219.61L324.73 206.18"/>
<path d="M183.41 206.18L185.34 192.74M185.34 192.74L190.98 180.39M190.98 180.39L199.87 170.13M199.87 170.13L211.29 162.79M211.29 162.79L224.32 158.97M224.32 158.97L237.9 158.97M237.9 158.97L250.92 162.79M250.92 162.79L262.34 170.13M262.34 170.13L271.23 180.39M271.23 180.39L276.87 192.74M276.87 192.74L278.8 206.18M278.8 206.18L276.87 219.61M276.87 219.61L271.23 231.96M271.23 231.96L262.34 242.22M262.34 242.22L250.92 249.56M250.92 249.56L237.9 253.38M237.9 253.38L224.32 253.38M224.32 253.38L211.29 249.56M211.29 249.56L199.87 242.22M199.87 242.22L190.98 231.96M190.98 231.96L185.34 219.61M185.34 219.61L183.41 206.18"/>
<path d="M43.86 206.18L45.79 192.74M45.79 192.74L51.43 180.39M51.43 180.39L60.32 170.13M60.32 170.13L71.74 162.79M71.74 162.79L84.77 158.97M84.77 158.97L98.34 158.97M98.34 158.97L111.37 162.79M111.37 162.79L122.79 170.13M122.79 170.13L131.68 180.39M131.68 180.39L137.32 192.74M137.32 192.74L139.25 206.18M139.25 206.18L137.32 219.61M137.32 219.61L131.68 231.96M131.68 231.96L122.79 242.22M122.79 242.22L111.37 249.56M111.37 249.56L98.34 253.38M98.34 253.38L84.77 253.38M84.77 253.38L71.74 249.56M71.74 249.56L60.32 242.22M60.32 242.22L51.43 231.96M51.43 231.96L45.79 219.61M45.79 219.61L43.86 206.18"/>
<path d="M337.98 130.22L337.98 112.55"/>
<path d="M337.98 112.55L352.99 112.55"/>
<path d="M352.99 112.55L352.99 89.59"/>
<path d="M352.99 89.59L382.14 89.59"/>
<path d="M382.14 89.59L382.14 113.44"/>
<path d="M382.14 113.44L402.46 113.44"/>
<path d="M402.46 113.44L402.46 130.22"/>
<path d="M267.32 113.44L267.32 130.22"/>
<path d="M247.01 113.44L267.32 113.44"/>
<path d="M247.01 89.59L247.01 113.44"/>
<path d="M217.86 89.59L247.01 89.59"/>
<path d="M217.86 112.55L217.86 89.59"/>
<path d="M202.84 112.55L217.86 112.55"/>
<path d="M202.84 130.22L202.84 112.55"/>
<path d="M439.55 77.22L439.55 120.5"/>
<path d="M465.17 77.22L439.55 77.22"/>
<path d="M465.17 120.5L465.17 77.22"/>
<path d="M431.6 76.34L431.6 130.22"/>
<path d="M170.16 76.34L431.6 76.34"/>
<path d="M170.16 130.22L170.16 76.34"/>
<path d="M162.22 78.99L162.22 120.5"/>
<path d="M136.6 78.99L162.22 78.99"/>
<path d="M136.6 120.5L136.6 78.99"/>
<path d="M449.27 294.5L449.27 321.88"/>
<path d="M431.6 294.5L431.6 321.88"/>
<path d="M310.6 294.5L310.6 321.88"/>
<path d="M289.4 294.5L289.4 321.88"/>
<path d="M171.05 294.5L171.05 321.88"/>
<path d="M149.85 294.5L149.85 321.88"/>
<path d="M506.68 321.88L506.68 294.5"/>
<path d="M94.21 321.88L506.68 321.88"/>
<path d="M94.21 294.5L94.21 321.88"/>
<path d="M594.12 167.31L594.12 244.15"/>
<path d="M5.88 244.15L5.88 167.31"/>
<path d="M547.31 294.5L47.39 294.5"/>
<path d="M439.55 120.5L547.31 120.5"/>
<path d="M439.55 130.22L439.55 120.5"/>
<path d="M162.22 130.22L439.55 130.22"/>
<path d="M162.22 120.5L162.22 130.22"/>
<path d="M47.39 120.5L162.22 120.5"/>
</g>
</g>
</svg>
