<?xml version="1.0" standalone="no"?><svg xmlns="http://www.w3.org/2000/svg" width="600.000" height="450.000" viewBox="0.0 0.0 600.000 450.000" version="1.1">
<title>Acme Converter - Post-processed with EDS-Designer: 14.44 (info@symca.com)</title>
<desc>Acme Converter - Post-processed with EDS-Designer: 14.44 (info@symca.com)</desc>
<g id="EDS_STYLE_GROUP" fill="none" stroke="black" stroke-width="1.0">
<g id="0" display="visible">
<path d="M236.74 346.67L236.74 318.71M238.07 318.71L238.07 346.67M232.75 318.71L248.72 318.71M248.72 318.71L252.72 320.04M252.72 320.04L254.05 321.37M254.05 321.37L255.38 324.03M255.38 324.03L255.38 326.7M255.38 326.7L254.05 329.36M254.05 329.36L252.72 330.69M252.72 330.69L248.72 332.02M248.72 318.71L251.39 320.04M251.39 320.04L252.72 321.37M252.72 321.37L254.05 324.03M254.05 324.03L254.05 326.7M254.05 326.7L252.72 329.36M252.72 329.36L251.39 330.69M251.39 330.69L248.72 332.02M238.07 332.02L248.72 332.02M248.72 332.02L252.72 333.35M252.72 333.35L254.05 334.68M254.05 334.68L255.38 337.35M255.38 337.35L255.38 341.34M255.38 341.34L254.05 344M254.05 344L252.72 345.33M252.72 345.33L248.72 346.67M248.72 346.67L232.75 346.67M248.72 332.02L251.39 333.35M251.39 333.35L252.72 334.68M252.72 334.68L254.05 337.35M254.05 337.35L254.05 341.34M254.05 341.34L252.72 344M252.72 344L251.39 345.33M251.39 345.33L248.72 346.67M266.03 346.67L266.03 318.71M267.36 318.71L267.36 346.67M262.04 318.71L271.36 318.71M262.04 346.67L282.01 346.67M282.01 346.67L282.01 338.68M282.01 338.68L280.67 346.67M297.98 318.71L288.66 346.67M297.98 318.71L307.3 346.67M297.98 322.7L305.97 346.67M291.33 338.68L303.31 338.68M286 346.67L293.99 346.67M301.98 346.67L309.96 346.67M332.6 322.7L333.93 326.7M333.93 326.7L333.93 318.71M333.93 318.71L332.6 322.7M332.6 322.7L329.93 320.04M329.93 320.04L325.94 318.71M325.94 318.71L323.28 318.71M323.28 318.71L319.28 320.04M319.28 320.04L316.62 322.7M316.62 322.7L315.29 325.36M315.29 325.36L313.96 329.36M313.96 329.36L313.96 336.01M313.96 336.01L315.29 340.01M315.29 340.01L316.62 342.67M316.62 342.67L319.28 345.33M319.28 345.33L323.28 346.67M323.28 346.67L325.94 346.67M325.94 346.67L329.93 345.33M329.93 345.33L332.6 342.67M332.6 342.67L333.93 340.01M323.28 318.71L320.61 320.04M320.61 320.04L317.95 322.7M317.95 322.7L316.62 325.36M316.62 325.36L315.29 329.36M315.29 329.36L315.29 336.01M315.29 336.01L316.62 340.01M316.62 340.01L317.95 342.67M317.95 342.67L320.61 345.33M320.61 345.33L323.28 346.67M345.91 346.67L345.91 318.71M347.24 318.71L347.24 346.67M364.55 318.71L347.24 336.01M353.9 330.69L364.55 346.67M352.57 330.69L363.22 346.67M341.92 318.71L351.24 318.71M359.22 318.71L367.21 318.71M341.92 346.67L351.24 346.67M359.22 346.67L367.21 346.67"/>
<path d="M531.84 110.79L530.77 113.99M530.77 113.99L528.64 116.12M528.64 116.12L525.45 117.18M525.45 117.18L524.38 117.18M524.38 117.18L521.19 116.12M521.19 116.12L519.06 113.99M519.06 113.99L517.99 110.79M517.99 110.79L517.99 109.72M517.99 109.72L519.06 106.53M519.06 106.53L521.19 104.4M521.19 104.4L524.38 103.33M524.38 103.33L525.45 103.33M525.45 103.33L528.64 104.4M528.64 104.4L530.77 106.53M530.77 106.53L531.84 110.79M531.84 110.79L531.84 116.12M531.84 116.12L530.77 121.44M530.77 121.44L528.64 124.64M528.64 124.64L525.45 125.7M525.45 125.7L523.32 125.7M523.32 125.7L520.12 124.64M520.12 124.64L519.06 122.51"/>
<path d="M33.36 107.89L35.49 106.82M35.49 106.82L38.68 103.63M38.68 103.63L38.68 126"/>
<path d="M514.87 303.6L517 302.53M517 302.53L520.2 299.34M520.2 299.34L520.2 321.7M537.24 299.34L534.05 300.4M534.05 300.4L532.98 302.53M532.98 302.53L532.98 304.66M532.98 304.66L534.05 306.79M534.05 306.79L536.18 307.86M536.18 307.86L540.44 308.92M540.44 308.92L543.63 309.99M543.63 309.99L545.76 312.12M545.76 312.12L546.83 314.25M546.83 314.25L546.83 317.44M546.83 317.44L545.76 319.57M545.76 319.57L544.7 320.64M544.7 320.64L541.5 321.7M541.5 321.7L537.24 321.7M537.24 321.7L534.05 320.64M534.05 320.64L532.98 319.57M532.98 319.57L531.92 317.44M531.92 317.44L531.92 314.25M531.92 314.25L532.98 312.12M532.98 312.12L535.11 309.99M535.11 309.99L538.31 308.92M538.31 308.92L542.57 307.86M542.57 307.86L544.7 306.79M544.7 306.79L545.76 304.66M545.76 304.66L545.76 302.53M545.76 302.53L544.7 300.4M544.7 300.4L541.5 299.34M541.5 299.34L537.24 299.34"/>
<path d="M19.82 306.29L21.95 305.22M21.95 305.22L25.15 302.02M25.15 302.02L25.15 324.39M43.25 302.02L40.06 303.09M40.06 303.09L37.93 306.29M37.93 306.29L36.86 311.61M36.86 311.61L36.86 314.81M36.86 314.81L37.93 320.13M37.93 320.13L40.06 323.33M40.06 323.33L43.25 324.39M43.25 324.39L45.38 324.39M45.38 324.39L48.58 323.33M48.58 323.33L50.71 320.13M50.71 320.13L51.77 314.81M51.77 314.81L51.77 311.61M51.77 311.61L50.71 306.29M50.71 306.29L48.58 303.09M48.58 303.09L45.38 302.02M45.38 302.02L43.25 302.02"/>
<path d="M110.66 118.83L109.05 118.53"/>
<path d="M594.12 231.48L594.12 193.46"/>
<path d="M582.93 220.3L582.93 204.64"/>
<path d="M571.75 193.46L571.75 143.13"/>
<path d="M571.75 281.8L571.75 231.48"/>
<path d="M560.57 204.64L560.57 148.72"/>
<path d="M560.57 276.21L560.57 220.3"/>
<path d="M571.75 143.13L562.8 134.19"/>
<path d="M562.8 137.54L571.75 146.49"/>
<path d="M571.75 281.8L562.8 290.75"/>
<path d="M571.75 278.45L562.8 287.39"/>
<path d="M543.79 258.77L543.79 222.98"/>
<path d="M543.79 166.17L543.79 201.96"/>
<path d="M533.73 233.04L533.73 248.7"/>
<path d="M533.73 176.23L533.73 191.89"/>
<path d="M518.07 191.89L518.07 176.23"/>
<path d="M518.07 248.7L518.07 233.04"/>
<path d="M508.01 201.96L508.01 166.17"/>
<path d="M508.01 258.77L508.01 222.98"/>
<path d="M594.12 231.48L582.93 220.3"/>
<path d="M594.12 193.46L582.93 204.64"/>
<path d="M486.98 258.77L486.98 222.98"/>
<path d="M486.98 166.17L486.98 201.96"/>
<path d="M508.01 166.17L518.07 176.23"/>
<path d="M543.79 201.96L533.73 191.89"/>
<path d="M571.75 231.48L560.57 220.3"/>
<path d="M508.01 258.77L518.07 248.7"/>
<path d="M543.79 222.98L533.73 233.04"/>
<path d="M571.75 193.46L560.57 204.64"/>
<path d="M476.92 233.04L476.92 248.7"/>
<path d="M476.92 176.23L476.92 191.89"/>
<path d="M461.26 191.89L461.26 176.23"/>
<path d="M461.26 248.7L461.26 233.04"/>
<path d="M451.2 201.96L451.2 166.17"/>
<path d="M451.2 258.77L451.2 222.98"/>
<path d="M508.01 222.98L518.07 233.04"/>
<path d="M451.2 166.17L461.26 176.23"/>
<path d="M486.98 201.96L476.92 191.89"/>
<path d="M543.79 258.77L533.73 248.7"/>
<path d="M560.57 276.21L567.28 282.92"/>
<path d="M508.01 201.96L518.07 191.89"/>
<path d="M451.2 258.77L461.26 248.7"/>
<path d="M486.98 222.98L476.92 233.04"/>
<path d="M543.79 166.17L533.73 176.23"/>
<path d="M560.57 148.72L567.28 142.01"/>
<path d="M430.17 258.77L430.17 222.98"/>
<path d="M430.17 166.17L430.17 201.96"/>
<path d="M451.2 201.96L461.26 191.89"/>
<path d="M394.39 258.77L404.45 248.7"/>
<path d="M430.17 222.98L420.11 233.04"/>
<path d="M486.98 166.17L476.92 176.23"/>
<path d="M420.11 233.04L420.11 248.7"/>
<path d="M420.11 176.23L420.11 191.89"/>
<path d="M451.2 222.98L461.26 233.04"/>
<path d="M430.17 201.96L420.11 191.89"/>
<path d="M394.39 166.17L404.45 176.23"/>
<path d="M486.98 258.77L476.92 248.7"/>
<path d="M109.05 118.53L87.52 118.53"/>
<path d="M404.45 191.89L404.45 176.23"/>
<path d="M404.45 248.7L404.45 233.04"/>
<path d="M394.39 201.96L394.39 166.17"/>
<path d="M394.39 258.77L394.39 222.98"/>
<path d="M109.05 123L87.52 123"/>
<path d="M562.8 134.19L5.88 134.19"/>
<path d="M562.8 137.54L5.88 137.54"/>
<path d="M394.39 201.96L404.45 191.89"/>
<path d="M337.58 258.77L347.64 248.7"/>
<path d="M373.36 222.98L363.3 233.04"/>
<path d="M430.17 166.17L420.11 176.23"/>
<path d="M373.36 258.77L373.36 222.98"/>
<path d="M373.36 166.17L373.36 201.96"/>
<path d="M373.36 201.96L363.3 191.89"/>
<path d="M394.39 222.98L404.45 233.04"/>
<path d="M430.17 258.77L420.11 248.7"/>
<path d="M337.58 166.17L347.64 176.23"/>
<path d="M560.57 148.72L5.88 148.72"/>
<path d="M363.3 233.04L363.3 248.7"/>
<path d="M363.3 176.23L363.3 191.89"/>
<path d="M347.64 191.89L347.64 176.23"/>
<path d="M347.64 248.7L347.64 233.04"/>
<path d="M508.01 166.17L543.79 166.17"/>
<path d="M451.2 166.17L486.98 166.17"/>
<path d="M394.39 166.17L430.17 166.17"/>
<path d="M337.58 166.17L373.36 166.17"/>
<path d="M280.76 166.17L316.55 166.17"/>
<path d="M223.95 166.17L259.74 166.17"/>
<path d="M167.14 166.17L202.93 166.17"/>
<path d="M110.33 166.17L146.12 166.17"/>
<path d="M53.52 166.17L89.31 166.17"/>
<path d="M518.07 176.23L533.73 176.23"/>
<path d="M461.26 176.23L476.92 176.23"/>
<path d="M404.45 176.23L420.11 176.23"/>
<path d="M347.64 176.23L363.3 176.23"/>
<path d="M290.83 176.23L306.49 176.23"/>
<path d="M234.02 176.23L249.68 176.23"/>
<path d="M177.21 176.23L192.87 176.23"/>
<path d="M120.4 176.23L136.05 176.23"/>
<path d="M63.59 176.23L79.24 176.23"/>
<path d="M337.58 201.96L347.64 191.89"/>
<path d="M280.76 258.77L290.83 248.7"/>
<path d="M316.55 222.98L306.49 233.04"/>
<path d="M373.36 166.17L363.3 176.23"/>
<path d="M337.58 201.96L337.58 166.17"/>
<path d="M337.58 258.77L337.58 222.98"/>
<path d="M316.55 201.96L306.49 191.89"/>
<path d="M373.36 258.77L363.3 248.7"/>
<path d="M337.58 222.98L347.64 233.04"/>
<path d="M280.76 166.17L290.83 176.23"/>
<path d="M150.41 134.19L110.66 118.83"/>
<path d="M138 134.19L109.05 123"/>
<path d="M79.24 191.89L63.59 191.89"/>
<path d="M136.05 191.89L120.4 191.89"/>
<path d="M192.87 191.89L177.21 191.89"/>
<path d="M249.68 191.89L234.02 191.89"/>
<path d="M306.49 191.89L290.83 191.89"/>
<path d="M363.3 191.89L347.64 191.89"/>
<path d="M420.11 191.89L404.45 191.89"/>
<path d="M476.92 191.89L461.26 191.89"/>
<path d="M533.73 191.89L518.07 191.89"/>
<path d="M594.12 193.46L571.75 193.46"/>
<path d="M316.55 258.77L316.55 222.98"/>
<path d="M316.55 166.17L316.55 201.96"/>
<path d="M306.49 233.04L306.49 248.7"/>
<path d="M306.49 176.23L306.49 191.89"/>
<path d="M89.31 201.96L53.52 201.96"/>
<path d="M146.12 201.96L110.33 201.96"/>
<path d="M202.93 201.96L167.14 201.96"/>
<path d="M259.74 201.96L223.95 201.96"/>
<path d="M316.55 201.96L280.76 201.96"/>
<path d="M373.36 201.96L337.58 201.96"/>
<path d="M430.17 201.96L394.39 201.96"/>
<path d="M486.98 201.96L451.2 201.96"/>
<path d="M543.79 201.96L508.01 201.96"/>
<path d="M582.93 204.64L560.57 204.64"/>
<path d="M560.57 220.3L582.93 220.3"/>
<path d="M280.76 201.96L290.83 191.89"/>
<path d="M223.95 258.77L234.02 248.7"/>
<path d="M259.74 222.98L249.68 233.04"/>
<path d="M316.55 166.17L306.49 176.23"/>
<path d="M290.83 191.89L290.83 176.23"/>
<path d="M290.83 248.7L290.83 233.04"/>
<path d="M259.74 201.96L249.68 191.89"/>
<path d="M316.55 258.77L306.49 248.7"/>
<path d="M280.76 222.98L290.83 233.04"/>
<path d="M223.95 166.17L234.02 176.23"/>
<path d="M508.01 222.98L543.79 222.98"/>
<path d="M451.2 222.98L486.98 222.98"/>
<path d="M394.39 222.98L430.17 222.98"/>
<path d="M337.58 222.98L373.36 222.98"/>
<path d="M280.76 222.98L316.55 222.98"/>
<path d="M223.95 222.98L259.74 222.98"/>
<path d="M167.14 222.98L202.93 222.98"/>
<path d="M110.33 222.98L146.12 222.98"/>
<path d="M53.52 222.98L89.31 222.98"/>
<path d="M571.75 231.48L594.12 231.48"/>
<path d="M518.07 233.04L533.73 233.04"/>
<path d="M461.26 233.04L476.92 233.04"/>
<path d="M404.45 233.04L420.11 233.04"/>
<path d="M347.64 233.04L363.3 233.04"/>
<path d="M290.83 233.04L306.49 233.04"/>
<path d="M234.02 233.04L249.68 233.04"/>
<path d="M177.21 233.04L192.87 233.04"/>
<path d="M120.4 233.04L136.05 233.04"/>
<path d="M63.59 233.04L79.24 233.04"/>
<path d="M280.76 201.96L280.76 166.17"/>
<path d="M280.76 258.77L280.76 222.98"/>
<path d="M79.24 248.7L63.59 248.7"/>
<path d="M136.05 248.7L120.4 248.7"/>
<path d="M192.87 248.7L177.21 248.7"/>
<path d="M249.68 248.7L234.02 248.7"/>
<path d="M306.49 248.7L290.83 248.7"/>
<path d="M363.3 248.7L347.64 248.7"/>
<path d="M420.11 248.7L404.45 248.7"/>
<path d="M476.92 248.7L461.26 248.7"/>
<path d="M533.73 248.7L518.07 248.7"/>
<path d="M89.31 258.77L53.52 258.77"/>
<path d="M146.12 258.77L110.33 258.77"/>
<path d="M202.93 258.77L167.14 258.77"/>
<path d="M259.74 258.77L223.95 258.77"/>
<path d="M316.55 258.77L280.76 258.77"/>
<path d="M373.36 258.77L337.58 258.77"/>
<path d="M430.17 258.77L394.39 258.77"/>
<path d="M486.98 258.77L451.2 258.77"/>
<path d="M543.79 258.77L508.01 258.77"/>
<path d="M223.95 201.96L234.02 191.89"/>
<path d="M167.14 258.77L177.21 248.7"/>
<path d="M202.93 222.98L192.87 233.04"/>
<path d="M259.74 166.17L249.68 176.23"/>
<path d="M259.74 258.77L259.74 222.98"/>
<path d="M259.74 166.17L259.74 201.96"/>
<path d="M249.68 233.04L249.68 248.7"/>
<path d="M249.68 176.23L249.68 191.89"/>
<path d="M202.93 201.96L192.87 191.89"/>
<path d="M259.74 258.77L249.68 248.7"/>
<path d="M223.95 222.98L234.02 233.04"/>
<path d="M167.14 166.17L177.21 176.23"/>
<path d="M5.88 276.21L560.57 276.21"/>
<path d="M234.02 191.89L234.02 176.23"/>
<path d="M234.02 248.7L234.02 233.04"/>
<path d="M223.95 201.96L223.95 166.17"/>
<path d="M223.95 258.77L223.95 222.98"/>
<path d="M5.88 287.39L562.8 287.39"/>
<path d="M562.8 290.75L5.88 290.75"/>
<path d="M167.14 201.96L177.21 191.89"/>
<path d="M110.33 258.77L120.4 248.7"/>
<path d="M146.12 222.98L136.05 233.04"/>
<path d="M202.93 166.17L192.87 176.23"/>
<path d="M202.93 258.77L202.93 222.98"/>
<path d="M202.93 166.17L202.93 201.96"/>
<path d="M146.12 201.96L136.05 191.89"/>
<path d="M202.93 258.77L192.87 248.7"/>
<path d="M167.14 222.98L177.21 233.04"/>
<path d="M110.33 166.17L120.4 176.23"/>
<path d="M192.87 233.04L192.87 248.7"/>
<path d="M192.87 176.23L192.87 191.89"/>
<path d="M110.33 201.96L120.4 191.89"/>
<path d="M53.52 258.77L63.59 248.7"/>
<path d="M89.31 222.98L79.24 233.04"/>
<path d="M146.12 166.17L136.05 176.23"/>
<path d="M177.21 191.89L177.21 176.23"/>
<path d="M177.21 248.7L177.21 233.04"/>
<path d="M167.14 201.96L167.14 166.17"/>
<path d="M167.14 258.77L167.14 222.98"/>
<path d="M89.31 201.96L79.24 191.89"/>
<path d="M146.12 258.77L136.05 248.7"/>
<path d="M110.33 222.98L120.4 233.04"/>
<path d="M53.52 166.17L63.59 176.23"/>
<path d="M146.12 258.77L146.12 222.98"/>
<path d="M146.12 166.17L146.12 201.96"/>
<path d="M53.52 201.96L63.59 191.89"/>
<path d="M89.31 166.17L79.24 176.23"/>
<path d="M136.05 233.04L136.05 248.7"/>
<path d="M136.05 176.23L136.05 191.89"/>
<path d="M120.4 191.89L120.4 176.23"/>
<path d="M120.4 248.7L120.4 233.04"/>
<path d="M89.31 258.77L79.24 248.7"/>
<path d="M53.52 222.98L63.59 233.04"/>
<path d="M110.33 201.96L110.33 166.17"/>
<path d="M110.33 258.77L110.33 222.98"/>
<path d="M109.05 118.53L109.05 123"/>
<path d="M109.05 123L110.66 118.83"/>
<path d="M89.31 258.77L89.31 222.98"/>
<path d="M89.31 166.17L89.31 201.96"/>
<path d="M87.52 134.19L87.52 118.53"/>
<path d="M79.24 233.04L79.24 248.7"/>
<path d="M79.24 176.23L79.24 191.89"/>
<path d="M63.59 191.89L63.59 176.23"/>
<path d="M63.59 248.7L63.59 233.04"/>
<path d="M53.52 201.96L53.52 166.17"/>
<path d="M53.52 258.77L53.52 222.98"/>
<path d="M5.88 290.75L5.88 134.19"/>
</g>
</g>
</svg>
