<?xml version="1.0" standalone="no"?><svg xmlns="http://www.w3.org/2000/svg" width="600.000" height="450.000" viewBox="0.0 0.0 600.000 450.000" version="1.1">
<title>Acme Converter - Post-processed with EDS-Designer: 14.44 (info@symca.com)</title>
<desc>Acme Converter - Post-processed with EDS-Designer: 14.44 (info@symca.com)</desc>
<g id="EDS_STYLE_GROUP" fill="none" stroke="black" stroke-width="1.0">
<g id="0" display="visible">
<path d="M256.68 378.34L256.68 358.04M257.65 358.04L257.65 378.34M253.78 358.04L265.38 358.04M265.38 358.04L268.28 359.01M268.28 359.01L269.24 359.98M269.24 359.98L270.21 361.91M270.21 361.91L270.21 363.84M270.21 363.84L269.24 365.77M269.24 365.77L268.28 366.74M268.28 366.74L265.38 367.71M265.38 358.04L267.31 359.01M267.31 359.01L268.28 359.98M268.28 359.98L269.24 361.91M269.24 361.91L269.24 363.84M269.24 363.84L268.28 365.77M268.28 365.77L267.31 366.74M267.31 366.74L265.38 367.71M257.65 367.71L265.38 367.71M265.38 367.71L268.28 368.67M268.28 368.67L269.24 369.64M269.24 369.64L270.21 371.57M270.21 371.57L270.21 374.47M270.21 374.47L269.24 376.4M269.24 376.4L268.28 377.37M268.28 377.37L265.38 378.34M265.38 378.34L253.78 378.34M265.38 367.71L267.31 368.67M267.31 368.67L268.28 369.64M268.28 369.64L269.24 371.57M269.24 371.57L269.24 374.47M269.24 374.47L268.28 376.4M268.28 376.4L267.31 377.37M267.31 377.37L265.38 378.34M277.94 378.34L277.94 358.04M278.91 358.04L278.91 378.34M275.04 358.04L281.81 358.04M275.04 378.34L289.54 378.34M289.54 378.34L289.54 372.54M289.54 372.54L288.57 378.34M301.13 358.04L294.37 378.34M301.13 358.04L307.9 378.34M301.13 360.94L306.93 378.34M296.3 372.54L305 372.54M292.44 378.34L298.24 378.34M304.03 378.34L309.83 378.34M326.26 360.94L327.23 363.84M327.23 363.84L327.23 358.04M327.23 358.04L326.26 360.94M326.26 360.94L324.33 359.01M324.33 359.01L321.43 358.04M321.43 358.04L319.49 358.04M319.49 358.04L316.6 359.01M316.6 359.01L314.66 360.94M314.66 360.94L313.7 362.88M313.7 362.88L312.73 365.77M312.73 365.77L312.73 370.61M312.73 370.61L313.7 373.51M313.7 373.51L314.66 375.44M314.66 375.44L316.6 377.37M316.6 377.37L319.49 378.34M319.49 378.34L321.43 378.34M321.43 378.34L324.33 377.37M324.33 377.37L326.26 375.44M326.26 375.44L327.23 373.51M319.49 358.04L317.56 359.01M317.56 359.01L315.63 360.94M315.63 360.94L314.66 362.88M314.66 362.88L313.7 365.77M313.7 365.77L313.7 370.61M313.7 370.61L314.66 373.51M314.66 373.51L315.63 375.44M315.63 375.44L317.56 377.37M317.56 377.37L319.49 378.34M335.92 378.34L335.92 358.04M336.89 358.04L336.89 378.34M349.45 358.04L336.89 370.61M341.72 366.74L349.45 378.34M340.75 366.74L348.49 378.34M333.02 358.04L339.79 358.04M345.59 358.04L351.38 358.04M333.02 378.34L339.79 378.34M345.59 378.34L351.38 378.34"/>
<path d="M423.17 187.06L424.71 186.28M424.71 186.28L427.03 183.96M427.03 183.96L427.03 200.2"/>
<path d="M169.27 184.49L177.78 184.49M177.78 184.49L173.14 190.68M173.14 190.68L175.46 190.68M175.46 190.68L177 191.45M177 191.45L177.78 192.22M177.78 192.22L178.55 194.54M178.55 194.54L178.55 196.09M178.55 196.09L177.78 198.41M177.78 198.41L176.23 199.95M176.23 199.95L173.91 200.73M173.91 200.73L171.59 200.73M171.59 200.73L169.27 199.95M169.27 199.95L168.5 199.18M168.5 199.18L167.73 197.63"/>
<path d="M428.34 211.65L420.6 222.47M420.6 222.47L432.2 222.47M428.34 211.65L428.34 227.88"/>
<path d="M177.84 213.51L177.07 211.96M177.07 211.96L174.75 211.19M174.75 211.19L173.2 211.19M173.2 211.19L170.89 211.96M170.89 211.96L169.34 214.28M169.34 214.28L168.57 218.14M168.57 218.14L168.57 222.01M168.57 222.01L169.34 225.1M169.34 225.1L170.89 226.65M170.89 226.65L173.2 227.42M173.2 227.42L173.98 227.42M173.98 227.42L176.3 226.65M176.3 226.65L177.84 225.1M177.84 225.1L178.62 222.78M178.62 222.78L178.62 222.01M178.62 222.01L177.84 219.69M177.84 219.69L176.3 218.14M176.3 218.14L173.98 217.37M173.98 217.37L173.2 217.37M173.2 217.37L170.89 218.14M170.89 218.14L169.34 219.69M169.34 219.69L168.57 222.01"/>
<path d="M278.68 335.4L272.26 335.4M270.9 335.4L270.68 335.4M269.33 335.4L263.92 335.4M262.57 335.4L262.34 335.4M260.99 335.4L255.58 335.4M254.23 335.4L254.01 335.4M252.65 335.4L246.23 335.4"/>
<path d="M359.77 75.32L353.35 75.32M352 75.32L351.77 75.32M350.42 75.32L345.01 75.32M343.66 75.32L343.43 75.32M342.08 75.32L336.68 75.32M335.32 75.32L335.1 75.32M333.75 75.32L327.32 75.32"/>
<path d="M411.86 260.29L411.86 261.68M411.86 261.97L411.86 262.02M411.86 262.32L411.86 263.48M411.86 263.78L411.86 263.83M411.86 264.12L411.86 265.29M411.86 265.58L411.86 265.63M411.86 265.92L411.86 267.31"/>
<path d="M220.21 241.3L220.21 227.07M220.21 224.08L220.21 223.58M220.21 220.58L220.21 208.6M220.21 205.6L220.21 205.1M220.21 202.11L220.21 190.12M220.21 187.13L220.21 186.63M220.21 183.63L220.21 169.4"/>
<path d="M327.33 335.4L333.75 335.4M335.1 335.4L335.33 335.4M336.68 335.4L342.09 335.4M343.44 335.4L343.66 335.4M345.02 335.4L350.42 335.4M351.77 335.4L352 335.4M353.35 335.4L359.77 335.4"/>
<path d="M246.24 75.32L252.66 75.32M254.01 75.32L254.24 75.32M255.59 75.32L260.99 75.32M262.35 75.32L262.57 75.32M263.92 75.32L269.33 75.32M270.68 75.32L270.91 75.32M272.26 75.32L278.68 75.32"/>
<path d="M284.74 333.2L285.13 334.67M285.13 334.67L286.2 335.74M286.2 335.74L287.66 336.13"/>
<path d="M318.35 336.13L287.66 336.13"/>
<path d="M318.35 336.13L320.41 335.27M320.41 335.27L321.27 333.2"/>
<path d="M284.74 333.2L321.27 333.2"/>
<path d="M287.66 74.59L318.35 74.59"/>
<path d="M287.66 74.59L286.2 74.98M286.2 74.98L285.13 76.05M285.13 76.05L284.74 77.51"/>
<path d="M321.27 77.51L284.74 77.51"/>
<path d="M321.27 77.51L320.41 75.44M320.41 75.44L318.35 74.59"/>
<path d="M321.27 327.36L284.74 327.36"/>
<path d="M284.74 327.36L284.74 333.2"/>
<path d="M321.27 327.36L321.27 333.2"/>
<path d="M357.07 339.05L330.04 339.05"/>
<path d="M365.1 339.05L357.07 339.05"/>
<path d="M284.74 318.59L284.74 327.36"/>
<path d="M321.27 318.59L321.27 327.36"/>
<path d="M275.97 339.05L248.94 339.05"/>
<path d="M248.94 339.05L240.91 339.05"/>
<path d="M330.04 71.66L357.07 71.66"/>
<path d="M357.07 71.66L365.1 71.66"/>
<path d="M321.27 77.51L321.27 83.35"/>
<path d="M284.74 77.51L284.74 83.35"/>
<path d="M321.27 83.35L284.74 83.35"/>
<path d="M284.74 83.35L284.74 92.12"/>
<path d="M321.27 83.35L321.27 92.12"/>
<path d="M248.94 71.66L275.97 71.66"/>
<path d="M240.91 71.66L248.94 71.66"/>
<path d="M416.24 260.88L416.24 266.72"/>
<path d="M411.86 189.28L400.17 189.28"/>
<path d="M407.48 221.43L407.48 189.28"/>
<path d="M400.17 221.43L411.86 221.43"/>
<path d="M416.24 225.81L416.24 233.12"/>
<path d="M416.24 225.81L415.65 223.62M415.65 223.62L414.05 222.02M414.05 222.02L411.86 221.43"/>
<path d="M411.86 189.28L411.86 221.43"/>
<path d="M411.86 189.28L414.96 188M414.96 188L416.24 184.9"/>
<path d="M416.24 177.59L416.24 184.9"/>
<path d="M237.25 335.4L237.74 337.22M237.74 337.22L239.08 338.56M239.08 338.56L240.91 339.05"/>
<path d="M275.97 339.05L277.43 338.66M277.43 338.66L278.5 337.59M278.5 337.59L278.9 336.13"/>
<path d="M278.9 335.4L278.9 336.13"/>
<path d="M278.9 335.4L275.97 335.4"/>
<path d="M275.97 335.4L275.97 339.05"/>
<path d="M327.11 335.4L330.04 335.4"/>
<path d="M327.11 336.13L327.11 335.4"/>
<path d="M327.11 336.13L327.97 338.19M327.97 338.19L330.04 339.05"/>
<path d="M330.04 335.4L330.04 339.05"/>
<path d="M365.1 339.05L367.69 337.98M367.69 337.98L368.76 335.4"/>
<path d="M357.07 339.05L357.07 335.4"/>
<path d="M368.76 335.4L357.07 335.4"/>
<path d="M330.04 335.4L357.07 335.4"/>
<path d="M327.11 335.4L327.11 318.59"/>
<path d="M330.04 318.59L330.04 335.4"/>
<path d="M331.5 318.59L333.32 318.1M333.32 318.1L334.66 316.77M334.66 316.77L335.15 314.94"/>
<path d="M274.51 312.75L272.2 313.57M272.2 313.57L270.93 315.67"/>
<path d="M270.86 314.94L271.93 317.52M271.93 317.52L274.51 318.59"/>
<path d="M331.5 318.59L274.51 318.59"/>
<path d="M335.08 315.67L333.81 313.57M333.81 313.57L331.5 312.75"/>
<path d="M274.51 312.75L331.5 312.75"/>
<path d="M275.97 335.4L275.97 318.59"/>
<path d="M278.9 318.59L278.9 335.4"/>
<path d="M248.94 335.4L275.97 335.4"/>
<path d="M248.94 339.05L248.94 335.4"/>
<path d="M237.25 335.4L248.94 335.4"/>
<path d="M195.61 184.9L205.84 184.9"/>
<path d="M192.69 189.03L194.81 187.43M194.81 187.43L195.61 184.9"/>
<path d="M189.77 184.9L190.35 187.09M190.35 187.09L191.96 188.7M191.96 188.7L194.15 189.28"/>
<path d="M205.84 189.28L194.15 189.28"/>
<path d="M195.61 225.81L195.61 233.12"/>
<path d="M195.61 225.81L194.81 223.28M194.81 223.28L192.69 221.68"/>
<path d="M194.15 221.43L191.05 222.71M191.05 222.71L189.77 225.81"/>
<path d="M189.77 233.12L189.77 225.81"/>
<path d="M189.77 233.12L191.05 236.22M191.05 236.22L194.15 237.5"/>
<path d="M192.69 237.25L194.81 235.65M194.81 235.65L195.61 233.12"/>
<path d="M205.84 225.81L195.61 225.81"/>
<path d="M194.15 221.43L205.84 221.43"/>
<path d="M195.61 177.59L195.61 184.9"/>
<path d="M195.61 177.59L194.81 175.06M194.81 175.06L192.69 173.46"/>
<path d="M194.15 173.21L191.96 173.8M191.96 173.8L190.35 175.4M190.35 175.4L189.77 177.59"/>
<path d="M189.77 184.9L189.77 177.59"/>
<path d="M205.84 225.81L205.84 184.9"/>
<path d="M240.91 71.66L239.08 72.15M239.08 72.15L237.74 73.49M237.74 73.49L237.25 75.32"/>
<path d="M237.25 75.32L248.94 75.32"/>
<path d="M248.94 75.32L248.94 71.66"/>
<path d="M275.97 75.32L248.94 75.32"/>
<path d="M275.97 71.66L275.97 75.32"/>
<path d="M267.94 92.12L265.75 92.71M265.75 92.71L264.14 94.31M264.14 94.31L263.55 96.5"/>
<path d="M338.07 97.96L340.6 97.16M340.6 97.16L342.2 95.04"/>
<path d="M342.46 96.5L341.87 94.31M341.87 94.31L340.26 92.71M340.26 92.71L338.07 92.12"/>
<path d="M331.5 92.12L338.07 92.12"/>
<path d="M274.51 92.12L331.5 92.12"/>
<path d="M267.94 92.12L274.51 92.12"/>
<path d="M263.8 95.04L265.41 97.16M265.41 97.16L267.94 97.96"/>
<path d="M274.51 97.96L267.94 97.96"/>
<path d="M331.5 97.96L274.51 97.96"/>
<path d="M338.07 97.96L331.5 97.96"/>
<path d="M330.04 75.32L330.04 71.66"/>
<path d="M357.07 75.32L330.04 75.32"/>
<path d="M357.07 75.32L357.07 71.66"/>
<path d="M368.76 75.32L357.07 75.32"/>
<path d="M368.76 75.32L367.69 72.73M367.69 72.73L365.1 71.66"/>
<path d="M330.04 71.66L327.97 72.52M327.97 72.52L327.11 74.59"/>
<path d="M327.11 75.32L327.11 74.59"/>
<path d="M327.11 75.32L330.04 75.32"/>
<path d="M330.04 75.32L330.04 92.12"/>
<path d="M327.11 92.12L327.11 75.32"/>
<path d="M278.9 74.59L278.5 73.12M278.5 73.12L277.43 72.05M277.43 72.05L275.97 71.66"/>
<path d="M275.97 75.32L278.9 75.32"/>
<path d="M278.9 74.59L278.9 75.32"/>
<path d="M278.9 75.32L278.9 92.12"/>
<path d="M275.97 92.12L275.97 75.32"/>
<path d="M416.24 260.88L415.65 258.69M415.65 258.69L414.05 257.08M414.05 257.08L411.86 256.5"/>
<path d="M411.86 260.88L411.86 256.5"/>
<path d="M411.86 260.88L416.24 260.88"/>
<path d="M411.86 266.72L411.86 260.88"/>
<path d="M416.24 266.72L411.86 266.72"/>
<path d="M411.86 271.11L414.96 269.82M414.96 269.82L416.24 266.72"/>
<path d="M411.86 271.11L411.86 266.72"/>
<path d="M410.4 184.9L410.4 177.59"/>
<path d="M410.4 184.9L411.2 187.43M411.2 187.43L413.32 189.03"/>
<path d="M416.24 177.59L415.65 175.4M415.65 175.4L414.05 173.8M414.05 173.8L411.86 173.21"/>
<path d="M413.32 173.46L411.2 175.06M411.2 175.06L410.4 177.59"/>
<path d="M400.17 184.9L410.4 184.9"/>
<path d="M400.17 184.9L400.17 225.81"/>
<path d="M410.4 225.81L400.17 225.81"/>
<path d="M413.32 221.68L411.2 223.28M411.2 223.28L410.4 225.81"/>
<path d="M410.4 233.12L410.4 225.81"/>
<path d="M410.4 233.12L411.2 235.65M411.2 235.65L413.32 237.25"/>
<path d="M411.86 237.5L414.96 236.22M414.96 236.22L416.24 233.12"/>
<path d="M237.25 298.14L237.25 335.4"/>
<path d="M368.76 298.14L368.76 335.4"/>
<path d="M357.07 298.14L357.07 335.4"/>
<path d="M335.15 298.14L335.15 314.94"/>
<path d="M331.5 312.75L331.5 298.14"/>
<path d="M274.51 298.14L274.51 312.75"/>
<path d="M270.86 314.94L270.86 298.14"/>
<path d="M248.94 298.14L248.94 335.4"/>
<path d="M210.22 283.53L212.18 290.83M212.18 290.83L217.53 296.18M217.53 296.18L224.83 298.14"/>
<path d="M210.22 237.5L194.15 237.5"/>
<path d="M195.61 233.12L210.22 233.12"/>
<path d="M210.22 177.59L195.61 177.59"/>
<path d="M194.15 173.21L210.22 173.21"/>
<path d="M237.25 112.57L237.25 75.32"/>
<path d="M248.94 112.57L248.94 75.32"/>
<path d="M263.55 112.57L263.55 96.5"/>
<path d="M267.94 97.96L267.94 112.57"/>
<path d="M338.07 112.57L338.07 97.96"/>
<path d="M342.46 96.5L342.46 112.57"/>
<path d="M357.07 112.57L357.07 75.32"/>
<path d="M368.76 112.57L368.76 75.32"/>
<path d="M224.83 112.57L217.53 114.53M217.53 114.53L212.18 119.88M212.18 119.88L210.22 127.19"/>
<path d="M395.79 256.5L411.86 256.5"/>
<path d="M411.86 260.88L395.79 260.88"/>
<path d="M395.79 266.72L411.86 266.72"/>
<path d="M411.86 271.11L395.79 271.11"/>
<path d="M410.4 177.59L395.79 177.59"/>
<path d="M395.79 173.21L411.86 173.21"/>
<path d="M395.79 233.12L410.4 233.12"/>
<path d="M411.86 237.5L395.79 237.5"/>
<path d="M395.79 127.19L393.83 119.88M393.83 119.88L388.48 114.53M388.48 114.53L381.17 112.57"/>
<path d="M381.17 298.14L388.48 296.18M388.48 296.18L393.83 290.83M393.83 290.83L395.79 283.53"/>
<path d="M358.96 298.14L327.11 298.14"/>
<path d="M327.11 298.14L278.9 298.14"/>
<path d="M278.9 298.14L247.05 298.14"/>
<path d="M224.83 298.14L247.05 298.14"/>
<path d="M358.96 298.14L381.17 298.14"/>
<path d="M211.32 258.12L216.88 266.77M216.88 266.77L223.26 274.85"/>
<path d="M211.32 258.12L210.9 258.37M210.9 258.37L210.7 258.61M210.7 258.61L210.42 259.31M210.42 259.31L210.22 261.31"/>
<path d="M210.22 261.31L210.22 283.53"/>
<path d="M247.05 298.14L249.08 297.92M249.08 297.92L249.42 297.8M249.42 297.8L249.96 297.46M249.96 297.46L250.24 297.04"/>
<path d="M233.51 285.1L241.59 291.48M241.59 291.48L250.24 297.04"/>
<path d="M220.45 280.6L222.16 275.91M222.16 275.91L226.49 273.41M226.49 273.41L231.41 274.28M231.41 274.28L234.62 278.11M234.62 278.11L234.62 283.1M234.62 283.1L231.41 286.93M231.41 286.93L226.49 287.8M226.49 287.8L222.16 285.3M222.16 285.3L220.45 280.6"/>
<path d="M210.22 261.31L210.22 149.4"/>
<path d="M210.22 127.19L210.22 149.4"/>
<path d="M250.24 113.68L241.59 119.23M241.59 119.23L233.51 125.61"/>
<path d="M250.24 113.68L250 113.25M250 113.25L249.75 113.05M249.75 113.05L249.05 112.77M249.05 112.77L247.05 112.57"/>
<path d="M247.05 112.57L224.83 112.57"/>
<path d="M210.22 149.4L210.44 151.43M210.44 151.43L210.57 151.77M210.57 151.77L210.9 152.31M210.9 152.31L211.32 152.59"/>
<path d="M223.26 135.86L216.88 143.94M216.88 143.94L211.32 152.59"/>
<path d="M227.74 122.8L226.13 123M226.13 123L223.55 124.13M223.55 124.13L222.12 125.52M222.12 125.52L221.06 127.31M221.06 127.31L220.44 129.76M220.44 129.76L220.8 132.41M220.8 132.41L221.78 134.3M221.78 134.3L223.26 135.86"/>
<path d="M227.77 137.41L232.06 136.01M232.06 136.01L234.71 132.35M234.71 132.35L234.7 127.83M234.7 127.83L232.04 124.19M232.04 124.19L227.74 122.8"/>
<path d="M247.05 112.57L278.9 112.57"/>
<path d="M278.9 112.57L327.11 112.57"/>
<path d="M327.11 112.57L358.96 112.57"/>
<path d="M381.17 112.57L358.96 112.57"/>
<path d="M394.69 152.59L389.13 143.94M389.13 143.94L382.75 135.86"/>
<path d="M394.69 152.59L395.11 152.35M395.11 152.35L395.31 152.1M395.31 152.1L395.59 151.4M395.59 151.4L395.79 149.4"/>
<path d="M395.79 149.4L395.79 127.19"/>
<path d="M358.96 112.57L356.93 112.8M356.93 112.8L356.59 112.92M356.59 112.92L356.05 113.25M356.05 113.25L355.77 113.68"/>
<path d="M372.5 125.61L364.42 119.23M364.42 119.23L355.77 113.68"/>
<path d="M378.27 122.8L373.97 124.19M373.97 124.19L371.31 127.84M371.31 127.84L371.3 132.36M371.3 132.36L373.96 136.02M373.96 136.02L378.25 137.41"/>
<path d="M382.75 135.86L384.62 133.7M384.62 133.7L385.37 131.92M385.37 131.92L385.59 130.56M385.59 130.56L385.34 128.41M385.34 128.41L384.51 126.44M384.51 126.44L383.29 124.83M383.29 124.83L381.63 123.63M381.63 123.63L379.55 122.93M379.55 122.93L378.27 122.8"/>
<path d="M395.79 149.4L395.79 261.31"/>
<path d="M395.79 283.53L395.79 261.31"/>
<path d="M355.77 297.04L364.42 291.48M364.42 291.48L372.5 285.1"/>
<path d="M355.77 297.04L356.01 297.46M356.01 297.46L356.26 297.66M356.26 297.66L356.96 297.94M356.96 297.94L358.96 298.14"/>
<path d="M395.79 261.31L395.56 259.28M395.56 259.28L395.44 258.94M395.44 258.94L395.11 258.4M395.11 258.4L394.69 258.12"/>
<path d="M382.75 274.85L389.13 266.77M389.13 266.77L394.69 258.12"/>
<path d="M378.25 287.91L379.87 287.72M379.87 287.72L382.45 286.58M382.45 286.58L383.88 285.2M383.88 285.2L384.94 283.41M384.94 283.41L385.57 280.96M385.57 280.96L385.21 278.31M385.21 278.31L384.23 276.41M384.23 276.41L382.75 274.85"/>
<path d="M382.75 274.85L378.47 273.3M378.47 273.3L374.1 274.59M374.1 274.59L371.35 278.22M371.35 278.22L371.28 282.78M371.28 282.78L373.92 286.49M373.92 286.49L378.25 287.91"/>
<path d="M354.88 293.75L371.08 281.98"/>
<path d="M355.77 297.04L354.88 293.75"/>
<path d="M251.13 293.75L278.9 293.75"/>
<path d="M251.13 293.75L250.24 297.04"/>
<path d="M327.11 293.75L354.88 293.75"/>
<path d="M278.9 293.75L327.11 293.75"/>
<path d="M234.93 281.98L251.13 293.75"/>
<path d="M214.61 257.23L226.38 273.43"/>
<path d="M214.61 257.23L211.32 258.12"/>
<path d="M214.61 153.48L214.61 257.23"/>
<path d="M214.61 153.48L211.32 152.59"/>
<path d="M223.26 135.86L227.76 137.41"/>
<path d="M226.38 137.28L214.61 153.48"/>
<path d="M251.13 116.96L234.93 128.73"/>
<path d="M251.13 116.96L250.24 113.68"/>
<path d="M354.88 116.96L327.11 116.96"/>
<path d="M355.77 113.68L354.88 116.96"/>
<path d="M278.9 116.96L251.13 116.96"/>
<path d="M327.11 116.96L278.9 116.96"/>
<path d="M371.08 128.73L354.88 116.96"/>
<path d="M378.25 137.41L382.75 135.86"/>
<path d="M391.4 153.48L379.63 137.28"/>
<path d="M394.69 152.59L391.4 153.48"/>
<path d="M391.4 257.23L391.4 153.48"/>
<path d="M394.69 258.12L391.4 257.23"/>
<path d="M379.63 273.43L391.4 257.23"/>
<path d="M385.8 175.4L384 161.73M384 161.73L378.72 148.98M378.72 148.98L370.32 138.04M370.32 138.04L359.38 129.64M359.38 129.64L346.63 124.37M346.63 124.37L332.96 122.57"/>
<path d="M385.8 175.4L385.8 235.31"/>
<path d="M332.96 288.15L346.63 286.35M346.63 286.35L359.38 281.07M359.38 281.07L370.32 272.67M370.32 272.67L378.72 261.73M378.72 261.73L384 248.98M384 248.98L385.8 235.31"/>
<path d="M332.96 288.15L273.05 288.15"/>
<path d="M220.21 235.31L222.01 248.98M222.01 248.98L227.29 261.73M227.29 261.73L235.69 272.67M235.69 272.67L246.63 281.07M246.63 281.07L259.38 286.35M259.38 286.35L273.05 288.15"/>
<path d="M220.21 235.31L220.21 175.4"/>
<path d="M273.05 122.57L259.38 124.37M259.38 124.37L246.63 129.64M246.63 129.64L235.69 138.04M235.69 138.04L227.29 148.98M227.29 148.98L222.01 161.73M222.01 161.73L220.21 175.4"/>
<path d="M273.05 122.57L332.96 122.57"/>
<path d="M332.96 126.72L332.96 122.57"/>
<path d="M381.64 175.4L379.98 162.8M379.98 162.8L375.12 151.06M375.12 151.06L367.38 140.98M367.38 140.98L357.3 133.25M357.3 133.25L345.56 128.38M345.56 128.38L332.96 126.72"/>
<path d="M381.64 175.4L385.8 175.4"/>
<path d="M381.64 235.31L381.64 175.4"/>
<path d="M385.8 235.31L381.64 235.31"/>
<path d="M332.96 288.15L332.96 283.99"/>
<path d="M332.96 283.99L345.56 282.33M345.56 282.33L357.3 277.47M357.3 277.47L367.38 269.73M367.38 269.73L375.12 259.65M375.12 259.65L379.98 247.91M379.98 247.91L381.64 235.31"/>
<path d="M273.05 288.15L273.05 283.99"/>
<path d="M273.05 283.99L332.96 283.99"/>
<path d="M220.21 235.31L224.37 235.31"/>
<path d="M224.37 235.31L226.03 247.91M226.03 247.91L230.89 259.65M230.89 259.65L238.63 269.73M238.63 269.73L248.71 277.47M248.71 277.47L260.45 282.33M260.45 282.33L273.05 283.99"/>
<path d="M224.37 175.4L224.37 235.31"/>
<path d="M224.37 175.4L220.21 175.4"/>
<path d="M273.05 126.72L260.45 128.38M260.45 128.38L248.71 133.25M248.71 133.25L238.63 140.98M238.63 140.98L230.89 151.06M230.89 151.06L226.03 162.8M226.03 162.8L224.37 175.4"/>
<path d="M273.05 122.57L273.05 126.72"/>
<path d="M332.96 126.72L273.05 126.72"/>
<path d="M378.48 175.4L381.64 175.4"/>
<path d="M378.48 175.4L376.93 163.62M376.93 163.62L372.38 152.64M372.38 152.64L365.15 143.22M365.15 143.22L355.72 135.98M355.72 135.98L344.74 131.43M344.74 131.43L332.96 129.88"/>
<path d="M332.96 129.88L332.96 126.72"/>
<path d="M378.48 175.4L378.48 235.31"/>
<path d="M378.48 235.31L381.64 235.31"/>
<path d="M332.96 280.83L332.96 283.99"/>
<path d="M332.96 280.83L344.74 279.28M344.74 279.28L355.72 274.73M355.72 274.73L365.15 267.5M365.15 267.5L372.38 258.07M372.38 258.07L376.93 247.09M376.93 247.09L378.48 235.31"/>
<path d="M332.96 280.83L273.05 280.83"/>
<path d="M273.05 283.99L273.05 280.83"/>
<path d="M224.37 235.31L227.53 235.31"/>
<path d="M227.53 235.31L229.08 247.09M229.08 247.09L233.63 258.07M233.63 258.07L240.86 267.5M240.86 267.5L250.29 274.73M250.29 274.73L261.27 279.28M261.27 279.28L273.05 280.83"/>
<path d="M227.53 235.31L227.53 175.4"/>
<path d="M224.37 175.4L227.53 175.4"/>
<path d="M273.05 126.72L273.05 129.88"/>
<path d="M273.05 129.88L261.27 131.43M261.27 131.43L250.29 135.98M250.29 135.98L240.86 143.22M240.86 143.22L233.63 152.64M233.63 152.64L229.08 163.62M229.08 163.62L227.53 175.4"/>
<path d="M273.05 129.88L332.96 129.88"/>
<path d="M332.96 130.11L332.96 129.88"/>
<path d="M378.25 175.4L376.71 163.68M376.71 163.68L372.18 152.76M372.18 152.76L364.99 143.37M364.99 143.37L355.61 136.18M355.61 136.18L344.68 131.65M344.68 131.65L332.96 130.11"/>
<path d="M378.25 175.4L378.48 175.4"/>
<path d="M378.25 235.31L378.25 175.4"/>
<path d="M378.25 235.31L378.48 235.31"/>
<path d="M332.96 280.6L344.68 279.06M344.68 279.06L355.61 274.54M355.61 274.54L364.99 267.34M364.99 267.34L372.18 257.96M372.18 257.96L376.71 247.03M376.71 247.03L378.25 235.31"/>
<path d="M332.96 280.6L332.96 280.83"/>
<path d="M273.05 280.6L273.05 280.83"/>
<path d="M273.05 280.6L332.96 280.6"/>
<path d="M227.53 235.31L227.76 235.31"/>
<path d="M227.76 235.31L229.3 247.03M229.3 247.03L233.82 257.96M233.82 257.96L241.02 267.34M241.02 267.34L250.4 274.54M250.4 274.54L261.33 279.06M261.33 279.06L273.05 280.6"/>
<path d="M227.53 175.4L227.76 175.4"/>
<path d="M227.76 175.4L227.76 235.31"/>
<path d="M273.05 129.88L273.05 130.11"/>
<path d="M273.05 130.11L261.33 131.65M261.33 131.65L250.4 136.18M250.4 136.18L241.02 143.37M241.02 143.37L233.82 152.76M233.82 152.76L229.3 163.68M229.3 163.68L227.76 175.4"/>
<path d="M332.96 130.11L273.05 130.11"/>
<path d="M297.53 189.65L297.53 194.76"/>
<path d="M297.53 194.76L308.48 194.76"/>
<path d="M308.48 194.76L308.48 189.65"/>
<path d="M308.48 189.65L297.53 189.65"/>
<path d="M308.48 221.06L308.48 215.95"/>
<path d="M308.48 215.95L297.53 215.95"/>
<path d="M297.53 215.95L297.53 221.06"/>
<path d="M297.53 221.06L308.48 221.06"/>
<path d="M340.63 194.76L340.63 189.65"/>
<path d="M340.63 189.65L329.67 189.65"/>
<path d="M329.67 189.65L329.67 194.76"/>
<path d="M329.67 194.76L340.63 194.76"/>
<path d="M340.63 221.06L340.63 215.95"/>
<path d="M340.63 215.95L329.67 215.95"/>
<path d="M329.67 215.95L329.67 221.06"/>
<path d="M329.67 221.06L340.63 221.06"/>
<path d="M265.38 189.65L265.38 194.76"/>
<path d="M265.38 194.76L276.34 194.76"/>
<path d="M276.34 194.76L276.34 189.65"/>
<path d="M276.34 189.65L265.38 189.65"/>
<path d="M265.38 215.95L265.38 221.06"/>
<path d="M265.38 221.06L276.34 221.06"/>
<path d="M276.34 221.06L276.34 215.95"/>
<path d="M276.34 215.95L265.38 215.95"/>
<path d="M350.86 185.05L350.86 225.67"/>
<path d="M255.15 225.67L255.15 185.05"/>
<path d="M352.68 185.05L352.68 225.67"/>
<path d="M253.33 225.67L253.33 185.05"/>
<path d="M311.77 188.04L308.48 189.65"/>
<path d="M294.24 188.04L311.77 188.04"/>
<path d="M297.53 189.65L294.24 188.04"/>
<path d="M294.24 196.37L294.24 188.04"/>
<path d="M294.24 196.37L297.53 194.76"/>
<path d="M311.77 196.37L294.24 196.37"/>
<path d="M308.48 194.76L311.77 196.37"/>
<path d="M311.77 188.04L311.77 196.37"/>
<path d="M294.24 222.67L297.53 221.06"/>
<path d="M311.77 222.67L294.24 222.67"/>
<path d="M308.48 221.06L311.77 222.67"/>
<path d="M311.77 214.34L311.77 222.67"/>
<path d="M311.77 214.34L308.48 215.95"/>
<path d="M294.24 214.34L311.77 214.34"/>
<path d="M297.53 215.95L294.24 214.34"/>
<path d="M294.24 222.67L294.24 214.34"/>
<path d="M326.38 196.37L329.67 194.76"/>
<path d="M343.92 196.37L326.38 196.37"/>
<path d="M340.63 194.76L343.92 196.37"/>
<path d="M343.92 188.04L343.92 196.37"/>
<path d="M343.92 188.04L340.63 189.65"/>
<path d="M326.38 188.04L343.92 188.04"/>
<path d="M329.67 189.65L326.38 188.04"/>
<path d="M326.38 196.37L326.38 188.04"/>
<path d="M326.38 222.67L329.67 221.06"/>
<path d="M343.92 222.67L326.38 222.67"/>
<path d="M340.63 221.06L343.92 222.67"/>
<path d="M343.92 214.34L343.92 222.67"/>
<path d="M343.92 214.34L340.63 215.95"/>
<path d="M326.38 214.34L343.92 214.34"/>
<path d="M329.67 215.95L326.38 214.34"/>
<path d="M326.38 222.67L326.38 214.34"/>
<path d="M279.63 188.04L276.34 189.65"/>
<path d="M262.09 188.04L279.63 188.04"/>
<path d="M265.38 189.65L262.09 188.04"/>
<path d="M262.09 196.37L262.09 188.04"/>
<path d="M262.09 196.37L265.38 194.76"/>
<path d="M279.63 196.37L262.09 196.37"/>
<path d="M276.34 194.76L279.63 196.37"/>
<path d="M279.63 188.04L279.63 196.37"/>
<path d="M279.63 214.34L276.34 215.95"/>
<path d="M262.09 214.34L279.63 214.34"/>
<path d="M265.38 215.95L262.09 214.34"/>
<path d="M262.09 222.67L262.09 214.34"/>
<path d="M262.09 222.67L265.38 221.06"/>
<path d="M279.63 222.67L262.09 222.67"/>
<path d="M276.34 221.06L279.63 222.67"/>
<path d="M279.63 214.34L279.63 222.67"/>
<path d="M349.03 185.05L352.68 185.05"/>
<path d="M346.47 185.05L349.03 185.05"/>
<path d="M346.47 225.67L346.47 185.05"/>
<path d="M346.47 225.67L349.03 225.67"/>
<path d="M349.03 225.67L352.68 225.67"/>
<path d="M253.33 225.67L256.98 225.67"/>
<path d="M256.98 225.67L259.54 225.67"/>
<path d="M259.54 185.05L259.54 225.67"/>
<path d="M256.98 185.05L259.54 185.05"/>
<path d="M253.33 185.05L256.98 185.05"/>
<path d="M311.04 148.37L311.04 147.36"/>
<path d="M311.04 147.36L294.97 147.36"/>
<path d="M294.97 147.36L294.97 148.37"/>
<path d="M281.82 131.57L322 131.57"/>
<path d="M363.64 232.39L363.64 222.16"/>
<path d="M363.64 188.55L363.64 178.33"/>
<path d="M311.04 263.36L294.97 263.36"/>
<path d="M311.04 263.36L311.04 262.34"/>
<path d="M294.97 262.34L294.97 263.36"/>
<path d="M281.82 279.14L322 279.14"/>
<path d="M322 131.57L322 141.07"/>
<path d="M322 141.07L332.96 141.07"/>
<path d="M367.29 175.4L365.61 164.79M365.61 164.79L360.74 155.22M360.74 155.22L353.14 147.62M353.14 147.62L343.57 142.75M343.57 142.75L332.96 141.07"/>
<path d="M367.29 175.4L367.29 235.31"/>
<path d="M332.96 269.65L343.57 267.97M343.57 267.97L353.14 263.09M353.14 263.09L360.74 255.49M360.74 255.49L365.61 245.92M365.61 245.92L367.29 235.31"/>
<path d="M332.96 269.65L322 269.65"/>
<path d="M322 279.14L322 269.65"/>
<path d="M281.82 269.65L281.82 279.14"/>
<path d="M281.82 269.65L273.05 269.65"/>
<path d="M238.72 235.31L240.4 245.92M240.4 245.92L245.27 255.49M245.27 255.49L252.87 263.09M252.87 263.09L262.44 267.97M262.44 267.97L273.05 269.65"/>
<path d="M238.72 235.31L238.72 175.4"/>
<path d="M273.05 141.07L262.44 142.75M262.44 142.75L252.87 147.62M252.87 147.62L245.27 155.22M245.27 155.22L240.4 164.79M240.4 164.79L238.72 175.4"/>
<path d="M273.05 141.07L281.82 141.07"/>
<path d="M281.82 141.07L281.82 131.57"/>
<path d="M243.8 211.2L244.47 211.2"/>
<path d="M244.47 199.51L243.8 199.51"/>
<path d="M243.8 211.2L243.8 199.51"/>
<path d="M324.48 250.48L324.48 233.48"/>
<path d="M325.94 251.38L325.07 251.2M325.07 251.2L324.74 250.99M324.74 250.99L324.55 250.74M324.55 250.74L324.48 250.48"/>
<path d="M325.94 233.48L325.94 251.38"/>
<path d="M324.48 257.23L324.48 250.48"/>
<path d="M324.48 257.23L324.68 257.96M324.68 257.96L325.21 258.49M325.21 258.49L325.94 258.69"/>
<path d="M325.94 251.38L325.94 258.69"/>
<path d="M325.94 251.38L327.11 251.38"/>
<path d="M327.11 258.69L325.94 258.69"/>
<path d="M327.11 258.69L327.11 251.38"/>
<path d="M356.34 229.46L349.03 229.46"/>
<path d="M327.11 251.38L335.5 249.71M335.5 249.71L342.61 244.96M342.61 244.96L347.36 237.85M347.36 237.85L349.03 229.46"/>
<path d="M327.11 258.69L336.14 257.26M336.14 257.26L344.29 253.11M344.29 253.11L350.75 246.64M350.75 246.64L354.91 238.49M354.91 238.49L356.34 229.46"/>
<path d="M349.03 185.05L349.03 181.25"/>
<path d="M349.03 229.46L349.03 225.67"/>
<path d="M356.34 181.25L356.34 229.46"/>
<path d="M356.34 181.25L349.03 181.25"/>
<path d="M327.11 152.02L327.11 159.33"/>
<path d="M349.03 181.25L347.36 172.86M347.36 172.86L342.61 165.75M342.61 165.75L335.5 161M335.5 161L327.11 159.33"/>
<path d="M356.34 181.25L354.91 172.22M354.91 172.22L350.75 164.07M350.75 164.07L344.29 157.61M344.29 157.61L336.14 153.46M336.14 153.46L327.11 152.02"/>
<path d="M292.05 152.02L292.05 153.49"/>
<path d="M278.9 152.02L292.05 152.02"/>
<path d="M278.9 152.02L278.9 159.33"/>
<path d="M327.11 159.33L278.9 159.33"/>
<path d="M313.96 152.02L327.11 152.02"/>
<path d="M313.96 153.49L313.96 152.02"/>
<path d="M313.96 153.49L292.05 153.49"/>
<path d="M249.67 181.25L256.98 181.25"/>
<path d="M278.9 159.33L270.51 161M270.51 161L263.4 165.75M263.4 165.75L258.65 172.86M258.65 172.86L256.98 181.25"/>
<path d="M278.9 152.02L269.87 153.46M269.87 153.46L261.72 157.61M261.72 157.61L255.25 164.07M255.25 164.07L251.1 172.22M251.1 172.22L249.67 181.25"/>
<path d="M256.98 225.67L256.98 229.46"/>
<path d="M256.98 181.25L256.98 185.05"/>
<path d="M249.67 229.46L249.67 181.25"/>
<path d="M249.67 229.46L256.98 229.46"/>
<path d="M278.9 258.69L278.9 251.38"/>
<path d="M256.98 229.46L258.65 237.85M258.65 237.85L263.4 244.96M263.4 244.96L270.51 249.71M270.51 249.71L278.9 251.38"/>
<path d="M249.67 229.46L251.1 238.49M251.1 238.49L255.25 246.64M255.25 246.64L261.72 253.11M261.72 253.11L269.87 257.26M269.87 257.26L278.9 258.69"/>
<path d="M280.06 258.69L278.9 258.69"/>
<path d="M280.06 258.69L280.06 251.38"/>
<path d="M278.9 251.38L280.06 251.38"/>
<path d="M280.06 258.69L280.8 258.49M280.8 258.49L281.33 257.96M281.33 257.96L281.53 257.23"/>
<path d="M281.53 250.48L281.53 257.23"/>
<path d="M281.53 250.48L281.46 250.74M281.46 250.74L281.27 250.99M281.27 250.99L280.93 251.21M280.93 251.21L280.06 251.38"/>
<path d="M280.06 251.38L280.06 233.48"/>
<path d="M281.53 233.48L281.53 250.48"/>
<path d="M292.34 233.48L280.06 233.48"/>
<path d="M292.34 239.33L292.34 233.48"/>
<path d="M292.34 239.33L313.67 239.33"/>
<path d="M313.67 233.48L313.67 239.33"/>
<path d="M325.94 233.48L313.67 233.48"/>
<path d="M273.05 143.99L263.34 145.53M263.34 145.53L254.59 149.99M254.59 149.99L247.64 156.94M247.64 156.94L243.17 165.7M243.17 165.7L241.64 175.4"/>
<path d="M241.64 175.4L238.72 175.4"/>
<path d="M273.05 143.99L273.05 141.07"/>
<path d="M311.04 147.36L311.04 143.99"/>
<path d="M294.97 147.36L294.97 143.99"/>
<path d="M281.82 141.07L281.82 143.99"/>
<path d="M281.82 143.99L273.05 143.99"/>
<path d="M281.82 143.99L322 143.99"/>
<path d="M322 143.99L322 141.07"/>
<path d="M332.96 143.99L322 143.99"/>
<path d="M332.96 143.99L332.96 141.07"/>
<path d="M364.37 175.4L362.83 165.7M362.83 165.7L358.37 156.94M358.37 156.94L351.42 149.99M351.42 149.99L342.67 145.53M342.67 145.53L332.96 143.99"/>
<path d="M364.37 175.4L367.29 175.4"/>
<path d="M364.37 221.43L364.01 221.53M364.01 221.53L363.74 221.79M363.74 221.79L363.64 222.16"/>
<path d="M363.64 232.39L363.74 232.75M363.74 232.75L364.01 233.02M364.01 233.02L364.37 233.12"/>
<path d="M363.64 232.39L364.37 232.39"/>
<path d="M364.37 222.16L363.64 222.16"/>
<path d="M364.37 177.59L364.01 177.69M364.01 177.69L363.74 177.96M363.74 177.96L363.64 178.33"/>
<path d="M363.64 188.55L363.74 188.92M363.74 188.92L364.01 189.19M364.01 189.19L364.37 189.28"/>
<path d="M363.64 188.55L364.37 188.55"/>
<path d="M364.37 178.33L363.64 178.33"/>
<path d="M367.29 235.31L364.37 235.31"/>
<path d="M364.37 235.31L364.37 175.4"/>
<path d="M332.96 269.65L332.96 266.72"/>
<path d="M332.96 266.72L342.67 265.19M342.67 265.19L351.42 260.72M351.42 260.72L358.37 253.77M358.37 253.77L362.83 245.02M362.83 245.02L364.37 235.31"/>
<path d="M294.97 263.36L294.97 266.72"/>
<path d="M311.04 263.36L311.04 266.72"/>
<path d="M322 266.72L332.96 266.72"/>
<path d="M322 266.72L322 269.65"/>
<path d="M322 266.72L281.82 266.72"/>
<path d="M281.82 269.65L281.82 266.72"/>
<path d="M273.05 266.72L281.82 266.72"/>
<path d="M273.05 269.65L273.05 266.72"/>
<path d="M238.72 235.31L241.64 235.31"/>
<path d="M241.64 235.31L243.17 245.02M243.17 245.02L247.64 253.77M247.64 253.77L254.59 260.72M254.59 260.72L263.34 265.19M263.34 265.19L273.05 266.72"/>
<path d="M241.64 175.4L241.64 235.31"/>
<path d="M243.8 199.51L241.64 199.51"/>
<path d="M243.8 211.2L241.64 211.2"/>
<path d="M244.47 211.2L244.56 211.2"/>
<path d="M244.56 199.51L244.47 199.51"/>
<path d="M265.75 144.91L265.47 144.92"/>
<path d="M340.26 144.92L340.54 144.92"/>
<path d="M340.26 265.8L340.54 265.79"/>
<path d="M265.75 265.79L265.47 265.79"/>
<path d="M311.04 148.37L294.97 148.37"/>
<path d="M294.97 262.34L311.04 262.34"/>
<path d="M244.56 199.51L244.56 211.2"/>
</g>
</g>
</svg>
