<?xml version="1.0" standalone="no"?><svg xmlns="http://www.w3.org/2000/svg" width="600.000" height="450.000" viewBox="0.0 0.0 600.000 450.000" version="1.1">
<title>Acme Converter - Post-processed with EDS-Designer: 14.44 (info@symca.com)</title>
<desc>Acme Converter - Post-processed with EDS-Designer: 14.44 (info@symca.com)</desc>
<g id="EDS_STYLE_GROUP" fill="none" stroke="black" stroke-width="1.0">
<g id="0" display="visible">
<path d="M271.06 363.63L272.3 367.37M272.3 367.37L272.3 359.9M272.3 359.9L271.06 363.63M271.06 363.63L268.56 361.14M268.56 361.14L264.82 359.9M264.82 359.9L262.33 359.9M262.33 359.9L258.59 361.14M258.59 361.14L256.1 363.63M256.1 363.63L254.86 366.13M254.86 366.13L253.61 369.87M253.61 369.87L253.61 376.1M253.61 376.1L254.86 379.83M254.86 379.83L256.1 382.33M256.1 382.33L258.59 384.82M258.59 384.82L262.33 386.06M262.33 386.06L264.82 386.06M264.82 386.06L268.56 384.82M268.56 384.82L271.06 382.33M262.33 359.9L259.84 361.14M259.84 361.14L257.35 363.63M257.35 363.63L256.1 366.13M256.1 366.13L254.86 369.87M254.86 369.87L254.86 376.1M254.86 376.1L256.1 379.83M256.1 379.83L257.35 382.33M257.35 382.33L259.84 384.82M259.84 384.82L262.33 386.06M271.06 376.1L271.06 386.06M272.3 376.1L272.3 386.06M267.32 376.1L276.04 376.1M286.01 386.06L286.01 359.9M287.25 359.9L287.25 386.06M282.27 359.9L297.22 359.9M297.22 359.9L300.96 361.14M300.96 361.14L302.21 362.39M302.21 362.39L303.45 364.88M303.45 364.88L303.45 367.37M303.45 367.37L302.21 369.87M302.21 369.87L300.96 371.11M300.96 371.11L297.22 372.36M297.22 372.36L287.25 372.36M297.22 359.9L299.72 361.14M299.72 361.14L300.96 362.39M300.96 362.39L302.21 364.88M302.21 364.88L302.21 367.37M302.21 367.37L300.96 369.87M300.96 369.87L299.72 371.11M299.72 371.11L297.22 372.36M282.27 386.06L290.99 386.06M293.49 372.36L295.98 373.6M295.98 373.6L297.22 374.85M297.22 374.85L300.96 383.57M300.96 383.57L302.21 384.82M302.21 384.82L303.45 384.82M303.45 384.82L304.7 383.57M295.98 373.6L297.22 376.1M297.22 376.1L299.72 384.82M299.72 384.82L300.96 386.06M300.96 386.06L303.45 386.06M303.45 386.06L304.7 383.57M304.7 383.57L304.7 382.33M313.42 386.06L313.42 359.9M314.67 359.9L314.67 386.06M322.15 367.37L322.15 377.34M309.68 359.9L329.62 359.9M329.62 359.9L329.62 367.37M329.62 367.37L328.38 359.9M314.67 372.36L322.15 372.36M309.68 386.06L329.62 386.06M329.62 386.06L329.62 378.59M329.62 378.59L328.38 386.06M338.34 359.9L347.07 373.6M347.07 373.6L347.07 386.06M339.59 359.9L348.31 373.6M348.31 373.6L348.31 386.06M357.04 359.9L348.31 373.6M335.85 359.9L343.33 359.9M352.05 359.9L359.53 359.9M343.33 386.06L352.05 386.06"/>
<path d="M443.45 327.42L460.97 319.45M460.97 319.45L476.7 308.36M476.7 308.36L490.1 294.53M490.1 294.53L500.69 278.46M500.69 278.46L508.1 260.69M508.1 260.69L512.07 241.85M512.07 241.85L512.47 222.61M512.47 222.61L509.28 203.62M509.28 203.62L502.61 185.57M502.61 185.57L492.69 169.06M492.69 169.06L479.88 154.7M479.88 154.7L464.62 142.97M464.62 142.97L447.44 134.28M447.44 134.28L428.94 128.95M428.94 128.95L409.78 127.15"/>
<path d="M443.45 315.29L459.5 307.02M459.5 307.02L473.63 295.77M473.63 295.77L485.27 281.96M485.27 281.96L493.98 266.14M493.98 266.14L499.41 248.92M499.41 248.92L501.36 230.96M501.36 230.96L499.75 212.97M499.75 212.97L494.63 195.65M494.63 195.65L486.22 179.67M486.22 179.67L474.84 165.65M474.84 165.65L460.92 154.14M460.92 154.14L445.02 145.58M445.02 145.58L427.75 140.3M427.75 140.3L409.78 138.52"/>
<path d="M203.85 127.15L184.68 128.95M184.68 128.95L166.18 134.28M166.18 134.28L149 142.97M149 142.97L133.73 154.7M133.73 154.7L120.92 169.08M120.92 169.08L111.01 185.58M111.01 185.58L104.34 203.64M104.34 203.64L101.15 222.63M101.15 222.63L101.56 241.88M101.56 241.88L105.53 260.71M105.53 260.71L112.95 278.48M112.95 278.48L123.54 294.56M123.54 294.56L136.95 308.38M136.95 308.38L152.69 319.47M152.69 319.47L170.22 327.43"/>
<path d="M203.85 138.52L185.87 140.3M185.87 140.3L168.59 145.58M168.59 145.58L152.69 154.14M152.69 154.14L138.78 165.66M138.78 165.66L127.39 179.68M127.39 179.68L118.98 195.67M118.98 195.67L113.87 212.99M113.87 212.99L112.26 230.99M112.26 230.99L114.22 248.94M114.22 248.94L119.65 266.17M119.65 266.17L128.37 281.99M128.37 281.99L140.02 295.79M140.02 295.79L154.15 307.04M154.15 307.04L170.22 315.3"/>
<path d="M203.85 157.86L187.98 159.63M187.98 159.63L172.88 164.84M172.88 164.84L159.3 173.23M159.3 173.23L147.9 184.4M147.9 184.4L139.22 197.81M139.22 197.81L133.71 212.79M133.71 212.79L131.62 228.62M131.62 228.62L133.05 244.52M133.05 244.52L137.95 259.72M137.95 259.72L146.06 273.47M146.06 273.47L156.99 285.1M156.99 285.1L170.22 294.05"/>
<path d="M203.85 174.93L190.27 176.63M190.27 176.63L177.52 181.61M177.52 181.61L166.4 189.58M166.4 189.58L157.58 200.04M157.58 200.04L151.6 212.35M151.6 212.35L148.84 225.75M148.84 225.75L149.46 239.42M149.46 239.42L153.42 252.52M153.42 252.52L160.49 264.24M160.49 264.24L170.22 273.86"/>
<path d="M261.3 157.86L203.85 157.86"/>
<path d="M261.3 174.93L203.85 174.93"/>
<path d="M261.3 157.86L409.78 157.86"/>
<path d="M261.3 174.93L409.78 174.93"/>
<path d="M443.45 294.03L456.66 285.08M456.66 285.08L467.59 273.44M467.59 273.44L475.69 259.69M475.69 259.69L480.58 244.49M480.58 244.49L482.01 228.59M482.01 228.59L479.91 212.77M479.91 212.77L474.39 197.79M474.39 197.79L465.72 184.39M465.72 184.39L454.31 173.22M454.31 173.22L440.73 164.83M440.73 164.83L425.64 159.63M425.64 159.63L409.78 157.86"/>
<path d="M443.45 273.83L453.16 264.2M453.16 264.2L460.22 252.48M460.22 252.48L464.17 239.39M464.17 239.39L464.78 225.72M464.78 225.72L462.01 212.33M462.01 212.33L456.03 200.02M456.03 200.02L447.21 189.57M447.21 189.57L436.09 181.61M436.09 181.61L423.35 176.63M423.35 176.63L409.78 174.93"/>
<path d="M309.09 313.73L304.41 313.73"/>
<path d="M309.09 296.67L304.41 296.67"/>
<path d="M103.16 208.57L88.66 208.57"/>
<path d="M88.66 177.84L88.66 274.71"/>
<path d="M88.66 249.46L100.88 249.46"/>
<path d="M130.46 157.88L233.12 63.94"/>
<path d="M233.12 63.94L265.47 63.94"/>
<path d="M240.56 63.94L240.56 127.4"/>
<path d="M251.94 75.31L251.94 138.52"/>
<path d="M263.31 83.85L263.31 127.4"/>
<path d="M274.69 75.31L274.69 86.69"/>
<path d="M286.07 63.94L286.07 75.31"/>
<path d="M374.64 63.94L321.69 63.94"/>
<path d="M355.82 75.31L251.94 75.31"/>
<path d="M274.69 83.85L263.31 83.85"/>
<path d="M344.44 83.85L333.07 83.85"/>
<path d="M286.07 63.94L233.12 63.94"/>
<path d="M333.07 75.31L274.69 75.31"/>
<path d="M333.07 86.69L274.69 86.69"/>
<path d="M367.2 63.94L367.2 127.4"/>
<path d="M355.82 75.31L355.82 138.52"/>
<path d="M344.44 83.85L344.44 127.4"/>
<path d="M333.07 75.31L333.07 86.69"/>
<path d="M321.69 63.94L321.69 75.31"/>
<path d="M483.16 157.88L374.64 63.94"/>
<path d="M524.96 177.84L524.96 274.71"/>
<path d="M524.96 249.46L512.74 249.46"/>
<path d="M510.46 208.57L524.96 208.57"/>
<path d="M240.56 127.15L203.85 127.15"/>
<path d="M409.78 138.52L203.85 138.52"/>
<path d="M367.2 127.4L409.78 127.15"/>
<path d="M309.09 344.45L304.41 344.45"/>
<path d="M309.09 333.08L304.41 333.08"/>
<path d="M130.46 157.88L88.66 177.84"/>
<path d="M483.16 157.88L524.96 177.84"/>
<path d="M493.84 289.57L524.96 274.71"/>
<path d="M130.46 302.34L88.66 274.71"/>
<path d="M309.09 218.73L309.09 241.49"/>
<path d="M314.78 218.73L314.78 241.49"/>
<path d="M326.15 201.67L319.62 202.97M319.62 202.97L314.08 206.67M314.08 206.67L310.39 212.2M310.39 212.2L309.09 218.73"/>
<path d="M326.15 207.36L320.46 208.88M320.46 208.88L316.3 213.04M316.3 213.04L314.78 218.73"/>
<path d="M373.94 218.73L373.94 241.49"/>
<path d="M368.25 218.73L368.25 241.49"/>
<path d="M356.87 258.55L363.4 257.26M363.4 257.26L368.94 253.56M368.94 253.56L372.64 248.02M372.64 248.02L373.94 241.49"/>
<path d="M356.87 252.87L362.56 251.34M362.56 251.34L366.72 247.18M366.72 247.18L368.25 241.49"/>
<path d="M326.15 258.55L356.87 258.55"/>
<path d="M326.15 252.87L356.87 252.87"/>
<path d="M309.09 241.49L310.39 248.02M310.39 248.02L314.08 253.56M314.08 253.56L319.62 257.26M319.62 257.26L326.15 258.55"/>
<path d="M314.78 241.49L316.3 247.18M316.3 247.18L320.46 251.34M320.46 251.34L326.15 252.87"/>
<path d="M326.15 201.67L356.87 201.67"/>
<path d="M326.15 207.36L356.87 207.36"/>
<path d="M373.94 218.73L372.64 212.2M372.64 212.2L368.94 206.67M368.94 206.67L363.4 202.97M363.4 202.97L356.87 201.67"/>
<path d="M368.25 218.73L366.72 213.04M366.72 213.04L362.56 208.88M362.56 208.88L356.87 207.36"/>
<path d="M378.59 218.6L378.59 241.35"/>
<path d="M384.28 218.6L384.28 241.35"/>
<path d="M443.45 218.6L443.45 241.35"/>
<path d="M437.76 218.6L437.76 241.35"/>
<path d="M426.38 258.42L432.91 257.12M432.91 257.12L438.45 253.42M438.45 253.42L442.15 247.88M442.15 247.88L443.45 241.35"/>
<path d="M426.38 252.73L432.07 251.21M432.07 251.21L436.23 247.04M436.23 247.04L437.76 241.35"/>
<path d="M395.66 258.42L426.38 258.42"/>
<path d="M395.66 252.73L426.38 252.73"/>
<path d="M378.59 241.35L379.89 247.88M379.89 247.88L383.59 253.42M383.59 253.42L389.13 257.12M389.13 257.12L395.66 258.42"/>
<path d="M384.28 241.35L385.81 247.04M385.81 247.04L389.97 251.21M389.97 251.21L395.66 252.73"/>
<path d="M395.66 201.53L426.38 201.53"/>
<path d="M395.66 207.22L426.38 207.22"/>
<path d="M395.66 201.53L389.13 202.83M389.13 202.83L383.59 206.53M383.59 206.53L379.89 212.07M379.89 212.07L378.59 218.6"/>
<path d="M395.66 207.22L389.97 208.75M389.97 208.75L385.81 212.91M385.81 212.91L384.28 218.6"/>
<path d="M443.45 218.6L442.15 212.07M442.15 212.07L438.45 206.53M438.45 206.53L432.91 202.83M432.91 202.83L426.38 201.53"/>
<path d="M437.76 218.6L436.23 212.91M436.23 212.91L432.07 208.75M432.07 208.75L426.38 207.22"/>
<path d="M239.56 218.6L239.56 241.35"/>
<path d="M245.25 218.6L245.25 241.35"/>
<path d="M304.41 218.6L304.41 241.35"/>
<path d="M298.72 218.6L298.72 241.35"/>
<path d="M287.34 258.42L293.87 257.12M293.87 257.12L299.41 253.42M299.41 253.42L303.11 247.88M303.11 247.88L304.41 241.35"/>
<path d="M287.34 252.73L293.03 251.21M293.03 251.21L297.2 247.04M297.2 247.04L298.72 241.35"/>
<path d="M256.62 258.42L287.34 258.42"/>
<path d="M256.62 252.73L287.34 252.73"/>
<path d="M239.56 241.35L240.86 247.88M240.86 247.88L244.56 253.42M244.56 253.42L250.09 257.12M250.09 257.12L256.62 258.42"/>
<path d="M245.25 241.35L246.77 247.04M246.77 247.04L250.94 251.21M250.94 251.21L256.62 252.73"/>
<path d="M256.62 201.53L287.34 201.53"/>
<path d="M256.62 207.22L287.34 207.22"/>
<path d="M256.62 201.53L250.09 202.83M250.09 202.83L244.56 206.53M244.56 206.53L240.86 212.07M240.86 212.07L239.56 218.6"/>
<path d="M256.62 207.22L250.94 208.75M250.94 208.75L246.77 212.91M246.77 212.91L245.25 218.6"/>
<path d="M304.41 218.6L303.11 212.07M303.11 212.07L299.41 206.53M299.41 206.53L293.87 202.83M293.87 202.83L287.34 201.53"/>
<path d="M298.72 218.6L297.2 212.91M297.2 212.91L293.03 208.75M293.03 208.75L287.34 207.22"/>
<path d="M170.22 218.6L170.22 241.35"/>
<path d="M175.9 218.6L175.9 241.35"/>
<path d="M187.28 201.53L180.75 202.83M180.75 202.83L175.21 206.53M175.21 206.53L171.52 212.07M171.52 212.07L170.22 218.6"/>
<path d="M187.28 207.22L181.59 208.75M181.59 208.75L177.43 212.91M177.43 212.91L175.9 218.6"/>
<path d="M235.07 218.6L235.07 241.35"/>
<path d="M229.38 218.6L229.38 241.35"/>
<path d="M218 258.42L224.53 257.12M224.53 257.12L230.07 253.42M230.07 253.42L233.77 247.88M233.77 247.88L235.07 241.35"/>
<path d="M218 252.73L223.69 251.21M223.69 251.21L227.85 247.04M227.85 247.04L229.38 241.35"/>
<path d="M187.28 258.42L218 258.42"/>
<path d="M187.28 252.73L218 252.73"/>
<path d="M170.22 241.35L171.52 247.88M171.52 247.88L175.21 253.42M175.21 253.42L180.75 257.12M180.75 257.12L187.28 258.42"/>
<path d="M175.9 241.35L177.43 247.04M177.43 247.04L181.59 251.21M181.59 251.21L187.28 252.73"/>
<path d="M187.28 201.53L218 201.53"/>
<path d="M187.28 207.22L218 207.22"/>
<path d="M235.07 218.6L233.77 212.07M233.77 212.07L230.07 206.53M230.07 206.53L224.53 202.83M224.53 202.83L218 201.53"/>
<path d="M229.38 218.6L227.85 212.91M227.85 212.91L223.69 208.75M223.69 208.75L218 207.22"/>
<path d="M69.34 223.14L58.5 238.31M58.5 238.31L74.75 238.31M69.34 223.14L69.34 245.9"/>
<path d="M536.05 223.95L538.21 222.86M538.21 222.86L541.47 219.61M541.47 219.61L541.47 242.37"/>
<path d="M263.31 127.4L344.44 127.4"/>
<path d="M170.22 327.43L215.23 336.87M215.23 336.87L260.88 342.56M260.88 342.56L306.83 344.46M306.83 344.46L352.79 342.55M352.79 342.55L398.43 336.86M398.43 336.86L443.45 327.42"/>
<path d="M170.22 315.3L215.19 325.1M215.19 325.1L260.84 331M260.84 331L306.83 332.98M306.83 332.98L352.82 331M352.82 331L398.47 325.09M398.47 325.09L443.45 315.29"/>
<path d="M170.22 294.05L208.6 303.61M208.6 303.61L247.63 310.02M247.63 310.02L287.05 313.23M287.05 313.23L326.61 313.22M326.61 313.22L366.03 310.01M366.03 310.01L405.06 303.59M405.06 303.59L443.45 294.03"/>
<path d="M170.22 273.86L208.38 284.93M208.38 284.93L247.41 292.36M247.41 292.36L286.97 296.09M286.97 296.09L326.7 296.08M326.7 296.08L366.26 292.34M366.26 292.34L405.29 284.9M405.29 284.9L443.45 273.83"/>
</g>
</g>
</svg>
