<?xml version="1.0" standalone="no"?><svg xmlns="http://www.w3.org/2000/svg" width="600.000" height="450.000" viewBox="0.0 0.0 600.000 450.000" version="1.1">
<title>Acme Converter - Post-processed with EDS-Designer: 16.57 (info@symca.com)</title>
<desc>Acme Converter - Post-processed with EDS-Designer: 16.57 (info@symca.com)</desc>
<g id="EDS_STYLE_GROUP" fill="none" stroke="black" stroke-width="1.0">
<g id="0" display="visible">
<path d="M228.35 446.93L228.35 412.49M229.99 412.49L229.99 446.93M223.43 412.49L243.11 412.49M243.11 412.49L248.03 414.13M248.03 414.13L249.67 415.77M249.67 415.77L251.31 419.05M251.31 419.05L251.31 422.33M251.31 422.33L249.67 425.61M249.67 425.61L248.03 427.25M248.03 427.25L243.11 428.89M243.11 412.49L246.39 414.13M246.39 414.13L248.03 415.77M248.03 415.77L249.67 419.05M249.67 419.05L249.67 422.33M249.67 422.33L248.03 425.61M248.03 425.61L246.39 427.25M246.39 427.25L243.11 428.89M229.99 428.89L243.11 428.89M243.11 428.89L248.03 430.53M248.03 430.53L249.67 432.17M249.67 432.17L251.31 435.45M251.31 435.45L251.31 440.37M251.31 440.37L249.67 443.65M249.67 443.65L248.03 445.29M248.03 445.29L243.11 446.93M243.11 446.93L223.43 446.93M243.11 428.89L246.39 430.53M246.39 430.53L248.03 432.17M248.03 432.17L249.67 435.45M249.67 435.45L249.67 440.37M249.67 440.37L248.03 443.65M248.03 443.65L246.39 445.29M246.39 445.29L243.11 446.93M264.43 446.93L264.43 412.49M266.07 412.49L266.07 446.93M259.51 412.49L270.99 412.49M259.51 446.93L284.11 446.93M284.11 446.93L284.11 437.09M284.11 437.09L282.47 446.93M303.79 412.49L292.31 446.93M303.79 412.49L315.27 446.93M303.79 417.41L313.63 446.93M295.59 437.09L310.35 437.09M289.03 446.93L298.87 446.93M308.71 446.93L318.55 446.93M346.43 417.41L348.07 422.33M348.07 422.33L348.07 412.49M348.07 412.49L346.43 417.41M346.43 417.41L343.15 414.13M343.15 414.13L338.23 412.49M338.23 412.49L334.95 412.49M334.95 412.49L330.03 414.13M330.03 414.13L326.75 417.41M326.75 417.41L325.11 420.69M325.11 420.69L323.47 425.61M323.47 425.61L323.47 433.81M323.47 433.81L325.11 438.73M325.11 438.73L326.75 442.01M326.75 442.01L330.03 445.29M330.03 445.29L334.95 446.93M334.95 446.93L338.23 446.93M338.23 446.93L343.15 445.29M343.15 445.29L346.43 442.01M346.43 442.01L348.07 438.73M334.95 412.49L331.67 414.13M331.67 414.13L328.39 417.41M328.39 417.41L326.75 420.69M326.75 420.69L325.11 425.61M325.11 425.61L325.11 433.81M325.11 433.81L326.75 438.73M326.75 438.73L328.39 442.01M328.39 442.01L331.67 445.29M331.67 445.29L334.95 446.93M362.83 446.93L362.83 412.49M364.47 412.49L364.47 446.93M385.79 412.49L364.47 433.81M372.67 427.25L385.79 446.93M371.03 427.25L384.15 446.93M357.91 412.49L369.39 412.49M379.23 412.49L389.07 412.49M357.91 446.93L369.39 446.93M379.23 446.93L389.07 446.93"/>
<path d="M306.3 37.87L236.18 37.87"/>
<path d="M185.63 37.87L176.8 54.4"/>
<path d="M176.8 54.4L126.55 54.4"/>
<path d="M119.25 61.7L119.25 120.45"/>
<path d="M119.25 120.45L99.64 120.45"/>
<path d="M99.64 120.45L99.64 214.47"/>
<path d="M99.64 214.47L125.18 308.56"/>
<path d="M125.18 308.56L125.18 344.87"/>
<path d="M115.02 271.12L115.02 302.85"/>
<path d="M115.02 302.85L124.81 344.21"/>
<path d="M306.3 378.05L223.51 378.05"/>
<path d="M221.98 377.93L148.64 366.31"/>
<path d="M124.81 344.21L128 352.18M128 352.18L133.37 358.88M133.37 358.88L140.45 363.73M140.45 363.73L148.64 366.31"/>
<path d="M221.98 377.93L223.51 378.05"/>
<path d="M306.3 360.85L226.07 360.85"/>
<path d="M224.58 360.73L151.72 349.44"/>
<path d="M224.58 360.73L226.07 360.85"/>
<path d="M306.3 289.63L171.26 289.63"/>
<path d="M171.26 289.63L157.43 340.02"/>
<path d="M124.81 344.21L129.27 349.69M129.27 349.69L135.54 352.96M135.54 352.96L142.58 353.49M142.58 353.49L149.27 351.2M149.27 351.2L154.5 346.45M154.5 346.45L157.43 340.02"/>
<path d="M306.3 272.27L250.19 272.27"/>
<path d="M250.19 272.27L240.59 289.63"/>
<path d="M288.33 37.87L288.33 29.75"/>
<path d="M288.33 29.75L306.3 29.75"/>
<path d="M126.55 54.4L122.9 55.38M122.9 55.38L120.23 58.05M120.23 58.05L119.25 61.7"/>
<path d="M221.62 37.87L221.62 17.66"/>
<path d="M236.21 3.07L259.09 3.07"/>
<path d="M263.95 7.93L263.95 15.48"/>
<path d="M259.09 20.34L241.04 20.34"/>
<path d="M236.18 25.2L236.18 37.87"/>
<path d="M236.21 3.07L228.91 5.02M228.91 5.02L223.57 10.36M223.57 10.36L221.62 17.66"/>
<path d="M263.95 7.93L262.53 4.49M262.53 4.49L259.09 3.07"/>
<path d="M259.09 20.34L262.53 18.92M262.53 18.92L263.95 15.48"/>
<path d="M241.04 20.34L237.6 21.76M237.6 21.76L236.18 25.2"/>
<path d="M221.62 37.87L185.63 37.87"/>
<path d="M306.3 72.12L196.2 72.12"/>
<path d="M196.2 72.12L193.61 75.3"/>
<path d="M193.61 75.3L163.26 75.3"/>
<path d="M163.26 75.3L152.22 86.82"/>
<path d="M152.22 86.82L152.22 134.11"/>
<path d="M152.22 134.11L133.07 134.11"/>
<path d="M130.64 136.54L130.64 188.83"/>
<path d="M133.07 191.26L152.22 191.26"/>
<path d="M152.22 191.26L152.22 232.31"/>
<path d="M171.67 251.77L245.13 251.77"/>
<path d="M245.13 251.77L246.62 253.81"/>
<path d="M246.62 253.81L306.3 253.81"/>
<path d="M225.59 256.64L225.59 271.39"/>
<path d="M223.16 273.82L181.2 273.82"/>
<path d="M178.77 271.39L178.77 256.64"/>
<path d="M152.22 232.31L153.7 239.76M153.7 239.76L157.92 246.07M157.92 246.07L164.23 250.29M164.23 250.29L171.67 251.77"/>
<path d="M178.77 256.64L177.34 253.2M177.34 253.2L173.9 251.77"/>
<path d="M230.46 251.77L227.02 253.2M227.02 253.2L225.59 256.64"/>
<path d="M178.77 271.39L179.48 273.11M179.48 273.11L181.2 273.82"/>
<path d="M223.16 273.82L224.88 273.11M224.88 273.11L225.59 271.39"/>
<path d="M130.64 188.83L131.35 190.55M131.35 190.55L133.07 191.26"/>
<path d="M133.07 134.11L131.35 134.82M131.35 134.82L130.64 136.54"/>
<path d="M306.3 52.72L283.3 52.72"/>
<path d="M283.3 52.72L283.3 67.26"/>
<path d="M278.44 72.12L281.88 70.7M281.88 70.7L283.3 67.26"/>
<path d="M152.22 191.26L154.09 172.24M154.09 172.24L154.09 153.13M154.09 153.13L152.22 134.11"/>
<path d="M138.05 141.91L138.05 178.01"/>
<path d="M130.64 187.13L135.19 183.25M135.19 183.25L138.05 178.01"/>
<path d="M138.05 141.91L136.1 137.55M136.1 137.55L132.78 134.13"/>
<path d="M306.3 84.53L188.39 84.53"/>
<path d="M159.2 113.72L159.2 213.36"/>
<path d="M188.39 242.55L306.3 242.55"/>
<path d="M159.2 213.36L160.63 222.38M160.63 222.38L164.78 230.52M164.78 230.52L171.23 236.98M171.23 236.98L179.37 241.12M179.37 241.12L188.39 242.55"/>
<path d="M188.39 84.53L179.37 85.96M179.37 85.96L171.23 90.11M171.23 90.11L164.78 96.56M164.78 96.56L160.63 104.7M160.63 104.7L159.2 113.72"/>
<path d="M306.3 118.55L213.57 118.55"/>
<path d="M194.12 138L194.12 189.03"/>
<path d="M213.57 208.49L306.3 208.49"/>
<path d="M194.12 189.03L195.6 196.48M195.6 196.48L199.82 202.79M199.82 202.79L206.13 207.01M206.13 207.01L213.57 208.49"/>
<path d="M213.57 118.55L206.13 120.03M206.13 120.03L199.82 124.24M199.82 124.24L195.6 130.56M195.6 130.56L194.12 138"/>
<path d="M223.85 135.45L236.31 135.45"/>
<path d="M236.31 201.57L223.85 201.57"/>
<path d="M236.31 192.76L223.85 192.76"/>
<path d="M236.31 148.22L223.85 148.22"/>
<path d="M236.31 163.3L223.85 163.3"/>
<path d="M293.84 135.45L306.3 135.45"/>
<path d="M306.3 201.57L293.84 201.57"/>
<path d="M306.3 192.76L293.84 192.76"/>
<path d="M306.3 148.22L293.84 148.22"/>
<path d="M306.3 163.3L293.84 163.3"/>
<path d="M248.78 135.45L236.31 135.45"/>
<path d="M236.31 201.57L248.78 201.57"/>
<path d="M236.31 192.76L248.78 192.76"/>
<path d="M236.31 148.22L248.78 148.22"/>
<path d="M236.31 163.3L248.78 163.3"/>
<path d="M223.85 154.67L201.48 154.67M201.48 154.67L201.48 186.69M201.48 186.69L223.85 186.69"/>
<path d="M206.31 159.28L206.31 181.62"/>
<path d="M201.48 186.69L206.31 181.62"/>
<path d="M206.31 159.28L201.48 154.67"/>
<path d="M223.85 164.66L206.31 164.66"/>
<path d="M223.85 176.37L206.31 176.37"/>
<path d="M265.97 160.61L265.97 180.56"/>
<path d="M276.78 160.61L276.78 180.56"/>
<path d="M276.78 180.56L271.27 186.69"/>
<path d="M271.27 186.69L271.27 154.67"/>
<path d="M265.97 160.61L271.27 154.67"/>
<path d="M271.27 154.67L276.78 160.61"/>
<path d="M265.97 180.56L271.27 186.69"/>
<path d="M276.78 176.37L293.84 176.37"/>
<path d="M276.78 164.66L293.84 164.66"/>
<path d="M248.78 176.37L265.97 176.37"/>
<path d="M248.78 164.66L265.97 164.66"/>
<path d="M293.84 176.37L293.84 201.57"/>
<path d="M293.84 135.45L293.84 164.66"/>
<path d="M248.78 176.37L248.78 201.57"/>
<path d="M248.78 186.69L293.84 186.69"/>
<path d="M223.85 176.37L223.85 201.57"/>
<path d="M293.84 154.67L248.78 154.67"/>
<path d="M248.78 135.45L248.78 164.66"/>
<path d="M223.85 135.45L223.85 164.66"/>
<path d="M388.76 135.45L388.76 164.66"/>
<path d="M363.83 135.45L363.83 164.66"/>
<path d="M363.83 186.69L318.77 186.69"/>
<path d="M318.77 154.67L363.83 154.67"/>
<path d="M388.76 176.37L388.76 201.57"/>
<path d="M318.77 135.45L318.77 164.66"/>
<path d="M363.83 176.37L363.83 201.57"/>
<path d="M318.77 176.37L318.77 201.57"/>
<path d="M363.83 164.66L346.63 164.66"/>
<path d="M363.83 176.37L346.63 176.37"/>
<path d="M335.83 164.66L318.77 164.66"/>
<path d="M335.83 176.37L318.77 176.37"/>
<path d="M346.63 180.56L341.33 186.69"/>
<path d="M341.33 154.67L335.83 160.61"/>
<path d="M341.33 186.69L341.33 154.67"/>
<path d="M346.63 160.61L341.33 154.67"/>
<path d="M335.83 180.56L341.33 186.69"/>
<path d="M335.83 160.61L335.83 180.56"/>
<path d="M346.63 160.61L346.63 180.56"/>
<path d="M388.76 176.37L406.3 176.37"/>
<path d="M388.76 164.66L406.3 164.66"/>
<path d="M411.13 154.67L406.3 159.28"/>
<path d="M406.3 181.62L411.13 186.69"/>
<path d="M406.3 159.28L406.3 181.62"/>
<path d="M388.76 154.67L411.13 154.67M411.13 154.67L411.13 186.69M411.13 186.69L388.76 186.69"/>
<path d="M376.3 163.3L363.83 163.3"/>
<path d="M376.3 148.22L363.83 148.22"/>
<path d="M376.3 192.76L363.83 192.76"/>
<path d="M376.3 201.57L363.83 201.57"/>
<path d="M363.83 135.45L376.3 135.45"/>
<path d="M306.3 163.3L318.77 163.3"/>
<path d="M306.3 148.22L318.77 148.22"/>
<path d="M306.3 192.76L318.77 192.76"/>
<path d="M306.3 201.57L318.77 201.57"/>
<path d="M318.77 135.45L306.3 135.45"/>
<path d="M376.3 163.3L388.76 163.3"/>
<path d="M376.3 148.22L388.76 148.22"/>
<path d="M376.3 192.76L388.76 192.76"/>
<path d="M376.3 201.57L388.76 201.57"/>
<path d="M388.76 135.45L376.3 135.45"/>
<path d="M418.49 138L417.01 130.56M417.01 130.56L412.79 124.24M412.79 124.24L406.48 120.03M406.48 120.03L399.03 118.55"/>
<path d="M399.03 208.49L406.48 207.01M406.48 207.01L412.79 202.79M412.79 202.79L417.01 196.48M417.01 196.48L418.49 189.03"/>
<path d="M399.03 208.49L306.3 208.49"/>
<path d="M418.49 138L418.49 189.03"/>
<path d="M306.3 118.55L399.03 118.55"/>
<path d="M453.4 113.72L451.98 104.7M451.98 104.7L447.83 96.56M447.83 96.56L441.37 90.11M441.37 90.11L433.24 85.96M433.24 85.96L424.22 84.53"/>
<path d="M424.22 242.55L433.24 241.12M433.24 241.12L441.37 236.98M441.37 236.98L447.83 230.52M447.83 230.52L451.98 222.38M451.98 222.38L453.4 213.36"/>
<path d="M424.22 242.55L306.3 242.55"/>
<path d="M453.4 113.72L453.4 213.36"/>
<path d="M306.3 84.53L424.22 84.53"/>
<path d="M479.82 134.13L476.51 137.55M476.51 137.55L474.56 141.91"/>
<path d="M474.56 178.01L477.42 183.25M477.42 183.25L481.97 187.13"/>
<path d="M474.56 141.91L474.56 178.01"/>
<path d="M460.39 134.11L458.52 153.13M458.52 153.13L458.52 172.24M458.52 172.24L460.39 191.26"/>
<path d="M329.3 67.26L330.73 70.7M330.73 70.7L334.17 72.12"/>
<path d="M329.3 52.72L329.3 67.26"/>
<path d="M306.3 52.72L329.3 52.72"/>
<path d="M481.97 136.54L481.25 134.82M481.25 134.82L479.53 134.11"/>
<path d="M479.53 191.26L481.25 190.55M481.25 190.55L481.97 188.83"/>
<path d="M387.01 271.39L387.73 273.11M387.73 273.11L389.45 273.82"/>
<path d="M431.41 273.82L433.13 273.11M433.13 273.11L433.84 271.39"/>
<path d="M387.01 256.64L385.59 253.2M385.59 253.2L382.15 251.77"/>
<path d="M438.7 251.77L435.26 253.2M435.26 253.2L433.84 256.64"/>
<path d="M440.93 251.77L448.38 250.29M448.38 250.29L454.69 246.07M454.69 246.07L458.91 239.76M458.91 239.76L460.39 232.31"/>
<path d="M433.84 271.39L433.84 256.64"/>
<path d="M389.45 273.82L431.41 273.82"/>
<path d="M387.01 256.64L387.01 271.39"/>
<path d="M365.99 253.81L306.3 253.81"/>
<path d="M367.48 251.77L365.99 253.81"/>
<path d="M440.93 251.77L367.48 251.77"/>
<path d="M460.39 191.26L460.39 232.31"/>
<path d="M479.53 191.26L460.39 191.26"/>
<path d="M481.97 136.54L481.97 188.83"/>
<path d="M460.39 134.11L479.53 134.11"/>
<path d="M460.39 86.82L460.39 134.11"/>
<path d="M449.35 75.3L460.39 86.82"/>
<path d="M419 75.3L449.35 75.3"/>
<path d="M416.41 72.12L419 75.3"/>
<path d="M306.3 72.12L416.41 72.12"/>
<path d="M390.99 37.87L426.98 37.87"/>
<path d="M376.43 25.2L375 21.76M375 21.76L371.56 20.34"/>
<path d="M348.66 15.48L350.08 18.92M350.08 18.92L353.52 20.34"/>
<path d="M353.52 3.07L350.08 4.49M350.08 4.49L348.66 7.93"/>
<path d="M390.99 17.66L389.04 10.36M389.04 10.36L383.69 5.02M383.69 5.02L376.4 3.07"/>
<path d="M376.43 25.2L376.43 37.87"/>
<path d="M353.52 20.34L371.56 20.34"/>
<path d="M348.66 7.93L348.66 15.48"/>
<path d="M376.4 3.07L353.52 3.07"/>
<path d="M390.99 37.87L390.99 17.66"/>
<path d="M493.35 61.7L492.38 58.05M492.38 58.05L489.71 55.38M489.71 55.38L486.06 54.4"/>
<path d="M324.28 29.75L306.3 29.75"/>
<path d="M324.28 37.87L324.28 29.75"/>
<path d="M362.42 272.27L372.02 289.63"/>
<path d="M306.3 272.27L362.42 272.27"/>
<path d="M455.18 340.02L458.11 346.45M458.11 346.45L463.34 351.2M463.34 351.2L470.02 353.49M470.02 353.49L477.07 352.96M477.07 352.96L483.33 349.69M483.33 349.69L487.79 344.21"/>
<path d="M441.35 289.63L455.18 340.02"/>
<path d="M306.3 289.63L441.35 289.63"/>
<path d="M386.54 360.85L388.03 360.73"/>
<path d="M388.03 360.73L460.88 349.44"/>
<path d="M306.3 360.85L386.54 360.85"/>
<path d="M389.1 378.05L390.62 377.93"/>
<path d="M463.96 366.31L472.15 363.73M472.15 363.73L479.24 358.88M479.24 358.88L484.61 352.18M484.61 352.18L487.79 344.21"/>
<path d="M390.62 377.93L463.96 366.31"/>
<path d="M306.3 378.05L389.1 378.05"/>
<path d="M497.59 302.85L487.79 344.21"/>
<path d="M497.59 271.12L497.59 302.85"/>
<path d="M487.43 308.56L487.43 344.87"/>
<path d="M512.97 214.47L487.43 308.56"/>
<path d="M512.97 120.45L512.97 214.47"/>
<path d="M493.35 120.45L512.97 120.45"/>
<path d="M493.35 61.7L493.35 120.45"/>
<path d="M435.8 54.4L486.06 54.4"/>
<path d="M426.98 37.87L435.8 54.4"/>
<path d="M306.3 37.87L376.43 37.87"/>
<path d="M540.32 154.42L542.94 153.11M542.94 153.11L546.88 149.17M546.88 149.17L546.88 176.72"/>
<path d="M55.75 149.23L70.18 149.23M70.18 149.23L62.31 159.73M62.31 159.73L66.24 159.73M66.24 159.73L68.87 161.04M68.87 161.04L70.18 162.35M70.18 162.35L71.49 166.29M71.49 166.29L71.49 168.91M71.49 168.91L70.18 172.85M70.18 172.85L67.55 175.47M67.55 175.47L63.62 176.79M63.62 176.79L59.68 176.79M59.68 176.79L55.75 175.47M55.75 175.47L54.43 174.16M54.43 174.16L53.12 171.54"/>
</g>
</g>
</svg>
