<?xml version="1.0" standalone="no"?><svg xmlns="http://www.w3.org/2000/svg" width="600.000" height="450.000" viewBox="0.0 0.0 600.000 450.000" version="1.1">
<title>Acme Converter - Post-processed with EDS-Designer: 14.44 (info@symca.com)</title>
<desc>Acme Converter - Post-processed with EDS-Designer: 14.44 (info@symca.com)</desc>
<g id="EDS_STYLE_GROUP" fill="none" stroke="black" stroke-width="1.0">
<g id="0" display="visible">
<path d="M251.87 234L251.87 257.25"/>
<path d="M251.87 257.25L275.12 257.25"/>
<path d="M275.12 257.25L275.12 234"/>
<path d="M275.12 234L251.87 234"/>
<path d="M251.87 265L251.87 288.25"/>
<path d="M251.87 288.25L275.12 288.25"/>
<path d="M275.12 288.25L275.12 265"/>
<path d="M275.12 265L251.87 265"/>
<path d="M375.85 148.76L375.85 172.01"/>
<path d="M375.85 172.01L399.1 172.01"/>
<path d="M399.1 172.01L399.1 148.76"/>
<path d="M399.1 148.76L375.85 148.76"/>
<path d="M375.85 179.76L375.85 203.01"/>
<path d="M375.85 203.01L399.1 203.01"/>
<path d="M399.1 203.01L399.1 179.76"/>
<path d="M399.1 179.76L375.85 179.76"/>
<path d="M375.85 179.76L383.6 187.51"/>
<path d="M383.6 187.51L391.35 187.51"/>
<path d="M391.35 187.51L391.35 195.26"/>
<path d="M391.35 195.26L383.6 195.26"/>
<path d="M383.6 195.26L383.6 187.51"/>
<path d="M391.35 187.51L399.1 179.76"/>
<path d="M391.35 195.26L399.1 203.01"/>
<path d="M383.6 195.26L375.85 203.01"/>
<path d="M406.85 148.76L406.85 172.01"/>
<path d="M406.85 172.01L430.09 172.01"/>
<path d="M430.09 172.01L430.09 148.76"/>
<path d="M430.09 148.76L406.85 148.76"/>
<path d="M406.85 179.76L406.85 203.01"/>
<path d="M406.85 203.01L430.09 203.01"/>
<path d="M430.09 203.01L430.09 179.76"/>
<path d="M430.09 179.76L406.85 179.76"/>
<path d="M406.85 179.76L414.6 187.51"/>
<path d="M414.6 187.51L414.6 195.26"/>
<path d="M414.6 195.26L422.35 195.26"/>
<path d="M422.35 195.26L422.35 187.51"/>
<path d="M422.35 187.51L414.6 187.51"/>
<path d="M422.35 187.51L430.09 179.76"/>
<path d="M422.35 195.26L430.09 203.01"/>
<path d="M414.6 195.26L406.85 203.01"/>
<path d="M437.84 148.76L437.84 172.01"/>
<path d="M437.84 172.01L461.09 172.01"/>
<path d="M461.09 172.01L461.09 148.76"/>
<path d="M461.09 148.76L437.84 148.76"/>
<path d="M437.84 179.76L437.84 203.01"/>
<path d="M437.84 203.01L461.09 203.01"/>
<path d="M461.09 203.01L461.09 179.76"/>
<path d="M461.09 179.76L437.84 179.76"/>
<path d="M437.84 179.76L445.59 187.51"/>
<path d="M445.59 187.51L453.34 187.51"/>
<path d="M453.34 187.51L453.34 195.26"/>
<path d="M453.34 195.26L445.59 195.26"/>
<path d="M445.59 195.26L445.59 187.51"/>
<path d="M461.09 234L437.84 234"/>
<path d="M437.84 234L437.84 257.25"/>
<path d="M437.84 257.25L461.09 257.25"/>
<path d="M461.09 257.25L461.09 234"/>
<path d="M461.09 265L437.84 265"/>
<path d="M437.84 265L437.84 288.25"/>
<path d="M437.84 288.25L461.09 288.25"/>
<path d="M461.09 288.25L461.09 265"/>
<path d="M430.09 234L430.09 257.25"/>
<path d="M430.09 257.25L406.85 257.25"/>
<path d="M406.85 257.25L406.85 234"/>
<path d="M406.85 234L430.09 234"/>
<path d="M406.85 265L430.09 265"/>
<path d="M430.09 265L430.09 288.25"/>
<path d="M430.09 288.25L406.85 288.25"/>
<path d="M406.85 288.25L406.85 265"/>
<path d="M399.1 234L375.85 234"/>
<path d="M375.85 234L375.85 257.25"/>
<path d="M375.85 257.25L399.1 257.25"/>
<path d="M399.1 257.25L399.1 234"/>
<path d="M375.85 265L399.1 265"/>
<path d="M399.1 265L399.1 288.25"/>
<path d="M399.1 288.25L375.85 288.25"/>
<path d="M375.85 288.25L375.85 265"/>
<path d="M368.1 234L344.86 234"/>
<path d="M344.86 234L344.86 257.25"/>
<path d="M344.86 257.25L368.1 257.25"/>
<path d="M368.1 257.25L368.1 234"/>
<path d="M368.1 265L344.86 265"/>
<path d="M344.86 265L344.86 288.25"/>
<path d="M344.86 288.25L368.1 288.25"/>
<path d="M368.1 288.25L368.1 265"/>
<path d="M298.36 303.74L298.36 234"/>
<path d="M298.36 234L321.61 234"/>
<path d="M321.61 234L321.61 303.74"/>
<path d="M476.59 295.99L476.59 141.01"/>
<path d="M352.6 133.27L352.6 203.01"/>
<path d="M352.6 203.01L267.37 203.01"/>
<path d="M267.37 203.01L267.37 133.27"/>
<path d="M290.61 303.74L290.61 226.25"/>
<path d="M290.61 226.25L329.36 226.25"/>
<path d="M329.36 226.25L329.36 303.74"/>
<path d="M298.36 234L290.61 226.25"/>
<path d="M321.61 234L329.36 226.25"/>
<path d="M445.59 133.27L445.59 94.52"/>
<path d="M445.59 94.52L422.35 94.52"/>
<path d="M422.35 94.52L422.35 133.27"/>
<path d="M422.35 303.74L422.35 319.24"/>
<path d="M422.35 319.24L445.59 319.24"/>
<path d="M445.59 319.24L445.59 303.74"/>
<path d="M197.63 133.27L267.37 133.27"/>
<path d="M352.6 133.27L422.35 133.27"/>
<path d="M445.59 133.27L468.84 133.27"/>
<path d="M197.63 303.74L298.36 303.74"/>
<path d="M422.35 133.27L430.09 133.27"/>
<path d="M430.09 133.27L430.09 102.27"/>
<path d="M430.09 102.27L437.84 102.27"/>
<path d="M437.84 102.27L437.84 133.27"/>
<path d="M437.84 133.27L445.59 133.27"/>
<path d="M430.09 102.27L422.35 94.52"/>
<path d="M437.84 102.27L445.59 94.52"/>
<path d="M329.36 303.74L422.35 303.74"/>
<path d="M445.59 303.74L468.84 303.74"/>
<path d="M445.59 303.74L437.84 303.74"/>
<path d="M437.84 303.74L437.84 311.49"/>
<path d="M437.84 311.49L430.09 311.49"/>
<path d="M430.09 311.49L430.09 303.74"/>
<path d="M430.09 303.74L422.35 303.74"/>
<path d="M430.09 311.49L422.35 319.24"/>
<path d="M437.84 311.49L445.59 319.24"/>
<path d="M158.88 326.99L461.09 326.99"/>
<path d="M461.09 326.99L461.09 303.74"/>
<path d="M251.87 133.27L251.87 148.76"/>
<path d="M251.87 148.76L267.37 148.76"/>
<path d="M368.1 133.27L368.1 148.76"/>
<path d="M368.1 148.76L352.6 148.76"/>
<path d="M461.09 133.27L461.09 63.53"/>
<path d="M461.09 63.53L375.85 63.53"/>
<path d="M375.85 63.53L375.85 133.27"/>
<path d="M461.09 117.77L476.59 117.77"/>
<path d="M492.09 133.27L492.09 303.74"/>
<path d="M476.59 319.24L461.09 319.24"/>
<path d="M492.09 133.27L490.91 127.34M490.91 127.34L487.55 122.31M487.55 122.31L482.52 118.95M482.52 118.95L476.59 117.77"/>
<path d="M476.59 319.24L482.52 318.06M482.52 318.06L487.55 314.7M487.55 314.7L490.91 309.67M490.91 309.67L492.09 303.74"/>
<path d="M476.59 141.01L475.55 137.14M475.55 137.14L472.71 134.3M472.71 134.3L468.84 133.27"/>
<path d="M468.84 303.74L472.71 302.7M472.71 302.7L475.55 299.87M475.55 299.87L476.59 295.99"/>
<path d="M275.12 148.76L275.12 179.76"/>
<path d="M275.12 179.76L344.86 179.76"/>
<path d="M344.86 179.76L344.86 148.76"/>
<path d="M344.86 148.76L275.12 148.76"/>
<path d="M275.12 148.76L282.86 133.27"/>
<path d="M344.86 148.76L337.11 133.27"/>
<path d="M337.11 133.27L282.86 133.27"/>
<path d="M321.61 133.27L321.61 129.39"/>
<path d="M333.23 117.77L356.48 117.77"/>
<path d="M368.1 106.14L368.1 59.65"/>
<path d="M356.48 48.03L263.49 48.03"/>
<path d="M251.87 59.65L251.87 106.14"/>
<path d="M263.49 117.77L286.74 117.77"/>
<path d="M298.36 129.39L298.36 133.27"/>
<path d="M333.23 117.77L327.42 119.33M327.42 119.33L323.17 123.58M323.17 123.58L321.61 129.39"/>
<path d="M298.36 129.39L296.8 123.58M296.8 123.58L292.55 119.33M292.55 119.33L286.74 117.77"/>
<path d="M251.87 106.14L253.43 111.96M253.43 111.96L257.68 116.21M257.68 116.21L263.49 117.77"/>
<path d="M321.61 303.74L329.36 303.74"/>
<path d="M263.49 48.03L257.68 49.58M257.68 49.58L253.43 53.84M253.43 53.84L251.87 59.65"/>
<path d="M368.1 59.65L366.55 53.84M366.55 53.84L362.29 49.58M362.29 49.58L356.48 48.03"/>
<path d="M244.12 63.53L251.87 63.53"/>
<path d="M368.1 63.53L375.85 63.53"/>
<path d="M244.12 102.27L251.87 102.27"/>
<path d="M368.1 102.27L375.85 102.27"/>
<path d="M356.48 117.77L362.29 116.21M362.29 116.21L366.55 111.96M366.55 111.96L368.1 106.14"/>
<path d="M222.53 371.27L224.38 376.8M224.38 376.8L224.38 365.73M224.38 365.73L222.53 371.27M222.53 371.27L218.84 367.58M218.84 367.58L213.31 365.73M213.31 365.73L209.62 365.73M209.62 365.73L204.08 367.58M204.08 367.58L200.39 371.27M200.39 371.27L198.55 374.96M198.55 374.96L196.7 380.49M196.7 380.49L196.7 389.72M196.7 389.72L198.55 395.25M198.55 395.25L200.39 398.94M200.39 398.94L204.08 402.63M204.08 402.63L209.62 404.48M209.62 404.48L213.31 404.48M213.31 404.48L218.84 402.63M218.84 402.63L222.53 398.94M209.62 365.73L205.93 367.58M205.93 367.58L202.24 371.27M202.24 371.27L200.39 374.96M200.39 374.96L198.55 380.49M198.55 380.49L198.55 389.72M198.55 389.72L200.39 395.25M200.39 395.25L202.24 398.94M202.24 398.94L205.93 402.63M205.93 402.63L209.62 404.48M222.53 389.72L222.53 404.48M224.38 389.72L224.38 404.48M217 389.72L229.91 389.72M244.67 404.48L244.67 365.73M246.52 365.73L246.52 404.48M239.14 365.73L261.28 365.73M261.28 365.73L266.81 367.58M266.81 367.58L268.66 369.42M268.66 369.42L270.5 373.11M270.5 373.11L270.5 376.8M270.5 376.8L268.66 380.49M268.66 380.49L266.81 382.34M266.81 382.34L261.28 384.18M261.28 384.18L246.52 384.18M261.28 365.73L264.97 367.58M264.97 367.58L266.81 369.42M266.81 369.42L268.66 373.11M268.66 373.11L268.66 376.8M268.66 376.8L266.81 380.49M266.81 380.49L264.97 382.34M264.97 382.34L261.28 384.18M239.14 404.48L252.05 404.48M255.74 384.18L259.43 386.03M259.43 386.03L261.28 387.87M261.28 387.87L266.81 400.79M266.81 400.79L268.66 402.63M268.66 402.63L270.5 402.63M270.5 402.63L272.35 400.79M259.43 386.03L261.28 389.72M261.28 389.72L264.97 402.63M264.97 402.63L266.81 404.48M266.81 404.48L270.5 404.48M270.5 404.48L272.35 400.79M272.35 400.79L272.35 398.94M285.26 404.48L285.26 365.73M287.11 365.73L287.11 404.48M298.18 376.8L298.18 391.56M279.73 365.73L309.25 365.73M309.25 365.73L309.25 376.8M309.25 376.8L307.4 365.73M287.11 384.18L298.18 384.18M279.73 404.48L309.25 404.48M309.25 404.48L309.25 393.41M309.25 393.41L307.4 404.48M324.01 404.48L324.01 365.73M325.85 365.73L325.85 404.48M336.92 376.8L336.92 391.56M318.47 365.73L347.99 365.73M347.99 365.73L347.99 376.8M347.99 376.8L346.15 365.73M325.85 384.18L336.92 384.18M318.47 404.48L347.99 404.48M347.99 404.48L347.99 393.41M347.99 393.41L346.15 404.48M362.75 404.48L362.75 365.73M364.6 404.48L364.6 365.73M364.6 365.73L386.74 400.79M364.6 369.42L386.74 404.48M386.74 404.48L386.74 365.73M357.22 365.73L364.6 365.73M381.2 365.73L392.27 365.73M357.22 404.48L368.29 404.48"/>
<path d="M251.87 234L259.62 241.75"/>
<path d="M259.62 241.75L259.62 249.5"/>
<path d="M259.62 249.5L267.37 249.5"/>
<path d="M267.37 249.5L267.37 241.75"/>
<path d="M267.37 241.75L259.62 241.75"/>
<path d="M267.37 241.75L275.12 234"/>
<path d="M267.37 249.5L275.12 257.25"/>
<path d="M259.62 249.5L251.87 257.25"/>
<path d="M344.86 234L352.6 241.75"/>
<path d="M352.6 241.75L352.6 249.5"/>
<path d="M352.6 249.5L360.35 249.5"/>
<path d="M360.35 249.5L360.35 241.75"/>
<path d="M360.35 241.75L352.6 241.75"/>
<path d="M360.35 241.75L368.1 234"/>
<path d="M352.6 249.5L344.86 257.25"/>
<path d="M360.35 249.5L368.1 257.25"/>
<path d="M375.85 234L383.6 241.75"/>
<path d="M383.6 241.75L383.6 249.5"/>
<path d="M383.6 249.5L391.35 249.5"/>
<path d="M391.35 249.5L391.35 241.75"/>
<path d="M391.35 241.75L383.6 241.75"/>
<path d="M391.35 241.75L399.1 234"/>
<path d="M383.6 249.5L375.85 257.25"/>
<path d="M391.35 249.5L399.1 257.25"/>
<path d="M406.85 234L414.6 241.75"/>
<path d="M414.6 241.75L414.6 249.5"/>
<path d="M414.6 249.5L422.35 249.5"/>
<path d="M422.35 249.5L422.35 241.75"/>
<path d="M422.35 241.75L414.6 241.75"/>
<path d="M422.35 241.75L430.09 234"/>
<path d="M414.6 249.5L406.85 257.25"/>
<path d="M422.35 249.5L430.09 257.25"/>
<path d="M437.84 234L445.59 241.75"/>
<path d="M445.59 241.75L445.59 249.5"/>
<path d="M445.59 249.5L453.34 249.5"/>
<path d="M453.34 249.5L453.34 241.75"/>
<path d="M453.34 241.75L445.59 241.75"/>
<path d="M453.34 241.75L461.09 234"/>
<path d="M445.59 249.5L437.84 257.25"/>
<path d="M453.34 249.5L461.09 257.25"/>
<path d="M124.01 148.76L147.26 148.76"/>
<path d="M147.26 148.76L147.26 172.01"/>
<path d="M147.26 172.01L124.01 172.01"/>
<path d="M124.01 172.01L124.01 148.76"/>
<path d="M124.01 179.76L147.26 179.76"/>
<path d="M147.26 179.76L147.26 203.01"/>
<path d="M147.26 203.01L124.01 203.01"/>
<path d="M124.01 203.01L124.01 179.76"/>
<path d="M124.01 179.76L131.76 187.51"/>
<path d="M131.76 187.51L139.51 187.51"/>
<path d="M139.51 187.51L139.51 195.26"/>
<path d="M139.51 195.26L131.76 195.26"/>
<path d="M131.76 195.26L131.76 187.51"/>
<path d="M139.51 187.51L147.26 179.76"/>
<path d="M139.51 195.26L147.26 203.01"/>
<path d="M131.76 195.26L124.01 203.01"/>
<path d="M155.01 148.76L155.01 172.01"/>
<path d="M155.01 172.01L178.25 172.01"/>
<path d="M178.25 172.01L178.25 148.76"/>
<path d="M178.25 148.76L155.01 148.76"/>
<path d="M155.01 179.76L155.01 203.01"/>
<path d="M155.01 203.01L178.25 203.01"/>
<path d="M178.25 203.01L178.25 179.76"/>
<path d="M178.25 179.76L155.01 179.76"/>
<path d="M155.01 179.76L162.76 187.51"/>
<path d="M162.76 187.51L170.5 187.51"/>
<path d="M170.5 187.51L170.5 195.26"/>
<path d="M170.5 195.26L162.76 195.26"/>
<path d="M162.76 195.26L162.76 187.51"/>
<path d="M170.5 187.51L178.25 179.76"/>
<path d="M170.5 195.26L178.25 203.01"/>
<path d="M162.76 195.26L155.01 203.01"/>
<path d="M186 148.76L186 172.01"/>
<path d="M186 172.01L209.25 172.01"/>
<path d="M209.25 172.01L209.25 148.76"/>
<path d="M209.25 148.76L186 148.76"/>
<path d="M186 179.76L186 203.01"/>
<path d="M186 203.01L209.25 203.01"/>
<path d="M209.25 203.01L209.25 179.76"/>
<path d="M209.25 179.76L186 179.76"/>
<path d="M186 179.76L193.75 187.51"/>
<path d="M193.75 187.51L193.75 195.26"/>
<path d="M193.75 195.26L201.5 195.26"/>
<path d="M201.5 195.26L201.5 187.51"/>
<path d="M201.5 187.51L193.75 187.51"/>
<path d="M201.5 187.51L209.25 179.76"/>
<path d="M201.5 195.26L209.25 203.01"/>
<path d="M193.75 195.26L186 203.01"/>
<path d="M124.01 234L124.01 257.25"/>
<path d="M124.01 257.25L147.26 257.25"/>
<path d="M147.26 257.25L147.26 234"/>
<path d="M147.26 234L124.01 234"/>
<path d="M124.01 265L124.01 288.25"/>
<path d="M124.01 288.25L147.26 288.25"/>
<path d="M147.26 288.25L147.26 265"/>
<path d="M147.26 265L124.01 265"/>
<path d="M155.01 234L155.01 257.25"/>
<path d="M155.01 257.25L178.25 257.25"/>
<path d="M178.25 257.25L178.25 234"/>
<path d="M178.25 234L155.01 234"/>
<path d="M155.01 265L155.01 288.25"/>
<path d="M155.01 288.25L178.25 288.25"/>
<path d="M178.25 288.25L178.25 265"/>
<path d="M178.25 265L155.01 265"/>
<path d="M186 234L186 257.25"/>
<path d="M186 257.25L209.25 257.25"/>
<path d="M209.25 257.25L209.25 234"/>
<path d="M209.25 234L186 234"/>
<path d="M186 265L186 288.25"/>
<path d="M186 288.25L209.25 288.25"/>
<path d="M209.25 288.25L209.25 265"/>
<path d="M209.25 265L186 265"/>
<path d="M108.51 141.01L108.51 295.99"/>
<path d="M139.51 133.27L139.51 94.52"/>
<path d="M139.51 94.52L162.76 94.52"/>
<path d="M162.76 94.52L162.76 133.27"/>
<path d="M139.51 303.74L139.51 319.24"/>
<path d="M139.51 319.24L162.76 319.24"/>
<path d="M162.76 319.24L162.76 303.74"/>
<path d="M116.26 133.27L139.51 133.27"/>
<path d="M116.26 303.74L139.51 303.74"/>
<path d="M139.51 133.27L147.26 133.27"/>
<path d="M147.26 133.27L147.26 102.27"/>
<path d="M147.26 102.27L155.01 102.27"/>
<path d="M155.01 102.27L155.01 133.27"/>
<path d="M155.01 133.27L162.76 133.27"/>
<path d="M147.26 102.27L139.51 94.52"/>
<path d="M155.01 102.27L162.76 94.52"/>
<path d="M139.51 303.74L147.26 303.74"/>
<path d="M147.26 303.74L147.26 311.49"/>
<path d="M147.26 311.49L155.01 311.49"/>
<path d="M155.01 311.49L155.01 303.74"/>
<path d="M155.01 303.74L170.5 303.74"/>
<path d="M147.26 311.49L139.51 319.24"/>
<path d="M155.01 311.49L162.76 319.24"/>
<path d="M124.01 303.74L124.01 326.99"/>
<path d="M124.01 133.27L124.01 63.53"/>
<path d="M124.01 63.53L209.25 63.53"/>
<path d="M209.25 63.53L209.25 133.27"/>
<path d="M124.01 117.77L108.51 117.77"/>
<path d="M93.01 133.27L93.01 303.74"/>
<path d="M108.51 319.24L124.01 319.24"/>
<path d="M108.51 117.77L102.58 118.95M102.58 118.95L97.55 122.31M97.55 122.31L94.19 127.34M94.19 127.34L93.01 133.27"/>
<path d="M93.01 303.74L94.19 309.67M94.19 309.67L97.55 314.7M97.55 314.7L102.58 318.06M102.58 318.06L108.51 319.24"/>
<path d="M116.26 133.27L112.39 134.3M112.39 134.3L109.55 137.14M109.55 137.14L108.51 141.01"/>
<path d="M108.51 295.99L109.55 299.87M109.55 299.87L112.39 302.7M112.39 302.7L116.26 303.74"/>
<path d="M124.01 234L131.76 241.75"/>
<path d="M131.76 241.75L131.76 249.5"/>
<path d="M131.76 249.5L139.51 249.5"/>
<path d="M139.51 249.5L139.51 241.75"/>
<path d="M139.51 241.75L131.76 241.75"/>
<path d="M139.51 241.75L147.26 234"/>
<path d="M139.51 249.5L147.26 257.25"/>
<path d="M131.76 249.5L124.01 257.25"/>
<path d="M155.01 234L162.76 241.75"/>
<path d="M162.76 241.75L170.5 241.75"/>
<path d="M170.5 241.75L170.5 249.5"/>
<path d="M170.5 249.5L162.76 249.5"/>
<path d="M162.76 249.5L162.76 241.75"/>
<path d="M170.5 241.75L178.25 234"/>
<path d="M170.5 249.5L178.25 257.25"/>
<path d="M162.76 249.5L155.01 257.25"/>
<path d="M186 234L193.75 241.75"/>
<path d="M193.75 241.75L193.75 249.5"/>
<path d="M193.75 249.5L201.5 249.5"/>
<path d="M201.5 249.5L201.5 241.75"/>
<path d="M201.5 241.75L193.75 241.75"/>
<path d="M201.5 241.75L209.25 234"/>
<path d="M201.5 249.5L209.25 257.25"/>
<path d="M193.75 249.5L186 257.25"/>
<path d="M209.25 63.53L244.12 63.53"/>
<path d="M244.12 63.53L244.12 71.27"/>
<path d="M244.12 71.27L244.12 133.27"/>
<path d="M162.76 133.27L205.37 133.27"/>
<path d="M220.87 148.76L220.87 172.01"/>
<path d="M220.87 172.01L244.12 172.01"/>
<path d="M244.12 172.01L244.12 148.76"/>
<path d="M244.12 148.76L220.87 148.76"/>
<path d="M220.87 179.76L220.87 203.01"/>
<path d="M220.87 203.01L244.12 203.01"/>
<path d="M244.12 203.01L244.12 179.76"/>
<path d="M244.12 179.76L220.87 179.76"/>
<path d="M220.87 179.76L228.62 187.51"/>
<path d="M228.62 187.51L228.62 195.26"/>
<path d="M228.62 195.26L236.37 195.26"/>
<path d="M236.37 195.26L236.37 187.51"/>
<path d="M236.37 187.51L228.62 187.51"/>
<path d="M228.62 195.26L220.87 203.01"/>
<path d="M236.37 187.51L244.12 179.76"/>
<path d="M236.37 195.26L244.12 203.01"/>
<path d="M220.87 234L220.87 257.25"/>
<path d="M220.87 257.25L244.12 257.25"/>
<path d="M244.12 257.25L244.12 234"/>
<path d="M244.12 234L220.87 234"/>
<path d="M220.87 234L228.62 241.75"/>
<path d="M228.62 241.75L228.62 249.5"/>
<path d="M228.62 249.5L236.37 249.5"/>
<path d="M236.37 249.5L236.37 241.75"/>
<path d="M236.37 241.75L228.62 241.75"/>
<path d="M236.37 241.75L244.12 234"/>
<path d="M228.62 249.5L220.87 257.25"/>
<path d="M236.37 249.5L244.12 257.25"/>
<path d="M220.87 265L220.87 288.25"/>
<path d="M220.87 288.25L244.12 288.25"/>
<path d="M244.12 288.25L244.12 265"/>
<path d="M244.12 265L220.87 265"/>
<path d="M166.63 303.74L197.63 303.74"/>
<path d="M124.01 326.99L158.88 326.99"/>
<path d="M42.83 185.66L45.78 184.19M45.78 184.19L50.21 179.76M50.21 179.76L50.21 210.76"/>
<path d="M532.12 179.76L552.79 179.76M552.79 179.76L538.03 210.76"/>
<path d="M43.57 234L39.14 235.48M39.14 235.48L37.66 238.43M37.66 238.43L37.66 241.38M37.66 241.38L39.14 244.33M39.14 244.33L42.09 245.81M42.09 245.81L48 247.29M48 247.29L52.42 248.76M52.42 248.76L55.38 251.71M55.38 251.71L56.85 254.67M56.85 254.67L56.85 259.09M56.85 259.09L55.38 262.05M55.38 262.05L53.9 263.52M53.9 263.52L49.47 265M49.47 265L43.57 265M43.57 265L39.14 263.52M39.14 263.52L37.66 262.05M37.66 262.05L36.19 259.09M36.19 259.09L36.19 254.67M36.19 254.67L37.66 251.71M37.66 251.71L40.62 248.76M40.62 248.76L45.04 247.29M45.04 247.29L50.95 245.81M50.95 245.81L53.9 244.33M53.9 244.33L55.38 241.38M55.38 241.38L55.38 238.43M55.38 238.43L53.9 235.48M53.9 235.48L49.47 234M49.47 234L43.57 234"/>
<path d="M521.05 239.91L524 238.43M524 238.43L528.43 234M528.43 234L528.43 265M562.38 238.43L560.9 235.48M560.9 235.48L556.48 234M556.48 234L553.52 234M553.52 234L549.1 235.48M549.1 235.48L546.14 239.91M546.14 239.91L544.67 247.29M544.67 247.29L544.67 254.67M544.67 254.67L546.14 260.57M546.14 260.57L549.1 263.52M549.1 263.52L553.52 265M553.52 265L555 265M555 265L559.43 263.52M559.43 263.52L562.38 260.57M562.38 260.57L563.86 256.14M563.86 256.14L563.86 254.67M563.86 254.67L562.38 250.24M562.38 250.24L559.43 247.29M559.43 247.29L555 245.81M555 245.81L553.52 245.81M553.52 245.81L549.1 247.29M549.1 247.29L546.14 250.24M546.14 250.24L544.67 254.67"/>
</g>
</g>
</svg>
