<?xml version="1.0" standalone="no"?><svg xmlns="http://www.w3.org/2000/svg" width="600.000" height="450.000" viewBox="0.0 0.0 600.000 450.000" version="1.1">
<title>Acme Converter - Post-processed with EDS-Designer: 14.44 (info@symca.com)</title>
<desc>Acme Converter - Post-processed with EDS-Designer: 14.44 (info@symca.com)</desc>
<g id="EDS_STYLE_GROUP" fill="none" stroke="black" stroke-width="1.0">
<g id="0" display="visible">
<path d="M189.07 404.4L189.07 360.66M190.72 404.4L190.72 360.66M190.72 360.66L210.44 400.23M190.72 364.82L210.44 404.4M210.44 404.4L210.44 360.66M184.14 360.66L190.72 360.66M205.51 360.66L215.37 360.66M184.14 404.4L194 404.4M236.73 360.66L225.23 404.4M236.73 360.66L248.24 404.4M236.73 366.9L246.59 404.4M228.52 391.9L243.31 391.9M221.94 404.4L231.8 404.4M241.66 404.4L251.52 404.4M267.96 404.4L267.96 360.66M269.6 360.66L269.6 404.4M258.1 360.66L256.45 373.15M256.45 373.15L256.45 360.66M256.45 360.66L281.11 360.66M281.11 360.66L281.11 373.15M281.11 373.15L279.46 360.66M263.03 404.4L274.53 404.4M292.61 360.66L292.61 391.9M292.61 391.9L294.25 398.15M294.25 398.15L297.54 402.32M297.54 402.32L302.47 404.4M302.47 404.4L305.76 404.4M305.76 404.4L310.69 402.32M310.69 402.32L313.97 398.15M313.97 398.15L315.62 391.9M315.62 391.9L315.62 360.66M294.25 360.66L294.25 391.9M294.25 391.9L295.9 398.15M295.9 398.15L299.18 402.32M299.18 402.32L302.47 404.4M287.68 360.66L299.18 360.66M310.69 360.66L320.55 360.66M332.05 404.4L332.05 360.66M333.7 360.66L333.7 404.4M327.12 360.66L346.84 360.66M346.84 360.66L351.77 362.74M351.77 362.74L353.42 364.82M353.42 364.82L355.06 368.99M355.06 368.99L355.06 373.15M355.06 373.15L353.42 377.32M353.42 377.32L351.77 379.4M351.77 379.4L346.84 381.49M346.84 381.49L333.7 381.49M346.84 360.66L350.13 362.74M350.13 362.74L351.77 364.82M351.77 364.82L353.42 368.99M353.42 368.99L353.42 373.15M353.42 373.15L351.77 377.32M351.77 377.32L350.13 379.4M350.13 379.4L346.84 381.49M327.12 404.4L338.63 404.4M341.91 381.49L345.2 383.57M345.2 383.57L346.84 385.65M346.84 385.65L351.77 400.23M351.77 400.23L353.42 402.32M353.42 402.32L355.06 402.32M355.06 402.32L356.7 400.23M345.2 383.57L346.84 387.74M346.84 387.74L350.13 402.32M350.13 402.32L351.77 404.4M351.77 404.4L355.06 404.4M355.06 404.4L356.7 400.23M356.7 400.23L356.7 398.15M378.07 360.66L366.56 404.4M378.07 360.66L389.57 404.4M378.07 366.9L387.93 404.4M369.85 391.9L384.64 391.9M363.28 404.4L373.14 404.4M383 404.4L392.86 404.4M402.72 404.4L402.72 360.66M404.36 360.66L404.36 404.4M397.79 360.66L409.29 360.66M397.79 404.4L422.44 404.4M422.44 404.4L422.44 391.9M422.44 391.9L420.8 404.4"/>
<path d="M121.02 171.1L121.02 244"/>
<path d="M470.98 171.1L470.98 244"/>
<path d="M128.31 175.47L128.31 196.61"/>
<path d="M463.69 175.47L463.69 196.61"/>
<path d="M132.69 302.33L459.31 302.33"/>
<path d="M459.31 171.1L412.65 171.1"/>
<path d="M463.69 163.81L412.65 163.81"/>
<path d="M463.69 309.62L128.31 309.62"/>
<path d="M128.31 297.96L129.6 301.05M129.6 301.05L132.69 302.33"/>
<path d="M459.31 302.33L461.5 301.74M461.5 301.74L463.1 300.14M463.1 300.14L463.69 297.96"/>
<path d="M463.69 175.47L462.41 172.38M462.41 172.38L459.31 171.1"/>
<path d="M132.69 171.1L129.6 172.38M129.6 172.38L128.31 175.47"/>
<path d="M128.31 163.81L124.67 164.78M124.67 164.78L122 167.45M122 167.45L121.02 171.1"/>
<path d="M470.98 171.1L470 167.45M470 167.45L467.33 164.78M467.33 164.78L463.69 163.81"/>
<path d="M463.69 309.62L467.33 308.64M467.33 308.64L470 305.97M470 305.97L470.98 302.33"/>
<path d="M121.02 302.33L122 305.97M122 305.97L124.67 308.64M124.67 308.64L128.31 309.62"/>
<path d="M463.69 276.81L463.69 297.96"/>
<path d="M470.98 244L470.98 302.33"/>
<path d="M128.31 276.81L128.31 297.96"/>
<path d="M121.02 244L121.02 302.33"/>
<path d="M179.35 171.1L132.69 171.1"/>
<path d="M179.35 163.81L128.31 163.81"/>
<path d="M135.61 200.26L135.61 273.17"/>
<path d="M456.4 200.26L456.4 273.17"/>
<path d="M456.4 200.26L470.98 192.97"/>
<path d="M456.4 273.17L470.98 280.46"/>
<path d="M135.61 200.26L121.02 192.97"/>
<path d="M135.61 273.17L121.02 280.46"/>
<path d="M186.64 156.51L186.64 61.74"/>
<path d="M193.93 156.51L193.93 87.25"/>
<path d="M405.36 156.51L405.36 61.74"/>
<path d="M398.07 87.25L398.07 156.51"/>
<path d="M179.35 163.81L182.99 162.83M182.99 162.83L185.66 160.16M185.66 160.16L186.64 156.51"/>
<path d="M405.36 156.51L406.34 160.16M406.34 160.16L409.01 162.83M409.01 162.83L412.65 163.81"/>
<path d="M179.35 171.1L186.64 169.14M186.64 169.14L191.98 163.81M191.98 163.81L193.93 156.51"/>
<path d="M398.07 156.51L400.03 163.81M400.03 163.81L405.36 169.14M405.36 169.14L412.65 171.1"/>
<path d="M208.51 163.81L208.51 87.25"/>
<path d="M215.8 156.51L215.8 61.74"/>
<path d="M383.49 163.81L383.49 87.25"/>
<path d="M376.2 156.51L376.2 61.74"/>
<path d="M193.93 76.32L208.51 76.32"/>
<path d="M383.49 76.32L398.07 76.32"/>
<path d="M193.93 76.32L190.29 77.29M190.29 77.29L187.62 79.96M187.62 79.96L186.64 83.61"/>
<path d="M215.8 83.61L214.83 79.96M214.83 79.96L212.16 77.29M212.16 77.29L208.51 76.32"/>
<path d="M405.36 83.61L404.39 79.96M404.39 79.96L401.72 77.29M401.72 77.29L398.07 76.32"/>
<path d="M383.49 76.32L379.84 77.29M379.84 77.29L377.18 79.96M377.18 79.96L376.2 83.61"/>
<path d="M387.14 83.61L394.43 83.61"/>
<path d="M204.87 83.61L197.58 83.61"/>
<path d="M197.58 83.61L195 84.68M195 84.68L193.93 87.25"/>
<path d="M208.51 87.25L207.44 84.68M207.44 84.68L204.87 83.61"/>
<path d="M387.14 83.61L384.56 84.68M384.56 84.68L383.49 87.25"/>
<path d="M398.07 87.25L397 84.68M397 84.68L394.43 83.61"/>
<path d="M208.51 163.81L244.97 163.81"/>
<path d="M347.04 163.81L383.49 163.81"/>
<path d="M368.91 163.81L372.55 162.83M372.55 162.83L375.22 160.16M375.22 160.16L376.2 156.51"/>
<path d="M215.8 156.51L216.78 160.16M216.78 160.16L219.45 162.83M219.45 162.83L223.09 163.81"/>
<path d="M252.26 79.23L252.26 156.51"/>
<path d="M339.75 79.23L339.75 156.51"/>
<path d="M230.38 47.15L361.62 47.15"/>
<path d="M223.09 54.44L223.09 66.01"/>
<path d="M368.91 54.44L368.91 66.01"/>
<path d="M225.23 71.16L250.12 96.05"/>
<path d="M366.77 71.16L341.88 96.05"/>
<path d="M230.38 47.15L226.74 48.13M226.74 48.13L224.07 50.8M224.07 50.8L223.09 54.44"/>
<path d="M368.91 54.44L367.93 50.8M367.93 50.8L365.26 48.13M365.26 48.13L361.62 47.15"/>
<path d="M366.77 71.16L368.35 68.8M368.35 68.8L368.91 66.01"/>
<path d="M223.09 66.01L223.65 68.8M223.65 68.8L225.23 71.16"/>
<path d="M252.26 101.21L251.7 98.42M251.7 98.42L250.12 96.05"/>
<path d="M341.88 96.05L340.3 98.42M340.3 98.42L339.75 101.21"/>
<path d="M339.75 156.51L340.72 160.16M340.72 160.16L343.39 162.83M343.39 162.83L347.04 163.81"/>
<path d="M244.97 163.81L248.61 162.83M248.61 162.83L251.28 160.16M251.28 160.16L252.26 156.51"/>
<path d="M193.93 54.44L190.29 55.42M190.29 55.42L187.62 58.09M187.62 58.09L186.64 61.74"/>
<path d="M383.49 54.44L398.07 54.44"/>
<path d="M193.93 54.44L208.51 54.44"/>
<path d="M215.8 61.74L214.83 58.09M214.83 58.09L212.16 55.42M212.16 55.42L208.51 54.44"/>
<path d="M405.36 61.74L404.39 58.09M404.39 58.09L401.72 55.42M401.72 55.42L398.07 54.44"/>
<path d="M383.49 54.44L379.84 55.42M379.84 55.42L377.18 58.09M377.18 58.09L376.2 61.74"/>
<path d="M252.26 83.61L339.75 83.61"/>
<path d="M255.17 76.32L266.84 76.32"/>
<path d="M255.17 76.32L253.11 77.17M253.11 77.17L252.26 79.23"/>
<path d="M339.75 79.23L338.89 77.17M338.89 77.17L336.83 76.32"/>
<path d="M325.16 76.32L336.83 76.32"/>
<path d="M266.84 65.09L325.16 65.09M325.16 65.09L325.16 79.67M325.16 79.67L266.84 79.67M266.84 79.67L266.84 65.09"/>
<path d="M262.46 76.32L262.46 64.65"/>
<path d="M329.54 64.65L329.54 76.32"/>
<path d="M265.38 61.74L326.62 61.74"/>
<path d="M265.38 61.74L263.32 62.59M263.32 62.59L262.46 64.65"/>
<path d="M329.54 64.65L328.68 62.59M328.68 62.59L326.62 61.74"/>
<path d="M150.19 207.55L266.84 207.55"/>
<path d="M441.82 207.55L325.16 207.55"/>
<path d="M266.84 207.55L266.84 244"/>
<path d="M325.16 207.55L325.16 244"/>
<path d="M441.82 207.55L441.82 244"/>
<path d="M150.19 207.55L150.19 244"/>
<path d="M150.19 244L186.64 244"/>
<path d="M266.84 244L230.38 244"/>
<path d="M325.16 244L361.62 244"/>
<path d="M441.82 244L405.36 244"/>
<path d="M186.64 236.71L186.64 280.46"/>
<path d="M230.38 236.71L230.38 280.46"/>
<path d="M361.62 236.71L361.62 280.46"/>
<path d="M405.36 236.71L405.36 280.46"/>
<path d="M157.48 236.71L186.64 236.71"/>
<path d="M157.48 236.71L157.48 214.84"/>
<path d="M157.48 214.84L259.55 214.84"/>
<path d="M259.55 214.84L259.55 236.71"/>
<path d="M230.38 236.71L259.55 236.71"/>
<path d="M361.62 236.71L332.46 236.71"/>
<path d="M332.46 236.71L332.46 214.84"/>
<path d="M332.46 214.84L434.53 214.84"/>
<path d="M434.53 214.84L434.53 236.71"/>
<path d="M434.53 236.71L405.36 236.71"/>
<path d="M434.53 214.84L441.82 207.55"/>
<path d="M434.53 236.71L441.82 244"/>
<path d="M332.46 214.84L325.16 207.55"/>
<path d="M332.46 236.71L325.16 244"/>
<path d="M266.84 244L259.55 236.71"/>
<path d="M259.55 214.84L266.84 207.55"/>
<path d="M150.19 207.55L157.48 214.84"/>
<path d="M157.48 236.71L150.19 244"/>
<path d="M179.35 280.46L237.68 280.46"/>
<path d="M354.33 280.46L412.65 280.46"/>
<path d="M354.33 258.59L412.65 258.59"/>
<path d="M412.65 258.59L412.65 280.46"/>
<path d="M354.33 258.59L354.33 280.46"/>
<path d="M179.35 258.59L237.68 258.59"/>
<path d="M237.68 258.59L237.68 273.17"/>
<path d="M237.68 273.17L237.68 280.46"/>
<path d="M179.35 258.59L179.35 280.46"/>
<path d="M186.64 265.88L230.38 265.88"/>
<path d="M361.62 265.88L405.36 265.88"/>
<path d="M354.33 273.17L361.62 273.17"/>
<path d="M405.36 273.17L412.65 273.17"/>
<path d="M186.64 273.17L179.35 273.17"/>
<path d="M230.38 273.17L237.68 273.17"/>
<path d="M186.64 276.81L230.38 276.81"/>
<path d="M361.62 276.81L405.36 276.81"/>
<path d="M186.64 269.52L230.38 269.52"/>
<path d="M361.62 269.52L405.36 269.52"/>
<path d="M80.23 221.78L83.7 220.05M83.7 220.05L88.91 214.84M88.91 214.84L88.91 251.29"/>
<path d="M497.02 223.52L497.02 221.78M497.02 221.78L498.75 218.31M498.75 218.31L500.49 216.58M500.49 216.58L503.96 214.84M503.96 214.84L510.9 214.84M510.9 214.84L514.38 216.58M514.38 216.58L516.11 218.31M516.11 218.31L517.85 221.78M517.85 221.78L517.85 225.26M517.85 225.26L516.11 228.73M516.11 228.73L512.64 233.94M512.64 233.94L495.28 251.29M495.28 251.29L519.58 251.29"/>
<path d="M281.42 163.81L310.58 163.81M310.58 163.81L310.58 185.68M310.58 185.68L281.42 185.68M281.42 185.68L281.42 163.81"/>
<path d="M142.9 280.46L164.77 280.46M164.77 280.46L164.77 295.04M164.77 295.04L142.9 295.04M142.9 295.04L142.9 280.46"/>
<path d="M449.11 280.46L427.23 280.46M427.23 280.46L427.23 295.04M427.23 295.04L449.11 295.04M449.11 295.04L449.11 280.46"/>
<path d="M281.42 280.46L310.58 280.46M310.58 280.46L310.58 295.04M310.58 295.04L281.42 295.04M281.42 295.04L281.42 280.46"/>
<path d="M142.9 309.62L142.9 324.2"/>
<path d="M449.11 309.62L449.11 324.2"/>
<path d="M142.9 324.2L449.11 324.2"/>
<path d="M172.06 338.78L419.94 338.78"/>
<path d="M157.48 324.2L172.06 338.78"/>
<path d="M434.53 324.2L419.94 338.78"/>
<path d="M164.77 309.62L164.77 324.2"/>
<path d="M427.23 309.62L427.23 324.2"/>
<path d="M266.84 309.62L266.84 324.2"/>
<path d="M325.16 309.62L325.16 324.2"/>
<path d="M142.9 316.91L449.11 316.91"/>
</g>
</g>
</svg>
