<?xml version="1.0" standalone="no"?><svg xmlns="http://www.w3.org/2000/svg" width="600.000" height="450.000" viewBox="0.0 0.0 600.000 450.000" version="1.1">
<title>Acme Converter - Post-processed with EDS-Designer: 14.44 (info@symca.com)</title>
<desc>Acme Converter - Post-processed with EDS-Designer: 14.44 (info@symca.com)</desc>
<g id="EDS_STYLE_GROUP" fill="none" stroke="black" stroke-width="1.0">
<g id="0" display="visible">
<path d="M125.69 177.2L128.87 175.61M128.87 175.61L133.63 170.84M133.63 170.84L133.63 204.21"/>
<path d="M455.4 170.84L472.88 170.84M472.88 170.84L463.35 183.56M463.35 183.56L468.11 183.56M468.11 183.56L471.29 185.15M471.29 185.15L472.88 186.73M472.88 186.73L474.47 191.5M474.47 191.5L474.47 194.68M474.47 194.68L472.88 199.45M472.88 199.45L469.7 202.62M469.7 202.62L464.94 204.21M464.94 204.21L460.17 204.21M460.17 204.21L455.4 202.62M455.4 202.62L453.81 201.04M453.81 201.04L452.22 197.86"/>
<path d="M196.4 175.02L196.4 216.73"/>
<path d="M204.74 175.02L196.4 175.02"/>
<path d="M196.4 216.73L246.45 216.73"/>
<path d="M246.45 216.73L246.45 175.02"/>
<path d="M238.11 175.02L233.94 175.02"/>
<path d="M246.45 175.02L238.11 175.02"/>
<path d="M233.94 175.02L233.94 183.36"/>
<path d="M204.74 208.38L204.74 183.36"/>
<path d="M238.11 183.36L238.11 208.38"/>
<path d="M238.11 208.38L204.74 208.38"/>
<path d="M204.74 175.02L204.74 154.16"/>
<path d="M204.74 154.16L196.4 154.16"/>
<path d="M196.4 154.16L196.4 145.82"/>
<path d="M204.74 137.48L238.11 137.48"/>
<path d="M246.45 145.82L246.45 154.16"/>
<path d="M246.45 154.16L238.11 154.16"/>
<path d="M238.11 154.16L238.11 175.02"/>
<path d="M204.74 137.48L200.57 138.59M200.57 138.59L197.52 141.65M197.52 141.65L196.4 145.82"/>
<path d="M246.45 145.82L245.33 141.65M245.33 141.65L242.28 138.59M242.28 138.59L238.11 137.48"/>
<path d="M204.74 183.36L208.91 183.36"/>
<path d="M208.91 183.36L208.91 175.02"/>
<path d="M208.91 175.02L204.74 175.02"/>
<path d="M204.74 183.36L196.4 175.02"/>
<path d="M204.74 208.38L196.4 216.73"/>
<path d="M238.11 208.38L246.45 216.73"/>
<path d="M233.94 183.36L238.11 183.36"/>
<path d="M238.11 183.36L246.45 175.02"/>
<path d="M175.54 124.96L175.54 237.58"/>
<path d="M183.88 245.92L213.08 245.92"/>
<path d="M213.08 245.92L238.11 229.24"/>
<path d="M238.11 229.24L354.9 229.24"/>
<path d="M354.9 229.24L379.93 245.92"/>
<path d="M379.93 245.92L409.12 245.92"/>
<path d="M417.46 237.58L417.46 124.96"/>
<path d="M409.12 116.62L183.88 116.62"/>
<path d="M175.54 250.09L175.54 275.12"/>
<path d="M175.54 275.12L192.23 275.12"/>
<path d="M192.23 275.12L192.23 250.09"/>
<path d="M175.54 275.12L175.54 310.99"/>
<path d="M185.55 321L407.45 321"/>
<path d="M417.46 310.99L417.46 248.98"/>
<path d="M196.4 250.09L196.4 300.15"/>
<path d="M196.4 300.15L396.61 300.15"/>
<path d="M396.61 300.15L396.61 250.09"/>
<path d="M204.74 250.09L204.74 291.81"/>
<path d="M204.74 291.81L221.42 291.81"/>
<path d="M221.42 291.81L221.42 283.46"/>
<path d="M221.42 283.46L359.07 283.46"/>
<path d="M388.27 250.09L388.27 291.81"/>
<path d="M388.27 291.81L371.58 291.81"/>
<path d="M371.58 291.81L371.58 283.46"/>
<path d="M371.58 283.46L359.07 283.46"/>
<path d="M221.42 247.31L221.42 283.46"/>
<path d="M371.58 247.31L371.58 283.46"/>
<path d="M171.37 120.79L171.37 241.75"/>
<path d="M179.71 250.09L213.08 250.09"/>
<path d="M213.08 250.09L238.11 233.41"/>
<path d="M238.11 233.41L354.9 233.41"/>
<path d="M354.9 233.41L379.93 250.09"/>
<path d="M379.93 250.09L413.29 250.09"/>
<path d="M421.64 241.75L421.64 120.79"/>
<path d="M413.29 112.45L179.71 112.45"/>
<path d="M183.88 116.62L179.71 117.74M179.71 117.74L176.66 120.79M176.66 120.79L175.54 124.96"/>
<path d="M417.46 124.96L416.35 120.79M416.35 120.79L413.29 117.74M413.29 117.74L409.12 116.62"/>
<path d="M409.12 245.92L413.29 244.81M413.29 244.81L416.35 241.75M416.35 241.75L417.46 237.58"/>
<path d="M175.54 237.58L176.66 241.75M176.66 241.75L179.71 244.81M179.71 244.81L183.88 245.92"/>
<path d="M179.71 112.45L175.54 113.57M175.54 113.57L172.49 116.62M172.49 116.62L171.37 120.79"/>
<path d="M421.64 120.79L420.52 116.62M420.52 116.62L417.46 113.57M417.46 113.57L413.29 112.45"/>
<path d="M413.29 250.09L417.46 248.98M417.46 248.98L420.52 245.92M420.52 245.92L421.64 241.75"/>
<path d="M171.37 241.75L172.49 245.92M172.49 245.92L175.54 248.98M175.54 248.98L179.71 250.09"/>
<path d="M407.45 321L412.46 319.66M412.46 319.66L416.12 316M416.12 316L417.46 310.99"/>
<path d="M175.54 310.99L176.88 316M176.88 316L180.55 319.66M180.55 319.66L185.55 321"/>
<path d="M209.11 362.71L217.05 404.42M211.1 362.71L217.05 394.49M225 362.71L217.05 404.42M225 362.71L232.94 404.42M226.99 362.71L232.94 394.49M240.89 362.71L232.94 404.42M203.15 362.71L217.05 362.71M234.93 362.71L246.85 362.71M256.78 404.42L256.78 362.71M258.77 362.71L258.77 404.42M282.6 404.42L282.6 362.71M284.59 362.71L284.59 404.42M250.82 362.71L264.72 362.71M276.64 362.71L290.55 362.71M258.77 382.58L282.6 382.58M250.82 404.42L264.72 404.42M276.64 404.42L290.55 404.42M304.45 404.42L304.45 362.71M306.43 362.71L306.43 404.42M298.49 362.71L312.39 362.71M298.49 404.42L312.39 404.42M334.24 404.42L334.24 362.71M336.23 362.71L336.23 404.42M322.32 362.71L320.34 374.63M320.34 374.63L320.34 362.71M320.34 362.71L350.13 362.71M350.13 362.71L350.13 374.63M350.13 374.63L348.15 362.71M328.28 404.42L342.19 404.42M364.04 404.42L364.04 362.71M366.02 362.71L366.02 404.42M377.94 374.63L377.94 390.52M358.08 362.71L389.86 362.71M389.86 362.71L389.86 374.63M389.86 374.63L387.87 362.71M366.02 382.58L377.94 382.58M358.08 404.42L389.86 404.42M389.86 404.42L389.86 392.51M389.86 392.51L387.87 404.42"/>
<path d="M225.6 112.45L225.6 104.11"/>
<path d="M225.6 104.11L254.79 104.11"/>
<path d="M254.79 104.11L254.79 79.08"/>
<path d="M254.79 79.08L338.21 79.08"/>
<path d="M338.21 79.08L338.21 104.11"/>
<path d="M338.21 104.11L367.41 104.11"/>
<path d="M367.41 104.11L367.41 112.45"/>
<path d="M254.79 79.08L254.79 45.71"/>
<path d="M254.79 45.71L338.21 45.71"/>
<path d="M338.21 45.71L338.21 79.08"/>
<path d="M246.45 104.11L243.89 91.3"/>
<path d="M234.07 83.25L233.64 83.25"/>
<path d="M223.82 95.23L225.6 104.11"/>
<path d="M367.41 104.11L369.19 95.23"/>
<path d="M359.37 83.25L358.93 83.25"/>
<path d="M349.12 91.3L346.56 104.11"/>
<path d="M233.64 83.25L228.07 84.94M228.07 84.94L224.38 89.44M224.38 89.44L223.82 95.23"/>
<path d="M243.89 91.3L242.01 87.16M242.01 87.16L238.5 84.28M238.5 84.28L234.07 83.25"/>
<path d="M358.93 83.25L354.51 84.28M354.51 84.28L351 87.16M351 87.16L349.12 91.3"/>
<path d="M369.19 95.23L368.62 89.44M368.62 89.44L364.94 84.94M364.94 84.94L359.37 83.25"/>
<path d="M279.82 208.38L279.82 183.36"/>
<path d="M279.82 183.36L283.99 183.36"/>
<path d="M283.99 183.36L283.99 175.02"/>
<path d="M283.99 175.02L279.82 175.02"/>
<path d="M279.82 175.02L271.48 175.02"/>
<path d="M279.82 183.36L271.48 175.02"/>
<path d="M271.48 175.02L271.48 216.73"/>
<path d="M279.82 208.38L271.48 216.73"/>
<path d="M271.48 216.73L321.53 216.73"/>
<path d="M313.19 208.38L279.82 208.38"/>
<path d="M313.19 208.38L321.53 216.73"/>
<path d="M321.53 216.73L321.53 175.02"/>
<path d="M313.19 183.36L313.19 208.38"/>
<path d="M309.02 183.36L313.19 183.36"/>
<path d="M309.02 175.02L309.02 183.36"/>
<path d="M313.19 175.02L309.02 175.02"/>
<path d="M313.19 183.36L321.53 175.02"/>
<path d="M321.53 175.02L313.19 175.02"/>
<path d="M313.19 154.16L313.19 175.02"/>
<path d="M321.53 154.16L313.19 154.16"/>
<path d="M321.53 145.82L321.53 154.16"/>
<path d="M321.53 145.82L320.41 141.65M320.41 141.65L317.36 138.59M317.36 138.59L313.19 137.48"/>
<path d="M279.82 137.48L313.19 137.48"/>
<path d="M279.82 137.48L275.65 138.59M275.65 138.59L272.59 141.65M272.59 141.65L271.48 145.82"/>
<path d="M271.48 154.16L271.48 145.82"/>
<path d="M279.82 175.02L279.82 154.16"/>
<path d="M279.82 154.16L271.48 154.16"/>
<path d="M354.9 208.38L354.9 183.36"/>
<path d="M354.9 183.36L359.07 183.36"/>
<path d="M359.07 183.36L359.07 175.02"/>
<path d="M359.07 175.02L354.9 175.02"/>
<path d="M354.9 175.02L346.56 175.02"/>
<path d="M354.9 183.36L346.56 175.02"/>
<path d="M346.56 175.02L346.56 216.73"/>
<path d="M354.9 208.38L346.56 216.73"/>
<path d="M346.56 216.73L396.61 216.73"/>
<path d="M388.27 208.38L354.9 208.38"/>
<path d="M388.27 208.38L396.61 216.73"/>
<path d="M396.61 216.73L396.61 175.02"/>
<path d="M388.27 183.36L388.27 208.38"/>
<path d="M384.1 183.36L388.27 183.36"/>
<path d="M384.1 175.02L384.1 183.36"/>
<path d="M388.27 175.02L384.1 175.02"/>
<path d="M388.27 183.36L396.61 175.02"/>
<path d="M396.61 175.02L388.27 175.02"/>
<path d="M388.27 154.16L388.27 175.02"/>
<path d="M396.61 154.16L388.27 154.16"/>
<path d="M396.61 145.82L396.61 154.16"/>
<path d="M396.61 145.82L395.49 141.65M395.49 141.65L392.44 138.59M392.44 138.59L388.27 137.48"/>
<path d="M354.9 137.48L388.27 137.48"/>
<path d="M354.9 137.48L350.73 138.59M350.73 138.59L347.67 141.65M347.67 141.65L346.56 145.82"/>
<path d="M346.56 154.16L346.56 145.82"/>
<path d="M354.9 175.02L354.9 154.16"/>
<path d="M354.9 154.16L346.56 154.16"/>
</g>
</g>
</svg>
