<?xml version="1.0" standalone="no"?><svg xmlns="http://www.w3.org/2000/svg" width="600.000" height="450.000" viewBox="0.0 0.0 600.000 450.000" version="1.1">
<title>Acme Converter - Post-processed with EDS-Designer: 14.44 (info@symca.com)</title>
<desc>Acme Converter - Post-processed with EDS-Designer: 14.44 (info@symca.com)</desc>
<g id="EDS_STYLE_GROUP" fill="none" stroke="black" stroke-width="1.0">
<g id="0" display="visible">
<path d="M131.69 165.18L131.69 222.16M131.69 222.16L188.66 222.16M188.66 222.16L188.66 165.18M188.66 165.18L131.69 165.18"/>
<path d="M200.06 165.18L200.06 222.16M200.06 222.16L257.03 222.16M257.03 222.16L257.03 165.18M257.03 165.18L200.06 165.18"/>
<path d="M268.42 165.18L268.42 222.16M268.42 222.16L325.4 222.16M325.4 222.16L325.4 165.18M325.4 165.18L268.42 165.18"/>
<path d="M336.79 165.18L336.79 222.16M336.79 222.16L393.77 222.16M393.77 222.16L393.77 165.18M393.77 165.18L336.79 165.18"/>
<path d="M405.16 165.18L405.16 222.16M405.16 222.16L462.13 222.16M462.13 222.16L462.13 165.18M462.13 165.18L405.16 165.18"/>
<path d="M120.29 301.92L473.53 301.92"/>
<path d="M200.06 91.12L268.42 91.12M268.42 91.12L268.42 153.79M268.42 153.79L325.4 153.79M325.4 153.79L325.4 91.12M325.4 91.12L393.77 91.12"/>
<path d="M137.38 233.55L182.96 233.55M182.96 233.55L182.96 279.13M182.96 279.13L137.38 279.13M137.38 279.13L137.38 233.55"/>
<path d="M205.75 233.55L251.33 233.55M251.33 233.55L251.33 279.13M251.33 279.13L205.75 279.13M205.75 279.13L205.75 233.55"/>
<path d="M274.12 233.55L319.7 233.55M319.7 233.55L319.7 279.13M319.7 279.13L274.12 279.13M274.12 279.13L274.12 233.55"/>
<path d="M342.49 233.55L388.07 233.55M388.07 233.55L388.07 279.13M388.07 279.13L342.49 279.13M342.49 279.13L342.49 233.55"/>
<path d="M410.86 233.55L456.44 233.55M456.44 233.55L456.44 279.13M456.44 279.13L410.86 279.13M410.86 279.13L410.86 233.55"/>
<path d="M71.32 187.7L74.04 186.34M74.04 186.34L78.1 182.28M78.1 182.28L78.1 210.76"/>
<path d="M525.89 182.28L512.33 182.28M512.33 182.28L510.97 194.48M510.97 194.48L512.33 193.13M512.33 193.13L516.39 191.77M516.39 191.77L520.46 191.77M520.46 191.77L524.53 193.13M524.53 193.13L527.25 195.84M527.25 195.84L528.6 199.91M528.6 199.91L528.6 202.62M528.6 202.62L527.25 206.69M527.25 206.69L524.53 209.41M524.53 209.41L520.46 210.76M520.46 210.76L516.39 210.76M516.39 210.76L512.33 209.41M512.33 209.41L510.97 208.05M510.97 208.05L509.61 205.34"/>
<path d="M137.38 301.92L137.38 347.5"/>
<path d="M137.38 347.5L456.44 347.5"/>
<path d="M456.44 347.5L456.44 301.92"/>
<path d="M194.36 153.79L200.06 153.79"/>
<path d="M200.06 153.79L200.06 68.33"/>
<path d="M200.06 68.33L393.77 68.33"/>
<path d="M393.77 68.33L393.77 153.79"/>
<path d="M393.77 153.79L433.65 153.79"/>
<path d="M433.65 153.79L433.65 85.42"/>
<path d="M439.34 79.72L467.83 79.72"/>
<path d="M473.53 85.42L473.53 301.92"/>
<path d="M194.36 153.79L194.36 131"/>
<path d="M188.66 125.3L125.99 125.3"/>
<path d="M120.29 131L120.29 301.92"/>
<path d="M268.42 119.6L325.4 119.6"/>
<path d="M200.06 79.72L268.42 79.72"/>
<path d="M268.42 79.72L268.42 91.12"/>
<path d="M325.4 91.12L325.4 79.72"/>
<path d="M325.4 79.72L393.77 79.72"/>
<path d="M405.16 96.81L393.77 102.51"/>
<path d="M188.66 96.81L200.06 102.51"/>
<path d="M188.66 96.81L188.66 45.54"/>
<path d="M188.66 45.54L405.16 45.54"/>
<path d="M405.16 45.54L405.16 96.81"/>
<path d="M268.42 102.51L325.4 102.51"/>
<path d="M473.53 165.18L484.92 165.18"/>
<path d="M490.62 170.88L490.62 296.22"/>
<path d="M484.92 301.92L473.53 301.92"/>
<path d="M120.29 165.18L108.9 165.18"/>
<path d="M103.2 170.88L103.2 296.22"/>
<path d="M108.9 301.92L120.29 301.92"/>
<path d="M490.62 170.88L488.95 166.85M488.95 166.85L484.92 165.18"/>
<path d="M484.92 301.92L487.77 301.16M487.77 301.16L489.86 299.07M489.86 299.07L490.62 296.22"/>
<path d="M103.2 296.22L104.87 300.25M104.87 300.25L108.9 301.92"/>
<path d="M108.9 165.18L104.87 166.85M104.87 166.85L103.2 170.88"/>
<path d="M439.34 79.72L435.32 81.39M435.32 81.39L433.65 85.42"/>
<path d="M473.53 85.42L471.86 81.39M471.86 81.39L467.83 79.72"/>
<path d="M125.99 125.3L121.96 126.97M121.96 126.97L120.29 131"/>
<path d="M194.36 131L192.69 126.97M192.69 126.97L188.66 125.3"/>
<path d="M490.62 170.88L490.62 54.8"/>
<path d="M487.06 51.24L482.79 51.24"/>
<path d="M479.23 54.8L479.23 165.18"/>
<path d="M103.2 170.88L103.2 54.8"/>
<path d="M106.76 51.24L111.03 51.24"/>
<path d="M114.59 54.8L114.59 165.18"/>
<path d="M482.79 51.24L480.27 52.28M480.27 52.28L479.23 54.8"/>
<path d="M490.62 54.8L489.58 52.28M489.58 52.28L487.06 51.24"/>
<path d="M106.76 51.24L104.24 52.28M104.24 52.28L103.2 54.8"/>
<path d="M114.59 54.8L113.55 52.28M113.55 52.28L111.03 51.24"/>
<path d="M456.44 336.1L467.74 333.41M467.74 333.41L477.66 327.36M477.66 327.36L485.22 318.53M485.22 318.53L489.69 307.81M489.69 307.81L490.62 296.22"/>
<path d="M456.44 319.01L464.47 316.02M464.47 316.02L470.54 309.96M470.54 309.96L473.53 301.92"/>
<path d="M137.38 336.1L126.08 333.41M126.08 333.41L116.16 327.36M116.16 327.36L108.6 318.53M108.6 318.53L104.13 307.81M104.13 307.81L103.2 296.22"/>
<path d="M137.38 319.01L129.35 316.02M129.35 316.02L123.28 309.96M123.28 309.96L120.29 301.92"/>
<path d="M137.38 249.67L153.5 233.55"/>
<path d="M137.38 265.78L169.61 233.55"/>
<path d="M140.15 279.13L182.96 236.32"/>
<path d="M156.26 279.13L182.96 252.43"/>
<path d="M172.38 279.13L182.96 268.55"/>
<path d="M205.75 245.76L217.96 233.55"/>
<path d="M205.75 261.87L234.07 233.55"/>
<path d="M205.75 277.99L250.19 233.55"/>
<path d="M220.72 279.13L251.33 248.52"/>
<path d="M236.84 279.13L251.33 264.64"/>
<path d="M274.12 241.85L282.42 233.55"/>
<path d="M274.12 257.96L298.53 233.55"/>
<path d="M274.12 274.08L314.64 233.55"/>
<path d="M285.18 279.13L319.7 244.61"/>
<path d="M301.29 279.13L319.7 260.73"/>
<path d="M342.49 237.94L346.87 233.55"/>
<path d="M317.41 279.13L319.7 276.84"/>
<path d="M342.49 254.05L362.99 233.55"/>
<path d="M342.49 270.17L379.1 233.55"/>
<path d="M349.64 279.13L388.07 240.7"/>
<path d="M365.75 279.13L388.07 256.82"/>
<path d="M410.86 234.03L411.33 233.55"/>
<path d="M381.87 279.13L388.07 272.93"/>
<path d="M410.86 250.14L427.45 233.55"/>
<path d="M410.86 266.26L443.56 233.55"/>
<path d="M414.1 279.13L456.44 236.79"/>
<path d="M430.21 279.13L456.44 252.91"/>
<path d="M446.33 279.13L456.44 269.02"/>
<path d="M142.27 404.47L142.27 370.29M143.9 370.29L143.9 404.47M137.38 370.29L148.78 370.29M137.38 404.47L161.8 404.47M161.8 404.47L161.8 394.71M161.8 394.71L160.17 404.47M171.57 404.47L171.57 370.29M173.2 370.29L173.2 404.47M166.69 370.29L178.08 370.29M166.69 404.47L178.08 404.47M207.38 375.17L209.01 380.06M209.01 380.06L209.01 370.29M209.01 370.29L207.38 375.17M207.38 375.17L204.12 371.92M204.12 371.92L199.24 370.29M199.24 370.29L195.99 370.29M195.99 370.29L191.1 371.92M191.1 371.92L187.85 375.17M187.85 375.17L186.22 378.43M186.22 378.43L184.59 383.31M184.59 383.31L184.59 391.45M184.59 391.45L186.22 396.33M186.22 396.33L187.85 399.59M187.85 399.59L191.1 402.84M191.1 402.84L195.99 404.47M195.99 404.47L199.24 404.47M199.24 404.47L204.12 402.84M204.12 402.84L207.38 399.59M195.99 370.29L192.73 371.92M192.73 371.92L189.47 375.17M189.47 375.17L187.85 378.43M187.85 378.43L186.22 383.31M186.22 383.31L186.22 391.45M186.22 391.45L187.85 396.33M187.85 396.33L189.47 399.59M189.47 399.59L192.73 402.84M192.73 402.84L195.99 404.47M207.38 391.45L207.38 404.47M209.01 391.45L209.01 404.47M202.5 391.45L213.89 391.45M226.91 404.47L226.91 370.29M228.54 370.29L228.54 404.47M248.08 404.47L248.08 370.29M249.7 370.29L249.7 404.47M222.03 370.29L233.43 370.29M243.19 370.29L254.59 370.29M228.54 386.57L248.08 386.57M222.03 404.47L233.43 404.47M243.19 404.47L254.59 404.47M272.49 404.47L272.49 370.29M274.12 370.29L274.12 404.47M262.73 370.29L261.1 380.06M261.1 380.06L261.1 370.29M261.1 370.29L285.52 370.29M285.52 370.29L285.52 380.06M285.52 380.06L283.89 370.29M267.61 404.47L279 404.47M331.09 404.47L331.09 370.29M332.72 370.29L332.72 404.47M326.21 370.29L345.75 370.29M345.75 370.29L350.63 371.92M350.63 371.92L352.26 373.54M352.26 373.54L353.88 376.8M353.88 376.8L353.88 380.06M353.88 380.06L352.26 383.31M352.26 383.31L350.63 384.94M350.63 384.94L345.75 386.57M345.75 370.29L349 371.92M349 371.92L350.63 373.54M350.63 373.54L352.26 376.8M352.26 376.8L352.26 380.06M352.26 380.06L350.63 383.31M350.63 383.31L349 384.94M349 384.94L345.75 386.57M332.72 386.57L345.75 386.57M345.75 386.57L350.63 388.19M350.63 388.19L352.26 389.82M352.26 389.82L353.88 393.08M353.88 393.08L353.88 397.96M353.88 397.96L352.26 401.22M352.26 401.22L350.63 402.84M350.63 402.84L345.75 404.47M345.75 404.47L326.21 404.47M345.75 386.57L349 388.19M349 388.19L350.63 389.82M350.63 389.82L352.26 393.08M352.26 393.08L352.26 397.96M352.26 397.96L350.63 401.22M350.63 401.22L349 402.84M349 402.84L345.75 404.47M366.91 404.47L366.91 370.29M368.53 370.29L368.53 404.47M362.02 370.29L373.42 370.29M362.02 404.47L386.44 404.47M386.44 404.47L386.44 394.71M386.44 394.71L384.81 404.47M396.21 370.29L396.21 394.71M396.21 394.71L397.84 399.59M397.84 399.59L401.09 402.84M401.09 402.84L405.97 404.47M405.97 404.47L409.23 404.47M409.23 404.47L414.11 402.84M414.11 402.84L417.37 399.59M417.37 399.59L419 394.71M419 394.71L419 370.29M397.84 370.29L397.84 394.71M397.84 394.71L399.46 399.59M399.46 399.59L402.72 402.84M402.72 402.84L405.97 404.47M391.32 370.29L402.72 370.29M414.11 370.29L423.88 370.29M435.28 404.47L435.28 370.29M436.9 370.29L436.9 404.47M446.67 380.06L446.67 393.08M430.39 370.29L456.44 370.29M456.44 370.29L456.44 380.06M456.44 380.06L454.81 370.29M436.9 386.57L446.67 386.57M430.39 404.47L456.44 404.47M456.44 404.47L456.44 394.71M456.44 394.71L454.81 404.47"/>
</g>
</g>
</svg>
