<?xml version="1.0" standalone="no"?><svg xmlns="http://www.w3.org/2000/svg" width="600.000" height="450.000" viewBox="0.0 0.0 600.000 450.000" version="1.1">
<title>Acme Converter - Post-processed with EDS-Designer: 14.44 (info@symca.com)</title>
<desc>Acme Converter - Post-processed with EDS-Designer: 14.44 (info@symca.com)</desc>
<g id="EDS_STYLE_GROUP" fill="none" stroke="black" stroke-width="1.0">
<g id="0" display="visible">
<path d="M97.78 165.15L97.78 222.15M97.78 222.15L154.78 222.15M154.78 222.15L154.78 165.15M154.78 165.15L97.78 165.15"/>
<path d="M166.18 165.15L166.18 222.15M166.18 222.15L223.18 222.15M223.18 222.15L223.18 165.15M223.18 165.15L166.18 165.15"/>
<path d="M234.58 165.15L234.58 222.15M234.58 222.15L291.59 222.15M291.59 222.15L291.59 165.15M291.59 165.15L234.58 165.15"/>
<path d="M302.99 165.15L302.99 222.15M302.99 222.15L359.99 222.15M359.99 222.15L359.99 165.15M359.99 165.15L302.99 165.15"/>
<path d="M371.39 165.15L371.39 222.15M371.39 222.15L428.39 222.15M428.39 222.15L428.39 165.15M428.39 165.15L371.39 165.15"/>
<path d="M508.19 51.15L519.59 51.15M519.59 51.15L519.59 324.76M519.59 324.76L508.19 324.76M508.19 324.76L508.19 51.15"/>
<path d="M74.98 51.15L86.38 51.15M86.38 51.15L86.38 324.76M86.38 324.76L74.98 324.76M74.98 324.76L74.98 51.15"/>
<path d="M86.38 301.96L508.19 301.96"/>
<path d="M86.38 136.65L194.68 136.65M194.68 136.65L194.68 153.75M194.68 153.75L200.38 153.75M200.38 153.75L200.38 79.65M200.38 79.65L394.19 79.65M394.19 79.65L394.19 153.75M394.19 153.75L399.89 153.75M399.89 153.75L399.89 136.65M399.89 136.65L508.19 136.65"/>
<path d="M200.38 91.05L268.79 91.05M268.79 91.05L268.79 153.75M268.79 153.75L325.79 153.75M325.79 153.75L325.79 91.05M325.79 91.05L394.19 91.05"/>
<path d="M268.79 96.75L325.79 96.75"/>
<path d="M268.79 108.15L325.79 108.15"/>
<path d="M200.38 96.75L188.98 96.75M188.98 96.75L188.98 45.45M188.98 45.45L405.59 45.45M405.59 45.45L405.59 96.75M405.59 96.75L394.19 96.75"/>
<path d="M103.48 233.56L149.08 233.56M149.08 233.56L149.08 279.16M149.08 279.16L103.48 279.16M103.48 279.16L103.48 233.56"/>
<path d="M171.88 233.56L217.48 233.56M217.48 233.56L217.48 279.16M217.48 279.16L171.88 279.16M171.88 279.16L171.88 233.56"/>
<path d="M240.28 233.56L285.89 233.56M285.89 233.56L285.89 279.16M285.89 279.16L240.28 279.16M240.28 279.16L240.28 233.56"/>
<path d="M308.69 233.56L354.29 233.56M354.29 233.56L354.29 279.16M354.29 279.16L308.69 279.16M308.69 279.16L308.69 233.56"/>
<path d="M377.09 233.56L422.69 233.56M422.69 233.56L422.69 279.16M422.69 279.16L377.09 279.16M377.09 279.16L377.09 233.56"/>
<path d="M20.28 187.68L23 186.32M23 186.32L27.07 182.25M27.07 182.25L27.07 210.75"/>
<path d="M233.77 375.25L235.4 380.13M235.4 380.13L235.4 370.36M235.4 370.36L233.77 375.25M233.77 375.25L230.51 371.99M230.51 371.99L225.63 370.36M225.63 370.36L222.37 370.36M222.37 370.36L217.48 371.99M217.48 371.99L214.23 375.25M214.23 375.25L212.6 378.5M212.6 378.5L210.97 383.39M210.97 383.39L210.97 391.53M210.97 391.53L212.6 396.42M212.6 396.42L214.23 399.68M214.23 399.68L217.48 402.93M217.48 402.93L222.37 404.56M222.37 404.56L225.63 404.56M225.63 404.56L230.51 402.93M230.51 402.93L233.77 399.68M222.37 370.36L219.11 371.99M219.11 371.99L215.85 375.25M215.85 375.25L214.23 378.5M214.23 378.5L212.6 383.39M212.6 383.39L212.6 391.53M212.6 391.53L214.23 396.42M214.23 396.42L215.85 399.68M215.85 399.68L219.11 402.93M219.11 402.93L222.37 404.56M233.77 391.53L233.77 404.56M235.4 391.53L235.4 404.56M228.88 391.53L240.28 391.53M253.31 404.56L253.31 370.36M254.94 370.36L254.94 404.56M248.43 370.36L267.97 370.36M267.97 370.36L272.86 371.99M272.86 371.99L274.49 373.62M274.49 373.62L276.11 376.87M276.11 376.87L276.11 380.13M276.11 380.13L274.49 383.39M274.49 383.39L272.86 385.02M272.86 385.02L267.97 386.65M267.97 386.65L254.94 386.65M267.97 370.36L271.23 371.99M271.23 371.99L272.86 373.62M272.86 373.62L274.49 376.87M274.49 376.87L274.49 380.13M274.49 380.13L272.86 383.39M272.86 383.39L271.23 385.02M271.23 385.02L267.97 386.65M248.43 404.56L259.83 404.56M263.08 386.65L266.34 388.28M266.34 388.28L267.97 389.9M267.97 389.9L272.86 401.3M272.86 401.3L274.49 402.93M274.49 402.93L276.11 402.93M276.11 402.93L277.74 401.3M266.34 388.28L267.97 391.53M267.97 391.53L271.23 402.93M271.23 402.93L272.86 404.56M272.86 404.56L276.11 404.56M276.11 404.56L277.74 401.3M277.74 401.3L277.74 399.68M289.14 404.56L289.14 370.36M290.77 370.36L290.77 404.56M300.54 380.13L300.54 393.16M284.26 370.36L310.32 370.36M310.32 370.36L310.32 380.13M310.32 380.13L308.69 370.36M290.77 386.65L300.54 386.65M284.26 404.56L310.32 404.56M310.32 404.56L310.32 394.79M310.32 394.79L308.69 404.56M323.34 404.56L323.34 370.36M324.97 370.36L324.97 404.56M334.74 380.13L334.74 393.16M318.46 370.36L344.52 370.36M344.52 370.36L344.52 380.13M344.52 380.13L342.89 370.36M324.97 386.65L334.74 386.65M318.46 404.56L344.52 404.56M344.52 404.56L344.52 394.79M344.52 394.79L342.89 404.56M357.55 404.56L357.55 370.36M359.17 404.56L359.17 370.36M359.17 370.36L378.72 401.3M359.17 373.62L378.72 404.56M378.72 404.56L378.72 370.36M352.66 370.36L359.17 370.36M373.83 370.36L383.6 370.36M352.66 404.56L362.43 404.56"/>
<path d="M103.48 301.96L103.48 347.56"/>
<path d="M103.48 347.56L491.09 347.56"/>
<path d="M491.09 347.56L491.09 301.96"/>
<path d="M86.38 324.76L86.38 328.32"/>
<path d="M88.52 330.46L103.48 330.46"/>
<path d="M74.98 324.76L74.98 333.31"/>
<path d="M83.53 341.86L103.48 341.86"/>
<path d="M508.19 324.76L508.19 328.32"/>
<path d="M506.06 330.46L491.09 330.46"/>
<path d="M519.59 324.76L519.59 333.31"/>
<path d="M511.04 341.86L491.09 341.86"/>
<path d="M511.04 341.86L515.32 340.71M515.32 340.71L518.45 337.58M518.45 337.58L519.59 333.31"/>
<path d="M74.98 333.31L76.12 337.58M76.12 337.58L79.25 340.71M79.25 340.71L83.53 341.86"/>
<path d="M506.06 330.46L507.13 330.17M507.13 330.17L507.91 329.39M507.91 329.39L508.19 328.32"/>
<path d="M86.38 328.32L87 329.83M87 329.83L88.52 330.46"/>
<path d="M439.79 165.15L439.79 222.15M439.79 222.15L496.79 222.15M496.79 222.15L496.79 165.15M496.79 165.15L439.79 165.15"/>
<path d="M578.36 186.32L577 183.61M577 183.61L572.93 182.25M572.93 182.25L570.22 182.25M570.22 182.25L566.15 183.61M566.15 183.61L563.43 187.68M563.43 187.68L562.07 194.47M562.07 194.47L562.07 201.25M562.07 201.25L563.43 206.68M563.43 206.68L566.15 209.4M566.15 209.4L570.22 210.75M570.22 210.75L571.58 210.75M571.58 210.75L575.65 209.4M575.65 209.4L578.36 206.68M578.36 206.68L579.72 202.61M579.72 202.61L579.72 201.25M579.72 201.25L578.36 197.18M578.36 197.18L575.65 194.47M575.65 194.47L571.58 193.11M571.58 193.11L570.22 193.11M570.22 193.11L566.15 194.47M566.15 194.47L563.43 197.18M563.43 197.18L562.07 201.25"/>
<path d="M103.48 249.68L119.6 233.56"/>
<path d="M103.48 265.8L135.72 233.56"/>
<path d="M106.25 279.16L149.08 236.32"/>
<path d="M122.37 279.16L149.08 252.44"/>
<path d="M138.49 279.16L149.08 268.57"/>
<path d="M171.88 245.77L184.09 233.56"/>
<path d="M171.88 261.89L200.21 233.56"/>
<path d="M171.88 278.01L216.34 233.56"/>
<path d="M186.86 279.16L217.48 248.53"/>
<path d="M202.98 279.16L217.48 264.65"/>
<path d="M240.28 241.85L248.58 233.56"/>
<path d="M240.28 257.98L264.71 233.56"/>
<path d="M240.28 274.1L280.83 233.56"/>
<path d="M251.35 279.16L285.89 244.62"/>
<path d="M267.47 279.16L285.89 260.74"/>
<path d="M308.69 237.94L313.07 233.56"/>
<path d="M283.59 279.16L285.89 276.87"/>
<path d="M308.69 254.06L329.2 233.56"/>
<path d="M308.69 270.19L345.32 233.56"/>
<path d="M315.84 279.16L354.29 240.71"/>
<path d="M331.96 279.16L354.29 256.83"/>
<path d="M377.09 234.03L377.56 233.56"/>
<path d="M348.08 279.16L354.29 272.95"/>
<path d="M377.09 250.15L393.69 233.56"/>
<path d="M377.09 266.28L409.81 233.56"/>
<path d="M380.33 279.16L422.69 236.8"/>
<path d="M396.45 279.16L422.69 252.92"/>
<path d="M412.58 279.16L422.69 269.04"/>
<path d="M445.49 233.56L491.09 233.56M491.09 233.56L491.09 279.16M491.09 279.16L445.49 279.16M445.49 279.16L445.49 233.56"/>
</g>
</g>
</svg>
