<?xml version="1.0" standalone="no"?><svg xmlns="http://www.w3.org/2000/svg" width="600.000" height="450.000" viewBox="0.0 0.0 600.000 450.000" version="1.1">
<title>Acme Converter - Post-processed with EDS-Designer: 14.44 (info@symca.com)</title>
<desc>Acme Converter - Post-processed with EDS-Designer: 14.44 (info@symca.com)</desc>
<g id="EDS_STYLE_GROUP" fill="none" stroke="black" stroke-width="1.0">
<g id="0" display="visible">
<path d="M183.76 278.55L416.19 278.55"/>
<path d="M159.71 254.5L159.71 170.34"/>
<path d="M440.24 254.5L440.24 170.34"/>
<path d="M191.77 166.34L408.18 166.34"/>
<path d="M123.64 294.58L476.31 294.58"/>
<path d="M416.19 278.55L425.4 276.72M425.4 276.72L433.2 271.51M433.2 271.51L438.41 263.71M438.41 263.71L440.24 254.5"/>
<path d="M159.71 254.5L161.54 263.71M161.54 263.71L166.75 271.51M166.75 271.51L174.55 276.72M174.55 276.72L183.76 278.55"/>
<path d="M211.81 248.49L211.81 260.52"/>
<path d="M211.81 260.52L191.77 260.52"/>
<path d="M191.77 248.49L211.81 248.49"/>
<path d="M191.77 260.52L191.77 248.49"/>
<path d="M167.72 254.5L169.6 249.35M169.6 249.35L174.35 246.61M174.35 246.61L179.75 247.56M179.75 247.56L183.27 251.76M183.27 251.76L183.27 257.25M183.27 257.25L179.75 261.45M179.75 261.45L174.35 262.4M174.35 262.4L169.6 259.66M169.6 259.66L167.72 254.5"/>
<path d="M239.86 248.49L239.86 260.52"/>
<path d="M239.86 260.52L219.82 260.52"/>
<path d="M219.82 248.49L239.86 248.49"/>
<path d="M219.82 260.52L219.82 248.49"/>
<path d="M267.91 248.49L267.91 260.52"/>
<path d="M267.91 260.52L247.88 260.52"/>
<path d="M247.88 248.49L267.91 248.49"/>
<path d="M247.88 260.52L247.88 248.49"/>
<path d="M295.97 248.49L295.97 260.52"/>
<path d="M295.97 260.52L275.93 260.52"/>
<path d="M275.93 248.49L295.97 248.49"/>
<path d="M275.93 260.52L275.93 248.49"/>
<circle cx="424.21" cy="254.5" r="8.015"/>
<path d="M408.18 260.52L408.18 248.49"/>
<path d="M388.14 248.49L388.14 260.52"/>
<path d="M380.13 260.52L380.13 248.49"/>
<path d="M360.09 248.49L360.09 260.52"/>
<path d="M352.07 260.52L352.07 248.49"/>
<path d="M332.03 248.49L332.03 260.52"/>
<path d="M408.18 248.49L388.14 248.49"/>
<path d="M388.14 260.52L408.18 260.52"/>
<path d="M380.13 248.49L360.09 248.49"/>
<path d="M360.09 260.52L380.13 260.52"/>
<path d="M352.07 248.49L332.03 248.49"/>
<path d="M332.03 260.52L352.07 260.52"/>
<path d="M324.02 260.52L324.02 248.49"/>
<path d="M324.02 248.49L303.98 248.49"/>
<path d="M303.98 260.52L324.02 260.52"/>
<path d="M303.98 248.49L303.98 260.52"/>
<path d="M191.77 184.37L191.77 196.39"/>
<path d="M211.81 196.39L211.81 184.37"/>
<path d="M219.82 184.37L219.82 196.39"/>
<path d="M239.86 196.39L239.86 184.37"/>
<path d="M247.88 184.37L247.88 196.39"/>
<path d="M267.91 196.39L267.91 184.37"/>
<path d="M191.77 196.39L211.81 196.39"/>
<path d="M211.81 184.37L191.77 184.37"/>
<path d="M219.82 196.39L239.86 196.39"/>
<path d="M239.86 184.37L219.82 184.37"/>
<path d="M247.88 196.39L267.91 196.39"/>
<path d="M267.91 184.37L247.88 184.37"/>
<path d="M275.93 184.37L275.93 196.39"/>
<path d="M275.93 196.39L295.97 196.39"/>
<path d="M295.97 184.37L275.93 184.37"/>
<path d="M295.97 196.39L295.97 184.37"/>
<path d="M303.98 196.39L303.98 184.37"/>
<path d="M303.98 184.37L324.02 184.37"/>
<path d="M324.02 196.39L303.98 196.39"/>
<path d="M324.02 184.37L324.02 196.39"/>
<path d="M332.03 184.37L352.07 184.37"/>
<path d="M352.07 196.39L332.03 196.39"/>
<path d="M360.09 184.37L380.13 184.37"/>
<path d="M380.13 196.39L360.09 196.39"/>
<path d="M388.14 184.37L408.18 184.37"/>
<path d="M408.18 196.39L388.14 196.39"/>
<path d="M332.03 196.39L332.03 184.37"/>
<path d="M352.07 184.37L352.07 196.39"/>
<path d="M360.09 196.39L360.09 184.37"/>
<path d="M380.13 184.37L380.13 196.39"/>
<path d="M388.14 196.39L388.14 184.37"/>
<path d="M408.18 184.37L408.18 196.39"/>
<path d="M439.52 260.35L402.84 150.31"/>
<path d="M160.43 260.35L197.11 150.31"/>
<path d="M404.17 238.47L392.15 238.47"/>
<path d="M392.15 238.47L392.15 230.46"/>
<path d="M392.15 230.46L376.12 230.46"/>
<path d="M376.12 230.46L376.12 238.47"/>
<path d="M376.12 238.47L364.1 238.47"/>
<path d="M364.1 238.47L364.1 230.46"/>
<path d="M364.1 230.46L348.07 230.46"/>
<path d="M348.07 230.46L348.07 238.47"/>
<path d="M348.07 238.47L336.04 238.47"/>
<path d="M336.04 238.47L336.04 230.46"/>
<path d="M336.04 230.46L320.01 230.46"/>
<path d="M320.01 230.46L320.01 238.47"/>
<path d="M320.01 238.47L307.99 238.47"/>
<path d="M307.99 238.47L307.99 230.46"/>
<path d="M307.99 230.46L291.96 230.46"/>
<path d="M291.96 230.46L291.96 238.47"/>
<path d="M291.96 238.47L279.94 238.47"/>
<path d="M279.94 238.47L279.94 230.46"/>
<path d="M279.94 230.46L263.91 230.46"/>
<path d="M263.91 230.46L263.91 238.47"/>
<path d="M263.91 238.47L251.88 238.47"/>
<path d="M251.88 238.47L251.88 230.46"/>
<path d="M251.88 230.46L235.85 230.46"/>
<path d="M235.85 230.46L235.85 238.47"/>
<path d="M235.85 238.47L223.83 238.47"/>
<path d="M223.83 238.47L223.83 230.46"/>
<path d="M223.83 230.46L207.8 230.46"/>
<path d="M207.8 230.46L207.8 238.47"/>
<path d="M207.8 238.47L195.78 238.47"/>
<path d="M195.78 238.47L195.78 230.46"/>
<path d="M195.78 230.46L183.76 230.46"/>
<path d="M404.17 238.47L404.17 230.46"/>
<path d="M404.17 230.46L416.19 230.46"/>
<path d="M404.17 214.43L416.19 214.43"/>
<path d="M404.17 206.41L404.17 214.43"/>
<path d="M404.17 206.41L392.15 206.41"/>
<path d="M392.15 206.41L392.15 214.43"/>
<path d="M392.15 214.43L376.12 214.43"/>
<path d="M376.12 214.43L376.12 206.41"/>
<path d="M376.12 206.41L364.1 206.41"/>
<path d="M364.1 206.41L364.1 214.43"/>
<path d="M364.1 214.43L348.07 214.43"/>
<path d="M348.07 214.43L348.07 206.41"/>
<path d="M348.07 206.41L336.04 206.41"/>
<path d="M336.04 206.41L336.04 214.43"/>
<path d="M336.04 214.43L320.01 214.43"/>
<path d="M320.01 214.43L320.01 206.41"/>
<path d="M320.01 206.41L307.99 206.41"/>
<path d="M307.99 206.41L307.99 214.43"/>
<path d="M307.99 214.43L291.96 214.43"/>
<path d="M291.96 214.43L291.96 206.41"/>
<path d="M291.96 206.41L279.94 206.41"/>
<path d="M279.94 206.41L279.94 214.43"/>
<path d="M279.94 214.43L263.91 214.43"/>
<path d="M263.91 214.43L263.91 206.41"/>
<path d="M263.91 206.41L251.88 206.41"/>
<path d="M251.88 206.41L251.88 214.43"/>
<path d="M251.88 214.43L235.85 214.43"/>
<path d="M235.85 214.43L235.85 206.41"/>
<path d="M235.85 206.41L223.83 206.41"/>
<path d="M223.83 206.41L223.83 214.43"/>
<path d="M223.83 214.43L207.8 214.43"/>
<path d="M207.8 214.43L207.8 206.41"/>
<path d="M207.8 206.41L195.78 206.41"/>
<path d="M195.78 206.41L195.78 214.43"/>
<path d="M195.78 214.43L183.76 214.43"/>
<path d="M183.76 214.43L183.76 230.46"/>
<path d="M416.19 214.43L416.19 230.46"/>
<path d="M123.64 150.31L201.79 150.31"/>
<path d="M123.64 150.31L123.64 158.32"/>
<path d="M123.64 158.32L163.72 158.32"/>
<path d="M167.72 162.33L167.72 166.34"/>
<path d="M163.72 170.34L111.62 170.34"/>
<path d="M167.72 162.33L166.55 159.5M166.55 159.5L163.72 158.32"/>
<path d="M163.72 170.34L165.72 169.81M165.72 169.81L167.19 168.34M167.19 168.34L167.72 166.34"/>
<path d="M436.23 170.34L488.33 170.34"/>
<path d="M436.23 170.34L434.23 169.81M434.23 169.81L432.76 168.34M432.76 168.34L432.22 166.34"/>
<path d="M432.22 162.33L432.22 166.34"/>
<path d="M432.22 162.33L433.4 159.5M433.4 159.5L436.23 158.32"/>
<path d="M476.31 158.32L436.23 158.32"/>
<path d="M476.31 150.31L476.31 158.32"/>
<path d="M436.23 274.54L488.33 274.54"/>
<path d="M436.23 274.54L433.4 275.72M433.4 275.72L432.22 278.55"/>
<path d="M432.22 282.56L432.22 278.55"/>
<path d="M476.31 286.56L436.23 286.56"/>
<path d="M432.22 282.56L433.4 285.39M433.4 285.39L436.23 286.56"/>
<path d="M476.31 294.58L476.31 286.56"/>
<path d="M163.72 274.54L111.62 274.54"/>
<path d="M163.72 274.54L166.55 275.72M166.55 275.72L167.72 278.55"/>
<path d="M167.72 282.56L167.72 278.55"/>
<path d="M167.72 282.56L166.55 285.39M166.55 285.39L163.72 286.56"/>
<path d="M123.64 286.56L163.72 286.56"/>
<path d="M123.64 294.58L123.64 286.56"/>
<path d="M111.62 170.34L111.62 274.54"/>
<path d="M488.33 170.34L488.33 274.54"/>
<path d="M155.7 150.31L155.7 130.27"/>
<path d="M159.71 126.26L440.24 126.26"/>
<path d="M444.25 130.27L444.25 150.31"/>
<path d="M444.25 130.27L443.07 127.44M443.07 127.44L440.24 126.26"/>
<path d="M159.71 126.26L156.88 127.44M156.88 127.44L155.7 130.27"/>
<path d="M199.79 150.31L199.79 144.3"/>
<path d="M209.8 134.28L229.84 134.28"/>
<path d="M239.86 144.3L239.86 146.3"/>
<path d="M239.86 146.3L239.86 150.31"/>
<path d="M283.94 166.34L283.94 146.3"/>
<path d="M283.94 146.3L312 146.3"/>
<path d="M312 146.3L312 166.34"/>
<path d="M400.16 150.31L400.16 144.3"/>
<path d="M390.14 134.28L370.11 134.28"/>
<path d="M360.09 144.3L360.09 150.31"/>
<path d="M209.8 134.28L204.79 135.62M204.79 135.62L201.13 139.29M201.13 139.29L199.79 144.3"/>
<path d="M239.86 144.3L238.52 139.29M238.52 139.29L234.85 135.62M234.85 135.62L229.84 134.28"/>
<path d="M370.11 134.28L365.1 135.62M365.1 135.62L361.43 139.29M361.43 139.29L360.09 144.3"/>
<path d="M400.16 144.3L398.82 139.29M398.82 139.29L395.15 135.62M395.15 135.62L390.14 134.28"/>
<path d="M175.74 294.58L175.74 304.6"/>
<path d="M185.76 314.62L414.19 314.62"/>
<path d="M424.21 304.6L424.21 294.58"/>
<path d="M414.19 314.62L419.2 313.27M419.2 313.27L422.87 309.61M422.87 309.61L424.21 304.6"/>
<path d="M175.74 304.6L177.08 309.61M177.08 309.61L180.75 313.27M180.75 313.27L185.76 314.62"/>
<path d="M237.86 150.31L283.94 150.31"/>
<path d="M398.16 150.31L476.31 150.31"/>
<path d="M312 150.31L360.09 150.31"/>
<path d="M464.31 170.34L464.31 274.54"/>
<path d="M136.16 170.34L136.16 274.54"/>
<path d="M440.24 207.61L464.31 207.61"/>
<path d="M440.24 233.61L464.31 233.61"/>
<path d="M136.16 206.92L159.71 206.92"/>
<path d="M136.16 232.92L159.71 232.92"/>
<path d="M120.56 184.17L120.56 206.32"/>
<path d="M111.62 184.17L120.56 184.17"/>
<path d="M111.62 206.32L120.56 206.32"/>
<path d="M111.62 256.03L120.56 256.03"/>
<path d="M111.62 233.49L120.56 233.49"/>
<path d="M120.56 233.49L120.56 256.03"/>
<path d="M437.04 302.51L439.71 299.84M439.71 299.84L439.71 315.87M437.04 315.87L442.38 315.87"/>
<path d="M158.74 317.3L156.07 314.62M156.07 314.62L156.07 311.95M156.07 311.95L158.74 309.28M158.74 309.28L164.08 309.28M164.08 309.28L166.75 306.61M166.75 306.61L166.75 303.94M166.75 303.94L164.08 301.27M164.08 301.27L158.74 301.27M158.74 301.27L156.07 303.94M156.07 303.94L156.07 306.61M156.07 306.61L158.74 309.28M164.08 309.28L166.75 311.95M166.75 311.95L166.75 314.62M166.75 314.62L164.08 317.3M164.08 317.3L158.74 317.3"/>
<path d="M200.13 106.51L202.8 103.84M202.8 103.84L202.8 119.87M200.13 119.87L205.47 119.87M213.48 111.86L221.5 111.86M221.5 111.86L224.17 114.53M224.17 114.53L224.17 117.2M224.17 117.2L221.5 119.87M221.5 119.87L216.16 119.87M216.16 119.87L213.48 117.2M213.48 117.2L213.48 109.18M213.48 109.18L218.83 103.84M218.83 103.84L221.5 103.84"/>
<path d="M389.94 119.4L392.61 119.4M392.61 119.4L397.95 114.05M397.95 114.05L397.95 106.04M397.95 106.04L395.28 103.37M395.28 103.37L389.94 103.37M389.94 103.37L387.27 106.04M387.27 106.04L387.27 108.71M387.27 108.71L389.94 111.38M389.94 111.38L397.95 111.38"/>
<path d="M252.09 346.68L252.09 322.63M253.01 322.63L253.01 346.68M249.32 322.63L260.4 322.63M260.4 322.63L263.17 323.78M263.17 323.78L264.1 324.92M264.1 324.92L265.02 327.21M265.02 327.21L265.02 329.5M265.02 329.5L264.1 331.79M264.1 331.79L263.17 332.94M263.17 332.94L260.4 334.08M260.4 322.63L262.25 323.78M262.25 323.78L263.17 324.92M263.17 324.92L264.1 327.21M264.1 327.21L264.1 329.5M264.1 329.5L263.17 331.79M263.17 331.79L262.25 332.94M262.25 332.94L260.4 334.08M253.01 334.08L260.4 334.08M260.4 334.08L263.17 335.23M263.17 335.23L264.1 336.37M264.1 336.37L265.02 338.66M265.02 338.66L265.02 342.1M265.02 342.1L264.1 344.39M264.1 344.39L263.17 345.53M263.17 345.53L260.4 346.68M260.4 346.68L249.32 346.68M260.4 334.08L262.25 335.23M262.25 335.23L263.17 336.37M263.17 336.37L264.1 338.66M264.1 338.66L264.1 342.1M264.1 342.1L263.17 344.39M263.17 344.39L262.25 345.53M262.25 345.53L260.4 346.68M272.41 346.68L272.41 322.63M273.34 322.63L273.34 346.68M269.64 322.63L276.11 322.63M269.64 346.68L283.5 346.68M283.5 346.68L283.5 339.81M283.5 339.81L282.57 346.68M294.58 322.63L288.12 346.68M294.58 322.63L301.05 346.68M294.58 326.07L300.12 346.68M289.96 339.81L298.28 339.81M286.27 346.68L291.81 346.68M297.35 346.68L302.89 346.68M318.6 326.07L319.52 329.5M319.52 329.5L319.52 322.63M319.52 322.63L318.6 326.07M318.6 326.07L316.75 323.78M316.75 323.78L313.98 322.63M313.98 322.63L312.13 322.63M312.13 322.63L309.36 323.78M309.36 323.78L307.51 326.07M307.51 326.07L306.59 328.36M306.59 328.36L305.67 331.79M305.67 331.79L305.67 337.52M305.67 337.52L306.59 340.95M306.59 340.95L307.51 343.24M307.51 343.24L309.36 345.53M309.36 345.53L312.13 346.68M312.13 346.68L313.98 346.68M313.98 346.68L316.75 345.53M316.75 345.53L318.6 343.24M318.6 343.24L319.52 340.95M312.13 322.63L310.28 323.78M310.28 323.78L308.44 326.07M308.44 326.07L307.51 328.36M307.51 328.36L306.59 331.79M306.59 331.79L306.59 337.52M306.59 337.52L307.51 340.95M307.51 340.95L308.44 343.24M308.44 343.24L310.28 345.53M310.28 345.53L312.13 346.68M327.83 346.68L327.83 322.63M328.76 322.63L328.76 346.68M340.77 322.63L328.76 337.52M333.38 332.94L340.77 346.68M332.45 332.94L339.84 346.68M325.06 322.63L331.53 322.63M337.07 322.63L342.61 322.63M325.06 346.68L331.53 346.68M337.07 346.68L342.61 346.68"/>
</g>
</g>
</svg>
