<?xml version="1.0" standalone="no"?><svg xmlns="http://www.w3.org/2000/svg" width="600.000" height="450.000" viewBox="0.0 0.0 600.000 450.000" version="1.1">
<title>Acme Converter - Post-processed with EDS-Designer: 14.44 (info@symca.com)</title>
<desc>Acme Converter - Post-processed with EDS-Designer: 14.44 (info@symca.com)</desc>
<g id="EDS_STYLE_GROUP" fill="none" stroke="black" stroke-width="1.0">
<g id="0" display="visible">
<path d="M271.83 224.09L271.83 205.12"/>
<path d="M271.83 205.12L267.08 205.12"/>
<path d="M267.08 205.12L267.08 195.63"/>
<path d="M267.08 195.63L271.83 195.63"/>
<path d="M271.83 195.63L271.83 181.4"/>
<path d="M271.83 181.4L281.31 181.4"/>
<path d="M281.31 181.4L281.31 195.63"/>
<path d="M281.31 195.63L286.06 195.63"/>
<path d="M286.06 195.63L286.06 205.12"/>
<path d="M286.06 205.12L281.31 205.12"/>
<path d="M281.31 205.12L281.31 224.09"/>
<path d="M271.83 209.86L262.34 209.86"/>
<path d="M262.34 209.86L262.34 190.88"/>
<path d="M262.34 190.88L271.83 190.88"/>
<path d="M281.31 209.86L290.8 209.86"/>
<path d="M290.8 209.86L290.8 190.88"/>
<path d="M290.8 190.88L281.31 190.88"/>
<path d="M286.06 195.63L290.8 190.88"/>
<path d="M286.06 205.12L290.8 209.86"/>
<path d="M267.08 205.12L262.34 209.86"/>
<path d="M267.08 195.63L262.34 190.88"/>
<path d="M271.83 224.09L267.08 224.09"/>
<path d="M267.08 224.09L267.08 228.84"/>
<path d="M267.08 228.84L257.59 228.84"/>
<path d="M257.59 228.84L257.59 190.88"/>
<path d="M257.59 190.88L271.83 176.65"/>
<path d="M271.83 176.65L286.06 176.65"/>
<path d="M286.06 176.65L286.06 186.14"/>
<path d="M286.06 186.14L295.55 186.14"/>
<path d="M295.55 186.14L295.55 214.6"/>
<path d="M295.55 214.6L309.78 214.6"/>
<path d="M309.78 214.6L309.78 186.14"/>
<path d="M309.78 186.14L319.27 186.14"/>
<path d="M319.27 186.14L319.27 176.65"/>
<path d="M319.27 176.65L333.5 176.65"/>
<path d="M333.5 176.65L347.73 190.88"/>
<path d="M347.73 190.88L347.73 228.84"/>
<path d="M347.73 228.84L338.24 228.84"/>
<path d="M338.24 228.84L338.24 224.09"/>
<path d="M338.24 224.09L333.5 224.09"/>
<path d="M333.5 224.09L333.5 205.12"/>
<path d="M333.5 205.12L338.24 205.12"/>
<path d="M338.24 205.12L338.24 195.63"/>
<path d="M338.24 195.63L333.5 195.63"/>
<path d="M333.5 195.63L333.5 181.4"/>
<path d="M333.5 181.4L324.01 181.4"/>
<path d="M324.01 181.4L324.01 195.63"/>
<path d="M324.01 195.63L319.27 195.63"/>
<path d="M319.27 195.63L319.27 205.12"/>
<path d="M319.27 205.12L324.01 205.12"/>
<path d="M324.01 205.12L324.01 219.35"/>
<path d="M324.01 209.86L314.52 209.86"/>
<path d="M314.52 209.86L314.52 190.88"/>
<path d="M314.52 190.88L324.01 190.88"/>
<path d="M319.27 195.63L314.52 190.88"/>
<path d="M319.27 205.12L314.52 209.86"/>
<path d="M333.5 190.88L342.99 190.88"/>
<path d="M342.99 190.88L342.99 209.86"/>
<path d="M342.99 209.86L333.5 209.86"/>
<path d="M338.24 195.63L342.99 190.88"/>
<path d="M338.24 205.12L342.99 209.86"/>
<path d="M324.01 219.35L324.01 224.09"/>
<path d="M324.01 224.09L281.31 224.09"/>
<path d="M290.8 171.91L290.8 181.4"/>
<path d="M290.8 181.4L300.29 181.4"/>
<path d="M300.29 181.4L300.29 195.63"/>
<path d="M300.29 195.63L305.03 195.63"/>
<path d="M305.03 195.63L305.03 181.4"/>
<path d="M305.03 181.4L314.52 181.4"/>
<path d="M314.52 181.4L314.52 171.91"/>
<path d="M314.52 171.91L333.5 171.91"/>
<path d="M333.5 171.91L352.47 190.88"/>
<path d="M352.47 190.88L352.47 233.58"/>
<path d="M352.47 233.58L319.27 233.58"/>
<path d="M290.8 171.91L271.83 171.91"/>
<path d="M271.83 171.91L252.85 190.88"/>
<path d="M252.85 190.88L252.85 233.58"/>
<path d="M252.85 233.58L286.06 233.58"/>
<path d="M243.36 143.44L243.36 58.05"/>
<path d="M361.96 143.44L361.96 58.05"/>
<path d="M361.96 58.05L243.36 58.05"/>
<path d="M286.06 233.58L286.06 238.32"/>
<path d="M319.27 233.58L319.27 238.32"/>
<path d="M286.06 238.32L271.83 238.32"/>
<path d="M271.83 238.32L257.59 252.56"/>
<path d="M257.59 252.56L257.59 290.51"/>
<path d="M257.59 290.51L267.08 290.51"/>
<path d="M267.08 290.51L267.08 285.76"/>
<path d="M267.08 285.76L271.83 285.76"/>
<path d="M271.83 285.76L271.83 266.79"/>
<path d="M271.83 266.79L267.08 266.79"/>
<path d="M267.08 266.79L267.08 257.3"/>
<path d="M267.08 257.3L271.83 257.3"/>
<path d="M271.83 257.3L271.83 243.07"/>
<path d="M271.83 243.07L281.31 243.07"/>
<path d="M281.31 243.07L281.31 257.3"/>
<path d="M281.31 257.3L286.06 257.3"/>
<path d="M286.06 257.3L286.06 266.79"/>
<path d="M286.06 266.79L281.31 266.79"/>
<path d="M281.31 266.79L281.31 285.76"/>
<path d="M281.31 285.76L286.06 285.76"/>
<path d="M286.06 285.76L286.06 290.51"/>
<path d="M271.83 252.56L262.34 252.56"/>
<path d="M262.34 252.56L262.34 271.53"/>
<path d="M262.34 271.53L271.83 271.53"/>
<path d="M281.31 252.56L290.8 252.56"/>
<path d="M290.8 252.56L290.8 271.53"/>
<path d="M290.8 271.53L281.31 271.53"/>
<path d="M267.08 257.3L262.34 252.56"/>
<path d="M267.08 266.79L262.34 271.53"/>
<path d="M286.06 257.3L290.8 252.56"/>
<path d="M286.06 266.79L290.8 271.53"/>
<path d="M319.27 238.32L333.5 238.32"/>
<path d="M333.5 238.32L347.73 252.56"/>
<path d="M347.73 252.56L347.73 290.51"/>
<path d="M347.73 290.51L338.24 290.51"/>
<path d="M338.24 290.51L338.24 285.76"/>
<path d="M338.24 285.76L333.5 285.76"/>
<path d="M333.5 285.76L333.5 266.79"/>
<path d="M333.5 266.79L338.24 266.79"/>
<path d="M338.24 266.79L338.24 257.3"/>
<path d="M338.24 257.3L333.5 257.3"/>
<path d="M333.5 257.3L333.5 243.07"/>
<path d="M333.5 243.07L324.01 243.07"/>
<path d="M324.01 243.07L324.01 257.3"/>
<path d="M324.01 257.3L319.27 257.3"/>
<path d="M319.27 257.3L319.27 266.79"/>
<path d="M319.27 266.79L324.01 266.79"/>
<path d="M324.01 266.79L324.01 285.76"/>
<path d="M324.01 285.76L319.27 285.76"/>
<path d="M319.27 285.76L319.27 290.51"/>
<path d="M319.27 290.51L314.52 290.51"/>
<path d="M319.27 243.07L319.27 238.32"/>
<path d="M286.06 290.51L290.8 290.51"/>
<path d="M324.01 252.56L314.52 252.56"/>
<path d="M314.52 252.56L314.52 271.53"/>
<path d="M314.52 271.53L324.01 271.53"/>
<path d="M333.5 252.56L342.99 252.56"/>
<path d="M342.99 252.56L342.99 271.53"/>
<path d="M342.99 271.53L333.5 271.53"/>
<path d="M319.27 257.3L314.52 252.56"/>
<path d="M319.27 266.79L314.52 271.53"/>
<path d="M338.24 257.3L342.99 252.56"/>
<path d="M338.24 266.79L342.99 271.53"/>
<path d="M314.52 290.51L309.78 290.51"/>
<path d="M309.78 290.51L309.78 247.81"/>
<path d="M309.78 247.81L319.27 247.81"/>
<path d="M319.27 247.81L319.27 243.07"/>
<path d="M290.8 290.51L295.55 290.51"/>
<path d="M295.55 290.51L295.55 247.81"/>
<path d="M295.55 247.81L286.06 247.81"/>
<path d="M286.06 247.81L286.06 238.32"/>
<path d="M290.8 238.32L290.8 243.07"/>
<path d="M290.8 243.07L300.29 243.07"/>
<path d="M300.29 243.07L300.29 257.3"/>
<path d="M300.29 257.3L305.03 257.3"/>
<path d="M305.03 257.3L305.03 243.07"/>
<path d="M305.03 243.07L314.52 243.07"/>
<path d="M314.52 243.07L314.52 238.32"/>
<path d="M314.52 238.32L290.8 238.32"/>
<path d="M252.85 233.58L252.85 290.51"/>
<path d="M252.85 290.51L257.59 290.51"/>
<path d="M352.47 233.58L352.47 290.51"/>
<path d="M352.47 290.51L347.73 290.51"/>
<path d="M243.36 186.14L243.36 276.28"/>
<path d="M267.08 300L338.24 300"/>
<path d="M361.96 276.28L361.96 186.14"/>
<path d="M338.24 162.42L267.08 162.42"/>
<path d="M267.08 162.42L258 164.23M258 164.23L250.31 169.37M250.31 169.37L245.17 177.06M245.17 177.06L243.36 186.14"/>
<path d="M361.96 186.14L360.16 177.06M360.16 177.06L355.01 169.37M355.01 169.37L347.32 164.23M347.32 164.23L338.24 162.42"/>
<path d="M243.36 276.28L245.17 285.35M245.17 285.35L250.31 293.05M250.31 293.05L258 298.19M258 298.19L267.08 300"/>
<path d="M338.24 300L347.32 298.19M347.32 298.19L355.01 293.05M355.01 293.05L360.16 285.35M360.16 285.35L361.96 276.28"/>
<path d="M271.83 300L271.83 304.74"/>
<path d="M333.5 300L333.5 304.74"/>
<path d="M271.83 304.74L287.06 308.31M287.06 308.31L302.66 309.51M302.66 309.51L318.26 308.31M318.26 308.31L333.5 304.74"/>
<path d="M233.87 176.65L233.87 290.51"/>
<path d="M257.59 314.23L347.73 314.23"/>
<path d="M371.45 290.51L371.45 176.65"/>
<path d="M347.73 152.93L257.59 152.93"/>
<path d="M257.59 152.93L248.52 154.74M248.52 154.74L240.82 159.88M240.82 159.88L235.68 167.58M235.68 167.58L233.87 176.65"/>
<path d="M233.87 290.51L235.68 299.58M235.68 299.58L240.82 307.28M240.82 307.28L248.52 312.42M248.52 312.42L257.59 314.23"/>
<path d="M347.73 314.23L356.81 312.42M356.81 312.42L364.5 307.28M364.5 307.28L369.64 299.58M369.64 299.58L371.45 290.51"/>
<path d="M371.45 176.65L369.64 167.58M369.64 167.58L364.5 159.88M364.5 159.88L356.81 154.74M356.81 154.74L347.73 152.93"/>
<path d="M214.9 181.4L214.9 219.35"/>
<path d="M214.9 219.35L205.41 219.35"/>
<path d="M205.41 219.35L205.41 247.81"/>
<path d="M205.41 247.81L214.9 247.81"/>
<path d="M214.9 247.81L214.9 262.04"/>
<path d="M214.9 262.04L195.92 262.04"/>
<path d="M195.92 262.04L195.92 295.25"/>
<path d="M195.92 295.25L214.9 295.25"/>
<path d="M390.42 181.4L390.42 219.35"/>
<path d="M390.42 219.35L399.91 219.35"/>
<path d="M399.91 219.35L399.91 247.81"/>
<path d="M399.91 247.81L390.42 247.81"/>
<path d="M243.36 143.44L232.29 149.3M232.29 149.3L223.38 158.11M223.38 158.11L217.42 169.13M217.42 169.13L214.9 181.4"/>
<path d="M390.42 181.4L387.31 169.42M387.31 169.42L381.23 158.64M381.23 158.64L372.59 149.79M372.59 149.79L361.96 143.44"/>
<path d="M390.42 247.81L390.42 276.28"/>
<path d="M262.34 333.2L342.99 333.2"/>
<path d="M342.99 333.2L356.02 329.67M356.02 329.67L367.8 323.09M367.8 323.09L377.65 313.86M377.65 313.86L384.96 302.51M384.96 302.51L389.3 289.73M389.3 289.73L390.42 276.28"/>
<path d="M214.9 295.25L223.36 308.4M223.36 308.4L234.45 319.44M234.45 319.44L247.65 327.83M247.65 327.83L262.34 333.2"/>
<path d="M214.9 219.35L214.9 224.09"/>
<path d="M214.9 224.09L210.15 224.09"/>
<path d="M210.15 224.09L210.15 243.07"/>
<path d="M210.15 243.07L214.9 243.07"/>
<path d="M214.9 243.07L214.9 247.81"/>
<path d="M210.15 243.07L205.41 247.81"/>
<path d="M210.15 224.09L205.41 219.35"/>
<path d="M390.42 219.35L390.42 224.09"/>
<path d="M390.42 224.09L395.17 224.09"/>
<path d="M395.17 224.09L395.17 243.07"/>
<path d="M395.17 243.07L390.42 243.07"/>
<path d="M390.42 243.07L390.42 247.81"/>
<path d="M395.17 224.09L399.91 219.35"/>
<path d="M395.17 243.07L399.91 247.81"/>
<path d="M214.9 262.04L214.9 266.79"/>
<path d="M214.9 266.79L200.67 266.79"/>
<path d="M200.67 266.79L200.67 290.51"/>
<path d="M200.67 290.51L214.9 290.51"/>
<path d="M214.9 290.51L214.9 295.25"/>
<path d="M200.67 266.79L195.92 262.04"/>
<path d="M200.67 290.51L195.92 295.25"/>
<path d="M361.51 48.57L243.81 48.57"/>
<path d="M225.45 62.78L195.92 176.65"/>
<path d="M195.92 176.65L183.42 276.69"/>
<path d="M191.53 300.35L252.85 361.67"/>
<path d="M379.88 62.78L409.4 176.65"/>
<path d="M409.4 176.65L409.4 290.51"/>
<path d="M252.85 361.67L357.22 361.67"/>
<path d="M357.22 361.67L372.93 352.17M372.93 352.17L386.47 339.79M386.47 339.79L397.33 324.99M397.33 324.99L405.07 308.34M405.07 308.34L409.4 290.51"/>
<path d="M243.81 48.57L235.75 50.37M235.75 50.37L229.21 55.42M229.21 55.42L225.45 62.78"/>
<path d="M379.88 62.78L376.11 55.42M376.11 55.42L369.58 50.37M369.58 50.37L361.51 48.57"/>
<path d="M183.42 276.69L183.65 285.29M183.65 285.29L186.44 293.42M186.44 293.42L191.53 300.35"/>
<path d="M290.8 342.69L290.8 356.92"/>
<path d="M290.8 356.92L309.78 356.92"/>
<path d="M309.78 356.92L309.78 342.69"/>
<path d="M309.78 342.69L290.8 342.69"/>
<path d="M319.27 347.43L319.27 356.92"/>
<path d="M319.27 356.92L338.24 356.92"/>
<path d="M338.24 356.92L338.24 347.43"/>
<path d="M338.24 347.43L319.27 347.43"/>
<path d="M281.31 347.43L281.31 356.92"/>
<path d="M281.31 356.92L262.34 356.92"/>
<path d="M262.34 356.92L262.34 347.43"/>
<path d="M262.34 347.43L281.31 347.43"/>
<path d="M243.36 133.96L361.96 133.96"/>
<path d="M243.36 91.26L252.85 91.26"/>
<path d="M252.85 91.26L252.85 100.75"/>
<path d="M252.85 100.75L262.34 100.75"/>
<path d="M262.34 100.75L262.34 110.24"/>
<path d="M262.34 110.24L243.36 110.24"/>
<path d="M361.96 91.26L352.47 91.26"/>
<path d="M352.47 91.26L352.47 100.75"/>
<path d="M352.47 100.75L342.99 100.75"/>
<path d="M342.99 100.75L342.99 110.24"/>
<path d="M342.99 110.24L361.96 110.24"/>
<path d="M271.83 86.52L271.83 96.01"/>
<path d="M271.83 96.01L333.5 96.01"/>
<path d="M333.5 96.01L333.5 86.52"/>
<path d="M333.5 86.52L271.83 86.52"/>
<path d="M271.83 86.52L257.59 86.52"/>
<path d="M257.59 86.52L257.59 77.03"/>
<path d="M257.59 77.03L347.73 77.03"/>
<path d="M347.73 77.03L347.73 86.52"/>
<path d="M347.73 86.52L333.5 86.52"/>
<path d="M271.83 96.01L271.83 133.96"/>
<path d="M286.06 96.01L286.06 133.96"/>
<path d="M333.5 96.01L333.5 133.96"/>
<path d="M319.27 96.01L319.27 133.96"/>
<path d="M174.3 404.55L174.3 376.09M175.65 376.09L175.65 404.55M170.23 376.09L183.79 376.09M183.79 376.09L187.85 377.44M187.85 377.44L190.56 380.15M190.56 380.15L191.92 382.86M191.92 382.86L193.27 386.93M193.27 386.93L193.27 393.71M193.27 393.71L191.92 397.77M191.92 397.77L190.56 400.48M190.56 400.48L187.85 403.2M187.85 403.2L183.79 404.55M183.79 404.55L170.23 404.55M183.79 376.09L186.5 377.44M186.5 377.44L189.21 380.15M189.21 380.15L190.56 382.86M190.56 382.86L191.92 386.93M191.92 386.93L191.92 393.71M191.92 393.71L190.56 397.77M190.56 397.77L189.21 400.48M189.21 400.48L186.5 403.2M186.5 403.2L183.79 404.55M212.25 376.09L202.76 404.55M212.25 376.09L221.74 404.55M212.25 380.15L220.38 404.55M205.47 396.42L217.67 396.42M200.05 404.55L208.18 404.55M216.31 404.55L224.45 404.55M232.58 404.55L232.58 376.09M233.94 376.09L233.94 404.55M228.51 376.09L244.78 376.09M244.78 376.09L248.84 377.44M248.84 377.44L250.2 378.8M250.2 378.8L251.56 381.51M251.56 381.51L251.56 384.22M251.56 384.22L250.2 386.93M250.2 386.93L248.84 388.29M248.84 388.29L244.78 389.64M244.78 389.64L233.94 389.64M244.78 376.09L247.49 377.44M247.49 377.44L248.84 378.8M248.84 378.8L250.2 381.51M250.2 381.51L250.2 384.22M250.2 384.22L248.84 386.93M248.84 386.93L247.49 388.29M247.49 388.29L244.78 389.64M228.51 404.55L238 404.55M240.71 389.64L243.42 391M243.42 391L244.78 392.35M244.78 392.35L248.84 401.84M248.84 401.84L250.2 403.2M250.2 403.2L251.56 403.2M251.56 403.2L252.91 401.84M243.42 391L244.78 393.71M244.78 393.71L247.49 403.2M247.49 403.2L248.84 404.55M248.84 404.55L251.56 404.55M251.56 404.55L252.91 401.84M252.91 401.84L252.91 400.48M262.4 404.55L262.4 376.09M263.75 376.09L263.75 404.55M281.37 376.09L263.75 393.71M270.53 388.29L281.37 404.55M269.18 388.29L280.02 404.55M258.33 376.09L267.82 376.09M275.95 376.09L284.09 376.09M258.33 404.55L267.82 404.55M275.95 404.55L284.09 404.55M335.59 380.15L336.95 384.22M336.95 384.22L336.95 376.09M336.95 376.09L335.59 380.15M335.59 380.15L332.88 377.44M332.88 377.44L328.81 376.09M328.81 376.09L326.1 376.09M326.1 376.09L322.04 377.44M322.04 377.44L319.33 380.15M319.33 380.15L317.97 382.86M317.97 382.86L316.62 386.93M316.62 386.93L316.62 393.71M316.62 393.71L317.97 397.77M317.97 397.77L319.33 400.48M319.33 400.48L322.04 403.2M322.04 403.2L326.1 404.55M326.1 404.55L328.81 404.55M328.81 404.55L332.88 403.2M332.88 403.2L335.59 400.48M326.1 376.09L323.39 377.44M323.39 377.44L320.68 380.15M320.68 380.15L319.33 382.86M319.33 382.86L317.97 386.93M317.97 386.93L317.97 393.71M317.97 393.71L319.33 397.77M319.33 397.77L320.68 400.48M320.68 400.48L323.39 403.2M323.39 403.2L326.1 404.55M335.59 393.71L335.59 404.55M336.95 393.71L336.95 404.55M331.53 393.71L341.01 393.71M351.86 404.55L351.86 376.09M353.21 376.09L353.21 404.55M347.79 376.09L364.06 376.09M364.06 376.09L368.12 377.44M368.12 377.44L369.48 378.8M369.48 378.8L370.83 381.51M370.83 381.51L370.83 384.22M370.83 384.22L369.48 386.93M369.48 386.93L368.12 388.29M368.12 388.29L364.06 389.64M364.06 389.64L353.21 389.64M364.06 376.09L366.77 377.44M366.77 377.44L368.12 378.8M368.12 378.8L369.48 381.51M369.48 381.51L369.48 384.22M369.48 384.22L368.12 386.93M368.12 386.93L366.77 388.29M366.77 388.29L364.06 389.64M347.79 404.55L357.28 404.55M359.99 389.64L362.7 391M362.7 391L364.06 392.35M364.06 392.35L368.12 401.84M368.12 401.84L369.48 403.2M369.48 403.2L370.83 403.2M370.83 403.2L372.19 401.84M362.7 391L364.06 393.71M364.06 393.71L366.77 403.2M366.77 403.2L368.12 404.55M368.12 404.55L370.83 404.55M370.83 404.55L372.19 401.84M372.19 401.84L372.19 400.48M381.68 404.55L381.68 376.09M383.03 376.09L383.03 404.55M391.16 384.22L391.16 395.06M377.61 376.09L399.3 376.09M399.3 376.09L399.3 384.22M399.3 384.22L397.94 376.09M383.03 389.64L391.16 389.64M377.61 404.55L399.3 404.55M399.3 404.55L399.3 396.42M399.3 396.42L397.94 404.55M408.78 376.09L418.27 391M418.27 391L418.27 404.55M410.14 376.09L419.63 391M419.63 391L419.63 404.55M429.12 376.09L419.63 391M406.07 376.09L414.21 376.09M423.69 376.09L431.83 376.09M414.21 404.55L423.69 404.55"/>
<path d="M449.27 185.91L451.53 184.78M451.53 184.78L454.92 181.4M454.92 181.4L454.92 205.12"/>
<path d="M141.71 187.04L141.71 185.91M141.71 185.91L142.84 183.66M142.84 183.66L143.97 182.53M143.97 182.53L146.22 181.4M146.22 181.4L150.74 181.4M150.74 181.4L153 182.53M153 182.53L154.13 183.66M154.13 183.66L155.26 185.91M155.26 185.91L155.26 188.17M155.26 188.17L154.13 190.43M154.13 190.43L151.87 193.82M151.87 193.82L140.58 205.12M140.58 205.12L156.39 205.12"/>
<path d="M446.45 257.3L458.87 257.3M458.87 257.3L452.1 266.34M452.1 266.34L455.48 266.34M455.48 266.34L457.74 267.47M457.74 267.47L458.87 268.59M458.87 268.59L460 271.98M460 271.98L460 274.24M460 274.24L458.87 277.63M458.87 277.63L456.61 279.89M456.61 279.89L453.23 281.02M453.23 281.02L449.84 281.02M449.84 281.02L446.45 279.89M446.45 279.89L445.32 278.76M445.32 278.76L444.19 276.5"/>
<path d="M151.31 252.56L140.01 268.37M140.01 268.37L156.95 268.37M151.31 252.56L151.31 276.28"/>
</g>
</g>
</svg>
