<?xml version="1.0" standalone="no"?><svg xmlns="http://www.w3.org/2000/svg" width="600.000" height="450.000" viewBox="0.0 0.0 600.000 450.000" version="1.1">
<title>Acme Converter - Post-processed with EDS-Designer: 14.44 (info@symca.com)</title>
<desc>Acme Converter - Post-processed with EDS-Designer: 14.44 (info@symca.com)</desc>
<g id="EDS_STYLE_GROUP" fill="none" stroke="black" stroke-width="1.0">
<g id="0" display="visible">
<path d="M212.24 388.06L214.16 387.26M214.16 387.26L214.95 385.34"/>
<path d="M204.08 385.34L204.88 387.26M204.88 387.26L206.8 388.06"/>
<path d="M312.79 203.26L339.96 203.26"/>
<path d="M318.22 181.52L318.22 197.83"/>
<path d="M318.22 197.83L334.53 197.83"/>
<path d="M334.53 197.83L334.53 181.52"/>
<path d="M334.53 181.52L329.09 181.52"/>
<path d="M329.09 181.52L329.09 170.65"/>
<path d="M329.09 170.65L334.53 170.65"/>
<path d="M334.53 170.65L334.53 159.78"/>
<path d="M323.66 170.65L323.66 181.52"/>
<path d="M323.66 181.52L318.22 181.52"/>
<path d="M334.53 159.78L318.22 159.78"/>
<path d="M318.22 159.78L318.22 170.65"/>
<path d="M318.22 170.65L323.66 170.65"/>
<path d="M323.66 176.09L312.79 176.09"/>
<path d="M312.79 176.09L312.79 203.26"/>
<path d="M339.96 203.26L339.96 176.09"/>
<path d="M339.96 176.09L329.09 176.09"/>
<path d="M318.22 181.52L312.79 176.09"/>
<path d="M312.79 203.26L318.22 197.83"/>
<path d="M334.53 181.52L339.96 176.09"/>
<path d="M334.53 197.83L339.96 203.26"/>
<path d="M225.83 138.04L225.83 110.87"/>
<path d="M225.83 110.87L247.57 110.87"/>
<path d="M247.57 110.87L247.57 138.04"/>
<path d="M247.57 138.04L242.13 138.04"/>
<path d="M242.13 138.04L242.13 159.78"/>
<path d="M242.13 159.78L247.57 159.78"/>
<path d="M247.57 159.78L247.57 186.96"/>
<path d="M247.57 186.96L225.83 186.96"/>
<path d="M225.83 186.96L225.83 159.78"/>
<path d="M225.83 159.78L231.26 159.78"/>
<path d="M231.26 159.78L231.26 138.04"/>
<path d="M231.26 138.04L225.83 138.04"/>
<path d="M253 121.74L253 148.91"/>
<path d="M253 148.91L280.18 148.91"/>
<path d="M280.18 148.91L280.18 121.74"/>
<path d="M280.18 121.74L269.31 121.74"/>
<path d="M269.31 121.74L269.31 116.3"/>
<path d="M269.31 116.3L274.74 116.3"/>
<path d="M274.74 116.3L274.74 105.43"/>
<path d="M274.74 105.43L258.44 105.43"/>
<path d="M258.44 105.43L258.44 116.3"/>
<path d="M258.44 116.3L263.87 116.3"/>
<path d="M263.87 116.3L263.87 121.74"/>
<path d="M263.87 121.74L253 121.74"/>
<path d="M263.87 121.74L263.87 127.17"/>
<path d="M263.87 127.17L258.44 127.17"/>
<path d="M258.44 127.17L258.44 143.48"/>
<path d="M258.44 143.48L274.74 143.48"/>
<path d="M274.74 143.48L274.74 127.17"/>
<path d="M274.74 127.17L269.31 127.17"/>
<path d="M269.31 127.17L269.31 121.74"/>
<path d="M258.44 127.17L253 121.74"/>
<path d="M274.74 127.17L280.18 121.74"/>
<path d="M285.61 110.87L285.61 138.04"/>
<path d="M285.61 138.04L291.05 138.04"/>
<path d="M291.05 138.04L291.05 159.78"/>
<path d="M291.05 159.78L285.61 159.78"/>
<path d="M285.61 159.78L285.61 186.96"/>
<path d="M285.61 186.96L307.35 186.96"/>
<path d="M307.35 186.96L307.35 159.78"/>
<path d="M307.35 159.78L301.92 159.78"/>
<path d="M301.92 159.78L301.92 138.04"/>
<path d="M301.92 138.04L307.35 138.04"/>
<path d="M307.35 138.04L307.35 110.87"/>
<path d="M307.35 110.87L285.61 110.87"/>
<path d="M312.79 121.74L312.79 148.91"/>
<path d="M312.79 148.91L339.96 148.91"/>
<path d="M339.96 148.91L339.96 121.74"/>
<path d="M339.96 121.74L329.09 121.74"/>
<path d="M329.09 121.74L329.09 116.3"/>
<path d="M329.09 116.3L334.53 116.3"/>
<path d="M334.53 116.3L334.53 105.43"/>
<path d="M334.53 105.43L318.22 105.43"/>
<path d="M318.22 105.43L318.22 116.3"/>
<path d="M318.22 116.3L323.66 116.3"/>
<path d="M323.66 116.3L323.66 121.74"/>
<path d="M323.66 121.74L312.79 121.74"/>
<path d="M323.66 121.74L323.66 127.17"/>
<path d="M323.66 127.17L318.22 127.17"/>
<path d="M318.22 127.17L318.22 143.48"/>
<path d="M318.22 143.48L334.53 143.48"/>
<path d="M334.53 143.48L334.53 127.17"/>
<path d="M334.53 127.17L329.09 127.17"/>
<path d="M329.09 127.17L329.09 121.74"/>
<path d="M334.53 127.17L339.96 121.74"/>
<path d="M334.53 143.48L339.96 148.91"/>
<path d="M318.22 143.48L312.79 148.91"/>
<path d="M318.22 127.17L312.79 121.74"/>
<path d="M345.4 110.87L345.4 138.04"/>
<path d="M345.4 138.04L350.83 138.04"/>
<path d="M350.83 138.04L350.83 159.78"/>
<path d="M350.83 159.78L345.4 159.78"/>
<path d="M345.4 159.78L345.4 186.96"/>
<path d="M345.4 186.96L367.14 186.96"/>
<path d="M367.14 186.96L367.14 159.78"/>
<path d="M367.14 159.78L361.7 159.78"/>
<path d="M361.7 159.78L361.7 138.04"/>
<path d="M361.7 138.04L367.14 138.04"/>
<path d="M367.14 138.04L367.14 110.87"/>
<path d="M367.14 110.87L345.4 110.87"/>
<path d="M372.57 121.74L372.57 148.91"/>
<path d="M372.57 148.91L399.75 148.91"/>
<path d="M399.75 148.91L399.75 121.74"/>
<path d="M399.75 121.74L388.88 121.74"/>
<path d="M388.88 121.74L388.88 116.3"/>
<path d="M388.88 116.3L394.32 116.3"/>
<path d="M394.32 116.3L394.32 105.43"/>
<path d="M394.32 105.43L378.01 105.43"/>
<path d="M378.01 105.43L378.01 116.3"/>
<path d="M378.01 116.3L383.44 116.3"/>
<path d="M383.44 116.3L383.44 121.74"/>
<path d="M383.44 121.74L372.57 121.74"/>
<path d="M383.44 121.74L383.44 127.17"/>
<path d="M383.44 127.17L378.01 127.17"/>
<path d="M378.01 127.17L378.01 143.48"/>
<path d="M378.01 143.48L394.32 143.48"/>
<path d="M394.32 143.48L394.32 127.17"/>
<path d="M394.32 127.17L388.88 127.17"/>
<path d="M388.88 127.17L388.88 121.74"/>
<path d="M378.01 127.17L372.57 121.74"/>
<path d="M378.01 143.48L372.57 148.91"/>
<path d="M394.32 143.48L399.75 148.91"/>
<path d="M394.32 127.17L399.75 121.74"/>
<path d="M193.21 148.91L220.39 148.91"/>
<path d="M198.65 127.17L198.65 143.48"/>
<path d="M198.65 143.48L214.95 143.48"/>
<path d="M214.95 143.48L214.95 127.17"/>
<path d="M214.95 127.17L209.52 127.17"/>
<path d="M209.52 127.17L209.52 116.3"/>
<path d="M209.52 116.3L214.95 116.3"/>
<path d="M214.95 116.3L214.95 105.43"/>
<path d="M204.08 116.3L204.08 127.17"/>
<path d="M204.08 127.17L198.65 127.17"/>
<path d="M214.95 105.43L198.65 105.43"/>
<path d="M198.65 105.43L198.65 116.3"/>
<path d="M198.65 116.3L204.08 116.3"/>
<path d="M204.08 121.74L193.21 121.74"/>
<path d="M193.21 121.74L193.21 148.91"/>
<path d="M220.39 148.91L220.39 121.74"/>
<path d="M220.39 121.74L209.52 121.74"/>
<path d="M198.65 127.17L193.21 121.74"/>
<path d="M193.21 148.91L198.65 143.48"/>
<path d="M214.95 127.17L220.39 121.74"/>
<path d="M214.95 143.48L220.39 148.91"/>
<path d="M193.21 203.26L220.39 203.26"/>
<path d="M198.65 181.52L198.65 197.83"/>
<path d="M198.65 197.83L214.95 197.83"/>
<path d="M214.95 197.83L214.95 181.52"/>
<path d="M214.95 181.52L209.52 181.52"/>
<path d="M209.52 181.52L209.52 170.65"/>
<path d="M209.52 170.65L214.95 170.65"/>
<path d="M214.95 170.65L214.95 159.78"/>
<path d="M204.08 170.65L204.08 181.52"/>
<path d="M204.08 181.52L198.65 181.52"/>
<path d="M214.95 159.78L198.65 159.78"/>
<path d="M198.65 159.78L198.65 170.65"/>
<path d="M198.65 170.65L204.08 170.65"/>
<path d="M204.08 176.09L193.21 176.09"/>
<path d="M193.21 176.09L193.21 203.26"/>
<path d="M220.39 203.26L220.39 176.09"/>
<path d="M220.39 176.09L209.52 176.09"/>
<path d="M198.65 181.52L193.21 176.09"/>
<path d="M193.21 203.26L198.65 197.83"/>
<path d="M214.95 181.52L220.39 176.09"/>
<path d="M214.95 197.83L220.39 203.26"/>
<path d="M253 203.26L280.18 203.26"/>
<path d="M258.44 181.52L258.44 197.83"/>
<path d="M258.44 197.83L274.74 197.83"/>
<path d="M274.74 197.83L274.74 181.52"/>
<path d="M274.74 181.52L269.31 181.52"/>
<path d="M269.31 181.52L269.31 170.65"/>
<path d="M269.31 170.65L274.74 170.65"/>
<path d="M274.74 170.65L274.74 159.78"/>
<path d="M263.87 170.65L263.87 181.52"/>
<path d="M263.87 181.52L258.44 181.52"/>
<path d="M274.74 159.78L258.44 159.78"/>
<path d="M258.44 159.78L258.44 170.65"/>
<path d="M258.44 170.65L263.87 170.65"/>
<path d="M263.87 176.09L253 176.09"/>
<path d="M253 176.09L253 203.26"/>
<path d="M280.18 203.26L280.18 176.09"/>
<path d="M280.18 176.09L269.31 176.09"/>
<path d="M258.44 181.52L253 176.09"/>
<path d="M253 203.26L258.44 197.83"/>
<path d="M274.74 181.52L280.18 176.09"/>
<path d="M274.74 197.83L280.18 203.26"/>
<path d="M372.57 203.26L399.75 203.26"/>
<path d="M378.01 181.52L378.01 197.83"/>
<path d="M378.01 197.83L394.32 197.83"/>
<path d="M394.32 197.83L394.32 181.52"/>
<path d="M394.32 181.52L388.88 181.52"/>
<path d="M388.88 181.52L388.88 170.65"/>
<path d="M388.88 170.65L394.32 170.65"/>
<path d="M394.32 170.65L394.32 159.78"/>
<path d="M383.44 170.65L383.44 181.52"/>
<path d="M383.44 181.52L378.01 181.52"/>
<path d="M394.32 159.78L378.01 159.78"/>
<path d="M378.01 159.78L378.01 170.65"/>
<path d="M378.01 170.65L383.44 170.65"/>
<path d="M383.44 176.09L372.57 176.09"/>
<path d="M372.57 176.09L372.57 203.26"/>
<path d="M399.75 203.26L399.75 176.09"/>
<path d="M399.75 176.09L388.88 176.09"/>
<path d="M378.01 181.52L372.57 176.09"/>
<path d="M372.57 203.26L378.01 197.83"/>
<path d="M394.32 181.52L399.75 176.09"/>
<path d="M394.32 197.83L399.75 203.26"/>
<path d="M247.57 197.83L225.83 197.83"/>
<path d="M225.83 197.83L225.83 219.57"/>
<path d="M225.83 219.57L247.57 219.57"/>
<path d="M247.57 219.57L247.57 197.83"/>
<path d="M285.61 197.83L285.61 219.57"/>
<path d="M285.61 219.57L307.35 219.57"/>
<path d="M307.35 219.57L307.35 197.83"/>
<path d="M307.35 197.83L285.61 197.83"/>
<path d="M367.14 197.83L345.4 197.83"/>
<path d="M345.4 197.83L345.4 219.57"/>
<path d="M345.4 219.57L367.14 219.57"/>
<path d="M367.14 219.57L367.14 197.83"/>
<path d="M312.79 320.12L339.96 320.12"/>
<path d="M318.22 298.38L318.22 314.69"/>
<path d="M318.22 314.69L334.53 314.69"/>
<path d="M334.53 314.69L334.53 298.38"/>
<path d="M334.53 298.38L329.09 298.38"/>
<path d="M329.09 298.38L329.09 287.51"/>
<path d="M329.09 287.51L334.53 287.51"/>
<path d="M334.53 287.51L334.53 276.64"/>
<path d="M323.66 287.51L323.66 298.38"/>
<path d="M323.66 298.38L318.22 298.38"/>
<path d="M334.53 276.64L318.22 276.64"/>
<path d="M318.22 276.64L318.22 287.51"/>
<path d="M318.22 287.51L323.66 287.51"/>
<path d="M323.66 292.94L312.79 292.94"/>
<path d="M312.79 292.94L312.79 320.12"/>
<path d="M339.96 320.12L339.96 292.94"/>
<path d="M339.96 292.94L329.09 292.94"/>
<path d="M318.22 298.38L312.79 292.94"/>
<path d="M312.79 320.12L318.22 314.69"/>
<path d="M334.53 298.38L339.96 292.94"/>
<path d="M334.53 314.69L339.96 320.12"/>
<path d="M225.83 254.9L225.83 227.72"/>
<path d="M225.83 227.72L247.57 227.72"/>
<path d="M247.57 227.72L247.57 254.9"/>
<path d="M247.57 254.9L242.13 254.9"/>
<path d="M242.13 254.9L242.13 276.64"/>
<path d="M242.13 276.64L247.57 276.64"/>
<path d="M247.57 276.64L247.57 303.81"/>
<path d="M247.57 303.81L225.83 303.81"/>
<path d="M225.83 303.81L225.83 276.64"/>
<path d="M225.83 276.64L231.26 276.64"/>
<path d="M231.26 276.64L231.26 254.9"/>
<path d="M231.26 254.9L225.83 254.9"/>
<path d="M253 238.59L253 265.77"/>
<path d="M253 265.77L280.18 265.77"/>
<path d="M280.18 265.77L280.18 238.59"/>
<path d="M280.18 238.59L269.31 238.59"/>
<path d="M269.31 238.59L269.31 233.16"/>
<path d="M269.31 233.16L274.74 233.16"/>
<path d="M274.74 233.16L274.74 222.29"/>
<path d="M274.74 222.29L258.44 222.29"/>
<path d="M258.44 222.29L258.44 233.16"/>
<path d="M258.44 233.16L263.87 233.16"/>
<path d="M263.87 233.16L263.87 238.59"/>
<path d="M263.87 238.59L253 238.59"/>
<path d="M263.87 238.59L263.87 244.03"/>
<path d="M263.87 244.03L258.44 244.03"/>
<path d="M258.44 244.03L258.44 260.33"/>
<path d="M258.44 260.33L274.74 260.33"/>
<path d="M274.74 260.33L274.74 244.03"/>
<path d="M274.74 244.03L269.31 244.03"/>
<path d="M269.31 244.03L269.31 238.59"/>
<path d="M258.44 244.03L253 238.59"/>
<path d="M274.74 244.03L280.18 238.59"/>
<path d="M285.61 227.72L285.61 254.9"/>
<path d="M285.61 254.9L291.05 254.9"/>
<path d="M291.05 254.9L291.05 276.64"/>
<path d="M291.05 276.64L285.61 276.64"/>
<path d="M285.61 276.64L285.61 303.81"/>
<path d="M285.61 303.81L307.35 303.81"/>
<path d="M307.35 303.81L307.35 276.64"/>
<path d="M307.35 276.64L301.92 276.64"/>
<path d="M301.92 276.64L301.92 254.9"/>
<path d="M301.92 254.9L307.35 254.9"/>
<path d="M307.35 254.9L307.35 227.72"/>
<path d="M307.35 227.72L285.61 227.72"/>
<path d="M312.79 238.59L312.79 265.77"/>
<path d="M312.79 265.77L339.96 265.77"/>
<path d="M339.96 265.77L339.96 238.59"/>
<path d="M339.96 238.59L329.09 238.59"/>
<path d="M329.09 238.59L329.09 233.16"/>
<path d="M329.09 233.16L334.53 233.16"/>
<path d="M334.53 233.16L334.53 222.29"/>
<path d="M334.53 222.29L318.22 222.29"/>
<path d="M318.22 222.29L318.22 233.16"/>
<path d="M318.22 233.16L323.66 233.16"/>
<path d="M323.66 233.16L323.66 238.59"/>
<path d="M323.66 238.59L312.79 238.59"/>
<path d="M323.66 238.59L323.66 244.03"/>
<path d="M323.66 244.03L318.22 244.03"/>
<path d="M318.22 244.03L318.22 260.33"/>
<path d="M318.22 260.33L334.53 260.33"/>
<path d="M334.53 260.33L334.53 244.03"/>
<path d="M334.53 244.03L329.09 244.03"/>
<path d="M329.09 244.03L329.09 238.59"/>
<path d="M334.53 244.03L339.96 238.59"/>
<path d="M334.53 260.33L339.96 265.77"/>
<path d="M318.22 260.33L312.79 265.77"/>
<path d="M318.22 244.03L312.79 238.59"/>
<path d="M345.4 227.72L345.4 254.9"/>
<path d="M345.4 254.9L350.83 254.9"/>
<path d="M350.83 254.9L350.83 276.64"/>
<path d="M350.83 276.64L345.4 276.64"/>
<path d="M345.4 276.64L345.4 303.81"/>
<path d="M345.4 303.81L367.14 303.81"/>
<path d="M367.14 303.81L367.14 276.64"/>
<path d="M367.14 276.64L361.7 276.64"/>
<path d="M361.7 276.64L361.7 254.9"/>
<path d="M361.7 254.9L367.14 254.9"/>
<path d="M367.14 254.9L367.14 227.72"/>
<path d="M367.14 227.72L345.4 227.72"/>
<path d="M372.57 238.59L372.57 265.77"/>
<path d="M372.57 265.77L399.75 265.77"/>
<path d="M399.75 265.77L399.75 238.59"/>
<path d="M399.75 238.59L388.88 238.59"/>
<path d="M388.88 238.59L388.88 233.16"/>
<path d="M388.88 233.16L394.32 233.16"/>
<path d="M394.32 233.16L394.32 222.29"/>
<path d="M394.32 222.29L378.01 222.29"/>
<path d="M378.01 222.29L378.01 233.16"/>
<path d="M378.01 233.16L383.44 233.16"/>
<path d="M383.44 233.16L383.44 238.59"/>
<path d="M383.44 238.59L372.57 238.59"/>
<path d="M383.44 238.59L383.44 244.03"/>
<path d="M383.44 244.03L378.01 244.03"/>
<path d="M378.01 244.03L378.01 260.33"/>
<path d="M378.01 260.33L394.32 260.33"/>
<path d="M394.32 260.33L394.32 244.03"/>
<path d="M394.32 244.03L388.88 244.03"/>
<path d="M388.88 244.03L388.88 238.59"/>
<path d="M378.01 244.03L372.57 238.59"/>
<path d="M378.01 260.33L372.57 265.77"/>
<path d="M394.32 260.33L399.75 265.77"/>
<path d="M394.32 244.03L399.75 238.59"/>
<path d="M193.21 265.77L220.39 265.77"/>
<path d="M198.65 244.03L198.65 260.33"/>
<path d="M198.65 260.33L214.95 260.33"/>
<path d="M214.95 260.33L214.95 244.03"/>
<path d="M214.95 244.03L209.52 244.03"/>
<path d="M209.52 244.03L209.52 233.16"/>
<path d="M209.52 233.16L214.95 233.16"/>
<path d="M214.95 233.16L214.95 222.29"/>
<path d="M204.08 233.16L204.08 244.03"/>
<path d="M204.08 244.03L198.65 244.03"/>
<path d="M214.95 222.29L198.65 222.29"/>
<path d="M198.65 222.29L198.65 233.16"/>
<path d="M198.65 233.16L204.08 233.16"/>
<path d="M204.08 238.59L193.21 238.59"/>
<path d="M193.21 238.59L193.21 265.77"/>
<path d="M220.39 265.77L220.39 238.59"/>
<path d="M220.39 238.59L209.52 238.59"/>
<path d="M198.65 244.03L193.21 238.59"/>
<path d="M193.21 265.77L198.65 260.33"/>
<path d="M214.95 244.03L220.39 238.59"/>
<path d="M214.95 260.33L220.39 265.77"/>
<path d="M193.21 320.12L220.39 320.12"/>
<path d="M198.65 298.38L198.65 314.69"/>
<path d="M198.65 314.69L214.95 314.69"/>
<path d="M214.95 314.69L214.95 298.38"/>
<path d="M214.95 298.38L209.52 298.38"/>
<path d="M209.52 298.38L209.52 287.51"/>
<path d="M209.52 287.51L214.95 287.51"/>
<path d="M214.95 287.51L214.95 276.64"/>
<path d="M204.08 287.51L204.08 298.38"/>
<path d="M204.08 298.38L198.65 298.38"/>
<path d="M214.95 276.64L198.65 276.64"/>
<path d="M198.65 276.64L198.65 287.51"/>
<path d="M198.65 287.51L204.08 287.51"/>
<path d="M204.08 292.94L193.21 292.94"/>
<path d="M193.21 292.94L193.21 320.12"/>
<path d="M220.39 320.12L220.39 292.94"/>
<path d="M220.39 292.94L209.52 292.94"/>
<path d="M198.65 298.38L193.21 292.94"/>
<path d="M193.21 320.12L198.65 314.69"/>
<path d="M214.95 298.38L220.39 292.94"/>
<path d="M214.95 314.69L220.39 320.12"/>
<path d="M253 320.12L280.18 320.12"/>
<path d="M258.44 298.38L258.44 314.69"/>
<path d="M258.44 314.69L274.74 314.69"/>
<path d="M274.74 314.69L274.74 298.38"/>
<path d="M274.74 298.38L269.31 298.38"/>
<path d="M269.31 298.38L269.31 287.51"/>
<path d="M269.31 287.51L274.74 287.51"/>
<path d="M274.74 287.51L274.74 276.64"/>
<path d="M263.87 287.51L263.87 298.38"/>
<path d="M263.87 298.38L258.44 298.38"/>
<path d="M274.74 276.64L258.44 276.64"/>
<path d="M258.44 276.64L258.44 287.51"/>
<path d="M258.44 287.51L263.87 287.51"/>
<path d="M263.87 292.94L253 292.94"/>
<path d="M253 292.94L253 320.12"/>
<path d="M280.18 320.12L280.18 292.94"/>
<path d="M280.18 292.94L269.31 292.94"/>
<path d="M258.44 298.38L253 292.94"/>
<path d="M253 320.12L258.44 314.69"/>
<path d="M274.74 298.38L280.18 292.94"/>
<path d="M274.74 314.69L280.18 320.12"/>
<path d="M372.57 320.12L399.75 320.12"/>
<path d="M378.01 298.38L378.01 314.69"/>
<path d="M378.01 314.69L394.32 314.69"/>
<path d="M394.32 314.69L394.32 298.38"/>
<path d="M394.32 298.38L388.88 298.38"/>
<path d="M388.88 298.38L388.88 287.51"/>
<path d="M388.88 287.51L394.32 287.51"/>
<path d="M394.32 287.51L394.32 276.64"/>
<path d="M383.44 287.51L383.44 298.38"/>
<path d="M383.44 298.38L378.01 298.38"/>
<path d="M394.32 276.64L378.01 276.64"/>
<path d="M378.01 276.64L378.01 287.51"/>
<path d="M378.01 287.51L383.44 287.51"/>
<path d="M383.44 292.94L372.57 292.94"/>
<path d="M372.57 292.94L372.57 320.12"/>
<path d="M399.75 320.12L399.75 292.94"/>
<path d="M399.75 292.94L388.88 292.94"/>
<path d="M378.01 298.38L372.57 292.94"/>
<path d="M372.57 320.12L378.01 314.69"/>
<path d="M394.32 298.38L399.75 292.94"/>
<path d="M394.32 314.69L399.75 320.12"/>
<path d="M247.57 314.69L225.83 314.69"/>
<path d="M225.83 314.69L225.83 336.43"/>
<path d="M225.83 336.43L247.57 336.43"/>
<path d="M247.57 336.43L247.57 314.69"/>
<path d="M285.61 314.69L285.61 336.43"/>
<path d="M285.61 336.43L307.35 336.43"/>
<path d="M307.35 336.43L307.35 314.69"/>
<path d="M307.35 314.69L285.61 314.69"/>
<path d="M367.14 314.69L345.4 314.69"/>
<path d="M345.4 314.69L345.4 336.43"/>
<path d="M345.4 336.43L367.14 336.43"/>
<path d="M367.14 336.43L367.14 314.69"/>
<path d="M182.34 105.43L182.34 339.14"/>
<path d="M193.21 350.01L399.75 350.01"/>
<path d="M193.21 94.56L399.75 94.56"/>
<path d="M410.62 105.43L410.62 339.14"/>
<path d="M193.21 94.56L187.78 96.02M187.78 96.02L183.8 100M183.8 100L182.34 105.43"/>
<path d="M410.62 105.43L409.16 100M409.16 100L405.19 96.02M405.19 96.02L399.75 94.56"/>
<path d="M399.75 350.01L405.19 348.56M405.19 348.56L409.16 344.58M409.16 344.58L410.62 339.14"/>
<path d="M182.34 339.14L183.8 344.58M183.8 344.58L187.78 348.56M187.78 348.56L193.21 350.01"/>
<path d="M236.7 89.13L236.7 56.52"/>
<path d="M236.7 56.52L225.83 56.52"/>
<path d="M225.83 56.52L225.83 78.26"/>
<path d="M225.83 78.26L193.21 78.26"/>
<path d="M166.04 105.43L166.04 148.91"/>
<path d="M166.04 148.91L152.45 148.91"/>
<path d="M149.73 151.63L149.73 162.5"/>
<path d="M152.45 165.22L166.04 165.22"/>
<path d="M166.04 165.22L166.04 339.14"/>
<path d="M193.21 366.32L204.08 366.32"/>
<path d="M204.08 366.32L204.08 385.34"/>
<path d="M206.8 388.06L212.24 388.06"/>
<path d="M214.95 385.34L214.95 366.32"/>
<path d="M214.95 366.32L236.7 366.32"/>
<path d="M236.7 366.32L236.7 350.01"/>
<path d="M193.21 78.26L184.82 79.59M184.82 79.59L177.24 83.45M177.24 83.45L171.23 89.46M171.23 89.46L167.37 97.03M167.37 97.03L166.04 105.43"/>
<path d="M166.04 339.14L167.37 347.54M167.37 347.54L171.23 355.12M171.23 355.12L177.24 361.13M177.24 361.13L184.82 364.99M184.82 364.99L193.21 366.32"/>
<path d="M152.45 148.91L151.09 149.28M151.09 149.28L150.1 150.27M150.1 150.27L149.73 151.63"/>
<path d="M149.73 162.5L150.1 163.86M150.1 163.86L151.09 164.85M151.09 164.85L152.45 165.22"/>
<path d="M356.27 350.01L356.27 366.32"/>
<path d="M356.27 366.32L378.01 366.32"/>
<path d="M378.01 366.32L378.01 385.34"/>
<path d="M380.73 388.06L386.16 388.06"/>
<path d="M388.88 385.34L388.88 366.32"/>
<path d="M388.88 366.32L399.75 366.32"/>
<path d="M426.93 339.14L426.93 165.22"/>
<path d="M426.93 165.22L440.51 165.22"/>
<path d="M443.23 162.5L443.23 151.63"/>
<path d="M440.51 148.91L426.93 148.91"/>
<path d="M426.93 148.91L426.93 105.43"/>
<path d="M399.75 78.26L367.14 78.26"/>
<path d="M367.14 78.26L367.14 56.52"/>
<path d="M367.14 56.52L356.27 56.52"/>
<path d="M356.27 56.52L356.27 89.13"/>
<path d="M443.23 151.63L442.87 150.27M442.87 150.27L441.87 149.28M441.87 149.28L440.51 148.91"/>
<path d="M440.51 165.22L441.87 164.85M441.87 164.85L442.87 163.86M442.87 163.86L443.23 162.5"/>
<path d="M386.16 388.06L387.52 387.7M387.52 387.7L388.52 386.7M388.52 386.7L388.88 385.34"/>
<path d="M378.01 385.34L378.81 387.26M378.81 387.26L380.73 388.06"/>
<path d="M426.93 105.43L425.6 97.03M425.6 97.03L421.74 89.46M421.74 89.46L415.72 83.45M415.72 83.45L408.15 79.59M408.15 79.59L399.75 78.26"/>
<path d="M399.75 366.32L408.15 364.99M408.15 364.99L415.72 361.13M415.72 361.13L421.74 355.12M421.74 355.12L425.6 347.54M425.6 347.54L426.93 339.14"/>
<path d="M236.7 366.32L356.27 366.32"/>
<path d="M236.7 89.13L236.7 94.56"/>
<path d="M356.27 89.13L356.27 94.56"/>
<path d="M247.57 94.56L247.57 45.64"/>
<path d="M247.57 45.64L345.4 45.64"/>
<path d="M345.4 45.64L345.4 94.56"/>
<path d="M258.44 45.64L258.44 56.52"/>
<path d="M258.44 56.52L247.57 56.52"/>
<path d="M334.53 45.64L334.53 56.52"/>
<path d="M334.53 56.52L345.4 56.52"/>
<path d="M258.44 56.52L258.44 94.56"/>
<path d="M334.53 56.52L334.53 94.56"/>
<path d="M280.18 94.56L280.18 78.26"/>
<path d="M280.18 78.26L312.79 78.26"/>
<path d="M312.79 78.26L312.79 94.56"/>
<path d="M258.44 67.39L334.53 67.39"/>
<path d="M285.61 67.39L285.61 56.52"/>
<path d="M285.61 56.52L307.35 56.52"/>
<path d="M307.35 56.52L307.35 67.39"/>
<path d="M269.31 67.39L269.31 56.52"/>
<path d="M269.31 56.52L285.61 56.52"/>
<path d="M323.66 67.39L323.66 56.52"/>
<path d="M323.66 56.52L307.35 56.52"/>
<path d="M153.08 125.41L146.61 134.46M146.61 134.46L156.31 134.46M153.08 125.41L153.08 138.99"/>
<path d="M445 129.22L446.29 128.57M446.29 128.57L448.23 126.63M448.23 126.63L448.23 140.22"/>
<path d="M149.84 184.11L147.9 184.75M147.9 184.75L147.25 186.05M147.25 186.05L147.25 187.34M147.25 187.34L147.9 188.63M147.9 188.63L149.2 189.28M149.2 189.28L151.78 189.93M151.78 189.93L153.73 190.58M153.73 190.58L155.02 191.87M155.02 191.87L155.67 193.16M155.67 193.16L155.67 195.11M155.67 195.11L155.02 196.4M155.02 196.4L154.37 197.05M154.37 197.05L152.43 197.69M152.43 197.69L149.84 197.69M149.84 197.69L147.9 197.05M147.9 197.05L147.25 196.4M147.25 196.4L146.61 195.11M146.61 195.11L146.61 193.16M146.61 193.16L147.25 191.87M147.25 191.87L148.55 190.58M148.55 190.58L150.49 189.93M150.49 189.93L153.08 189.28M153.08 189.28L154.37 188.63M154.37 188.63L155.02 187.34M155.02 187.34L155.02 186.05M155.02 186.05L154.37 184.75M154.37 184.75L152.43 184.11M152.43 184.11L149.84 184.11"/>
<path d="M452.76 184.11L446.29 184.11M446.29 184.11L445.65 189.93M445.65 189.93L446.29 189.28M446.29 189.28L448.23 188.63M448.23 188.63L450.17 188.63M450.17 188.63L452.12 189.28M452.12 189.28L453.41 190.58M453.41 190.58L454.06 192.52M454.06 192.52L454.06 193.81M454.06 193.81L453.41 195.75M453.41 195.75L452.12 197.05M452.12 197.05L450.17 197.69M450.17 197.69L448.23 197.69M448.23 197.69L446.29 197.05M446.29 197.05L445.65 196.4M445.65 196.4L445 195.11"/>
<path d="M136.82 251.51L138.12 250.86M138.12 250.86L140.06 248.92M140.06 248.92L140.06 262.51M147.82 252.16L147.82 251.51M147.82 251.51L148.47 250.21M148.47 250.21L149.12 249.57M149.12 249.57L150.41 248.92M150.41 248.92L153 248.92M153 248.92L154.29 249.57M154.29 249.57L154.94 250.21M154.94 250.21L155.59 251.51M155.59 251.51L155.59 252.8M155.59 252.8L154.94 254.1M154.94 254.1L153.65 256.04M153.65 256.04L147.18 262.51M147.18 262.51L156.24 262.51"/>
<path d="M452.19 251L451.54 252.94M451.54 252.94L450.25 254.24M450.25 254.24L448.3 254.89M448.3 254.89L447.66 254.89M447.66 254.89L445.72 254.24M445.72 254.24L444.42 252.94M444.42 252.94L443.78 251M443.78 251L443.78 250.36M443.78 250.36L444.42 248.42M444.42 248.42L445.72 247.12M445.72 247.12L447.66 246.47M447.66 246.47L448.3 246.47M448.3 246.47L450.25 247.12M450.25 247.12L451.54 248.42M451.54 248.42L452.19 251M452.19 251L452.19 254.24M452.19 254.24L451.54 257.47M451.54 257.47L450.25 259.41M450.25 259.41L448.3 260.06M448.3 260.06L447.01 260.06M447.01 260.06L445.07 259.41M445.07 259.41L444.42 258.12"/>
<path d="M136.82 304.09L138.12 303.45M138.12 303.45L140.06 301.51M140.06 301.51L140.06 315.09M154.94 303.45L154.29 302.15M154.29 302.15L152.35 301.51M152.35 301.51L151.06 301.51M151.06 301.51L149.12 302.15M149.12 302.15L147.82 304.09M147.82 304.09L147.18 307.33M147.18 307.33L147.18 310.56M147.18 310.56L147.82 313.15M147.82 313.15L149.12 314.45M149.12 314.45L151.06 315.09M151.06 315.09L151.71 315.09M151.71 315.09L153.65 314.45M153.65 314.45L154.94 313.15M154.94 313.15L155.59 311.21M155.59 311.21L155.59 310.56M155.59 310.56L154.94 308.62M154.94 308.62L153.65 307.33M153.65 307.33L151.71 306.68M151.71 306.68L151.06 306.68M151.06 306.68L149.12 307.33M149.12 307.33L147.82 308.62M147.82 308.62L147.18 310.56"/>
<path d="M443.78 304.09L445.07 303.45M445.07 303.45L447.01 301.51M447.01 301.51L447.01 315.09M455.42 301.51L462.54 301.51M462.54 301.51L458.66 306.68M458.66 306.68L460.6 306.68M460.6 306.68L461.89 307.33M461.89 307.33L462.54 307.98M462.54 307.98L463.19 309.92M463.19 309.92L463.19 311.21M463.19 311.21L462.54 313.15M462.54 313.15L461.25 314.45M461.25 314.45L459.3 315.09M459.3 315.09L457.36 315.09M457.36 315.09L455.42 314.45M455.42 314.45L454.77 313.8M454.77 313.8L454.13 312.5"/>
<path d="M253.45 404.37L253.45 385.34M253.45 385.34L261.61 385.34M261.61 385.34L264.32 386.25M264.32 386.25L265.23 387.15M265.23 387.15L266.14 388.97M266.14 388.97L266.14 390.78M266.14 390.78L265.23 392.59M265.23 392.59L264.32 393.5M264.32 393.5L261.61 394.4M253.45 394.4L261.61 394.4M261.61 394.4L264.32 395.31M264.32 395.31L265.23 396.21M265.23 396.21L266.14 398.02M266.14 398.02L266.14 400.74M266.14 400.74L265.23 402.55M265.23 402.55L264.32 403.46M264.32 403.46L261.61 404.37M261.61 404.37L253.45 404.37M272.48 385.34L272.48 404.37M272.48 404.37L283.35 404.37M287.88 404.37L295.12 385.34M295.12 385.34L302.37 404.37M290.59 398.02L299.65 398.02M321.39 389.87L320.49 388.06M320.49 388.06L318.68 386.25M318.68 386.25L316.86 385.34M316.86 385.34L313.24 385.34M313.24 385.34L311.43 386.25M311.43 386.25L309.62 388.06M309.62 388.06L308.71 389.87M308.71 389.87L307.81 392.59M307.81 392.59L307.81 397.12M307.81 397.12L308.71 399.84M308.71 399.84L309.62 401.65M309.62 401.65L311.43 403.46M311.43 403.46L313.24 404.37M313.24 404.37L316.86 404.37M316.86 404.37L318.68 403.46M318.68 403.46L320.49 401.65M320.49 401.65L321.39 399.84M326.83 404.37L326.83 385.34M339.51 385.34L326.83 398.02M331.36 393.5L339.51 404.37"/>
</g>
</g>
</svg>
