<?xml version="1.0" standalone="no"?><svg xmlns="http://www.w3.org/2000/svg" width="600.000" height="450.000" viewBox="0.0 0.0 600.000 450.000" version="1.1">
<title>Acme Converter - Post-processed with EDS-Designer: 14.44 (info@symca.com)</title>
<desc>Acme Converter - Post-processed with EDS-Designer: 14.44 (info@symca.com)</desc>
<g id="EDS_STYLE_GROUP" fill="none" stroke="black" stroke-width="1.0">
<g id="0" display="visible">
<path d="M348.5 200.19L352.82 195.87M352.82 195.87L352.82 221.77M348.5 221.77L357.13 221.77"/>
<path d="M234.15 200.19L238.46 195.87M238.46 195.87L247.09 195.87M247.09 195.87L251.41 200.19M251.41 200.19L251.41 204.5M251.41 204.5L247.09 208.82M247.09 208.82L238.46 208.82M238.46 208.82L234.15 213.14M234.15 213.14L234.15 221.77M234.15 221.77L251.41 221.77"/>
<path d="M312.95 189.4L312.95 228.24"/>
<path d="M312.95 228.24L403.57 228.24"/>
<path d="M403.57 228.24L403.57 189.4"/>
<path d="M403.57 189.4L312.95 189.4"/>
<path d="M312.95 189.4L306.47 182.93"/>
<path d="M306.47 182.93L306.47 234.71"/>
<path d="M306.47 234.71L410.04 234.71"/>
<path d="M410.04 234.71L410.04 182.93"/>
<path d="M410.04 182.93L306.47 182.93"/>
<path d="M403.57 189.4L410.04 182.93"/>
<path d="M403.57 228.24L410.04 234.71"/>
<path d="M312.95 228.24L306.47 234.71"/>
<path d="M189.96 182.93L189.96 234.71"/>
<path d="M196.43 189.4L196.43 228.24"/>
<path d="M196.43 189.4L189.96 182.93"/>
<path d="M293.53 182.93L189.96 182.93"/>
<path d="M287.05 189.4L196.43 189.4"/>
<path d="M287.05 189.4L293.53 182.93"/>
<path d="M293.53 234.71L293.53 182.93"/>
<path d="M287.05 228.24L287.05 189.4"/>
<path d="M287.05 228.24L293.53 234.71"/>
<path d="M189.96 234.71L293.53 234.71"/>
<path d="M196.43 228.24L287.05 228.24"/>
<path d="M196.43 228.24L189.96 234.71"/>
<path d="M287.05 260.6L287.05 280.02"/>
<path d="M287.05 280.02L312.95 280.02"/>
<path d="M312.95 280.02L312.95 260.6"/>
<path d="M312.95 260.6L287.05 260.6"/>
<path d="M215.85 254.13L215.85 280.02"/>
<path d="M215.85 280.02L261.16 280.02"/>
<path d="M261.16 280.02L261.16 254.13"/>
<path d="M261.16 254.13L215.85 254.13"/>
<path d="M338.84 254.13L338.84 280.02"/>
<path d="M384.15 254.13L338.84 254.13"/>
<path d="M384.15 280.02L384.15 254.13"/>
<path d="M338.84 280.02L384.15 280.02"/>
<path d="M170.54 208.82L170.54 254.13"/>
<path d="M222.33 305.91L377.67 305.91"/>
<path d="M429.46 254.13L429.46 208.82"/>
<path d="M377.67 157.04L222.33 157.04"/>
<path d="M222.33 157.04L208.92 158.8M208.92 158.8L196.43 163.97M196.43 163.97L185.71 172.2M185.71 172.2L177.48 182.93M177.48 182.93L172.31 195.42M172.31 195.42L170.54 208.82"/>
<path d="M429.46 208.82L427.69 195.42M427.69 195.42L422.52 182.93M422.52 182.93L414.29 172.2M414.29 172.2L403.57 163.97M403.57 163.97L391.08 158.8M391.08 158.8L377.67 157.04"/>
<path d="M377.67 305.91L391.08 304.15M391.08 304.15L403.57 298.98M403.57 298.98L414.29 290.75M414.29 290.75L422.52 280.02M422.52 280.02L427.69 267.53M427.69 267.53L429.46 254.13"/>
<path d="M170.54 254.13L172.31 267.53M172.31 267.53L177.48 280.02M177.48 280.02L185.71 290.75M185.71 290.75L196.43 298.98M196.43 298.98L208.92 304.15M208.92 304.15L222.33 305.91"/>
<path d="M164.07 202.35L164.07 260.6"/>
<path d="M215.85 312.39L384.15 312.39"/>
<path d="M435.93 260.6L435.93 202.35"/>
<path d="M384.15 150.56L215.85 150.56"/>
<path d="M215.85 150.56L202.45 152.33M202.45 152.33L189.96 157.5M189.96 157.5L179.24 165.73M179.24 165.73L171.01 176.46M171.01 176.46L165.83 188.94M165.83 188.94L164.07 202.35"/>
<path d="M435.93 202.35L434.17 188.94M434.17 188.94L428.99 176.46M428.99 176.46L420.76 165.73M420.76 165.73L410.04 157.5M410.04 157.5L397.55 152.33M397.55 152.33L384.15 150.56"/>
<path d="M384.15 312.39L397.55 310.62M397.55 310.62L410.04 305.45M410.04 305.45L420.76 297.22M420.76 297.22L428.99 286.49M428.99 286.49L434.17 274.01M434.17 274.01L435.93 260.6"/>
<path d="M164.07 260.6L165.83 274.01M165.83 274.01L171.01 286.49M171.01 286.49L179.24 297.22M179.24 297.22L189.96 305.45M189.96 305.45L202.45 310.62M202.45 310.62L215.85 312.39"/>
<path d="M196.43 131.15L181.36 133.13M181.36 133.13L167.31 138.95M167.31 138.95L155.24 148.21M155.24 148.21L145.98 160.27M145.98 160.27L140.16 174.32M140.16 174.32L138.18 189.4"/>
<path d="M196.43 131.15L222.33 131.15"/>
<path d="M403.57 331.8L196.43 331.8"/>
<path d="M461.82 273.55L461.82 189.4"/>
<path d="M403.57 131.15L377.67 131.15"/>
<path d="M138.18 273.55L140.16 288.63M140.16 288.63L145.98 302.68M145.98 302.68L155.24 314.74M155.24 314.74L167.31 324M167.31 324L181.36 329.82M181.36 329.82L196.43 331.8"/>
<path d="M138.18 273.55L138.18 189.4"/>
<path d="M403.57 331.8L418.64 329.82M418.64 329.82L432.69 324M432.69 324L444.76 314.74M444.76 314.74L454.02 302.68M454.02 302.68L459.84 288.63M459.84 288.63L461.82 273.55"/>
<path d="M461.82 189.4L459.84 174.32M459.84 174.32L454.02 160.27M454.02 160.27L444.76 148.21M444.76 148.21L432.69 138.95M432.69 138.95L418.64 133.13M418.64 133.13L403.57 131.15"/>
<path d="M215.85 124.67L189.96 124.67"/>
<path d="M131.71 182.93L131.71 280.02"/>
<path d="M189.96 338.28L410.04 338.28"/>
<path d="M468.29 280.02L468.29 182.93"/>
<path d="M410.04 124.67L384.15 124.67"/>
<path d="M189.96 124.67L174.88 126.66M174.88 126.66L160.83 132.48M160.83 132.48L148.77 141.74M148.77 141.74L139.51 153.8M139.51 153.8L133.69 167.85M133.69 167.85L131.71 182.93"/>
<path d="M131.71 280.02L133.69 295.1M133.69 295.1L139.51 309.15M139.51 309.15L148.77 321.21M148.77 321.21L160.83 330.47M160.83 330.47L174.88 336.29M174.88 336.29L189.96 338.28"/>
<path d="M410.04 338.28L425.12 336.29M425.12 336.29L439.17 330.47M439.17 330.47L451.23 321.21M451.23 321.21L460.49 309.15M460.49 309.15L466.31 295.1M466.31 295.1L468.29 280.02"/>
<path d="M468.29 182.93L466.31 167.85M466.31 167.85L460.49 153.8M460.49 153.8L451.23 141.74M451.23 141.74L439.17 132.48M439.17 132.48L425.12 126.66M425.12 126.66L410.04 124.67"/>
<path d="M228.8 124.67L228.8 85.84"/>
<path d="M235.27 79.36L364.73 79.36"/>
<path d="M371.2 85.84L371.2 124.67"/>
<path d="M222.33 118.2L222.33 79.36"/>
<path d="M228.8 72.89L371.2 72.89"/>
<path d="M377.67 79.36L377.67 118.2"/>
<path d="M222.33 79.36L222.33 53.47"/>
<path d="M228.8 47L371.2 47"/>
<path d="M377.67 53.47L377.67 79.36"/>
<path d="M228.8 47L224.22 48.89M224.22 48.89L222.33 53.47"/>
<path d="M377.67 53.47L375.78 48.89M375.78 48.89L371.2 47"/>
<path d="M377.67 79.36L375.78 74.79M375.78 74.79L371.2 72.89"/>
<path d="M228.8 72.89L224.22 74.79M224.22 74.79L222.33 79.36"/>
<path d="M235.27 79.36L230.69 81.26M230.69 81.26L228.8 85.84"/>
<path d="M371.2 85.84L369.31 81.26M369.31 81.26L364.73 79.36"/>
<path d="M222.33 131.15L225.56 130.28M225.56 130.28L227.93 127.91M227.93 127.91L228.8 124.67"/>
<path d="M371.2 124.67L373.1 129.25M373.1 129.25L377.67 131.15"/>
<path d="M377.67 118.2L379.57 122.78M379.57 122.78L384.15 124.67"/>
<path d="M215.85 124.67L219.09 123.81M219.09 123.81L221.46 121.44M221.46 121.44L222.33 118.2"/>
<path d="M267.64 150.56L267.64 105.25"/>
<path d="M293.53 150.56L293.53 105.25"/>
<path d="M306.47 150.56L306.47 105.25"/>
<path d="M332.36 150.56L332.36 105.25"/>
<path d="M267.64 105.25L248.22 105.25"/>
<path d="M248.22 105.25L248.22 95.55"/>
<path d="M257.93 85.84L342.07 85.84"/>
<path d="M351.78 95.55L351.78 105.25"/>
<path d="M351.78 105.25L332.36 105.25"/>
<path d="M293.53 105.25L306.47 105.25"/>
<path d="M257.93 85.84L253.07 87.14M253.07 87.14L249.52 90.69M249.52 90.69L248.22 95.55"/>
<path d="M351.78 95.55L350.48 90.69M350.48 90.69L346.93 87.14M346.93 87.14L342.07 85.84"/>
<path d="M377.67 53.47L387.38 53.47"/>
<path d="M397.09 63.18L397.09 79.36"/>
<path d="M397.09 79.36L377.67 79.36"/>
<path d="M377.67 59.94L397.09 59.94"/>
<path d="M228.8 92.31L261.16 79.36"/>
<path d="M397.09 63.18L395.79 58.33M395.79 58.33L392.24 54.77M392.24 54.77L387.38 53.47"/>
<path d="M229.13 403.01L229.13 364.17M230.62 364.17L230.62 403.01M224.66 364.17L242.56 364.17M242.56 364.17L247.04 366.02M247.04 366.02L248.53 367.87M248.53 367.87L250.02 371.57M250.02 371.57L250.02 375.27M250.02 375.27L248.53 378.96M248.53 378.96L247.04 380.81M247.04 380.81L242.56 382.66M242.56 364.17L245.54 366.02M245.54 366.02L247.04 367.87M247.04 367.87L248.53 371.57M248.53 371.57L248.53 375.27M248.53 375.27L247.04 378.96M247.04 378.96L245.54 380.81M245.54 380.81L242.56 382.66M230.62 382.66L242.56 382.66M242.56 382.66L247.04 384.51M247.04 384.51L248.53 386.36M248.53 386.36L250.02 390.06M250.02 390.06L250.02 395.61M250.02 395.61L248.53 399.31M248.53 399.31L247.04 401.16M247.04 401.16L242.56 403.01M242.56 403.01L224.66 403.01M242.56 382.66L245.54 384.51M245.54 384.51L247.04 386.36M247.04 386.36L248.53 390.06M248.53 390.06L248.53 395.61M248.53 395.61L247.04 399.31M247.04 399.31L245.54 401.16M245.54 401.16L242.56 403.01M261.96 403.01L261.96 364.17M263.45 364.17L263.45 403.01M257.48 364.17L267.92 364.17M257.48 403.01L279.86 403.01M279.86 403.01L279.86 391.91M279.86 391.91L278.37 403.01M297.76 364.17L287.32 403.01M297.76 364.17L308.21 403.01M297.76 369.72L306.71 403.01M290.3 391.91L303.73 391.91M284.33 403.01L293.29 403.01M302.24 403.01L311.19 403.01M336.55 369.72L338.04 375.27M338.04 375.27L338.04 364.17M338.04 364.17L336.55 369.72M336.55 369.72L333.57 366.02M333.57 366.02L329.09 364.17M329.09 364.17L326.11 364.17M326.11 364.17L321.63 366.02M321.63 366.02L318.65 369.72M318.65 369.72L317.16 373.42M317.16 373.42L315.67 378.96M315.67 378.96L315.67 388.21M315.67 388.21L317.16 393.76M317.16 393.76L318.65 397.46M318.65 397.46L321.63 401.16M321.63 401.16L326.11 403.01M326.11 403.01L329.09 403.01M329.09 403.01L333.57 401.16M333.57 401.16L336.55 397.46M336.55 397.46L338.04 393.76M326.11 364.17L323.13 366.02M323.13 366.02L320.14 369.72M320.14 369.72L318.65 373.42M318.65 373.42L317.16 378.96M317.16 378.96L317.16 388.21M317.16 388.21L318.65 393.76M318.65 393.76L320.14 397.46M320.14 397.46L323.13 401.16M323.13 401.16L326.11 403.01M351.47 403.01L351.47 364.17M352.96 364.17L352.96 403.01M372.36 364.17L352.96 388.21M360.42 380.81L372.36 403.01M358.93 380.81L370.87 403.01M347 364.17L357.44 364.17M366.39 364.17L375.34 364.17M347 403.01L357.44 403.01M366.39 403.01L375.34 403.01"/>
</g>
</g>
</svg>
