<?xml version="1.0" standalone="no"?><svg xmlns="http://www.w3.org/2000/svg" width="600.000" height="450.000" viewBox="0.0 0.0 600.000 450.000" version="1.1">
<title>Acme Converter - Post-processed with EDS-Designer: 14.44 (info@symca.com)</title>
<desc>Acme Converter - Post-processed with EDS-Designer: 14.44 (info@symca.com)</desc>
<g id="EDS_STYLE_GROUP" fill="none" stroke="black" stroke-width="1.0">
<g id="0" display="visible">
<path d="M253.74 404.57L253.74 384.2M254.71 384.2L254.71 404.57M250.84 384.2L262.47 384.2M262.47 384.2L265.38 385.17M265.38 385.17L266.35 386.14M266.35 386.14L267.32 388.08M267.32 388.08L267.32 390.02M267.32 390.02L266.35 391.96M266.35 391.96L265.38 392.93M265.38 392.93L262.47 393.9M262.47 384.2L264.41 385.17M264.41 385.17L265.38 386.14M265.38 386.14L266.35 388.08M266.35 388.08L266.35 390.02M266.35 390.02L265.38 391.96M265.38 391.96L264.41 392.93M264.41 392.93L262.47 393.9M254.71 393.9L262.47 393.9M262.47 393.9L265.38 394.87M265.38 394.87L266.35 395.84M266.35 395.84L267.32 397.78M267.32 397.78L267.32 400.69M267.32 400.69L266.35 402.63M266.35 402.63L265.38 403.6M265.38 403.6L262.47 404.57M262.47 404.57L250.84 404.57M262.47 393.9L264.41 394.87M264.41 394.87L265.38 395.84M265.38 395.84L266.35 397.78M266.35 397.78L266.35 400.69M266.35 400.69L265.38 402.63M265.38 402.63L264.41 403.6M264.41 403.6L262.47 404.57M275.08 404.57L275.08 384.2M276.05 384.2L276.05 404.57M272.17 384.2L278.96 384.2M272.17 404.57L286.72 404.57M286.72 404.57L286.72 398.75M286.72 398.75L285.75 404.57M298.36 384.2L291.57 404.57M298.36 384.2L305.14 404.57M298.36 387.11L304.17 404.57M293.51 398.75L302.23 398.75M289.63 404.57L295.45 404.57M301.26 404.57L307.08 404.57M323.57 387.11L324.54 390.02M324.54 390.02L324.54 384.2M324.54 384.2L323.57 387.11M323.57 387.11L321.63 385.17M321.63 385.17L318.72 384.2M318.72 384.2L316.78 384.2M316.78 384.2L313.87 385.17M313.87 385.17L311.93 387.11M311.93 387.11L310.96 389.05M310.96 389.05L309.99 391.96M309.99 391.96L309.99 396.81M309.99 396.81L310.96 399.72M310.96 399.72L311.93 401.66M311.93 401.66L313.87 403.6M313.87 403.6L316.78 404.57M316.78 404.57L318.72 404.57M318.72 404.57L321.63 403.6M321.63 403.6L323.57 401.66M323.57 401.66L324.54 399.72M316.78 384.2L314.84 385.17M314.84 385.17L312.9 387.11M312.9 387.11L311.93 389.05M311.93 389.05L310.96 391.96M310.96 391.96L310.96 396.81M310.96 396.81L311.93 399.72M311.93 399.72L312.9 401.66M312.9 401.66L314.84 403.6M314.84 403.6L316.78 404.57M333.27 404.57L333.27 384.2M334.24 384.2L334.24 404.57M346.84 384.2L334.24 396.81M339.09 392.93L346.84 404.57M338.12 392.93L345.87 404.57M330.36 384.2L337.15 384.2M342.97 384.2L348.78 384.2M330.36 404.57L337.15 404.57M342.97 404.57L348.78 404.57"/>
<path d="M113.42 308.17L112.64 310.5M112.64 310.5L111.09 312.05M111.09 312.05L108.76 312.82M108.76 312.82L107.99 312.82M107.99 312.82L105.66 312.05M105.66 312.05L104.11 310.5M104.11 310.5L103.33 308.17M103.33 308.17L103.33 307.39M103.33 307.39L104.11 305.07M104.11 305.07L105.66 303.51M105.66 303.51L107.99 302.74M107.99 302.74L108.76 302.74M108.76 302.74L111.09 303.51M111.09 303.51L112.64 305.07M112.64 305.07L113.42 308.17M113.42 308.17L113.42 312.05M113.42 312.05L112.64 315.93M112.64 315.93L111.09 318.25M111.09 318.25L108.76 319.03M108.76 319.03L107.21 319.03M107.21 319.03L104.88 318.25M104.88 318.25L104.11 316.7"/>
<path d="M189.64 337.38L189.64 337.38"/>
<path d="M298.75 361.8L296.63 361.8"/>
<path d="M279.44 363.83L273.1 363.83"/>
<path d="M260.63 363.83L258.5 359.84"/>
<path d="M273.1 363.83L266.81 363.83"/>
<path d="M266.81 363.83L260.63 363.83"/>
<path d="M296.63 361.8L296.63 359.76"/>
<path d="M279.44 359.76L279.44 363.83"/>
<path d="M413.86 359.76L185.76 359.76"/>
<path d="M302.99 359.76L302.99 361.8"/>
<path d="M302.99 361.8L300.87 361.8"/>
<path d="M300.87 361.8L298.75 361.8"/>
<path d="M102.94 131.67L95.18 142.53M95.18 142.53L106.82 142.53M102.94 131.67L102.94 147.96M111.48 135.55L111.48 134.77M111.48 134.77L112.25 133.22M112.25 133.22L113.03 132.44M113.03 132.44L114.58 131.67M114.58 131.67L117.68 131.67M117.68 131.67L119.24 132.44M119.24 132.44L120.01 133.22M120.01 133.22L120.79 134.77M120.79 134.77L120.79 136.32M120.79 136.32L120.01 137.87M120.01 137.87L118.46 140.2M118.46 140.2L110.7 147.96M110.7 147.96L121.56 147.96"/>
<path d="M190.81 45.43L202.34 45.43"/>
<path d="M185.76 99.08L413.86 99.08"/>
<path d="M190.81 92.97L190.81 61.5"/>
<path d="M197.98 76.69L197.98 84.82"/>
<path d="M185.76 92.97L413.86 92.97"/>
<path d="M190.81 61.5L190.81 45.43"/>
<path d="M213.87 45.43L225.39 45.43"/>
<path d="M202.34 45.43L213.87 45.43"/>
<path d="M210.2 68.53L206.13 68.53"/>
<path d="M225.39 45.43L225.39 88.9"/>
<path d="M286.62 66.6L313.61 66.6"/>
<path d="M286.62 76.72L313.61 76.72"/>
<path d="M259.08 92.97L259.08 52.24"/>
<path d="M283.52 86.86L316.1 86.86"/>
<path d="M287.59 101.12L287.59 97.05"/>
<path d="M312.03 101.12L287.59 101.12"/>
<path d="M283.52 92.97L283.52 86.86"/>
<path d="M259.08 52.24L340.54 52.24"/>
<path d="M259.08 66.6L286.62 66.6"/>
<path d="M259.08 76.72L286.62 76.72"/>
<path d="M312.03 97.05L312.03 101.12"/>
<path d="M287.59 97.05L312.03 97.05"/>
<path d="M340.54 52.24L340.54 92.97"/>
<path d="M313.61 66.6L340.54 66.6"/>
<path d="M313.61 76.72L340.54 76.72"/>
<path d="M489.31 305.84L490.86 305.07M490.86 305.07L493.19 302.74M493.19 302.74L493.19 319.03"/>
<path d="M479.22 131.67L487.75 131.67M487.75 131.67L483.1 137.87M483.1 137.87L485.43 137.87M485.43 137.87L486.98 138.65M486.98 138.65L487.75 139.43M487.75 139.43L488.53 141.75M488.53 141.75L488.53 143.31M488.53 143.31L487.75 145.63M487.75 145.63L486.2 147.18M486.2 147.18L483.88 147.96M483.88 147.96L481.55 147.96M481.55 147.96L479.22 147.18M479.22 147.18L478.44 146.41M478.44 146.41L477.67 144.86M500.94 131.67L493.19 142.53M493.19 142.53L504.82 142.53M500.94 131.67L500.94 147.96"/>
<path d="M277.41 223.31L279.34 214.2M279.34 214.2L284.82 206.66M284.82 206.66L292.89 202.01M292.89 202.01L302.15 201.03M302.15 201.03L311.01 203.91M311.01 203.91L317.93 210.14M317.93 210.14L321.72 218.65M321.72 218.65L321.72 227.97M321.72 227.97L317.93 236.48M317.93 236.48L311.01 242.71M311.01 242.71L302.15 245.59M302.15 245.59L292.89 244.62M292.89 244.62L284.82 239.96M284.82 239.96L279.34 232.42M279.34 232.42L277.41 223.31"/>
<path d="M242.79 272.19L244.58 267.87M244.58 267.87L248.9 266.08M248.9 266.08L253.22 267.87M253.22 267.87L255.01 272.19M255.01 272.19L253.22 276.51M253.22 276.51L248.9 278.3M248.9 278.3L244.58 276.51M244.58 276.51L242.79 272.19"/>
<path d="M216.31 272.19L218.1 267.87M218.1 267.87L222.42 266.08M222.42 266.08L226.74 267.87M226.74 267.87L228.53 272.19M228.53 272.19L226.74 276.51M226.74 276.51L222.42 278.3M222.42 278.3L218.1 276.51M218.1 276.51L216.31 272.19"/>
<path d="M202.06 204.98L203.84 200.66M203.84 200.66L208.16 198.87M208.16 198.87L212.49 200.66M212.49 200.66L214.27 204.98M214.27 204.98L212.49 209.3M212.49 209.3L208.16 211.09M208.16 211.09L203.84 209.3M203.84 209.3L202.06 204.98"/>
<path d="M212.24 139.81L214.03 135.49M214.03 135.49L218.35 133.7M218.35 133.7L222.67 135.49M222.67 135.49L224.46 139.81M224.46 139.81L222.67 144.13M222.67 144.13L218.35 145.92M218.35 145.92L214.03 144.13M214.03 144.13L212.24 139.81"/>
<path d="M267.22 139.81L269.01 135.49M269.01 135.49L273.33 133.7M273.33 133.7L277.65 135.49M277.65 135.49L279.44 139.81M279.44 139.81L277.65 144.13M277.65 144.13L273.33 145.92M273.33 145.92L269.01 144.13M269.01 144.13L267.22 139.81"/>
<path d="M293.7 139.81L295.49 135.49M295.49 135.49L299.81 133.7M299.81 133.7L304.13 135.49M304.13 135.49L305.92 139.81M305.92 139.81L304.13 144.13M304.13 144.13L299.81 145.92M299.81 145.92L295.49 144.13M295.49 144.13L293.7 139.81"/>
<path d="M322.21 139.81L324 135.49M324 135.49L328.32 133.7M328.32 133.7L332.64 135.49M332.64 135.49L334.43 139.81M334.43 139.81L332.64 144.13M332.64 144.13L328.32 145.92M328.32 145.92L324 144.13M324 144.13L322.21 139.81"/>
<path d="M403.67 135.74L405.46 131.42M405.46 131.42L409.78 129.63M409.78 129.63L414.1 131.42M414.1 131.42L415.89 135.74M415.89 135.74L414.1 140.06M414.1 140.06L409.78 141.85M409.78 141.85L405.46 140.06M405.46 140.06L403.67 135.74"/>
<path d="M348.69 139.81L350.48 135.49M350.48 135.49L354.8 133.7M354.8 133.7L359.12 135.49M359.12 135.49L360.91 139.81M360.91 139.81L359.12 144.13M359.12 144.13L354.8 145.92M354.8 145.92L350.48 144.13M350.48 144.13L348.69 139.81"/>
<path d="M479.61 271.22L481.16 270.44M481.16 270.44L483.49 268.12M483.49 268.12L483.49 284.41M496.68 268.12L494.35 268.89M494.35 268.89L492.8 271.22M492.8 271.22L492.02 275.1M492.02 275.1L492.02 277.43M492.02 277.43L492.8 281.31M492.8 281.31L494.35 283.63M494.35 283.63L496.68 284.41M496.68 284.41L498.23 284.41M498.23 284.41L500.56 283.63M500.56 283.63L502.11 281.31M502.11 281.31L502.88 277.43M502.88 277.43L502.88 275.1M502.88 275.1L502.11 271.22M502.11 271.22L500.56 268.89M500.56 268.89L498.23 268.12M498.23 268.12L496.68 268.12"/>
<path d="M480 244.74L481.55 243.97M481.55 243.97L483.88 241.64M483.88 241.64L483.88 257.93M501.72 243.97L500.94 242.42M500.94 242.42L498.62 241.64M498.62 241.64L497.06 241.64M497.06 241.64L494.74 242.42M494.74 242.42L493.19 244.74M493.19 244.74L492.41 248.62M492.41 248.62L492.41 252.5M492.41 252.5L493.19 255.61M493.19 255.61L494.74 257.16M494.74 257.16L497.06 257.93M497.06 257.93L497.84 257.93M497.84 257.93L500.17 257.16M500.17 257.16L501.72 255.61M501.72 255.61L502.5 253.28M502.5 253.28L502.5 252.5M502.5 252.5L501.72 250.18M501.72 250.18L500.17 248.62M500.17 248.62L497.84 247.85M497.84 247.85L497.06 247.85M497.06 247.85L494.74 248.62M494.74 248.62L493.19 250.18M493.19 250.18L492.41 252.5"/>
<path d="M478.83 200.72L478.83 199.94M478.83 199.94L479.61 198.39M479.61 198.39L480.38 197.61M480.38 197.61L481.94 196.84M481.94 196.84L485.04 196.84M485.04 196.84L486.59 197.61M486.59 197.61L487.37 198.39M487.37 198.39L488.14 199.94M488.14 199.94L488.14 201.49M488.14 201.49L487.37 203.04M487.37 203.04L485.81 205.37M485.81 205.37L478.06 213.13M478.06 213.13L488.92 213.13M494.35 200.72L494.35 199.94M494.35 199.94L495.12 198.39M495.12 198.39L495.9 197.61M495.9 197.61L497.45 196.84M497.45 196.84L500.56 196.84M500.56 196.84L502.11 197.61M502.11 197.61L502.88 198.39M502.88 198.39L503.66 199.94M503.66 199.94L503.66 201.49M503.66 201.49L502.88 203.04M502.88 203.04L501.33 205.37M501.33 205.37L493.57 213.13M493.57 213.13L504.43 213.13"/>
<path d="M478.83 176.28L478.83 175.5M478.83 175.5L479.61 173.95M479.61 173.95L480.38 173.17M480.38 173.17L481.94 172.4M481.94 172.4L485.04 172.4M485.04 172.4L486.59 173.17M486.59 173.17L487.37 173.95M487.37 173.95L488.14 175.5M488.14 175.5L488.14 177.05M488.14 177.05L487.37 178.61M487.37 178.61L485.81 180.93M485.81 180.93L478.06 188.69M478.06 188.69L488.92 188.69M497.45 172.4L495.12 173.17M495.12 173.17L494.35 174.73M494.35 174.73L494.35 176.28M494.35 176.28L495.12 177.83M495.12 177.83L496.68 178.61M496.68 178.61L499.78 179.38M499.78 179.38L502.11 180.16M502.11 180.16L503.66 181.71M503.66 181.71L504.43 183.26M504.43 183.26L504.43 185.59M504.43 185.59L503.66 187.14M503.66 187.14L502.88 187.92M502.88 187.92L500.56 188.69M500.56 188.69L497.45 188.69M497.45 188.69L495.12 187.92M495.12 187.92L494.35 187.14M494.35 187.14L493.57 185.59M493.57 185.59L493.57 183.26M493.57 183.26L494.35 181.71M494.35 181.71L495.9 180.16M495.9 180.16L498.23 179.38M498.23 179.38L501.33 178.61M501.33 178.61L502.88 177.83M502.88 177.83L503.66 176.28M503.66 176.28L503.66 174.73M503.66 174.73L502.88 173.17M502.88 173.17L500.56 172.4M500.56 172.4L497.45 172.4"/>
<path d="M96.74 271.22L98.29 270.44M98.29 270.44L100.62 268.12M100.62 268.12L100.62 284.41M118.46 268.12L110.7 268.12M110.7 268.12L109.93 275.1M109.93 275.1L110.7 274.32M110.7 274.32L113.03 273.55M113.03 273.55L115.36 273.55M115.36 273.55L117.68 274.32M117.68 274.32L119.24 275.87M119.24 275.87L120.01 278.2M120.01 278.2L120.01 279.75M120.01 279.75L119.24 282.08M119.24 282.08L117.68 283.63M117.68 283.63L115.36 284.41M115.36 284.41L113.03 284.41M113.03 284.41L110.7 283.63M110.7 283.63L109.93 282.86M109.93 282.86L109.15 281.31"/>
<path d="M99.45 245.52L99.45 244.74M99.45 244.74L100.23 243.19M100.23 243.19L101 242.42M101 242.42L102.56 241.64M102.56 241.64L105.66 241.64M105.66 241.64L107.21 242.42M107.21 242.42L107.99 243.19M107.99 243.19L108.76 244.74M108.76 244.74L108.76 246.3M108.76 246.3L107.99 247.85M107.99 247.85L106.43 250.18M106.43 250.18L98.68 257.93M98.68 257.93L109.54 257.93M114.19 244.74L115.74 243.97M115.74 243.97L118.07 241.64M118.07 241.64L118.07 257.93"/>
<path d="M95.96 200.72L95.96 199.94M95.96 199.94L96.74 198.39M96.74 198.39L97.51 197.61M97.51 197.61L99.06 196.84M99.06 196.84L102.17 196.84M102.17 196.84L103.72 197.61M103.72 197.61L104.49 198.39M104.49 198.39L105.27 199.94M105.27 199.94L105.27 201.49M105.27 201.49L104.49 203.04M104.49 203.04L102.94 205.37M102.94 205.37L95.18 213.13M95.18 213.13L106.05 213.13M110.7 196.84L121.56 196.84M121.56 196.84L113.8 213.13"/>
<path d="M96.74 172.4L105.27 172.4M105.27 172.4L100.62 178.61M100.62 178.61L102.94 178.61M102.94 178.61L104.49 179.38M104.49 179.38L105.27 180.16M105.27 180.16L106.05 182.48M106.05 182.48L106.05 184.04M106.05 184.04L105.27 186.36M105.27 186.36L103.72 187.92M103.72 187.92L101.39 188.69M101.39 188.69L99.06 188.69M99.06 188.69L96.74 187.92M96.74 187.92L95.96 187.14M95.96 187.14L95.18 185.59M112.25 172.4L120.79 172.4M120.79 172.4L116.13 178.61M116.13 178.61L118.46 178.61M118.46 178.61L120.01 179.38M120.01 179.38L120.79 180.16M120.79 180.16L121.56 182.48M121.56 182.48L121.56 184.04M121.56 184.04L120.79 186.36M120.79 186.36L119.24 187.92M119.24 187.92L116.91 188.69M116.91 188.69L114.58 188.69M114.58 188.69L112.25 187.92M112.25 187.92L111.48 187.14M111.48 187.14L110.7 185.59"/>
<path d="M183.73 135.74L185.52 131.42M185.52 131.42L189.84 129.63M189.84 129.63L194.16 131.42M194.16 131.42L195.95 135.74M195.95 135.74L194.16 140.06M194.16 140.06L189.84 141.85M189.84 141.85L185.52 140.06M185.52 140.06L183.73 135.74"/>
<path d="M375.16 139.81L376.95 135.49M376.95 135.49L381.27 133.7M381.27 133.7L385.59 135.49M385.59 135.49L387.38 139.81M387.38 139.81L385.59 144.13M385.59 144.13L381.27 145.92M381.27 145.92L376.95 144.13M376.95 144.13L375.16 139.81"/>
<path d="M240.75 139.81L242.54 135.49M242.54 135.49L246.86 133.7M246.86 133.7L251.18 135.49M251.18 135.49L252.97 139.81M252.97 139.81L251.18 144.13M251.18 144.13L246.86 145.92M246.86 145.92L242.54 144.13M242.54 144.13L240.75 139.81"/>
<path d="M344.61 272.19L346.4 267.87M346.4 267.87L350.72 266.08M350.72 266.08L355.04 267.87M355.04 267.87L356.83 272.19M356.83 272.19L355.04 276.51M355.04 276.51L350.72 278.3M350.72 278.3L346.4 276.51M346.4 276.51L344.61 272.19"/>
<path d="M371.09 272.19L372.88 267.87M372.88 267.87L377.2 266.08M377.2 266.08L381.52 267.87M381.52 267.87L383.31 272.19M383.31 272.19L381.52 276.51M381.52 276.51L377.2 278.3M377.2 278.3L372.88 276.51M372.88 276.51L371.09 272.19"/>
<path d="M399.6 272.19L401.39 267.87M401.39 267.87L405.71 266.08M405.71 266.08L410.03 267.87M410.03 267.87L411.82 272.19M411.82 272.19L410.03 276.51M410.03 276.51L405.71 278.3M405.71 278.3L401.39 276.51M401.39 276.51L399.6 272.19"/>
<path d="M228.53 204.98L230.32 200.66M230.32 200.66L234.64 198.87M234.64 198.87L238.96 200.66M238.96 200.66L240.75 204.98M240.75 204.98L238.96 209.3M238.96 209.3L234.64 211.09M234.64 211.09L230.32 209.3M230.32 209.3L228.53 204.98"/>
<path d="M244.82 204.98L243.49 199.85M243.49 199.85L239.76 196.08M239.76 196.08L234.64 194.69M234.64 194.69L229.52 196.08M229.52 196.08L225.79 199.85M225.79 199.85L224.46 204.98"/>
<path d="M244.82 204.98L244.82 217.2"/>
<path d="M240.75 204.98L240.75 217.2"/>
<path d="M228.53 210.37L232.37 212.81M232.37 212.81L236.91 212.81M236.91 212.81L240.75 210.37"/>
<path d="M171.51 217.2L244.82 217.2"/>
<path d="M228.53 204.98L228.53 217.2"/>
<path d="M224.46 204.98L224.46 217.2"/>
<path d="M218.35 204.98L217.02 199.85M217.02 199.85L213.29 196.08M213.29 196.08L208.16 194.69M208.16 194.69L203.04 196.08M203.04 196.08L199.31 199.85M199.31 199.85L197.98 204.98"/>
<path d="M218.35 204.98L218.35 217.2"/>
<path d="M214.27 204.98L214.27 217.2"/>
<path d="M202.06 210.37L205.89 212.81M205.89 212.81L210.44 212.81M210.44 212.81L214.27 210.37"/>
<path d="M202.06 204.98L202.06 217.2"/>
<path d="M197.98 204.98L197.98 217.2"/>
<path d="M419.97 135.74L418.64 130.6M418.64 130.6L414.91 126.83M414.91 126.83L409.78 125.45M409.78 125.45L404.66 126.83M404.66 126.83L400.93 130.6M400.93 130.6L399.6 135.74"/>
<path d="M419.97 135.74L419.97 147.96"/>
<path d="M415.89 135.74L415.89 147.96"/>
<path d="M403.67 141.13L407.51 143.56M407.51 143.56L412.06 143.56M412.06 143.56L415.89 141.13"/>
<path d="M399.6 147.96L419.97 147.96"/>
<path d="M403.67 135.74L403.67 147.96"/>
<path d="M399.6 135.74L399.6 152.03"/>
<path d="M391.45 139.81L390.13 134.68M390.13 134.68L386.39 130.91M386.39 130.91L381.27 129.52M381.27 129.52L376.15 130.91M376.15 130.91L372.42 134.68M372.42 134.68L371.09 139.81"/>
<path d="M391.45 139.81L391.45 152.03"/>
<path d="M387.38 139.81L387.38 152.03"/>
<path d="M375.16 145.2L379 147.64M379 147.64L383.54 147.64M383.54 147.64L387.38 145.2"/>
<path d="M200.02 152.03L399.6 152.03"/>
<path d="M375.16 139.81L375.16 152.03"/>
<path d="M371.09 139.81L371.09 152.03"/>
<path d="M364.98 139.81L363.65 134.68M363.65 134.68L359.92 130.91M359.92 130.91L354.8 129.52M354.8 129.52L349.67 130.91M349.67 130.91L345.94 134.68M345.94 134.68L344.61 139.81"/>
<path d="M364.98 139.81L364.98 152.03"/>
<path d="M360.91 139.81L360.91 152.03"/>
<path d="M348.69 145.2L352.52 147.64M352.52 147.64L357.07 147.64M357.07 147.64L360.91 145.2"/>
<path d="M348.69 139.81L348.69 152.03"/>
<path d="M344.61 139.81L344.61 152.03"/>
<path d="M338.5 139.81L337.18 134.68M337.18 134.68L333.44 130.91M333.44 130.91L328.32 129.52M328.32 129.52L323.2 130.91M323.2 130.91L319.47 134.68M319.47 134.68L318.14 139.81"/>
<path d="M338.5 139.81L338.5 152.03"/>
<path d="M334.43 139.81L334.43 152.03"/>
<path d="M322.21 145.2L326.05 147.64M326.05 147.64L330.59 147.64M330.59 147.64L334.43 145.2"/>
<path d="M322.21 139.81L322.21 152.03"/>
<path d="M318.14 139.81L318.14 152.03"/>
<path d="M309.99 139.81L308.66 134.68M308.66 134.68L304.93 130.91M304.93 130.91L299.81 129.52M299.81 129.52L294.69 130.91M294.69 130.91L290.96 134.68M290.96 134.68L289.63 139.81"/>
<path d="M309.99 139.81L309.99 152.03"/>
<path d="M305.92 139.81L305.92 152.03"/>
<path d="M293.7 145.2L297.54 147.64M297.54 147.64L302.08 147.64M302.08 147.64L305.92 145.2"/>
<path d="M293.7 139.81L293.7 152.03"/>
<path d="M289.63 139.81L289.63 152.03"/>
<path d="M283.52 139.81L282.19 134.68M282.19 134.68L278.46 130.91M278.46 130.91L273.33 129.52M273.33 129.52L268.21 130.91M268.21 130.91L264.48 134.68M264.48 134.68L263.15 139.81"/>
<path d="M283.52 139.81L283.52 152.03"/>
<path d="M279.44 139.81L279.44 152.03"/>
<path d="M267.22 145.2L271.06 147.64M271.06 147.64L275.61 147.64M275.61 147.64L279.44 145.2"/>
<path d="M267.22 139.81L267.22 152.03"/>
<path d="M263.15 139.81L263.15 152.03"/>
<path d="M257.04 139.81L255.71 134.68M255.71 134.68L251.98 130.91M251.98 130.91L246.86 129.52M246.86 129.52L241.74 130.91M241.74 130.91L238.01 134.68M238.01 134.68L236.68 139.81"/>
<path d="M257.04 139.81L257.04 152.03"/>
<path d="M252.97 139.81L252.97 152.03"/>
<path d="M240.75 145.2L244.59 147.64M244.59 147.64L249.13 147.64M249.13 147.64L252.97 145.2"/>
<path d="M240.75 139.81L240.75 152.03"/>
<path d="M236.68 139.81L236.68 152.03"/>
<path d="M228.53 139.81L227.2 134.68M227.2 134.68L223.47 130.91M223.47 130.91L218.35 129.52M218.35 129.52L213.23 130.91M213.23 130.91L209.49 134.68M209.49 134.68L208.16 139.81"/>
<path d="M228.53 139.81L228.53 152.03"/>
<path d="M224.46 139.81L224.46 152.03"/>
<path d="M212.24 145.2L216.08 147.64M216.08 147.64L220.62 147.64M220.62 147.64L224.46 145.2"/>
<path d="M212.24 139.81L212.24 152.03"/>
<path d="M208.16 139.81L208.16 152.03"/>
<path d="M200.02 135.74L198.69 130.6M198.69 130.6L194.96 126.83M194.96 126.83L189.84 125.45M189.84 125.45L184.71 126.83M184.71 126.83L180.98 130.6M180.98 130.6L179.65 135.74"/>
<path d="M200.02 135.74L200.02 152.03"/>
<path d="M195.95 135.74L195.95 147.96"/>
<path d="M183.73 141.13L187.56 143.56M187.56 143.56L192.11 143.56M192.11 143.56L195.95 141.13"/>
<path d="M179.65 147.96L200.02 147.96"/>
<path d="M183.73 135.74L183.73 147.96"/>
<path d="M179.65 135.74L179.65 147.96"/>
<path d="M415.89 272.19L414.56 267.05M414.56 267.05L410.83 263.28M410.83 263.28L405.71 261.9M405.71 261.9L400.59 263.28M400.59 263.28L396.86 267.05M396.86 267.05L395.53 272.19"/>
<path d="M415.89 272.19L415.89 284.41"/>
<path d="M411.82 272.19L411.82 284.41"/>
<path d="M399.6 277.58L403.44 280.01M403.44 280.01L407.98 280.01M407.98 280.01L411.82 277.58"/>
<path d="M340.54 284.41L415.89 284.41"/>
<path d="M399.6 272.19L399.6 284.41"/>
<path d="M395.53 272.19L395.53 284.41"/>
<path d="M387.38 272.19L386.05 267.05M386.05 267.05L382.32 263.28M382.32 263.28L377.2 261.9M377.2 261.9L372.08 263.28M372.08 263.28L368.34 267.05M368.34 267.05L367.02 272.19"/>
<path d="M387.38 272.19L387.38 284.41"/>
<path d="M383.31 272.19L383.31 284.41"/>
<path d="M371.09 277.58L374.93 280.01M374.93 280.01L379.47 280.01M379.47 280.01L383.31 277.58"/>
<path d="M371.09 272.19L371.09 284.41"/>
<path d="M367.02 272.19L367.02 284.41"/>
<path d="M360.91 272.19L359.58 267.05M359.58 267.05L355.85 263.28M355.85 263.28L350.72 261.9M350.72 261.9L345.6 263.28M345.6 263.28L341.87 267.05M341.87 267.05L340.54 272.19"/>
<path d="M360.91 272.19L360.91 284.41"/>
<path d="M356.83 272.19L356.83 284.41"/>
<path d="M344.61 277.58L348.45 280.01M348.45 280.01L353 280.01M353 280.01L356.83 277.58"/>
<path d="M344.61 272.19L344.61 284.41"/>
<path d="M340.54 272.19L340.54 284.41"/>
<path d="M259.08 272.19L257.75 267.05M257.75 267.05L254.02 263.28M254.02 263.28L248.9 261.9M248.9 261.9L243.77 263.28M243.77 263.28L240.04 267.05M240.04 267.05L238.71 272.19"/>
<path d="M259.08 272.19L259.08 284.41"/>
<path d="M255.01 272.19L255.01 284.41"/>
<path d="M242.79 277.58L246.62 280.01M246.62 280.01L251.17 280.01M251.17 280.01L255.01 277.58"/>
<path d="M242.79 272.19L242.79 284.41"/>
<path d="M238.71 272.19L238.71 284.41"/>
<path d="M232.6 272.19L231.28 267.05M231.28 267.05L227.54 263.28M227.54 263.28L222.42 261.9M222.42 261.9L217.3 263.28M217.3 263.28L213.57 267.05M213.57 267.05L212.24 272.19"/>
<path d="M232.6 272.19L232.6 284.41"/>
<path d="M228.53 272.19L228.53 284.41"/>
<path d="M216.31 277.58L220.15 280.01M220.15 280.01L224.69 280.01M224.69 280.01L228.53 277.58"/>
<path d="M216.31 272.19L216.31 284.41"/>
<path d="M212.24 272.19L212.24 284.41"/>
<path d="M175.58 210.37L179.42 212.81M179.42 212.81L183.96 212.81M183.96 212.81L187.8 210.37"/>
<path d="M191.87 204.98L190.54 199.85M190.54 199.85L186.81 196.08M186.81 196.08L181.69 194.69M181.69 194.69L176.57 196.08M176.57 196.08L172.84 199.85M172.84 199.85L171.51 204.98"/>
<path d="M175.58 204.98L177.37 200.66M177.37 200.66L181.69 198.87M181.69 198.87L186.01 200.66M186.01 200.66L187.8 204.98M187.8 204.98L186.01 209.3M186.01 209.3L181.69 211.09M181.69 211.09L177.37 209.3M177.37 209.3L175.58 204.98"/>
<path d="M171.51 204.98L171.51 217.2"/>
<path d="M175.58 204.98L175.58 217.2"/>
<path d="M187.8 204.98L187.8 217.2"/>
<path d="M191.87 204.98L191.87 217.2"/>
<path d="M293.7 314.96L295.49 310.64M295.49 310.64L299.81 308.85M299.81 308.85L304.13 310.64M304.13 310.64L305.92 314.96M305.92 314.96L304.13 319.28M304.13 319.28L299.81 321.07M299.81 321.07L295.49 319.28M295.49 319.28L293.7 314.96"/>
<path d="M289.63 314.96L290.96 320.09M290.96 320.09L294.69 323.87M294.69 323.87L299.81 325.25M299.81 325.25L304.93 323.87M304.93 323.87L308.66 320.09M308.66 320.09L309.99 314.96"/>
<path d="M305.92 309.57L302.08 307.13M302.08 307.13L297.54 307.13M297.54 307.13L293.7 309.57"/>
<path d="M183.73 319.03L185.52 314.71M185.52 314.71L189.84 312.92M189.84 312.92L194.16 314.71M194.16 314.71L195.95 319.03M195.95 319.03L194.16 323.35M194.16 323.35L189.84 325.14M189.84 325.14L185.52 323.35M185.52 323.35L183.73 319.03"/>
<path d="M179.65 319.03L180.98 324.17M180.98 324.17L184.71 327.94M184.71 327.94L189.84 329.32M189.84 329.32L194.96 327.94M194.96 327.94L198.69 324.17M198.69 324.17L200.02 319.03"/>
<path d="M195.95 313.64L192.11 311.21M192.11 311.21L187.56 311.21M187.56 311.21L183.73 313.64"/>
<path d="M179.65 306.81L200.02 306.81"/>
<path d="M183.73 319.03L183.73 306.81"/>
<path d="M179.65 319.03L179.65 306.81"/>
<path d="M200.02 319.03L200.02 302.74"/>
<path d="M195.95 319.03L195.95 306.81"/>
<path d="M212.24 314.96L214.03 310.64M214.03 310.64L218.35 308.85M218.35 308.85L222.67 310.64M222.67 310.64L224.46 314.96M224.46 314.96L222.67 319.28M222.67 319.28L218.35 321.07M218.35 321.07L214.03 319.28M214.03 319.28L212.24 314.96"/>
<path d="M208.16 314.96L209.49 320.09M209.49 320.09L213.23 323.87M213.23 323.87L218.35 325.25M218.35 325.25L223.47 323.87M223.47 323.87L227.2 320.09M227.2 320.09L228.53 314.96"/>
<path d="M224.46 309.57L220.62 307.13M220.62 307.13L216.08 307.13M216.08 307.13L212.24 309.57"/>
<path d="M212.24 314.96L212.24 302.74"/>
<path d="M208.16 314.96L208.16 302.74"/>
<path d="M228.53 314.96L228.53 302.74"/>
<path d="M224.46 314.96L224.46 302.74"/>
<path d="M267.22 314.96L269.01 310.64M269.01 310.64L273.33 308.85M273.33 308.85L277.65 310.64M277.65 310.64L279.44 314.96M279.44 314.96L277.65 319.28M277.65 319.28L273.33 321.07M273.33 321.07L269.01 319.28M269.01 319.28L267.22 314.96"/>
<path d="M263.15 314.96L264.48 320.09M264.48 320.09L268.21 323.87M268.21 323.87L273.33 325.25M273.33 325.25L278.46 323.87M278.46 323.87L282.19 320.09M282.19 320.09L283.52 314.96"/>
<path d="M279.44 309.57L275.61 307.13M275.61 307.13L271.06 307.13M271.06 307.13L267.22 309.57"/>
<path d="M240.75 314.96L242.54 310.64M242.54 310.64L246.86 308.85M246.86 308.85L251.18 310.64M251.18 310.64L252.97 314.96M252.97 314.96L251.18 319.28M251.18 319.28L246.86 321.07M246.86 321.07L242.54 319.28M242.54 319.28L240.75 314.96"/>
<path d="M236.68 314.96L238.01 320.09M238.01 320.09L241.74 323.87M241.74 323.87L246.86 325.25M246.86 325.25L251.98 323.87M251.98 323.87L255.71 320.09M255.71 320.09L257.04 314.96"/>
<path d="M252.97 309.57L249.13 307.13M249.13 307.13L244.59 307.13M244.59 307.13L240.75 309.57"/>
<path d="M240.75 314.96L240.75 302.74"/>
<path d="M236.68 314.96L236.68 302.74"/>
<path d="M267.22 314.96L267.22 302.74"/>
<path d="M263.15 314.96L263.15 302.74"/>
<path d="M257.04 314.96L257.04 302.74"/>
<path d="M252.97 314.96L252.97 302.74"/>
<path d="M283.52 314.96L283.52 302.74"/>
<path d="M279.44 314.96L279.44 302.74"/>
<path d="M293.7 314.96L293.7 302.74"/>
<path d="M289.63 314.96L289.63 302.74"/>
<path d="M344.61 314.96L345.94 320.09M345.94 320.09L349.67 323.87M349.67 323.87L354.8 325.25M354.8 325.25L359.92 323.87M359.92 323.87L363.65 320.09M363.65 320.09L364.98 314.96"/>
<path d="M322.21 314.96L324 310.64M324 310.64L328.32 308.85M328.32 308.85L332.64 310.64M332.64 310.64L334.43 314.96M334.43 314.96L332.64 319.28M332.64 319.28L328.32 321.07M328.32 321.07L324 319.28M324 319.28L322.21 314.96"/>
<path d="M318.14 314.96L319.47 320.09M319.47 320.09L323.2 323.87M323.2 323.87L328.32 325.25M328.32 325.25L333.44 323.87M333.44 323.87L337.18 320.09M337.18 320.09L338.5 314.96"/>
<path d="M334.43 309.57L330.59 307.13M330.59 307.13L326.05 307.13M326.05 307.13L322.21 309.57"/>
<path d="M309.99 314.96L309.99 302.74"/>
<path d="M305.92 314.96L305.92 302.74"/>
<path d="M322.21 314.96L322.21 302.74"/>
<path d="M318.14 314.96L318.14 302.74"/>
<path d="M348.69 314.96L350.48 310.64M350.48 310.64L354.8 308.85M354.8 308.85L359.12 310.64M359.12 310.64L360.91 314.96M360.91 314.96L359.12 319.28M359.12 319.28L354.8 321.07M354.8 321.07L350.48 319.28M350.48 319.28L348.69 314.96"/>
<path d="M344.61 314.96L344.61 302.74"/>
<path d="M338.5 314.96L338.5 302.74"/>
<path d="M334.43 314.96L334.43 302.74"/>
<path d="M360.91 309.57L357.07 307.13M357.07 307.13L352.52 307.13M352.52 307.13L348.69 309.57"/>
<path d="M360.91 314.96L360.91 302.74"/>
<path d="M348.69 314.96L348.69 302.74"/>
<path d="M375.16 314.96L376.95 310.64M376.95 310.64L381.27 308.85M381.27 308.85L385.59 310.64M385.59 310.64L387.38 314.96M387.38 314.96L385.59 319.28M385.59 319.28L381.27 321.07M381.27 321.07L376.95 319.28M376.95 319.28L375.16 314.96"/>
<path d="M371.09 314.96L372.42 320.09M372.42 320.09L376.15 323.87M376.15 323.87L381.27 325.25M381.27 325.25L386.39 323.87M386.39 323.87L390.13 320.09M390.13 320.09L391.45 314.96"/>
<path d="M387.38 309.57L383.54 307.13M383.54 307.13L379 307.13M379 307.13L375.16 309.57"/>
<path d="M200.02 302.74L399.6 302.74"/>
<path d="M375.16 314.96L375.16 302.74"/>
<path d="M371.09 314.96L371.09 302.74"/>
<path d="M364.98 314.96L364.98 302.74"/>
<path d="M391.45 314.96L391.45 302.74"/>
<path d="M387.38 314.96L387.38 302.74"/>
<path d="M403.67 319.03L405.46 314.71M405.46 314.71L409.78 312.92M409.78 312.92L414.1 314.71M414.1 314.71L415.89 319.03M415.89 319.03L414.1 323.35M414.1 323.35L409.78 325.14M409.78 325.14L405.46 323.35M405.46 323.35L403.67 319.03"/>
<path d="M399.6 319.03L400.93 324.17M400.93 324.17L404.66 327.94M404.66 327.94L409.78 329.32M409.78 329.32L414.91 327.94M414.91 327.94L418.64 324.17M418.64 324.17L419.97 319.03"/>
<path d="M415.89 313.64L412.06 311.21M412.06 311.21L407.51 311.21M407.51 311.21L403.67 313.64"/>
<path d="M399.6 306.81L419.97 306.81"/>
<path d="M403.67 319.03L403.67 306.81"/>
<path d="M399.6 319.03L399.6 302.74"/>
<path d="M419.97 319.03L419.97 306.81"/>
<path d="M415.89 319.03L415.89 306.81"/>
<path d="M185.76 272.19L185.76 284.41"/>
<path d="M189.84 272.19L189.84 284.41"/>
<path d="M202.06 272.19L202.06 284.41"/>
<path d="M206.13 272.19L206.13 284.41"/>
<path d="M185.76 284.41L259.08 284.41"/>
<path d="M189.84 277.58L193.67 280.01M193.67 280.01L198.22 280.01M198.22 280.01L202.06 277.58"/>
<path d="M206.13 272.19L204.8 267.05M204.8 267.05L201.07 263.28M201.07 263.28L195.95 261.9M195.95 261.9L190.82 263.28M190.82 263.28L187.09 267.05M187.09 267.05L185.76 272.19"/>
<path d="M189.84 272.19L191.63 267.87M191.63 267.87L195.95 266.08M195.95 266.08L200.27 267.87M200.27 267.87L202.06 272.19M202.06 272.19L200.27 276.51M200.27 276.51L195.95 278.3M195.95 278.3L191.63 276.51M191.63 276.51L189.84 272.19"/>
<path d="M206.13 182.58L206.13 170.36"/>
<path d="M202.06 182.58L202.06 170.36"/>
<path d="M189.84 182.58L189.84 170.36"/>
<path d="M185.76 182.58L185.76 170.36"/>
<path d="M212.24 182.58L212.24 170.36"/>
<path d="M216.31 182.58L216.31 170.36"/>
<path d="M228.53 182.58L228.53 170.36"/>
<path d="M232.6 182.58L232.6 170.36"/>
<path d="M185.76 170.36L259.08 170.36"/>
<path d="M185.76 182.58L187.09 187.72M187.09 187.72L190.82 191.49M190.82 191.49L195.95 192.87M195.95 192.87L201.07 191.49M201.07 191.49L204.8 187.72M204.8 187.72L206.13 182.58"/>
<path d="M189.84 182.58L191.63 178.26M191.63 178.26L195.95 176.47M195.95 176.47L200.27 178.26M200.27 178.26L202.06 182.58M202.06 182.58L200.27 186.9M200.27 186.9L195.95 188.69M195.95 188.69L191.63 186.9M191.63 186.9L189.84 182.58"/>
<path d="M202.06 177.19L198.22 174.76M198.22 174.76L193.67 174.76M193.67 174.76L189.84 177.19"/>
<path d="M228.53 177.19L224.69 174.76M224.69 174.76L220.15 174.76M220.15 174.76L216.31 177.19"/>
<path d="M212.24 182.58L213.57 187.72M213.57 187.72L217.3 191.49M217.3 191.49L222.42 192.87M222.42 192.87L227.54 191.49M227.54 191.49L231.28 187.72M231.28 187.72L232.6 182.58"/>
<path d="M216.31 182.58L218.1 178.26M218.1 178.26L222.42 176.47M222.42 176.47L226.74 178.26M226.74 178.26L228.53 182.58M228.53 182.58L226.74 186.9M226.74 186.9L222.42 188.69M222.42 188.69L218.1 186.9M218.1 186.9L216.31 182.58"/>
<path d="M238.71 182.58L238.71 170.36"/>
<path d="M242.79 182.58L242.79 170.36"/>
<path d="M255.01 182.58L255.01 170.36"/>
<path d="M259.08 182.58L259.08 170.36"/>
<path d="M255.01 177.19L251.17 174.76M251.17 174.76L246.62 174.76M246.62 174.76L242.79 177.19"/>
<path d="M238.71 182.58L240.04 187.72M240.04 187.72L243.77 191.49M243.77 191.49L248.9 192.87M248.9 192.87L254.02 191.49M254.02 191.49L257.75 187.72M257.75 187.72L259.08 182.58"/>
<path d="M242.79 182.58L244.58 178.26M244.58 178.26L248.9 176.47M248.9 176.47L253.22 178.26M253.22 178.26L255.01 182.58M255.01 182.58L253.22 186.9M253.22 186.9L248.9 188.69M248.9 188.69L244.58 186.9M244.58 186.9L242.79 182.58"/>
<path d="M340.54 182.58L340.54 170.36"/>
<path d="M344.61 182.58L344.61 170.36"/>
<path d="M356.83 182.58L356.83 170.36"/>
<path d="M360.91 182.58L360.91 170.36"/>
<path d="M340.54 182.58L341.87 187.72M341.87 187.72L345.6 191.49M345.6 191.49L350.72 192.87M350.72 192.87L355.85 191.49M355.85 191.49L359.58 187.72M359.58 187.72L360.91 182.58"/>
<path d="M356.83 177.19L353 174.76M353 174.76L348.45 174.76M348.45 174.76L344.61 177.19"/>
<path d="M344.61 182.58L346.4 178.26M346.4 178.26L350.72 176.47M350.72 176.47L355.04 178.26M355.04 178.26L356.83 182.58M356.83 182.58L355.04 186.9M355.04 186.9L350.72 188.69M350.72 188.69L346.4 186.9M346.4 186.9L344.61 182.58"/>
<path d="M367.02 182.58L367.02 170.36"/>
<path d="M371.09 182.58L371.09 170.36"/>
<path d="M383.31 182.58L383.31 170.36"/>
<path d="M387.38 182.58L387.38 170.36"/>
<path d="M367.02 182.58L368.34 187.72M368.34 187.72L372.08 191.49M372.08 191.49L377.2 192.87M377.2 192.87L382.32 191.49M382.32 191.49L386.05 187.72M386.05 187.72L387.38 182.58"/>
<path d="M395.53 182.58L395.53 170.36"/>
<path d="M399.6 182.58L399.6 170.36"/>
<path d="M411.82 182.58L411.82 170.36"/>
<path d="M415.89 182.58L415.89 170.36"/>
<path d="M395.53 182.58L396.86 187.72M396.86 187.72L400.59 191.49M400.59 191.49L405.71 192.87M405.71 192.87L410.83 191.49M410.83 191.49L414.56 187.72M414.56 187.72L415.89 182.58"/>
<path d="M340.54 170.36L415.89 170.36"/>
<path d="M383.31 177.19L379.47 174.76M379.47 174.76L374.93 174.76M374.93 174.76L371.09 177.19"/>
<path d="M371.09 182.58L372.88 178.26M372.88 178.26L377.2 176.47M377.2 176.47L381.52 178.26M381.52 178.26L383.31 182.58M383.31 182.58L381.52 186.9M381.52 186.9L377.2 188.69M377.2 188.69L372.88 186.9M372.88 186.9L371.09 182.58"/>
<path d="M399.6 182.58L401.39 178.26M401.39 178.26L405.71 176.47M405.71 176.47L410.03 178.26M410.03 178.26L411.82 182.58M411.82 182.58L410.03 186.9M410.03 186.9L405.71 188.69M405.71 188.69L401.39 186.9M401.39 186.9L399.6 182.58"/>
<path d="M411.82 177.19L407.98 174.76M407.98 174.76L403.44 174.76M403.44 174.76L399.6 177.19"/>
<path d="M240.75 244.4L236.91 241.96M236.91 241.96L232.37 241.96M232.37 241.96L228.53 244.4"/>
<path d="M224.46 249.79L225.79 254.92M225.79 254.92L229.52 258.7M229.52 258.7L234.64 260.08M234.64 260.08L239.76 258.7M239.76 258.7L243.49 254.92M243.49 254.92L244.82 249.79"/>
<path d="M228.53 249.79L230.32 245.47M230.32 245.47L234.64 243.68M234.64 243.68L238.96 245.47M238.96 245.47L240.75 249.79M240.75 249.79L238.96 254.11M238.96 254.11L234.64 255.9M234.64 255.9L230.32 254.11M230.32 254.11L228.53 249.79"/>
<path d="M214.27 244.4L210.44 241.96M210.44 241.96L205.89 241.96M205.89 241.96L202.06 244.4"/>
<path d="M197.98 249.79L199.31 254.92M199.31 254.92L203.04 258.7M203.04 258.7L208.16 260.08M208.16 260.08L213.29 258.7M213.29 258.7L217.02 254.92M217.02 254.92L218.35 249.79"/>
<path d="M202.06 249.79L203.84 245.47M203.84 245.47L208.16 243.68M208.16 243.68L212.49 245.47M212.49 245.47L214.27 249.79M214.27 249.79L212.49 254.11M212.49 254.11L208.16 255.9M208.16 255.9L203.84 254.11M203.84 254.11L202.06 249.79"/>
<path d="M175.58 249.79L177.37 245.47M177.37 245.47L181.69 243.68M181.69 243.68L186.01 245.47M186.01 245.47L187.8 249.79M187.8 249.79L186.01 254.11M186.01 254.11L181.69 255.9M181.69 255.9L177.37 254.11M177.37 254.11L175.58 249.79"/>
<path d="M171.51 249.79L172.84 254.92M172.84 254.92L176.57 258.7M176.57 258.7L181.69 260.08M181.69 260.08L186.81 258.7M186.81 258.7L190.54 254.92M190.54 254.92L191.87 249.79"/>
<path d="M187.8 244.4L183.96 241.96M183.96 241.96L179.42 241.96M179.42 241.96L175.58 244.4"/>
<path d="M171.51 237.57L244.82 237.57"/>
<path d="M175.58 249.79L175.58 237.57"/>
<path d="M171.51 249.79L171.51 237.57"/>
<path d="M191.87 249.79L191.87 237.57"/>
<path d="M187.8 249.79L187.8 237.57"/>
<path d="M197.98 249.79L197.98 237.57"/>
<path d="M202.06 249.79L202.06 237.57"/>
<path d="M214.27 249.79L214.27 237.57"/>
<path d="M218.35 249.79L218.35 237.57"/>
<path d="M224.46 249.79L224.46 237.57"/>
<path d="M228.53 249.79L228.53 237.57"/>
<path d="M240.75 249.79L240.75 237.57"/>
<path d="M244.82 249.79L244.82 237.57"/>
<path d="M179.65 219.24L179.65 235.53"/>
<path d="M179.65 235.53L267.22 235.53"/>
<path d="M267.22 235.53L267.22 219.24"/>
<path d="M267.22 219.24L179.65 219.24"/>
<path d="M332.39 219.24L419.97 219.24"/>
<path d="M332.39 235.53L332.39 219.24"/>
<path d="M419.97 235.53L332.39 235.53"/>
<path d="M419.97 219.24L419.97 235.53"/>
<path d="M279.44 223.31L281.2 215.03M281.2 215.03L286.18 208.18M286.18 208.18L293.52 203.94M293.52 203.94L301.94 203.06M301.94 203.06L309.99 205.68M309.99 205.68L316.29 211.34M316.29 211.34L319.73 219.08M319.73 219.08L319.73 227.55M319.73 227.55L316.29 235.28M316.29 235.28L309.99 240.95M309.99 240.95L301.94 243.57M301.94 243.57L293.52 242.68M293.52 242.68L286.18 238.45M286.18 238.45L281.2 231.6M281.2 231.6L279.44 223.31"/>
<path d="M281.48 223.31L283.3 215.36M283.3 215.36L288.38 208.98M288.38 208.98L295.73 205.44M295.73 205.44L303.89 205.44M303.89 205.44L311.24 208.98M311.24 208.98L316.32 215.36M316.32 215.36L318.14 223.31M318.14 223.31L316.32 231.27M316.32 231.27L311.24 237.64M311.24 237.64L303.89 241.18M303.89 241.18L295.73 241.18M295.73 241.18L288.38 237.64M288.38 237.64L283.3 231.27M283.3 231.27L281.48 223.31"/>
<path d="M283.52 223.31L285.38 215.74M285.38 215.74L290.55 209.9M290.55 209.9L297.85 207.14M297.85 207.14L305.59 208.08M305.59 208.08L312 212.51M312 212.51L315.63 219.41M315.63 219.41L315.63 227.21M315.63 227.21L312 234.12M312 234.12L305.59 238.55M305.59 238.55L297.85 239.49M297.85 239.49L290.55 236.72M290.55 236.72L285.38 230.88M285.38 230.88L283.52 223.31"/>
<path d="M145.03 319.03L145.03 133.7"/>
<path d="M185.76 92.97L175.22 94.36M175.22 94.36L165.4 98.43M165.4 98.43L156.96 104.9M156.96 104.9L150.49 113.34M150.49 113.34L146.42 123.16M146.42 123.16L145.03 133.7"/>
<path d="M185.76 99.08L175.06 100.78M175.06 100.78L165.41 105.69M165.41 105.69L157.75 113.35M157.75 113.35L152.84 123.01M152.84 123.01L151.14 133.7"/>
<path d="M151.14 319.03L151.14 133.7"/>
<path d="M145.03 319.03L146.42 329.57M146.42 329.57L150.49 339.4M150.49 339.4L156.96 347.83M156.96 347.83L165.4 354.3M165.4 354.3L175.22 358.37M175.22 358.37L185.76 359.76"/>
<path d="M448.48 133.7L446.78 123.01M446.78 123.01L441.87 113.35M441.87 113.35L434.21 105.69M434.21 105.69L424.56 100.78M424.56 100.78L413.86 99.08"/>
<path d="M454.59 133.7L453.2 123.16M453.2 123.16L449.13 113.34M449.13 113.34L442.66 104.9M442.66 104.9L434.22 98.43M434.22 98.43L424.4 94.36M424.4 94.36L413.86 92.97"/>
<path d="M454.59 319.03L454.59 133.7"/>
<path d="M448.48 319.03L448.48 133.7"/>
<path d="M413.86 359.76L424.4 358.37M424.4 358.37L434.22 354.3M434.22 354.3L442.66 347.83M442.66 347.83L449.13 339.4M449.13 339.4L453.2 329.57M453.2 329.57L454.59 319.03"/>
<path d="M151.14 319.03L152.84 329.73M152.84 329.73L157.75 339.38M157.75 339.38L165.41 347.04M165.41 347.04L175.06 351.96M175.06 351.96L185.76 353.65"/>
<path d="M413.86 353.65L424.56 351.96M424.56 351.96L434.21 347.04M434.21 347.04L441.87 339.38M441.87 339.38L446.78 329.73M446.78 329.73L448.48 319.03"/>
<path d="M413.86 353.65L185.76 353.65"/>
<path d="M185.76 115.38L178.75 116.77M178.75 116.77L172.8 120.74M172.8 120.74L168.83 126.69M168.83 126.69L167.43 133.7"/>
<path d="M167.43 319.03L167.43 133.7"/>
<path d="M167.43 319.03L168.83 326.04M168.83 326.04L172.8 331.99M172.8 331.99L178.75 335.96M178.75 335.96L185.76 337.36"/>
<path d="M413.86 337.36L185.76 337.36"/>
<path d="M413.86 337.36L420.87 335.96M420.87 335.96L426.82 331.99M426.82 331.99L430.79 326.04M430.79 326.04L432.19 319.03"/>
<path d="M432.19 319.03L432.19 133.7"/>
<path d="M432.19 133.7L430.79 126.69M430.79 126.69L426.82 120.74M426.82 120.74L420.87 116.77M420.87 116.77L413.86 115.38"/>
<path d="M185.76 115.38L413.86 115.38"/>
<path d="M428.11 217.2L354.8 217.2"/>
<path d="M358.87 204.98L360.66 200.66M360.66 200.66L364.98 198.87M364.98 198.87L369.3 200.66M369.3 200.66L371.09 204.98M371.09 204.98L369.3 209.3M369.3 209.3L364.98 211.09M364.98 211.09L360.66 209.3M360.66 209.3L358.87 204.98"/>
<path d="M375.16 204.98L373.83 199.85M373.83 199.85L370.1 196.08M370.1 196.08L364.98 194.69M364.98 194.69L359.86 196.08M359.86 196.08L356.13 199.85M356.13 199.85L354.8 204.98"/>
<path d="M358.87 210.37L362.71 212.81M362.71 212.81L367.25 212.81M367.25 212.81L371.09 210.37"/>
<path d="M385.34 204.98L387.13 200.66M387.13 200.66L391.45 198.87M391.45 198.87L395.77 200.66M395.77 200.66L397.56 204.98M397.56 204.98L395.77 209.3M395.77 209.3L391.45 211.09M391.45 211.09L387.13 209.3M387.13 209.3L385.34 204.98"/>
<path d="M401.64 204.98L400.31 199.85M400.31 199.85L396.58 196.08M396.58 196.08L391.45 194.69M391.45 194.69L386.33 196.08M386.33 196.08L382.6 199.85M382.6 199.85L381.27 204.98"/>
<path d="M385.34 210.37L389.18 212.81M389.18 212.81L393.73 212.81M393.73 212.81L397.56 210.37"/>
<path d="M428.11 204.98L428.11 217.2"/>
<path d="M424.04 204.98L424.04 217.2"/>
<path d="M397.56 204.98L397.56 217.2"/>
<path d="M401.64 204.98L401.64 217.2"/>
<path d="M411.82 204.98L411.82 217.2"/>
<path d="M407.75 204.98L407.75 217.2"/>
<path d="M411.82 204.98L413.61 200.66M413.61 200.66L417.93 198.87M417.93 198.87L422.25 200.66M422.25 200.66L424.04 204.98M424.04 204.98L422.25 209.3M422.25 209.3L417.93 211.09M417.93 211.09L413.61 209.3M413.61 209.3L411.82 204.98"/>
<path d="M428.11 204.98L426.78 199.85M426.78 199.85L423.05 196.08M423.05 196.08L417.93 194.69M417.93 194.69L412.81 196.08M412.81 196.08L409.08 199.85M409.08 199.85L407.75 204.98"/>
<path d="M411.82 210.37L415.66 212.81M415.66 212.81L420.2 212.81M420.2 212.81L424.04 210.37"/>
<path d="M381.27 204.98L381.27 217.2"/>
<path d="M385.34 204.98L385.34 217.2"/>
<path d="M371.09 204.98L371.09 217.2"/>
<path d="M375.16 204.98L375.16 217.2"/>
<path d="M354.8 204.98L354.8 217.2"/>
<path d="M358.87 204.98L358.87 217.2"/>
<path d="M407.75 249.79L409.08 254.92M409.08 254.92L412.81 258.7M412.81 258.7L417.93 260.08M417.93 260.08L423.05 258.7M423.05 258.7L426.78 254.92M426.78 254.92L428.11 249.79"/>
<path d="M424.04 244.4L420.2 241.96M420.2 241.96L415.66 241.96M415.66 241.96L411.82 244.4"/>
<path d="M397.56 244.4L393.73 241.96M393.73 241.96L389.18 241.96M389.18 241.96L385.34 244.4"/>
<path d="M381.27 249.79L382.6 254.92M382.6 254.92L386.33 258.7M386.33 258.7L391.45 260.08M391.45 260.08L396.58 258.7M396.58 258.7L400.31 254.92M400.31 254.92L401.64 249.79"/>
<path d="M371.09 244.4L367.25 241.96M367.25 241.96L362.71 241.96M362.71 241.96L358.87 244.4"/>
<path d="M354.8 249.79L356.13 254.92M356.13 254.92L359.86 258.7M359.86 258.7L364.98 260.08M364.98 260.08L370.1 258.7M370.1 258.7L373.83 254.92M373.83 254.92L375.16 249.79"/>
<path d="M424.04 249.79L424.04 237.57"/>
<path d="M428.11 249.79L428.11 237.57"/>
<path d="M407.75 249.79L407.75 237.57"/>
<path d="M411.82 249.79L411.82 237.57"/>
<path d="M401.64 249.79L401.64 237.57"/>
<path d="M397.56 249.79L397.56 237.57"/>
<path d="M385.34 249.79L385.34 237.57"/>
<path d="M381.27 249.79L381.27 237.57"/>
<path d="M375.16 249.79L375.16 237.57"/>
<path d="M371.09 249.79L371.09 237.57"/>
<path d="M358.87 249.79L358.87 237.57"/>
<path d="M354.8 249.79L354.8 237.57"/>
<path d="M358.87 249.79L360.66 245.47M360.66 245.47L364.98 243.68M364.98 243.68L369.3 245.47M369.3 245.47L371.09 249.79M371.09 249.79L369.3 254.11M369.3 254.11L364.98 255.9M364.98 255.9L360.66 254.11M360.66 254.11L358.87 249.79"/>
<path d="M385.34 249.79L387.13 245.47M387.13 245.47L391.45 243.68M391.45 243.68L395.77 245.47M395.77 245.47L397.56 249.79M397.56 249.79L395.77 254.11M395.77 254.11L391.45 255.9M391.45 255.9L387.13 254.11M387.13 254.11L385.34 249.79"/>
<path d="M411.82 249.79L413.61 245.47M413.61 245.47L417.93 243.68M417.93 243.68L422.25 245.47M422.25 245.47L424.04 249.79M424.04 249.79L422.25 254.11M422.25 254.11L417.93 255.9M417.93 255.9L413.61 254.11M413.61 254.11L411.82 249.79"/>
<path d="M428.11 237.57L354.8 237.57"/>
<path d="M267.22 156.11L267.22 166.29"/>
<path d="M267.22 166.29L334.43 166.29"/>
<path d="M334.43 166.29L334.43 156.11"/>
<path d="M334.43 156.11L267.22 156.11"/>
<path d="M200.02 156.11L263.15 156.11"/>
<path d="M263.15 156.11L263.15 166.29"/>
<path d="M263.15 166.29L200.02 166.29"/>
<path d="M200.02 166.29L200.02 156.11"/>
<path d="M340.54 156.11L403.67 156.11"/>
<path d="M403.67 166.29L340.54 166.29"/>
<path d="M340.54 166.29L340.54 156.11"/>
<path d="M403.67 156.11L403.67 166.29"/>
<path d="M332.39 288.48L265.19 288.48"/>
<path d="M265.19 298.66L332.39 298.66"/>
<path d="M197.98 288.48L261.12 288.48"/>
<path d="M261.12 298.66L197.98 298.66"/>
<path d="M197.98 298.66L197.98 288.48"/>
<path d="M261.12 288.48L261.12 298.66"/>
<path d="M265.19 288.48L265.19 298.66"/>
<path d="M338.5 288.48L401.64 288.48"/>
<path d="M401.64 298.66L338.5 298.66"/>
<path d="M338.5 298.66L338.5 288.48"/>
<path d="M332.39 298.66L332.39 288.48"/>
<path d="M401.64 288.48L401.64 298.66"/>
<path d="M374.23 45.43L374.23 88.9"/>
<path d="M408.8 92.97L408.8 61.5"/>
<path d="M397.28 45.43L385.75 45.43"/>
<path d="M408.8 61.5L408.8 45.43"/>
<path d="M408.8 45.43L397.28 45.43"/>
<path d="M381.27 84.83L381.27 46.13"/>
<path d="M385.75 45.43L374.23 45.43"/>
<path d="M316.1 92.97L316.1 86.86"/>
<path d="M381.27 84.82L382.36 88.89M382.36 88.89L385.34 91.88M385.34 91.88L389.42 92.97"/>
<path d="M210.2 92.97L214.28 91.88M214.28 91.88L217.26 88.89M217.26 88.89L218.35 84.82"/>
<path d="M218.35 84.83L218.35 46.13"/>
<path d="M225.39 88.9L226.59 91.78M226.59 91.78L229.47 92.97"/>
<path d="M370.15 92.97L373.03 91.78M373.03 91.78L374.23 88.9"/>
<path d="M326.52 363.83L332.81 363.83"/>
<path d="M338.99 363.83L341.12 359.84"/>
<path d="M332.81 363.83L338.99 363.83"/>
<path d="M320.18 363.83L326.52 363.83"/>
<path d="M320.18 359.76L320.18 363.83"/>
<path d="M197.98 84.82L199.07 88.89M199.07 88.89L202.05 91.88M202.05 91.88L206.13 92.97"/>
<path d="M206.13 68.53L202.05 69.63M202.05 69.63L199.07 72.61M199.07 72.61L197.98 76.69"/>
<path d="M218.35 76.69L217.26 72.61M217.26 72.61L214.28 69.63M214.28 69.63L210.2 68.53"/>
<path d="M401.64 76.69L401.64 84.82"/>
<path d="M393.49 92.97L397.57 91.88M397.57 91.88L400.55 88.89M400.55 88.89L401.64 84.82"/>
<path d="M401.64 76.69L400.55 72.61M400.55 72.61L397.57 69.63M397.57 69.63L393.49 68.53"/>
<path d="M389.42 68.53L393.49 68.53"/>
<path d="M389.42 68.53L385.34 69.63M385.34 69.63L382.36 72.61M382.36 72.61L381.27 76.69"/>
</g>
</g>
</svg>
