<?xml version="1.0" standalone="no"?><svg xmlns="http://www.w3.org/2000/svg" width="600.000" height="450.000" viewBox="0.0 0.0 600.000 450.000" version="1.1">
<title>Acme Converter - Post-processed with EDS-Designer: 14.44 (info@symca.com)</title>
<desc>Acme Converter - Post-processed with EDS-Designer: 14.44 (info@symca.com)</desc>
<g id="EDS_STYLE_GROUP" fill="none" stroke="black" stroke-width="1.0">
<g id="0" display="visible">
<path d="M251.16 404.56L251.16 383.76M252.15 383.76L252.15 404.56M248.18 383.76L260.07 383.76M260.07 383.76L263.05 384.75M263.05 384.75L264.04 385.74M264.04 385.74L265.03 387.72M265.03 387.72L265.03 389.7M265.03 389.7L264.04 391.68M264.04 391.68L263.05 392.68M263.05 392.68L260.07 393.67M260.07 383.76L262.05 384.75M262.05 384.75L263.05 385.74M263.05 385.74L264.04 387.72M264.04 387.72L264.04 389.7M264.04 389.7L263.05 391.68M263.05 391.68L262.05 392.68M262.05 392.68L260.07 393.67M252.15 393.67L260.07 393.67M260.07 393.67L263.05 394.66M263.05 394.66L264.04 395.65M264.04 395.65L265.03 397.63M265.03 397.63L265.03 400.6M265.03 400.6L264.04 402.58M264.04 402.58L263.05 403.57M263.05 403.57L260.07 404.56M260.07 404.56L248.18 404.56M260.07 393.67L262.05 394.66M262.05 394.66L263.05 395.65M263.05 395.65L264.04 397.63M264.04 397.63L264.04 400.6M264.04 400.6L263.05 402.58M263.05 402.58L262.05 403.57M262.05 403.57L260.07 404.56M272.95 404.56L272.95 383.76M273.94 383.76L273.94 404.56M269.98 383.76L276.92 383.76M269.98 404.56L284.84 404.56M284.84 404.56L284.84 398.62M284.84 398.62L283.85 404.56M296.73 383.76L289.8 404.56M296.73 383.76L303.67 404.56M296.73 386.73L302.68 404.56M291.78 398.62L300.69 398.62M287.81 404.56L293.76 404.56M299.7 404.56L305.65 404.56M322.49 386.73L323.48 389.7M323.48 389.7L323.48 383.76M323.48 383.76L322.49 386.73M322.49 386.73L320.51 384.75M320.51 384.75L317.54 383.76M317.54 383.76L315.55 383.76M315.55 383.76L312.58 384.75M312.58 384.75L310.6 386.73M310.6 386.73L309.61 388.71M309.61 388.71L308.62 391.68M308.62 391.68L308.62 396.64M308.62 396.64L309.61 399.61M309.61 399.61L310.6 401.59M310.6 401.59L312.58 403.57M312.58 403.57L315.55 404.56M315.55 404.56L317.54 404.56M317.54 404.56L320.51 403.57M320.51 403.57L322.49 401.59M322.49 401.59L323.48 399.61M315.55 383.76L313.57 384.75M313.57 384.75L311.59 386.73M311.59 386.73L310.6 388.71M310.6 388.71L309.61 391.68M309.61 391.68L309.61 396.64M309.61 396.64L310.6 399.61M310.6 399.61L311.59 401.59M311.59 401.59L313.57 403.57M313.57 403.57L315.55 404.56M332.4 404.56L332.4 383.76M333.39 383.76L333.39 404.56M346.27 383.76L333.39 396.64M338.34 392.68L346.27 404.56M337.35 392.68L345.28 404.56M329.43 383.76L336.36 383.76M342.3 383.76L348.25 383.76M329.43 404.56L336.36 404.56M342.3 404.56L348.25 404.56"/>
<path d="M379.77 84.16L377.85 76.75M377.85 76.75L373.48 70.48M373.48 70.48L367.2 66.11M367.2 66.11L359.8 64.19"/>
<path d="M235.8 64.19L228.4 66.11M228.4 66.11L222.12 70.48M222.12 70.48L217.75 76.75M217.75 76.75L215.83 84.16"/>
<path d="M235.8 50.87L223.87 54.71M223.87 54.71L213.72 62.07M213.72 62.07L206.36 72.22M206.36 72.22L202.51 84.16"/>
<path d="M333.17 84.16L319.85 87.49"/>
<path d="M353.98 77.5L241.63 77.5"/>
<path d="M339.83 117.45L255.77 117.45"/>
<path d="M339.83 104.13L255.77 104.13"/>
<path d="M346.49 130.76L249.12 130.76"/>
<path d="M459.91 225.44L459.91 224.65M459.91 224.65L460.7 223.06M460.7 223.06L461.49 222.27M461.49 222.27L463.08 221.48M463.08 221.48L466.25 221.48M466.25 221.48L467.83 222.27M467.83 222.27L468.62 223.06M468.62 223.06L469.42 224.65M469.42 224.65L469.42 226.23M469.42 226.23L468.62 227.82M468.62 227.82L467.04 230.19M467.04 230.19L459.11 238.12M459.11 238.12L470.21 238.12"/>
<path d="M313.2 313.85L346.49 313.85"/>
<path d="M254.94 194.01L340.66 194.01"/>
<path d="M249.12 180.7L346.49 180.7"/>
<path d="M249.12 174.04L346.49 174.04"/>
<path d="M249.12 293.88L346.49 293.88"/>
<path d="M249.12 287.22L346.49 287.22"/>
<path d="M254.94 273.91L340.66 273.91"/>
<path d="M326.51 327.17L346.49 327.17"/>
<path d="M221.52 367.29L375.22 367.29"/>
<path d="M222.48 267.25L222.48 200.67"/>
<path d="M229.14 267.25L229.14 200.67"/>
<path d="M242.46 261.42L242.46 206.5"/>
<path d="M175.88 219.81L175.88 237.7"/>
<path d="M152.58 190.29L152.58 278.6"/>
<path d="M179.21 254.35L189.2 254.35"/>
<path d="M179.21 241.03L202.51 241.03"/>
<path d="M170.13 301.99L181.32 316.35M181.32 316.35L194.98 328.4M194.98 328.4L210.63 337.71M210.63 337.71L227.73 343.97M227.73 343.97L245.69 346.95"/>
<path d="M188.67 254.35L188.27 269.55M188.27 269.55L191.48 284.42M191.48 284.42L198.14 298.1M198.14 298.1L207.86 309.8M207.86 309.8L220.07 318.86M220.07 318.86L234.09 324.77M234.09 324.77L249.12 327.17"/>
<path d="M153.46 282.32L158.25 291.9"/>
<path d="M179.21 241.03L179.21 254.35"/>
<path d="M175.88 237.7L179.21 241.03"/>
<path d="M161.07 295.1L167.74 299.55"/>
<path d="M252.43 358.35L245.69 346.95"/>
<path d="M249.12 313.85L282.4 313.85"/>
<path d="M249.12 327.17L269.09 327.17"/>
<path d="M249.12 327.17L269.09 327.17"/>
<path d="M202.51 264.04L203.62 276.62M203.62 276.62L207.99 288.47M207.99 288.47L215.33 298.76M215.33 298.76L225.1 306.76M225.1 306.76L236.63 311.91M236.63 311.91L249.12 313.85"/>
<path d="M222.48 267.25L226.27 276.31M226.27 276.31L232.26 284.1M232.26 284.1L240.05 290.09M240.05 290.09L249.12 293.88"/>
<path d="M202.51 241.03L189.2 254.35"/>
<path d="M229.14 267.25L231.06 274.65M231.06 274.65L235.43 280.93M235.43 280.93L241.71 285.3M241.71 285.3L249.12 287.22"/>
<path d="M309.87 343.81L285.73 343.81"/>
<path d="M285.73 343.81L282.4 340.48"/>
<path d="M269.09 327.17L269.09 340.48"/>
<path d="M269.09 340.48L282.4 340.48"/>
<path d="M282.4 340.48L282.4 313.85"/>
<path d="M282.4 313.85L269.09 327.17"/>
<path d="M313.2 340.48L309.87 343.81"/>
<path d="M313.2 340.48L326.51 340.48"/>
<path d="M326.51 340.48L326.51 327.17"/>
<path d="M313.2 313.85L313.2 340.48"/>
<path d="M313.2 313.85L326.51 327.17"/>
<path d="M189.2 203.17L179.21 203.17"/>
<path d="M215.83 144.08L204 161.46M204 161.46L195.04 180.48M195.04 180.48L189.2 200.67"/>
<path d="M202.51 216.48L179.21 216.48"/>
<path d="M162.8 172.37L179.57 162.48"/>
<path d="M179.21 203.17L179.21 216.48"/>
<path d="M179.21 216.48L175.88 219.81"/>
<path d="M229.14 154.07L218.84 163.27M218.84 163.27L210.73 174.46M210.73 174.46L205.21 187.12M205.21 187.12L202.51 200.67"/>
<path d="M202.51 265.17L202.51 241.03"/>
<path d="M202.51 216.48L189.2 203.17"/>
<path d="M249.12 174.04L240.05 177.83M240.05 177.83L232.26 183.82M232.26 183.82L226.27 191.61M226.27 191.61L222.48 200.67"/>
<path d="M249.12 180.7L241.71 182.62M241.71 182.62L235.43 186.99M235.43 186.99L231.06 193.27M231.06 193.27L229.14 200.67"/>
<path d="M129.79 224.65L131.38 223.85M131.38 223.85L133.75 221.48M133.75 221.48L133.75 238.12"/>
<path d="M283.65 226.88L262.85 226.88"/>
<path d="M260.77 241.45L285.73 241.45"/>
<path d="M260.77 228.97L260.77 241.45"/>
<path d="M285.73 241.45L285.73 228.97"/>
<path d="M255.77 117.45L249.12 124.11"/>
<path d="M255.77 104.13L249.12 110.79"/>
<path d="M262.43 84.16L256.52 86.94M256.52 86.94L251.9 91.56M251.9 91.56L249.12 97.47"/>
<path d="M249.12 130.76L249.12 97.47"/>
<path d="M202.51 84.16L202.51 129.72"/>
<path d="M215.83 84.16L215.83 144.08"/>
<path d="M229.14 89.98L229.14 154.07"/>
<path d="M229.14 154.07L215.83 144.08"/>
<path d="M249.12 104.13L229.14 104.13"/>
<path d="M319.85 86.45L275.75 86.45"/>
<path d="M275.75 87.49L262.43 84.16"/>
<path d="M275.75 117.45L275.75 86.45"/>
<path d="M319.85 117.45L319.85 86.45"/>
<path d="M419.72 242.7L419.72 260.59"/>
<path d="M373.12 267.25L373.12 200.67"/>
<path d="M366.46 267.25L366.46 200.67"/>
<path d="M353.14 261.42L353.14 206.5"/>
<path d="M393.09 263.92L406.41 277.23"/>
<path d="M416.39 263.92L393.09 263.92"/>
<path d="M346.49 327.17L358.92 326.68M358.92 326.68L370.89 323.28M370.89 323.28L381.72 317.15M381.72 317.15L390.8 308.65M390.8 308.65L397.62 298.24M397.62 298.24L401.79 286.51M401.79 286.51L403.08 274.14"/>
<path d="M346.49 313.85L358.93 311.92M358.93 311.92L370.43 306.8M370.43 306.8L380.19 298.84M380.19 298.84L387.53 288.61M387.53 288.61L391.93 276.81M391.93 276.81L393.09 264.27"/>
<path d="M346.49 293.88L355.55 290.09M355.55 290.09L363.34 284.1M363.34 284.1L369.33 276.31M369.33 276.31L373.12 267.25"/>
<path d="M346.49 287.22L353.89 285.3M353.89 285.3L360.17 280.93M360.17 280.93L364.54 274.65M364.54 274.65L366.46 267.25"/>
<path d="M416.39 263.92L416.39 277.23"/>
<path d="M419.72 260.59L416.39 263.92"/>
<path d="M416.39 277.23L406.41 277.23"/>
<path d="M393.09 204L391.02 189.51M391.02 189.51L385.67 175.89M385.67 175.89L377.33 163.86M377.33 163.86L366.46 154.07"/>
<path d="M406.41 190.68L400.49 172.57M400.49 172.57L391.52 155.75M391.52 155.75L379.77 140.75"/>
<path d="M393.09 239.37L406.41 226.05"/>
<path d="M393.09 239.37L416.39 239.37"/>
<path d="M393.09 239.37L393.09 204"/>
<path d="M373.12 200.67L369.33 191.61M369.33 191.61L363.34 183.82M363.34 183.82L355.55 177.83M355.55 177.83L346.49 174.04"/>
<path d="M366.46 200.67L364.54 193.27M364.54 193.27L360.17 186.99M360.17 186.99L353.89 182.62M353.89 182.62L346.49 180.7"/>
<path d="M406.41 226.05L406.41 190.68"/>
<path d="M416.39 226.05L416.39 239.37"/>
<path d="M416.39 239.37L419.72 242.7"/>
<path d="M406.41 226.05L416.39 226.05"/>
<path d="M346.49 130.76L346.49 97.47"/>
<path d="M379.77 144.08L379.77 84.16"/>
<path d="M366.46 154.07L366.46 89.98"/>
<path d="M346.49 124.11L339.83 117.45"/>
<path d="M366.46 154.07L379.77 144.08"/>
<path d="M366.46 104.13L346.49 104.13"/>
<path d="M346.49 110.79L339.83 104.13"/>
<path d="M346.49 97.47L343.71 91.56M343.71 91.56L339.08 86.94M339.08 86.94L333.17 84.16"/>
<path d="M360.63 50.87L235.8 50.87"/>
<path d="M359.8 64.19L235.8 64.19"/>
<path d="M198.35 350.47L201.75 357.35M201.75 357.35L207.17 362.79M207.17 362.79L214.03 366.22M214.03 366.22L221.63 367.29"/>
<path d="M198.35 350.47L182.77 317.86"/>
<path d="M353.14 206.5L351.47 200.25M351.47 200.25L346.9 195.68M346.9 195.68L340.66 194.01"/>
<path d="M254.94 194.01L248.7 195.68M248.7 195.68L244.13 200.25M244.13 200.25L242.46 206.5"/>
<path d="M242.46 261.42L244.13 267.66M244.13 267.66L248.7 272.23M248.7 272.23L254.94 273.91"/>
<path d="M340.66 273.91L346.9 272.23M346.9 272.23L351.47 267.66M351.47 267.66L353.14 261.42"/>
<path d="M366.46 89.98L364.79 83.74M364.79 83.74L360.22 79.17M360.22 79.17L353.98 77.5"/>
<path d="M241.63 77.5L235.38 79.17M235.38 79.17L230.81 83.74M230.81 83.74L229.14 89.98"/>
<path d="M252.44 220.64L252.44 249.77"/>
<path d="M294.06 220.64L252.44 220.64"/>
<path d="M294.06 249.77L294.06 220.64"/>
<path d="M252.44 249.77L294.06 249.77"/>
<path d="M260.77 228.97L252.44 220.64"/>
<path d="M260.77 241.45L252.44 249.77"/>
<path d="M285.73 241.45L294.06 249.77"/>
<path d="M294.06 220.64L285.73 228.97"/>
<path d="M262.85 231.05L262.85 204"/>
<path d="M262.85 216.48L283.65 216.48"/>
<path d="M283.65 204L283.65 231.05"/>
<path d="M283.65 231.05L285.73 231.05"/>
<path d="M262.85 231.05L260.77 231.05"/>
<path d="M262.85 204L283.65 204"/>
<path d="M343.99 220.64L343.99 249.77"/>
<path d="M302.38 249.77L302.38 220.64"/>
<path d="M335.67 228.97L335.67 241.45"/>
<path d="M310.7 241.45L310.7 228.97"/>
<path d="M343.99 249.77L302.38 249.77"/>
<path d="M335.67 241.45L310.7 241.45"/>
<path d="M335.67 241.45L343.99 249.77"/>
<path d="M310.7 241.45L302.38 249.77"/>
<path d="M333.59 210.24L312.78 210.24"/>
<path d="M312.78 226.88L333.59 226.88"/>
<path d="M333.59 216.48L312.78 216.48"/>
<path d="M302.38 220.64L343.99 220.64"/>
<path d="M335.67 228.97L343.99 220.64"/>
<path d="M333.59 231.05L333.59 210.24"/>
<path d="M333.59 231.05L335.67 231.05"/>
<path d="M302.38 220.64L310.7 228.97"/>
<path d="M312.78 210.24L312.78 231.05"/>
<path d="M312.78 231.05L310.7 231.05"/>
<path d="M262.85 210.24L283.65 210.24"/>
<path d="M294.06 220.64L294.06 204"/>
<path d="M294.06 204L302.38 204"/>
<path d="M302.38 204L302.38 220.64"/>
<path d="M259.88 365.03L336.56 365.03"/>
<path d="M252.43 358.35L255.32 362.62M255.32 362.62L259.88 365.03"/>
<path d="M152.58 278.6L153.46 282.32"/>
<path d="M158.25 291.9L161.07 295.1"/>
<path d="M170.13 301.99L167.74 299.55"/>
<path d="M184.78 158.1L197.5 143.26"/>
<path d="M197.5 143.26L201.22 136.94M201.22 136.94L202.51 129.72"/>
<path d="M179.57 162.48L184.78 158.1"/>
<path d="M162.8 172.37L157.36 177.02M157.36 177.02L153.81 183.24M153.81 183.24L152.58 190.29"/>
<path d="M411.65 158.1L398.93 143.26"/>
<path d="M411.65 158.1L416.87 162.48"/>
<path d="M393.92 129.72L395.21 136.94M395.21 136.94L398.93 143.26"/>
<path d="M443.86 190.29L442.62 183.24M442.62 183.24L439.07 177.02M439.07 177.02L433.63 172.37"/>
<path d="M433.63 172.37L416.87 162.48"/>
<path d="M443.86 190.29L443.86 278.6"/>
<path d="M393.92 84.16L390.08 72.22M390.08 72.22L382.72 62.07M382.72 62.07L372.57 54.71M372.57 54.71L360.63 50.87"/>
<path d="M393.92 84.16L393.92 129.72"/>
<path d="M435.36 295.1L428.7 299.55"/>
<path d="M442.98 282.32L438.19 291.9"/>
<path d="M435.36 295.1L438.19 291.9"/>
<path d="M442.98 282.32L443.86 278.6"/>
<path d="M428.7 299.55L426.3 301.99"/>
<path d="M398.08 350.47L413.66 317.86"/>
<path d="M350.74 346.95L368.7 343.97M368.7 343.97L385.8 337.71M385.8 337.71L401.45 328.4M401.45 328.4L415.11 316.35M415.11 316.35L426.3 301.99"/>
<path d="M375.08 367.29L382.6 366.15M382.6 366.15L389.38 362.7M389.38 362.7L394.72 357.29M394.72 357.29L398.08 350.47"/>
<path d="M344 358.35L350.74 346.95"/>
<path d="M336.56 365.03L341.11 362.62M341.11 362.62L344 358.35"/>
<path d="M189.2 203.17L189.2 200.67"/>
<path d="M202.51 216.48L202.51 200.67"/>
</g>
</g>
</svg>
