<?xml version="1.0" standalone="no"?><svg xmlns="http://www.w3.org/2000/svg" width="600.000" height="450.000" viewBox="0.0 0.0 600.000 450.000" version="1.1">
<title>Acme Converter - Post-processed with EDS-Designer: 14.44 (info@symca.com)</title>
<desc>Acme Converter - Post-processed with EDS-Designer: 14.44 (info@symca.com)</desc>
<g id="EDS_STYLE_GROUP" fill="none" stroke="black" stroke-width="1.0">
<g id="0" display="visible">
<path d="M294.84 297.42L324.92 297.42"/>
<path d="M284.81 297.42L284.81 252.29"/>
<path d="M294.84 242.27L324.92 242.27"/>
<path d="M334.95 252.29L334.95 262.32"/>
<path d="M334.95 262.32L339.96 262.32"/>
<path d="M339.96 262.32L339.96 277.37"/>
<path d="M339.96 277.37L324.92 277.37"/>
<path d="M324.92 277.37L324.92 282.38"/>
<path d="M324.92 282.38L339.96 282.38"/>
<path d="M339.96 282.38L339.96 297.42"/>
<path d="M339.96 297.42L324.92 297.42"/>
<path d="M294.84 297.42L284.81 297.42"/>
<path d="M294.84 242.27L289.82 243.61M289.82 243.61L286.15 247.28M286.15 247.28L284.81 252.29"/>
<path d="M334.95 252.29L333.61 247.28M333.61 247.28L329.94 243.61M329.94 243.61L324.92 242.27"/>
<path d="M299.85 297.42L299.85 267.34"/>
<path d="M299.85 267.34L294.84 267.34"/>
<path d="M294.84 267.34L294.84 257.31"/>
<path d="M294.84 257.31L299.85 257.31"/>
<path d="M299.85 257.31L299.85 247.28"/>
<path d="M299.85 247.28L309.88 247.28"/>
<path d="M309.88 247.28L309.88 257.31"/>
<path d="M309.88 257.31L314.89 257.31"/>
<path d="M314.89 257.31L314.89 267.34"/>
<path d="M314.89 267.34L334.95 267.34"/>
<path d="M334.95 267.34L334.95 262.32"/>
<path d="M299.85 297.42L299.85 302.44"/>
<path d="M299.85 302.44L319.91 302.44"/>
<path d="M319.91 302.44L319.91 297.42"/>
<path d="M229.65 297.42L229.65 252.29"/>
<path d="M239.68 242.27L269.76 242.27"/>
<path d="M279.79 252.29L279.79 297.42"/>
<path d="M249.71 247.28L259.74 247.28"/>
<path d="M259.74 247.28L259.74 257.31"/>
<path d="M259.74 257.31L264.75 257.31"/>
<path d="M264.75 257.31L264.75 267.34"/>
<path d="M264.75 267.34L269.76 267.34"/>
<path d="M269.76 267.34L269.76 297.42"/>
<path d="M249.71 247.28L249.71 257.31"/>
<path d="M249.71 257.31L244.69 257.31"/>
<path d="M244.69 257.31L244.69 297.42"/>
<path d="M244.69 297.42L229.65 297.42"/>
<path d="M264.75 297.42L279.79 297.42"/>
<path d="M244.69 297.42L244.69 302.44"/>
<path d="M244.69 302.44L264.75 302.44"/>
<path d="M264.75 302.44L264.75 297.42"/>
<path d="M239.68 242.27L234.66 243.61M234.66 243.61L230.99 247.28M230.99 247.28L229.65 252.29"/>
<path d="M279.79 252.29L278.45 247.28M278.45 247.28L274.78 243.61M274.78 243.61L269.76 242.27"/>
<path d="M244.69 297.42L264.75 297.42"/>
<path d="M344.98 297.42L344.98 252.29"/>
<path d="M355.01 242.27L385.09 242.27"/>
<path d="M395.12 252.29L395.12 297.42"/>
<path d="M365.03 247.28L375.06 247.28"/>
<path d="M375.06 247.28L375.06 257.31"/>
<path d="M375.06 257.31L380.08 257.31"/>
<path d="M380.08 257.31L380.08 267.34"/>
<path d="M380.08 267.34L385.09 267.34"/>
<path d="M385.09 267.34L385.09 297.42"/>
<path d="M365.03 247.28L365.03 257.31"/>
<path d="M365.03 257.31L360.02 257.31"/>
<path d="M360.02 257.31L360.02 297.42"/>
<path d="M360.02 297.42L344.98 297.42"/>
<path d="M380.08 297.42L395.12 297.42"/>
<path d="M355.01 242.27L349.99 243.61M349.99 243.61L346.32 247.28M346.32 247.28L344.98 252.29"/>
<path d="M395.12 252.29L393.78 247.28M393.78 247.28L390.11 243.61M390.11 243.61L385.09 242.27"/>
<path d="M360.02 297.42L380.08 297.42"/>
<path d="M390.11 297.42L390.11 302.44"/>
<path d="M390.11 302.44L360.02 302.44"/>
<path d="M360.02 302.44L360.02 297.42"/>
<path d="M169.48 297.42L169.48 252.29"/>
<path d="M179.51 242.27L209.59 242.27"/>
<path d="M219.62 252.29L219.62 262.32"/>
<path d="M219.62 262.32L224.64 262.32"/>
<path d="M224.64 262.32L224.64 277.37"/>
<path d="M224.64 277.37L209.59 277.37"/>
<path d="M209.59 277.37L209.59 282.38"/>
<path d="M209.59 282.38L224.64 282.38"/>
<path d="M224.64 282.38L224.64 297.42"/>
<path d="M224.64 297.42L209.59 297.42"/>
<path d="M179.51 297.42L169.48 297.42"/>
<path d="M179.51 297.42L209.59 297.42"/>
<path d="M179.51 242.27L174.49 243.61M174.49 243.61L170.82 247.28M170.82 247.28L169.48 252.29"/>
<path d="M219.62 252.29L218.28 247.28M218.28 247.28L214.61 243.61M214.61 243.61L209.59 242.27"/>
<path d="M184.52 297.42L184.52 267.34"/>
<path d="M184.52 267.34L179.51 267.34"/>
<path d="M179.51 267.34L179.51 257.31"/>
<path d="M179.51 257.31L184.52 257.31"/>
<path d="M184.52 257.31L184.52 247.28"/>
<path d="M184.52 247.28L194.55 247.28"/>
<path d="M194.55 247.28L194.55 257.31"/>
<path d="M194.55 257.31L199.56 257.31"/>
<path d="M199.56 257.31L199.56 267.34"/>
<path d="M199.56 267.34L219.62 267.34"/>
<path d="M219.62 267.34L219.62 262.32"/>
<path d="M174.49 297.42L174.49 302.44"/>
<path d="M174.49 302.44L204.58 302.44"/>
<path d="M204.58 302.44L204.58 297.42"/>
<path d="M294.84 227.22L324.92 227.22"/>
<path d="M284.81 227.22L284.81 182.09"/>
<path d="M294.84 172.07L324.92 172.07"/>
<path d="M334.95 182.09L334.95 192.12"/>
<path d="M334.95 192.12L339.96 192.12"/>
<path d="M339.96 192.12L339.96 207.17"/>
<path d="M339.96 207.17L324.92 207.17"/>
<path d="M324.92 207.17L324.92 212.18"/>
<path d="M324.92 212.18L339.96 212.18"/>
<path d="M339.96 212.18L339.96 227.22"/>
<path d="M339.96 227.22L324.92 227.22"/>
<path d="M294.84 227.22L284.81 227.22"/>
<path d="M294.84 172.07L289.82 173.41M289.82 173.41L286.15 177.08M286.15 177.08L284.81 182.09"/>
<path d="M334.95 182.09L333.61 177.08M333.61 177.08L329.94 173.41M329.94 173.41L324.92 172.07"/>
<path d="M299.85 227.22L299.85 197.14"/>
<path d="M299.85 197.14L294.84 197.14"/>
<path d="M294.84 197.14L294.84 187.11"/>
<path d="M294.84 187.11L299.85 187.11"/>
<path d="M299.85 187.11L299.85 177.08"/>
<path d="M299.85 177.08L309.88 177.08"/>
<path d="M309.88 177.08L309.88 187.11"/>
<path d="M309.88 187.11L314.89 187.11"/>
<path d="M314.89 187.11L314.89 197.14"/>
<path d="M314.89 197.14L334.95 197.14"/>
<path d="M334.95 197.14L334.95 192.12"/>
<path d="M299.85 227.22L299.85 232.24"/>
<path d="M299.85 232.24L319.91 232.24"/>
<path d="M319.91 232.24L319.91 227.22"/>
<path d="M229.65 227.22L229.65 182.09"/>
<path d="M239.68 172.07L269.76 172.07"/>
<path d="M279.79 182.09L279.79 227.22"/>
<path d="M249.71 177.08L259.74 177.08"/>
<path d="M259.74 177.08L259.74 187.11"/>
<path d="M259.74 187.11L264.75 187.11"/>
<path d="M264.75 187.11L264.75 197.14"/>
<path d="M264.75 197.14L269.76 197.14"/>
<path d="M269.76 197.14L269.76 227.22"/>
<path d="M249.71 177.08L249.71 187.11"/>
<path d="M249.71 187.11L244.69 187.11"/>
<path d="M244.69 187.11L244.69 227.22"/>
<path d="M244.69 227.22L229.65 227.22"/>
<path d="M264.75 227.22L279.79 227.22"/>
<path d="M244.69 227.22L244.69 232.24"/>
<path d="M244.69 232.24L264.75 232.24"/>
<path d="M264.75 232.24L264.75 227.22"/>
<path d="M239.68 172.07L234.66 173.41M234.66 173.41L230.99 177.08M230.99 177.08L229.65 182.09"/>
<path d="M279.79 182.09L278.45 177.08M278.45 177.08L274.78 173.41M274.78 173.41L269.76 172.07"/>
<path d="M244.69 227.22L264.75 227.22"/>
<path d="M344.98 227.22L344.98 182.09"/>
<path d="M355.01 172.07L385.09 172.07"/>
<path d="M395.12 182.09L395.12 227.22"/>
<path d="M365.03 177.08L375.06 177.08"/>
<path d="M375.06 177.08L375.06 187.11"/>
<path d="M375.06 187.11L380.08 187.11"/>
<path d="M380.08 187.11L380.08 197.14"/>
<path d="M380.08 197.14L385.09 197.14"/>
<path d="M385.09 197.14L385.09 227.22"/>
<path d="M365.03 177.08L365.03 187.11"/>
<path d="M365.03 187.11L360.02 187.11"/>
<path d="M360.02 187.11L360.02 227.22"/>
<path d="M360.02 227.22L344.98 227.22"/>
<path d="M380.08 227.22L395.12 227.22"/>
<path d="M355.01 172.07L349.99 173.41M349.99 173.41L346.32 177.08M346.32 177.08L344.98 182.09"/>
<path d="M395.12 182.09L393.78 177.08M393.78 177.08L390.11 173.41M390.11 173.41L385.09 172.07"/>
<path d="M360.02 227.22L380.08 227.22"/>
<path d="M390.11 227.22L390.11 232.24"/>
<path d="M390.11 232.24L360.02 232.24"/>
<path d="M360.02 232.24L360.02 227.22"/>
<path d="M169.48 227.22L169.48 182.09"/>
<path d="M179.51 172.07L209.59 172.07"/>
<path d="M219.62 182.09L219.62 192.12"/>
<path d="M219.62 192.12L224.64 192.12"/>
<path d="M224.64 192.12L224.64 207.17"/>
<path d="M224.64 207.17L209.59 207.17"/>
<path d="M209.59 207.17L209.59 212.18"/>
<path d="M209.59 212.18L224.64 212.18"/>
<path d="M224.64 212.18L224.64 227.22"/>
<path d="M224.64 227.22L209.59 227.22"/>
<path d="M179.51 227.22L169.48 227.22"/>
<path d="M179.51 227.22L209.59 227.22"/>
<path d="M179.51 172.07L174.49 173.41M174.49 173.41L170.82 177.08M170.82 177.08L169.48 182.09"/>
<path d="M219.62 182.09L218.28 177.08M218.28 177.08L214.61 173.41M214.61 173.41L209.59 172.07"/>
<path d="M184.52 227.22L184.52 197.14"/>
<path d="M184.52 197.14L179.51 197.14"/>
<path d="M179.51 197.14L179.51 187.11"/>
<path d="M179.51 187.11L184.52 187.11"/>
<path d="M184.52 187.11L184.52 177.08"/>
<path d="M184.52 177.08L194.55 177.08"/>
<path d="M194.55 177.08L194.55 187.11"/>
<path d="M194.55 187.11L199.56 187.11"/>
<path d="M199.56 187.11L199.56 197.14"/>
<path d="M199.56 197.14L219.62 197.14"/>
<path d="M219.62 197.14L219.62 192.12"/>
<path d="M174.49 227.22L174.49 232.24"/>
<path d="M174.49 232.24L204.58 232.24"/>
<path d="M204.58 232.24L204.58 227.22"/>
<path d="M189.54 162.04L180.24 163.51M180.24 163.51L171.85 167.78M171.85 167.78L165.2 174.44M165.2 174.44L160.92 182.83M160.92 182.83L159.45 192.12"/>
<path d="M405.15 192.12L403.68 182.83M403.68 182.83L399.4 174.44M399.4 174.44L392.75 167.78M392.75 167.78L384.36 163.51M384.36 163.51L375.06 162.04"/>
<path d="M375.06 162.04L338.27 155.23M338.27 155.23L301.01 151.81M301.01 151.81L263.59 151.81M263.59 151.81L226.33 155.23M226.33 155.23L189.54 162.04"/>
<path d="M179.51 141.98L170.21 143.45M170.21 143.45L161.82 147.73M161.82 147.73L155.17 154.38M155.17 154.38L150.89 162.77M150.89 162.77L149.42 172.07"/>
<path d="M415.18 172.07L413.71 162.77M413.71 162.77L409.43 154.38M409.43 154.38L402.78 147.73M402.78 147.73L394.39 143.45M394.39 143.45L385.09 141.98"/>
<path d="M199.56 140.23L179.51 141.98"/>
<path d="M159.14 297.81L159.45 302.15"/>
<path d="M189.22 327.9L189.22 317.87"/>
<path d="M369.73 327.9L369.73 317.87"/>
<path d="M189.22 317.87L225.02 324.46M225.02 324.46L261.28 327.77M261.28 327.77L297.68 327.77M297.68 327.77L333.93 324.46M333.93 324.46L369.73 317.87"/>
<path d="M259.42 327.9L259.42 317.87"/>
<path d="M259.42 317.87L304.55 317.87"/>
<path d="M304.55 317.87L304.55 327.9"/>
<path d="M384.78 347.95L393.99 346.51M393.99 346.51L402.32 342.31M402.32 342.31L408.96 335.77M408.96 335.77L413.28 327.51"/>
<path d="M149.11 317.87L149.42 322.21"/>
<path d="M149.42 322.21L152.81 332.33M152.81 332.33L159.51 340.63M159.51 340.63L168.69 346.06M168.69 346.06L179.19 347.95"/>
<path d="M159.45 192.12L159.45 297.42"/>
<path d="M405.15 297.42L405.15 192.12"/>
<path d="M159.45 297.42L160.92 306.72M160.92 306.72L165.2 315.11M165.2 315.11L171.85 321.76M171.85 321.76L180.24 326.04M180.24 326.04L189.54 327.51"/>
<path d="M375.06 327.51L384.36 326.04M384.36 326.04L392.75 321.76M392.75 321.76L399.4 315.11M399.4 315.11L403.68 306.72M403.68 306.72L405.15 297.42"/>
<path d="M179.51 347.56L220.37 354.07M220.37 354.07L261.61 357.34M261.61 357.34L302.99 357.34M302.99 357.34L344.23 354.07M344.23 354.07L385.09 347.56"/>
<path d="M415.18 307.45L440.25 307.45"/>
<path d="M440.25 307.45L440.25 327.51"/>
<path d="M415.18 247.28L430.22 247.28"/>
<path d="M430.22 247.28L430.22 257.31"/>
<path d="M430.22 257.31L415.18 257.31"/>
<path d="M415.18 267.34L430.22 267.34"/>
<path d="M430.22 267.34L430.22 277.37"/>
<path d="M430.22 277.37L415.18 277.37"/>
<path d="M149.42 247.28L134.38 247.28"/>
<path d="M134.38 247.28L134.38 257.31"/>
<path d="M134.38 257.31L149.42 257.31"/>
<path d="M149.42 267.34L134.38 267.34"/>
<path d="M134.38 267.34L134.38 277.37"/>
<path d="M134.38 277.37L149.42 277.37"/>
<path d="M440.25 327.51L413.28 327.51"/>
<path d="M415.18 172.07L415.18 247.28"/>
<path d="M415.18 257.31L415.18 267.34"/>
<path d="M415.18 277.37L415.18 307.45"/>
<path d="M149.42 172.07L149.42 247.28"/>
<path d="M149.42 257.31L149.42 267.34"/>
<path d="M149.42 277.37L149.42 317.48"/>
<path d="M199.56 140.23L199.56 81.81"/>
<path d="M214.61 66.77L339.96 66.77"/>
<path d="M355.01 81.81L355.01 141.98"/>
<path d="M214.61 136.97L214.61 81.81"/>
<path d="M214.61 81.81L339.96 81.81"/>
<path d="M339.96 81.81L339.96 136.97"/>
<path d="M249.71 81.81L249.71 101.87"/>
<path d="M249.71 101.87L304.86 101.87"/>
<path d="M304.86 101.87L304.86 81.81"/>
<path d="M214.61 136.97L339.96 136.97"/>
<path d="M385.09 141.98L355.01 141.98"/>
<path d="M214.61 66.77L208.85 67.91M208.85 67.91L203.97 71.17M203.97 71.17L200.71 76.05M200.71 76.05L199.56 81.81"/>
<path d="M355.01 81.81L353.86 76.05M353.86 76.05L350.6 71.17M350.6 71.17L345.72 67.91M345.72 67.91L339.96 66.77"/>
<path d="M189.54 327.51L226.36 333.92M226.36 333.92L263.61 337.14M263.61 337.14L300.99 337.14M300.99 337.14L338.23 333.92M338.23 333.92L375.06 327.51"/>
<path d="M109.43 201.11L111.34 200.15M111.34 200.15L114.2 197.29M114.2 197.29L114.2 217.34"/>
<path d="M465.2 197.29L455.65 210.66M455.65 210.66L469.98 210.66M465.2 197.29L465.2 217.34"/>
<path d="M116.59 267.49L107.04 267.49M107.04 267.49L106.08 276.08M106.08 276.08L107.04 275.13M107.04 275.13L109.9 274.17M109.9 274.17L112.77 274.17M112.77 274.17L115.63 275.13M115.63 275.13L117.54 277.04M117.54 277.04L118.5 279.9M118.5 279.9L118.5 281.81M118.5 281.81L117.54 284.68M117.54 284.68L115.63 286.59M115.63 286.59L112.77 287.54M112.77 287.54L109.9 287.54M109.9 287.54L107.04 286.59M107.04 286.59L106.08 285.63M106.08 285.63L105.13 283.72"/>
<path d="M460.9 267.49L458.04 268.44M458.04 268.44L457.08 270.35M457.08 270.35L457.08 272.26M457.08 272.26L458.04 274.17M458.04 274.17L459.95 275.13M459.95 275.13L463.77 276.08M463.77 276.08L466.63 277.04M466.63 277.04L468.54 278.95M468.54 278.95L469.5 280.86M469.5 280.86L469.5 283.72M469.5 283.72L468.54 285.63M468.54 285.63L467.59 286.59M467.59 286.59L464.72 287.54M464.72 287.54L460.9 287.54M460.9 287.54L458.04 286.59M458.04 286.59L457.08 285.63M457.08 285.63L456.13 283.72M456.13 283.72L456.13 280.86M456.13 280.86L457.08 278.95M457.08 278.95L458.99 277.04M458.99 277.04L461.86 276.08M461.86 276.08L465.68 275.13M465.68 275.13L467.59 274.17M467.59 274.17L468.54 272.26M468.54 272.26L468.54 270.35M468.54 270.35L467.59 268.44M467.59 268.44L464.72 267.49M464.72 267.49L460.9 267.49"/>
<path d="M175.69 407.89L175.69 382.81M176.88 382.81L176.88 407.89M172.1 382.81L184.04 382.81M184.04 382.81L187.63 384.01M187.63 384.01L190.01 386.4M190.01 386.4L191.21 388.78M191.21 388.78L192.4 392.37M192.4 392.37L192.4 398.34M192.4 398.34L191.21 401.92M191.21 401.92L190.01 404.3M190.01 404.3L187.63 406.69M187.63 406.69L184.04 407.89M184.04 407.89L172.1 407.89M184.04 382.81L186.43 384.01M186.43 384.01L188.82 386.4M188.82 386.4L190.01 388.78M190.01 388.78L191.21 392.37M191.21 392.37L191.21 398.34M191.21 398.34L190.01 401.92M190.01 401.92L188.82 404.3M188.82 404.3L186.43 406.69M186.43 406.69L184.04 407.89M209.12 382.81L200.76 407.89M209.12 382.81L217.47 407.89M209.12 386.4L216.28 407.89M203.15 400.72L213.89 400.72M198.37 407.89L205.53 407.89M212.7 407.89L219.86 407.89M227.02 407.89L227.02 382.81M228.22 382.81L228.22 407.89M223.44 382.81L237.77 382.81M237.77 382.81L241.35 384.01M241.35 384.01L242.54 385.2M242.54 385.2L243.74 387.59M243.74 387.59L243.74 389.98M243.74 389.98L242.54 392.37M242.54 392.37L241.35 393.56M241.35 393.56L237.77 394.75M237.77 394.75L228.22 394.75M237.77 382.81L240.16 384.01M240.16 384.01L241.35 385.2M241.35 385.2L242.54 387.59M242.54 387.59L242.54 389.98M242.54 389.98L241.35 392.37M241.35 392.37L240.16 393.56M240.16 393.56L237.77 394.75M223.44 407.89L231.8 407.89M234.19 394.75L236.57 395.95M236.57 395.95L237.77 397.14M237.77 397.14L241.35 405.5M241.35 405.5L242.54 406.69M242.54 406.69L243.74 406.69M243.74 406.69L244.93 405.5M236.57 395.95L237.77 398.34M237.77 398.34L240.16 406.69M240.16 406.69L241.35 407.89M241.35 407.89L243.74 407.89M243.74 407.89L244.93 405.5M244.93 405.5L244.93 404.3M253.29 407.89L253.29 382.81M254.48 382.81L254.48 407.89M270 382.81L254.48 398.34M260.45 393.56L270 407.89M259.26 393.56L268.81 407.89M249.71 382.81L258.06 382.81M265.23 382.81L272.39 382.81M249.71 407.89L258.06 407.89M265.23 407.89L272.39 407.89M317.76 386.4L318.95 389.98M318.95 389.98L318.95 382.81M318.95 382.81L317.76 386.4M317.76 386.4L315.37 384.01M315.37 384.01L311.79 382.81M311.79 382.81L309.4 382.81M309.4 382.81L305.82 384.01M305.82 384.01L303.43 386.4M303.43 386.4L302.24 388.78M302.24 388.78L301.04 392.37M301.04 392.37L301.04 398.34M301.04 398.34L302.24 401.92M302.24 401.92L303.43 404.3M303.43 404.3L305.82 406.69M305.82 406.69L309.4 407.89M309.4 407.89L311.79 407.89M311.79 407.89L315.37 406.69M315.37 406.69L317.76 404.3M309.4 382.81L307.01 384.01M307.01 384.01L304.62 386.4M304.62 386.4L303.43 388.78M303.43 388.78L302.24 392.37M302.24 392.37L302.24 398.34M302.24 398.34L303.43 401.92M303.43 401.92L304.62 404.3M304.62 404.3L307.01 406.69M307.01 406.69L309.4 407.89M317.76 398.34L317.76 407.89M318.95 398.34L318.95 407.89M314.18 398.34L322.53 398.34M332.08 407.89L332.08 382.81M333.28 382.81L333.28 407.89M328.5 382.81L342.83 382.81M342.83 382.81L346.41 384.01M346.41 384.01L347.6 385.2M347.6 385.2L348.8 387.59M348.8 387.59L348.8 389.98M348.8 389.98L347.6 392.37M347.6 392.37L346.41 393.56M346.41 393.56L342.83 394.75M342.83 394.75L333.28 394.75M342.83 382.81L345.22 384.01M345.22 384.01L346.41 385.2M346.41 385.2L347.6 387.59M347.6 387.59L347.6 389.98M347.6 389.98L346.41 392.37M346.41 392.37L345.22 393.56M345.22 393.56L342.83 394.75M328.5 407.89L336.86 407.89M339.25 394.75L341.64 395.95M341.64 395.95L342.83 397.14M342.83 397.14L346.41 405.5M346.41 405.5L347.6 406.69M347.6 406.69L348.8 406.69M348.8 406.69L349.99 405.5M341.64 395.95L342.83 398.34M342.83 398.34L345.22 406.69M345.22 406.69L346.41 407.89M346.41 407.89L348.8 407.89M348.8 407.89L349.99 405.5M349.99 405.5L349.99 404.3M358.35 407.89L358.35 382.81M359.54 382.81L359.54 407.89M366.71 389.98L366.71 399.53M354.77 382.81L373.87 382.81M373.87 382.81L373.87 389.98M373.87 389.98L372.68 382.81M359.54 394.75L366.71 394.75M354.77 407.89L373.87 407.89M373.87 407.89L373.87 400.72M373.87 400.72L372.68 407.89M382.23 382.81L390.58 395.95M390.58 395.95L390.58 407.89M383.42 382.81L391.78 395.95M391.78 395.95L391.78 407.89M400.13 382.81L391.78 395.95M379.84 382.81L387 382.81M395.36 382.81L402.52 382.81M387 407.89L395.36 407.89"/>
</g>
</g>
</svg>
