<?xml version="1.0" standalone="no"?><svg xmlns="http://www.w3.org/2000/svg" width="600.000" height="450.000" viewBox="0.0 0.0 600.000 450.000" version="1.1">
<title>Acme Converter - Post-processed with EDS-Designer: 14.44 (info@symca.com)</title>
<desc>Acme Converter - Post-processed with EDS-Designer: 14.44 (info@symca.com)</desc>
<g id="EDS_STYLE_GROUP" fill="none" stroke="black" stroke-width="1.0">
<g id="0" display="visible">
<path d="M277.33 193.12L292.61 193.12"/>
<path d="M292.61 193.12L292.61 185.48"/>
<path d="M292.61 185.48L296.43 185.48"/>
<path d="M296.43 185.48L296.43 147.28"/>
<path d="M262.05 162.56L277.33 162.56"/>
<path d="M277.33 162.56L277.33 193.12"/>
<path d="M277.33 147.28L277.33 154.92"/>
<path d="M277.33 154.92L269.69 154.92"/>
<path d="M269.69 154.92L269.69 162.56"/>
<path d="M265.87 151.1L265.87 162.56"/>
<path d="M265.87 151.1L269.69 154.92"/>
<path d="M284.97 147.28L284.97 154.92"/>
<path d="M284.97 154.92L288.79 154.92"/>
<path d="M288.79 154.92L288.79 162.56"/>
<path d="M288.79 162.56L284.97 162.56"/>
<path d="M284.97 162.56L284.97 181.66"/>
<path d="M284.97 181.66L296.43 181.66"/>
<path d="M284.97 151.1L292.61 151.1"/>
<path d="M292.61 151.1L292.61 166.38"/>
<path d="M292.61 166.38L284.97 166.38"/>
<path d="M288.79 154.92L292.61 151.1"/>
<path d="M288.79 162.56L292.61 166.38"/>
<path d="M296.43 147.28L262.05 147.28"/>
<path d="M262.05 147.28L262.05 162.56"/>
<path d="M265.87 151.1L277.33 151.1"/>
<path d="M323.17 193.12L338.44 193.12"/>
<path d="M338.44 193.12L338.44 185.48"/>
<path d="M338.44 185.48L342.26 185.48"/>
<path d="M342.26 185.48L342.26 147.28"/>
<path d="M307.89 162.56L323.17 162.56"/>
<path d="M323.17 162.56L323.17 193.12"/>
<path d="M323.17 147.28L323.17 154.92"/>
<path d="M323.17 154.92L315.53 154.92"/>
<path d="M315.53 154.92L315.53 162.56"/>
<path d="M311.71 151.1L311.71 162.56"/>
<path d="M311.71 151.1L315.53 154.92"/>
<path d="M330.8 147.28L330.8 154.92"/>
<path d="M330.8 154.92L334.62 154.92"/>
<path d="M334.62 154.92L334.62 162.56"/>
<path d="M334.62 162.56L330.8 162.56"/>
<path d="M330.8 162.56L330.8 181.66"/>
<path d="M330.8 181.66L342.26 181.66"/>
<path d="M330.8 151.1L338.44 151.1"/>
<path d="M338.44 151.1L338.44 166.38"/>
<path d="M338.44 166.38L330.8 166.38"/>
<path d="M334.62 154.92L338.44 151.1"/>
<path d="M334.62 162.56L338.44 166.38"/>
<path d="M342.26 147.28L307.89 147.28"/>
<path d="M307.89 147.28L307.89 162.56"/>
<path d="M311.71 151.1L323.17 151.1"/>
<path d="M231.49 254.23L246.77 254.23"/>
<path d="M246.77 254.23L246.77 246.59"/>
<path d="M246.77 246.59L250.59 246.59"/>
<path d="M250.59 246.59L250.59 208.39"/>
<path d="M216.21 223.67L231.49 223.67"/>
<path d="M231.49 223.67L231.49 254.23"/>
<path d="M231.49 208.39L231.49 216.03"/>
<path d="M231.49 216.03L223.85 216.03"/>
<path d="M223.85 216.03L223.85 223.67"/>
<path d="M220.03 212.21L220.03 223.67"/>
<path d="M220.03 212.21L223.85 216.03"/>
<path d="M239.13 208.39L239.13 216.03"/>
<path d="M239.13 216.03L242.95 216.03"/>
<path d="M242.95 216.03L242.95 223.67"/>
<path d="M242.95 223.67L239.13 223.67"/>
<path d="M239.13 223.67L239.13 242.77"/>
<path d="M239.13 242.77L250.59 242.77"/>
<path d="M239.13 212.21L246.77 212.21"/>
<path d="M246.77 212.21L246.77 227.49"/>
<path d="M246.77 227.49L239.13 227.49"/>
<path d="M242.95 216.03L246.77 212.21"/>
<path d="M242.95 223.67L246.77 227.49"/>
<path d="M250.59 208.39L216.21 208.39"/>
<path d="M216.21 208.39L216.21 223.67"/>
<path d="M220.03 212.21L231.49 212.21"/>
<path d="M277.33 254.23L292.61 254.23"/>
<path d="M292.61 254.23L292.61 246.59"/>
<path d="M292.61 246.59L296.43 246.59"/>
<path d="M262.05 223.67L277.33 223.67"/>
<path d="M277.33 223.67L277.33 254.23"/>
<path d="M277.33 208.39L277.33 216.03"/>
<path d="M277.33 216.03L269.69 216.03"/>
<path d="M269.69 216.03L269.69 223.67"/>
<path d="M265.87 212.21L265.87 223.67"/>
<path d="M265.87 212.21L269.69 216.03"/>
<path d="M284.97 208.39L284.97 216.03"/>
<path d="M284.97 216.03L288.79 216.03"/>
<path d="M288.79 216.03L288.79 223.67"/>
<path d="M288.79 223.67L284.97 223.67"/>
<path d="M284.97 223.67L284.97 242.77"/>
<path d="M284.97 242.77L296.43 242.77"/>
<path d="M284.97 212.21L292.61 212.21"/>
<path d="M292.61 212.21L292.61 227.49"/>
<path d="M292.61 227.49L284.97 227.49"/>
<path d="M288.79 216.03L292.61 212.21"/>
<path d="M288.79 223.67L292.61 227.49"/>
<path d="M296.43 208.39L262.05 208.39"/>
<path d="M262.05 208.39L262.05 223.67"/>
<path d="M265.87 212.21L277.33 212.21"/>
<path d="M323.17 254.23L338.44 254.23"/>
<path d="M338.44 254.23L338.44 246.59"/>
<path d="M338.44 246.59L342.26 246.59"/>
<path d="M342.26 246.59L342.26 208.39"/>
<path d="M323.17 208.39L323.17 216.03"/>
<path d="M323.17 216.03L315.53 216.03"/>
<path d="M315.53 216.03L315.53 223.67"/>
<path d="M311.71 212.21L311.71 223.67"/>
<path d="M311.71 212.21L315.53 216.03"/>
<path d="M330.8 208.39L330.8 216.03"/>
<path d="M330.8 216.03L334.62 216.03"/>
<path d="M334.62 216.03L334.62 223.67"/>
<path d="M334.62 223.67L330.8 223.67"/>
<path d="M330.8 223.67L330.8 242.77"/>
<path d="M330.8 242.77L342.26 242.77"/>
<path d="M330.8 212.21L338.44 212.21"/>
<path d="M338.44 212.21L338.44 227.49"/>
<path d="M338.44 227.49L330.8 227.49"/>
<path d="M334.62 216.03L338.44 212.21"/>
<path d="M334.62 223.67L338.44 227.49"/>
<path d="M342.26 208.39L307.89 208.39"/>
<path d="M307.89 208.39L307.89 223.67"/>
<path d="M311.71 212.21L323.17 212.21"/>
<path d="M296.43 208.39L296.43 223.67"/>
<path d="M296.43 223.67L307.89 223.67"/>
<path d="M296.43 246.59L296.43 261.87"/>
<path d="M296.43 261.87L323.17 261.87"/>
<path d="M323.17 261.87L323.17 254.23"/>
<path d="M307.89 223.67L315.53 223.67"/>
<path d="M296.43 242.77L296.43 223.67"/>
<path d="M304.07 258.05L304.07 231.31"/>
<path d="M304.07 231.31L319.35 231.31"/>
<path d="M319.35 231.31L319.35 242.77"/>
<path d="M319.35 242.77L311.71 242.77"/>
<path d="M311.71 242.77L311.71 258.05"/>
<path d="M304.07 258.05L311.71 258.05"/>
<path d="M369 254.23L384.28 254.23"/>
<path d="M384.28 254.23L384.28 246.59"/>
<path d="M384.28 246.59L388.1 246.59"/>
<path d="M388.1 246.59L388.1 208.39"/>
<path d="M353.72 223.67L369 223.67"/>
<path d="M369 223.67L369 254.23"/>
<path d="M369 208.39L369 216.03"/>
<path d="M369 216.03L361.36 216.03"/>
<path d="M361.36 216.03L361.36 223.67"/>
<path d="M357.54 212.21L357.54 223.67"/>
<path d="M357.54 212.21L361.36 216.03"/>
<path d="M376.64 208.39L376.64 216.03"/>
<path d="M376.64 216.03L380.46 216.03"/>
<path d="M380.46 216.03L380.46 223.67"/>
<path d="M380.46 223.67L376.64 223.67"/>
<path d="M376.64 223.67L376.64 242.77"/>
<path d="M376.64 242.77L388.1 242.77"/>
<path d="M376.64 212.21L384.28 212.21"/>
<path d="M384.28 212.21L384.28 227.49"/>
<path d="M384.28 227.49L376.64 227.49"/>
<path d="M380.46 216.03L384.28 212.21"/>
<path d="M380.46 223.67L384.28 227.49"/>
<path d="M388.1 208.39L353.72 208.39"/>
<path d="M353.72 208.39L353.72 223.67"/>
<path d="M357.54 212.21L369 212.21"/>
<path d="M246.77 296.25L246.77 284.79"/>
<path d="M246.77 284.79L369 284.79"/>
<path d="M369 284.79L369 296.25"/>
<path d="M346.08 63.24L346.08 116.72"/>
<path d="M292.61 315.35L292.61 330.63"/>
<path d="M292.61 330.63L307.89 330.63"/>
<path d="M307.89 330.63L307.89 315.35"/>
<path d="M307.89 315.35L292.61 315.35"/>
<path d="M323.17 322.99L323.17 330.63"/>
<path d="M323.17 330.63L346.08 330.63"/>
<path d="M346.08 330.63L346.08 322.99"/>
<path d="M346.08 322.99L323.17 322.99"/>
<path d="M277.33 330.63L277.33 322.99"/>
<path d="M277.33 322.99L254.41 322.99"/>
<path d="M254.41 322.99L254.41 330.63"/>
<path d="M254.41 330.63L277.33 330.63"/>
<path d="M186.86 404.48L186.86 379.02M188.07 379.02L188.07 404.48M183.22 379.02L195.35 379.02M195.35 379.02L198.99 380.23M198.99 380.23L201.41 382.66M201.41 382.66L202.63 385.08M202.63 385.08L203.84 388.72M203.84 388.72L203.84 394.78M203.84 394.78L202.63 398.42M202.63 398.42L201.41 400.85M201.41 400.85L198.99 403.27M198.99 403.27L195.35 404.48M195.35 404.48L183.22 404.48M195.35 379.02L197.78 380.23M197.78 380.23L200.2 382.66M200.2 382.66L201.41 385.08M201.41 385.08L202.63 388.72M202.63 388.72L202.63 394.78M202.63 394.78L201.41 398.42M201.41 398.42L200.2 400.85M200.2 400.85L197.78 403.27M197.78 403.27L195.35 404.48M220.82 379.02L212.33 404.48M220.82 379.02L229.3 404.48M220.82 382.66L228.09 404.48M214.75 397.21L225.67 397.21M209.9 404.48L217.18 404.48M224.45 404.48L231.73 404.48M239.01 404.48L239.01 379.02M240.22 379.02L240.22 404.48M235.37 379.02L249.92 379.02M249.92 379.02L253.56 380.23M253.56 380.23L254.77 381.44M254.77 381.44L255.98 383.87M255.98 383.87L255.98 386.29M255.98 386.29L254.77 388.72M254.77 388.72L253.56 389.93M253.56 389.93L249.92 391.14M249.92 391.14L240.22 391.14M249.92 379.02L252.35 380.23M252.35 380.23L253.56 381.44M253.56 381.44L254.77 383.87M254.77 383.87L254.77 386.29M254.77 386.29L253.56 388.72M253.56 388.72L252.35 389.93M252.35 389.93L249.92 391.14M235.37 404.48L243.86 404.48M246.28 391.14L248.71 392.36M248.71 392.36L249.92 393.57M249.92 393.57L253.56 402.06M253.56 402.06L254.77 403.27M254.77 403.27L255.98 403.27M255.98 403.27L257.2 402.06M248.71 392.36L249.92 394.78M249.92 394.78L252.35 403.27M252.35 403.27L253.56 404.48M253.56 404.48L255.98 404.48M255.98 404.48L257.2 402.06M257.2 402.06L257.2 400.85M265.68 404.48L265.68 379.02M266.9 379.02L266.9 404.48M282.66 379.02L266.9 394.78M272.96 389.93L282.66 404.48M271.75 389.93L281.45 404.48M262.05 379.02L270.54 379.02M277.81 379.02L285.09 379.02M262.05 404.48L270.54 404.48M277.81 404.48L285.09 404.48M331.17 382.66L332.38 386.29M332.38 386.29L332.38 379.02M332.38 379.02L331.17 382.66M331.17 382.66L328.74 380.23M328.74 380.23L325.11 379.02M325.11 379.02L322.68 379.02M322.68 379.02L319.04 380.23M319.04 380.23L316.62 382.66M316.62 382.66L315.4 385.08M315.4 385.08L314.19 388.72M314.19 388.72L314.19 394.78M314.19 394.78L315.4 398.42M315.4 398.42L316.62 400.85M316.62 400.85L319.04 403.27M319.04 403.27L322.68 404.48M322.68 404.48L325.11 404.48M325.11 404.48L328.74 403.27M328.74 403.27L331.17 400.85M322.68 379.02L320.25 380.23M320.25 380.23L317.83 382.66M317.83 382.66L316.62 385.08M316.62 385.08L315.4 388.72M315.4 388.72L315.4 394.78M315.4 394.78L316.62 398.42M316.62 398.42L317.83 400.85M317.83 400.85L320.25 403.27M320.25 403.27L322.68 404.48M331.17 394.78L331.17 404.48M332.38 394.78L332.38 404.48M327.53 394.78L336.02 394.78M345.72 404.48L345.72 379.02M346.93 379.02L346.93 404.48M342.08 379.02L356.63 379.02M356.63 379.02L360.27 380.23M360.27 380.23L361.49 381.44M361.49 381.44L362.7 383.87M362.7 383.87L362.7 386.29M362.7 386.29L361.49 388.72M361.49 388.72L360.27 389.93M360.27 389.93L356.63 391.14M356.63 391.14L346.93 391.14M356.63 379.02L359.06 380.23M359.06 380.23L360.27 381.44M360.27 381.44L361.49 383.87M361.49 383.87L361.49 386.29M361.49 386.29L360.27 388.72M360.27 388.72L359.06 389.93M359.06 389.93L356.63 391.14M342.08 404.48L350.57 404.48M353 391.14L355.42 392.36M355.42 392.36L356.63 393.57M356.63 393.57L360.27 402.06M360.27 402.06L361.49 403.27M361.49 403.27L362.7 403.27M362.7 403.27L363.91 402.06M355.42 392.36L356.63 394.78M356.63 394.78L359.06 403.27M359.06 403.27L360.27 404.48M360.27 404.48L362.7 404.48M362.7 404.48L363.91 402.06M363.91 402.06L363.91 400.85M372.4 404.48L372.4 379.02M373.61 379.02L373.61 404.48M380.89 386.29L380.89 395.99M368.76 379.02L388.16 379.02M388.16 379.02L388.16 386.29M388.16 386.29L386.95 379.02M373.61 391.14L380.89 391.14M368.76 404.48L388.16 404.48M388.16 404.48L388.16 397.21M388.16 397.21L386.95 404.48M396.65 379.02L405.14 392.36M405.14 392.36L405.14 404.48M397.87 379.02L406.35 392.36M406.35 392.36L406.35 404.48M414.84 379.02L406.35 392.36M394.23 379.02L401.5 379.02M409.99 379.02L417.27 379.02M401.5 404.48L409.99 404.48"/>
<path d="M369 193.12L384.28 193.12"/>
<path d="M384.28 193.12L384.28 185.48"/>
<path d="M384.28 185.48L388.1 185.48"/>
<path d="M388.1 185.48L388.1 154.92"/>
<path d="M353.72 162.56L369 162.56"/>
<path d="M369 162.56L369 193.12"/>
<path d="M369 147.28L369 154.92"/>
<path d="M369 154.92L361.36 154.92"/>
<path d="M361.36 154.92L361.36 162.56"/>
<path d="M357.54 151.1L357.54 162.56"/>
<path d="M357.54 151.1L361.36 154.92"/>
<path d="M376.64 147.28L376.64 154.92"/>
<path d="M376.64 154.92L380.46 154.92"/>
<path d="M380.46 154.92L380.46 162.56"/>
<path d="M380.46 162.56L376.64 162.56"/>
<path d="M376.64 162.56L376.64 181.66"/>
<path d="M376.64 181.66L388.1 181.66"/>
<path d="M376.64 151.1L384.28 151.1"/>
<path d="M384.28 151.1L384.28 166.38"/>
<path d="M384.28 166.38L376.64 166.38"/>
<path d="M380.46 154.92L384.28 151.1"/>
<path d="M380.46 162.56L384.28 166.38"/>
<path d="M380.46 147.28L353.72 147.28"/>
<path d="M353.72 147.28L353.72 162.56"/>
<path d="M357.54 151.1L369 151.1"/>
<path d="M388.1 154.92L387.08 151.1M387.08 151.1L384.28 148.3M384.28 148.3L380.46 147.28"/>
<path d="M231.49 193.12L246.77 193.12"/>
<path d="M246.77 193.12L246.77 185.48"/>
<path d="M246.77 185.48L250.59 185.48"/>
<path d="M250.59 185.48L250.59 147.28"/>
<path d="M250.59 147.28L223.85 147.28"/>
<path d="M216.21 154.92L216.21 162.56"/>
<path d="M216.21 162.56L231.49 162.56"/>
<path d="M231.49 162.56L231.49 193.12"/>
<path d="M231.49 147.28L231.49 154.92"/>
<path d="M231.49 154.92L223.85 154.92"/>
<path d="M223.85 154.92L223.85 162.56"/>
<path d="M231.49 151.1L220.03 151.1"/>
<path d="M220.03 151.1L220.03 162.56"/>
<path d="M220.03 151.1L223.85 154.92"/>
<path d="M223.85 147.28L220.03 148.3M220.03 148.3L217.23 151.1M217.23 151.1L216.21 154.92"/>
<path d="M239.13 147.28L239.13 154.92"/>
<path d="M239.13 154.92L242.95 154.92"/>
<path d="M242.95 154.92L242.95 162.56"/>
<path d="M242.95 162.56L239.13 162.56"/>
<path d="M239.13 162.56L239.13 181.66"/>
<path d="M239.13 181.66L250.59 181.66"/>
<path d="M239.13 151.1L246.77 151.1"/>
<path d="M246.77 151.1L246.77 166.38"/>
<path d="M246.77 166.38L239.13 166.38"/>
<path d="M242.95 154.92L246.77 151.1"/>
<path d="M242.95 162.56L246.77 166.38"/>
<path d="M212.39 307.71L395.74 307.71"/>
<path d="M227.67 292.43L376.64 292.43"/>
<path d="M227.67 132L376.64 132"/>
<path d="M208.57 116.72L231.49 116.72"/>
<path d="M384.28 116.72L346.08 116.72"/>
<path d="M231.49 116.72L246.77 116.72"/>
<path d="M246.77 116.72L246.77 63.24"/>
<path d="M246.77 63.24L346.08 63.24"/>
<path d="M225.63 132L213.82 133.87M213.82 133.87L203.17 139.29M203.17 139.29L194.72 147.74M194.72 147.74L189.3 158.39M189.3 158.39L187.43 170.2"/>
<path d="M187.43 254.23L189.3 266.04M189.3 266.04L194.72 276.69M194.72 276.69L203.17 285.14M203.17 285.14L213.82 290.56M213.82 290.56L225.63 292.43"/>
<path d="M187.43 170.2L183.92 198.14M183.92 198.14L183.92 226.29M183.92 226.29L187.43 254.23"/>
<path d="M141.59 277.15L141.59 258.05"/>
<path d="M145.41 254.23L168.33 254.23"/>
<path d="M168.33 254.23L168.33 212.21"/>
<path d="M168.33 212.21L160.69 212.21"/>
<path d="M156.87 208.39L156.87 185.48"/>
<path d="M160.69 181.66L168.33 181.66"/>
<path d="M168.33 181.66L168.33 162.56"/>
<path d="M214.17 116.72L202.3 118.28M202.3 118.28L191.25 122.86M191.25 122.86L181.75 130.14M181.75 130.14L174.47 139.64M174.47 139.64L169.89 150.69M169.89 150.69L168.33 162.56"/>
<path d="M145.41 280.97L176.32 280.97"/>
<path d="M141.59 277.15L142.71 279.85M142.71 279.85L145.41 280.97"/>
<path d="M145.41 254.23L142.71 255.35M142.71 255.35L141.59 258.05"/>
<path d="M156.87 208.39L157.99 211.1M157.99 211.1L160.69 212.21"/>
<path d="M160.69 181.66L157.99 182.77M157.99 182.77L156.87 185.48"/>
<path d="M176.32 280.97L183.38 291.93M183.38 291.93L193.23 300.45M193.23 300.45L205.09 305.86M205.09 305.86L217.99 307.71"/>
<path d="M414.76 170.7L412.89 158.89M412.89 158.89L407.47 148.24M407.47 148.24L399.02 139.79M399.02 139.79L388.37 134.37M388.37 134.37L376.56 132.5"/>
<path d="M376.56 292.93L388.37 291.06M388.37 291.06L399.02 285.64M399.02 285.64L407.47 277.19M407.47 277.19L412.89 266.54M412.89 266.54L414.76 254.73"/>
<path d="M414.76 254.73L418.19 226.79M418.19 226.79L418.19 198.64M418.19 198.64L414.76 170.7"/>
<path d="M430.04 163.06L430.04 182.16"/>
<path d="M430.04 182.16L437.68 182.16"/>
<path d="M441.5 185.98L441.5 208.9"/>
<path d="M437.68 212.72L430.04 212.72"/>
<path d="M430.04 212.72L430.04 262.37"/>
<path d="M441.5 185.98L440.38 183.27M440.38 183.27L437.68 182.16"/>
<path d="M437.68 212.72L439.59 212.2M439.59 212.2L440.99 210.81M440.99 210.81L441.5 208.9"/>
<path d="M384.2 308.21L396.07 306.65M396.07 306.65L407.12 302.07M407.12 302.07L416.62 294.79M416.62 294.79L423.9 285.29M423.9 285.29L428.48 274.24M428.48 274.24L430.04 262.37"/>
<path d="M430.04 163.06L428.48 151.19M428.48 151.19L423.9 140.14M423.9 140.14L416.62 130.64M416.62 130.64L407.12 123.36M407.12 123.36L396.07 118.78M396.07 118.78L384.2 117.22"/>
<path d="M145.06 141.41L130.2 294.92"/>
<path d="M183.43 353.55L417.06 353.55"/>
<path d="M470.29 294.92L455.54 142.53"/>
<path d="M431.23 102.69L359.3 56.45"/>
<path d="M330.38 47.96L263.47 47.96"/>
<path d="M233.03 57.47L167.85 102.59"/>
<path d="M130.2 294.92L130.49 307.63M130.49 307.63L133.77 319.9M133.77 319.9L139.85 331.06M139.85 331.06L148.39 340.47M148.39 340.47L158.91 347.6M158.91 347.6L170.82 352.04M170.82 352.04L183.43 353.55"/>
<path d="M417.06 353.55L429.68 352.04M429.68 352.04L441.58 347.6M441.58 347.6L452.1 340.47M452.1 340.47L460.64 331.06M460.64 331.06L466.72 319.9M466.72 319.9L470 307.63M470 307.63L470.29 294.92"/>
<path d="M167.85 102.59L159.09 110.19M159.09 110.19L152.17 119.49M152.17 119.49L147.42 130.06M147.42 130.06L145.06 141.41"/>
<path d="M455.54 142.53L453.04 130.74M453.04 130.74L447.96 119.82M447.96 119.82L440.56 110.31M440.56 110.31L431.23 102.69"/>
<path d="M263.47 47.96L252.75 49.04M252.75 49.04L242.47 52.26M242.47 52.26L233.03 57.47"/>
<path d="M359.3 56.45L350.26 51.79M350.26 51.79L340.5 48.93M340.5 48.93L330.38 47.96"/>
<path d="M491.36 163.89L493.3 162.92M493.3 162.92L496.21 160.01M496.21 160.01L496.21 180.38"/>
<path d="M109.13 160.01L99.43 173.59M99.43 173.59L113.98 173.59M109.13 160.01L109.13 180.38"/>
<path d="M498.64 221.13L488.94 221.13M488.94 221.13L487.97 229.86M487.97 229.86L488.94 228.89M488.94 228.89L491.85 227.92M491.85 227.92L494.76 227.92M494.76 227.92L497.67 228.89M497.67 228.89L499.61 230.83M499.61 230.83L500.58 233.74M500.58 233.74L500.58 235.68M500.58 235.68L499.61 238.59M499.61 238.59L497.67 240.53M497.67 240.53L494.76 241.5M494.76 241.5L491.85 241.5M491.85 241.5L488.94 240.53M488.94 240.53L487.97 239.56M487.97 239.56L487 237.62"/>
<path d="M104.76 221.13L101.85 222.1M101.85 222.1L100.88 224.04M100.88 224.04L100.88 225.98M100.88 225.98L101.85 227.92M101.85 227.92L103.79 228.89M103.79 228.89L107.67 229.86M107.67 229.86L110.58 230.83M110.58 230.83L112.52 232.77M112.52 232.77L113.49 234.71M113.49 234.71L113.49 237.62M113.49 237.62L112.52 239.56M112.52 239.56L111.55 240.53M111.55 240.53L108.64 241.5M108.64 241.5L104.76 241.5M104.76 241.5L101.85 240.53M101.85 240.53L100.88 239.56M100.88 239.56L99.91 237.62M99.91 237.62L99.91 234.71M99.91 234.71L100.88 232.77M100.88 232.77L102.82 230.83M102.82 230.83L105.73 229.86M105.73 229.86L109.61 228.89M109.61 228.89L111.55 227.92M111.55 227.92L112.52 225.98M112.52 225.98L112.52 224.04M112.52 224.04L111.55 222.1M111.55 222.1L108.64 221.13M108.64 221.13L104.76 221.13"/>
</g>
</g>
</svg>
