<?xml version="1.0" standalone="no"?><svg xmlns="http://www.w3.org/2000/svg" width="600.000" height="450.000" viewBox="0.0 0.0 600.000 450.000" version="1.1">
<title>Acme Converter - Post-processed with EDS-Designer: 14.44 (info@symca.com)</title>
<desc>Acme Converter - Post-processed with EDS-Designer: 14.44 (info@symca.com)</desc>
<g id="EDS_STYLE_GROUP" fill="none" stroke="black" stroke-width="1.0">
<g id="0" display="visible">
<path d="M218.45 443.46L218.45 407.91M220.15 407.91L220.15 443.46M213.38 407.91L233.69 407.91M233.69 407.91L238.77 409.61M238.77 409.61L240.46 411.3M240.46 411.3L242.15 414.68M242.15 414.68L242.15 418.07M242.15 418.07L240.46 421.45M240.46 421.45L238.77 423.15M238.77 423.15L233.69 424.84M233.69 407.91L237.07 409.61M237.07 409.61L238.77 411.3M238.77 411.3L240.46 414.68M240.46 414.68L240.46 418.07M240.46 418.07L238.77 421.45M238.77 421.45L237.07 423.15M237.07 423.15L233.69 424.84M220.15 424.84L233.69 424.84M233.69 424.84L238.77 426.53M238.77 426.53L240.46 428.22M240.46 428.22L242.15 431.61M242.15 431.61L242.15 436.69M242.15 436.69L240.46 440.07M240.46 440.07L238.77 441.77M238.77 441.77L233.69 443.46M233.69 443.46L213.38 443.46M233.69 424.84L237.07 426.53M237.07 426.53L238.77 428.22M238.77 428.22L240.46 431.61M240.46 431.61L240.46 436.69M240.46 436.69L238.77 440.07M238.77 440.07L237.07 441.77M237.07 441.77L233.69 443.46M255.69 443.46L255.69 407.91M257.39 407.91L257.39 443.46M250.61 407.91L262.46 407.91M250.61 443.46L276 443.46M276 443.46L276 433.3M276 433.3L274.31 443.46M296.32 407.91L284.47 443.46M296.32 407.91L308.16 443.46M296.32 412.99L306.47 443.46M287.85 433.3L303.09 433.3M281.08 443.46L291.24 443.46M301.39 443.46L311.55 443.46M340.32 412.99L342.02 418.07M342.02 418.07L342.02 407.91M342.02 407.91L340.32 412.99M340.32 412.99L336.94 409.61M336.94 409.61L331.86 407.91M331.86 407.91L328.48 407.91M328.48 407.91L323.4 409.61M323.4 409.61L320.01 412.99M320.01 412.99L318.32 416.38M318.32 416.38L316.63 421.45M316.63 421.45L316.63 429.92M316.63 429.92L318.32 434.99M318.32 434.99L320.01 438.38M320.01 438.38L323.4 441.77M323.4 441.77L328.48 443.46M328.48 443.46L331.86 443.46M331.86 443.46L336.94 441.77M336.94 441.77L340.32 438.38M340.32 438.38L342.02 434.99M328.48 407.91L325.09 409.61M325.09 409.61L321.71 412.99M321.71 412.99L320.01 416.38M320.01 416.38L318.32 421.45M318.32 421.45L318.32 429.92M318.32 429.92L320.01 434.99M320.01 434.99L321.71 438.38M321.71 438.38L325.09 441.77M325.09 441.77L328.48 443.46M357.25 443.46L357.25 407.91M358.94 407.91L358.94 443.46M380.95 407.91L358.94 429.92M367.41 423.15L380.95 443.46M365.71 423.15L379.25 443.46M352.17 407.91L364.02 407.91M374.18 407.91L384.33 407.91M352.17 443.46L364.02 443.46M374.18 443.46L384.33 443.46"/>
<path d="M526.58 237.44L541.48 237.44M541.48 237.44L533.35 248.27M533.35 248.27L537.42 248.27M537.42 248.27L540.12 249.62M540.12 249.62L541.48 250.98M541.48 250.98L542.83 255.04M542.83 255.04L542.83 257.75M542.83 257.75L541.48 261.81M541.48 261.81L538.77 264.52M538.77 264.52L534.71 265.87M534.71 265.87L530.64 265.87M530.64 265.87L526.58 264.52M526.58 264.52L525.23 263.17M525.23 263.17L523.87 260.46"/>
<path d="M57.17 243.24L59.88 241.89M59.88 241.89L63.94 237.82M63.94 237.82L63.94 266.26"/>
<path d="M291.04 194.64L291.04 208.86"/>
<path d="M291.04 208.86L305.26 208.86"/>
<path d="M305.26 208.86L305.26 194.64"/>
<path d="M305.26 194.64L291.04 194.64"/>
<path d="M291.04 194.64L283.93 187.53"/>
<path d="M283.93 187.53L283.93 215.97"/>
<path d="M283.93 215.97L312.37 215.97"/>
<path d="M312.37 215.97L312.37 187.53"/>
<path d="M312.37 187.53L283.93 187.53"/>
<path d="M305.26 194.64L312.37 187.53"/>
<path d="M291.04 208.86L283.93 215.97"/>
<path d="M305.26 208.86L312.37 215.97"/>
<path d="M255.5 237.3L227.06 237.3"/>
<path d="M227.06 237.3L227.06 265.73"/>
<path d="M227.06 265.73L255.5 265.73"/>
<path d="M255.5 265.73L255.5 237.3"/>
<path d="M227.06 237.3L234.17 244.4"/>
<path d="M234.17 244.4L234.17 258.62"/>
<path d="M234.17 258.62L248.39 258.62"/>
<path d="M248.39 258.62L248.39 244.4"/>
<path d="M248.39 244.4L234.17 244.4"/>
<path d="M248.39 244.4L255.5 237.3"/>
<path d="M248.39 258.62L255.5 265.73"/>
<path d="M234.17 258.62L227.06 265.73"/>
<path d="M340.81 237.3L340.81 265.73"/>
<path d="M340.81 265.73L369.24 265.73"/>
<path d="M369.24 265.73L369.24 237.3"/>
<path d="M369.24 237.3L340.81 237.3"/>
<path d="M340.81 237.3L347.92 244.4"/>
<path d="M347.92 244.4L347.92 258.62"/>
<path d="M347.92 258.62L362.13 258.62"/>
<path d="M362.13 258.62L362.13 244.4"/>
<path d="M362.13 244.4L347.92 244.4"/>
<path d="M362.13 244.4L369.24 237.3"/>
<path d="M362.13 258.62L369.24 265.73"/>
<path d="M347.92 258.62L340.81 265.73"/>
<path d="M212.84 251.51L212.84 279.95"/>
<path d="M212.84 279.95L255.5 279.95"/>
<path d="M255.5 279.95L255.5 301.28"/>
<path d="M255.5 301.28L269.72 301.28"/>
<path d="M269.72 301.28L269.72 279.95"/>
<path d="M269.72 279.95L383.46 279.95"/>
<path d="M383.46 279.95L383.46 251.51"/>
<path d="M383.46 251.51L397.68 251.51"/>
<path d="M397.68 251.51L397.68 265.73"/>
<path d="M397.68 265.73L404.79 265.73"/>
<path d="M212.84 251.51L198.63 251.51"/>
<path d="M198.63 251.51L198.63 265.73"/>
<path d="M198.63 265.73L191.52 265.73"/>
<path d="M191.52 265.73L191.52 223.08"/>
<path d="M262.61 151.99L333.7 151.99"/>
<path d="M404.79 223.08L404.79 265.73"/>
<path d="M262.61 151.99L246.79 153.77M246.79 153.77L231.76 159.03M231.76 159.03L218.28 167.5M218.28 167.5L207.03 178.75M207.03 178.75L198.56 192.23M198.56 192.23L193.3 207.26M193.3 207.26L191.52 223.08"/>
<path d="M404.79 223.08L403.01 207.26M403.01 207.26L397.75 192.23M397.75 192.23L389.28 178.75M389.28 178.75L378.02 167.5M378.02 167.5L364.54 159.03M364.54 159.03L349.52 153.77M349.52 153.77L333.7 151.99"/>
<path d="M227.06 180.42L227.06 215.97"/>
<path d="M227.06 215.97L269.72 215.97"/>
<path d="M269.72 215.97L269.72 180.42"/>
<path d="M269.72 180.42L227.06 180.42"/>
<path d="M205.73 180.42L205.73 159.1"/>
<path d="M390.57 180.42L390.57 159.1"/>
<path d="M248.39 137.77L347.92 137.77"/>
<path d="M248.39 137.77L235.93 138.5M235.93 138.5L224.11 142.53M224.11 142.53L213.8 149.56M213.8 149.56L205.73 159.1"/>
<path d="M390.57 159.1L382.51 149.56M382.51 149.56L372.2 142.53M372.2 142.53L360.38 138.5M360.38 138.5L347.92 137.77"/>
<path d="M234.17 322.6L362.13 322.6"/>
<path d="M205.73 166.21L191.42 176.12M191.42 176.12L179.47 188.77M179.47 188.77L170.39 203.63M170.39 203.63L164.57 220.04M164.57 220.04L162.27 237.29M162.27 237.29L163.59 254.65M163.59 254.65L168.47 271.36M168.47 271.36L176.69 286.71M176.69 286.71L187.91 300.02M187.91 300.02L201.64 310.73M201.64 310.73L217.29 318.36M217.29 318.36L234.17 322.6"/>
<path d="M362.13 322.6L378.86 318.18M378.86 318.18L394.32 310.43M394.32 310.43L407.88 299.68M407.88 299.68L418.95 286.39M418.95 286.39L427.07 271.11M427.07 271.11L431.89 254.5M431.89 254.5L433.22 237.26M433.22 237.26L431 220.1M431 220.1L425.32 203.76M425.32 203.76L416.41 188.93M416.41 188.93L404.66 176.23M404.66 176.23L390.57 166.21"/>
<path d="M234.17 123.55L362.13 123.55"/>
<path d="M234.17 336.82L362.13 336.82"/>
<path d="M234.17 123.55L214.11 128.22M214.11 128.22L195.3 136.62M195.3 136.62L178.44 148.45M178.44 148.45L164.14 163.28M164.14 163.28L152.94 180.56M152.94 180.56L145.23 199.67M145.23 199.67L141.3 219.89M141.3 219.89L141.3 240.49M141.3 240.49L145.23 260.71M145.23 260.71L152.94 279.81M152.94 279.81L164.14 297.09M164.14 297.09L178.44 311.92M178.44 311.92L195.3 323.75M195.3 323.75L214.11 332.16M214.11 332.16L234.17 336.82"/>
<path d="M362.13 336.82L382.08 332.04M382.08 332.04L400.76 323.56M400.76 323.56L417.49 311.69M417.49 311.69L431.66 296.86M431.66 296.86L442.77 279.62M442.77 279.62L450.41 260.58M450.41 260.58L454.3 240.44M454.3 240.44L454.3 219.93M454.3 219.93L450.41 199.79M450.41 199.79L442.77 180.75M442.77 180.75L431.66 163.51M431.66 163.51L417.49 148.69M417.49 148.69L400.76 136.82M400.76 136.82L382.08 128.34M382.08 128.34L362.13 123.55"/>
<path d="M127.54 166.21L127.54 109.33"/>
<path d="M127.54 109.33L347.92 109.33"/>
<path d="M461.66 137.77L490.1 137.77"/>
<path d="M490.1 137.77L490.1 294.17"/>
<path d="M490.1 294.17L475.88 294.17"/>
<path d="M475.88 294.17L475.88 308.39"/>
<path d="M475.88 308.39L461.66 308.39"/>
<path d="M219.95 351.04L376.35 351.04"/>
<path d="M461.66 137.77L440.57 126.78M440.57 126.78L418.34 118.35M418.34 118.35L395.28 112.58M395.28 112.58L371.69 109.56M371.69 109.56L347.92 109.33"/>
<path d="M376.35 351.04L396.02 349.21M396.02 349.21L415 343.79M415 343.79L432.67 334.96M432.67 334.96L448.4 323.02M448.4 323.02L461.66 308.39"/>
<path d="M219.95 351.04L196.06 351.04"/>
<path d="M127.54 166.21L118.75 186.68M118.75 186.68L113.41 208.31M113.41 208.31L111.64 230.52M111.64 230.52L113.51 252.72M113.51 252.72L118.96 274.32M118.96 274.32L127.85 294.75M127.85 294.75L139.93 313.47M139.93 313.47L154.9 329.98M154.9 329.98L172.34 343.84"/>
<path d="M172.34 343.84L183.67 349.2M183.67 349.2L196.06 351.04"/>
<path d="M106.21 166.21L106.21 92.98"/>
<path d="M111.18 88.01L390.57 88.01"/>
<path d="M461.66 116.44L490.1 116.44"/>
<path d="M490.1 116.44L511.42 144.88"/>
<path d="M511.42 144.88L511.42 287.06"/>
<path d="M511.42 287.06L511.42 308.39"/>
<path d="M511.42 308.39L490.1 336.82"/>
<path d="M490.1 336.82L461.66 336.82"/>
<path d="M461.66 116.44L454.55 116.44"/>
<path d="M198.63 372.37L383.46 372.37"/>
<path d="M383.46 372.37L400.85 370.01M400.85 370.01L417.72 365.15M417.72 365.15L433.7 357.89M433.7 357.89L448.45 348.38M448.45 348.38L461.66 336.82"/>
<path d="M106.21 166.21L96.34 185.96M96.34 185.96L89.76 207.03M89.76 207.03L86.64 228.89M86.64 228.89L87.07 250.97M87.07 250.97L91.02 272.69M91.02 272.69L98.41 293.5M98.41 293.5L109.03 312.85M109.03 312.85L122.61 330.26M122.61 330.26L138.81 345.26M138.81 345.26L157.2 357.48M157.2 357.48L177.31 366.59M177.31 366.59L198.63 372.37"/>
<path d="M454.55 116.44L434.15 104.96M434.15 104.96L412.76 95.45M412.76 95.45L390.57 88.01"/>
<path d="M111.18 88.01L107.67 89.46M107.67 89.46L106.21 92.98"/>
</g>
</g>
</svg>
