<?xml version="1.0" standalone="no"?><svg xmlns="http://www.w3.org/2000/svg" width="600.000" height="450.000" viewBox="0.0 0.0 600.000 450.000" version="1.1">
<title>Acme Converter - Post-processed with EDS-Designer: 14.44 (info@symca.com)</title>
<desc>Acme Converter - Post-processed with EDS-Designer: 14.44 (info@symca.com)</desc>
<g id="EDS_STYLE_GROUP" fill="none" stroke="black" stroke-width="1.0">
<g id="0" display="visible">
<path d="M233.02 338.91L238.46 367.47M234.38 338.91L238.46 360.67M243.9 338.91L238.46 367.47M243.9 338.91L249.34 367.47M245.26 338.91L249.34 360.67M254.78 338.91L249.34 367.47M228.94 338.91L238.46 338.91M250.7 338.91L258.86 338.91M265.66 367.47L265.66 338.91M267.02 338.91L267.02 367.47M283.34 367.47L283.34 338.91M284.7 338.91L284.7 367.47M261.58 338.91L271.1 338.91M279.26 338.91L288.78 338.91M267.02 352.51L283.34 352.51M261.58 367.47L271.1 367.47M279.26 367.47L288.78 367.47M298.3 367.47L298.3 338.91M299.66 338.91L299.66 367.47M294.22 338.91L303.74 338.91M294.22 367.47L303.74 367.47M318.7 367.47L318.7 338.91M320.06 338.91L320.06 367.47M310.54 338.91L309.18 347.07M309.18 347.07L309.18 338.91M309.18 338.91L329.58 338.91M329.58 338.91L329.58 347.07M329.58 347.07L328.22 338.91M314.62 367.47L324.14 367.47M339.1 367.47L339.1 338.91M340.46 338.91L340.46 367.47M348.62 347.07L348.62 357.95M335.02 338.91L356.78 338.91M356.78 338.91L356.78 347.07M356.78 347.07L355.42 338.91M340.46 352.51L348.62 352.51M335.02 367.47L356.78 367.47M356.78 367.47L356.78 359.31M356.78 359.31L355.42 367.47"/>
<path d="M183.13 310.35L183.86 304.16"/>
<path d="M402.28 310.35L401.54 304.16"/>
<path d="M227.08 119.67L226.51 119.67M226.51 119.67L225.95 119.66M225.95 119.66L225.38 119.64M225.38 119.64L224.81 119.61M224.81 119.61L224.25 119.58M224.25 119.58L223.68 119.53M223.68 119.53L223.11 119.48M223.11 119.48L222.55 119.42M222.55 119.42L221.99 119.34M221.99 119.34L221.43 119.26M221.43 119.26L220.87 119.15M220.87 119.15L220.31 119.02M220.31 119.02L219.77 118.87M219.77 118.87L219.5 118.78M219.5 118.78L219.24 118.69M219.24 118.69L219.11 118.63M219.11 118.63L218.98 118.57M218.98 118.57L218.86 118.49M218.86 118.49L218.74 118.41M218.74 118.41L218.62 118.31M218.62 118.31L218.51 118.2M218.51 118.2L218.47 118.14M218.47 118.14L218.44 118.08M218.44 118.08L218.42 118.01M218.42 118.01L218.41 117.94"/>
<path d="M366.99 117.94L366.99 118.01M366.99 118.01L366.96 118.08M366.96 118.08L366.93 118.14M366.93 118.14L366.89 118.2M366.89 118.2L366.79 118.31M366.79 118.31L366.67 118.41M366.67 118.41L366.55 118.49M366.55 118.49L366.42 118.57M366.42 118.57L366.3 118.63M366.3 118.63L366.17 118.69M366.17 118.69L365.91 118.78M365.91 118.78L365.64 118.87M365.64 118.87L365.09 119.02M365.09 119.02L364.54 119.15M364.54 119.15L363.98 119.26M363.98 119.26L363.42 119.34M363.42 119.34L362.86 119.42M362.86 119.42L362.29 119.48M362.29 119.48L361.73 119.53M361.73 119.53L361.16 119.58M361.16 119.58L360.59 119.61M360.59 119.61L360.03 119.64M360.03 119.64L359.46 119.66M359.46 119.66L358.89 119.67M358.89 119.67L358.33 119.67"/>
<path d="M144.25 279.39L146.4 282.95M146.4 282.95L150.32 284.35"/>
<path d="M435.09 284.35L439.01 282.95M439.01 282.95L441.16 279.39"/>
<path d="M230.8 96.15L228.17 97.24M228.17 97.24L227.08 99.86"/>
<path d="M358.33 99.86L357.24 97.24M357.24 97.24L354.61 96.15"/>
<path d="M427.88 304.16L431.29 301.97M431.29 301.97L432.61 298.14"/>
<path d="M435.09 290.54L441.28 288.88M441.28 288.88L445.81 284.35M445.81 284.35L447.47 278.16"/>
<path d="M152.79 298.14L154.12 301.97M154.12 301.97L157.53 304.16"/>
<path d="M137.93 278.16L139.59 284.35M139.59 284.35L144.12 288.88M144.12 288.88L150.32 290.54"/>
<path d="M366.99 99.86L365.33 93.67M365.33 93.67L360.8 89.14M360.8 89.14L354.61 87.48"/>
<path d="M366.99 94.91L365.33 88.72M365.33 88.72L360.8 84.19M360.8 84.19L354.61 82.53"/>
<path d="M230.8 87.48L224.6 89.14M224.6 89.14L220.07 93.67M220.07 93.67L218.41 99.86"/>
<path d="M230.8 82.53L224.6 84.19M224.6 84.19L220.07 88.72M220.07 88.72L218.41 94.91"/>
<path d="M422.71 96.15L428.9 102.34"/>
<path d="M441.28 279.39L447.47 273.2"/>
<path d="M435.09 135.77L428.9 129.58"/>
<path d="M432.61 273.2L441.28 264.54"/>
<path d="M447.47 278.16L447.47 96.15"/>
<path d="M441.28 135.77L441.28 96.15"/>
<path d="M441.28 206.34L441.28 264.54"/>
<path d="M441.28 141.96L441.28 191.49"/>
<path d="M440.04 191.49L440.04 206.34"/>
<path d="M436.77 164.25L436.77 145.67"/>
<path d="M436.77 228.63L436.77 210.06"/>
<path d="M436.33 246.58L436.33 268.87"/>
<path d="M436.33 182.2L436.33 204.49"/>
<path d="M427.09 141.96L422.71 135.77"/>
<path d="M430.14 252.77L436.33 246.58"/>
<path d="M415.28 262.68L409.09 268.87"/>
<path d="M383.09 290.54L386.8 286.82"/>
<path d="M435.09 284.35L435.09 290.54"/>
<path d="M432.61 298.14L432.61 290.54"/>
<path d="M432.61 273.2L432.61 279.39"/>
<path d="M430.14 179.1L430.14 164.25"/>
<path d="M430.14 243.49L430.14 228.63"/>
<path d="M430.14 252.77L430.14 262.68"/>
<path d="M430.14 188.39L430.14 198.3"/>
<path d="M428.9 129.58L428.9 102.34"/>
<path d="M427.09 141.96L427.09 135.77"/>
<path d="M426.42 298.14L426.42 290.54"/>
<path d="M422.71 135.77L422.71 96.15"/>
<path d="M375.66 286.82L373.8 288.68"/>
<path d="M416.52 135.77L416.52 96.15"/>
<path d="M415.28 198.3L415.28 188.39"/>
<path d="M415.28 262.68L415.28 252.77"/>
<path d="M415.28 228.63L415.28 243.49"/>
<path d="M415.28 164.25L415.28 179.1"/>
<path d="M412.14 135.77L412.14 141.96"/>
<path d="M410.33 129.58L410.33 102.34"/>
<path d="M426.42 298.14L427.88 304.16"/>
<path d="M349.66 102.34L343.47 96.15"/>
<path d="M230.8 82.53L354.61 82.53"/>
<path d="M230.8 87.48L354.61 87.48"/>
<path d="M375.66 273.2L371.94 276.92"/>
<path d="M392.99 252.77L399.18 246.58"/>
<path d="M378.14 262.68L371.94 268.87"/>
<path d="M409.09 204.49L409.09 182.2"/>
<path d="M409.09 268.87L409.09 246.58"/>
<path d="M408.65 210.06L408.65 228.63"/>
<path d="M408.65 145.67L408.65 164.25"/>
<path d="M399.62 164.25L399.62 145.67"/>
<path d="M399.62 228.63L399.62 210.06"/>
<path d="M399.18 246.58L399.18 268.87"/>
<path d="M399.18 182.2L399.18 204.49"/>
<path d="M397.95 135.77L397.95 96.15"/>
<path d="M430.14 198.3L436.33 204.49"/>
<path d="M327.37 96.15L333.56 102.34"/>
<path d="M415.28 188.39L409.09 182.2"/>
<path d="M379.37 96.15L447.47 96.15"/>
<path d="M230.8 96.15L354.61 96.15"/>
<path d="M137.93 96.15L206.03 96.15"/>
<path d="M218.41 99.86L227.08 99.86"/>
<path d="M366.99 99.86L358.33 99.86"/>
<path d="M333.56 102.34L343.47 102.34"/>
<path d="M251.84 102.34L241.94 102.34"/>
<path d="M430.14 188.39L436.33 182.2"/>
<path d="M392.99 179.1L392.99 164.25"/>
<path d="M392.99 243.49L392.99 228.63"/>
<path d="M392.99 252.77L392.99 262.68"/>
<path d="M392.99 188.39L392.99 198.3"/>
<path d="M386.8 276.92L386.8 286.82"/>
<path d="M385.56 135.77L385.56 96.15"/>
<path d="M355.85 135.77L349.66 129.58"/>
<path d="M333.56 118.43L327.37 112.24"/>
<path d="M308.8 112.24L327.37 112.24"/>
<path d="M258.03 112.24L276.61 112.24"/>
<path d="M415.28 198.3L409.09 204.49"/>
<path d="M355.85 252.77L362.04 246.58"/>
<path d="M340.99 262.68L334.8 268.87"/>
<path d="M383.09 286.82L383.09 273.2"/>
<path d="M379.37 135.77L379.37 96.15"/>
<path d="M378.14 198.3L378.14 188.39"/>
<path d="M378.14 262.68L378.14 252.77"/>
<path d="M378.14 228.63L378.14 243.49"/>
<path d="M378.14 164.25L378.14 179.1"/>
<path d="M375.66 273.2L375.66 286.82"/>
<path d="M371.94 204.49L371.94 182.2"/>
<path d="M371.94 268.87L371.94 246.58"/>
<path d="M371.94 276.92L371.94 286.82"/>
<path d="M371.51 210.06L371.51 228.63"/>
<path d="M371.51 145.67L371.51 164.25"/>
<path d="M308.8 112.24L314.99 118.43"/>
<path d="M392.99 198.3L399.18 204.49"/>
<path d="M378.14 188.39L371.94 182.2"/>
<path d="M314.99 118.43L333.56 118.43"/>
<path d="M251.84 118.43L270.42 118.43"/>
<path d="M349.66 119.67L358.33 119.67"/>
<path d="M276.61 119.67L308.8 119.67"/>
<path d="M227.08 119.67L235.75 119.67"/>
<path d="M441.28 141.96L447.47 135.77"/>
<path d="M412.14 141.96L416.52 135.77"/>
<path d="M366.99 94.91L366.99 117.94"/>
<path d="M362.48 164.25L362.48 145.67"/>
<path d="M362.48 228.63L362.48 210.06"/>
<path d="M362.04 246.58L362.04 268.87"/>
<path d="M362.04 182.2L362.04 204.49"/>
<path d="M308.8 135.77L314.99 141.96"/>
<path d="M416.52 135.77L422.71 135.77"/>
<path d="M162.7 135.77L168.89 135.77"/>
<path d="M158.32 135.77L137.93 135.77"/>
<path d="M235.75 135.77L173.27 135.77"/>
<path d="M308.8 135.77L276.61 135.77"/>
<path d="M412.14 135.77L349.66 135.77"/>
<path d="M447.47 135.77L427.09 135.77"/>
<path d="M158.32 141.96L144.12 141.96"/>
<path d="M241.94 141.96L173.27 141.96"/>
<path d="M314.99 141.96L270.42 141.96"/>
<path d="M412.14 141.96L343.47 141.96"/>
<path d="M441.28 141.96L427.09 141.96"/>
<path d="M392.99 188.39L399.18 182.2"/>
<path d="M378.14 198.3L371.94 204.49"/>
<path d="M318.7 252.77L324.9 246.58"/>
<path d="M303.85 262.68L297.66 268.87"/>
<path d="M358.33 99.86L358.33 119.67"/>
<path d="M355.85 179.1L355.85 164.25"/>
<path d="M355.85 243.49L355.85 228.63"/>
<path d="M355.85 252.77L355.85 262.68"/>
<path d="M355.85 188.39L355.85 198.3"/>
<path d="M354.61 82.53L354.61 96.15"/>
<path d="M349.66 102.34L349.66 129.58"/>
<path d="M430.14 262.68L436.33 268.87"/>
<path d="M415.28 252.77L409.09 246.58"/>
<path d="M355.85 198.3L362.04 204.49"/>
<path d="M176.75 145.67L148.64 145.67"/>
<path d="M213.9 145.67L185.79 145.67"/>
<path d="M251.04 145.67L222.93 145.67"/>
<path d="M288.19 145.67L260.07 145.67"/>
<path d="M325.33 145.67L297.22 145.67"/>
<path d="M362.48 145.67L334.36 145.67"/>
<path d="M399.62 145.67L371.51 145.67"/>
<path d="M436.77 145.67L408.65 145.67"/>
<path d="M343.47 141.96L343.47 102.34"/>
<path d="M340.99 198.3L340.99 188.39"/>
<path d="M340.99 262.68L340.99 252.77"/>
<path d="M340.99 228.63L340.99 243.49"/>
<path d="M340.99 164.25L340.99 179.1"/>
<path d="M334.8 204.49L334.8 182.2"/>
<path d="M334.8 268.87L334.8 246.58"/>
<path d="M334.36 210.06L334.36 228.63"/>
<path d="M334.36 145.67L334.36 164.25"/>
<path d="M333.56 102.34L333.56 118.43"/>
<path d="M340.99 188.39L334.8 182.2"/>
<path d="M238.84 99.24L241.94 102.34"/>
<path d="M430.14 164.25L436.77 164.25"/>
<path d="M408.65 164.25L415.28 164.25"/>
<path d="M392.99 164.25L399.62 164.25"/>
<path d="M371.51 164.25L378.14 164.25"/>
<path d="M355.85 164.25L362.48 164.25"/>
<path d="M334.36 164.25L340.99 164.25"/>
<path d="M318.7 164.25L325.33 164.25"/>
<path d="M297.22 164.25L303.85 164.25"/>
<path d="M281.56 164.25L288.19 164.25"/>
<path d="M260.07 164.25L266.7 164.25"/>
<path d="M244.42 164.25L251.04 164.25"/>
<path d="M222.93 164.25L229.56 164.25"/>
<path d="M207.27 164.25L213.9 164.25"/>
<path d="M185.79 164.25L192.41 164.25"/>
<path d="M170.13 164.25L176.75 164.25"/>
<path d="M148.64 164.25L155.27 164.25"/>
<path d="M355.85 188.39L362.04 182.2"/>
<path d="M404.14 135.77L410.33 129.58"/>
<path d="M340.99 198.3L334.8 204.49"/>
<path d="M281.56 252.77L287.75 246.58"/>
<path d="M266.7 262.68L260.51 268.87"/>
<path d="M327.37 96.15L327.37 112.24"/>
<path d="M325.33 164.25L325.33 145.67"/>
<path d="M325.33 228.63L325.33 210.06"/>
<path d="M324.9 246.58L324.9 268.87"/>
<path d="M324.9 182.2L324.9 204.49"/>
<path d="M392.99 262.68L399.18 268.87"/>
<path d="M378.14 252.77L371.94 246.58"/>
<path d="M318.7 198.3L324.9 204.49"/>
<path d="M415.28 179.1L430.14 179.1"/>
<path d="M378.14 179.1L392.99 179.1"/>
<path d="M340.99 179.1L355.85 179.1"/>
<path d="M303.85 179.1L318.7 179.1"/>
<path d="M266.7 179.1L281.56 179.1"/>
<path d="M229.56 179.1L244.42 179.1"/>
<path d="M192.41 179.1L207.27 179.1"/>
<path d="M155.27 179.1L170.13 179.1"/>
<path d="M416.52 96.15L410.33 102.34"/>
<path d="M318.7 179.1L318.7 164.25"/>
<path d="M318.7 243.49L318.7 228.63"/>
<path d="M318.7 252.77L318.7 262.68"/>
<path d="M318.7 188.39L318.7 198.3"/>
<path d="M314.99 118.43L314.99 141.96"/>
<path d="M308.8 96.15L308.8 135.77"/>
<path d="M303.85 188.39L297.66 182.2"/>
<path d="M386.8 276.92L383.09 273.2"/>
<path d="M235.75 135.77L241.94 141.96"/>
<path d="M409.09 182.2L436.33 182.2"/>
<path d="M371.94 182.2L399.18 182.2"/>
<path d="M334.8 182.2L362.04 182.2"/>
<path d="M297.66 182.2L324.9 182.2"/>
<path d="M260.51 182.2L287.75 182.2"/>
<path d="M223.37 182.2L250.61 182.2"/>
<path d="M186.22 182.2L213.46 182.2"/>
<path d="M149.08 182.2L176.32 182.2"/>
<path d="M415.28 188.39L430.14 188.39"/>
<path d="M378.14 188.39L392.99 188.39"/>
<path d="M340.99 188.39L355.85 188.39"/>
<path d="M303.85 188.39L318.7 188.39"/>
<path d="M266.7 188.39L281.56 188.39"/>
<path d="M229.56 188.39L244.42 188.39"/>
<path d="M192.41 188.39L207.27 188.39"/>
<path d="M155.27 188.39L170.13 188.39"/>
<path d="M137.93 191.49L145.36 191.49"/>
<path d="M447.47 191.49L440.04 191.49"/>
<path d="M318.7 188.39L324.9 182.2"/>
<path d="M303.85 198.3L297.66 204.49"/>
<path d="M209.75 290.54L213.46 286.82"/>
<path d="M244.42 252.77L250.61 246.58"/>
<path d="M229.56 262.68L223.37 268.87"/>
<path d="M303.85 198.3L303.85 188.39"/>
<path d="M303.85 262.68L303.85 252.77"/>
<path d="M303.85 228.63L303.85 243.49"/>
<path d="M303.85 164.25L303.85 179.1"/>
<path d="M297.66 204.49L297.66 182.2"/>
<path d="M297.66 268.87L297.66 246.58"/>
<path d="M297.22 210.06L297.22 228.63"/>
<path d="M297.22 145.67L297.22 164.25"/>
<path d="M383.09 286.82L384.95 288.68"/>
<path d="M355.85 262.68L362.04 268.87"/>
<path d="M340.99 252.77L334.8 246.58"/>
<path d="M371.94 286.82L375.66 290.54"/>
<path d="M281.56 198.3L287.75 204.49"/>
<path d="M170.13 198.3L155.27 198.3"/>
<path d="M207.27 198.3L192.41 198.3"/>
<path d="M244.42 198.3L229.56 198.3"/>
<path d="M281.56 198.3L266.7 198.3"/>
<path d="M318.7 198.3L303.85 198.3"/>
<path d="M355.85 198.3L340.99 198.3"/>
<path d="M392.99 198.3L378.14 198.3"/>
<path d="M430.14 198.3L415.28 198.3"/>
<path d="M176.32 204.49L149.08 204.49"/>
<path d="M213.46 204.49L186.22 204.49"/>
<path d="M250.61 204.49L223.37 204.49"/>
<path d="M287.75 204.49L260.51 204.49"/>
<path d="M324.9 204.49L297.66 204.49"/>
<path d="M362.04 204.49L334.8 204.49"/>
<path d="M399.18 204.49L371.94 204.49"/>
<path d="M436.33 204.49L409.09 204.49"/>
<path d="M440.04 206.34L447.47 206.34"/>
<path d="M137.93 206.34L145.36 206.34"/>
<path d="M202.32 286.82L200.46 288.68"/>
<path d="M343.47 141.96L349.66 135.77"/>
<path d="M202.32 273.2L198.6 276.92"/>
<path d="M288.19 164.25L288.19 145.67"/>
<path d="M288.19 228.63L288.19 210.06"/>
<path d="M287.75 246.58L287.75 268.87"/>
<path d="M287.75 182.2L287.75 204.49"/>
<path d="M266.7 188.39L260.51 182.2"/>
<path d="M168.89 96.15L175.08 102.34"/>
<path d="M176.75 210.06L148.64 210.06"/>
<path d="M213.9 210.06L185.79 210.06"/>
<path d="M251.04 210.06L222.93 210.06"/>
<path d="M288.19 210.06L260.07 210.06"/>
<path d="M325.33 210.06L297.22 210.06"/>
<path d="M362.48 210.06L334.36 210.06"/>
<path d="M399.62 210.06L371.51 210.06"/>
<path d="M436.77 210.06L408.65 210.06"/>
<path d="M281.56 188.39L287.75 182.2"/>
<path d="M266.7 198.3L260.51 204.49"/>
<path d="M207.27 252.77L213.46 246.58"/>
<path d="M281.56 179.1L281.56 164.25"/>
<path d="M281.56 243.49L281.56 228.63"/>
<path d="M281.56 252.77L281.56 262.68"/>
<path d="M281.56 188.39L281.56 198.3"/>
<path d="M276.61 135.77L276.61 96.15"/>
<path d="M270.42 141.96L270.42 118.43"/>
<path d="M318.7 262.68L324.9 268.87"/>
<path d="M303.85 252.77L297.66 246.58"/>
<path d="M244.42 198.3L250.61 204.49"/>
<path d="M181.27 135.77L175.08 129.58"/>
<path d="M430.14 228.63L436.77 228.63"/>
<path d="M408.65 228.63L415.28 228.63"/>
<path d="M392.99 228.63L399.62 228.63"/>
<path d="M371.51 228.63L378.14 228.63"/>
<path d="M355.85 228.63L362.48 228.63"/>
<path d="M334.36 228.63L340.99 228.63"/>
<path d="M318.7 228.63L325.33 228.63"/>
<path d="M297.22 228.63L303.85 228.63"/>
<path d="M281.56 228.63L288.19 228.63"/>
<path d="M260.07 228.63L266.7 228.63"/>
<path d="M244.42 228.63L251.04 228.63"/>
<path d="M222.93 228.63L229.56 228.63"/>
<path d="M207.27 228.63L213.9 228.63"/>
<path d="M185.79 228.63L192.41 228.63"/>
<path d="M170.13 228.63L176.75 228.63"/>
<path d="M148.64 228.63L155.27 228.63"/>
<path d="M192.41 262.68L186.22 268.87"/>
<path d="M346.56 99.24L343.47 102.34"/>
<path d="M266.7 198.3L266.7 188.39"/>
<path d="M266.7 262.68L266.7 252.77"/>
<path d="M266.7 228.63L266.7 243.49"/>
<path d="M266.7 164.25L266.7 179.1"/>
<path d="M260.51 204.49L260.51 182.2"/>
<path d="M260.51 268.87L260.51 246.58"/>
<path d="M260.07 210.06L260.07 228.63"/>
<path d="M260.07 145.67L260.07 164.25"/>
<path d="M258.03 96.15L258.03 112.24"/>
<path d="M229.56 188.39L223.37 182.2"/>
<path d="M415.28 243.49L430.14 243.49"/>
<path d="M378.14 243.49L392.99 243.49"/>
<path d="M340.99 243.49L355.85 243.49"/>
<path d="M303.85 243.49L318.7 243.49"/>
<path d="M266.7 243.49L281.56 243.49"/>
<path d="M229.56 243.49L244.42 243.49"/>
<path d="M192.41 243.49L207.27 243.49"/>
<path d="M155.27 243.49L170.13 243.49"/>
<path d="M244.42 188.39L250.61 182.2"/>
<path d="M229.56 198.3L223.37 204.49"/>
<path d="M170.13 252.77L176.32 246.58"/>
<path d="M251.84 102.34L251.84 118.43"/>
<path d="M251.04 164.25L251.04 145.67"/>
<path d="M251.04 228.63L251.04 210.06"/>
<path d="M250.61 246.58L250.61 268.87"/>
<path d="M250.61 182.2L250.61 204.49"/>
<path d="M244.42 179.1L244.42 164.25"/>
<path d="M244.42 243.49L244.42 228.63"/>
<path d="M244.42 252.77L244.42 262.68"/>
<path d="M244.42 188.39L244.42 198.3"/>
<path d="M281.56 262.68L287.75 268.87"/>
<path d="M266.7 252.77L260.51 246.58"/>
<path d="M207.27 198.3L213.46 204.49"/>
<path d="M409.09 246.58L436.33 246.58"/>
<path d="M371.94 246.58L399.18 246.58"/>
<path d="M334.8 246.58L362.04 246.58"/>
<path d="M297.66 246.58L324.9 246.58"/>
<path d="M260.51 246.58L287.75 246.58"/>
<path d="M223.37 246.58L250.61 246.58"/>
<path d="M186.22 246.58L213.46 246.58"/>
<path d="M149.08 246.58L176.32 246.58"/>
<path d="M415.28 252.77L430.14 252.77"/>
<path d="M378.14 252.77L392.99 252.77"/>
<path d="M340.99 252.77L355.85 252.77"/>
<path d="M303.85 252.77L318.7 252.77"/>
<path d="M266.7 252.77L281.56 252.77"/>
<path d="M229.56 252.77L244.42 252.77"/>
<path d="M192.41 252.77L207.27 252.77"/>
<path d="M155.27 252.77L170.13 252.77"/>
<path d="M155.27 262.68L149.08 268.87"/>
<path d="M270.42 141.96L276.61 135.77"/>
<path d="M241.94 102.34L241.94 141.96"/>
<path d="M235.75 102.34L235.75 129.58"/>
<path d="M230.8 96.15L230.8 82.53"/>
<path d="M173.27 141.96L168.89 135.77"/>
<path d="M192.41 188.39L186.22 182.2"/>
<path d="M144.12 141.96L137.93 135.77"/>
<path d="M170.13 262.68L155.27 262.68"/>
<path d="M207.27 262.68L192.41 262.68"/>
<path d="M244.42 262.68L229.56 262.68"/>
<path d="M281.56 262.68L266.7 262.68"/>
<path d="M318.7 262.68L303.85 262.68"/>
<path d="M355.85 262.68L340.99 262.68"/>
<path d="M392.99 262.68L378.14 262.68"/>
<path d="M430.14 262.68L415.28 262.68"/>
<path d="M144.12 264.54L137.93 264.54"/>
<path d="M447.47 264.54L441.28 264.54"/>
<path d="M176.32 268.87L149.08 268.87"/>
<path d="M213.46 268.87L186.22 268.87"/>
<path d="M250.61 268.87L223.37 268.87"/>
<path d="M287.75 268.87L260.51 268.87"/>
<path d="M324.9 268.87L297.66 268.87"/>
<path d="M362.04 268.87L334.8 268.87"/>
<path d="M399.18 268.87L371.94 268.87"/>
<path d="M436.33 268.87L409.09 268.87"/>
<path d="M207.27 188.39L213.46 182.2"/>
<path d="M192.41 198.3L186.22 204.49"/>
<path d="M270.42 118.43L276.61 112.24"/>
<path d="M229.56 198.3L229.56 188.39"/>
<path d="M229.56 262.68L229.56 252.77"/>
<path d="M229.56 228.63L229.56 243.49"/>
<path d="M229.56 164.25L229.56 179.1"/>
<path d="M227.08 119.67L227.08 99.86"/>
<path d="M223.37 204.49L223.37 182.2"/>
<path d="M223.37 268.87L223.37 246.58"/>
<path d="M222.93 210.06L222.93 228.63"/>
<path d="M222.93 145.67L222.93 164.25"/>
<path d="M218.41 117.94L218.41 94.91"/>
<path d="M244.42 262.68L250.61 268.87"/>
<path d="M229.56 252.77L223.37 246.58"/>
<path d="M202.32 273.2L152.79 273.2"/>
<path d="M375.66 273.2L209.75 273.2"/>
<path d="M432.61 273.2L383.09 273.2"/>
<path d="M442.52 278.16L447.47 278.16"/>
<path d="M137.93 278.16L142.89 278.16"/>
<path d="M386.8 279.39L441.28 279.39"/>
<path d="M198.6 279.39L144.12 279.39"/>
<path d="M371.94 279.39L213.46 279.39"/>
<path d="M386.8 284.35L435.09 284.35"/>
<path d="M213.46 284.35L371.94 284.35"/>
<path d="M150.32 284.35L198.6 284.35"/>
<path d="M251.84 118.43L258.03 112.24"/>
<path d="M229.56 135.77L235.75 129.58"/>
<path d="M213.9 164.25L213.9 145.67"/>
<path d="M213.9 228.63L213.9 210.06"/>
<path d="M213.46 276.92L213.46 286.82"/>
<path d="M213.46 246.58L213.46 268.87"/>
<path d="M213.46 182.2L213.46 204.49"/>
<path d="M209.75 286.82L209.75 273.2"/>
<path d="M207.27 179.1L207.27 164.25"/>
<path d="M207.27 243.49L207.27 228.63"/>
<path d="M207.27 252.77L207.27 262.68"/>
<path d="M207.27 188.39L207.27 198.3"/>
<path d="M206.03 135.77L206.03 96.15"/>
<path d="M170.13 198.3L176.32 204.49"/>
<path d="M155.27 188.39L149.08 182.2"/>
<path d="M209.75 286.82L202.32 286.82"/>
<path d="M383.09 286.82L375.66 286.82"/>
<path d="M150.32 290.54L435.09 290.54"/>
<path d="M170.13 188.39L176.32 182.2"/>
<path d="M258.03 96.15L251.84 102.34"/>
<path d="M155.27 198.3L149.08 204.49"/>
<path d="M202.32 273.2L202.32 286.82"/>
<path d="M199.84 135.77L199.84 96.15"/>
<path d="M198.6 276.92L198.6 286.82"/>
<path d="M192.41 198.3L192.41 188.39"/>
<path d="M192.41 262.68L192.41 252.77"/>
<path d="M192.41 228.63L192.41 243.49"/>
<path d="M192.41 164.25L192.41 179.1"/>
<path d="M207.27 262.68L213.46 268.87"/>
<path d="M192.41 252.77L186.22 246.58"/>
<path d="M213.46 276.92L209.75 273.2"/>
<path d="M426.42 298.14L432.61 298.14"/>
<path d="M158.98 298.14L152.79 298.14"/>
<path d="M401.54 304.16L183.86 304.16"/>
<path d="M235.75 102.34L241.94 96.15"/>
<path d="M158.98 298.14L157.53 304.16"/>
<path d="M187.46 135.77L187.46 96.15"/>
<path d="M186.22 204.49L186.22 182.2"/>
<path d="M186.22 268.87L186.22 246.58"/>
<path d="M185.79 210.06L185.79 228.63"/>
<path d="M185.79 145.67L185.79 164.25"/>
<path d="M209.75 286.82L211.6 288.68"/>
<path d="M402.28 310.35L183.13 310.35"/>
<path d="M176.75 164.25L176.75 145.67"/>
<path d="M176.75 228.63L176.75 210.06"/>
<path d="M176.32 246.58L176.32 268.87"/>
<path d="M176.32 182.2L176.32 204.49"/>
<path d="M175.08 129.58L175.08 102.34"/>
<path d="M173.27 141.96L173.27 135.77"/>
<path d="M170.13 179.1L170.13 164.25"/>
<path d="M170.13 243.49L170.13 228.63"/>
<path d="M170.13 252.77L170.13 262.68"/>
<path d="M170.13 188.39L170.13 198.3"/>
<path d="M168.89 135.77L168.89 96.15"/>
<path d="M202.32 290.54L198.6 286.82"/>
<path d="M170.13 262.68L176.32 268.87"/>
<path d="M155.27 252.77L149.08 246.58"/>
<path d="M158.98 298.14L183.86 304.16"/>
<path d="M157.53 304.16L183.13 310.35"/>
<path d="M401.54 304.16L426.42 298.14"/>
<path d="M402.28 310.35L427.88 304.16"/>
<path d="M162.7 135.77L162.7 96.15"/>
<path d="M158.98 290.54L158.98 298.14"/>
<path d="M158.32 135.77L158.32 141.96"/>
<path d="M156.51 129.58L156.51 102.34"/>
<path d="M155.27 198.3L155.27 188.39"/>
<path d="M155.27 262.68L155.27 252.77"/>
<path d="M155.27 228.63L155.27 243.49"/>
<path d="M155.27 164.25L155.27 179.1"/>
<path d="M150.32 135.77L156.51 129.58"/>
<path d="M158.32 141.96L162.7 135.77"/>
<path d="M152.79 279.39L152.79 273.2"/>
<path d="M152.79 290.54L152.79 298.14"/>
<path d="M150.32 284.35L150.32 290.54"/>
<path d="M149.08 204.49L149.08 182.2"/>
<path d="M149.08 268.87L149.08 246.58"/>
<path d="M148.64 210.06L148.64 228.63"/>
<path d="M148.64 145.67L148.64 164.25"/>
<path d="M145.36 206.34L145.36 191.49"/>
<path d="M144.12 135.77L144.12 96.15"/>
<path d="M144.12 191.49L144.12 141.96"/>
<path d="M144.12 264.54L144.12 206.34"/>
<path d="M152.79 273.2L144.12 264.54"/>
<path d="M137.93 273.2L144.12 279.39"/>
<path d="M162.7 96.15L156.51 102.34"/>
<path d="M137.93 278.16L137.93 96.15"/>
<path d="M104.91 177.83L107.09 176.74M107.09 176.74L110.35 173.48M110.35 173.48L110.35 196.33"/>
<path d="M114.77 243.17L113.68 246.43M113.68 246.43L111.51 248.61M111.51 248.61L108.24 249.7M108.24 249.7L107.15 249.7M107.15 249.7L103.89 248.61M103.89 248.61L101.71 246.43M101.71 246.43L100.63 243.17M100.63 243.17L100.63 242.08M100.63 242.08L101.71 238.82M101.71 238.82L103.89 236.64M103.89 236.64L107.15 235.55M107.15 235.55L108.24 235.55M108.24 235.55L111.51 236.64M111.51 236.64L113.68 238.82M113.68 238.82L114.77 243.17M114.77 243.17L114.77 248.61M114.77 248.61L113.68 254.05M113.68 254.05L111.51 257.32M111.51 257.32L108.24 258.4M108.24 258.4L106.07 258.4M106.07 258.4L102.8 257.32M102.8 257.32L101.71 255.14"/>
<path d="M471.83 173.48L468.57 174.56M468.57 174.56L467.48 176.74M467.48 176.74L467.48 178.92M467.48 178.92L468.57 181.09M468.57 181.09L470.75 182.18M470.75 182.18L475.1 183.27M475.1 183.27L478.36 184.36M478.36 184.36L480.54 186.53M480.54 186.53L481.63 188.71M481.63 188.71L481.63 191.97M481.63 191.97L480.54 194.15M480.54 194.15L479.45 195.24M479.45 195.24L476.19 196.33M476.19 196.33L471.83 196.33M471.83 196.33L468.57 195.24M468.57 195.24L467.48 194.15M467.48 194.15L466.39 191.97M466.39 191.97L466.39 188.71M466.39 188.71L467.48 186.53M467.48 186.53L469.66 184.36M469.66 184.36L472.92 183.27M472.92 183.27L477.28 182.18M477.28 182.18L479.45 181.09M479.45 181.09L480.54 178.92M480.54 178.92L480.54 176.74M480.54 176.74L479.45 174.56M479.45 174.56L476.19 173.48M476.19 173.48L471.83 173.48"/>
<path d="M467.92 239.91L470.1 238.82M470.1 238.82L473.36 235.55M473.36 235.55L473.36 258.4M498.39 238.82L497.3 236.64M497.3 236.64L494.04 235.55M494.04 235.55L491.86 235.55M491.86 235.55L488.59 236.64M488.59 236.64L486.42 239.91M486.42 239.91L485.33 245.35M485.33 245.35L485.33 250.79M485.33 250.79L486.42 255.14M486.42 255.14L488.59 257.32M488.59 257.32L491.86 258.4M491.86 258.4L492.95 258.4M492.95 258.4L496.21 257.32M496.21 257.32L498.39 255.14M498.39 255.14L499.48 251.88M499.48 251.88L499.48 250.79M499.48 250.79L498.39 247.52M498.39 247.52L496.21 245.35M496.21 245.35L492.95 244.26M492.95 244.26L491.86 244.26M491.86 244.26L488.59 245.35M488.59 245.35L486.42 247.52M486.42 247.52L485.33 250.79"/>
</g>
</g>
</svg>
