<?xml version="1.0" standalone="no"?><svg xmlns="http://www.w3.org/2000/svg" width="600.000" height="450.000" viewBox="0.0 0.0 600.000 450.000" version="1.1">
<title>Acme Converter - Post-processed with EDS-Designer: 14.44 (info@symca.com)</title>
<desc>Acme Converter - Post-processed with EDS-Designer: 14.44 (info@symca.com)</desc>
<g id="EDS_STYLE_GROUP" fill="none" stroke="black" stroke-width="1.0">
<g id="0" display="visible">
<path d="M363.15 62.54L361.86 57.74M361.86 57.74L358.34 54.22M358.34 54.22L353.54 52.93"/>
<path d="M194.89 139.46L300.66 139.46"/>
<path d="M300.66 139.46L300.66 177.92"/>
<path d="M300.66 177.92L194.89 177.92"/>
<path d="M194.89 177.92L194.89 139.46"/>
<path d="M300.66 168.31L291.04 168.31"/>
<path d="M291.04 168.31L291.04 163.5"/>
<path d="M291.04 163.5L281.43 163.5"/>
<path d="M281.43 163.5L281.43 168.31"/>
<path d="M281.43 168.31L271.81 168.31"/>
<path d="M271.81 168.31L271.81 177.92"/>
<path d="M209.31 177.92L209.31 168.31"/>
<path d="M209.31 168.31L218.93 168.31"/>
<path d="M218.93 168.31L218.93 163.5"/>
<path d="M218.93 163.5L228.54 163.5"/>
<path d="M228.54 163.5L228.54 168.31"/>
<path d="M228.54 168.31L238.16 168.31"/>
<path d="M238.16 168.31L238.16 177.92"/>
<path d="M199.7 177.92L199.7 151.48"/>
<path d="M206.91 144.27L288.64 144.27"/>
<path d="M295.85 151.48L295.85 168.31"/>
<path d="M206.91 144.27L203.3 145.24M203.3 145.24L200.67 147.87M200.67 147.87L199.7 151.48"/>
<path d="M295.85 151.48L294.88 147.87M294.88 147.87L292.24 145.24M292.24 145.24L288.64 144.27"/>
<path d="M209.31 187.54L209.31 206.77"/>
<path d="M209.31 206.77L238.16 206.77"/>
<path d="M238.16 206.77L238.16 187.54"/>
<path d="M238.16 187.54L209.31 187.54"/>
<path d="M300.66 187.54L271.81 187.54"/>
<path d="M271.81 187.54L271.81 206.77"/>
<path d="M271.81 206.77L300.66 206.77"/>
<path d="M300.66 206.77L300.66 187.54"/>
<path d="M334.31 187.54L334.31 206.77"/>
<path d="M334.31 206.77L363.15 206.77"/>
<path d="M363.15 206.77L363.15 187.54"/>
<path d="M363.15 187.54L334.31 187.54"/>
<path d="M329.5 177.92L329.5 139.46"/>
<path d="M329.5 139.46L387.19 139.46"/>
<path d="M387.19 139.46L387.19 177.92"/>
<path d="M387.19 177.92L329.5 177.92"/>
<path d="M329.5 168.31L339.11 168.31"/>
<path d="M339.11 168.31L339.11 163.5"/>
<path d="M339.11 163.5L348.73 163.5"/>
<path d="M348.73 163.5L348.73 168.31"/>
<path d="M348.73 168.31L358.34 168.31"/>
<path d="M358.34 168.31L358.34 177.92"/>
<path d="M334.31 168.31L334.31 151.48"/>
<path d="M341.52 144.27L375.17 144.27"/>
<path d="M382.38 151.48L382.38 177.92"/>
<path d="M341.52 144.27L337.91 145.24M337.91 145.24L335.27 147.87M335.27 147.87L334.31 151.48"/>
<path d="M382.38 151.48L381.42 147.87M381.42 147.87L378.78 145.24M378.78 145.24L375.17 144.27"/>
<path d="M194.89 226L300.66 226"/>
<path d="M300.66 226L300.66 264.46"/>
<path d="M300.66 264.46L194.89 264.46"/>
<path d="M194.89 264.46L194.89 226"/>
<path d="M300.66 254.84L291.04 254.84"/>
<path d="M291.04 254.84L291.04 250.03"/>
<path d="M291.04 250.03L281.43 250.03"/>
<path d="M281.43 250.03L281.43 254.84"/>
<path d="M281.43 254.84L271.81 254.84"/>
<path d="M271.81 254.84L271.81 264.46"/>
<path d="M209.31 264.46L209.31 254.84"/>
<path d="M209.31 254.84L218.93 254.84"/>
<path d="M218.93 254.84L218.93 250.03"/>
<path d="M218.93 250.03L228.54 250.03"/>
<path d="M228.54 250.03L228.54 254.84"/>
<path d="M228.54 254.84L238.16 254.84"/>
<path d="M238.16 254.84L238.16 264.46"/>
<path d="M199.7 264.46L199.7 238.01"/>
<path d="M206.91 230.8L288.64 230.8"/>
<path d="M295.85 238.01L295.85 254.84"/>
<path d="M206.91 230.8L203.3 231.77M203.3 231.77L200.67 234.41M200.67 234.41L199.7 238.01"/>
<path d="M295.85 238.01L294.88 234.41M294.88 234.41L292.24 231.77M292.24 231.77L288.64 230.8"/>
<path d="M209.31 274.07L209.31 293.3"/>
<path d="M209.31 293.3L238.16 293.3"/>
<path d="M238.16 293.3L238.16 274.07"/>
<path d="M238.16 274.07L209.31 274.07"/>
<path d="M300.66 274.07L271.81 274.07"/>
<path d="M271.81 274.07L271.81 293.3"/>
<path d="M271.81 293.3L300.66 293.3"/>
<path d="M300.66 293.3L300.66 274.07"/>
<path d="M334.31 274.07L334.31 293.3"/>
<path d="M334.31 293.3L363.15 293.3"/>
<path d="M363.15 293.3L363.15 274.07"/>
<path d="M363.15 274.07L334.31 274.07"/>
<path d="M329.5 264.46L329.5 226"/>
<path d="M329.5 226L387.19 226"/>
<path d="M387.19 226L387.19 264.46"/>
<path d="M387.19 264.46L329.5 264.46"/>
<path d="M329.5 254.84L339.11 254.84"/>
<path d="M339.11 254.84L339.11 250.03"/>
<path d="M339.11 250.03L348.73 250.03"/>
<path d="M348.73 250.03L348.73 254.84"/>
<path d="M348.73 254.84L358.34 254.84"/>
<path d="M358.34 254.84L358.34 264.46"/>
<path d="M334.31 254.84L334.31 238.01"/>
<path d="M341.52 230.8L375.17 230.8"/>
<path d="M382.38 238.01L382.38 264.46"/>
<path d="M341.52 230.8L337.91 231.77M337.91 231.77L335.27 234.41M335.27 234.41L334.31 238.01"/>
<path d="M382.38 238.01L381.42 234.41M381.42 234.41L378.78 231.77M378.78 231.77L375.17 230.8"/>
<path d="M180.47 134.65L180.47 182.73"/>
<path d="M180.47 182.73L190.08 182.73"/>
<path d="M190.08 182.73L190.08 192.34"/>
<path d="M190.08 192.34L180.47 192.34"/>
<path d="M180.47 192.34L180.47 201.96"/>
<path d="M180.47 201.96L190.08 201.96"/>
<path d="M190.08 201.96L190.08 216.38"/>
<path d="M190.08 216.38L180.47 216.38"/>
<path d="M180.47 298.11L180.47 274.07"/>
<path d="M180.47 274.07L190.08 274.07"/>
<path d="M190.08 274.07L190.08 264.46"/>
<path d="M190.08 264.46L180.47 264.46"/>
<path d="M180.47 264.46L180.47 254.84"/>
<path d="M180.47 254.84L190.08 254.84"/>
<path d="M190.08 254.84L190.08 240.42"/>
<path d="M190.08 240.42L180.47 240.42"/>
<path d="M180.47 240.42L180.47 216.38"/>
<path d="M401.61 134.65L401.61 182.73"/>
<path d="M401.61 182.73L392 182.73"/>
<path d="M392 182.73L392 192.34"/>
<path d="M392 192.34L401.61 192.34"/>
<path d="M401.61 192.34L401.61 201.96"/>
<path d="M401.61 201.96L392 201.96"/>
<path d="M392 201.96L392 216.38"/>
<path d="M392 216.38L401.61 216.38"/>
<path d="M401.61 216.38L401.61 240.42"/>
<path d="M401.61 240.42L392 240.42"/>
<path d="M392 240.42L392 254.84"/>
<path d="M392 254.84L401.61 254.84"/>
<path d="M401.61 254.84L401.61 264.46"/>
<path d="M401.61 264.46L392 264.46"/>
<path d="M392 264.46L392 274.07"/>
<path d="M392 274.07L401.61 274.07"/>
<path d="M401.61 274.07L401.61 298.11"/>
<path d="M392 307.72L190.08 307.72"/>
<path d="M190.08 125.04L185.28 126.33M185.28 126.33L181.76 129.85M181.76 129.85L180.47 134.65"/>
<path d="M401.61 134.65L400.32 129.85M400.32 129.85L396.8 126.33M396.8 126.33L392 125.04"/>
<path d="M392 307.72L396.8 306.43M396.8 306.43L400.32 302.91M400.32 302.91L401.61 298.11"/>
<path d="M180.47 298.11L181.76 302.91M181.76 302.91L185.28 306.43M185.28 306.43L190.08 307.72"/>
<path d="M233.35 125.04L233.35 101"/>
<path d="M233.35 101L252.58 101"/>
<path d="M252.58 101L252.58 125.04"/>
<path d="M348.73 125.04L348.73 101"/>
<path d="M348.73 101L329.5 101"/>
<path d="M329.5 101L329.5 125.04"/>
<path d="M190.08 125.04L233.35 125.04"/>
<path d="M252.58 125.04L329.5 125.04"/>
<path d="M348.73 125.04L392 125.04"/>
<path d="M257.39 101L257.39 120.23"/>
<path d="M257.39 120.23L324.69 120.23"/>
<path d="M324.69 120.23L324.69 101"/>
<path d="M324.69 101L319.88 101"/>
<path d="M319.88 101L319.88 115.42"/>
<path d="M319.88 115.42L262.2 115.42"/>
<path d="M262.2 115.42L262.2 101"/>
<path d="M262.2 101L257.39 101"/>
<path d="M175.66 101L175.66 312.53"/>
<path d="M175.66 312.53L406.42 312.53"/>
<path d="M406.42 115.42L387.19 115.42"/>
<path d="M387.19 105.81L406.42 105.81"/>
<path d="M406.42 312.53L406.42 115.42"/>
<path d="M406.42 115.42L406.42 72.16"/>
<path d="M406.42 72.16L363.15 72.16"/>
<path d="M363.15 72.16L363.15 110.62"/>
<path d="M353.54 110.62L353.54 62.54"/>
<path d="M353.54 62.54L310.27 62.54"/>
<path d="M310.27 62.54L310.27 76.97"/>
<path d="M310.27 76.97L271.81 76.97"/>
<path d="M271.81 76.97L271.81 62.54"/>
<path d="M271.81 62.54L228.54 62.54"/>
<path d="M228.54 62.54L228.54 115.42"/>
<path d="M228.54 115.42L218.93 115.42"/>
<path d="M218.93 115.42L204.51 115.42"/>
<path d="M204.51 105.81L218.93 105.81"/>
<path d="M218.93 105.81L218.93 72.16"/>
<path d="M175.66 72.16L175.66 101"/>
<path d="M166.05 72.16L166.05 312.53"/>
<path d="M175.66 322.14L406.42 322.14"/>
<path d="M416.03 312.53L416.03 72.16"/>
<path d="M406.42 62.54L363.15 62.54"/>
<path d="M218.93 72.16L175.66 72.16"/>
<path d="M353.54 52.93L228.54 52.93"/>
<path d="M218.93 62.54L175.66 62.54"/>
<path d="M175.66 62.54L170.85 63.83M170.85 63.83L167.34 67.35M167.34 67.35L166.05 72.16"/>
<path d="M416.03 72.16L414.75 67.35M414.75 67.35L411.23 63.83M411.23 63.83L406.42 62.54"/>
<path d="M406.42 322.14L411.23 320.86M411.23 320.86L414.75 317.34M414.75 317.34L416.03 312.53"/>
<path d="M166.05 312.53L167.34 317.34M167.34 317.34L170.85 320.86M170.85 320.86L175.66 322.14"/>
<path d="M228.54 52.93L223.74 54.22M223.74 54.22L220.22 57.74M220.22 57.74L218.93 62.54"/>
<path d="M387.19 105.81L383.79 107.22M383.79 107.22L382.38 110.62"/>
<path d="M382.38 110.62L383.79 114.02M383.79 114.02L387.19 115.42"/>
<path d="M358.34 115.42L360.75 114.78M360.75 114.78L362.51 113.02M362.51 113.02L363.15 110.62"/>
<path d="M353.54 110.62L354.94 114.02M354.94 114.02L358.34 115.42"/>
<path d="M204.51 105.81L201.11 107.22M201.11 107.22L199.7 110.62"/>
<path d="M199.7 110.62L201.11 114.02M201.11 114.02L204.51 115.42"/>
<path d="M204.51 322.14L204.51 341.37"/>
<path d="M209.31 346.18L233.35 346.18"/>
<path d="M238.16 341.37L238.16 322.14"/>
<path d="M367.96 322.14L367.96 341.37"/>
<path d="M363.15 346.18L339.11 346.18"/>
<path d="M334.31 341.37L334.31 322.14"/>
<path d="M267 322.14L267 331.76"/>
<path d="M267 331.76L300.66 331.76"/>
<path d="M300.66 331.76L300.66 322.14"/>
<path d="M204.51 341.37L205.15 343.78M205.15 343.78L206.91 345.54M206.91 345.54L209.31 346.18"/>
<path d="M233.35 346.18L235.75 345.54M235.75 345.54L237.51 343.78M237.51 343.78L238.16 341.37"/>
<path d="M334.31 341.37L334.95 343.78M334.95 343.78L336.71 345.54M336.71 345.54L339.11 346.18"/>
<path d="M363.15 346.18L365.56 345.54M365.56 345.54L367.32 343.78M367.32 343.78L367.96 341.37"/>
<path d="M134.91 152.74L136.74 151.82M136.74 151.82L139.49 149.08M139.49 149.08L139.49 168.31"/>
<path d="M440.3 149.08L450.37 149.08M450.37 149.08L444.88 156.4M444.88 156.4L447.63 156.4M447.63 156.4L449.46 157.32M449.46 157.32L450.37 158.23M450.37 158.23L451.29 160.98M451.29 160.98L451.29 162.81M451.29 162.81L450.37 165.56M450.37 165.56L448.54 167.39M448.54 167.39L445.79 168.31M445.79 168.31L443.05 168.31M443.05 168.31L440.3 167.39M440.3 167.39L439.38 166.48M439.38 166.48L438.47 164.64"/>
<path d="M139.49 235.61L130.33 248.43M130.33 248.43L144.07 248.43M139.49 235.61L139.49 254.84"/>
<path d="M449.91 238.36L449 236.53M449 236.53L446.25 235.61M446.25 235.61L444.42 235.61M444.42 235.61L441.67 236.53M441.67 236.53L439.84 239.27M439.84 239.27L438.93 243.85M438.93 243.85L438.93 248.43M438.93 248.43L439.84 252.09M439.84 252.09L441.67 253.92M441.67 253.92L444.42 254.84M444.42 254.84L445.34 254.84M445.34 254.84L448.08 253.92M448.08 253.92L449.91 252.09M449.91 252.09L450.83 249.35M450.83 249.35L450.83 248.43M450.83 248.43L449.91 245.68M449.91 245.68L448.08 243.85M448.08 243.85L445.34 242.94M445.34 242.94L444.42 242.94M444.42 242.94L441.67 243.85M441.67 243.85L439.84 245.68M439.84 245.68L438.93 248.43"/>
<path d="M179.44 399.06L179.44 375.03M180.58 375.03L180.58 399.06M176.01 375.03L184.02 375.03M176.01 399.06L193.17 399.06M193.17 399.06L193.17 392.2M193.17 392.2L192.03 399.06M200.04 399.06L200.04 375.03M201.19 375.03L201.19 399.06M196.61 375.03L204.62 375.03M196.61 399.06L204.62 399.06M225.22 378.46L226.37 381.89M226.37 381.89L226.37 375.03M226.37 375.03L225.22 378.46M225.22 378.46L222.94 376.17M222.94 376.17L219.5 375.03M219.5 375.03L217.21 375.03M217.21 375.03L213.78 376.17M213.78 376.17L211.49 378.46M211.49 378.46L210.34 380.75M210.34 380.75L209.2 384.18M209.2 384.18L209.2 389.91M209.2 389.91L210.34 393.34M210.34 393.34L211.49 395.63M211.49 395.63L213.78 397.92M213.78 397.92L217.21 399.06M217.21 399.06L219.5 399.06M219.5 399.06L222.94 397.92M222.94 397.92L225.22 395.63M217.21 375.03L214.92 376.17M214.92 376.17L212.63 378.46M212.63 378.46L211.49 380.75M211.49 380.75L210.34 384.18M210.34 384.18L210.34 389.91M210.34 389.91L211.49 393.34M211.49 393.34L212.63 395.63M212.63 395.63L214.92 397.92M214.92 397.92L217.21 399.06M225.22 389.91L225.22 399.06M226.37 389.91L226.37 399.06M221.79 389.91L229.8 389.91M238.96 399.06L238.96 375.03M240.1 375.03L240.1 399.06M253.84 399.06L253.84 375.03M254.98 375.03L254.98 399.06M235.53 375.03L243.54 375.03M250.41 375.03L258.42 375.03M240.1 386.47L253.84 386.47M235.53 399.06L243.54 399.06M250.41 399.06L258.42 399.06M271.01 399.06L271.01 375.03M272.15 375.03L272.15 399.06M264.14 375.03L263 381.89M263 381.89L263 375.03M263 375.03L280.17 375.03M280.17 375.03L280.17 381.89M280.17 381.89L279.02 375.03M267.58 399.06L275.59 399.06M324.81 378.46L325.95 381.89M325.95 381.89L325.95 375.03M325.95 375.03L324.81 378.46M324.81 378.46L322.52 376.17M322.52 376.17L319.08 375.03M319.08 375.03L316.79 375.03M316.79 375.03L313.36 376.17M313.36 376.17L311.07 378.46M311.07 378.46L309.93 380.75M309.93 380.75L308.78 384.18M308.78 384.18L308.78 389.91M308.78 389.91L309.93 393.34M309.93 393.34L311.07 395.63M311.07 395.63L313.36 397.92M313.36 397.92L316.79 399.06M316.79 399.06L319.08 399.06M319.08 399.06L322.52 397.92M322.52 397.92L324.81 395.63M316.79 375.03L314.51 376.17M314.51 376.17L312.22 378.46M312.22 378.46L311.07 380.75M311.07 380.75L309.93 384.18M309.93 384.18L309.93 389.91M309.93 389.91L311.07 393.34M311.07 393.34L312.22 395.63M312.22 395.63L314.51 397.92M314.51 397.92L316.79 399.06M324.81 389.91L324.81 399.06M325.95 389.91L325.95 399.06M321.37 389.91L329.39 389.91M338.54 399.06L338.54 375.03M339.69 375.03L339.69 399.06M335.11 375.03L348.84 375.03M348.84 375.03L352.28 376.17M352.28 376.17L353.42 377.32M353.42 377.32L354.57 379.6M354.57 379.6L354.57 381.89M354.57 381.89L353.42 384.18M353.42 384.18L352.28 385.33M352.28 385.33L348.84 386.47M348.84 386.47L339.69 386.47M348.84 375.03L351.13 376.17M351.13 376.17L352.28 377.32M352.28 377.32L353.42 379.6M353.42 379.6L353.42 381.89M353.42 381.89L352.28 384.18M352.28 384.18L351.13 385.33M351.13 385.33L348.84 386.47M335.11 399.06L343.12 399.06M345.41 386.47L347.7 387.62M347.7 387.62L348.84 388.76M348.84 388.76L352.28 396.77M352.28 396.77L353.42 397.92M353.42 397.92L354.57 397.92M354.57 397.92L355.71 396.77M347.7 387.62L348.84 389.91M348.84 389.91L351.13 397.92M351.13 397.92L352.28 399.06M352.28 399.06L354.57 399.06M354.57 399.06L355.71 396.77M355.71 396.77L355.71 395.63M363.72 399.06L363.72 375.03M364.87 375.03L364.87 399.06M371.74 381.89L371.74 391.05M360.29 375.03L378.6 375.03M378.6 375.03L378.6 381.89M378.6 381.89L377.46 375.03M364.87 386.47L371.74 386.47M360.29 399.06L378.6 399.06M378.6 399.06L378.6 392.2M378.6 392.2L377.46 399.06M386.62 375.03L394.63 387.62M394.63 387.62L394.63 399.06M387.76 375.03L395.77 387.62M395.77 387.62L395.77 399.06M403.79 375.03L395.77 387.62M384.33 375.03L391.2 375.03M399.21 375.03L406.08 375.03M391.2 399.06L399.21 399.06"/>
</g>
</g>
</svg>
