<?xml version="1.0" standalone="no"?><svg xmlns="http://www.w3.org/2000/svg" width="600.000" height="450.000" viewBox="0.0 0.0 600.000 450.000" version="1.1">
<title>Acme Converter - Post-processed with EDS-Designer: 14.44 (info@symca.com)</title>
<desc>Acme Converter - Post-processed with EDS-Designer: 14.44 (info@symca.com)</desc>
<g id="EDS_STYLE_GROUP" fill="none" stroke="black" stroke-width="1.0">
<g id="0" display="visible">
<path d="M180.15 226.29L239.56 226.29"/>
<path d="M209.85 268.73L239.56 268.73"/>
<path d="M209.85 268.73L209.85 256"/>
<path d="M209.85 256L197.12 256"/>
<path d="M197.12 256L197.12 247.51"/>
<path d="M197.12 247.51L209.85 247.51"/>
<path d="M239.56 260.24L239.56 256"/>
<path d="M239.56 256L252.29 256"/>
<path d="M252.29 256L252.29 247.51"/>
<path d="M252.29 247.51L239.56 247.51"/>
<path d="M239.56 247.51L239.56 239.02"/>
<path d="M239.56 239.02L209.85 239.02"/>
<path d="M209.85 239.02L209.85 247.51"/>
<path d="M239.56 260.24L260.78 260.24"/>
<path d="M260.78 260.24L260.78 239.02"/>
<path d="M260.78 239.02L269.26 239.02"/>
<path d="M269.26 239.02L269.26 260.24"/>
<path d="M269.26 260.24L290.48 260.24"/>
<path d="M290.48 260.24L290.48 256"/>
<path d="M290.48 256L277.75 256"/>
<path d="M277.75 256L277.75 247.51"/>
<path d="M277.75 247.51L290.48 247.51"/>
<path d="M290.48 247.51L290.48 239.02"/>
<path d="M290.48 239.02L320.19 239.02"/>
<path d="M320.19 239.02L320.19 247.51"/>
<path d="M320.19 247.51L332.92 247.51"/>
<path d="M332.92 247.51L332.92 256"/>
<path d="M332.92 256L320.19 256"/>
<path d="M320.19 256L320.19 268.73"/>
<path d="M320.19 268.73L286.24 268.73"/>
<path d="M286.24 268.73L286.24 264.49"/>
<path d="M286.24 264.49L273.51 264.49"/>
<path d="M273.51 264.49L273.51 268.73"/>
<path d="M273.51 268.73L256.53 268.73"/>
<path d="M256.53 268.73L256.53 264.49"/>
<path d="M256.53 264.49L243.8 264.49"/>
<path d="M243.8 264.49L243.8 268.73"/>
<path d="M243.8 268.73L239.56 268.73"/>
<path d="M201.37 268.73L201.37 264.49"/>
<path d="M201.37 264.49L192.88 264.49"/>
<path d="M192.88 264.49L192.88 268.73"/>
<path d="M328.67 268.73L328.67 264.49"/>
<path d="M328.67 264.49L337.16 264.49"/>
<path d="M337.16 264.49L337.16 268.73"/>
<path d="M209.85 268.73L184.39 268.73"/>
<path d="M184.39 268.73L184.39 230.54"/>
<path d="M320.19 268.73L349.89 268.73"/>
<path d="M349.89 268.73L349.89 230.54"/>
<path d="M349.89 230.54L184.39 230.54"/>
<path d="M248.04 222.05L248.04 226.29"/>
<path d="M248.04 226.29L281.99 226.29"/>
<path d="M281.99 226.29L281.99 222.05"/>
<path d="M281.99 222.05L248.04 222.05"/>
<path d="M239.56 226.29L243.8 217.81"/>
<path d="M243.8 217.81L243.8 200.83"/>
<path d="M243.8 200.83L286.24 200.83"/>
<path d="M286.24 200.83L286.24 217.81"/>
<path d="M286.24 217.81L290.48 226.29"/>
<path d="M290.48 226.29L354.13 226.29"/>
<path d="M354.13 226.29L354.13 268.73"/>
<path d="M354.13 268.73L349.89 268.73"/>
<path d="M184.39 268.73L180.15 268.73"/>
<path d="M180.15 268.73L180.15 226.29"/>
<path d="M209.85 175.37L197.12 175.37"/>
<path d="M197.12 175.37L197.12 166.88"/>
<path d="M197.12 166.88L209.85 166.88"/>
<path d="M239.56 179.61L239.56 175.37"/>
<path d="M239.56 175.37L252.29 175.37"/>
<path d="M252.29 175.37L252.29 166.88"/>
<path d="M252.29 166.88L239.56 166.88"/>
<path d="M239.56 166.88L239.56 158.4"/>
<path d="M239.56 158.4L209.85 158.4"/>
<path d="M209.85 158.4L209.85 166.88"/>
<path d="M239.56 179.61L260.78 179.61"/>
<path d="M260.78 179.61L260.78 158.4"/>
<path d="M260.78 158.4L269.26 158.4"/>
<path d="M269.26 158.4L269.26 179.61"/>
<path d="M269.26 179.61L290.48 179.61"/>
<path d="M290.48 179.61L290.48 175.37"/>
<path d="M290.48 175.37L277.75 175.37"/>
<path d="M277.75 175.37L277.75 166.88"/>
<path d="M277.75 166.88L290.48 166.88"/>
<path d="M290.48 166.88L290.48 158.4"/>
<path d="M290.48 158.4L320.19 158.4"/>
<path d="M320.19 158.4L320.19 166.88"/>
<path d="M320.19 166.88L332.92 166.88"/>
<path d="M332.92 166.88L332.92 175.37"/>
<path d="M332.92 175.37L320.19 175.37"/>
<path d="M209.85 175.37L209.85 188.1"/>
<path d="M209.85 188.1L201.37 188.1"/>
<path d="M201.37 188.1L201.37 183.86"/>
<path d="M201.37 183.86L192.88 183.86"/>
<path d="M192.88 183.86L192.88 188.1"/>
<path d="M192.88 188.1L188.63 188.1"/>
<path d="M188.63 188.1L188.63 183.86"/>
<path d="M192.88 179.61L192.88 149.91"/>
<path d="M320.19 175.37L320.19 188.1"/>
<path d="M320.19 188.1L328.67 188.1"/>
<path d="M328.67 188.1L328.67 183.86"/>
<path d="M328.67 183.86L337.16 183.86"/>
<path d="M337.16 183.86L337.16 188.1"/>
<path d="M337.16 188.1L341.4 188.1"/>
<path d="M341.4 188.1L341.4 183.86"/>
<path d="M337.16 179.61L337.16 149.91"/>
<path d="M171.66 192.34L171.66 277.22"/>
<path d="M205.61 311.16L328.67 311.16"/>
<path d="M362.62 277.22L362.62 192.34"/>
<path d="M362.62 192.34L171.66 192.34"/>
<path d="M171.66 277.22L173.32 287.71M173.32 287.71L178.14 297.17M178.14 297.17L185.65 304.68M185.65 304.68L195.12 309.5M195.12 309.5L205.61 311.16"/>
<path d="M328.67 311.16L339.16 309.5M339.16 309.5L348.63 304.68M348.63 304.68L356.14 297.17M356.14 297.17L360.96 287.71M360.96 287.71L362.62 277.22"/>
<path d="M265.02 285.7L265.02 298.43"/>
<path d="M265.02 298.43L298.97 298.43"/>
<path d="M298.97 298.43L298.97 285.7"/>
<path d="M298.97 285.7L265.02 285.7"/>
<path d="M192.88 179.61L167.42 179.61"/>
<path d="M188.63 183.86L167.42 183.86"/>
<path d="M341.4 183.86L366.87 183.86"/>
<path d="M337.16 179.61L366.87 179.61"/>
<path d="M192.88 149.91L218.34 149.91"/>
<path d="M218.34 149.91L218.34 124.45"/>
<path d="M222.58 124.45L222.58 149.91"/>
<path d="M222.58 149.91L307.46 149.91"/>
<path d="M307.46 149.91L307.46 124.45"/>
<path d="M311.7 124.45L311.7 149.91"/>
<path d="M311.7 149.91L337.16 149.91"/>
<path d="M167.42 179.61L167.42 158.4"/>
<path d="M201.37 124.45L218.34 124.45"/>
<path d="M222.58 124.45L307.46 124.45"/>
<path d="M311.7 124.45L332.92 124.45"/>
<path d="M366.87 158.4L366.87 179.61"/>
<path d="M167.42 183.86L167.42 281.46"/>
<path d="M201.37 315.41L332.92 315.41"/>
<path d="M366.87 281.46L366.87 183.86"/>
<path d="M201.37 124.45L190.87 126.11M190.87 126.11L181.41 130.93M181.41 130.93L173.9 138.44M173.9 138.44L169.08 147.9M169.08 147.9L167.42 158.4"/>
<path d="M167.42 281.46L169.08 291.95M169.08 291.95L173.9 301.41M173.9 301.41L181.41 308.92M181.41 308.92L190.87 313.75M190.87 313.75L201.37 315.41"/>
<path d="M332.92 315.41L343.41 313.75M343.41 313.75L352.87 308.92M352.87 308.92L360.38 301.41M360.38 301.41L365.2 291.95M365.2 291.95L366.87 281.46"/>
<path d="M366.87 158.4L365.2 147.9M365.2 147.9L360.38 138.44M360.38 138.44L352.87 130.93M352.87 130.93L343.41 126.11M343.41 126.11L332.92 124.45"/>
<path d="M158.93 149.91L158.93 226.29"/>
<path d="M158.93 226.29L150.44 226.29"/>
<path d="M150.44 226.29L150.44 234.78"/>
<path d="M150.44 234.78L158.93 234.78"/>
<path d="M158.93 234.78L158.93 243.27"/>
<path d="M158.93 243.27L150.44 243.27"/>
<path d="M150.44 243.27L150.44 251.75"/>
<path d="M150.44 251.75L158.93 251.75"/>
<path d="M158.93 251.75L158.93 289.95"/>
<path d="M192.88 323.9L341.4 323.9"/>
<path d="M375.35 289.95L375.35 272.97"/>
<path d="M375.35 272.97L396.57 272.97"/>
<path d="M396.57 272.97L396.57 260.24"/>
<path d="M396.57 260.24L375.35 260.24"/>
<path d="M375.35 260.24L375.35 251.75"/>
<path d="M375.35 251.75L383.84 251.75"/>
<path d="M383.84 251.75L383.84 243.27"/>
<path d="M383.84 243.27L375.35 243.27"/>
<path d="M375.35 243.27L375.35 234.78"/>
<path d="M375.35 234.78L383.84 234.78"/>
<path d="M383.84 234.78L383.84 226.29"/>
<path d="M383.84 226.29L375.35 226.29"/>
<path d="M375.35 226.29L375.35 149.91"/>
<path d="M341.4 115.96L192.88 115.96"/>
<path d="M192.88 115.96L182.39 117.62M182.39 117.62L172.92 122.44M172.92 122.44L165.41 129.95M165.41 129.95L160.59 139.42M160.59 139.42L158.93 149.91"/>
<path d="M375.35 149.91L373.69 139.42M373.69 139.42L368.87 129.95M368.87 129.95L361.36 122.44M361.36 122.44L351.89 117.62M351.89 117.62L341.4 115.96"/>
<path d="M341.4 323.9L351.89 322.23M351.89 322.23L361.36 317.41M361.36 317.41L368.87 309.9M368.87 309.9L373.69 300.44M373.69 300.44L375.35 289.95"/>
<path d="M158.93 289.95L160.59 300.44M160.59 300.44L165.41 309.9M165.41 309.9L172.92 317.41M172.92 317.41L182.39 322.23M182.39 322.23L192.88 323.9"/>
<path d="M209.85 115.96L209.85 69.28"/>
<path d="M320.19 115.96L320.19 69.28"/>
<path d="M315.94 65.04L214.1 65.04"/>
<path d="M222.58 115.96L222.58 77.77"/>
<path d="M222.58 77.77L252.29 77.77"/>
<path d="M252.29 77.77L252.29 86.25"/>
<path d="M307.46 115.96L307.46 77.77"/>
<path d="M307.46 77.77L277.75 77.77"/>
<path d="M277.75 77.77L277.75 86.25"/>
<path d="M277.75 86.25L252.29 86.25"/>
<path d="M214.1 65.04L211.1 66.28M211.1 66.28L209.85 69.28"/>
<path d="M320.19 69.28L319.62 67.16M319.62 67.16L318.06 65.6M318.06 65.6L315.94 65.04"/>
<path d="M201.37 323.9L215.15 334.73M215.15 334.73L230.74 342.76M230.74 342.76L247.57 347.69M247.57 347.69L265.02 349.36M265.02 349.36L282.47 347.69M282.47 347.69L299.3 342.76M299.3 342.76L314.89 334.73M314.89 334.73L328.67 323.9"/>
<path d="M218.34 323.9L232.43 333.15M232.43 333.15L248.27 338.91M248.27 338.91L265.02 340.87M265.02 340.87L281.76 338.91M281.76 338.91L297.61 333.15M297.61 333.15L311.7 323.9"/>
<path d="M235.31 323.9L246.59 329.28M246.59 329.28L258.77 332.03M258.77 332.03L271.27 332.03M271.27 332.03L283.45 329.28M283.45 329.28L294.72 323.9"/>
<path d="M122.96 170.12L124.58 169.31M124.58 169.31L127 166.88M127 166.88L127 183.86"/>
<path d="M417.18 170.92L417.18 170.12M417.18 170.12L417.99 168.5M417.99 168.5L418.8 167.69M418.8 167.69L420.42 166.88M420.42 166.88L423.65 166.88M423.65 166.88L425.27 167.69M425.27 167.69L426.07 168.5M426.07 168.5L426.88 170.12M426.88 170.12L426.88 171.73M426.88 171.73L426.07 173.35M426.07 173.35L424.46 175.77M424.46 175.77L416.37 183.86M416.37 183.86L427.69 183.86"/>
<path d="M120.94 247.51L129.83 247.51M129.83 247.51L124.98 253.98M124.98 253.98L127.41 253.98M127.41 253.98L129.02 254.79M129.02 254.79L129.83 255.59M129.83 255.59L130.64 258.02M130.64 258.02L130.64 259.64M130.64 259.64L129.83 262.06M129.83 262.06L128.21 263.68M128.21 263.68L125.79 264.49M125.79 264.49L123.36 264.49M123.36 264.49L120.94 263.68M120.94 263.68L120.13 262.87M120.13 262.87L119.32 261.25"/>
<path d="M424.05 247.51L415.97 258.83M415.97 258.83L428.09 258.83M424.05 247.51L424.05 264.49"/>
<path d="M179.04 391.79L179.04 370.58M180.05 370.58L180.05 391.79M176 370.58L186.11 370.58M186.11 370.58L189.14 371.59M189.14 371.59L191.16 373.61M191.16 373.61L192.17 375.63M192.17 375.63L193.18 378.66M193.18 378.66L193.18 383.71M193.18 383.71L192.17 386.74M192.17 386.74L191.16 388.76M191.16 388.76L189.14 390.78M189.14 390.78L186.11 391.79M186.11 391.79L176 391.79M186.11 370.58L188.13 371.59M188.13 371.59L190.15 373.61M190.15 373.61L191.16 375.63M191.16 375.63L192.17 378.66M192.17 378.66L192.17 383.71M192.17 383.71L191.16 386.74M191.16 386.74L190.15 388.76M190.15 388.76L188.13 390.78M188.13 390.78L186.11 391.79M207.33 370.58L200.25 391.79M207.33 370.58L214.4 391.79M207.33 373.61L213.39 391.79M202.27 385.73L211.37 385.73M198.23 391.79L204.3 391.79M210.36 391.79L216.42 391.79M222.48 391.79L222.48 370.58M223.49 370.58L223.49 391.79M219.45 370.58L231.58 370.58M231.58 370.58L234.61 371.59M234.61 371.59L235.62 372.6M235.62 372.6L236.63 374.62M236.63 374.62L236.63 376.64M236.63 376.64L235.62 378.66M235.62 378.66L234.61 379.67M234.61 379.67L231.58 380.68M231.58 380.68L223.49 380.68M231.58 370.58L233.6 371.59M233.6 371.59L234.61 372.6M234.61 372.6L235.62 374.62M235.62 374.62L235.62 376.64M235.62 376.64L234.61 378.66M234.61 378.66L233.6 379.67M233.6 379.67L231.58 380.68M219.45 391.79L226.52 391.79M228.54 380.68L230.57 381.69M230.57 381.69L231.58 382.7M231.58 382.7L234.61 389.77M234.61 389.77L235.62 390.78M235.62 390.78L236.63 390.78M236.63 390.78L237.64 389.77M230.57 381.69L231.58 383.71M231.58 383.71L233.6 390.78M233.6 390.78L234.61 391.79M234.61 391.79L236.63 391.79M236.63 391.79L237.64 389.77M237.64 389.77L237.64 388.76M244.71 391.79L244.71 370.58M245.72 370.58L245.72 391.79M258.86 370.58L245.72 383.71M250.77 379.67L258.86 391.79M249.76 379.67L257.85 391.79M241.68 370.58L248.75 370.58M254.81 370.58L260.88 370.58M241.68 391.79L248.75 391.79M254.81 391.79L260.88 391.79M299.27 373.61L300.28 376.64M300.28 376.64L300.28 370.58M300.28 370.58L299.27 373.61M299.27 373.61L297.25 371.59M297.25 371.59L294.22 370.58M294.22 370.58L292.2 370.58M292.2 370.58L289.17 371.59M289.17 371.59L287.15 373.61M287.15 373.61L286.14 375.63M286.14 375.63L285.13 378.66M285.13 378.66L285.13 383.71M285.13 383.71L286.14 386.74M286.14 386.74L287.15 388.76M287.15 388.76L289.17 390.78M289.17 390.78L292.2 391.79M292.2 391.79L294.22 391.79M294.22 391.79L297.25 390.78M297.25 390.78L299.27 388.76M292.2 370.58L290.18 371.59M290.18 371.59L288.16 373.61M288.16 373.61L287.15 375.63M287.15 375.63L286.14 378.66M286.14 378.66L286.14 383.71M286.14 383.71L287.15 386.74M287.15 386.74L288.16 388.76M288.16 388.76L290.18 390.78M290.18 390.78L292.2 391.79M299.27 383.71L299.27 391.79M300.28 383.71L300.28 391.79M296.24 383.71L303.31 383.71M311.4 391.79L311.4 370.58M312.41 370.58L312.41 391.79M308.36 370.58L320.49 370.58M320.49 370.58L323.52 371.59M323.52 371.59L324.53 372.6M324.53 372.6L325.54 374.62M325.54 374.62L325.54 376.64M325.54 376.64L324.53 378.66M324.53 378.66L323.52 379.67M323.52 379.67L320.49 380.68M320.49 380.68L312.41 380.68M320.49 370.58L322.51 371.59M322.51 371.59L323.52 372.6M323.52 372.6L324.53 374.62M324.53 374.62L324.53 376.64M324.53 376.64L323.52 378.66M323.52 378.66L322.51 379.67M322.51 379.67L320.49 380.68M308.36 391.79L315.44 391.79M317.46 380.68L319.48 381.69M319.48 381.69L320.49 382.7M320.49 382.7L323.52 389.77M323.52 389.77L324.53 390.78M324.53 390.78L325.54 390.78M325.54 390.78L326.55 389.77M319.48 381.69L320.49 383.71M320.49 383.71L322.51 390.78M322.51 390.78L323.52 391.79M323.52 391.79L325.54 391.79M325.54 391.79L326.55 389.77M326.55 389.77L326.55 388.76M333.62 391.79L333.62 370.58M334.63 370.58L334.63 391.79M340.7 376.64L340.7 384.72M330.59 370.58L346.76 370.58M346.76 370.58L346.76 376.64M346.76 376.64L345.75 370.58M334.63 380.68L340.7 380.68M330.59 391.79L346.76 391.79M346.76 391.79L346.76 385.73M346.76 385.73L345.75 391.79M353.83 370.58L360.9 381.69M360.9 381.69L360.9 391.79M354.84 370.58L361.91 381.69M361.91 381.69L361.91 391.79M368.99 370.58L361.91 381.69M351.81 370.58L357.87 370.58M364.95 370.58L371.01 370.58M357.87 391.79L364.95 391.79"/>
</g>
</g>
</svg>
