<?xml version="1.0" standalone="no"?><svg xmlns="http://www.w3.org/2000/svg" width="600.000" height="450.000" viewBox="0.0 0.0 600.000 450.000" version="1.1">
<title>Acme Converter - Post-processed with EDS-Designer: 14.44 (info@symca.com)</title>
<desc>Acme Converter - Post-processed with EDS-Designer: 14.44 (info@symca.com)</desc>
<g id="EDS_STYLE_GROUP" fill="none" stroke="black" stroke-width="1.0">
<g id="0" display="visible">
<path d="M228.22 171.08L286.68 171.08"/>
<path d="M286.68 171.08L286.68 179.43"/>
<path d="M286.68 179.43L269.97 179.43"/>
<path d="M228.22 171.08L228.22 179.43"/>
<path d="M228.22 179.43L244.92 179.43"/>
<path d="M244.92 179.43L244.92 204.48"/>
<path d="M269.97 179.43L269.97 204.48"/>
<path d="M244.92 183.6L224.04 183.6"/>
<path d="M224.04 183.6L224.04 166.9"/>
<path d="M224.04 166.9L290.85 166.9"/>
<path d="M290.85 166.9L290.85 183.6"/>
<path d="M290.85 183.6L269.97 183.6"/>
<path d="M228.22 179.43L224.04 183.6"/>
<path d="M228.22 171.08L224.04 166.9"/>
<path d="M286.68 171.08L290.85 166.9"/>
<path d="M286.68 179.43L290.85 183.6"/>
<path d="M269.97 204.48L282.5 204.48"/>
<path d="M282.5 204.48L282.5 196.13"/>
<path d="M282.5 196.13L295.03 187.78"/>
<path d="M295.03 187.78L324.25 187.78"/>
<path d="M324.25 187.78L332.61 196.13"/>
<path d="M332.61 196.13L332.61 204.48"/>
<path d="M332.61 204.48L345.13 204.48"/>
<path d="M345.13 204.48L345.13 179.43"/>
<path d="M345.13 179.43L328.43 179.43"/>
<path d="M386.89 179.43L370.19 179.43"/>
<path d="M370.19 179.43L370.19 204.48"/>
<path d="M328.43 179.43L328.43 171.08"/>
<path d="M328.43 171.08L386.89 171.08"/>
<path d="M386.89 171.08L386.89 179.43"/>
<path d="M345.13 183.6L324.25 183.6"/>
<path d="M324.25 183.6L324.25 166.9"/>
<path d="M324.25 166.9L391.06 166.9"/>
<path d="M391.06 166.9L391.06 183.6"/>
<path d="M391.06 183.6L370.19 183.6"/>
<path d="M328.43 179.43L324.25 183.6"/>
<path d="M328.43 171.08L324.25 166.9"/>
<path d="M386.89 171.08L391.06 166.9"/>
<path d="M386.89 179.43L391.06 183.6"/>
<path d="M244.92 204.48L240.74 204.48"/>
<path d="M240.74 204.48L236.57 200.31"/>
<path d="M236.57 200.31L224.04 200.31"/>
<path d="M224.04 200.31L219.87 196.13"/>
<path d="M219.87 196.13L219.87 154.37"/>
<path d="M219.87 154.37L295.03 154.37"/>
<path d="M370.19 204.48L374.36 204.48"/>
<path d="M374.36 204.48L378.54 200.31"/>
<path d="M378.54 200.31L391.06 200.31"/>
<path d="M391.06 200.31L395.24 196.13"/>
<path d="M395.24 196.13L395.24 154.37"/>
<path d="M395.24 154.37L320.08 154.37"/>
<path d="M320.08 154.37L320.08 166.9"/>
<path d="M320.08 166.9L315.9 171.08"/>
<path d="M315.9 171.08L315.9 179.43"/>
<path d="M315.9 179.43L311.73 183.6"/>
<path d="M295.03 154.37L295.03 166.9"/>
<path d="M295.03 166.9L299.2 171.08"/>
<path d="M299.2 171.08L299.2 179.43"/>
<path d="M299.2 179.43L303.38 183.6"/>
<path d="M303.38 183.6L311.73 183.6"/>
<path d="M295.03 204.48L295.03 191.95"/>
<path d="M295.03 191.95L324.25 191.95"/>
<path d="M324.25 191.95L324.25 204.48"/>
<path d="M324.25 204.48L328.43 204.48"/>
<path d="M328.43 204.48L328.43 208.66"/>
<path d="M328.43 208.66L290.85 208.66"/>
<path d="M290.85 208.66L290.85 204.48"/>
<path d="M290.85 204.48L295.03 204.48"/>
<path d="M332.61 225.36L282.5 225.36"/>
<path d="M282.5 225.36L282.5 204.48"/>
<path d="M282.5 204.48L278.32 208.66"/>
<path d="M278.32 208.66L236.57 208.66"/>
<path d="M236.57 208.66L232.39 204.48"/>
<path d="M232.39 204.48L224.04 204.48"/>
<path d="M224.04 204.48L215.69 196.13"/>
<path d="M215.69 196.13L215.69 150.2"/>
<path d="M215.69 150.2L232.39 150.2"/>
<path d="M232.39 150.2L232.39 141.85"/>
<path d="M332.61 225.36L332.61 204.48"/>
<path d="M332.61 204.48L336.78 208.66"/>
<path d="M336.78 208.66L378.54 208.66"/>
<path d="M378.54 208.66L382.71 204.48"/>
<path d="M382.71 204.48L391.06 204.48"/>
<path d="M391.06 204.48L399.41 196.13"/>
<path d="M399.41 196.13L399.41 150.2"/>
<path d="M399.41 150.2L382.71 150.2"/>
<path d="M382.71 150.2L382.71 141.85"/>
<path d="M382.71 141.85L232.39 141.85"/>
<path d="M207.34 150.2L207.34 291.81"/>
<path d="M236.57 321.04L378.54 321.04"/>
<path d="M407.76 291.81L407.76 150.2"/>
<path d="M378.54 120.97L236.57 120.97"/>
<path d="M236.57 120.97L227.54 122.4M227.54 122.4L219.39 126.55M219.39 126.55L212.92 133.02M212.92 133.02L208.77 141.17M208.77 141.17L207.34 150.2"/>
<path d="M407.76 150.2L406.33 141.17M406.33 141.17L402.18 133.02M402.18 133.02L395.72 126.55M395.72 126.55L387.57 122.4M387.57 122.4L378.54 120.97"/>
<path d="M378.54 321.04L387.57 319.61M387.57 319.61L395.72 315.46M395.72 315.46L402.18 308.99M402.18 308.99L406.33 300.85M406.33 300.85L407.76 291.81"/>
<path d="M207.34 291.81L208.77 300.85M208.77 300.85L212.92 308.99M212.92 308.99L219.39 315.46M219.39 315.46L227.54 319.61M227.54 319.61L236.57 321.04"/>
<path d="M198.99 141.85L198.99 300.17"/>
<path d="M228.22 329.39L386.89 329.39"/>
<path d="M416.12 300.17L416.12 141.85"/>
<path d="M386.89 112.62L228.22 112.62"/>
<path d="M198.99 300.17L200.42 309.2M200.42 309.2L204.57 317.35M204.57 317.35L211.04 323.81M211.04 323.81L219.19 327.96M219.19 327.96L228.22 329.39"/>
<path d="M386.89 329.39L395.92 327.96M395.92 327.96L404.07 323.81M404.07 323.81L410.53 317.35M410.53 317.35L414.69 309.2M414.69 309.2L416.12 300.17"/>
<path d="M416.12 141.85L414.69 132.82M414.69 132.82L410.53 124.67M410.53 124.67L404.07 118.2M404.07 118.2L395.92 114.05M395.92 114.05L386.89 112.62"/>
<path d="M228.22 112.62L219.19 114.05M219.19 114.05L211.04 118.2M211.04 118.2L204.57 124.67M204.57 124.67L200.42 132.82M200.42 132.82L198.99 141.85"/>
<path d="M295.03 225.36L295.03 217.01"/>
<path d="M295.03 217.01L299.2 217.01"/>
<path d="M299.2 217.01L299.2 225.36"/>
<path d="M320.08 225.36L320.08 217.01"/>
<path d="M320.08 217.01L315.9 217.01"/>
<path d="M315.9 217.01L315.9 225.36"/>
<path d="M253.27 120.97L253.27 112.62"/>
<path d="M244.92 120.97L244.92 112.62"/>
<path d="M244.92 321.04L244.92 329.39"/>
<path d="M253.27 321.04L253.27 329.39"/>
<path d="M370.19 120.97L370.19 112.62"/>
<path d="M370.19 321.04L370.19 329.39"/>
<path d="M361.83 120.97L361.83 112.62"/>
<path d="M361.83 329.39L361.83 321.04"/>
<path d="M194.81 215.65L186.46 215.65"/>
<path d="M186.46 215.65L186.46 238.51"/>
<path d="M186.46 238.51L194.81 238.51"/>
<path d="M194.81 240.06L194.81 252.59"/>
<path d="M194.81 252.34L173.94 252.34"/>
<path d="M173.94 252.34L173.94 281.81"/>
<path d="M173.94 281.81L194.81 281.81"/>
<path d="M420.29 204.48L420.29 215.65"/>
<path d="M253.27 337.75L361.83 337.75"/>
<path d="M194.81 321.04L207.96 329.35M207.96 329.35L222.43 335.02M222.43 335.02L237.72 337.86M237.72 337.86L253.27 337.75"/>
<path d="M361.83 337.75L391.06 337.75"/>
<path d="M391.06 337.75L400.09 336.31M400.09 336.31L408.24 332.16M408.24 332.16L414.71 325.7M414.71 325.7L418.86 317.55M418.86 317.55L420.29 308.52"/>
<path d="M194.81 171.08L194.81 146.02"/>
<path d="M420.29 204.48L420.29 146.02"/>
<path d="M236.57 104.27L236.57 58.34"/>
<path d="M378.54 104.27L378.54 58.34"/>
<path d="M240.74 54.16L374.36 54.16"/>
<path d="M236.57 104.27L225.18 104.35M225.18 104.35L214.37 107.92M214.37 107.92L205.17 114.62M205.17 114.62L198.46 123.82M198.46 123.82L194.9 134.64M194.9 134.64L194.81 146.02"/>
<path d="M420.29 146.02L420.46 134.54M420.46 134.54L417.01 123.59M417.01 123.59L410.28 114.28M410.28 114.28L400.97 107.55M400.97 107.55L390.02 104.1M390.02 104.1L378.54 104.27"/>
<path d="M236.57 70.86L244.92 70.86"/>
<path d="M244.92 70.86L244.92 83.39"/>
<path d="M244.92 83.39L257.45 83.39"/>
<path d="M257.45 83.39L257.45 91.74"/>
<path d="M257.45 91.74L236.57 91.74"/>
<path d="M378.54 70.86L370.19 70.86"/>
<path d="M370.19 70.86L370.19 83.39"/>
<path d="M370.19 83.39L357.66 83.39"/>
<path d="M357.66 83.39L357.66 91.74"/>
<path d="M357.66 91.74L378.54 91.74"/>
<path d="M236.57 104.27L378.54 104.27"/>
<path d="M249.1 70.86L366.01 70.86"/>
<path d="M366.01 70.86L366.01 66.69"/>
<path d="M361.83 62.51L253.27 62.51"/>
<path d="M249.1 66.69L249.1 70.86"/>
<path d="M269.97 70.86L269.97 75.04"/>
<path d="M269.97 75.04L345.13 75.04"/>
<path d="M345.13 75.04L345.13 70.86"/>
<path d="M265.8 75.04L349.31 75.04"/>
<path d="M353.48 79.22L353.48 83.39"/>
<path d="M353.48 83.39L261.62 83.39"/>
<path d="M261.62 83.39L261.62 79.22"/>
<path d="M261.62 83.39L261.62 104.27"/>
<path d="M278.32 83.39L278.32 104.27"/>
<path d="M353.48 83.39L353.48 104.27"/>
<path d="M336.78 83.39L336.78 104.27"/>
<path d="M240.74 54.16L238.66 54.72M238.66 54.72L237.13 56.25M237.13 56.25L236.57 58.34"/>
<path d="M378.54 58.34L377.98 56.25M377.98 56.25L376.45 54.72M376.45 54.72L374.36 54.16"/>
<path d="M366.01 66.69L364.79 63.74M364.79 63.74L361.83 62.51"/>
<path d="M253.27 62.51L250.32 63.74M250.32 63.74L249.1 66.69"/>
<path d="M265.8 75.04L262.85 76.26M262.85 76.26L261.62 79.22"/>
<path d="M353.48 79.22L352.26 76.26M352.26 76.26L349.31 75.04"/>
<path d="M303.38 104.27L303.38 95.92"/>
<path d="M303.38 95.92L311.73 95.92"/>
<path d="M311.73 95.92L311.73 104.27"/>
<path d="M226.97 47.22L176.03 104.96"/>
<path d="M165.59 132.58L165.59 295.24"/>
<path d="M188.67 332.58L249.1 362.8"/>
<path d="M249.1 362.8L366.01 362.8"/>
<path d="M366.01 362.8L420.28 343.64"/>
<path d="M436.99 320.02L436.99 123.09"/>
<path d="M427.84 97.01L388.14 47.38"/>
<path d="M384.88 45.81L230.1 45.81"/>
<path d="M420.28 343.64L427.05 340.01M427.05 340.01L432.39 334.49M432.39 334.49L435.82 327.61M435.82 327.61L436.99 320.02"/>
<path d="M176.03 104.96L170.34 113.23M170.34 113.23L166.79 122.62M166.79 122.62L165.59 132.58"/>
<path d="M165.59 295.24L167.18 306.65M167.18 306.65L171.82 317.19M171.82 317.19L179.17 326.06M179.17 326.06L188.67 332.58"/>
<path d="M436.99 123.09L435.94 113.78M435.94 113.78L432.84 104.94M432.84 104.94L427.84 97.01"/>
<path d="M230.1 45.81L228.39 46.18M228.39 46.18L226.97 47.22"/>
<path d="M388.14 47.38L386.69 46.22M386.69 46.22L384.88 45.81"/>
<path d="M295.03 346.1L295.03 358.62"/>
<path d="M295.03 358.62L320.08 358.62"/>
<path d="M320.08 358.62L320.08 346.1"/>
<path d="M295.03 346.1L320.08 346.1"/>
<path d="M328.43 350.27L328.43 354.45"/>
<path d="M328.43 354.45L353.48 354.45"/>
<path d="M353.48 354.45L353.48 350.27"/>
<path d="M353.48 350.27L328.43 350.27"/>
<path d="M286.68 350.27L286.68 354.45"/>
<path d="M286.68 354.45L261.62 354.45"/>
<path d="M261.62 354.45L261.62 350.27"/>
<path d="M261.62 350.27L286.68 350.27"/>
<path d="M461.65 166.35L463.64 165.36M463.64 165.36L466.62 162.37M466.62 162.37L466.62 183.25"/>
<path d="M132.48 167.35L132.48 166.35M132.48 166.35L133.47 164.36M133.47 164.36L134.47 163.37M134.47 163.37L136.46 162.37M136.46 162.37L140.43 162.37M140.43 162.37L142.42 163.37M142.42 163.37L143.42 164.36M143.42 164.36L144.41 166.35M144.41 166.35L144.41 168.34M144.41 168.34L143.42 170.33M143.42 170.33L141.43 173.31M141.43 173.31L131.49 183.25M131.49 183.25L145.4 183.25"/>
<path d="M189.74 404.55L189.74 379.5M190.94 379.5L190.94 404.55M186.17 379.5L198.1 379.5M198.1 379.5L201.67 380.69M201.67 380.69L204.06 383.08M204.06 383.08L205.25 385.47M205.25 385.47L206.45 389.04M206.45 389.04L206.45 395.01M206.45 395.01L205.25 398.59M205.25 398.59L204.06 400.97M204.06 400.97L201.67 403.36M201.67 403.36L198.1 404.55M198.1 404.55L186.17 404.55M198.1 379.5L200.48 380.69M200.48 380.69L202.87 383.08M202.87 383.08L204.06 385.47M204.06 385.47L205.25 389.04M205.25 389.04L205.25 395.01M205.25 395.01L204.06 398.59M204.06 398.59L202.87 400.97M202.87 400.97L200.48 403.36M200.48 403.36L198.1 404.55M223.15 379.5L214.8 404.55M223.15 379.5L231.5 404.55M223.15 383.08L230.31 404.55M217.18 397.4L227.92 397.4M212.41 404.55L219.57 404.55M226.73 404.55L233.89 404.55M241.04 404.55L241.04 379.5M242.24 379.5L242.24 404.55M237.46 379.5L251.78 379.5M251.78 379.5L255.36 380.69M255.36 380.69L256.55 381.89M256.55 381.89L257.75 384.27M257.75 384.27L257.75 386.66M257.75 386.66L256.55 389.04M256.55 389.04L255.36 390.24M255.36 390.24L251.78 391.43M251.78 391.43L242.24 391.43M251.78 379.5L254.17 380.69M254.17 380.69L255.36 381.89M255.36 381.89L256.55 384.27M256.55 384.27L256.55 386.66M256.55 386.66L255.36 389.04M255.36 389.04L254.17 390.24M254.17 390.24L251.78 391.43M237.46 404.55L245.82 404.55M248.2 391.43L250.59 392.62M250.59 392.62L251.78 393.82M251.78 393.82L255.36 402.17M255.36 402.17L256.55 403.36M256.55 403.36L257.75 403.36M257.75 403.36L258.94 402.17M250.59 392.62L251.78 395.01M251.78 395.01L254.17 403.36M254.17 403.36L255.36 404.55M255.36 404.55L257.75 404.55M257.75 404.55L258.94 402.17M258.94 402.17L258.94 400.97M267.29 404.55L267.29 379.5M268.48 379.5L268.48 404.55M283.99 379.5L268.48 395.01M274.45 390.24L283.99 404.55M273.25 390.24L282.8 404.55M263.71 379.5L272.06 379.5M279.22 379.5L286.38 379.5M263.71 404.55L272.06 404.55M279.22 404.55L286.38 404.55M331.71 383.08L332.9 386.66M332.9 386.66L332.9 379.5M332.9 379.5L331.71 383.08M331.71 383.08L329.33 380.69M329.33 380.69L325.75 379.5M325.75 379.5L323.36 379.5M323.36 379.5L319.78 380.69M319.78 380.69L317.4 383.08M317.4 383.08L316.2 385.47M316.2 385.47L315.01 389.04M315.01 389.04L315.01 395.01M315.01 395.01L316.2 398.59M316.2 398.59L317.4 400.97M317.4 400.97L319.78 403.36M319.78 403.36L323.36 404.55M323.36 404.55L325.75 404.55M325.75 404.55L329.33 403.36M329.33 403.36L331.71 400.97M323.36 379.5L320.97 380.69M320.97 380.69L318.59 383.08M318.59 383.08L317.4 385.47M317.4 385.47L316.2 389.04M316.2 389.04L316.2 395.01M316.2 395.01L317.4 398.59M317.4 398.59L318.59 400.97M318.59 400.97L320.97 403.36M320.97 403.36L323.36 404.55M331.71 395.01L331.71 404.55M332.9 395.01L332.9 404.55M328.13 395.01L336.48 395.01M346.03 404.55L346.03 379.5M347.22 379.5L347.22 404.55M342.45 379.5L356.76 379.5M356.76 379.5L360.34 380.69M360.34 380.69L361.54 381.89M361.54 381.89L362.73 384.27M362.73 384.27L362.73 386.66M362.73 386.66L361.54 389.04M361.54 389.04L360.34 390.24M360.34 390.24L356.76 391.43M356.76 391.43L347.22 391.43M356.76 379.5L359.15 380.69M359.15 380.69L360.34 381.89M360.34 381.89L361.54 384.27M361.54 384.27L361.54 386.66M361.54 386.66L360.34 389.04M360.34 389.04L359.15 390.24M359.15 390.24L356.76 391.43M342.45 404.55L350.8 404.55M353.19 391.43L355.57 392.62M355.57 392.62L356.76 393.82M356.76 393.82L360.34 402.17M360.34 402.17L361.54 403.36M361.54 403.36L362.73 403.36M362.73 403.36L363.92 402.17M355.57 392.62L356.76 395.01M356.76 395.01L359.15 403.36M359.15 403.36L360.34 404.55M360.34 404.55L362.73 404.55M362.73 404.55L363.92 402.17M363.92 402.17L363.92 400.97M372.27 404.55L372.27 379.5M373.47 379.5L373.47 404.55M380.62 386.66L380.62 396.2M368.69 379.5L387.78 379.5M387.78 379.5L387.78 386.66M387.78 386.66L386.59 379.5M373.47 391.43L380.62 391.43M368.69 404.55L387.78 404.55M387.78 404.55L387.78 397.4M387.78 397.4L386.59 404.55M396.13 379.5L404.48 392.62M404.48 392.62L404.48 404.55M397.33 379.5L405.68 392.62M405.68 392.62L405.68 404.55M414.03 379.5L405.68 392.62M393.75 379.5L400.91 379.5M409.26 379.5L416.41 379.5M400.91 404.55L409.26 404.55"/>
<path d="M382.71 225.36L232.39 225.36"/>
<path d="M278.32 292.17L236.57 292.17"/>
<path d="M219.87 237.88L295.03 237.88"/>
<path d="M224.04 250.41L290.85 250.41"/>
<path d="M228.22 254.59L286.68 254.59"/>
<path d="M224.04 287.99L215.69 279.64"/>
<path d="M240.74 287.99L236.57 283.82"/>
<path d="M244.92 262.94L244.92 287.99"/>
<path d="M232.39 287.99L224.04 287.99"/>
<path d="M236.57 292.17L232.39 287.99"/>
<path d="M138.84 245.88L128.9 259.8M128.9 259.8L143.81 259.8M138.84 245.88L138.84 266.76"/>
<path d="M244.92 287.99L240.74 287.99"/>
<path d="M215.69 233.71L232.39 233.71"/>
<path d="M215.69 279.64L215.69 233.71"/>
<path d="M232.39 233.71L232.39 225.36"/>
<path d="M244.92 267.11L224.04 267.11"/>
<path d="M228.22 262.94L244.92 262.94"/>
<path d="M219.87 279.64L219.87 237.88"/>
<path d="M224.04 267.11L224.04 250.41"/>
<path d="M228.22 254.59L228.22 262.94"/>
<path d="M236.57 283.82L224.04 283.82"/>
<path d="M228.22 262.94L224.04 267.11"/>
<path d="M224.04 283.82L219.87 279.64"/>
<path d="M228.22 254.59L224.04 250.41"/>
<path d="M332.61 287.99L336.78 292.17"/>
<path d="M395.24 237.88L320.08 237.88"/>
<path d="M324.25 250.41L391.06 250.41"/>
<path d="M345.13 267.11L324.25 267.11"/>
<path d="M328.43 254.59L386.89 254.59"/>
<path d="M345.13 262.94L328.43 262.94"/>
<path d="M332.61 287.99L345.13 287.99"/>
<path d="M324.25 275.46L324.25 287.99"/>
<path d="M295.03 287.99L295.03 275.46"/>
<path d="M332.61 279.64L332.61 287.99"/>
<path d="M282.5 287.99L282.5 279.64"/>
<path d="M269.97 262.94L269.97 287.99"/>
<path d="M328.43 292.17L290.85 292.17"/>
<path d="M269.97 287.99L282.5 287.99"/>
<path d="M282.5 287.99L278.32 292.17"/>
<path d="M290.85 287.99L295.03 287.99"/>
<path d="M290.85 292.17L290.85 287.99"/>
<path d="M328.43 287.99L328.43 292.17"/>
<path d="M324.25 287.99L328.43 287.99"/>
<path d="M295.03 275.46L324.25 275.46"/>
<path d="M295.03 250.41L299.2 254.59"/>
<path d="M295.03 271.29L324.25 271.29"/>
<path d="M290.85 267.11L269.97 267.11"/>
<path d="M286.68 262.94L269.97 262.94"/>
<path d="M290.85 250.41L290.85 267.11"/>
<path d="M286.68 254.59L286.68 262.94"/>
<path d="M282.5 279.64L295.03 271.29"/>
<path d="M286.68 262.94L290.85 267.11"/>
<path d="M295.03 237.88L295.03 250.41"/>
<path d="M286.68 254.59L290.85 250.41"/>
<path d="M315.9 262.94L311.73 267.11"/>
<path d="M299.2 254.59L299.2 262.94"/>
<path d="M303.38 267.11L311.73 267.11"/>
<path d="M299.2 262.94L303.38 267.11"/>
<path d="M315.9 254.59L315.9 262.94"/>
<path d="M324.25 267.11L324.25 250.41"/>
<path d="M328.43 262.94L328.43 254.59"/>
<path d="M328.43 262.94L324.25 267.11"/>
<path d="M324.25 271.29L332.61 279.64"/>
<path d="M320.08 250.41L315.9 254.59"/>
<path d="M320.08 237.88L320.08 250.41"/>
<path d="M328.43 254.59L324.25 250.41"/>
<path d="M391.06 287.99L399.41 279.64"/>
<path d="M374.36 287.99L378.54 283.82"/>
<path d="M370.19 262.94L370.19 287.99"/>
<path d="M345.13 287.99L345.13 262.94"/>
<path d="M336.78 292.17L378.54 292.17"/>
<path d="M370.19 287.99L374.36 287.99"/>
<path d="M459.16 245.88L470.1 245.88M470.1 245.88L464.13 253.84M464.13 253.84L467.12 253.84M467.12 253.84L469.1 254.83M469.1 254.83L470.1 255.83M470.1 255.83L471.09 258.81M471.09 258.81L471.09 260.8M471.09 260.8L470.1 263.78M470.1 263.78L468.11 265.77M468.11 265.77L465.13 266.76M465.13 266.76L462.15 266.76M462.15 266.76L459.16 265.77M459.16 265.77L458.17 264.77M458.17 264.77L457.17 262.79"/>
<path d="M382.71 287.99L391.06 287.99"/>
<path d="M378.54 292.17L382.71 287.99"/>
<path d="M391.06 267.11L370.19 267.11"/>
<path d="M386.89 262.94L370.19 262.94"/>
<path d="M382.71 233.71L382.71 225.36"/>
<path d="M399.41 233.71L382.71 233.71"/>
<path d="M378.54 283.82L391.06 283.82"/>
<path d="M386.89 262.94L391.06 267.11"/>
<path d="M386.89 254.59L391.06 250.41"/>
<path d="M386.89 254.59L386.89 262.94"/>
<path d="M395.24 279.64L395.24 237.88"/>
<path d="M391.06 250.41L391.06 267.11"/>
<path d="M391.06 283.82L395.24 279.64"/>
<path d="M399.41 279.64L399.41 233.71"/>
<path d="M194.81 321.04L194.81 281.81"/>
<path d="M194.81 215.65L194.81 171.08"/>
<path d="M428.64 215.65L428.64 238.51"/>
<path d="M420.29 238.51L428.64 238.51"/>
<path d="M420.29 215.65L428.64 215.65"/>
<path d="M420.29 238.51L420.29 308.52"/>
</g>
</g>
</svg>
