<?xml version="1.0" standalone="no"?><svg xmlns="http://www.w3.org/2000/svg" width="600.000" height="450.000" viewBox="0.0 0.0 600.000 450.000" version="1.1">
<title>Acme Converter - Post-processed with EDS-Designer: 14.44 (info@symca.com)</title>
<desc>Acme Converter - Post-processed with EDS-Designer: 14.44 (info@symca.com)</desc>
<g id="EDS_STYLE_GROUP" fill="none" stroke="black" stroke-width="1.0">
<g id="0" display="visible">
<path d="M191.65 199.57L191.65 188.27"/>
<path d="M191.65 188.27L180.35 188.27"/>
<path d="M180.35 188.27L180.35 165.66"/>
<path d="M180.35 165.66L225.56 165.66"/>
<path d="M225.56 165.66L225.56 188.27"/>
<path d="M225.56 188.27L214.26 188.27"/>
<path d="M214.26 188.27L214.26 199.57"/>
<path d="M259.47 199.57L259.47 188.27"/>
<path d="M259.47 188.27L248.16 188.27"/>
<path d="M248.16 188.27L248.16 165.66"/>
<path d="M248.16 165.66L293.38 165.66"/>
<path d="M293.38 165.66L293.38 188.27"/>
<path d="M293.38 188.27L315.98 188.27"/>
<path d="M315.98 188.27L315.98 165.66"/>
<path d="M315.98 165.66L361.19 165.66"/>
<path d="M361.19 165.66L361.19 188.27"/>
<path d="M361.19 188.27L349.89 188.27"/>
<path d="M349.89 188.27L349.89 199.57"/>
<path d="M395.1 199.57L395.1 188.27"/>
<path d="M395.1 188.27L383.8 188.27"/>
<path d="M383.8 188.27L383.8 165.66"/>
<path d="M383.8 165.66L429.01 165.66"/>
<path d="M429.01 165.66L429.01 188.27"/>
<path d="M429.01 188.27L417.71 188.27"/>
<path d="M417.71 188.27L417.71 199.57"/>
<path d="M191.65 188.27L191.65 182.61"/>
<path d="M191.65 182.61L186 182.61"/>
<path d="M186 182.61L186 171.31"/>
<path d="M186 171.31L219.91 171.31"/>
<path d="M219.91 171.31L219.91 182.61"/>
<path d="M219.91 182.61L214.26 182.61"/>
<path d="M214.26 182.61L214.26 188.27"/>
<path d="M186 182.61L180.35 188.27"/>
<path d="M186 171.31L180.35 165.66"/>
<path d="M219.91 171.31L225.56 165.66"/>
<path d="M219.91 182.61L225.56 188.27"/>
<path d="M259.47 188.27L259.47 182.61"/>
<path d="M259.47 182.61L253.82 182.61"/>
<path d="M253.82 182.61L253.82 171.31"/>
<path d="M253.82 171.31L287.72 171.31"/>
<path d="M287.72 171.31L287.72 188.27"/>
<path d="M287.72 188.27L293.38 188.27"/>
<path d="M253.82 182.61L248.16 188.27"/>
<path d="M253.82 171.31L248.16 165.66"/>
<path d="M287.72 171.31L293.38 165.66"/>
<path d="M315.98 188.27L321.63 188.27"/>
<path d="M321.63 188.27L321.63 171.31"/>
<path d="M321.63 171.31L355.54 171.31"/>
<path d="M355.54 171.31L355.54 182.61"/>
<path d="M355.54 182.61L349.89 182.61"/>
<path d="M349.89 182.61L349.89 188.27"/>
<path d="M321.63 171.31L315.98 165.66"/>
<path d="M355.54 171.31L361.19 165.66"/>
<path d="M355.54 182.61L361.19 188.27"/>
<path d="M395.1 188.27L395.1 182.61"/>
<path d="M395.1 182.61L389.45 182.61"/>
<path d="M389.45 182.61L389.45 171.31"/>
<path d="M389.45 171.31L423.36 171.31"/>
<path d="M423.36 171.31L423.36 182.61"/>
<path d="M423.36 182.61L417.71 182.61"/>
<path d="M417.71 182.61L417.71 188.27"/>
<path d="M389.45 182.61L383.8 188.27"/>
<path d="M389.45 171.31L383.8 165.66"/>
<path d="M423.36 171.31L429.01 165.66"/>
<path d="M423.36 182.61L429.01 188.27"/>
<path d="M214.26 199.57L259.47 199.57"/>
<path d="M349.89 199.57L395.1 199.57"/>
<path d="M270.77 261.73L270.77 233.48"/>
<path d="M270.77 233.48L338.59 233.48"/>
<path d="M338.59 233.48L338.59 261.73"/>
<path d="M338.59 261.73L321.63 261.73"/>
<path d="M321.63 261.73L321.63 278.69"/>
<path d="M321.63 278.69L287.72 278.69"/>
<path d="M287.72 278.69L287.72 261.73"/>
<path d="M287.72 261.73L270.77 261.73"/>
<path d="M270.77 256.08L293.38 256.08"/>
<path d="M293.38 256.08L293.38 278.69"/>
<path d="M287.72 261.73L293.38 256.08"/>
<path d="M315.98 278.69L315.98 256.08"/>
<path d="M315.98 256.08L338.59 256.08"/>
<path d="M321.63 261.73L315.98 256.08"/>
<path d="M395.1 233.48L395.1 261.73"/>
<path d="M395.1 256.08L429.01 256.08"/>
<path d="M429.01 256.08L429.01 261.73"/>
<path d="M395.1 261.73L423.36 261.73"/>
<path d="M423.36 261.73L429.01 256.08"/>
<path d="M423.36 261.73L423.36 273.04"/>
<path d="M423.36 273.04L417.71 273.04"/>
<path d="M417.71 273.04L417.71 278.69"/>
<path d="M417.71 278.69L429.01 278.69"/>
<path d="M429.01 278.69L429.01 261.73"/>
<path d="M423.36 273.04L429.01 278.69"/>
<path d="M417.71 278.69L417.71 289.99"/>
<path d="M265.12 306.95L265.12 312.6"/>
<path d="M265.12 312.6L282.07 312.6"/>
<path d="M265.12 278.69L265.12 295.64"/>
<path d="M265.12 295.64L276.42 301.29"/>
<path d="M265.12 278.69L259.47 278.69"/>
<path d="M259.47 261.73L265.12 261.73"/>
<path d="M265.12 261.73L265.12 227.83"/>
<path d="M265.12 256.08L253.82 256.08"/>
<path d="M253.82 256.08L253.82 278.69"/>
<path d="M253.82 278.69L259.47 278.69"/>
<path d="M259.47 273.04L265.12 273.04"/>
<path d="M265.12 273.04L265.12 278.69"/>
<path d="M259.47 261.73L259.47 273.04"/>
<path d="M259.47 261.73L253.82 256.08"/>
<path d="M259.47 273.04L253.82 278.69"/>
<path d="M219.91 227.83L219.91 256.08"/>
<path d="M219.91 256.08L231.21 256.08"/>
<path d="M231.21 256.08L231.21 278.69"/>
<path d="M231.21 278.69L219.91 278.69"/>
<path d="M219.91 278.69L219.91 273.04"/>
<path d="M219.91 256.08L219.91 261.73"/>
<path d="M219.91 261.73L225.56 261.73"/>
<path d="M225.56 261.73L225.56 273.04"/>
<path d="M225.56 273.04L219.91 273.04"/>
<path d="M225.56 261.73L231.21 256.08"/>
<path d="M225.56 273.04L231.21 278.69"/>
<path d="M191.65 289.99L191.65 273.04"/>
<path d="M191.65 273.04L186 273.04"/>
<path d="M186 273.04L186 261.73"/>
<path d="M186 261.73L214.26 261.73"/>
<path d="M214.26 261.73L214.26 256.08"/>
<path d="M214.26 256.08L180.35 256.08"/>
<path d="M180.35 256.08L180.35 278.69"/>
<path d="M180.35 278.69L191.65 278.69"/>
<path d="M186 273.04L180.35 278.69"/>
<path d="M186 261.73L180.35 256.08"/>
<path d="M214.26 233.48L214.26 256.08"/>
<path d="M282.07 284.34L327.28 284.34"/>
<path d="M276.42 301.29L282.07 312.6"/>
<path d="M282.07 306.95L327.28 306.95"/>
<path d="M327.28 306.95L327.28 284.34"/>
<path d="M282.07 284.34L282.07 306.95"/>
<path d="M282.07 289.99L327.28 289.99"/>
<path d="M293.38 295.64L293.38 301.29"/>
<path d="M293.38 301.29L315.98 301.29"/>
<path d="M315.98 301.29L315.98 295.64"/>
<path d="M315.98 295.64L293.38 295.64"/>
<path d="M344.24 227.83L344.24 261.73"/>
<path d="M344.24 261.73L349.89 261.73"/>
<path d="M349.89 278.69L344.24 278.69"/>
<path d="M344.24 278.69L344.24 295.64"/>
<path d="M344.24 295.64L332.94 301.29"/>
<path d="M332.94 301.29L327.28 312.6"/>
<path d="M327.28 312.6L349.89 312.6"/>
<path d="M349.89 312.6L349.89 306.95"/>
<path d="M344.24 256.08L355.54 256.08"/>
<path d="M355.54 256.08L355.54 278.69"/>
<path d="M355.54 278.69L349.89 278.69"/>
<path d="M344.24 278.69L344.24 273.04"/>
<path d="M344.24 273.04L349.89 273.04"/>
<path d="M349.89 273.04L349.89 261.73"/>
<path d="M349.89 273.04L355.54 278.69"/>
<path d="M349.89 261.73L355.54 256.08"/>
<path d="M389.45 227.83L389.45 256.08"/>
<path d="M389.45 256.08L378.15 256.08"/>
<path d="M378.15 256.08L378.15 278.69"/>
<path d="M378.15 278.69L389.45 278.69"/>
<path d="M389.45 278.69L389.45 273.04"/>
<path d="M389.45 273.04L383.8 273.04"/>
<path d="M383.8 273.04L383.8 261.73"/>
<path d="M383.8 261.73L389.45 261.73"/>
<path d="M389.45 261.73L389.45 256.08"/>
<path d="M383.8 261.73L378.15 256.08"/>
<path d="M383.8 273.04L378.15 278.69"/>
<path d="M265.12 227.83L276.42 227.83"/>
<path d="M276.42 227.83L282.07 222.17"/>
<path d="M344.24 227.83L332.94 227.83"/>
<path d="M332.94 227.83L327.28 222.17"/>
<path d="M327.28 222.17L282.07 222.17"/>
<path d="M202.95 205.22L202.95 182.61"/>
<path d="M202.95 182.61L208.61 182.61"/>
<path d="M208.61 182.61L208.61 205.22"/>
<path d="M208.61 205.22L276.42 205.22"/>
<path d="M276.42 205.22L276.42 188.27"/>
<path d="M276.42 188.27L332.94 188.27"/>
<path d="M332.94 188.27L332.94 205.22"/>
<path d="M332.94 205.22L400.75 205.22"/>
<path d="M400.75 205.22L400.75 182.61"/>
<path d="M400.75 182.61L406.4 182.61"/>
<path d="M406.4 182.61L406.4 205.22"/>
<path d="M293.38 193.92L293.38 205.22"/>
<path d="M293.38 205.22L315.98 205.22"/>
<path d="M315.98 205.22L315.98 193.92"/>
<path d="M315.98 193.92L293.38 193.92"/>
<path d="M248.16 148.71L248.16 86.54"/>
<path d="M248.16 86.54L265.12 86.54"/>
<path d="M265.12 86.54L265.12 97.84"/>
<path d="M265.12 97.84L248.16 97.84"/>
<path d="M265.12 103.5L265.12 148.71"/>
<path d="M265.12 148.71L259.47 148.71"/>
<path d="M265.12 103.5L265.12 97.84"/>
<path d="M361.19 148.71L361.19 86.54"/>
<path d="M361.19 86.54L344.24 86.54"/>
<path d="M344.24 86.54L344.24 97.84"/>
<path d="M344.24 97.84L361.19 97.84"/>
<path d="M344.24 97.84L344.24 148.71"/>
<path d="M344.24 148.71L355.54 148.71"/>
<path d="M265.12 148.71L344.24 148.71"/>
<path d="M265.12 97.84L344.24 97.84"/>
<path d="M265.12 103.5L344.24 103.5"/>
<path d="M287.72 97.84L287.72 86.54"/>
<path d="M287.72 86.54L321.63 86.54"/>
<path d="M321.63 86.54L321.63 97.84"/>
<path d="M282.07 97.84L282.07 80.89"/>
<path d="M282.07 80.89L327.28 80.89"/>
<path d="M327.28 80.89L327.28 97.84"/>
<path d="M276.42 97.84L276.42 86.54"/>
<path d="M265.12 75.24L259.47 75.24"/>
<path d="M259.47 75.24L259.47 69.59"/>
<path d="M265.12 63.94L344.24 63.94"/>
<path d="M349.89 69.59L349.89 75.24"/>
<path d="M349.89 75.24L344.24 75.24"/>
<path d="M332.94 86.54L332.94 97.84"/>
<path d="M276.42 86.54L274.91 80.89M274.91 80.89L270.77 76.75M270.77 76.75L265.12 75.24"/>
<path d="M344.24 75.24L338.59 76.75M338.59 76.75L334.45 80.89M334.45 80.89L332.94 86.54"/>
<path d="M265.12 63.94L261.12 65.59M261.12 65.59L259.47 69.59"/>
<path d="M349.89 69.59L348.23 65.59M348.23 65.59L344.24 63.94"/>
<path d="M253.82 86.54L253.82 63.94"/>
<path d="M253.82 63.94L236.86 63.94"/>
<path d="M355.54 86.54L355.54 63.94"/>
<path d="M355.54 63.94L372.5 63.94"/>
<path d="M236.86 63.94L228.34 71.43M228.34 71.43L222.51 81.15M222.51 81.15L219.91 92.19"/>
<path d="M389.45 92.19L386.85 81.15M386.85 81.15L381.01 71.43M381.01 71.43L372.5 63.94"/>
<path d="M219.91 92.19L219.91 148.71"/>
<path d="M389.45 92.19L389.45 148.71"/>
<path d="M242.51 148.71L242.51 75.24"/>
<path d="M366.84 148.71L366.84 75.24"/>
<path d="M242.51 75.24L235.16 77.83M235.16 77.83L229.35 83.03M229.35 83.03L225.98 90.06M225.98 90.06L225.56 97.84"/>
<path d="M383.8 97.84L383.37 90.06M383.37 90.06L380 83.03M380 83.03L374.2 77.83M374.2 77.83L366.84 75.24"/>
<path d="M225.56 97.84L225.56 148.71"/>
<path d="M383.8 97.84L383.8 148.71"/>
<path d="M202.53 386.06L202.53 363.46M203.61 363.46L203.61 386.06M199.3 363.46L206.84 363.46M199.3 386.06L215.45 386.06M215.45 386.06L215.45 379.61M215.45 379.61L214.37 386.06M221.91 386.06L221.91 363.46M222.99 363.46L222.99 386.06M218.68 363.46L226.22 363.46M218.68 386.06L226.22 386.06M245.59 366.69L246.67 369.92M246.67 369.92L246.67 363.46M246.67 363.46L245.59 366.69M245.59 366.69L243.44 364.54M243.44 364.54L240.21 363.46M240.21 363.46L238.06 363.46M238.06 363.46L234.83 364.54M234.83 364.54L232.67 366.69M232.67 366.69L231.6 368.84M231.6 368.84L230.52 372.07M230.52 372.07L230.52 377.45M230.52 377.45L231.6 380.68M231.6 380.68L232.67 382.84M232.67 382.84L234.83 384.99M234.83 384.99L238.06 386.06M238.06 386.06L240.21 386.06M240.21 386.06L243.44 384.99M243.44 384.99L245.59 382.84M238.06 363.46L235.9 364.54M235.9 364.54L233.75 366.69M233.75 366.69L232.67 368.84M232.67 368.84L231.6 372.07M231.6 372.07L231.6 377.45M231.6 377.45L232.67 380.68M232.67 380.68L233.75 382.84M233.75 382.84L235.9 384.99M235.9 384.99L238.06 386.06M245.59 377.45L245.59 386.06M246.67 377.45L246.67 386.06M242.36 377.45L249.9 377.45M258.51 386.06L258.51 363.46M259.59 363.46L259.59 386.06M272.5 386.06L272.5 363.46M273.58 363.46L273.58 386.06M255.28 363.46L262.81 363.46M269.27 363.46L276.81 363.46M259.59 374.22L272.5 374.22M255.28 386.06L262.81 386.06M269.27 386.06L276.81 386.06M288.65 386.06L288.65 363.46M289.73 363.46L289.73 386.06M282.19 363.46L281.11 369.92M281.11 369.92L281.11 363.46M281.11 363.46L297.26 363.46M297.26 363.46L297.26 369.92M297.26 369.92L296.18 363.46M285.42 386.06L292.96 386.06M339.24 366.69L340.32 369.92M340.32 369.92L340.32 363.46M340.32 363.46L339.24 366.69M339.24 366.69L337.09 364.54M337.09 364.54L333.86 363.46M333.86 363.46L331.71 363.46M331.71 363.46L328.48 364.54M328.48 364.54L326.33 366.69M326.33 366.69L325.25 368.84M325.25 368.84L324.17 372.07M324.17 372.07L324.17 377.45M324.17 377.45L325.25 380.68M325.25 380.68L326.33 382.84M326.33 382.84L328.48 384.99M328.48 384.99L331.71 386.06M331.71 386.06L333.86 386.06M333.86 386.06L337.09 384.99M337.09 384.99L339.24 382.84M331.71 363.46L329.55 364.54M329.55 364.54L327.4 366.69M327.4 366.69L326.33 368.84M326.33 368.84L325.25 372.07M325.25 372.07L325.25 377.45M325.25 377.45L326.33 380.68M326.33 380.68L327.4 382.84M327.4 382.84L329.55 384.99M329.55 384.99L331.71 386.06M339.24 377.45L339.24 386.06M340.32 377.45L340.32 386.06M336.01 377.45L343.55 377.45M352.16 386.06L352.16 363.46M353.24 363.46L353.24 386.06M348.93 363.46L361.85 363.46M361.85 363.46L365.08 364.54M365.08 364.54L366.15 365.61M366.15 365.61L367.23 367.76M367.23 367.76L367.23 369.92M367.23 369.92L366.15 372.07M366.15 372.07L365.08 373.15M365.08 373.15L361.85 374.22M361.85 374.22L353.24 374.22M361.85 363.46L364 364.54M364 364.54L365.08 365.61M365.08 365.61L366.15 367.76M366.15 367.76L366.15 369.92M366.15 369.92L365.08 372.07M365.08 372.07L364 373.15M364 373.15L361.85 374.22M348.93 386.06L356.47 386.06M358.62 374.22L360.77 375.3M360.77 375.3L361.85 376.38M361.85 376.38L365.08 383.91M365.08 383.91L366.15 384.99M366.15 384.99L367.23 384.99M367.23 384.99L368.31 383.91M360.77 375.3L361.85 377.45M361.85 377.45L364 384.99M364 384.99L365.08 386.06M365.08 386.06L367.23 386.06M367.23 386.06L368.31 383.91M368.31 383.91L368.31 382.84M375.84 386.06L375.84 363.46M376.92 363.46L376.92 386.06M383.38 369.92L383.38 378.53M372.61 363.46L389.84 363.46M389.84 363.46L389.84 369.92M389.84 369.92L388.76 363.46M376.92 374.22L383.38 374.22M372.61 386.06L389.84 386.06M389.84 386.06L389.84 379.61M389.84 379.61L388.76 386.06M397.37 363.46L404.91 375.3M404.91 375.3L404.91 386.06M398.45 363.46L405.98 375.3M405.98 375.3L405.98 386.06M413.52 363.46L405.98 375.3M395.22 363.46L401.68 363.46M409.21 363.46L415.67 363.46M401.68 386.06L409.21 386.06"/>
<path d="M161.35 198.15L161.35 158.59"/>
<path d="M138.74 158.59L138.74 316.83"/>
<path d="M138.74 158.59L161.35 158.59"/>
<path d="M144.39 169.9L144.39 305.53"/>
<path d="M155.7 169.9L155.7 203.8"/>
<path d="M150.04 164.24L147.22 165M147.22 165L145.15 167.07M145.15 167.07L144.39 169.9"/>
<path d="M155.7 169.9L154.94 167.07M154.94 167.07L152.87 165M152.87 165L150.04 164.24"/>
<path d="M144.39 147.29L133.09 147.29"/>
<path d="M133.09 147.29L133.09 328.14"/>
<path d="M144.39 147.29L144.39 79.47"/>
<path d="M144.39 79.47L172.65 79.47"/>
<path d="M172.65 79.47L172.65 147.29"/>
<path d="M467.7 166.42L456.39 166.42"/>
<path d="M450.74 200.32L450.74 160.76"/>
<path d="M473.35 319L473.35 160.76"/>
<path d="M473.35 160.76L450.74 160.76"/>
<path d="M467.7 307.7L467.7 166.42"/>
<path d="M456.39 205.98L456.39 166.42"/>
<path d="M479 330.31L479 149.46"/>
<path d="M479 149.46L467.7 149.46"/>
<path d="M467.7 149.46L467.7 81.64"/>
<path d="M467.7 81.64L439.44 81.64"/>
<path d="M439.44 81.64L439.44 149.46"/>
<path d="M259.47 148.71L174.7 148.71"/>
<path d="M355.54 148.71L440.31 148.71"/>
<path d="M135.14 329.55L479.87 329.55"/>
<path d="M140.79 318.25L474.22 318.25"/>
<path d="M146.44 306.95L265.12 306.95"/>
<path d="M468.57 306.95L349.89 306.95"/>
<path d="M417.71 199.57L451.61 199.57"/>
<path d="M406.4 205.22L457.27 205.22"/>
<path d="M202.95 205.22L157.74 205.22"/>
<path d="M191.65 199.57L163.39 199.57"/>
<path d="M214.26 233.48L163.39 233.48"/>
<path d="M163.39 233.48L163.39 289.99"/>
<path d="M163.39 289.99L191.65 289.99"/>
<path d="M219.91 227.83L157.74 227.83"/>
<path d="M157.74 227.83L157.74 295.64"/>
<path d="M157.74 295.64L202.95 295.64"/>
<path d="M202.95 295.64L202.95 278.69"/>
<path d="M202.95 278.69L219.91 278.69"/>
<path d="M395.1 233.48L445.96 233.48"/>
<path d="M445.96 233.48L445.96 289.99"/>
<path d="M445.96 289.99L417.71 289.99"/>
<path d="M389.45 227.83L451.61 227.83"/>
<path d="M451.61 227.83L451.61 295.64"/>
<path d="M451.61 295.64L406.4 295.64"/>
<path d="M406.4 295.64L406.4 278.69"/>
<path d="M406.4 278.69L389.45 278.69"/>
<path d="M491.1 173.79L492.71 172.71M492.71 172.71L495.11 169.48M495.11 169.48L495.11 192.09"/>
<path d="M111.71 171.31L103.69 186.38M103.69 186.38L115.73 186.38M111.71 171.31L111.71 193.92"/>
<path d="M497.13 259.91L489.11 259.91M489.11 259.91L488.3 269.59M488.3 269.59L489.11 268.52M489.11 268.52L491.51 267.44M491.51 267.44L493.92 267.44M493.92 267.44L496.33 268.52M496.33 268.52L497.94 270.67M497.94 270.67L498.74 273.9M498.74 273.9L498.74 276.05M498.74 276.05L497.94 279.28M497.94 279.28L496.33 281.44M496.33 281.44L493.92 282.51M493.92 282.51L491.51 282.51M491.51 282.51L489.11 281.44M489.11 281.44L488.3 280.36M488.3 280.36L487.5 278.21"/>
<path d="M105.27 261.73L102.87 262.81M102.87 262.81L102.06 264.96M102.06 264.96L102.06 267.12M102.06 267.12L102.87 269.27M102.87 269.27L104.47 270.35M104.47 270.35L107.68 271.42M107.68 271.42L110.09 272.5M110.09 272.5L111.7 274.65M111.7 274.65L112.5 276.8M112.5 276.8L112.5 280.03M112.5 280.03L111.7 282.19M111.7 282.19L110.89 283.26M110.89 283.26L108.49 284.34M108.49 284.34L105.27 284.34M105.27 284.34L102.87 283.26M102.87 283.26L102.06 282.19M102.06 282.19L101.26 280.03M101.26 280.03L101.26 276.8M101.26 276.8L102.06 274.65M102.06 274.65L103.67 272.5M103.67 272.5L106.08 271.42M106.08 271.42L109.29 270.35M109.29 270.35L110.89 269.27M110.89 269.27L111.7 267.12M111.7 267.12L111.7 264.96M111.7 264.96L110.89 262.81M110.89 262.81L108.49 261.73M108.49 261.73L105.27 261.73"/>
</g>
</g>
</svg>
