<?xml version="1.0" standalone="no"?><svg xmlns="http://www.w3.org/2000/svg" width="600.000" height="450.000" viewBox="0.0 0.0 600.000 450.000" version="1.1">
<title>Acme Converter - Post-processed with EDS-Designer: 14.44 (info@symca.com)</title>
<desc>Acme Converter - Post-processed with EDS-Designer: 14.44 (info@symca.com)</desc>
<g id="EDS_STYLE_GROUP" fill="none" stroke="black" stroke-width="1.0">
<g id="0" display="visible">
<path d="M230.58 358.18L232.15 362.88M232.15 362.88L232.15 353.47M232.15 353.47L230.58 358.18M230.58 358.18L227.44 355.04M227.44 355.04L222.73 353.47M222.73 353.47L219.6 353.47M219.6 353.47L214.89 355.04M214.89 355.04L211.75 358.18M211.75 358.18L210.19 361.31M210.19 361.31L208.62 366.02M208.62 366.02L208.62 373.86M208.62 373.86L210.19 378.57M210.19 378.57L211.75 381.71M211.75 381.71L214.89 384.84M214.89 384.84L219.6 386.41M219.6 386.41L222.73 386.41M222.73 386.41L227.44 384.84M227.44 384.84L230.58 381.71M219.6 353.47L216.46 355.04M216.46 355.04L213.32 358.18M213.32 358.18L211.75 361.31M211.75 361.31L210.19 366.02M210.19 366.02L210.19 373.86M210.19 373.86L211.75 378.57M211.75 378.57L213.32 381.71M213.32 381.71L216.46 384.84M216.46 384.84L219.6 386.41M230.58 373.86L230.58 386.41M232.15 373.86L232.15 386.41M225.87 373.86L236.85 373.86M249.4 386.41L249.4 353.47M250.97 353.47L250.97 386.41M244.7 353.47L263.52 353.47M263.52 353.47L268.23 355.04M268.23 355.04L269.79 356.61M269.79 356.61L271.36 359.75M271.36 359.75L271.36 362.88M271.36 362.88L269.79 366.02M269.79 366.02L268.23 367.59M268.23 367.59L263.52 369.16M263.52 369.16L250.97 369.16M263.52 353.47L266.66 355.04M266.66 355.04L268.23 356.61M268.23 356.61L269.79 359.75M269.79 359.75L269.79 362.88M269.79 362.88L268.23 366.02M268.23 366.02L266.66 367.59M266.66 367.59L263.52 369.16M244.7 386.41L255.68 386.41M258.81 369.16L261.95 370.73M261.95 370.73L263.52 372.29M263.52 372.29L268.23 383.28M268.23 383.28L269.79 384.84M269.79 384.84L271.36 384.84M271.36 384.84L272.93 383.28M261.95 370.73L263.52 373.86M263.52 373.86L266.66 384.84M266.66 384.84L268.23 386.41M268.23 386.41L271.36 386.41M271.36 386.41L272.93 383.28M272.93 383.28L272.93 381.71M283.91 386.41L283.91 353.47M285.48 353.47L285.48 386.41M294.89 362.88L294.89 375.43M279.21 353.47L304.31 353.47M304.31 353.47L304.31 362.88M304.31 362.88L302.74 353.47M285.48 369.16L294.89 369.16M279.21 386.41L304.31 386.41M304.31 386.41L304.31 377M304.31 377L302.74 386.41M316.85 386.41L316.85 353.47M318.42 353.47L318.42 386.41M327.84 362.88L327.84 375.43M312.15 353.47L337.25 353.47M337.25 353.47L337.25 362.88M337.25 362.88L335.68 353.47M318.42 369.16L327.84 369.16M312.15 386.41L337.25 386.41M337.25 386.41L337.25 377M337.25 377L335.68 386.41M349.8 386.41L349.8 353.47M351.37 386.41L351.37 353.47M351.37 353.47L370.19 383.28M351.37 356.61L370.19 386.41M370.19 386.41L370.19 353.47M345.09 353.47L351.37 353.47M365.48 353.47L374.9 353.47M345.09 386.41L354.5 386.41"/>
<path d="M304.93 89.93L278.58 89.93"/>
<path d="M337.87 63.58L245.64 63.58"/>
<path d="M186.34 333.71L397.17 333.71"/>
<path d="M192.93 327.12L390.58 327.12"/>
<path d="M397.17 122.88L186.34 122.88"/>
<path d="M390.58 129.47L192.93 129.47"/>
<path d="M199.52 320.53L383.99 320.53"/>
<path d="M383.99 136.05L199.52 136.05"/>
<path d="M324.7 241.47L258.81 241.47"/>
<path d="M258.81 215.11L324.7 215.11"/>
<path d="M127.05 232.06L129.87 234.88M129.87 234.88L135.52 234.88M135.52 234.88L138.34 232.06M138.34 232.06L138.34 226.41M138.34 226.41L135.52 223.59M135.52 223.59L127.05 223.59M127.05 223.59L127.05 217.94M127.05 217.94L138.34 217.94"/>
<path d="M186.34 228.29L186.34 182.17"/>
<path d="M159.99 149.23L159.99 307.35"/>
<path d="M166.58 155.82L166.58 300.76"/>
<path d="M173.16 162.41L173.16 294.18"/>
<path d="M192.93 234.88L192.93 175.58"/>
<path d="M258.81 241.47L258.81 215.11"/>
<path d="M206.11 241.47L206.11 215.11"/>
<path d="M232.46 215.11L232.46 241.47"/>
<path d="M166.58 300.76L167.87 308.91M167.87 308.91L171.61 316.25M171.61 316.25L177.44 322.08M177.44 322.08L184.79 325.83M184.79 325.83L192.93 327.12"/>
<path d="M173.16 294.18L174.45 302.32M174.45 302.32L178.2 309.67M178.2 309.67L184.03 315.5M184.03 315.5L191.37 319.24M191.37 319.24L199.52 320.53"/>
<path d="M173.16 234.88L192.93 234.88"/>
<path d="M173.16 290.88L192.93 290.88"/>
<path d="M192.93 271.12L173.16 271.12"/>
<path d="M159.99 307.35L161.28 315.5M161.28 315.5L165.02 322.84M165.02 322.84L170.85 328.67M170.85 328.67L178.2 332.42M178.2 332.42L186.34 333.71"/>
<path d="M129.87 287.59L132.69 287.59M132.69 287.59L138.34 281.94M138.34 281.94L138.34 273.47M138.34 273.47L135.52 270.65M135.52 270.65L129.87 270.65M129.87 270.65L127.05 273.47M127.05 273.47L127.05 276.29M127.05 276.29L129.87 279.12M129.87 279.12L138.34 279.12"/>
<path d="M186.34 271.12L186.34 290.88"/>
<path d="M173.16 228.29L186.34 228.29"/>
<path d="M212.7 267.82L212.7 294.18"/>
<path d="M206.11 267.82L206.11 294.18"/>
<path d="M219.28 300.76L219.28 261.23"/>
<path d="M192.93 261.23L192.93 300.76"/>
<path d="M192.93 300.76L219.28 300.76"/>
<path d="M206.11 287.59L192.93 287.59"/>
<path d="M192.93 274.41L206.11 274.41"/>
<path d="M206.11 294.18L212.7 294.18"/>
<path d="M215.99 221.7L219.28 221.7"/>
<path d="M219.28 234.88L215.99 234.88"/>
<path d="M219.28 261.23L192.93 261.23"/>
<path d="M232.46 241.47L206.11 241.47"/>
<path d="M212.7 267.82L206.11 267.82"/>
<path d="M215.99 234.88L215.99 221.7"/>
<path d="M215.99 231.59L206.11 231.59"/>
<path d="M206.11 225L215.99 225"/>
<path d="M229.17 229.94L229.17 225"/>
<path d="M219.28 234.88L219.28 221.7"/>
<path d="M229.17 229.94L219.28 229.94"/>
<path d="M219.28 225L229.17 225"/>
<path d="M265.4 267.82L265.4 294.18"/>
<path d="M258.81 267.82L258.81 294.18"/>
<path d="M271.99 300.76L271.99 261.23"/>
<path d="M245.64 261.23L245.64 300.76"/>
<path d="M245.64 300.76L271.99 300.76"/>
<path d="M258.81 287.59L245.64 287.59"/>
<path d="M245.64 274.41L258.81 274.41"/>
<path d="M258.81 294.18L265.4 294.18"/>
<path d="M268.7 221.7L271.99 221.7"/>
<path d="M271.99 234.88L268.7 234.88"/>
<path d="M271.99 261.23L245.64 261.23"/>
<path d="M265.4 267.82L258.81 267.82"/>
<path d="M268.7 234.88L268.7 221.7"/>
<path d="M268.7 231.59L258.81 231.59"/>
<path d="M258.81 225L268.7 225"/>
<path d="M281.87 229.94L281.87 225"/>
<path d="M271.99 234.88L271.99 221.7"/>
<path d="M281.87 229.94L271.99 229.94"/>
<path d="M271.99 225L281.87 225"/>
<path d="M192.93 129.47L184.79 130.75M184.79 130.75L177.44 134.5M177.44 134.5L171.61 140.33M171.61 140.33L167.87 147.67M167.87 147.67L166.58 155.82"/>
<path d="M199.52 136.05L191.37 137.34M191.37 137.34L184.03 141.09M184.03 141.09L178.2 146.92M178.2 146.92L174.45 154.26M174.45 154.26L173.16 162.41"/>
<path d="M192.93 175.58L173.16 175.58"/>
<path d="M127.05 161.47L129.87 158.64M129.87 158.64L129.87 175.58M127.05 175.58L132.69 175.58"/>
<path d="M186.34 182.17L173.16 182.17"/>
<path d="M186.34 122.88L178.2 124.17M178.2 124.17L170.85 127.91M170.85 127.91L165.02 133.74M165.02 133.74L161.28 141.09M161.28 141.09L159.99 149.23"/>
<path d="M252.23 122.88L252.23 76.76"/>
<path d="M239.05 122.88L239.05 70.17"/>
<path d="M199.52 103.11L199.52 122.88"/>
<path d="M219.28 122.88L219.28 103.11"/>
<path d="M206.11 188.76L206.11 162.41"/>
<path d="M232.46 162.41L232.46 188.76"/>
<path d="M219.28 182.17L215.99 182.17"/>
<path d="M215.99 169L219.28 169"/>
<path d="M206.11 215.11L232.46 215.11"/>
<path d="M232.46 188.76L206.11 188.76"/>
<path d="M215.99 182.17L215.99 169"/>
<path d="M215.99 178.88L206.11 178.88"/>
<path d="M206.11 172.29L215.99 172.29"/>
<path d="M219.28 182.17L219.28 169"/>
<path d="M229.17 177.23L219.28 177.23"/>
<path d="M219.28 172.29L229.17 172.29"/>
<path d="M229.17 177.23L229.17 172.29"/>
<path d="M206.11 162.41L232.46 162.41"/>
<path d="M285.17 162.41L285.17 188.76"/>
<path d="M258.81 188.76L258.81 162.41"/>
<path d="M268.7 169L271.99 169"/>
<path d="M271.99 182.17L268.7 182.17"/>
<path d="M285.17 188.76L258.81 188.76"/>
<path d="M268.7 182.17L268.7 169"/>
<path d="M268.7 178.88L258.81 178.88"/>
<path d="M258.81 172.29L268.7 172.29"/>
<path d="M271.99 182.17L271.99 169"/>
<path d="M271.99 172.29L281.87 172.29"/>
<path d="M281.87 177.23L271.99 177.23"/>
<path d="M281.87 177.23L281.87 172.29"/>
<path d="M258.81 162.41L285.17 162.41"/>
<path d="M245.64 63.58L242.34 64.46M242.34 64.46L239.93 66.88M239.93 66.88L239.05 70.17"/>
<path d="M219.28 103.11L199.52 103.11"/>
<path d="M278.58 76.76L252.23 76.76"/>
<path d="M278.58 89.93L278.58 76.76"/>
<path d="M456 234.88L453.17 232.06M453.17 232.06L453.17 229.23M453.17 229.23L456 226.41M456 226.41L461.64 226.41M461.64 226.41L464.47 223.59M464.47 223.59L464.47 220.76M464.47 220.76L461.64 217.94M461.64 217.94L456 217.94M456 217.94L453.17 220.76M453.17 220.76L453.17 223.59M453.17 223.59L456 226.41M461.64 226.41L464.47 229.23M464.47 229.23L464.47 232.06M464.47 232.06L461.64 234.88M461.64 234.88L456 234.88"/>
<path d="M443.29 221.7L443.29 201.94"/>
<path d="M423.52 307.35L423.52 149.23"/>
<path d="M416.94 300.76L416.94 155.82"/>
<path d="M410.35 294.18L410.35 162.41"/>
<path d="M351.05 241.47L351.05 215.11"/>
<path d="M377.41 215.11L377.41 241.47"/>
<path d="M324.7 215.11L324.7 241.47"/>
<path d="M397.17 333.71L405.31 332.42M405.31 332.42L412.66 328.67M412.66 328.67L418.49 322.84M418.49 322.84L422.23 315.5M422.23 315.5L423.52 307.35"/>
<path d="M390.58 327.12L398.73 325.83M398.73 325.83L406.07 322.08M406.07 322.08L411.9 316.25M411.9 316.25L415.65 308.91M415.65 308.91L416.94 300.76"/>
<path d="M383.99 320.53L392.14 319.24M392.14 319.24L399.48 315.5M399.48 315.5L405.31 309.67M405.31 309.67L409.06 302.32M409.06 302.32L410.35 294.18"/>
<path d="M397.17 274.41L410.35 274.41"/>
<path d="M410.35 228.29L397.17 228.29"/>
<path d="M390.58 281L410.35 281"/>
<path d="M410.35 221.7L390.58 221.7"/>
<path d="M298.34 294.18L298.34 267.82"/>
<path d="M324.7 267.82L324.7 294.18"/>
<path d="M314.6 277.7L324.49 277.7"/>
<path d="M324.49 284.29L314.6 284.29"/>
<path d="M324.7 294.18L298.34 294.18"/>
<path d="M311.31 284.29L301.43 284.29"/>
<path d="M301.43 279.35L311.31 279.35"/>
<path d="M301.43 279.35L301.43 284.29"/>
<path d="M311.31 274.41L311.31 287.59"/>
<path d="M314.6 274.41L314.6 287.59"/>
<path d="M314.6 287.59L311.31 287.59"/>
<path d="M311.31 274.41L314.6 274.41"/>
<path d="M314.6 225L324.49 225"/>
<path d="M324.49 231.59L314.6 231.59"/>
<path d="M298.34 267.82L324.7 267.82"/>
<path d="M311.31 231.59L301.43 231.59"/>
<path d="M301.43 226.64L311.31 226.64"/>
<path d="M301.43 226.64L301.43 231.59"/>
<path d="M311.31 221.7L311.31 234.88"/>
<path d="M314.6 221.7L314.6 234.88"/>
<path d="M314.6 234.88L311.31 234.88"/>
<path d="M311.31 221.7L314.6 221.7"/>
<path d="M397.17 228.29L397.17 274.41"/>
<path d="M390.58 221.7L390.58 281"/>
<path d="M351.05 294.18L351.05 267.82"/>
<path d="M377.41 267.82L377.41 294.18"/>
<path d="M367.31 277.7L377.19 277.7"/>
<path d="M377.19 284.29L367.31 284.29"/>
<path d="M377.41 294.18L351.05 294.18"/>
<path d="M364.02 284.29L354.13 284.29"/>
<path d="M354.13 279.35L364.02 279.35"/>
<path d="M354.13 279.35L354.13 284.29"/>
<path d="M364.02 274.41L364.02 287.59"/>
<path d="M367.31 274.41L367.31 287.59"/>
<path d="M367.31 287.59L364.02 287.59"/>
<path d="M364.02 274.41L367.31 274.41"/>
<path d="M367.31 225L377.19 225"/>
<path d="M377.19 231.59L367.31 231.59"/>
<path d="M351.05 267.82L377.41 267.82"/>
<path d="M377.41 241.47L351.05 241.47"/>
<path d="M364.02 231.59L354.13 231.59"/>
<path d="M354.13 226.64L364.02 226.64"/>
<path d="M354.13 226.64L354.13 231.59"/>
<path d="M364.02 221.7L364.02 234.88"/>
<path d="M367.31 221.7L367.31 234.88"/>
<path d="M367.31 234.88L364.02 234.88"/>
<path d="M364.02 221.7L367.31 221.7"/>
<path d="M446.58 273.47L449.41 270.65M449.41 270.65L449.41 287.59M446.58 287.59L452.23 287.59M457.88 273.47L460.7 270.65M460.7 270.65L466.35 270.65M466.35 270.65L469.17 273.47M469.17 273.47L469.17 276.29M469.17 276.29L466.35 279.12M466.35 279.12L460.7 279.12M460.7 279.12L457.88 281.94M457.88 281.94L457.88 287.59M457.88 287.59L469.17 287.59"/>
<path d="M423.52 221.7L443.29 221.7"/>
<path d="M423.52 149.23L422.23 141.09M422.23 141.09L418.49 133.74M418.49 133.74L412.66 127.91M412.66 127.91L405.31 124.17M405.31 124.17L397.17 122.88"/>
<path d="M416.94 155.82L415.65 147.67M415.65 147.67L411.9 140.33M411.9 140.33L406.07 134.5M406.07 134.5L398.73 130.75M398.73 130.75L390.58 129.47"/>
<path d="M410.35 162.41L409.06 154.26M409.06 154.26L405.31 146.92M405.31 146.92L399.48 141.09M399.48 141.09L392.14 137.34M392.14 137.34L383.99 136.05"/>
<path d="M410.35 185.47L390.58 185.47"/>
<path d="M390.58 165.7L410.35 165.7"/>
<path d="M331.29 122.88L331.29 76.76"/>
<path d="M344.46 122.88L344.46 70.17"/>
<path d="M318.11 188.76L318.11 162.41"/>
<path d="M324.7 188.76L324.7 162.41"/>
<path d="M337.87 195.35L337.87 155.82"/>
<path d="M311.52 155.82L311.52 195.35"/>
<path d="M318.11 188.76L324.7 188.76"/>
<path d="M311.52 195.35L337.87 195.35"/>
<path d="M324.7 169L337.87 169"/>
<path d="M337.87 182.17L324.7 182.17"/>
<path d="M324.7 162.41L318.11 162.41"/>
<path d="M337.87 155.82L311.52 155.82"/>
<path d="M370.82 188.76L370.82 162.41"/>
<path d="M377.41 188.76L377.41 162.41"/>
<path d="M390.58 155.82L390.58 195.35"/>
<path d="M364.23 195.35L364.23 155.82"/>
<path d="M377.41 188.76L370.82 188.76"/>
<path d="M351.05 215.11L377.41 215.11"/>
<path d="M390.58 195.35L364.23 195.35"/>
<path d="M377.41 169L390.58 169"/>
<path d="M390.58 182.17L377.41 182.17"/>
<path d="M397.17 165.7L397.17 185.47"/>
<path d="M370.82 162.41L377.41 162.41"/>
<path d="M364.23 155.82L390.58 155.82"/>
<path d="M331.29 76.76L304.93 76.76"/>
<path d="M304.93 89.93L304.93 76.76"/>
<path d="M344.46 70.17L343.58 66.88M343.58 66.88L341.17 64.46M341.17 64.46L337.87 63.58"/>
<path d="M457.88 176.53L446.58 176.53M446.58 176.53L455.05 165.23M455.05 165.23L455.05 182.17"/>
<path d="M443.29 201.94L423.52 201.94"/>
</g>
</g>
</svg>
