<?xml version="1.0" standalone="no"?><svg xmlns="http://www.w3.org/2000/svg" width="600.000" height="450.000" viewBox="0.0 0.0 600.000 450.000" version="1.1">
<title>Acme Converter - Post-processed with EDS-Designer: 14.44 (info@symca.com)</title>
<desc>Acme Converter - Post-processed with EDS-Designer: 14.44 (info@symca.com)</desc>
<g id="EDS_STYLE_GROUP" fill="none" stroke="black" stroke-width="1.0">
<g id="0" display="visible">
<path d="M143.59 183.62L143.59 204.31"/>
<path d="M143.59 204.31L164.28 204.31"/>
<path d="M164.28 204.31L164.28 183.62"/>
<path d="M164.28 183.62L143.59 183.62"/>
<path d="M143.59 183.62L133.24 173.28"/>
<path d="M133.24 173.28L133.24 214.66"/>
<path d="M133.24 214.66L174.62 214.66"/>
<path d="M174.62 214.66L174.62 173.28"/>
<path d="M174.62 173.28L133.24 173.28"/>
<path d="M164.28 183.62L174.62 173.28"/>
<path d="M164.28 204.31L174.62 214.66"/>
<path d="M195.31 173.28L195.31 214.66"/>
<path d="M195.31 214.66L236.69 214.66"/>
<path d="M236.69 214.66L236.69 173.28"/>
<path d="M236.69 173.28L195.31 173.28"/>
<path d="M195.31 173.28L205.66 183.62"/>
<path d="M205.66 183.62L205.66 204.31"/>
<path d="M205.66 204.31L226.35 204.31"/>
<path d="M226.35 204.31L226.35 183.62"/>
<path d="M226.35 183.62L205.66 183.62"/>
<path d="M143.59 204.31L133.24 214.66"/>
<path d="M226.35 183.62L236.69 173.28"/>
<path d="M205.66 204.31L195.31 214.66"/>
<path d="M226.35 204.31L236.69 214.66"/>
<path d="M257.38 173.28L257.38 214.66"/>
<path d="M257.38 214.66L298.76 214.66"/>
<path d="M298.76 214.66L298.76 173.28"/>
<path d="M298.76 173.28L257.38 173.28"/>
<path d="M257.38 173.28L267.73 183.62"/>
<path d="M267.73 183.62L267.73 204.31"/>
<path d="M267.73 204.31L288.42 204.31"/>
<path d="M288.42 204.31L288.42 183.62"/>
<path d="M288.42 183.62L267.73 183.62"/>
<path d="M288.42 183.62L298.76 173.28"/>
<path d="M267.73 204.31L257.38 214.66"/>
<path d="M288.42 204.31L298.76 214.66"/>
<path d="M319.45 173.28L319.45 214.66"/>
<path d="M319.45 214.66L360.83 214.66"/>
<path d="M360.83 214.66L360.83 173.28"/>
<path d="M360.83 173.28L319.45 173.28"/>
<path d="M319.45 173.28L329.79 183.62"/>
<path d="M329.79 183.62L329.79 204.31"/>
<path d="M329.79 204.31L350.48 204.31"/>
<path d="M350.48 204.31L350.48 183.62"/>
<path d="M350.48 183.62L329.79 183.62"/>
<path d="M350.48 183.62L360.83 173.28"/>
<path d="M329.79 204.31L319.45 214.66"/>
<path d="M350.48 204.31L360.83 214.66"/>
<path d="M381.52 173.28L381.52 214.66"/>
<path d="M381.52 214.66L422.9 214.66"/>
<path d="M422.9 214.66L422.9 173.28"/>
<path d="M422.9 173.28L381.52 173.28"/>
<path d="M381.52 173.28L391.86 183.62"/>
<path d="M391.86 183.62L391.86 204.31"/>
<path d="M391.86 204.31L412.55 204.31"/>
<path d="M412.55 204.31L412.55 183.62"/>
<path d="M412.55 183.62L391.86 183.62"/>
<path d="M412.55 183.62L422.9 173.28"/>
<path d="M391.86 204.31L381.52 214.66"/>
<path d="M412.55 204.31L422.9 214.66"/>
<path d="M443.59 173.28L443.59 214.66"/>
<path d="M443.59 214.66L484.96 214.66"/>
<path d="M484.96 214.66L484.96 173.28"/>
<path d="M484.96 173.28L443.59 173.28"/>
<path d="M443.59 173.28L453.93 183.62"/>
<path d="M453.93 183.62L453.93 204.31"/>
<path d="M453.93 204.31L474.62 204.31"/>
<path d="M474.62 204.31L474.62 183.62"/>
<path d="M474.62 183.62L453.93 183.62"/>
<path d="M474.62 183.62L484.96 173.28"/>
<path d="M453.93 204.31L443.59 214.66"/>
<path d="M474.62 204.31L484.96 214.66"/>
<path d="M122.9 225L495.31 225"/>
<path d="M495.31 225L495.31 245.69"/>
<path d="M495.31 245.69L505.65 245.69"/>
<path d="M505.65 245.69L505.65 173.28"/>
<path d="M505.65 173.28L526.34 173.28"/>
<path d="M526.34 173.28L526.34 121.55"/>
<path d="M526.34 121.55L60.83 121.55"/>
<path d="M60.83 121.55L60.83 142.24"/>
<path d="M60.83 142.24L112.56 142.24"/>
<path d="M112.56 142.24L112.56 245.69"/>
<path d="M112.56 245.69L122.9 245.69"/>
<path d="M122.9 245.69L122.9 225"/>
<path d="M122.9 131.9L122.9 152.59"/>
<path d="M122.9 152.59L236.69 152.59"/>
<path d="M236.69 152.59L236.69 131.9"/>
<path d="M236.69 131.9L122.9 131.9"/>
<path d="M391.86 131.9L391.86 152.59"/>
<path d="M391.86 152.59L516 152.59"/>
<path d="M516 152.59L516 131.9"/>
<path d="M516 131.9L391.86 131.9"/>
<path d="M143.59 131.9L143.59 152.59"/>
<path d="M184.97 131.9L184.97 152.59"/>
<path d="M205.66 131.9L205.66 152.59"/>
<path d="M412.55 131.9L412.55 152.59"/>
<path d="M453.93 131.9L453.93 152.59"/>
<path d="M474.62 131.9L474.62 152.59"/>
<path d="M122.9 245.69L495.31 245.69"/>
<path d="M505.65 245.69L547.03 245.69"/>
<path d="M547.03 245.69L547.03 100.86"/>
<path d="M547.03 100.86L60.83 100.86"/>
<path d="M60.83 100.86L60.83 121.55"/>
<path d="M60.83 142.24L60.83 245.69"/>
<path d="M60.83 245.69L112.56 245.69"/>
<path d="M588.66 181.16L592.6 179.19M592.6 179.19L598.51 173.28M598.51 173.28L598.51 214.66"/>
<path d="M25.12 179.19L23.15 175.25M23.15 175.25L17.24 173.28M17.24 173.28L13.3 173.28M13.3 173.28L7.38 175.25M7.38 175.25L3.44 181.16M3.44 181.16L1.47 191.01M1.47 191.01L1.47 200.86M1.47 200.86L3.44 208.74M3.44 208.74L7.38 212.68M7.38 212.68L13.3 214.66M13.3 214.66L15.27 214.66M15.27 214.66L21.18 212.68M21.18 212.68L25.12 208.74M25.12 208.74L27.09 202.83M27.09 202.83L27.09 200.86M27.09 200.86L25.12 194.95M25.12 194.95L21.18 191.01M21.18 191.01L15.27 189.04M15.27 189.04L13.3 189.04M13.3 189.04L7.38 191.01M7.38 191.01L3.44 194.95M3.44 194.95L1.47 200.86"/>
<path d="M186.94 349.14L186.94 297.41M189.4 297.41L189.4 349.14M179.55 297.41L209.11 297.41M209.11 297.41L216.49 299.88M216.49 299.88L218.96 302.34M218.96 302.34L221.42 307.27M221.42 307.27L221.42 312.19M221.42 312.19L218.96 317.12M218.96 317.12L216.49 319.58M216.49 319.58L209.11 322.04M209.11 297.41L214.03 299.88M214.03 299.88L216.49 302.34M216.49 302.34L218.96 307.27M218.96 307.27L218.96 312.19M218.96 312.19L216.49 317.12M216.49 317.12L214.03 319.58M214.03 319.58L209.11 322.04M189.4 322.04L209.11 322.04M209.11 322.04L216.49 324.51M216.49 324.51L218.96 326.97M218.96 326.97L221.42 331.9M221.42 331.9L221.42 339.28M221.42 339.28L218.96 344.21M218.96 344.21L216.49 346.67M216.49 346.67L209.11 349.14M209.11 349.14L179.55 349.14M209.11 322.04L214.03 324.51M214.03 324.51L216.49 326.97M216.49 326.97L218.96 331.9M218.96 331.9L218.96 339.28M218.96 339.28L216.49 344.21M216.49 344.21L214.03 346.67M214.03 346.67L209.11 349.14M241.13 349.14L241.13 297.41M243.59 297.41L243.59 349.14M233.74 297.41L250.98 297.41M233.74 349.14L270.68 349.14M270.68 349.14L270.68 334.36M270.68 334.36L268.22 349.14M300.24 297.41L283 349.14M300.24 297.41L317.48 349.14M300.24 304.8L315.02 349.14M287.92 334.36L310.09 334.36M278.07 349.14L292.85 349.14M307.63 349.14L322.4 349.14M364.28 304.8L366.74 312.19M366.74 312.19L366.74 297.41M366.74 297.41L364.28 304.8M364.28 304.8L359.35 299.88M359.35 299.88L351.96 297.41M351.96 297.41L347.04 297.41M347.04 297.41L339.65 299.88M339.65 299.88L334.72 304.8M334.72 304.8L332.26 309.73M332.26 309.73L329.79 317.12M329.79 317.12L329.79 329.43M329.79 329.43L332.26 336.82M332.26 336.82L334.72 341.75M334.72 341.75L339.65 346.67M339.65 346.67L347.04 349.14M347.04 349.14L351.96 349.14M351.96 349.14L359.35 346.67M359.35 346.67L364.28 341.75M364.28 341.75L366.74 336.82M347.04 297.41L342.11 299.88M342.11 299.88L337.18 304.8M337.18 304.8L334.72 309.73M334.72 309.73L332.26 317.12M332.26 317.12L332.26 329.43M332.26 329.43L334.72 336.82M334.72 336.82L337.18 341.75M337.18 341.75L342.11 346.67M342.11 346.67L347.04 349.14M388.91 349.14L388.91 297.41M391.37 297.41L391.37 349.14M423.39 297.41L391.37 329.43M403.68 319.58L423.39 349.14M401.22 319.58L420.93 349.14M381.52 297.41L398.76 297.41M413.54 297.41L428.31 297.41M381.52 349.14L398.76 349.14M413.54 349.14L428.31 349.14"/>
</g>
</g>
</svg>
