<?xml version="1.0" standalone="no"?><svg xmlns="http://www.w3.org/2000/svg" width="600.000" height="450.000" viewBox="0.0 0.0 600.000 450.000" version="1.1">
<title>Acme Converter - Post-processed with EDS-Designer: 14.44 (info@symca.com)</title>
<desc>Acme Converter - Post-processed with EDS-Designer: 14.44 (info@symca.com)</desc>
<g id="EDS_STYLE_GROUP" fill="none" stroke="black" stroke-width="1.0">
<g id="0" display="visible">
<path d="M331.19 169.02L329.95 166.01M329.95 166.01L326.94 164.77"/>
<path d="M272.22 164.77L269.21 166.01M269.21 166.01L267.97 169.02"/>
<path d="M267.11 159.66L264.11 160.91M264.11 160.91L262.86 163.91"/>
<path d="M336.3 163.91L335.05 160.91M335.05 160.91L332.04 159.66"/>
<path d="M463.48 209.79L480.91 209.79M480.91 209.79L480.91 235.63M480.91 235.63L463.48 235.63M463.48 235.63L463.48 209.79"/>
<path d="M412.43 209.79L429.86 209.79M429.86 209.79L429.86 235.63M429.86 235.63L412.43 235.63M412.43 235.63L412.43 209.79"/>
<path d="M437.95 209.79L455.39 209.79M455.39 209.79L455.39 235.63M455.39 235.63L437.95 235.63M437.95 235.63L437.95 209.79"/>
<path d="M553.18 189.42L552.99 283.21"/>
<path d="M400.45 243.38L417.88 243.38M417.88 243.38L417.88 269.21M417.88 269.21L400.45 269.21M400.45 269.21L400.45 243.38"/>
<path d="M451.5 243.38L468.93 243.38M468.93 243.38L468.93 269.21M468.93 269.21L451.5 269.21M451.5 269.21L451.5 243.38"/>
<path d="M425.97 243.38L443.41 243.38M443.41 243.38L443.41 269.21M443.41 269.21L425.97 269.21M425.97 269.21L425.97 243.38"/>
<path d="M331.19 186.79L331.19 169.02"/>
<path d="M336.3 186.79L336.3 163.91"/>
<path d="M267.97 186.79L267.97 169.02"/>
<path d="M262.86 186.79L262.86 163.91"/>
<path d="M361.38 209.79L378.81 209.79M378.81 209.79L378.81 235.63M378.81 235.63L361.38 235.63M361.38 235.63L361.38 209.79"/>
<path d="M310.33 209.79L327.76 209.79M327.76 209.79L327.76 235.63M327.76 235.63L310.33 235.63M310.33 235.63L310.33 209.79"/>
<path d="M335.85 209.79L353.29 209.79M353.29 209.79L353.29 235.63M353.29 235.63L335.85 235.63M335.85 235.63L335.85 209.79"/>
<path d="M284.8 209.79L302.23 209.79M302.23 209.79L302.23 235.63M302.23 235.63L284.8 235.63M284.8 235.63L284.8 209.79"/>
<path d="M208.22 209.79L225.66 209.79M225.66 209.79L225.66 235.63M225.66 235.63L208.22 235.63M208.22 235.63L208.22 209.79"/>
<path d="M233.75 209.79L251.18 209.79M251.18 209.79L251.18 235.63M251.18 235.63L233.75 235.63M233.75 235.63L233.75 209.79"/>
<path d="M157.17 209.79L174.61 209.79M174.61 209.79L174.61 235.63M174.61 235.63L157.17 235.63M157.17 235.63L157.17 209.79"/>
<path d="M182.7 209.79L200.13 209.79M200.13 209.79L200.13 235.63M200.13 235.63L182.7 235.63M182.7 235.63L182.7 209.79"/>
<path d="M259.28 209.79L276.71 209.79M276.71 209.79L276.71 235.63M276.71 235.63L259.28 235.63M259.28 235.63L259.28 209.79"/>
<path d="M106.12 209.79L123.56 209.79M123.56 209.79L123.56 235.63M123.56 235.63L106.12 235.63M106.12 235.63L106.12 209.79"/>
<path d="M131.65 209.79L149.08 209.79M149.08 209.79L149.08 235.63M149.08 235.63L131.65 235.63M131.65 235.63L131.65 209.79"/>
<path d="M80.6 209.79L98.03 209.79M98.03 209.79L98.03 235.63M98.03 235.63L80.6 235.63M80.6 235.63L80.6 209.79"/>
<path d="M272.82 243.38L290.26 243.38M290.26 243.38L290.26 269.21M290.26 269.21L272.82 269.21M272.82 269.21L272.82 243.38"/>
<path d="M68.62 243.38L86.05 243.38M86.05 243.38L86.05 269.21M86.05 269.21L68.62 269.21M68.62 269.21L68.62 243.38"/>
<path d="M94.14 243.38L111.58 243.38M111.58 243.38L111.58 269.21M111.58 269.21L94.14 269.21M94.14 269.21L94.14 243.38"/>
<path d="M145.19 243.38L162.63 243.38M162.63 243.38L162.63 269.21M162.63 269.21L145.19 269.21M145.19 269.21L145.19 243.38"/>
<path d="M119.67 243.38L137.1 243.38M137.1 243.38L137.1 269.21M137.1 269.21L119.67 269.21M119.67 269.21L119.67 243.38"/>
<path d="M196.25 243.38L213.68 243.38M213.68 243.38L213.68 269.21M213.68 269.21L196.25 269.21M196.25 269.21L196.25 243.38"/>
<path d="M170.72 243.38L188.15 243.38M188.15 243.38L188.15 269.21M188.15 269.21L170.72 269.21M170.72 269.21L170.72 243.38"/>
<path d="M247.3 243.38L264.73 243.38M264.73 243.38L264.73 269.21M264.73 269.21L247.3 269.21M247.3 269.21L247.3 243.38"/>
<path d="M221.77 243.38L239.2 243.38M239.2 243.38L239.2 269.21M239.2 269.21L221.77 269.21M221.77 269.21L221.77 243.38"/>
<path d="M298.35 243.38L315.78 243.38M315.78 243.38L315.78 269.21M315.78 269.21L298.35 269.21M298.35 269.21L298.35 243.38"/>
<path d="M349.4 243.38L366.83 243.38M366.83 243.38L366.83 269.21M366.83 269.21L349.4 269.21M349.4 269.21L349.4 243.38"/>
<path d="M323.87 243.38L341.31 243.38M341.31 243.38L341.31 269.21M341.31 269.21L323.87 269.21M323.87 269.21L323.87 243.38"/>
<path d="M46.15 283.79L46.15 186.79"/>
<path d="M553.21 283.88L46.61 283.88"/>
<path d="M46.15 186.79L551.69 186.91"/>
<path d="M46.15 191.9L553.04 191.9"/>
<path d="M386.9 209.79L404.34 209.79M404.34 209.79L404.34 235.63M404.34 235.63L386.9 235.63M386.9 235.63L386.9 209.79"/>
<path d="M374.92 243.38L392.36 243.38M392.36 243.38L392.36 269.21M392.36 269.21L374.92 269.21M374.92 269.21L374.92 243.38"/>
<path d="M565.12 220.8L565.12 219.85M565.12 219.85L566.12 217.96M566.12 217.96L567.11 217.01M567.11 217.01L569.09 216.07M569.09 216.07L573.06 216.07M573.06 216.07L575.05 217.01M575.05 217.01L576.04 217.96M576.04 217.96L577.04 219.85M577.04 219.85L577.04 221.74M577.04 221.74L576.04 223.63M576.04 223.63L574.06 226.47M574.06 226.47L564.13 235.92M564.13 235.92L578.03 235.92M589.94 216.07L586.96 217.01M586.96 217.01L584.98 219.85M584.98 219.85L583.98 224.58M583.98 224.58L583.98 227.41M583.98 227.41L584.98 232.14M584.98 232.14L586.96 234.97M586.96 234.97L589.94 235.92M589.94 235.92L591.92 235.92M591.92 235.92L594.9 234.97M594.9 234.97L596.89 232.14M596.89 232.14L597.88 227.41M597.88 227.41L597.88 224.58M597.88 224.58L596.89 219.85M596.89 219.85L594.9 217.01M594.9 217.01L591.92 216.07M591.92 216.07L589.94 216.07"/>
<path d="M23.62 219.85L26.17 218.9M26.17 218.9L29.99 216.07M29.99 216.07L29.99 235.92"/>
<path d="M2.41 254.33L2.41 253.38M2.41 253.38L3.56 251.49M3.56 251.49L4.72 250.55M4.72 250.55L7.03 249.6M7.03 249.6L11.65 249.6M11.65 249.6L13.96 250.55M13.96 250.55L15.12 251.49M15.12 251.49L16.27 253.38M16.27 253.38L16.27 255.27M16.27 255.27L15.12 257.16M15.12 257.16L12.81 260M12.81 260L1.25 269.45M1.25 269.45L17.43 269.45M24.36 253.38L26.67 252.44M26.67 252.44L30.13 249.6M30.13 249.6L30.13 269.45"/>
<path d="M574.99 249.6L565.06 262.83M565.06 262.83L579.95 262.83M574.99 249.6L574.99 269.45M590.87 249.6L587.89 250.55M587.89 250.55L585.91 253.38M585.91 253.38L584.91 258.11M584.91 258.11L584.91 260.94M584.91 260.94L585.91 265.67M585.91 265.67L587.89 268.51M587.89 268.51L590.87 269.45M590.87 269.45L592.86 269.45M592.86 269.45L595.83 268.51M595.83 268.51L597.82 265.67M597.82 265.67L598.81 260.94M598.81 260.94L598.81 258.11M598.81 258.11L597.82 253.38M597.82 253.38L595.83 250.55M595.83 250.55L592.86 249.6M592.86 249.6L590.87 249.6"/>
<path d="M47.48 171.88L51.5 171.88M51.5 171.88L51.5 171.88M51.5 171.88L52.44 172.28M52.44 172.28L52.84 173.22M52.84 173.22L52.84 191.98M52.84 191.98L46.14 191.98M46.14 191.98L46.14 173.22M46.14 173.22L46.14 173.22M46.14 173.22L46.53 172.28M46.53 172.28L47.48 171.88"/>
<path d="M77.96 171.81L81.98 171.81M81.98 171.81L81.98 171.81M81.98 171.81L82.93 172.2M82.93 172.2L83.32 173.15M83.32 173.15L83.32 191.91M83.32 191.91L76.62 191.91M76.62 191.91L76.62 173.15M76.62 173.15L76.62 173.15M76.62 173.15L77.01 172.2M77.01 172.2L77.96 171.81"/>
<path d="M517.21 171.74L521.23 171.74M521.23 171.74L521.23 171.74M521.23 171.74L522.18 172.14M522.18 172.14L522.57 173.08M522.57 173.08L522.57 191.84M522.57 191.84L515.87 191.84M515.87 191.84L515.87 173.08M515.87 173.08L515.87 173.08M515.87 173.08L516.26 172.14M516.26 172.14L517.21 171.74"/>
<path d="M547.69 171.67L551.71 171.67M551.71 171.67L551.71 171.67M551.71 171.67L552.66 172.06M552.66 172.06L553.05 173.01M553.05 173.01L553.05 191.77M553.05 191.77L546.35 191.77M546.35 191.77L546.35 173.01M546.35 173.01L546.35 173.01M546.35 173.01L546.75 172.06M546.75 172.06L547.69 171.67"/>
<path d="M337.88 166.95L341.9 166.95M341.9 166.95L341.9 166.95M341.9 166.95L342.84 167.34M342.84 167.34L343.24 168.29M343.24 168.29L343.23 191.84M343.23 191.84L336.56 191.84M336.56 191.84L336.54 168.29M336.54 168.29L336.54 168.29M336.54 168.29L336.93 167.34M336.93 167.34L337.88 166.95"/>
<path d="M364.64 171.83L368.66 171.83M368.66 171.83L368.66 171.83M368.66 171.83L369.61 172.22M369.61 172.22L370 173.17M370 173.17L370 191.93M370 191.93L363.3 191.93M363.3 191.93L363.3 173.17M363.3 173.17L363.3 173.17M363.3 173.17L363.69 172.22M363.69 172.22L364.64 171.83"/>
<path d="M257.31 167.05L261.33 167.05M261.33 167.05L261.33 167.05M261.33 167.05L262.28 167.44M262.28 167.44L262.67 168.39M262.67 168.39L262.66 191.93M262.66 191.93L255.99 191.93M255.99 191.93L255.97 168.39M255.97 168.39L255.97 168.39M255.97 168.39L256.36 167.44M256.36 167.44L257.31 167.05"/>
<path d="M231.44 171.73L235.46 171.73M235.46 171.73L235.46 171.73M235.46 171.73L236.41 172.12M236.41 172.12L236.8 173.07M236.8 173.07L236.8 191.83M236.8 191.83L230.1 191.83M230.1 191.83L230.1 173.07M230.1 173.07L230.1 173.07M230.1 173.07L230.49 172.12M230.49 172.12L231.44 171.73"/>
<path d="M46.17 277.1L553.04 277.1"/>
<path d="M432.03 133.45L368.07 128.26M368.07 128.26L303.93 126.43M303.93 126.43L239.78 127.97M239.78 127.97L175.8 132.86"/>
<path d="M48.13 171.95L83.26 159.18"/>
<path d="M83.71 159.1L142.31 159.1"/>
<path d="M83.71 159.1L83.25 159.18"/>
<path d="M142.31 159.1L176.25 132.86"/>
<path d="M551.57 171.75L517.12 160.23"/>
<path d="M517.12 160.23L461 160.23"/>
<path d="M460.33 160.25L431.96 133.31"/>
<path d="M332.91 159.67L316.72 154.82M316.72 154.82L299.91 153.18M299.91 153.18L283.1 154.81M283.1 154.81L266.91 159.65"/>
<path d="M327.72 164.78L313.98 161.15M313.98 161.15L299.82 159.91M299.82 159.91L285.66 161.08M285.66 161.08L271.9 164.64"/>
<path d="M256.84 296.35L258.35 300.89M258.35 300.89L258.35 291.81M258.35 291.81L256.84 296.35M256.84 296.35L253.81 293.33M253.81 293.33L249.28 291.81M249.28 291.81L246.25 291.81M246.25 291.81L241.72 293.33M241.72 293.33L238.69 296.35M238.69 296.35L237.18 299.38M237.18 299.38L235.67 303.91M235.67 303.91L235.67 311.47M235.67 311.47L237.18 316.01M237.18 316.01L238.69 319.04M238.69 319.04L241.72 322.06M241.72 322.06L246.25 323.57M246.25 323.57L249.28 323.57M249.28 323.57L253.81 322.06M253.81 322.06L256.84 319.04M246.25 291.81L243.23 293.33M243.23 293.33L240.2 296.35M240.2 296.35L238.69 299.38M238.69 299.38L237.18 303.91M237.18 303.91L237.18 311.47M237.18 311.47L238.69 316.01M238.69 316.01L240.2 319.04M240.2 319.04L243.23 322.06M243.23 322.06L246.25 323.57M256.84 311.47L256.84 323.57M258.35 311.47L258.35 323.57M252.3 311.47L262.89 311.47M274.99 323.57L274.99 291.81M276.5 291.81L276.5 323.57M270.45 291.81L288.6 291.81M288.6 291.81L293.14 293.33M293.14 293.33L294.65 294.84M294.65 294.84L296.16 297.86M296.16 297.86L296.16 300.89M296.16 300.89L294.65 303.91M294.65 303.91L293.14 305.43M293.14 305.43L288.6 306.94M288.6 306.94L276.5 306.94M288.6 291.81L291.63 293.33M291.63 293.33L293.14 294.84M293.14 294.84L294.65 297.86M294.65 297.86L294.65 300.89M294.65 300.89L293.14 303.91M293.14 303.91L291.63 305.43M291.63 305.43L288.6 306.94M270.45 323.57L281.04 323.57M284.06 306.94L287.09 308.45M287.09 308.45L288.6 309.96M288.6 309.96L293.14 320.55M293.14 320.55L294.65 322.06M294.65 322.06L296.16 322.06M296.16 322.06L297.68 320.55M287.09 308.45L288.6 311.47M288.6 311.47L291.63 322.06M291.63 322.06L293.14 323.57M293.14 323.57L296.16 323.57M296.16 323.57L297.68 320.55M297.68 320.55L297.68 319.04M308.26 323.57L308.26 291.81M309.77 291.81L309.77 323.57M318.85 300.89L318.85 312.99M303.73 291.81L327.92 291.81M327.92 291.81L327.92 300.89M327.92 300.89L326.41 291.81M309.77 306.94L318.85 306.94M303.73 323.57L327.92 323.57M327.92 323.57L327.92 314.5M327.92 314.5L326.41 323.57M338.51 291.81L349.1 308.45M349.1 308.45L349.1 323.57M340.02 291.81L350.61 308.45M350.61 308.45L350.61 323.57M361.2 291.81L350.61 308.45M335.49 291.81L344.56 291.81M355.15 291.81L364.22 291.81M344.56 323.57L355.15 323.57"/>
<path d="M516.45 209.71L533.89 209.71M533.89 209.71L533.89 235.54M533.89 235.54L516.45 235.54M516.45 235.54L516.45 209.71"/>
<path d="M490.93 209.71L508.36 209.71M508.36 209.71L508.36 235.54M508.36 235.54L490.93 235.54M490.93 235.54L490.93 209.71"/>
<path d="M504.47 243.29L521.91 243.29M521.91 243.29L521.91 269.13M521.91 269.13L504.47 269.13M504.47 269.13L504.47 243.29"/>
<path d="M478.95 243.29L496.38 243.29M496.38 243.29L496.38 269.13M496.38 269.13L478.95 269.13M478.95 269.13L478.95 243.29"/>
</g>
</g>
</svg>
