<?xml version="1.0" standalone="no"?><svg xmlns="http://www.w3.org/2000/svg" width="600.000" height="450.000" viewBox="0.0 0.0 600.000 450.000" version="1.1">
<title>Acme Converter - Post-processed with EDS-Designer: 14.44 (info@symca.com)</title>
<desc>Acme Converter - Post-processed with EDS-Designer: 14.44 (info@symca.com)</desc>
<g id="EDS_STYLE_GROUP" fill="none" stroke="black" stroke-width="1.0">
<g id="0" display="visible">
<path d="M220.17 118.35L215.47 119.88M215.47 119.88L212.57 123.87M212.57 123.87L212.57 128.81M212.57 128.81L215.47 132.8M215.47 132.8L220.17 134.33"/>
<path d="M228.15 230.17L284.06 230.17"/>
<path d="M228.15 230.17L228.15 246.14"/>
<path d="M228.15 246.14L284.06 246.14"/>
<path d="M284.06 246.14L284.06 230.17"/>
<path d="M284.06 230.17L292.05 222.18"/>
<path d="M292.05 222.18L292.05 254.13"/>
<path d="M292.05 254.13L220.17 254.13"/>
<path d="M220.17 254.13L220.17 222.18"/>
<path d="M220.17 222.18L292.05 222.18"/>
<path d="M220.17 222.18L228.15 230.17"/>
<path d="M220.17 254.13L228.15 246.14"/>
<path d="M284.06 246.14L292.05 254.13"/>
<path d="M316.01 230.17L316.01 246.14"/>
<path d="M316.01 246.14L371.92 246.14"/>
<path d="M371.92 246.14L371.92 230.17"/>
<path d="M371.92 230.17L316.01 230.17"/>
<path d="M316.01 230.17L308.02 222.18"/>
<path d="M308.02 222.18L308.02 254.13"/>
<path d="M308.02 254.13L379.9 254.13"/>
<path d="M379.9 254.13L379.9 222.18"/>
<path d="M379.9 222.18L308.02 222.18"/>
<path d="M371.92 230.17L379.9 222.18"/>
<path d="M316.01 246.14L308.02 254.13"/>
<path d="M371.92 246.14L379.9 254.13"/>
<path d="M236.14 214.19L276.08 214.19"/>
<path d="M276.08 214.19L276.08 206.21"/>
<path d="M276.08 206.21L268.09 206.21"/>
<path d="M268.09 206.21L260.1 206.21"/>
<path d="M260.1 206.21L260.1 198.22"/>
<path d="M260.1 198.22L252.12 198.22"/>
<path d="M252.12 198.22L252.12 206.21"/>
<path d="M252.12 206.21L236.14 206.21"/>
<path d="M236.14 206.21L236.14 214.19"/>
<path d="M324 206.21L324 214.19"/>
<path d="M324 214.19L363.93 214.19"/>
<path d="M363.93 214.19L363.93 206.21"/>
<path d="M363.93 206.21L347.96 206.21"/>
<path d="M347.96 206.21L347.96 198.22"/>
<path d="M347.96 198.22L339.97 198.22"/>
<path d="M339.97 198.22L339.97 206.21"/>
<path d="M339.97 206.21L324 206.21"/>
<path d="M236.14 262.11L276.08 262.11"/>
<path d="M276.08 262.11L276.08 270.1"/>
<path d="M276.08 270.1L260.1 270.1"/>
<path d="M260.1 270.1L260.1 278.09"/>
<path d="M260.1 278.09L252.12 278.09"/>
<path d="M252.12 278.09L252.12 270.1"/>
<path d="M252.12 270.1L236.14 270.1"/>
<path d="M236.14 270.1L236.14 262.11"/>
<path d="M324 270.1L324 262.11"/>
<path d="M324 262.11L363.93 262.11"/>
<path d="M363.93 262.11L363.93 270.1"/>
<path d="M363.93 270.1L347.96 270.1"/>
<path d="M347.96 270.1L347.96 278.09"/>
<path d="M347.96 278.09L339.97 278.09"/>
<path d="M339.97 278.09L339.97 270.1"/>
<path d="M339.97 270.1L324 270.1"/>
<path d="M212.18 198.22L212.18 278.09"/>
<path d="M220.17 286.07L379.9 286.07"/>
<path d="M387.89 278.09L387.89 198.22"/>
<path d="M379.9 190.23L220.17 190.23"/>
<path d="M236.14 190.23L236.14 174.26"/>
<path d="M236.14 174.26L252.12 174.26"/>
<path d="M252.12 174.26L252.12 190.23"/>
<path d="M347.96 190.23L347.96 174.26"/>
<path d="M347.96 174.26L363.93 174.26"/>
<path d="M363.93 174.26L363.93 190.23"/>
<path d="M371.92 286.07L371.92 302.05"/>
<path d="M371.92 302.05L355.94 302.05"/>
<path d="M355.94 302.05L355.94 286.07"/>
<path d="M228.15 286.07L228.15 302.05"/>
<path d="M228.15 302.05L244.13 302.05"/>
<path d="M244.13 302.05L244.13 286.07"/>
<path d="M220.17 190.23L216.17 191.3M216.17 191.3L213.25 194.23M213.25 194.23L212.18 198.22"/>
<path d="M212.18 278.09L213.25 282.08M213.25 282.08L216.17 285M216.17 285L220.17 286.07"/>
<path d="M379.9 286.07L383.9 285M383.9 285L386.82 282.08M386.82 282.08L387.89 278.09"/>
<path d="M387.89 198.22L386.82 194.23M386.82 194.23L383.9 191.3M383.9 191.3L379.9 190.23"/>
<path d="M387.89 230.17L411.85 230.17"/>
<path d="M411.85 230.17L411.85 246.14"/>
<path d="M411.85 246.14L387.89 246.14"/>
<path d="M212.18 230.17L188.22 230.17"/>
<path d="M188.22 230.17L188.22 246.14"/>
<path d="M188.22 246.14L212.18 246.14"/>
<path d="M180.23 198.22L180.23 270.1"/>
<path d="M220.17 310.03L379.9 310.03"/>
<path d="M419.84 270.1L419.84 198.22"/>
<path d="M379.9 158.29L220.17 158.29"/>
<path d="M164.26 182.25L164.26 286.07"/>
<path d="M204.19 326.01L395.88 326.01"/>
<path d="M435.81 286.07L435.81 182.25"/>
<path d="M395.88 142.31L204.19 142.31"/>
<path d="M220.17 158.29L207.83 160.24M207.83 160.24L196.7 165.91M196.7 165.91L187.86 174.75M187.86 174.75L182.19 185.88M182.19 185.88L180.23 198.22"/>
<path d="M180.23 270.1L182.19 282.44M182.19 282.44L187.86 293.57M187.86 293.57L196.7 302.41M196.7 302.41L207.83 308.08M207.83 308.08L220.17 310.03"/>
<path d="M379.9 310.03L392.24 308.08M392.24 308.08L403.38 302.41M403.38 302.41L412.21 293.57M412.21 293.57L417.88 282.44M417.88 282.44L419.84 270.1"/>
<path d="M419.84 198.22L417.88 185.88M417.88 185.88L412.21 174.75M412.21 174.75L403.38 165.91M403.38 165.91L392.24 160.24M392.24 160.24L379.9 158.29"/>
<path d="M435.81 182.25L433.86 169.91M433.86 169.91L428.18 158.77M428.18 158.77L419.35 149.94M419.35 149.94L408.22 144.27M408.22 144.27L395.88 142.31"/>
<path d="M395.88 326.01L408.22 324.05M408.22 324.05L419.35 318.38M419.35 318.38L428.18 309.55M428.18 309.55L433.86 298.41M433.86 298.41L435.81 286.07"/>
<path d="M164.26 286.07L166.22 298.41M166.22 298.41L171.89 309.55M171.89 309.55L180.72 318.38M180.72 318.38L191.85 324.05M191.85 324.05L204.19 326.01"/>
<path d="M204.19 142.31L191.85 144.27M191.85 144.27L180.72 149.94M180.72 149.94L171.89 158.77M171.89 158.77L166.22 169.91M166.22 169.91L164.26 182.25"/>
<path d="M220.17 134.33L379.9 134.33"/>
<path d="M379.9 118.35L220.17 118.35"/>
<path d="M379.9 134.33L384.6 132.8M384.6 132.8L387.5 128.81M387.5 128.81L387.5 123.87M387.5 123.87L384.6 119.88M384.6 119.88L379.9 118.35"/>
<path d="M220.17 118.35L220.17 102.38"/>
<path d="M220.17 102.38L379.9 102.38"/>
<path d="M379.9 102.38L379.9 118.35"/>
<path d="M228.15 102.38L228.15 78.42"/>
<path d="M228.15 78.42L371.92 78.42"/>
<path d="M371.92 78.42L371.92 102.38"/>
<path d="M228.15 86.41L371.92 86.41"/>
<path d="M228.15 94.39L371.92 94.39"/>
<path d="M196.21 126.34L196.21 74.43"/>
<path d="M208.19 62.45L391.88 62.45"/>
<path d="M403.86 74.43L403.86 126.34"/>
<path d="M148.29 134.33L190.53 56.88"/>
<path d="M208.06 46.47L392.01 46.47"/>
<path d="M409.54 56.88L451.78 134.33"/>
<path d="M208.19 62.45L202.2 64.05M202.2 64.05L197.81 68.44M197.81 68.44L196.21 74.43"/>
<path d="M403.86 74.43L402.26 68.44M402.26 68.44L397.87 64.05M397.87 64.05L391.88 62.45"/>
<path d="M208.06 46.47L201.08 47.73M201.08 47.73L194.98 51.35M194.98 51.35L190.53 56.88"/>
<path d="M409.54 56.88L405.09 51.35M405.09 51.35L398.99 47.73M398.99 47.73L392.01 46.47"/>
<path d="M140.3 222.18L124.33 222.18"/>
<path d="M124.33 222.18L124.33 262.11"/>
<path d="M124.33 262.11L140.3 262.11"/>
<path d="M459.77 222.18L475.74 222.18"/>
<path d="M475.74 222.18L475.74 262.11"/>
<path d="M475.74 262.11L459.77 262.11"/>
<path d="M140.3 222.18L140.3 230.17"/>
<path d="M140.3 230.17L132.31 230.17"/>
<path d="M132.31 230.17L132.31 254.13"/>
<path d="M132.31 254.13L140.3 254.13"/>
<path d="M140.3 254.13L140.3 262.11"/>
<path d="M132.31 230.17L124.33 222.18"/>
<path d="M132.31 254.13L124.33 262.11"/>
<path d="M459.77 222.18L459.77 230.17"/>
<path d="M459.77 230.17L467.76 230.17"/>
<path d="M467.76 230.17L467.76 254.13"/>
<path d="M467.76 254.13L459.77 254.13"/>
<path d="M459.77 254.13L459.77 262.11"/>
<path d="M467.76 230.17L475.74 222.18"/>
<path d="M467.76 254.13L475.74 262.11"/>
<path d="M140.3 222.18L140.3 198.22"/>
<path d="M459.77 222.18L459.77 198.22"/>
<path d="M196.21 126.34L181.37 128.25M181.37 128.25L167.52 133.92M167.52 133.92L155.6 142.96M155.6 142.96L146.42 154.77M146.42 154.77L140.59 168.55M140.59 168.55L138.5 183.37M138.5 183.37L140.3 198.22"/>
<path d="M459.77 198.22L461.92 185.17M461.92 185.17L460.96 171.97M460.96 171.97L456.96 159.37M456.96 159.37L450.12 148.04M450.12 148.04L440.83 138.63M440.83 138.63L429.59 131.64M429.59 131.64L417.04 127.47M417.04 127.47L403.86 126.34"/>
<path d="M148.29 134.33L108.35 198.22"/>
<path d="M108.35 198.22L108.35 294.06"/>
<path d="M451.78 134.33L491.72 198.22"/>
<path d="M491.72 198.22L491.72 302.05"/>
<path d="M491.72 302.05L469.36 329.99"/>
<path d="M108.35 294.06L130.82 327.76"/>
<path d="M157.4 341.98L444.42 341.98"/>
<path d="M140.3 262.11L140.3 286.07"/>
<path d="M459.77 262.11L459.77 286.07"/>
<path d="M411.85 333.99L423.89 331.62M423.89 331.62L435.04 326.49M435.04 326.49L444.67 318.9M444.67 318.9L452.27 309.26M452.27 309.26L457.39 298.11M457.39 298.11L459.77 286.07"/>
<path d="M140.3 286.07L142.68 298.11M142.68 298.11L147.8 309.26M147.8 309.26L155.4 318.9M155.4 318.9L165.04 326.49M165.04 326.49L176.18 331.62M176.18 331.62L188.22 333.99"/>
<path d="M188.22 333.99L419.84 333.99"/>
<path d="M252.12 333.99L252.12 341.98"/>
<path d="M339.97 333.99L339.97 341.98"/>
<path d="M130.82 327.76L137.93 335.37M137.93 335.37L147.12 340.28M147.12 340.28L157.4 341.98"/>
<path d="M444.42 341.98L453.82 340.57M453.82 340.57L462.38 336.45M462.38 336.45L469.36 329.99"/>
<path d="M193.28 196.32L196.32 194.8M196.32 194.8L200.88 190.23M200.88 190.23L200.88 222.18"/>
<path d="M395.61 197.84L395.61 196.32M395.61 196.32L397.13 193.28M397.13 193.28L398.65 191.75M398.65 191.75L401.69 190.23M401.69 190.23L407.78 190.23M407.78 190.23L410.82 191.75M410.82 191.75L412.34 193.28M412.34 193.28L413.86 196.32M413.86 196.32L413.86 199.36M413.86 199.36L412.34 202.4M412.34 202.4L409.3 206.97M409.3 206.97L394.09 222.18M394.09 222.18L415.38 222.18"/>
<path d="M228.04 405.88L228.04 365.94M229.57 365.94L229.57 405.88M223.44 365.94L241.85 365.94M241.85 365.94L246.45 367.84M246.45 367.84L247.98 369.74M247.98 369.74L249.52 373.55M249.52 373.55L249.52 377.35M249.52 377.35L247.98 381.15M247.98 381.15L246.45 383.06M246.45 383.06L241.85 384.96M241.85 365.94L244.91 367.84M244.91 367.84L246.45 369.74M246.45 369.74L247.98 373.55M247.98 373.55L247.98 377.35M247.98 377.35L246.45 381.15M246.45 381.15L244.91 383.06M244.91 383.06L241.85 384.96M229.57 384.96L241.85 384.96M241.85 384.96L246.45 386.86M246.45 386.86L247.98 388.76M247.98 388.76L249.52 392.56M249.52 392.56L249.52 398.27M249.52 398.27L247.98 402.07M247.98 402.07L246.45 403.97M246.45 403.97L241.85 405.88M241.85 405.88L223.44 405.88M241.85 384.96L244.91 386.86M244.91 386.86L246.45 388.76M246.45 388.76L247.98 392.56M247.98 392.56L247.98 398.27M247.98 398.27L246.45 402.07M246.45 402.07L244.91 403.97M244.91 403.97L241.85 405.88M261.79 405.88L261.79 365.94M263.32 365.94L263.32 405.88M257.19 365.94L267.92 365.94M257.19 405.88L280.2 405.88M280.2 405.88L280.2 394.47M280.2 394.47L278.66 405.88M298.61 365.94L287.87 405.88M298.61 365.94L309.34 405.88M298.61 371.65L307.81 405.88M290.94 394.47L304.74 394.47M284.8 405.88L294 405.88M303.21 405.88L312.41 405.88M338.49 371.65L340.03 377.35M340.03 377.35L340.03 365.94M340.03 365.94L338.49 371.65M338.49 371.65L335.42 367.84M335.42 367.84L330.82 365.94M330.82 365.94L327.75 365.94M327.75 365.94L323.15 367.84M323.15 367.84L320.08 371.65M320.08 371.65L318.55 375.45M318.55 375.45L317.01 381.15M317.01 381.15L317.01 390.66M317.01 390.66L318.55 396.37M318.55 396.37L320.08 400.17M320.08 400.17L323.15 403.97M323.15 403.97L327.75 405.88M327.75 405.88L330.82 405.88M330.82 405.88L335.42 403.97M335.42 403.97L338.49 400.17M338.49 400.17L340.03 396.37M327.75 365.94L324.69 367.84M324.69 367.84L321.62 371.65M321.62 371.65L320.08 375.45M320.08 375.45L318.55 381.15M318.55 381.15L318.55 390.66M318.55 390.66L320.08 396.37M320.08 396.37L321.62 400.17M321.62 400.17L324.69 403.97M324.69 403.97L327.75 405.88M353.83 405.88L353.83 365.94M355.37 365.94L355.37 405.88M375.31 365.94L355.37 390.66M363.04 383.06L375.31 405.88M361.5 383.06L373.78 405.88M349.23 365.94L359.97 365.94M369.17 365.94L378.38 365.94M349.23 405.88L359.97 405.88M369.17 405.88L378.38 405.88"/>
</g>
</g>
</svg>
