<?xml version="1.0" standalone="no"?><svg xmlns="http://www.w3.org/2000/svg" width="600.000" height="450.000" viewBox="0.0 0.0 600.000 450.000" version="1.1">
<title>Acme Converter - Post-processed with EDS-Designer: 14.44 (info@symca.com)</title>
<desc>Acme Converter - Post-processed with EDS-Designer: 14.44 (info@symca.com)</desc>
<g id="EDS_STYLE_GROUP" fill="none" stroke="black" stroke-width="1.0">
<g id="0" display="visible">
<path d="M266.97 404.37L266.97 388.79M267.71 388.79L267.71 404.37M264.75 388.79L273.65 388.79M273.65 388.79L275.87 389.53M275.87 389.53L276.62 390.28M276.62 390.28L277.36 391.76M277.36 391.76L277.36 393.24M277.36 393.24L276.62 394.73M276.62 394.73L275.87 395.47M275.87 395.47L273.65 396.21M273.65 388.79L275.13 389.53M275.13 389.53L275.87 390.28M275.87 390.28L276.62 391.76M276.62 391.76L276.62 393.24M276.62 393.24L275.87 394.73M275.87 394.73L275.13 395.47M275.13 395.47L273.65 396.21M267.71 396.21L273.65 396.21M273.65 396.21L275.87 396.95M275.87 396.95L276.62 397.69M276.62 397.69L277.36 399.18M277.36 399.18L277.36 401.4M277.36 401.4L276.62 402.89M276.62 402.89L275.87 403.63M275.87 403.63L273.65 404.37M273.65 404.37L264.75 404.37M273.65 396.21L275.13 396.95M275.13 396.95L275.87 397.69M275.87 397.69L276.62 399.18M276.62 399.18L276.62 401.4M276.62 401.4L275.87 402.89M275.87 402.89L275.13 403.63M275.13 403.63L273.65 404.37M283.29 404.37L283.29 388.79M284.04 388.79L284.04 404.37M281.07 388.79L286.26 388.79M281.07 404.37L292.2 404.37M292.2 404.37L292.2 399.92M292.2 399.92L291.45 404.37M301.1 388.79L295.91 404.37M301.1 388.79L306.29 404.37M301.1 391.02L305.55 404.37M297.39 399.92L304.07 399.92M294.42 404.37L298.87 404.37M303.32 404.37L307.78 404.37M320.39 391.02L321.13 393.24M321.13 393.24L321.13 388.79M321.13 388.79L320.39 391.02M320.39 391.02L318.9 389.53M318.9 389.53L316.68 388.79M316.68 388.79L315.19 388.79M315.19 388.79L312.97 389.53M312.97 389.53L311.48 391.02M311.48 391.02L310.74 392.5M310.74 392.5L310 394.73M310 394.73L310 398.44M310 398.44L310.74 400.66M310.74 400.66L311.48 402.15M311.48 402.15L312.97 403.63M312.97 403.63L315.19 404.37M315.19 404.37L316.68 404.37M316.68 404.37L318.9 403.63M318.9 403.63L320.39 402.15M320.39 402.15L321.13 400.66M315.19 388.79L313.71 389.53M313.71 389.53L312.23 391.02M312.23 391.02L311.48 392.5M311.48 392.5L310.74 394.73M310.74 394.73L310.74 398.44M310.74 398.44L311.48 400.66M311.48 400.66L312.23 402.15M312.23 402.15L313.71 403.63M313.71 403.63L315.19 404.37M327.81 404.37L327.81 388.79M328.55 388.79L328.55 404.37M338.19 388.79L328.55 398.44M332.26 395.47L338.19 404.37M331.52 395.47L337.45 404.37M325.58 388.79L330.77 388.79M335.22 388.79L339.68 388.79M325.58 404.37L330.77 404.37M335.22 404.37L339.68 404.37"/>
<path d="M309.54 45.63L317.7 45.63M317.7 45.63L313.25 51.57M313.25 51.57L315.47 51.57M315.47 51.57L316.96 52.31M316.96 52.31L317.7 53.05M317.7 53.05L318.44 55.28M318.44 55.28L318.44 56.76M318.44 56.76L317.7 58.99M317.7 58.99L316.21 60.47M316.21 60.47L313.99 61.21M313.99 61.21L311.76 61.21M311.76 61.21L309.54 60.47M309.54 60.47L308.8 59.73M308.8 59.73L308.05 58.24"/>
<path d="M109.42 231.45L109.42 230.71M109.42 230.71L110.16 229.22M110.16 229.22L110.91 228.48M110.91 228.48L112.39 227.74M112.39 227.74L115.36 227.74M115.36 227.74L116.84 228.48M116.84 228.48L117.58 229.22M117.58 229.22L118.32 230.71M118.32 230.71L118.32 232.19M118.32 232.19L117.58 233.68M117.58 233.68L116.1 235.9M116.1 235.9L108.68 243.32M108.68 243.32L119.07 243.32"/>
<path d="M487.61 217.39L489.1 216.65M489.1 216.65L491.32 214.42M491.32 214.42L491.32 230"/>
<path d="M452.13 316.72L429.32 343.77"/>
<path d="M258.02 378.41L134.03 301.93"/>
<path d="M356.71 345.11L374.47 340.96M374.47 340.96L391.26 333.83M391.26 333.83L406.58 323.91M406.58 323.91L419.97 311.51M419.97 311.51L431.03 297M431.03 297L439.43 280.81M439.43 280.81L444.93 263.41M444.93 263.41L447.36 245.33"/>
<path d="M194.82 297.23L204.9 311.17M204.9 311.17L217.24 323.14M217.24 323.14L231.49 332.77M231.49 332.77L247.19 339.77M247.19 339.77L263.88 343.93M263.88 343.93L281.04 345.11"/>
<path d="M200.31 251.52L202.21 266.78M202.21 266.78L207.13 281.36M207.13 281.36L214.87 294.65M214.87 294.65L225.11 306.13M225.11 306.13L237.45 315.32M237.45 315.32L251.38 321.86M251.38 321.86L266.33 325.47M266.33 325.47L281.71 326.01"/>
<path d="M345.26 326.01L362.46 324.65M362.46 324.65L378.94 319.57M378.94 319.57L393.91 310.99M393.91 310.99L406.65 299.35M406.65 299.35L416.52 285.2M416.52 285.2L423.06 269.24M423.06 269.24L425.95 252.23"/>
<path d="M347.11 330.83L363.04 329.8M363.04 329.8L378.48 325.72M378.48 325.72L392.84 318.76M392.84 318.76L405.61 309.18M405.61 309.18L416.3 297.32M416.3 297.32L424.51 283.63M424.51 283.63L429.94 268.62M429.94 268.62L432.4 252.85"/>
<path d="M193.9 252.09L195.91 268.23M195.91 268.23L201.11 283.64M201.11 283.64L209.29 297.69M209.29 297.69L220.12 309.82M220.12 309.82L233.16 319.54M233.16 319.54L247.89 326.44M247.89 326.44L263.69 330.26M263.69 330.26L279.94 330.83"/>
<path d="M355.07 341.2L372.93 337.32M372.93 337.32L389.81 330.3M389.81 330.3L405.15 320.36M405.15 320.36L418.46 307.82M418.46 307.82L429.29 293.1M429.29 293.1L437.31 276.67M437.31 276.67L442.24 259.07M442.24 259.07L443.93 240.87"/>
<path d="M294.47 330.73L294.47 340.63"/>
<path d="M301.18 330.73L301.18 340.63"/>
<path d="M326.41 330.73L326.41 340.95"/>
<path d="M332.8 330.73L332.8 340.95"/>
<path d="M182.57 240.87L183.81 258.62M183.81 258.62L188.21 275.86M188.21 275.86L195.63 292.03M195.63 292.03L205.84 306.6M205.84 306.6L218.49 319.11M218.49 319.11L233.18 329.15M233.18 329.15L249.43 336.39M249.43 336.39L266.72 340.6"/>
<path d="M403.02 364.26L369.77 378.17"/>
<path d="M429.32 343.77L403.02 364.26"/>
<path d="M369.77 378.41L258.02 378.41"/>
<path d="M281.04 345.11L356.71 345.11"/>
<path d="M266.72 340.6L355.07 341.2"/>
<path d="M307.1 354.2L321.43 354.2M321.43 354.2L321.43 367.63M321.43 367.63L307.1 367.63M307.1 367.63L307.1 354.2"/>
<path d="M341.79 354.2L357.62 354.2M357.62 354.2L357.62 362.49M357.62 362.49L341.79 362.49M341.79 362.49L341.79 354.2"/>
<path d="M273.92 354.2L289.75 354.2M289.75 354.2L289.75 362.49M289.75 362.49L273.92 362.49M273.92 362.49L273.92 354.2"/>
<path d="M387.95 72.2L472.99 197.95"/>
<path d="M237.45 72.2L387.95 72.2"/>
<path d="M134.14 219.27L237.45 72.2"/>
<path d="M468.22 284.78L452.13 316.72"/>
<path d="M472.57 248.22L468.22 284.78"/>
<path d="M472.99 197.1L472.99 248.64"/>
<path d="M134.03 301.93L134.03 219.65"/>
<path d="M447.54 199.81L444.5 182.79M444.5 182.79L438.53 166.57M438.53 166.57L429.8 151.64M429.8 151.64L418.6 138.48M418.6 138.48L405.26 127.49M405.26 127.49L390.19 119M390.19 119L373.88 113.29"/>
<path d="M466.69 199.81L447.54 199.81"/>
<path d="M466.69 245.56L466.69 199.81"/>
<path d="M447.35 245.56L466.69 245.56"/>
<path d="M143.93 294.04L196.91 294.04"/>
<path d="M140.63 297.19L194.83 297.19"/>
<path d="M140.63 246.91L140.63 297.19"/>
<path d="M182.4 246.91L140.63 246.91"/>
<path d="M158.74 198.83L158.74 245.21"/>
<path d="M158.14 245.17L182.5 245.17"/>
<path d="M182.51 250.29L143.93 250.29"/>
<path d="M143.93 250.29L143.93 294.04"/>
<path d="M179.63 198.83L158.74 198.83"/>
<path d="M248.07 112.99L230.29 120.66M230.29 120.66L214.34 131.65M214.34 131.65L200.84 145.54M200.84 145.54L190.31 161.79M190.31 161.79L183.15 179.78M183.15 179.78L179.63 198.83"/>
<path d="M301.91 146.17L309.13 153.39"/>
<path d="M323.56 146.17L316.35 153.39"/>
<path d="M316.35 153.39L309.13 153.39"/>
<path d="M301.91 146.17L323.56 146.17"/>
<path d="M323.56 146.17L301.91 146.17"/>
<path d="M323.56 146.17L301.91 146.17"/>
<path d="M252.15 170.42L264.35 188.37"/>
<path d="M369.78 171.77L358.23 189.73"/>
<path d="M252.15 278.02L264.35 260.88"/>
<path d="M279.45 260.88L290.99 278.02"/>
<path d="M330.94 279.38L343.13 262.24"/>
<path d="M323.56 273.84L323.56 302.72"/>
<path d="M323.56 273.84L323.56 302.72"/>
<path d="M323.56 273.84L323.56 302.72"/>
<path d="M323.56 273.84L323.56 302.72"/>
<path d="M323.56 273.84L301.91 273.84"/>
<path d="M323.56 273.84L301.91 273.84"/>
<path d="M301.91 273.84L323.56 273.84"/>
<path d="M323.56 302.72L301.91 302.72"/>
<path d="M301.91 302.72L323.56 302.72"/>
<path d="M309.13 295.5L316.35 295.5"/>
<path d="M316.35 281.06L309.13 281.06"/>
<path d="M316.35 295.5L316.35 281.06"/>
<path d="M323.56 302.72L323.56 273.84"/>
<path d="M316.35 295.5L323.56 302.72"/>
<path d="M323.56 273.84L316.35 281.06"/>
<path d="M309.13 281.06L309.13 295.5"/>
<path d="M301.91 273.84L301.91 302.72"/>
<path d="M301.91 273.84L301.91 302.72"/>
<path d="M301.91 273.84L301.91 302.72"/>
<path d="M301.91 273.84L301.91 302.72"/>
<path d="M301.91 302.72L309.13 295.5"/>
<path d="M301.91 273.84L309.13 281.06"/>
<path d="M252.15 170.42L290.99 170.42M290.99 170.42L290.99 278.02M290.99 278.02L252.15 278.02M252.15 278.02L252.15 170.42"/>
<path d="M264.35 188.37L279.45 188.37M279.45 188.37L279.45 260.88M279.45 260.88L264.35 260.88M264.35 260.88L264.35 188.37"/>
<path d="M290.99 170.42L279.45 188.37"/>
<path d="M330.94 171.77L343.13 189.73"/>
<path d="M301.91 175.05L309.13 167.83"/>
<path d="M301.91 146.17L301.91 175.05"/>
<path d="M301.91 146.17L301.91 175.05"/>
<path d="M301.91 146.17L301.91 175.05"/>
<path d="M301.91 146.17L301.91 175.05"/>
<path d="M309.13 153.39L309.13 167.83"/>
<path d="M316.35 167.83L323.56 175.05"/>
<path d="M323.56 175.05L323.56 146.17"/>
<path d="M316.35 167.83L316.35 153.39"/>
<path d="M309.13 167.83L316.35 167.83"/>
<path d="M301.91 175.05L323.56 175.05"/>
<path d="M323.56 175.05L301.91 175.05"/>
<path d="M323.56 146.17L323.56 175.05"/>
<path d="M323.56 146.17L323.56 175.05"/>
<path d="M323.56 146.17L323.56 175.05"/>
<path d="M323.56 146.17L323.56 175.05"/>
<path d="M358.23 262.24L369.78 279.38"/>
<path d="M343.13 189.73L358.23 189.73M358.23 189.73L358.23 262.24M358.23 262.24L343.13 262.24M343.13 262.24L343.13 189.73"/>
<path d="M330.94 171.77L369.78 171.77M369.78 171.77L369.78 279.38M369.78 279.38L330.94 279.38M330.94 279.38L330.94 171.77"/>
<path d="M300.99 125.89L282.29 125.4M282.29 125.4L263.87 128.67M263.87 128.67L246.49 135.59M246.49 135.59L230.86 145.85M230.86 145.85L217.61 159.06M217.61 159.06L207.28 174.66M207.28 174.66L200.31 192.01"/>
<path d="M200.31 192.01L200.31 251.52"/>
<path d="M300.99 125.89L341.69 125.89"/>
<path d="M281.71 326.01L345.26 326.01"/>
<path d="M425.95 192.5L425.95 252.23"/>
<path d="M425.95 192.5L420.65 176.83M420.65 176.83L412.46 162.46M412.46 162.46L401.69 149.92M401.69 149.92L388.71 139.67M388.71 139.67L374.02 132.08M374.02 132.08L358.15 127.43M358.15 127.43L341.69 125.89"/>
<path d="M432.4 189.71L426.8 173.15M426.8 173.15L418.15 157.97M418.15 157.97L406.76 144.71M406.76 144.71L393.04 133.87M393.04 133.87L377.52 125.85M377.52 125.85L360.74 120.94M360.74 120.94L343.34 119.31"/>
<path d="M432.4 189.71L432.4 252.85"/>
<path d="M300.32 119.31L343.34 119.31"/>
<path d="M279.94 330.83L347.11 330.83"/>
<path d="M300.32 119.31L283.03 118.64M283.03 118.64L265.89 121.02M265.89 121.02L249.43 126.39M249.43 126.39L234.18 134.57M234.18 134.57L220.61 145.31M220.61 145.31L209.15 158.28M209.15 158.28L200.15 173.06M200.15 173.06L193.9 189.2"/>
<path d="M193.9 189.2L193.9 252.09"/>
<path d="M463.26 203.62L463.26 240.87"/>
<path d="M162.14 240.87L182.57 240.87"/>
<path d="M162.14 203.62L162.14 240.87"/>
<path d="M182.57 203.62L162.14 203.62"/>
<path d="M183.02 198.75L194.11 198.75M194.11 198.75L194.11 206.98M194.11 206.98L183.02 206.98M183.02 206.98L183.02 198.75"/>
<path d="M183.02 237.38L194.11 237.38M194.11 237.38L194.11 245.61M194.11 245.61L183.02 245.61M183.02 245.61L183.02 237.38"/>
<path d="M432.77 198.75L443.86 198.75M443.86 198.75L443.86 206.98M443.86 206.98L432.77 206.98M432.77 206.98L432.77 198.75"/>
<path d="M432.77 237.38L443.86 237.38M443.86 237.38L443.86 245.61M443.86 245.61L432.77 245.61M432.77 245.61L432.77 237.38"/>
<path d="M443.84 203.62L463.26 203.62"/>
<path d="M463.26 240.87L443.92 240.87"/>
<path d="M248.73 117.8L231.48 125.89M231.48 125.89L216.08 137.09M216.08 137.09L203.07 151.01M203.07 151.01L192.92 167.13M192.92 167.13L186.01 184.88M186.01 184.88L182.57 203.62"/>
<path d="M443.93 203.62L441.66 186.8M441.66 186.8L436.35 170.68M436.35 170.68L428.18 155.81M428.18 155.81L417.43 142.68M417.43 142.68L404.46 131.74M404.46 131.74L389.71 123.35M389.71 123.35L373.67 117.8"/>
<path d="M260.59 82.33L256.41 84.61M256.41 84.61L253.74 88.56M253.74 88.56L253.2 93.3"/>
<path d="M248.73 117.8L248.73 93.3"/>
<path d="M248.73 93.3L253.2 93.3"/>
<path d="M260.59 82.33L362.98 82.33"/>
<path d="M370.38 93.06L368.08 86.73M368.08 86.73L362.98 82.33"/>
<path d="M373.64 92.99L373.67 117.8"/>
<path d="M370.37 92.99L373.65 92.99"/>
<path d="M261.91 88.58L361.69 88.58M361.69 88.58L361.69 114.37M361.69 114.37L261.91 114.37M261.91 114.37L261.91 88.58"/>
<path d="M262.4 88.62L273.59 88.62M273.59 88.62L273.59 95.39M273.59 95.39L262.4 95.39M262.4 95.39L262.4 88.62"/>
<path d="M350.16 88.62L361.35 88.62M361.35 88.62L361.35 95.39M361.35 95.39L350.16 95.39M350.16 95.39L350.16 88.62"/>
<path d="M262.1 95.98L300.1 95.98"/>
<path d="M300.1 95.98L300.1 100.1"/>
<path d="M300.1 100.1L325.13 100.1"/>
<path d="M325.13 100.1L325.13 95.98"/>
<path d="M325.13 95.98L361.65 95.98"/>
<path d="M262.16 104.45L292.35 104.45"/>
<path d="M292.35 104.45L292.35 111.58"/>
<path d="M292.35 111.58L334.22 111.58"/>
<path d="M334.22 111.58L334.22 104.45"/>
<path d="M334.22 104.45L361.81 104.45"/>
</g>
</g>
</svg>
