<?xml version="1.0" standalone="no"?><svg xmlns="http://www.w3.org/2000/svg" width="600.000" height="450.000" viewBox="0.0 0.0 600.000 450.000" version="1.1">
<title>Acme Converter - Post-processed with EDS-Designer: 14.44 (info@symca.com)</title>
<desc>Acme Converter - Post-processed with EDS-Designer: 14.44 (info@symca.com)</desc>
<g id="EDS_STYLE_GROUP" fill="none" stroke="black" stroke-width="1.0">
<g id="0" display="visible">
<path d="M261.33 361.31L261.33 344.77M262.12 344.77L262.12 361.31M258.97 344.77L268.42 344.77M268.42 344.77L270.79 345.55M270.79 345.55L271.58 346.34M271.58 346.34L272.36 347.92M272.36 347.92L272.36 349.49M272.36 349.49L271.58 351.07M271.58 351.07L270.79 351.86M270.79 351.86L268.42 352.64M268.42 344.77L270 345.55M270 345.55L270.79 346.34M270.79 346.34L271.58 347.92M271.58 347.92L271.58 349.49M271.58 349.49L270.79 351.07M270.79 351.07L270 351.86M270 351.86L268.42 352.64M262.12 352.64L268.42 352.64M268.42 352.64L270.79 353.43M270.79 353.43L271.58 354.22M271.58 354.22L272.36 355.8M272.36 355.8L272.36 358.16M272.36 358.16L271.58 359.73M271.58 359.73L270.79 360.52M270.79 360.52L268.42 361.31M268.42 361.31L258.97 361.31M268.42 352.64L270 353.43M270 353.43L270.79 354.22M270.79 354.22L271.58 355.8M271.58 355.8L271.58 358.16M271.58 358.16L270.79 359.73M270.79 359.73L270 360.52M270 360.52L268.42 361.31M278.66 361.31L278.66 344.77M279.45 344.77L279.45 361.31M276.3 344.77L281.82 344.77M276.3 361.31L288.12 361.31M288.12 361.31L288.12 356.58M288.12 356.58L287.33 361.31M297.57 344.77L292.06 361.31M297.57 344.77L303.09 361.31M297.57 347.13L302.3 361.31M293.63 356.58L300.72 356.58M290.48 361.31L295.21 361.31M299.93 361.31L304.66 361.31M318.05 347.13L318.84 349.49M318.84 349.49L318.84 344.77M318.84 344.77L318.05 347.13M318.05 347.13L316.48 345.55M316.48 345.55L314.11 344.77M314.11 344.77L312.54 344.77M312.54 344.77L310.18 345.55M310.18 345.55L308.6 347.13M308.6 347.13L307.81 348.71M307.81 348.71L307.02 351.07M307.02 351.07L307.02 355.01M307.02 355.01L307.81 357.37M307.81 357.37L308.6 358.95M308.6 358.95L310.18 360.52M310.18 360.52L312.54 361.31M312.54 361.31L314.11 361.31M314.11 361.31L316.48 360.52M316.48 360.52L318.05 358.95M318.05 358.95L318.84 357.37M312.54 344.77L310.96 345.55M310.96 345.55L309.39 347.13M309.39 347.13L308.6 348.71M308.6 348.71L307.81 351.07M307.81 351.07L307.81 355.01M307.81 355.01L308.6 357.37M308.6 357.37L309.39 358.95M309.39 358.95L310.96 360.52M310.96 360.52L312.54 361.31M325.93 361.31L325.93 344.77M326.72 344.77L326.72 361.31M336.96 344.77L326.72 355.01M330.66 351.86L336.96 361.31M329.87 351.86L336.17 361.31M323.57 344.77L329.08 344.77M333.81 344.77L338.54 344.77M323.57 361.31L329.08 361.31M333.81 361.31L338.54 361.31"/>
<path d="M475.49 182.88L468.93 192.07M468.93 192.07L478.78 192.07M475.49 182.88L475.49 196.66"/>
<path d="M111.43 241.23L111.43 240.57M111.43 240.57L112.08 239.26M112.08 239.26L112.74 238.6M112.74 238.6L114.05 237.95M114.05 237.95L116.68 237.95M116.68 237.95L117.99 238.6M117.99 238.6L118.65 239.26M118.65 239.26L119.3 240.57M119.3 240.57L119.3 241.88M119.3 241.88L118.65 243.2M118.65 243.2L117.34 245.17M117.34 245.17L110.77 251.73M110.77 251.73L119.96 251.73M123.9 240.57L125.21 239.91M125.21 239.91L127.18 237.95M127.18 237.95L127.18 251.73"/>
<path d="M332.28 91.34L333.59 90.69M333.59 90.69L335.56 88.72M335.56 88.72L335.56 102.5"/>
<path d="M117.91 181.78L115.94 182.43M115.94 182.43L115.28 183.75M115.28 183.75L115.28 185.06M115.28 185.06L115.94 186.37M115.94 186.37L117.25 187.03M117.25 187.03L119.88 187.69M119.88 187.69L121.85 188.34M121.85 188.34L123.16 189.66M123.16 189.66L123.82 190.97M123.82 190.97L123.82 192.94M123.82 192.94L123.16 194.25M123.16 194.25L122.51 194.91M122.51 194.91L120.54 195.56M120.54 195.56L117.91 195.56M117.91 195.56L115.94 194.91M115.94 194.91L115.28 194.25M115.28 194.25L114.63 192.94M114.63 192.94L114.63 190.97M114.63 190.97L115.28 189.66M115.28 189.66L116.6 188.34M116.6 188.34L118.57 187.69M118.57 187.69L121.19 187.03M121.19 187.03L122.51 186.37M122.51 186.37L123.16 185.06M123.16 185.06L123.16 183.75M123.16 183.75L122.51 182.43M122.51 182.43L120.54 181.78M120.54 181.78L117.91 181.78"/>
<path d="M476.36 243.64L475.7 245.61M475.7 245.61L474.39 246.92M474.39 246.92L472.42 247.58M472.42 247.58L471.77 247.58M471.77 247.58L469.8 246.92M469.8 246.92L468.48 245.61M468.48 245.61L467.83 243.64M467.83 243.64L467.83 242.99M467.83 242.99L468.48 241.02M468.48 241.02L469.8 239.7M469.8 239.7L471.77 239.05M471.77 239.05L472.42 239.05M472.42 239.05L474.39 239.7M474.39 239.7L475.7 241.02M475.7 241.02L476.36 243.64M476.36 243.64L476.36 246.92M476.36 246.92L475.7 250.21M475.7 250.21L474.39 252.18M474.39 252.18L472.42 252.83M472.42 252.83L471.11 252.83M471.11 252.83L469.14 252.18M469.14 252.18L468.48 250.86"/>
<path d="M467.38 278.67L467.38 278.02M467.38 278.02L468.04 276.7M468.04 276.7L468.69 276.05M468.69 276.05L470.01 275.39M470.01 275.39L472.63 275.39M472.63 275.39L473.95 276.05M473.95 276.05L474.6 276.7M474.6 276.7L475.26 278.02M475.26 278.02L475.26 279.33M475.26 279.33L474.6 280.64M474.6 280.64L473.29 282.61M473.29 282.61L466.72 289.18M466.72 289.18L475.91 289.18M480.51 278.67L480.51 278.02M480.51 278.02L481.17 276.7M481.17 276.7L481.82 276.05M481.82 276.05L483.14 275.39M483.14 275.39L485.76 275.39M485.76 275.39L487.07 276.05M487.07 276.05L487.73 276.7M487.73 276.7L488.39 278.02M488.39 278.02L488.39 279.33M488.39 279.33L487.73 280.64M487.73 280.64L486.42 282.61M486.42 282.61L479.85 289.18M479.85 289.18L489.04 289.18"/>
<path d="M458.23 283.11L447.75 283.09"/>
<path d="M458.17 304.62L458.23 283.11"/>
<path d="M458.17 304.62L444.68 304.59"/>
<path d="M150.15 215.6L150.19 199.06"/>
<path d="M139.44 303.8L139.5 282.3"/>
<path d="M149.98 282.32L139.5 282.3"/>
<path d="M152.94 303.84L139.44 303.8"/>
<path d="M130.77 226.58L130.8 215.55"/>
<path d="M150.15 215.6L130.8 215.55"/>
<path d="M150.12 226.63L130.77 226.58"/>
<path d="M467.25 227.44L467.27 216.41"/>
<path d="M467.27 216.41L447.92 216.36"/>
<path d="M467.25 227.44L447.89 227.39"/>
<path d="M240.85 112.44L243.75 112.91"/>
<path d="M243.75 112.91L246.35 114.24"/>
<path d="M246.35 114.24L248.41 116.31"/>
<path d="M248.41 116.31L249.74 118.92"/>
<path d="M249.74 118.92L250.2 121.84"/>
<path d="M250.19 123.49L250.2 121.84"/>
<path d="M255.7 129.02L252.46 127.96"/>
<path d="M252.46 127.96L250.46 125.2"/>
<path d="M250.46 125.2L250.2 123.49"/>
<path d="M205.06 120.55L205.79 117.94"/>
<path d="M205.79 117.94L207.23 115.65"/>
<path d="M207.23 115.65L209.26 113.88"/>
<path d="M209.26 113.88L211.71 112.75"/>
<path d="M211.71 112.75L214.38 112.37"/>
<path d="M205.06 120.55L204.23 123.98"/>
<path d="M204.23 123.98L202.71 127.16"/>
<path d="M202.71 127.16L200.55 129.93"/>
<path d="M200.55 129.93L197.84 132.19"/>
<path d="M197.84 132.19L194.72 133.83"/>
<path d="M384.78 325.66L356.1 325.59"/>
<path d="M356.1 325.59L356.12 317.32"/>
<path d="M342.34 317.28L345.57 318.34"/>
<path d="M345.57 318.34L347.57 321.1"/>
<path d="M347.57 321.1L347.84 322.81"/>
<path d="M347.84 324.46L347.84 322.81"/>
<path d="M357.19 333.86L354.28 333.4"/>
<path d="M354.28 333.4L351.69 332.06"/>
<path d="M351.69 332.06L349.62 329.99"/>
<path d="M349.62 329.99L348.29 327.38"/>
<path d="M348.29 327.38L347.84 324.46"/>
<path d="M383.65 333.93L357.19 333.86"/>
<path d="M398.59 317.43L395.35 318.47"/>
<path d="M395.35 318.47L393.33 321.21"/>
<path d="M393.33 321.21L393.06 322.93"/>
<path d="M393.05 324.58L393.06 322.93"/>
<path d="M393.05 324.58L392.59 327.48"/>
<path d="M392.59 327.48L391.25 330.08"/>
<path d="M391.25 330.08L389.18 332.15"/>
<path d="M389.18 332.15L386.57 333.47"/>
<path d="M386.57 333.47L383.65 333.93"/>
<path d="M384.78 325.66L384.8 317.39"/>
<path d="M255.21 317.06L251.97 318.1"/>
<path d="M251.97 318.1L249.96 320.85"/>
<path d="M249.96 320.85L249.68 322.56"/>
<path d="M240.28 333.56L213.81 333.49"/>
<path d="M213.81 333.49L210.91 333.03"/>
<path d="M210.91 333.03L208.31 331.7"/>
<path d="M208.31 331.7L206.25 329.62"/>
<path d="M206.25 329.62L204.92 327.02"/>
<path d="M204.92 327.02L204.46 324.1"/>
<path d="M204.46 324.1L204.47 322.44"/>
<path d="M198.97 316.91L202.2 317.97"/>
<path d="M202.2 317.97L204.2 320.73"/>
<path d="M204.2 320.73L204.47 322.44"/>
<path d="M212.73 325.22L212.75 316.95"/>
<path d="M241.41 325.29L212.73 325.22"/>
<path d="M249.68 324.21L249.68 322.56"/>
<path d="M249.68 324.21L249.21 327.11"/>
<path d="M249.21 327.11L247.88 329.71"/>
<path d="M247.88 329.71L245.81 331.78"/>
<path d="M245.81 331.78L243.2 333.11"/>
<path d="M243.2 333.11L240.28 333.56"/>
<path d="M241.41 325.29L241.43 317.02"/>
<path d="M447.54 239.17L447.85 243.16"/>
<path d="M387.72 255.64L387.75 241.02"/>
<path d="M391.02 255.65L387.72 255.64"/>
<path d="M392.68 256.48L391.02 255.65"/>
<path d="M392.67 258.68L392.68 256.48"/>
<path d="M398.18 258.7L392.67 258.68"/>
<path d="M398.18 258.7L398.19 256.49"/>
<path d="M399.85 255.67L398.19 256.49"/>
<path d="M403.16 255.68L399.85 255.67"/>
<path d="M403.16 255.68L403.19 241.06"/>
<path d="M403.19 241.06L387.75 241.02"/>
<path d="M407.02 255.69L407.05 241.07"/>
<path d="M410.32 255.7L407.02 255.69"/>
<path d="M411.98 256.53L410.32 255.7"/>
<path d="M411.97 258.73L411.98 256.53"/>
<path d="M417.48 258.75L411.97 258.73"/>
<path d="M417.48 258.75L417.49 256.54"/>
<path d="M419.15 255.72L417.49 256.54"/>
<path d="M422.46 255.73L419.15 255.72"/>
<path d="M422.46 255.73L422.49 241.11"/>
<path d="M422.49 241.11L407.05 241.07"/>
<path d="M368.42 255.59L368.45 240.97"/>
<path d="M371.72 255.6L368.42 255.59"/>
<path d="M373.38 256.43L371.72 255.6"/>
<path d="M373.37 258.63L373.38 256.43"/>
<path d="M378.88 258.65L373.37 258.63"/>
<path d="M378.88 258.65L378.89 256.44"/>
<path d="M380.55 255.62L378.89 256.44"/>
<path d="M383.86 255.63L380.55 255.62"/>
<path d="M383.86 255.63L383.89 241.01"/>
<path d="M383.89 241.01L368.45 240.97"/>
<path d="M349.11 255.54L349.15 240.93"/>
<path d="M352.42 255.55L349.11 255.54"/>
<path d="M354.08 256.38L352.42 255.55"/>
<path d="M354.07 258.58L354.08 256.38"/>
<path d="M359.58 258.6L354.07 258.58"/>
<path d="M359.58 258.6L359.59 256.39"/>
<path d="M361.25 255.57L359.59 256.39"/>
<path d="M364.55 255.58L361.25 255.57"/>
<path d="M364.55 255.58L364.59 240.96"/>
<path d="M364.59 240.96L349.15 240.93"/>
<path d="M329.81 255.49L329.85 240.88"/>
<path d="M333.12 255.5L329.81 255.49"/>
<path d="M334.78 256.33L333.12 255.5"/>
<path d="M334.77 258.53L334.78 256.33"/>
<path d="M340.28 258.55L334.77 258.53"/>
<path d="M340.28 258.55L340.29 256.34"/>
<path d="M341.95 255.52L340.29 256.34"/>
<path d="M345.25 255.53L341.95 255.52"/>
<path d="M345.25 255.53L345.29 240.92"/>
<path d="M345.29 240.92L329.85 240.88"/>
<path d="M310.51 255.44L310.55 240.83"/>
<path d="M313.82 255.45L310.51 255.44"/>
<path d="M315.48 256.28L313.82 255.45"/>
<path d="M315.47 258.48L315.48 256.28"/>
<path d="M320.98 258.5L315.47 258.48"/>
<path d="M320.98 258.5L320.99 256.29"/>
<path d="M322.65 255.47L320.99 256.29"/>
<path d="M325.95 255.48L322.65 255.47"/>
<path d="M325.95 255.48L325.99 240.87"/>
<path d="M325.99 240.87L310.55 240.83"/>
<path d="M291.21 255.39L291.25 240.78"/>
<path d="M294.52 255.4L291.21 255.39"/>
<path d="M296.18 256.23L294.52 255.4"/>
<path d="M296.17 258.44L296.18 256.23"/>
<path d="M301.68 258.45L296.17 258.44"/>
<path d="M301.68 258.45L301.69 256.24"/>
<path d="M303.35 255.42L301.69 256.24"/>
<path d="M306.65 255.43L303.35 255.42"/>
<path d="M306.65 255.43L306.69 240.82"/>
<path d="M306.69 240.82L291.25 240.78"/>
<path d="M271.91 255.34L271.95 240.73"/>
<path d="M275.22 255.35L271.91 255.34"/>
<path d="M276.87 256.18L275.22 255.35"/>
<path d="M276.87 258.39L276.87 256.18"/>
<path d="M282.38 258.4L276.87 258.39"/>
<path d="M282.38 258.4L282.39 256.19"/>
<path d="M284.05 255.37L282.39 256.19"/>
<path d="M287.35 255.38L284.05 255.37"/>
<path d="M287.35 255.38L287.39 240.77"/>
<path d="M287.39 240.77L271.95 240.73"/>
<path d="M252.61 255.29L252.65 240.68"/>
<path d="M255.92 255.3L252.61 255.29"/>
<path d="M257.57 256.13L255.92 255.3"/>
<path d="M257.57 258.34L257.57 256.13"/>
<path d="M263.08 258.35L257.57 258.34"/>
<path d="M263.08 258.35L263.09 256.14"/>
<path d="M264.75 255.32L263.09 256.14"/>
<path d="M268.05 255.33L264.75 255.32"/>
<path d="M268.05 255.33L268.09 240.72"/>
<path d="M268.09 240.72L252.65 240.68"/>
<path d="M233.31 255.24L233.35 240.63"/>
<path d="M236.62 255.25L233.31 255.24"/>
<path d="M238.27 256.08L236.62 255.25"/>
<path d="M238.27 258.29L238.27 256.08"/>
<path d="M243.78 258.3L238.27 258.29"/>
<path d="M243.78 258.3L243.79 256.09"/>
<path d="M245.45 255.27L243.79 256.09"/>
<path d="M248.75 255.28L245.45 255.27"/>
<path d="M248.75 255.28L248.79 240.67"/>
<path d="M248.79 240.67L233.35 240.63"/>
<path d="M214.01 255.19L214.05 240.58"/>
<path d="M217.32 255.2L214.01 255.19"/>
<path d="M218.97 256.03L217.32 255.2"/>
<path d="M218.97 258.24L218.97 256.03"/>
<path d="M224.48 258.25L218.97 258.24"/>
<path d="M224.48 258.25L224.49 256.05"/>
<path d="M226.15 255.22L224.49 256.05"/>
<path d="M229.45 255.23L226.15 255.22"/>
<path d="M229.45 255.23L229.49 240.62"/>
<path d="M229.49 240.62L214.05 240.58"/>
<path d="M194.71 255.14L194.75 240.53"/>
<path d="M198.02 255.15L194.71 255.14"/>
<path d="M199.67 255.98L198.02 255.15"/>
<path d="M199.67 258.19L199.67 255.98"/>
<path d="M205.18 258.2L199.67 258.19"/>
<path d="M205.18 258.2L205.19 256"/>
<path d="M206.84 255.17L205.19 256"/>
<path d="M210.15 255.18L206.84 255.17"/>
<path d="M210.15 255.18L210.19 240.57"/>
<path d="M210.19 240.57L194.75 240.53"/>
<path d="M175.41 255.09L175.45 240.48"/>
<path d="M178.72 255.1L175.41 255.09"/>
<path d="M180.37 255.93L178.72 255.1"/>
<path d="M180.37 258.14L180.37 255.93"/>
<path d="M185.88 258.15L180.37 258.14"/>
<path d="M185.88 258.15L185.89 255.95"/>
<path d="M187.54 255.12L185.89 255.95"/>
<path d="M190.85 255.13L187.54 255.12"/>
<path d="M190.85 255.13L190.89 240.52"/>
<path d="M190.89 240.52L175.45 240.48"/>
<path d="M178.68 271.09L175.37 271.08"/>
<path d="M175.33 285.7L175.37 271.08"/>
<path d="M190.77 285.74L175.33 285.7"/>
<path d="M190.77 285.74L190.81 271.12"/>
<path d="M190.81 271.12L187.5 271.11"/>
<path d="M187.5 271.11L185.85 270.28"/>
<path d="M185.85 270.28L185.86 268.08"/>
<path d="M185.86 268.08L180.34 268.06"/>
<path d="M180.34 270.27L180.34 268.06"/>
<path d="M180.34 270.27L178.68 271.09"/>
<path d="M210.07 285.79L194.63 285.75"/>
<path d="M210.07 285.79L210.11 271.17"/>
<path d="M210.11 271.17L206.8 271.16"/>
<path d="M206.8 271.16L205.15 270.33"/>
<path d="M205.15 270.33L205.16 268.13"/>
<path d="M205.16 268.13L199.64 268.11"/>
<path d="M199.64 270.32L199.64 268.11"/>
<path d="M199.64 270.32L197.98 271.14"/>
<path d="M197.98 271.14L194.67 271.13"/>
<path d="M194.63 285.75L194.67 271.13"/>
<path d="M229.38 285.84L229.41 271.22"/>
<path d="M229.41 271.22L226.1 271.21"/>
<path d="M226.1 271.21L224.45 270.38"/>
<path d="M224.45 270.38L224.46 268.18"/>
<path d="M224.46 268.18L218.94 268.16"/>
<path d="M218.94 270.37L218.94 268.16"/>
<path d="M218.94 270.37L217.28 271.19"/>
<path d="M217.28 271.19L213.97 271.18"/>
<path d="M213.93 285.8L213.97 271.18"/>
<path d="M229.38 285.84L213.93 285.8"/>
<path d="M238.24 270.42L236.58 271.24"/>
<path d="M236.58 271.24L233.27 271.23"/>
<path d="M233.24 285.85L233.27 271.23"/>
<path d="M248.68 285.89L233.24 285.85"/>
<path d="M248.68 285.89L248.71 271.27"/>
<path d="M248.71 271.27L245.4 271.26"/>
<path d="M245.4 271.26L243.75 270.43"/>
<path d="M243.75 270.43L243.76 268.23"/>
<path d="M243.76 268.23L238.24 268.21"/>
<path d="M238.24 270.42L238.24 268.21"/>
<path d="M267.98 285.93L268.01 271.32"/>
<path d="M268.01 271.32L264.7 271.31"/>
<path d="M264.7 271.31L263.05 270.48"/>
<path d="M263.05 270.48L263.06 268.28"/>
<path d="M263.06 268.28L257.54 268.26"/>
<path d="M257.54 270.47L257.54 268.26"/>
<path d="M257.54 270.47L255.88 271.29"/>
<path d="M255.88 271.29L252.57 271.28"/>
<path d="M252.54 285.89L252.57 271.28"/>
<path d="M267.98 285.93L252.54 285.89"/>
<path d="M276.84 270.52L276.84 268.31"/>
<path d="M276.84 270.52L275.18 271.34"/>
<path d="M275.18 271.34L271.87 271.33"/>
<path d="M271.84 285.94L271.87 271.33"/>
<path d="M287.28 285.98L271.84 285.94"/>
<path d="M287.28 285.98L287.31 271.37"/>
<path d="M287.31 271.37L284 271.36"/>
<path d="M284 271.36L282.35 270.53"/>
<path d="M282.35 270.53L282.36 268.33"/>
<path d="M282.36 268.33L276.84 268.31"/>
<path d="M306.58 286.03L291.14 285.99"/>
<path d="M306.58 286.03L306.61 271.42"/>
<path d="M306.61 271.42L303.3 271.41"/>
<path d="M303.3 271.41L301.65 270.58"/>
<path d="M301.65 270.58L301.66 268.38"/>
<path d="M301.66 268.38L296.14 268.36"/>
<path d="M296.14 270.57L296.14 268.36"/>
<path d="M296.14 270.57L294.48 271.39"/>
<path d="M294.48 271.39L291.17 271.38"/>
<path d="M291.14 285.99L291.17 271.38"/>
<path d="M315.44 270.62L313.78 271.44"/>
<path d="M313.78 271.44L310.47 271.43"/>
<path d="M310.44 286.04L310.47 271.43"/>
<path d="M325.88 286.08L310.44 286.04"/>
<path d="M325.88 286.08L325.91 271.47"/>
<path d="M325.91 271.47L322.6 271.46"/>
<path d="M322.6 271.46L320.95 270.63"/>
<path d="M320.95 270.63L320.96 268.42"/>
<path d="M320.96 268.42L315.44 268.41"/>
<path d="M315.44 270.62L315.44 268.41"/>
<path d="M334.74 270.67L333.08 271.49"/>
<path d="M333.08 271.49L329.77 271.48"/>
<path d="M329.74 286.09L329.77 271.48"/>
<path d="M345.18 286.13L329.74 286.09"/>
<path d="M345.18 286.13L345.21 271.52"/>
<path d="M345.21 271.52L341.91 271.51"/>
<path d="M341.91 271.51L340.25 270.68"/>
<path d="M340.25 270.68L340.26 268.47"/>
<path d="M340.26 268.47L334.74 268.46"/>
<path d="M334.74 270.67L334.74 268.46"/>
<path d="M354.04 270.72L352.38 271.54"/>
<path d="M352.38 271.54L349.07 271.53"/>
<path d="M349.04 286.14L349.07 271.53"/>
<path d="M364.48 286.18L349.04 286.14"/>
<path d="M364.48 286.18L364.51 271.57"/>
<path d="M364.51 271.57L361.21 271.56"/>
<path d="M361.21 271.56L359.55 270.73"/>
<path d="M359.55 270.73L359.56 268.52"/>
<path d="M359.56 268.52L354.04 268.51"/>
<path d="M354.04 270.72L354.04 268.51"/>
<path d="M373.34 270.76L371.68 271.59"/>
<path d="M371.68 271.59L368.37 271.58"/>
<path d="M368.34 286.19L368.37 271.58"/>
<path d="M383.78 286.23L368.34 286.19"/>
<path d="M383.78 286.23L383.81 271.62"/>
<path d="M383.81 271.62L380.51 271.61"/>
<path d="M380.51 271.61L378.85 270.78"/>
<path d="M378.85 270.78L378.86 268.57"/>
<path d="M378.86 268.57L373.34 268.56"/>
<path d="M373.34 270.76L373.34 268.56"/>
<path d="M403.11 271.67L399.81 271.66"/>
<path d="M399.81 271.66L398.15 270.83"/>
<path d="M398.15 270.83L398.16 268.62"/>
<path d="M398.16 268.62L392.64 268.61"/>
<path d="M392.64 270.81L392.64 268.61"/>
<path d="M392.64 270.81L390.98 271.64"/>
<path d="M390.98 271.64L387.67 271.63"/>
<path d="M387.64 286.24L387.67 271.63"/>
<path d="M403.08 286.28L387.64 286.24"/>
<path d="M403.08 286.28L403.11 271.67"/>
<path d="M422.38 286.33L422.41 271.72"/>
<path d="M422.41 271.72L419.11 271.71"/>
<path d="M419.11 271.71L417.45 270.88"/>
<path d="M417.45 270.88L417.46 268.67"/>
<path d="M417.46 268.67L411.95 268.66"/>
<path d="M411.94 270.86L411.95 268.66"/>
<path d="M411.94 270.86L410.28 271.69"/>
<path d="M410.28 271.69L406.97 271.68"/>
<path d="M406.94 286.29L406.97 271.68"/>
<path d="M422.38 286.33L406.94 286.29"/>
<path d="M321.34 118.16L277.23 118.05"/>
<path d="M321.34 118.16L321.36 110.99"/>
<path d="M327.64 136.74L327.7 111.01"/>
<path d="M340.58 143.68L340.66 111.04"/>
<path d="M277.23 118.05L277.25 110.88"/>
<path d="M270.91 110.86L257.95 110.83"/>
<path d="M321.36 110.99L277.25 110.88"/>
<path d="M340.66 111.04L327.7 111.01"/>
<path d="M257.88 138.13L257.95 110.83"/>
<path d="M174.7 316.85L170.95 316.56"/>
<path d="M170.95 316.56L167.28 315.69"/>
<path d="M167.28 315.69L163.78 314.29"/>
<path d="M163.78 314.29L160.54 312.37"/>
<path d="M160.54 312.37L157.62 309.97"/>
<path d="M157.62 309.97L154.95 306.97"/>
<path d="M154.95 306.97L152.8 303.57"/>
<path d="M152.8 303.57L151.22 299.87"/>
<path d="M151.22 299.87L150.27 295.97"/>
<path d="M150.27 295.97L149.95 291.97"/>
<path d="M422.85 317.49L174.7 316.85"/>
<path d="M150.08 242.4L150.38 238.64"/>
<path d="M149.95 291.97L150.19 199.06"/>
<path d="M150.19 199.06L150.71 190.69"/>
<path d="M150.71 190.69L152.22 182.44"/>
<path d="M152.22 182.44L154.71 174.44"/>
<path d="M154.71 174.44L158.13 166.79"/>
<path d="M158.13 166.79L162.43 159.59"/>
<path d="M162.43 159.59L167.56 152.97"/>
<path d="M167.56 152.97L173.44 147"/>
<path d="M173.44 147L179.99 141.77"/>
<path d="M179.99 141.77L187.12 137.36"/>
<path d="M187.12 137.36L194.72 133.83"/>
<path d="M213.23 129.3L220.68 128.93"/>
<path d="M385.28 129.75L385.3 121.08"/>
<path d="M385.3 121.08L356.63 121.01"/>
<path d="M356.61 129.28L356.63 121.01"/>
<path d="M342.82 129.24L346.06 128.2"/>
<path d="M346.06 128.2L348.07 125.45"/>
<path d="M348.07 125.45L348.35 123.74"/>
<path d="M348.35 123.74L348.35 122.09"/>
<path d="M348.35 122.09L348.82 119.19"/>
<path d="M348.82 119.19L350.15 116.59"/>
<path d="M350.15 116.59L352.23 114.52"/>
<path d="M352.23 114.52L354.83 113.2"/>
<path d="M354.83 113.2L357.75 112.74"/>
<path d="M384.22 112.81L357.75 112.74"/>
<path d="M384.22 112.81L386.96 113.22"/>
<path d="M386.96 113.22L389.44 114.41"/>
<path d="M389.44 114.41L391.44 116.22"/>
<path d="M391.44 116.22L392.81 118.47"/>
<path d="M392.81 118.47L393.5 121.03"/>
<path d="M393.5 121.03L394.31 124.47"/>
<path d="M394.31 124.47L395.82 127.66"/>
<path d="M395.82 127.66L397.97 130.44"/>
<path d="M397.97 130.44L400.66 132.71"/>
<path d="M400.66 132.71L403.77 134.36"/>
<path d="M377.84 129.33L385.28 129.75"/>
<path d="M403.78 134.36L411.36 137.93"/>
<path d="M411.36 137.93L418.46 142.38"/>
<path d="M418.46 142.38L424.98 147.65"/>
<path d="M424.98 147.65L430.83 153.65"/>
<path d="M430.83 153.65L435.93 160.3"/>
<path d="M435.93 160.3L440.2 167.51"/>
<path d="M440.2 167.51L443.58 175.18"/>
<path d="M443.58 175.18L446.02 183.2"/>
<path d="M446.02 183.2L447.49 191.45"/>
<path d="M447.49 191.45L447.97 199.82"/>
<path d="M447.73 292.74L447.43 296.49"/>
<path d="M447.43 296.49L446.57 300.16"/>
<path d="M446.57 300.16L445.16 303.66"/>
<path d="M445.16 303.66L443.24 306.9"/>
<path d="M443.24 306.9L440.85 309.82"/>
<path d="M440.85 309.82L437.85 312.49"/>
<path d="M437.85 312.49L434.45 314.64"/>
<path d="M434.45 314.64L430.75 316.22"/>
<path d="M430.75 316.22L426.85 317.17"/>
<path d="M426.85 317.17L422.85 317.49"/>
<path d="M447.73 292.74L447.97 199.82"/>
<path d="M241.91 128.98L220.68 128.93"/>
<path d="M257.9 129.02L255.7 129.02"/>
<path d="M327.66 129.2L270.86 129.06"/>
<path d="M342.82 129.24L340.62 129.24"/>
<path d="M377.84 129.33L356.61 129.28"/>
<path d="M241.91 128.98L241.93 120.71"/>
<path d="M241.93 120.71L213.26 120.64"/>
<path d="M213.23 129.31L213.26 120.64"/>
<path d="M240.85 112.44L214.38 112.37"/>
<path d="M456.44 227.41L447.89 227.39"/>
<path d="M456.47 216.39L447.92 216.36"/>
<path d="M456.44 227.41L456.47 216.39"/>
<path d="M150.12 226.63L141.57 226.61"/>
<path d="M150.15 215.6L141.6 215.58"/>
<path d="M141.57 226.61L141.6 215.58"/>
<path d="M342.51 251.39L332.58 251.36"/>
<path d="M332.58 251.36L332.6 245.85"/>
<path d="M361.81 251.43L361.82 245.92"/>
<path d="M361.81 251.43L351.88 251.41"/>
<path d="M351.88 251.41L351.9 245.9"/>
<path d="M381.11 251.48L381.12 245.97"/>
<path d="M381.11 251.48L371.18 251.46"/>
<path d="M371.18 251.46L371.2 245.94"/>
<path d="M342.52 245.87L332.6 245.85"/>
<path d="M361.82 245.92L351.9 245.9"/>
<path d="M381.12 245.97L371.2 245.94"/>
<path d="M342.51 251.39L342.52 245.87"/>
<path d="M284.61 251.24L274.68 251.21"/>
<path d="M274.68 251.21L274.7 245.7"/>
<path d="M303.91 251.29L303.92 245.77"/>
<path d="M303.91 251.29L293.98 251.26"/>
<path d="M293.98 251.26L294 245.75"/>
<path d="M323.21 251.34L323.22 245.82"/>
<path d="M323.21 251.34L313.28 251.31"/>
<path d="M313.28 251.31L313.3 245.8"/>
<path d="M284.62 245.72L274.7 245.7"/>
<path d="M303.92 245.77L294 245.75"/>
<path d="M323.22 245.82L313.3 245.8"/>
<path d="M284.61 251.24L284.62 245.72"/>
<path d="M226.71 251.09L216.78 251.06"/>
<path d="M216.78 251.06L216.8 245.55"/>
<path d="M246.01 251.14L246.02 245.62"/>
<path d="M246.01 251.14L236.08 251.11"/>
<path d="M236.08 251.11L236.1 245.6"/>
<path d="M265.31 251.19L265.32 245.67"/>
<path d="M265.31 251.19L255.38 251.16"/>
<path d="M255.38 251.16L255.4 245.65"/>
<path d="M226.72 245.57L216.8 245.55"/>
<path d="M246.02 245.62L236.1 245.6"/>
<path d="M265.32 245.67L255.4 245.65"/>
<path d="M226.71 251.09L226.72 245.57"/>
<path d="M390.48 251.51L390.5 245.99"/>
<path d="M400.41 251.53L390.48 251.51"/>
<path d="M400.41 251.53L400.42 246.02"/>
<path d="M400.42 246.02L390.5 245.99"/>
<path d="M419.72 246.07L409.8 246.04"/>
<path d="M419.71 251.58L419.72 246.07"/>
<path d="M419.71 251.58L409.78 251.56"/>
<path d="M409.78 251.56L409.8 246.04"/>
<path d="M178.18 250.96L178.2 245.45"/>
<path d="M207.41 251.04L207.42 245.52"/>
<path d="M207.41 251.04L197.48 251.01"/>
<path d="M197.48 251.01L197.5 245.5"/>
<path d="M188.12 245.47L178.2 245.45"/>
<path d="M207.42 245.52L197.5 245.5"/>
<path d="M188.11 250.99L188.12 245.47"/>
<path d="M188.11 250.99L178.18 250.96"/>
<path d="M207.33 280.82L207.34 275.3"/>
<path d="M207.34 275.3L197.42 275.28"/>
<path d="M303.83 281.06L303.85 275.55"/>
<path d="M303.85 275.55L293.92 275.52"/>
<path d="M390.41 281.29L390.42 275.77"/>
<path d="M400.35 275.8L390.42 275.77"/>
<path d="M400.33 281.31L400.35 275.8"/>
<path d="M419.63 281.36L409.71 281.34"/>
<path d="M400.33 281.31L390.41 281.29"/>
<path d="M409.71 281.34L409.72 275.82"/>
<path d="M419.65 275.85L409.72 275.82"/>
<path d="M419.63 281.36L419.65 275.85"/>
<path d="M381.05 275.75L371.12 275.72"/>
<path d="M381.03 281.26L381.05 275.75"/>
<path d="M361.73 281.21L361.75 275.7"/>
<path d="M361.75 275.7L351.82 275.67"/>
<path d="M351.81 281.19L351.82 275.67"/>
<path d="M332.51 281.14L332.52 275.62"/>
<path d="M342.45 275.65L332.52 275.62"/>
<path d="M342.43 281.16L342.45 275.65"/>
<path d="M381.03 281.26L371.11 281.24"/>
<path d="M361.73 281.21L351.81 281.19"/>
<path d="M342.43 281.16L332.51 281.14"/>
<path d="M371.11 281.24L371.12 275.72"/>
<path d="M293.91 281.04L293.92 275.52"/>
<path d="M323.15 275.6L313.22 275.57"/>
<path d="M323.13 281.11L323.15 275.6"/>
<path d="M274.61 280.99L274.62 275.47"/>
<path d="M284.55 275.5L274.62 275.47"/>
<path d="M284.53 281.01L284.55 275.5"/>
<path d="M323.13 281.11L313.21 281.09"/>
<path d="M303.83 281.06L293.91 281.04"/>
<path d="M284.53 281.01L274.61 280.99"/>
<path d="M313.21 281.09L313.22 275.57"/>
<path d="M265.25 275.45L255.32 275.42"/>
<path d="M265.23 280.96L265.25 275.45"/>
<path d="M245.93 280.92L245.94 275.4"/>
<path d="M245.94 275.4L236.02 275.38"/>
<path d="M236.01 280.89L236.02 275.38"/>
<path d="M216.7 280.84L216.72 275.33"/>
<path d="M226.64 275.35L216.72 275.33"/>
<path d="M226.63 280.87L226.64 275.35"/>
<path d="M265.23 280.96L255.31 280.94"/>
<path d="M245.93 280.92L236.01 280.89"/>
<path d="M226.63 280.87L216.7 280.84"/>
<path d="M255.31 280.94L255.32 275.42"/>
<path d="M197.4 280.79L197.42 275.28"/>
<path d="M178.1 280.74L178.12 275.23"/>
<path d="M188.04 275.25L178.12 275.23"/>
<path d="M188.03 280.77L188.04 275.25"/>
<path d="M207.33 280.82L197.4 280.79"/>
<path d="M188.03 280.77L178.1 280.74"/>
<path d="M315.16 163.64L315.18 157.57"/>
<path d="M331.72 157.61L315.18 157.57"/>
<path d="M331.7 163.68L331.72 157.61"/>
<path d="M331.7 163.68L315.16 163.64"/>
<path d="M277.66 163.54L277.68 157.47"/>
<path d="M294.22 157.52L277.68 157.47"/>
<path d="M294.21 163.58L294.22 157.52"/>
<path d="M294.21 163.58L277.66 163.54"/>
<path d="M240.17 163.44L240.18 157.38"/>
<path d="M256.73 157.42L240.18 157.38"/>
<path d="M256.71 163.49L256.73 157.42"/>
<path d="M256.71 163.49L240.17 163.44"/>
<path d="M369.95 196.04L369.96 189.97"/>
<path d="M408.01 190.07L369.96 189.97"/>
<path d="M408 196.13L408.01 190.07"/>
<path d="M408 196.13L369.95 196.04"/>
<path d="M187.97 195.57L187.99 189.5"/>
<path d="M226.04 189.6L187.99 189.5"/>
<path d="M226.02 195.67L226.04 189.6"/>
<path d="M226.02 195.67L187.97 195.57"/>
<path d="M350.36 199.57L333.82 199.53"/>
<path d="M350.35 205.64L350.36 199.57"/>
<path d="M350.35 205.64L333.8 205.59"/>
<path d="M333.8 205.59L333.82 199.53"/>
<path d="M312.86 199.47L296.32 199.43"/>
<path d="M312.85 205.54L312.86 199.47"/>
<path d="M312.85 205.54L296.31 205.5"/>
<path d="M296.31 205.5L296.32 199.43"/>
<path d="M275.37 199.38L258.82 199.34"/>
<path d="M275.35 205.44L275.37 199.38"/>
<path d="M275.35 205.44L258.81 205.4"/>
<path d="M258.81 205.4L258.82 199.34"/>
<path d="M387.64 179.26L387.67 167.68"/>
<path d="M416.31 179.34L387.64 179.26"/>
<path d="M416.31 179.34L416.34 167.76"/>
<path d="M416.34 167.76L387.67 167.68"/>
<path d="M393.24 144.26L205.2 143.78"/>
<path d="M393.19 162.18L393.24 144.26"/>
<path d="M425.36 162.27L393.19 162.18"/>
<path d="M425.36 162.26L429.98 169.04"/>
<path d="M429.98 169.04L433.65 176.38"/>
<path d="M433.65 176.38L436.32 184.13"/>
<path d="M436.32 184.13L437.93 192.17"/>
<path d="M437.93 192.17L438.45 200.35"/>
<path d="M438.45 201.45L438.45 200.35"/>
<path d="M438.45 201.45L423.97 201.41"/>
<path d="M423.93 218.23L423.97 201.41"/>
<path d="M438.41 218.27L423.93 218.23"/>
<path d="M438.22 292.16L438.41 218.27"/>
<path d="M438.22 292.16L437.42 297.11"/>
<path d="M437.42 297.11L435.13 301.56"/>
<path d="M435.13 301.56L431.58 305.09"/>
<path d="M431.58 305.09L427.12 307.34"/>
<path d="M427.12 307.34L422.18 308.11"/>
<path d="M167.87 240.51L159.6 240.49"/>
<path d="M167.85 247.13L167.87 240.51"/>
<path d="M194.85 307.53L175.42 307.48"/>
<path d="M175.42 307.48L171.1 306.87"/>
<path d="M171.1 306.87L167.11 305.13"/>
<path d="M167.11 305.13L163.3 301.88"/>
<path d="M163.3 301.88L160.45 297"/>
<path d="M160.45 297L159.47 291.45"/>
<path d="M159.47 291.45L159.58 247.11"/>
<path d="M167.85 247.13L159.58 247.11"/>
<path d="M194.85 307.53L194.88 299.26"/>
<path d="M320.05 299.58L194.88 299.26"/>
<path d="M376.83 308L320.03 307.85"/>
<path d="M320.03 307.85L320.05 299.58"/>
<path d="M376.83 308L376.85 299.72"/>
<path d="M383.47 299.74L376.85 299.72"/>
<path d="M383.45 308.01L383.47 299.74"/>
<path d="M422.18 308.11L383.45 308.01"/>
<path d="M159.6 240.49L159.66 217.55"/>
<path d="M159.7 199.63L160.27 191.45"/>
<path d="M160.27 191.45L161.92 183.41"/>
<path d="M161.92 183.41L164.63 175.67"/>
<path d="M164.63 175.67L168.34 168.37"/>
<path d="M168.34 168.37L172.99 161.62"/>
<path d="M159.7 200.74L159.7 199.63"/>
<path d="M174.17 200.77L159.7 200.74"/>
<path d="M174.13 217.59L174.17 200.77"/>
<path d="M174.13 217.59L159.66 217.55"/>
<path d="M205.15 161.7L172.99 161.62"/>
<path d="M205.15 161.7L205.2 143.78"/>
<path d="M204.05 160.59L172.03 160.51"/>
<path d="M439.65 217.17L425.04 217.13"/>
<path d="M425.04 217.13L425.07 202.52"/>
<path d="M439.69 202.56L425.07 202.52"/>
<path d="M173.07 201.87L158.46 201.83"/>
<path d="M173.03 216.49L173.07 201.87"/>
<path d="M173.03 216.49L158.42 216.45"/>
<path d="M158.22 291.99L158.42 216.45"/>
<path d="M158.46 201.83L158.46 199.08"/>
<path d="M158.22 291.99L159.02 297.11"/>
<path d="M159.02 297.11L161.36 301.72"/>
<path d="M161.36 301.72L165 305.39"/>
<path d="M165 305.39L169.61 307.75"/>
<path d="M169.61 307.75L174.72 308.58"/>
<path d="M422.87 309.22L174.72 308.58"/>
<path d="M422.87 309.22L427.98 308.42"/>
<path d="M427.98 308.42L432.6 306.08"/>
<path d="M432.6 306.08L436.27 302.44"/>
<path d="M436.27 302.44L438.63 297.83"/>
<path d="M438.63 297.83L439.45 292.72"/>
<path d="M439.69 202.56L439.69 199.8"/>
<path d="M439.46 292.72L439.65 217.17"/>
<path d="M439.69 199.8L439.02 190.54"/>
<path d="M439.02 190.54L436.98 181.48"/>
<path d="M436.98 181.48L433.6 172.83"/>
<path d="M433.6 172.83L428.98 164.79"/>
<path d="M428.98 164.79L423.2 157.52"/>
<path d="M423.2 157.52L415.7 150.63"/>
<path d="M415.7 150.63L407.16 145.07"/>
<path d="M407.16 145.07L397.83 140.98"/>
<path d="M397.83 140.98L387.96 138.47"/>
<path d="M387.96 138.47L377.82 137.6"/>
<path d="M377.82 137.6L220.66 137.2"/>
<path d="M220.66 137.2L210.65 137.99"/>
<path d="M210.65 137.99L204.11 139.4"/>
<path d="M172.03 160.51L167.28 167.35"/>
<path d="M167.28 167.35L163.49 174.76"/>
<path d="M163.49 174.76L160.73 182.62"/>
<path d="M160.73 182.62L159.04 190.77"/>
<path d="M159.04 190.77L158.46 199.08"/>
<path d="M204.05 160.59L204.11 139.4"/>
<path d="M174.7 316.85L170.95 316.56"/>
<path d="M170.95 316.56L167.28 315.69"/>
<path d="M167.28 315.69L163.78 314.29"/>
<path d="M163.78 314.29L160.54 312.37"/>
<path d="M160.54 312.37L157.62 309.97"/>
<path d="M157.62 309.97L154.95 306.97"/>
<path d="M154.95 306.97L152.8 303.57"/>
<path d="M152.8 303.57L151.22 299.87"/>
<path d="M151.22 299.87L150.27 295.97"/>
<path d="M150.27 295.97L149.95 291.97"/>
<path d="M422.85 317.49L174.7 316.85"/>
<path d="M150.15 215.6L150.19 199.06"/>
<path d="M149.95 291.97L150.12 226.63"/>
<path d="M150.19 199.06L151.08 188.06"/>
<path d="M151.08 188.06L153.69 177.33"/>
<path d="M153.69 177.33L157.94 167.15"/>
<path d="M157.94 167.15L163.73 157.76"/>
<path d="M163.73 157.76L170.92 149.39"/>
<path d="M170.92 149.39L179.32 142.25"/>
<path d="M179.32 142.25L188.74 136.51"/>
<path d="M188.74 136.51L198.94 132.31"/>
<path d="M198.94 132.31L209.68 129.76"/>
<path d="M209.68 129.76L220.68 128.93"/>
<path d="M377.84 129.33L388.84 130.22"/>
<path d="M388.84 130.22L399.56 132.83"/>
<path d="M399.56 132.83L409.74 137.08"/>
<path d="M409.74 137.08L419.13 142.87"/>
<path d="M419.13 142.87L427.5 150.06"/>
<path d="M427.5 150.06L434.64 158.46"/>
<path d="M434.64 158.46L440.38 167.88"/>
<path d="M440.38 167.88L444.58 178.08"/>
<path d="M444.58 178.08L447.13 188.82"/>
<path d="M447.13 188.82L447.97 199.82"/>
<path d="M447.73 292.74L447.43 296.49"/>
<path d="M447.43 296.49L446.57 300.16"/>
<path d="M446.57 300.16L445.16 303.66"/>
<path d="M445.16 303.66L443.24 306.9"/>
<path d="M443.24 306.9L440.85 309.82"/>
<path d="M440.85 309.82L437.85 312.49"/>
<path d="M437.85 312.49L434.45 314.64"/>
<path d="M434.45 314.64L430.75 316.22"/>
<path d="M430.75 316.22L426.85 317.17"/>
<path d="M426.85 317.17L422.85 317.49"/>
<path d="M447.73 292.74L447.89 227.39"/>
<path d="M447.92 216.36L447.97 199.82"/>
<path d="M377.84 129.33L220.68 128.93"/>
<path d="M241.57 89.27L248.79 89.27M248.79 89.27L244.85 94.52M244.85 94.52L246.82 94.52M246.82 94.52L248.14 95.17M248.14 95.17L248.79 95.83M248.79 95.83L249.45 97.8M249.45 97.8L249.45 99.11M249.45 99.11L248.79 101.08M248.79 101.08L247.48 102.4M247.48 102.4L245.51 103.05M245.51 103.05L243.54 103.05M243.54 103.05L241.57 102.4M241.57 102.4L240.91 101.74M240.91 101.74L240.26 100.43"/>
<path d="M112.08 271.54L119.3 271.54M119.3 271.54L115.37 276.79M115.37 276.79L117.34 276.79M117.34 276.79L118.65 277.44M118.65 277.44L119.3 278.1M119.3 278.1L119.96 280.07M119.96 280.07L119.96 281.38M119.96 281.38L119.3 283.35M119.3 283.35L117.99 284.66M117.99 284.66L116.02 285.32M116.02 285.32L114.05 285.32M114.05 285.32L112.08 284.66M112.08 284.66L111.43 284.01M111.43 284.01L110.77 282.7M130.46 271.54L123.9 280.73M123.9 280.73L133.75 280.73M130.46 271.54L130.46 285.32"/>
</g>
</g>
</svg>
