<?xml version="1.0" standalone="no"?><svg xmlns="http://www.w3.org/2000/svg" width="600.000" height="450.000" viewBox="0.0 0.0 600.000 450.000" version="1.1">
<title>Acme Converter - Post-processed with EDS-Designer: 14.44 (info@symca.com)</title>
<desc>Acme Converter - Post-processed with EDS-Designer: 14.44 (info@symca.com)</desc>
<g id="EDS_STYLE_GROUP" fill="none" stroke="black" stroke-width="1.0">
<g id="0" display="visible">
<path d="M237.54 196.84L260.07 196.84"/>
<path d="M260.07 196.84L260.07 230.63"/>
<path d="M260.07 230.63L248.8 230.63"/>
<path d="M248.8 230.63L248.8 241.9"/>
<path d="M248.8 241.9L237.54 241.9"/>
<path d="M237.54 241.9L237.54 219.37"/>
<path d="M237.54 219.37L226.28 219.37"/>
<path d="M226.28 219.37L226.28 196.84"/>
<path d="M226.28 196.84L237.54 196.84"/>
<path d="M282.59 196.84L305.12 196.84"/>
<path d="M305.12 196.84L305.12 230.63"/>
<path d="M305.12 230.63L293.86 230.63"/>
<path d="M293.86 230.63L293.86 241.9"/>
<path d="M293.86 241.9L282.59 241.9"/>
<path d="M282.59 241.9L282.59 219.37"/>
<path d="M282.59 219.37L271.33 219.37"/>
<path d="M271.33 219.37L271.33 196.84"/>
<path d="M271.33 196.84L282.59 196.84"/>
<path d="M327.65 196.84L350.18 196.84"/>
<path d="M350.18 196.84L350.18 230.63"/>
<path d="M350.18 230.63L338.91 230.63"/>
<path d="M338.91 230.63L338.91 241.9"/>
<path d="M338.91 241.9L327.65 241.9"/>
<path d="M327.65 241.9L327.65 219.37"/>
<path d="M327.65 219.37L316.38 219.37"/>
<path d="M316.38 219.37L316.38 196.84"/>
<path d="M316.38 196.84L327.65 196.84"/>
<path d="M372.7 196.84L395.23 196.84"/>
<path d="M395.23 196.84L395.23 230.63"/>
<path d="M395.23 230.63L383.97 230.63"/>
<path d="M383.97 230.63L383.97 241.9"/>
<path d="M383.97 241.9L372.7 241.9"/>
<path d="M372.7 241.9L372.7 219.37"/>
<path d="M372.7 219.37L361.44 219.37"/>
<path d="M361.44 219.37L361.44 196.84"/>
<path d="M361.44 196.84L372.7 196.84"/>
<path d="M371.35 168.68L388.25 168.68"/>
<path d="M192.48 196.84L215.01 196.84"/>
<path d="M215.01 196.84L215.01 230.63"/>
<path d="M215.01 230.63L203.75 230.63"/>
<path d="M203.75 230.63L203.75 241.9"/>
<path d="M203.75 241.9L192.48 241.9"/>
<path d="M192.48 241.9L192.48 219.37"/>
<path d="M192.48 219.37L181.22 219.37"/>
<path d="M440.29 230.63L429.02 230.63"/>
<path d="M429.02 230.63L429.02 241.9"/>
<path d="M429.02 241.9L417.76 241.9"/>
<path d="M417.76 241.9L417.76 219.37"/>
<path d="M417.76 219.37L406.49 219.37"/>
<path d="M406.49 219.37L406.49 196.84"/>
<path d="M406.49 196.84L417.76 196.84"/>
<path d="M192.48 196.84L186.45 200.28M186.45 200.28L182.19 205.77M182.19 205.77L180.35 212.47M180.35 212.47L181.22 219.37"/>
<path d="M440.29 230.63L440.29 219.37"/>
<path d="M417.76 196.84L429.02 196.84"/>
<path d="M440.29 219.37L441.15 212.47M441.15 212.47L439.32 205.77M439.32 205.77L435.06 200.28M435.06 200.28L429.02 196.84"/>
<path d="M169.96 253.16L192.48 253.16"/>
<path d="M192.48 253.16L192.48 286.95"/>
<path d="M192.48 286.95L181.22 286.95"/>
<path d="M181.22 286.95L181.22 298.21"/>
<path d="M181.22 298.21L169.96 298.21"/>
<path d="M169.96 298.21L169.96 275.69"/>
<path d="M169.96 275.69L158.69 275.69"/>
<path d="M158.69 275.69L158.69 253.16"/>
<path d="M158.69 253.16L169.96 253.16"/>
<path d="M215.01 253.16L237.54 253.16"/>
<path d="M237.54 253.16L237.54 286.95"/>
<path d="M237.54 286.95L226.28 286.95"/>
<path d="M226.28 286.95L226.28 298.21"/>
<path d="M226.28 298.21L215.01 298.21"/>
<path d="M215.01 298.21L215.01 275.69"/>
<path d="M215.01 275.69L203.75 275.69"/>
<path d="M203.75 275.69L203.75 253.16"/>
<path d="M203.75 253.16L215.01 253.16"/>
<path d="M350.18 253.16L372.7 253.16"/>
<path d="M372.7 253.16L372.7 286.95"/>
<path d="M372.7 286.95L361.44 286.95"/>
<path d="M361.44 286.95L361.44 298.21"/>
<path d="M361.44 298.21L350.18 298.21"/>
<path d="M350.18 298.21L350.18 275.69"/>
<path d="M350.18 275.69L338.91 275.69"/>
<path d="M338.91 275.69L338.91 253.16"/>
<path d="M338.91 253.16L350.18 253.16"/>
<path d="M395.23 253.16L417.76 253.16"/>
<path d="M417.76 253.16L417.76 286.95"/>
<path d="M417.76 286.95L406.49 286.95"/>
<path d="M406.49 286.95L406.49 298.21"/>
<path d="M406.49 298.21L395.23 298.21"/>
<path d="M395.23 298.21L395.23 275.69"/>
<path d="M395.23 275.69L383.97 275.69"/>
<path d="M383.97 275.69L383.97 253.16"/>
<path d="M383.97 253.16L395.23 253.16"/>
<path d="M203.75 196.84L203.75 230.63"/>
<path d="M196.83 196.63L196.83 208.67"/>
<path d="M196.83 208.67L187.91 208.67"/>
<path d="M187.91 208.67L187.91 218.93"/>
<path d="M252.13 196.63L252.13 230.97"/>
<path d="M241.43 196.63L241.43 206.44"/>
<path d="M241.43 206.44L237.42 206.44"/>
<path d="M237.42 206.44L237.42 218.93"/>
<path d="M296.73 230.53L296.73 197.08"/>
<path d="M285.58 196.63L285.58 205.55"/>
<path d="M285.58 205.55L282.02 205.55"/>
<path d="M282.02 205.55L282.02 218.93"/>
<path d="M342.67 196.63L342.67 230.53"/>
<path d="M331.97 196.63L331.97 205.55"/>
<path d="M331.97 205.55L327.51 205.55"/>
<path d="M327.51 205.55L327.06 218.93"/>
<path d="M387.27 230.53L387.27 196.63"/>
<path d="M375.68 196.63L375.68 205.55"/>
<path d="M375.68 205.55L372.55 205.55"/>
<path d="M372.55 205.55L372.55 218.93"/>
<path d="M428.31 197.08L428.31 230.53"/>
<path d="M420.72 196.63L420.72 206"/>
<path d="M420.72 206L414.03 206"/>
<path d="M414.03 206L414.03 218.93"/>
<path d="M183.22 252.83L183.22 286.28"/>
<path d="M173.86 252.83L173.86 262.64"/>
<path d="M173.86 262.64L167.17 262.64"/>
<path d="M167.17 262.64L167.17 276.02"/>
<path d="M229.16 253.27L229.16 287.17"/>
<path d="M219.79 252.83L219.79 263.98"/>
<path d="M219.79 263.98L213.1 263.98"/>
<path d="M213.1 263.98L213.1 275.57"/>
<path d="M274.21 252.83L274.21 286.72"/>
<path d="M263.06 252.83L263.06 264.42"/>
<path d="M263.06 264.42L255.92 264.42"/>
<path d="M255.92 264.42L255.92 275.57"/>
<path d="M364.3 252.83L364.3 286.72"/>
<path d="M353.6 252.83L353.6 263.98"/>
<path d="M353.6 263.98L347.35 263.98"/>
<path d="M347.35 263.98L347.35 275.57"/>
<path d="M408.45 252.83L408.45 286.72"/>
<path d="M399.09 252.83L399.09 264.42"/>
<path d="M399.09 264.42L391.51 264.42"/>
<path d="M391.51 264.42L391.51 275.57"/>
<path d="M260.07 253.16L282.59 253.16"/>
<path d="M282.59 286.95L271.33 286.95"/>
<path d="M271.33 286.95L271.33 298.21"/>
<path d="M271.33 298.21L260.07 298.21"/>
<path d="M260.07 298.21L260.07 275.69"/>
<path d="M260.07 275.69L248.8 275.69"/>
<path d="M248.8 275.69L248.8 253.16"/>
<path d="M248.8 253.16L260.07 253.16"/>
<path d="M282.59 253.16L282.59 264.42"/>
<path d="M282.59 264.42L282.59 286.95"/>
<path d="M124.9 185.58L140.45 185.58"/>
<path d="M444.57 185.58L462.81 185.58"/>
<path d="M371.35 129.26L213.66 129.26"/>
<path d="M196.76 129.26L182.19 131.18M182.19 131.18L168.61 136.8M168.61 136.8L156.94 145.75M156.94 145.75L147.99 157.42M147.99 157.42L142.37 171M142.37 171L140.45 185.58"/>
<path d="M444.57 185.58L442.65 171M442.65 171L437.02 157.42M437.02 157.42L428.07 145.75M428.07 145.75L416.41 136.8M416.41 136.8L402.82 131.18M402.82 131.18L388.25 129.26"/>
<path d="M213.66 168.68L213.66 84.2"/>
<path d="M196.76 168.68L196.76 72.94"/>
<path d="M253.08 118L196.76 118"/>
<path d="M371.35 84.2L371.35 168.68"/>
<path d="M388.25 72.94L388.25 168.68"/>
<path d="M388.25 118L331.93 118"/>
<path d="M219.29 61.68L365.72 61.68"/>
<path d="M388.25 72.94L365.72 61.68"/>
<path d="M196.76 72.94L219.29 61.68"/>
<path d="M236.19 72.94L348.82 72.94"/>
<path d="M371.35 84.2L348.82 72.94"/>
<path d="M213.66 84.2L236.19 72.94"/>
<path d="M181.62 50.41L417.29 50.41"/>
<path d="M181.62 56.04L417.29 56.04"/>
<path d="M418.22 50.49L417.29 50.41"/>
<path d="M181.62 50.41L180.82 50.47"/>
<path d="M468.44 66.45L468.44 320.74"/>
<path d="M462.81 66.45L462.81 320.74"/>
<path d="M445.92 343.27L454.54 341.55M454.54 341.55L461.85 336.67M461.85 336.67L466.73 329.36M466.73 329.36L468.44 320.74"/>
<path d="M445.92 343.27L141.8 343.27"/>
<path d="M462.81 332L124.9 332"/>
<path d="M467.73 326.37L119.99 326.37"/>
<path d="M462.81 320.74L124.9 320.74"/>
<path d="M119.27 320.74L119.27 66.56"/>
<path d="M124.9 320.74L124.9 66.56"/>
<path d="M119.27 320.74L120.99 329.36M120.99 329.36L125.87 336.67M125.87 336.67L133.18 341.55M133.18 341.55L141.8 343.27"/>
<path d="M255.64 375.45L256.98 379.47M256.98 379.47L256.98 371.43M256.98 371.43L255.64 375.45M255.64 375.45L252.96 372.77M252.96 372.77L248.94 371.43M248.94 371.43L246.25 371.43M246.25 371.43L242.23 372.77M242.23 372.77L239.55 375.45M239.55 375.45L238.21 378.13M238.21 378.13L236.87 382.16M236.87 382.16L236.87 388.86M236.87 388.86L238.21 392.88M238.21 392.88L239.55 395.56M239.55 395.56L242.23 398.25M242.23 398.25L246.25 399.59M246.25 399.59L248.94 399.59M248.94 399.59L252.96 398.25M252.96 398.25L255.64 395.56M246.25 371.43L243.57 372.77M243.57 372.77L240.89 375.45M240.89 375.45L239.55 378.13M239.55 378.13L238.21 382.16M238.21 382.16L238.21 388.86M238.21 388.86L239.55 392.88M239.55 392.88L240.89 395.56M240.89 395.56L243.57 398.25M243.57 398.25L246.25 399.59M255.64 388.86L255.64 399.59M256.98 388.86L256.98 399.59M251.62 388.86L261 388.86M271.73 399.59L271.73 371.43M273.07 371.43L273.07 399.59M267.71 371.43L283.8 371.43M283.8 371.43L287.82 372.77M287.82 372.77L289.16 374.11M289.16 374.11L290.51 376.79M290.51 376.79L290.51 379.47M290.51 379.47L289.16 382.16M289.16 382.16L287.82 383.5M287.82 383.5L283.8 384.84M283.8 384.84L273.07 384.84M283.8 371.43L286.48 372.77M286.48 372.77L287.82 374.11M287.82 374.11L289.16 376.79M289.16 376.79L289.16 379.47M289.16 379.47L287.82 382.16M287.82 382.16L286.48 383.5M286.48 383.5L283.8 384.84M267.71 399.59L277.1 399.59M279.78 384.84L282.46 386.18M282.46 386.18L283.8 387.52M283.8 387.52L287.82 396.91M287.82 396.91L289.16 398.25M289.16 398.25L290.51 398.25M290.51 398.25L291.85 396.91M282.46 386.18L283.8 388.86M283.8 388.86L286.48 398.25M286.48 398.25L287.82 399.59M287.82 399.59L290.51 399.59M290.51 399.59L291.85 396.91M291.85 396.91L291.85 395.56M301.23 399.59L301.23 371.43M302.57 371.43L302.57 399.59M310.62 379.47L310.62 390.2M297.21 371.43L318.66 371.43M318.66 371.43L318.66 379.47M318.66 379.47L317.32 371.43M302.57 384.84L310.62 384.84M297.21 399.59L318.66 399.59M318.66 399.59L318.66 391.54M318.66 391.54L317.32 399.59M328.05 371.43L337.44 386.18M337.44 386.18L337.44 399.59M329.39 371.43L338.78 386.18M338.78 386.18L338.78 399.59M348.16 371.43L338.78 386.18M325.37 371.43L333.41 371.43M342.8 371.43L350.85 371.43M333.41 399.59L342.8 399.59"/>
<path d="M213.66 92.65L371.35 92.65"/>
<path d="M244.64 92.65L244.64 101.1"/>
<path d="M244.64 101.1L340.38 101.1"/>
<path d="M340.38 101.1L340.38 92.65"/>
<path d="M253.08 101.1L253.08 129.26"/>
<path d="M331.93 101.1L331.93 129.26"/>
<path d="M253.08 112.36L331.93 112.36"/>
<path d="M278.43 112.36L278.43 168.68"/>
<path d="M309.4 112.36L309.4 168.68"/>
<path d="M124.11 60.99L180.82 50.47"/>
<path d="M124.9 66.56L181.62 56.04"/>
<path d="M124.11 60.99L120.65 62.87M120.65 62.87L119.27 66.56"/>
<path d="M463.74 60.89L418.22 50.49"/>
<path d="M462.81 66.45L417.29 56.04"/>
<path d="M468.44 66.45L467.11 62.81M467.11 62.81L463.74 60.89"/>
<path d="M304.9 252.98L327.43 252.98"/>
<path d="M327.43 252.98L327.43 286.77"/>
<path d="M327.43 286.77L316.16 286.77"/>
<path d="M316.16 286.77L316.16 298.03"/>
<path d="M316.16 298.03L304.9 298.03"/>
<path d="M304.9 298.03L304.9 275.5"/>
<path d="M304.9 275.5L293.63 275.5"/>
<path d="M293.63 275.5L293.63 252.98"/>
<path d="M293.63 252.98L304.9 252.98"/>
<path d="M319.02 252.64L319.02 286.54"/>
<path d="M308.32 252.64L308.32 263.8"/>
<path d="M308.32 263.8L302.07 263.8"/>
<path d="M302.07 263.8L302.07 275.39"/>
<path d="M196.76 168.68L213.66 168.68"/>
<path d="M278.43 168.68L309.4 168.68"/>
<path d="M100.95 210.34L103.09 209.27M103.09 209.27L106.31 206.05M106.31 206.05L106.31 228.57"/>
<path d="M96.06 273.04L111.08 273.04M111.08 273.04L100.35 295.57"/>
<path d="M490.85 207.3L489.78 205.15M489.78 205.15L486.56 204.08M486.56 204.08L484.41 204.08M484.41 204.08L481.19 205.15M481.19 205.15L479.05 208.37M479.05 208.37L477.98 213.73M477.98 213.73L477.98 219.1M477.98 219.1L479.05 223.39M479.05 223.39L481.19 225.53M481.19 225.53L484.41 226.61M484.41 226.61L485.49 226.61M485.49 226.61L488.7 225.53M488.7 225.53L490.85 223.39M490.85 223.39L491.92 220.17M491.92 220.17L491.92 219.1M491.92 219.1L490.85 215.88M490.85 215.88L488.7 213.73M488.7 213.73L485.49 212.66M485.49 212.66L484.41 212.66M484.41 212.66L481.19 213.73M481.19 213.73L479.05 215.88M479.05 215.88L477.98 219.1"/>
<path d="M471.76 278.32L473.9 277.25M473.9 277.25L477.12 274.03M477.12 274.03L477.12 296.56M489.99 279.39L489.99 278.32M489.99 278.32L491.07 276.17M491.07 276.17L492.14 275.1M492.14 275.1L494.29 274.03M494.29 274.03L498.58 274.03M498.58 274.03L500.72 275.1M500.72 275.1L501.79 276.17M501.79 276.17L502.87 278.32M502.87 278.32L502.87 280.46M502.87 280.46L501.79 282.61M501.79 282.61L499.65 285.83M499.65 285.83L488.92 296.56M488.92 296.56L503.94 296.56"/>
</g>
</g>
</svg>
