<?xml version="1.0" standalone="no"?><svg xmlns="http://www.w3.org/2000/svg" width="600.000" height="450.000" viewBox="0.0 0.0 600.000 450.000" version="1.1">
<title>Acme Converter - Post-processed with EDS-Designer: 14.44 (info@symca.com)</title>
<desc>Acme Converter - Post-processed with EDS-Designer: 14.44 (info@symca.com)</desc>
<g id="EDS_STYLE_GROUP" fill="none" stroke="black" stroke-width="1.0">
<g id="0" display="visible">
<path d="M160.33 168.54L160.33 167.23M160.33 167.23L161.64 164.61M161.64 164.61L162.95 163.3M162.95 163.3L165.57 161.98M165.57 161.98L170.82 161.98M170.82 161.98L173.44 163.3M173.44 163.3L174.75 164.61M174.75 164.61L176.06 167.23M176.06 167.23L176.06 169.85M176.06 169.85L174.75 172.47M174.75 172.47L172.13 176.41M172.13 176.41L159.02 189.52M159.02 189.52L177.37 189.52"/>
<path d="M422.72 159.94L425.34 158.63M425.34 158.63L429.27 154.69M429.27 154.69L429.27 182.23"/>
<path d="M140.19 413.01L140.19 378.59M141.83 378.59L141.83 413.01M135.28 378.59L146.75 378.59M135.28 413.01L159.86 413.01M159.86 413.01L159.86 403.18M159.86 403.18L158.22 413.01M169.69 413.01L169.69 378.59M171.33 378.59L171.33 413.01M164.78 378.59L176.25 378.59M164.78 413.01L176.25 413.01M205.75 383.51L207.39 388.43M207.39 388.43L207.39 378.59M207.39 378.59L205.75 383.51M205.75 383.51L202.47 380.23M202.47 380.23L197.56 378.59M197.56 378.59L194.28 378.59M194.28 378.59L189.36 380.23M189.36 380.23L186.08 383.51M186.08 383.51L184.44 386.79M184.44 386.79L182.81 391.7M182.81 391.7L182.81 399.9M182.81 399.9L184.44 404.82M184.44 404.82L186.08 408.09M186.08 408.09L189.36 411.37M189.36 411.37L194.28 413.01M194.28 413.01L197.56 413.01M197.56 413.01L202.47 411.37M202.47 411.37L205.75 408.09M194.28 378.59L191 380.23M191 380.23L187.72 383.51M187.72 383.51L186.08 386.79M186.08 386.79L184.44 391.7M184.44 391.7L184.44 399.9M184.44 399.9L186.08 404.82M186.08 404.82L187.72 408.09M187.72 408.09L191 411.37M191 411.37L194.28 413.01M205.75 399.9L205.75 413.01M207.39 399.9L207.39 413.01M200.83 399.9L212.31 399.9M225.42 413.01L225.42 378.59M227.06 378.59L227.06 413.01M246.73 413.01L246.73 378.59M248.36 378.59L248.36 413.01M220.5 378.59L231.97 378.59M241.81 378.59L253.28 378.59M227.06 394.98L246.73 394.98M220.5 413.01L231.97 413.01M241.81 413.01L253.28 413.01M271.31 413.01L271.31 378.59M272.95 378.59L272.95 413.01M261.48 378.59L259.84 388.43M259.84 388.43L259.84 378.59M259.84 378.59L284.42 378.59M284.42 378.59L284.42 388.43M284.42 388.43L282.78 378.59M266.39 413.01L277.87 413.01M348.34 383.51L349.98 388.43M349.98 388.43L349.98 378.59M349.98 378.59L348.34 383.51M348.34 383.51L345.06 380.23M345.06 380.23L340.15 378.59M340.15 378.59L336.87 378.59M336.87 378.59L331.95 380.23M331.95 380.23L328.67 383.51M328.67 383.51L327.04 386.79M327.04 386.79L325.4 391.7M325.4 391.7L325.4 399.9M325.4 399.9L327.04 404.82M327.04 404.82L328.67 408.09M328.67 408.09L331.95 411.37M331.95 411.37L336.87 413.01M336.87 413.01L340.15 413.01M340.15 413.01L345.06 411.37M345.06 411.37L348.34 408.09M336.87 378.59L333.59 380.23M333.59 380.23L330.31 383.51M330.31 383.51L328.67 386.79M328.67 386.79L327.04 391.7M327.04 391.7L327.04 399.9M327.04 399.9L328.67 404.82M328.67 404.82L330.31 408.09M330.31 408.09L333.59 411.37M333.59 411.37L336.87 413.01M348.34 399.9L348.34 413.01M349.98 399.9L349.98 413.01M343.43 399.9L354.9 399.9M368.01 413.01L368.01 378.59M369.65 378.59L369.65 413.01M363.09 378.59L382.76 378.59M382.76 378.59L387.68 380.23M387.68 380.23L389.32 381.87M389.32 381.87L390.96 385.15M390.96 385.15L390.96 388.43M390.96 388.43L389.32 391.7M389.32 391.7L387.68 393.34M387.68 393.34L382.76 394.98M382.76 394.98L369.65 394.98M382.76 378.59L386.04 380.23M386.04 380.23L387.68 381.87M387.68 381.87L389.32 385.15M389.32 385.15L389.32 388.43M389.32 388.43L387.68 391.7M387.68 391.7L386.04 393.34M386.04 393.34L382.76 394.98M363.09 413.01L374.57 413.01M377.84 394.98L381.12 396.62M381.12 396.62L382.76 398.26M382.76 398.26L387.68 409.73M387.68 409.73L389.32 411.37M389.32 411.37L390.96 411.37M390.96 411.37L392.59 409.73M381.12 396.62L382.76 399.9M382.76 399.9L386.04 411.37M386.04 411.37L387.68 413.01M387.68 413.01L390.96 413.01M390.96 413.01L392.59 409.73M392.59 409.73L392.59 408.09M404.07 413.01L404.07 378.59M405.71 378.59L405.71 413.01M415.54 388.43L415.54 401.54M399.15 378.59L425.37 378.59M425.37 378.59L425.37 388.43M425.37 388.43L423.74 378.59M405.71 394.98L415.54 394.98M399.15 413.01L425.37 413.01M425.37 413.01L425.37 403.18M425.37 403.18L423.74 413.01M436.85 378.59L448.32 396.62M448.32 396.62L448.32 413.01M438.49 378.59L449.96 396.62M449.96 396.62L449.96 413.01M461.43 378.59L449.96 396.62M433.57 378.59L443.4 378.59M454.88 378.59L464.71 378.59M443.4 413.01L454.88 413.01"/>
<path d="M300.31 37.03L266.24 37.03"/>
<path d="M218.66 84.61L218.66 121.62"/>
<path d="M218.66 121.62L220.5 128.5M220.5 128.5L225.54 133.54M225.54 133.54L232.43 135.38"/>
<path d="M218.66 125.54L218.66 283.89"/>
<path d="M218.66 283.89L219.58 287.33M219.58 287.33L222.1 289.85M222.1 289.85L225.54 290.77"/>
<path d="M254.44 315.72L300.31 315.72"/>
<path d="M300.31 50.75L263.14 50.75"/>
<path d="M245.3 68.6L245.3 123.49"/>
<path d="M259.86 135.38L232.43 135.38"/>
<path d="M257.19 135.38L259.86 135.38"/>
<path d="M259.86 135.38L259.86 73.25"/>
<path d="M262.84 70.28L264.13 70.28"/>
<path d="M250.23 70.28L250.23 68.02"/>
<path d="M256.18 62.07L300.31 62.07"/>
<path d="M267.1 62.07L267.1 61.27"/>
<path d="M271.26 57.11L300.31 57.11"/>
<path d="M267.1 70.28L267.1 135.38"/>
<path d="M267.1 135.38L269.08 135.38"/>
<path d="M267.1 105.45L269.07 108.31"/>
<path d="M269.07 108.31L269.07 135.38"/>
<path d="M267.1 62.07L267.1 70.28"/>
<path d="M283.65 62.07L283.65 70.28"/>
<path d="M247.18 159.57L297.6 159.57"/>
<path d="M297.6 159.57L297.6 189.82"/>
<path d="M297.6 189.82L247.18 189.82"/>
<path d="M247.18 189.82L247.18 159.57"/>
<path d="M254.58 166.98L290.2 166.98"/>
<path d="M290.2 166.98L290.2 182.42"/>
<path d="M290.2 182.42L254.58 182.42"/>
<path d="M254.58 182.42L254.58 166.98"/>
<path d="M254.58 166.98L247.18 159.57"/>
<path d="M254.58 182.42L247.18 189.82"/>
<path d="M290.2 166.98L297.6 159.57"/>
<path d="M290.2 182.42L297.6 189.82"/>
<path d="M254.58 242.47L290.2 242.47"/>
<path d="M290.2 242.47L290.2 257.91"/>
<path d="M290.2 257.91L254.58 257.91"/>
<path d="M254.58 257.91L254.58 242.47"/>
<path d="M247.18 235.07L297.6 235.07"/>
<path d="M297.6 235.07L297.6 265.31"/>
<path d="M297.6 265.31L247.18 265.31"/>
<path d="M247.18 265.31L247.18 235.07"/>
<path d="M254.58 257.91L247.18 265.31"/>
<path d="M254.58 242.47L247.18 235.07"/>
<path d="M290.2 257.91L297.6 265.31"/>
<path d="M290.2 242.47L297.6 235.07"/>
<path d="M287.98 70.28L287.98 101.16"/>
<path d="M287.98 101.16L284.07 105.45"/>
<path d="M284.07 105.45L284.07 135.38"/>
<path d="M284.07 135.38L300.31 135.38"/>
<path d="M287.98 80.71L300.31 80.71"/>
<path d="M232.91 305.35L300.31 305.35"/>
<path d="M226.81 284.82L226.92 288.91"/>
<path d="M226.92 288.91L228.44 297.25M228.44 297.25L232.43 304.72M232.43 304.72L238.5 310.63M238.5 310.63L246.07 314.42M246.07 314.42L254.44 315.72"/>
<path d="M228.51 297.43L300.31 297.43"/>
<path d="M263.14 50.75L256.31 52.11M256.31 52.11L250.52 55.98M250.52 55.98L246.65 61.77M246.65 61.77L245.3 68.6"/>
<path d="M266.24 37.03L253.73 38.22M253.73 38.22L242.02 42.78M242.02 42.78L231.99 50.36M231.99 50.36L224.41 60.38M224.41 60.38L219.85 72.1M219.85 72.1L218.66 84.61"/>
<path d="M256.18 62.07L251.97 63.81M251.97 63.81L250.23 68.02"/>
<path d="M271.26 57.11L268.32 58.33M268.32 58.33L267.1 61.27"/>
<path d="M245.3 123.49L246.89 129.44M246.89 129.44L251.24 133.79M251.24 133.79L257.19 135.38"/>
<path d="M262.84 70.28L260.74 71.15M260.74 71.15L259.86 73.25"/>
<path d="M267.1 73.25L266.7 71.76M266.7 71.76L265.61 70.67M265.61 70.67L264.13 70.28"/>
<path d="M267.1 70.28L250.23 70.28"/>
<path d="M267.1 70.28L300.31 70.28"/>
<path d="M333.52 70.28L300.31 70.28"/>
<path d="M329.36 57.11L300.31 57.11"/>
<path d="M344.44 62.07L300.31 62.07"/>
<path d="M300.31 50.75L337.48 50.75"/>
<path d="M300.31 37.03L334.38 37.03"/>
<path d="M381.68 297.43L300.31 297.43"/>
<path d="M387.58 345.61L395.44 324.76"/>
<path d="M373.27 305.35L300.31 305.35"/>
<path d="M353.44 235.07L303.02 235.07"/>
<path d="M303.02 235.07L303.02 265.31"/>
<path d="M303.02 265.31L353.44 265.31"/>
<path d="M353.44 265.31L353.44 235.07"/>
<path d="M346.04 242.47L310.42 242.47"/>
<path d="M310.42 242.47L310.42 257.91"/>
<path d="M310.42 257.91L346.04 257.91"/>
<path d="M346.04 257.91L346.04 242.47"/>
<path d="M346.04 166.98L310.42 166.98"/>
<path d="M310.42 166.98L310.42 182.42"/>
<path d="M310.42 182.42L346.04 182.42"/>
<path d="M346.04 182.42L346.04 166.98"/>
<path d="M353.44 159.57L303.02 159.57"/>
<path d="M303.02 159.57L303.02 189.82"/>
<path d="M303.02 189.82L353.44 189.82"/>
<path d="M353.44 189.82L353.44 159.57"/>
<path d="M354.43 315.72L300.31 315.72"/>
<path d="M381.96 135.38L381.96 284.36"/>
<path d="M373.81 111.49L373.81 158.09"/>
<path d="M361.66 195.42L361.66 158.09"/>
<path d="M373.81 274.06L373.81 285.74"/>
<path d="M381.96 284.36L381.96 288.18"/>
<path d="M354.43 315.72L362.93 314.37M362.93 314.37L370.61 310.46M370.61 310.46L376.7 304.37M376.7 304.37L380.61 296.69M380.61 296.69L381.96 288.18"/>
<path d="M346.04 257.91L353.44 265.31"/>
<path d="M367.86 290.77L347.81 290.77"/>
<path d="M367.86 290.77L372.07 289.03M372.07 289.03L373.81 284.82"/>
<path d="M347.81 292.55L337.63 292.55"/>
<path d="M347.81 290.77L347.81 292.55"/>
<path d="M346.04 242.47L353.44 235.07"/>
<path d="M333.52 70.28L333.52 135.38"/>
<path d="M340.76 135.38L340.76 73.25"/>
<path d="M355.33 68.6L355.33 123.49"/>
<path d="M381.96 84.61L381.96 135.38"/>
<path d="M346.04 182.42L353.44 189.82"/>
<path d="M346.04 166.98L353.44 159.57"/>
<path d="M340.76 135.38L381.96 135.38"/>
<path d="M381.96 111.49L355.33 111.49"/>
<path d="M381.96 135.38L395.44 135.38"/>
<path d="M343.43 135.38L349.38 133.79M349.38 133.79L353.73 129.44M353.73 129.44L355.33 123.49"/>
<path d="M331.55 108.31L331.55 135.38"/>
<path d="M343.43 135.38L340.76 135.38"/>
<path d="M333.52 135.38L331.54 135.38"/>
<path d="M333.52 105.45L331.55 108.31"/>
<path d="M381.96 84.61L380.77 72.1M380.77 72.1L376.21 60.38M376.21 60.38L368.63 50.36M368.63 50.36L358.6 42.78M358.6 42.78L346.89 38.22M346.89 38.22L334.38 37.03"/>
<path d="M355.33 68.6L353.97 61.77M353.97 61.77L350.1 55.98M350.1 55.98L344.31 52.11M344.31 52.11L337.48 50.75"/>
<path d="M333.52 70.28L350.39 70.28"/>
<path d="M337.78 70.28L336.5 70.28"/>
<path d="M336.5 70.28L335.01 70.67M335.01 70.67L333.92 71.76M333.92 71.76L333.52 73.25"/>
<path d="M340.76 73.25L339.89 71.15M339.89 71.15L337.78 70.28"/>
<path d="M333.52 62.07L333.52 61.27"/>
<path d="M333.52 61.27L332.3 58.33M332.3 58.33L329.36 57.11"/>
<path d="M350.39 70.28L350.39 68.02"/>
<path d="M350.39 68.02L348.65 63.81M348.65 63.81L344.44 62.07"/>
<path d="M333.52 62.07L333.52 70.28"/>
<path d="M310.42 257.91L303.02 265.31"/>
<path d="M310.42 242.47L303.02 235.07"/>
<path d="M312.64 70.28L312.64 101.16"/>
<path d="M310.42 182.42L303.02 189.82"/>
<path d="M310.42 166.98L303.02 159.57"/>
<path d="M316.55 105.45L316.55 135.38"/>
<path d="M316.55 135.38L300.31 135.38"/>
<path d="M312.64 101.16L316.55 105.45"/>
<path d="M312.64 80.71L300.31 80.71"/>
<path d="M316.97 62.07L316.97 70.28"/>
<path d="M170.6 236.15L157.49 254.51M157.49 254.51L177.16 254.51M170.6 236.15L170.6 263.69"/>
<path d="M418.56 228.86L432.99 228.86M432.99 228.86L425.12 239.35M425.12 239.35L429.05 239.35M429.05 239.35L431.68 240.67M431.68 240.67L432.99 241.98M432.99 241.98L434.3 245.91M434.3 245.91L434.3 248.53M434.3 248.53L432.99 252.47M432.99 252.47L430.37 255.09M430.37 255.09L426.43 256.4M426.43 256.4L422.5 256.4M422.5 256.4L418.56 255.09M418.56 255.09L417.25 253.78M417.25 253.78L415.94 251.15"/>
<path d="M381.96 111.49L395.44 111.49"/>
<path d="M218.66 111.49L245.3 111.49"/>
<path d="M402.33 128.5L402.33 118.37"/>
<path d="M395.44 135.38L398.89 134.46M398.89 134.46L401.41 131.94M401.41 131.94L402.33 128.5"/>
<path d="M402.33 118.37L401.41 114.93M401.41 114.93L398.89 112.41M398.89 112.41L395.44 111.49"/>
<path d="M395.44 324.76L395.44 311.19"/>
<path d="M395.44 311.19L393.6 304.31M393.6 304.31L388.56 299.27M388.56 299.27L381.68 297.43"/>
<path d="M373.81 331.85L373.27 305.35"/>
<path d="M373.81 331.85L375.66 338.73M375.66 338.73L380.7 343.77M380.7 343.77L387.58 345.61"/>
<path d="M361.66 158.09L373.81 158.09"/>
<path d="M361.66 236.73L373.81 236.73"/>
<path d="M361.66 195.42L373.81 195.42"/>
<path d="M373.81 195.42L373.81 236.73"/>
<path d="M361.66 274.06L361.66 236.73"/>
<path d="M361.66 274.06L373.81 274.06"/>
<path d="M226.81 111.49L226.81 158.09"/>
<path d="M238.96 195.42L238.96 158.09"/>
<path d="M226.81 274.06L226.81 285.74"/>
<path d="M232.76 290.77L252.81 290.77"/>
<path d="M226.81 284.82L228.55 289.03M228.55 289.03L232.76 290.77"/>
<path d="M252.81 292.55L337.63 292.55"/>
<path d="M238.96 158.09L226.81 158.09"/>
<path d="M238.96 236.73L226.81 236.73"/>
<path d="M238.96 195.42L226.81 195.42"/>
<path d="M226.81 195.42L226.81 236.73"/>
<path d="M238.96 274.06L238.96 236.73"/>
<path d="M238.96 274.06L226.81 274.06"/>
</g>
</g>
</svg>
