<?xml version="1.0" standalone="no"?><svg xmlns="http://www.w3.org/2000/svg" width="600.000" height="450.000" viewBox="0.0 0.0 600.000 450.000" version="1.1">
<title>Acme Converter - Post-processed with EDS-Designer: 14.44 (info@symca.com)</title>
<desc>Acme Converter - Post-processed with EDS-Designer: 14.44 (info@symca.com)</desc>
<g id="EDS_STYLE_GROUP" fill="none" stroke="black" stroke-width="1.0">
<g id="0" display="visible">
<path d="M218.72 404.54L218.72 366.84M220.52 366.84L220.52 404.54M213.34 366.84L234.88 366.84M234.88 366.84L240.26 368.64M240.26 368.64L242.06 370.43M242.06 370.43L243.85 374.02M243.85 374.02L243.85 377.61M243.85 377.61L242.06 381.2M242.06 381.2L240.26 383M240.26 383L234.88 384.79M234.88 366.84L238.47 368.64M238.47 368.64L240.26 370.43M240.26 370.43L242.06 374.02M242.06 374.02L242.06 377.61M242.06 377.61L240.26 381.2M240.26 381.2L238.47 383M238.47 383L234.88 384.79M220.52 384.79L234.88 384.79M234.88 384.79L240.26 386.59M240.26 386.59L242.06 388.38M242.06 388.38L243.85 391.97M243.85 391.97L243.85 397.36M243.85 397.36L242.06 400.95M242.06 400.95L240.26 402.74M240.26 402.74L234.88 404.54M234.88 404.54L213.34 404.54M234.88 384.79L238.47 386.59M238.47 386.59L240.26 388.38M240.26 388.38L242.06 391.97M242.06 391.97L242.06 397.36M242.06 397.36L240.26 400.95M240.26 400.95L238.47 402.74M238.47 402.74L234.88 404.54M258.21 404.54L258.21 366.84M260.01 366.84L260.01 404.54M252.83 366.84L265.39 366.84M252.83 404.54L279.75 404.54M279.75 404.54L279.75 393.77M279.75 393.77L277.96 404.54M301.29 366.84L288.73 404.54M301.29 366.84L313.86 404.54M301.29 372.23L312.06 404.54M292.32 393.77L308.47 393.77M285.14 404.54L295.91 404.54M306.68 404.54L317.45 404.54M347.97 372.23L349.76 377.61M349.76 377.61L349.76 366.84M349.76 366.84L347.97 372.23M347.97 372.23L344.38 368.64M344.38 368.64L338.99 366.84M338.99 366.84L335.4 366.84M335.4 366.84L330.02 368.64M330.02 368.64L326.42 372.23M326.42 372.23L324.63 375.82M324.63 375.82L322.83 381.2M322.83 381.2L322.83 390.18M322.83 390.18L324.63 395.56M324.63 395.56L326.42 399.15M326.42 399.15L330.02 402.74M330.02 402.74L335.4 404.54M335.4 404.54L338.99 404.54M338.99 404.54L344.38 402.74M344.38 402.74L347.97 399.15M347.97 399.15L349.76 395.56M335.4 366.84L331.81 368.64M331.81 368.64L328.22 372.23M328.22 372.23L326.42 375.82M326.42 375.82L324.63 381.2M324.63 381.2L324.63 390.18M324.63 390.18L326.42 395.56M326.42 395.56L328.22 399.15M328.22 399.15L331.81 402.74M331.81 402.74L335.4 404.54M365.92 404.54L365.92 366.84M367.71 366.84L367.71 404.54M391.05 366.84L367.71 390.18M376.69 383L391.05 404.54M374.89 383L389.25 404.54M360.53 366.84L373.1 366.84M383.87 366.84L394.64 366.84M360.53 404.54L373.1 404.54M383.87 404.54L394.64 404.54"/>
<path d="M119.81 194.88L119.81 193.08M119.81 193.08L121.61 189.49M121.61 189.49L123.4 187.7M123.4 187.7L126.99 185.9M126.99 185.9L134.17 185.9M134.17 185.9L137.76 187.7M137.76 187.7L139.56 189.49M139.56 189.49L141.35 193.08M141.35 193.08L141.35 196.67M141.35 196.67L139.56 200.26M139.56 200.26L135.97 205.65M135.97 205.65L118.02 223.6M118.02 223.6L143.15 223.6"/>
<path d="M472.9 193.08L476.49 191.29M476.49 191.29L481.88 185.9M481.88 185.9L481.88 223.6"/>
<path d="M368.29 105.04L375.31 112.02"/>
<path d="M376.64 75.53L374.1 71.98M374.1 71.98L370.65 69.3"/>
<path d="M378.53 68.39L366.69 61.74M366.69 61.74L354.26 56.27"/>
<path d="M370.65 305.35L374.1 302.67M374.1 302.67L376.64 299.12"/>
<path d="M368.29 269.61L375.31 262.63"/>
<path d="M362.23 254.89L370.81 246.42M370.81 246.42L378.17 236.86"/>
<path d="M362.72 258.45L373.46 248.01M373.46 248.01L382.36 235.96"/>
<path d="M354.26 318.38L366.69 312.91M366.69 312.91L378.53 306.26"/>
<path d="M378.11 229.85L385.32 213.53M385.32 213.53L388.99 196.07M388.99 196.07L388.96 178.23M388.96 178.23L385.21 160.78M385.21 160.78L377.93 144.5M377.93 144.5L367.43 130.07M367.43 130.07L354.16 118.15M354.16 118.15L338.7 109.24M338.7 109.24L321.73 103.73M321.73 103.73L303.99 101.87M303.99 101.87L286.24 103.73M286.24 103.73L269.27 109.24M269.27 109.24L253.82 118.15M253.82 118.15L240.55 130.07M240.55 130.07L230.04 144.5M230.04 144.5L222.76 160.78M222.76 160.78L219.02 178.23M219.02 178.23L218.98 196.07M218.98 196.07L222.65 213.53M222.65 213.53L229.86 229.85"/>
<path d="M382.51 229.65L389.52 212.65M389.52 212.65L392.9 194.57M392.9 194.57L392.49 176.19M392.49 176.19L388.33 158.27M388.33 158.27L380.58 141.6M380.58 141.6L369.57 126.86M369.57 126.86L355.78 114.7M355.78 114.7L339.79 105.62M339.79 105.62L322.28 100.02M322.28 100.02L303.99 98.12M303.99 98.12L285.7 100.02M285.7 100.02L268.18 105.62M268.18 105.62L252.19 114.7M252.19 114.7L238.4 126.86M238.4 126.86L227.39 141.6M227.39 141.6L219.65 158.27M219.65 158.27L215.48 176.19M215.48 176.19L215.08 194.57M215.08 194.57L218.45 212.65M218.45 212.65L225.46 229.65"/>
<path d="M232.66 74.68L214.86 88.17M214.86 88.17L199.56 104.44M199.56 104.44L187.18 123.04M187.18 123.04L178.09 143.44M178.09 143.44L172.53 165.07M172.53 165.07L170.66 187.33M170.66 187.33L172.53 209.58M172.53 209.58L178.09 231.21M178.09 231.21L187.18 251.61M187.18 251.61L199.56 270.21M199.56 270.21L214.86 286.48M214.86 286.48L232.66 299.97"/>
<path d="M232.66 87.6L216.58 101.34M216.58 101.34L203.11 117.64M203.11 117.64L192.63 136.01M192.63 136.01L185.47 155.91M185.47 155.91L181.83 176.75M181.83 176.75L181.83 197.9M181.83 197.9L185.47 218.74M185.47 218.74L192.63 238.64M192.63 238.64L203.11 257.01M203.11 257.01L216.58 273.31M216.58 273.31L232.66 287.05"/>
<path d="M210.11 205.37L210.11 252.06"/>
<path d="M303.99 280.05L239.68 280.05"/>
<path d="M225.61 235.96L234.51 248.01M234.51 248.01L245.25 258.45"/>
<path d="M229.8 236.86L237.16 246.42M237.16 246.42L245.75 254.89"/>
<path d="M239.68 304.12L260.09 313.22M260.09 313.22L281.72 318.78M281.72 318.78L303.99 320.65M303.99 320.65L326.25 318.78M326.25 318.78L347.89 313.22M347.89 313.22L368.29 304.12"/>
<path d="M237.33 305.35L253.71 313.21"/>
<path d="M229.44 306.26L241.29 312.91M241.29 312.91L253.71 318.38"/>
<path d="M239.68 291.72L256.88 300.52M256.88 300.52L275.25 306.52M275.25 306.52L294.33 309.55M294.33 309.55L313.65 309.55M313.65 309.55L332.73 306.52M332.73 306.52L351.09 300.52M351.09 300.52L368.29 291.72"/>
<path d="M222.37 293.48L224.26 300.79M224.26 300.79L229.44 306.26"/>
<path d="M232.66 287.05L232.66 264.58"/>
<path d="M232.66 287.05L232.66 262.63"/>
<path d="M239.68 291.72L239.68 269.61"/>
<path d="M239.68 291.72L239.68 304.12"/>
<path d="M232.66 287.05L232.66 299.97"/>
<path d="M231.33 299.12L233.87 302.67M233.87 302.67L237.33 305.35"/>
<path d="M239.68 269.61L232.66 262.63"/>
<path d="M214.7 262.9L228.03 275.8"/>
<path d="M222.37 292.75L222.37 293.48"/>
<path d="M210.11 252.06L211.3 257.94M211.3 257.94L214.7 262.9"/>
<path d="M229.77 233.26L229.25 235.07M229.25 235.07L229.8 236.86"/>
<path d="M225.49 232.72L225.12 234.36M225.12 234.36L225.61 235.96"/>
<path d="M225.49 232.72L225.85 231.18M225.85 231.18L225.46 229.65"/>
<path d="M228.03 275.8L232.66 278.86"/>
<path d="M229.77 233.26L230.3 231.57M230.3 231.57L229.86 229.85"/>
<path d="M354.26 313.21L370.65 305.35"/>
<path d="M253.71 319.94L273.4 325.81M273.4 325.81L293.72 328.77M293.72 328.77L314.26 328.77M314.26 328.77L334.58 325.81M334.58 325.81L354.26 319.94"/>
<path d="M253.71 310.81L253.71 319.94"/>
<path d="M354.26 310.81L354.26 319.94"/>
<path d="M303.99 280.05L368.29 280.05"/>
<path d="M321.22 259.21L303.99 259.21"/>
<path d="M324.5 255.92L303.99 255.92"/>
<path d="M289.12 309.03L289.12 280.05"/>
<path d="M283.47 255.92L303.99 255.92"/>
<path d="M251.49 259.45L262.46 266.27M262.46 266.27L274.29 271.44M274.29 271.44L286.75 274.85"/>
<path d="M283.47 255.92L286.75 259.21"/>
<path d="M252.72 255.69L267.36 264.53M267.36 264.53L283.47 270.28"/>
<path d="M248.69 296.76L248.69 280.05"/>
<path d="M245.75 254.89L247.46 255.66M247.46 255.66L249.32 255.36"/>
<path d="M245.25 258.45L246.78 259.15M246.78 259.15L248.45 259.01"/>
<path d="M252.72 255.69L251.07 255.05M251.07 255.05L249.32 255.36"/>
<path d="M251.49 259.45L250.02 258.85M250.02 258.85L248.45 259.01"/>
<path d="M283.47 255.92L283.47 270.28"/>
<path d="M286.75 259.21L286.75 274.85"/>
<path d="M286.75 259.21L303.99 259.21"/>
<path d="M318.85 309.03L318.85 280.05"/>
<path d="M368.29 291.72L368.29 269.61"/>
<path d="M321.22 259.21L321.22 274.85"/>
<path d="M321.22 274.85L333.68 271.44M333.68 271.44L345.52 266.27M345.52 266.27L356.48 259.45"/>
<path d="M324.5 270.28L340.61 264.53M340.61 264.53L355.25 255.69"/>
<path d="M368.29 291.72L368.29 304.12"/>
<path d="M359.29 296.76L359.29 280.05"/>
<path d="M324.5 255.92L321.22 259.21"/>
<path d="M324.5 255.92L324.5 270.28"/>
<path d="M359.52 259.01L361.2 259.15M361.2 259.15L362.72 258.45"/>
<path d="M358.65 255.36L356.91 255.05M356.91 255.05L355.25 255.69"/>
<path d="M359.52 259.01L357.95 258.85M357.95 258.85L356.48 259.45"/>
<path d="M358.65 255.36L360.51 255.66M360.51 255.66L362.23 254.89"/>
<path d="M368.29 82.93L351.09 74.13M351.09 74.13L332.73 68.13M332.73 68.13L313.65 65.1M313.65 65.1L294.33 65.1M294.33 65.1L275.25 68.13M275.25 68.13L256.88 74.13M256.88 74.13L239.68 82.93"/>
<path d="M368.29 70.53L347.89 61.43M347.89 61.43L326.25 55.87M326.25 55.87L303.99 54M303.99 54L281.72 55.87M281.72 55.87L260.09 61.43M260.09 61.43L239.68 70.53"/>
<path d="M253.71 61.45L237.33 69.3"/>
<path d="M253.71 56.27L241.29 61.74M241.29 61.74L229.44 68.39"/>
<path d="M303.99 94.6L239.68 94.6"/>
<path d="M366.93 178.26L363.02 163.68M363.02 163.68L355.78 150.43M355.78 150.43L345.62 139.26M345.62 139.26L333.12 130.8M333.12 130.8L318.98 125.53M318.98 125.53L303.99 123.74M303.99 123.74L289 125.53M289 125.53L274.85 130.8M274.85 130.8L262.35 139.26M262.35 139.26L252.2 150.43M252.2 150.43L244.96 163.68M244.96 163.68L241.05 178.26"/>
<path d="M368.24 178.26L364.28 163.34M364.28 163.34L356.91 149.78M356.91 149.78L346.54 138.34M346.54 138.34L333.77 129.68M333.77 129.68L319.31 124.27M319.31 124.27L303.99 122.44M303.99 122.44L288.66 124.27M288.66 124.27L274.2 129.68M274.2 129.68L261.43 138.34M261.43 138.34L251.06 149.78M251.06 149.78L243.69 163.34M243.69 163.34L239.73 178.26"/>
<path d="M239.73 178.26L368.24 178.26"/>
<path d="M214.7 111.76L211.3 116.71M211.3 116.71L210.11 122.59"/>
<path d="M210.11 173.32L210.11 122.59"/>
<path d="M185.96 205.37L185.96 173.32"/>
<path d="M210.11 205.37L185.96 205.37"/>
<path d="M185.96 173.32L210.11 173.32"/>
<path d="M239.68 82.93L239.68 105.04"/>
<path d="M232.66 87.6L232.66 112.02"/>
<path d="M239.68 105.04L232.66 112.02"/>
<path d="M228.03 98.85L214.7 111.76"/>
<path d="M232.66 95.79L228.03 98.85"/>
<path d="M239.68 70.53L239.68 82.93"/>
<path d="M237.33 69.3L233.87 71.98M233.87 71.98L231.33 75.53"/>
<path d="M229.44 68.39L224.26 73.86M224.26 73.86L222.37 81.17"/>
<path d="M222.37 81.17L222.37 81.9"/>
<path d="M232.66 74.68L232.66 87.6"/>
<path d="M258.83 211.23L258.83 200.86"/>
<path d="M282.35 211.23L258.83 211.23"/>
<path d="M282.35 200.86L282.35 211.23"/>
<path d="M258.83 200.86L282.35 200.86"/>
<path d="M255.55 214.51L255.55 197.58"/>
<path d="M285.63 214.51L255.55 214.51"/>
<path d="M285.63 197.58L285.63 214.51"/>
<path d="M255.55 197.58L285.63 197.58"/>
<path d="M280.8 211.23L284.08 214.51"/>
<path d="M282.35 209.68L285.63 212.96"/>
<path d="M282.35 202.41L285.63 199.12"/>
<path d="M280.8 200.86L284.08 197.58"/>
<path d="M257.09 214.51L260.38 211.23"/>
<path d="M257.09 200.67L257.09 211.41"/>
<path d="M255.55 212.96L258.83 209.68"/>
<path d="M258.83 209.68L282.35 209.68"/>
<path d="M260.38 211.23L280.8 211.23"/>
<path d="M258.83 202.41L282.35 202.41"/>
<path d="M257.09 197.58L260.38 200.86"/>
<path d="M255.55 199.12L258.83 202.41"/>
<path d="M284.08 200.67L284.08 211.41"/>
<path d="M352.43 214.51L352.43 197.58"/>
<path d="M322.34 214.51L352.43 214.51"/>
<path d="M322.34 197.58L322.34 214.51"/>
<path d="M352.43 197.58L322.34 197.58"/>
<path d="M349.14 211.23L349.14 200.86"/>
<path d="M325.63 211.23L349.14 211.23"/>
<path d="M325.63 200.86L325.63 211.23"/>
<path d="M349.14 200.86L325.63 200.86"/>
<path d="M349.14 202.41L325.63 202.41"/>
<path d="M349.14 209.68L325.63 209.68"/>
<path d="M347.6 211.23L327.17 211.23"/>
<path d="M327.17 211.23L323.89 214.51"/>
<path d="M327.17 200.86L323.89 197.58"/>
<path d="M323.89 200.67L323.89 211.41"/>
<path d="M325.63 209.68L322.34 212.96"/>
<path d="M325.63 202.41L322.34 199.12"/>
<path d="M350.88 214.51L347.6 211.23"/>
<path d="M352.43 212.96L349.14 209.68"/>
<path d="M350.88 200.67L350.88 211.41"/>
<path d="M352.43 199.12L349.14 202.41"/>
<path d="M350.88 197.58L347.6 200.86"/>
<path d="M354.26 54.71L334.58 48.84M334.58 48.84L314.26 45.88M314.26 45.88L293.72 45.88M293.72 45.88L273.4 48.84M273.4 48.84L253.71 54.71"/>
<path d="M303.99 94.6L368.29 94.6"/>
<path d="M253.71 54.71L253.71 63.84"/>
<path d="M248.69 77.89L248.69 94.6"/>
<path d="M289.12 65.62L289.12 94.6"/>
<path d="M368.29 82.93L368.29 105.04"/>
<path d="M368.29 70.53L368.29 82.93"/>
<path d="M354.26 54.71L354.26 63.84"/>
<path d="M370.65 69.3L354.26 61.45"/>
<path d="M318.85 65.62L318.85 94.6"/>
<path d="M359.29 77.89L359.29 94.6"/>
<path d="M375.31 287.05L391.39 273.31M391.39 273.31L404.87 257.01M404.87 257.01L415.34 238.64M415.34 238.64L422.5 218.74M422.5 218.74L426.14 197.9M426.14 197.9L426.14 176.75M426.14 176.75L422.5 155.91M422.5 155.91L415.34 136.01M415.34 136.01L404.87 117.64M404.87 117.64L391.39 101.34M391.39 101.34L375.31 87.6"/>
<path d="M375.31 299.97L393.12 286.48M393.12 286.48L408.42 270.21M408.42 270.21L420.79 251.61M420.79 251.61L429.88 231.21M429.88 231.21L435.44 209.58M435.44 209.58L437.31 187.33M437.31 187.33L435.44 165.07M435.44 165.07L429.88 143.44M429.88 143.44L420.79 123.04M420.79 123.04L408.42 104.44M408.42 104.44L393.12 88.17M393.12 88.17L375.31 74.68"/>
<path d="M397.86 205.37L397.86 252.06"/>
<path d="M378.53 306.26L383.71 300.79M383.71 300.79L385.6 293.48"/>
<path d="M393.27 262.9L379.94 275.8"/>
<path d="M375.31 287.05L375.31 262.63"/>
<path d="M375.31 287.05L375.31 299.97"/>
<path d="M375.31 278.86L379.94 275.8"/>
<path d="M382.51 229.65L382.12 231.18M382.12 231.18L382.49 232.72"/>
<path d="M378.17 236.86L378.72 235.07M378.72 235.07L378.2 233.26"/>
<path d="M378.11 229.85L377.68 231.57M377.68 231.57L378.2 233.26"/>
<path d="M382.36 235.96L382.86 234.36M382.86 234.36L382.49 232.72"/>
<path d="M393.27 262.9L396.67 257.94M396.67 257.94L397.86 252.06"/>
<path d="M397.86 122.59L396.67 116.71M396.67 116.71L393.27 111.76"/>
<path d="M397.86 173.32L397.86 122.59"/>
<path d="M422.02 173.32L397.86 173.32"/>
<path d="M397.86 205.37L422.02 205.37"/>
<path d="M422.02 173.32L422.02 205.37"/>
<path d="M375.31 87.6L375.31 112.02"/>
<path d="M379.94 98.85L375.31 95.79"/>
<path d="M379.94 98.85L393.27 111.76"/>
<path d="M385.6 81.17L383.71 73.86M383.71 73.86L378.53 68.39"/>
<path d="M375.31 74.68L375.31 87.6"/>
</g>
</g>
</svg>
