<?xml version="1.0" standalone="no"?><svg xmlns="http://www.w3.org/2000/svg" width="600.000" height="450.000" viewBox="0.0 0.0 600.000 450.000" version="1.1">
<title>Acme Converter - Post-processed with EDS-Designer: 14.44 (info@symca.com)</title>
<desc>Acme Converter - Post-processed with EDS-Designer: 14.44 (info@symca.com)</desc>
<g id="EDS_STYLE_GROUP" fill="none" stroke="black" stroke-width="1.0">
<g id="0" display="visible">
<path d="M55.44 132.49L543.68 132.49"/>
<path d="M543.68 132.49L543.68 240.42"/>
<path d="M517.99 266.12L440.9 266.12"/>
<path d="M55.44 132.49L55.44 240.42"/>
<path d="M81.14 266.12L286.71 266.12"/>
<path d="M286.71 286.67L286.71 225"/>
<path d="M296.99 276.39L296.99 225"/>
<path d="M296.99 276.39L298.37 281.53M298.37 281.53L302.13 285.3M302.13 285.3L307.27 286.67"/>
<path d="M440.9 266.12L440.9 225"/>
<path d="M440.9 225L286.71 225"/>
<path d="M81.14 266.12L81.14 250.7"/>
<path d="M517.99 266.12L517.99 250.7"/>
<path d="M517.99 225L533.4 225"/>
<path d="M517.99 189.03L517.99 225"/>
<path d="M533.4 225L533.4 189.03"/>
<path d="M533.4 189.03L517.99 189.03"/>
<path d="M476.87 235.32L476.87 255.84"/>
<path d="M476.87 255.84L502.57 255.84"/>
<path d="M502.57 255.84L502.57 235.32"/>
<path d="M502.57 240.42L476.87 240.42"/>
<path d="M476.87 142.77L476.87 163.33"/>
<path d="M476.87 158.19L502.57 158.19"/>
<path d="M502.57 163.33L502.57 142.77"/>
<path d="M502.57 142.77L476.87 142.77"/>
<path d="M512.85 163.33L466.59 163.33"/>
<path d="M512.85 235.28L466.59 235.28"/>
<path d="M466.59 235.28L466.59 209.58"/>
<path d="M466.59 209.58L512.85 209.58"/>
<path d="M512.85 209.58L512.85 235.28"/>
<path d="M466.59 163.33L466.59 189.03"/>
<path d="M466.59 189.03L512.85 189.03"/>
<path d="M512.85 189.03L512.85 163.33"/>
<path d="M471.73 168.47L471.73 183.89"/>
<path d="M471.73 183.89L507.71 183.89"/>
<path d="M507.71 183.89L507.71 168.47"/>
<path d="M507.71 168.47L502.57 168.47"/>
<path d="M502.57 168.47L502.57 173.61"/>
<path d="M502.57 173.61L497.43 173.61"/>
<path d="M497.43 173.61L497.43 178.75"/>
<path d="M471.73 168.47L476.87 168.47"/>
<path d="M476.87 168.47L476.87 173.61"/>
<path d="M476.87 173.61L482.01 173.61"/>
<path d="M482.01 173.61L482.01 178.75"/>
<path d="M482.01 178.75L497.43 178.75"/>
<path d="M471.73 230.14L471.73 214.72"/>
<path d="M471.73 214.72L507.71 214.72"/>
<path d="M507.71 214.72L507.71 230.14"/>
<path d="M507.71 230.14L502.57 230.14"/>
<path d="M502.57 230.14L502.57 225"/>
<path d="M502.57 225L497.43 225"/>
<path d="M497.43 225L497.43 219.86"/>
<path d="M471.73 230.14L476.87 230.14"/>
<path d="M476.87 230.14L476.87 225"/>
<path d="M476.87 225L482.01 225"/>
<path d="M482.01 225L482.01 219.86"/>
<path d="M482.01 219.86L497.43 219.86"/>
<path d="M250.74 168.36L446.03 168.46"/>
<path d="M276.44 209.58L276.44 189.03"/>
<path d="M276.44 189.03L250.74 189.03"/>
<path d="M250.74 189.03L250.74 168.36"/>
<path d="M255.88 173.61L255.88 183.89"/>
<path d="M255.88 183.89L281.57 183.89"/>
<path d="M281.57 183.89L281.57 204.44"/>
<path d="M446.03 168.47L446.03 209.58"/>
<path d="M446.03 209.58L276.44 209.58"/>
<path d="M281.57 204.44L291.85 204.44"/>
<path d="M291.85 204.44L291.85 199.3"/>
<path d="M291.85 199.3L302.13 199.3"/>
<path d="M302.13 199.3L302.13 204.44"/>
<path d="M302.13 204.44L317.55 204.44"/>
<path d="M317.55 204.44L317.55 199.3"/>
<path d="M317.55 199.3L327.83 199.3"/>
<path d="M327.83 199.3L327.83 204.44"/>
<path d="M327.83 204.44L343.25 204.44"/>
<path d="M343.25 204.44L343.25 199.3"/>
<path d="M343.25 199.3L353.53 199.3"/>
<path d="M353.53 199.3L353.53 204.44"/>
<path d="M353.53 204.44L368.94 204.44"/>
<path d="M368.94 204.44L368.94 199.3"/>
<path d="M368.94 199.3L379.22 199.3"/>
<path d="M379.22 199.3L379.22 204.44"/>
<path d="M379.22 204.44L394.64 204.44"/>
<path d="M394.64 204.44L394.64 199.3"/>
<path d="M394.64 199.3L404.92 199.3"/>
<path d="M404.92 199.3L404.92 204.44"/>
<path d="M404.92 204.44L420.34 204.44"/>
<path d="M420.34 204.44L420.34 199.3"/>
<path d="M420.34 199.3L430.62 199.3"/>
<path d="M430.62 199.3L430.62 204.44"/>
<path d="M430.62 204.44L440.9 204.44"/>
<path d="M440.9 204.44L440.9 173.61"/>
<path d="M440.9 173.61L430.62 173.61"/>
<path d="M430.62 173.61L430.62 178.75"/>
<path d="M430.62 178.75L420.34 178.75"/>
<path d="M420.34 178.75L420.34 173.61"/>
<path d="M420.34 173.61L404.92 173.61"/>
<path d="M404.92 173.61L404.92 178.75"/>
<path d="M404.92 178.75L394.64 178.75"/>
<path d="M394.64 178.75L394.64 173.61"/>
<path d="M394.64 173.61L379.22 173.61"/>
<path d="M379.22 173.61L379.22 178.75"/>
<path d="M379.22 178.75L368.94 178.75"/>
<path d="M368.94 178.75L368.94 173.61"/>
<path d="M368.94 173.61L353.53 173.61"/>
<path d="M353.53 173.61L353.53 178.75"/>
<path d="M353.53 178.75L343.25 178.75"/>
<path d="M343.25 178.75L343.25 173.61"/>
<path d="M343.25 173.61L327.83 173.61"/>
<path d="M327.83 173.61L327.83 178.75"/>
<path d="M327.83 178.75L317.55 178.75"/>
<path d="M317.55 178.75L317.55 173.61"/>
<path d="M317.55 173.61L302.13 173.61"/>
<path d="M302.13 173.61L302.13 178.75"/>
<path d="M302.13 178.75L291.85 178.75"/>
<path d="M291.85 178.75L291.85 173.61"/>
<path d="M291.85 173.61L276.44 173.61"/>
<path d="M276.44 173.61L276.44 178.75"/>
<path d="M276.44 178.75L266.16 178.75"/>
<path d="M266.16 178.75L266.16 173.61"/>
<path d="M266.16 173.61L255.88 173.61"/>
<path d="M65.72 214.72L65.72 225"/>
<path d="M65.72 225L81.14 225"/>
<path d="M81.14 225L81.14 214.72"/>
<path d="M81.14 214.72L65.72 214.72"/>
<path d="M65.72 189.03L65.72 204.44"/>
<path d="M65.72 204.44L81.14 204.44"/>
<path d="M81.14 204.44L81.14 189.03"/>
<path d="M81.14 189.03L65.72 189.03"/>
<path d="M91.42 209.58L255.88 209.58"/>
<path d="M255.88 209.58L255.88 240.42"/>
<path d="M255.88 240.42L91.42 240.42"/>
<path d="M91.42 240.42L91.42 209.58"/>
<path d="M91.42 240.42L91.42 255.84"/>
<path d="M91.42 255.84L106.84 255.84"/>
<path d="M106.84 255.84L106.84 240.42"/>
<path d="M106.84 245.56L91.42 245.56"/>
<path d="M127.39 240.42L127.39 255.84"/>
<path d="M127.39 255.84L142.81 255.84"/>
<path d="M142.81 255.84L142.81 240.42"/>
<path d="M142.81 245.56L127.39 245.56"/>
<path d="M163.37 240.42L163.37 255.84"/>
<path d="M163.37 255.84L178.79 255.84"/>
<path d="M178.79 255.84L178.79 240.42"/>
<path d="M178.79 245.56L163.37 245.56"/>
<path d="M199.34 240.42L199.34 255.84"/>
<path d="M199.34 255.84L214.76 255.84"/>
<path d="M214.76 255.84L214.76 240.42"/>
<path d="M214.76 245.56L199.34 245.56"/>
<path d="M235.32 240.42L235.32 255.84"/>
<path d="M235.32 255.84L250.74 255.84"/>
<path d="M250.74 255.84L250.74 240.42"/>
<path d="M250.74 245.56L235.32 245.56"/>
<path d="M96.56 235.28L96.56 214.72"/>
<path d="M96.56 214.72L250.74 214.72"/>
<path d="M250.74 214.72L250.74 235.28"/>
<path d="M250.74 235.28L245.6 235.28"/>
<path d="M245.6 235.28L245.6 230.14"/>
<path d="M245.6 230.14L240.46 230.14"/>
<path d="M240.46 230.14L240.46 225"/>
<path d="M240.46 225L235.32 225"/>
<path d="M235.32 225L230.18 225"/>
<path d="M230.18 225L230.18 230.14"/>
<path d="M230.18 230.14L225.04 230.14"/>
<path d="M225.04 230.14L225.04 235.28"/>
<path d="M225.04 235.28L214.76 235.28"/>
<path d="M214.76 235.28L214.76 230.14"/>
<path d="M214.76 230.14L209.62 230.14"/>
<path d="M209.62 230.14L209.62 225"/>
<path d="M209.62 225L199.34 225"/>
<path d="M199.34 225L199.34 230.14"/>
<path d="M199.34 230.14L194.21 230.14"/>
<path d="M194.21 230.14L194.21 235.28"/>
<path d="M194.21 235.28L183.93 235.28"/>
<path d="M183.93 235.28L183.93 230.14"/>
<path d="M183.93 230.14L178.79 230.14"/>
<path d="M178.79 230.14L178.79 225"/>
<path d="M178.79 225L168.51 225"/>
<path d="M168.51 225L168.51 230.14"/>
<path d="M168.51 230.14L163.37 230.14"/>
<path d="M163.37 230.14L163.37 235.28"/>
<path d="M163.37 235.28L153.09 235.28"/>
<path d="M153.09 235.28L153.09 230.14"/>
<path d="M153.09 230.14L147.95 230.14"/>
<path d="M147.95 230.14L147.95 225"/>
<path d="M147.95 225L137.67 225"/>
<path d="M137.67 225L137.67 230.14"/>
<path d="M137.67 230.14L132.53 230.14"/>
<path d="M132.53 230.14L132.53 235.28"/>
<path d="M132.53 235.28L122.25 235.28"/>
<path d="M122.25 235.28L122.25 230.14"/>
<path d="M122.25 230.14L117.11 230.14"/>
<path d="M117.11 230.14L117.11 225"/>
<path d="M117.11 225L106.84 225"/>
<path d="M106.84 225L106.84 230.14"/>
<path d="M106.84 230.14L101.7 230.14"/>
<path d="M101.7 230.14L101.7 235.28"/>
<path d="M101.7 235.28L96.56 235.28"/>
<path d="M91.42 142.77L91.42 158.19"/>
<path d="M91.42 153.05L111.98 153.05"/>
<path d="M111.98 158.19L111.98 142.77"/>
<path d="M111.98 142.77L91.42 142.77"/>
<path d="M132.53 158.19L132.53 142.77"/>
<path d="M132.53 142.77L147.95 142.77"/>
<path d="M147.95 142.77L147.95 158.19"/>
<path d="M147.95 153.05L132.53 153.05"/>
<path d="M168.51 142.77L168.51 158.19"/>
<path d="M168.51 153.05L183.93 153.05"/>
<path d="M183.93 158.19L183.93 142.77"/>
<path d="M183.93 142.77L168.51 142.77"/>
<path d="M204.48 142.77L204.48 158.19"/>
<path d="M204.48 153.05L219.9 153.05"/>
<path d="M219.9 158.19L219.9 142.77"/>
<path d="M219.9 142.77L204.48 142.77"/>
<path d="M81.14 158.19L230.18 158.19"/>
<path d="M230.18 158.19L230.18 189.03"/>
<path d="M230.18 189.03L86.28 189.03"/>
<path d="M86.28 189.03L81.14 183.89"/>
<path d="M81.14 183.89L81.14 158.19"/>
<path d="M86.28 163.33L86.28 178.75"/>
<path d="M86.28 178.75L91.42 183.89"/>
<path d="M91.42 183.89L225.04 183.89"/>
<path d="M225.04 183.89L225.04 163.33"/>
<path d="M225.04 163.33L219.9 163.33"/>
<path d="M219.9 163.33L219.9 168.47"/>
<path d="M219.9 168.47L214.76 168.47"/>
<path d="M214.76 168.47L214.76 173.61"/>
<path d="M214.76 173.61L204.48 173.61"/>
<path d="M204.48 173.61L204.48 168.47"/>
<path d="M204.48 168.47L199.34 168.47"/>
<path d="M199.34 168.47L199.34 163.33"/>
<path d="M199.34 163.33L189.07 163.33"/>
<path d="M189.07 163.33L189.07 168.47"/>
<path d="M189.07 168.47L183.93 168.47"/>
<path d="M183.93 168.47L183.93 173.61"/>
<path d="M183.93 173.61L173.65 173.61"/>
<path d="M173.65 173.61L173.65 168.47"/>
<path d="M173.65 168.47L168.51 168.47"/>
<path d="M168.51 168.47L168.51 163.33"/>
<path d="M168.51 163.33L153.09 163.33"/>
<path d="M153.09 163.33L153.09 168.47"/>
<path d="M153.09 168.47L147.95 168.47"/>
<path d="M147.95 168.47L147.95 173.61"/>
<path d="M147.95 173.61L137.67 173.61"/>
<path d="M137.67 173.61L137.67 168.47"/>
<path d="M137.67 168.47L132.53 168.47"/>
<path d="M132.53 168.47L132.53 163.33"/>
<path d="M132.53 163.33L117.11 163.33"/>
<path d="M117.11 163.33L117.11 168.47"/>
<path d="M117.11 168.47L106.84 168.47"/>
<path d="M106.84 168.47L106.84 173.61"/>
<path d="M106.84 173.61L101.7 173.61"/>
<path d="M101.7 173.61L101.7 168.47"/>
<path d="M101.7 168.47L91.42 168.47"/>
<path d="M91.42 168.47L91.42 163.33"/>
<path d="M91.42 163.33L86.28 163.33"/>
<path d="M50.3 127.35L50.3 245.56"/>
<path d="M50.3 245.56L65.72 245.56"/>
<path d="M65.72 245.56L76 255.84"/>
<path d="M76 255.84L76 271.26"/>
<path d="M76 271.26L322.69 271.26"/>
<path d="M322.69 276.39L322.69 250.7"/>
<path d="M322.69 250.7L353.53 250.7"/>
<path d="M353.53 250.7L353.53 276.39"/>
<path d="M322.69 255.84L353.53 255.84"/>
<path d="M55.44 240.42L70.86 240.42"/>
<path d="M70.86 240.42L81.14 250.7"/>
<path d="M353.53 271.26L399.78 271.26"/>
<path d="M399.78 271.26L399.78 240.42"/>
<path d="M399.78 240.42L420.34 240.42"/>
<path d="M420.34 240.42L420.34 271.26"/>
<path d="M420.34 271.26L523.13 271.26"/>
<path d="M523.13 276.39L523.13 255.84"/>
<path d="M523.13 255.84L533.4 245.56"/>
<path d="M533.4 245.56L553.96 245.56"/>
<path d="M517.99 250.7L528.26 240.42"/>
<path d="M528.26 240.42L543.68 240.42"/>
<path d="M548.82 245.56L548.82 127.35"/>
<path d="M374.08 225L374.08 286.67"/>
<path d="M363.8 225L363.8 276.39"/>
<path d="M379.22 225L379.22 271.26"/>
<path d="M45.16 122.21L45.16 276.39"/>
<path d="M45.16 276.39L286.71 276.39"/>
<path d="M296.99 296.95L363.8 296.95"/>
<path d="M307.27 286.67L353.53 286.67"/>
<path d="M353.53 286.67L358.67 285.3M358.67 285.3L362.43 281.53M362.43 281.53L363.8 276.39"/>
<path d="M363.8 296.95L368.94 295.58M368.94 295.58L372.71 291.81M372.71 291.81L374.08 286.67"/>
<path d="M286.71 286.67L288.09 291.81M288.09 291.81L291.85 295.58M291.85 295.58L296.99 296.95"/>
<path d="M553.96 245.56L553.96 122.21"/>
<path d="M567.56 225.64L569.52 224.67M569.52 224.67L572.45 221.73M572.45 221.73L572.45 242.29"/>
<path d="M569.43 172.59L571.39 171.61M571.39 171.61L574.33 168.67M574.33 168.67L574.33 189.23M587.05 168.67L597.82 168.67M597.82 168.67L591.95 176.5M591.95 176.5L594.88 176.5M594.88 176.5L596.84 177.48M596.84 177.48L597.82 178.46M597.82 178.46L598.8 181.4M598.8 181.4L598.8 183.35M598.8 183.35L597.82 186.29M597.82 186.29L595.86 188.25M595.86 188.25L592.93 189.23M592.93 189.23L589.99 189.23M589.99 189.23L587.05 188.25M587.05 188.25L586.07 187.27M586.07 187.27L585.1 185.31"/>
<path d="M1.81 223.15L3.77 222.17M3.77 222.17L6.7 219.23M6.7 219.23L6.7 239.79M18.45 224.13L18.45 223.15M18.45 223.15L19.43 221.19M19.43 221.19L20.41 220.21M20.41 220.21L22.37 219.23M22.37 219.23L26.28 219.23M26.28 219.23L28.24 220.21M28.24 220.21L29.22 221.19M29.22 221.19L30.2 223.15M30.2 223.15L30.2 225.11M30.2 225.11L29.22 227.06M29.22 227.06L27.26 230M27.26 230L17.47 239.79M17.47 239.79L31.18 239.79"/>
<path d="M2.16 173.57L2.16 172.59M2.16 172.59L3.14 170.63M3.14 170.63L4.12 169.65M4.12 169.65L6.08 168.67M6.08 168.67L9.99 168.67M9.99 168.67L11.95 169.65M11.95 169.65L12.93 170.63M12.93 170.63L13.91 172.59M13.91 172.59L13.91 174.54M13.91 174.54L12.93 176.5M12.93 176.5L10.97 179.44M10.97 179.44L1.18 189.23M1.18 189.23L14.89 189.23M30.55 168.67L20.76 182.38M20.76 182.38L35.45 182.38M30.55 168.67L30.55 189.23"/>
<path d="M240.46 348.35L240.46 317.51M240.46 317.51L253.68 317.51M253.68 317.51L258.08 318.98M258.08 318.98L259.55 320.45M259.55 320.45L261.02 323.38M261.02 323.38L261.02 326.32M261.02 326.32L259.55 329.26M259.55 329.26L258.08 330.73M258.08 330.73L253.68 332.19M240.46 332.19L253.68 332.19M253.68 332.19L258.08 333.66M258.08 333.66L259.55 335.13M259.55 335.13L261.02 338.07M261.02 338.07L261.02 342.47M261.02 342.47L259.55 345.41M259.55 345.41L258.08 346.88M258.08 346.88L253.68 348.35M253.68 348.35L240.46 348.35M271.3 317.51L271.3 348.35M271.3 348.35L288.92 348.35M296.26 348.35L308.01 317.51M308.01 317.51L319.75 348.35M300.66 338.07L315.35 338.07M350.59 324.85L349.12 321.91M349.12 321.91L346.18 318.98M346.18 318.98L343.25 317.51M343.25 317.51L337.37 317.51M337.37 317.51L334.44 318.98M334.44 318.98L331.5 321.91M331.5 321.91L330.03 324.85M330.03 324.85L328.56 329.26M328.56 329.26L328.56 336.6M328.56 336.6L330.03 341M330.03 341L331.5 343.94M331.5 343.94L334.44 346.88M334.44 346.88L337.37 348.35M337.37 348.35L343.25 348.35M343.25 348.35L346.18 346.88M346.18 346.88L349.12 343.94M349.12 343.94L350.59 341M359.4 348.35L359.4 317.51M379.96 317.51L359.4 338.07M366.74 330.73L379.96 348.35"/>
<path d="M135.1 122.21L135.1 106.8"/>
<path d="M104.27 122.21L104.27 101.66"/>
<path d="M83.71 122.21L83.71 101.66"/>
<path d="M155.66 122.21L155.66 106.8"/>
<path d="M186.5 122.21L186.5 101.66"/>
<path d="M207.05 122.21L207.05 101.66"/>
<path d="M155.66 106.8L135.1 106.8"/>
<path d="M207.05 101.66L186.5 101.66"/>
<path d="M207.05 106.8L186.5 106.8"/>
<path d="M104.27 101.66L83.71 101.66"/>
<path d="M104.27 106.8L83.71 106.8"/>
<path d="M361.24 122.21L237.89 122.21"/>
<path d="M237.89 122.21L45.16 122.21"/>
<path d="M553.96 122.21L361.24 122.21"/>
<path d="M374.08 276.39L523.13 276.39"/>
<path d="M322.69 276.39L353.53 276.39"/>
<path d="M548.82 127.35L50.3 127.35"/>
<path d="M464.02 122.21L464.02 106.8"/>
<path d="M494.86 122.21L494.86 101.66"/>
<path d="M515.42 122.21L515.42 101.66"/>
<path d="M443.47 122.21L443.47 106.8"/>
<path d="M412.63 122.21L412.63 101.66"/>
<path d="M392.07 122.21L392.07 101.66"/>
<path d="M443.47 106.8L464.02 106.8"/>
<path d="M392.07 101.66L412.63 101.66"/>
<path d="M392.07 106.8L412.63 106.8"/>
<path d="M494.86 101.66L515.42 101.66"/>
<path d="M494.86 106.8L515.42 106.8"/>
<path d="M135.12 276.37L135.13 291.79"/>
<path d="M104.29 276.38L104.29 296.94"/>
<path d="M83.73 276.38L83.74 296.94"/>
<path d="M155.68 276.36L155.69 291.78"/>
<path d="M186.52 276.35L186.52 296.91"/>
<path d="M207.08 276.35L207.08 296.91"/>
<path d="M155.69 291.78L135.13 291.79"/>
<path d="M207.08 296.91L186.52 296.91"/>
<path d="M207.08 291.77L186.52 291.77"/>
<path d="M104.29 296.94L83.74 296.94"/>
<path d="M104.29 291.8L83.73 291.8"/>
<path d="M464.04 276.28L464.05 291.7"/>
<path d="M494.88 276.27L494.89 296.83"/>
<path d="M515.44 276.26L515.44 296.82"/>
<path d="M443.49 276.28L443.49 291.7"/>
<path d="M412.65 276.29L412.66 296.85"/>
<path d="M392.09 276.3L392.1 296.85"/>
<path d="M443.49 291.7L464.05 291.7"/>
<path d="M392.1 296.85L412.66 296.85"/>
<path d="M392.1 291.72L412.65 291.71"/>
<path d="M494.89 296.83L515.44 296.82"/>
<path d="M494.88 291.69L515.44 291.68"/>
</g>
</g>
</svg>
