<?xml version="1.0" standalone="no"?><svg xmlns="http://www.w3.org/2000/svg" width="600.000" height="450.000" viewBox="0.0 0.0 600.000 450.000" version="1.1">
<title>Acme Converter - Post-processed with EDS-Designer: 14.44 (info@symca.com)</title>
<desc>Acme Converter - Post-processed with EDS-Designer: 14.44 (info@symca.com)</desc>
<g id="EDS_STYLE_GROUP" fill="none" stroke="black" stroke-width="1.0">
<g id="0" display="visible">
<path d="M218.99 416.48L218.99 383.04M220.58 383.04L220.58 416.48M214.21 383.04L233.32 383.04M233.32 383.04L238.1 384.63M238.1 384.63L239.69 386.22M239.69 386.22L241.28 389.41M241.28 389.41L241.28 392.59M241.28 392.59L239.69 395.78M239.69 395.78L238.1 397.37M238.1 397.37L233.32 398.96M233.32 383.04L236.51 384.63M236.51 384.63L238.1 386.22M238.1 386.22L239.69 389.41M239.69 389.41L239.69 392.59M239.69 392.59L238.1 395.78M238.1 395.78L236.51 397.37M236.51 397.37L233.32 398.96M220.58 398.96L233.32 398.96M233.32 398.96L238.1 400.55M238.1 400.55L239.69 402.15M239.69 402.15L241.28 405.33M241.28 405.33L241.28 410.11M241.28 410.11L239.69 413.29M239.69 413.29L238.1 414.89M238.1 414.89L233.32 416.48M233.32 416.48L214.21 416.48M233.32 398.96L236.51 400.55M236.51 400.55L238.1 402.15M238.1 402.15L239.69 405.33M239.69 405.33L239.69 410.11M239.69 410.11L238.1 413.29M238.1 413.29L236.51 414.89M236.51 414.89L233.32 416.48M254.02 416.48L254.02 383.04M255.62 383.04L255.62 416.48M249.25 383.04L260.39 383.04M249.25 416.48L273.14 416.48M273.14 416.48L273.14 406.92M273.14 406.92L271.54 416.48M292.25 383.04L281.1 416.48M292.25 383.04L303.4 416.48M292.25 387.81L301.8 416.48M284.28 406.92L298.62 406.92M277.91 416.48L287.47 416.48M297.02 416.48L306.58 416.48M333.65 387.81L335.25 392.59M335.25 392.59L335.25 383.04M335.25 383.04L333.65 387.81M333.65 387.81L330.47 384.63M330.47 384.63L325.69 383.04M325.69 383.04L322.51 383.04M322.51 383.04L317.73 384.63M317.73 384.63L314.54 387.81M314.54 387.81L312.95 391M312.95 391L311.36 395.78M311.36 395.78L311.36 403.74M311.36 403.74L312.95 408.52M312.95 408.52L314.54 411.7M314.54 411.7L317.73 414.89M317.73 414.89L322.51 416.48M322.51 416.48L325.69 416.48M325.69 416.48L330.47 414.89M330.47 414.89L333.65 411.7M333.65 411.7L335.25 408.52M322.51 383.04L319.32 384.63M319.32 384.63L316.14 387.81M316.14 387.81L314.54 391M314.54 391L312.95 395.78M312.95 395.78L312.95 403.74M312.95 403.74L314.54 408.52M314.54 408.52L316.14 411.7M316.14 411.7L319.32 414.89M319.32 414.89L322.51 416.48M349.58 416.48L349.58 383.04M351.17 383.04L351.17 416.48M371.88 383.04L351.17 403.74M359.14 397.37L371.88 416.48M357.54 397.37L370.28 416.48M344.8 383.04L355.95 383.04M365.51 383.04L375.06 383.04M344.8 416.48L355.95 416.48M365.51 416.48L375.06 416.48"/>
<path d="M61.58 35.8L61.58 78.69"/>
<path d="M61.58 304.44L61.58 347.33"/>
<path d="M63.83 33.54L63.83 80.95"/>
<path d="M63.83 302.18L63.83 349.59"/>
<path d="M99.2 302.18L99.2 80.95"/>
<path d="M101.46 304.44L101.46 78.69"/>
<path d="M108.98 132.12L108.98 251.01"/>
<path d="M170.31 50.09L174.08 46.33"/>
<path d="M170.31 333.04L174.08 336.8"/>
<path d="M116.51 131.36L116.51 251.76"/>
<path d="M117.41 131.36L117.41 251.76"/>
<path d="M117.71 286.38L117.71 284.12"/>
<path d="M123.49 131.36L123.49 251.76"/>
<path d="M124.03 252.52L124.03 130.61"/>
<path d="M129.3 210.38L129.3 252.52"/>
<path d="M129.3 172.75L129.3 130.61"/>
<path d="M134.95 336.8L134.95 303.25"/>
<path d="M134.95 79.88L134.95 46.33"/>
<path d="M135.32 210.38L135.32 172.75"/>
<path d="M138.71 333.04L138.71 302.93"/>
<path d="M138.71 80.2L138.71 50.09"/>
<path d="M525.12 349.59L63.83 349.59"/>
<path d="M61.58 347.33L527.38 347.33"/>
<path d="M153.57 250.07L153.57 236.15"/>
<path d="M153.57 227.5L153.57 213.58"/>
<path d="M153.57 169.55L153.57 155.63"/>
<path d="M153.57 146.98L153.57 133.06"/>
<path d="M154.28 121.21L154.28 128.17"/>
<path d="M154.28 201.72L154.28 208.68"/>
<path d="M155.45 129.29L155.45 132.68"/>
<path d="M155.45 174.45L155.45 181.41"/>
<path d="M155.45 209.81L155.45 213.2"/>
<path d="M155.45 254.96L155.45 261.92"/>
<path d="M157.33 246.31L157.33 239.91"/>
<path d="M157.33 223.73L157.33 217.34"/>
<path d="M157.33 165.79L157.33 159.4"/>
<path d="M157.33 143.22L157.33 136.82"/>
<path d="M159.44 169.93L159.44 174.45"/>
<path d="M159.44 250.45L159.44 254.96"/>
<path d="M157.33 143.22L153.57 146.98"/>
<path d="M454.01 336.8L414.88 336.8"/>
<path d="M314.04 336.8L274.91 336.8"/>
<path d="M174.08 336.8L134.95 336.8"/>
<path d="M450.24 333.04L418.64 333.04"/>
<path d="M310.28 333.04L278.67 333.04"/>
<path d="M170.31 333.04L138.71 333.04"/>
<path d="M418.64 330.78L450.24 330.78"/>
<path d="M435.91 321L425.37 321"/>
<path d="M157.33 239.91L153.57 236.15"/>
<path d="M166.14 213.2L166.14 208.68"/>
<path d="M166.14 132.68L166.14 128.17"/>
<path d="M166.93 296.11L166.93 302.18"/>
<path d="M166.93 87.02L166.93 80.95"/>
<path d="M167.68 86.97L167.68 92.23"/>
<path d="M167.68 290.9L167.68 296.16"/>
<path d="M168.24 136.82L168.24 143.22"/>
<path d="M168.24 159.4L168.24 165.79"/>
<path d="M168.24 217.34L168.24 223.73"/>
<path d="M168.24 239.91L168.24 246.31"/>
<path d="M170.12 253.83L170.12 250.45"/>
<path d="M170.12 208.68L170.12 201.72"/>
<path d="M170.12 173.32L170.12 169.93"/>
<path d="M170.12 128.17L170.12 121.21"/>
<path d="M170.31 50.09L170.31 71.92"/>
<path d="M170.31 311.21L170.31 333.04"/>
<path d="M171.29 261.92L171.29 254.96"/>
<path d="M171.29 181.41L171.29 174.45"/>
<path d="M172.01 133.06L172.01 146.98"/>
<path d="M172.01 155.63L172.01 169.55"/>
<path d="M172.01 213.58L172.01 227.5"/>
<path d="M172.01 236.15L172.01 250.07"/>
<path d="M172.38 250.07L172.38 236.15"/>
<path d="M172.38 227.5L172.38 213.58"/>
<path d="M172.38 169.55L172.38 155.63"/>
<path d="M172.38 146.98L172.38 133.06"/>
<path d="M173.1 121.21L173.1 128.17"/>
<path d="M173.1 201.72L173.1 208.68"/>
<path d="M174.08 46.33L174.08 69.66"/>
<path d="M174.08 313.47L174.08 336.8"/>
<path d="M174.26 129.29L174.26 132.68"/>
<path d="M174.26 174.45L174.26 181.41"/>
<path d="M174.26 209.81L174.26 213.2"/>
<path d="M174.26 254.96L174.26 261.92"/>
<path d="M176.14 246.31L176.14 239.91"/>
<path d="M176.14 223.73L176.14 217.34"/>
<path d="M176.14 165.79L176.14 159.4"/>
<path d="M176.14 143.22L176.14 136.82"/>
<path d="M178.25 169.93L178.25 174.45"/>
<path d="M178.25 250.45L178.25 254.96"/>
<path d="M168.24 136.82L172.01 133.06"/>
<path d="M176.14 143.22L172.38 146.98"/>
<path d="M157.33 165.79L153.57 169.55"/>
<path d="M187.06 136.82L190.82 133.06"/>
<path d="M168.24 159.4L172.01 155.63"/>
<path d="M310.28 318.74L278.67 318.74"/>
<path d="M170.31 318.74L138.71 318.74"/>
<path d="M448.36 318.74L450.24 318.74"/>
<path d="M506.31 313.47L454.01 313.47"/>
<path d="M414.88 313.47L314.04 313.47"/>
<path d="M274.91 313.47L174.08 313.47"/>
<path d="M138.71 311.97L170.31 311.97"/>
<path d="M278.67 311.97L310.28 311.97"/>
<path d="M418.64 311.97L450.24 311.97"/>
<path d="M170.31 311.21L278.67 311.21"/>
<path d="M310.28 311.21L418.64 311.21"/>
<path d="M450.24 311.21L506.31 311.21"/>
<path d="M61.58 304.44L101.46 304.44"/>
<path d="M63.83 302.18L99.2 302.18"/>
<path d="M166.93 302.18L470.94 302.18"/>
<path d="M168.24 246.31L172.01 250.07"/>
<path d="M176.14 239.91L172.38 236.15"/>
<path d="M157.33 217.34L153.57 213.58"/>
<path d="M187.06 246.31L190.82 250.07"/>
<path d="M168.24 223.73L172.01 227.5"/>
<path d="M184.95 213.2L184.95 208.68"/>
<path d="M184.95 132.68L184.95 128.17"/>
<path d="M187.06 136.82L187.06 143.22"/>
<path d="M187.06 159.4L187.06 165.79"/>
<path d="M187.06 217.34L187.06 223.73"/>
<path d="M187.06 239.91L187.06 246.31"/>
<path d="M188.94 253.83L188.94 250.45"/>
<path d="M188.94 208.68L188.94 201.72"/>
<path d="M188.94 173.32L188.94 169.93"/>
<path d="M188.94 128.17L188.94 121.21"/>
<path d="M190.1 261.92L190.1 254.96"/>
<path d="M190.1 181.41L190.1 174.45"/>
<path d="M190.82 133.06L190.82 146.98"/>
<path d="M190.82 155.63L190.82 169.55"/>
<path d="M190.82 213.58L190.82 227.5"/>
<path d="M190.82 236.15L190.82 250.07"/>
<path d="M191.19 250.07L191.19 236.15"/>
<path d="M191.19 227.5L191.19 213.58"/>
<path d="M191.19 169.55L191.19 155.63"/>
<path d="M191.19 146.98L191.19 133.06"/>
<path d="M191.91 121.21L191.91 128.17"/>
<path d="M191.91 201.72L191.91 208.68"/>
<path d="M193.08 129.29L193.08 132.68"/>
<path d="M193.08 174.45L193.08 181.41"/>
<path d="M193.08 209.81L193.08 213.2"/>
<path d="M193.08 254.96L193.08 261.92"/>
<path d="M194.96 246.31L194.96 239.91"/>
<path d="M194.96 223.73L194.96 217.34"/>
<path d="M194.96 165.79L194.96 159.4"/>
<path d="M194.96 143.22L194.96 136.82"/>
<path d="M197.06 169.93L197.06 174.45"/>
<path d="M197.06 250.45L197.06 254.96"/>
<path d="M194.96 143.22L191.19 146.98"/>
<path d="M176.14 165.79L172.38 169.55"/>
<path d="M205.87 136.82L209.63 133.06"/>
<path d="M187.06 159.4L190.82 155.63"/>
<path d="M166.93 301.28L470.94 301.28"/>
<path d="M519.85 299.93L517.59 299.93"/>
<path d="M527.38 299.17L517.59 299.17"/>
<path d="M525.12 296.92L519.85 296.92"/>
<path d="M167.68 296.16L470.19 296.16"/>
<path d="M373.11 293.91L343.01 293.91"/>
<path d="M470.19 290.9L375.37 290.9"/>
<path d="M167.68 290.9L340.76 290.9"/>
<path d="M117.71 286.38L99.2 286.38"/>
<path d="M117.71 284.12L101.46 284.12"/>
<path d="M194.96 239.91L191.19 236.15"/>
<path d="M176.14 217.34L172.38 213.58"/>
<path d="M205.87 246.31L209.63 250.07"/>
<path d="M187.06 223.73L190.82 227.5"/>
<path d="M203.76 213.2L203.76 208.68"/>
<path d="M203.76 132.68L203.76 128.17"/>
<path d="M205.87 136.82L205.87 143.22"/>
<path d="M205.87 159.4L205.87 165.79"/>
<path d="M205.87 217.34L205.87 223.73"/>
<path d="M205.87 239.91L205.87 246.31"/>
<path d="M207.75 253.83L207.75 250.45"/>
<path d="M207.75 208.68L207.75 201.72"/>
<path d="M207.75 173.32L207.75 169.93"/>
<path d="M207.75 128.17L207.75 121.21"/>
<path d="M208.92 261.92L208.92 254.96"/>
<path d="M208.92 181.41L208.92 174.45"/>
<path d="M209.63 133.06L209.63 146.98"/>
<path d="M209.63 155.63L209.63 169.55"/>
<path d="M209.63 213.58L209.63 227.5"/>
<path d="M209.63 236.15L209.63 250.07"/>
<path d="M210.01 250.07L210.01 236.15"/>
<path d="M210.01 227.5L210.01 213.58"/>
<path d="M210.01 169.55L210.01 155.63"/>
<path d="M210.01 146.98L210.01 133.06"/>
<path d="M210.72 121.21L210.72 128.17"/>
<path d="M210.72 201.72L210.72 208.68"/>
<path d="M211.89 129.29L211.89 132.68"/>
<path d="M211.89 174.45L211.89 181.41"/>
<path d="M211.89 209.81L211.89 213.2"/>
<path d="M211.89 254.96L211.89 261.92"/>
<path d="M213.77 246.31L213.77 239.91"/>
<path d="M213.77 223.73L213.77 217.34"/>
<path d="M213.77 165.79L213.77 159.4"/>
<path d="M213.77 143.22L213.77 136.82"/>
<path d="M215.88 169.93L215.88 174.45"/>
<path d="M215.88 250.45L215.88 254.96"/>
<path d="M213.77 143.22L210.01 146.98"/>
<path d="M310.28 50.09L314.04 46.33"/>
<path d="M194.96 165.79L191.19 169.55"/>
<path d="M224.68 136.82L228.44 133.06"/>
<path d="M205.87 159.4L209.63 155.63"/>
<path d="M232.58 143.22L228.82 146.98"/>
<path d="M213.77 165.79L210.01 169.55"/>
<path d="M243.49 136.82L247.26 133.06"/>
<path d="M157.33 223.73L153.57 227.5"/>
<path d="M519.85 281.87L527.38 281.87"/>
<path d="M343.01 281.11L373.11 281.11"/>
<path d="M343.01 280.36L373.11 280.36"/>
<path d="M343.01 270.58L373.11 270.58"/>
<path d="M340.76 268.32L375.37 268.32"/>
<path d="M213.77 239.91L210.01 236.15"/>
<path d="M310.28 333.04L314.04 336.8"/>
<path d="M194.96 217.34L191.19 213.58"/>
<path d="M224.68 246.31L228.44 250.07"/>
<path d="M205.87 223.73L209.63 227.5"/>
<path d="M232.58 239.91L228.82 236.15"/>
<path d="M213.77 217.34L210.01 213.58"/>
<path d="M243.49 246.31L247.26 250.07"/>
<path d="M157.33 159.4L153.57 155.63"/>
<path d="M222.57 213.2L222.57 208.68"/>
<path d="M222.57 132.68L222.57 128.17"/>
<path d="M224.68 136.82L224.68 143.22"/>
<path d="M224.68 159.4L224.68 165.79"/>
<path d="M224.68 217.34L224.68 223.73"/>
<path d="M224.68 239.91L224.68 246.31"/>
<path d="M226.56 253.83L226.56 250.45"/>
<path d="M226.56 208.68L226.56 201.72"/>
<path d="M226.56 173.32L226.56 169.93"/>
<path d="M226.56 128.17L226.56 121.21"/>
<path d="M227.73 261.92L227.73 254.96"/>
<path d="M227.73 181.41L227.73 174.45"/>
<path d="M228.44 133.06L228.44 146.98"/>
<path d="M228.44 155.63L228.44 169.55"/>
<path d="M228.44 213.58L228.44 227.5"/>
<path d="M228.44 236.15L228.44 250.07"/>
<path d="M228.82 250.07L228.82 236.15"/>
<path d="M228.82 227.5L228.82 213.58"/>
<path d="M228.82 169.55L228.82 155.63"/>
<path d="M228.82 146.98L228.82 133.06"/>
<path d="M229.54 121.21L229.54 128.17"/>
<path d="M229.54 201.72L229.54 208.68"/>
<path d="M230.7 129.29L230.7 132.68"/>
<path d="M230.7 174.45L230.7 181.41"/>
<path d="M230.7 209.81L230.7 213.2"/>
<path d="M230.7 254.96L230.7 261.92"/>
<path d="M232.58 246.31L232.58 239.91"/>
<path d="M232.58 223.73L232.58 217.34"/>
<path d="M232.58 165.79L232.58 159.4"/>
<path d="M232.58 143.22L232.58 136.82"/>
<path d="M234.69 169.93L234.69 174.45"/>
<path d="M234.69 250.45L234.69 254.96"/>
<path d="M224.68 159.4L228.44 155.63"/>
<path d="M168.24 217.34L172.01 213.58"/>
<path d="M251.4 143.22L247.63 146.98"/>
<path d="M232.58 165.79L228.82 169.55"/>
<path d="M262.31 136.82L266.07 133.06"/>
<path d="M176.14 223.73L172.38 227.5"/>
<path d="M243.49 159.4L247.26 155.63"/>
<path d="M157.33 246.31L153.57 250.07"/>
<path d="M187.06 217.34L190.82 213.58"/>
<path d="M168.24 239.91L172.01 236.15"/>
<path d="M155.45 261.92L171.29 261.92"/>
<path d="M174.26 261.92L190.1 261.92"/>
<path d="M193.08 261.92L208.92 261.92"/>
<path d="M211.89 261.92L227.73 261.92"/>
<path d="M230.7 261.92L246.54 261.92"/>
<path d="M249.51 261.92L265.35 261.92"/>
<path d="M268.33 261.92L284.17 261.92"/>
<path d="M287.14 261.92L302.98 261.92"/>
<path d="M305.95 261.92L321.79 261.92"/>
<path d="M324.76 261.92L340.6 261.92"/>
<path d="M343.58 261.92L359.42 261.92"/>
<path d="M362.39 261.92L378.23 261.92"/>
<path d="M384.96 261.92L400.8 261.92"/>
<path d="M432.94 261.17L443.47 261.17"/>
<path d="M470.56 261.17L479.59 261.17"/>
<path d="M388.95 254.96L384.96 254.96"/>
<path d="M366.38 254.96L362.39 254.96"/>
<path d="M347.57 254.96L343.58 254.96"/>
<path d="M328.75 254.96L324.76 254.96"/>
<path d="M309.94 254.96L305.95 254.96"/>
<path d="M291.13 254.96L287.14 254.96"/>
<path d="M272.31 254.96L268.33 254.96"/>
<path d="M253.5 254.96L249.51 254.96"/>
<path d="M234.69 254.96L230.7 254.96"/>
<path d="M215.88 254.96L211.89 254.96"/>
<path d="M197.06 254.96L193.08 254.96"/>
<path d="M178.25 254.96L174.26 254.96"/>
<path d="M159.44 254.96L155.45 254.96"/>
<path d="M492.01 252.71L481.1 252.71"/>
<path d="M469.06 252.71L458.15 252.71"/>
<path d="M454.38 252.71L443.47 252.71"/>
<path d="M431.43 252.71L420.52 252.71"/>
<path d="M513.83 252.52L508.56 252.52"/>
<path d="M129.3 252.52L124.03 252.52"/>
<path d="M124.03 251.76L116.51 251.76"/>
<path d="M513.83 251.76L521.36 251.76"/>
<path d="M399.64 250.45L388.95 250.45"/>
<path d="M377.06 250.45L366.38 250.45"/>
<path d="M358.25 250.45L347.57 250.45"/>
<path d="M339.44 250.45L328.75 250.45"/>
<path d="M320.63 250.45L309.94 250.45"/>
<path d="M301.81 250.45L291.13 250.45"/>
<path d="M283 250.45L272.31 250.45"/>
<path d="M264.19 250.45L253.5 250.45"/>
<path d="M245.38 250.45L234.69 250.45"/>
<path d="M226.56 250.45L215.88 250.45"/>
<path d="M207.75 250.45L197.06 250.45"/>
<path d="M188.94 250.45L178.25 250.45"/>
<path d="M170.12 250.45L159.44 250.45"/>
<path d="M401.52 250.07L383.08 250.07"/>
<path d="M378.94 250.07L360.51 250.07"/>
<path d="M360.13 250.07L341.7 250.07"/>
<path d="M341.32 250.07L322.88 250.07"/>
<path d="M322.51 250.07L304.07 250.07"/>
<path d="M303.69 250.07L285.26 250.07"/>
<path d="M284.88 250.07L266.45 250.07"/>
<path d="M266.07 250.07L247.63 250.07"/>
<path d="M247.26 250.07L228.82 250.07"/>
<path d="M228.44 250.07L210.01 250.07"/>
<path d="M209.63 250.07L191.19 250.07"/>
<path d="M190.82 250.07L172.38 250.07"/>
<path d="M172.01 250.07L153.57 250.07"/>
<path d="M487.31 246.69L481.1 246.69"/>
<path d="M469.06 246.69L462.85 246.69"/>
<path d="M449.68 246.69L443.47 246.69"/>
<path d="M431.43 246.69L425.22 246.69"/>
<path d="M397.76 246.31L386.85 246.31"/>
<path d="M375.18 246.31L364.27 246.31"/>
<path d="M356.37 246.31L345.46 246.31"/>
<path d="M337.56 246.31L326.65 246.31"/>
<path d="M318.74 246.31L307.83 246.31"/>
<path d="M299.93 246.31L289.02 246.31"/>
<path d="M281.12 246.31L270.21 246.31"/>
<path d="M262.31 246.31L251.4 246.31"/>
<path d="M243.49 246.31L232.58 246.31"/>
<path d="M224.68 246.31L213.77 246.31"/>
<path d="M205.87 246.31L194.96 246.31"/>
<path d="M187.06 246.31L176.14 246.31"/>
<path d="M168.24 246.31L157.33 246.31"/>
<path d="M224.68 223.73L228.44 227.5"/>
<path d="M168.24 165.79L172.01 169.55"/>
<path d="M251.4 239.91L247.63 236.15"/>
<path d="M232.58 217.34L228.82 213.58"/>
<path d="M262.31 246.31L266.07 250.07"/>
<path d="M176.14 159.4L172.38 155.63"/>
<path d="M243.49 223.73L247.26 227.5"/>
<path d="M157.33 136.82L153.57 133.06"/>
<path d="M187.06 165.79L190.82 169.55"/>
<path d="M168.24 143.22L172.01 146.98"/>
<path d="M241.39 213.2L241.39 208.68"/>
<path d="M241.39 132.68L241.39 128.17"/>
<path d="M243.49 136.82L243.49 143.22"/>
<path d="M243.49 159.4L243.49 165.79"/>
<path d="M243.49 217.34L243.49 223.73"/>
<path d="M243.49 239.91L243.49 246.31"/>
<path d="M245.38 253.83L245.38 250.45"/>
<path d="M245.38 208.68L245.38 201.72"/>
<path d="M245.38 173.32L245.38 169.93"/>
<path d="M245.38 128.17L245.38 121.21"/>
<path d="M246.54 261.92L246.54 254.96"/>
<path d="M246.54 181.41L246.54 174.45"/>
<path d="M247.26 133.06L247.26 146.98"/>
<path d="M247.26 155.63L247.26 169.55"/>
<path d="M247.26 213.58L247.26 227.5"/>
<path d="M247.26 236.15L247.26 250.07"/>
<path d="M247.63 250.07L247.63 236.15"/>
<path d="M247.63 227.5L247.63 213.58"/>
<path d="M247.63 169.55L247.63 155.63"/>
<path d="M247.63 146.98L247.63 133.06"/>
<path d="M248.35 121.21L248.35 128.17"/>
<path d="M248.35 201.72L248.35 208.68"/>
<path d="M249.51 129.29L249.51 132.68"/>
<path d="M249.51 174.45L249.51 181.41"/>
<path d="M249.51 209.81L249.51 213.2"/>
<path d="M249.51 254.96L249.51 261.92"/>
<path d="M251.4 246.31L251.4 239.91"/>
<path d="M251.4 223.73L251.4 217.34"/>
<path d="M251.4 165.79L251.4 159.4"/>
<path d="M251.4 143.22L251.4 136.82"/>
<path d="M253.5 169.93L253.5 174.45"/>
<path d="M253.5 250.45L253.5 254.96"/>
<path d="M270.21 143.22L266.45 146.98"/>
<path d="M251.4 165.79L247.63 169.55"/>
<path d="M281.12 136.82L284.88 133.06"/>
<path d="M194.96 223.73L191.19 227.5"/>
<path d="M262.31 159.4L266.07 155.63"/>
<path d="M176.14 246.31L172.38 250.07"/>
<path d="M205.87 217.34L209.63 213.58"/>
<path d="M187.06 239.91L190.82 236.15"/>
<path d="M289.02 143.22L285.26 146.98"/>
<path d="M270.21 165.79L266.45 169.55"/>
<path d="M450.24 53.86L435.91 62.13"/>
<path d="M437.48 62.73L450.24 55.36"/>
<path d="M157.33 239.91L168.24 239.91"/>
<path d="M176.14 239.91L187.06 239.91"/>
<path d="M194.96 239.91L205.87 239.91"/>
<path d="M213.77 239.91L224.68 239.91"/>
<path d="M232.58 239.91L243.49 239.91"/>
<path d="M251.4 239.91L262.31 239.91"/>
<path d="M270.21 239.91L281.12 239.91"/>
<path d="M289.02 239.91L299.93 239.91"/>
<path d="M307.83 239.91L318.74 239.91"/>
<path d="M326.65 239.91L337.56 239.91"/>
<path d="M345.46 239.91L356.37 239.91"/>
<path d="M364.27 239.91L375.18 239.91"/>
<path d="M386.85 239.91L397.76 239.91"/>
<path d="M425.22 239.54L431.43 239.54"/>
<path d="M443.47 239.54L449.68 239.54"/>
<path d="M462.85 239.54L469.06 239.54"/>
<path d="M481.1 239.54L487.31 239.54"/>
<path d="M521.36 236.71L527.38 236.71"/>
<path d="M153.57 236.15L172.01 236.15"/>
<path d="M172.38 236.15L190.82 236.15"/>
<path d="M191.19 236.15L209.63 236.15"/>
<path d="M210.01 236.15L228.44 236.15"/>
<path d="M228.82 236.15L247.26 236.15"/>
<path d="M247.63 236.15L266.07 236.15"/>
<path d="M266.45 236.15L284.88 236.15"/>
<path d="M285.26 236.15L303.69 236.15"/>
<path d="M304.07 236.15L322.51 236.15"/>
<path d="M322.88 236.15L341.32 236.15"/>
<path d="M341.7 236.15L360.13 236.15"/>
<path d="M360.51 236.15L378.94 236.15"/>
<path d="M383.08 236.15L401.52 236.15"/>
<path d="M521.36 234.46L527.38 234.46"/>
<path d="M420.52 233.52L431.43 233.52"/>
<path d="M443.47 233.52L454.38 233.52"/>
<path d="M458.15 233.52L469.06 233.52"/>
<path d="M481.1 233.52L492.01 233.52"/>
<path d="M401.52 227.5L383.08 227.5"/>
<path d="M378.94 227.5L360.51 227.5"/>
<path d="M360.13 227.5L341.7 227.5"/>
<path d="M341.32 227.5L322.88 227.5"/>
<path d="M322.51 227.5L304.07 227.5"/>
<path d="M303.69 227.5L285.26 227.5"/>
<path d="M284.88 227.5L266.45 227.5"/>
<path d="M266.07 227.5L247.63 227.5"/>
<path d="M247.26 227.5L228.82 227.5"/>
<path d="M228.44 227.5L210.01 227.5"/>
<path d="M209.63 227.5L191.19 227.5"/>
<path d="M190.82 227.5L172.38 227.5"/>
<path d="M172.01 227.5L153.57 227.5"/>
<path d="M435.91 321L450.24 329.27"/>
<path d="M437.48 320.4L450.24 327.76"/>
<path d="M270.21 239.91L266.45 236.15"/>
<path d="M251.4 217.34L247.63 213.58"/>
<path d="M281.12 246.31L284.88 250.07"/>
<path d="M194.96 159.4L191.19 155.63"/>
<path d="M262.31 223.73L266.07 227.5"/>
<path d="M176.14 136.82L172.38 133.06"/>
<path d="M205.87 165.79L209.63 169.55"/>
<path d="M187.06 143.22L190.82 146.98"/>
<path d="M289.02 239.91L285.26 236.15"/>
<path d="M270.21 217.34L266.45 213.58"/>
<path d="M260.2 213.2L260.2 208.68"/>
<path d="M260.2 132.68L260.2 128.17"/>
<path d="M262.31 136.82L262.31 143.22"/>
<path d="M262.31 159.4L262.31 165.79"/>
<path d="M262.31 217.34L262.31 223.73"/>
<path d="M262.31 239.91L262.31 246.31"/>
<path d="M264.19 253.83L264.19 250.45"/>
<path d="M264.19 208.68L264.19 201.72"/>
<path d="M264.19 173.32L264.19 169.93"/>
<path d="M264.19 128.17L264.19 121.21"/>
<path d="M265.35 261.92L265.35 254.96"/>
<path d="M265.35 181.41L265.35 174.45"/>
<path d="M266.07 133.06L266.07 146.98"/>
<path d="M266.07 155.63L266.07 169.55"/>
<path d="M266.07 213.58L266.07 227.5"/>
<path d="M266.07 236.15L266.07 250.07"/>
<path d="M266.45 250.07L266.45 236.15"/>
<path d="M266.45 227.5L266.45 213.58"/>
<path d="M266.45 169.55L266.45 155.63"/>
<path d="M266.45 146.98L266.45 133.06"/>
<path d="M267.16 121.21L267.16 128.17"/>
<path d="M267.16 201.72L267.16 208.68"/>
<path d="M268.33 129.29L268.33 132.68"/>
<path d="M268.33 174.45L268.33 181.41"/>
<path d="M268.33 209.81L268.33 213.2"/>
<path d="M268.33 254.96L268.33 261.92"/>
<path d="M270.21 246.31L270.21 239.91"/>
<path d="M270.21 223.73L270.21 217.34"/>
<path d="M270.21 165.79L270.21 159.4"/>
<path d="M270.21 143.22L270.21 136.82"/>
<path d="M272.31 169.93L272.31 174.45"/>
<path d="M272.31 250.45L272.31 254.96"/>
<path d="M274.91 336.8L274.91 313.47"/>
<path d="M274.91 69.66L274.91 46.33"/>
<path d="M299.93 136.82L303.69 133.06"/>
<path d="M213.77 223.73L210.01 227.5"/>
<path d="M281.12 159.4L284.88 155.63"/>
<path d="M194.96 246.31L191.19 250.07"/>
<path d="M224.68 217.34L228.44 213.58"/>
<path d="M205.87 239.91L209.63 236.15"/>
<path d="M307.83 143.22L304.07 146.98"/>
<path d="M289.02 165.79L285.26 169.55"/>
<path d="M318.74 136.82L322.51 133.06"/>
<path d="M232.58 223.73L228.82 227.5"/>
<path d="M299.93 159.4L303.69 155.63"/>
<path d="M213.77 246.31L210.01 250.07"/>
<path d="M243.49 217.34L247.26 213.58"/>
<path d="M119.57 285.1L117.71 286.38"/>
<path d="M65.34 302.18L99.2 282.63"/>
<path d="M69.85 302.18L99.2 285.24"/>
<path d="M479.59 225.05L470.56 225.05"/>
<path d="M441.97 225.05L432.94 225.05"/>
<path d="M397.76 223.73L386.85 223.73"/>
<path d="M375.18 223.73L364.27 223.73"/>
<path d="M356.37 223.73L345.46 223.73"/>
<path d="M337.56 223.73L326.65 223.73"/>
<path d="M318.74 223.73L307.83 223.73"/>
<path d="M299.93 223.73L289.02 223.73"/>
<path d="M281.12 223.73L270.21 223.73"/>
<path d="M262.31 223.73L251.4 223.73"/>
<path d="M243.49 223.73L232.58 223.73"/>
<path d="M224.68 223.73L213.77 223.73"/>
<path d="M205.87 223.73L194.96 223.73"/>
<path d="M187.06 223.73L176.14 223.73"/>
<path d="M168.24 223.73L157.33 223.73"/>
<path d="M157.33 217.34L168.24 217.34"/>
<path d="M176.14 217.34L187.06 217.34"/>
<path d="M194.96 217.34L205.87 217.34"/>
<path d="M213.77 217.34L224.68 217.34"/>
<path d="M232.58 217.34L243.49 217.34"/>
<path d="M251.4 217.34L262.31 217.34"/>
<path d="M270.21 217.34L281.12 217.34"/>
<path d="M289.02 217.34L299.93 217.34"/>
<path d="M307.83 217.34L318.74 217.34"/>
<path d="M326.65 217.34L337.56 217.34"/>
<path d="M345.46 217.34L356.37 217.34"/>
<path d="M364.27 217.34L375.18 217.34"/>
<path d="M386.85 217.34L397.76 217.34"/>
<path d="M153.57 213.58L172.01 213.58"/>
<path d="M172.38 213.58L190.82 213.58"/>
<path d="M191.19 213.58L209.63 213.58"/>
<path d="M210.01 213.58L228.44 213.58"/>
<path d="M228.82 213.58L247.26 213.58"/>
<path d="M247.63 213.58L266.07 213.58"/>
<path d="M266.45 213.58L284.88 213.58"/>
<path d="M285.26 213.58L303.69 213.58"/>
<path d="M304.07 213.58L322.51 213.58"/>
<path d="M322.88 213.58L341.32 213.58"/>
<path d="M341.7 213.58L360.13 213.58"/>
<path d="M360.51 213.58L378.94 213.58"/>
<path d="M383.08 213.58L401.52 213.58"/>
<path d="M155.45 213.2L166.14 213.2"/>
<path d="M174.26 213.2L184.95 213.2"/>
<path d="M193.08 213.2L203.76 213.2"/>
<path d="M211.89 213.2L222.57 213.2"/>
<path d="M230.7 213.2L241.39 213.2"/>
<path d="M249.51 213.2L260.2 213.2"/>
<path d="M268.33 213.2L279.01 213.2"/>
<path d="M287.14 213.2L297.82 213.2"/>
<path d="M305.95 213.2L316.64 213.2"/>
<path d="M324.76 213.2L335.45 213.2"/>
<path d="M343.58 213.2L354.26 213.2"/>
<path d="M362.39 213.2L373.08 213.2"/>
<path d="M384.96 213.2L395.65 213.2"/>
<path d="M124.03 210.38L135.32 210.38"/>
<path d="M502.54 210.38L513.83 210.38"/>
<path d="M432.94 209.62L441.97 209.62"/>
<path d="M470.56 209.62L479.59 209.62"/>
<path d="M166.14 208.68L170.12 208.68"/>
<path d="M184.95 208.68L188.94 208.68"/>
<path d="M203.76 208.68L207.75 208.68"/>
<path d="M222.57 208.68L226.56 208.68"/>
<path d="M241.39 208.68L245.38 208.68"/>
<path d="M260.2 208.68L264.19 208.68"/>
<path d="M279.01 208.68L283 208.68"/>
<path d="M297.82 208.68L301.81 208.68"/>
<path d="M316.64 208.68L320.63 208.68"/>
<path d="M335.45 208.68L339.44 208.68"/>
<path d="M354.26 208.68L358.25 208.68"/>
<path d="M373.08 208.68L377.06 208.68"/>
<path d="M395.65 208.68L399.64 208.68"/>
<path d="M99.2 100.5L65.34 80.95"/>
<path d="M99.2 97.89L69.85 80.95"/>
<path d="M299.93 246.31L303.69 250.07"/>
<path d="M213.77 159.4L210.01 155.63"/>
<path d="M281.12 223.73L284.88 227.5"/>
<path d="M194.96 136.82L191.19 133.06"/>
<path d="M224.68 165.79L228.44 169.55"/>
<path d="M205.87 143.22L209.63 146.98"/>
<path d="M307.83 239.91L304.07 236.15"/>
<path d="M289.02 217.34L285.26 213.58"/>
<path d="M318.74 246.31L322.51 250.07"/>
<path d="M232.58 159.4L228.82 155.63"/>
<path d="M299.93 223.73L303.69 227.5"/>
<path d="M213.77 136.82L210.01 133.06"/>
<path d="M243.49 165.79L247.26 169.55"/>
<path d="M278.67 333.04L278.67 311.21"/>
<path d="M278.67 71.92L278.67 50.09"/>
<path d="M279.01 213.2L279.01 208.68"/>
<path d="M279.01 132.68L279.01 128.17"/>
<path d="M281.12 136.82L281.12 143.22"/>
<path d="M281.12 159.4L281.12 165.79"/>
<path d="M281.12 217.34L281.12 223.73"/>
<path d="M281.12 239.91L281.12 246.31"/>
<path d="M283 253.83L283 250.45"/>
<path d="M283 208.68L283 201.72"/>
<path d="M283 173.32L283 169.93"/>
<path d="M283 128.17L283 121.21"/>
<path d="M284.17 261.92L284.17 254.96"/>
<path d="M284.17 181.41L284.17 174.45"/>
<path d="M284.88 133.06L284.88 146.98"/>
<path d="M284.88 155.63L284.88 169.55"/>
<path d="M284.88 213.58L284.88 227.5"/>
<path d="M284.88 236.15L284.88 250.07"/>
<path d="M285.26 250.07L285.26 236.15"/>
<path d="M285.26 227.5L285.26 213.58"/>
<path d="M285.26 169.55L285.26 155.63"/>
<path d="M285.26 146.98L285.26 133.06"/>
<path d="M285.97 121.21L285.97 128.17"/>
<path d="M285.97 201.72L285.97 208.68"/>
<path d="M287.14 129.29L287.14 132.68"/>
<path d="M287.14 174.45L287.14 181.41"/>
<path d="M287.14 209.81L287.14 213.2"/>
<path d="M287.14 254.96L287.14 261.92"/>
<path d="M289.02 246.31L289.02 239.91"/>
<path d="M289.02 223.73L289.02 217.34"/>
<path d="M289.02 165.79L289.02 159.4"/>
<path d="M289.02 143.22L289.02 136.82"/>
<path d="M291.13 169.93L291.13 174.45"/>
<path d="M291.13 250.45L291.13 254.96"/>
<path d="M224.68 239.91L228.44 236.15"/>
<path d="M326.65 143.22L322.88 146.98"/>
<path d="M138.71 333.04L134.95 336.8"/>
<path d="M307.83 165.79L304.07 169.55"/>
<path d="M337.56 136.82L341.32 133.06"/>
<path d="M251.4 223.73L247.63 227.5"/>
<path d="M318.74 159.4L322.51 155.63"/>
<path d="M232.58 246.31L228.82 250.07"/>
<path d="M262.31 217.34L266.07 213.58"/>
<path d="M243.49 239.91L247.26 236.15"/>
<path d="M345.46 143.22L341.7 146.98"/>
<path d="M399.64 201.72L383.8 201.72"/>
<path d="M377.06 201.72L361.22 201.72"/>
<path d="M358.25 201.72L342.41 201.72"/>
<path d="M339.44 201.72L323.6 201.72"/>
<path d="M320.63 201.72L304.79 201.72"/>
<path d="M301.81 201.72L285.97 201.72"/>
<path d="M283 201.72L267.16 201.72"/>
<path d="M264.19 201.72L248.35 201.72"/>
<path d="M245.38 201.72L229.54 201.72"/>
<path d="M226.56 201.72L210.72 201.72"/>
<path d="M207.75 201.72L191.91 201.72"/>
<path d="M188.94 201.72L173.1 201.72"/>
<path d="M170.12 201.72L154.28 201.72"/>
<path d="M492.01 201.16L481.1 201.16"/>
<path d="M469.06 201.16L458.15 201.16"/>
<path d="M454.38 201.16L443.47 201.16"/>
<path d="M431.43 201.16L420.52 201.16"/>
<path d="M506.31 197.21L511.57 197.21"/>
<path d="M487.31 195.14L481.1 195.14"/>
<path d="M469.06 195.14L462.85 195.14"/>
<path d="M449.68 195.14L443.47 195.14"/>
<path d="M431.43 195.14L425.22 195.14"/>
<path d="M504.05 194.95L513.83 194.95"/>
<path d="M224.68 143.22L228.44 146.98"/>
<path d="M326.65 239.91L322.88 236.15"/>
<path d="M138.71 50.09L134.95 46.33"/>
<path d="M307.83 217.34L304.07 213.58"/>
<path d="M337.56 246.31L341.32 250.07"/>
<path d="M251.4 159.4L247.63 155.63"/>
<path d="M318.74 223.73L322.51 227.5"/>
<path d="M232.58 136.82L228.82 133.06"/>
<path d="M262.31 165.79L266.07 169.55"/>
<path d="M243.49 143.22L247.26 146.98"/>
<path d="M345.46 239.91L341.7 236.15"/>
<path d="M297.82 213.2L297.82 208.68"/>
<path d="M297.82 132.68L297.82 128.17"/>
<path d="M299.93 136.82L299.93 143.22"/>
<path d="M299.93 159.4L299.93 165.79"/>
<path d="M299.93 217.34L299.93 223.73"/>
<path d="M299.93 239.91L299.93 246.31"/>
<path d="M301.81 253.83L301.81 250.45"/>
<path d="M301.81 208.68L301.81 201.72"/>
<path d="M301.81 173.32L301.81 169.93"/>
<path d="M301.81 128.17L301.81 121.21"/>
<path d="M302.98 261.92L302.98 254.96"/>
<path d="M302.98 181.41L302.98 174.45"/>
<path d="M303.69 133.06L303.69 146.98"/>
<path d="M303.69 155.63L303.69 169.55"/>
<path d="M303.69 213.58L303.69 227.5"/>
<path d="M303.69 236.15L303.69 250.07"/>
<path d="M304.07 250.07L304.07 236.15"/>
<path d="M304.07 227.5L304.07 213.58"/>
<path d="M304.07 169.55L304.07 155.63"/>
<path d="M304.07 146.98L304.07 133.06"/>
<path d="M304.79 121.21L304.79 128.17"/>
<path d="M304.79 201.72L304.79 208.68"/>
<path d="M305.95 129.29L305.95 132.68"/>
<path d="M305.95 174.45L305.95 181.41"/>
<path d="M305.95 209.81L305.95 213.2"/>
<path d="M305.95 254.96L305.95 261.92"/>
<path d="M307.83 246.31L307.83 239.91"/>
<path d="M307.83 223.73L307.83 217.34"/>
<path d="M307.83 165.79L307.83 159.4"/>
<path d="M307.83 143.22L307.83 136.82"/>
<path d="M309.94 169.93L309.94 174.45"/>
<path d="M309.94 250.45L309.94 254.96"/>
<path d="M310.28 50.09L310.28 71.92"/>
<path d="M310.28 311.21L310.28 333.04"/>
<path d="M314.04 46.33L314.04 69.66"/>
<path d="M314.04 313.47L314.04 336.8"/>
<path d="M326.65 165.79L322.88 169.55"/>
<path d="M356.37 136.82L360.13 133.06"/>
<path d="M270.21 223.73L266.45 227.5"/>
<path d="M337.56 159.4L341.32 155.63"/>
<path d="M251.4 246.31L247.63 250.07"/>
<path d="M281.12 217.34L284.88 213.58"/>
<path d="M450.24 50.09L454.01 46.33"/>
<path d="M262.31 239.91L266.07 236.15"/>
<path d="M364.27 143.22L360.51 146.98"/>
<path d="M345.46 165.79L341.7 169.55"/>
<path d="M375.18 136.82L378.94 133.06"/>
<path d="M289.02 223.73L285.26 227.5"/>
<path d="M356.37 159.4L360.13 155.63"/>
<path d="M513.83 188.18L504.05 188.18"/>
<path d="M425.22 187.99L431.43 187.99"/>
<path d="M443.47 187.99L449.68 187.99"/>
<path d="M462.85 187.99L469.06 187.99"/>
<path d="M481.1 187.99L487.31 187.99"/>
<path d="M511.57 185.92L506.31 185.92"/>
<path d="M420.52 181.97L431.43 181.97"/>
<path d="M443.47 181.97L454.38 181.97"/>
<path d="M458.15 181.97L469.06 181.97"/>
<path d="M481.1 181.97L492.01 181.97"/>
<path d="M155.45 181.41L171.29 181.41"/>
<path d="M174.26 181.41L190.1 181.41"/>
<path d="M193.08 181.41L208.92 181.41"/>
<path d="M211.89 181.41L227.73 181.41"/>
<path d="M230.7 181.41L246.54 181.41"/>
<path d="M249.51 181.41L265.35 181.41"/>
<path d="M268.33 181.41L284.17 181.41"/>
<path d="M287.14 181.41L302.98 181.41"/>
<path d="M305.95 181.41L321.79 181.41"/>
<path d="M324.76 181.41L340.6 181.41"/>
<path d="M343.58 181.41L359.42 181.41"/>
<path d="M362.39 181.41L378.23 181.41"/>
<path d="M384.96 181.41L400.8 181.41"/>
<path d="M388.95 174.45L384.96 174.45"/>
<path d="M366.38 174.45L362.39 174.45"/>
<path d="M347.57 174.45L343.58 174.45"/>
<path d="M328.75 174.45L324.76 174.45"/>
<path d="M309.94 174.45L305.95 174.45"/>
<path d="M291.13 174.45L287.14 174.45"/>
<path d="M272.31 174.45L268.33 174.45"/>
<path d="M253.5 174.45L249.51 174.45"/>
<path d="M234.69 174.45L230.7 174.45"/>
<path d="M215.88 174.45L211.89 174.45"/>
<path d="M197.06 174.45L193.08 174.45"/>
<path d="M178.25 174.45L174.26 174.45"/>
<path d="M159.44 174.45L155.45 174.45"/>
<path d="M479.59 173.5L470.56 173.5"/>
<path d="M441.97 173.5L432.94 173.5"/>
<path d="M513.83 172.75L502.54 172.75"/>
<path d="M124.03 172.75L135.32 172.75"/>
<path d="M326.65 217.34L322.88 213.58"/>
<path d="M356.37 246.31L360.13 250.07"/>
<path d="M270.21 159.4L266.45 155.63"/>
<path d="M337.56 223.73L341.32 227.5"/>
<path d="M251.4 136.82L247.63 133.06"/>
<path d="M281.12 165.79L284.88 169.55"/>
<path d="M450.24 333.04L454.01 336.8"/>
<path d="M262.31 143.22L266.07 146.98"/>
<path d="M364.27 239.91L360.51 236.15"/>
<path d="M345.46 217.34L341.7 213.58"/>
<path d="M375.18 246.31L378.94 250.07"/>
<path d="M289.02 159.4L285.26 155.63"/>
<path d="M356.37 223.73L360.13 227.5"/>
<path d="M316.64 213.2L316.64 208.68"/>
<path d="M316.64 132.68L316.64 128.17"/>
<path d="M318.74 136.82L318.74 143.22"/>
<path d="M318.74 159.4L318.74 165.79"/>
<path d="M318.74 217.34L318.74 223.73"/>
<path d="M318.74 239.91L318.74 246.31"/>
<path d="M320.63 253.83L320.63 250.45"/>
<path d="M320.63 208.68L320.63 201.72"/>
<path d="M320.63 173.32L320.63 169.93"/>
<path d="M320.63 128.17L320.63 121.21"/>
<path d="M321.79 261.92L321.79 254.96"/>
<path d="M321.79 181.41L321.79 174.45"/>
<path d="M322.51 133.06L322.51 146.98"/>
<path d="M322.51 155.63L322.51 169.55"/>
<path d="M322.51 213.58L322.51 227.5"/>
<path d="M322.51 236.15L322.51 250.07"/>
<path d="M322.88 250.07L322.88 236.15"/>
<path d="M322.88 227.5L322.88 213.58"/>
<path d="M322.88 169.55L322.88 155.63"/>
<path d="M322.88 146.98L322.88 133.06"/>
<path d="M323.6 121.21L323.6 128.17"/>
<path d="M323.6 201.72L323.6 208.68"/>
<path d="M324.76 129.29L324.76 132.68"/>
<path d="M324.76 174.45L324.76 181.41"/>
<path d="M324.76 209.81L324.76 213.2"/>
<path d="M324.76 254.96L324.76 261.92"/>
<path d="M326.65 246.31L326.65 239.91"/>
<path d="M326.65 223.73L326.65 217.34"/>
<path d="M326.65 165.79L326.65 159.4"/>
<path d="M326.65 143.22L326.65 136.82"/>
<path d="M328.75 169.93L328.75 174.45"/>
<path d="M328.75 250.45L328.75 254.96"/>
<path d="M270.21 246.31L266.45 250.07"/>
<path d="M299.93 217.34L303.69 213.58"/>
<path d="M281.12 239.91L284.88 236.15"/>
<path d="M386.85 143.22L383.08 146.98"/>
<path d="M364.27 165.79L360.51 169.55"/>
<path d="M307.83 223.73L304.07 227.5"/>
<path d="M375.18 159.4L378.94 155.63"/>
<path d="M397.76 136.82L401.52 133.06"/>
<path d="M289.02 246.31L285.26 250.07"/>
<path d="M318.74 217.34L322.51 213.58"/>
<path d="M299.93 239.91L303.69 236.15"/>
<path d="M399.64 169.93L388.95 169.93"/>
<path d="M377.06 169.93L366.38 169.93"/>
<path d="M358.25 169.93L347.57 169.93"/>
<path d="M339.44 169.93L328.75 169.93"/>
<path d="M320.63 169.93L309.94 169.93"/>
<path d="M301.81 169.93L291.13 169.93"/>
<path d="M283 169.93L272.31 169.93"/>
<path d="M264.19 169.93L253.5 169.93"/>
<path d="M245.38 169.93L234.69 169.93"/>
<path d="M226.56 169.93L215.88 169.93"/>
<path d="M207.75 169.93L197.06 169.93"/>
<path d="M188.94 169.93L178.25 169.93"/>
<path d="M170.12 169.93L159.44 169.93"/>
<path d="M401.52 169.55L383.08 169.55"/>
<path d="M378.94 169.55L360.51 169.55"/>
<path d="M360.13 169.55L341.7 169.55"/>
<path d="M341.32 169.55L322.88 169.55"/>
<path d="M322.51 169.55L304.07 169.55"/>
<path d="M303.69 169.55L285.26 169.55"/>
<path d="M284.88 169.55L266.45 169.55"/>
<path d="M266.07 169.55L247.63 169.55"/>
<path d="M247.26 169.55L228.82 169.55"/>
<path d="M228.44 169.55L210.01 169.55"/>
<path d="M209.63 169.55L191.19 169.55"/>
<path d="M190.82 169.55L172.38 169.55"/>
<path d="M172.01 169.55L153.57 169.55"/>
<path d="M397.76 165.79L386.85 165.79"/>
<path d="M375.18 165.79L364.27 165.79"/>
<path d="M356.37 165.79L345.46 165.79"/>
<path d="M337.56 165.79L326.65 165.79"/>
<path d="M318.74 165.79L307.83 165.79"/>
<path d="M299.93 165.79L289.02 165.79"/>
<path d="M281.12 165.79L270.21 165.79"/>
<path d="M262.31 165.79L251.4 165.79"/>
<path d="M243.49 165.79L232.58 165.79"/>
<path d="M224.68 165.79L213.77 165.79"/>
<path d="M205.87 165.79L194.96 165.79"/>
<path d="M187.06 165.79L176.14 165.79"/>
<path d="M168.24 165.79L157.33 165.79"/>
<path d="M157.33 159.4L168.24 159.4"/>
<path d="M176.14 159.4L187.06 159.4"/>
<path d="M194.96 159.4L205.87 159.4"/>
<path d="M213.77 159.4L224.68 159.4"/>
<path d="M232.58 159.4L243.49 159.4"/>
<path d="M251.4 159.4L262.31 159.4"/>
<path d="M270.21 159.4L281.12 159.4"/>
<path d="M289.02 159.4L299.93 159.4"/>
<path d="M307.83 159.4L318.74 159.4"/>
<path d="M326.65 159.4L337.56 159.4"/>
<path d="M345.46 159.4L356.37 159.4"/>
<path d="M364.27 159.4L375.18 159.4"/>
<path d="M386.85 159.4L397.76 159.4"/>
<path d="M432.94 158.08L441.97 158.08"/>
<path d="M470.56 158.08L479.59 158.08"/>
<path d="M153.57 155.63L172.01 155.63"/>
<path d="M172.38 155.63L190.82 155.63"/>
<path d="M191.19 155.63L209.63 155.63"/>
<path d="M210.01 155.63L228.44 155.63"/>
<path d="M228.82 155.63L247.26 155.63"/>
<path d="M247.63 155.63L266.07 155.63"/>
<path d="M266.45 155.63L284.88 155.63"/>
<path d="M285.26 155.63L303.69 155.63"/>
<path d="M304.07 155.63L322.51 155.63"/>
<path d="M322.88 155.63L341.32 155.63"/>
<path d="M341.7 155.63L360.13 155.63"/>
<path d="M360.51 155.63L378.94 155.63"/>
<path d="M383.08 155.63L401.52 155.63"/>
<path d="M270.21 136.82L266.45 133.06"/>
<path d="M299.93 165.79L303.69 169.55"/>
<path d="M281.12 143.22L284.88 146.98"/>
<path d="M386.85 239.91L383.08 236.15"/>
<path d="M364.27 217.34L360.51 213.58"/>
<path d="M307.83 159.4L304.07 155.63"/>
<path d="M375.18 223.73L378.94 227.5"/>
<path d="M397.76 246.31L401.52 250.07"/>
<path d="M289.02 136.82L285.26 133.06"/>
<path d="M318.74 165.79L322.51 169.55"/>
<path d="M299.93 143.22L303.69 146.98"/>
<path d="M335.45 213.2L335.45 208.68"/>
<path d="M335.45 132.68L335.45 128.17"/>
<path d="M337.56 136.82L337.56 143.22"/>
<path d="M337.56 159.4L337.56 165.79"/>
<path d="M337.56 217.34L337.56 223.73"/>
<path d="M337.56 239.91L337.56 246.31"/>
<path d="M339.44 253.83L339.44 250.45"/>
<path d="M339.44 208.68L339.44 201.72"/>
<path d="M339.44 173.32L339.44 169.93"/>
<path d="M339.44 128.17L339.44 121.21"/>
<path d="M340.6 261.92L340.6 254.96"/>
<path d="M340.6 181.41L340.6 174.45"/>
<path d="M340.76 296.16L340.76 268.32"/>
<path d="M340.76 114.81L340.76 86.97"/>
<path d="M341.32 133.06L341.32 146.98"/>
<path d="M341.32 155.63L341.32 169.55"/>
<path d="M341.32 213.58L341.32 227.5"/>
<path d="M341.32 236.15L341.32 250.07"/>
<path d="M341.7 250.07L341.7 236.15"/>
<path d="M341.7 227.5L341.7 213.58"/>
<path d="M341.7 169.55L341.7 155.63"/>
<path d="M341.7 146.98L341.7 133.06"/>
<path d="M342.41 121.21L342.41 128.17"/>
<path d="M342.41 201.72L342.41 208.68"/>
<path d="M343.01 293.91L343.01 270.58"/>
<path d="M343.01 112.55L343.01 89.22"/>
<path d="M343.58 129.29L343.58 132.68"/>
<path d="M343.58 174.45L343.58 181.41"/>
<path d="M343.58 209.81L343.58 213.2"/>
<path d="M343.58 254.96L343.58 261.92"/>
<path d="M345.46 246.31L345.46 239.91"/>
<path d="M345.46 223.73L345.46 217.34"/>
<path d="M345.46 165.79L345.46 159.4"/>
<path d="M345.46 143.22L345.46 136.82"/>
<path d="M347.57 169.93L347.57 174.45"/>
<path d="M347.57 250.45L347.57 254.96"/>
<path d="M326.65 223.73L322.88 227.5"/>
<path d="M386.85 165.79L383.08 169.55"/>
<path d="M307.83 246.31L304.07 250.07"/>
<path d="M337.56 217.34L341.32 213.58"/>
<path d="M397.76 159.4L401.52 155.63"/>
<path d="M318.74 239.91L322.51 236.15"/>
<path d="M345.46 223.73L341.7 227.5"/>
<path d="M492.01 149.61L481.1 149.61"/>
<path d="M469.06 149.61L458.15 149.61"/>
<path d="M454.38 149.61L443.47 149.61"/>
<path d="M431.43 149.61L420.52 149.61"/>
<path d="M527.38 148.67L521.36 148.67"/>
<path d="M401.52 146.98L383.08 146.98"/>
<path d="M378.94 146.98L360.51 146.98"/>
<path d="M360.13 146.98L341.7 146.98"/>
<path d="M341.32 146.98L322.88 146.98"/>
<path d="M322.51 146.98L304.07 146.98"/>
<path d="M303.69 146.98L285.26 146.98"/>
<path d="M284.88 146.98L266.45 146.98"/>
<path d="M266.07 146.98L247.63 146.98"/>
<path d="M247.26 146.98L228.82 146.98"/>
<path d="M228.44 146.98L210.01 146.98"/>
<path d="M209.63 146.98L191.19 146.98"/>
<path d="M190.82 146.98L172.38 146.98"/>
<path d="M172.01 146.98L153.57 146.98"/>
<path d="M527.38 146.41L521.36 146.41"/>
<path d="M487.31 143.59L481.1 143.59"/>
<path d="M469.06 143.59L462.85 143.59"/>
<path d="M449.68 143.59L443.47 143.59"/>
<path d="M431.43 143.59L425.22 143.59"/>
<path d="M397.76 143.22L386.85 143.22"/>
<path d="M375.18 143.22L364.27 143.22"/>
<path d="M356.37 143.22L345.46 143.22"/>
<path d="M337.56 143.22L326.65 143.22"/>
<path d="M318.74 143.22L307.83 143.22"/>
<path d="M299.93 143.22L289.02 143.22"/>
<path d="M281.12 143.22L270.21 143.22"/>
<path d="M262.31 143.22L251.4 143.22"/>
<path d="M243.49 143.22L232.58 143.22"/>
<path d="M224.68 143.22L213.77 143.22"/>
<path d="M205.87 143.22L194.96 143.22"/>
<path d="M187.06 143.22L176.14 143.22"/>
<path d="M168.24 143.22L157.33 143.22"/>
<path d="M157.33 136.82L168.24 136.82"/>
<path d="M176.14 136.82L187.06 136.82"/>
<path d="M194.96 136.82L205.87 136.82"/>
<path d="M213.77 136.82L224.68 136.82"/>
<path d="M232.58 136.82L243.49 136.82"/>
<path d="M251.4 136.82L262.31 136.82"/>
<path d="M270.21 136.82L281.12 136.82"/>
<path d="M289.02 136.82L299.93 136.82"/>
<path d="M307.83 136.82L318.74 136.82"/>
<path d="M326.65 136.82L337.56 136.82"/>
<path d="M345.46 136.82L356.37 136.82"/>
<path d="M364.27 136.82L375.18 136.82"/>
<path d="M386.85 136.82L397.76 136.82"/>
<path d="M425.22 136.44L431.43 136.44"/>
<path d="M443.47 136.44L449.68 136.44"/>
<path d="M462.85 136.44L469.06 136.44"/>
<path d="M481.1 136.44L487.31 136.44"/>
<path d="M153.57 133.06L172.01 133.06"/>
<path d="M172.38 133.06L190.82 133.06"/>
<path d="M191.19 133.06L209.63 133.06"/>
<path d="M210.01 133.06L228.44 133.06"/>
<path d="M228.82 133.06L247.26 133.06"/>
<path d="M247.63 133.06L266.07 133.06"/>
<path d="M266.45 133.06L284.88 133.06"/>
<path d="M285.26 133.06L303.69 133.06"/>
<path d="M304.07 133.06L322.51 133.06"/>
<path d="M322.88 133.06L341.32 133.06"/>
<path d="M341.7 133.06L360.13 133.06"/>
<path d="M360.51 133.06L378.94 133.06"/>
<path d="M383.08 133.06L401.52 133.06"/>
<path d="M326.65 159.4L322.88 155.63"/>
<path d="M386.85 217.34L383.08 213.58"/>
<path d="M307.83 136.82L304.07 133.06"/>
<path d="M337.56 165.79L341.32 169.55"/>
<path d="M397.76 223.73L401.52 227.5"/>
<path d="M318.74 143.22L322.51 146.98"/>
<path d="M345.46 159.4L341.7 155.63"/>
<path d="M354.26 213.2L354.26 208.68"/>
<path d="M354.26 132.68L354.26 128.17"/>
<path d="M356.37 136.82L356.37 143.22"/>
<path d="M356.37 159.4L356.37 165.79"/>
<path d="M356.37 217.34L356.37 223.73"/>
<path d="M356.37 239.91L356.37 246.31"/>
<path d="M358.25 253.83L358.25 250.45"/>
<path d="M358.25 208.68L358.25 201.72"/>
<path d="M358.25 173.32L358.25 169.93"/>
<path d="M358.25 128.17L358.25 121.21"/>
<path d="M359.42 261.92L359.42 254.96"/>
<path d="M359.42 181.41L359.42 174.45"/>
<path d="M360.13 133.06L360.13 146.98"/>
<path d="M360.13 155.63L360.13 169.55"/>
<path d="M360.13 213.58L360.13 227.5"/>
<path d="M360.13 236.15L360.13 250.07"/>
<path d="M360.51 250.07L360.51 236.15"/>
<path d="M360.51 227.5L360.51 213.58"/>
<path d="M360.51 169.55L360.51 155.63"/>
<path d="M360.51 146.98L360.51 133.06"/>
<path d="M361.22 121.21L361.22 128.17"/>
<path d="M361.22 201.72L361.22 208.68"/>
<path d="M362.39 129.29L362.39 132.68"/>
<path d="M362.39 174.45L362.39 181.41"/>
<path d="M362.39 209.81L362.39 213.2"/>
<path d="M362.39 254.96L362.39 261.92"/>
<path d="M364.27 246.31L364.27 239.91"/>
<path d="M364.27 223.73L364.27 217.34"/>
<path d="M364.27 165.79L364.27 159.4"/>
<path d="M364.27 143.22L364.27 136.82"/>
<path d="M366.38 169.93L366.38 174.45"/>
<path d="M366.38 250.45L366.38 254.96"/>
<path d="M425.22 143.59L420.52 149.61"/>
<path d="M326.65 246.31L322.88 250.07"/>
<path d="M356.37 217.34L360.13 213.58"/>
<path d="M337.56 239.91L341.32 236.15"/>
<path d="M364.27 223.73L360.51 227.5"/>
<path d="M345.46 246.31L341.7 250.07"/>
<path d="M375.18 217.34L378.94 213.58"/>
<path d="M155.45 132.68L166.14 132.68"/>
<path d="M174.26 132.68L184.95 132.68"/>
<path d="M193.08 132.68L203.76 132.68"/>
<path d="M211.89 132.68L222.57 132.68"/>
<path d="M230.7 132.68L241.39 132.68"/>
<path d="M249.51 132.68L260.2 132.68"/>
<path d="M268.33 132.68L279.01 132.68"/>
<path d="M287.14 132.68L297.82 132.68"/>
<path d="M305.95 132.68L316.64 132.68"/>
<path d="M324.76 132.68L335.45 132.68"/>
<path d="M343.58 132.68L354.26 132.68"/>
<path d="M362.39 132.68L373.08 132.68"/>
<path d="M384.96 132.68L395.65 132.68"/>
<path d="M124.03 131.36L116.51 131.36"/>
<path d="M513.83 131.36L521.36 131.36"/>
<path d="M124.03 130.61L129.3 130.61"/>
<path d="M508.56 130.61L513.83 130.61"/>
<path d="M420.52 130.42L431.43 130.42"/>
<path d="M443.47 130.42L454.38 130.42"/>
<path d="M458.15 130.42L469.06 130.42"/>
<path d="M481.1 130.42L492.01 130.42"/>
<path d="M166.14 128.17L170.12 128.17"/>
<path d="M184.95 128.17L188.94 128.17"/>
<path d="M203.76 128.17L207.75 128.17"/>
<path d="M222.57 128.17L226.56 128.17"/>
<path d="M241.39 128.17L245.38 128.17"/>
<path d="M260.2 128.17L264.19 128.17"/>
<path d="M279.01 128.17L283 128.17"/>
<path d="M297.82 128.17L301.81 128.17"/>
<path d="M316.64 128.17L320.63 128.17"/>
<path d="M335.45 128.17L339.44 128.17"/>
<path d="M354.26 128.17L358.25 128.17"/>
<path d="M373.08 128.17L377.06 128.17"/>
<path d="M395.65 128.17L399.64 128.17"/>
<path d="M479.59 121.96L470.56 121.96"/>
<path d="M441.97 121.96L432.94 121.96"/>
<path d="M399.64 121.21L383.8 121.21"/>
<path d="M377.06 121.21L361.22 121.21"/>
<path d="M358.25 121.21L342.41 121.21"/>
<path d="M339.44 121.21L323.6 121.21"/>
<path d="M320.63 121.21L304.79 121.21"/>
<path d="M301.81 121.21L285.97 121.21"/>
<path d="M283 121.21L267.16 121.21"/>
<path d="M264.19 121.21L248.35 121.21"/>
<path d="M245.38 121.21L229.54 121.21"/>
<path d="M226.56 121.21L210.72 121.21"/>
<path d="M207.75 121.21L191.91 121.21"/>
<path d="M188.94 121.21L173.1 121.21"/>
<path d="M170.12 121.21L154.28 121.21"/>
<path d="M375.37 114.81L340.76 114.81"/>
<path d="M326.65 136.82L322.88 133.06"/>
<path d="M356.37 165.79L360.13 169.55"/>
<path d="M337.56 143.22L341.32 146.98"/>
<path d="M364.27 159.4L360.51 155.63"/>
<path d="M345.46 136.82L341.7 133.06"/>
<path d="M375.18 165.79L378.94 169.55"/>
<path d="M420.52 233.52L425.22 239.54"/>
<path d="M373.08 213.2L373.08 208.68"/>
<path d="M373.08 132.68L373.08 128.17"/>
<path d="M373.11 293.91L373.11 270.58"/>
<path d="M373.11 112.55L373.11 89.22"/>
<path d="M375.18 136.82L375.18 143.22"/>
<path d="M375.18 159.4L375.18 165.79"/>
<path d="M375.18 217.34L375.18 223.73"/>
<path d="M375.18 239.91L375.18 246.31"/>
<path d="M375.37 296.16L375.37 268.32"/>
<path d="M375.37 114.81L375.37 86.97"/>
<path d="M377.06 253.83L377.06 250.45"/>
<path d="M377.06 208.68L377.06 201.72"/>
<path d="M377.06 173.32L377.06 169.93"/>
<path d="M377.06 128.17L377.06 121.21"/>
<path d="M378.23 261.92L378.23 254.96"/>
<path d="M378.23 181.41L378.23 174.45"/>
<path d="M378.94 133.06L378.94 146.98"/>
<path d="M378.94 155.63L378.94 169.55"/>
<path d="M378.94 213.58L378.94 227.5"/>
<path d="M378.94 236.15L378.94 250.07"/>
<path d="M383.08 250.07L383.08 236.15"/>
<path d="M383.08 227.5L383.08 213.58"/>
<path d="M383.08 169.55L383.08 155.63"/>
<path d="M383.08 146.98L383.08 133.06"/>
<path d="M383.8 121.21L383.8 128.17"/>
<path d="M383.8 201.72L383.8 208.68"/>
<path d="M384.96 129.29L384.96 132.68"/>
<path d="M384.96 174.45L384.96 181.41"/>
<path d="M384.96 209.81L384.96 213.2"/>
<path d="M384.96 254.96L384.96 261.92"/>
<path d="M386.85 246.31L386.85 239.91"/>
<path d="M386.85 223.73L386.85 217.34"/>
<path d="M386.85 165.79L386.85 159.4"/>
<path d="M386.85 143.22L386.85 136.82"/>
<path d="M388.95 169.93L388.95 174.45"/>
<path d="M388.95 250.45L388.95 254.96"/>
<path d="M449.68 136.44L454.38 130.42"/>
<path d="M356.37 239.91L360.13 236.15"/>
<path d="M386.85 223.73L383.08 227.5"/>
<path d="M364.27 246.31L360.51 250.07"/>
<path d="M278.67 333.04L274.91 336.8"/>
<path d="M375.18 239.91L378.94 236.15"/>
<path d="M397.76 217.34L401.52 213.58"/>
<path d="M373.11 112.55L343.01 112.55"/>
<path d="M373.11 102.77L343.01 102.77"/>
<path d="M343.01 102.02L373.11 102.02"/>
<path d="M519.85 101.26L527.38 101.26"/>
<path d="M101.46 99.01L118.91 99.01"/>
<path d="M99.2 96.75L117.71 96.75"/>
<path d="M356.37 143.22L360.13 146.98"/>
<path d="M386.85 159.4L383.08 155.63"/>
<path d="M364.27 136.82L360.51 133.06"/>
<path d="M278.67 50.09L274.91 46.33"/>
<path d="M375.18 143.22L378.94 146.98"/>
<path d="M397.76 165.79L401.52 169.55"/>
<path d="M454.38 252.71L449.68 246.69"/>
<path d="M395.65 213.2L395.65 208.68"/>
<path d="M395.65 132.68L395.65 128.17"/>
<path d="M397.76 136.82L397.76 143.22"/>
<path d="M397.76 159.4L397.76 165.79"/>
<path d="M397.76 217.34L397.76 223.73"/>
<path d="M397.76 239.91L397.76 246.31"/>
<path d="M399.64 253.83L399.64 250.45"/>
<path d="M399.64 208.68L399.64 201.72"/>
<path d="M399.64 173.32L399.64 169.93"/>
<path d="M399.64 128.17L399.64 121.21"/>
<path d="M400.8 261.92L400.8 254.96"/>
<path d="M400.8 181.41L400.8 174.45"/>
<path d="M401.52 133.06L401.52 146.98"/>
<path d="M401.52 155.63L401.52 169.55"/>
<path d="M401.52 213.58L401.52 227.5"/>
<path d="M401.52 236.15L401.52 250.07"/>
<path d="M462.85 143.59L458.15 149.61"/>
<path d="M425.22 195.14L420.52 201.16"/>
<path d="M386.85 246.31L383.08 250.07"/>
<path d="M397.76 239.91L401.52 236.15"/>
<path d="M470.19 92.23L375.37 92.23"/>
<path d="M167.68 92.23L340.76 92.23"/>
<path d="M343.01 89.22L373.11 89.22"/>
<path d="M167.68 86.97L470.19 86.97"/>
<path d="M519.85 86.21L525.12 86.21"/>
<path d="M517.59 83.96L527.38 83.96"/>
<path d="M519.85 83.2L517.59 83.2"/>
<path d="M470.94 81.85L166.93 81.85"/>
<path d="M470.94 80.95L166.93 80.95"/>
<path d="M99.2 80.95L63.83 80.95"/>
<path d="M61.58 78.69L101.46 78.69"/>
<path d="M386.85 136.82L383.08 133.06"/>
<path d="M397.76 143.22L401.52 146.98"/>
<path d="M458.15 233.52L462.85 239.54"/>
<path d="M425.22 187.99L420.52 181.97"/>
<path d="M414.88 336.8L414.88 313.47"/>
<path d="M414.88 69.66L414.88 46.33"/>
<path d="M418.64 333.04L418.64 311.21"/>
<path d="M418.64 71.92L418.64 50.09"/>
<path d="M420.52 252.71L420.52 233.52"/>
<path d="M420.52 201.16L420.52 181.97"/>
<path d="M420.52 149.61L420.52 130.42"/>
<path d="M423 60.87L423 71.16"/>
<path d="M423 311.97L423 322.26"/>
<path d="M425.22 246.69L425.22 239.54"/>
<path d="M425.22 195.14L425.22 187.99"/>
<path d="M425.22 143.59L425.22 136.44"/>
<path d="M487.31 136.44L492.01 130.42"/>
<path d="M449.68 187.99L454.38 181.97"/>
<path d="M170.31 71.92L278.67 71.92"/>
<path d="M310.28 71.92L418.64 71.92"/>
<path d="M450.24 71.92L506.31 71.92"/>
<path d="M138.71 71.16L170.31 71.16"/>
<path d="M278.67 71.16L310.28 71.16"/>
<path d="M418.64 71.16L450.24 71.16"/>
<path d="M174.08 69.66L274.91 69.66"/>
<path d="M314.04 69.66L414.88 69.66"/>
<path d="M454.01 69.66L506.31 69.66"/>
<path d="M450.24 64.39L448.36 64.39"/>
<path d="M310.28 64.39L278.67 64.39"/>
<path d="M170.31 64.39L138.71 64.39"/>
<path d="M425.37 62.13L435.91 62.13"/>
<path d="M492.01 252.71L487.31 246.69"/>
<path d="M454.38 201.16L449.68 195.14"/>
<path d="M431.43 123.46L431.43 136.44"/>
<path d="M431.43 143.59L431.43 156.57"/>
<path d="M431.43 175.01L431.43 187.99"/>
<path d="M431.43 195.14L431.43 208.12"/>
<path d="M431.43 226.56L431.43 239.54"/>
<path d="M431.43 246.69L431.43 259.67"/>
<path d="M437.48 321.9L437.48 311.97"/>
<path d="M437.48 71.16L437.48 61.23"/>
<path d="M443.47 261.17L443.47 246.69"/>
<path d="M443.47 239.54L443.47 226.56"/>
<path d="M443.47 208.12L443.47 195.14"/>
<path d="M443.47 187.99L443.47 175.01"/>
<path d="M443.47 156.57L443.47 143.59"/>
<path d="M443.47 136.44L443.47 123.46"/>
<path d="M462.85 195.14L458.15 201.16"/>
<path d="M425.22 246.69L420.52 252.71"/>
<path d="M487.31 187.99L492.01 181.97"/>
<path d="M449.68 239.54L454.38 233.52"/>
<path d="M418.64 52.35L450.24 52.35"/>
<path d="M138.71 50.09L170.31 50.09"/>
<path d="M278.67 50.09L310.28 50.09"/>
<path d="M418.64 50.09L450.24 50.09"/>
<path d="M134.95 46.33L174.08 46.33"/>
<path d="M274.91 46.33L314.04 46.33"/>
<path d="M414.88 46.33L454.01 46.33"/>
<path d="M458.15 181.97L462.85 187.99"/>
<path d="M420.52 130.42L425.22 136.44"/>
<path d="M492.01 201.16L487.31 195.14"/>
<path d="M454.38 149.61L449.68 143.59"/>
<path d="M448.36 56.45L448.36 71.16"/>
<path d="M448.36 326.68L448.36 311.97"/>
<path d="M449.68 136.44L449.68 143.59"/>
<path d="M449.68 187.99L449.68 195.14"/>
<path d="M449.68 239.54L449.68 246.69"/>
<path d="M450.24 50.09L450.24 71.92"/>
<path d="M450.24 311.21L450.24 333.04"/>
<path d="M454.01 46.33L454.01 69.66"/>
<path d="M454.01 313.47L454.01 336.8"/>
<path d="M454.38 130.42L454.38 149.61"/>
<path d="M454.38 181.97L454.38 201.16"/>
<path d="M454.38 233.52L454.38 252.71"/>
<path d="M458.15 252.71L458.15 233.52"/>
<path d="M458.15 201.16L458.15 181.97"/>
<path d="M458.15 149.61L458.15 130.42"/>
<path d="M462.85 246.69L462.85 239.54"/>
<path d="M462.85 195.14L462.85 187.99"/>
<path d="M462.85 143.59L462.85 136.44"/>
<path d="M462.85 246.69L458.15 252.71"/>
<path d="M61.58 35.8L527.38 35.8"/>
<path d="M63.83 33.54L525.12 33.54"/>
<path d="M462.85 136.44L458.15 130.42"/>
<path d="M469.06 123.46L469.06 136.44"/>
<path d="M469.06 143.59L469.06 156.57"/>
<path d="M469.06 175.01L469.06 187.99"/>
<path d="M469.06 195.14L469.06 208.12"/>
<path d="M469.06 226.56L469.06 239.54"/>
<path d="M469.06 246.69L469.06 259.67"/>
<path d="M470.19 296.16L470.19 290.9"/>
<path d="M470.19 92.23L470.19 86.97"/>
<path d="M470.94 296.11L470.94 302.18"/>
<path d="M470.94 87.02L470.94 80.95"/>
<path d="M481.1 259.67L481.1 246.69"/>
<path d="M481.1 239.54L481.1 226.56"/>
<path d="M481.1 208.12L481.1 195.14"/>
<path d="M481.1 187.99L481.1 175.01"/>
<path d="M481.1 156.57L481.1 143.59"/>
<path d="M481.1 136.44L481.1 123.46"/>
<path d="M487.31 239.54L492.01 233.52"/>
<path d="M418.64 333.04L414.88 336.8"/>
<path d="M425.37 321L418.64 324.58"/>
<path d="M418.64 58.55L425.37 62.13"/>
<path d="M418.64 50.09L414.88 46.33"/>
<path d="M492.01 149.61L487.31 143.59"/>
<path d="M487.31 136.44L487.31 143.59"/>
<path d="M487.31 187.99L487.31 195.14"/>
<path d="M487.31 239.54L487.31 246.69"/>
<path d="M492.01 130.42L492.01 149.61"/>
<path d="M492.01 181.97L492.01 201.16"/>
<path d="M492.01 233.52L492.01 252.71"/>
<path d="M502.54 172.75L502.54 210.38"/>
<path d="M504.05 210.38L504.05 194.95"/>
<path d="M504.05 188.18L504.05 172.75"/>
<path d="M506.31 69.66L506.31 71.92"/>
<path d="M506.31 313.47L506.31 311.21"/>
<path d="M506.31 210.38L506.31 197.21"/>
<path d="M506.31 185.92L506.31 172.75"/>
<path d="M508.56 210.38L508.56 252.52"/>
<path d="M508.56 172.75L508.56 130.61"/>
<path d="M511.57 210.38L511.57 172.75"/>
<path d="M513.83 252.52L513.83 130.61"/>
<path d="M514.37 251.76L514.37 131.36"/>
<path d="M517.59 299.93L517.59 290.41"/>
<path d="M517.59 92.72L517.59 83.2"/>
<path d="M519.85 83.2L519.85 101.26"/>
<path d="M519.85 281.87L519.85 299.93"/>
<path d="M520.45 251.76L520.45 131.36"/>
<path d="M521.36 251.76L521.36 131.36"/>
<path d="M525.12 349.59L525.12 236.71"/>
<path d="M525.12 146.41L525.12 33.54"/>
<path d="M527.38 347.33L527.38 35.8"/>
<path d="M101.46 284.12L99.86 284.78M99.86 284.78L99.2 286.38"/>
<path d="M63.83 302.18L62.24 302.84M62.24 302.84L61.58 304.44"/>
<path d="M61.58 347.33L62.24 348.93M62.24 348.93L63.83 349.59"/>
<path d="M119.57 285.1L118.76 284.38M118.76 284.38L117.71 284.12"/>
<path d="M117.71 286.38L125.5 295.65M125.5 295.65L134.95 303.25"/>
<path d="M108.98 251.01L110.28 263.44M110.28 263.44L114.12 275.34M114.12 275.34L120.33 286.19M120.33 286.19L128.64 295.52M128.64 295.52L138.71 302.93"/>
<path d="M116.51 251.76L118.23 264.81M118.23 264.81L123.26 276.97M123.26 276.97L131.28 287.42M131.28 287.42L141.72 295.43M141.72 295.43L153.88 300.46M153.88 300.46L166.93 302.18"/>
<path d="M117.41 251.76L119.1 264.58M119.1 264.58L124.04 276.52M124.04 276.52L131.91 286.78M131.91 286.78L142.17 294.65M142.17 294.65L154.11 299.59M154.11 299.59L166.93 301.28"/>
<path d="M124.03 252.52L125.52 263.81M125.52 263.81L129.88 274.34M129.88 274.34L136.82 283.38M136.82 283.38L145.86 290.32M145.86 290.32L156.38 294.68M156.38 294.68L167.68 296.16"/>
<path d="M123.49 251.76L125.31 264.21M125.31 264.21L130.63 275.62"/>
<path d="M129.3 252.52L131.18 264.38M131.18 264.38L136.63 275.08M136.63 275.08L145.12 283.57M145.12 283.57L155.82 289.02M155.82 289.02L167.68 290.9"/>
<path d="M170.12 173.32L170.28 173.89M170.28 173.89L170.71 174.31M170.71 174.31L171.29 174.45"/>
<path d="M155.45 209.81L155.29 209.24M155.29 209.24L154.86 208.82M154.86 208.82L154.28 208.68"/>
<path d="M170.12 253.83L170.28 254.41M170.28 254.41L170.71 254.82M170.71 254.82L171.29 254.96"/>
<path d="M174.26 209.81L174.11 209.24M174.11 209.24L173.68 208.82M173.68 208.82L173.1 208.68"/>
<path d="M188.94 173.32L189.1 173.89M189.1 173.89L189.52 174.31M189.52 174.31L190.1 174.45"/>
<path d="M207.75 173.32L207.91 173.89M207.91 173.89L208.34 174.31M208.34 174.31L208.92 174.45"/>
<path d="M226.56 173.32L226.72 173.89M226.72 173.89L227.15 174.31M227.15 174.31L227.73 174.45"/>
<path d="M245.38 173.32L245.53 173.89M245.53 173.89L245.96 174.31M245.96 174.31L246.54 174.45"/>
<path d="M264.19 173.32L264.35 173.89M264.35 173.89L264.77 174.31M264.77 174.31L265.35 174.45"/>
<path d="M283 173.32L283.16 173.89M283.16 173.89L283.59 174.31M283.59 174.31L284.17 174.45"/>
<path d="M188.94 253.83L189.1 254.41M189.1 254.41L189.52 254.82M189.52 254.82L190.1 254.96"/>
<path d="M193.08 209.81L192.92 209.24M192.92 209.24L192.49 208.82M192.49 208.82L191.91 208.68"/>
<path d="M207.75 253.83L207.91 254.41M207.91 254.41L208.34 254.82M208.34 254.82L208.92 254.96"/>
<path d="M211.89 209.81L211.73 209.24M211.73 209.24L211.3 208.82M211.3 208.82L210.72 208.68"/>
<path d="M226.56 253.83L226.72 254.41M226.72 254.41L227.15 254.82M227.15 254.82L227.73 254.96"/>
<path d="M230.7 209.81L230.54 209.24M230.54 209.24L230.12 208.82M230.12 208.82L229.54 208.68"/>
<path d="M245.38 253.83L245.53 254.41M245.53 254.41L245.96 254.82M245.96 254.82L246.54 254.96"/>
<path d="M249.51 209.81L249.36 209.24M249.36 209.24L248.93 208.82M248.93 208.82L248.35 208.68"/>
<path d="M264.19 253.83L264.35 254.41M264.35 254.41L264.77 254.82M264.77 254.82L265.35 254.96"/>
<path d="M268.33 209.81L268.17 209.24M268.17 209.24L267.74 208.82M267.74 208.82L267.16 208.68"/>
<path d="M283 253.83L283.16 254.41M283.16 254.41L283.59 254.82M283.59 254.82L284.17 254.96"/>
<path d="M287.14 209.81L286.98 209.24M286.98 209.24L286.55 208.82M286.55 208.82L285.97 208.68"/>
<path d="M134.95 79.88L125.5 87.47M125.5 87.47L117.71 96.75"/>
<path d="M138.71 80.2L128.64 87.61M128.64 87.61L120.33 96.94M120.33 96.94L114.12 107.79M114.12 107.79L110.28 119.69M110.28 119.69L108.98 132.12"/>
<path d="M166.93 80.95L153.88 82.66M153.88 82.66L141.72 87.7M141.72 87.7L131.28 95.71M131.28 95.71L123.26 106.16M123.26 106.16L118.23 118.32M118.23 118.32L116.51 131.36"/>
<path d="M166.93 81.85L154.11 83.54M154.11 83.54L142.17 88.48M142.17 88.48L131.91 96.35M131.91 96.35L124.04 106.61M124.04 106.61L119.1 118.55M119.1 118.55L117.41 131.36"/>
<path d="M167.68 86.97L156.38 88.45M156.38 88.45L145.86 92.81M145.86 92.81L136.82 99.75M136.82 99.75L129.88 108.79M129.88 108.79L125.52 119.32M125.52 119.32L124.03 130.61"/>
<path d="M130.63 107.51L129.89 108.67"/>
<path d="M129.71 108.97L125.08 119.74M125.08 119.74L123.49 131.36"/>
<path d="M167.68 92.23L155.82 94.11M155.82 94.11L145.12 99.56M145.12 99.56L136.63 108.05M136.63 108.05L131.18 118.75M131.18 118.75L129.3 130.61"/>
<path d="M61.58 78.69L62.24 80.28M62.24 80.28L63.83 80.95"/>
<path d="M99.2 96.75L99.86 98.35M99.86 98.35L101.46 99.01"/>
<path d="M63.83 33.54L62.24 34.2M62.24 34.2L61.58 35.8"/>
<path d="M155.45 129.29L155.29 128.72M155.29 128.72L154.86 128.3M154.86 128.3L154.28 128.17"/>
<path d="M174.26 129.29L174.11 128.72M174.11 128.72L173.68 128.3M173.68 128.3L173.1 128.17"/>
<path d="M193.08 129.29L192.92 128.72M192.92 128.72L192.49 128.3M192.49 128.3L191.91 128.17"/>
<path d="M211.89 129.29L211.73 128.72M211.73 128.72L211.3 128.3M211.3 128.3L210.72 128.17"/>
<path d="M230.7 129.29L230.54 128.72M230.54 128.72L230.12 128.3M230.12 128.3L229.54 128.17"/>
<path d="M249.51 129.29L249.36 128.72M249.36 128.72L248.93 128.3M248.93 128.3L248.35 128.17"/>
<path d="M268.33 129.29L268.17 128.72M268.17 128.72L267.74 128.3M267.74 128.3L267.16 128.17"/>
<path d="M287.14 129.29L286.98 128.72M286.98 128.72L286.55 128.3M286.55 128.3L285.97 128.17"/>
<path d="M373.11 293.91L373.77 295.5M373.77 295.5L375.37 296.16"/>
<path d="M340.76 296.16L342.35 295.5M342.35 295.5L343.01 293.91"/>
<path d="M301.81 173.32L301.97 173.89M301.97 173.89L302.4 174.31M302.4 174.31L302.98 174.45"/>
<path d="M320.63 173.32L320.78 173.89M320.78 173.89L321.21 174.31M321.21 174.31L321.79 174.45"/>
<path d="M339.44 173.32L339.6 173.89M339.6 173.89L340.02 174.31M340.02 174.31L340.6 174.45"/>
<path d="M358.25 173.32L358.41 173.89M358.41 173.89L358.84 174.31M358.84 174.31L359.42 174.45"/>
<path d="M377.06 173.32L377.22 173.89M377.22 173.89L377.65 174.31M377.65 174.31L378.23 174.45"/>
<path d="M301.81 253.83L301.97 254.41M301.97 254.41L302.4 254.82M302.4 254.82L302.98 254.96"/>
<path d="M305.95 209.81L305.79 209.24M305.79 209.24L305.37 208.82M305.37 208.82L304.79 208.68"/>
<path d="M320.63 253.83L320.78 254.41M320.78 254.41L321.21 254.82M321.21 254.82L321.79 254.96"/>
<path d="M324.76 209.81L324.61 209.24M324.61 209.24L324.18 208.82M324.18 208.82L323.6 208.68"/>
<path d="M339.44 253.83L339.6 254.41M339.6 254.41L340.02 254.82M340.02 254.82L340.6 254.96"/>
<path d="M343.58 209.81L343.42 209.24M343.42 209.24L342.99 208.82M342.99 208.82L342.41 208.68"/>
<path d="M358.25 253.83L358.41 254.41M358.41 254.41L358.84 254.82M358.84 254.82L359.42 254.96"/>
<path d="M362.39 209.81L362.23 209.24M362.23 209.24L361.8 208.82M361.8 208.82L361.22 208.68"/>
<path d="M377.06 253.83L377.22 254.41M377.22 254.41L377.65 254.82M377.65 254.82L378.23 254.96"/>
<path d="M399.64 173.32L399.8 173.89M399.8 173.89L400.22 174.31M400.22 174.31L400.8 174.45"/>
<path d="M384.96 209.81L384.81 209.24M384.81 209.24L384.38 208.82M384.38 208.82L383.8 208.68"/>
<path d="M399.64 253.83L399.8 254.41M399.8 254.41L400.22 254.82M400.22 254.82L400.8 254.96"/>
<path d="M506.31 313.47L513.08 311.66M513.08 311.66L518.04 306.7M518.04 306.7L519.85 299.93"/>
<path d="M506.31 311.21L511.95 309.7M511.95 309.7L516.08 305.57M516.08 305.57L517.59 299.93"/>
<path d="M525.12 349.59L526.71 348.93M526.71 348.93L527.38 347.33"/>
<path d="M527.38 299.17L526.71 297.58M526.71 297.58L525.12 296.92"/>
<path d="M519.85 296.92L518.25 297.58M518.25 297.58L517.59 299.17"/>
<path d="M470.94 302.18L483.99 300.46M483.99 300.46L496.15 295.43M496.15 295.43L506.59 287.42M506.59 287.42L514.6 276.97M514.6 276.97L519.64 264.81M519.64 264.81L521.36 251.76"/>
<path d="M470.94 301.28L483.75 299.59M483.75 299.59L495.7 294.65M495.7 294.65L505.95 286.78M505.95 286.78L513.82 276.52M513.82 276.52L518.77 264.58M518.77 264.58L520.45 251.76"/>
<path d="M470.19 296.16L481.48 294.68M481.48 294.68L492.01 290.32M492.01 290.32L501.05 283.38M501.05 283.38L507.98 274.34M507.98 274.34L512.34 263.81M512.34 263.81L513.83 252.52"/>
<path d="M507.13 275.78L507.97 274.46"/>
<path d="M508.15 274.16L512.79 263.39M512.79 263.39L514.37 251.76"/>
<path d="M470.19 290.9L482.05 289.02M482.05 289.02L492.74 283.57M492.74 283.57L501.23 275.08M501.23 275.08L506.69 264.38M506.69 264.38L508.56 252.52"/>
<path d="M513.83 188.18L513.17 186.58M513.17 186.58L511.57 185.92"/>
<path d="M511.57 197.21L513.17 196.55M513.17 196.55L513.83 194.95"/>
<path d="M470.56 225.05L469.5 225.49M469.5 225.49L469.06 226.56"/>
<path d="M432.94 225.05L431.87 225.49M431.87 225.49L431.43 226.56"/>
<path d="M470.56 173.5L469.5 173.95M469.5 173.95L469.06 175.01"/>
<path d="M432.94 173.5L431.87 173.95M431.87 173.95L431.43 175.01"/>
<path d="M469.06 259.67L469.5 260.73M469.5 260.73L470.56 261.17"/>
<path d="M431.43 259.67L431.87 260.73M431.87 260.73L432.94 261.17"/>
<path d="M469.06 208.12L469.5 209.18M469.5 209.18L470.56 209.62"/>
<path d="M431.43 208.12L431.87 209.18M431.87 209.18L432.94 209.62"/>
<path d="M441.97 209.62L443.03 209.18M443.03 209.18L443.47 208.12"/>
<path d="M479.59 261.17L480.66 260.73M480.66 260.73L481.1 259.67"/>
<path d="M479.59 209.62L480.66 209.18M480.66 209.18L481.1 208.12"/>
<path d="M481.1 226.56L480.66 225.49M480.66 225.49L479.59 225.05"/>
<path d="M443.47 226.56L443.03 225.49M443.03 225.49L441.97 225.05"/>
<path d="M481.1 175.01L480.66 173.95M480.66 173.95L479.59 173.5"/>
<path d="M443.47 175.01L443.03 173.95M443.03 173.95L441.97 173.5"/>
<path d="M117.71 96.75L118.91 99.01"/>
<path d="M521.36 131.36L519.64 118.32M519.64 118.32L514.6 106.16M514.6 106.16L506.59 95.71M506.59 95.71L496.15 87.7M496.15 87.7L483.99 82.66M483.99 82.66L470.94 80.95"/>
<path d="M520.45 131.36L518.77 118.55M518.77 118.55L513.82 106.61M513.82 106.61L505.95 96.35M505.95 96.35L495.7 88.48M495.7 88.48L483.75 83.54M483.75 83.54L470.94 81.85"/>
<path d="M513.83 130.61L512.34 119.32M512.34 119.32L507.98 108.79M507.98 108.79L501.05 99.75M501.05 99.75L492.01 92.81M492.01 92.81L481.48 88.45M481.48 88.45L470.19 86.97"/>
<path d="M514.37 131.36L512.52 118.82M512.52 118.82L507.13 107.35"/>
<path d="M508.56 130.61L506.69 118.75M506.69 118.75L501.23 108.05M501.23 108.05L492.74 99.56M492.74 99.56L482.05 94.11M482.05 94.11L470.19 92.23"/>
<path d="M519.85 83.2L518.04 76.43M518.04 76.43L513.08 71.47M513.08 71.47L506.31 69.66"/>
<path d="M517.59 83.2L516.08 77.56M516.08 77.56L511.95 73.43M511.95 73.43L506.31 71.92"/>
<path d="M343.01 89.22L342.35 87.63M342.35 87.63L340.76 86.97"/>
<path d="M375.37 86.97L373.77 87.63M373.77 87.63L373.11 89.22"/>
<path d="M525.12 86.21L526.71 85.55M526.71 85.55L527.38 83.96"/>
<path d="M517.59 83.96L518.25 85.55M518.25 85.55L519.85 86.21"/>
<path d="M527.38 35.8L526.71 34.2M526.71 34.2L525.12 33.54"/>
<path d="M443.47 123.46L443.03 122.4M443.03 122.4L441.97 121.96"/>
<path d="M432.94 121.96L431.87 122.4M431.87 122.4L431.43 123.46"/>
<path d="M470.56 121.96L469.5 122.4M469.5 122.4L469.06 123.46"/>
<path d="M481.1 123.46L480.66 122.4M480.66 122.4L479.59 121.96"/>
<path d="M479.59 158.08L480.66 157.64M480.66 157.64L481.1 156.57"/>
<path d="M469.06 156.57L469.5 157.64M469.5 157.64L470.56 158.08"/>
<path d="M441.97 158.08L443.03 157.64M443.03 157.64L443.47 156.57"/>
<path d="M431.43 156.57L431.87 157.64M431.87 157.64L432.94 158.08"/>
<path d="M305.95 129.29L305.79 128.72M305.79 128.72L305.37 128.3M305.37 128.3L304.79 128.17"/>
<path d="M324.76 129.29L324.61 128.72M324.61 128.72L324.18 128.3M324.18 128.3L323.6 128.17"/>
<path d="M343.58 129.29L343.42 128.72M343.42 128.72L342.99 128.3M342.99 128.3L342.41 128.17"/>
<path d="M362.39 129.29L362.23 128.72M362.23 128.72L361.8 128.3M361.8 128.3L361.22 128.17"/>
<path d="M384.96 129.29L384.81 128.72M384.81 128.72L384.38 128.3M384.38 128.3L383.8 128.17"/>
<path d="M343.01 112.55L340.76 114.81"/>
<path d="M517.59 92.72L517.6 93M517.6 93L517.61 93.27M517.61 93.27L517.65 93.83M517.65 93.83L517.72 94.38M517.72 94.38L517.82 94.93M517.82 94.93L517.93 95.47M517.93 95.47L518.05 96.01M518.05 96.01L518.2 96.55M518.2 96.55L518.35 97.08M518.35 97.08L518.52 97.61M518.52 97.61L518.69 98.14M518.69 98.14L519.06 99.19M519.06 99.19L519.45 100.23M519.45 100.23L519.85 101.26"/>
<path d="M373.11 112.55L375.37 114.81"/>
<path d="M373.11 93.17L373.12 93.09M373.12 93.09L373.14 93.02M373.14 93.02L373.18 92.95M373.18 92.95L373.22 92.88M373.22 92.88L373.28 92.82M373.28 92.82L373.34 92.76M373.34 92.76L373.49 92.66M373.49 92.66L373.64 92.57M373.64 92.57L373.8 92.5M373.8 92.5L373.95 92.44M373.95 92.44L374.1 92.4M374.1 92.4L374.41 92.32M374.41 92.32L374.73 92.27M374.73 92.27L375.05 92.24M375.05 92.24L375.37 92.23"/>
<path d="M343.01 289.96L343 290.04M343 290.04L342.98 290.11M342.98 290.11L342.95 290.18M342.95 290.18L342.9 290.25M342.9 290.25L342.85 290.31M342.85 290.31L342.78 290.37M342.78 290.37L342.64 290.47M342.64 290.47L342.48 290.56M342.48 290.56L342.33 290.63M342.33 290.63L342.18 290.69M342.18 290.69L342.02 290.73M342.02 290.73L341.71 290.81M341.71 290.81L341.4 290.86M341.4 290.86L341.08 290.89M341.08 290.89L340.76 290.9"/>
<path d="M373.11 270.58L375.37 268.32"/>
<path d="M99.2 80.95L101.46 78.69"/>
<path d="M343.01 270.58L340.76 268.32"/>
<path d="M99.2 302.18L101.46 304.44"/>
<path d="M506.31 197.21L504.05 194.95"/>
<path d="M506.31 185.92L504.05 188.18"/>
<path d="M137.2 302.02L137.02 301.91M137.02 301.91L136.83 301.82M136.83 301.82L136.63 301.74M136.63 301.74L136.43 301.68M136.43 301.68L136.32 301.67M136.32 301.67L136.22 301.66M136.22 301.66L136.11 301.65M136.11 301.65L136 301.66M136 301.66L135.9 301.67M135.9 301.67L135.8 301.7M135.8 301.7L135.7 301.73M135.7 301.73L135.6 301.78M135.6 301.78L135.51 301.83M135.51 301.83L135.43 301.9M135.43 301.9L135.35 301.97M135.35 301.97L135.28 302.05M135.28 302.05L135.22 302.14M135.22 302.14L135.17 302.23M135.17 302.23L135.12 302.32M135.12 302.32L135.08 302.42M135.08 302.42L135.02 302.62M135.02 302.62L134.98 302.83M134.98 302.83L134.95 303.04M134.95 303.04L134.95 303.25"/>
<path d="M134.95 79.88L134.95 80.09M134.95 80.09L134.98 80.3M134.98 80.3L135.02 80.51M135.02 80.51L135.08 80.71M135.08 80.71L135.12 80.81M135.12 80.81L135.17 80.9M135.17 80.9L135.22 80.99M135.22 80.99L135.28 81.08M135.28 81.08L135.35 81.16M135.35 81.16L135.43 81.23M135.43 81.23L135.51 81.3M135.51 81.3L135.6 81.35M135.6 81.35L135.7 81.4M135.7 81.4L135.8 81.43M135.8 81.43L135.9 81.46M135.9 81.46L136 81.47M136 81.47L136.11 81.48M136.11 81.48L136.22 81.47M136.22 81.47L136.32 81.46M136.32 81.46L136.43 81.44M136.43 81.44L136.63 81.39M136.63 81.39L136.83 81.31M136.83 81.31L137.02 81.22M137.02 81.22L137.2 81.11"/>
<path d="M340.76 92.23L341.08 92.24M341.08 92.24L341.4 92.27M341.4 92.27L341.71 92.32M341.71 92.32L342.02 92.4M342.02 92.4L342.18 92.44M342.18 92.44L342.33 92.5M342.33 92.5L342.48 92.57M342.48 92.57L342.64 92.66M342.64 92.66L342.78 92.76M342.78 92.76L342.85 92.82M342.85 92.82L342.9 92.88M342.9 92.88L342.95 92.95M342.95 92.95L342.98 93.02M342.98 93.02L343 93.09M343 93.09L343.01 93.17"/>
<path d="M375.37 290.9L375.05 290.89M375.05 290.89L374.73 290.86M374.73 290.86L374.41 290.81M374.41 290.81L374.1 290.73M374.1 290.73L373.95 290.69M373.95 290.69L373.8 290.63M373.8 290.63L373.64 290.56M373.64 290.56L373.49 290.47M373.49 290.47L373.34 290.37M373.34 290.37L373.28 290.31M373.28 290.31L373.22 290.25M373.22 290.25L373.18 290.18M373.18 290.18L373.14 290.11M373.14 290.11L373.12 290.04M373.12 290.04L373.11 289.96"/>
<path d="M519.85 281.87L519.45 282.9M519.45 282.9L519.06 283.94M519.06 283.94L518.69 284.99M518.69 284.99L518.52 285.52M518.52 285.52L518.35 286.05M518.35 286.05L518.2 286.58M518.2 286.58L518.05 287.12M518.05 287.12L517.93 287.66M517.93 287.66L517.82 288.2M517.82 288.2L517.72 288.75M517.72 288.75L517.65 289.3M517.65 289.3L517.61 289.86M517.61 289.86L517.6 290.13M517.6 290.13L517.59 290.41"/>
<path d="M174.08 313.47L173.77 312.34M173.77 312.34L172.95 311.52M172.95 311.52L171.82 311.21"/>
<path d="M314.04 313.47L313.74 312.34M313.74 312.34L312.91 311.52M312.91 311.52L311.78 311.21"/>
<path d="M277.17 311.21L276.04 311.52M276.04 311.52L275.21 312.34M275.21 312.34L274.91 313.47"/>
<path d="M454.01 313.47L453.7 312.34M453.7 312.34L452.88 311.52M452.88 311.52L451.75 311.21"/>
<path d="M417.13 311.21L416.01 311.52M416.01 311.52L415.18 312.34M415.18 312.34L414.88 313.47"/>
<path d="M414.88 69.66L415.18 70.79M415.18 70.79L416.01 71.61M416.01 71.61L417.13 71.92"/>
<path d="M451.75 71.92L452.88 71.61M452.88 71.61L453.7 70.79M453.7 70.79L454.01 69.66"/>
<path d="M274.91 69.66L275.21 70.79M275.21 70.79L276.04 71.61M276.04 71.61L277.17 71.92"/>
<path d="M311.78 71.92L312.91 71.61M312.91 71.61L313.74 70.79M313.74 70.79L314.04 69.66"/>
<path d="M171.82 71.92L172.95 71.61M172.95 71.61L173.77 70.79M173.77 70.79L174.08 69.66"/>
<path d="M33.63 244.85L36.18 243.57M36.18 243.57L40 239.75M40 239.75L40 266.5M70.58 248.67L69.3 252.49M69.3 252.49L66.75 255.04M66.75 255.04L62.93 256.31M62.93 256.31L61.66 256.31M61.66 256.31L57.83 255.04M57.83 255.04L55.29 252.49M55.29 252.49L54.01 248.67M54.01 248.67L54.01 247.39M54.01 247.39L55.29 243.57M55.29 243.57L57.83 241.02M57.83 241.02L61.66 239.75M61.66 239.75L62.93 239.75M62.93 239.75L66.75 241.02M66.75 241.02L69.3 243.57M69.3 243.57L70.58 248.67M70.58 248.67L70.58 255.04M70.58 255.04L69.3 261.41M69.3 261.41L66.75 265.23M66.75 265.23L62.93 266.5M62.93 266.5L60.38 266.5M60.38 266.5L56.56 265.23M56.56 265.23L55.29 262.68"/>
<path d="M32.99 196.83L47.01 196.83M47.01 196.83L39.36 207.02M39.36 207.02L43.18 207.02M43.18 207.02L45.73 208.3M45.73 208.3L47.01 209.57M47.01 209.57L48.28 213.39M48.28 213.39L48.28 215.94M48.28 215.94L47.01 219.76M47.01 219.76L44.46 222.31M44.46 222.31L40.63 223.58M40.63 223.58L36.81 223.58M36.81 223.58L32.99 222.31M32.99 222.31L31.72 221.04M31.72 221.04L30.44 218.49M57.2 203.2L57.2 201.92M57.2 201.92L58.47 199.38M58.47 199.38L59.75 198.1M59.75 198.1L62.29 196.83M62.29 196.83L67.39 196.83M67.39 196.83L69.94 198.1M69.94 198.1L71.21 199.38M71.21 199.38L72.49 201.92M72.49 201.92L72.49 204.47M72.49 204.47L71.21 207.02M71.21 207.02L68.66 210.84M68.66 210.84L55.92 223.58M55.92 223.58L73.76 223.58"/>
<path d="M43.18 156.59L30.44 174.42M30.44 174.42L49.55 174.42M43.18 156.59L43.18 183.34M71.21 156.59L58.47 156.59M58.47 156.59L57.2 168.05M57.2 168.05L58.47 166.78M58.47 166.78L62.29 165.5M62.29 165.5L66.12 165.5M66.12 165.5L69.94 166.78M69.94 166.78L72.49 169.33M72.49 169.33L73.76 173.15M73.76 173.15L73.76 175.7M73.76 175.7L72.49 179.52M72.49 179.52L69.94 182.07M69.94 182.07L66.12 183.34M66.12 183.34L62.29 183.34M62.29 183.34L58.47 182.07M58.47 182.07L57.2 180.79M57.2 180.79L55.92 178.24"/>
<path d="M45.73 117.78L32.99 117.78M32.99 117.78L31.72 129.25M31.72 129.25L32.99 127.98M32.99 127.98L36.81 126.7M36.81 126.7L40.63 126.7M40.63 126.7L44.46 127.98M44.46 127.98L47.01 130.52M47.01 130.52L48.28 134.35M48.28 134.35L48.28 136.89M48.28 136.89L47.01 140.72M47.01 140.72L44.46 143.27M44.46 143.27L40.63 144.54M40.63 144.54L36.81 144.54M36.81 144.54L32.99 143.27M32.99 143.27L31.72 141.99M31.72 141.99L30.44 139.44M62.29 117.78L58.47 119.06M58.47 119.06L57.2 121.61M57.2 121.61L57.2 124.15M57.2 124.15L58.47 126.7M58.47 126.7L61.02 127.98M61.02 127.98L66.12 129.25M66.12 129.25L69.94 130.52M69.94 130.52L72.49 133.07M72.49 133.07L73.76 135.62M73.76 135.62L73.76 139.44M73.76 139.44L72.49 141.99M72.49 141.99L71.21 143.27M71.21 143.27L67.39 144.54M67.39 144.54L62.29 144.54M62.29 144.54L58.47 143.27M58.47 143.27L57.2 141.99M57.2 141.99L55.92 139.44M55.92 139.44L55.92 135.62M55.92 135.62L57.2 133.07M57.2 133.07L59.75 130.52M59.75 130.52L63.57 129.25M63.57 129.25L68.66 127.98M68.66 127.98L71.21 126.7M71.21 126.7L72.49 124.15M72.49 124.15L72.49 121.61M72.49 121.61L71.21 119.06M71.21 119.06L67.39 117.78M67.39 117.78L62.29 117.78"/>
<path d="M557.43 235.54L559.97 234.26M559.97 234.26L563.8 230.44M563.8 230.44L563.8 257.2"/>
<path d="M554.24 178.43L568.26 178.43M568.26 178.43L560.61 188.63M560.61 188.63L564.43 188.63M564.43 188.63L566.98 189.9M566.98 189.9L568.26 191.17M568.26 191.17L569.53 195M569.53 195L569.53 197.55M569.53 197.55L568.26 201.37M568.26 201.37L565.71 203.92M565.71 203.92L561.89 205.19M561.89 205.19L558.06 205.19M558.06 205.19L554.24 203.92M554.24 203.92L552.97 202.64M552.97 202.64L551.69 200.09"/>
<path d="M566.98 127.09L554.24 127.09M554.24 127.09L552.97 138.56M552.97 138.56L554.24 137.28M554.24 137.28L558.06 136.01M558.06 136.01L561.89 136.01M561.89 136.01L565.71 137.28M565.71 137.28L568.26 139.83M568.26 139.83L569.53 143.65M569.53 143.65L569.53 146.2M569.53 146.2L568.26 150.02M568.26 150.02L565.71 152.57M565.71 152.57L561.89 153.85M561.89 153.85L558.06 153.85M558.06 153.85L554.24 152.57M554.24 152.57L552.97 151.3M552.97 151.3L551.69 148.75"/>
</g>
</g>
</svg>
