<?xml version="1.0" standalone="no"?><svg xmlns="http://www.w3.org/2000/svg" width="600.000" height="450.000" viewBox="0.0 0.0 600.000 450.000" version="1.1">
<title>Acme Converter - Post-processed with EDS-Designer: 14.44 (info@symca.com)</title>
<desc>Acme Converter - Post-processed with EDS-Designer: 14.44 (info@symca.com)</desc>
<g id="EDS_STYLE_GROUP" fill="none" stroke="black" stroke-width="1.0">
<g id="0" display="visible">
<path d="M142.09 283.81L142.09 135.28"/>
<path d="M160.31 302.04L446.45 302.04"/>
<path d="M464.67 201.8L464.67 283.81"/>
<path d="M464.67 201.8L464.67 135.28"/>
<path d="M316.14 117.06L446.45 117.06"/>
<path d="M160.31 117.06L181.27 117.06"/>
<path d="M195.85 117.06L301.56 117.06"/>
<path d="M160.31 117.06L153.34 118.44M153.34 118.44L147.43 122.39M147.43 122.39L143.47 128.31M143.47 128.31L142.09 135.28"/>
<path d="M142.09 283.81L143.47 290.79M143.47 290.79L147.43 296.7M147.43 296.7L153.34 300.65M153.34 300.65L160.31 302.04"/>
<path d="M446.45 302.04L453.42 300.65M453.42 300.65L459.33 296.7M459.33 296.7L463.28 290.79M463.28 290.79L464.67 283.81"/>
<path d="M464.67 135.28L463.28 128.31M463.28 128.31L459.33 122.39M459.33 122.39L453.42 118.44M453.42 118.44L446.45 117.06"/>
<path d="M316.14 117.06L316.14 80.6"/>
<path d="M181.27 117.06L181.27 80.6"/>
<path d="M195.85 117.06L195.85 80.6"/>
<path d="M301.56 117.06L301.56 80.6"/>
<path d="M206.79 96.1L206.79 71.49"/>
<path d="M206.79 96.1L206.79 100.65"/>
<path d="M206.79 115.23L206.79 100.65"/>
<path d="M206.79 115.23L206.79 117.06"/>
<path d="M290.62 96.1L290.62 71.49"/>
<path d="M290.62 96.1L290.62 100.65"/>
<path d="M290.62 115.23L290.62 100.65"/>
<path d="M290.62 115.23L290.62 117.06"/>
<path d="M206.79 115.23L290.62 115.23"/>
<path d="M161.78 201.8L160.92 218.28M160.92 218.28L163.96 234.5M163.96 234.5L170.72 249.55M170.72 249.55L180.83 262.58M180.83 262.58L193.72 272.88M193.72 272.88L208.68 279.86M208.68 279.86L224.85 283.13M224.85 283.13L241.34 282.51M241.34 282.51L257.22 278.03M257.22 278.03L271.6 269.94M271.6 269.94L283.68 258.7M283.68 258.7L292.77 244.94M292.77 244.94L298.38 229.42M298.38 229.42L300.19 213.02M300.19 213.02L298.09 196.65M298.09 196.65L292.2 181.24M292.2 181.24L282.85 167.64M282.85 167.64L270.57 156.62"/>
<path d="M226.83 144.03L211.42 146.59M211.42 146.59L196.96 152.52M196.96 152.52L184.19 161.52M184.19 161.52L173.74 173.14M173.74 173.14L166.15 186.8M166.15 186.8L161.78 201.8"/>
<path d="M270.58 156.61L257.03 149.28M257.03 149.28L242.21 145.01M242.21 145.01L226.83 144.02"/>
<path d="M432.42 254.97L440.21 241.44M440.21 241.44L444.79 226.52M444.79 226.52L445.94 210.95M445.94 210.95L443.59 195.52M443.59 195.52L437.87 180.99M437.87 180.99L429.06 168.11M429.06 168.11L417.6 157.5"/>
<path d="M334.96 269.79L348.49 277.58M348.49 277.58L363.41 282.16M363.41 282.16L378.98 283.31M378.98 283.31L394.41 280.96M394.41 280.96L408.93 275.24M408.93 275.24L421.82 266.43M421.82 266.43L432.42 254.97"/>
<path d="M334.96 269.79L321.19 283.56"/>
<path d="M321.19 283.56L306.37 268.74"/>
<path d="M306.37 268.74L320.14 254.97"/>
<path d="M326.99 164.35L316.8 177.28M316.8 177.28L309.94 192.24M309.94 192.24L306.77 208.39M306.77 208.39L307.47 224.84M307.47 224.84L312.01 240.66M312.01 240.66L320.14 254.97"/>
<path d="M313.78 151.15L320.87 144.06"/>
<path d="M355.49 144.06L320.87 144.06"/>
<path d="M355.49 147.11L355.49 144.06"/>
<path d="M417.6 157.5L403.44 149.44M403.44 149.44L387.79 144.89M387.79 144.89L371.51 144.1M371.51 144.1L355.49 147.11"/>
<path d="M316.14 80.6L312.17 71.06M312.17 71.06L305.23 63.39M305.23 63.39L296.13 58.49M296.13 58.49L285.92 56.91"/>
<path d="M211.49 56.91L201.27 58.49M201.27 58.49L192.18 63.39M192.18 63.39L185.24 71.06M185.24 71.06L181.27 80.6"/>
<path d="M204.96 71.49L200.41 72.71M200.41 72.71L197.07 76.05M197.07 76.05L195.85 80.6"/>
<path d="M301.56 80.6L300.34 76.05M300.34 76.05L297 72.71M297 72.71L292.44 71.49"/>
<path d="M206.79 96.1L290.62 96.1"/>
<path d="M206.79 100.65L290.62 100.65"/>
<path d="M211.49 56.91L285.92 56.91"/>
<path d="M292.44 71.49L204.96 71.49"/>
<path d="M313.78 151.15L326.99 164.35"/>
<path d="M169.3 393.17L169.3 338.49M171.9 338.49L171.9 393.17M161.49 338.49L192.73 338.49M192.73 338.49L200.54 341.09M200.54 341.09L203.14 343.7M203.14 343.7L205.75 348.9M205.75 348.9L205.75 354.11M205.75 354.11L203.14 359.32M203.14 359.32L200.54 361.92M200.54 361.92L192.73 364.53M192.73 338.49L197.94 341.09M197.94 341.09L200.54 343.7M200.54 343.7L203.14 348.9M203.14 348.9L203.14 354.11M203.14 354.11L200.54 359.32M200.54 359.32L197.94 361.92M197.94 361.92L192.73 364.53M171.9 364.53L192.73 364.53M192.73 364.53L200.54 367.13M200.54 367.13L203.14 369.73M203.14 369.73L205.75 374.94M205.75 374.94L205.75 382.75M205.75 382.75L203.14 387.96M203.14 387.96L200.54 390.56M200.54 390.56L192.73 393.17M192.73 393.17L161.49 393.17M192.73 364.53L197.94 367.13M197.94 367.13L200.54 369.73M200.54 369.73L203.14 374.94M203.14 374.94L203.14 382.75M203.14 382.75L200.54 387.96M200.54 387.96L197.94 390.56M197.94 390.56L192.73 393.17M226.57 393.17L226.57 338.49M229.18 338.49L229.18 393.17M218.76 338.49L250.01 338.49M250.01 338.49L257.82 341.09M257.82 341.09L260.42 343.7M260.42 343.7L263.02 348.9M263.02 348.9L263.02 354.11M263.02 354.11L260.42 359.32M260.42 359.32L257.82 361.92M257.82 361.92L250.01 364.53M250.01 364.53L229.18 364.53M250.01 338.49L255.21 341.09M255.21 341.09L257.82 343.7M257.82 343.7L260.42 348.9M260.42 348.9L260.42 354.11M260.42 354.11L257.82 359.32M257.82 359.32L255.21 361.92M255.21 361.92L250.01 364.53M218.76 393.17L236.99 393.17M242.2 364.53L247.4 367.13M247.4 367.13L250.01 369.73M250.01 369.73L257.82 387.96M257.82 387.96L260.42 390.56M260.42 390.56L263.02 390.56M263.02 390.56L265.63 387.96M247.4 367.13L250.01 372.34M250.01 372.34L255.21 390.56M255.21 390.56L257.82 393.17M257.82 393.17L263.02 393.17M263.02 393.17L265.63 387.96M265.63 387.96L265.63 385.35M294.27 338.49L286.46 341.09M286.46 341.09L281.25 346.3M281.25 346.3L278.65 351.51M278.65 351.51L276.04 361.92M276.04 361.92L276.04 369.73M276.04 369.73L278.65 380.15M278.65 380.15L281.25 385.35M281.25 385.35L286.46 390.56M286.46 390.56L294.27 393.17M294.27 393.17L299.48 393.17M299.48 393.17L307.29 390.56M307.29 390.56L312.49 385.35M312.49 385.35L315.1 380.15M315.1 380.15L317.7 369.73M317.7 369.73L317.7 361.92M317.7 361.92L315.1 351.51M315.1 351.51L312.49 346.3M312.49 346.3L307.29 341.09M307.29 341.09L299.48 338.49M299.48 338.49L294.27 338.49M294.27 338.49L289.06 341.09M289.06 341.09L283.85 346.3M283.85 346.3L281.25 351.51M281.25 351.51L278.65 361.92M278.65 361.92L278.65 369.73M278.65 369.73L281.25 380.15M281.25 380.15L283.85 385.35M283.85 385.35L289.06 390.56M289.06 390.56L294.27 393.17M299.48 393.17L304.68 390.56M304.68 390.56L309.89 385.35M309.89 385.35L312.49 380.15M312.49 380.15L315.1 369.73M315.1 369.73L315.1 361.92M315.1 361.92L312.49 351.51M312.49 351.51L309.89 346.3M309.89 346.3L304.68 341.09M304.68 341.09L299.48 338.49M341.13 338.49L351.55 393.17M343.74 338.49L351.55 380.15M361.96 338.49L351.55 393.17M361.96 338.49L372.38 393.17M364.56 338.49L372.38 380.15M382.79 338.49L372.38 393.17M333.32 338.49L351.55 338.49M374.98 338.49L390.6 338.49M403.62 393.17L403.62 338.49M406.22 393.17L406.22 338.49M406.22 338.49L437.46 387.96M406.22 343.7L437.46 393.17M437.46 393.17L437.46 338.49M395.81 338.49L406.22 338.49M429.65 338.49L445.28 338.49M395.81 393.17L411.43 393.17"/>
<path d="M495.87 208.05L499.34 206.32M499.34 206.32L504.55 201.11M504.55 201.11L504.55 237.56M502.82 202.85L502.82 237.56M495.87 237.56L511.49 237.56"/>
<path d="M90.53 208.05L92.27 209.79M92.27 209.79L90.53 211.52M90.53 211.52L88.8 209.79M88.8 209.79L88.8 208.05M88.8 208.05L90.53 204.58M90.53 204.58L92.27 202.85M92.27 202.85L97.47 201.11M97.47 201.11L104.42 201.11M104.42 201.11L109.62 202.85M109.62 202.85L111.36 204.58M111.36 204.58L113.1 208.05M113.1 208.05L113.1 211.52M113.1 211.52L111.36 215M111.36 215L106.15 218.47M106.15 218.47L97.47 221.94M97.47 221.94L94 223.67M94 223.67L90.53 227.15M90.53 227.15L88.8 232.35M88.8 232.35L88.8 237.56M104.42 201.11L107.89 202.85M107.89 202.85L109.62 204.58M109.62 204.58L111.36 208.05M111.36 208.05L111.36 211.52M111.36 211.52L109.62 215M109.62 215L104.42 218.47M104.42 218.47L97.47 221.94M88.8 234.09L90.53 232.35M90.53 232.35L94 232.35M94 232.35L102.68 235.82M102.68 235.82L107.89 235.82M107.89 235.82L111.36 234.09M111.36 234.09L113.1 232.35M94 232.35L102.68 237.56M102.68 237.56L109.62 237.56M109.62 237.56L111.36 235.82M111.36 235.82L113.1 232.35"/>
</g>
</g>
</svg>
