<?xml version="1.0" standalone="no"?><svg xmlns="http://www.w3.org/2000/svg" width="600.000" height="450.000" viewBox="0.0 0.0 600.000 450.000" version="1.1">
<title>Acme Converter - Post-processed with EDS-Designer: 14.44 (info@symca.com)</title>
<desc>Acme Converter - Post-processed with EDS-Designer: 14.44 (info@symca.com)</desc>
<g id="EDS_STYLE_GROUP" fill="none" stroke="black" stroke-width="1.0">
<g id="0" display="visible">
<path d="M193.43 123.88L140.49 123.88"/>
<path d="M140.49 80.57L462.94 80.57"/>
<path d="M434.06 51.69L183.81 51.69"/>
<path d="M448.5 95.01L154.93 95.01"/>
<path d="M207.87 109.45L154.93 109.45"/>
<path d="M198.24 311.57L308.93 311.57"/>
<path d="M186.21 268.26L187.86 276.55M187.86 276.55L192.56 283.57M192.56 283.57L199.58 288.27M199.58 288.27L207.87 289.92"/>
<path d="M222.31 253.82L222.31 181.63"/>
<path d="M246.37 205.7L222.31 181.63"/>
<path d="M294.5 181.63L294.5 253.82"/>
<path d="M323.37 181.63L323.37 253.82"/>
<path d="M294.5 181.63L270.43 205.7"/>
<path d="M410 253.82L410 181.63"/>
<path d="M395.56 253.82L395.56 181.63"/>
<path d="M371.5 205.7L395.56 181.63"/>
<path d="M323.37 181.63L347.43 205.7"/>
<path d="M193.43 123.88L193.43 268.26"/>
<path d="M207.87 253.82L207.87 109.45"/>
<path d="M217.04 407.82L217.04 369.32M218.87 369.32L218.87 407.82M211.54 369.32L233.54 369.32M233.54 369.32L239.04 371.16M239.04 371.16L240.87 372.99M240.87 372.99L242.7 376.66M242.7 376.66L242.7 380.32M242.7 380.32L240.87 383.99M240.87 383.99L239.04 385.82M239.04 385.82L233.54 387.66M233.54 369.32L237.2 371.16M237.2 371.16L239.04 372.99M239.04 372.99L240.87 376.66M240.87 376.66L240.87 380.32M240.87 380.32L239.04 383.99M239.04 383.99L237.2 385.82M237.2 385.82L233.54 387.66M218.87 387.66L233.54 387.66M233.54 387.66L239.04 389.49M239.04 389.49L240.87 391.32M240.87 391.32L242.7 394.99M242.7 394.99L242.7 400.49M242.7 400.49L240.87 404.16M240.87 404.16L239.04 405.99M239.04 405.99L233.54 407.82M233.54 407.82L211.54 407.82M233.54 387.66L237.2 389.49M237.2 389.49L239.04 391.32M239.04 391.32L240.87 394.99M240.87 394.99L240.87 400.49M240.87 400.49L239.04 404.16M239.04 404.16L237.2 405.99M237.2 405.99L233.54 407.82M257.37 407.82L257.37 369.32M259.2 369.32L259.2 407.82M251.87 369.32L264.7 369.32M251.87 407.82L279.37 407.82M279.37 407.82L279.37 396.82M279.37 396.82L277.54 407.82M301.37 369.32L288.54 407.82M301.37 369.32L314.2 407.82M301.37 374.82L312.37 407.82M292.2 396.82L308.7 396.82M284.87 407.82L295.87 407.82M306.87 407.82L317.87 407.82M349.04 374.82L350.87 380.32M350.87 380.32L350.87 369.32M350.87 369.32L349.04 374.82M349.04 374.82L345.37 371.16M345.37 371.16L339.87 369.32M339.87 369.32L336.2 369.32M336.2 369.32L330.7 371.16M330.7 371.16L327.04 374.82M327.04 374.82L325.2 378.49M325.2 378.49L323.37 383.99M323.37 383.99L323.37 393.16M323.37 393.16L325.2 398.66M325.2 398.66L327.04 402.32M327.04 402.32L330.7 405.99M330.7 405.99L336.2 407.82M336.2 407.82L339.87 407.82M339.87 407.82L345.37 405.99M345.37 405.99L349.04 402.32M349.04 402.32L350.87 398.66M336.2 369.32L332.54 371.16M332.54 371.16L328.87 374.82M328.87 374.82L327.04 378.49M327.04 378.49L325.2 383.99M325.2 383.99L325.2 393.16M325.2 393.16L327.04 398.66M327.04 398.66L328.87 402.32M328.87 402.32L332.54 405.99M332.54 405.99L336.2 407.82M367.37 407.82L367.37 369.32M369.21 369.32L369.21 407.82M393.04 369.32L369.21 393.16M378.37 385.82L393.04 407.82M376.54 385.82L391.21 407.82M361.87 369.32L374.71 369.32M385.71 369.32L396.71 369.32M361.87 407.82L374.71 407.82M385.71 407.82L396.71 407.82"/>
<path d="M381.12 167.2L323.37 167.2"/>
<path d="M395.56 181.63L323.37 181.63"/>
<path d="M395.56 181.63L323.37 181.63"/>
<path d="M323.37 123.88L381.12 123.88"/>
<path d="M294.5 66.13L352.25 66.13"/>
<path d="M448.5 80.57L448.5 66.13"/>
<path d="M448.5 66.13L446.56 58.91M446.56 58.91L441.28 53.63M441.28 53.63L434.06 51.69"/>
<path d="M352.25 66.13L352.25 80.57"/>
<path d="M410 181.63L448.5 181.63"/>
<path d="M462.94 196.07L448.5 181.63"/>
<path d="M462.94 80.57L448.5 95.01"/>
<path d="M462.94 80.57L462.94 196.07"/>
<path d="M448.5 181.63L448.5 95.01"/>
<path d="M381.12 123.88L381.12 167.2"/>
<path d="M294.5 80.57L294.5 66.13"/>
<path d="M222.31 167.2L280.06 167.2"/>
<path d="M222.31 181.63L294.5 181.63"/>
<path d="M222.31 181.63L294.5 181.63"/>
<path d="M280.06 123.88L222.31 123.88"/>
<path d="M280.06 138.32L280.06 123.88"/>
<path d="M323.37 138.32L323.37 123.88"/>
<path d="M280.06 167.2L280.06 138.32"/>
<path d="M323.37 167.2L323.37 138.32"/>
<path d="M222.31 123.88L222.31 167.2"/>
<path d="M347.43 229.76L323.37 253.82"/>
<path d="M410 289.92L308.93 289.92"/>
<path d="M419.62 311.57L308.93 311.57"/>
<path d="M410 282.7L308.93 282.7"/>
<path d="M308.93 268.26L395.56 268.26"/>
<path d="M323.37 253.82L395.56 253.82"/>
<path d="M419.62 311.57L428.55 310.16M428.55 310.16L436.6 306.06M436.6 306.06L442.98 299.67M442.98 299.67L447.09 291.62M447.09 291.62L448.5 282.7"/>
<path d="M410 289.92L418.29 288.27M418.29 288.27L425.31 283.57M425.31 283.57L430.01 276.55M430.01 276.55L431.65 268.26"/>
<path d="M410 282.7L417.22 280.76M417.22 280.76L422.5 275.48M422.5 275.48L424.44 268.26"/>
<path d="M482.42 213.03L486.08 211.2M486.08 211.2L491.58 205.7M491.58 205.7L491.58 244.2"/>
<path d="M431.65 196.07L431.65 268.26"/>
<path d="M424.44 196.07L424.44 268.26"/>
<path d="M462.94 196.07L424.44 196.07"/>
<path d="M448.5 196.07L448.5 282.7"/>
<path d="M395.56 253.82L371.5 229.76"/>
<path d="M347.43 229.76L371.5 229.76"/>
<path d="M371.5 205.7L347.43 205.7"/>
<path d="M371.5 229.76L371.5 205.7"/>
<path d="M371.5 229.76L371.5 205.7"/>
<path d="M347.43 205.7L347.43 229.76"/>
<path d="M347.43 205.7L347.43 229.76"/>
<path d="M395.56 268.26L402.78 266.33M402.78 266.33L408.06 261.04M408.06 261.04L410 253.82"/>
<path d="M420.21 278.47L405.77 264.03"/>
<path d="M207.87 289.92L308.93 289.92"/>
<path d="M207.87 282.7L308.93 282.7"/>
<path d="M270.43 229.76L294.5 253.82"/>
<path d="M294.5 253.82L222.31 253.82"/>
<path d="M308.93 268.26L222.31 268.26"/>
<path d="M222.31 253.82L246.37 229.76"/>
<path d="M270.43 205.7L270.43 229.76"/>
<path d="M270.43 205.7L270.43 229.76"/>
<path d="M246.37 229.76L246.37 205.7"/>
<path d="M246.37 229.76L246.37 205.7"/>
<path d="M246.37 205.7L270.43 205.7"/>
<path d="M270.43 229.76L246.37 229.76"/>
<path d="M207.87 253.82L209.8 261.04M209.8 261.04L215.09 266.33M215.09 266.33L222.31 268.26"/>
<path d="M193.43 268.26L195.37 275.48M195.37 275.48L200.65 280.76M200.65 280.76L207.87 282.7"/>
<path d="M197.66 278.47L212.1 264.03"/>
<path d="M169.37 123.88L169.37 282.7"/>
<path d="M186.21 123.88L186.21 268.26"/>
<path d="M140.49 80.57L154.93 95.01"/>
<path d="M140.49 123.88L140.49 80.57"/>
<path d="M169.37 80.57L169.37 66.13"/>
<path d="M183.81 51.69L176.59 53.63M176.59 53.63L171.3 58.91M171.3 58.91L169.37 66.13"/>
<path d="M154.93 109.45L140.49 123.88"/>
<path d="M154.93 95.01L154.93 109.45"/>
<path d="M154.93 109.45L154.93 95.01"/>
<path d="M169.37 282.7L170.78 291.62M170.78 291.62L174.88 299.67M174.88 299.67L181.27 306.06M181.27 306.06L189.32 310.16M189.32 310.16L198.24 311.57"/>
<path d="M110.24 214.86L110.24 213.03M110.24 213.03L112.08 209.36M112.08 209.36L113.91 207.53M113.91 207.53L117.58 205.7M117.58 205.7L124.91 205.7M124.91 205.7L128.58 207.53M128.58 207.53L130.41 209.36M130.41 209.36L132.24 213.03M132.24 213.03L132.24 216.7M132.24 216.7L130.41 220.36M130.41 220.36L126.74 225.86M126.74 225.86L108.41 244.2M108.41 244.2L134.08 244.2"/>
</g>
</g>
</svg>
