<?xml version="1.0" standalone="no"?><svg xmlns="http://www.w3.org/2000/svg" width="600.000" height="450.000" viewBox="0.0 0.0 600.000 450.000" version="1.1">
<title>Acme Converter - Post-processed with EDS-Designer: 14.44 (info@symca.com)</title>
<desc>Acme Converter - Post-processed with EDS-Designer: 14.44 (info@symca.com)</desc>
<g id="EDS_STYLE_GROUP" fill="none" stroke="black" stroke-width="1.0">
<g id="0" display="visible">
<path d="M133.41 247.89L132.3 245.67M132.3 245.67L128.96 244.56M128.96 244.56L126.74 244.56M126.74 244.56L123.41 245.67M123.41 245.67L121.19 249M121.19 249L120.08 254.55M120.08 254.55L120.08 260.11M120.08 260.11L121.19 264.55M121.19 264.55L123.41 266.77M123.41 266.77L126.74 267.88M126.74 267.88L127.85 267.88M127.85 267.88L131.19 266.77M131.19 266.77L133.41 264.55M133.41 264.55L134.52 261.22M134.52 261.22L134.52 260.11M134.52 260.11L133.41 256.77M133.41 256.77L131.19 254.55M131.19 254.55L127.85 253.44M127.85 253.44L126.74 253.44M126.74 253.44L123.41 254.55M123.41 254.55L121.19 256.77M121.19 256.77L120.08 260.11"/>
<path d="M125.91 167.37L128.13 166.26M128.13 166.26L131.46 162.93M131.46 162.93L131.46 186.25"/>
<path d="M255.44 382.83L256.83 387M256.83 387L256.83 378.67M256.83 378.67L255.44 382.83M255.44 382.83L252.66 380.05M252.66 380.05L248.5 378.67M248.5 378.67L245.72 378.67M245.72 378.67L241.56 380.05M241.56 380.05L238.78 382.83M238.78 382.83L237.39 385.61M237.39 385.61L236 389.77M236 389.77L236 396.71M236 396.71L237.39 400.88M237.39 400.88L238.78 403.66M238.78 403.66L241.56 406.43M241.56 406.43L245.72 407.82M245.72 407.82L248.5 407.82M248.5 407.82L252.66 406.43M252.66 406.43L255.44 403.66M245.72 378.67L242.94 380.05M242.94 380.05L240.17 382.83M240.17 382.83L238.78 385.61M238.78 385.61L237.39 389.77M237.39 389.77L237.39 396.71M237.39 396.71L238.78 400.88M238.78 400.88L240.17 403.66M240.17 403.66L242.94 406.43M242.94 406.43L245.72 407.82M255.44 396.71L255.44 407.82M256.83 396.71L256.83 407.82M251.27 396.71L260.99 396.71M272.1 407.82L272.1 378.67M273.49 378.67L273.49 407.82M267.93 378.67L284.59 378.67M284.59 378.67L288.76 380.05M288.76 380.05L290.15 381.44M290.15 381.44L291.53 384.22M291.53 384.22L291.53 387M291.53 387L290.15 389.77M290.15 389.77L288.76 391.16M288.76 391.16L284.59 392.55M284.59 392.55L273.49 392.55M284.59 378.67L287.37 380.05M287.37 380.05L288.76 381.44M288.76 381.44L290.15 384.22M290.15 384.22L290.15 387M290.15 387L288.76 389.77M288.76 389.77L287.37 391.16M287.37 391.16L284.59 392.55M267.93 407.82L277.65 407.82M280.43 392.55L283.2 393.94M283.2 393.94L284.59 395.33M284.59 395.33L288.76 405.04M288.76 405.04L290.15 406.43M290.15 406.43L291.53 406.43M291.53 406.43L292.92 405.04M283.2 393.94L284.59 396.71M284.59 396.71L287.37 406.43M287.37 406.43L288.76 407.82M288.76 407.82L291.53 407.82M291.53 407.82L292.92 405.04M292.92 405.04L292.92 403.66M302.64 407.82L302.64 378.67M304.03 378.67L304.03 407.82M312.36 387L312.36 398.1M298.48 378.67L320.69 378.67M320.69 378.67L320.69 387M320.69 387L319.3 378.67M304.03 392.55L312.36 392.55M298.48 407.82L320.69 407.82M320.69 407.82L320.69 399.49M320.69 399.49L319.3 407.82M330.41 378.67L340.12 393.94M340.12 393.94L340.12 407.82M331.79 378.67L341.51 393.94M341.51 393.94L341.51 407.82M351.23 378.67L341.51 393.94M327.63 378.67L335.96 378.67M345.68 378.67L354.01 378.67M335.96 407.82L345.68 407.82"/>
<path d="M198.86 97.29L169.71 97.29"/>
<path d="M184.28 146.27L177.59 147.6M177.59 147.6L171.91 151.39M171.91 151.39L168.12 157.07M168.12 157.07L166.79 163.76"/>
<path d="M166.79 295.54L168.12 302.23M168.12 302.23L171.91 307.91M171.91 307.91L177.59 311.7M177.59 311.7L184.28 313.03"/>
<path d="M169.12 331.69L409.35 331.69"/>
<path d="M409.35 78.63L169.12 78.63"/>
<path d="M169.71 313.03L408.77 313.03"/>
<path d="M145.8 308.37L147.57 317.29M147.57 317.29L152.63 324.86M152.63 324.86L160.2 329.92M160.2 329.92L169.12 331.69"/>
<path d="M169.12 78.63L160.2 80.41M160.2 80.41L152.63 85.46M152.63 85.46L147.57 93.03M147.57 93.03L145.8 101.96"/>
<path d="M169.71 97.29L166.79 98.07M166.79 98.07L164.66 100.21M164.66 100.21L163.87 103.12"/>
<path d="M166.79 191.75L178.45 191.75"/>
<path d="M178.45 191.75L178.45 203.41"/>
<path d="M178.45 203.41L166.79 203.41"/>
<path d="M166.79 163.76L166.79 191.75"/>
<path d="M172.62 215.07L166.79 215.07"/>
<path d="M166.79 203.41L166.79 215.07"/>
<path d="M166.79 215.07L166.79 203.41"/>
<path d="M163.87 307.2L165.58 311.32M165.58 311.32L169.71 313.03"/>
<path d="M166.79 255.89L178.45 255.89"/>
<path d="M178.45 255.89L178.45 267.55"/>
<path d="M178.45 267.55L166.79 267.55"/>
<path d="M166.79 267.55L166.79 295.54"/>
<path d="M172.62 244.23L166.79 244.23"/>
<path d="M166.79 244.23L166.79 255.89"/>
<path d="M166.79 255.89L166.79 244.23"/>
<path d="M145.8 101.96L145.8 308.37"/>
<path d="M163.87 103.12L163.87 307.2"/>
<path d="M172.62 215.07L172.62 244.23"/>
<path d="M335.88 173.09L324.22 173.09"/>
<path d="M318.39 219.74L341.72 219.74"/>
<path d="M341.72 199.91L318.39 199.91"/>
<path d="M327.14 353.85L327.92 356.76M327.92 356.76L330.05 358.9M330.05 358.9L332.97 359.68"/>
<path d="M335.88 250.06L324.22 250.06"/>
<path d="M318.39 279.21L341.72 279.21"/>
<path d="M341.72 299.04L318.39 299.04"/>
<path d="M345.21 111.28L321.89 111.28"/>
<path d="M226.26 66.97L352.21 66.97"/>
<path d="M318.39 184.75L388.36 184.75"/>
<path d="M388.36 157.93L318.39 157.93"/>
<path d="M318.39 234.9L388.36 234.9"/>
<path d="M388.36 261.72L318.39 261.72"/>
<path d="M184.28 313.03L394.19 313.03"/>
<path d="M211.69 331.69L211.69 353.85"/>
<path d="M217.52 359.68L245.51 359.68"/>
<path d="M251.34 353.85L251.34 331.69"/>
<path d="M211.69 353.85L212.47 356.76M212.47 356.76L214.6 358.9M214.6 358.9L217.52 359.68"/>
<path d="M245.51 359.68L248.42 358.9M248.42 358.9L250.56 356.76M250.56 356.76L251.34 353.85"/>
<path d="M277.58 331.69L277.58 349.18"/>
<path d="M277.58 349.18L300.9 349.18"/>
<path d="M300.9 349.18L300.9 331.69"/>
<path d="M233.26 111.28L256.59 111.28"/>
<path d="M256.59 173.09L244.92 173.09"/>
<path d="M258.45 219.74L235.13 219.74"/>
<path d="M235.13 199.91L258.45 199.91"/>
<path d="M244.92 250.06L256.59 250.06"/>
<path d="M258.45 279.21L235.13 279.21"/>
<path d="M235.13 299.04L258.45 299.04"/>
<path d="M194.78 184.75L306.73 184.75"/>
<path d="M306.73 157.93L194.78 157.93"/>
<path d="M194.78 234.9L306.73 234.9"/>
<path d="M306.73 261.72L194.78 261.72"/>
<path d="M233.26 146.27L233.26 111.28"/>
<path d="M220.43 72.8L220.43 78.63"/>
<path d="M231.51 138.11L231.51 78.63"/>
<path d="M209.36 125.28L221.02 125.28"/>
<path d="M221.02 125.28L221.02 97.29"/>
<path d="M221.02 97.29L209.36 97.29"/>
<path d="M209.36 97.29L209.36 125.28"/>
<path d="M226.26 66.97L222.14 68.68M222.14 68.68L220.43 72.8"/>
<path d="M244.92 173.09L244.92 176.01"/>
<path d="M244.92 176.01L239.09 176.01"/>
<path d="M239.09 176.01L239.09 184.75"/>
<path d="M212.27 173.09L200.61 173.09"/>
<path d="M200.61 173.09L200.61 176.01"/>
<path d="M212.27 173.09L212.27 176.01"/>
<path d="M212.27 176.01L218.1 176.01"/>
<path d="M218.1 176.01L218.1 184.75"/>
<path d="M219.27 219.74L219.27 199.91"/>
<path d="M235.13 219.74L235.13 199.91"/>
<path d="M244.92 250.06L244.92 252.97"/>
<path d="M244.92 252.97L239.09 252.97"/>
<path d="M239.09 252.97L239.09 261.72"/>
<path d="M200.61 250.06L200.61 252.97"/>
<path d="M212.27 250.06L212.27 252.97"/>
<path d="M212.27 252.97L218.1 252.97"/>
<path d="M218.1 252.97L218.1 261.72"/>
<path d="M200.61 250.06L212.27 250.06"/>
<path d="M219.27 279.21L219.27 299.04"/>
<path d="M235.13 279.21L235.13 299.04"/>
<path d="M198.86 138.11L198.86 97.29"/>
<path d="M194.78 157.93L194.78 184.75"/>
<path d="M195.94 199.91L195.94 219.74"/>
<path d="M195.94 299.04L195.94 279.21"/>
<path d="M194.78 261.72L194.78 234.9"/>
<path d="M198.86 138.11L231.51 138.11"/>
<path d="M233.26 146.27L184.28 146.27"/>
<path d="M200.61 176.01L194.78 176.01"/>
<path d="M200.61 252.97L194.78 252.97"/>
<path d="M195.94 219.74L219.27 219.74"/>
<path d="M219.27 199.91L195.94 199.91"/>
<path d="M195.94 279.21L219.27 279.21"/>
<path d="M219.27 299.04L195.94 299.04"/>
<path d="M321.89 111.28L321.89 146.27"/>
<path d="M312.56 97.29L312.56 78.63"/>
<path d="M312.56 51.81L312.56 66.97"/>
<path d="M314.89 138.11L314.89 120.61"/>
<path d="M314.89 120.61L304.4 120.61"/>
<path d="M304.4 120.61L304.4 132.28"/>
<path d="M304.4 132.28L274.08 132.28"/>
<path d="M274.08 132.28L274.08 120.61"/>
<path d="M289.24 173.09L300.9 173.09"/>
<path d="M300.9 173.09L300.9 176.01"/>
<path d="M300.9 176.01L306.73 176.01"/>
<path d="M289.24 173.09L289.24 176.01"/>
<path d="M289.24 176.01L283.41 176.01"/>
<path d="M283.41 176.01L283.41 184.75"/>
<path d="M324.22 173.09L324.22 176.01"/>
<path d="M324.22 176.01L318.39 176.01"/>
<path d="M306.73 184.75L306.73 157.93"/>
<path d="M318.39 157.93L318.39 184.75"/>
<path d="M318.39 199.91L318.39 219.74"/>
<path d="M277.11 219.74L300.43 219.74"/>
<path d="M300.43 219.74L300.43 199.91"/>
<path d="M300.43 199.91L277.11 199.91"/>
<path d="M277.11 199.91L277.11 219.74"/>
<path d="M256.59 111.28L256.59 146.27"/>
<path d="M265.91 97.29L265.91 78.63"/>
<path d="M265.91 51.81L265.91 66.97"/>
<path d="M263.58 120.61L263.58 138.11"/>
<path d="M256.59 173.09L256.59 176.01"/>
<path d="M256.59 176.01L262.42 176.01"/>
<path d="M262.42 176.01L262.42 184.75"/>
<path d="M258.45 199.91L258.45 219.74"/>
<path d="M265.91 97.29L312.56 97.29"/>
<path d="M265.91 51.81L312.56 51.81"/>
<path d="M274.08 120.61L263.58 120.61"/>
<path d="M263.58 138.11L314.89 138.11"/>
<path d="M321.89 146.27L256.59 146.27"/>
<path d="M300.9 250.06L300.9 252.97"/>
<path d="M300.9 252.97L306.73 252.97"/>
<path d="M289.24 250.06L289.24 252.97"/>
<path d="M289.24 252.97L283.41 252.97"/>
<path d="M283.41 252.97L283.41 261.72"/>
<path d="M289.24 250.06L300.9 250.06"/>
<path d="M324.22 250.06L324.22 252.97"/>
<path d="M324.22 252.97L318.39 252.97"/>
<path d="M318.39 299.04L318.39 279.21"/>
<path d="M277.11 279.21L300.43 279.21"/>
<path d="M300.43 279.21L300.43 299.04"/>
<path d="M300.43 299.04L277.11 299.04"/>
<path d="M277.11 299.04L277.11 279.21"/>
<path d="M256.59 250.06L256.59 252.97"/>
<path d="M256.59 252.97L262.42 252.97"/>
<path d="M262.42 252.97L262.42 261.72"/>
<path d="M258.45 299.04L258.45 279.21"/>
<path d="M306.73 234.9L306.73 261.72"/>
<path d="M318.39 261.72L318.39 234.9"/>
<path d="M409.35 331.69L418.28 329.92M418.28 329.92L425.85 324.86M425.85 324.86L430.9 317.29M430.9 317.29L432.68 308.37"/>
<path d="M366.79 331.69L366.79 353.85"/>
<path d="M360.96 359.68L363.87 358.9M363.87 358.9L366.01 356.76M366.01 356.76L366.79 353.85"/>
<path d="M327.14 353.85L327.14 331.69"/>
<path d="M360.96 359.68L332.97 359.68"/>
<path d="M408.77 97.29L379.62 97.29"/>
<path d="M411.69 163.76L410.35 157.07M410.35 157.07L406.56 151.39M406.56 151.39L400.89 147.6M400.89 147.6L394.19 146.27"/>
<path d="M394.19 313.03L400.89 311.7M400.89 311.7L406.56 307.91M406.56 307.91L410.35 302.23M410.35 302.23L411.69 295.54"/>
<path d="M345.21 146.27L345.21 111.28"/>
<path d="M358.04 72.8L358.04 78.63"/>
<path d="M379.62 138.11L346.96 138.11"/>
<path d="M346.96 138.11L346.96 78.63"/>
<path d="M379.62 138.11L379.62 97.29"/>
<path d="M358.04 72.8L356.33 68.68M356.33 68.68L352.21 66.97"/>
<path d="M369.12 125.28L357.46 125.28"/>
<path d="M357.46 125.28L357.46 97.29"/>
<path d="M357.46 97.29L369.12 97.29"/>
<path d="M369.12 97.29L369.12 125.28"/>
<path d="M370.87 173.09L382.53 173.09"/>
<path d="M382.53 173.09L382.53 176.01"/>
<path d="M382.53 176.01L388.36 176.01"/>
<path d="M370.87 173.09L370.87 176.01"/>
<path d="M370.87 176.01L365.04 176.01"/>
<path d="M365.04 176.01L365.04 184.75"/>
<path d="M388.36 184.75L388.36 157.93"/>
<path d="M382.53 219.74L359.21 219.74"/>
<path d="M359.21 219.74L359.21 199.91"/>
<path d="M359.21 199.91L382.53 199.91"/>
<path d="M382.53 199.91L382.53 219.74"/>
<path d="M394.19 146.27L345.21 146.27"/>
<path d="M370.87 250.06L382.53 250.06"/>
<path d="M382.53 250.06L382.53 252.97"/>
<path d="M382.53 252.97L388.36 252.97"/>
<path d="M370.87 250.06L370.87 252.97"/>
<path d="M370.87 252.97L365.04 252.97"/>
<path d="M365.04 252.97L365.04 261.72"/>
<path d="M382.53 279.21L359.21 279.21"/>
<path d="M359.21 279.21L359.21 299.04"/>
<path d="M359.21 299.04L382.53 299.04"/>
<path d="M382.53 299.04L382.53 279.21"/>
<path d="M388.36 234.9L388.36 261.72"/>
<path d="M335.88 173.09L335.88 176.01"/>
<path d="M335.88 176.01L341.72 176.01"/>
<path d="M341.72 176.01L341.72 184.75"/>
<path d="M341.72 219.74L341.72 199.91"/>
<path d="M335.88 250.06L335.88 252.97"/>
<path d="M335.88 252.97L341.72 252.97"/>
<path d="M341.72 252.97L341.72 261.72"/>
<path d="M341.72 279.21L341.72 299.04"/>
<path d="M414.6 103.12L412.89 99M412.89 99L408.77 97.29"/>
<path d="M411.69 215.07L405.85 215.07"/>
<path d="M411.69 191.75L400.02 191.75"/>
<path d="M400.02 191.75L400.02 203.41"/>
<path d="M400.02 203.41L411.69 203.41"/>
<path d="M411.69 191.75L411.69 163.76"/>
<path d="M411.69 215.07L411.69 203.41"/>
<path d="M432.68 101.96L430.9 93.03M430.9 93.03L425.85 85.46M425.85 85.46L418.28 80.41M418.28 80.41L409.35 78.63"/>
<path d="M408.77 313.03L411.69 312.25M411.69 312.25L413.82 310.12M413.82 310.12L414.6 307.2"/>
<path d="M405.85 244.23L411.69 244.23"/>
<path d="M411.69 255.89L400.02 255.89"/>
<path d="M400.02 255.89L400.02 267.55"/>
<path d="M400.02 267.55L411.69 267.55"/>
<path d="M411.69 295.54L411.69 267.55"/>
<path d="M411.69 255.89L411.69 244.23"/>
<path d="M432.68 308.37L432.68 101.96"/>
<path d="M414.6 307.2L414.6 103.12"/>
<path d="M405.85 215.07L405.85 244.23"/>
<path d="M465.76 162.93L454.66 162.93M454.66 162.93L453.55 172.92M453.55 172.92L454.66 171.81M454.66 171.81L457.99 170.7M457.99 170.7L461.32 170.7M461.32 170.7L464.65 171.81M464.65 171.81L466.88 174.03M466.88 174.03L467.99 177.36M467.99 177.36L467.99 179.58M467.99 179.58L466.88 182.92M466.88 182.92L464.65 185.14M464.65 185.14L461.32 186.25M461.32 186.25L457.99 186.25M457.99 186.25L454.66 185.14M454.66 185.14L453.55 184.03M453.55 184.03L452.44 181.81"/>
<path d="M446.61 249L448.83 247.89M448.83 247.89L452.16 244.56M452.16 244.56L452.16 267.88M471.04 244.56L467.71 245.67M467.71 245.67L465.49 249M465.49 249L464.38 254.55M464.38 254.55L464.38 257.88M464.38 257.88L465.49 263.44M465.49 263.44L467.71 266.77M467.71 266.77L471.04 267.88M471.04 267.88L473.26 267.88M473.26 267.88L476.59 266.77M476.59 266.77L478.81 263.44M478.81 263.44L479.93 257.88M479.93 257.88L479.93 254.55M479.93 254.55L478.81 249M478.81 249L476.59 245.67M476.59 245.67L473.26 244.56M473.26 244.56L471.04 244.56"/>
</g>
</g>
</svg>
