<?xml version="1.0" standalone="no"?><svg xmlns="http://www.w3.org/2000/svg" width="600.000" height="450.000" viewBox="0.0 0.0 600.000 450.000" version="1.1">
<title>Acme Converter - Post-processed with EDS-Designer: 14.44 (info@symca.com)</title>
<desc>Acme Converter - Post-processed with EDS-Designer: 14.44 (info@symca.com)</desc>
<g id="EDS_STYLE_GROUP" fill="none" stroke="black" stroke-width="1.0">
<g id="0" display="visible">
<path d="M249.16 295.25L361.67 295.25"/>
<path d="M249.16 122.89L361.67 122.89"/>
<path d="M400.77 161.99L400.77 256.15"/>
<path d="M210.06 161.99L210.06 256.15"/>
<path d="M249.16 122.89L237.08 124.81M237.08 124.81L226.18 130.36M226.18 130.36L217.53 139.01M217.53 139.01L211.98 149.91M211.98 149.91L210.06 161.99"/>
<path d="M400.77 161.99L398.86 149.91M398.86 149.91L393.3 139.01M393.3 139.01L384.65 130.36M384.65 130.36L373.75 124.81M373.75 124.81L361.67 122.89"/>
<path d="M361.67 295.25L373.75 293.33M373.75 293.33L384.65 287.78M384.65 287.78L393.3 279.13M393.3 279.13L398.86 268.23M398.86 268.23L400.77 256.15"/>
<path d="M210.06 256.15L211.98 268.23M211.98 268.23L217.53 279.13M217.53 279.13L226.18 287.78M226.18 287.78L237.08 293.33M237.08 293.33L249.16 295.25"/>
<path d="M428.7 161.99L426.93 146.72M426.93 146.72L421.74 132.26M421.74 132.26L413.39 119.35M413.39 119.35L402.31 108.69"/>
<path d="M428.7 161.99L428.7 256.15"/>
<path d="M361.67 323.17L376.59 321.49M376.59 321.49L390.75 316.54M390.75 316.54L403.46 308.55M403.46 308.55L414.07 297.94M414.07 297.94L422.06 285.23M422.06 285.23L427.02 271.06M427.02 271.06L428.7 256.15"/>
<path d="M249.16 323.17L361.67 323.17"/>
<path d="M182.13 256.15L183.81 271.06M183.81 271.06L188.77 285.23M188.77 285.23L196.76 297.94M196.76 297.94L207.37 308.55M207.37 308.55L220.08 316.54M220.08 316.54L234.25 321.49M234.25 321.49L249.16 323.17"/>
<path d="M182.13 70.23L182.13 256.15"/>
<path d="M247.94 231.89L284.65 231.89"/>
<path d="M247.94 231.89L247.94 163.27"/>
<path d="M247.94 163.27L270.29 163.27"/>
<path d="M284.65 231.89L284.65 187.21"/>
<path d="M290.24 153.14L270.29 153.14"/>
<path d="M290.24 187.21L290.24 153.14"/>
<path d="M284.65 187.21L290.24 187.21"/>
<path d="M270.29 163.27L270.29 153.14"/>
<path d="M399.17 102.35L399.17 55.07"/>
<path d="M243.58 123.29L243.58 98.95"/>
<path d="M210.06 47.09L391.19 47.09"/>
<path d="M223.63 65.44L367.26 65.44"/>
<path d="M331.35 98.95L331.35 122.89"/>
<path d="M279.48 122.89L279.48 98.95"/>
<path d="M213.18 404.56L213.18 364.67M215.08 364.67L215.08 404.56M207.48 364.67L230.28 364.67M230.28 364.67L235.98 366.57M235.98 366.57L237.88 368.47M237.88 368.47L239.78 372.27M239.78 372.27L239.78 376.07M239.78 376.07L237.88 379.87M237.88 379.87L235.98 381.77M235.98 381.77L230.28 383.67M230.28 364.67L234.08 366.57M234.08 366.57L235.98 368.47M235.98 368.47L237.88 372.27M237.88 372.27L237.88 376.07M237.88 376.07L235.98 379.87M235.98 379.87L234.08 381.77M234.08 381.77L230.28 383.67M215.08 383.67L230.28 383.67M230.28 383.67L235.98 385.57M235.98 385.57L237.88 387.47M237.88 387.47L239.78 391.27M239.78 391.27L239.78 396.97M239.78 396.97L237.88 400.76M237.88 400.76L235.98 402.66M235.98 402.66L230.28 404.56M230.28 404.56L207.48 404.56M230.28 383.67L234.08 385.57M234.08 385.57L235.98 387.47M235.98 387.47L237.88 391.27M237.88 391.27L237.88 396.97M237.88 396.97L235.98 400.76M235.98 400.76L234.08 402.66M234.08 402.66L230.28 404.56M254.97 404.56L254.97 364.67M256.87 364.67L256.87 404.56M249.27 364.67L262.57 364.67M249.27 404.56L277.77 404.56M277.77 404.56L277.77 393.17M277.77 393.17L275.87 404.56M300.57 364.67L287.27 404.56M300.57 364.67L313.87 404.56M300.57 370.37L311.97 404.56M291.07 393.17L308.17 393.17M283.47 404.56L294.87 404.56M306.27 404.56L317.67 404.56M349.97 370.37L351.87 376.07M351.87 376.07L351.87 364.67M351.87 364.67L349.97 370.37M349.97 370.37L346.17 366.57M346.17 366.57L340.47 364.67M340.47 364.67L336.67 364.67M336.67 364.67L330.97 366.57M330.97 366.57L327.17 370.37M327.17 370.37L325.27 374.17M325.27 374.17L323.37 379.87M323.37 379.87L323.37 389.37M323.37 389.37L325.27 395.07M325.27 395.07L327.17 398.87M327.17 398.87L330.97 402.66M330.97 402.66L336.67 404.56M336.67 404.56L340.47 404.56M340.47 404.56L346.17 402.66M346.17 402.66L349.97 398.87M349.97 398.87L351.87 395.07M336.67 364.67L332.87 366.57M332.87 366.57L329.07 370.37M329.07 370.37L327.17 374.17M327.17 374.17L325.27 379.87M325.27 379.87L325.27 389.37M325.27 389.37L327.17 395.07M327.17 395.07L329.07 398.87M329.07 398.87L332.87 402.66M332.87 402.66L336.67 404.56M368.97 404.56L368.97 364.67M370.87 364.67L370.87 404.56M395.56 364.67L370.87 389.37M380.36 381.77L395.56 404.56M378.46 381.77L393.66 404.56M363.27 364.67L376.57 364.67M387.96 364.67L399.36 364.67M363.27 404.56L376.57 404.56M387.96 404.56L399.36 404.56"/>
<path d="M134.71 196.72L134.71 195.2M134.71 195.2L136.23 192.16M136.23 192.16L137.75 190.64M137.75 190.64L140.79 189.12M140.79 189.12L146.87 189.12M146.87 189.12L149.91 190.64M149.91 190.64L151.43 192.16M151.43 192.16L152.95 195.2M152.95 195.2L152.95 198.24M152.95 198.24L151.43 201.28M151.43 201.28L148.39 205.84M148.39 205.84L133.19 221.04M133.19 221.04L154.47 221.04"/>
<path d="M202.08 55.07L202.08 62.25"/>
<path d="M194.1 256.15L195.98 270.4M195.98 270.4L201.48 283.68M201.48 283.68L210.23 295.08M210.23 295.08L221.63 303.83M221.63 303.83L234.91 309.33M234.91 309.33L249.16 311.21"/>
<path d="M249.16 311.21L361.67 311.21"/>
<path d="M361.67 311.21L375.92 309.33M375.92 309.33L389.2 303.83M389.2 303.83L400.6 295.08M400.6 295.08L409.35 283.68M409.35 283.68L414.85 270.4M414.85 270.4L416.73 256.15"/>
<path d="M416.73 161.99L416.73 256.15"/>
<path d="M416.73 161.99L414.98 148.23M414.98 148.23L409.85 135.35M409.85 135.35L401.67 124.15M401.67 124.15L390.94 115.36"/>
<path d="M387.2 108.6L387.2 63.05"/>
<path d="M399.17 102.35L400 105.89M400 105.89L402.31 108.69"/>
<path d="M399.17 55.07L398.1 51.08M398.1 51.08L395.18 48.16M395.18 48.16L391.19 47.09"/>
<path d="M249.16 138.85L299.43 138.85"/>
<path d="M384.81 161.99L383.05 153.14M383.05 153.14L378.03 145.63M378.03 145.63L370.53 140.61M370.53 140.61L361.67 138.85"/>
<path d="M384.81 161.99L384.81 240.99"/>
<path d="M361.67 279.29L370.34 277.6M370.34 277.6L377.75 272.79M377.75 272.79L382.81 265.55M382.81 265.55L384.8 256.95"/>
<path d="M249.16 279.29L299.43 279.29"/>
<path d="M226.03 256.95L228.02 265.55M228.02 265.55L233.08 272.79M233.08 272.79L240.49 277.6M240.49 277.6L249.16 279.29"/>
<path d="M226.02 161.99L226.02 240.99"/>
<path d="M249.16 138.85L240.31 140.61M240.31 140.61L232.8 145.63M232.8 145.63L227.78 153.14M227.78 153.14L226.02 161.99"/>
<path d="M299.43 138.85L299.43 248.97"/>
<path d="M307.41 138.85L307.41 248.97"/>
<path d="M226.02 256.15L299.43 256.15"/>
<path d="M226.02 240.99L299.43 240.99"/>
<path d="M307.41 240.99L384.81 240.99"/>
<path d="M307.41 256.15L307.41 279.29"/>
<path d="M299.43 256.15L299.43 279.29"/>
<path d="M307.41 279.29L361.67 279.29"/>
<path d="M384.81 256.95L384.81 256.15"/>
<path d="M307.41 138.85L361.67 138.85"/>
<path d="M226.02 256.95L226.02 256.15"/>
<path d="M387.2 108.6L388.2 112.46M388.2 112.46L390.94 115.36"/>
<path d="M202.08 62.25L190.11 62.25"/>
<path d="M190.11 62.25L186.12 63.32M186.12 63.32L183.2 66.24M183.2 66.24L182.13 70.23"/>
<path d="M210.06 47.09L206.07 48.16M206.07 48.16L203.15 51.08M203.15 51.08L202.08 55.07"/>
<path d="M207.67 74.22L199.69 74.22"/>
<path d="M211.66 98.16L211.66 78.21"/>
<path d="M194.1 79.8L194.1 256.15"/>
<path d="M199.69 74.22L195.74 75.85M195.74 75.85L194.1 79.8"/>
<path d="M219.64 102.15L215.65 102.15"/>
<path d="M223.63 98.16L223.63 63.05"/>
<path d="M211.66 78.21L211.12 76.21M211.12 76.21L209.66 74.75M209.66 74.75L207.67 74.22"/>
<path d="M211.66 98.16L212.83 100.98M212.83 100.98L215.65 102.15"/>
<path d="M219.64 102.15L222.46 100.98M222.46 100.98L223.63 98.16"/>
<path d="M227.62 59.06L367.26 59.06"/>
<path d="M375.24 66.24L375.24 59.06"/>
<path d="M367.26 66.24L367.26 59.06"/>
<path d="M371.25 70.23L371.25 70.23"/>
<path d="M387.2 63.05L386.04 60.23M386.04 60.23L383.21 59.06"/>
<path d="M375.24 59.06L383.21 59.06"/>
<path d="M367.26 66.24L367.79 68.23M367.79 68.23L369.25 69.69M369.25 69.69L371.25 70.23"/>
<path d="M371.25 70.23L374.07 69.06M374.07 69.06L375.24 66.24"/>
<path d="M227.62 59.06L225.62 59.59M225.62 59.59L224.16 61.05M224.16 61.05L223.63 63.05"/>
<path d="M375.24 65.44L387.2 65.44"/>
<path d="M223.55 98.95L387.2 98.95"/>
<path d="M227.62 98.95L227.62 85.39"/>
<path d="M231.61 81.4L379.22 81.4"/>
<path d="M383.21 85.39L383.21 98.95"/>
<path d="M247.56 98.95L247.56 77.41"/>
<path d="M251.55 73.42L363.27 73.42"/>
<path d="M367.26 77.41L367.26 98.95"/>
<path d="M251.55 93.37L363.27 93.37"/>
<path d="M367.26 77.41L366.09 74.59M366.09 74.59L363.27 73.42"/>
<path d="M251.55 73.42L248.73 74.59M248.73 74.59L247.56 77.41"/>
<path d="M231.61 81.4L229.61 81.93M229.61 81.93L228.15 83.39M228.15 83.39L227.62 85.39"/>
<path d="M383.21 85.39L382.68 83.39M382.68 83.39L381.22 81.93M381.22 81.93L379.22 81.4"/>
<path d="M363.27 93.37L366.09 92.2M366.09 92.2L367.26 89.38"/>
<path d="M247.56 89.38L248.73 92.2M248.73 92.2L251.55 93.37"/>
<path d="M363.27 122.92L363.27 98.95"/>
<path d="M263.52 240.99L263.52 248.97"/>
<path d="M263.52 248.97L299.43 248.97"/>
<path d="M307.41 248.97L343.32 248.97"/>
<path d="M343.32 248.97L343.32 240.99"/>
<path d="M459.21 195.2L462.25 193.68M462.25 193.68L466.81 189.12M466.81 189.12L466.81 221.04"/>
<path d="M319.76 231.89L319.76 163.27"/>
<path d="M362.05 187.21L362.05 153.14"/>
<path d="M319.76 231.89L356.46 231.89"/>
<path d="M356.46 231.89L356.46 187.21"/>
<path d="M356.46 187.21L362.05 187.21"/>
<path d="M319.76 163.27L342.1 163.27"/>
<path d="M362.05 153.14L342.1 153.14"/>
<path d="M342.1 163.27L342.1 153.14"/>
<path d="M307.41 256.15L384.81 256.15"/>
</g>
</g>
</svg>
