<?xml version="1.0" standalone="no"?><svg xmlns="http://www.w3.org/2000/svg" width="600.000" height="450.000" viewBox="0.0 0.0 600.000 450.000" version="1.1">
<title>Acme Converter - Post-processed with EDS-Designer: 14.44 (info@symca.com)</title>
<desc>Acme Converter - Post-processed with EDS-Designer: 14.44 (info@symca.com)</desc>
<g id="EDS_STYLE_GROUP" fill="none" stroke="black" stroke-width="1.0">
<g id="0" display="visible">
<path d="M362.48 102.9L410.36 102.9"/>
<path d="M343.32 122.05L429.52 122.05"/>
<path d="M386.42 308.8L391.21 304.01"/>
<path d="M491.76 280.07L99.12 280.07"/>
<path d="M448.67 260.91L142.21 260.91"/>
<path d="M352.9 193.88L352.9 174.72"/>
<path d="M314.59 174.72L314.59 193.88"/>
<path d="M276.29 193.88L237.98 174.72"/>
<path d="M237.98 193.88L276.29 174.72"/>
<path d="M276.29 193.88L276.29 174.72"/>
<path d="M237.98 174.72L237.98 193.88"/>
<path d="M199.67 193.88L199.67 174.72"/>
<path d="M352.9 193.88L314.59 174.72"/>
<path d="M314.59 193.88L352.9 174.72"/>
<path d="M142.21 260.91L142.21 145.99"/>
<path d="M161.37 174.72L161.37 193.88"/>
<path d="M127.85 280.07L127.85 165.15"/>
<path d="M99.12 280.07L99.12 102.9"/>
<path d="M199.67 193.88L161.37 174.72"/>
<path d="M161.37 193.88L199.67 174.72"/>
<path d="M228.4 308.8L228.4 280.07"/>
<path d="M199.67 280.07L199.67 304.01"/>
<path d="M151.79 308.8L151.79 280.07"/>
<path d="M137.42 280.07L137.42 308.8"/>
<path d="M137.42 308.8L151.79 308.8"/>
<path d="M199.67 304.01L204.46 308.8"/>
<path d="M204.46 308.8L228.4 308.8"/>
<path d="M127.85 251.34L99.12 251.34"/>
<path d="M99.12 222.61L127.85 222.61"/>
<path d="M209.25 280.07L209.25 299.22"/>
<path d="M209.25 299.22L228.4 299.22"/>
<path d="M161.37 193.88L199.67 193.88"/>
<path d="M362.48 280.07L362.48 308.8"/>
<path d="M362.48 308.8L386.42 308.8"/>
<path d="M314.59 289.64L276.29 289.64"/>
<path d="M276.29 289.64L276.29 280.07"/>
<path d="M237.98 193.88L276.29 193.88"/>
<path d="M314.59 280.07L314.59 289.64"/>
<path d="M381.63 299.22L381.63 280.07"/>
<path d="M362.48 299.22L381.63 299.22"/>
<path d="M314.59 193.88L352.9 193.88"/>
<path d="M228.4 45.44L362.48 45.44"/>
<path d="M161.37 122.05L247.56 122.05"/>
<path d="M228.4 102.9L228.4 45.44"/>
<path d="M180.52 74.17L180.52 102.9"/>
<path d="M127.85 102.9L127.85 74.17"/>
<path d="M142.21 93.32L161.37 93.32"/>
<path d="M118.27 145.99L118.27 122.05"/>
<path d="M127.85 165.15L99.12 165.15"/>
<path d="M142.21 145.99L118.27 145.99"/>
<path d="M99.12 102.9L127.85 102.9"/>
<path d="M142.21 122.05L142.21 93.32"/>
<path d="M118.27 122.05L142.21 122.05"/>
<path d="M199.67 174.72L161.37 174.72"/>
<path d="M180.52 102.9L228.4 102.9"/>
<path d="M161.37 93.32L161.37 122.05"/>
<path d="M127.85 74.17L180.52 74.17"/>
<path d="M343.32 74.17L343.32 122.05"/>
<path d="M362.48 45.44L362.48 102.9"/>
<path d="M247.56 122.05L247.56 74.17"/>
<path d="M276.29 174.72L237.98 174.72"/>
<path d="M352.9 174.72L314.59 174.72"/>
<path d="M247.56 74.17L343.32 74.17"/>
<path d="M463.03 280.07L463.03 165.15"/>
<path d="M491.76 102.9L491.76 280.07"/>
<path d="M448.67 260.91L448.67 145.99"/>
<path d="M391.21 193.88L429.52 174.72"/>
<path d="M429.52 193.88L391.21 174.72"/>
<path d="M429.52 193.88L429.52 174.72"/>
<path d="M391.21 174.72L391.21 193.88"/>
<path d="M453.46 280.07L453.46 308.8"/>
<path d="M439.09 308.8L439.09 280.07"/>
<path d="M391.21 304.01L391.21 280.07"/>
<path d="M453.46 308.8L439.09 308.8"/>
<path d="M491.76 222.61L463.03 222.61"/>
<path d="M463.03 251.34L491.76 251.34"/>
<path d="M391.21 193.88L429.52 193.88"/>
<path d="M463.03 74.17L463.03 102.9"/>
<path d="M410.36 102.9L410.36 74.17"/>
<path d="M463.03 102.9L491.76 102.9"/>
<path d="M472.61 122.05L448.67 122.05"/>
<path d="M463.03 165.15L491.76 165.15"/>
<path d="M448.67 145.99L472.61 145.99"/>
<path d="M429.52 174.72L391.21 174.72"/>
<path d="M429.52 93.32L448.67 93.32"/>
<path d="M429.52 122.05L429.52 93.32"/>
<path d="M448.67 122.05L448.67 93.32"/>
<path d="M472.61 145.99L472.61 122.05"/>
<path d="M410.36 74.17L463.03 74.17"/>
<path d="M187.13 404.56L187.13 356.68M189.41 356.68L189.41 404.56M180.29 356.68L207.65 356.68M207.65 356.68L214.49 358.96M214.49 358.96L216.77 361.24M216.77 361.24L219.05 365.8M219.05 365.8L219.05 370.36M219.05 370.36L216.77 374.92M216.77 374.92L214.49 377.2M214.49 377.2L207.65 379.48M207.65 356.68L212.21 358.96M212.21 358.96L214.49 361.24M214.49 361.24L216.77 365.8M216.77 365.8L216.77 370.36M216.77 370.36L214.49 374.92M214.49 374.92L212.21 377.2M212.21 377.2L207.65 379.48M189.41 379.48L207.65 379.48M207.65 379.48L214.49 381.76M214.49 381.76L216.77 384.04M216.77 384.04L219.05 388.6M219.05 388.6L219.05 395.44M219.05 395.44L216.77 400M216.77 400L214.49 402.28M214.49 402.28L207.65 404.56M207.65 404.56L180.29 404.56M207.65 379.48L212.21 381.76M212.21 381.76L214.49 384.04M214.49 384.04L216.77 388.6M216.77 388.6L216.77 395.44M216.77 395.44L214.49 400M214.49 400L212.21 402.28M212.21 402.28L207.65 404.56M237.3 404.56L237.3 356.68M239.58 356.68L239.58 404.56M230.46 356.68L246.42 356.68M230.46 404.56L264.66 404.56M264.66 404.56L264.66 390.88M264.66 390.88L262.38 404.56M292.02 356.68L276.06 404.56M292.02 356.68L307.98 404.56M292.02 363.52L305.7 404.56M280.62 390.88L301.14 390.88M271.5 404.56L285.18 404.56M298.86 404.56L312.54 404.56M351.31 363.52L353.59 370.36M353.59 370.36L353.59 356.68M353.59 356.68L351.31 363.52M351.31 363.52L346.74 358.96M346.74 358.96L339.9 356.68M339.9 356.68L335.34 356.68M335.34 356.68L328.5 358.96M328.5 358.96L323.94 363.52M323.94 363.52L321.66 368.08M321.66 368.08L319.38 374.92M319.38 374.92L319.38 386.32M319.38 386.32L321.66 393.16M321.66 393.16L323.94 397.72M323.94 397.72L328.5 402.28M328.5 402.28L335.34 404.56M335.34 404.56L339.9 404.56M339.9 404.56L346.74 402.28M346.74 402.28L351.31 397.72M351.31 397.72L353.59 393.16M335.34 356.68L330.78 358.96M330.78 358.96L326.22 363.52M326.22 363.52L323.94 368.08M323.94 368.08L321.66 374.92M321.66 374.92L321.66 386.32M321.66 386.32L323.94 393.16M323.94 393.16L326.22 397.72M326.22 397.72L330.78 402.28M330.78 402.28L335.34 404.56M374.11 404.56L374.11 356.68M376.39 356.68L376.39 404.56M406.03 356.68L376.39 386.32M387.79 377.2L406.03 404.56M385.51 377.2L403.75 404.56M367.27 356.68L383.23 356.68M396.91 356.68L410.59 356.68M367.27 404.56L383.23 404.56M396.91 404.56L410.59 404.56"/>
<path d="M41.88 172.44L45.53 170.62M45.53 170.62L51 165.15M51 165.15L51 203.45"/>
<path d="M549 165.15L530.76 190.68M530.76 190.68L558.12 190.68M549 165.15L549 203.45"/>
</g>
</g>
</svg>
