<?xml version="1.0" standalone="no"?><svg xmlns="http://www.w3.org/2000/svg" width="600.000" height="450.000" viewBox="0.0 0.0 600.000 450.000" version="1.1">
<title>Acme Converter - Post-processed with EDS-Designer: 14.44 (info@symca.com)</title>
<desc>Acme Converter - Post-processed with EDS-Designer: 14.44 (info@symca.com)</desc>
<g id="EDS_STYLE_GROUP" fill="none" stroke="black" stroke-width="1.0">
<g id="0" display="visible">
<path d="M88.33 222.49L88.33 246.41"/>
<path d="M88.33 246.41L112.26 246.41"/>
<path d="M112.26 246.41L112.26 222.49"/>
<path d="M112.26 222.49L88.33 222.49"/>
<path d="M88.33 222.49L96.31 230.46"/>
<path d="M96.31 238.44L104.28 238.44"/>
<path d="M104.28 230.46L96.31 230.46"/>
<path d="M104.28 230.46L112.26 222.49"/>
<path d="M96.31 238.44L88.33 246.41"/>
<path d="M104.28 238.44L112.26 246.41"/>
<path d="M120.23 222.49L120.23 246.41"/>
<path d="M120.23 246.41L144.16 246.41"/>
<path d="M144.16 246.41L144.16 222.49"/>
<path d="M144.16 222.49L120.23 222.49"/>
<path d="M120.23 222.49L128.21 230.46"/>
<path d="M128.21 230.46L128.21 238.44"/>
<path d="M136.18 238.44L136.18 230.46"/>
<path d="M136.18 230.46L144.16 222.49"/>
<path d="M128.21 238.44L120.23 246.41"/>
<path d="M136.18 238.44L144.16 246.41"/>
<path d="M152.13 222.49L152.13 246.41"/>
<path d="M152.13 246.41L176.06 246.41"/>
<path d="M176.06 246.41L176.06 222.49"/>
<path d="M176.06 222.49L152.13 222.49"/>
<path d="M152.13 222.49L160.11 230.46"/>
<path d="M160.11 238.44L168.09 238.44"/>
<path d="M168.09 230.46L160.11 230.46"/>
<path d="M168.09 230.46L176.06 222.49"/>
<path d="M160.11 238.44L152.13 246.41"/>
<path d="M168.09 238.44L176.06 246.41"/>
<path d="M184.04 222.49L184.04 246.41"/>
<path d="M184.04 246.41L207.96 246.41"/>
<path d="M207.96 246.41L207.96 222.49"/>
<path d="M207.96 222.49L184.04 222.49"/>
<path d="M184.04 222.49L192.01 230.46"/>
<path d="M192.01 230.46L192.01 238.44"/>
<path d="M199.99 238.44L199.99 230.46"/>
<path d="M199.99 230.46L207.96 222.49"/>
<path d="M192.01 238.44L184.04 246.41"/>
<path d="M199.99 238.44L207.96 246.41"/>
<path d="M215.94 222.49L215.94 246.41"/>
<path d="M215.94 246.41L239.87 246.41"/>
<path d="M239.87 246.41L239.87 222.49"/>
<path d="M239.87 222.49L215.94 222.49"/>
<path d="M215.94 222.49L223.91 230.46"/>
<path d="M223.91 238.44L231.89 238.44"/>
<path d="M231.89 230.46L223.91 230.46"/>
<path d="M231.89 230.46L239.87 222.49"/>
<path d="M223.91 238.44L215.94 246.41"/>
<path d="M231.89 238.44L239.87 246.41"/>
<path d="M247.84 222.49L247.84 246.41"/>
<path d="M247.84 246.41L271.77 246.41"/>
<path d="M271.77 246.41L271.77 222.49"/>
<path d="M271.77 222.49L247.84 222.49"/>
<path d="M247.84 222.49L255.82 230.46"/>
<path d="M255.82 230.46L255.82 238.44"/>
<path d="M263.79 238.44L263.79 230.46"/>
<path d="M263.79 230.46L271.77 222.49"/>
<path d="M255.82 238.44L247.84 246.41"/>
<path d="M263.79 238.44L271.77 246.41"/>
<path d="M279.74 222.49L279.74 246.41"/>
<path d="M279.74 246.41L303.67 246.41"/>
<path d="M303.67 246.41L303.67 222.49"/>
<path d="M303.67 222.49L279.74 222.49"/>
<path d="M279.74 222.49L287.72 230.46"/>
<path d="M287.72 238.44L295.69 238.44"/>
<path d="M295.69 230.46L287.72 230.46"/>
<path d="M295.69 230.46L303.67 222.49"/>
<path d="M287.72 238.44L279.74 246.41"/>
<path d="M295.69 238.44L303.67 246.41"/>
<path d="M311.65 222.49L311.65 246.41"/>
<path d="M311.65 246.41L335.57 246.41"/>
<path d="M335.57 246.41L335.57 222.49"/>
<path d="M335.57 222.49L311.65 222.49"/>
<path d="M311.65 222.49L319.62 230.46"/>
<path d="M319.62 230.46L319.62 238.44"/>
<path d="M327.6 238.44L327.6 230.46"/>
<path d="M327.6 230.46L335.57 222.49"/>
<path d="M319.62 238.44L311.65 246.41"/>
<path d="M327.6 238.44L335.57 246.41"/>
<path d="M343.55 222.49L343.55 246.41"/>
<path d="M343.55 246.41L367.47 246.41"/>
<path d="M367.47 246.41L367.47 222.49"/>
<path d="M367.47 222.49L343.55 222.49"/>
<path d="M343.55 222.49L351.52 230.46"/>
<path d="M351.52 238.44L359.5 238.44"/>
<path d="M359.5 230.46L351.52 230.46"/>
<path d="M359.5 230.46L367.47 222.49"/>
<path d="M351.52 238.44L343.55 246.41"/>
<path d="M359.5 238.44L367.47 246.41"/>
<path d="M375.45 222.49L375.45 246.41"/>
<path d="M375.45 246.41L399.38 246.41"/>
<path d="M399.38 246.41L399.38 222.49"/>
<path d="M399.38 222.49L375.45 222.49"/>
<path d="M375.45 222.49L383.43 230.46"/>
<path d="M383.43 230.46L383.43 238.44"/>
<path d="M391.4 238.44L391.4 230.46"/>
<path d="M391.4 230.46L399.38 222.49"/>
<path d="M383.43 238.44L375.45 246.41"/>
<path d="M391.4 238.44L399.38 246.41"/>
<path d="M407.35 222.49L407.35 246.41"/>
<path d="M407.35 246.41L431.28 246.41"/>
<path d="M431.28 246.41L431.28 222.49"/>
<path d="M431.28 222.49L407.35 222.49"/>
<path d="M407.35 222.49L415.33 230.46"/>
<path d="M415.33 238.44L423.3 238.44"/>
<path d="M423.3 230.46L415.33 230.46"/>
<path d="M423.3 230.46L431.28 222.49"/>
<path d="M415.33 238.44L407.35 246.41"/>
<path d="M423.3 238.44L431.28 246.41"/>
<path d="M439.25 222.49L439.25 246.41"/>
<path d="M439.25 246.41L463.18 246.41"/>
<path d="M463.18 246.41L463.18 222.49"/>
<path d="M463.18 222.49L439.25 222.49"/>
<path d="M439.25 222.49L447.23 230.46"/>
<path d="M447.23 230.46L447.23 238.44"/>
<path d="M455.21 238.44L455.21 230.46"/>
<path d="M455.21 230.46L463.18 222.49"/>
<path d="M447.23 238.44L439.25 246.41"/>
<path d="M455.21 238.44L463.18 246.41"/>
<path d="M471.16 222.49L471.16 246.41"/>
<path d="M471.16 246.41L495.08 246.41"/>
<path d="M495.08 246.41L495.08 222.49"/>
<path d="M495.08 222.49L471.16 222.49"/>
<path d="M471.16 222.49L479.13 230.46"/>
<path d="M479.13 238.44L487.11 238.44"/>
<path d="M487.11 230.46L479.13 230.46"/>
<path d="M487.11 230.46L495.08 222.49"/>
<path d="M479.13 238.44L471.16 246.41"/>
<path d="M487.11 238.44L495.08 246.41"/>
<path d="M503.06 222.49L503.06 246.41"/>
<path d="M503.06 246.41L526.99 246.41"/>
<path d="M526.99 246.41L526.99 222.49"/>
<path d="M526.99 222.49L503.06 222.49"/>
<path d="M503.06 222.49L511.03 230.46"/>
<path d="M511.03 230.46L511.03 238.44"/>
<path d="M519.01 238.44L519.01 230.46"/>
<path d="M519.01 230.46L526.99 222.49"/>
<path d="M511.03 238.44L503.06 246.41"/>
<path d="M519.01 238.44L526.99 246.41"/>
<path d="M534.96 222.49L534.96 246.41"/>
<path d="M534.96 246.41L558.89 246.41"/>
<path d="M558.89 246.41L558.89 222.49"/>
<path d="M558.89 222.49L534.96 222.49"/>
<path d="M534.96 222.49L542.94 230.46"/>
<path d="M542.94 238.44L550.91 238.44"/>
<path d="M550.91 230.46L542.94 230.46"/>
<path d="M550.91 230.46L558.89 222.49"/>
<path d="M542.94 238.44L534.96 246.41"/>
<path d="M550.91 238.44L558.89 246.41"/>
<path d="M88.33 190.58L88.33 214.51"/>
<path d="M88.33 214.51L112.26 214.51"/>
<path d="M112.26 214.51L112.26 190.58"/>
<path d="M112.26 190.58L88.33 190.58"/>
<path d="M88.33 190.58L96.31 198.56"/>
<path d="M96.31 198.56L96.31 206.53"/>
<path d="M104.28 206.53L104.28 198.56"/>
<path d="M104.28 198.56L112.26 190.58"/>
<path d="M96.31 206.53L88.33 214.51"/>
<path d="M104.28 206.53L112.26 214.51"/>
<path d="M120.23 190.58L120.23 214.51"/>
<path d="M120.23 214.51L144.16 214.51"/>
<path d="M144.16 214.51L144.16 190.58"/>
<path d="M144.16 190.58L120.23 190.58"/>
<path d="M120.23 190.58L128.21 198.56"/>
<path d="M128.21 206.53L136.18 206.53"/>
<path d="M136.18 198.56L128.21 198.56"/>
<path d="M136.18 198.56L144.16 190.58"/>
<path d="M128.21 206.53L120.23 214.51"/>
<path d="M136.18 206.53L144.16 214.51"/>
<path d="M152.13 190.58L152.13 214.51"/>
<path d="M152.13 214.51L176.06 214.51"/>
<path d="M176.06 214.51L176.06 190.58"/>
<path d="M176.06 190.58L152.13 190.58"/>
<path d="M152.13 190.58L160.11 198.56"/>
<path d="M160.11 198.56L160.11 206.53"/>
<path d="M168.09 206.53L168.09 198.56"/>
<path d="M168.09 198.56L176.06 190.58"/>
<path d="M160.11 206.53L152.13 214.51"/>
<path d="M168.09 206.53L176.06 214.51"/>
<path d="M184.04 190.58L184.04 214.51"/>
<path d="M184.04 214.51L207.96 214.51"/>
<path d="M207.96 214.51L207.96 190.58"/>
<path d="M207.96 190.58L184.04 190.58"/>
<path d="M184.04 190.58L192.01 198.56"/>
<path d="M192.01 206.53L199.99 206.53"/>
<path d="M199.99 198.56L192.01 198.56"/>
<path d="M199.99 198.56L207.96 190.58"/>
<path d="M192.01 206.53L184.04 214.51"/>
<path d="M199.99 206.53L207.96 214.51"/>
<path d="M215.94 190.58L215.94 214.51"/>
<path d="M215.94 214.51L239.87 214.51"/>
<path d="M239.87 214.51L239.87 190.58"/>
<path d="M239.87 190.58L215.94 190.58"/>
<path d="M215.94 190.58L223.91 198.56"/>
<path d="M223.91 206.53L231.89 206.53"/>
<path d="M231.89 198.56L223.91 198.56"/>
<path d="M231.89 198.56L239.87 190.58"/>
<path d="M223.91 206.53L215.94 214.51"/>
<path d="M231.89 206.53L239.87 214.51"/>
<path d="M247.84 190.58L247.84 214.51"/>
<path d="M247.84 214.51L271.77 214.51"/>
<path d="M271.77 214.51L271.77 190.58"/>
<path d="M271.77 190.58L247.84 190.58"/>
<path d="M247.84 190.58L255.82 198.56"/>
<path d="M255.82 198.56L255.82 206.53"/>
<path d="M263.79 206.53L263.79 198.56"/>
<path d="M263.79 198.56L271.77 190.58"/>
<path d="M255.82 206.53L247.84 214.51"/>
<path d="M263.79 206.53L271.77 214.51"/>
<path d="M279.74 190.58L279.74 214.51"/>
<path d="M279.74 214.51L303.67 214.51"/>
<path d="M303.67 214.51L303.67 190.58"/>
<path d="M303.67 190.58L279.74 190.58"/>
<path d="M279.74 190.58L287.72 198.56"/>
<path d="M287.72 206.53L295.69 206.53"/>
<path d="M295.69 198.56L287.72 198.56"/>
<path d="M295.69 198.56L303.67 190.58"/>
<path d="M287.72 206.53L279.74 214.51"/>
<path d="M295.69 206.53L303.67 214.51"/>
<path d="M311.65 190.58L311.65 214.51"/>
<path d="M311.65 214.51L335.57 214.51"/>
<path d="M335.57 214.51L335.57 190.58"/>
<path d="M335.57 190.58L311.65 190.58"/>
<path d="M311.65 190.58L319.62 198.56"/>
<path d="M319.62 198.56L319.62 206.53"/>
<path d="M327.6 206.53L327.6 198.56"/>
<path d="M327.6 198.56L335.57 190.58"/>
<path d="M319.62 206.53L311.65 214.51"/>
<path d="M327.6 206.53L335.57 214.51"/>
<path d="M343.55 190.58L343.55 214.51"/>
<path d="M343.55 214.51L367.47 214.51"/>
<path d="M367.47 214.51L367.47 190.58"/>
<path d="M367.47 190.58L343.55 190.58"/>
<path d="M343.55 190.58L351.52 198.56"/>
<path d="M351.52 206.53L359.5 206.53"/>
<path d="M359.5 198.56L351.52 198.56"/>
<path d="M359.5 198.56L367.47 190.58"/>
<path d="M351.52 206.53L343.55 214.51"/>
<path d="M359.5 206.53L367.47 214.51"/>
<path d="M375.45 190.58L375.45 214.51"/>
<path d="M375.45 214.51L399.38 214.51"/>
<path d="M399.38 214.51L399.38 190.58"/>
<path d="M399.38 190.58L375.45 190.58"/>
<path d="M375.45 190.58L383.43 198.56"/>
<path d="M383.43 198.56L383.43 206.53"/>
<path d="M391.4 206.53L391.4 198.56"/>
<path d="M391.4 198.56L399.38 190.58"/>
<path d="M383.43 206.53L375.45 214.51"/>
<path d="M391.4 206.53L399.38 214.51"/>
<path d="M407.35 190.58L407.35 214.51"/>
<path d="M407.35 214.51L431.28 214.51"/>
<path d="M431.28 214.51L431.28 190.58"/>
<path d="M431.28 190.58L407.35 190.58"/>
<path d="M407.35 190.58L415.33 198.56"/>
<path d="M415.33 206.53L423.3 206.53"/>
<path d="M423.3 198.56L415.33 198.56"/>
<path d="M423.3 198.56L431.28 190.58"/>
<path d="M415.33 206.53L407.35 214.51"/>
<path d="M423.3 206.53L431.28 214.51"/>
<path d="M439.25 190.58L439.25 214.51"/>
<path d="M439.25 214.51L463.18 214.51"/>
<path d="M463.18 214.51L463.18 190.58"/>
<path d="M463.18 190.58L439.25 190.58"/>
<path d="M439.25 190.58L447.23 198.56"/>
<path d="M447.23 198.56L447.23 206.53"/>
<path d="M455.21 206.53L455.21 198.56"/>
<path d="M455.21 198.56L463.18 190.58"/>
<path d="M447.23 206.53L439.25 214.51"/>
<path d="M455.21 206.53L463.18 214.51"/>
<path d="M471.16 190.58L471.16 214.51"/>
<path d="M471.16 214.51L495.08 214.51"/>
<path d="M495.08 214.51L495.08 190.58"/>
<path d="M495.08 190.58L471.16 190.58"/>
<path d="M471.16 190.58L479.13 198.56"/>
<path d="M479.13 206.53L487.11 206.53"/>
<path d="M487.11 198.56L479.13 198.56"/>
<path d="M487.11 198.56L495.08 190.58"/>
<path d="M479.13 206.53L471.16 214.51"/>
<path d="M487.11 206.53L495.08 214.51"/>
<path d="M503.06 190.58L503.06 214.51"/>
<path d="M503.06 214.51L526.99 214.51"/>
<path d="M526.99 214.51L526.99 190.58"/>
<path d="M526.99 190.58L503.06 190.58"/>
<path d="M503.06 190.58L511.03 198.56"/>
<path d="M511.03 198.56L511.03 206.53"/>
<path d="M519.01 206.53L519.01 198.56"/>
<path d="M519.01 198.56L526.99 190.58"/>
<path d="M511.03 206.53L503.06 214.51"/>
<path d="M519.01 206.53L526.99 214.51"/>
<path d="M534.96 190.58L534.96 214.51"/>
<path d="M534.96 214.51L558.89 214.51"/>
<path d="M558.89 214.51L558.89 190.58"/>
<path d="M558.89 190.58L534.96 190.58"/>
<path d="M534.96 190.58L542.94 198.56"/>
<path d="M542.94 206.53L550.91 206.53"/>
<path d="M550.91 198.56L542.94 198.56"/>
<path d="M550.91 198.56L558.89 190.58"/>
<path d="M542.94 206.53L534.96 214.51"/>
<path d="M550.91 206.53L558.89 214.51"/>
<path d="M80.35 190.58L64.4 190.58"/>
<path d="M64.4 190.58L64.4 214.51"/>
<path d="M64.4 214.51L80.35 214.51"/>
<path d="M80.35 214.51L80.35 190.58"/>
<path d="M64.4 222.49L80.35 222.49"/>
<path d="M80.35 222.49L80.35 246.41"/>
<path d="M80.35 246.41L64.4 246.41"/>
<path d="M64.4 246.41L64.4 222.49"/>
<path d="M72.38 182.61L72.38 118.8"/>
<path d="M72.38 118.8L48.45 118.8"/>
<path d="M48.45 118.8L48.45 318.19"/>
<path d="M48.45 318.19L72.38 318.19"/>
<path d="M72.38 318.19L72.38 254.39"/>
<path d="M72.38 254.39L566.86 254.39"/>
<path d="M566.86 182.61L72.38 182.61"/>
<path d="M96.31 182.61L96.31 174.63"/>
<path d="M96.31 174.63L120.23 182.61"/>
<path d="M96.31 254.39L96.31 262.36"/>
<path d="M96.31 262.36L120.23 254.39"/>
<path d="M566.86 222.49L566.86 246.41"/>
<path d="M566.86 246.41L590.79 246.41"/>
<path d="M590.79 246.41L590.79 222.49"/>
<path d="M590.79 222.49L566.86 222.49"/>
<path d="M566.86 222.49L574.84 230.46"/>
<path d="M574.84 230.46L574.84 238.44"/>
<path d="M582.81 238.44L582.81 230.46"/>
<path d="M582.81 230.46L590.79 222.49"/>
<path d="M574.84 238.44L566.86 246.41"/>
<path d="M582.81 238.44L590.79 246.41"/>
<path d="M566.86 190.58L566.86 214.51"/>
<path d="M566.86 214.51L590.79 214.51"/>
<path d="M590.79 214.51L590.79 190.58"/>
<path d="M590.79 190.58L566.86 190.58"/>
<path d="M566.86 190.58L574.84 198.56"/>
<path d="M574.84 198.56L574.84 206.53"/>
<path d="M582.81 206.53L582.81 198.56"/>
<path d="M582.81 198.56L590.79 190.58"/>
<path d="M574.84 206.53L566.86 214.51"/>
<path d="M582.81 206.53L590.79 214.51"/>
<path d="M566.86 182.61L598.77 182.61"/>
<path d="M598.77 182.61L598.77 254.39"/>
<path d="M598.77 254.39L566.86 254.39"/>
<path d="M574.42 148.07L576.22 147.17M576.22 147.17L578.92 144.47M578.92 144.47L578.92 163.38"/>
<path d="M4.08 196.45L5.88 195.55M5.88 195.55L8.58 192.84M8.58 192.84L8.58 211.75M29.29 195.55L28.39 193.75M28.39 193.75L25.69 192.84M25.69 192.84L23.89 192.84M23.89 192.84L21.19 193.75M21.19 193.75L19.38 196.45M19.38 196.45L18.48 200.95M18.48 200.95L18.48 205.45M18.48 205.45L19.38 209.05M19.38 209.05L21.19 210.85M21.19 210.85L23.89 211.75M23.89 211.75L24.79 211.75M24.79 211.75L27.49 210.85M27.49 210.85L29.29 209.05M29.29 209.05L30.19 206.35M30.19 206.35L30.19 205.45M30.19 205.45L29.29 202.75M29.29 202.75L27.49 200.95M27.49 200.95L24.79 200.05M24.79 200.05L23.89 200.05M23.89 200.05L21.19 200.95M21.19 200.95L19.38 202.75M19.38 202.75L18.48 205.45"/>
<path d="M567.78 277.07L569.58 276.17M569.58 276.17L572.28 273.47M572.28 273.47L572.28 292.37M582.18 273.47L594.79 273.47M594.79 273.47L585.78 292.37"/>
<path d="M3.03 227.94L12.94 227.94M12.94 227.94L7.54 235.14M7.54 235.14L10.24 235.14M10.24 235.14L12.04 236.04M12.04 236.04L12.94 236.94M12.94 236.94L13.84 239.64M13.84 239.64L13.84 241.44M13.84 241.44L12.94 244.14M12.94 244.14L11.14 245.94M11.14 245.94L8.44 246.84M8.44 246.84L5.74 246.84M5.74 246.84L3.03 245.94M3.03 245.94L2.13 245.04M2.13 245.04L1.23 243.24M20.14 232.44L20.14 231.54M20.14 231.54L21.04 229.74M21.04 229.74L21.94 228.84M21.94 228.84L23.74 227.94M23.74 227.94L27.34 227.94M27.34 227.94L29.14 228.84M29.14 228.84L30.04 229.74M30.04 229.74L30.94 231.54M30.94 231.54L30.94 233.34M30.94 233.34L30.04 235.14M30.04 235.14L28.24 237.84M28.24 237.84L19.24 246.84M19.24 246.84L31.84 246.84"/>
<path d="M255.19 331.19L255.19 300.94M256.63 300.94L256.63 331.19M250.87 300.94L268.15 300.94M268.15 300.94L272.48 302.38M272.48 302.38L273.92 303.82M273.92 303.82L275.36 306.7M275.36 306.7L275.36 309.58M275.36 309.58L273.92 312.46M273.92 312.46L272.48 313.9M272.48 313.9L268.15 315.35M268.15 300.94L271.03 302.38M271.03 302.38L272.48 303.82M272.48 303.82L273.92 306.7M273.92 306.7L273.92 309.58M273.92 309.58L272.48 312.46M272.48 312.46L271.03 313.9M271.03 313.9L268.15 315.35M256.63 315.35L268.15 315.35M268.15 315.35L272.48 316.79M272.48 316.79L273.92 318.23M273.92 318.23L275.36 321.11M275.36 321.11L275.36 325.43M275.36 325.43L273.92 328.31M273.92 328.31L272.48 329.75M272.48 329.75L268.15 331.19M268.15 331.19L250.87 331.19M268.15 315.35L271.03 316.79M271.03 316.79L272.48 318.23M272.48 318.23L273.92 321.11M273.92 321.11L273.92 325.43M273.92 325.43L272.48 328.31M272.48 328.31L271.03 329.75M271.03 329.75L268.15 331.19M286.88 331.19L286.88 300.94M288.32 300.94L288.32 331.19M282.56 300.94L292.64 300.94M282.56 331.19L304.16 331.19M304.16 331.19L304.16 322.55M304.16 322.55L302.72 331.19M321.45 300.94L311.37 331.19M321.45 300.94L331.53 331.19M321.45 305.26L330.09 331.19M314.25 322.55L327.21 322.55M308.48 331.19L317.13 331.19M325.77 331.19L334.41 331.19M358.9 305.26L360.34 309.58M360.34 309.58L360.34 300.94M360.34 300.94L358.9 305.26M358.9 305.26L356.02 302.38M356.02 302.38L351.7 300.94M351.7 300.94L348.82 300.94M348.82 300.94L344.49 302.38M344.49 302.38L341.61 305.26M341.61 305.26L340.17 308.14M340.17 308.14L338.73 312.46M338.73 312.46L338.73 319.67M338.73 319.67L340.17 323.99M340.17 323.99L341.61 326.87M341.61 326.87L344.49 329.75M344.49 329.75L348.82 331.19M348.82 331.19L351.7 331.19M351.7 331.19L356.02 329.75M356.02 329.75L358.9 326.87M358.9 326.87L360.34 323.99M348.82 300.94L345.93 302.38M345.93 302.38L343.05 305.26M343.05 305.26L341.61 308.14M341.61 308.14L340.17 312.46M340.17 312.46L340.17 319.67M340.17 319.67L341.61 323.99M341.61 323.99L343.05 326.87M343.05 326.87L345.93 329.75M345.93 329.75L348.82 331.19M373.3 331.19L373.3 300.94M374.74 300.94L374.74 331.19M393.47 300.94L374.74 319.67M381.94 313.9L393.47 331.19M380.5 313.9L392.03 331.19M368.98 300.94L379.06 300.94M387.71 300.94L396.35 300.94M368.98 331.19L379.06 331.19M387.71 331.19L396.35 331.19"/>
</g>
</g>
</svg>
