<?xml version="1.0" standalone="no"?><svg xmlns="http://www.w3.org/2000/svg" width="600.000" height="450.000" viewBox="0.0 0.0 600.000 450.000" version="1.1">
<title>Acme Converter - Post-processed with EDS-Designer: 14.44 (info@symca.com)</title>
<desc>Acme Converter - Post-processed with EDS-Designer: 14.44 (info@symca.com)</desc>
<g id="EDS_STYLE_GROUP" fill="none" stroke="black" stroke-width="1.0">
<g id="0" display="visible">
<path d="M81.86 185.18L100.94 185.18"/>
<path d="M100.94 185.18L100.94 156.56"/>
<path d="M100.94 156.56L110.47 156.56"/>
<path d="M110.47 156.56L110.47 185.18"/>
<path d="M110.47 185.18L129.55 185.18"/>
<path d="M81.86 185.18L81.86 204.26"/>
<path d="M100.94 185.18L100.94 194.72"/>
<path d="M100.94 194.72L91.4 194.72"/>
<path d="M91.4 194.72L91.4 204.26"/>
<path d="M91.4 204.26L81.86 204.26"/>
<path d="M81.86 185.18L91.4 194.72"/>
<path d="M129.55 185.18L129.55 204.26"/>
<path d="M129.55 204.26L191.55 204.26"/>
<path d="M191.55 204.26L191.55 185.18"/>
<path d="M191.55 185.18L210.63 185.18"/>
<path d="M210.63 185.18L210.63 156.56"/>
<path d="M210.63 156.56L220.17 156.56"/>
<path d="M220.17 156.56L220.17 185.18"/>
<path d="M220.17 185.18L239.24 185.18"/>
<path d="M239.24 185.18L239.24 204.26"/>
<path d="M239.24 204.26L248.78 204.26"/>
<path d="M248.78 204.26L248.78 185.18"/>
<path d="M248.78 185.18L267.86 185.18"/>
<path d="M267.86 185.18L267.86 156.56"/>
<path d="M267.86 156.56L277.4 156.56"/>
<path d="M277.4 156.56L277.4 185.18"/>
<path d="M277.4 185.18L296.47 185.18"/>
<path d="M296.47 185.18L296.47 204.26"/>
<path d="M296.47 204.26L306.01 204.26"/>
<path d="M306.01 204.26L306.01 185.18"/>
<path d="M306.01 185.18L325.09 185.18"/>
<path d="M325.09 185.18L325.09 156.56"/>
<path d="M325.09 156.56L334.63 156.56"/>
<path d="M334.63 156.56L334.63 185.18"/>
<path d="M334.63 185.18L353.71 185.18"/>
<path d="M353.71 185.18L353.71 204.26"/>
<path d="M472.94 204.26L472.94 185.18"/>
<path d="M472.94 185.18L492.01 185.18"/>
<path d="M492.01 185.18L492.01 156.56"/>
<path d="M492.01 156.56L501.55 156.56"/>
<path d="M501.55 156.56L501.55 185.18"/>
<path d="M501.55 185.18L520.63 185.18"/>
<path d="M520.63 185.18L520.63 204.26"/>
<path d="M110.47 185.18L110.47 194.72"/>
<path d="M110.47 194.72L120.01 194.72"/>
<path d="M120.01 194.72L120.01 204.26"/>
<path d="M120.01 204.26L129.55 204.26"/>
<path d="M120.01 194.72L129.55 185.18"/>
<path d="M191.55 204.26L201.09 204.26"/>
<path d="M201.09 204.26L201.09 194.72"/>
<path d="M201.09 194.72L210.63 194.72"/>
<path d="M210.63 194.72L210.63 185.18"/>
<path d="M220.17 185.18L220.17 194.72"/>
<path d="M220.17 194.72L229.71 194.72"/>
<path d="M229.71 194.72L229.71 204.26"/>
<path d="M229.71 204.26L239.24 204.26"/>
<path d="M201.09 194.72L191.55 185.18"/>
<path d="M229.71 194.72L239.24 185.18"/>
<path d="M248.78 204.26L258.32 204.26"/>
<path d="M258.32 204.26L258.32 194.72"/>
<path d="M258.32 194.72L267.86 194.72"/>
<path d="M267.86 194.72L267.86 185.18"/>
<path d="M248.78 185.18L258.32 194.72"/>
<path d="M277.4 185.18L277.4 194.72"/>
<path d="M277.4 194.72L286.94 194.72"/>
<path d="M286.94 194.72L286.94 204.26"/>
<path d="M286.94 204.26L296.47 204.26"/>
<path d="M286.94 194.72L296.47 185.18"/>
<path d="M306.01 204.26L315.55 204.26"/>
<path d="M315.55 204.26L315.55 194.72"/>
<path d="M315.55 194.72L325.09 194.72"/>
<path d="M325.09 194.72L325.09 185.18"/>
<path d="M315.55 194.72L306.01 185.18"/>
<path d="M334.63 185.18L334.63 194.72"/>
<path d="M334.63 194.72L344.17 194.72"/>
<path d="M344.17 194.72L344.17 204.26"/>
<path d="M344.17 194.72L353.71 185.18"/>
<path d="M482.48 204.26L482.48 194.72"/>
<path d="M482.48 194.72L492.01 194.72"/>
<path d="M492.01 194.72L492.01 185.18"/>
<path d="M472.94 185.18L482.48 194.72"/>
<path d="M501.55 185.18L501.55 194.72"/>
<path d="M501.55 194.72L511.09 194.72"/>
<path d="M511.09 194.72L511.09 204.26"/>
<path d="M511.09 204.26L520.63 204.26"/>
<path d="M511.09 194.72L520.63 185.18"/>
<path d="M81.86 204.26L81.86 232.87"/>
<path d="M520.63 204.26L520.63 232.87"/>
<path d="M491.99 294.45L491.99 265.83"/>
<path d="M110.45 294.45L129.53 294.45"/>
<path d="M129.53 294.45L129.53 313.52"/>
<path d="M110.45 294.45L110.45 303.99"/>
<path d="M110.45 303.99L119.99 303.99"/>
<path d="M119.99 303.99L119.99 313.52"/>
<path d="M172.47 313.52L191.53 313.52"/>
<path d="M191.53 313.52L191.53 294.45"/>
<path d="M191.53 294.45L210.61 294.45"/>
<path d="M210.61 294.45L210.61 265.83"/>
<path d="M210.61 265.83L220.15 265.83"/>
<path d="M220.15 265.83L220.15 294.45"/>
<path d="M220.15 294.45L239.22 294.45"/>
<path d="M239.22 294.45L239.22 313.52"/>
<path d="M119.99 303.99L129.53 294.45"/>
<path d="M191.53 313.52L201.07 313.52"/>
<path d="M201.07 313.52L201.07 303.99"/>
<path d="M201.07 303.99L210.61 303.99"/>
<path d="M210.61 303.99L210.61 294.45"/>
<path d="M191.53 294.45L201.07 303.99"/>
<path d="M220.15 294.45L220.15 303.99"/>
<path d="M220.15 303.99L229.69 303.99"/>
<path d="M229.69 303.99L229.69 313.52"/>
<path d="M229.69 313.52L239.22 313.52"/>
<path d="M229.69 303.99L239.22 294.45"/>
<path d="M239.22 313.52L248.76 313.52"/>
<path d="M248.76 313.52L248.76 294.45"/>
<path d="M248.76 294.45L267.84 294.45"/>
<path d="M267.84 294.45L267.84 265.83"/>
<path d="M267.84 265.83L277.38 265.83"/>
<path d="M277.38 265.83L277.38 294.45"/>
<path d="M277.38 294.45L296.45 294.45"/>
<path d="M296.45 294.45L296.45 313.52"/>
<path d="M296.45 313.52L286.92 313.52"/>
<path d="M286.92 313.52L286.92 303.99"/>
<path d="M286.92 303.99L277.38 303.99"/>
<path d="M277.38 303.99L277.38 294.45"/>
<path d="M286.92 303.99L296.45 294.45"/>
<path d="M267.84 294.45L267.84 303.99"/>
<path d="M267.84 303.99L258.3 303.99"/>
<path d="M258.3 303.99L258.3 313.52"/>
<path d="M258.3 313.52L248.76 313.52"/>
<path d="M248.76 294.45L258.3 303.99"/>
<path d="M296.45 313.52L305.99 313.52"/>
<path d="M305.99 313.52L305.99 294.45"/>
<path d="M305.99 294.45L325.07 294.45"/>
<path d="M325.07 294.45L325.07 265.83"/>
<path d="M325.07 265.83L334.61 265.83"/>
<path d="M334.61 265.83L334.61 294.45"/>
<path d="M334.61 294.45L353.69 294.45"/>
<path d="M353.69 294.45L353.69 313.52"/>
<path d="M353.69 313.52L372.78 313.52"/>
<path d="M305.99 313.52L315.53 313.52"/>
<path d="M315.53 313.52L315.53 303.99"/>
<path d="M315.53 303.99L325.07 303.99"/>
<path d="M325.07 303.99L325.07 294.45"/>
<path d="M305.99 294.45L315.53 303.99"/>
<path d="M334.61 294.45L334.61 303.99"/>
<path d="M334.61 303.99L344.15 303.99"/>
<path d="M344.15 303.99L344.15 313.52"/>
<path d="M344.15 313.52L353.69 313.52"/>
<path d="M344.15 303.99L353.69 294.45"/>
<path d="M472.92 313.52L472.92 294.45"/>
<path d="M472.92 294.45L491.99 294.45"/>
<path d="M491.99 294.45L491.99 303.99"/>
<path d="M491.99 303.99L482.45 303.99"/>
<path d="M482.45 303.99L482.45 313.52"/>
<path d="M482.45 313.52L458.63 313.52"/>
<path d="M472.92 294.45L482.45 303.99"/>
<path d="M110.45 294.45L110.45 265.83"/>
<path d="M110.45 265.83L139.07 256.29"/>
<path d="M139.07 256.29L463.38 256.29"/>
<path d="M463.38 256.29L491.99 265.83"/>
<path d="M72.3 246.75L72.3 351.68"/>
<path d="M72.3 351.68L530.15 351.68"/>
<path d="M530.15 351.68L530.15 246.75"/>
<path d="M77.07 346.91L258.3 346.91"/>
<path d="M258.3 346.91L263.07 342.14"/>
<path d="M263.07 342.14L258.3 342.14"/>
<path d="M100.92 265.83L105.69 265.83"/>
<path d="M105.69 265.83L139.07 251.52"/>
<path d="M139.07 251.52L463.38 251.52"/>
<path d="M463.38 251.52L496.76 265.83"/>
<path d="M496.76 265.83L501.53 265.83"/>
<path d="M501.53 265.83L501.53 294.45"/>
<path d="M501.53 294.45L501.53 303.99"/>
<path d="M525.38 346.91L520.61 346.91"/>
<path d="M258.3 342.14L258.3 318.29"/>
<path d="M258.3 318.29L224.92 318.29"/>
<path d="M224.92 318.29L224.92 337.37"/>
<path d="M224.92 337.37L205.84 337.37"/>
<path d="M205.84 337.37L205.84 318.29"/>
<path d="M205.84 318.29L167.71 318.29"/>
<path d="M110.45 318.29L110.45 337.37"/>
<path d="M110.45 337.37L86.61 337.37"/>
<path d="M86.61 337.37L86.61 318.29"/>
<path d="M86.61 318.29L91.38 318.29"/>
<path d="M91.38 318.29L91.38 303.99"/>
<path d="M91.38 303.99L100.92 303.99"/>
<path d="M100.92 303.99L100.92 265.83"/>
<path d="M501.53 303.99L511.07 303.99"/>
<path d="M511.07 303.99L511.07 318.29"/>
<path d="M511.07 318.29L515.84 318.29"/>
<path d="M515.84 318.29L515.84 337.37"/>
<path d="M515.84 337.37L491.99 337.37"/>
<path d="M491.99 337.37L491.99 318.29"/>
<path d="M377.55 318.29L344.15 318.29"/>
<path d="M344.15 318.29L344.15 342.14"/>
<path d="M344.15 342.14L339.38 342.14"/>
<path d="M339.38 342.14L344.15 346.91"/>
<path d="M344.15 346.91L520.61 346.91"/>
<path d="M267.84 318.29L267.84 342.14"/>
<path d="M267.84 342.14L334.61 342.14"/>
<path d="M334.61 342.14L334.61 318.29"/>
<path d="M334.61 318.29L267.84 318.29"/>
<path d="M272.61 323.06L272.61 337.37"/>
<path d="M272.61 337.37L329.84 337.37"/>
<path d="M329.84 337.37L329.84 323.06"/>
<path d="M329.84 323.06L272.61 323.06"/>
<path d="M291.69 323.06L291.69 337.37"/>
<path d="M310.76 323.06L310.76 337.37"/>
<path d="M72.32 247.18L72.32 232.87"/>
<path d="M72.32 232.87L81.86 232.87"/>
<path d="M530.17 247.18L530.17 232.87"/>
<path d="M530.17 232.87L520.63 232.87"/>
<path d="M77.09 347.33L77.09 237.64"/>
<path d="M77.09 237.64L86.63 237.64"/>
<path d="M86.63 237.64L86.63 242.41"/>
<path d="M86.63 242.41L110.47 242.41"/>
<path d="M110.47 242.41L110.47 209.03"/>
<path d="M167.71 209.03L205.86 209.03"/>
<path d="M205.86 209.03L205.86 232.87"/>
<path d="M205.86 232.87L224.94 232.87"/>
<path d="M224.94 232.87L224.94 209.03"/>
<path d="M224.94 209.03L263.09 209.03"/>
<path d="M263.09 209.03L263.09 232.87"/>
<path d="M263.09 232.87L282.17 232.87"/>
<path d="M282.17 232.87L282.17 209.03"/>
<path d="M282.17 209.03L320.32 209.03"/>
<path d="M320.32 209.03L320.32 232.87"/>
<path d="M320.32 232.87L339.4 232.87"/>
<path d="M339.4 232.87L339.4 209.03"/>
<path d="M339.4 209.03L377.55 209.03"/>
<path d="M482.48 209.03L482.48 232.87"/>
<path d="M482.48 232.87L482.48 242.41"/>
<path d="M482.48 242.41L515.86 242.41"/>
<path d="M515.86 242.41L515.86 237.64"/>
<path d="M515.86 237.64L525.4 237.64"/>
<path d="M525.4 237.64L525.4 347.33"/>
<path d="M286.94 213.8L286.94 228.1"/>
<path d="M286.94 228.1L315.55 228.1"/>
<path d="M315.55 228.1L315.55 213.8"/>
<path d="M315.55 213.8L286.94 213.8"/>
<path d="M62.78 361.64L539.71 361.64"/>
<path d="M539.71 361.64L539.71 99.33"/>
<path d="M539.71 99.33L515.86 99.33"/>
<path d="M434.78 99.33L434.78 132.72"/>
<path d="M515.86 132.72L401.4 132.72"/>
<path d="M401.4 132.72L401.4 147.03"/>
<path d="M401.4 147.03L382.32 147.03"/>
<path d="M382.32 147.03L382.32 142.26"/>
<path d="M382.32 142.26L368.01 142.26"/>
<path d="M368.01 142.26L368.01 99.33"/>
<path d="M368.01 99.33L353.71 99.33"/>
<path d="M353.71 99.33L353.71 142.26"/>
<path d="M353.71 142.26L339.4 142.26"/>
<path d="M339.4 142.26L339.4 147.03"/>
<path d="M62.78 361.64L62.78 99.33"/>
<path d="M62.78 99.33L86.63 99.33"/>
<path d="M167.71 99.33L167.71 132.72"/>
<path d="M86.63 132.72L201.09 132.72"/>
<path d="M201.09 132.72L201.09 147.03"/>
<path d="M201.09 147.03L220.17 147.03"/>
<path d="M220.17 147.03L220.17 142.26"/>
<path d="M220.17 142.26L234.47 142.26"/>
<path d="M248.78 142.26L263.09 142.26"/>
<path d="M263.09 142.26L263.09 147.03"/>
<path d="M263.09 147.03L339.4 147.03"/>
<path d="M277.4 147.03L277.4 137.49"/>
<path d="M277.4 137.49L325.09 137.49"/>
<path d="M325.09 137.49L325.09 147.03"/>
<path d="M234.47 99.33L248.78 99.33"/>
<path d="M234.47 99.33L234.47 142.26"/>
<path d="M248.78 99.33L248.78 142.26"/>
<path d="M248.78 99.33L353.71 99.33"/>
<path d="M248.78 108.87L353.71 108.87"/>
<path d="M282.17 99.33L282.17 89.79"/>
<path d="M282.17 89.79L320.32 89.79"/>
<path d="M320.32 89.79L320.32 99.33"/>
<path d="M272.63 99.33L272.63 85.03"/>
<path d="M272.63 85.03L329.86 85.03"/>
<path d="M329.86 85.03L329.86 99.33"/>
<path d="M244.01 80.26L234.47 80.26"/>
<path d="M234.47 80.26L234.47 64.52"/>
<path d="M237.81 61.18L364.67 61.18"/>
<path d="M368.01 64.52L368.01 80.26"/>
<path d="M368.01 80.26L358.47 80.26"/>
<path d="M263.09 99.33L261.64 92.03M261.64 92.03L257.5 85.84M257.5 85.84L251.31 81.71M251.31 81.71L244.01 80.26"/>
<path d="M358.47 80.26L351.17 81.71M351.17 81.71L344.99 85.84M344.99 85.84L340.85 92.03M340.85 92.03L339.4 99.33"/>
<path d="M237.81 61.18L235.45 62.16M235.45 62.16L234.47 64.52"/>
<path d="M368.01 64.52L367.04 62.16M367.04 62.16L364.67 61.18"/>
<path d="M234.47 99.33L229.71 99.33"/>
<path d="M229.71 99.33L229.71 56.41"/>
<path d="M368.01 99.33L372.78 99.33"/>
<path d="M372.78 99.33L372.78 56.41"/>
<path d="M229.71 56.41L214.25 59.41M214.25 59.41L199.73 65.52M199.73 65.52L186.79 74.49M186.79 74.49L175.96 85.92M175.96 85.92L167.71 99.33"/>
<path d="M434.78 99.33L429.52 86.83M429.52 86.83L421.59 75.83M421.59 75.83L411.38 66.9M411.38 66.9L399.43 60.49M399.43 60.49L386.34 56.93M386.34 56.93L372.78 56.41"/>
<path d="M220.17 127.95L220.17 65.95"/>
<path d="M382.32 127.95L382.32 65.95"/>
<path d="M215.4 132.72L201.09 132.72"/>
<path d="M387.09 132.72L401.4 132.72"/>
<path d="M220.17 65.95L207.93 70.66M207.93 70.66L197.34 78.4M197.34 78.4L189.15 88.64M189.15 88.64L183.92 100.67M183.92 100.67L182.01 113.64"/>
<path d="M182.01 113.64L181.75 132.52"/>
<path d="M420.48 108.87L419.23 96.23M419.23 96.23L414.13 84.59M414.13 84.59L405.69 75.09M405.69 75.09L394.73 68.67M394.73 68.67L382.32 65.95"/>
<path d="M420.48 108.87L420.38 132.52"/>
<path d="M215.4 132.72L218.77 131.32M218.77 131.32L220.17 127.95"/>
<path d="M382.32 127.95L383.72 131.32M383.72 131.32L387.09 132.72"/>
<path d="M282.17 108.87L282.17 137.49"/>
<path d="M320.32 108.87L320.32 137.49"/>
<path d="M570.82 212.66L572.64 211.75M572.64 211.75L575.36 209.03M575.36 209.03L575.36 228.1"/>
<path d="M27.58 209.03L24.86 209.93M24.86 209.93L23.95 211.75M23.95 211.75L23.95 213.57M23.95 213.57L24.86 215.38M24.86 215.38L26.67 216.29M26.67 216.29L30.31 217.2M30.31 217.2L33.03 218.11M33.03 218.11L34.85 219.93M34.85 219.93L35.76 221.74M35.76 221.74L35.76 224.47M35.76 224.47L34.85 226.29M34.85 226.29L33.94 227.19M33.94 227.19L31.21 228.1M31.21 228.1L27.58 228.1M27.58 228.1L24.86 227.19M24.86 227.19L23.95 226.29M23.95 226.29L23.04 224.47M23.04 224.47L23.04 221.74M23.04 221.74L23.95 219.93M23.95 219.93L25.76 218.11M25.76 218.11L28.49 217.2M28.49 217.2L32.12 216.29M32.12 216.29L33.94 215.38M33.94 215.38L34.85 213.57M34.85 213.57L34.85 211.75M34.85 211.75L33.94 209.93M33.94 209.93L31.21 209.03M31.21 209.03L27.58 209.03"/>
<path d="M579 320.31L578.09 323.03M578.09 323.03L576.27 324.85M576.27 324.85L573.54 325.76M573.54 325.76L572.64 325.76M572.64 325.76L569.91 324.85M569.91 324.85L568.09 323.03M568.09 323.03L567.19 320.31M567.19 320.31L567.19 319.4M567.19 319.4L568.09 316.67M568.09 316.67L569.91 314.86M569.91 314.86L572.64 313.95M572.64 313.95L573.54 313.95M573.54 313.95L576.27 314.86M576.27 314.86L578.09 316.67M578.09 316.67L579 320.31M579 320.31L579 324.85M579 324.85L578.09 329.39M578.09 329.39L576.27 332.12M576.27 332.12L573.54 333.03M573.54 333.03L571.73 333.03M571.73 333.03L569 332.12M569 332.12L568.09 330.3"/>
<path d="M20.99 317.58L22.81 316.67M22.81 316.67L25.54 313.95M25.54 313.95L25.54 333.03M46.43 316.67L45.52 314.86M45.52 314.86L42.8 313.95M42.8 313.95L40.98 313.95M40.98 313.95L38.25 314.86M38.25 314.86L36.44 317.58M36.44 317.58L35.53 322.12M35.53 322.12L35.53 326.67M35.53 326.67L36.44 330.3M36.44 330.3L38.25 332.12M38.25 332.12L40.98 333.03M40.98 333.03L41.89 333.03M41.89 333.03L44.61 332.12M44.61 332.12L46.43 330.3M46.43 330.3L47.34 327.58M47.34 327.58L47.34 326.67M47.34 326.67L46.43 323.94M46.43 323.94L44.61 322.12M44.61 322.12L41.89 321.22M41.89 321.22L40.98 321.22M40.98 321.22L38.25 322.12M38.25 322.12L36.44 323.94M36.44 323.94L35.53 326.67"/>
<path d="M252.19 384.13L253.32 387.53M253.32 387.53L253.32 380.72M253.32 380.72L252.19 384.13M252.19 384.13L249.92 381.85M249.92 381.85L246.51 380.72M246.51 380.72L244.24 380.72M244.24 380.72L240.83 381.85M240.83 381.85L238.56 384.13M238.56 384.13L237.43 386.4M237.43 386.4L236.29 389.8M236.29 389.8L236.29 395.48M236.29 395.48L237.43 398.89M237.43 398.89L238.56 401.16M238.56 401.16L240.83 403.43M240.83 403.43L244.24 404.56M244.24 404.56L246.51 404.56M246.51 404.56L249.92 403.43M249.92 403.43L252.19 401.16M244.24 380.72L241.97 381.85M241.97 381.85L239.7 384.13M239.7 384.13L238.56 386.4M238.56 386.4L237.43 389.8M237.43 389.8L237.43 395.48M237.43 395.48L238.56 398.89M238.56 398.89L239.7 401.16M239.7 401.16L241.97 403.43M241.97 403.43L244.24 404.56M252.19 395.48L252.19 404.56M253.32 395.48L253.32 404.56M248.78 395.48L256.73 395.48M265.82 404.56L265.82 380.72M266.95 380.72L266.95 404.56M262.41 380.72L276.04 380.72M276.04 380.72L279.44 381.85M279.44 381.85L280.58 382.99M280.58 382.99L281.71 385.26M281.71 385.26L281.71 387.53M281.71 387.53L280.58 389.8M280.58 389.8L279.44 390.94M279.44 390.94L276.04 392.07M276.04 392.07L266.95 392.07M276.04 380.72L278.31 381.85M278.31 381.85L279.44 382.99M279.44 382.99L280.58 385.26M280.58 385.26L280.58 387.53M280.58 387.53L279.44 389.8M279.44 389.8L278.31 390.94M278.31 390.94L276.04 392.07M262.41 404.56L270.36 404.56M272.63 392.07L274.9 393.21M274.9 393.21L276.04 394.34M276.04 394.34L279.44 402.29M279.44 402.29L280.58 403.43M280.58 403.43L281.71 403.43M281.71 403.43L282.85 402.29M274.9 393.21L276.04 395.48M276.04 395.48L278.31 403.43M278.31 403.43L279.44 404.56M279.44 404.56L281.71 404.56M281.71 404.56L282.85 402.29M282.85 402.29L282.85 401.16M290.8 404.56L290.8 380.72M291.93 380.72L291.93 404.56M298.75 387.53L298.75 396.62M287.39 380.72L305.56 380.72M305.56 380.72L305.56 387.53M305.56 387.53L304.42 380.72M291.93 392.07L298.75 392.07M287.39 404.56L305.56 404.56M305.56 404.56L305.56 397.75M305.56 397.75L304.42 404.56M314.64 404.56L314.64 380.72M315.78 380.72L315.78 404.56M322.59 387.53L322.59 396.62M311.24 380.72L329.41 380.72M329.41 380.72L329.41 387.53M329.41 387.53L328.27 380.72M315.78 392.07L322.59 392.07M311.24 404.56L329.41 404.56M329.41 404.56L329.41 397.75M329.41 397.75L328.27 404.56M338.49 404.56L338.49 380.72M339.63 404.56L339.63 380.72M339.63 380.72L353.25 402.29M339.63 382.99L353.25 404.56M353.25 404.56L353.25 380.72M335.08 380.72L339.63 380.72M349.84 380.72L356.66 380.72M335.08 404.56L341.9 404.56"/>
<path d="M377.55 232.87L377.55 209.03"/>
<path d="M396.63 209.03L396.63 232.87"/>
<path d="M396.63 232.87L377.55 232.87"/>
<path d="M372.78 194.72L363.24 185.18"/>
<path d="M382.32 185.18L363.24 185.18"/>
<path d="M372.78 204.26L344.17 204.26"/>
<path d="M382.32 156.56L382.32 185.18"/>
<path d="M391.86 185.18L391.86 156.56"/>
<path d="M401.4 194.72L391.86 194.72"/>
<path d="M410.94 185.18L391.86 185.18"/>
<path d="M401.4 204.26L401.4 194.72"/>
<path d="M410.94 204.26L410.94 185.18"/>
<path d="M430.01 204.26L401.4 204.26"/>
<path d="M401.4 194.72L410.94 185.18"/>
<path d="M372.78 194.72L372.78 204.26"/>
<path d="M382.32 194.72L372.78 194.72"/>
<path d="M391.86 194.72L391.86 185.18"/>
<path d="M382.32 185.18L382.32 194.72"/>
<path d="M391.86 156.56L382.32 156.56"/>
<path d="M363.24 185.18L363.24 204.26"/>
<path d="M453.86 209.03L453.86 232.87"/>
<path d="M434.78 232.87L434.78 209.03"/>
<path d="M453.86 232.87L434.78 232.87"/>
<path d="M439.55 185.18L420.48 185.18"/>
<path d="M430.01 194.72L420.48 185.18"/>
<path d="M420.48 185.18L420.48 204.26"/>
<path d="M449.09 185.18L449.09 156.56"/>
<path d="M439.55 156.56L439.55 185.18"/>
<path d="M468.17 185.18L449.09 185.18"/>
<path d="M458.63 194.72L449.09 194.72"/>
<path d="M430.01 194.72L430.01 204.26"/>
<path d="M439.55 194.72L430.01 194.72"/>
<path d="M439.55 185.18L439.55 194.72"/>
<path d="M449.09 194.72L449.09 185.18"/>
<path d="M468.17 204.26L468.17 185.18"/>
<path d="M458.63 204.26L458.63 194.72"/>
<path d="M482.48 204.26L458.63 204.26"/>
<path d="M458.63 194.72L468.17 185.18"/>
<path d="M449.09 156.56L439.55 156.56"/>
<path d="M148.63 209.03L148.63 232.87"/>
<path d="M167.71 232.87L167.71 209.03"/>
<path d="M148.63 232.87L167.71 232.87"/>
<path d="M172.47 194.72L182.01 185.18"/>
<path d="M162.94 185.18L182.01 185.18"/>
<path d="M172.47 204.26L182.01 204.26"/>
<path d="M182.01 185.18L182.01 204.26"/>
<path d="M162.94 156.56L162.94 185.18"/>
<path d="M153.4 185.18L153.4 156.56"/>
<path d="M143.86 194.72L153.4 194.72"/>
<path d="M134.32 185.18L153.4 185.18"/>
<path d="M172.47 194.72L172.47 204.26"/>
<path d="M162.94 194.72L172.47 194.72"/>
<path d="M162.94 185.18L162.94 194.72"/>
<path d="M153.4 194.72L153.4 185.18"/>
<path d="M143.86 204.26L143.86 194.72"/>
<path d="M134.32 204.26L134.32 185.18"/>
<path d="M134.32 204.26L143.86 204.26"/>
<path d="M143.86 194.72L134.32 185.18"/>
<path d="M153.4 156.56L162.94 156.56"/>
<path d="M396.63 209.03L434.78 209.03"/>
<path d="M453.86 209.03L482.48 209.03"/>
<path d="M396.65 337.37L396.65 318.29"/>
<path d="M377.57 318.29L377.57 337.37"/>
<path d="M377.57 337.37L396.65 337.37"/>
<path d="M372.8 303.99L363.26 294.45"/>
<path d="M382.34 294.45L363.26 294.45"/>
<path d="M372.8 313.52L363.26 313.52"/>
<path d="M382.34 265.83L382.34 294.45"/>
<path d="M391.88 294.45L391.88 265.83"/>
<path d="M401.42 303.99L391.88 303.99"/>
<path d="M410.96 294.45L391.88 294.45"/>
<path d="M401.42 313.52L401.42 303.99"/>
<path d="M410.96 313.52L410.96 294.45"/>
<path d="M430.01 313.52L401.42 313.52"/>
<path d="M410.96 294.45L401.42 303.99"/>
<path d="M372.8 303.99L372.8 313.52"/>
<path d="M382.34 303.99L372.8 303.99"/>
<path d="M382.34 294.45L382.34 303.99"/>
<path d="M391.88 303.99L391.88 294.45"/>
<path d="M391.88 265.83L382.34 265.83"/>
<path d="M363.26 294.45L363.26 313.52"/>
<path d="M434.8 318.29L434.8 337.37"/>
<path d="M453.88 337.37L453.88 318.29"/>
<path d="M434.8 337.37L453.88 337.37"/>
<path d="M439.57 294.45L420.5 294.45"/>
<path d="M430.03 303.99L420.5 294.45"/>
<path d="M420.5 294.45L420.5 313.52"/>
<path d="M449.11 294.45L449.11 265.83"/>
<path d="M439.57 265.83L439.57 294.45"/>
<path d="M468.19 294.45L449.11 294.45"/>
<path d="M458.65 303.99L449.11 303.99"/>
<path d="M430.03 303.99L430.03 313.52"/>
<path d="M439.57 303.99L430.03 303.99"/>
<path d="M449.11 303.99L449.11 294.45"/>
<path d="M439.57 294.45L439.57 303.99"/>
<path d="M468.19 313.52L468.19 294.45"/>
<path d="M458.65 313.52L458.65 303.99"/>
<path d="M468.19 294.45L458.65 303.99"/>
<path d="M449.11 265.83L439.57 265.83"/>
<path d="M148.63 209.03L110.47 209.03"/>
<path d="M86.63 99.33L86.63 132.72"/>
<path d="M515.86 99.33L515.86 132.72"/>
<path d="M172.45 303.99L181.99 294.45"/>
<path d="M162.92 294.45L181.99 294.45"/>
<path d="M181.99 294.45L181.99 313.52"/>
<path d="M148.61 337.37L148.61 318.29"/>
<path d="M167.69 318.29L167.69 337.37"/>
<path d="M167.69 337.37L148.61 337.37"/>
<path d="M162.92 265.83L162.92 294.45"/>
<path d="M153.38 294.45L153.38 265.83"/>
<path d="M143.84 303.99L153.38 303.99"/>
<path d="M134.3 294.45L153.38 294.45"/>
<path d="M172.45 303.99L172.45 313.52"/>
<path d="M162.92 294.45L162.92 303.99"/>
<path d="M162.92 303.99L172.45 303.99"/>
<path d="M153.38 303.99L153.38 294.45"/>
<path d="M143.84 313.52L143.84 303.99"/>
<path d="M134.3 313.52L134.3 294.45"/>
<path d="M134.3 294.45L143.84 303.99"/>
<path d="M153.38 265.83L162.92 265.83"/>
<path d="M148.63 318.72L110.47 318.72"/>
<path d="M120.01 313.95L143.86 313.95"/>
<path d="M396.63 318.72L434.78 318.72"/>
<path d="M453.86 318.72L492.01 318.72"/>
</g>
</g>
</svg>
