<?xml version="1.0" standalone="no"?><svg xmlns="http://www.w3.org/2000/svg" width="600.000" height="450.000" viewBox="0.0 0.0 600.000 450.000" version="1.1">
<title>Acme Converter - Post-processed with EDS-Designer: 14.44 (info@symca.com)</title>
<desc>Acme Converter - Post-processed with EDS-Designer: 14.44 (info@symca.com)</desc>
<g id="EDS_STYLE_GROUP" fill="none" stroke="black" stroke-width="1.0">
<g id="0" display="visible">
<path d="M452.66 181.13L450.26 166.35M450.26 166.35L444.19 152.66M444.19 152.66L434.83 140.97M434.83 140.97L422.82 132.04M422.82 132.04L408.92 126.46"/>
<path d="M467.97 168.01L463.49 153.95M463.49 153.95L456.34 141.05M456.34 141.05L446.78 129.81M446.78 129.81L435.2 120.68M435.2 120.68L422.04 114.01M422.04 114.01L407.83 110.06"/>
<path d="M395.8 327.64L407.6 324.4M407.6 324.4L418.3 318.45M418.3 318.45L427.29 310.14M427.29 310.14L434.06 299.94M434.06 299.94L438.22 288.42M438.22 288.42L439.54 276.25"/>
<path d="M397.99 318.9L408.63 314.47M408.63 314.47L417.77 307.45M417.77 307.45L424.8 298.31M424.8 298.31L429.24 287.67M429.24 287.67L430.79 276.25"/>
<path d="M430.79 188.78L428.47 176.33M428.47 176.33L422.42 165.21M422.42 165.21L413.23 156.5M413.23 156.5L401.8 151.06M401.8 151.06L389.24 149.42"/>
<path d="M439.54 190.97L437.66 177.92M437.66 177.92L432.58 165.76M432.58 165.76L424.63 155.25M424.63 155.25L414.29 147.07M414.29 147.07L402.24 141.73M402.24 141.73L389.24 139.58"/>
<path d="M202.27 111.15L186.71 116.21M186.71 116.21L172.43 124.18M172.43 124.18L159.96 134.78M159.96 134.78L149.79 147.59M149.79 147.59L142.29 162.13M142.29 162.13L137.76 177.85"/>
<path d="M203.36 126.46L189.5 132.3M189.5 132.3L177.16 140.89M177.16 140.89L166.87 151.86M166.87 151.86L159.09 164.73M159.09 164.73L154.16 178.94"/>
<path d="M223.17 404.44L223.17 358.36M224.94 358.36L224.94 404.44M217.86 358.36L239.1 358.36M239.1 358.36L244.41 360.55M244.41 360.55L246.18 362.75M246.18 362.75L247.95 367.14M247.95 367.14L247.95 371.53M247.95 371.53L246.18 375.91M246.18 375.91L244.41 378.11M244.41 378.11L239.1 380.3M239.1 358.36L242.64 360.55M242.64 360.55L244.41 362.75M244.41 362.75L246.18 367.14M246.18 367.14L246.18 371.53M246.18 371.53L244.41 375.91M244.41 375.91L242.64 378.11M242.64 378.11L239.1 380.3M224.94 380.3L239.1 380.3M239.1 380.3L244.41 382.5M244.41 382.5L246.18 384.69M246.18 384.69L247.95 389.08M247.95 389.08L247.95 395.66M247.95 395.66L246.18 400.05M246.18 400.05L244.41 402.24M244.41 402.24L239.1 404.44M239.1 404.44L217.86 404.44M239.1 380.3L242.64 382.5M242.64 382.5L244.41 384.69M244.41 384.69L246.18 389.08M246.18 389.08L246.18 395.66M246.18 395.66L244.41 400.05M244.41 400.05L242.64 402.24M242.64 402.24L239.1 404.44M262.11 404.44L262.11 358.36M263.88 358.36L263.88 404.44M256.8 358.36L269.19 358.36M256.8 404.44L283.35 404.44M283.35 404.44L283.35 391.27M283.35 391.27L281.58 404.44M304.59 358.36L292.2 404.44M304.59 358.36L316.98 404.44M304.59 364.94L315.21 404.44M295.74 391.27L311.67 391.27M288.66 404.44L299.28 404.44M309.9 404.44L320.52 404.44M350.61 364.94L352.38 371.53M352.38 371.53L352.38 358.36M352.38 358.36L350.61 364.94M350.61 364.94L347.07 360.55M347.07 360.55L341.76 358.36M341.76 358.36L338.22 358.36M338.22 358.36L332.91 360.55M332.91 360.55L329.37 364.94M329.37 364.94L327.6 369.33M327.6 369.33L325.83 375.91M325.83 375.91L325.83 386.88M325.83 386.88L327.6 393.47M327.6 393.47L329.37 397.85M329.37 397.85L332.91 402.24M332.91 402.24L338.22 404.44M338.22 404.44L341.76 404.44M341.76 404.44L347.07 402.24M347.07 402.24L350.61 397.85M350.61 397.85L352.38 393.47M338.22 358.36L334.68 360.55M334.68 360.55L331.14 364.94M331.14 364.94L329.37 369.33M329.37 369.33L327.6 375.91M327.6 375.91L327.6 386.88M327.6 386.88L329.37 393.47M329.37 393.47L331.14 397.85M331.14 397.85L334.68 402.24M334.68 402.24L338.22 404.44M368.31 404.44L368.31 358.36M370.08 358.36L370.08 404.44M393.09 358.36L370.08 386.88M378.93 378.11L393.09 404.44M377.16 378.11L391.32 404.44M363 358.36L375.39 358.36M386.01 358.36L396.63 358.36M363 404.44L375.39 404.44M386.01 404.44L396.63 404.44"/>
<path d="M227.42 149.42L389.24 149.42"/>
<path d="M221.95 139.58L389.24 139.58"/>
<path d="M209.92 327.64L395.8 327.64"/>
<path d="M363 318.9L209.92 318.9"/>
<path d="M399.03 301.4L208.88 301.4"/>
<path d="M154.16 178.94L154.16 237.83"/>
<path d="M137.76 237.83L137.76 177.85"/>
<path d="M137.76 237.83L169.47 237.83"/>
<path d="M107.79 217.69L112.91 212.57M112.91 212.57L123.15 212.57M123.15 212.57L128.27 217.69M128.27 217.69L128.27 222.81M128.27 222.81L123.15 227.92M123.15 227.92L118.03 227.92M123.15 227.92L128.27 233.04M128.27 233.04L128.27 238.16M128.27 238.16L123.15 243.28M123.15 243.28L112.91 243.28M112.91 243.28L107.79 238.16"/>
<path d="M177.12 251.1L177.12 192.06"/>
<path d="M169.47 187.69L169.47 285"/>
<path d="M193.52 286.04L193.52 243.17"/>
<path d="M169.47 285L172.37 297.28M172.37 297.28L178.36 308.38M178.36 308.38L187.05 317.53M187.05 317.53L197.81 324.1M197.81 324.1L209.92 327.64"/>
<path d="M177.12 280.63L181.39 293.02M181.39 293.02L188.61 303.97M188.61 303.97L198.33 312.77M198.33 312.77L209.92 318.9"/>
<path d="M177.12 251.1L193.52 251.1"/>
<path d="M193.52 269.69L177.12 269.69"/>
<path d="M177.12 269.69L177.12 280.63"/>
<path d="M177.12 269.69L177.12 251.1"/>
<path d="M193.52 251.1L193.52 269.69"/>
<path d="M226.32 149.42L214.53 150.65M214.53 150.65L203.39 154.7M203.39 154.7L193.55 161.31M193.55 161.31L185.6 170.11M185.6 170.11L180.02 180.56M180.02 180.56L177.12 192.06"/>
<path d="M221.95 139.58L209.39 141.93M209.39 141.93L197.67 146.99M197.67 146.99L187.35 154.52M187.35 154.52L178.96 164.14M178.96 164.14L172.89 175.38M172.89 175.38L169.47 187.69"/>
<path d="M326.45 220.13L326.45 250.85"/>
<path d="M280.37 250.85L280.37 220.13"/>
<path d="M288.05 227.81L280.37 220.13"/>
<path d="M280.37 220.13L295.73 220.13"/>
<path d="M318.77 243.17L288.05 243.17"/>
<path d="M288.05 227.81L318.77 227.81"/>
<path d="M288.05 243.17L288.05 227.81"/>
<path d="M318.77 227.81L318.77 243.17"/>
<path d="M318.77 227.81L326.45 220.13"/>
<path d="M363 301.4L391.43 301.4"/>
<path d="M391.43 318.9L363 318.9"/>
<path d="M363 318.9L363 301.4"/>
<path d="M391.43 301.4L391.43 318.9"/>
<path d="M397.99 318.9L391.43 318.9"/>
<path d="M232.88 126.46L247.1 126.46"/>
<path d="M232.88 126.46L390.33 126.46"/>
<path d="M230.7 126.46L203.36 126.46"/>
<path d="M232.88 111.15L202.27 111.15"/>
<path d="M232.88 111.15L232.88 53.22"/>
<path d="M230.7 126.46L232.88 126.46"/>
<path d="M240.56 45.54L370.63 45.54"/>
<path d="M250.94 59.76L358.07 59.76"/>
<path d="M352.06 118.29L256.94 118.29"/>
<path d="M256.94 77.23L352.06 77.23"/>
<path d="M247.1 126.46L247.1 63.6"/>
<path d="M256.94 118.29L256.94 77.23"/>
<path d="M361.91 126.46L378.31 126.46"/>
<path d="M361.91 126.46L361.91 63.6"/>
<path d="M352.06 77.23L352.06 118.29"/>
<path d="M378.31 110.06L378.31 53.22"/>
<path d="M378.31 110.06L407.83 110.06"/>
<path d="M378.31 126.46L408.92 126.46"/>
<path d="M378.31 107.87L378.31 110.06"/>
<path d="M439.54 190.97L439.54 276.25"/>
<path d="M467.97 237.83L467.97 168.01"/>
<path d="M452.66 181.13L452.66 237.83"/>
<path d="M430.79 276.25L430.79 188.78"/>
<path d="M414.39 251.1L430.79 251.1"/>
<path d="M430.79 269.69L414.39 269.69"/>
<path d="M414.39 269.69L414.39 251.1"/>
<path d="M430.79 251.1L430.79 269.69"/>
<path d="M467.97 237.83L439.54 237.83"/>
<path d="M482.05 217.69L487.17 212.57M487.17 212.57L487.17 243.28M482.05 243.28L492.29 243.28"/>
<path d="M240.56 45.54L236.72 46.57M236.72 46.57L233.91 49.38M233.91 49.38L232.88 53.22"/>
<path d="M378.31 53.22L377.28 49.38M377.28 49.38L374.47 46.57M374.47 46.57L370.63 45.54"/>
<path d="M250.94 59.76L248.22 60.88M248.22 60.88L247.1 63.6"/>
<path d="M361.91 63.6L360.78 60.88M360.78 60.88L358.07 59.76"/>
<path d="M286.73 84.61L317.45 84.61"/>
<path d="M317.45 84.61L317.45 103.8"/>
<path d="M317.45 103.8L286.73 103.8"/>
<path d="M286.73 103.8L286.73 84.61"/>
<path d="M399.03 169.58L208.88 169.58"/>
<path d="M208.88 169.58L203 170.75M203 170.75L198.02 174.08M198.02 174.08L194.69 179.06M194.69 179.06L193.52 184.94"/>
<path d="M193.52 286.04L194.69 291.92M194.69 291.92L198.02 296.9M198.02 296.9L203 300.23M203 300.23L208.88 301.4"/>
<path d="M399.03 301.4L404.91 300.23M404.91 300.23L409.89 296.9M409.89 296.9L413.22 291.92M413.22 291.92L414.39 286.04"/>
<path d="M414.39 184.94L413.22 179.06M413.22 179.06L409.89 174.08M409.89 174.08L404.91 170.75M404.91 170.75L399.03 169.58"/>
<path d="M193.52 227.81L199.74 227.81"/>
<path d="M203.58 231.65L203.58 239.33"/>
<path d="M199.74 243.17L193.52 243.17"/>
<path d="M193.52 227.81L193.52 184.94"/>
<path d="M203.58 231.65L202.45 228.94M202.45 228.94L199.74 227.81"/>
<path d="M199.74 243.17L201.66 242.66M201.66 242.66L203.06 241.25M203.06 241.25L203.58 239.33"/>
<path d="M414.39 227.81L414.39 184.94"/>
<path d="M408.17 243.17L414.39 243.17"/>
<path d="M404.33 231.65L404.33 239.33"/>
<path d="M404.33 239.33L404.85 241.25M404.85 241.25L406.25 242.66M406.25 242.66L408.17 243.17"/>
<path d="M414.39 227.81L408.17 227.81"/>
<path d="M408.17 227.81L405.46 228.94M405.46 228.94L404.33 231.65"/>
<path d="M414.39 286.04L414.39 243.17"/>
<path d="M311.09 220.13L311.09 189.42"/>
<path d="M311.09 189.42L295.73 189.42"/>
<path d="M295.73 189.42L295.73 220.13"/>
<path d="M311.09 220.13L326.45 220.13"/>
<path d="M311.09 250.85L326.45 250.85"/>
<path d="M280.37 250.85L295.73 250.85"/>
<path d="M295.73 281.57L295.73 250.85"/>
<path d="M311.09 250.85L311.09 281.57"/>
<path d="M311.09 281.57L295.73 281.57"/>
<path d="M318.77 243.17L326.45 250.85"/>
<path d="M288.05 243.17L280.37 250.85"/>
<path d="M372.52 250.85L387.88 250.85"/>
<path d="M372.52 220.13L387.88 220.13"/>
<path d="M349.48 227.81L380.2 227.81"/>
<path d="M380.2 243.17L349.48 243.17"/>
<path d="M372.52 250.85L372.52 281.57"/>
<path d="M357.16 281.57L357.16 250.85"/>
<path d="M372.52 281.57L357.16 281.57"/>
<path d="M349.48 243.17L341.8 250.85"/>
<path d="M341.8 250.85L357.16 250.85"/>
<path d="M349.48 227.81L341.8 220.13"/>
<path d="M341.8 220.13L357.16 220.13"/>
<path d="M357.16 189.42L357.16 220.13"/>
<path d="M372.52 220.13L372.52 189.42"/>
<path d="M341.8 250.85L341.8 220.13"/>
<path d="M349.48 243.17L349.48 227.81"/>
<path d="M372.52 189.42L357.16 189.42"/>
<path d="M380.2 243.17L387.88 250.85"/>
<path d="M387.88 220.13L387.88 250.85"/>
<path d="M380.2 227.81L387.88 220.13"/>
<path d="M380.2 227.81L380.2 243.17"/>
<path d="M249.65 250.85L265.01 250.85"/>
<path d="M249.65 220.13L265.01 220.13"/>
<path d="M226.61 227.81L257.33 227.81"/>
<path d="M257.33 243.17L226.61 243.17"/>
<path d="M249.65 250.85L249.65 281.57"/>
<path d="M234.29 281.57L234.29 250.85"/>
<path d="M249.65 281.57L234.29 281.57"/>
<path d="M226.61 243.17L218.94 250.85"/>
<path d="M218.94 250.85L234.29 250.85"/>
<path d="M226.61 227.81L218.94 220.13"/>
<path d="M218.94 220.13L234.29 220.13"/>
<path d="M234.29 189.42L234.29 220.13"/>
<path d="M249.65 220.13L249.65 189.42"/>
<path d="M218.94 250.85L218.94 220.13"/>
<path d="M226.61 243.17L226.61 227.81"/>
<path d="M249.65 189.42L234.29 189.42"/>
<path d="M257.33 243.17L265.01 250.85"/>
<path d="M265.01 220.13L265.01 250.85"/>
<path d="M257.33 227.81L265.01 220.13"/>
<path d="M257.33 227.81L257.33 243.17"/>
</g>
</g>
</svg>
