<?xml version="1.0" standalone="no"?><svg xmlns="http://www.w3.org/2000/svg" width="600.000" height="450.000" viewBox="0.0 0.0 600.000 450.000" version="1.1">
<title>Acme Converter - Post-processed with EDS-Designer: 14.44 (info@symca.com)</title>
<desc>Acme Converter - Post-processed with EDS-Designer: 14.44 (info@symca.com)</desc>
<g id="EDS_STYLE_GROUP" fill="none" stroke="black" stroke-width="1.0">
<g id="0" display="visible">
<path d="M86.68 179.88L96.31 179.88M96.31 179.88L91.05 186.89M91.05 186.89L93.68 186.89M93.68 186.89L95.43 187.76M95.43 187.76L96.31 188.64M96.31 188.64L97.19 191.27M97.19 191.27L97.19 193.02M97.19 193.02L96.31 195.65M96.31 195.65L94.56 197.4M94.56 197.4L91.93 198.27M91.93 198.27L89.3 198.27M89.3 198.27L86.68 197.4M86.68 197.4L85.8 196.52M85.8 196.52L84.92 194.77"/>
<path d="M510.71 180.29L512.47 179.42M512.47 179.42L515.09 176.79M515.09 176.79L515.09 195.18"/>
<path d="M251.81 386.42L251.81 354.23M253.34 354.23L253.34 386.42M247.21 354.23L265.6 354.23M265.6 354.23L270.2 355.76M270.2 355.76L271.73 357.29M271.73 357.29L273.27 360.36M273.27 360.36L273.27 363.42M273.27 363.42L271.73 366.49M271.73 366.49L270.2 368.02M270.2 368.02L265.6 369.56M265.6 354.23L268.67 355.76M268.67 355.76L270.2 357.29M270.2 357.29L271.73 360.36M271.73 360.36L271.73 363.42M271.73 363.42L270.2 366.49M270.2 366.49L268.67 368.02M268.67 368.02L265.6 369.56M253.34 369.56L265.6 369.56M265.6 369.56L270.2 371.09M270.2 371.09L271.73 372.62M271.73 372.62L273.27 375.69M273.27 375.69L273.27 380.29M273.27 380.29L271.73 383.35M271.73 383.35L270.2 384.88M270.2 384.88L265.6 386.42M265.6 386.42L247.21 386.42M265.6 369.56L268.67 371.09M268.67 371.09L270.2 372.62M270.2 372.62L271.73 375.69M271.73 375.69L271.73 380.29M271.73 380.29L270.2 383.35M270.2 383.35L268.67 384.88M268.67 384.88L265.6 386.42M285.53 386.42L285.53 354.23M287.06 354.23L287.06 386.42M280.93 354.23L291.66 354.23M280.93 386.42L303.92 386.42M303.92 386.42L303.92 377.22M303.92 377.22L302.39 386.42M313.12 354.23L313.12 377.22M313.12 377.22L314.65 381.82M314.65 381.82L317.72 384.88M317.72 384.88L322.31 386.42M322.31 386.42L325.38 386.42M325.38 386.42L329.98 384.88M329.98 384.88L333.04 381.82M333.04 381.82L334.58 377.22M334.58 377.22L334.58 354.23M314.65 354.23L314.65 377.22M314.65 377.22L316.18 381.82M316.18 381.82L319.25 384.88M319.25 384.88L322.31 386.42M308.52 354.23L319.25 354.23M329.98 354.23L339.18 354.23M349.9 386.42L349.9 354.23M351.44 354.23L351.44 386.42M360.63 363.42L360.63 375.69M345.31 354.23L369.83 354.23M369.83 354.23L369.83 363.42M369.83 363.42L368.3 354.23M351.44 369.56L360.63 369.56M345.31 386.42L369.83 386.42M369.83 386.42L369.83 377.22M369.83 377.22L368.3 386.42"/>
<path d="M264.84 226.36L264.84 259.46"/>
<path d="M264.84 259.46L264.84 311.89"/>
<path d="M245.52 331.2L252.91 329.73M252.91 329.73L259.18 325.54M259.18 325.54L263.37 319.28M263.37 319.28L264.84 311.89"/>
<path d="M245.52 331.2L143.44 331.2"/>
<path d="M110.33 298.09L111.95 308.32M111.95 308.32L116.65 317.55M116.65 317.55L123.98 324.88M123.98 324.88L133.21 329.58M133.21 329.58L143.44 331.2"/>
<path d="M110.33 165.66L110.33 162.9"/>
<path d="M110.33 298.09L110.33 179.45"/>
<path d="M110.33 169.7L110.33 179.45"/>
<path d="M110.33 165.66L110.33 169.7"/>
<path d="M142.36 129.81L132.39 131.69M132.39 131.69L123.46 136.5M123.46 136.5L116.4 143.79M116.4 143.79L111.89 152.87M111.89 152.87L110.33 162.9"/>
<path d="M142.36 129.81L143.44 129.79"/>
<path d="M173.79 129.79L143.44 129.79"/>
<path d="M270.35 85.65L270.35 93.92"/>
<path d="M435.89 93.92L435.89 85.65"/>
<path d="M237.25 273.26L237.25 309.13"/>
<path d="M237.25 118.76L237.25 190.49"/>
<path d="M237.25 151.86L143.44 151.86"/>
<path d="M143.44 151.86L137.92 153.34M137.92 153.34L133.88 157.38M133.88 157.38L132.4 162.9"/>
<path d="M132.4 179.45L132.4 298.09"/>
<path d="M132.4 162.9L132.4 165.66"/>
<path d="M132.4 169.7L132.4 165.66"/>
<path d="M132.4 179.45L132.4 169.7"/>
<path d="M132.4 298.09L133.88 303.61M133.88 303.61L137.92 307.65M137.92 307.65L143.44 309.13"/>
<path d="M237.25 309.13L143.44 309.13"/>
<path d="M300.7 309.13L264.84 309.13"/>
<path d="M455.21 226.36L400.03 226.36"/>
<path d="M375.2 226.36L264.84 226.36"/>
<path d="M251.04 212.56L264.84 226.36"/>
<path d="M251.04 259.46L251.04 212.56"/>
<path d="M251.04 259.46L260.79 269.22"/>
<path d="M251.04 273.26L257.94 271.41M257.94 271.41L262.99 266.36M262.99 266.36L264.84 259.47"/>
<path d="M110.33 179.45L132.4 179.45"/>
<path d="M400.03 309.13L444.17 309.13"/>
<path d="M369.68 309.13L400.03 309.13"/>
<path d="M331.05 309.13L369.68 309.13"/>
<path d="M300.7 309.13L331.05 309.13"/>
<path d="M132.4 165.66L110.33 165.66"/>
<path d="M110.33 162.9L114.37 162.9"/>
<path d="M124.13 162.9L114.37 162.9"/>
<path d="M142.81 143.6L135.61 145.24M135.61 145.24L129.56 149.47M129.56 149.47L125.54 155.66M125.54 155.66L124.13 162.9"/>
<path d="M143.44 143.59L142.81 143.6"/>
<path d="M143.44 143.59L143.44 133.83"/>
<path d="M143.44 133.83L143.44 129.79"/>
<path d="M452.45 308.29L452.45 226.36"/>
<path d="M452.45 308.29L463.11 304.54M463.11 304.54L472.35 298.05M472.35 298.05L479.5 289.29M479.5 289.29L484.01 278.94M484.01 278.94L485.56 267.74"/>
<path d="M485.56 117.38L485.56 267.74"/>
<path d="M484.06 93.94L479.88 84.05M479.88 84.05L473.3 75.56M473.3 75.56L464.75 69.06M464.75 69.06L454.82 64.97M454.82 64.97L444.17 63.58"/>
<path d="M262.08 63.58L444.17 63.58"/>
<path d="M262.08 63.58L251.43 64.97M251.43 64.97L241.5 69.06M241.5 69.06L232.95 75.56M232.95 75.56L226.36 84.05M226.36 84.05L222.19 93.94"/>
<path d="M435.89 85.65L270.35 85.65"/>
<path d="M182.07 93.92L455.21 93.92"/>
<path d="M489.69 93.92L455.21 93.92"/>
<path d="M143.44 143.59L237.25 143.59"/>
<path d="M124.13 165.66L124.13 162.9"/>
<path d="M251.04 273.26L189.76 273.26"/>
<path d="M183.44 273.26L189.76 273.26"/>
<path d="M169.3 176.69L141.71 176.69"/>
<path d="M189.76 176.69L169.3 176.69"/>
<path d="M189.76 176.69L237.25 176.69"/>
<path d="M204.82 190.49L189.76 176.71"/>
<path d="M237.25 190.49L204.82 190.49"/>
<path d="M469 212.56L469 107.72"/>
<path d="M469 107.72L182.07 107.72"/>
<path d="M182.07 107.72L182.07 118.76"/>
<path d="M182.07 118.76L237.25 118.76"/>
<path d="M204.82 190.49L204.82 218.08"/>
<path d="M204.82 218.08L173.79 218.08"/>
<path d="M173.79 218.08L173.79 259.46"/>
<path d="M173.79 259.46L204.82 259.46"/>
<path d="M204.82 259.46L251.04 259.46"/>
<path d="M251.04 212.56L469 212.56"/>
<path d="M377.68 156L330.78 156"/>
<path d="M377.68 202.91L377.68 156"/>
<path d="M330.78 202.91L377.68 202.91"/>
<path d="M330.78 156L330.78 202.91"/>
<path d="M307.6 156L260.7 156"/>
<path d="M307.6 202.91L307.6 156"/>
<path d="M260.7 202.91L307.6 202.91"/>
<path d="M260.7 156L260.7 202.91"/>
<path d="M447.76 156L400.85 156"/>
<path d="M447.76 202.91L447.76 156"/>
<path d="M400.85 202.91L447.76 202.91"/>
<path d="M400.85 156L400.85 202.91"/>
<path d="M237.25 132.55L182.07 132.55"/>
<path d="M182.07 118.76L172.31 128.51"/>
<path d="M168.27 118.76L170.12 125.65M170.12 125.65L175.17 130.7M175.17 130.7L182.06 132.55"/>
<path d="M300.7 226.36L300.7 309.13"/>
<path d="M400.03 226.36L375.2 226.36"/>
<path d="M455.21 226.36L462.1 224.51M462.1 224.51L467.15 219.46M467.15 219.46L469 212.56"/>
<path d="M400.03 226.36L400.03 267.74"/>
<path d="M375.2 267.74L375.2 226.36"/>
<path d="M331.05 226.36L331.05 309.13"/>
<path d="M369.68 226.36L369.68 309.13"/>
<path d="M400.03 267.74L400.03 309.13"/>
<path d="M444.17 309.13L452.45 308.29"/>
<path d="M189.76 273.25L204.82 259.46"/>
<path d="M182.07 93.92L175.17 95.77M175.17 95.77L170.12 100.82M170.12 100.82L168.27 107.72"/>
<path d="M182.07 107.72L172.31 97.97"/>
<path d="M469 107.72L467.15 100.82M467.15 100.82L462.1 95.77M462.1 95.77L455.21 93.92"/>
<path d="M469 117.38L489.69 117.38"/>
<path d="M489.69 93.92L489.69 117.38"/>
<path d="M189.76 218.08L189.76 176.69"/>
<path d="M169.3 259.46L169.3 176.69"/>
<path d="M183.44 273.26L169.3 259.46"/>
<path d="M189.76 259.46L189.76 273.26"/>
<path d="M141.71 176.69L141.71 259.46"/>
<path d="M169.3 259.46L141.71 259.46"/>
<path d="M168.27 118.76L168.27 107.72"/>
<path d="M400.03 267.74L375.2 267.74"/>
</g>
</g>
</svg>
