<?xml version="1.0" standalone="no"?><svg xmlns="http://www.w3.org/2000/svg" width="600.000" height="450.000" viewBox="0.0 0.0 600.000 450.000" version="1.1">
<title>Acme Converter - Post-processed with EDS-Designer: 16.51 (info@symca.com)</title>
<desc>Acme Converter - Post-processed with EDS-Designer: 16.51 (info@symca.com)</desc>
<g id="EDS_STYLE_GROUP" fill="none" stroke="black" stroke-width="1.0">
<g id="0" display="visible">
<path d="M212.31 399.92L212.31 357.9M214.31 357.9L214.31 399.92M206.31 357.9L230.32 357.9M230.32 357.9L236.32 359.9M236.32 359.9L238.32 361.9M238.32 361.9L240.32 365.9M240.32 365.9L240.32 369.91M240.32 369.91L238.32 373.91M238.32 373.91L236.32 375.91M236.32 375.91L230.32 377.91M230.32 357.9L234.32 359.9M234.32 359.9L236.32 361.9M236.32 361.9L238.32 365.9M238.32 365.9L238.32 369.91M238.32 369.91L236.32 373.91M236.32 373.91L234.32 375.91M234.32 375.91L230.32 377.91M214.31 377.91L230.32 377.91M230.32 377.91L236.32 379.91M236.32 379.91L238.32 381.91M238.32 381.91L240.32 385.91M240.32 385.91L240.32 391.91M240.32 391.91L238.32 395.92M238.32 395.92L236.32 397.92M236.32 397.92L230.32 399.92M230.32 399.92L206.31 399.92M230.32 377.91L234.32 379.91M234.32 379.91L236.32 381.91M236.32 381.91L238.32 385.91M238.32 385.91L238.32 391.91M238.32 391.91L236.32 395.92M236.32 395.92L234.32 397.92M234.32 397.92L230.32 399.92M256.33 399.92L256.33 357.9M258.33 357.9L258.33 399.92M250.33 357.9L264.33 357.9M250.33 399.92L280.34 399.92M280.34 399.92L280.34 387.91M280.34 387.91L278.34 399.92M304.35 357.9L290.34 399.92M304.35 357.9L318.35 399.92M304.35 363.9L316.35 399.92M294.34 387.91L312.35 387.91M286.34 399.92L298.35 399.92M310.35 399.92L322.35 399.92M356.37 363.9L358.37 369.91M358.37 369.91L358.37 357.9M358.37 357.9L356.37 363.9M356.37 363.9L352.37 359.9M352.37 359.9L346.36 357.9M346.36 357.9L342.36 357.9M342.36 357.9L336.36 359.9M336.36 359.9L332.36 363.9M332.36 363.9L330.36 367.91M330.36 367.91L328.36 373.91M328.36 373.91L328.36 383.91M328.36 383.91L330.36 389.91M330.36 389.91L332.36 393.92M332.36 393.92L336.36 397.92M336.36 397.92L342.36 399.92M342.36 399.92L346.36 399.92M346.36 399.92L352.37 397.92M352.37 397.92L356.37 393.92M356.37 393.92L358.37 389.91M342.36 357.9L338.36 359.9M338.36 359.9L334.36 363.9M334.36 363.9L332.36 367.91M332.36 367.91L330.36 373.91M330.36 373.91L330.36 383.91M330.36 383.91L332.36 389.91M332.36 389.91L334.36 393.92M334.36 393.92L338.36 397.92M338.36 397.92L342.36 399.92M376.38 399.92L376.38 357.9M378.38 357.9L378.38 399.92M404.39 357.9L378.38 383.91M388.38 375.91L404.39 399.92M386.38 375.91L402.39 399.92M370.37 357.9L384.38 357.9M396.38 357.9L408.39 357.9M370.37 399.92L384.38 399.92M396.38 399.92L408.39 399.92"/>
<path d="M528.76 239.79L513.67 239.79"/>
<path d="M529.54 222.97L514.72 222.97"/>
<path d="M527.45 245.83L535.24 239.52M535.24 239.52L540.76 231.15M540.76 231.15L543.5 221.51M543.5 221.51L543.21 211.49M543.21 211.49L539.9 202.02M539.9 202.02L533.9 194M533.9 194L525.75 188.15"/>
<path d="M497.31 173.72L491.83 169.43M491.83 169.43L485.07 167.8"/>
<path d="M485.07 271.42L491.83 269.79M491.83 269.79L497.31 265.49"/>
<path d="M497.31 265.49L504.62 258.42M504.62 258.42L510.13 249.88M510.13 249.88L513.56 240.31M513.56 240.31L514.72 230.21"/>
<path d="M514.72 209.01L513.56 198.91M513.56 198.91L510.13 189.33M510.13 189.33L504.62 180.79M504.62 180.79L497.31 173.72"/>
<path d="M129.4 271.42L485.07 271.42"/>
<path d="M114.58 256.59L115.7 262.26M115.7 262.26L118.92 267.07M118.92 267.07L123.73 270.29M123.73 270.29L129.4 271.42"/>
<path d="M307.24 167.8L197.5 167.8"/>
<path d="M129.4 167.8L123.73 168.93M123.73 168.93L118.92 172.14M118.92 172.14L115.7 176.95M115.7 176.95L114.58 182.62"/>
<path d="M114.58 182.62L114.58 256.59"/>
<path d="M271.26 91.05L271.26 111.44"/>
<path d="M231.09 146.31L231.09 64.07"/>
<path d="M245.91 146.31L245.91 74.6"/>
<path d="M271.26 111.44L245.91 111.44"/>
<path d="M271.26 94.99L245.91 94.99"/>
<path d="M307.24 146.31L231.09 146.31"/>
<path d="M271.26 111.44L307.24 111.44"/>
<path d="M307.24 91.05L271.26 91.05"/>
<path d="M245.91 74.6L307.24 74.6"/>
<path d="M231.09 64.07L307.24 64.07"/>
<path d="M282.66 134.31L245.91 134.31"/>
<path d="M245.91 126.14L282.66 126.14"/>
<path d="M293.83 138.04L307.24 138.04"/>
<path d="M282.66 133.39L307.24 133.39"/>
<path d="M293.83 146.31L293.83 138.04"/>
<path d="M282.66 111.44L282.66 146.31"/>
<path d="M70.11 230.21L72.04 247.04M72.04 247.04L77.75 263M77.75 263L86.94 277.24M86.94 277.24L99.12 289.02"/>
<path d="M84.93 230.21L86.48 243.67M86.48 243.67L91.05 256.44M91.05 256.44L98.4 267.83M98.4 267.83L108.14 277.26"/>
<path d="M84.93 230.21L84.93 219.61"/>
<path d="M70.11 230.21L70.11 219.61"/>
<path d="M55.28 230.21L56.77 246.42M56.77 246.42L61.19 262.09M61.19 262.09L68.4 276.69M68.4 276.69L78.14 289.73M78.14 289.73L90.1 300.78"/>
<path d="M55.28 230.21L55.28 219.61"/>
<path d="M55.28 209.01L55.28 219.61"/>
<path d="M90.1 138.43L78.14 149.48M78.14 149.48L68.4 162.52M68.4 162.52L61.19 177.12M61.19 177.12L56.77 192.79M56.77 192.79L55.28 209.01"/>
<path d="M99.12 150.19L86.94 161.97M86.94 161.97L77.75 176.22M77.75 176.22L72.04 192.17M72.04 192.17L70.11 209.01"/>
<path d="M70.11 209.01L70.11 219.61"/>
<path d="M84.93 209.01L84.93 219.61"/>
<path d="M108.14 161.96L98.4 171.38M98.4 171.38L91.05 182.77M91.05 182.77L86.48 195.54M86.48 195.54L84.93 209.01"/>
<path d="M99.75 182.62L99.75 256.59"/>
<path d="M129.4 152.97L120.24 154.42M120.24 154.42L111.97 158.64M111.97 158.64L105.41 165.19M105.41 165.19L101.2 173.46M101.2 173.46L99.75 182.62"/>
<path d="M129.4 138.15L118.05 139.62M118.05 139.62L107.45 143.94M107.45 143.94L98.31 150.82"/>
<path d="M99.75 256.59L101.2 265.75M101.2 265.75L105.41 274.02M105.41 274.02L111.97 280.58M111.97 280.58L120.24 284.79M120.24 284.79L129.4 286.24"/>
<path d="M98.31 288.39L107.45 295.27M107.45 295.27L118.05 299.59M118.05 299.59L129.4 301.06"/>
<path d="M87.95 298.99L100.14 308.16M100.14 308.16L114.27 313.92M114.27 313.92L129.4 315.89"/>
<path d="M231.09 138.15L199.07 138.15"/>
<path d="M415.4 152.97L199.07 152.97"/>
<path d="M485.07 286.24L129.4 286.24"/>
<path d="M485.07 301.06L129.4 301.06"/>
<path d="M129.26 123.33L114.18 125.31M114.18 125.31L100.1 131.07M100.1 131.07L87.95 140.23"/>
<path d="M198.93 50.08L281.81 50.08"/>
<path d="M198.93 123.33L198.93 50.08"/>
<path d="M307.24 50.08L277.86 50.08"/>
<path d="M253.15 301.06L272.75 315.89"/>
<path d="M361.32 301.06L341.72 315.89"/>
<path d="M307.24 50.08L336.62 50.08"/>
<path d="M415.54 123.33L415.54 50.08"/>
<path d="M415.54 50.08L332.66 50.08"/>
<path d="M526.52 140.23L514.37 131.07M514.37 131.07L500.29 125.31M500.29 125.31L485.21 123.33"/>
<path d="M129.4 315.89L485.07 315.89"/>
<path d="M142.07 152.97L197.5 152.97"/>
<path d="M383.39 138.15L415.4 138.15"/>
<path d="M485.07 315.89L500.2 313.92M500.2 313.92L514.33 308.16M514.33 308.16L526.52 298.99"/>
<path d="M485.07 301.06L496.42 299.59M496.42 299.59L507.02 295.27M507.02 295.27L516.16 288.39"/>
<path d="M485.07 286.24L492.88 285.19M492.88 285.19L500.14 282.13M500.14 282.13L506.33 277.26"/>
<path d="M516.16 150.82L507.02 143.94M507.02 143.94L496.42 139.62M496.42 139.62L485.07 138.15"/>
<path d="M506.33 161.96L500.14 157.09M500.14 157.09L492.88 154.02M492.88 154.02L485.07 152.97"/>
<path d="M514.72 209.01L514.72 232.8"/>
<path d="M529.54 209.01L527.99 195.54M527.99 195.54L523.42 182.77M523.42 182.77L516.07 171.38M516.07 171.38L506.33 161.96"/>
<path d="M529.54 209.01L529.54 219.61"/>
<path d="M544.36 209.01L544.36 219.61"/>
<path d="M544.36 209.01L542.43 192.17M542.43 192.17L536.72 176.22M536.72 176.22L527.53 161.97M527.53 161.97L515.35 150.19"/>
<path d="M559.19 209.01L557.7 192.79M557.7 192.79L553.28 177.12M553.28 177.12L546.07 162.52M546.07 162.52L536.33 149.48M536.33 149.48L524.37 138.43"/>
<path d="M559.19 209.01L559.19 219.61"/>
<path d="M559.19 230.21L559.19 219.61"/>
<path d="M524.37 300.78L536.33 289.73M536.33 289.73L546.07 276.69M546.07 276.69L553.28 262.09M553.28 262.09L557.7 246.42M557.7 246.42L559.19 230.21"/>
<path d="M544.36 230.21L544.36 219.61"/>
<path d="M529.54 230.21L529.54 219.61"/>
<path d="M506.33 277.26L516.07 267.83M516.07 267.83L523.42 256.44M523.42 256.44L527.99 243.67M527.99 243.67L529.54 230.21"/>
<path d="M515.35 289.02L527.53 277.24M527.53 277.24L536.72 263M536.72 263L542.43 247.04M542.43 247.04L544.36 230.21"/>
<path d="M331.81 111.44L331.81 146.31"/>
<path d="M320.64 146.31L320.64 138.04"/>
<path d="M331.81 133.39L307.24 133.39"/>
<path d="M320.64 138.04L307.24 138.04"/>
<path d="M368.56 126.14L331.81 126.14"/>
<path d="M331.81 134.31L368.56 134.31"/>
<path d="M383.39 64.07L307.24 64.07"/>
<path d="M368.56 74.6L307.24 74.6"/>
<path d="M307.24 91.05L343.22 91.05"/>
<path d="M343.22 111.44L307.24 111.44"/>
<path d="M307.24 146.31L383.39 146.31"/>
<path d="M343.22 94.99L368.56 94.99"/>
<path d="M343.22 111.44L368.56 111.44"/>
<path d="M368.56 146.31L368.56 74.6"/>
<path d="M383.39 146.31L383.39 64.07"/>
<path d="M343.22 91.05L343.22 111.44"/>
<path d="M197.5 152.97L197.5 176.16"/>
<path d="M197.5 176.16L142.07 176.16"/>
<path d="M142.07 176.16L142.07 152.97"/>
<path d="M129.54 123.33L198.93 123.33"/>
<path d="M129.4 138.15L199.07 138.15"/>
<path d="M203.52 152.97L159.05 152.97"/>
<path d="M142.07 167.8L129.4 167.8"/>
<path d="M485.21 123.33L415.54 123.33"/>
<path d="M485.07 138.15L415.4 138.15"/>
<path d="M485.07 152.97L415.4 152.97"/>
<path d="M485.07 167.8L307.24 167.8"/>
<path d="M159.74 152.83L159.74 176.16"/>
<path d="M181.98 152.83L181.98 176.16"/>
<path d="M129.4 152.97L142.07 152.97"/>
<path d="M218.29 206.55L218.29 224.33"/>
<path d="M213.53 212.44L213.53 218.45"/>
<path d="M186.59 206.55L186.59 224.33"/>
<path d="M191.35 212.44L191.35 218.45"/>
<path d="M210.99 224.33L218.29 224.33"/>
<path d="M213.53 218.45L218.29 224.33"/>
<path d="M210.99 224.33L210.99 236.11"/>
<path d="M213.53 218.45L210.99 218.45"/>
<path d="M210.99 224.33L210.99 218.45"/>
<path d="M193.9 224.33L186.59 224.33"/>
<path d="M191.35 218.45L193.9 218.45"/>
<path d="M193.9 224.33L193.9 218.45"/>
<path d="M193.9 224.33L193.9 236.11"/>
<path d="M191.35 218.45L186.59 224.33"/>
<path d="M210.99 236.11L202.44 236.11"/>
<path d="M193.9 236.11L202.44 236.11"/>
<path d="M218.29 206.55L213.53 212.44"/>
<path d="M202.44 212.44L213.53 212.44"/>
<path d="M202.44 206.55L186.59 206.55"/>
<path d="M202.44 212.44L191.35 212.44"/>
<path d="M186.59 206.55L191.35 212.44"/>
<path d="M202.44 206.55L218.29 206.55"/>
<path d="M176.86 206.55L176.86 224.33"/>
<path d="M172.1 212.44L172.1 218.45"/>
<path d="M145.16 206.55L145.16 224.33"/>
<path d="M149.92 212.44L149.92 218.45"/>
<path d="M169.56 224.33L176.86 224.33"/>
<path d="M172.1 218.45L176.86 224.33"/>
<path d="M169.56 224.33L169.56 236.11"/>
<path d="M172.1 218.45L169.56 218.45"/>
<path d="M169.56 224.33L169.56 218.45"/>
<path d="M152.46 224.33L145.16 224.33"/>
<path d="M149.92 218.45L152.46 218.45"/>
<path d="M152.46 224.33L152.46 218.45"/>
<path d="M152.46 224.33L152.46 236.11"/>
<path d="M149.92 218.45L145.16 224.33"/>
<path d="M169.56 236.11L161.01 236.11"/>
<path d="M152.46 236.11L161.01 236.11"/>
<path d="M176.86 206.55L172.1 212.44"/>
<path d="M161.01 212.44L172.1 212.44"/>
<path d="M161.01 206.55L145.16 206.55"/>
<path d="M161.01 212.44L149.92 212.44"/>
<path d="M145.16 206.55L149.92 212.44"/>
<path d="M161.01 206.55L176.86 206.55"/>
<path d="M301.16 206.55L301.16 224.33"/>
<path d="M296.4 212.44L296.4 218.45"/>
<path d="M269.46 206.55L269.46 224.33"/>
<path d="M274.22 212.44L274.22 218.45"/>
<path d="M293.86 224.33L301.16 224.33"/>
<path d="M296.4 218.45L301.16 224.33"/>
<path d="M293.86 224.33L293.86 236.11"/>
<path d="M296.4 218.45L293.86 218.45"/>
<path d="M293.86 224.33L293.86 218.45"/>
<path d="M276.76 224.33L269.46 224.33"/>
<path d="M274.22 218.45L276.76 218.45"/>
<path d="M276.76 224.33L276.76 218.45"/>
<path d="M276.76 224.33L276.76 236.11"/>
<path d="M274.22 218.45L269.46 224.33"/>
<path d="M293.86 236.11L285.31 236.11"/>
<path d="M276.76 236.11L285.31 236.11"/>
<path d="M301.16 206.55L296.4 212.44"/>
<path d="M285.31 212.44L296.4 212.44"/>
<path d="M285.31 206.55L269.46 206.55"/>
<path d="M285.31 212.44L274.22 212.44"/>
<path d="M269.46 206.55L274.22 212.44"/>
<path d="M285.31 206.55L301.16 206.55"/>
<path d="M259.73 206.55L259.73 224.33"/>
<path d="M254.97 212.44L254.97 218.45"/>
<path d="M228.03 206.55L228.03 224.33"/>
<path d="M232.79 212.44L232.79 218.45"/>
<path d="M252.43 224.33L259.73 224.33"/>
<path d="M254.97 218.45L259.73 224.33"/>
<path d="M252.43 224.33L252.43 236.11"/>
<path d="M254.97 218.45L252.43 218.45"/>
<path d="M252.43 224.33L252.43 218.45"/>
<path d="M235.33 224.33L228.03 224.33"/>
<path d="M232.79 218.45L235.33 218.45"/>
<path d="M235.33 224.33L235.33 218.45"/>
<path d="M235.33 224.33L235.33 236.11"/>
<path d="M232.79 218.45L228.03 224.33"/>
<path d="M252.43 236.11L243.88 236.11"/>
<path d="M235.33 236.11L243.88 236.11"/>
<path d="M259.73 206.55L254.97 212.44"/>
<path d="M243.88 212.44L254.97 212.44"/>
<path d="M243.88 206.55L228.03 206.55"/>
<path d="M243.88 212.44L232.79 212.44"/>
<path d="M228.03 206.55L232.79 212.44"/>
<path d="M243.88 206.55L259.73 206.55"/>
<path d="M384.02 206.55L384.02 224.33"/>
<path d="M379.26 212.44L379.26 218.45"/>
<path d="M352.32 206.55L352.32 224.33"/>
<path d="M357.08 212.44L357.08 218.45"/>
<path d="M376.72 224.33L384.02 224.33"/>
<path d="M379.26 218.45L384.02 224.33"/>
<path d="M376.72 224.33L376.72 236.11"/>
<path d="M379.26 218.45L376.72 218.45"/>
<path d="M376.72 224.33L376.72 218.45"/>
<path d="M359.63 224.33L352.32 224.33"/>
<path d="M357.08 218.45L359.63 218.45"/>
<path d="M359.63 224.33L359.63 218.45"/>
<path d="M359.63 224.33L359.63 236.11"/>
<path d="M357.08 218.45L352.32 224.33"/>
<path d="M376.72 236.11L368.17 236.11"/>
<path d="M359.63 236.11L368.17 236.11"/>
<path d="M384.02 206.55L379.26 212.44"/>
<path d="M368.17 212.44L379.26 212.44"/>
<path d="M368.17 206.55L352.32 206.55"/>
<path d="M368.17 212.44L357.08 212.44"/>
<path d="M352.32 206.55L357.08 212.44"/>
<path d="M368.17 206.55L384.02 206.55"/>
<path d="M342.59 206.55L342.59 224.33"/>
<path d="M337.83 212.44L337.83 218.45"/>
<path d="M310.89 206.55L310.89 224.33"/>
<path d="M315.65 212.44L315.65 218.45"/>
<path d="M335.29 224.33L342.59 224.33"/>
<path d="M337.83 218.45L342.59 224.33"/>
<path d="M335.29 224.33L335.29 236.11"/>
<path d="M337.83 218.45L335.29 218.45"/>
<path d="M335.29 224.33L335.29 218.45"/>
<path d="M318.19 224.33L310.89 224.33"/>
<path d="M315.65 218.45L318.19 218.45"/>
<path d="M318.19 224.33L318.19 218.45"/>
<path d="M318.19 224.33L318.19 236.11"/>
<path d="M315.65 218.45L310.89 224.33"/>
<path d="M335.29 236.11L326.74 236.11"/>
<path d="M318.19 236.11L326.74 236.11"/>
<path d="M342.59 206.55L337.83 212.44"/>
<path d="M326.74 212.44L337.83 212.44"/>
<path d="M326.74 206.55L310.89 206.55"/>
<path d="M326.74 212.44L315.65 212.44"/>
<path d="M310.89 206.55L315.65 212.44"/>
<path d="M326.74 206.55L342.59 206.55"/>
<path d="M466.89 206.55L466.89 224.33"/>
<path d="M462.13 212.44L462.13 218.45"/>
<path d="M435.19 206.55L435.19 224.33"/>
<path d="M439.95 212.44L439.95 218.45"/>
<path d="M459.59 224.33L466.89 224.33"/>
<path d="M462.13 218.45L466.89 224.33"/>
<path d="M459.59 224.33L459.59 236.11"/>
<path d="M462.13 218.45L459.59 218.45"/>
<path d="M459.59 224.33L459.59 218.45"/>
<path d="M442.49 224.33L435.19 224.33"/>
<path d="M439.95 218.45L442.49 218.45"/>
<path d="M442.49 224.33L442.49 218.45"/>
<path d="M442.49 224.33L442.49 236.11"/>
<path d="M439.95 218.45L435.19 224.33"/>
<path d="M459.59 236.11L451.04 236.11"/>
<path d="M442.49 236.11L451.04 236.11"/>
<path d="M466.89 206.55L462.13 212.44"/>
<path d="M451.04 212.44L462.13 212.44"/>
<path d="M451.04 206.55L435.19 206.55"/>
<path d="M451.04 212.44L439.95 212.44"/>
<path d="M435.19 206.55L439.95 212.44"/>
<path d="M451.04 206.55L466.89 206.55"/>
<path d="M425.46 206.55L425.46 224.33"/>
<path d="M420.7 212.44L420.7 218.45"/>
<path d="M393.76 206.55L393.76 224.33"/>
<path d="M398.52 212.44L398.52 218.45"/>
<path d="M418.16 224.33L425.46 224.33"/>
<path d="M420.7 218.45L425.46 224.33"/>
<path d="M418.16 224.33L418.16 236.11"/>
<path d="M420.7 218.45L418.16 218.45"/>
<path d="M418.16 224.33L418.16 218.45"/>
<path d="M401.06 224.33L393.76 224.33"/>
<path d="M398.52 218.45L401.06 218.45"/>
<path d="M401.06 224.33L401.06 218.45"/>
<path d="M401.06 224.33L401.06 236.11"/>
<path d="M398.52 218.45L393.76 224.33"/>
<path d="M418.16 236.11L409.61 236.11"/>
<path d="M401.06 236.11L409.61 236.11"/>
<path d="M425.46 206.55L420.7 212.44"/>
<path d="M409.61 212.44L420.7 212.44"/>
<path d="M409.61 206.55L393.76 206.55"/>
<path d="M409.61 212.44L398.52 212.44"/>
<path d="M393.76 206.55L398.52 212.44"/>
<path d="M409.61 206.55L425.46 206.55"/>
<path d="M12.09 211.72L7.29 213.32M7.29 213.32L5.69 216.52M5.69 216.52L5.69 219.72M5.69 219.72L7.29 222.92M7.29 222.92L10.49 224.52M10.49 224.52L16.89 226.12M16.89 226.12L21.7 227.72M21.7 227.72L24.9 230.93M24.9 230.93L26.5 234.13M26.5 234.13L26.5 238.93M26.5 238.93L24.9 242.13M24.9 242.13L23.3 243.73M23.3 243.73L18.49 245.33M18.49 245.33L12.09 245.33M12.09 245.33L7.29 243.73M7.29 243.73L5.69 242.13M5.69 242.13L4.09 238.93M4.09 238.93L4.09 234.13M4.09 234.13L5.69 230.93M5.69 230.93L8.89 227.72M8.89 227.72L13.69 226.12M13.69 226.12L20.1 224.52M20.1 224.52L23.3 222.92M23.3 222.92L24.9 219.72M24.9 219.72L24.9 216.52M24.9 216.52L23.3 213.32M23.3 213.32L18.49 211.72M18.49 211.72L12.09 211.72"/>
<path d="M587.91 209.34L591.11 207.73M591.11 207.73L595.91 202.93M595.91 202.93L595.91 236.55"/>
</g>
</g>
</svg>
