<?xml version="1.0" standalone="no"?><svg xmlns="http://www.w3.org/2000/svg" width="600.000" height="450.000" viewBox="0.0 0.0 600.000 450.000" version="1.1">
<title>Acme Converter - Post-processed with EDS-Designer: 14.44 (info@symca.com)</title>
<desc>Acme Converter - Post-processed with EDS-Designer: 14.44 (info@symca.com)</desc>
<g id="EDS_STYLE_GROUP" fill="none" stroke="black" stroke-width="1.0">
<g id="0" display="visible">
<path d="M233.11 391.95L233.11 362.38M234.52 362.38L234.52 391.95M228.89 362.38L245.79 362.38M245.79 362.38L250.01 363.79M250.01 363.79L251.42 365.2M251.42 365.2L252.83 368.01M252.83 368.01L252.83 370.83M252.83 370.83L251.42 373.65M251.42 373.65L250.01 375.06M250.01 375.06L245.79 376.46M245.79 362.38L248.6 363.79M248.6 363.79L250.01 365.2M250.01 365.2L251.42 368.01M251.42 368.01L251.42 370.83M251.42 370.83L250.01 373.65M250.01 373.65L248.6 375.06M248.6 375.06L245.79 376.46M234.52 376.46L245.79 376.46M245.79 376.46L250.01 377.87M250.01 377.87L251.42 379.28M251.42 379.28L252.83 382.1M252.83 382.1L252.83 386.32M252.83 386.32L251.42 389.14M251.42 389.14L250.01 390.55M250.01 390.55L245.79 391.95M245.79 391.95L228.89 391.95M245.79 376.46L248.6 377.87M248.6 377.87L250.01 379.28M250.01 379.28L251.42 382.1M251.42 382.1L251.42 386.32M251.42 386.32L250.01 389.14M250.01 389.14L248.6 390.55M248.6 390.55L245.79 391.95M264.09 391.95L264.09 362.38M265.5 362.38L265.5 391.95M259.87 362.38L269.73 362.38M259.87 391.95L280.99 391.95M280.99 391.95L280.99 383.5M280.99 383.5L279.58 391.95M297.89 362.38L288.03 391.95M297.89 362.38L307.75 391.95M297.89 366.61L306.34 391.95M290.85 383.5L303.52 383.5M285.22 391.95L293.67 391.95M302.12 391.95L310.57 391.95M334.51 366.61L335.91 370.83M335.91 370.83L335.91 362.38M335.91 362.38L334.51 366.61M334.51 366.61L331.69 363.79M331.69 363.79L327.46 362.38M327.46 362.38L324.65 362.38M324.65 362.38L320.42 363.79M320.42 363.79L317.61 366.61M317.61 366.61L316.2 369.42M316.2 369.42L314.79 373.65M314.79 373.65L314.79 380.69M314.79 380.69L316.2 384.91M316.2 384.91L317.61 387.73M317.61 387.73L320.42 390.55M320.42 390.55L324.65 391.95M324.65 391.95L327.46 391.95M327.46 391.95L331.69 390.55M331.69 390.55L334.51 387.73M334.51 387.73L335.91 384.91M324.65 362.38L321.83 363.79M321.83 363.79L319.01 366.61M319.01 366.61L317.61 369.42M317.61 369.42L316.2 373.65M316.2 373.65L316.2 380.69M316.2 380.69L317.61 384.91M317.61 384.91L319.01 387.73M319.01 387.73L321.83 390.55M321.83 390.55L324.65 391.95M348.59 391.95L348.59 362.38M350 362.38L350 391.95M368.3 362.38L350 380.69M357.04 375.06L368.3 391.95M355.63 375.06L366.89 391.95M344.36 362.38L354.22 362.38M362.67 362.38L371.12 362.38M344.36 391.95L354.22 391.95M362.67 391.95L371.12 391.95"/>
<path d="M248.44 87.5L351.57 87.5"/>
<path d="M241.07 102.23L270.53 102.23"/>
<path d="M270.53 102.23L270.53 124.37"/>
<path d="M358.98 102.23L329.48 102.23"/>
<path d="M329.48 102.23L329.48 124.37"/>
<path d="M329.48 117L270.53 117"/>
<path d="M248.44 102.23L248.44 153.82"/>
<path d="M351.57 102.23L351.57 153.82"/>
<path d="M248.44 146.46L351.57 146.46"/>
<path d="M351.57 131.73L248.44 131.73"/>
<path d="M211.62 198.05L211.62 87.5"/>
<path d="M211.62 131.73L233.71 131.73"/>
<path d="M233.71 131.73L233.71 161.18"/>
<path d="M233.71 161.18L211.62 161.18"/>
<path d="M196.85 183.32L196.85 87.5"/>
<path d="M189.48 223.82L211.62 223.82"/>
<path d="M196.85 238.59L182.12 238.59"/>
<path d="M196.85 238.59L196.85 268"/>
<path d="M211.62 268L211.62 223.82"/>
<path d="M226.35 212.77L226.35 268"/>
<path d="M241.07 268L241.07 212.77"/>
<path d="M403.16 238.59L403.16 268"/>
<path d="M388.43 268L388.43 223.82"/>
<path d="M373.71 212.77L373.71 268"/>
<path d="M358.98 268L358.98 212.77"/>
<path d="M403.16 238.59L417.89 238.59"/>
<path d="M410.52 223.82L388.43 223.82"/>
<path d="M270.53 183.32L329.48 183.32"/>
<path d="M270.53 297.5L329.48 297.5"/>
<path d="M270.53 312.23L329.48 312.23"/>
<path d="M270.53 327L329.48 327"/>
<path d="M270.53 341.68L329.48 341.68"/>
<path d="M388.43 198.05L388.43 87.5"/>
<path d="M388.43 131.73L366.3 131.73"/>
<path d="M366.3 131.73L366.3 161.18"/>
<path d="M366.3 161.18L388.43 161.18"/>
<path d="M403.16 183.32L403.16 87.5"/>
<path d="M189.48 205.41L204.21 205.41"/>
<path d="M182.12 190.68L189.48 190.68"/>
<path d="M226.35 72.78L373.71 72.78"/>
<path d="M226.35 58.05L373.71 58.05"/>
<path d="M241.07 94.91L241.07 168.59"/>
<path d="M358.98 94.91L358.98 168.59"/>
<path d="M211.62 168.59L388.43 168.59"/>
<path d="M410.52 205.41L395.8 205.41"/>
<path d="M417.89 190.68L410.52 190.68"/>
<path d="M244.76 91.19L241.07 94.91"/>
<path d="M248.44 87.5L244.76 91.19"/>
<path d="M355.3 91.19L351.57 87.5"/>
<path d="M358.98 94.91L355.3 91.19"/>
<path d="M268.31 341.59L270.53 341.68"/>
<path d="M262.99 341.06L268.31 341.59"/>
<path d="M257.71 340.13L262.99 341.06"/>
<path d="M252.52 338.89L257.71 340.13"/>
<path d="M247.42 337.2L252.52 338.89"/>
<path d="M242.49 335.25L247.42 337.2"/>
<path d="M237.66 332.9L242.49 335.25"/>
<path d="M233.04 330.24L237.66 332.9"/>
<path d="M228.56 327.26L233.04 330.24"/>
<path d="M224.35 323.98L228.56 327.26"/>
<path d="M220.36 320.43L224.35 323.98"/>
<path d="M216.63 316.57L220.36 320.43"/>
<path d="M213.17 312.49L216.63 316.57"/>
<path d="M210.07 308.15L213.17 312.49"/>
<path d="M207.18 303.62L210.07 308.15"/>
<path d="M204.65 298.92L207.18 303.62"/>
<path d="M202.48 294.04L204.65 298.92"/>
<path d="M200.62 289.03L202.48 294.04"/>
<path d="M199.15 283.88L200.62 289.03"/>
<path d="M198 278.65L199.15 283.88"/>
<path d="M197.25 273.37L198 278.65"/>
<path d="M196.85 268L197.25 273.37"/>
<path d="M266.27 326.29L270.53 327"/>
<path d="M261.61 325.27L266.27 326.29"/>
<path d="M257.09 323.85L261.61 325.27"/>
<path d="M252.65 322.16L257.09 323.85"/>
<path d="M248.35 320.21L252.65 322.16"/>
<path d="M244.18 317.9L248.35 320.21"/>
<path d="M240.19 315.33L244.18 317.9"/>
<path d="M236.42 312.49L240.19 315.33"/>
<path d="M232.82 309.39L236.42 312.49"/>
<path d="M229.45 306.06L232.82 309.39"/>
<path d="M226.35 302.47L229.45 306.06"/>
<path d="M223.46 298.7L226.35 302.47"/>
<path d="M220.89 294.7L223.46 298.7"/>
<path d="M218.54 290.58L220.89 294.7"/>
<path d="M216.54 286.28L218.54 290.58"/>
<path d="M214.86 281.88L216.54 286.28"/>
<path d="M213.44 277.32L214.86 281.88"/>
<path d="M212.33 272.7L213.44 277.32"/>
<path d="M211.62 268L212.33 272.7"/>
<path d="M269.55 312.14L270.53 312.23"/>
<path d="M266.22 311.69L269.55 312.14"/>
<path d="M262.94 311.03L266.22 311.69"/>
<path d="M259.7 310.14L262.94 311.03"/>
<path d="M256.55 309.03L259.7 310.14"/>
<path d="M253.49 307.66L256.55 309.03"/>
<path d="M250.52 306.1L253.49 307.66"/>
<path d="M247.64 304.37L250.52 306.1"/>
<path d="M244.93 302.42L247.64 304.37"/>
<path d="M242.32 300.25L244.93 302.42"/>
<path d="M239.88 297.94L242.32 300.25"/>
<path d="M237.66 295.5L239.88 297.94"/>
<path d="M235.57 292.84L237.66 295.5"/>
<path d="M233.67 290.09L235.57 292.84"/>
<path d="M231.98 287.21L233.67 290.09"/>
<path d="M230.47 284.19L231.98 287.21"/>
<path d="M229.19 281.09L230.47 284.19"/>
<path d="M228.16 277.89L229.19 281.09"/>
<path d="M227.32 274.65L228.16 277.89"/>
<path d="M226.7 271.37L227.32 274.65"/>
<path d="M226.35 268L226.7 271.37"/>
<path d="M268.09 296.74L270.53 297.5"/>
<path d="M265.34 295.72L268.09 296.74"/>
<path d="M262.72 294.48L265.34 295.72"/>
<path d="M260.1 293.06L262.72 294.48"/>
<path d="M257.66 291.47L260.1 293.06"/>
<path d="M255.31 289.74L257.66 291.47"/>
<path d="M253.09 287.83L255.31 289.74"/>
<path d="M251.01 285.74L253.09 287.83"/>
<path d="M249.06 283.57L251.01 285.74"/>
<path d="M247.28 281.22L249.06 283.57"/>
<path d="M245.69 278.78L247.28 281.22"/>
<path d="M244.27 276.21L245.69 278.78"/>
<path d="M243.03 273.55L244.27 276.21"/>
<path d="M241.92 270.84L243.03 273.55"/>
<path d="M241.07 268L241.92 270.84"/>
<path d="M226.43 211.75L226.35 212.77"/>
<path d="M226.88 208.43L226.43 211.75"/>
<path d="M227.54 205.14L226.88 208.43"/>
<path d="M228.43 201.95L227.54 205.14"/>
<path d="M229.58 198.76L228.43 201.95"/>
<path d="M230.92 195.7L229.58 198.76"/>
<path d="M232.47 192.72L230.92 195.7"/>
<path d="M234.2 189.88L232.47 192.72"/>
<path d="M236.19 187.18L234.2 189.88"/>
<path d="M238.32 184.56L236.19 187.18"/>
<path d="M240.63 182.12L238.32 184.56"/>
<path d="M243.11 179.86L240.63 182.12"/>
<path d="M245.69 177.82L243.11 179.86"/>
<path d="M248.48 175.91L245.69 177.82"/>
<path d="M251.36 174.18L248.48 175.91"/>
<path d="M254.38 172.72L251.36 174.18"/>
<path d="M257.49 171.43L254.38 172.72"/>
<path d="M260.68 170.37L257.49 171.43"/>
<path d="M263.92 169.52L260.68 170.37"/>
<path d="M267.2 168.95L263.92 169.52"/>
<path d="M270.53 168.59L267.2 168.95"/>
<path d="M241.83 210.33L241.07 212.77"/>
<path d="M242.85 207.58L241.83 210.33"/>
<path d="M244.09 204.92L242.85 207.58"/>
<path d="M245.46 202.35L244.09 204.92"/>
<path d="M247.06 199.87L245.46 202.35"/>
<path d="M248.84 197.56L247.06 199.87"/>
<path d="M250.74 195.3L248.84 197.56"/>
<path d="M252.78 193.21L250.74 195.3"/>
<path d="M255 191.3L252.78 193.21"/>
<path d="M257.35 189.53L255 191.3"/>
<path d="M259.79 187.93L257.35 189.53"/>
<path d="M262.37 186.47L259.79 187.93"/>
<path d="M264.98 185.23L262.37 186.47"/>
<path d="M267.73 184.16L264.98 185.23"/>
<path d="M270.53 183.32L267.73 184.16"/>
<path d="M194.94 183.23L196.85 183.32"/>
<path d="M193.03 182.96L194.94 183.23"/>
<path d="M191.17 182.52L193.03 182.96"/>
<path d="M189.31 181.99L191.17 182.52"/>
<path d="M187.53 181.23L189.31 181.99"/>
<path d="M185.8 180.35L187.53 181.23"/>
<path d="M184.16 179.28L185.8 180.35"/>
<path d="M182.65 178.13L184.16 179.28"/>
<path d="M181.23 176.84L182.65 178.13"/>
<path d="M179.95 175.42L181.23 176.84"/>
<path d="M178.75 173.87L179.95 175.42"/>
<path d="M177.73 172.23L178.75 173.87"/>
<path d="M176.84 170.54L177.73 172.23"/>
<path d="M176.09 168.77L176.84 170.54"/>
<path d="M175.51 166.91L176.09 168.77"/>
<path d="M175.11 165.04L175.51 166.91"/>
<path d="M174.85 163.14L175.11 165.04"/>
<path d="M174.76 161.18L174.85 163.14"/>
<path d="M174.85 159.28L174.76 161.18"/>
<path d="M175.11 157.37L174.85 159.28"/>
<path d="M175.51 155.46L175.11 157.37"/>
<path d="M176.09 153.64L175.51 155.46"/>
<path d="M176.84 151.87L176.09 153.64"/>
<path d="M177.73 150.14L176.84 151.87"/>
<path d="M178.75 148.5L177.73 150.14"/>
<path d="M179.95 146.99L178.75 148.5"/>
<path d="M181.23 145.57L179.95 146.99"/>
<path d="M182.65 144.28L181.23 145.57"/>
<path d="M184.16 143.09L182.65 144.28"/>
<path d="M185.8 142.07L184.16 143.09"/>
<path d="M187.53 141.18L185.8 142.07"/>
<path d="M189.31 140.42L187.53 141.18"/>
<path d="M191.17 139.85L189.31 140.42"/>
<path d="M193.03 139.45L191.17 139.85"/>
<path d="M194.94 139.18L193.03 139.45"/>
<path d="M196.85 139.09L194.94 139.18"/>
<path d="M358.18 270.48L358.98 268"/>
<path d="M357.16 273.23L358.18 270.48"/>
<path d="M355.92 275.9L357.16 273.23"/>
<path d="M354.54 278.47L355.92 275.9"/>
<path d="M352.95 280.91L354.54 278.47"/>
<path d="M351.17 283.26L352.95 280.91"/>
<path d="M349.26 285.48L351.17 283.26"/>
<path d="M347.22 287.56L349.26 285.48"/>
<path d="M345.01 289.51L347.22 287.56"/>
<path d="M342.7 291.29L345.01 289.51"/>
<path d="M340.22 292.89L342.7 291.29"/>
<path d="M337.64 294.31L340.22 292.89"/>
<path d="M335.03 295.59L337.64 294.31"/>
<path d="M332.27 296.61L335.03 295.59"/>
<path d="M329.48 297.5L332.27 296.61"/>
<path d="M373.62 269.02L373.71 268"/>
<path d="M373.17 272.35L373.62 269.02"/>
<path d="M372.46 275.67L373.17 272.35"/>
<path d="M371.58 278.87L372.46 275.67"/>
<path d="M370.47 282.02L371.58 278.87"/>
<path d="M369.14 285.12L370.47 282.02"/>
<path d="M367.58 288.1L369.14 285.12"/>
<path d="M365.81 290.93L367.58 288.1"/>
<path d="M363.86 293.64L365.81 290.93"/>
<path d="M361.73 296.26L363.86 293.64"/>
<path d="M359.38 298.65L361.73 296.26"/>
<path d="M356.94 300.91L359.38 298.65"/>
<path d="M354.32 303L356.94 300.91"/>
<path d="M351.53 304.91L354.32 303"/>
<path d="M348.64 306.59L351.53 304.91"/>
<path d="M345.63 308.1L348.64 306.59"/>
<path d="M342.52 309.34L345.63 308.1"/>
<path d="M339.37 310.45L342.52 309.34"/>
<path d="M336.09 311.25L339.37 310.45"/>
<path d="M332.81 311.87L336.09 311.25"/>
<path d="M329.48 312.23L332.81 311.87"/>
<path d="M387.72 272.35L388.43 268"/>
<path d="M386.7 276.96L387.72 272.35"/>
<path d="M385.33 281.49L386.7 276.96"/>
<path d="M383.64 285.92L385.33 281.49"/>
<path d="M381.65 290.22L383.64 285.92"/>
<path d="M379.34 294.39L381.65 290.22"/>
<path d="M376.77 298.39L379.34 294.39"/>
<path d="M373.93 302.2L376.77 298.39"/>
<path d="M370.82 305.75L373.93 302.2"/>
<path d="M367.5 309.12L370.82 305.75"/>
<path d="M363.95 312.27L367.5 309.12"/>
<path d="M360.13 315.11L363.95 312.27"/>
<path d="M356.14 317.68L360.13 315.11"/>
<path d="M352.01 319.99L356.14 317.68"/>
<path d="M347.71 322.03L352.01 319.99"/>
<path d="M343.32 323.76L347.71 322.03"/>
<path d="M338.8 325.13L343.32 323.76"/>
<path d="M334.18 326.2L338.8 325.13"/>
<path d="M329.48 327L334.18 326.2"/>
<path d="M403.07 270.26L403.16 268"/>
<path d="M402.49 275.59L403.07 270.26"/>
<path d="M401.56 280.86L402.49 275.59"/>
<path d="M400.32 286.05L401.56 280.86"/>
<path d="M398.68 291.16L400.32 286.05"/>
<path d="M396.68 296.12L398.68 291.16"/>
<path d="M394.33 300.91L396.68 296.12"/>
<path d="M391.67 305.57L394.33 300.91"/>
<path d="M388.7 310.01L391.67 305.57"/>
<path d="M385.42 314.22L388.7 310.01"/>
<path d="M381.87 318.21L385.42 314.22"/>
<path d="M378.05 321.94L381.87 318.21"/>
<path d="M373.93 325.4L378.05 321.94"/>
<path d="M369.62 328.55L373.93 325.4"/>
<path d="M365.1 331.39L369.62 328.55"/>
<path d="M360.4 333.92L365.1 331.39"/>
<path d="M355.52 336.09L360.4 333.92"/>
<path d="M350.51 337.95L355.52 336.09"/>
<path d="M345.36 339.42L350.51 337.95"/>
<path d="M340.08 340.57L345.36 339.42"/>
<path d="M334.8 341.33L340.08 340.57"/>
<path d="M329.48 341.68L334.8 341.33"/>
<path d="M330.5 168.68L329.48 168.59"/>
<path d="M333.78 169.08L330.5 168.68"/>
<path d="M337.11 169.79L333.78 169.08"/>
<path d="M340.35 170.68L337.11 169.79"/>
<path d="M343.5 171.79L340.35 170.68"/>
<path d="M346.56 173.16L343.5 171.79"/>
<path d="M349.53 174.71L346.56 173.16"/>
<path d="M352.37 176.44L349.53 174.71"/>
<path d="M355.12 178.4L352.37 176.44"/>
<path d="M357.69 180.57L355.12 178.4"/>
<path d="M360.13 182.83L357.69 180.57"/>
<path d="M362.39 185.32L360.13 182.83"/>
<path d="M364.48 187.98L362.39 185.32"/>
<path d="M366.34 190.73L364.48 187.98"/>
<path d="M368.03 193.61L366.34 190.73"/>
<path d="M369.54 196.63L368.03 193.61"/>
<path d="M370.82 199.69L369.54 196.63"/>
<path d="M371.89 202.93L370.82 199.69"/>
<path d="M372.69 206.16L371.89 202.93"/>
<path d="M373.31 209.45L372.69 206.16"/>
<path d="M373.71 212.77L373.31 209.45"/>
<path d="M331.92 184.03L329.48 183.32"/>
<path d="M334.67 185.09L331.92 184.03"/>
<path d="M337.33 186.29L334.67 185.09"/>
<path d="M339.9 187.71L337.33 186.29"/>
<path d="M342.39 189.31L339.9 187.71"/>
<path d="M344.74 191.08L342.39 189.31"/>
<path d="M346.96 192.99L344.74 191.08"/>
<path d="M349 195.03L346.96 192.99"/>
<path d="M350.95 197.25L349 195.03"/>
<path d="M352.72 199.6L350.95 197.25"/>
<path d="M354.32 202.04L352.72 199.6"/>
<path d="M355.74 204.57L354.32 202.04"/>
<path d="M357.03 207.23L355.74 204.57"/>
<path d="M358.09 209.98L357.03 207.23"/>
<path d="M358.98 212.77L358.09 209.98"/>
<path d="M405.11 139.18L403.16 139.09"/>
<path d="M407.02 139.45L405.11 139.18"/>
<path d="M408.88 139.85L407.02 139.45"/>
<path d="M410.7 140.42L408.88 139.85"/>
<path d="M412.52 141.18L410.7 140.42"/>
<path d="M414.21 142.07L412.52 141.18"/>
<path d="M415.85 143.09L414.21 142.07"/>
<path d="M417.35 144.28L415.85 143.09"/>
<path d="M418.82 145.57L417.35 144.28"/>
<path d="M420.06 146.99L418.82 145.57"/>
<path d="M421.26 148.5L420.06 146.99"/>
<path d="M422.28 150.14L421.26 148.5"/>
<path d="M423.21 151.87L422.28 150.14"/>
<path d="M423.92 153.64L423.21 151.87"/>
<path d="M424.5 155.46L423.92 153.64"/>
<path d="M424.94 157.37L424.5 155.46"/>
<path d="M425.21 159.28L424.94 157.37"/>
<path d="M425.25 161.18L425.21 159.28"/>
<path d="M425.21 163.14L425.25 161.18"/>
<path d="M424.94 165.04L425.21 163.14"/>
<path d="M424.5 166.91L424.94 165.04"/>
<path d="M423.92 168.77L424.5 166.91"/>
<path d="M423.21 170.54L423.92 168.77"/>
<path d="M422.28 172.23L423.21 170.54"/>
<path d="M421.26 173.87L422.28 172.23"/>
<path d="M420.06 175.42L421.26 173.87"/>
<path d="M418.82 176.84L420.06 175.42"/>
<path d="M417.35 178.13L418.82 176.84"/>
<path d="M415.85 179.28L417.35 178.13"/>
<path d="M414.21 180.35L415.85 179.28"/>
<path d="M412.52 181.23L414.21 180.35"/>
<path d="M410.7 181.99L412.52 181.23"/>
<path d="M408.88 182.52L410.7 181.99"/>
<path d="M407.02 182.96L408.88 182.52"/>
<path d="M405.11 183.23L407.02 182.96"/>
<path d="M403.16 183.32L405.11 183.23"/>
<path d="M207.94 201.73L211.62 198.05"/>
<path d="M204.21 205.41L207.94 201.73"/>
<path d="M193.21 187L196.85 183.32"/>
<path d="M189.48 190.68L193.21 187"/>
<path d="M215.3 80.14L211.62 87.5"/>
<path d="M226.35 72.78L215.3 80.14"/>
<path d="M197.6 85.07L196.85 87.5"/>
<path d="M198.62 82.31L197.6 85.07"/>
<path d="M199.91 79.65L198.62 82.31"/>
<path d="M201.28 77.12L199.91 79.65"/>
<path d="M202.88 74.64L201.28 77.12"/>
<path d="M204.61 72.29L202.88 74.64"/>
<path d="M206.52 70.07L204.61 72.29"/>
<path d="M208.6 67.99L206.52 70.07"/>
<path d="M210.82 66.04L208.6 67.99"/>
<path d="M213.13 64.31L210.82 66.04"/>
<path d="M215.61 62.66L213.13 64.31"/>
<path d="M218.14 61.2L215.61 62.66"/>
<path d="M220.8 59.96L218.14 61.2"/>
<path d="M223.51 58.94L220.8 59.96"/>
<path d="M226.35 58.05L223.51 58.94"/>
<path d="M392.11 201.73L395.8 205.41"/>
<path d="M388.43 198.05L392.11 201.73"/>
<path d="M406.84 187L410.52 190.68"/>
<path d="M403.16 183.32L406.84 187"/>
<path d="M384.75 80.14L373.71 72.78"/>
<path d="M388.43 87.5L384.75 80.14"/>
<path d="M376.15 58.8L373.71 58.05"/>
<path d="M378.9 59.82L376.15 58.8"/>
<path d="M381.56 61.07L378.9 59.82"/>
<path d="M384.09 62.49L381.56 61.07"/>
<path d="M386.57 64.04L384.09 62.49"/>
<path d="M388.92 65.81L386.57 64.04"/>
<path d="M391.14 67.72L388.92 65.81"/>
<path d="M393.22 69.81L391.14 67.72"/>
<path d="M395.18 71.98L393.22 69.81"/>
<path d="M396.95 74.33L395.18 71.98"/>
<path d="M398.55 76.77L396.95 74.33"/>
<path d="M399.97 79.34L398.55 76.77"/>
<path d="M401.25 82L399.97 79.34"/>
<path d="M402.27 84.71L401.25 82"/>
<path d="M403.16 87.5L402.27 84.71"/>
<path d="M307.39 231.18L307.39 245.91"/>
<path d="M307.39 245.91L336.84 245.91"/>
<path d="M336.84 245.91L336.84 231.18"/>
<path d="M336.84 231.18L307.39 231.18"/>
<path d="M263.16 231.18L263.16 245.91"/>
<path d="M263.16 245.91L292.62 245.91"/>
<path d="M292.62 245.91L292.62 231.18"/>
<path d="M292.62 231.18L263.16 231.18"/>
<path d="M410.52 223.82L415.06 221.5M415.06 221.5L417.72 217.16M417.72 217.16L417.72 212.07M417.72 212.07L415.06 207.73M415.06 207.73L410.52 205.41"/>
<path d="M189.48 205.41L184.95 207.73M184.95 207.73L182.29 212.07M182.29 212.07L182.29 217.16M182.29 217.16L184.95 221.5M184.95 221.5L189.48 223.82"/>
<path d="M182.12 190.68L175.21 199.03M175.21 199.03L171.54 209.22M171.54 209.22L171.54 220.05M171.54 220.05L175.21 230.25M175.21 230.25L182.12 238.59"/>
<path d="M417.89 238.59L424.79 230.25M424.79 230.25L428.46 220.05M428.46 220.05L428.46 209.22M428.46 209.22L424.79 199.03M424.79 199.03L417.89 190.68"/>
<path d="M322.88 256.88L324.57 256.03M324.57 256.03L327.11 253.5M327.11 253.5L327.11 271.24"/>
<path d="M273.83 258.18L273.83 257.34M273.83 257.34L274.67 255.65M274.67 255.65L275.52 254.8M275.52 254.8L277.21 253.96M277.21 253.96L280.59 253.96M280.59 253.96L282.28 254.8M282.28 254.8L283.12 255.65M283.12 255.65L283.97 257.34M283.97 257.34L283.97 259.03M283.97 259.03L283.12 260.72M283.12 260.72L281.43 263.25M281.43 263.25L272.98 271.7M272.98 271.7L284.81 271.7"/>
</g>
</g>
</svg>
