<?xml version="1.0" standalone="no"?><svg xmlns="http://www.w3.org/2000/svg" width="600.000" height="450.000" viewBox="0.0 0.0 600.000 450.000" version="1.1">
<title>Acme Converter - Post-processed with EDS-Designer: 14.44 (info@symca.com)</title>
<desc>Acme Converter - Post-processed with EDS-Designer: 14.44 (info@symca.com)</desc>
<g id="EDS_STYLE_GROUP" fill="none" stroke="black" stroke-width="1.0">
<g id="0" display="visible">
<path d="M523.96 236.91L530.02 230.85M530.02 230.85L530.02 267.19M523.96 267.19L536.07 267.19"/>
<path d="M52.94 234.34L59 228.28M59 228.28L71.11 228.28M71.11 228.28L77.17 234.34M77.17 234.34L77.17 240.4M77.17 240.4L71.11 246.45M71.11 246.45L65.06 246.45M71.11 246.45L77.17 252.51M77.17 252.51L77.17 258.57M77.17 258.57L71.11 264.62M71.11 264.62L59 264.62M59 264.62L52.94 258.57"/>
<path d="M376.72 217.05L376.72 285.2"/>
<path d="M376.72 285.2L444.86 285.2"/>
<path d="M444.86 285.2L444.86 217.05"/>
<path d="M444.86 217.05L376.72 217.05"/>
<path d="M376.72 217.05L365.37 205.7"/>
<path d="M365.37 205.7L365.37 296.55"/>
<path d="M365.37 296.55L456.22 296.55"/>
<path d="M456.22 296.55L456.22 205.7"/>
<path d="M456.22 205.7L365.37 205.7"/>
<path d="M444.86 217.05L456.22 205.7"/>
<path d="M444.86 285.2L456.22 296.55"/>
<path d="M376.72 285.2L365.37 296.55"/>
<path d="M251.8 205.7L251.8 296.55"/>
<path d="M263.15 217.05L263.15 285.2"/>
<path d="M263.15 217.05L251.8 205.7"/>
<path d="M342.65 205.7L251.8 205.7"/>
<path d="M331.3 217.05L263.15 217.05"/>
<path d="M331.3 285.2L331.3 217.05"/>
<path d="M342.65 296.55L342.65 205.7"/>
<path d="M331.3 217.05L342.65 205.7"/>
<path d="M331.3 285.2L342.65 296.55"/>
<path d="M251.8 296.55L342.65 296.55"/>
<path d="M263.15 285.2L331.3 285.2"/>
<path d="M263.15 285.2L251.8 296.55"/>
<path d="M149.59 217.05L149.59 285.2"/>
<path d="M138.23 205.7L138.23 296.55"/>
<path d="M217.73 217.05L149.59 217.05"/>
<path d="M229.08 205.7L138.23 205.7"/>
<path d="M149.59 217.05L138.23 205.7"/>
<path d="M229.08 296.55L229.08 205.7"/>
<path d="M217.73 285.2L217.73 217.05"/>
<path d="M217.73 217.05L229.08 205.7"/>
<path d="M217.73 285.2L229.08 296.55"/>
<path d="M138.23 296.55L229.08 296.55"/>
<path d="M149.59 285.2L217.73 285.2"/>
<path d="M149.59 285.2L138.23 296.55"/>
<path d="M115.52 92.13L115.52 319.27"/>
<path d="M115.52 319.27L478.93 319.27"/>
<path d="M478.93 319.27L478.93 262.48"/>
<path d="M483.48 314.72L483.48 267.02"/>
<path d="M478.93 262.48L497.1 262.48"/>
<path d="M483.48 267.02L497.1 267.02"/>
<path d="M501.65 262.48L501.65 160.27"/>
<path d="M497.1 262.48L497.1 155.73"/>
<path d="M547.07 153.46L547.07 144.37"/>
<path d="M542.53 153.46L542.53 144.37"/>
<path d="M540.26 160.27L543.67 159.36M543.67 159.36L546.16 156.86M546.16 156.86L547.07 153.46"/>
<path d="M540.26 155.73L541.87 155.06M541.87 155.06L542.53 153.46"/>
<path d="M540.26 137.56L115.52 137.56"/>
<path d="M540.26 142.1L115.52 142.1"/>
<path d="M547.07 144.37L546.16 140.96M546.16 140.96L543.67 138.47M543.67 138.47L540.26 137.56"/>
<path d="M542.53 144.37L541.87 142.77M541.87 142.77L540.26 142.1"/>
<path d="M540.26 160.27L501.65 160.27"/>
<path d="M540.26 155.73L497.1 155.73"/>
<path d="M274.51 80.77L274.51 58.06"/>
<path d="M274.51 58.06L319.94 58.06"/>
<path d="M319.94 58.06L319.94 80.77"/>
<path d="M115.52 319.27L92.8 319.27"/>
<path d="M92.8 319.27L92.8 109.18"/>
<path d="M126.87 80.77L274.51 80.77"/>
<path d="M501.65 262.48L501.65 307.91"/>
<path d="M497.1 262.48L497.1 307.91"/>
<path d="M490.29 319.27L478.93 319.27"/>
<path d="M490.29 314.72L483.48 314.72"/>
<path d="M490.29 319.27L495.97 317.74M495.97 317.74L500.13 313.59M500.13 313.59L501.65 307.91"/>
<path d="M490.29 314.72L493.7 313.81M493.7 313.81L496.19 311.32M496.19 311.32L497.1 307.91"/>
<path d="M206.68 391.95L206.68 346.52M208.38 346.52L208.38 391.95M201.6 346.52L221.93 346.52M221.93 346.52L227.02 348.69M227.02 348.69L228.71 350.85M228.71 350.85L230.41 355.17M230.41 355.17L230.41 359.5M230.41 359.5L228.71 363.83M228.71 363.83L227.02 365.99M227.02 365.99L221.93 368.15M221.93 346.52L225.32 348.69M225.32 348.69L227.02 350.85M227.02 350.85L228.71 355.17M228.71 355.17L228.71 359.5M228.71 359.5L227.02 363.83M227.02 363.83L225.32 365.99M225.32 365.99L221.93 368.15M208.38 368.15L221.93 368.15M221.93 368.15L227.02 370.32M227.02 370.32L228.71 372.48M228.71 372.48L230.41 376.81M230.41 376.81L230.41 383.3M230.41 383.3L228.71 387.62M228.71 387.62L227.02 389.79M227.02 389.79L221.93 391.95M221.93 391.95L201.6 391.95M221.93 368.15L225.32 370.32M225.32 370.32L227.02 372.48M227.02 372.48L228.71 376.81M228.71 376.81L228.71 383.3M228.71 383.3L227.02 387.62M227.02 387.62L225.32 389.79M225.32 389.79L221.93 391.95M243.96 391.95L243.96 346.52M245.66 346.52L245.66 391.95M238.88 346.52L250.74 346.52M238.88 391.95L264.3 391.95M264.3 391.95L264.3 378.97M264.3 378.97L262.6 391.95M284.63 346.52L272.77 391.95M284.63 346.52L296.5 391.95M284.63 353.01L294.8 391.95M276.16 378.97L291.41 378.97M269.38 391.95L279.55 391.95M289.72 391.95L299.88 391.95M328.69 353.01L330.39 359.5M330.39 359.5L330.39 346.52M330.39 346.52L328.69 353.01M328.69 353.01L325.3 348.69M325.3 348.69L320.22 346.52M320.22 346.52L316.83 346.52M316.83 346.52L311.75 348.69M311.75 348.69L308.36 353.01M308.36 353.01L306.66 357.34M306.66 357.34L304.97 363.83M304.97 363.83L304.97 374.64M304.97 374.64L306.66 381.13M306.66 381.13L308.36 385.46M308.36 385.46L311.75 389.79M311.75 389.79L316.83 391.95M316.83 391.95L320.22 391.95M320.22 391.95L325.3 389.79M325.3 389.79L328.69 385.46M328.69 385.46L330.39 381.13M316.83 346.52L313.44 348.69M313.44 348.69L310.05 353.01M310.05 353.01L308.36 357.34M308.36 357.34L306.66 363.83M306.66 363.83L306.66 374.64M306.66 374.64L308.36 381.13M308.36 381.13L310.05 385.46M310.05 385.46L313.44 389.79M313.44 389.79L316.83 391.95M345.64 391.95L345.64 346.52M347.33 346.52L347.33 391.95M369.36 346.52L347.33 374.64M355.8 365.99L369.36 391.95M354.11 365.99L367.67 391.95M340.55 346.52L352.42 346.52M362.58 346.52L372.75 346.52M340.55 391.95L352.42 391.95M362.58 391.95L372.75 391.95"/>
<path d="M501.65 137.56L501.65 109.18"/>
<path d="M319.94 80.77L349.75 80.77"/>
<path d="M372.59 80.77L372.59 137.56"/>
<path d="M349.75 80.77L349.75 137.56"/>
<path d="M349.75 90.22L372.59 90.22"/>
<path d="M349.75 135.18L372.59 135.18"/>
<path d="M481.27 92.13L481.27 137.56"/>
<path d="M104.16 97.83L115.52 97.83"/>
<path d="M126.87 80.77L121.2 82.29M121.2 82.29L117.04 86.45M117.04 86.45L115.52 92.13"/>
<path d="M501.65 109.18L500.13 103.51M500.13 103.51L495.97 99.35M495.97 99.35L490.29 97.83"/>
<path d="M104.16 97.83L98.48 99.35M98.48 99.35L94.32 103.51M94.32 103.51L92.8 109.18"/>
<path d="M481.27 92.13L479.75 86.45M479.75 86.45L475.59 82.29M475.59 82.29L469.92 80.77"/>
<path d="M372.59 80.77L469.92 80.77"/>
<path d="M481.27 97.83L490.29 97.83"/>
</g>
</g>
</svg>
