<?xml version="1.0" standalone="no"?><svg xmlns="http://www.w3.org/2000/svg" width="600.000" height="450.000" viewBox="0.0 0.0 600.000 450.000" version="1.1">
<title>Acme Converter - Post-processed with EDS-Designer: 14.44 (info@symca.com)</title>
<desc>Acme Converter - Post-processed with EDS-Designer: 14.44 (info@symca.com)</desc>
<g id="EDS_STYLE_GROUP" fill="none" stroke="black" stroke-width="1.0">
<g id="0" display="visible">
<path d="M305.46 281.21L305.46 235.44"/>
<path d="M315.64 225.27L346.15 225.27"/>
<path d="M356.32 235.44L356.32 281.21"/>
<path d="M325.81 230.35L335.98 230.35"/>
<path d="M335.98 230.35L335.98 240.52"/>
<path d="M335.98 240.52L341.06 240.52"/>
<path d="M341.06 240.52L341.06 250.7"/>
<path d="M341.06 250.7L346.15 250.7"/>
<path d="M346.15 250.7L346.15 281.21"/>
<path d="M325.81 230.35L325.81 240.52"/>
<path d="M325.81 240.52L320.72 240.52"/>
<path d="M320.72 240.52L320.72 281.21"/>
<path d="M320.72 281.21L305.46 281.21"/>
<path d="M341.06 281.21L356.32 281.21"/>
<path d="M315.64 225.27L310.55 226.63M310.55 226.63L306.83 230.35M306.83 230.35L305.46 235.44"/>
<path d="M356.32 235.44L354.95 230.35M354.95 230.35L351.23 226.63M351.23 226.63L346.15 225.27"/>
<path d="M320.72 281.21L341.06 281.21"/>
<path d="M351.23 281.21L351.23 286.29"/>
<path d="M351.23 286.29L320.72 286.29"/>
<path d="M320.72 286.29L320.72 281.21"/>
<path d="M305.46 210.01L305.46 164.25"/>
<path d="M315.64 154.08L346.15 154.08"/>
<path d="M356.32 164.25L356.32 210.01"/>
<path d="M325.81 159.16L335.98 159.16"/>
<path d="M335.98 159.16L335.98 169.33"/>
<path d="M335.98 169.33L341.06 169.33"/>
<path d="M341.06 169.33L341.06 179.5"/>
<path d="M341.06 179.5L346.15 179.5"/>
<path d="M346.15 179.5L346.15 210.01"/>
<path d="M325.81 159.16L325.81 169.33"/>
<path d="M325.81 169.33L320.72 169.33"/>
<path d="M320.72 169.33L320.72 210.01"/>
<path d="M320.72 210.01L305.46 210.01"/>
<path d="M341.06 210.01L356.32 210.01"/>
<path d="M315.64 154.08L310.55 155.44M310.55 155.44L306.83 159.16M306.83 159.16L305.46 164.25"/>
<path d="M356.32 164.25L354.95 159.16M354.95 159.16L351.23 155.44M351.23 155.44L346.15 154.08"/>
<path d="M320.72 210.01L341.06 210.01"/>
<path d="M351.23 210.01L351.23 215.1"/>
<path d="M351.23 215.1L320.72 215.1"/>
<path d="M320.72 215.1L320.72 210.01"/>
<path d="M356.19 144.76L332.43 138.01M332.43 138.01L307.96 134.74M307.96 134.74L283.26 135M283.26 135L258.86 138.79M258.86 138.79L235.24 146.03"/>
<path d="M238.36 313.42L238.36 303.25"/>
<path d="M352.77 313.42L352.77 303.25"/>
<path d="M238.36 303.25L260.75 309.92M260.75 309.92L283.88 313.29M283.88 313.29L307.25 313.29M307.25 313.29L330.38 309.92M330.38 309.92L352.77 303.25"/>
<path d="M279.04 313.42L279.04 303.25"/>
<path d="M279.04 303.25L324.81 303.25"/>
<path d="M324.81 303.25L324.81 313.42"/>
<path d="M215.79 170.74L215.79 287.55"/>
<path d="M375.98 288.66L375.98 169.55"/>
<path d="M391.23 282.52L416.66 282.52"/>
<path d="M416.66 282.52L416.66 302.86"/>
<path d="M391.23 216.41L406.49 216.41"/>
<path d="M406.49 216.41L406.49 226.58"/>
<path d="M406.49 226.58L391.23 226.58"/>
<path d="M391.23 236.75L406.49 236.75"/>
<path d="M406.49 236.75L406.49 246.92"/>
<path d="M406.49 246.92L391.23 246.92"/>
<path d="M200.54 216.41L185.28 216.41"/>
<path d="M185.28 216.41L185.28 226.58"/>
<path d="M185.28 226.58L200.54 226.58"/>
<path d="M200.54 236.75L185.28 236.75"/>
<path d="M185.28 236.75L185.28 246.92"/>
<path d="M185.28 246.92L200.54 246.92"/>
<path d="M416.66 302.86L388.68 302.86"/>
<path d="M391.23 226.58L391.23 236.75"/>
<path d="M200.54 226.58L200.54 236.75"/>
<path d="M223.42 134.16L223.42 63.85"/>
<path d="M238.67 48.59L353.09 48.59"/>
<path d="M368.35 63.85L368.35 132.97"/>
<path d="M238.67 128.7L238.67 63.85"/>
<path d="M223.42 63.85L368.35 63.85"/>
<path d="M353.09 63.85L353.09 127.71"/>
<path d="M269.19 63.85L269.19 84.19"/>
<path d="M269.19 84.19L325.12 84.19"/>
<path d="M325.12 84.19L325.12 63.85"/>
<path d="M238.67 48.59L232.84 49.76M232.84 49.76L227.89 53.06M227.89 53.06L224.58 58.01M224.58 58.01L223.42 63.85"/>
<path d="M368.35 63.85L367.19 58.01M367.19 58.01L363.88 53.06M363.88 53.06L358.93 49.76M358.93 49.76L353.09 48.59"/>
<path d="M235.6 312.35L259.14 319.12M259.14 319.12L283.38 322.66M283.38 322.66L307.88 322.91M307.88 322.91L332.18 319.84M332.18 319.84L355.85 313.53"/>
<path d="M163.85 404.56L163.85 374.05M165.3 374.05L165.3 404.56M159.49 374.05L174.02 374.05M174.02 374.05L178.38 375.51M178.38 375.51L181.28 378.41M181.28 378.41L182.74 381.32M182.74 381.32L184.19 385.68M184.19 385.68L184.19 392.94M184.19 392.94L182.74 397.3M182.74 397.3L181.28 400.21M181.28 400.21L178.38 403.11M178.38 403.11L174.02 404.56M174.02 404.56L159.49 404.56M174.02 374.05L176.93 375.51M176.93 375.51L179.83 378.41M179.83 378.41L181.28 381.32M181.28 381.32L182.74 385.68M182.74 385.68L182.74 392.94M182.74 392.94L181.28 397.3M181.28 397.3L179.83 400.21M179.83 400.21L176.93 403.11M176.93 403.11L174.02 404.56M204.53 374.05L194.36 404.56M204.53 374.05L214.7 404.56M204.53 378.41L213.25 404.56M197.27 395.85L210.34 395.85M191.45 404.56L200.17 404.56M208.89 404.56L217.61 404.56M226.32 404.56L226.32 374.05M227.78 374.05L227.78 404.56M221.97 374.05L239.4 374.05M239.4 374.05L243.76 375.51M243.76 375.51L245.21 376.96M245.21 376.96L246.67 379.86M246.67 379.86L246.67 382.77M246.67 382.77L245.21 385.68M245.21 385.68L243.76 387.13M243.76 387.13L239.4 388.58M239.4 388.58L227.78 388.58M239.4 374.05L242.31 375.51M242.31 375.51L243.76 376.96M243.76 376.96L245.21 379.86M245.21 379.86L245.21 382.77M245.21 382.77L243.76 385.68M243.76 385.68L242.31 387.13M242.31 387.13L239.4 388.58M221.97 404.56L232.14 404.56M235.04 388.58L237.95 390.04M237.95 390.04L239.4 391.49M239.4 391.49L243.76 401.66M243.76 401.66L245.21 403.11M245.21 403.11L246.67 403.11M246.67 403.11L248.12 401.66M237.95 390.04L239.4 392.94M239.4 392.94L242.31 403.11M242.31 403.11L243.76 404.56M243.76 404.56L246.67 404.56M246.67 404.56L248.12 401.66M248.12 401.66L248.12 400.21M258.29 404.56L258.29 374.05M259.74 374.05L259.74 404.56M278.63 374.05L259.74 392.94M267.01 387.13L278.63 404.56M265.55 387.13L277.18 404.56M253.93 374.05L264.1 374.05M272.82 374.05L281.54 374.05M253.93 404.56L264.1 404.56M272.82 404.56L281.54 404.56M336.75 378.41L338.2 382.77M338.2 382.77L338.2 374.05M338.2 374.05L336.75 378.41M336.75 378.41L333.84 375.51M333.84 375.51L329.48 374.05M329.48 374.05L326.58 374.05M326.58 374.05L322.22 375.51M322.22 375.51L319.31 378.41M319.31 378.41L317.86 381.32M317.86 381.32L316.41 385.68M316.41 385.68L316.41 392.94M316.41 392.94L317.86 397.3M317.86 397.3L319.31 400.21M319.31 400.21L322.22 403.11M322.22 403.11L326.58 404.56M326.58 404.56L329.48 404.56M329.48 404.56L333.84 403.11M333.84 403.11L336.75 400.21M326.58 374.05L323.67 375.51M323.67 375.51L320.77 378.41M320.77 378.41L319.31 381.32M319.31 381.32L317.86 385.68M317.86 385.68L317.86 392.94M317.86 392.94L319.31 397.3M319.31 397.3L320.77 400.21M320.77 400.21L323.67 403.11M323.67 403.11L326.58 404.56M336.75 392.94L336.75 404.56M338.2 392.94L338.2 404.56M332.39 392.94L342.56 392.94M354.18 404.56L354.18 374.05M355.64 374.05L355.64 404.56M349.82 374.05L367.26 374.05M367.26 374.05L371.62 375.51M371.62 375.51L373.07 376.96M373.07 376.96L374.52 379.86M374.52 379.86L374.52 382.77M374.52 382.77L373.07 385.68M373.07 385.68L371.62 387.13M371.62 387.13L367.26 388.58M367.26 388.58L355.64 388.58M367.26 374.05L370.17 375.51M370.17 375.51L371.62 376.96M371.62 376.96L373.07 379.86M373.07 379.86L373.07 382.77M373.07 382.77L371.62 385.68M371.62 385.68L370.17 387.13M370.17 387.13L367.26 388.58M349.82 404.56L360 404.56M362.9 388.58L365.81 390.04M365.81 390.04L367.26 391.49M367.26 391.49L371.62 401.66M371.62 401.66L373.07 403.11M373.07 403.11L374.52 403.11M374.52 403.11L375.98 401.66M365.81 390.04L367.26 392.94M367.26 392.94L370.17 403.11M370.17 403.11L371.62 404.56M371.62 404.56L374.52 404.56M374.52 404.56L375.98 401.66M375.98 401.66L375.98 400.21M386.15 404.56L386.15 374.05M387.6 374.05L387.6 404.56M396.32 382.77L396.32 394.39M381.79 374.05L405.04 374.05M405.04 374.05L405.04 382.77M405.04 382.77L403.58 374.05M387.6 388.58L396.32 388.58M381.79 404.56L405.04 404.56M405.04 404.56L405.04 395.85M405.04 395.85L403.58 404.56M415.21 374.05L425.38 390.04M425.38 390.04L425.38 404.56M416.66 374.05L426.83 390.04M426.83 390.04L426.83 404.56M437 374.05L426.83 390.04M412.3 374.05L421.02 374.05M431.19 374.05L439.91 374.05M421.02 404.56L431.19 404.56"/>
<path d="M248.47 280.02L278.98 280.02"/>
<path d="M238.3 280.02L238.3 234.25"/>
<path d="M248.47 224.08L278.98 224.08"/>
<path d="M289.15 234.25L289.15 244.42"/>
<path d="M289.15 244.42L294.24 244.42"/>
<path d="M294.24 244.42L294.24 259.68"/>
<path d="M294.24 259.68L278.98 259.68"/>
<path d="M278.98 259.68L278.98 264.76"/>
<path d="M278.98 264.76L294.24 264.76"/>
<path d="M294.24 264.76L294.24 280.02"/>
<path d="M294.24 280.02L278.98 280.02"/>
<path d="M248.47 280.02L238.3 280.02"/>
<path d="M248.47 224.08L243.39 225.44M243.39 225.44L239.66 229.17M239.66 229.17L238.3 234.25"/>
<path d="M289.15 234.25L287.79 229.17M287.79 229.17L284.07 225.44M284.07 225.44L278.98 224.08"/>
<path d="M253.56 280.02L253.56 249.51"/>
<path d="M253.56 249.51L248.47 249.51"/>
<path d="M248.47 249.51L248.47 239.34"/>
<path d="M248.47 239.34L253.56 239.34"/>
<path d="M253.56 239.34L253.56 229.17"/>
<path d="M253.56 229.17L263.73 229.17"/>
<path d="M263.73 229.17L263.73 239.34"/>
<path d="M263.73 239.34L268.81 239.34"/>
<path d="M268.81 239.34L268.81 249.51"/>
<path d="M268.81 249.51L289.15 249.51"/>
<path d="M289.15 249.51L289.15 244.42"/>
<path d="M253.56 280.02L253.56 285.11"/>
<path d="M253.56 285.11L273.9 285.11"/>
<path d="M273.9 285.11L273.9 280.02"/>
<path d="M248.47 208.83L278.98 208.83"/>
<path d="M238.3 208.83L238.3 163.06"/>
<path d="M248.47 152.89L278.98 152.89"/>
<path d="M289.15 163.06L289.15 173.23"/>
<path d="M289.15 173.23L294.24 173.23"/>
<path d="M294.24 173.23L294.24 188.49"/>
<path d="M294.24 188.49L278.98 188.49"/>
<path d="M278.98 188.49L278.98 193.57"/>
<path d="M278.98 193.57L294.24 193.57"/>
<path d="M294.24 193.57L294.24 208.83"/>
<path d="M294.24 208.83L278.98 208.83"/>
<path d="M248.47 208.83L238.3 208.83"/>
<path d="M248.47 152.89L243.39 154.25M243.39 154.25L239.66 157.97M239.66 157.97L238.3 163.06"/>
<path d="M289.15 163.06L287.79 157.97M287.79 157.97L284.07 154.25M284.07 154.25L278.98 152.89"/>
<path d="M253.56 208.83L253.56 178.31"/>
<path d="M253.56 178.31L248.47 178.31"/>
<path d="M248.47 178.31L248.47 168.14"/>
<path d="M248.47 168.14L253.56 168.14"/>
<path d="M253.56 168.14L253.56 157.97"/>
<path d="M253.56 157.97L263.73 157.97"/>
<path d="M263.73 157.97L263.73 168.14"/>
<path d="M263.73 168.14L268.81 168.14"/>
<path d="M268.81 168.14L268.81 178.31"/>
<path d="M268.81 178.31L289.15 178.31"/>
<path d="M289.15 178.31L289.15 173.23"/>
<path d="M253.56 208.83L253.56 213.91"/>
<path d="M253.56 213.91L273.9 213.91"/>
<path d="M273.9 213.91L273.9 208.83"/>
<path d="M144.11 180.57L146.53 179.36M146.53 179.36L150.17 175.73M150.17 175.73L150.17 201.15"/>
<path d="M444.99 181.78L444.99 180.57M444.99 180.57L446.2 178.15M446.2 178.15L447.41 176.94M447.41 176.94L449.84 175.73M449.84 175.73L454.68 175.73M454.68 175.73L457.1 176.94M457.1 176.94L458.31 178.15M458.31 178.15L459.52 180.57M459.52 180.57L459.52 182.99M459.52 182.99L458.31 185.41M458.31 185.41L455.89 189.05M455.89 189.05L443.78 201.15M443.78 201.15L460.73 201.15"/>
<path d="M141.09 246.92L154.4 246.92M154.4 246.92L147.14 256.61M147.14 256.61L150.77 256.61M150.77 256.61L153.19 257.82M153.19 257.82L154.4 259.03M154.4 259.03L155.62 262.66M155.62 262.66L155.62 265.08M155.62 265.08L154.4 268.71M154.4 268.71L151.98 271.14M151.98 271.14L148.35 272.35M148.35 272.35L144.72 272.35M144.72 272.35L141.09 271.14M141.09 271.14L139.88 269.93M139.88 269.93L138.66 267.5"/>
<path d="M455.28 246.92L443.18 263.87M443.18 263.87L461.34 263.87M455.28 246.92L455.28 272.35"/>
<path d="M261.27 336.62L271.3 345M271.3 345L282.99 350.84M282.99 350.84L295.71 353.85M295.71 353.85L308.78 353.85M308.78 353.85L321.49 350.84M321.49 350.84L333.18 345M333.18 345L343.21 336.62"/>
<path d="M270.3 337.34L282.09 344.46M282.09 344.46L295.35 348.16M295.35 348.16L309.13 348.16M309.13 348.16L322.4 344.46M322.4 344.46L334.19 337.34"/>
<path d="M375.98 169.55L374.55 161.15M374.55 161.15L370.43 153.69M370.43 153.69L364.07 148.01M364.07 148.01L356.19 144.76"/>
<path d="M355.85 313.53L363.85 310.34M363.85 310.34L370.32 304.66M370.32 304.66L374.52 297.15M374.52 297.15L375.98 288.66"/>
<path d="M357.88 137.32L333.43 130.45M333.43 130.45L308.26 127.11M308.26 127.11L282.86 127.38M282.86 127.38L257.76 131.24M257.76 131.24L233.45 138.61"/>
<path d="M383.61 169.55L381.75 158.63M381.75 158.63L376.39 148.93M376.39 148.93L368.12 141.55M368.12 141.55L357.88 137.32"/>
<path d="M383.61 288.66L383.61 169.55"/>
<path d="M357.45 320.99L367.84 316.84M367.84 316.84L376.25 309.46M376.25 309.46L381.71 299.69M381.71 299.69L383.61 288.66"/>
<path d="M233.92 319.78L258.11 326.68M258.11 326.68L283.01 330.28M283.01 330.28L308.16 330.53M308.16 330.53L333.12 327.41M333.12 327.41L357.45 320.99"/>
<path d="M235.24 146.03L227.49 149.34M227.49 149.34L221.24 155.02M221.24 155.02L217.19 162.42M217.19 162.42L215.79 170.74"/>
<path d="M215.79 287.55L217.22 295.95M217.22 295.95L221.35 303.42M221.35 303.42L227.72 309.09M227.72 309.09L235.6 312.35"/>
<path d="M233.45 138.61L223.37 142.93M223.37 142.93L215.24 150.3M215.24 150.3L209.98 159.93M209.98 159.93L208.16 170.74"/>
<path d="M208.16 170.74L208.16 287.55"/>
<path d="M208.16 287.55L210.02 298.48M210.02 298.48L215.39 308.18M215.39 308.18L223.67 315.56M223.67 315.56L233.92 319.78"/>
<path d="M231.66 131.2L221.58 135.12M221.58 135.12L212.88 141.55M212.88 141.55L206.19 150.06M206.19 150.06L201.97 160.02M201.97 160.02L200.54 170.74"/>
<path d="M200.54 170.74L200.54 287.55"/>
<path d="M200.54 287.55L202.01 298.38M202.01 298.38L206.31 308.44M206.31 308.44L213.13 316.98M213.13 316.98L221.99 323.4M221.99 323.4L232.23 327.22"/>
<path d="M232.23 327.22L257.08 334.24M257.08 334.24L282.63 337.9M282.63 337.9L308.44 338.15M308.44 338.15L334.06 334.98M334.06 334.98L359.04 328.45"/>
<path d="M359.04 328.45L369.42 324.71M369.42 324.71L378.41 318.31M378.41 318.31L385.36 309.73M385.36 309.73L389.74 299.6M389.74 299.6L391.23 288.66"/>
<path d="M391.23 288.66L391.23 169.55"/>
<path d="M391.23 169.55L389.77 158.72M389.77 158.72L385.47 148.68M385.47 148.68L378.65 140.13M378.65 140.13L369.81 133.72M369.81 133.72L359.58 129.88"/>
<path d="M359.58 129.88L334.43 122.89M334.43 122.89L308.56 119.49M308.56 119.49L282.46 119.76M282.46 119.76L256.66 123.69M256.66 123.69L231.66 131.2"/>
<path d="M215.79 221.49L223.42 221.49"/>
<path d="M223.42 221.49L223.42 244.38"/>
<path d="M223.42 244.38L215.79 244.38"/>
<path d="M375.98 221.49L368.35 221.49"/>
<path d="M368.35 221.49L368.35 244.38"/>
<path d="M368.35 244.38L375.98 244.38"/>
</g>
</g>
</svg>
