<?xml version="1.0" standalone="no"?><svg xmlns="http://www.w3.org/2000/svg" width="600.000" height="450.000" viewBox="0.0 0.0 600.000 450.000" version="1.1">
<title>Acme Converter - Post-processed with EDS-Designer: 14.44 (info@symca.com)</title>
<desc>Acme Converter - Post-processed with EDS-Designer: 14.44 (info@symca.com)</desc>
<g id="EDS_STYLE_GROUP" fill="none" stroke="black" stroke-width="1.0">
<g id="0" display="visible">
<path d="M388.39 182.56L388.39 275.65"/>
<path d="M206.09 182.56L206.09 275.65"/>
<path d="M229.36 198.08L229.36 260.14"/>
<path d="M365.11 260.14L365.11 198.08"/>
<path d="M349.6 314.44L360.85 311.2M360.85 311.2L370.93 305.26M370.93 305.26L379.21 296.98M379.21 296.98L385.15 286.9M385.15 286.9L388.39 275.65"/>
<path d="M275.91 221.35L275.91 236.86"/>
<path d="M260.39 236.86L260.39 221.35"/>
<path d="M326.33 298.92L337.58 295.69M337.58 295.69L347.66 289.74M347.66 289.74L355.93 281.47M355.93 281.47L361.88 271.38M361.88 271.38L365.11 260.14"/>
<path d="M229.36 260.14L232.6 271.38M232.6 271.38L238.54 281.47M238.54 281.47L246.82 289.74M246.82 289.74L256.9 295.69M256.9 295.69L268.15 298.92"/>
<path d="M268.15 298.92L326.33 298.92"/>
<path d="M349.6 314.44L244.88 314.44"/>
<path d="M303.06 244.62L287.54 244.62"/>
<path d="M287.54 275.65L303.06 275.65"/>
<path d="M275.91 236.86L268.15 229.11"/>
<path d="M268.15 229.11L260.39 236.86"/>
<path d="M287.54 244.62L287.54 275.65"/>
<path d="M303.06 275.65L303.06 244.62"/>
<path d="M303.06 244.62L287.54 275.65"/>
<path d="M303.06 275.65L287.54 244.62"/>
<path d="M206.09 275.65L209.33 286.9M209.33 286.9L215.27 296.98M215.27 296.98L223.55 305.26M223.55 305.26L233.63 311.2M233.63 311.2L244.88 314.44"/>
<path d="M229.36 70.09L221.61 77.84"/>
<path d="M372.87 77.84L365.11 70.09"/>
<path d="M388.39 182.56L385.15 171.32M385.15 171.32L379.21 161.23M379.21 161.23L370.93 152.96M370.93 152.96L360.85 147.01M360.85 147.01L349.6 143.78"/>
<path d="M190.58 136.02L182.82 143.78"/>
<path d="M182.82 151.54L190.58 159.29"/>
<path d="M182.82 143.78L182.82 151.54"/>
<path d="M365.11 198.08L361.88 186.83M361.88 186.83L355.93 176.75M355.93 176.75L347.66 168.47M347.66 168.47L337.58 162.53M337.58 162.53L326.33 159.29"/>
<path d="M268.15 159.29L256.9 162.53M256.9 162.53L246.82 168.47M246.82 168.47L238.54 176.75M238.54 176.75L232.6 186.83M232.6 186.83L229.36 198.08"/>
<path d="M357.36 93.36L349.6 85.6"/>
<path d="M221.61 136.02L221.61 77.84"/>
<path d="M237.12 145.68L237.12 93.36"/>
<path d="M326.33 159.29L268.15 159.29"/>
<path d="M303.06 182.56L287.54 182.56"/>
<path d="M244.88 143.78L349.6 143.78"/>
<path d="M252.64 143.78L252.64 116.63"/>
<path d="M260.39 116.63L260.39 143.78"/>
<path d="M252.64 116.63L260.39 116.63"/>
<path d="M341.84 143.78L341.84 116.63"/>
<path d="M334.09 116.63L334.09 143.78"/>
<path d="M341.84 116.63L334.09 116.63"/>
<path d="M287.54 93.36L303.06 93.36"/>
<path d="M244.88 85.6L349.6 85.6"/>
<path d="M244.88 85.6L237.12 93.36"/>
<path d="M287.54 85.6L287.54 93.36"/>
<path d="M303.06 93.36L303.06 85.6"/>
<path d="M372.87 77.84L372.87 154.55"/>
<path d="M357.36 93.36L357.36 145.68"/>
<path d="M190.58 159.29L216.86 159.29"/>
<path d="M244.88 143.78L233.63 147.01M233.63 147.01L223.55 152.96M223.55 152.96L215.27 161.23M215.27 161.23L209.33 171.32M209.33 171.32L206.09 182.56"/>
<path d="M190.58 136.02L221.61 136.02"/>
<path d="M287.54 213.59L303.06 213.59"/>
<path d="M287.54 182.56L287.54 213.59"/>
<path d="M303.06 213.59L303.06 182.56"/>
<path d="M303.06 182.56L287.54 213.59"/>
<path d="M303.06 213.59L287.54 182.56"/>
<path d="M365.11 70.09L229.36 70.09"/>
<path d="M407.21 190.47L409.32 189.41M409.32 189.41L412.48 186.25M412.48 186.25L412.48 208.41"/>
<path d="M403.51 258.01L403.51 256.96M403.51 256.96L404.57 254.85M404.57 254.85L405.62 253.79M405.62 253.79L407.73 252.74M407.73 252.74L411.96 252.74M411.96 252.74L414.07 253.79M414.07 253.79L415.12 254.85M415.12 254.85L416.18 256.96M416.18 256.96L416.18 259.07M416.18 259.07L415.12 261.18M415.12 261.18L413.01 264.35M413.01 264.35L402.46 274.9M402.46 274.9L417.23 274.9"/>
<path d="M224.38 346.93L233.23 364.34M233.23 364.34L233.23 380.18M225.64 346.93L234.5 364.34M234.5 364.34L234.5 380.18M243.36 346.93L234.5 364.34M221.85 346.93L229.44 346.93M238.3 346.93L245.89 346.93M229.44 380.18L238.3 380.18M252.21 380.18L252.21 346.93M253.48 346.93L253.48 380.18M261.07 356.43L261.07 369.09M248.42 346.93L268.66 346.93M268.66 346.93L268.66 356.43M268.66 356.43L267.4 346.93M253.48 362.76L261.07 362.76M248.42 380.18L268.66 380.18M268.66 380.18L268.66 370.68M268.66 370.68L267.4 380.18M278.78 380.18L278.78 346.93M280.05 346.93L280.05 380.18M274.99 346.93L283.85 346.93M274.99 380.18L293.97 380.18M293.97 380.18L293.97 370.68M293.97 370.68L292.7 380.18M301.56 380.18L301.56 346.93M302.82 346.93L302.82 380.18M297.76 346.93L306.62 346.93M297.76 380.18L316.74 380.18M316.74 380.18L316.74 370.68M316.74 370.68L315.48 380.18M329.4 346.93L325.6 348.51M325.6 348.51L323.07 351.68M323.07 351.68L321.8 354.85M321.8 354.85L320.54 361.18M320.54 361.18L320.54 365.93M320.54 365.93L321.8 372.26M321.8 372.26L323.07 375.43M323.07 375.43L325.6 378.59M325.6 378.59L329.4 380.18M329.4 380.18L331.93 380.18M331.93 380.18L335.72 378.59M335.72 378.59L338.25 375.43M338.25 375.43L339.52 372.26M339.52 372.26L340.78 365.93M340.78 365.93L340.78 361.18M340.78 361.18L339.52 354.85M339.52 354.85L338.25 351.68M338.25 351.68L335.72 348.51M335.72 348.51L331.93 346.93M331.93 346.93L329.4 346.93M329.4 346.93L326.87 348.51M326.87 348.51L324.33 351.68M324.33 351.68L323.07 354.85M323.07 354.85L321.8 361.18M321.8 361.18L321.8 365.93M321.8 365.93L323.07 372.26M323.07 372.26L324.33 375.43M324.33 375.43L326.87 378.59M326.87 378.59L329.4 380.18M331.93 380.18L334.46 378.59M334.46 378.59L336.99 375.43M336.99 375.43L338.25 372.26M338.25 372.26L339.52 365.93M339.52 365.93L339.52 361.18M339.52 361.18L338.25 354.85M338.25 354.85L336.99 351.68M336.99 351.68L334.46 348.51M334.46 348.51L331.93 346.93M352.17 346.93L357.23 380.18M353.44 346.93L357.23 372.26M362.29 346.93L357.23 380.18M362.29 346.93L367.35 380.18M363.56 346.93L367.35 372.26M372.42 346.93L367.35 380.18M348.38 346.93L357.23 346.93M368.62 346.93L376.21 346.93"/>
</g>
</g>
</svg>
