<?xml version="1.0" standalone="no"?><svg xmlns="http://www.w3.org/2000/svg" width="600.000" height="450.000" viewBox="0.0 0.0 600.000 450.000" version="1.1">
<title>Acme Converter - Post-processed with EDS-Designer: 14.44 (info@symca.com)</title>
<desc>Acme Converter - Post-processed with EDS-Designer: 14.44 (info@symca.com)</desc>
<g id="EDS_STYLE_GROUP" fill="none" stroke="black" stroke-width="1.0">
<g id="0" display="visible">
<path d="M244.86 408.49L244.86 385.14M245.98 385.14L245.98 408.49M241.53 385.14L254.87 385.14M254.87 385.14L258.21 386.25M258.21 386.25L259.32 387.36M259.32 387.36L260.44 389.59M260.44 389.59L260.44 391.81M260.44 391.81L259.32 394.04M259.32 394.04L258.21 395.15M258.21 395.15L254.87 396.26M254.87 385.14L257.1 386.25M257.1 386.25L258.21 387.36M258.21 387.36L259.32 389.59M259.32 389.59L259.32 391.81M259.32 391.81L258.21 394.04M258.21 394.04L257.1 395.15M257.1 395.15L254.87 396.26M245.98 396.26L254.87 396.26M254.87 396.26L258.21 397.37M258.21 397.37L259.32 398.48M259.32 398.48L260.44 400.71M260.44 400.71L260.44 404.05M260.44 404.05L259.32 406.27M259.32 406.27L258.21 407.38M258.21 407.38L254.87 408.49M254.87 408.49L241.53 408.49M254.87 396.26L257.1 397.37M257.1 397.37L258.21 398.48M258.21 398.48L259.32 400.71M259.32 400.71L259.32 404.05M259.32 404.05L258.21 406.27M258.21 406.27L257.1 407.38M257.1 407.38L254.87 408.49M269.33 408.49L269.33 385.14M270.45 385.14L270.45 408.49M266 385.14L273.78 385.14M266 408.49L282.68 408.49M282.68 408.49L282.68 401.82M282.68 401.82L281.57 408.49M296.03 385.14L288.24 408.49M296.03 385.14L303.81 408.49M296.03 388.47L302.7 408.49M290.47 401.82L300.48 401.82M286.02 408.49L292.69 408.49M299.37 408.49L306.04 408.49M324.95 388.47L326.06 391.81M326.06 391.81L326.06 385.14M326.06 385.14L324.95 388.47M324.95 388.47L322.72 386.25M322.72 386.25L319.39 385.14M319.39 385.14L317.16 385.14M317.16 385.14L313.82 386.25M313.82 386.25L311.6 388.47M311.6 388.47L310.49 390.7M310.49 390.7L309.38 394.04M309.38 394.04L309.38 399.6M309.38 399.6L310.49 402.93M310.49 402.93L311.6 405.16M311.6 405.16L313.82 407.38M313.82 407.38L317.16 408.49M317.16 408.49L319.39 408.49M319.39 408.49L322.72 407.38M322.72 407.38L324.95 405.16M324.95 405.16L326.06 402.93M317.16 385.14L314.94 386.25M314.94 386.25L312.71 388.47M312.71 388.47L311.6 390.7M311.6 390.7L310.49 394.04M310.49 394.04L310.49 399.6M310.49 399.6L311.6 402.93M311.6 402.93L312.71 405.16M312.71 405.16L314.94 407.38M314.94 407.38L317.16 408.49M336.07 408.49L336.07 385.14M337.18 385.14L337.18 408.49M351.64 385.14L337.18 399.6M342.74 395.15L351.64 408.49M341.63 395.15L350.53 408.49M332.73 385.14L340.52 385.14M347.19 385.14L353.87 385.14M332.73 408.49L340.52 408.49M347.19 408.49L353.87 408.49"/>
<path d="M47.16 196.07L49.01 195.14M49.01 195.14L51.79 192.36M51.79 192.36L51.79 211.83"/>
<path d="M548.23 195.14L547.3 193.29M547.3 193.29L544.52 192.36M544.52 192.36L542.67 192.36M542.67 192.36L539.89 193.29M539.89 193.29L538.03 196.07M538.03 196.07L537.1 200.71M537.1 200.71L537.1 205.34M537.1 205.34L538.03 209.05M538.03 209.05L539.89 210.9M539.89 210.9L542.67 211.83M542.67 211.83L543.59 211.83M543.59 211.83L546.37 210.9M546.37 210.9L548.23 209.05M548.23 209.05L549.15 206.27M549.15 206.27L549.15 205.34M549.15 205.34L548.23 202.56M548.23 202.56L546.37 200.71M546.37 200.71L543.59 199.78M543.59 199.78L542.67 199.78M542.67 199.78L539.89 200.71M539.89 200.71L538.03 202.56M538.03 202.56L537.1 205.34"/>
<path d="M392.5 86.51L392.5 66.39"/>
<path d="M381.72 86.51L392.5 86.51"/>
<path d="M381.72 66.39L381.72 86.51"/>
<path d="M392.5 66.39L381.72 66.39"/>
<path d="M382.44 79.33L382.44 69.27"/>
<path d="M388.91 79.33L382.44 79.33"/>
<path d="M388.91 69.27L388.91 79.33"/>
<path d="M382.44 69.27L388.91 69.27"/>
<path d="M213.71 79.33L213.71 69.27"/>
<path d="M207.25 79.33L213.71 79.33"/>
<path d="M207.25 69.27L207.25 79.33"/>
<path d="M213.71 69.27L207.25 69.27"/>
<path d="M203.66 86.51L203.66 66.39"/>
<path d="M214.44 86.51L203.66 86.51"/>
<path d="M214.44 66.39L214.44 86.51"/>
<path d="M203.66 66.39L214.44 66.39"/>
<path d="M141.22 197.42L141.22 249.26"/>
<path d="M144.88 197.42L144.88 249.26"/>
<path d="M300.26 302.88L200.89 302.88"/>
<path d="M300.26 307.33L200.89 307.33"/>
<path d="M137.86 196.15L137.86 252.23"/>
<path d="M148.8 197.42L148.8 249.26"/>
<path d="M200.89 300.01L299.26 300.01"/>
<path d="M196.55 311.28L299.26 311.28"/>
<path d="M74.52 210.68L74.55 235.09"/>
<path d="M137.86 252.23L141.6 266.56M141.6 266.56L148.26 279.8M148.26 279.8L157.54 291.35M157.54 291.35L169.04 300.7M169.04 300.7L182.23 307.44M182.23 307.44L196.55 311.28"/>
<path d="M148.8 249.26L151.64 262.08M151.64 262.08L157.36 273.9M157.36 273.9L165.64 284.08M165.64 284.08L176.04 292.09M176.04 292.09L188.01 297.49M188.01 297.49L200.89 299.99"/>
<path d="M181.9 150.73L171.33 156.65M171.33 156.65L162.35 164.76M162.35 164.76L155.38 174.66M155.38 174.66L150.79 185.86M150.79 185.86L148.8 197.8"/>
<path d="M180.74 139.15L168.57 143.53M168.57 143.53L157.75 150.6M157.75 150.6L148.86 159.98M148.86 159.98L142.37 171.16M142.37 171.16L138.63 183.54M138.63 183.54L137.86 196.44"/>
<path d="M299.26 139.15L180.43 139.15"/>
<path d="M300.26 150.73L181.73 150.73"/>
<path d="M300.26 147.5L181.73 147.5"/>
<path d="M300.26 143.05L181.73 143.05"/>
<path d="M181.9 147.56L170.03 153.38M170.03 153.38L159.89 161.84M159.89 161.84L152.04 172.47M152.04 172.47L146.94 184.65M146.94 184.65L144.87 197.7"/>
<path d="M181.9 143.24L168.56 148.78M168.56 148.78L157.13 157.62M157.13 157.62L148.43 169.14M148.43 169.14L143.04 182.54M143.04 182.54L141.35 196.89"/>
<path d="M145 249.27L148.05 263.13M148.05 263.13L154.29 275.87M154.29 275.87L163.38 286.77M163.38 286.77L174.8 295.2M174.8 295.2L187.89 300.69M187.89 300.69L201.9 302.91"/>
<path d="M141.25 249.5L144.39 264.3M144.39 264.3L150.91 277.94M150.91 277.94L160.45 289.67M160.45 289.67L172.47 298.84M172.47 298.84L186.31 304.93M186.31 304.93L201.2 307.6"/>
<path d="M299.13 87.54L287.85 87.54"/>
<path d="M234.89 87.54L288.3 87.54"/>
<path d="M260.03 53.68L260.03 87.54"/>
<path d="M235.56 48.63L230.79 50.09M230.79 50.09L227.57 53.91M227.57 53.91L226.93 58.86"/>
<path d="M298.61 48.61L234.87 48.63"/>
<path d="M299.65 43.76L231.13 43.62"/>
<path d="M227.05 41.76L300.16 41.5"/>
<path d="M226.91 58.99L226.91 78.11"/>
<path d="M226.78 78.01L227.35 82.61M227.35 82.61L230.4 86.11M230.4 86.11L234.89 87.3"/>
<path d="M299.26 131.92L196.55 131.92"/>
<path d="M196.24 131.45L196.24 138.43"/>
<path d="M281.5 91.93L226.91 91.93"/>
<path d="M226.91 91.93L226.91 131.45"/>
<path d="M278.04 91.47L278.04 131.45"/>
<path d="M257.59 91.93L257.59 132.85"/>
<path d="M258.05 102.62L277.58 102.62"/>
<path d="M257.59 126.8L278.04 126.8"/>
<path d="M291.06 131.92L291.06 107.27"/>
<path d="M291.06 107.27L299.42 107.27"/>
<path d="M291.52 126.8L298.96 126.8"/>
<path d="M299.65 75.67L280.98 75.67"/>
<path d="M280.98 75.67L280.98 94.35"/>
<path d="M280.98 94.35L300.16 94.35"/>
<path d="M104.76 280.64L106.83 295.51M106.83 295.51L112.09 309.58M112.09 309.58L120.29 322.15M120.29 322.15L131.04 332.64M131.04 332.64L143.81 340.54M143.81 340.54L157.99 345.46M157.99 345.46L172.91 347.17"/>
<path d="M111.13 285.29L114.73 299.29M114.73 299.29L121.48 312.09M121.48 312.09L131 322.97M131 322.97L142.79 331.35M142.79 331.35L156.2 336.77M156.2 336.77L170.49 338.94"/>
<path d="M114.65 284.47L118.04 297.92M118.04 297.92L124.56 310.15M124.56 310.15L133.83 320.47M133.83 320.47L145.3 328.26M145.3 328.26L158.3 333.06M158.3 333.06L172.08 334.61"/>
<path d="M299.09 334.68L170.67 334.68"/>
<path d="M298.29 339.13L170.67 339.13"/>
<path d="M299.09 347.17L172.91 347.17"/>
<path d="M227.06 41.54L128.38 90.77"/>
<path d="M230.99 43.62L133.2 93.18"/>
<path d="M166.61 358.43L298.15 358.43"/>
<path d="M166.61 361.92L298.15 361.92"/>
<path d="M298.29 369.77L232.53 369.77"/>
<path d="M214.89 361.75L232.53 370.57"/>
<path d="M84.19 232.5L85.62 237.19M85.62 237.19L89 240.76M89 240.76L93.61 242.44"/>
<path d="M93.63 201.34L88.72 202.75M88.72 202.75L85.24 206.5M85.24 206.5L84.21 211.5"/>
<path d="M104.64 242.44L93.61 242.44"/>
<path d="M104.76 201.33L93.61 201.33"/>
<path d="M89 232.45L90.39 235.75M90.39 235.75L93.66 237.22"/>
<path d="M93.73 206.74L90.4 208.19M90.4 208.19L88.99 211.53"/>
<path d="M109.83 237.22L94.02 237.22"/>
<path d="M109.83 206.74L93.35 206.74"/>
<path d="M84.19 209.6L84.22 234.02"/>
<path d="M89 210.9L89.01 232.98"/>
<path d="M104.76 167.36L104.76 201.29"/>
<path d="M111 163.59L111 206.91"/>
<path d="M114.66 163.59L114.66 203.38"/>
<path d="M104.76 280.98L104.76 242.47"/>
<path d="M114.66 284.76L114.66 240.05"/>
<path d="M111 284.76L111 237.16"/>
<path d="M114.64 240.77L112.94 238.03M112.94 238.03L109.83 237.14"/>
<path d="M109.87 206.65L112.14 206.39M112.14 206.39L113.92 204.94M113.92 204.94L114.63 202.77"/>
<path d="M133.69 92.31L121.06 104.23M121.06 104.23L110.67 118.15M110.67 118.15L102.83 133.66M102.83 133.66L97.79 150.28M97.79 150.28L95.69 167.53M95.69 167.53L96.6 184.87"/>
<path d="M79.33 211.97L79.34 234.06"/>
<path d="M86.29 199.32L82.42 202.59M82.42 202.59L79.99 207.04M79.99 207.04L79.34 212.08"/>
<path d="M84.34 196.05L79.4 199.72M79.4 199.72L75.96 204.82M75.96 204.82L74.41 210.77"/>
<path d="M74.41 234.21L75.96 240.17M75.96 240.17L79.4 245.27M79.4 245.27L84.34 248.94"/>
<path d="M79.34 232.91L79.99 237.94M79.99 237.94L82.42 242.39M82.42 242.39L86.29 245.67"/>
<path d="M86.54 199.61L91.48 195.94M91.48 195.94L94.92 190.84M94.92 190.84L96.47 184.88"/>
<path d="M84.58 196.34L88.46 193.06M88.46 193.06L90.89 188.61M90.89 188.61L91.54 183.58"/>
<path d="M128.65 90.86L116.01 102.78M116.01 102.78L105.62 116.71M105.62 116.71L97.79 132.21M97.79 132.21L92.75 148.84M92.75 148.84L90.65 166.08M90.65 166.08L91.56 183.43"/>
<path d="M96.47 259.63L94.92 253.68M94.92 253.68L91.48 248.58M91.48 248.58L86.54 244.91"/>
<path d="M91.54 260.94L90.89 255.91M90.89 255.91L88.46 251.45M88.46 251.45L84.58 248.18"/>
<path d="M91.56 261.08L90.13 278.96M90.13 278.96L92.45 296.74M92.45 296.74L98.41 313.65M98.41 313.65L107.76 328.95M107.76 328.95L120.09 341.97M120.09 341.97L134.85 352.15M134.85 352.15L151.4 359.03M151.4 359.03L169.03 362.33"/>
<path d="M96.6 259.64L95.08 276.68M95.08 276.68L97.04 293.68M97.04 293.68L102.41 309.93M102.41 309.93L110.96 324.75M110.96 324.75L122.34 337.52M122.34 337.52L136.07 347.73M136.07 347.73L151.59 354.94M151.59 354.94L168.25 358.85"/>
<path d="M260.43 53.55L299.65 53.55"/>
<path d="M260.12 59.68L270.52 59.68"/>
<path d="M270.52 59.68L270.52 65.17"/>
<path d="M270.52 65.17L299.15 65.17"/>
<path d="M260.03 77.65L281.03 77.65"/>
<path d="M336.13 77.65L315.12 77.65"/>
<path d="M325.63 65.17L297.01 65.17"/>
<path d="M325.63 59.68L325.63 65.17"/>
<path d="M336.04 59.68L325.63 59.68"/>
<path d="M335.73 53.55L296.51 53.55"/>
<path d="M427.9 358.85L444.56 354.94M444.56 354.94L460.08 347.73M460.08 347.73L473.82 337.52M473.82 337.52L485.2 324.75M485.2 324.75L493.75 309.93M493.75 309.93L499.12 293.68M499.12 293.68L501.08 276.68M501.08 276.68L499.55 259.64"/>
<path d="M427.13 362.33L444.75 359.03M444.75 359.03L461.31 352.15M461.31 352.15L476.07 341.97M476.07 341.97L488.39 328.95M488.39 328.95L497.74 313.65M497.74 313.65L503.71 296.74M503.71 296.74L506.02 278.96M506.02 278.96L504.6 261.08"/>
<path d="M511.57 248.18L507.7 251.45M507.7 251.45L505.27 255.91M505.27 255.91L504.62 260.94"/>
<path d="M509.62 244.91L504.68 248.58M504.68 248.58L501.24 253.68M501.24 253.68L499.69 259.63"/>
<path d="M504.6 183.43L505.5 166.08M505.5 166.08L503.41 148.84M503.41 148.84L498.37 132.21M498.37 132.21L490.53 116.71M490.53 116.71L480.14 102.78M480.14 102.78L467.51 90.86"/>
<path d="M504.62 183.58L505.27 188.61M505.27 188.61L507.7 193.06M507.7 193.06L511.57 196.34"/>
<path d="M499.69 184.88L501.24 190.84M501.24 190.84L504.68 195.94M504.68 195.94L509.62 199.61"/>
<path d="M509.87 245.67L513.74 242.39M513.74 242.39L516.17 237.94M516.17 237.94L516.82 232.91"/>
<path d="M511.82 248.94L516.76 245.27M516.76 245.27L520.2 240.17M520.2 240.17L521.75 234.21"/>
<path d="M521.75 210.77L520.2 204.82M520.2 204.82L516.76 199.72M516.76 199.72L511.82 196.05"/>
<path d="M516.82 212.08L516.17 207.04M516.17 207.04L513.74 202.59M513.74 202.59L509.87 199.32"/>
<path d="M516.83 211.97L516.81 234.06"/>
<path d="M499.55 184.87L500.46 167.53M500.46 167.53L498.37 150.28M498.37 150.28L493.32 133.66M493.32 133.66L485.49 118.15M485.49 118.15L475.1 104.23M475.1 104.23L462.47 92.31"/>
<path d="M481.53 202.77L482.24 204.94M482.24 204.94L484.01 206.39M484.01 206.39L486.29 206.65"/>
<path d="M486.32 237.14L483.22 238.03M483.22 238.03L481.52 240.77"/>
<path d="M485.16 284.76L485.16 237.16"/>
<path d="M481.5 284.76L481.5 240.05"/>
<path d="M491.4 280.98L491.4 242.47"/>
<path d="M481.5 163.59L481.5 203.38"/>
<path d="M485.16 163.59L485.16 206.91"/>
<path d="M491.4 167.36L491.4 201.29"/>
<path d="M507.16 210.9L507.14 232.98"/>
<path d="M511.97 209.6L511.93 234.02"/>
<path d="M486.32 206.74L502.81 206.74"/>
<path d="M486.32 237.22L502.14 237.22"/>
<path d="M507.16 211.53L505.75 208.19M505.75 208.19L502.43 206.74"/>
<path d="M502.5 237.22L505.76 235.75M505.76 235.75L507.16 232.45"/>
<path d="M491.4 201.33L502.55 201.33"/>
<path d="M491.51 242.44L502.55 242.44"/>
<path d="M511.95 211.5L510.92 206.5M510.92 206.5L507.44 202.75M507.44 202.75L502.52 201.34"/>
<path d="M502.55 242.44L507.16 240.76M507.16 240.76L510.54 237.19M510.54 237.19L511.97 232.5"/>
<path d="M381.26 361.75L363.62 370.57"/>
<path d="M297.86 369.77L363.62 369.77"/>
<path d="M429.54 361.92L298.01 361.92"/>
<path d="M429.54 358.43L298.01 358.43"/>
<path d="M365.17 43.62L462.96 93.18"/>
<path d="M369.1 41.54L467.77 90.77"/>
<path d="M297.06 347.17L423.25 347.17"/>
<path d="M297.86 339.13L425.48 339.13"/>
<path d="M297.06 334.68L425.48 334.68"/>
<path d="M424.07 334.61L437.85 333.06M437.85 333.06L450.86 328.26M450.86 328.26L462.33 320.47M462.33 320.47L471.59 310.15M471.59 310.15L478.11 297.92M478.11 297.92L481.51 284.47"/>
<path d="M425.66 338.94L439.96 336.77M439.96 336.77L453.37 331.35M453.37 331.35L465.15 322.97M465.15 322.97L474.68 312.09M474.68 312.09L481.43 299.29M481.43 299.29L485.03 285.29"/>
<path d="M423.25 347.17L438.16 345.46M438.16 345.46L452.35 340.54M452.35 340.54L465.12 332.64M465.12 332.64L475.86 322.15M475.86 322.15L484.06 309.58M484.06 309.58L489.32 295.51M489.32 295.51L491.4 280.64"/>
<path d="M315.18 94.35L295.99 94.35"/>
<path d="M315.18 75.67L315.18 94.35"/>
<path d="M296.51 75.67L315.18 75.67"/>
<path d="M304.63 126.8L297.2 126.8"/>
<path d="M305.1 107.27L296.73 107.27"/>
<path d="M305.1 131.92L305.1 107.27"/>
<path d="M338.56 126.8L318.11 126.8"/>
<path d="M338.1 102.62L318.58 102.62"/>
<path d="M338.56 91.93L338.56 132.85"/>
<path d="M318.11 91.47L318.11 131.45"/>
<path d="M369.24 91.93L369.24 131.45"/>
<path d="M314.66 91.93L369.24 91.93"/>
<path d="M399.92 131.45L399.92 138.43"/>
<path d="M296.9 131.92L399.61 131.92"/>
<path d="M361.27 87.3L365.75 86.11M365.75 86.11L368.8 82.61M368.8 82.61L369.38 78.01"/>
<path d="M369.24 58.99L369.24 78.11"/>
<path d="M369.11 41.76L295.99 41.5"/>
<path d="M296.51 43.76L365.03 43.62"/>
<path d="M297.55 48.61L361.28 48.63"/>
<path d="M369.23 58.86L368.59 53.91M368.59 53.91L365.37 50.09M365.37 50.09L360.6 48.63"/>
<path d="M336.13 53.68L336.13 87.54"/>
<path d="M361.27 87.54L307.85 87.54"/>
<path d="M297.03 87.54L308.3 87.54"/>
<path d="M394.96 307.6L409.84 304.93M409.84 304.93L423.69 298.84M423.69 298.84L435.71 289.67M435.71 289.67L445.25 277.94M445.25 277.94L451.77 264.3M451.77 264.3L454.91 249.5"/>
<path d="M394.26 302.91L408.27 300.69M408.27 300.69L421.36 295.2M421.36 295.2L432.77 286.77M432.77 286.77L441.86 275.87M441.86 275.87L448.11 263.13M448.11 263.13L451.16 249.27"/>
<path d="M454.81 196.89L453.12 182.54M453.12 182.54L447.73 169.14M447.73 169.14L439.02 157.62M439.02 157.62L427.6 148.78M427.6 148.78L414.26 143.24"/>
<path d="M451.29 197.7L449.22 184.65M449.22 184.65L444.11 172.47M444.11 172.47L436.27 161.84M436.27 161.84L426.12 153.38M426.12 153.38L414.26 147.56"/>
<path d="M295.9 143.05L414.43 143.05"/>
<path d="M295.9 147.5L414.43 147.5"/>
<path d="M295.9 150.73L414.43 150.73"/>
<path d="M296.9 139.15L415.73 139.15"/>
<path d="M458.3 196.44L457.53 183.54M457.53 183.54L453.79 171.16M453.79 171.16L447.3 159.98M447.3 159.98L438.4 150.6M438.4 150.6L427.58 143.53M427.58 143.53L415.42 139.15"/>
<path d="M447.36 197.8L445.36 185.86M445.36 185.86L440.77 174.66M440.77 174.66L433.81 164.76M433.81 164.76L424.82 156.65M424.82 156.65L414.26 150.73"/>
<path d="M395.26 299.99L408.15 297.49M408.15 297.49L420.12 292.09M420.12 292.09L430.52 284.08M430.52 284.08L438.8 273.9M438.8 273.9L444.52 262.08M444.52 262.08L447.36 249.26"/>
<path d="M399.61 311.28L413.92 307.44M413.92 307.44L427.12 300.7M427.12 300.7L438.61 291.35M438.61 291.35L447.89 279.8M447.89 279.8L454.56 266.56M454.56 266.56L458.3 252.23"/>
<path d="M521.64 210.68L521.61 235.09"/>
<path d="M399.61 311.28L296.9 311.28"/>
<path d="M395.26 300.01L296.9 300.01"/>
<path d="M447.36 197.42L447.36 249.26"/>
<path d="M458.3 196.15L458.3 252.23"/>
<path d="M295.9 307.33L395.26 307.33"/>
<path d="M295.9 302.88L395.26 302.88"/>
<path d="M451.28 197.42L451.28 249.26"/>
<path d="M454.94 197.42L454.94 249.26"/>
<path d="M226.45 110.48L172.91 110.48"/>
<path d="M227.38 118.52L170.67 118.52"/>
<path d="M226.45 122.97L170.67 122.97"/>
<path d="M369.71 122.97L425.48 122.97"/>
<path d="M368.78 118.52L425.48 118.52"/>
<path d="M369.71 110.48L423.25 110.48"/>
<path d="M172.08 122.96L159.29 123.24M159.29 123.24L146.93 126.54M146.93 126.54L135.71 132.66M135.71 132.66L126.25 141.27M126.25 141.27L119.09 151.88M119.09 151.88L114.65 163.87"/>
<path d="M170.49 118.45L156.85 118.5M156.85 118.5L143.66 122M143.66 122L131.79 128.74M131.79 128.74L122.01 138.27M122.01 138.27L114.97 149.96M114.97 149.96L111.13 163.06"/>
<path d="M172.91 110.82L158.68 110.58M158.68 110.58L144.79 113.69M144.79 113.69L132.02 119.99M132.02 119.99L121.09 129.11M121.09 129.11L112.62 140.55M112.62 140.55L107.07 153.65M107.07 153.65L104.76 167.7"/>
<path d="M481.51 163.87L475.31 150.26M475.31 150.26L465.85 138.69M465.85 138.69L453.75 129.91M453.75 129.91L439.8 124.51M439.8 124.51L424.94 122.85"/>
<path d="M485.03 163.06L480.29 150.59M480.29 150.59L472.89 139.5M472.89 139.5L463.19 130.34M463.19 130.34L451.68 123.6M451.68 123.6L438.96 119.6M438.96 119.6L425.66 118.55"/>
<path d="M491.4 167.7L488.16 154.12M488.16 154.12L482.14 141.52M482.14 141.52L473.6 130.47M473.6 130.47L462.93 121.47M462.93 121.47L450.61 114.91M450.61 114.91L437.18 111.09M437.18 111.09L423.25 110.18"/>
<path d="M299.87 189.45L299.87 211.66"/>
<path d="M299.87 211.66L299.87 189.45"/>
<path d="M329.48 189.45L329.48 211.66"/>
<path d="M329.48 211.66L329.48 189.45"/>
<path d="M329.48 211.66L329.48 189.45"/>
<path d="M329.48 211.66L299.87 211.66"/>
<path d="M329.48 211.66L299.87 211.66"/>
<path d="M329.48 211.66L299.87 211.66"/>
<path d="M329.48 211.66L299.87 211.66"/>
<path d="M290.55 189.45L283.15 196.85"/>
<path d="M260.94 189.45L268.34 196.85"/>
<path d="M290.55 189.45L260.94 189.45"/>
<path d="M290.55 189.45L260.94 189.45"/>
<path d="M290.55 189.45L260.94 189.45"/>
<path d="M290.55 189.45L260.94 189.45"/>
<path d="M283.15 196.85L268.34 196.85"/>
<path d="M290.55 211.66L283.15 204.26"/>
<path d="M268.34 204.26L260.94 211.66"/>
<path d="M260.94 211.66L290.55 211.66"/>
<path d="M268.34 204.26L283.15 204.26"/>
<path d="M283.15 204.26L283.15 196.85"/>
<path d="M268.34 196.85L268.34 204.26"/>
<path d="M260.94 189.45L260.94 211.66"/>
<path d="M260.94 211.66L260.94 189.45"/>
<path d="M290.55 189.45L290.55 211.66"/>
<path d="M290.55 211.66L290.55 189.45"/>
<path d="M290.55 211.66L290.55 189.45"/>
<path d="M290.55 211.66L260.94 211.66"/>
<path d="M290.55 211.66L260.94 211.66"/>
<path d="M290.55 211.66L260.94 211.66"/>
<path d="M290.55 211.66L260.94 211.66"/>
<path d="M251.62 189.45L244.22 196.85"/>
<path d="M222.01 189.45L229.41 196.85"/>
<path d="M251.62 189.45L222.01 189.45"/>
<path d="M251.62 189.45L222.01 189.45"/>
<path d="M251.62 189.45L222.01 189.45"/>
<path d="M251.62 189.45L222.01 189.45"/>
<path d="M244.22 196.85L229.41 196.85"/>
<path d="M251.62 211.66L244.22 204.26"/>
<path d="M229.41 204.26L222.01 211.66"/>
<path d="M222.01 211.66L251.62 211.66"/>
<path d="M229.41 204.26L244.22 204.26"/>
<path d="M244.22 204.26L244.22 196.85"/>
<path d="M229.41 196.85L229.41 204.26"/>
<path d="M222.01 189.45L222.01 211.66"/>
<path d="M222.01 211.66L222.01 189.45"/>
<path d="M251.62 189.45L251.62 211.66"/>
<path d="M251.62 211.66L251.62 189.45"/>
<path d="M251.62 211.66L251.62 189.45"/>
<path d="M251.62 211.66L222.01 211.66"/>
<path d="M251.62 211.66L222.01 211.66"/>
<path d="M251.62 211.66L222.01 211.66"/>
<path d="M251.62 211.66L222.01 211.66"/>
<path d="M212.69 189.45L205.29 196.85"/>
<path d="M183.08 189.45L190.48 196.85"/>
<path d="M212.69 189.45L183.08 189.45"/>
<path d="M212.69 189.45L183.08 189.45"/>
<path d="M212.69 189.45L183.08 189.45"/>
<path d="M212.69 189.45L183.08 189.45"/>
<path d="M205.29 196.85L190.48 196.85"/>
<path d="M212.69 211.66L205.29 204.26"/>
<path d="M190.48 204.26L183.08 211.66"/>
<path d="M183.08 211.66L212.69 211.66"/>
<path d="M190.48 204.26L205.29 204.26"/>
<path d="M205.29 204.26L205.29 196.85"/>
<path d="M190.48 196.85L190.48 204.26"/>
<path d="M183.08 189.45L183.08 211.66"/>
<path d="M183.08 211.66L183.08 189.45"/>
<path d="M212.69 189.45L212.69 211.66"/>
<path d="M212.69 211.66L212.69 189.45"/>
<path d="M212.69 211.66L212.69 189.45"/>
<path d="M212.69 211.66L183.08 211.66"/>
<path d="M212.69 211.66L183.08 211.66"/>
<path d="M212.69 211.66L183.08 211.66"/>
<path d="M212.69 211.66L183.08 211.66"/>
<path d="M407.34 189.45L399.94 196.85"/>
<path d="M377.73 189.45L385.13 196.85"/>
<path d="M407.34 189.45L377.73 189.45"/>
<path d="M407.34 189.45L377.73 189.45"/>
<path d="M407.34 189.45L377.73 189.45"/>
<path d="M407.34 189.45L377.73 189.45"/>
<path d="M399.94 196.85L385.13 196.85"/>
<path d="M407.34 211.66L399.94 204.26"/>
<path d="M385.13 204.26L377.73 211.66"/>
<path d="M377.73 211.66L407.34 211.66"/>
<path d="M385.13 204.26L399.94 204.26"/>
<path d="M399.94 204.26L399.94 196.85"/>
<path d="M385.13 196.85L385.13 204.26"/>
<path d="M377.73 189.45L377.73 211.66"/>
<path d="M377.73 211.66L377.73 189.45"/>
<path d="M407.34 189.45L407.34 211.66"/>
<path d="M407.34 211.66L407.34 189.45"/>
<path d="M407.34 211.66L407.34 189.45"/>
<path d="M407.34 211.66L377.73 211.66"/>
<path d="M407.34 211.66L377.73 211.66"/>
<path d="M407.34 211.66L377.73 211.66"/>
<path d="M407.34 211.66L377.73 211.66"/>
<path d="M368.41 189.45L361.01 196.85"/>
<path d="M338.8 189.45L346.2 196.85"/>
<path d="M368.41 189.45L338.8 189.45"/>
<path d="M368.41 189.45L338.8 189.45"/>
<path d="M368.41 189.45L338.8 189.45"/>
<path d="M368.41 189.45L338.8 189.45"/>
<path d="M361.01 196.85L346.2 196.85"/>
<path d="M368.41 211.66L361.01 204.26"/>
<path d="M346.2 204.26L338.8 211.66"/>
<path d="M338.8 211.66L368.41 211.66"/>
<path d="M346.2 204.26L361.01 204.26"/>
<path d="M361.01 204.26L361.01 196.85"/>
<path d="M346.2 196.85L346.2 204.26"/>
<path d="M338.8 189.45L338.8 211.66"/>
<path d="M338.8 211.66L338.8 189.45"/>
<path d="M368.41 189.45L368.41 211.66"/>
<path d="M368.41 211.66L368.41 189.45"/>
<path d="M368.41 211.66L368.41 189.45"/>
<path d="M368.41 211.66L338.8 211.66"/>
<path d="M368.41 211.66L338.8 211.66"/>
<path d="M368.41 211.66L338.8 211.66"/>
<path d="M368.41 211.66L338.8 211.66"/>
<path d="M329.48 189.45L322.08 196.85"/>
<path d="M299.87 189.45L307.27 196.85"/>
<path d="M329.48 189.45L299.87 189.45"/>
<path d="M329.48 189.45L299.87 189.45"/>
<path d="M329.48 189.45L299.87 189.45"/>
<path d="M329.48 189.45L299.87 189.45"/>
<path d="M322.08 196.85L307.27 196.85"/>
<path d="M329.48 211.66L322.08 204.26"/>
<path d="M307.27 204.26L299.87 211.66"/>
<path d="M299.87 211.66L329.48 211.66"/>
<path d="M307.27 204.26L322.08 204.26"/>
<path d="M322.08 204.26L322.08 196.85"/>
<path d="M307.27 196.85L307.27 204.26"/>
<path d="M407.34 228.38L399.94 235.78"/>
<path d="M377.73 228.38L385.13 235.78"/>
<path d="M407.34 228.38L377.73 228.38"/>
<path d="M407.34 228.38L377.73 228.38"/>
<path d="M407.34 228.38L377.73 228.38"/>
<path d="M407.34 228.38L377.73 228.38"/>
<path d="M399.94 235.78L385.13 235.78"/>
<path d="M407.34 250.59L399.94 243.19"/>
<path d="M385.13 243.19L377.73 250.59"/>
<path d="M377.73 250.59L407.34 250.59"/>
<path d="M385.13 243.19L399.94 243.19"/>
<path d="M399.94 243.19L399.94 235.78"/>
<path d="M385.13 235.78L385.13 243.19"/>
<path d="M377.73 228.38L377.73 250.59"/>
<path d="M377.73 250.59L377.73 228.38"/>
<path d="M407.34 228.38L407.34 250.59"/>
<path d="M407.34 250.59L407.34 228.38"/>
<path d="M407.34 250.59L407.34 228.38"/>
<path d="M407.34 250.59L377.73 250.59"/>
<path d="M407.34 250.59L377.73 250.59"/>
<path d="M407.34 250.59L377.73 250.59"/>
<path d="M407.34 250.59L377.73 250.59"/>
<path d="M368.41 228.38L361.01 235.78"/>
<path d="M338.8 228.38L346.2 235.78"/>
<path d="M368.41 228.38L338.8 228.38"/>
<path d="M368.41 228.38L338.8 228.38"/>
<path d="M368.41 228.38L338.8 228.38"/>
<path d="M368.41 228.38L338.8 228.38"/>
<path d="M361.01 235.78L346.2 235.78"/>
<path d="M368.41 250.59L361.01 243.19"/>
<path d="M346.2 243.19L338.8 250.59"/>
<path d="M338.8 250.59L368.41 250.59"/>
<path d="M346.2 243.19L361.01 243.19"/>
<path d="M361.01 243.19L361.01 235.78"/>
<path d="M346.2 235.78L346.2 243.19"/>
<path d="M338.8 228.38L338.8 250.59"/>
<path d="M338.8 250.59L338.8 228.38"/>
<path d="M368.41 228.38L368.41 250.59"/>
<path d="M368.41 250.59L368.41 228.38"/>
<path d="M368.41 250.59L368.41 228.38"/>
<path d="M368.41 250.59L338.8 250.59"/>
<path d="M368.41 250.59L338.8 250.59"/>
<path d="M368.41 250.59L338.8 250.59"/>
<path d="M368.41 250.59L338.8 250.59"/>
<path d="M329.48 228.38L322.08 235.78"/>
<path d="M299.87 228.38L307.27 235.78"/>
<path d="M329.48 228.38L299.87 228.38"/>
<path d="M329.48 228.38L299.87 228.38"/>
<path d="M329.48 228.38L299.87 228.38"/>
<path d="M329.48 228.38L299.87 228.38"/>
<path d="M322.08 235.78L307.27 235.78"/>
<path d="M329.48 250.59L322.08 243.19"/>
<path d="M307.27 243.19L299.87 250.59"/>
<path d="M299.87 250.59L329.48 250.59"/>
<path d="M307.27 243.19L322.08 243.19"/>
<path d="M322.08 243.19L322.08 235.78"/>
<path d="M307.27 235.78L307.27 243.19"/>
<path d="M299.87 228.38L299.87 250.59"/>
<path d="M299.87 250.59L299.87 228.38"/>
<path d="M329.48 228.38L329.48 250.59"/>
<path d="M329.48 250.59L329.48 228.38"/>
<path d="M329.48 250.59L329.48 228.38"/>
<path d="M329.48 250.59L299.87 250.59"/>
<path d="M329.48 250.59L299.87 250.59"/>
<path d="M329.48 250.59L299.87 250.59"/>
<path d="M329.48 250.59L299.87 250.59"/>
<path d="M290.55 228.38L283.15 235.78"/>
<path d="M260.94 228.38L268.34 235.78"/>
<path d="M290.55 228.38L260.94 228.38"/>
<path d="M290.55 228.38L260.94 228.38"/>
<path d="M290.55 228.38L260.94 228.38"/>
<path d="M290.55 228.38L260.94 228.38"/>
<path d="M283.15 235.78L268.34 235.78"/>
<path d="M290.55 250.59L283.15 243.19"/>
<path d="M268.34 243.19L260.94 250.59"/>
<path d="M260.94 250.59L290.55 250.59"/>
<path d="M268.34 243.19L283.15 243.19"/>
<path d="M283.15 243.19L283.15 235.78"/>
<path d="M268.34 235.78L268.34 243.19"/>
<path d="M260.94 228.38L260.94 250.59"/>
<path d="M260.94 250.59L260.94 228.38"/>
<path d="M290.55 228.38L290.55 250.59"/>
<path d="M290.55 250.59L290.55 228.38"/>
<path d="M290.55 250.59L290.55 228.38"/>
<path d="M290.55 250.59L260.94 250.59"/>
<path d="M290.55 250.59L260.94 250.59"/>
<path d="M290.55 250.59L260.94 250.59"/>
<path d="M290.55 250.59L260.94 250.59"/>
<path d="M251.62 228.38L244.22 235.78"/>
<path d="M222.01 228.38L229.41 235.78"/>
<path d="M251.62 228.38L222.01 228.38"/>
<path d="M251.62 228.38L222.01 228.38"/>
<path d="M251.62 228.38L222.01 228.38"/>
<path d="M251.62 228.38L222.01 228.38"/>
<path d="M244.22 235.78L229.41 235.78"/>
<path d="M251.62 250.59L244.22 243.19"/>
<path d="M229.41 243.19L222.01 250.59"/>
<path d="M222.01 250.59L251.62 250.59"/>
<path d="M229.41 243.19L244.22 243.19"/>
<path d="M244.22 243.19L244.22 235.78"/>
<path d="M229.41 235.78L229.41 243.19"/>
<path d="M222.01 228.38L222.01 250.59"/>
<path d="M222.01 250.59L222.01 228.38"/>
<path d="M251.62 228.38L251.62 250.59"/>
<path d="M251.62 250.59L251.62 228.38"/>
<path d="M251.62 250.59L251.62 228.38"/>
<path d="M251.62 250.59L222.01 250.59"/>
<path d="M251.62 250.59L222.01 250.59"/>
<path d="M251.62 250.59L222.01 250.59"/>
<path d="M251.62 250.59L222.01 250.59"/>
<path d="M212.69 228.38L205.29 235.78"/>
<path d="M183.08 228.38L190.48 235.78"/>
<path d="M212.69 228.38L183.08 228.38"/>
<path d="M212.69 228.38L183.08 228.38"/>
<path d="M212.69 228.38L183.08 228.38"/>
<path d="M212.69 228.38L183.08 228.38"/>
<path d="M205.29 235.78L190.48 235.78"/>
<path d="M212.69 250.59L205.29 243.19"/>
<path d="M190.48 243.19L183.08 250.59"/>
<path d="M183.08 250.59L212.69 250.59"/>
<path d="M190.48 243.19L205.29 243.19"/>
<path d="M205.29 243.19L205.29 235.78"/>
<path d="M190.48 235.78L190.48 243.19"/>
<path d="M183.08 228.38L183.08 250.59"/>
<path d="M183.08 250.59L183.08 228.38"/>
<path d="M212.69 228.38L212.69 250.59"/>
<path d="M212.69 250.59L212.69 228.38"/>
<path d="M212.69 250.59L212.69 228.38"/>
<path d="M212.69 250.59L183.08 250.59"/>
<path d="M212.69 250.59L183.08 250.59"/>
<path d="M212.69 250.59L183.08 250.59"/>
<path d="M212.69 250.59L183.08 250.59"/>
<path d="M42.99 231.11L55.97 231.11M55.97 231.11L46.7 250.57"/>
<path d="M529.23 234.82L531.08 233.89M531.08 233.89L533.86 231.11M533.86 231.11L533.86 250.57M544.98 235.74L544.98 234.82M544.98 234.82L545.91 232.96M545.91 232.96L546.84 232.03M546.84 232.03L548.69 231.11M548.69 231.11L552.4 231.11M552.4 231.11L554.25 232.03M554.25 232.03L555.18 232.96M555.18 232.96L556.11 234.82M556.11 234.82L556.11 236.67M556.11 236.67L555.18 238.52M555.18 238.52L553.33 241.3M553.33 241.3L544.06 250.57M544.06 250.57L557.03 250.57"/>
</g>
</g>
</svg>
