<?xml version="1.0" standalone="no"?><svg xmlns="http://www.w3.org/2000/svg" width="600.000" height="450.000" viewBox="0.0 0.0 600.000 450.000" version="1.1">
<title>Acme Converter - Post-processed with EDS-Designer: 14.44 (info@symca.com)</title>
<desc>Acme Converter - Post-processed with EDS-Designer: 14.44 (info@symca.com)</desc>
<g id="EDS_STYLE_GROUP" fill="none" stroke="black" stroke-width="1.0">
<g id="0" display="visible">
<path d="M300.01 319.83L235.04 319.83M235.04 319.83L235.04 319.83M235.04 319.83L218.84 318.97M218.84 318.97L203.13 314.89M203.13 314.89L188.55 307.77M188.55 307.77L175.68 297.9M175.68 297.9L165.03 285.65M165.03 285.65L157.03 271.54M157.03 271.54L152.01 256.11M152.01 256.11L152.01 226.44"/>
<path d="M300.01 312.13L234.86 312.13M234.86 312.13L234.86 312.13M234.86 312.13L217.88 310.99M217.88 310.99L201.62 305.98M201.62 305.98L186.95 297.35M186.95 297.35L174.66 285.58M174.66 285.58L165.41 271.29M165.41 271.29L159.7 255.26M159.7 255.26L159.7 226.44"/>
<path d="M300.01 305.67L234.7 305.67M234.7 305.67L234.7 305.67M234.7 305.67L219.3 304.68M219.3 304.68L204.54 300.2M204.54 300.2L191.2 292.46M191.2 292.46L179.98 281.86M179.98 281.86L171.49 268.99M171.49 268.99L166.17 254.51M166.17 254.51L166.17 226.44"/>
<path d="M300.01 290.38L234.28 290.38M234.28 290.38L234.28 290.38M234.28 290.38L220.31 289.3M220.31 289.3L207.15 284.51M207.15 284.51L195.76 276.36M195.76 276.36L186.98 265.44M186.98 265.44L181.45 252.57M181.45 252.57L181.45 226.44"/>
<path d="M300.01 283.92L234.08 283.92M234.08 283.92L234.08 283.92M234.08 283.92L221.99 283.05M221.99 283.05L210.56 279M210.56 279L200.63 272.05M200.63 272.05L192.89 262.72M192.89 262.72L187.92 251.66M187.92 251.66L187.92 226.44"/>
<path d="M300.01 270.08L233.61 270.08M233.61 270.08L233.61 270.08M233.61 270.08L223.5 269.2M223.5 269.2L214.21 265.14M214.21 265.14L206.7 258.32M206.7 258.32L201.75 249.47M201.75 249.47L201.75 226.44"/>
<path d="M300.01 133.05L263.71 133.05"/>
<path d="M239.11 133.05L235.04 133.05M235.04 133.05L235.04 133.05M235.04 133.05L219.59 133.8M219.59 133.8L204.56 137.48M204.56 137.48L190.5 143.94M190.5 143.94L177.92 152.96"/>
<path d="M152.54 194.48L152.01 196.77M152.01 196.77L152.01 226.44"/>
<path d="M250.13 140.75L234.86 140.75M234.86 140.75L234.86 140.75M234.86 140.75L219.53 141.6M219.53 141.6L204.71 145.63M204.71 145.63L191.05 152.64M191.05 152.64L179.15 162.35"/>
<path d="M161.23 192.03L159.7 197.63M159.7 197.63L159.7 226.44"/>
<path d="M300.01 147.22L281.74 147.22"/>
<path d="M263.71 147.22L234.7 147.22M234.7 147.22L234.7 147.22M234.7 147.22L219.3 148.2M219.3 148.2L204.54 152.68M204.54 152.68L191.2 160.43M191.2 160.43L179.98 171.02M179.98 171.02L171.49 183.9M171.49 183.9L166.17 198.38M166.17 198.38L166.17 226.44"/>
<path d="M300.01 162.5L234.28 162.5M234.28 162.5L234.28 162.5M234.28 162.5L220.31 163.58M220.31 163.58L207.15 168.37M207.15 168.37L195.76 176.53M195.76 176.53L186.98 187.44M186.98 187.44L181.45 200.31M181.45 200.31L181.45 226.44"/>
<path d="M300.01 168.96L234.08 168.96M234.08 168.96L234.08 168.96M234.08 168.96L221.99 169.83M221.99 169.83L210.56 173.89M210.56 173.89L200.63 180.83M200.63 180.83L192.89 190.16M192.89 190.16L187.92 201.22M187.92 201.22L187.92 226.44"/>
<path d="M272.71 182.8L233.61 182.8M233.61 182.8L233.61 182.8M233.61 182.8L223.5 183.68M223.5 183.68L214.21 187.74M214.21 187.74L206.7 194.56M206.7 194.56L201.75 203.41M201.75 203.41L201.75 226.44"/>
<path d="M152.54 194.48L132.57 183.72M132.57 183.72L132.57 183.72M132.57 183.72L130.71 181.43M130.71 181.43L131.01 178.5M131.01 178.5L150.41 142.5M150.41 142.5L150.41 142.5M150.41 142.5L152.69 140.64M152.69 140.64L155.62 140.94M155.62 140.94L177.92 152.96"/>
<path d="M158.64 192.76L135.16 180.1M135.16 180.1L154.03 145.1M154.03 145.1L178.63 158.36"/>
<path d="M215.56 134.49L215.56 118.38"/>
<path d="M219.41 114.53L239.11 114.53"/>
<path d="M219.41 114.53L216.69 115.66M216.69 115.66L215.56 118.38"/>
<path d="M239.11 133.05L239.11 104M239.11 104L239.11 104M239.11 104L240.29 98.11M240.29 98.11L243.62 93.11M243.62 93.11L248.62 89.78M248.62 89.78L254.51 88.6M254.51 88.6L300.01 88.6"/>
<path d="M250.13 147.22L250.13 104M250.13 104L250.13 104M250.13 104L251.41 100.9M251.41 100.9L254.51 99.62M254.51 99.62L300.01 99.62"/>
<path d="M241.57 219.1L251.89 219.1M251.89 219.1L251.89 219.1M251.89 219.1L254.61 220.23M254.61 220.23L255.74 222.95M255.74 222.95L255.74 245.69M255.74 245.69L255.74 245.69M255.74 245.69L254.61 248.42M254.61 248.42L251.89 249.54M251.89 249.54L225.53 249.54M225.53 249.54L225.53 249.54M225.53 249.54L222.81 248.42M222.81 248.42L221.68 245.69M221.68 245.69L221.68 222.95M221.68 222.95L221.68 222.95M221.68 222.95L222.81 220.23M222.81 220.23L225.53 219.1M225.53 219.1L235.85 219.1"/>
<path d="M225.49 222.95L225.5 222.92M225.5 222.92L225.53 222.91M225.53 222.91L251.89 222.91M251.89 222.91L251.89 222.91M251.89 222.91L251.92 222.92M251.92 222.92L251.93 222.95M251.93 222.95L251.93 245.69M251.93 245.69L251.93 245.69M251.93 245.69L251.92 245.73M251.92 245.73L251.89 245.74M251.89 245.74L225.53 245.74M225.53 245.74L225.53 245.74M225.53 245.74L225.5 245.73M225.5 245.73L225.49 245.69M225.49 245.69L225.49 222.95"/>
<path d="M272.71 168.96L272.71 186.53"/>
<path d="M272.71 186.53L300.01 186.53"/>
<path d="M240.32 219.64L243.48 217.27M243.48 217.27L244.31 213.4M244.31 213.4L242.42 209.93M242.42 209.93L238.71 208.55M238.71 208.55L235 209.93M235 209.93L233.11 213.4M233.11 213.4L233.94 217.27M233.94 217.27L237.1 219.64"/>
<path d="M237.1 219.64L237.1 222.91"/>
<path d="M240.32 219.64L240.32 222.91"/>
<path d="M201.75 204.18L201.98 203.64M201.98 203.64L202.52 203.41M202.52 203.41L216.75 203.41M216.75 203.41L216.75 203.41M216.75 203.41L217.3 203.64M217.3 203.64L217.52 204.18M217.52 204.18L217.52 248.7M217.52 248.7L217.52 248.7M217.52 248.7L217.3 249.24M217.3 249.24L216.75 249.47M216.75 249.47L202.52 249.47M202.52 249.47L202.52 249.47M202.52 249.47L201.98 249.24M201.98 249.24L201.75 248.7M201.75 248.7L201.75 204.18"/>
<path d="M281.57 219.1L291.89 219.1M291.89 219.1L291.89 219.1M291.89 219.1L294.61 220.23M294.61 220.23L295.73 222.95M295.73 222.95L295.73 245.69M295.73 245.69L295.73 245.69M295.73 245.69L294.61 248.42M294.61 248.42L291.89 249.54M291.89 249.54L265.53 249.54M265.53 249.54L265.53 249.54M265.53 249.54L262.81 248.42M262.81 248.42L261.68 245.69M261.68 245.69L261.68 222.95M261.68 222.95L261.68 222.95M261.68 222.95L262.81 220.23M262.81 220.23L265.53 219.1M265.53 219.1L275.85 219.1"/>
<path d="M265.49 222.95L265.5 222.92M265.5 222.92L265.53 222.91M265.53 222.91L291.89 222.91M291.89 222.91L291.89 222.91M291.89 222.91L291.92 222.92M291.92 222.92L291.93 222.95M291.93 222.95L291.93 245.69M291.93 245.69L291.93 245.69M291.93 245.69L291.92 245.73M291.92 245.73L291.89 245.74M291.89 245.74L265.53 245.74M265.53 245.74L265.53 245.74M265.53 245.74L265.5 245.73M265.5 245.73L265.49 245.69M265.49 245.69L265.49 222.95"/>
<path d="M280.32 219.64L283.48 217.27M283.48 217.27L284.31 213.4M284.31 213.4L282.41 209.93M282.41 209.93L278.71 208.55M278.71 208.55L275 209.93M275 209.93L273.1 213.4M273.1 213.4L273.94 217.27M273.94 217.27L277.1 219.64"/>
<path d="M277.1 219.64L277.1 222.91"/>
<path d="M280.32 219.64L280.32 222.91"/>
<path d="M263.71 162.5L263.71 114.4"/>
<path d="M269.49 108.62L300.01 108.62"/>
<path d="M269.49 108.62L265.41 110.32M265.41 110.32L263.71 114.4"/>
<path d="M281.74 162.5L281.74 147.22"/>
<path d="M152.54 194.48L168.83 189.88"/>
<path d="M177.92 152.96L180.25 170.7"/>
<path d="M292.77 108.62L292.77 133.05"/>
<path d="M300.01 116.07L263.71 116.07"/>
<path d="M219.07 185.17L217.26 171.09"/>
<path d="M201.75 203.41L187.92 201.22"/>
<path d="M202.52 249.47L187.92 251.66"/>
<path d="M218.52 267.47L218.83 282.27"/>
<path d="M300.01 319.83L364.97 319.83M364.97 319.83L364.97 319.83M364.97 319.83L381.17 318.97M381.17 318.97L396.88 314.89M396.88 314.89L411.46 307.77M411.46 307.77L424.33 297.9M424.33 297.9L434.98 285.65M434.98 285.65L442.98 271.54M442.98 271.54L448.01 256.11M448.01 256.11L448.01 226.44"/>
<path d="M300.01 312.13L365.15 312.13M365.15 312.13L365.15 312.13M365.15 312.13L382.13 310.99M382.13 310.99L398.4 305.98M398.4 305.98L413.07 297.35M413.07 297.35L425.35 285.58M425.35 285.58L434.6 271.29M434.6 271.29L440.31 255.26M440.31 255.26L440.31 226.44"/>
<path d="M300.01 305.67L365.32 305.67M365.32 305.67L365.32 305.67M365.32 305.67L380.71 304.68M380.71 304.68L395.47 300.2M395.47 300.2L408.82 292.46M408.82 292.46L420.03 281.86M420.03 281.86L428.52 268.99M428.52 268.99L433.84 254.51M433.84 254.51L433.84 226.44"/>
<path d="M300.01 290.38L365.74 290.38M365.74 290.38L365.74 290.38M365.74 290.38L379.7 289.3M379.7 289.3L392.86 284.51M392.86 284.51L404.26 276.36M404.26 276.36L413.04 265.44M413.04 265.44L418.56 252.57M418.56 252.57L418.56 226.44"/>
<path d="M300.01 283.92L365.93 283.92M365.93 283.92L365.93 283.92M365.93 283.92L378.03 283.05M378.03 283.05L389.45 279M389.45 279L399.39 272.05M399.39 272.05L407.12 262.72M407.12 262.72L412.1 251.66M412.1 251.66L412.1 226.44"/>
<path d="M300.01 270.08L366.41 270.08M366.41 270.08L366.41 270.08M366.41 270.08L376.51 269.2M376.51 269.2L385.81 265.14M385.81 265.14L393.32 258.32M393.32 258.32L398.26 249.47M398.26 249.47L398.26 226.44"/>
<path d="M300.01 133.05L336.3 133.05"/>
<path d="M360.9 133.05L364.97 133.05M364.97 133.05L364.97 133.05M364.97 133.05L380.43 133.8M380.43 133.8L395.46 137.48M395.46 137.48L409.52 143.94M409.52 143.94L422.1 152.96"/>
<path d="M447.47 194.48L448.01 196.77M448.01 196.77L448.01 226.44"/>
<path d="M349.88 140.75L365.15 140.75M365.15 140.75L365.15 140.75M365.15 140.75L380.49 141.6M380.49 141.6L395.3 145.63M395.3 145.63L408.96 152.64M408.96 152.64L420.86 162.35"/>
<path d="M438.79 192.03L440.31 197.63M440.31 197.63L440.31 226.44"/>
<path d="M300.01 147.22L318.28 147.22"/>
<path d="M336.3 147.22L365.32 147.22M365.32 147.22L365.32 147.22M365.32 147.22L380.71 148.2M380.71 148.2L395.47 152.68M395.47 152.68L408.82 160.43M408.82 160.43L420.03 171.02M420.03 171.02L428.52 183.9M428.52 183.9L433.84 198.38M433.84 198.38L433.84 226.44"/>
<path d="M300.01 162.5L365.74 162.5M365.74 162.5L365.74 162.5M365.74 162.5L379.7 163.58M379.7 163.58L392.86 168.37M392.86 168.37L404.26 176.53M404.26 176.53L413.04 187.44M413.04 187.44L418.56 200.31M418.56 200.31L418.56 226.44"/>
<path d="M300.01 168.96L365.93 168.96M365.93 168.96L365.93 168.96M365.93 168.96L378.03 169.83M378.03 169.83L389.45 173.89M389.45 173.89L399.39 180.83M399.39 180.83L407.12 190.16M407.12 190.16L412.1 201.22M412.1 201.22L412.1 226.44"/>
<path d="M327.3 182.8L366.41 182.8M366.41 182.8L366.41 182.8M366.41 182.8L376.51 183.68M376.51 183.68L385.81 187.74M385.81 187.74L393.32 194.56M393.32 194.56L398.26 203.41M398.26 203.41L398.26 226.44"/>
<path d="M447.47 194.48L467.45 183.72M467.45 183.72L467.45 183.72M467.45 183.72L469.31 181.43M469.31 181.43L469.01 178.5M469.01 178.5L449.6 142.5M449.6 142.5L449.6 142.5M449.6 142.5L447.32 140.64M447.32 140.64L444.39 140.94M444.39 140.94L422.1 152.96"/>
<path d="M441.37 192.76L464.86 180.1M464.86 180.1L445.99 145.1M445.99 145.1L421.39 158.36"/>
<path d="M384.45 134.49L384.45 118.38"/>
<path d="M380.6 114.53L360.9 114.53"/>
<path d="M384.45 118.38L383.32 115.66M383.32 115.66L380.6 114.53"/>
<path d="M360.9 133.05L360.9 104M360.9 104L360.9 104M360.9 104L359.73 98.11M359.73 98.11L356.39 93.11M356.39 93.11L351.4 89.78M351.4 89.78L345.5 88.6M345.5 88.6L300.01 88.6"/>
<path d="M349.88 147.22L349.88 104M349.88 104L349.88 104M349.88 104L348.6 100.9M348.6 100.9L345.5 99.62M345.5 99.62L300.01 99.62"/>
<path d="M358.44 219.1L348.13 219.1M348.13 219.1L348.13 219.1M348.13 219.1L345.41 220.23M345.41 220.23L344.28 222.95M344.28 222.95L344.28 245.69M344.28 245.69L344.28 245.69M344.28 245.69L345.41 248.42M345.41 248.42L348.13 249.54M348.13 249.54L374.48 249.54M374.48 249.54L374.48 249.54M374.48 249.54L377.2 248.42M377.2 248.42L378.33 245.69M378.33 245.69L378.33 222.95M378.33 222.95L378.33 222.95M378.33 222.95L377.2 220.23M377.2 220.23L374.48 219.1M374.48 219.1L364.16 219.1"/>
<path d="M374.53 222.95L374.51 222.92M374.51 222.92L374.48 222.91M374.48 222.91L348.13 222.91M348.13 222.91L348.13 222.91M348.13 222.91L348.1 222.92M348.1 222.92L348.08 222.95M348.08 222.95L348.08 245.69M348.08 245.69L348.08 245.69M348.08 245.69L348.1 245.73M348.1 245.73L348.13 245.74M348.13 245.74L374.48 245.74M374.48 245.74L374.48 245.74M374.48 245.74L374.51 245.73M374.51 245.73L374.53 245.69M374.53 245.69L374.53 222.95"/>
<path d="M327.3 168.96L327.3 186.53"/>
<path d="M327.3 186.53L300.01 186.53"/>
<path d="M362.91 219.64L366.07 217.27M366.07 217.27L366.91 213.4M366.91 213.4L365.01 209.93M365.01 209.93L361.3 208.55M361.3 208.55L357.6 209.93M357.6 209.93L355.7 213.4M355.7 213.4L356.53 217.27M356.53 217.27L359.7 219.64"/>
<path d="M362.91 219.64L362.91 222.91"/>
<path d="M359.7 219.64L359.7 222.91"/>
<path d="M398.26 204.18L398.04 203.64M398.04 203.64L397.49 203.41M397.49 203.41L383.26 203.41M383.26 203.41L383.26 203.41M383.26 203.41L382.72 203.64M382.72 203.64L382.49 204.18M382.49 204.18L382.49 248.7M382.49 248.7L382.49 248.7M382.49 248.7L382.72 249.24M382.72 249.24L383.26 249.47M383.26 249.47L397.49 249.47M397.49 249.47L397.49 249.47M397.49 249.47L398.04 249.24M398.04 249.24L398.26 248.7M398.26 248.7L398.26 204.18"/>
<path d="M318.45 219.1L308.13 219.1M308.13 219.1L308.13 219.1M308.13 219.1L305.41 220.23M305.41 220.23L304.28 222.95M304.28 222.95L304.28 245.69M304.28 245.69L304.28 245.69M304.28 245.69L305.41 248.42M305.41 248.42L308.13 249.54M308.13 249.54L334.48 249.54M334.48 249.54L334.48 249.54M334.48 249.54L337.2 248.42M337.2 248.42L338.33 245.69M338.33 245.69L338.33 222.95M338.33 222.95L338.33 222.95M338.33 222.95L337.2 220.23M337.2 220.23L334.48 219.1M334.48 219.1L324.17 219.1"/>
<path d="M334.53 222.95L334.51 222.92M334.51 222.92L334.48 222.91M334.48 222.91L308.13 222.91M308.13 222.91L308.13 222.91M308.13 222.91L308.1 222.92M308.1 222.92L308.08 222.95M308.08 222.95L308.08 245.69M308.08 245.69L308.08 245.69M308.08 245.69L308.1 245.73M308.1 245.73L308.13 245.74M308.13 245.74L334.48 245.74M334.48 245.74L334.48 245.74M334.48 245.74L334.51 245.73M334.51 245.73L334.53 245.69M334.53 245.69L334.53 222.95"/>
<path d="M322.91 219.64L326.08 217.27M326.08 217.27L326.91 213.4M326.91 213.4L325.01 209.93M325.01 209.93L321.31 208.55M321.31 208.55L317.6 209.93M317.6 209.93L315.7 213.4M315.7 213.4L316.54 217.27M316.54 217.27L319.7 219.64"/>
<path d="M322.91 219.64L322.91 222.91"/>
<path d="M319.7 219.64L319.7 222.91"/>
<path d="M336.3 162.5L336.3 114.4"/>
<path d="M330.53 108.62L300.01 108.62"/>
<path d="M336.3 114.4L334.61 110.32M334.61 110.32L330.53 108.62"/>
<path d="M318.28 162.5L318.28 147.22"/>
<path d="M447.47 194.48L431.19 189.88"/>
<path d="M422.1 152.96L419.76 170.7"/>
<path d="M307.24 108.62L307.24 133.05"/>
<path d="M300.01 116.07L336.3 116.07"/>
<path d="M380.95 185.17L382.75 171.09"/>
<path d="M398.26 203.41L412.1 201.22"/>
<path d="M397.49 249.47L412.1 251.66"/>
<path d="M381.5 267.47L381.18 282.27"/>
<path d="M227.91 361.4L227.91 329.32M227.91 329.32L238.9 329.32M238.9 329.32L242.57 330.85M242.57 330.85L243.79 332.38M243.79 332.38L245.01 335.43M245.01 335.43L245.01 338.49M245.01 338.49L243.79 341.54M243.79 341.54L242.57 343.07M242.57 343.07L238.9 344.6M227.91 344.6L238.9 344.6M238.9 344.6L242.57 346.12M242.57 346.12L243.79 347.65M243.79 347.65L245.01 350.7M245.01 350.7L245.01 355.29M245.01 355.29L243.79 358.34M243.79 358.34L242.57 359.87M242.57 359.87L238.9 361.4M238.9 361.4L227.91 361.4M253.57 329.32L253.57 361.4M253.57 361.4L268.23 361.4M274.34 361.4L284.11 329.32M284.11 329.32L293.89 361.4M278 350.7L290.22 350.7M319.55 336.96L318.32 333.9M318.32 333.9L315.88 330.85M315.88 330.85L313.44 329.32M313.44 329.32L308.55 329.32M308.55 329.32L306.1 330.85M306.1 330.85L303.66 333.9M303.66 333.9L302.44 336.96M302.44 336.96L301.22 341.54M301.22 341.54L301.22 349.18M301.22 349.18L302.44 353.76M302.44 353.76L303.66 356.81M303.66 356.81L306.1 359.87M306.1 359.87L308.55 361.4M308.55 361.4L313.44 361.4M313.44 361.4L315.88 359.87M315.88 359.87L318.32 356.81M318.32 356.81L319.55 353.76M326.88 361.4L326.88 329.32M343.98 329.32L326.88 350.7M332.99 343.07L343.98 361.4"/>
<path d="M457.74 223.28L459.2 222.37M459.2 222.37L461.4 219.62M461.4 219.62L461.4 238.86"/>
<path d="M141.26 219.62L133.93 232.45M133.93 232.45L144.93 232.45M141.26 219.62L141.26 238.86"/>
</g>
</g>
</svg>
