<?xml version="1.0" standalone="no"?><svg xmlns="http://www.w3.org/2000/svg" width="600.000" height="450.000" viewBox="0.0 0.0 600.000 450.000" version="1.1">
<title>Acme Converter - Post-processed with EDS-Designer: 14.44 (info@symca.com)</title>
<desc>Acme Converter - Post-processed with EDS-Designer: 14.44 (info@symca.com)</desc>
<g id="EDS_STYLE_GROUP" fill="none" stroke="black" stroke-width="1.0">
<g id="0" display="visible">
<path d="M211.6 378.34L211.6 341.76M213.34 341.76L213.34 378.34M206.37 341.76L227.27 341.76M227.27 341.76L232.5 343.5M232.5 343.5L234.24 345.24M234.24 345.24L235.98 348.72M235.98 348.72L235.98 352.21M235.98 352.21L234.24 355.69M234.24 355.69L232.5 357.43M232.5 357.43L227.27 359.18M227.27 341.76L230.76 343.5M230.76 343.5L232.5 345.24M232.5 345.24L234.24 348.72M234.24 348.72L234.24 352.21M234.24 352.21L232.5 355.69M232.5 355.69L230.76 357.43M230.76 357.43L227.27 359.18M213.34 359.18L227.27 359.18M227.27 359.18L232.5 360.92M232.5 360.92L234.24 362.66M234.24 362.66L235.98 366.14M235.98 366.14L235.98 371.37M235.98 371.37L234.24 374.85M234.24 374.85L232.5 376.6M232.5 376.6L227.27 378.34M227.27 378.34L206.37 378.34M227.27 359.18L230.76 360.92M230.76 360.92L232.5 362.66M232.5 362.66L234.24 366.14M234.24 366.14L234.24 371.37M234.24 371.37L232.5 374.85M232.5 374.85L230.76 376.6M230.76 376.6L227.27 378.34M249.92 378.34L249.92 341.76M251.66 341.76L251.66 378.34M244.69 341.76L256.88 341.76M244.69 378.34L270.82 378.34M270.82 378.34L270.82 367.89M270.82 367.89L269.08 378.34M291.72 341.76L279.53 378.34M291.72 341.76L303.92 378.34M291.72 346.98L302.17 378.34M283.01 367.89L298.69 367.89M276.05 378.34L286.5 378.34M296.95 378.34L307.4 378.34M337.01 346.98L338.75 352.21M338.75 352.21L338.75 341.76M338.75 341.76L337.01 346.98M337.01 346.98L333.53 343.5M333.53 343.5L328.3 341.76M328.3 341.76L324.82 341.76M324.82 341.76L319.59 343.5M319.59 343.5L316.11 346.98M316.11 346.98L314.37 350.47M314.37 350.47L312.62 355.69M312.62 355.69L312.62 364.4M312.62 364.4L314.37 369.63M314.37 369.63L316.11 373.11M316.11 373.11L319.59 376.6M319.59 376.6L324.82 378.34M324.82 378.34L328.3 378.34M328.3 378.34L333.53 376.6M333.53 376.6L337.01 373.11M337.01 373.11L338.75 369.63M324.82 341.76L321.33 343.5M321.33 343.5L317.85 346.98M317.85 346.98L316.11 350.47M316.11 350.47L314.37 355.69M314.37 355.69L314.37 364.4M314.37 364.4L316.11 369.63M316.11 369.63L317.85 373.11M317.85 373.11L321.33 376.6M321.33 376.6L324.82 378.34M354.43 378.34L354.43 341.76M356.17 341.76L356.17 378.34M378.82 341.76L356.17 364.4M364.88 357.43L378.82 378.34M363.14 357.43L377.08 378.34M349.2 341.76L361.4 341.76M371.85 341.76L382.3 341.76M349.2 378.34L361.4 378.34M371.85 378.34L382.3 378.34"/>
<path d="M560.19 201.09L558.8 198.31M558.8 198.31L554.62 196.91M554.62 196.91L551.83 196.91M551.83 196.91L547.65 198.31M547.65 198.31L544.86 202.49M544.86 202.49L543.47 209.46M543.47 209.46L543.47 216.42M543.47 216.42L544.86 222M544.86 222L547.65 224.78M547.65 224.78L551.83 226.18M551.83 226.18L553.22 226.18M553.22 226.18L557.4 224.78M557.4 224.78L560.19 222M560.19 222L561.58 217.82M561.58 217.82L561.58 216.42M561.58 216.42L560.19 212.24M560.19 212.24L557.4 209.46M557.4 209.46L553.22 208.06M553.22 208.06L551.83 208.06M551.83 208.06L547.65 209.46M547.65 209.46L544.86 212.24M544.86 212.24L543.47 216.42"/>
<path d="M26.72 202.41L29.51 201.02M29.51 201.02L33.69 196.84M33.69 196.84L33.69 226.1"/>
<path d="M498.18 231.55L498.18 223.61"/>
<path d="M329.19 300.75L329.19 298.29"/>
<path d="M259.54 298.29L259.54 300.75"/>
<path d="M335.33 126.25L335.33 122.57"/>
<path d="M253.39 122.57L253.39 126.26"/>
<path d="M371.18 76.27L371.18 82.42"/>
<path d="M343.53 122.87L245.19 122.87"/>
<path d="M227.79 133.09L227.79 87.03"/>
<path d="M360.94 87.03L360.94 133.09"/>
<path d="M329.32 304.63L389.45 301.09M389.45 301.09L449.29 294.27"/>
<path d="M260.47 304.67L294.41 305.19M294.41 305.19L328.35 304.67"/>
<path d="M139.43 294.27L199.28 301.09M199.28 301.09L259.41 304.63"/>
<path d="M99.75 272.48L111.08 282.89M111.08 282.89L124.57 290.3M124.57 290.3L139.43 294.27"/>
<path d="M449.29 294.27L464.16 290.3M464.16 290.3L477.64 282.89M477.64 282.89L488.97 272.48"/>
<path d="M220.62 87.03L368.11 87.03"/>
<path d="M223.69 129.25L223.69 87.03"/>
<path d="M227.79 133.09L223.69 129.25"/>
<path d="M447.86 141.89L386.65 134.97M386.65 134.97L325.16 131.5M325.16 131.5L263.57 131.5M263.57 131.5L202.07 134.97M202.07 134.97L140.87 141.89"/>
<path d="M238.03 132.52L238.03 131.07"/>
<path d="M227.79 122.83L232.92 122.54"/>
<path d="M360.94 122.83L355.83 122.54"/>
<path d="M350.7 132.52L350.7 131.07"/>
<path d="M360.94 133.09L365.03 129.25"/>
<path d="M365.03 87.03L365.03 129.25"/>
<path d="M449.29 294.27L448.72 290.21"/>
<path d="M329.19 300.54L389.09 297.01M389.09 297.01L448.72 290.21"/>
<path d="M329.32 304.64L329.19 300.54"/>
<path d="M325.09 300.54L325.66 302.63M325.66 302.63L327.21 304.13M327.21 304.13L329.32 304.63"/>
<path d="M319.18 300.73L325.09 300.54"/>
<path d="M306.4 301.01L319.18 300.73"/>
<path d="M281.28 300.99L306.4 301.01"/>
<path d="M270.58 300.76L281.28 300.99"/>
<path d="M263.64 300.54L270.58 300.76"/>
<path d="M259.41 304.63L261.51 304.13M261.51 304.13L263.06 302.63M263.06 302.63L263.64 300.54"/>
<path d="M259.54 300.54L259.41 304.64"/>
<path d="M140.01 290.21L199.63 297.01M199.63 297.01L259.54 300.54"/>
<path d="M139.43 294.27L140.01 290.21"/>
<path d="M99.75 272.48L64.81 256.7"/>
<path d="M102.28 269.13L112.98 279.21M112.98 279.21L125.81 286.38M125.81 286.38L140.01 290.21"/>
<path d="M102.28 269.13L99.75 272.48"/>
<path d="M523.91 256.7L488.97 272.48"/>
<path d="M486.44 269.13L488.97 272.48"/>
<path d="M478.08 277.4L486.44 269.13"/>
<path d="M448.72 290.21L459.23 287.74M459.23 287.74L469.12 283.43M469.12 283.43L478.08 277.4"/>
<path d="M92.59 203.79L94.64 203.79"/>
<path d="M90.54 203.79L92.59 203.79"/>
<path d="M88.49 203.79L90.54 203.79"/>
<path d="M90.54 222.23L88.49 222.23"/>
<path d="M92.59 222.23L90.54 222.23"/>
<path d="M92.59 222.23L94.64 222.23"/>
<path d="M448.43 137.83L406.82 132.74M406.82 132.74L365.03 129.25"/>
<path d="M498.18 195.13L496.55 181.46M496.55 181.46L491.73 168.57M491.73 168.57L484.01 157.18M484.01 157.18L473.82 147.94M473.82 147.94L461.73 141.37M461.73 141.37L448.43 137.83"/>
<path d="M498.18 195.13L498.18 201.74"/>
<path d="M500.23 201.74L498.18 201.74"/>
<path d="M505.35 206.86L504.67 204.3M504.67 204.3L502.79 202.43M502.79 202.43L500.23 201.74"/>
<path d="M505.35 219.15L505.35 206.86"/>
<path d="M500.23 224.27L502.79 223.59M502.79 223.59L504.67 221.71M504.67 221.71L505.35 219.15"/>
<path d="M498.18 224.27L500.23 224.27"/>
<path d="M498.18 224.27L498.18 230.89"/>
<path d="M448.43 288.18L461.73 284.65M461.73 284.65L473.82 278.07M473.82 278.07L484.01 268.83M484.01 268.83L491.73 257.44M491.73 257.44L496.55 244.55M496.55 244.55L498.18 230.89"/>
<path d="M329.19 298.49L388.95 294.96M388.95 294.96L448.43 288.18"/>
<path d="M329.19 300.54L329.19 298.49"/>
<path d="M522.22 252.96L486.44 269.13"/>
<path d="M522.22 252.97L524.86 250.7M524.86 250.7L525.84 247.36"/>
<path d="M525.84 178.65L525.84 247.36"/>
<path d="M525.84 178.65L524.86 175.32M524.86 175.32L522.22 173.05"/>
<path d="M494.04 160.31L522.22 173.05"/>
<path d="M486.44 156.88L494.04 160.31"/>
<path d="M486.44 156.88L480.33 150.53M480.33 150.53L473.36 145.15"/>
<path d="M373.23 78.94L473.36 145.15"/>
<path d="M368.11 87.03L371.73 85.53M371.73 85.53L373.23 81.91"/>
<path d="M220.62 84.98L368.11 84.98"/>
<path d="M220.62 84.98L220.62 87.03"/>
<path d="M368.11 84.98L368.11 87.03"/>
<path d="M215.5 81.91L217 85.53M217 85.53L220.62 87.03"/>
<path d="M259.54 298.49L259.54 300.54"/>
<path d="M140.29 288.18L199.77 294.96M199.77 294.96L259.54 298.49"/>
<path d="M90.54 230.89L92.18 244.55M92.18 244.55L96.99 257.44M96.99 257.44L104.71 268.83M104.71 268.83L114.91 278.07M114.91 278.07L126.99 284.65M126.99 284.65L140.29 288.18"/>
<path d="M90.54 230.89L90.54 224.27"/>
<path d="M90.54 224.27L88.49 224.27"/>
<path d="M83.37 219.15L84.06 221.71M84.06 221.71L85.93 223.59M85.93 223.59L88.49 224.27"/>
<path d="M83.37 219.15L83.37 206.86"/>
<path d="M88.49 201.74L85.93 202.43M85.93 202.43L84.06 204.3M84.06 204.3L83.37 206.86"/>
<path d="M88.49 201.74L90.54 201.74"/>
<path d="M90.54 201.74L90.54 195.13"/>
<path d="M140.29 137.83L126.99 141.37M126.99 141.37L114.91 147.94M114.91 147.94L104.71 157.19M104.71 157.19L96.99 168.57M96.99 168.57L92.18 181.46M92.18 181.46L90.54 195.13"/>
<path d="M223.69 129.25L181.91 132.74M181.91 132.74L140.29 137.83"/>
<path d="M215.5 78.94L115.36 145.15"/>
<path d="M115.36 145.15L110.64 148.61"/>
<path d="M110.64 148.61L102.28 156.88"/>
<path d="M66.5 173.05L102.28 156.88"/>
<path d="M66.5 173.05L63.87 175.32M63.87 175.32L62.89 178.65"/>
<path d="M62.89 247.36L62.89 178.65"/>
<path d="M62.89 247.36L63.87 250.7M63.87 250.7L66.5 252.97"/>
<path d="M94.69 265.7L66.5 252.96"/>
<path d="M102.28 269.13L94.69 265.7"/>
<path d="M140.87 141.89L140.29 137.83"/>
<path d="M494.09 195.13L492.57 182.43M492.57 182.43L488.09 170.45M488.09 170.45L480.92 159.87M480.92 159.87L471.45 151.28M471.45 151.28L460.21 145.17M460.21 145.17L447.86 141.89"/>
<path d="M140.87 141.89L128.51 145.17M128.51 145.17L117.28 151.28M117.28 151.28L107.81 159.87M107.81 159.87L100.63 170.45M100.63 170.45L96.16 182.43M96.16 182.43L94.64 195.13"/>
<path d="M94.64 195.13L94.64 230.89"/>
<path d="M94.64 230.89L96.16 243.58M96.16 243.58L100.63 255.56M100.63 255.56L107.81 266.14M107.81 266.14L117.28 274.73M117.28 274.73L128.51 280.84M128.51 280.84L140.87 284.13"/>
<path d="M140.87 284.13L202.07 291.05M202.07 291.05L263.57 294.51M263.57 294.51L325.16 294.51M325.16 294.51L386.65 291.05M386.65 291.05L447.86 284.13"/>
<path d="M447.86 284.13L460.21 280.84M460.21 280.84L471.45 274.73M471.45 274.73L480.92 266.14M480.92 266.14L488.09 255.56M488.09 255.56L492.57 243.58M492.57 243.58L494.09 230.89"/>
<path d="M494.09 195.13L494.09 230.89"/>
<path d="M284.12 245.07L179.14 245.07"/>
<path d="M163.77 245.07L149.58 245.07"/>
<path d="M134.73 230.22L135.86 235.91M135.86 235.91L139.08 240.72M139.08 240.72L143.9 243.94M143.9 243.94L149.58 245.07"/>
<path d="M134.73 230.22L134.73 220.69"/>
<path d="M134.73 205.33L134.73 195.79"/>
<path d="M149.58 180.94L143.9 182.07M143.9 182.07L139.08 185.29M139.08 185.29L135.86 190.11M135.86 190.11L134.73 195.79"/>
<path d="M284.12 180.94L209.86 180.94"/>
<path d="M194.5 180.94L149.58 180.94"/>
<path d="M439.14 180.94L394.23 180.94"/>
<path d="M378.86 180.94L304.6 180.94"/>
<path d="M453.99 195.79L452.86 190.11M452.86 190.11L449.64 185.29M449.64 185.29L444.83 182.07M444.83 182.07L439.14 180.94"/>
<path d="M453.99 230.22L453.99 220.69"/>
<path d="M453.99 205.33L453.99 195.79"/>
<path d="M439.14 245.07L444.83 243.94M444.83 243.94L449.64 240.72M449.64 240.72L452.86 235.91M452.86 235.91L453.99 230.22"/>
<path d="M439.14 245.07L424.95 245.07"/>
<path d="M409.59 245.07L304.6 245.07"/>
<path d="M238.03 97.07L243.15 97.07"/>
<path d="M345.57 97.07L350.7 97.07"/>
<path d="M350.7 97L350.7 97.07"/>
<path d="M238.03 97.07L238.03 97"/>
<path d="M447.86 141.89L448.43 137.83"/>
<path d="M494.09 222.23L496.14 222.23"/>
<path d="M496.14 222.23L498.18 222.23"/>
<path d="M498.18 222.23L500.23 222.23"/>
<path d="M500.23 203.79L498.18 203.79"/>
<path d="M498.18 203.79L496.14 203.79"/>
<path d="M494.09 203.79L496.14 203.79"/>
<path d="M325.09 300.54L329.19 300.54"/>
<path d="M325.09 300.54L325.09 298.49"/>
<path d="M263.64 298.49L294.36 299.04M294.36 299.04L325.09 298.49"/>
<path d="M263.64 298.49L263.64 300.54"/>
<path d="M263.64 300.54L259.54 300.54"/>
<path d="M64.81 256.7L66.5 252.96"/>
<path d="M58.79 247.36L60.43 252.92M60.43 252.92L64.81 256.7"/>
<path d="M113.1 141.73L106.01 147.16M106.01 147.16L99.75 153.53"/>
<path d="M488.97 153.53L482.71 147.16M482.71 147.16L475.62 141.73"/>
<path d="M523.91 256.7L528.3 252.92M528.3 252.92L529.94 247.36"/>
<path d="M523.91 256.7L522.22 252.96"/>
<path d="M94.64 201.74L90.54 201.74"/>
<path d="M88.49 201.74L88.49 203.79"/>
<path d="M89.45 203.79L88.12 204.2M88.12 204.2L87.15 205.33M87.15 205.33L86.79 206.86"/>
<path d="M85.42 206.86L86.79 206.86"/>
<path d="M86.79 206.86L94.64 206.86"/>
<path d="M86.79 219.15L86.79 206.86"/>
<path d="M94.64 219.15L86.79 219.15"/>
<path d="M86.79 219.15L87.15 220.69M87.15 220.69L88.12 221.81M88.12 221.81L89.45 222.23"/>
<path d="M86.79 219.15L85.42 219.15"/>
<path d="M88.49 224.27L88.49 222.23"/>
<path d="M90.54 224.27L94.64 224.27"/>
<path d="M355.82 102.17L354.31 98.56M354.31 98.56L350.7 97.07"/>
<path d="M355.82 102.12L355.82 102.17"/>
<path d="M355.82 102.17L355.82 111.7"/>
<path d="M355.82 111.7L355.82 122.87"/>
<path d="M355.82 122.87L355.82 125.95"/>
<path d="M232.91 125.95L232.91 122.87"/>
<path d="M232.91 122.87L232.91 111.7"/>
<path d="M232.91 111.7L232.91 102.17"/>
<path d="M232.91 102.17L232.91 102.12"/>
<path d="M498.18 195.13L494.09 195.13"/>
<path d="M494.09 201.74L498.18 201.74"/>
<path d="M500.23 203.79L500.23 201.74"/>
<path d="M498.18 203.79L498.18 201.74"/>
<path d="M503.31 206.86L505.35 206.86"/>
<path d="M503.31 219.15L505.35 219.15"/>
<path d="M500.23 222.23L500.23 224.27"/>
<path d="M498.18 222.23L498.18 224.27"/>
<path d="M498.18 230.89L494.09 230.89"/>
<path d="M498.18 224.27L494.09 224.27"/>
<path d="M447.86 284.13L448.43 288.18"/>
<path d="M329.19 298.49L329.06 294.4"/>
<path d="M325.09 298.49L329.19 298.49"/>
<path d="M529.94 247.36L525.84 247.36"/>
<path d="M529.94 178.65L529.94 247.36"/>
<path d="M529.94 178.65L525.84 178.65"/>
<path d="M529.94 178.65L528.3 173.09M528.3 173.09L523.91 169.32"/>
<path d="M523.91 169.32L522.22 173.05"/>
<path d="M486.44 156.88L488.97 153.53"/>
<path d="M488.97 153.53L523.91 169.32"/>
<path d="M473.36 145.15L475.62 141.73"/>
<path d="M370.93 72.51L475.62 141.73"/>
<path d="M373.23 81.91L373.23 76.78"/>
<path d="M368.11 84.98L370.28 84.08M370.28 84.08L371.18 81.9"/>
<path d="M371.18 81.91L371.18 76.78"/>
<path d="M371.18 76.78L370.28 74.61M370.28 74.61L368.11 73.71"/>
<path d="M368.11 73.71L220.62 73.71"/>
<path d="M220.62 73.71L218.45 74.61M218.45 74.61L217.54 76.78"/>
<path d="M217.54 76.78L217.54 81.91"/>
<path d="M217.54 81.9L218.45 84.08M218.45 84.08L220.62 84.98"/>
<path d="M215.5 76.78L215.5 81.91"/>
<path d="M263.64 298.49L259.54 298.49"/>
<path d="M140.87 284.13L140.29 288.18"/>
<path d="M259.67 294.4L259.54 298.49"/>
<path d="M90.54 230.89L94.64 230.89"/>
<path d="M83.37 219.15L85.42 219.15"/>
<path d="M83.37 206.86L85.42 206.86"/>
<path d="M90.54 195.13L94.64 195.13"/>
<path d="M217.79 72.51L113.1 141.73"/>
<path d="M113.1 141.73L115.36 145.15"/>
<path d="M102.28 156.88L99.75 153.53"/>
<path d="M64.81 169.32L99.75 153.53"/>
<path d="M64.81 169.32L66.5 173.05"/>
<path d="M64.81 169.32L60.43 173.09M60.43 173.09L58.79 178.65"/>
<path d="M58.79 178.65L62.89 178.65"/>
<path d="M58.79 247.36L58.79 178.65"/>
<path d="M58.79 247.36L62.89 247.36"/>
<path d="M284.12 265.5L284.12 265.38"/>
<path d="M284.12 244.55L284.12 265.38"/>
<path d="M439.14 245.07L438.37 243.64"/>
<path d="M150.35 243.64L149.58 245.07"/>
<path d="M304.6 244.55L284.12 244.55"/>
<path d="M135.51 228.78L134.73 230.22"/>
<path d="M134.73 195.79L135.51 197.23"/>
<path d="M134.9 210.45L134.85 205.32"/>
<path d="M134.91 210.45L134.91 215.57"/>
<path d="M134.85 220.69L134.9 215.57"/>
<path d="M149.58 180.94L150.35 182.38"/>
<path d="M284.12 181.46L304.6 181.46"/>
<path d="M438.37 182.38L439.14 180.94"/>
<path d="M284.12 181.46L284.12 160.64"/>
<path d="M284.12 160.52L284.12 160.64"/>
<path d="M304.6 160.52L304.6 160.64"/>
<path d="M304.6 181.46L304.6 160.64"/>
<path d="M453.22 197.23L453.99 195.79"/>
<path d="M453.99 230.22L453.22 228.78"/>
<path d="M453.82 215.57L453.88 220.69"/>
<path d="M453.81 215.57L453.81 210.45"/>
<path d="M453.88 205.32L453.82 210.45"/>
<path d="M304.6 244.55L304.6 265.38"/>
<path d="M304.6 265.5L304.6 265.38"/>
<path d="M238.03 106.81L238.03 97.07"/>
<path d="M238.03 106.81L267.22 106.81"/>
<path d="M267.22 106.81L321.5 106.81"/>
<path d="M321.5 106.81L350.7 106.81"/>
<path d="M350.7 97.07L350.7 106.81"/>
<path d="M339.43 98.69L342.5 98.62M342.5 98.62L344.75 98.42M344.75 98.42L345.57 98.15"/>
<path d="M339.43 98.69L249.3 98.69"/>
<path d="M243.15 98.15L243.97 98.42M243.97 98.42L246.22 98.62M246.22 98.62L249.3 98.69"/>
<path d="M238.03 97.07L235.47 97.75M235.47 97.75L233.6 99.62M233.6 99.62L232.91 102.17"/>
<path d="M243.15 93.66L243.15 97"/>
<path d="M243.18 93.36L243.15 93.66"/>
<path d="M345.57 93.66L345.57 94.06"/>
<path d="M345.57 93.66L345.54 93.36"/>
<path d="M501.93 219.15L503.31 219.15"/>
<path d="M499.27 222.23L500.6 221.81M500.6 221.81L501.58 220.69M501.58 220.69L501.93 219.15"/>
<path d="M494.09 219.15L501.93 219.15"/>
<path d="M501.93 219.15L501.93 206.86"/>
<path d="M501.93 206.86L494.09 206.86"/>
<path d="M501.93 206.86L501.58 205.33M501.58 205.33L500.6 204.2M500.6 204.2L499.27 203.79"/>
<path d="M503.31 206.86L501.93 206.86"/>
<path d="M329.06 294.4L326.24 295.64M326.24 295.64L325.09 298.49"/>
<path d="M263.64 298.49L262.48 295.64M262.48 295.64L259.67 294.4"/>
<path d="M350.7 106.81L352.34 107.07M352.34 107.07L353.8 107.81M353.8 107.81L354.91 108.92M354.91 108.92L355.6 110.28M355.6 110.28L355.82 111.7"/>
<path d="M350.7 106.81L350.7 117.75"/>
<path d="M355.82 122.87L354.32 119.25M354.32 119.25L350.7 117.75"/>
<path d="M355.82 122.87L335.33 122.87"/>
<path d="M335.33 122.87L335.33 125.95"/>
<path d="M350.7 131.07L354.32 129.57M354.32 129.57L355.82 125.95"/>
<path d="M232.91 125.95L234.41 129.57M234.41 129.57L238.03 131.07"/>
<path d="M253.39 125.95L253.39 122.87"/>
<path d="M253.39 122.87L232.91 122.87"/>
<path d="M238.03 117.75L234.41 119.25M234.41 119.25L232.91 122.87"/>
<path d="M238.03 117.75L238.03 106.81"/>
<path d="M238.03 106.81L236.38 107.07M236.38 107.07L234.92 107.81M234.92 107.81L233.82 108.92M233.82 108.92L233.13 110.28M233.13 110.28L232.91 111.7"/>
<path d="M373.23 76.78L371.73 73.16M371.73 73.16L368.11 71.66"/>
<path d="M368.11 73.71L368.11 71.66"/>
<path d="M368.11 71.66L220.62 71.66"/>
<path d="M220.62 73.71L220.62 71.66"/>
<path d="M220.62 71.66L217 73.16M217 73.16L215.5 76.78"/>
<path d="M284.12 265.5L304.6 265.5"/>
<path d="M284.12 265.38L304.6 265.38"/>
<path d="M438.37 241.63L424.95 241.63"/>
<path d="M438.37 241.61L438.37 243.64"/>
<path d="M424.95 248.56L424.95 250.18"/>
<path d="M424.95 248.56L424.95 241.63"/>
<path d="M419.83 255.3L422.39 254.61M422.39 254.61L424.27 252.74M424.27 252.74L424.95 250.18"/>
<path d="M414.71 255.3L419.83 255.3"/>
<path d="M409.59 250.18L410.27 252.74M410.27 252.74L412.15 254.61M412.15 254.61L414.71 255.3"/>
<path d="M409.59 250.18L409.59 248.56"/>
<path d="M409.59 248.56L409.59 241.63"/>
<path d="M409.59 241.63L179.14 241.63"/>
<path d="M179.14 248.56L179.14 250.18"/>
<path d="M179.14 248.56L179.14 241.63"/>
<path d="M174.01 255.3L176.58 254.61M176.58 254.61L178.45 252.74M178.45 252.74L179.14 250.18"/>
<path d="M174.01 255.3L168.89 255.3"/>
<path d="M163.77 250.18L164.46 252.74M164.46 252.74L166.33 254.61M166.33 254.61L168.89 255.3"/>
<path d="M163.77 250.18L163.77 248.56"/>
<path d="M163.77 248.56L163.77 241.63"/>
<path d="M163.77 241.63L154.83 241.64M154.83 241.64L150.35 241.62"/>
<path d="M150.35 241.61L150.35 243.64"/>
<path d="M137.42 228.78L139.22 235.19M139.22 235.19L143.94 239.88M143.94 239.88L150.35 241.63"/>
<path d="M137.43 228.78L135.51 228.78"/>
<path d="M137.42 228.78L137.42 197.23"/>
<path d="M137.42 197.23L135.51 197.23"/>
<path d="M124.5 215.57L124.5 210.45"/>
<path d="M129.66 205.33L134.84 205.33"/>
<path d="M129.66 205.33L127.87 206.01M127.87 206.01L126.56 207.89M126.56 207.89L126.08 210.45"/>
<path d="M126.08 210.45L134.91 210.45"/>
<path d="M126.08 215.57L126.08 210.45"/>
<path d="M134.91 215.57L126.08 215.57"/>
<path d="M126.08 215.57L126.56 218.13M126.56 218.13L127.87 220M127.87 220L129.66 220.69"/>
<path d="M134.84 220.69L129.66 220.69"/>
<path d="M150.35 184.39L143.94 186.14M143.94 186.14L139.22 190.82M139.22 190.82L137.42 197.23"/>
<path d="M150.35 184.41L150.35 182.38"/>
<path d="M304.6 160.64L284.12 160.64"/>
<path d="M150.35 184.39L194.5 184.39"/>
<path d="M194.5 177.45L194.5 184.39"/>
<path d="M194.5 177.45L194.5 175.84"/>
<path d="M199.62 170.72L197.06 171.4M197.06 171.4L195.19 173.28M195.19 173.28L194.5 175.84"/>
<path d="M204.74 170.72L199.62 170.72"/>
<path d="M209.86 175.84L209.18 173.28M209.18 173.28L207.3 171.4M207.3 171.4L204.74 170.72"/>
<path d="M209.86 175.84L209.86 177.45"/>
<path d="M209.86 177.45L209.86 184.39"/>
<path d="M209.86 184.39L378.86 184.39"/>
<path d="M378.86 177.45L378.86 175.84"/>
<path d="M378.86 177.45L378.86 184.39"/>
<path d="M383.98 170.72L381.42 171.4M381.42 171.4L379.55 173.28M379.55 173.28L378.86 175.84"/>
<path d="M383.98 170.72L389.1 170.72"/>
<path d="M394.23 175.84L393.54 173.28M393.54 173.28L391.66 171.4M391.66 171.4L389.1 170.72"/>
<path d="M394.23 175.84L394.23 177.45"/>
<path d="M394.23 177.45L394.23 184.39"/>
<path d="M394.23 184.39L438.37 184.39"/>
<path d="M438.37 184.39L438.37 182.38"/>
<path d="M304.6 160.52L284.12 160.52"/>
<path d="M451.3 197.23L449.51 190.82M449.51 190.82L444.79 186.14M444.79 186.14L438.37 184.39"/>
<path d="M451.29 197.23L453.22 197.23"/>
<path d="M451.3 197.23L451.3 228.78"/>
<path d="M451.3 228.78L453.22 228.78"/>
<path d="M459.06 220.69L453.89 220.69"/>
<path d="M459.06 220.69L460.85 220M460.85 220L462.17 218.13M462.17 218.13L462.65 215.57"/>
<path d="M462.65 215.57L453.81 215.57"/>
<path d="M462.65 215.57L462.65 210.45"/>
<path d="M453.81 210.45L462.65 210.45"/>
<path d="M462.65 210.45L462.17 207.89M462.17 207.89L460.85 206.01M460.85 206.01L459.06 205.33"/>
<path d="M453.89 205.33L459.06 205.33"/>
<path d="M438.37 241.63L444.79 239.88M444.79 239.88L449.51 235.19M449.51 235.19L451.3 228.78"/>
<path d="M267.22 117.75L267.22 106.81"/>
<path d="M321.5 117.75L321.5 106.81"/>
<path d="M345.57 98.15L345.57 94.07"/>
<path d="M339.43 94.61L342.5 94.54M342.5 94.54L344.75 94.34M344.75 94.34L345.57 94.07"/>
<path d="M339.43 94.61L339.43 98.69"/>
<path d="M339.43 94.61L249.3 94.61"/>
<path d="M249.3 98.69L249.3 94.61"/>
<path d="M243.15 98.15L243.15 94.07"/>
<path d="M243.15 94.07L243.97 94.34M243.97 94.34L246.22 94.54M246.22 94.54L249.3 94.61"/>
<path d="M249.3 87.51L249.3 87.93"/>
<path d="M339.43 87.51L339.43 87.93"/>
<path d="M238.03 117.75L253.39 117.75"/>
<path d="M253.39 117.75L335.33 117.75"/>
<path d="M335.33 117.75L350.7 117.75"/>
<path d="M335.33 117.75L335.33 122.87"/>
<path d="M253.39 122.87L335.33 122.87"/>
<path d="M335.33 131.07L350.7 131.07"/>
<path d="M335.33 125.95L335.33 131.07"/>
<path d="M253.39 131.07L335.33 131.07"/>
<path d="M238.03 131.07L253.39 131.07"/>
<path d="M253.39 125.95L253.39 131.07"/>
<path d="M253.39 117.75L253.39 122.87"/>
<path d="M409.59 248.56L410.27 251.12M410.27 251.12L412.15 253M412.15 253L414.71 253.68"/>
<path d="M414.71 253.68L419.83 253.68"/>
<path d="M419.83 253.68L422.39 253M422.39 253L424.27 251.12M424.27 251.12L424.95 248.56"/>
<path d="M394.23 177.45L393.54 174.89M393.54 174.89L391.66 173.02M391.66 173.02L389.1 172.33"/>
<path d="M383.98 172.33L389.1 172.33"/>
<path d="M383.98 172.33L381.42 173.02M381.42 173.02L379.55 174.89M379.55 174.89L378.86 177.45"/>
<path d="M209.86 177.45L209.18 174.89M209.18 174.89L207.3 173.02M207.3 173.02L204.74 172.33"/>
<path d="M204.74 172.33L199.62 172.33"/>
<path d="M199.62 172.33L197.06 173.02M197.06 173.02L195.19 174.89M195.19 174.89L194.5 177.45"/>
<path d="M163.77 248.56L164.46 251.12M164.46 251.12L166.33 253M166.33 253L168.89 253.68"/>
<path d="M174.01 253.68L168.89 253.68"/>
<path d="M174.01 253.68L176.58 253M176.58 253L178.45 251.12M178.45 251.12L179.14 248.56"/>
<path d="M419.83 253.68L419.83 255.3"/>
<path d="M414.71 255.3L414.71 253.68"/>
<path d="M174.01 253.68L174.01 255.3"/>
<path d="M168.89 255.3L168.89 253.68"/>
<path d="M124.54 215.57L126.04 219.19M126.04 219.19L129.66 220.69"/>
<path d="M124.54 215.57L124.54 210.45"/>
<path d="M129.66 205.33L127.1 206.01M127.1 206.01L125.23 207.89M125.23 207.89L124.54 210.45"/>
<path d="M126.08 210.45L124.54 210.45"/>
<path d="M124.54 215.57L126.08 215.57"/>
<path d="M199.62 172.33L199.62 170.72"/>
<path d="M204.74 170.72L204.74 172.33"/>
<path d="M383.98 172.33L383.98 170.72"/>
<path d="M389.1 170.72L389.1 172.33"/>
<path d="M464.18 210.45L463.5 207.89M463.5 207.89L461.62 206.01M461.62 206.01L459.06 205.33"/>
<path d="M464.18 215.57L464.18 210.45"/>
<path d="M459.06 220.69L461.62 220M461.62 220L463.5 218.13M463.5 218.13L464.18 215.57"/>
<path d="M462.65 215.57L464.18 215.57"/>
<path d="M464.18 210.45L462.65 210.45"/>
<path d="M339.43 94.61L339.43 87.93"/>
<path d="M249.3 87.93L249.3 94.61"/>
<path d="M260.47 304.65L259.67 304.63"/>
<path d="M328.36 304.65L329.07 304.63"/>
<path d="M238.03 97L243.15 97"/>
<path d="M345.57 97L350.7 97"/>
<path d="M355.82 102.13L355.13 99.57M355.13 99.57L353.26 97.69M353.26 97.69L350.7 97"/>
<path d="M238.03 97L235.47 97.69M235.47 97.69L233.59 99.57M233.59 99.57L232.91 102.13"/>
<path d="M249.3 87.51L246.22 88.33M246.22 88.33L243.97 90.58M243.97 90.58L243.15 93.66"/>
<path d="M249.3 87.51L339.43 87.51"/>
<path d="M345.57 93.66L344.75 90.58M344.75 90.58L342.5 88.33M342.5 88.33L339.43 87.51"/>
<path d="M141.27 200.97L187.41 201.29"/>
<path d="M187.41 201.29L187.41 226.04"/>
<path d="M187.41 226.04L141.27 226.04"/>
<path d="M141.27 226.04L141.45 200.97"/>
<path d="M147.22 218.01L180.98 218.01"/>
<path d="M180.98 218.01L180.98 208.84"/>
<path d="M180.98 208.84L147.22 208.84"/>
<path d="M147.22 218.01L147.22 208.84"/>
<path d="M147.22 208.84L141.45 200.97"/>
<path d="M180.98 208.84L187.41 201.29"/>
<path d="M180.98 218.01L187.41 226.04"/>
<path d="M147.22 218.01L141.27 226.04"/>
<path d="M150.38 200.97L150.38 190.29"/>
<path d="M150.38 190.29L159.41 190.29"/>
<path d="M159.41 190.29L159.41 185.93"/>
<path d="M159.41 185.93L168.55 185.93"/>
<path d="M168.55 185.93L168.55 190.05"/>
<path d="M168.55 190.05L177.68 190.05"/>
<path d="M177.68 190.05L177.6 201.22"/>
<path d="M168.55 190.05L168.47 201.16"/>
<path d="M159.41 190.29L159.34 201.09"/>
<path d="M150.93 226.04L150.93 236.88"/>
<path d="M150.93 236.88L159.8 236.88"/>
<path d="M159.8 236.88L159.8 241.58"/>
<path d="M159.8 241.58L169.45 241.58"/>
<path d="M169.45 241.58L169.45 236.88"/>
<path d="M169.45 236.88L177.97 236.88"/>
<path d="M177.97 236.88L177.97 226.04"/>
<path d="M159.8 236.88L159.8 226.04"/>
<path d="M169.45 236.88L169.45 226.04"/>
<path d="M141.45 200.97L187.41 201.29"/>
<path d="M193.76 200.97L239.72 201.29"/>
<path d="M221.76 236.88L221.76 226.04"/>
<path d="M212.11 236.88L212.11 226.04"/>
<path d="M230.28 236.88L230.28 226.04"/>
<path d="M221.76 236.88L230.28 236.88"/>
<path d="M221.76 241.58L221.76 236.88"/>
<path d="M212.11 241.58L221.76 241.58"/>
<path d="M212.11 236.88L212.11 241.58"/>
<path d="M203.24 236.88L212.11 236.88"/>
<path d="M203.24 226.04L203.24 236.88"/>
<path d="M211.72 190.29L211.64 201.09"/>
<path d="M220.85 190.05L220.78 201.16"/>
<path d="M229.99 190.05L229.91 201.22"/>
<path d="M220.85 190.05L229.99 190.05"/>
<path d="M220.85 185.93L220.85 190.05"/>
<path d="M211.72 185.93L220.85 185.93"/>
<path d="M211.72 190.29L211.72 185.93"/>
<path d="M202.69 190.29L211.72 190.29"/>
<path d="M202.69 200.97L202.69 190.29"/>
<path d="M199.53 218.01L193.58 226.04"/>
<path d="M233.29 218.01L239.72 226.04"/>
<path d="M233.29 208.84L239.72 201.29"/>
<path d="M199.53 208.84L193.76 200.97"/>
<path d="M199.53 218.01L199.53 208.84"/>
<path d="M233.29 208.84L199.53 208.84"/>
<path d="M233.29 218.01L233.29 208.84"/>
<path d="M199.53 218.01L233.29 218.01"/>
<path d="M193.58 226.04L193.76 200.97"/>
<path d="M239.72 226.04L193.58 226.04"/>
<path d="M239.72 201.29L239.72 226.04"/>
<path d="M193.58 200.97L239.72 201.29"/>
<path d="M193.76 200.97L239.72 201.29"/>
<path d="M221.76 236.88L221.76 226.04"/>
<path d="M212.11 236.88L212.11 226.04"/>
<path d="M230.28 236.88L230.28 226.04"/>
<path d="M221.76 236.88L230.28 236.88"/>
<path d="M221.76 241.58L221.76 236.88"/>
<path d="M212.11 241.58L221.76 241.58"/>
<path d="M212.11 236.88L212.11 241.58"/>
<path d="M203.24 236.88L212.11 236.88"/>
<path d="M203.24 226.04L203.24 236.88"/>
<path d="M211.72 190.29L211.64 201.09"/>
<path d="M220.85 190.05L220.78 201.16"/>
<path d="M229.99 190.05L229.91 201.22"/>
<path d="M220.85 190.05L229.99 190.05"/>
<path d="M220.85 185.93L220.85 190.05"/>
<path d="M211.72 185.93L220.85 185.93"/>
<path d="M211.72 190.29L211.72 185.93"/>
<path d="M202.69 190.29L211.72 190.29"/>
<path d="M202.69 200.97L202.69 190.29"/>
<path d="M199.53 218.01L193.58 226.04"/>
<path d="M233.29 218.01L239.72 226.04"/>
<path d="M233.29 208.84L239.72 201.29"/>
<path d="M199.53 208.84L193.76 200.97"/>
<path d="M199.53 218.01L199.53 208.84"/>
<path d="M233.29 208.84L199.53 208.84"/>
<path d="M233.29 218.01L233.29 208.84"/>
<path d="M199.53 218.01L233.29 218.01"/>
<path d="M193.58 226.04L193.76 200.97"/>
<path d="M239.72 226.04L193.58 226.04"/>
<path d="M239.72 201.29L239.72 226.04"/>
<path d="M193.58 200.97L239.72 201.29"/>
<path d="M193.76 200.97L239.72 201.29"/>
<path d="M221.76 236.88L221.76 226.04"/>
<path d="M212.11 236.88L212.11 226.04"/>
<path d="M230.28 236.88L230.28 226.04"/>
<path d="M221.76 236.88L230.28 236.88"/>
<path d="M221.76 241.58L221.76 236.88"/>
<path d="M212.11 241.58L221.76 241.58"/>
<path d="M212.11 236.88L212.11 241.58"/>
<path d="M203.24 236.88L212.11 236.88"/>
<path d="M203.24 226.04L203.24 236.88"/>
<path d="M211.72 190.29L211.64 201.09"/>
<path d="M220.85 190.05L220.78 201.16"/>
<path d="M229.99 190.05L229.91 201.22"/>
<path d="M220.85 190.05L229.99 190.05"/>
<path d="M220.85 185.93L220.85 190.05"/>
<path d="M211.72 185.93L220.85 185.93"/>
<path d="M211.72 190.29L211.72 185.93"/>
<path d="M202.69 190.29L211.72 190.29"/>
<path d="M202.69 200.97L202.69 190.29"/>
<path d="M199.53 218.01L193.58 226.04"/>
<path d="M233.29 218.01L239.72 226.04"/>
<path d="M233.29 208.84L239.72 201.29"/>
<path d="M199.53 208.84L193.76 200.97"/>
<path d="M199.53 218.01L199.53 208.84"/>
<path d="M233.29 208.84L199.53 208.84"/>
<path d="M233.29 218.01L233.29 208.84"/>
<path d="M199.53 218.01L233.29 218.01"/>
<path d="M193.58 226.04L193.76 200.97"/>
<path d="M239.72 226.04L193.58 226.04"/>
<path d="M239.72 201.29L239.72 226.04"/>
<path d="M193.58 200.97L239.72 201.29"/>
<path d="M193.76 200.97L239.72 201.29"/>
<path d="M221.76 236.88L221.76 226.04"/>
<path d="M212.11 236.88L212.11 226.04"/>
<path d="M230.28 236.88L230.28 226.04"/>
<path d="M221.76 236.88L230.28 236.88"/>
<path d="M221.76 241.58L221.76 236.88"/>
<path d="M212.11 241.58L221.76 241.58"/>
<path d="M212.11 236.88L212.11 241.58"/>
<path d="M203.24 236.88L212.11 236.88"/>
<path d="M203.24 226.04L203.24 236.88"/>
<path d="M211.72 190.29L211.64 201.09"/>
<path d="M220.85 190.05L220.78 201.16"/>
<path d="M229.99 190.05L229.91 201.22"/>
<path d="M220.85 190.05L229.99 190.05"/>
<path d="M220.85 185.93L220.85 190.05"/>
<path d="M211.72 185.93L220.85 185.93"/>
<path d="M211.72 190.29L211.72 185.93"/>
<path d="M202.69 190.29L211.72 190.29"/>
<path d="M202.69 200.97L202.69 190.29"/>
<path d="M199.53 218.01L193.58 226.04"/>
<path d="M233.29 218.01L239.72 226.04"/>
<path d="M233.29 208.84L239.72 201.29"/>
<path d="M199.53 208.84L193.76 200.97"/>
<path d="M199.53 218.01L199.53 208.84"/>
<path d="M233.29 208.84L199.53 208.84"/>
<path d="M233.29 218.01L233.29 208.84"/>
<path d="M199.53 218.01L233.29 218.01"/>
<path d="M193.58 226.04L193.76 200.97"/>
<path d="M239.72 226.04L193.58 226.04"/>
<path d="M239.72 201.29L239.72 226.04"/>
<path d="M193.58 200.97L239.72 201.29"/>
<path d="M244.78 200.67L290.74 200.99"/>
<path d="M272.78 236.58L272.78 225.74"/>
<path d="M263.14 236.58L263.14 225.74"/>
<path d="M281.3 236.58L281.3 225.74"/>
<path d="M272.78 236.58L281.3 236.58"/>
<path d="M272.78 241.28L272.78 236.58"/>
<path d="M263.14 241.28L272.78 241.28"/>
<path d="M263.14 236.58L263.14 241.28"/>
<path d="M254.27 236.58L263.14 236.58"/>
<path d="M254.27 225.74L254.27 236.58"/>
<path d="M262.74 189.99L262.67 200.79"/>
<path d="M271.88 189.74L271.8 200.86"/>
<path d="M281.02 189.74L280.94 200.92"/>
<path d="M271.88 189.74L281.02 189.74"/>
<path d="M271.88 185.63L271.88 189.74"/>
<path d="M262.74 185.63L271.88 185.63"/>
<path d="M262.74 189.99L262.74 185.63"/>
<path d="M253.71 189.99L262.74 189.99"/>
<path d="M253.71 200.67L253.71 189.99"/>
<path d="M250.56 217.71L244.61 225.74"/>
<path d="M284.31 217.71L290.74 225.74"/>
<path d="M284.31 208.54L290.74 200.99"/>
<path d="M250.56 208.54L244.78 200.67"/>
<path d="M250.56 217.71L250.56 208.54"/>
<path d="M284.31 208.54L250.56 208.54"/>
<path d="M284.31 217.71L284.31 208.54"/>
<path d="M250.56 217.71L284.31 217.71"/>
<path d="M244.61 225.74L244.78 200.67"/>
<path d="M290.74 225.74L244.61 225.74"/>
<path d="M290.74 200.99L290.74 225.74"/>
<path d="M244.61 200.67L290.74 200.99"/>
<path d="M297.51 200.99L343.47 201.31"/>
<path d="M325.51 236.9L325.51 226.07"/>
<path d="M315.86 236.9L315.86 226.07"/>
<path d="M334.03 236.9L334.03 226.07"/>
<path d="M325.51 236.9L334.03 236.9"/>
<path d="M325.51 241.6L325.51 236.9"/>
<path d="M315.86 241.6L325.51 241.6"/>
<path d="M315.86 236.9L315.86 241.6"/>
<path d="M306.99 236.9L315.86 236.9"/>
<path d="M306.99 226.07L306.99 236.9"/>
<path d="M315.47 190.31L315.39 201.11"/>
<path d="M324.61 190.07L324.53 201.18"/>
<path d="M333.74 190.07L333.66 201.24"/>
<path d="M324.61 190.07L333.74 190.07"/>
<path d="M324.61 185.95L324.61 190.07"/>
<path d="M315.47 185.95L324.61 185.95"/>
<path d="M315.47 190.31L315.47 185.95"/>
<path d="M306.44 190.31L315.47 190.31"/>
<path d="M306.44 200.99L306.44 190.31"/>
<path d="M303.28 218.03L297.33 226.07"/>
<path d="M337.04 218.03L343.47 226.07"/>
<path d="M337.04 208.87L343.47 201.31"/>
<path d="M303.28 208.87L297.51 200.99"/>
<path d="M303.28 218.03L303.28 208.87"/>
<path d="M337.04 208.87L303.28 208.87"/>
<path d="M337.04 218.03L337.04 208.87"/>
<path d="M303.28 218.03L337.04 218.03"/>
<path d="M297.33 226.07L297.51 200.99"/>
<path d="M343.47 226.07L297.33 226.07"/>
<path d="M343.47 201.31L343.47 226.07"/>
<path d="M297.33 200.99L343.47 201.31"/>
<path d="M348.38 201L394.34 201.32"/>
<path d="M376.38 236.91L376.38 226.07"/>
<path d="M366.73 236.91L366.73 226.07"/>
<path d="M384.9 236.91L384.9 226.07"/>
<path d="M376.38 236.91L384.9 236.91"/>
<path d="M376.38 241.61L376.38 236.91"/>
<path d="M366.73 241.61L376.38 241.61"/>
<path d="M366.73 236.91L366.73 241.61"/>
<path d="M357.86 236.91L366.73 236.91"/>
<path d="M357.86 226.07L357.86 236.91"/>
<path d="M366.34 190.32L366.26 201.12"/>
<path d="M375.47 190.08L375.4 201.19"/>
<path d="M384.61 190.08L384.53 201.25"/>
<path d="M375.47 190.08L384.61 190.08"/>
<path d="M375.47 185.96L375.47 190.08"/>
<path d="M366.34 185.96L375.47 185.96"/>
<path d="M366.34 190.32L366.34 185.96"/>
<path d="M357.31 190.32L366.34 190.32"/>
<path d="M357.31 201L357.31 190.32"/>
<path d="M354.15 218.04L348.2 226.07"/>
<path d="M387.91 218.04L394.34 226.07"/>
<path d="M387.91 208.87L394.34 201.32"/>
<path d="M354.15 208.87L348.38 201"/>
<path d="M354.15 218.04L354.15 208.87"/>
<path d="M387.91 208.87L354.15 208.87"/>
<path d="M387.91 218.04L387.91 208.87"/>
<path d="M354.15 218.04L387.91 218.04"/>
<path d="M348.2 226.07L348.38 201"/>
<path d="M394.34 226.07L348.2 226.07"/>
<path d="M394.34 201.32L394.34 226.07"/>
<path d="M348.2 201L394.34 201.32"/>
<path d="M400.42 201L446.38 201.32"/>
<path d="M428.42 236.91L428.42 226.07"/>
<path d="M418.78 236.91L418.78 226.07"/>
<path d="M436.94 236.91L436.94 226.07"/>
<path d="M428.42 236.91L436.94 236.91"/>
<path d="M428.42 241.61L428.42 236.91"/>
<path d="M418.78 241.61L428.42 241.61"/>
<path d="M418.78 236.91L418.78 241.61"/>
<path d="M409.9 236.91L418.78 236.91"/>
<path d="M409.9 226.07L409.9 236.91"/>
<path d="M418.38 190.32L418.31 201.12"/>
<path d="M427.52 190.08L427.44 201.19"/>
<path d="M436.65 190.08L436.57 201.25"/>
<path d="M427.52 190.08L436.65 190.08"/>
<path d="M427.52 185.96L427.52 190.08"/>
<path d="M418.38 185.96L427.52 185.96"/>
<path d="M418.38 190.32L418.38 185.96"/>
<path d="M409.35 190.32L418.38 190.32"/>
<path d="M409.35 201L409.35 190.32"/>
<path d="M406.19 218.04L400.24 226.07"/>
<path d="M439.95 218.04L446.38 226.07"/>
<path d="M439.95 208.87L446.38 201.32"/>
<path d="M406.19 208.87L400.42 201"/>
<path d="M406.19 218.04L406.19 208.87"/>
<path d="M439.95 208.87L406.19 208.87"/>
<path d="M439.95 218.04L439.95 208.87"/>
<path d="M406.19 218.04L439.95 218.04"/>
<path d="M400.24 226.07L400.42 201"/>
<path d="M446.38 226.07L400.24 226.07"/>
<path d="M446.38 201.32L446.38 226.07"/>
<path d="M400.24 201L446.38 201.32"/>
</g>
</g>
</svg>
