<?xml version="1.0" standalone="no"?><svg xmlns="http://www.w3.org/2000/svg" width="600.000" height="450.000" viewBox="0.0 0.0 600.000 450.000" version="1.1">
<title>Acme Converter - Post-processed with EDS-Designer: 14.44 (info@symca.com)</title>
<desc>Acme Converter - Post-processed with EDS-Designer: 14.44 (info@symca.com)</desc>
<g id="EDS_STYLE_GROUP" fill="none" stroke="black" stroke-width="1.0">
<g id="0" display="visible">
<path d="M177.57 413.65L177.57 358.64M180.19 358.64L180.19 413.65M169.71 358.64L201.14 358.64M201.14 358.64L209 361.26M209 361.26L211.62 363.88M211.62 363.88L214.24 369.12M214.24 369.12L214.24 374.36M214.24 374.36L211.62 379.6M211.62 379.6L209 382.22M209 382.22L201.14 384.84M201.14 358.64L206.38 361.26M206.38 361.26L209 363.88M209 363.88L211.62 369.12M211.62 369.12L211.62 374.36M211.62 374.36L209 379.6M209 379.6L206.38 382.22M206.38 382.22L201.14 384.84M180.19 384.84L201.14 384.84M201.14 384.84L209 387.46M209 387.46L211.62 390.08M211.62 390.08L214.24 395.32M214.24 395.32L214.24 403.17M214.24 403.17L211.62 408.41M211.62 408.41L209 411.03M209 411.03L201.14 413.65M201.14 413.65L169.71 413.65M201.14 384.84L206.38 387.46M206.38 387.46L209 390.08M209 390.08L211.62 395.32M211.62 395.32L211.62 403.17M211.62 403.17L209 408.41M209 408.41L206.38 411.03M206.38 411.03L201.14 413.65M235.19 413.65L235.19 358.64M237.81 358.64L237.81 413.65M227.33 358.64L245.67 358.64M227.33 413.65L266.63 413.65M266.63 413.65L266.63 397.94M266.63 397.94L264.01 413.65M298.06 358.64L279.72 413.65M298.06 358.64L316.39 413.65M298.06 366.5L313.77 413.65M284.96 397.94L308.54 397.94M274.48 413.65L290.2 413.65M305.92 413.65L321.63 413.65M366.16 366.5L368.78 374.36M368.78 374.36L368.78 358.64M368.78 358.64L366.16 366.5M366.16 366.5L360.92 361.26M360.92 361.26L353.07 358.64M353.07 358.64L347.83 358.64M347.83 358.64L339.97 361.26M339.97 361.26L334.73 366.5M334.73 366.5L332.11 371.74M332.11 371.74L329.49 379.6M329.49 379.6L329.49 392.7M329.49 392.7L332.11 400.55M332.11 400.55L334.73 405.79M334.73 405.79L339.97 411.03M339.97 411.03L347.83 413.65M347.83 413.65L353.07 413.65M353.07 413.65L360.92 411.03M360.92 411.03L366.16 405.79M366.16 405.79L368.78 400.55M347.83 358.64L342.59 361.26M342.59 361.26L337.35 366.5M337.35 366.5L334.73 371.74M334.73 371.74L332.11 379.6M332.11 379.6L332.11 392.7M332.11 392.7L334.73 400.55M334.73 400.55L337.35 405.79M337.35 405.79L342.59 411.03M342.59 411.03L347.83 413.65M392.36 413.65L392.36 358.64M394.98 358.64L394.98 413.65M429.03 358.64L394.98 392.7M408.07 382.22L429.03 413.65M405.45 382.22L426.41 413.65M384.5 358.64L402.83 358.64M418.55 358.64L434.27 358.64M384.5 413.65L402.83 413.65M418.55 413.65L434.27 413.65"/>
<path d="M435.01 202.67L442.35 195.33M442.35 195.33L457.02 195.33M457.02 195.33L464.35 202.67M464.35 202.67L464.35 210M464.35 210L457.02 217.34M457.02 217.34L442.35 217.34M442.35 217.34L435.01 224.67M435.01 224.67L435.01 239.34M435.01 239.34L464.35 239.34"/>
<path d="M222.78 272.83L252.48 272.83M264.36 272.83L266.34 272.83M278.22 272.83L325.75 272.83M337.63 272.83L339.61 272.83M351.49 272.83L381.2 272.83"/>
<path d="M373.5 280.53L373.5 283.01M373.5 284L373.5 284.17M373.5 285.16L373.5 289.12M373.5 290.11L373.5 290.28M373.5 291.27L373.5 293.75"/>
<path d="M230.48 280.53L230.48 283.01M230.48 284L230.48 284.17M230.48 285.16L230.48 289.12M230.48 290.11L230.48 290.28M230.48 291.27L230.48 293.75"/>
<path d="M216.18 292.64L248.36 292.64M261.23 292.64L263.37 292.64M276.24 292.64L327.73 292.64M340.6 292.64L342.75 292.64M355.62 292.64L387.8 292.64"/>
<path d="M401 289.77L401 251.65M401 236.41L401 233.87M401 218.62L401 157.63M401 142.38L401 139.84M401 124.59L401 86.47"/>
<path d="M223.88 277.23L226.35 277.23M227.34 277.23L227.51 277.23M228.5 277.23L232.46 277.23M233.45 277.23L233.61 277.23M234.6 277.23L237.08 277.23"/>
<path d="M187.79 45.1L197.2 45.1M200.96 45.1L201.59 45.1M205.35 45.1L220.4 45.1M224.16 45.1L224.79 45.1M228.55 45.1L237.96 45.1"/>
<path d="M373.28 72.61L366.34 72.61M363.57 72.61L363.11 72.61M360.34 72.61L349.24 72.61M346.47 72.61L346.01 72.61M343.23 72.61L336.3 72.61"/>
<path d="M211.78 106.49L211.78 99.56M211.78 96.79L211.78 96.33M211.78 93.55L211.78 82.46M211.78 79.69L211.78 79.23M211.78 76.46L211.78 69.53"/>
<path d="M269.86 103.41L257.98 103.41M253.23 103.41L252.44 103.41M247.68 103.41L228.67 103.41M223.92 103.41L223.13 103.41M218.38 103.41L206.49 103.41"/>
<path d="M376.8 244.23L381.75 244.23M383.73 244.23L384.06 244.23M386.04 244.23L393.96 244.23M395.94 244.23L396.27 244.23M398.25 244.23L403.2 244.23"/>
<path d="M224.98 240.93L224.98 248.36M224.98 251.33L224.98 251.82M224.98 254.79L224.98 266.68M224.98 269.65L224.98 270.15M224.98 273.12L224.98 280.55"/>
<path d="M235.98 279.87L235.98 273.93M235.98 271.56L235.98 271.16M235.98 268.78L235.98 259.28M235.98 256.9L235.98 256.51M235.98 254.13L235.98 248.19"/>
<path d="M335.32 250.83L342.01 250.83M344.68 250.83L345.12 250.83M347.8 250.83L358.49 250.83M361.16 250.83L361.61 250.83M364.28 250.83L370.97 250.83"/>
<path d="M265.68 248.63L265.68 253.58M265.68 255.56L265.68 255.89M265.68 257.87L265.68 265.8M265.68 267.78L265.68 268.11M265.68 270.09L265.68 275.05"/>
<path d="M338.29 275.03L338.29 270.08M338.29 268.1L338.29 267.77M338.29 265.79L338.29 257.87M338.29 255.89L338.29 255.56M338.29 253.58L338.29 248.63"/>
<path d="M368 248.19L368 254.13M368 256.51L368 256.91M368 259.28L368 268.79M368 271.17L368 271.57M368 273.94L368 279.89"/>
<path d="M379 280.53L379 273.11M379 270.14L379 269.64M379 266.67L379 254.79M379 251.82L379 251.32M379 248.35L379 240.93"/>
<path d="M370.2 106.49L370.2 99.56M370.2 96.79L370.2 96.33M370.2 93.55L370.2 82.46M370.2 79.69L370.2 79.23M370.2 76.46L370.2 69.53"/>
<path d="M339.39 55.66L339.39 59.13M339.39 60.52L339.39 60.75M339.39 62.14L339.39 67.68M339.39 69.07L339.39 69.3M339.39 70.69L339.39 74.16"/>
<path d="M246.54 66L267.33 66M275.65 66L277.04 66M285.35 66L318.62 66M326.94 66L328.33 66M336.64 66L357.43 66"/>
<path d="M264.58 108.03L264.58 97.63M264.58 93.48L264.58 92.78M264.58 88.62L264.58 71.99M264.58 67.83L264.58 67.14M264.58 62.98L264.58 52.58"/>
<path d="M394.4 41.27L394.4 44.94M394.4 46.4L394.4 46.65M394.4 48.12L394.4 53.98M394.4 55.45L394.4 55.69M394.4 57.16L394.4 60.82"/>
<path d="M228.28 272.83L220.85 272.83M217.88 272.83L217.38 272.83M214.41 272.83L202.53 272.83M199.56 272.83L199.06 272.83M196.09 272.83L188.66 272.83"/>
<path d="M415.3 272.83L407.88 272.83M404.91 272.83L404.41 272.83M401.44 272.83L389.56 272.83M386.59 272.83L386.09 272.83M383.12 272.83L375.7 272.83"/>
<path d="M366.9 277.23L369.37 277.23M370.36 277.23L370.53 277.23M371.52 277.23L375.48 277.23M376.47 277.23L376.63 277.23M377.62 277.23L380.1 277.23"/>
<path d="M212.66 72.61L210.67 72.61M209.88 72.61L209.75 72.61M208.96 72.61L205.78 72.61M204.99 72.61L204.86 72.61M204.06 72.61L202.08 72.61"/>
<path d="M404.08 103.41L397.15 103.41M394.38 103.41L393.92 103.41M391.14 103.41L380.05 103.41M377.28 103.41L376.82 103.41M374.05 103.41L367.12 103.41"/>
<path d="M200.77 244.23L205.72 244.23M207.7 244.23L208.03 244.23M210.02 244.23L217.94 244.23M219.92 244.23L220.25 244.23M222.23 244.23L227.18 244.23"/>
<path d="M233.01 250.83L239.69 250.83M242.37 250.83L242.81 250.83M245.48 250.83L256.18 250.83M258.85 250.83L259.3 250.83M261.97 250.83L268.65 250.83"/>
<path d="M202.97 281.63L191.97 281.63"/>
<path d="M412 281.63L401 281.63"/>
<path d="M401 281.63L405.4 280.45M405.4 280.45L408.62 277.23M408.62 277.23L409.8 272.83"/>
<path d="M194.17 272.83L195.35 277.23M195.35 277.23L198.57 280.45M198.57 280.45L202.97 281.63"/>
<path d="M191.97 272.83L194.17 272.83"/>
<path d="M191.97 272.83L191.97 281.63"/>
<path d="M183.17 272.83L184.35 277.23M184.35 277.23L187.57 280.45M187.57 280.45L191.97 281.63"/>
<path d="M412 281.63L416.4 280.45M416.4 280.45L419.62 277.23M419.62 277.23L420.8 272.83"/>
<path d="M412 281.63L412 272.83"/>
<path d="M409.8 272.83L412 272.83"/>
<path d="M230.48 281.63L230.48 292.64"/>
<path d="M230.48 292.64L373.5 292.64"/>
<path d="M373.5 292.64L373.5 281.63"/>
<path d="M373.5 292.64L384.5 292.64"/>
<path d="M384.5 292.64L384.5 281.63"/>
<path d="M219.48 281.63L219.48 292.64"/>
<path d="M219.48 292.64L230.48 292.64"/>
<path d="M409.8 103.41L409.8 244.23"/>
<path d="M409.8 244.23L409.8 272.83"/>
<path d="M401 272.83L409.8 272.83"/>
<path d="M401 281.63L401 272.83"/>
<path d="M401 281.63L379 281.63"/>
<path d="M379 281.63L368 281.63"/>
<path d="M368 281.63L338.29 281.63"/>
<path d="M338.29 281.63L265.68 281.63"/>
<path d="M265.68 281.63L235.98 281.63"/>
<path d="M235.98 281.63L224.98 281.63"/>
<path d="M224.98 281.63L202.97 281.63"/>
<path d="M202.97 272.83L202.97 281.63"/>
<path d="M194.17 272.83L202.97 272.83"/>
<path d="M194.17 244.23L194.17 72.61"/>
<path d="M194.17 272.83L194.17 244.23"/>
<path d="M191.97 45.1L191.97 272.83"/>
<path d="M233.78 94.61L233.78 45.1"/>
<path d="M233.78 45.1L191.97 45.1"/>
<path d="M183.17 272.83L191.97 272.83"/>
<path d="M183.17 272.83L183.17 45.1"/>
<path d="M412 272.83L420.8 272.83"/>
<path d="M420.8 100.95L420.8 272.83"/>
<path d="M420.8 94.61L420.8 100.95"/>
<path d="M412 272.83L412 94.61"/>
<path d="M412 94.61L401 94.61"/>
<path d="M373.5 292.64L373.5 303.64"/>
<path d="M230.48 303.64L230.48 292.64"/>
<path d="M230.48 303.64L373.5 303.64"/>
<path d="M373.5 303.64L379 302.16M379 302.16L383.02 298.14M383.02 298.14L384.5 292.64"/>
<path d="M219.48 292.64L220.95 298.14M220.95 298.14L224.98 302.16M224.98 302.16L230.48 303.64"/>
<path d="M409.8 103.41L408.62 99.01M408.62 99.01L405.4 95.79M405.4 95.79L401 94.61"/>
<path d="M401 103.41L409.8 103.41"/>
<path d="M401 244.23L401 103.41"/>
<path d="M401 244.23L409.8 244.23"/>
<path d="M401 253.03L405.4 251.85M405.4 251.85L408.62 248.63M408.62 248.63L409.8 244.23"/>
<path d="M401 272.83L401 253.03"/>
<path d="M383.4 272.83L401 272.83"/>
<path d="M379 281.63L381.2 281.04M381.2 281.04L382.81 279.43M382.81 279.43L383.4 277.23"/>
<path d="M368 277.23L379 277.23"/>
<path d="M368 281.63L368 277.23"/>
<path d="M379 281.63L379 277.23"/>
<path d="M360.81 277.92L363.95 280.65M363.95 280.65L368 281.63"/>
<path d="M347.09 272.83L359.2 272.83"/>
<path d="M338.29 281.63L342.69 280.45M342.69 280.45L345.91 277.23M345.91 277.23L347.09 272.83"/>
<path d="M338.29 281.63L338.29 272.83"/>
<path d="M265.68 272.83L338.29 272.83"/>
<path d="M265.68 281.63L265.68 272.83"/>
<path d="M256.88 272.83L258.06 277.23M258.06 277.23L261.28 280.45M261.28 280.45L265.68 281.63"/>
<path d="M244.78 272.83L256.88 272.83"/>
<path d="M235.98 281.63L240.02 280.65M240.02 280.65L243.16 277.92"/>
<path d="M235.98 277.23L235.98 281.63"/>
<path d="M224.98 277.23L235.98 277.23"/>
<path d="M224.98 277.23L224.98 281.63"/>
<path d="M220.58 277.23L221.87 280.34M221.87 280.34L224.98 281.63"/>
<path d="M202.97 272.83L220.58 272.83"/>
<path d="M202.97 253.03L202.97 272.83"/>
<path d="M194.17 244.23L195.35 248.63M195.35 248.63L198.57 251.85M198.57 251.85L202.97 253.03"/>
<path d="M194.17 244.23L202.97 244.23"/>
<path d="M202.97 72.61L202.97 244.23"/>
<path d="M202.97 72.61L194.17 72.61"/>
<path d="M202.97 63.8L198.57 64.98M198.57 64.98L195.35 68.21M195.35 68.21L194.17 72.61"/>
<path d="M191.97 45.1L183.17 45.1"/>
<path d="M202.97 63.8L211.78 63.8"/>
<path d="M220.58 72.61L219.4 68.21M219.4 68.21L216.18 64.98M216.18 64.98L211.78 63.8"/>
<path d="M220.58 72.61L220.58 94.61"/>
<path d="M379 94.61L401 94.61"/>
<path d="M220.58 94.61L255.78 94.61"/>
<path d="M233.78 45.1L232.6 40.7M232.6 40.7L229.38 37.48M229.38 37.48L224.98 36.3"/>
<path d="M191.97 36.3L224.98 36.3"/>
<path d="M191.97 36.3L191.97 45.1"/>
<path d="M191.97 36.3L187.57 37.48M187.57 37.48L184.35 40.7M184.35 40.7L183.17 45.1"/>
<path d="M420.8 100.95L420.2 98.64M420.2 98.64L418.37 96.57M418.37 96.57L415.41 95.1M415.41 95.1L412 94.61"/>
<path d="M420.8 94.61L419.62 90.21M419.62 90.21L416.4 86.99M416.4 86.99L412 85.81"/>
<path d="M412 94.61L412 85.81"/>
<path d="M233.78 85.81L255.78 85.81"/>
<path d="M379 85.81L412 85.81"/>
<path d="M401 103.41L401 94.61"/>
<path d="M202.97 244.23L224.98 244.23"/>
<path d="M224.98 244.23L224.98 277.23"/>
<path d="M235.98 277.23L235.98 250.83"/>
<path d="M235.98 250.83L265.68 250.83"/>
<path d="M265.68 250.83L265.68 272.83"/>
<path d="M338.29 272.83L338.29 250.83"/>
<path d="M338.29 250.83L368 250.83"/>
<path d="M368 250.83L368 277.23"/>
<path d="M379 277.23L379 244.23"/>
<path d="M379 244.23L401 244.23"/>
<path d="M401 103.41L370.2 103.41"/>
<path d="M370.2 103.41L370.2 72.61"/>
<path d="M370.2 72.61L339.39 72.61"/>
<path d="M339.39 72.61L339.39 66"/>
<path d="M339.39 66L264.58 66"/>
<path d="M264.58 66L264.58 103.41"/>
<path d="M264.58 103.41L211.78 103.41"/>
<path d="M211.78 103.41L211.78 72.61"/>
<path d="M211.78 72.61L202.97 72.61"/>
<path d="M370.2 107.81L370.2 239.83"/>
<path d="M370.2 239.83L233.78 239.83"/>
<path d="M233.78 239.83L233.78 107.81"/>
<path d="M233.78 107.81L370.2 107.81"/>
<path d="M401 244.23L401 253.03"/>
<path d="M401 253.03L383.4 253.03"/>
<path d="M383.4 251.85L383.4 277.23"/>
<path d="M379 277.23L383.4 277.23"/>
<path d="M368 277.23L362.64 276.33M362.64 276.33L359.9 274.54M359.9 274.54L359.28 273.43M359.28 273.43L359.2 272.83"/>
<path d="M359.2 272.83L359.2 259.63"/>
<path d="M347.09 272.83L338.29 272.83"/>
<path d="M347.09 259.63L347.09 272.83"/>
<path d="M256.88 272.83L265.68 272.83"/>
<path d="M256.88 272.83L256.88 259.63"/>
<path d="M235.98 277.23L241.33 276.33M241.33 276.33L244.07 274.54M244.07 274.54L244.69 273.43M244.69 273.43L244.78 272.83"/>
<path d="M244.78 259.63L244.78 272.83"/>
<path d="M220.58 277.23L224.98 277.23"/>
<path d="M220.58 277.23L220.58 251.85"/>
<path d="M202.97 244.23L202.97 253.03"/>
<path d="M220.58 253.03L202.97 253.03"/>
<path d="M202.97 72.61L202.97 63.8"/>
<path d="M211.78 72.61L211.78 63.8"/>
<path d="M211.78 72.61L220.58 72.61"/>
<path d="M220.58 94.61L211.78 103.41"/>
<path d="M379 72.61L379 94.61"/>
<path d="M370.2 103.41L379 94.61"/>
<path d="M255.78 94.61L264.58 103.41"/>
<path d="M255.78 94.61L255.78 57.2"/>
<path d="M255.78 52.8L255.78 57.2"/>
<path d="M255.78 36.3L255.78 52.8"/>
<path d="M348.19 57.2L348.19 63.8"/>
<path d="M348.19 36.3L348.19 52.8"/>
<path d="M348.19 52.8L348.19 57.2"/>
<path d="M246.98 85.81L246.98 80.31"/>
<path d="M246.98 80.31L246.98 62.7"/>
<path d="M246.98 62.7L246.98 42.9"/>
<path d="M246.98 36.3L246.98 42.9"/>
<path d="M224.98 244.23L222 248.58M222 248.58L220.89 250.67M220.89 250.67L220.58 251.85"/>
<path d="M235.98 250.83L244.78 259.63"/>
<path d="M256.88 259.63L244.78 259.63"/>
<path d="M265.68 250.83L256.88 259.63"/>
<path d="M338.29 250.83L347.09 259.63"/>
<path d="M359.2 259.63L347.09 259.63"/>
<path d="M368 250.83L359.2 259.63"/>
<path d="M383.4 251.85L383.25 251.06M383.25 251.06L382.34 249.21M382.34 249.21L379 244.23"/>
<path d="M370.2 72.61L379 72.61"/>
<path d="M348.19 63.8L339.39 72.61"/>
<path d="M370.2 72.61L370.2 63.8"/>
<path d="M348.19 63.8L370.2 63.8"/>
<path d="M348.19 57.2L339.39 66"/>
<path d="M255.78 57.2L264.58 66"/>
<path d="M255.78 57.2L348.19 57.2"/>
<path d="M370.2 107.81L363.6 114.41"/>
<path d="M363.6 233.23L363.6 114.41"/>
<path d="M370.2 239.83L363.6 233.23"/>
<path d="M240.38 233.23L363.6 233.23"/>
<path d="M233.78 239.83L240.38 233.23"/>
<path d="M240.38 114.41L240.38 233.23"/>
<path d="M233.78 107.81L240.38 114.41"/>
<path d="M363.6 114.41L240.38 114.41"/>
<path d="M379 72.61L377.82 68.21M377.82 68.21L374.6 64.98M374.6 64.98L370.2 63.8"/>
<path d="M348.19 52.8L255.78 52.8"/>
<path d="M348.19 36.3L255.78 36.3"/>
<path d="M348.19 62.7L368 62.7"/>
<path d="M368 62.7L394.4 59.18"/>
<path d="M394.4 59.18L394.4 42.9"/>
<path d="M394.4 42.9L348.19 42.9"/>
<path d="M255.78 42.9L246.98 42.9"/>
<path d="M246.98 62.7L255.78 62.7"/>
<path d="M255.78 80.31L246.98 80.31"/>
<path d="M367.46 62.78L362.42 63.8"/>
<path d="M367.46 62.78L368 62.7"/>
<path d="M394.4 42.9L394.4 36.3"/>
<path d="M246.98 36.3L255.78 36.3"/>
<path d="M348.19 36.3L394.4 36.3"/>
<path d="M394.4 59.18L401 58.3"/>
<path d="M401 42.9L401 58.3"/>
<path d="M394.4 42.9L401 42.9"/>
<path d="M401 42.9L400.12 39.6M400.12 39.6L397.7 37.19M397.7 37.19L394.4 36.3"/>
<path d="M348.19 149.62L348.19 188.12"/>
<path d="M339.39 196.92L343.79 195.74M343.79 195.74L347.01 192.52M347.01 192.52L348.19 188.12"/>
<path d="M339.39 196.92L307.49 196.92"/>
<path d="M296.49 196.92L264.58 196.92"/>
<path d="M255.78 188.12L256.96 192.52M256.96 192.52L260.18 195.74M260.18 195.74L264.58 196.92"/>
<path d="M255.78 188.12L255.78 149.62"/>
<path d="M264.58 140.82L260.18 141.99M260.18 141.99L256.96 145.22M256.96 145.22L255.78 149.62"/>
<path d="M264.58 140.82L296.49 140.82"/>
<path d="M307.49 140.82L339.39 140.82"/>
<path d="M348.19 149.62L347.01 145.22M347.01 145.22L343.79 141.99M343.79 141.99L339.39 140.82"/>
<path d="M343.79 188.12L348.19 188.12"/>
<path d="M343.79 149.62L348.19 149.62"/>
<path d="M339.39 194.72L339.39 196.92"/>
<path d="M307.49 196.92L307.49 192.52"/>
<path d="M307.49 192.52L307.49 184.82"/>
<path d="M307.49 187.02L306.84 185.47M306.84 185.47L305.29 184.82"/>
<path d="M305.29 184.82L298.69 184.82"/>
<path d="M298.69 184.82L297.59 185.12M297.59 185.12L296.78 185.92M296.78 185.92L296.49 187.02"/>
<path d="M296.49 184.82L296.49 192.52"/>
<path d="M296.49 192.52L296.49 196.92"/>
<path d="M264.58 194.72L264.58 196.92"/>
<path d="M260.18 188.12L255.78 188.12"/>
<path d="M260.18 149.62L255.78 149.62"/>
<path d="M264.58 143.02L264.58 140.82"/>
<path d="M296.49 140.82L296.49 145.22"/>
<path d="M296.49 145.22L296.49 152.92"/>
<path d="M296.49 150.72L296.78 151.82M296.78 151.82L297.59 152.62M297.59 152.62L298.69 152.92"/>
<path d="M305.29 152.92L298.69 152.92"/>
<path d="M305.29 152.92L306.84 152.27M306.84 152.27L307.49 150.72"/>
<path d="M307.49 152.92L307.49 145.22"/>
<path d="M307.49 145.22L307.49 140.82"/>
<path d="M339.39 143.02L339.39 140.82"/>
<path d="M343.79 149.62L343.79 188.12"/>
<path d="M343.79 163.37L344.34 163.37"/>
<path d="M344.34 163.37L344.34 174.37"/>
<path d="M343.79 174.37L344.34 174.37"/>
<path d="M339.39 192.52L339.39 194.72"/>
<path d="M339.39 192.52L341.59 191.93M341.59 191.93L343.2 190.32M343.2 190.32L343.79 188.12"/>
<path d="M339.39 194.72L333.89 194.72"/>
<path d="M333.89 192.52L333.89 194.72"/>
<path d="M339.39 192.52L307.49 192.52"/>
<path d="M307.49 192.52L311.89 188.12"/>
<path d="M311.89 184.82L311.89 188.12"/>
<path d="M311.89 184.82L307.49 184.82"/>
<path d="M307.49 184.82L306.84 183.27M306.84 183.27L305.29 182.62"/>
<path d="M305.29 184.82L305.29 182.62"/>
<path d="M298.69 182.62L298.69 184.82"/>
<path d="M298.69 182.62L297.13 183.27M297.13 183.27L296.49 184.82"/>
<path d="M292.09 188.12L296.49 192.52"/>
<path d="M292.09 184.82L296.49 184.82"/>
<path d="M292.09 188.12L292.09 184.82"/>
<path d="M296.49 192.52L264.58 192.52"/>
<path d="M270.08 192.52L270.08 194.72"/>
<path d="M264.58 194.72L270.08 194.72"/>
<path d="M264.58 192.52L264.58 194.72"/>
<path d="M260.18 188.12L261.47 191.23M261.47 191.23L264.58 192.52"/>
<path d="M259.63 163.37L260.18 163.37"/>
<path d="M260.18 188.12L260.18 149.62"/>
<path d="M259.63 174.37L260.18 174.37"/>
<path d="M259.63 163.37L259.63 174.37"/>
<path d="M264.58 143.02L264.58 145.22"/>
<path d="M264.58 145.22L262.38 145.81M262.38 145.81L260.77 147.42M260.77 147.42L260.18 149.62"/>
<path d="M264.58 143.02L270.08 143.02"/>
<path d="M270.08 143.02L270.08 145.22"/>
<path d="M264.58 145.22L296.49 145.22"/>
<path d="M292.09 149.62L296.49 145.22"/>
<path d="M292.09 152.92L292.09 149.62"/>
<path d="M296.49 152.92L292.09 152.92"/>
<path d="M296.49 152.92L296.78 154.02M296.78 154.02L297.59 154.82M297.59 154.82L298.69 155.12"/>
<path d="M298.69 152.92L298.69 155.12"/>
<path d="M305.29 155.12L305.29 152.92"/>
<path d="M305.29 155.12L306.84 154.47M306.84 154.47L307.49 152.92"/>
<path d="M307.49 152.92L311.89 152.92"/>
<path d="M311.89 149.62L311.89 152.92"/>
<path d="M307.49 145.22L311.89 149.62"/>
<path d="M307.49 145.22L339.39 145.22"/>
<path d="M339.39 143.02L333.89 143.02"/>
<path d="M333.89 143.02L333.89 145.22"/>
<path d="M339.39 143.02L339.39 145.22"/>
<path d="M343.79 149.62L342.5 146.5M342.5 146.5L339.39 145.22"/>
<path d="M343.79 149.62L339.39 149.62"/>
<path d="M339.39 188.12L339.39 149.62"/>
<path d="M343.79 188.12L339.39 188.12"/>
<path d="M339.39 192.52L339.39 188.12"/>
<path d="M311.89 188.12L339.39 188.12"/>
<path d="M311.89 184.82L311 181.52M311 181.52L308.59 179.1M308.59 179.1L305.29 178.22"/>
<path d="M339.39 149.62L311.89 149.62"/>
<path d="M305.29 159.52L308.59 158.63M308.59 158.63L311 156.22M311 156.22L311.89 152.92"/>
<path d="M305.29 159.52L298.69 159.52"/>
<path d="M292.09 152.92L292.97 156.22M292.97 156.22L295.39 158.63M295.39 158.63L298.69 159.52"/>
<path d="M292.09 149.62L264.58 149.62"/>
<path d="M264.58 149.62L264.58 188.12"/>
<path d="M264.58 188.12L292.09 188.12"/>
<path d="M298.69 178.22L295.39 179.1M295.39 179.1L292.97 181.52M292.97 181.52L292.09 184.82"/>
<path d="M298.69 178.22L305.29 178.22"/>
<path d="M305.29 178.22L305.29 182.62"/>
<path d="M305.29 182.62L298.69 182.62"/>
<path d="M298.69 178.22L298.69 182.62"/>
<path d="M264.58 188.12L264.58 192.52"/>
<path d="M264.58 188.12L260.18 188.12"/>
<path d="M264.58 149.62L260.18 149.62"/>
<path d="M264.58 149.62L264.58 145.22"/>
<path d="M298.69 155.12L298.69 159.52"/>
<path d="M298.69 155.12L305.29 155.12"/>
<path d="M305.29 155.12L305.29 159.52"/>
<path d="M339.39 145.22L339.39 149.62"/>
<path d="M359.19 272.83L360.83 277.91"/>
<path d="M243.15 277.91L244.78 272.83"/>
<path d="M442.03 94.97L449.37 87.63M449.37 87.63L449.37 131.64M442.03 131.64L456.7 131.64"/>
<path d="M135.57 202.19L142.91 194.86M142.91 194.86L157.58 194.86M157.58 194.86L164.91 202.19M164.91 202.19L164.91 209.53M164.91 209.53L157.58 216.86M157.58 216.86L150.24 216.86M157.58 216.86L164.91 224.2M164.91 224.2L164.91 231.53M164.91 231.53L157.58 238.87M157.58 238.87L142.91 238.87M142.91 238.87L135.57 231.53"/>
<path d="M167.16 120.16L137.82 120.16M137.82 120.16L159.83 90.82M159.83 90.82L159.83 134.83"/>
</g>
</g>
</svg>
