<?xml version="1.0" standalone="no"?><svg xmlns="http://www.w3.org/2000/svg" width="600.000" height="450.000" viewBox="0.0 0.0 600.000 450.000" version="1.1">
<title>Acme Converter - Post-processed with EDS-Designer: 14.44 (info@symca.com)</title>
<desc>Acme Converter - Post-processed with EDS-Designer: 14.44 (info@symca.com)</desc>
<g id="EDS_STYLE_GROUP" fill="none" stroke="black" stroke-width="1.0">
<g id="0" display="visible">
<path d="M123.15 403.01L123.15 350.65M125.69 403.01L125.69 350.65M125.69 350.65L156.2 398.02M125.69 355.64L156.2 403.01M156.2 403.01L156.2 350.65M115.52 350.65L125.69 350.65M148.57 350.65L163.82 350.65M115.52 403.01L130.78 403.01M196.87 350.65L179.08 403.01M196.87 350.65L214.66 403.01M196.87 358.13L212.12 403.01M184.16 388.05L207.04 388.05M173.99 403.01L189.24 403.01M204.5 403.01L219.75 403.01M245.17 403.01L245.17 350.65M247.71 350.65L247.71 403.01M229.92 350.65L227.37 365.61M227.37 365.61L227.37 350.65M227.37 350.65L265.51 350.65M265.51 350.65L265.51 365.61M265.51 365.61L262.96 350.65M237.54 403.01L255.34 403.01M283.3 350.65L283.3 388.05M283.3 388.05L285.84 395.53M285.84 395.53L290.93 400.51M290.93 400.51L298.55 403.01M298.55 403.01L303.64 403.01M303.64 403.01L311.26 400.51M311.26 400.51L316.35 395.53M316.35 395.53L318.89 388.05M318.89 388.05L318.89 350.65M285.84 350.65L285.84 388.05M285.84 388.05L288.38 395.53M288.38 395.53L293.47 400.51M293.47 400.51L298.55 403.01M275.67 350.65L293.47 350.65M311.26 350.65L326.52 350.65M344.31 403.01L344.31 350.65M346.85 350.65L346.85 403.01M336.68 350.65L367.19 350.65M367.19 350.65L374.81 353.14M374.81 353.14L377.36 355.64M377.36 355.64L379.9 360.62M379.9 360.62L379.9 365.61M379.9 365.61L377.36 370.6M377.36 370.6L374.81 373.09M374.81 373.09L367.19 375.58M367.19 375.58L346.85 375.58M367.19 350.65L372.27 353.14M372.27 353.14L374.81 355.64M374.81 355.64L377.36 360.62M377.36 360.62L377.36 365.61M377.36 365.61L374.81 370.6M374.81 370.6L372.27 373.09M372.27 373.09L367.19 375.58M336.68 403.01L354.48 403.01M359.56 375.58L364.65 378.08M364.65 378.08L367.19 380.57M367.19 380.57L374.81 398.02M374.81 398.02L377.36 400.51M377.36 400.51L379.9 400.51M379.9 400.51L382.44 398.02M364.65 378.08L367.19 383.06M367.19 383.06L372.27 400.51M372.27 400.51L374.81 403.01M374.81 403.01L379.9 403.01M379.9 403.01L382.44 398.02M382.44 398.02L382.44 395.53M415.49 350.65L397.69 403.01M415.49 350.65L433.28 403.01M415.49 358.13L430.74 403.01M402.78 388.05L425.66 388.05M392.61 403.01L407.86 403.01M423.11 403.01L438.37 403.01M453.62 403.01L453.62 350.65M456.16 350.65L456.16 403.01M445.99 350.65L463.79 350.65M445.99 403.01L484.12 403.01M484.12 403.01L484.12 388.05M484.12 388.05L481.58 403.01"/>
<path d="M147.84 193.59L210.67 193.59"/>
<path d="M189.72 214.53L189.72 235.47"/>
<path d="M147.84 214.53L147.84 193.59"/>
<path d="M168.78 235.47L168.78 214.53"/>
<path d="M210.67 193.59L210.67 214.53"/>
<path d="M147.84 235.47L147.84 245.94"/>
<path d="M147.84 245.94L210.67 245.94"/>
<path d="M210.67 245.94L210.67 235.47"/>
<path d="M147.84 214.53L168.78 214.53"/>
<path d="M189.72 214.53L210.67 214.53"/>
<path d="M210.67 235.47L189.72 235.47"/>
<path d="M147.84 235.47L168.78 235.47"/>
<path d="M451.5 151.7L409.61 151.7"/>
<path d="M409.61 151.7L409.61 88.88"/>
<path d="M420.09 88.88L378.2 88.88"/>
<path d="M388.67 88.88L388.67 151.7"/>
<path d="M158.31 151.7L200.2 151.7"/>
<path d="M200.2 151.7L200.2 88.88"/>
<path d="M189.72 88.88L231.61 88.88"/>
<path d="M221.14 88.88L221.14 151.7"/>
<path d="M221.14 151.7L388.67 151.7"/>
<path d="M420.09 141.23L409.61 151.7"/>
<path d="M441.03 141.23L451.5 151.7"/>
<path d="M378.2 141.23L388.67 151.7"/>
<path d="M231.61 141.23L221.14 151.7"/>
<path d="M189.72 141.23L200.2 151.7"/>
<path d="M158.31 298.3L451.5 298.3"/>
<path d="M168.78 141.23L158.31 151.7"/>
<path d="M283.96 141.23L283.96 109.82"/>
<path d="M283.96 109.82L325.85 109.82"/>
<path d="M325.85 109.82L325.85 141.23"/>
<path d="M346.79 78.41L378.2 88.88"/>
<path d="M221.14 88.88L263.02 67.94"/>
<path d="M231.61 88.88L263.02 78.41"/>
<path d="M346.79 67.94L388.67 88.88"/>
<path d="M525.7 201.57L528.33 199.57M528.33 199.57L532.27 193.59M532.27 193.59L532.27 235.47"/>
<path d="M82.41 193.59L67.71 221.51M67.71 221.51L89.75 221.51M82.41 193.59L82.41 235.47"/>
<path d="M252.55 235.47L252.55 214.53"/>
<path d="M273.49 214.53L273.49 235.47"/>
<path d="M294.43 193.59L294.43 214.53"/>
<path d="M231.61 214.53L231.61 193.59"/>
<path d="M231.61 193.59L294.43 193.59"/>
<path d="M231.61 245.94L294.43 245.94"/>
<path d="M294.43 245.94L294.43 235.47"/>
<path d="M231.61 235.47L231.61 245.94"/>
<path d="M231.61 214.53L252.55 214.53"/>
<path d="M273.49 214.53L294.43 214.53"/>
<path d="M294.43 235.47L273.49 235.47"/>
<path d="M231.61 235.47L252.55 235.47"/>
<path d="M336.32 235.47L336.32 214.53"/>
<path d="M357.26 214.53L357.26 235.47"/>
<path d="M378.2 193.59L378.2 214.53"/>
<path d="M315.38 214.53L315.38 193.59"/>
<path d="M315.38 193.59L378.2 193.59"/>
<path d="M315.38 245.94L378.2 245.94"/>
<path d="M378.2 245.94L378.2 235.47"/>
<path d="M315.38 235.47L315.38 245.94"/>
<path d="M315.38 214.53L336.32 214.53"/>
<path d="M357.26 214.53L378.2 214.53"/>
<path d="M378.2 235.47L357.26 235.47"/>
<path d="M315.38 235.47L336.32 235.47"/>
<path d="M420.09 235.47L420.09 214.53"/>
<path d="M441.03 214.53L441.03 235.47"/>
<path d="M461.97 193.59L461.97 214.53"/>
<path d="M399.14 214.53L399.14 193.59"/>
<path d="M399.14 193.59L461.97 193.59"/>
<path d="M399.14 245.94L461.97 245.94"/>
<path d="M461.97 245.94L461.97 235.47"/>
<path d="M399.14 235.47L399.14 245.94"/>
<path d="M399.14 214.53L420.09 214.53"/>
<path d="M441.03 214.53L461.97 214.53"/>
<path d="M461.97 235.47L441.03 235.47"/>
<path d="M399.14 235.47L420.09 235.47"/>
<path d="M451.5 298.3L461.21 296.76M461.21 296.76L469.96 292.3M469.96 292.3L476.91 285.35M476.91 285.35L481.37 276.59M481.37 276.59L482.91 266.88"/>
<path d="M126.9 266.88L128.44 276.59M128.44 276.59L132.9 285.35M132.9 285.35L139.85 292.3M139.85 292.3L148.6 296.76M148.6 296.76L158.31 298.3"/>
<path d="M200.2 88.88L263.02 46.99"/>
<path d="M346.79 46.99L409.61 88.88"/>
<path d="M420.09 88.88L482.91 120.29"/>
<path d="M189.72 88.88L126.9 120.29"/>
<path d="M472.44 130.76L472.44 245.94"/>
<path d="M461.97 256.41L147.84 256.41"/>
<path d="M137.37 245.94L137.37 130.76"/>
<path d="M451.5 130.76L451.5 151.7"/>
<path d="M472.44 130.76L451.5 130.76"/>
<path d="M137.37 130.76L158.31 130.76"/>
<path d="M158.31 130.76L158.31 151.7"/>
<path d="M461.97 256.41L467.2 255.01M467.2 255.01L471.04 251.18M471.04 251.18L472.44 245.94"/>
<path d="M472.44 266.88L477.68 265.48M477.68 265.48L481.51 261.65M481.51 261.65L482.91 256.41"/>
<path d="M126.9 256.41L128.3 261.65M128.3 261.65L132.13 265.48M132.13 265.48L137.37 266.88"/>
<path d="M137.37 245.94L138.77 251.18M138.77 251.18L142.61 255.01M142.61 255.01L147.84 256.41"/>
<path d="M126.9 266.88L126.9 120.29"/>
<path d="M482.91 120.29L482.91 266.88"/>
<path d="M472.44 266.88L137.37 266.88"/>
<path d="M168.78 120.29L168.78 141.23"/>
<path d="M231.61 88.88L231.61 141.23"/>
<path d="M420.09 141.23L420.09 88.88"/>
<path d="M441.03 120.29L441.03 141.23"/>
<path d="M378.2 88.88L378.2 141.23"/>
<path d="M189.72 141.23L189.72 88.88"/>
<path d="M126.9 120.29L168.78 120.29"/>
<path d="M482.91 120.29L441.03 120.29"/>
<path d="M168.78 141.23L189.72 141.23"/>
<path d="M441.03 141.23L420.09 141.23"/>
<path d="M231.61 141.23L378.2 141.23"/>
<path d="M263.02 141.23L263.02 99.35"/>
<path d="M346.79 99.35L346.79 141.23"/>
<path d="M263.02 99.35L346.79 99.35"/>
<path d="M263.02 78.41L346.79 78.41"/>
<path d="M263.02 67.94L346.79 67.94"/>
<path d="M263.02 46.99L346.79 46.99"/>
</g>
</g>
</svg>
