<?xml version="1.0" standalone="no"?><svg xmlns="http://www.w3.org/2000/svg" width="600.000" height="450.000" viewBox="0.0 0.0 600.000 450.000" version="1.1">
<title>Acme Converter - Post-processed with EDS-Designer: 14.44 (info@symca.com)</title>
<desc>Acme Converter - Post-processed with EDS-Designer: 14.44 (info@symca.com)</desc>
<g id="EDS_STYLE_GROUP" fill="none" stroke="black" stroke-width="1.0">
<g id="0" display="visible">
<path d="M183.81 361.92L198.03 384.26M198.03 384.26L198.03 404.58M185.84 361.92L200.06 384.26M200.06 384.26L200.06 404.58M214.28 361.92L200.06 384.26M179.75 361.92L191.93 361.92M206.15 361.92L218.34 361.92M191.93 404.58L206.15 404.58M228.5 404.58L228.5 361.92M230.53 361.92L230.53 404.58M242.72 374.11L242.72 390.36M222.4 361.92L254.91 361.92M254.91 361.92L254.91 374.11M254.91 374.11L252.87 361.92M230.53 382.23L242.72 382.23M222.4 404.58L254.91 404.58M254.91 404.58L254.91 392.39M254.91 392.39L252.87 404.58M271.16 404.58L271.16 361.92M273.19 361.92L273.19 404.58M265.06 361.92L279.28 361.92M265.06 404.58L295.53 404.58M295.53 404.58L295.53 392.39M295.53 392.39L293.5 404.58M307.72 404.58L307.72 361.92M309.75 361.92L309.75 404.58M301.63 361.92L315.84 361.92M301.63 404.58L332.09 404.58M332.09 404.58L332.09 392.39M332.09 392.39L330.06 404.58M352.41 361.92L346.31 363.95M346.31 363.95L342.25 368.01M342.25 368.01L340.22 372.07M340.22 372.07L338.19 380.2M338.19 380.2L338.19 386.29M338.19 386.29L340.22 394.42M340.22 394.42L342.25 398.48M342.25 398.48L346.31 402.54M346.31 402.54L352.41 404.58M352.41 404.58L356.47 404.58M356.47 404.58L362.56 402.54M362.56 402.54L366.63 398.48M366.63 398.48L368.66 394.42M368.66 394.42L370.69 386.29M370.69 386.29L370.69 380.2M370.69 380.2L368.66 372.07M368.66 372.07L366.63 368.01M366.63 368.01L362.56 363.95M362.56 363.95L356.47 361.92M356.47 361.92L352.41 361.92M352.41 361.92L348.35 363.95M348.35 363.95L344.28 368.01M344.28 368.01L342.25 372.07M342.25 372.07L340.22 380.2M340.22 380.2L340.22 386.29M340.22 386.29L342.25 394.42M342.25 394.42L344.28 398.48M344.28 398.48L348.35 402.54M348.35 402.54L352.41 404.58M356.47 404.58L360.53 402.54M360.53 402.54L364.6 398.48M364.6 398.48L366.63 394.42M366.63 394.42L368.66 386.29M368.66 386.29L368.66 380.2M368.66 380.2L366.63 372.07M366.63 372.07L364.6 368.01M364.6 368.01L360.53 363.95M360.53 363.95L356.47 361.92M388.97 361.92L397.1 404.58M391 361.92L397.1 394.42M405.22 361.92L397.1 404.58M405.22 361.92L413.35 404.58M407.25 361.92L413.35 394.42M421.47 361.92L413.35 404.58M382.88 361.92L397.1 361.92M415.38 361.92L427.57 361.92"/>
<path d="M27.4 225.41L22.52 227.04M22.52 227.04L20.9 230.29M20.9 230.29L20.9 233.54M20.9 233.54L22.52 236.79M22.52 236.79L25.77 238.41M25.77 238.41L32.27 240.04M32.27 240.04L37.15 241.67M37.15 241.67L40.4 244.92M40.4 244.92L42.02 248.17M42.02 248.17L42.02 253.04M42.02 253.04L40.4 256.29M40.4 256.29L38.77 257.92M38.77 257.92L33.9 259.54M33.9 259.54L27.4 259.54M27.4 259.54L22.52 257.92M22.52 257.92L20.9 256.29M20.9 256.29L19.27 253.04M19.27 253.04L19.27 248.17M19.27 248.17L20.9 244.92M20.9 244.92L24.15 241.67M24.15 241.67L29.02 240.04M29.02 240.04L35.52 238.41M35.52 238.41L38.77 236.79M38.77 236.79L40.4 233.54M40.4 233.54L40.4 230.29M40.4 230.29L38.77 227.04M38.77 227.04L33.9 225.41M33.9 225.41L27.4 225.41"/>
<path d="M167.61 181.12L195.55 181.12M195.55 181.12L195.55 81.85M195.55 81.85L167.61 81.85M167.61 81.85L167.61 181.12"/>
<path d="M195.55 81.85L234.53 81.85M234.53 81.85L234.53 99.92M234.53 99.92L214.08 99.92M214.08 99.92L199.59 113.25M199.59 113.25L199.59 148.73M199.59 148.73L220.89 148.73M220.89 148.73L220.89 181.12"/>
<path d="M199.02 122.59L220.37 122.59M220.37 122.59L220.37 106.25M220.37 106.25L242.17 106.25M242.17 106.25L242.17 74.93M242.17 74.93L242.17 74.93M242.17 74.93L243.65 65.72M243.65 65.72L247.92 57.43M247.92 57.43L254.57 50.89M254.57 50.89L262.93 46.75M262.93 46.75L272.16 45.42M272.16 45.42L335.3 45.42M335.3 45.42L335.3 45.42M335.3 45.42L344.4 46.91M344.4 46.91L352.56 51.21M352.56 51.21L358.93 57.88M358.93 57.88L362.85 66.22M362.85 66.22L363.92 75.38M363.92 75.38L363.92 106.7M363.92 106.7L385.27 106.7M385.27 106.7L385.27 123.04M385.27 123.04L406.62 123.04M406.62 123.04L406.62 112.15M406.62 112.15L393.36 99.44M393.36 99.44L370.73 99.44M370.73 99.44L370.73 82.19M370.73 82.19L422.52 82.19M422.52 82.19L422.52 130.76M422.52 130.76L438.42 130.76M438.42 130.76L438.42 181.12"/>
<path d="M406.62 123.04L406.62 148.62"/>
<path d="M385.54 181.12L385.54 148.62M385.54 148.62L424.14 148.62M424.14 148.62L424.14 181.12"/>
<path d="M219.15 118.58L239.96 118.58M239.96 118.58L239.96 118.58M239.96 118.58L243.49 117.62M243.49 117.62L246.04 114.99M246.04 114.99L246.9 111.43M246.9 111.43L246.9 73.42M246.9 73.42L246.9 73.42M246.9 73.42L248.47 64.94M248.47 64.94L253 57.59M253 57.59L259.87 52.36M259.87 52.36L268.15 49.95M268.15 49.95L339.75 49.95M339.75 49.95L339.75 49.95M339.75 49.95L347.82 52.96M347.82 52.96L354.29 58.63M354.29 58.63L358.34 66.23M358.34 66.23L359.44 74.76M359.44 74.76L359.44 111.43M359.44 111.43L359.44 111.43M359.44 111.43L360.46 114.99M360.46 114.99L363.19 117.47M363.19 117.47L366.83 118.14M366.83 118.14L385.27 118.14"/>
<path d="M220.37 122.59L220.37 134.03M220.37 134.03L224.98 141.28M224.98 141.28L268.52 141.28M268.52 141.28L268.52 145.7M268.52 145.7L337.94 145.7M337.94 145.7L337.94 140.65M337.94 140.65L381.49 140.65M381.49 140.65L385.59 132.46M385.59 132.46L385.59 123.04"/>
<path d="M268.52 145.7L337.93 145.7M337.93 145.7L337.93 130.65M337.93 130.65L268.52 130.65M268.52 130.65L268.52 145.7"/>
<path d="M264.21 101.81L341.38 101.81M341.38 101.81L341.38 130.31M341.38 130.31L264.21 130.31M264.21 130.31L264.21 101.81"/>
<path d="M268.63 101.81L338.06 101.81M338.06 101.81L338.06 130.31M338.06 130.31L268.63 130.31M268.63 130.31L268.63 101.81"/>
<path d="M220.37 126.34L385.59 126.34"/>
<path d="M220.37 130.09L385.59 130.09"/>
<path d="M363.92 94.52L242.17 94.52"/>
<path d="M351.33 82.81L350.01 86.6M350.01 86.6L347.16 89.44M347.16 89.44L343.37 90.76M343.37 90.76L262 90.76M262 90.76L262 90.76M262 90.76L257.92 89.71M257.92 89.71L254.87 86.82M254.87 86.82L253.59 82.81"/>
<path d="M253.59 82.81L253.59 73.98M253.59 73.98L253.59 73.98M253.59 73.98L254.92 67.54M254.92 67.54L258.67 62.15M258.67 62.15L264.25 58.68M264.25 58.68L270.75 57.69M270.75 57.69L334.77 57.69M334.77 57.69L334.77 57.69M334.77 57.69L341.01 58.93M341.01 58.93L346.29 62.46M346.29 62.46L349.83 67.74M349.83 67.74L351.07 73.98M351.07 73.98L351.07 73.98M351.07 73.98L351.33 82.81"/>
<path d="M253.61 83L351.3 83"/>
<path d="M342.82 90.76L342.82 74.56M342.82 74.56L342.82 74.56M342.82 74.56L341.78 70.55M341.78 70.55L338.93 67.56M338.93 67.56L334.97 66.32M334.97 66.32L270.36 66.32M270.36 66.32L270.36 66.32M270.36 66.32L266.43 67.38M266.43 67.38L263.56 70.25M263.56 70.25L262.5 74.17M262.5 74.17L262.5 90.76"/>
<path d="M406.62 112.15L406.62 82.19"/>
<path d="M199.59 148.73L181.82 148.73"/>
<path d="M181.82 148.73L181.82 181.12"/>
<path d="M199.59 113.25L199.59 81.85"/>
<path d="M187.99 81.85L187.99 124.06M187.99 124.06L187.99 124.06M187.99 124.06L187.04 128.07M187.04 128.07L184.39 131.22M184.39 131.22L180.6 132.85M180.6 132.85L167.61 132.85"/>
<path d="M236 130.09L236 181.12"/>
<path d="M252.91 130.09L252.91 181.12"/>
<path d="M352.58 130.09L352.58 181.12"/>
<path d="M368.59 130.09L368.59 181.12"/>
<path d="M542.7 278.35L64.62 278.35"/>
<path d="M572.6 231.91L575.85 230.29M575.85 230.29L580.73 225.41M580.73 225.41L580.73 259.54"/>
<path d="M64.62 298.41L64.62 181.12"/>
<path d="M64.62 181.12L542.7 181.12"/>
<path d="M521.43 319.26L85.88 319.26"/>
<path d="M64.62 298.41L66.35 306.42M66.35 306.42L70.99 313.18M70.99 313.18L77.84 317.68M77.84 317.68L85.88 319.26"/>
<path d="M542.7 298.41L542.7 181.12"/>
<path d="M521.43 319.26L529.47 317.68M529.47 317.68L536.32 313.18M536.32 313.18L540.96 306.42M540.96 306.42L542.7 298.41"/>
<path d="M73.31 216.88L81.84 216.88"/>
<path d="M81.84 216.88L81.84 268.07"/>
<path d="M81.84 268.07L73.31 268.07"/>
<path d="M73.31 268.07L73.31 216.88"/>
<path d="M64.77 199.82L252.47 199.82"/>
<path d="M354.85 199.82L542.54 199.82"/>
<path d="M354.85 199.82L354.85 191.29"/>
<path d="M354.85 191.29L252.47 191.29"/>
<path d="M252.47 191.29L252.47 199.82"/>
<path d="M534.01 268.07L534.01 216.88"/>
<path d="M525.47 216.88L525.47 268.07"/>
<path d="M525.47 268.07L534.01 268.07"/>
<path d="M534.01 216.88L525.47 216.88"/>
<path d="M303.66 225.41L508.41 225.41"/>
<path d="M303.66 259.54L508.41 259.54"/>
<path d="M312.19 251.01L346.31 251.01"/>
<path d="M346.31 251.01L346.31 233.95"/>
<path d="M346.31 233.95L312.19 233.95"/>
<path d="M312.19 233.95L312.19 251.01"/>
<path d="M312.19 251.01L303.66 259.54"/>
<path d="M346.31 251.01L354.85 259.54"/>
<path d="M346.31 233.95L354.85 225.41"/>
<path d="M312.19 233.95L303.66 225.41"/>
<path d="M354.85 225.41L354.85 259.54"/>
<path d="M363.38 233.95L354.85 225.41"/>
<path d="M363.38 251.01L354.85 259.54"/>
<path d="M406.03 225.41L406.03 259.54"/>
<path d="M397.5 251.01L397.5 233.95"/>
<path d="M363.38 233.95L363.38 251.01"/>
<path d="M363.38 251.01L397.5 251.01"/>
<path d="M397.5 251.01L406.03 259.54"/>
<path d="M397.5 233.95L363.38 233.95"/>
<path d="M397.5 233.95L406.03 225.41"/>
<path d="M414.57 233.95L406.03 225.41"/>
<path d="M414.57 251.01L406.03 259.54"/>
<path d="M457.22 225.41L457.22 259.54"/>
<path d="M448.69 251.01L448.69 233.95"/>
<path d="M414.57 233.95L414.57 251.01"/>
<path d="M414.57 251.01L448.69 251.01"/>
<path d="M448.69 251.01L457.22 259.54"/>
<path d="M448.69 233.95L414.57 233.95"/>
<path d="M448.69 233.95L457.22 225.41"/>
<path d="M465.75 233.95L457.22 225.41"/>
<path d="M465.75 251.01L457.22 259.54"/>
<path d="M508.41 225.41L508.41 259.54"/>
<path d="M499.88 251.01L499.88 233.95"/>
<path d="M465.75 233.95L465.75 251.01"/>
<path d="M465.75 251.01L499.88 251.01"/>
<path d="M499.88 251.01L508.41 259.54"/>
<path d="M499.88 233.95L465.75 233.95"/>
<path d="M499.88 233.95L508.41 225.41"/>
<path d="M303.66 259.54L98.9 259.54"/>
<path d="M303.66 225.41L98.9 225.41"/>
<path d="M295.12 233.95L303.66 225.41"/>
<path d="M295.12 251.01L303.66 259.54"/>
<path d="M158.62 233.95L192.75 233.95"/>
<path d="M192.75 251.01L158.62 251.01"/>
<path d="M209.81 233.95L243.94 233.95"/>
<path d="M243.94 251.01L209.81 251.01"/>
<path d="M243.94 233.95L243.94 251.01"/>
<path d="M252.47 225.41L252.47 259.54"/>
<path d="M261 251.01L261 233.95"/>
<path d="M295.12 233.95L295.12 251.01"/>
<path d="M295.12 251.01L261 251.01"/>
<path d="M243.94 251.01L252.47 259.54"/>
<path d="M261 251.01L252.47 259.54"/>
<path d="M261 233.95L295.12 233.95"/>
<path d="M243.94 233.95L252.47 225.41"/>
<path d="M261 233.95L252.47 225.41"/>
<path d="M192.75 233.95L192.75 251.01"/>
<path d="M209.81 251.01L209.81 233.95"/>
<path d="M201.28 225.41L201.28 259.54"/>
<path d="M192.75 251.01L201.28 259.54"/>
<path d="M209.81 251.01L201.28 259.54"/>
<path d="M192.75 233.95L201.28 225.41"/>
<path d="M209.81 233.95L201.28 225.41"/>
<path d="M141.56 233.95L141.56 251.01"/>
<path d="M107.43 251.01L107.43 233.95"/>
<path d="M98.9 225.41L98.9 259.54"/>
<path d="M158.62 251.01L158.62 233.95"/>
<path d="M150.09 225.41L150.09 259.54"/>
<path d="M141.56 251.01L107.43 251.01"/>
<path d="M141.56 251.01L150.09 259.54"/>
<path d="M158.62 251.01L150.09 259.54"/>
<path d="M107.43 251.01L98.9 259.54"/>
<path d="M107.43 233.95L141.56 233.95"/>
<path d="M141.56 233.95L150.09 225.41"/>
<path d="M158.62 233.95L150.09 225.41"/>
<path d="M107.43 233.95L98.9 225.41"/>
<path d="M303.66 225.41L303.66 259.54"/>
<path d="M124.5 278.35L124.5 319.26"/>
<path d="M482.82 278.35L482.82 319.26"/>
</g>
</g>
</svg>
