<?xml version="1.0" standalone="no"?><svg xmlns="http://www.w3.org/2000/svg" width="600.000" height="450.000" viewBox="0.0 0.0 600.000 450.000" version="1.1">
<title>Acme Converter - Post-processed with EDS-Designer: 14.44 (info@symca.com)</title>
<desc>Acme Converter - Post-processed with EDS-Designer: 14.44 (info@symca.com)</desc>
<g id="EDS_STYLE_GROUP" fill="none" stroke="black" stroke-width="1.0">
<g id="0" display="visible">
<path d="M219.37 338.99L219.37 300.84M221.19 300.84L221.19 338.99M213.92 300.84L235.72 300.84M235.72 300.84L241.17 302.66M241.17 302.66L242.99 304.48M242.99 304.48L244.81 308.11M244.81 308.11L244.81 311.74M244.81 311.74L242.99 315.37M242.99 315.37L241.17 317.19M241.17 317.19L235.72 319.01M235.72 300.84L239.36 302.66M239.36 302.66L241.17 304.48M241.17 304.48L242.99 308.11M242.99 308.11L242.99 311.74M242.99 311.74L241.17 315.37M241.17 315.37L239.36 317.19M239.36 317.19L235.72 319.01M221.19 319.01L235.72 319.01M235.72 319.01L241.17 320.82M241.17 320.82L242.99 322.64M242.99 322.64L244.81 326.27M244.81 326.27L244.81 331.72M244.81 331.72L242.99 335.36M242.99 335.36L241.17 337.17M241.17 337.17L235.72 338.99M235.72 338.99L213.92 338.99M235.72 319.01L239.36 320.82M239.36 320.82L241.17 322.64M241.17 322.64L242.99 326.27M242.99 326.27L242.99 331.72M242.99 331.72L241.17 335.36M241.17 335.36L239.36 337.17M239.36 337.17L235.72 338.99M259.34 338.99L259.34 300.84M261.16 300.84L261.16 338.99M253.89 300.84L266.61 300.84M253.89 338.99L281.14 338.99M281.14 338.99L281.14 328.09M281.14 328.09L279.32 338.99M302.94 300.84L290.22 338.99M302.94 300.84L315.66 338.99M302.94 306.29L313.84 338.99M293.86 328.09L310.21 328.09M286.59 338.99L297.49 338.99M308.39 338.99L319.29 338.99M350.17 306.29L351.99 311.74M351.99 311.74L351.99 300.84M351.99 300.84L350.17 306.29M350.17 306.29L346.54 302.66M346.54 302.66L341.09 300.84M341.09 300.84L337.46 300.84M337.46 300.84L332.01 302.66M332.01 302.66L328.37 306.29M328.37 306.29L326.56 309.92M326.56 309.92L324.74 315.37M324.74 315.37L324.74 324.46M324.74 324.46L326.56 329.91M326.56 329.91L328.37 333.54M328.37 333.54L332.01 337.17M332.01 337.17L337.46 338.99M337.46 338.99L341.09 338.99M341.09 338.99L346.54 337.17M346.54 337.17L350.17 333.54M350.17 333.54L351.99 329.91M337.46 300.84L333.82 302.66M333.82 302.66L330.19 306.29M330.19 306.29L328.37 309.92M328.37 309.92L326.56 315.37M326.56 315.37L326.56 324.46M326.56 324.46L328.37 329.91M328.37 329.91L330.19 333.54M330.19 333.54L333.82 337.17M333.82 337.17L337.46 338.99M368.34 338.99L368.34 300.84M370.16 300.84L370.16 338.99M393.77 300.84L370.16 324.46M379.24 317.19L393.77 338.99M377.42 317.19L391.95 338.99M362.89 300.84L375.6 300.84M386.5 300.84L397.4 300.84M362.89 338.99L375.6 338.99M386.5 338.99L397.4 338.99"/>
<path d="M363.28 174.09L247.56 174.09"/>
<path d="M247.56 273.6L363.28 273.6"/>
<path d="M209.41 212.24L209.41 230.68"/>
<path d="M305.42 219.87L305.42 240.53"/>
<path d="M305.42 240.53L276.81 240.53"/>
<path d="M276.81 219.87L305.42 219.87"/>
<path d="M237.38 207.15L237.38 184.9"/>
<path d="M237.38 184.9L262.82 184.9"/>
<path d="M237.38 207.15L262.82 207.15"/>
<path d="M200.51 212.24L200.51 230.61"/>
<path d="M197.96 212.24L197.96 230.59"/>
<path d="M410.33 165.41L410.33 232.07"/>
<path d="M412.87 162.87L412.87 232.09"/>
<path d="M419.23 159.05L419.23 232.13"/>
<path d="M401.43 212.24L401.43 230.68"/>
<path d="M246.58 171.56L364.26 171.56"/>
<path d="M324.1 276.14L324.1 282.5"/>
<path d="M200.51 216.59L206.86 216.59"/>
<path d="M233.18 159.46L379.42 159.46"/>
<path d="M242.72 128.31L368.61 128.31"/>
<path d="M239.54 121.95L371.79 121.95"/>
<path d="M264.34 111.05L346.99 111.05"/>
<path d="M264.34 121.95L264.34 111.05"/>
<path d="M296.13 128.31L296.13 146.65"/>
<path d="M296.13 146.65L315.2 146.65"/>
<path d="M315.2 128.31L315.2 146.65"/>
<path d="M236.36 140.3L236.36 125.04"/>
<path d="M233.18 143.47L229.12 143.47"/>
<path d="M229.12 143.47L226.87 144.41M226.87 144.41L225.94 146.65"/>
<path d="M233.18 143.47L235.43 142.54M235.43 142.54L236.36 140.3"/>
<path d="M239.54 121.95L237.29 122.88M237.29 122.88L236.36 125.13"/>
<path d="M242.72 140.3L242.72 128.31"/>
<path d="M378.15 143.47L382.21 143.47"/>
<path d="M245.9 140.3L239.54 140.3"/>
<path d="M239.54 140.3L239.54 159.46"/>
<path d="M239.54 149.83L233.18 149.83"/>
<path d="M233.18 149.83L233.18 159.37"/>
<path d="M273.87 128.31L273.87 137.75"/>
<path d="M273.87 133.94L283.41 133.94"/>
<path d="M283.41 137.75L283.41 128.31"/>
<path d="M242.72 121.86L242.72 118.68"/>
<path d="M242.72 118.68L242.72 118.68"/>
<path d="M242.72 118.68L238.22 120.54M238.22 120.54L236.36 125.04"/>
<path d="M305.42 240.53L334.03 240.53"/>
<path d="M334.03 219.87L305.42 219.87"/>
<path d="M362.01 240.53L362.01 219.87"/>
<path d="M247.56 174.09L235.77 175.96M235.77 175.96L225.13 181.37M225.13 181.37L216.69 189.81M216.69 189.81L211.27 200.45M211.27 200.45L209.41 212.24"/>
<path d="M246.58 171.56L234.24 173.79M234.24 173.79L223.16 179.67M223.16 179.67L214.41 188.64M214.41 188.64L208.8 199.85M208.8 199.85L206.86 212.24"/>
<path d="M401.43 212.24L399.56 200.45M399.56 200.45L394.14 189.81M394.14 189.81L385.7 181.37M385.7 181.37L375.07 175.96M375.07 175.96L363.28 174.09"/>
<path d="M209.41 230.68L211.07 243.13M211.07 243.13L216.31 254.55M216.31 254.55L224.65 263.95M224.65 263.95L235.38 270.48M235.38 270.48L247.56 273.6"/>
<path d="M363.28 273.6L375.45 270.48M375.45 270.48L386.18 263.95M386.18 263.95L394.53 254.55M394.53 254.55L399.76 243.13M399.76 243.13L401.43 230.68"/>
<path d="M206.86 212.24L206.86 230.68"/>
<path d="M206.86 230.64L208.64 243.86M208.64 243.86L214.21 255.99M214.21 255.99L223.08 265.95M223.08 265.95L234.49 272.87M234.49 272.87L247.43 276.14"/>
<path d="M247.43 276.14L363.41 276.14"/>
<path d="M363.41 276.14L376.34 272.87M376.34 272.87L387.75 265.95M387.75 265.95L396.63 255.99M396.63 255.99L402.2 243.86M402.2 243.86L403.97 230.64"/>
<path d="M403.97 212.24L403.97 230.68"/>
<path d="M403.97 212.24L402.04 199.85M402.04 199.85L396.43 188.64M396.43 188.64L387.67 179.67M387.67 179.67L376.6 173.79M376.6 173.79L364.26 171.56"/>
<path d="M200.51 230.54L201.89 243.22M201.89 243.22L206.36 255.17M206.36 255.17L213.64 265.65M213.64 265.65L223.27 274.02M223.27 274.02L234.67 279.75M234.67 279.75L247.13 282.5"/>
<path d="M247.13 282.5L363.71 282.5"/>
<path d="M363.71 282.5L376.17 279.75M376.17 279.75L387.57 274.02M387.57 274.02L397.2 265.65M397.2 265.65L404.47 255.17M404.47 255.17L408.94 243.22M408.94 243.22L410.33 230.54"/>
<path d="M200.51 212.24L200.51 230.68"/>
<path d="M197.96 230.5L199.42 243.83M199.42 243.83L204.13 256.39M204.13 256.39L211.78 267.39M211.78 267.39L221.92 276.17M221.92 276.17L233.91 282.18M233.91 282.18L247.01 285.04"/>
<path d="M247.01 285.04L363.83 285.04"/>
<path d="M363.83 285.04L376.91 282.18M376.91 282.18L388.89 276.19M388.89 276.19L399.02 267.43M399.02 267.43L406.68 256.44M406.68 256.44L411.39 243.9M411.39 243.9L412.87 230.59"/>
<path d="M191.61 230.4L193.25 245.35M193.25 245.35L198.54 259.43M198.54 259.43L207.15 271.76M207.15 271.76L218.55 281.57M218.55 281.57L232.02 288.26M232.02 288.26L246.73 291.4"/>
<path d="M246.73 291.4L364.11 291.4"/>
<path d="M364.11 291.4L378.79 288.26M378.79 288.26L392.24 281.6M392.24 281.6L403.63 271.81M403.63 271.81L412.25 259.52M412.25 259.52L417.56 245.47M417.56 245.47L419.23 230.55"/>
<path d="M200.51 221.36L206.86 221.36"/>
<path d="M248.83 219.87L248.83 240.53"/>
<path d="M262.82 207.15L262.82 184.9"/>
<path d="M390.62 240.53L390.62 219.87"/>
<path d="M390.62 219.87L362.01 219.87"/>
<path d="M362.01 240.53L390.62 240.53"/>
<path d="M220.22 219.87L220.22 240.53"/>
<path d="M248.83 240.53L220.22 240.53"/>
<path d="M220.22 219.87L248.83 219.87"/>
<path d="M269.1 165.2L269.1 171.56"/>
<path d="M262.75 165.2L262.75 171.56"/>
<path d="M410.33 216.59L403.97 216.59"/>
<path d="M410.33 221.36L403.97 221.36"/>
<path d="M427.58 219.85L430 218.64M430 218.64L433.63 215.01M433.63 215.01L433.63 240.44"/>
<path d="M181.03 218.64L179.82 216.22M179.82 216.22L176.18 215.01M176.18 215.01L173.76 215.01M173.76 215.01L170.13 216.22M170.13 216.22L167.7 219.85M167.7 219.85L166.49 225.9M166.49 225.9L166.49 231.96M166.49 231.96L167.7 236.8M167.7 236.8L170.13 239.23M170.13 239.23L173.76 240.44M173.76 240.44L174.97 240.44M174.97 240.44L178.6 239.23M178.6 239.23L181.03 236.8M181.03 236.8L182.24 233.17M182.24 233.17L182.24 231.96M182.24 231.96L181.03 228.33M181.03 228.33L178.6 225.9M178.6 225.9L174.97 224.69M174.97 224.69L173.76 224.69M173.76 224.69L170.13 225.9M170.13 225.9L167.7 228.33M167.7 228.33L166.49 231.96"/>
<path d="M299.31 174.09L299.31 182.58"/>
<path d="M303.12 186.39L308.21 186.39"/>
<path d="M312.02 182.58L312.02 174.09"/>
<path d="M299.31 182.58L300.42 185.28M300.42 185.28L303.12 186.39"/>
<path d="M308.21 186.39L310.9 185.28M310.9 185.28L312.02 182.58"/>
<path d="M246.5 165.2L364.33 165.2"/>
<path d="M191.6 212.24L191.61 230.4"/>
<path d="M229.12 143.47L226.87 144.41M226.87 144.41L225.94 146.65"/>
<path d="M397.61 162.87L397.61 176.45"/>
<path d="M400.16 165.41L400.16 183.02"/>
<path d="M400.16 183.02L392.91 175.69M392.91 175.69L384.23 170.11M384.23 170.11L374.55 166.56M374.55 166.56L364.33 165.2"/>
<path d="M400.79 159.69L409.69 159.69"/>
<path d="M403.33 162.23L407.15 162.23"/>
<path d="M412.87 162.87L411.94 160.62M411.94 160.62L409.69 159.69"/>
<path d="M410.33 165.41L409.4 163.16M409.4 163.16L407.15 162.23"/>
<path d="M400.79 159.69L398.54 160.62M398.54 160.62L397.61 162.87"/>
<path d="M403.33 162.23L401.75 162.66M401.75 162.66L400.58 163.82M400.58 163.82L400.16 165.41"/>
<path d="M225.94 146.65L225.94 158.15"/>
<path d="M360.35 276.14L360.35 282.5"/>
<path d="M356.53 276.14L356.53 282.5"/>
<path d="M287.23 276.14L287.23 282.5"/>
<path d="M254.8 276.14L254.8 282.5"/>
<path d="M250.98 276.14L250.98 282.5"/>
<path d="M287.23 277.95L324.1 277.95"/>
<path d="M223.75 161.6L213 168.24M213 168.24L204.01 177.11M204.01 177.11L197.24 187.77M197.24 187.77L193.03 199.69M193.03 199.69L191.6 212.24"/>
<path d="M248.83 219.87L277.44 219.87"/>
<path d="M277.44 219.87L277.44 240.53"/>
<path d="M277.44 240.53L248.83 240.53"/>
<path d="M362.64 219.87L334.03 219.87"/>
<path d="M334.03 240.53L334.03 219.87"/>
<path d="M334.03 240.53L362.64 240.53"/>
<path d="M223.75 161.6L225.35 160.2M225.35 160.2L225.94 158.15"/>
<path d="M342.22 165.2L342.22 171.56"/>
<path d="M348.58 165.2L348.58 171.56"/>
<path d="M246.5 165.2L234.53 167.03M234.53 167.03L223.43 171.85M223.43 171.85L213.92 179.34M213.92 179.34L206.64 189.02M206.64 189.02L202.06 200.23M202.06 200.23L200.51 212.24"/>
<path d="M246.45 162.66L233.83 164.58M233.83 164.58L222.12 169.66M222.12 169.66L212.1 177.57M212.1 177.57L204.42 187.76M204.42 187.76L199.61 199.58M199.61 199.58L197.96 212.24"/>
<path d="M397.61 176.45L387.8 169.13M387.8 169.13L376.5 164.44M376.5 164.44L364.39 162.66"/>
<path d="M246.5 162.66L364.33 162.66"/>
<path d="M249.71 165.2L249.71 162.66"/>
<path d="M361.62 165.2L361.62 162.66"/>
<path d="M373.94 184.9L348.51 184.9"/>
<path d="M373.94 207.15L348.51 207.15"/>
<path d="M373.94 207.15L373.94 184.9"/>
<path d="M348.51 207.15L348.51 184.9"/>
<path d="M245.9 140.3L245.9 159.46"/>
<path d="M247.17 128.31L247.17 157.14"/>
<path d="M247.17 157.14L252.25 157.14"/>
<path d="M252.25 157.14L252.25 159.46"/>
<path d="M368.61 140.3L368.61 128.31"/>
<path d="M365.43 140.3L365.43 159.46"/>
<path d="M364.16 128.31L364.16 157.14"/>
<path d="M364.16 157.14L359.07 157.14"/>
<path d="M359.07 157.14L359.07 159.46"/>
<path d="M378.15 149.83L378.15 159.37"/>
<path d="M371.79 149.83L378.15 149.83"/>
<path d="M371.79 140.3L371.79 159.46"/>
<path d="M365.43 140.3L371.79 140.3"/>
<path d="M337.46 128.31L337.46 137.75"/>
<path d="M337.46 133.94L327.92 133.94"/>
<path d="M327.92 137.75L327.92 128.31"/>
<path d="M374.97 125.13L374.04 122.88M374.04 122.88L371.79 121.95"/>
<path d="M374.97 125.04L373.11 120.54M373.11 120.54L368.61 118.68"/>
<path d="M368.61 121.86L368.61 118.68"/>
<path d="M368.61 118.68L368.61 118.68"/>
<path d="M374.97 140.3L374.97 125.04"/>
<path d="M374.97 140.3L375.9 142.54M375.9 142.54L378.15 143.47"/>
<path d="M346.99 121.95L346.99 111.05"/>
<path d="M385.39 146.65L385.39 152.69"/>
<path d="M385.39 146.65L384.46 144.41M384.46 144.41L382.21 143.47"/>
<path d="M388.57 155.87L416.05 155.87"/>
<path d="M419.23 159.05L418.3 156.8M418.3 156.8L416.05 155.87"/>
<path d="M385.39 152.69L385.81 154.28M385.81 154.28L386.98 155.45M386.98 155.45L388.57 155.87"/>
<path d="M296.13 139.02L315.2 139.02"/>
</g>
</g>
</svg>
