<?xml version="1.0" standalone="no"?><svg xmlns="http://www.w3.org/2000/svg" width="600.000" height="450.000" viewBox="0.0 0.0 600.000 450.000" version="1.1">
<title>Acme Converter - Post-processed with EDS-Designer: 14.44 (info@symca.com)</title>
<desc>Acme Converter - Post-processed with EDS-Designer: 14.44 (info@symca.com)</desc>
<g id="EDS_STYLE_GROUP" fill="none" stroke="black" stroke-width="1.0">
<g id="0" display="visible">
<path d="M275.23 352.04L278.88 371.25M276.14 352.04L278.88 366.68M282.54 352.04L278.88 371.25M282.54 352.04L286.2 371.25M283.46 352.04L286.2 366.68M289.86 352.04L286.2 371.25M272.48 352.04L278.88 352.04M287.12 352.04L292.6 352.04M297.18 371.25L297.18 352.04M298.09 352.04L298.09 371.25M309.07 371.25L309.07 352.04M309.98 352.04L309.98 371.25M294.43 352.04L300.83 352.04M306.32 352.04L312.72 352.04M298.09 361.19L309.07 361.19M294.43 371.25L300.83 371.25M306.32 371.25L312.72 371.25M319.13 371.25L319.13 352.04M320.04 352.04L320.04 371.25M316.38 352.04L322.78 352.04M316.38 371.25L322.78 371.25M332.85 371.25L332.85 352.04M333.76 352.04L333.76 371.25M327.36 352.04L326.44 357.53M326.44 357.53L326.44 352.04M326.44 352.04L340.16 352.04M340.16 352.04L340.16 357.53M340.16 357.53L339.25 352.04M330.1 371.25L336.5 371.25M346.56 371.25L346.56 352.04M347.48 352.04L347.48 371.25M352.97 357.53L352.97 364.85M343.82 352.04L358.45 352.04M358.45 352.04L358.45 357.53M358.45 357.53L357.54 352.04M347.48 361.19L352.97 361.19M343.82 371.25L358.45 371.25M358.45 371.25L358.45 365.76M358.45 365.76L357.54 371.25"/>
<path d="M275.02 115.08L275.02 136.63"/>
<path d="M262.86 108.14L260.33 149.58"/>
<path d="M261.65 91.48L369.08 91.48"/>
<path d="M262.1 82.67L368.62 82.67"/>
<path d="M370.4 149.58L367.86 108.14"/>
<path d="M262.86 108.14L261.68 108.14"/>
<path d="M369.04 108.14L367.86 108.14"/>
<path d="M355.71 115.08L355.71 136.63"/>
<path d="M355.71 115.08L358.46 111.61M358.46 111.61L359.38 110.23M359.38 110.23L359.62 109.61"/>
<path d="M355.71 115.08L275.02 115.08"/>
<path d="M271.1 109.61L271.24 110.03M271.24 110.03L271.95 111.19M271.95 111.19L275.02 115.08"/>
<path d="M271 109.21L359.72 109.21"/>
<path d="M275.02 136.63L355.71 136.63"/>
<path d="M359.62 140.55L355.71 136.63"/>
<path d="M271.1 140.55L275.02 136.63"/>
<path d="M360.15 117.83L361.06 117.83"/>
<path d="M269.58 117.83L270.57 117.83"/>
<path d="M269.58 117.82L266.4 118.51"/>
<path d="M271.1 109.61L271.1 140.55"/>
<path d="M266.39 118.49L265.05 120.42M265.05 120.42L264.64 122.72"/>
<path d="M270.79 109.21L271 109.21"/>
<path d="M271.1 109.61L271 109.2"/>
<path d="M262.17 79.49L261.95 80.18M261.95 80.18L260.77 82.05M260.77 82.05L257.8 86.04"/>
<path d="M255.5 123.19L258.34 123.48M258.34 123.48L259.21 123.66M259.21 123.66L259.34 123.71M259.34 123.71L259.37 123.74M259.37 123.74L259.39 123.77"/>
<path d="M258.25 142.42L254.33 142.42"/>
<path d="M262.22 80.71L262.1 82.67"/>
<path d="M262.11 82.67L261.64 91.48"/>
<path d="M261.68 108.14L261.68 91.48"/>
<path d="M258.25 142.42L259.55 142.42"/>
<path d="M258.25 142.42L259.39 123.77"/>
<path d="M259.39 123.77L262.17 79.49"/>
<path d="M262.25 78.75L262.17 79.49"/>
<path d="M262.22 80.71L262.36 78.75"/>
<path d="M262.86 108.14L367.86 108.14"/>
<path d="M375.22 123.19L372.38 123.48M372.38 123.48L371.51 123.66M371.51 123.66L371.39 123.71M371.39 123.71L371.35 123.74M371.35 123.74L371.33 123.77"/>
<path d="M372.93 86.04L369.85 81.89M369.85 81.89L368.81 80.27M368.81 80.27L368.55 79.49"/>
<path d="M262.25 78.75L257.08 78.75"/>
<path d="M373.64 78.75L368.47 78.75"/>
<path d="M262.36 78.75L368.36 78.75"/>
<path d="M369.09 91.48L368.61 82.67"/>
<path d="M368.62 82.67L368.5 80.71"/>
<path d="M368.36 78.75L368.5 80.71"/>
<path d="M368.55 79.49L368.47 78.75"/>
<path d="M368.55 79.49L371.33 123.77"/>
<path d="M371.33 123.77L372.47 142.42"/>
<path d="M369.04 108.14L369.04 91.48"/>
<path d="M376.4 142.42L372.47 142.42"/>
<path d="M372.47 142.42L371.22 142.42"/>
<path d="M264.91 143.49L365.75 143.49"/>
<path d="M264.63 140.55L271.09 140.55"/>
<path d="M271.09 140.55L359.63 140.55"/>
<path d="M359.62 109.61L359.62 140.55"/>
<path d="M359.72 109.2L359.63 109.61"/>
<path d="M359.93 109.21L359.72 109.21"/>
<path d="M359.63 140.55L366 140.55"/>
<path d="M366 122.72L365.53 120.31M365.53 120.31L364.22 118.52"/>
<path d="M364.22 118.52L361.06 117.82"/>
<path d="M264.91 152.21L365.75 152.21"/>
<path d="M264.63 140.55L264.63 122.72"/>
<path d="M264.91 143.49L264.87 140.55"/>
<path d="M264.91 143.49L264.91 152.21"/>
<path d="M264.91 152.21L264.9 154.16"/>
<path d="M257.08 78.75L248.95 80.2M248.95 80.2L241.82 84.37M241.82 84.37L236.58 90.75M236.58 90.75L233.87 98.55"/>
<path d="M255.46 123.19L257.8 86.04"/>
<path d="M233.87 123.19L255.46 123.19"/>
<path d="M255.5 123.19L255.46 123.19"/>
<path d="M245.33 142.42L254.33 142.42"/>
<path d="M245.33 148.3L245.33 142.42"/>
<path d="M259.55 142.42L259.18 148.52"/>
<path d="M259.22 148.47L259.18 148.52"/>
<path d="M264.92 154.17L259.22 148.47"/>
<path d="M264.92 155.15L264.92 154.17"/>
<path d="M385.4 148.3L385.4 142.42"/>
<path d="M385.4 142.42L376.4 142.42"/>
<path d="M375.22 123.19L375.26 123.19"/>
<path d="M375.26 123.19L396.86 123.19"/>
<path d="M372.93 86.04L375.26 123.19"/>
<path d="M396.86 98.55L394.14 90.75M394.14 90.75L388.9 84.37M388.9 84.37L381.77 80.2M381.77 80.2L373.64 78.75"/>
<path d="M365.81 154.17L365.81 155.15"/>
<path d="M371.51 148.47L365.81 154.17"/>
<path d="M371.59 148.55L371.51 148.47"/>
<path d="M371.22 142.42L371.59 148.55"/>
<path d="M365.75 152.21L365.79 155.15"/>
<path d="M365.75 143.49L365.75 152.21"/>
<path d="M365.79 140.55L365.75 143.49"/>
<path d="M366 140.55L366 122.72"/>
<path d="M228.28 83.65L225.51 84.8M225.51 84.8L224.37 87.57"/>
<path d="M228.28 83.65L229.95 83.65"/>
<path d="M233.87 87.57L232.72 84.8M232.72 84.8L229.95 83.65"/>
<path d="M336.91 155.15L293.81 155.15"/>
<path d="M233.87 91.48L233.87 87.57"/>
<path d="M224.37 87.57L224.37 91.48"/>
<path d="M373.94 155.15L336.91 155.15"/>
<path d="M373.94 155.15L379.03 146.34"/>
<path d="M379.03 146.34L385.1 146.34"/>
<path d="M385.1 146.34L385.1 155.15"/>
<path d="M385.1 155.15L396.86 155.15"/>
<path d="M396.86 91.48L396.86 155.15"/>
<path d="M386.77 332.84L394.27 331.35M394.27 331.35L400.62 327.1M400.62 327.1L404.87 320.74M404.87 320.74L406.36 313.25"/>
<path d="M386.77 332.84L243.96 332.84"/>
<path d="M224.37 313.25L225.86 320.74M225.86 320.74L230.1 327.1M230.1 327.1L236.46 331.35M236.46 331.35L243.96 332.84"/>
<path d="M224.37 313.25L224.37 91.48"/>
<path d="M233.87 91.48L233.87 155.15"/>
<path d="M233.87 155.15L245.62 155.15"/>
<path d="M245.62 146.34L245.62 155.15"/>
<path d="M251.69 146.34L245.62 146.34"/>
<path d="M256.78 155.15L251.69 146.34"/>
<path d="M293.81 155.15L256.78 155.15"/>
<path d="M293.81 170.56L293.81 155.15"/>
<path d="M375.71 197.91L389.13 184.5"/>
<path d="M389.13 184.5L389.63 183.62M389.63 183.62L389.63 182.6M389.63 182.6L389.13 181.73"/>
<path d="M389.13 181.73L375.97 168.57"/>
<path d="M375.97 168.57L374.58 167.99M374.58 167.99L373.2 168.57"/>
<path d="M373.2 168.57L359.78 181.98"/>
<path d="M336.91 170.56L336.91 155.15"/>
<path d="M396.86 87.57L396.86 91.48"/>
<path d="M400.78 83.65L398.01 84.8M398.01 84.8L396.86 87.57"/>
<path d="M400.78 83.65L402.44 83.65"/>
<path d="M406.36 87.57L405.21 84.8M405.21 84.8L402.44 83.65"/>
<path d="M406.36 313.25L406.36 91.48"/>
<path d="M406.36 91.48L406.36 87.57"/>
<path d="M193.64 228.81L195.1 228.08M195.1 228.08L197.3 225.89M197.3 225.89L197.3 241.25"/>
<path d="M248.18 175.15L263.89 187.87"/>
<path d="M359.78 181.98L346.99 174.4M346.99 174.4L332.95 169.49M332.95 169.49L318.22 167.45M318.22 167.45L303.37 168.36M303.37 168.36L289 172.19M289 172.19L275.66 178.78M275.66 178.78L263.89 187.87"/>
<path d="M240.43 242.33L242.27 258.84M242.27 258.84L247.7 274.53M247.7 274.53L256.46 288.65M256.46 288.65L268.11 300.49M268.11 300.49L282.08 309.47M282.08 309.47L297.69 315.15M297.69 315.15L314.17 317.25M314.17 317.25L330.7 315.68M330.7 315.68L346.48 310.49M346.48 310.49L360.74 301.96M360.74 301.96L372.76 290.5M372.76 290.5L381.96 276.67M381.96 276.67L387.89 261.16M387.89 261.16L390.26 244.72M390.26 244.72L388.94 228.16M388.94 228.16L384.01 212.3M384.01 212.3L375.71 197.91"/>
<path d="M240.43 242.33L240.43 184.21"/>
<path d="M240.43 184.21L248.18 175.15"/>
<path d="M257.83 242.33L259.79 227.44M259.79 227.44L265.54 213.56M265.54 213.56L274.68 201.65M274.68 201.65L286.6 192.51M286.6 192.51L300.47 186.76M300.47 186.76L315.36 184.8M315.36 184.8L330.25 186.76M330.25 186.76L344.13 192.51M344.13 192.51L356.04 201.65M356.04 201.65L365.19 213.56M365.19 213.56L370.93 227.44M370.93 227.44L372.89 242.33M372.89 242.33L370.93 257.22M370.93 257.22L365.19 271.1M365.19 271.1L356.04 283.01M356.04 283.01L344.13 292.15M344.13 292.15L330.25 297.9M330.25 297.9L315.36 299.86M315.36 299.86L300.47 297.9M300.47 297.9L286.6 292.15M286.6 292.15L274.68 283.01M274.68 283.01L265.54 271.1M265.54 271.1L259.79 257.22M259.79 257.22L257.83 242.33"/>
</g>
</g>
</svg>
