<?xml version="1.0" standalone="no"?><svg xmlns="http://www.w3.org/2000/svg" width="600.000" height="450.000" viewBox="0.0 0.0 600.000 450.000" version="1.1">
<title>Acme Converter - Post-processed with EDS-Designer: 14.44 (info@symca.com)</title>
<desc>Acme Converter - Post-processed with EDS-Designer: 14.44 (info@symca.com)</desc>
<g id="EDS_STYLE_GROUP" fill="none" stroke="black" stroke-width="1.0">
<g id="0" display="visible">
<path d="M242.82 316.95L251.25 327.35M251.25 327.35L262.34 334.83M262.34 334.83L275.14 338.74M275.14 338.74L288.52 338.74M288.52 338.74L301.32 334.83M301.32 334.83L312.41 327.35M312.41 327.35L320.83 316.95"/>
<path d="M259.54 316.95L265.55 323.23M265.55 323.23L273.25 327.28M273.25 327.28L281.83 328.67M281.83 328.67L290.41 327.28M290.41 327.28L298.1 323.23M298.1 323.23L304.12 316.95"/>
<path d="M253.97 316.95L259.68 324.93M259.68 324.93L267.6 330.73M267.6 330.73L276.92 333.78M276.92 333.78L286.73 333.78M286.73 333.78L296.06 330.73M296.06 330.73L303.97 324.93M303.97 324.93L309.69 316.95"/>
<path d="M270.68 316.95L275.28 321.98M275.28 321.98L281.83 323.84M281.83 323.84L288.38 321.98M288.38 321.98L292.97 316.95"/>
<path d="M209.39 199.93L265.11 199.93"/>
<path d="M265.11 199.93L265.11 183.21"/>
<path d="M265.11 183.21L298.55 183.21"/>
<path d="M298.55 183.21L298.55 199.93"/>
<path d="M298.55 199.93L354.27 199.93"/>
<path d="M354.27 199.93L354.27 222.22"/>
<path d="M354.27 233.37L292.97 233.37"/>
<path d="M292.97 233.37L292.97 244.51"/>
<path d="M292.97 244.51L270.68 244.51"/>
<path d="M270.68 244.51L270.68 233.37"/>
<path d="M270.68 233.37L209.39 233.37"/>
<path d="M270.68 205.5L292.97 205.5"/>
<path d="M292.97 205.5L292.97 216.65"/>
<path d="M292.97 216.65L287.4 216.65"/>
<path d="M287.4 216.65L287.4 227.79"/>
<path d="M287.4 227.79L276.26 227.79"/>
<path d="M276.26 227.79L276.26 216.65"/>
<path d="M276.26 216.65L270.68 216.65"/>
<path d="M270.68 216.65L270.68 205.5"/>
<path d="M259.54 227.79L214.96 227.79"/>
<path d="M214.96 227.79L214.96 222.22"/>
<path d="M214.96 222.22L220.53 222.22"/>
<path d="M220.53 222.22L220.53 216.65"/>
<path d="M220.53 216.65L226.11 216.65"/>
<path d="M226.11 216.65L226.11 211.08"/>
<path d="M259.54 227.79L259.54 222.22"/>
<path d="M259.54 222.22L253.97 222.22"/>
<path d="M253.97 222.22L253.97 216.65"/>
<path d="M253.97 216.65L248.39 216.65"/>
<path d="M248.39 216.65L248.39 211.08"/>
<path d="M248.39 211.08L226.11 211.08"/>
<path d="M304.12 227.79L348.7 227.79"/>
<path d="M348.7 227.79L348.7 222.22"/>
<path d="M348.7 222.22L343.12 222.22"/>
<path d="M343.12 222.22L343.12 216.65"/>
<path d="M343.12 216.65L337.55 216.65"/>
<path d="M337.55 216.65L337.55 211.08"/>
<path d="M304.12 227.79L304.12 222.22"/>
<path d="M304.12 222.22L309.69 222.22"/>
<path d="M309.69 222.22L309.69 216.65"/>
<path d="M309.69 216.65L315.26 216.65"/>
<path d="M315.26 216.65L315.26 211.08"/>
<path d="M315.26 211.08L337.55 211.08"/>
<path d="M253.97 244.51L253.97 261.23"/>
<path d="M253.97 261.23L220.53 261.23"/>
<path d="M220.53 261.23L220.53 244.51"/>
<path d="M220.53 244.51L253.97 244.51"/>
<path d="M309.69 244.51L309.69 261.23"/>
<path d="M309.69 261.23L343.12 261.23"/>
<path d="M343.12 261.23L343.12 244.51"/>
<path d="M343.12 244.51L309.69 244.51"/>
<path d="M354.27 222.22L370.99 222.22"/>
<path d="M370.99 222.22L370.99 238.94"/>
<path d="M370.99 238.94L354.27 238.94"/>
<path d="M354.27 238.94L354.27 233.37"/>
<path d="M209.39 222.22L192.67 222.22"/>
<path d="M192.67 222.22L192.67 238.94"/>
<path d="M192.67 238.94L209.39 238.94"/>
<path d="M209.39 238.94L209.39 233.37"/>
<path d="M354.27 199.93L354.27 183.21"/>
<path d="M354.27 183.21L376.56 183.21"/>
<path d="M376.56 183.21L376.56 199.93"/>
<path d="M376.56 199.93L354.27 199.93"/>
<path d="M209.39 199.93L209.39 183.21"/>
<path d="M209.39 183.21L187.1 183.21"/>
<path d="M187.1 183.21L187.1 199.93"/>
<path d="M187.1 199.93L209.39 199.93"/>
<path d="M209.39 222.22L209.39 199.93"/>
<path d="M170.38 211.08L170.38 255.65"/>
<path d="M214.96 300.23L348.7 300.23"/>
<path d="M393.27 255.65L393.27 211.08"/>
<path d="M348.7 166.5L214.96 166.5"/>
<path d="M253.97 300.23L253.97 283.52"/>
<path d="M253.97 283.52L309.69 283.52"/>
<path d="M309.69 283.52L309.69 300.23"/>
<path d="M214.96 166.5L203.42 168.02M203.42 168.02L192.67 172.47M192.67 172.47L183.44 179.55M183.44 179.55L176.35 188.79M176.35 188.79L171.9 199.54M171.9 199.54L170.38 211.08"/>
<path d="M170.38 255.65L171.9 267.19M171.9 267.19L176.35 277.94M176.35 277.94L183.44 287.18M183.44 287.18L192.67 294.26M192.67 294.26L203.42 298.71M203.42 298.71L214.96 300.23"/>
<path d="M348.7 300.23L360.23 298.71M360.23 298.71L370.99 294.26M370.99 294.26L380.22 287.18M380.22 287.18L387.3 277.94M387.3 277.94L391.76 267.19M391.76 267.19L393.27 255.65"/>
<path d="M393.27 211.08L391.76 199.54M391.76 199.54L387.3 188.79M387.3 188.79L380.22 179.55M380.22 179.55L370.99 172.47M370.99 172.47L360.23 168.02M360.23 168.02L348.7 166.5"/>
<path d="M164.81 205.5L164.81 261.23"/>
<path d="M209.39 305.81L354.27 305.81"/>
<path d="M398.85 261.23L398.85 205.5"/>
<path d="M354.27 160.92L209.39 160.92"/>
<path d="M209.39 160.92L197.85 162.44M197.85 162.44L187.1 166.9M187.1 166.9L177.87 173.98M177.87 173.98L170.78 183.21M170.78 183.21L166.33 193.97M166.33 193.97L164.81 205.5"/>
<path d="M164.81 261.23L166.33 272.76M166.33 272.76L170.78 283.52M170.78 283.52L177.87 292.75M177.87 292.75L187.1 299.83M187.1 299.83L197.85 304.29M197.85 304.29L209.39 305.81"/>
<path d="M354.27 305.81L365.81 304.29M365.81 304.29L376.56 299.83M376.56 299.83L385.79 292.75M385.79 292.75L392.87 283.52M392.87 283.52L397.33 272.76M397.33 272.76L398.85 261.23"/>
<path d="M398.85 205.5L397.33 193.97M397.33 193.97L392.87 183.21M392.87 183.21L385.79 173.98M385.79 173.98L376.56 166.9M376.56 166.9L365.81 162.44M365.81 162.44L354.27 160.92"/>
<path d="M153.66 194.36L153.66 227.79"/>
<path d="M153.66 227.79L140.85 227.79"/>
<path d="M136.95 231.69L136.95 235.04"/>
<path d="M140.85 238.94L153.66 238.94"/>
<path d="M153.66 238.94L153.66 250.08"/>
<path d="M153.66 250.08L140.85 250.08"/>
<path d="M136.95 253.98L136.95 257.33"/>
<path d="M140.85 261.23L153.66 261.23"/>
<path d="M153.66 261.23L153.66 272.37"/>
<path d="M198.24 316.95L372.84 316.95"/>
<path d="M399.59 308.03L409.99 300.23"/>
<path d="M409.99 300.23L422.81 300.23"/>
<path d="M426.71 296.33L426.71 276.27"/>
<path d="M422.81 272.37L409.99 272.37"/>
<path d="M409.99 272.37L409.99 261.23"/>
<path d="M409.99 261.23L422.81 261.23"/>
<path d="M426.71 257.33L426.71 253.98"/>
<path d="M422.81 250.08L409.99 250.08"/>
<path d="M409.99 250.08L409.99 238.94"/>
<path d="M409.99 238.94L422.81 238.94"/>
<path d="M426.71 235.04L426.71 231.69"/>
<path d="M422.81 227.79L409.99 227.79"/>
<path d="M409.99 227.79L409.99 194.36"/>
<path d="M365.41 149.78L198.24 149.78"/>
<path d="M372.84 316.95L382.33 315.93M382.33 315.93L391.39 312.91M391.39 312.91L399.59 308.03"/>
<path d="M153.66 272.37L155.18 283.91M155.18 283.91L159.64 294.66M159.64 294.66L166.72 303.89M166.72 303.89L175.95 310.98M175.95 310.98L186.71 315.43M186.71 315.43L198.24 316.95"/>
<path d="M198.24 149.78L186.71 151.3M186.71 151.3L175.95 155.75M175.95 155.75L166.72 162.84M166.72 162.84L159.64 172.07M159.64 172.07L155.18 182.82M155.18 182.82L153.66 194.36"/>
<path d="M409.99 194.36L408.47 182.82M408.47 182.82L404.02 172.07M404.02 172.07L396.94 162.84M396.94 162.84L387.7 155.75M387.7 155.75L376.95 151.3M376.95 151.3L365.41 149.78"/>
<path d="M140.85 227.79L138.09 228.94M138.09 228.94L136.95 231.69"/>
<path d="M136.95 235.04L137.47 236.99M137.47 236.99L138.9 238.41M138.9 238.41L140.85 238.94"/>
<path d="M140.85 250.08L138.09 251.22M138.09 251.22L136.95 253.98"/>
<path d="M136.95 257.33L137.47 259.28M137.47 259.28L138.9 260.7M138.9 260.7L140.85 261.23"/>
<path d="M426.71 231.69L425.57 228.94M425.57 228.94L422.81 227.79"/>
<path d="M422.81 238.94L424.76 238.41M424.76 238.41L426.19 236.99M426.19 236.99L426.71 235.04"/>
<path d="M426.71 253.98L425.57 251.22M425.57 251.22L422.81 250.08"/>
<path d="M422.81 261.23L424.76 260.7M424.76 260.7L426.19 259.28M426.19 259.28L426.71 257.33"/>
<path d="M426.71 276.27L426.19 274.32M426.19 274.32L424.76 272.89M424.76 272.89L422.81 272.37"/>
<path d="M422.81 300.23L424.76 299.71M424.76 299.71L426.19 298.28M426.19 298.28L426.71 296.33"/>
<path d="M175.95 155.35L175.95 58.95"/>
<path d="M179.85 55.05L383.8 55.05"/>
<path d="M387.7 58.95L387.7 155.35"/>
<path d="M198.24 149.78L198.24 81.24"/>
<path d="M202.14 77.34L253.97 77.34"/>
<path d="M253.97 77.34L253.97 88.48"/>
<path d="M253.97 88.48L298.55 88.48"/>
<path d="M298.55 88.48L298.55 77.34"/>
<path d="M298.55 77.34L361.51 77.34"/>
<path d="M365.41 81.24L365.41 149.78"/>
<path d="M202.14 77.34L199.39 78.48M199.39 78.48L198.24 81.24"/>
<path d="M179.85 55.05L177.1 56.19M177.1 56.19L175.95 58.95"/>
<path d="M365.41 81.24L364.27 78.48M364.27 78.48L361.51 77.34"/>
<path d="M387.7 58.95L387.18 57M387.18 57L385.75 55.57M385.75 55.57L383.8 55.05"/>
<path d="M157.78 394.96L157.78 367.1M159.1 367.1L159.1 394.96M153.8 367.1L167.07 367.1M167.07 367.1L171.05 368.43M171.05 368.43L173.7 371.08M173.7 371.08L175.03 373.73M175.03 373.73L176.35 377.71M176.35 377.71L176.35 384.35M176.35 384.35L175.03 388.33M175.03 388.33L173.7 390.98M173.7 390.98L171.05 393.64M171.05 393.64L167.07 394.96M167.07 394.96L153.8 394.96M167.07 367.1L169.72 368.43M169.72 368.43L172.37 371.08M172.37 371.08L173.7 373.73M173.7 373.73L175.03 377.71M175.03 377.71L175.03 384.35M175.03 384.35L173.7 388.33M173.7 388.33L172.37 390.98M172.37 390.98L169.72 393.64M169.72 393.64L167.07 394.96M194.93 367.1L185.64 394.96M194.93 367.1L204.21 394.96M194.93 371.08L202.89 394.96M188.29 387L200.23 387M182.99 394.96L190.95 394.96M198.91 394.96L206.87 394.96M214.83 394.96L214.83 367.1M216.15 367.1L216.15 394.96M210.85 367.1L226.77 367.1M226.77 367.1L230.75 368.43M230.75 368.43L232.08 369.75M232.08 369.75L233.4 372.41M233.4 372.41L233.4 375.06M233.4 375.06L232.08 377.71M232.08 377.71L230.75 379.04M230.75 379.04L226.77 380.37M226.77 380.37L216.15 380.37M226.77 367.1L229.42 368.43M229.42 368.43L230.75 369.75M230.75 369.75L232.08 372.41M232.08 372.41L232.08 375.06M232.08 375.06L230.75 377.71M230.75 377.71L229.42 379.04M229.42 379.04L226.77 380.37M210.85 394.96L220.13 394.96M222.79 380.37L225.44 381.69M225.44 381.69L226.77 383.02M226.77 383.02L230.75 392.31M230.75 392.31L232.08 393.64M232.08 393.64L233.4 393.64M233.4 393.64L234.73 392.31M225.44 381.69L226.77 384.35M226.77 384.35L229.42 393.64M229.42 393.64L230.75 394.96M230.75 394.96L233.4 394.96M233.4 394.96L234.73 392.31M234.73 392.31L234.73 390.98M244.02 394.96L244.02 367.1M245.34 367.1L245.34 394.96M262.59 367.1L245.34 384.35M251.98 379.04L262.59 394.96M250.65 379.04L261.26 394.96M240.04 367.1L249.32 367.1M257.28 367.1L265.24 367.1M240.04 394.96L249.32 394.96M257.28 394.96L265.24 394.96M315.66 371.08L316.99 375.06M316.99 375.06L316.99 367.1M316.99 367.1L315.66 371.08M315.66 371.08L313.01 368.43M313.01 368.43L309.03 367.1M309.03 367.1L306.37 367.1M306.37 367.1L302.39 368.43M302.39 368.43L299.74 371.08M299.74 371.08L298.41 373.73M298.41 373.73L297.09 377.71M297.09 377.71L297.09 384.35M297.09 384.35L298.41 388.33M298.41 388.33L299.74 390.98M299.74 390.98L302.39 393.64M302.39 393.64L306.37 394.96M306.37 394.96L309.03 394.96M309.03 394.96L313.01 393.64M313.01 393.64L315.66 390.98M306.37 367.1L303.72 368.43M303.72 368.43L301.07 371.08M301.07 371.08L299.74 373.73M299.74 373.73L298.41 377.71M298.41 377.71L298.41 384.35M298.41 384.35L299.74 388.33M299.74 388.33L301.07 390.98M301.07 390.98L303.72 393.64M303.72 393.64L306.37 394.96M315.66 384.35L315.66 394.96M316.99 384.35L316.99 394.96M311.68 384.35L320.97 384.35M331.58 394.96L331.58 367.1M332.91 367.1L332.91 394.96M327.6 367.1L343.52 367.1M343.52 367.1L347.5 368.43M347.5 368.43L348.83 369.75M348.83 369.75L350.16 372.41M350.16 372.41L350.16 375.06M350.16 375.06L348.83 377.71M348.83 377.71L347.5 379.04M347.5 379.04L343.52 380.37M343.52 380.37L332.91 380.37M343.52 367.1L346.18 368.43M346.18 368.43L347.5 369.75M347.5 369.75L348.83 372.41M348.83 372.41L348.83 375.06M348.83 375.06L347.5 377.71M347.5 377.71L346.18 379.04M346.18 379.04L343.52 380.37M327.6 394.96L336.89 394.96M339.54 380.37L342.2 381.69M342.2 381.69L343.52 383.02M343.52 383.02L347.5 392.31M347.5 392.31L348.83 393.64M348.83 393.64L350.16 393.64M350.16 393.64L351.48 392.31M342.2 381.69L343.52 384.35M343.52 384.35L346.18 393.64M346.18 393.64L347.5 394.96M347.5 394.96L350.16 394.96M350.16 394.96L351.48 392.31M351.48 392.31L351.48 390.98M360.77 394.96L360.77 367.1M362.1 367.1L362.1 394.96M370.06 375.06L370.06 385.68M356.79 367.1L378.02 367.1M378.02 367.1L378.02 375.06M378.02 375.06L376.69 367.1M362.1 380.37L370.06 380.37M356.79 394.96L378.02 394.96M378.02 394.96L378.02 387M378.02 387L376.69 394.96M387.3 367.1L396.59 381.69M396.59 381.69L396.59 394.96M388.63 367.1L397.92 381.69M397.92 381.69L397.92 394.96M407.21 367.1L397.92 381.69M384.65 367.1L392.61 367.1M401.9 367.1L409.86 367.1M392.61 394.96L401.9 394.96"/>
<path d="M448.2 227.53L448.2 226.47M448.2 226.47L449.26 224.34M449.26 224.34L450.32 223.28M450.32 223.28L452.45 222.22M452.45 222.22L456.69 222.22M456.69 222.22L458.82 223.28M458.82 223.28L459.88 224.34M459.88 224.34L460.94 226.47M460.94 226.47L460.94 228.59M460.94 228.59L459.88 230.71M459.88 230.71L457.75 233.9M457.75 233.9L447.14 244.51M447.14 244.51L462 244.51"/>
<path d="M106.43 226.47L108.56 225.4M108.56 225.4L111.74 222.22M111.74 222.22L111.74 244.51"/>
</g>
</g>
</svg>
