<?xml version="1.0" standalone="no"?><svg xmlns="http://www.w3.org/2000/svg" width="600.000" height="450.000" viewBox="0.0 0.0 600.000 450.000" version="1.1">
<title>Acme Converter - Post-processed with EDS-Designer: 14.44 (info@symca.com)</title>
<desc>Acme Converter - Post-processed with EDS-Designer: 14.44 (info@symca.com)</desc>
<g id="EDS_STYLE_GROUP" fill="none" stroke="black" stroke-width="1.0">
<g id="0" display="visible">
<path d="M246.37 404.56L246.37 369.36M248.05 369.36L248.05 404.56M241.34 369.36L261.46 369.36M261.46 369.36L266.49 371.03M266.49 371.03L268.17 372.71M268.17 372.71L269.84 376.06M269.84 376.06L269.84 379.42M269.84 379.42L268.17 382.77M268.17 382.77L266.49 384.45M266.49 384.45L261.46 386.12M261.46 369.36L264.81 371.03M264.81 371.03L266.49 372.71M266.49 372.71L268.17 376.06M268.17 376.06L268.17 379.42M268.17 379.42L266.49 382.77M266.49 382.77L264.81 384.45M264.81 384.45L261.46 386.12M248.05 386.12L261.46 386.12M261.46 386.12L266.49 387.8M266.49 387.8L268.17 389.48M268.17 389.48L269.84 392.83M269.84 392.83L269.84 397.86M269.84 397.86L268.17 401.21M268.17 401.21L266.49 402.89M266.49 402.89L261.46 404.56M261.46 404.56L241.34 404.56M261.46 386.12L264.81 387.8M264.81 387.8L266.49 389.48M266.49 389.48L268.17 392.83M268.17 392.83L268.17 397.86M268.17 397.86L266.49 401.21M266.49 401.21L264.81 402.89M264.81 402.89L261.46 404.56M283.26 404.56L283.26 369.36M284.93 369.36L284.93 404.56M278.23 369.36L289.96 369.36M278.23 404.56L303.38 404.56M303.38 404.56L303.38 394.51M303.38 394.51L301.7 404.56M323.5 369.36L311.76 404.56M323.5 369.36L335.23 404.56M323.5 374.39L333.56 404.56M315.11 394.51L330.2 394.51M308.41 404.56L318.47 404.56M328.53 404.56L338.59 404.56M367.09 374.39L368.77 379.42M368.77 379.42L368.77 369.36M368.77 369.36L367.09 374.39M367.09 374.39L363.74 371.03M363.74 371.03L358.71 369.36M358.71 369.36L355.35 369.36M355.35 369.36L350.32 371.03M350.32 371.03L346.97 374.39M346.97 374.39L345.29 377.74M345.29 377.74L343.62 382.77M343.62 382.77L343.62 391.15M343.62 391.15L345.29 396.18M345.29 396.18L346.97 399.54M346.97 399.54L350.32 402.89M350.32 402.89L355.35 404.56M355.35 404.56L358.71 404.56M358.71 404.56L363.74 402.89M363.74 402.89L367.09 399.54M367.09 399.54L368.77 396.18M355.35 369.36L352 371.03M352 371.03L348.65 374.39M348.65 374.39L346.97 377.74M346.97 377.74L345.29 382.77M345.29 382.77L345.29 391.15M345.29 391.15L346.97 396.18M346.97 396.18L348.65 399.54M348.65 399.54L352 402.89M352 402.89L355.35 404.56M383.85 404.56L383.85 369.36M385.53 369.36L385.53 404.56M407.33 369.36L385.53 391.15M393.91 384.45L407.33 404.56M392.24 384.45L405.65 404.56M378.82 369.36L390.56 369.36M400.62 369.36L410.68 369.36M378.82 404.56L390.56 404.56M400.62 404.56L410.68 404.56"/>
<path d="M322.39 186.27L322.39 200.35"/>
<path d="M322.39 200.35L336.47 200.35"/>
<path d="M336.47 200.35L336.47 186.27"/>
<path d="M336.47 186.27L322.39 186.27"/>
<path d="M308.3 172.18L350.55 172.18"/>
<path d="M350.55 172.18L350.55 214.44"/>
<path d="M350.55 214.44L308.3 214.44"/>
<path d="M308.3 214.44L308.3 172.18"/>
<path d="M308.3 172.18L322.39 186.27"/>
<path d="M336.47 186.27L350.55 172.18"/>
<path d="M336.47 200.35L350.55 214.44"/>
<path d="M322.39 200.35L308.3 214.44"/>
<path d="M505.47 313.02L237.88 313.02"/>
<path d="M223.8 270.77L181.55 270.77"/>
<path d="M223.8 270.77L237.88 284.85"/>
<path d="M153.38 270.77L167.47 284.85"/>
<path d="M533.64 101.77L533.64 284.85"/>
<path d="M139.3 270.77L153.38 270.77"/>
<path d="M167.47 284.85L181.55 270.77"/>
<path d="M153.38 270.77L153.38 186.27"/>
<path d="M209.72 87.68L202.68 89.57M202.68 89.57L197.52 94.72M197.52 94.72L195.63 101.77"/>
<path d="M209.72 115.85L519.56 115.85"/>
<path d="M519.56 228.52L223.8 228.52"/>
<path d="M209.72 284.85L209.72 313.02"/>
<path d="M519.56 87.68L540.68 87.68"/>
<path d="M209.72 87.68L188.59 87.68"/>
<path d="M111.13 320.06L113.02 327.1M113.02 327.1L118.17 332.26M118.17 332.26L125.22 334.15"/>
<path d="M125.22 144.02L118.17 145.9M118.17 145.9L113.02 151.06M113.02 151.06L111.13 158.1"/>
<path d="M505.47 242.6L512.52 240.72M512.52 240.72L517.67 235.56M517.67 235.56L519.56 228.52"/>
<path d="M209.72 200.35L209.72 115.85"/>
<path d="M540.68 45.43L540.68 87.68"/>
<path d="M167.47 186.27L209.72 186.27"/>
<path d="M209.72 115.85L209.72 66.56"/>
<path d="M188.59 45.43L188.59 87.68"/>
<path d="M237.88 242.6L237.88 284.85"/>
<path d="M223.8 228.52L237.88 242.6"/>
<path d="M519.56 115.85L517.67 108.81M517.67 108.81L512.52 103.65M512.52 103.65L505.47 101.77"/>
<path d="M505.47 313.02L514.18 311.64M514.18 311.64L522.03 307.64M522.03 307.64L528.26 301.41M528.26 301.41L532.26 293.56M532.26 293.56L533.64 284.85"/>
<path d="M533.64 101.77L531.75 94.72M531.75 94.72L526.6 89.57M526.6 89.57L519.56 87.68"/>
<path d="M477.31 242.6L477.31 313.02"/>
<path d="M442.1 242.6L442.1 313.02"/>
<path d="M456.18 242.6L456.18 270.77"/>
<path d="M456.18 270.77L470.27 270.77"/>
<path d="M470.27 270.77L470.27 242.6"/>
<path d="M406.89 186.27L392.8 186.27"/>
<path d="M406.89 200.35L406.89 186.27"/>
<path d="M392.8 200.35L406.89 200.35"/>
<path d="M392.8 186.27L392.8 200.35"/>
<path d="M378.72 214.44L378.72 172.18"/>
<path d="M420.97 214.44L378.72 214.44"/>
<path d="M420.97 172.18L420.97 214.44"/>
<path d="M378.72 172.18L420.97 172.18"/>
<path d="M378.72 172.18L392.8 186.27"/>
<path d="M406.89 186.27L420.97 172.18"/>
<path d="M406.89 200.35L420.97 214.44"/>
<path d="M392.8 200.35L378.72 214.44"/>
<path d="M477.31 186.27L463.22 186.27"/>
<path d="M477.31 200.35L477.31 186.27"/>
<path d="M463.22 200.35L477.31 200.35"/>
<path d="M463.22 186.27L463.22 200.35"/>
<path d="M449.14 214.44L449.14 172.18"/>
<path d="M491.39 214.44L449.14 214.44"/>
<path d="M491.39 172.18L491.39 214.44"/>
<path d="M449.14 172.18L491.39 172.18"/>
<path d="M449.14 172.18L463.22 186.27"/>
<path d="M477.31 186.27L491.39 172.18"/>
<path d="M477.31 200.35L491.39 214.44"/>
<path d="M463.22 200.35L449.14 214.44"/>
<path d="M132.26 305.98L133.2 309.5M133.2 309.5L135.78 312.08M135.78 312.08L139.3 313.02"/>
<path d="M167.47 186.27L139.3 186.27"/>
<path d="M139.3 186.27L139.3 270.77"/>
<path d="M223.8 228.52L223.8 270.77"/>
<path d="M209.72 313.02L139.3 313.02"/>
<path d="M223.8 334.15L230.84 332.26M230.84 332.26L236 327.1M236 327.1L237.88 320.06"/>
<path d="M139.3 165.14L135.78 166.09M135.78 166.09L133.2 168.66M133.2 168.66L132.26 172.18"/>
<path d="M209.72 200.35L181.55 200.35"/>
<path d="M519.56 115.85L519.56 228.52"/>
<path d="M195.63 144.02L195.63 101.77"/>
<path d="M167.47 284.85L167.47 186.27"/>
<path d="M181.55 270.77L181.55 200.35"/>
<path d="M167.47 186.27L181.55 200.35"/>
<path d="M519.56 115.85L519.56 66.56"/>
<path d="M223.8 101.77L216.76 103.65M216.76 103.65L211.6 108.81M211.6 108.81L209.72 115.85"/>
<path d="M237.88 284.85L167.47 284.85"/>
<path d="M266.05 186.27L251.97 186.27"/>
<path d="M266.05 200.35L266.05 186.27"/>
<path d="M251.97 200.35L266.05 200.35"/>
<path d="M251.97 186.27L251.97 200.35"/>
<path d="M237.88 214.44L237.88 172.18"/>
<path d="M280.14 214.44L237.88 214.44"/>
<path d="M280.14 172.18L280.14 214.44"/>
<path d="M237.88 172.18L280.14 172.18"/>
<path d="M237.88 172.18L251.97 186.27"/>
<path d="M266.05 186.27L280.14 172.18"/>
<path d="M266.05 200.35L280.14 214.44"/>
<path d="M251.97 200.35L237.88 214.44"/>
<path d="M72.74 179.23L59.32 198M59.32 198L79.44 198M72.74 179.23L72.74 207.39"/>
<path d="M505.47 242.6L237.88 242.6"/>
<path d="M223.8 101.77L505.47 101.77"/>
<path d="M209.72 66.56L519.56 66.56"/>
<path d="M188.59 45.43L540.68 45.43"/>
<path d="M209.72 66.56L188.59 66.56"/>
<path d="M519.56 66.56L540.68 66.56"/>
<path d="M132.26 172.18L132.26 305.98"/>
<path d="M209.72 165.14L139.3 165.14"/>
<path d="M237.88 284.85L237.88 320.06"/>
<path d="M209.72 144.02L125.22 144.02"/>
<path d="M111.13 158.1L111.13 320.06"/>
<path d="M223.8 334.15L125.22 334.15"/>
<path d="M385.76 242.6L385.76 313.02"/>
<path d="M343.51 242.6L343.51 313.02"/>
<path d="M287.18 242.6L287.18 313.02"/>
</g>
</g>
</svg>
