<?xml version="1.0" standalone="no"?><svg xmlns="http://www.w3.org/2000/svg" width="600.000" height="450.000" viewBox="0.0 0.0 600.000 450.000" version="1.1">
<title>Acme Converter - Post-processed with EDS-Designer: 14.44 (info@symca.com)</title>
<desc>Acme Converter - Post-processed with EDS-Designer: 14.44 (info@symca.com)</desc>
<g id="EDS_STYLE_GROUP" fill="none" stroke="black" stroke-width="1.0">
<g id="0" display="visible">
<path d="M206.62 404.55L206.62 369.09M208.31 369.09L208.31 404.55M201.56 369.09L221.82 369.09M221.82 369.09L226.89 370.78M226.89 370.78L228.58 372.47M228.58 372.47L230.27 375.84M230.27 375.84L230.27 379.22M230.27 379.22L228.58 382.6M228.58 382.6L226.89 384.29M226.89 384.29L221.82 385.98M221.82 369.09L225.2 370.78M225.2 370.78L226.89 372.47M226.89 372.47L228.58 375.84M228.58 375.84L228.58 379.22M228.58 379.22L226.89 382.6M226.89 382.6L225.2 384.29M225.2 384.29L221.82 385.98M208.31 385.98L221.82 385.98M221.82 385.98L226.89 387.66M226.89 387.66L228.58 389.35M228.58 389.35L230.27 392.73M230.27 392.73L230.27 397.8M230.27 397.8L228.58 401.17M228.58 401.17L226.89 402.86M226.89 402.86L221.82 404.55M221.82 404.55L201.56 404.55M221.82 385.98L225.2 387.66M225.2 387.66L226.89 389.35M226.89 389.35L228.58 392.73M228.58 392.73L228.58 397.8M228.58 397.8L226.89 401.17M226.89 401.17L225.2 402.86M225.2 402.86L221.82 404.55M243.78 404.55L243.78 369.09M245.46 369.09L245.46 404.55M238.71 369.09L250.53 369.09M238.71 404.55L264.04 404.55M264.04 404.55L264.04 394.42M264.04 394.42L262.35 404.55M284.3 369.09L272.48 404.55M284.3 369.09L296.12 404.55M284.3 374.15L294.44 404.55M275.86 394.42L291.06 394.42M269.11 404.55L279.24 404.55M289.37 404.55L299.5 404.55M328.21 374.15L329.9 379.22M329.9 379.22L329.9 369.09M329.9 369.09L328.21 374.15M328.21 374.15L324.83 370.78M324.83 370.78L319.77 369.09M319.77 369.09L316.39 369.09M316.39 369.09L311.32 370.78M311.32 370.78L307.94 374.15M307.94 374.15L306.26 377.53M306.26 377.53L304.57 382.6M304.57 382.6L304.57 391.04M304.57 391.04L306.26 396.11M306.26 396.11L307.94 399.48M307.94 399.48L311.32 402.86M311.32 402.86L316.39 404.55M316.39 404.55L319.77 404.55M319.77 404.55L324.83 402.86M324.83 402.86L328.21 399.48M328.21 399.48L329.9 396.11M316.39 369.09L313.01 370.78M313.01 370.78L309.63 374.15M309.63 374.15L307.94 377.53M307.94 377.53L306.26 382.6M306.26 382.6L306.26 391.04M306.26 391.04L307.94 396.11M307.94 396.11L309.63 399.48M309.63 399.48L313.01 402.86M313.01 402.86L316.39 404.55M345.1 404.55L345.1 369.09M346.78 369.09L346.78 404.55M368.74 369.09L346.78 391.04M355.23 384.29L368.74 404.55M353.54 384.29L367.05 404.55M340.03 369.09L351.85 369.09M361.98 369.09L372.11 369.09M340.03 404.55L351.85 404.55M361.98 404.55L372.11 404.55"/>
<path d="M349.38 78.45L347.74 72.14M347.74 72.14L344.02 66.79M344.02 66.79L338.67 63.06M338.67 63.06L332.36 61.43"/>
<path d="M240.87 61.43L234.56 63.06M234.56 63.06L229.21 66.79M229.21 66.79L225.48 72.14M225.48 72.14L223.84 78.45"/>
<path d="M240.87 50.08L230.7 53.35M230.7 53.35L222.05 59.63M222.05 59.63L215.77 68.28M215.77 68.28L212.5 78.45"/>
<path d="M309.66 78.45L298.31 81.28"/>
<path d="M327.39 72.77L245.83 72.77"/>
<path d="M315.34 106.82L257.89 106.82"/>
<path d="M315.34 95.47L257.89 95.47"/>
<path d="M321.01 118.17L252.21 118.17"/>
<path d="M299.73 295.48L321.01 295.48"/>
<path d="M257.18 172.07L316.05 172.07"/>
<path d="M252.21 160.72L321.01 160.72"/>
<path d="M252.21 155.05L321.01 155.05"/>
<path d="M252.21 278.45L321.01 278.45"/>
<path d="M252.21 272.78L321.01 272.78"/>
<path d="M257.18 261.43L316.05 261.43"/>
<path d="M311.08 306.82L321.01 306.82"/>
<path d="M228.7 341.01L345.5 341.02"/>
<path d="M229.52 255.76L229.52 177.74"/>
<path d="M235.19 255.76L235.19 177.74"/>
<path d="M246.54 250.79L246.54 182.71"/>
<path d="M189.8 204.69L189.8 221.71"/>
<path d="M169.94 168.9L169.94 265.43"/>
<path d="M192.64 235.9L201.15 235.9"/>
<path d="M192.64 224.55L212.5 224.55"/>
<path d="M184.9 285.36L194.44 297.61M194.44 297.61L206.08 307.87M206.08 307.87L219.42 315.81M219.42 315.81L233.99 321.14M233.99 321.14L249.3 323.69"/>
<path d="M201.15 264.36L205.81 277.91M205.81 277.91L213.95 289.7M213.95 289.7L224.97 298.86M224.97 298.86L238.04 304.71M238.04 304.71L252.21 306.82"/>
<path d="M170.69 268.6L174.77 276.77"/>
<path d="M192.64 224.55L192.64 235.9"/>
<path d="M189.8 221.71L192.64 224.55"/>
<path d="M177.18 279.5L182.86 283.28"/>
<path d="M255.04 333.4L249.3 323.69"/>
<path d="M252.21 295.48L273.49 295.48"/>
<path d="M252.21 306.82L262.14 306.82"/>
<path d="M252.21 306.82L262.14 306.82"/>
<path d="M212.5 253.02L213.44 263.75M213.44 263.75L217.17 273.85M217.17 273.85L223.42 282.61M223.42 282.61L231.75 289.43M231.75 289.43L241.58 293.82M241.58 293.82L252.21 295.48"/>
<path d="M229.52 255.76L234.26 265.84M234.26 265.84L242.13 273.72M242.13 273.72L252.21 278.45"/>
<path d="M212.5 224.55L201.15 235.9"/>
<path d="M235.19 255.76L236.83 262.07M236.83 262.07L240.55 267.42M240.55 267.42L245.9 271.14M245.9 271.14L252.21 272.78"/>
<path d="M296.9 321.01L276.33 321.01"/>
<path d="M276.33 321.01L273.49 318.17"/>
<path d="M262.14 306.82L262.14 318.17"/>
<path d="M262.14 318.17L273.49 318.17"/>
<path d="M273.49 318.17L273.49 295.48"/>
<path d="M273.49 295.48L262.14 306.82"/>
<path d="M299.73 318.17L296.9 321.01"/>
<path d="M299.73 318.17L311.08 318.17"/>
<path d="M311.08 318.17L311.08 306.82"/>
<path d="M299.73 295.48L299.73 318.17"/>
<path d="M299.73 295.48L311.08 306.82"/>
<path d="M201.15 190.51L192.64 190.51"/>
<path d="M223.84 129.51L213.76 144.32M213.76 144.32L206.13 160.53M206.13 160.53L201.15 177.74"/>
<path d="M212.5 201.86L192.64 201.86"/>
<path d="M178.66 153.63L192.94 145.19"/>
<path d="M192.64 190.51L192.64 201.86"/>
<path d="M192.64 201.86L189.8 204.69"/>
<path d="M235.19 138.02L226.41 145.87M226.41 145.87L219.5 155.4M219.5 155.4L214.79 166.19M214.79 166.19L212.5 177.74"/>
<path d="M212.5 253.02L212.5 224.55"/>
<path d="M201.15 264.36L201.15 224.55"/>
<path d="M212.5 201.86L201.15 190.51"/>
<path d="M252.21 155.05L242.13 159.78M242.13 159.78L234.26 167.66M234.26 167.66L229.52 177.74"/>
<path d="M252.21 160.72L245.9 162.36M245.9 162.36L240.55 166.08M240.55 166.08L236.83 171.43M236.83 171.43L235.19 177.74"/>
<path d="M299.38 214.27L274.56 214.27"/>
<path d="M272.78 233.77L301.15 233.77"/>
<path d="M272.78 212.49L272.78 233.77"/>
<path d="M301.15 233.77L301.15 212.49"/>
<path d="M257.89 106.82L252.21 112.49"/>
<path d="M257.89 95.47L252.21 101.14"/>
<path d="M263.56 78.45L258.52 80.82M258.52 80.82L254.58 84.76M254.58 84.76L252.21 89.8"/>
<path d="M252.21 118.17L252.21 89.8"/>
<path d="M212.5 78.45L212.5 117.28"/>
<path d="M223.84 78.45L223.84 129.51"/>
<path d="M235.19 83.41L235.19 138.02"/>
<path d="M235.19 138.02L223.84 129.51"/>
<path d="M252.21 95.47L235.19 95.47"/>
<path d="M298.31 80.4L274.91 80.4"/>
<path d="M274.91 81.28L263.56 78.45"/>
<path d="M274.91 106.82L274.91 80.4"/>
<path d="M298.31 106.82L298.31 80.4"/>
<path d="M383.42 204.69L383.42 221.71"/>
<path d="M343.71 255.76L343.71 177.74"/>
<path d="M338.03 255.76L338.03 177.74"/>
<path d="M326.68 250.79L326.68 182.71"/>
<path d="M360.73 224.55L372.08 235.9"/>
<path d="M380.59 224.55L360.73 224.55"/>
<path d="M321.01 306.82L333.22 305.71M333.22 305.71L344.8 301.68M344.8 301.68L355.05 294.96M355.05 294.96L363.37 285.95M363.37 285.95L369.26 275.2M369.26 275.2L372.37 263.34"/>
<path d="M321.01 295.48L331.62 293.83M331.62 293.83L341.42 289.47M341.42 289.47L349.74 282.69M349.74 282.69L355.99 273.96M355.99 273.96L359.74 263.91M359.74 263.91L360.73 253.22"/>
<path d="M321.01 278.45L331.09 273.72M331.09 273.72L338.97 265.84M338.97 265.84L343.71 255.76"/>
<path d="M321.01 272.78L327.32 271.14M327.32 271.14L332.67 267.42M332.67 267.42L336.39 262.07M336.39 262.07L338.03 255.76"/>
<path d="M380.59 224.55L380.59 235.9"/>
<path d="M383.42 221.71L380.59 224.55"/>
<path d="M380.59 235.9L372.08 235.9"/>
<path d="M360.73 180.58L358.96 168.23M358.96 168.23L354.4 156.62M354.4 156.62L347.3 146.37M347.3 146.37L338.03 138.02"/>
<path d="M372.08 169.23L367.03 153.79M367.03 153.79L359.39 139.46M359.39 139.46L349.38 126.68"/>
<path d="M360.73 201.86L372.08 190.51"/>
<path d="M360.73 201.86L380.59 201.86"/>
<path d="M360.73 253.22L360.73 224.55"/>
<path d="M343.71 177.74L338.97 167.66M338.97 167.66L331.09 159.78M331.09 159.78L321.01 155.05"/>
<path d="M338.03 177.74L336.39 171.43M336.39 171.43L332.67 166.08M332.67 166.08L327.32 162.36M327.32 162.36L321.01 160.72"/>
<path d="M372.08 265.24L372.08 224.55"/>
<path d="M380.59 190.51L380.59 201.86"/>
<path d="M380.59 201.86L383.42 204.69"/>
<path d="M372.08 190.51L380.59 190.51"/>
<path d="M321.01 118.17L321.01 89.8"/>
<path d="M349.38 129.51L349.38 78.45"/>
<path d="M338.03 138.02L338.03 83.41"/>
<path d="M321.01 112.49L315.34 106.82"/>
<path d="M338.03 138.02L349.38 129.51"/>
<path d="M338.03 95.47L321.01 95.47"/>
<path d="M321.01 101.14L315.34 95.47"/>
<path d="M321.01 89.8L318.64 84.76M318.64 84.76L314.7 80.82M314.7 80.82L309.66 78.45"/>
<path d="M333.07 50.08L240.87 50.08"/>
<path d="M332.36 61.43L240.87 61.43"/>
<path d="M208.95 326.68L213.22 334.25M213.22 334.25L220.27 339.34M220.27 339.34L228.79 341.01"/>
<path d="M208.95 326.68L195.67 298.89"/>
<path d="M326.68 182.71L325.26 177.39M325.26 177.39L321.37 173.49M321.37 173.49L316.05 172.07"/>
<path d="M257.18 172.07L251.86 173.49M251.86 173.49L247.97 177.39M247.97 177.39L246.54 182.71"/>
<path d="M246.54 250.79L247.97 256.11M247.97 256.11L251.86 260.01M251.86 260.01L257.18 261.43"/>
<path d="M316.05 261.43L321.37 260.01M321.37 260.01L325.26 256.11M325.26 256.11L326.68 250.79"/>
<path d="M338.03 83.41L336.61 78.09M336.61 78.09L332.71 74.2M332.71 74.2L327.39 72.77"/>
<path d="M245.83 72.77L240.51 74.2M240.51 74.2L236.62 78.09M236.62 78.09L235.19 83.41"/>
<path d="M258.6 201.86L258.6 244.41"/>
<path d="M315.34 201.86L258.6 201.86"/>
<path d="M315.34 244.41L315.34 201.86"/>
<path d="M258.6 244.41L315.34 244.41"/>
<path d="M272.78 212.49L258.6 201.86"/>
<path d="M272.78 233.77L258.6 244.41"/>
<path d="M301.15 233.77L315.34 244.41"/>
<path d="M315.34 201.86L301.15 212.49"/>
<path d="M274.56 201.86L274.56 180.58"/>
<path d="M274.56 191.22L299.38 191.22"/>
<path d="M299.38 180.58L299.38 201.86"/>
<path d="M299.38 214.27L301.15 214.27"/>
<path d="M274.56 214.27L272.78 214.27"/>
<path d="M274.56 180.58L299.38 180.58"/>
<path d="M274.56 185.9L299.38 185.9"/>
<path d="M261.38 339.09L312.55 339.09"/>
<path d="M255.04 333.4L257.51 337.04M257.51 337.04L261.38 339.09"/>
<path d="M169.94 265.43L170.69 268.6"/>
<path d="M174.77 276.77L177.18 279.5"/>
<path d="M184.9 285.36L182.86 283.28"/>
<path d="M197.39 141.46L208.23 128.82"/>
<path d="M208.23 128.82L211.4 123.43M211.4 123.43L212.5 117.28"/>
<path d="M192.94 145.19L197.39 141.46"/>
<path d="M178.66 153.63L174.02 157.59M174.02 157.59L170.99 162.89M170.99 162.89L169.94 168.9"/>
<path d="M376.54 141.46L365.71 128.82"/>
<path d="M376.54 141.46L380.99 145.19"/>
<path d="M361.44 117.28L362.54 123.43M362.54 123.43L365.71 128.82"/>
<path d="M403.99 168.9L402.94 162.89M402.94 162.89L399.92 157.59M399.92 157.59L395.28 153.63"/>
<path d="M395.28 153.63L380.99 145.19"/>
<path d="M403.99 168.9L403.99 265.43"/>
<path d="M361.44 78.45L358.16 68.28M358.16 68.28L351.89 59.63M351.89 59.63L343.24 53.35M343.24 53.35L333.07 50.08"/>
<path d="M361.44 78.45L361.44 117.28"/>
<path d="M396.75 279.5L391.07 283.28"/>
<path d="M403.24 268.6L399.16 276.77"/>
<path d="M396.75 279.5L399.16 276.77"/>
<path d="M403.24 268.6L403.99 265.43"/>
<path d="M391.07 283.28L389.03 285.36"/>
<path d="M364.98 326.68L378.26 298.89"/>
<path d="M324.64 323.69L339.94 321.14M339.94 321.14L354.52 315.81M354.52 315.81L367.85 307.87M367.85 307.87L379.49 297.61M379.49 297.61L389.03 285.36"/>
<path d="M345.38 341.02L353.82 339.28M353.82 339.28L360.77 334.19M360.77 334.19L364.98 326.68"/>
<path d="M318.89 333.4L324.64 323.69"/>
<path d="M312.55 339.09L316.43 337.04M316.43 337.04L318.89 333.4"/>
<path d="M212.5 201.86L212.5 177.74"/>
<path d="M201.15 201.86L201.15 177.74"/>
<path d="M360.73 201.86L360.73 180.58"/>
<path d="M372.08 201.86L372.08 169.23"/>
<path d="M425.31 211.37L428.01 210.02M428.01 210.02L432.06 205.96M432.06 205.96L432.06 234.33"/>
</g>
</g>
</svg>
