<?xml version="1.0" standalone="no"?><svg xmlns="http://www.w3.org/2000/svg" width="600.000" height="450.000" viewBox="0.0 0.0 600.000 450.000" version="1.1">
<title>Acme Converter - Post-processed with EDS-Designer: 14.44 (info@symca.com)</title>
<desc>Acme Converter - Post-processed with EDS-Designer: 14.44 (info@symca.com)</desc>
<g id="EDS_STYLE_GROUP" fill="none" stroke="black" stroke-width="1.0">
<g id="0" display="visible">
<path d="M348.67 113.5L397.88 172.56"/>
<path d="M255.91 113.43L208.52 168.31"/>
<path d="M344.06 160.41L344.06 125.84"/>
<path d="M260.52 160.41L260.52 125.84"/>
<path d="M234.74 339.02L234.74 321.73M235.43 321.73L235.43 339.02M232.66 321.73L239.58 321.73M239.58 321.73L241.65 322.56M241.65 322.56L243.04 324.2M243.04 324.2L243.73 325.85M243.73 325.85L244.42 328.32M244.42 328.32L244.42 332.44M244.42 332.44L243.73 334.9M243.73 334.9L243.04 336.55M243.04 336.55L241.65 338.2M241.65 338.2L239.58 339.02M239.58 339.02L232.66 339.02M239.58 321.73L240.96 322.56M240.96 322.56L242.34 324.2M242.34 324.2L243.04 325.85M243.04 325.85L243.73 328.32M243.73 328.32L243.73 332.44M243.73 332.44L243.04 334.9M243.04 334.9L242.34 336.55M242.34 336.55L240.96 338.2M240.96 338.2L239.58 339.02M254.1 321.73L249.26 339.02M254.1 321.73L258.94 339.02M254.1 324.2L258.25 339.02M250.64 334.08L256.87 334.08M247.88 339.02L252.03 339.02M256.18 339.02L260.33 339.02M264.48 339.02L264.48 321.73M265.17 321.73L265.17 339.02M262.4 321.73L270.7 321.73M270.7 321.73L272.78 322.56M272.78 322.56L273.47 323.38M273.47 323.38L274.16 325.03M274.16 325.03L274.16 326.67M274.16 326.67L273.47 328.32M273.47 328.32L272.78 329.14M272.78 329.14L270.7 329.97M270.7 329.97L265.17 329.97M270.7 321.73L272.09 322.56M272.09 322.56L272.78 323.38M272.78 323.38L273.47 325.03M273.47 325.03L273.47 326.67M273.47 326.67L272.78 328.32M272.78 328.32L272.09 329.14M272.09 329.14L270.7 329.97M262.4 339.02L267.25 339.02M268.63 329.97L270.01 330.79M270.01 330.79L270.7 331.61M270.7 331.61L272.78 337.37M272.78 337.37L273.47 338.2M273.47 338.2L274.16 338.2M274.16 338.2L274.85 337.37M270.01 330.79L270.7 332.44M270.7 332.44L272.09 338.2M272.09 338.2L272.78 339.02M272.78 339.02L274.16 339.02M274.16 339.02L274.85 337.37M274.85 337.37L274.85 336.55M279.7 339.02L279.7 321.73M280.39 321.73L280.39 339.02M289.38 321.73L280.39 332.44M283.85 329.14L289.38 339.02M283.15 329.14L288.69 339.02M277.62 321.73L282.46 321.73M286.61 321.73L290.76 321.73M277.62 339.02L282.46 339.02M286.61 339.02L290.76 339.02M317.05 324.2L317.74 326.67M317.74 326.67L317.74 321.73M317.74 321.73L317.05 324.2M317.05 324.2L315.66 322.56M315.66 322.56L313.59 321.73M313.59 321.73L312.2 321.73M312.2 321.73L310.13 322.56M310.13 322.56L308.75 324.2M308.75 324.2L308.05 325.85M308.05 325.85L307.36 328.32M307.36 328.32L307.36 332.44M307.36 332.44L308.05 334.9M308.05 334.9L308.75 336.55M308.75 336.55L310.13 338.2M310.13 338.2L312.2 339.02M312.2 339.02L313.59 339.02M313.59 339.02L315.66 338.2M315.66 338.2L317.05 336.55M312.2 321.73L310.82 322.56M310.82 322.56L309.44 324.2M309.44 324.2L308.75 325.85M308.75 325.85L308.05 328.32M308.05 328.32L308.05 332.44M308.05 332.44L308.75 334.9M308.75 334.9L309.44 336.55M309.44 336.55L310.82 338.2M310.82 338.2L312.2 339.02M317.05 332.44L317.05 339.02M317.74 332.44L317.74 339.02M314.97 332.44L319.81 332.44M325.35 339.02L325.35 321.73M326.04 321.73L326.04 339.02M323.27 321.73L331.57 321.73M331.57 321.73L333.65 322.56M333.65 322.56L334.34 323.38M334.34 323.38L335.03 325.03M335.03 325.03L335.03 326.67M335.03 326.67L334.34 328.32M334.34 328.32L333.65 329.14M333.65 329.14L331.57 329.97M331.57 329.97L326.04 329.97M331.57 321.73L332.96 322.56M332.96 322.56L333.65 323.38M333.65 323.38L334.34 325.03M334.34 325.03L334.34 326.67M334.34 326.67L333.65 328.32M333.65 328.32L332.96 329.14M332.96 329.14L331.57 329.97M323.27 339.02L328.11 339.02M329.5 329.97L330.88 330.79M330.88 330.79L331.57 331.61M331.57 331.61L333.65 337.37M333.65 337.37L334.34 338.2M334.34 338.2L335.03 338.2M335.03 338.2L335.72 337.37M330.88 330.79L331.57 332.44M331.57 332.44L332.96 338.2M332.96 338.2L333.65 339.02M333.65 339.02L335.03 339.02M335.03 339.02L335.72 337.37M335.72 337.37L335.72 336.55M340.56 339.02L340.56 321.73M341.26 321.73L341.26 339.02M345.41 326.67L345.41 333.26M338.49 321.73L349.56 321.73M349.56 321.73L349.56 326.67M349.56 326.67L348.86 321.73M341.26 329.97L345.41 329.97M338.49 339.02L349.56 339.02M349.56 339.02L349.56 334.08M349.56 334.08L348.86 339.02M354.4 321.73L359.24 330.79M359.24 330.79L359.24 339.02M355.09 321.73L359.93 330.79M359.93 330.79L359.93 339.02M364.77 321.73L359.93 330.79M353.01 321.73L357.16 321.73M362.01 321.73L366.16 321.73M357.16 339.02L362.01 339.02"/>
<path d="M290.77 243.95L285 243.95"/>
<path d="M273.48 249.71L290.77 249.71"/>
<path d="M296.53 238.19L285 238.19"/>
<path d="M267.72 255.47L296.53 255.47"/>
<path d="M293.65 226.67L267.72 226.67"/>
<path d="M267.72 261.24L302.29 261.24"/>
<path d="M296.53 192.1L285 192.1"/>
<path d="M293.65 180.57L267.72 180.57"/>
<path d="M290.77 197.86L285 197.86"/>
<path d="M273.48 203.62L290.77 203.62"/>
<path d="M267.72 215.14L302.29 215.14"/>
<path d="M267.72 209.38L296.53 209.38"/>
<path d="M283.56 143.12L321.01 143.12"/>
<path d="M338.3 140.24L266.28 140.24"/>
<path d="M266.28 134.48L338.3 134.48"/>
<path d="M260.52 160.41L344.06 160.41"/>
<path d="M234.59 313.09L364.23 313.09"/>
<path d="M237.47 284.28L367.11 284.28"/>
<path d="M259.08 267L287.85 269.6M287.85 269.6L316.73 269.6M316.73 269.6L345.5 267"/>
<path d="M240.35 272.76L270.46 277.08M270.46 277.08L300.85 278.52M300.85 278.52L331.23 277.08M331.23 277.08L361.35 272.76"/>
<path d="M361.35 169.05L322 166.47M322 166.47L282.58 166.47M282.58 166.47L243.23 169.05"/>
<path d="M287.89 249.71L287.89 261.24"/>
<path d="M276.36 261.24L276.36 249.71"/>
<path d="M264.84 258.36L265.68 260.39M265.68 260.39L267.72 261.24"/>
<path d="M256.2 261.24L258.23 260.39M258.23 260.39L259.08 258.36"/>
<path d="M247.55 249.71L247.55 261.24"/>
<path d="M224.51 258.36L225.35 260.39M225.35 260.39L227.39 261.24"/>
<path d="M236.03 261.24L236.03 249.71"/>
<path d="M201.76 183.33L191.38 261.24"/>
<path d="M200.02 243.95L200.02 264.12"/>
<path d="M220.18 249.71L221.94 258.53M221.94 258.53L226.94 266.01M226.94 266.01L234.41 271.01M234.41 271.01L243.23 272.76"/>
<path d="M191.38 261.24L190.7 274.08M190.7 274.08L193.83 286.56M193.83 286.56L200.51 297.56M200.51 297.56L210.12 306.11M210.12 306.11L221.83 311.44M221.83 311.44L234.59 313.09"/>
<path d="M227.39 261.24L256.2 261.24"/>
<path d="M247.55 261.24L236.03 261.24"/>
<path d="M214.42 261.24L216.18 270.06M216.18 270.06L221.17 277.53M221.17 277.53L228.65 282.53M228.65 282.53L237.47 284.28"/>
<path d="M200.02 264.12L214.42 264.12"/>
<path d="M269.16 295.81L286.44 295.81"/>
<path d="M269.16 304.45L269.16 295.81"/>
<path d="M286.44 304.45L269.16 304.45"/>
<path d="M286.44 295.81L286.44 304.45"/>
<path d="M259.08 275.64L259.08 267"/>
<path d="M287.89 261.24L276.36 261.24"/>
<path d="M189.29 201.7L181.29 201.7M181.29 201.7L187.29 192.1M187.29 192.1L187.29 206.5"/>
<path d="M178.41 249.71L176.41 247.31M176.41 247.31L176.41 244.91M176.41 244.91L178.41 242.51M178.41 242.51L182.41 242.51M182.41 242.51L184.41 240.11M184.41 240.11L184.41 237.71M184.41 237.71L182.41 235.31M182.41 235.31L178.41 235.31M178.41 235.31L176.41 237.71M176.41 237.71L176.41 240.11M176.41 240.11L178.41 242.51M182.41 242.51L184.41 244.91M184.41 244.91L184.41 247.31M184.41 247.31L182.41 249.71M182.41 249.71L178.41 249.71"/>
<path d="M264.84 183.45L264.84 212.26"/>
<path d="M259.08 212.26L259.08 183.45"/>
<path d="M238.91 186.33L238.91 197.86"/>
<path d="M244.67 197.86L244.67 186.33"/>
<path d="M285 197.86L285 186.33"/>
<path d="M279.24 186.33L279.24 197.86"/>
<path d="M273.48 197.86L267.72 192.1"/>
<path d="M256.2 209.38L256.2 192.1"/>
<path d="M256.2 192.1L250.43 197.86"/>
<path d="M267.72 192.1L267.72 209.38"/>
<path d="M224.51 192.1L224.51 212.26"/>
<path d="M227.39 192.1L227.39 209.38"/>
<path d="M233.15 197.86L227.39 192.1"/>
<path d="M214.42 212.26L214.42 183.45"/>
<path d="M220.18 192.1L220.18 249.71"/>
<path d="M256.2 226.67L236.03 226.67"/>
<path d="M244.67 232.43L238.91 232.43"/>
<path d="M233.15 249.71L250.43 249.71"/>
<path d="M227.39 255.47L256.2 255.47"/>
<path d="M227.39 215.14L256.2 215.14"/>
<path d="M233.15 203.62L250.43 203.62"/>
<path d="M247.55 215.14L236.03 215.14"/>
<path d="M227.39 209.38L256.2 209.38"/>
<path d="M224.51 238.19L236.03 226.67"/>
<path d="M205.78 212.26L205.78 235.31"/>
<path d="M214.42 243.95L200.02 243.95"/>
<path d="M214.42 235.31L214.42 243.95"/>
<path d="M205.78 235.31L214.42 235.31"/>
<path d="M238.91 232.43L238.91 243.95"/>
<path d="M224.51 238.19L224.51 258.36"/>
<path d="M227.39 238.19L227.39 255.47"/>
<path d="M238.91 243.95L233.15 243.95"/>
<path d="M233.15 243.95L233.15 249.71"/>
<path d="M233.15 243.95L227.39 238.19"/>
<path d="M233.15 249.71L227.39 255.47"/>
<path d="M238.91 238.19L227.39 238.19"/>
<path d="M214.42 212.26L205.78 212.26"/>
<path d="M224.51 212.26L225.35 214.3M225.35 214.3L227.39 215.14"/>
<path d="M238.91 197.86L233.15 197.86"/>
<path d="M236.03 215.14L236.03 203.62"/>
<path d="M233.15 197.86L233.15 203.62"/>
<path d="M233.15 203.62L227.39 209.38"/>
<path d="M267.72 226.67L265.68 227.51M265.68 227.51L264.84 229.55"/>
<path d="M259.08 229.55L258.23 227.51M258.23 227.51L256.2 226.67"/>
<path d="M244.67 243.95L244.67 232.43"/>
<path d="M264.84 229.55L264.84 258.36"/>
<path d="M259.08 258.36L259.08 229.55"/>
<path d="M250.43 249.71L250.43 243.95"/>
<path d="M256.2 255.47L256.2 238.19"/>
<path d="M256.2 238.19L250.43 243.95"/>
<path d="M256.2 255.47L250.43 249.71"/>
<path d="M250.43 243.95L244.67 243.95"/>
<path d="M256.2 238.19L244.67 238.19"/>
<path d="M267.72 238.19L267.72 255.47"/>
<path d="M285 243.95L285 232.43"/>
<path d="M279.24 232.43L279.24 243.95"/>
<path d="M273.48 243.95L273.48 249.71"/>
<path d="M279.24 243.95L273.48 243.95"/>
<path d="M285 232.43L279.24 232.43"/>
<path d="M279.24 238.19L267.72 238.19"/>
<path d="M273.48 249.71L267.72 255.47"/>
<path d="M273.48 243.95L267.72 238.19"/>
<path d="M264.84 212.26L265.68 214.3M265.68 214.3L267.72 215.14"/>
<path d="M256.2 215.14L258.23 214.3M258.23 214.3L259.08 212.26"/>
<path d="M247.55 203.62L247.55 215.14"/>
<path d="M250.43 203.62L250.43 197.86"/>
<path d="M256.2 209.38L250.43 203.62"/>
<path d="M250.43 197.86L244.67 197.86"/>
<path d="M273.48 197.86L273.48 203.62"/>
<path d="M287.89 203.62L287.89 215.14"/>
<path d="M287.89 215.14L276.36 215.14"/>
<path d="M276.36 215.14L276.36 203.62"/>
<path d="M279.24 197.86L273.48 197.86"/>
<path d="M273.48 203.62L267.72 209.38"/>
<path d="M244.67 186.33L238.91 186.33"/>
<path d="M256.2 180.57L236.03 180.57"/>
<path d="M237.47 160.41L243.23 160.41"/>
<path d="M243.23 169.05L234.41 170.8M234.41 170.8L226.94 175.8M226.94 175.8L221.94 183.28M221.94 183.28L220.18 192.1"/>
<path d="M237.47 160.41L228.65 162.16M228.65 162.16L221.17 167.16M221.17 167.16L216.18 174.63M216.18 174.63L214.42 183.45"/>
<path d="M208.52 168.31L204.04 175.32M204.04 175.32L201.76 183.33"/>
<path d="M224.51 192.1L236.03 180.57"/>
<path d="M238.91 192.1L227.39 192.1"/>
<path d="M283.56 143.12L283.56 160.41"/>
<path d="M267.72 180.57L265.68 181.42M265.68 181.42L264.84 183.45"/>
<path d="M259.08 183.45L258.23 181.42M258.23 181.42L256.2 180.57"/>
<path d="M256.2 192.1L244.67 192.1"/>
<path d="M243.23 160.41L260.52 160.41"/>
<path d="M285 186.33L279.24 186.33"/>
<path d="M279.24 192.1L267.72 192.1"/>
<path d="M283.56 140.24L283.56 143.12"/>
<path d="M266.28 140.24L266.28 134.48"/>
<path d="M305.17 261.24L305.17 243.95"/>
<path d="M299.41 243.95L299.41 261.24"/>
<path d="M368.55 261.24L368.55 249.71"/>
<path d="M377.19 261.24L379.23 260.39M379.23 260.39L380.07 258.36"/>
<path d="M357.03 249.71L357.03 261.24"/>
<path d="M345.5 258.36L346.35 260.39M346.35 260.39L348.38 261.24"/>
<path d="M336.86 261.24L338.9 260.39M338.9 260.39L339.74 258.36"/>
<path d="M328.22 261.24L328.22 249.71"/>
<path d="M316.69 249.71L316.69 261.24"/>
<path d="M404.56 191L404.56 264.12"/>
<path d="M390.16 261.24L390.16 235.31"/>
<path d="M361.35 272.76L370.17 271.01M370.17 271.01L377.64 266.01M377.64 266.01L382.64 258.53M382.64 258.53L384.39 249.71"/>
<path d="M364.23 313.09L375.74 310.63M375.74 310.63L386.19 305.2M386.19 305.2L394.82 297.19M394.82 297.19L401.02 287.18M401.02 287.18L404.35 275.89M404.35 275.89L404.56 264.12"/>
<path d="M367.11 284.28L375.93 282.53M375.93 282.53L383.41 277.53M383.41 277.53L388.4 270.06M388.4 270.06L390.16 261.24"/>
<path d="M336.86 261.24L302.29 261.24"/>
<path d="M309.49 307.33L309.49 292.93"/>
<path d="M292.21 292.93L292.21 307.33"/>
<path d="M292.21 307.33L309.49 307.33"/>
<path d="M332.54 295.81L315.25 295.81"/>
<path d="M332.54 304.45L332.54 295.81"/>
<path d="M315.25 304.45L332.54 304.45"/>
<path d="M315.25 295.81L315.25 304.45"/>
<path d="M299.41 261.24L305.17 261.24"/>
<path d="M309.49 292.93L292.21 292.93"/>
<path d="M316.69 261.24L328.22 261.24"/>
<path d="M357.03 261.24L368.55 261.24"/>
<path d="M377.19 261.24L348.38 261.24"/>
<path d="M345.5 275.64L345.5 267"/>
<path d="M390.16 183.45L388.4 174.63M388.4 174.63L383.41 167.16M383.41 167.16L375.93 162.16M375.93 162.16L367.11 160.41"/>
<path d="M384.39 192.1L382.64 183.28M382.64 183.28L377.64 175.8M377.64 175.8L370.17 170.8M370.17 170.8L361.35 169.05"/>
<path d="M299.41 186.33L299.41 206.5"/>
<path d="M296.53 192.1L290.77 197.86"/>
<path d="M296.53 209.38L296.53 192.1"/>
<path d="M305.17 186.33L305.17 206.5"/>
<path d="M377.19 192.1L377.19 209.38"/>
<path d="M348.38 209.38L348.38 192.1"/>
<path d="M348.38 192.1L354.14 197.86"/>
<path d="M371.43 197.86L377.19 192.1"/>
<path d="M345.5 212.26L345.5 183.45"/>
<path d="M380.07 192.1L380.07 212.26"/>
<path d="M365.67 186.33L365.67 197.86"/>
<path d="M359.91 197.86L359.91 186.33"/>
<path d="M339.74 183.45L339.74 212.26"/>
<path d="M331.1 197.86L336.86 192.1"/>
<path d="M308.05 192.1L313.81 197.86"/>
<path d="M308.05 209.38L308.05 192.1"/>
<path d="M336.86 192.1L336.86 209.38"/>
<path d="M319.57 197.86L319.57 186.33"/>
<path d="M325.34 186.33L325.34 197.86"/>
<path d="M310.93 226.67L336.86 226.67"/>
<path d="M331.1 243.95L336.86 238.19"/>
<path d="M336.86 255.47L308.05 255.47"/>
<path d="M331.1 249.71L336.86 255.47"/>
<path d="M325.34 238.19L336.86 238.19"/>
<path d="M336.86 215.14L302.29 215.14"/>
<path d="M331.1 203.62L336.86 209.38"/>
<path d="M336.86 209.38L308.05 209.38"/>
<path d="M293.65 226.67L293.65 232.43"/>
<path d="M310.93 226.67L310.93 232.43"/>
<path d="M308.05 238.19L313.81 243.95"/>
<path d="M308.05 255.47L313.81 249.71"/>
<path d="M308.05 238.19L319.57 238.19"/>
<path d="M299.41 255.47L305.17 255.47"/>
<path d="M299.41 249.71L299.41 255.47"/>
<path d="M305.17 249.71L299.41 249.71"/>
<path d="M305.17 243.95L305.17 249.71"/>
<path d="M290.77 249.71L290.77 243.95"/>
<path d="M299.41 232.43L299.41 243.95"/>
<path d="M299.41 243.95L302.29 243.95"/>
<path d="M296.53 255.47L296.53 238.19"/>
<path d="M293.65 232.43L299.41 232.43"/>
<path d="M296.53 255.47L290.77 249.71"/>
<path d="M296.53 238.19L290.77 243.95"/>
<path d="M310.93 232.43L305.17 232.43"/>
<path d="M308.05 255.47L308.05 238.19"/>
<path d="M305.17 243.95L302.29 243.95"/>
<path d="M305.17 232.43L305.17 243.95"/>
<path d="M319.57 232.43L325.34 232.43"/>
<path d="M325.34 243.95L331.1 243.95"/>
<path d="M331.1 249.71L313.81 249.71"/>
<path d="M313.81 249.71L313.81 243.95"/>
<path d="M313.81 243.95L319.57 243.95"/>
<path d="M331.1 243.95L331.1 249.71"/>
<path d="M325.34 232.43L325.34 243.95"/>
<path d="M319.57 243.95L319.57 232.43"/>
<path d="M308.05 209.38L313.81 203.62"/>
<path d="M293.65 220.9L310.93 220.9"/>
<path d="M310.93 226.67L310.93 215.14"/>
<path d="M293.65 226.67L310.93 226.67"/>
<path d="M293.65 215.14L293.65 226.67"/>
<path d="M290.77 203.62L290.77 197.86"/>
<path d="M299.41 206.5L305.17 206.5"/>
<path d="M296.53 209.38L290.77 203.62"/>
<path d="M328.22 215.14L328.22 203.62"/>
<path d="M316.69 215.14L328.22 215.14"/>
<path d="M316.69 203.62L316.69 215.14"/>
<path d="M313.81 197.86L319.57 197.86"/>
<path d="M313.81 203.62L313.81 197.86"/>
<path d="M331.1 203.62L313.81 203.62"/>
<path d="M331.1 197.86L331.1 203.62"/>
<path d="M325.34 197.86L331.1 197.86"/>
<path d="M348.38 226.67L346.35 227.51M346.35 227.51L345.5 229.55"/>
<path d="M339.74 229.55L338.9 227.51M338.9 227.51L336.86 226.67"/>
<path d="M380.07 238.19L368.55 226.67"/>
<path d="M377.19 255.47L348.38 255.47"/>
<path d="M348.38 238.19L359.91 238.19"/>
<path d="M354.14 243.95L359.91 243.95"/>
<path d="M371.43 249.71L354.14 249.71"/>
<path d="M336.86 238.19L336.86 255.47"/>
<path d="M348.38 255.47L354.14 249.71"/>
<path d="M348.38 238.19L354.14 243.95"/>
<path d="M348.38 255.47L348.38 238.19"/>
<path d="M354.14 249.71L354.14 243.95"/>
<path d="M345.5 258.36L345.5 229.55"/>
<path d="M339.74 229.55L339.74 258.36"/>
<path d="M359.91 232.43L365.67 232.43"/>
<path d="M365.67 238.19L377.19 238.19"/>
<path d="M371.43 249.71L377.19 255.47"/>
<path d="M371.43 243.95L377.19 238.19"/>
<path d="M371.43 243.95L371.43 249.71"/>
<path d="M365.67 243.95L371.43 243.95"/>
<path d="M377.19 238.19L377.19 255.47"/>
<path d="M380.07 238.19L380.07 258.36"/>
<path d="M359.91 243.95L359.91 232.43"/>
<path d="M365.67 232.43L365.67 243.95"/>
<path d="M348.38 226.67L368.55 226.67"/>
<path d="M371.43 203.62L354.14 203.62"/>
<path d="M357.03 215.14L368.55 215.14"/>
<path d="M354.14 197.86L359.91 197.86"/>
<path d="M377.19 215.14L348.38 215.14"/>
<path d="M377.19 209.38L348.38 209.38"/>
<path d="M336.86 215.14L338.9 214.3M338.9 214.3L339.74 212.26"/>
<path d="M345.5 212.26L346.35 214.3M346.35 214.3L348.38 215.14"/>
<path d="M357.03 203.62L357.03 215.14"/>
<path d="M354.14 203.62L354.14 197.86"/>
<path d="M348.38 209.38L354.14 203.62"/>
<path d="M377.19 215.14L379.23 214.3M379.23 214.3L380.07 212.26"/>
<path d="M365.67 197.86L371.43 197.86"/>
<path d="M368.55 215.14L368.55 203.62"/>
<path d="M371.43 197.86L371.43 203.62"/>
<path d="M371.43 203.62L377.19 209.38"/>
<path d="M310.93 180.57L336.86 180.57"/>
<path d="M325.34 192.1L336.86 192.1"/>
<path d="M312.37 143.12L312.37 160.41"/>
<path d="M321.01 143.12L321.01 160.41"/>
<path d="M292.21 143.12L292.21 160.41"/>
<path d="M308.05 192.1L319.57 192.1"/>
<path d="M293.65 186.33L299.41 186.33"/>
<path d="M293.65 180.57L293.65 186.33"/>
<path d="M310.93 186.33L305.17 186.33"/>
<path d="M310.93 180.57L310.93 186.33"/>
<path d="M319.57 186.33L325.34 186.33"/>
<path d="M321.01 143.12L321.01 140.24"/>
<path d="M348.38 180.57L368.55 180.57"/>
<path d="M348.38 192.1L359.91 192.1"/>
<path d="M361.35 160.41L344.06 160.41"/>
<path d="M339.74 183.45L338.9 181.42M338.9 181.42L336.86 180.57"/>
<path d="M348.38 180.57L346.35 181.42M346.35 181.42L345.5 183.45"/>
<path d="M380.07 192.1L368.55 180.57"/>
<path d="M359.91 186.33L365.67 186.33"/>
<path d="M365.67 192.1L377.19 192.1"/>
<path d="M367.11 160.41L361.35 160.41"/>
<path d="M338.3 134.48L338.3 140.24"/>
<path d="M416.64 194.5L418.64 192.1M418.64 192.1L418.64 206.5M416.64 206.5L420.64 206.5"/>
<path d="M390.16 212.26L390.16 183.45"/>
<path d="M384.39 192.1L384.39 249.71"/>
<path d="M398.8 235.31L398.8 212.26"/>
<path d="M390.16 235.31L398.8 235.31"/>
<path d="M415.52 247.31L417.52 249.71M417.52 249.71L421.52 249.71M421.52 249.71L423.52 247.31M423.52 247.31L423.52 242.51M423.52 242.51L421.52 240.11M421.52 240.11L415.52 240.11M415.52 240.11L415.52 235.31M415.52 235.31L423.52 235.31"/>
<path d="M398.8 212.26L390.16 212.26"/>
<path d="M404.56 191L402.84 181.2M402.84 181.2L397.88 172.56"/>
<path d="M260.27 111.43L344.24 111.43"/>
<path d="M260.52 125.84L344.06 125.84"/>
<path d="M260.27 111.43L257.88 111.95M257.88 111.95L255.91 113.43"/>
<path d="M348.67 113.5L346.69 111.98M346.69 111.98L344.24 111.43"/>
</g>
</g>
</svg>
