<?xml version="1.0" standalone="no"?><svg xmlns="http://www.w3.org/2000/svg" width="600.000" height="450.000" viewBox="0.0 0.0 600.000 450.000" version="1.1">
<title>Acme Converter - Post-processed with EDS-Designer: 14.66 (info@symca.com)</title>
<desc>Acme Converter - Post-processed with EDS-Designer: 14.66 (info@symca.com)</desc>
<g id="EDS_STYLE_GROUP" fill="none" stroke="black" stroke-width="1.0">
<g id="0" display="visible">
<path d="M264.62 341.26L266.08 345.63M266.08 345.63L266.08 336.89M266.08 336.89L264.62 341.26M264.62 341.26L261.71 338.35M261.71 338.35L257.34 336.89M257.34 336.89L254.43 336.89M254.43 336.89L250.06 338.35M250.06 338.35L247.14 341.26M247.14 341.26L245.69 344.17M245.69 344.17L244.23 348.54M244.23 348.54L244.23 355.82M244.23 355.82L245.69 360.19M245.69 360.19L247.14 363.1M247.14 363.1L250.06 366.02M250.06 366.02L254.43 367.47M254.43 367.47L257.34 367.47M257.34 367.47L261.71 366.02M261.71 366.02L264.62 363.1M254.43 336.89L251.51 338.35M251.51 338.35L248.6 341.26M248.6 341.26L247.14 344.17M247.14 344.17L245.69 348.54M245.69 348.54L245.69 355.82M245.69 355.82L247.14 360.19M247.14 360.19L248.6 363.1M248.6 363.1L251.51 366.02M251.51 366.02L254.43 367.47M264.62 355.82L264.62 367.47M266.08 355.82L266.08 367.47M260.25 355.82L270.44 355.82M282.1 367.47L282.1 336.89M283.55 336.89L283.55 367.47M277.73 336.89L295.2 336.89M295.2 336.89L299.57 338.35M299.57 338.35L301.03 339.8M301.03 339.8L302.48 342.71M302.48 342.71L302.48 345.63M302.48 345.63L301.03 348.54M301.03 348.54L299.57 350M299.57 350L295.2 351.45M295.2 351.45L283.55 351.45M295.2 336.89L298.11 338.35M298.11 338.35L299.57 339.8M299.57 339.8L301.03 342.71M301.03 342.71L301.03 345.63M301.03 345.63L299.57 348.54M299.57 348.54L298.11 350M298.11 350L295.2 351.45M277.73 367.47L287.92 367.47M290.83 351.45L293.75 352.91M293.75 352.91L295.2 354.36M295.2 354.36L299.57 364.56M299.57 364.56L301.03 366.02M301.03 366.02L302.48 366.02M302.48 366.02L303.94 364.56M293.75 352.91L295.2 355.82M295.2 355.82L298.11 366.02M298.11 366.02L299.57 367.47M299.57 367.47L302.48 367.47M302.48 367.47L303.94 364.56M303.94 364.56L303.94 363.1M314.13 367.47L314.13 336.89M315.59 336.89L315.59 367.47M324.33 345.63L324.33 357.28M309.77 336.89L333.07 336.89M333.07 336.89L333.07 345.63M333.07 345.63L331.61 336.89M315.59 351.45L324.33 351.45M309.77 367.47L333.07 367.47M333.07 367.47L333.07 358.73M333.07 358.73L331.61 367.47M343.26 336.89L353.45 352.91M353.45 352.91L353.45 367.47M344.72 336.89L354.91 352.91M354.91 352.91L354.91 367.47M365.1 336.89L354.91 352.91M340.35 336.89L349.09 336.89M359.28 336.89L368.02 336.89M349.09 367.47L359.28 367.47"/>
<path d="M306.15 82.53L250.37 82.53"/>
<path d="M242.25 90.64L242.25 126.25"/>
<path d="M234.14 134.36L163.21 134.36"/>
<path d="M122.65 174.92L122.65 257.63"/>
<path d="M171.32 306.31L306.15 306.31"/>
<path d="M122.65 257.63L124.31 270.23M124.31 270.23L129.17 281.97M129.17 281.97L136.91 292.05M136.91 292.05L146.99 299.79M146.99 299.79L158.73 304.65M158.73 304.65L171.32 306.31"/>
<path d="M163.21 134.36L150.68 136.35M150.68 136.35L139.37 142.11M139.37 142.11L130.4 151.08M130.4 151.08L124.64 162.39M124.64 162.39L122.65 174.92"/>
<path d="M234.14 134.36L238.2 133.28M238.2 133.28L241.17 130.31M241.17 130.31L242.25 126.25"/>
<path d="M250.37 82.53L246.31 83.62M246.31 83.62L243.34 86.58M243.34 86.58L242.25 90.64"/>
<path d="M306.15 91.56L252.95 91.56"/>
<path d="M252.95 91.56L252.95 159.59"/>
<path d="M173.67 159.59L306.15 159.59"/>
<path d="M306.15 98.48L266.26 98.48"/>
<path d="M258.15 106.6L258.15 149.3"/>
<path d="M258.15 149.3L252.95 149.3"/>
<path d="M258.15 144.96L306.15 144.96"/>
<path d="M306.15 149.23L290.19 149.23"/>
<path d="M290.19 149.23L290.19 110.32"/>
<path d="M290.19 110.32L306.15 110.32"/>
<path d="M263.51 144.96L263.51 103.81"/>
<path d="M263.51 103.81L306.15 103.81"/>
<path d="M263.51 122.29L306.15 122.29"/>
<path d="M266.26 98.48L262.21 99.57M262.21 99.57L259.24 102.54M259.24 102.54L258.15 106.6"/>
<path d="M263.51 103.81L260.55 100.84"/>
<path d="M252.95 143.77L165.6 143.77"/>
<path d="M133.15 176.21L133.15 211.49"/>
<path d="M145.28 219.6L122.65 219.6"/>
<path d="M125.04 219.6L129.1 218.52M129.1 218.52L132.07 215.55M132.07 215.55L133.15 211.49"/>
<path d="M145.28 187.98L145.28 250.87"/>
<path d="M165.6 143.77L155.57 145.35M155.57 145.35L146.53 149.96M146.53 149.96L139.35 157.14M139.35 157.14L134.74 166.19M134.74 166.19L133.15 176.21"/>
<path d="M173.67 159.59L164.9 160.98M164.9 160.98L156.99 165.01M156.99 165.01L150.7 171.3M150.7 171.3L146.67 179.21M146.67 179.21L145.28 187.98"/>
<path d="M306.15 165.24L182.38 165.24"/>
<path d="M182.38 165.24L182.38 183.94"/>
<path d="M182.38 183.94L177.13 183.94"/>
<path d="M169.02 192.06L169.02 249.08"/>
<path d="M177.13 257.19L306.15 257.19"/>
<path d="M169.02 249.08L170.1 253.14M170.1 253.14L173.07 256.11M173.07 256.11L177.13 257.19"/>
<path d="M177.13 183.94L173.07 185.03M173.07 185.03L170.1 188M170.1 188L169.02 192.06"/>
<path d="M182.38 167.72L173.15 167.72"/>
<path d="M152.87 188L152.87 212.93"/>
<path d="M151.85 212.93L160.85 212.93"/>
<path d="M160.85 249.16L160.85 190.42"/>
<path d="M177.08 174.2L182.38 174.2"/>
<path d="M173.15 167.72L165.39 169.27M165.39 169.27L158.81 173.66M158.81 173.66L154.42 180.24M154.42 180.24L152.87 188"/>
<path d="M177.08 174.2L170.87 175.44M170.87 175.44L165.6 178.95M165.6 178.95L162.09 184.22M162.09 184.22L160.85 190.42"/>
<path d="M177.08 265.39L306.15 265.39"/>
<path d="M306.15 275.64L280.95 275.64"/>
<path d="M150.31 251.3L150.31 247.58"/>
<path d="M154.77 247.58L145.28 247.58"/>
<path d="M161.44 253.5L159.12 249.4M159.12 249.4L154.77 247.58"/>
<path d="M160.85 249.16L162.09 255.37M162.09 255.37L165.6 260.64M165.6 260.64L170.87 264.15M170.87 264.15L177.08 265.39"/>
<path d="M150.31 251.3L152.16 260.62M152.16 260.62L157.44 268.51M157.44 268.51L165.33 273.79M165.33 273.79L174.64 275.64"/>
<path d="M160.85 230.21L150.31 230.21"/>
<path d="M160.85 243.68L150.31 243.68"/>
<path d="M153.05 247.58L153.05 243.68"/>
<path d="M150.31 243.68L150.31 230.21"/>
<path d="M151.85 230.21L151.85 212.93"/>
<path d="M175.85 265.34L175.85 275.64"/>
<path d="M197.11 275.64L197.11 265.39"/>
<path d="M263.51 265.39L263.51 277.16"/>
<path d="M263.51 277.16L280.95 277.16"/>
<path d="M280.95 277.16L280.95 265.39"/>
<path d="M295.49 275.64L295.49 265.39"/>
<path d="M263.51 275.64L174.64 275.64"/>
<path d="M195.8 199.64L206.27 199.64"/>
<path d="M284.86 199.64L284.86 214.68"/>
<path d="M284.86 239.82L274.24 239.82"/>
<path d="M195.8 239.82L195.8 225.03"/>
<path d="M186.29 207.67L195.8 207.67"/>
<path d="M302.34 207.67L302.34 231.61"/>
<path d="M302.34 231.61L284.86 231.61"/>
<path d="M186.29 231.61L186.29 207.67"/>
<path d="M193.14 214.68L195.8 214.68"/>
<path d="M295.51 214.68L295.51 225.03"/>
<path d="M295.51 225.03L284.86 225.03"/>
<path d="M193.14 225.03L193.14 214.68"/>
<path d="M206.27 239.82L206.27 225.03"/>
<path d="M216.88 231.61L216.88 207.67"/>
<path d="M220.94 231.61L220.94 207.67"/>
<path d="M231.42 239.82L231.42 225.03"/>
<path d="M241.89 239.82L241.89 225.03"/>
<path d="M251.59 231.61L251.59 207.67"/>
<path d="M256.96 231.61L256.96 207.67"/>
<path d="M274.24 239.82L274.24 225.03"/>
<path d="M210.46 225.03L210.46 214.68"/>
<path d="M227.75 225.03L227.75 214.68"/>
<path d="M245.17 225.03L245.17 214.68"/>
<path d="M263.76 225.03L263.76 214.68"/>
<path d="M231.42 199.64L241.89 199.64"/>
<path d="M274.24 199.64L284.86 199.64"/>
<path d="M284.86 207.67L302.34 207.67"/>
<path d="M256.96 207.67L274.24 207.67"/>
<path d="M241.89 207.67L251.59 207.67"/>
<path d="M220.94 207.67L231.42 207.67"/>
<path d="M206.27 207.67L216.88 207.67"/>
<path d="M195.8 214.68L195.8 199.64"/>
<path d="M206.27 214.68L206.27 199.64"/>
<path d="M231.42 214.68L231.42 199.64"/>
<path d="M241.89 214.68L241.89 199.64"/>
<path d="M274.24 214.68L274.24 199.64"/>
<path d="M284.86 225.03L284.86 239.82"/>
<path d="M274.24 225.03L263.76 225.03"/>
<path d="M284.86 214.68L295.51 214.68"/>
<path d="M263.76 214.68L274.24 214.68"/>
<path d="M245.17 225.03L241.89 225.03"/>
<path d="M231.42 225.03L227.75 225.03"/>
<path d="M241.89 214.68L245.17 214.68"/>
<path d="M227.75 214.68L231.42 214.68"/>
<path d="M210.46 225.03L206.27 225.03"/>
<path d="M241.89 239.82L231.42 239.82"/>
<path d="M206.27 239.82L195.8 239.82"/>
<path d="M195.8 231.61L186.29 231.61"/>
<path d="M195.8 225.03L193.14 225.03"/>
<path d="M206.27 214.68L210.46 214.68"/>
<path d="M251.59 231.61L241.89 231.61"/>
<path d="M216.88 231.61L206.27 231.61"/>
<path d="M186.29 207.67L193.14 214.68"/>
<path d="M193.14 225.03L186.29 231.61"/>
<path d="M210.46 214.68L216.88 207.67"/>
<path d="M210.46 225.03L216.88 231.61"/>
<path d="M220.94 231.61L227.75 225.03"/>
<path d="M227.75 214.68L220.94 207.67"/>
<path d="M245.17 214.68L251.59 207.67"/>
<path d="M245.17 225.03L251.59 231.61"/>
<path d="M256.96 231.61L263.76 225.03"/>
<path d="M263.76 214.68L256.96 207.67"/>
<path d="M295.51 214.68L302.34 207.67"/>
<path d="M295.51 225.03L302.34 231.61"/>
<path d="M231.42 231.61L220.94 231.61"/>
<path d="M274.24 231.61L256.96 231.61"/>
<path d="M306.15 82.53L361.93 82.53"/>
<path d="M370.04 90.64L370.04 126.25"/>
<path d="M378.15 134.36L449.08 134.36"/>
<path d="M489.64 174.92L489.64 257.63"/>
<path d="M440.97 306.31L306.15 306.31"/>
<path d="M440.97 306.31L453.57 304.65M453.57 304.65L465.3 299.79M465.3 299.79L475.39 292.05M475.39 292.05L483.12 281.97M483.12 281.97L487.98 270.23M487.98 270.23L489.64 257.63"/>
<path d="M489.64 174.92L487.66 162.39M487.66 162.39L481.89 151.08M481.89 151.08L472.92 142.11M472.92 142.11L461.61 136.35M461.61 136.35L449.08 134.36"/>
<path d="M370.04 126.25L371.13 130.31M371.13 130.31L374.1 133.28M374.1 133.28L378.15 134.36"/>
<path d="M370.04 90.64L368.95 86.58M368.95 86.58L365.98 83.62M365.98 83.62L361.93 82.53"/>
<path d="M306.15 91.56L359.34 91.56"/>
<path d="M359.34 91.56L359.34 159.59"/>
<path d="M438.62 159.59L306.15 159.59"/>
<path d="M306.15 98.48L346.03 98.48"/>
<path d="M354.14 106.6L354.14 149.3"/>
<path d="M354.14 149.3L359.34 149.3"/>
<path d="M354.14 144.96L306.15 144.96"/>
<path d="M306.15 149.23L322.1 149.23"/>
<path d="M322.1 149.23L322.1 110.32"/>
<path d="M322.1 110.32L306.15 110.32"/>
<path d="M348.79 144.96L348.79 103.81"/>
<path d="M348.79 103.81L306.15 103.81"/>
<path d="M348.79 122.29L306.15 122.29"/>
<path d="M354.14 106.6L353.06 102.54M353.06 102.54L350.09 99.57M350.09 99.57L346.03 98.48"/>
<path d="M348.79 103.81L351.74 100.84"/>
<path d="M359.34 143.77L446.69 143.77"/>
<path d="M479.14 176.21L479.14 211.49"/>
<path d="M467.01 219.6L489.64 219.6"/>
<path d="M479.14 211.49L480.23 215.55M480.23 215.55L483.2 218.52M483.2 218.52L487.25 219.6"/>
<path d="M467.01 187.98L467.01 250.87"/>
<path d="M479.14 176.21L477.55 166.19M477.55 166.19L472.94 157.14M472.94 157.14L465.76 149.96M465.76 149.96L456.72 145.35M456.72 145.35L446.69 143.77"/>
<path d="M467.01 187.98L465.62 179.21M465.62 179.21L461.59 171.3M461.59 171.3L455.31 165.01M455.31 165.01L447.39 160.98M447.39 160.98L438.62 159.59"/>
<path d="M306.15 165.24L429.91 165.24"/>
<path d="M429.91 165.24L429.91 183.94"/>
<path d="M429.91 183.94L435.16 183.94"/>
<path d="M443.28 192.06L443.28 249.08"/>
<path d="M435.16 257.19L306.15 257.19"/>
<path d="M435.16 257.19L439.22 256.11M439.22 256.11L442.19 253.14M442.19 253.14L443.28 249.08"/>
<path d="M443.28 192.06L442.19 188M442.19 188L439.22 185.03M439.22 185.03L435.16 183.94"/>
<path d="M429.91 167.72L439.14 167.72"/>
<path d="M459.42 188L459.42 212.93"/>
<path d="M451.44 249.16L451.44 190.42"/>
<path d="M435.22 174.2L429.91 174.2"/>
<path d="M459.42 188L457.88 180.24M457.88 180.24L453.48 173.66M453.48 173.66L446.9 169.27M446.9 169.27L439.14 167.72"/>
<path d="M451.44 190.42L450.21 184.22M450.21 184.22L446.69 178.95M446.69 178.95L441.43 175.44M441.43 175.44L435.22 174.2"/>
<path d="M435.22 265.39L306.15 265.39"/>
<path d="M457.52 247.58L467.01 247.58"/>
<path d="M457.52 247.58L453.18 249.4M453.18 249.4L450.85 253.5"/>
<path d="M435.22 265.39L441.43 264.15M441.43 264.15L446.69 260.64M446.69 260.64L450.21 255.37M450.21 255.37L451.44 249.16"/>
<path d="M437.65 275.64L446.96 273.79M446.96 273.79L454.86 268.51M454.86 268.51L460.13 260.62M460.13 260.62L461.99 251.3"/>
<path d="M451.44 243.68L461.99 243.68"/>
<path d="M451.44 230.21L461.99 230.21"/>
<path d="M461.99 243.68L461.99 230.21"/>
<path d="M459.24 247.58L459.24 243.68"/>
<path d="M461.99 251.3L461.99 247.58"/>
<path d="M460.44 212.93L451.44 212.93"/>
<path d="M436.45 265.34L436.45 275.64"/>
<path d="M460.44 230.21L460.44 212.93"/>
<path d="M415.18 275.64L415.18 265.39"/>
<path d="M306.15 275.64L437.65 275.64"/>
<path d="M316.8 275.64L316.8 265.39"/>
<path d="M309.95 207.67L309.95 231.61"/>
<path d="M426 231.61L426 207.67"/>
<path d="M316.79 214.68L316.79 225.03"/>
<path d="M419.16 225.03L419.16 214.68"/>
<path d="M401.83 225.03L401.83 214.68"/>
<path d="M384.54 225.03L384.54 214.68"/>
<path d="M367.13 225.03L367.13 214.68"/>
<path d="M348.54 225.03L348.54 214.68"/>
<path d="M416.5 199.64L406.02 199.64"/>
<path d="M380.88 199.64L370.4 199.64"/>
<path d="M338.05 199.64L327.43 199.64"/>
<path d="M327.43 207.67L309.95 207.67"/>
<path d="M355.34 207.67L338.05 207.67"/>
<path d="M370.4 207.67L360.71 207.67"/>
<path d="M391.35 207.67L380.88 207.67"/>
<path d="M406.02 207.67L395.41 207.67"/>
<path d="M416.5 214.68L416.5 199.64"/>
<path d="M426 207.67L416.5 207.67"/>
<path d="M416.5 239.82L416.5 225.03"/>
<path d="M406.02 214.68L406.02 199.64"/>
<path d="M380.88 214.68L380.88 199.64"/>
<path d="M406.02 239.82L406.02 225.03"/>
<path d="M380.88 239.82L380.88 225.03"/>
<path d="M370.4 214.68L370.4 199.64"/>
<path d="M370.4 239.82L370.4 225.03"/>
<path d="M338.05 214.68L338.05 199.64"/>
<path d="M327.43 225.03L327.43 239.82"/>
<path d="M338.05 239.82L338.05 225.03"/>
<path d="M327.43 199.64L327.43 214.68"/>
<path d="M327.43 214.68L316.79 214.68"/>
<path d="M316.79 225.03L327.43 225.03"/>
<path d="M360.71 231.61L360.71 207.67"/>
<path d="M355.34 231.61L355.34 207.67"/>
<path d="M327.43 239.82L338.05 239.82"/>
<path d="M395.41 231.61L395.41 207.67"/>
<path d="M416.5 231.61L426 231.61"/>
<path d="M370.4 239.82L380.88 239.82"/>
<path d="M406.02 239.82L416.5 239.82"/>
<path d="M391.35 231.61L391.35 207.67"/>
<path d="M416.5 225.03L419.16 225.03"/>
<path d="M406.02 214.68L401.83 214.68"/>
<path d="M401.83 225.03L406.02 225.03"/>
<path d="M380.88 225.03L384.54 225.03"/>
<path d="M367.13 225.03L370.4 225.03"/>
<path d="M370.4 214.68L367.13 214.68"/>
<path d="M384.54 214.68L380.88 214.68"/>
<path d="M419.16 214.68L416.5 214.68"/>
<path d="M348.54 214.68L338.05 214.68"/>
<path d="M338.05 225.03L348.54 225.03"/>
<path d="M395.41 231.61L406.02 231.61"/>
<path d="M426 207.67L419.16 214.68"/>
<path d="M419.16 225.03L426 231.61"/>
<path d="M401.83 214.68L395.41 207.67"/>
<path d="M401.83 225.03L395.41 231.61"/>
<path d="M391.35 231.61L384.54 225.03"/>
<path d="M384.54 214.68L391.35 207.67"/>
<path d="M367.13 214.68L360.71 207.67"/>
<path d="M367.13 225.03L360.71 231.61"/>
<path d="M355.34 231.61L348.54 225.03"/>
<path d="M348.54 214.68L355.34 207.67"/>
<path d="M316.79 214.68L309.95 207.67"/>
<path d="M316.79 225.03L309.95 231.61"/>
<path d="M380.88 231.61L391.35 231.61"/>
<path d="M360.71 231.61L370.4 231.61"/>
<path d="M338.05 231.61L355.34 231.61"/>
<path d="M309.95 231.61L327.43 231.61"/>
<path d="M419.06 275.64L419.06 278.59"/>
<path d="M419.06 278.59L435.29 278.59"/>
<path d="M435.29 278.59L435.29 275.64"/>
<path d="M509.1 211.7L511.43 210.53M511.43 210.53L514.92 207.04M514.92 207.04L514.92 231.5"/>
<path d="M99.02 210.59L97.86 208.26M97.86 208.26L94.36 207.1M94.36 207.1L92.03 207.1M92.03 207.1L88.54 208.26M88.54 208.26L86.21 211.76M86.21 211.76L85.04 217.58M85.04 217.58L85.04 223.41M85.04 223.41L86.21 228.07M86.21 228.07L88.54 230.4M88.54 230.4L92.03 231.56M92.03 231.56L93.2 231.56M93.2 231.56L96.69 230.4M96.69 230.4L99.02 228.07M99.02 228.07L100.19 224.57M100.19 224.57L100.19 223.41M100.19 223.41L99.02 219.91M99.02 219.91L96.69 217.58M96.69 217.58L93.2 216.42M93.2 216.42L92.03 216.42M92.03 216.42L88.54 217.58M88.54 217.58L86.21 219.91M86.21 219.91L85.04 223.41"/>
</g>
</g>
</svg>
