<?xml version="1.0" standalone="no"?><svg xmlns="http://www.w3.org/2000/svg" width="600.000" height="450.000" viewBox="0.0 0.0 600.000 450.000" version="1.1">
<title>Acme Converter - Post-processed with EDS-Designer: 14.44 (info@symca.com)</title>
<desc>Acme Converter - Post-processed with EDS-Designer: 14.44 (info@symca.com)</desc>
<g id="EDS_STYLE_GROUP" fill="none" stroke="black" stroke-width="1.0">
<g id="0" display="visible">
<path d="M434.96 1.77L184.65 1.77"/>
<path d="M318.67 207.16L378.47 207.16"/>
<path d="M378.47 230.42L318.67 230.42"/>
<path d="M370.72 15.06L217.88 15.06"/>
<path d="M247.3 425.42L248.56 429.22M248.56 429.22L248.56 421.62M248.56 421.62L247.3 425.42M247.3 425.42L244.76 422.89M244.76 422.89L240.97 421.62M240.97 421.62L238.44 421.62M238.44 421.62L234.64 422.89M234.64 422.89L232.11 425.42M232.11 425.42L230.84 427.95M230.84 427.95L229.58 431.75M229.58 431.75L229.58 438.08M229.58 438.08L230.84 441.88M230.84 441.88L232.11 444.41M232.11 444.41L234.64 446.94M234.64 446.94L238.44 448.21M238.44 448.21L240.97 448.21M240.97 448.21L244.76 446.94M244.76 446.94L247.3 444.41M238.44 421.62L235.9 422.89M235.9 422.89L233.37 425.42M233.37 425.42L232.11 427.95M232.11 427.95L230.84 431.75M230.84 431.75L230.84 438.08M230.84 438.08L232.11 441.88M232.11 441.88L233.37 444.41M233.37 444.41L235.9 446.94M235.9 446.94L238.44 448.21M247.3 438.08L247.3 448.21M248.56 438.08L248.56 448.21M243.5 438.08L252.36 438.08M262.49 448.21L262.49 421.62M263.75 421.62L263.75 448.21M258.69 421.62L273.88 421.62M273.88 421.62L277.67 422.89M277.67 422.89L278.94 424.16M278.94 424.16L280.21 426.69M280.21 426.69L280.21 429.22M280.21 429.22L278.94 431.75M278.94 431.75L277.67 433.02M277.67 433.02L273.88 434.28M273.88 434.28L263.75 434.28M273.88 421.62L276.41 422.89M276.41 422.89L277.67 424.16M277.67 424.16L278.94 426.69M278.94 426.69L278.94 429.22M278.94 429.22L277.67 431.75M277.67 431.75L276.41 433.02M276.41 433.02L273.88 434.28M258.69 448.21L267.55 448.21M270.08 434.28L272.61 435.55M272.61 435.55L273.88 436.81M273.88 436.81L277.67 445.67M277.67 445.67L278.94 446.94M278.94 446.94L280.21 446.94M280.21 446.94L281.47 445.67M272.61 435.55L273.88 438.08M273.88 438.08L276.41 446.94M276.41 446.94L277.67 448.21M277.67 448.21L280.21 448.21M280.21 448.21L281.47 445.67M281.47 445.67L281.47 444.41M290.33 448.21L290.33 421.62M291.6 421.62L291.6 448.21M299.19 429.22L299.19 439.34M286.54 421.62L306.79 421.62M306.79 421.62L306.79 429.22M306.79 429.22L305.52 421.62M291.6 434.28L299.19 434.28M286.54 448.21L306.79 448.21M306.79 448.21L306.79 440.61M306.79 440.61L305.52 448.21M316.91 448.21L316.91 421.62M318.18 421.62L318.18 448.21M325.77 429.22L325.77 439.34M313.12 421.62L333.37 421.62M333.37 421.62L333.37 429.22M333.37 429.22L332.1 421.62M318.18 434.28L325.77 434.28M313.12 448.21L333.37 448.21M333.37 448.21L333.37 440.61M333.37 440.61L332.1 448.21M343.49 448.21L343.49 421.62M344.76 448.21L344.76 421.62M344.76 421.62L359.95 445.67M344.76 424.16L359.95 448.21M359.95 448.21L359.95 421.62M339.7 421.62L344.76 421.62M356.15 421.62L363.75 421.62M339.7 448.21L347.29 448.21"/>
<path d="M158.07 365.54L158.07 201.62"/>
<path d="M175.79 183.9L175.79 10.63"/>
<path d="M166.93 192.76L171.36 191.57M171.36 191.57L174.61 188.33M174.61 188.33L175.79 183.9"/>
<path d="M184.65 1.77L180.22 2.96M180.22 2.96L176.98 6.2M176.98 6.2L175.79 10.63"/>
<path d="M184.65 345.6L184.65 203.83"/>
<path d="M184.65 345.6L185.84 350.03M185.84 350.03L189.08 353.27M189.08 353.27L193.51 354.46"/>
<path d="M122.44 186.22L122.44 184.54M122.44 184.54L124.13 181.16M124.13 181.16L125.82 179.47M125.82 179.47L129.19 177.78M129.19 177.78L135.95 177.78M135.95 177.78L139.32 179.47M139.32 179.47L141.01 181.16M141.01 181.16L142.7 184.54M142.7 184.54L142.7 187.91M142.7 187.91L141.01 191.29M141.01 191.29L137.63 196.35M137.63 196.35L120.76 213.23M120.76 213.23L144.38 213.23"/>
<path d="M164.72 372.18L423.88 372.18"/>
<path d="M193.51 354.46L418.36 354.18"/>
<path d="M418.36 354.18L422.78 352.99M422.78 352.99L426.02 349.75M426.02 349.75L427.2 345.32"/>
<path d="M158.07 365.54L158.96 368.86M158.96 368.86L161.39 371.29M161.39 371.29L164.72 372.18"/>
<path d="M211.23 155.55L211.23 21.71"/>
<path d="M209.46 157.32L210.72 156.8M210.72 156.8L211.23 155.55"/>
<path d="M202.37 139.6L206.8 138.41M206.8 138.41L210.05 135.17M210.05 135.17L211.23 130.74"/>
<path d="M191.3 139.6L187.98 140.49M187.98 140.49L185.54 142.92M185.54 142.92L184.65 146.24"/>
<path d="M287.66 230.42L231.17 230.42"/>
<path d="M231.17 207.16L287.66 207.16"/>
<path d="M231.17 230.42L231.17 207.16"/>
<path d="M318.67 207.16L318.67 230.42"/>
<path d="M287.66 207.16L287.66 230.42"/>
<path d="M166.93 192.76L162.5 193.95M162.5 193.95L159.26 197.19M159.26 197.19L158.07 201.62"/>
<path d="M217.88 15.06L214.56 15.95M214.56 15.95L212.12 18.39M212.12 18.39L211.23 21.71"/>
<path d="M443.82 352.25L443.82 209.37"/>
<path d="M461.54 280.81L461.54 245.37"/>
<path d="M470.78 183.59L474.16 181.9M474.16 181.9L479.22 176.84M479.22 176.84L479.22 212.28"/>
<path d="M427.21 301.3L427.21 172.82"/>
<path d="M423.88 372.18L431.51 370.66M431.51 370.66L437.98 366.34M437.98 366.34L442.3 359.88M442.3 359.88L443.82 352.25"/>
<path d="M377.37 155.55L377.37 21.71"/>
<path d="M377.37 155.55L377.89 156.8M377.89 156.8L379.14 157.32"/>
<path d="M377.37 130.74L378.55 135.17M378.55 135.17L381.8 138.41M381.8 138.41L386.23 139.6"/>
<path d="M386.23 139.6L418.35 139.6"/>
<path d="M379.14 157.32L427.21 157.32"/>
<path d="M427.21 148.46L426.02 144.03M426.02 144.03L422.78 140.78M422.78 140.78L418.35 139.6"/>
<path d="M378.47 207.16L378.47 230.42"/>
<path d="M443.82 209.37L443.82 10.63"/>
<path d="M443.82 10.63L442.63 6.2M442.63 6.2L439.39 2.96M439.39 2.96L434.96 1.77"/>
<path d="M427.21 148.46L427.21 172.82"/>
<path d="M377.37 21.71L376.48 18.39M376.48 18.39L374.04 15.95M374.04 15.95L370.72 15.06"/>
<path d="M184.65 203.83L184.65 146.24"/>
<path d="M427.19 301.94L427.2 345.32"/>
<path d="M191.3 139.6L202.38 139.6"/>
<path d="M184.65 157.32L209.46 157.32"/>
<path d="M461.54 280.81L443.82 280.81"/>
<path d="M461.54 245.37L443.82 245.37"/>
</g>
</g>
</svg>
