<?xml version="1.0" standalone="no"?><svg xmlns="http://www.w3.org/2000/svg" width="600.000" height="450.000" viewBox="0.0 0.0 600.000 450.000" version="1.1">
<title>Acme Converter - Post-processed with EDS-Designer: 14.44 (info@symca.com)</title>
<desc>Acme Converter - Post-processed with EDS-Designer: 14.44 (info@symca.com)</desc>
<g id="EDS_STYLE_GROUP" fill="none" stroke="black" stroke-width="1.0">
<g id="0" display="visible">
<path d="M495.06 219.9L483.87 235.57M483.87 235.57L500.66 235.57M495.06 219.9L495.06 243.4"/>
<path d="M204.52 378.37L204.52 337.23M206.47 337.23L206.47 378.37M198.64 337.23L222.14 337.23M222.14 337.23L228.02 339.19M228.02 339.19L229.98 341.15M229.98 341.15L231.94 345.07M231.94 345.07L231.94 348.99M231.94 348.99L229.98 352.9M229.98 352.9L228.02 354.86M228.02 354.86L222.14 356.82M222.14 337.23L226.06 339.19M226.06 339.19L228.02 341.15M228.02 341.15L229.98 345.07M229.98 345.07L229.98 348.99M229.98 348.99L228.02 352.9M228.02 352.9L226.06 354.86M226.06 354.86L222.14 356.82M206.47 356.82L222.14 356.82M222.14 356.82L228.02 358.78M228.02 358.78L229.98 360.74M229.98 360.74L231.94 364.65M231.94 364.65L231.94 370.53M231.94 370.53L229.98 374.45M229.98 374.45L228.02 376.41M228.02 376.41L222.14 378.37M222.14 378.37L198.64 378.37M222.14 356.82L226.06 358.78M226.06 358.78L228.02 360.74M228.02 360.74L229.98 364.65M229.98 364.65L229.98 370.53M229.98 370.53L228.02 374.45M228.02 374.45L226.06 376.41M226.06 376.41L222.14 378.37M247.61 378.37L247.61 337.23M249.57 337.23L249.57 378.37M241.73 337.23L255.44 337.23M241.73 378.37L271.11 378.37M271.11 378.37L271.11 366.61M271.11 366.61L269.15 378.37M294.61 337.23L280.9 378.37M294.61 337.23L308.32 378.37M294.61 343.11L306.37 378.37M284.82 366.61L302.45 366.61M276.99 378.37L288.74 378.37M300.49 378.37L312.24 378.37M345.54 343.11L347.5 348.99M347.5 348.99L347.5 337.23M347.5 337.23L345.54 343.11M345.54 343.11L341.62 339.19M341.62 339.19L335.75 337.23M335.75 337.23L331.83 337.23M331.83 337.23L325.95 339.19M325.95 339.19L322.04 343.11M322.04 343.11L320.08 347.03M320.08 347.03L318.12 352.9M318.12 352.9L318.12 362.7M318.12 362.7L320.08 368.57M320.08 368.57L322.04 372.49M322.04 372.49L325.95 376.41M325.95 376.41L331.83 378.37M331.83 378.37L335.75 378.37M335.75 378.37L341.62 376.41M341.62 376.41L345.54 372.49M345.54 372.49L347.5 368.57M331.83 337.23L327.91 339.19M327.91 339.19L323.99 343.11M323.99 343.11L322.04 347.03M322.04 347.03L320.08 352.9M320.08 352.9L320.08 362.7M320.08 362.7L322.04 368.57M322.04 368.57L323.99 372.49M323.99 372.49L327.91 376.41M327.91 376.41L331.83 378.37M365.13 378.37L365.13 337.23M367.08 337.23L367.08 378.37M392.55 337.23L367.08 362.7M376.88 354.86L392.55 378.37M374.92 354.86L390.59 378.37M359.25 337.23L372.96 337.23M384.71 337.23L396.46 337.23M359.25 378.37L372.96 378.37M384.71 378.37L396.46 378.37"/>
<path d="M99.32 228.61L101.56 227.49M101.56 227.49L104.92 224.13M104.92 224.13L104.92 247.63"/>
<path d="M357.82 74.93L357.82 91.86"/>
<path d="M230.9 91.85L230.9 74.93"/>
<path d="M376.63 260.85L387.68 258.9M387.68 258.9L397.4 253.29M397.4 253.29L404.62 244.69M404.62 244.69L408.45 234.14M408.45 234.14L408.45 222.92M408.45 222.92L404.62 212.37M404.62 212.37L397.4 203.77M397.4 203.77L387.68 198.16M387.68 198.16L376.63 196.21"/>
<path d="M376.63 196.21L212.1 196.21"/>
<path d="M212.1 196.21L201.05 198.16M201.05 198.16L191.33 203.77M191.33 203.77L184.11 212.37M184.11 212.37L180.27 222.92M180.27 222.92L180.27 234.14M180.27 234.14L184.11 244.69M184.11 244.69L191.33 253.29M191.33 253.29L201.05 258.9M201.05 258.9L212.1 260.85"/>
<path d="M212.1 260.85L376.63 260.85"/>
<path d="M229.73 242.04L229.73 247.33"/>
<path d="M229.73 247.33L217.98 247.33"/>
<path d="M217.98 247.33L217.98 242.04"/>
<path d="M217.98 242.04L207.99 242.04"/>
<path d="M207.99 242.04L207.99 215.01"/>
<path d="M207.99 215.01L217.98 215.01"/>
<path d="M217.98 215.01L217.98 209.73"/>
<path d="M217.98 209.73L229.73 209.73"/>
<path d="M229.73 209.73L229.73 215.01"/>
<path d="M229.73 215.01L239.72 215.01"/>
<path d="M239.72 215.01L239.72 242.04"/>
<path d="M239.72 242.04L229.73 242.04"/>
<path d="M380.74 242.04L370.75 242.04"/>
<path d="M370.75 242.04L370.75 247.33"/>
<path d="M370.75 247.33L359 247.33"/>
<path d="M359 247.33L359 242.04"/>
<path d="M359 242.04L349.01 242.04"/>
<path d="M349.01 242.04L349.01 215.01"/>
<path d="M349.01 215.01L359 215.01"/>
<path d="M359 215.01L359 209.73"/>
<path d="M359 209.73L370.75 209.73"/>
<path d="M370.75 209.73L370.75 215.01"/>
<path d="M370.75 215.01L380.74 215.01"/>
<path d="M380.74 215.01L380.74 242.04"/>
<path d="M323.74 215.01L333.73 215.01"/>
<path d="M333.73 215.01L333.73 242.04"/>
<path d="M333.73 242.04L323.74 242.04"/>
<path d="M323.74 242.04L323.74 247.33"/>
<path d="M323.74 247.33L311.99 247.33"/>
<path d="M311.99 247.33L311.99 242.04"/>
<path d="M311.99 242.04L302 242.04"/>
<path d="M302 242.04L302 215.01"/>
<path d="M302 215.01L311.99 215.01"/>
<path d="M311.99 215.01L311.99 209.73"/>
<path d="M311.99 209.73L323.74 209.73"/>
<path d="M323.74 209.73L323.74 215.01"/>
<path d="M286.73 242.04L276.74 242.04"/>
<path d="M276.74 242.04L276.74 247.33"/>
<path d="M276.74 247.33L264.98 247.33"/>
<path d="M264.98 247.33L264.98 242.04"/>
<path d="M264.98 242.04L255 242.04"/>
<path d="M255 242.04L255 215.01"/>
<path d="M255 215.01L264.98 215.01"/>
<path d="M264.98 215.01L264.98 209.73"/>
<path d="M264.98 209.73L276.74 209.73"/>
<path d="M276.74 209.73L276.74 215.01"/>
<path d="M276.74 215.01L286.73 215.01"/>
<path d="M286.73 215.01L286.73 242.04"/>
<path d="M230.9 99.84L230.9 143.33"/>
<path d="M230.9 143.33L165.09 143.33"/>
<path d="M165.09 143.33L153.29 145.2M153.29 145.2L142.64 150.62M142.64 150.62L134.19 159.07M134.19 159.07L128.77 169.72M128.77 169.72L126.9 181.52"/>
<path d="M126.9 181.52L126.9 275.54"/>
<path d="M126.9 275.54L128.77 287.34M128.77 287.34L134.19 297.99M134.19 297.99L142.64 306.44M142.64 306.44L153.29 311.86M153.29 311.86L165.09 313.73"/>
<path d="M165.09 313.73L376.63 313.73"/>
<path d="M376.63 313.73L394.34 311.87M394.34 311.87L411.28 306.36M411.28 306.36L426.71 297.46M426.71 297.46L439.94 285.54M439.94 285.54L450.41 271.13M450.41 271.13L457.66 254.86M457.66 254.86L461.36 237.43M461.36 237.43L461.36 219.62M461.36 219.62L457.66 202.2M457.66 202.2L450.41 185.93M450.41 185.93L439.94 171.52M439.94 171.52L426.71 159.6M426.71 159.6L411.28 150.69M411.28 150.69L394.34 145.19M394.34 145.19L376.63 143.33"/>
<path d="M376.63 143.33L357.82 143.33"/>
<path d="M357.82 143.33L357.82 99.84"/>
<path d="M357.82 99.84L230.9 99.84"/>
<path d="M132.78 195.62L138.65 195.62"/>
<path d="M138.65 195.62L138.65 181.52"/>
<path d="M165.09 155.08L156.92 156.37M156.92 156.37L149.55 160.13M149.55 160.13L143.7 165.98M143.7 165.98L139.95 173.35M139.95 173.35L138.65 181.52"/>
<path d="M165.09 155.08L237.96 155.08"/>
<path d="M237.96 155.08L237.96 106.9"/>
<path d="M237.96 106.9L350.77 106.9"/>
<path d="M350.77 106.9L350.77 155.08"/>
<path d="M350.77 155.08L376.63 155.08"/>
<path d="M376.63 301.98L392.97 300.14M392.97 300.14L408.5 294.7M408.5 294.7L422.42 285.95M422.42 285.95L434.05 274.32M434.05 274.32L442.8 260.4M442.8 260.4L448.24 244.87M448.24 244.87L450.08 228.53M450.08 228.53L448.24 212.18M448.24 212.18L442.8 196.66M442.8 196.66L434.05 182.73M434.05 182.73L422.42 171.1M422.42 171.1L408.5 162.35M408.5 162.35L392.97 156.92M392.97 156.92L376.63 155.08"/>
<path d="M376.63 301.98L165.09 301.98"/>
<path d="M138.65 275.54L139.95 283.71M139.95 283.71L143.7 291.08M143.7 291.08L149.55 296.93M149.55 296.93L156.92 300.68M156.92 300.68L165.09 301.98"/>
<path d="M138.65 275.54L138.65 261.43"/>
<path d="M138.65 261.43L132.78 261.43"/>
<path d="M132.78 261.43L132.78 195.62"/>
<path d="M376.63 260.85L387.68 258.9M387.68 258.9L397.4 253.29M397.4 253.29L404.62 244.69M404.62 244.69L408.45 234.14M408.45 234.14L408.45 222.92M408.45 222.92L404.62 212.37M404.62 212.37L397.4 203.77M397.4 203.77L387.68 198.16M387.68 198.16L376.63 196.21"/>
<path d="M376.63 170.36L212.1 170.36"/>
<path d="M212.1 170.36L197.05 172.34M197.05 172.34L183.02 178.15M183.02 178.15L170.97 187.39M170.97 187.39L161.72 199.44M161.72 199.44L155.91 213.47M155.91 213.47L153.93 228.53M153.93 228.53L155.91 243.58M155.91 243.58L161.72 257.61M161.72 257.61L170.97 269.66M170.97 269.66L183.02 278.91M183.02 278.91L197.05 284.72M197.05 284.72L212.1 286.7"/>
<path d="M212.1 286.7L376.63 286.7"/>
<path d="M376.63 286.7L391.68 284.72M391.68 284.72L405.71 278.91M405.71 278.91L417.76 269.66M417.76 269.66L427.01 257.61M427.01 257.61L432.82 243.58M432.82 243.58L434.8 228.53M434.8 228.53L432.82 213.47M432.82 213.47L427.01 199.44M427.01 199.44L417.76 187.39M417.76 187.39L405.71 178.15M405.71 178.15L391.68 172.34M391.68 172.34L376.63 170.36"/>
<path d="M396.61 272.31L402.9 267.32M402.9 267.32L408.36 261.43"/>
<path d="M366.96 281.41L212.1 281.41"/>
<path d="M190.66 276.87L201.14 280.27M201.14 280.27L212.1 281.41"/>
<path d="M408.36 195.62L402.9 189.73M402.9 189.73L396.61 184.74"/>
<path d="M408.28 235.05L407.96 236.46"/>
<path d="M376.63 170.36L376.63 162.13"/>
<path d="M212.1 162.13L212.1 170.36"/>
<path d="M212.1 170.36L376.63 170.36"/>
<path d="M376.63 294.93L376.63 286.7"/>
<path d="M376.63 286.7L391.68 284.72M391.68 284.72L405.71 278.91M405.71 278.91L417.76 269.66M417.76 269.66L427.01 257.61M427.01 257.61L432.82 243.58M432.82 243.58L434.8 228.53M434.8 228.53L432.82 213.47M432.82 213.47L427.01 199.44M427.01 199.44L417.76 187.39M417.76 187.39L405.71 178.15M405.71 178.15L391.68 172.34M391.68 172.34L376.63 170.36"/>
<path d="M376.63 170.36L376.63 162.13"/>
<path d="M212.1 286.7L212.1 294.93"/>
<path d="M376.63 294.93L376.63 286.7"/>
<path d="M376.63 286.7L212.1 286.7"/>
<path d="M212.1 162.13L212.1 170.36"/>
<path d="M212.1 170.36L197.05 172.34M197.05 172.34L183.02 178.15M183.02 178.15L170.97 187.39M170.97 187.39L161.72 199.44M161.72 199.44L155.91 213.47M155.91 213.47L153.93 228.53M153.93 228.53L155.91 243.58M155.91 243.58L161.72 257.61M161.72 257.61L170.97 269.66M170.97 269.66L183.02 278.91M183.02 278.91L197.05 284.72M197.05 284.72L212.1 286.7"/>
<path d="M212.1 286.7L212.1 294.93"/>
<path d="M212.1 160.95L212.1 162.13"/>
<path d="M212.1 294.93L212.1 296.1"/>
<path d="M212.1 160.95L195.93 162.92M195.93 162.92L180.7 168.69M180.7 168.69L167.29 177.95M167.29 177.95L156.49 190.14M156.49 190.14L148.92 204.57M148.92 204.57L145.02 220.38M145.02 220.38L145.02 236.67M145.02 236.67L148.92 252.49M148.92 252.49L156.49 266.91M156.49 266.91L167.29 279.11M167.29 279.11L180.7 288.36M180.7 288.36L195.93 294.14M195.93 294.14L212.1 296.1"/>
<path d="M376.63 162.13L376.63 160.95"/>
<path d="M376.63 160.95L212.1 160.95"/>
<path d="M212.1 160.95L212.1 162.13"/>
<path d="M376.63 296.1L376.63 294.93"/>
<path d="M376.63 162.13L376.63 160.95"/>
<path d="M376.63 296.1L392.8 294.14M392.8 294.14L408.03 288.36M408.03 288.36L421.44 279.11M421.44 279.11L432.24 266.91M432.24 266.91L439.81 252.49M439.81 252.49L443.71 236.67M443.71 236.67L443.71 220.38M443.71 220.38L439.81 204.57M439.81 204.57L432.24 190.14M432.24 190.14L421.44 177.95M421.44 177.95L408.03 168.69M408.03 168.69L392.8 162.92M392.8 162.92L376.63 160.95"/>
<path d="M212.1 294.93L212.1 296.1"/>
<path d="M212.1 296.1L376.63 296.1"/>
<path d="M376.63 296.1L376.63 294.93"/>
<path d="M376.63 296.1L212.1 296.1"/>
<path d="M212.1 160.95L195.93 162.92M195.93 162.92L180.7 168.69M180.7 168.69L167.29 177.95M167.29 177.95L156.49 190.14M156.49 190.14L148.92 204.57M148.92 204.57L145.02 220.38M145.02 220.38L145.02 236.67M145.02 236.67L148.92 252.49M148.92 252.49L156.49 266.91M156.49 266.91L167.29 279.11M167.29 279.11L180.7 288.36M180.7 288.36L195.93 294.14M195.93 294.14L212.1 296.1"/>
<path d="M212.1 160.95L376.63 160.95"/>
<path d="M376.63 296.1L392.8 294.14M392.8 294.14L408.03 288.36M408.03 288.36L421.44 279.11M421.44 279.11L432.24 266.91M432.24 266.91L439.81 252.49M439.81 252.49L443.71 236.67M443.71 236.67L443.71 220.38M443.71 220.38L439.81 204.57M439.81 204.57L432.24 190.14M432.24 190.14L421.44 177.95M421.44 177.95L408.03 168.69M408.03 168.69L392.8 162.92M392.8 162.92L376.63 160.95"/>
<path d="M376.63 296.1L212.1 296.1"/>
<path d="M212.1 160.95L195.93 162.92M195.93 162.92L180.7 168.69M180.7 168.69L167.29 177.95M167.29 177.95L156.49 190.14M156.49 190.14L148.92 204.57M148.92 204.57L145.02 220.38M145.02 220.38L145.02 236.67M145.02 236.67L148.92 252.49M148.92 252.49L156.49 266.91M156.49 266.91L167.29 279.11M167.29 279.11L180.7 288.36M180.7 288.36L195.93 294.14M195.93 294.14L212.1 296.1"/>
<path d="M237.96 160.95L237.96 155.08"/>
<path d="M237.96 155.08L165.09 155.08"/>
<path d="M376.63 155.08L350.77 155.08"/>
<path d="M350.77 155.08L350.77 160.95"/>
<path d="M341.37 160.95L341.37 155.08"/>
<path d="M341.37 155.08L247.36 155.08"/>
<path d="M247.36 155.08L247.36 160.95"/>
<path d="M237.96 155.08L237.96 160.95"/>
<path d="M237.96 106.9L237.96 155.08"/>
<path d="M350.77 155.08L376.63 155.08"/>
<path d="M247.36 155.08L341.37 155.08"/>
<path d="M165.09 155.08L237.96 155.08"/>
<path d="M357.82 95.14L230.9 95.14"/>
<path d="M264.98 106.9L323.74 106.9"/>
<path d="M264.98 155.08L323.74 155.08"/>
<path d="M237.96 106.9L350.77 106.9"/>
<path d="M329.62 106.9L259.11 106.9"/>
<path d="M230.9 71.64L357.82 71.64"/>
<path d="M362.53 76.34L361.15 73.02M361.15 73.02L357.82 71.64"/>
<path d="M361.03 72.9L357.82 71.64"/>
<path d="M350.77 106.9L350.77 160.95"/>
<path d="M247.36 106.9L247.36 160.95"/>
<path d="M230.9 71.64L227.69 72.91"/>
<path d="M226.2 76.34L226.2 137.57"/>
<path d="M259.11 106.9L329.62 106.9"/>
<path d="M329.62 106.9L329.62 137.45"/>
<path d="M259.11 106.9L259.11 119.82"/>
<path d="M259.11 119.82L259.11 137.45"/>
<path d="M247.36 119.82L247.36 106.9"/>
<path d="M259.11 106.9L259.11 119.82"/>
<path d="M259.11 119.82L247.36 119.82"/>
<path d="M329.62 119.82L329.62 106.9"/>
<path d="M341.37 106.9L341.37 119.82"/>
<path d="M341.37 119.82L329.62 119.82"/>
<path d="M247.36 106.9L247.36 119.82"/>
<path d="M247.36 119.82L247.36 137.45"/>
<path d="M247.36 137.45L247.36 144.9"/>
<path d="M247.36 144.9L247.36 155.08"/>
<path d="M247.36 155.08L247.36 160.95"/>
<path d="M259.11 119.82L247.36 119.82"/>
<path d="M259.11 137.45L259.11 119.82"/>
<path d="M247.36 119.82L247.36 137.45"/>
<path d="M329.62 119.82L329.62 137.45"/>
<path d="M341.37 119.82L329.62 119.82"/>
<path d="M341.37 137.45L341.37 119.82"/>
<path d="M341.37 137.45L247.36 137.45"/>
<path d="M329.62 106.9L329.62 119.82"/>
<path d="M329.62 119.82L329.62 137.45"/>
<path d="M341.37 160.95L341.37 155.08"/>
<path d="M341.37 155.08L341.37 144.9"/>
<path d="M341.37 144.9L341.37 137.45"/>
<path d="M341.37 137.45L341.37 119.82"/>
<path d="M341.37 119.82L341.37 106.9"/>
<path d="M350.77 155.08L350.77 160.95"/>
<path d="M350.77 106.9L350.77 155.08"/>
<path d="M350.77 106.9L237.96 106.9"/>
<path d="M247.36 155.08L247.36 144.9"/>
<path d="M247.36 144.9L341.37 144.9"/>
<path d="M341.37 144.9L341.37 155.08"/>
<path d="M341.37 155.08L247.36 155.08"/>
<path d="M247.36 144.9L247.36 137.45"/>
<path d="M247.36 137.45L341.37 137.45"/>
<path d="M341.37 137.45L341.37 144.9"/>
<path d="M341.37 144.9L247.36 144.9"/>
<path d="M323.74 106.9L264.98 106.9"/>
<path d="M323.74 155.08L264.98 155.08"/>
<path d="M230.9 71.64L227.58 73.02M227.58 73.02L226.2 76.34"/>
<path d="M230.9 71.64L230.9 76.34"/>
<path d="M230.9 76.34L226.2 76.34"/>
<path d="M230.9 71.64L227.58 73.02M227.58 73.02L226.2 76.34"/>
<path d="M230.9 71.64L230.9 76.34"/>
<path d="M357.82 76.34L230.9 76.34"/>
<path d="M357.82 76.34L357.82 71.64"/>
<path d="M230.9 71.64L357.82 71.64"/>
<path d="M357.82 76.34L357.82 71.64"/>
<path d="M362.53 76.34L361.15 73.02M361.15 73.02L357.82 71.64"/>
<path d="M362.53 76.34L357.82 76.34"/>
<path d="M362.53 90.44L357.82 90.44"/>
<path d="M362.53 76.34L362.53 90.44"/>
<path d="M362.53 76.34L357.82 76.34"/>
<path d="M357.82 90.44L357.82 76.34"/>
<path d="M230.9 76.34L357.82 76.34"/>
<path d="M357.82 76.34L357.82 90.44"/>
<path d="M357.82 90.44L230.9 90.44"/>
<path d="M230.9 90.44L230.9 76.34"/>
<path d="M357.82 95.14L357.82 90.44"/>
<path d="M230.9 90.44L230.9 95.14"/>
<path d="M357.82 90.44L230.9 90.44"/>
<path d="M362.53 90.44L362.53 99.82"/>
<path d="M357.82 95.14L357.82 90.44"/>
<path d="M357.82 90.44L362.53 90.44"/>
<path d="M362.53 76.34L362.53 90.44"/>
<path d="M362.53 90.44L362.53 99.82"/>
<path d="M362.53 99.84L362.53 137.57"/>
<path d="M362.53 137.45L376.63 137.45"/>
<path d="M376.63 143.33L357.82 143.33"/>
<path d="M376.63 143.33L376.63 137.45"/>
<path d="M362.53 137.45L376.63 137.45"/>
<path d="M376.63 313.73L394.34 311.87M394.34 311.87L411.28 306.36M411.28 306.36L426.71 297.46M426.71 297.46L439.94 285.54M439.94 285.54L450.41 271.13M450.41 271.13L457.66 254.86M457.66 254.86L461.36 237.43M461.36 237.43L461.36 219.62M461.36 219.62L457.66 202.2M457.66 202.2L450.41 185.93M450.41 185.93L439.94 171.52M439.94 171.52L426.71 159.6M426.71 159.6L411.28 150.69M411.28 150.69L394.34 145.19M394.34 145.19L376.63 143.33"/>
<path d="M376.63 143.33L376.63 137.45"/>
<path d="M376.63 319.61L395.56 317.62M395.56 317.62L413.67 311.73M413.67 311.73L430.16 302.21M430.16 302.21L444.31 289.47M444.31 289.47L455.5 274.07M455.5 274.07L463.25 256.67M463.25 256.67L467.21 238.05M467.21 238.05L467.21 219.01M467.21 219.01L463.25 200.38M463.25 200.38L455.5 182.99M455.5 182.99L444.31 167.59M444.31 167.59L430.16 154.85M430.16 154.85L413.67 145.32M413.67 145.32L395.56 139.44M395.56 139.44L376.63 137.45"/>
<path d="M376.63 319.61L376.63 313.73"/>
<path d="M376.63 319.61L395.56 317.62M395.56 317.62L413.67 311.73M413.67 311.73L430.16 302.21M430.16 302.21L444.31 289.47M444.31 289.47L455.5 274.07M455.5 274.07L463.25 256.67M463.25 256.67L467.21 238.05M467.21 238.05L467.21 219.01M467.21 219.01L463.25 200.38M463.25 200.38L455.5 182.99M455.5 182.99L444.31 167.59M444.31 167.59L430.16 154.85M430.16 154.85L413.67 145.32M413.67 145.32L395.56 139.44M395.56 139.44L376.63 137.45"/>
<path d="M165.09 319.61L376.63 319.61"/>
<path d="M121.02 275.54L122.53 286.94M122.53 286.94L126.93 297.57M126.93 297.57L133.93 306.7M133.93 306.7L143.06 313.7M143.06 313.7L153.69 318.1M153.69 318.1L165.09 319.61"/>
<path d="M121.02 181.52L121.02 275.54"/>
<path d="M165.09 137.45L226.2 137.45"/>
<path d="M226.2 137.57L226.2 137.45"/>
<path d="M165.09 137.45L226.2 137.45"/>
<path d="M165.09 143.33L165.09 137.45"/>
<path d="M230.9 143.33L165.09 143.33"/>
<path d="M165.09 143.33L153.29 145.2M153.29 145.2L142.64 150.62M142.64 150.62L134.19 159.07M134.19 159.07L128.77 169.72M128.77 169.72L126.9 181.52"/>
<path d="M126.9 181.52L121.02 181.52"/>
<path d="M165.09 137.45L153.69 138.95M153.69 138.95L143.06 143.36M143.06 143.36L133.93 150.36M133.93 150.36L126.93 159.49M126.93 159.49L122.53 170.11M122.53 170.11L121.02 181.52"/>
<path d="M165.09 137.45L165.09 143.33"/>
<path d="M126.9 181.52L121.02 181.52"/>
<path d="M121.02 275.54L121.02 181.52"/>
<path d="M126.9 275.54L121.02 275.54"/>
<path d="M126.9 181.52L126.9 275.54"/>
<path d="M126.9 275.54L128.77 287.34M128.77 287.34L134.19 297.99M134.19 297.99L142.64 306.44M142.64 306.44L153.29 311.86M153.29 311.86L165.09 313.73"/>
<path d="M165.09 313.73L165.09 319.61"/>
<path d="M121.02 275.54L122.53 286.94M122.53 286.94L126.93 297.57M126.93 297.57L133.93 306.7M133.93 306.7L143.06 313.7M143.06 313.7L153.69 318.1M153.69 318.1L165.09 319.61"/>
<path d="M121.02 275.54L126.9 275.54"/>
<path d="M165.09 313.73L165.09 319.61"/>
<path d="M376.63 319.61L165.09 319.61"/>
<path d="M376.63 319.61L376.63 313.73"/>
<path d="M165.09 313.73L376.63 313.73"/>
<path d="M376.63 319.61L165.09 319.61"/>
<path d="M121.02 275.54L122.53 286.94M122.53 286.94L126.93 297.57M126.93 297.57L133.93 306.7M133.93 306.7L143.06 313.7M143.06 313.7L153.69 318.1M153.69 318.1L165.09 319.61"/>
<path d="M121.02 275.54L121.02 181.52"/>
<path d="M132.78 195.62L138.65 195.62"/>
<path d="M121.02 181.52L121.02 275.54"/>
<path d="M132.78 195.62L138.65 195.62"/>
<path d="M138.65 195.62L138.65 181.52"/>
<path d="M138.65 275.54L138.65 261.43"/>
<path d="M138.65 261.43L138.65 195.62"/>
<path d="M165.09 155.08L156.92 156.37M156.92 156.37L149.55 160.13M149.55 160.13L143.7 165.98M143.7 165.98L139.95 173.35M139.95 173.35L138.65 181.52"/>
<path d="M121.02 183.87L121.02 181.52"/>
<path d="M165.09 137.45L153.69 138.95M153.69 138.95L143.06 143.36M143.06 143.36L133.93 150.36M133.93 150.36L126.93 159.49M126.93 159.49L122.53 170.11M122.53 170.11L121.02 181.52"/>
<path d="M121.02 183.87L121.02 195.62"/>
<path d="M121.02 261.43L121.02 273.19"/>
<path d="M121.02 261.43L121.02 195.62"/>
<path d="M132.78 195.62L138.65 195.62"/>
<path d="M138.65 195.62L138.65 261.43"/>
<path d="M121.02 275.54L121.02 273.19"/>
<path d="M376.63 301.98L165.09 301.98"/>
<path d="M376.63 301.98L392.97 300.14M392.97 300.14L408.5 294.7M408.5 294.7L422.42 285.95M422.42 285.95L434.05 274.32M434.05 274.32L442.8 260.4M442.8 260.4L448.24 244.87M448.24 244.87L450.08 228.53M450.08 228.53L448.24 212.18M448.24 212.18L442.8 196.66M442.8 196.66L434.05 182.73M434.05 182.73L422.42 171.1M422.42 171.1L408.5 162.35M408.5 162.35L392.97 156.92M392.97 156.92L376.63 155.08"/>
<path d="M138.65 261.43L132.78 261.43"/>
<path d="M132.78 261.43L132.78 195.62"/>
<path d="M226.2 137.57L226.2 99.84"/>
<path d="M226.2 99.84L226.2 90.44"/>
<path d="M226.2 90.44L226.2 76.34"/>
<path d="M230.9 143.33L227.86 139.88M227.86 139.88L226.65 138.38M226.65 138.38L226.27 137.79M226.27 137.79L226.21 137.63M226.21 137.63L226.2 137.57"/>
<path d="M230.9 99.84L230.9 143.33"/>
<path d="M230.9 99.84L226.2 99.84"/>
<path d="M226.2 137.57L226.2 99.84"/>
<path d="M230.9 99.84L226.2 99.84"/>
<path d="M230.9 95.14L227.58 96.52M227.58 96.52L226.2 99.84"/>
<path d="M230.9 95.14L230.9 99.84"/>
<path d="M230.9 95.14L227.58 96.52M227.58 96.52L226.2 99.84"/>
<path d="M226.2 99.84L226.2 90.44"/>
<path d="M226.2 90.44L230.9 90.44"/>
<path d="M230.9 90.44L230.9 95.14"/>
<path d="M230.9 95.14L227.58 96.52M227.58 96.52L226.2 99.84"/>
<path d="M230.9 90.44L226.2 90.44"/>
<path d="M230.9 76.34L230.9 90.44"/>
<path d="M230.9 76.34L226.2 76.34"/>
<path d="M226.2 90.44L226.2 76.34"/>
<path d="M230.9 95.14L357.82 95.14"/>
<path d="M230.9 95.14L230.9 99.84"/>
<path d="M357.82 99.84L230.9 99.84"/>
<path d="M357.82 99.84L357.82 95.14"/>
<path d="M362.53 99.84L357.82 99.84"/>
<path d="M357.82 99.84L357.82 95.14"/>
<path d="M362.53 99.84L361.15 96.52M361.15 96.52L357.82 95.14"/>
<path d="M362.53 99.84L357.82 99.84"/>
<path d="M357.82 143.33L357.82 99.84"/>
<path d="M362.53 137.57L362.5 137.7M362.5 137.7L362.29 138.07M362.29 138.07L359.96 140.92M359.96 140.92L357.82 143.33"/>
<path d="M362.53 99.84L362.53 137.57"/>
<path d="M362.53 99.84L361.15 96.52M361.15 96.52L357.82 95.14"/>
<path d="M380.15 279.74L388.7 276.74M388.7 276.74L396.61 272.32"/>
<path d="M366.96 281.41L380.15 279.74"/>
<path d="M396.61 272.32L402.9 267.32M402.9 267.32L408.36 261.43"/>
<path d="M396.61 272.32L402.9 267.32M402.9 267.32L408.36 261.43"/>
<path d="M408.36 206.2L399.99 206.2"/>
<path d="M396.61 261.43L389.43 261.43"/>
<path d="M199.3 261.43L170.7 261.43"/>
<path d="M170.7 261.43L179.87 270.46M179.87 270.46L190.95 277"/>
<path d="M190.95 277L190.95 267.9"/>
<path d="M254.41 267.9L255.58 266.72"/>
<path d="M380.15 267.9L380.15 279.74"/>
<path d="M380.15 279.74L388.7 276.74M388.7 276.74L396.61 272.32"/>
<path d="M396.61 195.62L396.61 184.74"/>
<path d="M396.61 184.74L388.7 180.32M388.7 180.32L380.15 177.32"/>
<path d="M380.15 177.32L380.15 189.16"/>
<path d="M380.15 189.16L263.81 189.16"/>
<path d="M255.58 190.33L254.41 189.16"/>
<path d="M254.41 189.16L190.95 189.16"/>
<path d="M190.95 189.16L190.95 180.06"/>
<path d="M190.95 180.06L179.87 186.6M179.87 186.6L170.7 195.62"/>
<path d="M408.36 257.64L408.36 236.46"/>
<path d="M408.36 236.46L407.95 236.46"/>
<path d="M407.96 236.46L408.36 236.46"/>
<path d="M212.1 196.21L201.05 198.16M201.05 198.16L191.33 203.77M191.33 203.77L184.11 212.37M184.11 212.37L180.27 222.92M180.27 222.92L180.27 234.14M180.27 234.14L184.11 244.69M184.11 244.69L191.33 253.29M191.33 253.29L201.05 258.9M201.05 258.9L212.1 260.85"/>
<path d="M408.36 202.41L408.36 206.2"/>
<path d="M408.36 195.62L408.36 202.41"/>
<path d="M408.36 206.2L408.36 202.41"/>
<path d="M408.36 202.41L396.61 195.62"/>
<path d="M396.61 195.62L396.61 202.8"/>
<path d="M399.99 206.2L408.36 206.2"/>
<path d="M408.36 206.2L399.99 206.2"/>
<path d="M396.61 202.8L396.61 195.62"/>
<path d="M396.61 195.62L389.43 195.62"/>
<path d="M199.3 195.62L170.7 195.62"/>
<path d="M170.7 195.62L163.45 207.79M163.45 207.79L159.69 221.45M159.69 221.45L159.69 235.61M159.69 235.61L163.45 249.27M163.45 249.27L170.7 261.43"/>
<path d="M170.7 261.43L199.3 261.43"/>
<path d="M389.43 261.43L396.61 261.43"/>
<path d="M396.61 261.43L396.61 254.25"/>
<path d="M167.44 243.22L167.44 213.84"/>
<path d="M167.44 213.84L173.32 213.84"/>
<path d="M173.32 213.84L173.32 243.22"/>
<path d="M173.32 243.22L167.44 243.22"/>
<path d="M167.44 243.22L167.44 213.84"/>
<path d="M167.44 213.84L173.32 213.84"/>
<path d="M173.32 213.84L173.32 243.22"/>
<path d="M173.32 243.22L167.44 243.22"/>
<path d="M173.32 243.22L173.32 213.84"/>
<path d="M173.32 213.84L167.44 213.84"/>
<path d="M398.76 252.1L408.36 257.64"/>
<path d="M408.36 257.64L408.36 261.43"/>
<path d="M408.36 236.46L408.36 257.64"/>
<path d="M408.36 261.43L408.36 257.64"/>
<path d="M408.36 257.64L398.75 252.09"/>
<path d="M396.61 254.26L396.61 261.43"/>
<path d="M396.61 261.43L389.43 261.43"/>
<path d="M199.3 261.43L170.7 261.43"/>
<path d="M206.23 175.97L198.43 177.44M198.43 177.44L190.95 180.06"/>
<path d="M212.1 175.64L206.23 175.97"/>
<path d="M206.23 281.08L212.1 281.41"/>
<path d="M190.95 277L198.43 279.61M198.43 279.61L206.23 281.08"/>
<path d="M170.7 261.43L179.87 270.46M179.87 270.46L190.95 277"/>
<path d="M170.7 195.62L163.45 207.79M163.45 207.79L159.69 221.45M159.69 221.45L159.69 235.61M159.69 235.61L163.45 249.27M163.45 249.27L170.7 261.43"/>
<path d="M190.95 180.06L179.87 186.6M179.87 186.6L170.7 195.62"/>
<path d="M170.7 195.62L199.3 195.62"/>
<path d="M389.43 195.62L396.61 195.62"/>
<path d="M396.61 195.62L408.36 202.41"/>
<path d="M408.36 195.62L402.9 189.73M402.9 189.73L396.61 184.74"/>
<path d="M408.36 195.62L408.36 202.41"/>
<path d="M396.61 195.62L396.61 184.74"/>
<path d="M380.15 177.32L366.96 175.64"/>
<path d="M396.61 184.74L388.7 180.32M388.7 180.32L380.15 177.32"/>
<path d="M408.36 195.62L402.9 189.73M402.9 189.73L396.61 184.74"/>
<path d="M380.15 189.16L380.15 177.32"/>
<path d="M380.15 177.32L366.96 175.64"/>
<path d="M366.96 175.64L364.88 175.64"/>
<path d="M364.88 175.64L364.88 189.16"/>
<path d="M364.88 189.16L380.15 189.16"/>
<path d="M190.95 189.16L206.23 189.16"/>
<path d="M206.23 189.16L254.41 189.16"/>
<path d="M263.81 189.16L364.88 189.16"/>
<path d="M364.88 189.16L380.15 189.16"/>
<path d="M255.58 190.33L254.41 189.16"/>
<path d="M223.85 183.28L223.85 175.64"/>
<path d="M223.85 175.64L212.1 175.64"/>
<path d="M212.1 175.64L206.23 175.97"/>
<path d="M206.23 175.97L206.23 189.16"/>
<path d="M206.23 189.16L254.41 189.16"/>
<path d="M254.41 189.16L255.58 190.33"/>
<path d="M259.11 193.86L262.63 190.33"/>
<path d="M262.63 190.33L263.81 189.16"/>
<path d="M263.81 189.16L364.88 189.16"/>
<path d="M364.88 189.16L364.88 175.64"/>
<path d="M364.88 175.64L301.42 175.64"/>
<path d="M301.42 175.64L301.42 183.28"/>
<path d="M301.42 183.28L223.85 183.28"/>
<path d="M301.42 273.77L301.42 281.41"/>
<path d="M301.42 281.41L364.88 281.41"/>
<path d="M364.88 281.41L364.88 267.9"/>
<path d="M364.88 267.9L263.81 267.9"/>
<path d="M263.81 267.9L262.63 266.72"/>
<path d="M262.63 266.72L259.11 263.2"/>
<path d="M255.58 266.72L254.41 267.9"/>
<path d="M254.41 267.9L206.23 267.9"/>
<path d="M206.23 267.9L206.23 281.08"/>
<path d="M206.23 281.08L212.1 281.41"/>
<path d="M212.1 281.41L223.85 281.41"/>
<path d="M223.85 281.41L223.85 273.77"/>
<path d="M223.85 273.77L301.42 273.77"/>
<path d="M223.85 183.28L223.85 175.64"/>
<path d="M223.85 175.64L301.42 175.64"/>
<path d="M301.42 175.64L364.88 175.64"/>
<path d="M364.88 175.64L366.96 175.64"/>
<path d="M212.1 175.64L223.85 175.64"/>
<path d="M223.85 281.41L301.42 281.41"/>
<path d="M301.42 281.41L301.42 273.77"/>
<path d="M301.42 273.77L223.85 273.77"/>
<path d="M301.42 175.64L223.85 175.64"/>
<path d="M301.42 183.28L301.42 175.64"/>
<path d="M301.42 281.41L223.85 281.41"/>
<path d="M223.85 281.41L212.1 281.41"/>
<path d="M366.96 281.41L364.88 281.41"/>
<path d="M364.88 281.41L301.42 281.41"/>
<path d="M301.42 273.77L301.42 281.41"/>
<path d="M223.85 273.77L301.42 273.77"/>
<path d="M223.85 281.41L223.85 273.77"/>
<path d="M380.15 279.74L380.15 267.9"/>
<path d="M380.15 267.9L364.88 267.9"/>
<path d="M364.88 267.9L364.88 281.41"/>
<path d="M364.88 281.41L366.96 281.41"/>
<path d="M366.96 281.41L380.15 279.74"/>
<path d="M380.15 267.9L364.88 267.9"/>
<path d="M364.88 267.9L263.81 267.9"/>
<path d="M254.41 267.9L206.23 267.9"/>
<path d="M206.23 267.9L190.95 267.9"/>
<path d="M262.63 266.72L263.81 267.9"/>
<path d="M239.13 266.72L212.1 266.72"/>
<path d="M255.58 266.72L246.18 266.72"/>
<path d="M239.13 266.72L242.66 263.2"/>
<path d="M242.66 263.2L246.18 266.72"/>
<path d="M246.18 266.72L255.58 266.72"/>
<path d="M255.58 266.72L259.11 263.2"/>
<path d="M259.11 263.2L262.63 266.72"/>
<path d="M376.63 266.72L376.63 260.85"/>
<path d="M376.63 260.85L212.1 260.85"/>
<path d="M212.1 260.85L212.1 266.72"/>
<path d="M212.1 266.72L239.13 266.72"/>
<path d="M239.13 266.72L242.66 263.2"/>
<path d="M242.66 263.2L246.18 266.72"/>
<path d="M376.63 266.72L385.09 265.77"/>
<path d="M385.09 265.77L388.84 262.02"/>
<path d="M199.89 262.02L203.64 265.77"/>
<path d="M203.64 265.77L212.1 266.72"/>
<path d="M212.1 266.72L239.13 266.72"/>
<path d="M242.66 263.2L246.18 266.72"/>
<path d="M246.18 266.72L255.58 266.72"/>
<path d="M385.09 191.28L376.63 190.33"/>
<path d="M376.63 266.72L385.09 265.77"/>
<path d="M246.18 190.33L242.66 193.86"/>
<path d="M203.64 191.28L199.89 195.04"/>
<path d="M388.84 195.04L385.09 191.28"/>
<path d="M212.1 190.33L239.13 190.33"/>
<path d="M246.18 190.33L255.58 190.33"/>
<path d="M242.66 193.86L239.13 190.33"/>
<path d="M246.18 190.33L242.66 193.86"/>
<path d="M242.66 193.86L239.13 190.33"/>
<path d="M239.13 190.33L212.1 190.33"/>
<path d="M212.1 190.33L212.1 196.21"/>
<path d="M376.63 196.21L376.63 190.33"/>
<path d="M262.63 190.33L259.11 193.86"/>
<path d="M259.11 193.86L255.58 190.33"/>
<path d="M255.58 190.33L246.18 190.33"/>
<path d="M246.18 190.33L242.66 193.86"/>
<path d="M259.11 193.86L255.58 190.33"/>
<path d="M262.63 190.33L259.11 193.86"/>
<path d="M398.99 251.87L385.09 265.77"/>
<path d="M376.63 266.72L385.09 265.77"/>
<path d="M376.63 266.72L376.63 260.85"/>
<path d="M385.09 191.28L399.26 205.46"/>
<path d="M376.63 196.21L376.63 190.33"/>
<path d="M385.09 191.28L376.63 190.33"/>
<path d="M385.09 265.77L399.02 251.84"/>
<path d="M393.07 257.79L396.07 254.79"/>
<path d="M189.42 251.55L191.3 253.43"/>
<path d="M193.67 255.8L195.85 257.99"/>
<path d="M189.43 251.56L203.64 265.77"/>
<path d="M189.75 205.18L203.64 191.28"/>
<path d="M212.1 190.33L203.64 191.28"/>
<path d="M212.1 190.33L212.1 196.21"/>
<path d="M203.64 265.77L189.45 251.59"/>
<path d="M212.1 260.85L212.1 266.72"/>
<path d="M203.64 265.77L212.1 266.72"/>
<path d="M203.64 191.28L189.71 205.21"/>
<path d="M212.1 190.33L203.64 191.28"/>
<path d="M203.64 265.77L212.1 266.72"/>
<path d="M195.66 199.26L192.66 202.27"/>
<path d="M395.04 201.24L392.89 199.09"/>
<path d="M399.29 205.48L385.09 191.28"/>
<path d="M376.63 196.21L212.1 196.21"/>
<path d="M263.81 189.16L262.63 190.33"/>
<path d="M254.41 267.9L255.58 266.72"/>
<path d="M212.1 260.85L376.63 260.85"/>
<path d="M259.11 263.2L262.63 266.72"/>
<path d="M255.58 266.72L259.11 263.2"/>
<path d="M190.95 277L198.43 279.61M198.43 279.61L206.23 281.08"/>
<path d="M206.23 281.08L206.23 267.9"/>
<path d="M206.23 267.9L190.95 267.9"/>
<path d="M190.95 267.9L190.95 277"/>
<path d="M301.42 175.64L301.42 183.28"/>
<path d="M301.42 183.28L223.85 183.28"/>
<path d="M206.23 189.16L206.23 175.97"/>
<path d="M206.23 175.97L198.43 177.44M198.43 177.44L190.95 180.06"/>
<path d="M190.95 180.06L190.95 189.16"/>
<path d="M190.95 189.16L206.23 189.16"/>
<path d="M229.73 209.73L229.73 215.01"/>
<path d="M229.73 215.01L229.73 224.41"/>
<path d="M229.73 232.64L229.73 242.04"/>
<path d="M229.73 242.04L229.73 247.33"/>
<path d="M229.73 215.01L229.73 224.41"/>
<path d="M229.73 224.41L239.72 224.41"/>
<path d="M239.72 224.41L239.72 215.01"/>
<path d="M239.72 215.01L229.73 215.01"/>
<path d="M239.72 215.01L239.72 242.04"/>
<path d="M229.73 232.64L229.73 242.04"/>
<path d="M229.73 242.04L239.72 242.04"/>
<path d="M239.72 242.04L239.72 232.64"/>
<path d="M239.72 232.64L229.73 232.64"/>
<path d="M239.72 232.64L229.73 232.64"/>
<path d="M217.98 224.41L207.99 224.41"/>
<path d="M229.73 247.33L229.73 232.64"/>
<path d="M239.72 232.64L239.72 224.41"/>
<path d="M239.72 224.41L229.73 224.41"/>
<path d="M229.73 224.41L229.73 209.73"/>
<path d="M229.73 209.73L217.98 209.73"/>
<path d="M264.98 224.41L255 224.41"/>
<path d="M276.74 247.33L276.74 232.64"/>
<path d="M286.73 232.64L286.73 224.41"/>
<path d="M286.73 224.41L276.74 224.41"/>
<path d="M276.74 224.41L276.74 209.73"/>
<path d="M276.74 209.73L264.98 209.73"/>
<path d="M359 224.41L349.01 224.41"/>
<path d="M370.75 247.33L370.75 232.64"/>
<path d="M380.74 232.64L380.74 224.41"/>
<path d="M380.74 224.41L370.75 224.41"/>
<path d="M370.75 224.41L370.75 209.73"/>
<path d="M370.75 209.73L359 209.73"/>
<path d="M311.99 224.41L302 224.41"/>
<path d="M323.74 247.33L323.74 232.64"/>
<path d="M333.73 232.64L333.73 224.41"/>
<path d="M333.73 224.41L323.74 224.41"/>
<path d="M323.74 224.41L323.74 209.73"/>
<path d="M323.74 209.73L311.99 209.73"/>
<path d="M217.98 224.41L217.98 215.01"/>
<path d="M217.98 215.01L217.98 209.73"/>
<path d="M217.98 247.33L217.98 242.04"/>
<path d="M217.98 242.04L217.98 232.64"/>
<path d="M207.99 224.41L217.98 224.41"/>
<path d="M217.98 224.41L217.98 215.01"/>
<path d="M217.98 215.01L207.99 215.01"/>
<path d="M207.99 224.41L217.98 224.41"/>
<path d="M207.99 242.04L207.99 215.01"/>
<path d="M217.98 232.64L207.99 232.64"/>
<path d="M217.98 242.04L217.98 232.64"/>
<path d="M217.98 232.64L207.99 232.64"/>
<path d="M207.99 242.04L217.98 242.04"/>
<path d="M217.98 209.73L229.73 209.73"/>
<path d="M229.73 247.33L217.98 247.33"/>
<path d="M229.73 224.41L239.72 224.41"/>
<path d="M264.98 247.33L264.98 242.04"/>
<path d="M264.98 242.04L264.98 232.64"/>
<path d="M264.98 224.41L264.98 215.01"/>
<path d="M264.98 215.01L264.98 209.73"/>
<path d="M264.98 242.04L264.98 232.64"/>
<path d="M264.98 232.64L255 232.64"/>
<path d="M255 242.04L264.98 242.04"/>
<path d="M255 242.04L255 215.01"/>
<path d="M264.98 232.64L255 232.64"/>
<path d="M264.98 224.41L264.98 215.01"/>
<path d="M264.98 215.01L255 215.01"/>
<path d="M255 224.41L264.98 224.41"/>
<path d="M255 224.41L264.98 224.41"/>
<path d="M276.74 247.33L264.98 247.33"/>
<path d="M276.74 232.64L276.74 242.04"/>
<path d="M276.74 242.04L276.74 247.33"/>
<path d="M276.74 209.73L276.74 215.01"/>
<path d="M276.74 215.01L276.74 224.41"/>
<path d="M286.73 232.64L276.74 232.64"/>
<path d="M276.74 232.64L276.74 242.04"/>
<path d="M276.74 242.04L286.73 242.04"/>
<path d="M286.73 242.04L286.73 232.64"/>
<path d="M286.73 232.64L276.74 232.64"/>
<path d="M286.73 215.01L286.73 242.04"/>
<path d="M276.74 224.41L286.73 224.41"/>
<path d="M276.74 215.01L276.74 224.41"/>
<path d="M276.74 224.41L286.73 224.41"/>
<path d="M286.73 224.41L286.73 215.01"/>
<path d="M286.73 215.01L276.74 215.01"/>
<path d="M264.98 209.73L276.74 209.73"/>
<path d="M359 247.33L359 242.04"/>
<path d="M359 242.04L359 232.64"/>
<path d="M359 224.41L359 215.01"/>
<path d="M359 215.01L359 209.73"/>
<path d="M359 242.04L359 232.64"/>
<path d="M359 232.64L349.01 232.64"/>
<path d="M349.01 242.04L359 242.04"/>
<path d="M349.01 242.04L349.01 215.01"/>
<path d="M359 232.64L349.01 232.64"/>
<path d="M359 224.41L359 215.01"/>
<path d="M359 215.01L349.01 215.01"/>
<path d="M349.01 224.41L359 224.41"/>
<path d="M349.01 224.41L359 224.41"/>
<path d="M370.75 247.33L359 247.33"/>
<path d="M370.75 232.64L370.75 242.04"/>
<path d="M370.75 242.04L370.75 247.33"/>
<path d="M370.75 209.73L370.75 215.01"/>
<path d="M370.75 215.01L370.75 224.41"/>
<path d="M380.74 232.64L370.75 232.64"/>
<path d="M370.75 232.64L370.75 242.04"/>
<path d="M370.75 242.04L380.74 242.04"/>
<path d="M380.74 242.04L380.74 232.64"/>
<path d="M380.74 232.64L370.75 232.64"/>
<path d="M380.74 215.01L380.74 242.04"/>
<path d="M370.75 224.41L380.74 224.41"/>
<path d="M370.75 215.01L370.75 224.41"/>
<path d="M370.75 224.41L380.74 224.41"/>
<path d="M380.74 224.41L380.74 215.01"/>
<path d="M380.74 215.01L370.75 215.01"/>
<path d="M359 209.73L370.75 209.73"/>
<path d="M311.99 224.41L311.99 215.01"/>
<path d="M311.99 215.01L311.99 209.73"/>
<path d="M311.99 247.33L311.99 242.04"/>
<path d="M311.99 242.04L311.99 232.64"/>
<path d="M302 224.41L311.99 224.41"/>
<path d="M311.99 224.41L311.99 215.01"/>
<path d="M311.99 215.01L302 215.01"/>
<path d="M302 224.41L311.99 224.41"/>
<path d="M302 242.04L302 215.01"/>
<path d="M311.99 232.64L302 232.64"/>
<path d="M311.99 242.04L311.99 232.64"/>
<path d="M311.99 232.64L302 232.64"/>
<path d="M302 242.04L311.99 242.04"/>
<path d="M311.99 209.73L323.74 209.73"/>
<path d="M323.74 209.73L323.74 215.01"/>
<path d="M323.74 215.01L323.74 224.41"/>
<path d="M323.74 232.64L323.74 242.04"/>
<path d="M323.74 242.04L323.74 247.33"/>
<path d="M323.74 215.01L323.74 224.41"/>
<path d="M323.74 224.41L333.73 224.41"/>
<path d="M333.73 224.41L333.73 215.01"/>
<path d="M333.73 215.01L323.74 215.01"/>
<path d="M333.73 215.01L333.73 242.04"/>
<path d="M323.74 232.64L323.74 242.04"/>
<path d="M323.74 242.04L333.73 242.04"/>
<path d="M333.73 242.04L333.73 232.64"/>
<path d="M333.73 232.64L323.74 232.64"/>
<path d="M333.73 232.64L323.74 232.64"/>
<path d="M323.74 224.41L333.73 224.41"/>
<path d="M323.74 247.33L311.99 247.33"/>
</g>
</g>
</svg>
