<?xml version="1.0" standalone="no"?><svg xmlns="http://www.w3.org/2000/svg" width="600.000" height="450.000" viewBox="0.0 0.0 600.000 450.000" version="1.1">
<title>Acme Converter - Post-processed with EDS-Designer: 14.44 (info@symca.com)</title>
<desc>Acme Converter - Post-processed with EDS-Designer: 14.44 (info@symca.com)</desc>
<g id="EDS_STYLE_GROUP" fill="none" stroke="black" stroke-width="1.0">
<g id="0" display="visible">
<path d="M225.06 177.38L225.06 92.26"/>
<path d="M357.84 95.66L242.08 95.66"/>
<path d="M364.65 279.52L242.08 279.52"/>
<path d="M248.89 180.78L248.89 120.38"/>
<path d="M378.27 109.28L374.87 109.28"/>
<path d="M340.82 132.44L259.1 132.44"/>
<path d="M388.49 191L388.49 187.59"/>
<path d="M340.82 136.52L259.1 136.52"/>
<path d="M388.49 187.59L387.57 184.19M387.57 184.19L385.08 181.7M385.08 181.7L381.68 180.78"/>
<path d="M381.68 197.81L385.08 196.9M385.08 196.9L387.57 194.4M387.57 194.4L388.49 191"/>
<path d="M248.89 136.52L225.06 136.52"/>
<path d="M371.46 109.28L369.64 102.47M369.64 102.47L364.65 97.49M364.65 97.49L357.84 95.66"/>
<path d="M242.08 95.66L235.27 97.49M235.27 97.49L230.29 102.47M230.29 102.47L228.46 109.28"/>
<path d="M340.82 122.9L259.1 122.9"/>
<path d="M233.29 326.22L234.82 332.05M234.82 332.05L234.82 320.38M234.82 320.38L233.29 326.22M233.29 326.22L230.22 322.32M230.22 322.32L225.61 320.38M225.61 320.38L222.54 320.38M222.54 320.38L217.94 322.32M217.94 322.32L214.87 326.22M214.87 326.22L213.33 330.11M213.33 330.11L211.8 335.94M211.8 335.94L211.8 345.67M211.8 345.67L213.33 351.51M213.33 351.51L214.87 355.4M214.87 355.4L217.94 359.29M217.94 359.29L222.54 361.24M222.54 361.24L225.61 361.24M225.61 361.24L230.22 359.29M230.22 359.29L233.29 355.4M222.54 320.38L219.47 322.32M219.47 322.32L216.4 326.22M216.4 326.22L214.87 330.11M214.87 330.11L213.33 335.94M213.33 335.94L213.33 345.67M213.33 345.67L214.87 351.51M214.87 351.51L216.4 355.4M216.4 355.4L219.47 359.29M219.47 359.29L222.54 361.24M233.29 345.67L233.29 361.24M234.82 345.67L234.82 361.24M228.68 345.67L239.43 345.67M251.71 361.24L251.71 320.38M253.24 320.38L253.24 361.24M247.1 320.38L265.52 320.38M265.52 320.38L270.13 322.32M270.13 322.32L271.66 324.27M271.66 324.27L273.2 328.16M273.2 328.16L273.2 332.05M273.2 332.05L271.66 335.94M271.66 335.94L270.13 337.89M270.13 337.89L265.52 339.84M265.52 339.84L253.24 339.84M265.52 320.38L268.59 322.32M268.59 322.32L270.13 324.27M270.13 324.27L271.66 328.16M271.66 328.16L271.66 332.05M271.66 332.05L270.13 335.94M270.13 335.94L268.59 337.89M268.59 337.89L265.52 339.84M247.1 361.24L257.85 361.24M260.92 339.84L263.99 341.78M263.99 341.78L265.52 343.73M265.52 343.73L270.13 357.35M270.13 357.35L271.66 359.29M271.66 359.29L273.2 359.29M273.2 359.29L274.73 357.35M263.99 341.78L265.52 345.67M265.52 345.67L268.59 359.29M268.59 359.29L270.13 361.24M270.13 361.24L273.2 361.24M273.2 361.24L274.73 357.35M274.73 357.35L274.73 355.4M285.48 361.24L285.48 320.38M287.01 320.38L287.01 361.24M296.22 332.05L296.22 347.62M280.87 320.38L305.43 320.38M305.43 320.38L305.43 332.05M305.43 332.05L303.9 320.38M287.01 339.84L296.22 339.84M280.87 361.24L305.43 361.24M305.43 361.24L305.43 349.56M305.43 349.56L303.9 361.24M317.71 361.24L317.71 320.38M319.25 320.38L319.25 361.24M328.46 332.05L328.46 347.62M313.11 320.38L337.67 320.38M337.67 320.38L337.67 332.05M337.67 332.05L336.13 320.38M319.25 339.84L328.46 339.84M313.11 361.24L337.67 361.24M337.67 361.24L337.67 349.56M337.67 349.56L336.13 361.24M349.95 361.24L349.95 320.38M351.48 361.24L351.48 320.38M351.48 320.38L369.9 357.35M351.48 324.27L369.9 361.24M369.9 361.24L369.9 320.38M345.34 320.38L351.48 320.38M365.3 320.38L374.51 320.38M345.34 361.24L354.55 361.24"/>
<path d="M344.22 293.14L255.7 293.14"/>
<path d="M378.27 238.66L378.27 197.81"/>
<path d="M221.65 255.69L221.65 201.21"/>
<path d="M252.29 116.98L286.34 116.98"/>
<path d="M313.58 116.98L347.63 116.98"/>
<path d="M259.1 127.19L340.82 127.19"/>
<path d="M351.03 197.81L303.37 197.81"/>
<path d="M248.89 228.45L296.56 228.45"/>
<path d="M351.03 228.45L351.03 197.81"/>
<path d="M248.89 197.81L248.89 228.45"/>
<path d="M296.56 197.81L248.89 197.81"/>
<path d="M303.37 228.45L351.03 228.45"/>
<path d="M303.37 197.81L303.37 228.45"/>
<path d="M296.56 197.81L296.56 228.45"/>
<path d="M261.54 248.55L261.54 247.26M261.54 247.26L262.83 244.66M262.83 244.66L264.13 243.37M264.13 243.37L266.72 242.07M266.72 242.07L271.91 242.07M271.91 242.07L274.51 243.37M274.51 243.37L275.8 244.66M275.8 244.66L277.1 247.26M277.1 247.26L277.1 249.85M277.1 249.85L275.8 252.45M275.8 252.45L273.21 256.34M273.21 256.34L260.24 269.31M260.24 269.31L278.4 269.31"/>
<path d="M327.36 247.26L329.96 245.96M329.96 245.96L333.85 242.07M333.85 242.07L333.85 269.31"/>
<path d="M242.08 279.52L255.7 293.14"/>
<path d="M357.84 279.52L344.22 293.14"/>
<path d="M371.46 265.9L371.46 184.19"/>
<path d="M228.46 180.78L228.46 265.9"/>
<path d="M248.89 180.78L228.46 180.78"/>
<path d="M340.82 116.98L340.82 136.52"/>
<path d="M259.1 136.52L259.1 116.98"/>
<path d="M208.03 194.4L208.03 92.26"/>
<path d="M218.25 197.81L211.44 197.81"/>
<path d="M208.03 194.4L209.03 196.81M209.03 196.81L211.44 197.81"/>
<path d="M221.65 201.21L220.65 198.8M220.65 198.8L218.25 197.81"/>
<path d="M228.46 259.09L225.06 259.09"/>
<path d="M221.65 255.69L222.65 258.1M222.65 258.1L225.06 259.09"/>
<path d="M228.46 265.9L230.29 272.71M230.29 272.71L235.27 277.7M235.27 277.7L242.08 279.52"/>
<path d="M225.06 177.38L226.05 179.79M226.05 179.79L228.46 180.78"/>
<path d="M221.65 88.85L211.44 88.85"/>
<path d="M211.44 88.85L209.03 89.85M209.03 89.85L208.03 92.26"/>
<path d="M225.06 92.26L224.06 89.85M224.06 89.85L221.65 88.85"/>
<path d="M357.84 279.52L364.65 277.7M364.65 277.7L369.64 272.71M369.64 272.71L371.46 265.9"/>
<path d="M228.46 136.52L228.46 109.28"/>
<path d="M269.32 95.66L269.32 116.98"/>
<path d="M330.6 95.66L330.6 116.98"/>
<path d="M330.6 102.47L269.32 102.47"/>
<path d="M323.79 146.74L276.13 146.74"/>
<path d="M276.13 177.38L323.79 177.38"/>
<path d="M323.79 146.74L323.79 177.38"/>
<path d="M276.13 146.74L276.13 177.38"/>
<path d="M269.32 136.52L276.13 146.74"/>
<path d="M330.6 136.52L323.79 146.74"/>
<path d="M225.06 109.28L208.03 109.28"/>
<path d="M252.29 116.98L249.89 117.97M249.89 117.97L248.89 120.38"/>
<path d="M269.32 109.28L228.46 109.28"/>
<path d="M313.58 112.69L313.58 119.5"/>
<path d="M313.58 119.5L286.34 119.5"/>
<path d="M286.34 119.5L286.34 112.69"/>
<path d="M286.34 112.69L313.58 112.69"/>
<path d="M248.89 163.76L235.27 163.76"/>
<path d="M235.27 163.76L235.27 180.78"/>
<path d="M391.89 194.4L391.89 92.26"/>
<path d="M381.68 197.81L388.49 197.81"/>
<path d="M388.49 197.81L390.89 196.81M390.89 196.81L391.89 194.4"/>
<path d="M374.87 177.38L374.87 92.26"/>
<path d="M378.27 88.85L388.49 88.85"/>
<path d="M374.87 109.28L391.89 109.28"/>
<path d="M378.27 88.85L375.86 89.85M375.86 89.85L374.87 92.26"/>
<path d="M391.89 92.26L390.89 89.85M390.89 89.85L388.49 88.85"/>
<path d="M371.46 136.52L371.46 109.28"/>
<path d="M351.03 120.38L350.04 117.97M350.04 117.97L347.63 116.98"/>
<path d="M351.03 180.78L351.03 120.38"/>
<path d="M351.03 136.52L374.87 136.52"/>
<path d="M351.03 163.76L364.65 163.76"/>
<path d="M364.65 163.76L364.65 180.78"/>
<path d="M351.03 180.78L381.68 180.78"/>
<path d="M371.46 180.78L373.16 180.33M373.16 180.33L374.41 179.08M374.41 179.08L374.87 177.38"/>
<path d="M371.46 109.28L330.6 109.28"/>
<path d="M371.46 184.19L370.46 181.78M370.46 181.78L368.06 180.78"/>
<path d="M385.08 299.95L385.08 242.07"/>
<path d="M371.46 238.66L381.68 238.66"/>
<path d="M368.06 299.95L368.06 282.93"/>
<path d="M371.46 303.36L381.68 303.36"/>
<path d="M385.08 242.07L384.08 239.66M384.08 239.66L381.68 238.66"/>
<path d="M381.68 303.36L384.08 302.36M384.08 302.36L385.08 299.95"/>
<path d="M368.06 299.95L369.05 302.36M369.05 302.36L371.46 303.36"/>
<path d="M381.68 197.81L371.46 197.81"/>
<path d="M391.89 146.74L374.87 146.74"/>
<path d="M225.06 146.74L208.03 146.74"/>
<path d="M368.06 282.93L367.06 280.52M367.06 280.52L364.65 279.52"/>
</g>
</g>
</svg>
