<?xml version="1.0" standalone="no"?><svg xmlns="http://www.w3.org/2000/svg" width="600.000" height="450.000" viewBox="0.0 0.0 600.000 450.000" version="1.1">
<title>Acme Converter - Post-processed with EDS-Designer: 14.44 (info@symca.com)</title>
<desc>Acme Converter - Post-processed with EDS-Designer: 14.44 (info@symca.com)</desc>
<g id="EDS_STYLE_GROUP" fill="none" stroke="black" stroke-width="1.0">
<g id="0" display="visible">
<path d="M171.13 253.64L171.13 269.81"/>
<path d="M171.13 269.81L195.39 269.81"/>
<path d="M195.39 269.81L195.39 253.64"/>
<path d="M195.39 253.64L171.13 253.64"/>
<path d="M171.13 253.64L163.04 245.55"/>
<path d="M163.04 245.55L163.04 277.9"/>
<path d="M163.04 277.9L203.48 277.9"/>
<path d="M203.48 277.9L203.48 245.55"/>
<path d="M203.48 245.55L163.04 245.55"/>
<path d="M195.39 253.64L203.48 245.55"/>
<path d="M171.13 269.81L163.04 277.9"/>
<path d="M195.39 269.81L203.48 277.9"/>
<path d="M211.56 245.55L211.56 277.9"/>
<path d="M211.56 277.9L251.99 277.9"/>
<path d="M251.99 277.9L251.99 245.55"/>
<path d="M251.99 245.55L211.56 245.55"/>
<path d="M211.56 245.55L219.65 253.64"/>
<path d="M219.65 253.64L219.65 269.81"/>
<path d="M219.65 269.81L243.91 269.81"/>
<path d="M243.91 269.81L243.91 253.64"/>
<path d="M243.91 253.64L219.65 253.64"/>
<path d="M243.91 253.64L251.99 245.55"/>
<path d="M219.65 269.81L211.56 277.9"/>
<path d="M243.91 269.81L251.99 277.9"/>
<path d="M260.08 245.55L260.08 277.9"/>
<path d="M260.08 277.9L300.51 277.9"/>
<path d="M300.51 277.9L300.51 245.55"/>
<path d="M300.51 245.55L260.08 245.55"/>
<path d="M260.08 245.55L268.16 253.64"/>
<path d="M268.16 253.64L268.16 269.81"/>
<path d="M268.16 269.81L292.42 269.81"/>
<path d="M292.42 269.81L292.42 253.64"/>
<path d="M292.42 253.64L268.16 253.64"/>
<path d="M292.42 253.64L300.51 245.55"/>
<path d="M268.16 269.81L260.08 277.9"/>
<path d="M292.42 269.81L300.51 277.9"/>
<path d="M308.6 245.55L308.6 277.9"/>
<path d="M308.6 277.9L349.03 277.9"/>
<path d="M349.03 277.9L349.03 245.55"/>
<path d="M349.03 245.55L308.6 245.55"/>
<path d="M308.6 245.55L316.68 253.64"/>
<path d="M316.68 253.64L316.68 269.81"/>
<path d="M316.68 269.81L340.94 269.81"/>
<path d="M340.94 269.81L340.94 253.64"/>
<path d="M340.94 253.64L316.68 253.64"/>
<path d="M340.94 253.64L349.03 245.55"/>
<path d="M316.68 269.81L308.6 277.9"/>
<path d="M340.94 269.81L349.03 277.9"/>
<path d="M357.11 245.55L357.11 277.9"/>
<path d="M357.11 277.9L397.54 277.9"/>
<path d="M397.54 277.9L397.54 245.55"/>
<path d="M397.54 245.55L357.11 245.55"/>
<path d="M357.11 245.55L365.2 253.64"/>
<path d="M365.2 253.64L365.2 269.81"/>
<path d="M365.2 269.81L389.46 269.81"/>
<path d="M389.46 269.81L389.46 253.64"/>
<path d="M389.46 253.64L365.2 253.64"/>
<path d="M389.46 253.64L397.54 245.55"/>
<path d="M365.2 269.81L357.11 277.9"/>
<path d="M389.46 269.81L397.54 277.9"/>
<path d="M405.63 245.55L405.63 277.9"/>
<path d="M405.63 277.9L446.06 277.9"/>
<path d="M446.06 277.9L446.06 245.55"/>
<path d="M446.06 245.55L405.63 245.55"/>
<path d="M405.63 245.55L413.72 253.64"/>
<path d="M413.72 253.64L413.72 269.81"/>
<path d="M413.72 269.81L437.97 269.81"/>
<path d="M437.97 269.81L437.97 253.64"/>
<path d="M437.97 253.64L413.72 253.64"/>
<path d="M437.97 253.64L446.06 245.55"/>
<path d="M454.15 213.21L454.15 269.81"/>
<path d="M454.15 269.81L462.23 269.81"/>
<path d="M462.23 269.81L462.23 213.21"/>
<path d="M462.23 213.21L454.15 213.21"/>
<path d="M154.96 269.81L146.87 269.81"/>
<path d="M146.87 269.81L146.87 213.21"/>
<path d="M146.87 213.21L154.96 213.21"/>
<path d="M154.96 213.21L154.96 269.81"/>
<path d="M243.91 168.73L243.91 172.78"/>
<path d="M235.82 180.86L134.74 180.86"/>
<path d="M134.74 180.86L134.74 298.11"/>
<path d="M138.79 302.16L251.99 302.16"/>
<path d="M474.36 298.11L474.36 180.86"/>
<path d="M474.36 180.86L373.28 180.86"/>
<path d="M365.2 172.78L365.2 168.73"/>
<path d="M361.16 164.69L247.95 164.69"/>
<path d="M134.74 285.98L130.7 285.98"/>
<path d="M130.7 314.29L478.4 314.29"/>
<path d="M171.13 342.59L171.13 314.29"/>
<path d="M437.97 314.29L437.97 342.59"/>
<path d="M437.97 269.81L446.06 277.9"/>
<path d="M413.72 269.81L405.63 277.9"/>
<path d="M130.7 285.98L130.7 326.41"/>
<path d="M146.87 342.59L462.23 342.59"/>
<path d="M478.4 326.41L478.4 306.2"/>
<path d="M235.82 180.86L239.86 179.78M239.86 179.78L242.82 176.82M242.82 176.82L243.91 172.78"/>
<path d="M365.2 172.78L366.28 176.82M366.28 176.82L369.24 179.78M369.24 179.78L373.28 180.86"/>
<path d="M134.74 180.86L130.7 180.86"/>
<path d="M126.66 176.82L126.66 168.73"/>
<path d="M130.7 164.69L163.04 164.69"/>
<path d="M163.04 164.69L163.04 120.22"/>
<path d="M167.09 116.17L195.39 116.17"/>
<path d="M195.39 116.17L195.39 83.83"/>
<path d="M195.39 83.83L211.56 83.83"/>
<path d="M211.56 83.83L211.56 108.09"/>
<path d="M211.56 108.09L227.73 108.09"/>
<path d="M227.73 108.09L227.73 91.92"/>
<path d="M227.73 91.92L260.08 91.92"/>
<path d="M260.08 91.92L260.08 164.69"/>
<path d="M195.39 124.26L195.39 156.61"/>
<path d="M195.39 156.61L227.73 156.61"/>
<path d="M227.73 156.61L227.73 124.26"/>
<path d="M227.73 124.26L195.39 124.26"/>
<path d="M227.73 124.26L223.69 128.3"/>
<path d="M223.69 128.3L199.43 128.3"/>
<path d="M199.43 128.3L199.43 156.61"/>
<path d="M199.43 128.3L195.39 124.26"/>
<path d="M474.36 180.86L478.4 180.86"/>
<path d="M482.45 176.82L482.45 168.73"/>
<path d="M478.4 164.69L429.89 164.69"/>
<path d="M413.72 116.17L413.72 83.83"/>
<path d="M413.72 83.83L397.54 83.83"/>
<path d="M397.54 83.83L397.54 108.09"/>
<path d="M397.54 108.09L381.37 108.09"/>
<path d="M381.37 108.09L381.37 91.92"/>
<path d="M381.37 91.92L349.03 91.92"/>
<path d="M349.03 91.92L349.03 164.69"/>
<path d="M413.72 124.26L413.72 156.61"/>
<path d="M413.72 156.61L381.37 156.61"/>
<path d="M381.37 156.61L381.37 124.26"/>
<path d="M381.37 124.26L413.72 124.26"/>
<path d="M381.37 124.26L385.41 128.3"/>
<path d="M385.41 128.3L409.67 128.3"/>
<path d="M409.67 128.3L409.67 156.61"/>
<path d="M409.67 128.3L413.72 124.26"/>
<path d="M268.16 164.69L268.16 124.26"/>
<path d="M268.16 124.26L340.94 124.26"/>
<path d="M340.94 124.26L340.94 164.69"/>
<path d="M276.25 164.69L276.25 132.35"/>
<path d="M276.25 132.35L332.85 132.35"/>
<path d="M332.85 132.35L332.85 164.69"/>
<path d="M276.25 124.26L276.25 108.09"/>
<path d="M276.25 108.09L332.85 108.09"/>
<path d="M332.85 108.09L332.85 124.26"/>
<path d="M276.25 116.17L332.85 116.17"/>
<path d="M276.25 108.09L268.16 108.09"/>
<path d="M268.16 108.09L268.16 83.83"/>
<path d="M268.16 83.83L340.94 83.83"/>
<path d="M340.94 83.83L340.94 108.09"/>
<path d="M340.94 108.09L332.85 108.09"/>
<path d="M268.16 91.92L340.94 91.92"/>
<path d="M268.16 100L340.94 100"/>
<path d="M243.91 91.92L243.91 67.66"/>
<path d="M260.08 51.49L349.03 51.49"/>
<path d="M365.2 67.66L365.2 91.92"/>
<path d="M251.99 91.92L251.99 75.74"/>
<path d="M268.16 59.57L340.94 59.57"/>
<path d="M357.11 75.74L357.11 91.92"/>
<path d="M268.16 59.57L261.98 60.8M261.98 60.8L256.73 64.31M256.73 64.31L253.22 69.56M253.22 69.56L251.99 75.74"/>
<path d="M357.11 75.74L355.88 69.56M355.88 69.56L352.38 64.31M352.38 64.31L347.13 60.8M347.13 60.8L340.94 59.57"/>
<path d="M365.2 67.66L363.97 61.47M363.97 61.47L360.46 56.22M360.46 56.22L355.22 52.72M355.22 52.72L349.03 51.49"/>
<path d="M260.08 51.49L253.89 52.72M253.89 52.72L248.64 56.22M248.64 56.22L245.14 61.47M245.14 61.47L243.91 67.66"/>
<path d="M195.39 51.49L219.65 51.49"/>
<path d="M235.82 67.66L235.82 91.92"/>
<path d="M413.72 51.49L389.46 51.49"/>
<path d="M373.28 67.66L373.28 91.92"/>
<path d="M179.22 67.66L179.22 108.09"/>
<path d="M179.22 108.09L195.39 108.09"/>
<path d="M429.89 67.66L429.89 164.69"/>
<path d="M429.89 108.09L413.72 108.09"/>
<path d="M195.39 51.49L189.2 52.72M189.2 52.72L183.95 56.22M183.95 56.22L180.45 61.47M180.45 61.47L179.22 67.66"/>
<path d="M235.82 67.66L234.59 61.47M234.59 61.47L231.08 56.22M231.08 56.22L225.84 52.72M225.84 52.72L219.65 51.49"/>
<path d="M389.46 51.49L383.27 52.72M383.27 52.72L378.02 56.22M378.02 56.22L374.52 61.47M374.52 61.47L373.28 67.66"/>
<path d="M429.89 67.66L428.66 61.47M428.66 61.47L425.15 56.22M425.15 56.22L419.9 52.72M419.9 52.72L413.72 51.49"/>
<path d="M230.78 407.28L230.78 366.84M232.33 366.84L232.33 407.28M226.12 366.84L244.76 366.84M244.76 366.84L249.42 368.77M249.42 368.77L250.97 370.7M250.97 370.7L252.52 374.55M252.52 374.55L252.52 378.4M252.52 378.4L250.97 382.25M250.97 382.25L249.42 384.17M249.42 384.17L244.76 386.1M244.76 366.84L247.86 368.77M247.86 368.77L249.42 370.7M249.42 370.7L250.97 374.55M250.97 374.55L250.97 378.4M250.97 378.4L249.42 382.25M249.42 382.25L247.86 384.17M247.86 384.17L244.76 386.1M232.33 386.1L244.76 386.1M244.76 386.1L249.42 388.02M249.42 388.02L250.97 389.95M250.97 389.95L252.52 393.8M252.52 393.8L252.52 399.57M252.52 399.57L250.97 403.43M250.97 403.43L249.42 405.35M249.42 405.35L244.76 407.28M244.76 407.28L226.12 407.28M244.76 386.1L247.86 388.02M247.86 388.02L249.42 389.95M249.42 389.95L250.97 393.8M250.97 393.8L250.97 399.57M250.97 399.57L249.42 403.43M249.42 403.43L247.86 405.35M247.86 405.35L244.76 407.28M264.95 407.28L264.95 366.84M266.5 366.84L266.5 407.28M260.29 366.84L271.16 366.84M260.29 407.28L283.58 407.28M283.58 407.28L283.58 395.72M283.58 395.72L282.03 407.28M302.22 366.84L291.35 407.28M302.22 366.84L313.09 407.28M302.22 372.62L311.54 407.28M294.46 395.72L308.44 395.72M288.24 407.28L297.56 407.28M306.88 407.28L316.2 407.28M342.6 372.62L344.16 378.4M344.16 378.4L344.16 366.84M344.16 366.84L342.6 372.62M342.6 372.62L339.5 368.77M339.5 368.77L334.84 366.84M334.84 366.84L331.73 366.84M331.73 366.84L327.07 368.77M327.07 368.77L323.97 372.62M323.97 372.62L322.41 376.47M322.41 376.47L320.86 382.25M320.86 382.25L320.86 391.87M320.86 391.87L322.41 397.65M322.41 397.65L323.97 401.5M323.97 401.5L327.07 405.35M327.07 405.35L331.73 407.28M331.73 407.28L334.84 407.28M334.84 407.28L339.5 405.35M339.5 405.35L342.6 401.5M342.6 401.5L344.16 397.65M331.73 366.84L328.63 368.77M328.63 368.77L325.52 372.62M325.52 372.62L323.97 376.47M323.97 376.47L322.41 382.25M322.41 382.25L322.41 391.87M322.41 391.87L323.97 397.65M323.97 397.65L325.52 401.5M325.52 401.5L328.63 405.35M328.63 405.35L331.73 407.28M358.14 407.28L358.14 366.84M359.69 366.84L359.69 407.28M379.88 366.84L359.69 391.87M367.46 384.17L379.88 407.28M365.9 384.17L378.33 407.28M353.48 366.84L364.35 366.84M373.67 366.84L382.99 366.84M353.48 407.28L364.35 407.28M373.67 407.28L382.99 407.28"/>
<path d="M495.78 209.74L498.05 208.59M498.05 208.59L501.46 205.12M501.46 205.12L501.46 229.38"/>
<path d="M116.73 212.63L115.59 210.32M115.59 210.32L112.19 209.17M112.19 209.17L109.92 209.17M109.92 209.17L106.51 210.32M106.51 210.32L104.24 213.79M104.24 213.79L103.11 219.56M103.11 219.56L103.11 225.34M103.11 225.34L104.24 229.96M104.24 229.96L106.51 232.27M106.51 232.27L109.92 233.42M109.92 233.42L111.05 233.42M111.05 233.42L114.46 232.27M114.46 232.27L116.73 229.96M116.73 229.96L117.86 226.49M117.86 226.49L117.86 225.34M117.86 225.34L116.73 221.87M116.73 221.87L114.46 219.56M114.46 219.56L111.05 218.41M111.05 218.41L109.92 218.41M109.92 218.41L106.51 219.56M106.51 219.56L104.24 221.87M104.24 221.87L103.11 225.34"/>
<path d="M292.42 213.21L268.16 213.21"/>
<path d="M268.16 229.38L292.42 229.38"/>
<path d="M260.08 237.47L300.51 237.47"/>
<path d="M300.51 205.12L260.08 205.12"/>
<path d="M211.56 205.12L219.65 213.21"/>
<path d="M211.56 205.12L211.56 237.47"/>
<path d="M195.39 213.21L203.48 205.12"/>
<path d="M203.48 237.47L203.48 205.12"/>
<path d="M163.04 205.12L163.04 237.47"/>
<path d="M171.13 213.21L163.04 205.12"/>
<path d="M260.08 205.12L268.16 213.21"/>
<path d="M260.08 205.12L260.08 237.47"/>
<path d="M243.91 213.21L251.99 205.12"/>
<path d="M251.99 237.47L251.99 205.12"/>
<path d="M219.65 229.38L211.56 237.47"/>
<path d="M211.56 237.47L251.99 237.47"/>
<path d="M195.39 229.38L203.48 237.47"/>
<path d="M163.04 237.47L203.48 237.47"/>
<path d="M171.13 229.38L163.04 237.47"/>
<path d="M195.39 213.21L171.13 213.21"/>
<path d="M195.39 229.38L195.39 213.21"/>
<path d="M171.13 229.38L195.39 229.38"/>
<path d="M171.13 213.21L171.13 229.38"/>
<path d="M268.16 229.38L260.08 237.47"/>
<path d="M243.91 229.38L251.99 237.47"/>
<path d="M243.91 229.38L243.91 213.21"/>
<path d="M268.16 213.21L268.16 229.38"/>
<path d="M219.65 213.21L219.65 229.38"/>
<path d="M243.91 213.21L219.65 213.21"/>
<path d="M219.65 229.38L243.91 229.38"/>
<path d="M251.99 205.12L211.56 205.12"/>
<path d="M203.48 205.12L163.04 205.12"/>
<path d="M308.6 205.12L308.6 237.47"/>
<path d="M349.03 237.47L349.03 205.12"/>
<path d="M308.6 205.12L316.68 213.21"/>
<path d="M340.94 213.21L349.03 205.12"/>
<path d="M405.63 205.12L405.63 237.47"/>
<path d="M357.11 205.12L357.11 237.47"/>
<path d="M357.11 205.12L365.2 213.21"/>
<path d="M300.51 237.47L300.51 205.12"/>
<path d="M405.63 205.12L413.72 213.21"/>
<path d="M389.46 213.21L397.54 205.12"/>
<path d="M397.54 237.47L397.54 205.12"/>
<path d="M437.97 213.21L446.06 205.12"/>
<path d="M446.06 237.47L446.06 205.12"/>
<path d="M292.42 213.21L300.51 205.12"/>
<path d="M437.97 213.21L413.72 213.21"/>
<path d="M413.72 229.38L437.97 229.38"/>
<path d="M405.63 237.47L446.06 237.47"/>
<path d="M340.94 229.38L340.94 213.21"/>
<path d="M340.94 229.38L349.03 237.47"/>
<path d="M316.68 213.21L316.68 229.38"/>
<path d="M316.68 229.38L308.6 237.47"/>
<path d="M308.6 237.47L349.03 237.47"/>
<path d="M316.68 229.38L340.94 229.38"/>
<path d="M340.94 213.21L316.68 213.21"/>
<path d="M292.42 229.38L292.42 213.21"/>
<path d="M292.42 229.38L300.51 237.47"/>
<path d="M389.46 229.38L397.54 237.47"/>
<path d="M389.46 213.21L365.2 213.21"/>
<path d="M389.46 229.38L389.46 213.21"/>
<path d="M365.2 229.38L389.46 229.38"/>
<path d="M365.2 213.21L365.2 229.38"/>
<path d="M413.72 229.38L405.63 237.47"/>
<path d="M413.72 213.21L413.72 229.38"/>
<path d="M357.11 237.47L397.54 237.47"/>
<path d="M365.2 229.38L357.11 237.47"/>
<path d="M437.97 229.38L446.06 237.47"/>
<path d="M437.97 229.38L437.97 213.21"/>
<path d="M446.06 205.12L405.63 205.12"/>
<path d="M349.03 205.12L308.6 205.12"/>
<path d="M397.54 205.12L357.11 205.12"/>
<path d="M93.46 258.26L95.73 257.1M95.73 257.1L99.14 253.64M99.14 253.64L99.14 277.9M112.75 259.41L112.75 258.26M112.75 258.26L113.89 255.95M113.89 255.95L115.02 254.79M115.02 254.79L117.29 253.64M117.29 253.64L121.83 253.64M121.83 253.64L124.1 254.79M124.1 254.79L125.24 255.95M125.24 255.95L126.37 258.26M126.37 258.26L126.37 260.57M126.37 260.57L125.24 262.88M125.24 262.88L122.97 266.35M122.97 266.35L111.62 277.9M111.62 277.9L127.51 277.9"/>
<path d="M490.68 249.6L506.56 249.6M506.56 249.6L495.22 273.85"/>
<path d="M462.23 342.59L468.42 341.36M468.42 341.36L473.67 337.85M473.67 337.85L477.17 332.6M477.17 332.6L478.4 326.41"/>
<path d="M130.7 326.41L131.93 332.6M131.93 332.6L135.44 337.85M135.44 337.85L140.68 341.36M140.68 341.36L146.87 342.59"/>
<path d="M365.2 302.16L365.2 306.2"/>
<path d="M251.99 302.16L251.99 306.2"/>
<path d="M365.2 302.16L474.36 302.16"/>
<path d="M134.74 298.11L135.93 300.97M135.93 300.97L138.79 302.16"/>
<path d="M470.32 302.16L473.18 300.97M473.18 300.97L474.36 298.11"/>
<path d="M256.04 310.24L361.16 310.24"/>
<path d="M361.16 310.24L364.01 309.06M364.01 309.06L365.2 306.2"/>
<path d="M251.99 306.2L253.18 309.06M253.18 309.06L256.04 310.24"/>
<path d="M478.4 306.2L477.22 303.34M477.22 303.34L474.36 302.16"/>
<path d="M130.7 164.69L127.84 165.88M127.84 165.88L126.66 168.73"/>
<path d="M126.66 176.82L127.84 179.68M127.84 179.68L130.7 180.86"/>
<path d="M482.45 168.73L481.26 165.88M481.26 165.88L478.4 164.69"/>
<path d="M478.4 180.86L481.26 179.68M481.26 179.68L482.45 176.82"/>
<path d="M150.92 314.29L150.92 302.16"/>
<path d="M167.09 116.17L164.23 117.36M164.23 117.36L163.04 120.22"/>
<path d="M365.2 168.73L364.01 165.88M364.01 165.88L361.16 164.69"/>
<path d="M247.95 164.69L245.09 165.88M245.09 165.88L243.91 168.73"/>
<path d="M251.99 75.74L357.11 75.74"/>
</g>
</g>
</svg>
