<?xml version="1.0" standalone="no"?><svg xmlns="http://www.w3.org/2000/svg" width="600.000" height="450.000" viewBox="0.0 0.0 600.000 450.000" version="1.1">
<title>Acme Converter - Post-processed with EDS-Designer: 14.44 (info@symca.com)</title>
<desc>Acme Converter - Post-processed with EDS-Designer: 14.44 (info@symca.com)</desc>
<g id="EDS_STYLE_GROUP" fill="none" stroke="black" stroke-width="1.0">
<g id="0" display="visible">
<path d="M260.07 350.46L260.07 331.84M260.95 331.84L260.95 350.46M257.4 331.84L268.05 331.84M268.05 331.84L270.71 332.72M270.71 332.72L271.59 333.61M271.59 333.61L272.48 335.38M272.48 335.38L272.48 337.16M272.48 337.16L271.59 338.93M271.59 338.93L270.71 339.82M270.71 339.82L268.05 340.71M268.05 331.84L269.82 332.72M269.82 332.72L270.71 333.61M270.71 333.61L271.59 335.38M271.59 335.38L271.59 337.16M271.59 337.16L270.71 338.93M270.71 338.93L269.82 339.82M269.82 339.82L268.05 340.71M260.95 340.71L268.05 340.71M268.05 340.71L270.71 341.59M270.71 341.59L271.59 342.48M271.59 342.48L272.48 344.25M272.48 344.25L272.48 346.91M272.48 346.91L271.59 348.69M271.59 348.69L270.71 349.57M270.71 349.57L268.05 350.46M268.05 350.46L257.4 350.46M268.05 340.71L269.82 341.59M269.82 341.59L270.71 342.48M270.71 342.48L271.59 344.25M271.59 344.25L271.59 346.91M271.59 346.91L270.71 348.69M270.71 348.69L269.82 349.57M269.82 349.57L268.05 350.46M279.58 350.46L279.58 331.84M280.46 331.84L280.46 350.46M276.92 331.84L283.12 331.84M276.92 350.46L290.22 350.46M290.22 350.46L290.22 345.14M290.22 345.14L289.33 350.46M300.86 331.84L294.65 350.46M300.86 331.84L307.07 350.46M300.86 334.5L306.18 350.46M296.43 345.14L304.41 345.14M292.88 350.46L298.2 350.46M303.52 350.46L308.84 350.46M323.92 334.5L324.8 337.16M324.8 337.16L324.8 331.84M324.8 331.84L323.92 334.5M323.92 334.5L322.14 332.72M322.14 332.72L319.48 331.84M319.48 331.84L317.71 331.84M317.71 331.84L315.05 332.72M315.05 332.72L313.28 334.5M313.28 334.5L312.39 336.27M312.39 336.27L311.5 338.93M311.5 338.93L311.5 343.37M311.5 343.37L312.39 346.03M312.39 346.03L313.28 347.8M313.28 347.8L315.05 349.57M315.05 349.57L317.71 350.46M317.71 350.46L319.48 350.46M319.48 350.46L322.14 349.57M322.14 349.57L323.92 347.8M323.92 347.8L324.8 346.03M317.71 331.84L315.94 332.72M315.94 332.72L314.16 334.5M314.16 334.5L313.28 336.27M313.28 336.27L312.39 338.93M312.39 338.93L312.39 343.37M312.39 343.37L313.28 346.03M313.28 346.03L314.16 347.8M314.16 347.8L315.94 349.57M315.94 349.57L317.71 350.46M332.79 350.46L332.79 331.84M333.67 331.84L333.67 350.46M345.2 331.84L333.67 343.37M338.11 339.82L345.2 350.46M337.22 339.82L344.31 350.46M330.13 331.84L336.33 331.84M341.65 331.84L346.98 331.84M330.13 350.46L336.33 350.46M341.65 350.46L346.98 350.46"/>
<path d="M166.42 263.33L165.71 261.91M165.71 261.91L163.58 261.2M163.58 261.2L162.16 261.2M162.16 261.2L160.03 261.91M160.03 261.91L158.61 264.04M158.61 264.04L157.9 267.59M157.9 267.59L157.9 271.14M157.9 271.14L158.61 273.97M158.61 273.97L160.03 275.39M160.03 275.39L162.16 276.1M162.16 276.1L162.87 276.1M162.87 276.1L165 275.39M165 275.39L166.42 273.97M166.42 273.97L167.13 271.84M167.13 271.84L167.13 271.14M167.13 271.14L166.42 269.01M166.42 269.01L165 267.59M165 267.59L162.87 266.88M162.87 266.88L162.16 266.88M162.16 266.88L160.03 267.59M160.03 267.59L158.61 269.01M158.61 269.01L157.9 271.14"/>
<path d="M438.23 264.07L439.65 263.36M439.65 263.36L441.78 261.23M441.78 261.23L441.78 276.13"/>
<path d="M387.04 255.73L375.87 255.73"/>
<path d="M398.22 255.73L394.86 259.88"/>
<path d="M387.04 259.88L394.86 259.88"/>
<path d="M387.04 255.73L398.22 255.73"/>
<path d="M387.04 259.88L379.22 259.88"/>
<path d="M375.87 255.73L379.22 259.88"/>
<path d="M393.07 276.57L387.04 276.57"/>
<path d="M381.02 276.57L387.04 276.57"/>
<path d="M394.86 264.12L398.22 268.27"/>
<path d="M393.07 268.27L393.07 276.57"/>
<path d="M393.07 268.27L393.07 264.12"/>
<path d="M394.86 264.12L393.07 264.12"/>
<path d="M393.07 268.27L398.22 268.27"/>
<path d="M381.02 268.27L381.02 264.12"/>
<path d="M379.22 264.12L381.02 264.12"/>
<path d="M381.02 268.27L381.02 276.57"/>
<path d="M379.22 264.12L375.87 268.27"/>
<path d="M381.02 268.27L375.87 268.27"/>
<path d="M394.86 259.88L394.86 264.12"/>
<path d="M398.22 255.73L398.22 268.27"/>
<path d="M379.22 259.88L379.22 264.12"/>
<path d="M375.87 255.73L375.87 268.27"/>
<path d="M413.52 274.97L405.93 274.97"/>
<path d="M413.91 266.52L406.46 266.52"/>
<path d="M412.86 278.01L418.03 273.26M418.03 273.26L420.77 266.78M420.77 266.78L420.56 259.76M420.56 259.76L417.45 253.46M417.45 253.46L412.01 249.02"/>
<path d="M397.71 241.77L394.96 239.61M394.96 239.61L391.56 238.79"/>
<path d="M391.56 290.86L394.96 290.05M394.96 290.05L397.71 287.89"/>
<path d="M397.71 287.89L402.42 282.98M402.42 282.98L405.42 276.88M405.42 276.88L406.46 270.15"/>
<path d="M406.46 259.5L405.42 252.78M405.42 252.78L402.42 246.68M402.42 246.68L397.71 241.77"/>
<path d="M212.82 290.86L391.56 290.86"/>
<path d="M205.37 283.42L206.37 287.14M206.37 287.14L209.09 289.87M209.09 289.87L212.82 290.86"/>
<path d="M302.19 238.79L247.04 238.79"/>
<path d="M212.82 238.79L209.09 239.79M209.09 239.79L206.37 242.52M206.37 242.52L205.37 246.24"/>
<path d="M205.37 246.24L205.37 283.42"/>
<path d="M331.53 255.73L331.53 268.27"/>
<path d="M328.17 259.88L328.17 264.12"/>
<path d="M309.17 255.73L309.17 268.27"/>
<path d="M312.53 259.88L312.53 264.12"/>
<path d="M326.38 268.27L331.53 268.27"/>
<path d="M328.17 264.12L331.53 268.27"/>
<path d="M326.38 268.27L326.38 276.57"/>
<path d="M328.17 264.12L326.38 264.12"/>
<path d="M326.38 268.27L326.38 264.12"/>
<path d="M314.32 268.27L309.17 268.27"/>
<path d="M312.53 264.12L314.32 264.12"/>
<path d="M314.32 268.27L314.32 264.12"/>
<path d="M314.32 268.27L314.32 276.57"/>
<path d="M312.53 264.12L309.17 268.27"/>
<path d="M326.38 276.57L320.35 276.57"/>
<path d="M314.32 276.57L320.35 276.57"/>
<path d="M331.53 255.73L328.17 259.88"/>
<path d="M320.35 259.88L328.17 259.88"/>
<path d="M320.35 255.73L309.17 255.73"/>
<path d="M320.35 259.88L312.53 259.88"/>
<path d="M309.17 255.73L312.53 259.88"/>
<path d="M320.35 255.73L331.53 255.73"/>
<path d="M284.11 200.22L284.11 210.47"/>
<path d="M263.92 227.99L263.92 186.67"/>
<path d="M271.37 227.99L271.37 191.96"/>
<path d="M284.11 210.47L271.37 210.47"/>
<path d="M284.11 202.21L271.37 202.21"/>
<path d="M302.19 227.99L263.92 227.99"/>
<path d="M284.11 210.47L302.19 210.47"/>
<path d="M302.19 200.22L284.11 200.22"/>
<path d="M271.37 191.96L302.19 191.96"/>
<path d="M263.92 186.67L302.19 186.67"/>
<path d="M289.84 221.97L271.37 221.97"/>
<path d="M271.37 217.86L289.84 217.86"/>
<path d="M295.45 223.84L302.19 223.84"/>
<path d="M289.84 221.5L302.19 221.5"/>
<path d="M295.45 227.99L295.45 223.84"/>
<path d="M289.84 210.47L289.84 227.99"/>
<path d="M183.02 270.15L184.75 281.36M184.75 281.36L189.76 291.53M189.76 291.53L197.6 299.71"/>
<path d="M190.47 270.15L191.85 279.12M191.85 279.12L195.86 287.25M195.86 287.25L202.14 293.8"/>
<path d="M190.47 270.15L190.47 264.83"/>
<path d="M183.02 270.15L183.02 264.83"/>
<path d="M175.57 270.15L176.74 280.31M176.74 280.31L180.18 289.93M180.18 289.93L185.72 298.52M185.72 298.52L193.07 305.62"/>
<path d="M175.57 270.15L175.57 264.83"/>
<path d="M175.57 259.5L175.57 264.83"/>
<path d="M193.07 224.03L185.72 231.14M185.72 231.14L180.18 239.73M180.18 239.73L176.74 249.35M176.74 249.35L175.57 259.5"/>
<path d="M197.6 229.94L189.76 238.13M189.76 238.13L184.75 248.3M184.75 248.3L183.02 259.5"/>
<path d="M183.02 259.5L183.02 264.83"/>
<path d="M190.47 259.5L190.47 264.83"/>
<path d="M202.14 235.86L195.86 242.41M195.86 242.41L191.85 250.54M191.85 250.54L190.47 259.5"/>
<path d="M197.92 246.24L197.92 283.42"/>
<path d="M212.82 231.34L207.12 232.48M207.12 232.48L202.28 235.71M202.28 235.71L199.05 240.54M199.05 240.54L197.92 246.24"/>
<path d="M212.82 223.89L204.38 225.55M204.38 225.55L197.2 230.26"/>
<path d="M197.92 283.42L199.05 289.12M199.05 289.12L202.28 293.95M202.28 293.95L207.12 297.18M207.12 297.18L212.82 298.31"/>
<path d="M197.2 299.39L204.38 304.11M204.38 304.11L212.82 305.76"/>
<path d="M191.99 304.72L198.11 309.33M198.11 309.33L205.21 312.23M205.21 312.23L212.82 313.21"/>
<path d="M263.92 223.89L247.83 223.89"/>
<path d="M356.55 231.34L247.83 231.34"/>
<path d="M391.56 298.31L212.82 298.31"/>
<path d="M391.56 305.76L212.82 305.76"/>
<path d="M212.75 216.44L205.17 217.44M205.17 217.44L198.09 220.34M198.09 220.34L191.99 224.94"/>
<path d="M247.76 179.63L289.41 179.63"/>
<path d="M247.76 216.44L247.76 179.63"/>
<path d="M302.19 179.63L287.43 179.63"/>
<path d="M275.01 305.76L284.86 313.21"/>
<path d="M329.37 305.76L319.52 313.21"/>
<path d="M302.19 179.63L316.95 179.63"/>
<path d="M356.62 216.44L356.62 179.63"/>
<path d="M356.62 179.63L314.97 179.63"/>
<path d="M412.39 224.94L406.29 220.34M406.29 220.34L399.21 217.44M399.21 217.44L391.63 216.44"/>
<path d="M212.82 313.21L391.56 313.21"/>
<path d="M219.19 231.34L247.04 231.34"/>
<path d="M340.46 223.89L356.55 223.89"/>
<path d="M391.56 313.21L399.17 312.23M399.17 312.23L406.27 309.33M406.27 309.33L412.39 304.72"/>
<path d="M391.56 305.76L400 304.11M400 304.11L407.19 299.39"/>
<path d="M391.56 298.31L397.36 297.14M397.36 297.14L402.24 293.8"/>
<path d="M407.19 230.26L400 225.55M400 225.55L391.56 223.89"/>
<path d="M402.24 235.86L397.36 232.52M397.36 232.52L391.56 231.34"/>
<path d="M406.46 259.5L406.46 271.46"/>
<path d="M413.91 259.5L412.53 250.54M412.53 250.54L408.52 242.41M408.52 242.41L402.24 235.86"/>
<path d="M413.91 259.5L413.91 264.83"/>
<path d="M421.36 259.5L421.36 264.83"/>
<path d="M421.36 259.5L419.63 248.3M419.63 248.3L414.62 238.13M414.62 238.13L406.78 229.94"/>
<path d="M428.81 259.5L427.64 249.35M427.64 249.35L424.2 239.73M424.2 239.73L418.66 231.14M418.66 231.14L411.31 224.03"/>
<path d="M428.81 259.5L428.81 264.83"/>
<path d="M428.81 270.15L428.81 264.83"/>
<path d="M411.31 305.62L418.66 298.52M418.66 298.52L424.2 289.93M424.2 289.93L427.64 280.31M427.64 280.31L428.81 270.15"/>
<path d="M421.36 270.15L421.36 264.83"/>
<path d="M413.91 270.15L413.91 264.83"/>
<path d="M402.24 293.8L408.52 287.25M408.52 287.25L412.53 279.12M412.53 279.12L413.91 270.15"/>
<path d="M406.78 299.71L414.62 291.53M414.62 291.53L419.63 281.36M419.63 281.36L421.36 270.15"/>
<path d="M314.54 210.47L314.54 227.99"/>
<path d="M308.93 227.99L308.93 223.84"/>
<path d="M314.54 221.5L302.19 221.5"/>
<path d="M308.93 223.84L302.19 223.84"/>
<path d="M333.01 217.86L314.54 217.86"/>
<path d="M314.54 221.97L333.01 221.97"/>
<path d="M340.46 186.67L302.19 186.67"/>
<path d="M333.01 191.96L302.19 191.96"/>
<path d="M302.19 200.22L320.27 200.22"/>
<path d="M320.27 210.47L302.19 210.47"/>
<path d="M302.19 227.99L340.46 227.99"/>
<path d="M320.27 202.21L333.01 202.21"/>
<path d="M320.27 210.47L333.01 210.47"/>
<path d="M333.01 227.99L333.01 191.96"/>
<path d="M340.46 227.99L340.46 186.67"/>
<path d="M320.27 200.22L320.27 210.47"/>
<path d="M247.04 231.34L247.04 243"/>
<path d="M247.04 243L219.19 243"/>
<path d="M219.19 243L219.19 231.34"/>
<path d="M364.13 255.73L364.13 268.27"/>
<path d="M358.98 268.27L364.13 268.27"/>
<path d="M364.13 255.73L360.77 259.88"/>
<path d="M360.77 264.12L364.13 268.27"/>
<path d="M358.98 268.27L358.98 276.57"/>
<path d="M352.95 259.88L360.77 259.88"/>
<path d="M360.77 264.12L358.98 264.12"/>
<path d="M360.77 259.88L360.77 264.12"/>
<path d="M358.98 268.27L358.98 264.12"/>
<path d="M352.95 255.73L341.77 255.73"/>
<path d="M352.95 259.88L345.13 259.88"/>
<path d="M346.92 268.27L341.77 268.27"/>
<path d="M345.13 264.12L346.92 264.12"/>
<path d="M346.92 268.27L346.92 264.12"/>
<path d="M346.92 268.27L346.92 276.57"/>
<path d="M341.77 255.73L341.77 268.27"/>
<path d="M345.13 259.88L345.13 264.12"/>
<path d="M341.77 255.73L345.13 259.88"/>
<path d="M345.13 264.12L341.77 268.27"/>
<path d="M352.95 255.73L364.13 255.73"/>
<path d="M358.98 276.57L352.95 276.57"/>
<path d="M346.92 276.57L352.95 276.57"/>
<path d="M352.95 255.73L341.77 255.73"/>
<path d="M364.13 255.73L360.77 259.88"/>
<path d="M352.95 259.88L360.77 259.88"/>
<path d="M352.95 255.73L364.13 255.73"/>
<path d="M352.95 259.88L345.13 259.88"/>
<path d="M341.77 255.73L345.13 259.88"/>
<path d="M358.98 276.57L352.95 276.57"/>
<path d="M346.92 276.57L352.95 276.57"/>
<path d="M360.77 264.12L364.13 268.27"/>
<path d="M358.98 268.27L358.98 276.57"/>
<path d="M358.98 268.27L358.98 264.12"/>
<path d="M360.77 264.12L358.98 264.12"/>
<path d="M358.98 268.27L364.13 268.27"/>
<path d="M346.92 268.27L346.92 264.12"/>
<path d="M345.13 264.12L346.92 264.12"/>
<path d="M346.92 268.27L346.92 276.57"/>
<path d="M345.13 264.12L341.77 268.27"/>
<path d="M346.92 268.27L341.77 268.27"/>
<path d="M360.77 259.88L360.77 264.12"/>
<path d="M364.13 255.73L364.13 268.27"/>
<path d="M345.13 259.88L345.13 264.12"/>
<path d="M341.77 255.73L341.77 268.27"/>
<path d="M298.93 255.73L298.93 268.27"/>
<path d="M295.57 259.88L295.57 264.12"/>
<path d="M276.57 255.73L276.57 268.27"/>
<path d="M279.93 259.88L279.93 264.12"/>
<path d="M293.78 268.27L298.93 268.27"/>
<path d="M295.57 264.12L298.93 268.27"/>
<path d="M293.78 268.27L293.78 276.57"/>
<path d="M295.57 264.12L293.78 264.12"/>
<path d="M293.78 268.27L293.78 264.12"/>
<path d="M281.72 268.27L276.57 268.27"/>
<path d="M279.93 264.12L281.72 264.12"/>
<path d="M281.72 268.27L281.72 264.12"/>
<path d="M281.72 268.27L281.72 276.57"/>
<path d="M279.93 264.12L276.57 268.27"/>
<path d="M293.78 276.57L287.75 276.57"/>
<path d="M281.72 276.57L287.75 276.57"/>
<path d="M298.93 255.73L295.57 259.88"/>
<path d="M287.75 259.88L295.57 259.88"/>
<path d="M287.75 255.73L276.57 255.73"/>
<path d="M287.75 259.88L279.93 259.88"/>
<path d="M276.57 255.73L279.93 259.88"/>
<path d="M287.75 255.73L298.93 255.73"/>
<path d="M331.53 255.73L331.53 268.27"/>
<path d="M326.38 268.27L331.53 268.27"/>
<path d="M331.53 255.73L328.17 259.88"/>
<path d="M328.17 264.12L331.53 268.27"/>
<path d="M326.38 268.27L326.38 276.57"/>
<path d="M320.35 259.88L328.17 259.88"/>
<path d="M328.17 264.12L326.38 264.12"/>
<path d="M328.17 259.88L328.17 264.12"/>
<path d="M326.38 268.27L326.38 264.12"/>
<path d="M320.35 255.73L309.17 255.73"/>
<path d="M320.35 259.88L312.53 259.88"/>
<path d="M314.32 268.27L309.17 268.27"/>
<path d="M312.53 264.12L314.32 264.12"/>
<path d="M314.32 268.27L314.32 264.12"/>
<path d="M314.32 268.27L314.32 276.57"/>
<path d="M309.17 255.73L309.17 268.27"/>
<path d="M312.53 259.88L312.53 264.12"/>
<path d="M309.17 255.73L312.53 259.88"/>
<path d="M312.53 264.12L309.17 268.27"/>
<path d="M320.35 255.73L331.53 255.73"/>
<path d="M326.38 276.57L320.35 276.57"/>
<path d="M314.32 276.57L320.35 276.57"/>
<path d="M320.35 255.73L309.17 255.73"/>
<path d="M331.53 255.73L328.17 259.88"/>
<path d="M320.35 259.88L328.17 259.88"/>
<path d="M320.35 255.73L331.53 255.73"/>
<path d="M320.35 259.88L312.53 259.88"/>
<path d="M309.17 255.73L312.53 259.88"/>
<path d="M326.38 276.57L320.35 276.57"/>
<path d="M314.32 276.57L320.35 276.57"/>
<path d="M328.17 264.12L331.53 268.27"/>
<path d="M326.38 268.27L326.38 276.57"/>
<path d="M326.38 268.27L326.38 264.12"/>
<path d="M328.17 264.12L326.38 264.12"/>
<path d="M326.38 268.27L331.53 268.27"/>
<path d="M314.32 268.27L314.32 264.12"/>
<path d="M312.53 264.12L314.32 264.12"/>
<path d="M314.32 268.27L314.32 276.57"/>
<path d="M312.53 264.12L309.17 268.27"/>
<path d="M314.32 268.27L309.17 268.27"/>
<path d="M328.17 259.88L328.17 264.12"/>
<path d="M331.53 255.73L331.53 268.27"/>
<path d="M312.53 259.88L312.53 264.12"/>
<path d="M309.17 255.73L309.17 268.27"/>
<path d="M266.32 255.73L266.32 268.27"/>
<path d="M262.97 259.88L262.97 264.12"/>
<path d="M243.97 255.73L243.97 268.27"/>
<path d="M247.33 259.88L247.33 264.12"/>
<path d="M261.18 268.27L266.32 268.27"/>
<path d="M262.97 264.12L266.32 268.27"/>
<path d="M261.18 268.27L261.18 276.57"/>
<path d="M262.97 264.12L261.18 264.12"/>
<path d="M261.18 268.27L261.18 264.12"/>
<path d="M249.12 268.27L243.97 268.27"/>
<path d="M247.33 264.12L249.12 264.12"/>
<path d="M249.12 268.27L249.12 264.12"/>
<path d="M249.12 268.27L249.12 276.57"/>
<path d="M247.33 264.12L243.97 268.27"/>
<path d="M261.18 276.57L255.15 276.57"/>
<path d="M249.12 276.57L255.15 276.57"/>
<path d="M266.32 255.73L262.97 259.88"/>
<path d="M255.15 259.88L262.97 259.88"/>
<path d="M255.15 255.73L243.97 255.73"/>
<path d="M255.15 259.88L247.33 259.88"/>
<path d="M243.97 255.73L247.33 259.88"/>
<path d="M255.15 255.73L266.32 255.73"/>
<path d="M298.93 255.73L298.93 268.27"/>
<path d="M293.78 268.27L298.93 268.27"/>
<path d="M298.93 255.73L295.57 259.88"/>
<path d="M295.57 264.12L298.93 268.27"/>
<path d="M293.78 268.27L293.78 276.57"/>
<path d="M287.75 259.88L295.57 259.88"/>
<path d="M295.57 264.12L293.78 264.12"/>
<path d="M295.57 259.88L295.57 264.12"/>
<path d="M293.78 268.27L293.78 264.12"/>
<path d="M287.75 255.73L276.57 255.73"/>
<path d="M287.75 259.88L279.93 259.88"/>
<path d="M281.72 268.27L276.57 268.27"/>
<path d="M279.93 264.12L281.72 264.12"/>
<path d="M281.72 268.27L281.72 264.12"/>
<path d="M281.72 268.27L281.72 276.57"/>
<path d="M276.57 255.73L276.57 268.27"/>
<path d="M279.93 259.88L279.93 264.12"/>
<path d="M276.57 255.73L279.93 259.88"/>
<path d="M279.93 264.12L276.57 268.27"/>
<path d="M287.75 255.73L298.93 255.73"/>
<path d="M293.78 276.57L287.75 276.57"/>
<path d="M281.72 276.57L287.75 276.57"/>
<path d="M287.75 255.73L276.57 255.73"/>
<path d="M298.93 255.73L295.57 259.88"/>
<path d="M287.75 259.88L295.57 259.88"/>
<path d="M287.75 255.73L298.93 255.73"/>
<path d="M287.75 259.88L279.93 259.88"/>
<path d="M276.57 255.73L279.93 259.88"/>
<path d="M293.78 276.57L287.75 276.57"/>
<path d="M281.72 276.57L287.75 276.57"/>
<path d="M295.57 264.12L298.93 268.27"/>
<path d="M293.78 268.27L293.78 276.57"/>
<path d="M293.78 268.27L293.78 264.12"/>
<path d="M295.57 264.12L293.78 264.12"/>
<path d="M293.78 268.27L298.93 268.27"/>
<path d="M281.72 268.27L281.72 264.12"/>
<path d="M279.93 264.12L281.72 264.12"/>
<path d="M281.72 268.27L281.72 276.57"/>
<path d="M279.93 264.12L276.57 268.27"/>
<path d="M281.72 268.27L276.57 268.27"/>
<path d="M295.57 259.88L295.57 264.12"/>
<path d="M298.93 255.73L298.93 268.27"/>
<path d="M279.93 259.88L279.93 264.12"/>
<path d="M276.57 255.73L276.57 268.27"/>
<path d="M232.23 255.73L232.23 268.27"/>
<path d="M228.88 259.88L228.88 264.12"/>
<path d="M209.88 255.73L209.88 268.27"/>
<path d="M213.23 259.88L213.23 264.12"/>
<path d="M227.08 268.27L232.23 268.27"/>
<path d="M228.88 264.12L232.23 268.27"/>
<path d="M227.08 268.27L227.08 276.57"/>
<path d="M228.88 264.12L227.08 264.12"/>
<path d="M227.08 268.27L227.08 264.12"/>
<path d="M215.03 268.27L209.88 268.27"/>
<path d="M213.23 264.12L215.03 264.12"/>
<path d="M215.03 268.27L215.03 264.12"/>
<path d="M215.03 268.27L215.03 276.57"/>
<path d="M213.23 264.12L209.88 268.27"/>
<path d="M227.08 276.57L221.05 276.57"/>
<path d="M215.03 276.57L221.05 276.57"/>
<path d="M232.23 255.73L228.88 259.88"/>
<path d="M221.05 259.88L228.88 259.88"/>
<path d="M221.05 255.73L209.88 255.73"/>
<path d="M221.05 259.88L213.23 259.88"/>
<path d="M209.88 255.73L213.23 259.88"/>
<path d="M221.05 255.73L232.23 255.73"/>
<path d="M266.32 255.73L266.32 268.27"/>
<path d="M261.18 268.27L266.32 268.27"/>
<path d="M266.32 255.73L262.97 259.88"/>
<path d="M262.97 264.12L266.32 268.27"/>
<path d="M261.18 268.27L261.18 276.57"/>
<path d="M255.15 259.88L262.97 259.88"/>
<path d="M262.97 264.12L261.18 264.12"/>
<path d="M262.97 259.88L262.97 264.12"/>
<path d="M261.18 268.27L261.18 264.12"/>
<path d="M255.15 255.73L243.97 255.73"/>
<path d="M255.15 259.88L247.33 259.88"/>
<path d="M249.12 268.27L243.97 268.27"/>
<path d="M247.33 264.12L249.12 264.12"/>
<path d="M249.12 268.27L249.12 264.12"/>
<path d="M249.12 268.27L249.12 276.57"/>
<path d="M243.97 255.73L243.97 268.27"/>
<path d="M247.33 259.88L247.33 264.12"/>
<path d="M243.97 255.73L247.33 259.88"/>
<path d="M247.33 264.12L243.97 268.27"/>
<path d="M255.15 255.73L266.32 255.73"/>
<path d="M261.18 276.57L255.15 276.57"/>
<path d="M249.12 276.57L255.15 276.57"/>
<path d="M212.89 216.44L247.76 216.44"/>
<path d="M212.82 223.89L247.83 223.89"/>
<path d="M250.07 231.34L227.72 231.34"/>
<path d="M219.19 238.79L212.82 238.79"/>
<path d="M391.63 216.44L356.62 216.44"/>
<path d="M391.56 223.89L356.55 223.89"/>
<path d="M391.56 231.34L356.55 231.34"/>
<path d="M391.56 238.79L302.19 238.79"/>
<path d="M228.07 231.27L228.07 243"/>
<path d="M239.24 231.27L239.24 243"/>
<path d="M212.82 231.34L219.19 231.34"/>
</g>
</g>
</svg>
