<?xml version="1.0" standalone="no"?><svg xmlns="http://www.w3.org/2000/svg" width="600.000" height="450.000" viewBox="0.0 0.0 600.000 450.000" version="1.1">
<title>Acme Converter - Post-processed with EDS-Designer: 14.44 (info@symca.com)</title>
<desc>Acme Converter - Post-processed with EDS-Designer: 14.44 (info@symca.com)</desc>
<g id="EDS_STYLE_GROUP" fill="none" stroke="black" stroke-width="1.0">
<g id="0" display="visible">
<path d="M164.7 405.25L164.7 375.05M166.14 375.05L166.14 405.25M160.38 375.05L170.45 375.05M160.38 405.25L181.95 405.25M181.95 405.25L181.95 396.62M181.95 396.62L180.51 405.25M190.58 405.25L190.58 375.05M192.02 375.05L192.02 405.25M186.26 375.05L196.33 375.05M186.26 405.25L196.33 405.25M222.21 379.37L223.65 383.68M223.65 383.68L223.65 375.05M223.65 375.05L222.21 379.37M222.21 379.37L219.33 376.49M219.33 376.49L215.02 375.05M215.02 375.05L212.15 375.05M212.15 375.05L207.83 376.49M207.83 376.49L204.96 379.37M204.96 379.37L203.52 382.24M203.52 382.24L202.08 386.56M202.08 386.56L202.08 393.75M202.08 393.75L203.52 398.06M203.52 398.06L204.96 400.94M204.96 400.94L207.83 403.81M207.83 403.81L212.15 405.25M212.15 405.25L215.02 405.25M215.02 405.25L219.33 403.81M219.33 403.81L222.21 400.94M212.15 375.05L209.27 376.49M209.27 376.49L206.39 379.37M206.39 379.37L204.96 382.24M204.96 382.24L203.52 386.56M203.52 386.56L203.52 393.75M203.52 393.75L204.96 398.06M204.96 398.06L206.39 400.94M206.39 400.94L209.27 403.81M209.27 403.81L212.15 405.25M222.21 393.75L222.21 405.25M223.65 393.75L223.65 405.25M217.9 393.75L227.96 393.75M239.46 405.25L239.46 375.05M240.9 375.05L240.9 405.25M258.15 405.25L258.15 375.05M259.59 375.05L259.59 405.25M235.15 375.05L245.21 375.05M253.84 375.05L263.91 375.05M240.9 389.43L258.15 389.43M235.15 405.25L245.21 405.25M253.84 405.25L263.91 405.25M279.72 405.25L279.72 375.05M281.16 375.05L281.16 405.25M271.1 375.05L269.66 383.68M269.66 383.68L269.66 375.05M269.66 375.05L291.22 375.05M291.22 375.05L291.22 383.68M291.22 383.68L289.79 375.05M275.41 405.25L285.47 405.25M347.3 379.37L348.74 383.68M348.74 383.68L348.74 375.05M348.74 375.05L347.3 379.37M347.3 379.37L344.42 376.49M344.42 376.49L340.11 375.05M340.11 375.05L337.23 375.05M337.23 375.05L332.92 376.49M332.92 376.49L330.05 379.37M330.05 379.37L328.61 382.24M328.61 382.24L327.17 386.56M327.17 386.56L327.17 393.75M327.17 393.75L328.61 398.06M328.61 398.06L330.05 400.94M330.05 400.94L332.92 403.81M332.92 403.81L337.23 405.25M337.23 405.25L340.11 405.25M340.11 405.25L344.42 403.81M344.42 403.81L347.3 400.94M337.23 375.05L334.36 376.49M334.36 376.49L331.48 379.37M331.48 379.37L330.05 382.24M330.05 382.24L328.61 386.56M328.61 386.56L328.61 393.75M328.61 393.75L330.05 398.06M330.05 398.06L331.48 400.94M331.48 400.94L334.36 403.81M334.36 403.81L337.23 405.25M347.3 393.75L347.3 405.25M348.74 393.75L348.74 405.25M342.99 393.75L353.05 393.75M364.55 405.25L364.55 375.05M365.99 375.05L365.99 405.25M360.24 375.05L377.49 375.05M377.49 375.05L381.81 376.49M381.81 376.49L383.24 377.93M383.24 377.93L384.68 380.81M384.68 380.81L384.68 383.68M384.68 383.68L383.24 386.56M383.24 386.56L381.81 387.99M381.81 387.99L377.49 389.43M377.49 389.43L365.99 389.43M377.49 375.05L380.37 376.49M380.37 376.49L381.81 377.93M381.81 377.93L383.24 380.81M383.24 380.81L383.24 383.68M383.24 383.68L381.81 386.56M381.81 386.56L380.37 387.99M380.37 387.99L377.49 389.43M360.24 405.25L370.3 405.25M373.18 389.43L376.06 390.87M376.06 390.87L377.49 392.31M377.49 392.31L381.81 402.37M381.81 402.37L383.24 403.81M383.24 403.81L384.68 403.81M384.68 403.81L386.12 402.37M376.06 390.87L377.49 393.75M377.49 393.75L380.37 403.81M380.37 403.81L381.81 405.25M381.81 405.25L384.68 405.25M384.68 405.25L386.12 402.37M386.12 402.37L386.12 400.94M396.18 405.25L396.18 375.05M397.62 375.05L397.62 405.25M406.25 383.68L406.25 395.18M391.87 375.05L414.88 375.05M414.88 375.05L414.88 383.68M414.88 383.68L413.44 375.05M397.62 389.43L406.25 389.43M391.87 405.25L414.88 405.25M414.88 405.25L414.88 396.62M414.88 396.62L413.44 405.25M424.94 375.05L435.01 390.87M435.01 390.87L435.01 405.25M426.38 375.05L436.44 390.87M436.44 390.87L436.44 405.25M446.51 375.05L436.44 390.87M422.07 375.05L430.69 375.05M440.76 375.05L449.38 375.05M430.69 405.25L440.76 405.25"/>
<path d="M43.2 181.81L59.31 181.81M59.31 181.81L47.8 205.97"/>
<path d="M555.64 186.41L557.94 185.26M557.94 185.26L561.39 181.81M561.39 181.81L561.39 205.97"/>
<path d="M33.43 264.92L35.73 263.77M35.73 263.77L39.18 260.32M39.18 260.32L39.18 284.47M63.33 260.32L51.83 276.42M51.83 276.42L69.08 276.42M63.33 260.32L63.33 284.47"/>
<path d="M556.21 260.32L552.76 261.47M552.76 261.47L551.61 263.77M551.61 263.77L551.61 266.07M551.61 266.07L552.76 268.37M552.76 268.37L555.06 269.52M555.06 269.52L559.66 270.67M559.66 270.67L563.11 271.82M563.11 271.82L565.41 274.12M565.41 274.12L566.56 276.42M566.56 276.42L566.56 279.87M566.56 279.87L565.41 282.17M565.41 282.17L564.26 283.32M564.26 283.32L560.81 284.47M560.81 284.47L556.21 284.47M556.21 284.47L552.76 283.32M552.76 283.32L551.61 282.17M551.61 282.17L550.46 279.87M550.46 279.87L550.46 276.42M550.46 276.42L551.61 274.12M551.61 274.12L553.91 271.82M553.91 271.82L557.36 270.67M557.36 270.67L561.96 269.52M561.96 269.52L564.26 268.37M564.26 268.37L565.41 266.07M565.41 266.07L565.41 263.77M565.41 263.77L564.26 261.47M564.26 261.47L560.81 260.32M560.81 260.32L556.21 260.32"/>
<path d="M304.88 52.58L351.06 52.58"/>
<path d="M398.64 93.14L393.99 80.63M393.99 80.63L386.33 69.69M386.33 69.69L376.17 61.02M376.17 61.02L364.16 55.19M364.16 55.19L351.06 52.58"/>
<path d="M398.64 93.14L398.64 134.41"/>
<path d="M398.64 134.41L398.82 140.29M398.82 140.29L402.08 145.18M402.08 145.18L407.44 147.6"/>
<path d="M380.37 147.6L485.23 147.6"/>
<path d="M485.23 147.6L485.23 105.96"/>
<path d="M485.23 105.96L515.52 105.96"/>
<path d="M515.52 105.96L515.52 317.9"/>
<path d="M498.11 333.58L504.62 332.88M504.62 332.88L510.29 329.6M510.29 329.6L514.14 324.3M514.14 324.3L515.52 317.9"/>
<path d="M498.11 333.58L111.66 333.58"/>
<path d="M375.57 344.86L384.85 340.58M384.85 340.58L392.32 333.58"/>
<path d="M375.57 344.86L304.88 344.86"/>
<path d="M515.52 170.02L527.48 170.02"/>
<path d="M527.48 170.02L527.48 311.26"/>
<path d="M527.48 311.26L515.52 311.26"/>
<path d="M304.88 61.3L321.92 61.3"/>
<path d="M406.41 175.87L369.69 175.87M369.69 175.87L369.69 202.98M369.69 202.98L406.41 202.98M406.41 202.98L406.41 175.87"/>
<path d="M364.27 176.29L326.72 176.29M326.72 176.29L326.72 202.98M326.72 202.98L364.27 202.98M364.27 202.98L364.27 176.29"/>
<path d="M364.27 258.03L326.72 258.03M326.72 258.03L326.72 284.71M326.72 284.71L364.27 284.71M364.27 284.71L364.27 258.03"/>
<path d="M406.41 257.61L369.69 257.61M369.69 257.61L369.69 284.71M369.69 284.71L406.41 284.71M406.41 284.71L406.41 257.61"/>
<path d="M481.5 175.04L425.6 175.04M425.6 175.04L425.6 206.73M425.6 206.73L481.5 206.73M481.5 206.73L481.5 175.04"/>
<path d="M480.25 256.77L426.01 256.77M426.01 256.77L426.01 287.63M426.01 287.63L480.25 287.63M480.25 287.63L480.25 256.77"/>
<path d="M304.88 202.98L321.72 202.98M321.72 202.98L321.72 176.29M321.72 176.29L304.88 176.29"/>
<path d="M304.88 284.71L321.72 284.71M321.72 284.71L321.72 258.03M321.72 258.03L304.88 258.03"/>
<path d="M304.88 284.71L288.05 284.71M288.05 284.71L288.05 258.03M288.05 258.03L304.88 258.03"/>
<path d="M304.88 202.98L288.05 202.98M288.05 202.98L288.05 176.29M288.05 176.29L304.88 176.29"/>
<path d="M129.52 256.77L183.75 256.77M183.75 256.77L183.75 287.63M183.75 287.63L129.52 287.63M129.52 287.63L129.52 256.77"/>
<path d="M128.27 175.04L184.17 175.04M184.17 175.04L184.17 206.73M184.17 206.73L128.27 206.73M128.27 206.73L128.27 175.04"/>
<path d="M203.36 257.61L240.07 257.61M240.07 257.61L240.07 284.71M240.07 284.71L203.36 284.71M203.36 284.71L203.36 257.61"/>
<path d="M245.5 258.03L283.04 258.03M283.04 258.03L283.04 284.71M283.04 284.71L245.5 284.71M245.5 284.71L245.5 258.03"/>
<path d="M245.5 176.29L283.04 176.29M283.04 176.29L283.04 202.98M283.04 202.98L245.5 202.98M245.5 202.98L245.5 176.29"/>
<path d="M203.36 175.87L240.07 175.87M240.07 175.87L240.07 202.98M240.07 202.98L203.36 202.98M203.36 202.98L203.36 175.87"/>
<path d="M244.24 104.9L244.24 133.11"/>
<path d="M304.88 61.3L287.84 61.3"/>
<path d="M82.29 311.26L94.24 311.26"/>
<path d="M82.29 170.02L82.29 311.26"/>
<path d="M94.24 170.02L82.29 170.02"/>
<path d="M234.2 344.86L304.88 344.86"/>
<path d="M217.45 333.58L224.91 340.58M224.91 340.58L234.2 344.86"/>
<path d="M94.24 317.9L95.63 324.3M95.63 324.3L99.48 329.6M99.48 329.6L105.15 332.88M105.15 332.88L111.66 333.58"/>
<path d="M94.24 105.96L94.24 317.9"/>
<path d="M124.54 105.96L94.24 105.96"/>
<path d="M124.54 147.6L124.54 105.96"/>
<path d="M229.75 147.6L124.54 147.6"/>
<path d="M202.33 147.6L207.68 145.18M207.68 145.18L210.95 140.29M210.95 140.29L211.13 134.41"/>
<path d="M211.13 93.14L211.13 134.41"/>
<path d="M258.7 52.58L245.61 55.19M245.61 55.19L233.6 61.02M233.6 61.02L223.44 69.69M223.44 69.69L215.78 80.63M215.78 80.63L211.13 93.14"/>
<path d="M304.88 52.58L258.7 52.58"/>
<path d="M229.75 147.6L237 145.66M237 145.66L242.3 140.36M242.3 140.36L244.24 133.11"/>
<path d="M287.84 61.3L276.56 62.78M276.56 62.78L266.04 67.14M266.04 67.14L257.01 74.07M257.01 74.07L250.08 83.1M250.08 83.1L245.73 93.61M245.73 93.61L244.24 104.9"/>
<path d="M365.52 104.9L365.52 133.11"/>
<path d="M365.52 133.11L367.47 140.36M367.47 140.36L372.77 145.66M372.77 145.66L380.02 147.6"/>
<path d="M365.52 104.9L364.04 93.61M364.04 93.61L359.68 83.1M359.68 83.1L352.75 74.07M352.75 74.07L343.72 67.14M343.72 67.14L333.21 62.78M333.21 62.78L321.92 61.3"/>
</g>
</g>
</svg>
