<?xml version="1.0" standalone="no"?><svg xmlns="http://www.w3.org/2000/svg" width="600.000" height="450.000" viewBox="0.0 0.0 600.000 450.000" version="1.1">
<title>Acme Converter - Post-processed with EDS-Designer: 14.44 (info@symca.com)</title>
<desc>Acme Converter - Post-processed with EDS-Designer: 14.44 (info@symca.com)</desc>
<g id="EDS_STYLE_GROUP" fill="none" stroke="black" stroke-width="1.0">
<g id="0" display="visible">
<path d="M308.83 133.46L308.83 115.78"/>
<path d="M344.2 115.78L344.2 133.46"/>
<path d="M348.62 113.57L348.62 146.72"/>
<path d="M251.35 113.57L251.35 146.72"/>
<path d="M255.77 115.78L255.77 133.46"/>
<path d="M291.14 133.46L291.14 115.78"/>
<path d="M277.99 339.05L277.99 325.78M278.5 325.78L278.5 339.05M276.47 325.78L282.58 325.78M282.58 325.78L284.11 326.41M284.11 326.41L284.62 327.05M284.62 327.05L285.13 328.31M285.13 328.31L285.13 329.57M285.13 329.57L284.62 330.84M284.62 330.84L284.11 331.47M284.11 331.47L282.58 332.1M282.58 325.78L283.6 326.41M283.6 326.41L284.11 327.05M284.11 327.05L284.62 328.31M284.62 328.31L284.62 329.57M284.62 329.57L284.11 330.84M284.11 330.84L283.6 331.47M283.6 331.47L282.58 332.1M278.5 332.1L282.58 332.1M282.58 332.1L284.11 332.73M284.11 332.73L284.62 333.36M284.62 333.36L285.13 334.63M285.13 334.63L285.13 336.52M285.13 336.52L284.62 337.78M284.62 337.78L284.11 338.42M284.11 338.42L282.58 339.05M282.58 339.05L276.47 339.05M282.58 332.1L283.6 332.73M283.6 332.73L284.11 333.36M284.11 333.36L284.62 334.63M284.62 334.63L284.62 336.52M284.62 336.52L284.11 337.78M284.11 337.78L283.6 338.42M283.6 338.42L282.58 339.05M289.2 339.05L289.2 325.78M289.71 325.78L289.71 339.05M287.67 325.78L291.24 325.78M287.67 339.05L295.32 339.05M295.32 339.05L295.32 335.26M295.32 335.26L294.81 339.05M301.43 325.78L297.87 339.05M301.43 325.78L305 339.05M301.43 327.68L304.49 339.05M298.88 335.26L303.47 335.26M296.85 339.05L299.9 339.05M302.96 339.05L306.02 339.05M314.68 327.68L315.19 329.57M315.19 329.57L315.19 325.78M315.19 325.78L314.68 327.68M314.68 327.68L313.66 326.41M313.66 326.41L312.13 325.78M312.13 325.78L311.11 325.78M311.11 325.78L309.58 326.41M309.58 326.41L308.57 327.68M308.57 327.68L308.06 328.94M308.06 328.94L307.55 330.84M307.55 330.84L307.55 333.99M307.55 333.99L308.06 335.89M308.06 335.89L308.57 337.15M308.57 337.15L309.58 338.42M309.58 338.42L311.11 339.05M311.11 339.05L312.13 339.05M312.13 339.05L313.66 338.42M313.66 338.42L314.68 337.15M314.68 337.15L315.19 335.89M311.11 325.78L310.09 326.41M310.09 326.41L309.08 327.68M309.08 327.68L308.57 328.94M308.57 328.94L308.06 330.84M308.06 330.84L308.06 333.99M308.06 333.99L308.57 335.89M308.57 335.89L309.08 337.15M309.08 337.15L310.09 338.42M310.09 338.42L311.11 339.05M319.78 339.05L319.78 325.78M320.28 325.78L320.28 339.05M326.91 325.78L320.28 333.99M322.83 331.47L326.91 339.05M322.32 331.47L326.4 339.05M318.25 325.78L321.81 325.78M324.87 325.78L327.93 325.78M318.25 339.05L321.81 339.05M324.87 339.05L327.93 339.05"/>
<path d="M330.93 221.88L330.93 204.2"/>
<path d="M339.78 204.2L339.78 221.88"/>
<path d="M317.67 208.62L317.67 235.15"/>
<path d="M282.3 208.62L282.3 235.15"/>
<path d="M260.2 204.2L260.2 221.88"/>
<path d="M269.04 221.88L269.04 204.2"/>
<path d="M273.46 288.2L278.85 270.52M278.85 270.52L284.24 288.2M275.48 282.31L282.22 282.31M288.28 288.2L288.28 270.52M288.28 270.52L293.67 288.2M293.67 288.2L299.06 270.52M299.06 270.52L299.06 288.2M304.45 288.2L304.45 270.52M304.45 270.52L310.51 270.52M310.51 270.52L312.53 271.36M312.53 271.36L313.21 272.2M313.21 272.2L313.88 273.89M313.88 273.89L313.88 276.41M313.88 276.41L313.21 278.1M313.21 278.1L312.53 278.94M312.53 278.94L310.51 279.78M310.51 279.78L304.45 279.78"/>
<path d="M246.93 314.73L299.99 314.73"/>
<path d="M242.51 305.89L299.99 305.89"/>
<path d="M242.51 243.99L299.99 243.99"/>
<path d="M299.99 247.37L294.17 249.26M294.17 249.26L290.58 254.2M290.58 254.2L290.58 260.31M290.58 260.31L294.17 265.25M294.17 265.25L299.99 267.14"/>
<path d="M242.51 292.62L299.99 292.62"/>
<path d="M251.35 257.25L251.35 279.36"/>
<path d="M242.51 243.99L242.51 292.62"/>
<path d="M238.09 297.05L238.09 301.47"/>
<path d="M238.09 301.47L239.38 304.59M239.38 304.59L242.51 305.89"/>
<path d="M242.51 305.89L242.51 310.31"/>
<path d="M242.51 310.31L243.81 313.44M243.81 313.44L246.93 314.73"/>
<path d="M242.51 292.62L239.38 293.92M239.38 293.92L238.09 297.05"/>
<path d="M242.51 292.62L242.51 292.62"/>
<path d="M251.35 279.36L242.51 279.36"/>
<path d="M242.51 230.73L282.3 230.73"/>
<path d="M260.2 221.88L242.51 221.88"/>
<path d="M242.51 257.25L251.35 257.25"/>
<path d="M238.09 239.57L239.38 242.7M239.38 242.7L242.51 243.99"/>
<path d="M242.51 230.73L239.38 232.02M239.38 232.02L238.09 235.15"/>
<path d="M238.09 235.15L238.09 239.57"/>
<path d="M242.51 230.73L242.51 230.73"/>
<path d="M242.51 221.88L242.51 230.73"/>
<path d="M282.3 221.88L260.2 221.88"/>
<path d="M357.46 243.99L357.46 292.62"/>
<path d="M348.62 257.25L348.62 279.36"/>
<path d="M357.46 292.62L299.99 292.62"/>
<path d="M357.46 305.89L299.99 305.89"/>
<path d="M353.04 314.73L299.99 314.73"/>
<path d="M361.88 297.05L361.88 301.47"/>
<path d="M353.04 314.73L356.17 313.44M356.17 313.44L357.46 310.31"/>
<path d="M357.46 305.89L357.46 310.31"/>
<path d="M357.46 305.89L360.59 304.59M360.59 304.59L361.88 301.47"/>
<path d="M348.62 279.36L357.46 279.36"/>
<path d="M357.46 292.62L357.46 292.62"/>
<path d="M361.88 297.05L360.59 293.92M360.59 293.92L357.46 292.62"/>
<path d="M317.67 221.88L339.78 221.88"/>
<path d="M357.46 230.73L317.67 230.73"/>
<path d="M357.46 243.99L299.99 243.99"/>
<path d="M299.99 267.14L305.8 265.25M305.8 265.25L309.39 260.31M309.39 260.31L309.39 254.2M309.39 254.2L305.8 249.26M305.8 249.26L299.99 247.37"/>
<path d="M357.46 257.25L348.62 257.25"/>
<path d="M339.78 221.88L357.46 221.88"/>
<path d="M357.46 221.88L357.46 230.73"/>
<path d="M357.46 230.73L357.46 230.73"/>
<path d="M361.88 235.15L361.88 239.57"/>
<path d="M361.88 235.15L360.59 232.02M360.59 232.02L357.46 230.73"/>
<path d="M357.46 243.99L360.59 242.7M360.59 242.7L361.88 239.57"/>
<path d="M282.3 190.94L299.99 190.94"/>
<path d="M299.99 195.36L255.77 195.36"/>
<path d="M255.77 142.3L299.99 142.3"/>
<path d="M282.3 208.62L299.99 208.62"/>
<path d="M255.77 133.46L299.99 133.46"/>
<path d="M295.56 146.72L255.77 146.72"/>
<path d="M255.77 159.99L255.77 173.25"/>
<path d="M246.93 159.99L251.35 177.67"/>
<path d="M242.51 159.99L251.35 177.67"/>
<path d="M251.35 190.94L251.35 146.72"/>
<path d="M255.77 146.72L255.77 173.25"/>
<path d="M282.3 182.09L255.77 182.09"/>
<path d="M255.77 173.25L282.3 173.25"/>
<path d="M251.35 190.94L252.65 194.06M252.65 194.06L255.77 195.36"/>
<path d="M255.77 173.25L251.35 173.25"/>
<path d="M255.77 182.09L255.77 173.25"/>
<path d="M269.04 204.2L260.2 204.2"/>
<path d="M282.3 195.36L282.3 208.62"/>
<path d="M282.3 182.09L282.3 190.94"/>
<path d="M282.3 173.25L282.3 182.09"/>
<path d="M291.14 124.62L255.77 124.62"/>
<path d="M255.77 142.3L252.65 143.6M252.65 143.6L251.35 146.72"/>
<path d="M251.35 159.99L255.77 159.99"/>
<path d="M246.93 159.99L246.93 153.36"/>
<path d="M242.51 159.99L246.93 159.99"/>
<path d="M242.51 153.36L242.51 159.99"/>
<path d="M251.35 153.36L242.51 153.36"/>
<path d="M255.77 124.62L255.13 123.06M255.13 123.06L253.56 122.41M253.56 122.41L252 123.06M252 123.06L251.35 124.62"/>
<path d="M273.46 124.62L273.46 133.46"/>
<path d="M299.99 168.83L303.11 167.54M303.11 167.54L304.41 164.41"/>
<path d="M344.2 146.72L344.2 173.25"/>
<path d="M348.62 190.94L348.62 146.72"/>
<path d="M357.46 159.99L348.62 177.67"/>
<path d="M353.04 159.99L348.62 177.67"/>
<path d="M344.2 159.99L344.2 173.25"/>
<path d="M295.56 164.41L296.86 167.54M296.86 167.54L299.99 168.83"/>
<path d="M344.2 173.25L317.67 173.25"/>
<path d="M317.67 182.09L344.2 182.09"/>
<path d="M299.99 195.36L344.2 195.36"/>
<path d="M317.67 208.62L299.99 208.62"/>
<path d="M317.67 195.36L317.67 208.62"/>
<path d="M317.67 190.94L299.99 190.94"/>
<path d="M304.41 190.94L304.41 186.52"/>
<path d="M304.41 186.52L299.99 186.52"/>
<path d="M295.56 186.52L299.99 186.52"/>
<path d="M295.56 190.94L295.56 186.52"/>
<path d="M317.67 173.25L317.67 182.09"/>
<path d="M317.67 182.09L317.67 190.94"/>
<path d="M344.2 195.36L347.32 194.06M347.32 194.06L348.62 190.94"/>
<path d="M330.93 204.2L339.78 204.2"/>
<path d="M344.2 182.09L344.2 173.25"/>
<path d="M344.2 173.25L348.62 173.25"/>
<path d="M308.83 124.62L344.2 124.62"/>
<path d="M304.41 146.72L344.2 146.72"/>
<path d="M344.2 133.46L299.99 133.46"/>
<path d="M344.2 142.3L299.99 142.3"/>
<path d="M304.41 164.41L304.41 146.72"/>
<path d="M295.56 164.41L295.56 146.72"/>
<path d="M326.51 124.62L326.51 133.46"/>
<path d="M348.62 146.72L347.32 143.6M347.32 143.6L344.2 142.3"/>
<path d="M348.62 153.36L357.46 153.36"/>
<path d="M348.62 159.99L344.2 159.99"/>
<path d="M357.46 153.36L357.46 159.99"/>
<path d="M357.46 159.99L353.04 159.99"/>
<path d="M353.04 159.99L353.04 153.36"/>
<path d="M348.62 124.62L347.97 123.06M347.97 123.06L346.41 122.41M346.41 122.41L344.85 123.06M344.85 123.06L344.2 124.62"/>
<path d="M253.56 111.35L299.99 111.35"/>
<path d="M291.14 115.78L255.77 115.78"/>
<path d="M255.77 115.78L255.77 113.57"/>
<path d="M253.56 111.35L253.56 111.35"/>
<path d="M255.77 113.57L255.13 112M255.13 112L253.56 111.35"/>
<path d="M253.56 111.35L252 112M252 112L251.35 113.57"/>
<path d="M273.46 113.57L275.67 111.35"/>
<path d="M273.46 115.78L273.46 113.57"/>
<path d="M308.83 115.78L344.2 115.78"/>
<path d="M346.41 111.35L299.99 111.35"/>
<path d="M326.51 115.78L326.51 113.57"/>
<path d="M326.51 113.57L324.3 111.35"/>
<path d="M348.62 113.57L347.97 112M347.97 112L346.41 111.35"/>
<path d="M346.41 111.35L344.85 112M344.85 112L344.2 113.57"/>
<path d="M346.41 111.35L346.41 111.35"/>
<path d="M344.2 115.78L344.2 113.57"/>
</g>
</g>
</svg>
