<?xml version="1.0" standalone="no"?><svg xmlns="http://www.w3.org/2000/svg" width="600.000" height="450.000" viewBox="0.0 0.0 600.000 450.000" version="1.1">
<title>Acme Converter - Post-processed with EDS-Designer: 14.44 (info@symca.com)</title>
<desc>Acme Converter - Post-processed with EDS-Designer: 14.44 (info@symca.com)</desc>
<g id="EDS_STYLE_GROUP" fill="none" stroke="black" stroke-width="1.0">
<g id="0" display="visible">
<path d="M315.92 209.43L379.15 209.43"/>
<path d="M379.15 209.43L379.15 183.08"/>
<path d="M379.15 183.08L315.92 183.08"/>
<path d="M315.92 183.08L315.92 209.43"/>
<path d="M210.53 209.43L279.03 209.43"/>
<path d="M279.03 209.43L279.03 183.08"/>
<path d="M279.03 183.08L210.53 183.08"/>
<path d="M210.53 183.08L210.53 209.43"/>
<path d="M168.38 204.16L161 204.16"/>
<path d="M157.84 207.32L157.84 243.15"/>
<path d="M161 246.31L168.38 246.31"/>
<path d="M168.38 246.31L168.38 262.12"/>
<path d="M168.38 262.12L153.1 262.12"/>
<path d="M149.94 265.28L149.94 295.84"/>
<path d="M153.1 299L168.38 299"/>
<path d="M423.93 204.16L431.31 204.16"/>
<path d="M434.47 207.32L434.47 243.15"/>
<path d="M431.31 246.31L423.93 246.31"/>
<path d="M423.93 246.31L423.93 283.19"/>
<path d="M242.15 320.08L387.05 320.08"/>
<path d="M168.38 299L184.97 309.49M184.97 309.49L203.23 316.64M203.23 316.64L222.53 320.22M222.53 320.22L242.15 320.08"/>
<path d="M387.05 320.08L398.45 318.27M398.45 318.27L408.73 313.03M408.73 313.03L416.89 304.87M416.89 304.87L422.13 294.59M422.13 294.59L423.93 283.19"/>
<path d="M168.38 204.16L168.38 172.54"/>
<path d="M423.93 204.16L423.93 172.54"/>
<path d="M384.42 119.85L384.42 61.89"/>
<path d="M207.9 119.85L207.9 61.89"/>
<path d="M379.15 56.62L213.17 56.62"/>
<path d="M221.07 119.85L208.74 119.67M208.74 119.67L196.8 122.74M196.8 122.74L186.1 128.85M186.1 128.85L177.38 137.57M177.38 137.57L171.27 148.28M171.27 148.28L168.2 160.22M168.2 160.22L168.38 172.54"/>
<path d="M423.93 172.54L424.4 160.11M424.4 160.11L421.48 148.03M421.48 148.03L415.4 137.18M415.4 137.18L406.61 128.38M406.61 128.38L395.76 122.3M395.76 122.3L383.67 119.38M383.67 119.38L371.24 119.85"/>
<path d="M384.42 77.7L373.88 77.7"/>
<path d="M373.88 77.7L373.88 93.51"/>
<path d="M373.88 93.51L358.07 93.51"/>
<path d="M358.07 93.51L358.07 104.04"/>
<path d="M358.07 104.04L384.42 104.04"/>
<path d="M207.9 77.7L218.44 77.7"/>
<path d="M218.44 77.7L218.44 93.51"/>
<path d="M218.44 93.51L234.24 93.51"/>
<path d="M234.24 93.51L234.24 104.04"/>
<path d="M234.24 104.04L207.9 104.04"/>
<path d="M371.24 119.85L221.07 119.85"/>
<path d="M363.34 77.7L228.98 77.7"/>
<path d="M228.98 77.7L228.98 72.43"/>
<path d="M234.24 67.16L358.07 67.16"/>
<path d="M363.34 72.43L363.34 77.7"/>
<path d="M339.63 77.7L339.63 82.97"/>
<path d="M339.63 82.97L255.32 82.97"/>
<path d="M255.32 82.97L255.32 77.7"/>
<path d="M344.9 82.97L250.05 82.97"/>
<path d="M244.78 88.24L244.78 93.51"/>
<path d="M244.78 93.51L350.17 93.51"/>
<path d="M350.17 93.51L350.17 88.24"/>
<path d="M350.17 93.51L350.17 119.85"/>
<path d="M329.09 93.51L329.09 119.85"/>
<path d="M244.78 93.51L244.78 119.85"/>
<path d="M265.86 93.51L265.86 119.85"/>
<path d="M384.42 61.89L383.71 59.26M383.71 59.26L381.78 57.33M381.78 57.33L379.15 56.62"/>
<path d="M213.17 56.62L210.53 57.33M210.53 57.33L208.6 59.26M208.6 59.26L207.9 61.89"/>
<path d="M234.24 67.16L230.52 68.7M230.52 68.7L228.98 72.43"/>
<path d="M363.34 72.43L361.8 68.7M361.8 68.7L358.07 67.16"/>
<path d="M350.17 88.24L348.62 84.51M348.62 84.51L344.9 82.97"/>
<path d="M250.05 82.97L246.33 84.51M246.33 84.51L244.78 88.24"/>
<path d="M300.11 119.85L300.11 109.31"/>
<path d="M300.11 109.31L289.57 109.31"/>
<path d="M289.57 109.31L289.57 119.85"/>
<path d="M383.35 47.87L447.64 120.72"/>
<path d="M460.82 155.58L460.82 267.39"/>
<path d="M460.82 267.39L387.05 351.69"/>
<path d="M387.05 351.69L236.88 351.69"/>
<path d="M236.88 351.69L168.4 327.52"/>
<path d="M147.3 297.71L147.3 143.6"/>
<path d="M158.85 110.69L208.95 48.06"/>
<path d="M213.07 46.08L379.4 46.08"/>
<path d="M147.3 297.71L148.79 307.29M148.79 307.29L153.11 315.97M153.11 315.97L159.86 322.93M159.86 322.93L168.4 327.52"/>
<path d="M460.82 155.58L459.3 143.01M459.3 143.01L454.81 131.16M454.81 131.16L447.64 120.72"/>
<path d="M158.85 110.69L152.55 120.69M152.55 120.69L148.63 131.85M148.63 131.85L147.3 143.6"/>
<path d="M383.35 47.87L381.57 46.55M381.57 46.55L379.4 46.08"/>
<path d="M213.07 46.08L210.78 46.6M210.78 46.6L208.95 48.06"/>
<path d="M308.01 330.62L308.01 346.42"/>
<path d="M308.01 346.42L286.94 346.42"/>
<path d="M286.94 346.42L286.94 330.62"/>
<path d="M308.01 330.62L286.94 330.62"/>
<path d="M271.13 335.89L271.13 341.15"/>
<path d="M271.13 341.15L244.78 341.15"/>
<path d="M244.78 341.15L244.78 335.89"/>
<path d="M244.78 335.89L271.13 335.89"/>
<path d="M326.45 335.89L326.45 341.15"/>
<path d="M326.45 341.15L350.17 341.15"/>
<path d="M350.17 341.15L350.17 335.89"/>
<path d="M350.17 335.89L326.45 335.89"/>
<path d="M484.03 188.1L486.54 186.84M486.54 186.84L490.3 183.08M490.3 183.08L490.3 209.43"/>
<path d="M110.8 189.35L110.8 188.1M110.8 188.1L112.05 185.59M112.05 185.59L113.31 184.34M113.31 184.34L115.81 183.08M115.81 183.08L120.83 183.08M120.83 183.08L123.34 184.34M123.34 184.34L124.6 185.59M124.6 185.59L125.85 188.1M125.85 188.1L125.85 190.61M125.85 190.61L124.6 193.12M124.6 193.12L122.09 196.88M122.09 196.88L109.54 209.43M109.54 209.43L127.11 209.43"/>
<path d="M161.98 404.38L161.98 372.77M163.49 372.77L163.49 404.38M157.47 372.77L172.52 372.77M172.52 372.77L177.04 374.28M177.04 374.28L180.05 377.29M180.05 377.29L181.55 380.3M181.55 380.3L183.06 384.81M183.06 384.81L183.06 392.34M183.06 392.34L181.55 396.86M181.55 396.86L180.05 399.87M180.05 399.87L177.04 402.88M177.04 402.88L172.52 404.38M172.52 404.38L157.47 404.38M172.52 372.77L175.53 374.28M175.53 374.28L178.54 377.29M178.54 377.29L180.05 380.3M180.05 380.3L181.55 384.81M181.55 384.81L181.55 392.34M181.55 392.34L180.05 396.86M180.05 396.86L178.54 399.87M178.54 399.87L175.53 402.88M175.53 402.88L172.52 404.38M204.14 372.77L193.6 404.38M204.14 372.77L214.67 404.38M204.14 377.29L213.17 404.38M196.61 395.35L210.16 395.35M190.59 404.38L199.62 404.38M208.65 404.38L217.68 404.38M226.72 404.38L226.72 372.77M228.22 372.77L228.22 404.38M222.2 372.77L240.27 372.77M240.27 372.77L244.78 374.28M244.78 374.28L246.29 375.78M246.29 375.78L247.79 378.79M247.79 378.79L247.79 381.8M247.79 381.8L246.29 384.81M246.29 384.81L244.78 386.32M244.78 386.32L240.27 387.82M240.27 387.82L228.22 387.82M240.27 372.77L243.28 374.28M243.28 374.28L244.78 375.78M244.78 375.78L246.29 378.79M246.29 378.79L246.29 381.8M246.29 381.8L244.78 384.81M244.78 384.81L243.28 386.32M243.28 386.32L240.27 387.82M222.2 404.38L232.74 404.38M235.75 387.82L238.76 389.33M238.76 389.33L240.27 390.84M240.27 390.84L244.78 401.37M244.78 401.37L246.29 402.88M246.29 402.88L247.79 402.88M247.79 402.88L249.3 401.37M238.76 389.33L240.27 392.34M240.27 392.34L243.28 402.88M243.28 402.88L244.78 404.38M244.78 404.38L247.79 404.38M247.79 404.38L249.3 401.37M249.3 401.37L249.3 399.87M259.84 404.38L259.84 372.77M261.34 372.77L261.34 404.38M280.91 372.77L261.34 392.34M268.87 386.32L280.91 404.38M267.36 386.32L279.41 404.38M255.32 372.77L265.86 372.77M274.89 372.77L283.93 372.77M255.32 404.38L265.86 404.38M274.89 404.38L283.93 404.38M341.13 377.29L342.64 381.8M342.64 381.8L342.64 372.77M342.64 372.77L341.13 377.29M341.13 377.29L338.12 374.28M338.12 374.28L333.61 372.77M333.61 372.77L330.59 372.77M330.59 372.77L326.08 374.28M326.08 374.28L323.07 377.29M323.07 377.29L321.56 380.3M321.56 380.3L320.06 384.81M320.06 384.81L320.06 392.34M320.06 392.34L321.56 396.86M321.56 396.86L323.07 399.87M323.07 399.87L326.08 402.88M326.08 402.88L330.59 404.38M330.59 404.38L333.61 404.38M333.61 404.38L338.12 402.88M338.12 402.88L341.13 399.87M330.59 372.77L327.58 374.28M327.58 374.28L324.57 377.29M324.57 377.29L323.07 380.3M323.07 380.3L321.56 384.81M321.56 384.81L321.56 392.34M321.56 392.34L323.07 396.86M323.07 396.86L324.57 399.87M324.57 399.87L327.58 402.88M327.58 402.88L330.59 404.38M341.13 392.34L341.13 404.38M342.64 392.34L342.64 404.38M336.62 392.34L347.15 392.34M359.2 404.38L359.2 372.77M360.7 372.77L360.7 404.38M354.68 372.77L372.75 372.77M372.75 372.77L377.26 374.28M377.26 374.28L378.77 375.78M378.77 375.78L380.28 378.79M380.28 378.79L380.28 381.8M380.28 381.8L378.77 384.81M378.77 384.81L377.26 386.32M377.26 386.32L372.75 387.82M372.75 387.82L360.7 387.82M372.75 372.77L375.76 374.28M375.76 374.28L377.26 375.78M377.26 375.78L378.77 378.79M378.77 378.79L378.77 381.8M378.77 381.8L377.26 384.81M377.26 384.81L375.76 386.32M375.76 386.32L372.75 387.82M354.68 404.38L365.22 404.38M368.23 387.82L371.24 389.33M371.24 389.33L372.75 390.84M372.75 390.84L377.26 401.37M377.26 401.37L378.77 402.88M378.77 402.88L380.28 402.88M380.28 402.88L381.78 401.37M371.24 389.33L372.75 392.34M372.75 392.34L375.76 402.88M375.76 402.88L377.26 404.38M377.26 404.38L380.28 404.38M380.28 404.38L381.78 401.37M381.78 401.37L381.78 399.87M392.32 404.38L392.32 372.77M393.82 372.77L393.82 404.38M402.86 381.8L402.86 393.85M387.8 372.77L411.89 372.77M411.89 372.77L411.89 381.8M411.89 381.8L410.38 372.77M393.82 387.82L402.86 387.82M387.8 404.38L411.89 404.38M411.89 404.38L411.89 395.35M411.89 395.35L410.38 404.38M422.43 372.77L432.97 389.33M432.97 389.33L432.97 404.38M423.93 372.77L434.47 389.33M434.47 389.33L434.47 404.38M445.01 372.77L434.47 389.33M419.42 372.77L428.45 372.77M438.99 372.77L448.02 372.77M428.45 404.38L438.99 404.38"/>
<path d="M434.47 207.32L433.55 205.08M433.55 205.08L431.31 204.16"/>
<path d="M431.31 246.31L433.55 245.38M433.55 245.38L434.47 243.15"/>
<path d="M161 204.16L158.77 205.08M158.77 205.08L157.84 207.32"/>
<path d="M157.84 243.15L158.77 245.38M158.77 245.38L161 246.31"/>
<path d="M153.1 262.12L150.86 263.04M150.86 263.04L149.94 265.28"/>
<path d="M149.94 295.84L150.86 298.08M150.86 298.08L153.1 299"/>
<path d="M397.59 177.81L397.59 262.12"/>
<path d="M397.59 177.81L396.3 169.67M396.3 169.67L392.56 162.33M392.56 162.33L386.73 156.5M386.73 156.5L379.38 152.76M379.38 152.76L371.24 151.47"/>
<path d="M221.07 151.47L371.24 151.47"/>
<path d="M221.07 151.47L212.93 152.76M212.93 152.76L205.59 156.5M205.59 156.5L199.76 162.33M199.76 162.33L196.02 169.67M196.02 169.67L194.73 177.81"/>
<path d="M194.73 262.12L194.73 177.81"/>
<path d="M194.73 262.12L196.02 270.26M196.02 270.26L199.76 277.6M199.76 277.6L205.59 283.43M205.59 283.43L212.93 287.17M212.93 287.17L221.07 288.46"/>
<path d="M371.24 288.46L221.07 288.46"/>
<path d="M371.24 288.46L379.38 287.17M379.38 287.17L386.73 283.43M386.73 283.43L392.56 277.6M392.56 277.6L396.3 270.26M396.3 270.26L397.59 262.12"/>
</g>
</g>
</svg>
