<?xml version="1.0" standalone="no"?><svg xmlns="http://www.w3.org/2000/svg" width="600.000" height="450.000" viewBox="0.0 0.0 600.000 450.000" version="1.1">
<title>Acme Converter - Post-processed with EDS-Designer: 14.44 (info@symca.com)</title>
<desc>Acme Converter - Post-processed with EDS-Designer: 14.44 (info@symca.com)</desc>
<g id="EDS_STYLE_GROUP" fill="none" stroke="black" stroke-width="1.0">
<g id="0" display="visible">
<path d="M206.8 320.59L205.86 318.31M205.86 318.31L203.57 317.36"/>
<path d="M252.02 128.43L200.34 128.43"/>
<path d="M148.67 339.97L445.8 339.97"/>
<path d="M248.79 136.5L174.5 136.5"/>
<path d="M271.4 155.88L197.11 155.88"/>
<path d="M185.99 60.6L408.48 60.6"/>
<path d="M166.43 47.69L431.26 47.69"/>
<path d="M142.21 189.79L142.21 60.6"/>
<path d="M200.34 128.43L185.99 63.83"/>
<path d="M161.59 302.66L164.48 301M164.48 301L167.18 299.01M167.18 299.01L169.69 296.74M169.69 296.74L172 294.23M172 294.23L174.12 291.52M174.12 291.52L176.04 288.67M176.04 288.67L177.75 285.72M177.75 285.72L179.25 282.71M179.25 282.71L181.13 278.18M181.13 278.18L182.69 273.53M182.69 273.53L183.98 268.79M183.98 268.79L185.06 263.97M185.06 263.97L186 259.11M186 259.11L186.85 254.23M186.85 254.23L188.52 244.49M188.52 244.49L188.89 241.91M188.89 241.91L189.01 239.28M189.01 239.28L188.79 236.69M188.79 236.69L188.17 234.18M188.17 234.18L186.41 229.54M186.41 229.54L184.32 225.01M184.32 225.01L181.82 220.72M181.82 220.72L180.39 218.71M180.39 218.71L178.82 216.81M178.82 216.81L177.3 215.23M177.3 215.23L175.67 213.74M175.67 213.74L173.94 212.35M173.94 212.35L172.12 211.08M172.12 211.08L170.22 209.92M170.22 209.92L168.25 208.9M168.25 208.9L166.24 208M166.24 208L164.17 207.25"/>
<path d="M142.21 191.41L142.21 333.51"/>
<path d="M190.65 317.36L190.65 278.61"/>
<path d="M161.59 212.4L161.59 309.29"/>
<path d="M189.04 278.61L164.82 309.29"/>
<path d="M142.21 333.51L143.07 336.74M143.07 336.74L145.44 339.11M145.44 339.11L148.67 339.97"/>
<path d="M164.82 309.29L161.59 309.29"/>
<path d="M190.65 317.36L203.57 317.36"/>
<path d="M148.67 184.95L168.05 184.95"/>
<path d="M148.67 184.95L145.44 185.81M145.44 185.81L143.07 188.18M143.07 188.18L142.21 191.41"/>
<path d="M168.05 205.94L163.48 207.83M163.48 207.83L161.59 212.4"/>
<path d="M161.59 293.19L168.46 286.02M168.46 286.02L171.37 283.12M171.37 283.12L173.55 279.79M173.55 279.79L176.32 270.2M176.32 270.2L178.67 260.49M178.67 260.49L182.87 240.94M182.87 240.94L182.85 239.8M182.85 239.8L182.51 238.68M182.51 238.68L179.59 231.06M179.59 231.06L176.12 223.7M176.12 223.7L174.12 221.65M174.12 221.65L171.66 220.02M171.66 220.02L161.59 213.59"/>
<path d="M190.65 278.61L189.04 278.61"/>
<path d="M168.05 205.94L184.19 205.94"/>
<path d="M168.05 184.95L168.05 142.96"/>
<path d="M174.5 136.5L169.94 138.39M169.94 138.39L168.05 142.96"/>
<path d="M190.65 199.48L190.65 162.34"/>
<path d="M184.19 205.94L188.76 204.05M188.76 204.05L190.65 199.48"/>
<path d="M197.11 155.88L192.55 157.77M192.55 157.77L190.65 162.34"/>
<path d="M200.34 128.43L193.88 136.5"/>
<path d="M184.19 55.76L176.28 50.15M176.28 50.15L166.88 47.75M166.88 47.75L157.24 48.86M157.24 48.86L148.64 53.34M148.64 53.34L142.21 60.6"/>
<path d="M185.99 63.83L184.19 55.76"/>
<path d="M431.45 208.34L430.41 208.47M430.41 208.47L429.39 208.68M429.39 208.68L428.38 208.95M428.38 208.95L427.39 209.3M427.39 209.3L426.4 209.7M426.4 209.7L425.44 210.16M425.44 210.16L424.5 210.67M424.5 210.67L423.58 211.23M423.58 211.23L421.8 212.48M421.8 212.48L420.14 213.87M420.14 213.87L418.6 215.38M418.6 215.38L417.21 216.96M417.21 216.96L416.21 218.23M416.21 218.23L415.27 219.53M415.27 219.53L413.53 222.25M413.53 222.25L411.96 225.08M411.96 225.08L410.52 228M410.52 228L409.19 230.98M409.19 230.98L407.92 233.99M407.92 233.99L405.43 240.01M405.43 240.01L405.3 240.43M405.3 240.43L405.27 240.87M405.27 240.87L405.31 241.32M405.31 241.32L405.4 241.78M405.4 241.78L405.67 242.7M405.67 242.7L405.92 243.61M405.92 243.61L408.06 253.35M408.06 253.35L410.2 263.1M410.2 263.1L412.44 272.81M412.44 272.81L414.89 282.48M414.89 282.48L415.06 282.99M415.06 282.99L415.3 283.46M415.3 283.46L415.9 284.36M415.9 284.36L416.6 285.21M416.6 285.21L417.31 286.04M417.31 286.04L421.15 290.67M421.15 290.67L425.04 295.26M425.04 295.26L432.88 304.4"/>
<path d="M410.27 55.76L418.19 50.15M418.19 50.15L427.59 47.75M427.59 47.75L437.22 48.86M437.22 48.86L445.83 53.34M445.83 53.34L452.26 60.61"/>
<path d="M419.96 136.5L345.68 136.5"/>
<path d="M426.42 205.94L410.27 205.94"/>
<path d="M405.43 278.61L429.65 309.29"/>
<path d="M394.12 128.43L408.48 63.83"/>
<path d="M224.18 404.56L224.18 372.27M225.72 372.27L225.72 404.56M219.57 372.27L238.02 372.27M238.02 372.27L242.64 373.81M242.64 373.81L244.17 375.34M244.17 375.34L245.71 378.42M245.71 378.42L245.71 381.5M245.71 381.5L244.17 384.57M244.17 384.57L242.64 386.11M242.64 386.11L238.02 387.65M238.02 372.27L241.1 373.81M241.1 373.81L242.64 375.34M242.64 375.34L244.17 378.42M244.17 378.42L244.17 381.5M244.17 381.5L242.64 384.57M242.64 384.57L241.1 386.11M241.1 386.11L238.02 387.65M225.72 387.65L238.02 387.65M238.02 387.65L242.64 389.19M242.64 389.19L244.17 390.72M244.17 390.72L245.71 393.8M245.71 393.8L245.71 398.41M245.71 398.41L244.17 401.49M244.17 401.49L242.64 403.03M242.64 403.03L238.02 404.56M238.02 404.56L219.57 404.56M238.02 387.65L241.1 389.19M241.1 389.19L242.64 390.72M242.64 390.72L244.17 393.8M244.17 393.8L244.17 398.41M244.17 398.41L242.64 401.49M242.64 401.49L241.1 403.03M241.1 403.03L238.02 404.56M258.01 404.56L258.01 372.27M259.55 372.27L259.55 404.56M253.4 372.27L264.17 372.27M253.4 404.56L276.47 404.56M276.47 404.56L276.47 395.34M276.47 395.34L274.93 404.56M294.93 372.27L284.16 404.56M294.93 372.27L305.69 404.56M294.93 376.88L304.15 404.56M287.24 395.34L301.08 395.34M281.08 404.56L290.31 404.56M299.54 404.56L308.77 404.56M334.91 376.88L336.45 381.5M336.45 381.5L336.45 372.27M336.45 372.27L334.91 376.88M334.91 376.88L331.84 373.81M331.84 373.81L327.22 372.27M327.22 372.27L324.15 372.27M324.15 372.27L319.53 373.81M319.53 373.81L316.46 376.88M316.46 376.88L314.92 379.96M314.92 379.96L313.38 384.57M313.38 384.57L313.38 392.26M313.38 392.26L314.92 396.87M314.92 396.87L316.46 399.95M316.46 399.95L319.53 403.03M319.53 403.03L324.15 404.56M324.15 404.56L327.22 404.56M327.22 404.56L331.84 403.03M331.84 403.03L334.91 399.95M334.91 399.95L336.45 396.87M324.15 372.27L321.07 373.81M321.07 373.81L317.99 376.88M317.99 376.88L316.46 379.96M316.46 379.96L314.92 384.57M314.92 384.57L314.92 392.26M314.92 392.26L316.46 396.87M316.46 396.87L317.99 399.95M317.99 399.95L321.07 403.03M321.07 403.03L324.15 404.56M350.29 404.56L350.29 372.27M351.83 372.27L351.83 404.56M371.82 372.27L351.83 392.26M359.52 386.11L371.82 404.56M357.98 386.11L370.28 404.56M345.68 372.27L356.44 372.27M365.67 372.27L374.9 372.27M345.68 404.56L356.44 404.56M365.67 404.56L374.9 404.56"/>
<path d="M339.22 126.81L255.25 126.81"/>
<path d="M242.33 317.36L352.14 317.36"/>
<path d="M352.14 317.36L242.33 317.36"/>
<path d="M239.1 339.97L355.37 339.97"/>
<path d="M355.37 199.48L239.1 199.48"/>
<path d="M239.1 276.99L355.37 276.99"/>
<path d="M277.85 133.27L316.61 133.27"/>
<path d="M239.1 333.51L206.8 333.51"/>
<path d="M206.8 339.97L239.1 339.97"/>
<path d="M206.8 333.51L206.8 320.59"/>
<path d="M242.33 317.36L240.04 318.31M240.04 318.31L239.1 320.59"/>
<path d="M239.1 320.59L239.1 333.51"/>
<path d="M232.64 205.94L232.64 270.53"/>
<path d="M232.64 270.53L234.53 275.1M234.53 275.1L239.1 276.99"/>
<path d="M261.71 247.93L242.33 247.93"/>
<path d="M242.33 231.78L261.71 231.78"/>
<path d="M245.56 244.7L242.33 247.93"/>
<path d="M245.56 235.01L242.33 231.78"/>
<path d="M242.33 247.93L242.33 231.78"/>
<path d="M242.33 231.78L242.33 247.93"/>
<path d="M245.56 244.7L264.94 244.7"/>
<path d="M245.56 235.01L264.94 235.01"/>
<path d="M245.56 244.7L245.56 235.01"/>
<path d="M239.1 199.48L234.53 201.37M234.53 201.37L232.64 205.94"/>
<path d="M255.25 126.81L252.96 127.76M252.96 127.76L252.02 130.04"/>
<path d="M248.79 136.5L251.07 135.56M251.07 135.56L252.02 133.27"/>
<path d="M252.02 130.04L252.02 133.27"/>
<path d="M277.85 231.78L297.23 231.78"/>
<path d="M297.23 247.93L277.85 247.93"/>
<path d="M294 235.01L274.62 235.01"/>
<path d="M274.62 244.7L294 244.7"/>
<path d="M297.23 231.78L297.23 247.93"/>
<path d="M297.23 247.93L297.23 231.78"/>
<path d="M294 244.7L297.23 247.93"/>
<path d="M294 235.01L297.23 231.78"/>
<path d="M294 244.7L294 235.01"/>
<path d="M271.4 155.88L273.01 155.45M273.01 155.45L274.19 154.26M274.19 154.26L274.62 152.65"/>
<path d="M277.85 133.27L275.57 134.22M275.57 134.22L274.62 136.5"/>
<path d="M274.62 152.65L274.62 136.5"/>
<path d="M403.81 317.36L403.81 278.61"/>
<path d="M387.66 333.51L355.37 333.51"/>
<path d="M355.37 339.97L387.66 339.97"/>
<path d="M355.37 320.59L354.42 318.31M354.42 318.31L352.14 317.36"/>
<path d="M355.37 333.51L355.37 320.59"/>
<path d="M403.81 317.36L390.89 317.36"/>
<path d="M390.89 317.36L388.61 318.31M388.61 318.31L387.66 320.59"/>
<path d="M387.66 320.59L387.66 333.51"/>
<path d="M397.35 155.88L323.07 155.88"/>
<path d="M394.12 128.43L342.45 128.43"/>
<path d="M319.84 152.65L320.27 154.26M320.27 154.26L321.45 155.45M321.45 155.45L323.07 155.88"/>
<path d="M319.84 136.5L319.84 152.65"/>
<path d="M319.84 136.5L318.89 134.22M318.89 134.22L316.61 133.27"/>
<path d="M342.45 130.04L341.5 127.76M341.5 127.76L339.22 126.81"/>
<path d="M342.45 133.27L343.39 135.56M343.39 135.56L345.68 136.5"/>
<path d="M342.45 133.27L342.45 130.04"/>
<path d="M361.83 270.53L361.83 205.94"/>
<path d="M355.37 276.99L359.93 275.1M359.93 275.1L361.83 270.53"/>
<path d="M403.81 278.61L405.43 278.61"/>
<path d="M361.83 205.94L359.93 201.37M359.93 201.37L355.37 199.48"/>
<path d="M403.81 199.48L403.81 162.34"/>
<path d="M403.81 199.48L405.7 204.05M405.7 204.05L410.27 205.94"/>
<path d="M403.81 162.34L401.92 157.77M401.92 157.77L397.35 155.88"/>
<path d="M394.12 128.43L400.58 136.5"/>
<path d="M408.48 63.83L410.27 55.76"/>
<path d="M452.26 191.41L452.26 60.6"/>
<path d="M452.26 333.51L452.26 191.41"/>
<path d="M432.88 309.29L432.88 212.4"/>
<path d="M429.65 309.29L432.88 309.29"/>
<path d="M445.8 339.97L450.36 338.08M450.36 338.08L452.26 333.51"/>
<path d="M432.88 212.4L430.99 207.83M430.99 207.83L426.42 205.94"/>
<path d="M432.88 215.21L427.41 218.47M427.41 218.47L424.78 220.25M424.78 220.25L422.26 222.19M422.26 222.19L421.09 223.32M421.09 223.32L420.05 224.58M420.05 224.58L418.3 227.36M418.3 227.36L415.47 232.92M415.47 232.92L413.15 238.69M413.15 238.69L412.5 241.46M412.5 241.46L412.42 242.87M412.42 242.87L412.56 244.27M412.56 244.27L414.35 252.9M414.35 252.9L416.37 261.47M416.37 261.47L418.54 270.02M418.54 270.02L420.78 278.54M420.78 278.54L421.01 279.31M421.01 279.31L421.34 280.27M421.34 280.27L421.71 281.3M421.71 281.3L422.1 282.28M422.1 282.28L422.45 283.1M422.45 283.1L422.74 283.64M422.74 283.64L422.85 283.77M422.85 283.77L422.92 283.78M422.92 283.78L422.96 283.67M422.96 283.67L422.95 283.41"/>
<path d="M422.95 283.41L432.88 296.37"/>
<path d="M445.8 184.95L432.88 184.95"/>
<path d="M426.42 178.49L426.42 142.96"/>
<path d="M426.42 178.49L427.28 181.72M427.28 181.72L429.65 184.08M429.65 184.08L432.88 184.95"/>
<path d="M426.42 142.96L424.53 138.39M424.53 138.39L419.96 136.5"/>
<path d="M452.26 191.41L450.36 186.84M450.36 186.84L445.8 184.95"/>
<path d="M274.62 264.07L264.94 264.07"/>
<path d="M261.71 267.3L277.85 267.3"/>
<path d="M277.85 267.3L261.71 267.3"/>
<path d="M264.94 264.07L264.94 244.7"/>
<path d="M261.71 267.3L261.71 247.93"/>
<path d="M264.94 264.07L261.71 267.3"/>
<path d="M274.62 264.07L274.62 244.7"/>
<path d="M277.85 247.93L277.85 267.3"/>
<path d="M274.62 264.07L277.85 267.3"/>
<path d="M274.62 215.63L264.94 215.63"/>
<path d="M277.85 212.4L261.71 212.4"/>
<path d="M261.71 212.4L277.85 212.4"/>
<path d="M264.94 215.63L261.71 212.4"/>
<path d="M261.71 231.78L261.71 212.4"/>
<path d="M264.94 215.63L264.94 235.01"/>
<path d="M274.62 215.63L277.85 212.4"/>
<path d="M277.85 212.4L277.85 231.78"/>
<path d="M274.62 235.01L274.62 215.63"/>
<path d="M329.53 244.7L348.91 244.7"/>
<path d="M348.91 235.01L329.53 235.01"/>
<path d="M352.14 247.93L332.76 247.93"/>
<path d="M332.76 231.78L352.14 231.78"/>
<path d="M297.23 231.78L297.23 247.93"/>
<path d="M297.23 247.93L297.23 231.78"/>
<path d="M300.46 235.01L297.23 231.78"/>
<path d="M329.53 235.01L329.53 215.63"/>
<path d="M319.84 215.63L319.84 235.01"/>
<path d="M316.61 247.93L297.23 247.93"/>
<path d="M300.46 244.7L319.84 244.7"/>
<path d="M300.46 235.01L319.84 235.01"/>
<path d="M300.46 244.7L297.23 247.93"/>
<path d="M300.46 244.7L300.46 235.01"/>
<path d="M329.53 264.07L319.84 264.07"/>
<path d="M316.61 267.3L332.76 267.3"/>
<path d="M332.76 267.3L316.61 267.3"/>
<path d="M316.61 267.3L316.61 247.93"/>
<path d="M319.84 264.07L319.84 244.7"/>
<path d="M319.84 264.07L316.61 267.3"/>
<path d="M332.76 247.93L332.76 267.3"/>
<path d="M329.53 264.07L329.53 244.7"/>
<path d="M329.53 264.07L332.76 267.3"/>
<path d="M297.23 231.78L316.61 231.78"/>
<path d="M329.53 215.63L319.84 215.63"/>
<path d="M316.61 212.4L332.76 212.4"/>
<path d="M332.76 212.4L316.61 212.4"/>
<path d="M316.61 231.78L316.61 212.4"/>
<path d="M319.84 215.63L316.61 212.4"/>
<path d="M329.53 215.63L332.76 212.4"/>
<path d="M332.76 212.4L332.76 231.78"/>
<path d="M352.14 231.78L352.14 247.93"/>
<path d="M352.14 247.93L352.14 231.78"/>
<path d="M348.91 235.01L352.14 231.78"/>
<path d="M348.91 244.7L348.91 235.01"/>
<path d="M348.91 244.7L352.14 247.93"/>
<path d="M210.03 162.34L384.43 162.34"/>
<path d="M397.35 175.26L397.35 297.99"/>
<path d="M197.11 175.26L197.11 297.99"/>
<path d="M210.03 162.34L203.57 164.07M203.57 164.07L198.84 168.8M198.84 168.8L197.11 175.26"/>
<path d="M397.35 175.26L395.62 168.8M395.62 168.8L390.89 164.07M390.89 164.07L384.43 162.34"/>
<path d="M384.43 310.9L210.03 310.9"/>
<path d="M384.43 310.9L390.89 309.17M390.89 309.17L395.62 304.44M395.62 304.44L397.35 297.99"/>
<path d="M197.11 297.99L198.84 304.44M198.84 304.44L203.57 309.17M203.57 309.17L210.03 310.9"/>
<path d="M483.63 236.31L483.63 235.08M483.63 235.08L484.86 232.62M484.86 232.62L486.09 231.39M486.09 231.39L488.55 230.16M488.55 230.16L493.47 230.16M493.47 230.16L495.93 231.39M495.93 231.39L497.16 232.62M497.16 232.62L498.39 235.08M498.39 235.08L498.39 237.54M498.39 237.54L497.16 240.01M497.16 240.01L494.7 243.7M494.7 243.7L482.4 256M482.4 256L499.63 256"/>
<path d="M100.38 235.08L102.84 233.85M102.84 233.85L106.53 230.16M106.53 230.16L106.53 256"/>
</g>
</g>
</svg>
