<?xml version="1.0" standalone="no"?><svg xmlns="http://www.w3.org/2000/svg" width="600.000" height="450.000" viewBox="0.0 0.0 600.000 450.000" version="1.1">
<title>Acme Converter - Post-processed with EDS-Designer: 14.44 (info@symca.com)</title>
<desc>Acme Converter - Post-processed with EDS-Designer: 14.44 (info@symca.com)</desc>
<g id="EDS_STYLE_GROUP" fill="none" stroke="black" stroke-width="1.0">
<g id="0" display="visible">
<path d="M258.25 371.25L258.25 351.72M259.18 351.72L259.18 371.25M255.46 351.72L266.62 351.72M266.62 351.72L269.41 352.65M269.41 352.65L270.34 353.58M270.34 353.58L271.27 355.44M271.27 355.44L271.27 357.3M271.27 357.3L270.34 359.16M270.34 359.16L269.41 360.09M269.41 360.09L266.62 361.02M266.62 351.72L268.48 352.65M268.48 352.65L269.41 353.58M269.41 353.58L270.34 355.44M270.34 355.44L270.34 357.3M270.34 357.3L269.41 359.16M269.41 359.16L268.48 360.09M268.48 360.09L266.62 361.02M259.18 361.02L266.62 361.02M266.62 361.02L269.41 361.95M269.41 361.95L270.34 362.88M270.34 362.88L271.27 364.74M271.27 364.74L271.27 367.53M271.27 367.53L270.34 369.39M270.34 369.39L269.41 370.32M269.41 370.32L266.62 371.25M266.62 371.25L255.46 371.25M266.62 361.02L268.48 361.95M268.48 361.95L269.41 362.88M269.41 362.88L270.34 364.74M270.34 364.74L270.34 367.53M270.34 367.53L269.41 369.39M269.41 369.39L268.48 370.32M268.48 370.32L266.62 371.25M278.71 371.25L278.71 351.72M279.64 351.72L279.64 371.25M275.92 351.72L287.07 351.72M287.07 351.72L289.86 352.65M289.86 352.65L290.79 353.58M290.79 353.58L291.72 355.44M291.72 355.44L291.72 357.3M291.72 357.3L290.79 359.16M290.79 359.16L289.86 360.09M289.86 360.09L287.07 361.02M287.07 361.02L279.64 361.02M287.07 351.72L288.93 352.65M288.93 352.65L289.86 353.58M289.86 353.58L290.79 355.44M290.79 355.44L290.79 357.3M290.79 357.3L289.86 359.16M289.86 359.16L288.93 360.09M288.93 360.09L287.07 361.02M275.92 371.25L282.43 371.25M284.28 361.02L286.14 361.95M286.14 361.95L287.07 362.88M287.07 362.88L289.86 369.39M289.86 369.39L290.79 370.32M290.79 370.32L291.72 370.32M291.72 370.32L292.65 369.39M286.14 361.95L287.07 363.81M287.07 363.81L288.93 370.32M288.93 370.32L289.86 371.25M289.86 371.25L291.72 371.25M291.72 371.25L292.65 369.39M292.65 369.39L292.65 368.46M302.88 351.72L300.09 352.65M300.09 352.65L298.23 354.51M298.23 354.51L297.3 356.37M297.3 356.37L296.37 360.09M296.37 360.09L296.37 362.88M296.37 362.88L297.3 366.6M297.3 366.6L298.23 368.46M298.23 368.46L300.09 370.32M300.09 370.32L302.88 371.25M302.88 371.25L304.74 371.25M304.74 371.25L307.53 370.32M307.53 370.32L309.39 368.46M309.39 368.46L310.32 366.6M310.32 366.6L311.25 362.88M311.25 362.88L311.25 360.09M311.25 360.09L310.32 356.37M310.32 356.37L309.39 354.51M309.39 354.51L307.53 352.65M307.53 352.65L304.74 351.72M304.74 351.72L302.88 351.72M302.88 351.72L301.02 352.65M301.02 352.65L299.16 354.51M299.16 354.51L298.23 356.37M298.23 356.37L297.3 360.09M297.3 360.09L297.3 362.88M297.3 362.88L298.23 366.6M298.23 366.6L299.16 368.46M299.16 368.46L301.02 370.32M301.02 370.32L302.88 371.25M304.74 371.25L306.6 370.32M306.6 370.32L308.46 368.46M308.46 368.46L309.39 366.6M309.39 366.6L310.32 362.88M310.32 362.88L310.32 360.09M310.32 360.09L309.39 356.37M309.39 356.37L308.46 354.51M308.46 354.51L306.6 352.65M306.6 352.65L304.74 351.72M319.62 351.72L323.34 371.25M320.55 351.72L323.34 366.6M327.06 351.72L323.34 371.25M327.06 351.72L330.77 371.25M327.98 351.72L330.77 366.6M334.49 351.72L330.77 371.25M316.83 351.72L323.34 351.72M331.7 351.72L337.28 351.72M341.93 371.25L341.93 351.72M342.86 371.25L342.86 351.72M342.86 351.72L354.02 369.39M342.86 353.58L354.02 371.25M354.02 371.25L354.02 351.72M339.14 351.72L342.86 351.72M351.23 351.72L356.81 351.72M339.14 371.25L344.72 371.25"/>
<path d="M256.48 78.75L298.79 78.75"/>
<path d="M257.3 78.75L257.3 82.52"/>
<path d="M256.42 82.52L298.79 82.52"/>
<path d="M298.79 93.67L260.04 93.67"/>
<path d="M252.23 101.48L252.23 139.95"/>
<path d="M238.17 139.95L262.02 139.95"/>
<path d="M262.02 165.33L262.02 116.25"/>
<path d="M265.92 112.35L279.06 112.35"/>
<path d="M279.06 116.51L279.06 105.32"/>
<path d="M279.06 105.32L298.79 105.32"/>
<path d="M298.79 116.51L265.92 116.51"/>
<path d="M265.92 112.35L263.16 113.49M263.16 113.49L262.02 116.25"/>
<path d="M265.92 116.51L263.16 117.65M263.16 117.65L262.02 120.41"/>
<path d="M260.04 93.67L256.13 94.71M256.13 94.71L253.27 97.57M253.27 97.57L252.23 101.48"/>
<path d="M234.26 143.85L234.26 330.25"/>
<path d="M236.21 332.2L298.79 332.2"/>
<path d="M238.17 139.95L235.4 141.09M235.4 141.09L234.26 143.85"/>
<path d="M234.83 141.82L236.98 97.33"/>
<path d="M256.48 78.75L249.23 80.15M249.23 80.15L243.01 84.14M243.01 84.14L238.73 90.16M238.73 90.16L236.98 97.33"/>
<path d="M236.92 98.59L240.75 98.59"/>
<path d="M240.82 97.27L238.45 139.95"/>
<path d="M256.42 82.52L248.86 84.47M248.86 84.47L243.19 89.83M243.19 89.83L240.82 97.27"/>
<path d="M262.02 165.33L237.64 165.33"/>
<path d="M237.64 165.33L237.64 139.98"/>
<path d="M262.02 144.8L237.64 144.33"/>
<path d="M237.64 144.33L235.77 144.47M235.77 144.47L234.26 145.59"/>
<path d="M237.64 165.33L235.3 167.9M235.3 167.9L234.26 171.21"/>
<path d="M234.26 171.21L238.9 171.21"/>
<path d="M262.02 165.33L266.78 170.17"/>
<path d="M266.78 170.17L270.82 166.28"/>
<path d="M270.82 166.28L277.3 166.28"/>
<path d="M277.3 166.28L281.34 170.17"/>
<path d="M281.34 170.17L286.07 165.51"/>
<path d="M286.07 165.51L298.79 165.51"/>
<path d="M286.07 165.51L286.07 148.81"/>
<path d="M289.98 144.91L298.79 144.91"/>
<path d="M289.98 144.91L287.21 146.05M287.21 146.05L286.07 148.81"/>
<path d="M298.79 137.37L266.65 137.37"/>
<path d="M266.65 159.38L266.65 112.35"/>
<path d="M266.65 159.38L270.82 166.28"/>
<path d="M266.65 159.38L262.02 159.38"/>
<path d="M266.65 137.37L264.04 137.48M264.04 137.48L262.02 139.13"/>
<path d="M266.65 154.13L264.13 154.48M264.13 154.48L262.02 155.89"/>
<path d="M277.3 166.28L281.42 159.38"/>
<path d="M281.42 159.38L286.07 159.38"/>
<path d="M281.42 159.38L281.42 146.66"/>
<path d="M289.23 138.85L298.79 138.85"/>
<path d="M289.23 138.85L285.32 139.89M285.32 139.89L282.46 142.75M282.46 142.75L281.42 146.66"/>
<path d="M290.96 138.85L290.96 144.91"/>
<path d="M266.65 154.13L281.42 154.13"/>
<path d="M286.07 155.66L281.42 154.13"/>
<path d="M286.07 149.73L281.42 148.08"/>
<path d="M240.23 170.17L298.79 170.17"/>
<path d="M240.23 170.17L240.23 168.1"/>
<path d="M238.9 171.21L240.23 170.17"/>
<path d="M238.9 171.21L238.9 299.6"/>
<path d="M240.86 301.56L298.79 301.56"/>
<path d="M238.9 299.6L239.48 300.99M239.48 300.99L240.86 301.56"/>
<path d="M239.01 300.23L234.26 300.23"/>
<path d="M298.79 306.65L237.94 306.65"/>
<path d="M237.94 306.65L237.94 332.2"/>
<path d="M234.26 330.25L234.83 331.63M234.83 331.63L236.21 332.2"/>
<path d="M234.26 327.3L298.79 327.3"/>
<path d="M234.26 300.23L235.15 303.98M235.15 303.98L237.94 306.65"/>
<path d="M340.27 78.75L340.27 82.52"/>
<path d="M318.51 116.51L318.51 105.32"/>
<path d="M318.51 105.32L298.79 105.32"/>
<path d="M335.55 116.25L334.41 113.49M334.41 113.49L331.65 112.35"/>
<path d="M335.55 120.41L334.41 117.65M334.41 117.65L331.65 116.51"/>
<path d="M335.55 165.33L335.55 116.25"/>
<path d="M331.65 112.35L318.51 112.35"/>
<path d="M298.79 116.51L331.65 116.51"/>
<path d="M345.35 101.48L344.3 97.57M344.3 97.57L341.44 94.71M341.44 94.71L337.54 93.67"/>
<path d="M298.79 93.67L337.54 93.67"/>
<path d="M345.35 101.48L345.35 139.95"/>
<path d="M363.31 143.85L362.17 141.09M362.17 141.09L359.41 139.95"/>
<path d="M359.41 139.95L335.55 139.95"/>
<path d="M360.59 97.33L358.84 90.16M358.84 90.16L354.56 84.14M354.56 84.14L348.34 80.15M348.34 80.15L341.09 78.75"/>
<path d="M362.74 141.82L360.59 97.33"/>
<path d="M360.65 98.59L356.83 98.59"/>
<path d="M341.09 78.75L298.79 78.75"/>
<path d="M356.75 97.27L354.39 89.83M354.39 89.83L348.72 84.47M348.72 84.47L341.16 82.52"/>
<path d="M356.75 97.27L359.12 139.95"/>
<path d="M335.55 165.33L359.93 165.33"/>
<path d="M341.16 82.52L298.79 82.52"/>
<path d="M359.93 165.33L359.93 139.98"/>
<path d="M335.55 144.8L359.93 144.33"/>
<path d="M363.31 145.59L361.8 144.47M361.8 144.47L359.93 144.33"/>
<path d="M363.31 171.21L362.27 167.9M362.27 167.9L359.93 165.33"/>
<path d="M316.23 170.17L311.5 165.51"/>
<path d="M311.5 165.51L298.79 165.51"/>
<path d="M311.5 148.81L310.36 146.05M310.36 146.05L307.6 144.91"/>
<path d="M311.5 165.51L311.5 148.81"/>
<path d="M307.6 144.91L298.79 144.91"/>
<path d="M330.92 159.38L330.92 112.35"/>
<path d="M335.55 139.13L333.53 137.48M333.53 137.48L330.92 137.37"/>
<path d="M316.16 159.38L335.55 159.38"/>
<path d="M335.55 155.89L333.44 154.48M333.44 154.48L330.92 154.13"/>
<path d="M316.16 159.38L311.5 159.38"/>
<path d="M298.79 137.37L330.92 137.37"/>
<path d="M316.16 146.66L315.11 142.75M315.11 142.75L312.25 139.89M312.25 139.89L308.35 138.85"/>
<path d="M316.16 159.38L316.16 146.66"/>
<path d="M308.35 138.85L298.79 138.85"/>
<path d="M306.61 138.85L306.61 144.91"/>
<path d="M316.16 154.13L311.5 155.66"/>
<path d="M330.92 154.13L316.16 154.13"/>
<path d="M316.16 148.08L311.5 149.73"/>
<path d="M316.23 170.17L298.79 170.17"/>
<path d="M377.87 301.56L298.79 301.56"/>
<path d="M361.36 332.2L362.74 331.63M362.74 331.63L363.31 330.25"/>
<path d="M359.63 306.65L359.63 332.2"/>
<path d="M363.31 143.85L363.31 295.08"/>
<path d="M361.36 332.2L298.79 332.2"/>
<path d="M363.31 327.3L298.79 327.3"/>
<path d="M298.79 306.65L373.96 306.65"/>
<path d="M377.87 302.74L377.87 293.8"/>
<path d="M373.96 289.89L363.31 289.89"/>
<path d="M377.87 293.8L376.72 291.03M376.72 291.03L373.96 289.89"/>
<path d="M373.96 306.65L376.72 305.51M376.72 305.51L377.87 302.74"/>
<path d="M363.31 295.08L377.87 295.08"/>
<path d="M373.04 289.89L373.04 306.65"/>
<path d="M373.04 289.89L377.87 295.08"/>
<path d="M377.87 301.56L373.04 306.65"/>
<path d="M363.31 306.65L363.31 330.25"/>
<path d="M256.05 193.97L256.05 218.39M256.05 218.39L308.47 218.39M308.47 218.39L308.47 193.97M308.47 193.97L256.05 193.97"/>
<path d="M263.55 201.71L263.55 211.09M263.55 211.09L301.51 211.09M301.51 211.09L301.51 201.71M301.51 201.71L263.55 201.71"/>
<path d="M263.55 201.71L256.05 193.97"/>
<path d="M301.51 201.71L308.47 193.97"/>
<path d="M301.51 211.09L308.47 218.39"/>
<path d="M263.55 211.09L256.05 218.39"/>
<path d="M263.98 178.07L263.98 193.97M263.98 193.97L300.71 193.97M300.71 193.97L300.71 178.07M300.71 178.07L263.98 178.07"/>
<path d="M318.08 193.97L318.08 218.39M318.08 218.39L341.91 218.39M341.91 218.39L341.91 193.97M341.91 193.97L318.08 193.97"/>
<path d="M326.08 201.99L326.08 210.76M326.08 210.76L334.57 210.76M334.57 210.76L334.57 201.99M334.57 201.99L326.08 201.99"/>
<path d="M326.08 201.99L318.08 193.97"/>
<path d="M334.57 201.99L341.91 193.97"/>
<path d="M334.57 210.76L341.91 218.39"/>
<path d="M326.08 210.76L318.08 218.39"/>
<path d="M318.64 179.39L318.64 193.97M318.64 193.97L337.37 193.97M337.37 193.97L337.37 179.39M337.37 179.39L318.64 179.39"/>
<path d="M256.05 283.7L256.05 259.27M256.05 259.27L308.47 259.27M308.47 259.27L308.47 283.7M308.47 283.7L256.05 283.7"/>
<path d="M263.55 275.95L263.55 266.57M263.55 266.57L301.51 266.57M301.51 266.57L301.51 275.95M301.51 275.95L263.55 275.95"/>
<path d="M263.55 275.95L256.05 283.7"/>
<path d="M301.51 275.95L308.47 283.7"/>
<path d="M301.51 266.57L308.47 259.27"/>
<path d="M263.55 266.57L256.05 259.27"/>
<path d="M263.98 299.59L263.98 283.7M263.98 283.7L300.71 283.7M300.71 283.7L300.71 299.59M300.71 299.59L263.98 299.59"/>
<path d="M318.08 283.7L318.08 259.27M318.08 259.27L341.91 259.27M341.91 259.27L341.91 283.7M341.91 283.7L318.08 283.7"/>
<path d="M326.08 275.67L326.08 266.9M326.08 266.9L334.57 266.9M334.57 266.9L334.57 275.67M334.57 275.67L326.08 275.67"/>
<path d="M326.08 275.67L318.08 283.7"/>
<path d="M334.57 275.67L341.91 283.7"/>
<path d="M334.57 266.9L341.91 259.27"/>
<path d="M326.08 266.9L318.08 259.27"/>
<path d="M341.34 298.27L341.34 283.7M341.34 283.7L322.61 283.7M322.61 283.7L322.61 298.27M322.61 298.27L341.34 298.27"/>
<path d="M321.82 232.97L321.82 245.08M321.82 245.08L321.82 245.08M321.82 245.08L322.39 246.46M322.39 246.46L323.77 247.03M323.77 247.03L349.6 247.03M349.6 247.03L349.6 247.03M349.6 247.03L350.98 246.46M350.98 246.46L351.56 245.08M351.56 245.08L351.56 232.97M351.56 232.97L351.56 232.97M351.56 232.97L350.98 231.59M350.98 231.59L349.6 231.02M349.6 231.02L323.77 231.02M323.77 231.02L323.77 231.02M323.77 231.02L322.39 231.59M322.39 231.59L321.82 232.97"/>
<path d="M209.6 200.31L211.08 199.57M211.08 199.57L213.32 197.34M213.32 197.34L213.32 212.96"/>
<path d="M383.66 201.06L383.66 200.31M383.66 200.31L384.41 198.82M384.41 198.82L385.15 198.08M385.15 198.08L386.64 197.34M386.64 197.34L389.61 197.34M389.61 197.34L391.1 198.08M391.1 198.08L391.84 198.82M391.84 198.82L392.59 200.31M392.59 200.31L392.59 201.8M392.59 201.8L391.84 203.29M391.84 203.29L390.36 205.52M390.36 205.52L382.92 212.96M382.92 212.96L393.33 212.96"/>
<path d="M389.95 261.25L382.51 271.67M382.51 271.67L393.67 271.67M389.95 261.25L389.95 276.87"/>
<path d="M207.75 261.25L215.93 261.25M215.93 261.25L211.47 267.2M211.47 267.2L213.7 267.2M213.7 267.2L215.19 267.95M215.19 267.95L215.93 268.69M215.93 268.69L216.67 270.92M216.67 270.92L216.67 272.41M216.67 272.41L215.93 274.64M215.93 274.64L214.44 276.13M214.44 276.13L212.21 276.87M212.21 276.87L209.98 276.87M209.98 276.87L207.75 276.13M207.75 276.13L207.01 275.38M207.01 275.38L206.26 273.9"/>
</g>
</g>
</svg>
