<?xml version="1.0" standalone="no"?><svg xmlns="http://www.w3.org/2000/svg" width="600.000" height="450.000" viewBox="0.0 0.0 600.000 450.000" version="1.1">
<title>Acme Converter - Post-processed with EDS-Designer: 14.44 (info@symca.com)</title>
<desc>Acme Converter - Post-processed with EDS-Designer: 14.44 (info@symca.com)</desc>
<g id="EDS_STYLE_GROUP" fill="none" stroke="black" stroke-width="1.0">
<g id="0" display="visible">
<path d="M206.63 404.56L206.63 365.01M208.51 365.01L208.51 404.56M200.98 365.01L223.58 365.01M223.58 365.01L229.23 366.9M229.23 366.9L231.11 368.78M231.11 368.78L232.99 372.55M232.99 372.55L232.99 376.31M232.99 376.31L231.11 380.08M231.11 380.08L229.23 381.96M229.23 381.96L223.58 383.85M223.58 365.01L227.34 366.9M227.34 366.9L229.23 368.78M229.23 368.78L231.11 372.55M231.11 372.55L231.11 376.31M231.11 376.31L229.23 380.08M229.23 380.08L227.34 381.96M227.34 381.96L223.58 383.85M208.51 383.85L223.58 383.85M223.58 383.85L229.23 385.73M229.23 385.73L231.11 387.61M231.11 387.61L232.99 391.38M232.99 391.38L232.99 397.03M232.99 397.03L231.11 400.8M231.11 400.8L229.23 402.68M229.23 402.68L223.58 404.56M223.58 404.56L200.98 404.56M223.58 383.85L227.34 385.73M227.34 385.73L229.23 387.61M229.23 387.61L231.11 391.38M231.11 391.38L231.11 397.03M231.11 397.03L229.23 400.8M229.23 400.8L227.34 402.68M227.34 402.68L223.58 404.56M248.06 404.56L248.06 365.01M249.94 365.01L249.94 404.56M242.41 365.01L255.59 365.01M242.41 404.56L270.66 404.56M270.66 404.56L270.66 393.26M270.66 393.26L268.78 404.56M293.26 365.01L280.08 404.56M293.26 365.01L306.44 404.56M293.26 370.66L304.56 404.56M283.84 393.26L300.79 393.26M276.31 404.56L287.61 404.56M298.91 404.56L310.21 404.56M342.23 370.66L344.11 376.31M344.11 376.31L344.11 365.01M344.11 365.01L342.23 370.66M342.23 370.66L338.46 366.9M338.46 366.9L332.81 365.01M332.81 365.01L329.04 365.01M329.04 365.01L323.39 366.9M323.39 366.9L319.63 370.66M319.63 370.66L317.74 374.43M317.74 374.43L315.86 380.08M315.86 380.08L315.86 389.5M315.86 389.5L317.74 395.15M317.74 395.15L319.63 398.91M319.63 398.91L323.39 402.68M323.39 402.68L329.04 404.56M329.04 404.56L332.81 404.56M332.81 404.56L338.46 402.68M338.46 402.68L342.23 398.91M342.23 398.91L344.11 395.15M329.04 365.01L325.28 366.9M325.28 366.9L321.51 370.66M321.51 370.66L319.63 374.43M319.63 374.43L317.74 380.08M317.74 380.08L317.74 389.5M317.74 389.5L319.63 395.15M319.63 395.15L321.51 398.91M321.51 398.91L325.28 402.68M325.28 402.68L329.04 404.56M361.06 404.56L361.06 365.01M362.94 365.01L362.94 404.56M387.43 365.01L362.94 389.5M372.36 381.96L387.43 404.56M370.48 381.96L385.54 404.56M355.41 365.01L368.59 365.01M379.89 365.01L391.19 365.01M355.41 404.56L368.59 404.56M379.89 404.56L391.19 404.56"/>
<path d="M2.13 180.14L5.27 178.57M5.27 178.57L9.98 173.86M9.98 173.86L9.98 206.82"/>
<path d="M590.04 173.86L574.34 195.83M574.34 195.83L597.89 195.83M590.04 173.86L590.04 206.82"/>
<path d="M368.84 98.26L344.42 98.26"/>
<path d="M344.42 98.26L344.42 127.22"/>
<path d="M344.42 127.22L368.84 127.22"/>
<path d="M368.84 127.22L368.84 98.26"/>
<path d="M423.24 214.11L423.24 238.49"/>
<path d="M423.24 238.49L447.66 238.49"/>
<path d="M447.66 238.49L447.66 214.11"/>
<path d="M330.16 214.11L330.16 238.49"/>
<path d="M330.16 238.49L354.57 238.49"/>
<path d="M354.57 238.49L354.57 214.11"/>
<path d="M447.66 214.11L467.5 214.11"/>
<path d="M467.5 214.11L467.5 171.43"/>
<path d="M467.5 171.43L404.93 171.43"/>
<path d="M404.93 171.43L404.93 214.11"/>
<path d="M404.93 214.11L423.24 214.11"/>
<path d="M354.57 214.11L374.41 214.11"/>
<path d="M374.41 214.11L374.41 171.43"/>
<path d="M374.41 171.43L311.84 171.43"/>
<path d="M311.84 171.43L311.84 214.11"/>
<path d="M311.84 214.11L330.16 214.11"/>
<path d="M228.44 98.26L252.86 98.26"/>
<path d="M252.86 98.26L252.86 127.22"/>
<path d="M252.86 127.22L228.44 127.22"/>
<path d="M228.44 127.22L228.44 98.26"/>
<path d="M168.93 214.11L168.93 238.49"/>
<path d="M168.93 238.49L144.51 238.49"/>
<path d="M144.51 238.49L144.51 214.11"/>
<path d="M263.54 214.11L263.54 238.49"/>
<path d="M263.54 238.49L239.12 238.49"/>
<path d="M239.12 238.49L239.12 214.11"/>
<path d="M144.51 214.11L124.67 214.11"/>
<path d="M124.67 214.11L124.67 171.43"/>
<path d="M124.67 171.43L187.24 171.43"/>
<path d="M187.24 171.43L187.24 214.11"/>
<path d="M187.24 214.11L168.93 214.11"/>
<path d="M239.12 214.11L219.29 214.11"/>
<path d="M219.29 214.11L219.29 171.43"/>
<path d="M219.29 171.43L281.85 171.43"/>
<path d="M281.85 171.43L281.85 214.11"/>
<path d="M281.85 214.11L263.54 214.11"/>
<path d="M113.89 294.45L478.29 294.45"/>
<path d="M478.29 294.45L486.6 292.79M486.6 292.79L493.64 288.09M493.64 288.09L498.35 281.04M498.35 281.04L500 272.73"/>
<path d="M500 272.73L500 153.12"/>
<path d="M500 153.12L498.35 144.81M498.35 144.81L493.64 137.76M493.64 137.76L486.6 133.06M486.6 133.06L478.29 131.4"/>
<path d="M478.29 131.4L113.89 131.4"/>
<path d="M113.89 131.4L105.58 133.06M105.58 133.06L98.53 137.76M98.53 137.76L93.82 144.81M93.82 144.81L92.17 153.12"/>
<path d="M92.17 153.12L92.17 272.73"/>
<path d="M92.17 272.73L93.82 281.04M93.82 281.04L98.53 288.09M98.53 288.09L105.58 292.79M105.58 292.79L113.89 294.45"/>
<path d="M468.03 87.2L468.03 83.97"/>
<path d="M468.03 83.97L452.57 69.79M452.57 69.79L434.77 58.68M434.77 58.68L415.23 51.01"/>
<path d="M415.23 51.01L180.52 51.01"/>
<path d="M180.52 51.01L160.99 58.68M160.99 58.68L143.19 69.79M143.19 69.79L127.72 83.97"/>
<path d="M127.72 83.97L127.72 87.2"/>
<path d="M127.72 87.2L113.89 87.2"/>
<path d="M113.89 87.2L99.22 88.85M99.22 88.85L85.29 93.73M85.29 93.73L72.79 101.58M72.79 101.58L62.35 112.02M62.35 112.02L54.5 124.52M54.5 124.52L49.62 138.45M49.62 138.45L47.97 153.12"/>
<path d="M47.97 153.12L47.97 272.73"/>
<path d="M47.97 272.73L49.62 287.4M49.62 287.4L54.5 301.33M54.5 301.33L62.35 313.83M62.35 313.83L72.79 324.27M72.79 324.27L85.29 332.12M85.29 332.12L99.22 337M99.22 337L113.89 338.65"/>
<path d="M113.89 338.65L478.29 338.65"/>
<path d="M478.29 338.65L492.95 337M492.95 337L506.89 332.12M506.89 332.12L519.38 324.27M519.38 324.27L529.82 313.83M529.82 313.83L537.67 301.33M537.67 301.33L542.55 287.4M542.55 287.4L544.2 272.73"/>
<path d="M544.2 272.73L544.2 153.12"/>
<path d="M544.2 153.12L542.55 138.45M542.55 138.45L537.67 124.52M537.67 124.52L529.82 112.02M529.82 112.02L519.38 101.58M519.38 101.58L506.89 93.73M506.89 93.73L492.95 88.85M492.95 88.85L478.29 87.2"/>
<path d="M478.29 87.2L468.03 87.2"/>
<path d="M133.9 103.97L113.89 103.97"/>
<path d="M113.89 103.97L101.16 105.64M101.16 105.64L89.31 110.55M89.31 110.55L79.13 118.36M79.13 118.36L71.32 128.54M71.32 128.54L66.41 140.4M66.41 140.4L64.74 153.12"/>
<path d="M64.74 153.12L64.74 272.73"/>
<path d="M64.74 272.73L66.41 285.45M66.41 285.45L71.32 297.31M71.32 297.31L79.13 307.49M79.13 307.49L89.31 315.3M89.31 315.3L101.16 320.21M101.16 320.21L113.89 321.88"/>
<path d="M113.89 321.88L478.29 321.88"/>
<path d="M478.29 321.88L491.01 320.21M491.01 320.21L502.86 315.3M502.86 315.3L513.04 307.49M513.04 307.49L520.85 297.31M520.85 297.31L525.76 285.45M525.76 285.45L527.44 272.73"/>
<path d="M527.44 272.73L527.44 153.12"/>
<path d="M527.44 153.12L525.76 140.4M525.76 140.4L520.85 128.54M520.85 128.54L513.04 118.36M513.04 118.36L502.86 110.55M502.86 110.55L491.01 105.64M491.01 105.64L478.29 103.97"/>
<path d="M478.29 103.97L461.86 103.97"/>
<path d="M393.25 70.83L204.03 70.83"/>
<path d="M204.03 70.83L204.03 98.26"/>
<path d="M204.03 98.26L393.25 98.26"/>
<path d="M393.25 98.26L393.25 70.83"/>
<path d="M358.16 70.83L229.97 70.83"/>
<path d="M233.47 70.83L233.47 98.26"/>
<path d="M229.97 98.26L358.16 98.26"/>
<path d="M365.3 98.26L365.3 70.83"/>
<path d="M461.93 104.36L461.93 104.36"/>
<path d="M461.93 104.36L456.72 90.52M456.72 90.52L449.06 77.87M449.06 77.87L439.21 66.83M439.21 66.83L427.51 57.77M427.51 57.77L414.36 51.01"/>
<path d="M414.36 51.01L181.4 51.01"/>
<path d="M181.4 51.01L168.24 57.77M168.24 57.77L156.54 66.83M156.54 66.83L146.7 77.87M146.7 77.87L139.04 90.52M139.04 90.52L133.82 104.36"/>
<path d="M133.82 104.36L133.82 104.36"/>
<path d="M186.21 321.88L186.21 338.65"/>
<path d="M405.96 338.65L405.96 321.88"/>
<path d="M268.62 321.88L268.62 338.65"/>
<path d="M320.5 338.65L320.5 321.88"/>
<path d="M155.19 108.54L113.89 108.54"/>
<path d="M113.89 108.54L102.35 110.06M102.35 110.06L91.6 114.51M91.6 114.51L82.36 121.6M82.36 121.6L75.28 130.83M75.28 130.83L70.83 141.58M70.83 141.58L69.31 153.12"/>
<path d="M69.31 153.12L69.31 272.73"/>
<path d="M69.31 272.73L70.83 284.27M70.83 284.27L75.28 295.02M75.28 295.02L82.36 304.25M82.36 304.25L91.6 311.34M91.6 311.34L102.35 315.79M102.35 315.79L113.89 317.31"/>
<path d="M113.89 317.31L478.29 317.31"/>
<path d="M478.29 317.31L489.82 315.79M489.82 315.79L500.57 311.34M500.57 311.34L509.81 304.25M509.81 304.25L516.89 295.02M516.89 295.02L521.34 284.27M521.34 284.27L522.86 272.73"/>
<path d="M522.86 272.73L522.86 153.12"/>
<path d="M522.86 153.12L521.34 141.58M521.34 141.58L516.89 130.83M516.89 130.83L509.81 121.6M509.81 121.6L500.57 114.51M500.57 114.51L489.82 110.06M489.82 110.06L478.29 108.54"/>
<path d="M478.29 108.54L442.09 108.54"/>
<path d="M442.09 108.54L438.92 95.99M438.92 95.99L432.81 84.57M432.81 84.57L424.11 74.98M424.11 74.98L413.34 67.78"/>
<path d="M413.34 67.78L182.41 67.78"/>
<path d="M182.41 67.78L171.65 74.77M171.65 74.77L163.14 84.38M163.14 84.38L157.52 95.92M157.52 95.92L155.19 108.54"/>
</g>
</g>
</svg>
