<?xml version="1.0" standalone="no"?><svg xmlns="http://www.w3.org/2000/svg" width="600.000" height="450.000" viewBox="0.0 0.0 600.000 450.000" version="1.1">
<title>Acme Converter - Post-processed with EDS-Designer: 14.44 (info@symca.com)</title>
<desc>Acme Converter - Post-processed with EDS-Designer: 14.44 (info@symca.com)</desc>
<g id="EDS_STYLE_GROUP" fill="none" stroke="black" stroke-width="1.0">
<g id="0" display="visible">
<path d="M223.42 181.12L293.43 181.12"/>
<path d="M293.43 181.12L293.43 195.4"/>
<path d="M293.43 195.4L223.42 195.4"/>
<path d="M223.42 195.4L223.42 181.12"/>
<path d="M315.54 181.12L315.54 195.4"/>
<path d="M315.54 195.4L381.87 195.4"/>
<path d="M381.87 195.4L381.87 181.12"/>
<path d="M381.87 181.12L315.54 181.12"/>
<path d="M293.43 273.24L223.42 273.24"/>
<path d="M223.42 273.24L223.42 258.5"/>
<path d="M223.42 258.5L293.43 258.5"/>
<path d="M293.43 258.5L293.43 273.24"/>
<path d="M315.54 273.24L315.54 258.5"/>
<path d="M315.54 258.5L381.87 258.5"/>
<path d="M381.87 258.5L381.87 273.24"/>
<path d="M381.87 273.24L315.54 273.24"/>
<path d="M411.35 312.84L411.35 156.07"/>
<path d="M396.61 327.58L208.77 327.58"/>
<path d="M194.03 122.04L194.03 312.84"/>
<path d="M238.16 335.88L367.13 335.88"/>
<path d="M191.08 294.42L194.03 294.42"/>
<path d="M418.72 287.24L418.72 169.87"/>
<path d="M186.66 169.87L186.66 290"/>
<path d="M198.37 118.48L211.63 118.48"/>
<path d="M216.05 122.9L216.05 151.64"/>
<path d="M411.35 156.07L411.35 122.9"/>
<path d="M406.93 118.48L393.66 118.48"/>
<path d="M389.24 122.9L389.24 151.64"/>
<path d="M411.35 122.17L411.35 124.69"/>
<path d="M451.66 178.44L454.47 177.03M454.47 177.03L458.68 172.82M458.68 172.82L458.68 202.3"/>
<path d="M126.03 179.84L126.03 178.44M126.03 178.44L127.44 175.63M127.44 175.63L128.84 174.23M128.84 174.23L131.65 172.82M131.65 172.82L137.26 172.82M137.26 172.82L140.07 174.23M140.07 174.23L141.47 175.63M141.47 175.63L142.88 178.44M142.88 178.44L142.88 181.25M142.88 181.25L141.47 184.05M141.47 184.05L138.66 188.26M138.66 188.26L124.63 202.3M124.63 202.3L144.28 202.3"/>
<path d="M451.7 253.89L467.14 253.89M467.14 253.89L458.72 265.12M458.72 265.12L462.93 265.12M462.93 265.12L465.73 266.52M465.73 266.52L467.14 267.93M467.14 267.93L468.54 272.14M468.54 272.14L468.54 274.94M468.54 274.94L467.14 279.16M467.14 279.16L464.33 281.96M464.33 281.96L460.12 283.37M460.12 283.37L455.91 283.37M455.91 283.37L451.7 281.96M451.7 281.96L450.29 280.56M450.29 280.56L448.89 277.75"/>
<path d="M138.66 253.89L124.63 273.54M124.63 273.54L145.68 273.54M138.66 253.89L138.66 283.37"/>
<path d="M163.18 408.02L163.18 378.54M164.59 378.54L164.59 408.02M158.97 378.54L168.8 378.54M158.97 408.02L180.03 408.02M180.03 408.02L180.03 399.6M180.03 399.6L178.62 408.02M188.45 408.02L188.45 378.54M189.85 378.54L189.85 408.02M184.24 378.54L194.06 378.54M184.24 408.02L194.06 408.02M219.33 382.76L220.73 386.97M220.73 386.97L220.73 378.54M220.73 378.54L219.33 382.76M219.33 382.76L216.52 379.95M216.52 379.95L212.31 378.54M212.31 378.54L209.5 378.54M209.5 378.54L205.29 379.95M205.29 379.95L202.49 382.76M202.49 382.76L201.08 385.56M201.08 385.56L199.68 389.77M199.68 389.77L199.68 396.79M199.68 396.79L201.08 401M201.08 401L202.49 403.81M202.49 403.81L205.29 406.62M205.29 406.62L209.5 408.02M209.5 408.02L212.31 408.02M212.31 408.02L216.52 406.62M216.52 406.62L219.33 403.81M209.5 378.54L206.7 379.95M206.7 379.95L203.89 382.76M203.89 382.76L202.49 385.56M202.49 385.56L201.08 389.77M201.08 389.77L201.08 396.79M201.08 396.79L202.49 401M202.49 401L203.89 403.81M203.89 403.81L206.7 406.62M206.7 406.62L209.5 408.02M219.33 396.79L219.33 408.02M220.73 396.79L220.73 408.02M215.12 396.79L224.95 396.79M236.18 408.02L236.18 378.54M237.58 378.54L237.58 408.02M254.42 408.02L254.42 378.54M255.83 378.54L255.83 408.02M231.96 378.54L241.79 378.54M250.21 378.54L260.04 378.54M237.58 392.58L254.42 392.58M231.96 408.02L241.79 408.02M250.21 408.02L260.04 408.02M275.48 408.02L275.48 378.54M276.88 378.54L276.88 408.02M267.06 378.54L265.65 386.97M265.65 386.97L265.65 378.54M265.65 378.54L286.71 378.54M286.71 378.54L286.71 386.97M286.71 386.97L285.31 378.54M271.27 408.02L281.1 408.02M341.46 382.76L342.86 386.97M342.86 386.97L342.86 378.54M342.86 378.54L341.46 382.76M341.46 382.76L338.65 379.95M338.65 379.95L334.44 378.54M334.44 378.54L331.63 378.54M331.63 378.54L327.42 379.95M327.42 379.95L324.61 382.76M324.61 382.76L323.21 385.56M323.21 385.56L321.8 389.77M321.8 389.77L321.8 396.79M321.8 396.79L323.21 401M323.21 401L324.61 403.81M324.61 403.81L327.42 406.62M327.42 406.62L331.63 408.02M331.63 408.02L334.44 408.02M334.44 408.02L338.65 406.62M338.65 406.62L341.46 403.81M331.63 378.54L328.82 379.95M328.82 379.95L326.01 382.76M326.01 382.76L324.61 385.56M324.61 385.56L323.21 389.77M323.21 389.77L323.21 396.79M323.21 396.79L324.61 401M324.61 401L326.01 403.81M326.01 403.81L328.82 406.62M328.82 406.62L331.63 408.02M341.46 396.79L341.46 408.02M342.86 396.79L342.86 408.02M337.24 396.79L347.07 396.79M358.3 408.02L358.3 378.54M359.7 378.54L359.7 408.02M354.09 378.54L370.93 378.54M370.93 378.54L375.15 379.95M375.15 379.95L376.55 381.35M376.55 381.35L377.95 384.16M377.95 384.16L377.95 386.97M377.95 386.97L376.55 389.77M376.55 389.77L375.15 391.18M375.15 391.18L370.93 392.58M370.93 392.58L359.7 392.58M370.93 378.54L373.74 379.95M373.74 379.95L375.15 381.35M375.15 381.35L376.55 384.16M376.55 384.16L376.55 386.97M376.55 386.97L375.15 389.77M375.15 389.77L373.74 391.18M373.74 391.18L370.93 392.58M354.09 408.02L363.92 408.02M366.72 392.58L369.53 393.99M369.53 393.99L370.93 395.39M370.93 395.39L375.15 405.22M375.15 405.22L376.55 406.62M376.55 406.62L377.95 406.62M377.95 406.62L379.36 405.22M369.53 393.99L370.93 396.79M370.93 396.79L373.74 406.62M373.74 406.62L375.15 408.02M375.15 408.02L377.95 408.02M377.95 408.02L379.36 405.22M379.36 405.22L379.36 403.81M389.18 408.02L389.18 378.54M390.59 378.54L390.59 408.02M399.01 386.97L399.01 398.2M384.97 378.54L407.43 378.54M407.43 378.54L407.43 386.97M407.43 386.97L406.03 378.54M390.59 392.58L399.01 392.58M384.97 408.02L407.43 408.02M407.43 408.02L407.43 399.6M407.43 399.6L406.03 408.02M417.26 378.54L427.08 393.99M427.08 393.99L427.08 408.02M418.66 378.54L428.49 393.99M428.49 393.99L428.49 408.02M438.31 378.54L428.49 393.99M414.45 378.54L422.87 378.54M432.7 378.54L441.12 378.54M422.87 408.02L432.7 408.02"/>
<path d="M414.3 165.45L411.35 165.45"/>
<path d="M411.35 291.67L414.3 291.67"/>
<path d="M194.03 165.45L191.08 165.45"/>
<path d="M406.93 151.64L367.13 151.64"/>
<path d="M267.64 77.95L267.64 95.44"/>
<path d="M337.65 77.95L337.65 95.44"/>
<path d="M241.85 95.44L241.85 151.64"/>
<path d="M367.13 95.44L367.13 151.64"/>
<path d="M356.08 77.95L249.22 77.95"/>
<path d="M241.85 151.64L198.45 151.64"/>
<path d="M333.73 151.64L271.09 151.64"/>
<path d="M383.01 95.44L222.29 95.44"/>
<path d="M333.73 122.17L333.73 151.64"/>
<path d="M271.09 122.17L271.09 151.64"/>
<path d="M344.79 122.17L260.04 122.17"/>
<path d="M216.05 122.9L214.76 119.78M214.76 119.78L211.63 118.48"/>
<path d="M198.37 118.48L195.24 119.78M195.24 119.78L193.95 122.9"/>
<path d="M393.66 118.48L390.53 119.78M390.53 119.78L389.24 122.9"/>
<path d="M411.35 122.9L410.05 119.78M410.05 119.78L406.93 118.48"/>
<path d="M411.35 156.07L410.05 152.94M410.05 152.94L406.93 151.64"/>
<path d="M344.79 107.43L260.04 107.43"/>
<path d="M344.79 107.43L344.79 122.17"/>
<path d="M260.04 107.43L260.04 122.17"/>
<path d="M418.72 169.87L418.13 167.66M418.13 167.66L416.51 166.05M416.51 166.05L414.3 165.45"/>
<path d="M414.3 291.67L417.42 290.37M417.42 290.37L418.72 287.24"/>
<path d="M186.66 290L187.96 293.13M187.96 293.13L191.08 294.42"/>
<path d="M191.08 165.45L188.87 166.05M188.87 166.05L187.25 167.66M187.25 167.66L186.66 169.87"/>
<path d="M193.71 283.37L238.16 335.88"/>
<path d="M411.11 283.37L367.13 335.88"/>
<path d="M194.03 312.84L195.15 318.49M195.15 318.49L198.35 323.27M198.35 323.27L203.13 326.46M203.13 326.46L208.77 327.58"/>
<path d="M396.61 327.58L402.25 326.46M402.25 326.46L407.03 323.27M407.03 323.27L410.23 318.49M410.23 318.49L411.35 312.84"/>
<path d="M219.74 107.43L219.74 151.64"/>
<path d="M385.55 107.43L385.55 151.64"/>
<path d="M249.22 77.95L240.11 79.39M240.11 79.39L231.89 83.58M231.89 83.58L225.37 90.1M225.37 90.1L221.18 98.32M221.18 98.32L219.74 107.43"/>
<path d="M385.55 107.43L384.11 98.32M384.11 98.32L379.92 90.1M379.92 90.1L373.4 83.58M373.4 83.58L365.19 79.39M365.19 79.39L356.08 77.95"/>
<path d="M263.96 77.95L263.96 95.44"/>
<path d="M341.34 77.95L341.34 95.44"/>
<path d="M198.45 151.64L196.24 152.24M196.24 152.24L194.62 153.85M194.62 153.85L194.03 156.07"/>
</g>
</g>
</svg>
