<?xml version="1.0" standalone="no"?><svg xmlns="http://www.w3.org/2000/svg" width="600.000" height="450.000" viewBox="0.0 0.0 600.000 450.000" version="1.1">
<title>Acme Converter - Post-processed with EDS-Designer: 14.44 (info@symca.com)</title>
<desc>Acme Converter - Post-processed with EDS-Designer: 14.44 (info@symca.com)</desc>
<g id="EDS_STYLE_GROUP" fill="none" stroke="black" stroke-width="1.0">
<g id="0" display="visible">
<path d="M238.21 371.25L238.21 343.41M239.53 343.41L239.53 371.25M234.23 343.41L250.14 343.41M250.14 343.41L254.12 344.73M254.12 344.73L255.44 346.06M255.44 346.06L256.77 348.71M256.77 348.71L256.77 351.36M256.77 351.36L255.44 354.01M255.44 354.01L254.12 355.34M254.12 355.34L250.14 356.66M250.14 343.41L252.79 344.73M252.79 344.73L254.12 346.06M254.12 346.06L255.44 348.71M255.44 348.71L255.44 351.36M255.44 351.36L254.12 354.01M254.12 354.01L252.79 355.34M252.79 355.34L250.14 356.66M239.53 356.66L250.14 356.66M250.14 356.66L254.12 357.99M254.12 357.99L255.44 359.32M255.44 359.32L256.77 361.97M256.77 361.97L256.77 365.95M256.77 365.95L255.44 368.6M255.44 368.6L254.12 369.92M254.12 369.92L250.14 371.25M250.14 371.25L234.23 371.25M250.14 356.66L252.79 357.99M252.79 357.99L254.12 359.32M254.12 359.32L255.44 361.97M255.44 361.97L255.44 365.95M255.44 365.95L254.12 368.6M254.12 368.6L252.79 369.92M252.79 369.92L250.14 371.25M267.38 371.25L267.38 343.41M268.7 343.41L268.7 371.25M263.4 343.41L272.68 343.41M263.4 371.25L283.29 371.25M283.29 371.25L283.29 363.29M283.29 363.29L281.96 371.25M299.2 343.41L289.92 371.25M299.2 343.41L308.48 371.25M299.2 347.38L307.15 371.25M292.57 363.29L304.5 363.29M287.27 371.25L295.22 371.25M303.18 371.25L311.13 371.25M333.67 347.38L335 351.36M335 351.36L335 343.41M335 343.41L333.67 347.38M333.67 347.38L331.02 344.73M331.02 344.73L327.04 343.41M327.04 343.41L324.39 343.41M324.39 343.41L320.41 344.73M320.41 344.73L317.76 347.38M317.76 347.38L316.44 350.04M316.44 350.04L315.11 354.01M315.11 354.01L315.11 360.64M315.11 360.64L316.44 364.62M316.44 364.62L317.76 367.27M317.76 367.27L320.41 369.92M320.41 369.92L324.39 371.25M324.39 371.25L327.04 371.25M327.04 371.25L331.02 369.92M331.02 369.92L333.67 367.27M333.67 367.27L335 364.62M324.39 343.41L321.74 344.73M321.74 344.73L319.09 347.38M319.09 347.38L317.76 350.04M317.76 350.04L316.44 354.01M316.44 354.01L316.44 360.64M316.44 360.64L317.76 364.62M317.76 364.62L319.09 367.27M319.09 367.27L321.74 369.92M321.74 369.92L324.39 371.25M346.93 371.25L346.93 343.41M348.26 343.41L348.26 371.25M365.49 343.41L348.26 360.64M354.89 355.34L365.49 371.25M353.56 355.34L364.17 371.25M342.95 343.41L352.23 343.41M360.19 343.41L368.15 343.41M342.95 371.25L352.23 371.25M360.19 371.25L368.15 371.25"/>
<path d="M237.47 301.78L230.97 301.78"/>
<path d="M338.37 301.78L263.73 301.78"/>
<path d="M371.14 301.78L364.63 301.78"/>
<path d="M266.79 289.99L266.41 289.76"/>
<path d="M269.96 291.33L271.17 291.53M271.17 291.53L273.2 291.76"/>
<path d="M266.75 289.96L269.8 291.29"/>
<path d="M269.8 291.29L269.98 291.33"/>
<path d="M260 288L263.14 288.45M263.14 288.45L266.45 289.75"/>
<path d="M253.15 288L260 288"/>
<path d="M258.75 294.26L253.15 288"/>
<path d="M258.75 294.26L269.73 294.26"/>
<path d="M328.91 291.76L330.94 291.53M330.94 291.53L332.15 291.33"/>
<path d="M328.91 291.76L273.2 291.76"/>
<path d="M269.96 294.26L269.96 291.33"/>
<path d="M269.96 294.26L332.15 294.26"/>
<path d="M332.15 294.26L332.15 291.33"/>
<path d="M269.73 294.26L269.96 294.26"/>
<path d="M335.66 289.75L335.35 289.94"/>
<path d="M260 288L342.11 288"/>
<path d="M235.27 288L240.8 288"/>
<path d="M240.8 288L253.15 288"/>
<path d="M342.11 288L348.96 288"/>
<path d="M348.96 288L361.31 288"/>
<path d="M361.31 288L366.84 288"/>
<path d="M243.51 292.39L246.18 293.78M246.18 293.78L248.13 294.26"/>
<path d="M248.13 294.26L258.75 294.26"/>
<path d="M240.8 288L243.51 292.39"/>
<path d="M269.96 301.78L258.75 301.78"/>
<path d="M258.75 301.78L258.75 294.26"/>
<path d="M332.22 291.31L332.31 291.29"/>
<path d="M332.31 291.29L335.37 289.96"/>
<path d="M332.15 301.78L269.96 301.78"/>
<path d="M332.15 294.26L332.38 294.26"/>
<path d="M332.38 294.26L343.36 294.26"/>
<path d="M343.36 294.26L348.96 288"/>
<path d="M335.66 289.75L340.75 288.13M340.75 288.13L342.11 288"/>
<path d="M366.84 284.24L366.84 288"/>
<path d="M235.27 284.24L366.84 284.24"/>
<path d="M235.27 284.24L235.27 288"/>
<path d="M195.81 248.53L197.74 260.72M197.74 260.72L203.34 271.73M203.34 271.73L212.08 280.46M212.08 280.46L223.08 286.06M223.08 286.06L235.27 288"/>
<path d="M236.93 294.27L243.52 292.39"/>
<path d="M235.27 294.26L235.27 288"/>
<path d="M236.93 294.26L235.27 294.26"/>
<path d="M353.98 294.26L355.93 293.78M355.93 293.78L358.6 292.39"/>
<path d="M358.6 292.39L361.31 288"/>
<path d="M343.36 294.26L353.98 294.26"/>
<path d="M358.59 292.39L365.18 294.27"/>
<path d="M366.84 294.26L365.18 294.26"/>
<path d="M366.84 294.26L366.84 288"/>
<path d="M366.84 288L379.03 286.06M379.03 286.06L390.04 280.46M390.04 280.46L398.77 271.73M398.77 271.73L404.37 260.72M404.37 260.72L406.3 248.53"/>
<path d="M248.13 301.78L236.93 301.78"/>
<path d="M248.13 301.78L248.13 294.26"/>
<path d="M258.75 301.78L248.13 301.78"/>
<path d="M253.15 308.04L257.11 306.21M257.11 306.21L258.75 301.78"/>
<path d="M269.96 308.04L253.15 308.04"/>
<path d="M332.15 308.04L269.96 308.04"/>
<path d="M343.36 301.78L332.15 301.78"/>
<path d="M343.36 301.78L343.36 294.26"/>
<path d="M402.55 248.53L406.3 248.53"/>
<path d="M366.84 284.24L377.87 282.49M377.87 282.49L387.83 277.42M387.83 277.42L395.73 269.52M395.73 269.52L400.8 259.56M400.8 259.56L402.55 248.53"/>
<path d="M282.26 149.04L234.65 149.04"/>
<path d="M234.65 149.04L232.88 149.78M232.88 149.78L232.14 151.55"/>
<path d="M232.14 151.55L232.14 157.83"/>
<path d="M232.14 157.83L221.88 160.29M221.88 160.29L212.79 165.65M212.79 165.65L205.67 173.44M205.67 173.44L201.12 182.96M201.12 182.96L199.56 193.4"/>
<path d="M199.56 193.4L199.56 216.45"/>
<path d="M192.05 223.97L195.81 222.96M195.81 222.96L198.56 220.21M198.56 220.21L199.56 216.45"/>
<path d="M192.05 223.97L176.26 223.97"/>
<path d="M176.26 234.24L192.05 234.24"/>
<path d="M199.56 241.76L198.56 238M198.56 238L195.81 235.25M195.81 235.25L192.05 234.24"/>
<path d="M199.56 241.76L199.56 248.53"/>
<path d="M199.56 248.53L201.31 259.56M201.31 259.56L206.38 269.52M206.38 269.52L214.28 277.42M214.28 277.42L224.24 282.49M224.24 282.49L235.27 284.24"/>
<path d="M402.55 248.53L402.55 241.76"/>
<path d="M410.06 234.24L406.3 235.25M406.3 235.25L403.55 238M403.55 238L402.55 241.76"/>
<path d="M410.06 234.24L425.85 234.24"/>
<path d="M425.85 223.97L410.06 223.97"/>
<path d="M402.55 216.45L403.55 220.21M403.55 220.21L406.3 222.96M406.3 222.96L410.06 223.97"/>
<path d="M402.55 216.45L402.55 193.4"/>
<path d="M402.55 193.4L400.99 182.96M400.99 182.96L396.45 173.44M396.45 173.44L389.32 165.65M389.32 165.65L380.23 160.29M380.23 160.29L369.97 157.83"/>
<path d="M369.97 157.83L369.97 151.55"/>
<path d="M369.97 151.55L369.23 149.78M369.23 149.78L367.46 149.04"/>
<path d="M367.46 149.04L319.85 149.04"/>
<path d="M243.42 185.88L237.19 187.12M237.19 187.12L231.9 190.65M231.9 190.65L228.37 195.93M228.37 195.93L227.13 202.17"/>
<path d="M243.42 185.88L358.69 185.88"/>
<path d="M374.98 202.17L373.74 195.93M373.74 195.93L370.21 190.65M370.21 190.65L364.93 187.12M364.93 187.12L358.69 185.88"/>
<path d="M374.98 202.17L374.98 239.76"/>
<path d="M358.69 256.05L364.93 254.81M364.93 254.81L370.21 251.27M370.21 251.27L373.74 245.99M373.74 245.99L374.98 239.76"/>
<path d="M358.69 256.05L243.42 256.05"/>
<path d="M227.13 239.76L228.37 245.99M228.37 245.99L231.9 251.27M231.9 251.27L237.19 254.81M237.19 254.81L243.42 256.05"/>
<path d="M227.13 239.76L227.13 202.17"/>
<path d="M199.56 248.53L195.81 248.53"/>
<path d="M195.81 241.76L195.81 248.53"/>
<path d="M189.54 248.53L195.81 248.53"/>
<path d="M189.54 248.53L191.1 260.36M191.1 260.36L195.67 271.39M195.67 271.39L202.94 280.87M202.94 280.87L212.41 288.13M212.41 288.13L223.44 292.7M223.44 292.7L235.27 294.26"/>
<path d="M228.38 130.25L230.22 134.68M230.22 134.68L234.65 136.51"/>
<path d="M228.38 130.25L228.38 100.05"/>
<path d="M234.65 93.79L230.22 95.62M230.22 95.62L228.38 100.05"/>
<path d="M234.65 93.79L367.46 93.79"/>
<path d="M373.73 100.05L371.89 95.62M371.89 95.62L367.46 93.79"/>
<path d="M373.73 100.05L373.73 130.25"/>
<path d="M367.46 136.51L371.89 134.68M371.89 134.68L373.73 130.25"/>
<path d="M367.46 136.51L332.38 136.51"/>
<path d="M332.38 136.51L332.38 145.28"/>
<path d="M332.38 145.28L367.46 145.28"/>
<path d="M373.73 151.55L372.89 148.42M372.89 148.42L370.59 146.12M370.59 146.12L367.46 145.28"/>
<path d="M412.57 193.4L410.68 180.38M410.68 180.38L405.16 168.44M405.16 168.44L396.47 158.56M396.47 158.56L385.32 151.57M385.32 151.57L372.65 148.03"/>
<path d="M412.57 193.4L412.57 213.95"/>
<path d="M412.57 213.95L425.85 213.95"/>
<path d="M435.87 223.97L434.53 218.96M434.53 218.96L430.86 215.29M430.86 215.29L425.85 213.95"/>
<path d="M435.87 223.97L435.87 234.24"/>
<path d="M425.85 244.27L430.86 242.92M430.86 242.92L434.53 239.26M434.53 239.26L435.87 234.24"/>
<path d="M425.85 244.27L412.57 244.27"/>
<path d="M412.57 244.27L412.57 248.53"/>
<path d="M366.84 294.26L378.67 292.7M378.67 292.7L389.7 288.13M389.7 288.13L399.17 280.87M399.17 280.87L406.44 271.39M406.44 271.39L411.01 260.36M411.01 260.36L412.57 248.53"/>
<path d="M365.18 294.26L365.18 301.78"/>
<path d="M365.18 301.78L370.59 301.78"/>
<path d="M370.59 301.78L383.68 300.02M383.68 300.02L395.83 294.86M395.83 294.86L406.18 286.68M406.18 286.68L414.01 276.05M414.01 276.05L418.75 263.73"/>
<path d="M432.21 246.47L426.11 250.85M426.11 250.85L421.5 256.76M421.5 256.76L418.75 263.73"/>
<path d="M432.21 246.47L436.14 243.41M436.14 243.41L438.73 239.15M438.73 239.15L439.63 234.24"/>
<path d="M439.63 234.24L439.63 223.97"/>
<path d="M439.63 223.97L437.84 217.17M437.84 217.17L432.91 212.13"/>
<path d="M420.09 189.67L421.66 198.5M421.66 198.5L426.11 206.29M426.11 206.29L432.91 212.13"/>
<path d="M420.09 189.64L418.38 176.76M418.38 176.76L413.38 164.77M413.38 164.77L405.44 154.49M405.44 154.49L395.09 146.63"/>
<path d="M388.76 135.75L390.46 142.04M390.46 142.04L395.09 146.63"/>
<path d="M388.76 135.75L388.76 91.28"/>
<path d="M388.76 91.28L386.93 86.85M386.93 86.85L382.5 85.02"/>
<path d="M382.5 85.02L219.61 85.02"/>
<path d="M219.61 85.02L215.18 86.85M215.18 86.85L213.35 91.28"/>
<path d="M213.35 91.28L213.35 135.75"/>
<path d="M207.02 146.63L211.65 142.04M211.65 142.04L213.35 135.75"/>
<path d="M207.02 146.63L196.68 154.48M196.68 154.48L188.74 164.74M188.74 164.74L183.74 176.71M183.74 176.71L182.02 189.57"/>
<path d="M169.2 212.13L176.02 206.27M176.02 206.27L180.47 198.44M180.47 198.44L182.02 189.57"/>
<path d="M169.2 212.13L164.27 217.17M164.27 217.17L162.48 223.97"/>
<path d="M162.48 223.97L162.48 234.24"/>
<path d="M162.48 234.24L163.38 239.15M163.38 239.15L165.97 243.41M165.97 243.41L169.9 246.47"/>
<path d="M183.37 263.73L180.61 256.76M180.61 256.76L176 250.85M176 250.85L169.9 246.47"/>
<path d="M183.37 263.73L188.1 276.05M188.1 276.05L195.93 286.68M195.93 286.68L206.28 294.86M206.28 294.86L218.43 300.02M218.43 300.02L231.52 301.78"/>
<path d="M231.52 301.78L236.93 301.78"/>
<path d="M189.54 248.53L189.54 244.27"/>
<path d="M189.54 244.27L176.26 244.27"/>
<path d="M166.24 234.24L167.58 239.26M167.58 239.26L171.25 242.92M171.25 242.92L176.26 244.27"/>
<path d="M166.24 234.24L166.24 223.97"/>
<path d="M176.26 213.95L171.25 215.29M171.25 215.29L167.58 218.96M167.58 218.96L166.24 223.97"/>
<path d="M176.26 213.95L189.54 213.95"/>
<path d="M189.54 213.95L189.54 193.4"/>
<path d="M229.46 148.03L216.79 151.57M216.79 151.57L205.64 158.56M205.64 158.56L196.95 168.44M196.95 168.44L191.43 180.38M191.43 180.38L189.54 193.4"/>
<path d="M234.65 145.28L231.52 146.12M231.52 146.12L229.22 148.42M229.22 148.42L228.38 151.55"/>
<path d="M234.65 145.28L269.73 145.28"/>
<path d="M269.73 145.28L269.73 136.51"/>
<path d="M269.73 136.51L234.65 136.51"/>
<path d="M365.18 301.78L353.98 301.78"/>
<path d="M353.98 294.26L353.98 301.78"/>
<path d="M353.98 301.78L343.36 301.78"/>
<path d="M412.57 248.53L406.3 248.53"/>
<path d="M406.3 248.53L406.3 241.76"/>
<path d="M242.53 308.04L246.49 306.21M246.49 306.21L248.13 301.78"/>
<path d="M236.93 308.04L236.93 301.78"/>
<path d="M236.93 308.04L242.53 308.04"/>
<path d="M253.15 308.04L242.53 308.04"/>
<path d="M370.59 308.04L365.18 308.04"/>
<path d="M359.58 308.04L365.18 308.04"/>
<path d="M359.58 308.04L348.96 308.04"/>
<path d="M348.96 308.04L332.15 308.04"/>
<path d="M236.93 308.04L231.52 308.04"/>
<path d="M343.36 301.78L344.11 304.91M344.11 304.91L346.16 307.2M346.16 307.2L348.96 308.04"/>
<path d="M402.55 241.76L406.3 241.76"/>
<path d="M282.26 149.04L282.26 145.28"/>
<path d="M234.65 149.04L234.65 145.28"/>
<path d="M228.38 154.54L230.09 156.03M230.09 156.03L232.14 157.83"/>
<path d="M199.56 193.4L195.81 193.4"/>
<path d="M199.56 216.45L195.81 216.45"/>
<path d="M192.05 223.97L192.05 220.21"/>
<path d="M176.26 223.97L176.26 220.21"/>
<path d="M176.26 234.24L172.5 234.24"/>
<path d="M176.26 223.97L172.5 223.97"/>
<path d="M192.05 234.24L192.05 238"/>
<path d="M176.26 234.24L175.76 237.97"/>
<path d="M199.56 241.76L195.81 241.76"/>
<path d="M410.06 234.24L410.06 238"/>
<path d="M425.85 234.24L425.85 238"/>
<path d="M425.85 223.97L429.61 223.97"/>
<path d="M425.85 234.24L429.61 234.24"/>
<path d="M410.06 223.97L410.06 220.21"/>
<path d="M425.85 223.97L426.35 220.24"/>
<path d="M402.55 216.45L406.3 216.45"/>
<path d="M402.55 193.4L406.3 193.4"/>
<path d="M369.97 157.83L371.54 156.39M371.54 156.39L373.73 154.54"/>
<path d="M367.46 145.28L367.46 149.04"/>
<path d="M243.42 188.39L243.42 185.88"/>
<path d="M227.13 202.17L229.64 202.17"/>
<path d="M358.69 185.88L358.69 188.39"/>
<path d="M374.98 202.17L372.47 202.17"/>
<path d="M374.98 239.76L372.47 239.76"/>
<path d="M358.69 256.05L358.69 253.54"/>
<path d="M243.42 256.05L243.42 253.54"/>
<path d="M227.13 239.76L229.64 239.76"/>
<path d="M195.81 241.76L194.7 239.1M194.7 239.1L192.05 238"/>
<path d="M194.67 239.14L189.54 244.27"/>
<path d="M319.85 136.51L332.38 136.51"/>
<path d="M319.85 136.51L319.85 145.28"/>
<path d="M332.38 145.28L319.85 145.28"/>
<path d="M412.57 193.4L406.3 193.4"/>
<path d="M373.73 151.55L373.73 154.54"/>
<path d="M406.3 193.4L404.78 182.53M404.78 182.53L400.32 172.5M400.32 172.5L393.26 164.08M393.26 164.08L384.17 157.94M384.17 157.94L373.73 154.54"/>
<path d="M407.44 219.08L412.57 213.95"/>
<path d="M406.3 216.45L406.3 193.4"/>
<path d="M406.3 216.45L407.41 219.11M407.41 219.11L410.06 220.21"/>
<path d="M426.35 220.21L410.06 220.21"/>
<path d="M426.34 220.24L425.85 213.95"/>
<path d="M429.61 223.97L428.68 221.49M428.68 221.49L426.34 220.24"/>
<path d="M429.61 223.97L435.87 223.97"/>
<path d="M429.61 234.24L429.61 223.97"/>
<path d="M429.61 234.24L435.87 234.24"/>
<path d="M425.85 238L428.51 236.9M428.51 236.9L429.61 234.24"/>
<path d="M425.85 238L425.85 244.27"/>
<path d="M410.06 238L425.85 238"/>
<path d="M410.06 238L407.41 239.1M407.41 239.1L406.3 241.76"/>
<path d="M412.57 244.27L407.44 239.14"/>
<path d="M370.59 308.04L370.59 301.78"/>
<path d="M365.18 308.04L365.18 301.78"/>
<path d="M424.84 265.18L418.75 263.73"/>
<path d="M370.59 308.04L385.33 306.06M385.33 306.06L399.02 300.25M399.02 300.25L410.69 291.04M410.69 291.04L419.5 279.06M419.5 279.06L424.84 265.18"/>
<path d="M435.1 252.03L432.21 246.47"/>
<path d="M435.1 252.03L428.54 257.49M428.54 257.49L424.84 265.18"/>
<path d="M445.9 234.24L439.63 234.24"/>
<path d="M435.1 252.03L440.82 247.58M440.82 247.58L444.59 241.38M444.59 241.38L445.9 234.24"/>
<path d="M445.9 223.97L439.63 223.97"/>
<path d="M445.9 223.97L445.9 234.24"/>
<path d="M436.13 206.76L432.91 212.13"/>
<path d="M445.9 223.97L444.72 217.2M444.72 217.2L441.33 211.23M441.33 211.23L436.13 206.76"/>
<path d="M426.35 189.64L420.09 189.64"/>
<path d="M426.35 189.64L427.55 196.37M427.55 196.37L430.94 202.3M430.94 202.3L436.13 206.76"/>
<path d="M426.35 189.64L424.43 175.13M424.43 175.13L418.8 161.62M418.8 161.62L409.85 150.04M409.85 150.04L398.19 141.19"/>
<path d="M395.03 135.75L388.76 135.75"/>
<path d="M395.03 135.75L395.88 138.89M395.88 138.89L398.19 141.19"/>
<path d="M395.03 91.28L388.76 91.28"/>
<path d="M395.03 91.28L395.03 135.75"/>
<path d="M382.5 78.75L382.5 85.02"/>
<path d="M395.03 91.28L393.35 85.02M393.35 85.02L388.76 80.43M388.76 80.43L382.5 78.75"/>
<path d="M219.61 78.75L219.61 85.02"/>
<path d="M219.61 78.75L382.5 78.75"/>
<path d="M207.08 91.28L213.35 91.28"/>
<path d="M219.61 78.75L213.35 80.43M213.35 80.43L208.76 85.02M208.76 85.02L207.08 91.28"/>
<path d="M207.08 135.75L213.35 135.75"/>
<path d="M207.08 135.75L207.08 91.28"/>
<path d="M203.92 141.19L206.23 138.89M206.23 138.89L207.08 135.75"/>
<path d="M175.76 189.57L182.02 189.57"/>
<path d="M203.92 141.19L192.27 150.03M192.27 150.03L183.33 161.59M183.33 161.59L177.69 175.08M177.69 175.08L175.76 189.57"/>
<path d="M165.99 206.76L169.2 212.13"/>
<path d="M165.99 206.76L171.19 202.28M171.19 202.28L174.58 196.32M174.58 196.32L175.76 189.57"/>
<path d="M156.21 223.97L162.48 223.97"/>
<path d="M165.99 206.76L160.78 211.23M160.78 211.23L157.39 217.2M157.39 217.2L156.21 223.97"/>
<path d="M156.21 234.24L162.48 234.24"/>
<path d="M156.21 234.24L156.21 223.97"/>
<path d="M167.01 252.03L169.9 246.47"/>
<path d="M156.21 234.24L157.52 241.38M157.52 241.38L161.29 247.58M161.29 247.58L167.01 252.03"/>
<path d="M177.27 265.18L183.37 263.73"/>
<path d="M177.27 265.18L173.57 257.49M173.57 257.49L167.01 252.03"/>
<path d="M231.52 308.04L231.52 301.78"/>
<path d="M177.27 265.18L182.61 279.06M182.61 279.06L191.42 291.04M191.42 291.04L203.09 300.25M203.09 300.25L216.78 306.06M216.78 306.06L231.52 308.04"/>
<path d="M175.76 237.99L176.26 244.27"/>
<path d="M175.76 237.99L192.05 238"/>
<path d="M166.24 234.24L172.5 234.24"/>
<path d="M172.5 234.24L173.43 236.72M173.43 236.72L175.76 237.97"/>
<path d="M166.24 223.97L172.5 223.97"/>
<path d="M172.5 223.97L172.5 234.24"/>
<path d="M176.26 213.95L176.26 220.21"/>
<path d="M176.26 220.21L173.6 221.31M173.6 221.31L172.5 223.97"/>
<path d="M194.67 219.08L189.54 213.95"/>
<path d="M192.05 220.21L176.26 220.21"/>
<path d="M192.05 220.21L194.7 219.11M194.7 219.11L195.81 216.45"/>
<path d="M195.81 193.4L195.81 216.45"/>
<path d="M195.81 193.4L189.54 193.4"/>
<path d="M228.38 154.54L217.94 157.94M217.94 157.94L208.85 164.08M208.85 164.08L201.8 172.5M201.8 172.5L197.33 182.53M197.33 182.53L195.81 193.4"/>
<path d="M228.38 154.54L228.38 151.55"/>
<path d="M282.26 145.28L269.73 145.28"/>
<path d="M282.26 145.28L282.26 136.51"/>
<path d="M269.73 136.51L282.26 136.51"/>
<path d="M353.98 301.78L355.62 306.21M355.62 306.21L359.58 308.04"/>
<path d="M369.78 309.61L366.74 310.3"/>
<path d="M370.59 308.04L369.78 309.61"/>
<path d="M232.33 309.61L231.52 308.04"/>
<path d="M235.37 310.3L232.33 309.61"/>
<path d="M243.42 188.39L236.53 190.23M236.53 190.23L231.48 195.28M231.48 195.28L229.64 202.17"/>
<path d="M243.42 188.39L358.69 188.39"/>
<path d="M372.47 202.17L370.63 195.28M370.63 195.28L365.58 190.23M365.58 190.23L358.69 188.39"/>
<path d="M372.47 202.17L372.47 239.76"/>
<path d="M358.69 253.54L365.58 251.69M365.58 251.69L370.63 246.65M370.63 246.65L372.47 239.76"/>
<path d="M358.69 253.54L243.42 253.54"/>
<path d="M229.64 239.76L231.48 246.65M231.48 246.65L236.53 251.69M236.53 251.69L243.42 253.54"/>
<path d="M229.64 239.76L229.64 202.17"/>
<path d="M228.38 127.79L230.22 132.21M230.22 132.21L234.65 134.05"/>
<path d="M234.65 134.05L234.65 136.51"/>
<path d="M234.65 108.82L230.95 107.69M230.95 107.69L229.56 106.32M229.56 106.32L228.45 103.49M228.45 103.49L228.38 102.56"/>
<path d="M234.65 108.82L234.65 133.41"/>
<path d="M373.73 102.56L373.06 105.45M373.06 105.45L371.13 107.71M371.13 107.71L367.46 108.82"/>
<path d="M367.46 133.41L367.46 108.82"/>
<path d="M367.46 134.05L370.59 133.21M370.59 133.21L372.89 130.92M372.89 130.92L373.73 127.79"/>
<path d="M367.46 136.51L367.46 134.05"/>
<path d="M319.85 134.56L319.85 136.51"/>
<path d="M282.26 136.51L282.26 134.56"/>
<path d="M282.26 134.56L319.85 134.56"/>
<path d="M367.46 134.05L234.65 134.05"/>
<path d="M319.85 151.55L319.85 147.79"/>
<path d="M319.85 147.79L319.85 145.28"/>
<path d="M282.26 147.79L282.26 151.55"/>
<path d="M282.26 145.28L282.26 147.79"/>
<path d="M366.74 310.3L361.91 313.31"/>
<path d="M361.91 313.31L363.8 314.61M363.8 314.61L365.22 314.61"/>
<path d="M365.22 314.61L375.03 308.5"/>
<path d="M372.4 309L373.89 308.59"/>
<path d="M372.4 309L369.78 309.61"/>
<path d="M376.92 307.71L373.89 308.6"/>
<path d="M377.56 307.61L375.03 308.5"/>
<path d="M232.33 309.61L229.71 309"/>
<path d="M227.08 308.5L224.89 307.66"/>
<path d="M228.22 308.59L229.71 309"/>
<path d="M228.22 308.6L225.29 307.73"/>
<path d="M227.08 308.5L236.89 314.61"/>
<path d="M236.89 314.61L238.31 314.61M238.31 314.61L240.2 313.31"/>
<path d="M240.2 313.31L235.37 310.3"/>
<path d="M361.91 313.31L240.2 313.31"/>
<path d="M234.65 133.41L234.65 134.05"/>
<path d="M234.65 108.82L367.46 108.82"/>
<path d="M367.46 134.05L367.46 133.41"/>
<path d="M282.26 147.79L319.85 147.79"/>
<path d="M319.85 151.55L282.26 151.55"/>
<path d="M395.03 109.45L396.47 109.45"/>
<path d="M407.56 109.45L396.47 109.45"/>
<path d="M396.47 124.48L395.03 124.48"/>
<path d="M396.47 124.48L407.56 124.48"/>
<path d="M207.08 124.48L205.64 124.48"/>
<path d="M194.55 124.48L205.64 124.48"/>
<path d="M205.64 109.45L207.08 109.45"/>
<path d="M205.64 109.45L194.55 109.45"/>
<path d="M361.91 315.56L361.91 313.31"/>
<path d="M240.2 315.56L240.2 313.31"/>
<path d="M240.2 315.56L361.91 315.56"/>
<path d="M367.46 199.66L365.63 195.23M365.63 195.23L361.2 193.4"/>
<path d="M240.91 193.4L361.2 193.4"/>
<path d="M240.91 193.4L236.48 195.23M236.48 195.23L234.65 199.66"/>
<path d="M234.65 242.26L234.65 199.66"/>
<path d="M234.65 242.26L236.48 246.69M236.48 246.69L240.91 248.53"/>
<path d="M361.2 248.53L240.91 248.53"/>
<path d="M361.2 248.53L365.63 246.69M365.63 246.69L367.46 242.26"/>
<path d="M367.46 199.66L367.46 242.26"/>
<path d="M407.56 124.48L407.56 109.45"/>
<path d="M194.55 109.45L194.55 124.48"/>
<path d="M376.92 307.71L377.56 307.61"/>
<path d="M224.55 307.61L225.28 307.73"/>
<path d="M363.63 315.32L365.22 314.61"/>
<path d="M363.63 315.32L363.44 315.37"/>
<path d="M361.91 315.56L363.44 315.37"/>
<path d="M238.48 315.32L240.2 315.56"/>
<path d="M238.48 315.32L238.3 315.27"/>
<path d="M236.89 314.62L238.3 315.27"/>
<path d="M252.22 225.58L252.22 246.92M252.22 246.92L276.02 246.92M276.02 246.92L276.02 225.58M276.02 225.58L252.22 225.58"/>
<path d="M258.46 232.07L258.46 241.75M258.46 241.75L268.63 241.75M268.63 241.75L268.63 232.07M268.63 232.07L258.46 232.07"/>
<path d="M272.82 225.58L272.82 213.6M272.82 213.6L254.19 213.6M254.19 213.6L254.19 225.58"/>
<path d="M268.63 232.07L276.02 225.58"/>
<path d="M258.46 232.07L252.22 225.58"/>
<path d="M258.46 241.75L252.22 246.92"/>
<path d="M268.63 241.75L276.02 246.92"/>
<path d="M289.69 225.58L289.69 246.92M289.69 246.92L313.49 246.92M313.49 246.92L313.49 225.58M313.49 225.58L289.69 225.58"/>
<path d="M295.93 232.07L295.93 241.75M295.93 241.75L306.1 241.75M306.1 241.75L306.1 232.07M306.1 232.07L295.93 232.07"/>
<path d="M310.29 225.58L310.29 213.6M310.29 213.6L291.66 213.6M291.66 213.6L291.66 225.58"/>
<path d="M306.1 232.07L313.49 225.58"/>
<path d="M295.93 232.07L289.69 225.58"/>
<path d="M295.93 241.75L289.69 246.92"/>
<path d="M306.1 241.75L313.49 246.92"/>
<path d="M326.56 225.58L326.56 246.92M326.56 246.92L350.36 246.92M350.36 246.92L350.36 225.58M350.36 225.58L326.56 225.58"/>
<path d="M332.79 232.07L332.79 241.75M332.79 241.75L342.97 241.75M342.97 241.75L342.97 232.07M342.97 232.07L332.79 232.07"/>
<path d="M347.16 225.58L347.16 213.6M347.16 213.6L328.53 213.6M328.53 213.6L328.53 225.58"/>
<path d="M342.97 232.07L350.36 225.58"/>
<path d="M332.79 232.07L326.56 225.58"/>
<path d="M332.79 241.75L326.56 246.92"/>
<path d="M342.97 241.75L350.36 246.92"/>
<path d="M241.65 212.62L241.65 240.73M241.65 240.73L248.31 240.73M248.31 240.73L248.31 212.62M248.31 212.62L241.65 212.62"/>
<path d="M248.31 240.73L252.22 240.73"/>
<path d="M241.65 236.34L252.22 236.34"/>
<path d="M276.02 236.34L289.69 236.34"/>
<path d="M313.49 236.34L326.56 236.34"/>
<path d="M350.36 236.34L360.72 236.34"/>
<path d="M241.65 233.01L248.31 233.01"/>
<path d="M241.65 228.42L248.31 228.42"/>
<path d="M354.05 212.62L354.05 240.73M354.05 240.73L360.72 240.73M360.72 240.73L360.72 212.62M360.72 212.62L354.05 212.62"/>
<path d="M354.05 233.01L360.72 233.01"/>
<path d="M354.05 228.42L360.72 228.42"/>
<path d="M276.02 240.73L289.69 240.73"/>
<path d="M313.49 240.73L326.56 240.73"/>
<path d="M350.36 240.73L354.05 240.73"/>
<path d="M277.78 212.62L277.78 232.88M277.78 232.88L286.48 232.88M286.48 232.88L286.48 212.62M286.48 212.62L277.78 212.62"/>
<path d="M315.86 212.62L315.86 232.88M315.86 232.88L324.56 232.88M324.56 232.88L324.56 212.62M324.56 212.62L315.86 212.62"/>
<path d="M121.13 220.35L123.25 219.29M123.25 219.29L126.43 216.1M126.43 216.1L126.43 238.38"/>
<path d="M466.14 216.11L477.81 216.11M477.81 216.11L471.45 224.59M471.45 224.59L474.63 224.59M474.63 224.59L476.75 225.65M476.75 225.65L477.81 226.71M477.81 226.71L478.87 229.89M478.87 229.89L478.87 232.02M478.87 232.02L477.81 235.2M477.81 235.2L475.69 237.32M475.69 237.32L472.51 238.38M472.51 238.38L469.32 238.38M469.32 238.38L466.14 237.32M466.14 237.32L465.08 236.26M465.08 236.26L464.02 234.14"/>
</g>
</g>
</svg>
