<?xml version="1.0" standalone="no"?><svg xmlns="http://www.w3.org/2000/svg" width="600.000" height="450.000" viewBox="0.0 0.0 600.000 450.000" version="1.1">
<title>Acme Converter - Post-processed with EDS-Designer: 14.44 (info@symca.com)</title>
<desc>Acme Converter - Post-processed with EDS-Designer: 14.44 (info@symca.com)</desc>
<g id="EDS_STYLE_GROUP" fill="none" stroke="black" stroke-width="1.0">
<g id="0" display="visible">
<path d="M201.54 421.14L201.54 380.27M203.49 380.27L203.49 421.14M195.71 380.27L219.06 380.27M219.06 380.27L224.9 382.21M224.9 382.21L226.85 384.16M226.85 384.16L228.79 388.05M228.79 388.05L228.79 391.94M228.79 391.94L226.85 395.84M226.85 395.84L224.9 397.78M224.9 397.78L219.06 399.73M219.06 380.27L222.96 382.21M222.96 382.21L224.9 384.16M224.9 384.16L226.85 388.05M226.85 388.05L226.85 391.94M226.85 391.94L224.9 395.84M224.9 395.84L222.96 397.78M222.96 397.78L219.06 399.73M203.49 399.73L219.06 399.73M219.06 399.73L224.9 401.68M224.9 401.68L226.85 403.62M226.85 403.62L228.79 407.52M228.79 407.52L228.79 413.36M228.79 413.36L226.85 417.25M226.85 417.25L224.9 419.19M224.9 419.19L219.06 421.14M219.06 421.14L195.71 421.14M219.06 399.73L222.96 401.68M222.96 401.68L224.9 403.62M224.9 403.62L226.85 407.52M226.85 407.52L226.85 413.36M226.85 413.36L224.9 417.25M224.9 417.25L222.96 419.19M222.96 419.19L219.06 421.14M244.37 421.14L244.37 380.27M246.31 380.27L246.31 421.14M238.53 380.27L252.15 380.27M238.53 421.14L267.72 421.14M267.72 421.14L267.72 409.46M267.72 409.46L265.78 421.14M291.08 380.27L277.46 421.14M291.08 380.27L304.71 421.14M291.08 386.11L302.76 421.14M281.35 409.46L298.87 409.46M273.56 421.14L285.24 421.14M296.92 421.14L308.6 421.14M341.69 386.11L343.63 391.94M343.63 391.94L343.63 380.27M343.63 380.27L341.69 386.11M341.69 386.11L337.79 382.21M337.79 382.21L331.96 380.27M331.96 380.27L328.06 380.27M328.06 380.27L322.22 382.21M322.22 382.21L318.33 386.11M318.33 386.11L316.38 390M316.38 390L314.44 395.84M314.44 395.84L314.44 405.57M314.44 405.57L316.38 411.41M316.38 411.41L318.33 415.3M318.33 415.3L322.22 419.19M322.22 419.19L328.06 421.14M328.06 421.14L331.96 421.14M331.96 421.14L337.79 419.19M337.79 419.19L341.69 415.3M341.69 415.3L343.63 411.41M328.06 380.27L324.17 382.21M324.17 382.21L320.28 386.11M320.28 386.11L318.33 390M318.33 390L316.38 395.84M316.38 395.84L316.38 405.57M316.38 405.57L318.33 411.41M318.33 411.41L320.28 415.3M320.28 415.3L324.17 419.19M324.17 419.19L328.06 421.14M361.15 421.14L361.15 380.27M363.1 380.27L363.1 421.14M388.4 380.27L363.1 405.57M372.83 397.78L388.4 421.14M370.88 397.78L386.46 421.14M355.31 380.27L368.94 380.27M380.62 380.27L392.29 380.27M355.31 421.14L368.94 421.14M380.62 421.14L392.29 421.14"/>
<path d="M1.77 217.65L4.89 216.09M4.89 216.09L9.56 211.42M9.56 211.42L9.56 244.12"/>
<path d="M205.63 133.38L191.1 133.38M185.28 133.38L184.31 133.38M178.5 133.38L155.25 133.38M149.44 133.38L148.47 133.38M142.65 133.38L128.12 133.38"/>
<path d="M500.01 242.21L500.01 244.19M500.01 244.99L500.01 245.12M500.01 245.92L500.01 249.1M500.01 249.89L500.01 250.03M500.01 250.82L500.01 252.81"/>
<path d="M80.24 219.87L75.6 219.87M73.75 219.87L73.44 219.87M71.59 219.87L64.17 219.87M62.31 219.87L62 219.87M60.15 219.87L55.51 219.87"/>
<path d="M530.42 218.53L530.42 221.55M530.42 222.76L530.42 222.96M530.42 224.17L530.42 229M530.42 230.2L530.42 230.4M530.42 231.61L530.42 234.63"/>
<path d="M55.52 233.28L60.16 233.28M62.01 233.28L62.32 233.28M64.17 233.28L71.59 233.28M73.44 233.28L73.75 233.28M75.61 233.28L80.24 233.28"/>
<path d="M102.71 298.52L240.86 298.52M289.91 298.52L298.09 298.52M347.14 298.52L485.29 298.52"/>
<path d="M87.99 176.97L87.99 183.74M87.99 186.45L87.99 186.9M87.99 189.61L87.99 200.44M87.99 203.15L87.99 203.6M87.99 206.31L87.99 213.08"/>
<path d="M57.58 218.53L57.58 221.55M57.58 222.76L57.58 222.96M57.58 224.17L57.58 229M57.58 230.2L57.58 230.4M57.58 231.61L57.58 234.63"/>
<path d="M123.96 186.52L123.96 197.56M123.96 201.97L123.96 202.71M123.96 207.12L123.96 224.78M123.96 229.2L123.96 229.94M123.96 234.35L123.96 245.39"/>
<path d="M464.04 186.52L464.04 197.56M464.04 201.97L464.04 202.71M464.04 207.12L464.04 224.78M464.04 229.2L464.04 229.94M464.04 234.35L464.04 245.39"/>
<path d="M210.32 307.02L210.32 309.96M210.32 311.14L210.32 311.34M210.32 312.51L210.32 317.23M210.32 318.4L210.32 318.6M210.32 319.78L210.32 322.72"/>
<path d="M245.3 321.41L263.56 321.41M270.87 321.41L272.09 321.41M279.39 321.41L308.61 321.41M315.91 321.41L317.13 321.41M324.44 321.41L342.7 321.41"/>
<path d="M39.59 234.62L39.59 231.6M39.59 230.4L39.59 230.2M39.59 228.99L39.59 224.16M39.59 222.96L39.59 222.76M39.59 221.55L39.59 218.53"/>
<path d="M74.48 136.98L98.88 116.7M108.64 108.6L110.26 107.24M120.02 99.14L159.06 66.7M168.82 58.59L170.45 57.24M180.21 49.13L204.61 28.86"/>
<path d="M411.72 38.55L367.57 38.55M349.92 38.55L346.97 38.55M329.31 38.55L258.68 38.55M241.02 38.55L238.08 38.55M220.42 38.55L176.27 38.55"/>
<path d="M513.52 136.98L489.12 116.7M479.36 108.6L477.74 107.24M467.98 99.14L428.94 66.7M419.18 58.59L417.55 57.24M407.79 49.13L383.39 28.86"/>
<path d="M548.41 234.62L548.41 231.6M548.41 230.4L548.41 230.2M548.41 228.99L548.41 224.16M548.41 222.96L548.41 222.76M548.41 221.55L548.41 218.53"/>
<path d="M377.68 307.02L377.68 309.96M377.68 311.14L377.68 311.34M377.68 312.51L377.68 317.23M377.68 318.4L377.68 318.6M377.68 319.78L377.68 322.72"/>
<path d="M329.32 120.47L316.07 120.47M310.77 120.47L309.89 120.47M304.59 120.47L283.4 120.47M278.11 120.47L277.22 120.47M271.93 120.47L258.68 120.47"/>
<path d="M334.58 331.72L334.58 326.93M334.58 325.02L334.58 324.7M334.58 322.79L334.58 315.13M334.58 313.22L334.58 312.9M334.58 310.98L334.58 306.2"/>
<path d="M253.42 331.72L253.42 326.93M253.42 325.02L253.42 324.7M253.42 322.79L253.42 315.13M253.42 313.22L253.42 312.9M253.42 310.98L253.42 306.2"/>
<path d="M382.37 133.38L396.9 133.38M402.71 133.38L403.68 133.38M409.5 133.38L432.75 133.38M438.56 133.38L439.53 133.38M445.34 133.38L459.87 133.38"/>
<path d="M500.01 176.97L500.01 183.74M500.01 186.45L500.01 186.9M500.01 189.61L500.01 200.44M500.01 203.15L500.01 203.6M500.01 206.31L500.01 213.08"/>
<path d="M507.76 219.87L512.39 219.87M514.25 219.87L514.56 219.87M516.41 219.87L523.83 219.87M525.68 219.87L525.99 219.87M527.84 219.87L532.48 219.87"/>
<path d="M532.48 233.28L527.84 233.28M525.99 233.28L525.68 233.28M523.83 233.28L516.41 233.28M514.55 233.28L514.24 233.28M512.39 233.28L507.75 233.28"/>
<path d="M87.99 242.21L87.99 244.19M87.99 244.99L87.99 245.12M87.99 245.92L87.99 249.1M87.99 249.89L87.99 250.03M87.99 250.82L87.99 252.81"/>
<path d="M218.56 321.41L200.02 321.41M192.6 321.41L191.36 321.41M183.94 321.41L154.27 321.41M146.85 321.41L145.61 321.41M138.2 321.41L119.65 321.41"/>
<path d="M369.44 321.41L387.98 321.41M395.4 321.41L396.64 321.41M404.05 321.41L433.72 321.41M441.14 321.41L442.38 321.41M449.8 321.41L468.34 321.41"/>
<path d="M388.83 133.38L453.41 133.38"/>
<path d="M500.01 179.98L498.42 167.92M498.42 167.92L493.77 156.68M493.77 156.68L486.36 147.03M486.36 147.03L476.71 139.63M476.71 139.63L465.47 134.97M465.47 134.97L453.41 133.38"/>
<path d="M500.01 179.98L500.01 210.06"/>
<path d="M500.01 210.06L501.32 214.97M501.32 214.97L504.91 218.56M504.91 218.56L509.82 219.87"/>
<path d="M509.82 219.87L530.42 219.87"/>
<path d="M530.42 219.87L530.42 233.28"/>
<path d="M530.42 233.28L509.82 233.28"/>
<path d="M509.82 233.28L504.91 234.59M504.91 234.59L501.32 238.19M501.32 238.19L500.01 243.09"/>
<path d="M500.01 243.09L500.01 251.92"/>
<path d="M453.41 298.52L465.47 296.93M465.47 296.93L476.71 292.27M476.71 292.27L486.36 284.87M486.36 284.87L493.77 275.22M493.77 275.22L498.42 263.98M498.42 263.98L500.01 251.92"/>
<path d="M453.41 298.52L134.59 298.52"/>
<path d="M87.99 251.92L89.58 263.98M89.58 263.98L94.23 275.22M94.23 275.22L101.64 284.87M101.64 284.87L111.29 292.27M111.29 292.27L122.53 296.93M122.53 296.93L134.59 298.52"/>
<path d="M87.99 251.92L87.99 243.09"/>
<path d="M87.99 243.09L86.68 238.19M86.68 238.19L83.09 234.59M83.09 234.59L78.18 233.28"/>
<path d="M78.18 233.28L57.58 233.28"/>
<path d="M57.58 233.28L57.58 219.87"/>
<path d="M57.58 219.87L78.18 219.87"/>
<path d="M78.18 219.87L83.09 218.56M83.09 218.56L86.68 214.97M86.68 214.97L87.99 210.06"/>
<path d="M87.99 210.06L87.99 179.98"/>
<path d="M134.59 133.38L122.53 134.97M122.53 134.97L111.29 139.63M111.29 139.63L101.64 147.03M101.64 147.03L94.23 156.68M94.23 156.68L89.58 167.92M89.58 167.92L87.99 179.98"/>
<path d="M134.59 133.38L199.17 133.38"/>
<path d="M145.22 170.17L137.08 171.79M137.08 171.79L130.19 176.39M130.19 176.39L125.58 183.29M125.58 183.29L123.96 191.42"/>
<path d="M123.96 191.42L123.96 240.47"/>
<path d="M123.96 240.47L125.58 248.61M125.58 248.61L130.19 255.5M130.19 255.5L137.08 260.11M137.08 260.11L145.22 261.73"/>
<path d="M145.22 261.73L442.78 261.73"/>
<path d="M442.78 261.73L450.92 260.11M450.92 260.11L457.81 255.5M457.81 255.5L462.42 248.61M462.42 248.61L464.04 240.47"/>
<path d="M464.04 240.47L464.04 191.42"/>
<path d="M464.04 191.42L462.42 183.29M462.42 183.29L457.81 176.39M457.81 176.39L450.92 171.79M450.92 171.79L442.78 170.17"/>
<path d="M442.78 170.17L145.22 170.17"/>
<path d="M412.1 123.57L388.63 123.57"/>
<path d="M388.83 123.57L388.83 125.9"/>
<path d="M388.83 125.9L388.83 126.15"/>
<path d="M388.83 128.48L388.83 126.15"/>
<path d="M388.83 128.48L388.83 133.38"/>
<path d="M453.41 128.48L453.41 133.38"/>
<path d="M500.01 179.98L504.91 179.98"/>
<path d="M504.91 210.06L500.01 210.06"/>
<path d="M509.82 219.87L509.82 214.97"/>
<path d="M530.42 214.97L530.42 219.87"/>
<path d="M530.42 219.87L535.33 219.87"/>
<path d="M535.33 233.28L530.42 233.28"/>
<path d="M509.82 238.19L509.82 233.28"/>
<path d="M530.42 233.28L530.42 238.19"/>
<path d="M500.01 243.09L504.91 243.09"/>
<path d="M504.91 251.92L500.01 251.92"/>
<path d="M453.41 298.52L453.41 303.42"/>
<path d="M134.59 303.42L134.59 298.52"/>
<path d="M87.99 251.92L83.09 251.92"/>
<path d="M83.09 243.09L87.99 243.09"/>
<path d="M78.18 233.28L78.18 238.19"/>
<path d="M57.58 238.19L57.58 233.28"/>
<path d="M57.58 233.28L52.67 233.28"/>
<path d="M52.67 219.87L57.58 219.87"/>
<path d="M78.18 214.97L78.18 219.87"/>
<path d="M57.58 219.87L57.58 214.97"/>
<path d="M87.99 210.06L83.09 210.06"/>
<path d="M83.09 179.98L87.99 179.98"/>
<path d="M134.59 133.38L134.59 128.48"/>
<path d="M199.17 133.38L199.17 128.48"/>
<path d="M199.17 126.15L199.17 128.48"/>
<path d="M199.17 126.15L199.17 125.9"/>
<path d="M199.17 125.9L199.17 123.57"/>
<path d="M199.37 123.57L175.9 123.57"/>
<path d="M207.35 117.2L202.24 118.99M202.24 118.99L199.37 123.57"/>
<path d="M207.35 117.2L380.65 117.2"/>
<path d="M388.63 123.57L385.76 118.99M385.76 118.99L380.65 117.2"/>
<path d="M123.96 191.42L127.23 191.42"/>
<path d="M145.22 173.44L145.22 170.17"/>
<path d="M127.23 240.47L123.96 240.47"/>
<path d="M145.22 261.73L145.22 258.46"/>
<path d="M442.78 258.46L442.78 261.73"/>
<path d="M464.04 240.47L460.77 240.47"/>
<path d="M460.77 191.42L464.04 191.42"/>
<path d="M442.78 170.17L442.78 173.44"/>
<path d="M420.51 125.9L416.46 124.17M416.46 124.17L412.1 123.57"/>
<path d="M453.41 120.3L387.07 120.3"/>
<path d="M453.41 120.3L453.41 128.48"/>
<path d="M453.41 128.48L429.33 128.48"/>
<path d="M420.92 126.15L424.96 127.88M424.96 127.88L429.33 128.48"/>
<path d="M420.92 126.15L420.51 125.9"/>
<path d="M420.51 125.9L388.83 125.9"/>
<path d="M388.83 126.15L420.92 126.15"/>
<path d="M429.33 128.48L388.83 128.48"/>
<path d="M504.91 179.98L503.16 166.65M503.16 166.65L498.01 154.23M498.01 154.23L489.83 143.56M489.83 143.56L479.16 135.38M479.16 135.38L466.74 130.23M466.74 130.23L453.41 128.48"/>
<path d="M504.91 210.06L504.91 179.98"/>
<path d="M504.91 210.06L506.35 213.53M506.35 213.53L509.82 214.97"/>
<path d="M530.42 214.97L509.82 214.97"/>
<path d="M535.33 233.28L535.33 219.87"/>
<path d="M509.82 238.19L530.42 238.19"/>
<path d="M509.82 238.19L506.35 239.62M506.35 239.62L504.91 243.09"/>
<path d="M504.91 251.92L504.91 243.09"/>
<path d="M453.41 303.42L466.74 301.67M466.74 301.67L479.16 296.52M479.16 296.52L489.83 288.34M489.83 288.34L498.01 277.67M498.01 277.67L503.16 265.25M503.16 265.25L504.91 251.92"/>
<path d="M134.59 303.42L158.67 303.42"/>
<path d="M158.67 303.42L429.33 303.42"/>
<path d="M429.33 303.42L453.41 303.42"/>
<path d="M83.09 251.92L84.84 265.25M84.84 265.25L89.99 277.67M89.99 277.67L98.17 288.34M98.17 288.34L108.84 296.52M108.84 296.52L121.26 301.67M121.26 301.67L134.59 303.42"/>
<path d="M83.09 243.09L83.09 251.92"/>
<path d="M83.09 243.09L82.43 240.64M82.43 240.64L80.63 238.84M80.63 238.84L78.18 238.19"/>
<path d="M57.58 238.19L78.18 238.19"/>
<path d="M52.67 219.87L52.67 233.28"/>
<path d="M78.18 214.97L57.58 214.97"/>
<path d="M78.18 214.97L81.65 213.53M81.65 213.53L83.09 210.06"/>
<path d="M83.09 179.98L83.09 210.06"/>
<path d="M134.59 128.48L121.26 130.23M121.26 130.23L108.84 135.38M108.84 135.38L98.17 143.56M98.17 143.56L89.99 154.23M89.99 154.23L84.84 166.65M84.84 166.65L83.09 179.98"/>
<path d="M199.17 128.48L158.67 128.48"/>
<path d="M158.67 128.48L134.59 128.48"/>
<path d="M167.08 126.15L199.17 126.15"/>
<path d="M199.17 125.9L167.49 125.9"/>
<path d="M175.9 123.57L171.54 124.17M171.54 124.17L167.49 125.9"/>
<path d="M134.59 128.48L134.59 120.3"/>
<path d="M200.93 120.3L134.59 120.3"/>
<path d="M167.49 125.9L167.08 126.15"/>
<path d="M158.67 128.48L163.04 127.88M163.04 127.88L167.08 126.15"/>
<path d="M134.59 120.3L121.31 121.8M121.31 121.8L108.7 126.21M108.7 126.21L97.38 133.32M97.38 133.32L87.93 142.77M87.93 142.77L80.82 154.09M80.82 154.09L76.41 166.7M76.41 166.7L74.91 179.98"/>
<path d="M74.91 179.98L74.91 206.79"/>
<path d="M74.91 206.79L57.58 206.79"/>
<path d="M57.58 206.79L51.04 208.55M51.04 208.55L46.25 213.33M46.25 213.33L44.5 219.87"/>
<path d="M44.5 219.87L44.5 233.28"/>
<path d="M44.5 233.28L46.25 239.82M46.25 239.82L51.04 244.61M51.04 244.61L57.58 246.36"/>
<path d="M57.58 246.36L74.91 246.36"/>
<path d="M74.91 246.36L74.91 251.92"/>
<path d="M74.91 251.92L76.41 265.2M76.41 265.2L80.82 277.81M80.82 277.81L87.93 289.13M87.93 289.13L97.38 298.58M97.38 298.58L108.7 305.69M108.7 305.69L121.31 310.1M121.31 310.1L134.59 311.6"/>
<path d="M134.59 311.6L210.32 311.6"/>
<path d="M210.32 311.6L210.32 321.41"/>
<path d="M210.32 321.41L127.9 321.41"/>
<path d="M64.9 271.03L69.65 284.72M69.65 284.72L77.34 297M77.34 297L87.57 307.26M87.57 307.26L99.83 314.99M99.83 314.99L113.5 319.78M113.5 319.78L127.9 321.41"/>
<path d="M64.9 271.03L61.59 262.22M61.59 262.22L56.01 254.64M56.01 254.64L48.58 248.85"/>
<path d="M39.59 233.28L40.68 239.43M40.68 239.43L43.8 244.84M43.8 244.84L48.58 248.85"/>
<path d="M39.59 233.28L39.59 219.87"/>
<path d="M48.36 204.43L43.69 208.45M43.69 208.45L40.65 213.8M40.65 213.8L39.59 219.87"/>
<path d="M48.36 204.43L55.3 198.97M55.3 198.97L60.61 191.92M60.61 191.92L63.95 183.75M63.95 183.75L65.1 174.99"/>
<path d="M88.41 125.4L78.6 135.56M78.6 135.56L71.24 147.6M71.24 147.6L66.66 160.96M66.66 160.96L65.1 174.99"/>
<path d="M88.41 125.4L159.04 66.72"/>
<path d="M159.04 66.72L159.99 65.94"/>
<path d="M159.99 65.94L190.68 40.44"/>
<path d="M195.9 38.55L190.68 40.44"/>
<path d="M195.9 38.55L392.1 38.55"/>
<path d="M397.32 40.44L392.1 38.55"/>
<path d="M397.32 40.44L428.01 65.94"/>
<path d="M428.01 65.94L428.96 66.72"/>
<path d="M428.96 66.72L499.59 125.4"/>
<path d="M522.9 174.99L521.34 160.96M521.34 160.96L516.76 147.6M516.76 147.6L509.4 135.56M509.4 135.56L499.59 125.4"/>
<path d="M522.9 174.99L524.05 183.75M524.05 183.75L527.39 191.92M527.39 191.92L532.7 198.97M532.7 198.97L539.64 204.43"/>
<path d="M548.41 219.87L547.35 213.8M547.35 213.8L544.31 208.45M544.31 208.45L539.64 204.43"/>
<path d="M548.41 219.87L548.41 233.28"/>
<path d="M539.42 248.85L544.2 244.84M544.2 244.84L547.32 239.43M547.32 239.43L548.41 233.28"/>
<path d="M539.42 248.85L531.99 254.64M531.99 254.64L526.41 262.22M526.41 262.22L523.1 271.03"/>
<path d="M460.1 321.41L474.5 319.78M474.5 319.78L488.17 314.99M488.17 314.99L500.43 307.26M500.43 307.26L510.66 297M510.66 297L518.35 284.72M518.35 284.72L523.1 271.03"/>
<path d="M460.1 321.41L377.68 321.41"/>
<path d="M377.68 321.41L377.68 311.6"/>
<path d="M377.68 311.6L453.41 311.6"/>
<path d="M453.41 311.6L466.69 310.1M466.69 310.1L479.3 305.69M479.3 305.69L490.62 298.58M490.62 298.58L500.07 289.13M500.07 289.13L507.18 277.81M507.18 277.81L511.59 265.2M511.59 265.2L513.09 251.92"/>
<path d="M513.09 251.92L513.09 246.36"/>
<path d="M513.09 246.36L530.42 246.36"/>
<path d="M530.42 246.36L536.96 244.61M536.96 244.61L541.75 239.82M541.75 239.82L543.5 233.28"/>
<path d="M543.5 233.28L543.5 219.87"/>
<path d="M543.5 219.87L541.75 213.33M541.75 213.33L536.96 208.55M536.96 208.55L530.42 206.79"/>
<path d="M530.42 206.79L513.09 206.79"/>
<path d="M513.09 206.79L513.09 179.98"/>
<path d="M513.09 179.98L511.59 166.7M511.59 166.7L507.18 154.09M507.18 154.09L500.07 142.77M500.07 142.77L490.62 133.32M490.62 133.32L479.3 126.21M479.3 126.21L466.69 121.8M466.69 121.8L453.41 120.3"/>
<path d="M323.43 117.2L319.96 118.63M319.96 118.63L318.52 122.1"/>
<path d="M318.81 120.47L269.19 120.47"/>
<path d="M269.48 122.1L268.82 119.65M268.82 119.65L267.02 117.85M267.02 117.85L264.57 117.2"/>
<path d="M145.22 173.44L138.33 174.81M138.33 174.81L132.5 178.71M132.5 178.71L128.6 184.54M128.6 184.54L127.23 191.42"/>
<path d="M127.23 240.47L127.23 191.42"/>
<path d="M127.23 240.47L128.6 247.36M128.6 247.36L132.5 253.19M132.5 253.19L138.33 257.09M138.33 257.09L145.22 258.46"/>
<path d="M442.78 258.46L145.22 258.46"/>
<path d="M442.78 258.46L449.67 257.09M449.67 257.09L455.5 253.19M455.5 253.19L459.4 247.36M459.4 247.36L460.77 240.47"/>
<path d="M460.77 191.42L460.77 240.47"/>
<path d="M460.77 191.42L459.4 184.54M459.4 184.54L455.5 178.71M455.5 178.71L449.67 174.81M449.67 174.81L442.78 173.44"/>
<path d="M145.22 173.44L442.78 173.44"/>
<path d="M504.91 179.98L513.09 179.98"/>
<path d="M513.09 206.79L506.35 213.53"/>
<path d="M530.42 206.79L530.42 214.97"/>
<path d="M535.33 219.87L533.89 216.4M533.89 216.4L530.42 214.97"/>
<path d="M530.42 238.19L532.87 237.53M532.87 237.53L534.67 235.73M534.67 235.73L535.33 233.28"/>
<path d="M543.5 233.28L535.33 233.28"/>
<path d="M535.33 219.87L543.5 219.87"/>
<path d="M530.42 238.19L530.42 246.36"/>
<path d="M513.09 246.36L506.35 239.62"/>
<path d="M513.09 251.92L504.91 251.92"/>
<path d="M453.41 303.42L453.41 311.6"/>
<path d="M167.49 306L171.54 307.73M171.54 307.73L175.9 308.33"/>
<path d="M175.9 308.33L210.32 308.33"/>
<path d="M210.32 308.33L210.32 311.6"/>
<path d="M134.59 311.6L134.59 303.42"/>
<path d="M167.08 305.75L163.04 304.01M163.04 304.01L158.67 303.42"/>
<path d="M167.08 305.75L167.49 306"/>
<path d="M420.92 305.75L167.08 305.75"/>
<path d="M429.33 303.42L424.96 304.01M424.96 304.01L420.92 305.75"/>
<path d="M377.68 311.6L377.68 308.33"/>
<path d="M412.1 308.33L377.68 308.33"/>
<path d="M412.1 308.33L416.46 307.73M416.46 307.73L420.51 306"/>
<path d="M420.51 306L420.92 305.75"/>
<path d="M83.09 251.92L74.91 251.92"/>
<path d="M81.65 239.62L74.91 246.36"/>
<path d="M57.58 246.36L57.58 238.19"/>
<path d="M52.67 233.28L54.11 236.75M54.11 236.75L57.58 238.19"/>
<path d="M57.58 214.97L55.13 215.63M55.13 215.63L53.33 217.42M53.33 217.42L52.67 219.87"/>
<path d="M52.67 233.28L44.5 233.28"/>
<path d="M44.5 219.87L52.67 219.87"/>
<path d="M57.58 214.97L57.58 206.79"/>
<path d="M81.65 213.53L74.91 206.79"/>
<path d="M74.91 179.98L83.09 179.98"/>
<path d="M224.94 321.41L210.32 321.41"/>
<path d="M224.94 311.6L224.94 321.41"/>
<path d="M210.32 311.6L224.94 311.6"/>
<path d="M210.32 329.58L210.32 321.41"/>
<path d="M127.9 329.58L127.9 321.41"/>
<path d="M127.9 329.58L210.32 329.58"/>
<path d="M56.93 272.83L62.28 288.25M62.28 288.25L70.94 302.09M70.94 302.09L82.46 313.65M82.46 313.65L96.28 322.35M96.28 322.35L111.68 327.75M111.68 327.75L127.9 329.58"/>
<path d="M64.9 271.03L56.93 272.83"/>
<path d="M56.93 272.83L54.4 266.11M54.4 266.11L50.15 260.34M50.15 260.34L44.49 255.93"/>
<path d="M48.58 248.85L44.49 255.93"/>
<path d="M31.42 233.28L33 242.23M33 242.23L37.54 250.09M37.54 250.09L44.49 255.93"/>
<path d="M39.59 233.28L31.42 233.28"/>
<path d="M31.42 219.87L39.59 219.87"/>
<path d="M31.42 219.87L31.42 233.28"/>
<path d="M44.17 197.41L37.38 203.25M37.38 203.25L32.95 211.04M32.95 211.04L31.42 219.87"/>
<path d="M48.36 204.43L44.17 197.41"/>
<path d="M44.17 197.41L50.96 191.58M50.96 191.58L55.38 183.8M55.38 183.8L56.93 174.98"/>
<path d="M65.1 174.99L56.93 174.98"/>
<path d="M83.19 119.11L72.14 130.55M72.14 130.55L63.84 144.12M63.84 144.12L58.69 159.17M58.69 159.17L56.93 174.98"/>
<path d="M88.41 125.4L83.19 119.11"/>
<path d="M185.45 34.15L190.68 40.44"/>
<path d="M83.19 119.11L185.45 34.15"/>
<path d="M195.9 30.38L195.9 38.55"/>
<path d="M195.9 30.38L190.35 31.35M190.35 31.35L185.45 34.15"/>
<path d="M392.1 30.38L392.1 38.55"/>
<path d="M195.9 30.38L392.1 30.38"/>
<path d="M397.32 40.44L402.55 34.15"/>
<path d="M402.55 34.15L397.65 31.35M397.65 31.35L392.1 30.38"/>
<path d="M504.81 119.11L499.59 125.4"/>
<path d="M402.55 34.15L504.81 119.11"/>
<path d="M531.07 174.98L529.31 159.17M529.31 159.17L524.16 144.12M524.16 144.12L515.86 130.55M515.86 130.55L504.81 119.11"/>
<path d="M531.07 174.98L522.9 174.99"/>
<path d="M531.07 174.98L532.62 183.8M532.62 183.8L537.04 191.58M537.04 191.58L543.83 197.41"/>
<path d="M543.83 197.41L539.64 204.43"/>
<path d="M556.58 219.87L555.05 211.04M555.05 211.04L550.62 203.25M550.62 203.25L543.83 197.41"/>
<path d="M548.41 219.87L556.58 219.87"/>
<path d="M556.58 233.28L548.41 233.28"/>
<path d="M556.58 233.28L556.58 219.87"/>
<path d="M543.51 255.93L550.46 250.09M550.46 250.09L555 242.23M555 242.23L556.58 233.28"/>
<path d="M543.51 255.93L539.42 248.85"/>
<path d="M543.51 255.93L537.85 260.34M537.85 260.34L533.6 266.11M533.6 266.11L531.07 272.83"/>
<path d="M531.07 272.83L523.1 271.03"/>
<path d="M460.1 329.58L476.32 327.75M476.32 327.75L491.72 322.35M491.72 322.35L505.54 313.65M505.54 313.65L517.06 302.09M517.06 302.09L525.72 288.25M525.72 288.25L531.07 272.83"/>
<path d="M460.1 321.41L460.1 329.58"/>
<path d="M377.68 321.41L377.68 329.58"/>
<path d="M377.68 329.58L460.1 329.58"/>
<path d="M363.06 321.41L363.06 311.6"/>
<path d="M377.68 321.41L363.06 321.41"/>
<path d="M363.06 311.6L377.68 311.6"/>
<path d="M269.48 125.37L318.52 125.37"/>
<path d="M318.52 122.1L318.52 125.37"/>
<path d="M269.48 125.37L269.48 122.1"/>
<path d="M421.86 231.15L421.86 241.62"/>
<path d="M421.86 241.62L411.39 241.62"/>
<path d="M411.39 241.62L411.39 231.15"/>
<path d="M411.39 231.15L421.86 231.15"/>
<path d="M372.81 231.15L372.81 241.62"/>
<path d="M372.81 241.62L362.34 241.62"/>
<path d="M362.34 241.62L362.34 231.15"/>
<path d="M362.34 231.15L372.81 231.15"/>
<path d="M323.76 231.15L323.76 241.62"/>
<path d="M323.76 241.62L313.29 241.62"/>
<path d="M313.29 241.62L313.29 231.15"/>
<path d="M313.29 231.15L323.76 231.15"/>
<path d="M274.71 231.15L274.71 241.62"/>
<path d="M274.71 241.62L264.24 241.62"/>
<path d="M264.24 241.62L264.24 231.15"/>
<path d="M264.24 231.15L274.71 231.15"/>
<path d="M225.66 241.62L215.19 241.62"/>
<path d="M215.19 241.62L215.19 231.15"/>
<path d="M215.19 231.15L225.66 231.15"/>
<path d="M225.66 231.15L225.66 241.62"/>
<path d="M176.61 231.15L176.61 241.62"/>
<path d="M176.61 241.62L166.14 241.62"/>
<path d="M166.14 241.62L166.14 231.15"/>
<path d="M166.14 231.15L176.61 231.15"/>
<path d="M365.98 308.33L377.68 308.33"/>
<path d="M365.98 308.33L352.13 308.33"/>
<path d="M352.13 308.33L334.58 308.33"/>
<path d="M253.42 308.33L334.58 308.33"/>
<path d="M253.42 308.33L235.87 308.33"/>
<path d="M222.02 308.33L235.87 308.33"/>
<path d="M222.02 308.33L210.32 308.33"/>
<path d="M222.02 308.33L224.94 311.6"/>
<path d="M167.49 306L420.51 306"/>
<path d="M363.06 311.6L365.98 308.33"/>
<path d="M217.63 329.58L221.29 328.49M221.29 328.49L223.96 325.49M223.96 325.49L224.94 321.41"/>
<path d="M217.63 329.58L210.32 329.58"/>
<path d="M224.94 321.41L238.8 321.41"/>
<path d="M238.8 321.41L238.8 311.6"/>
<path d="M238.8 311.6L224.94 311.6"/>
<path d="M217.63 329.58L231.48 329.58"/>
<path d="M231.48 329.58L253.42 329.58"/>
<path d="M253.42 329.58L334.58 329.58"/>
<path d="M334.58 329.58L356.52 329.58"/>
<path d="M356.52 329.58L370.37 329.58"/>
<path d="M377.68 329.58L370.37 329.58"/>
<path d="M363.06 321.41L364.04 325.49M364.04 325.49L366.71 328.49M366.71 328.49L370.37 329.58"/>
<path d="M349.2 311.6L349.2 321.41"/>
<path d="M349.2 321.41L363.06 321.41"/>
<path d="M363.06 311.6L349.2 311.6"/>
<path d="M349.2 311.6L352.13 308.33"/>
<path d="M334.58 308.33L334.58 311.6"/>
<path d="M334.58 311.6L349.2 311.6"/>
<path d="M334.58 311.6L253.42 311.6"/>
<path d="M253.42 311.6L253.42 308.33"/>
<path d="M235.87 308.33L238.8 311.6"/>
<path d="M238.8 311.6L253.42 311.6"/>
<path d="M231.48 329.58L235.14 328.49M235.14 328.49L237.82 325.49M237.82 325.49L238.8 321.41"/>
<path d="M253.42 311.6L253.42 321.41"/>
<path d="M253.42 321.41L238.8 321.41"/>
<path d="M253.42 329.58L253.42 321.41"/>
<path d="M334.58 321.41L334.58 329.58"/>
<path d="M253.42 321.41L334.58 321.41"/>
<path d="M349.2 321.41L334.58 321.41"/>
<path d="M349.2 321.41L350.18 325.49M350.18 325.49L352.86 328.49M352.86 328.49L356.52 329.58"/>
<path d="M394.36 329.58L390.16 330.75"/>
<path d="M390.16 330.75L390.26 330.67M390.26 330.67L390.29 330.63M390.29 330.63L390.29 330.61M390.29 330.61L390.29 330.6M390.29 330.6L390.28 330.58M390.28 330.58L390.22 330.57M390.22 330.57L390.02 330.55M390.02 330.55L389.18 330.64M389.18 330.64L383.01 331.85M383.01 331.85L380.03 332.52"/>
<path d="M380.03 329.58L380.03 332.52"/>
<path d="M380.03 332.52L207.97 332.52"/>
<path d="M207.97 329.58L207.97 332.52"/>
<path d="M207.97 332.52L200.42 330.91M200.42 330.91L198.14 330.56M198.14 330.56L197.85 330.56M197.85 330.56L197.76 330.57M197.76 330.57L197.72 330.58M197.72 330.58L197.71 330.61M197.71 330.61L197.71 330.63M197.71 330.63L197.73 330.67M197.73 330.67L197.84 330.75"/>
<path d="M197.84 330.75L193.64 329.58"/>
<path d="M334.58 321.41L334.58 311.6"/>
<path d="M390.16 330.75L377.69 338.23"/>
<path d="M373.49 336.45L375.88 338.17M375.88 338.17L377.69 338.23"/>
<path d="M373.49 336.45L380.03 332.52"/>
<path d="M207.97 332.52L214.51 336.45"/>
<path d="M214.51 336.45L373.49 336.45"/>
<path d="M210.31 338.23L212.12 338.17M212.12 338.17L214.51 336.45"/>
<path d="M210.31 338.23L197.84 330.75"/>
<path d="M373.49 339.39L377.69 338.23"/>
<path d="M373.49 336.45L373.49 339.39"/>
<path d="M214.51 339.39L214.51 336.45"/>
<path d="M373.49 339.39L214.51 339.39"/>
<path d="M210.31 338.23L214.51 339.39"/>
<path d="M596.63 214.4L595.08 211.29M595.08 211.29L590.41 209.73M590.41 209.73L587.29 209.73M587.29 209.73L582.62 211.29M582.62 211.29L579.51 215.96M579.51 215.96L577.95 223.74M577.95 223.74L577.95 231.53M577.95 231.53L579.51 237.76M579.51 237.76L582.62 240.87M582.62 240.87L587.29 242.43M587.29 242.43L588.85 242.43M588.85 242.43L593.52 240.87M593.52 240.87L596.63 237.76M596.63 237.76L598.19 233.09M598.19 233.09L598.19 231.53M598.19 231.53L596.63 226.86M596.63 226.86L593.52 223.74M593.52 223.74L588.85 222.19M588.85 222.19L587.29 222.19M587.29 222.19L582.62 223.74M582.62 223.74L579.51 226.86M579.51 226.86L577.95 231.53"/>
</g>
</g>
</svg>
