<?xml version="1.0" standalone="no"?><svg xmlns="http://www.w3.org/2000/svg" width="600.000" height="450.000" viewBox="0.0 0.0 600.000 450.000" version="1.1">
<title>Acme Converter - Post-processed with EDS-Designer: 14.44 (info@symca.com)</title>
<desc>Acme Converter - Post-processed with EDS-Designer: 14.44 (info@symca.com)</desc>
<g id="EDS_STYLE_GROUP" fill="none" stroke="black" stroke-width="1.0">
<g id="0" display="visible">
<path d="M466.83 158.18L465 139.54M465 139.54L459.56 121.62M459.56 121.62L450.74 105.11M450.74 105.11L438.86 90.64M438.86 90.64L424.38 78.76M424.38 78.76L407.87 69.93M407.87 69.93L389.95 64.49M389.95 64.49L371.31 62.66"/>
<path d="M473.2 158.18L471.24 138.3M471.24 138.3L465.45 119.19M465.45 119.19L456.03 101.57M456.03 101.57L443.36 86.13M443.36 86.13L427.92 73.46M427.92 73.46L410.3 64.05M410.3 64.05L391.19 58.25M391.19 58.25L371.31 56.29"/>
<path d="M485.94 158.18L484.2 138.27M484.2 138.27L479.03 118.97M479.03 118.97L470.58 100.87M470.58 100.87L459.12 84.5M459.12 84.5L444.99 70.37M444.99 70.37L428.63 58.91M428.63 58.91L410.52 50.47M410.52 50.47L391.22 45.29M391.22 45.29L371.31 43.55"/>
<path d="M218.48 43.55L198.57 45.29M198.57 45.29L179.27 50.47M179.27 50.47L161.17 58.91M161.17 58.91L144.8 70.37M144.8 70.37L130.67 84.5M130.67 84.5L119.21 100.87M119.21 100.87L110.77 118.97M110.77 118.97L105.59 138.27M105.59 138.27L103.85 158.18"/>
<path d="M218.48 56.29L198.6 58.25M198.6 58.25L179.49 64.05M179.49 64.05L161.87 73.46M161.87 73.46L146.43 86.13M146.43 86.13L133.76 101.57M133.76 101.57L124.34 119.19M124.34 119.19L118.55 138.3M118.55 138.3L116.59 158.18"/>
<path d="M218.48 62.66L199.84 64.49M199.84 64.49L181.92 69.93M181.92 69.93L165.41 78.76M165.41 78.76L150.93 90.64M150.93 90.64L139.06 105.11M139.06 105.11L130.23 121.62M130.23 121.62L124.79 139.54M124.79 139.54L122.96 158.18"/>
<path d="M167.53 177.28L142.06 177.28"/>
<path d="M142.06 151.81L167.53 151.81"/>
<path d="M447.73 158.18L445.81 141.17M445.81 141.17L440.16 125.02M440.16 125.02L431.06 110.53M431.06 110.53L418.96 98.43M418.96 98.43L404.47 89.33M404.47 89.33L388.32 83.68M388.32 83.68L371.31 81.76"/>
<path d="M454.1 158.18L452.51 142.03M452.51 142.03L447.8 126.5M447.8 126.5L440.15 112.19M440.15 112.19L429.85 99.64M429.85 99.64L417.31 89.35M417.31 89.35L402.99 81.7M402.99 81.7L387.46 76.98M387.46 76.98L371.31 75.39"/>
<path d="M371.31 247.33L388.32 245.42M388.32 245.42L404.47 239.76M404.47 239.76L418.96 230.66M418.96 230.66L431.06 218.56M431.06 218.56L440.16 204.07M440.16 204.07L445.81 187.92M445.81 187.92L447.73 170.92"/>
<path d="M371.31 253.7L387.46 252.11M387.46 252.11L402.99 247.4M402.99 247.4L417.31 239.75M417.31 239.75L429.85 229.45M429.85 229.45L440.15 216.91M440.15 216.91L447.8 202.6M447.8 202.6L452.51 187.07M452.51 187.07L454.1 170.92"/>
<path d="M371.31 266.44L389.95 264.6M389.95 264.6L407.87 259.17M407.87 259.17L424.38 250.34M424.38 250.34L438.86 238.46M438.86 238.46L450.74 223.98M450.74 223.98L459.56 207.47M459.56 207.47L465 189.55M465 189.55L466.83 170.92"/>
<path d="M371.31 272.8L391.19 270.85M391.19 270.85L410.3 265.05M410.3 265.05L427.92 255.63M427.92 255.63L443.36 242.96M443.36 242.96L456.03 227.52M456.03 227.52L465.45 209.91M465.45 209.91L471.24 190.79M471.24 190.79L473.2 170.92"/>
<path d="M371.31 285.54L391.22 283.8M391.22 283.8L410.52 278.63M410.52 278.63L428.63 270.18M428.63 270.18L444.99 258.72M444.99 258.72L459.12 244.6M459.12 244.6L470.58 228.23M470.58 228.23L479.03 210.12M479.03 210.12L484.2 190.82M484.2 190.82L485.94 170.92"/>
<path d="M225.98 412.9L225.98 374.69M227.43 374.69L227.43 412.9M221.62 374.69L239.03 374.69M239.03 374.69L243.39 376.51M243.39 376.51L244.84 378.33M244.84 378.33L246.29 381.97M246.29 381.97L246.29 385.61M246.29 385.61L244.84 389.25M244.84 389.25L243.39 391.07M243.39 391.07L239.03 392.89M239.03 374.69L241.94 376.51M241.94 376.51L243.39 378.33M243.39 378.33L244.84 381.97M244.84 381.97L244.84 385.61M244.84 385.61L243.39 389.25M243.39 389.25L241.94 391.07M241.94 391.07L239.03 392.89M227.43 392.89L239.03 392.89M239.03 392.89L243.39 394.71M243.39 394.71L244.84 396.53M244.84 396.53L246.29 400.17M246.29 400.17L246.29 405.63M246.29 405.63L244.84 409.26M244.84 409.26L243.39 411.08M243.39 411.08L239.03 412.9M239.03 412.9L221.62 412.9M239.03 392.89L241.94 394.71M241.94 394.71L243.39 396.53M243.39 396.53L244.84 400.17M244.84 400.17L244.84 405.63M244.84 405.63L243.39 409.26M243.39 409.26L241.94 411.08M241.94 411.08L239.03 412.9M257.9 412.9L257.9 374.69M259.35 374.69L259.35 412.9M253.54 374.69L263.7 374.69M253.54 412.9L275.31 412.9M275.31 412.9L275.31 401.99M275.31 401.99L273.86 412.9M292.72 374.69L282.56 412.9M292.72 374.69L302.88 412.9M292.72 380.15L301.42 412.9M285.46 401.99L298.52 401.99M279.66 412.9L288.37 412.9M297.07 412.9L305.78 412.9M330.44 380.15L331.89 385.61M331.89 385.61L331.89 374.69M331.89 374.69L330.44 380.15M330.44 380.15L327.54 376.51M327.54 376.51L323.19 374.69M323.19 374.69L320.29 374.69M320.29 374.69L315.93 376.51M315.93 376.51L313.03 380.15M313.03 380.15L311.58 383.79M311.58 383.79L310.13 389.25M310.13 389.25L310.13 398.35M310.13 398.35L311.58 403.81M311.58 403.81L313.03 407.44M313.03 407.44L315.93 411.08M315.93 411.08L320.29 412.9M320.29 412.9L323.19 412.9M323.19 412.9L327.54 411.08M327.54 411.08L330.44 407.44M330.44 407.44L331.89 403.81M320.29 374.69L317.38 376.51M317.38 376.51L314.48 380.15M314.48 380.15L313.03 383.79M313.03 383.79L311.58 389.25M311.58 389.25L311.58 398.35M311.58 398.35L313.03 403.81M313.03 403.81L314.48 407.44M314.48 407.44L317.38 411.08M317.38 411.08L320.29 412.9M344.95 412.9L344.95 374.69M346.4 374.69L346.4 412.9M365.27 374.69L346.4 398.35M353.66 391.07L365.27 412.9M352.21 391.07L363.81 412.9M340.6 374.69L350.76 374.69M359.46 374.69L368.17 374.69M340.6 412.9L350.76 412.9M359.46 412.9L368.17 412.9"/>
<path d="M501.64 143.32L508 136.96M508 136.96L520.74 136.96M520.74 136.96L527.11 143.32M527.11 143.32L527.11 149.69M527.11 149.69L520.74 156.06M520.74 156.06L514.37 156.06M520.74 156.06L527.11 162.43M527.11 162.43L527.11 168.8M527.11 168.8L520.74 175.17M520.74 175.17L508 175.17M508 175.17L501.64 168.8"/>
<path d="M294.9 285.54L218.48 285.54"/>
<path d="M294.9 272.8L218.48 272.8"/>
<path d="M294.9 56.29L218.48 56.29"/>
<path d="M294.9 266.44L218.48 266.44"/>
<path d="M294.9 62.66L218.48 62.66"/>
<path d="M294.9 253.7L218.48 253.7"/>
<path d="M294.9 75.39L218.48 75.39"/>
<path d="M294.9 247.33L218.48 247.33"/>
<path d="M294.9 81.76L218.48 81.76"/>
<path d="M243.95 158.18L218.48 158.18"/>
<path d="M253.5 148.63L208.93 148.63"/>
<path d="M218.48 170.92L243.95 170.92"/>
<path d="M208.93 180.47L253.5 180.47"/>
<path d="M103.85 170.92L105.59 190.82M105.59 190.82L110.77 210.12M110.77 210.12L119.21 228.23M119.21 228.23L130.67 244.6M130.67 244.6L144.8 258.72M144.8 258.72L161.17 270.18M161.17 270.18L179.27 278.63M179.27 278.63L198.57 283.8M198.57 283.8L218.48 285.54"/>
<path d="M116.59 170.92L118.55 190.79M118.55 190.79L124.34 209.91M124.34 209.91L133.76 227.52M133.76 227.52L146.43 242.96M146.43 242.96L161.87 255.63M161.87 255.63L179.49 265.05M179.49 265.05L198.6 270.85M198.6 270.85L218.48 272.8"/>
<path d="M122.96 170.92L124.79 189.55M124.79 189.55L130.23 207.47M130.23 207.47L139.06 223.98M139.06 223.98L150.93 238.46M150.93 238.46L165.41 250.34M165.41 250.34L181.92 259.17M181.92 259.17L199.84 264.6M199.84 264.6L218.48 266.44"/>
<path d="M135.69 170.92L137.28 187.07M137.28 187.07L141.99 202.6M141.99 202.6L149.64 216.91M149.64 216.91L159.94 229.45M159.94 229.45L172.49 239.75M172.49 239.75L186.8 247.4M186.8 247.4L202.33 252.11M202.33 252.11L218.48 253.7"/>
<path d="M142.06 170.92L143.98 187.92M143.98 187.92L149.63 204.07M149.63 204.07L158.73 218.56M158.73 218.56L170.83 230.66M170.83 230.66L185.32 239.76M185.32 239.76L201.47 245.42M201.47 245.42L218.48 247.33"/>
<path d="M218.48 75.39L202.33 76.98M202.33 76.98L186.8 81.7M186.8 81.7L172.49 89.35M172.49 89.35L159.94 99.64M159.94 99.64L149.64 112.19M149.64 112.19L141.99 126.5M141.99 126.5L137.28 142.03M137.28 142.03L135.69 158.18"/>
<path d="M218.48 81.76L201.47 83.68M201.47 83.68L185.32 89.33M185.32 89.33L170.83 98.43M170.83 98.43L158.73 110.53M158.73 110.53L149.63 125.02M149.63 125.02L143.98 141.17M143.98 141.17L142.06 158.18"/>
<path d="M103.85 170.92L103.85 164.55"/>
<path d="M103.85 158.18L103.85 164.55"/>
<path d="M116.59 170.92L116.59 164.55"/>
<path d="M116.59 158.18L116.59 164.55"/>
<path d="M122.96 170.92L122.96 164.55"/>
<path d="M122.96 158.18L122.96 164.55"/>
<path d="M135.69 170.92L135.69 164.55"/>
<path d="M135.69 158.18L135.69 164.55"/>
<path d="M142.06 170.92L142.06 164.55"/>
<path d="M142.06 158.18L142.06 164.55"/>
<path d="M218.48 158.18L218.48 170.92"/>
<path d="M208.93 148.63L208.93 180.47"/>
<path d="M294.9 247.33L371.31 247.33"/>
<path d="M294.9 253.7L371.31 253.7"/>
<path d="M294.9 266.44L371.31 266.44"/>
<path d="M294.9 272.8L371.31 272.8"/>
<path d="M294.9 285.54L371.31 285.54"/>
<path d="M294.9 266.44L294.9 272.8"/>
<path d="M294.9 266.44L294.9 272.8"/>
<path d="M231.21 266.44L231.21 272.8"/>
<path d="M231.21 247.33L231.21 253.7"/>
<path d="M294.9 247.33L294.9 253.7"/>
<path d="M294.9 247.33L294.9 253.7"/>
<path d="M358.58 266.44L358.58 272.8"/>
<path d="M358.58 247.33L358.58 253.7"/>
<path d="M294.9 81.76L371.31 81.76"/>
<path d="M294.9 75.39L371.31 75.39"/>
<path d="M294.9 62.66L371.31 62.66"/>
<path d="M294.9 56.29L371.31 56.29"/>
<path d="M282.16 170.92L294.9 170.92"/>
<path d="M272.61 180.47L317.18 180.47"/>
<path d="M294.9 158.18L282.16 158.18"/>
<path d="M317.18 148.63L272.61 148.63"/>
<path d="M282.16 158.18L282.16 170.92"/>
<path d="M272.61 148.63L272.61 180.47"/>
<path d="M243.95 170.92L243.95 158.18"/>
<path d="M253.5 180.47L253.5 148.63"/>
<path d="M307.63 158.18L307.63 170.92"/>
<path d="M317.18 148.63L317.18 180.47"/>
<path d="M294.9 158.18L307.63 158.18"/>
<path d="M307.63 170.92L294.9 170.92"/>
<path d="M231.21 62.66L231.21 56.29"/>
<path d="M231.21 81.76L231.21 75.39"/>
<path d="M294.9 81.76L294.9 75.39"/>
<path d="M294.9 62.66L294.9 56.29"/>
<path d="M301.26 62.66L301.26 37.19"/>
<path d="M288.53 62.66L288.53 37.19"/>
<path d="M294.9 62.66L294.9 56.29"/>
<path d="M294.9 81.76L294.9 75.39"/>
<path d="M72.73 141.77L79.1 135.4M79.1 135.4L79.1 173.61M72.73 173.61L85.47 173.61"/>
<path d="M345.84 170.92L345.84 158.18"/>
<path d="M336.29 180.47L336.29 148.63"/>
<path d="M371.31 158.18L371.31 170.92"/>
<path d="M380.86 148.63L380.86 180.47"/>
<path d="M345.84 158.18L371.31 158.18"/>
<path d="M336.29 148.63L380.86 148.63"/>
<path d="M371.31 170.92L345.84 170.92"/>
<path d="M380.86 180.47L336.29 180.47"/>
<path d="M167.53 151.81L167.53 177.28"/>
<path d="M358.58 81.76L358.58 75.39"/>
<path d="M358.58 62.66L358.58 56.29"/>
<path d="M447.73 170.92L447.73 164.55"/>
<path d="M447.73 158.18L447.73 164.55"/>
<path d="M454.1 158.18L454.1 164.55"/>
<path d="M454.1 170.92L454.1 164.55"/>
<path d="M466.83 158.18L466.83 164.55"/>
<path d="M466.83 170.92L466.83 164.55"/>
<path d="M473.2 158.18L473.2 164.55"/>
<path d="M473.2 170.92L473.2 164.55"/>
<path d="M485.94 158.18L485.94 164.55"/>
<path d="M485.94 170.92L485.94 164.55"/>
<path d="M269.42 43.55L218.48 43.55"/>
<path d="M294.9 37.19L269.42 37.19"/>
<path d="M371.31 336.49L339.47 336.49"/>
<path d="M320.37 43.55L371.31 43.55"/>
<path d="M294.9 37.19L320.37 37.19"/>
<path d="M250.32 317.38L282.16 317.38"/>
<path d="M243.95 285.54L243.95 336.49"/>
<path d="M263.06 43.55L256.69 43.55"/>
<path d="M250.32 336.49L250.32 285.54"/>
<path d="M218.48 336.49L250.32 336.49"/>
<path d="M218.48 285.54L218.48 336.49"/>
<path d="M339.47 336.49L339.47 285.54"/>
<path d="M326.74 43.55L333.1 43.55"/>
<path d="M345.84 285.54L345.84 336.49"/>
<path d="M339.47 317.38L282.16 317.38"/>
<path d="M307.63 330.12L282.16 330.12"/>
<path d="M371.31 285.54L371.31 336.49"/>
<path d="M231.21 272.8L218.48 285.54"/>
<path d="M358.58 272.8L371.31 285.54"/>
<path d="M269.42 56.29L269.42 37.19"/>
<path d="M320.37 56.29L320.37 37.19"/>
<path d="M307.63 330.12L307.63 317.38"/>
<path d="M288.53 266.44L288.53 291.91"/>
<path d="M320.37 291.91L269.42 291.91"/>
<path d="M269.42 272.8L269.42 291.91"/>
<path d="M320.37 272.8L320.37 291.91"/>
<path d="M301.26 266.44L301.26 291.91"/>
<path d="M282.16 330.12L282.16 317.38"/>
</g>
</g>
</svg>
