<?xml version="1.0" standalone="no"?><svg xmlns="http://www.w3.org/2000/svg" width="600.000" height="450.000" viewBox="0.0 0.0 600.000 450.000" version="1.1">
<title>Acme Converter - Post-processed with EDS-Designer: 14.44 (info@symca.com)</title>
<desc>Acme Converter - Post-processed with EDS-Designer: 14.44 (info@symca.com)</desc>
<g id="EDS_STYLE_GROUP" fill="none" stroke="black" stroke-width="1.0">
<g id="0" display="visible">
<path d="M69.65 265.15L71.65 263.9M71.65 263.9L74.65 260.14M74.65 260.14L74.65 286.4"/>
<path d="M529.78 262.33L519.78 279.84M519.78 279.84L534.78 279.84M529.78 262.33L529.78 288.59"/>
<path d="M220.6 404.56L220.6 360.8M222.27 360.8L222.27 404.56M215.61 360.8L235.59 360.8M235.59 360.8L240.59 362.88M240.59 362.88L242.26 364.97M242.26 364.97L243.92 369.13M243.92 369.13L243.92 373.3M243.92 373.3L242.26 377.47M242.26 377.47L240.59 379.55M240.59 379.55L235.59 381.64M235.59 360.8L238.92 362.88M238.92 362.88L240.59 364.97M240.59 364.97L242.26 369.13M242.26 369.13L242.26 373.3M242.26 373.3L240.59 377.47M240.59 377.47L238.92 379.55M238.92 379.55L235.59 381.64M222.27 381.64L235.59 381.64M235.59 381.64L240.59 383.72M240.59 383.72L242.26 385.8M242.26 385.8L243.92 389.97M243.92 389.97L243.92 396.22M243.92 396.22L242.26 400.39M242.26 400.39L240.59 402.48M240.59 402.48L235.59 404.56M235.59 404.56L215.61 404.56M235.59 381.64L238.92 383.72M238.92 383.72L240.59 385.8M240.59 385.8L242.26 389.97M242.26 389.97L242.26 396.22M242.26 396.22L240.59 400.39M240.59 400.39L238.92 402.48M238.92 402.48L235.59 404.56M257.25 404.56L257.25 360.8M258.91 360.8L258.91 404.56M252.25 360.8L263.91 360.8M252.25 404.56L277.23 404.56M277.23 404.56L277.23 392.06M277.23 392.06L275.57 404.56M297.22 360.8L285.56 404.56M297.22 360.8L308.88 404.56M297.22 367.05L307.21 404.56M288.89 392.06L303.88 392.06M282.23 404.56L292.22 404.56M302.22 404.56L312.21 404.56M340.52 367.05L342.19 373.3M342.19 373.3L342.19 360.8M342.19 360.8L340.52 367.05M340.52 367.05L337.19 362.88M337.19 362.88L332.2 360.8M332.2 360.8L328.87 360.8M328.87 360.8L323.87 362.88M323.87 362.88L320.54 367.05M320.54 367.05L318.87 371.22M318.87 371.22L317.21 377.47M317.21 377.47L317.21 387.89M317.21 387.89L318.87 394.14M318.87 394.14L320.54 398.31M320.54 398.31L323.87 402.48M323.87 402.48L328.87 404.56M328.87 404.56L332.2 404.56M332.2 404.56L337.19 402.48M337.19 402.48L340.52 398.31M340.52 398.31L342.19 394.14M328.87 360.8L325.53 362.88M325.53 362.88L322.2 367.05M322.2 367.05L320.54 371.22M320.54 371.22L318.87 377.47M318.87 377.47L318.87 387.89M318.87 387.89L320.54 394.14M320.54 394.14L322.2 398.31M322.2 398.31L325.53 402.48M325.53 402.48L328.87 404.56M357.18 404.56L357.18 360.8M358.85 360.8L358.85 404.56M380.5 360.8L358.85 387.89M367.17 379.55L380.5 404.56M365.51 379.55L378.83 404.56M352.18 360.8L363.84 360.8M373.84 360.8L383.83 360.8M352.18 404.56L363.84 404.56M373.84 404.56L383.83 404.56"/>
<path d="M170.18 106.98L429.25 106.98"/>
<path d="M170.18 325.79L429.25 325.79"/>
<path d="M492.27 262.77L492.27 169.99"/>
<path d="M107.16 262.77L107.16 169.99"/>
<path d="M325.98 52.71L360.99 52.71"/>
<path d="M170.18 106.98L156.16 108.56M156.16 108.56L142.84 113.22M142.84 113.22L130.89 120.72M130.89 120.72L120.91 130.7M120.91 130.7L113.4 142.65M113.4 142.65L108.74 155.97M108.74 155.97L107.16 169.99"/>
<path d="M107.16 262.77L108.74 276.79M108.74 276.79L113.4 290.11M113.4 290.11L120.91 302.06M120.91 302.06L130.89 312.04M130.89 312.04L142.84 319.55M142.84 319.55L156.16 324.21M156.16 324.21L170.18 325.79"/>
<path d="M429.25 325.79L443.28 324.21M443.28 324.21L456.6 319.55M456.6 319.55L468.55 312.04M468.55 312.04L478.52 302.06M478.52 302.06L486.03 290.11M486.03 290.11L490.69 276.79M490.69 276.79L492.27 262.77"/>
<path d="M492.27 169.99L490.69 155.97M490.69 155.97L486.03 142.65M486.03 142.65L478.52 130.7M478.52 130.7L468.55 120.72M468.55 120.72L456.6 113.22M456.6 113.22L443.28 108.56M443.28 108.56L429.25 106.98"/>
<path d="M318.97 321.41L318.97 302.59"/>
<path d="M280.46 321.41L280.46 302.59"/>
<path d="M280.46 302.59L318.97 302.59"/>
<path d="M276.09 325.79L279.18 324.51M279.18 324.51L280.46 321.41"/>
<path d="M318.97 321.41L319.56 323.6M319.56 323.6L321.16 325.2M321.16 325.2L323.35 325.79"/>
<path d="M185.94 174.81L185.94 201.06"/>
<path d="M185.94 192.31L150.93 192.31"/>
<path d="M150.93 201.06L150.93 174.81"/>
<path d="M150.93 174.81L133.42 174.81"/>
<path d="M124.67 183.56L124.67 144.17"/>
<path d="M133.42 152.93L150.93 152.93"/>
<path d="M150.93 152.93L150.93 126.67"/>
<path d="M150.93 135.42L185.94 135.42"/>
<path d="M185.94 152.93L185.94 126.67"/>
<path d="M299.72 152.93L299.72 174.81"/>
<path d="M185.94 126.67L150.93 126.67"/>
<path d="M185.94 144.17L238.45 144.17"/>
<path d="M203.44 152.93L212.19 144.17"/>
<path d="M203.44 174.81L212.19 183.56"/>
<path d="M203.44 174.81L203.44 152.93"/>
<path d="M203.44 174.81L185.94 174.81"/>
<path d="M203.44 152.93L185.94 152.93"/>
<path d="M150.93 144.17L124.67 144.17"/>
<path d="M124.67 144.17L133.42 152.93"/>
<path d="M150.93 183.56L124.67 183.56"/>
<path d="M124.67 183.56L133.42 174.81"/>
<path d="M133.42 174.81L133.42 152.93"/>
<path d="M185.94 201.06L150.93 201.06"/>
<path d="M153.11 192.31L155.3 183.56"/>
<path d="M155.3 183.56L181.56 183.56"/>
<path d="M181.56 183.56L183.75 192.31"/>
<path d="M185.94 183.56L238.45 183.56"/>
<path d="M273.46 174.81L273.46 201.06"/>
<path d="M273.46 192.31L238.45 192.31"/>
<path d="M238.45 201.06L238.45 174.81"/>
<path d="M238.45 174.81L220.95 174.81"/>
<path d="M212.19 183.56L212.19 144.17"/>
<path d="M220.95 152.93L238.45 152.93"/>
<path d="M238.45 152.93L238.45 126.67"/>
<path d="M238.45 135.42L273.46 135.42"/>
<path d="M273.46 152.93L273.46 126.67"/>
<path d="M273.46 126.67L238.45 126.67"/>
<path d="M273.46 144.17L299.72 144.17"/>
<path d="M290.97 152.93L299.72 144.17"/>
<path d="M290.97 174.81L299.72 183.56"/>
<path d="M290.97 174.81L290.97 152.93"/>
<path d="M290.97 174.81L273.46 174.81"/>
<path d="M290.97 152.93L273.46 152.93"/>
<path d="M238.45 144.17L212.19 144.17"/>
<path d="M212.19 144.17L220.95 152.93"/>
<path d="M238.45 183.56L212.19 183.56"/>
<path d="M212.19 183.56L220.95 174.81"/>
<path d="M220.95 174.81L220.95 152.93"/>
<path d="M273.46 201.06L238.45 201.06"/>
<path d="M240.64 192.31L242.83 183.56"/>
<path d="M242.83 183.56L269.08 183.56"/>
<path d="M269.08 183.56L271.27 192.31"/>
<path d="M273.46 183.56L325.98 183.56"/>
<path d="M360.99 174.81L360.99 201.06"/>
<path d="M360.99 192.31L325.98 192.31"/>
<path d="M325.98 201.06L325.98 174.81"/>
<path d="M325.98 174.81L308.47 174.81"/>
<path d="M299.72 183.56L299.72 144.17"/>
<path d="M387.24 144.17L413.5 144.17"/>
<path d="M378.49 174.81L387.24 183.56"/>
<path d="M378.49 174.81L360.99 174.81"/>
<path d="M299.72 144.17L299.72 144.17"/>
<path d="M325.98 183.56L299.72 183.56"/>
<path d="M299.72 183.56L308.47 174.81"/>
<path d="M360.99 201.06L325.98 201.06"/>
<path d="M328.16 192.31L330.35 183.56"/>
<path d="M330.35 183.56L356.61 183.56"/>
<path d="M356.61 183.56L358.8 192.31"/>
<path d="M360.99 183.56L413.5 183.56"/>
<path d="M448.51 174.81L448.51 201.06"/>
<path d="M448.51 192.31L413.5 192.31"/>
<path d="M413.5 201.06L413.5 174.81"/>
<path d="M413.5 174.81L396 174.81"/>
<path d="M387.24 183.56L387.24 144.17"/>
<path d="M396 152.93L413.5 152.93"/>
<path d="M413.5 152.93L413.5 126.67"/>
<path d="M413.5 135.42L448.51 135.42"/>
<path d="M448.51 152.93L448.51 126.67"/>
<path d="M448.51 126.67L413.5 126.67"/>
<path d="M448.51 144.17L474.77 144.17"/>
<path d="M466.02 152.93L474.77 144.17"/>
<path d="M466.02 174.81L474.77 183.56"/>
<path d="M466.02 174.81L466.02 152.93"/>
<path d="M466.02 174.81L448.51 174.81"/>
<path d="M466.02 152.93L448.51 152.93"/>
<path d="M413.5 144.17L387.24 144.17"/>
<path d="M387.24 144.17L396 152.93"/>
<path d="M413.5 183.56L387.24 183.56"/>
<path d="M387.24 183.56L396 174.81"/>
<path d="M396 174.81L396 152.93"/>
<path d="M448.51 201.06L413.5 201.06"/>
<path d="M415.69 192.31L417.88 183.56"/>
<path d="M417.88 183.56L444.13 183.56"/>
<path d="M444.13 183.56L446.32 192.31"/>
<path d="M448.51 183.56L474.77 183.56"/>
<path d="M474.77 183.56L474.77 144.17"/>
<path d="M185.94 257.96L185.94 231.7"/>
<path d="M185.94 240.45L150.93 240.45"/>
<path d="M150.93 231.7L150.93 257.96"/>
<path d="M150.93 257.96L133.42 257.96"/>
<path d="M124.67 249.2L124.67 288.59"/>
<path d="M133.42 279.84L150.93 279.84"/>
<path d="M150.93 279.84L150.93 306.09"/>
<path d="M150.93 297.34L185.94 297.34"/>
<path d="M185.94 279.84L185.94 306.09"/>
<path d="M299.72 279.84L299.72 257.96"/>
<path d="M185.94 306.09L150.93 306.09"/>
<path d="M185.94 288.59L238.45 288.59"/>
<path d="M203.44 279.84L212.19 288.59"/>
<path d="M203.44 257.96L212.19 249.2"/>
<path d="M203.44 257.96L203.44 279.84"/>
<path d="M203.44 257.96L185.94 257.96"/>
<path d="M203.44 279.84L185.94 279.84"/>
<path d="M150.93 288.59L124.67 288.59"/>
<path d="M124.67 288.59L133.42 279.84"/>
<path d="M150.93 249.2L124.67 249.2"/>
<path d="M124.67 249.2L133.42 257.96"/>
<path d="M133.42 257.96L133.42 279.84"/>
<path d="M185.94 231.7L150.93 231.7"/>
<path d="M153.11 240.45L155.3 249.2"/>
<path d="M155.3 249.2L181.56 249.2"/>
<path d="M181.56 249.2L183.75 240.45"/>
<path d="M185.94 249.2L238.45 249.2"/>
<path d="M273.46 257.96L273.46 231.7"/>
<path d="M273.46 240.45L238.45 240.45"/>
<path d="M238.45 231.7L238.45 257.96"/>
<path d="M238.45 257.96L220.95 257.96"/>
<path d="M212.19 249.2L212.19 288.59"/>
<path d="M220.95 279.84L238.45 279.84"/>
<path d="M238.45 279.84L238.45 306.09"/>
<path d="M238.45 297.34L273.46 297.34"/>
<path d="M273.46 279.84L273.46 306.09"/>
<path d="M273.46 306.09L238.45 306.09"/>
<path d="M273.46 288.59L325.98 288.59"/>
<path d="M290.97 279.84L299.72 288.59"/>
<path d="M290.97 257.96L299.72 249.2"/>
<path d="M290.97 257.96L290.97 279.84"/>
<path d="M290.97 257.96L273.46 257.96"/>
<path d="M290.97 279.84L273.46 279.84"/>
<path d="M238.45 288.59L212.19 288.59"/>
<path d="M212.19 288.59L220.95 279.84"/>
<path d="M238.45 249.2L212.19 249.2"/>
<path d="M212.19 249.2L220.95 257.96"/>
<path d="M220.95 257.96L220.95 279.84"/>
<path d="M273.46 231.7L238.45 231.7"/>
<path d="M240.64 240.45L242.83 249.2"/>
<path d="M242.83 249.2L269.08 249.2"/>
<path d="M269.08 249.2L271.27 240.45"/>
<path d="M273.46 249.2L325.98 249.2"/>
<path d="M360.99 257.96L360.99 231.7"/>
<path d="M360.99 240.45L325.98 240.45"/>
<path d="M325.98 231.7L325.98 257.96"/>
<path d="M325.98 257.96L308.47 257.96"/>
<path d="M299.72 249.2L299.72 288.59"/>
<path d="M308.47 279.84L325.98 279.84"/>
<path d="M325.98 279.84L325.98 306.09"/>
<path d="M325.98 297.34L360.99 297.34"/>
<path d="M360.99 279.84L360.99 306.09"/>
<path d="M360.99 306.09L325.98 306.09"/>
<path d="M360.99 288.59L413.5 288.59"/>
<path d="M378.49 279.84L387.24 288.59"/>
<path d="M378.49 257.96L387.24 249.2"/>
<path d="M378.49 257.96L378.49 279.84"/>
<path d="M378.49 257.96L360.99 257.96"/>
<path d="M378.49 279.84L360.99 279.84"/>
<path d="M325.98 288.59L299.72 288.59"/>
<path d="M299.72 288.59L308.47 279.84"/>
<path d="M325.98 249.2L299.72 249.2"/>
<path d="M299.72 249.2L308.47 257.96"/>
<path d="M308.47 257.96L308.47 279.84"/>
<path d="M360.99 231.7L325.98 231.7"/>
<path d="M328.16 240.45L330.35 249.2"/>
<path d="M330.35 249.2L356.61 249.2"/>
<path d="M356.61 249.2L358.8 240.45"/>
<path d="M360.99 249.2L413.5 249.2"/>
<path d="M448.51 257.96L448.51 231.7"/>
<path d="M448.51 240.45L413.5 240.45"/>
<path d="M413.5 231.7L413.5 257.96"/>
<path d="M413.5 257.96L396 257.96"/>
<path d="M387.24 249.2L387.24 288.59"/>
<path d="M396 279.84L413.5 279.84"/>
<path d="M413.5 279.84L413.5 306.09"/>
<path d="M413.5 297.34L448.51 297.34"/>
<path d="M448.51 279.84L448.51 306.09"/>
<path d="M448.51 306.09L413.5 306.09"/>
<path d="M448.51 288.59L474.77 288.59"/>
<path d="M466.02 279.84L474.77 288.59"/>
<path d="M466.02 257.96L474.77 249.2"/>
<path d="M466.02 257.96L466.02 279.84"/>
<path d="M466.02 257.96L448.51 257.96"/>
<path d="M466.02 279.84L448.51 279.84"/>
<path d="M413.5 288.59L387.24 288.59"/>
<path d="M387.24 288.59L396 279.84"/>
<path d="M413.5 249.2L387.24 249.2"/>
<path d="M387.24 249.2L396 257.96"/>
<path d="M396 257.96L396 279.84"/>
<path d="M448.51 231.7L413.5 231.7"/>
<path d="M415.69 240.45L417.88 249.2"/>
<path d="M417.88 249.2L444.13 249.2"/>
<path d="M444.13 249.2L446.32 240.45"/>
<path d="M448.51 249.2L474.77 249.2"/>
<path d="M474.77 249.2L474.77 288.59"/>
<path d="M308.47 174.81L308.47 161.68"/>
<path d="M308.47 161.68L378.49 161.68"/>
<path d="M378.49 161.68L378.49 174.81"/>
<path d="M77.16 155.11L67.15 155.11M67.15 155.11L66.15 166.37M66.15 166.37L67.15 165.12M67.15 165.12L70.15 163.87M70.15 163.87L73.15 163.87M73.15 163.87L76.15 165.12M76.15 165.12L78.16 167.62M78.16 167.62L79.16 171.37M79.16 171.37L79.16 173.87M79.16 173.87L78.16 177.62M78.16 177.62L76.15 180.12M76.15 180.12L73.15 181.37M73.15 181.37L70.15 181.37M70.15 181.37L67.15 180.12M67.15 180.12L66.15 178.87M66.15 178.87L65.15 176.37"/>
<path d="M520.28 155.11L534.28 155.11M534.28 155.11L524.28 181.37"/>
<path d="M396 106.98L396 87.72"/>
<path d="M364.49 98.22L364.49 89.47"/>
<path d="M322.47 98.22L322.47 89.47"/>
<path d="M290.97 106.98L290.97 87.72"/>
<path d="M308.47 106.98L308.47 76.34"/>
<path d="M317.22 67.59L369.74 67.59"/>
<path d="M378.49 106.98L378.49 76.34"/>
<path d="M360.11 85.09L326.85 85.09"/>
<path d="M325.98 52.71L315.16 54.42M315.16 54.42L305.4 59.4M305.4 59.4L297.65 67.14M297.65 67.14L292.68 76.9M292.68 76.9L290.97 87.72"/>
<path d="M396 87.72L394.28 76.9M394.28 76.9L389.31 67.14M389.31 67.14L381.56 59.4M381.56 59.4L371.8 54.42M371.8 54.42L360.99 52.71"/>
<path d="M378.49 76.34L377.32 71.97M377.32 71.97L374.11 68.76M374.11 68.76L369.74 67.59"/>
<path d="M317.22 67.59L312.85 68.76M312.85 68.76L309.64 71.97M309.64 71.97L308.47 76.34"/>
<path d="M364.49 89.47L363.2 86.38M363.2 86.38L360.11 85.09"/>
<path d="M326.85 85.09L323.76 86.38M323.76 86.38L322.47 89.47"/>
<path d="M326.85 102.6L360.11 102.6"/>
<path d="M322.47 98.22L323.76 101.32M323.76 101.32L326.85 102.6"/>
<path d="M360.11 102.6L363.2 101.32M363.2 101.32L364.49 98.22"/>
<path d="M367.55 106.98L367.55 99.97"/>
<path d="M365.8 98.22L364.49 98.22"/>
<path d="M367.55 99.97L367.04 98.74M367.04 98.74L365.8 98.22"/>
<path d="M319.41 106.98L319.41 99.97"/>
<path d="M321.16 98.22L322.47 98.22"/>
<path d="M321.16 98.22L319.92 98.74M319.92 98.74L319.41 99.97"/>
</g>
</g>
</svg>
