<?xml version="1.0" standalone="no"?><svg xmlns="http://www.w3.org/2000/svg" width="600.000" height="450.000" viewBox="0.0 0.0 600.000 450.000" version="1.1">
<title>Acme Converter - Post-processed with EDS-Designer: 14.44 (info@symca.com)</title>
<desc>Acme Converter - Post-processed with EDS-Designer: 14.44 (info@symca.com)</desc>
<g id="EDS_STYLE_GROUP" fill="none" stroke="black" stroke-width="1.0">
<g id="0" display="visible">
<path d="M251.36 377.19L251.36 354.17M252.46 354.17L252.46 377.19M248.07 354.17L261.22 354.17M261.22 354.17L264.51 355.27M264.51 355.27L265.61 356.36M265.61 356.36L266.7 358.56M266.7 358.56L266.7 360.75M266.7 360.75L265.61 362.94M265.61 362.94L264.51 364.04M264.51 364.04L261.22 365.13M261.22 354.17L263.41 355.27M263.41 355.27L264.51 356.36M264.51 356.36L265.61 358.56M265.61 358.56L265.61 360.75M265.61 360.75L264.51 362.94M264.51 362.94L263.41 364.04M263.41 364.04L261.22 365.13M252.46 365.13L261.22 365.13M261.22 365.13L264.51 366.23M264.51 366.23L265.61 367.32M265.61 367.32L266.7 369.52M266.7 369.52L266.7 372.8M266.7 372.8L265.61 375M265.61 375L264.51 376.09M264.51 376.09L261.22 377.19M261.22 377.19L248.07 377.19M261.22 365.13L263.41 366.23M263.41 366.23L264.51 367.32M264.51 367.32L265.61 369.52M265.61 369.52L265.61 372.8M265.61 372.8L264.51 375M264.51 375L263.41 376.09M263.41 376.09L261.22 377.19M275.47 377.19L275.47 354.17M276.57 354.17L276.57 377.19M272.18 354.17L279.85 354.17M272.18 377.19L288.62 377.19M288.62 377.19L288.62 370.61M288.62 370.61L287.53 377.19M301.77 354.17L294.1 377.19M301.77 354.17L309.44 377.19M301.77 357.46L308.35 377.19M296.29 370.61L306.16 370.61M291.91 377.19L298.49 377.19M305.06 377.19L311.64 377.19M330.27 357.46L331.36 360.75M331.36 360.75L331.36 354.17M331.36 354.17L330.27 357.46M330.27 357.46L328.08 355.27M328.08 355.27L324.79 354.17M324.79 354.17L322.6 354.17M322.6 354.17L319.31 355.27M319.31 355.27L317.12 357.46M317.12 357.46L316.02 359.65M316.02 359.65L314.92 362.94M314.92 362.94L314.92 368.42M314.92 368.42L316.02 371.71M316.02 371.71L317.12 373.9M317.12 373.9L319.31 376.09M319.31 376.09L322.6 377.19M322.6 377.19L324.79 377.19M324.79 377.19L328.08 376.09M328.08 376.09L330.27 373.9M330.27 373.9L331.36 371.71M322.6 354.17L320.4 355.27M320.4 355.27L318.21 357.46M318.21 357.46L317.12 359.65M317.12 359.65L316.02 362.94M316.02 362.94L316.02 368.42M316.02 368.42L317.12 371.71M317.12 371.71L318.21 373.9M318.21 373.9L320.4 376.09M320.4 376.09L322.6 377.19M341.23 377.19L341.23 354.17M342.32 354.17L342.32 377.19M356.57 354.17L342.32 368.42M347.8 364.04L356.57 377.19M346.71 364.04L355.47 377.19M337.94 354.17L345.61 354.17M352.19 354.17L358.76 354.17M337.94 377.19L345.61 377.19M352.19 377.19L358.76 377.19"/>
<path d="M570.95 166.84L572.7 165.96M572.7 165.96L575.33 163.33M575.33 163.33L575.33 181.74"/>
<path d="M21.85 164.34L19.22 165.21M19.22 165.21L18.34 166.97M18.34 166.97L18.34 168.72M18.34 168.72L19.22 170.48M19.22 170.48L20.98 171.35M20.98 171.35L24.48 172.23M24.48 172.23L27.11 173.11M27.11 173.11L28.87 174.86M28.87 174.86L29.74 176.61M29.74 176.61L29.74 179.24M29.74 179.24L28.87 181M28.87 181L27.99 181.87M27.99 181.87L25.36 182.75M25.36 182.75L21.85 182.75M21.85 182.75L19.22 181.87M19.22 181.87L18.34 181M18.34 181L17.47 179.24M17.47 179.24L17.47 176.61M17.47 176.61L18.34 174.86M18.34 174.86L20.1 173.11M20.1 173.11L22.73 172.23M22.73 172.23L26.24 171.35M26.24 171.35L27.99 170.48M27.99 170.48L28.87 168.72M28.87 168.72L28.87 166.97M28.87 166.97L27.99 165.21M27.99 165.21L25.36 164.34M25.36 164.34L21.85 164.34"/>
<path d="M280.64 103.9L332.06 103.9M332.06 103.9L332.06 138.62M332.06 138.62L280.64 138.62M280.64 138.62L280.64 103.9"/>
<path d="M264.08 111.54L343.34 111.54M343.34 111.54L343.34 172.94M343.34 172.94L264.08 172.94M264.08 172.94L264.08 111.54"/>
<path d="M397.6 140.34L397.6 73.58"/>
<path d="M209.46 72.81L209.57 140.11"/>
<path d="M383.32 140.34L383.32 94.3"/>
<path d="M223.85 140.11L223.85 94.3"/>
<path d="M228.2 95.22L228.2 172.54"/>
<path d="M378.37 172.37L378.37 94.3"/>
<path d="M562.76 133.35L562.76 242.43"/>
<path d="M44.28 242.78L44.28 133.35"/>
<path d="M562.76 331.11L562.76 242.65"/>
<path d="M44.28 242.78L44.28 331.16"/>
<path d="M319.09 302.98L562.31 302.98"/>
<path d="M319.09 291.81L563.24 291.81"/>
<path d="M318.63 331.11L562.76 331.11"/>
<path d="M341.65 261.04L352.38 261.07"/>
<path d="M341.49 269.16L341.65 261.04"/>
<path d="M265.98 261.07L265.98 269.06"/>
<path d="M254.3 261.07L265.98 261.07"/>
<path d="M287.6 269L318.61 269"/>
<path d="M341.49 278.6L341.49 269.16"/>
<path d="M352.38 261.07L375.94 261.07M375.94 261.07L375.94 278.77M375.94 278.77L341.46 278.77"/>
<path d="M265.98 269.06L265.98 278.77M265.98 278.77L231.5 278.77M231.5 278.77L231.5 261.07M231.5 261.07L254.3 261.07"/>
<path d="M45.12 302.98L287.41 302.98"/>
<path d="M45.12 291.81L287.41 291.81"/>
<path d="M318.63 268.16L318.63 331.11"/>
<path d="M287.59 331.16L287.59 268.74"/>
<path d="M44.28 331.16L287.59 331.16"/>
<path d="M517.68 231.3L562.55 231.3"/>
<path d="M558.05 196.04L517.88 196.04M517.88 196.04L517.88 222.99M517.88 222.99L558.05 222.99M558.05 222.99L558.05 196.04"/>
<path d="M562.25 148.86L388.16 148.86"/>
<path d="M557.78 155.36L517.61 155.36M517.61 155.36L517.61 182.31M517.61 182.31L557.78 182.31M557.78 182.31L557.78 155.36"/>
<path d="M291.37 242.62L319.03 242.62"/>
<path d="M293.15 178.9L320.94 178.9M320.94 178.9L320.94 151.12M320.94 151.12L293.15 151.12M293.15 151.12L293.15 178.9"/>
<path d="M511.15 242.82L312.45 242.78"/>
<path d="M509.29 242.78L509.29 242.78"/>
<path d="M511.02 242.59L517.68 231.3"/>
<path d="M294.11 242.78L96.57 243.04"/>
<path d="M88.67 231.23L44.38 231.23"/>
<path d="M96.67 242.96L88.67 231.23"/>
<path d="M294.5 225.37L312.01 225.37"/>
<path d="M311.79 208.64L311.79 225.54"/>
<path d="M294.55 208.64L294.55 225.54"/>
<path d="M397.6 140.34L383.32 140.34"/>
<path d="M209.57 140.11L223.85 140.11"/>
<path d="M237.38 174.62L237.38 182.47"/>
<path d="M239.45 184.54L367.24 184.54"/>
<path d="M237.38 182.47L237.99 183.93M237.99 183.93L239.45 184.54"/>
<path d="M230.28 174.62L237.38 174.62"/>
<path d="M228.2 172.54L228.81 174.01M228.81 174.01L230.28 174.62"/>
<path d="M369.31 174.44L369.31 182.47"/>
<path d="M367.24 184.54L368.7 183.93M368.7 183.93L369.31 182.47"/>
<path d="M369.31 174.44L376.3 174.44"/>
<path d="M376.3 174.44L377.76 173.84M377.76 173.84L378.37 172.37"/>
<path d="M325.6 194.83L318.7 196.68M318.7 196.68L313.64 201.73M313.64 201.73L311.79 208.64"/>
<path d="M510.74 196.04L470.57 196.04M470.57 196.04L470.57 222.99M470.57 222.99L510.74 222.99M510.74 222.99L510.74 196.04"/>
<path d="M320.21 203.88L348.43 203.88M348.43 203.88L348.43 223.04M348.43 223.04L320.21 223.04M320.21 223.04L320.21 203.88"/>
<path d="M427.01 203.88L398.79 203.88M398.79 203.88L398.79 223.04M398.79 223.04L427.01 223.04M427.01 223.04L427.01 203.88"/>
<path d="M389.6 203.88L361.37 203.88M361.37 203.88L361.37 223.04M361.37 223.04L389.6 223.04M389.6 223.04L389.6 203.88"/>
<path d="M464.73 203.88L436.5 203.88M436.5 203.88L436.5 223.04M436.5 223.04L464.73 223.04M464.73 223.04L464.73 203.88"/>
<path d="M374.35 194.83L325.6 194.83"/>
<path d="M388.16 148.86L388.16 181.02"/>
<path d="M374.35 194.83L381.26 192.98M381.26 192.98L386.31 187.92M386.31 187.92L388.16 181.02"/>
<path d="M510.48 155.36L470.31 155.36M470.31 155.36L470.31 182.31M470.31 182.31L510.48 182.31M510.48 182.31L510.48 155.36"/>
<path d="M436.21 163.18L464.43 163.18M464.43 163.18L464.43 182.34M464.43 182.34L436.21 182.34M436.21 182.34L436.21 163.18"/>
<path d="M397.87 163.18L426.1 163.18M426.1 163.18L426.1 182.34M426.1 182.34L397.87 182.34M397.87 182.34L397.87 163.18"/>
<path d="M231.99 194.83L280.74 194.83"/>
<path d="M294.55 208.64L292.7 201.73M292.7 201.73L287.65 196.68M287.65 196.68L280.74 194.83"/>
<path d="M218.18 148.86L218.18 181.02"/>
<path d="M218.18 181.02L220.03 187.92M220.03 187.92L225.09 192.98M225.09 192.98L231.99 194.83"/>
<path d="M44.09 148.86L218.18 148.86"/>
<path d="M208.47 163.18L180.25 163.18M180.25 163.18L180.25 182.34M180.25 182.34L208.47 182.34M208.47 182.34L208.47 163.18"/>
<path d="M170.14 163.18L141.91 163.18M141.91 163.18L141.91 182.34M141.91 182.34L170.14 182.34M170.14 182.34L170.14 163.18"/>
<path d="M286.14 203.88L257.91 203.88M257.91 203.88L257.91 223.04M257.91 223.04L286.14 223.04M286.14 223.04L286.14 203.88"/>
<path d="M179.33 203.88L207.56 203.88M207.56 203.88L207.56 223.04M207.56 223.04L179.33 223.04M179.33 223.04L179.33 203.88"/>
<path d="M216.75 203.88L244.98 203.88M244.98 203.88L244.98 223.04M244.98 223.04L216.75 223.04M216.75 223.04L216.75 203.88"/>
<path d="M141.62 203.88L169.84 203.88M169.84 203.88L169.84 223.04M169.84 223.04L141.62 223.04M141.62 223.04L141.62 203.88"/>
<path d="M48.3 196.04L88.47 196.04M88.47 196.04L88.47 222.99M88.47 222.99L48.3 222.99M48.3 222.99L48.3 196.04"/>
<path d="M95.6 196.04L135.77 196.04M135.77 196.04L135.77 222.99M135.77 222.99L95.6 222.99M95.6 222.99L95.6 196.04"/>
<path d="M48.56 155.36L88.73 155.36M88.73 155.36L88.73 182.31M88.73 182.31L48.56 182.31M48.56 182.31L48.56 155.36"/>
<path d="M95.87 155.36L136.04 155.36M136.04 155.36L136.04 182.31M136.04 182.31L95.87 182.31M95.87 182.31L95.87 155.36"/>
<path d="M397.42 99.58L562.91 99.58"/>
<path d="M397.42 91.47L562.91 91.47"/>
<path d="M562.76 73.58L397.6 73.58"/>
<path d="M44.09 99.58L209.58 99.58"/>
<path d="M44.09 91.47L208.57 91.47"/>
<path d="M150.42 111.11L184.9 111.11M184.9 111.11L184.9 128.8M184.9 128.8L150.42 128.8M150.42 128.8L150.42 111.11"/>
<path d="M428.12 111.11L462.6 111.11M462.6 111.11L462.6 128.8M462.6 128.8L428.12 128.8M428.12 128.8L428.12 111.11"/>
<path d="M44.28 72.81L209.46 72.81"/>
<path d="M44.28 133.35L44.28 72.81"/>
<path d="M378.37 94.3L383.32 94.3"/>
<path d="M228.2 94.3L223.85 94.3"/>
<path d="M378.37 94.3L228.2 94.3"/>
<path d="M228.2 95.22L228.2 94.3"/>
<path d="M562.76 133.35L562.76 73.58"/>
<path d="M585.54 209.75L584.66 212.38M584.66 212.38L582.91 214.13M582.91 214.13L580.28 215.01M580.28 215.01L579.4 215.01M579.4 215.01L576.77 214.13M576.77 214.13L575.02 212.38M575.02 212.38L574.14 209.75M574.14 209.75L574.14 208.87M574.14 208.87L575.02 206.24M575.02 206.24L576.77 204.49M576.77 204.49L579.4 203.61M579.4 203.61L580.28 203.61M580.28 203.61L582.91 204.49M582.91 204.49L584.66 206.24M584.66 206.24L585.54 209.75M585.54 209.75L585.54 214.13M585.54 214.13L584.66 218.52M584.66 218.52L582.91 221.15M582.91 221.15L580.28 222.02M580.28 222.02L578.53 222.02M578.53 222.02L575.9 221.15M575.9 221.15L575.02 219.39"/>
<path d="M2.05 208.73L2.05 207.85M2.05 207.85L2.93 206.1M2.93 206.1L3.8 205.22M3.8 205.22L5.56 204.35M5.56 204.35L9.06 204.35M9.06 204.35L10.82 205.22M10.82 205.22L11.69 206.1M11.69 206.1L12.57 207.85M12.57 207.85L12.57 209.61M12.57 209.61L11.69 211.36M11.69 211.36L9.94 213.99M9.94 213.99L1.17 222.76M1.17 222.76L13.45 222.76M23.97 204.35L21.34 205.22M21.34 205.22L19.59 207.85M19.59 207.85L18.71 212.24M18.71 212.24L18.71 214.87M18.71 214.87L19.59 219.25M19.59 219.25L21.34 221.88M21.34 221.88L23.97 222.76M23.97 222.76L25.72 222.76M25.72 222.76L28.35 221.88M28.35 221.88L30.11 219.25M30.11 219.25L30.98 214.87M30.98 214.87L30.98 212.24M30.98 212.24L30.11 207.85M30.11 207.85L28.35 205.22M28.35 205.22L25.72 204.35M25.72 204.35L23.97 204.35"/>
</g>
</g>
</svg>
