<?xml version="1.0" standalone="no"?><svg xmlns="http://www.w3.org/2000/svg" width="600.000" height="450.000" viewBox="0.0 0.0 600.000 450.000" version="1.1">
<title>Acme Converter - Post-processed with EDS-Designer: 14.44 (info@symca.com)</title>
<desc>Acme Converter - Post-processed with EDS-Designer: 14.44 (info@symca.com)</desc>
<g id="EDS_STYLE_GROUP" fill="none" stroke="black" stroke-width="1.0">
<g id="0" display="visible">
<path d="M197.89 190.6L197.89 162.69"/>
<path d="M197.89 162.69L244.4 162.69"/>
<path d="M244.4 162.69L244.4 148.73"/>
<path d="M244.4 148.73L272.31 148.73"/>
<path d="M272.31 148.73L272.31 162.69"/>
<path d="M272.31 162.69L318.83 162.69"/>
<path d="M318.83 162.69L318.83 190.6"/>
<path d="M318.83 190.6L267.66 190.6"/>
<path d="M267.66 190.6L267.66 199.9"/>
<path d="M267.66 199.9L249.05 199.9"/>
<path d="M249.05 199.9L249.05 190.6"/>
<path d="M249.05 190.6L197.89 190.6"/>
<path d="M249.05 167.34L267.66 167.34"/>
<path d="M267.66 167.34L267.66 176.64"/>
<path d="M267.66 176.64L263.01 176.64"/>
<path d="M263.01 176.64L263.01 185.94"/>
<path d="M263.01 185.94L253.71 185.94"/>
<path d="M253.71 185.94L253.71 176.64"/>
<path d="M253.71 176.64L249.05 176.64"/>
<path d="M249.05 176.64L249.05 167.34"/>
<path d="M239.75 185.94L202.54 185.94"/>
<path d="M202.54 185.94L202.54 181.29"/>
<path d="M202.54 181.29L207.19 181.29"/>
<path d="M207.19 181.29L207.19 176.64"/>
<path d="M207.19 176.64L211.84 176.64"/>
<path d="M211.84 176.64L211.84 171.99"/>
<path d="M239.75 185.94L239.75 181.29"/>
<path d="M239.75 181.29L235.1 181.29"/>
<path d="M235.1 181.29L235.1 176.64"/>
<path d="M235.1 176.64L230.45 176.64"/>
<path d="M230.45 176.64L230.45 171.99"/>
<path d="M230.45 171.99L211.84 171.99"/>
<path d="M235.1 199.9L235.1 213.85"/>
<path d="M235.1 213.85L207.19 213.85"/>
<path d="M207.19 213.85L207.19 199.9"/>
<path d="M207.19 199.9L235.1 199.9"/>
<path d="M281.61 199.9L281.61 213.85"/>
<path d="M281.61 213.85L309.52 213.85"/>
<path d="M309.52 213.85L309.52 199.9"/>
<path d="M309.52 199.9L281.61 199.9"/>
<path d="M244.4 227.81L272.31 227.81"/>
<path d="M272.31 227.81L272.31 237.11"/>
<path d="M272.31 237.11L318.83 237.11"/>
<path d="M318.83 237.11L318.83 265.02"/>
<path d="M318.83 265.02L197.89 265.02"/>
<path d="M197.89 265.02L197.89 237.11"/>
<path d="M197.89 237.11L244.4 237.11"/>
<path d="M244.4 237.11L244.4 227.81"/>
<path d="M202.54 260.37L202.54 255.72"/>
<path d="M202.54 255.72L207.19 255.72"/>
<path d="M207.19 255.72L207.19 251.06"/>
<path d="M207.19 251.06L211.84 251.06"/>
<path d="M211.84 251.06L211.84 246.41"/>
<path d="M202.54 260.37L239.75 260.37"/>
<path d="M239.75 260.37L239.75 255.72"/>
<path d="M239.75 255.72L235.1 255.72"/>
<path d="M235.1 255.72L235.1 251.06"/>
<path d="M235.1 251.06L230.45 251.06"/>
<path d="M230.45 251.06L230.45 246.41"/>
<path d="M230.45 246.41L211.84 246.41"/>
<path d="M314.18 260.37L314.18 255.72"/>
<path d="M314.18 255.72L309.52 255.72"/>
<path d="M309.52 255.72L309.52 251.06"/>
<path d="M309.52 251.06L304.87 251.06"/>
<path d="M304.87 251.06L304.87 246.41"/>
<path d="M314.18 260.37L276.96 260.37"/>
<path d="M276.96 260.37L276.96 255.72"/>
<path d="M276.96 255.72L281.61 255.72"/>
<path d="M281.61 255.72L281.61 251.06"/>
<path d="M281.61 251.06L286.27 251.06"/>
<path d="M286.27 251.06L286.27 246.41"/>
<path d="M286.27 246.41L304.87 246.41"/>
<path d="M263.01 265.02L263.01 255.72"/>
<path d="M263.01 255.72L267.66 255.72"/>
<path d="M267.66 255.72L267.66 246.41"/>
<path d="M267.66 246.41L249.05 246.41"/>
<path d="M249.05 246.41L249.05 255.72"/>
<path d="M249.05 255.72L253.71 255.72"/>
<path d="M253.71 255.72L253.71 265.02"/>
<path d="M207.19 274.32L235.1 274.32"/>
<path d="M235.1 274.32L235.1 288.28"/>
<path d="M235.1 288.28L207.19 288.28"/>
<path d="M207.19 288.28L207.19 274.32"/>
<path d="M281.61 274.32L309.52 274.32"/>
<path d="M309.52 274.32L309.52 288.28"/>
<path d="M309.52 288.28L281.61 288.28"/>
<path d="M281.61 288.28L281.61 274.32"/>
<path d="M187.37 404.56L187.37 381.31M188.47 381.31L188.47 404.56M184.04 381.31L195.12 381.31M195.12 381.31L198.44 382.41M198.44 382.41L200.66 384.63M200.66 384.63L201.76 386.84M201.76 386.84L202.87 390.17M202.87 390.17L202.87 395.7M202.87 395.7L201.76 399.03M201.76 399.03L200.66 401.24M200.66 401.24L198.44 403.46M198.44 403.46L195.12 404.56M195.12 404.56L184.04 404.56M195.12 381.31L197.33 382.41M197.33 382.41L199.55 384.63M199.55 384.63L200.66 386.84M200.66 386.84L201.76 390.17M201.76 390.17L201.76 395.7M201.76 395.7L200.66 399.03M200.66 399.03L199.55 401.24M199.55 401.24L197.33 403.46M197.33 403.46L195.12 404.56M218.38 381.31L210.62 404.56M218.38 381.31L226.13 404.56M218.38 384.63L225.02 404.56M212.84 397.92L222.81 397.92M208.41 404.56L215.05 404.56M221.7 404.56L228.34 404.56M234.99 404.56L234.99 381.31M236.1 381.31L236.1 404.56M231.67 381.31L244.96 381.31M244.96 381.31L248.28 382.41M248.28 382.41L249.39 383.52M249.39 383.52L250.49 385.74M250.49 385.74L250.49 387.95M250.49 387.95L249.39 390.17M249.39 390.17L248.28 391.27M248.28 391.27L244.96 392.38M244.96 392.38L236.1 392.38M244.96 381.31L247.17 382.41M247.17 382.41L248.28 383.52M248.28 383.52L249.39 385.74M249.39 385.74L249.39 387.95M249.39 387.95L248.28 390.17M248.28 390.17L247.17 391.27M247.17 391.27L244.96 392.38M231.67 404.56L239.42 404.56M241.63 392.38L243.85 393.49M243.85 393.49L244.96 394.6M244.96 394.6L248.28 402.35M248.28 402.35L249.39 403.46M249.39 403.46L250.49 403.46M250.49 403.46L251.6 402.35M243.85 393.49L244.96 395.7M244.96 395.7L247.17 403.46M247.17 403.46L248.28 404.56M248.28 404.56L250.49 404.56M250.49 404.56L251.6 402.35M251.6 402.35L251.6 401.24M259.35 404.56L259.35 381.31M260.46 381.31L260.46 404.56M274.86 381.31L260.46 395.7M266 391.27L274.86 404.56M264.89 391.27L273.75 404.56M256.03 381.31L263.78 381.31M270.43 381.31L277.07 381.31M256.03 404.56L263.78 404.56M270.43 404.56L277.07 404.56M319.16 384.63L320.27 387.95M320.27 387.95L320.27 381.31M320.27 381.31L319.16 384.63M319.16 384.63L316.94 382.41M316.94 382.41L313.62 381.31M313.62 381.31L311.41 381.31M311.41 381.31L308.08 382.41M308.08 382.41L305.87 384.63M305.87 384.63L304.76 386.84M304.76 386.84L303.65 390.17M303.65 390.17L303.65 395.7M303.65 395.7L304.76 399.03M304.76 399.03L305.87 401.24M305.87 401.24L308.08 403.46M308.08 403.46L311.41 404.56M311.41 404.56L313.62 404.56M313.62 404.56L316.94 403.46M316.94 403.46L319.16 401.24M311.41 381.31L309.19 382.41M309.19 382.41L306.98 384.63M306.98 384.63L305.87 386.84M305.87 386.84L304.76 390.17M304.76 390.17L304.76 395.7M304.76 395.7L305.87 399.03M305.87 399.03L306.98 401.24M306.98 401.24L309.19 403.46M309.19 403.46L311.41 404.56M319.16 395.7L319.16 404.56M320.27 395.7L320.27 404.56M315.84 395.7L323.59 395.7M332.45 404.56L332.45 381.31M333.56 381.31L333.56 404.56M329.13 381.31L342.42 381.31M342.42 381.31L345.74 382.41M345.74 382.41L346.85 383.52M346.85 383.52L347.95 385.74M347.95 385.74L347.95 387.95M347.95 387.95L346.85 390.17M346.85 390.17L345.74 391.27M345.74 391.27L342.42 392.38M342.42 392.38L333.56 392.38M342.42 381.31L344.63 382.41M344.63 382.41L345.74 383.52M345.74 383.52L346.85 385.74M346.85 385.74L346.85 387.95M346.85 387.95L345.74 390.17M345.74 390.17L344.63 391.27M344.63 391.27L342.42 392.38M329.13 404.56L336.88 404.56M339.09 392.38L341.31 393.49M341.31 393.49L342.42 394.6M342.42 394.6L345.74 402.35M345.74 402.35L346.85 403.46M346.85 403.46L347.95 403.46M347.95 403.46L349.06 402.35M341.31 393.49L342.42 395.7M342.42 395.7L344.63 403.46M344.63 403.46L345.74 404.56M345.74 404.56L347.95 404.56M347.95 404.56L349.06 402.35M349.06 402.35L349.06 401.24M356.81 404.56L356.81 381.31M357.92 381.31L357.92 404.56M364.57 387.95L364.57 396.81M353.49 381.31L371.21 381.31M371.21 381.31L371.21 387.95M371.21 387.95L370.1 381.31M357.92 392.38L364.57 392.38M353.49 404.56L371.21 404.56M371.21 404.56L371.21 397.92M371.21 397.92L370.1 404.56M378.96 381.31L386.72 393.49M386.72 393.49L386.72 404.56M380.07 381.31L387.82 393.49M387.82 393.49L387.82 404.56M395.58 381.31L387.82 393.49M376.75 381.31L383.39 381.31M391.15 381.31L397.79 381.31M383.39 404.56L391.15 404.56"/>
<path d="M276.96 185.94L314.18 185.94"/>
<path d="M314.18 185.94L314.18 181.29"/>
<path d="M314.18 181.29L309.52 181.29"/>
<path d="M309.52 181.29L309.52 176.64"/>
<path d="M309.52 176.64L304.87 176.64"/>
<path d="M304.87 176.64L304.87 171.99"/>
<path d="M276.96 185.94L276.96 181.29"/>
<path d="M276.96 181.29L281.61 181.29"/>
<path d="M281.61 181.29L281.61 176.64"/>
<path d="M281.61 176.64L286.27 176.64"/>
<path d="M286.27 176.64L286.27 171.99"/>
<path d="M286.27 171.99L304.87 171.99"/>
<path d="M337.43 185.94L374.64 185.94"/>
<path d="M374.64 185.94L374.64 181.29"/>
<path d="M374.64 181.29L369.99 181.29"/>
<path d="M369.99 181.29L369.99 176.64"/>
<path d="M369.99 176.64L365.34 176.64"/>
<path d="M365.34 176.64L365.34 171.99"/>
<path d="M337.43 185.94L337.43 181.29"/>
<path d="M337.43 181.29L342.08 181.29"/>
<path d="M342.08 181.29L342.08 176.64"/>
<path d="M342.08 176.64L346.74 176.64"/>
<path d="M346.74 176.64L346.74 171.99"/>
<path d="M346.74 171.99L365.34 171.99"/>
<path d="M337.43 260.37L374.64 260.37"/>
<path d="M374.64 260.37L374.64 255.72"/>
<path d="M374.64 255.72L369.99 255.72"/>
<path d="M369.99 255.72L369.99 251.06"/>
<path d="M369.99 251.06L365.34 251.06"/>
<path d="M365.34 251.06L365.34 246.41"/>
<path d="M337.43 260.37L337.43 255.72"/>
<path d="M337.43 255.72L342.08 255.72"/>
<path d="M342.08 255.72L342.08 251.06"/>
<path d="M342.08 251.06L346.74 251.06"/>
<path d="M346.74 251.06L346.74 246.41"/>
<path d="M346.74 246.41L365.34 246.41"/>
<path d="M332.78 162.69L332.78 190.6"/>
<path d="M332.78 190.6L379.3 190.6"/>
<path d="M379.3 190.6L379.3 162.69"/>
<path d="M379.3 162.69L332.78 162.69"/>
<path d="M342.08 199.9L342.08 213.85"/>
<path d="M342.08 213.85L369.99 213.85"/>
<path d="M369.99 213.85L369.99 199.9"/>
<path d="M369.99 199.9L342.08 199.9"/>
<path d="M332.78 237.11L332.78 265.02"/>
<path d="M332.78 265.02L379.3 265.02"/>
<path d="M379.3 265.02L379.3 237.11"/>
<path d="M379.3 237.11L332.78 237.11"/>
<path d="M342.08 274.32L342.08 288.28"/>
<path d="M342.08 288.28L369.99 288.28"/>
<path d="M369.99 288.28L369.99 274.32"/>
<path d="M369.99 274.32L342.08 274.32"/>
<path d="M356.04 134.78L221.15 134.78"/>
<path d="M183.93 171.99L183.93 283.63"/>
<path d="M221.15 320.84L356.04 320.84"/>
<path d="M393.25 283.63L393.25 171.99"/>
<path d="M179.28 167.34L179.28 288.28"/>
<path d="M216.49 325.49L360.69 325.49"/>
<path d="M397.9 288.28L397.9 167.34"/>
<path d="M360.69 130.13L216.49 130.13"/>
<path d="M216.49 130.13L204.99 131.95M204.99 131.95L194.62 137.23M194.62 137.23L186.39 145.47M186.39 145.47L181.1 155.84M181.1 155.84L179.28 167.34"/>
<path d="M221.15 134.78L209.65 136.6M209.65 136.6L199.27 141.88M199.27 141.88L191.04 150.12M191.04 150.12L185.75 160.49M185.75 160.49L183.93 171.99"/>
<path d="M393.25 171.99L391.43 160.49M391.43 160.49L386.14 150.12M386.14 150.12L377.91 141.88M377.91 141.88L367.54 136.6M367.54 136.6L356.04 134.78"/>
<path d="M397.9 167.34L396.08 155.84M396.08 155.84L390.8 145.47M390.8 145.47L382.56 137.23M382.56 137.23L372.19 131.95M372.19 131.95L360.69 130.13"/>
<path d="M356.04 320.84L367.54 319.02M367.54 319.02L377.91 313.73M377.91 313.73L386.14 305.5M386.14 305.5L391.43 295.12M391.43 295.12L393.25 283.63"/>
<path d="M360.69 325.49L372.19 323.67M372.19 323.67L382.56 318.38M382.56 318.38L390.8 310.15M390.8 310.15L396.08 299.78M396.08 299.78L397.9 288.28"/>
<path d="M183.93 283.63L185.75 295.12M185.75 295.12L191.04 305.5M191.04 305.5L199.27 313.73M199.27 313.73L209.65 319.02M209.65 319.02L221.15 320.84"/>
<path d="M179.28 288.28L181.1 299.78M181.1 299.78L186.39 310.15M186.39 310.15L194.62 318.38M194.62 318.38L204.99 323.67M204.99 323.67L216.49 325.49"/>
<path d="M174.63 162.69L174.63 292.93"/>
<path d="M211.84 330.14L365.34 330.14"/>
<path d="M402.55 292.93L402.55 162.69"/>
<path d="M365.34 125.47L211.84 125.47"/>
<path d="M374.64 116.17L202.54 116.17"/>
<path d="M165.33 153.38L165.33 209.2"/>
<path d="M165.33 209.2L146.72 209.2"/>
<path d="M146.72 209.2L146.72 218.5"/>
<path d="M146.72 218.5L165.33 218.5"/>
<path d="M165.33 218.5L165.33 232.46"/>
<path d="M165.33 232.46L146.72 232.46"/>
<path d="M146.72 232.46L146.72 241.76"/>
<path d="M146.72 241.76L165.33 241.76"/>
<path d="M411.86 153.38L411.86 209.2"/>
<path d="M411.86 209.2L430.46 209.2"/>
<path d="M430.46 209.2L430.46 218.5"/>
<path d="M430.46 218.5L411.86 218.5"/>
<path d="M411.86 218.5L411.86 232.46"/>
<path d="M411.86 232.46L430.46 232.46"/>
<path d="M430.46 232.46L430.46 241.76"/>
<path d="M430.46 241.76L411.86 241.76"/>
<path d="M411.86 241.76L411.86 274.32"/>
<path d="M411.86 274.32L455.12 274.32"/>
<path d="M458.37 277.58L458.37 303.63"/>
<path d="M455.12 306.88L411.86 306.88"/>
<path d="M374.64 339.44L202.54 339.44"/>
<path d="M165.33 302.23L165.33 241.76"/>
<path d="M211.84 125.47L200.34 127.3M200.34 127.3L189.97 132.58M189.97 132.58L181.74 140.81M181.74 140.81L176.45 151.19M176.45 151.19L174.63 162.69"/>
<path d="M202.54 116.17L191.04 117.99M191.04 117.99L180.67 123.28M180.67 123.28L172.43 131.51M172.43 131.51L167.15 141.88M167.15 141.88L165.33 153.38"/>
<path d="M402.55 162.69L400.73 151.19M400.73 151.19L395.45 140.81M395.45 140.81L387.21 132.58M387.21 132.58L376.84 127.3M376.84 127.3L365.34 125.47"/>
<path d="M411.86 153.38L410.04 141.88M410.04 141.88L404.75 131.51M404.75 131.51L396.52 123.28M396.52 123.28L386.14 117.99M386.14 117.99L374.64 116.17"/>
<path d="M365.34 330.14L376.84 328.32M376.84 328.32L387.21 323.03M387.21 323.03L395.45 314.8M395.45 314.8L400.73 304.43M400.73 304.43L402.55 292.93"/>
<path d="M374.64 339.44L385.25 337.9M385.25 337.9L394.98 333.39M394.98 333.39L403.02 326.3M403.02 326.3L408.71 317.22M408.71 317.22L411.56 306.88"/>
<path d="M174.63 292.93L176.45 304.43M176.45 304.43L181.74 314.8M181.74 314.8L189.97 323.03M189.97 323.03L200.34 328.32M200.34 328.32L211.84 330.14"/>
<path d="M165.33 302.23L167.15 313.73M167.15 313.73L172.43 324.1M172.43 324.1L180.67 332.34M180.67 332.34L191.04 337.62M191.04 337.62L202.54 339.44"/>
<path d="M458.37 277.58L457.94 275.95M457.94 275.95L456.74 274.76M456.74 274.76L455.12 274.32"/>
<path d="M455.12 306.88L456.74 306.45M456.74 306.45L457.94 305.26M457.94 305.26L458.37 303.63"/>
<path d="M258.36 339.44L265.39 348.12M265.39 348.12L274.65 354.37M274.65 354.37L285.33 357.63M285.33 357.63L296.5 357.63M296.5 357.63L307.19 354.37M307.19 354.37L316.45 348.12M316.45 348.12L323.48 339.44"/>
<path d="M272.31 339.44L278.52 345.52M278.52 345.52L286.57 348.81M286.57 348.81L295.26 348.81M295.26 348.81L303.31 345.52M303.31 345.52L309.52 339.44"/>
<path d="M267.66 339.44L273.42 347.05M273.42 347.05L281.54 352.07M281.54 352.07L290.92 353.82M290.92 353.82L300.3 352.07M300.3 352.07L308.41 347.05M308.41 347.05L314.18 339.44"/>
<path d="M281.61 339.44L285.45 343.64M285.45 343.64L290.92 345.19M290.92 345.19L296.39 343.64M296.39 343.64L300.22 339.44"/>
<path d="M230.45 116.17L230.45 65"/>
<path d="M235.1 60.35L263.01 60.35"/>
<path d="M263.01 60.35L263.01 74.31"/>
<path d="M346.74 116.17L346.74 65"/>
<path d="M342.08 60.35L314.18 60.35"/>
<path d="M314.18 60.35L314.18 74.31"/>
<path d="M309.52 78.96L267.66 78.96"/>
<path d="M216.49 116.17L216.49 51.05"/>
<path d="M221.15 46.4L356.04 46.4"/>
<path d="M360.69 51.05L360.69 116.17"/>
<path d="M221.15 46.4L217.86 47.76M217.86 47.76L216.49 51.05"/>
<path d="M221.15 46.4L217.86 47.76M217.86 47.76L216.49 51.05"/>
<path d="M360.69 51.05L359.33 47.76M359.33 47.76L356.04 46.4"/>
<path d="M263.01 74.31L263.63 76.63M263.63 76.63L265.33 78.34M265.33 78.34L267.66 78.96"/>
<path d="M309.52 78.96L311.85 78.34M311.85 78.34L313.55 76.63M313.55 76.63L314.18 74.31"/>
<path d="M235.1 60.35L231.81 61.72M231.81 61.72L230.45 65"/>
<path d="M346.74 65L345.37 61.72M345.37 61.72L342.08 60.35"/>
<path d="M125.9 203.44L127.67 202.56M127.67 202.56L130.33 199.9M130.33 199.9L130.33 218.5"/>
<path d="M467.9 199.9L477.64 199.9M477.64 199.9L472.33 206.99M472.33 206.99L474.98 206.99M474.98 206.99L476.76 207.87M476.76 207.87L477.64 208.76M477.64 208.76L478.53 211.42M478.53 211.42L478.53 213.19M478.53 213.19L477.64 215.85M477.64 215.85L475.87 217.62M475.87 217.62L473.21 218.5M473.21 218.5L470.55 218.5M470.55 218.5L467.9 217.62M467.9 217.62L467.01 216.73M467.01 216.73L466.12 214.96"/>
<path d="M130.33 274.32L121.47 286.73M121.47 286.73L134.76 286.73M130.33 274.32L130.33 292.93"/>
<path d="M477.2 276.98L476.31 275.21M476.31 275.21L473.66 274.32M473.66 274.32L471.88 274.32M471.88 274.32L469.23 275.21M469.23 275.21L467.45 277.87M467.45 277.87L466.57 282.3M466.57 282.3L466.57 286.73M466.57 286.73L467.45 290.27M467.45 290.27L469.23 292.04M469.23 292.04L471.88 292.93M471.88 292.93L472.77 292.93M472.77 292.93L475.43 292.04M475.43 292.04L477.2 290.27M477.2 290.27L478.09 287.61M478.09 287.61L478.09 286.73M478.09 286.73L477.2 284.07M477.2 284.07L475.43 282.3M475.43 282.3L472.77 281.41M472.77 281.41L471.88 281.41M471.88 281.41L469.23 282.3M469.23 282.3L467.45 284.07M467.45 284.07L466.57 286.73"/>
</g>
</g>
</svg>
