<?xml version="1.0" standalone="no"?><svg xmlns="http://www.w3.org/2000/svg" width="600.000" height="450.000" viewBox="0.0 0.0 600.000 450.000" version="1.1">
<title>Acme Converter - Post-processed with EDS-Designer: 14.44 (info@symca.com)</title>
<desc>Acme Converter - Post-processed with EDS-Designer: 14.44 (info@symca.com)</desc>
<g id="EDS_STYLE_GROUP" fill="none" stroke="black" stroke-width="1.0">
<g id="0" display="visible">
<path d="M239.05 378.39L239.05 349.41M240.43 349.41L240.43 378.39M234.91 349.41L251.47 349.41M251.47 349.41L255.61 350.79M255.61 350.79L256.99 352.17M256.99 352.17L258.37 354.93M258.37 354.93L258.37 357.69M258.37 357.69L256.99 360.45M256.99 360.45L255.61 361.83M255.61 361.83L251.47 363.21M251.47 349.41L254.23 350.79M254.23 350.79L255.61 352.17M255.61 352.17L256.99 354.93M256.99 354.93L256.99 357.69M256.99 357.69L255.61 360.45M255.61 360.45L254.23 361.83M254.23 361.83L251.47 363.21M240.43 363.21L251.47 363.21M251.47 363.21L255.61 364.59M255.61 364.59L256.99 365.97M256.99 365.97L258.37 368.73M258.37 368.73L258.37 372.87M258.37 372.87L256.99 375.63M256.99 375.63L255.61 377.01M255.61 377.01L251.47 378.39M251.47 378.39L234.91 378.39M251.47 363.21L254.23 364.59M254.23 364.59L255.61 365.97M255.61 365.97L256.99 368.73M256.99 368.73L256.99 372.87M256.99 372.87L255.61 375.63M255.61 375.63L254.23 377.01M254.23 377.01L251.47 378.39M269.4 378.39L269.4 349.41M270.78 349.41L270.78 378.39M265.27 349.41L274.92 349.41M265.27 378.39L285.96 378.39M285.96 378.39L285.96 370.11M285.96 370.11L284.58 378.39M302.52 349.41L292.86 378.39M302.52 349.41L312.17 378.39M302.52 353.55L310.79 378.39M295.62 370.11L308.03 370.11M290.1 378.39L298.38 378.39M306.65 378.39L314.93 378.39M338.39 353.55L339.77 357.69M339.77 357.69L339.77 349.41M339.77 349.41L338.39 353.55M338.39 353.55L335.63 350.79M335.63 350.79L331.49 349.41M331.49 349.41L328.73 349.41M328.73 349.41L324.59 350.79M324.59 350.79L321.83 353.55M321.83 353.55L320.45 356.31M320.45 356.31L319.07 360.45M319.07 360.45L319.07 367.35M319.07 367.35L320.45 371.49M320.45 371.49L321.83 374.25M321.83 374.25L324.59 377.01M324.59 377.01L328.73 378.39M328.73 378.39L331.49 378.39M331.49 378.39L335.63 377.01M335.63 377.01L338.39 374.25M338.39 374.25L339.77 371.49M328.73 349.41L325.97 350.79M325.97 350.79L323.21 353.55M323.21 353.55L321.83 356.31M321.83 356.31L320.45 360.45M320.45 360.45L320.45 367.35M320.45 367.35L321.83 371.49M321.83 371.49L323.21 374.25M323.21 374.25L325.97 377.01M325.97 377.01L328.73 378.39M352.18 378.39L352.18 349.41M353.56 349.41L353.56 378.39M371.5 349.41L353.56 367.35M360.46 361.83L371.5 378.39M359.08 361.83L370.12 378.39M348.04 349.41L357.7 349.41M365.98 349.41L374.26 349.41M348.04 378.39L357.7 378.39M365.98 378.39L374.26 378.39"/>
<path d="M306.12 320.44L306.12 317.74M306.12 316.6L306.12 316.4M306.12 315.26L306.12 310.67M306.12 309.52L306.12 309.33M306.12 308.18L306.12 303.59M306.12 302.44L306.12 302.25M306.12 301.1L306.12 298.4"/>
<path d="M302.78 320.44L302.78 317.74M302.78 316.6L302.78 316.4M302.78 315.26L302.78 310.67M302.78 309.52L302.78 309.33M302.78 308.18L302.78 303.59M302.78 302.44L302.78 302.25M302.78 301.1L302.78 298.4"/>
<path d="M327.81 200.11L327.81 183.42"/>
<path d="M327.81 183.42L264.4 183.42"/>
<path d="M344.5 183.42L327.81 183.42"/>
<path d="M327.81 200.11L351.17 200.11"/>
<path d="M264.4 183.42L254.89 184.67M254.89 184.67L246.04 188.34"/>
<path d="M246.04 188.34L241.6 192.07M241.6 192.07L238.7 197.09M238.7 197.09L237.7 202.79"/>
<path d="M237.7 250.83L237.7 202.79"/>
<path d="M237.7 250.83L238.7 256.54M238.7 256.54L241.6 261.56M241.6 261.56L246.04 265.28"/>
<path d="M246.04 265.28L254.89 268.95M254.89 268.95L264.4 270.2"/>
<path d="M344.5 270.2L264.4 270.2"/>
<path d="M344.5 270.2L355.84 268.4M355.84 268.4L366.08 263.19M366.08 263.19L374.2 255.07M374.2 255.07L379.42 244.83M379.42 244.83L381.21 233.49"/>
<path d="M381.21 220.14L381.21 233.49"/>
<path d="M381.21 220.14L379.81 210.08M379.81 210.08L375.7 200.79M375.7 200.79L369.2 192.98M369.2 192.98L360.81 187.25M360.81 187.25L351.17 184.04"/>
<path d="M351.17 200.11L351.17 184.04"/>
<path d="M282.96 233.7L282.96 219.93"/>
<path d="M259.18 233.7L282.96 233.7"/>
<path d="M259.18 219.93L259.18 233.7"/>
<path d="M282.96 219.93L259.18 219.93"/>
<path d="M349.71 233.7L349.71 219.93"/>
<path d="M325.93 233.7L349.71 233.7"/>
<path d="M325.93 219.93L325.93 233.7"/>
<path d="M349.71 219.93L325.93 219.93"/>
<path d="M351.17 184.04L344.5 183.42"/>
<path d="M377.87 173.44L377.87 162.33"/>
<path d="M377.87 173.44L368.07 167.94M368.07 167.94L357.35 164.55M357.35 164.55L346.17 163.4"/>
<path d="M262.73 163.4L346.17 163.4"/>
<path d="M262.73 163.4L251.54 164.55M251.54 164.55L240.83 167.94M240.83 167.94L231.02 173.44"/>
<path d="M231.02 162.33L231.02 173.44"/>
<path d="M246.04 188.34L238.44 194.18M238.44 194.18L232.6 201.78M232.6 201.78L228.93 210.64M228.93 210.64L227.68 220.14"/>
<path d="M227.68 233.49L228.93 242.99M228.93 242.99L232.6 251.84M232.6 251.84L238.44 259.45M238.44 259.45L246.04 265.28"/>
<path d="M231.02 162.33L219.73 170.53M219.73 170.53L210.39 180.9M210.39 180.9L203.42 192.99M203.42 192.99L199.1 206.26M199.1 206.26L197.64 220.14"/>
<path d="M197.64 233.49L197.64 220.14"/>
<path d="M254.95 299.57L253.09 299.28"/>
<path d="M254.95 299.57L258.99 300.02"/>
<path d="M258.99 300.01L259.39 300.01"/>
<path d="M259.39 300.05L264.4 300.24"/>
<path d="M197.64 233.49L199.46 248.93M199.46 248.93L204.79 263.53M204.79 263.53L213.36 276.51M213.36 276.51L224.69 287.15M224.69 287.15L238.18 294.88M238.18 294.88L253.09 299.28"/>
<path d="M306.12 300.24L302.78 300.24"/>
<path d="M344.5 300.24L306.12 300.24"/>
<path d="M302.79 300.24L264.4 300.24"/>
<path d="M344.5 300.24L349.51 300.05"/>
<path d="M349.5 300.01L349.91 300.01"/>
<path d="M349.91 300.02L353.94 299.57"/>
<path d="M355.8 299.28L353.94 299.57"/>
<path d="M355.8 299.28L370.71 294.88M370.71 294.88L384.2 287.15M384.2 287.15L395.54 276.51M395.54 276.51L404.11 263.53M404.11 263.53L409.44 248.93M409.44 248.93L411.25 233.49"/>
<path d="M411.25 233.49L411.25 220.14"/>
<path d="M411.25 220.14L409.79 206.26M409.79 206.26L405.48 192.99M405.48 192.99L398.5 180.9M398.5 180.9L389.16 170.53M389.16 170.53L377.87 162.33"/>
<path d="M377.87 89.97L377.87 162.33"/>
<path d="M231.02 162.33L231.02 89.97"/>
<path d="M227.68 233.49L227.68 220.14"/>
<path d="M335.4 318.6L344.5 318.6"/>
<path d="M344.5 318.6L361.1 316.96M361.1 316.96L377.07 312.12M377.07 312.12L391.78 304.25M391.78 304.25L404.68 293.67M404.68 293.67L415.26 280.77M415.26 280.77L423.13 266.06M423.13 266.06L427.97 250.09M427.97 250.09L429.61 233.49"/>
<path d="M429.61 233.49L429.61 220.14"/>
<path d="M429.61 220.14L428.18 204.61M428.18 204.61L423.94 189.6M423.94 189.6L417.03 175.62M417.03 175.62L407.69 163.13M407.69 163.13L396.23 152.56"/>
<path d="M396.23 152.56L396.23 71.61"/>
<path d="M396.23 71.61L212.66 71.61"/>
<path d="M212.66 71.61L212.66 152.56"/>
<path d="M212.66 152.56L201.2 163.13M201.2 163.13L191.86 175.62M191.86 175.62L184.95 189.6M184.95 189.6L180.72 204.61M180.72 204.61L179.29 220.14"/>
<path d="M179.29 220.14L179.29 233.49"/>
<path d="M179.29 233.49L180.92 250.09M180.92 250.09L185.77 266.06M185.77 266.06L193.63 280.77M193.63 280.77L204.22 293.67M204.22 293.67L217.11 304.25M217.11 304.25L231.83 312.12M231.83 312.12L247.79 316.96M247.79 316.96L264.4 318.6"/>
<path d="M264.4 318.6L273.49 318.6"/>
<path d="M273.49 318.6L273.49 308.8"/>
<path d="M273.49 308.8L262.43 303.95"/>
<path d="M262.43 303.97L253.1 300.23"/>
<path d="M253.09 300.24L253.09 299.28"/>
<path d="M231.02 89.97L377.87 89.97"/>
<path d="M355.8 300.24L355.8 299.28"/>
<path d="M355.8 300.23L346.47 303.97"/>
<path d="M335.4 308.8L346.46 303.95"/>
<path d="M335.4 318.6L335.4 308.8"/>
<path d="M254.95 300.26L253.09 300.24"/>
<path d="M254.95 299.57L254.95 300.26"/>
<path d="M254.96 300.25L259 300.25"/>
<path d="M258.99 300.26L258.99 300.01"/>
<path d="M259.39 300.24L258.99 300.26"/>
<path d="M259.39 300.25L259.39 300.04"/>
<path d="M259.39 300.24L264.4 300.24"/>
<path d="M302.61 308.8L302.61 300.24"/>
<path d="M306.28 308.8L302.61 308.8"/>
<path d="M306.28 300.24L306.28 308.8"/>
<path d="M306.12 308.8L331.15 308.8"/>
<path d="M349.5 300.25L344.5 300.25"/>
<path d="M302.78 308.8L277.75 308.8"/>
<path d="M349.5 300.24L349.5 300.01"/>
<path d="M349.5 300.24L349.9 300.25"/>
<path d="M349.91 300.27L349.91 300.02"/>
<path d="M349.9 300.25L353.93 300.25"/>
<path d="M353.94 300.26L353.94 299.57"/>
<path d="M353.93 300.25L355.8 300.24"/>
<path d="M362.86 129.19L362.86 118.34"/>
<path d="M362.86 144.27L362.86 129.19"/>
<path d="M362.86 150.05L362.86 144.27"/>
<path d="M362.86 165.99L362.86 150.05"/>
<path d="M362.86 105.87L362.86 100.03"/>
<path d="M362.86 118.34L362.86 105.87"/>
<path d="M329.48 163.4L329.48 150.05"/>
<path d="M212.66 150.81L200.41 160.52M200.41 160.52L190.75 172.82M190.75 172.82L184.21 187.03M184.21 187.03L181.16 202.37"/>
<path d="M181.16 251.26L184.03 266.03M184.03 266.03L190.13 279.78M190.13 279.78L199.16 291.82M199.16 291.82L210.65 301.53M210.65 301.53L224.03 308.42"/>
<path d="M384.87 308.41L398.24 301.53M398.24 301.53L409.73 291.82M409.73 291.82L418.76 279.78M418.76 279.78L424.86 266.03M424.86 266.03L427.73 251.26"/>
<path d="M427.73 202.37L424.68 187.03M424.68 187.03L418.15 172.82M418.15 172.82L408.49 160.52M408.49 160.52L396.23 150.81"/>
<path d="M279.42 163.4L279.42 150.05"/>
<path d="M317.01 153.39L317.01 163.4"/>
<path d="M317.01 153.39L291.98 153.39"/>
<path d="M291.98 163.4L291.98 153.39"/>
<path d="M246.04 150.05L246.04 165.99"/>
<path d="M246.04 144.27L246.04 150.05"/>
<path d="M246.04 129.19L246.04 144.27"/>
<path d="M246.04 118.34L246.04 129.19"/>
<path d="M246.04 118.34L246.04 105.87"/>
<path d="M246.04 105.87L246.04 100.03"/>
<path d="M332.66 318.6L335.4 318.6"/>
<path d="M332.66 318.6L331.15 318.6"/>
<path d="M306.12 318.6L331.15 318.6"/>
<path d="M302.78 318.6L306.12 318.6"/>
<path d="M277.75 318.6L302.78 318.6"/>
<path d="M277.75 318.6L276.24 318.6"/>
<path d="M276.24 318.6L273.49 318.6"/>
<path d="M276.24 308.8L276.24 318.6"/>
<path d="M276.24 308.8L273.49 308.8"/>
<path d="M259 300.25L276.24 308.8"/>
<path d="M254.96 300.25L262.43 303.95"/>
<path d="M353.93 300.25L346.46 303.95"/>
<path d="M349.9 300.25L332.66 308.8"/>
<path d="M335.4 308.8L332.66 308.8"/>
<path d="M332.66 308.8L332.66 318.6"/>
<path d="M276.24 308.8L277.75 308.8"/>
<path d="M306.28 308.8L306.28 318.6"/>
<path d="M302.78 308.8L302.78 318.6"/>
<path d="M332.66 308.8L331.15 308.8"/>
<path d="M362.86 118.34L337.41 118.34"/>
<path d="M337.41 129.19L362.86 129.19"/>
<path d="M337.41 118.34L337.41 129.19"/>
<path d="M329.48 144.27L362.86 144.27"/>
<path d="M337.41 129.19L329.48 129.19"/>
<path d="M329.48 144.27L329.48 129.19"/>
<path d="M329.48 149.94L329.48 144.27"/>
<path d="M279.42 149.94L329.48 149.94"/>
<path d="M279.42 144.27L279.42 149.94"/>
<path d="M246.04 144.27L279.42 144.27"/>
<path d="M246.04 150.05L362.86 150.05"/>
<path d="M362.86 100.03L246.04 100.03"/>
<path d="M246.04 105.87L362.86 105.87"/>
<path d="M337.41 107.49L337.41 118.34"/>
<path d="M271.49 118.34L271.49 107.49"/>
<path d="M271.49 107.49L337.41 107.49"/>
<path d="M279.42 129.19L271.49 129.19"/>
<path d="M329.48 129.19L279.42 129.19"/>
<path d="M246.04 129.19L271.49 129.19"/>
<path d="M279.42 144.27L279.42 129.19"/>
<path d="M246.04 118.34L271.49 118.34"/>
<path d="M271.49 129.19L271.49 118.34"/>
<path d="M331.15 308.8L331.15 318.6"/>
<path d="M277.75 308.8L277.75 318.6"/>
<path d="M337.41 113.33L271.49 113.33"/>
<path d="M259.39 300.24L277.75 308.8"/>
<path d="M349.5 300.24L331.15 308.8"/>
<path d="M443.23 220.03L445.44 218.92M445.44 218.92L448.75 215.61M448.75 215.61L448.75 238.79"/>
<path d="M152.36 221.13L152.36 220.03M152.36 220.03L153.46 217.82M153.46 217.82L154.56 216.71M154.56 216.71L156.77 215.61M156.77 215.61L161.18 215.61M161.18 215.61L163.39 216.71M163.39 216.71L164.5 217.82M164.5 217.82L165.6 220.03M165.6 220.03L165.6 222.23M165.6 222.23L164.5 224.44M164.5 224.44L162.29 227.75M162.29 227.75L151.25 238.79M151.25 238.79L166.7 238.79"/>
</g>
</g>
</svg>
