<?xml version="1.0" standalone="no"?><svg xmlns="http://www.w3.org/2000/svg" width="600.000" height="450.000" viewBox="0.0 0.0 600.000 450.000" version="1.1">
<title>Acme Converter - Post-processed with EDS-Designer: 14.44 (info@symca.com)</title>
<desc>Acme Converter - Post-processed with EDS-Designer: 14.44 (info@symca.com)</desc>
<g id="EDS_STYLE_GROUP" fill="none" stroke="black" stroke-width="1.0">
<g id="0" display="visible">
<path d="M229.33 395.88L232.15 404.35M232.15 404.35L232.15 387.41M232.15 387.41L229.33 395.88M229.33 395.88L223.68 390.23M223.68 390.23L215.21 387.41M215.21 387.41L209.57 387.41M209.57 387.41L201.1 390.23M201.1 390.23L195.45 395.88M195.45 395.88L192.63 401.52M192.63 401.52L189.81 409.99M189.81 409.99L189.81 424.1M189.81 424.1L192.63 432.57M192.63 432.57L195.45 438.22M195.45 438.22L201.1 443.86M201.1 443.86L209.57 446.69M209.57 446.69L215.21 446.69M215.21 446.69L223.68 443.86M223.68 443.86L229.33 438.22M209.57 387.41L203.92 390.23M203.92 390.23L198.28 395.88M198.28 395.88L195.45 401.52M195.45 401.52L192.63 409.99M192.63 409.99L192.63 424.1M192.63 424.1L195.45 432.57M195.45 432.57L198.28 438.22M198.28 438.22L203.92 443.86M203.92 443.86L209.57 446.69M229.33 424.1L229.33 446.69M232.15 424.1L232.15 446.69M220.86 424.1L240.62 424.1M263.2 446.69L263.2 387.41M266.02 387.41L266.02 446.69M254.73 387.41L288.6 387.41M288.6 387.41L297.07 390.23M297.07 390.23L299.89 393.05M299.89 393.05L302.72 398.7M302.72 398.7L302.72 404.35M302.72 404.35L299.89 409.99M299.89 409.99L297.07 412.81M297.07 412.81L288.6 415.64M288.6 415.64L266.02 415.64M288.6 387.41L294.25 390.23M294.25 390.23L297.07 393.05M297.07 393.05L299.89 398.7M299.89 398.7L299.89 404.35M299.89 404.35L297.07 409.99M297.07 409.99L294.25 412.81M294.25 412.81L288.6 415.64M254.73 446.69L274.49 446.69M280.13 415.64L285.78 418.46M285.78 418.46L288.6 421.28M288.6 421.28L297.07 441.04M297.07 441.04L299.89 443.86M299.89 443.86L302.72 443.86M302.72 443.86L305.54 441.04M285.78 418.46L288.6 424.1M288.6 424.1L294.25 443.86M294.25 443.86L297.07 446.69M297.07 446.69L302.72 446.69M302.72 446.69L305.54 441.04M305.54 441.04L305.54 438.22M325.3 446.69L325.3 387.41M328.12 387.41L328.12 446.69M345.06 404.35L345.06 426.93M316.83 387.41L361.99 387.41M361.99 387.41L361.99 404.35M361.99 404.35L359.17 387.41M328.12 415.64L345.06 415.64M316.83 446.69L361.99 446.69M361.99 446.69L361.99 429.75M361.99 429.75L359.17 446.69M381.75 387.41L401.51 418.46M401.51 418.46L401.51 446.69M384.57 387.41L404.33 418.46M404.33 418.46L404.33 446.69M424.09 387.41L404.33 418.46M376.11 387.41L393.04 387.41M412.8 387.41L429.74 387.41M393.04 446.69L412.8 446.69"/>
<path d="M463.89 119.48L423.5 119.48"/>
<path d="M423.5 119.48L407.32 114.16M407.32 114.16L390.39 112.37M390.39 112.37L373.46 114.16M373.46 114.16L357.28 119.48"/>
<path d="M357.28 119.48L262.27 119.48"/>
<path d="M262.27 119.48L246.09 114.16M246.09 114.16L229.16 112.37M229.16 112.37L212.22 114.16M212.22 114.16L196.05 119.48"/>
<path d="M196.05 119.48L155.65 119.48"/>
<path d="M155.65 119.48L155.65 285.45"/>
<path d="M155.65 285.45L463.89 285.45"/>
<path d="M463.89 285.45L463.89 119.48"/>
<path d="M180.55 254.63L439 254.63"/>
<path d="M180.55 150.3L180.55 254.63"/>
<path d="M439 150.3L180.55 150.3"/>
<path d="M439 254.63L439 150.3"/>
<path d="M371.42 47.16L383.28 47.16"/>
<path d="M371.42 82.73L371.42 47.16"/>
<path d="M371.42 82.73L248.12 82.73"/>
<path d="M248.12 82.73L248.12 47.16"/>
<path d="M236.27 47.16L248.12 47.16"/>
<path d="M236.27 30.56L236.27 47.16"/>
<path d="M200.7 30.56L236.27 30.56"/>
<path d="M200.7 82.73L200.7 30.56"/>
<path d="M200.7 82.73L165.14 82.73"/>
<path d="M165.14 82.73L165.14 30.56"/>
<path d="M136.68 30.56L165.14 30.56"/>
<path d="M136.68 30.56L136.68 304.42"/>
<path d="M136.68 304.42L482.86 304.42"/>
<path d="M482.86 304.42L482.86 30.56"/>
<path d="M454.41 30.56L482.86 30.56"/>
<path d="M454.41 82.73L454.41 30.56"/>
<path d="M454.41 82.73L418.84 82.73"/>
<path d="M418.84 82.73L418.84 30.56"/>
<path d="M383.28 30.56L418.84 30.56"/>
<path d="M383.28 30.56L383.28 47.16"/>
<path d="M371.42 47.16L248.12 47.16"/>
<path d="M236.27 25.82L236.27 30.56"/>
<path d="M165.14 30.56L165.14 3.3"/>
<path d="M136.68 30.56L136.68 3.3"/>
<path d="M482.86 30.56L482.86 3.3"/>
<path d="M454.41 3.3L454.41 30.56"/>
<path d="M383.28 25.82L383.28 30.56"/>
<path d="M322.81 22.27L322.81 28.19"/>
<path d="M322.81 28.19L322.81 47.16"/>
<path d="M296.73 28.19L296.73 47.16"/>
<path d="M322.81 28.19L296.73 28.19"/>
<path d="M296.73 22.27L296.73 28.19"/>
<path d="M236.27 25.82L236.27 22.27"/>
<path d="M295.55 47.16L295.55 25.82"/>
<path d="M236.27 25.82L295.55 25.82"/>
<path d="M324 25.82L383.28 25.82"/>
<path d="M324 25.82L324 47.16"/>
<path d="M383.28 25.82L383.28 22.27"/>
<path d="M236.27 25.82L212.56 25.82"/>
<path d="M212.56 25.82L212.56 30.56"/>
<path d="M184.11 82.73L184.11 3.3"/>
<path d="M165.14 3.3L184.11 3.3"/>
<path d="M435.44 3.3L454.41 3.3"/>
<path d="M435.44 82.73L435.44 3.3"/>
<path d="M136.68 3.3L165.14 3.3"/>
<path d="M195.96 328.13L195.96 304.42"/>
<path d="M423.58 328.13L195.96 328.13"/>
<path d="M423.58 328.13L423.58 304.42"/>
<path d="M482.86 3.3L454.41 3.3"/>
<path d="M406.99 25.82L383.28 25.82"/>
<path d="M406.99 25.82L406.99 30.56"/>
<path d="M383.28 22.27L322.81 22.27"/>
<path d="M236.27 22.27L296.73 22.27"/>
<path d="M406.99 3.3L406.99 22.27"/>
<path d="M406.99 3.3L212.56 3.3"/>
<path d="M212.56 3.3L212.56 22.27"/>
<path d="M212.56 22.27L236.27 22.27"/>
<path d="M212.56 25.82L212.56 22.27"/>
<path d="M383.28 22.27L406.99 22.27"/>
<path d="M406.99 25.82L406.99 22.27"/>
<path d="M339.41 198.91L332.3 198.91"/>
<path d="M339.41 206.02L339.41 198.91"/>
<path d="M332.3 206.02L339.41 206.02"/>
<path d="M332.3 198.91L332.3 206.02"/>
<path d="M287.25 198.91L280.13 198.91"/>
<path d="M287.25 206.02L287.25 198.91"/>
<path d="M280.13 206.02L287.25 206.02"/>
<path d="M280.13 198.91L280.13 206.02"/>
<path d="M235.08 198.91L227.97 198.91"/>
<path d="M235.08 206.02L235.08 198.91"/>
<path d="M227.97 206.02L235.08 206.02"/>
<path d="M227.97 198.91L227.97 206.02"/>
<path d="M391.57 198.91L384.46 198.91"/>
<path d="M391.57 206.02L391.57 198.91"/>
<path d="M384.46 206.02L391.57 206.02"/>
<path d="M384.46 198.91L384.46 206.02"/>
<path d="M503.35 182.69L507.87 180.44M507.87 180.44L514.64 173.66M514.64 173.66L514.64 221.08"/>
<path d="M107.99 172.65L85.41 204.26M85.41 204.26L119.28 204.26M107.99 172.65L107.99 220.07"/>
</g>
</g>
</svg>
