<?xml version="1.0" standalone="no"?><svg xmlns="http://www.w3.org/2000/svg" width="600.000" height="450.000" viewBox="0.0 0.0 600.000 450.000" version="1.1">
<title>Acme Converter - Post-processed with EDS-Designer: 14.44 (info@symca.com)</title>
<desc>Acme Converter - Post-processed with EDS-Designer: 14.44 (info@symca.com)</desc>
<g id="EDS_STYLE_GROUP" fill="none" stroke="black" stroke-width="1.0">
<g id="0" display="visible">
<path d="M296.35 124.47L376.76 124.47"/>
<path d="M296.35 310.14L376.76 310.14"/>
<path d="M376.76 310.14L394.88 305.1M394.88 305.1L411.64 296.57M411.64 296.57L426.37 284.88M426.37 284.88L438.48 270.49M438.48 270.49L447.5 253.98M447.5 253.98L453.05 236.02M453.05 236.02L454.93 217.3M454.93 217.3L453.05 198.59M453.05 198.59L447.5 180.62M447.5 180.62L438.48 164.12M438.48 164.12L426.37 149.73M426.37 149.73L411.64 138.04M411.64 138.04L394.88 129.5M394.88 129.5L376.76 124.47"/>
<path d="M217.2 138.5L375.5 138.5"/>
<path d="M375.5 296.1L391.84 291.19M391.84 291.19L406.76 282.94M406.76 282.94L419.6 271.71M419.6 271.71L429.78 258.03M429.78 258.03L436.83 242.5M436.83 242.5L440.44 225.83M440.44 225.83L440.44 208.77M440.44 208.77L436.83 192.11M436.83 192.11L429.78 176.58M429.78 176.58L419.6 162.89M419.6 162.89L406.76 151.67M406.76 151.67L391.84 143.41M391.84 143.41L375.5 138.5"/>
<path d="M296.35 260.14L377.73 260.14"/>
<path d="M393.34 290.54L393.34 273.47"/>
<path d="M393.34 273.47L390.44 266.72M390.44 266.72L384.85 261.94M384.85 261.94L377.73 260.14"/>
<path d="M296.35 331.37L351 331.37"/>
<path d="M351 331.37L366.27 328.57M366.27 328.57L380.86 323.25M380.86 323.25L394.34 315.55M394.34 315.55L406.35 305.7"/>
<path d="M402.38 132.8L402.38 51.51"/>
<path d="M296.35 79.05L343.89 79.05"/>
<path d="M343.89 79.05L343.89 46.5"/>
<path d="M343.89 46.5L383.54 46.5"/>
<path d="M402.38 51.51L383.54 46.5"/>
<path d="M344.53 124.47L344.53 109.64"/>
<path d="M344.53 109.64L373.96 109.64"/>
<path d="M402.38 118.49L388.43 113.24M388.43 113.24L373.96 109.64"/>
<path d="M343.89 72.32L296.35 72.32"/>
<path d="M377.2 315.41L395.96 310.33M395.96 310.33L413.37 301.71M413.37 301.71L428.77 289.87M428.77 289.87L441.58 275.25M441.58 275.25L451.3 258.43M451.3 258.43L457.57 240.04M457.57 240.04L460.14 220.78M460.14 220.78L458.92 201.39M458.92 201.39L453.95 182.61M453.95 182.61L445.43 165.15M445.43 165.15L433.68 149.68M433.68 149.68L419.14 136.78M419.14 136.78L402.38 126.96"/>
<path d="M296.35 315.41L377.2 315.41"/>
<path d="M296.35 315.41L215.5 315.41"/>
<path d="M190.33 126.96L173.56 136.78M173.56 136.78L159.03 149.68M159.03 149.68L147.27 165.15M147.27 165.15L138.75 182.61M138.75 182.61L133.79 201.39M133.79 201.39L132.57 220.78M132.57 220.78L135.14 240.04M135.14 240.04L141.41 258.43M141.41 258.43L151.13 275.25M151.13 275.25L163.93 289.87M163.93 289.87L179.34 301.71M179.34 301.71L196.75 310.33M196.75 310.33L215.5 315.41"/>
<path d="M248.82 72.32L296.35 72.32"/>
<path d="M218.75 109.64L204.28 113.24M204.28 113.24L190.33 118.49"/>
<path d="M248.18 109.64L218.75 109.64"/>
<path d="M248.18 124.47L248.18 109.64"/>
<path d="M209.17 46.5L190.33 51.51"/>
<path d="M248.82 46.5L209.17 46.5"/>
<path d="M248.82 79.05L248.82 46.5"/>
<path d="M296.35 79.05L248.82 79.05"/>
<path d="M190.33 132.8L190.33 51.51"/>
<path d="M186.36 305.7L198.36 315.55M198.36 315.55L211.85 323.25M211.85 323.25L226.43 328.57M226.43 328.57L241.7 331.37"/>
<path d="M296.35 331.37L241.7 331.37"/>
<path d="M214.98 260.14L207.85 261.94M207.85 261.94L202.26 266.72M202.26 266.72L199.37 273.47"/>
<path d="M199.37 290.54L199.37 273.47"/>
<path d="M296.35 260.14L214.98 260.14"/>
<path d="M217.2 138.5L200.87 143.41M200.87 143.41L185.94 151.67M185.94 151.67L173.1 162.89M173.1 162.89L162.93 176.58M162.93 176.58L155.87 192.11M155.87 192.11L152.27 208.77M152.27 208.77L152.27 225.83M152.27 225.83L155.87 242.5M155.87 242.5L162.93 258.03M162.93 258.03L173.1 271.71M173.1 271.71L185.94 282.94M185.94 282.94L200.87 291.19M200.87 291.19L217.2 296.1"/>
<path d="M375.5 296.1L217.2 296.1"/>
<path d="M215.95 124.47L197.83 129.5M197.83 129.5L181.07 138.04M181.07 138.04L166.34 149.73M166.34 149.73L154.22 164.12M154.22 164.12L145.21 180.62M145.21 180.62L139.65 198.59M139.65 198.59L137.77 217.3M137.77 217.3L139.65 236.02M139.65 236.02L145.21 253.98M145.21 253.98L154.22 270.49M154.22 270.49L166.34 284.88M166.34 284.88L181.07 296.57M181.07 296.57L197.83 305.1M197.83 305.1L215.95 310.14"/>
<path d="M296.35 310.14L215.95 310.14"/>
<path d="M296.35 124.47L215.95 124.47"/>
<path d="M121.26 367.78L128.19 404.19M122.99 367.78L128.19 395.52M135.13 367.78L128.19 404.19M135.13 367.78L142.06 404.19M136.86 367.78L142.06 395.52M148.99 367.78L142.06 404.19M116.06 367.78L128.19 367.78M143.79 367.78L154.2 367.78M173.27 367.78L161.13 404.19M173.27 367.78L185.4 404.19M173.27 372.98L183.67 404.19M164.6 393.78L180.2 393.78M157.66 404.19L168.06 404.19M178.47 404.19L188.87 404.19M206.2 404.19L206.2 367.78M207.94 367.78L207.94 404.19M195.8 367.78L194.07 378.18M194.07 378.18L194.07 367.78M194.07 367.78L220.07 367.78M220.07 367.78L220.07 378.18M220.07 378.18L218.34 367.78M201 404.19L213.14 404.19M232.21 404.19L232.21 367.78M233.94 367.78L233.94 404.19M244.34 378.18L244.34 392.05M227.01 367.78L254.75 367.78M254.75 367.78L254.75 378.18M254.75 378.18L253.01 367.78M233.94 385.12L244.34 385.12M227.01 404.19L254.75 404.19M254.75 404.19L254.75 393.78M254.75 393.78L253.01 404.19M268.61 404.19L268.61 367.78M270.35 367.78L270.35 404.19M263.41 367.78L284.22 367.78M284.22 367.78L289.42 369.51M289.42 369.51L291.15 371.25M291.15 371.25L292.89 374.71M292.89 374.71L292.89 378.18M292.89 378.18L291.15 381.65M291.15 381.65L289.42 383.38M289.42 383.38L284.22 385.12M284.22 385.12L270.35 385.12M284.22 367.78L287.68 369.51M287.68 369.51L289.42 371.25M289.42 371.25L291.15 374.71M291.15 374.71L291.15 378.18M291.15 378.18L289.42 381.65M289.42 381.65L287.68 383.38M287.68 383.38L284.22 385.12M263.41 404.19L275.55 404.19M279.02 385.12L282.48 386.85M282.48 386.85L284.22 388.58M284.22 388.58L289.42 400.72M289.42 400.72L291.15 402.45M291.15 402.45L292.89 402.45M292.89 402.45L294.62 400.72M282.48 386.85L284.22 390.32M284.22 390.32L287.68 402.45M287.68 402.45L289.42 404.19M289.42 404.19L292.89 404.19M292.89 404.19L294.62 400.72M294.62 400.72L294.62 398.99M343.16 404.19L343.16 367.78M344.89 367.78L344.89 404.19M337.96 367.78L358.76 367.78M358.76 367.78L363.96 369.51M363.96 369.51L365.7 371.25M365.7 371.25L367.43 374.71M367.43 374.71L367.43 378.18M367.43 378.18L365.7 381.65M365.7 381.65L363.96 383.38M363.96 383.38L358.76 385.12M358.76 367.78L362.23 369.51M362.23 369.51L363.96 371.25M363.96 371.25L365.7 374.71M365.7 374.71L365.7 378.18M365.7 378.18L363.96 381.65M363.96 381.65L362.23 383.38M362.23 383.38L358.76 385.12M344.89 385.12L358.76 385.12M358.76 385.12L363.96 386.85M363.96 386.85L365.7 388.58M365.7 388.58L367.43 392.05M367.43 392.05L367.43 397.25M367.43 397.25L365.7 400.72M365.7 400.72L363.96 402.45M363.96 402.45L358.76 404.19M358.76 404.19L337.96 404.19M358.76 385.12L362.23 386.85M362.23 386.85L363.96 388.58M363.96 388.58L365.7 392.05M365.7 392.05L365.7 397.25M365.7 397.25L363.96 400.72M363.96 400.72L362.23 402.45M362.23 402.45L358.76 404.19M381.3 404.19L381.3 367.78M383.03 367.78L383.03 404.19M376.1 367.78L388.24 367.78M376.1 404.19L402.1 404.19M402.1 404.19L402.1 393.78M402.1 393.78L400.37 404.19M412.51 367.78L412.51 393.78M412.51 393.78L414.24 398.99M414.24 398.99L417.71 402.45M417.71 402.45L422.91 404.19M422.91 404.19L426.38 404.19M426.38 404.19L431.58 402.45M431.58 402.45L435.04 398.99M435.04 398.99L436.78 393.78M436.78 393.78L436.78 367.78M414.24 367.78L414.24 393.78M414.24 393.78L415.97 398.99M415.97 398.99L419.44 402.45M419.44 402.45L422.91 404.19M407.31 367.78L419.44 367.78M431.58 367.78L441.98 367.78M454.11 404.19L454.11 367.78M455.85 367.78L455.85 404.19M466.25 378.18L466.25 392.05M448.91 367.78L476.65 367.78M476.65 367.78L476.65 378.18M476.65 378.18L474.92 367.78M455.85 385.12L466.25 385.12M448.91 404.19L476.65 404.19M476.65 404.19L476.65 393.78M476.65 393.78L474.92 404.19"/>
<path d="M96.29 213.14L99.07 211.75M99.07 211.75L103.23 207.59M103.23 207.59L103.23 236.72"/>
<path d="M484.63 214.53L484.63 213.14M484.63 213.14L486.01 210.37M486.01 210.37L487.4 208.98M487.4 208.98L490.17 207.59M490.17 207.59L495.72 207.59M495.72 207.59L498.49 208.98M498.49 208.98L499.88 210.37M499.88 210.37L501.27 213.14M501.27 213.14L501.27 215.91M501.27 215.91L499.88 218.69M499.88 218.69L497.11 222.85M497.11 222.85L483.24 236.72M483.24 236.72L502.66 236.72"/>
<path d="M323.66 192.26L323.66 244"/>
<path d="M389.19 203.04L372.81 203.19"/>
<path d="M334.58 203.19L334.58 233.08"/>
<path d="M334.58 233.08L389.19 233.08"/>
<path d="M334.58 233.08L323.66 244"/>
<path d="M334.58 203.19L323.66 192.26"/>
<path d="M350.96 203.04L350.96 167.55"/>
<path d="M350.96 167.55L372.81 167.55"/>
<path d="M372.81 167.55L372.81 203.04"/>
<path d="M350.96 192.26L323.66 192.26"/>
<path d="M372.81 189.39L350.96 189.39"/>
<path d="M350.96 203.19L334.58 203.19"/>
<path d="M400.11 192.26L400.11 244"/>
<path d="M389.19 203.19L389.19 233.08"/>
<path d="M389.19 233.08L400.11 244"/>
<path d="M389.19 203.19L400.11 192.26"/>
<path d="M372.81 192.26L400.11 192.26"/>
<path d="M372.81 203.19L389.19 203.19"/>
<path d="M400.11 244L323.66 244"/>
<path d="M269.05 192.26L269.05 244"/>
<path d="M203.52 203.04L219.9 203.19"/>
<path d="M258.13 203.19L258.13 233.08"/>
<path d="M258.13 233.08L203.52 233.08"/>
<path d="M258.13 233.08L269.05 244"/>
<path d="M258.13 203.19L269.05 192.26"/>
<path d="M241.74 203.04L241.74 167.55"/>
<path d="M241.74 167.55L219.9 167.55"/>
<path d="M219.9 167.55L219.9 203.04"/>
<path d="M241.74 192.26L269.05 192.26"/>
<path d="M219.9 189.39L241.74 189.39"/>
<path d="M241.74 203.19L258.13 203.19"/>
<path d="M192.6 192.26L192.6 244"/>
<path d="M203.52 203.19L203.52 233.08"/>
<path d="M203.52 233.08L192.6 244"/>
<path d="M203.52 203.19L192.6 192.26"/>
<path d="M219.9 192.26L192.6 192.26"/>
<path d="M219.9 203.19L203.52 203.19"/>
<path d="M192.6 244L269.05 244"/>
</g>
</g>
</svg>
