<?xml version="1.0" standalone="no"?><svg xmlns="http://www.w3.org/2000/svg" width="600.000" height="450.000" viewBox="0.0 0.0 600.000 450.000" version="1.1">
<title>Acme Converter - Post-processed with EDS-Designer: 14.44 (info@symca.com)</title>
<desc>Acme Converter - Post-processed with EDS-Designer: 14.44 (info@symca.com)</desc>
<g id="EDS_STYLE_GROUP" fill="none" stroke="black" stroke-width="1.0">
<g id="0" display="visible">
<path d="M171.46 123.69L166.55 130.56M166.55 130.56L173.91 130.56M171.46 123.69L171.46 134M176.85 126.15L176.85 125.65M176.85 125.65L177.34 124.67M177.34 124.67L177.84 124.18M177.84 124.18L178.82 123.69M178.82 123.69L180.78 123.69M180.78 123.69L181.76 124.18M181.76 124.18L182.25 124.67M182.25 124.67L182.74 125.65M182.74 125.65L182.74 126.64M182.74 126.64L182.25 127.62M182.25 127.62L181.27 129.09M181.27 129.09L176.36 134M176.36 134L183.23 134"/>
<path d="M433.45 126.62L432.96 128.09M432.96 128.09L431.98 129.07M431.98 129.07L430.51 129.56M430.51 129.56L430.01 129.56M430.01 129.56L428.54 129.07M428.54 129.07L427.56 128.09M427.56 128.09L427.07 126.62M427.07 126.62L427.07 126.13M427.07 126.13L427.56 124.66M427.56 124.66L428.54 123.68M428.54 123.68L430.01 123.19M430.01 123.19L430.51 123.19M430.51 123.19L431.98 123.68M431.98 123.68L432.96 124.66M432.96 124.66L433.45 126.62M433.45 126.62L433.45 129.07M433.45 129.07L432.96 131.53M432.96 131.53L431.98 133M431.98 133L430.51 133.49M430.51 133.49L429.52 133.49M429.52 133.49L428.05 133M428.05 133L427.56 132.02"/>
<path d="M167.89 325.99L173.29 325.99M173.29 325.99L170.35 329.91M170.35 329.91L171.82 329.91M171.82 329.91L172.8 330.4M172.8 330.4L173.29 330.89M173.29 330.89L173.78 332.37M173.78 332.37L173.78 333.35M173.78 333.35L173.29 334.82M173.29 334.82L172.31 335.8M172.31 335.8L170.84 336.29M170.84 336.29L169.36 336.29M169.36 336.29L167.89 335.8M167.89 335.8L167.4 335.31M167.4 335.31L166.91 334.33M181.63 325.99L176.72 332.86M176.72 332.86L184.08 332.86M181.63 325.99L181.63 336.29"/>
<path d="M430.46 327.63L431.44 327.14M431.44 327.14L432.91 325.67M432.91 325.67L432.91 335.98"/>
<path d="M402.06 127.76L400.21 117.95M400.21 117.95L395.54 109.13M395.54 109.13L388.49 102.08M388.49 102.08L379.67 97.41M379.67 97.41L369.86 95.56"/>
<path d="M411.72 127.76L409.25 115.92M409.25 115.92L403.87 105.08M403.87 105.08L395.94 95.95M395.94 95.95L385.96 89.12"/>
<path d="M379.52 97.17L379.52 74.63"/>
<path d="M385.96 100.39L385.96 45.65"/>
<path d="M278.09 95.56L278.09 58.53"/>
<path d="M329.61 58.53L329.61 95.56"/>
<path d="M360.2 95.56L360.2 45.65"/>
<path d="M353.76 45.65L353.76 95.56"/>
<path d="M237.84 95.56L228.04 97.41M228.04 97.41L219.22 102.08M219.22 102.08L212.16 109.13M212.16 109.13L207.5 117.95M207.5 117.95L205.64 127.76"/>
<path d="M221.74 89.12L211.77 95.95M211.77 95.95L203.84 105.08M203.84 105.08L198.46 115.92M198.46 115.92L195.98 127.76"/>
<path d="M221.74 100.39L221.74 45.65"/>
<path d="M228.18 97.36L228.18 74.63"/>
<path d="M245.89 95.56L245.89 45.65"/>
<path d="M252.33 45.65L252.33 95.56"/>
<path d="M421.38 337.06L421.38 353.16"/>
<path d="M369.86 362.82L379.67 360.96M379.67 360.96L388.49 356.3M388.49 356.3L395.54 349.24M395.54 349.24L400.21 340.42M400.21 340.42L402.06 330.62"/>
<path d="M369.86 372.48L382.56 369.98M382.56 369.98L393.98 363.89M393.98 363.89L403.13 354.73M403.13 354.73L409.22 343.31M409.22 343.31L411.72 330.62"/>
<path d="M186.32 337.06L186.32 353.16"/>
<path d="M205.64 330.62L207.5 340.42M207.5 340.42L212.16 349.24M212.16 349.24L219.22 356.3M219.22 356.3L228.04 360.96M228.04 360.96L237.84 362.82"/>
<path d="M195.98 330.62L198.49 343.31M198.49 343.31L204.58 354.73M204.58 354.73L213.73 363.89M213.73 363.89L225.15 369.98M225.15 369.98L237.84 372.48"/>
<path d="M310.29 383.75L297.41 383.75"/>
<path d="M369.86 362.82L237.84 362.82"/>
<path d="M297.41 372.48L237.84 372.48"/>
<path d="M186.32 353.16L189.54 356.38"/>
<path d="M205.64 356.38L189.54 356.38"/>
<path d="M297.41 383.75L297.41 372.48"/>
<path d="M369.86 372.48L310.29 372.48"/>
<path d="M310.29 372.48L310.29 383.75"/>
<path d="M418.16 356.38L421.38 353.16"/>
<path d="M401.85 356.38L418.16 356.38"/>
<path d="M421.38 190.55L421.38 267.83"/>
<path d="M411.72 330.62L411.72 127.76"/>
<path d="M402.06 330.62L402.06 127.76"/>
<path d="M195.98 222.75L195.98 127.76"/>
<path d="M205.64 330.62L205.64 127.76"/>
<path d="M189.54 280.71L187.77 281.18M187.77 281.18L186.32 282.32"/>
<path d="M195.98 330.62L195.98 235.63"/>
<path d="M191.15 314.52L191.15 320.96"/>
<path d="M191.15 320.96L195.98 320.96"/>
<path d="M195.98 314.52L191.15 314.52"/>
<path d="M195.98 337.06L186.32 337.06"/>
<path d="M195.98 298.42L186.32 298.42"/>
<path d="M186.32 298.42L186.32 282.32"/>
<path d="M189.54 280.71L195.98 280.71"/>
<path d="M183.1 222.75L195.98 222.75"/>
<path d="M195.98 235.63L183.1 235.63"/>
<path d="M183.1 235.63L183.1 222.75"/>
<path d="M421.38 282.32L418.16 280.71"/>
<path d="M416.55 314.52L416.55 320.96"/>
<path d="M416.55 320.96L411.72 320.96"/>
<path d="M411.72 314.52L416.55 314.52"/>
<path d="M410.94 337.06L421.38 337.06"/>
<path d="M421.38 298.42L421.38 282.32"/>
<path d="M411.72 298.42L421.38 298.42"/>
<path d="M411.72 277.49L416.4 275.97M416.4 275.97L419.87 272.5M419.87 272.5L421.38 267.83"/>
<path d="M418.16 280.71L411.72 280.71"/>
<path d="M252.33 95.56L353.76 95.56"/>
<path d="M186.32 159.96L186.32 176.06"/>
<path d="M186.32 176.06L189.54 177.67"/>
<path d="M189.54 177.67L195.98 177.67"/>
<path d="M195.98 159.96L186.32 159.96"/>
<path d="M237.84 95.56L245.89 95.56"/>
<path d="M195.98 137.42L191.15 137.42"/>
<path d="M191.15 143.86L195.98 143.86"/>
<path d="M191.15 137.42L191.15 143.86"/>
<path d="M186.32 121.32L186.32 105.22"/>
<path d="M196.94 121.32L186.32 121.32"/>
<path d="M189.54 102L186.32 105.22"/>
<path d="M206.08 102L189.54 102"/>
<path d="M245.89 95.56L246.84 97.83M246.84 97.83L249.11 98.78M249.11 98.78L251.39 97.83M251.39 97.83L252.33 95.56"/>
<path d="M421.38 190.55L419.87 185.87M419.87 185.87L416.4 182.4M416.4 182.4L411.72 180.89"/>
<path d="M418.16 177.67L419.97 177.24M419.97 177.24L421.38 176.06"/>
<path d="M421.38 159.96L421.38 176.06"/>
<path d="M418.16 177.67L411.72 177.67"/>
<path d="M411.72 159.96L421.38 159.96"/>
<path d="M360.2 95.56L369.86 95.56"/>
<path d="M353.76 95.56L354.71 97.83M354.71 97.83L356.98 98.78M356.98 98.78L359.26 97.83M359.26 97.83L360.2 95.56"/>
<path d="M416.55 143.86L416.55 137.42"/>
<path d="M416.55 137.42L411.72 137.42"/>
<path d="M411.72 143.86L416.55 143.86"/>
<path d="M421.38 121.32L421.38 105.22"/>
<path d="M421.38 105.22L418.16 102"/>
<path d="M410.77 121.32L421.38 121.32"/>
<path d="M401.63 102L418.16 102"/>
<path d="M329.61 79.46L278.09 79.46"/>
<path d="M278.09 69.8L329.61 69.8"/>
<path d="M329.61 68.19L278.09 68.19"/>
<path d="M278.09 58.53L329.61 58.53"/>
<path d="M221.74 45.65L252.33 45.65"/>
<path d="M231.4 55.31L252.33 55.31"/>
<path d="M252.33 68.19L231.4 68.19"/>
<path d="M228.18 74.63L245.89 74.63"/>
<path d="M231.4 68.19L231.4 55.31"/>
<path d="M252.33 85.9L278.09 85.9"/>
<path d="M385.96 45.65L353.76 45.65"/>
<path d="M376.3 55.31L353.76 55.31"/>
<path d="M353.76 68.19L376.3 68.19"/>
<path d="M379.52 74.63L360.2 74.63"/>
<path d="M329.61 85.9L353.76 85.9"/>
<path d="M376.3 68.19L376.3 55.31"/>
<path d="M312.69 339.32L314.58 334.76M314.58 334.76L319.13 332.88M319.13 332.88L323.69 334.76M323.69 334.76L325.57 339.32M325.57 339.32L323.69 343.87M323.69 343.87L319.13 345.76M319.13 345.76L314.58 343.87M314.58 343.87L312.69 339.32"/>
<path d="M317.35 342.4L319.48 342.86M319.48 342.86L321.47 342M321.47 342L322.6 340.14"/>
<path d="M322.7 339.32L322.01 337.21M322.01 337.21L320.21 335.92M320.21 335.92L318 335.94"/>
<path d="M322.7 339.32L325.57 339.32"/>
<path d="M317.35 342.4L315.91 344.89"/>
<path d="M317.35 336.23L315.91 333.74"/>
<path d="M317.35 336.23L315.89 337.83M315.89 337.83L315.64 339.99M315.64 339.99L316.67 341.89"/>
<path d="M287 339.31L288.88 334.76M288.88 334.76L293.44 332.87M293.44 332.87L297.99 334.76M297.99 334.76L299.88 339.31M299.88 339.31L297.99 343.86M297.99 343.86L293.44 345.75M293.44 345.75L288.88 343.86M288.88 343.86L287 339.31"/>
<path d="M291.66 342.39L293.78 342.85M293.78 342.85L295.78 342M295.78 342L296.9 340.14"/>
<path d="M297 339.31L296.31 337.21M296.31 337.21L294.51 335.91M294.51 335.91L292.3 335.93"/>
<path d="M297 339.31L299.88 339.31"/>
<path d="M291.66 342.39L290.22 344.89"/>
<path d="M291.66 336.22L290.22 333.73"/>
<path d="M291.66 336.22L290.2 337.83M290.2 337.83L289.94 339.98M289.94 339.98L290.98 341.89"/>
<path d="M261.01 326.41L262.89 321.85M262.89 321.85L267.45 319.97M267.45 319.97L272 321.85M272 321.85L273.89 326.41M273.89 326.41L272 330.96M272 330.96L267.45 332.85M267.45 332.85L262.89 330.96M262.89 330.96L261.01 326.41"/>
<path d="M265.66 329.49L267.79 329.95M267.79 329.95L269.78 329.09M269.78 329.09L270.91 327.24"/>
<path d="M271.01 326.41L270.32 324.3M270.32 324.3L268.52 323.01M268.52 323.01L266.31 323.03"/>
<path d="M271.01 326.41L273.89 326.41"/>
<path d="M265.66 329.49L264.23 331.99"/>
<path d="M265.66 323.32L264.23 320.83"/>
<path d="M265.66 323.32L264.21 324.93M264.21 324.93L263.95 327.08M263.95 327.08L264.99 328.98"/>
<path d="M233.65 329.56L235.54 325M235.54 325L240.09 323.12M240.09 323.12L244.65 325M244.65 325L246.53 329.56M246.53 329.56L244.65 334.11M244.65 334.11L240.09 336M240.09 336L235.54 334.11M235.54 334.11L233.65 329.56"/>
<path d="M238.31 332.64L240.44 333.1M240.44 333.1L242.43 332.24M242.43 332.24L243.56 330.38"/>
<path d="M243.66 329.56L242.97 327.45M242.97 327.45L241.17 326.16M241.17 326.16L238.96 326.18"/>
<path d="M243.66 329.56L246.53 329.56"/>
<path d="M238.31 332.64L236.87 335.13"/>
<path d="M238.31 326.47L236.87 323.98"/>
<path d="M238.31 326.47L236.85 328.08M236.85 328.08L236.6 330.23M236.6 330.23L237.63 332.13"/>
<path d="M236.98 303.92L238.87 299.37M238.87 299.37L243.42 297.48M243.42 297.48L247.97 299.37M247.97 299.37L249.86 303.92M249.86 303.92L247.97 308.47M247.97 308.47L243.42 310.36M243.42 310.36L238.87 308.47M238.87 308.47L236.98 303.92"/>
<path d="M241.64 307.01L243.76 307.47M243.76 307.47L245.76 306.61M245.76 306.61L246.89 304.75"/>
<path d="M246.98 303.92L246.3 301.82M246.3 301.82L244.5 300.53M244.5 300.53L242.28 300.54"/>
<path d="M246.98 303.92L249.86 303.92"/>
<path d="M241.64 307.01L240.2 309.5"/>
<path d="M241.64 300.84L240.2 298.34"/>
<path d="M241.64 300.84L240.18 302.44M240.18 302.44L239.92 304.59M239.92 304.59L240.96 306.5"/>
<path d="M261.07 300.7L262.96 296.14M262.96 296.14L267.51 294.26M267.51 294.26L272.06 296.14M272.06 296.14L273.95 300.7M273.95 300.7L272.06 305.25M272.06 305.25L267.51 307.14M267.51 307.14L262.96 305.25M262.96 305.25L261.07 300.7"/>
<path d="M265.73 303.78L267.85 304.24M267.85 304.24L269.85 303.38M269.85 303.38L270.97 301.53"/>
<path d="M271.07 300.7L270.38 298.59M270.38 298.59L268.59 297.3M268.59 297.3L266.37 297.32"/>
<path d="M271.07 300.7L273.95 300.7"/>
<path d="M265.73 303.78L264.29 306.28"/>
<path d="M265.73 297.61L264.29 295.12"/>
<path d="M265.73 297.61L264.27 299.22M264.27 299.22L264.01 301.37M264.01 301.37L265.05 303.27"/>
<path d="M286.91 313.43L288.8 308.88M288.8 308.88L293.35 306.99M293.35 306.99L297.9 308.88M297.9 308.88L299.79 313.43M299.79 313.43L297.9 317.99M297.9 317.99L293.35 319.87M293.35 319.87L288.8 317.99M288.8 317.99L286.91 313.43"/>
<path d="M291.57 316.52L293.69 316.98M293.69 316.98L295.69 316.12M295.69 316.12L296.81 314.26"/>
<path d="M296.91 313.43L296.22 311.33M296.22 311.33L294.43 310.04M294.43 310.04L292.21 310.06"/>
<path d="M296.91 313.43L299.79 313.43"/>
<path d="M291.57 316.52L290.13 319.01"/>
<path d="M291.57 310.35L290.13 307.86"/>
<path d="M291.57 310.35L290.11 311.95M290.11 311.95L289.85 314.11M289.85 314.11L290.89 316.01"/>
<path d="M312.85 313.41L314.73 308.86M314.73 308.86L319.29 306.97M319.29 306.97L323.84 308.86M323.84 308.86L325.73 313.41M325.73 313.41L323.84 317.97M323.84 317.97L319.29 319.85M319.29 319.85L314.73 317.97M314.73 317.97L312.85 313.41"/>
<path d="M317.51 316.5L319.63 316.96M319.63 316.96L321.63 316.1M321.63 316.1L322.75 314.24"/>
<path d="M322.85 313.41L322.16 311.31M322.16 311.31L320.37 310.02M320.37 310.02L318.15 310.04"/>
<path d="M322.85 313.41L325.73 313.41"/>
<path d="M317.51 316.5L316.07 318.99"/>
<path d="M317.51 310.33L316.07 307.84"/>
<path d="M317.51 310.33L316.05 311.93M316.05 311.93L315.79 314.09M315.79 314.09L316.83 315.99"/>
<path d="M338.65 326.4L340.54 321.85M340.54 321.85L345.09 319.96M345.09 319.96L349.65 321.85M349.65 321.85L351.53 326.4M351.53 326.4L349.65 330.96M349.65 330.96L345.09 332.84M345.09 332.84L340.54 330.96M340.54 330.96L338.65 326.4"/>
<path d="M343.31 329.49L345.44 329.95M345.44 329.95L347.43 329.09M347.43 329.09L348.56 327.23"/>
<path d="M348.65 326.4L347.97 324.3M347.97 324.3L346.17 323.01M346.17 323.01L343.96 323.03"/>
<path d="M348.65 326.4L351.53 326.4"/>
<path d="M343.31 329.49L341.87 331.98"/>
<path d="M343.31 323.32L341.87 320.82"/>
<path d="M343.31 323.32L341.85 324.92M341.85 324.92L341.59 327.07M341.59 327.07L342.63 328.98"/>
<path d="M365.67 329.63L367.56 325.08M367.56 325.08L372.11 323.19M372.11 323.19L376.67 325.08M376.67 325.08L378.55 329.63M378.55 329.63L376.67 334.19M376.67 334.19L372.11 336.07M372.11 336.07L367.56 334.19M367.56 334.19L365.67 329.63"/>
<path d="M370.33 332.72L372.46 333.18M372.46 333.18L374.45 332.32M374.45 332.32L375.58 330.46"/>
<path d="M375.68 329.63L374.99 327.53M374.99 327.53L373.19 326.24M373.19 326.24L370.98 326.26"/>
<path d="M375.68 329.63L378.55 329.63"/>
<path d="M370.33 332.72L368.89 335.21"/>
<path d="M370.33 326.55L368.89 324.06"/>
<path d="M370.33 326.55L368.87 328.15M368.87 328.15L368.61 330.31M368.61 330.31L369.65 332.21"/>
<path d="M362.49 303.75L364.37 299.19M364.37 299.19L368.93 297.31M368.93 297.31L373.48 299.19M373.48 299.19L375.37 303.75M375.37 303.75L373.48 308.3M373.48 308.3L368.93 310.19M368.93 310.19L364.37 308.3M364.37 308.3L362.49 303.75"/>
<path d="M367.15 306.83L369.27 307.29M369.27 307.29L371.27 306.43M371.27 306.43L372.39 304.57"/>
<path d="M372.49 303.75L371.8 301.64M371.8 301.64L370.01 300.35M370.01 300.35L367.79 300.37"/>
<path d="M372.49 303.75L375.37 303.75"/>
<path d="M367.15 306.83L365.71 309.32"/>
<path d="M367.15 300.66L365.71 298.17"/>
<path d="M367.15 300.66L365.69 302.27M365.69 302.27L365.43 304.42M365.43 304.42L366.47 306.32"/>
<path d="M338.1 300.52L339.98 295.97M339.98 295.97L344.54 294.08M344.54 294.08L349.09 295.97M349.09 295.97L350.98 300.52M350.98 300.52L349.09 305.07M349.09 305.07L344.54 306.96M344.54 306.96L339.98 305.07M339.98 305.07L338.1 300.52"/>
<path d="M342.76 303.61L344.88 304.07M344.88 304.07L346.88 303.21M346.88 303.21L348 301.35"/>
<path d="M348.1 300.52L347.41 298.42M347.41 298.42L345.61 297.13M345.61 297.13L343.4 297.14"/>
<path d="M348.1 300.52L350.98 300.52"/>
<path d="M342.76 303.61L341.32 306.1"/>
<path d="M342.76 297.44L341.32 294.94"/>
<path d="M342.76 297.44L341.3 299.04M341.3 299.04L341.04 301.19M341.04 301.19L342.08 303.1"/>
<path d="M312.83 287.82L314.71 283.26M314.71 283.26L319.27 281.38M319.27 281.38L323.82 283.26M323.82 283.26L325.71 287.82M325.71 287.82L323.82 292.37M323.82 292.37L319.27 294.26M319.27 294.26L314.71 292.37M314.71 292.37L312.83 287.82"/>
<path d="M317.49 290.9L319.61 291.36M319.61 291.36L321.61 290.5M321.61 290.5L322.73 288.64"/>
<path d="M322.83 287.82L322.14 285.71M322.14 285.71L320.35 284.42M320.35 284.42L318.13 284.44"/>
<path d="M322.83 287.82L325.71 287.82"/>
<path d="M317.49 290.9L316.05 293.39"/>
<path d="M317.49 284.73L316.05 282.24"/>
<path d="M317.49 284.73L316.03 286.34M316.03 286.34L315.77 288.49M315.77 288.49L316.81 290.39"/>
<path d="M286.78 287.9L288.66 283.35M288.66 283.35L293.22 281.46M293.22 281.46L297.77 283.35M297.77 283.35L299.66 287.9M299.66 287.9L297.77 292.46M297.77 292.46L293.22 294.34M293.22 294.34L288.66 292.46M288.66 292.46L286.78 287.9"/>
<path d="M291.43 290.99L293.56 291.45M293.56 291.45L295.56 290.59M295.56 290.59L296.68 288.73"/>
<path d="M296.78 287.9L296.09 285.8M296.09 285.8L294.29 284.51M294.29 284.51L292.08 284.53"/>
<path d="M296.78 287.9L299.66 287.9"/>
<path d="M291.43 290.99L290 293.48"/>
<path d="M291.43 284.82L290 282.33"/>
<path d="M291.43 284.82L289.98 286.42M289.98 286.42L289.72 288.58M289.72 288.58L290.76 290.48"/>
<path d="M260.26 275.83L262.14 271.27M262.14 271.27L266.7 269.39M266.7 269.39L271.25 271.27M271.25 271.27L273.14 275.83M273.14 275.83L271.25 280.38M271.25 280.38L266.7 282.27M266.7 282.27L262.14 280.38M262.14 280.38L260.26 275.83"/>
<path d="M264.92 278.91L267.04 279.37M267.04 279.37L269.04 278.51M269.04 278.51L270.16 276.65"/>
<path d="M270.26 275.83L269.57 273.72M269.57 273.72L267.77 272.43M267.77 272.43L265.56 272.45"/>
<path d="M270.26 275.83L273.14 275.83"/>
<path d="M264.92 278.91L263.48 281.4"/>
<path d="M264.92 272.74L263.48 270.25"/>
<path d="M264.92 272.74L263.46 274.35M263.46 274.35L263.2 276.5M263.2 276.5L264.24 278.4"/>
<path d="M236.98 279.8L238.87 275.25M238.87 275.25L243.42 273.36M243.42 273.36L247.98 275.25M247.98 275.25L249.86 279.8M249.86 279.8L247.98 284.36M247.98 284.36L243.42 286.24M243.42 286.24L238.87 284.36M238.87 284.36L236.98 279.8"/>
<path d="M241.64 282.89L243.77 283.35M243.77 283.35L245.76 282.49M245.76 282.49L246.89 280.63"/>
<path d="M246.99 279.8L246.3 277.7M246.3 277.7L244.5 276.41M244.5 276.41L242.29 276.43"/>
<path d="M246.99 279.8L249.86 279.8"/>
<path d="M241.64 282.89L240.2 285.38"/>
<path d="M241.64 276.72L240.2 274.23"/>
<path d="M241.64 276.72L240.18 278.32M240.18 278.32L239.93 280.48M239.93 280.48L240.96 282.38"/>
<path d="M237.01 254.1L238.9 249.55M238.9 249.55L243.45 247.66M243.45 247.66L248.01 249.55M248.01 249.55L249.89 254.1M249.89 254.1L248.01 258.66M248.01 258.66L243.45 260.54M243.45 260.54L238.9 258.66M238.9 258.66L237.01 254.1"/>
<path d="M241.67 257.19L243.8 257.65M243.8 257.65L245.79 256.79M245.79 256.79L246.92 254.93"/>
<path d="M247.02 254.1L246.33 252M246.33 252L244.53 250.71M244.53 250.71L242.32 250.73"/>
<path d="M247.02 254.1L249.89 254.1"/>
<path d="M241.67 257.19L240.23 259.68"/>
<path d="M241.67 251.02L240.23 248.53"/>
<path d="M241.67 251.02L240.21 252.62M240.21 252.62L239.96 254.78M239.96 254.78L240.99 256.68"/>
<path d="M236.96 228.43L238.85 223.88M238.85 223.88L243.4 221.99M243.4 221.99L247.96 223.88M247.96 223.88L249.84 228.43M249.84 228.43L247.96 232.99M247.96 232.99L243.4 234.87M243.4 234.87L238.85 232.99M238.85 232.99L236.96 228.43"/>
<path d="M241.62 231.52L243.75 231.98M243.75 231.98L245.74 231.12M245.74 231.12L246.87 229.26"/>
<path d="M246.97 228.43L246.28 226.33M246.28 226.33L244.48 225.04M244.48 225.04L242.27 225.06"/>
<path d="M246.97 228.43L249.84 228.43"/>
<path d="M241.62 231.52L240.18 234.01"/>
<path d="M241.62 225.35L240.18 222.86"/>
<path d="M241.62 225.35L240.16 226.95M240.16 226.95L239.9 229.11M239.9 229.11L240.94 231.01"/>
<path d="M236.92 202.5L238.8 197.94M238.8 197.94L243.36 196.06M243.36 196.06L247.91 197.94M247.91 197.94L249.8 202.5M249.8 202.5L247.91 207.05M247.91 207.05L243.36 208.94M243.36 208.94L238.8 207.05M238.8 207.05L236.92 202.5"/>
<path d="M241.58 205.58L243.7 206.04M243.7 206.04L245.7 205.18M245.7 205.18L246.82 203.32"/>
<path d="M246.92 202.5L246.23 200.39M246.23 200.39L244.43 199.1M244.43 199.1L242.22 199.12"/>
<path d="M246.92 202.5L249.8 202.5"/>
<path d="M241.58 205.58L240.14 208.07"/>
<path d="M241.58 199.41L240.14 196.92"/>
<path d="M241.58 199.41L240.12 201.02M240.12 201.02L239.86 203.17M239.86 203.17L240.9 205.07"/>
<path d="M261.28 180.01L263.16 175.45M263.16 175.45L267.72 173.57M267.72 173.57L272.27 175.45M272.27 175.45L274.16 180.01M274.16 180.01L272.27 184.56M272.27 184.56L267.72 186.45M267.72 186.45L263.16 184.56M263.16 184.56L261.28 180.01"/>
<path d="M265.94 183.09L268.06 183.55M268.06 183.55L270.06 182.69M270.06 182.69L271.18 180.84"/>
<path d="M271.28 180.01L270.59 177.9M270.59 177.9L268.79 176.61M268.79 176.61L266.58 176.63"/>
<path d="M271.28 180.01L274.16 180.01"/>
<path d="M265.94 183.09L264.5 185.59"/>
<path d="M265.94 176.92L264.5 174.43"/>
<path d="M265.94 176.92L264.48 178.53M264.48 178.53L264.22 180.68M264.22 180.68L265.26 182.58"/>
<path d="M236.78 176.82L238.67 172.27M238.67 172.27L243.22 170.38M243.22 170.38L247.77 172.27M247.77 172.27L249.66 176.82M249.66 176.82L247.77 181.38M247.77 181.38L243.22 183.26M243.22 183.26L238.67 181.38M238.67 181.38L236.78 176.82"/>
<path d="M241.44 179.91L243.56 180.37M243.56 180.37L245.56 179.51M245.56 179.51L246.68 177.65"/>
<path d="M246.78 176.82L246.09 174.72M246.09 174.72L244.3 173.43M244.3 173.43L242.08 173.45"/>
<path d="M246.78 176.82L249.66 176.82"/>
<path d="M241.44 179.91L240 182.4"/>
<path d="M241.44 173.74L240 171.25"/>
<path d="M241.44 173.74L239.98 175.34M239.98 175.34L239.72 177.5M239.72 177.5L240.76 179.4"/>
<path d="M338.03 276.22L339.91 271.67M339.91 271.67L344.47 269.78M344.47 269.78L349.02 271.67M349.02 271.67L350.91 276.22M350.91 276.22L349.02 280.78M349.02 280.78L344.47 282.66M344.47 282.66L339.91 280.78M339.91 280.78L338.03 276.22"/>
<path d="M342.68 279.31L344.81 279.77M344.81 279.77L346.81 278.91M346.81 278.91L347.93 277.05"/>
<path d="M348.03 276.22L347.34 274.12M347.34 274.12L345.54 272.83M345.54 272.83L343.33 272.85"/>
<path d="M348.03 276.22L350.91 276.22"/>
<path d="M342.68 279.31L341.25 281.8"/>
<path d="M342.68 273.14L341.25 270.65"/>
<path d="M342.68 273.14L341.23 274.74M341.23 274.74L340.97 276.9M340.97 276.9L342.01 278.8"/>
<path d="M362.46 279.56L364.34 275.01M364.34 275.01L368.9 273.12M368.9 273.12L373.45 275.01M373.45 275.01L375.34 279.56M375.34 279.56L373.45 284.12M373.45 284.12L368.9 286M368.9 286L364.34 284.12M364.34 284.12L362.46 279.56"/>
<path d="M367.12 282.65L369.24 283.11M369.24 283.11L371.24 282.25M371.24 282.25L372.36 280.39"/>
<path d="M372.46 279.56L371.77 277.46M371.77 277.46L369.97 276.17M369.97 276.17L367.76 276.19"/>
<path d="M372.46 279.56L375.34 279.56"/>
<path d="M367.12 282.65L365.68 285.14"/>
<path d="M367.12 276.48L365.68 273.99"/>
<path d="M367.12 276.48L365.66 278.08M365.66 278.08L365.4 280.24M365.4 280.24L366.44 282.14"/>
<path d="M362.23 253.89L364.11 249.34M364.11 249.34L368.67 247.45M368.67 247.45L373.22 249.34M373.22 249.34L375.11 253.89M375.11 253.89L373.22 258.45M373.22 258.45L368.67 260.33M368.67 260.33L364.11 258.45M364.11 258.45L362.23 253.89"/>
<path d="M366.89 256.98L369.01 257.44M369.01 257.44L371.01 256.58M371.01 256.58L372.13 254.72"/>
<path d="M372.23 253.89L371.54 251.79M371.54 251.79L369.74 250.5M369.74 250.5L367.53 250.52"/>
<path d="M372.23 253.89L375.11 253.89"/>
<path d="M366.89 256.98L365.45 259.47"/>
<path d="M366.89 250.81L365.45 248.31"/>
<path d="M366.89 250.81L365.43 252.41M365.43 252.41L365.17 254.56M365.17 254.56L366.21 256.47"/>
<path d="M362.46 228.61L364.35 224.06M364.35 224.06L368.9 222.17M368.9 222.17L373.45 224.06M373.45 224.06L375.34 228.61M375.34 228.61L373.45 233.16M373.45 233.16L368.9 235.05M368.9 235.05L364.35 233.16M364.35 233.16L362.46 228.61"/>
<path d="M367.12 231.7L369.24 232.16M369.24 232.16L371.24 231.3M371.24 231.3L372.36 229.44"/>
<path d="M372.46 228.61L371.77 226.51M371.77 226.51L369.98 225.22M369.98 225.22L367.76 225.24"/>
<path d="M372.46 228.61L375.34 228.61"/>
<path d="M367.12 231.7L365.68 234.19"/>
<path d="M367.12 225.53L365.68 223.03"/>
<path d="M367.12 225.53L365.66 227.13M365.66 227.13L365.4 229.28M365.4 229.28L366.44 231.19"/>
<path d="M362.74 202.34L364.62 197.79M364.62 197.79L369.18 195.9M369.18 195.9L373.73 197.79M373.73 197.79L375.62 202.34M375.62 202.34L373.73 206.89M373.73 206.89L369.18 208.78M369.18 208.78L364.62 206.89M364.62 206.89L362.74 202.34"/>
<path d="M367.4 205.43L369.52 205.89M369.52 205.89L371.52 205.03M371.52 205.03L372.64 203.17"/>
<path d="M372.74 202.34L372.05 200.24M372.05 200.24L370.25 198.95M370.25 198.95L368.04 198.97"/>
<path d="M372.74 202.34L375.62 202.34"/>
<path d="M367.4 205.43L365.96 207.92"/>
<path d="M367.4 199.26L365.96 196.76"/>
<path d="M367.4 199.26L365.94 200.86M365.94 200.86L365.68 203.01M365.68 203.01L366.72 204.92"/>
<path d="M362.23 176.41L364.12 171.85M364.12 171.85L368.67 169.97M368.67 169.97L373.22 171.85M373.22 171.85L375.11 176.41M375.11 176.41L373.22 180.96M373.22 180.96L368.67 182.85M368.67 182.85L364.12 180.96M364.12 180.96L362.23 176.41"/>
<path d="M366.89 179.49L369.01 179.95M369.01 179.95L371.01 179.09M371.01 179.09L372.14 177.23"/>
<path d="M372.23 176.41L371.54 174.3M371.54 174.3L369.75 173.01M369.75 173.01L367.53 173.03"/>
<path d="M372.23 176.41L375.11 176.41"/>
<path d="M366.89 179.49L365.45 181.98"/>
<path d="M366.89 173.32L365.45 170.83"/>
<path d="M366.89 173.32L365.43 174.93M365.43 174.93L365.17 177.08M365.17 177.08L366.21 178.98"/>
<path d="M338.23 179.78L340.11 175.22M340.11 175.22L344.67 173.34M344.67 173.34L349.22 175.22M349.22 175.22L351.11 179.78M351.11 179.78L349.22 184.33M349.22 184.33L344.67 186.22M344.67 186.22L340.11 184.33M340.11 184.33L338.23 179.78"/>
<path d="M342.89 182.86L345.01 183.32M345.01 183.32L347.01 182.46M347.01 182.46L348.13 180.6"/>
<path d="M348.23 179.78L347.54 177.67M347.54 177.67L345.74 176.38M345.74 176.38L343.53 176.4"/>
<path d="M348.23 179.78L351.11 179.78"/>
<path d="M342.89 182.86L341.45 185.35"/>
<path d="M342.89 176.69L341.45 174.2"/>
<path d="M342.89 176.69L341.43 178.3M341.43 178.3L341.17 180.45M341.17 180.45L342.21 182.35"/>
<path d="M312.66 168.61L314.55 164.05M314.55 164.05L319.1 162.17M319.1 162.17L323.65 164.05M323.65 164.05L325.54 168.61M325.54 168.61L323.65 173.16M323.65 173.16L319.1 175.05M319.1 175.05L314.55 173.16M314.55 173.16L312.66 168.61"/>
<path d="M317.32 171.69L319.44 172.15M319.44 172.15L321.44 171.29M321.44 171.29L322.56 169.43"/>
<path d="M322.66 168.61L321.97 166.5M321.97 166.5L320.18 165.21M320.18 165.21L317.96 165.23"/>
<path d="M322.66 168.61L325.54 168.61"/>
<path d="M317.32 171.69L315.88 174.18"/>
<path d="M317.32 165.52L315.88 163.03"/>
<path d="M317.32 165.52L315.86 167.13M315.86 167.13L315.6 169.28M315.6 169.28L316.64 171.18"/>
<path d="M286.91 168.52L288.8 163.97M288.8 163.97L293.35 162.08M293.35 162.08L297.91 163.97M297.91 163.97L299.79 168.52M299.79 168.52L297.91 173.08M297.91 173.08L293.35 174.96M293.35 174.96L288.8 173.08M288.8 173.08L286.91 168.52"/>
<path d="M291.57 171.61L293.69 172.07M293.69 172.07L295.69 171.21M295.69 171.21L296.82 169.35"/>
<path d="M296.91 168.52L296.23 166.42M296.23 166.42L294.43 165.13M294.43 165.13L292.21 165.15"/>
<path d="M296.91 168.52L299.79 168.52"/>
<path d="M291.57 171.61L290.13 174.1"/>
<path d="M291.57 165.44L290.13 162.95"/>
<path d="M291.57 165.44L290.11 167.04M290.11 167.04L289.85 169.2M289.85 169.2L290.89 171.1"/>
<path d="M260.98 155.94L262.86 151.39M262.86 151.39L267.42 149.5M267.42 149.5L271.97 151.39M271.97 151.39L273.86 155.94M273.86 155.94L271.97 160.49M271.97 160.49L267.42 162.38M267.42 162.38L262.86 160.49M262.86 160.49L260.98 155.94"/>
<path d="M265.64 159.03L267.76 159.49M267.76 159.49L269.76 158.63M269.76 158.63L270.88 156.77"/>
<path d="M270.98 155.94L270.29 153.84M270.29 153.84L268.49 152.55M268.49 152.55L266.28 152.56"/>
<path d="M270.98 155.94L273.86 155.94"/>
<path d="M265.64 159.03L264.2 161.52"/>
<path d="M265.64 152.86L264.2 150.36"/>
<path d="M265.64 152.86L264.18 154.46M264.18 154.46L263.92 156.61M263.92 156.61L264.96 158.52"/>
<path d="M236.83 152.63L238.71 148.07M238.71 148.07L243.27 146.19M243.27 146.19L247.82 148.07M247.82 148.07L249.71 152.63M249.71 152.63L247.82 157.18M247.82 157.18L243.27 159.07M243.27 159.07L238.71 157.18M238.71 157.18L236.83 152.63"/>
<path d="M241.49 155.71L243.61 156.17M243.61 156.17L245.61 155.31M245.61 155.31L246.73 153.45"/>
<path d="M246.83 152.63L246.14 150.52M246.14 150.52L244.35 149.23M244.35 149.23L242.13 149.25"/>
<path d="M246.83 152.63L249.71 152.63"/>
<path d="M241.49 155.71L240.05 158.2"/>
<path d="M241.49 149.54L240.05 147.05"/>
<path d="M241.49 149.54L240.03 151.15M240.03 151.15L239.77 153.3M239.77 153.3L240.81 155.2"/>
<path d="M286.6 143.27L288.48 138.72M288.48 138.72L293.04 136.83M293.04 136.83L297.59 138.72M297.59 138.72L299.48 143.27M299.48 143.27L297.59 147.82M297.59 147.82L293.04 149.71M293.04 149.71L288.48 147.82M288.48 147.82L286.6 143.27"/>
<path d="M291.26 146.36L293.38 146.82M293.38 146.82L295.38 145.96M295.38 145.96L296.5 144.1"/>
<path d="M296.6 143.27L295.91 141.17M295.91 141.17L294.11 139.88M294.11 139.88L291.9 139.89"/>
<path d="M296.6 143.27L299.48 143.27"/>
<path d="M291.26 146.36L289.82 148.85"/>
<path d="M291.26 140.19L289.82 137.69"/>
<path d="M291.26 140.19L289.8 141.79M289.8 141.79L289.54 143.94M289.54 143.94L290.58 145.85"/>
<path d="M312.31 142.99L314.19 138.44M314.19 138.44L318.75 136.55M318.75 136.55L323.3 138.44M323.3 138.44L325.19 142.99M325.19 142.99L323.3 147.55M323.3 147.55L318.75 149.43M318.75 149.43L314.19 147.55M314.19 147.55L312.31 142.99"/>
<path d="M316.97 146.08L319.09 146.54M319.09 146.54L321.09 145.68M321.09 145.68L322.21 143.82"/>
<path d="M322.31 142.99L321.62 140.89M321.62 140.89L319.82 139.6M319.82 139.6L317.61 139.62"/>
<path d="M322.31 142.99L325.19 142.99"/>
<path d="M316.97 146.08L315.53 148.57"/>
<path d="M316.97 139.91L315.53 137.42"/>
<path d="M316.97 139.91L315.51 141.51M315.51 141.51L315.25 143.67M315.25 143.67L316.29 145.57"/>
<path d="M338.23 155.77L340.12 151.22M340.12 151.22L344.67 149.33M344.67 149.33L349.23 151.22M349.23 151.22L351.11 155.77M351.11 155.77L349.23 160.32M349.23 160.32L344.67 162.21M344.67 162.21L340.12 160.32M340.12 160.32L338.23 155.77"/>
<path d="M342.89 158.86L345.02 159.32M345.02 159.32L347.01 158.46M347.01 158.46L348.14 156.6"/>
<path d="M348.24 155.77L347.55 153.67M347.55 153.67L345.75 152.37M345.75 152.37L343.54 152.39"/>
<path d="M348.24 155.77L351.11 155.77"/>
<path d="M342.89 158.86L341.45 161.35"/>
<path d="M342.89 152.69L341.45 150.19"/>
<path d="M342.89 152.69L341.43 154.29M341.43 154.29L341.18 156.44M341.18 156.44L342.21 158.35"/>
<path d="M362.7 152.48L364.59 147.93M364.59 147.93L369.14 146.04M369.14 146.04L373.69 147.93M373.69 147.93L375.58 152.48M375.58 152.48L373.69 157.04M373.69 157.04L369.14 158.92M369.14 158.92L364.59 157.04M364.59 157.04L362.7 152.48"/>
<path d="M367.36 155.57L369.48 156.03M369.48 156.03L371.48 155.17M371.48 155.17L372.6 153.31"/>
<path d="M372.7 152.48L372.01 150.38M372.01 150.38L370.22 149.09M370.22 149.09L368 149.11"/>
<path d="M372.7 152.48L375.58 152.48"/>
<path d="M367.36 155.57L365.92 158.06"/>
<path d="M367.36 149.4L365.92 146.91"/>
<path d="M367.36 149.4L365.9 151M365.9 151L365.64 153.16M365.64 153.16L366.68 155.06"/>
<path d="M364.28 126.81L366.17 122.25M366.17 122.25L370.72 120.37M370.72 120.37L375.28 122.25M375.28 122.25L377.16 126.81M377.16 126.81L375.28 131.36M375.28 131.36L370.72 133.25M370.72 133.25L366.17 131.36M366.17 131.36L364.28 126.81"/>
<path d="M368.94 129.89L371.07 130.35M371.07 130.35L373.06 129.5M373.06 129.5L374.19 127.64"/>
<path d="M374.28 126.81L373.6 124.7M373.6 124.7L371.8 123.41M371.8 123.41L369.59 123.43"/>
<path d="M374.28 126.81L377.16 126.81"/>
<path d="M368.94 129.89L367.5 132.39"/>
<path d="M368.94 123.72L367.5 121.23"/>
<path d="M368.94 123.72L367.48 125.33M367.48 125.33L367.22 127.48M367.22 127.48L368.26 129.39"/>
<path d="M338.43 130.02L340.32 125.47M340.32 125.47L344.87 123.58M344.87 123.58L349.42 125.47M349.42 125.47L351.31 130.02M351.31 130.02L349.42 134.58M349.42 134.58L344.87 136.46M344.87 136.46L340.32 134.58M340.32 134.58L338.43 130.02"/>
<path d="M343.09 133.11L345.21 133.57M345.21 133.57L347.21 132.71M347.21 132.71L348.33 130.85"/>
<path d="M348.43 130.02L347.74 127.92M347.74 127.92L345.95 126.63M345.95 126.63L343.73 126.65"/>
<path d="M348.43 130.02L351.31 130.02"/>
<path d="M343.09 126.94L341.65 124.45"/>
<path d="M342.41 132.6L340.42 134.68"/>
<path d="M343.09 126.94L341.63 128.54M341.63 128.54L341.37 130.7M341.37 130.7L342.41 132.6"/>
<path d="M311.07 117.02L312.95 112.46M312.95 112.46L317.51 110.58M317.51 110.58L322.06 112.46M322.06 112.46L323.95 117.02M323.95 117.02L322.06 121.57M322.06 121.57L317.51 123.46M317.51 123.46L312.95 121.57M312.95 121.57L311.07 117.02"/>
<path d="M315.72 120.1L317.85 120.56M317.85 120.56L319.84 119.71M319.84 119.71L320.97 117.85"/>
<path d="M321.07 117.02L320.38 114.91M320.38 114.91L318.58 113.62M318.58 113.62L316.37 113.64"/>
<path d="M321.07 117.02L323.95 117.02"/>
<path d="M315.72 120.1L314.29 122.6"/>
<path d="M315.72 113.93L314.29 111.44"/>
<path d="M315.72 113.93L314.27 115.54M314.27 115.54L314.01 117.69M314.01 117.69L315.05 119.6"/>
<path d="M286.74 117L288.62 112.45M288.62 112.45L293.18 110.56M293.18 110.56L297.73 112.45M297.73 112.45L299.62 117M299.62 117L297.73 121.56M297.73 121.56L293.18 123.44M293.18 123.44L288.62 121.56M288.62 121.56L286.74 117"/>
<path d="M291.4 120.09L293.52 120.55M293.52 120.55L295.52 119.69M295.52 119.69L296.64 117.83"/>
<path d="M296.74 117L296.05 114.9M296.05 114.9L294.25 113.61M294.25 113.61L292.04 113.63"/>
<path d="M296.74 117L299.62 117"/>
<path d="M291.4 120.09L289.96 122.58"/>
<path d="M291.4 113.92L289.96 111.43"/>
<path d="M291.4 113.92L289.94 115.52M289.94 115.52L289.68 117.68M289.68 117.68L290.72 119.58"/>
<path d="M259.45 129.89L261.34 125.34M261.34 125.34L265.89 123.45M265.89 123.45L270.44 125.34M270.44 125.34L272.33 129.89M272.33 129.89L270.44 134.45M270.44 134.45L265.89 136.33M265.89 136.33L261.34 134.45M261.34 134.45L259.45 129.89"/>
<path d="M264.11 132.98L266.23 133.44M266.23 133.44L268.23 132.58M268.23 132.58L269.35 130.72"/>
<path d="M269.45 129.89L268.76 127.79M268.76 127.79L266.97 126.5M266.97 126.5L264.75 126.52"/>
<path d="M269.45 129.89L272.33 129.89"/>
<path d="M264.11 132.98L262.67 135.47"/>
<path d="M264.11 126.81L262.67 124.32"/>
<path d="M264.11 126.81L262.65 128.41M262.65 128.41L262.39 130.57M262.39 130.57L263.43 132.47"/>
<path d="M295.79 228.14L297.63 222.46M297.63 222.46L302.46 218.95M302.46 218.95L308.43 218.95M308.43 218.95L313.26 222.46M313.26 222.46L315.11 228.14M315.11 228.14L313.26 233.82M313.26 233.82L308.43 237.32M308.43 237.32L302.46 237.32M302.46 237.32L297.63 233.82M297.63 233.82L295.79 228.14"/>
<path d="M294.18 228.14L295.97 222.04M295.97 222.04L300.77 217.89M300.77 217.89L307.05 216.98M307.05 216.98L312.83 219.62M312.83 219.62L316.26 224.96M316.26 224.96L316.26 231.31M316.26 231.31L312.83 236.65M312.83 236.65L307.05 239.29M307.05 239.29L300.77 238.39M300.77 238.39L295.97 234.23M295.97 234.23L294.18 228.14"/>
<path d="M279.69 228.14L281.65 218.28M281.65 218.28L287.23 209.92M287.23 209.92L295.59 204.34M295.59 204.34L305.45 202.38M305.45 202.38L315.31 204.34M315.31 204.34L323.66 209.92M323.66 209.92L329.25 218.28M329.25 218.28L331.21 228.14M331.21 228.14L329.25 238M329.25 238L323.66 246.35M323.66 246.35L315.31 251.94M315.31 251.94L305.45 253.9M305.45 253.9L295.59 251.94M295.59 251.94L287.23 246.35M287.23 246.35L281.65 238M281.65 238L279.69 228.14"/>
<path d="M278.08 228.14L279.93 218.25M279.93 218.25L285.22 209.7M285.22 209.7L293.25 203.64M293.25 203.64L302.92 200.88M302.92 200.88L312.94 201.81M312.94 201.81L321.94 206.3M321.94 206.3L328.72 213.73M328.72 213.73L332.35 223.11M332.35 223.11L332.35 233.17M332.35 233.17L328.72 242.55M328.72 242.55L321.94 249.98M321.94 249.98L312.94 254.46M312.94 254.46L302.92 255.39M302.92 255.39L293.25 252.64M293.25 252.64L285.22 246.58M285.22 246.58L279.93 238.02M279.93 238.02L278.08 228.14"/>
<path d="M239 125.2L237.54 126.81M237.54 126.81L237.28 128.96M237.28 128.96L238.32 130.86"/>
<path d="M239 125.2L237.56 122.71"/>
<path d="M239 131.37L237.56 133.87"/>
<path d="M244.34 128.29L247.22 128.29"/>
<path d="M244.34 128.29L243.65 126.18M243.65 126.18L241.86 124.89M241.86 124.89L239.64 124.91"/>
<path d="M239 131.37L241.12 131.83M241.12 131.83L243.12 130.97M243.12 130.97L244.24 129.12"/>
<path d="M234.34 128.29L236.23 123.73M236.23 123.73L240.78 121.85M240.78 121.85L245.33 123.73M245.33 123.73L247.22 128.29M247.22 128.29L245.33 132.84M245.33 132.84L240.78 134.73M240.78 134.73L236.23 132.84M236.23 132.84L234.34 128.29"/>
<path d="M341.8 102.65L342.29 102.41M342.29 102.41L343.03 101.67M343.03 101.67L343.03 106.83M348.67 101.67L346.22 101.67M346.22 101.67L345.97 103.88M345.97 103.88L346.22 103.64M346.22 103.64L346.96 103.39M346.96 103.39L347.69 103.39M347.69 103.39L348.43 103.64M348.43 103.64L348.92 104.13M348.92 104.13L349.16 104.86M349.16 104.86L349.16 105.35M349.16 105.35L348.92 106.09M348.92 106.09L348.43 106.58M348.43 106.58L347.69 106.83M347.69 106.83L346.96 106.83M346.96 106.83L346.22 106.58M346.22 106.58L345.97 106.34M345.97 106.34L345.73 105.84"/>
<path d="M313.44 102.84L313.44 102.59M313.44 102.59L313.69 102.1M313.69 102.1L313.93 101.86M313.93 101.86L314.42 101.61M314.42 101.61L315.41 101.61M315.41 101.61L315.9 101.86M315.9 101.86L316.14 102.1M316.14 102.1L316.39 102.59M316.39 102.59L316.39 103.08M316.39 103.08L316.14 103.57M316.14 103.57L315.65 104.31M315.65 104.31L313.2 106.76M313.2 106.76L316.63 106.76M318.1 102.59L318.6 102.35M318.6 102.35L319.33 101.61M319.33 101.61L319.33 106.76"/>
<path d="M289.04 102.9L289.04 102.65M289.04 102.65L289.29 102.16M289.29 102.16L289.53 101.92M289.53 101.92L290.02 101.67M290.02 101.67L291 101.67M291 101.67L291.5 101.92M291.5 101.92L291.74 102.16M291.74 102.16L291.99 102.65M291.99 102.65L291.99 103.15M291.99 103.15L291.74 103.64M291.74 103.64L291.25 104.37M291.25 104.37L288.8 106.83M288.8 106.83L292.23 106.83M293.7 101.67L297.14 101.67M297.14 101.67L294.68 106.83"/>
<path d="M260.31 101.67L263.01 101.67M263.01 101.67L261.53 103.64M261.53 103.64L262.27 103.64M262.27 103.64L262.76 103.88M262.76 103.88L263.01 104.13M263.01 104.13L263.25 104.86M263.25 104.86L263.25 105.35M263.25 105.35L263.01 106.09M263.01 106.09L262.52 106.58M262.52 106.58L261.78 106.83M261.78 106.83L261.04 106.83M261.04 106.83L260.31 106.58M260.31 106.58L260.06 106.34M260.06 106.34L259.82 105.84M265.21 101.67L267.91 101.67M267.91 101.67L266.44 103.64M266.44 103.64L267.18 103.64M267.18 103.64L267.67 103.88M267.67 103.88L267.91 104.13M267.91 104.13L268.16 104.86M268.16 104.86L268.16 105.35M268.16 105.35L267.91 106.09M267.91 106.09L267.42 106.58M267.42 106.58L266.69 106.83M266.69 106.83L265.95 106.83M265.95 106.83L265.21 106.58M265.21 106.58L264.97 106.34M264.97 106.34L264.72 105.84"/>
<path d="M343.41 353.82L343.9 353.57M343.9 353.57L344.64 352.84M344.64 352.84L344.64 357.99M348.81 352.84L348.08 353.08M348.08 353.08L347.58 353.82M347.58 353.82L347.34 355.04M347.34 355.04L347.34 355.78M347.34 355.78L347.58 357.01M347.58 357.01L348.08 357.74M348.08 357.74L348.81 357.99M348.81 357.99L349.3 357.99M349.3 357.99L350.04 357.74M350.04 357.74L350.53 357.01M350.53 357.01L350.77 355.78M350.77 355.78L350.77 355.04M350.77 355.04L350.53 353.82M350.53 353.82L350.04 353.08M350.04 353.08L349.3 352.84M349.3 352.84L348.81 352.84"/>
<path d="M316.01 353.82L316.5 353.57M316.5 353.57L317.24 352.84M317.24 352.84L317.24 357.99M322.88 353.57L322.64 353.08M322.64 353.08L321.9 352.84M321.9 352.84L321.41 352.84M321.41 352.84L320.67 353.08M320.67 353.08L320.18 353.82M320.18 353.82L319.94 355.04M319.94 355.04L319.94 356.27M319.94 356.27L320.18 357.25M320.18 357.25L320.67 357.74M320.67 357.74L321.41 357.99M321.41 357.99L321.66 357.99M321.66 357.99L322.39 357.74M322.39 357.74L322.88 357.25M322.88 357.25L323.13 356.52M323.13 356.52L323.13 356.27M323.13 356.27L322.88 355.53M322.88 355.53L322.39 355.04M322.39 355.04L321.66 354.8M321.66 354.8L321.41 354.8M321.41 354.8L320.67 355.04M320.67 355.04L320.18 355.53M320.18 355.53L319.94 356.27"/>
<path d="M289.04 354.06L289.04 353.82M289.04 353.82L289.29 353.33M289.29 353.33L289.53 353.08M289.53 353.08L290.02 352.84M290.02 352.84L291 352.84M291 352.84L291.5 353.08M291.5 353.08L291.74 353.33M291.74 353.33L291.99 353.82M291.99 353.82L291.99 354.31M291.99 354.31L291.74 354.8M291.74 354.8L291.25 355.53M291.25 355.53L288.8 357.99M288.8 357.99L292.23 357.99M293.95 354.06L293.95 353.82M293.95 353.82L294.19 353.33M294.19 353.33L294.44 353.08M294.44 353.08L294.93 352.84M294.93 352.84L295.91 352.84M295.91 352.84L296.4 353.08M296.4 353.08L296.65 353.33M296.65 353.33L296.89 353.82M296.89 353.82L296.89 354.31M296.89 354.31L296.65 354.8M296.65 354.8L296.16 355.53M296.16 355.53L293.7 357.99M293.7 357.99L297.14 357.99"/>
<path d="M261.67 354.06L261.67 353.82M261.67 353.82L261.92 353.33M261.92 353.33L262.16 353.08M262.16 353.08L262.65 352.84M262.65 352.84L263.63 352.84M263.63 352.84L264.13 353.08M264.13 353.08L264.37 353.33M264.37 353.33L264.62 353.82M264.62 353.82L264.62 354.31M264.62 354.31L264.37 354.8M264.37 354.8L263.88 355.53M263.88 355.53L261.43 357.99M261.43 357.99L264.86 357.99M267.56 352.84L266.82 353.08M266.82 353.08L266.58 353.57M266.58 353.57L266.58 354.06M266.58 354.06L266.82 354.55M266.82 354.55L267.31 354.8M267.31 354.8L268.3 355.04M268.3 355.04L269.03 355.29M269.03 355.29L269.52 355.78M269.52 355.78L269.77 356.27M269.77 356.27L269.77 357.01M269.77 357.01L269.52 357.5M269.52 357.5L269.28 357.74M269.28 357.74L268.54 357.99M268.54 357.99L267.56 357.99M267.56 357.99L266.82 357.74M266.82 357.74L266.58 357.5M266.58 357.5L266.33 357.01M266.33 357.01L266.33 356.27M266.33 356.27L266.58 355.78M266.58 355.78L267.07 355.29M267.07 355.29L267.81 355.04M267.81 355.04L268.79 354.8M268.79 354.8L269.28 354.55M269.28 354.55L269.52 354.06M269.52 354.06L269.52 353.57M269.52 353.57L269.28 353.08M269.28 353.08L268.54 352.84M268.54 352.84L267.56 352.84"/>
<path d="M277.5 404.36L277.5 391.99M278.08 391.99L278.08 404.36M275.73 391.99L282.8 391.99M282.8 391.99L284.56 392.58M284.56 392.58L285.15 393.17M285.15 393.17L285.74 394.35M285.74 394.35L285.74 395.52M285.74 395.52L285.15 396.7M285.15 396.7L284.56 397.29M284.56 397.29L282.8 397.88M282.8 391.99L283.97 392.58M283.97 392.58L284.56 393.17M284.56 393.17L285.15 394.35M285.15 394.35L285.15 395.52M285.15 395.52L284.56 396.7M284.56 396.7L283.97 397.29M283.97 397.29L282.8 397.88M278.08 397.88L282.8 397.88M282.8 397.88L284.56 398.47M284.56 398.47L285.15 399.06M285.15 399.06L285.74 400.23M285.74 400.23L285.74 402M285.74 402L285.15 403.18M285.15 403.18L284.56 403.77M284.56 403.77L282.8 404.36M282.8 404.36L275.73 404.36M282.8 397.88L283.97 398.47M283.97 398.47L284.56 399.06M284.56 399.06L285.15 400.23M285.15 400.23L285.15 402M285.15 402L284.56 403.18M284.56 403.18L283.97 403.77M283.97 403.77L282.8 404.36M290.45 404.36L290.45 391.99M291.04 391.99L291.04 404.36M288.68 391.99L292.8 391.99M288.68 404.36L297.52 404.36M297.52 404.36L297.52 400.82M297.52 400.82L296.93 404.36M304.58 391.99L300.46 404.36M304.58 391.99L308.7 404.36M304.58 393.76L308.11 404.36M301.64 400.82L306.94 400.82M299.28 404.36L302.81 404.36M306.35 404.36L309.88 404.36M319.89 393.76L320.48 395.52M320.48 395.52L320.48 391.99M320.48 391.99L319.89 393.76M319.89 393.76L318.71 392.58M318.71 392.58L316.95 391.99M316.95 391.99L315.77 391.99M315.77 391.99L314 392.58M314 392.58L312.82 393.76M312.82 393.76L312.24 394.93M312.24 394.93L311.65 396.7M311.65 396.7L311.65 399.64M311.65 399.64L312.24 401.41M312.24 401.41L312.82 402.59M312.82 402.59L314 403.77M314 403.77L315.77 404.36M315.77 404.36L316.95 404.36M316.95 404.36L318.71 403.77M318.71 403.77L319.89 402.59M319.89 402.59L320.48 401.41M315.77 391.99L314.59 392.58M314.59 392.58L313.41 393.76M313.41 393.76L312.82 394.93M312.82 394.93L312.24 396.7M312.24 396.7L312.24 399.64M312.24 399.64L312.82 401.41M312.82 401.41L313.41 402.59M313.41 402.59L314.59 403.77M314.59 403.77L315.77 404.36M325.78 404.36L325.78 391.99M326.37 391.99L326.37 404.36M334.02 391.99L326.37 399.64M329.31 397.29L334.02 404.36M328.72 397.29L333.43 404.36M324.01 391.99L328.13 391.99M331.67 391.99L335.2 391.99M324.01 404.36L328.13 404.36M331.67 404.36L335.2 404.36"/>
</g>
</g>
</svg>
