<?xml version="1.0" standalone="no"?><svg xmlns="http://www.w3.org/2000/svg" width="600.000" height="450.000" viewBox="0.0 0.0 600.000 450.000" version="1.1">
<title>Acme Converter - Post-processed with EDS-Designer: 14.44 (info@symca.com)</title>
<desc>Acme Converter - Post-processed with EDS-Designer: 14.44 (info@symca.com)</desc>
<g id="EDS_STYLE_GROUP" fill="none" stroke="black" stroke-width="1.0">
<g id="0" display="visible">
<path d="M91.4 179.26L92.65 178.64M92.65 178.64L94.54 176.75M94.54 176.75L94.54 189.95"/>
<path d="M87.88 231.35L89.14 230.72M89.14 230.72L91.03 228.83M91.03 228.83L91.03 242.03M97.94 231.35L99.19 230.72M99.19 230.72L101.08 228.83M101.08 228.83L101.08 242.03"/>
<path d="M81.49 269.72L81.49 269.09M81.49 269.09L82.11 267.84M82.11 267.84L82.74 267.21M82.74 267.21L84 266.58M84 266.58L86.51 266.58M86.51 266.58L87.77 267.21M87.77 267.21L88.4 267.84M88.4 267.84L89.03 269.09M89.03 269.09L89.03 270.35M89.03 270.35L88.4 271.61M88.4 271.61L87.14 273.49M87.14 273.49L80.86 279.78M80.86 279.78L89.66 279.78M94.68 266.58L101.6 266.58M101.6 266.58L97.82 271.61M97.82 271.61L99.71 271.61M99.71 271.61L100.97 272.24M100.97 272.24L101.6 272.86M101.6 272.86L102.22 274.75M102.22 274.75L102.22 276.01M102.22 276.01L101.6 277.89M101.6 277.89L100.34 279.15M100.34 279.15L98.45 279.78M98.45 279.78L96.57 279.78M96.57 279.78L94.68 279.15M94.68 279.15L94.05 278.52M94.05 278.52L93.43 277.26"/>
<path d="M497.62 186.29L498.88 185.66M498.88 185.66L500.77 183.77M500.77 183.77L500.77 196.97M511.45 183.77L509.57 184.4M509.57 184.4L508.31 186.29M508.31 186.29L507.68 189.43M507.68 189.43L507.68 191.31M507.68 191.31L508.31 194.46M508.31 194.46L509.57 196.34M509.57 196.34L511.45 196.97M511.45 196.97L512.71 196.97M512.71 196.97L514.59 196.34M514.59 196.34L515.85 194.46M515.85 194.46L516.48 191.31M516.48 191.31L516.48 189.43M516.48 189.43L515.85 186.29M515.85 186.29L514.59 184.4M514.59 184.4L512.71 183.77M512.71 183.77L511.45 183.77"/>
<path d="M498.41 230.12L498.41 229.49M498.41 229.49L499.04 228.23M499.04 228.23L499.67 227.6M499.67 227.6L500.93 226.97M500.93 226.97L503.44 226.97M503.44 226.97L504.7 227.6M504.7 227.6L505.33 228.23M505.33 228.23L505.95 229.49M505.95 229.49L505.95 230.75M505.95 230.75L505.33 232M505.33 232L504.07 233.89M504.07 233.89L497.79 240.17M497.79 240.17L506.58 240.17M510.98 230.12L510.98 229.49M510.98 229.49L511.61 228.23M511.61 228.23L512.24 227.6M512.24 227.6L513.5 226.97M513.5 226.97L516.01 226.97M516.01 226.97L517.27 227.6M517.27 227.6L517.9 228.23M517.9 228.23L518.52 229.49M518.52 229.49L518.52 230.75M518.52 230.75L517.9 232M517.9 232L516.64 233.89M516.64 233.89L510.35 240.17M510.35 240.17L519.15 240.17"/>
<path d="M498.29 266.64L505.21 266.64M505.21 266.64L501.44 271.66M501.44 271.66L503.32 271.66M503.32 271.66L504.58 272.29M504.58 272.29L505.21 272.92M505.21 272.92L505.83 274.81M505.83 274.81L505.83 276.06M505.83 276.06L505.21 277.95M505.21 277.95L503.95 279.2M503.95 279.2L502.06 279.83M502.06 279.83L500.18 279.83M500.18 279.83L498.29 279.2M498.29 279.2L497.66 278.58M497.66 278.58L497.04 277.32M513.38 266.64L511.49 267.26M511.49 267.26L510.23 269.15M510.23 269.15L509.61 272.29M509.61 272.29L509.61 274.18M509.61 274.18L510.23 277.32M510.23 277.32L511.49 279.2M511.49 279.2L513.38 279.83M513.38 279.83L514.63 279.83M514.63 279.83L516.52 279.2M516.52 279.2L517.78 277.32M517.78 277.32L518.4 274.18M518.4 274.18L518.4 272.29M518.4 272.29L517.78 269.15M517.78 269.15L516.52 267.26M516.52 267.26L514.63 266.64M514.63 266.64L513.38 266.64"/>
<path d="M211.77 391.95L211.77 365.56M213.03 391.95L213.03 365.56M213.03 365.56L228.11 389.44M213.03 368.07L228.11 391.95M228.11 391.95L228.11 365.56M208 365.56L213.03 365.56M224.34 365.56L231.88 365.56M208 391.95L215.54 391.95M248.22 365.56L239.42 391.95M248.22 365.56L257.02 391.95M248.22 369.33L255.76 391.95M241.93 384.41L253.25 384.41M236.91 391.95L244.45 391.95M251.99 391.95L259.53 391.95M272.1 391.95L272.1 365.56M273.36 365.56L273.36 391.95M264.56 365.56L263.3 373.1M263.3 373.1L263.3 365.56M263.3 365.56L282.15 365.56M282.15 365.56L282.15 373.1M282.15 373.1L280.9 365.56M268.33 391.95L277.13 391.95M290.95 365.56L290.95 384.41M290.95 384.41L292.21 388.18M292.21 388.18L294.72 390.69M294.72 390.69L298.49 391.95M298.49 391.95L301.01 391.95M301.01 391.95L304.78 390.69M304.78 390.69L307.29 388.18M307.29 388.18L308.55 384.41M308.55 384.41L308.55 365.56M292.21 365.56L292.21 384.41M292.21 384.41L293.47 388.18M293.47 388.18L295.98 390.69M295.98 390.69L298.49 391.95M287.18 365.56L295.98 365.56M304.78 365.56L312.32 365.56M321.12 391.95L321.12 365.56M322.37 365.56L322.37 391.95M317.35 365.56L332.43 365.56M332.43 365.56L336.2 366.81M336.2 366.81L337.46 368.07M337.46 368.07L338.71 370.58M338.71 370.58L338.71 373.1M338.71 373.1L337.46 375.61M337.46 375.61L336.2 376.87M336.2 376.87L332.43 378.12M332.43 378.12L322.37 378.12M332.43 365.56L334.94 366.81M334.94 366.81L336.2 368.07M336.2 368.07L337.46 370.58M337.46 370.58L337.46 373.1M337.46 373.1L336.2 375.61M336.2 375.61L334.94 376.87M334.94 376.87L332.43 378.12M317.35 391.95L326.15 391.95M328.66 378.12L331.17 379.38M331.17 379.38L332.43 380.64M332.43 380.64L336.2 389.44M336.2 389.44L337.46 390.69M337.46 390.69L338.71 390.69M338.71 390.69L339.97 389.44M331.17 379.38L332.43 381.89M332.43 381.89L334.94 390.69M334.94 390.69L336.2 391.95M336.2 391.95L338.71 391.95M338.71 391.95L339.97 389.44M339.97 389.44L339.97 388.18M356.31 365.56L347.51 391.95M356.31 365.56L365.11 391.95M356.31 369.33L363.85 391.95M350.03 384.41L361.34 384.41M345 391.95L352.54 391.95M360.08 391.95L367.62 391.95M375.16 391.95L375.16 365.56M376.42 365.56L376.42 391.95M371.39 365.56L380.19 365.56M371.39 391.95L390.25 391.95M390.25 391.95L390.25 384.41M390.25 384.41L388.99 391.95"/>
<path d="M326.84 246.78L300.44 246.78"/>
<path d="M300.44 220.38L326.84 220.38"/>
<path d="M300.44 220.38L307.04 226.98"/>
<path d="M300.44 246.78L307.04 240.18"/>
<path d="M300.44 220.38L300.44 246.78"/>
<path d="M326.84 246.78L320.24 240.18"/>
<path d="M326.84 220.38L320.24 226.98"/>
<path d="M320.24 226.98L320.24 240.18"/>
<path d="M307.04 240.18L307.04 226.98"/>
<path d="M307.04 226.98L320.24 226.98"/>
<path d="M320.24 240.18L307.04 240.18"/>
<path d="M326.84 220.38L326.84 246.78"/>
<path d="M271.41 246.78L278.01 240.18"/>
<path d="M271.41 220.38L278.01 226.98"/>
<path d="M297.8 246.78L271.41 246.78"/>
<path d="M271.41 220.38L297.8 220.38"/>
<path d="M271.41 220.38L271.41 246.78"/>
<path d="M297.8 246.78L291.2 240.18"/>
<path d="M297.8 220.38L291.2 226.98"/>
<path d="M291.2 226.98L291.2 240.18"/>
<path d="M278.01 240.18L278.01 226.98"/>
<path d="M291.2 240.18L278.01 240.18"/>
<path d="M278.01 226.98L291.2 226.98"/>
<path d="M297.8 220.38L297.8 246.78"/>
<path d="M271.41 207.19L278.01 200.59"/>
<path d="M271.41 180.79L278.01 187.39"/>
<path d="M297.8 207.19L271.41 207.19"/>
<path d="M271.41 180.79L297.8 180.79"/>
<path d="M271.41 180.79L271.41 207.19"/>
<path d="M297.8 207.19L291.2 200.59"/>
<path d="M297.8 180.79L291.2 187.39"/>
<path d="M291.2 187.39L291.2 200.59"/>
<path d="M278.01 200.59L278.01 187.39"/>
<path d="M291.2 200.59L278.01 200.59"/>
<path d="M278.01 187.39L291.2 187.39"/>
<path d="M297.8 180.79L297.8 207.19"/>
<path d="M300.44 207.19L307.04 200.59"/>
<path d="M300.44 180.79L307.04 187.39"/>
<path d="M326.84 207.19L300.44 207.19"/>
<path d="M300.44 180.79L326.84 180.79"/>
<path d="M300.44 180.79L300.44 207.19"/>
<path d="M326.84 207.19L320.24 200.59"/>
<path d="M326.84 180.79L320.24 187.39"/>
<path d="M320.24 187.39L320.24 200.59"/>
<path d="M307.04 200.59L307.04 187.39"/>
<path d="M320.24 200.59L307.04 200.59"/>
<path d="M307.04 187.39L320.24 187.39"/>
<path d="M326.84 180.79L326.84 207.19"/>
<path d="M358.51 180.79L384.9 180.79"/>
<path d="M384.9 207.19L358.51 207.19"/>
<path d="M358.51 180.79L365.11 187.39"/>
<path d="M358.51 207.19L365.11 200.59"/>
<path d="M358.51 246.78L365.11 240.18"/>
<path d="M358.51 220.38L365.11 226.98"/>
<path d="M384.9 246.78L358.51 246.78"/>
<path d="M358.51 220.38L384.9 220.38"/>
<path d="M336.07 226.98L349.27 226.98"/>
<path d="M349.27 240.18L336.07 240.18"/>
<path d="M329.48 220.38L355.87 220.38"/>
<path d="M355.87 246.78L329.48 246.78"/>
<path d="M336.07 240.18L336.07 226.98"/>
<path d="M329.48 220.38L329.48 246.78"/>
<path d="M329.48 246.78L336.07 240.18"/>
<path d="M329.48 220.38L336.07 226.98"/>
<path d="M355.87 220.38L355.87 246.78"/>
<path d="M349.27 226.98L349.27 240.18"/>
<path d="M358.51 220.38L358.51 246.78"/>
<path d="M355.87 246.78L349.27 240.18"/>
<path d="M355.87 220.38L349.27 226.98"/>
<path d="M336.07 187.39L349.27 187.39"/>
<path d="M349.27 200.59L336.07 200.59"/>
<path d="M329.48 180.79L355.87 180.79"/>
<path d="M355.87 207.19L329.48 207.19"/>
<path d="M336.07 200.59L336.07 187.39"/>
<path d="M329.48 180.79L329.48 207.19"/>
<path d="M329.48 207.19L336.07 200.59"/>
<path d="M329.48 180.79L336.07 187.39"/>
<path d="M358.51 180.79L358.51 207.19"/>
<path d="M355.87 180.79L355.87 207.19"/>
<path d="M349.27 187.39L349.27 200.59"/>
<path d="M355.87 207.19L349.27 200.59"/>
<path d="M355.87 180.79L349.27 187.39"/>
<path d="M384.9 246.78L378.31 240.18"/>
<path d="M384.9 220.38L378.31 226.98"/>
<path d="M378.31 226.98L378.31 240.18"/>
<path d="M365.11 240.18L365.11 226.98"/>
<path d="M378.31 240.18L365.11 240.18"/>
<path d="M365.11 226.98L378.31 226.98"/>
<path d="M384.9 220.38L384.9 246.78"/>
<path d="M384.9 180.79L378.31 187.39"/>
<path d="M384.9 207.19L378.31 200.59"/>
<path d="M365.11 200.59L365.11 187.39"/>
<path d="M378.31 187.39L378.31 200.59"/>
<path d="M378.31 200.59L365.11 200.59"/>
<path d="M365.11 187.39L378.31 187.39"/>
<path d="M384.9 180.79L384.9 207.19"/>
<path d="M445.61 220.38L472.01 220.38"/>
<path d="M472.01 246.78L445.61 246.78"/>
<path d="M445.61 220.38L452.21 226.98"/>
<path d="M445.61 246.78L452.21 240.18"/>
<path d="M416.58 246.78L423.18 240.18"/>
<path d="M416.58 220.38L423.18 226.98"/>
<path d="M442.97 246.78L416.58 246.78"/>
<path d="M416.58 220.38L442.97 220.38"/>
<path d="M394.14 226.98L407.34 226.98"/>
<path d="M407.34 240.18L394.14 240.18"/>
<path d="M387.54 220.38L413.94 220.38"/>
<path d="M413.94 246.78L387.54 246.78"/>
<path d="M394.14 240.18L394.14 226.98"/>
<path d="M387.54 220.38L387.54 246.78"/>
<path d="M387.54 246.78L394.14 240.18"/>
<path d="M387.54 220.38L394.14 226.98"/>
<path d="M413.94 220.38L413.94 246.78"/>
<path d="M407.34 226.98L407.34 240.18"/>
<path d="M416.58 220.38L416.58 246.78"/>
<path d="M413.94 246.78L407.34 240.18"/>
<path d="M413.94 220.38L407.34 226.98"/>
<path d="M394.14 187.39L407.34 187.39"/>
<path d="M407.34 200.59L394.14 200.59"/>
<path d="M387.54 180.79L413.94 180.79"/>
<path d="M413.94 207.19L387.54 207.19"/>
<path d="M394.14 200.59L394.14 187.39"/>
<path d="M387.54 180.79L387.54 207.19"/>
<path d="M387.54 207.19L394.14 200.59"/>
<path d="M387.54 180.79L394.14 187.39"/>
<path d="M445.61 220.38L445.61 246.78"/>
<path d="M413.94 180.79L413.94 207.19"/>
<path d="M407.34 187.39L407.34 200.59"/>
<path d="M413.94 207.19L407.34 200.59"/>
<path d="M413.94 180.79L407.34 187.39"/>
<path d="M442.97 246.78L436.37 240.18"/>
<path d="M442.97 220.38L436.37 226.98"/>
<path d="M436.37 226.98L436.37 240.18"/>
<path d="M423.18 240.18L423.18 226.98"/>
<path d="M436.37 240.18L423.18 240.18"/>
<path d="M423.18 226.98L436.37 226.98"/>
<path d="M442.97 220.38L442.97 246.78"/>
<path d="M472.01 220.38L465.41 226.98"/>
<path d="M472.01 246.78L465.41 240.18"/>
<path d="M452.21 240.18L452.21 226.98"/>
<path d="M465.41 226.98L465.41 240.18"/>
<path d="M465.41 240.18L452.21 240.18"/>
<path d="M452.21 226.98L465.41 226.98"/>
<path d="M472.01 220.38L472.01 246.78"/>
<path d="M242.37 180.79L268.77 180.79"/>
<path d="M268.77 207.19L242.37 207.19"/>
<path d="M242.37 180.79L248.97 187.39"/>
<path d="M242.37 207.19L248.97 200.59"/>
<path d="M242.37 246.78L248.97 240.18"/>
<path d="M242.37 220.38L248.97 226.98"/>
<path d="M268.77 246.78L242.37 246.78"/>
<path d="M242.37 220.38L268.77 220.38"/>
<path d="M219.94 226.98L233.14 226.98"/>
<path d="M233.14 240.18L219.94 240.18"/>
<path d="M213.34 220.38L239.73 220.38"/>
<path d="M239.73 246.78L213.34 246.78"/>
<path d="M219.94 240.18L219.94 226.98"/>
<path d="M213.34 220.38L213.34 246.78"/>
<path d="M213.34 246.78L219.94 240.18"/>
<path d="M213.34 220.38L219.94 226.98"/>
<path d="M239.73 220.38L239.73 246.78"/>
<path d="M233.14 226.98L233.14 240.18"/>
<path d="M242.37 220.38L242.37 246.78"/>
<path d="M239.73 246.78L233.14 240.18"/>
<path d="M239.73 220.38L233.14 226.98"/>
<path d="M219.94 187.39L233.14 187.39"/>
<path d="M233.14 200.59L219.94 200.59"/>
<path d="M213.34 180.79L239.73 180.79"/>
<path d="M239.73 207.19L213.34 207.19"/>
<path d="M219.94 200.59L219.94 187.39"/>
<path d="M213.34 180.79L213.34 207.19"/>
<path d="M213.34 207.19L219.94 200.59"/>
<path d="M213.34 180.79L219.94 187.39"/>
<path d="M242.37 180.79L242.37 207.19"/>
<path d="M239.73 180.79L239.73 207.19"/>
<path d="M233.14 187.39L233.14 200.59"/>
<path d="M239.73 207.19L233.14 200.59"/>
<path d="M239.73 180.79L233.14 187.39"/>
<path d="M268.77 246.78L262.17 240.18"/>
<path d="M268.77 220.38L262.17 226.98"/>
<path d="M262.17 226.98L262.17 240.18"/>
<path d="M248.97 240.18L248.97 226.98"/>
<path d="M262.17 240.18L248.97 240.18"/>
<path d="M248.97 226.98L262.17 226.98"/>
<path d="M268.77 220.38L268.77 246.78"/>
<path d="M268.77 180.79L262.17 187.39"/>
<path d="M268.77 207.19L262.17 200.59"/>
<path d="M248.97 200.59L248.97 187.39"/>
<path d="M262.17 187.39L262.17 200.59"/>
<path d="M262.17 200.59L248.97 200.59"/>
<path d="M248.97 187.39L262.17 187.39"/>
<path d="M268.77 180.79L268.77 207.19"/>
<path d="M184.31 180.79L210.7 180.79"/>
<path d="M210.7 207.19L184.31 207.19"/>
<path d="M184.31 180.79L190.9 187.39"/>
<path d="M184.31 207.19L190.9 200.59"/>
<path d="M184.31 246.78L190.9 240.18"/>
<path d="M184.31 220.38L190.9 226.98"/>
<path d="M210.7 246.78L184.31 246.78"/>
<path d="M184.31 220.38L210.7 220.38"/>
<path d="M161.87 226.98L175.07 226.98"/>
<path d="M175.07 240.18L161.87 240.18"/>
<path d="M155.27 220.38L181.67 220.38"/>
<path d="M181.67 246.78L155.27 246.78"/>
<path d="M161.87 240.18L161.87 226.98"/>
<path d="M155.27 220.38L155.27 246.78"/>
<path d="M155.27 246.78L161.87 240.18"/>
<path d="M155.27 220.38L161.87 226.98"/>
<path d="M181.67 220.38L181.67 246.78"/>
<path d="M175.07 226.98L175.07 240.18"/>
<path d="M184.31 220.38L184.31 246.78"/>
<path d="M181.67 246.78L175.07 240.18"/>
<path d="M181.67 220.38L175.07 226.98"/>
<path d="M132.84 226.98L146.03 226.98"/>
<path d="M146.03 240.18L132.84 240.18"/>
<path d="M126.24 220.38L152.63 220.38"/>
<path d="M152.63 246.78L126.24 246.78"/>
<path d="M132.84 240.18L132.84 226.98"/>
<path d="M126.24 220.38L126.24 246.78"/>
<path d="M126.24 246.78L132.84 240.18"/>
<path d="M126.24 220.38L132.84 226.98"/>
<path d="M184.31 180.79L184.31 207.19"/>
<path d="M152.63 220.38L152.63 246.78"/>
<path d="M146.03 226.98L146.03 240.18"/>
<path d="M152.63 246.78L146.03 240.18"/>
<path d="M152.63 220.38L146.03 226.98"/>
<path d="M210.7 246.78L204.1 240.18"/>
<path d="M210.7 220.38L204.1 226.98"/>
<path d="M204.1 226.98L204.1 240.18"/>
<path d="M190.9 240.18L190.9 226.98"/>
<path d="M204.1 240.18L190.9 240.18"/>
<path d="M190.9 226.98L204.1 226.98"/>
<path d="M210.7 220.38L210.7 246.78"/>
<path d="M210.7 180.79L204.1 187.39"/>
<path d="M210.7 207.19L204.1 200.59"/>
<path d="M190.9 200.59L190.9 187.39"/>
<path d="M204.1 187.39L204.1 200.59"/>
<path d="M204.1 200.59L190.9 200.59"/>
<path d="M190.9 187.39L204.1 187.39"/>
<path d="M210.7 180.79L210.7 207.19"/>
<path d="M132.84 266.58L146.03 266.58"/>
<path d="M146.03 279.77L132.84 279.77"/>
<path d="M126.24 259.98L152.63 259.98"/>
<path d="M152.63 286.37L126.24 286.37"/>
<path d="M132.84 279.77L132.84 266.58"/>
<path d="M126.24 259.98L126.24 286.37"/>
<path d="M126.24 286.37L132.84 279.77"/>
<path d="M126.24 259.98L132.84 266.58"/>
<path d="M213.34 259.98L219.94 266.58"/>
<path d="M213.34 286.37L219.94 279.77"/>
<path d="M239.73 286.37L213.34 286.37"/>
<path d="M213.34 259.98L239.73 259.98"/>
<path d="M181.67 259.98L175.07 266.58"/>
<path d="M181.67 286.37L175.07 279.77"/>
<path d="M181.67 286.37L155.27 286.37"/>
<path d="M155.27 259.98L181.67 259.98"/>
<path d="M155.27 259.98L161.87 266.58"/>
<path d="M155.27 286.37L161.87 279.77"/>
<path d="M152.63 259.98L152.63 286.37"/>
<path d="M146.03 266.58L146.03 279.77"/>
<path d="M155.27 259.98L155.27 286.37"/>
<path d="M152.63 286.37L146.03 279.77"/>
<path d="M152.63 259.98L146.03 266.58"/>
<path d="M175.07 266.58L175.07 279.77"/>
<path d="M161.87 279.77L161.87 266.58"/>
<path d="M175.07 279.77L161.87 279.77"/>
<path d="M161.87 266.58L175.07 266.58"/>
<path d="M190.9 266.58L204.1 266.58"/>
<path d="M204.1 279.77L190.9 279.77"/>
<path d="M184.31 259.98L210.7 259.98"/>
<path d="M210.7 286.37L184.31 286.37"/>
<path d="M190.9 279.77L190.9 266.58"/>
<path d="M184.31 259.98L184.31 286.37"/>
<path d="M181.67 259.98L181.67 286.37"/>
<path d="M184.31 286.37L190.9 279.77"/>
<path d="M184.31 259.98L190.9 266.58"/>
<path d="M210.7 259.98L210.7 286.37"/>
<path d="M204.1 266.58L204.1 279.77"/>
<path d="M213.34 259.98L213.34 286.37"/>
<path d="M210.7 286.37L204.1 279.77"/>
<path d="M210.7 259.98L204.1 266.58"/>
<path d="M233.14 266.58L233.14 279.77"/>
<path d="M239.73 259.98L239.73 286.37"/>
<path d="M219.94 279.77L219.94 266.58"/>
<path d="M233.14 279.77L219.94 279.77"/>
<path d="M239.73 286.37L233.14 279.77"/>
<path d="M219.94 266.58L233.14 266.58"/>
<path d="M239.73 259.98L233.14 266.58"/>
<path d="M472.01 259.98L465.41 266.58"/>
<path d="M472.01 286.37L465.41 279.77"/>
<path d="M445.61 259.98L472.01 259.98"/>
<path d="M472.01 286.37L445.61 286.37"/>
<path d="M358.51 259.98L384.9 259.98"/>
<path d="M384.9 286.37L358.51 286.37"/>
<path d="M358.51 259.98L365.11 266.58"/>
<path d="M358.51 286.37L365.11 279.77"/>
<path d="M358.51 259.98L358.51 286.37"/>
<path d="M384.9 259.98L384.9 286.37"/>
<path d="M365.11 279.77L365.11 266.58"/>
<path d="M378.31 266.58L378.31 279.77"/>
<path d="M378.31 279.77L365.11 279.77"/>
<path d="M384.9 286.37L378.31 279.77"/>
<path d="M365.11 266.58L378.31 266.58"/>
<path d="M384.9 259.98L378.31 266.58"/>
<path d="M423.18 266.58L436.37 266.58"/>
<path d="M436.37 279.77L423.18 279.77"/>
<path d="M416.58 259.98L442.97 259.98"/>
<path d="M442.97 286.37L416.58 286.37"/>
<path d="M413.94 286.37L387.54 286.37"/>
<path d="M387.54 259.98L413.94 259.98"/>
<path d="M407.34 279.77L394.14 279.77"/>
<path d="M394.14 266.58L407.34 266.58"/>
<path d="M387.54 259.98L387.54 286.37"/>
<path d="M394.14 279.77L394.14 266.58"/>
<path d="M387.54 286.37L394.14 279.77"/>
<path d="M387.54 259.98L394.14 266.58"/>
<path d="M423.18 279.77L423.18 266.58"/>
<path d="M416.58 259.98L416.58 286.37"/>
<path d="M407.34 266.58L407.34 279.77"/>
<path d="M413.94 259.98L413.94 286.37"/>
<path d="M416.58 286.37L423.18 279.77"/>
<path d="M413.94 286.37L407.34 279.77"/>
<path d="M416.58 259.98L423.18 266.58"/>
<path d="M413.94 259.98L407.34 266.58"/>
<path d="M445.61 259.98L452.21 266.58"/>
<path d="M445.61 286.37L452.21 279.77"/>
<path d="M445.61 259.98L445.61 286.37"/>
<path d="M442.97 259.98L442.97 286.37"/>
<path d="M436.37 266.58L436.37 279.77"/>
<path d="M442.97 286.37L436.37 279.77"/>
<path d="M442.97 259.98L436.37 266.58"/>
<path d="M465.41 266.58L465.41 279.77"/>
<path d="M452.21 279.77L452.21 266.58"/>
<path d="M465.41 279.77L452.21 279.77"/>
<path d="M452.21 266.58L465.41 266.58"/>
<path d="M472.01 259.98L472.01 286.37"/>
<path d="M448.91 286.37L448.91 292.97"/>
<path d="M448.91 292.97L468.71 292.97"/>
<path d="M468.71 292.97L468.71 286.37"/>
<path d="M419.88 286.37L419.88 292.97"/>
<path d="M419.88 292.97L439.67 292.97"/>
<path d="M439.67 292.97L439.67 286.37"/>
<path d="M390.84 286.37L390.84 292.97"/>
<path d="M390.84 292.97L410.64 292.97"/>
<path d="M410.64 292.97L410.64 286.37"/>
<path d="M361.81 286.37L361.81 292.97"/>
<path d="M361.81 292.97L381.61 292.97"/>
<path d="M381.61 292.97L381.61 286.37"/>
<path d="M448.91 246.78L448.91 253.38"/>
<path d="M448.91 253.38L468.71 253.38"/>
<path d="M468.71 253.38L468.71 246.78"/>
<path d="M419.88 246.78L419.88 253.38"/>
<path d="M419.88 253.38L439.67 253.38"/>
<path d="M439.67 253.38L439.67 246.78"/>
<path d="M390.84 246.78L390.84 253.38"/>
<path d="M390.84 253.38L410.64 253.38"/>
<path d="M410.64 253.38L410.64 246.78"/>
<path d="M361.81 246.78L361.81 253.38"/>
<path d="M361.81 253.38L381.61 253.38"/>
<path d="M381.61 253.38L381.61 246.78"/>
<path d="M361.81 207.19L361.81 213.79"/>
<path d="M361.81 213.79L381.61 213.79"/>
<path d="M381.61 213.79L381.61 207.19"/>
<path d="M390.84 207.19L390.84 213.79"/>
<path d="M390.84 213.79L410.64 213.79"/>
<path d="M410.64 213.79L410.64 207.19"/>
<path d="M332.78 207.19L332.78 213.79"/>
<path d="M332.78 213.79L352.57 213.79"/>
<path d="M352.57 213.79L352.57 207.19"/>
<path d="M332.78 246.78L332.78 253.38"/>
<path d="M332.78 253.38L352.57 253.38"/>
<path d="M352.57 253.38L352.57 246.78"/>
<path d="M303.74 246.78L303.74 253.38"/>
<path d="M303.74 253.38L323.54 253.38"/>
<path d="M323.54 253.38L323.54 246.78"/>
<path d="M332.78 246.78L332.78 253.38"/>
<path d="M332.78 253.38L352.57 253.38"/>
<path d="M352.57 253.38L352.57 246.78"/>
<path d="M303.74 207.19L303.74 213.79"/>
<path d="M303.74 213.79L323.54 213.79"/>
<path d="M323.54 213.79L323.54 207.19"/>
<path d="M274.71 207.19L274.71 213.79"/>
<path d="M274.71 213.79L294.5 213.79"/>
<path d="M294.5 213.79L294.5 207.19"/>
<path d="M245.67 207.19L245.67 213.79"/>
<path d="M245.67 213.79L265.47 213.79"/>
<path d="M265.47 213.79L265.47 207.19"/>
<path d="M216.64 207.19L216.64 213.79"/>
<path d="M216.64 213.79L236.43 213.79"/>
<path d="M236.43 213.79L236.43 207.19"/>
<path d="M187.6 207.19L187.6 213.79"/>
<path d="M187.6 213.79L207.4 213.79"/>
<path d="M207.4 213.79L207.4 207.19"/>
<path d="M187.6 246.78L187.6 253.38"/>
<path d="M187.6 253.38L207.4 253.38"/>
<path d="M207.4 253.38L207.4 246.78"/>
<path d="M216.64 246.78L216.64 253.38"/>
<path d="M216.64 253.38L236.43 253.38"/>
<path d="M236.43 253.38L236.43 246.78"/>
<path d="M245.67 246.78L245.67 253.38"/>
<path d="M245.67 253.38L265.47 253.38"/>
<path d="M265.47 253.38L265.47 246.78"/>
<path d="M274.71 246.78L274.71 253.38"/>
<path d="M274.71 253.38L294.5 253.38"/>
<path d="M294.5 253.38L294.5 246.78"/>
<path d="M216.64 286.37L216.64 292.97"/>
<path d="M216.64 292.97L236.43 292.97"/>
<path d="M236.43 292.97L236.43 286.37"/>
<path d="M187.6 286.37L187.6 292.97"/>
<path d="M187.6 292.97L207.4 292.97"/>
<path d="M207.4 292.97L207.4 286.37"/>
<path d="M158.57 286.37L158.57 292.97"/>
<path d="M158.57 292.97L178.37 292.97"/>
<path d="M178.37 292.97L178.37 286.37"/>
<path d="M129.54 286.37L129.54 292.97"/>
<path d="M129.54 292.97L149.33 292.97"/>
<path d="M149.33 292.97L149.33 286.37"/>
<path d="M129.54 246.78L129.54 253.38"/>
<path d="M129.54 253.38L149.33 253.38"/>
<path d="M149.33 253.38L149.33 246.78"/>
<path d="M158.57 246.78L158.57 253.38"/>
<path d="M158.57 253.38L178.37 253.38"/>
<path d="M178.37 253.38L178.37 246.78"/>
<path d="M490.48 304.17L490.48 89.92"/>
<path d="M107.76 304.17L107.76 89.92"/>
<path d="M111.06 296.93L266.13 296.93"/>
<path d="M170.45 333.88L427.8 333.88"/>
<path d="M139.62 58.06L206.74 58.06"/>
<path d="M180.35 203.89L127.56 203.89"/>
<path d="M127.56 203.89L127.56 174.19"/>
<path d="M127.56 174.19L180.35 174.19"/>
<path d="M180.35 203.89L180.35 174.19"/>
<path d="M127.56 174.19L134.16 180.79"/>
<path d="M134.16 180.79L134.16 197.29"/>
<path d="M134.16 197.29L127.56 203.89"/>
<path d="M134.16 197.29L173.75 197.29"/>
<path d="M173.75 197.29L180.35 203.89"/>
<path d="M173.75 197.29L173.75 180.79"/>
<path d="M173.75 180.79L180.35 174.19"/>
<path d="M134.16 180.79L140.75 180.79"/>
<path d="M140.75 180.79L140.75 147.8"/>
<path d="M173.75 180.79L167.15 180.79"/>
<path d="M167.15 180.79L167.15 147.8"/>
<path d="M114.36 128L239.73 128"/>
<path d="M167.15 147.8L173.75 147.8"/>
<path d="M173.75 147.8L173.75 141.2"/>
<path d="M173.75 141.2L134.16 141.2"/>
<path d="M134.16 141.2L134.16 147.8"/>
<path d="M134.16 147.8L140.75 147.8"/>
<path d="M140.75 161L167.15 161"/>
<path d="M173.75 144.5L134.16 144.5"/>
<path d="M269.43 167.6L269.43 154.4"/>
<path d="M269.43 154.4L328.82 154.4"/>
<path d="M328.82 154.4L328.82 167.6"/>
<path d="M328.82 167.6L269.43 167.6"/>
<path d="M398.1 167.6L338.71 167.6"/>
<path d="M338.71 154.4L398.1 154.4"/>
<path d="M338.71 167.6L338.71 154.4"/>
<path d="M398.1 154.4L398.1 167.6"/>
<path d="M259.53 167.6L200.14 167.6"/>
<path d="M200.14 154.4L259.53 154.4"/>
<path d="M200.14 167.6L200.14 154.4"/>
<path d="M259.53 154.4L259.53 167.6"/>
<path d="M470.69 203.89L417.9 203.89"/>
<path d="M417.9 174.19L470.69 174.19"/>
<path d="M424.5 197.29L464.09 197.29"/>
<path d="M424.5 180.79L431.1 180.79"/>
<path d="M464.09 141.2L424.5 141.2"/>
<path d="M464.09 144.5L424.5 144.5"/>
<path d="M424.5 147.8L431.1 147.8"/>
<path d="M417.9 174.19L424.5 180.79"/>
<path d="M417.9 203.89L417.9 174.19"/>
<path d="M424.5 197.29L417.9 203.89"/>
<path d="M424.5 180.79L424.5 197.29"/>
<path d="M424.5 141.2L424.5 147.8"/>
<path d="M464.09 197.29L470.69 203.89"/>
<path d="M464.09 180.79L470.69 174.19"/>
<path d="M457.49 180.79L457.49 147.8"/>
<path d="M431.1 180.79L431.1 147.8"/>
<path d="M464.09 197.29L464.09 180.79"/>
<path d="M464.09 180.79L457.49 180.79"/>
<path d="M431.1 161L457.49 161"/>
<path d="M464.09 147.8L464.09 141.2"/>
<path d="M457.49 147.8L464.09 147.8"/>
<path d="M470.69 203.89L470.69 174.19"/>
<path d="M111.63 80.59L130.29 61.92"/>
<path d="M170.45 333.88L115.62 316.24"/>
<path d="M107.76 304.17L108.73 309.13M108.73 309.13L111.48 313.36M111.48 313.36L115.62 316.24"/>
<path d="M171.15 330.58L116.96 313.22"/>
<path d="M111.06 304.17L112.66 309.57M112.66 309.57L116.96 313.22"/>
<path d="M127.56 293.63L266.13 293.63"/>
<path d="M487.18 304.17L487.18 296.93"/>
<path d="M487.18 279.77L490.48 279.77"/>
<path d="M266.13 312.77L266.13 256.68"/>
<path d="M266.13 256.68L332.12 256.68"/>
<path d="M332.12 256.68L332.12 312.77"/>
<path d="M269.43 259.98L328.82 259.98"/>
<path d="M328.82 259.98L328.82 309.47"/>
<path d="M269.43 309.47L269.43 259.98"/>
<path d="M117.66 296.93L117.66 312.77"/>
<path d="M117.66 312.77L157.25 312.77"/>
<path d="M111.06 304.17L111.06 296.93"/>
<path d="M157.25 312.77L157.25 299.57"/>
<path d="M183.65 312.77L183.65 299.57"/>
<path d="M183.65 312.77L266.13 312.77"/>
<path d="M183.65 299.57L157.25 299.57"/>
<path d="M170.45 330.58L427.8 330.58"/>
<path d="M480.59 296.93L480.59 312.77"/>
<path d="M480.59 312.77L440.99 312.77"/>
<path d="M440.99 312.77L440.99 299.57"/>
<path d="M414.6 299.57L440.99 299.57"/>
<path d="M414.6 312.77L414.6 299.57"/>
<path d="M414.6 312.77L332.12 312.77"/>
<path d="M481.29 313.22L485.58 309.57M485.58 309.57L487.18 304.17"/>
<path d="M482.62 316.24L486.76 313.36M486.76 313.36L489.52 309.13M489.52 309.13L490.48 304.17"/>
<path d="M427.8 333.88L482.62 316.24"/>
<path d="M427.1 330.58L481.29 313.22"/>
<path d="M470.69 293.63L470.69 296.93"/>
<path d="M470.69 293.63L487.18 279.77"/>
<path d="M487.18 296.93L490.48 294.16"/>
<path d="M127.56 293.63L111.06 279.77"/>
<path d="M127.56 293.63L127.56 296.93"/>
<path d="M111.06 279.77L107.76 279.77"/>
<path d="M111.06 296.93L107.76 294.16"/>
<path d="M269.43 309.47L266.13 312.77"/>
<path d="M328.82 309.47L332.12 312.77"/>
<path d="M332.12 293.63L470.69 293.63"/>
<path d="M332.12 296.93L487.18 296.93"/>
<path d="M328.82 259.98L332.12 256.68"/>
<path d="M269.43 259.98L266.13 256.68"/>
<path d="M266.13 296.93L269.43 293.63"/>
<path d="M332.12 296.93L328.82 293.63"/>
<path d="M328.82 293.63L269.43 293.63"/>
<path d="M328.82 296.93L269.43 296.93"/>
<path d="M163.85 299.57L163.85 306.17"/>
<path d="M163.85 306.17L177.05 306.17"/>
<path d="M177.05 306.17L177.05 299.57"/>
<path d="M421.2 299.57L421.2 306.17"/>
<path d="M421.2 306.17L434.39 306.17"/>
<path d="M434.39 306.17L434.39 299.57"/>
<path d="M487.18 279.77L487.18 104.51"/>
<path d="M111.06 279.77L111.06 104.51"/>
<path d="M269.43 276.47L328.82 276.47"/>
<path d="M111.63 80.59L108.77 84.87M108.77 84.87L107.76 89.92"/>
<path d="M139.62 58.06L134.57 59.06M134.57 59.06L130.29 61.92"/>
<path d="M358.51 128L483.88 128"/>
<path d="M117.66 124.7L236.43 124.7"/>
<path d="M239.73 128L239.73 107.55"/>
<path d="M236.43 124.7L236.43 98.31"/>
<path d="M239.73 107.55L358.51 107.55"/>
<path d="M239.73 107.55L236.43 104.25"/>
<path d="M114.36 128L114.36 104.51"/>
<path d="M236.43 104.25L361.81 104.25"/>
<path d="M114.36 128L117.66 124.7"/>
<path d="M117.66 124.7L117.66 107.55"/>
<path d="M117.66 107.55L114.76 104.65M114.76 104.65L110.66 104.65M110.66 104.65L107.76 107.55"/>
<path d="M117.66 124.7L114.76 121.81M114.76 121.81L110.66 121.81M110.66 121.81L107.76 124.7"/>
<path d="M219.94 124.7L219.94 71.25"/>
<path d="M190.24 124.7L190.24 61.36"/>
<path d="M193.54 58.06L191.21 59.02M191.21 59.02L190.24 61.36"/>
<path d="M219.94 71.25L218.17 64.66M218.17 64.66L213.34 59.83M213.34 59.83L206.74 58.06"/>
<path d="M239.73 128L236.43 124.7"/>
<path d="M480.59 124.7L361.81 124.7"/>
<path d="M483.88 128L358.51 128"/>
<path d="M467.95 61.92L463.67 59.06M463.67 59.06L458.62 58.06"/>
<path d="M490.48 124.7L487.58 121.81M487.58 121.81L483.49 121.81M483.49 121.81L480.59 124.7"/>
<path d="M490.48 107.55L487.58 104.65M487.58 104.65L483.49 104.65M483.49 104.65L480.59 107.55"/>
<path d="M483.88 128L480.59 124.7"/>
<path d="M483.88 128L483.88 104.51"/>
<path d="M480.59 124.7L480.59 107.55"/>
<path d="M486.62 80.59L467.95 61.92"/>
<path d="M490.48 89.92L489.48 84.87M489.48 84.87L486.62 80.59"/>
<path d="M391.5 58.06L384.9 59.83M384.9 59.83L380.07 64.66M380.07 64.66L378.31 71.25"/>
<path d="M408 61.36L407.03 59.02M407.03 59.02L404.7 58.06"/>
<path d="M408 124.7L408 61.36"/>
<path d="M378.31 124.7L378.31 71.25"/>
<path d="M361.81 124.7L361.81 98.31"/>
<path d="M358.51 128L358.51 107.55"/>
<path d="M358.51 128L361.81 124.7"/>
<path d="M358.51 107.55L361.81 104.25"/>
<path d="M458.62 58.06L391.5 58.06"/>
<path d="M236.43 108.21L226.54 108.21"/>
<path d="M226.54 108.21L226.54 75.21"/>
<path d="M226.54 75.21L279.33 68.62"/>
<path d="M279.33 68.62L318.92 68.62"/>
<path d="M318.92 68.62L371.71 75.21"/>
<path d="M371.71 75.21L371.71 108.21"/>
<path d="M371.71 108.21L361.81 108.21"/>
<path d="M226.54 81.81L371.71 81.81"/>
<path d="M276.03 104.25L276.03 85.11"/>
<path d="M276.03 85.11L322.22 85.11"/>
<path d="M322.22 85.11L322.22 104.25"/>
<path d="M322.22 88.41L276.03 88.41"/>
<path d="M239.73 104.25L239.73 91.71"/>
<path d="M239.73 91.71L256.23 91.71"/>
<path d="M256.23 91.71L256.23 104.25"/>
<path d="M254.58 88.41L259.53 98.31"/>
<path d="M259.53 98.31L276.03 98.31"/>
<path d="M259.53 98.31L256.23 104.25"/>
<path d="M241.38 88.41L236.43 98.31"/>
<path d="M342.01 91.71L342.01 104.25"/>
<path d="M358.51 104.25L358.51 91.71"/>
<path d="M358.51 91.71L342.01 91.71"/>
<path d="M356.86 88.41L361.81 98.31"/>
<path d="M343.66 88.41L338.71 98.31"/>
<path d="M338.71 98.31L342.01 104.25"/>
<path d="M338.71 98.31L322.22 98.31"/>
<path d="M292.52 259.98L292.52 273.17"/>
<path d="M292.52 273.17L305.72 273.17"/>
<path d="M305.72 273.17L305.72 259.98"/>
</g>
</g>
</svg>
