<?xml version="1.0" standalone="no"?><svg xmlns="http://www.w3.org/2000/svg" width="600.000" height="450.000" viewBox="0.0 0.0 600.000 450.000" version="1.1">
<title>Acme Converter - Post-processed with EDS-Designer: 14.44 (info@symca.com)</title>
<desc>Acme Converter - Post-processed with EDS-Designer: 14.44 (info@symca.com)</desc>
<g id="EDS_STYLE_GROUP" fill="none" stroke="black" stroke-width="1.0">
<g id="0" display="visible">
<path d="M191.6 392.38L191.6 368.04M192.76 368.04L192.76 392.38M188.13 368.04L196.24 368.04M188.13 392.38L205.52 392.38M205.52 392.38L205.52 385.43M205.52 385.43L204.36 392.38M212.47 392.38L212.47 368.04M213.63 368.04L213.63 392.38M208.99 368.04L217.11 368.04M208.99 392.38L217.11 392.38M237.98 371.52L239.14 374.99M239.14 374.99L239.14 368.04M239.14 368.04L237.98 371.52M237.98 371.52L235.66 369.2M235.66 369.2L232.18 368.04M232.18 368.04L229.86 368.04M229.86 368.04L226.38 369.2M226.38 369.2L224.06 371.52M224.06 371.52L222.91 373.83M222.91 373.83L221.75 377.31M221.75 377.31L221.75 383.11M221.75 383.11L222.91 386.59M222.91 386.59L224.06 388.9M224.06 388.9L226.38 391.22M226.38 391.22L229.86 392.38M229.86 392.38L232.18 392.38M232.18 392.38L235.66 391.22M235.66 391.22L237.98 388.9M229.86 368.04L227.54 369.2M227.54 369.2L225.22 371.52M225.22 371.52L224.06 373.83M224.06 373.83L222.91 377.31M222.91 377.31L222.91 383.11M222.91 383.11L224.06 386.59M224.06 386.59L225.22 388.9M225.22 388.9L227.54 391.22M227.54 391.22L229.86 392.38M237.98 383.11L237.98 392.38M239.14 383.11L239.14 392.38M234.5 383.11L242.61 383.11M251.89 392.38L251.89 368.04M253.05 368.04L253.05 392.38M266.96 392.38L266.96 368.04M268.12 368.04L268.12 392.38M248.41 368.04L256.52 368.04M263.48 368.04L271.6 368.04M253.05 379.63L266.96 379.63M248.41 392.38L256.52 392.38M263.48 392.38L271.6 392.38M284.35 392.38L284.35 368.04M285.51 368.04L285.51 392.38M277.39 368.04L276.23 374.99M276.23 374.99L276.23 368.04M276.23 368.04L293.62 368.04M293.62 368.04L293.62 374.99M293.62 374.99L292.46 368.04M280.87 392.38L288.98 392.38M338.83 371.52L339.99 374.99M339.99 374.99L339.99 368.04M339.99 368.04L338.83 371.52M338.83 371.52L336.52 369.2M336.52 369.2L333.04 368.04M333.04 368.04L330.72 368.04M330.72 368.04L327.24 369.2M327.24 369.2L324.92 371.52M324.92 371.52L323.76 373.83M323.76 373.83L322.6 377.31M322.6 377.31L322.6 383.11M322.6 383.11L323.76 386.59M323.76 386.59L324.92 388.9M324.92 388.9L327.24 391.22M327.24 391.22L330.72 392.38M330.72 392.38L333.04 392.38M333.04 392.38L336.52 391.22M336.52 391.22L338.83 388.9M330.72 368.04L328.4 369.2M328.4 369.2L326.08 371.52M326.08 371.52L324.92 373.83M324.92 373.83L323.76 377.31M323.76 377.31L323.76 383.11M323.76 383.11L324.92 386.59M324.92 386.59L326.08 388.9M326.08 388.9L328.4 391.22M328.4 391.22L330.72 392.38M338.83 383.11L338.83 392.38M339.99 383.11L339.99 392.38M335.36 383.11L343.47 383.11M352.75 392.38L352.75 368.04M353.91 368.04L353.91 392.38M349.27 368.04L363.18 368.04M363.18 368.04L366.66 369.2M366.66 369.2L367.82 370.36M367.82 370.36L368.98 372.67M368.98 372.67L368.98 374.99M368.98 374.99L367.82 377.31M367.82 377.31L366.66 378.47M366.66 378.47L363.18 379.63M363.18 379.63L353.91 379.63M363.18 368.04L365.5 369.2M365.5 369.2L366.66 370.36M366.66 370.36L367.82 372.67M367.82 372.67L367.82 374.99M367.82 374.99L366.66 377.31M366.66 377.31L365.5 378.47M365.5 378.47L363.18 379.63M349.27 392.38L357.38 392.38M359.7 379.63L362.02 380.79M362.02 380.79L363.18 381.95M363.18 381.95L366.66 390.06M366.66 390.06L367.82 391.22M367.82 391.22L368.98 391.22M368.98 391.22L370.14 390.06M362.02 380.79L363.18 383.11M363.18 383.11L365.5 391.22M365.5 391.22L366.66 392.38M366.66 392.38L368.98 392.38M368.98 392.38L370.14 390.06M370.14 390.06L370.14 388.9M378.25 392.38L378.25 368.04M379.41 368.04L379.41 392.38M386.37 374.99L386.37 384.27M374.77 368.04L393.32 368.04M393.32 368.04L393.32 374.99M393.32 374.99L392.16 368.04M379.41 379.63L386.37 379.63M374.77 392.38L393.32 392.38M393.32 392.38L393.32 385.43M393.32 385.43L392.16 392.38M401.44 368.04L409.55 380.79M409.55 380.79L409.55 392.38M402.6 368.04L410.71 380.79M410.71 380.79L410.71 392.38M418.83 368.04L410.71 380.79M399.12 368.04L406.07 368.04M414.19 368.04L421.14 368.04M406.07 392.38L414.19 392.38"/>
<path d="M587.79 171.83L590.11 170.67M590.11 170.67L593.59 167.19M593.59 167.19L593.59 191.53"/>
<path d="M582.58 276.74L598.81 276.74M598.81 276.74L587.21 301.09"/>
<path d="M24.96 170.67L23.8 168.35M23.8 168.35L20.32 167.19M20.32 167.19L18 167.19M18 167.19L14.52 168.35M14.52 168.35L12.2 171.83M12.2 171.83L11.04 177.62M11.04 177.62L11.04 183.42M11.04 183.42L12.2 188.06M12.2 188.06L14.52 190.38M14.52 190.38L18 191.53M18 191.53L19.16 191.53M19.16 191.53L22.64 190.38M22.64 190.38L24.96 188.06M24.96 188.06L26.11 184.58M26.11 184.58L26.11 183.42M26.11 183.42L24.96 179.94M24.96 179.94L22.64 177.62M22.64 177.62L19.16 176.46M19.16 176.46L18 176.46M18 176.46L14.52 177.62M14.52 177.62L12.2 179.94M12.2 179.94L11.04 183.42"/>
<path d="M1.19 281.38L3.51 280.22M3.51 280.22L6.99 276.74M6.99 276.74L6.99 301.09M20.9 282.54L20.9 281.38M20.9 281.38L22.06 279.06M22.06 279.06L23.22 277.9M23.22 277.9L25.54 276.74M25.54 276.74L30.17 276.74M30.17 276.74L32.49 277.9M32.49 277.9L33.65 279.06M33.65 279.06L34.81 281.38M34.81 281.38L34.81 283.7M34.81 283.7L33.65 286.02M33.65 286.02L31.33 289.5M31.33 289.5L19.74 301.09M19.74 301.09L35.97 301.09"/>
<path d="M554.17 343.69L554.17 148.93"/>
<path d="M55.1 148.93L55.1 343.69"/>
<path d="M529.83 307.17L529.83 234.14"/>
<path d="M487.22 288.92L487.22 307.17"/>
<path d="M481.14 307.17L481.14 288.92"/>
<path d="M395.93 288.92L395.93 307.17"/>
<path d="M542 319.35L542 167.19"/>
<path d="M347.24 288.92L347.24 307.17"/>
<path d="M280.29 295L280.29 319.35"/>
<path d="M328.98 319.35L328.98 295"/>
<path d="M79.44 307.17L79.44 234.14"/>
<path d="M122.05 288.92L122.05 307.17"/>
<path d="M128.13 307.17L128.13 288.92"/>
<path d="M213.34 288.92L213.34 307.17"/>
<path d="M85.53 301.09L85.53 240.23"/>
<path d="M109.87 288.92L109.87 301.09"/>
<path d="M182.91 301.09L182.91 282.83"/>
<path d="M134.22 288.92L134.22 301.09"/>
<path d="M262.03 288.92L262.03 307.17"/>
<path d="M548.09 331.52L548.09 161.1"/>
<path d="M499.4 301.09L499.4 288.92"/>
<path d="M523.74 240.23L523.74 301.09"/>
<path d="M67.27 173.28L67.27 319.35"/>
<path d="M61.18 161.1L61.18 331.52"/>
<path d="M475.05 288.92L475.05 301.09"/>
<path d="M426.36 288.92L426.36 301.09"/>
<path d="M55.1 343.69L554.17 343.69"/>
<path d="M122.05 307.17L79.44 307.17"/>
<path d="M61.18 331.52L548.09 331.52"/>
<path d="M67.27 319.35L262.03 319.35"/>
<path d="M109.87 301.09L85.53 301.09"/>
<path d="M487.22 307.17L529.83 307.17"/>
<path d="M353.33 319.35L542 319.35"/>
<path d="M523.74 301.09L499.4 301.09"/>
<path d="M316.81 307.17L292.46 307.17"/>
<path d="M292.46 313.26L316.81 313.26"/>
<path d="M280.29 301.09L328.98 301.09"/>
<path d="M280.29 319.35L328.98 319.35"/>
<path d="M213.34 307.17L128.13 307.17"/>
<path d="M134.22 301.09L182.91 301.09"/>
<path d="M262.03 307.17L274.2 313.26"/>
<path d="M262.03 325.43L280.29 325.43"/>
<path d="M262.03 319.35L262.03 325.43"/>
<path d="M292.46 307.17L292.46 313.26"/>
<path d="M274.2 313.26L280.29 325.43"/>
<path d="M395.93 307.17L481.14 307.17"/>
<path d="M353.33 325.43L353.33 319.35"/>
<path d="M328.98 325.43L353.33 325.43"/>
<path d="M335.07 313.26L328.98 325.43"/>
<path d="M347.24 307.17L335.07 313.26"/>
<path d="M316.81 313.26L316.81 307.17"/>
<path d="M475.05 301.09L426.36 301.09"/>
<path d="M97.7 148.93L255.94 148.93"/>
<path d="M79.44 209.79L122.05 209.79"/>
<path d="M79.44 234.14L213.34 234.14"/>
<path d="M85.53 240.23L207.25 240.23"/>
<path d="M146.39 264.57L97.7 264.57"/>
<path d="M103.79 270.66L140.31 270.66"/>
<path d="M103.79 173.28L140.31 173.28"/>
<path d="M97.7 167.19L146.39 167.19"/>
<path d="M103.79 270.66L97.7 264.57"/>
<path d="M103.79 282.83L97.7 288.92"/>
<path d="M97.7 288.92L109.87 288.92"/>
<path d="M97.7 264.57L97.7 288.92"/>
<path d="M103.79 282.83L103.79 270.66"/>
<path d="M109.87 282.83L103.79 282.83"/>
<path d="M109.87 288.92L109.87 282.83"/>
<path d="M61.18 161.1L85.53 161.1"/>
<path d="M79.44 173.28L77.66 168.97M77.66 168.97L73.36 167.19"/>
<path d="M73.36 167.19L70.31 168.01M70.31 168.01L68.09 170.23M68.09 170.23L67.27 173.28"/>
<path d="M79.44 173.28L79.44 209.79"/>
<path d="M85.53 203.71L85.53 161.1"/>
<path d="M85.53 203.71L109.87 203.71"/>
<path d="M103.79 173.28L97.7 167.19"/>
<path d="M103.79 185.45L97.7 191.53"/>
<path d="M103.79 185.45L103.79 173.28"/>
<path d="M109.87 185.45L103.79 185.45"/>
<path d="M109.87 191.53L109.87 185.45"/>
<path d="M109.87 191.53L109.87 203.71"/>
<path d="M97.7 191.53L109.87 191.53"/>
<path d="M97.7 167.19L97.7 191.53"/>
<path d="M97.7 75.9L97.7 148.93"/>
<path d="M67.27 148.93L67.27 75.9"/>
<path d="M67.27 148.93L55.1 148.93"/>
<path d="M67.27 75.9L97.7 75.9"/>
<path d="M542 75.9L511.57 75.9"/>
<path d="M487.22 209.79L529.83 209.79"/>
<path d="M529.83 234.14L395.93 234.14"/>
<path d="M523.74 240.23L402.02 240.23"/>
<path d="M499.4 203.71L523.74 203.71"/>
<path d="M280.29 75.9L328.98 75.9"/>
<path d="M286.38 81.98L322.89 81.98"/>
<path d="M262.03 100.24L347.24 100.24"/>
<path d="M262.03 94.15L347.24 94.15"/>
<path d="M262.03 148.93L347.24 148.93"/>
<path d="M316.81 197.62L292.46 197.62"/>
<path d="M292.46 209.79L316.81 209.79"/>
<path d="M274.2 191.53L335.07 191.53"/>
<path d="M328.98 228.05L280.29 228.05"/>
<path d="M280.29 295L328.98 295"/>
<path d="M322.89 288.92L286.38 288.92"/>
<path d="M268.12 240.23L341.15 240.23"/>
<path d="M292.46 191.53L316.81 191.53"/>
<path d="M201.17 209.79L274.2 209.79"/>
<path d="M207.25 203.71L255.94 203.71"/>
<path d="M213.34 185.45L207.25 185.45"/>
<path d="M176.82 173.28L213.34 173.28"/>
<path d="M219.43 191.53L207.25 191.53"/>
<path d="M170.74 167.19L219.43 167.19"/>
<path d="M128.13 288.92L122.05 288.92"/>
<path d="M140.31 282.83L146.39 288.92"/>
<path d="M140.31 270.66L146.39 264.57"/>
<path d="M146.39 288.92L146.39 264.57"/>
<path d="M134.22 288.92L146.39 288.92"/>
<path d="M134.22 282.83L134.22 288.92"/>
<path d="M140.31 282.83L134.22 282.83"/>
<path d="M140.31 270.66L140.31 282.83"/>
<path d="M207.25 240.23L207.25 264.57"/>
<path d="M176.82 270.66L170.74 264.57"/>
<path d="M176.82 282.83L170.74 288.92"/>
<path d="M170.74 288.92L182.91 288.92"/>
<path d="M170.74 264.57L170.74 288.92"/>
<path d="M207.25 264.57L170.74 264.57"/>
<path d="M207.25 270.66L207.25 264.57"/>
<path d="M176.82 270.66L207.25 270.66"/>
<path d="M176.82 282.83L176.82 270.66"/>
<path d="M182.91 282.83L176.82 282.83"/>
<path d="M128.13 209.79L195.08 209.79"/>
<path d="M134.22 203.71L182.91 203.71"/>
<path d="M128.13 185.45L128.13 209.79"/>
<path d="M122.05 185.45L128.13 185.45"/>
<path d="M122.05 209.79L122.05 185.45"/>
<path d="M140.31 185.45L146.39 191.53"/>
<path d="M140.31 173.28L146.39 167.19"/>
<path d="M134.22 185.45L134.22 191.53"/>
<path d="M140.31 185.45L134.22 185.45"/>
<path d="M140.31 173.28L140.31 185.45"/>
<path d="M134.22 191.53L134.22 203.71"/>
<path d="M146.39 191.53L134.22 191.53"/>
<path d="M146.39 167.19L146.39 191.53"/>
<path d="M201.17 185.45L201.17 209.79"/>
<path d="M195.08 185.45L201.17 185.45"/>
<path d="M195.08 209.79L195.08 185.45"/>
<path d="M176.82 173.28L170.74 167.19"/>
<path d="M176.82 185.45L170.74 191.53"/>
<path d="M207.25 185.45L207.25 191.53"/>
<path d="M176.82 185.45L176.82 173.28"/>
<path d="M182.91 185.45L176.82 185.45"/>
<path d="M182.91 191.53L182.91 185.45"/>
<path d="M207.25 191.53L207.25 203.71"/>
<path d="M170.74 191.53L170.74 167.19"/>
<path d="M182.91 191.53L170.74 191.53"/>
<path d="M182.91 203.71L182.91 191.53"/>
<path d="M274.2 234.14L280.29 228.05"/>
<path d="M262.03 234.14L274.2 234.14"/>
<path d="M219.43 282.83L225.51 288.92"/>
<path d="M219.43 270.66L225.51 264.57"/>
<path d="M219.43 282.83L213.34 282.83"/>
<path d="M219.43 270.66L219.43 282.83"/>
<path d="M213.34 270.66L219.43 270.66"/>
<path d="M213.34 264.57L213.34 270.66"/>
<path d="M213.34 288.92L213.34 282.83"/>
<path d="M225.51 288.92L213.34 288.92"/>
<path d="M225.51 264.57L225.51 288.92"/>
<path d="M213.34 264.57L225.51 264.57"/>
<path d="M213.34 234.14L213.34 264.57"/>
<path d="M255.94 282.83L249.86 288.92"/>
<path d="M255.94 270.66L249.86 264.57"/>
<path d="M255.94 270.66L255.94 282.83"/>
<path d="M262.03 282.83L262.03 288.92"/>
<path d="M255.94 282.83L262.03 282.83"/>
<path d="M249.86 288.92L255.94 288.92"/>
<path d="M249.86 264.57L249.86 288.92"/>
<path d="M262.03 264.57L249.86 264.57"/>
<path d="M262.03 270.66L262.03 234.14"/>
<path d="M255.94 270.66L262.03 270.66"/>
<path d="M262.03 288.92L255.94 288.92"/>
<path d="M286.38 270.66L292.46 264.57"/>
<path d="M292.46 264.57L292.46 288.92"/>
<path d="M268.12 264.57L292.46 264.57"/>
<path d="M286.38 270.66L268.12 270.66"/>
<path d="M286.38 288.92L286.38 270.66"/>
<path d="M268.12 270.66L268.12 240.23"/>
<path d="M249.86 173.28L286.38 173.28"/>
<path d="M243.77 167.19L292.46 167.19"/>
<path d="M249.86 173.28L243.77 167.19"/>
<path d="M249.86 185.45L243.77 191.53"/>
<path d="M249.86 185.45L249.86 173.28"/>
<path d="M255.94 185.45L249.86 185.45"/>
<path d="M255.94 191.53L255.94 185.45"/>
<path d="M213.34 185.45L219.43 191.53"/>
<path d="M213.34 173.28L219.43 167.19"/>
<path d="M213.34 173.28L213.34 185.45"/>
<path d="M243.77 191.53L243.77 167.19"/>
<path d="M255.94 191.53L243.77 191.53"/>
<path d="M255.94 203.71L255.94 191.53"/>
<path d="M219.43 167.19L219.43 191.53"/>
<path d="M292.46 197.62L292.46 209.79"/>
<path d="M274.2 209.79L274.2 191.53"/>
<path d="M286.38 173.28L292.46 167.19"/>
<path d="M286.38 191.53L292.46 191.53"/>
<path d="M286.38 173.28L286.38 191.53"/>
<path d="M292.46 167.19L292.46 191.53"/>
<path d="M182.91 75.9L213.34 75.9"/>
<path d="M182.91 148.93L182.91 75.9"/>
<path d="M237.69 69.81L229.77 72.59M229.77 72.59L223.51 78.2M223.51 78.2L219.88 85.77M219.88 85.77L219.43 94.15"/>
<path d="M237.69 148.93L237.69 69.81"/>
<path d="M213.34 88.07L213.34 148.93"/>
<path d="M274.2 94.15L274.2 81.98"/>
<path d="M280.29 94.15L280.29 75.9"/>
<path d="M286.38 94.15L286.38 81.98"/>
<path d="M262.03 81.98L262.03 94.15"/>
<path d="M243.77 148.93L243.77 81.98"/>
<path d="M219.43 94.15L219.43 148.93"/>
<path d="M262.03 100.24L262.03 94.15"/>
<path d="M262.03 148.93L255.94 148.93"/>
<path d="M262.03 100.24L262.03 148.93"/>
<path d="M262.03 94.15L243.77 94.15"/>
<path d="M274.2 81.98L272.57 75.9M272.57 75.9L268.12 71.44M268.12 71.44L262.03 69.81"/>
<path d="M213.34 75.9L213.34 88.07"/>
<path d="M255.94 69.81L255.94 63.72"/>
<path d="M262.03 69.81L255.94 69.81"/>
<path d="M243.77 81.98L262.03 81.98"/>
<path d="M408.1 185.45L414.19 185.45"/>
<path d="M402.02 270.66L432.45 270.66"/>
<path d="M402.02 264.57L438.53 264.57"/>
<path d="M395.93 173.28L432.45 173.28"/>
<path d="M389.84 167.19L438.53 167.19"/>
<path d="M335.07 234.14L328.98 228.05"/>
<path d="M347.24 234.14L335.07 234.14"/>
<path d="M353.33 270.66L359.41 264.57"/>
<path d="M353.33 282.83L359.41 288.92"/>
<path d="M353.33 282.83L353.33 270.66"/>
<path d="M347.24 282.83L353.33 282.83"/>
<path d="M347.24 288.92L347.24 282.83"/>
<path d="M359.41 288.92L353.33 288.92"/>
<path d="M359.41 264.57L359.41 288.92"/>
<path d="M347.24 264.57L359.41 264.57"/>
<path d="M353.33 288.92L347.24 288.92"/>
<path d="M347.24 270.66L353.33 270.66"/>
<path d="M347.24 234.14L347.24 270.66"/>
<path d="M322.89 270.66L316.81 264.57"/>
<path d="M316.81 264.57L341.15 264.57"/>
<path d="M316.81 288.92L316.81 264.57"/>
<path d="M322.89 270.66L322.89 288.92"/>
<path d="M341.15 270.66L322.89 270.66"/>
<path d="M341.15 240.23L341.15 270.66"/>
<path d="M389.84 282.83L383.76 288.92"/>
<path d="M389.84 270.66L383.76 264.57"/>
<path d="M395.93 270.66L395.93 264.57"/>
<path d="M389.84 270.66L395.93 270.66"/>
<path d="M389.84 282.83L389.84 270.66"/>
<path d="M395.93 282.83L389.84 282.83"/>
<path d="M395.93 288.92L395.93 282.83"/>
<path d="M383.76 288.92L395.93 288.92"/>
<path d="M383.76 264.57L383.76 288.92"/>
<path d="M395.93 264.57L383.76 264.57"/>
<path d="M395.93 234.14L395.93 264.57"/>
<path d="M402.02 240.23L402.02 270.66"/>
<path d="M335.07 209.79L408.1 209.79"/>
<path d="M353.33 203.71L402.02 203.71"/>
<path d="M359.41 185.45L365.5 191.53"/>
<path d="M359.41 173.28L365.5 167.19"/>
<path d="M365.5 191.53L353.33 191.53"/>
<path d="M316.81 167.19L365.5 167.19"/>
<path d="M316.81 209.79L316.81 197.62"/>
<path d="M335.07 191.53L335.07 209.79"/>
<path d="M322.89 173.28L316.81 167.19"/>
<path d="M353.33 185.45L353.33 191.53"/>
<path d="M359.41 185.45L353.33 185.45"/>
<path d="M359.41 173.28L359.41 185.45"/>
<path d="M322.89 173.28L359.41 173.28"/>
<path d="M322.89 191.53L322.89 173.28"/>
<path d="M316.81 191.53L322.89 191.53"/>
<path d="M353.33 191.53L353.33 203.71"/>
<path d="M316.81 191.53L316.81 167.19"/>
<path d="M408.1 209.79L408.1 185.45"/>
<path d="M395.93 173.28L389.84 167.19"/>
<path d="M395.93 185.45L389.84 191.53"/>
<path d="M395.93 185.45L395.93 173.28"/>
<path d="M402.02 185.45L395.93 185.45"/>
<path d="M402.02 191.53L402.02 185.45"/>
<path d="M389.84 191.53L389.84 167.19"/>
<path d="M402.02 191.53L389.84 191.53"/>
<path d="M402.02 203.71L402.02 191.53"/>
<path d="M365.5 167.19L365.5 191.53"/>
<path d="M432.45 282.83L438.53 288.92"/>
<path d="M438.53 288.92L438.53 270.66"/>
<path d="M426.36 288.92L438.53 288.92"/>
<path d="M426.36 282.83L426.36 288.92"/>
<path d="M432.45 282.83L426.36 282.83"/>
<path d="M432.45 270.66L432.45 282.83"/>
<path d="M432.45 270.66L438.53 264.57"/>
<path d="M438.53 264.57L438.53 270.66"/>
<path d="M481.14 288.92L487.22 288.92"/>
<path d="M505.48 282.83L511.57 288.92"/>
<path d="M505.48 270.66L511.57 264.57"/>
<path d="M505.48 270.66L468.97 270.66"/>
<path d="M505.48 282.83L505.48 270.66"/>
<path d="M499.4 282.83L505.48 282.83"/>
<path d="M499.4 288.92L499.4 282.83"/>
<path d="M511.57 264.57L462.88 264.57"/>
<path d="M511.57 288.92L511.57 264.57"/>
<path d="M499.4 288.92L511.57 288.92"/>
<path d="M468.97 270.66L462.88 264.57"/>
<path d="M468.97 282.83L462.88 288.92"/>
<path d="M468.97 282.83L468.97 270.66"/>
<path d="M475.05 282.83L468.97 282.83"/>
<path d="M475.05 288.92L475.05 282.83"/>
<path d="M462.88 288.92L475.05 288.92"/>
<path d="M462.88 264.57L462.88 288.92"/>
<path d="M414.19 209.79L481.14 209.79"/>
<path d="M426.36 203.71L475.05 203.71"/>
<path d="M414.19 185.45L414.19 209.79"/>
<path d="M432.45 185.45L438.53 191.53"/>
<path d="M432.45 173.28L438.53 167.19"/>
<path d="M426.36 185.45L426.36 191.53"/>
<path d="M432.45 185.45L426.36 185.45"/>
<path d="M432.45 173.28L432.45 185.45"/>
<path d="M426.36 191.53L426.36 203.71"/>
<path d="M438.53 191.53L426.36 191.53"/>
<path d="M438.53 167.19L438.53 191.53"/>
<path d="M487.22 185.45L487.22 209.79"/>
<path d="M481.14 185.45L487.22 185.45"/>
<path d="M481.14 209.79L481.14 185.45"/>
<path d="M505.48 185.45L511.57 191.53"/>
<path d="M505.48 173.28L511.57 167.19"/>
<path d="M468.97 173.28L462.88 167.19"/>
<path d="M468.97 185.45L462.88 191.53"/>
<path d="M499.4 185.45L499.4 191.53"/>
<path d="M505.48 185.45L499.4 185.45"/>
<path d="M505.48 173.28L505.48 185.45"/>
<path d="M468.97 173.28L505.48 173.28"/>
<path d="M468.97 185.45L468.97 173.28"/>
<path d="M475.05 185.45L468.97 185.45"/>
<path d="M475.05 191.53L475.05 185.45"/>
<path d="M499.4 191.53L499.4 203.71"/>
<path d="M511.57 191.53L499.4 191.53"/>
<path d="M511.57 167.19L511.57 191.53"/>
<path d="M462.88 167.19L511.57 167.19"/>
<path d="M462.88 191.53L462.88 167.19"/>
<path d="M475.05 191.53L462.88 191.53"/>
<path d="M475.05 203.71L475.05 191.53"/>
<path d="M511.57 148.93L353.33 148.93"/>
<path d="M389.84 94.15L389.39 85.77M389.39 85.77L385.76 78.2M385.76 78.2L379.5 72.59M379.5 72.59L371.58 69.81"/>
<path d="M371.58 148.93L371.58 69.81"/>
<path d="M395.93 88.07L395.93 148.93"/>
<path d="M335.07 81.98L335.07 94.15"/>
<path d="M328.98 75.9L328.98 94.15"/>
<path d="M322.89 81.98L322.89 94.15"/>
<path d="M347.24 81.98L347.24 94.15"/>
<path d="M365.5 148.93L365.5 81.98"/>
<path d="M347.24 94.15L365.5 94.15"/>
<path d="M347.24 148.93L359.41 148.93"/>
<path d="M347.24 94.15L347.24 148.93"/>
<path d="M389.84 94.15L389.84 148.93"/>
<path d="M365.5 81.98L347.24 81.98"/>
<path d="M347.24 69.81L341.15 71.44M341.15 71.44L336.7 75.9M336.7 75.9L335.07 81.98"/>
<path d="M353.33 69.81L347.24 69.81"/>
<path d="M353.33 63.72L353.33 69.81"/>
<path d="M511.57 75.9L511.57 148.93"/>
<path d="M529.83 209.79L529.83 167.19"/>
<path d="M548.09 161.1L523.74 161.1"/>
<path d="M523.74 203.71L523.74 161.1"/>
<path d="M542 167.19L529.83 167.19"/>
<path d="M542 148.93L542 75.9"/>
<path d="M554.17 148.93L542 148.93"/>
<path d="M262.03 57.64L347.24 57.64"/>
<path d="M262.03 57.64L257.73 59.42M257.73 59.42L255.94 63.72"/>
<path d="M353.33 63.72L351.54 59.42M351.54 59.42L347.24 57.64"/>
<path d="M249.86 81.98L249.86 57.64"/>
<path d="M249.86 57.64L231.6 57.64"/>
<path d="M359.41 81.98L359.41 57.64"/>
<path d="M359.41 57.64L377.67 57.64"/>
<path d="M231.6 57.64L222.43 65.7M222.43 65.7L216.14 76.18M216.14 76.18L213.34 88.07"/>
<path d="M395.93 88.07L393.13 76.18M393.13 76.18L386.84 65.7M386.84 65.7L377.67 57.64"/>
</g>
</g>
</svg>
