<?xml version="1.0" standalone="no"?><svg xmlns="http://www.w3.org/2000/svg" width="600.000" height="450.000" viewBox="0.0 0.0 600.000 450.000" version="1.1">
<title>Acme Converter - Post-processed with EDS-Designer: 14.44 (info@symca.com)</title>
<desc>Acme Converter - Post-processed with EDS-Designer: 14.44 (info@symca.com)</desc>
<g id="EDS_STYLE_GROUP" fill="none" stroke="black" stroke-width="1.0">
<g id="0" display="visible">
<path d="M222.65 446.7L222.65 413.61M224.23 413.61L224.23 446.7M217.93 413.61L236.83 413.61M236.83 413.61L241.56 415.19M241.56 415.19L243.14 416.76M243.14 416.76L244.71 419.91M244.71 419.91L244.71 423.06M244.71 423.06L243.14 426.22M243.14 426.22L241.56 427.79M241.56 427.79L236.83 429.37M236.83 413.61L239.98 415.19M239.98 415.19L241.56 416.76M241.56 416.76L243.14 419.91M243.14 419.91L243.14 423.06M243.14 423.06L241.56 426.22M241.56 426.22L239.98 427.79M239.98 427.79L236.83 429.37M224.23 429.37L236.83 429.37M236.83 429.37L241.56 430.94M241.56 430.94L243.14 432.52M243.14 432.52L244.71 435.67M244.71 435.67L244.71 440.4M244.71 440.4L243.14 443.55M243.14 443.55L241.56 445.12M241.56 445.12L236.83 446.7M236.83 446.7L217.93 446.7M236.83 429.37L239.98 430.94M239.98 430.94L241.56 432.52M241.56 432.52L243.14 435.67M243.14 435.67L243.14 440.4M243.14 440.4L241.56 443.55M241.56 443.55L239.98 445.12M239.98 445.12L236.83 446.7M257.32 446.7L257.32 413.61M258.89 413.61L258.89 446.7M252.59 413.61L263.62 413.61M252.59 446.7L276.22 446.7M276.22 446.7L276.22 437.25M276.22 437.25L274.65 446.7M295.13 413.61L284.1 446.7M295.13 413.61L306.16 446.7M295.13 418.34L304.58 446.7M287.25 437.25L301.43 437.25M280.95 446.7L290.4 446.7M299.86 446.7L309.31 446.7M336.1 418.34L337.67 423.06M337.67 423.06L337.67 413.61M337.67 413.61L336.1 418.34M336.1 418.34L332.95 415.19M332.95 415.19L328.22 413.61M328.22 413.61L325.07 413.61M325.07 413.61L320.34 415.19M320.34 415.19L317.19 418.34M317.19 418.34L315.61 421.49M315.61 421.49L314.04 426.22M314.04 426.22L314.04 434.09M314.04 434.09L315.61 438.82M315.61 438.82L317.19 441.97M317.19 441.97L320.34 445.12M320.34 445.12L325.07 446.7M325.07 446.7L328.22 446.7M328.22 446.7L332.95 445.12M332.95 445.12L336.1 441.97M336.1 441.97L337.67 438.82M325.07 413.61L321.92 415.19M321.92 415.19L318.77 418.34M318.77 418.34L317.19 421.49M317.19 421.49L315.61 426.22M315.61 426.22L315.61 434.09M315.61 434.09L317.19 438.82M317.19 438.82L318.77 441.97M318.77 441.97L321.92 445.12M321.92 445.12L325.07 446.7M351.85 446.7L351.85 413.61M353.43 413.61L353.43 446.7M373.91 413.61L353.43 434.09M361.31 427.79L373.91 446.7M359.73 427.79L372.34 446.7M347.13 413.61L358.16 413.61M367.61 413.61L377.06 413.61M347.13 446.7L358.16 446.7M367.61 446.7L377.06 446.7"/>
<path d="M191.6 66.86L194.12 65.6M194.12 65.6L197.9 61.82M197.9 61.82L197.9 88.29"/>
<path d="M211.47 32.44L211.47 207.63"/>
<path d="M240.58 3.32L231.58 4.74M231.58 4.74L223.47 8.88M223.47 8.88L217.03 15.32M217.03 15.32L212.89 23.44M212.89 23.44L211.46 32.44"/>
<path d="M383.52 32.44L382.1 23.44M382.1 23.44L377.96 15.32M377.96 15.32L371.52 8.88M371.52 8.88L363.4 4.74M363.4 4.74L354.41 3.32"/>
<path d="M383.52 32.44L383.52 207.63"/>
<path d="M211.47 207.63L211.6 209.29"/>
<path d="M211.47 207.63L220.33 207.63"/>
<path d="M220.33 99.87L220.33 207.63"/>
<path d="M220.33 32.44L220.33 52.36"/>
<path d="M220.33 32.44L211.47 32.44"/>
<path d="M240.58 12.19L232.83 13.73M232.83 13.73L226.26 18.12M226.26 18.12L221.87 24.69M221.87 24.69L220.33 32.44"/>
<path d="M240.58 3.32L240.58 12.19"/>
<path d="M354.41 3.32L240.58 3.32"/>
<path d="M354.41 12.19L354.41 3.32"/>
<path d="M374.66 32.44L373.11 24.69M373.11 24.69L368.72 18.12M368.72 18.12L362.16 13.73M362.16 13.73L354.41 12.19"/>
<path d="M374.66 32.44L383.52 32.44"/>
<path d="M374.66 52.36L374.66 32.44"/>
<path d="M374.66 207.63L374.66 99.94"/>
<path d="M383.52 207.63L374.66 207.63"/>
<path d="M383.39 209.29L383.52 207.63"/>
<path d="M226.47 303.18L211.6 209.29"/>
<path d="M211.6 209.29L220.35 207.9"/>
<path d="M220.35 207.9L235.23 301.8"/>
<path d="M235.23 301.79L236.7 304.43M236.7 304.43L239.54 305.48"/>
<path d="M239.54 305.48L355.45 305.48"/>
<path d="M355.45 305.48L358.29 304.43M358.29 304.43L359.76 301.79"/>
<path d="M359.76 301.8L374.63 207.9"/>
<path d="M354.41 12.19L240.58 12.19"/>
<path d="M331.96 301.12L334.53 300.16M334.53 300.16L335.89 297.76"/>
<path d="M331.96 301.11L263.03 301.11"/>
<path d="M259.1 297.76L260.45 300.16M260.45 300.16L263.03 301.12"/>
<path d="M259.11 297.76L255.55 275.26"/>
<path d="M259.47 270.67L257.3 271.31M257.3 271.31L255.84 273.03M255.84 273.03L255.54 275.26"/>
<path d="M275.35 270.67L259.47 270.67"/>
<path d="M319.64 270.67L314.04 263.65M314.04 263.65L306.33 259.04M306.33 259.04L297.49 257.43M297.49 257.43L288.66 259.04M288.66 259.04L280.95 263.65M280.95 263.65L275.35 270.67"/>
<path d="M335.52 270.67L319.64 270.67"/>
<path d="M339.44 275.26L339.15 273.03M339.15 273.03L337.68 271.31M337.68 271.31L335.52 270.66"/>
<path d="M339.44 275.26L335.88 297.76"/>
<path d="M277.64 260.08L261.76 260.08"/>
<path d="M261.76 244.2L261.76 260.08"/>
<path d="M277.64 244.2L261.76 244.2"/>
<path d="M277.64 244.2L277.64 260.08"/>
<path d="M333.23 244.2L333.23 260.08"/>
<path d="M333.23 260.08L317.35 260.08"/>
<path d="M317.35 244.2L317.35 260.08"/>
<path d="M333.23 244.2L317.35 244.2"/>
<path d="M383.39 209.29L368.52 303.18"/>
<path d="M383.39 209.29L374.63 207.9"/>
<path d="M226.47 303.18L228.83 308.89M228.83 308.89L233.53 312.9M233.53 312.9L239.54 314.35"/>
<path d="M226.47 303.18L235.23 301.8"/>
<path d="M239.54 314.35L239.54 305.48"/>
<path d="M355.45 314.35L355.45 305.48"/>
<path d="M355.45 314.35L239.54 314.35"/>
<path d="M368.52 303.18L359.76 301.8"/>
<path d="M355.45 314.35L361.46 312.9M361.46 312.9L366.16 308.89M366.16 308.89L368.52 303.18"/>
<path d="M350.99 89.29L352.58 76.37M352.58 76.37L351.11 63.44"/>
<path d="M362.77 52.29L356.74 52.29"/>
<path d="M362.77 52.29L374.63 52.29"/>
<path d="M374.63 99.94L362.77 99.94"/>
<path d="M356.74 99.94L362.77 99.94"/>
<path d="M302.05 85.53L299.29 83.24M299.29 83.24L295.7 83.24M295.7 83.24L292.94 85.53"/>
<path d="M276.98 94.64L283.26 93.54M283.26 93.54L288.8 90.38M288.8 90.38L292.94 85.53"/>
<path d="M276.98 57.58L268.94 59.42M268.94 59.42L262.5 64.56M262.5 64.56L258.92 71.99M258.92 71.99L258.92 80.24M258.92 80.24L262.5 87.67M262.5 87.67L268.94 92.81M268.94 92.81L276.98 94.64"/>
<path d="M292.94 66.69L288.8 61.84M288.8 61.84L283.26 58.68M283.26 58.68L276.98 57.58"/>
<path d="M292.94 66.69L295.7 68.98M295.7 68.98L299.29 68.98M299.29 68.98L302.05 66.7"/>
<path d="M318.01 57.58L311.73 58.68M311.73 58.68L306.19 61.84M306.19 61.84L302.05 66.69"/>
<path d="M318.01 94.64L326.05 92.81M326.05 92.81L332.49 87.67M332.49 87.67L336.07 80.23M336.07 80.23L336.07 71.99M336.07 71.99L332.49 64.56M332.49 64.56L326.05 59.42M326.05 59.42L318 57.58"/>
<path d="M302.05 85.53L306.19 90.38M306.19 90.38L311.73 93.54M311.73 93.54L318.01 94.64"/>
<path d="M331.58 32.83L323.98 27.8"/>
<path d="M242.4 76.11L244.27 61.85M244.27 61.85L249.78 48.57M249.78 48.57L258.53 37.16M258.53 37.16L269.94 28.4M269.94 28.4L283.23 22.9M283.23 22.9L297.49 21.02M297.49 21.02L311.75 22.9M311.75 22.9L325.04 28.4M325.04 28.4L336.45 37.16M336.45 37.16L345.2 48.57M345.2 48.57L350.71 61.85M350.71 61.85L352.59 76.11M352.59 76.11L350.71 90.37M350.71 90.37L345.2 103.66M345.2 103.66L336.45 115.07M336.45 115.07L325.04 123.83M325.04 123.83L311.75 129.33M311.75 129.33L297.49 131.21M297.49 131.21L283.23 129.33M283.23 129.33L269.94 123.83M269.94 123.83L258.53 115.07M258.53 115.07L249.78 103.66M249.78 103.66L244.27 90.37M244.27 90.37L242.4 76.11"/>
<path d="M233.63 76.11L235.49 60.83M235.49 60.83L240.95 46.44M240.95 46.44L249.69 33.77M249.69 33.77L261.22 23.56M261.22 23.56L274.85 16.4M274.85 16.4L289.8 12.72M289.8 12.72L305.19 12.72M305.19 12.72L320.14 16.4M320.14 16.4L333.77 23.56M333.77 23.56L345.29 33.77M345.29 33.77L354.04 46.44M354.04 46.44L359.5 60.83M359.5 60.83L361.35 76.11M361.35 76.11L359.5 91.4M359.5 91.4L354.04 105.79M354.04 105.79L345.29 118.46M345.29 118.46L333.77 128.67M333.77 128.67L320.14 135.82M320.14 135.82L305.19 139.51M305.19 139.51L289.8 139.51M289.8 139.51L274.85 135.82M274.85 135.82L261.22 128.67M261.22 128.67L249.69 118.46M249.69 118.46L240.95 105.79M240.95 105.79L235.49 91.4M235.49 91.4L233.63 76.11"/>
<path d="M271.01 27.8L263.41 32.83"/>
<path d="M247.82 52.29L243.77 63.9M243.77 63.9L242.4 76.11M242.4 76.11L243.77 88.33M243.77 88.33L247.82 99.94"/>
<path d="M232.22 99.94L238.24 99.94"/>
<path d="M232.22 99.94L220.35 99.94"/>
<path d="M220.35 52.29L232.22 52.29"/>
<path d="M238.24 52.29L232.22 52.29"/>
<path d="M307.55 21.95L307.55 52.55"/>
<path d="M298.16 52.55L307.55 52.55"/>
<path d="M298.16 21.02L298.16 52.55"/>
<path d="M362.77 99.94L366.5 84.2M366.5 84.2L366.5 68.03M366.5 68.03L362.77 52.29"/>
<path d="M374.63 99.94L377.83 84.16M377.83 84.16L377.83 68.07M377.83 68.07L374.63 52.29"/>
<path d="M310.74 76.11L312.44 71.44M312.44 71.44L316.75 68.95M316.75 68.95L321.65 69.81M321.65 69.81L324.85 73.62M324.85 73.62L324.85 78.6M324.85 78.6L321.65 82.41M321.65 82.41L316.75 83.28M316.75 83.28L312.44 80.79M312.44 80.79L310.74 76.11"/>
<path d="M269.71 76.11L271.41 71.44M271.41 71.44L275.72 68.95M275.72 68.95L280.62 69.81M280.62 69.81L283.82 73.62M283.82 73.62L283.82 78.6M283.82 78.6L280.62 82.41M280.62 82.41L275.72 83.28M275.72 83.28L271.41 80.79M271.41 80.79L269.71 76.11"/>
<path d="M232.22 52.29L228.48 68.03M228.48 68.03L228.48 84.2M228.48 84.2L232.22 99.94"/>
<path d="M220.35 52.29L217.16 68.07M217.16 68.07L217.16 84.16M217.16 84.16L220.35 99.94"/>
<path d="M259.11 314.35L259.11 380.52"/>
<path d="M259.11 380.52L280.29 380.52"/>
<path d="M280.29 314.35L280.29 380.52"/>
<path d="M314.7 314.35L314.7 380.52"/>
<path d="M314.7 380.52L335.88 380.52"/>
<path d="M335.88 314.35L335.88 380.52"/>
<path d="M391.94 66.25L391.94 64.99M391.94 64.99L393.2 62.47M393.2 62.47L394.46 61.21M394.46 61.21L396.99 59.95M396.99 59.95L402.03 59.95M402.03 59.95L404.55 61.21M404.55 61.21L405.81 62.47M405.81 62.47L407.07 64.99M407.07 64.99L407.07 67.51M407.07 67.51L405.81 70.03M405.81 70.03L403.29 73.81M403.29 73.81L390.68 86.42M390.68 86.42L408.33 86.42"/>
</g>
</g>
</svg>
