<?xml version="1.0" standalone="no"?><svg xmlns="http://www.w3.org/2000/svg" width="600.000" height="450.000" viewBox="0.0 0.0 600.000 450.000" version="1.1">
<title>Acme Converter - Post-processed with EDS-Designer: 14.44 (info@symca.com)</title>
<desc>Acme Converter - Post-processed with EDS-Designer: 14.44 (info@symca.com)</desc>
<g id="EDS_STYLE_GROUP" fill="none" stroke="black" stroke-width="1.0">
<g id="0" display="visible">
<path d="M207.83 391.29L207.83 341.03M210.23 341.03L210.23 391.29M200.66 341.03L229.37 341.03M229.37 341.03L236.55 343.43M236.55 343.43L238.94 345.82M238.94 345.82L241.33 350.61M241.33 350.61L241.33 355.39M241.33 355.39L238.94 360.18M238.94 360.18L236.55 362.57M236.55 362.57L229.37 364.96M229.37 341.03L234.16 343.43M234.16 343.43L236.55 345.82M236.55 345.82L238.94 350.61M238.94 350.61L238.94 355.39M238.94 355.39L236.55 360.18M236.55 360.18L234.16 362.57M234.16 362.57L229.37 364.96M210.23 364.96L229.37 364.96M229.37 364.96L236.55 367.36M236.55 367.36L238.94 369.75M238.94 369.75L241.33 374.54M241.33 374.54L241.33 381.71M241.33 381.71L238.94 386.5M238.94 386.5L236.55 388.89M236.55 388.89L229.37 391.29M229.37 391.29L200.66 391.29M229.37 364.96L234.16 367.36M234.16 367.36L236.55 369.75M236.55 369.75L238.94 374.54M238.94 374.54L238.94 381.71M238.94 381.71L236.55 386.5M236.55 386.5L234.16 388.89M234.16 388.89L229.37 391.29M260.48 391.29L260.48 341.03M262.87 341.03L262.87 391.29M253.3 341.03L270.05 341.03M253.3 391.29L289.19 391.29M289.19 391.29L289.19 376.93M289.19 376.93L286.8 391.29M317.91 341.03L301.16 391.29M317.91 341.03L334.66 391.29M317.91 348.21L332.27 391.29M305.94 376.93L327.48 376.93M296.37 391.29L310.73 391.29M325.09 391.29L339.44 391.29M380.12 348.21L382.52 355.39M382.52 355.39L382.52 341.03M382.52 341.03L380.12 348.21M380.12 348.21L375.34 343.43M375.34 343.43L368.16 341.03M368.16 341.03L363.37 341.03M363.37 341.03L356.19 343.43M356.19 343.43L351.41 348.21M351.41 348.21L349.02 353M349.02 353L346.62 360.18M346.62 360.18L346.62 372.14M346.62 372.14L349.02 379.32M349.02 379.32L351.41 384.11M351.41 384.11L356.19 388.89M356.19 388.89L363.37 391.29M363.37 391.29L368.16 391.29M368.16 391.29L375.34 388.89M375.34 388.89L380.12 384.11M380.12 384.11L382.52 379.32M363.37 341.03L358.59 343.43M358.59 343.43L353.8 348.21M353.8 348.21L351.41 353M351.41 353L349.02 360.18M349.02 360.18L349.02 372.14M349.02 372.14L351.41 379.32M351.41 379.32L353.8 384.11M353.8 384.11L358.59 388.89M358.59 388.89L363.37 391.29M404.05 391.29L404.05 341.03M406.45 341.03L406.45 391.29M437.55 341.03L406.45 372.14M418.41 362.57L437.55 391.29M416.02 362.57L435.16 391.29M396.87 341.03L413.62 341.03M427.98 341.03L442.34 341.03M396.87 391.29L413.62 391.29M427.98 391.29L442.34 391.29"/>
<path d="M3.91 182.16L18.95 182.16M18.95 182.16L10.75 193.1M10.75 193.1L14.85 193.1M14.85 193.1L17.59 194.46M17.59 194.46L18.95 195.83M18.95 195.83L20.32 199.93M20.32 199.93L20.32 202.67M20.32 202.67L18.95 206.77M18.95 206.77L16.22 209.5M16.22 209.5L12.12 210.87M12.12 210.87L8.01 210.87M8.01 210.87L3.91 209.5M3.91 209.5L2.54 208.14M2.54 208.14L1.18 205.4"/>
<path d="M591.94 187.63L594.67 186.26M594.67 186.26L598.77 182.16M598.77 182.16L598.77 210.87"/>
<path d="M508.83 145.49L498.94 128.91M498.94 128.91L486.12 114.49M486.12 114.49L470.8 102.74M470.8 102.74L453.55 94.08M453.55 94.08L434.98 88.82M434.98 88.82L415.75 87.15"/>
<path d="M520.38 135.49L508.62 117.75M508.62 117.75L493.88 102.4M493.88 102.4L476.65 89.91M476.65 89.91L457.46 80.7M457.46 80.7L436.94 75.05M436.94 75.05L415.75 73.15"/>
<path d="M415.75 311.12L437.11 309.19M437.11 309.19L457.78 303.45M457.78 303.45L477.08 294.1M477.08 294.1L494.39 281.43M494.39 281.43L509.14 265.86M509.14 265.86L520.86 247.9"/>
<path d="M415.75 297.13L434.77 295.39M434.77 295.39L453.16 290.23M453.16 290.23L470.32 281.83M470.32 281.83L485.67 270.46M485.67 270.46L498.7 256.49M498.7 256.49L508.99 240.4"/>
<path d="M530.61 319.51L61.76 319.51"/>
<path d="M61.76 58.7L530.61 58.7"/>
<path d="M415.75 276.13L433.21 274.29M433.21 274.29L449.91 268.87M449.91 268.87L465.12 260.09M465.12 260.09L478.17 248.34M478.17 248.34L488.49 234.13M488.49 234.13L495.63 218.09M495.63 218.09L499.28 200.92M499.28 200.92L499.28 183.36M499.28 183.36L495.63 166.18M495.63 166.18L488.49 150.14M488.49 150.14L478.17 135.94M478.17 135.94L465.12 124.19M465.12 124.19L449.91 115.41M449.91 115.41L433.21 109.98M433.21 109.98L415.75 108.15"/>
<path d="M350.28 264.41L332.08 264.41"/>
<path d="M332.08 275.89L332.08 264.41"/>
<path d="M350.28 275.89L350.28 264.41"/>
<path d="M291.25 275.89L291.25 264.41"/>
<path d="M273.05 264.41L291.25 264.41"/>
<path d="M273.05 275.89L273.05 264.41"/>
<path d="M245.32 180.72L204.38 180.72"/>
<path d="M245.32 180.72L204.38 180.72"/>
<path d="M245.32 180.72L204.38 180.72"/>
<path d="M245.32 180.72L204.38 180.72"/>
<path d="M235.08 190.96L214.61 190.96"/>
<path d="M245.32 211.43L235.08 201.19"/>
<path d="M214.61 201.19L204.38 211.43"/>
<path d="M204.38 211.43L245.32 211.43"/>
<path d="M214.61 201.19L235.08 201.19"/>
<path d="M235.08 201.19L235.08 190.96"/>
<path d="M214.61 190.96L214.61 201.19"/>
<path d="M204.38 180.72L204.38 211.43"/>
<path d="M204.38 211.43L204.38 180.72"/>
<path d="M245.32 180.72L245.32 211.43"/>
<path d="M245.32 211.43L245.32 180.72"/>
<path d="M245.32 211.43L245.32 180.72"/>
<path d="M245.32 211.43L204.38 211.43"/>
<path d="M245.32 211.43L204.38 211.43"/>
<path d="M245.32 211.43L204.38 211.43"/>
<path d="M245.32 211.43L204.38 211.43"/>
<path d="M332.26 180.72L322.02 190.96"/>
<path d="M291.32 180.72L301.55 190.96"/>
<path d="M332.26 180.72L291.32 180.72"/>
<path d="M332.26 180.72L291.32 180.72"/>
<path d="M332.26 180.72L291.32 180.72"/>
<path d="M332.26 180.72L291.32 180.72"/>
<path d="M322.02 190.96L301.55 190.96"/>
<path d="M332.26 211.43L322.02 201.19"/>
<path d="M301.55 201.19L291.32 211.43"/>
<path d="M291.32 211.43L332.26 211.43"/>
<path d="M301.55 201.19L322.02 201.19"/>
<path d="M322.02 201.19L322.02 190.96"/>
<path d="M301.55 190.96L301.55 201.19"/>
<path d="M291.32 180.72L291.32 211.43"/>
<path d="M291.32 211.43L291.32 180.72"/>
<path d="M332.26 180.72L332.26 211.43"/>
<path d="M332.26 211.43L332.26 180.72"/>
<path d="M332.26 211.43L332.26 180.72"/>
<path d="M332.26 211.43L291.32 211.43"/>
<path d="M332.26 211.43L291.32 211.43"/>
<path d="M332.26 211.43L291.32 211.43"/>
<path d="M332.26 211.43L291.32 211.43"/>
<path d="M416.43 180.72L406.19 190.96"/>
<path d="M375.48 180.72L385.72 190.96"/>
<path d="M416.43 180.72L375.48 180.72"/>
<path d="M416.43 180.72L375.48 180.72"/>
<path d="M416.43 180.72L375.48 180.72"/>
<path d="M416.43 180.72L375.48 180.72"/>
<path d="M406.19 190.96L385.72 190.96"/>
<path d="M416.43 211.43L406.19 201.19"/>
<path d="M385.72 201.19L375.48 211.43"/>
<path d="M375.48 211.43L416.43 211.43"/>
<path d="M385.72 201.19L406.19 201.19"/>
<path d="M406.19 201.19L406.19 190.96"/>
<path d="M385.72 190.96L385.72 201.19"/>
<path d="M375.48 180.72L375.48 211.43"/>
<path d="M375.48 211.43L375.48 180.72"/>
<path d="M416.43 180.72L416.43 211.43"/>
<path d="M416.43 211.43L416.43 180.72"/>
<path d="M416.43 211.43L416.43 180.72"/>
<path d="M416.43 211.43L375.48 211.43"/>
<path d="M416.43 211.43L375.48 211.43"/>
<path d="M416.43 211.43L375.48 211.43"/>
<path d="M416.43 211.43L375.48 211.43"/>
<path d="M72.78 73.15L415.75 73.15"/>
<path d="M415.75 87.15L88.95 87.15"/>
<path d="M415.75 311.12L72.78 311.12"/>
<path d="M415.75 297.13L88.95 297.13"/>
<path d="M376.78 73.15L415.75 73.15"/>
<path d="M415.75 87.15L376.78 87.15"/>
<path d="M389.65 142.36L354.21 165.03"/>
<path d="M415.75 108.15L190.98 108.15"/>
<path d="M61.76 319.51L61.76 247.9"/>
<path d="M61.76 135.49L61.76 58.7"/>
<path d="M88.95 247.9L88.95 297.13"/>
<path d="M88.95 87.15L88.95 135.49"/>
<path d="M415.75 276.13L190.98 276.13"/>
<path d="M181.44 228.7L440.85 228.7"/>
<path d="M181.25 165.03L181.25 228.78"/>
<path d="M354.21 165.03L354.21 228.78"/>
<path d="M354.21 165.03L354.21 228.78"/>
<path d="M267.73 165.03L267.73 228.78"/>
<path d="M267.73 165.03L267.73 228.78"/>
<path d="M181.25 165.03L181.25 228.78"/>
<path d="M190.98 108.15L173.52 109.98M173.52 109.98L156.82 115.41M156.82 115.41L141.61 124.19M141.61 124.19L128.56 135.94M128.56 135.94L118.24 150.14M118.24 150.14L111.1 166.18M111.1 166.18L107.45 183.36M107.45 183.36L107.45 200.92M107.45 200.92L111.1 218.09M111.1 218.09L118.24 234.13M118.24 234.13L128.56 248.34M128.56 248.34L141.61 260.09M141.61 260.09L156.82 268.87M156.82 268.87L173.52 274.29M173.52 274.29L190.98 276.13"/>
<path d="M67.52 227.39L67.52 155.91"/>
<path d="M44.73 247.9L44.73 135.41"/>
<path d="M59.92 247.9L59.92 135.41"/>
<path d="M37.66 247.9L37.66 135.49"/>
<path d="M99.81 135.49L99.81 247.9"/>
<path d="M72.78 247.9L72.78 311.12"/>
<path d="M99.81 237.64L59.92 237.64"/>
<path d="M99.81 247.9L37.66 247.9"/>
<path d="M67.52 247.9L67.52 237.64"/>
<path d="M99.81 227.39L67.52 227.39"/>
<path d="M190.98 276.13L209.18 276.13"/>
<path d="M72.78 73.15L72.78 135.49"/>
<path d="M59.92 145.66L99.81 145.66"/>
<path d="M37.66 135.49L99.81 135.49"/>
<path d="M52.33 135.49L52.33 135.41"/>
<path d="M67.52 145.66L67.52 135.41"/>
<path d="M67.52 155.91L99.81 155.91"/>
<path d="M303.17 142.36L267.73 165.03"/>
<path d="M232.29 142.36L267.73 165.03"/>
<path d="M232.29 142.36L216.69 142.36"/>
<path d="M216.69 142.36L181.25 165.03"/>
<path d="M318.77 142.36L354.21 165.03"/>
<path d="M318.77 142.36L303.17 142.36"/>
<path d="M439.92 165.03L439.92 228.78"/>
<path d="M413.15 276.13L394.95 276.13"/>
<path d="M411.1 142.55L389.65 142.36"/>
<path d="M411.1 143.31L440.68 165.03"/>
<path d="M245.32 180.72L235.08 190.96"/>
<path d="M204.38 180.72L214.61 190.96"/>
<path d="M219.55 120.49L219.55 109.01"/>
<path d="M201.36 120.49L201.36 109.01"/>
<path d="M219.55 120.49L201.36 120.49"/>
<path d="M394.94 120.49L394.94 109.01"/>
<path d="M376.74 120.49L376.74 109.01"/>
<path d="M376.74 120.49L394.94 120.49"/>
<path d="M530.61 58.7L530.61 135.55"/>
<path d="M530.61 135.16L530.61 58.7M530.61 58.7L557.1 58.7M557.1 58.7L557.1 319.51M557.1 319.51L530.61 319.51M530.61 319.51L530.61 247.73"/>
<path d="M530.61 247.73L530.61 319.51"/>
<path d="M541.28 227.39L541.28 155.91"/>
<path d="M564.07 247.9L564.07 135.41"/>
<path d="M548.87 247.9L548.87 135.41"/>
<path d="M571.14 247.9L571.14 135.49"/>
<path d="M508.99 135.49L508.99 247.9"/>
<path d="M541.28 247.9L541.28 237.64"/>
<path d="M508.99 237.64L548.87 237.64"/>
<path d="M508.99 227.39L541.28 227.39"/>
<path d="M508.99 247.9L571.14 247.9"/>
<path d="M556.47 135.49L556.47 135.41"/>
<path d="M541.28 145.66L541.28 135.41"/>
<path d="M548.87 145.66L508.99 145.66"/>
<path d="M571.14 135.49L508.99 135.49"/>
<path d="M541.28 155.91L508.99 155.91"/>
</g>
</g>
</svg>
