<?xml version="1.0" standalone="no"?><svg xmlns="http://www.w3.org/2000/svg" width="600.000" height="450.000" viewBox="0.0 0.0 600.000 450.000" version="1.1">
<title>Acme Converter - Post-processed with EDS-Designer: 14.44 (info@symca.com)</title>
<desc>Acme Converter - Post-processed with EDS-Designer: 14.44 (info@symca.com)</desc>
<g id="EDS_STYLE_GROUP" fill="none" stroke="black" stroke-width="1.0">
<g id="0" display="visible">
<path d="M204.1 371.25L204.1 334.89M205.83 334.89L205.83 371.25M198.9 334.89L219.68 334.89M219.68 334.89L224.87 336.62M224.87 336.62L226.61 338.35M226.61 338.35L228.34 341.82M228.34 341.82L228.34 345.28M228.34 345.28L226.61 348.74M226.61 348.74L224.87 350.47M224.87 350.47L219.68 352.2M219.68 334.89L223.14 336.62M223.14 336.62L224.87 338.35M224.87 338.35L226.61 341.82M226.61 341.82L226.61 345.28M226.61 345.28L224.87 348.74M224.87 348.74L223.14 350.47M223.14 350.47L219.68 352.2M205.83 352.2L219.68 352.2M219.68 352.2L224.87 353.94M224.87 353.94L226.61 355.67M226.61 355.67L228.34 359.13M228.34 359.13L228.34 364.32M228.34 364.32L226.61 367.79M226.61 367.79L224.87 369.52M224.87 369.52L219.68 371.25M219.68 371.25L198.9 371.25M219.68 352.2L223.14 353.94M223.14 353.94L224.87 355.67M224.87 355.67L226.61 359.13M226.61 359.13L226.61 364.32M226.61 364.32L224.87 367.79M224.87 367.79L223.14 369.52M223.14 369.52L219.68 371.25M242.19 371.25L242.19 334.89M243.92 334.89L243.92 371.25M236.99 334.89L249.11 334.89M236.99 371.25L262.96 371.25M262.96 371.25L262.96 360.86M262.96 360.86L261.23 371.25M283.74 334.89L271.62 371.25M283.74 334.89L295.86 371.25M283.74 340.09L294.13 371.25M275.08 360.86L290.66 360.86M268.16 371.25L278.55 371.25M288.93 371.25L299.32 371.25M328.75 340.09L330.48 345.28M330.48 345.28L330.48 334.89M330.48 334.89L328.75 340.09M328.75 340.09L325.29 336.62M325.29 336.62L320.1 334.89M320.1 334.89L316.63 334.89M316.63 334.89L311.44 336.62M311.44 336.62L307.98 340.09M307.98 340.09L306.25 343.55M306.25 343.55L304.51 348.74M304.51 348.74L304.51 357.4M304.51 357.4L306.25 362.59M306.25 362.59L307.98 366.06M307.98 366.06L311.44 369.52M311.44 369.52L316.63 371.25M316.63 371.25L320.1 371.25M320.1 371.25L325.29 369.52M325.29 369.52L328.75 366.06M328.75 366.06L330.48 362.59M316.63 334.89L313.17 336.62M313.17 336.62L309.71 340.09M309.71 340.09L307.98 343.55M307.98 343.55L306.25 348.74M306.25 348.74L306.25 357.4M306.25 357.4L307.98 362.59M307.98 362.59L309.71 366.06M309.71 366.06L313.17 369.52M313.17 369.52L316.63 371.25M346.07 371.25L346.07 334.89M347.8 334.89L347.8 371.25M370.31 334.89L347.8 357.4M356.45 350.47L370.31 371.25M354.72 350.47L368.57 371.25M340.87 334.89L352.99 334.89M363.38 334.89L373.77 334.89M340.87 371.25L352.99 371.25M363.38 371.25L373.77 371.25"/>
<path d="M420.36 147.1L380.89 78.75"/>
<path d="M468.88 152.92L431.79 152.92"/>
<path d="M484.88 168.92L483.66 162.8M483.66 162.8L480.19 157.61M480.19 157.61L475 154.14M475 154.14L468.88 152.92"/>
<path d="M484.88 267.08L484.88 168.92"/>
<path d="M458.7 293.26L466.79 291.98M466.79 291.98L474.09 288.26M474.09 288.26L479.88 282.47M479.88 282.47L483.6 275.17M483.6 275.17L484.88 267.08"/>
<path d="M438.34 293.26L458.7 293.26"/>
<path d="M438.34 278.72L438.34 293.26"/>
<path d="M438.34 272.36L438.34 278.72"/>
<path d="M428.16 298.53L433.25 297.17M433.25 297.17L436.97 293.44M436.97 293.44L438.34 288.35"/>
<path d="M144.57 298.53L428.16 298.53"/>
<path d="M130.02 283.99L131.97 291.26M131.97 291.26L137.3 296.59M137.3 296.59L144.57 298.53"/>
<path d="M130.02 185.82L130.02 283.99"/>
<path d="M140.2 175.64L135.11 177.01M135.11 177.01L131.39 180.73M131.39 180.73L130.02 185.82"/>
<path d="M159.11 175.64L140.2 175.64"/>
<path d="M169.29 174.74L169.29 175.64"/>
<path d="M209.28 78.75L169.29 174.74"/>
<path d="M229.64 78.75L209.28 78.75"/>
<path d="M229.64 78.75L360.53 78.75"/>
<path d="M380.89 78.75L360.53 78.75"/>
<path d="M247.82 100.57L247.82 131.83"/>
<path d="M247.82 174.74L247.82 131.83"/>
<path d="M247.82 174.74L256.55 174.74"/>
<path d="M333.63 174.74L342.35 174.74"/>
<path d="M342.35 174.74L342.35 200.19"/>
<path d="M342.35 131.83L342.35 174.74"/>
<path d="M342.35 100.57L342.35 131.83"/>
<path d="M438.34 278.72L463.06 278.72"/>
<path d="M342.35 200.19L438.34 200.19"/>
<path d="M438.34 200.19L438.34 201.09"/>
<path d="M463.06 278.72L463.06 174.74"/>
<path d="M463.06 174.74L431.79 174.74"/>
<path d="M431.79 147.1L431.79 174.74"/>
<path d="M402.71 147.1L431.79 147.1"/>
<path d="M402.71 174.74L402.71 147.1"/>
<path d="M402.71 174.74L342.35 174.74"/>
<path d="M431.07 279.63L434.7 278.65M434.7 278.65L437.36 275.99M437.36 275.99L438.34 272.36"/>
<path d="M159.11 175.64L155.47 176.62M155.47 176.62L152.81 179.28M152.81 179.28L151.84 182.92"/>
<path d="M169.29 174.74L191.83 174.74"/>
<path d="M333.63 148.56L333.63 174.74"/>
<path d="M256.55 148.56L333.63 148.56"/>
<path d="M256.55 148.56L256.55 174.74"/>
<path d="M229.64 131.83L247.82 131.83"/>
<path d="M229.64 174.74L229.64 131.83"/>
<path d="M209.28 174.74L229.64 174.74"/>
<path d="M229.64 78.75L229.64 131.83"/>
<path d="M247.82 100.57L342.35 100.57"/>
<path d="M360.53 78.75L360.53 131.83"/>
<path d="M360.53 174.74L360.53 131.83"/>
<path d="M256.55 128L256.55 148.56"/>
<path d="M256.55 108.36L256.55 128"/>
<path d="M256.55 105.66L256.55 108.36"/>
<path d="M333.63 105.66L333.63 108.36"/>
<path d="M333.63 108.36L333.63 128"/>
<path d="M333.63 128L333.63 148.56"/>
<path d="M339.45 187.82L342.35 187.82"/>
<path d="M339.45 200.19L342.35 200.19"/>
<path d="M360.53 131.83L342.35 131.83"/>
<path d="M438.34 201.09L339.45 201.09"/>
<path d="M159.11 279.63L431.07 279.63"/>
<path d="M151.84 272.36L152.81 275.99M152.81 275.99L155.47 278.65M155.47 278.65L159.11 279.63"/>
<path d="M151.84 182.92L151.84 272.36"/>
<path d="M438.34 272.36L438.34 201.09"/>
<path d="M339.45 201.09L339.45 175.64"/>
<path d="M339.45 175.64L159.11 175.64"/>
<path d="M411.8 227.27L385.62 227.27"/>
<path d="M411.8 253.45L411.8 227.27"/>
<path d="M385.62 253.45L411.8 253.45"/>
<path d="M385.62 227.27L385.62 253.45"/>
<path d="M370.35 227.27L344.17 227.27"/>
<path d="M370.35 253.45L370.35 227.27"/>
<path d="M344.17 253.45L370.35 253.45"/>
<path d="M344.17 227.27L344.17 253.45"/>
<path d="M328.9 227.27L302.72 227.27"/>
<path d="M328.9 253.45L328.9 227.27"/>
<path d="M302.72 253.45L328.9 253.45"/>
<path d="M302.72 227.27L302.72 253.45"/>
<path d="M287.45 227.27L261.28 227.27"/>
<path d="M287.45 253.45L287.45 227.27"/>
<path d="M261.28 253.45L287.45 253.45"/>
<path d="M261.28 227.27L261.28 253.45"/>
<path d="M246.01 227.27L219.83 227.27"/>
<path d="M246.01 253.45L246.01 227.27"/>
<path d="M219.83 253.45L246.01 253.45"/>
<path d="M219.83 227.27L219.83 253.45"/>
<path d="M204.56 227.27L178.38 227.27"/>
<path d="M204.56 253.45L204.56 227.27"/>
<path d="M178.38 253.45L204.56 253.45"/>
<path d="M178.38 227.27L178.38 253.45"/>
<path d="M256.55 128L333.63 128"/>
<path d="M209.28 174.74L191.83 174.74"/>
<path d="M191.83 174.74L191.83 147.1"/>
<path d="M191.83 147.1L209.28 147.1"/>
<path d="M209.28 147.1L209.28 174.74"/>
<path d="M256.55 108.36L333.63 108.36"/>
<path d="M256.55 105.66L333.63 105.66"/>
<path d="M426.7 200.19L426.7 201.09"/>
<path d="M408.41 201.09L406.84 200.19"/>
<path d="M393.44 235.09L385.62 227.27"/>
<path d="M403.98 235.09L393.44 235.09"/>
<path d="M403.98 235.09L411.8 227.27"/>
<path d="M403.98 245.63L403.98 235.09"/>
<path d="M403.98 245.63L411.8 253.45"/>
<path d="M393.44 245.63L403.98 245.63"/>
<path d="M393.44 245.63L385.62 253.45"/>
<path d="M393.44 235.09L393.44 245.63"/>
<path d="M351.99 235.09L344.17 227.27"/>
<path d="M362.53 235.09L351.99 235.09"/>
<path d="M362.53 235.09L370.35 227.27"/>
<path d="M362.53 245.63L362.53 235.09"/>
<path d="M362.53 245.63L370.35 253.45"/>
<path d="M351.99 245.63L362.53 245.63"/>
<path d="M351.99 245.63L344.17 253.45"/>
<path d="M351.99 235.09L351.99 245.63"/>
<path d="M310.54 235.09L302.72 227.27"/>
<path d="M321.08 235.09L310.54 235.09"/>
<path d="M321.08 235.09L328.9 227.27"/>
<path d="M321.08 245.63L321.08 235.09"/>
<path d="M321.08 245.63L328.9 253.45"/>
<path d="M310.54 245.63L321.08 245.63"/>
<path d="M310.54 245.63L302.72 253.45"/>
<path d="M310.54 235.09L310.54 245.63"/>
<path d="M269.09 235.09L261.28 227.27"/>
<path d="M279.64 235.09L269.09 235.09"/>
<path d="M279.64 235.09L287.45 227.27"/>
<path d="M279.64 245.63L279.64 235.09"/>
<path d="M279.64 245.63L287.45 253.45"/>
<path d="M269.09 245.63L279.64 245.63"/>
<path d="M269.09 245.63L261.28 253.45"/>
<path d="M269.09 235.09L269.09 245.63"/>
<path d="M227.65 235.09L219.83 227.27"/>
<path d="M238.19 235.09L227.65 235.09"/>
<path d="M238.19 235.09L246.01 227.27"/>
<path d="M238.19 245.63L238.19 235.09"/>
<path d="M238.19 245.63L246.01 253.45"/>
<path d="M227.65 245.63L238.19 245.63"/>
<path d="M227.65 245.63L219.83 253.45"/>
<path d="M227.65 235.09L227.65 245.63"/>
<path d="M186.2 235.09L178.38 227.27"/>
<path d="M196.74 235.09L186.2 235.09"/>
<path d="M196.74 235.09L204.56 227.27"/>
<path d="M196.74 245.63L196.74 235.09"/>
<path d="M196.74 245.63L204.56 253.45"/>
<path d="M186.2 245.63L196.74 245.63"/>
<path d="M186.2 245.63L178.38 253.45"/>
<path d="M186.2 235.09L186.2 245.63"/>
<path d="M463.06 197.53L463.06 184.99"/>
<path d="M492.7 224.97L495.47 223.58M495.47 223.58L499.63 219.43M499.63 219.43L499.63 248.51"/>
<path d="M116.95 231.55L115.57 228.78M115.57 228.78L111.41 227.39M111.41 227.39L108.64 227.39M108.64 227.39L104.49 228.78M104.49 228.78L101.72 232.93M101.72 232.93L100.33 239.86M100.33 239.86L100.33 246.79M100.33 246.79L101.72 252.33M101.72 252.33L104.49 255.1M104.49 255.1L108.64 256.48M108.64 256.48L110.03 256.48M110.03 256.48L114.18 255.1M114.18 255.1L116.95 252.33M116.95 252.33L118.34 248.17M118.34 248.17L118.34 246.79M118.34 246.79L116.95 242.63M116.95 242.63L114.18 239.86M114.18 239.86L110.03 238.48M110.03 238.48L108.64 238.48M108.64 238.48L104.49 239.86M104.49 239.86L101.72 242.63M101.72 242.63L100.33 246.79"/>
</g>
</g>
</svg>
