<?xml version="1.0" standalone="no"?><svg xmlns="http://www.w3.org/2000/svg" width="600.000" height="450.000" viewBox="0.0 0.0 600.000 450.000" version="1.1">
<title>Acme Converter - Post-processed with EDS-Designer: 14.44 (info@symca.com)</title>
<desc>Acme Converter - Post-processed with EDS-Designer: 14.44 (info@symca.com)</desc>
<g id="EDS_STYLE_GROUP" fill="none" stroke="black" stroke-width="1.0">
<g id="0" display="visible">
<path d="M239.64 371.25L239.64 344.91M240.89 344.91L240.89 371.25M235.87 344.91L250.92 344.91M250.92 344.91L254.69 346.16M254.69 346.16L255.94 347.42M255.94 347.42L257.19 349.93M257.19 349.93L257.19 352.44M257.19 352.44L255.94 354.94M255.94 354.94L254.69 356.2M254.69 356.2L250.92 357.45M250.92 344.91L253.43 346.16M253.43 346.16L254.69 347.42M254.69 347.42L255.94 349.93M255.94 349.93L255.94 352.44M255.94 352.44L254.69 354.94M254.69 354.94L253.43 356.2M253.43 356.2L250.92 357.45M240.89 357.45L250.92 357.45M250.92 357.45L254.69 358.71M254.69 358.71L255.94 359.96M255.94 359.96L257.19 362.47M257.19 362.47L257.19 366.23M257.19 366.23L255.94 368.74M255.94 368.74L254.69 370M254.69 370L250.92 371.25M250.92 371.25L235.87 371.25M250.92 357.45L253.43 358.71M253.43 358.71L254.69 359.96M254.69 359.96L255.94 362.47M255.94 362.47L255.94 366.23M255.94 366.23L254.69 368.74M254.69 368.74L253.43 370M253.43 370L250.92 371.25M267.23 371.25L267.23 344.91M268.48 344.91L268.48 371.25M263.47 344.91L272.25 344.91M263.47 371.25L282.28 371.25M282.28 371.25L282.28 363.72M282.28 363.72L281.03 371.25M297.33 344.91L288.55 371.25M297.33 344.91L306.11 371.25M297.33 348.67L304.86 371.25M291.06 363.72L302.35 363.72M286.04 371.25L293.57 371.25M301.09 371.25L308.62 371.25M329.94 348.67L331.2 352.44M331.2 352.44L331.2 344.91M331.2 344.91L329.94 348.67M329.94 348.67L327.43 346.16M327.43 346.16L323.67 344.91M323.67 344.91L321.16 344.91M321.16 344.91L317.4 346.16M317.4 346.16L314.89 348.67M314.89 348.67L313.64 351.18M313.64 351.18L312.38 354.94M312.38 354.94L312.38 361.22M312.38 361.22L313.64 364.98M313.64 364.98L314.89 367.49M314.89 367.49L317.4 370M317.4 370L321.16 371.25M321.16 371.25L323.67 371.25M323.67 371.25L327.43 370M327.43 370L329.94 367.49M329.94 367.49L331.2 364.98M321.16 344.91L318.65 346.16M318.65 346.16L316.14 348.67M316.14 348.67L314.89 351.18M314.89 351.18L313.64 354.94M313.64 354.94L313.64 361.22M313.64 361.22L314.89 364.98M314.89 364.98L316.14 367.49M316.14 367.49L318.65 370M318.65 370L321.16 371.25M342.48 371.25L342.48 344.91M343.74 344.91L343.74 371.25M360.04 344.91L343.74 361.22M350.01 356.2L360.04 371.25M348.75 356.2L358.79 371.25M338.72 344.91L347.5 344.91M355.03 344.91L362.55 344.91M338.72 371.25L347.5 371.25M355.03 371.25L362.55 371.25"/>
<path d="M232.73 78.75L299.09 78.75"/>
<path d="M232.73 94.67L299.09 94.67"/>
<path d="M228.25 83.23L228.25 90.19"/>
<path d="M232.73 78.75L229.56 80.06M229.56 80.06L228.25 83.23"/>
<path d="M228.25 90.19L229.56 93.36M229.56 93.36L232.73 94.67"/>
<path d="M228.3 82.6L151.51 162.22"/>
<path d="M151.51 162.22L113.72 178.45"/>
<path d="M108.3 186.68L108.3 258.48"/>
<path d="M113.72 178.45L109.78 181.75M109.78 181.75L108.3 186.68"/>
<path d="M154.89 284.84L113.64 266.67"/>
<path d="M108.3 258.48L109.75 263.37M109.75 263.37L113.64 266.67"/>
<path d="M154.89 284.84L162.83 292.62M162.83 292.62L171.95 298.97M171.95 298.97L182 303.71"/>
<path d="M182 303.71L220.58 311.85M220.58 311.85L259.7 316.81M259.7 316.81L299.09 318.57"/>
<path d="M241.26 99.14L241.26 147.28"/>
<path d="M245.74 94.67L242.57 95.98M242.57 95.98L241.26 99.14"/>
<path d="M299.09 108.77L259.6 108.77"/>
<path d="M257.37 106.54L257.37 99.14"/>
<path d="M261.84 94.67L258.68 95.98M258.68 95.98L257.37 99.14"/>
<path d="M257.37 106.54L258.02 108.12M258.02 108.12L259.6 108.77"/>
<path d="M245.97 146.67L245.97 109.13"/>
<path d="M250.45 104.65L257.37 104.65"/>
<path d="M250.45 104.65L247.28 105.96M247.28 105.96L245.97 109.13"/>
<path d="M299.09 115.28L250.45 115.28"/>
<path d="M250.45 115.28L247.28 116.6M247.28 116.6L245.97 119.76"/>
<path d="M299.09 125.54L250.45 125.54"/>
<path d="M250.45 125.54L247.28 126.85M247.28 126.85L245.97 130.02"/>
<path d="M299.09 139.83L250.45 139.83"/>
<path d="M245.97 135.35L247.28 138.52M247.28 138.52L250.45 139.83"/>
<path d="M299.09 119.93L282.08 119.93"/>
<path d="M282.08 119.93L282.08 125.54"/>
<path d="M160.35 176.15L160.35 264.06"/>
<path d="M160.35 264.06L150.88 264.06"/>
<path d="M187.13 156.54L176.69 160.82M176.69 160.82L167.58 167.49M167.58 167.49L160.35 176.15"/>
<path d="M245.97 146.67L216.45 151.01M216.45 151.01L187.13 156.54"/>
<path d="M146.34 213.13L146.34 198.15"/>
<path d="M185.16 152.44L173.46 157.35M173.46 157.35L163.23 164.84M163.23 164.84L155.02 174.51M155.02 174.51L149.29 185.82M149.29 185.82L146.34 198.15"/>
<path d="M241.26 142.02L213.05 146.38M213.05 146.38L185.16 152.44"/>
<path d="M177.46 155.3L177.46 160.39"/>
<path d="M186.08 152.21L186.08 156.84"/>
<path d="M138.57 215.37L138.57 230.65M138.57 230.65L138.57 230.65M138.57 230.65L139.22 232.24M139.22 232.24L140.81 232.89M140.81 232.89L151.68 232.89M151.68 232.89L151.68 213.13M151.68 213.13L140.81 213.13M140.81 213.13L140.81 213.13M140.81 213.13L139.22 213.78M139.22 213.78L138.57 215.37"/>
<path d="M151.68 213.13L151.68 197"/>
<path d="M151.68 197L160.35 197"/>
<path d="M151.68 206.77L160.35 206.77"/>
<path d="M151.68 232.89L151.68 248.68"/>
<path d="M151.68 248.68L160.35 248.68"/>
<path d="M151.68 239.8L160.35 239.8"/>
<path d="M146.34 232.89L146.34 247.87"/>
<path d="M146.34 247.87L149.29 260.2M149.29 260.2L155.02 271.51M155.02 271.51L163.23 281.18M163.23 281.18L173.46 288.67M173.46 288.67L185.16 293.58"/>
<path d="M185.16 293.58L213.05 299.64M213.05 299.64L241.26 304"/>
<path d="M241.26 304L270.12 306.79M270.12 306.79L299.09 308.08"/>
<path d="M275.23 317.89L277.99 314.85M277.99 314.85L278.45 310.77M278.45 310.77L276.43 307.2"/>
<path d="M187.46 166.19L177.46 170.42M177.46 170.42L169.15 177.41M169.15 177.41L163.27 186.54M163.27 186.54L160.35 197"/>
<path d="M258.44 154.27L222.74 158.98M222.74 158.98L187.46 166.19"/>
<path d="M299.09 152.96L278.75 153.02M278.75 153.02L258.44 154.27"/>
<path d="M160.35 249.02L163.27 259.48M163.27 259.48L169.15 268.61M169.15 268.61L177.46 275.6M177.46 275.6L187.46 279.83"/>
<path d="M187.46 279.83L222.74 287.04M222.74 287.04L258.44 291.75"/>
<path d="M258.44 291.75L278.75 293M278.75 293L299.09 293.06"/>
<path d="M170.76 223.01L170.76 201"/>
<path d="M192.07 175.25L184.16 179.09M184.16 179.09L177.64 185M177.64 185L173.05 192.51M173.05 192.51L170.76 201"/>
<path d="M299.09 163.21L263.14 164.42M263.14 164.42L227.39 168.44M227.39 168.44L192.07 175.25"/>
<path d="M192.07 270.77L227.39 277.58M227.39 277.58L263.14 281.6M263.14 281.6L299.09 282.81"/>
<path d="M170.76 245.02L173.05 253.51M173.05 253.51L177.64 261.02M177.64 261.02L184.16 266.93M184.16 266.93L192.07 270.77"/>
<path d="M170.76 223.01L170.76 245.02"/>
<path d="M187.97 223.01L187.97 209.03"/>
<path d="M205.88 191.12L238.56 191.12"/>
<path d="M205.88 191.12L199.03 192.48M199.03 192.48L193.22 196.36M193.22 196.36L189.34 202.17M189.34 202.17L187.97 209.03"/>
<path d="M187.97 216.02L181.85 216.02"/>
<path d="M177.37 220.5L177.37 223.01"/>
<path d="M181.85 216.02L178.68 217.33M178.68 217.33L177.37 220.5"/>
<path d="M291.85 178.81L272.97 179.67M272.97 179.67L254.16 181.54"/>
<path d="M238.56 191.12L238.56 183.69"/>
<path d="M243.04 179.22L250.24 179.22"/>
<path d="M254.71 183.69L254.71 191.12"/>
<path d="M243.04 179.22L239.87 180.53M239.87 180.53L238.56 183.69"/>
<path d="M254.71 183.69L253.4 180.53M253.4 180.53L250.24 179.22"/>
<path d="M291.85 191.12L291.85 170.49"/>
<path d="M294.09 168.25L299.09 168.25"/>
<path d="M294.09 168.25L292.51 168.91M292.51 168.91L291.85 170.49"/>
<path d="M238.56 183.87L205.88 191.12"/>
<path d="M254.71 191.12L299.09 191.12"/>
<path d="M243.85 223.01L243.85 210.7M243.85 210.7L196.29 210.7M196.29 210.7L196.29 223.01"/>
<path d="M237.23 223.01L237.23 218.96M237.23 218.96L203.06 218.96M203.06 218.96L203.06 223.01"/>
<path d="M237.23 218.96L243.85 210.7"/>
<path d="M203.06 218.96L196.29 210.7"/>
<path d="M233.37 210.7L233.37 199.97M233.37 199.97L206.82 199.97M206.82 199.97L206.82 210.7"/>
<path d="M224.76 199.97L224.76 210.7"/>
<path d="M215.64 199.97L215.64 210.7"/>
<path d="M220.56 199.97L220.56 210.7"/>
<path d="M273.59 199.97L273.59 210.7"/>
<path d="M277.79 199.97L277.79 210.7"/>
<path d="M268.67 199.97L268.67 210.7"/>
<path d="M286.4 210.7L286.4 199.97M286.4 199.97L259.85 199.97M259.85 199.97L259.85 210.7"/>
<path d="M256.09 218.96L249.32 210.7"/>
<path d="M290.26 223.01L290.26 218.96M290.26 218.96L256.09 218.96M256.09 218.96L256.09 223.01"/>
<path d="M290.26 218.96L296.88 210.7"/>
<path d="M296.88 223.01L296.88 210.7M296.88 210.7L249.32 210.7M249.32 210.7L249.32 223.01"/>
<path d="M291.85 275.53L292.51 277.11M292.51 277.11L294.09 277.77"/>
<path d="M294.09 277.77L299.09 277.77"/>
<path d="M291.85 254.9L291.85 275.53"/>
<path d="M243.91 254.9L299.09 254.9"/>
<path d="M239.43 266.8L242.6 265.49M242.6 265.49L243.91 262.33"/>
<path d="M227.76 262.33L229.07 265.49M229.07 265.49L232.23 266.8"/>
<path d="M243.91 262.33L243.91 254.9"/>
<path d="M232.23 266.8L239.43 266.8"/>
<path d="M227.76 254.9L227.76 262.33"/>
<path d="M243.85 263.02L267.78 265.94M267.78 265.94L291.85 267.21"/>
<path d="M187.97 236.99L189.34 243.85M189.34 243.85L193.22 249.66M193.22 249.66L199.03 253.54M199.03 253.54L205.88 254.9"/>
<path d="M296.88 223.01L296.88 235.32M296.88 235.32L249.32 235.32M249.32 235.32L249.32 223.01"/>
<path d="M290.26 227.06L296.88 235.32"/>
<path d="M290.26 223.01L290.26 227.06M290.26 227.06L256.09 227.06M256.09 227.06L256.09 223.01"/>
<path d="M256.09 227.06L249.32 235.32"/>
<path d="M286.4 235.32L286.4 246.05M286.4 246.05L259.85 246.05M259.85 246.05L259.85 235.32"/>
<path d="M268.67 246.05L268.67 235.32"/>
<path d="M277.79 246.05L277.79 235.32"/>
<path d="M273.59 246.05L273.59 235.32"/>
<path d="M220.56 246.05L220.56 235.32"/>
<path d="M224.76 246.05L224.76 235.32"/>
<path d="M215.64 246.05L215.64 235.32"/>
<path d="M233.37 235.32L233.37 246.05M233.37 246.05L206.82 246.05M206.82 246.05L206.82 235.32"/>
<path d="M203.06 227.06L196.29 235.32"/>
<path d="M237.23 223.01L237.23 227.06M237.23 227.06L203.06 227.06M203.06 227.06L203.06 223.01"/>
<path d="M237.23 227.06L243.85 235.32"/>
<path d="M243.85 223.01L243.85 235.32M243.85 235.32L196.29 235.32M196.29 235.32L196.29 223.01"/>
<path d="M177.37 225.52L178.68 228.69M178.68 228.69L181.85 230"/>
<path d="M177.37 225.52L177.37 223.01"/>
<path d="M187.97 230L181.85 230"/>
<path d="M187.97 223.01L187.97 236.99"/>
<path d="M175.17 282.97L194.75 290.67M194.75 290.67L215.14 295.85M215.14 295.85L236.02 298.44"/>
<path d="M205.88 254.9L227.76 260.11"/>
<path d="M205.88 254.9L227.76 254.9"/>
<path d="M236.02 298.44L267.5 301.19M267.5 301.19L299.09 302.24"/>
<path d="M175.17 282.97L175.17 289.6"/>
<path d="M186.85 287.9L186.85 294"/>
<path d="M411.32 287.9L411.32 294"/>
<path d="M423 282.97L423 289.6"/>
<path d="M299.09 302.24L330.67 301.19M330.67 301.19L362.15 298.44"/>
<path d="M392.29 254.9L370.42 254.9"/>
<path d="M370.42 260.11L392.29 254.9"/>
<path d="M362.15 298.44L383.03 295.85M383.03 295.85L403.42 290.67M403.42 290.67L423 282.97"/>
<path d="M410.2 223.01L410.2 236.99"/>
<path d="M410.2 230L416.33 230"/>
<path d="M420.8 225.52L420.8 223.01"/>
<path d="M416.33 230L419.49 228.69M419.49 228.69L420.8 225.52"/>
<path d="M354.32 223.01L354.32 235.32M354.32 235.32L401.88 235.32M401.88 235.32L401.88 223.01"/>
<path d="M360.95 227.06L354.32 235.32"/>
<path d="M360.95 223.01L360.95 227.06M360.95 227.06L395.12 227.06M395.12 227.06L395.12 223.01"/>
<path d="M395.12 227.06L401.88 235.32"/>
<path d="M364.8 235.32L364.8 246.05M364.8 246.05L391.35 246.05M391.35 246.05L391.35 235.32"/>
<path d="M382.53 246.05L382.53 235.32"/>
<path d="M373.41 246.05L373.41 235.32"/>
<path d="M377.61 246.05L377.61 235.32"/>
<path d="M324.58 246.05L324.58 235.32"/>
<path d="M320.38 246.05L320.38 235.32"/>
<path d="M329.5 246.05L329.5 235.32"/>
<path d="M311.77 235.32L311.77 246.05M311.77 246.05L338.32 246.05M338.32 246.05L338.32 235.32"/>
<path d="M342.09 227.06L348.85 235.32"/>
<path d="M307.92 223.01L307.92 227.06M307.92 227.06L342.09 227.06M342.09 227.06L342.09 223.01"/>
<path d="M307.92 227.06L301.29 235.32"/>
<path d="M301.29 223.01L301.29 235.32M301.29 235.32L348.85 235.32M348.85 235.32L348.85 223.01"/>
<path d="M392.29 254.9L399.14 253.54M399.14 253.54L404.95 249.66M404.95 249.66L408.84 243.85M408.84 243.85L410.2 236.99"/>
<path d="M306.32 267.21L330.39 265.94M330.39 265.94L354.32 263.02"/>
<path d="M370.42 254.9L370.42 262.33"/>
<path d="M365.94 266.8L358.74 266.8"/>
<path d="M354.26 262.33L354.26 254.9"/>
<path d="M365.94 266.8L369.1 265.49M369.1 265.49L370.42 262.33"/>
<path d="M354.26 262.33L355.58 265.49M355.58 265.49L358.74 266.8"/>
<path d="M354.26 254.9L299.09 254.9"/>
<path d="M306.32 254.9L306.32 275.53"/>
<path d="M304.08 277.77L299.09 277.77"/>
<path d="M304.08 277.77L305.67 277.11M305.67 277.11L306.32 275.53"/>
<path d="M301.29 223.01L301.29 210.7M301.29 210.7L348.85 210.7M348.85 210.7L348.85 223.01"/>
<path d="M307.92 218.96L301.29 210.7"/>
<path d="M307.92 223.01L307.92 218.96M307.92 218.96L342.09 218.96M342.09 218.96L342.09 223.01"/>
<path d="M342.09 218.96L348.85 210.7"/>
<path d="M311.77 210.7L311.77 199.97M311.77 199.97L338.32 199.97M338.32 199.97L338.32 210.7"/>
<path d="M329.5 199.97L329.5 210.7"/>
<path d="M320.38 199.97L320.38 210.7"/>
<path d="M324.58 199.97L324.58 210.7"/>
<path d="M377.61 199.97L377.61 210.7"/>
<path d="M373.41 199.97L373.41 210.7"/>
<path d="M382.53 199.97L382.53 210.7"/>
<path d="M364.8 210.7L364.8 199.97M364.8 199.97L391.35 199.97M391.35 199.97L391.35 210.7"/>
<path d="M395.12 218.96L401.88 210.7"/>
<path d="M360.95 218.96L354.32 210.7"/>
<path d="M360.95 223.01L360.95 218.96M360.95 218.96L395.12 218.96M395.12 218.96L395.12 223.01"/>
<path d="M354.32 223.01L354.32 210.7M354.32 210.7L401.88 210.7M401.88 210.7L401.88 223.01"/>
<path d="M343.46 191.12L299.09 191.12"/>
<path d="M392.29 191.12L359.61 183.87"/>
<path d="M306.32 170.49L305.67 168.91M305.67 168.91L304.08 168.25"/>
<path d="M304.08 168.25L299.09 168.25"/>
<path d="M306.32 191.12L306.32 170.49"/>
<path d="M347.94 179.22L344.77 180.53M344.77 180.53L343.46 183.69"/>
<path d="M359.61 183.69L358.3 180.53M358.3 180.53L355.13 179.22"/>
<path d="M343.46 183.69L343.46 191.12"/>
<path d="M355.13 179.22L347.94 179.22"/>
<path d="M359.61 191.12L359.61 183.69"/>
<path d="M344.01 181.54L325.2 179.67M325.2 179.67L306.32 178.81"/>
<path d="M420.8 220.5L419.49 217.33M419.49 217.33L416.33 216.02"/>
<path d="M420.8 220.5L420.8 223.01"/>
<path d="M410.2 216.02L416.33 216.02"/>
<path d="M410.2 209.03L408.84 202.17M408.84 202.17L404.95 196.36M404.95 196.36L399.14 192.48M399.14 192.48L392.29 191.12"/>
<path d="M392.29 191.12L359.61 191.12"/>
<path d="M410.2 223.01L410.2 209.03"/>
<path d="M427.41 223.01L427.41 245.02"/>
<path d="M406.1 270.77L414.02 266.93M414.02 266.93L420.53 261.02M420.53 261.02L425.12 253.51M425.12 253.51L427.41 245.02"/>
<path d="M299.09 282.81L335.04 281.6M335.04 281.6L370.78 277.58M370.78 277.58L406.1 270.77"/>
<path d="M406.1 175.25L370.78 168.44M370.78 168.44L335.04 164.42M335.04 164.42L299.09 163.21"/>
<path d="M427.41 201L425.12 192.51M425.12 192.51L420.53 185M420.53 185L414.02 179.09M414.02 179.09L406.1 175.25"/>
<path d="M427.41 223.01L427.41 201"/>
<path d="M299.09 293.06L319.43 293M319.43 293L339.73 291.75"/>
<path d="M339.73 291.75L375.43 287.04M375.43 287.04L410.71 279.83"/>
<path d="M410.71 279.83L420.71 275.6M420.71 275.6L429.02 268.61M429.02 268.61L434.9 259.48M434.9 259.48L437.83 249.02"/>
<path d="M339.73 154.27L319.43 153.02M319.43 153.02L299.09 152.96"/>
<path d="M410.71 166.19L375.43 158.98M375.43 158.98L339.73 154.27"/>
<path d="M437.83 197L434.9 186.54M434.9 186.54L429.02 177.41M429.02 177.41L420.71 170.42M420.71 170.42L410.71 166.19"/>
<path d="M321.74 307.2L319.72 310.77M319.72 310.77L320.18 314.85M320.18 314.85L322.94 317.89"/>
<path d="M299.09 308.08L328.05 306.79M328.05 306.79L356.91 304"/>
<path d="M356.91 304L385.12 299.64M385.12 299.64L413.02 293.58"/>
<path d="M413.02 293.58L424.71 288.67M424.71 288.67L434.94 281.18M434.94 281.18L443.15 271.51M443.15 271.51L448.89 260.2M448.89 260.2L451.84 247.87"/>
<path d="M451.84 232.89L451.84 247.87"/>
<path d="M446.49 239.8L437.83 239.8"/>
<path d="M446.49 248.68L437.83 248.68"/>
<path d="M446.49 232.89L446.49 248.68"/>
<path d="M446.49 206.77L437.83 206.77"/>
<path d="M446.49 197L437.83 197"/>
<path d="M446.49 213.13L446.49 197"/>
<path d="M459.61 215.37L459.61 230.65M459.61 230.65L459.61 230.65M459.61 230.65L458.95 232.24M458.95 232.24L457.37 232.89M457.37 232.89L446.49 232.89M446.49 232.89L446.49 213.13M446.49 213.13L457.37 213.13M457.37 213.13L457.37 213.13M457.37 213.13L458.95 213.78M458.95 213.78L459.61 215.37"/>
<path d="M412.09 152.21L412.09 156.84"/>
<path d="M420.71 155.3L420.71 160.39"/>
<path d="M413.02 152.44L385.12 146.38M385.12 146.38L356.91 142.02"/>
<path d="M451.84 198.15L448.89 185.82M448.89 185.82L443.15 174.51M443.15 174.51L434.94 164.84M434.94 164.84L424.71 157.35M424.71 157.35L413.02 152.44"/>
<path d="M451.84 213.13L451.84 198.15"/>
<path d="M411.04 156.54L381.72 151.01M381.72 151.01L352.2 146.67"/>
<path d="M437.83 176.15L430.59 167.49M430.59 167.49L421.48 160.82M421.48 160.82L411.04 156.54"/>
<path d="M437.83 264.06L447.3 264.06"/>
<path d="M437.83 176.15L437.83 264.06"/>
<path d="M316.09 119.93L316.09 125.54"/>
<path d="M299.09 119.93L316.09 119.93"/>
<path d="M347.73 139.83L350.89 138.52M350.89 138.52L352.2 135.35"/>
<path d="M299.09 139.83L347.73 139.83"/>
<path d="M352.2 130.02L350.89 126.85M350.89 126.85L347.73 125.54"/>
<path d="M299.09 125.54L347.73 125.54"/>
<path d="M352.2 119.76L350.89 116.6M350.89 116.6L347.73 115.28"/>
<path d="M299.09 115.28L347.73 115.28"/>
<path d="M352.2 109.13L350.89 105.96M350.89 105.96L347.73 104.65"/>
<path d="M347.73 104.65L340.81 104.65"/>
<path d="M352.2 146.67L352.2 109.13"/>
<path d="M338.57 108.77L340.15 108.12M340.15 108.12L340.81 106.54"/>
<path d="M340.81 99.14L339.5 95.98M339.5 95.98L336.33 94.67"/>
<path d="M340.81 106.54L340.81 99.14"/>
<path d="M299.09 108.77L338.57 108.77"/>
<path d="M356.91 99.14L355.6 95.98M355.6 95.98L352.44 94.67"/>
<path d="M356.91 99.14L356.91 147.28"/>
<path d="M299.09 318.57L338.48 316.81M338.48 316.81L377.59 311.85M377.59 311.85L416.17 303.71"/>
<path d="M416.17 303.71L426.22 298.97M426.22 298.97L435.35 292.62M435.35 292.62L443.28 284.84"/>
<path d="M484.53 266.67L488.42 263.37M488.42 263.37L489.87 258.48"/>
<path d="M443.28 284.84L484.53 266.67"/>
<path d="M489.87 186.68L488.4 181.75M488.4 181.75L484.45 178.45"/>
<path d="M489.87 186.68L489.87 258.48"/>
<path d="M446.66 162.22L484.45 178.45"/>
<path d="M369.88 82.6L446.66 162.22"/>
<path d="M365.44 94.67L368.61 93.36M368.61 93.36L369.92 90.19"/>
<path d="M369.92 83.23L368.61 80.06M368.61 80.06L365.44 78.75"/>
<path d="M369.92 83.23L369.92 90.19"/>
<path d="M365.44 94.67L299.09 94.67"/>
<path d="M365.44 78.75L299.09 78.75"/>
<path d="M75.28 212.2L77.29 211.2M77.29 211.2L80.3 208.19M80.3 208.19L80.3 229.26"/>
<path d="M519.61 208.19L509.58 222.23M509.58 222.23L524.63 222.23M519.61 208.19L519.61 229.26"/>
</g>
</g>
</svg>
