<?xml version="1.0" standalone="no"?><svg xmlns="http://www.w3.org/2000/svg" width="600.000" height="450.000" viewBox="0.0 0.0 600.000 450.000" version="1.1">
<title>Acme Converter - Post-processed with EDS-Designer: 14.44 (info@symca.com)</title>
<desc>Acme Converter - Post-processed with EDS-Designer: 14.44 (info@symca.com)</desc>
<g id="EDS_STYLE_GROUP" fill="none" stroke="black" stroke-width="1.0">
<g id="0" display="visible">
<path d="M260.23 371.25L260.23 350.92M261.2 350.92L261.2 371.25M257.33 350.92L268.94 350.92M268.94 350.92L271.85 351.89M271.85 351.89L272.82 352.85M272.82 352.85L273.78 354.79M273.78 354.79L273.78 356.73M273.78 356.73L272.82 358.66M272.82 358.66L271.85 359.63M271.85 359.63L268.94 360.6M268.94 350.92L270.88 351.89M270.88 351.89L271.85 352.85M271.85 352.85L272.82 354.79M272.82 354.79L272.82 356.73M272.82 356.73L271.85 358.66M271.85 358.66L270.88 359.63M270.88 359.63L268.94 360.6M261.2 360.6L268.94 360.6M268.94 360.6L271.85 361.57M271.85 361.57L272.82 362.54M272.82 362.54L273.78 364.47M273.78 364.47L273.78 367.38M273.78 367.38L272.82 369.31M272.82 369.31L271.85 370.28M271.85 370.28L268.94 371.25M268.94 371.25L257.33 371.25M268.94 360.6L270.88 361.57M270.88 361.57L271.85 362.54M271.85 362.54L272.82 364.47M272.82 364.47L272.82 367.38M272.82 367.38L271.85 369.31M271.85 369.31L270.88 370.28M270.88 370.28L268.94 371.25M281.53 371.25L281.53 350.92M282.5 350.92L282.5 371.25M278.63 350.92L285.4 350.92M278.63 371.25L293.15 371.25M293.15 371.25L293.15 365.44M293.15 365.44L292.18 371.25M304.77 350.92L297.99 371.25M304.77 350.92L311.54 371.25M304.77 353.82L310.58 371.25M299.93 365.44L308.64 365.44M296.05 371.25L301.86 371.25M307.67 371.25L313.48 371.25M329.94 353.82L330.91 356.73M330.91 356.73L330.91 350.92M330.91 350.92L329.94 353.82M329.94 353.82L328 351.89M328 351.89L325.1 350.92M325.1 350.92L323.16 350.92M323.16 350.92L320.26 351.89M320.26 351.89L318.32 353.82M318.32 353.82L317.35 355.76M317.35 355.76L316.38 358.66M316.38 358.66L316.38 363.5M316.38 363.5L317.35 366.41M317.35 366.41L318.32 368.34M318.32 368.34L320.26 370.28M320.26 370.28L323.16 371.25M323.16 371.25L325.1 371.25M325.1 371.25L328 370.28M328 370.28L329.94 368.34M329.94 368.34L330.91 366.41M323.16 350.92L321.23 351.89M321.23 351.89L319.29 353.82M319.29 353.82L318.32 355.76M318.32 355.76L317.35 358.66M317.35 358.66L317.35 363.5M317.35 363.5L318.32 366.41M318.32 366.41L319.29 368.34M319.29 368.34L321.23 370.28M321.23 370.28L323.16 371.25M339.62 371.25L339.62 350.92M340.59 350.92L340.59 371.25M353.18 350.92L340.59 363.5M345.43 359.63L353.18 371.25M344.46 359.63L352.21 371.25M336.72 350.92L343.49 350.92M349.3 350.92L355.11 350.92M336.72 371.25L343.49 371.25M349.3 371.25L355.11 371.25"/>
<path d="M272.91 145.54L297.35 145.54"/>
<path d="M342.63 145.91L323.9 145.91"/>
<path d="M323.9 139.26L323.9 161.79"/>
<path d="M289.41 139.26L289.41 145.54"/>
<path d="M272.91 139.26L272.91 162.66M272.91 162.66L297.35 162.66M297.35 162.66L297.35 139.26"/>
<path d="M315.09 139.26L315.09 161.79M315.09 161.79L342.63 161.79M342.63 161.79L342.63 139.26"/>
<path d="M355.92 148.01L355.92 163.3M355.92 163.3L403.66 163.3M403.66 163.3L403.66 148.01M403.66 148.01L355.92 148.01"/>
<path d="M248.82 161.42L248.82 148.01M248.82 148.01L215.08 148.01M215.08 148.01L215.08 161.42M215.08 161.42L248.82 161.42"/>
<path d="M399.28 270.45L399.28 278.06"/>
<path d="M363.48 270.45L363.48 278.06"/>
<path d="M349.21 270.45L349.21 278.06"/>
<path d="M313.4 270.45L313.4 278.06"/>
<path d="M299.38 270.45L299.38 278.06"/>
<path d="M213.4 270.45L213.4 278.06"/>
<path d="M248.76 270.45L248.76 278.06"/>
<path d="M263.65 270.45L263.65 278.06"/>
<path d="M467.7 157.51L467.7 197.73M467.7 197.73L467.7 197.73M467.7 197.73L468.79 201.8M468.79 201.8L471.77 204.78M471.77 204.78L475.84 205.87M475.84 205.87L493.49 205.87M493.49 205.87L493.49 205.87M493.49 205.87L494.93 206.46M494.93 206.46L495.52 207.9M495.52 207.9L495.52 221.67M495.52 221.67L495.52 221.67M495.52 221.67L494.93 223.11M494.93 223.11L493.49 223.7M493.49 223.7L475.84 223.7M475.84 223.7L475.84 223.7M475.84 223.7L471.77 224.79M471.77 224.79L468.79 227.77M468.79 227.77L467.7 231.83M467.7 231.83L467.7 253"/>
<path d="M418.91 301.79L431.54 300.13M431.54 300.13L443.31 295.25M443.31 295.25L453.41 287.5M453.41 287.5L461.17 277.39M461.17 277.39L466.04 265.63M466.04 265.63L467.7 253"/>
<path d="M467.7 157.51L466.04 144.88M466.04 144.88L461.17 133.11M461.17 133.11L453.41 123M453.41 123L443.31 115.25M443.31 115.25L431.54 110.37M431.54 110.37L418.91 108.71"/>
<path d="M418.91 301.79L306.12 301.79"/>
<path d="M323.34 106.68L323.93 108.11M323.93 108.11L325.37 108.71"/>
<path d="M323.34 80.78L322.74 79.35M322.74 79.35L321.3 78.75"/>
<path d="M418.91 108.71L306.12 108.71"/>
<path d="M323.34 80.78L323.34 106.68"/>
<path d="M306.12 92.07L323.34 92.07"/>
<path d="M321.3 78.75L306.12 78.75"/>
<path d="M306.12 131.15L416.45 131.15M416.45 131.15L416.45 131.15M416.45 131.15L425.25 132.54M425.25 132.54L433.18 136.59M433.18 136.59L439.48 142.88M439.48 142.88L443.52 150.82M443.52 150.82L444.92 159.62M444.92 159.62L444.92 249.6M444.92 249.6L444.92 249.6M444.92 249.6L443.52 258.39M443.52 258.39L439.48 266.33M439.48 266.33L433.18 272.62M433.18 272.62L425.25 276.67M425.25 276.67L416.45 278.06M416.45 278.06L306.12 278.06"/>
<path d="M306.12 270.45L419.56 270.45M419.56 270.45L419.56 270.45M419.56 270.45L425.78 269.22M425.78 269.22L431.06 265.69M431.06 265.69L434.58 260.41M434.58 260.41L435.82 254.19M435.82 254.19L435.82 155.53M435.82 155.53L435.82 155.53M435.82 155.53L434.58 149.3M434.58 149.3L431.06 144.03M431.06 144.03L425.78 140.5M425.78 140.5L419.56 139.26M419.56 139.26L306.12 139.26"/>
<path d="M318.28 301.79L318.28 328.49M318.28 328.49L306.12 328.49"/>
<path d="M395.56 301.79L395.56 330.59M395.56 330.59L359.68 330.59M359.68 330.59L359.68 330.59M359.68 330.59L355.62 329.5M355.62 329.5L352.64 326.52M352.64 326.52L351.55 322.45M351.55 322.45L351.55 301.79"/>
<path d="M416.42 194.17L416.42 170.84"/>
<path d="M416.42 170.84L407.97 170.84"/>
<path d="M407.97 170.84L407.97 194.17"/>
<path d="M407.97 194.17L426.14 194.17"/>
<path d="M426.14 194.17L426.14 183.74"/>
<path d="M416.42 175.7L420.06 181.19M420.06 181.19L426.14 183.74"/>
<path d="M416.42 188.51L407.97 188.51"/>
<path d="M374.24 188.51L365.79 188.51"/>
<path d="M365.79 170.84L365.79 194.17"/>
<path d="M374.24 170.84L365.79 170.84"/>
<path d="M374.24 194.17L374.24 170.84"/>
<path d="M374.24 194.17L365.79 194.17"/>
<path d="M330.94 194.17L322.49 194.17"/>
<path d="M330.94 194.17L330.94 170.84"/>
<path d="M330.94 170.84L322.49 170.84"/>
<path d="M322.49 170.84L322.49 194.17"/>
<path d="M330.94 188.51L322.49 188.51"/>
<path d="M401.88 175.7L401.88 188.3M401.88 188.3L380.91 188.3M380.91 188.3L380.91 175.7"/>
<path d="M359.32 175.7L359.32 188.3M359.32 188.3L338.36 188.3M338.36 188.3L338.36 175.7"/>
<path d="M306.12 175.7L407.97 175.7"/>
<path d="M426.14 194.17L426.14 202.01"/>
<path d="M316.61 175.7L316.61 188.3M316.61 188.3L306.12 188.3"/>
<path d="M426.14 202.01L306.12 202.01"/>
<path d="M398.56 194.88L398.56 207.03M398.56 207.03L384.03 207.03M384.03 207.03L384.03 194.88M384.03 194.88L398.56 194.88"/>
<path d="M356.01 194.88L356.01 207.03M356.01 207.03L341.47 207.03M341.47 207.03L341.47 194.88M341.47 194.88L356.01 194.88"/>
<path d="M306.12 194.88L313.29 194.88M313.29 194.88L313.29 207.03M313.29 207.03L306.12 207.03"/>
<path d="M306.12 238.02L313.29 238.02M313.29 238.02L313.29 250.16M313.29 250.16L306.12 250.16"/>
<path d="M356.01 238.02L356.01 250.16M356.01 250.16L341.47 250.16M341.47 250.16L341.47 238.02M341.47 238.02L356.01 238.02"/>
<path d="M398.56 238.02L398.56 250.16M398.56 250.16L384.03 250.16M384.03 250.16L384.03 238.02M384.03 238.02L398.56 238.02"/>
<path d="M316.61 218.83L316.61 231.43M316.61 231.43L306.12 231.43"/>
<path d="M306.12 218.83L407.97 218.83"/>
<path d="M359.32 218.83L359.32 231.43M359.32 231.43L338.36 231.43M338.36 231.43L338.36 218.83"/>
<path d="M401.88 218.83L401.88 231.43M401.88 231.43L380.91 231.43M380.91 231.43L380.91 218.83"/>
<path d="M330.94 231.64L322.49 231.64"/>
<path d="M322.49 213.97L322.49 237.3"/>
<path d="M330.94 213.97L322.49 213.97"/>
<path d="M330.94 237.3L330.94 213.97"/>
<path d="M330.94 237.3L322.49 237.3"/>
<path d="M374.24 237.3L365.79 237.3"/>
<path d="M374.24 237.3L374.24 213.97"/>
<path d="M374.24 213.97L365.79 213.97"/>
<path d="M365.79 213.97L365.79 237.3"/>
<path d="M374.24 231.64L365.79 231.64"/>
<path d="M416.42 231.64L407.97 231.64"/>
<path d="M416.42 218.83L420.06 224.32M420.06 224.32L426.14 226.88"/>
<path d="M426.14 237.3L426.14 226.88"/>
<path d="M407.97 237.3L426.14 237.3"/>
<path d="M407.97 213.97L407.97 237.3"/>
<path d="M416.42 213.97L407.97 213.97"/>
<path d="M416.42 260.07L416.42 213.97"/>
<path d="M418 260.07L422.07 258.98M422.07 258.98L425.05 256M425.05 256L426.14 251.94"/>
<path d="M426.14 237.3L426.14 251.94"/>
<path d="M194.24 260.07L306.12 260.07"/>
<path d="M418 260.07L306.12 260.07"/>
<path d="M186.11 237.3L186.11 251.94"/>
<path d="M186.11 251.94L187.2 256M187.2 256L190.17 258.98M190.17 258.98L194.24 260.07"/>
<path d="M195.82 260.07L195.82 213.97"/>
<path d="M195.82 213.97L204.27 213.97"/>
<path d="M204.27 213.97L204.27 237.3"/>
<path d="M204.27 237.3L186.11 237.3"/>
<path d="M186.11 237.3L186.11 226.88"/>
<path d="M186.11 226.88L192.18 224.32M192.18 224.32L195.82 218.83"/>
<path d="M195.82 231.64L204.27 231.64"/>
<path d="M238.01 231.64L246.46 231.64"/>
<path d="M246.46 213.97L246.46 237.3"/>
<path d="M238.01 213.97L246.46 213.97"/>
<path d="M238.01 237.3L238.01 213.97"/>
<path d="M238.01 237.3L246.46 237.3"/>
<path d="M281.31 237.3L289.76 237.3"/>
<path d="M281.31 237.3L281.31 213.97"/>
<path d="M281.31 213.97L289.76 213.97"/>
<path d="M289.76 213.97L289.76 237.3"/>
<path d="M281.31 231.64L289.76 231.64"/>
<path d="M210.36 218.83L210.36 231.43M210.36 231.43L231.33 231.43M231.33 231.43L231.33 218.83"/>
<path d="M252.92 218.83L252.92 231.43M252.92 231.43L273.89 231.43M273.89 231.43L273.89 218.83"/>
<path d="M306.12 218.83L204.27 218.83"/>
<path d="M295.64 218.83L295.64 231.43M295.64 231.43L306.12 231.43"/>
<path d="M213.68 238.02L213.68 250.16M213.68 250.16L228.21 250.16M228.21 250.16L228.21 238.02M228.21 238.02L213.68 238.02"/>
<path d="M256.24 238.02L256.24 250.16M256.24 250.16L270.77 250.16M270.77 250.16L270.77 238.02M270.77 238.02L256.24 238.02"/>
<path d="M306.12 238.02L298.95 238.02M298.95 238.02L298.95 250.16M298.95 250.16L306.12 250.16"/>
<path d="M306.12 194.88L298.95 194.88M298.95 194.88L298.95 207.03M298.95 207.03L306.12 207.03"/>
<path d="M256.24 194.88L256.24 207.03M256.24 207.03L270.77 207.03M270.77 207.03L270.77 194.88M270.77 194.88L256.24 194.88"/>
<path d="M213.68 194.88L213.68 207.03M213.68 207.03L228.21 207.03M228.21 207.03L228.21 194.88M228.21 194.88L213.68 194.88"/>
<path d="M186.11 202.01L306.12 202.01"/>
<path d="M295.64 175.7L295.64 188.3M295.64 188.3L306.12 188.3"/>
<path d="M186.11 194.17L186.11 202.01"/>
<path d="M306.12 175.7L204.27 175.7"/>
<path d="M252.92 175.7L252.92 188.3M252.92 188.3L273.89 188.3M273.89 188.3L273.89 175.7"/>
<path d="M210.36 175.7L210.36 188.3M210.36 188.3L231.33 188.3M231.33 188.3L231.33 175.7"/>
<path d="M281.31 188.51L289.76 188.51"/>
<path d="M289.76 170.84L289.76 194.17"/>
<path d="M281.31 170.84L289.76 170.84"/>
<path d="M281.31 194.17L281.31 170.84"/>
<path d="M281.31 194.17L289.76 194.17"/>
<path d="M238.01 194.17L246.46 194.17"/>
<path d="M238.01 194.17L238.01 170.84"/>
<path d="M238.01 170.84L246.46 170.84"/>
<path d="M246.46 170.84L246.46 194.17"/>
<path d="M238.01 188.51L246.46 188.51"/>
<path d="M195.82 188.51L204.27 188.51"/>
<path d="M186.11 183.74L192.18 181.19M192.18 181.19L195.82 175.7"/>
<path d="M186.11 194.17L186.11 183.74"/>
<path d="M204.27 194.17L186.11 194.17"/>
<path d="M204.27 170.84L204.27 194.17"/>
<path d="M195.82 170.84L204.27 170.84"/>
<path d="M195.82 194.17L195.82 170.84"/>
<path d="M216.69 301.79L216.69 330.59M216.69 330.59L252.56 330.59M252.56 330.59L252.56 330.59M252.56 330.59L256.63 329.5M256.63 329.5L259.61 326.52M259.61 326.52L260.69 322.45M260.69 322.45L260.69 301.79"/>
<path d="M293.96 301.79L293.96 328.49M293.96 328.49L306.12 328.49"/>
<path d="M306.12 270.45L192.69 270.45M192.69 270.45L192.69 270.45M192.69 270.45L186.46 269.22M186.46 269.22L181.19 265.69M181.19 265.69L177.66 260.41M177.66 260.41L176.42 254.19M176.42 254.19L176.42 155.53M176.42 155.53L176.42 155.53M176.42 155.53L177.66 149.3M177.66 149.3L181.19 144.03M181.19 144.03L186.46 140.5M186.46 140.5L192.69 139.26M192.69 139.26L306.12 139.26"/>
<path d="M306.12 131.15L195.79 131.15M195.79 131.15L195.79 131.15M195.79 131.15L187 132.54M187 132.54L179.06 136.59M179.06 136.59L172.76 142.88M172.76 142.88L168.72 150.82M168.72 150.82L167.33 159.62M167.33 159.62L167.33 249.6M167.33 249.6L167.33 249.6M167.33 249.6L168.72 258.39M168.72 258.39L172.76 266.33M172.76 266.33L179.06 272.62M179.06 272.62L187 276.67M187 276.67L195.79 278.06M195.79 278.06L306.12 278.06"/>
<path d="M290.94 78.75L306.12 78.75"/>
<path d="M306.12 92.07L288.91 92.07"/>
<path d="M288.91 80.78L288.91 106.68"/>
<path d="M193.34 108.71L306.12 108.71"/>
<path d="M290.94 78.75L289.5 79.35M289.5 79.35L288.91 80.78"/>
<path d="M286.87 108.71L288.31 108.11M288.31 108.11L288.91 106.68"/>
<path d="M193.34 301.79L306.12 301.79"/>
<path d="M193.34 108.71L180.71 110.37M180.71 110.37L168.94 115.25M168.94 115.25L158.83 123M158.83 123L151.08 133.11M151.08 133.11L146.2 144.88M146.2 144.88L144.54 157.51"/>
<path d="M144.54 253L146.2 265.63M146.2 265.63L151.08 277.39M151.08 277.39L158.83 287.5M158.83 287.5L168.94 295.25M168.94 295.25L180.71 300.13M180.71 300.13L193.34 301.79"/>
<path d="M144.54 157.51L144.54 197.73M144.54 197.73L144.54 197.73M144.54 197.73L143.45 201.8M143.45 201.8L140.47 204.78M140.47 204.78L136.41 205.87M136.41 205.87L118.76 205.87M118.76 205.87L118.76 205.87M118.76 205.87L117.32 206.46M117.32 206.46L116.72 207.9M116.72 207.9L116.72 221.67M116.72 221.67L116.72 221.67M116.72 221.67L117.32 223.11M117.32 223.11L118.76 223.7M118.76 223.7L136.41 223.7M136.41 223.7L136.41 223.7M136.41 223.7L140.47 224.79M140.47 224.79L143.45 227.77M143.45 227.77L144.54 231.83M144.54 231.83L144.54 253"/>
<path d="M510.72 179.32L512.27 178.55M512.27 178.55L514.59 176.22M514.59 176.22L514.59 192.49"/>
<path d="M103.33 176.22L95.59 176.22M95.59 176.22L94.81 183.19M94.81 183.19L95.59 182.42M95.59 182.42L97.91 181.64M97.91 181.64L100.23 181.64M100.23 181.64L102.56 182.42M102.56 182.42L104.11 183.97M104.11 183.97L104.88 186.29M104.88 186.29L104.88 187.84M104.88 187.84L104.11 190.16M104.11 190.16L102.56 191.71M102.56 191.71L100.23 192.49M100.23 192.49L97.91 192.49M97.91 192.49L95.59 191.71M95.59 191.71L94.81 190.94M94.81 190.94L94.04 189.39"/>
<path d="M82.34 236.63L83.89 235.86M83.89 235.86L86.21 233.53M86.21 233.53L86.21 249.8M99.38 233.53L97.05 234.31M97.05 234.31L95.5 236.63M95.5 236.63L94.73 240.51M94.73 240.51L94.73 242.83M94.73 242.83L95.5 246.7M95.5 246.7L97.05 249.03M97.05 249.03L99.38 249.8M99.38 249.8L100.93 249.8M100.93 249.8L103.25 249.03M103.25 249.03L104.8 246.7M104.8 246.7L105.57 242.83M105.57 242.83L105.57 240.51M105.57 240.51L104.8 236.63M104.8 236.63L103.25 234.31M103.25 234.31L100.93 233.53M100.93 233.53L99.38 233.53"/>
<path d="M516.96 235.86L516.19 234.31M516.19 234.31L513.86 233.53M513.86 233.53L512.31 233.53M512.31 233.53L509.99 234.31M509.99 234.31L508.44 236.63M508.44 236.63L507.67 240.5M507.67 240.5L507.67 244.38M507.67 244.38L508.44 247.48M508.44 247.48L509.99 249.02M509.99 249.02L512.31 249.8M512.31 249.8L513.09 249.8M513.09 249.8L515.41 249.02M515.41 249.02L516.96 247.48M516.96 247.48L517.74 245.15M517.74 245.15L517.74 244.38M517.74 244.38L516.96 242.05M516.96 242.05L515.41 240.5M515.41 240.5L513.09 239.73M513.09 239.73L512.31 239.73M512.31 239.73L509.99 240.5M509.99 240.5L508.44 242.05M508.44 242.05L507.67 244.38"/>
</g>
</g>
</svg>
