<?xml version="1.0" standalone="no"?><svg xmlns="http://www.w3.org/2000/svg" width="600.000" height="450.000" viewBox="0.0 0.0 600.000 450.000" version="1.1">
<title>Acme Converter - Post-processed with EDS-Designer: 14.44 (info@symca.com)</title>
<desc>Acme Converter - Post-processed with EDS-Designer: 14.44 (info@symca.com)</desc>
<g id="EDS_STYLE_GROUP" fill="none" stroke="black" stroke-width="1.0">
<g id="0" display="visible">
<path d="M239.09 412.94L239.09 380.31M240.64 380.31L240.64 412.94M234.43 380.31L253.07 380.31M253.07 380.31L257.74 381.87M257.74 381.87L259.29 383.42M259.29 383.42L260.84 386.53M260.84 386.53L260.84 389.64M260.84 389.64L259.29 392.74M259.29 392.74L257.74 394.3M257.74 394.3L253.07 395.85M253.07 380.31L256.18 381.87M256.18 381.87L257.74 383.42M257.74 383.42L259.29 386.53M259.29 386.53L259.29 389.64M259.29 389.64L257.74 392.74M257.74 392.74L256.18 394.3M256.18 394.3L253.07 395.85M240.64 395.85L253.07 395.85M253.07 395.85L257.74 397.41M257.74 397.41L259.29 398.96M259.29 398.96L260.84 402.07M260.84 402.07L260.84 406.73M260.84 406.73L259.29 409.84M259.29 409.84L257.74 411.39M257.74 411.39L253.07 412.94M253.07 412.94L234.43 412.94M253.07 395.85L256.18 397.41M256.18 397.41L257.74 398.96M257.74 398.96L259.29 402.07M259.29 402.07L259.29 406.73M259.29 406.73L257.74 409.84M257.74 409.84L256.18 411.39M256.18 411.39L253.07 412.94M273.27 412.94L273.27 380.31M274.83 380.31L274.83 412.94M268.61 380.31L279.49 380.31M268.61 412.94L291.92 412.94M291.92 412.94L291.92 403.62M291.92 403.62L290.37 412.94M310.56 380.31L299.69 412.94M310.56 380.31L321.44 412.94M310.56 384.98L319.89 412.94M302.8 403.62L316.78 403.62M296.58 412.94L305.9 412.94M315.23 412.94L324.55 412.94M350.96 384.98L352.52 389.64M352.52 389.64L352.52 380.31M352.52 380.31L350.96 384.98M350.96 384.98L347.86 381.87M347.86 381.87L343.19 380.31M343.19 380.31L340.09 380.31M340.09 380.31L335.43 381.87M335.43 381.87L332.32 384.98M332.32 384.98L330.76 388.08M330.76 388.08L329.21 392.74M329.21 392.74L329.21 400.51M329.21 400.51L330.76 405.18M330.76 405.18L332.32 408.28M332.32 408.28L335.43 411.39M335.43 411.39L340.09 412.94M340.09 412.94L343.19 412.94M343.19 412.94L347.86 411.39M347.86 411.39L350.96 408.28M350.96 408.28L352.52 405.18M340.09 380.31L336.98 381.87M336.98 381.87L333.87 384.98M333.87 384.98L332.32 388.08M332.32 388.08L330.76 392.74M330.76 392.74L330.76 400.51M330.76 400.51L332.32 405.18M332.32 405.18L333.87 408.28M333.87 408.28L336.98 411.39M336.98 411.39L340.09 412.94M366.5 412.94L366.5 380.31M368.06 380.31L368.06 412.94M388.25 380.31L368.06 400.51M375.82 394.3L388.25 412.94M374.27 394.3L386.7 412.94M361.84 380.31L372.72 380.31M382.04 380.31L391.36 380.31M361.84 412.94L372.72 412.94M382.04 412.94L391.36 412.94"/>
<path d="M165.37 235.6L161.64 236.84M161.64 236.84L160.4 239.33M160.4 239.33L160.4 241.81M160.4 241.81L161.64 244.3M161.64 244.3L164.13 245.54M164.13 245.54L169.1 246.79M169.1 246.79L172.83 248.03M172.83 248.03L175.32 250.51M175.32 250.51L176.56 253M176.56 253L176.56 256.73M176.56 256.73L175.32 259.22M175.32 259.22L174.07 260.46M174.07 260.46L170.35 261.7M170.35 261.7L165.37 261.7M165.37 261.7L161.64 260.46M161.64 260.46L160.4 259.22M160.4 259.22L159.16 256.73M159.16 256.73L159.16 253M159.16 253L160.4 250.51M160.4 250.51L162.89 248.03M162.89 248.03L166.62 246.79M166.62 246.79L171.59 245.54M171.59 245.54L174.07 244.3M174.07 244.3L175.32 241.81M175.32 241.81L175.32 239.33M175.32 239.33L174.07 236.84M174.07 236.84L170.35 235.6M170.35 235.6L165.37 235.6"/>
<path d="M449 207.17L451.49 205.93M451.49 205.93L455.22 202.2M455.22 202.2L455.22 228.3"/>
<path d="M259.38 347.68L366.41 347.68"/>
<path d="M259.38 341.16L366.41 341.16"/>
<path d="M366.41 339.41L259.38 339.41"/>
<path d="M366.41 333.33L259.38 333.33"/>
<path d="M186.29 128.28L186.29 274.59"/>
<path d="M192.82 128.28L192.82 274.59"/>
<path d="M259.38 322.89L366.41 322.89"/>
<path d="M259.38 321.15L366.41 321.15"/>
<path d="M258.4 313.95L367.39 313.95"/>
<path d="M194.56 274.59L194.56 128.28"/>
<path d="M200.65 274.59L200.65 128.28"/>
<path d="M204.56 118.28L204.56 124.37"/>
<path d="M204.56 116.54L204.56 110.01"/>
<path d="M205.87 116.54L205.87 110.01"/>
<path d="M258.08 304.29L289.4 304.29"/>
<path d="M336.39 304.29L367.71 304.29"/>
<path d="M289.4 300.89L299.84 300.89"/>
<path d="M325.95 300.89L336.39 300.89"/>
<path d="M299.84 300.63L325.95 300.63"/>
<path d="M209.79 97.48L209.79 106.09"/>
<path d="M211.09 188.19L211.09 274.59"/>
<path d="M212.83 188.19L212.83 274.59"/>
<path d="M216.31 97.48L216.31 106.09"/>
<path d="M216.31 118.28L216.31 124.37"/>
<path d="M219.9 187.34L219.9 275.44"/>
<path d="M220.23 128.28L220.23 141.59"/>
<path d="M320.73 295.41L305.06 295.41"/>
<path d="M224.14 56.63L224.14 80.71"/>
<path d="M224.14 118.36L224.14 98.13"/>
<path d="M226.31 128.28L226.31 132.44"/>
<path d="M230.67 63.15L230.67 80.71"/>
<path d="M230.67 118.36L230.67 98.13"/>
<path d="M232.95 187.34L232.95 275.44"/>
<path d="M367.71 280.4L336.39 280.4"/>
<path d="M289.4 280.4L258.08 280.4"/>
<path d="M232.95 275.44L219.9 275.44"/>
<path d="M392.84 275.44L405.89 275.44"/>
<path d="M431.23 274.59L425.14 274.59"/>
<path d="M219.9 274.59L211.09 274.59"/>
<path d="M192.82 274.59L186.29 274.59"/>
<path d="M194.56 274.59L200.65 274.59"/>
<path d="M405.89 274.59L414.7 274.59"/>
<path d="M432.97 274.59L439.5 274.59"/>
<path d="M237.19 98.13L237.19 84.43"/>
<path d="M237.19 56.63L237.19 43.58"/>
<path d="M243.72 131.58L243.72 118.36"/>
<path d="M243.72 84.43L243.72 64.46"/>
<path d="M247.11 261.67L247.11 234.26"/>
<path d="M247.11 228.52L247.11 201.11"/>
<path d="M378.68 261.67L346.57 261.67"/>
<path d="M345.53 261.67L313.42 261.67"/>
<path d="M312.37 261.67L280.27 261.67"/>
<path d="M279.22 261.67L247.11 261.67"/>
<path d="M254.62 241.77L247.11 234.26"/>
<path d="M271.72 254.17L279.22 261.67"/>
<path d="M221.83 91.03L220.83 84.58"/>
<path d="M254.62 254.17L254.62 241.77"/>
<path d="M254.62 221.02L254.62 208.62"/>
<path d="M256.77 124.37L256.77 118.36"/>
<path d="M256.77 111.84L256.77 64.46"/>
<path d="M256.77 50.1L256.77 37.05"/>
<path d="M258.08 158.5L258.08 182.38"/>
<path d="M258.08 280.4L258.08 304.29"/>
<path d="M258.4 148.84L258.4 158.5"/>
<path d="M258.4 313.95L258.4 304.29"/>
<path d="M259.38 313.95L259.38 322.89"/>
<path d="M259.38 341.16L259.38 347.68"/>
<path d="M259.38 339.41L259.38 333.33"/>
<path d="M259.38 148.84L259.38 139.9"/>
<path d="M371.17 254.17L354.07 254.17"/>
<path d="M338.02 254.17L320.92 254.17"/>
<path d="M304.87 254.17L287.77 254.17"/>
<path d="M271.72 254.17L254.62 254.17"/>
<path d="M287.77 241.77L280.27 234.26"/>
<path d="M254.62 208.62L247.11 201.11"/>
<path d="M267.21 129.46L267.21 124.37"/>
<path d="M268.52 85.57L268.52 64.46"/>
<path d="M270.48 119.67L270.48 115.75"/>
<path d="M271.72 208.62L271.72 221.02"/>
<path d="M271.72 241.77L271.72 254.17"/>
<path d="M254.62 241.77L271.72 241.77"/>
<path d="M287.77 241.77L304.87 241.77"/>
<path d="M320.92 241.77L338.02 241.77"/>
<path d="M354.07 241.77L371.17 241.77"/>
<path d="M247.11 234.26L279.22 234.26"/>
<path d="M280.27 234.26L312.37 234.26"/>
<path d="M313.42 234.26L345.53 234.26"/>
<path d="M346.57 234.26L378.68 234.26"/>
<path d="M271.72 221.02L279.22 228.52"/>
<path d="M304.87 254.17L312.37 261.67"/>
<path d="M279.22 201.11L279.22 228.52"/>
<path d="M279.22 234.26L279.22 261.67"/>
<path d="M280.27 261.67L280.27 234.26"/>
<path d="M280.27 228.52L280.27 201.11"/>
<path d="M281.57 85.57L281.57 64.46"/>
<path d="M287.77 254.17L287.77 241.77"/>
<path d="M287.77 221.02L287.77 208.62"/>
<path d="M378.68 228.52L346.57 228.52"/>
<path d="M345.53 228.52L313.42 228.52"/>
<path d="M312.37 228.52L280.27 228.52"/>
<path d="M279.22 228.52L247.11 228.52"/>
<path d="M371.17 221.02L354.07 221.02"/>
<path d="M338.02 221.02L320.92 221.02"/>
<path d="M304.87 221.02L287.77 221.02"/>
<path d="M271.72 221.02L254.62 221.02"/>
<path d="M320.92 241.77L313.42 234.26"/>
<path d="M287.77 208.62L280.27 201.11"/>
<path d="M304.87 221.02L312.37 228.52"/>
<path d="M338.02 254.17L345.53 261.67"/>
<path d="M289.4 304.29L289.4 280.4"/>
<path d="M289.4 182.38L289.4 158.5"/>
<path d="M293.32 101.56L293.32 64.46"/>
<path d="M299.84 148.84L299.84 162.15"/>
<path d="M299.84 313.95L299.84 300.63"/>
<path d="M254.62 221.02L247.11 228.52"/>
<path d="M271.72 208.62L279.22 201.11"/>
<path d="M254.62 208.62L271.72 208.62"/>
<path d="M287.77 208.62L304.87 208.62"/>
<path d="M320.92 208.62L338.02 208.62"/>
<path d="M354.07 208.62L371.17 208.62"/>
<path d="M304.87 208.62L304.87 221.02"/>
<path d="M304.87 241.77L304.87 254.17"/>
<path d="M305.06 313.95L305.06 295.41"/>
<path d="M305.06 167.37L305.06 148.84"/>
<path d="M312.37 201.11L312.37 228.52"/>
<path d="M312.37 234.26L312.37 261.67"/>
<path d="M313.42 261.67L313.42 234.26"/>
<path d="M313.42 228.52L313.42 201.11"/>
<path d="M247.11 201.11L279.22 201.11"/>
<path d="M280.27 201.11L312.37 201.11"/>
<path d="M313.42 201.11L345.53 201.11"/>
<path d="M346.57 201.11L378.68 201.11"/>
<path d="M354.07 241.77L346.57 234.26"/>
<path d="M320.92 208.62L313.42 201.11"/>
<path d="M338.02 221.02L345.53 228.52"/>
<path d="M371.17 254.17L378.68 261.67"/>
<path d="M320.73 148.84L320.73 167.37"/>
<path d="M320.73 313.95L320.73 295.41"/>
<path d="M320.92 254.17L320.92 241.77"/>
<path d="M320.92 221.02L320.92 208.62"/>
<path d="M325.95 313.95L325.95 300.63"/>
<path d="M325.95 162.15L325.95 148.84"/>
<path d="M287.77 221.02L280.27 228.52"/>
<path d="M254.62 254.17L247.11 261.67"/>
<path d="M271.72 241.77L279.22 234.26"/>
<path d="M304.87 208.62L312.37 201.11"/>
<path d="M431.23 188.19L425.14 188.19"/>
<path d="M219.9 188.19L211.09 188.19"/>
<path d="M405.89 188.19L414.7 188.19"/>
<path d="M432.97 188.19L439.5 188.19"/>
<path d="M232.95 187.34L219.9 187.34"/>
<path d="M392.84 187.34L405.89 187.34"/>
<path d="M258.08 182.38L289.4 182.38"/>
<path d="M336.39 182.38L367.71 182.38"/>
<path d="M332.47 101.56L332.47 64.46"/>
<path d="M336.39 158.5L336.39 182.38"/>
<path d="M336.39 280.4L336.39 304.29"/>
<path d="M338.02 208.62L338.02 221.02"/>
<path d="M338.02 241.77L338.02 254.17"/>
<path d="M320.92 221.02L313.42 228.52"/>
<path d="M287.77 254.17L280.27 261.67"/>
<path d="M305.06 167.37L320.73 167.37"/>
<path d="M354.07 208.62L346.57 201.11"/>
<path d="M371.17 221.02L378.68 228.52"/>
<path d="M344.22 85.57L344.22 64.46"/>
<path d="M345.53 201.11L345.53 228.52"/>
<path d="M345.53 234.26L345.53 261.67"/>
<path d="M346.57 261.67L346.57 234.26"/>
<path d="M346.57 228.52L346.57 201.11"/>
<path d="M354.07 254.17L354.07 241.77"/>
<path d="M354.07 221.02L354.07 208.62"/>
<path d="M304.87 241.77L312.37 234.26"/>
<path d="M338.02 208.62L345.53 201.11"/>
<path d="M414.82 142.5L419.56 138.03"/>
<path d="M299.84 162.15L325.95 162.15"/>
<path d="M336.39 161.89L325.95 161.89"/>
<path d="M299.84 161.89L289.4 161.89"/>
<path d="M367.71 158.5L336.39 158.5"/>
<path d="M289.4 158.5L258.08 158.5"/>
<path d="M355.31 119.67L355.31 115.75"/>
<path d="M357.27 85.57L357.27 64.46"/>
<path d="M358.58 124.37L358.58 129.46"/>
<path d="M366.41 313.95L366.41 322.89"/>
<path d="M366.41 341.16L366.41 347.68"/>
<path d="M366.41 339.41L366.41 333.33"/>
<path d="M366.41 148.84L366.41 139.9"/>
<path d="M367.39 148.84L367.39 158.5"/>
<path d="M367.39 313.95L367.39 304.29"/>
<path d="M367.71 304.29L367.71 280.4"/>
<path d="M367.71 182.38L367.71 158.5"/>
<path d="M354.07 221.02L346.57 228.52"/>
<path d="M320.92 254.17L313.42 261.67"/>
<path d="M338.02 241.77L345.53 234.26"/>
<path d="M371.17 208.62L378.68 201.11"/>
<path d="M258.4 148.84L367.39 148.84"/>
<path d="M366.41 141.64L259.38 141.64"/>
<path d="M366.41 139.9L259.38 139.9"/>
<path d="M369.02 118.36L369.02 124.37"/>
<path d="M369.02 111.84L369.02 64.46"/>
<path d="M369.02 50.1L369.02 37.05"/>
<path d="M371.17 208.62L371.17 221.02"/>
<path d="M371.17 241.77L371.17 254.17"/>
<path d="M378.68 201.11L378.68 228.52"/>
<path d="M378.68 234.26L378.68 261.67"/>
<path d="M259.38 129.46L267.21 129.46"/>
<path d="M358.58 129.46L366.41 129.46"/>
<path d="M409.48 129.07L416.01 129.07"/>
<path d="M226.31 128.28L220.23 128.28"/>
<path d="M192.82 128.28L186.29 128.28"/>
<path d="M194.56 128.28L200.65 128.28"/>
<path d="M369.02 124.37L256.77 124.37"/>
<path d="M204.56 124.37L216.31 124.37"/>
<path d="M382.07 64.46L382.07 84.43"/>
<path d="M382.07 131.58L382.07 118.36"/>
<path d="M388.6 84.43L388.6 98.13"/>
<path d="M388.6 56.63L388.6 43.58"/>
<path d="M392.84 275.44L392.84 187.34"/>
<path d="M403.96 91.03L404.96 84.58"/>
<path d="M354.07 254.17L346.57 261.67"/>
<path d="M371.17 241.77L378.68 234.26"/>
<path d="M355.31 119.67L270.48 119.67"/>
<path d="M401.65 118.36L369.02 118.36"/>
<path d="M256.77 118.36L224.14 118.36"/>
<path d="M204.56 118.28L216.31 118.28"/>
<path d="M205.87 116.54L204.56 116.54"/>
<path d="M270.48 116.12L355.31 116.12"/>
<path d="M369.02 111.84L359.23 111.84"/>
<path d="M256.77 111.84L266.56 111.84"/>
<path d="M395.12 118.36L395.12 98.13"/>
<path d="M395.12 80.71L395.12 63.15"/>
<path d="M401.65 98.13L401.65 118.36"/>
<path d="M401.65 80.71L401.65 56.63"/>
<path d="M405.89 275.44L405.89 187.34"/>
<path d="M205.87 110.01L204.56 110.01"/>
<path d="M256.77 107.42L369.02 107.42"/>
<path d="M216.31 106.09L209.79 106.09"/>
<path d="M256.77 101.62L369.02 101.62"/>
<path d="M332.47 101.56L293.32 101.56"/>
<path d="M224.14 98.13L237.19 98.13"/>
<path d="M388.6 98.13L401.65 98.13"/>
<path d="M256.77 98.11L293.32 98.11"/>
<path d="M332.47 98.11L369.02 98.11"/>
<path d="M216.31 97.48L209.79 97.48"/>
<path d="M409.48 97.48L416.01 97.48"/>
<path d="M409.48 129.07L409.48 97.48"/>
<path d="M412.96 274.59L412.96 188.19"/>
<path d="M414.7 274.59L414.7 188.19"/>
<path d="M416.01 129.07L416.01 97.48"/>
<path d="M256.77 96.69L293.32 96.69"/>
<path d="M332.47 96.69L369.02 96.69"/>
<path d="M256.77 88.71L293.32 88.71"/>
<path d="M332.47 88.71L369.02 88.71"/>
<path d="M268.52 85.57L281.57 85.57"/>
<path d="M344.22 85.57L357.27 85.57"/>
<path d="M237.19 84.43L243.72 84.43"/>
<path d="M382.07 84.43L388.6 84.43"/>
<path d="M425.14 188.19L425.14 274.59"/>
<path d="M431.23 188.19L431.23 274.59"/>
<path d="M432.97 274.59L432.97 188.19"/>
<path d="M369.02 82.49L357.27 82.49"/>
<path d="M293.32 82.49L281.57 82.49"/>
<path d="M256.77 82.49L268.52 82.49"/>
<path d="M332.47 82.49L344.22 82.49"/>
<path d="M230.67 80.71L224.14 80.71"/>
<path d="M395.12 80.71L401.65 80.71"/>
<path d="M369.02 79.21L357.27 79.21"/>
<path d="M293.32 79.21L281.57 79.21"/>
<path d="M256.77 79.21L268.52 79.21"/>
<path d="M332.47 79.21L344.22 79.21"/>
<path d="M268.52 72.29L281.57 72.29"/>
<path d="M344.22 72.29L357.27 72.29"/>
<path d="M439.5 274.59L439.5 188.19"/>
<path d="M268.52 67.07L281.57 67.07"/>
<path d="M344.22 67.07L357.27 67.07"/>
<path d="M243.72 64.46L382.07 64.46"/>
<path d="M230.67 63.15L224.14 63.15"/>
<path d="M395.12 63.15L401.65 63.15"/>
<path d="M388.6 56.63L323.34 56.63"/>
<path d="M302.45 56.63L237.19 56.63"/>
<path d="M388.6 50.1L326.21 50.1"/>
<path d="M299.58 50.1L237.19 50.1"/>
<path d="M256.77 46.19L305.87 46.19"/>
<path d="M319.92 46.19L369.02 46.19"/>
<path d="M256.77 37.05L369.02 37.05"/>
<path d="M366.41 322.89L378.91 321.24M378.91 321.24L390.55 316.42M390.55 316.42L400.56 308.74M400.56 308.74L408.23 298.74M408.23 298.74L413.05 287.09M413.05 287.09L414.7 274.59"/>
<path d="M416.01 129.07L416.93 133.89M416.93 133.89L419.56 138.03"/>
<path d="M211.09 274.59L212.74 287.09M212.74 287.09L217.56 298.74M217.56 298.74L225.23 308.74M225.23 308.74L235.24 316.42M235.24 316.42L246.88 321.24M246.88 321.24L259.38 322.89"/>
<path d="M401.65 80.71L402.59 83.26M402.59 83.26L404.96 84.58"/>
<path d="M259.38 139.9L246.88 141.54M246.88 141.54L235.24 146.37M235.24 146.37L225.23 154.04M225.23 154.04L217.56 164.04M217.56 164.04L212.74 175.69M212.74 175.69L211.09 188.19"/>
<path d="M414.7 188.19L413.05 175.69M413.05 175.69L408.23 164.04M408.23 164.04L400.56 154.04M400.56 154.04L390.55 146.37M390.55 146.37L378.91 141.54M378.91 141.54L366.41 139.9"/>
<path d="M439.5 188.19L438.2 174.45M438.2 174.45L434.33 161.2M434.33 161.2L428.05 148.91M428.05 148.91L419.56 138.03"/>
<path d="M237.19 50.1L230.67 51.85M230.67 51.85L225.89 56.63M225.89 56.63L224.14 63.15"/>
<path d="M416.01 97.48L414.58 91.54M414.58 91.54L410.61 86.91M410.61 86.91L404.96 84.58"/>
<path d="M401.65 63.15L399.9 56.63M399.9 56.63L395.12 51.85M395.12 51.85L388.6 50.1"/>
<path d="M220.83 84.58L223.2 83.26M223.2 83.26L224.14 80.71"/>
<path d="M220.83 84.58L215.18 86.91M215.18 86.91L211.21 91.54M211.21 91.54L209.79 97.48"/>
<path d="M205.87 110.01L208.64 108.86M208.64 108.86L209.79 106.09"/>
<path d="M204.56 110.01L197.57 111.4M197.57 111.4L191.64 115.36M191.64 115.36L187.68 121.29M187.68 121.29L186.29 128.28"/>
<path d="M186.29 274.59L188.12 290.86M188.12 290.86L193.53 306.31M193.53 306.31L202.24 320.17M202.24 320.17L213.81 331.74M213.81 331.74L227.67 340.45M227.67 340.45L243.12 345.85M243.12 345.85L259.38 347.68"/>
<path d="M366.41 347.68L382.67 345.85M382.67 345.85L398.12 340.45M398.12 340.45L411.98 331.74M411.98 331.74L423.55 320.17M423.55 320.17L432.26 306.31M432.26 306.31L437.67 290.86M437.67 290.86L439.5 274.59"/>
<path d="M366.41 333.33L379.48 331.86M379.48 331.86L391.89 327.51M391.89 327.51L403.03 320.51M403.03 320.51L412.33 311.21M412.33 311.21L419.33 300.08M419.33 300.08L423.67 287.66M423.67 287.66L425.14 274.59"/>
<path d="M200.65 274.59L202.12 287.66M202.12 287.66L206.47 300.08M206.47 300.08L213.46 311.21M213.46 311.21L222.76 320.51M222.76 320.51L233.9 327.51M233.9 327.51L246.31 331.86M246.31 331.86L259.38 333.33"/>
<path d="M204.56 124.37L201.8 125.51M201.8 125.51L200.65 128.28"/>
<path d="M220.23 128.28L219.08 125.51M219.08 125.51L216.31 124.37"/>
<path d="M220.23 141.59L220.58 142.48M220.58 142.48L221.44 142.89M221.44 142.89L222.35 142.6"/>
<path d="M401.65 56.63L399.9 50.1M399.9 50.1L395.12 45.32M395.12 45.32L388.6 43.58"/>
<path d="M388.6 43.58L383.98 45.49M383.98 45.49L382.07 50.1"/>
<path d="M243.72 50.1L241.81 45.49M241.81 45.49L237.19 43.58"/>
<path d="M237.19 43.58L230.67 45.32M230.67 45.32L225.89 50.1M225.89 50.1L224.14 56.63"/>
<path d="M359.23 111.84L356.46 112.98M356.46 112.98L355.31 115.75"/>
<path d="M270.48 115.75L269.33 112.98M269.33 112.98L266.56 111.84"/>
<path d="M326.21 50.1L320.04 46.23M320.04 46.23L312.9 44.88M312.9 44.88L305.75 46.23M305.75 46.23L299.58 50.1"/>
<path d="M357.67 50.1L350.72 46.64M350.72 46.64L342.94 46.64M342.94 46.64L335.99 50.1"/>
<path d="M289.8 50.1L282.85 46.64M282.85 46.64L275.07 46.64M275.07 46.64L268.12 50.1"/>
<path d="M367.39 313.95L379.29 312.06M379.29 312.06L390.02 306.59M390.02 306.59L398.54 298.07M398.54 298.07L404.01 287.34M404.01 287.34L405.89 275.44"/>
<path d="M219.9 275.44L221.79 287.34M221.79 287.34L227.25 298.07M227.25 298.07L235.77 306.59M235.77 306.59L246.51 312.06M246.51 312.06L258.4 313.95"/>
<path d="M258.4 148.84L246.51 150.72M246.51 150.72L235.77 156.19M235.77 156.19L227.25 164.71M227.25 164.71L221.79 175.44M221.79 175.44L219.9 187.34"/>
<path d="M405.89 187.34L404.01 175.44M404.01 175.44L398.54 164.71M398.54 164.71L390.02 156.19M390.02 156.19L379.29 150.72M379.29 150.72L367.39 148.84"/>
<path d="M259.38 129.46L246.14 130.97M246.14 130.97L233.59 135.43M233.59 135.43L222.35 142.6"/>
<path d="M425.14 188.19L423.67 175.12M423.67 175.12L419.33 162.71M419.33 162.71L412.33 151.57M412.33 151.57L403.03 142.27M403.03 142.27L391.89 135.27M391.89 135.27L379.48 130.93M379.48 130.93L366.41 129.46"/>
<path d="M305.06 295.41L301.37 296.94M301.37 296.94L299.84 300.63"/>
<path d="M325.95 300.63L324.42 296.94M324.42 296.94L320.73 295.41"/>
<path d="M320.73 167.37L324.42 165.84M324.42 165.84L325.95 162.15"/>
<path d="M299.84 162.15L301.37 165.84M301.37 165.84L305.06 167.37"/>
<path d="M366.41 341.16L381.22 339.49M381.22 339.49L395.29 334.57M395.29 334.57L407.91 326.64M407.91 326.64L418.45 316.1M418.45 316.1L426.38 303.48M426.38 303.48L431.3 289.41M431.3 289.41L432.97 274.59"/>
<path d="M192.82 274.59L194.49 289.41M194.49 289.41L199.41 303.48M199.41 303.48L207.34 316.1M207.34 316.1L217.88 326.64M217.88 326.64L230.5 334.57M230.5 334.57L244.57 339.49M244.57 339.49L259.38 341.16"/>
<path d="M204.56 116.54L198.69 118.11M198.69 118.11L194.39 122.41M194.39 122.41L192.82 128.28"/>
<path d="M205.87 116.54L211.09 115.14M211.09 115.14L214.91 111.32M214.91 111.32L216.31 106.09"/>
<path d="M221.83 91.03L217.88 93.24M217.88 93.24L216.31 97.48"/>
<path d="M221.83 91.03L226.35 89.17M226.35 89.17L229.53 85.46M229.53 85.46L230.67 80.71"/>
<path d="M237.19 56.63L232.58 58.54M232.58 58.54L230.67 63.15"/>
<path d="M323.34 56.63L318.73 52.78M318.73 52.78L312.9 51.41M312.9 51.41L307.06 52.78M307.06 52.78L302.45 56.63"/>
<path d="M204.56 118.28L199.56 119.62M199.56 119.62L195.9 123.28M195.9 123.28L194.56 128.28"/>
<path d="M194.56 274.59L196.19 289.02M196.19 289.02L200.98 302.72M200.98 302.72L208.7 315.01M208.7 315.01L218.97 325.27M218.97 325.27L231.26 332.99M231.26 332.99L244.96 337.79M244.96 337.79L259.38 339.41"/>
<path d="M366.41 339.41L380.83 337.79M380.83 337.79L394.53 332.99M394.53 332.99L406.82 325.27M406.82 325.27L417.09 315.01M417.09 315.01L424.81 302.72M424.81 302.72L429.6 289.02M429.6 289.02L431.23 274.59"/>
<path d="M431.23 188.19L429.65 173.97M429.65 173.97L424.99 160.45M424.99 160.45L417.48 148.28M417.48 148.28L407.48 138.05M407.48 138.05L395.48 130.26M395.48 130.26L382.07 125.29"/>
<path d="M243.72 125.29L234.76 128.23M234.76 128.23L226.31 132.44"/>
<path d="M226.31 128.28L224.97 123.28M224.97 123.28L221.31 119.62M221.31 119.62L216.31 118.28"/>
<path d="M367.71 300.89L377.35 298.86M377.35 298.86L385.5 293.32M385.5 293.32L390.93 285.11M390.93 285.11L392.84 275.44"/>
<path d="M392.84 187.34L390.93 177.68M390.93 177.68L385.5 169.46M385.5 169.46L377.35 163.92M377.35 163.92L367.71 161.89"/>
<path d="M258.08 161.89L248.44 163.92M248.44 163.92L240.29 169.46M240.29 169.46L234.86 177.68M234.86 177.68L232.95 187.34"/>
<path d="M232.95 275.44L234.86 285.11M234.86 285.11L240.29 293.32M240.29 293.32L248.44 298.86M248.44 298.86L258.08 300.89"/>
<path d="M395.12 63.15L393.21 58.54M393.21 58.54L388.6 56.63"/>
<path d="M395.12 80.71L396.26 85.46M396.26 85.46L399.44 89.17M399.44 89.17L403.96 91.03"/>
<path d="M366.41 321.15L378.46 319.56M378.46 319.56L389.69 314.91M389.69 314.91L399.33 307.51M399.33 307.51L406.73 297.87M406.73 297.87L411.38 286.64M411.38 286.64L412.96 274.59"/>
<path d="M409.48 97.48L407.91 93.24M407.91 93.24L403.96 91.03"/>
<path d="M409.48 129.07L410.86 136.3M410.86 136.3L414.82 142.5"/>
<path d="M412.96 188.19L411.38 176.14M411.38 176.14L406.73 164.91M406.73 164.91L399.33 155.27M399.33 155.27L389.69 147.87M389.69 147.87L378.46 143.22M378.46 143.22L366.41 141.64"/>
<path d="M212.83 274.59L214.41 286.64M214.41 286.64L219.07 297.87M219.07 297.87L226.46 307.51M226.46 307.51L236.11 314.91M236.11 314.91L247.33 319.56M247.33 319.56L259.38 321.15"/>
<path d="M432.97 188.19L431.79 175.68M431.79 175.68L428.27 163.61M428.27 163.61L422.54 152.42M422.54 152.42L414.82 142.5"/>
<path d="M259.38 141.64L247.33 143.22M247.33 143.22L236.11 147.87M236.11 147.87L226.46 155.27M226.46 155.27L219.07 164.91M219.07 164.91L214.41 176.14M214.41 176.14L212.83 188.19"/>
<path d="M401.65 62.98L401.64 62.66M401.64 62.66L401.63 62.34M401.63 62.34L401.61 62.02M401.61 62.02L401.58 61.71M401.58 61.71L401.55 61.39M401.55 61.39L401.51 61.07M401.51 61.07L401.45 60.76M401.45 60.76L401.39 60.45M401.39 60.45L401.33 60.14M401.33 60.14L401.25 59.83M401.25 59.83L401.17 59.52M401.17 59.52L401.08 59.22M401.08 59.22L400.98 58.91M400.98 58.91L400.88 58.61M400.88 58.61L400.76 58.31M400.76 58.31L400.64 58.02M400.64 58.02L400.51 57.73M400.51 57.73L400.38 57.44M400.38 57.44L400.24 57.16M400.24 57.16L400.09 56.87M400.09 56.87L399.93 56.6M399.93 56.6L399.77 56.32M399.77 56.32L399.6 56.05M399.6 56.05L399.43 55.79M399.43 55.79L399.24 55.53M399.24 55.53L399.05 55.27M399.05 55.27L398.86 55.02M398.86 55.02L398.66 54.78M398.66 54.78L398.45 54.53M398.45 54.53L398.24 54.3M398.24 54.3L398.02 54.07M398.02 54.07L397.79 53.84M397.79 53.84L397.56 53.62M397.56 53.62L397.33 53.41M397.33 53.41L397.09 53.2M397.09 53.2L396.84 53M396.84 53L396.59 52.8M396.59 52.8L396.34 52.61M396.34 52.61L396.08 52.43M396.08 52.43L395.81 52.25M395.81 52.25L395.54 52.08M395.54 52.08L395.27 51.91M395.27 51.91L395 51.76M395 51.76L394.72 51.6M394.72 51.6L394.43 51.46M394.43 51.46L394.15 51.32M394.15 51.32L393.86 51.19M393.86 51.19L393.56 51.07M393.56 51.07L393.27 50.95M393.27 50.95L392.97 50.84M392.97 50.84L392.67 50.74M392.67 50.74L392.36 50.65M392.36 50.65L392.06 50.56M392.06 50.56L391.75 50.48M391.75 50.48L391.44 50.41M391.44 50.41L391.13 50.35M391.13 50.35L390.81 50.29M390.81 50.29L390.5 50.24M390.5 50.24L390.18 50.2M390.18 50.2L389.87 50.16M389.87 50.16L389.55 50.14M389.55 50.14L389.23 50.12M389.23 50.12L388.91 50.11M388.91 50.11L388.6 50.1"/>
<path d="M236.66 50.11L236.37 50.13"/>
<path d="M236.37 50.13L235.89 50.17"/>
<path d="M235.89 50.17L235.58 50.2M235.58 50.2L235.27 50.24"/>
<path d="M235.27 50.24L234.88 50.31"/>
<path d="M234.88 50.31L234.51 50.38M234.51 50.38L234.14 50.46"/>
<path d="M234.14 50.46L233.89 50.52"/>
<path d="M233.89 50.52L233.44 50.65M233.44 50.65L232.98 50.79"/>
<path d="M232.98 50.79L232.94 50.81"/>
<path d="M232.94 50.81L232.47 50.98M232.47 50.98L232 51.16M232 51.16L231.55 51.37M231.55 51.37L231.1 51.59M231.1 51.59L230.66 51.83M230.66 51.83L230.23 52.09M230.23 52.09L229.81 52.36M229.81 52.36L229.4 52.65M229.4 52.65L229 52.96M229 52.96L228.61 53.27M228.61 53.27L228.24 53.61M228.24 53.61L227.88 53.96M227.88 53.96L227.53 54.32M227.53 54.32L227.2 54.69M227.2 54.69L226.88 55.08M226.88 55.08L226.58 55.48M226.58 55.48L226.3 55.89M226.3 55.89L226.03 56.31M226.03 56.31L225.77 56.74M225.77 56.74L225.54 57.19M225.54 57.19L225.32 57.64M225.32 57.64L225.12 58.1M225.12 58.1L224.93 58.56M224.93 58.56L224.77 59.03M224.77 59.03L224.62 59.51M224.62 59.51L224.5 60M224.5 60L224.39 60.49M224.39 60.49L224.3 60.98M224.3 60.98L224.23 61.48M224.23 61.48L224.18 61.98M224.18 61.98L224.15 62.48M224.15 62.48L224.14 62.98"/>
<path d="M326.21 50.1L325.88 50.93M325.88 50.93L325.54 51.76M325.54 51.76L325.2 52.58M325.2 52.58L324.84 53.4M324.84 53.4L324.48 54.21M324.48 54.21L324.11 55.02M324.11 55.02L323.73 55.83M323.73 55.83L323.34 56.63"/>
<path d="M220.98 142.77L221.6 141.45M221.6 141.45L222.23 140.14M222.23 140.14L222.88 138.84M222.88 138.84L223.54 137.55M223.54 137.55L224.21 136.26M224.21 136.26L224.9 134.98M224.9 134.98L225.6 133.71M225.6 133.71L226.31 132.44"/>
<path d="M299.58 50.1L299.91 50.93M299.91 50.93L300.25 51.76M300.25 51.76L300.59 52.58M300.59 52.58L300.95 53.4M300.95 53.4L301.31 54.21M301.31 54.21L301.68 55.02M301.68 55.02L302.06 55.83M302.06 55.83L302.45 56.63"/>
<path d="M171.36 202.59L158.93 219.99M158.93 219.99L177.57 219.99M171.36 202.59L171.36 228.69"/>
<path d="M464.31 235.6L451.88 235.6M451.88 235.6L450.63 246.79M450.63 246.79L451.88 245.54M451.88 245.54L455.6 244.3M455.6 244.3L459.33 244.3M459.33 244.3L463.06 245.54M463.06 245.54L465.55 248.03M465.55 248.03L466.79 251.76M466.79 251.76L466.79 254.24M466.79 254.24L465.55 257.97M465.55 257.97L463.06 260.46M463.06 260.46L459.33 261.7M459.33 261.7L455.6 261.7M455.6 261.7L451.88 260.46M451.88 260.46L450.63 259.22M450.63 259.22L449.39 256.73"/>
</g>
</g>
</svg>
