<?xml version="1.0" standalone="no"?><svg xmlns="http://www.w3.org/2000/svg" width="600.000" height="450.000" viewBox="0.0 0.0 600.000 450.000" version="1.1">
<title>Acme Converter - Post-processed with EDS-Designer: 14.44 (info@symca.com)</title>
<desc>Acme Converter - Post-processed with EDS-Designer: 14.44 (info@symca.com)</desc>
<g id="EDS_STYLE_GROUP" fill="none" stroke="black" stroke-width="1.0">
<g id="0" display="visible">
<path d="M125.47 191.36L137.95 191.36"/>
<path d="M137.95 191.36L137.95 203.84"/>
<path d="M137.95 203.84L150.43 203.84"/>
<path d="M150.43 203.84L150.43 191.36"/>
<path d="M150.43 191.36L169.16 191.36"/>
<path d="M169.16 191.36L169.16 203.84"/>
<path d="M169.16 203.84L181.64 203.84"/>
<path d="M181.64 203.84L181.64 191.36"/>
<path d="M181.64 191.36L200.36 191.36"/>
<path d="M200.36 191.36L200.36 203.84"/>
<path d="M200.36 203.84L212.84 203.84"/>
<path d="M212.84 203.84L212.84 191.36"/>
<path d="M212.84 191.36L231.57 191.36"/>
<path d="M231.57 191.36L231.57 203.84"/>
<path d="M231.57 203.84L244.05 203.84"/>
<path d="M244.05 203.84L244.05 191.36"/>
<path d="M244.05 191.36L262.77 191.36"/>
<path d="M262.77 191.36L262.77 203.84"/>
<path d="M262.77 203.84L275.25 203.84"/>
<path d="M275.25 203.84L275.25 191.36"/>
<path d="M275.25 191.36L293.98 191.36"/>
<path d="M293.98 191.36L293.98 203.84"/>
<path d="M293.98 203.84L306.46 203.84"/>
<path d="M306.46 203.84L306.46 191.36"/>
<path d="M306.46 191.36L325.18 191.36"/>
<path d="M325.18 191.36L325.18 203.84"/>
<path d="M325.18 203.84L337.66 203.84"/>
<path d="M337.66 203.84L337.66 191.36"/>
<path d="M337.66 191.36L356.39 191.36"/>
<path d="M356.39 191.36L356.39 203.84"/>
<path d="M356.39 203.84L368.87 203.84"/>
<path d="M368.87 203.84L368.87 191.36"/>
<path d="M368.87 191.36L387.59 191.36"/>
<path d="M387.59 191.36L387.59 203.84"/>
<path d="M387.59 203.84L400.07 203.84"/>
<path d="M400.07 203.84L400.07 191.36"/>
<path d="M400.07 191.36L418.8 191.36"/>
<path d="M418.8 191.36L418.8 203.84"/>
<path d="M418.8 203.84L431.28 203.84"/>
<path d="M431.28 203.84L431.28 191.36"/>
<path d="M431.28 191.36L450 191.36"/>
<path d="M450 191.36L450 203.84"/>
<path d="M450 203.84L462.48 203.84"/>
<path d="M462.48 203.84L462.48 191.36"/>
<path d="M462.48 191.36L474.97 191.36"/>
<path d="M474.97 191.36L474.97 241.29"/>
<path d="M474.97 241.29L462.48 241.29"/>
<path d="M462.48 241.29L462.48 228.81"/>
<path d="M462.48 228.81L450 228.81"/>
<path d="M450 228.81L450 241.29"/>
<path d="M450 241.29L431.28 241.29"/>
<path d="M431.28 241.29L431.28 228.81"/>
<path d="M431.28 228.81L418.8 228.81"/>
<path d="M418.8 228.81L418.8 241.29"/>
<path d="M418.8 241.29L400.07 241.29"/>
<path d="M400.07 241.29L400.07 228.81"/>
<path d="M400.07 228.81L387.59 228.81"/>
<path d="M387.59 228.81L387.59 241.29"/>
<path d="M387.59 241.29L368.87 241.29"/>
<path d="M368.87 241.29L368.87 228.81"/>
<path d="M368.87 228.81L356.39 228.81"/>
<path d="M356.39 228.81L356.39 241.29"/>
<path d="M356.39 241.29L337.66 241.29"/>
<path d="M337.66 241.29L337.66 228.81"/>
<path d="M337.66 228.81L325.18 228.81"/>
<path d="M325.18 228.81L325.18 241.29"/>
<path d="M325.18 241.29L306.46 241.29"/>
<path d="M306.46 241.29L306.46 228.81"/>
<path d="M306.46 228.81L293.98 228.81"/>
<path d="M293.98 228.81L293.98 241.29"/>
<path d="M293.98 241.29L275.25 241.29"/>
<path d="M275.25 241.29L275.25 228.81"/>
<path d="M275.25 228.81L262.77 228.81"/>
<path d="M262.77 228.81L262.77 241.29"/>
<path d="M262.77 241.29L244.05 241.29"/>
<path d="M244.05 241.29L244.05 228.81"/>
<path d="M244.05 228.81L231.57 228.81"/>
<path d="M231.57 228.81L231.57 241.29"/>
<path d="M231.57 241.29L212.84 241.29"/>
<path d="M212.84 241.29L212.84 228.81"/>
<path d="M212.84 228.81L200.36 228.81"/>
<path d="M200.36 228.81L200.36 241.29"/>
<path d="M200.36 241.29L181.64 241.29"/>
<path d="M181.64 241.29L181.64 228.81"/>
<path d="M181.64 228.81L169.16 228.81"/>
<path d="M169.16 228.81L169.16 241.29"/>
<path d="M169.16 241.29L150.43 241.29"/>
<path d="M150.43 241.29L150.43 228.81"/>
<path d="M150.43 228.81L137.95 228.81"/>
<path d="M137.95 228.81L137.95 241.29"/>
<path d="M137.95 241.29L125.47 241.29"/>
<path d="M125.47 241.29L125.47 191.36"/>
<path d="M119.23 247.53L119.23 185.12"/>
<path d="M119.23 185.12L481.21 185.12"/>
<path d="M481.21 185.12L481.21 247.53"/>
<path d="M481.21 247.53L119.23 247.53"/>
<path d="M131.71 185.12L131.71 178.88"/>
<path d="M131.71 178.88L156.68 178.88"/>
<path d="M156.68 178.88L156.68 185.12"/>
<path d="M162.92 185.12L162.92 178.88"/>
<path d="M162.92 178.88L187.88 178.88"/>
<path d="M187.88 178.88L187.88 185.12"/>
<path d="M194.12 185.12L194.12 178.88"/>
<path d="M194.12 178.88L219.09 178.88"/>
<path d="M219.09 178.88L219.09 185.12"/>
<path d="M225.33 185.12L225.33 178.88"/>
<path d="M225.33 178.88L250.29 178.88"/>
<path d="M250.29 178.88L250.29 185.12"/>
<path d="M256.53 185.12L256.53 178.88"/>
<path d="M256.53 178.88L281.5 178.88"/>
<path d="M281.5 178.88L281.5 185.12"/>
<path d="M287.74 185.12L287.74 178.88"/>
<path d="M287.74 178.88L312.7 178.88"/>
<path d="M312.7 178.88L312.7 185.12"/>
<path d="M318.94 185.12L318.94 178.88"/>
<path d="M318.94 178.88L343.91 178.88"/>
<path d="M343.91 178.88L343.91 185.12"/>
<path d="M350.15 185.12L350.15 178.88"/>
<path d="M350.15 178.88L375.11 178.88"/>
<path d="M375.11 178.88L375.11 185.12"/>
<path d="M381.35 185.12L381.35 178.88"/>
<path d="M381.35 178.88L406.32 178.88"/>
<path d="M406.32 178.88L406.32 185.12"/>
<path d="M412.56 185.12L412.56 178.88"/>
<path d="M412.56 178.88L437.52 178.88"/>
<path d="M437.52 178.88L437.52 185.12"/>
<path d="M443.76 185.12L443.76 178.88"/>
<path d="M443.76 178.88L468.73 178.88"/>
<path d="M468.73 178.88L468.73 185.12"/>
<path d="M131.71 247.53L131.71 253.77"/>
<path d="M131.71 253.77L156.68 253.77"/>
<path d="M156.68 253.77L156.68 247.53"/>
<path d="M162.92 247.53L162.92 253.77"/>
<path d="M162.92 253.77L187.88 253.77"/>
<path d="M187.88 253.77L187.88 247.53"/>
<path d="M194.12 247.53L194.12 253.77"/>
<path d="M194.12 253.77L219.09 253.77"/>
<path d="M219.09 253.77L219.09 247.53"/>
<path d="M225.33 247.53L225.33 253.77"/>
<path d="M225.33 253.77L250.29 253.77"/>
<path d="M250.29 253.77L250.29 247.53"/>
<path d="M256.53 247.53L256.53 253.77"/>
<path d="M256.53 253.77L281.5 253.77"/>
<path d="M281.5 253.77L281.5 247.53"/>
<path d="M287.74 247.53L287.74 253.77"/>
<path d="M287.74 253.77L312.7 253.77"/>
<path d="M312.7 253.77L312.7 247.53"/>
<path d="M318.94 247.53L318.94 253.77"/>
<path d="M318.94 253.77L343.91 253.77"/>
<path d="M343.91 253.77L343.91 247.53"/>
<path d="M350.15 247.53L350.15 253.77"/>
<path d="M350.15 253.77L375.11 253.77"/>
<path d="M375.11 253.77L375.11 247.53"/>
<path d="M381.35 247.53L381.35 253.77"/>
<path d="M381.35 253.77L406.32 253.77"/>
<path d="M406.32 253.77L406.32 247.53"/>
<path d="M412.56 247.53L412.56 253.77"/>
<path d="M412.56 253.77L437.52 253.77"/>
<path d="M437.52 253.77L437.52 247.53"/>
<path d="M443.76 247.53L443.76 253.77"/>
<path d="M443.76 253.77L468.73 253.77"/>
<path d="M468.73 253.77L468.73 247.53"/>
<path d="M106.75 145.18L106.75 185.12"/>
<path d="M106.75 185.12L88.02 185.12"/>
<path d="M88.02 185.12L88.02 191.36"/>
<path d="M88.02 191.36L106.75 191.36"/>
<path d="M106.75 191.36L106.75 260.01"/>
<path d="M106.75 260.01L88.02 260.01"/>
<path d="M88.02 260.01L88.02 266.25"/>
<path d="M88.02 266.25L106.75 266.25"/>
<path d="M106.75 266.25L106.75 287.47"/>
<path d="M110.49 291.22L489.95 291.22"/>
<path d="M493.69 287.47L493.69 266.25"/>
<path d="M493.69 266.25L512.41 266.25"/>
<path d="M512.41 266.25L512.41 260.01"/>
<path d="M512.41 260.01L493.69 260.01"/>
<path d="M493.69 260.01L493.69 191.36"/>
<path d="M493.69 191.36L512.41 191.36"/>
<path d="M512.41 191.36L512.41 185.12"/>
<path d="M512.41 185.12L493.69 185.12"/>
<path d="M493.69 185.12L493.69 145.18"/>
<path d="M489.95 141.43L110.49 141.43"/>
<path d="M91.77 135.19L94.27 135.19"/>
<path d="M94.27 135.19L94.27 101.49"/>
<path d="M98.01 97.75L109.24 97.75"/>
<path d="M112.99 101.49L112.99 135.19"/>
<path d="M112.99 135.19L169.16 135.19"/>
<path d="M169.16 135.19L175.4 135.19"/>
<path d="M175.4 135.19L162.92 128.95"/>
<path d="M162.92 128.95L225.33 128.95"/>
<path d="M225.33 128.95L225.33 135.19"/>
<path d="M225.33 135.19L231.57 135.19"/>
<path d="M231.57 135.19L231.57 72.78"/>
<path d="M231.57 72.78L250.29 72.78"/>
<path d="M250.29 72.78L250.29 85.26"/>
<path d="M481.21 135.19L468.73 135.19"/>
<path d="M468.73 135.19L468.73 101.49"/>
<path d="M464.98 97.75L453.75 97.75"/>
<path d="M450 101.49L450 135.19"/>
<path d="M450 135.19L425.04 135.19"/>
<path d="M425.04 135.19L437.52 128.95"/>
<path d="M437.52 128.95L375.11 128.95"/>
<path d="M375.11 128.95L375.11 135.19"/>
<path d="M375.11 135.19L368.87 135.19"/>
<path d="M368.87 135.19L368.87 72.78"/>
<path d="M368.87 72.78L350.15 72.78"/>
<path d="M350.15 72.78L350.15 85.26"/>
<path d="M350.15 85.26L318.94 85.26"/>
<path d="M250.29 85.26L281.5 85.26"/>
<path d="M281.5 85.26L281.5 97.75"/>
<path d="M281.5 97.75L318.94 97.75"/>
<path d="M318.94 97.75L318.94 85.26"/>
<path d="M481.21 135.19L508.67 135.19"/>
<path d="M512.41 138.94L512.41 172.64"/>
<path d="M512.41 172.64L518.65 160.16"/>
<path d="M518.65 160.16L518.65 216.32"/>
<path d="M518.65 216.32L512.41 203.84"/>
<path d="M512.41 203.84L512.41 247.53"/>
<path d="M512.41 247.53L518.65 235.05"/>
<path d="M518.65 235.05L518.65 291.22"/>
<path d="M518.65 291.22L512.41 278.73"/>
<path d="M512.41 278.73L512.41 293.71"/>
<path d="M508.67 297.46L493.69 297.46"/>
<path d="M493.69 297.46L493.69 316.18"/>
<path d="M493.69 316.18L468.73 316.18"/>
<path d="M468.73 316.18L468.73 303.7"/>
<path d="M468.73 303.7L131.71 303.7"/>
<path d="M131.71 303.7L131.71 316.18"/>
<path d="M131.71 316.18L106.75 316.18"/>
<path d="M106.75 316.18L106.75 303.7"/>
<path d="M106.75 303.7L91.77 303.7"/>
<path d="M88.02 299.95L88.02 278.73"/>
<path d="M88.02 278.73L81.78 291.22"/>
<path d="M81.78 291.22L81.78 235.05"/>
<path d="M81.78 235.05L88.02 247.53"/>
<path d="M88.02 247.53L88.02 203.84"/>
<path d="M88.02 203.84L81.78 216.32"/>
<path d="M81.78 216.32L81.78 160.16"/>
<path d="M81.78 160.16L88.02 172.64"/>
<path d="M88.02 172.64L88.02 138.94"/>
<path d="M88.02 122.71L75.54 122.71"/>
<path d="M69.3 128.95L69.3 309.94"/>
<path d="M75.54 316.18L94.27 316.18"/>
<path d="M94.27 316.18L94.27 324.92"/>
<path d="M98.01 328.66L144.19 328.66"/>
<path d="M144.19 328.66L144.19 316.18"/>
<path d="M144.19 316.18L150.43 316.18"/>
<path d="M150.43 316.18L150.43 309.94"/>
<path d="M478.71 122.71L524.9 122.71"/>
<path d="M531.14 128.95L531.14 309.94"/>
<path d="M524.9 316.18L506.17 316.18"/>
<path d="M506.17 316.18L506.17 324.92"/>
<path d="M502.43 328.66L456.24 328.66"/>
<path d="M456.24 328.66L456.24 316.18"/>
<path d="M456.24 316.18L450 316.18"/>
<path d="M450 316.18L450 309.94"/>
<path d="M88.02 122.71L88.02 95.25"/>
<path d="M91.77 91.5L115.48 91.5"/>
<path d="M119.23 95.25L119.23 122.71"/>
<path d="M119.23 122.71L219.09 122.71"/>
<path d="M219.09 122.71L219.09 64.04"/>
<path d="M222.83 60.3L259.03 60.3"/>
<path d="M262.77 64.04L262.77 72.78"/>
<path d="M262.77 72.78L337.66 72.78"/>
<path d="M337.66 72.78L337.66 64.04"/>
<path d="M341.41 60.3L377.61 60.3"/>
<path d="M381.35 64.04L381.35 122.71"/>
<path d="M381.35 122.71L443.76 122.71"/>
<path d="M443.76 122.71L443.76 95.25"/>
<path d="M447.51 91.5L471.22 91.5"/>
<path d="M474.97 95.25L474.97 118.96"/>
<path d="M119.23 103.99L219.09 103.99"/>
<path d="M381.35 103.99L443.76 103.99"/>
<path d="M231.57 128.95L368.87 128.95"/>
<path d="M250.29 85.26L250.29 128.95"/>
<path d="M262.77 85.26L262.77 110.23"/>
<path d="M262.77 110.23L281.5 110.23"/>
<path d="M281.5 110.23L281.5 128.95"/>
<path d="M350.15 85.26L350.15 128.95"/>
<path d="M337.66 85.26L337.66 110.23"/>
<path d="M337.66 110.23L318.94 110.23"/>
<path d="M318.94 110.23L318.94 128.95"/>
<path d="M150.43 309.94L206.6 309.94"/>
<path d="M206.6 309.94L206.6 316.18"/>
<path d="M450 309.94L400.07 309.94"/>
<path d="M400.07 309.94L400.07 316.18"/>
<path d="M400.07 316.18L206.6 316.18"/>
<path d="M287.74 316.18L287.74 328.66"/>
<path d="M287.74 328.66L312.7 328.66"/>
<path d="M312.7 328.66L312.7 316.18"/>
<path d="M225.33 316.18L225.33 324.92"/>
<path d="M221.58 328.66L212.84 328.66"/>
<path d="M206.6 322.42L206.6 316.18"/>
<path d="M400.07 316.18L400.07 322.42"/>
<path d="M393.83 328.66L385.1 328.66"/>
<path d="M381.35 324.92L381.35 316.18"/>
<path d="M144.19 328.66L212.84 328.66"/>
<path d="M393.83 328.66L456.24 328.66"/>
<path d="M524.9 316.18L528.02 315.34M528.02 315.34L530.3 313.06M530.3 313.06L531.14 309.94"/>
<path d="M69.3 309.94L70.14 313.06M70.14 313.06L72.42 315.34M72.42 315.34L75.54 316.18"/>
<path d="M75.54 122.71L72.42 123.55M72.42 123.55L70.14 125.83M70.14 125.83L69.3 128.95"/>
<path d="M531.14 128.95L530.3 125.83M530.3 125.83L528.02 123.55M528.02 123.55L524.9 122.71"/>
<path d="M393.83 328.66L396.95 327.83M396.95 327.83L399.24 325.54M399.24 325.54L400.07 322.42"/>
<path d="M206.6 322.42L207.44 325.54M207.44 325.54L209.72 327.83M209.72 327.83L212.84 328.66"/>
<path d="M20.16 165.62L23.14 164.14M23.14 164.14L27.59 159.68M27.59 159.68L27.59 190.88"/>
<path d="M557.49 165.62L560.46 164.14M560.46 164.14L564.92 159.68M564.92 159.68L564.92 190.88M581.26 165.62L584.23 164.14M584.23 164.14L588.69 159.68M588.69 159.68L588.69 190.88"/>
<path d="M1.59 253L4.56 251.51M4.56 251.51L9.02 247.05M9.02 247.05L9.02 278.26M26.85 254.48L26.85 253M26.85 253L28.34 250.03M28.34 250.03L29.82 248.54M29.82 248.54L32.8 247.05M32.8 247.05L38.74 247.05M38.74 247.05L41.71 248.54M41.71 248.54L43.2 250.03M43.2 250.03L44.68 253M44.68 253L44.68 255.97M44.68 255.97L43.2 258.94M43.2 258.94L40.23 263.4M40.23 263.4L25.37 278.26M25.37 278.26L46.17 278.26"/>
<path d="M549.31 254.48L549.31 253M549.31 253L550.8 250.03M550.8 250.03L552.29 248.54M552.29 248.54L555.26 247.05M555.26 247.05L561.2 247.05M561.2 247.05L564.17 248.54M564.17 248.54L565.66 250.03M565.66 250.03L567.15 253M567.15 253L567.15 255.97M567.15 255.97L565.66 258.94M565.66 258.94L562.69 263.4M562.69 263.4L547.83 278.26M547.83 278.26L568.63 278.26M579.03 254.48L579.03 253M579.03 253L580.52 250.03M580.52 250.03L582 248.54M582 248.54L584.98 247.05M584.98 247.05L590.92 247.05M590.92 247.05L593.89 248.54M593.89 248.54L595.38 250.03M595.38 250.03L596.86 253M596.86 253L596.86 255.97M596.86 255.97L595.38 258.94M595.38 258.94L592.41 263.4M592.41 263.4L577.55 278.26M577.55 278.26L598.35 278.26"/>
<path d="M131.76 390.6L131.76 353.15M133.54 353.15L133.54 390.6M126.41 353.15L144.24 353.15M144.24 353.15L149.59 354.93M149.59 354.93L153.16 358.5M153.16 358.5L154.94 362.07M154.94 362.07L156.72 367.42M156.72 367.42L156.72 376.33M156.72 376.33L154.94 381.68M154.94 381.68L153.16 385.25M153.16 385.25L149.59 388.81M149.59 388.81L144.24 390.6M144.24 390.6L126.41 390.6M144.24 353.15L147.81 354.93M147.81 354.93L151.37 358.5M151.37 358.5L153.16 362.07M153.16 362.07L154.94 367.42M154.94 367.42L154.94 376.33M154.94 376.33L153.16 381.68M153.16 381.68L151.37 385.25M151.37 385.25L147.81 388.81M147.81 388.81L144.24 390.6M181.69 353.15L169.21 390.6M181.69 353.15L194.17 390.6M181.69 358.5L192.39 390.6M172.77 379.9L188.82 379.9M165.64 390.6L176.34 390.6M187.04 390.6L197.74 390.6M208.44 390.6L208.44 353.15M210.22 353.15L210.22 390.6M203.09 353.15L224.48 353.15M224.48 353.15L229.83 354.93M229.83 354.93L231.62 356.72M231.62 356.72L233.4 360.28M233.4 360.28L233.4 363.85M233.4 363.85L231.62 367.42M231.62 367.42L229.83 369.2M229.83 369.2L224.48 370.98M224.48 370.98L210.22 370.98M224.48 353.15L228.05 354.93M228.05 354.93L229.83 356.72M229.83 356.72L231.62 360.28M231.62 360.28L231.62 363.85M231.62 363.85L229.83 367.42M229.83 367.42L228.05 369.2M228.05 369.2L224.48 370.98M203.09 390.6L215.57 390.6M219.13 370.98L222.7 372.77M222.7 372.77L224.48 374.55M224.48 374.55L229.83 387.03M229.83 387.03L231.62 388.81M231.62 388.81L233.4 388.81M233.4 388.81L235.18 387.03M222.7 372.77L224.48 376.33M224.48 376.33L228.05 388.81M228.05 388.81L229.83 390.6M229.83 390.6L233.4 390.6M233.4 390.6L235.18 387.03M235.18 387.03L235.18 385.25M247.66 390.6L247.66 353.15M249.45 353.15L249.45 390.6M272.63 353.15L249.45 376.33M258.36 369.2L272.63 390.6M256.58 369.2L270.85 390.6M242.32 353.15L254.8 353.15M265.5 353.15L276.2 353.15M242.32 390.6L254.8 390.6M265.5 390.6L276.2 390.6M343.95 358.5L345.74 363.85M345.74 363.85L345.74 353.15M345.74 353.15L343.95 358.5M343.95 358.5L340.39 354.93M340.39 354.93L335.04 353.15M335.04 353.15L331.47 353.15M331.47 353.15L326.12 354.93M326.12 354.93L322.56 358.5M322.56 358.5L320.77 362.07M320.77 362.07L318.99 367.42M318.99 367.42L318.99 376.33M318.99 376.33L320.77 381.68M320.77 381.68L322.56 385.25M322.56 385.25L326.12 388.81M326.12 388.81L331.47 390.6M331.47 390.6L335.04 390.6M335.04 390.6L340.39 388.81M340.39 388.81L343.95 385.25M331.47 353.15L327.91 354.93M327.91 354.93L324.34 358.5M324.34 358.5L322.56 362.07M322.56 362.07L320.77 367.42M320.77 367.42L320.77 376.33M320.77 376.33L322.56 381.68M322.56 381.68L324.34 385.25M324.34 385.25L327.91 388.81M327.91 388.81L331.47 390.6M343.95 376.33L343.95 390.6M345.74 376.33L345.74 390.6M338.61 376.33L351.09 376.33M365.35 390.6L365.35 353.15M367.14 353.15L367.14 390.6M360 353.15L381.4 353.15M381.4 353.15L386.75 354.93M386.75 354.93L388.53 356.72M388.53 356.72L390.32 360.28M390.32 360.28L390.32 363.85M390.32 363.85L388.53 367.42M388.53 367.42L386.75 369.2M386.75 369.2L381.4 370.98M381.4 370.98L367.14 370.98M381.4 353.15L384.97 354.93M384.97 354.93L386.75 356.72M386.75 356.72L388.53 360.28M388.53 360.28L388.53 363.85M388.53 363.85L386.75 367.42M386.75 367.42L384.97 369.2M384.97 369.2L381.4 370.98M360 390.6L372.48 390.6M376.05 370.98L379.62 372.77M379.62 372.77L381.4 374.55M381.4 374.55L386.75 387.03M386.75 387.03L388.53 388.81M388.53 388.81L390.32 388.81M390.32 388.81L392.1 387.03M379.62 372.77L381.4 376.33M381.4 376.33L384.97 388.81M384.97 388.81L386.75 390.6M386.75 390.6L390.32 390.6M390.32 390.6L392.1 387.03M392.1 387.03L392.1 385.25M404.58 390.6L404.58 353.15M406.36 353.15L406.36 390.6M417.06 363.85L417.06 378.12M399.23 353.15L427.76 353.15M427.76 353.15L427.76 363.85M427.76 363.85L425.98 353.15M406.36 370.98L417.06 370.98M399.23 390.6L427.76 390.6M427.76 390.6L427.76 379.9M427.76 379.9L425.98 390.6M440.24 353.15L452.73 372.77M452.73 372.77L452.73 390.6M442.03 353.15L454.51 372.77M454.51 372.77L454.51 390.6M466.99 353.15L454.51 372.77M436.68 353.15L447.38 353.15M459.86 353.15L470.56 353.15M447.38 390.6L459.86 390.6"/>
<path d="M91.77 91.5L89.12 92.6M89.12 92.6L88.02 95.25"/>
<path d="M119.23 95.25L118.13 92.6M118.13 92.6L115.48 91.5"/>
<path d="M222.83 60.3L220.18 61.4M220.18 61.4L219.09 64.04"/>
<path d="M262.77 64.04L261.68 61.4M261.68 61.4L259.03 60.3"/>
<path d="M341.41 60.3L338.76 61.4M338.76 61.4L337.66 64.04"/>
<path d="M381.35 64.04L380.26 61.4M380.26 61.4L377.61 60.3"/>
<path d="M447.51 91.5L444.86 92.6M444.86 92.6L443.76 95.25"/>
<path d="M474.97 95.25L473.87 92.6M473.87 92.6L471.22 91.5"/>
<path d="M468.73 101.49L467.63 98.84M467.63 98.84L464.98 97.75"/>
<path d="M453.75 97.75L451.1 98.84M451.1 98.84L450 101.49"/>
<path d="M474.97 118.96L476.06 121.61M476.06 121.61L478.71 122.71"/>
<path d="M112.99 101.49L111.89 98.84M111.89 98.84L109.24 97.75"/>
<path d="M98.01 97.75L95.36 98.84M95.36 98.84L94.27 101.49"/>
<path d="M94.27 324.92L95.36 327.57M95.36 327.57L98.01 328.66"/>
<path d="M221.58 328.66L224.23 327.57M224.23 327.57L225.33 324.92"/>
<path d="M502.43 328.66L505.08 327.57M505.08 327.57L506.17 324.92"/>
<path d="M381.35 324.92L382.45 327.57M382.45 327.57L385.1 328.66"/>
<path d="M489.95 291.22L492.59 290.12M492.59 290.12L493.69 287.47"/>
<path d="M106.75 287.47L107.84 290.12M107.84 290.12L110.49 291.22"/>
<path d="M110.49 141.43L107.84 142.53M107.84 142.53L106.75 145.18"/>
<path d="M493.69 145.18L492.59 142.53M492.59 142.53L489.95 141.43"/>
<path d="M512.41 138.94L511.32 136.29M511.32 136.29L508.67 135.19"/>
<path d="M508.67 297.46L511.32 296.36M511.32 296.36L512.41 293.71"/>
<path d="M88.02 299.95L89.12 302.6M89.12 302.6L91.77 303.7"/>
<path d="M91.77 135.19L89.12 136.29M89.12 136.29L88.02 138.94"/>
</g>
</g>
</svg>
