<?xml version="1.0" standalone="no"?><svg xmlns="http://www.w3.org/2000/svg" width="600.000" height="450.000" viewBox="0.0 0.0 600.000 450.000" version="1.1">
<title>Acme Converter - Post-processed with EDS-Designer: 14.44 (info@symca.com)</title>
<desc>Acme Converter - Post-processed with EDS-Designer: 14.44 (info@symca.com)</desc>
<g id="EDS_STYLE_GROUP" fill="none" stroke="black" stroke-width="1.0">
<g id="0" display="visible">
<path d="M229.92 367.47L229.92 344.21M231.03 344.21L231.03 367.47M226.59 344.21L239.89 344.21M239.89 344.21L243.21 345.32M243.21 345.32L244.32 346.43M244.32 346.43L245.42 348.64M245.42 348.64L245.42 350.86M245.42 350.86L244.32 353.07M244.32 353.07L243.21 354.18M243.21 354.18L239.89 355.29M239.89 344.21L242.1 345.32M242.1 345.32L243.21 346.43M243.21 346.43L244.32 348.64M244.32 348.64L244.32 350.86M244.32 350.86L243.21 353.07M243.21 353.07L242.1 354.18M242.1 354.18L239.89 355.29M231.03 355.29L239.89 355.29M239.89 355.29L243.21 356.4M243.21 356.4L244.32 357.5M244.32 357.5L245.42 359.72M245.42 359.72L245.42 363.04M245.42 363.04L244.32 365.26M244.32 365.26L243.21 366.36M243.21 366.36L239.89 367.47M239.89 367.47L226.59 367.47M239.89 355.29L242.1 356.4M242.1 356.4L243.21 357.5M243.21 357.5L244.32 359.72M244.32 359.72L244.32 363.04M244.32 363.04L243.21 365.26M243.21 365.26L242.1 366.36M242.1 366.36L239.89 367.47M254.29 367.47L254.29 344.21M255.39 344.21L255.39 367.47M250.96 344.21L258.72 344.21M250.96 367.47L267.58 367.47M267.58 367.47L267.58 360.83M267.58 360.83L266.47 367.47M280.87 344.21L273.12 367.47M280.87 344.21L288.62 367.47M280.87 347.53L287.51 367.47M275.33 360.83L285.3 360.83M270.9 367.47L277.55 367.47M284.19 367.47L290.84 367.47M309.67 347.53L310.77 350.86M310.77 350.86L310.77 344.21M310.77 344.21L309.67 347.53M309.67 347.53L307.45 345.32M307.45 345.32L304.13 344.21M304.13 344.21L301.91 344.21M301.91 344.21L298.59 345.32M298.59 345.32L296.38 347.53M296.38 347.53L295.27 349.75M295.27 349.75L294.16 353.07M294.16 353.07L294.16 358.61M294.16 358.61L295.27 361.93M295.27 361.93L296.38 364.15M296.38 364.15L298.59 366.36M298.59 366.36L301.91 367.47M301.91 367.47L304.13 367.47M304.13 367.47L307.45 366.36M307.45 366.36L309.67 364.15M309.67 364.15L310.77 361.93M301.91 344.21L299.7 345.32M299.7 345.32L297.48 347.53M297.48 347.53L296.38 349.75M296.38 349.75L295.27 353.07M295.27 353.07L295.27 358.61M295.27 358.61L296.38 361.93M296.38 361.93L297.48 364.15M297.48 364.15L299.7 366.36M299.7 366.36L301.91 367.47M320.74 367.47L320.74 344.21M321.85 344.21L321.85 367.47M336.25 344.21L321.85 358.61M327.39 354.18L336.25 367.47M326.28 354.18L335.14 367.47M317.42 344.21L325.17 344.21M331.82 344.21L338.47 344.21M317.42 367.47L325.17 367.47M331.82 367.47L338.47 367.47"/>
<path d="M434.26 97.53L446.17 109.44"/>
<path d="M434.26 305.95L446.17 294.04"/>
<path d="M446.17 109.44L446.17 294.04"/>
<path d="M417.59 187.75L417.59 140.11"/>
<path d="M417.59 263.37L417.59 215.73"/>
<path d="M234.78 82.53L228.5 82.53"/>
<path d="M404.19 174.35L404.19 153.51"/>
<path d="M404.19 249.97L404.19 229.13"/>
<path d="M383.35 153.51L369.95 140.11"/>
<path d="M404.19 174.35L417.59 187.75"/>
<path d="M434.26 97.53L190.12 97.53"/>
<path d="M438.73 102L190.12 102"/>
<path d="M404.19 229.13L417.59 215.73"/>
<path d="M383.35 249.97L369.95 263.37"/>
<path d="M383.35 229.13L383.35 249.97"/>
<path d="M383.35 153.51L383.35 174.35"/>
<path d="M446.17 116.89L190.12 116.89"/>
<path d="M369.95 215.73L369.95 263.37"/>
<path d="M369.95 140.11L369.95 187.75"/>
<path d="M266.34 140.11L218.7 140.11"/>
<path d="M341.97 140.11L294.33 140.11"/>
<path d="M417.59 140.11L369.95 140.11"/>
<path d="M341.97 187.75L341.97 140.11"/>
<path d="M341.97 263.37L341.97 215.73"/>
<path d="M307.73 153.51L294.33 140.11"/>
<path d="M404.19 249.97L417.59 263.37"/>
<path d="M383.35 229.13L369.95 215.73"/>
<path d="M328.57 174.35L341.97 187.75"/>
<path d="M249.79 97.53L234.78 82.53"/>
<path d="M252.94 153.51L232.1 153.51"/>
<path d="M328.57 153.51L307.73 153.51"/>
<path d="M404.19 153.51L383.35 153.51"/>
<path d="M404.19 153.51L417.59 140.11"/>
<path d="M328.57 229.13L341.97 215.73"/>
<path d="M307.73 249.97L294.33 263.37"/>
<path d="M383.35 174.35L369.95 187.75"/>
<path d="M234.78 320.95L249.79 305.95"/>
<path d="M328.57 174.35L328.57 153.51"/>
<path d="M328.57 249.97L328.57 229.13"/>
<path d="M383.35 174.35L404.19 174.35"/>
<path d="M307.73 174.35L328.57 174.35"/>
<path d="M232.1 174.35L252.94 174.35"/>
<path d="M307.73 229.13L307.73 249.97"/>
<path d="M307.73 153.51L307.73 174.35"/>
<path d="M369.95 187.75L417.59 187.75"/>
<path d="M294.33 187.75L341.97 187.75"/>
<path d="M218.7 187.75L266.34 187.75"/>
<path d="M190.12 189.83L118.67 189.83"/>
<path d="M294.33 215.73L294.33 263.37"/>
<path d="M294.33 140.11L294.33 187.75"/>
<path d="M232.1 153.51L218.7 140.11"/>
<path d="M307.73 229.13L294.33 215.73"/>
<path d="M328.57 249.97L341.97 263.37"/>
<path d="M252.94 174.35L266.34 187.75"/>
<path d="M328.57 153.51L341.97 140.11"/>
<path d="M252.94 229.13L266.34 215.73"/>
<path d="M232.1 249.97L218.7 263.37"/>
<path d="M307.73 174.35L294.33 187.75"/>
<path d="M190.12 213.65L118.67 213.65"/>
<path d="M266.34 215.73L218.7 215.73"/>
<path d="M341.97 215.73L294.33 215.73"/>
<path d="M417.59 215.73L369.95 215.73"/>
<path d="M266.34 187.75L266.34 140.11"/>
<path d="M266.34 263.37L266.34 215.73"/>
<path d="M252.94 229.13L232.1 229.13"/>
<path d="M328.57 229.13L307.73 229.13"/>
<path d="M404.19 229.13L383.35 229.13"/>
<path d="M252.94 174.35L252.94 153.51"/>
<path d="M252.94 249.97L252.94 229.13"/>
<path d="M383.35 249.97L404.19 249.97"/>
<path d="M307.73 249.97L328.57 249.97"/>
<path d="M232.1 249.97L252.94 249.97"/>
<path d="M232.1 229.13L232.1 249.97"/>
<path d="M232.1 153.51L232.1 174.35"/>
<path d="M232.1 229.13L218.7 215.73"/>
<path d="M252.94 249.97L266.34 263.37"/>
<path d="M369.95 263.37L417.59 263.37"/>
<path d="M294.33 263.37L341.97 263.37"/>
<path d="M218.7 263.37L266.34 263.37"/>
<path d="M252.94 153.51L266.34 140.11"/>
<path d="M232.1 174.35L218.7 187.75"/>
<path d="M218.7 215.73L218.7 263.37"/>
<path d="M218.7 140.11L218.7 187.75"/>
<path d="M225.85 305.95L228.5 320.95"/>
<path d="M228.5 82.53L225.85 97.53"/>
<path d="M190.12 286.59L446.17 286.59"/>
<path d="M190.12 305.95L190.12 97.53"/>
<path d="M190.12 301.48L438.73 301.48"/>
<path d="M190.12 305.95L434.26 305.95"/>
<path d="M228.5 320.95L234.78 320.95"/>
<path d="M118.67 189.83L118.67 213.65"/>
<path d="M154.41 156.67L153.53 154.9M153.53 154.9L150.87 154.01M150.87 154.01L149.1 154.01M149.1 154.01L146.44 154.9M146.44 154.9L144.67 157.55M144.67 157.55L143.78 161.98M143.78 161.98L143.78 166.42M143.78 166.42L144.67 169.96M144.67 169.96L146.44 171.73M146.44 171.73L149.1 172.62M149.1 172.62L149.98 172.62M149.98 172.62L152.64 171.73M152.64 171.73L154.41 169.96M154.41 169.96L155.3 167.3M155.3 167.3L155.3 166.42M155.3 166.42L154.41 163.76M154.41 163.76L152.64 161.98M152.64 161.98L149.98 161.1M149.98 161.1L149.1 161.1M149.1 161.1L146.44 161.98M146.44 161.98L144.67 163.76M144.67 163.76L143.78 166.42"/>
<path d="M476.82 154.01L467.96 166.42M467.96 166.42L481.25 166.42M476.82 154.01L476.82 172.62"/>
<path d="M472.42 233.98L474.19 233.09M474.19 233.09L476.85 230.43M476.85 230.43L476.85 249.04"/>
<path d="M145.07 230.43L154.81 230.43M154.81 230.43L149.5 237.52M149.5 237.52L152.16 237.52M152.16 237.52L153.93 238.41M153.93 238.41L154.81 239.29M154.81 239.29L155.7 241.95M155.7 241.95L155.7 243.73M155.7 243.73L154.81 246.38M154.81 246.38L153.04 248.16M153.04 248.16L150.38 249.04M150.38 249.04L147.73 249.04M147.73 249.04L145.07 248.16M145.07 248.16L144.18 247.27M144.18 247.27L143.29 245.5"/>
</g>
</g>
</svg>
