<?xml version="1.0" standalone="no"?><svg xmlns="http://www.w3.org/2000/svg" width="600.000" height="450.000" viewBox="0.0 0.0 600.000 450.000" version="1.1">
<title>Acme Converter - Post-processed with EDS-Designer: 14.44 (info@symca.com)</title>
<desc>Acme Converter - Post-processed with EDS-Designer: 14.44 (info@symca.com)</desc>
<g id="EDS_STYLE_GROUP" fill="none" stroke="black" stroke-width="1.0">
<g id="0" display="visible">
<path d="M236.19 336.29L237.93 341.48M237.93 341.48L237.93 331.09M237.93 331.09L236.19 336.29M236.19 336.29L232.73 332.82M232.73 332.82L227.53 331.09M227.53 331.09L224.07 331.09M224.07 331.09L218.87 332.82M218.87 332.82L215.4 336.29M215.4 336.29L213.67 339.75M213.67 339.75L211.94 344.95M211.94 344.95L211.94 353.61M211.94 353.61L213.67 358.81M213.67 358.81L215.4 362.27M215.4 362.27L218.87 365.74M218.87 365.74L224.07 367.47M224.07 367.47L227.53 367.47M227.53 367.47L232.73 365.74M232.73 365.74L236.19 362.27M224.07 331.09L220.6 332.82M220.6 332.82L217.14 336.29M217.14 336.29L215.4 339.75M215.4 339.75L213.67 344.95M213.67 344.95L213.67 353.61M213.67 353.61L215.4 358.81M215.4 358.81L217.14 362.27M217.14 362.27L220.6 365.74M220.6 365.74L224.07 367.47M236.19 353.61L236.19 367.47M237.93 353.61L237.93 367.47M231 353.61L243.12 353.61M256.98 367.47L256.98 331.09M258.72 331.09L258.72 367.47M251.79 331.09L272.57 331.09M272.57 331.09L277.77 332.82M277.77 332.82L279.5 334.55M279.5 334.55L281.24 338.02M281.24 338.02L281.24 341.48M281.24 341.48L279.5 344.95M279.5 344.95L277.77 346.68M277.77 346.68L272.57 348.41M272.57 348.41L258.72 348.41M272.57 331.09L276.04 332.82M276.04 332.82L277.77 334.55M277.77 334.55L279.5 338.02M279.5 338.02L279.5 341.48M279.5 341.48L277.77 344.95M277.77 344.95L276.04 346.68M276.04 346.68L272.57 348.41M251.79 367.47L263.91 367.47M267.38 348.41L270.84 350.15M270.84 350.15L272.57 351.88M272.57 351.88L277.77 364.01M277.77 364.01L279.5 365.74M279.5 365.74L281.24 365.74M281.24 365.74L282.97 364.01M270.84 350.15L272.57 353.61M272.57 353.61L276.04 365.74M276.04 365.74L277.77 367.47M277.77 367.47L281.24 367.47M281.24 367.47L282.97 364.01M282.97 364.01L282.97 362.27M295.1 367.47L295.1 331.09M296.83 331.09L296.83 367.47M307.22 341.48L307.22 355.34M289.9 331.09L317.62 331.09M317.62 331.09L317.62 341.48M317.62 341.48L315.89 331.09M296.83 348.41L307.22 348.41M289.9 367.47L317.62 367.47M317.62 367.47L317.62 357.08M317.62 357.08L315.89 367.47M331.48 367.47L331.48 331.09M333.21 331.09L333.21 367.47M343.61 341.48L343.61 355.34M326.28 331.09L354 331.09M354 331.09L354 341.48M354 341.48L352.27 331.09M333.21 348.41L343.61 348.41M326.28 367.47L354 367.47M354 367.47L354 357.08M354 357.08L352.27 367.47M367.86 367.47L367.86 331.09M369.59 367.47L369.59 331.09M369.59 331.09L390.38 364.01M369.59 334.55L390.38 367.47M390.38 367.47L390.38 331.09M362.66 331.09L369.59 331.09M385.19 331.09L395.58 331.09M362.66 367.47L373.06 367.47"/>
<path d="M340.43 172.46L340.43 203.03"/>
<path d="M333.45 210.01L336.94 209.07M336.94 209.07L339.5 206.52M339.5 206.52L340.43 203.03"/>
<path d="M333.45 210.01L308.13 210.01"/>
<path d="M299.39 210.01L274.07 210.01"/>
<path d="M267.09 203.03L268.02 206.52M268.02 206.52L270.58 209.07M270.58 209.07L274.07 210.01"/>
<path d="M267.09 203.03L267.09 172.46"/>
<path d="M274.07 165.48L270.58 166.42M270.58 166.42L268.02 168.97M268.02 168.97L267.09 172.46"/>
<path d="M274.07 165.48L299.39 165.48"/>
<path d="M308.13 165.48L333.45 165.48"/>
<path d="M340.43 172.46L339.5 168.97M339.5 168.97L336.94 166.42M336.94 166.42L333.45 165.48"/>
<path d="M254.86 144.52L254.86 238.83"/>
<path d="M254.86 238.83L352.66 238.83"/>
<path d="M352.66 238.83L352.66 144.52"/>
<path d="M352.66 144.52L254.86 144.52"/>
<path d="M336.94 203.03L340.43 203.03"/>
<path d="M336.94 172.46L340.43 172.46"/>
<path d="M333.45 208.26L333.45 210.01"/>
<path d="M308.13 210.01L308.13 206.52"/>
<path d="M308.13 206.52L308.13 200.41"/>
<path d="M308.13 202.15L307.61 200.92M307.61 200.92L306.38 200.41"/>
<path d="M306.38 200.41L301.14 200.41"/>
<path d="M301.14 200.41L300.27 200.64M300.27 200.64L299.63 201.28M299.63 201.28L299.39 202.15"/>
<path d="M299.39 200.41L299.39 206.52"/>
<path d="M299.39 206.52L299.39 210.01"/>
<path d="M274.07 208.26L274.07 210.01"/>
<path d="M270.58 203.03L267.09 203.03"/>
<path d="M270.58 172.46L267.09 172.46"/>
<path d="M274.07 167.23L274.07 165.48"/>
<path d="M299.39 165.48L299.39 168.97"/>
<path d="M299.39 168.97L299.39 175.08"/>
<path d="M299.39 173.34L299.63 174.21M299.63 174.21L300.27 174.85M300.27 174.85L301.14 175.08"/>
<path d="M306.38 175.08L301.14 175.08"/>
<path d="M306.38 175.08L307.25 174.85M307.25 174.85L307.89 174.21M307.89 174.21L308.13 173.34"/>
<path d="M308.13 175.08L308.13 168.97"/>
<path d="M308.13 168.97L308.13 165.48"/>
<path d="M333.45 167.23L333.45 165.48"/>
<path d="M249.62 244.06L254.86 238.83"/>
<path d="M249.62 139.28L254.86 144.52"/>
<path d="M249.62 244.06L249.62 139.28"/>
<path d="M357.9 244.06L249.62 244.06"/>
<path d="M357.9 244.06L352.66 238.83"/>
<path d="M357.9 139.28L352.66 144.52"/>
<path d="M357.9 139.28L357.9 244.06"/>
<path d="M249.62 139.28L357.9 139.28"/>
<path d="M336.94 172.46L336.94 203.03"/>
<path d="M336.94 183.38L337.38 183.38"/>
<path d="M337.38 183.38L337.38 192.11"/>
<path d="M336.94 192.11L337.38 192.11"/>
<path d="M333.45 206.52L333.45 208.26"/>
<path d="M333.45 206.52L335.19 206.05M335.19 206.05L336.47 204.77M336.47 204.77L336.94 203.03"/>
<path d="M333.45 208.26L329.08 208.26"/>
<path d="M329.08 206.52L329.08 208.26"/>
<path d="M333.45 206.52L308.13 206.52"/>
<path d="M308.13 206.52L311.62 203.03"/>
<path d="M311.62 200.41L311.62 203.03"/>
<path d="M311.62 200.41L308.13 200.41"/>
<path d="M308.13 200.41L307.61 199.17M307.61 199.17L306.38 198.66"/>
<path d="M306.38 200.41L306.38 198.66"/>
<path d="M301.14 198.66L301.14 200.41"/>
<path d="M301.14 198.66L299.91 199.17M299.91 199.17L299.39 200.41"/>
<path d="M295.9 203.03L299.39 206.52"/>
<path d="M295.9 200.41L299.39 200.41"/>
<path d="M295.9 203.03L295.9 200.41"/>
<path d="M299.39 206.52L274.07 206.52"/>
<path d="M278.44 206.52L278.44 208.26"/>
<path d="M274.07 208.26L278.44 208.26"/>
<path d="M274.07 206.52L274.07 208.26"/>
<path d="M270.58 203.03L271.6 205.5M271.6 205.5L274.07 206.52"/>
<path d="M270.14 183.38L270.58 183.38"/>
<path d="M270.58 203.03L270.58 172.46"/>
<path d="M270.14 192.11L270.58 192.11"/>
<path d="M270.14 183.38L270.14 192.11"/>
<path d="M274.07 167.23L274.07 168.97"/>
<path d="M274.07 168.97L272.33 169.44M272.33 169.44L271.05 170.72M271.05 170.72L270.58 172.46"/>
<path d="M274.07 167.23L278.44 167.23"/>
<path d="M278.44 167.23L278.44 168.97"/>
<path d="M274.07 168.97L299.39 168.97"/>
<path d="M295.9 172.46L299.39 168.97"/>
<path d="M295.9 175.08L295.9 172.46"/>
<path d="M299.39 175.08L295.9 175.08"/>
<path d="M299.39 175.08L299.63 175.96M299.63 175.96L300.27 176.6M300.27 176.6L301.14 176.83"/>
<path d="M301.14 175.08L301.14 176.83"/>
<path d="M306.38 176.83L306.38 175.08"/>
<path d="M306.38 176.83L307.61 176.32M307.61 176.32L308.13 175.08"/>
<path d="M308.13 175.08L311.62 175.08"/>
<path d="M311.62 172.46L311.62 175.08"/>
<path d="M308.13 168.97L311.62 172.46"/>
<path d="M308.13 168.97L333.45 168.97"/>
<path d="M333.45 167.23L329.08 167.23"/>
<path d="M329.08 167.23L329.08 168.97"/>
<path d="M333.45 167.23L333.45 168.97"/>
<path d="M336.94 172.46L335.92 169.99M335.92 169.99L333.45 168.97"/>
<path d="M225.17 111.34L225.17 273.75"/>
<path d="M225.17 273.75L233.91 273.75"/>
<path d="M233.91 273.75L233.91 247.56"/>
<path d="M233.91 247.56L274.94 247.56"/>
<path d="M274.94 247.56L274.94 270.26"/>
<path d="M274.94 270.26L332.57 270.26"/>
<path d="M332.57 270.26L332.57 252.8"/>
<path d="M332.57 252.8L356.15 252.8"/>
<path d="M356.15 252.8L356.15 273.75"/>
<path d="M356.15 273.75L364.88 273.75"/>
<path d="M364.88 273.75L364.88 247.56"/>
<path d="M364.88 247.56L382.34 247.56"/>
<path d="M382.34 247.56L382.34 111.34"/>
<path d="M382.34 111.34L375.36 111.34"/>
<path d="M375.36 111.34L375.36 135.79"/>
<path d="M375.36 135.79L333.45 135.79"/>
<path d="M333.45 135.79L333.45 106.1"/>
<path d="M333.45 106.1L274.07 106.1"/>
<path d="M274.07 106.1L274.07 135.79"/>
<path d="M274.07 135.79L232.16 135.79"/>
<path d="M232.16 135.79L232.16 111.34"/>
<path d="M232.16 111.34L225.17 111.34"/>
<path d="M336.94 172.46L333.45 172.46"/>
<path d="M333.45 203.03L333.45 172.46"/>
<path d="M336.94 203.03L333.45 203.03"/>
<path d="M333.45 206.52L333.45 203.03"/>
<path d="M311.62 203.03L333.45 203.03"/>
<path d="M311.62 200.41L310.08 196.7M310.08 196.7L306.38 195.17"/>
<path d="M333.45 172.46L311.62 172.46"/>
<path d="M306.38 180.32L310.08 178.79M310.08 178.79L311.62 175.08"/>
<path d="M306.38 180.32L301.14 180.32"/>
<path d="M295.9 175.08L297.44 178.79M297.44 178.79L301.14 180.32"/>
<path d="M295.9 172.46L274.07 172.46"/>
<path d="M274.07 172.46L274.07 203.03"/>
<path d="M274.07 203.03L295.9 203.03"/>
<path d="M301.14 195.17L297.44 196.7M297.44 196.7L295.9 200.41"/>
<path d="M301.14 195.17L306.38 195.17"/>
<path d="M306.38 195.17L306.38 198.66"/>
<path d="M306.38 198.66L301.14 198.66"/>
<path d="M301.14 195.17L301.14 198.66"/>
<path d="M274.07 203.03L274.07 206.52"/>
<path d="M274.07 203.03L270.58 203.03"/>
<path d="M274.07 172.46L270.58 172.46"/>
<path d="M274.07 172.46L274.07 168.97"/>
<path d="M301.14 176.83L301.14 180.32"/>
<path d="M301.14 176.83L306.38 176.83"/>
<path d="M306.38 176.83L306.38 180.32"/>
<path d="M333.45 168.97L333.45 172.46"/>
<path d="M225.17 273.75L220.49 272.85M220.49 272.85L218.88 271.77M218.88 271.77L218.36 271.02M218.36 271.02L218.19 270.26"/>
<path d="M225.17 111.34L218.19 111.34"/>
<path d="M218.19 270.26L218.19 111.34"/>
<path d="M225.17 277.24L225.17 273.75"/>
<path d="M233.91 277.24L225.17 277.24"/>
<path d="M233.91 273.75L233.91 277.24"/>
<path d="M237.4 253.61L237.4 273.75"/>
<path d="M237.4 253.61L237.28 252.98M237.28 252.98L236.56 251.51M236.56 251.51L233.91 247.56"/>
<path d="M233.91 273.75L237.4 273.75"/>
<path d="M267.96 254.54L237.4 254.54"/>
<path d="M274.94 247.56L267.96 254.54"/>
<path d="M267.96 270.26L267.96 254.54"/>
<path d="M267.96 270.26L274.94 270.26"/>
<path d="M332.57 277.24L332.57 270.26"/>
<path d="M274.94 277.24L274.94 270.26"/>
<path d="M332.57 277.24L274.94 277.24"/>
<path d="M339.56 270.26L332.57 270.26"/>
<path d="M339.56 259.78L339.56 270.26"/>
<path d="M332.57 252.8L339.56 259.78"/>
<path d="M349.16 259.78L339.56 259.78"/>
<path d="M356.15 252.8L349.16 259.78"/>
<path d="M349.16 270.26L349.16 259.78"/>
<path d="M356.15 273.75L351.46 272.85M351.46 272.85L349.85 271.77M349.85 271.77L349.33 271.02M349.33 271.02L349.16 270.26"/>
<path d="M356.15 277.24L356.15 273.75"/>
<path d="M364.88 277.24L356.15 277.24"/>
<path d="M364.88 277.24L364.88 273.75"/>
<path d="M368.37 253.61L368.37 273.75"/>
<path d="M368.37 253.61L368.25 252.98M368.25 252.98L367.54 251.51M367.54 251.51L364.88 247.56"/>
<path d="M364.88 273.75L368.37 273.75"/>
<path d="M382.34 254.54L368.37 254.54"/>
<path d="M382.34 247.56L382.34 254.54"/>
<path d="M382.34 111.34L389.33 111.34"/>
<path d="M382.34 247.56L389.33 247.56"/>
<path d="M389.33 111.34L389.33 247.56"/>
<path d="M382.34 104.36L382.34 111.34"/>
<path d="M375.36 104.36L382.34 104.36"/>
<path d="M375.36 104.36L375.36 111.34"/>
<path d="M368.37 111.34L375.36 111.34"/>
<path d="M368.37 128.81L368.37 111.34"/>
<path d="M375.36 135.79L368.37 128.81"/>
<path d="M340.43 128.81L368.37 128.81"/>
<path d="M333.45 135.79L340.43 128.81"/>
<path d="M340.43 99.12L340.43 128.81"/>
<path d="M333.45 106.1L340.43 99.12"/>
<path d="M267.09 99.12L340.43 99.12"/>
<path d="M274.07 106.1L267.09 99.12"/>
<path d="M267.09 128.81L267.09 99.12"/>
<path d="M274.07 135.79L267.09 128.81"/>
<path d="M239.15 128.81L267.09 128.81"/>
<path d="M232.16 135.79L239.15 128.81"/>
<path d="M239.15 111.34L239.15 128.81"/>
<path d="M239.15 111.34L232.16 111.34"/>
<path d="M232.16 104.36L232.16 111.34"/>
<path d="M225.17 104.36L232.16 104.36"/>
<path d="M225.17 104.36L225.17 111.34"/>
<path d="M219.47 274.29L221.96 276.46M221.96 276.46L225.17 277.24"/>
<path d="M225.17 104.36L221.68 105.29M221.68 105.29L219.13 107.85M219.13 107.85L218.19 111.34"/>
<path d="M382.34 277.24L364.88 277.24"/>
<path d="M356.15 277.24L332.57 277.24"/>
<path d="M274.94 277.24L233.91 277.24"/>
<path d="M233.91 277.24L235.65 276.78M235.65 276.78L236.93 275.5M236.93 275.5L237.4 273.75"/>
<path d="M267.96 270.26L268.9 273.75M268.9 273.75L271.45 276.31M271.45 276.31L274.94 277.24"/>
<path d="M332.57 277.24L336.07 276.31M336.07 276.31L338.62 273.75M338.62 273.75L339.56 270.26"/>
<path d="M350.45 274.29L352.94 276.46M352.94 276.46L356.15 277.24"/>
<path d="M364.88 277.24L366.63 276.78M366.63 276.78L367.91 275.5M367.91 275.5L368.37 273.75"/>
<path d="M382.34 254.54L385.84 253.61M385.84 253.61L388.39 251.05M388.39 251.05L389.33 247.56"/>
<path d="M389.33 111.34L388.39 107.85M388.39 107.85L385.84 105.29M385.84 105.29L382.34 104.36"/>
<path d="M389.33 247.56L389.33 270.26"/>
<path d="M375.36 104.36L371.87 105.29M371.87 105.29L369.31 107.85M369.31 107.85L368.37 111.34"/>
<path d="M340.43 82.53L340.43 95.63"/>
<path d="M340.43 95.63L340.43 99.12"/>
<path d="M267.09 95.63L267.09 99.12"/>
<path d="M267.09 82.53L267.09 95.63"/>
<path d="M239.15 111.34L238.21 107.85M238.21 107.85L235.65 105.29M235.65 105.29L232.16 104.36"/>
<path d="M216.44 89.51L216.44 270.26"/>
<path d="M216.44 270.26L218.19 270.26"/>
<path d="M249.62 128.81L249.62 89.51"/>
<path d="M249.62 89.51L216.44 89.51"/>
<path d="M382.34 277.24L385.84 276.31M385.84 276.31L388.39 273.75M388.39 273.75L389.33 270.26"/>
<path d="M382.34 277.24L382.34 270.26"/>
<path d="M368.37 270.26L382.34 270.26"/>
<path d="M339.56 270.26L349.16 270.26"/>
<path d="M237.4 270.26L267.96 270.26"/>
<path d="M382.34 270.26L382.34 254.54"/>
<path d="M382.34 270.26L389.33 270.26"/>
<path d="M389.33 270.26L391.08 270.26"/>
<path d="M391.08 270.26L391.08 128.81"/>
<path d="M391.08 128.81L389.33 128.81"/>
<path d="M391.08 128.81L391.08 121.82"/>
<path d="M249.62 121.82L267.09 121.82"/>
<path d="M340.43 121.82L368.37 121.82"/>
<path d="M389.33 121.82L391.08 121.82"/>
<path d="M340.43 103.48L356.15 103.48"/>
<path d="M260.1 103.48L267.09 103.48"/>
<path d="M356.15 103.48L377.11 100.69"/>
<path d="M377.11 100.69L377.11 87.77"/>
<path d="M377.11 87.77L340.43 87.77"/>
<path d="M267.09 87.77L260.1 87.77"/>
<path d="M260.1 103.48L260.1 87.77"/>
<path d="M340.43 82.53L267.09 82.53"/>
<path d="M340.43 95.63L267.09 95.63"/>
<path d="M216.44 270.26L216.44 277.24"/>
<path d="M225.17 277.24L216.44 277.24"/>
<path d="M391.08 277.24L382.34 277.24"/>
<path d="M209.46 270.26L216.44 270.26"/>
<path d="M216.44 89.51L209.46 89.51"/>
<path d="M209.46 270.26L209.46 89.51"/>
<path d="M249.62 89.51L248.69 86.02M248.69 86.02L246.13 83.46M246.13 83.46L242.64 82.53"/>
<path d="M216.44 82.53L242.64 82.53"/>
<path d="M216.44 82.53L216.44 89.51"/>
<path d="M391.08 277.24L391.08 270.26"/>
<path d="M398.06 133.84L397.58 132M397.58 132L396.13 130.37M396.13 130.37L393.78 129.2M393.78 129.2L391.08 128.81"/>
<path d="M391.08 270.26L398.06 270.26"/>
<path d="M398.06 133.84L398.06 270.26"/>
<path d="M398.06 128.81L397.13 125.31M397.13 125.31L394.57 122.76M394.57 122.76L391.08 121.82"/>
<path d="M398.06 128.81L398.06 133.84"/>
<path d="M347.42 117.45L347.42 106.55"/>
<path d="M347.42 117.45L340.43 117.45"/>
<path d="M267.09 117.45L260.1 117.45"/>
<path d="M260.1 117.45L260.1 103.48"/>
<path d="M355.73 103.54L356.15 103.48"/>
<path d="M355.73 103.54L351.37 104.48M351.37 104.48L347.42 106.55"/>
<path d="M377.11 100.69L382.34 99.99"/>
<path d="M260.1 121.82L260.1 117.45"/>
<path d="M260.1 82.53L260.1 87.77"/>
<path d="M382.34 87.77L382.34 99.99"/>
<path d="M377.11 87.77L382.34 87.77"/>
<path d="M377.11 87.77L377.11 82.53"/>
<path d="M260.1 82.53L267.09 82.53"/>
<path d="M340.43 82.53L377.11 82.53"/>
<path d="M209.46 270.26L210.39 273.75M210.39 273.75L212.95 276.31M212.95 276.31L216.44 277.24"/>
<path d="M391.08 277.24L394.57 276.31M394.57 276.31L397.13 273.75M397.13 273.75L398.06 270.26"/>
<path d="M247 277.24L247 285.98"/>
<path d="M247 285.98L360.52 285.98"/>
<path d="M360.52 285.98L360.52 277.24"/>
<path d="M360.52 285.98L369.25 285.98"/>
<path d="M369.25 285.98L369.25 277.24"/>
<path d="M238.27 277.24L238.27 285.98"/>
<path d="M238.27 285.98L247 285.98"/>
<path d="M216.44 82.53L212.95 83.46M212.95 83.46L210.39 86.02M210.39 86.02L209.46 89.51"/>
<path d="M347.42 121.82L347.42 117.45"/>
<path d="M382.34 87.77L381.64 85.15M381.64 85.15L379.72 83.23M379.72 83.23L377.11 82.53"/>
<path d="M360.52 285.98L360.52 294.71"/>
<path d="M247 294.71L247 285.98"/>
<path d="M247 294.71L360.52 294.71"/>
<path d="M360.52 294.71L364.88 293.54M364.88 293.54L368.08 290.34M368.08 290.34L369.25 285.98"/>
<path d="M238.27 285.98L239.44 290.34M239.44 290.34L242.64 293.54M242.64 293.54L247 294.71"/>
<path d="M218.19 270.26L219.48 274.28"/>
<path d="M349.16 270.26L350.46 274.28"/>
<path d="M422.54 153.48L427.39 148.63M427.39 148.63L427.39 177.74M422.54 177.74L432.24 177.74"/>
<path d="M417.71 194.63L422.56 189.78M422.56 189.78L432.26 189.78M432.26 189.78L437.11 194.63M437.11 194.63L437.11 199.48M437.11 199.48L432.26 204.34M432.26 204.34L422.56 204.34M422.56 204.34L417.71 209.19M417.71 209.19L417.71 218.89M417.71 218.89L437.11 218.89"/>
<path d="M182.29 168L162.89 168M162.89 168L177.44 148.6M177.44 148.6L177.44 177.7"/>
<path d="M162.89 194.63L167.74 189.78M167.74 189.78L177.44 189.78M177.44 189.78L182.29 194.63M182.29 194.63L182.29 199.48M182.29 199.48L177.44 204.34M177.44 204.34L172.59 204.34M177.44 204.34L182.29 209.19M182.29 209.19L182.29 214.04M182.29 214.04L177.44 218.89M177.44 218.89L167.74 218.89M167.74 218.89L162.89 214.04"/>
</g>
</g>
</svg>
