<?xml version="1.0" standalone="no"?><svg xmlns="http://www.w3.org/2000/svg" width="600.000" height="450.000" viewBox="0.0 0.0 600.000 450.000" version="1.1">
<title>Acme Converter - Post-processed with EDS-Designer: 14.44 (info@symca.com)</title>
<desc>Acme Converter - Post-processed with EDS-Designer: 14.44 (info@symca.com)</desc>
<g id="EDS_STYLE_GROUP" fill="none" stroke="black" stroke-width="1.0">
<g id="0" display="visible">
<path d="M238.51 408.95L238.51 373.72M240.19 373.72L240.19 408.95M233.48 373.72L253.61 373.72M253.61 373.72L258.64 375.4M258.64 375.4L260.32 377.08M260.32 377.08L261.99 380.43M261.99 380.43L261.99 383.79M261.99 383.79L260.32 387.14M260.32 387.14L258.64 388.82M258.64 388.82L253.61 390.5M253.61 373.72L256.96 375.4M256.96 375.4L258.64 377.08M258.64 377.08L260.32 380.43M260.32 380.43L260.32 383.79M260.32 383.79L258.64 387.14M258.64 387.14L256.96 388.82M256.96 388.82L253.61 390.5M240.19 390.5L253.61 390.5M253.61 390.5L258.64 392.18M258.64 392.18L260.32 393.85M260.32 393.85L261.99 397.21M261.99 397.21L261.99 402.24M261.99 402.24L260.32 405.6M260.32 405.6L258.64 407.27M258.64 407.27L253.61 408.95M253.61 408.95L233.48 408.95M253.61 390.5L256.96 392.18M256.96 392.18L258.64 393.85M258.64 393.85L260.32 397.21M260.32 397.21L260.32 402.24M260.32 402.24L258.64 405.6M258.64 405.6L256.96 407.27M256.96 407.27L253.61 408.95M275.41 408.95L275.41 373.72M277.09 373.72L277.09 408.95M270.38 373.72L282.12 373.72M270.38 408.95L295.54 408.95M295.54 408.95L295.54 398.89M295.54 398.89L293.87 408.95M315.67 373.72L303.93 408.95M315.67 373.72L327.42 408.95M315.67 378.76L325.74 408.95M307.29 398.89L322.38 398.89M300.58 408.95L310.64 408.95M320.71 408.95L330.77 408.95M359.29 378.76L360.96 383.79M360.96 383.79L360.96 373.72M360.96 373.72L359.29 378.76M359.29 378.76L355.93 375.4M355.93 375.4L350.9 373.72M350.9 373.72L347.54 373.72M347.54 373.72L342.51 375.4M342.51 375.4L339.16 378.76M339.16 378.76L337.48 382.11M337.48 382.11L335.8 387.14M335.8 387.14L335.8 395.53M335.8 395.53L337.48 400.56M337.48 400.56L339.16 403.92M339.16 403.92L342.51 407.27M342.51 407.27L347.54 408.95M347.54 408.95L350.9 408.95M350.9 408.95L355.93 407.27M355.93 407.27L359.29 403.92M359.29 403.92L360.96 400.56M347.54 373.72L344.19 375.4M344.19 375.4L340.84 378.76M340.84 378.76L339.16 382.11M339.16 382.11L337.48 387.14M337.48 387.14L337.48 395.53M337.48 395.53L339.16 400.56M339.16 400.56L340.84 403.92M340.84 403.92L344.19 407.27M344.19 407.27L347.54 408.95M376.06 408.95L376.06 373.72M377.74 373.72L377.74 408.95M399.55 373.72L377.74 395.53M386.13 388.82L399.55 408.95M384.45 388.82L397.87 408.95M371.03 373.72L382.77 373.72M392.84 373.72L402.9 373.72M371.03 408.95L382.77 408.95M392.84 408.95L402.9 408.95"/>
<path d="M179.23 223.77L181.91 222.43M181.91 222.43L185.94 218.4M185.94 218.4L185.94 246.59"/>
<path d="M256.5 345.54L379.88 345.54"/>
<path d="M366.9 171.12L350.92 162.12M350.92 162.12L333.39 156.71M333.39 156.71L315.12 155.15M315.12 155.15L296.94 157.49M296.94 157.49L279.66 163.64M279.66 163.64L264.08 173.32M264.08 173.32L250.91 186.08M250.91 186.08L240.74 201.34M240.74 201.34L234.04 218.41M234.04 218.41L231.11 236.51M231.11 236.51L232.09 254.82M232.09 254.82L236.93 272.51M236.93 272.51L245.41 288.77M245.41 288.77L257.15 302.86M257.15 302.86L271.61 314.14M271.61 314.14L288.13 322.09M288.13 322.09L305.97 326.37M305.97 326.37L324.3 326.76M324.3 326.76L342.3 323.25M342.3 323.25L359.15 316.01M359.15 316.01L374.07 305.36M374.07 305.36L386.4 291.79M386.4 291.79L395.57 275.91M395.57 275.91L401.17 258.44M401.17 258.44L402.93 240.19M402.93 240.19L400.78 221.98M400.78 221.98L394.82 204.64M394.82 204.64L385.31 188.95"/>
<path d="M255.09 239.83L257.03 223.89M257.03 223.89L262.72 208.87M262.72 208.87L271.85 195.66M271.85 195.66L283.86 185.01M283.86 185.01L298.08 177.55M298.08 177.55L313.67 173.71M313.67 173.71L329.73 173.71M329.73 173.71L345.32 177.55M345.32 177.55L359.54 185.01M359.54 185.01L371.56 195.66M371.56 195.66L380.68 208.87M380.68 208.87L386.37 223.89M386.37 223.89L388.31 239.83M388.31 239.83L386.37 255.77M386.37 255.77L380.68 270.78M380.68 270.78L371.56 284M371.56 284L359.54 294.64M359.54 294.64L345.32 302.1M345.32 302.1L329.73 305.95M329.73 305.95L313.67 305.95M313.67 305.95L298.08 302.1M298.08 302.1L283.86 294.64M283.86 294.64L271.85 284M271.85 284L262.72 270.78M262.72 270.78L257.03 255.77M257.03 255.77L255.09 239.83"/>
<path d="M318.05 306.33L333.5 300.49M333.5 300.49L347.1 291.11M347.1 291.11L358.06 278.75M358.06 278.75L365.74 264.13M365.74 264.13L369.7 248.09M369.7 248.09L369.7 231.57M369.7 231.57L365.74 215.53M365.74 215.53L358.06 200.9M358.06 200.9L347.1 188.54M347.1 188.54L333.5 179.17M333.5 179.17L318.05 173.32"/>
<path d="M372.96 306.33L260.96 306.33"/>
<path d="M362.4 314.08L271.52 314.08"/>
<path d="M250.64 143.7L382.53 143.7"/>
<path d="M265.6 62.56L369.85 62.56"/>
<path d="M265.6 94.03L369.85 94.03"/>
<path d="M265.6 122.71L369.85 122.71"/>
<path d="M400.33 68.93L385.97 58.51M385.97 58.51L370.21 50.37M370.21 50.37L353.4 44.7M353.4 44.7L335.93 41.62M335.93 41.62L318.19 41.21"/>
<path d="M212.88 315.85L256.5 345.54"/>
<path d="M290.26 143.7L290.26 159.38"/>
<path d="M250.7 155.14L241.94 161.59"/>
<path d="M212.88 117.29L212.88 315.85"/>
<path d="M252.56 193.6L268.72 176.84"/>
<path d="M245.3 193.6L252.56 193.6"/>
<path d="M257.15 179.35L241.94 161.59"/>
<path d="M268.72 176.84L300.04 176.84"/>
<path d="M265.6 62.56L258.37 66.9M258.37 66.9L253.15 73.53M253.15 73.53L250.64 81.58"/>
<path d="M265.6 62.56L265.6 143.7"/>
<path d="M236.08 117.29L236.08 67.94"/>
<path d="M318.05 155.14L250.7 155.14"/>
<path d="M250.64 143.7L250.64 81.58"/>
<path d="M236.08 117.29L212.88 117.29"/>
<path d="M318.19 41.21L296.19 42.22M296.19 42.22L274.71 47.13M274.71 47.13L254.46 55.8M254.46 55.8L236.08 67.94"/>
<path d="M420.8 317.69L379.88 345.54"/>
<path d="M345.19 143.7L345.19 159.9"/>
<path d="M420.8 317.69L420.8 118.28"/>
<path d="M382.53 81.58L380.12 74.15M380.12 74.15L375.78 67.65M375.78 67.65L369.85 62.56"/>
<path d="M400.33 118.28L400.33 68.93"/>
<path d="M369.85 62.56L369.85 143.7"/>
<path d="M420.8 118.28L400.33 118.28"/>
<path d="M382.53 143.7L382.53 81.58"/>
<path d="M385.31 188.95L380.99 181.31M380.99 181.31L374.68 175.2M374.68 175.2L366.9 171.12"/>
<path d="M402.14 170.37L383.48 151.57"/>
<path d="M384.3 186.65L402.14 170.37"/>
<path d="M383.48 151.57L364.83 169.69"/>
</g>
</g>
</svg>
