<?xml version="1.0" standalone="no"?><svg xmlns="http://www.w3.org/2000/svg" width="600.000" height="450.000" viewBox="0.0 0.0 600.000 450.000" version="1.1">
<title>Acme Converter - Post-processed with EDS-Designer: 14.44 (info@symca.com)</title>
<desc>Acme Converter - Post-processed with EDS-Designer: 14.44 (info@symca.com)</desc>
<g id="EDS_STYLE_GROUP" fill="none" stroke="black" stroke-width="1.0">
<g id="0" display="visible">
<path d="M224.84 397.59L224.84 365.58M226.36 365.58L226.36 397.59M220.27 365.58L238.56 365.58M238.56 365.58L243.13 367.1M243.13 367.1L244.66 368.63M244.66 368.63L246.18 371.68M246.18 371.68L246.18 374.73M246.18 374.73L244.66 377.77M244.66 377.77L243.13 379.3M243.13 379.3L238.56 380.82M238.56 365.58L241.61 367.1M241.61 367.1L243.13 368.63M243.13 368.63L244.66 371.68M244.66 371.68L244.66 374.73M244.66 374.73L243.13 377.77M243.13 377.77L241.61 379.3M241.61 379.3L238.56 380.82M226.36 380.82L238.56 380.82M238.56 380.82L243.13 382.35M243.13 382.35L244.66 383.87M244.66 383.87L246.18 386.92M246.18 386.92L246.18 391.5M246.18 391.5L244.66 394.54M244.66 394.54L243.13 396.07M243.13 396.07L238.56 397.59M238.56 397.59L220.27 397.59M238.56 380.82L241.61 382.35M241.61 382.35L243.13 383.87M243.13 383.87L244.66 386.92M244.66 386.92L244.66 391.5M244.66 391.5L243.13 394.54M243.13 394.54L241.61 396.07M241.61 396.07L238.56 397.59M258.38 397.59L258.38 365.58M259.9 365.58L259.9 397.59M253.81 365.58L264.48 365.58M253.81 397.59L276.67 397.59M276.67 397.59L276.67 388.45M276.67 388.45L275.15 397.59M294.97 365.58L284.3 397.59M294.97 365.58L305.64 397.59M294.97 370.15L304.12 397.59M287.35 388.45L301.07 388.45M281.25 397.59L290.4 397.59M299.54 397.59L308.69 397.59M334.61 370.15L336.13 374.73M336.13 374.73L336.13 365.58M336.13 365.58L334.61 370.15M334.61 370.15L331.56 367.1M331.56 367.1L326.99 365.58M326.99 365.58L323.94 365.58M323.94 365.58L319.36 367.1M319.36 367.1L316.31 370.15M316.31 370.15L314.79 373.2M314.79 373.2L313.26 377.77M313.26 377.77L313.26 385.4M313.26 385.4L314.79 389.97M314.79 389.97L316.31 393.02M316.31 393.02L319.36 396.07M319.36 396.07L323.94 397.59M323.94 397.59L326.99 397.59M326.99 397.59L331.56 396.07M331.56 396.07L334.61 393.02M334.61 393.02L336.13 389.97M323.94 365.58L320.89 367.1M320.89 367.1L317.84 370.15M317.84 370.15L316.31 373.2M316.31 373.2L314.79 377.77M314.79 377.77L314.79 385.4M314.79 385.4L316.31 389.97M316.31 389.97L317.84 393.02M317.84 393.02L320.89 396.07M320.89 396.07L323.94 397.59M349.85 397.59L349.85 365.58M351.38 365.58L351.38 397.59M371.2 365.58L351.38 385.4M359 379.3L371.2 397.59M357.48 379.3L369.67 397.59M345.28 365.58L355.95 365.58M365.1 365.58L374.25 365.58M345.28 397.59L355.95 397.59M365.1 397.59L374.25 397.59"/>
<path d="M102.11 197.57L104.55 196.35M104.55 196.35L108.21 192.69M108.21 192.69L108.21 218.3"/>
<path d="M370.82 217.3L378.5 224.99"/>
<path d="M342.64 217.3L334.96 224.99"/>
<path d="M370.82 202.57L378.5 194.89"/>
<path d="M334.96 194.89L342.64 202.57"/>
<path d="M370.82 217.3L342.64 217.3"/>
<path d="M370.82 202.57L370.82 217.3"/>
<path d="M342.64 217.3L342.64 202.57"/>
<path d="M342.64 202.57L370.82 202.57"/>
<path d="M334.96 224.99L378.5 224.99"/>
<path d="M334.96 194.89L334.96 224.99"/>
<path d="M378.5 224.99L378.5 194.89"/>
<path d="M378.5 194.89L334.96 194.89"/>
<path d="M273.49 194.89L281.17 202.57"/>
<path d="M281.17 217.3L273.49 224.99"/>
<path d="M309.35 217.3L317.03 224.99"/>
<path d="M309.35 202.57L317.03 194.89"/>
<path d="M317.03 194.89L273.49 194.89"/>
<path d="M281.17 202.57L309.35 202.57"/>
<path d="M281.17 217.3L281.17 202.57"/>
<path d="M309.35 217.3L281.17 217.3"/>
<path d="M309.35 202.57L309.35 217.3"/>
<path d="M317.03 224.99L317.03 194.89"/>
<path d="M317.03 194.89L273.49 194.89"/>
<path d="M273.49 194.89L273.49 224.99"/>
<path d="M273.49 224.99L317.03 224.99"/>
<path d="M212.02 194.89L219.7 202.57"/>
<path d="M219.7 217.3L219.7 202.57"/>
<path d="M247.87 217.3L219.7 217.3"/>
<path d="M219.7 217.3L212.02 224.99"/>
<path d="M247.87 217.3L255.56 224.99"/>
<path d="M247.87 202.57L255.56 194.89"/>
<path d="M255.56 194.89L212.02 194.89"/>
<path d="M219.7 202.57L247.87 202.57"/>
<path d="M282.45 302.14L282.45 279.09"/>
<path d="M308.06 302.14L282.45 302.14"/>
<path d="M247.87 202.57L247.87 217.3"/>
<path d="M212.02 194.89L212.02 224.99"/>
<path d="M212.02 224.99L255.56 224.99"/>
<path d="M255.56 224.99L255.56 194.89"/>
<path d="M255.56 194.89L212.02 194.89"/>
<path d="M199.21 190.41L199.41 187.4M199.41 187.4L200 184.44M200 184.44L200.97 181.59M200.97 181.59L202.3 178.88M202.3 178.88L203.97 176.37M203.97 176.37L205.96 174.11M205.96 174.11L208.23 172.12M208.23 172.12L210.74 170.44M210.74 170.44L213.44 169.11M213.44 169.11L216.3 168.14M216.3 168.14L219.25 167.55M219.25 167.55L222.26 167.36"/>
<path d="M199.21 223.7L199.21 190.41"/>
<path d="M222.26 246.76L219.25 246.56M219.25 246.56L216.3 245.97M216.3 245.97L213.44 245M213.44 245L210.74 243.67M210.74 243.67L208.23 241.99M208.23 241.99L205.96 240M205.96 240L203.97 237.74M203.97 237.74L202.3 235.23M202.3 235.23L200.97 232.53M200.97 232.53L200 229.67M200 229.67L199.41 226.71M199.41 226.71L199.21 223.7"/>
<path d="M368.25 246.76L222.26 246.76"/>
<path d="M391.31 223.7L391.11 226.71M391.11 226.71L390.52 229.67M390.52 229.67L389.55 232.53M389.55 232.53L388.22 235.23M388.22 235.23L386.54 237.74M386.54 237.74L384.55 240M384.55 240L382.29 241.99M382.29 241.99L379.78 243.67M379.78 243.67L377.08 245M377.08 245L374.22 245.97M374.22 245.97L371.26 246.56M371.26 246.56L368.25 246.76"/>
<path d="M391.31 190.41L391.31 223.7"/>
<path d="M368.25 167.36L371.26 167.55M371.26 167.55L374.22 168.14M374.22 168.14L377.08 169.11M377.08 169.11L379.78 170.44M379.78 170.44L382.29 172.12M382.29 172.12L384.55 174.11M384.55 174.11L386.54 176.37M386.54 176.37L388.22 178.88M388.22 178.88L389.55 181.59M389.55 181.59L390.52 184.44M390.52 184.44L391.11 187.4M391.11 187.4L391.31 190.41"/>
<path d="M222.26 167.36L368.25 167.36"/>
<path d="M263.24 314.95L263.24 321.35"/>
<path d="M327.27 321.35L327.27 314.95"/>
<path d="M263.24 314.95L327.27 314.95"/>
<path d="M263.24 321.35L327.27 321.35"/>
<path d="M347.76 318.79L395.79 318.79"/>
<path d="M311.91 314.95L347.76 314.95"/>
<path d="M242.75 314.95L278.61 314.95"/>
<path d="M194.73 318.79L242.75 318.79"/>
<path d="M331.12 74.19L331.12 93.4"/>
<path d="M259.4 93.4L259.4 74.19"/>
<path d="M331.12 74.19L259.4 74.19"/>
<path d="M361.85 93.4L388.1 93.4"/>
<path d="M361.85 135.66L361.85 93.4"/>
<path d="M331.12 135.66L361.85 135.66"/>
<path d="M228.67 135.66L259.4 135.66"/>
<path d="M228.67 93.4L228.67 135.66"/>
<path d="M202.42 93.4L228.67 93.4"/>
<path d="M259.4 135.66L259.4 93.4"/>
<path d="M331.12 135.66L259.4 135.66"/>
<path d="M331.12 93.4L331.12 135.66"/>
<path d="M259.4 93.4L331.12 93.4"/>
<path d="M166.79 232.67L169.35 242.13M169.35 242.13L173.52 251.01M173.52 251.01L179.15 259.03M179.15 259.03L186.1 265.95M186.1 265.95L194.13 271.57M194.13 271.57L203.02 275.71M203.02 275.71L212.49 278.24M212.49 278.24L222.26 279.09"/>
<path d="M142.86 232.67L166.79 232.67"/>
<path d="M142.86 207.06L142.86 232.67"/>
<path d="M165.91 207.06L142.86 207.06"/>
<path d="M165.91 191.37L165.91 207.06"/>
<path d="M208.17 136.81L199.42 139.86M199.42 139.86L191.28 144.3M191.28 144.3L183.98 150.02M183.98 150.02L177.71 156.86M177.71 156.86L172.66 164.64M172.66 164.64L168.95 173.13M168.95 173.13L166.68 182.13M166.68 182.13L165.91 191.37"/>
<path d="M208.17 114.66L208.17 136.81"/>
<path d="M201.77 114.66L208.17 114.66"/>
<path d="M201.77 99.8L201.77 114.66"/>
<path d="M201.77 99.8L202.05 95.62M202.05 95.62L202.86 91.52M202.86 91.52L204.21 87.55M204.21 87.55L206.06 83.79M206.06 83.79L208.39 80.31M208.39 80.31L211.15 77.16M211.15 77.16L214.3 74.4M214.3 74.4L217.78 72.08M217.78 72.08L221.54 70.22M221.54 70.22L225.5 68.88M225.5 68.88L229.61 68.06M229.61 68.06L233.79 67.79"/>
<path d="M356.73 67.79L233.79 67.79"/>
<path d="M356.73 67.79L360.91 68.06M360.91 68.06L365.02 68.88M365.02 68.88L368.98 70.22M368.98 70.22L372.74 72.08M372.74 72.08L376.22 74.4M376.22 74.4L379.37 77.16M379.37 77.16L382.13 80.31M382.13 80.31L384.46 83.79M384.46 83.79L386.31 87.55M386.31 87.55L387.65 91.52M387.65 91.52L388.47 95.62M388.47 95.62L388.75 99.8"/>
<path d="M388.75 114.66L388.75 99.8"/>
<path d="M382.34 114.66L388.75 114.66"/>
<path d="M382.34 136.81L382.34 114.66"/>
<path d="M424.6 191.37L423.84 182.13M423.84 182.13L421.57 173.13M421.57 173.13L417.86 164.64M417.86 164.64L412.8 156.86M412.8 156.86L406.54 150.02M406.54 150.02L399.24 144.3M399.24 144.3L391.1 139.86M391.1 139.86L382.34 136.81"/>
<path d="M424.6 207.06L424.6 191.37"/>
<path d="M447.65 207.06L424.6 207.06"/>
<path d="M447.65 232.67L447.65 207.06"/>
<path d="M423.72 232.67L447.65 232.67"/>
<path d="M368.25 279.09L378.02 278.24M378.02 278.24L387.49 275.71M387.49 275.71L396.38 271.57M396.38 271.57L404.42 265.95M404.42 265.95L411.36 259.03M411.36 259.03L417 251.01M417 251.01L421.16 242.13M421.16 242.13L423.72 232.67"/>
<path d="M308.06 279.09L368.25 279.09"/>
<path d="M308.06 302.14L308.06 279.09"/>
<path d="M282.45 302.14L308.06 302.14"/>
<path d="M282.45 279.09L282.45 302.14"/>
<path d="M222.26 279.09L282.45 279.09"/>
<path d="M457.9 236.51L444.72 244.12"/>
<path d="M457.9 203.21L457.9 236.51"/>
<path d="M447.65 197.3L457.9 203.21"/>
<path d="M447.65 191.37L447.65 197.3"/>
<path d="M414.73 126.99L424.26 135.08M424.26 135.08L432.4 144.57M432.4 144.57L438.95 155.22M438.95 155.22L443.74 166.76M443.74 166.76L446.67 178.91M446.67 178.91L447.65 191.37"/>
<path d="M404.11 106.23L404.43 110.25M404.43 110.25L405.37 114.17M405.37 114.17L406.92 117.89M406.92 117.89L409.03 121.32M409.03 121.32L411.66 124.38M411.66 124.38L414.73 126.99"/>
<path d="M404.11 103.64L404.11 106.23"/>
<path d="M352.89 52.42L359.57 52.86M359.57 52.86L366.15 54.16M366.15 54.16L372.49 56.32M372.49 56.32L378.5 59.28M378.5 59.28L384.07 63M384.07 63L389.11 67.42M389.11 67.42L393.53 72.46M393.53 72.46L397.25 78.03M397.25 78.03L400.21 84.04M400.21 84.04L402.37 90.39M402.37 90.39L403.67 96.96M403.67 96.96L404.11 103.64"/>
<path d="M237.63 52.42L352.89 52.42"/>
<path d="M186.4 103.64L186.84 96.96M186.84 96.96L188.15 90.39M188.15 90.39L190.3 84.04M190.3 84.04L193.27 78.03M193.27 78.03L196.99 72.46M196.99 72.46L201.41 67.42M201.41 67.42L206.45 63M206.45 63L212.02 59.28M212.02 59.28L218.03 56.32M218.03 56.32L224.37 54.16M224.37 54.16L230.94 52.86M230.94 52.86L237.63 52.42"/>
<path d="M186.4 106.23L186.4 103.64"/>
<path d="M175.78 126.99L178.86 124.38M178.86 124.38L181.48 121.32M181.48 121.32L183.59 117.89M183.59 117.89L185.14 114.17M185.14 114.17L186.09 110.25M186.09 110.25L186.4 106.23"/>
<path d="M142.86 191.37L143.85 178.91M143.85 178.91L146.77 166.76M146.77 166.76L151.57 155.22M151.57 155.22L158.12 144.57M158.12 144.57L166.26 135.08M166.26 135.08L175.78 126.99"/>
<path d="M142.86 197.3L142.86 191.37"/>
<path d="M132.62 203.21L142.86 197.3"/>
<path d="M132.62 236.51L132.62 203.21"/>
<path d="M145.79 244.12L132.62 236.51"/>
<path d="M222.26 302.14L209.43 301.1M209.43 301.1L196.94 298M196.94 298L185.12 292.92M185.12 292.92L174.27 285.99M174.27 285.99L164.68 277.41M164.68 277.41L156.6 267.39M156.6 267.39L150.25 256.19M150.25 256.19L145.79 244.12"/>
<path d="M271.22 302.14L222.26 302.14"/>
<path d="M278.61 314.95L271.22 302.14"/>
<path d="M311.91 314.95L278.61 314.95"/>
<path d="M319.3 302.14L311.91 314.95"/>
<path d="M368.25 302.14L319.3 302.14"/>
<path d="M444.72 244.12L440.27 256.19M440.27 256.19L433.92 267.39M433.92 267.39L425.84 277.41M425.84 277.41L416.25 285.99M416.25 285.99L405.4 292.92M405.4 292.92L393.57 298M393.57 298L381.08 301.1M381.08 301.1L368.25 302.14"/>
<path d="M483.25 192.69L496.67 192.69M496.67 192.69L489.35 202.45M489.35 202.45L493.01 202.45M493.01 202.45L495.45 203.67M495.45 203.67L496.67 204.89M496.67 204.89L497.89 208.55M497.89 208.55L497.89 210.99M497.89 210.99L496.67 214.65M496.67 214.65L494.23 217.08M494.23 217.08L490.57 218.3M490.57 218.3L486.91 218.3M486.91 218.3L483.25 217.08M483.25 217.08L482.03 215.86M482.03 215.86L480.81 213.43"/>
<path d="M194.73 297.22L194.73 337.13"/>
<path d="M201.13 343.53L236.35 343.53"/>
<path d="M242.75 337.13L242.75 314.95"/>
<path d="M395.79 297.22L395.79 337.13"/>
<path d="M347.76 337.13L347.76 314.95"/>
<path d="M389.39 343.53L354.17 343.53"/>
<path d="M194.73 337.13L196.6 341.66M196.6 341.66L201.13 343.53"/>
<path d="M236.35 343.53L239.55 342.67M239.55 342.67L241.89 340.33M241.89 340.33L242.75 337.13"/>
<path d="M347.76 337.13L348.62 340.33M348.62 340.33L350.97 342.67M350.97 342.67L354.17 343.53"/>
<path d="M389.39 343.53L393.91 341.66M393.91 341.66L395.79 337.13"/>
</g>
</g>
</svg>
