<?xml version="1.0" standalone="no"?><svg xmlns="http://www.w3.org/2000/svg" width="600.000" height="450.000" viewBox="0.0 0.0 600.000 450.000" version="1.1">
<title>Acme Converter - Post-processed with EDS-Designer: 14.44 (info@symca.com)</title>
<desc>Acme Converter - Post-processed with EDS-Designer: 14.44 (info@symca.com)</desc>
<g id="EDS_STYLE_GROUP" fill="none" stroke="black" stroke-width="1.0">
<g id="0" display="visible">
<path d="M203.06 446.65L203.06 405.56M205.01 405.56L205.01 446.65M197.19 405.56L220.67 405.56M220.67 405.56L226.54 407.52M226.54 407.52L228.5 409.47M228.5 409.47L230.45 413.39M230.45 413.39L230.45 417.3M230.45 417.3L228.5 421.21M228.5 421.21L226.54 423.17M226.54 423.17L220.67 425.13M220.67 405.56L224.58 407.52M224.58 407.52L226.54 409.47M226.54 409.47L228.5 413.39M228.5 413.39L228.5 417.3M228.5 417.3L226.54 421.21M226.54 421.21L224.58 423.17M224.58 423.17L220.67 425.13M205.01 425.13L220.67 425.13M220.67 425.13L226.54 427.08M226.54 427.08L228.5 429.04M228.5 429.04L230.45 432.96M230.45 432.96L230.45 438.83M230.45 438.83L228.5 442.74M228.5 442.74L226.54 444.7M226.54 444.7L220.67 446.65M220.67 446.65L197.19 446.65M220.67 425.13L224.58 427.08M224.58 427.08L226.54 429.04M226.54 429.04L228.5 432.96M228.5 432.96L228.5 438.83M228.5 438.83L226.54 442.74M226.54 442.74L224.58 444.7M224.58 444.7L220.67 446.65M246.11 446.65L246.11 405.56M248.07 405.56L248.07 446.65M240.24 405.56L253.94 405.56M240.24 446.65L269.59 446.65M269.59 446.65L269.59 434.91M269.59 434.91L267.63 446.65M293.07 405.56L279.38 446.65M293.07 405.56L306.77 446.65M293.07 411.43L304.82 446.65M283.29 434.91L300.9 434.91M275.46 446.65L287.2 446.65M298.94 446.65L310.69 446.65M343.95 411.43L345.91 417.3M345.91 417.3L345.91 405.56M345.91 405.56L343.95 411.43M343.95 411.43L340.04 407.52M340.04 407.52L334.17 405.56M334.17 405.56L330.26 405.56M330.26 405.56L324.38 407.52M324.38 407.52L320.47 411.43M320.47 411.43L318.51 415.34M318.51 415.34L316.56 421.21M316.56 421.21L316.56 431M316.56 431L318.51 436.87M318.51 436.87L320.47 440.78M320.47 440.78L324.38 444.7M324.38 444.7L330.26 446.65M330.26 446.65L334.17 446.65M334.17 446.65L340.04 444.7M340.04 444.7L343.95 440.78M343.95 440.78L345.91 436.87M330.26 405.56L326.34 407.52M326.34 407.52L322.43 411.43M322.43 411.43L320.47 415.34M320.47 415.34L318.51 421.21M318.51 421.21L318.51 431M318.51 431L320.47 436.87M320.47 436.87L322.43 440.78M322.43 440.78L326.34 444.7M326.34 444.7L330.26 446.65M363.52 446.65L363.52 405.56M365.48 405.56L365.48 446.65M390.92 405.56L365.48 431M375.26 423.17L390.92 446.65M373.31 423.17L388.96 446.65M357.65 405.56L371.35 405.56M383.09 405.56L394.83 405.56M357.65 446.65L371.35 446.65M383.09 446.65L394.83 446.65"/>
<path d="M12.79 184.64L15.92 183.07M15.92 183.07L20.62 178.37M20.62 178.37L20.62 211.25"/>
<path d="M30.35 261.47L28.78 258.34M28.78 258.34L24.09 256.77M24.09 256.77L20.95 256.77M20.95 256.77L16.26 258.34M16.26 258.34L13.13 263.03M13.13 263.03L11.56 270.86M11.56 270.86L11.56 278.69M11.56 278.69L13.13 284.95M13.13 284.95L16.26 288.08M16.26 288.08L20.95 289.65M20.95 289.65L22.52 289.65M22.52 289.65L27.22 288.08M27.22 288.08L30.35 284.95M30.35 284.95L31.91 280.26M31.91 280.26L31.91 278.69M31.91 278.69L30.35 273.99M30.35 273.99L27.22 270.86M27.22 270.86L22.52 269.3M22.52 269.3L20.95 269.3M20.95 269.3L16.26 270.86M16.26 270.86L13.13 273.99M13.13 273.99L11.56 278.69"/>
<path d="M458.75 108.03L397.72 108.03M373.31 108.03L369.24 108.03M344.83 108.03L247.18 108.03M222.77 108.03L218.7 108.03M194.29 108.03L133.26 108.03"/>
<path d="M113.55 239.63L113.55 247.18M113.55 250.2L113.55 250.7M113.55 253.72L113.55 265.8M113.55 268.81L113.55 269.32M113.55 272.34L113.55 279.88"/>
<path d="M478.47 279.87L478.47 272.33M478.47 269.31L478.47 268.81M478.47 265.79L478.47 253.72M478.47 250.7L478.47 250.2M478.47 247.18L478.47 239.63"/>
<path d="M511.12 219.64L506.46 219.64M504.59 219.64L504.28 219.64M502.42 219.64L494.96 219.64M493.09 219.64L492.78 219.64M490.92 219.64L486.25 219.64"/>
<path d="M82.97 218.3L82.97 221.33M82.97 222.54L82.97 222.75M82.97 223.96L82.97 228.82M82.97 230.03L82.97 230.23M82.97 231.45L82.97 234.48"/>
<path d="M486.26 233.12L490.92 233.12M492.79 233.12L493.1 233.12M494.96 233.12L502.42 233.12M504.28 233.12L504.59 233.12M506.46 233.12L511.12 233.12"/>
<path d="M133.27 323.37L194.3 323.37M218.71 323.37L222.78 323.37M247.19 323.37L344.83 323.37M369.24 323.37L373.31 323.37M397.72 323.37L458.75 323.37"/>
<path d="M509.05 234.47L509.05 231.44M509.05 230.23L509.05 230.02M509.05 228.81L509.05 223.96M509.05 222.74L509.05 222.54M509.05 221.33L509.05 218.3"/>
<path d="M380.14 331.09L380.14 335.9M380.14 337.83L380.14 338.15M380.14 340.07L380.14 347.76M380.14 349.69L380.14 350.01M380.14 351.93L380.14 356.74"/>
<path d="M247.05 346.38L265.41 346.38M272.75 346.38L273.98 346.38M281.32 346.38L310.7 346.38M318.04 346.38L319.26 346.38M326.61 346.38L344.97 346.38"/>
<path d="M501.48 178.53L501.48 171.17M501.48 168.23L501.48 167.74M501.48 164.79L501.48 153.02M501.48 150.07L501.48 149.58M501.48 146.64L501.48 139.28"/>
<path d="M527.13 233.48L527.13 230.81M527.13 229.74L527.13 229.56M527.13 228.5L527.13 224.23M527.13 223.16L527.13 222.98M527.13 221.91L527.13 219.24"/>
<path d="M501.26 126.16L487.35 103.13M481.79 93.91L480.86 92.38M475.3 83.16L453.04 46.31M447.48 37.09L446.55 35.56M440.98 26.34L427.07 3.31"/>
<path d="M454.52 12.69L395.08 12.69M371.3 12.69L367.34 12.69M343.56 12.69L248.45 12.69M224.67 12.69L220.71 12.69M196.93 12.69L137.49 12.69"/>
<path d="M164.95 3.31L151.03 26.34M145.47 35.56L144.54 37.09M138.98 46.31L116.72 83.16M111.16 92.38L110.23 93.91M104.67 103.13L90.76 126.16"/>
<path d="M90.53 274.56L90.53 275.97M90.53 276.53L90.53 276.63M90.53 277.19L90.53 279.45M90.53 280.02L90.53 280.11M90.53 280.68L90.53 282.09"/>
<path d="M64.89 219.24L64.89 221.91M64.89 222.98L64.89 223.16M64.89 224.23L64.89 228.5M64.89 229.57L64.89 229.75M64.89 230.82L64.89 233.49"/>
<path d="M211.88 356.74L211.88 351.93M211.88 350.01L211.88 349.69M211.88 347.76L211.88 340.07M211.88 338.15L211.88 337.83M211.88 335.9L211.88 331.09"/>
<path d="M336.81 356.75L336.81 351.94M336.81 350.01L336.81 349.69M336.81 347.77L336.81 340.07M336.81 338.15L336.81 337.83M336.81 335.9L336.81 331.09"/>
<path d="M255.21 356.75L255.21 351.94M255.21 350.01L255.21 349.69M255.21 347.77L255.21 340.07M255.21 338.15L255.21 337.83M255.21 335.9L255.21 331.09"/>
<path d="M453.82 140.08L394.64 140.08M370.97 140.08L367.02 140.08M343.35 140.08L248.66 140.08M224.99 140.08L221.05 140.08M197.37 140.08L138.2 140.08"/>
<path d="M447.24 282.77L447.24 257.62M447.24 247.56L447.24 245.88M447.24 235.82L447.24 195.58M447.24 185.52L447.24 183.84M447.24 173.78L447.24 148.63"/>
<path d="M138.2 291.31L197.38 291.31M221.05 291.31L225 291.31M248.67 291.31L343.35 291.31M367.02 291.31L370.97 291.31M394.64 291.31L453.81 291.31"/>
<path d="M144.78 148.63L144.78 173.78M144.78 183.84L144.78 185.52M144.78 195.58L144.78 235.83M144.78 245.89L144.78 247.56M144.78 257.62L144.78 282.78"/>
<path d="M113.55 149.39L113.55 161.74M113.55 166.68L113.55 167.51M113.55 172.45L113.55 192.22M113.55 197.16L113.55 197.98M113.55 202.93L113.55 215.28"/>
<path d="M478.47 215.27L478.47 202.92M478.47 197.98L478.47 197.15M478.47 192.21L478.47 172.45M478.47 167.51L478.47 166.68M478.47 161.74L478.47 149.39"/>
<path d="M105.76 219.64L101.09 219.64M99.23 219.64L98.92 219.64M97.05 219.64L89.59 219.64M87.73 219.64L87.42 219.64M85.55 219.64L80.89 219.64"/>
<path d="M80.9 233.12L85.56 233.12M87.43 233.12L87.74 233.12M89.6 233.12L97.06 233.12M98.92 233.12L99.23 233.12M101.1 233.12L105.76 233.12"/>
<path d="M374.5 346.38L387.19 346.38M392.27 346.38L393.12 346.38M398.19 346.38L418.5 346.38M423.58 346.38L424.43 346.38M429.5 346.38L442.2 346.38"/>
<path d="M149.82 346.38L162.52 346.38M167.59 346.38L168.44 346.38M173.52 346.38L193.83 346.38M198.9 346.38L199.75 346.38M204.83 346.38L217.52 346.38"/>
<path d="M501.48 281.85L501.48 280.96M501.48 280.6L501.48 280.54M501.48 280.19L501.48 278.77M501.48 278.41L501.48 278.35M501.48 278L501.48 277.11"/>
<path d="M90.53 139.28L90.53 146.64M90.53 149.59L90.53 150.08M90.53 153.02L90.53 164.8M90.53 167.74L90.53 168.24M90.53 171.18L90.53 178.54"/>
<path d="M431.62 103.1L160.4 103.1"/>
<path d="M160.4 103.1L146.99 104.86M146.99 104.86L134.51 110.04M134.51 110.04L123.78 118.27M123.78 118.27L115.55 128.99M115.55 128.99L110.38 141.48M110.38 141.48L108.62 154.88"/>
<path d="M160.4 108.03L160.4 103.1"/>
<path d="M431.62 108.03L160.4 108.03"/>
<path d="M431.62 108.03L431.62 103.1"/>
<path d="M483.4 154.88L481.64 141.48M481.64 141.48L476.47 128.99M476.47 128.99L468.24 118.27M468.24 118.27L457.51 110.04M457.51 110.04L445.02 104.86M445.02 104.86L431.62 103.1"/>
<path d="M160.4 103.09L164.55 102.44M164.55 102.44L168.41 100.76"/>
<path d="M168.41 100.76L168.82 100.51"/>
<path d="M177.28 98.17L172.89 98.76M172.89 98.76L168.82 100.51"/>
<path d="M177.28 98.17L414.74 98.17"/>
<path d="M423.2 100.51L419.13 98.76M419.13 98.76L414.74 98.17"/>
<path d="M423.2 100.51L423.61 100.76"/>
<path d="M423.61 100.76L427.47 102.44M427.47 102.44L431.62 103.09"/>
<path d="M160.4 94.88L160.4 103.1"/>
<path d="M160.4 94.88L147.04 96.38M147.04 96.38L134.36 100.82M134.36 100.82L122.99 107.97M122.99 107.97L113.49 117.47M113.49 117.47L106.34 128.85M106.34 128.85L101.9 141.53M101.9 141.53L100.4 154.88"/>
<path d="M100.4 154.88L108.62 154.88"/>
<path d="M108.62 154.88L108.62 209.78"/>
<path d="M113.55 154.88L108.62 154.88"/>
<path d="M160.4 108.03L148.27 109.63M148.27 109.63L136.97 114.31M136.97 114.31L127.27 121.75M127.27 121.75L119.82 131.45M119.82 131.45L115.14 142.75M115.14 142.75L113.55 154.88"/>
<path d="M478.47 209.78L479.79 214.71M479.79 214.71L483.4 218.32M483.4 218.32L488.33 219.64"/>
<path d="M478.47 209.78L478.47 154.88"/>
<path d="M478.47 154.88L476.88 142.75M476.88 142.75L472.19 131.45M472.19 131.45L464.75 121.75M464.75 121.75L455.05 114.31M455.05 114.31L443.75 109.63M443.75 109.63L431.62 108.03"/>
<path d="M113.55 154.88L113.55 209.78"/>
<path d="M103.68 219.64L108.62 218.32M108.62 218.32L112.23 214.71M112.23 214.71L113.55 209.78"/>
<path d="M103.68 219.64L82.97 219.64"/>
<path d="M82.97 219.64L82.97 233.12"/>
<path d="M82.97 233.12L103.68 233.12"/>
<path d="M113.55 242.99L112.23 238.06M112.23 238.06L108.62 234.45M108.62 234.45L103.68 233.12"/>
<path d="M113.55 242.99L113.55 276.52"/>
<path d="M113.55 276.52L115.14 288.65M115.14 288.65L119.82 299.94M119.82 299.94L127.27 309.65M127.27 309.65L136.97 317.09M136.97 317.09L148.27 321.77M148.27 321.77L160.4 323.37"/>
<path d="M160.4 323.37L431.62 323.37"/>
<path d="M431.62 323.37L443.75 321.77M443.75 321.77L455.05 317.09M455.05 317.09L464.75 309.65M464.75 309.65L472.19 299.94M472.19 299.94L476.88 288.65M476.88 288.65L478.47 276.52"/>
<path d="M478.47 276.52L478.47 242.99"/>
<path d="M488.33 233.12L483.4 234.45M483.4 234.45L479.79 238.06M479.79 238.06L478.47 242.99"/>
<path d="M488.33 233.12L509.05 233.12"/>
<path d="M509.05 233.12L509.05 219.64"/>
<path d="M509.05 219.64L488.33 219.64"/>
<path d="M478.47 154.88L483.4 154.88"/>
<path d="M483.4 209.78L483.4 154.88"/>
<path d="M491.62 154.88L483.4 154.88"/>
<path d="M491.62 154.88L490.12 141.53M490.12 141.53L485.68 128.85M485.68 128.85L478.53 117.47M478.53 117.47L469.03 107.97M469.03 107.97L457.66 100.82M457.66 100.82L444.97 96.38M444.97 96.38L431.62 94.88"/>
<path d="M431.62 94.88L431.62 103.1"/>
<path d="M160.4 94.88L431.62 94.88"/>
<path d="M271.35 98.17L271.35 99.98"/>
<path d="M320.67 99.98L320.67 98.17"/>
<path d="M320.67 99.98L271.35 99.98"/>
<path d="M431.62 336.52L444.97 335.01M444.97 335.01L457.66 330.58M457.66 330.58L469.03 323.43M469.03 323.43L478.53 313.93M478.53 313.93L485.68 302.55M485.68 302.55L490.12 289.87M490.12 289.87L491.62 276.52"/>
<path d="M431.62 336.52L380.14 336.52"/>
<path d="M380.14 336.52L380.14 346.38"/>
<path d="M380.14 346.38L436.55 346.38"/>
<path d="M436.55 346.38L451 344.75M451 344.75L464.73 339.95M464.73 339.95L477.04 332.22M477.04 332.22L487.32 321.94M487.32 321.94L495.05 309.62M495.05 309.62L499.86 295.9M499.86 295.9L501.48 281.45"/>
<path d="M501.48 281.45L501.48 277.51"/>
<path d="M518.29 247.83L511.29 253.33M511.29 253.33L505.94 260.44M505.94 260.44L502.6 268.68M502.6 268.68L501.48 277.51"/>
<path d="M518.29 247.83L523 243.8M523 243.8L526.06 238.4M526.06 238.4L527.13 232.29"/>
<path d="M527.13 232.29L527.13 220.43"/>
<path d="M527.13 220.43L526.07 214.33M526.07 214.33L523.01 208.94M523.01 208.94L518.31 204.9"/>
<path d="M501.48 175.26L502.63 184.08M502.63 184.08L505.99 192.3M505.99 192.3L511.33 199.4M511.33 199.4L518.31 204.9"/>
<path d="M501.48 175.26L501.48 142.55"/>
<path d="M501.48 142.55L500.54 132.19M500.54 132.19L497.75 122.17M497.75 122.17L493.2 112.81"/>
<path d="M493.2 112.81L435.14 16.66"/>
<path d="M435.14 16.66L432.14 13.75M432.14 13.75L428.1 12.69"/>
<path d="M428.1 12.69L163.92 12.69"/>
<path d="M163.92 12.69L159.88 13.75M159.88 13.75L156.88 16.66"/>
<path d="M156.88 16.66L98.82 112.81"/>
<path d="M98.82 112.81L94.27 122.17M94.27 122.17L91.47 132.19M91.47 132.19L90.53 142.55"/>
<path d="M90.53 142.55L90.53 175.26"/>
<path d="M73.71 204.9L80.69 199.4M80.69 199.4L86.03 192.3M86.03 192.3L89.39 184.08M89.39 184.08L90.53 175.26"/>
<path d="M73.71 204.9L69.01 208.94M69.01 208.94L65.95 214.33M65.95 214.33L64.89 220.43"/>
<path d="M64.89 220.43L64.89 232.29"/>
<path d="M64.89 232.29L65.96 238.4M65.96 238.4L69.02 243.8M69.02 243.8L73.73 247.83"/>
<path d="M90.53 275.18L88.02 264.39M88.02 264.39L82.22 254.95M82.22 254.95L73.73 247.83"/>
<path d="M90.53 275.18L90.53 281.45"/>
<path d="M90.53 281.45L92.16 295.9M92.16 295.9L96.96 309.62M96.96 309.62L104.7 321.94M104.7 321.94L114.98 332.22M114.98 332.22L127.29 339.95M127.29 339.95L141.02 344.75M141.02 344.75L155.46 346.38"/>
<path d="M155.46 346.38L211.88 346.38"/>
<path d="M211.88 346.38L211.88 336.52"/>
<path d="M211.88 336.52L160.4 336.52"/>
<path d="M100.4 276.52L101.9 289.87M101.9 289.87L106.34 302.55M106.34 302.55L113.49 313.93M113.49 313.93L122.99 323.43M122.99 323.43L134.36 330.58M134.36 330.58L147.04 335.01M147.04 335.01L160.4 336.52"/>
<path d="M100.4 276.52L100.4 246.27"/>
<path d="M100.4 246.27L82.97 246.27"/>
<path d="M69.82 233.12L71.58 239.7M71.58 239.7L76.4 244.51M76.4 244.51L82.97 246.27"/>
<path d="M69.82 233.12L69.82 219.64"/>
<path d="M82.97 206.49L76.4 208.26M76.4 208.26L71.58 213.07M71.58 213.07L69.82 219.64"/>
<path d="M82.97 206.49L100.4 206.49"/>
<path d="M100.4 206.49L100.4 154.88"/>
<path d="M491.62 154.88L491.62 206.49"/>
<path d="M491.62 206.49L509.05 206.49"/>
<path d="M522.2 219.64L520.43 213.07M520.43 213.07L515.62 208.26M515.62 208.26L509.05 206.49"/>
<path d="M522.2 219.64L522.2 233.12"/>
<path d="M509.05 246.27L515.62 244.51M515.62 244.51L520.43 239.7M520.43 239.7L522.2 233.12"/>
<path d="M509.05 246.27L491.62 246.27"/>
<path d="M491.62 246.27L491.62 276.52"/>
<path d="M100.4 206.49L108.62 209.78"/>
<path d="M103.68 214.71L106.15 214.05M106.15 214.05L107.96 212.25M107.96 212.25L108.62 209.78"/>
<path d="M113.55 209.78L108.62 209.78"/>
<path d="M483.4 209.78L478.47 209.78"/>
<path d="M488.33 219.64L488.33 214.71"/>
<path d="M103.68 219.64L103.68 214.71"/>
<path d="M82.97 219.64L82.97 214.71"/>
<path d="M82.97 233.12L78.04 233.12"/>
<path d="M82.97 219.64L78.04 219.64"/>
<path d="M103.68 233.12L103.68 238.06"/>
<path d="M82.97 233.12L82.97 238.06"/>
<path d="M113.55 242.99L108.62 242.99"/>
<path d="M113.55 276.52L108.62 276.52"/>
<path d="M160.4 323.37L160.4 328.3"/>
<path d="M431.62 323.37L431.62 328.3"/>
<path d="M478.47 276.52L483.4 276.52"/>
<path d="M478.47 242.99L483.4 242.99"/>
<path d="M488.33 233.12L488.33 238.06"/>
<path d="M509.05 233.12L509.05 238.06"/>
<path d="M509.05 219.64L513.98 219.64"/>
<path d="M509.05 233.12L513.98 233.12"/>
<path d="M509.05 219.64L509.05 214.71"/>
<path d="M491.62 206.49L483.4 209.78"/>
<path d="M483.4 209.78L484.06 212.25M484.06 212.25L485.87 214.05M485.87 214.05L488.33 214.71"/>
<path d="M431.62 328.3L445.02 326.54M445.02 326.54L457.51 321.36M457.51 321.36L468.24 313.13M468.24 313.13L476.47 302.41M476.47 302.41L481.64 289.92M481.64 289.92L483.4 276.52"/>
<path d="M431.62 336.52L431.62 328.3"/>
<path d="M483.4 276.52L491.62 276.52"/>
<path d="M431.62 328.3L427.47 328.96M427.47 328.96L423.61 330.64"/>
<path d="M423.61 330.64L423.2 330.89"/>
<path d="M414.74 333.23L419.13 332.64M419.13 332.64L423.2 330.89"/>
<path d="M414.74 333.23L380.14 333.23"/>
<path d="M380.14 336.52L380.14 333.23"/>
<path d="M365.44 336.52L380.14 336.52"/>
<path d="M365.44 336.52L365.44 346.38"/>
<path d="M380.14 346.38L365.44 346.38"/>
<path d="M380.14 346.38L380.14 354.6"/>
<path d="M436.55 354.6L380.14 354.6"/>
<path d="M436.55 346.38L436.55 354.6"/>
<path d="M436.55 354.6L452.83 352.77M452.83 352.77L468.29 347.36M468.29 347.36L482.16 338.64M482.16 338.64L493.74 327.06M493.74 327.06L502.46 313.19M502.46 313.19L507.87 297.73M507.87 297.73L509.7 281.45"/>
<path d="M501.48 281.45L509.7 281.45"/>
<path d="M509.7 277.51L509.7 281.45"/>
<path d="M509.7 277.51L501.48 277.51"/>
<path d="M522.49 254.9L515.64 260.77M515.64 260.77L511.17 268.62M511.17 268.62L509.63 277.51"/>
<path d="M518.29 247.83L522.49 254.9"/>
<path d="M522.49 254.9L529.34 249.03M529.34 249.03L533.8 241.18M533.8 241.18L535.35 232.29"/>
<path d="M527.13 232.29L535.35 232.29"/>
<path d="M535.35 220.43L535.35 232.29"/>
<path d="M527.13 220.43L535.35 220.43"/>
<path d="M535.35 220.43L533.8 211.55M533.8 211.55L529.36 203.72M529.36 203.72L522.53 197.85"/>
<path d="M518.31 204.9L522.53 197.85"/>
<path d="M509.7 175.26L511.25 184.14M511.25 184.14L515.69 191.97M515.69 191.97L522.53 197.85"/>
<path d="M501.48 175.26L509.7 175.26"/>
<path d="M509.7 142.55L509.7 175.26"/>
<path d="M509.7 142.55L501.48 142.55"/>
<path d="M509.7 142.55L508.63 130.71M508.63 130.71L505.44 119.25M505.44 119.25L500.24 108.56"/>
<path d="M493.2 112.81L500.24 108.56"/>
<path d="M442.17 12.41L500.24 108.56"/>
<path d="M435.14 16.66L442.17 12.41"/>
<path d="M442.17 12.41L438.5 8.18M438.5 8.18L433.62 5.43M433.62 5.43L428.1 4.47"/>
<path d="M428.1 4.47L428.1 12.69"/>
<path d="M163.92 4.47L428.1 4.47"/>
<path d="M163.92 12.69L163.92 4.47"/>
<path d="M163.92 4.47L158.4 5.43M158.4 5.43L153.52 8.18M153.52 8.18L149.85 12.41"/>
<path d="M149.85 12.41L156.88 16.66"/>
<path d="M91.78 108.56L149.85 12.41"/>
<path d="M98.82 112.81L91.78 108.56"/>
<path d="M91.78 108.56L86.58 119.25M86.58 119.25L83.39 130.71M83.39 130.71L82.32 142.55"/>
<path d="M90.53 142.55L82.32 142.55"/>
<path d="M82.32 175.26L82.32 142.55"/>
<path d="M82.32 175.26L90.53 175.26"/>
<path d="M69.49 197.85L76.32 191.97M76.32 191.97L80.77 184.14M80.77 184.14L82.32 175.26"/>
<path d="M73.71 204.9L69.49 197.85"/>
<path d="M69.49 197.85L62.66 203.72M62.66 203.72L58.21 211.55M58.21 211.55L56.67 220.43"/>
<path d="M64.89 220.43L56.67 220.43"/>
<path d="M56.67 232.29L56.67 220.43"/>
<path d="M64.89 232.29L56.67 232.29"/>
<path d="M56.67 232.29L58.22 241.18M58.22 241.18L62.68 249.03M62.68 249.03L69.53 254.9"/>
<path d="M73.73 247.83L69.53 254.9"/>
<path d="M82.32 275.48L80.36 267.36M80.36 267.36L75.95 260.26M75.95 260.26L69.53 254.9"/>
<path d="M82.32 275.48L82.41 275.45M82.41 275.45L83.15 275.39M83.15 275.39L90.53 275.18"/>
<path d="M82.32 281.45L82.32 275.48"/>
<path d="M82.32 281.45L90.53 281.45"/>
<path d="M82.32 281.45L84.15 297.73M84.15 297.73L89.56 313.19M89.56 313.19L98.27 327.06M98.27 327.06L109.86 338.64M109.86 338.64L123.73 347.36M123.73 347.36L139.19 352.77M139.19 352.77L155.46 354.6"/>
<path d="M155.46 346.38L155.46 354.6"/>
<path d="M211.88 354.6L155.46 354.6"/>
<path d="M211.88 346.38L211.88 354.6"/>
<path d="M211.88 336.52L226.58 336.52"/>
<path d="M226.58 346.38L211.88 346.38"/>
<path d="M226.58 346.38L226.58 336.52"/>
<path d="M168.82 330.89L172.89 332.64M172.89 332.64L177.28 333.23"/>
<path d="M168.82 330.89L168.41 330.64"/>
<path d="M168.41 330.64L164.55 328.96M164.55 328.96L160.4 328.3"/>
<path d="M160.4 336.52L160.4 328.3"/>
<path d="M211.88 336.52L211.88 333.23"/>
<path d="M211.88 333.23L177.28 333.23"/>
<path d="M108.62 276.52L110.38 289.92M110.38 289.92L115.55 302.41M115.55 302.41L123.78 313.13M123.78 313.13L134.51 321.36M134.51 321.36L146.99 326.54M146.99 326.54L160.4 328.3"/>
<path d="M100.4 276.52L108.62 276.52"/>
<path d="M100.4 246.27L108.62 242.99"/>
<path d="M108.62 242.99L108.62 276.52"/>
<path d="M82.97 246.27L82.97 238.06"/>
<path d="M100.4 246.27L103.68 238.06"/>
<path d="M82.97 238.06L103.68 238.06"/>
<path d="M69.82 233.12L78.04 233.12"/>
<path d="M78.04 233.12L78.7 235.59M78.7 235.59L80.51 237.39M80.51 237.39L82.97 238.06"/>
<path d="M69.82 219.64L78.04 219.64"/>
<path d="M78.04 219.64L78.04 233.12"/>
<path d="M82.97 206.49L82.97 214.71"/>
<path d="M82.97 214.71L80.51 215.37M80.51 215.37L78.7 217.18M78.7 217.18L78.04 219.64"/>
<path d="M100.4 206.49L103.68 214.71"/>
<path d="M103.68 214.71L82.97 214.71"/>
<path d="M509.05 206.49L509.05 214.71"/>
<path d="M491.62 206.49L488.33 214.71"/>
<path d="M509.05 214.71L488.33 214.71"/>
<path d="M522.2 219.64L513.98 219.64"/>
<path d="M513.98 219.64L512.53 216.16M512.53 216.16L509.05 214.71"/>
<path d="M522.2 233.12L513.98 233.12"/>
<path d="M513.98 233.12L513.98 219.64"/>
<path d="M509.05 246.27L509.05 238.06"/>
<path d="M509.05 238.06L511.51 237.39M511.51 237.39L513.32 235.59M513.32 235.59L513.98 233.12"/>
<path d="M491.62 246.27L488.33 238.06"/>
<path d="M488.33 238.06L509.05 238.06"/>
<path d="M491.62 246.27L483.4 242.99"/>
<path d="M483.4 276.52L483.4 242.99"/>
<path d="M108.62 242.99L107.96 240.52M107.96 240.52L106.15 238.72M106.15 238.72L103.68 238.06"/>
<path d="M160.4 328.3L431.62 328.3"/>
<path d="M488.33 238.06L485.87 238.72M485.87 238.72L484.06 240.52M484.06 240.52L483.4 242.99"/>
<path d="M368.38 333.23L380.14 333.23"/>
<path d="M368.38 333.23L354.45 333.23"/>
<path d="M354.45 333.23L336.81 333.23"/>
<path d="M336.81 333.23L255.21 333.23"/>
<path d="M255.21 333.23L237.57 333.23"/>
<path d="M237.57 333.23L223.64 333.23"/>
<path d="M211.88 333.23L223.64 333.23"/>
<path d="M365.44 336.52L368.38 333.23"/>
<path d="M351.51 336.52L365.44 336.52"/>
<path d="M365.44 346.38L351.51 346.38"/>
<path d="M351.51 346.38L351.51 336.52"/>
<path d="M365.44 346.38L366.42 350.49M366.42 350.49L369.11 353.5M369.11 353.5L372.79 354.6"/>
<path d="M372.79 354.6L380.14 354.6"/>
<path d="M372.79 354.6L358.86 354.6"/>
<path d="M358.86 354.6L336.81 354.6"/>
<path d="M336.81 354.6L255.21 354.6"/>
<path d="M255.21 354.6L233.16 354.6"/>
<path d="M233.16 354.6L219.23 354.6"/>
<path d="M211.88 354.6L219.23 354.6"/>
<path d="M219.23 354.6L222.91 353.5M222.91 353.5L225.6 350.49M225.6 350.49L226.58 346.38"/>
<path d="M226.58 336.52L223.64 333.23"/>
<path d="M226.58 336.52L240.51 336.52"/>
<path d="M240.51 336.52L240.51 346.38"/>
<path d="M240.51 346.38L226.58 346.38"/>
<path d="M164.51 129.4L155.11 130.89M155.11 130.89L146.63 135.21M146.63 135.21L139.9 141.94M139.9 141.94L135.58 150.41M135.58 150.41L134.09 159.81"/>
<path d="M164.51 129.4L427.51 129.4"/>
<path d="M457.92 159.81L456.44 150.41M456.44 150.41L452.12 141.94M452.12 141.94L445.39 135.21M445.39 135.21L436.91 130.89M436.91 130.89L427.51 129.4"/>
<path d="M457.92 159.81L457.92 271.59"/>
<path d="M427.51 302L436.91 300.51M436.91 300.51L445.39 296.19M445.39 296.19L452.12 289.46M452.12 289.46L456.44 280.99M456.44 280.99L457.92 271.59"/>
<path d="M427.51 302L164.51 302"/>
<path d="M134.09 271.59L135.58 280.99M135.58 280.99L139.9 289.46M139.9 289.46L146.63 296.19M146.63 296.19L155.11 300.51M155.11 300.51L164.51 302"/>
<path d="M134.09 271.59L134.09 159.81"/>
<path d="M351.51 336.52L354.45 333.23"/>
<path d="M336.81 336.52L336.81 333.23"/>
<path d="M351.51 336.52L336.81 336.52"/>
<path d="M255.21 336.52L255.21 333.23"/>
<path d="M255.21 336.52L336.81 336.52"/>
<path d="M240.51 336.52L237.57 333.23"/>
<path d="M255.21 336.52L240.51 336.52"/>
<path d="M351.51 346.38L352.5 350.49M352.5 350.49L355.19 353.5M355.19 353.5L358.86 354.6"/>
<path d="M336.81 336.52L336.81 346.38"/>
<path d="M336.81 346.38L351.51 346.38"/>
<path d="M396.91 354.6L392.69 355.77"/>
<path d="M336.81 346.38L336.81 354.6"/>
<path d="M255.21 346.38L255.21 354.6"/>
<path d="M336.81 346.38L255.21 346.38"/>
<path d="M233.16 354.6L236.83 353.5M236.83 353.5L239.52 350.49M239.52 350.49L240.51 346.38"/>
<path d="M240.51 346.38L255.21 346.38"/>
<path d="M199.33 355.77L195.1 354.6"/>
<path d="M199.33 355.77L202.31 357.56"/>
<path d="M389.71 357.56L202.31 357.56"/>
<path d="M389.71 357.56L392.69 355.77"/>
<path d="M255.21 346.38L255.21 336.52"/>
<path d="M134.09 159.81L139.85 159.81"/>
<path d="M164.51 135.15L164.51 129.4"/>
<path d="M427.51 135.15L427.51 129.4"/>
<path d="M452.17 159.81L457.92 159.81"/>
<path d="M452.17 271.59L457.92 271.59"/>
<path d="M427.51 296.25L427.51 302"/>
<path d="M164.51 296.25L164.51 302"/>
<path d="M139.85 271.59L134.09 271.59"/>
<path d="M380.15 363.29L383.13 361.51"/>
<path d="M383.13 361.51L389.71 357.56"/>
<path d="M208.89 361.51L211.87 363.29"/>
<path d="M202.31 357.56L208.89 361.51"/>
<path d="M208.89 361.51L383.13 361.51"/>
<path d="M164.51 135.15L155.07 137.03M155.07 137.03L147.07 142.38M147.07 142.38L141.73 150.37M141.73 150.37L139.85 159.81"/>
<path d="M164.51 135.15L427.51 135.15"/>
<path d="M452.17 159.81L450.29 150.37M450.29 150.37L444.95 142.38M444.95 142.38L436.95 137.03M436.95 137.03L427.51 135.15"/>
<path d="M452.17 159.81L452.17 271.59"/>
<path d="M427.51 296.25L436.95 294.37M436.95 294.37L444.95 289.02M444.95 289.02L450.29 281.02M450.29 281.02L452.17 271.59"/>
<path d="M427.51 296.25L164.51 296.25"/>
<path d="M139.85 271.59L141.73 281.02M141.73 281.02L147.07 289.02M147.07 289.02L155.07 294.37M155.07 294.37L164.51 296.25"/>
<path d="M139.85 271.59L139.85 159.81"/>
<path d="M211.87 363.29L216.1 364.46"/>
<path d="M216.1 364.46L375.92 364.46"/>
<path d="M375.92 364.46L380.15 363.29"/>
<path d="M164.51 140.08L164.51 135.15"/>
<path d="M144.78 159.81L139.85 159.81"/>
<path d="M164.51 140.08L156.96 141.59M156.96 141.59L150.56 145.86M150.56 145.86L146.28 152.26M146.28 152.26L144.78 159.81"/>
<path d="M427.51 140.08L427.51 135.15"/>
<path d="M427.51 140.08L164.51 140.08"/>
<path d="M447.24 159.81L452.17 159.81"/>
<path d="M447.24 159.81L445.74 152.26M445.74 152.26L441.46 145.86M441.46 145.86L435.06 141.59M435.06 141.59L427.51 140.08"/>
<path d="M447.24 271.59L452.17 271.59"/>
<path d="M447.24 271.59L447.24 159.81"/>
<path d="M427.51 291.31L427.51 296.25"/>
<path d="M427.51 291.31L435.06 289.81M435.06 289.81L441.46 285.54M441.46 285.54L445.74 279.14M445.74 279.14L447.24 271.59"/>
<path d="M164.51 291.31L164.51 296.25"/>
<path d="M164.51 291.31L427.51 291.31"/>
<path d="M139.85 271.59L144.78 271.59"/>
<path d="M144.78 271.59L146.28 279.14M146.28 279.14L150.56 285.54M150.56 285.54L156.96 289.81M156.96 289.81L164.51 291.31"/>
<path d="M144.78 159.81L144.78 271.59"/>
<path d="M401.21 266.99L388.06 266.99"/>
<path d="M388.06 266.99L388.06 254.82"/>
<path d="M388.06 254.82L401.21 254.82"/>
<path d="M401.21 254.82L401.21 266.99"/>
<path d="M338.75 254.82L351.9 254.82"/>
<path d="M351.9 254.82L351.9 266.99"/>
<path d="M351.9 266.99L338.75 266.99"/>
<path d="M338.75 266.99L338.75 254.82"/>
<path d="M289.43 266.99L289.43 254.82"/>
<path d="M289.43 254.82L302.58 254.82"/>
<path d="M302.58 254.82L302.58 266.99"/>
<path d="M302.58 266.99L289.43 266.99"/>
<path d="M240.12 254.82L253.27 254.82"/>
<path d="M253.27 254.82L253.27 266.99"/>
<path d="M253.27 266.99L240.12 266.99"/>
<path d="M240.12 266.99L240.12 254.82"/>
<path d="M203.96 254.82L203.96 266.99"/>
<path d="M203.96 266.99L190.81 266.99"/>
<path d="M190.81 266.99L190.81 254.82"/>
<path d="M190.81 254.82L203.96 254.82"/>
<path d="M203.96 205.51L203.96 217.67"/>
<path d="M203.96 217.67L190.81 217.67"/>
<path d="M190.81 217.67L190.81 205.51"/>
<path d="M190.81 205.51L203.96 205.51"/>
<path d="M253.27 205.51L253.27 217.67"/>
<path d="M253.27 217.67L240.12 217.67"/>
<path d="M240.12 217.67L240.12 205.51"/>
<path d="M240.12 205.51L253.27 205.51"/>
<path d="M302.58 205.51L302.58 217.67"/>
<path d="M302.58 217.67L289.43 217.67"/>
<path d="M289.43 217.67L289.43 205.51"/>
<path d="M289.43 205.51L302.58 205.51"/>
<path d="M351.9 205.51L351.9 217.67"/>
<path d="M351.9 217.67L338.75 217.67"/>
<path d="M338.75 217.67L338.75 205.51"/>
<path d="M338.75 205.51L351.9 205.51"/>
<path d="M388.06 205.51L401.21 205.51"/>
<path d="M401.21 205.51L401.21 217.67"/>
<path d="M401.21 217.67L388.06 217.67"/>
<path d="M388.06 217.67L388.06 205.51"/>
<path d="M567.79 178.97L552.14 178.97M552.14 178.97L550.57 193.06M550.57 193.06L552.14 191.49M552.14 191.49L556.84 189.93M556.84 189.93L561.53 189.93M561.53 189.93L566.23 191.49M566.23 191.49L569.36 194.62M569.36 194.62L570.93 199.32M570.93 199.32L570.93 202.45M570.93 202.45L569.36 207.15M569.36 207.15L566.23 210.28M566.23 210.28L561.53 211.84M561.53 211.84L556.84 211.84M556.84 211.84L552.14 210.28M552.14 210.28L550.57 208.71M550.57 208.71L549.01 205.58"/>
<path d="M541.51 263.63L544.65 262.06M544.65 262.06L549.34 257.37M549.34 257.37L549.34 290.24M575.96 257.37L571.26 258.93M571.26 258.93L568.13 263.63M568.13 263.63L566.56 271.46M566.56 271.46L566.56 276.15M566.56 276.15L568.13 283.98M568.13 283.98L571.26 288.68M571.26 288.68L575.96 290.24M575.96 290.24L579.09 290.24M579.09 290.24L583.78 288.68M583.78 288.68L586.92 283.98M586.92 283.98L588.48 276.15M588.48 276.15L588.48 271.46M588.48 271.46L586.92 263.63M586.92 263.63L583.78 258.93M583.78 258.93L579.09 257.37M579.09 257.37L575.96 257.37"/>
</g>
</g>
</svg>
