<?xml version="1.0" standalone="no"?><svg xmlns="http://www.w3.org/2000/svg" width="600.000" height="450.000" viewBox="0.0 0.0 600.000 450.000" version="1.1">
<title>Acme Converter - Post-processed with EDS-Designer: 14.44 (info@symca.com)</title>
<desc>Acme Converter - Post-processed with EDS-Designer: 14.44 (info@symca.com)</desc>
<g id="EDS_STYLE_GROUP" fill="none" stroke="black" stroke-width="1.0">
<g id="0" display="visible">
<path d="M252.15 383.23L252.15 359.56M253.28 359.56L253.28 383.23M248.77 359.56L262.3 359.56M262.3 359.56L265.68 360.68M265.68 360.68L266.81 361.81M266.81 361.81L267.93 364.07M267.93 364.07L267.93 366.32M267.93 366.32L266.81 368.58M266.81 368.58L265.68 369.7M265.68 369.7L262.3 370.83M262.3 359.56L264.55 360.68M264.55 360.68L265.68 361.81M265.68 361.81L266.81 364.07M266.81 364.07L266.81 366.32M266.81 366.32L265.68 368.58M265.68 368.58L264.55 369.7M264.55 369.7L262.3 370.83M253.28 370.83L262.3 370.83M262.3 370.83L265.68 371.96M265.68 371.96L266.81 373.09M266.81 373.09L267.93 375.34M267.93 375.34L267.93 378.72M267.93 378.72L266.81 380.98M266.81 380.98L265.68 382.1M265.68 382.1L262.3 383.23M262.3 383.23L248.77 383.23M262.3 370.83L264.55 371.96M264.55 371.96L265.68 373.09M265.68 373.09L266.81 375.34M266.81 375.34L266.81 378.72M266.81 378.72L265.68 380.98M265.68 380.98L264.55 382.1M264.55 382.1L262.3 383.23M276.95 383.23L276.95 359.56M278.08 359.56L278.08 383.23M273.57 359.56L281.46 359.56M273.57 383.23L290.48 383.23M290.48 383.23L290.48 376.47M290.48 376.47L289.35 383.23M304.01 359.56L296.12 383.23M304.01 359.56L311.9 383.23M304.01 362.94L310.77 383.23M298.37 376.47L308.52 376.47M293.86 383.23L300.63 383.23M307.39 383.23L314.16 383.23M333.32 362.94L334.45 366.32M334.45 366.32L334.45 359.56M334.45 359.56L333.32 362.94M333.32 362.94L331.07 360.68M331.07 360.68L327.68 359.56M327.68 359.56L325.43 359.56M325.43 359.56L322.05 360.68M322.05 360.68L319.79 362.94M319.79 362.94L318.66 365.19M318.66 365.19L317.54 368.58M317.54 368.58L317.54 374.21M317.54 374.21L318.66 377.59M318.66 377.59L319.79 379.85M319.79 379.85L322.05 382.1M322.05 382.1L325.43 383.23M325.43 383.23L327.68 383.23M327.68 383.23L331.07 382.1M331.07 382.1L333.32 379.85M333.32 379.85L334.45 377.59M325.43 359.56L323.17 360.68M323.17 360.68L320.92 362.94M320.92 362.94L319.79 365.19M319.79 365.19L318.66 368.58M318.66 368.58L318.66 374.21M318.66 374.21L319.79 377.59M319.79 377.59L320.92 379.85M320.92 379.85L323.17 382.1M323.17 382.1L325.43 383.23M344.59 383.23L344.59 359.56M345.72 359.56L345.72 383.23M360.38 359.56L345.72 374.21M351.36 369.7L360.38 383.23M350.23 369.7L359.25 383.23M341.21 359.56L349.1 359.56M355.87 359.56L362.63 359.56M341.21 383.23L349.1 383.23M355.87 383.23L362.63 383.23"/>
<path d="M416.66 122.57L110.6 122.57"/>
<path d="M98.76 134.41L98.76 218.56"/>
<path d="M110.6 122.57L104.68 124.16M104.68 124.16L100.35 128.49M100.35 128.49L98.76 134.41"/>
<path d="M416.66 131.06L194.93 131.06"/>
<path d="M416.66 139.78L194.93 139.78"/>
<path d="M416.66 314.54L435.35 312.66M435.35 312.66L453.32 307.17M453.32 307.17L469.87 298.28M469.87 298.28L484.38 286.34M484.38 286.34L496.28 271.81M496.28 271.81L505.13 255.23M505.13 255.23L510.57 237.25M510.57 237.25L512.41 218.56M512.41 218.56L510.57 199.86M510.57 199.86L505.13 181.88M505.13 181.88L496.28 165.31M496.28 165.31L484.38 150.77M484.38 150.77L469.87 138.83M469.87 138.83L453.32 129.95M453.32 129.95L435.35 124.46M435.35 124.46L416.66 122.57"/>
<path d="M416.66 306.05L194.93 306.05"/>
<path d="M416.66 297.33L194.93 297.33"/>
<path d="M416.66 306.05L434.79 304.07M434.79 304.07L452.11 298.37M452.11 298.37L467.88 289.2M467.88 289.2L481.4 276.96M481.4 276.96L492.09 262.19M492.09 262.19L499.49 245.52M499.49 245.52L503.27 227.68M503.27 227.68L503.27 209.44M503.27 209.44L499.49 191.6M499.49 191.6L492.09 174.93M492.09 174.93L481.4 160.16M481.4 160.16L467.88 147.92M467.88 147.92L452.11 138.75M452.11 138.75L434.79 133.05M434.79 133.05L416.66 131.06"/>
<path d="M416.66 297.33L434.02 295.15M434.02 295.15L450.46 289.2M450.46 289.2L465.19 279.77M465.19 279.77L477.47 267.32M477.47 267.32L486.7 252.46M486.7 252.46L492.43 235.94M492.43 235.94L494.37 218.56M494.37 218.56L492.43 201.18M492.43 201.18L486.7 184.65M486.7 184.65L477.47 169.8M477.47 169.8L465.19 157.35M465.19 157.35L450.46 147.91M450.46 147.91L434.02 141.96M434.02 141.96L416.66 139.78"/>
<path d="M416.66 314.54L110.6 314.54"/>
<path d="M98.76 302.7L98.76 218.56"/>
<path d="M98.76 302.7L100.35 308.62M100.35 308.62L104.68 312.96M104.68 312.96L110.6 314.54"/>
<path d="M339.37 314.54L339.37 335.88M339.37 335.88L271.57 335.88M271.57 335.88L271.57 314.54"/>
<path d="M330.3 335.88L330.3 314.54"/>
<path d="M281.5 335.88L281.5 314.54"/>
<path d="M194.93 139.78L177.46 141.83M177.46 141.83L160.89 147.7M160.89 147.7L146.03 157.1M146.03 157.1L133.62 169.57M133.62 169.57L124.29 184.48M124.29 184.48L118.5 201.08M118.5 201.08L116.53 218.56M116.53 218.56L118.5 236.03M118.5 236.03L124.29 252.64M124.29 252.64L133.62 267.55M133.62 267.55L146.03 280.01M146.03 280.01L160.89 289.41M160.89 289.41L177.46 295.29M177.46 295.29L194.93 297.33"/>
<path d="M194.93 131.06L176.71 132.93M176.71 132.93L159.27 138.56M159.27 138.56L143.39 147.69M143.39 147.69L129.76 159.93M129.76 159.93L118.97 174.74M118.97 174.74L111.51 191.48M111.51 191.48L107.69 209.4M107.69 209.4L107.69 227.72M107.69 227.72L111.51 245.64M111.51 245.64L118.97 262.37M118.97 262.37L129.76 277.18M129.76 277.18L143.39 289.42M143.39 289.42L159.27 298.56M159.27 298.56L176.71 304.18M176.71 304.18L194.93 306.05"/>
<path d="M331.85 297.33L331.85 278.53M331.85 278.53L331.85 278.53M331.85 278.53L333.24 275.18M333.24 275.18L336.59 273.79M336.59 273.79L358.73 273.79M358.73 273.79L358.73 273.79M358.73 273.79L361.1 274.43M361.1 274.43L362.83 276.16M362.83 276.16L363.46 278.53M363.46 278.53L363.46 297.33"/>
<path d="M248.61 297.33L248.61 278.53M248.61 278.53L248.61 278.53M248.61 278.53L250 275.18M250 275.18L253.35 273.79M253.35 273.79L275.49 273.79M275.49 273.79L275.49 273.79M275.49 273.79L277.86 274.43M277.86 274.43L279.59 276.16M279.59 276.16L280.23 278.53M280.23 278.53L280.23 297.33"/>
<path d="M368.52 149.73L368.52 139.78"/>
<path d="M340.07 149.73L340.07 139.78"/>
<path d="M340.07 149.73L341.98 156.84M341.98 156.84L347.18 162.04M347.18 162.04L354.3 163.95M354.3 163.95L361.41 162.04M361.41 162.04L366.62 156.84M366.62 156.84L368.52 149.73"/>
<path d="M368.52 143.74L375.24 149.49"/>
<path d="M340.07 143.74L333.35 149.49"/>
<path d="M333.35 149.49L334.94 157.5M334.94 157.5L339.49 164.3M339.49 164.3L346.28 168.84M346.28 168.84L354.3 170.43M354.3 170.43L362.31 168.84M362.31 168.84L369.11 164.3M369.11 164.3L373.65 157.5M373.65 157.5L375.24 149.49"/>
<path d="M270.51 149.73L270.51 139.78"/>
<path d="M242.07 149.73L242.07 139.78"/>
<path d="M242.07 149.73L243.97 156.84M243.97 156.84L249.18 162.04M249.18 162.04L256.29 163.95M256.29 163.95L263.4 162.04M263.4 162.04L268.61 156.84M268.61 156.84L270.51 149.73"/>
<path d="M270.51 143.74L277.24 149.49"/>
<path d="M242.07 143.74L235.34 149.49"/>
<path d="M235.34 149.49L236.94 157.5M236.94 157.5L241.48 164.3M241.48 164.3L248.27 168.84M248.27 168.84L256.29 170.43M256.29 170.43L264.31 168.84M264.31 168.84L271.1 164.3M271.1 164.3L275.64 157.5M275.64 157.5L277.24 149.49"/>
<path d="M222.61 287.39L222.61 297.33"/>
<path d="M194.16 287.39L194.16 297.33"/>
<path d="M222.61 287.39L220.71 280.28M220.71 280.28L215.5 275.07M215.5 275.07L208.39 273.16M208.39 273.16L201.28 275.07M201.28 275.07L196.07 280.28M196.07 280.28L194.16 287.39"/>
<path d="M222.61 293.37L229.34 287.63"/>
<path d="M194.16 293.37L187.44 287.63"/>
<path d="M229.34 287.63L227.74 279.61M227.74 279.61L223.2 272.82M223.2 272.82L216.4 268.28M216.4 268.28L208.39 266.68M208.39 266.68L200.37 268.28M200.37 268.28L193.58 272.82M193.58 272.82L189.04 279.61M189.04 279.61L187.44 287.63"/>
<path d="M417.41 287.39L417.41 297.33"/>
<path d="M388.96 287.39L388.96 297.33"/>
<path d="M417.41 287.39L415.5 280.28M415.5 280.28L410.3 275.07M410.3 275.07L403.18 273.16M403.18 273.16L396.07 275.07M396.07 275.07L390.87 280.28M390.87 280.28L388.96 287.39"/>
<path d="M417.41 293.37L424.13 287.63"/>
<path d="M388.96 293.37L382.24 287.63"/>
<path d="M424.13 287.63L422.54 279.61M422.54 279.61L418 272.82M418 272.82L411.2 268.28M411.2 268.28L403.18 266.68M403.18 266.68L395.17 268.28M395.17 268.28L388.37 272.82M388.37 272.82L383.83 279.61M383.83 279.61L382.24 287.63"/>
<path d="M192.88 139.78L192.88 158.59M192.88 158.59L192.88 158.59M192.88 158.59L194.27 161.93M194.27 161.93L197.62 163.32M197.62 163.32L219.76 163.32M219.76 163.32L219.76 163.32M219.76 163.32L222.13 162.69M222.13 162.69L223.86 160.95M223.86 160.95L224.49 158.59M224.49 158.59L224.49 139.78"/>
<path d="M387.26 139.78L387.26 158.59M387.26 158.59L387.26 158.59M387.26 158.59L388.65 161.93M388.65 161.93L391.99 163.32M391.99 163.32L414.13 163.32M414.13 163.32L414.13 163.32M414.13 163.32L416.5 162.69M416.5 162.69L418.23 160.95M418.23 160.95L418.87 158.59M418.87 158.59L418.87 139.78"/>
<path d="M395.77 249.26L355.03 249.26"/>
<path d="M325.96 249.26L285.51 249.26"/>
<path d="M256.44 249.26L215.34 249.26"/>
<path d="M186.26 249.26L161.12 249.26"/>
<path d="M161.12 187.54L186.23 187.54"/>
<path d="M215.3 187.54L256.4 187.54"/>
<path d="M285.48 187.54L325.92 187.54"/>
<path d="M355 187.54L395.74 187.54"/>
<path d="M424.82 187.54L441.56 187.54M441.56 187.54L441.56 187.54M441.56 187.54L444.9 188.93M444.9 188.93L446.29 192.27M446.29 192.27L446.29 244.52M446.29 244.52L446.29 244.52M446.29 244.52L444.9 247.87M444.9 247.87L441.56 249.26M441.56 249.26L424.85 249.26"/>
<path d="M424.85 252.06L395.77 252.06M395.77 252.06L395.77 237.28M395.77 237.28L424.85 237.28M424.85 237.28L424.85 252.06"/>
<path d="M355.03 252.06L325.96 252.06M325.96 252.06L325.96 237.28M325.96 237.28L355.03 237.28M355.03 237.28L355.03 252.06"/>
<path d="M285.51 252.06L256.44 252.06M256.44 252.06L256.44 237.28M256.44 237.28L285.51 237.28M285.51 237.28L285.51 252.06"/>
<path d="M215.34 252.06L186.26 252.06M186.26 252.06L186.26 237.28M186.26 237.28L215.34 237.28M215.34 237.28L215.34 252.06"/>
<path d="M424.81 184.76L395.74 184.79M395.74 184.79L395.75 199.57M395.75 199.57L424.83 199.54M424.83 199.54L424.81 184.76"/>
<path d="M354.99 184.83L325.92 184.87M325.92 184.87L325.93 199.65M325.93 199.65L355.01 199.62M355.01 199.62L354.99 184.83"/>
<path d="M285.47 184.91L256.4 184.94M256.4 184.94L256.41 199.73M256.41 199.73L285.49 199.69M285.49 199.69L285.47 184.91"/>
<path d="M215.3 184.99L186.23 185.02M186.23 185.02L186.24 199.8M186.24 199.8L215.32 199.77M215.32 199.77L215.3 184.99"/>
<path d="M430.39 224.45L389.5 224.45M389.5 224.45L389.5 212.55M389.5 212.55L430.39 212.55M430.39 212.55L430.39 224.45"/>
<path d="M360.74 224.45L319.85 224.45M319.85 224.45L319.85 212.55M319.85 212.55L360.74 212.55M360.74 212.55L360.74 224.45"/>
<path d="M291.55 224.45L250.66 224.45M250.66 224.45L250.66 212.55M250.66 212.55L291.55 212.55M291.55 212.55L291.55 224.45"/>
<path d="M222.06 224.45L181.17 224.45M181.17 224.45L181.17 212.55M181.17 212.55L222.06 212.55M222.06 212.55L222.06 224.45"/>
<path d="M161.12 289.53L161.12 147.59"/>
<path d="M167.51 249.26L167.51 187.54"/>
<path d="M161.12 263.61L130.69 263.61"/>
<path d="M161.12 173.51L130.69 173.51"/>
<path d="M146.49 263.61L146.49 173.51"/>
<path d="M139.51 263.61L139.51 173.51"/>
<path d="M132.22 245.82L132.22 191.76"/>
<path d="M132.22 191.76L121.23 191.76"/>
<path d="M132.22 245.82L121.4 245.82"/>
<path d="M132.22 239.47L126.62 239.47"/>
<path d="M122 243.17L121.4 245.82"/>
<path d="M126.62 239.47L123.66 240.51M123.66 240.51L122 243.17"/>
<path d="M132.22 195.51L125.83 195.48"/>
<path d="M121.23 191.76L122.88 194.43M122.88 194.43L125.83 195.48"/>
<path d="M407.27 122.57L407.27 83.09"/>
<path d="M407.27 83.09L405.88 79.74M405.88 79.74L402.53 78.35"/>
<path d="M402.53 78.35L383.3 78.35"/>
<path d="M378.57 73.62L378.57 71.49"/>
<path d="M378.57 73.62L379.95 76.97M379.95 76.97L383.3 78.35"/>
<path d="M373.83 66.75L359.11 66.75"/>
<path d="M378.57 71.49L377.18 68.14M377.18 68.14L373.83 66.75"/>
<path d="M354.38 71.49L354.38 122.57"/>
<path d="M359.11 66.75L355.77 68.14M355.77 68.14L354.38 71.49"/>
<path d="M379.21 122.57L379.21 99.86"/>
<path d="M379.21 99.86L377.82 96.51M377.82 96.51L374.47 95.12"/>
<path d="M374.47 95.12L354.38 95.12"/>
<path d="M319.67 122.57L319.67 78.59"/>
<path d="M314.93 73.86L296.67 73.86"/>
<path d="M319.67 78.59L318.28 75.24M318.28 75.24L314.93 73.86"/>
<path d="M291.93 78.59L291.93 122.57"/>
<path d="M296.67 73.86L293.32 75.24M293.32 75.24L291.93 78.59"/>
<path d="M291.93 107.69L328.64 107.69"/>
<path d="M328.64 107.69L331 107.06M331 107.06L332.74 105.33M332.74 105.33L333.37 102.96"/>
<path d="M333.37 102.96L333.37 78.59"/>
<path d="M328.64 73.86L314.93 73.86"/>
<path d="M333.37 78.59L331.98 75.24M331.98 75.24L328.64 73.86"/>
<path d="M257.49 122.57L257.49 71.71"/>
<path d="M257.49 71.71L256.11 68.37M256.11 68.37L252.76 66.98"/>
<path d="M252.76 66.98L236.71 66.98"/>
<path d="M231.98 71.71L231.98 73.31"/>
<path d="M236.71 66.98L233.37 68.37M233.37 68.37L231.98 71.71"/>
<path d="M227.24 78.04L208.79 78.04"/>
<path d="M227.24 78.04L230.59 76.66M230.59 76.66L231.98 73.31"/>
<path d="M204.06 82.78L204.06 122.57"/>
<path d="M208.79 78.04L205.45 79.43M205.45 79.43L204.06 82.78"/>
<path d="M257.49 95.04L232.14 95.04"/>
<path d="M232.14 95.04L232.14 122.57"/>
<path d="M526.28 212.96L528.08 212.06M528.08 212.06L530.79 209.36M530.79 209.36L530.79 228.3"/>
<path d="M78.24 209.36L69.22 221.98M69.22 221.98L82.75 221.98M78.24 209.36L78.24 228.3"/>
</g>
</g>
</svg>
