<?xml version="1.0" standalone="no"?><svg xmlns="http://www.w3.org/2000/svg" width="600.000" height="450.000" viewBox="0.0 0.0 600.000 450.000" version="1.1">
<title>Acme Converter - Post-processed with EDS-Designer: 14.44 (info@symca.com)</title>
<desc>Acme Converter - Post-processed with EDS-Designer: 14.44 (info@symca.com)</desc>
<g id="EDS_STYLE_GROUP" fill="none" stroke="black" stroke-width="1.0">
<g id="0" display="visible">
<path d="M244.78 371.25L244.78 347.43M245.92 347.43L245.92 371.25M241.38 347.43L254.99 347.43M254.99 347.43L258.39 348.56M258.39 348.56L259.53 349.7M259.53 349.7L260.66 351.97M260.66 351.97L260.66 354.24M260.66 354.24L259.53 356.5M259.53 356.5L258.39 357.64M258.39 357.64L254.99 358.77M254.99 347.43L257.26 348.56M257.26 348.56L258.39 349.7M258.39 349.7L259.53 351.97M259.53 351.97L259.53 354.24M259.53 354.24L258.39 356.5M258.39 356.5L257.26 357.64M257.26 357.64L254.99 358.77M245.92 358.77L254.99 358.77M254.99 358.77L258.39 359.91M258.39 359.91L259.53 361.04M259.53 361.04L260.66 363.31M260.66 363.31L260.66 366.71M260.66 366.71L259.53 368.98M259.53 368.98L258.39 370.12M258.39 370.12L254.99 371.25M254.99 371.25L241.38 371.25M254.99 358.77L257.26 359.91M257.26 359.91L258.39 361.04M258.39 361.04L259.53 363.31M259.53 363.31L259.53 366.71M259.53 366.71L258.39 368.98M258.39 368.98L257.26 370.12M257.26 370.12L254.99 371.25M269.74 371.25L269.74 347.43M270.87 347.43L270.87 371.25M266.33 347.43L274.27 347.43M266.33 371.25L283.35 371.25M283.35 371.25L283.35 364.44M283.35 364.44L282.21 371.25M296.96 347.43L289.02 371.25M296.96 347.43L304.9 371.25M296.96 350.83L303.76 371.25M291.29 364.44L301.5 364.44M286.75 371.25L293.56 371.25M300.36 371.25L307.17 371.25M326.45 350.83L327.58 354.24M327.58 354.24L327.58 347.43M327.58 347.43L326.45 350.83M326.45 350.83L324.18 348.56M324.18 348.56L320.78 347.43M320.78 347.43L318.51 347.43M318.51 347.43L315.11 348.56M315.11 348.56L312.84 350.83M312.84 350.83L311.7 353.1M311.7 353.1L310.57 356.5M310.57 356.5L310.57 362.18M310.57 362.18L311.7 365.58M311.7 365.58L312.84 367.85M312.84 367.85L315.11 370.12M315.11 370.12L318.51 371.25M318.51 371.25L320.78 371.25M320.78 371.25L324.18 370.12M324.18 370.12L326.45 367.85M326.45 367.85L327.58 365.58M318.51 347.43L316.24 348.56M316.24 348.56L313.97 350.83M313.97 350.83L312.84 353.1M312.84 353.1L311.7 356.5M311.7 356.5L311.7 362.18M311.7 362.18L312.84 365.58M312.84 365.58L313.97 367.85M313.97 367.85L316.24 370.12M316.24 370.12L318.51 371.25M337.79 371.25L337.79 347.43M338.93 347.43L338.93 371.25M353.67 347.43L338.93 362.18M344.6 357.64L353.67 371.25M343.46 357.64L352.54 371.25M334.39 347.43L342.33 347.43M349.13 347.43L355.94 347.43M334.39 371.25L342.33 371.25M349.13 371.25L355.94 371.25"/>
<path d="M159.18 194.03L160.99 193.12M160.99 193.12L163.71 190.4M163.71 190.4L163.71 209.45"/>
<path d="M429.03 194.94L429.03 194.03M429.03 194.03L429.93 192.21M429.93 192.21L430.84 191.31M430.84 191.31L432.66 190.4M432.66 190.4L436.29 190.4M436.29 190.4L438.1 191.31M438.1 191.31L439.01 192.21M439.01 192.21L439.91 194.03M439.91 194.03L439.91 195.84M439.91 195.84L439.01 197.66M439.01 197.66L437.19 200.38M437.19 200.38L428.12 209.45M428.12 209.45L440.82 209.45"/>
<path d="M273.4 321.52L274.72 323.04M274.72 323.04L276.65 323.61"/>
<path d="M273.4 321.52L266.16 310.09"/>
<path d="M298.55 290.47L295.36 293.62"/>
<path d="M277.23 310.09L284.93 306.63M284.93 306.63L291.19 300.96M291.19 300.96L295.36 293.62"/>
<path d="M266.16 310.09L277.23 310.09"/>
<path d="M241.25 293.33L244.93 300.5M244.93 300.5L250.78 306.06M250.78 306.06L258.13 309.38M258.13 309.38L266.16 310.09"/>
<path d="M241.25 293.33L239.34 288.11M239.34 288.11L234.9 284.76"/>
<path d="M358.16 285.84L356.83 286.92M356.83 286.92L356.4 288.59"/>
<path d="M332.88 309.98L341.49 308.55M341.49 308.55L348.94 304.01M348.94 304.01L354.16 297.02M354.16 297.02L356.4 288.59"/>
<path d="M332.88 309.98L328.38 312.92M328.38 312.92L325.68 317.57"/>
<path d="M322.41 323.61L324.63 320.91M324.63 320.91L325.68 317.57"/>
<path d="M276.65 323.61L322.41 323.61"/>
<path d="M273 285.53L262.11 285.53"/>
<path d="M336.98 290.47L362.19 284.76"/>
<path d="M276.57 273.36L276.57 281.96"/>
<path d="M298.55 290.47L336.98 290.47"/>
<path d="M258.54 281.96L258.54 271.63"/>
<path d="M273 285.53L275.52 284.48M275.52 284.48L276.57 281.96"/>
<path d="M258.54 281.96L259.59 284.48M259.59 284.48L262.11 285.53"/>
<path d="M279.65 269.12L277.6 270.87M277.6 270.87L276.57 273.36"/>
<path d="M258.54 271.63L257.66 268.82M257.66 268.82L255.47 266.86"/>
<path d="M262.22 289.87L273.81 289.87"/>
<path d="M280.96 282.72L280.96 273.75"/>
<path d="M255.07 272.54L255.07 282.72"/>
<path d="M273.81 289.87L277.38 288.91M277.38 288.91L280 286.3M280 286.3L280.96 282.72"/>
<path d="M255.07 282.72L256.03 286.3M256.03 286.3L258.65 288.91M258.65 288.91L262.22 289.87"/>
<path d="M255.07 272.54L254.65 271.39M254.65 271.39L253.59 270.78"/>
<path d="M284.24 272.93L280.96 273.75"/>
<path d="M256.54 267.05L270.35 268.66M270.35 268.66L284.24 269.16"/>
<path d="M308.91 280.27L287.81 280.27"/>
<path d="M312.48 273.04L327.84 273.35M327.84 273.35L343.01 270.87"/>
<path d="M312.48 269.39L312.48 276.7"/>
<path d="M284.24 276.7L284.24 269.16"/>
<path d="M308.91 280.27L311.44 279.23M311.44 279.23L312.48 276.7"/>
<path d="M284.24 276.7L285.28 279.23M285.28 279.23L287.81 280.27"/>
<path d="M284.24 269.16L291.18 269.16"/>
<path d="M319.38 269.39L340.55 267.05"/>
<path d="M305.58 269.39L319.38 269.39"/>
<path d="M291.18 256.37L291.18 272.76M291.18 272.76L305.58 272.76M305.58 272.76L305.58 256.37M305.58 256.37L291.18 256.37"/>
<path d="M298.55 78.75L355.26 78.75"/>
<path d="M378.48 101.97L378.48 132.24"/>
<path d="M378.48 101.97L376.72 93.09M376.72 93.09L371.68 85.55M371.68 85.55L364.15 80.52M364.15 80.52L355.26 78.75"/>
<path d="M298.55 89.19L349.26 89.19"/>
<path d="M363.55 103.49L363.55 141.65"/>
<path d="M363.55 103.49L361.63 96.34M361.63 96.34L356.4 91.11M356.4 91.11L349.26 89.19"/>
<path d="M298.55 93.43L348.42 93.43"/>
<path d="M359.13 104.15L359.13 144.3"/>
<path d="M359.13 104.15L357.7 98.79M357.7 98.79L353.77 94.87M353.77 94.87L348.42 93.43"/>
<path d="M407.5 223.3L407.5 177.14"/>
<path d="M390.95 220.36L390.95 184.16"/>
<path d="M386.74 219.42L386.74 185.69"/>
<path d="M407.5 177.14L401.19 160.75M401.19 160.75L391.6 146.03M391.6 146.03L379.15 133.63"/>
<path d="M390.95 184.16L387.63 172.05M387.63 172.05L381.92 160.88M381.92 160.88L374.05 151.1M374.05 151.1L364.35 143.14"/>
<path d="M386.74 185.69L383.42 173.79M383.42 173.79L377.67 162.87M377.67 162.87L369.73 153.4M369.73 153.4L359.98 145.82"/>
<path d="M359.13 144.3L359.36 145.17M359.36 145.17L359.98 145.82"/>
<path d="M363.55 141.65L363.76 142.49M363.76 142.49L364.35 143.14"/>
<path d="M378.48 132.24L378.66 133.01M378.66 133.01L379.15 133.63"/>
<path d="M298.55 142.34L356.63 142.34"/>
<path d="M356.63 142.34L358.4 141.61M358.4 141.61L359.13 139.84"/>
<path d="M298.55 98.52L343.39 98.52"/>
<path d="M348.75 103.88L348.75 113.78"/>
<path d="M348.75 103.88L347.18 100.09M347.18 100.09L343.39 98.52"/>
<path d="M348.75 106.81L298.55 106.81"/>
<path d="M337.61 142.34L337.61 112.16"/>
<path d="M337.61 112.16L336.04 108.38M336.04 108.38L332.25 106.81"/>
<path d="M348.75 113.78L344.11 113.84M344.11 113.84L340.07 116.12M340.07 116.12L337.61 120.05"/>
<path d="M337.61 132.95L322.63 132.95"/>
<path d="M322.06 132.95L322.06 142.34"/>
<path d="M319.06 136.53L319.06 139.7"/>
<path d="M318.34 140.42L298.55 140.42"/>
<path d="M322.63 132.95L320.1 134M320.1 134L319.06 136.53"/>
<path d="M318.34 140.42L318.85 140.21M318.85 140.21L319.06 139.7"/>
<path d="M322.28 106.81L322.28 123.67"/>
<path d="M322.28 123.67L298.55 123.67"/>
<path d="M362.19 284.76L375.99 276.78M375.99 276.78L387.86 266.15M387.86 266.15L397.32 253.32M397.32 253.32L403.96 238.84M403.96 238.84L407.5 223.3"/>
<path d="M343.01 270.87L357.28 266.56M357.28 266.56L369.97 258.74M369.97 258.74L380.23 247.92M380.23 247.92L387.39 234.84M387.39 234.84L390.95 220.36"/>
<path d="M340.55 267.05L354.12 262.96M354.12 262.96L366.22 255.59M366.22 255.59L376.08 245.42M376.08 245.42L383.07 233.1M383.07 233.1L386.74 219.42"/>
<path d="M373.93 186.61L370.17 175.35M370.17 175.35L363.47 165.56M363.47 165.56L354.36 157.96M354.36 157.96L343.52 153.15M343.52 153.15L331.77 151.48"/>
<path d="M331.77 151.48L315.19 149.99M315.19 149.99L298.55 149.97"/>
<path d="M373.93 186.61L373.93 221.06"/>
<path d="M331.77 256.2L343.52 254.53M343.52 254.53L354.36 249.71M354.36 249.71L363.47 242.12M363.47 242.12L370.17 232.32M370.17 232.32L373.93 221.06"/>
<path d="M298.55 256.17L331.77 256.2"/>
<path d="M366.55 187.87L366.55 218.68"/>
<path d="M366.55 187.87L363.06 178.22M363.06 178.22L357.07 169.89M357.07 169.89L349.04 163.49M349.04 163.49L339.57 159.53M339.57 159.53L329.38 158.28"/>
<path d="M329.38 158.28L314.02 156.53M314.02 156.53L298.55 156.42"/>
<path d="M329.38 248.27L339.57 247.02M339.57 247.02L349.04 243.06M349.04 243.06L357.07 236.66M357.07 236.66L363.06 228.33M363.06 228.33L366.55 218.68"/>
<path d="M298.55 250.13L314.02 250.02M314.02 250.02L329.38 248.27"/>
<path d="M358.54 190.44L358.54 216.16"/>
<path d="M358.54 190.44L356.12 181.77M356.12 181.77L350.88 174.46M350.88 174.46L343.45 169.38M343.45 169.38L334.73 167.17"/>
<path d="M334.73 167.17L316.7 165.05M316.7 165.05L298.55 164.88"/>
<path d="M334.73 239.43L343.45 237.22M343.45 237.22L350.88 232.15M350.88 232.15L356.12 224.83M356.12 224.83L358.54 216.16"/>
<path d="M298.55 241.72L316.7 241.55M316.7 241.55L334.73 239.43"/>
<path d="M353.79 188.97L353.79 219.41"/>
<path d="M353.79 188.97L350.41 181.17M350.41 181.17L344.31 175.25M344.31 175.25L336.4 172.12"/>
<path d="M336.4 172.12L317.55 169.74M317.55 169.74L298.55 169.68"/>
<path d="M334.55 234.45L342.88 232.28M342.88 232.28L349.67 226.97M349.67 226.97L353.79 219.41"/>
<path d="M298.55 236.04L316.58 236.01M316.58 236.01L334.55 234.45"/>
<path d="M347.73 203.75L347.73 225.45M347.73 225.45L310.89 225.45M310.89 225.45L310.89 203.75M310.89 203.75L347.73 203.75"/>
<path d="M337.2 208.88L341.52 208.88M341.52 208.88L341.52 219.01M341.52 219.01L317.32 219.01M317.32 219.01L317.32 208.88M317.32 208.88L321.63 208.88"/>
<path d="M341.52 208.88L347.73 203.75"/>
<path d="M317.32 208.88L310.89 203.75"/>
<path d="M317.32 219.01L310.89 225.45"/>
<path d="M341.52 219.01L347.73 225.45"/>
<path d="M337.2 208.88L337.2 203.75"/>
<path d="M321.63 208.88L321.63 203.75"/>
<path d="M338.91 203.75L338.91 178.02"/>
<path d="M338.91 178.02L319.59 178.02"/>
<path d="M319.59 178.02L319.59 203.75"/>
<path d="M338.91 192.74L319.59 192.74"/>
<path d="M338.91 190.44L319.59 190.44"/>
<path d="M338.91 185.91L319.59 185.91"/>
<path d="M338.91 180.88L319.59 180.88"/>
<path d="M298.55 174.05L312.09 174.05"/>
<path d="M312.09 174.05L312.09 186.58"/>
<path d="M312.09 186.58L305.1 196.18"/>
<path d="M305.1 196.18L305.1 215.96"/>
<path d="M298.55 220.96L302.54 219.4M302.54 219.4L305.1 215.96"/>
<path d="M312.09 177.47L298.55 177.47"/>
<path d="M312.09 183.54L298.55 183.54"/>
<path d="M305.1 196.95L310.83 196.95"/>
<path d="M310.83 196.95L310.83 188.32"/>
<path d="M310.83 194.14L314.68 189.37"/>
<path d="M314.68 189.37L314.68 185.43"/>
<path d="M314.68 185.43L312.09 185.43"/>
<path d="M298.55 197.76L302.13 207.76"/>
<path d="M298.55 211.23L300.74 209.9M300.74 209.9L302.13 207.76"/>
<path d="M294.96 207.76L296.36 209.9M296.36 209.9L298.55 211.23"/>
<path d="M298.55 197.76L294.96 207.76"/>
<path d="M282.41 185.43L285 185.43"/>
<path d="M282.41 189.37L282.41 185.43"/>
<path d="M286.27 194.14L282.41 189.37"/>
<path d="M286.27 196.95L286.27 188.32"/>
<path d="M292 196.95L286.27 196.95"/>
<path d="M285 183.54L298.55 183.54"/>
<path d="M285 177.47L298.55 177.47"/>
<path d="M292 215.96L294.56 219.4M294.56 219.4L298.55 220.96"/>
<path d="M292 196.18L292 215.96"/>
<path d="M285 186.58L292 196.18"/>
<path d="M285 174.05L285 186.58"/>
<path d="M298.55 174.05L285 174.05"/>
<path d="M258.18 180.88L277.5 180.88"/>
<path d="M258.18 185.91L277.5 185.91"/>
<path d="M258.18 190.44L277.5 190.44"/>
<path d="M258.18 192.74L277.5 192.74"/>
<path d="M277.5 178.02L277.5 203.75"/>
<path d="M258.18 178.02L277.5 178.02"/>
<path d="M258.18 203.75L258.18 178.02"/>
<path d="M275.46 208.88L275.46 203.75"/>
<path d="M259.89 208.88L259.89 203.75"/>
<path d="M255.58 219.01L249.36 225.45"/>
<path d="M279.78 219.01L286.21 225.45"/>
<path d="M279.78 208.88L286.21 203.75"/>
<path d="M255.58 208.88L249.36 203.75"/>
<path d="M259.89 208.88L255.58 208.88M255.58 208.88L255.58 219.01M255.58 219.01L279.78 219.01M279.78 219.01L279.78 208.88M279.78 208.88L275.46 208.88"/>
<path d="M249.36 203.75L249.36 225.45M249.36 225.45L286.21 225.45M286.21 225.45L286.21 203.75M286.21 203.75L249.36 203.75"/>
<path d="M262.54 234.45L280.51 236.01M280.51 236.01L298.55 236.04"/>
<path d="M243.3 219.41L247.43 226.97M247.43 226.97L254.21 232.28M254.21 232.28L262.54 234.45"/>
<path d="M298.55 169.68L279.54 169.74M279.54 169.74L260.69 172.12"/>
<path d="M260.69 172.12L252.79 175.25M252.79 175.25L246.68 181.17M246.68 181.17L243.3 188.97"/>
<path d="M243.3 188.97L243.3 219.41"/>
<path d="M262.37 239.43L280.4 241.55M280.4 241.55L298.55 241.72"/>
<path d="M238.56 216.16L240.97 224.83M240.97 224.83L246.21 232.15M246.21 232.15L253.64 237.22M253.64 237.22L262.37 239.43"/>
<path d="M298.55 164.88L280.4 165.05M280.4 165.05L262.37 167.17"/>
<path d="M262.37 167.17L253.64 169.38M253.64 169.38L246.21 174.46M246.21 174.46L240.97 181.77M240.97 181.77L238.56 190.44"/>
<path d="M238.56 190.44L238.56 216.16"/>
<path d="M267.71 248.27L283.08 250.02M283.08 250.02L298.55 250.13"/>
<path d="M230.54 218.68L234.04 228.33M234.04 228.33L240.02 236.66M240.02 236.66L248.05 243.06M248.05 243.06L257.52 247.02M257.52 247.02L267.71 248.27"/>
<path d="M298.55 156.42L283.08 156.53M283.08 156.53L267.71 158.28"/>
<path d="M267.71 158.28L257.52 159.53M257.52 159.53L248.05 163.49M248.05 163.49L240.02 169.89M240.02 169.89L234.04 178.22M234.04 178.22L230.54 187.87"/>
<path d="M230.54 187.87L230.54 218.68"/>
<path d="M265.32 256.2L298.55 256.17"/>
<path d="M223.17 221.06L226.93 232.32M226.93 232.32L233.62 242.12M233.62 242.12L242.73 249.71M242.73 249.71L253.58 254.53M253.58 254.53L265.32 256.2"/>
<path d="M223.17 186.61L223.17 221.06"/>
<path d="M298.55 149.97L281.9 149.99M281.9 149.99L265.32 151.48"/>
<path d="M265.32 151.48L253.58 153.15M253.58 153.15L242.73 157.96M242.73 157.96L233.62 165.56M233.62 165.56L226.93 175.35M226.93 175.35L223.17 186.61"/>
<path d="M210.35 219.42L214.02 233.1M214.02 233.1L221.01 245.42M221.01 245.42L230.87 255.59M230.87 255.59L242.98 262.96M242.98 262.96L256.54 267.05"/>
<path d="M206.15 220.36L209.67 234.75M209.67 234.75L216.74 247.76M216.74 247.76L226.89 258.55M226.89 258.55L239.45 266.39M239.45 266.39L253.59 270.78"/>
<path d="M189.59 223.3L193.13 238.84M193.13 238.84L199.77 253.32M199.77 253.32L209.23 266.15M209.23 266.15L221.1 276.78M221.1 276.78L234.9 284.76"/>
<path d="M274.81 123.67L298.55 123.67"/>
<path d="M274.81 106.81L274.81 123.67"/>
<path d="M278.04 139.7L278.25 140.21M278.25 140.21L278.75 140.42"/>
<path d="M278.04 136.53L276.99 134M276.99 134L274.46 132.95"/>
<path d="M278.75 140.42L298.55 140.42"/>
<path d="M278.04 136.53L278.04 139.7"/>
<path d="M275.04 132.95L275.04 142.34"/>
<path d="M259.49 132.95L274.46 132.95"/>
<path d="M259.49 120.05L257.03 116.12M257.03 116.12L252.98 113.84M252.98 113.84L248.34 113.78"/>
<path d="M264.85 106.81L261.06 108.38M261.06 108.38L259.49 112.16"/>
<path d="M259.49 142.34L259.49 112.16"/>
<path d="M248.34 106.81L298.55 106.81"/>
<path d="M253.7 98.52L249.91 100.09M249.91 100.09L248.34 103.88"/>
<path d="M248.34 103.88L248.34 113.78"/>
<path d="M298.55 98.52L253.7 98.52"/>
<path d="M237.96 139.84L238.69 141.61M238.69 141.61L240.46 142.34"/>
<path d="M298.55 142.34L240.46 142.34"/>
<path d="M217.94 133.63L218.43 133.01M218.43 133.01L218.61 132.24"/>
<path d="M232.74 143.14L233.33 142.49M233.33 142.49L233.54 141.65"/>
<path d="M237.11 145.82L237.73 145.17M237.73 145.17L237.96 144.3"/>
<path d="M237.11 145.82L227.36 153.4M227.36 153.4L219.42 162.87M219.42 162.87L213.67 173.79M213.67 173.79L210.35 185.69"/>
<path d="M232.74 143.14L223.05 151.1M223.05 151.1L215.18 160.88M215.18 160.88L209.46 172.05M209.46 172.05L206.15 184.16"/>
<path d="M217.94 133.63L205.5 146.03M205.5 146.03L195.91 160.75M195.91 160.75L189.59 177.14"/>
<path d="M210.35 219.42L210.35 185.69"/>
<path d="M206.15 220.36L206.15 184.16"/>
<path d="M189.59 223.3L189.59 177.14"/>
<path d="M248.68 93.43L243.32 94.87M243.32 94.87L239.4 98.79M239.4 98.79L237.96 104.15"/>
<path d="M237.96 104.15L237.96 144.3"/>
<path d="M298.55 93.43L248.68 93.43"/>
<path d="M247.84 89.19L240.69 91.11M240.69 91.11L235.46 96.34M235.46 96.34L233.54 103.49"/>
<path d="M233.54 103.49L233.54 141.65"/>
<path d="M298.55 89.19L247.84 89.19"/>
<path d="M241.83 78.75L232.95 80.52M232.95 80.52L225.41 85.55M225.41 85.55L220.38 93.09M220.38 93.09L218.61 101.97"/>
<path d="M218.61 101.97L218.61 132.24"/>
<path d="M298.55 78.75L241.83 78.75"/>
</g>
</g>
</svg>
