<?xml version="1.0" standalone="no"?><svg xmlns="http://www.w3.org/2000/svg" width="600.000" height="450.000" viewBox="0.0 0.0 600.000 450.000" version="1.1">
<title>Acme Converter - Post-processed with EDS-Designer: 14.44 (info@symca.com)</title>
<desc>Acme Converter - Post-processed with EDS-Designer: 14.44 (info@symca.com)</desc>
<g id="EDS_STYLE_GROUP" fill="none" stroke="black" stroke-width="1.0">
<g id="0" display="visible">
<path d="M234.82 223.02L362.69 223.02"/>
<path d="M254.49 218.1L343.02 218.1"/>
<path d="M234.82 193.51L362.69 193.51"/>
<path d="M234.82 188.6L362.69 188.6"/>
<path d="M175.8 336.14L411.87 336.14"/>
<path d="M190.56 331.22L406.95 331.22"/>
<path d="M190.56 326.3L406.95 326.3"/>
<path d="M338.1 282.04L347.94 282.04"/>
<path d="M343.02 306.63L333.18 306.63"/>
<path d="M347.94 272.2L338.1 272.2"/>
<path d="M338.1 237.78L343.02 237.78"/>
<path d="M343.02 242.69L338.1 242.69"/>
<path d="M338.1 252.53L343.02 252.53"/>
<path d="M313.51 213.19L343.02 213.19"/>
<path d="M352.85 173.84L333.18 173.84"/>
<path d="M185.64 109.91L411.87 109.91"/>
<path d="M323.35 159.09L362.69 159.09"/>
<path d="M357.77 154.17L328.26 154.17"/>
<path d="M323.35 114.82L362.69 114.82"/>
<path d="M362.69 124.66L323.35 124.66"/>
<path d="M333.18 168.92L352.85 168.92"/>
<path d="M338.1 124.66L347.94 124.66"/>
<path d="M338.1 104.99L347.94 104.99"/>
<path d="M333.18 173.84L333.18 154.17"/>
<path d="M288.92 173.84L288.92 154.17"/>
<path d="M308.59 154.17L308.59 173.84"/>
<path d="M264.33 154.17L264.33 173.84"/>
<path d="M244.66 173.84L244.66 154.17"/>
<path d="M200.4 173.84L200.4 154.17"/>
<path d="M220.07 154.17L220.07 173.84"/>
<path d="M185.64 114.82L185.64 331.22"/>
<path d="M175.8 70.56L175.8 336.14"/>
<path d="M195.48 159.09L195.48 168.92"/>
<path d="M224.99 159.09L224.99 168.92"/>
<path d="M239.74 159.09L239.74 168.92"/>
<path d="M284 159.09L284 168.92"/>
<path d="M269.25 159.09L269.25 168.92"/>
<path d="M313.51 159.09L313.51 168.92"/>
<path d="M328.26 159.09L328.26 168.92"/>
<path d="M195.48 341.05L224.99 341.05"/>
<path d="M234.82 277.12L190.56 277.12"/>
<path d="M229.9 272.2L190.56 272.2"/>
<path d="M229.9 227.94L190.56 227.94"/>
<path d="M195.48 232.86L224.99 232.86"/>
<path d="M190.56 262.37L229.9 262.37"/>
<path d="M220.07 218.1L200.4 218.1"/>
<path d="M215.15 262.37L205.31 262.37"/>
<path d="M220.07 173.84L200.4 173.84"/>
<path d="M200.4 213.19L220.07 213.19"/>
<path d="M200.4 168.92L220.07 168.92"/>
<path d="M190.56 227.94L190.56 262.37"/>
<path d="M205.31 262.37L205.31 242.69"/>
<path d="M190.56 277.12L190.56 326.3"/>
<path d="M190.56 341.05L190.56 336.14"/>
<path d="M185.64 331.22L185.64 336.14"/>
<path d="M185.64 336.14L185.64 341.05"/>
<path d="M185.64 341.05L190.56 341.05"/>
<path d="M190.56 326.3L190.56 331.22"/>
<path d="M200.4 321.38L200.4 316.46"/>
<path d="M195.48 316.46L195.48 321.38"/>
<path d="M195.48 336.14L195.48 341.05"/>
<path d="M195.48 321.38L200.4 321.38"/>
<path d="M210.23 316.46L205.31 316.46"/>
<path d="M205.31 311.55L210.23 311.55"/>
<path d="M205.31 316.46L205.31 311.55"/>
<path d="M200.4 316.46L195.48 316.46"/>
<path d="M210.23 311.55L210.23 316.46"/>
<path d="M195.48 262.37L195.48 272.2"/>
<path d="M190.56 272.2L190.56 262.37"/>
<path d="M200.4 282.04L210.23 282.04"/>
<path d="M210.23 301.71L205.31 301.71"/>
<path d="M200.4 301.71L200.4 282.04"/>
<path d="M195.48 301.71L200.4 301.71"/>
<path d="M210.23 282.04L210.23 301.71"/>
<path d="M205.31 306.63L195.48 306.63"/>
<path d="M205.31 301.71L205.31 306.63"/>
<path d="M195.48 306.63L195.48 301.71"/>
<path d="M190.56 218.1L190.56 208.27"/>
<path d="M200.4 232.86L200.4 213.19"/>
<path d="M200.4 218.1L190.56 218.1"/>
<path d="M195.48 223.02L190.56 223.02"/>
<path d="M190.56 223.02L190.56 227.94"/>
<path d="M195.48 242.69L195.48 232.86"/>
<path d="M205.31 242.69L195.48 242.69"/>
<path d="M195.48 227.94L195.48 218.1"/>
<path d="M190.56 168.92L190.56 178.76"/>
<path d="M190.56 208.27L200.4 208.27"/>
<path d="M190.56 178.76L200.4 178.76"/>
<path d="M200.4 208.27L200.4 213.19"/>
<path d="M200.4 178.76L200.4 173.84"/>
<path d="M200.4 168.92L190.56 168.92"/>
<path d="M234.82 277.12L234.82 188.6"/>
<path d="M259.41 272.2L259.41 252.53"/>
<path d="M249.58 252.53L249.58 272.2"/>
<path d="M239.74 272.2L239.74 252.53"/>
<path d="M269.25 252.53L269.25 272.2"/>
<path d="M279.08 272.2L279.08 252.53"/>
<path d="M215.15 242.69L215.15 262.37"/>
<path d="M229.9 262.37L229.9 227.94"/>
<path d="M288.92 252.53L288.92 272.2"/>
<path d="M318.43 272.2L318.43 252.53"/>
<path d="M308.59 252.53L308.59 272.2"/>
<path d="M298.76 272.2L298.76 252.53"/>
<path d="M338.1 272.2L338.1 252.53"/>
<path d="M328.26 252.53L328.26 272.2"/>
<path d="M274.17 321.38L279.08 321.38"/>
<path d="M279.08 316.46L274.17 316.46"/>
<path d="M274.17 301.71L279.08 301.71"/>
<path d="M284 306.63L274.17 306.63"/>
<path d="M220.07 321.38L220.07 316.46"/>
<path d="M215.15 316.46L215.15 321.38"/>
<path d="M215.15 321.38L220.07 321.38"/>
<path d="M220.07 316.46L215.15 316.46"/>
<path d="M234.82 316.46L234.82 321.38"/>
<path d="M239.74 321.38L239.74 316.46"/>
<path d="M234.82 321.38L239.74 321.38"/>
<path d="M224.99 341.05L224.99 336.14"/>
<path d="M239.74 316.46L234.82 316.46"/>
<path d="M229.9 311.55L229.9 316.46"/>
<path d="M224.99 316.46L224.99 311.55"/>
<path d="M224.99 311.55L229.9 311.55"/>
<path d="M229.9 316.46L224.99 316.46"/>
<path d="M254.49 321.38L259.41 321.38"/>
<path d="M259.41 316.46L254.49 316.46"/>
<path d="M254.49 316.46L254.49 321.38"/>
<path d="M249.58 311.55L249.58 316.46"/>
<path d="M244.66 316.46L244.66 311.55"/>
<path d="M244.66 311.55L249.58 311.55"/>
<path d="M249.58 316.46L244.66 316.46"/>
<path d="M269.25 316.46L264.33 316.46"/>
<path d="M264.33 311.55L269.25 311.55"/>
<path d="M259.41 321.38L259.41 316.46"/>
<path d="M264.33 316.46L264.33 311.55"/>
<path d="M274.17 316.46L274.17 321.38"/>
<path d="M274.17 341.05L274.17 336.14"/>
<path d="M269.25 336.14L269.25 341.05"/>
<path d="M269.25 341.05L274.17 341.05"/>
<path d="M269.25 311.55L269.25 316.46"/>
<path d="M239.74 282.04L249.58 282.04"/>
<path d="M249.58 272.2L239.74 272.2"/>
<path d="M244.66 306.63L234.82 306.63"/>
<path d="M224.99 262.37L224.99 272.2"/>
<path d="M229.9 262.37L229.9 272.2"/>
<path d="M220.07 282.04L229.9 282.04"/>
<path d="M224.99 306.63L215.15 306.63"/>
<path d="M220.07 301.71L220.07 282.04"/>
<path d="M215.15 301.71L220.07 301.71"/>
<path d="M215.15 306.63L215.15 301.71"/>
<path d="M234.82 301.71L239.74 301.71"/>
<path d="M229.9 282.04L229.9 301.71"/>
<path d="M229.9 301.71L224.99 301.71"/>
<path d="M239.74 301.71L239.74 282.04"/>
<path d="M234.82 306.63L234.82 301.71"/>
<path d="M224.99 301.71L224.99 306.63"/>
<path d="M254.49 301.71L259.41 301.71"/>
<path d="M264.33 306.63L254.49 306.63"/>
<path d="M249.58 282.04L249.58 301.71"/>
<path d="M249.58 301.71L244.66 301.71"/>
<path d="M254.49 306.63L254.49 301.71"/>
<path d="M244.66 301.71L244.66 306.63"/>
<path d="M259.41 282.04L269.25 282.04"/>
<path d="M269.25 272.2L259.41 272.2"/>
<path d="M269.25 301.71L264.33 301.71"/>
<path d="M259.41 301.71L259.41 282.04"/>
<path d="M269.25 282.04L269.25 301.71"/>
<path d="M264.33 301.71L264.33 306.63"/>
<path d="M274.17 306.63L274.17 301.71"/>
<path d="M308.59 341.05L313.51 341.05"/>
<path d="M288.92 316.46L284 316.46"/>
<path d="M284 311.55L288.92 311.55"/>
<path d="M284 316.46L284 311.55"/>
<path d="M279.08 321.38L279.08 316.46"/>
<path d="M293.84 316.46L293.84 321.38"/>
<path d="M298.76 321.38L298.76 316.46"/>
<path d="M293.84 321.38L298.76 321.38"/>
<path d="M308.59 336.14L308.59 341.05"/>
<path d="M298.76 316.46L293.84 316.46"/>
<path d="M288.92 311.55L288.92 316.46"/>
<path d="M308.59 311.55L308.59 316.46"/>
<path d="M303.67 316.46L303.67 311.55"/>
<path d="M303.67 311.55L308.59 311.55"/>
<path d="M308.59 316.46L303.67 316.46"/>
<path d="M318.43 321.38L318.43 316.46"/>
<path d="M313.51 316.46L313.51 321.38"/>
<path d="M313.51 341.05L313.51 336.14"/>
<path d="M313.51 321.38L318.43 321.38"/>
<path d="M318.43 316.46L313.51 316.46"/>
<path d="M338.1 321.38L338.1 316.46"/>
<path d="M333.18 316.46L333.18 321.38"/>
<path d="M333.18 321.38L338.1 321.38"/>
<path d="M323.35 311.55L328.26 311.55"/>
<path d="M328.26 316.46L323.35 316.46"/>
<path d="M323.35 316.46L323.35 311.55"/>
<path d="M328.26 311.55L328.26 316.46"/>
<path d="M338.1 316.46L333.18 316.46"/>
<path d="M288.92 301.71L284 301.71"/>
<path d="M279.08 282.04L288.92 282.04"/>
<path d="M288.92 272.2L279.08 272.2"/>
<path d="M284 301.71L284 306.63"/>
<path d="M279.08 301.71L279.08 282.04"/>
<path d="M293.84 301.71L298.76 301.71"/>
<path d="M288.92 282.04L288.92 301.71"/>
<path d="M298.76 301.71L298.76 282.04"/>
<path d="M308.59 282.04L308.59 301.71"/>
<path d="M308.59 301.71L303.67 301.71"/>
<path d="M298.76 282.04L308.59 282.04"/>
<path d="M308.59 272.2L298.76 272.2"/>
<path d="M303.67 306.63L293.84 306.63"/>
<path d="M293.84 306.63L293.84 301.71"/>
<path d="M303.67 301.71L303.67 306.63"/>
<path d="M318.43 282.04L328.26 282.04"/>
<path d="M328.26 272.2L318.43 272.2"/>
<path d="M323.35 306.63L313.51 306.63"/>
<path d="M318.43 301.71L318.43 282.04"/>
<path d="M313.51 301.71L318.43 301.71"/>
<path d="M313.51 306.63L313.51 301.71"/>
<path d="M328.26 301.71L323.35 301.71"/>
<path d="M338.1 301.71L338.1 282.04"/>
<path d="M328.26 282.04L328.26 301.71"/>
<path d="M333.18 301.71L338.1 301.71"/>
<path d="M323.35 301.71L323.35 306.63"/>
<path d="M333.18 306.63L333.18 301.71"/>
<path d="M254.49 213.19L279.08 213.19"/>
<path d="M220.07 213.19L220.07 232.86"/>
<path d="M229.9 218.1L229.9 208.27"/>
<path d="M254.49 193.51L254.49 223.02"/>
<path d="M244.66 242.69L239.74 242.69"/>
<path d="M239.74 237.78L244.66 237.78"/>
<path d="M239.74 252.53L244.66 252.53"/>
<path d="M224.99 242.69L215.15 242.69"/>
<path d="M220.07 218.1L229.9 218.1"/>
<path d="M224.99 232.86L224.99 242.69"/>
<path d="M239.74 242.69L239.74 237.78"/>
<path d="M229.9 223.02L229.9 227.94"/>
<path d="M224.99 223.02L229.9 223.02"/>
<path d="M224.99 227.94L224.99 218.1"/>
<path d="M254.49 237.78L254.49 232.86"/>
<path d="M254.49 247.61L254.49 252.53"/>
<path d="M249.58 232.86L249.58 237.78"/>
<path d="M244.66 237.78L244.66 242.69"/>
<path d="M244.66 252.53L244.66 247.61"/>
<path d="M249.58 237.78L254.49 237.78"/>
<path d="M244.66 247.61L254.49 247.61"/>
<path d="M254.49 252.53L249.58 252.53"/>
<path d="M254.49 232.86L249.58 232.86"/>
<path d="M274.17 237.78L274.17 232.86"/>
<path d="M269.25 232.86L269.25 237.78"/>
<path d="M264.33 247.61L274.17 247.61"/>
<path d="M264.33 237.78L264.33 242.69"/>
<path d="M264.33 252.53L264.33 247.61"/>
<path d="M259.41 242.69L259.41 237.78"/>
<path d="M259.41 237.78L264.33 237.78"/>
<path d="M264.33 242.69L259.41 242.69"/>
<path d="M259.41 252.53L264.33 252.53"/>
<path d="M269.25 237.78L274.17 237.78"/>
<path d="M274.17 252.53L269.25 252.53"/>
<path d="M274.17 247.61L274.17 252.53"/>
<path d="M274.17 232.86L269.25 232.86"/>
<path d="M234.82 178.76L244.66 178.76"/>
<path d="M244.66 168.92L234.82 168.92"/>
<path d="M234.82 168.92L234.82 178.76"/>
<path d="M229.9 168.92L229.9 178.76"/>
<path d="M229.9 208.27L220.07 208.27"/>
<path d="M229.9 178.76L220.07 178.76"/>
<path d="M220.07 208.27L220.07 213.19"/>
<path d="M220.07 178.76L220.07 173.84"/>
<path d="M220.07 168.92L229.9 168.92"/>
<path d="M274.17 168.92L274.17 178.76"/>
<path d="M264.33 173.84L244.66 173.84"/>
<path d="M244.66 178.76L244.66 173.84"/>
<path d="M274.17 178.76L264.33 178.76"/>
<path d="M264.33 178.76L264.33 173.84"/>
<path d="M244.66 168.92L264.33 168.92"/>
<path d="M264.33 168.92L274.17 168.92"/>
<path d="M284 218.1L284 213.19"/>
<path d="M279.08 213.19L279.08 218.1"/>
<path d="M313.51 218.1L313.51 213.19"/>
<path d="M308.59 213.19L308.59 218.1"/>
<path d="M308.59 237.78L313.51 237.78"/>
<path d="M313.51 252.53L308.59 252.53"/>
<path d="M303.67 247.61L313.51 247.61"/>
<path d="M313.51 232.86L308.59 232.86"/>
<path d="M293.84 237.78L293.84 232.86"/>
<path d="M284 247.61L293.84 247.61"/>
<path d="M284 237.78L284 242.69"/>
<path d="M284 252.53L284 247.61"/>
<path d="M279.08 242.69L279.08 237.78"/>
<path d="M279.08 237.78L284 237.78"/>
<path d="M284 242.69L279.08 242.69"/>
<path d="M279.08 252.53L284 252.53"/>
<path d="M288.92 232.86L288.92 237.78"/>
<path d="M308.59 232.86L308.59 237.78"/>
<path d="M288.92 237.78L293.84 237.78"/>
<path d="M293.84 252.53L288.92 252.53"/>
<path d="M293.84 247.61L293.84 252.53"/>
<path d="M303.67 237.78L303.67 242.69"/>
<path d="M298.76 242.69L298.76 237.78"/>
<path d="M303.67 242.69L298.76 242.69"/>
<path d="M298.76 237.78L303.67 237.78"/>
<path d="M298.76 252.53L303.67 252.53"/>
<path d="M303.67 252.53L303.67 247.61"/>
<path d="M293.84 232.86L288.92 232.86"/>
<path d="M323.35 242.69L318.43 242.69"/>
<path d="M318.43 237.78L323.35 237.78"/>
<path d="M318.43 252.53L323.35 252.53"/>
<path d="M313.51 237.78L313.51 232.86"/>
<path d="M318.43 242.69L318.43 237.78"/>
<path d="M313.51 247.61L313.51 252.53"/>
<path d="M333.18 237.78L333.18 232.86"/>
<path d="M328.26 232.86L328.26 237.78"/>
<path d="M323.35 247.61L333.18 247.61"/>
<path d="M323.35 237.78L323.35 242.69"/>
<path d="M323.35 252.53L323.35 247.61"/>
<path d="M338.1 242.69L338.1 237.78"/>
<path d="M328.26 237.78L333.18 237.78"/>
<path d="M333.18 252.53L328.26 252.53"/>
<path d="M333.18 247.61L333.18 252.53"/>
<path d="M333.18 232.86L328.26 232.86"/>
<path d="M318.43 178.76L308.59 178.76"/>
<path d="M308.59 168.92L318.43 168.92"/>
<path d="M279.08 168.92L279.08 178.76"/>
<path d="M284 213.19L308.59 213.19"/>
<path d="M279.08 178.76L288.92 178.76"/>
<path d="M308.59 173.84L288.92 173.84"/>
<path d="M288.92 178.76L288.92 173.84"/>
<path d="M308.59 178.76L308.59 173.84"/>
<path d="M288.92 168.92L279.08 168.92"/>
<path d="M288.92 168.92L308.59 168.92"/>
<path d="M323.35 168.92L323.35 178.76"/>
<path d="M318.43 168.92L318.43 178.76"/>
<path d="M323.35 178.76L333.18 178.76"/>
<path d="M333.18 178.76L333.18 173.84"/>
<path d="M333.18 168.92L323.35 168.92"/>
<path d="M224.99 154.17L195.48 154.17"/>
<path d="M190.56 159.09L229.9 159.09"/>
<path d="M195.48 104.99L224.99 104.99"/>
<path d="M190.56 114.82L229.9 114.82"/>
<path d="M229.9 124.66L190.56 124.66"/>
<path d="M205.31 124.66L215.15 124.66"/>
<path d="M205.31 85.32L200.47 69.99"/>
<path d="M190.56 124.66L190.56 114.82"/>
<path d="M195.48 124.66L195.48 114.82"/>
<path d="M190.56 124.66L190.56 159.09"/>
<path d="M205.31 144.33L205.31 124.66"/>
<path d="M195.48 164L190.56 164"/>
<path d="M190.56 164L190.56 159.09"/>
<path d="M195.48 154.17L195.48 144.33"/>
<path d="M195.48 144.33L205.31 144.33"/>
<path d="M185.64 104.99L205.31 100.07"/>
<path d="M185.64 114.82L185.64 104.99"/>
<path d="M200.4 90.23L205.31 85.32"/>
<path d="M195.48 109.91L195.48 104.99"/>
<path d="M205.31 100.07L200.4 90.23"/>
<path d="M175.8 69.99L200.47 69.99"/>
<path d="M274.17 104.99L279.08 104.99"/>
<path d="M234.82 124.66L234.82 114.82"/>
<path d="M229.9 114.82L229.9 124.66"/>
<path d="M224.99 124.66L224.99 114.82"/>
<path d="M239.74 124.66L239.74 114.82"/>
<path d="M274.17 114.82L274.17 124.66"/>
<path d="M269.25 124.66L269.25 114.82"/>
<path d="M269.25 154.17L239.74 154.17"/>
<path d="M234.82 159.09L274.17 159.09"/>
<path d="M239.74 144.33L249.58 144.33"/>
<path d="M274.17 124.66L234.82 124.66"/>
<path d="M215.15 144.33L224.99 144.33"/>
<path d="M215.15 124.66L215.15 144.33"/>
<path d="M234.82 124.66L234.82 159.09"/>
<path d="M229.9 159.09L229.9 124.66"/>
<path d="M239.74 154.17L239.74 144.33"/>
<path d="M224.99 144.33L224.99 154.17"/>
<path d="M239.74 164L234.82 164"/>
<path d="M234.82 164L234.82 159.09"/>
<path d="M229.9 164L229.9 159.09"/>
<path d="M224.99 164L229.9 164"/>
<path d="M259.41 124.66L259.41 144.33"/>
<path d="M249.58 144.33L249.58 124.66"/>
<path d="M274.17 159.09L274.17 124.66"/>
<path d="M259.41 144.33L269.25 144.33"/>
<path d="M269.25 144.33L269.25 154.17"/>
<path d="M274.17 164L274.17 159.09"/>
<path d="M269.25 164L274.17 164"/>
<path d="M249.58 124.66L259.41 124.66"/>
<path d="M234.82 114.82L274.17 114.82"/>
<path d="M229.9 104.99L234.82 104.99"/>
<path d="M234.82 104.99L234.82 109.91"/>
<path d="M229.9 109.91L229.9 104.99"/>
<path d="M224.99 104.99L224.99 109.91"/>
<path d="M274.17 109.91L274.17 104.99"/>
<path d="M284 124.66L284 114.82"/>
<path d="M279.08 124.66L279.08 114.82"/>
<path d="M318.43 114.82L318.43 124.66"/>
<path d="M313.51 124.66L313.51 114.82"/>
<path d="M323.35 124.66L323.35 114.82"/>
<path d="M328.26 124.66L328.26 114.82"/>
<path d="M313.51 154.17L284 154.17"/>
<path d="M279.08 159.09L318.43 159.09"/>
<path d="M318.43 124.66L279.08 124.66"/>
<path d="M303.67 144.33L313.51 144.33"/>
<path d="M284 144.33L293.84 144.33"/>
<path d="M279.08 124.66L279.08 159.09"/>
<path d="M284 154.17L284 144.33"/>
<path d="M279.08 164L279.08 159.09"/>
<path d="M284 164L279.08 164"/>
<path d="M293.84 144.33L293.84 124.66"/>
<path d="M303.67 124.66L303.67 144.33"/>
<path d="M293.84 124.66L303.67 124.66"/>
<path d="M323.35 124.66L323.35 159.09"/>
<path d="M318.43 159.09L318.43 124.66"/>
<path d="M338.1 144.33L338.1 124.66"/>
<path d="M313.51 144.33L313.51 154.17"/>
<path d="M318.43 164L318.43 159.09"/>
<path d="M313.51 164L318.43 164"/>
<path d="M328.26 154.17L328.26 144.33"/>
<path d="M328.26 164L323.35 164"/>
<path d="M323.35 164L323.35 159.09"/>
<path d="M328.26 144.33L338.1 144.33"/>
<path d="M279.08 114.82L318.43 114.82"/>
<path d="M279.08 104.99L279.08 109.91"/>
<path d="M293.84 104.99L303.67 104.99"/>
<path d="M293.84 109.91L293.84 104.99"/>
<path d="M303.67 104.99L303.67 109.91"/>
<path d="M318.43 104.99L323.35 104.99"/>
<path d="M318.43 109.91L318.43 104.99"/>
<path d="M323.35 104.99L323.35 109.91"/>
<path d="M338.1 109.91L338.1 104.99"/>
<path d="M411.87 336.14L411.87 109.91"/>
<path d="M377.44 173.84L377.44 154.17"/>
<path d="M397.12 154.17L397.12 173.84"/>
<path d="M352.85 154.17L352.85 173.84"/>
<path d="M372.53 159.09L372.53 168.92"/>
<path d="M357.77 159.09L357.77 168.92"/>
<path d="M402.03 159.09L402.03 168.92"/>
<path d="M421.71 70.56L421.71 336.14"/>
<path d="M362.69 188.6L362.69 277.12"/>
<path d="M347.94 252.53L347.94 272.2"/>
<path d="M367.61 227.94L367.61 262.37"/>
<path d="M382.36 262.37L382.36 242.69"/>
<path d="M406.95 262.37L406.95 227.94"/>
<path d="M392.2 242.69L392.2 262.37"/>
<path d="M406.95 326.3L406.95 277.12"/>
<path d="M397.12 341.05L367.61 341.05"/>
<path d="M372.53 321.38L377.44 321.38"/>
<path d="M377.44 316.46L372.53 316.46"/>
<path d="M352.85 321.38L357.77 321.38"/>
<path d="M357.77 316.46L352.85 316.46"/>
<path d="M352.85 316.46L352.85 321.38"/>
<path d="M347.94 311.55L347.94 316.46"/>
<path d="M343.02 316.46L343.02 311.55"/>
<path d="M347.94 316.46L343.02 316.46"/>
<path d="M343.02 311.55L347.94 311.55"/>
<path d="M372.53 316.46L372.53 321.38"/>
<path d="M357.77 321.38L357.77 316.46"/>
<path d="M367.61 341.05L367.61 336.14"/>
<path d="M367.61 311.55L367.61 316.46"/>
<path d="M362.69 316.46L362.69 311.55"/>
<path d="M367.61 316.46L362.69 316.46"/>
<path d="M362.69 311.55L367.61 311.55"/>
<path d="M382.36 311.55L387.28 311.55"/>
<path d="M387.28 316.46L382.36 316.46"/>
<path d="M377.44 321.38L377.44 316.46"/>
<path d="M382.36 316.46L382.36 311.55"/>
<path d="M406.95 336.14L406.95 341.05"/>
<path d="M406.95 331.22L406.95 321.38"/>
<path d="M402.03 341.05L402.03 336.14"/>
<path d="M406.95 341.05L402.03 341.05"/>
<path d="M397.12 336.14L397.12 341.05"/>
<path d="M387.28 311.55L387.28 316.46"/>
<path d="M362.69 277.12L406.95 277.12"/>
<path d="M406.95 272.2L367.61 272.2"/>
<path d="M372.53 301.71L377.44 301.71"/>
<path d="M382.36 306.63L372.53 306.63"/>
<path d="M367.61 262.37L406.95 262.37"/>
<path d="M372.53 262.37L372.53 272.2"/>
<path d="M367.61 272.2L367.61 262.37"/>
<path d="M352.85 301.71L357.77 301.71"/>
<path d="M362.69 306.63L352.85 306.63"/>
<path d="M347.94 282.04L347.94 301.71"/>
<path d="M347.94 301.71L343.02 301.71"/>
<path d="M352.85 306.63L352.85 301.71"/>
<path d="M343.02 301.71L343.02 306.63"/>
<path d="M367.61 282.04L367.61 301.71"/>
<path d="M357.77 301.71L357.77 282.04"/>
<path d="M367.61 301.71L362.69 301.71"/>
<path d="M357.77 282.04L367.61 282.04"/>
<path d="M372.53 306.63L372.53 301.71"/>
<path d="M362.69 301.71L362.69 306.63"/>
<path d="M406.95 262.37L406.95 272.2"/>
<path d="M402.03 262.37L402.03 272.2"/>
<path d="M377.44 282.04L387.28 282.04"/>
<path d="M387.28 301.71L382.36 301.71"/>
<path d="M377.44 301.71L377.44 282.04"/>
<path d="M382.36 301.71L382.36 306.63"/>
<path d="M387.28 282.04L387.28 301.71"/>
<path d="M392.2 262.37L382.36 262.37"/>
<path d="M421.71 336.14L411.87 336.14"/>
<path d="M343.02 193.51L343.02 223.02"/>
<path d="M406.95 218.1L406.95 208.27"/>
<path d="M367.61 218.1L367.61 208.27"/>
<path d="M377.44 232.86L377.44 213.19"/>
<path d="M397.12 213.19L397.12 232.86"/>
<path d="M406.95 227.94L367.61 227.94"/>
<path d="M372.53 232.86L402.03 232.86"/>
<path d="M377.44 218.1L367.61 218.1"/>
<path d="M382.36 242.69L372.53 242.69"/>
<path d="M352.85 237.78L352.85 232.86"/>
<path d="M347.94 232.86L347.94 237.78"/>
<path d="M347.94 237.78L352.85 237.78"/>
<path d="M352.85 252.53L347.94 252.53"/>
<path d="M352.85 247.61L352.85 252.53"/>
<path d="M343.02 237.78L343.02 242.69"/>
<path d="M343.02 252.53L343.02 247.61"/>
<path d="M343.02 247.61L352.85 247.61"/>
<path d="M352.85 232.86L347.94 232.86"/>
<path d="M372.53 242.69L372.53 232.86"/>
<path d="M367.61 223.02L367.61 227.94"/>
<path d="M372.53 223.02L367.61 223.02"/>
<path d="M372.53 227.94L372.53 218.1"/>
<path d="M397.12 218.1L377.44 218.1"/>
<path d="M402.03 232.86L402.03 242.69"/>
<path d="M406.95 223.02L406.95 227.94"/>
<path d="M402.03 223.02L406.95 223.02"/>
<path d="M402.03 227.94L402.03 218.1"/>
<path d="M402.03 242.69L392.2 242.69"/>
<path d="M397.12 218.1L406.95 218.1"/>
<path d="M367.61 208.27L377.44 208.27"/>
<path d="M367.61 178.76L377.44 178.76"/>
<path d="M377.44 168.92L367.61 168.92"/>
<path d="M367.61 168.92L367.61 178.76"/>
<path d="M362.69 168.92L362.69 178.76"/>
<path d="M362.69 178.76L352.85 178.76"/>
<path d="M352.85 178.76L352.85 173.84"/>
<path d="M352.85 168.92L362.69 168.92"/>
<path d="M406.95 168.92L406.95 178.76"/>
<path d="M397.12 173.84L377.44 173.84"/>
<path d="M377.44 213.19L397.12 213.19"/>
<path d="M377.44 208.27L377.44 213.19"/>
<path d="M377.44 178.76L377.44 173.84"/>
<path d="M397.12 208.27L397.12 213.19"/>
<path d="M397.12 178.76L397.12 173.84"/>
<path d="M406.95 208.27L397.12 208.27"/>
<path d="M406.95 178.76L397.12 178.76"/>
<path d="M377.44 168.92L397.12 168.92"/>
<path d="M397.12 168.92L406.95 168.92"/>
<path d="M392.2 85.32L396 70.56"/>
<path d="M411.87 104.99L392.2 100.07"/>
<path d="M372.53 124.66L372.53 114.82"/>
<path d="M367.61 124.66L367.61 114.82"/>
<path d="M357.77 124.66L357.77 114.82"/>
<path d="M362.69 114.82L362.69 124.66"/>
<path d="M406.95 114.82L406.95 124.66"/>
<path d="M402.03 124.66L402.03 114.82"/>
<path d="M402.03 154.17L372.53 154.17"/>
<path d="M367.61 159.09L406.95 159.09"/>
<path d="M372.53 144.33L382.36 144.33"/>
<path d="M406.95 124.66L367.61 124.66"/>
<path d="M347.94 144.33L357.77 144.33"/>
<path d="M347.94 124.66L347.94 144.33"/>
<path d="M367.61 124.66L367.61 159.09"/>
<path d="M362.69 159.09L362.69 124.66"/>
<path d="M372.53 154.17L372.53 144.33"/>
<path d="M357.77 144.33L357.77 154.17"/>
<path d="M367.61 164L367.61 159.09"/>
<path d="M362.69 164L362.69 159.09"/>
<path d="M357.77 164L362.69 164"/>
<path d="M372.53 164L367.61 164"/>
<path d="M406.95 159.09L406.95 124.66"/>
<path d="M382.36 144.33L382.36 124.66"/>
<path d="M392.2 124.66L392.2 144.33"/>
<path d="M402.03 144.33L402.03 154.17"/>
<path d="M406.95 164L406.95 159.09"/>
<path d="M402.03 164L406.95 164"/>
<path d="M392.2 144.33L402.03 144.33"/>
<path d="M382.36 124.66L392.2 124.66"/>
<path d="M372.53 104.99L402.03 104.99"/>
<path d="M367.61 114.82L406.95 114.82"/>
<path d="M347.94 104.99L347.94 109.91"/>
<path d="M372.53 109.91L372.53 104.99"/>
<path d="M402.03 104.99L402.03 109.91"/>
<path d="M397.12 90.23L392.2 85.32"/>
<path d="M392.2 100.07L397.12 90.23"/>
<path d="M411.87 114.82L411.87 104.99"/>
<path d="M421.71 70.56L396 70.56"/>
<path d="M442.65 147.27L444.17 146.51M444.17 146.51L446.45 144.23M446.45 144.23L446.45 160.2"/>
<path d="M160.24 146.99L152.64 146.99M152.64 146.99L151.88 153.83M151.88 153.83L152.64 153.07M152.64 153.07L154.92 152.31M154.92 152.31L157.2 152.31M157.2 152.31L159.48 153.07M159.48 153.07L161 154.59M161 154.59L161.76 156.87M161.76 156.87L161.76 158.39M161.76 158.39L161 160.68M161 160.68L159.48 162.2M159.48 162.2L157.2 162.96M157.2 162.96L154.92 162.96M154.92 162.96L152.64 162.2M152.64 162.2L151.88 161.44M151.88 161.44L151.12 159.91"/>
<path d="M246.89 380.05L246.89 356.1M247.8 356.1L247.8 380.05M244.16 356.1L255.1 356.1M255.1 356.1L257.83 357.24M257.83 357.24L258.74 358.38M258.74 358.38L259.65 360.66M259.65 360.66L259.65 362.94M259.65 362.94L258.74 365.22M258.74 365.22L257.83 366.36M257.83 366.36L255.1 367.5M255.1 356.1L256.92 357.24M256.92 357.24L257.83 358.38M257.83 358.38L258.74 360.66M258.74 360.66L258.74 362.94M258.74 362.94L257.83 365.22M257.83 365.22L256.92 366.36M256.92 366.36L255.1 367.5M247.8 367.5L255.1 367.5M255.1 367.5L257.83 368.64M257.83 368.64L258.74 369.78M258.74 369.78L259.65 372.06M259.65 372.06L259.65 375.48M259.65 375.48L258.74 377.77M258.74 377.77L257.83 378.91M257.83 378.91L255.1 380.05M255.1 380.05L244.16 380.05M255.1 367.5L256.92 368.64M256.92 368.64L257.83 369.78M257.83 369.78L258.74 372.06M258.74 372.06L258.74 375.48M258.74 375.48L257.83 377.77M257.83 377.77L256.92 378.91M256.92 378.91L255.1 380.05M266.95 380.05L266.95 356.1M267.86 356.1L267.86 380.05M264.21 356.1L275.15 356.1M275.15 356.1L277.89 357.24M277.89 357.24L278.8 358.38M278.8 358.38L279.71 360.66M279.71 360.66L279.71 362.94M279.71 362.94L278.8 365.22M278.8 365.22L277.89 366.36M277.89 366.36L275.15 367.5M275.15 367.5L267.86 367.5M275.15 356.1L276.97 357.24M276.97 357.24L277.89 358.38M277.89 358.38L278.8 360.66M278.8 360.66L278.8 362.94M278.8 362.94L277.89 365.22M277.89 365.22L276.97 366.36M276.97 366.36L275.15 367.5M264.21 380.05L270.59 380.05M272.42 367.5L274.24 368.64M274.24 368.64L275.15 369.78M275.15 369.78L277.89 377.77M277.89 377.77L278.8 378.91M278.8 378.91L279.71 378.91M279.71 378.91L280.62 377.77M274.24 368.64L275.15 370.92M275.15 370.92L276.97 378.91M276.97 378.91L277.89 380.05M277.89 380.05L279.71 380.05M279.71 380.05L280.62 377.77M280.62 377.77L280.62 376.63M290.65 356.1L287.91 357.24M287.91 357.24L286.09 359.52M286.09 359.52L285.18 361.8M285.18 361.8L284.27 366.36M284.27 366.36L284.27 369.78M284.27 369.78L285.18 374.34M285.18 374.34L286.09 376.63M286.09 376.63L287.91 378.91M287.91 378.91L290.65 380.05M290.65 380.05L292.47 380.05M292.47 380.05L295.21 378.91M295.21 378.91L297.03 376.63M297.03 376.63L297.94 374.34M297.94 374.34L298.85 369.78M298.85 369.78L298.85 366.36M298.85 366.36L297.94 361.8M297.94 361.8L297.03 359.52M297.03 359.52L295.21 357.24M295.21 357.24L292.47 356.1M292.47 356.1L290.65 356.1M290.65 356.1L288.82 357.24M288.82 357.24L287 359.52M287 359.52L286.09 361.8M286.09 361.8L285.18 366.36M285.18 366.36L285.18 369.78M285.18 369.78L286.09 374.34M286.09 374.34L287 376.63M287 376.63L288.82 378.91M288.82 378.91L290.65 380.05M292.47 380.05L294.29 378.91M294.29 378.91L296.12 376.63M296.12 376.63L297.03 374.34M297.03 374.34L297.94 369.78M297.94 369.78L297.94 366.36M297.94 366.36L297.03 361.8M297.03 361.8L296.12 359.52M296.12 359.52L294.29 357.24M294.29 357.24L292.47 356.1M307.06 356.1L310.7 380.05M307.97 356.1L310.7 374.34M314.35 356.1L310.7 380.05M314.35 356.1L317.99 380.05M315.26 356.1L317.99 374.34M321.64 356.1L317.99 380.05M304.32 356.1L310.7 356.1M318.91 356.1L324.38 356.1M328.93 380.05L328.93 356.1M329.85 380.05L329.85 356.1M329.85 356.1L340.78 377.77M329.85 358.38L340.78 380.05M340.78 380.05L340.78 356.1M326.2 356.1L329.85 356.1M338.05 356.1L343.52 356.1M326.2 380.05L331.67 380.05"/>
<path d="M389.83 190.72L389.07 189.2M389.07 189.2L386.79 188.44M386.79 188.44L385.27 188.44M385.27 188.44L382.99 189.2M382.99 189.2L381.47 191.48M381.47 191.48L380.71 195.28M380.71 195.28L380.71 199.08M380.71 199.08L381.47 202.12M381.47 202.12L382.99 203.64M382.99 203.64L385.27 204.4M385.27 204.4L386.03 204.4M386.03 204.4L388.31 203.64M388.31 203.64L389.83 202.12M389.83 202.12L390.59 199.84M390.59 199.84L390.59 199.08M390.59 199.08L389.83 196.8M389.83 196.8L388.31 195.28M388.31 195.28L386.03 194.52M386.03 194.52L385.27 194.52M385.27 194.52L382.99 195.28M382.99 195.28L381.47 196.8M381.47 196.8L380.71 199.08"/>
<path d="M204.69 188.44L215.33 188.44M215.33 188.44L207.73 204.4"/>
<path d="M432.76 306.95L434.28 306.19M434.28 306.19L436.57 303.9M436.57 303.9L436.57 319.87M452.53 303.9L444.93 314.55M444.93 314.55L456.34 314.55M452.53 303.9L452.53 319.87"/>
<path d="M144.28 310.47L144.28 309.71M144.28 309.71L145.04 308.18M145.04 308.18L145.8 307.42M145.8 307.42L147.32 306.66M147.32 306.66L150.36 306.66M150.36 306.66L151.88 307.42M151.88 307.42L152.64 308.18M152.64 308.18L153.4 309.71M153.4 309.71L153.4 311.23M153.4 311.23L152.64 312.75M152.64 312.75L151.12 315.03M151.12 315.03L143.52 322.63M143.52 322.63L154.16 322.63M160.24 306.66L168.61 306.66M168.61 306.66L164.05 312.75M164.05 312.75L166.33 312.75M166.33 312.75L167.85 313.51M167.85 313.51L168.61 314.27M168.61 314.27L169.37 316.55M169.37 316.55L169.37 318.07M169.37 318.07L168.61 320.35M168.61 320.35L167.09 321.87M167.09 321.87L164.81 322.63M164.81 322.63L162.52 322.63M162.52 322.63L160.24 321.87M160.24 321.87L159.48 321.11M159.48 321.11L158.72 319.59"/>
<path d="M443.03 252.01L440.75 252.77M440.75 252.77L439.99 254.29M439.99 254.29L439.99 255.81M439.99 255.81L440.75 257.33M440.75 257.33L442.27 258.09M442.27 258.09L445.31 258.85M445.31 258.85L447.59 259.61M447.59 259.61L449.11 261.13M449.11 261.13L449.87 262.66M449.87 262.66L449.87 264.94M449.87 264.94L449.11 266.46M449.11 266.46L448.35 267.22M448.35 267.22L446.07 267.98M446.07 267.98L443.03 267.98M443.03 267.98L440.75 267.22M440.75 267.22L439.99 266.46M439.99 266.46L439.23 264.94M439.23 264.94L439.23 262.66M439.23 262.66L439.99 261.13M439.99 261.13L441.51 259.61M441.51 259.61L443.79 258.85M443.79 258.85L446.83 258.09M446.83 258.09L448.35 257.33M448.35 257.33L449.11 255.81M449.11 255.81L449.11 254.29M449.11 254.29L448.35 252.77M448.35 252.77L446.07 252.01M446.07 252.01L443.03 252.01"/>
<path d="M145.04 257.81L146.56 257.05M146.56 257.05L148.84 254.77M148.84 254.77L148.84 270.74M158.72 254.77L167.09 254.77M167.09 254.77L162.52 260.85M162.52 260.85L164.81 260.85M164.81 260.85L166.33 261.61M166.33 261.61L167.09 262.37M167.09 262.37L167.85 264.65M167.85 264.65L167.85 266.17M167.85 266.17L167.09 268.46M167.09 268.46L165.57 269.98M165.57 269.98L163.28 270.74M163.28 270.74L161 270.74M161 270.74L158.72 269.98M158.72 269.98L157.96 269.22M157.96 269.22L157.2 267.7"/>
</g>
</g>
</svg>
