<?xml version="1.0" standalone="no"?><svg xmlns="http://www.w3.org/2000/svg" width="600.000" height="450.000" viewBox="0.0 0.0 600.000 450.000" version="1.1">
<title>Acme Converter - Post-processed with EDS-Designer: 14.44 (info@symca.com)</title>
<desc>Acme Converter - Post-processed with EDS-Designer: 14.44 (info@symca.com)</desc>
<g id="EDS_STYLE_GROUP" fill="none" stroke="black" stroke-width="1.0">
<g id="0" display="visible">
<path d="M167.95 229.57L167.95 182.14"/>
<path d="M167.95 182.14L233.12 182.14"/>
<path d="M233.12 182.14L233.12 201.74"/>
<path d="M233.12 201.74L261.59 201.74"/>
<path d="M261.59 182.14L261.59 229.57"/>
<path d="M167.95 182.14L186.93 182.14"/>
<path d="M167.95 182.14L183.77 194.78"/>
<path d="M183.77 194.78L183.77 229.57"/>
<path d="M183.77 194.78L215.4 194.78"/>
<path d="M215.4 194.78L233.12 182.14"/>
<path d="M215.4 194.78L215.4 201.74"/>
<path d="M226.17 229.57L226.17 201.74"/>
<path d="M233.12 201.74L215.4 201.74"/>
<path d="M124.2 229.57L124.2 182.99"/>
<path d="M195.37 182.14L195.37 143.59"/>
<path d="M189.38 129.73L157.87 150.28M157.87 150.28L128.43 173.68"/>
<path d="M190.22 140.45L168.42 153.65M168.42 153.65L147.59 168.32"/>
<path d="M128.43 173.68L125.31 177.88M125.31 177.88L124.2 182.99"/>
<path d="M206.42 134.22L205.78 133.31"/>
<path d="M205.78 133.31L201.17 129.33M201.17 129.33L195.22 128.03M195.22 128.03L189.38 129.73"/>
<path d="M195.37 143.59L194.58 141.36M194.58 141.36L192.57 140.13M192.57 140.13L190.22 140.45"/>
<path d="M206.42 134.22L206.42 171.79"/>
<path d="M206.42 171.79L229.57 171.79"/>
<path d="M133.42 169.39L133.42 229.57"/>
<path d="M146.19 171.14L146.19 187.35"/>
<path d="M149.73 190.88L167.95 190.88"/>
<path d="M156.33 229.57L156.33 200.32"/>
<path d="M156.33 200.32L133.42 200.32"/>
<path d="M156.33 200.32L167.95 190.88"/>
<path d="M233.12 182.14L293.86 182.14"/>
<path d="M154.62 152.65L154.62 100.98"/>
<path d="M158.15 97.44L181.83 97.44"/>
<path d="M185.36 100.98L185.36 132.12"/>
<path d="M158.15 97.44L155.65 98.48M155.65 98.48L154.62 100.98"/>
<path d="M185.36 100.98L184.33 98.48M184.33 98.48L181.83 97.44"/>
<path d="M250.09 201.74L250.09 229.57"/>
<path d="M254.73 182.14L254.73 201.74"/>
<path d="M167.95 229.57L167.95 277"/>
<path d="M167.95 277L233.12 277"/>
<path d="M233.12 277L233.12 257.4"/>
<path d="M233.12 257.4L261.59 257.4"/>
<path d="M261.59 257.4L261.59 229.57"/>
<path d="M167.95 277L186.93 277"/>
<path d="M167.95 277L183.77 264.35"/>
<path d="M183.77 264.35L183.77 229.57"/>
<path d="M183.77 264.35L215.4 264.35"/>
<path d="M215.4 264.35L233.12 277"/>
<path d="M215.4 264.35L215.4 257.4"/>
<path d="M226.17 229.57L226.17 257.4"/>
<path d="M233.12 257.4L215.4 257.4"/>
<path d="M124.2 229.57L124.2 276.14"/>
<path d="M195.37 277L195.37 315.55"/>
<path d="M128.43 285.46L157.87 308.86M157.87 308.86L189.38 329.41"/>
<path d="M147.59 290.82L168.42 305.49M168.42 305.49L190.22 318.69"/>
<path d="M124.2 276.14L125.31 281.26M125.31 281.26L128.43 285.46"/>
<path d="M206.42 324.92L205.78 325.83"/>
<path d="M189.38 329.41L195.22 331.11M195.22 331.11L201.17 329.81M201.17 329.81L205.78 325.83"/>
<path d="M190.22 318.69L192.57 319.01M192.57 319.01L194.58 317.78M194.58 317.78L195.37 315.55"/>
<path d="M206.42 324.92L206.42 287.35"/>
<path d="M206.42 287.35L293.86 287.35"/>
<path d="M133.42 289.75L133.42 229.57"/>
<path d="M146.19 288L146.19 271.79"/>
<path d="M149.73 268.25L167.95 268.25"/>
<path d="M156.33 229.57L156.33 258.82"/>
<path d="M156.33 258.82L133.42 258.82"/>
<path d="M156.33 258.82L167.95 268.25"/>
<path d="M233.12 277L293.86 277"/>
<path d="M250.09 277L250.09 229.57"/>
<path d="M243.17 257.4L243.17 277"/>
<path d="M281.82 277L281.82 287.35"/>
<path d="M147.59 168.32L146.56 169.57M146.56 169.57L146.19 171.14"/>
<path d="M146.19 288L146.56 289.57M146.56 289.57L147.59 290.82"/>
<path d="M195.37 182.14L206.42 171.79"/>
<path d="M238.41 121.7L211.01 121.7"/>
<path d="M211.01 121.7L211.01 66.89"/>
<path d="M219.84 58.06L267.08 58.06"/>
<path d="M267.08 58.06L267.08 88.4"/>
<path d="M267.08 88.4L238.41 88.4"/>
<path d="M238.41 79.13L267.08 79.13"/>
<path d="M238.41 79.13L238.41 162.95"/>
<path d="M293.86 96.01L238.41 96.01"/>
<path d="M229.57 171.79L233.99 170.6M233.99 170.6L237.23 167.37M237.23 167.37L238.41 162.95"/>
<path d="M229.57 171.79L293.86 171.79"/>
<path d="M219.84 58.06L215.42 59.24M215.42 59.24L212.19 62.48M212.19 62.48L211.01 66.89"/>
<path d="M293.86 65.76L211.08 65.76"/>
<path d="M419.76 229.57L419.76 182.14"/>
<path d="M419.76 182.14L354.59 182.14"/>
<path d="M354.59 182.14L354.59 201.74"/>
<path d="M354.59 201.74L326.12 201.74"/>
<path d="M326.12 182.14L326.12 229.57"/>
<path d="M419.76 182.14L400.78 182.14"/>
<path d="M419.76 182.14L403.94 194.78"/>
<path d="M403.94 194.78L403.94 229.57"/>
<path d="M403.94 194.78L372.31 194.78"/>
<path d="M372.31 194.78L354.59 182.14"/>
<path d="M372.31 194.78L372.31 201.74"/>
<path d="M361.54 229.57L361.54 201.74"/>
<path d="M354.59 201.74L372.31 201.74"/>
<path d="M463.51 229.57L463.51 182.99"/>
<path d="M392.34 182.14L392.34 143.59"/>
<path d="M459.28 173.68L429.84 150.28M429.84 150.28L398.33 129.73"/>
<path d="M440.12 168.32L419.29 153.65M419.29 153.65L397.49 140.45"/>
<path d="M463.51 182.99L462.4 177.88M462.4 177.88L459.28 173.68"/>
<path d="M381.29 134.22L381.93 133.31"/>
<path d="M398.33 129.73L392.49 128.03M392.49 128.03L386.54 129.33M386.54 129.33L381.93 133.31"/>
<path d="M397.49 140.45L395.15 140.13M395.15 140.13L393.13 141.36M393.13 141.36L392.34 143.59"/>
<path d="M381.29 134.22L381.29 171.79"/>
<path d="M381.29 171.79L358.14 171.79"/>
<path d="M454.29 169.39L454.29 229.57"/>
<path d="M441.52 171.14L441.52 187.35"/>
<path d="M437.99 190.88L419.76 190.88"/>
<path d="M431.38 229.57L431.38 200.32"/>
<path d="M431.38 200.32L454.29 200.32"/>
<path d="M431.38 200.32L419.76 190.88"/>
<path d="M354.59 182.14L293.86 182.14"/>
<path d="M433.09 152.65L433.09 100.98"/>
<path d="M429.56 97.44L405.88 97.44"/>
<path d="M402.35 100.98L402.35 132.12"/>
<path d="M433.09 100.98L432.06 98.48M432.06 98.48L429.56 97.44"/>
<path d="M405.88 97.44L403.39 98.48M403.39 98.48L402.35 100.98"/>
<path d="M337.62 201.74L337.62 229.57"/>
<path d="M332.98 182.14L332.98 201.74"/>
<path d="M419.76 229.57L419.76 277"/>
<path d="M419.76 277L354.59 277"/>
<path d="M354.59 277L354.59 257.4"/>
<path d="M354.59 257.4L326.12 257.4"/>
<path d="M326.12 257.4L326.12 229.57"/>
<path d="M419.76 277L400.78 277"/>
<path d="M419.76 277L403.94 264.35"/>
<path d="M403.94 264.35L403.94 229.57"/>
<path d="M403.94 264.35L372.31 264.35"/>
<path d="M372.31 264.35L354.59 277"/>
<path d="M372.31 264.35L372.31 257.4"/>
<path d="M361.54 229.57L361.54 257.4"/>
<path d="M354.59 257.4L372.31 257.4"/>
<path d="M463.51 229.57L463.51 276.14"/>
<path d="M392.34 277L392.34 315.55"/>
<path d="M398.33 329.41L429.84 308.86M429.84 308.86L459.28 285.46"/>
<path d="M397.49 318.69L419.29 305.49M419.29 305.49L440.12 290.82"/>
<path d="M459.28 285.46L462.4 281.26M462.4 281.26L463.51 276.14"/>
<path d="M381.29 324.92L381.93 325.83"/>
<path d="M381.93 325.83L386.54 329.81M386.54 329.81L392.49 331.11M392.49 331.11L398.33 329.41"/>
<path d="M392.34 315.55L393.13 317.78M393.13 317.78L395.15 319.01M395.15 319.01L397.49 318.69"/>
<path d="M381.29 324.92L381.29 287.35"/>
<path d="M381.29 287.35L293.86 287.35"/>
<path d="M454.29 289.75L454.29 229.57"/>
<path d="M441.52 288L441.52 271.79"/>
<path d="M437.99 268.25L419.76 268.25"/>
<path d="M431.38 229.57L431.38 258.82"/>
<path d="M431.38 258.82L454.29 258.82"/>
<path d="M431.38 258.82L419.76 268.25"/>
<path d="M354.59 277L293.86 277"/>
<path d="M337.62 277L337.62 229.57"/>
<path d="M344.54 257.4L344.54 277"/>
<path d="M305.89 277L305.89 287.35"/>
<path d="M441.52 171.14L441.15 169.57M441.15 169.57L440.12 168.32"/>
<path d="M440.12 290.82L441.15 289.57M441.15 289.57L441.52 288"/>
<path d="M392.34 182.14L381.29 171.79"/>
<path d="M349.3 121.7L376.7 121.7"/>
<path d="M376.7 121.7L376.7 66.89"/>
<path d="M367.87 58.06L320.63 58.06"/>
<path d="M320.63 58.06L320.63 88.4"/>
<path d="M320.63 88.4L349.3 88.4"/>
<path d="M349.3 79.13L320.63 79.13"/>
<path d="M349.3 79.13L349.3 162.95"/>
<path d="M293.86 96.01L349.3 96.01"/>
<path d="M349.3 162.95L350.48 167.37M350.48 167.37L353.72 170.6M353.72 170.6L358.14 171.79"/>
<path d="M358.14 171.79L293.86 171.79"/>
<path d="M376.7 66.89L375.52 62.48M375.52 62.48L372.29 59.24M372.29 59.24L367.87 58.06"/>
<path d="M293.86 65.76L376.63 65.76"/>
<path d="M146.19 187.35L147.23 189.85M147.23 189.85L149.73 190.88"/>
<path d="M437.99 190.88L440.48 189.85M440.48 189.85L441.52 187.35"/>
<path d="M441.52 271.79L440.48 269.29M440.48 269.29L437.99 268.25"/>
<path d="M146.19 288L146.56 289.57M146.56 289.57L147.59 290.82"/>
<path d="M146.19 288L146.56 289.57M146.56 289.57L147.59 290.82"/>
<path d="M147.59 168.32L146.56 169.57M146.56 169.57L146.19 171.14"/>
<path d="M149.73 268.25L147.23 269.29M147.23 269.29L146.19 271.79"/>
<path d="M94.7 221.28L99.61 216.37M99.61 216.37L99.61 245.82M94.7 245.82L104.52 245.82"/>
<path d="M485.67 219.82L490.58 214.91M490.58 214.91L500.4 214.91M500.4 214.91L505.31 219.82M505.31 219.82L505.31 224.73M505.31 224.73L500.4 229.64M500.4 229.64L490.58 229.64M490.58 229.64L485.67 234.55M485.67 234.55L485.67 244.36M485.67 244.36L505.31 244.36"/>
<path d="M167.03 391.95L167.03 356.6M168.35 356.6L168.35 391.95M163.08 356.6L172.31 356.6M163.08 391.95L182.86 391.95M182.86 391.95L182.86 381.85M182.86 381.85L181.54 391.95M190.77 391.95L190.77 356.6M192.09 356.6L192.09 391.95M186.81 356.6L196.04 356.6M186.81 391.95L196.04 391.95M219.78 361.65L221.1 366.7M221.1 366.7L221.1 356.6M221.1 356.6L219.78 361.65M219.78 361.65L217.14 358.28M217.14 358.28L213.18 356.6M213.18 356.6L210.55 356.6M210.55 356.6L206.59 358.28M206.59 358.28L203.95 361.65M203.95 361.65L202.63 365.01M202.63 365.01L201.32 370.06M201.32 370.06L201.32 378.48M201.32 378.48L202.63 383.53M202.63 383.53L203.95 386.9M203.95 386.9L206.59 390.26M206.59 390.26L210.55 391.95M210.55 391.95L213.18 391.95M213.18 391.95L217.14 390.26M217.14 390.26L219.78 386.9M210.55 356.6L207.91 358.28M207.91 358.28L205.27 361.65M205.27 361.65L203.95 365.01M203.95 365.01L202.63 370.06M202.63 370.06L202.63 378.48M202.63 378.48L203.95 383.53M203.95 383.53L205.27 386.9M205.27 386.9L207.91 390.26M207.91 390.26L210.55 391.95M219.78 378.48L219.78 391.95M221.1 378.48L221.1 391.95M215.82 378.48L225.05 378.48M235.6 391.95L235.6 356.6M236.92 356.6L236.92 391.95M252.74 391.95L252.74 356.6M254.06 356.6L254.06 391.95M231.65 356.6L240.88 356.6M248.79 356.6L258.02 356.6M236.92 373.43L252.74 373.43M231.65 391.95L240.88 391.95M248.79 391.95L258.02 391.95M272.52 391.95L272.52 356.6M273.84 356.6L273.84 391.95M264.61 356.6L263.29 366.7M263.29 366.7L263.29 356.6M263.29 356.6L283.07 356.6M283.07 356.6L283.07 366.7M283.07 366.7L281.75 356.6M268.57 391.95L277.8 391.95M334.5 361.65L335.82 366.7M335.82 366.7L335.82 356.6M335.82 356.6L334.5 361.65M334.5 361.65L331.86 358.28M331.86 358.28L327.91 356.6M327.91 356.6L325.27 356.6M325.27 356.6L321.31 358.28M321.31 358.28L318.68 361.65M318.68 361.65L317.36 365.01M317.36 365.01L316.04 370.06M316.04 370.06L316.04 378.48M316.04 378.48L317.36 383.53M317.36 383.53L318.68 386.9M318.68 386.9L321.31 390.26M321.31 390.26L325.27 391.95M325.27 391.95L327.91 391.95M327.91 391.95L331.86 390.26M331.86 390.26L334.5 386.9M325.27 356.6L322.63 358.28M322.63 358.28L319.99 361.65M319.99 361.65L318.68 365.01M318.68 365.01L317.36 370.06M317.36 370.06L317.36 378.48M317.36 378.48L318.68 383.53M318.68 383.53L319.99 386.9M319.99 386.9L322.63 390.26M322.63 390.26L325.27 391.95M334.5 378.48L334.5 391.95M335.82 378.48L335.82 391.95M330.54 378.48L339.77 378.48M350.32 391.95L350.32 356.6M351.64 356.6L351.64 391.95M346.37 356.6L362.19 356.6M362.19 356.6L366.15 358.28M366.15 358.28L367.47 359.96M367.47 359.96L368.78 363.33M368.78 363.33L368.78 366.7M368.78 366.7L367.47 370.06M367.47 370.06L366.15 371.75M366.15 371.75L362.19 373.43M362.19 373.43L351.64 373.43M362.19 356.6L364.83 358.28M364.83 358.28L366.15 359.96M366.15 359.96L367.47 363.33M367.47 363.33L367.47 366.7M367.47 366.7L366.15 370.06M366.15 370.06L364.83 371.75M364.83 371.75L362.19 373.43M346.37 391.95L355.6 391.95M358.24 373.43L360.87 375.11M360.87 375.11L362.19 376.8M362.19 376.8L366.15 388.58M366.15 388.58L367.47 390.26M367.47 390.26L368.78 390.26M368.78 390.26L370.1 388.58M360.87 375.11L362.19 378.48M362.19 378.48L364.83 390.26M364.83 390.26L366.15 391.95M366.15 391.95L368.78 391.95M368.78 391.95L370.1 388.58M370.1 388.58L370.1 386.9M379.33 391.95L379.33 356.6M380.65 356.6L380.65 391.95M388.56 366.7L388.56 380.16M375.38 356.6L396.48 356.6M396.48 356.6L396.48 366.7M396.48 366.7L395.16 356.6M380.65 373.43L388.56 373.43M375.38 391.95L396.48 391.95M396.48 391.95L396.48 381.85M396.48 381.85L395.16 391.95M405.71 356.6L414.94 375.11M414.94 375.11L414.94 391.95M407.03 356.6L416.26 375.11M416.26 375.11L416.26 391.95M425.49 356.6L416.26 375.11M403.07 356.6L410.98 356.6M420.21 356.6L428.12 356.6M410.98 391.95L420.21 391.95"/>
</g>
</g>
</svg>
