<?xml version="1.0" standalone="no"?><svg xmlns="http://www.w3.org/2000/svg" width="600.000" height="450.000" viewBox="0.0 0.0 600.000 450.000" version="1.1">
<title>Acme Converter - Post-processed with EDS-Designer: 14.44 (info@symca.com)</title>
<desc>Acme Converter - Post-processed with EDS-Designer: 14.44 (info@symca.com)</desc>
<g id="EDS_STYLE_GROUP" fill="none" stroke="black" stroke-width="1.0">
<g id="0" display="visible">
<path d="M164.73 372.49L164.73 340.55M166.25 340.55L166.25 372.49M155.6 340.55L154.08 349.68M154.08 349.68L154.08 340.55M154.08 340.55L176.9 340.55M176.9 340.55L176.9 349.68M176.9 349.68L175.38 340.55M160.16 372.49L170.81 372.49M187.54 372.49L187.54 340.55M189.07 340.55L189.07 372.49M182.98 340.55L193.63 340.55M182.98 372.49L193.63 372.49M204.28 372.49L204.28 340.55M205.8 372.49L205.8 340.55M205.8 340.55L224.05 369.45M205.8 343.59L224.05 372.49M224.05 372.49L224.05 340.55M199.71 340.55L205.8 340.55M219.49 340.55L228.61 340.55M199.71 372.49L208.84 372.49M271.2 372.49L271.2 340.55M272.73 340.55L272.73 372.49M266.64 340.55L284.89 340.55M284.89 340.55L289.46 342.07M289.46 342.07L290.98 343.59M290.98 343.59L292.5 346.64M292.5 346.64L292.5 351.2M292.5 351.2L290.98 354.24M290.98 354.24L289.46 355.76M289.46 355.76L284.89 357.28M284.89 357.28L272.73 357.28M284.89 340.55L287.94 342.07M287.94 342.07L289.46 343.59M289.46 343.59L290.98 346.64M290.98 346.64L290.98 351.2M290.98 351.2L289.46 354.24M289.46 354.24L287.94 355.76M287.94 355.76L284.89 357.28M266.64 372.49L277.29 372.49M304.67 372.49L304.67 340.55M306.19 340.55L306.19 372.49M300.1 340.55L310.75 340.55M300.1 372.49L322.92 372.49M322.92 372.49L322.92 363.37M322.92 363.37L321.4 372.49M341.17 340.55L330.53 372.49M341.17 340.55L351.82 372.49M341.17 345.11L350.3 372.49M333.57 363.37L347.26 363.37M327.48 372.49L336.61 372.49M345.74 372.49L354.86 372.49M370.07 372.49L370.07 340.55M371.6 340.55L371.6 372.49M360.95 340.55L359.43 349.68M359.43 349.68L359.43 340.55M359.43 340.55L382.24 340.55M382.24 340.55L382.24 349.68M382.24 349.68L380.72 340.55M365.51 372.49L376.16 372.49M392.89 372.49L392.89 340.55M394.41 340.55L394.41 372.49M403.54 349.68L403.54 361.85M388.33 340.55L412.66 340.55M412.66 340.55L412.66 349.68M412.66 349.68L411.14 340.55M394.41 355.76L403.54 355.76M388.33 372.49L412.66 372.49M412.66 372.49L412.66 363.37M412.66 363.37L411.14 372.49M424.83 372.49L424.83 340.55M426.35 340.55L426.35 372.49M420.27 340.55L435.48 340.55M435.48 340.55L440.04 342.07M440.04 342.07L443.09 345.11M443.09 345.11L444.61 348.16M444.61 348.16L446.13 352.72M446.13 352.72L446.13 360.33M446.13 360.33L444.61 364.89M444.61 364.89L443.09 367.93M443.09 367.93L440.04 370.97M440.04 370.97L435.48 372.49M435.48 372.49L420.27 372.49M435.48 340.55L438.52 342.07M438.52 342.07L441.57 345.11M441.57 345.11L443.09 348.16M443.09 348.16L444.61 352.72M444.61 352.72L444.61 360.33M444.61 360.33L443.09 364.89M443.09 364.89L441.57 367.93M441.57 367.93L438.52 370.97M438.52 370.97L435.48 372.49"/>
<path d="M7.98 83.91L7.98 179.55"/>
<path d="M264.61 121.22L120.14 121.22"/>
<path d="M120.14 259.42L118.68 252.09M118.68 252.09L114.52 245.87M114.52 245.87L108.31 241.71M108.31 241.71L100.97 240.26"/>
<path d="M68.12 145.15L100.97 145.15"/>
<path d="M305.74 135.13L494.05 103.3"/>
<path d="M18.88 98.56L14.37 96.69M14.37 96.69L9.85 98.56M9.85 98.56L7.98 103.08"/>
<path d="M306.67 248.01L494.05 279.68"/>
<path d="M60.96 291.4L64.23 293.15M64.23 293.15L67.92 292.79M67.92 292.79L70.79 290.44M70.79 290.44L71.86 286.89"/>
<path d="M494.05 279.68L512.27 280.87M512.27 280.87L530.36 278.33M530.36 278.33L547.55 272.18M547.55 272.18L563.13 262.66M563.13 262.66L576.45 250.18M576.45 250.18L586.96 235.25M586.96 235.25L594.23 218.5M594.23 218.5L597.93 200.62M597.93 200.62L597.93 182.36M597.93 182.36L594.23 164.48M594.23 164.48L586.96 147.73M586.96 147.73L576.45 132.8M576.45 132.8L563.13 120.32M563.13 120.32L547.55 110.8M547.55 110.8L530.36 104.65M530.36 104.65L512.27 102.11M512.27 102.11L494.05 103.3"/>
<path d="M271.17 133.99L120.14 133.99"/>
<path d="M120.44 261.77L119.6 253.36"/>
<path d="M245.06 147.57L245.06 233.87"/>
<path d="M232.28 147.57L232.28 233.87"/>
<path d="M245.06 147.57L243.19 143.05M243.19 143.05L238.67 141.18M238.67 141.18L234.15 143.05M234.15 143.05L232.28 147.57"/>
<path d="M232.28 233.87L233.5 237.62M233.5 237.62L236.7 239.94M236.7 239.94L240.64 239.94M240.64 239.94L243.84 237.62M243.84 237.62L245.06 233.87"/>
<path d="M213.12 147.57L213.12 233.87"/>
<path d="M213.12 147.57L211.24 143.05M211.24 143.05L206.73 141.18M206.73 141.18L202.21 143.05M202.21 143.05L200.34 147.57"/>
<path d="M200.34 147.57L200.34 233.87"/>
<path d="M200.34 233.87L201.56 237.62M201.56 237.62L204.75 239.94M204.75 239.94L208.7 239.94M208.7 239.94L211.9 237.62M211.9 237.62L213.12 233.87"/>
<path d="M181.17 147.57L181.17 233.87"/>
<path d="M181.17 147.57L179.3 143.05M179.3 143.05L174.78 141.18M174.78 141.18L170.27 143.05M170.27 143.05L168.4 147.57"/>
<path d="M168.4 147.57L168.4 233.87"/>
<path d="M168.4 233.87L169.62 237.62M169.62 237.62L172.81 239.94M172.81 239.94L176.76 239.94M176.76 239.94L179.95 237.62M179.95 237.62L181.17 233.87"/>
<path d="M149.23 147.57L149.23 233.87"/>
<path d="M149.23 147.57L147.36 143.05M147.36 143.05L142.84 141.18M142.84 141.18L138.32 143.05M138.32 143.05L136.45 147.57"/>
<path d="M136.45 147.57L136.45 233.87"/>
<path d="M136.45 233.87L137.67 237.62M137.67 237.62L140.87 239.94M140.87 239.94L144.82 239.94M144.82 239.94L148.01 237.62M148.01 237.62L149.23 233.87"/>
<path d="M100.97 145.15L108.31 143.69M108.31 143.69L114.52 139.54M114.52 139.54L118.68 133.32M118.68 133.32L120.14 125.99"/>
<path d="M18.88 79.4L14.37 77.52M14.37 77.52L9.85 79.4M9.85 79.4L7.98 83.91"/>
<path d="M71.78 133.99L69.99 130.5"/>
<path d="M71.86 240.26L71.86 302.22"/>
<path d="M60.96 306.74L64.23 308.49M64.23 308.49L67.92 308.12M67.92 308.12L70.79 305.77M70.79 305.77L71.86 302.22"/>
<path d="M120.14 121.22L120.14 125.99"/>
<path d="M18.88 79.4L69.99 130.5"/>
<path d="M1.5 179.55L1.5 204.27"/>
<path d="M1.5 179.55L7.98 179.55"/>
<path d="M263.97 261.77L120.14 261.77"/>
<path d="M270.5 248.99L117.5 248.99"/>
<path d="M306.67 248.01L299.09 243.02M299.09 243.02L290.24 241.01M290.24 241.01L281.24 242.21M281.24 242.21L273.23 246.49M273.23 246.49L267.22 253.29M267.22 253.29L263.97 261.77"/>
<path d="M100.97 240.26L71.86 240.26"/>
<path d="M119.6 253.36L117.27 250.19M117.27 250.19L113.54 248.99"/>
<path d="M107.36 133.99L71.86 133.99"/>
<path d="M120.14 261.77L120.14 259.42"/>
<path d="M113.54 248.99L71.86 248.99"/>
<path d="M107.36 133.99L113.75 132.28M113.75 132.28L118.43 127.61M118.43 127.61L120.14 121.22"/>
<path d="M63.6 143.28L68.12 145.15"/>
<path d="M18.88 98.56L63.6 143.28"/>
<path d="M7.98 253.76L60.96 306.74"/>
<path d="M1.5 216.21L7.98 216.21"/>
<path d="M1.5 216.21L1.5 204.27"/>
<path d="M425.91 191.49L427.87 176.61M427.87 176.61L433.61 162.74M433.61 162.74L442.75 150.84M442.75 150.84L454.66 141.7M454.66 141.7L468.53 135.95M468.53 135.95L483.41 133.99M483.41 133.99L498.29 135.95M498.29 135.95L512.16 141.7M512.16 141.7L524.06 150.84M524.06 150.84L533.2 162.74M533.2 162.74L538.95 176.61M538.95 176.61L540.9 191.49M540.9 191.49L538.95 206.37M538.95 206.37L533.2 220.24M533.2 220.24L524.06 232.15M524.06 232.15L512.16 241.29M512.16 241.29L498.29 247.03M498.29 247.03L483.41 248.99M483.41 248.99L468.53 247.03M468.53 247.03L454.66 241.29M454.66 241.29L442.75 232.15M442.75 232.15L433.61 220.24M433.61 220.24L427.87 206.37M427.87 206.37L425.91 191.49"/>
<path d="M452.38 210.57L452.38 172.24M452.38 172.24L465.16 197.79M465.16 197.79L477.94 172.24M477.94 172.24L477.94 210.57M490.72 191.4L509.88 191.4M509.88 191.4L516.27 197.79M516.27 197.79L516.27 204.18M516.27 204.18L509.88 210.57M509.88 210.57L497.1 210.57M497.1 210.57L490.72 204.18M490.72 204.18L490.72 185.01M490.72 185.01L503.49 172.24M503.49 172.24L509.88 172.24"/>
<path d="M7.98 216.21L7.98 253.76"/>
<path d="M264.11 121.22L267.42 129.33M267.42 129.33L273.27 135.84M273.27 135.84L280.97 140M280.97 140L289.63 141.31M289.63 141.31L298.23 139.62M298.23 139.62L305.74 135.13"/>
<path d="M7.98 238.43L60.96 291.4"/>
</g>
</g>
</svg>
