<?xml version="1.0" standalone="no"?><svg xmlns="http://www.w3.org/2000/svg" width="600.000" height="450.000" viewBox="0.0 0.0 600.000 450.000" version="1.1">
<title>Acme Converter - Post-processed with EDS-Designer: 16.53 (info@symca.com)</title>
<desc>Acme Converter - Post-processed with EDS-Designer: 16.53 (info@symca.com)</desc>
<g id="EDS_STYLE_GROUP" fill="none" stroke="black" stroke-width="1.0">
<g id="0" display="visible">
<path d="M91.01 370.82L91.01 321.45M93.36 321.45L93.36 370.82M76.91 321.45L74.55 335.55M74.55 335.55L74.55 321.45M74.55 321.45L109.82 321.45M109.82 321.45L109.82 335.55M109.82 335.55L107.47 321.45M83.96 370.82L100.42 370.82M126.28 370.82L126.28 321.45M128.63 321.45L128.63 370.82M119.23 321.45L135.69 321.45M119.23 370.82L135.69 370.82M152.15 370.82L152.15 321.45M154.5 370.82L154.5 321.45M154.5 321.45L182.71 366.12M154.5 326.15L182.71 370.82M182.71 370.82L182.71 321.45M145.09 321.45L154.5 321.45M175.66 321.45L189.77 321.45M145.09 370.82L159.2 370.82M255.6 370.82L255.6 321.45M257.95 321.45L257.95 370.82M248.55 321.45L276.76 321.45M276.76 321.45L283.82 323.8M283.82 323.8L286.17 326.15M286.17 326.15L288.52 330.85M288.52 330.85L288.52 337.91M288.52 337.91L286.17 342.61M286.17 342.61L283.82 344.96M283.82 344.96L276.76 347.31M276.76 347.31L257.95 347.31M276.76 321.45L281.47 323.8M281.47 323.8L283.82 326.15M283.82 326.15L286.17 330.85M286.17 330.85L286.17 337.91M286.17 337.91L283.82 342.61M283.82 342.61L281.47 344.96M281.47 344.96L276.76 347.31M248.55 370.82L265.01 370.82M307.33 370.82L307.33 321.45M309.68 321.45L309.68 370.82M300.28 321.45L316.74 321.45M300.28 370.82L335.55 370.82M335.55 370.82L335.55 356.72M335.55 356.72L333.2 370.82M363.76 321.45L347.3 370.82M363.76 321.45L380.22 370.82M363.76 328.5L377.87 370.82M352.01 356.72L373.17 356.72M342.6 370.82L356.71 370.82M370.82 370.82L384.92 370.82M408.44 370.82L408.44 321.45M410.79 321.45L410.79 370.82M394.33 321.45L391.98 335.55M391.98 335.55L391.98 321.45M391.98 321.45L427.25 321.45M427.25 321.45L427.25 335.55M427.25 335.55L424.9 321.45M401.38 370.82L417.84 370.82M443.71 370.82L443.71 321.45M446.06 321.45L446.06 370.82M460.16 335.55L460.16 354.37M436.65 321.45L474.27 321.45M474.27 321.45L474.27 335.55M474.27 335.55L471.92 321.45M446.06 344.96L460.16 344.96M436.65 370.82L474.27 370.82M474.27 370.82L474.27 356.72M474.27 356.72L471.92 370.82M493.08 370.82L493.08 321.45M495.43 321.45L495.43 370.82M486.03 321.45L509.54 321.45M509.54 321.45L516.6 323.8M516.6 323.8L521.3 328.5M521.3 328.5L523.65 333.2M523.65 333.2L526 340.26M526 340.26L526 352.01M526 352.01L523.65 359.07M523.65 359.07L521.3 363.77M521.3 363.77L516.6 368.47M516.6 368.47L509.54 370.82M509.54 370.82L486.03 370.82M509.54 321.45L514.24 323.8M514.24 323.8L518.95 328.5M518.95 328.5L521.3 333.2M521.3 333.2L523.65 340.26M523.65 340.26L523.65 352.01M523.65 352.01L521.3 359.07M521.3 359.07L518.95 363.77M518.95 363.77L514.24 368.47M514.24 368.47L509.54 370.82"/>
<path d="M301.59 120.51L301.59 134.29"/>
<path d="M301.59 120.51L118.24 120.51"/>
<path d="M301.59 120.51L469.17 80.09"/>
<path d="M301.59 230.74L469.17 271.16"/>
<path d="M469.17 271.16L487.12 271.96M487.12 271.96L504.91 269.41M504.91 269.41L521.92 263.61M521.92 263.61L537.55 254.76M537.55 254.76L551.27 243.16M551.27 243.16L562.6 229.21M562.6 229.21L571.15 213.41M571.15 213.41L576.62 196.29"/>
<path d="M576.62 154.96L595.91 154.96"/>
<path d="M576.62 196.29L595.91 196.29"/>
<path d="M595.91 154.96L595.91 196.29"/>
<path d="M576.62 154.96L571.15 137.84M571.15 137.84L562.6 122.04M562.6 122.04L551.27 108.09M551.27 108.09L537.55 96.49M537.55 96.49L521.92 87.64M521.92 87.64L504.91 81.84M504.91 81.84L487.12 79.29M487.12 79.29L469.17 80.09"/>
<path d="M301.59 134.29L118.24 134.29"/>
<path d="M301.59 134.29L307.34 133.03M307.34 133.03L312.05 129.49M312.05 129.49L314.84 124.3M314.84 124.3L315.21 118.43"/>
<path d="M266.73 148.93L266.73 200.65"/>
<path d="M252.95 148.93L252.95 200.65"/>
<path d="M266.73 148.93L265.41 144.88M265.41 144.88L261.97 142.37M261.97 142.37L257.71 142.37M257.71 142.37L254.26 144.88M254.26 144.88L252.95 148.93"/>
<path d="M252.95 200.65L254.26 204.7M254.26 204.7L257.71 207.2M257.71 207.2L261.97 207.2M261.97 207.2L265.41 204.7M265.41 204.7L266.73 200.65"/>
<path d="M232.28 148.93L232.28 200.65"/>
<path d="M232.28 148.93L230.97 144.88M230.97 144.88L227.52 142.37M227.52 142.37L223.26 142.37M223.26 142.37L219.82 144.88M219.82 144.88L218.5 148.93"/>
<path d="M218.5 148.93L218.5 200.65"/>
<path d="M218.5 200.65L219.82 204.7M219.82 204.7L223.26 207.2M223.26 207.2L227.52 207.2M227.52 207.2L230.97 204.7M230.97 204.7L232.28 200.65"/>
<path d="M197.84 148.93L197.84 200.65"/>
<path d="M197.84 148.93L196.52 144.88M196.52 144.88L193.08 142.37M193.08 142.37L188.82 142.37M188.82 142.37L185.37 144.88M185.37 144.88L184.06 148.93"/>
<path d="M184.06 148.93L184.06 200.65"/>
<path d="M184.06 200.65L185.37 204.7M185.37 204.7L188.82 207.2M188.82 207.2L193.08 207.2M193.08 207.2L196.52 204.7M196.52 204.7L197.84 200.65"/>
<path d="M163.39 148.93L163.39 200.65"/>
<path d="M163.39 148.93L162.07 144.88M162.07 144.88L158.63 142.37M158.63 142.37L154.37 142.37M154.37 142.37L150.93 144.88M150.93 144.88L149.61 148.93"/>
<path d="M149.61 148.93L149.61 200.65"/>
<path d="M149.61 200.65L150.93 204.7M150.93 204.7L154.37 207.2M154.37 207.2L158.63 207.2M158.63 207.2L162.07 204.7M162.07 204.7L163.39 200.65"/>
<path d="M118.24 120.51L107.54 127.08"/>
<path d="M107.54 127.08L84.8 96.48"/>
<path d="M84.8 96.48L84.8 110.25"/>
<path d="M84.8 96.48L20.14 96.48"/>
<path d="M84.8 110.25L20.14 110.25"/>
<path d="M118.24 134.29L107.54 140.86"/>
<path d="M107.54 140.86L84.8 110.25"/>
<path d="M118.24 120.51L118.24 134.29"/>
<path d="M20.14 96.48L12.9 162.75"/>
<path d="M4.09 162.75L4.09 175.62"/>
<path d="M4.09 162.75L12.9 162.75"/>
<path d="M301.59 230.74L118.24 230.74"/>
<path d="M301.59 216.96L118.24 216.96"/>
<path d="M301.59 230.74L301.59 216.96"/>
<path d="M301.59 216.96L307.34 218.22M307.34 218.22L312.05 221.76M312.05 221.76L314.84 226.94M314.84 226.94L315.21 232.82"/>
<path d="M118.24 230.74L118.24 216.96"/>
<path d="M118.24 230.74L107.54 224.17"/>
<path d="M118.24 216.96L107.54 210.39"/>
<path d="M107.54 210.39L84.8 240.99"/>
<path d="M107.54 224.17L84.8 254.77"/>
<path d="M84.8 254.77L84.8 240.99"/>
<path d="M84.8 254.77L20.14 254.77"/>
<path d="M84.8 240.99L20.14 240.99"/>
<path d="M20.14 254.77L12.9 188.5"/>
<path d="M4.09 188.5L12.9 188.5"/>
<path d="M4.09 188.5L4.09 175.62"/>
<path d="M420.41 175.62L422.36 160.2M422.36 160.2L428.08 145.75M428.08 145.75L437.22 133.18M437.22 133.18L449.19 123.27M449.19 123.27L463.26 116.66M463.26 116.66L478.52 113.74M478.52 113.74L494.03 114.72M494.03 114.72L508.81 119.52M508.81 119.52L521.94 127.85M521.94 127.85L532.58 139.18M532.58 139.18L540.06 152.8M540.06 152.8L543.93 167.85M543.93 167.85L543.93 183.39M543.93 183.39L540.06 198.45M540.06 198.45L532.58 212.07M532.58 212.07L521.94 223.4M521.94 223.4L508.81 231.72M508.81 231.72L494.03 236.53M494.03 236.53L478.52 237.5M478.52 237.5L463.26 234.59M463.26 234.59L449.19 227.97M449.19 227.97L437.22 218.07M437.22 218.07L428.08 205.49M428.08 205.49L422.36 191.04M422.36 191.04L420.41 175.62"/>
<path d="M448.96 196.19L448.96 154.86M448.96 154.86L462.74 182.41M462.74 182.41L476.52 154.86M476.52 154.86L476.52 196.19M490.3 189.3L497.18 196.19M497.18 196.19L510.96 196.19M510.96 196.19L517.85 189.3M517.85 189.3L517.85 175.53M517.85 175.53L510.96 168.64M510.96 168.64L490.3 168.64M490.3 168.64L490.3 154.86M490.3 154.86L517.85 154.86"/>
</g>
</g>
</svg>
