<?xml version="1.0" standalone="no"?><svg xmlns="http://www.w3.org/2000/svg" width="600.000" height="450.000" viewBox="0.0 0.0 600.000 450.000" version="1.1">
<title>Acme Converter - Post-processed with EDS-Designer: 14.44 (info@symca.com)</title>
<desc>Acme Converter - Post-processed with EDS-Designer: 14.44 (info@symca.com)</desc>
<g id="EDS_STYLE_GROUP" fill="none" stroke="black" stroke-width="1.0">
<g id="0" display="visible">
<path d="M134.9 371.25L134.9 332.26M136.75 332.26L136.75 371.25M123.76 332.26L121.9 343.4M121.9 343.4L121.9 332.26M121.9 332.26L149.75 332.26M149.75 332.26L149.75 343.4M149.75 343.4L147.89 332.26M129.33 371.25L142.32 371.25M162.74 371.25L162.74 332.26M164.6 332.26L164.6 371.25M157.17 332.26L170.17 332.26M157.17 371.25L170.17 371.25M183.17 371.25L183.17 332.26M185.02 371.25L185.02 332.26M185.02 332.26L207.3 367.54M185.02 335.97L207.3 371.25M207.3 371.25L207.3 332.26M177.6 332.26L185.02 332.26M201.73 332.26L212.87 332.26M177.6 371.25L188.73 371.25M264.85 371.25L264.85 332.26M266.71 332.26L266.71 371.25M259.28 332.26L281.56 332.26M281.56 332.26L287.13 334.12M287.13 334.12L288.99 335.97M288.99 335.97L290.84 339.69M290.84 339.69L290.84 345.26M290.84 345.26L288.99 348.97M288.99 348.97L287.13 350.83M287.13 350.83L281.56 352.68M281.56 352.68L266.71 352.68M281.56 332.26L285.28 334.12M285.28 334.12L287.13 335.97M287.13 335.97L288.99 339.69M288.99 339.69L288.99 345.26M288.99 345.26L287.13 348.97M287.13 348.97L285.28 350.83M285.28 350.83L281.56 352.68M259.28 371.25L272.28 371.25M305.7 371.25L305.7 332.26M307.55 332.26L307.55 371.25M300.13 332.26L313.12 332.26M300.13 371.25L327.98 371.25M327.98 371.25L327.98 360.11M327.98 360.11L326.12 371.25M350.25 332.26L337.26 371.25M350.25 332.26L363.25 371.25M350.25 337.83L361.39 371.25M340.97 360.11L357.68 360.11M333.55 371.25L344.68 371.25M355.82 371.25L366.96 371.25M385.53 371.25L385.53 332.26M387.39 332.26L387.39 371.25M374.39 332.26L372.53 343.4M372.53 343.4L372.53 332.26M372.53 332.26L400.38 332.26M400.38 332.26L400.38 343.4M400.38 343.4L398.52 332.26M379.96 371.25L392.95 371.25M413.38 371.25L413.38 332.26M415.23 332.26L415.23 371.25M426.37 343.4L426.37 358.25M407.81 332.26L437.51 332.26M437.51 332.26L437.51 343.4M437.51 343.4L435.66 332.26M415.23 350.83L426.37 350.83M407.81 371.25L437.51 371.25M437.51 371.25L437.51 360.11M437.51 360.11L435.66 371.25M452.36 371.25L452.36 332.26M454.22 332.26L454.22 371.25M446.79 332.26L465.36 332.26M465.36 332.26L470.93 334.12M470.93 334.12L474.64 337.83M474.64 337.83L476.5 341.54M476.5 341.54L478.36 347.11M478.36 347.11L478.36 356.4M478.36 356.4L476.5 361.97M476.5 361.97L474.64 365.68M474.64 365.68L470.93 369.39M470.93 369.39L465.36 371.25M465.36 371.25L446.79 371.25M465.36 332.26L469.07 334.12M469.07 334.12L472.79 337.83M472.79 337.83L474.64 341.54M474.64 341.54L476.5 347.11M476.5 347.11L476.5 356.4M476.5 356.4L474.64 361.97M474.64 361.97L472.79 365.68M472.79 365.68L469.07 369.39M469.07 369.39L465.36 371.25"/>
<path d="M33.5 186.01L33.5 165.93"/>
<path d="M33.5 165.93L36.92 166.16M36.92 166.16L39.76 164.24M39.76 164.24L40.83 160.99"/>
<path d="M46.78 133.31L42.71 142.02M42.71 142.02L40.69 151.43M40.69 151.43L40.83 161.04"/>
<path d="M46.78 133.31L46.78 141.3"/>
<path d="M46.78 141.3L42.67 148.03M42.67 148.03L40.49 155.6"/>
<path d="M46.78 133.31L83.13 133.31"/>
<path d="M46.78 141.3L83.13 141.3"/>
<path d="M83.13 133.31L83.13 141.3"/>
<path d="M83.13 141.3L87.02 147.5M87.02 147.5L93.38 151.12M93.38 151.12L100.69 151.3M100.69 151.3L107.22 148"/>
<path d="M107.22 148L107.22 155.89"/>
<path d="M83.13 141.3L83.13 148.88"/>
<path d="M83.13 148.88L86.73 155.46M86.73 155.46L93.14 159.36M93.14 159.36L100.65 159.52M100.65 159.52L107.22 155.89"/>
<path d="M107.22 148L186.08 148"/>
<path d="M107.22 155.89L186.08 155.89"/>
<path d="M186.08 155.89L186.08 148"/>
<path d="M143.53 186.01L143.53 161.09M143.53 161.09L139.63 161.09M139.63 161.09L139.63 186.01"/>
<path d="M132.38 186.01L132.38 161.09M132.38 161.09L128.48 161.09M128.48 161.09L128.48 186.01"/>
<path d="M155.07 186.01L155.07 161.09M155.07 161.09L151.17 161.09M151.17 161.09L151.17 186.01"/>
<path d="M166.14 186.01L166.14 161.09M166.14 161.09L162.24 161.09M162.24 161.09L162.24 186.01"/>
<path d="M186.08 155.89L186.77 158.21M186.77 158.21L188.73 159.63M188.73 159.63L191.15 159.56"/>
<path d="M186.08 154.37L440.38 79.29"/>
<path d="M191.15 159.56L204.34 148.98"/>
<path d="M452.53 78.98L440.38 79.29"/>
<path d="M511.45 186.01L509.74 171.91M509.74 171.91L504.7 158.63M504.7 158.63L496.63 146.94M496.63 146.94L486 137.52M486 137.52L473.42 130.92M473.42 130.92L459.63 127.52M459.63 127.52L445.43 127.52M445.43 127.52L431.64 130.92M431.64 130.92L419.06 137.52M419.06 137.52L408.43 146.94M408.43 146.94L400.36 158.63M400.36 158.63L395.33 171.91M395.33 171.91L393.62 186.01"/>
<path d="M557.25 162.96L561.55 165.43M561.55 165.43L566.5 165.79"/>
<path d="M566.5 165.79L566.5 186.01"/>
<path d="M555.41 159.84L548.82 140.83M548.82 140.83L538.76 123.41M538.76 123.41L525.57 108.21M525.57 108.21L509.76 95.77M509.76 95.77L491.87 86.55M491.87 86.55L472.56 80.89M472.56 80.89L452.53 78.98"/>
<path d="M557.25 162.96L555.41 159.84"/>
<path d="M555.41 212.17L557.25 209.06"/>
<path d="M452.53 293.04L472.56 291.13M472.56 291.13L491.87 285.46M491.87 285.46L509.76 276.24M509.76 276.24L525.57 263.81M525.57 263.81L538.76 248.6M538.76 248.6L548.82 231.18M548.82 231.18L555.41 212.17"/>
<path d="M566.5 206.23L566.5 186.01"/>
<path d="M566.5 206.23L561.55 206.59M561.55 206.59L557.25 209.06"/>
<path d="M393.62 186.01L395.33 200.11M395.33 200.11L400.36 213.39M400.36 213.39L408.43 225.08M408.43 225.08L419.06 234.49M419.06 234.49L431.64 241.09M431.64 241.09L445.43 244.49M445.43 244.49L459.63 244.49M459.63 244.49L473.42 241.09M473.42 241.09L486 234.49M486 234.49L496.63 225.08M496.63 225.08L504.7 213.39M504.7 213.39L509.74 200.11M509.74 200.11L511.45 186.01"/>
<path d="M440.38 292.72L452.53 293.04"/>
<path d="M191.15 212.46L204.34 223.04"/>
<path d="M186.08 217.65L440.38 292.72"/>
<path d="M191.15 212.46L188.73 212.39M188.73 212.39L186.77 213.8M186.77 213.8L186.08 216.12"/>
<path d="M166.14 186.01L166.14 210.93M166.14 210.93L162.24 210.93M162.24 210.93L162.24 186.01"/>
<path d="M155.07 186.01L155.07 210.93M155.07 210.93L151.17 210.93M151.17 210.93L151.17 186.01"/>
<path d="M132.38 186.01L132.38 210.93M132.38 210.93L128.48 210.93M128.48 210.93L128.48 186.01"/>
<path d="M143.53 186.01L143.53 210.93M143.53 210.93L139.63 210.93M139.63 210.93L139.63 186.01"/>
<path d="M186.08 216.12L186.08 224.01"/>
<path d="M107.22 216.12L186.08 216.12"/>
<path d="M107.22 224.01L186.08 224.01"/>
<path d="M107.22 216.12L100.65 212.5M100.65 212.5L93.14 212.65M93.14 212.65L86.73 216.55M86.73 216.55L83.13 223.14"/>
<path d="M83.13 230.71L83.13 223.14"/>
<path d="M107.22 224.01L107.22 216.12"/>
<path d="M107.22 224.01L100.69 220.72M100.69 220.72L93.38 220.9M93.38 220.9L87.02 224.52M87.02 224.52L83.13 230.71"/>
<path d="M83.13 238.7L83.13 230.71"/>
<path d="M46.78 230.71L83.13 230.71"/>
<path d="M46.78 238.7L83.13 238.7"/>
<path d="M40.49 216.41L42.67 223.98M42.67 223.98L46.78 230.71"/>
<path d="M46.78 238.7L46.78 230.71"/>
<path d="M40.83 210.97L40.69 220.59M40.69 220.59L42.71 229.99M42.71 229.99L46.78 238.7"/>
<path d="M40.83 211.03L39.76 207.77M39.76 207.77L36.92 205.86M36.92 205.86L33.5 206.08"/>
<path d="M33.5 186.01L33.5 206.08"/>
</g>
</g>
</svg>
