<?xml version="1.0" standalone="no"?><svg xmlns="http://www.w3.org/2000/svg" width="600.000" height="450.000" viewBox="0.0 0.0 600.000 450.000" version="1.1">
<title>Acme Converter - Post-processed with EDS-Designer: 14.44 (info@symca.com)</title>
<desc>Acme Converter - Post-processed with EDS-Designer: 14.44 (info@symca.com)</desc>
<g id="EDS_STYLE_GROUP" fill="none" stroke="black" stroke-width="1.0">
<g id="0" display="visible">
<path d="M228.22 266.67L454.35 333.53"/>
<path d="M228.22 183.31L454.35 116.46"/>
<path d="M80.02 164.79L10.56 164.79"/>
<path d="M80.02 174.05L9.98 174.05"/>
<path d="M80.02 285.2L10.56 285.2"/>
<path d="M80.02 275.93L9.98 275.93"/>
<path d="M5.93 243.52L10.56 285.2"/>
<path d="M5.93 206.47L10.56 164.79"/>
<path d="M1.3 243.52L1.3 206.47"/>
<path d="M1.3 243.52L5.93 243.52"/>
<path d="M1.3 206.47L5.93 206.47"/>
<path d="M144.86 197.2L144.86 252.78"/>
<path d="M135.6 252.78L135.6 197.2"/>
<path d="M181.91 252.78L181.91 197.2"/>
<path d="M191.17 197.2L191.17 252.78"/>
<path d="M205.06 252.78L205.06 197.2"/>
<path d="M214.32 197.2L214.32 252.78"/>
<path d="M191.17 252.78L181.91 252.78"/>
<path d="M228.22 266.67L126.33 266.67"/>
<path d="M228.22 257.41L126.33 257.41"/>
<path d="M80.02 275.93L126.33 257.41"/>
<path d="M80.02 285.2L126.33 266.67"/>
<path d="M80.02 275.93L80.02 285.2"/>
<path d="M126.33 257.41L126.33 266.67"/>
<path d="M144.86 252.78L135.6 252.78"/>
<path d="M214.32 252.78L205.06 252.78"/>
<path d="M228.22 257.41L228.22 266.67"/>
<path d="M228.22 183.31L126.33 183.31"/>
<path d="M228.22 192.57L126.33 192.57"/>
<path d="M181.91 197.2L191.17 197.2"/>
<path d="M126.33 183.31L126.33 192.57"/>
<path d="M80.02 174.05L126.33 192.57"/>
<path d="M135.6 197.2L144.86 197.2"/>
<path d="M80.02 164.79L126.33 183.31"/>
<path d="M80.02 164.79L80.02 174.05"/>
<path d="M228.22 183.31L228.22 192.57"/>
<path d="M205.06 197.2L214.32 197.2"/>
<path d="M587.89 206.47L582.8 187.14M582.8 187.14L574.33 169.04M574.33 169.04L562.76 152.74M562.76 152.74L548.45 138.79M548.45 138.79L531.88 127.62M531.88 127.62L513.58 119.59M513.58 119.59L494.13 114.98M494.13 114.98L474.18 113.92M474.18 113.92L454.35 116.46"/>
<path d="M418.09 224.99L419.98 210.02M419.98 210.02L425.54 195.99M425.54 195.99L434.41 183.78M434.41 183.78L446.04 174.16M446.04 174.16L459.69 167.73M459.69 167.73L474.52 164.91M474.52 164.91L489.58 165.85M489.58 165.85L503.93 170.52M503.93 170.52L516.67 178.6M516.67 178.6L527 189.6M527 189.6L534.27 202.83M534.27 202.83L538.03 217.45M538.03 217.45L538.03 232.54M538.03 232.54L534.27 247.15M534.27 247.15L527 260.38M527 260.38L516.67 271.38M516.67 271.38L503.93 279.47M503.93 279.47L489.58 284.13M489.58 284.13L474.52 285.08M474.52 285.08L459.69 282.25M459.69 282.25L446.04 275.82M446.04 275.82L434.41 266.2M434.41 266.2L425.54 253.99M425.54 253.99L419.98 239.96M419.98 239.96L418.09 224.99"/>
<path d="M454.35 333.53L474.18 336.06M474.18 336.06L494.13 335M494.13 335L513.58 330.39M513.58 330.39L531.88 322.37M531.88 322.37L548.45 311.2M548.45 311.2L562.76 297.24M562.76 297.24L574.33 280.94M574.33 280.94L582.8 262.84M582.8 262.84L587.89 243.52"/>
<path d="M449.19 243.52L449.19 206.47M450.95 206.47L461.54 238.22M449.19 206.47L461.54 243.52M461.54 243.52L473.89 206.47M473.89 206.47L473.89 243.52M475.65 243.52L475.65 206.47M443.89 206.47L450.95 206.47M473.89 206.47L480.94 206.47M443.89 243.52L454.48 243.52M468.59 243.52L480.94 243.52M509.17 211.76L507.41 213.52M507.41 213.52L509.17 215.29M509.17 215.29L510.93 213.52M510.93 213.52L510.93 211.76M510.93 211.76L509.17 208.23M509.17 208.23L505.64 206.47M505.64 206.47L500.35 206.47M500.35 206.47L495.06 208.23M495.06 208.23L491.53 211.76M491.53 211.76L489.76 215.29M489.76 215.29L488 222.34M488 222.34L488 232.93M488 232.93L489.76 238.22M489.76 238.22L493.29 241.75M493.29 241.75L498.58 243.52M498.58 243.52L502.11 243.52M502.11 243.52L507.41 241.75M507.41 241.75L510.93 238.22M510.93 238.22L512.7 232.93M512.7 232.93L512.7 231.17M512.7 231.17L510.93 225.87M510.93 225.87L507.41 222.34M507.41 222.34L502.11 220.58M502.11 220.58L500.35 220.58M500.35 220.58L495.06 222.34M495.06 222.34L491.53 225.87M491.53 225.87L489.76 231.17M500.35 206.47L496.82 208.23M496.82 208.23L493.29 211.76M493.29 211.76L491.53 215.29M491.53 215.29L489.76 222.34M489.76 222.34L489.76 232.93M489.76 232.93L491.53 238.22M491.53 238.22L495.06 241.75M495.06 241.75L498.58 243.52M502.11 243.52L505.64 241.75M505.64 241.75L509.17 238.22M509.17 238.22L510.93 232.93M510.93 232.93L510.93 231.17M510.93 231.17L509.17 225.87M509.17 225.87L505.64 222.34"/>
<path d="M598.7 243.52L598.7 206.47"/>
<path d="M598.7 243.52L587.89 243.52"/>
<path d="M598.7 206.47L587.89 206.47"/>
<path d="M158.75 197.2L168.01 197.2"/>
<path d="M158.75 252.78L158.75 197.2"/>
<path d="M168.01 197.2L168.01 252.78"/>
<path d="M168.01 252.78L158.75 252.78"/>
</g>
</g>
</svg>
