<?xml version="1.0" standalone="no"?><svg xmlns="http://www.w3.org/2000/svg" width="600.000" height="450.000" viewBox="0.0 0.0 600.000 450.000" version="1.1">
<title>Acme Converter - Post-processed with EDS-Designer: 14.44 (info@symca.com)</title>
<desc>Acme Converter - Post-processed with EDS-Designer: 14.44 (info@symca.com)</desc>
<g id="EDS_STYLE_GROUP" fill="none" stroke="black" stroke-width="1.0">
<g id="0" display="visible">
<path d="M301.76 169.48L301.76 183.39"/>
<path d="M301.76 169.48L116.73 169.48"/>
<path d="M301.76 169.48L470.87 128.69"/>
<path d="M301.76 280.71L470.87 321.5"/>
<path d="M470.87 321.5L488.99 322.31M488.99 322.31L506.94 319.74M506.94 319.74L524.1 313.89M524.1 313.89L539.88 304.95M539.88 304.95L553.72 293.25M553.72 293.25L565.16 279.17M565.16 279.17L573.79 263.23M573.79 263.23L579.3 245.95"/>
<path d="M579.3 204.24L598.77 204.24"/>
<path d="M579.3 245.95L598.77 245.95"/>
<path d="M598.77 204.24L598.77 245.95"/>
<path d="M579.3 204.24L573.79 186.97M573.79 186.97L565.16 171.02M565.16 171.02L553.72 156.95M553.72 156.95L539.88 145.24M539.88 145.24L524.1 136.31M524.1 136.31L506.94 130.45M506.94 130.45L488.99 127.88M488.99 127.88L470.87 128.69"/>
<path d="M301.76 183.39L116.73 183.39"/>
<path d="M301.76 183.39L307.57 182.12M307.57 182.12L312.31 178.54M312.31 178.54L315.13 173.31M315.13 173.31L315.51 167.38"/>
<path d="M266.58 198.16L266.58 250.35"/>
<path d="M252.67 198.16L252.67 250.35"/>
<path d="M266.58 198.16L265.25 194.07M265.25 194.07L261.77 191.54M261.77 191.54L257.48 191.54M257.48 191.54L254 194.07M254 194.07L252.67 198.16"/>
<path d="M252.67 250.35L254 254.44M254 254.44L257.48 256.97M257.48 256.97L261.77 256.97M261.77 256.97L265.25 254.44M265.25 254.44L266.58 250.35"/>
<path d="M231.82 198.16L231.82 250.35"/>
<path d="M231.82 198.16L230.49 194.07M230.49 194.07L227.01 191.54M227.01 191.54L222.72 191.54M222.72 191.54L219.24 194.07M219.24 194.07L217.91 198.16"/>
<path d="M217.91 198.16L217.91 250.35"/>
<path d="M217.91 250.35L219.24 254.44M219.24 254.44L222.72 256.97M222.72 256.97L227.01 256.97M227.01 256.97L230.49 254.44M230.49 254.44L231.82 250.35"/>
<path d="M197.06 198.16L197.06 250.35"/>
<path d="M197.06 198.16L195.73 194.07M195.73 194.07L192.25 191.54M192.25 191.54L187.96 191.54M187.96 191.54L184.48 194.07M184.48 194.07L183.15 198.16"/>
<path d="M183.15 198.16L183.15 250.35"/>
<path d="M183.15 250.35L184.48 254.44M184.48 254.44L187.96 256.97M187.96 256.97L192.25 256.97M192.25 256.97L195.73 254.44M195.73 254.44L197.06 250.35"/>
<path d="M162.3 198.16L162.3 250.35"/>
<path d="M162.3 198.16L160.97 194.07M160.97 194.07L157.49 191.54M157.49 191.54L153.2 191.54M153.2 191.54L149.72 194.07M149.72 194.07L148.39 198.16"/>
<path d="M148.39 198.16L148.39 250.35"/>
<path d="M148.39 250.35L149.72 254.44M149.72 254.44L153.2 256.97M153.2 256.97L157.49 256.97M157.49 256.97L160.97 254.44M160.97 254.44L162.3 250.35"/>
<path d="M116.73 169.48L105.94 176.11"/>
<path d="M105.94 176.11L82.99 145.23"/>
<path d="M82.99 145.23L82.99 159.13"/>
<path d="M82.99 145.23L17.74 145.23"/>
<path d="M82.99 159.13L17.74 159.13"/>
<path d="M116.73 183.39L105.94 190.01"/>
<path d="M105.94 190.01L82.99 159.13"/>
<path d="M116.73 169.48L116.73 183.39"/>
<path d="M17.74 145.23L10.43 212.11"/>
<path d="M1.54 212.11L1.54 225.1"/>
<path d="M1.54 212.11L10.43 212.11"/>
<path d="M301.76 280.71L116.73 280.71"/>
<path d="M301.76 266.81L116.73 266.81"/>
<path d="M301.76 280.71L301.76 266.81"/>
<path d="M301.76 266.81L307.57 268.08M307.57 268.08L312.31 271.66M312.31 271.66L315.13 276.89M315.13 276.89L315.51 282.82"/>
<path d="M116.73 280.71L116.73 266.81"/>
<path d="M116.73 280.71L105.94 274.09"/>
<path d="M116.73 266.81L105.94 260.18"/>
<path d="M105.94 260.18L82.99 291.06"/>
<path d="M105.94 274.09L82.99 304.97"/>
<path d="M82.99 304.97L82.99 291.06"/>
<path d="M82.99 304.97L17.74 304.97"/>
<path d="M82.99 291.06L17.74 291.06"/>
<path d="M17.74 304.97L10.43 238.09"/>
<path d="M1.54 238.09L10.43 238.09"/>
<path d="M1.54 238.09L1.54 225.1"/>
<path d="M421.67 225.1L423.63 209.54M423.63 209.54L429.41 194.95M429.41 194.95L438.63 182.27M438.63 182.27L450.71 172.27M450.71 172.27L464.9 165.59M464.9 165.59L480.31 162.65M480.31 162.65L495.96 163.64M495.96 163.64L510.88 168.48M510.88 168.48L524.12 176.89M524.12 176.89L534.86 188.32M534.86 188.32L542.41 202.06M542.41 202.06L546.31 217.26M546.31 217.26L546.31 232.94M546.31 232.94L542.41 248.13M542.41 248.13L534.86 261.87M534.86 261.87L524.12 273.31M524.12 273.31L510.88 281.71M510.88 281.71L495.96 286.56M495.96 286.56L480.31 287.54M480.31 287.54L464.9 284.6M464.9 284.6L450.71 277.93M450.71 277.93L438.63 267.93M438.63 267.93L429.41 255.24M429.41 255.24L423.63 240.66M423.63 240.66L421.67 225.1"/>
<path d="M450.48 245.85L450.48 204.14M450.48 204.14L464.38 231.95M464.38 231.95L478.28 204.14M478.28 204.14L478.28 245.85M492.19 238.9L499.14 245.85M499.14 245.85L513.04 245.85M513.04 245.85L520 238.9M520 238.9L520 225M520 225L513.04 218.05M513.04 218.05L492.19 218.05M492.19 218.05L492.19 204.14M492.19 204.14L520 204.14"/>
</g>
</g>
</svg>
