<?xml version="1.0" standalone="no"?><svg xmlns="http://www.w3.org/2000/svg" width="600.000" height="450.000" viewBox="0.0 0.0 600.000 450.000" version="1.1">
<title>Acme Converter - Post-processed with EDS-Designer: 14.44 (info@symca.com)</title>
<desc>Acme Converter - Post-processed with EDS-Designer: 14.44 (info@symca.com)</desc>
<g id="EDS_STYLE_GROUP" fill="none" stroke="black" stroke-width="1.0">
<g id="0" display="visible">
<path d="M228.21 262.04L454.35 333.53"/>
<path d="M228.21 187.94L454.35 116.45"/>
<path d="M80.02 169.42L10.55 169.42"/>
<path d="M80.02 178.68L9.97 178.68"/>
<path d="M80.02 280.56L10.55 280.56"/>
<path d="M80.02 271.3L9.97 271.3"/>
<path d="M5.92 243.51L10.55 280.56"/>
<path d="M5.92 206.47L10.55 169.42"/>
<path d="M1.29 243.51L1.29 206.47"/>
<path d="M1.29 243.51L5.92 243.51"/>
<path d="M1.29 206.47L5.92 206.47"/>
<path d="M144.85 201.83L144.85 248.14"/>
<path d="M135.59 248.14L135.59 201.83"/>
<path d="M181.9 248.14L181.9 201.83"/>
<path d="M191.16 201.83L191.16 248.14"/>
<path d="M205.06 248.14L205.06 201.83"/>
<path d="M214.32 201.83L214.32 248.14"/>
<path d="M191.16 248.14L181.9 248.14"/>
<path d="M228.21 262.04L126.33 262.04"/>
<path d="M228.21 252.78L126.33 252.78"/>
<path d="M80.02 271.3L126.33 252.78"/>
<path d="M80.02 280.56L126.33 262.04"/>
<path d="M80.02 271.3L80.02 280.56"/>
<path d="M126.33 252.78L126.33 262.04"/>
<path d="M144.85 248.14L135.59 248.14"/>
<path d="M214.32 248.14L205.06 248.14"/>
<path d="M228.21 252.78L228.21 262.04"/>
<path d="M228.21 187.94L126.33 187.94"/>
<path d="M228.21 197.2L126.33 197.2"/>
<path d="M181.9 201.83L191.16 201.83"/>
<path d="M126.33 187.94L126.33 197.2"/>
<path d="M80.02 178.68L126.33 197.2"/>
<path d="M135.59 201.83L144.85 201.83"/>
<path d="M80.02 169.42L126.33 187.94"/>
<path d="M80.02 169.42L80.02 178.68"/>
<path d="M228.21 187.94L228.21 197.2"/>
<path d="M205.06 201.83L214.32 201.83"/>
<path d="M587.88 206.47L582.79 187.14M582.79 187.14L574.32 169.04M574.32 169.04L562.75 152.74M562.75 152.74L548.45 138.79M548.45 138.79L531.88 127.61M531.88 127.61L513.57 119.59M513.57 119.59L494.13 114.98M494.13 114.98L474.17 113.92M474.17 113.92L454.35 116.45"/>
<path d="M418.09 224.99L419.98 210.02M419.98 210.02L425.53 195.99M425.53 195.99L434.4 183.78M434.4 183.78L446.03 174.16M446.03 174.16L459.69 167.73M459.69 167.73L474.51 164.9M474.51 164.9L489.57 165.85M489.57 165.85L503.92 170.52M503.92 170.52L516.67 178.6M516.67 178.6L527 189.6M527 189.6L534.27 202.83M534.27 202.83L538.02 217.44M538.02 217.44L538.02 232.54M538.02 232.54L534.27 247.15M534.27 247.15L527 260.38M527 260.38L516.67 271.38M516.67 271.38L503.92 279.46M503.92 279.46L489.57 284.13M489.57 284.13L474.51 285.07M474.51 285.07L459.69 282.25M459.69 282.25L446.03 275.82M446.03 275.82L434.4 266.2M434.4 266.2L425.53 253.99M425.53 253.99L419.98 239.96M419.98 239.96L418.09 224.99"/>
<path d="M454.35 333.53L474.17 336.06M474.17 336.06L494.13 335M494.13 335L513.57 330.39M513.57 330.39L531.88 322.36M531.88 322.36L548.45 311.19M548.45 311.19L562.75 297.24M562.75 297.24L574.32 280.94M574.32 280.94L582.79 262.84M582.79 262.84L587.88 243.51"/>
<path d="M449.18 243.51L449.18 206.47M450.94 206.47L461.53 238.22M449.18 206.47L461.53 243.51M461.53 243.51L473.88 206.47M473.88 206.47L473.88 243.51M475.64 243.51L475.64 206.47M443.89 206.47L450.94 206.47M473.88 206.47L480.94 206.47M443.89 243.51L454.47 243.51M468.59 243.51L480.94 243.51M509.16 211.76L507.4 213.52M507.4 213.52L509.16 215.29M509.16 215.29L510.93 213.52M510.93 213.52L510.93 211.76M510.93 211.76L509.16 208.23M509.16 208.23L505.64 206.47M505.64 206.47L500.34 206.47M500.34 206.47L495.05 208.23M495.05 208.23L491.52 211.76M491.52 211.76L489.76 215.29M489.76 215.29L487.99 222.34M487.99 222.34L487.99 232.93M487.99 232.93L489.76 238.22M489.76 238.22L493.29 241.75M493.29 241.75L498.58 243.51M498.58 243.51L502.11 243.51M502.11 243.51L507.4 241.75M507.4 241.75L510.93 238.22M510.93 238.22L512.69 232.93M512.69 232.93L512.69 231.16M512.69 231.16L510.93 225.87M510.93 225.87L507.4 222.34M507.4 222.34L502.11 220.58M502.11 220.58L500.34 220.58M500.34 220.58L495.05 222.34M495.05 222.34L491.52 225.87M491.52 225.87L489.76 231.16M500.34 206.47L496.81 208.23M496.81 208.23L493.29 211.76M493.29 211.76L491.52 215.29M491.52 215.29L489.76 222.34M489.76 222.34L489.76 232.93M489.76 232.93L491.52 238.22M491.52 238.22L495.05 241.75M495.05 241.75L498.58 243.51M502.11 243.51L505.64 241.75M505.64 241.75L509.16 238.22M509.16 238.22L510.93 232.93M510.93 232.93L510.93 231.16M510.93 231.16L509.16 225.87M509.16 225.87L505.64 222.34"/>
<path d="M598.7 243.51L598.7 206.47"/>
<path d="M598.7 243.51L587.88 243.51"/>
<path d="M598.7 206.47L587.88 206.47"/>
<path d="M158.75 201.83L168.01 201.83"/>
<path d="M158.75 248.14L158.75 201.83"/>
<path d="M168.01 201.83L168.01 248.14"/>
<path d="M168.01 248.14L158.75 248.14"/>
</g>
</g>
</svg>
