<?xml version="1.0" standalone="no"?><svg xmlns="http://www.w3.org/2000/svg" width="600.000" height="450.000" viewBox="0.0 0.0 600.000 450.000" version="1.1">
<title>Acme Converter - Post-processed with EDS-Designer: 14.44 (info@symca.com)</title>
<desc>Acme Converter - Post-processed with EDS-Designer: 14.44 (info@symca.com)</desc>
<g id="EDS_STYLE_GROUP" fill="none" stroke="black" stroke-width="1.0">
<g id="0" display="visible">
<path d="M472.16 303.02L598.72 303.02"/>
<path d="M472.16 147.1L598.72 147.1"/>
<path d="M472.16 303.02L472.16 292.91"/>
<path d="M464.86 298.13L472.16 292.91"/>
<path d="M472.16 292.91L598.72 292.91"/>
<path d="M472.16 157.21L472.16 147.1"/>
<path d="M472.16 157.21L464.86 151.99"/>
<path d="M472.16 157.21L598.72 157.21"/>
<path d="M598.72 303.02L598.72 147.1"/>
<path d="M379.53 298.13L379.53 151.99"/>
<path d="M472.16 298.13L25.94 298.13"/>
<path d="M472.16 151.99L25.94 151.99"/>
<path d="M42.66 225.06L44.46 213.07M44.46 213.07L49.73 202.14M49.73 202.14L57.98 193.25M57.98 193.25L68.48 187.18M68.48 187.18L80.31 184.48M80.31 184.48L92.4 185.39M92.4 185.39L103.69 189.82M103.69 189.82L113.17 197.38M113.17 197.38L120.01 207.41M120.01 207.41L123.58 219M123.58 219L123.58 231.13M123.58 231.13L120.01 242.72M120.01 242.72L113.17 252.74M113.17 252.74L103.69 260.3M103.69 260.3L92.4 264.73M92.4 264.73L80.31 265.64M80.31 265.64L68.48 262.94M68.48 262.94L57.98 256.87M57.98 256.87L49.73 247.98M49.73 247.98L44.46 237.05M44.46 237.05L42.66 225.06"/>
<path d="M25.94 151.99L15.45 168.53M15.45 168.53L7.76 186.54M7.76 186.54L3.06 205.54M3.06 205.54L1.48 225.06M1.48 225.06L3.06 244.58M3.06 244.58L7.76 263.59M7.76 263.59L15.45 281.59M15.45 281.59L25.94 298.13"/>
</g>
</g>
</svg>
