<?xml version="1.0" standalone="no"?><svg xmlns="http://www.w3.org/2000/svg" width="600.000" height="450.000" viewBox="0.0 0.0 600.000 450.000" version="1.1">
<title>Acme Converter - Post-processed with EDS-Designer: 14.44 (info@symca.com)</title>
<desc>Acme Converter - Post-processed with EDS-Designer: 14.44 (info@symca.com)</desc>
<g id="EDS_STYLE_GROUP" fill="none" stroke="black" stroke-width="1.0">
<g id="0" display="visible">
<path d="M114.44 387.77L114.44 344.01M116.52 344.01L116.52 387.77M101.93 344.01L99.85 356.51M99.85 356.51L99.85 344.01M99.85 344.01L131.11 344.01M131.11 344.01L131.11 356.51M131.11 356.51L129.03 344.01M108.19 387.77L122.77 387.77M145.7 387.77L145.7 344.01M147.78 344.01L147.78 387.77M139.45 344.01L154.03 344.01M139.45 387.77L154.03 387.77M168.62 387.77L168.62 344.01M170.71 387.77L170.71 344.01M170.71 344.01L195.71 383.6M170.71 348.17L195.71 387.77M195.71 387.77L195.71 344.01M162.37 344.01L170.71 344.01M189.46 344.01L201.97 344.01M162.37 387.77L174.87 387.77M260.32 387.77L260.32 344.01M262.4 344.01L262.4 387.77M254.07 344.01L279.08 344.01M279.08 344.01L285.33 346.09M285.33 346.09L287.41 348.17M287.41 348.17L289.5 352.34M289.5 352.34L289.5 358.59M289.5 358.59L287.41 362.76M287.41 362.76L285.33 364.85M285.33 364.85L279.08 366.93M279.08 366.93L262.4 366.93M279.08 344.01L283.24 346.09M283.24 346.09L285.33 348.17M285.33 348.17L287.41 352.34M287.41 352.34L287.41 358.59M287.41 358.59L285.33 362.76M285.33 362.76L283.24 364.85M283.24 364.85L279.08 366.93M254.07 387.77L268.66 387.77M306.17 387.77L306.17 344.01M308.25 344.01L308.25 387.77M299.92 344.01L314.51 344.01M299.92 387.77L331.18 387.77M331.18 387.77L331.18 375.27M331.18 375.27L329.09 387.77M356.19 344.01L341.6 387.77M356.19 344.01L370.77 387.77M356.19 350.26L368.69 387.77M345.77 375.27L364.52 375.27M337.43 387.77L349.93 387.77M362.44 387.77L374.94 387.77M395.78 387.77L395.78 344.01M397.87 344.01L397.87 387.77M383.28 344.01L381.19 356.51M381.19 356.51L381.19 344.01M381.19 344.01L412.46 344.01M412.46 344.01L412.46 356.51M412.46 356.51L410.37 344.01M389.53 387.77L404.12 387.77M427.04 387.77L427.04 344.01M429.13 344.01L429.13 387.77M441.63 356.51L441.63 373.18M420.79 344.01L454.14 344.01M454.14 344.01L454.14 356.51M454.14 356.51L452.05 344.01M429.13 364.85L441.63 364.85M420.79 387.77L454.14 387.77M454.14 387.77L454.14 375.27M454.14 375.27L452.05 387.77M470.81 387.77L470.81 344.01M472.89 344.01L472.89 387.77M464.56 344.01L485.4 344.01M485.4 344.01L491.65 346.09M491.65 346.09L495.82 350.26M495.82 350.26L497.9 354.43M497.9 354.43L499.98 360.68M499.98 360.68L499.98 371.1M499.98 371.1L497.9 377.35M497.9 377.35L495.82 381.52M495.82 381.52L491.65 385.69M491.65 385.69L485.4 387.77M485.4 387.77L464.56 387.77M485.4 344.01L489.56 346.09M489.56 346.09L493.73 350.26M493.73 350.26L495.82 354.43M495.82 354.43L497.9 360.68M497.9 360.68L497.9 371.1M497.9 371.1L495.82 377.35M495.82 377.35L493.73 381.52M493.73 381.52L489.56 385.69M489.56 385.69L485.4 387.77"/>
<path d="M114.79 277.4L126.71 255.16"/>
<path d="M126.71 109.73L114.79 87.22"/>
<path d="M41.4 277.4L50.18 255.16"/>
<path d="M50.18 109.73L41.4 87.22"/>
<path d="M18.86 235.47L41.4 277.4"/>
<path d="M18.86 130.31L41.4 87.22"/>
<path d="M114.79 277.4L146.11 263.53"/>
<path d="M41.4 277.4L114.79 277.4"/>
<path d="M114.79 87.22L146.11 102.43"/>
<path d="M41.4 87.22L114.79 87.22"/>
<path d="M164.01 263.53L178.73 242.63"/>
<path d="M261.57 263.53L247.48 242.63"/>
<path d="M261.57 263.53L343.73 288.02"/>
<path d="M146.11 263.53L261.57 263.53"/>
<path d="M164.01 102.43L178.73 121.81"/>
<path d="M261.57 102.43L247.48 121.81"/>
<path d="M261.57 102.43L343.73 76.29"/>
<path d="M146.11 102.43L261.57 102.43"/>
<path d="M420.6 181.37L422.55 167.13M422.55 167.13L428.28 153.94M428.28 153.94L437.36 142.79M437.36 142.79L449.1 134.5M449.1 134.5L462.65 129.68M462.65 129.68L477 128.7M477 128.7L491.07 131.63M491.07 131.63L503.84 138.24M503.84 138.24L514.35 148.05M514.35 148.05L521.82 160.34M521.82 160.34L525.7 174.18M525.7 174.18L525.7 188.56M525.7 188.56L521.82 202.41M521.82 202.41L514.35 214.69M514.35 214.69L503.84 224.51M503.84 224.51L491.07 231.12M491.07 231.12L477 234.05M477 234.05L462.65 233.07M462.65 233.07L449.1 228.25M449.1 228.25L437.36 219.96M437.36 219.96L428.28 208.81M428.28 208.81L422.55 195.62M422.55 195.62L420.6 181.37"/>
<path d="M483.97 300.24L504.63 296.8M504.63 296.8L524.37 289.8M524.37 289.8L542.59 279.45M542.59 279.45L558.71 266.08M558.71 266.08L572.25 250.1M572.25 250.1L582.79 232M582.79 232L590 212.33M590 212.33L593.66 191.71M593.66 191.71L593.66 170.76M593.66 170.76L590 150.14M590 150.14L582.79 130.47M582.79 130.47L572.25 112.37M572.25 112.37L558.71 96.39M558.71 96.39L542.59 83.02M542.59 83.02L524.37 72.68M524.37 72.68L504.63 65.67M504.63 65.67L483.97 62.23"/>
<path d="M343.73 288.02L483.97 300.24"/>
<path d="M343.73 76.29L483.97 62.23"/>
<path d="M247.48 242.63L343.73 288.02"/>
<path d="M247.48 121.81L343.73 76.29"/>
<path d="M178.73 121.81L178.73 242.63"/>
<path d="M184.42 121.81L184.42 242.63"/>
<path d="M199.4 121.81L199.4 242.63"/>
<path d="M204.97 121.81L204.97 242.63"/>
<path d="M218.84 121.81L218.84 242.63"/>
<path d="M224.66 121.81L224.66 242.63"/>
<path d="M238.53 121.81L238.53 242.63"/>
<path d="M247.48 242.63L151.32 242.63"/>
<path d="M247.48 121.81L247.48 242.63"/>
<path d="M151.32 121.81L247.48 121.81"/>
<path d="M126.71 255.16L151.32 242.63"/>
<path d="M151.32 121.81L126.71 109.73"/>
<path d="M151.32 121.81L151.32 242.63"/>
<path d="M18.86 235.47L50.18 255.16"/>
<path d="M5.88 179.54L18.86 235.47"/>
<path d="M18.86 130.31L50.18 109.73"/>
<path d="M5.88 179.54L18.86 130.31"/>
<path d="M126.71 255.16L50.18 255.16"/>
<path d="M126.71 109.73L126.71 255.16"/>
<path d="M50.18 109.73L126.71 109.73"/>
</g>
</g>
</svg>
