<?xml version="1.0" standalone="no"?><svg xmlns="http://www.w3.org/2000/svg" width="600.000" height="450.000" viewBox="0.0 0.0 600.000 450.000" version="1.1">
<title>Acme Converter - Post-processed with EDS-Designer: 14.44 (info@symca.com)</title>
<desc>Acme Converter - Post-processed with EDS-Designer: 14.44 (info@symca.com)</desc>
<g id="EDS_STYLE_GROUP" fill="none" stroke="black" stroke-width="1.0">
<g id="0" display="visible">
<path d="M208.04 386.06L208.04 366.74M208.96 366.74L208.96 386.06M202.52 366.74L201.6 372.26M201.6 372.26L201.6 366.74M201.6 366.74L215.4 366.74M215.4 366.74L215.4 372.26M215.4 372.26L214.48 366.74M205.28 386.06L211.72 386.06M221.85 386.06L221.85 366.74M222.77 366.74L222.77 386.06M219.09 366.74L225.53 366.74M219.09 386.06L225.53 386.06M231.97 386.06L231.97 366.74M232.89 386.06L232.89 366.74M232.89 366.74L243.93 384.22M232.89 368.58L243.93 386.06M243.93 386.06L243.93 366.74M229.21 366.74L232.89 366.74M241.17 366.74L246.69 366.74M229.21 386.06L234.73 386.06M272.46 386.06L272.46 366.74M273.38 366.74L273.38 386.06M269.7 366.74L280.74 366.74M280.74 366.74L283.5 367.66M283.5 367.66L284.42 368.58M284.42 368.58L285.34 370.42M285.34 370.42L285.34 373.18M285.34 373.18L284.42 375.02M284.42 375.02L283.5 375.94M283.5 375.94L280.74 376.86M280.74 376.86L273.38 376.86M280.74 366.74L282.58 367.66M282.58 367.66L283.5 368.58M283.5 368.58L284.42 370.42M284.42 370.42L284.42 373.18M284.42 373.18L283.5 375.02M283.5 375.02L282.58 375.94M282.58 375.94L280.74 376.86M269.7 386.06L276.14 386.06M292.7 386.06L292.7 366.74M293.62 366.74L293.62 386.06M289.94 366.74L296.38 366.74M289.94 386.06L303.74 386.06M303.74 386.06L303.74 380.54M303.74 380.54L302.82 386.06M314.79 366.74L308.34 386.06M314.79 366.74L321.23 386.06M314.79 369.5L320.31 386.06M310.18 380.54L318.47 380.54M306.5 386.06L312.02 386.06M317.55 386.06L323.07 386.06M332.27 386.06L332.27 366.74M333.19 366.74L333.19 386.06M326.75 366.74L325.83 372.26M325.83 372.26L325.83 366.74M325.83 366.74L339.63 366.74M339.63 366.74L339.63 372.26M339.63 372.26L338.71 366.74M329.51 386.06L335.95 386.06M346.07 386.06L346.07 366.74M346.99 366.74L346.99 386.06M352.51 372.26L352.51 379.62M343.31 366.74L358.03 366.74M358.03 366.74L358.03 372.26M358.03 372.26L357.11 366.74M346.99 375.94L352.51 375.94M343.31 386.06L358.03 386.06M358.03 386.06L358.03 380.54M358.03 380.54L357.11 386.06M365.4 386.06L365.4 366.74M366.32 366.74L366.32 386.06M362.64 366.74L371.84 366.74M371.84 366.74L374.6 367.66M374.6 367.66L376.44 369.5M376.44 369.5L377.36 371.34M377.36 371.34L378.28 374.1M378.28 374.1L378.28 378.7M378.28 378.7L377.36 381.46M377.36 381.46L376.44 383.3M376.44 383.3L374.6 385.14M374.6 385.14L371.84 386.06M371.84 386.06L362.64 386.06M371.84 366.74L373.68 367.66M373.68 367.66L375.52 369.5M375.52 369.5L376.44 371.34M376.44 371.34L377.36 374.1M377.36 374.1L377.36 378.7M377.36 378.7L376.44 381.46M376.44 381.46L375.52 383.3M375.52 383.3L373.68 385.14M373.68 385.14L371.84 386.06"/>
<path d="M307.46 182.26L290.26 70.53"/>
<path d="M276.51 72.64L290.26 70.53"/>
<path d="M276.51 72.64L293.71 184.37"/>
<path d="M307.46 182.26L309.93 188.29M309.93 188.29L314.87 192.53M314.87 192.53L321.21 194.05"/>
<path d="M290.26 70.53L287.36 63.94"/>
<path d="M277.29 65.48L287.36 63.94"/>
<path d="M276.51 72.64L277.29 65.48"/>
<path d="M293.71 184.37L296.89 193.66M296.89 193.66L303.09 201.26M303.09 201.26L311.55 206.24M311.55 206.24L321.21 207.97"/>
<path d="M408.17 207.97L321.21 207.97"/>
<path d="M408.17 194.05L321.21 194.05"/>
<path d="M408.17 207.97L417.83 206.24M417.83 206.24L426.29 201.26M426.29 201.26L432.49 193.66M432.49 193.66L435.67 184.37"/>
<path d="M408.17 194.05L414.5 192.53M414.5 192.53L419.45 188.29M419.45 188.29L421.92 182.26"/>
<path d="M352.07 210.01L352.14 209.3M352.14 209.3L352.36 208.71M352.36 208.71L353.26 208.05M353.26 208.05L353.92 207.97"/>
<path d="M324.69 210L324.69 208.38"/>
<path d="M375.46 207.97L374.61 208.3M374.61 208.3L373.92 209.24"/>
<path d="M355.46 209.24L354.77 208.3M354.77 208.3L353.92 207.97"/>
<path d="M364.69 208.99L355.46 209.24"/>
<path d="M373.92 209.24L364.69 208.99"/>
<path d="M404.69 210L404.69 208.38"/>
<path d="M377.31 210.01L377.24 209.3M377.24 209.3L377.01 208.71M377.01 208.71L376.12 208.05M376.12 208.05L375.46 207.97"/>
<path d="M421.92 182.26L439.12 70.53"/>
<path d="M452.87 72.64L435.67 184.37"/>
<path d="M452.87 72.64L439.12 70.53"/>
<path d="M404.69 214.92L404.69 210"/>
<path d="M324.69 214.92L324.69 210"/>
<path d="M324.68 208.38L324.27 207.97"/>
<path d="M355.46 212.72L354.1 211.19M354.1 211.19L353.87 210.32M353.87 210.32L354.13 209.69M354.13 209.69L354.77 209.34M354.77 209.34L355.46 209.24"/>
<path d="M353.92 214.92L352.86 213.11M352.86 213.11L352.22 211.25M352.22 211.25L352.07 210.01"/>
<path d="M353.92 214.92L355.46 212.72"/>
<path d="M353.92 214.92L324.69 214.92"/>
<path d="M375.46 214.92L373.92 212.72"/>
<path d="M375.46 214.92L376.52 213.11M376.52 213.11L377.16 211.25M377.16 211.25L377.31 210.01"/>
<path d="M373.92 212.72L374.89 211.79M374.89 211.79L375.45 210.77M375.45 210.77L375.48 210.11M375.48 210.11L375.1 209.56M375.1 209.56L374.24 209.27M374.24 209.27L373.92 209.24"/>
<path d="M364.69 216.02L361.2 215.56M361.2 215.56L357.93 214.29M357.93 214.29L355.46 212.72"/>
<path d="M373.92 212.72L370.53 214.74M370.53 214.74L368.66 215.43M368.66 215.43L366.71 215.87M366.71 215.87L364.69 216.02"/>
<path d="M405.1 207.97L404.69 208.38"/>
<path d="M404.69 214.92L375.46 214.92"/>
<path d="M452.87 72.64L452.08 65.48"/>
<path d="M452.08 65.48L442.02 63.94"/>
<path d="M439.12 70.53L442.02 63.94"/>
<path d="M272.51 347.1L293.19 345.47M293.19 345.47L313.36 340.63M313.36 340.63L332.52 332.69M332.52 332.69L350.2 321.86M350.2 321.86L365.98 308.39M365.98 308.39L379.45 292.61M379.45 292.61L390.28 274.93M390.28 274.93L398.22 255.77M398.22 255.77L403.06 235.6M403.06 235.6L404.69 214.92"/>
<path d="M272.51 347.1L204.54 347.1"/>
<path d="M170.82 338.38L181.51 343.18M181.51 343.18L192.86 346.11M192.86 346.11L204.54 347.1"/>
<path d="M170.82 338.38L150.72 327.24"/>
<path d="M148 317.78L147.13 321.27M147.13 321.27L148.13 324.73M148.13 324.73L150.72 327.24"/>
<path d="M148 317.78L210.4 205.22"/>
<path d="M219.86 202.51L216.36 201.63M216.36 201.63L212.9 202.63M212.9 202.63L210.4 205.22"/>
<path d="M219.86 202.5L251.62 220.11"/>
<path d="M285.35 228.84L310.77 228.84"/>
<path d="M212.75 290.68L214.72 280.13M214.72 280.13L220.37 271M220.37 271L228.94 264.53M228.94 264.53L239.27 261.59M239.27 261.59L249.96 262.58M249.96 262.58L259.57 267.37M259.57 267.37L266.81 275.3M266.81 275.3L270.69 285.31M270.69 285.31L270.69 296.05M270.69 296.05L266.81 306.06M266.81 306.06L259.57 314M259.57 314L249.96 318.78M249.96 318.78L239.27 319.77M239.27 319.77L228.94 316.84M228.94 316.84L220.37 310.37M220.37 310.37L214.72 301.24M214.72 301.24L212.75 290.68"/>
<path d="M310.77 228.84L317.73 226.97M317.73 226.97L322.82 221.88M322.82 221.88L324.69 214.92"/>
<path d="M375.46 214.92L372.33 216.73M372.33 216.73L368.88 217.96M368.88 217.96L365.22 218.47M365.22 218.47L361.18 218.12M361.18 218.12L357.35 216.87M357.35 216.87L353.92 214.92"/>
<path d="M251.62 220.11L262.32 224.91M262.32 224.91L273.67 227.85M273.67 227.85L285.35 228.84"/>
</g>
</g>
</svg>
