<?xml version="1.0" standalone="no"?><svg xmlns="http://www.w3.org/2000/svg" width="600.000" height="450.000" viewBox="0.0 0.0 600.000 450.000" version="1.1">
<title>Acme Converter - Post-processed with EDS-Designer: 14.44 (info@symca.com)</title>
<desc>Acme Converter - Post-processed with EDS-Designer: 14.44 (info@symca.com)</desc>
<g id="EDS_STYLE_GROUP" fill="none" stroke="black" stroke-width="1.0">
<g id="0" display="visible">
<path d="M99.05 230.86L99.05 207.44M99.05 207.44L106.85 223.05M106.85 223.05L114.66 207.44M114.66 207.44L114.66 230.86M126.36 230.86L122.46 226.95M122.46 226.95L122.46 223.05M122.46 223.05L126.36 219.15M126.36 219.15L134.17 219.15M134.17 219.15L138.07 215.25M138.07 215.25L138.07 211.35M138.07 211.35L134.17 207.44M134.17 207.44L126.36 207.44M126.36 207.44L122.46 211.35M122.46 211.35L122.46 215.25M122.46 215.25L126.36 219.15M134.17 219.15L138.07 223.05M138.07 223.05L138.07 226.95M138.07 226.95L134.17 230.86M134.17 230.86L126.36 230.86"/>
<path d="M68.81 225L70.65 211.58M70.65 211.58L76.05 199.15M76.05 199.15L84.6 188.64M84.6 188.64L95.67 180.83M95.67 180.83L108.44 176.29M108.44 176.29L121.95 175.37M121.95 175.37L135.22 178.12M135.22 178.12L147.25 184.36M147.25 184.36L157.15 193.61M157.15 193.61L164.19 205.18M164.19 205.18L167.85 218.23M167.85 218.23L167.85 231.78M167.85 231.78L164.19 244.82M164.19 244.82L157.15 256.4M157.15 256.4L147.25 265.65M147.25 265.65L135.22 271.88M135.22 271.88L121.95 274.64M121.95 274.64L108.44 273.71M108.44 273.71L95.67 269.18M95.67 269.18L84.6 261.36M84.6 261.36L76.05 250.85M76.05 250.85L70.65 238.43M70.65 238.43L68.81 225"/>
<path d="M56.89 125.5L229.43 125.5"/>
<path d="M56.89 324.51L229.43 324.51"/>
<path d="M56.89 125.5L39.66 138.52M39.66 138.52L25.12 154.48M25.12 154.48L13.76 172.84M13.76 172.84L5.96 192.98M5.96 192.98L1.99 214.21M1.99 214.21L1.99 235.8M1.99 235.8L5.96 257.03M5.96 257.03L13.76 277.16M13.76 277.16L25.12 295.53M25.12 295.53L39.66 311.49M39.66 311.49L56.89 324.51"/>
<path d="M358.54 154.77L551.69 154.77"/>
<path d="M358.54 295.24L551.69 295.24"/>
<path d="M261.96 131.35L246.02 126.65M246.02 126.65L229.43 125.5"/>
<path d="M261.96 131.35L285.02 141.08M285.02 141.08L308.98 148.27M308.98 148.27L333.59 152.85M333.59 152.85L358.54 154.77"/>
<path d="M551.69 295.24L562.49 293.35M562.49 293.35L572.71 287.77M572.71 287.77L581.79 278.81M581.79 278.81L589.25 266.95M589.25 266.95L594.69 252.82M594.69 252.82L597.8 237.2M597.8 237.2L598.44 220.92M598.44 220.92L596.55 204.86M596.55 204.86L592.24 189.88M592.24 189.88L585.75 176.8M585.75 176.8L577.42 166.32M577.42 166.32L567.71 159M567.71 159L557.13 155.24M557.13 155.24L546.26 155.24M546.26 155.24L535.68 159M535.68 159L525.96 166.32M525.96 166.32L517.63 176.8M517.63 176.8L511.14 189.88M511.14 189.88L506.83 204.86M506.83 204.86L504.95 220.92M504.95 220.92L505.58 237.2M505.58 237.2L508.7 252.82M508.7 252.82L514.13 266.95M514.13 266.95L521.59 278.81M521.59 278.81L530.68 287.77M530.68 287.77L540.89 293.35M540.89 293.35L551.69 295.24"/>
<path d="M551.69 274.76L558.8 272.91M558.8 272.91L565.38 267.51M565.38 267.51L570.94 258.96M570.94 258.96L575.08 247.89M575.08 247.89L577.48 235.13M577.48 235.13L577.97 221.61M577.97 221.61L576.51 208.34M576.51 208.34L573.21 196.31M573.21 196.31L568.31 186.41M568.31 186.41L562.18 179.37M562.18 179.37L555.28 175.72M555.28 175.72L548.1 175.72M548.1 175.72L541.2 179.37M541.2 179.37L535.07 186.41M535.07 186.41L530.17 196.31M530.17 196.31L526.87 208.34M526.87 208.34L525.41 221.61M525.41 221.61L525.9 235.13M525.9 235.13L528.31 247.89M528.31 247.89L532.44 258.96M532.44 258.96L538.01 267.51M538.01 267.51L544.58 272.91M544.58 272.91L551.69 274.76"/>
<path d="M358.54 295.24L333.59 297.15M333.59 297.15L308.98 301.73M308.98 301.73L285.02 308.93M285.02 308.93L261.96 318.65"/>
<path d="M229.43 324.51L246.02 323.36M246.02 323.36L261.96 318.65"/>
<path d="M358.53 154.91L340.6 155.5M340.6 155.5L323.25 159.4M323.25 159.4L307.31 166.44M307.31 166.44L293.53 176.27M293.53 176.27L282.57 188.43M282.57 188.43L274.97 202.34M274.97 202.34L271.07 217.33M271.07 217.33L271.07 232.68M271.07 232.68L274.97 247.67M274.97 247.67L282.57 261.57M282.57 261.57L293.53 273.73M293.53 273.73L307.31 283.57M307.31 283.57L323.25 290.6M323.25 290.6L340.6 294.51M340.6 294.51L358.53 295.1"/>
</g>
</g>
</svg>
