<?xml version="1.0" standalone="no"?><svg xmlns="http://www.w3.org/2000/svg" width="600.000" height="450.000" viewBox="0.0 0.0 600.000 450.000" version="1.1">
<title>Acme Converter - Post-processed with EDS-Designer: 14.44 (info@symca.com)</title>
<desc>Acme Converter - Post-processed with EDS-Designer: 14.44 (info@symca.com)</desc>
<g id="EDS_STYLE_GROUP" fill="none" stroke="black" stroke-width="1.0">
<g id="0" display="visible">
<path d="M418.52 315.23L434.09 327.56M434.09 327.56L451.68 336.79M451.68 336.79L470.68 342.59M470.68 342.59L490.43 344.77M490.43 344.77L510.24 343.24M510.24 343.24L529.42 338.06M529.42 338.06L547.3 329.41M547.3 329.41L563.27 317.59M563.27 317.59L576.77 303.02M576.77 303.02L587.33 286.19M587.33 286.19L594.58 267.69M594.58 267.69L598.27 248.17M598.27 248.17L598.27 228.31M598.27 228.31L594.59 208.79M594.59 208.79L587.35 190.29M587.35 190.29L576.8 173.46M576.8 173.46L563.31 158.87M563.31 158.87L547.34 147.05M547.34 147.05L529.46 138.39M529.46 138.39L510.29 133.2M510.29 133.2L490.48 131.67M490.48 131.67L470.73 133.83M470.73 133.83L451.73 139.63M451.73 139.63L434.13 148.84M434.13 148.84L418.55 161.17"/>
<path d="M277.52 170.39L277.54 144.18"/>
<path d="M261.14 156.84L261.14 169.02"/>
<path d="M135.42 144.18L135.42 160.21"/>
<path d="M151.59 169.02L151.59 156.84"/>
<path d="M90.98 151.95L88.29 153.89M88.29 153.89L87.19 157.02M87.19 157.02L88.06 160.21M88.06 160.21L90.6 162.34"/>
<path d="M46.88 121.05L1.3 221.63"/>
<path d="M46.88 148L1.3 221.63"/>
<path d="M135.53 148.33L99.74 132.26"/>
<path d="M90.98 151.95L99.74 149.02"/>
<path d="M99.74 149.02L99.74 121.05"/>
<path d="M94.19 115.5L52.44 115.5"/>
<path d="M46.88 121.05L46.88 148"/>
<path d="M46.88 148L99.74 148"/>
<path d="M99.74 125.09L46.88 125.09"/>
<path d="M99.74 121.05L98.11 117.12M98.11 117.12L94.19 115.5"/>
<path d="M52.44 115.5L49.66 116.24M49.66 116.24L47.63 118.27M47.63 118.27L46.88 121.05"/>
<path d="M277.54 144.18L135.42 144.18"/>
<path d="M151.59 156.84L261.14 156.84"/>
<path d="M135.42 144.18L151.59 156.84"/>
<path d="M261.14 156.84L277.54 144.18"/>
<path d="M127.85 177.83L90.6 162.34"/>
<path d="M127.85 298.42L90.6 313.91"/>
<path d="M135.54 327.92L99.74 343.99"/>
<path d="M46.88 355.2L46.88 328.25"/>
<path d="M99.74 327.23L99.74 355.2"/>
<path d="M46.88 355.2L1.28 252.5"/>
<path d="M1.3 221.63L1.28 252.5"/>
<path d="M1.28 252.5L1.3 221.63"/>
<path d="M30.36 237.78L32.29 226.84M32.29 226.84L37.85 217.21M37.85 217.21L46.36 210.07M46.36 210.07L56.8 206.27M56.8 206.27L67.92 206.27M67.92 206.27L78.36 210.07M78.36 210.07L86.87 217.21M86.87 217.21L92.43 226.84M92.43 226.84L94.36 237.78M94.36 237.78L92.43 248.73M92.43 248.73L86.87 258.35M86.87 258.35L78.36 265.49M78.36 265.49L67.92 269.3M67.92 269.3L56.8 269.3M56.8 269.3L46.36 265.49M46.36 265.49L37.85 258.35M37.85 258.35L32.29 248.73M32.29 248.73L30.36 237.78"/>
<path d="M90.98 324.31L99.74 327.23"/>
<path d="M90.6 313.91L88.06 316.04M88.06 316.04L87.19 319.24M87.19 319.24L88.29 322.36M88.29 322.36L90.98 324.31"/>
<path d="M46.88 328.25L99.74 328.25"/>
<path d="M46.88 328.25L1.28 252.5"/>
<path d="M94.19 360.75L52.44 360.75"/>
<path d="M46.88 355.2L47.63 357.98M47.63 357.98L49.66 360.01M49.66 360.01L52.44 360.75"/>
<path d="M94.19 360.75L96.96 360.01M96.96 360.01L99 357.98M99 357.98L99.74 355.2"/>
<path d="M99.74 351.16L46.88 351.16"/>
<path d="M277.56 314.85L405.43 315.15"/>
<path d="M277.53 161.56L405.43 161.21"/>
<path d="M376.51 315.08L294.56 300.9"/>
<path d="M377.56 161.28L294.6 175.48"/>
<path d="M277.56 332.21L135.44 332.24"/>
<path d="M151.61 319.58L261.15 319.55"/>
<path d="M151.61 307.4L261.15 307.38"/>
<path d="M261.14 169.02L151.59 169.02"/>
<path d="M191.17 172.23L191.17 304.25"/>
<path d="M179.58 304.25L179.58 172.23"/>
<path d="M211.71 172.23L211.71 304.25"/>
<path d="M200.11 304.25L200.11 172.23"/>
<path d="M232.53 172.23L232.53 304.25"/>
<path d="M220.93 304.25L220.93 172.23"/>
<path d="M127.85 177.83L131.41 178.07M131.41 178.07L134.39 176.09M134.39 176.09L135.53 172.7"/>
<path d="M135.42 160.21L151.59 169.02"/>
<path d="M135.53 172.7L135.42 160.21"/>
<path d="M179.58 172.23L191.17 172.23"/>
<path d="M200.11 172.23L211.71 172.23"/>
<path d="M220.93 172.23L232.53 172.23"/>
<path d="M135.54 303.55L134.39 300.17M134.39 300.17L131.41 298.18M131.41 298.18L127.85 298.42"/>
<path d="M151.59 307.36L135.42 316.17"/>
<path d="M135.54 303.55L135.42 316.17"/>
<path d="M135.44 332.24L135.44 316.21"/>
<path d="M135.44 332.24L151.61 319.58"/>
<path d="M151.61 307.4L151.61 319.58"/>
<path d="M191.17 304.25L179.58 304.25"/>
<path d="M211.71 304.25L200.11 304.25"/>
<path d="M232.53 304.25L220.93 304.25"/>
<path d="M284.07 186.78L271.52 192.35M271.52 192.35L260.78 200.93M260.78 200.93L252.57 211.94M252.57 211.94L247.42 224.68M247.42 224.68L245.66 238.31M245.66 238.31L247.42 251.93M247.42 251.93L252.57 264.67M252.57 264.67L260.78 275.69M260.78 275.69L271.52 284.26M271.52 284.26L284.07 289.83"/>
<path d="M261.14 169.02L277.52 170.39"/>
<path d="M277.51 175.48L277.51 170.39"/>
<path d="M277.51 175.48L294.6 175.48"/>
<path d="M261.14 307.36L277.52 305.99"/>
<path d="M261.15 319.55L277.56 332.21"/>
<path d="M261.15 319.55L261.15 307.38"/>
<path d="M277.53 305.99L277.52 305.99"/>
<path d="M277.53 300.9L277.56 332.21"/>
<path d="M277.51 300.9L294.56 300.9"/>
<path d="M445.55 238.22L447.44 225.08M447.44 225.08L452.95 213.01M452.95 213.01L461.64 202.98M461.64 202.98L472.8 195.81M472.8 195.81L485.54 192.07M485.54 192.07L498.81 192.07M498.81 192.07L511.54 195.81M511.54 195.81L522.7 202.98M522.7 202.98L531.39 213.01M531.39 213.01L536.9 225.08M536.9 225.08L538.79 238.22M538.79 238.22L536.9 251.35M536.9 251.35L531.39 263.42M531.39 263.42L522.7 273.45M522.7 273.45L511.54 280.63M511.54 280.63L498.81 284.36M498.81 284.36L485.54 284.36M485.54 284.36L472.8 280.63M472.8 280.63L461.64 273.45M461.64 273.45L452.95 263.42M452.95 263.42L447.44 251.35M447.44 251.35L445.55 238.22"/>
<path d="M405.43 161.21L418.55 161.17"/>
<path d="M405.43 315.2L418.52 315.23"/>
<path d="M455.04 258.41L455.04 214.27M455.04 214.27L471.86 258.41M471.86 258.41L488.67 214.27M488.67 214.27L488.67 258.41M515.99 214.27L509.69 216.37M509.69 216.37L507.59 220.58M507.59 220.58L507.59 224.78M507.59 224.78L509.69 228.98M509.69 228.98L513.89 231.08M513.89 231.08L522.3 233.19M522.3 233.19L528.6 235.29M528.6 235.29L532.81 239.49M532.81 239.49L534.91 243.69M534.91 243.69L534.91 250M534.91 250L532.81 254.2M532.81 254.2L530.7 256.3M530.7 256.3L524.4 258.41M524.4 258.41L515.99 258.41M515.99 258.41L509.69 256.3M509.69 256.3L507.59 254.2M507.59 254.2L505.48 250M505.48 250L505.48 243.69M505.48 243.69L507.59 239.49M507.59 239.49L511.79 235.29M511.79 235.29L518.09 233.19M518.09 233.19L526.5 231.08M526.5 231.08L530.7 228.98M530.7 228.98L532.81 224.78M532.81 224.78L532.81 220.58M532.81 220.58L530.7 216.37M530.7 216.37L524.4 214.27M524.4 214.27L515.99 214.27"/>
</g>
</g>
</svg>
