<?xml version="1.0" standalone="no"?><svg xmlns="http://www.w3.org/2000/svg" width="600.000" height="450.000" viewBox="0.0 0.0 600.000 450.000" version="1.1">
<title>Acme Converter - Post-processed with EDS-Designer: 14.44 (info@symca.com)</title>
<desc>Acme Converter - Post-processed with EDS-Designer: 14.44 (info@symca.com)</desc>
<g id="EDS_STYLE_GROUP" fill="none" stroke="black" stroke-width="1.0">
<g id="0" display="visible">
<path d="M143.89 371.25L143.89 334.39M145.64 334.39L145.64 371.25M133.35 334.39L131.6 344.92M131.6 344.92L131.6 334.39M131.6 334.39L157.93 334.39M157.93 334.39L157.93 344.92M157.93 344.92L156.18 334.39M138.62 371.25L150.91 371.25M170.22 371.25L170.22 334.39M171.97 334.39L171.97 371.25M164.95 334.39L177.24 334.39M164.95 371.25L177.24 371.25M189.53 371.25L189.53 334.39M191.28 371.25L191.28 334.39M191.28 334.39L212.35 367.74M191.28 337.9L212.35 371.25M212.35 371.25L212.35 334.39M184.26 334.39L191.28 334.39M207.08 334.39L217.62 334.39M184.26 371.25L194.79 371.25M266.77 371.25L266.77 334.39M268.52 334.39L268.52 371.25M261.5 334.39L282.57 334.39M282.57 334.39L287.83 336.14M287.83 336.14L289.59 337.9M289.59 337.9L291.34 341.41M291.34 341.41L291.34 346.67M291.34 346.67L289.59 350.18M289.59 350.18L287.83 351.94M287.83 351.94L282.57 353.7M282.57 353.7L268.52 353.7M282.57 334.39L286.08 336.14M286.08 336.14L287.83 337.9M287.83 337.9L289.59 341.41M289.59 341.41L289.59 346.67M289.59 346.67L287.83 350.18M287.83 350.18L286.08 351.94M286.08 351.94L282.57 353.7M261.5 371.25L273.79 371.25M305.39 371.25L305.39 334.39M307.14 334.39L307.14 371.25M300.12 334.39L312.41 334.39M300.12 371.25L326.45 371.25M326.45 371.25L326.45 360.72M326.45 360.72L324.7 371.25M347.52 334.39L335.23 371.25M347.52 334.39L359.81 371.25M347.52 339.65L358.05 371.25M338.74 360.72L354.54 360.72M331.72 371.25L342.25 371.25M352.78 371.25L363.32 371.25M380.87 371.25L380.87 334.39M382.63 334.39L382.63 371.25M370.34 334.39L368.58 344.92M368.58 344.92L368.58 334.39M368.58 334.39L394.91 334.39M394.91 334.39L394.91 344.92M394.91 344.92L393.16 334.39M375.6 371.25L387.89 371.25M407.2 371.25L407.2 334.39M408.96 334.39L408.96 371.25M419.49 344.92L419.49 358.96M401.94 334.39L430.02 334.39M430.02 334.39L430.02 344.92M430.02 344.92L428.27 334.39M408.96 351.94L419.49 351.94M401.94 371.25L430.02 371.25M430.02 371.25L430.02 360.72M430.02 360.72L428.27 371.25M444.07 371.25L444.07 334.39M445.82 334.39L445.82 371.25M438.8 334.39L456.35 334.39M456.35 334.39L461.62 336.14M461.62 336.14L465.13 339.65M465.13 339.65L466.89 343.16M466.89 343.16L468.64 348.43M468.64 348.43L468.64 357.21M468.64 357.21L466.89 362.47M466.89 362.47L465.13 365.98M465.13 365.98L461.62 369.49M461.62 369.49L456.35 371.25M456.35 371.25L438.8 371.25M456.35 334.39L459.87 336.14M459.87 336.14L463.38 339.65M463.38 339.65L465.13 343.16M465.13 343.16L466.89 348.43M466.89 348.43L466.89 357.21M466.89 357.21L465.13 362.47M465.13 362.47L463.38 365.98M463.38 365.98L459.87 369.49M459.87 369.49L456.35 371.25"/>
<path d="M77.28 188.14L79.09 200.73M79.09 200.73L84.37 212.31M84.37 212.31L92.71 221.93M92.71 221.93L103.42 228.81M103.42 228.81L115.63 232.4M115.63 232.4L128.36 232.4M128.36 232.4L140.57 228.81M140.57 228.81L151.27 221.93M151.27 221.93L159.61 212.31M159.61 212.31L164.9 200.73M164.9 200.73L166.71 188.14"/>
<path d="M26.02 188.14L27.47 204.85M27.47 204.85L31.84 221.04M31.84 221.04L38.98 236.22M38.98 236.22L48.69 249.9M48.69 249.9L60.64 261.67M60.64 261.67L74.48 271.15M74.48 271.15L89.77 278.05"/>
<path d="M89.77 278.05L153.01 278.05"/>
<path d="M153.01 278.05L153.01 297.52"/>
<path d="M153.01 297.52L89.77 297.52"/>
<path d="M89.77 297.52L89.77 278.05"/>
<path d="M167.77 278.05L167.77 293.94"/>
<path d="M167.77 293.94L528.99 293.94"/>
<path d="M528.99 293.94L528.99 242.02"/>
<path d="M485.26 242.02L568.76 242.02"/>
<path d="M568.76 242.02L573.98 232.57"/>
<path d="M528.99 242.02L520.33 246.72"/>
<path d="M520.33 246.72L482.18 246.72"/>
<path d="M514.39 293.94L514.39 246.72"/>
<path d="M495.72 293.94L495.72 246.72"/>
<path d="M155.92 272.45L164.29 272.45"/>
<path d="M155.92 272.45L153.77 274.89M153.77 274.89L153.01 278.05"/>
<path d="M167.77 278.05L166.99 274.65M166.99 274.65L164.29 272.45"/>
<path d="M446.23 188.14L447.93 202.45M447.93 202.45L452.65 216.06M452.65 216.06L460.19 228.34M460.19 228.34L470.19 238.72M470.19 238.72L482.18 246.72"/>
<path d="M452.2 188.14L453.49 201.39M453.49 201.39L457.72 214.02M457.72 214.02L464.69 225.37M464.69 225.37L474.02 234.86M474.02 234.86L485.26 242.02"/>
<path d="M535.87 188.14L537.54 201.23M537.54 201.23L541.91 213.69M541.91 213.69L548.79 224.96M548.79 224.96L557.87 234.54M557.87 234.54L568.76 242.02"/>
<path d="M473.27 293.94L473.27 241.15"/>
<path d="M541.32 188.14L542.58 200.18M542.58 200.18L546.46 211.66M546.46 211.66L552.78 221.99M552.78 221.99L561.22 230.68M561.22 230.68L571.37 237.29"/>
<path d="M546.39 188.14L547.4 199.14M547.4 199.14L550.91 209.61M550.91 209.61L556.74 218.99M556.74 218.99L564.57 226.78M564.57 226.78L573.98 232.57"/>
<path d="M573.98 143.7L564.57 149.49M564.57 149.49L556.74 157.28M556.74 157.28L550.91 166.66M550.91 166.66L547.4 177.14M547.4 177.14L546.39 188.14"/>
<path d="M571.37 138.98L561.22 145.59M561.22 145.59L552.78 154.28M552.78 154.28L546.46 164.61M546.46 164.61L542.58 176.09M542.58 176.09L541.32 188.14"/>
<path d="M473.27 82.33L473.27 135.12"/>
<path d="M568.76 134.25L557.87 141.73M557.87 141.73L548.79 151.31M548.79 151.31L541.91 162.58M541.91 162.58L537.54 175.04M537.54 175.04L535.87 188.14"/>
<path d="M485.26 134.25L474.02 141.41M474.02 141.41L464.69 150.9M464.69 150.9L457.72 162.25M457.72 162.25L453.49 174.88M453.49 174.88L452.2 188.14"/>
<path d="M482.18 129.55L470.19 137.55M470.19 137.55L460.19 147.93M460.19 147.93L452.65 160.21M452.65 160.21L447.93 173.82M447.93 173.82L446.23 188.14"/>
<path d="M164.29 103.82L166.99 101.62M166.99 101.62L167.77 98.23"/>
<path d="M153.01 98.23L153.77 101.38M153.77 101.38L155.92 103.82"/>
<path d="M155.92 103.82L164.29 103.82"/>
<path d="M495.72 82.33L495.72 129.55"/>
<path d="M514.39 82.33L514.39 129.55"/>
<path d="M520.33 129.55L482.18 129.55"/>
<path d="M528.99 134.25L520.33 129.55"/>
<path d="M568.76 134.25L573.98 143.7"/>
<path d="M485.26 134.25L568.76 134.25"/>
<path d="M528.99 82.33L528.99 134.25"/>
<path d="M167.77 82.33L528.99 82.33"/>
<path d="M167.77 98.23L167.77 82.33"/>
<path d="M89.77 78.75L89.77 98.23"/>
<path d="M153.01 78.75L89.77 78.75"/>
<path d="M153.01 98.23L153.01 78.75"/>
<path d="M89.77 98.23L153.01 98.23"/>
<path d="M89.77 98.23L74.48 105.12M74.48 105.12L60.64 114.6M60.64 114.6L48.69 126.37M48.69 126.37L38.98 140.05M38.98 140.05L31.84 155.23M31.84 155.23L27.47 171.42M27.47 171.42L26.02 188.14"/>
<path d="M166.71 188.14L164.9 175.54M164.9 175.54L159.61 163.96M159.61 163.96L151.27 154.34M151.27 154.34L140.57 147.46M140.57 147.46L128.36 143.88M128.36 143.88L115.63 143.88M115.63 143.88L103.42 147.46M103.42 147.46L92.71 154.34M92.71 154.34L84.37 163.96M84.37 163.96L79.09 175.54M79.09 175.54L77.28 188.14"/>
</g>
</g>
</svg>
